<?xml version="1.0" encoding="UTF-8"?><svg id="a" xmlns="http://www.w3.org/2000/svg" viewBox="0 0 40 40"><path d="M20.216,30.025c3.096,0,4.932-1.764,4.967-4.211,.036-2.736-1.62-4.176-5.291-4.176h-2.736v-3.887h2.628c2.843,0,4.607-1.656,4.607-3.924,0-2.231-1.548-3.851-4.284-3.851-2.592,0-4.463,1.439-4.823,3.635h-4.896c.504-4.355,4.751-7.559,9.719-7.559,5.292,0,9.035,3.024,9.035,7.271,0,3.096-1.908,5.507-5.291,6.155,3.779,.396,6.083,2.844,6.083,6.299,0,4.788-4.104,8.171-9.719,8.171-5.327,0-9.575-2.987-10.151-7.559h4.932c.576,2.304,2.448,3.636,5.219,3.636Z" fill="#afb7c0"/><rect width="40" height="40" fill="none"/></svg>