<svg id="Layer_1" data-name="Layer 1" xmlns="http://www.w3.org/2000/svg" viewBox="0 0 40 40"><defs><style>.cls-1{fill:#e5e8eb;}.cls-2{fill:#3182f6;}.cls-3{fill:none;}</style></defs><rect class="cls-1" x="3.5" y="3.5" width="33" height="33" rx="8"/><path class="cls-2" d="M26.36,21.876,23.328,20l3.032-1.876a1.751,1.751,0,0,0-1.842-2.978l-2.767,1.712V13.6a1.751,1.751,0,0,0-3.5,0v3.254l-2.767-1.712a1.751,1.751,0,0,0-1.842,2.978L16.672,20,13.64,21.876a1.751,1.751,0,0,0,1.842,2.978l2.767-1.712V26.4a1.751,1.751,0,1,0,3.5,0V23.142l2.767,1.712a1.751,1.751,0,1,0,1.842-2.978Z"/><rect class="cls-3" width="40" height="40"/></svg>