<svg id="Layer_1" data-name="Layer 1" xmlns="http://www.w3.org/2000/svg" viewBox="0 0 40 40"><defs><style>.cls-1{fill:#e5e8eb;}.cls-2{fill:#3182f6;}.cls-3{fill:none;}</style></defs><rect class="cls-1" x="3.5" y="3.5" width="33" height="33" rx="8"/><path class="cls-2" d="M27.2,19.64c0,6.36-2.976,9.289-7.249,9.289a6.013,6.013,0,0,1-6.385-5.089H17.5A2.244,2.244,0,0,0,20,25.688c2.088-.071,3.217-1.775,3.288-5.808a4.869,4.869,0,0,1-4.224,2.544,5.4,5.4,0,0,1-5.64-5.736A6.189,6.189,0,0,1,20,10.3C24.344,10.3,27.2,13.111,27.2,19.64Zm-7.177-.456a2.6,2.6,0,0,0,2.688-2.832,2.591,2.591,0,0,0-2.688-2.809,2.592,2.592,0,0,0-2.712,2.833A2.584,2.584,0,0,0,20.023,19.184Z"/><rect class="cls-3" width="40" height="40"/></svg>