<?xml version="1.0" encoding="UTF-8"?><svg id="Layer_1" xmlns="http://www.w3.org/2000/svg" viewBox="0 0 40 40"><path d="m13.355,31.465c-2.039-1.174-3.651-2.775-4.836-4.804-1.185-2.028-1.777-4.248-1.777-6.661,0-2.391.593-4.601,1.777-6.629,1.185-2.028,2.797-3.634,4.836-4.819,2.038-1.185,4.264-1.777,6.677-1.777,2.391,0,4.596.598,6.612,1.793,2.018,1.196,3.624,2.802,4.82,4.819,1.195,2.018,1.793,4.222,1.793,6.613,0,2.413-.593,4.633-1.777,6.661-1.185,2.029-2.791,3.629-4.819,4.804-2.028,1.174-4.238,1.761-6.629,1.761-2.413,0-4.639-.587-6.677-1.761Zm11.896-2.29c1.602-.95,2.877-2.242,3.827-3.875.949-1.633,1.425-3.399,1.425-5.3s-.476-3.656-1.425-5.268c-.95-1.612-2.226-2.893-3.827-3.843-1.602-.95-3.342-1.425-5.22-1.425-1.9,0-3.651.476-5.252,1.425-1.602.95-2.877,2.231-3.827,3.843-.95,1.612-1.425,3.368-1.425,5.268s.475,3.667,1.425,5.3,2.226,2.925,3.827,3.875c1.601.95,3.352,1.425,5.252,1.425,1.878,0,3.618-.475,5.22-1.425Zm-8.471-3.139c-1.014-.587-1.799-1.409-2.354-2.466-.556-1.057-.832-2.279-.832-3.667s.282-2.61.849-3.667c.565-1.057,1.355-1.873,2.369-2.45,1.014-.576,2.193-.865,3.539-.865,1.75,0,3.191.497,4.323,1.489,1.131.993,1.782,2.29,1.953,3.891h-3.843c-.107-.662-.368-1.201-.784-1.618-.417-.416-.967-.624-1.649-.624-.94,0-1.649.331-2.13.993s-.721,1.612-.721,2.85c0,1.26.24,2.221.721,2.882.48.662,1.189.993,2.13.993.683,0,1.232-.208,1.649-.625.416-.417.677-.956.784-1.617h3.843c-.171,1.601-.822,2.898-1.953,3.891-1.132.993-2.573,1.489-4.323,1.489-1.367,0-2.558-.293-3.571-.881Z" fill="#4b596a"/><rect width="40" height="40" fill="none"/></svg>