<?xml version="1.0" encoding="UTF-8"?><svg id="a" xmlns="http://www.w3.org/2000/svg" viewBox="0 0 40 40"><g><path d="M13.355,31.465c-2.039-1.174-3.651-2.775-4.836-4.804-1.185-2.028-1.777-4.248-1.777-6.661,0-2.391,.593-4.601,1.777-6.629,1.185-2.028,2.797-3.634,4.836-4.819,2.038-1.185,4.264-1.777,6.677-1.777,2.391,0,4.596,.598,6.612,1.793,2.018,1.196,3.624,2.802,4.82,4.819,1.195,2.018,1.793,4.222,1.793,6.613,0,2.413-.593,4.633-1.777,6.661-1.185,2.029-2.791,3.629-4.819,4.804-2.028,1.174-4.238,1.761-6.629,1.761-2.413,0-4.639-.587-6.677-1.761Zm11.896-2.29c1.602-.95,2.877-2.242,3.827-3.875,.949-1.633,1.425-3.399,1.425-5.3s-.476-3.656-1.425-5.268c-.95-1.612-2.226-2.893-3.827-3.843-1.602-.95-3.342-1.425-5.22-1.425-1.9,0-3.651,.476-5.252,1.425-1.602,.95-2.877,2.231-3.827,3.843-.95,1.612-1.425,3.368-1.425,5.268s.475,3.667,1.425,5.3,2.226,2.925,3.827,3.875c1.601,.95,3.352,1.425,5.252,1.425,1.878,0,3.618-.475,5.22-1.425Z" fill="#4b596a"/><path d="M22.913,26.679l-2.874-4.73h-1.928v4.73h-2.856V13.363h5.373c.964,0,1.8,.181,2.508,.544,.708,.363,1.252,.875,1.633,1.535,.38,.661,.571,1.414,.571,2.258,0,.892-.236,1.678-.705,2.356-.471,.678-1.08,1.184-1.829,1.518l3.338,5.105h-3.231Zm-4.802-10.978v3.963h1.679c1.737,0,2.606-.66,2.606-1.981,0-.631-.22-1.119-.66-1.464s-1.089-.518-1.945-.518h-1.679Z" fill="#4b596a"/></g><rect width="40" height="40" fill="none"/></svg>