<svg id="Layer_1" data-name="Layer 1" xmlns="http://www.w3.org/2000/svg" viewBox="0 0 40 40"><defs><style>.cls-1{fill:#ffe3a0;}.cls-2{fill:#11202e;}.cls-3{fill:#d12030;}.cls-4{fill:none;}</style></defs><rect class="cls-1" x="2.792" y="5.905" width="34" height="28.19" rx="3.524" transform="translate(39.792 0.208) rotate(90)"/><path class="cls-2" d="M12.022,18.147s3.156,1.74,3.135,6.823a.536.536,0,0,0,.527.547h8.033a.525.525,0,0,0,.529-.486c.067-.981.577-3.253,3.686-4.975,0,0,.953-.652,0-1.086s-2.3-1.6-5.2.391c0,0-1.778-1.648-.824-5.723,0,0-2.471-1.344-4.856,4.6,0,0-2.817-2.731-5.549-1C11.5,17.236,11.261,17.561,12.022,18.147Z"/><circle class="cls-3" cx="21.753" cy="12.879" r="1.647"/><circle class="cls-3" cx="28.647" cy="19.707" r="1.647"/><circle class="cls-3" cx="10.938" cy="17.54" r="1.647"/><rect class="cls-2" x="15.121" y="26.003" width="9.087" height="1.994" rx="0.502"/><path class="cls-2" d="M9.3,9.246a.548.548,0,0,0,.6.546c.359,0,.563-.252.563-.714V6.044h.953V9.055a1.377,1.377,0,0,1-1.541,1.553A1.516,1.516,0,0,1,8.253,9.246Z"/><path class="cls-2" d="M29.987,30.754a.548.548,0,0,0-.6-.546c-.359,0-.563.252-.563.714v3.034h-.953V30.945a1.377,1.377,0,0,1,1.541-1.553,1.516,1.516,0,0,1,1.619,1.362Z"/><rect class="cls-4" width="40" height="40"/></svg>