<svg id="Layer_1" data-name="Layer 1" xmlns="http://www.w3.org/2000/svg" xmlns:xlink="http://www.w3.org/1999/xlink" viewBox="0 0 40 40"><defs><style>.cls-1{fill:none;}.cls-2{clip-path:url(#clip-path);}.cls-3{fill:#e5e8eb;}.cls-4{fill:#3f73b6;}.cls-5{clip-path:url(#clip-path-2);}.cls-6{fill:#e8bf23;}.cls-6,.cls-8{fill-rule:evenodd;}.cls-7,.cls-8{fill:#292c2f;}</style><clipPath id="clip-path"><rect class="cls-1" x="1.162" y="8.966" width="37.677" height="22.068" rx="4"/></clipPath><clipPath id="clip-path-2"><rect class="cls-1" x="1.162" y="8.966" width="37.677" height="22.068"/></clipPath></defs><g class="cls-2"><rect class="cls-3" x="1.162" y="8.966" width="37.677" height="22.068"/><path class="cls-4" d="M1.162,28.582H38.838V26.13H1.162Zm0-4.9H38.838V21.226H1.162Zm12.214-4.9H38.838V16.322H13.376Zm0-4.9H38.838V11.419H13.376Z"/><g class="cls-5"><path class="cls-6" d="M7.286,15.114l.106,1.813c-1.663,1.208-.637,1.918-1.841,2.309.815-.817-.247-.817.673-2.666"/><path class="cls-7" d="M7.321,15.114l.107,1.813H7.357l-.142-1.813Zm.107,1.813h0v.035l-.036-.035Zm0,.035a2.4,2.4,0,0,0-1.1,1.492H6.224A2.5,2.5,0,0,1,7.357,16.89Zm-1.1,1.492a.925.925,0,0,1-.743.818L5.551,19.2a.838.838,0,0,0,.673-.747Zm-.743.818-.177.071.106-.107h.035Zm-.071-.036c.354-.391.354-.6.283-.888h.107a.914.914,0,0,1-.319.924Zm.283-.888a2.686,2.686,0,0,1,.39-1.778l.07.036a2.491,2.491,0,0,0-.353,1.742Z"/><path class="cls-7" d="M6.72,16.5a4.043,4.043,0,0,0-.567,1.778l-.1-.036a4.931,4.931,0,0,1,.6-1.777Zm-.567,1.778c-.07.462-.141.817-.566.995L5.551,19.2c.39-.178.425-.5.5-.96Z"/><path class="cls-6" d="M7.286,15.114l-.141-1.848c1.664-1.208.637-1.919,1.841-2.31-.779.853.247.853-.673,2.665"/><path class="cls-7" d="M7.215,15.114,7.109,13.3l.071-.036.141,1.848ZM7.109,13.3v-.036h.036Zm0-.036a2.231,2.231,0,0,0,1.1-1.528l.106.036A2.455,2.455,0,0,1,7.18,13.3Zm1.1-1.528a.96.96,0,0,1,.743-.818l.036.071a.845.845,0,0,0-.673.783Zm.743-.818.177-.035-.106.106-.035-.035Zm.071.071c-.354.391-.354.57-.283.854l-.106.036a.969.969,0,0,1,.318-.961Zm-.283.854a2.8,2.8,0,0,1-.389,1.812l-.071-.036a2.514,2.514,0,0,0,.354-1.74Z"/><path class="cls-7" d="M7.817,13.693a4.808,4.808,0,0,0,.6-1.741H8.49a4.743,4.743,0,0,1-.6,1.776Zm.6-1.741c.071-.5.107-.818.531-1.032l.036.071c-.39.179-.425.5-.5.961Z"/><path class="cls-6" d="M7.286,15.114l-1.841.106c-1.2-1.67-1.911-.639-2.3-1.847.85.817.815-.213,2.655.675"/><path class="cls-7" d="M7.286,15.149l-1.841.142v-.106l1.806-.107Zm-1.841.142h0l-.035-.035.035-.036Zm-.035-.035a2.236,2.236,0,0,0-1.487-1.1v-.071A2.285,2.285,0,0,1,5.481,15.22Zm-1.487-1.1a.957.957,0,0,1-.814-.746l.071-.035a.927.927,0,0,0,.743.71Zm-.814-.746-.071-.142.142.107H3.144Zm.071-.035a.832.832,0,0,0,.849.284l.036.071a.958.958,0,0,1-.956-.32Zm.849.284a2.463,2.463,0,0,1,1.806.355l-.071.071a2.624,2.624,0,0,0-1.7-.355Z"/><path class="cls-7" d="M5.87,14.581a4.172,4.172,0,0,0-1.735-.6V13.87a4.3,4.3,0,0,1,1.771.64Zm-1.735-.6c-.495-.071-.814-.142-1.026-.569l.071-.035c.177.391.495.462.955.5Z"/><path class="cls-6" d="M7.286,15.114l1.806-.142c1.2,1.67,1.912.675,2.3,1.848-.85-.782-.814.249-2.655-.676"/><path class="cls-7" d="M7.251,15.078l1.841-.142v.071l-1.806.142Zm1.841-.142h.035l-.035.036Zm.035,0a2.325,2.325,0,0,0,1.487,1.137v.071a2.411,2.411,0,0,1-1.558-1.137Zm1.487,1.137a.873.873,0,0,1,.814.747h-.07a.836.836,0,0,0-.744-.676Zm.814.747.071.142-.141-.106.035-.036Zm-.07.036a.817.817,0,0,0-.85-.286l-.035-.071a.86.86,0,0,1,.955.285Zm-.85-.286a2.65,2.65,0,0,1-1.77-.39l.035-.071a2.5,2.5,0,0,0,1.7.39Z"/><path class="cls-7" d="M8.667,15.647a4.708,4.708,0,0,0,1.77.6l-.035.071a4.286,4.286,0,0,1-1.77-.6Zm1.77.6c.46.071.779.106.991.568l-.07.037c-.177-.428-.5-.463-.956-.534Z"/><path class="cls-6" d="M7.286,15.114,6.083,16.5c-2.054-.355-1.841.89-2.939.321,1.168-.036.425-.747,2.337-1.422"/><path class="cls-7" d="M7.286,15.114,6.118,16.5l-.07-.035,1.2-1.386ZM6.118,16.5l-.035.036V16.5Zm-.035.036a2.246,2.246,0,0,0-1.841.285l-.071-.071a2.406,2.406,0,0,1,1.912-.321Zm-1.841.285a.982.982,0,0,1-1.133.036l.035-.072a.871.871,0,0,0,1.027-.035Zm-1.133.036-.142-.072h.177v.036Zm.035-.072a.843.843,0,0,0,.815-.427l.07.071a.869.869,0,0,1-.885.428Zm.815-.427a2.69,2.69,0,0,1,1.522-.995l.035.072a2.421,2.421,0,0,0-1.487.994Z"/><path class="cls-7" d="M5.906,15.718a4.469,4.469,0,0,0-1.664.817l-.036-.071a4.486,4.486,0,0,1,1.664-.817Zm-1.664.817c-.39.285-.638.5-1.1.321v-.072c.425.143.673-.035,1.062-.32Z"/><path class="cls-6" d="M7.286,15.114l1.169-1.386c2.053.32,1.841-.924,2.938-.355-1.168.035-.425.781-2.337,1.421"/><path class="cls-7" d="M7.251,15.078l1.168-1.385.071.071-1.2,1.35Zm1.168-1.385h.036v.035Zm.036,0a2.4,2.4,0,0,0,1.841-.285l.07.071a2.439,2.439,0,0,1-1.911.285Zm1.841-.285a.984.984,0,0,1,1.132-.071l-.035.071a.867.867,0,0,0-1.027.071Zm1.132-.071.142.071-.177.036v-.071Zm-.035.107a.827.827,0,0,0-.814.391l-.071-.036a.986.986,0,0,1,.885-.462Zm-.814.391a2.7,2.7,0,0,1-1.523.995l-.035-.072a2.425,2.425,0,0,0,1.487-.959Z"/><path class="cls-7" d="M8.632,14.474a3.619,3.619,0,0,0,1.664-.817l.035.071a3.976,3.976,0,0,1-1.664.853Zm1.664-.817c.389-.284.672-.462,1.1-.32v.071c-.425-.142-.673.071-1.062.32Z"/><path class="cls-6" d="M7.286,15.114l-1.38-1.208c.318-2.061-.921-1.848-.355-2.95.036,1.173.779.427,1.417,2.346"/><path class="cls-7" d="M7.251,15.149,5.87,13.941l.071-.071,1.345,1.208ZM5.87,13.941h0v-.035h.036Zm0-.035a2.606,2.606,0,0,0-.283-1.848l.071-.035a2.529,2.529,0,0,1,.283,1.883Zm-.283-1.848a.885.885,0,0,1-.071-1.1l.071.035a.892.892,0,0,0,.071,1.032Zm-.071-1.1.071-.142v.142H5.516Zm.071,0a.849.849,0,0,0,.425.818l-.036.071a.949.949,0,0,1-.46-.889Zm.425.818A2.7,2.7,0,0,1,7,13.3l-.071.035a2.761,2.761,0,0,0-.956-1.492Z"/><path class="cls-7" d="M6.649,13.728a3.636,3.636,0,0,0-.814-1.67l.071-.035a3.952,3.952,0,0,1,.849,1.705Zm-.814-1.67c-.284-.391-.461-.639-.319-1.1h.071c-.142.426.036.676.319,1.067Z"/><path class="cls-6" d="M7.286,15.114l1.346,1.172c-.319,2.062.92,1.849.354,2.95C8.95,18.1,8.207,18.845,7.57,16.89"/><path class="cls-7" d="M7.286,15.078l1.381,1.173-.035.071L7.251,15.149Zm1.381,1.173.035.035-.035.036-.035-.036Zm0,.071A2.66,2.66,0,0,0,8.95,18.17l-.071.036a2.64,2.64,0,0,1-.283-1.92ZM8.95,18.17a.886.886,0,0,1,.071,1.1l-.071-.036a.881.881,0,0,0-.071-1.03Zm.071,1.1-.071.142v-.178h.036Zm-.071-.036a.889.889,0,0,0-.424-.817l.035-.036a.885.885,0,0,1,.46.853Zm-.424-.817c-.284-.178-.638-.462-.992-1.529h.071a2.932,2.932,0,0,0,.956,1.493Z"/><path class="cls-7" d="M7.888,16.464A4.044,4.044,0,0,0,8.7,18.135l-.07.071A4.011,4.011,0,0,1,7.817,16.5ZM8.7,18.135a1.165,1.165,0,0,1,.319,1.137l-.071-.036c.142-.426-.035-.675-.318-1.03Z"/><polyline class="cls-6" points="7.286 15.114 8.065 15.114 7.286 19.591 6.472 15.114 7.286 15.114 7.286 19.591"/><path class="cls-7" d="M7.286,15.078h.779v.071H7.286Zm.779,0h.071v.036H8.065Zm.071.036-.815,4.477H7.215l.815-4.477Zm-.815,4.477-.035.214-.071-.214h.106Zm-.106,0L6.4,15.114h.107l.813,4.477ZM6.4,15.078h.071v.036H6.4Zm.071,0h.814v.071H6.472Zm.814,0h.035v.036H7.286Zm.035,4.513H7.215V15.114h.106Z"/><polyline class="cls-6" points="7.286 15.114 6.472 15.114 7.286 10.601 8.065 15.114 7.286 15.114 7.286 10.601"/><path class="cls-7" d="M7.286,15.149H6.472v-.071h.814Zm-.814,0H6.4v-.035h.071ZM6.4,15.114,7.215,10.6l.106.035-.813,4.478ZM7.215,10.6l.071-.214.035.214H7.215Zm.106,0,.815,4.513H8.03l-.815-4.478Zm.815,4.548H8.065v-.035h.071Zm-.071,0H7.286v-.071h.779Zm-.779,0H7.215v-.035h.071ZM7.215,10.6h.106v4.513H7.215Z"/><polyline class="cls-6" points="7.286 15.114 7.286 15.931 2.79 15.114 7.286 14.297 7.286 15.114 2.79 15.114"/><path class="cls-7" d="M7.321,15.931H7.215v-.817h.106Zm0,0v.035h-.07l.035-.035Zm-.07.035L2.79,15.149l.036-.071,4.46.817ZM2.79,15.149l-.212-.035.212-.036v.071Zm0-.071,4.461-.817.035.071-4.46.817Zm4.461-.817.07-.035V14.3H7.286Zm.07.853H7.215V14.3h.106Zm0,.035H7.286v-.035h.035Zm-.035,0H2.79v-.071h4.5Z"/><polyline class="cls-6" points="7.286 15.114 7.286 14.297 11.747 15.114 7.286 15.931 7.286 15.114 11.747 15.114"/><path class="cls-7" d="M7.215,14.3h.106v.817H7.215Zm0,0v-.071l.071.035V14.3Zm.071-.036,4.461.817-.035.071-4.461-.817Zm4.461.817.213.036-.213.035v-.071Zm0,.071-4.461.817L7.251,15.9l4.461-.817Zm-4.461.817H7.215v-.035h.071Zm-.071-.852h.106v.817H7.215Zm0-.036h.071v.036H7.215Zm.071,0h4.461v.071H7.286Z"/><polyline class="cls-6" points="7.286 15.114 7.853 15.682 4.1 18.277 6.685 14.51 7.286 15.114 4.1 18.277"/><path class="cls-7" d="M7.286,15.078l.6.569-.071.071-.566-.569Zm.6.569.036.035-.071.036v-.036Zm-.035.071L4.135,18.312,4.1,18.241l3.717-2.594ZM4.135,18.312l-.176.142.106-.213.035.036Zm-.07-.071L6.649,14.51l.071.035L4.135,18.312ZM6.649,14.51l.036-.036.035.036H6.649Zm.071,0,.566.568-.035.071-.6-.6Zm.566.568.035.036-.035.035v-.071Zm0,.071L4.135,18.312,4.1,18.241l3.151-3.163Z"/><polyline class="cls-6" points="7.286 15.114 6.685 14.51 10.437 11.916 7.853 15.682 7.286 15.114 10.437 11.916"/><path class="cls-7" d="M7.251,15.149l-.6-.6.071-.035.566.568Zm-.6-.6V14.51h.036Zm.036-.035L10.4,11.881l.035.071L6.72,14.545ZM10.4,11.881l.177-.107-.106.178-.036-.036Zm.071.071L7.888,15.718l-.071-.071L10.4,11.916ZM7.888,15.718l-.035.035-.036-.035.036-.036Zm-.071,0-.566-.569.035-.071.6.569Zm-.566-.569-.036-.035.036-.036.035.036Zm0-.071L10.4,11.916l.071.036-3.187,3.2Z"/><polyline class="cls-6" points="7.286 15.114 6.685 15.682 4.1 11.916 7.853 14.51 7.286 15.114 4.1 11.916"/><path class="cls-7" d="M7.286,15.149l-.566.569-.071-.071.6-.569Zm-.566.569-.035.035-.036-.035.036-.036Zm-.071,0L4.065,11.952l.07-.036L6.72,15.647ZM4.065,11.952l-.106-.178.176.107-.035.035Zm.07-.071L7.853,14.51l-.036.035L4.1,11.952ZM7.853,14.51h.071l-.036.035Zm.035.035-.6.6-.035-.071.566-.568Zm-.6.6H7.251l.035-.035Zm-.035,0L4.1,11.952l.035-.036,3.151,3.162Z"/><polyline class="cls-6" points="7.286 15.114 7.853 14.51 10.437 18.277 6.685 15.682 7.286 15.114 10.437 18.277"/><path class="cls-7" d="M7.251,15.078l.566-.568.071.035-.6.6Zm.566-.568.036-.036.035.036H7.817Zm.071,0,2.585,3.731-.071.071L7.817,14.545Zm2.585,3.731.106.213-.177-.142.035-.035Zm-.071.071L6.685,15.718l.035-.071,3.717,2.594ZM6.685,15.718l-.036-.036v-.035l.036.035Zm-.036-.071.6-.569.035.071-.566.569Zm.6-.569.035-.035v.071Zm.035,0,3.187,3.163-.071.071L7.251,15.149Z"/><path class="cls-6" d="M8.773,15.114a1.5,1.5,0,0,0-3.009,0,1.5,1.5,0,0,0,3.009,0"/><path class="cls-7" d="M8.7,15.114a1.318,1.318,0,0,0-.424-1.031l.071-.071a1.564,1.564,0,0,1,.46,1.1Zm-.424-1.031a1.285,1.285,0,0,0-.992-.426V13.55a1.536,1.536,0,0,1,1.063.462Zm-.992-.426a1.31,1.31,0,0,0-1.027.426l-.07-.071a1.55,1.55,0,0,1,1.1-.462Zm-1.027.426a1.318,1.318,0,0,0-.424,1.031H5.729a1.564,1.564,0,0,1,.46-1.1Zm-.424,1.031a1.424,1.424,0,0,0,.424,1.03l-.07.036a1.482,1.482,0,0,1-.46-1.066Zm.424,1.03a1.439,1.439,0,0,0,1.027.426v.072a1.55,1.55,0,0,1-1.1-.462Zm1.027.426a1.417,1.417,0,0,0,.992-.426l.071.036a1.536,1.536,0,0,1-1.063.462Zm.992-.426a1.424,1.424,0,0,0,.424-1.03h.107a1.482,1.482,0,0,1-.46,1.066Z"/><path class="cls-8" d="M8.349,14.51c-.071.106-.142-.071-.461-.071-.354,0-.389.177-.46.142-.036-.036.283-.284.389-.284a.689.689,0,0,1,.532.213"/><path class="cls-8" d="M7.959,14.616c.106.107.035.285-.071.285s-.283-.178-.177-.285"/><path class="cls-8" d="M7.534,14.758c0-.177.142-.213.354-.213s.319.178.39.213c-.071,0-.178-.142-.39-.142s-.212,0-.354.142"/><path class="cls-8" d="M7.57,14.794c.035-.071.106.071.283.071a.487.487,0,0,0,.318-.107c.071-.071-.141.178-.283.178s-.354-.106-.318-.142"/><path class="cls-8" d="M8.03,14.865c.177-.071.07-.213,0-.249.035.036.141.178,0,.249"/><path class="cls-8" d="M7.286,15.682c.071,0,.106-.035.213-.035s.354.177.5.106c-.318.142-.177.036-.708.036H7.215"/><path class="cls-8" d="M8.065,15.9a1.763,1.763,0,0,0-.177-.248.364.364,0,0,1,.177.248"/><path class="cls-8" d="M7.286,16c.319,0,.284-.071.708-.249a4.9,4.9,0,0,1-.708.142H7.215"/><path class="cls-8" d="M7.286,15.505c.071,0,.106-.071.213-.071a.49.49,0,0,1,.318.106c.036,0-.035-.106-.141-.106-.106-.036-.071-.214-.177-.249,0,.071.035.071.035.142s-.106.071-.142,0c.036.107-.071.107-.106.107"/><path class="cls-8" d="M6.189,14.51c.07.106.141-.071.46-.071.354,0,.389.177.46.142.036-.036-.283-.284-.389-.284a.687.687,0,0,0-.531.213"/><path class="cls-8" d="M6.578,14.616c-.106.107-.035.285.071.285s.283-.178.177-.285"/><path class="cls-8" d="M7,14.758c0-.177-.142-.213-.354-.213s-.319.178-.39.213c.107,0,.178-.142.39-.142s.212,0,.354.142"/><path class="cls-8" d="M6.968,14.794c-.036-.071-.107.071-.283.071a.488.488,0,0,1-.319-.107c-.071-.071.142.178.283.178.177,0,.354-.106.319-.142"/><path class="cls-8" d="M6.508,14.865c-.178-.071-.071-.213,0-.249-.036.036-.142.178,0,.249"/><path class="cls-8" d="M7.286,15.682c-.106,0-.141-.035-.248-.035s-.353.177-.5.106c.318.142.177.036.743.036h.035"/><path class="cls-8" d="M6.472,15.9a2.338,2.338,0,0,0,.177-.248.549.549,0,0,0-.177.248"/><path class="cls-8" d="M7.286,16c-.354,0-.283-.071-.743-.249a4.533,4.533,0,0,0,.743.142h.035"/><path class="cls-8" d="M7.286,15.505c-.106,0-.141-.071-.248-.071a.492.492,0,0,0-.318.106c-.035,0,.035-.106.141-.106.107-.036.071-.214.177-.249,0,.071-.035.071-.035.142s.106.071.142,0c-.036.107.07.107.141.107"/><path class="cls-8" d="M7.286,16.144c-.071,0-.248.036,0,.036.213,0,.035-.036,0-.036"/></g></g></svg>