<?xml version="1.0" encoding="UTF-8"?><svg id="a" xmlns="http://www.w3.org/2000/svg" viewBox="0 0 40 40"><rect x="2" y="8" width="36" height="24" rx="4" ry="4" fill="#293492"/><polygon points="20 10.667 19.723 11.588 18.823 11.588 19.55 12.157 19.272 13.079 20 12.509 20.728 13.079 20.45 12.157 21.177 11.588 20.277 11.588 20 10.667" fill="#fcc800"/><polygon points="20.277 27.588 20 26.667 19.723 27.588 18.823 27.588 19.55 28.158 19.272 29.079 20 28.509 20.728 29.079 20.45 28.158 21.177 27.588 20.277 27.588" fill="#fcc800"/><polygon points="12.576 20.51 13.303 21.079 13.026 20.157 13.753 19.588 12.853 19.588 12.576 18.667 12.298 19.588 11.398 19.588 12.126 20.157 11.848 21.079 12.576 20.51" fill="#fcc800"/><polygon points="16.288 11.739 16.01 12.66 15.111 12.66 15.838 13.229 15.561 14.151 16.288 13.581 17.015 14.151 16.737 13.229 17.465 12.66 16.566 12.66 16.288 11.739" fill="#fcc800"/><polygon points="13.571 14.667 13.293 15.588 12.393 15.588 13.121 16.158 12.843 17.079 13.571 16.509 14.298 17.079 14.02 16.158 14.747 15.588 13.848 15.588 13.571 14.667" fill="#fcc800"/><polygon points="13.849 23.588 13.571 22.667 13.293 23.588 12.393 23.588 13.121 24.157 12.843 25.079 13.571 24.509 14.298 25.079 14.02 24.157 14.747 23.588 13.849 23.588" fill="#fcc800"/><polygon points="16.566 26.516 16.288 25.595 16.01 26.516 15.111 26.516 15.838 27.086 15.56 28.007 16.288 27.437 17.015 28.007 16.737 27.086 17.465 26.516 16.566 26.516" fill="#fcc800"/><polygon points="28.602 19.588 27.702 19.588 27.425 18.667 27.147 19.588 26.247 19.588 26.974 20.157 26.697 21.079 27.425 20.51 28.152 21.079 27.874 20.157 28.602 19.588" fill="#fcc800"/><polygon points="23.712 11.739 23.434 12.66 22.536 12.66 23.263 13.229 22.985 14.151 23.712 13.581 24.439 14.151 24.162 13.229 24.889 12.66 23.99 12.66 23.712 11.739" fill="#fcc800"/><polygon points="25.98 16.158 25.702 17.079 26.429 16.509 27.157 17.079 26.879 16.158 27.607 15.588 26.707 15.588 26.429 14.667 26.151 15.588 25.253 15.588 25.98 16.158" fill="#fcc800"/><polygon points="26.707 23.588 26.429 22.667 26.151 23.588 25.253 23.588 25.98 24.158 25.702 25.079 26.429 24.509 27.157 25.079 26.879 24.158 27.607 23.588 26.707 23.588" fill="#fcc800"/><polygon points="23.99 26.516 23.712 25.595 23.434 26.516 22.536 26.516 23.263 27.086 22.985 28.007 23.712 27.437 24.439 28.007 24.162 27.086 24.889 26.516 23.99 26.516" fill="#fcc800"/></svg>