<svg id="Layer_1" data-name="Layer 1" xmlns="http://www.w3.org/2000/svg" xmlns:xlink="http://www.w3.org/1999/xlink" viewBox="0 0 40 40"><defs><style>.cls-1{fill:none;}.cls-2{clip-path:url(#clip-path);}.cls-3{fill:#2d318d;}.cls-4{fill:#c01f3f;}.cls-10,.cls-5{fill:#e5e8eb;}.cls-6{clip-path:url(#clip-path-2);}.cls-7,.cls-8{fill:#2e6d36;}.cls-10,.cls-11,.cls-12,.cls-15,.cls-7,.cls-9{fill-rule:evenodd;}.cls-16,.cls-9{fill:#e4b22c;}.cls-11,.cls-13{fill:#2c3685;}.cls-12,.cls-14{fill:#bf2027;}.cls-15{fill:#4d3715;}</style><clipPath id="clip-path"><rect class="cls-1" x="1.018" y="8.973" width="37.963" height="22.054" rx="4"/></clipPath><clipPath id="clip-path-2"><rect class="cls-1" x="1.018" y="8.973" width="37.963" height="22.054"/></clipPath></defs><g class="cls-2"><rect class="cls-3" x="1.018" y="8.973" width="37.963" height="22.054"/><rect class="cls-4" x="1.018" y="20" width="37.963" height="11.027"/><rect class="cls-5" x="16.407" y="17.148" width="7.185" height="5.697"/><g class="cls-6"><path class="cls-7" d="M21.446,21.268l-1.466.042-1.46.017s-.751.276-1.056.338-.267.162-.5.214a1.71,1.71,0,0,1-.323.063.545.545,0,0,0-.231.113v.79h7.186v-.751a1.386,1.386,0,0,0-.228-.1A2.721,2.721,0,0,0,23,21.879c-.237-.052-.2-.152-.5-.214a8.019,8.019,0,0,1-1.05-.4Z"/><path class="cls-8" d="M23.6,22.852H16.407l-.006-.8a.513.513,0,0,1,.237-.119.942.942,0,0,0,.192-.033l.13-.03a.518.518,0,0,0,.209-.094.68.68,0,0,1,.293-.121c.3-.061,1.048-.335,1.056-.338L19.98,21.3l1.466-.042a8.154,8.154,0,0,0,1.052.4.674.674,0,0,1,.292.121.516.516,0,0,0,.21.094,1.757,1.757,0,0,1,.282.086l.085.031a1.36,1.36,0,0,1,.229.1l0,.764Zm-2.155-1.578-1.464.043-1.46.017s-.752.277-1.055.338a.67.67,0,0,0-.288.118.528.528,0,0,1-.215.1l-.129.03a.9.9,0,0,1-.194.033.523.523,0,0,0-.228.112l0,.784,7.172-.007v-.744A1.668,1.668,0,0,0,23.362,22l-.085-.031A1.735,1.735,0,0,0,23,21.886a.534.534,0,0,1-.216-.1.658.658,0,0,0-.287-.118,8.1,8.1,0,0,1-1.051-.4Z"/><polygon class="cls-7" points="19.906 18.155 19.87 18.841 20.09 18.841 20.058 18.161 20.287 18.129 20.263 17.858 19.692 17.88 19.696 18.126 19.906 18.155"/><path class="cls-8" d="M20.1,18.848H19.87l.029-.693-.2-.022-.01-.253.577-.028.032.276-.235.04.039.68Zm.158-.989-.564.028.01.239.2.023-.03.693.206-.007-.031-.674.235-.038-.031-.264Z"/><polygon class="cls-9" points="19.385 20.041 19.194 19.631 19.277 19.614 19.626 20.295 19.385 20.041"/><path d="M19.654,20.334l-.274-.288-.192-.412.087-.027.379.727Zm-.384-.717-.075.021.2.4.206.218-.328-.639Z"/><polygon class="cls-10" points="18.943 19.151 19.155 19.728 19.264 19.728 18.943 19.151"/><path d="M19.276,19.735h-.121l-.218-.581.339.581Zm-.339-.58.225.571.091,0-.316-.567Z"/><polygon class="cls-9" points="19.585 19.51 19.69 19.507 19.885 20.32 19.844 20.576 19.585 19.51"/><path d="M19.845,20.61l-.267-1.1.112-.011.2.818-.046.292Zm-.161-1.1-.1.008.258,1.026.036-.224-.194-.81Z"/><polygon class="cls-9" points="19.675 20.347 19.349 19.474 19.471 19.467 19.851 20.533 19.675 20.347"/><path d="M19.868,20.562l-.2-.21-.327-.875.128-.016.4,1.1Zm-.4-1.092-.116.011.332.864.152.16-.368-1.035Z"/><polygon class="cls-10" points="19.196 18.977 19.331 19.584 19.44 19.584 19.196 18.977"/><path d="M19.45,19.591h-.119l-.141-.612.26.612Zm-.26-.611.148.6.092,0-.24-.6Z"/><polygon class="cls-10" points="19.474 18.968 19.546 19.594 19.623 19.589 19.474 18.968"/><path d="M19.54,19.6V19.6l-.072-.627.163.619-.09.014Zm-.073-.632.085.618.071,0-.156-.613Z"/><path class="cls-11" d="M19.411,20.1l-.868-.944a.72.72,0,0,0-.221.607l.984.768Z"/><path d="M19.31,20.546l-.992-.775a.721.721,0,0,1,.221-.617l.877.944-.106.448Zm-.772-1.382a.728.728,0,0,0-.209.6l.973.758.1-.422-.867-.937Z"/><path class="cls-12" d="M19.913,20.623l-.643-.65c-.273.009-.057.414-.043.465l.686.585Z"/><path d="M19.92,21.037,19.2,20.4c-.038-.09-.117-.279-.055-.375a.136.136,0,0,1,.12-.057l.649.652,0,.419Zm-.655-1.059a.131.131,0,0,0-.105.052c-.058.09.019.274.057.363.008.021.014.036.016.043l.673.572v-.385l-.641-.645Z"/><polygon class="cls-9" points="19.859 20.511 18.527 19.091 18.475 19.127 19.885 20.687 19.859 20.511"/><path d="M19.894,20.708l-.014-.017-1.41-1.559.053-.047,1.341,1.421.03.2ZM18.522,19.1l-.043.037,1.4,1.533-.023-.154L18.522,19.1Z"/><polygon class="cls-9" points="18.45 19 18.421 18.966 18.424 18.899 18.149 18.725 18.272 19 18.365 19.017 18.394 19.051 18.45 19"/><polygon points="18.394 19.06 18.359 19.021 18.271 19.007 18.143 18.727 18.427 18.893 18.428 18.934 18.417 18.899 18.145 18.731 18.278 18.997 18.368 19.011 18.395 19.041 18.446 18.995 18.444 18.989 18.455 19.005 18.394 19.06 18.394 19.06"/><path class="cls-9" d="M18.31,19.1a.652.652,0,0,1,.2-.166l.077.11-.164.137Z"/><path d="M18.424,19.191l-.118-.085a.545.545,0,0,1,.2-.177l.085.112-.169.15Zm.081-.252a.772.772,0,0,0-.19.166l.108.069.16-.134-.078-.1Z"/><path class="cls-11" d="M19.032,20.353l-1.091-.863c-.187.19-.031.774-.031.774l1.066.575Z"/><path d="M18.982,20.85l-1.075-.58c-.01-.028-.158-.594.029-.784l1.1.862-.055.5ZM17.937,19.5c-.173.184-.022.761-.02.766l1.053.567.056-.477L17.937,19.5Z"/><path class="cls-12" d="M19.936,21.052l-.9-.716c-.307.043-.066.493-.048.542l.948.512Z"/><path d="M19.947,21.4l-.958-.517c-.053-.114-.158-.343-.087-.471a.171.171,0,0,1,.137-.083l.9.717.006.354Zm-.912-1.059a.164.164,0,0,0-.121.078c-.067.122.039.354.073.43l.946.528,0-.326-.895-.71Z"/><polygon class="cls-9" points="19.901 20.908 17.961 19.458 17.916 19.502 19.954 21.087 19.901 20.908"/><path d="M19.967,21.105l-.017-.013-2.038-1.585.044-.054L19.905,20.9l.062.2Zm-2.01-1.642-.036.044,2.021,1.561-.048-.158-1.937-1.447Z"/><polygon class="cls-9" points="17.868 19.38 17.834 19.352 17.825 19.285 17.522 19.16 17.693 19.411 17.788 19.411 17.823 19.44 17.868 19.38"/><polygon points="17.824 19.45 17.784 19.417 17.693 19.417 17.517 19.164 17.827 19.279 17.834 19.32 17.818 19.286 17.52 19.166 17.698 19.407 17.791 19.405 17.821 19.43 17.863 19.376 17.86 19.37 17.874 19.385 17.824 19.45 17.824 19.45"/><path class="cls-9" d="M17.749,19.5a.6.6,0,0,1,.168-.2l.095.1-.137.163Z"/><path d="M17.877,19.573l-.131-.063a.517.517,0,0,1,.167-.209l.1.1-.14.176Zm.035-.261a.719.719,0,0,0-.157.2l.118.05.133-.16-.094-.085Z"/><path class="cls-11" d="M18.954,20.881c-.014,0-1.406-.79-1.406-.79a.461.461,0,0,0,.035.456.692.692,0,0,0,.054.412.641.641,0,0,0,.2.38c.126.485.624.518.815.123Z"/><path d="M18.269,21.739h0a.465.465,0,0,1-.434-.4.636.636,0,0,1-.205-.38.569.569,0,0,1-.059-.333.513.513,0,0,0,0-.08.461.461,0,0,1-.034-.459c.486.267,1.392.778,1.414.787l-.293.59a.445.445,0,0,1-.394.274ZM17.545,20.1a.475.475,0,0,0,.042.445.343.343,0,0,1,0,.086.559.559,0,0,0,.058.328.629.629,0,0,0,.2.377.456.456,0,0,0,.423.393h0a.433.433,0,0,0,.382-.267l.3-.581h0c-.021,0-1.172-.65-1.4-.781Z"/><path class="cls-12" d="M19.875,21.4l-.953-.556c-.307.043.007.609.025.658l.92.326Z"/><path d="M19.873,21.837l-.931-.329-.018-.04c-.054-.113-.2-.413-.12-.557a.148.148,0,0,1,.117-.074l.957.557,0,.443Zm-.955-.987a.134.134,0,0,0-.1.068c-.074.137.067.433.12.544l.924.356.008-.418-.95-.55Z"/><polygon class="cls-9" points="19.714 21.198 17.563 20.057 17.525 20.108 19.796 21.367 19.714 21.198"/><path d="M19.812,21.383l-2.29-1.269.035-.061,2.16,1.139.1.191Zm-2.253-1.32-.029.049,2.251,1.239-.073-.15-2.149-1.138Z"/><polygon class="cls-9" points="17.458 19.996 17.42 19.972 17.399 19.908 17.08 19.829 17.29 20.051 17.384 20.038 17.423 20.06 17.458 19.996"/><polygon points="17.426 20.07 17.381 20.044 17.291 20.058 17.075 19.834 17.401 19.901 17.416 19.942 17.393 19.91 17.079 19.836 17.295 20.046 17.386 20.031 17.421 20.051 17.452 19.992 17.448 19.986 17.464 19.999 17.426 20.07 17.426 20.07"/><path class="cls-9" d="M17.36,20.135a.605.605,0,0,1,.135-.22L17.6,20l-.108.181Z"/><path d="M17.5,20.184l-.141-.043a.51.51,0,0,1,.132-.23l.118.078-.109.2Zm-.008-.263a.711.711,0,0,0-.125.216l.127.031.105-.177-.107-.07Z"/><path class="cls-11" d="M18.163,19.34l.045.078c.028-.01.307-.261.307-.261l.2-.007.057-.063a.18.18,0,0,0-.284.023Z"/><path class="cls-13" d="M18.2,19.427l-.047-.083.325-.24s.169-.152.293-.021l-.057.072-.2.009c-.025.024-.277.25-.3.261l-.005,0Zm.438-.4a.224.224,0,0,0-.151.084l-.325.232.043.063c.034-.021.194-.162.3-.257l.2-.008.052-.061a.2.2,0,0,0-.123-.053Z"/><path class="cls-12" d="M18.323,19.471a.738.738,0,0,1,.161-.249c.1.03.191.086.292-.139-.088.111-.264,0-.264,0l-.077.064,0,.03-.232.215Z"/><path class="cls-14" d="M18.328,19.483,18.2,19.4l.089-.086-.08.086.107.065a.727.727,0,0,1,.164-.244.452.452,0,0,0,.121.028c.042,0,.1-.017.161-.151-.052.092-.251,0-.256-.006l-.033.031.032-.042c.015,0,.2.088.263,0-.059.182-.161.191-.26.159-.053-.007-.17.164-.18.235l0,.01Z"/><path class="cls-11" d="M17.64,19.746l.013.08c.025-.014.27-.281.27-.281l.2-.037.039-.062c-.136-.16-.282.052-.282.052Z"/><path class="cls-13" d="M17.647,19.837l-.014-.09.239-.253c0-.006.175-.189.292-.053l-.039.071-.2.039c-.021.026-.242.267-.268.281l-.009,0Zm.4-.444c-.089,0-.165.108-.165.109l-.238.249.012.063c.037-.032.172-.176.261-.274l.2-.038.035-.06a.156.156,0,0,0-.105-.049Z"/><path class="cls-12" d="M17.8,19.89a.7.7,0,0,1,.111-.3c.116.035.219.087.263-.156-.069.122-.263.027-.263.027l-.065.074.008.04-.2.255Z"/><path class="cls-14" d="M17.805,19.9l-.155-.066.051-.07-.043.068.131.047a.729.729,0,0,1,.114-.3.557.557,0,0,0,.132.029c.047,0,.1-.021.128-.18-.027.108-.254.037-.26.034l-.019.025.018-.035a.39.39,0,0,0,.148.032.119.119,0,0,0,.114-.059c-.016.2-.113.212-.233.174a.463.463,0,0,0-.128.286l0,.012Z"/><path class="cls-11" d="M17.274,20.392l.045.088c.023-.017.228-.346.228-.346l.189-.062L17.772,20c-.152-.14-.266.1-.266.1Z"/><path class="cls-13" d="M17.317,20.491l-.049-.1.233-.3c0-.007.142-.227.275-.1l-.033.085-.193.065c-.018.031-.2.328-.227.346l-.006,0Zm.36-.533c-.1,0-.164.14-.164.142l-.234.3.042.073c.029-.036.145-.217.221-.339l.192-.065.032-.073a.162.162,0,0,0-.089-.034Z"/><path class="cls-12" d="M17.477,20.517a.873.873,0,0,1,.053-.328c.119.035.218.044.245-.2-.069.116-.253.072-.253.072l-.054.082.012.029-.156.3Z"/><path class="cls-14" d="M17.486,20.527l-.164-.049.061-.125-.053.122.139.033a.832.832,0,0,1,.058-.325c.1.023.208.1.241-.193-.05.127-.244.079-.247.079l-.024.039.02-.05c.009,0,.041.006.083.006a.188.188,0,0,0,.169-.077c-.006.217-.118.245-.24.208a1.08,1.08,0,0,0-.045.321l0,.011Z"/><polygon class="cls-9" points="19.699 21.723 19.163 21.557 18.929 21.16 18.102 21.12 18.131 21.418 18.835 21.552 18.902 21.672 19.713 21.896 19.699 21.723"/><path d="M19.72,21.905l-.82-.227-.07-.123-.7-.131-.035-.3.834.033.239.4.533.163.019.188ZM18.1,21.127l.037.29.7.128.071.123.8.219-.013-.164-.532-.159-.237-.4-.822-.037Z"/><polygon class="cls-15" points="19.139 21.834 18.293 20.594 18.251 20.625 19.091 21.87 19.139 21.834"/><path d="M19.089,21.88l-.844-1.251.044-.04.856,1.241-.056.05Zm-.8-1.282-.032.033.838,1.23.042-.032L18.287,20.6Z"/><path class="cls-10" d="M18.371,20.643l-.09-.151a.053.053,0,0,0-.08-.017.059.059,0,0,0-.019.085l.084.14Z"/><path d="M18.263,20.709l-.087-.146a.066.066,0,0,1,.022-.094c.058-.012.076,0,.089.02l.09.15-.114.07Zm-.026-.245-.033.017a.052.052,0,0,0-.016.076l.081.134.1-.054-.131-.173Z"/><polygon class="cls-9" points="19.239 21.068 17.531 20.895 17.49 21.143 19.19 21.313 19.239 21.068"/><path d="M19.2,21.32l-1.707-.17.036-.256,1.715.168-.044.258ZM17.53,20.9l-.033.242,1.688.162.048-.239-1.7-.165Z"/><polygon class="cls-9" points="17.501 20.832 17.456 21.175 17.529 21.175 17.579 20.861 17.501 20.832"/><path d="M17.534,21.182h-.078l.038-.351.087.024-.047.327Zm-.035-.344-.036.338.06-.007.049-.309-.073-.022Z"/><polygon class="cls-9" points="17.786 20.888 17.767 21.196 17.811 21.201 17.847 20.927 17.786 20.888"/><path d="M17.817,21.209l-.051-.006.014-.316.07.034-.033.288Zm-.034-.316-.01.3.038,0h-.006l.035-.274-.057-.033Z"/><polygon class="cls-9" points="18.943 21.02 18.902 21.31 18.985 21.308 19.018 21.02 18.943 21.02"/><polygon points="18.894 21.317 18.937 21.02 19.018 21.014 18.992 21.308 18.894 21.317 18.894 21.317"/><path class="cls-9" d="M19.2,21.028l-.059.335.094.014.027-.176a.081.081,0,0,0,.16-.016.079.079,0,0,0-.081-.077.074.074,0,0,0-.071.051l.018-.125Z"/><path d="M19.239,21.385l-.1-.015.054-.343h.094l-.01.121c.014-.076.151-.039.151.037s-.157.1-.174.017l-.014.183Zm.04-.352-.081,0-.053.33.082.005.026-.17c.044.071.161.058.16-.015a.073.073,0,0,0-.139-.023l0-.129Z"/><polygon class="cls-9" points="18.581 21.083 18.347 21.346 18.374 21.378 18.675 21.173 18.581 21.083"/><path d="M18.372,21.387l-.03-.036.234-.272.1.089-.308.219Zm.2-.3-.224.263.022.027,0,0,.3-.205-.095-.08Z"/><polygon class="cls-9" points="18.035 21.739 18.27 21.476 18.243 21.444 17.941 21.649 18.035 21.739"/><path d="M18.035,21.749l-.1-.095.308-.219.032.036-.241.278Zm.23-.278-.32.183.089.075.231-.258Z"/><polygon class="cls-9" points="18.65 21.673 18.364 21.453 18.334 21.474 18.56 21.758 18.65 21.673"/><path d="M18.559,21.768l-.23-.29.039-.03.286.22-.095.1Zm-.2-.31.2.29.085-.08-.286-.21Z"/><polygon class="cls-9" points="17.945 21.166 18.235 21.378 18.27 21.352 18.043 21.068 17.945 21.166"/><path d="M18.235,21.387l-.294-.216.1-.108.242.29-.045.034Zm-.2-.315-.088.1.285.2.031-.024-.228-.274Z"/><polygon class="cls-9" points="18.26 20.99 18.288 21.336 18.327 21.334 18.419 20.998 18.26 20.99"/><path d="M18.282,21.343l-.028-.352h.166l-.087.35-.051,0Zm.13-.347H18.26l.034.332.033,0L18.412,21Z"/><polygon class="cls-9" points="18.355 21.829 18.327 21.483 18.285 21.479 18.232 21.829 18.355 21.829"/><path d="M18.363,21.836h-.131l.047-.364.049,0,.035.359Zm-.042-.352-.082.346.109-.007-.027-.339Z"/><polygon class="cls-9" points="18.74 21.363 18.375 21.402 18.37 21.436 18.738 21.484 18.74 21.363"/><path d="M18.745,21.492l-.376-.049.006-.048.364-.039.006.136Zm-.012-.129-.357.045.356.068v-.113Z"/><polygon class="cls-9" points="17.874 21.483 18.229 21.427 18.236 21.399 17.869 21.359 17.874 21.483"/><polygon points="17.867 21.491 17.862 21.359 18.237 21.393 18.168 21.411 17.868 21.365 17.88 21.475 17.999 21.456 17.867 21.491 17.867 21.491"/><path class="cls-9" d="M18.4,21.4a.1.1,0,1,1-.1-.093.095.095,0,0,1,.1.093Z"/><path d="M18.306,21.5a.1.1,0,0,1-.1-.1c0-.11.207-.109.207,0a.1.1,0,0,1-.1.1Zm0-.185a.088.088,0,0,0-.09.086c0,.1.18.094.18,0a.088.088,0,0,0-.09-.086Z"/><path class="cls-9" d="M18.818,21.4a.512.512,0,1,1-.512-.492.5.5,0,0,1,.512.492Zm-.1,0a.41.41,0,1,1-.41-.394.4.4,0,0,1,.41.394Z"/><path d="M18.306,21.9a.5.5,0,1,1,.519-.5.509.509,0,0,1-.519.5Zm0-.984a.485.485,0,1,0,.506.485.5.5,0,0,0-.506-.485Zm0,.885a.4.4,0,1,1,.417-.4.409.409,0,0,1-.417.4Zm0-.787a.387.387,0,1,0,.4.387.4.4,0,0,0-.4-.387Z"/><path class="cls-1" d="M17.986,21.154l-.08-.06Zm.574-.058.069-.07Zm.147.621-.085-.066Zm-.721.075.073-.077Z"/><polygon class="cls-9" points="19.711 20.917 19.799 21.362 19.728 21.399 19.65 20.923 19.711 20.917"/><path d="M19.722,21.41l-.079-.486.067-.014.1.45-.084.05Zm-.018-.492-.053.012.082.459.063-.033-.092-.438Z"/><path class="cls-10" d="M19.665,20.859c-.041-.017-.093.012-.18-.1-.142.13-.008.15.014.278.04.017.065-.1.174-.111l.175-.016-.041-.055s-.111,0-.142,0Z"/><path d="M19.506,21.049l-.01,0a.3.3,0,0,0-.05-.107c-.035-.052-.063-.094.035-.183a.214.214,0,0,0,.15.089l.069.007.107,0,.046.058-.179.026a.183.183,0,0,0-.12.077c-.017.021-.031.037-.048.037Zm-.026-.283c-.079.082-.057.116-.022.167a.26.26,0,0,1,.047.106v0c.011,0,.023-.015.038-.032a.192.192,0,0,1,.128-.081l.176-.016-.046-.044-.1.005-.07-.008a.194.194,0,0,1-.15-.093Z"/><path class="cls-10" d="M19.723,20.947l-.016-.133c-.018-.047-.076-.007-.076.021l.016.122Z"/><path d="M19.641,20.964l-.016-.129a.06.06,0,0,1,.055-.049l.008.025c-.031-.006-.05.011-.05.023l.014.115.07-.009-.007-.042.015.048-.089.018Z"/><path class="cls-9" d="M18.73,22.046a.053.053,0,0,1-.028.047.055.055,0,1,1,0-.094.053.053,0,0,1,.028.047Z"/><path class="cls-1" d="M18.73,22.046a.053.053,0,0,1-.028.047.055.055,0,1,1,0-.094A.053.053,0,0,1,18.73,22.046Z"/><path class="cls-9" d="M18.586,21.944a.054.054,0,0,1-.028.048.061.061,0,0,1-.056,0,.054.054,0,0,1-.028-.048A.052.052,0,0,1,18.5,21.9a.056.056,0,0,1,.056,0,.052.052,0,0,1,.028.046Z"/><path class="cls-1" d="M18.586,21.944a.054.054,0,0,1-.028.048.061.061,0,0,1-.056,0,.054.054,0,0,1-.028-.048A.052.052,0,0,1,18.5,21.9a.056.056,0,0,1,.056,0A.052.052,0,0,1,18.586,21.944Z"/><path class="cls-9" d="M18.392,22.011a.055.055,0,0,1-.027.047.061.061,0,0,1-.056,0,.053.053,0,0,1,0-.094.056.056,0,0,1,.056,0,.055.055,0,0,1,.027.047Z"/><path class="cls-1" d="M18.392,22.011a.055.055,0,0,1-.027.047.061.061,0,0,1-.056,0,.053.053,0,0,1,0-.094.056.056,0,0,1,.056,0A.055.055,0,0,1,18.392,22.011Z"/><path class="cls-9" d="M18.094,22.075a.052.052,0,0,1-.029.047.056.056,0,0,1-.056,0,.053.053,0,0,1-.028-.047.056.056,0,0,1,.028-.047.061.061,0,0,1,.056,0,.054.054,0,0,1,.029.047Z"/><path class="cls-1" d="M18.094,22.075a.052.052,0,0,1-.029.047.056.056,0,0,1-.056,0,.053.053,0,0,1-.028-.047.056.056,0,0,1,.028-.047.061.061,0,0,1,.056,0A.054.054,0,0,1,18.094,22.075Z"/><path class="cls-9" d="M17.967,22.09a.056.056,0,0,1-.028.047.061.061,0,0,1-.056,0,.053.053,0,0,1,0-.094.061.061,0,0,1,.056,0,.056.056,0,0,1,.028.047Z"/><path class="cls-1" d="M17.967,22.09a.056.056,0,0,1-.028.047.061.061,0,0,1-.056,0,.053.053,0,0,1,0-.094.061.061,0,0,1,.056,0A.056.056,0,0,1,17.967,22.09Z"/><path class="cls-9" d="M17.842,22.09a.055.055,0,0,1-.027.047.061.061,0,0,1-.056,0,.053.053,0,0,1,0-.094.061.061,0,0,1,.056,0,.055.055,0,0,1,.027.047Z"/><path class="cls-1" d="M17.842,22.09a.055.055,0,0,1-.027.047.061.061,0,0,1-.056,0,.053.053,0,0,1,0-.094.061.061,0,0,1,.056,0A.055.055,0,0,1,17.842,22.09Z"/><path class="cls-9" d="M17.716,22.087a.054.054,0,0,1-.028.046.056.056,0,0,1-.056,0,.052.052,0,0,1-.028-.046.054.054,0,0,1,.028-.048.061.061,0,0,1,.056,0,.056.056,0,0,1,.028.048Z"/><path class="cls-1" d="M17.716,22.087a.054.054,0,0,1-.028.046.056.056,0,0,1-.056,0,.052.052,0,0,1-.028-.046.054.054,0,0,1,.028-.048.061.061,0,0,1,.056,0A.056.056,0,0,1,17.716,22.087Z"/><path class="cls-9" d="M17.777,21.991a.052.052,0,0,1-.027.046.056.056,0,0,1-.056,0,.052.052,0,0,1,0-.093.056.056,0,0,1,.056,0,.052.052,0,0,1,.027.047Z"/><path class="cls-1" d="M17.777,21.991a.052.052,0,0,1-.027.046.056.056,0,0,1-.056,0,.052.052,0,0,1,0-.093.056.056,0,0,1,.056,0A.052.052,0,0,1,17.777,21.991Z"/><path class="cls-9" d="M17.9,22a.052.052,0,0,1-.028.047.056.056,0,0,1-.056,0A.054.054,0,0,1,17.788,22a.056.056,0,0,1,.028-.047.061.061,0,0,1,.056,0A.053.053,0,0,1,17.9,22Z"/><path class="cls-1" d="M17.9,22a.052.052,0,0,1-.028.047.056.056,0,0,1-.056,0A.054.054,0,0,1,17.788,22a.056.056,0,0,1,.028-.047.061.061,0,0,1,.056,0A.053.053,0,0,1,17.9,22Z"/><path class="cls-9" d="M18.017,21.981a.053.053,0,0,1-.028.047.058.058,0,0,1-.057,0,.054.054,0,0,1,0-.093.058.058,0,0,1,.057,0,.053.053,0,0,1,.028.046Z"/><path class="cls-1" d="M18.017,21.981a.053.053,0,0,1-.028.047.058.058,0,0,1-.057,0,.054.054,0,0,1,0-.093.058.058,0,0,1,.057,0A.053.053,0,0,1,18.017,21.981Z"/><path class="cls-9" d="M17.957,21.888a.052.052,0,0,1-.027.046.056.056,0,0,1-.056,0,.052.052,0,0,1,0-.093.056.056,0,0,1,.056,0,.052.052,0,0,1,.027.047Z"/><path class="cls-1" d="M17.957,21.888a.052.052,0,0,1-.027.046.056.056,0,0,1-.056,0,.052.052,0,0,1,0-.093.056.056,0,0,1,.056,0A.052.052,0,0,1,17.957,21.888Z"/><path class="cls-9" d="M17.842,21.885a.055.055,0,0,1-.027.048.061.061,0,0,1-.056,0,.055.055,0,0,1-.029-.048.053.053,0,0,1,.029-.046.056.056,0,0,1,.056,0,.053.053,0,0,1,.027.046Z"/><path class="cls-1" d="M17.842,21.885a.055.055,0,0,1-.027.048.061.061,0,0,1-.056,0,.055.055,0,0,1-.029-.048.053.053,0,0,1,.029-.046.056.056,0,0,1,.056,0A.053.053,0,0,1,17.842,21.885Z"/><path class="cls-10" d="M18.806,21.688c-.048-.019-.048.089-.048.089h.077c.033.015.059.064.038.087s-.165-.033-.175,0a.2.2,0,0,0,.292.14c.069-.063.087-.231-.138-.275Z"/><path d="M18.909,22.035a.238.238,0,0,1-.072-.013.211.211,0,0,1-.146-.159c.007-.025.052-.017.1-.008a.19.19,0,0,0,.074.006c0-.047-.017-.068-.036-.077h-.074c-.007-.014-.006-.082.021-.1h.031l.047.039a.208.208,0,0,1,.18.132.156.156,0,0,1-.043.153.126.126,0,0,1-.085.028Zm-.187-.176c-.01,0-.016,0-.017,0a.2.2,0,0,0,.137.145A.148.148,0,0,0,18.985,22a.142.142,0,0,0,.039-.139.2.2,0,0,0-.168-.123l-.017.038a.09.09,0,0,1,.047.059c-.018.049-.045.044-.094.036a.559.559,0,0,0-.07-.009Zm-1.391-.114-.074-.307h0l.475.19-.006.013-.469-.2.087.3-.014,0Zm.09-.016-.113-.239.125.233-.012.006Zm.2-.06-.253-.135.26.123-.007.012Z"/><path class="cls-12" d="M16.98,21.211a1.281,1.281,0,0,0-.2.009c-.011.005.044.062.032.084-.042.082-.334.071-.356.053-.039-.03.271-.057.273-.078s-.047-.086-.039-.125.136-.068.136-.068Z"/><path class="cls-14" d="M16.568,21.377a.357.357,0,0,1-.12-.014c0-.031.048-.041.156-.061a.494.494,0,0,0,.116-.026c-.03-.068-.044-.1-.04-.123.011-.053.128-.072.142-.074l.162.126c-.086.008-.141.012-.173.016a.326.326,0,0,1,.129-.017l-.122-.113c-.028.006-.117.027-.124.064a.138.138,0,0,0,.022.075.113.113,0,0,1,.016.05c0,.013-.026.018-.126.036a.548.548,0,0,0-.15.037c.017.01.308.022.347-.052,0-.009-.011-.034-.02-.049l.006-.012c.023.032.034.053.027.068-.034.064-.2.069-.248.069Z"/><path class="cls-15" d="M17.209,21.365l-.388-.319s-.017-.019-.031,0,.005.033.005.033l.4.328Z"/><path d="M17.2,21.416l-.406-.335,0,0,.01-.049.414.333-.02.053Zm-.381-.365.375.342.011-.03-.386-.312Z"/><path class="cls-9" d="M17.581,21.68l-.315-.273-.021-.078s-.047.033-.065.049a.376.376,0,0,0-.044.062l.086,0,.273.249Z"/><path d="M17.493,21.7l-.275-.251-.083,0c0-.012.022-.056.04-.074s.066-.049.066-.049l.031.081h0s.307.263.314.27l-.093.025Zm-.271-.263.275.249.083-.013c-.017,0-.319-.261-.319-.261l-.021-.077a.494.494,0,0,1-.055.048.429.429,0,0,0-.044.061l.081-.007Z"/><path class="cls-9" d="M19.3,21.314v.123c-.04.014-.034.045-.033.089l0,.36c-.015.024-.059.026-.081.044s-.018.055.078.08l.074,0c.113-.024.136-.062.079-.083a.228.228,0,0,1-.084-.042l0-.086.073,0c.02,0,.057-.049.059-.09v-.186a.1.1,0,0,0-.1-.117v-.1Zm.124.206c0-.03-.043-.057-.06-.058s-.056.036-.057.066V21.6c0,.028.025.122.07.129.02,0,.048-.03.048-.058Z"/><path d="M19.34,22.019l-.074,0c-.071-.018-.091-.042-.095-.058l.052-.053a.077.077,0,0,0,.04-.023l0-.357c0-.052,0-.081.038-.095l-.006-.117.074-.008.006.105c.035-.008.1.019.1.116v.187c0,.041-.04.1-.066.1l-.073,0,0,.079a.288.288,0,0,0,.074.034c.036.013.042.027.041.036,0,.024-.042.046-.115.062Zm.019-.706-.06.008.007.116c-.035.017-.034.038-.033.074l0,.375a.078.078,0,0,1-.048.033l-.042.037c0,.008.014.03.083.047l.072,0c.074-.017.1-.037.1-.05a.66.66,0,0,1-.113-.064l0-.091.08,0a.105.105,0,0,0,.051-.083v-.186c0-.107-.085-.11-.094-.11l-.009-.105Zm.019.426h0c-.056-.009-.077-.115-.079-.135v-.076a.089.089,0,0,1,.064-.073h0c.02,0,.068.03.067.065v.154c0,.028-.024.065-.052.065Zm-.015-.277v.007a.077.077,0,0,0-.05.059V21.6c0,.032.027.116.064.122h0c.023,0,.04-.03.04-.051V21.52c0-.025-.038-.05-.053-.051v-.007Z"/><path class="cls-7" d="M19.986,17.875c-.589-.587-1.053-.3-1.164-.219a.369.369,0,0,0,.172-.037c-.02.027-.065.093-.065.093a1.067,1.067,0,0,1,.2-.077.329.329,0,0,0-.055.07c.013.006.116-.08.136-.081a.271.271,0,0,0-.041.116l.09-.042c.023.017-.008.048.013.046a.584.584,0,0,1,.383.18Z"/><path d="M19.663,17.92a.672.672,0,0,0-.389-.169l0-.017,0,0a.583.583,0,0,1,.39.181Zm.318-.04c-.572-.57-1.028-.312-1.155-.219a.421.421,0,0,0,.127-.035l.021,0a.224.224,0,0,1-.153.039c.126-.107.592-.369,1.17.208l-.01.01Zm-.807-.134a.171.171,0,0,1,.023-.113.418.418,0,0,1-.049.038c-.049.034-.062.045-.075.041a.188.188,0,0,1,.054-.083c-.011.009-.108.049-.2.09-.008-.009.028-.065.051-.1H19c-.02.027-.064.093-.064.093a.5.5,0,0,1,.2-.087c-.018.024-.041.06-.049.074a.391.391,0,0,1,.055-.043.278.278,0,0,1,.072-.043.448.448,0,0,0-.034.123l.08-.048,0,.013-.087.041Z"/><path class="cls-7" d="M19.84,17.983c-.061-.141-1.184-.378-1.409.018.088.023.173-.074.173-.074l-.008.089.149-.115-.053.119.119-.1,0,.1.146-.159-.019.092.131-.055-.016.077Z"/><path d="M18.7,18.025l.043-.126-.139.122,0-.09a.169.169,0,0,1-.168.077c.118-.226.486-.24.694-.229a1.249,1.249,0,0,1,.723.2l-.012,0a1.267,1.267,0,0,0-.712-.193c-.2-.011-.566,0-.685.213.077.01.161-.081.162-.082l0,.094.139-.121-.043.126.109-.1.007.1.134-.164-.007.1.121-.063-.006.085,0-.08-.121.063.009-.1-.134.164-.007-.1-.109.1Z"/><path class="cls-7" d="M19.79,18.005a1.017,1.017,0,0,0-.733-.063c-.284.159-.435.13-.472.425a.615.615,0,0,0,.1-.1l.057.115.02-.163.046.126.069-.207.016.14.107-.14.05.04.046-.106.042.07s.073-.045.115-.019l.081-.092.019.066.07-.081.026.059.07-.063,0,.045.238,0Z"/><path d="M18.752,18.379l-.07-.113a.291.291,0,0,1-.094.107c.018-.23.114-.273.274-.343.055-.025.119-.053.191-.094a1.034,1.034,0,0,1,.741.063l-.007.011a1.025,1.025,0,0,0-.729-.061c-.071.04-.135.068-.19.093-.161.071-.25.11-.276.326.011-.016.07-.084.091-.109l.069.116.006-.161.06.124.055-.206.03.142.1-.144.059.039.036-.1.053.069a.113.113,0,0,1,.114-.02l.072-.091.031.068.057-.083.038.061.072-.077-.006.062.231,0-.238.01H19.51l0-.052-.058.069-.038-.062-.058.083-.03-.069-.07.095c-.046-.023-.116.019-.116.019l-.052-.072-.034.106L19,18.139l-.1.139-.028-.143-.055.208-.059-.125-.007.161Z"/><path class="cls-7" d="M19.725,18.038a1.566,1.566,0,0,0-.925.439.954.954,0,0,1,.1-.048l.029.091.036-.091.007.07c.023-.054.047-.06.089,0l.016-.084.022.081.039-.089s.024.1.038.092.064-.165.092-.173l.008.1.039-.1.033.077.008-.11.039.085s.02-.084.05-.1l.058.052.255-.184Z"/><path d="M18.931,18.523l-.04-.089a.791.791,0,0,1-.088.049,1.479,1.479,0,0,1,.917-.452h.005v.014H19.72a1.569,1.569,0,0,0-.914.436.356.356,0,0,1,.087-.058l.038.1.024-.091.02.072c0-.033.013-.048.029-.05s.035.011.058.042l0-.081.036.08.026-.089c.023.04.038.084.045.088,0-.024.059-.165.089-.173l.017.109.025-.105.047.077,0-.108.049.079a.13.13,0,0,1,.043-.1l.065.053.247-.184-.247.194-.067-.052a.333.333,0,0,0-.039.1l-.051-.083,0,.108-.047-.075-.026.1-.021-.105a1.5,1.5,0,0,0-.078.175c-.029-.006-.046-.073-.052-.093l-.026.089-.035-.081,0,.084a.246.246,0,0,0-.057-.035c-.011,0-.021.015-.032.04l-.02-.072-.023.093Z"/><path class="cls-7" d="M19.763,18.085a.845.845,0,0,0-.487.623c.118-.147.092-.127.146.042a.635.635,0,0,1,.04-.166l.035.11.013-.143h.036l-.01-.089.054.04c-.013-.051-.026-.068.029-.112,0,0-.07.008-.015-.117l.051.05s-.008-.055.009-.076l.189-.065Z"/><path d="M19.429,18.751l-.035-.071c-.01-.035-.017-.063-.025-.064h0c-.01,0-.034.031-.071.076l0-.006c.045-.068.061-.085.077-.083s.022.025.036.073l.019.067a.314.314,0,0,1,.031-.164l.046.113V18.55l.025-.087.016.009-.013,0,.021.083-.049.143-.049-.108c0,.015-.019.108-.026.165Zm-.133-.144a.853.853,0,0,1,.465-.528l0,.013a.913.913,0,0,0-.47.515Zm.3-.237c-.02-.023-.014-.056,0-.1l.056.042a.074.074,0,0,1,0-.07l.192-.068-.184.079a.13.13,0,0,0-.005.068l-.063-.044a.154.154,0,0,0-.006.091Z"/><path class="cls-7" d="M19.789,18.113l-.1.191.052.015-.117.088.1-.011a.27.27,0,0,0-.168.2l.152-.067a.7.7,0,0,0-.147.211l.088-.077a.323.323,0,0,0-.073.232l.065-.073a.365.365,0,0,0,.067.314.737.737,0,0,1,0-.224l.171.177-.095-.252s.106.16.17.145l-.135-.205.132.107-.149-.223.14.042s-.1-.127-.094-.207l.1.105a.515.515,0,0,1-.026-.154l.049.01-.1-.11.065-.013-.008-.071.047-.016,0-.079Z"/><path d="M19.713,19.137a.323.323,0,0,1-.08-.313l-.054.077a.3.3,0,0,1,.062-.239l0,0a.49.49,0,0,0-.062.236l.054-.076a.4.4,0,0,0,.077.314.431.431,0,0,1-.008-.225l.181.177-.106-.244c.04.037.123.15.174.135l-.138-.194.142.1-.16-.215.144.032a.312.312,0,0,1-.1-.2l.1.095a.275.275,0,0,1-.032-.146l.057.005-.1-.1.069-.024-.014-.065.052-.022-.007-.073.016.079-.052.022.013.065-.071.02.1.1h-.055a1,1,0,0,0,.034.146l-.108-.1a.539.539,0,0,0,.1.2l-.147-.032.157.214-.142-.1.145.2c-.077.027-.178-.13-.182-.137l.107.245-.182-.169a1.443,1.443,0,0,0,.009.218Zm0-.217a1.173,1.173,0,0,0,.048-.3.862.862,0,0,1,.12-.451l.011.008a.84.84,0,0,0-.117.443.765.765,0,0,1-.062.3Zm-.153-.173c.007-.087.132-.215.137-.221l-.144.078a.257.257,0,0,1,.163-.214h0c0,.013-.143.068-.16.209l.143-.074c.006.012-.121.142-.138.219l.073-.08-.075.083Zm.06-.334.112-.1-.049,0,.1-.2.012.006-.1.192.047,0-.115.1.09-.021-.093.022Z"/><path class="cls-9" d="M18.973,22.117c0-.024-.059-.014-.059-.042s.089-.008.1.019c.05-.045.073-.012.1,0a.089.089,0,0,1,.151-.014.1.1,0,0,1,.132.014.083.083,0,0,1,.131,0c.014-.026.035-.02.05,0,.026-.047.094-.033.123,0,.024-.028.05-.006.084.014.023-.021.059-.017.059,0s-.047.014-.047.036.035.009.035.034-.052.026-.06,0a.052.052,0,0,1-.088-.01.059.059,0,0,1-.094,0c-.021.017-.047.02-.06,0a.079.079,0,0,1-.128-.013h-.022a.069.069,0,0,1-.115,0,.1.1,0,0,1-.14,0c-.041.05-.105.046-.12,0-.027.02-.086.025-.086,0s.05-.014.05-.035Zm.125.011c0,.011-.015.019-.033.019s-.033-.008-.033-.019.015-.02.033-.02.033.009.033.02Zm.139-.017c0,.013-.018.024-.041.024s-.039-.011-.039-.024.018-.023.039-.023.041.011.041.023Zm.271.015c0,.013-.017.024-.036.024s-.036-.011-.036-.024.016-.023.036-.023.036.01.036.023Zm-.145-.006a.032.032,0,0,1-.035.03.03.03,0,1,1,0-.06.032.032,0,0,1,.035.03Zm.309,0a.03.03,0,0,1-.032.027.027.027,0,1,1,0-.054.03.03,0,0,1,.032.027Zm-.095.006a.02.02,0,1,1-.02-.017.019.019,0,0,1,.02.017Zm.185.007a.024.024,0,1,1-.024-.025.025.025,0,0,1,.024.025Z"/><path d="M19.473,22.2a.08.08,0,0,1-.069-.037c.058.03.095.031.125,0l.006,0,.064,0a.052.052,0,0,0,.043.023l.009-.011.044,0a.043.043,0,0,0,.042.024c-.033.007-.052,0-.055-.021,0,.036-.068.034-.093,0l-.055,0,.005.005a.088.088,0,0,1-.066.029Zm-.412,0A.059.059,0,0,1,19,22.153c0,.014-.029.022-.051.022l0-.02a.443.443,0,0,1,.173-.008c.067.036.09.034.142,0,.027.024.066.065.113,0l.019.009c-.083.076-.12.024-.134,0a.1.1,0,0,1-.139,0,.068.068,0,0,1-.063.038Zm-.113-.055v-.012c-.02-.027-.04-.032-.04-.052.06-.021.105,0,.115.016a.041.041,0,0,1,.04-.027l.056.031-.006,0a.1.1,0,0,1,.161-.016c.009-.033.106-.024.134.016.026-.049.086-.047.13,0,.1-.042.13-.042.167-.008-.056-.011-.089-.034-.117.015l0,.008-.055,0a.077.077,0,0,0-.122,0c-.04-.034-.107-.043-.132-.015-.073-.045-.111-.043-.15.014l-.062-.021a.067.067,0,0,0-.042.021.143.143,0,0,0-.082-.032l.041.05-.031.022Z"/><polygon class="cls-9" points="20.604 20.041 20.796 19.631 20.713 19.614 20.363 20.295 20.604 20.041"/><path d="M20.336,20.334l.37-.723.091.013-.187.42-.274.29Zm.375-.714-.321.637.209-.22.19-.409-.078-.008Z"/><polygon class="cls-10" points="21.046 19.151 20.834 19.728 20.725 19.728 21.046 19.151"/><path d="M20.839,19.735h-.114l.315-.587-.2.587Zm.2-.586-.309.583.1-.01.211-.573Z"/><polygon class="cls-9" points="20.404 19.51 20.298 19.507 20.105 20.32 20.146 20.576 20.404 19.51"/><path d="M20.144,20.61l-.046-.289.193-.816.113,0-.26,1.107Zm.254-1.1-.1.006-.187.807.036.22.251-1.033Z"/><polygon class="cls-9" points="20.314 20.347 20.64 19.474 20.518 19.467 20.138 20.533 20.314 20.347"/><path d="M20.12,20.562l.392-1.1.128,0-.32.882-.2.212Zm.513-1.09-.115,0-.363,1.032.154-.164.324-.87Z"/><polygon class="cls-10" points="20.793 18.977 20.658 19.584 20.55 19.584 20.793 18.977"/><path d="M20.664,19.591H20.55l.237-.616-.123.616Zm.122-.615-.23.611.1-.009.133-.6Z"/><polygon class="cls-10" points="20.516 18.968 20.443 19.594 20.366 19.589 20.516 18.968"/><path d="M20.45,19.6l-.085,0,.144-.63-.059.635Zm.059-.634-.136.624.064,0,.072-.62Z"/><path class="cls-11" d="M20.578,20.1l.868-.944a.718.718,0,0,1,.22.607l-.983.768Z"/><path d="M20.679,20.546l-.108-.441.87-.95a.714.714,0,0,1,.232.612l-.994.779Zm.763-1.381-.859.943.1.415.975-.763h0a.722.722,0,0,0-.22-.6Z"/><path class="cls-12" d="M20.075,20.623l.645-.65c.273.009.056.414.043.465l-.688.585Z"/><path d="M20.069,21.037v-.414l.646-.655h0a.137.137,0,0,1,.126.055c.062.1-.017.285-.056.375l-.018.045-.7.594Zm.65-1.057-.639.647,0,.381.676-.575a.22.22,0,0,1,.015-.04c.037-.089.114-.273.056-.363a.128.128,0,0,0-.11-.05Z"/><polygon class="cls-9" points="20.131 20.511 21.462 19.091 21.514 19.127 20.105 20.687 20.131 20.511"/><path d="M20.1,20.708l.029-.2,1.333-1.424.061.036L20.1,20.708ZM21.458,19.1l-1.323,1.419-.02.15,1.394-1.543-.051-.026Z"/><polygon class="cls-9" points="21.539 19 21.568 18.966 21.566 18.899 21.84 18.725 21.717 19 21.624 19.017 21.595 19.051 21.539 19"/><path d="M21.591,19.056,21.53,19l.033-.039,0-.063.278-.18L21.724,19l-.133.053Zm.243-.334-.265.183.007.064L21.544,19l.05.037.024-.029.1-.019.118-.271Z"/><path class="cls-9" d="M21.68,19.1a.651.651,0,0,0-.2-.166l-.075.11.164.137Z"/><path d="M21.565,19.191,21.4,19.05l.075-.119a.6.6,0,0,1,.213.165l-.12.095Zm-.091-.25-.066.108.158.125.11-.079a.856.856,0,0,0-.2-.154Z"/><path class="cls-11" d="M20.957,20.353l1.091-.863c.187.19.031.774.031.774l-1.066.575Z"/><path d="M21.007,20.85l-.057-.5,1.094-.869c.2.191.048.757.042.781l-1.079.584ZM22.043,19.5l-1.082.864.057.47,1.058-.571s.149-.578-.033-.763Z"/><path class="cls-12" d="M20.052,21.052l.9-.716c.306.043.066.493.047.542l-.948.512Z"/><path d="M20.043,21.4l0-.349.9-.721a.17.17,0,0,1,.142.082c.071.128-.033.357-.073.443l-.017.01c.044-.1.144-.327.078-.446a.161.161,0,0,0-.126-.077l-.892.715v.32l.715-.386-.728.409Z"/><polygon class="cls-9" points="20.088 20.908 22.028 19.458 22.073 19.502 20.035 21.087 20.088 20.908"/><path d="M20.023,21.105l.058-.2,1.943-1.454.054.045-2.055,1.608Zm2-1.642-1.931,1.45-.044.155L22.069,19.5l-.046-.034Z"/><polygon class="cls-9" points="22.12 19.38 22.156 19.352 22.165 19.285 22.467 19.16 22.297 19.411 22.201 19.411 22.167 19.44 22.12 19.38"/><path d="M22.161,19.444l-.05-.065.041-.032.006-.062.306-.131-.162.26-.141.03Zm.3-.288-.294.136-.005.064-.038.03.043.045.03-.025.1,0,.164-.248Z"/><path class="cls-9" d="M22.24,19.5a.6.6,0,0,0-.168-.2l-.094.1.136.163Z"/><path d="M22.112,19.573l-.14-.167.095-.1a.557.557,0,0,1,.179.2l-.134.073Zm-.044-.261-.086.095.134.15.121-.059a.781.781,0,0,0-.169-.186Z"/><path class="cls-11" d="M21.035,20.881c.015,0,1.406-.79,1.406-.79a.459.459,0,0,1-.035.456.681.681,0,0,1-.053.412.652.652,0,0,1-.205.38c-.127.485-.624.518-.816.123Z"/><path d="M21.721,21.739a.446.446,0,0,1-.395-.275l-.3-.58c.026-.018.932-.529,1.409-.8a.45.45,0,0,1-.027.467c0,.024,0,.049.007.075a.573.573,0,0,1-.059.334.65.65,0,0,1-.207.383.461.461,0,0,1-.431.395Zm.714-1.644c-.223.134-1.384.789-1.4.793l.3.57a.435.435,0,0,0,.383.268.453.453,0,0,0,.42-.389.644.644,0,0,0,.205-.38.563.563,0,0,0,.058-.329.53.53,0,0,1,0-.081.462.462,0,0,0,.035-.452Z"/><path class="cls-12" d="M20.115,21.4l.952-.556c.306.043-.007.609-.025.658l-.919.326Z"/><path d="M20.116,21.837l-.008-.437.956-.562a.145.145,0,0,1,.121.073c.078.143-.065.444-.119.557l-.021.041-.929.328Zm.951-.987-.949.556.011.412.911-.322c.067-.145.208-.441.133-.578a.135.135,0,0,0-.106-.068Z"/><polygon class="cls-9" points="20.274 21.198 22.427 20.057 22.464 20.108 20.193 21.367 20.274 21.198"/><path d="M20.177,21.383l.091-.187,2.156-1.145.046.053-2.293,1.279Zm2.244-1.322L20.277,21.2l-.069.147L22.461,20.1l-.04-.041Z"/><polygon class="cls-9" points="22.531 19.996 22.569 19.972 22.59 19.908 22.909 19.829 22.7 20.051 22.605 20.038 22.566 20.06 22.531 19.996"/><path d="M22.56,20.064l-.038-.071.044-.026.017-.061.324-.084-.2.234-.1-.012-.044.02Zm.344-.24-.312.091-.017.062-.04.024.033.05.034-.019.1.012.2-.22Z"/><path class="cls-9" d="M22.629,20.135a.615.615,0,0,0-.134-.22l-.109.08.108.181Z"/><path d="M22.491,20.184,22.38,20l.111-.088a.542.542,0,0,1,.144.222l-.144.052Zm0-.264-.1.08.107.168.13-.04a.8.8,0,0,0-.137-.208Z"/><path class="cls-11" d="M21.826,19.34l-.045.078c-.027-.01-.306-.261-.306-.261l-.2-.007-.057-.063a.18.18,0,0,1,.284.023Z"/><path class="cls-13" d="M21.785,19.427l-.006,0c-.028-.011-.28-.237-.309-.263l-.2,0-.062-.065c.121-.156.291.008.295.013l.322.23-.045.092Zm-.439-.4a.171.171,0,0,0-.123.062l.057.054.2,0c.109.1.269.237.3.259l.041-.072-.322-.222a.226.226,0,0,0-.152-.085Z"/><path class="cls-12" d="M21.666,19.471a.709.709,0,0,0-.161-.249c-.1.03-.192.086-.291-.139.087.111.263,0,.263,0l.077.064,0,.03.232.215Z"/><path class="cls-14" d="M21.662,19.483l0-.01a.691.691,0,0,0-.138-.225.553.553,0,0,1,.149.212l.108-.076-.306-.3c0,.007-.193.091-.265,0,.128.232.191.162.267.137a.064.064,0,0,1,.022.006c-.169.058-.214.025-.29-.145a.322.322,0,0,0,.267-.011l.085.065.229.245-.126.1Z"/><path class="cls-11" d="M22.348,19.746l-.011.08c-.026-.014-.27-.281-.27-.281l-.2-.037-.04-.062c.136-.16.282.052.282.052Z"/><path class="cls-13" d="M22.342,19.837l-.008,0c-.027-.014-.247-.255-.272-.283l-.194-.034-.044-.066c.118-.162.289.039.294.046l.235.246-.011.1Zm-.4-.444a.139.139,0,0,0-.106.057l.04.055.193.033c.092.1.226.243.264.276l.01-.069-.235-.242s-.077-.11-.166-.11Z"/><path class="cls-12" d="M22.193,19.89a.7.7,0,0,0-.11-.3c-.118.035-.22.087-.263-.156.068.122.263.027.263.027l.065.074-.009.04.2.255Z"/><path class="cls-14" d="M22.185,19.9l0-.012a.689.689,0,0,0-.086-.261.577.577,0,0,1,.1.252l.133-.057-.2-.247.009-.044-.063-.067c0,.008-.21.067-.264-.029.068.256.148.184.24.155a.025.025,0,0,1,.017.007c-.18.062-.224.025-.258-.164.08.079.266.021.267.02l.075.078-.009.044.2.249-.157.076Z"/><path class="cls-11" d="M22.715,20.392l-.045.088c-.023-.017-.228-.346-.228-.346l-.189-.062L22.217,20c.152-.14.266.1.266.1Z"/><path class="cls-13" d="M22.672,20.491l-.006,0c-.023-.018-.209-.315-.23-.348l-.185-.06-.04-.08c.14-.155.274.088.278.1l.231.294-.048.1Zm-.359-.533a.134.134,0,0,0-.091.042l.037.069.185.059c.079.123.194.3.224.341l.04-.08-.23-.288s-.069-.143-.165-.143Z"/><path class="cls-12" d="M22.512,20.517a.854.854,0,0,0-.053-.328c-.119.035-.218.044-.244-.2.068.116.252.072.252.072l.053.082-.01.029.156.3Z"/><path class="cls-14" d="M22.5,20.527l0-.011a.951.951,0,0,0-.051-.322.264.264,0,0,1-.095.02c-.088,0-.135-.069-.152-.223a.28.28,0,0,0,.257.064l.061.085.146.329-.169.058Zm-.046-.345a.759.759,0,0,1,.064.326l.143-.043-.2-.4a.232.232,0,0,1-.253-.073c.052.287.159.213.248.188Z"/><polygon class="cls-9" points="20.29 21.723 20.826 21.557 21.06 21.16 21.887 21.12 21.858 21.418 21.154 21.552 21.087 21.672 20.277 21.896 20.29 21.723"/><path d="M20.269,21.905l.015-.182.54-.172.231-.394.831-.044-.021.3-.71.14-.062.117-.824.23Zm1.611-.786-.819.048-.229.394-.54.168-.008.158.8-.222.063-.117.709-.137.023-.292Z"/><polygon class="cls-15" points="20.85 21.834 21.697 20.594 21.738 20.625 20.898 21.87 20.85 21.834"/><path d="M20.9,21.88l-.054-.041.845-1.249.051.03L20.9,21.88Zm.793-1.281-.837,1.239.04.023.836-1.239-.039-.023Z"/><path class="cls-10" d="M21.617,20.643l.091-.151a.054.054,0,0,1,.081-.017.057.057,0,0,1,.017.085l-.082.14Z"/><path d="M21.726,20.709l-.112-.06.089-.16a.056.056,0,0,1,.049-.032c.055.02.065.032.07.047a.081.081,0,0,1-.01.059l-.086.146Zm.026-.238-.129.175.1.045.08-.135a.066.066,0,0,0,.008-.048l-.057-.037Z"/><polygon class="cls-9" points="20.749 21.068 22.458 20.895 22.499 21.143 20.799 21.313 20.749 21.068"/><path d="M20.794,21.32l-.051-.25,1.714-.181.049.253-1.712.178Zm1.657-.424-1.7.179.055.231,1.693-.17-.047-.24Z"/><polygon class="cls-9" points="22.488 20.832 22.532 21.175 22.461 21.175 22.411 20.861 22.488 20.832"/><polygon points="22.54 21.182 22.461 21.182 22.404 20.862 22.486 20.825 22.54 21.182 22.54 21.182"/><polygon class="cls-9" points="22.203 20.888 22.223 21.196 22.178 21.201 22.142 20.927 22.203 20.888"/><polygon points="22.172 21.209 22.136 20.928 22.199 20.882 22.23 21.202 22.172 21.209 22.172 21.209"/><polygon class="cls-9" points="21.046 21.02 21.087 21.31 21.004 21.308 20.971 21.02 21.046 21.02"/><polygon points="21.095 21.317 21.004 21.314 20.964 21.021 21.046 21.014 21.095 21.317 21.095 21.317"/><path class="cls-9" d="M20.791,21.028l.06.335-.095.014L20.73,21.2a.081.081,0,0,1-.08.062.08.08,0,0,1-.081-.078.079.079,0,0,1,.081-.077.076.076,0,0,1,.072.051l-.018-.125Z"/><path d="M20.751,21.385l-.028-.183c.01.087-.161.07-.161-.017a.088.088,0,0,1,.166-.028l-.031-.122.094-.013.067.34-.107.023Zm-.028-.186.039.171.088-.013-.066-.328-.08.011.024.118c-.057-.062-.152-.04-.152.027s.13.087.147.014Z"/><polygon class="cls-9" points="21.408 21.083 21.642 21.346 21.616 21.378 21.313 21.173 21.408 21.083"/><path d="M21.617,21.387l-.308-.208.094-.1.248.268-.034.041Zm-.214-.3-.085.091.3.191.023-.027-.234-.255Z"/><polygon class="cls-9" points="21.954 21.739 21.719 21.476 21.747 21.444 22.048 21.649 21.954 21.739"/><path d="M21.953,21.749l-.243-.273.031-.037.311.2-.1.106Zm-.21-.3.211.28.089-.085-.3-.195Z"/><polygon class="cls-9" points="21.339 21.673 21.625 21.453 21.655 21.474 21.429 21.758 21.339 21.673"/><path d="M21.43,21.768l-.095-.09.286-.23.039.03-.23.29Zm.22-.3-.307.209.085.07.222-.279Z"/><polygon class="cls-9" points="22.044 21.166 21.754 21.378 21.719 21.352 21.946 21.068 22.044 21.166"/><path d="M21.754,21.387l-.039-.03.226-.293.107.1-.294.226Zm.187-.314-.217.283.03.022,0,0,.289-.213-.1-.087Z"/><polygon class="cls-9" points="21.729 20.99 21.701 21.336 21.662 21.334 21.57 20.998 21.729 20.99"/><path d="M21.707,21.343l-.045,0-.1-.341.165-.017-.021.36Zm.015-.353-.151.015.1.327.026,0,.027-.345Z"/><polygon class="cls-9" points="21.633 21.829 21.661 21.483 21.704 21.479 21.756 21.829 21.633 21.829"/><path d="M21.765,21.836h-.132l.022-.359.048,0,.062.363ZM21.7,21.48l-.057.35.108-.007L21.7,21.48Z"/><polygon class="cls-9" points="21.249 21.363 21.614 21.402 21.619 21.436 21.251 21.484 21.249 21.363"/><path d="M21.244,21.492v-.129l.373.039,0,.041-.376.049Zm0-.122.009.107.361-.047-.37-.06Z"/><polygon class="cls-9" points="22.116 21.483 21.76 21.427 21.753 21.399 22.12 21.359 22.116 21.483"/><polygon points="22.122 21.491 21.759 21.434 21.822 21.419 22.109 21.475 22.113 21.358 22.059 21.366 22.119 21.352 22.122 21.491 22.122 21.491"/><path class="cls-9" d="M21.586,21.4a.1.1,0,1,0,.1-.093.095.095,0,0,0-.1.093Z"/><path d="M21.683,21.5a.1.1,0,0,1-.1-.1c0-.109.206-.11.206,0a.1.1,0,0,1-.1.1Zm0-.185a.088.088,0,0,0-.09.086c0,.094.18.1.18,0a.088.088,0,0,0-.09-.086Z"/><path class="cls-9" d="M21.171,21.4a.512.512,0,1,0,.512-.492.5.5,0,0,0-.512.492Zm.1,0a.41.41,0,1,0,.41-.394.4.4,0,0,0-.41.394Z"/><path d="M21.683,21.9a.5.5,0,1,1,.519-.5.51.51,0,0,1-.519.5Zm0-.984a.485.485,0,1,0,.5.485.5.5,0,0,0-.5-.485Zm0,.885a.4.4,0,1,1,.416-.4.409.409,0,0,1-.416.4Zm0-.787a.387.387,0,1,0,.4.387.4.4,0,0,0-.4-.387Z"/><path class="cls-1" d="M22,21.154l.08-.06Zm-.574-.058-.068-.07Zm-.147.621.085-.066Zm.721.075-.073-.077Z"/><polygon class="cls-9" points="20.279 20.917 20.19 21.362 20.262 21.399 20.339 20.923 20.279 20.917"/><path d="M20.267,21.41l-.08-.042.085-.453.068,0-.073.493Zm.065-.488h-.054l-.081.44.059.027.076-.468Z"/><path class="cls-10" d="M20.324,20.859c.041-.017.094.012.18-.1.143.13.008.15-.013.278-.04.017-.065-.1-.175-.111l-.175-.016.04-.055s.113,0,.143,0Z"/><path d="M20.483,21.049c-.017,0-.031-.016-.048-.037a.181.181,0,0,0-.12-.077l-.174-.015.035-.066.182-.008a.186.186,0,0,0,.141-.089c.107.089.08.131.044.183a.27.27,0,0,0-.046.1l-.014.008Zm-.3-.184-.034.052.17,0a.192.192,0,0,1,.128.081c.015.017.027.032.038.032v.007l0-.008a.217.217,0,0,1,.044-.1c.034-.051.056-.085-.032-.166a.172.172,0,0,1-.141.092l-.07.008-.108,0Z"/><path class="cls-10" d="M20.265,20.947l.017-.133c.017-.047.076-.007.076.021l-.015.122Z"/><path d="M20.349,20.964l-.085-.011.011-.14a.141.141,0,0,1,.033-.011l-.036.146.065,0,.014-.116a.046.046,0,0,0-.03-.033h0c.029,0,.044.018.044.033l-.016.13Z"/><path class="cls-9" d="M21.259,22.046a.054.054,0,0,0,.029.047.056.056,0,0,0,.056,0,.054.054,0,0,0,0-.094.056.056,0,0,0-.056,0,.054.054,0,0,0-.029.047Z"/><path class="cls-1" d="M21.259,22.046a.054.054,0,0,0,.029.047.056.056,0,0,0,.056,0,.054.054,0,0,0,0-.094.056.056,0,0,0-.056,0A.054.054,0,0,0,21.259,22.046Z"/><path class="cls-9" d="M21.4,21.944a.054.054,0,0,0,.028.048.061.061,0,0,0,.056,0,.056.056,0,0,0,.028-.048.054.054,0,0,0-.028-.046.056.056,0,0,0-.056,0,.052.052,0,0,0-.028.046Z"/><path class="cls-1" d="M21.4,21.944a.054.054,0,0,0,.028.048.061.061,0,0,0,.056,0,.056.056,0,0,0,.028-.048.054.054,0,0,0-.028-.046.056.056,0,0,0-.056,0A.052.052,0,0,0,21.4,21.944Z"/><path class="cls-9" d="M21.6,22.011a.053.053,0,0,0,.028.047.061.061,0,0,0,.056,0,.053.053,0,0,0,0-.094.056.056,0,0,0-.056,0,.053.053,0,0,0-.028.047Z"/><path class="cls-1" d="M21.6,22.011a.053.053,0,0,0,.028.047.061.061,0,0,0,.056,0,.053.053,0,0,0,0-.094.056.056,0,0,0-.056,0A.053.053,0,0,0,21.6,22.011Z"/><path class="cls-9" d="M21.9,22.075a.052.052,0,0,0,.027.047.058.058,0,0,0,.057,0,.053.053,0,0,0,.028-.047.056.056,0,0,0-.028-.047.064.064,0,0,0-.057,0,.055.055,0,0,0-.027.047Z"/><path class="cls-1" d="M21.9,22.075a.052.052,0,0,0,.027.047.058.058,0,0,0,.057,0,.053.053,0,0,0,.028-.047.056.056,0,0,0-.028-.047.064.064,0,0,0-.057,0A.055.055,0,0,0,21.9,22.075Z"/><path class="cls-9" d="M22.022,22.09a.056.056,0,0,0,.028.047.061.061,0,0,0,.056,0,.053.053,0,0,0,0-.094.061.061,0,0,0-.056,0,.056.056,0,0,0-.028.047Z"/><path class="cls-1" d="M22.022,22.09a.056.056,0,0,0,.028.047.061.061,0,0,0,.056,0,.053.053,0,0,0,0-.094.061.061,0,0,0-.056,0A.056.056,0,0,0,22.022,22.09Z"/><path class="cls-9" d="M22.147,22.09a.056.056,0,0,0,.028.047.061.061,0,0,0,.056,0,.053.053,0,0,0,0-.094.061.061,0,0,0-.056,0,.056.056,0,0,0-.028.047Z"/><path class="cls-1" d="M22.147,22.09a.056.056,0,0,0,.028.047.061.061,0,0,0,.056,0,.053.053,0,0,0,0-.094.061.061,0,0,0-.056,0A.056.056,0,0,0,22.147,22.09Z"/><path class="cls-9" d="M22.273,22.087a.054.054,0,0,0,.028.046.056.056,0,0,0,.056,0,.053.053,0,0,0,.029-.046.055.055,0,0,0-.029-.048.061.061,0,0,0-.056,0,.056.056,0,0,0-.028.048Z"/><path class="cls-1" d="M22.273,22.087a.054.054,0,0,0,.028.046.056.056,0,0,0,.056,0,.053.053,0,0,0,.029-.046.055.055,0,0,0-.029-.048.061.061,0,0,0-.056,0A.056.056,0,0,0,22.273,22.087Z"/><path class="cls-9" d="M22.212,21.991a.053.053,0,0,0,.028.046.056.056,0,0,0,.056,0,.053.053,0,0,0,0-.093.056.056,0,0,0-.056,0,.053.053,0,0,0-.028.047Z"/><path class="cls-1" d="M22.212,21.991a.053.053,0,0,0,.028.046.056.056,0,0,0,.056,0,.053.053,0,0,0,0-.093.056.056,0,0,0-.056,0A.053.053,0,0,0,22.212,21.991Z"/><path class="cls-9" d="M22.089,22a.054.054,0,0,0,.028.047.058.058,0,0,0,.057,0A.053.053,0,0,0,22.2,22a.055.055,0,0,0-.027-.047.064.064,0,0,0-.057,0,.056.056,0,0,0-.028.047Z"/><path class="cls-1" d="M22.089,22a.054.054,0,0,0,.028.047.058.058,0,0,0,.057,0A.053.053,0,0,0,22.2,22a.055.055,0,0,0-.027-.047.064.064,0,0,0-.057,0A.056.056,0,0,0,22.089,22Z"/><path class="cls-9" d="M21.972,21.981a.053.053,0,0,0,.028.047.058.058,0,0,0,.057,0,.054.054,0,0,0,0-.093.058.058,0,0,0-.057,0,.053.053,0,0,0-.028.046Z"/><path class="cls-1" d="M21.972,21.981a.053.053,0,0,0,.028.047.058.058,0,0,0,.057,0,.054.054,0,0,0,0-.093.058.058,0,0,0-.057,0A.053.053,0,0,0,21.972,21.981Z"/><path class="cls-9" d="M22.032,21.888a.053.053,0,0,0,.028.046.056.056,0,0,0,.056,0,.053.053,0,0,0,0-.093.056.056,0,0,0-.056,0,.053.053,0,0,0-.028.047Z"/><path class="cls-1" d="M22.032,21.888a.053.053,0,0,0,.028.046.056.056,0,0,0,.056,0,.053.053,0,0,0,0-.093.056.056,0,0,0-.056,0A.053.053,0,0,0,22.032,21.888Z"/><path class="cls-9" d="M22.147,21.885a.056.056,0,0,0,.028.048.061.061,0,0,0,.056,0,.054.054,0,0,0,.028-.048.052.052,0,0,0-.028-.046.056.056,0,0,0-.056,0,.054.054,0,0,0-.028.046Z"/><path class="cls-1" d="M22.147,21.885a.056.056,0,0,0,.028.048.061.061,0,0,0,.056,0,.054.054,0,0,0,.028-.048.052.052,0,0,0-.028-.046.056.056,0,0,0-.056,0A.054.054,0,0,0,22.147,21.885Z"/><path class="cls-10" d="M21.183,21.688c.048-.019.048.089.048.089h-.076c-.033.015-.06.064-.039.087s.165-.033.175,0A.2.2,0,0,1,21,22c-.069-.063-.087-.231.138-.275Z"/><path d="M21.08,22.035a.131.131,0,0,1-.086-.028.156.156,0,0,1-.042-.153.214.214,0,0,1,.184-.133l.048-.04.026,0c.027.019.027.086.027.093l-.082.008a.079.079,0,0,0-.038.05c.01.032.052.024.078.02.051-.009.095-.017.1,0a.209.209,0,0,1-.145.162.245.245,0,0,1-.073.013Zm.054-.3a.2.2,0,0,0-.169.124A.145.145,0,0,0,21,22a.155.155,0,0,0,.145.012.194.194,0,0,0,.136-.148c0-.008-.057,0-.087.007-.048.009-.075.014-.086,0,0-.063.018-.088.041-.1h.013l-.031-.038Zm1.128-.092,0-.013.469-.2-.464.216Z"/><path class="cls-12" d="M23.01,21.211a1.253,1.253,0,0,1,.2.009c.013.005-.043.062-.031.084.043.082.333.071.357.053.039-.03-.271-.057-.273-.078s.045-.086.038-.125-.135-.068-.135-.068Z"/><path class="cls-14" d="M23.421,21.377c-.049,0-.213,0-.247-.069-.008-.016.007-.041.02-.062s-.058-.029-.145-.029l0,0a.534.534,0,0,1,.16,0c-.018.055-.033.078-.028.087.039.074.331.062.347.051a.576.576,0,0,0-.15-.036c-.1-.018-.125-.023-.126-.036a.125.125,0,0,1,.017-.051.142.142,0,0,0,.021-.074c-.007-.037-.1-.058-.129-.063l-.041.033.037-.045c.019,0,.137.02.147.073a.158.158,0,0,1-.023.082.119.119,0,0,0-.015.044.78.78,0,0,0,.114.023c.109.02.157.03.161.047-.018.023-.076.028-.125.028Z"/><path class="cls-15" d="M22.781,21.365l.387-.319s.017-.019.032,0-.006.033-.006.033l-.4.328Z"/><path d="M22.792,21.416l-.018-.049.39-.327.048.016-.42.36Zm.4-.345-.405.3.008.027.4-.326Z"/><path class="cls-9" d="M22.408,21.68c.006-.007.316-.273.316-.273l.02-.078s.047.033.065.049a.491.491,0,0,1,.045.062l-.087,0-.272.249Z"/><path d="M22.5,21.7l-.09-.013c0-.018.312-.285.312-.285l.018-.074c.015,0,.059.028.077.045a.542.542,0,0,1,.046.064l-.092.014L22.5,21.7Zm.243-.365-.01.074s-.309.267-.317.276h.079l.271-.247.085,0c-.01-.006-.03-.038-.044-.051a.782.782,0,0,0-.064-.048Z"/><path class="cls-9" d="M20.69,21.314v.123c.041.014.034.045.033.089v.36c.014.024.059.026.08.044s.018.055-.078.08l-.074,0c-.113-.024-.136-.062-.079-.083a.241.241,0,0,0,.085-.042l0-.086-.073,0c-.02,0-.057-.049-.059-.09v-.186c0-.106.082-.118.1-.117v-.1Zm-.124.206c0-.03.042-.057.06-.058s.056.036.057.066V21.6c0,.028-.025.122-.069.129-.022,0-.048-.03-.048-.058Z"/><path d="M20.649,22.019h0c-.073-.016-.113-.038-.114-.062v0l.035-.029a.25.25,0,0,0,.081-.04l0-.082-.066.01c-.026,0-.064-.056-.066-.1v-.186a.112.112,0,0,1,.108-.124l0-.091.073-.006,0,.13c.037.008.036.037.035.075l0,.374a.1.1,0,0,0,.04.02l.05.053c0,.017-.023.04-.092.057l-.076,0Zm0-.225.009.093a.171.171,0,0,1-.078.045c-.035.037-.008.057.067.074l.073,0c.066-.017.079-.039.081-.047l-.042-.037a.086.086,0,0,1-.047-.029v-.364c0-.051,0-.072-.03-.082l0-.13-.06.006.007.091a.111.111,0,0,0-.1.117v.186c0,.039.038.083.052.083l.073,0Zm-.037-.055a.067.067,0,0,1-.056-.065V21.52c0-.035.046-.064.066-.065h0a.089.089,0,0,1,.063.072V21.6c0,.021-.023.127-.075.136Zm.012-.27c-.015,0-.054.026-.054.051v.154c0,.024.023.051.039.051.039-.006.062-.09.066-.122v-.075a.079.079,0,0,0-.05-.059Z"/><path class="cls-7" d="M20,17.875c.589-.587,1.054-.3,1.164-.219a.377.377,0,0,1-.173-.037c.022.027.066.093.066.093a1.067,1.067,0,0,0-.2-.077.329.329,0,0,1,.055.07c-.013.006-.116-.08-.136-.081a.271.271,0,0,1,.041.116l-.089-.042c-.023.017.006.048-.014.046a.584.584,0,0,0-.383.18Z"/><path d="M20.338,17.927a.523.523,0,0,1,.378-.189h0l0,.014a.584.584,0,0,0-.377.176Zm-.33-.047L20,17.87c.581-.578,1.044-.314,1.173-.22a.179.179,0,0,1-.139-.011c-.011,0,.034.07.034.07l0,0h0a1.575,1.575,0,0,0-.2-.065c.029.01.058.059.059.061s-.028,0-.078-.031a.3.3,0,0,0-.065-.04c.038.025.048.1.049.108l-.1-.034,0-.013.086.04a.479.479,0,0,0-.045-.1c.016-.01.039,0,.077.031.017.012.041.028.054.035-.012-.011-.032-.04-.049-.055.022-.019.142.035.2.06a.938.938,0,0,1-.061-.077l-.016-.02.064.023a.237.237,0,0,0,.129.023.863.863,0,0,0-1.158.231Z"/><path class="cls-7" d="M20.149,17.983c.062-.141,1.183-.378,1.41.018-.089.023-.173-.074-.173-.074l.007.089-.15-.115.054.119-.119-.1,0,.1-.146-.159.019.092-.13-.055.015.077Z"/><path d="M21.188,18.019l-.157-.153.031.086-.14-.048.025.07-.029-.075.14.048-.028-.085.156.153-.015-.091.131.09-.065-.11.16.107-.018-.083a.274.274,0,0,0,.152.07.115.115,0,0,0,.026,0c-.124-.2-.487-.213-.692-.2a1.263,1.263,0,0,0-.709.193l-.013,0a1.247,1.247,0,0,1,.721-.2c.211-.011.577,0,.7.219-.093.033-.18-.062-.183-.066l.018.084-.16-.109.065.11-.13-.088.014.09Z"/><path class="cls-7" d="M20.2,18.005a1.017,1.017,0,0,1,.733-.063c.284.159.436.13.472.425a.656.656,0,0,1-.1-.1l-.058.115-.019-.163-.046.126-.069-.207-.016.14-.107-.14-.05.04-.046-.106-.042.07s-.073-.045-.116-.019l-.08-.092-.02.066-.068-.081-.027.059-.069-.063,0,.045-.238,0Z"/><path d="M21.249,18.381l-.031-.165-.034.127-.081-.207,0,.139-.119-.137-.04.042-.057-.11-.03.071a.343.343,0,0,0-.089-.023.057.057,0,0,0-.029.007l-.089-.093-.008.063-.081-.078-.015.057-.015-.012.014,0,.016-.056.08.079.007-.064.093.09c.036-.03.111.015.114.017l.032-.068.059.108.039-.043.117.141,0-.137.082.206.033-.126.032.164.045-.117c.032.024.092.092.112.1-.036-.208-.125-.247-.286-.318-.055-.025-.12-.053-.192-.094a1.019,1.019,0,0,0-.726.062L20.2,18a1.026,1.026,0,0,1,.738-.063c.074.041.137.069.193.094.16.07.256.113.284.336-.037,0-.107-.089-.115-.1l-.047.114Z"/><path class="cls-7" d="M20.264,18.038a1.568,1.568,0,0,1,.926.439,1.021,1.021,0,0,0-.1-.048l-.029.091-.036-.091-.008.07c-.021-.054-.046-.06-.088,0l-.015-.084-.023.081-.039-.089s-.024.1-.038.092-.063-.165-.092-.173l-.008.1-.038-.1-.035.077-.007-.11-.038.085s-.021-.084-.05-.1l-.058.052-.257-.184Z"/><path d="M21.071,18.522l-.049-.09.005.068c-.023-.023-.033-.036-.043-.038a.1.1,0,0,0-.047.037l-.027-.087-.01.082-.051-.088a.134.134,0,0,1-.025.1.76.76,0,0,0-.1-.172v.1l-.051-.1-.023.077-.02-.113-.025.088c-.018-.024-.038-.085-.059-.1l-.051.051-.265-.183.265.172.049-.051c.039.016.059.094.061.1l.026-.086.02.113.022-.079.05.1,0-.1c.039,0,.095.143.105.171,0-.008.016-.052.026-.091l.051.087.01-.08.029.085c.01-.034.028-.05.046-.045s.029.017.041.048l0-.068.048.089.017-.091c.012,0,.047.012.106.044a1.671,1.671,0,0,0-.924-.426h0v-.014h0a1.561,1.561,0,0,1,.926.442.87.87,0,0,1-.1-.038l-.02.087Z"/><path class="cls-7" d="M20.226,18.085a.849.849,0,0,1,.488.623c-.119-.147-.093-.127-.147.042a.635.635,0,0,0-.04-.166l-.034.11-.014-.143h-.036l.009-.089-.052.04c.012-.051.026-.068-.03-.112,0,0,.07.008.016-.117l-.052.05s.009-.055-.009-.076l-.189-.065Z"/><path d="M20.574,18.752a1.529,1.529,0,0,0-.051-.163L20.5,18.7l0-.008,0,.005.022-.111c.031.016.05.142.053.167l.008-.073c.013-.048.02-.07.035-.073s.038.02.086.081a.84.84,0,0,0-.479-.592l0-.013a.848.848,0,0,1,.492.629c-.063-.061-.089-.092-.1-.092h0c-.008,0-.015.029-.025.064l-.021.072Zm-.17-.244c0-.062.007-.076-.038-.112.034-.03.041-.055.013-.119l-.04.051c-.01-.02-.007-.06-.019-.075l-.186-.064.193.053c.022.024.014.077.014.083l.04-.056c.034.056.038.094.023.114a.116.116,0,0,1,.006.105l.038-.031v.015l0-.01-.042.046Z"/><path class="cls-7" d="M20.2,18.113l.1.191-.052.015.116.088-.1-.011a.27.27,0,0,1,.168.2l-.153-.067a.7.7,0,0,1,.148.211l-.088-.077a.323.323,0,0,1,.073.232l-.065-.073a.362.362,0,0,1-.068.314s.022-.2,0-.224l-.171.177.1-.252s-.106.16-.171.145l.135-.205-.133.107.151-.223-.14.042s.1-.127.093-.207l-.1.105a.484.484,0,0,0,.026-.154l-.049.01.095-.11-.064-.013.008-.071-.047-.016,0-.079Z"/><path d="M20.288,19.142a1.015,1.015,0,0,0-.013-.223l-.161.176.078-.238c-.024.045-.1.144-.159.133l.13-.214-.122.116.14-.233-.132.052c-.007-.012.091-.136.085-.212l-.085.108a1.183,1.183,0,0,0,.014-.156l-.041.014.089-.12-.06,0,0-.079-.043-.008,0-.086.011.08.042.008,0,.079.059.006-.092.12.043-.021a.376.376,0,0,1-.018.163l.084-.111c.02.085-.079.21-.083.215l.133-.053-.143.234.122-.116-.124.213h0c.045,0,.129-.108.158-.151h0s0,.009,0,.019l-.078.237.16-.184c.034.026.017.2.014.23a.416.416,0,0,0,.054-.314l.077.067a.352.352,0,0,0-.083-.222h0c.006,0,.012,0,.023.015l.075.052a.978.978,0,0,0-.158-.2h.007l.154.054a.288.288,0,0,0-.173-.189h0s0,0,.011,0l.088,0-.121-.076L20.3,18.3l-.106-.182.013-.006.1.191-.056.025.118.075-.089,0a.241.241,0,0,1,.162.194l-.154-.057a.494.494,0,0,1,.149.2l-.076-.054a.287.287,0,0,1,.061.21l-.077-.068a.325.325,0,0,1-.057.313Zm0-.229a.556.556,0,0,1-.073-.3.85.85,0,0,0-.118-.443l.011-.008a.853.853,0,0,1,.121.451.744.744,0,0,0,.059.3Z"/><path class="cls-9" d="M21.017,22.117c0-.024.058-.014.058-.042s-.09-.008-.1.019c-.051-.045-.072-.012-.1,0a.088.088,0,0,0-.15-.014.1.1,0,0,0-.134.014.082.082,0,0,0-.13,0c-.014-.026-.035-.02-.049,0a.079.079,0,0,0-.123,0c-.025-.028-.051-.006-.085.014-.022-.021-.059-.017-.059,0s.048.014.048.036-.035.009-.035.034.052.026.059,0a.052.052,0,0,0,.088-.01.059.059,0,0,0,.094,0c.022.017.048.02.06,0a.079.079,0,0,0,.128-.013h.023a.069.069,0,0,0,.115,0,.1.1,0,0,0,.14,0c.041.05.1.046.119,0,.028.02.086.025.086,0s-.049-.014-.049-.035Zm-.126.011c0,.011.014.019.033.019s.033-.008.033-.019-.015-.02-.033-.02-.033.009-.033.02Zm-.138-.017c0,.013.018.024.039.024s.04-.011.04-.024-.018-.023-.04-.023-.039.011-.039.023Zm-.272.015c0,.013.016.024.036.024s.036-.011.036-.024-.016-.023-.036-.023-.036.01-.036.023Zm.144-.006a.033.033,0,0,0,.036.03.03.03,0,1,0,0-.06.033.033,0,0,0-.036.03Zm-.307,0a.029.029,0,0,0,.031.027.027.027,0,1,0,0-.054.029.029,0,0,0-.031.027Zm.094.006a.02.02,0,1,0,.02-.017.019.019,0,0,0-.02.017Zm-.184.007a.024.024,0,0,0,.023.025.025.025,0,0,0,0-.05.024.024,0,0,0-.023.025Z"/><path d="M20.182,22.2h-.007l-.028-.023.035-.034-.047-.036.035,0,.025.04-.035.034.022.016.026-.027.044.019a.043.043,0,0,0,.042-.024l.053.016a.052.052,0,0,0,.043-.023l0-.007.066.008a.074.074,0,0,0,.117-.011l.022.01a.1.1,0,0,1-.149.011L20.4,22.16l.006,0a.069.069,0,0,1-.106,0c.008.02-.02.033-.043.033h0l-.039-.024c.008.015-.007.025-.026.025Zm.747-.008a.1.1,0,0,1-.074-.039c-.013.027-.073.046-.138,0,0,.023-.059.072-.114,0,.1.043.1.009.112-.011.07.032.094.038.141,0,.053.044.1.043.117,0a.284.284,0,0,0,.064.012l-.027-.044.037-.027V22.1l.026.048c-.056.022-.08.015-.1,0,0,.022-.02.038-.047.038Zm-.47-.067h-.053l.03-.024L20.4,22.1c-.033-.055-.087-.027-.112,0a.074.074,0,0,0-.075.009l-.02,0h.01a.085.085,0,0,1,.054-.029c.077-.007.13-.025.155.018.123-.045.132-.044.178,0,.01-.038.1-.05.134-.015.038-.055.108-.048.151.016l.05-.028a.076.076,0,0,1,.051.025c0-.019.042-.036.072-.036v.02c-.035,0-.064.012-.069.024a.154.154,0,0,0-.053-.019l-.061.021a.083.083,0,0,0-.141-.013.1.1,0,0,0-.133.013c-.06-.038-.09-.04-.13,0l-.006.008-.017,0,.02.024Z"/><path class="cls-9" d="M20.072,21.25s.09-.752.09-1.075c0-.255-.062-.819-.062-.819h-.259s-.04.561-.034.815c.007.324.09,1.079.09,1.079Z"/><path d="M20.078,21.257H19.9c-.008-.014-.09-.765-.1-1.085-.006-.252.034-.811.034-.817l.266-.006a7.87,7.87,0,0,1,.068.826c0,.32-.089,1.069-.09,1.076v.006Zm-.237-1.9c.006,0-.034.558-.027.809.007.32.089,1.071.09,1.079l.162-.006c.008-.071.089-.765.089-1.069,0-.252-.061-.813-.061-.819l-.253.006Z"/><polygon class="cls-9" points="19.823 19.391 20.124 19.391 20.089 19.19 19.871 19.19 19.823 19.391"/><path d="M20.132,19.4h-.309l.042-.21.224,0,.043.215Zm-.05-.207-.211.006-.041.2.286-.008-.034-.194Z"/><polygon class="cls-9" points="19.843 19.23 20.111 19.23 20.06 19.028 19.895 19.028 19.843 19.23"/><path d="M20.12,19.237h-.277l.046-.21.171-.005.06.215Zm-.066-.207-.159,0-.046.2.254-.009-.049-.193Z"/><polygon class="cls-9" points="19.86 19.067 20.084 19.067 20.046 18.865 19.903 18.865 19.86 19.067"/><path d="M20.092,19.073H19.86l.037-.209.149-.006.046.215Zm-.053-.207-.136.006-.037.2.21-.008-.037-.194Z"/><polygon class="cls-9" points="20.054 18.841 19.897 18.841 19.881 18.914 20.066 18.914 20.054 18.841"/><path d="M20.126,20.8h-.282l.282-.014V20.8Zm.015-.163h-.3l.3-.014v.014Zm0-.163h-.311l.311-.014v.014Zm.013-.149h-.338l.338-.013v.013Zm0-.135H19.8l.353-.014v.014Zm0-.163H19.8l.353-.014v.014Zm-.012-.162H19.8l.341-.014v.014Zm-.016-.164h-.308l.308-.014V19.7Zm-.015-.148h-.278l.278-.014v.014Z"/><path class="cls-11" d="M19.988,21.189c-.191,0-.346.071-.346.159a.086.086,0,0,0,.013.043.522.522,0,0,0,.334.082.574.574,0,0,0,.324-.073.085.085,0,0,0,.02-.052c0-.088-.155-.159-.345-.159Z"/><path class="cls-13" d="M19.989,21.482a.526.526,0,0,1-.341-.086l-.014-.048c0-.093.158-.168.354-.168s.353.075.353.168a.09.09,0,0,1-.021.057.567.567,0,0,1-.331.077Zm0-.285c-.183,0-.337.069-.337.151.1.163.555.134.657.045a.073.073,0,0,0,.016-.045c0-.082-.154-.151-.336-.151Z"/><path class="cls-9" d="M20.337,21.359v.534c0,.063-.156.114-.348.114s-.347-.051-.347-.114v-.534c0,.063.155.114.347.114s.348-.051.348-.114Z"/><path d="M19.989,22.014c-.2,0-.354-.053-.354-.121v-.534c.014.052.151.107.354.107s.34-.055.34-.107a.026.026,0,0,1,0,.015l.014.519c0,.068-.156.121-.355.121Zm-.354-.652.014.531c0,.052.137.107.34.107s.34-.055.34-.107v-.517c-.012.06-.158.1-.34.1s-.35-.052-.354-.118Z"/><path class="cls-12" d="M19.642,21.36v.082l.169.517.134-.4.147.413.109-.389.136.261V21.7l-.126-.254-.046.01-.078.289-.11-.273-.054,0-.11.275-.126-.331c-.029-.016-.045-.035-.045-.055Z"/><path class="cls-14" d="M20.093,22l-.154-.434-.122.4-.182-.517V21.36h0a.184.184,0,0,0,.055.05l.13.333.1-.274.059,0,.117.277.066-.288.05-.015.134.258v.148l-.148-.258-.1.409Zm-.455-.622.011.067.168.515.122-.4.152.394.1-.37.149.26L20.33,21.7,20.2,21.45l-.038.014-.073.283-.123-.271-.049,0-.1.27-.14-.33a.079.079,0,0,1-.042-.043Z"/><path class="cls-11" d="M20.337,21.794v.1c0,.063-.156.114-.348.114s-.347-.051-.347-.114v-.1c0,.062.155.113.347.113s.348-.051.348-.113Z"/><path class="cls-13" d="M19.989,22.014c-.2,0-.354-.053-.354-.121v-.1c.014.051.151.106.354.106s.34-.055.34-.106v0l.014.094c0,.068-.156.121-.355.121Zm-.352-.208.012.087c0,.052.137.107.34.107s.34-.055.34-.107V21.81c-.012.06-.158.1-.34.1s-.335-.047-.352-.108Z"/><path class="cls-9" d="M20.132,21.9q-.042.006-.09.009v.1a.609.609,0,0,0,.09-.009Z"/><path class="cls-1" d="M20.132,21.9q-.042.006-.09.009v.1a.609.609,0,0,0,.09-.009Z"/><path class="cls-9" d="M19.762,21.879v.1a.65.65,0,0,0,.09.018v-.1a.643.643,0,0,1-.09-.019Z"/><path class="cls-1" d="M19.762,21.879v.1a.65.65,0,0,0,.09.018v-.1A.643.643,0,0,1,19.762,21.879Z"/><path class="cls-9" d="M19.642,21.794v.1c0,.019.013.036.038.052l0-.1c-.026-.016-.04-.033-.04-.052Z"/><path class="cls-1" d="M19.642,21.794v.1c0,.019.013.036.038.052l0-.1C19.656,21.83,19.642,21.813,19.642,21.794Z"/><path class="cls-9" d="M20.337,21.805h0a.116.116,0,0,1-.064.055v.1c.041-.019.066-.041.066-.066Z"/><path d="M19.989,22.014c-.2,0-.354-.053-.354-.121v-.53l.014.53c0,.052.137.107.34.107a.7.7,0,0,0,.284-.049l-.009-.091c.038-.022.059-.04.064-.057h0v-.44c0-.007.015-.007.015,0v.53h0a.063.063,0,0,1-.028.046.577.577,0,0,1-.327.074Z"/><path class="cls-10" d="M20.257,21.325c0,.038-.119.069-.268.069s-.268-.031-.268-.069.12-.069.268-.069.268.031.268.069Z"/><path class="cls-5" d="M19.989,21.4c-.135,0-.274-.028-.274-.074,0-.093.548-.1.548,0,0,.048-.141.074-.274.074Zm0-.137c-.155,0-.263.033-.263.063s.108.063.263.063.262-.033.262-.063-.107-.063-.262-.063Z"/><path class="cls-9" d="M19.9,21.375l.012.095q.034,0,.072,0l.018-.1Z"/><path class="cls-1" d="M19.9,21.375l.012.095q.034,0,.072,0l.018-.1Z"/><path class="cls-9" d="M20.213,21.352l-.07.019,0,.089c.024,0,.046-.009.065-.014Z"/><path class="cls-1" d="M20.213,21.352l-.07.019,0,.089c.024,0,.046-.009.065-.014Z"/><path class="cls-9" d="M19.8,21.208c-.02.006-.039.013-.056.02l.01.072.045-.014Z"/><path class="cls-1" d="M19.8,21.208c-.02.006-.039.013-.056.02l.01.072.045-.014Z"/><path class="cls-9" d="M19.988,21.18H19.96l.016.089h.045l.018-.087-.051,0Z"/><path class="cls-1" d="M19.988,21.18H19.96l.016.089h.045l.018-.087Z"/><path class="cls-9" d="M20.19,21.212l-.009.078.053.018,0-.076a.278.278,0,0,0-.049-.02Z"/><path class="cls-1" d="M20.19,21.212l-.009.078.053.018,0-.076A.278.278,0,0,0,20.19,21.212Z"/><polygon class="cls-9" points="19.696 21.422 19.71 21.324 19.639 21.286 19.641 21.397 19.696 21.422"/><polygon class="cls-1" points="19.696 21.422 19.71 21.324 19.639 21.286 19.641 21.397 19.696 21.422"/><polygon class="cls-9" points="20.334 21.401 20.337 21.303 20.271 21.323 20.334 21.401"/><polygon class="cls-1" points="20.334 21.401 20.337 21.303 20.271 21.323 20.334 21.401"/><path class="cls-7" d="M19.13,20.775a.176.176,0,0,0-.152-.064.172.172,0,0,0-.151.064.05.05,0,0,1-.008-.027c0-.05.071-.092.159-.092s.159.042.159.092a.06.06,0,0,1-.007.027Z"/><path class="cls-5" d="M19.122,20.78c-.039-.071-.251-.071-.287,0a.1.1,0,0,1-.005-.033c.033-.036.24-.059.3.012v-.01c0-.084-.264-.1-.3-.018.023-.123.315-.082.315.018l-.011.018,0,.005-.007,0v0l0,0,0,0,0,0,0,.006Z"/><path class="cls-7" d="M19.116,20.889a.142.142,0,1,1-.276,0v-.1h.276Z"/><path class="cls-5" d="M18.978,21.078a.173.173,0,0,1-.149-.189v-.1l.287-.011.011.108a.172.172,0,0,1-.149.189Zm.127-.286-.265.011.011.086a.132.132,0,1,0,.254,0v-.1Z"/><path class="cls-10" d="M19.115,20.761c0,.037-.061.068-.137.068s-.137-.031-.137-.068.061-.068.137-.068.137.03.137.068Z"/><polygon class="cls-7" points="18.947 20.838 18.923 20.588 19.028 20.588 19.011 20.838 18.947 20.838"/><polygon class="cls-16" points="19.017 20.844 18.947 20.844 18.916 20.589 19.028 20.581 19.017 20.844 19.017 20.844"/><path class="cls-7" d="M19.13,20.765a.175.175,0,0,1-.152.065.173.173,0,0,1-.151-.065.056.056,0,0,0-.008.027c0,.051.071.092.159.092s.159-.041.159-.092a.068.068,0,0,0-.007-.027Z"/><path class="cls-5" d="M18.978,20.893c-.094,0-.168-.045-.168-.1l.015,0c.041.1.272.089.3.014-.009.056-.072.085-.147.085Zm0-.055a.221.221,0,0,1-.135-.04c.089.019.246.025.279-.037a.137.137,0,0,1,0,.034.234.234,0,0,1-.148.043Z"/><polygon class="cls-9" points="18.871 21.281 19.148 21.309 19.192 21.063 18.866 21.031 18.871 21.281"/><polygon points="19.155 21.31 18.87 21.288 18.872 21.274 19.149 21.302 19.185 21.062 18.865 21.037 19.193 21.057 19.155 21.31 19.155 21.31"/><polygon class="cls-9" points="18.943 21.02 18.902 21.31 18.985 21.308 19.018 21.02 18.943 21.02"/><polygon points="18.894 21.317 18.937 21.02 19.018 21.014 18.992 21.308 18.894 21.317 18.894 21.317"/><path class="cls-9" d="M21.039,20.759c.063-.009.157.077.162.183,0,.085-.128.081-.128.081-.006.034-.08.066-.14.069s.016-.108.016-.108a.319.319,0,0,1,.012-.208Z"/><path d="M20.934,21.1a.059.059,0,0,1-.013-.019c.085.007.14-.03.145-.058.008-.006.081,0,.113-.037a.2.2,0,0,0-.06-.19.116.116,0,0,0-.079-.03l-.078.018a.353.353,0,0,0-.01.189l.191,0-.093.016L21,20.978l-.05.007a.254.254,0,0,0-.035.087.13.13,0,0,1,.025-.092.315.315,0,0,1,.011-.207l.084-.021a.117.117,0,0,1,.09.033.225.225,0,0,1,.08.157.069.069,0,0,1-.019.052.171.171,0,0,1-.117.035c0,.034-.076.067-.138.07Z"/><path class="cls-12" d="M21.073,20.821c.051-.037.006-.112-.03-.113l-.082,0c-.04,0-.107.043-.1.08a.05.05,0,0,0,.064.041c.015,0,.047-.043.063-.043s.066.044.083.032Z"/><path class="cls-16" d="M20.913,20.84a.055.055,0,0,1-.056-.047c.031-.066.073-.088.1-.089l.082,0a.071.071,0,0,1,.057.053.064.064,0,0,1-.023.072.077.077,0,0,1-.054-.016l-.11.029Zm.13-.125-.082,0a.126.126,0,0,0-.082.044c0,.053.011.065.034.065v.007l.077-.051.076.034a.047.047,0,0,0,.021-.057c-.008-.023-.028-.044-.044-.044Z"/><path class="cls-11" d="M19.993,17.66c-.052-.025-.171-.1-.135-.145l.054-.091c.077-.172,0-.106-.01-.159s.294-.012.3.105a.546.546,0,0,0-.019.2l-.058.11a.271.271,0,0,1-.13-.018Z"/><path class="cls-13" d="M20.1,17.686a.255.255,0,0,1-.105-.02c-.034-.016-.133-.073-.144-.123l.06-.123c.049-.108.033-.115.016-.122l-.022-.047c.053-.063.3.008.307.119a.557.557,0,0,0-.019.2l-.058.113-.035,0Zm-.137-.437a.079.079,0,0,0-.048.01c.045.038.059.055.008.168l-.054.092c0,.062.091.115.132.134a.227.227,0,0,0,.1.019v.007l.028-.008.052-.106a.455.455,0,0,1,.014-.175c0-.1-.151-.141-.231-.141Z"/><polygon class="cls-9" points="20.03 18.105 19.955 18.042 19.976 17.505 20.049 17.526 20.03 18.105"/><path d="M20.036,18.119l-.085-.072.018-.543.081.016-.014.6Zm-.062-.608-.012.531.062.049.018-.565-.068-.015Z"/><path class="cls-12" d="M20.127,17.675a.131.131,0,0,0,.049-.158c-.077-.1-.127-.057-.257-.1-.025.027-.079.08-.067.119.17.08.1.012.16.022.03.005.05.041.115.118Z"/><path class="cls-14" d="M20.126,17.683l-.048-.057c-.032-.039-.047-.059-.067-.062l-.048.017a.357.357,0,0,1-.115-.039c-.014-.044.029-.091.058-.122.061,0,.1.01.127.014a.186.186,0,0,1,.148.079.106.106,0,0,1,.008.083.136.136,0,0,1-.058.084l0,0Zm-.113-.133c.025,0,.042.026.076.068l.039.048a.128.128,0,0,0,.048-.073.1.1,0,0,0-.006-.073.173.173,0,0,0-.139-.073.529.529,0,0,1-.114-.025c-.026.035-.068.08-.059.111a.388.388,0,0,0,.105.035l.05-.018Z"/><path class="cls-9" d="M17.285,21.879c-.047.006-.056.06-.038.109-.2.058-.386.132-.566.182-.007-.036.089-.139.089-.139.026.012.045.07.045.07a.3.3,0,0,1,.124-.2.667.667,0,0,0-.309.107.34.34,0,0,1,.1,0,1.07,1.07,0,0,0-.171.227c.026.057.306.1.306.1,0,.015-.082.071-.082.071a.477.477,0,0,0,.33-.1.493.493,0,0,1-.234-.094s.022.051.009.076a.68.68,0,0,1-.176-.072s.377-.1.56-.151c.006.032.042.093.086.079.028-.01.02-.066.009-.105a.056.056,0,0,0,.038.014.056.056,0,1,0,0-.112.058.058,0,0,0-.055.038c-.007-.034-.026-.1-.061-.1Zm.144.116a.028.028,0,0,1-.028.026A.027.027,0,0,1,17.374,22a.026.026,0,0,1,.027-.026.027.027,0,0,1,.028.026Z"/><path d="M16.824,22.417a.224.224,0,0,1-.046-.005c.033-.038.074-.07.076-.078-.026,0-.279-.037-.3-.095a.6.6,0,0,1,.117-.173,1.251,1.251,0,0,0-.1.171c.02.04.223.08.3.091,0,.024-.055.066-.079.083l.041-.008a.5.5,0,0,0,.278-.1.347.347,0,0,1-.219-.077.074.074,0,0,1,.007.065.514.514,0,0,1-.188-.071c0-.011,0-.011.169-.055.125-.033.291-.077.395-.107.013.031.041.081.075.081s.03-.044.015-.1c.078,0,.1-.016.1-.044,0-.048-.082-.061-.1-.015-.025-.059-.044-.094-.064-.094a.084.084,0,0,0-.035.1c-.109.039-.209.073-.3.106s-.178.06-.265.085c-.016-.043.072-.14.082-.151.036.012.054.067.056.073a.25.25,0,0,1,.106-.2c-.012.026-.1.1-.106.2-.018-.014-.035-.056-.054-.065-.028.038-.084.108-.079.132.078-.029.165-.059.255-.09s.2-.067.3-.1a.08.08,0,0,1,0-.083l.041-.026h0c.039,0,.058.056.068.1-.01-.061.113-.043.113.019a.063.063,0,0,1-.065.062l-.043-.015c.024.039.032.095,0,.106h0a.1.1,0,0,1-.092-.084c-.1.035-.262.079-.386.112l-.164.044a1.689,1.689,0,0,0,.175.059.257.257,0,0,0-.017-.066l0,0,0,0a.58.58,0,0,0,.231.079.426.426,0,0,1-.285.12Zm-.193-.4a.53.53,0,0,1,.3-.121v0a.974.974,0,0,0-.28.105.219.219,0,0,1,.047,0l0,.01-.062.008Z"/><path class="cls-9" d="M23.27,22.109a.587.587,0,0,0-.012-.168c-.029,0-.067.052-.067.052a.524.524,0,0,0-.066-.3,1.031,1.031,0,0,1,.312.276.544.544,0,0,0-.117-.031c.017.114.1.166.126.226,0,0-.131.028-.118.137l-.086,0c-.029-.037.012-.1.012-.1l-.587-.246c-.039-.016-.124-.054-.111-.1s.153.019.187.03Z"/><path d="M23.239,22.305l0,0c-.032-.04.009-.1.011-.1l-.584-.235c-.032-.014-.13-.054-.115-.108a.287.287,0,0,1,.038-.008c-.032.04,0,.07.082.1l.588.245c0,.01-.033.063-.011.1h.082c-.021-.107.115-.138.116-.138A.236.236,0,0,1,23.4,22.1a.344.344,0,0,1-.086-.171.37.37,0,0,1,.126.025,1.308,1.308,0,0,0-.315-.264.443.443,0,0,1,.078.282.087.087,0,0,1,.055-.041.414.414,0,0,1,.019.177l-.535-.219a.63.63,0,0,0-.152-.046.288.288,0,0,1,.132.024l.552.232a1.277,1.277,0,0,0-.022-.16A.281.281,0,0,0,23.2,22v0a.014.014,0,0,1,0-.011.642.642,0,0,0-.079-.292.842.842,0,0,1,.324.271c-.033,0-.1-.023-.119-.023a.362.362,0,0,0,.086.156.418.418,0,0,1,.042.061c-.01.011-.13.038-.117.14l-.1.009Z"/><path class="cls-9" d="M22.706,22.007l.068-.126c.025-.034-.025-.07-.062-.028l-.078.116c-.033.063.039.081.072.038Z"/><path d="M22.66,22.037l-.036-.018a.05.05,0,0,1,.005-.053l.079-.119.041-.02.031.058-.068.125a.066.066,0,0,1-.052.027Z"/><polygon class="cls-10" points="18.585 22.296 18.58 22.158 18.413 22.167 18.403 22.318 18.585 22.296"/><path d="M18.4,22.326l.01-.159.174-.016.012.145-.2.03Zm.178-.168-.161.016,0,.136.174-.021-.01-.131Z"/><path class="cls-10" d="M17.36,22.49l-.224-.126a2.369,2.369,0,0,0,1.337-.253c.137-.011.158.151-.108.074l.068.17a2.054,2.054,0,0,1-1.3.215Z"/><path d="M17.462,22.614a1.479,1.479,0,0,1-.331-.037l.227-.094-.225-.113c.11,0,.208,0,.3,0a1.649,1.649,0,0,0,.833-.191.589.589,0,0,1,.21-.077h0c.071,0,.105.03.105.059s-.074.07-.216.029l.077.16a2.121,2.121,0,0,1-.978.262Zm-.326-.243.227.113-.228.093a3.05,3.05,0,0,0,.327.023,2.252,2.252,0,0,0,.968-.251l-.071-.161c.148.012.206,0,.206-.025s-.03-.046-.079-.046a.559.559,0,0,0-.218.076,1.827,1.827,0,0,1-1.132.178Z"/><polygon class="cls-10" points="21.386 22.296 21.39 22.158 21.595 22.163 21.605 22.313 21.386 22.296"/><path d="M21.612,22.321l-.227-.018,0-.145.212,0,.017.165Zm-.024-.158-.2,0,0,.131.206.01-.01-.143Z"/><path class="cls-10" d="M22.653,22.456l.211-.115c-1.059.032-.818-.173-1.347-.23-.137-.015-.24.16.107.074l-.069.17h.167a1.594,1.594,0,0,0,1.169.181Z"/><path d="M22.533,22.582h0a1.5,1.5,0,0,1-.815-.222h-.163l.062-.178a.372.372,0,0,1-.15.033c-.031,0-.085-.01-.085-.042s.053-.071.118-.071a1.072,1.072,0,0,1,.4.108,1.752,1.752,0,0,0,.964.123l-.208.128.237.068a1.086,1.086,0,0,1-.36.052Zm-.811-.234a1.629,1.629,0,0,0,1.167.181l-.238-.067.209-.127a.957.957,0,0,1-.2.016,1.515,1.515,0,0,1-.764-.127.988.988,0,0,0-.378-.106c-.07.009-.12.034-.12.056s.045.028.071.028a.667.667,0,0,0,.155-.024l-.061.179.161-.009Z"/><path class="cls-10" d="M18.361,22.186v.238A5.146,5.146,0,0,0,20,22.641a5.108,5.108,0,0,0,1.634-.217v-.238a4.408,4.408,0,0,1-1.634.2,4.44,4.44,0,0,1-1.634-.2Z"/><path d="M20,22.648a5.217,5.217,0,0,1-1.636-.217l0-.245a4.7,4.7,0,0,0,1.64.2,4.464,4.464,0,0,0,1.631-.2l.01.244A4.9,4.9,0,0,1,20,22.648Zm-1.627-.224a5.512,5.512,0,0,0,1.627.21,5.18,5.18,0,0,0,1.632-.216l0-.232A4.063,4.063,0,0,1,20,22.4a4.488,4.488,0,0,1-1.636-.2l.009.232Z"/><path d="M18.449,22.426l.052-.175.023.007-.045.154.09.024-.006.021Zm.17-.077,0-.034.007-.03.026.007-.008.029-.014.031Zm.252-.012.025,0-.022.1a.148.148,0,0,1-.015.041.053.053,0,0,1-.029.021.083.083,0,0,1-.045,0,.082.082,0,0,1-.04-.017.049.049,0,0,1-.019-.03.124.124,0,0,1,0-.046l.022-.1.025.005-.022.1a.119.119,0,0,0,0,.035.035.035,0,0,0,.012.02.064.064,0,0,0,.025.011.053.053,0,0,0,.041,0c.01-.006.016-.021.022-.043Zm.028.19.03-.179.026,0,.074.156.024-.141.023,0-.03.179-.025,0-.074-.156-.024.141Zm.193.029.026-.18.024,0-.026.18Zm.071-.079a.1.1,0,0,1,.033-.068.088.088,0,0,1,.068-.018.1.1,0,0,1,.046.017.072.072,0,0,1,.027.037.089.089,0,0,1,.006.049.1.1,0,0,1-.017.048.086.086,0,0,1-.037.029.094.094,0,0,1-.047.006.081.081,0,0,1-.046-.017.076.076,0,0,1-.027-.037.09.09,0,0,1-.006-.046Zm.025,0a.071.071,0,0,0,.013.053.061.061,0,0,0,.044.024.064.064,0,0,0,.048-.014.08.08,0,0,0,.024-.052.083.083,0,0,0,0-.039.056.056,0,0,0-.02-.028.066.066,0,0,0-.032-.013.07.07,0,0,0-.048.013.08.08,0,0,0-.026.056Zm.176.107.015-.181.026,0,.086.15.013-.142.024,0-.016.181-.025,0-.087-.151-.012.143Zm.265.018.008-.181.127,0v.021l-.1,0,0,.056.089,0v.022l-.089,0,0,.082Zm.139.006.076-.18h.027l.074.183h-.028l-.022-.056h-.079l-.021.055Zm.056-.074.064,0-.019-.051a.386.386,0,0,1-.012-.038.145.145,0,0,1-.012.035Zm.145.077v-.181h.025v.181Zm.117,0,0-.159h-.062v-.021l.151,0v.021h-.063l0,.16Zm.185,0-.008-.181h.024l.008.16.094,0V22.6ZM20.4,22.6l.059-.186.026,0,.091.176-.028,0-.026-.054-.079.005-.016.057Zm.049-.079.064,0-.024-.049c-.007-.014-.012-.026-.016-.036,0,.011,0,.023-.007.035Zm.222.058-.021-.18.127-.014,0,.021-.1.011.006.056.089-.009,0,.021-.088.009.01.083Zm.138-.1a.1.1,0,0,1,.015-.073.088.088,0,0,1,.061-.035.1.1,0,0,1,.048.006.082.082,0,0,1,.037.029.114.114,0,0,1,.014.1.088.088,0,0,1-.028.038.093.093,0,0,1-.044.016.091.091,0,0,1-.049,0,.086.086,0,0,1-.036-.029.1.1,0,0,1-.018-.044Zm.026,0a.068.068,0,0,0,.026.049.059.059,0,0,0,.048.012.062.062,0,0,0,.044-.025.077.077,0,0,0,.009-.056.1.1,0,0,0-.013-.037.058.058,0,0,0-.027-.022.065.065,0,0,0-.077.019.07.07,0,0,0-.01.06Zm.2.061L21,22.359l.082-.015a.138.138,0,0,1,.039,0,.037.037,0,0,1,.023.014.048.048,0,0,1,.014.025.044.044,0,0,1-.008.034.058.058,0,0,1-.036.024l.017.007a.088.088,0,0,1,.025.02l.041.043-.03,0-.033-.033-.022-.022a.035.035,0,0,0-.015-.009l-.012,0-.014,0-.028,0,.015.079Zm0-.1.053-.009a.1.1,0,0,0,.026-.008.025.025,0,0,0,.012-.013.021.021,0,0,0,0-.017.028.028,0,0,0-.014-.019.044.044,0,0,0-.032,0l-.059.011Zm.3-.02h.025a.076.076,0,0,1-.017.05.078.078,0,0,1-.045.026.09.09,0,0,1-.052,0,.076.076,0,0,1-.035-.027.13.13,0,0,1-.022-.046.105.105,0,0,1,0-.05.073.073,0,0,1,.024-.038.1.1,0,0,1,.042-.021.083.083,0,0,1,.05,0,.072.072,0,0,1,.035.032l-.022.011a.054.054,0,0,0-.026-.024.043.043,0,0,0-.032,0,.068.068,0,0,0-.034.017.044.044,0,0,0-.013.031.1.1,0,0,0,0,.035.121.121,0,0,0,.016.038.051.051,0,0,0,.028.02.062.062,0,0,0,.033,0,.054.054,0,0,0,.044-.057Zm.069.049-.051-.174.131-.035.007.02-.108.029.016.053.1-.027.006.021-.1.027.017.059.111-.029.007.02Z"/></g></g></svg>