<?xml version="1.0" encoding="UTF-8"?><svg id="a" xmlns="http://www.w3.org/2000/svg" viewBox="0 0 40 40"><g><path d="M20.475,15.62c.08-.199,.332-.278,.332-.278,0,0,.125,.081,.199,.344,.172-.16,.384-.186,.384-.186,0,0,.106,.159,.092,.358,.862-.57,.132-.729-.318-.809-.218-.039-.484-.134-.703-.268,.004,.04,.014,.076,.014,.118,0,.195-.048,.372-.122,.501,.047,.06,.091,.132,.122,.218Z" fill="#e3e7ea"/><path d="M34,8H6c-2.209,0-4,1.791-4,4v8H14.372c-.182-.387,.044-.773,.044-.773l.477,.404s.026-.113-.08-.63c-.106-.518,.318-.796,.318-.796l.504,.729s.053-1.179,.941-1.551c.278,.557,0,1.074,0,1.074,0,0,.146,.624-.172,1.174,.065,.131,.095,.255,.105,.369h.241c.139-2.152,1.226-2.616,1.709-2.616,.066,0,.126,.018,.189,.027-.133-.063-.209-.135-.217-.207,0-.271-.435-.881-.767-.948,.066-.132,.25-.091,.25-.091,0,0-.412-.703-.252-1.034,.159-.332,.782-.319,1.286-.372,.504-.052,.596-.278,.596-.278l-.132-.159s.251-.053,.199-.226c-.053-.173,.16-.16,.16-.16,0,0-.159-.159-.092-.305,.066-.146,.212-.186,.212-.186,0,0,.093-.212,0-.278-.092-.066-.305,.186-.305-.066s.238-.04,.305-.132c.067-.093-.119-.332,.16-.332s.092,.239,.158,.33c.066,.093,.305-.12,.305,.132s-.212,0-.305,.066c-.093,.066,0,.278,0,.278,0,0,.146,.04,.212,.186,.067,.145-.092,.304-.092,.304,0,0,.212-.013,.159,.159-.053,.173,.199,.226,.199,.226l-.132,.159s.092,.226,.596,.278c.504,.053,1.127,.04,1.286,.372,.159,.332-.252,1.034-.252,1.034,0,0,.186-.04,.252,.093-.331,.066-.767,.676-.767,.947-.008,.072-.084,.144-.218,.208,.063-.01,.123-.027,.189-.027,.483,0,1.57,.464,1.709,2.616h.141c.011-.114,.04-.237,.105-.369-.318-.55-.172-1.174-.172-1.174,0,0-.278-.517,0-1.074,.888,.372,.941,1.551,.941,1.551l.504-.729s.424,.278,.318,.796c-.106,.517-.08,.63-.08,.63l.477-.404s.226,.385,.044,.773h12.371V12c0-2.209-1.791-4-4-4Z" fill="#e3e7ea"/><path d="M19.115,17.549c.232,.108,.444,.245,.643,.352,.106-.133,.292-.12,.292-.12,0,0,.186-.013,.292,.12,.199-.106,.411-.244,.643-.352-.248,.045-.56,.074-.935,.074s-.687-.028-.935-.073Z" fill="#e3e7ea"/><path d="M18.712,15.501s.212,.026,.384,.186c.073-.262,.199-.344,.199-.344,0,0,.252,.08,.332,.278,.031-.084,.073-.155,.119-.215-.076-.131-.124-.309-.124-.506,0-.041,.009-.075,.014-.115-.217,.132-.482,.227-.698,.265-.451,.079-1.18,.239-.317,.809-.014-.199,.092-.358,.092-.358Z" fill="#e3e7ea"/></g><path d="M16.351,20.632s.265,.278,.212,.692,.16,.301,.16,.301c0,0-.013,.332,.159,.597,.173,.266,.16,.676,.16,.676,0,0,.518,.292,.782,.729,.265,.437,.411,.557,1.325,.981,.059,.027,.096,.064,.15,.093,.131,.024,.269,.034,.41,.048-.846-.378-2.987-1.601-2.987-4.304,0-.165,.018-.298,.027-.446h-.241c.035,.374-.158,.632-.158,.632Z" fill="#2c7ec4"/><path d="M20.391,24.75c.091-.009,.185-.011,.272-.025,.066-.037,.115-.083,.188-.117,.915-.424,1.061-.544,1.325-.981s.782-.729,.782-.729c0,0-.014-.411,.159-.676s.16-.597,.16-.597c0,0,.212,.113,.159-.301s.212-.692,.212-.692c0,0-.193-.258-.158-.632h-.141c.01,.148,.028,.281,.028,.446,0,2.702-2.141,3.926-2.987,4.304Z" fill="#2c7ec4"/><path d="M25.453,20.248c-.477,.451-.557,.584-.557,.584,0,0,.238-.132,.238,.08s-.053,.305-.053,.305l.624-.517s.185,.703-.253,1.101c-.438,.398-.703,.544-.703,.544,0,0,.835-.238,.822-.179-.014,.059-.172,.497-.596,.736-.424,.239-.742,.332-.742,.332l.862,.156s-.212,.614-.716,.614-.981-.16-.981-.16c0,0,.358,.292,.464,.517,.106,.226,.411,.252,.411,.252,0,0-.278,.292-.796,.198-.518-.093-.584-.796-1.22-.57-.249,.088-.576,.206-.903,.35,.32-.071,.585-.121,.752-.047,.358,.159,.292,.212,.266,.344-.013,.068-.03,.194-.047,.328,.429,.127,.66,.369,1.399,.044,.04,.198-.278,.504-.278,.504,0,0,.477,.014,.703-.066-.12,.49-.676,.676-1.14,.636s-.756-.385-1.293-.265c-.493,.11-.854,.247-.828-.473-.036,.008-.068,.01-.106,.021-.157,.047-.289,.073-.405,.091,.143,.214,.274,.43,.401,.639,.109,.179-.221,.198-.302,.002-.063-.157-.166-.283-.388-.608-.037,.001-.057,0-.057,0,0,0-.046-.001-.112-.006-.224,.329-.328,.455-.391,.614-.08,.197-.411,.177-.301-.002,.13-.213,.263-.433,.41-.652-.092-.018-.195-.042-.313-.078-.038-.011-.07-.013-.106-.021,.026,.72-.335,.583-.828,.473-.537-.12-.829,.225-1.293,.265-.464,.04-1.021-.146-1.14-.636,.226,.08,.703,.066,.703,.066,0,0-.318-.305-.278-.504,.74,.325,.97,.083,1.4-.044-.017-.134-.034-.26-.047-.328-.027-.132-.093-.185,.265-.344,.133-.059,.339-.032,.573,.013-.301-.128-.597-.235-.826-.316-.636-.226-.703,.478-1.22,.57-.518,.093-.796-.198-.796-.198,0,0,.305-.026,.411-.252,.106-.225,.464-.517,.464-.517,0,0-.477,.16-.981,.16s-.716-.614-.716-.614l.862-.156s-.318-.094-.742-.332c-.424-.238-.583-.676-.596-.736-.013-.059,.822,.179,.822,.179,0,0-.265-.146-.703-.544-.437-.398-.253-1.101-.253-1.101l.625,.517s-.053-.093-.053-.305,.238-.08,.238-.08c0,0-.08-.133-.557-.584-.085-.08-.137-.164-.176-.248H2v8.004c0,2.207,1.789,3.996,3.995,3.996h28.009c1.931,0,3.542-1.37,3.914-3.191,.053-.26,.081-.529,.081-.805h0v-8.004h-12.371c-.039,.084-.091,.168-.176,.248Z" fill="#2c7ec4"/><path d="M20.05,17.622c.376,0,.687-.028,.935-.074,.145-.067,.302-.113,.466-.138,.134-.064,.21-.135,.218-.208h0c-.306-.338-1.619-.364-1.619-.364,0,0-1.313,.027-1.619,.365h0c.008,.072,.084,.144,.217,.207,.165,.025,.321,.07,.467,.138,.248,.045,.56,.073,.935,.073Z" fill="#f4900c"/><g><path d="M19.709,24.75c.114,.011,.222,.031,.341,.031s.227-.02,.341-.031c.846-.378,2.987-1.602,2.987-4.304,0-.165-.018-.298-.028-.446-.139-2.153-1.226-2.616-1.709-2.616-.066,0-.126,.018-.189,.027-.165,.025-.321,.07-.466,.138-.232,.108-.445,.246-.643,.352-.106-.133-.292-.12-.292-.12,0,0-.186-.014-.292,.12-.199-.106-.411-.244-.643-.352-.145-.068-.302-.113-.467-.138-.063-.01-.123-.027-.189-.027-.484,0-1.57,.464-1.709,2.616-.01,.148-.027,.281-.027,.446,0,2.703,2.141,3.926,2.987,4.304Zm-1.568-6.173s.277,.331,.669,.198c.392-.133,.949-.57,.949-.57,0,0,.098,.125,.277,.131,.179-.007,.277-.131,.277-.131,0,0,.557,.438,.95,.57,.393,.133,.668-.198,.668-.198,0,0,.57,.226,.57,2.201,0,.642-.269,1.265-.621,1.822h.005c-.012,.021-.027,.039-.039,.059-.055,.084-.11,.164-.169,.245-.061,.084-.123,.166-.186,.246-.102,.129-.202,.249-.306,.365-.058,.065-.115,.13-.172,.19-.069,.073-.133,.139-.2,.204-.056,.056-.108,.106-.161,.156-.089,.084-.166,.156-.241,.222-.051,.045-.099,.088-.142,.124-.044,.037-.073,.062-.106,.089-.027,.022-.044,.036-.064,.051l-.051,.042v.018h0l-.011-.009-.011,.009h0v-.018c-.026-.021-.083-.066-.152-.123l-.039-.032c-.075-.063-.162-.138-.267-.233-.026-.023-.052-.049-.079-.074-.081-.075-.166-.157-.255-.247-.05-.05-.097-.098-.149-.152-.101-.105-.203-.217-.305-.337-.055-.063-.106-.129-.16-.196-.081-.101-.16-.205-.238-.313-.049-.068-.095-.134-.142-.205-.014-.022-.03-.042-.045-.065l.006-.002c-.356-.56-.628-1.188-.628-1.833,0-1.975,.57-2.201,.57-2.201Z" fill="#ffac33"/><path d="M20.05,16.839s1.313,.026,1.619,.365h0c0-.272,.436-.882,.767-.948-.066-.132-.252-.093-.252-.093,0,0,.411-.702,.252-1.034-.16-.332-.782-.318-1.286-.372-.504-.052-.596-.278-.596-.278l.132-.159s-.252-.052-.199-.226c.053-.172-.159-.159-.159-.159,0,0,.159-.159,.092-.304-.066-.146-.212-.186-.212-.186,0,0-.093-.212,0-.278,.092-.066,.305,.186,.305-.066s-.238-.04-.305-.132c-.065-.092,.12-.33-.158-.33s-.093,.239-.16,.332c-.066,.093-.305-.12-.305,.132s.212,0,.305,.066c.093,.066,0,.278,0,.278,0,0-.146,.04-.212,.186-.066,.146,.092,.305,.092,.305,0,0-.212-.014-.16,.16,.053,.172-.199,.226-.199,.226l.132,.159s-.092,.226-.596,.278c-.504,.053-1.127,.04-1.286,.372-.16,.332,.252,1.034,.252,1.034,0,0-.184-.042-.25,.091,.332,.066,.767,.676,.767,.948h0c.306-.337,1.619-.365,1.619-.365Zm.41-2.057c.219,.134,.485,.229,.703,.268,.451,.08,1.18,.239,.318,.809,.014-.199-.092-.358-.092-.358,0,0-.212,.026-.384,.186-.074-.263-.199-.344-.199-.344,0,0-.252,.079-.332,.278-.031-.086-.075-.158-.122-.218,.075-.13,.122-.306,.122-.501,0-.042-.01-.078-.014-.118Zm-1.523,.268c.216-.038,.481-.132,.698-.265-.004,.039-.014,.074-.014,.115,0,.197,.048,.375,.124,.506-.046,.059-.088,.131-.119,.215-.08-.198-.332-.278-.332-.278,0,0-.126,.082-.199,.344-.172-.16-.384-.186-.384-.186,0,0-.106,.159-.092,.358-.863-.57-.134-.73,.317-.809Z" fill="#ffac33"/></g><path d="M17.571,20.778c0,.646,.272,1.274,.628,1.833,.011-.005,.02-.005,.031-.01h-.001v-.002h0c.071-.229,.112-.403,.112-.563v-.967s-.12-.061-.179-.141c-.02-.027-.033-.056-.033-.086v-.358l.212-.08v.002h0v.236l.211-.079v-.212h.16v.226l.186,.04v-.198l.238,.066v.332s-.186,.198-.186,.252v.968c0,.046,.068,.257,.137,.458,.097,.019,.168,.039,.168,.039,0,0,.111-.147,.326-.257,.022-.073,.043-.146,.057-.21,.004-.017,.004-.032,.007-.049,.014-.077,.025-.15,.025-.219v-.968s-.212-.106-.212-.226v-.358l.212-.08h0l.008-.002v.237l.204-.077v-.212h.008v-.002h.16v.226l.186,.04v-.198l.238,.066v.332s-.186,.198-.186,.252v.968c0,.043,.06,.231,.124,.42,.315,.101,.473,.303,.473,.303l.013-.005c.021-.073,.043-.145,.057-.208,.005-.021,.006-.041,.009-.062,.013-.073,.024-.143,.024-.208v-.968s-.212-.106-.212-.226v-.358l.212-.08v.002l.008-.003v.237l.205-.077v-.212l.008,.002v-.003h.159v.226l.186,.04v-.198l.238,.066v.332s-.186,.198-.186,.252v.968c0,.051,.085,.309,.162,.53,.039,.013,.07,.016,.111,.033,.352-.557,.621-1.18,.621-1.822,0-1.975-.57-2.201-.57-2.201,0,0-.275,.332-.668,.198-.393-.133-.95-.57-.95-.57,0,0-.098,.124-.277,.131-.179-.006-.277-.131-.277-.131,0,0-.557,.438-.949,.57-.392,.132-.669-.198-.669-.198,0,0-.57,.226-.57,2.201Zm3.783-1.684c.598,0,.2,.537,.2,.537,0,0-.132-.271-.186-.192-.053,.08,.139,.385,.053,.557l-.086,.172s-.059-.252-.205-.464-.098-.609,.224-.61Zm-1.318-.238c.598,0,.2,.537,.2,.537,0,0-.132-.271-.186-.193-.053,.08,.139,.385,.053,.557-.087,.172-.086,.173-.086,.173,0,0-.059-.252-.205-.464-.146-.212-.098-.609,.224-.61Zm-1.339,.238c.598,0,.2,.537,.2,.537,0,0-.132-.271-.186-.192-.053,.08,.139,.385,.053,.557l-.086,.172s-.059-.252-.205-.464-.098-.609,.224-.61Z" fill="#a0cfeb"/><g><path d="M18.678,20.167l.086-.172c.086-.172-.105-.477-.053-.557,.053-.08,.186,.192,.186,.192,0,0,.398-.538-.2-.537-.322,0-.37,.398-.224,.61s.205,.464,.205,.464Z" fill="#ccd6dd"/><path d="M20.017,19.929s0,0,.086-.173c.087-.172-.105-.477-.053-.557,.053-.079,.186,.193,.186,.193,0,0,.398-.538-.2-.537-.322,0-.37,.398-.224,.61,.146,.212,.205,.464,.205,.464Z" fill="#ccd6dd"/><path d="M21.335,20.167l.086-.172c.087-.172-.105-.477-.053-.557,.053-.08,.186,.192,.186,.192,0,0,.398-.538-.2-.537-.322,0-.37,.398-.224,.61s.205,.464,.205,.464Z" fill="#ccd6dd"/><path d="M21.367,22.474c.117,.01,.25,.04,.401,.093-.077-.221-.162-.479-.162-.53v-.968c0-.053,.186-.252,.186-.252v-.332l-.238-.066v.198l-.186-.04v-.226h-.159v.003l.159,.038v2.082Z" fill="#ccd6dd"/><path d="M20.009,22.169c.016,0,.025-.007,.042-.007,.138,0,.259,.022,.362,.055-.064-.189-.124-.377-.124-.42v-.968c0-.053,.186-.252,.186-.252v-.332l-.238-.066v.198l-.186-.04v-.226h-.16v.002h.118v2.055Z" fill="#ccd6dd"/><path d="M18.553,20.565v-.212h.126v2.129c.17-.017,.307-.007,.407,.013-.069-.201-.137-.412-.137-.458v-.968c0-.053,.186-.252,.186-.252v-.332l-.238-.066v.198l-.186-.04v-.226h-.16v.212l-.211,.079v.002l.212-.08Z" fill="#ccd6dd"/></g><path d="M21.367,22.474c-.275-.022-.446,.032-.469,.042l-.013,.005s-.158-.202-.473-.303c-.104-.033-.224-.055-.362-.055-.016,0-.026,.006-.042,.007-.179,.007-.316,.051-.428,.108-.216,.109-.326,.257-.326,.257,0,0-.071-.02-.168-.039-.101-.02-.238-.029-.407-.013-.138,.014-.287,.047-.45,.119-.011,.005-.02,.005-.031,.01l-.006,.002c.014,.022,.03,.042,.045,.065,.046,.07,.094,.137,.142,.205,.077,.108,.156,.212,.238,.313,.053,.066,.106,.133,.16,.196,.103,.12,.205,.232,.305,.337,.05,.053,.1,.103,.149,.152,.09,.09,.174,.172,.255,.247,.026,.024,.054,.052,.079,.074,.105,.095,.192,.17,.267,.233l.039,.032c.069,.057,.126,.103,.152,.123v.018h0l.011-.009h0l.011,.009h0v-.018l.052-.042c.019-.015,.037-.029,.064-.051,.03-.025,.067-.056,.106-.089,.043-.036,.091-.078,.142-.124,.074-.065,.154-.139,.241-.222,.053-.05,.105-.1,.161-.156,.065-.064,.132-.133,.2-.204,.057-.06,.114-.125,.172-.19,.103-.115,.205-.237,.306-.365,.063-.08,.125-.161,.186-.246,.058-.08,.114-.161,.169-.245,.013-.02,.027-.038,.039-.057h-.005c-.041-.019-.072-.021-.111-.034-.151-.052-.284-.083-.401-.093Z" fill="#8bb273"/><g><path d="M20.474,26.347c.081,.197,.411,.177,.302-.002-.127-.208-.258-.425-.401-.639-.126,.02-.232,.03-.289,.032,.222,.325,.325,.451,.388,.608Z" fill="#658d5c"/><path d="M15.104,20.832s-.238-.132-.238,.08,.053,.305,.053,.305l-.625-.517s-.184,.703,.253,1.101c.438,.398,.703,.544,.703,.544,0,0-.835-.238-.822-.179,.014,.059,.172,.497,.596,.736,.424,.239,.742,.332,.742,.332l-.862,.156s.212,.614,.716,.614,.981-.16,.981-.16c0,0-.358,.292-.464,.517-.106,.226-.411,.252-.411,.252,0,0,.278,.292,.796,.198,.517-.092,.584-.796,1.22-.57,.23,.081,.525,.188,.826,.316,.214,.042,.456,.095,.731,.146-.054-.029-.092-.066-.15-.093-.915-.424-1.061-.544-1.325-.981-.265-.437-.782-.729-.782-.729,0,0,.014-.411-.16-.676-.172-.265-.159-.597-.159-.597,0,0-.212,.113-.16-.301s-.212-.692-.212-.692c0,0,.193-.258,.158-.632-.011-.114-.04-.237-.105-.369,.318-.55,.172-1.174,.172-1.174,0,0,.278-.517,0-1.074-.888,.372-.941,1.551-.941,1.551l-.504-.729s-.424,.278-.318,.796c.106,.517,.08,.63,.08,.63l-.477-.404s-.226,.385-.044,.773c.039,.084,.091,.168,.176,.248,.477,.451,.557,.584,.557,.584Z" fill="#658d5c"/><path d="M19.225,26.345c-.109,.179,.221,.198,.301,.002,.064-.158,.167-.285,.391-.614-.067-.005-.158-.015-.283-.04-.146,.218-.28,.439-.41,.652Z" fill="#658d5c"/><path d="M23.65,20.632s-.265,.278-.212,.692-.159,.301-.159,.301c0,0,.014,.331-.16,.597s-.159,.676-.159,.676c0,0-.518,.292-.782,.729s-.411,.557-1.325,.981c-.073,.034-.122,.08-.188,.117,.253-.04,.483-.09,.691-.136,.328-.144,.654-.261,.903-.35,.636-.226,.703,.477,1.22,.57,.518,.093,.796-.198,.796-.198,0,0-.305-.026-.411-.252-.106-.225-.464-.517-.464-.517,0,0,.477,.16,.981,.16s.716-.614,.716-.614l-.862-.156s.318-.094,.742-.332c.424-.238,.583-.676,.596-.736,.013-.059-.822,.179-.822,.179,0,0,.265-.146,.703-.544,.438-.398,.253-1.101,.253-1.101l-.624,.517s.053-.093,.053-.305-.238-.08-.238-.08c0,0,.08-.133,.557-.584,.085-.08,.137-.164,.176-.248,.182-.387-.044-.773-.044-.773l-.477,.404s-.026-.113,.08-.63c.106-.518-.318-.796-.318-.796l-.504,.729s-.053-1.179-.941-1.551c-.278,.557,0,1.074,0,1.074,0,0-.146,.624,.172,1.174-.065,.131-.095,.255-.105,.369-.035,.374,.158,.632,.158,.632Z" fill="#658d5c"/></g><g><path d="M18.313,25.735c-.252,.172-.464,.039-.49-.159-.013-.097-.029-.233-.045-.361-.43,.127-.66,.369-1.4,.044-.04,.198,.278,.504,.278,.504,0,0-.477,.014-.703-.066,.12,.49,.676,.676,1.14,.636,.464-.04,.756-.385,1.293-.265,.493,.11,.854,.247,.828-.473-.381-.088-.672-.016-.902,.141Z" fill="#e1e8ed"/><path d="M21.788,25.735c-.23-.157-.521-.229-.902-.141-.026,.72,.335,.583,.828,.473,.537-.12,.829,.225,1.293,.265s1.021-.146,1.14-.636c-.226,.08-.703,.066-.703,.066,0,0,.318-.305,.278-.504-.739,.325-.97,.083-1.399-.044-.016,.128-.032,.264-.045,.361-.026,.199-.238,.332-.49,.159Z" fill="#e1e8ed"/></g><path d="M20.391,24.75c-.114,.011-.222,.031-.341,.031s-.227-.02-.341-.031c-.141-.014-.279-.024-.41-.048-.275-.051-.517-.104-.731-.146-.235-.045-.44-.073-.573-.013-.358,.159-.292,.212-.265,.344,.013,.068,.03,.194,.047,.328,.016,.129,.032,.264,.045,.361,.026,.198,.238,.332,.49,.159,.23-.157,.52-.229,.902-.141,.036,.008,.068,.01,.106,.021,.118,.036,.221,.06,.313,.078,.125,.025,.216,.035,.283,.04,.066,.005,.112,.006,.112,.006,0,0,.02,0,.057,0,.057-.002,.163-.012,.289-.032,.116-.018,.248-.044,.405-.091,.038-.011,.07-.013,.106-.021,.382-.089,.672-.017,.902,.141,.252,.172,.464,.04,.49-.159,.013-.097,.029-.233,.045-.361,.017-.134,.034-.26,.047-.328,.026-.132,.093-.185-.266-.344-.166-.074-.431-.024-.752,.047-.208,.046-.438,.096-.691,.136-.087,.014-.181,.016-.272,.025Zm1.219,.137c0,.082-.162,.407-1.656,.407s-1.605-.327-1.605-.407c0-.081,.244,.18,1.738,.18s1.524-.26,1.524-.18Z" fill="#f5f8fa"/><g><path d="M21.367,22.474v-2.082l-.159-.038-.008-.002v.212l-.205,.077-.008,.003v-.239l-.212,.08v.358c0,.12,.212,.226,.212,.226v.968c0,.065-.011,.136-.024,.208-.004,.021-.005,.04-.009,.062-.014,.063-.035,.135-.057,.208,.023-.01,.193-.064,.469-.042Z" fill="#99aab5"/><path d="M20.009,22.169v-2.055h-.126v.212l-.204,.077-.008,.003v-.237h0l-.212,.078v.358c0,.12,.212,.226,.212,.226v.968c0,.069-.011,.142-.025,.219-.003,.017-.004,.032-.007,.049-.014,.064-.035,.137-.057,.21,.112-.057,.249-.101,.428-.108Z" fill="#99aab5"/><path d="M18.679,22.482v-2.129h-.126v.212l-.212,.08v-.239h0l-.211,.08v.358c0,.029,.013,.058,.033,.084,.059,.08,.177,.14,.179,.141h0v.969c0,.16-.041,.335-.112,.561h0v.002c.163-.072,.312-.105,.451-.119Z" fill="#99aab5"/><path d="M20.086,25.067c-1.493,0-1.738-.261-1.738-.18,0,.081,.111,.407,1.605,.407s1.656-.326,1.656-.407c0-.081-.031,.18-1.524,.18Z" fill="#99aab5"/></g></svg>