<svg id="Layer_1" data-name="Layer 1" xmlns="http://www.w3.org/2000/svg" xmlns:xlink="http://www.w3.org/1999/xlink" viewBox="0 0 40 40"><defs><style>.cls-1{fill:none;}.cls-2{clip-path:url(#clip-path);}.cls-3{fill:#5479bb;}.cls-4{clip-path:url(#clip-path-2);}.cls-5{fill:#e5e8eb;}</style><clipPath id="clip-path"><rect id="SVGID" class="cls-1" x="1.426" y="9.018" width="37.149" height="21.964" rx="4"/></clipPath><clipPath id="clip-path-2"><rect id="SVGID-2" data-name="SVGID" class="cls-1" x="1.426" y="9.018" width="37.149" height="21.964"/></clipPath></defs><g class="cls-2"><rect class="cls-3" x="1.426" y="9.018" width="37.149" height="21.964"/><g class="cls-4"><path class="cls-5" d="M11.755,19.579a1.091,1.091,0,0,1-.177-.718c-.089,0-.106.017-.156,0s-.07.331-.237.264c-.028-.034.119-.283-.04-.388-.052-.034.012-.237-.01-.328,0,0-.2.107-.353-.268-.075-.1-.178.089-.178.089s.045.115-.036.143c-.114-.084-.2-.04-.34-.156s.031-.248-.244-.346c.178-.449.178-.359.62-.539a1.05,1.05,0,0,1-.442-.448,2.231,2.231,0,0,1-.62-.359,3.651,3.651,0,0,1-.531-1.975c.223-.21.531.718.973.988l.62.27a4.87,4.87,0,0,1,.708.537l.8.27c.355.269.531.628.8.717.289,0,.344-.167.437-.178.52-.027.785-.095.89-.253.1-.126.356.072,1.064-.2l-.088-.359a.527.527,0,0,1,.442-.09c-.006-.163-.022-.6.229-.8-.153-.161-.051-.278-.051-.278a.756.756,0,0,0,.158-.21c-.074-.395.065-.4.1-.518s-.121-.076-.078-.236.3-.2.333-.331-.073-.2-.067-.23a1.479,1.479,0,0,0,0-.539c.476-.129.631-.521.8-.358.088-.54.178-.718.709-.718.075-.166-.194-.306-.089-.36.177-.023.313-.011.521.262.065.085.077-.127.143-.149s.226-.023.249-.129a1.876,1.876,0,0,1,.15-.432c.074-.146.132.056.2.342a9.734,9.734,0,0,1,1.572.2c.266.07.442-.07.7-.1.188.191.366.048.464.454.141.219.372.02.421.084.3.828,1.314.27,1.392.284.129,0,.29.37.391.36.165-.028.119-.143.264-.1-.039.311.285.67.285.9a.137.137,0,0,0,.152-.029c.073-.069.141-.247.205-.242.155.022.218.042.4.073.48.167.724.2.911.29.086.161.17.242.346.214.145.1.039.228.126.236.176-.09.234-.188.412-.1a1.073,1.073,0,0,1,.442.448,3.289,3.289,0,0,0,0,.988,1.715,1.715,0,0,0,.257.629c-.052.316.238.848.238.984,0,.178-.14.271-.229.451.353.269,0,.717-.177.987,1.328.269.708.808,1.772.538-.267.628-.172.577.093,1.206-.531.359-.012.469-.366.917a.64.64,0,0,0,.538.391c-.09.717-.355.448-.265,1.525-.7-.014-.416.8-.886.718.026.513.267.557.176,1.077-.354.089-.354.089-.532.359l-.264-.089c-.089.448-.266.537,0,.986,0,0-.343.012-.443,0-.009.154.152.2.177.36a1.569,1.569,0,0,1-.885.359c-.1.221.266.456.243.569-.415.081-.6.6-.6.6s.214.087.178.18a.468.468,0,0,0-.353-.09.587.587,0,0,0-.512.348c-.228.075-.334.048-.507.28-.076-.22-.185,0-.319.088s-.316.3-.339.287a2.462,2.462,0,0,1,.082-.286L24.062,29l-.055,0c-.035,0-.026-.263-.109-.252s-.325.333-.406.344-.108-.1-.178-.094-.208.342-.257.351-.248-.2-.418-.173c-.871.312-1.009-.614-1.145-.092-.182-.1-.151-.041-.336.008-.118.032-.13-.157-.235-.156-.21.006-.2.208-.315.148-.094-.421-.661-.345-.716-.525s.246-.186.34-.312c.072-.183-.075-.252.217-.429.38-.262.161-.36.228-.556a.6.6,0,0,0,.021-.6,4.9,4.9,0,0,0-.355-.808c-.176-.051-.176.3-.438.393-.53.179-1.468-.455-1.632-.455-.149,0-.84.167-.815-.183-.1.34-.484.08-.508.08-.353,0-.218.278-.455.266-.109-.036-1.2-.1-1.2-.1v.18l-.708-.359-.619-.18c-.532-.179-.266-.628-1.151-.359V24.6h-.443c.177-1.076,0-.538-.089-1.525l-.354.09c-.354-.485.493-.393-.265-.718,0,0,.013-.536-.178-.359-.039.022.089.269.089.269-.709-.089-.885-.269-.885-.987,0,0,.584.084.53,0a4.56,4.56,0,0,1-.172-1.068c-.007-.118.544-.416.436-.7a1.248,1.248,0,0,1,.268-.028Z"/><path class="cls-5" d="M29.767,22.4a.043.043,0,0,1-.037-.02.214.214,0,0,1-.01-.2.041.041,0,0,1,.044-.026.044.044,0,0,1,.04.033.181.181,0,0,1,0,.2.043.043,0,0,1-.037.02Z"/><path class="cls-5" d="M8.864,15.737h0a.055.055,0,0,1-.049-.041.135.135,0,0,1,.017-.122.151.151,0,0,1,.124-.053.08.08,0,0,1,.055.032c.008.017.019.038.009.054-.046.032-.076.043-.1.1a.057.057,0,0,1-.051.033Z"/><path class="cls-5" d="M8.864,15.462H8.859a.057.057,0,0,1-.048-.042.145.145,0,0,1,.014-.13.169.169,0,0,1,.147-.049h0a.08.08,0,0,1,.057.021c.011.014.027.032.022.049a.078.078,0,0,1-.046.043.144.144,0,0,0-.09.076.058.058,0,0,1-.051.032Z"/><path class="cls-5" d="M9.6,17.071a.054.054,0,0,1-.049-.031.214.214,0,0,0-.064-.087.077.077,0,0,1-.011-.065c.008-.017.015-.039.034-.04a.145.145,0,0,1,.125.051.143.143,0,0,1,.019.13.057.057,0,0,1-.048.042Z"/></g></g></svg>