<?xml version="1.0" encoding="UTF-8"?><svg id="a" xmlns="http://www.w3.org/2000/svg" viewBox="0 0 40 40"><path d="M34.005,19.974H5.995c-.179,0-.351,.03-.524,.053h29.056c-.173-.023-.344-.053-.524-.053Z" fill="none"/><g><rect x="2" y="8" width="36" height="24" rx="4" ry="4" fill="#233990"/><rect x="2" y="23.682" width="36" height="1.827" fill="#e3e7ea"/><rect x="2" y="20.026" width="36" height="1.828" fill="#e3e7ea"/><rect x="2" y="21.854" width="36" height="1.828" fill="#cf002e"/><g><polygon points="12.03 26.108 11.785 26.865 10.996 26.865 11.634 27.333 11.391 28.091 12.03 27.623 12.668 28.091 12.424 27.333 13.064 26.865 12.274 26.865 12.03 26.108" fill="#f9cf00"/><polygon points="15.224 27.155 14.98 27.912 14.191 27.912 14.829 28.38 14.586 29.138 15.224 28.669 15.863 29.138 15.619 28.38 16.258 27.912 15.469 27.912 15.224 27.155" fill="#f9cf00"/><polygon points="18.419 26.108 18.175 26.865 17.385 26.865 18.024 27.333 17.78 28.091 18.419 27.623 19.058 28.091 18.814 27.333 19.453 26.865 18.663 26.865 18.419 26.108" fill="#f9cf00"/><polygon points="15.224 16.188 14.98 16.946 14.191 16.946 14.829 17.414 14.586 18.172 15.224 17.703 15.863 18.172 15.619 17.414 16.258 16.946 15.469 16.946 15.224 16.188" fill="#f9cf00"/><polygon points="12.03 17.235 11.785 17.993 10.996 17.993 11.634 18.461 11.391 19.219 12.03 18.75 12.668 19.219 12.424 18.461 13.064 17.993 12.274 17.993 12.03 17.235" fill="#f9cf00"/><polygon points="10.055 19.977 9.811 20.734 9.021 20.734 9.66 21.203 9.416 21.96 10.055 21.492 10.694 21.96 10.449 21.203 11.088 20.734 10.299 20.734 10.055 19.977" fill="#f9cf00"/><polygon points="10.055 23.366 9.811 24.123 9.021 24.123 9.66 24.592 9.416 25.349 10.055 24.881 10.694 25.349 10.449 24.592 11.088 24.123 10.299 24.123 10.055 23.366" fill="#f9cf00"/><polygon points="20.394 19.977 20.15 20.734 19.36 20.734 19.999 21.203 19.755 21.96 20.394 21.492 21.033 21.96 20.789 21.203 21.428 20.734 20.638 20.734 20.394 19.977" fill="#f9cf00"/><polygon points="20.394 23.366 20.15 24.123 19.36 24.123 19.999 24.592 19.755 25.349 20.394 24.881 21.033 25.349 20.789 24.592 21.428 24.123 20.638 24.123 20.394 23.366" fill="#f9cf00"/><polygon points="18.419 17.235 18.175 17.993 17.385 17.993 18.024 18.461 17.78 19.219 18.419 18.75 19.058 19.219 18.814 18.461 19.453 17.993 18.663 17.993 18.419 17.235" fill="#f9cf00"/></g></g></svg>