<?xml version="1.0" encoding="UTF-8"?><svg id="a" xmlns="http://www.w3.org/2000/svg" viewBox="0 0 40 40"><rect x="2" y="8" width="36" height="24" rx="4" ry="4" fill="#fd0032"/><g><polygon points="11.293 16.982 2 16.982 2 18.491 11.293 18.491 12.808 18.491 12.808 16.982 12.808 8 11.293 8 11.293 16.982" fill="#e3e7ea"/><polygon points="17.357 16.982 17.357 8 15.841 8 15.841 16.982 15.841 18.491 17.357 18.491 38 18.491 38 16.982 17.357 16.982" fill="#e3e7ea"/><polygon points="2 21.509 2 23.018 11.293 23.018 11.293 32 12.808 32 12.808 23.018 12.808 21.509 11.293 21.509 2 21.509" fill="#e3e7ea"/><polygon points="15.841 21.509 15.841 23.018 15.841 32 17.357 32 17.357 23.018 38 23.018 38 21.509 17.357 21.509 15.841 21.509" fill="#e3e7ea"/></g><polygon points="17.357 18.491 15.841 18.491 15.841 16.982 15.841 8 12.808 8 12.808 16.982 12.808 18.491 11.293 18.491 2 18.491 2 21.509 11.293 21.509 12.808 21.509 12.808 23.018 12.808 32 15.841 32 15.841 23.018 15.841 21.509 17.357 21.509 38 21.509 38 18.491 17.357 18.491" fill="#1d3386"/></svg>