<?xml version="1.0" encoding="UTF-8"?><svg id="a" xmlns="http://www.w3.org/2000/svg" viewBox="0 0 40 40"><g><path d="M36.43,8.841l-.013-.009c-.142-.109-.295-.205-.45-.295-.052-.03-.104-.058-.157-.085-.135-.07-.275-.133-.418-.188-.109-.042-.221-.072-.334-.104-.107-.03-.212-.064-.322-.085-.237-.046-.48-.074-.731-.074h-10.617v8.069l13.043-7.229Z" fill="#2e2c7b"/><path d="M16.957,16.069V8H5.995c-.249,0-.49,.03-.727,.074-.073,.013-.143,.033-.214,.051-.163,.04-.322,.089-.477,.148-.076,.029-.153,.058-.227,.091-.162,.074-.316,.159-.466,.253-.048,.03-.099,.054-.146,.086l-.01,.006,13.228,7.361Z" fill="#2e2c7b"/><polygon points="38 16.678 38 12.728 30.916 16.678 38 16.678" fill="#2e2c7b"/><polygon points="38 27.712 38 23.806 30.916 23.806 38 27.712" fill="#2e2c7b"/><path d="M4.14,31.523l.023,.011c.183,.095,.375,.174,.572,.243,.112,.039,.225,.077,.342,.106,.081,.02,.165,.034,.248,.049,.218,.04,.44,.068,.671,.068h10.962v-7.585l-12.818,7.108Z" fill="#2e2c7b"/><path d="M23.387,24.415v7.585h10.617c.237,0,.466-.029,.69-.07,.086-.016,.171-.034,.255-.056,.124-.031,.244-.07,.363-.113,.229-.083,.451-.181,.66-.301,.027-.015,.056-.027,.083-.043l-12.667-7.003Z" fill="#2e2c7b"/><polygon points="2 23.806 2 27.943 9.429 23.806 2 23.806" fill="#2e2c7b"/><polygon points="2 12.533 2 16.678 9.429 16.678 2 12.533" fill="#2e2c7b"/></g><g><path d="M24.177,16.678h2.875l10.726-5.94-.004-.009c-.072-.214-.162-.417-.266-.612l-.024-.045c-.106-.191-.226-.373-.362-.544l-.01-.015-12.936,7.165Z" fill="#d00032"/><path d="M29.278,23.806h-2.875l11.078,6.132,.009-.021c.107-.194,.199-.396,.272-.607,.005-.015,.009-.031,.014-.046,.072-.213,.128-.433,.163-.662v-.003l-8.662-4.794Z" fill="#d00032"/><path d="M11.517,16.678h2.876L2.514,10.071l-.008,.019c-.107,.195-.198,.399-.272,.611-.005,.014-.009,.029-.013,.043-.072,.215-.127,.437-.161,.667v.003l9.457,5.263Z" fill="#d00032"/><path d="M16.618,23.806h-2.875L2.556,30.006l.008,.011c.115,.195,.245,.377,.39,.548l.031,.038c.146,.169,.307,.325,.48,.468l.017,.016,13.136-7.28Z" fill="#d00032"/><polygon points="22.101 8 18.243 8 18.243 18.104 2 18.104 2 22.38 18.243 22.38 18.243 32 22.101 32 22.101 22.38 38 22.38 38 18.104 22.101 18.104 22.101 8" fill="#d00032"/></g></svg>