<?xml version="1.0" encoding="UTF-8"?><svg id="Layer_1" xmlns="http://www.w3.org/2000/svg" viewBox="0 0 40 40"><g><path d="m23.692,25.263s0-.396.357-.693c.357-.299.594-.24.594-.24,0,0,0-.495.336-.771.337-.276.574-.295.574-.295,0,0,0-.376.177-.573.18-.199.456-.417.456-.417,0,0-.16-.456.079-.791.236-.337.415-.299.395-.358-.02-.059-.159-.357-.178-.708-.019-.357.298-.535.298-.535,0,0-.317-.693-.298-.95.02-.258.159-.555.159-.555,0,0-.219-.218-.298-.514-.078-.297.039-.515.039-.515,0,0-.454-.138-.513-.455-.061-.316.059-.495.059-.495,0,0-.357-.119-.496-.396-.138-.277-.177-.555-.177-.555,0,0-.219,0-.593-.119-.378-.119-.299-.455-.299-.455,0,0-.236-.04-.475-.159-.237-.118-.218-.277-.218-.277,0,0-.554.1-.89-.079-.338-.178-.378-.495-.378-.495,0,0-.156.157-.375.118-.219-.04-.257-.258-.257-.258,0,0-.298.119-.614.041-.317-.08-.278-.376-.278-.376,0,0-.178.139-.613.219-.435.079-.496-.198-.496-.198,0,0-.316.257-.712.336-.396.08-.555-.157-.555-.157,0,0-.159.138-.575.277-.416.139-.514,0-.514,0,0,0-.138.316-.416.495-.277.177-.613.079-.613.079,0,0,.041.237-.316.495-.357.257-.634.218-.634.218,0,0-.021.296-.239.535-.218.238-.673.218-.673.218,0,0,.098.218-.1.455-.198.236-.416.296-.416.296,0,0,.041.296-.059.573-.098.278-.357.437-.357.437,0,0,.119.138.041.396-.08.257-.278.416-.278.416,0,0,.218.357.178.693-.041.336-.337.475-.337.475,0,0,.239.1.239.495,0,.397-.08.634-.08.634,0,0,.396.177.455.534.06.358-.197.397-.197.397,0,0,.316.059.395.358.08.295,0,.593,0,.593,0,0,.416-.061.594.277.178.337-.079.495-.079.495,0,0,.574-.039.673.316.098.357-.059.416-.059.416,0,0,.277-.021.375.176.1.2-.118.319-.118.319,0,0,.376-.119.773.138.395.255.316.516.316.516,0,0,.611-.152.961.104.064-.528.135-1.118.209-1.739l-.873.645,1.239-3.716c0-.008.002-.016.003-.024l-3.201-2.288,3.474-.008c.019-.157.034-.284.041-.336.081-.606.174-.962.609-.962h.231l.005-.015c-.13,0-.237.002-.301.002-.263,0-.512-.064-.686-.66-.515-1.768-.094-2.071.448-2.071,1.016,0,1.769.026,2.296.026s1.056.171,1.056.66-.263.66-.263.66c0,0,.105.368-.066.766-.165.377-.456.582-.953.6l.01.032h.215c.225,0,.424,0,.448.634.004.085.028.325.065.664l3.626.009-3.205,2.291,1.246,3.738-1.037-.766c.093.757.181,1.478.259,2.112.164-.117.351-.24.556-.339.535-.258.793-.059.793-.059Z" fill="#206fba"/><path d="m34.005,8H5.995c-2.207,0-3.995,1.789-3.995,3.996v16.009c0,2.207,1.789,3.996,3.995,3.996h28.009c2.207,0,3.995-1.789,3.995-3.996V11.996c0-2.207-1.789-3.996-3.995-3.996Zm-4.81,12.372c.02.376-.217.731-.217.731,0,0,.157.477-.02.932-.17.432-.441.646-.467.665-.002.003-.005.01-.007.013.007.016.132.319-.08.667-.218.355-.476.316-.476.316,0,0,.042.515-.316.833-.357.316-.554.218-.554.218,0,0,.139.198-.021.397-.158.197-.592.415-.592.415,0,0,.098.16-.178.416-.278.256-.773.256-.773.256,0,0,.098.555-.435.814-.535.255-.812.078-.812.078,0,0,.039.257-.475.535-.34.183-.864.15-1.184.106.037.618-.488.697-.488.697,0,0-.158.305-.884.514-.726.211-.99.132-1.24.066-.25-.066-.528-.145-.884,0-.357.145-.674.107-.978-.052-.303-.157-.33-.397-.33-.397,0,0-.198-.053-.435-.236-.108-.083-.159-.224-.182-.379-.575.012-1.068-.165-1.313-.558,0,0-.534.122-.871-.236-.337-.357-.119-.653-.119-.653,0,0-.514.159-.653-.514,0,0-.811.178-.851-.555,0,0-.396-.139-.257-.555,0,0-.317.138-.634-.235-.316-.379-.138-.497-.138-.497,0,0-.396-.119-.278-.456,0,0-.416,0-.534-.454-.119-.456.079-.636.079-.636,0,0-.475-.156-.475-.512,0-.358.237-.496.237-.496,0,0-.653-.22-.634-.594.02-.376.316-.555.316-.555,0,0-.298-.177-.258-.633.021-.234.119-.392.21-.493.04-.058.078-.112.111-.169-.105-.061-.33-.243-.361-.684-.039-.563.374-.762.391-.769,0-.008,0-.016,0-.025-.017-.056-.138-.485.084-.929.239-.475.555-.614.555-.614,0,0-.218-.277,0-.832.218-.555.594-.574.594-.574,0,0-.06-.198.297-.673.333-.443.603-.405.639-.397.005-.004.01-.007.015-.011,0-.035.019-.414.454-.641.445-.232.716-.032.728-.022.001,0,.002-.002.003-.003-.005-.015-.087-.26.278-.509.269-.185.534-.154.665-.123.038-.009.07-.017.096-.022.021-.108.119-.464.524-.548.02-.004.034-.002.053-.005h0s0,0,0,0c.441-.076.719.064.719.064,0,0,.039-.316.514-.534.476-.219.891.02.891.02,0,0,.218-.257.614-.277.039-.002.084.002.129.007.221-.197.561-.27.815-.138.174.089.4.185.637.264.228-.124.509-.253.694-.253.356,0,.515.357.515.357,0,0,.218-.139.514-.119.298.02.634.416.634.416,0,0,.356-.178.712-.059.357.119.594.396.535.614,0,0,.83-.078,1.128.119.297.197.475.632.376.871,0,0,.613-.178.891.098.274.278.177.93.177.93,0,0,.555-.04.871.278.224.224.248.502.244.649.049.048.09.101.12.159.109.057.261.164.369.38.18.357-.079.614-.079.614,0,0,.278-.02.456.178.178.198.059.515.059.515,0,0,.317.138.298.514-.018.376-.178.555-.178.555,0,0,.475.355.496.85.019.459-.275.77-.32.814.036.06.072.12.092.19.066.123.139.298.149.5Z" fill="#206fba"/></g><g><path d="m19.647,12.149s-.11.093-.263.147c.06.01.116.027.183.027.101,0,.212-.014.325-.032-.167-.038-.245-.142-.245-.142Z" fill="#b58fe5"/><path d="m18.763,11.557c0,.117.022.218.054.308.082-.083.247-.221.443-.203.278.026.33.118.33.118,0,0,.132-.17.435-.145.303.027.383.159.383.159,0,0,.158-.132.422-.105.127.013.234.065.313.116.373-.248,1.023-.143,1.023-.143,0,0-.25-.382-.764-.316-.296.038-.64-.037-.96-.144-.237-.079-.462-.175-.637-.264-.254-.132-.594-.059-.815.138-.135.12-.226.286-.226.481Z" fill="#b58fe5"/><path d="m26.65,15.215c.015.021.034.035.044.062.091.236.091.448.091.448,0,0,.278.067.383.33.105.265.039.437.039.437,0,0,.2.076.282.34.398.255.797.757.972,1.019.185.278.211.067.185-.145-.027-.211-.225-.712-.397-.923-.17-.211-.277-.738-.29-.989-.008-.126-.015-.345-.108-.532-.029-.058-.071-.111-.12-.159-.106-.105-.26-.179-.498-.179-.197,0-.43.1-.585.292Z" fill="#b58fe5"/><path d="m28.396,19.383c-.116,0-.253.059-.383.14-.006.179-.08.295-.252.306-.02.001-.04-.009-.06-.013-.064.099-.11.205-.11.318,0,.112.025.226.061.34.01.031.024.062.036.093.03.081.062.161.101.24.038-.491,0-.831,0-.831,0,0,.037.07.082.161-.01-.057-.017-.096-.017-.096,0,0,.449.58.423,1.031-.01.164-.055.334-.101.503.078.282.068.581.089.79.028.279.145.449.145.449,0,0,.033-.039.075-.101.002-.003.005-.01.007-.013.033-.05.069-.107.102-.19.08-.198.041-.778.146-1.188.105-.408.344-.751.344-1.161,0-.1-.013-.198-.038-.289-.02-.07-.055-.131-.092-.19-.108-.175-.282-.299-.557-.299Z" fill="#b58fe5"/><path d="m11.655,20.736c.006,0,.011.002.017.003.034-.203.081-.374.113-.48-.029.094-.071.227-.111.337-.012.033-.015.088-.02.14Z" fill="#b58fe5"/><path d="m11.485,20.702c.11-.295.335-.556.335-.556,0,0-.006.02-.015.051.007-.021.017-.05.017-.05,0,0,0,.333.01.619.125-.002.23-.033.322-.081.018-.009.031-.023.048-.034.201-.128.319-.344.319-.569,0-.15-.098-.392-.219-.637-.041.015-.068.043-.125.043-.105,0-.287-.116-.29-.303-.002-.098.045-.214.09-.305-.056-.084-.113-.169-.156-.222-.225-.278-.278-.713-.383-.964-.105-.251-.303-.462-.303-.462,0,0,0,.225.001.466,0,.008,0,.016,0,.025.002.174.006.354.013.46.013.198-.014.25.027.634.017.169-.018.271-.07.36-.033.057-.072.111-.111.169-.086.126-.167.285-.148.62.017.317.306.611.639.738Z" fill="#b58fe5"/><path d="m14.477,14.531c.005,0,.011-.002.016-.002.03-.047.06-.094.086-.146-.046.009-.079.01-.079.01,0,0-.005.061-.023.138Z" fill="#b58fe5"/><path d="m12.995,14.183c0,.254.115.622.466.763.116-.062.228-.079.228-.079,0,0-.025-.251.119-.475.146-.226.462-.212.462-.212,0,0-.079-.238.185-.436.195-.146.36-.134.434-.117.018-.051.036-.099.053-.147.003-.014.011-.028.015-.042.005-.015.011-.032.017-.046.237-.635.698-1.042.698-1.042l-.052-.015s-.032.005-.077.014c-.027.005-.059.013-.096.022-.207.052-.552.174-.763.439-.055.069-.115.133-.18.192-.001,0-.002.002-.003.003-.175.161-.391.29-.688.386-.178.057-.35.159-.494.277-.005.004-.01.007-.015.011-.18.151-.309.33-.309.504Z" fill="#b58fe5"/></g><g><path d="m19.178,16.981h-.231c-.435,0-.528.357-.609.962-.007.052-.022.179-.041.336h.466s.415-1.298.415-1.298Z" fill="#8c8a8c"/><path d="m20.714,16.948c.497-.018.788-.222.953-.6.171-.397.066-.766.066-.766,0,0,.263-.173.263-.66s-.527-.66-1.056-.66-1.28-.026-2.296-.026c-.542,0-.964.303-.448,2.071.174.596.423.66.686.66.064,0,.171,0,.301-.002l.769-2.405.763,2.387Z" fill="#8c8a8c"/><path d="m21.453,18.279c-.037-.339-.062-.579-.065-.664-.024-.634-.224-.634-.448-.634h-.215l.414,1.297h.314Z" fill="#8c8a8c"/><path d="m18.024,20.575c0,.008-.002.016-.003.024l.007-.021-.004-.003Z" fill="#8c8a8c"/><path d="m22.557,27.44c-.019-.162-.046-.386-.078-.653-.039-.319-.085-.698-.137-1.126-.078-.634-.166-1.354-.259-2.112l-2.132-1.575-2.297,1.696c-.074.621-.145,1.21-.209,1.739-.066.542-.123,1.003-.167,1.352-.045.354-.076.593-.087.647,0,.001-.001.009-.002.01-.036.166-.051.373-.024.559.023.155.074.296.182.379.237.183.435.236.435.236,0,0,.027.24.33.397.303.159.621.197.978.052.356-.145.634-.066.884,0,.25.066.514.145,1.24-.066.726-.209.884-.514.884-.514,0,0,.525-.079.488-.697,0-.015.002-.026,0-.042-.005-.049-.017-.153-.032-.283Z" fill="#8c8a8c"/></g><g><path d="m27.365,19.381c.014-.238.145-.382.145-.382,0,0-.012-.009-.024-.018-.01.007-.016.014-.027.021-.133.079-.37.013-.462.185-.091.171-.25.29-.25.29,0,0-.053-.528.183-.792.188-.208.294-.267.407-.27.01-.097.022-.167.033-.211-.157-.297-.45-.839-.458-1.156-.006-.014-.016-.026-.02-.04-.053-.198.066-.41.066-.41,0,0-.129-.053-.24-.14.088.436.084.959-.315,1.21,0,0,.079-.475.067-.857-.013-.362-.221-.747-.255-1.078-.026-.027-.054-.053-.075-.085-.119-.185-.08-.41-.08-.41,0,0-.018-.008-.036-.017.004.01.007.023.011.032.065.145-.08.594-.226.752,0,0-.091-.052-.065-.211.024-.159-.305-.488-.317-.633-.012-.125.094-.226.183-.27-.088-.16-.023-.338-.023-.338,0,0-.212-.039-.41-.198-.198-.158-.198-.396-.198-.396,0,0-.045,0-.108-.008.006.068.01.139.001.221-.041.397-.21.647-.21.647,0,0-.108-.131-.094-.303.013-.171.039-.238-.184-.357-.186-.098-.127-.326.029-.457-.085-.113-.094-.219-.094-.219,0,0-.185.027-.437-.093-.043-.02-.074-.046-.107-.072-.104.577-.657.722-.657.722-.013-.16.184-.331.184-.503,0-.126-.035-.316-.007-.466-.065-.002-.136-.011-.217-.038-.278-.093-.264-.316-.264-.316h-.001c.003.126-.045.29-.17.477-.212.317-.542.423-.542.423l.039-.145c.041-.145.199-.291.132-.41-.041-.074-.032-.245.006-.38-.183-.1-.243-.256-.243-.256,0,0-.251.093-.448.039-.025-.007-.045-.021-.068-.031.055.095.094.198.094.312,0,.581-.37.686-.37.686,0,0,.159-.291.08-.659-.056-.259-.316-.438-.557-.455.034.084.055.168.055.243,0,.277-.093.897-.7.897,0,0,.343-.237.343-.699,0-.241-.077-.41-.173-.52-.076.036-.173.07-.287.07-.043,0-.077-.009-.112-.017-.113.018-.224.032-.325.032-.067,0-.123-.017-.183-.027-.004.001-.007.003-.011.005.086.1.133.267.087.497-.079.41-.356.555-.356.555,0,0-.065-.159-.013-.291.053-.132.066-.224-.145-.395-.163-.134-.116-.3.026-.396-.11-.067-.172-.161-.172-.161,0,0-.093.251-.41.33-.316.079-.409-.119-.409-.119,0,0-.089.191-.328.289.178-.025.294.105.329.308.039.224-.291.884-.291.884,0,0-.145-.132-.08-.33.067-.197-.065-.33-.184-.448-.108-.109-.044-.301.128-.384-.214.051-.327-.028-.327-.028,0,0-.018.134-.276.285.071.121.16.32.144.576-.027.409-.316.58-.316.58,0,0,.08-.448-.118-.594-.143-.106-.166-.314-.124-.477-.044-.012-.074-.027-.074-.027,0,0,.014.212-.277.371-.045.025-.081.034-.12.048.039.108.063.251.04.441-.052.436-.29.488-.29.488,0,0,.066-.368-.052-.461-.063-.048-.108-.099-.135-.163-.033.043-.073.086-.129.123-.057.039-.113.063-.165.079.031.035.058.074.073.119.065.198-.08.924-.198,1.082l-.079-.264c-.026-.093.013-.448-.291-.528-.013-.003-.019-.01-.03-.014-.096.069-.178.1-.235.111-.027.051-.057.098-.086.146.123.015.231.093.244.26.027.33-.25.937-.25.937,0,0-.08-.212-.093-.303-.013-.093-.093-.383-.264-.448-.006-.002-.004-.008-.009-.01-.048.021-.089.034-.118.04.054.095.103.258.034.538-.118.488-.264,1.094-.171,1.504,0,0-.33-.396-.291-.792.031-.307.208-.542.244-.774-.182.23-.337.206-.337.206,0,0,.066.223-.079.461-.005.009-.012.012-.017.02.056.346.099.754.07.998-.039.33-.369.593-.369.593,0,0,.198-.422.145-.923-.018-.169-.005-.353.015-.522-.105.073-.2.085-.2.085,0,0,.118.211.013.488-.048.127-.124.2-.192.247.149.016.267.162.246.375-.027.264-.303.792-.303.792,0,0-.053-.105-.093-.237-.033-.112.084-.181.051-.329-.081.261-.329.261-.329.261,0,0,.211.184.158.422-.01.047-.031.068-.046.105.433.037.629.648.629.648,0,0-.185,0-.278-.093-.093-.093-.277-.105-.396-.027-.005.003-.007.003-.012.005.023.169-.027.326-.194.389.122.245.219.486.219.637,0,.225-.118.441-.319.569.402,2.887,2.401,5.185,5.078,6.11.044-.349.101-.81.167-1.352-.35-.257-.961-.104-.961-.104,0,0,.079-.261-.316-.516-.396-.257-.773-.138-.773-.138,0,0,.218-.118.118-.319-.098-.197-.375-.176-.375-.176,0,0,.157-.059.059-.416-.098-.355-.673-.316-.673-.316,0,0,.257-.157.079-.495-.178-.338-.594-.277-.594-.277,0,0,.08-.298,0-.593-.079-.299-.395-.358-.395-.358,0,0,.257-.04.197-.397-.059-.357-.455-.534-.455-.534,0,0,.08-.236.08-.634,0-.395-.239-.495-.239-.495,0,0,.297-.139.337-.475.039-.336-.178-.693-.178-.693,0,0,.198-.159.278-.416.079-.258-.041-.396-.041-.396,0,0,.258-.159.357-.437.1-.277.059-.573.059-.573,0,0,.218-.06.416-.296.198-.238.1-.455.1-.455,0,0,.455.02.673-.218.218-.239.239-.535.239-.535,0,0,.277.039.634-.218.357-.257.316-.495.316-.495,0,0,.336.098.613-.079.278-.178.416-.495.416-.495,0,0,.098.139.514,0,.416-.139.575-.277.575-.277,0,0,.159.237.555.157.396-.079.712-.336.712-.336,0,0,.06.277.496.198.434-.08.613-.219.613-.219,0,0-.039.296.278.376.316.079.614-.041.614-.041,0,0,.038.219.257.258.219.039.375-.118.375-.118,0,0,.039.316.378.495.336.178.89.079.89.079,0,0-.02.159.218.277.239.119.475.159.475.159,0,0-.079.336.299.455.374.119.593.119.593.119,0,0,.039.278.177.555.139.277.496.396.496.396,0,0-.12.178-.059.495.059.317.513.455.513.455,0,0-.117.219-.039.515.079.297.298.514.298.514,0,0-.139.297-.159.555-.02.257.298.95.298.95,0,0-.316.178-.298.535.02.351.159.648.178.708.02.059-.159.021-.395.358-.239.335-.079.791-.079.791,0,0-.277.218-.456.417-.177.197-.177.573-.177.573,0,0-.237.02-.574.295-.336.277-.336.771-.336.771,0,0-.237-.059-.594.24-.357.296-.357.693-.357.693,0,0-.258-.199-.793.059-.206.099-.392.222-.556.339.052.428.099.808.137,1.126,2.77-.926,4.826-3.317,5.173-6.312-.036-.115-.061-.229-.061-.34,0-.113.046-.219.11-.318-.178-.029-.347-.221-.336-.436Z" fill="#fff"/><path d="m14.944,13.48c-.018.048-.035.096-.053.147.026.006.041.012.041.012,0,0-.007-.071.012-.159Z" fill="#fff"/><path d="m17.19,27.419s.001-.009.002-.01c-2.787-1.043-4.814-3.63-5.039-6.723-.092.047-.198.079-.322.081.004.112.009.218.017.293.027.263.594,1.136.673,1.568.079.437-.251.899-.251.899,0,0,.039-.503,0-.766-.022-.148-.222-.504-.392-.872.102.283.197.577.208.794.013.276-.185.447-.185.447,0,0,.041-.408-.225-.897-.205-.379-.291-.951-.25-1.319.008-.071.034-.141.06-.211-.333-.127-.622-.421-.639-.738-.019-.335.062-.493.148-.62-.091.101-.189.26-.21.493-.039.456.258.633.258.633,0,0-.297.178-.316.555-.02.374.634.594.634.594,0,0-.237.138-.237.496,0,.356.475.512.475.512,0,0-.198.179-.079.636.118.454.534.454.534.454-.118.337.278.456.278.456,0,0-.178.118.138.497.316.373.634.235.634.235-.139.416.257.555.257.555.041.733.851.555.851.555.139.673.653.514.653.514,0,0-.218.296.119.653.337.358.871.236.871.236.245.393.737.57,1.313.558-.028-.186-.012-.393.024-.559Z" fill="#fff"/><path d="m14.685,12.809c.212-.265.556-.386.763-.439-.131-.031-.396-.062-.665.123-.365.249-.284.493-.278.509.065-.06.125-.123.18-.192Z" fill="#fff"/><path d="m11.134,17.232s.198.211.303.462c.105.25.159.686.383.964.043.053.1.138.156.222.041-.083.082-.145.082-.145,0,0-.171-.171-.122-.439.019-.094.053-.161.088-.218-.067-.02-.141-.056-.23-.136-.371-.329-.278-.871-.278-.871,0,0,.079.08.171.239.064.109.253.177.412.193.003-.022.001-.042.007-.065.065-.264.356-.343.356-.343,0,0-.105-.185-.014-.462.094-.277.344-.343.344-.343,0,0-.019-.055-.023-.141-.241-.125-.36-.301-.436-.464-.091-.198-.145-.448-.145-.448,0,0,.277.264.434.317.123.04.338-.026.473.039.073-.027.131-.028.131-.028,0,0-.079-.251.053-.462.048-.076.114-.123.18-.158-.352-.142-.466-.51-.466-.763,0-.174.129-.353.309-.504-.036-.007-.307-.045-.639.397-.357.475-.297.673-.297.673,0,0-.376.02-.594.574-.218.555,0,.832,0,.832,0,0-.316.139-.555.614-.222.445-.102.873-.084.929-.002-.241-.001-.466-.001-.466Z" fill="#fff"/><path d="m14.502,13.004c-.012-.01-.284-.209-.728.022-.435.227-.453.606-.454.641.144-.118.317-.22.494-.277.297-.096.513-.225.688-.386Z" fill="#fff"/><path d="m11.654,20.917c.006-.06.009-.121.019-.177-.006,0-.011-.002-.017-.003-.004.054-.005.113-.002.181Z" fill="#fff"/><path d="m27.208,17.375s-.022-.015-.052-.038c.011.024.021.048.033.073.007-.01.019-.035.019-.035Z" fill="#fff"/><path d="m11.149,18.183c-.008-.106-.011-.286-.013-.46-.016.008-.43.206-.391.769.03.441.256.623.361.684.052-.088.088-.19.07-.36-.041-.383-.014-.435-.027-.634Z" fill="#fff"/><path d="m16.123,12.085c-.053.118-.053.277.039.422.045.071.058.109.066.149.074.009.116.035.116.035,0,0,.066-.278.33-.383.264-.105.383-.04.383-.04,0,0,.029-.05.089-.108-.02-.396.403-.774.403-.774,0,0,.053.171-.027.383-.032.086-.012.152.024.211.213-.023.329.051.329.051,0,0,.146-.211.396-.25s.489.146.489.146c0,0,.023-.027.057-.062-.032-.09-.054-.19-.054-.308,0-.195.091-.361.226-.481-.045-.005-.09-.009-.129-.007-.396.02-.614.277-.614.277,0,0-.415-.239-.891-.02-.475.218-.514.534-.514.534,0,0-.278-.14-.719-.064,0,0,.053.171,0,.29Z" fill="#fff"/><path d="m15.674,12.349s-.461.408-.698,1.042c-.005.015-.011.031-.017.046.027-.087.08-.182.197-.247.264-.145.396-.093.396-.093,0,0,.003-.113.187-.258-.219-.488.381-1.044.383-1.046-.019.003-.033.001-.053.005-.405.084-.503.44-.524.548.046-.009.077-.014.077-.014l.052.015Z" fill="#fff"/><path d="m28.25,16.783c.173.211.371.712.397.923.025.212,0,.423-.185.145-.175-.262-.574-.763-.972-1.019.006.02.017.033.021.055.066.317-.026.396-.026.396,0,0,.263.105.277.409.013.302-.105.368-.105.368,0,0,.145.142.235.305.042-.013.071-.035.122-.038.222-.014.434.211.568.382.13.171.197.409.197.409,0,0-.184,0-.251-.105-.053-.085-.395-.056-.659-.137-.035.056-.068.094-.068.094,0,0,.199.239.226.476.003.033-.013.047-.013.076.13-.081.267-.14.383-.14.275,0,.449.123.557.299.045-.044.339-.354.32-.814-.021-.495-.496-.85-.496-.85,0,0,.16-.178.178-.555.02-.376-.298-.514-.298-.514,0,0,.119-.317-.059-.515-.178-.198-.456-.178-.456-.178,0,0,.258-.257.079-.614-.108-.216-.26-.323-.369-.38.094.187.101.406.108.532.013.251.119.778.29.989Z" fill="#fff"/><path d="m12.717,17.205s.007.016.011.027c.003-.01.005-.024.008-.032-.007.001-.02.005-.02.005Z" fill="#fff"/><path d="m22.166,11.662s-.65-.105-1.023.143c.085.055.137.108.137.108,0,0,.277-.146.514-.053.239.093.316.238.316.238,0,0,.077-.026.202-.025-.09-.315.052-.662.052-.662,0,0,.122.119.093.239-.025.118.041.118.159.197.118.079.303.118.316.316.004.059-.018.122-.056.175.024.05.029.089.029.089,0,0,.038-.01.09-.018.078-.402.52-.773.52-.773.013,0,.052.119.013.225-.041.105-.092.184-.065.316.018.1.104.228.113.38.114.106.123.227.123.227,0,0,.182-.025.4.064.026-.088.067-.171.129-.222.249-.198.687-.171,1.017-.052,0,0-.094.211-.277.198-.173-.013-.122.311-.487.409.063-.012.192-.014.377.116.265.184.265.488.265.488,0,0,.092-.031.218.002.108-.19.363-.343.615-.343.316,0,.515.118.515.118,0,0-.014.119-.251.132-.201.012-.255.33-.504.449.039.121.015.21.015.21,0,0,.237.014.435.198.198.184.159.501.159.501,0,0,.075-.002.159.028.009-.009.026-.026.026-.026,0,0-.005.025-.007.036.054.022.105.064.147.125.155-.193.388-.292.585-.292.238,0,.392.075.498.179.004-.146-.019-.424-.244-.649-.316-.317-.871-.278-.871-.278,0,0,.097-.652-.177-.93-.278-.277-.891-.098-.891-.098.098-.239-.08-.674-.376-.871-.298-.197-1.128-.119-1.128-.119.059-.218-.178-.495-.535-.614-.357-.119-.712.059-.712.059,0,0-.336-.396-.634-.416-.296-.02-.514.119-.514.119,0,0-.16-.357-.515-.357-.185,0-.466.129-.694.253.32.107.664.182.96.144.514-.066.764.316.764.316Z" fill="#fff"/><path d="m28.264,22.365c-.02-.209-.01-.508-.089-.79-.081.294-.167.585-.084.829,0,0-.19-.26-.195-.703-.103.271-.219.517-.279.703-.119.37-.17,1.03-.17,1.03,0,0-.132-.41-.105-.767.026-.355.37-1.12.435-1.701.006-.058.007-.104.011-.158-.039-.079-.071-.159-.101-.24-.183,3.177-2.263,5.838-5.131,6.872.015.13.027.234.032.283.002.016-.001.027,0,.042.32.043.844.076,1.184-.106.514-.278.475-.535.475-.535,0,0,.277.177.812-.078.534-.26.435-.814.435-.814,0,0,.495,0,.773-.256.277-.256.178-.416.178-.416,0,0,.434-.218.592-.415.16-.199.021-.397.021-.397,0,0,.197.098.554-.218.358-.317.316-.833.316-.833,0,0,.258.039.476-.316.212-.349.086-.651.08-.667-.042.062-.075.101-.075.101,0,0-.117-.17-.145-.449Z" fill="#fff"/><path d="m28.739,21.322c-.105.41-.066.99-.146,1.188-.033.083-.069.141-.102.19.026-.02.297-.234.467-.665.177-.455.02-.932.02-.932,0,0,.236-.354.217-.731-.011-.202-.083-.377-.149-.5.025.091.038.189.038.289,0,.41-.239.753-.344,1.161Z" fill="#fff"/><polygon points="21.874 20.578 25.079 18.287 21.453 18.279 21.139 18.278 20.725 16.981 20.714 16.948 19.952 14.562 19.183 16.966 19.178 16.981 18.763 18.278 18.297 18.279 14.823 18.287 18.024 20.575 18.028 20.578 18.021 20.6 16.782 24.316 17.655 23.671 19.952 21.975 22.083 23.55 23.121 24.316 21.874 20.578" fill="#fff"/></g><g><path d="m12.495,19.057c-.015-.106-.045-.211-.093-.282,0,0,.087-.098.151-.251.016-.038.036-.058.046-.105.053-.237-.158-.422-.158-.422,0,0,.248,0,.329-.261,0-.001.001-.001.001-.002.067-.225-.015-.44-.042-.501-.005-.01-.011-.027-.011-.027,0,0,.013-.004.02-.005.022-.006.07-.023.132-.065.068-.046.143-.12.192-.247.105-.277-.013-.488-.013-.488,0,0,.095-.012.2-.085.048-.033.095-.079.14-.146.005-.008.012-.012.017-.02.145-.238.079-.461.079-.461,0,0,.155.024.337-.206.002-.003.004-.003.006-.006.185-.238.132-.462.132-.462,0,0,.019-.003.046-.008.029-.006.07-.02.118-.04.059-.025.126-.061.193-.123.096-.089.14-.214.162-.311.018-.077.023-.138.023-.138,0,0,.033,0,.079-.01.057-.011.139-.043.235-.111.019-.013.036-.021.055-.038.198-.173.185-.343.185-.343,0,0,.122.037.284-.014.052-.016.107-.041.165-.079.056-.037.096-.08.129-.123.107-.14.109-.287.109-.287,0,0,.119.057.328-.017.039-.014.075-.023.12-.048.291-.159.277-.371.277-.371,0,0,.03.015.074.027.075.022.204.034.387-.066.012-.006.016-.012.027-.019.258-.151.276-.285.276-.285,0,0,.113.078.327.028.024-.006.043-.006.069-.015.011-.004.018-.01.029-.015.239-.098.328-.289.328-.289,0,0,.093.198.409.119.317-.079.41-.33.41-.33,0,0,.062.094.172.161.058.035.125.064.211.064.067,0,.13-.014.189-.034.004-.001.007-.003.011-.005.153-.054.263-.147.263-.147,0,0,.078.104.245.142.035.008.068.017.112.017.114,0,.212-.034.287-.07-.089-.101-.194-.153-.276-.153-.171,0-.448.052-.448.052,0,0,.087-.074.219-.145h0c-.006-.07.102-.181.32-.178-.002.003-.005.037-.006.078.039-.006.075-.019.116-.019.105,0,.197.042.28.099.046-.01.094-.012.143-.013.07-.105.297-.112.382-.065,0,0-.021.06-.033.123.221.077.421.224.532.417.023.011.043.025.068.031.197.053.448-.039.448-.039,0,0,.06.156.243.256.021.011.037.025.061.035.235.092.471.001.474,0h.001s-.014.223.264.316c.081.027.152.036.217.038.156.006.258-.038.258-.038,0,0,.06.161.222.285.033.025.065.052.107.072.251.119.437.093.437.093,0,0,.009.106.094.219.031.042.072.085.128.124.122.084.244.113.329.124.062.008.108.008.108.008,0,0,0,.239.198.396.198.159.41.198.41.198,0,0-.065.178.023.338.014-.007.029-.016.042-.02.052-.015.086-.005.123.001,0-.002-.002-.002-.003-.004-.047-.09-.076-.208.001-.285.087-.082.229-.003.268.046.056.072.072.178.072.178,0,0-.075.013-.123.046-.03.022-.055.069-.072.103.052.08.078.184.108.263.019.009.036.017.036.017,0,0-.039.225.08.41.021.032.048.059.075.085-.002-.019-.009-.039-.01-.057-.01-.298.216-.534.279-.594-.085-.03-.159-.028-.159-.028,0,0,.039-.317-.159-.501-.198-.184-.435-.198-.435-.198,0,0,.024-.09-.015-.21-.022-.068-.058-.144-.144-.225-.085-.08-.162-.112-.232-.13-.126-.032-.218-.002-.218-.002,0,0,0-.303-.265-.488-.185-.13-.314-.128-.377-.116-.027.005-.045.011-.045.011,0,0-.013-.185-.264-.316-.026-.013-.049-.019-.073-.029-.219-.089-.4-.064-.4-.064,0,0-.009-.121-.123-.227-.041-.038-.094-.075-.168-.103-.176-.066-.323-.058-.413-.044-.052.008-.09.018-.09.018,0,0-.005-.04-.029-.089-.032-.066-.102-.153-.275-.214-.117-.041-.21-.05-.288-.051-.125,0-.202.025-.202.025,0,0-.078-.145-.316-.238-.237-.093-.514.053-.514.053,0,0-.052-.053-.137-.108-.079-.051-.186-.104-.313-.116-.264-.027-.422.105-.422.105,0,0-.08-.132-.383-.159-.303-.025-.435.145-.435.145,0,0-.052-.093-.33-.118-.196-.019-.361.119-.443.203-.034.034-.057.062-.057.062,0,0-.239-.185-.489-.146s-.396.25-.396.25c0,0-.117-.074-.329-.051-.031.003-.058.003-.093.011-.144.035-.243.107-.306.169-.06.058-.089.108-.089.108,0,0-.119-.066-.383.04-.264.105-.33.383-.33.383,0,0-.041-.026-.116-.035-.082-.009-.206.003-.372.1-.051.03-.082.057-.117.085-.183.145-.187.258-.187.258,0,0-.132-.052-.396.093-.118.065-.17.16-.197.247-.005.015-.012.028-.015.042-.019.088-.012.159-.012.159,0,0-.016-.006-.041-.012-.073-.016-.238-.029-.434.117-.264.198-.185.436-.185.436,0,0-.316-.014-.462.212-.145.223-.119.475-.119.475,0,0-.113.017-.228.079-.066.036-.132.082-.18.158-.132.211-.053.462-.053.462,0,0-.058.002-.131.028-.081.029-.182.09-.251.222-.067.127-.079.247-.075.334.004.086.023.141.023.141,0,0-.25.066-.344.343-.091.277.014.462.014.462,0,0-.291.079-.356.343-.006.023-.004.043-.007.065-.033.234.059.423.059.423,0,0-.071.05-.135.152-.036.056-.07.124-.088.218-.05.268.122.439.122.439,0,0-.04.062-.082.145-.045.091-.092.207-.09.305.002.188.184.303.29.303.057,0,.084-.027.125-.043.166-.062.217-.219.194-.389Zm12.667-5.075c.078-.088.197-.049.256.009.059.06.119.201.119.201,0,0-.109.007-.148.052-.039.046-.066.159-.066.159,0,0-.067-.039-.133-.139-.066-.098-.089-.21-.028-.282Zm-.632-.548c.07-.086.173-.066.248-.007.075.059.124.173.124.173,0,0-.078.02-.12.072-.043.052-.043.157-.043.157,0,0-.098-.029-.178-.122-.079-.092-.082-.208-.03-.273Zm-.719-.426c.056-.118.208-.096.284-.046s.124.122.124.122c0,0-.078.023-.115.093-.036.069-.039.191-.039.191,0,0-.116-.036-.195-.109-.078-.072-.098-.163-.059-.25Zm-.752-.412c.052-.093.268-.049.33,0,.063.05.079.093.079.093,0,0-.072.016-.107.093-.032.076-.009.185-.009.185,0,0-.098-.028-.185-.083-.086-.056-.181-.154-.108-.287Zm-.778-.292c.039-.085.138-.083.225-.07.085.015.175.101.175.101,0,0-.053.02-.085.118-.034.1-.008.194-.008.194-.1-.02-.174-.046-.258-.116-.079-.067-.088-.143-.049-.228Zm-.63-.333c.091-.002.227.083.227.083,0,0-.093.066-.105.141-.014.075.025.189.025.189,0,0-.131-.01-.228-.048-.095-.036-.159-.134-.134-.243.02-.089.122-.119.215-.123Zm-2.555-.13c.08-.017.185.006.185.006,0,0-.026.096-.023.152.006.119.072.182.072.182,0,0-.115.06-.25.027-.135-.034-.182-.075-.178-.189.003-.111.116-.162.195-.177Zm-.656.081s-.036.136-.003.214c.034.079.098.129.098.129,0,0-.118.066-.251.066-.131,0-.225-.092-.197-.225.039-.19.353-.184.353-.184Zm-.864.212s-.003.109.05.204c.035.062.098.123.098.123,0,0-.095.089-.261.079-.161-.009-.19-.141-.164-.232.039-.141.277-.174.277-.174Zm-.951.408c.044-.029.173-.063.173-.063,0,0-.006.119.03.175.036.055.135.122.135.122,0,0-.122.086-.221.1-.097.013-.184-.003-.213-.116-.029-.112.05-.188.096-.218Zm-.744.387c.047-.036.147-.068.147-.068,0,0,.009.111.063.182.037.048.142.095.142.095,0,0-.123.151-.273.151-.152,0-.198-.075-.198-.166,0-.089.069-.158.119-.194Zm-3.431,5.427s.007.1-.032.192c-.039.093-.102.194-.22.155-.119-.039-.109-.195-.096-.26.014-.067.036-.123.036-.123,0,0,.059.055.148.062s.164-.027.164-.027Zm2.71-4.936c.042-.03.138-.082.138-.082,0,0,.024.1.076.145.053.046.154.098.154.098,0,0-.125.175-.273.175s-.195-.062-.195-.145.057-.162.1-.191Zm-.532.466s.046.101.089.135c.057.046.149.082.149.082,0,0-.118.164-.255.189-.132.023-.221-.07-.214-.171.008-.132.23-.235.23-.235Zm-.749.739c.041-.069.142-.157.142-.157,0,0,.026.096.095.138.069.044.169.059.169.059,0,0-.108.268-.301.239-.195-.03-.145-.208-.105-.278Zm-.489.647c.037-.046.12-.109.12-.109,0,0,.036.08.098.122.079.052.171.059.171.059,0,0-.109.139-.159.178-.049.041-.195.109-.268-.013-.056-.094,0-.191.036-.238Zm-.445.771c.027-.076.093-.148.093-.148,0,0,.049.08.132.102.082.022.171.022.171.022,0,0-.036.096-.089.173s-.149.119-.248.082c-.08-.029-.086-.155-.059-.23Zm-.375.784c.02-.099.076-.163.076-.163,0,0,.052.068.122.089.07.02.175.023.175.023,0,0-.027.125-.07.189-.043.062-.135.145-.225.105-.089-.039-.098-.148-.079-.243Zm-.069.711c.075.006.168-.014.168-.014,0,0-.009.109-.057.205-.046.095-.132.157-.227.135-.096-.023-.096-.152-.093-.228.003-.075.053-.171.053-.171,0,0,.079.066.155.073Zm-.323,1.831c-.241-.042-.119-.33-.119-.33,0,0,.135.111.291,0,0,0,.105.376-.171.33Z" fill="#de200f"/><path d="m27.801,18.971s.033-.038.068-.094c.047-.075.1-.186.093-.314-.005-.064-.033-.132-.069-.197-.09-.163-.235-.305-.235-.305,0,0,.118-.066.105-.368-.014-.303-.277-.409-.277-.409,0,0,.092-.079.026-.396-.005-.022-.015-.035-.021-.055-.082-.263-.282-.34-.282-.34,0,0,.066-.171-.039-.437-.105-.263-.383-.33-.383-.33,0,0,0-.212-.091-.448-.011-.027-.029-.041-.044-.062-.042-.061-.093-.103-.147-.125-.008.036-.021.11-.03.226.143.036.222.203.222.203,0,0-.137.003-.216.102.012.093.032.189.071.278.054.126.123.33.169.557.111.087.24.14.24.14,0,0-.119.212-.066.41.004.014.015.026.02.04,0-.011-.007-.028-.006-.038.013-.317.184-.674.184-.674,0,0-.016.214-.018.453.011-.018.016-.042.034-.053.108-.065.198.027.244.08.046.052.076.195.076.195,0,0-.12.002-.173.036-.052.032-.12.138-.12.138,0,0-.029-.056-.057-.118.005.086.038.178.079.274.03.023.052.038.052.038,0,0-.012.025-.019.035.034.069.072.141.114.214.012-.055.04-.103.114-.135.116-.049.206.063.221.146.013.082.022.205.022.205,0,0-.056-.027-.155,0-.03.008-.044.018-.064.028.083.15.157.306.207.469.122-.004.169.102.172.198.002.112-.003.166-.003.166,0,0-.051-.009-.112-.003-.003.087-.016.175-.046.264,0,0-.027-.095-.068-.22-.035.026-.06.052-.06.052,0,0-.046-.107-.064-.208-.007-.047-.002-.097.015-.14-.031-.077-.064-.154-.1-.223-.003-.005-.007-.014-.01-.019-.011.045-.023.114-.033.211-.005.046-.01.091-.013.15-.01.255.112.377.161.417.012.01.024.018.024.018,0,0-.131.145-.145.382-.011.214.158.406.336.436.02.003.04.014.06.013.172-.011.245-.127.252-.306,0-.029.017-.043.013-.076-.027-.237-.226-.476-.226-.476Zm-.915-2.679c-.07.039-.125.123-.125.123,0,0-.057-.072-.1-.198s.009-.197.058-.235c.109-.087.222-.023.265.046.043.069.082.215.082.215,0,0-.112.009-.181.049Zm.653,3.127c-.013-.091-.006-.228.12-.26.117-.03.229.086.235.178.007.092.003.197.003.197,0,0-.079-.029-.152-.016-.072.014-.164.09-.164.09,0,0-.03-.096-.043-.189Z" fill="#de200f"/></g><g><path d="m19.078,12.208c.135.033.25-.027.25-.027,0,0-.066-.062-.072-.182-.002-.056.023-.152.023-.152,0,0-.105-.023-.185-.006-.079.015-.191.066-.195.177-.003.114.043.155.178.189Z" fill="#ffe301"/><path d="m12.058,19.04s-.122.288.119.33c.277.046.171-.33.171-.33-.155.111-.291,0-.291,0Z" fill="#ffe301"/><path d="m21.569,12.338c.097.037.228.048.228.048,0,0-.039-.114-.025-.189.013-.075.105-.141.105-.141,0,0-.135-.086-.227-.083-.094.003-.196.034-.215.123-.024.109.039.207.134.243Z" fill="#ffe301"/><path d="m13.005,16.274c.098.037.195-.006.248-.082s.089-.173.089-.173c0,0-.089,0-.171-.022-.083-.022-.132-.102-.132-.102,0,0-.066.072-.093.148-.027.075-.021.202.059.23Z" fill="#ffe301"/><path d="m12.874,16.966c.043-.064.07-.189.07-.189,0,0-.105-.003-.175-.023-.069-.021-.122-.089-.122-.089,0,0-.057.065-.076.163-.02.095-.01.204.079.243.089.039.182-.043.225-.105Z" fill="#ffe301"/><path d="m18.283,12.332c.133,0,.251-.066.251-.066,0,0-.065-.05-.098-.129-.032-.079.003-.214.003-.214,0,0-.314-.006-.353.184-.028.133.066.225.197.225Z" fill="#ffe301"/><path d="m13.622,15.523c.05-.039.159-.178.159-.178,0,0-.093-.007-.171-.059-.063-.042-.098-.122-.098-.122,0,0-.083.063-.12.109-.036.046-.091.144-.036.238.073.122.219.053.268.013Z" fill="#ffe301"/><path d="m15.255,13.756c.148,0,.273-.175.273-.175,0,0-.101-.052-.154-.098-.052-.045-.076-.145-.076-.145,0,0-.096.052-.138.082-.043.029-.1.109-.1.191s.046.145.195.145Z" fill="#ffe301"/><path d="m15.761,13.123c0,.09.046.166.198.166.151,0,.273-.151.273-.151,0,0-.105-.047-.142-.095-.053-.071-.063-.182-.063-.182,0,0-.1.032-.147.068-.05.036-.119.104-.119.194Z" fill="#ffe301"/><path d="m12.137,18.321s-.022.055-.036.123c-.013.066-.023.221.096.26.118.039.181-.062.22-.155.039-.093.032-.192.032-.192,0,0-.075.034-.164.027s-.148-.062-.148-.062Z" fill="#ffe301"/><path d="m27.898,19.534s.003-.105-.003-.197c-.006-.093-.118-.208-.235-.178-.126.032-.133.169-.12.26.013.093.043.189.043.189,0,0,.093-.077.164-.09.073-.013.152.016.152.016Z" fill="#ffe301"/><path d="m22.587,12.648s-.026-.095.008-.194c.031-.099.085-.118.085-.118,0,0-.09-.086-.175-.101-.087-.013-.185-.015-.225.07-.039.085-.03.161.049.228.085.07.159.096.258.116Z" fill="#ffe301"/><path d="m27.076,17.06s0,.002,0,.003c.028.062.057.118.057.118,0,0,.068-.105.12-.138.052-.034.173-.036.173-.036,0,0-.03-.142-.076-.195-.046-.053-.137-.145-.244-.08-.019.011-.023.035-.034.053,0,.091,0,.185.004.273Z" fill="#ffe301"/><path d="m27.504,17.84c.1-.027.155,0,.155,0,0,0-.009-.123-.022-.205-.015-.083-.105-.195-.221-.146-.074.031-.101.079-.114.135.045.079.091.16.138.244.02-.01.034-.02.064-.028Z" fill="#ffe301"/><path d="m26.478,15.621c.079-.099.216-.102.216-.102,0,0-.079-.167-.222-.203-.007.092-.008.195.006.305Z" fill="#ffe301"/><path d="m25.988,14.853c.047-.033.123-.046.123-.046,0,0-.016-.106-.072-.178-.038-.05-.181-.129-.268-.046-.078.076-.049.195-.001.285,0,.002.002.002.003.004.062.01.111.038.142.085.017-.035.042-.081.072-.103Z" fill="#ffe301"/><path d="m23.166,12.883c.087.055.185.083.185.083,0,0-.023-.109.009-.185.035-.076.107-.093.107-.093,0,0-.016-.043-.079-.093-.062-.049-.278-.093-.33,0-.073.133.022.232.108.287Z" fill="#ffe301"/><path d="m25.322,14.404s.027-.112.066-.159c.039-.045.148-.052.148-.052,0,0-.06-.141-.119-.201-.059-.058-.178-.097-.256-.009-.061.073-.038.184.028.282.066.1.133.139.133.139Z" fill="#ffe301"/><path d="m24.063,13.367s.003-.122.039-.191c.037-.07.115-.093.115-.093,0,0-.049-.072-.124-.122s-.228-.072-.284.046c-.039.087-.019.178.059.25.079.073.195.109.195.109Z" fill="#ffe301"/><path d="m20.987,12.017c.011-.063.033-.123.033-.123-.085-.047-.312-.04-.382.065.114-.001.233.018.349.058Z" fill="#ffe301"/><path d="m20.105,11.814c-.218-.002-.326.109-.32.178h0c.086-.046.194-.081.313-.1,0-.041.004-.075.006-.078Z" fill="#ffe301"/><path d="m26.719,15.981c-.049.038-.101.109-.058.235s.1.198.1.198c0,0,.056-.083.125-.123.068-.039.181-.049.181-.049,0,0-.039-.146-.082-.215-.043-.07-.156-.133-.265-.046Z" fill="#ffe301"/><path d="m14.612,14.293c.137-.024.255-.189.255-.189,0,0-.093-.036-.149-.082-.043-.035-.089-.135-.089-.135,0,0-.222.103-.23.235-.007.102.082.195.214.171Z" fill="#ffe301"/><path d="m13.985,14.903c.193.029.301-.239.301-.239,0,0-.1-.015-.169-.059-.07-.042-.095-.138-.095-.138,0,0-.102.088-.142.157-.039.07-.089.248.105.278Z" fill="#ffe301"/><path d="m12.292,17.638c-.003.076-.003.205.093.228.095.022.181-.041.227-.135.047-.096.057-.205.057-.205,0,0-.093.02-.168.014-.076-.007-.155-.073-.155-.073,0,0-.05.096-.053.171Z" fill="#ffe301"/><path d="m16.741,12.876c.1-.014.221-.1.221-.1,0,0-.1-.066-.135-.122-.036-.056-.03-.175-.03-.175,0,0-.129.034-.173.063-.046.03-.125.105-.096.218.029.113.116.129.213.116Z" fill="#ffe301"/><path d="m17.463,12.54c.166.01.261-.079.261-.079,0,0-.064-.06-.098-.123-.053-.095-.05-.204-.05-.204,0,0-.237.032-.277.174-.025.09.003.222.164.232Z" fill="#ffe301"/><path d="m27.704,18.696c.062-.006.112.003.112.003,0,0,.006-.053.003-.166-.003-.096-.05-.202-.172-.198.036.117.06.237.056.36Z" fill="#ffe301"/><path d="m24.559,13.708c.08.093.178.122.178.122,0,0,0-.105.043-.157.043-.052.12-.072.12-.072,0,0-.049-.114-.124-.173-.075-.059-.178-.079-.248.007-.052.065-.049.182.03.273Z" fill="#ffe301"/><path d="m27.465,18.584c.017.102.064.208.064.208,0,0,.025-.026.06-.052-.029-.089-.065-.189-.108-.296-.017.043-.022.092-.015.14Z" fill="#ffe301"/></g><g><path d="m22.479,26.788c.032.267.059.49.078.653,2.867-1.034,4.947-3.695,5.131-6.872-.012-.031-.026-.062-.036-.093-.347,2.996-2.403,5.386-5.173,6.312Z" fill="#ffb636"/><path d="m12.201,20.651c-.017.011-.03.025-.048.034.225,3.094,2.252,5.681,5.039,6.723.011-.054.043-.294.087-.647-2.677-.926-4.676-3.224-5.078-6.11Z" fill="#ffb636"/><path d="m12.495,19.057s.007-.002.012-.005c.119-.079.303-.066.396.027.093.093.278.093.278.093,0,0-.195-.611-.629-.648-.063.154-.151.251-.151.251.049.071.079.176.093.282Z" fill="#ffb636"/><path d="m12.729,17.231c.027.061.109.276.042.501,0,0-.001.001-.001.002.033.147-.084.217-.051.329.039.132.093.237.093.237,0,0,.277-.528.303-.792.021-.213-.097-.359-.246-.375-.062.042-.109.06-.132.065-.003.008-.005.022-.008.032Z" fill="#ffb636"/><path d="m12.16,17.927s-.092-.189-.059-.423c-.159-.016-.348-.084-.412-.193-.093-.159-.171-.239-.171-.239,0,0-.093.542.278.871.089.08.162.116.23.136.065-.102.135-.152.135-.152Z" fill="#ffb636"/><path d="m15.739,12.841c.035-.028.066-.055.117-.085.166-.097.289-.109.372-.1-.008-.04-.021-.079-.066-.149-.093-.145-.093-.303-.039-.422.053-.119,0-.289,0-.29h0s0,0,0,0c-.002.002-.602.558-.383,1.046Z" fill="#ffb636"/><path d="m12.846,15.817c.07-.132.17-.192.251-.222-.135-.064-.35.001-.473-.039-.158-.053-.434-.317-.434-.317,0,0,.053.25.145.448.076.162.195.339.436.464-.004-.087.008-.207.075-.334Z" fill="#ffb636"/><path d="m15.055,13.892s.013.17-.185.343c-.019.017-.036.024-.055.038.011.004.017.011.03.014.303.08.265.436.291.528l.079.264c.118-.157.263-.884.198-1.082-.015-.044-.042-.084-.073-.119-.162.051-.284.014-.284.014Z" fill="#ffb636"/><path d="m14.315,14.842c-.067.062-.134.097-.193.123.005.003.003.008.009.01.171.065.251.356.264.448.013.092.093.303.093.303,0,0,.277-.607.25-.937-.013-.167-.121-.245-.244-.26-.005,0-.011.002-.016.002-.023.097-.067.222-.162.311Z" fill="#ffb636"/><path d="m15.74,13.389s-.002.147-.109.287c.028.064.073.115.135.163.118.093.052.461.052.461,0,0,.237-.052.29-.488.023-.19,0-.333-.04-.441-.209.074-.328.017-.328.017Z" fill="#ffb636"/><path d="m16.539,12.981c-.042.163-.019.371.124.477.198.146.118.594.118.594,0,0,.29-.171.316-.58.016-.256-.073-.455-.144-.576-.011.006-.016.012-.027.019-.183.1-.312.088-.387.066Z" fill="#ffb636"/><path d="m17.452,11.991c.035-.008.062-.008.093-.011-.036-.059-.056-.125-.024-.211.08-.212.027-.383.027-.383,0,0-.422.378-.403.774.064-.062.163-.134.306-.169Z" fill="#ffb636"/><path d="m23.407,12.454c.073.028.126.065.168.103-.01-.152-.095-.28-.113-.38-.027-.132.024-.211.065-.316.039-.105,0-.225-.013-.225,0,0-.442.371-.52.773.09-.014.237-.022.413.044Z" fill="#ffb636"/><path d="m22.34,12.716c-.025-.01-.04-.023-.061-.035-.038.135-.047.306-.006.38.067.119-.091.265-.132.41l-.039.145s.33-.105.542-.423c.125-.187.173-.351.17-.477-.003,0-.239.092-.474,0Z" fill="#ffb636"/><path d="m22.875,12.337c.038-.053.06-.116.056-.175-.013-.198-.198-.238-.316-.316-.118-.079-.184-.079-.159-.197.029-.119-.093-.239-.093-.239,0,0-.142.347-.052.662.078,0,.171.01.288.051.173.061.243.148.275.214Z" fill="#ffb636"/><path d="m17.557,12.638c-.173.083-.236.274-.128.384.119.118.251.251.184.448-.065.198.08.33.08.33,0,0,.33-.66.291-.884-.036-.203-.151-.333-.329-.308-.011.004-.017.011-.029.015-.026.009-.045.009-.069.015Z" fill="#ffb636"/><path d="m18.974,12.27c-.143.096-.189.263-.026.396.211.171.198.263.145.395-.052.132.013.291.013.291,0,0,.277-.145.356-.555.045-.229-.001-.396-.087-.497-.058.02-.121.034-.189.034-.087,0-.153-.029-.211-.064Z" fill="#ffb636"/><path d="m24.435,13.192s.018-.006.045-.011c.365-.098.314-.422.487-.409.183.013.277-.198.277-.198-.33-.119-.768-.146-1.017.052-.063.05-.104.134-.129.222.025.01.048.015.073.029.251.131.264.316.264.316Z" fill="#ffb636"/><path d="m24.413,13.701c-.156.13-.216.359-.029.457.224.119.197.185.184.357-.014.173.094.303.094.303,0,0,.169-.25.21-.647.008-.082.005-.154-.001-.221-.085-.011-.207-.04-.329-.124-.057-.039-.097-.082-.128-.124Z" fill="#ffb636"/><path d="m23.554,13.033s-.102.044-.258.038c-.029.15.007.34.007.466,0,.171-.197.343-.184.503,0,0,.553-.145.657-.722-.162-.124-.222-.285-.222-.285Z" fill="#ffb636"/><path d="m26.93,18.684c-.236.264-.183.792-.183.792,0,0,.159-.118.25-.29.093-.173.329-.107.462-.185.011-.006.017-.014.027-.021-.05-.04-.172-.163-.161-.417.003-.059.008-.104.013-.15-.114.004-.22.062-.407.27Z" fill="#ffb636"/><path d="m27.869,18.876c.263.081.605.052.659.137.067.105.251.105.251.105,0,0-.067-.238-.197-.409-.133-.171-.345-.396-.568-.382-.051.003-.08.024-.122.038.036.065.065.132.069.197.007.129-.046.239-.093.314Z" fill="#ffb636"/><path d="m25.715,14.143c.248-.119.302-.437.504-.449.237-.013.251-.132.251-.132,0,0-.199-.118-.515-.118-.252,0-.507.154-.615.343.07.018.147.05.232.13.085.081.122.157.144.225Z" fill="#ffb636"/><path d="m25.916,14.957c-.031-.048-.08-.075-.142-.085-.037-.006-.07-.017-.123-.001-.013.003-.028.013-.042.02-.089.044-.195.145-.183.27.013.146.342.475.317.633-.027.159.065.211.065.211.146-.157.291-.607.226-.752-.004-.009-.007-.022-.011-.032-.03-.079-.055-.183-.108-.263Z" fill="#ffb636"/></g><g><path d="m13.826,15.475s-.004.003-.006.006c-.037.231-.213.467-.244.774-.039.396.291.792.291.792-.093-.41.053-1.017.171-1.504.068-.279.02-.442-.034-.538-.027.006-.046.008-.046.008,0,0,.053.225-.132.462Z" fill="#207900"/><path d="m13.247,16.314c-.019.169-.032.353-.015.522.053.501-.145.923-.145.923,0,0,.33-.263.369-.593.029-.244-.014-.652-.07-.998-.045.067-.092.113-.14.146Z" fill="#207900"/><path d="m20.987,12.017c-.117-.041-.235-.06-.349-.058-.049,0-.097.003-.143.013.122.084.218.21.272.344.241.018.501.197.557.455.079.368-.08.659-.08.659,0,0,.37-.104.37-.686,0-.114-.039-.217-.094-.312-.111-.193-.311-.339-.532-.417Z" fill="#207900"/><path d="m20.494,11.972c-.083-.057-.174-.099-.28-.099-.041,0-.077.013-.116.019-.118.019-.226.054-.313.1-.132.07-.219.145-.219.145,0,0,.277-.052.448-.052.082,0,.187.052.276.153.097.11.173.28.173.52,0,.462-.343.699-.343.699.607,0,.7-.621.7-.897,0-.075-.021-.159-.055-.243-.054-.134-.15-.26-.272-.344Z" fill="#207900"/><path d="m26.205,15.675c0,.018.008.039.01.057.035.331.242.716.255,1.078.012.382-.067.857-.067.857.399-.251.403-.775.315-1.21-.046-.227-.115-.431-.169-.557-.039-.089-.06-.185-.071-.278-.014-.111-.013-.214-.006-.305.009-.115.022-.19.03-.226.002-.011.007-.036.007-.036,0,0-.016.017-.026.026-.063.06-.289.296-.279.594Z" fill="#207900"/><path d="m27.381,18.221c.036.069.069.146.1.223.043.107.079.207.108.296.041.125.068.22.068.22.03-.089.044-.177.046-.264.004-.123-.021-.242-.056-.36-.049-.162-.123-.319-.207-.469-.047-.084-.092-.165-.138-.244-.042-.073-.08-.145-.114-.214-.012-.025-.022-.049-.033-.073-.042-.095-.074-.188-.079-.274,0,0,0-.002,0-.003-.004-.088-.005-.182-.004-.273.003-.239.018-.453.018-.453,0,0-.171.357-.184.674,0,.011.006.027.006.038.008.317.301.859.458,1.156.003.005.007.014.01.019Z" fill="#207900"/><path d="m27.897,21.702c.005.442.195.703.195.703-.083-.244.003-.535.084-.829.047-.169.092-.339.101-.503.027-.451-.423-1.031-.423-1.031,0,0,.008.039.017.096.092.185.227.493.221.724-.006.281-.095.573-.196.84Z" fill="#207900"/><path d="m27.342,22.668c-.027.357.105.767.105.767,0,0,.051-.66.17-1.03.06-.186.176-.432.279-.703.102-.267.19-.559.196-.84.005-.231-.129-.539-.221-.724-.045-.091-.082-.161-.082-.161,0,0,.038.34,0,.831-.004.054-.005.101-.011.158-.066.582-.41,1.346-.435,1.701Z" fill="#207900"/><path d="m11.805,20.198c-.005.016-.012.04-.019.061-.032.106-.08.278-.113.48-.009.057-.013.117-.019.177.01.231.057.517.141.736.029.075.055.157.083.236.17.368.37.724.392.872.039.263,0,.766,0,.766,0,0,.33-.462.251-.899-.079-.432-.646-1.305-.673-1.568-.008-.075-.013-.18-.017-.293-.01-.286-.01-.619-.01-.619,0,0-.01.03-.017.05Z" fill="#207900"/><path d="m11.654,20.917c-.003-.068-.003-.127.002-.181.004-.052.008-.107.02-.14.04-.11.082-.243.111-.337.007-.021.014-.045.019-.061.009-.031.015-.051.015-.051,0,0-.226.26-.335.556-.026.07-.052.14-.06.211-.041.368.045.94.25,1.319.265.49.225.897.225.897,0,0,.198-.171.185-.447-.011-.217-.105-.511-.208-.794-.029-.079-.054-.161-.083-.236-.084-.219-.131-.504-.141-.736Z" fill="#207900"/></g></svg>