<svg id="Layer_1" data-name="Layer 1" xmlns="http://www.w3.org/2000/svg" xmlns:xlink="http://www.w3.org/1999/xlink" viewBox="0 0 40 40"><defs><style>.cls-1{fill:none;}.cls-2{clip-path:url(#clip-path);}.cls-3{fill:#3d9645;}.cls-4{clip-path:url(#clip-path-2);}.cls-5{fill:#f3c324;}</style><clipPath id="clip-path"><rect id="SVGID" class="cls-1" x="1.007" y="8.988" width="37.987" height="22.025" rx="4"/></clipPath><clipPath id="clip-path-2"><rect id="SVGID-2" data-name="SVGID" class="cls-1" x="1.007" y="8.988" width="37.987" height="22.025"/></clipPath></defs><g class="cls-2"><rect class="cls-3" x="1.007" y="8.988" width="37.987" height="22.025"/><g class="cls-4"><path class="cls-5" d="M20,10.135a7.112,7.112,0,1,1-7.156,7.112A7.134,7.134,0,0,1,20,10.135"/><path class="cls-3" d="M13.075,15.411a6.925,6.925,0,0,0,13.85,0v-5.5H13.075"/><polygon class="cls-5" points="20 12.659 19.144 15.277 20.462 15.702 20 12.659"/><polygon class="cls-5" points="20 12.659 20.856 15.277 19.538 15.702 20 12.659"/><polygon class="cls-5" points="22.634 14.561 19.865 14.561 19.865 15.937 22.634 14.561"/><polygon class="cls-5" points="22.634 14.561 20.394 16.179 19.579 15.066 22.634 14.561"/><polygon class="cls-5" points="17.366 14.561 19.606 16.179 20.421 15.066 17.366 14.561"/><polygon class="cls-5" points="17.366 14.561 20.135 14.561 20.135 15.937 17.366 14.561"/><polygon class="cls-5" points="21.628 17.639 20.772 15.02 19.455 15.446 21.628 17.639"/><polygon class="cls-5" points="21.628 17.639 19.388 16.02 20.201 14.907 21.628 17.639"/><polygon class="cls-5" points="18.372 17.639 20.613 16.02 19.799 14.907 18.372 17.639"/><polygon class="cls-5" points="18.372 17.639 19.228 15.02 20.545 15.446 18.372 17.639"/></g></g></svg>