<?xml version="1.0" encoding="UTF-8"?><svg id="Layer_1" xmlns="http://www.w3.org/2000/svg" viewBox="0 0 40 40"><g><path d="m2.637,30.154s.005.006.007.009c.049.076.106.147.16.219.081.109.167.213.258.313.058.063.113.128.175.187.144.139.3.266.463.382.056.04.115.075.173.112.157.1.32.189.491.267.036.016.07.036.106.051.208.087.427.152.652.202.051.012.103.021.155.031.234.043.472.073.718.073h28.009c.246,0,.485-.03.718-.073.052-.01.104-.019.155-.031.225-.051.444-.115.652-.202.036-.015.07-.035.106-.051.171-.077.334-.167.491-.267.058-.037.117-.072.173-.112.164-.116.319-.243.463-.382.061-.059.117-.124.175-.187.091-.1.177-.204.258-.313.054-.073.111-.143.16-.219.002-.003.005-.006.007-.009H2.637Z" fill="#de001b"/><path d="m2,28v.004c0,.104.023.202.031.303h35.939c.008-.102.031-.199.031-.303v-1.543H2v1.538Z" fill="#de001b"/><rect x="2" y="22.77" width="36" height="1.846" fill="#de001b"/><rect x="20.243" y="19.077" width="17.757" height="1.846" fill="#de001b"/><rect x="20.243" y="15.384" width="17.757" height="1.846" fill="#de001b"/><path d="m37.969,11.692h-17.726v1.846h17.757v-1.542c0-.104-.023-.202-.031-.303Z" fill="#de001b"/><path d="m37.362,9.846h.002s-.005-.006-.007-.01c-.049-.076-.106-.146-.159-.218-.081-.109-.168-.214-.26-.315-.057-.062-.112-.126-.173-.185-.145-.139-.3-.267-.464-.383-.056-.039-.114-.074-.172-.111-.158-.1-.322-.19-.494-.268-.035-.016-.068-.035-.104-.05-.209-.087-.428-.152-.653-.203-.051-.012-.103-.021-.155-.031-.234-.043-.472-.073-.718-.073h-13.761v1.846h17.118Z" fill="#de001b"/></g><path d="m20.243,19.077h0v-11.077H5.995c-.246,0-.485.03-.718.073-.052.01-.104.019-.155.031-.225.051-.444.115-.653.203-.036.015-.069.034-.104.05-.172.078-.336.168-.494.268-.058.037-.116.072-.172.111-.164.117-.32.244-.464.383-.061.059-.116.123-.173.185-.092.101-.178.205-.26.315-.054.073-.11.142-.159.218-.002.003-.005.006-.007.01-.096.149-.178.306-.252.468-.05.11-.095.223-.135.338-.021.062-.04.125-.058.188-.079.27-.136.55-.159.84,0,.004-.001.008-.002.012-.008.102-.031.199-.031.303v7.081h0v1.847h18.243v-1.846Zm-16.392.254l-.408-.302-.408.302.156-.488-.408-.302h.504l.156-.488.156.488h.504l-.408.302.156.488Zm-.156-2.645l.156.488-.408-.301-.408.301.156-.488-.408-.302h.504l.156-.488.156.488h.504l-.408.302Zm0-2.158l.156.489-.408-.302-.408.302.156-.489-.408-.301h.504l.156-.489.156.489h.504l-.408.301Zm0-2.157l.156.489-.408-.302-.408.302.156-.489-.408-.302h.504l.156-.489.156.489h.504l-.408.302Zm0-2.157l.156.489-.408-.302-.408.302.156-.489-.408-.302h.504l.156-.489.156.489h.504l-.408.302Zm1.633,8.096l-.409-.301-.408.301.156-.488-.408-.302h.505l.156-.488.156.488h.505l-.408.302.156.488Zm-.156-2.645l.156.488-.409-.302-.408.302.156-.488-.408-.302h.505l.156-.488.156.488h.505l-.408.302Zm0-2.157l.156.488-.409-.301-.408.301.156-.488-.408-.302h.505l.156-.488.156.488h.505l-.408.302Zm0-2.157l.156.488-.409-.301-.408.301.156-.488-.408-.302h.505l.156-.488.156.488h.505l-.408.302Zm1.652,7.98l-.408-.302-.409.302.156-.488-.408-.302h.505l.156-.488.156.488h.505l-.408.302.156.488Zm-.156-2.645l.156.488-.408-.301-.409.301.156-.488-.408-.302h.505l.156-.488.156.488h.505l-.408.302Zm0-2.158l.156.489-.408-.302-.409.302.156-.489-.408-.301h.505l.156-.489.156.489h.505l-.408.301Zm0-2.157l.156.489-.408-.302-.409.302.156-.489-.408-.302h.505l.156-.489.156.489h.505l-.408.302Zm0-2.157l.156.489-.408-.302-.409.302.156-.489-.408-.302h.505l.156-.489.156.489h.505l-.408.302Zm1.633,8.096l-.408-.301-.408.301.156-.488-.408-.302h.505l.156-.488.156.488h.505l-.408.302.156.488Zm-.156-2.645l.156.488-.408-.302-.408.302.156-.488-.408-.302h.505l.156-.488.156.488h.505l-.408.302Zm0-2.157l.156.488-.408-.301-.408.301.156-.488-.408-.302h.505l.156-.488.156.488h.505l-.408.302Zm0-2.157l.156.488-.408-.301-.408.301.156-.488-.408-.302h.505l.156-.488.156.488h.505l-.408.302Zm1.651,7.98l-.408-.302-.408.302.156-.488-.408-.302h.505l.156-.488.156.488h.505l-.408.302.156.488Zm-.156-2.645l.156.488-.408-.301-.408.301.156-.488-.408-.302h.505l.156-.488.156.488h.505l-.408.302Zm0-2.158l.156.489-.408-.302-.408.302.156-.489-.408-.301h.505l.156-.489.156.489h.505l-.408.301Zm0-2.157l.156.489-.408-.302-.408.302.156-.489-.408-.302h.505l.156-.489.156.489h.505l-.408.302Zm0-2.157l.156.489-.408-.302-.408.302.156-.489-.408-.302h.505l.156-.489.156.489h.505l-.408.302Zm1.633,8.096l-.408-.301-.408.301.156-.488-.408-.302h.504l.156-.488.156.488h.504l-.408.302.156.488Zm-.156-2.645l.156.488-.408-.302-.408.302.156-.488-.408-.302h.504l.156-.488.156.488h.504l-.408.302Zm0-2.157l.156.488-.408-.301-.408.301.156-.488-.408-.302h.504l.156-.488.156.488h.504l-.408.302Zm0-2.157l.156.488-.408-.301-.408.301.156-.488-.408-.302h.504l.156-.488.156.488h.504l-.408.302Zm1.652,7.98l-.408-.302-.408.302.156-.488-.408-.302h.505l.156-.488.156.488h.505l-.408.302.156.488Zm-.156-2.645l.156.488-.408-.301-.408.301.156-.488-.408-.302h.505l.156-.488.156.488h.505l-.408.302Zm0-2.158l.156.489-.408-.302-.408.302.156-.489-.408-.301h.505l.156-.489.156.489h.505l-.408.301Zm0-2.157l.156.489-.408-.302-.408.302.156-.489-.408-.302h.505l.156-.489.156.489h.505l-.408.302Zm0-2.157l.156.489-.408-.302-.408.302.156-.489-.408-.302h.505l.156-.489.156.489h.505l-.408.302Zm1.633,8.096l-.408-.301-.409.301.156-.488-.408-.302h.505l.156-.488.156.488h.505l-.408.302.156.488Zm-.156-2.645l.156.488-.408-.302-.409.302.156-.488-.408-.302h.505l.156-.488.156.488h.505l-.408.302Zm0-2.157l.156.488-.408-.301-.409.301.156-.488-.408-.302h.505l.156-.488.156.488h.505l-.408.302Zm0-2.157l.156.488-.408-.301-.409.301.156-.488-.408-.302h.505l.156-.488.156.488h.505l-.408.302Zm1.652,7.98l-.408-.302-.408.302.156-.488-.408-.302h.505l.156-.488.156.488h.505l-.408.302.156.488Zm-.156-2.645l.156.488-.408-.301-.408.301.156-.488-.408-.302h.505l.156-.488.156.488h.505l-.408.302Zm0-2.158l.156.489-.408-.302-.408.302.156-.489-.408-.301h.505l.156-.489.156.489h.505l-.408.301Zm0-2.157l.156.489-.408-.302-.408.302.156-.489-.408-.302h.505l.156-.489.156.489h.505l-.408.302Zm0-2.157l.156.489-.408-.302-.408.302.156-.489-.408-.302h.505l.156-.489.156.489h.505l-.408.302Zm1.632,8.096l-.408-.301-.408.301.156-.488-.408-.302h.505l.156-.488.156.488h.505l-.408.302.156.488Zm-.156-2.645l.156.488-.408-.302-.408.302.156-.488-.408-.302h.505l.156-.488.156.488h.505l-.408.302Zm0-2.157l.156.488-.408-.301-.408.301.156-.488-.408-.302h.505l.156-.488.156.488h.505l-.408.302Zm0-2.157l.156.488-.408-.301-.408.301.156-.488-.408-.302h.505l.156-.488.156.488h.505l-.408.302Zm1.652,7.98l-.409-.302-.408.302.156-.488-.408-.302h.505l.156-.488.156.488h.505l-.408.302.156.488Zm-.156-2.645l.156.488-.409-.301-.408.301.156-.488-.408-.302h.505l.156-.488.156.488h.505l-.408.302Zm0-2.158l.156.489-.409-.302-.408.302.156-.489-.408-.301h.505l.156-.489.156.489h.505l-.408.301Zm0-2.157l.156.489-.409-.302-.408.302.156-.489-.408-.302h.505l.156-.489.156.489h.505l-.408.302Zm0-2.157l.156.489-.409-.302-.408.302.156-.489-.408-.302h.505l.156-.489.156.489h.505l-.408.302Z" fill="#293464"/><g><path d="m2.643,9.837c.049-.076.106-.146.159-.218-.054.073-.11.142-.159.218Z" fill="#e3e7ea"/><path d="m3.063,9.304c.057-.062.112-.126.173-.185-.061.059-.116.123-.173.185Z" fill="#e3e7ea"/><path d="m2.25,10.652c.04-.115.085-.228.135-.338-.051.11-.094.223-.135.338Z" fill="#e3e7ea"/><path d="m2.638,30.154h34.724c.347-.54.555-1.17.607-1.846H2.031c.052.676.261,1.306.607,1.846Z" fill="#e3e7ea"/><path d="m2.032,11.68c.023-.291.08-.571.159-.84-.082.27-.135.55-.159.84Z" fill="#e3e7ea"/><path d="m3.7,8.735c.056-.039.114-.074.172-.111-.058.037-.116.072-.172.111Z" fill="#e3e7ea"/><rect x="2" y="24.616" width="36" height="1.846" fill="#e3e7ea"/><path d="m36.764,9.119c.061.059.116.123.173.185-.057-.062-.112-.126-.173-.185Z" fill="#e3e7ea"/><path d="m36.128,8.624c.058.037.116.072.172.111-.056-.04-.114-.074-.172-.111Z" fill="#e3e7ea"/><path d="m2.804,30.382c-.054-.073-.111-.143-.16-.219.049.076.106.146.16.219Z" fill="#e3e7ea"/><path d="m35.53,8.306c.036.015.069.034.104.05-.035-.016-.068-.035-.104-.05Z" fill="#e3e7ea"/><path d="m4.366,8.356c.035-.016.068-.035.104-.05-.036.015-.068.034-.104.05Z" fill="#e3e7ea"/><path d="m5.122,8.104c.051-.012.103-.021.155-.031-.052.01-.103.019-.155.031Z" fill="#e3e7ea"/><path d="m37.197,9.618c.054.073.11.142.159.218-.049-.076-.105-.146-.159-.218Z" fill="#e3e7ea"/><path d="m20.243,11.692h17.726c-.052-.676-.261-1.306-.607-1.846h-17.118v1.846Z" fill="#e3e7ea"/><rect x="20.243" y="13.538" width="17.757" height="1.846" fill="#e3e7ea"/><path d="m37.357,30.163c-.049.076-.106.147-.16.219.054-.073.111-.143.16-.219Z" fill="#e3e7ea"/><path d="m36.938,30.695c-.058.063-.113.128-.175.187.062-.059.117-.124.175-.187Z" fill="#e3e7ea"/><polygon points="2 20.924 2 22.77 38 22.77 38 20.924 20.243 20.924 2 20.924" fill="#e3e7ea"/><path d="m3.236,30.882c-.061-.059-.117-.124-.175-.187.058.063.113.128.175.187Z" fill="#e3e7ea"/><path d="m36.3,31.264c-.056.04-.115.075-.173.112.058-.037.117-.072.173-.112Z" fill="#e3e7ea"/><polygon points="20.243 19.076 20.243 19.077 38 19.077 38 17.23 20.243 17.23 20.243 19.076" fill="#e3e7ea"/><path d="m34.723,8.073c.052.01.104.019.155.031-.051-.012-.103-.021-.155-.031Z" fill="#e3e7ea"/><path d="m3.873,31.376c-.058-.037-.117-.072-.173-.112.056.04.115.075.173.112Z" fill="#e3e7ea"/><path d="m35.636,31.643c-.036.016-.07.036-.106.051.037-.015.07-.035.106-.051Z" fill="#e3e7ea"/><path d="m4.47,31.694c-.036-.015-.07-.035-.106-.051.036.016.07.036.106.051Z" fill="#e3e7ea"/><path d="m34.878,31.896c-.051.012-.103.021-.155.031.052-.01.103-.019.155-.031Z" fill="#e3e7ea"/><path d="m5.277,31.927c-.052-.01-.104-.019-.155-.031.051.012.103.021.155.031Z" fill="#e3e7ea"/><polygon points="3.444 9.424 3.287 9.913 2.783 9.913 3.191 10.214 3.035 10.703 3.444 10.4 3.852 10.703 3.696 10.214 4.104 9.913 3.6 9.913 3.444 9.424" fill="#e3e7ea"/><polygon points="3.444 11.581 3.287 12.07 2.783 12.07 3.191 12.371 3.035 12.86 3.444 12.558 3.852 12.86 3.696 12.371 4.104 12.07 3.6 12.07 3.444 11.581" fill="#e3e7ea"/><polygon points="3.444 13.738 3.287 14.227 2.783 14.227 3.191 14.528 3.035 15.017 3.444 14.715 3.852 15.017 3.696 14.528 4.104 14.227 3.6 14.227 3.444 13.738" fill="#e3e7ea"/><polygon points="3.444 15.896 3.287 16.384 2.783 16.384 3.191 16.687 3.035 17.174 3.444 16.873 3.852 17.174 3.696 16.687 4.104 16.384 3.6 16.384 3.444 15.896" fill="#e3e7ea"/><polygon points="3.6 18.541 3.444 18.053 3.287 18.541 2.783 18.541 3.191 18.844 3.035 19.332 3.444 19.03 3.852 19.332 3.696 18.844 4.104 18.541 3.6 18.541" fill="#e3e7ea"/><polygon points="4.92 10.561 4.765 11.049 4.26 11.049 4.668 11.351 4.512 11.839 4.92 11.538 5.329 11.839 5.173 11.351 5.581 11.049 5.076 11.049 4.92 10.561" fill="#e3e7ea"/><polygon points="4.92 12.718 4.765 13.206 4.26 13.206 4.668 13.508 4.512 13.996 4.92 13.695 5.329 13.996 5.173 13.508 5.581 13.206 5.076 13.206 4.92 12.718" fill="#e3e7ea"/><polygon points="4.92 14.875 4.765 15.363 4.26 15.363 4.668 15.666 4.512 16.153 4.92 15.852 5.329 16.153 5.173 15.666 5.581 15.363 5.076 15.363 4.92 14.875" fill="#e3e7ea"/><polygon points="5.076 17.52 4.92 17.032 4.765 17.52 4.26 17.52 4.668 17.823 4.512 18.31 4.92 18.009 5.329 18.31 5.173 17.823 5.581 17.52 5.076 17.52" fill="#e3e7ea"/><polygon points="6.416 9.424 6.26 9.913 5.755 9.913 6.164 10.214 6.008 10.703 6.416 10.4 6.825 10.703 6.668 10.214 7.077 9.913 6.572 9.913 6.416 9.424" fill="#e3e7ea"/><polygon points="6.416 11.581 6.26 12.07 5.755 12.07 6.164 12.371 6.008 12.86 6.416 12.558 6.825 12.86 6.668 12.371 7.077 12.07 6.572 12.07 6.416 11.581" fill="#e3e7ea"/><polygon points="6.416 13.738 6.26 14.227 5.755 14.227 6.164 14.528 6.008 15.017 6.416 14.715 6.825 15.017 6.668 14.528 7.077 14.227 6.572 14.227 6.416 13.738" fill="#e3e7ea"/><polygon points="6.416 15.896 6.26 16.384 5.755 16.384 6.164 16.687 6.008 17.174 6.416 16.873 6.825 17.174 6.668 16.687 7.077 16.384 6.572 16.384 6.416 15.896" fill="#e3e7ea"/><polygon points="6.572 18.541 6.416 18.053 6.26 18.541 5.755 18.541 6.164 18.844 6.008 19.332 6.416 19.03 6.825 19.332 6.668 18.844 7.077 18.541 6.572 18.541" fill="#e3e7ea"/><polygon points="7.893 10.561 7.737 11.049 7.232 11.049 7.64 11.351 7.485 11.839 7.893 11.538 8.301 11.839 8.146 11.351 8.554 11.049 8.049 11.049 7.893 10.561" fill="#e3e7ea"/><polygon points="7.893 12.718 7.737 13.206 7.232 13.206 7.64 13.508 7.485 13.996 7.893 13.695 8.301 13.996 8.146 13.508 8.554 13.206 8.049 13.206 7.893 12.718" fill="#e3e7ea"/><polygon points="7.893 14.875 7.737 15.363 7.232 15.363 7.64 15.666 7.485 16.153 7.893 15.852 8.301 16.153 8.146 15.666 8.554 15.363 8.049 15.363 7.893 14.875" fill="#e3e7ea"/><polygon points="8.049 17.52 7.893 17.032 7.737 17.52 7.232 17.52 7.64 17.823 7.485 18.31 7.893 18.009 8.301 18.31 8.146 17.823 8.554 17.52 8.049 17.52" fill="#e3e7ea"/><polygon points="9.389 9.424 9.233 9.913 8.728 9.913 9.136 10.214 8.98 10.703 9.389 10.4 9.797 10.703 9.641 10.214 10.049 9.913 9.545 9.913 9.389 9.424" fill="#e3e7ea"/><polygon points="9.389 11.581 9.233 12.07 8.728 12.07 9.136 12.371 8.98 12.86 9.389 12.558 9.797 12.86 9.641 12.371 10.049 12.07 9.545 12.07 9.389 11.581" fill="#e3e7ea"/><polygon points="9.389 13.738 9.233 14.227 8.728 14.227 9.136 14.528 8.98 15.017 9.389 14.715 9.797 15.017 9.641 14.528 10.049 14.227 9.545 14.227 9.389 13.738" fill="#e3e7ea"/><polygon points="9.389 15.896 9.233 16.384 8.728 16.384 9.136 16.687 8.98 17.174 9.389 16.873 9.797 17.174 9.641 16.687 10.049 16.384 9.545 16.384 9.389 15.896" fill="#e3e7ea"/><polygon points="9.545 18.541 9.389 18.053 9.233 18.541 8.728 18.541 9.136 18.844 8.98 19.332 9.389 19.03 9.797 19.332 9.641 18.844 10.049 18.541 9.545 18.541" fill="#e3e7ea"/><polygon points="10.866 10.561 10.709 11.049 10.205 11.049 10.613 11.351 10.457 11.839 10.866 11.538 11.274 11.839 11.118 11.351 11.526 11.049 11.022 11.049 10.866 10.561" fill="#e3e7ea"/><polygon points="10.866 12.718 10.709 13.206 10.205 13.206 10.613 13.508 10.457 13.996 10.866 13.695 11.274 13.996 11.118 13.508 11.526 13.206 11.022 13.206 10.866 12.718" fill="#e3e7ea"/><polygon points="10.866 14.875 10.709 15.363 10.205 15.363 10.613 15.666 10.457 16.153 10.866 15.852 11.274 16.153 11.118 15.666 11.526 15.363 11.022 15.363 10.866 14.875" fill="#e3e7ea"/><polygon points="11.022 17.52 10.866 17.032 10.709 17.52 10.205 17.52 10.613 17.823 10.457 18.31 10.866 18.009 11.274 18.31 11.118 17.823 11.526 17.52 11.022 17.52" fill="#e3e7ea"/><polygon points="12.361 9.424 12.206 9.913 11.701 9.913 12.109 10.214 11.953 10.703 12.361 10.4 12.77 10.703 12.614 10.214 13.022 9.913 12.518 9.913 12.361 9.424" fill="#e3e7ea"/><polygon points="12.361 11.581 12.206 12.07 11.701 12.07 12.109 12.371 11.953 12.86 12.361 12.558 12.77 12.86 12.614 12.371 13.022 12.07 12.518 12.07 12.361 11.581" fill="#e3e7ea"/><polygon points="12.361 13.738 12.206 14.227 11.701 14.227 12.109 14.528 11.953 15.017 12.361 14.715 12.77 15.017 12.614 14.528 13.022 14.227 12.518 14.227 12.361 13.738" fill="#e3e7ea"/><polygon points="12.361 15.896 12.206 16.384 11.701 16.384 12.109 16.687 11.953 17.174 12.361 16.873 12.77 17.174 12.614 16.687 13.022 16.384 12.518 16.384 12.361 15.896" fill="#e3e7ea"/><polygon points="12.518 18.541 12.361 18.053 12.206 18.541 11.701 18.541 12.109 18.844 11.953 19.332 12.361 19.03 12.77 19.332 12.614 18.844 13.022 18.541 12.518 18.541" fill="#e3e7ea"/><polygon points="13.838 10.561 13.682 11.049 13.177 11.049 13.586 11.351 13.43 11.839 13.838 11.538 14.247 11.839 14.091 11.351 14.499 11.049 13.994 11.049 13.838 10.561" fill="#e3e7ea"/><polygon points="13.838 12.718 13.682 13.206 13.177 13.206 13.586 13.508 13.43 13.996 13.838 13.695 14.247 13.996 14.091 13.508 14.499 13.206 13.994 13.206 13.838 12.718" fill="#e3e7ea"/><polygon points="13.838 14.875 13.682 15.363 13.177 15.363 13.586 15.666 13.43 16.153 13.838 15.852 14.247 16.153 14.091 15.666 14.499 15.363 13.994 15.363 13.838 14.875" fill="#e3e7ea"/><polygon points="13.994 17.52 13.838 17.032 13.682 17.52 13.177 17.52 13.586 17.823 13.43 18.31 13.838 18.009 14.247 18.31 14.091 17.823 14.499 17.52 13.994 17.52" fill="#e3e7ea"/><polygon points="15.334 9.424 15.178 9.913 14.673 9.913 15.081 10.214 14.926 10.703 15.334 10.4 15.742 10.703 15.587 10.214 15.995 9.913 15.49 9.913 15.334 9.424" fill="#e3e7ea"/><polygon points="15.334 11.581 15.178 12.07 14.673 12.07 15.081 12.371 14.926 12.86 15.334 12.558 15.742 12.86 15.587 12.371 15.995 12.07 15.49 12.07 15.334 11.581" fill="#e3e7ea"/><polygon points="15.334 13.738 15.178 14.227 14.673 14.227 15.081 14.528 14.926 15.017 15.334 14.715 15.742 15.017 15.587 14.528 15.995 14.227 15.49 14.227 15.334 13.738" fill="#e3e7ea"/><polygon points="15.334 15.896 15.178 16.384 14.673 16.384 15.081 16.687 14.926 17.174 15.334 16.873 15.742 17.174 15.587 16.687 15.995 16.384 15.49 16.384 15.334 15.896" fill="#e3e7ea"/><polygon points="15.49 18.541 15.334 18.053 15.178 18.541 14.673 18.541 15.081 18.844 14.926 19.332 15.334 19.03 15.742 19.332 15.587 18.844 15.995 18.541 15.49 18.541" fill="#e3e7ea"/><polygon points="16.811 10.561 16.655 11.049 16.15 11.049 16.559 11.351 16.402 11.839 16.811 11.538 17.219 11.839 17.063 11.351 17.472 11.049 16.967 11.049 16.811 10.561" fill="#e3e7ea"/><polygon points="16.811 12.718 16.655 13.206 16.15 13.206 16.559 13.508 16.402 13.996 16.811 13.695 17.219 13.996 17.063 13.508 17.472 13.206 16.967 13.206 16.811 12.718" fill="#e3e7ea"/><polygon points="16.811 14.875 16.655 15.363 16.15 15.363 16.559 15.666 16.402 16.153 16.811 15.852 17.219 16.153 17.063 15.666 17.472 15.363 16.967 15.363 16.811 14.875" fill="#e3e7ea"/><polygon points="16.967 17.52 16.811 17.032 16.655 17.52 16.15 17.52 16.559 17.823 16.402 18.31 16.811 18.009 17.219 18.31 17.063 17.823 17.472 17.52 16.967 17.52" fill="#e3e7ea"/><polygon points="18.306 9.424 18.151 9.913 17.646 9.913 18.054 10.214 17.898 10.703 18.306 10.4 18.715 10.703 18.559 10.214 18.967 9.913 18.463 9.913 18.306 9.424" fill="#e3e7ea"/><polygon points="18.306 11.581 18.151 12.07 17.646 12.07 18.054 12.371 17.898 12.86 18.306 12.558 18.715 12.86 18.559 12.371 18.967 12.07 18.463 12.07 18.306 11.581" fill="#e3e7ea"/><polygon points="18.306 13.738 18.151 14.227 17.646 14.227 18.054 14.528 17.898 15.017 18.306 14.715 18.715 15.017 18.559 14.528 18.967 14.227 18.463 14.227 18.306 13.738" fill="#e3e7ea"/><polygon points="18.306 15.896 18.151 16.384 17.646 16.384 18.054 16.687 17.898 17.174 18.306 16.873 18.715 17.174 18.559 16.687 18.967 16.384 18.463 16.384 18.306 15.896" fill="#e3e7ea"/><polygon points="18.463 18.541 18.306 18.053 18.151 18.541 17.646 18.541 18.054 18.844 17.898 19.332 18.306 19.03 18.715 19.332 18.559 18.844 18.967 18.541 18.463 18.541" fill="#e3e7ea"/></g></svg>