<svg id="Layer_1" data-name="Layer 1" xmlns="http://www.w3.org/2000/svg" xmlns:xlink="http://www.w3.org/1999/xlink" viewBox="0 0 40 40"><defs><style>.cls-1{fill:none;}.cls-2{clip-path:url(#clip-path);}.cls-3{fill:#272e68;}.cls-4{fill:#e5e8eb;}.cls-5{fill:#bd1f37;}.cls-6{clip-path:url(#clip-path-2);}.cls-7{fill:#3a71b7;}.cls-8{fill:#d77134;}</style><clipPath id="clip-path"><rect id="SVGID" class="cls-1" x="1.063" y="9.053" width="37.875" height="21.894" rx="4"/></clipPath><clipPath id="clip-path-2"><rect id="SVGID-2" data-name="SVGID" class="cls-1" x="1.063" y="9.053" width="37.875" height="21.894"/></clipPath></defs><g class="cls-2"><rect class="cls-3" x="1.063" y="9.053" width="37.875" height="21.894"/><polygon class="cls-4" points="18.696 9.053 12.643 12.052 12.643 9.053 9.335 9.053 9.335 12.052 3.282 9.053 1.063 9.053 1.063 10.152 5.461 12.331 1.063 12.331 1.063 15.61 5.461 15.61 1.063 17.789 1.063 18.889 3.282 18.889 9.335 15.89 9.335 18.889 12.643 18.889 12.643 15.89 18.696 18.889 20.915 18.889 20.915 17.789 16.517 15.61 20.915 15.61 20.915 12.331 16.517 12.331 20.915 10.152 20.915 9.053 18.696 9.053"/><polygon class="cls-5" points="20.915 9.053 19.435 9.053 12.818 12.331 14.298 12.331 20.915 9.053"/><polygon class="cls-5" points="1.063 9.053 1.063 9.785 6.201 12.331 7.68 12.331 1.063 9.053"/><polygon class="cls-5" points="7.68 15.61 1.063 18.889 2.542 18.889 9.16 15.61 7.68 15.61"/><polygon class="cls-5" points="14.298 15.61 20.915 18.889 20.915 18.156 15.777 15.61 14.298 15.61"/><polygon class="cls-5" points="9.997 9.053 9.997 12.987 1.063 12.987 1.063 14.955 9.997 14.955 9.997 18.889 11.982 18.889 11.982 14.955 20.915 14.955 20.915 12.987 11.982 12.987 11.982 9.053 9.997 9.053"/><g class="cls-6"><path class="cls-4" d="M29.951,15.263a4.082,4.082,0,0,1-4.224.143v5.435c0,1.883,1.155,3.992,4.224,5.095,3.069-1.1,4.225-3.212,4.225-5.095V15.406a4.084,4.084,0,0,1-4.225-.143"/><path class="cls-7" d="M26.1,22.65a6.2,6.2,0,0,0,3.856,3.286,6.2,6.2,0,0,0,3.856-3.286Z"/><path class="cls-8" d="M32.726,17.767c-.493-.452-1.072-.247-1.532-.641a2.038,2.038,0,0,0-1.421-.438c.029-.056.067-.123.1-.18-2.09.494-2.32,3.231-.413,3.545.025-.29-.209-.466-.22-.75a.774.774,0,0,1,.269.1c-.028-.324-.317-.39-.307-.789a1.242,1.242,0,0,1,1.18-1.369,1.073,1.073,0,0,1,.987.409,1.626,1.626,0,0,0,.259.356c.082.082.084.053.1-.062.025-.24.459-.348.968-.114.134.062.138.021.037-.071"/><path class="cls-8" d="M30.9,19.283c-.152.09-.35.433-.661.466a1.75,1.75,0,0,0-.019-.371c-.177.271-.221.618-.672.923a1.544,1.544,0,0,1-1.86-.04,1.064,1.064,0,0,1-.259-1.083c.09-.323.369-.34.522-.475.045-.038,0-.044-.062-.052-.283-.033-.365-.422-.125-1.007.054-.129-.018-.124-.172.147a5.5,5.5,0,0,0-.335,1.074,1.884,1.884,0,0,0,.592,2.26c-.036.052-.079.12-.124.173,1.651.39,3.3-.295,3.175-2.015"/><path class="cls-8" d="M30.436,18.047c.095.19.374.324.459.58a.7.7,0,0,0-.3.086,1.891,1.891,0,0,1,.509.261l.047.024c.613.646.881,1.286.653,1.863a1.227,1.227,0,0,1-.744.736c-.527.166-.67-.261-1.145-.185-.034.005-.008.033.038.052.3.128.193.455-.368.7-.045.019-.048.022.048.034a1.966,1.966,0,0,0,.991-.19c.279-.148.62-.247.917-.386a1.7,1.7,0,0,0,.986-1.415.62.62,0,0,1,.2.242,2.049,2.049,0,0,0-2.29-2.405"/><path class="cls-4" d="M28.758,19.158a.1.1,0,1,1-.1.1.1.1,0,0,1,.1-.1"/><path class="cls-4" d="M30.589,19.861a.1.1,0,0,0-.1.1.1.1,0,1,0,.2,0,.1.1,0,0,0-.1-.1"/><path class="cls-4" d="M31.356,18.27a.1.1,0,1,0,0,.193.1.1,0,1,0,0-.193"/></g></g></svg>