<?xml version="1.0" encoding="UTF-8"?><svg id="Layer_1" xmlns="http://www.w3.org/2000/svg" viewBox="0 0 40 40"><rect x="2" y="8" width="36" height="24" rx="4" ry="4" fill="#006d2d"/><g><path d="m5.995,8c-2.207,0-3.995,1.789-3.995,3.996v16.009c0,2.207,1.789,3.996,3.995,3.996h2.877V8h-2.877Z" fill="#e3e7ea"/><path d="m20.52,22.749c-2.407-2.724-2.164-6.896.545-9.318.117-.105.241-.198.363-.293-2.893.924-4.991,3.646-4.991,6.862,0,3.977,3.205,7.2,7.157,7.2,2.895,0,5.384-1.733,6.511-4.222-.105.108-.208.217-.322.319-2.708,2.422-6.855,2.177-9.262-.548Z" fill="#e3e7ea"/><polygon points="28.066 16.721 28.939 15.224 28.943 15.217 28.935 15.22 27.355 15.916 26.204 14.612 26.374 16.348 24.786 17.047 26.479 17.42 26.649 19.156 27.525 17.651 29.218 18.024 28.066 16.721" fill="#e3e7ea"/></g></svg>