<svg id="Layer_1" data-name="Layer 1" xmlns="http://www.w3.org/2000/svg" xmlns:xlink="http://www.w3.org/1999/xlink" viewBox="0 0 40 40"><defs><style>.cls-1{fill:none;}.cls-2{clip-path:url(#clip-path);}.cls-3{fill:#d71e34;}.cls-4{fill:#e5e8eb;}.cls-5{fill:#313f98;}.cls-6{clip-path:url(#clip-path-2);}.cls-7{fill:#f4cf2a;}</style><clipPath id="clip-path"><rect id="SVGID" class="cls-1" x="0.953" y="9.024" width="38.093" height="21.952" rx="4"/></clipPath><clipPath id="clip-path-2"><rect id="SVGID-2" data-name="SVGID" class="cls-1" x="0.953" y="9.024" width="38.093" height="21.952"/></clipPath></defs><g class="cls-2"><rect class="cls-3" x="0.953" y="9.024" width="38.093" height="1.568"/><rect class="cls-4" x="0.953" y="10.592" width="38.093" height="1.567"/><rect class="cls-3" x="0.953" y="12.16" width="38.093" height="1.568"/><rect class="cls-4" x="0.953" y="13.728" width="38.093" height="1.568"/><rect class="cls-3" x="0.953" y="15.297" width="38.093" height="1.568"/><rect class="cls-4" x="0.953" y="16.864" width="38.093" height="1.568"/><rect class="cls-3" x="0.953" y="18.433" width="38.093" height="1.568"/><rect class="cls-4" x="0.953" y="20" width="38.093" height="1.568"/><rect class="cls-3" x="0.953" y="21.568" width="38.093" height="1.568"/><rect class="cls-4" x="0.953" y="23.136" width="38.093" height="1.568"/><rect class="cls-3" x="0.953" y="24.704" width="38.093" height="1.568"/><rect class="cls-4" x="0.953" y="26.273" width="38.093" height="1.568"/><rect class="cls-3" x="0.953" y="27.84" width="38.093" height="1.568"/><rect class="cls-4" x="0.953" y="29.409" width="38.093" height="1.567"/><rect class="cls-5" x="0.953" y="9.024" width="22.221" height="12.544"/><g class="cls-6"><path class="cls-7" d="M6.905,15.3a4.176,4.176,0,0,1,6.345-3.509,4.7,4.7,0,1,0,0,7.016A4.176,4.176,0,0,1,6.905,15.3"/><polygon class="cls-7" points="16.429 15.297 18.71 14.424 16.272 14.616 17.944 12.853 15.831 14.07 16.563 11.764 15.195 13.767 14.841 11.376 14.588 13.089 14.516 13.583 14.488 13.767 13.12 11.764 13.852 14.07 11.739 12.853 13.411 14.616 10.973 14.424 13.255 15.297 10.973 16.169 13.411 15.977 11.739 17.741 13.852 16.522 13.12 18.828 14.488 16.825 14.516 17.009 14.588 17.503 14.841 19.216 15.195 16.825 16.563 18.828 15.831 16.522 17.944 17.741 16.272 15.977 18.71 16.169 16.429 15.297"/></g></g></svg>