<?xml version="1.0" encoding="UTF-8"?><svg id="a" xmlns="http://www.w3.org/2000/svg" viewBox="0 0 40 40"><rect x="2" y="8" width="36" height="24" rx="4" ry="4" fill="#f4ec1a"/><path d="M5.995,8c-2.207,0-3.995,1.789-3.995,3.996V28.004c0,2.207,1.789,3.996,3.995,3.996h7.176V8H5.995Z" fill="#008639"/><path d="M38,28.004V11.996c0-2.207-1.789-3.996-3.995-3.996h-7.175v24h7.175c2.207,0,3.995-1.789,3.995-3.996Z" fill="#e4002a"/><polygon points="20 15.987 20.897 18.76 23.801 18.76 21.452 20.474 22.349 23.247 20 21.534 17.651 23.247 18.548 20.474 16.199 18.76 19.103 18.76 20 15.987" fill="#008639"/></svg>