<?xml version="1.0" encoding="UTF-8"?><svg id="Layer_1" xmlns="http://www.w3.org/2000/svg" viewBox="0 0 40 40"><g><polygon points="15.108 10.474 14.664 11.667 15.554 11.667 15.108 10.474" fill="#e3e7ea"/><path d="m34,8H6c-2.209,0-4,1.791-4,4v16c0,2.209,1.791,4,4,4h28c2.209,0,4-1.791,4-4V12c0-2.209-1.791-4-4-4Zm-5.44,1.912h2.327v.487h-1.676v.598h1.532v.48h-1.532v.721h1.754v.518h-2.405v-2.804Zm-2.934,0h2.555v.501h-.945v2.303h-.659v-2.303h-.951v-.501Zm-2.647,0h2.555v.501h-.945v2.303h-.66v-2.303h-.951v-.501Zm-3.897,15.252h-1.892c-1.046,0-1.748-.808-1.748-2.011v-7.994c0-.065.053-.118.118-.118h8.916c.065,0,.118.053.118.118v7.994c0,1.203-.694,2.011-1.728,2.011h-1.892c-.814,0-.828.795-.828.828h0c0,.065-.053.118-.118.118s-.118-.053-.118-.117h0c0-.034-.014-.829-.828-.829Zm.949-14.925c.283-.266.664-.4,1.143-.4s.86.133,1.143.4c.284.267.427.626.427,1.077s-.142.811-.427,1.077c-.283.267-.664.4-1.143.4s-.86-.133-1.143-.4c-.281-.266-.422-.625-.422-1.077s.141-.812.422-1.077Zm-2.643-.327l.686,1.209.633-1.209h.753l-1.056,1.759v1.045h-.66v-1.045l-1.165-1.759h.808Zm-2.664,0h.762l1.156,2.804h-.692l-.218-.577h-1.243l-.211.577h-.694l1.141-2.804Zm-4.702,0h.975l.638,2.134.629-2.134h.979v2.804h-.618v-2.261l-.651,2.261h-.675l-.66-2.261v2.261h-.618v-2.804Zm-1.5,15.191c0-1.085.975-1.746,1.595-1.746.739,0,.976.71.888.888-.297.594-.582.184-.355-.089.148-.178-.149-.458-.502-.444-.211.009-.389.081-.541.188.023-.008.039-.012.039-.012,0,0-.162.102-.321.296-.177.258-.27.589-.27.917,0,.652.719,1.621,1.628,1.675.027.001.05.009.078.009.128,0,.251-.019.372-.043.335-.077.664-.256.939-.516.027-.027.055-.052.081-.08.05-.053.095-.112.141-.17.052-.069.103-.138.147-.213.022-.036.041-.074.061-.111.045-.086.086-.176.121-.268.032-.086.061-.173.082-.265.007-.026.014-.052.02-.079.029-.146.046-.3.046-.46,0-.626-.131-1.141-.351-1.597-.285-.529-.695-.993-1.121-1.335l-.44.852s-1.734-.247-2.72-1.272c-.986-1.025-.89-2.331-.71-2.188.414.325,1.399.375,1.399.375,0,0-.089-.185-.21-.395-.002-.003-.005-.007-.007-.01,0,0-.001-.005-.001-.005-.135-.233-.309-.494-.452-.576-.276-.158-.838-1.006-.404-1.991.433-.986,1.075-1.281,1.232-.966.157.315.571.098.453-.217-.118-.315-.326-.533-.326-.533l.937.236.788-.631s.946-.355,1.459-.078c.512.276.079.236-.395.355-.473.118-.573.589-.453.768.178.266.718.288.651-.118-.029-.178.749.217.67.651l-.078.433s-.04.986.591,1.183c.631.197.562.788-.029.749s-1.587-.788-1.587-.788c0,0-.513.355-.631.118,0,0-1.222-.276-1.064-1.38,0,0-.384,1.223.384,1.636,1.107.596,1.245.186,2.178.927,1.104.877,1.971,2.503,1.696,4.751s-.906,3.755-3.43,3.755c-1.478,0-2.277-1.104-2.277-2.188Zm19.627,5.7s-.646-.334-1.083-.521c-.406-.175-1.447-.646-2.013-.665-.015.048-.026.088-.045.145-.147.459-.543.437-1,.209-.458-.23-1.124-.375-1.75-.375h-4.141c-.625,0-1.292.145-1.75.375-.458.228-.854.249-.999-.209-.018-.057-.03-.097-.045-.145-.564.018-1.61.49-2.016.665-.437.187-1.083.521-1.083.521l-.54-1.146s2.268-1.228,2.997-1.394c.533-.122,1.115-.163,1.263.016.003-.005.008-.015.008-.015,0,0,.082.157.174.358.151-.081.306-.158.47-.213.563-.188,2.102-.292,2.602-.292h1.977c.501,0,2.04.105,2.603.292.163.055.318.132.468.213.092-.2.174-.357.174-.357,0,0,.006.01.008.015.149-.179.731-.138,1.263-.016.729.166,2.998,1.394,2.998,1.394l-.54,1.146Zm3.713-9.574c-.986,1.025-2.72,1.272-2.72,1.272l-.44-.851c-.43.346-.843.816-1.128,1.352-.215.451-.344.96-.344,1.579,0,.156.017.304.044.447.011.045.022.09.035.134.018.071.04.14.064.208.041.107.087.211.14.31.012.023.024.046.037.068.052.089.111.17.173.25.037.046.072.093.112.135.036.04.075.075.114.112.075.069.15.136.231.192.008.006.018.011.026.017.102.068.208.128.317.176.008.003.017.006.025.009.103.044.208.078.314.103.123.026.249.044.38.044.043,0,.08-.011.122-.014.886-.085,1.58-1.029,1.58-1.669,0-.338-.098-.681-.286-.941-.152-.179-.303-.273-.303-.273,0,0,.011.003.031.009-.151-.105-.328-.176-.536-.184-.354-.014-.65.266-.502.444.227.273-.059.683-.355.089-.088-.178.149-.888.888-.888.622,0,1.597.661,1.597,1.745s-.799,2.188-2.277,2.188c-2.523,0-3.154-1.508-3.43-3.755-.276-2.247.591-3.874,1.696-4.751.934-.741,1.07-.33,2.178-.927.768-.413.384-1.636.384-1.636.158,1.103-1.064,1.38-1.064,1.38-.118.237-.631-.118-.631-.118,0,0-.995.75-1.587.788s-.66-.552-.029-.749c.631-.197.591-1.183.591-1.183l-.079-.433c-.079-.434.699-.829.67-.651-.067.406.473.384.651.118.121-.18.02-.65-.453-.768s-.906-.079-.394-.355c.512-.276,1.458.078,1.458.078l.789.631.936-.236s-.209.219-.327.533c-.118.315.295.532.453.217.157-.315.799-.019,1.232.966.433.985-.129,1.833-.404,1.991-.142.081-.313.336-.448.567,0,.003-.003.013-.003.013-.005.007-.012.016-.017.024-.117.205-.202.382-.202.382,0,0,.985-.049,1.399-.375.18-.143.276,1.163-.71,2.188Z" fill="#e3e7ea"/><path d="m21.174,12.292c.284,0,.506-.085.664-.255.158-.171.237-.411.237-.719s-.079-.548-.237-.718c-.158-.171-.379-.257-.664-.257-.281,0-.501.085-.657.255s-.235.41-.235.719.078.548.235.719c.157.17.376.255.657.255Z" fill="#e3e7ea"/></g><path d="m20.029,26.11c.065,0,.118-.053.118-.117h0c0-.034.014-.829.828-.829h1.892c1.034,0,1.728-.808,1.728-2.011v-7.994c0-.065-.053-.118-.118-.118h-8.916c-.065,0-.118.053-.118.118v7.994c0,1.203.702,2.011,1.748,2.011h1.892c.814,0,.828.795.828.828h0c0,.065.053.118.118.118Zm-.946-1.183h-1.892c-1.044,0-1.511-.89-1.511-1.774v-7.876h8.679v7.876c0,1.078-.586,1.774-1.491,1.774h-1.892c-.522,0-.806.268-.946.559-.14-.291-.424-.559-.946-.559Z" fill="#231f20"/><path d="m20.975,24.928h1.892c.906,0,1.491-.696,1.491-1.774v-7.876h-8.679v7.876c0,.884.467,1.774,1.511,1.774h1.892c.522,0,.806.268.946.559.14-.291.424-.559.946-.559Zm-1.656-.942c-.174.193-.426.318-.71.318s-.536-.125-.71-.318c-.174.193-.426.318-.71.318-.523,0-.947-.414-.947-.923,0-.288.137-.54.349-.71-.211-.169-.349-.422-.349-.709s.137-.54.349-.71c-.211-.169-.349-.422-.349-.71,0-.164.05-.313.127-.446-.078-.171-.126-.354-.126-.524,0-.288.135-.536.337-.71-.202-.174-.337-.422-.337-.71s.135-.535.337-.709c-.202-.174-.337-.422-.337-.71,0-.522.423-.946.946-.946.288,0,.536.135.71.338.173-.202.422-.338.71-.338s.536.135.71.338c.173-.202.422-.338.71-.338s.535.134.708.335c.174-.201.423-.335.712-.335.297,0,.551.144.724.355.173-.187.417-.308.695-.308.522,0,.946.414.946.923,0,.292-.148.541-.365.71.218.169.365.418.365.71s-.148.6-.365.769c.218.168.365.477.365.768,0,.147-.043.291-.105.428.062.122.105.255.105.4,0,.288-.138.541-.349.71.211.169.349.422.349.71s-.138.541-.349.709c.211.169.349.422.349.71,0,.509-.424.923-.946.923-.285,0-.536-.125-.71-.318-.174.193-.426.318-.71.318s-.536-.125-.71-.318c-.174.193-.426.318-.71.318s-.536-.125-.71-.318Z" fill="#eee"/><path d="m23.662,20.045c.02.03.03.065.046.097.062-.137.105-.281.105-.428,0-.291-.148-.6-.365-.768.218-.169.365-.477.365-.769s-.148-.541-.365-.71c.218-.168.365-.417.365-.71,0-.509-.424-.923-.946-.923-.278,0-.522.121-.695.308-.173-.211-.427-.355-.724-.355-.289,0-.537.134-.712.335-.173-.201-.421-.335-.708-.335s-.536.135-.71.338c-.174-.202-.423-.338-.71-.338s-.536.135-.71.338c-.174-.202-.422-.338-.71-.338-.523,0-.946.424-.946.946,0,.288.135.536.337.71-.202.174-.337.422-.337.709s.135.536.337.71c-.202.174-.337.422-.337.71,0,.169.048.353.126.524.009-.016.014-.035.024-.051h7.268Zm-3.633-1.419c.881,0,1.614-.604,1.825-1.419.04.152.067.308.067.473,0,1.045-.848,1.892-1.892,1.892s-1.892-.848-1.892-1.892c0-.165.027-.321.066-.473.212.815.945,1.419,1.826,1.419Z" fill="#171796"/><g><path d="m21.174,12.794c.479,0,.86-.133,1.143-.4.284-.266.427-.625.427-1.077s-.142-.811-.427-1.077c-.283-.266-.664-.4-1.143-.4s-.86.133-1.143.4c-.281.265-.422.624-.422,1.077s.141.811.422,1.077c.283.267.664.4,1.143.4Zm-.657-2.197c.157-.17.376-.255.657-.255.284,0,.506.086.664.257.158.17.237.409.237.718s-.079.548-.237.719c-.158.17-.379.255-.664.255-.281,0-.501-.085-.657-.255-.157-.171-.235-.411-.235-.719s.078-.549.235-.719Z" fill="#e40000"/><polygon points="17.746 12.716 18.406 12.716 18.406 11.671 19.461 9.912 18.708 9.912 18.075 11.121 17.389 9.912 16.582 9.912 17.746 11.671 17.746 12.716" fill="#e40000"/><path d="m14.49,12.139h1.243l.218.577h.692l-1.156-2.804h-.762l-1.141,2.804h.694l.211-.577Zm.618-1.666l.446,1.193h-.89l.444-1.193Z" fill="#e40000"/><polygon points="26.577 12.716 27.237 12.716 27.237 10.413 28.181 10.413 28.181 9.912 25.626 9.912 25.626 10.413 26.577 10.413 26.577 12.716" fill="#e40000"/><polygon points="10.641 10.455 11.301 12.716 11.976 12.716 12.627 10.455 12.627 12.716 13.245 12.716 13.245 9.912 12.265 9.912 11.636 12.046 10.998 9.912 10.023 9.912 10.023 12.716 10.641 12.716 10.641 10.455" fill="#e40000"/><polygon points="30.965 12.198 29.211 12.198 29.211 11.477 30.743 11.477 30.743 10.997 29.211 10.997 29.211 10.399 30.887 10.399 30.887 9.912 28.56 9.912 28.56 12.716 30.965 12.716 30.965 12.198" fill="#e40000"/><polygon points="23.93 12.716 24.59 12.716 24.59 10.413 25.534 10.413 25.534 9.912 22.979 9.912 22.979 10.413 23.93 10.413 23.93 12.716" fill="#e40000"/><path d="m20.738,23.985c.173.193.425.318.71.318s.536-.125.71-.318c.173.193.425.318.71.318.522,0,.946-.414.946-.923,0-.288-.138-.54-.349-.71.211-.168.349-.422.349-.709s-.138-.54-.349-.71c.211-.168.349-.422.349-.71,0-.145-.043-.278-.105-.4-.016-.032-.027-.067-.046-.097h-7.268c-.01.016-.015.034-.024.051-.077.133-.127.282-.127.446,0,.288.138.541.349.71-.212.169-.349.422-.349.71s.138.54.349.709c-.212.169-.349.422-.349.71,0,.509.424.923.947.923.284,0,.536-.125.71-.318.173.193.425.318.71.318s.536-.125.71-.318c.173.193.425.318.71.318s.536-.125.71-.318Zm1.532-1.927c.272.156.45.357.397.448-.052.091-.315.037-.587-.119-.096-.055-.172-.115-.238-.174.018.087.031.184.031.293,0,.314-.085.569-.189.569s-.189-.255-.189-.569c0-.111.013-.207.031-.294-.066.06-.144.119-.239.174-.272.157-.534.211-.587.12-.052-.09.126-.291.397-.448.096-.055.186-.093.271-.12-.084-.028-.175-.065-.271-.12-.272-.157-.449-.357-.397-.448.053-.091.315-.037.587.12.096.055.173.115.239.174-.018-.087-.031-.185-.031-.294,0-.314.085-.569.189-.569s.189.255.189.569c0,.11-.013.206-.031.293.066-.059.144-.118.238-.173.272-.157.534-.211.587-.12.052.091-.126.291-.397.448-.095.055-.185.093-.27.12.084.027.174.065.27.12Zm-3.5.328c-.096-.055-.173-.115-.239-.174.018.086.031.184.031.293,0,.314-.085.569-.189.569-.105,0-.189-.255-.189-.569,0-.111.013-.207.031-.294-.066.06-.144.119-.239.174-.272.157-.535.211-.587.12-.053-.09.125-.291.397-.448.095-.055.185-.093.27-.12-.084-.028-.174-.065-.27-.12-.273-.157-.449-.357-.397-.448.053-.091.315-.037.587.12.096.055.173.115.239.174-.018-.087-.031-.185-.031-.294,0-.314.084-.569.189-.569s.189.255.189.569c0,.111-.013.207-.031.294.066-.06.143-.119.238-.174.272-.157.534-.211.587-.12.052.091-.126.291-.397.448-.096.055-.186.093-.271.12.085.027.175.065.271.12.272.156.449.357.398.448-.053.091-.315.037-.587-.119Z" fill="#e40000"/></g><path d="m18.136,17.68c0,1.045.848,1.892,1.892,1.892s1.892-.848,1.892-1.892c0-.165-.027-.321-.067-.473-.211.815-.944,1.419-1.825,1.419s-1.614-.604-1.826-1.419c-.039.152-.066.308-.066.473Z" fill="#eee"/><g><path d="m18.958,22.058c-.096-.055-.185-.093-.271-.12.084-.028.175-.065.271-.12.272-.156.449-.357.397-.448-.053-.091-.315-.037-.587.12-.096.055-.172.115-.238.174.018-.087.031-.184.031-.294,0-.314-.084-.569-.189-.569s-.189.255-.189.569c0,.11.013.207.031.294-.066-.059-.144-.119-.239-.174-.272-.157-.534-.211-.587-.12-.052.091.125.291.397.448.096.055.185.093.27.12-.084.027-.175.065-.27.12-.273.157-.45.358-.397.448.052.091.315.037.587-.12.096-.055.173-.115.239-.174-.018.087-.031.184-.031.294,0,.314.084.569.189.569.104,0,.189-.255.189-.569,0-.11-.013-.207-.031-.293.066.06.144.119.239.174.272.156.534.21.587.119.051-.091-.127-.291-.398-.448Z" fill="#ffac33"/><path d="m22.668,21.37c-.053-.091-.315-.037-.587.12-.095.055-.172.115-.238.173.018-.087.031-.184.031-.293,0-.314-.085-.569-.189-.569s-.189.255-.189.569c0,.11.013.207.031.294-.066-.06-.144-.119-.239-.174-.272-.157-.534-.211-.587-.12-.052.091.126.291.397.448.096.055.186.093.271.12-.084.027-.175.065-.271.12-.272.157-.449.358-.397.448.053.091.315.037.587-.12.096-.055.173-.115.239-.174-.018.087-.031.184-.031.294,0,.314.085.569.189.569s.189-.255.189-.569c0-.11-.013-.206-.031-.293.066.059.143.119.238.174.272.156.535.21.587.119.053-.091-.126-.291-.397-.448-.096-.055-.185-.093-.27-.12.084-.028.175-.065.27-.12.272-.156.449-.357.397-.448Z" fill="#ffac33"/></g><g><path d="m15.586,28.583c-.248.113-.493.312-.427.451,0,0,.001,0,.001,0,0,0,0-.001,0-.002.275.008.601-.214.966-.411-.092-.2-.174-.358-.174-.358,0,0-.006.01-.008.015-.019.037-.106.19-.358.304Z" fill="#66757f"/><path d="m25.214,29.033c.065-.139-.179-.338-.426-.45-.252-.114-.34-.267-.359-.304-.003-.005-.008-.015-.008-.015,0,0-.082.157-.174.357.365.197.69.419.967.411Z" fill="#66757f"/></g><g><path d="m15.159,29.034c-.066-.139.179-.339.427-.451.252-.114.339-.267.358-.304-.149-.179-.731-.138-1.263-.016-.729.166-2.997,1.394-2.997,1.394l.54,1.146s.646-.334,1.083-.521c.406-.175,1.451-.647,2.016-.665-.105-.337-.138-.479-.163-.582,0,0-.001,0-.001,0Z" fill="#ccd6dd"/><path d="m24.429,28.279c.019.037.107.19.359.304.247.112.491.311.426.45,0,0,.001,0,.002,0-.026.104-.059.246-.163.584.566.019,1.607.491,2.013.665.437.187,1.083.521,1.083.521l.54-1.146s-2.269-1.228-2.998-1.394c-.531-.122-1.113-.163-1.263.016Z" fill="#ccd6dd"/><path d="m25.214,29.033c-.277.007-.603-.215-.967-.411-.15-.081-.305-.158-.468-.213-.563-.187-2.102-.292-2.603-.292h-1.977c-.5,0-2.039.104-2.602.292-.164.055-.319.132-.47.213-.365.197-.692.419-.966.411,0,0,0,.001,0,.002.025.103.058.245.163.582.015.048.027.088.045.145.145.458.541.437.999.209.458-.23,1.125-.375,1.75-.375h4.141c.625,0,1.292.145,1.75.375.457.228.853.25,1-.209.018-.057.03-.097.045-.145.104-.338.137-.48.163-.584,0,0-.001,0-.002,0Zm-5.833.303h-1.637v-.775h1.637v.775Zm3.607,0h-2.79v-.775h2.79v.775Z" fill="#ccd6dd"/><path d="m12.622,25.385c.033-.086.058-.175.082-.265-.021.092-.051.18-.082.265Z" fill="#ccd6dd"/><path d="m12.44,25.764c.021-.036.041-.073.061-.111-.02.037-.039.075-.061.111Z" fill="#ccd6dd"/><path d="m11.132,26.743c.36-.075.676-.259.939-.516-.276.26-.604.439-.939.516Z" fill="#ccd6dd"/><path d="m14.229,23.535c.275-2.247-.591-3.874-1.696-4.751-.933-.741-1.071-.33-2.178-.927-.768-.413-.384-1.636-.384-1.636-.158,1.103,1.064,1.38,1.064,1.38.118.237.631-.118.631-.118,0,0,.995.75,1.587.788s.66-.552.029-.749c-.631-.197-.591-1.183-.591-1.183l.078-.433c.08-.434-.699-.829-.67-.651.067.406-.473.384-.651.118-.12-.18-.02-.65.453-.768.473-.118.906-.079.395-.355-.513-.276-1.459.078-1.459.078l-.788.631-.937-.236s.207.218.326.533c.118.315-.296.532-.453.217-.157-.315-.799-.02-1.232.966-.434.985.128,1.833.404,1.991.143.082.317.343.452.576-.009-.031-.286-1.021.209-.497.502.533,1.596,1.449,2.395,2.247.799.799,1.981,2.277,1.981,3.637s-.68,2.602-2.513,2.602c-1.242,0-1.995-1.283-1.863-2.07.127-.763.646-.978.789-1.023.152-.108.33-.18.541-.188.354-.014.65.266.502.444-.227.272.058.683.355.089.088-.178-.149-.888-.888-.888-.621,0-1.596.661-1.595,1.746,0,1.083.799,2.188,2.277,2.188,2.523,0,3.155-1.508,3.43-3.755Z" fill="#ccd6dd"/><path d="m12.293,25.977c-.046.058-.091.117-.141.17.05-.054.096-.111.141-.17Z" fill="#ccd6dd"/><path d="m10.682,26.777c-.909-.054-1.628-1.023-1.628-1.675,0-.328.093-.66.27-.917-.151.184-.3.452-.3.798,0,.693.539,1.745,1.657,1.794Z" fill="#ccd6dd"/><path d="m8.618,19.02c.121.21.21.395.21.395,0,0-.985-.049-1.399-.375-.181-.143-.276,1.163.71,2.188.986,1.025,2.72,1.272,2.72,1.272l.44-.852c-.177-.142-.355-.269-.529-.362-.942-.5-1.591-1.5-2.151-2.267Z" fill="#ccd6dd"/><path d="m12.419,22.983c.221.456.351.971.351,1.597,0,.161-.017.314-.046.46.05-.208.085-.423.085-.649,0-.483-.152-.966-.39-1.408Z" fill="#ccd6dd"/><path d="m30.979,24.983c0-.361-.16-.636-.318-.821.188.261.286.603.286.941,0,.64-.694,1.584-1.58,1.669,1.085-.076,1.612-1.106,1.612-1.789Z" fill="#ccd6dd"/><path d="m27.275,25.028c-.027-.143-.044-.291-.044-.447,0-.618.129-1.127.344-1.579-.232.437-.381.913-.381,1.389,0,.221.034.432.081.636Z" fill="#ccd6dd"/><path d="m27.31,25.162c.02.07.039.14.064.208-.024-.067-.046-.136-.064-.208Z" fill="#ccd6dd"/><path d="m31.186,24.924c.132.787-.621,2.07-1.863,2.07-1.834,0-2.513-1.241-2.513-2.602s1.183-2.838,1.981-3.637c.799-.798,1.892-1.714,2.395-2.247.483-.513.229.419.21.49.134-.231.306-.486.448-.567.275-.158.837-1.006.404-1.991-.433-.985-1.075-1.281-1.232-.966-.158.315-.572.098-.453-.217.118-.315.327-.533.327-.533l-.936.236-.789-.631s-.946-.355-1.458-.078c-.513.276-.079.236.394.355s.574.589.453.768c-.178.266-.718.288-.651-.118.029-.178-.749.217-.67.651l.079.433s.04.986-.591,1.183c-.631.197-.562.788.029.749s1.587-.788,1.587-.788c0,0,.513.355.631.118,0,0,1.222-.276,1.064-1.38,0,0,.384,1.223-.384,1.636-1.108.596-1.244.186-2.178.927-1.104.877-1.972,2.503-1.696,4.751.276,2.247.906,3.755,3.43,3.755,1.478,0,2.277-1.104,2.277-2.188s-.976-1.745-1.597-1.745c-.739,0-.976.71-.888.888.296.594.582.184.355-.089-.148-.178.148-.458.502-.444.208.009.385.079.536.184.134.041.668.252.797,1.027Z" fill="#ccd6dd"/><path d="m32.572,19.042c-.414.325-1.399.375-1.399.375,0,0,.085-.177.202-.382-.558.765-1.204,1.755-2.141,2.253-.175.093-.354.221-.531.364l.44.851s1.734-.247,2.72-1.272c.986-1.025.889-2.331.71-2.188Z" fill="#ccd6dd"/></g><g><rect x="20.197" y="28.561" width="2.79" height=".775" fill="#99aab5"/><rect x="17.744" y="28.561" width="1.637" height=".775" fill="#99aab5"/><path d="m8.818,24.924c-.132.787.621,2.07,1.863,2.07,1.833,0,2.513-1.241,2.513-2.602s-1.183-2.838-1.981-3.637c-.799-.798-1.892-1.714-2.395-2.247-.495-.524-.217.466-.209.497,0,0,.001.005.001.005.002.003.005.007.007.01.56.767,1.209,1.766,2.151,2.267.174.093.352.22.529.362.426.342.836.805,1.121,1.335.238.442.39.925.39,1.408,0,.226-.035.44-.085.649-.006.027-.013.053-.02.079-.024.091-.049.18-.082.265-.036.093-.076.182-.121.268-.02.038-.039.075-.061.111-.045.075-.096.145-.147.213-.045.06-.091.116-.141.17-.026.028-.054.053-.081.08-.263.257-.579.441-.939.516-.12.025-.244.043-.372.043-.028,0-.051-.008-.078-.009-1.117-.05-1.657-1.101-1.657-1.794,0-.346.148-.614.3-.798.159-.194.321-.296.321-.296,0,0-.016.004-.039.012-.143.045-.662.26-.789,1.023Z" fill="#99aab5"/><path d="m31.375,19.034c.005-.008.012-.016.017-.024,0,0,.003-.01.003-.013.02-.07.273-1.003-.21-.49-.502.533-1.596,1.449-2.395,2.247-.799.799-1.981,2.277-1.981,3.637s.679,2.602,2.513,2.602c1.242,0,1.995-1.283,1.863-2.07-.129-.775-.663-.986-.797-1.027-.019-.006-.031-.009-.031-.009,0,0,.15.094.303.273.158.185.318.46.318.821,0,.683-.527,1.713-1.612,1.789-.042.003-.078.014-.122.014-.131,0-.257-.018-.38-.044-.109-.023-.213-.061-.314-.103-.008-.003-.017-.006-.025-.009-.112-.048-.216-.108-.317-.176-.008-.006-.018-.011-.026-.017-.082-.058-.158-.122-.231-.192-.038-.037-.078-.072-.114-.112-.039-.043-.076-.089-.112-.135-.061-.08-.121-.161-.173-.25-.013-.022-.025-.045-.037-.068-.053-.099-.1-.203-.14-.31-.026-.067-.044-.137-.064-.208-.013-.044-.024-.089-.035-.134-.048-.205-.081-.416-.081-.636,0-.476.149-.952.381-1.389.285-.536.697-1.006,1.128-1.352.177-.143.356-.271.531-.364.937-.498,1.583-1.487,2.141-2.253Z" fill="#99aab5"/></g></svg>