<svg id="Layer_1" data-name="Layer 1" xmlns="http://www.w3.org/2000/svg" viewBox="0 0 40 40"><defs><style>.cls-1{fill:#4592fb;}.cls-2{fill:#fff;}.cls-3{fill:none;}</style></defs><rect class="cls-1" x="3.5" y="3.5" width="33" height="33" rx="8"/><path class="cls-2" d="M9.186,15.269a3.48,3.48,0,0,1,3.536,3.274H11.03a1.786,1.786,0,0,0-1.844-1.655c-1.142,0-2.162.767-2.162,3.047,0,2.254,1.02,3.022,2.162,3.022A1.786,1.786,0,0,0,11.03,21.3h1.692a3.47,3.47,0,0,1-3.536,3.273c-2.029,0-3.843-1.558-3.843-4.64C5.343,16.828,7.157,15.269,9.186,15.269Z"/><path class="cls-2" d="M13.166,19.935c0-3.107,1.814-4.666,3.843-4.666s3.832,1.559,3.832,4.666c0,3.082-1.815,4.64-3.832,4.64S13.166,23.017,13.166,19.935Zm3.843,3.022c1.131,0,2.15-.756,2.15-3.022s-1.019-3.047-2.15-3.047-2.161.767-2.161,3.047S15.867,22.957,17.009,22.957Z"/><path class="cls-2" d="M21.285,19.935c0-3.107,1.815-4.666,3.843-4.666s3.832,1.559,3.832,4.666c0,3.082-1.814,4.64-3.832,4.64S21.285,23.017,21.285,19.935Zm3.843,3.022c1.131,0,2.15-.756,2.15-3.022s-1.019-3.047-2.15-3.047-2.161.767-2.161,3.047S23.986,22.957,25.128,22.957Z"/><path class="cls-2" d="M34.9,24.4H29.761V15.448h1.631V22.8h3.5Z"/><rect class="cls-3" width="40" height="40"/></svg>