<?xml version="1.0" encoding="UTF-8"?><svg id="Layer_1" xmlns="http://www.w3.org/2000/svg" viewBox="0 0 40 40"><rect x="2" y="8" width="36" height="24" rx="4" ry="4" fill="#dc0024"/><path d="m18.146,20L3.362,30.988c.083.073.167.145.256.211l22.602-11.199L3.617,8.801c-.089.066-.173.138-.256.211l14.784,10.988Z" fill="#fbc300"/><path d="m3.362,30.988l14.784-10.988L3.362,9.012c-.829.732-1.362,1.791-1.362,2.983v16.009c0,1.193.533,2.251,1.362,2.983Z"/><polygon points="11.002 16.925 9.657 19.613 11.91 21.619 8.817 21.282 7.461 23.966 6.895 21.07 3.803 20.722 6.547 19.269 5.992 16.371 8.254 18.368 11.002 16.925" fill="#e3e7ea"/></svg>