<?xml version="1.0" encoding="UTF-8"?><svg id="a" xmlns="http://www.w3.org/2000/svg" viewBox="0 0 40 40"><rect x="2" y="8" width="36" height="24" rx="4" ry="4" fill="#1e51a4"/><rect x="12.397" y="7.982" width="1.95" height=".036" fill="#fbcb00"/><rect x="16.947" y="7.982" width="1.95" height=".036" fill="#fbcb00"/><rect x="14.348" y="7.982" width="2.599" height=".036" fill="#d3003b"/><path d="M16.947,31.982H5.634c.121,.011,.238,.036,.361,.036h28.009c.124,0,.241-.025,.361-.036H16.947Z" fill="none"/><polygon points="14.348 8.018 12.397 8.018 12.397 16.799 2 16.799 2 18.73 14.348 18.73 14.348 8.018" fill="#fbcb00"/><polygon points="16.947 18.73 38 18.73 38 16.799 18.896 16.799 18.896 8.018 16.947 8.018 16.947 18.73" fill="#fbcb00"/><polygon points="12.397 31.982 14.348 31.982 14.348 21.306 2 21.306 2 23.237 12.397 23.237 12.397 31.982" fill="#fbcb00"/><polygon points="16.947 31.982 18.896 31.982 18.896 23.237 38 23.237 38 21.306 16.947 21.306 16.947 31.982" fill="#fbcb00"/><polygon points="14.348 31.982 16.947 31.982 16.947 21.306 38 21.306 38 18.73 16.947 18.73 16.947 8.018 14.348 8.018 14.348 18.73 2 18.73 2 21.306 14.348 21.306 14.348 31.982" fill="#d3003b"/></svg>