<?xml version="1.0" encoding="UTF-8"?><svg id="Layer_1" xmlns="http://www.w3.org/2000/svg" viewBox="0 0 40 40"><rect x="2" y="8" width="36" height="24" rx="4" ry="4" fill="#e3e7ea"/><path d="m9.069,13.416c-.021.441-.066.876-.133,1.305-.021.138-.046.274-.072.411.271-.033.547-.051.827-.051s.556.017.827.051c-.026-.136-.051-.273-.072-.411-.067-.428-.112-.864-.133-1.305.589.028,1.168.097,1.734.203-.034-.268-.051-.542-.051-.818s.018-.55.051-.818c-.566.106-1.144.175-1.734.203.028-.583.098-1.156.205-1.715-.271.033-.547.05-.827.05s-.556-.017-.827-.05c.107.559.177,1.132.205,1.715-.589-.028-1.168-.097-1.734-.203.034.268.051.541.051.818s-.018.55-.051.818c.566-.106,1.144-.175,1.734-.203Z" fill="#ea0034"/><path d="m29.687,13.416c-.021.441-.066.876-.133,1.305-.021.138-.046.274-.072.411.271-.033.547-.051.827-.051s.556.017.827.051c-.026-.136-.05-.273-.072-.411-.067-.428-.112-.864-.134-1.305.59.028,1.168.097,1.734.203-.034-.268-.051-.542-.051-.818s.018-.55.051-.818c-.566.106-1.144.175-1.734.203.029-.583.099-1.156.206-1.715-.271.033-.547.05-.827.05s-.556-.017-.827-.05c.107.559.177,1.132.205,1.715-.589-.028-1.168-.097-1.733-.203.034.268.051.541.051.818s-.018.55-.051.818c.566-.106,1.144-.175,1.733-.203Z" fill="#ea0034"/><path d="m10.313,26.585c.022-.441.066-.877.133-1.305.021-.138.046-.274.072-.411-.271.033-.547.05-.827.05s-.556-.017-.827-.05c.026.136.051.273.072.411.067.428.112.863.133,1.305-.589-.029-1.168-.097-1.734-.203.034.268.051.541.051.818s-.018.55-.051.818c.566-.106,1.144-.175,1.734-.203-.028.583-.098,1.156-.205,1.716.271-.033.547-.051.827-.051s.556.018.827.051c-.107-.56-.177-1.132-.205-1.716.589.029,1.168.098,1.734.203-.034-.268-.051-.542-.051-.818s.018-.55.051-.818c-.566.106-1.144.174-1.734.203Z" fill="#ea0034"/><path d="m30.931,26.585c.022-.441.067-.877.134-1.305.021-.138.045-.274.072-.411-.271.033-.547.05-.827.05s-.556-.017-.827-.05c.026.136.05.273.072.411.067.428.112.863.133,1.305-.589-.029-1.168-.097-1.733-.203.034.268.051.541.051.818s-.017.55-.051.818c.565-.106,1.144-.175,1.733-.203-.028.583-.098,1.156-.205,1.716.271-.033.547-.051.827-.051s.556.018.827.051c-.107-.56-.177-1.132-.206-1.716.59.029,1.168.098,1.734.203-.034-.268-.051-.542-.051-.818s.018-.55.051-.818c-.566.106-1.144.174-1.734.203Z" fill="#ea0034"/><polygon points="25.639 17.581 22.445 17.581 22.445 8 17.555 8 17.555 17.581 14.36 17.581 2 17.581 2 22.419 14.36 22.419 17.555 22.419 17.555 32 22.445 32 22.445 22.419 25.639 22.419 38 22.419 38 17.581 25.639 17.581" fill="#ea0034"/></svg>