<svg id="Layer_1" data-name="Layer 1" xmlns="http://www.w3.org/2000/svg" xmlns:xlink="http://www.w3.org/1999/xlink" viewBox="0 0 40 40"><defs><style>.cls-1{fill:none;}.cls-2{clip-path:url(#clip-path);}.cls-3{fill:#bc1f34;}.cls-4{clip-path:url(#clip-path-2);}</style><clipPath id="clip-path"><rect id="SVGID" class="cls-1" x="1.427" y="9.018" width="37.147" height="21.964" rx="4"/></clipPath><clipPath id="clip-path-2"><rect id="SVGID-2" data-name="SVGID" class="cls-1" x="1.427" y="9.018" width="37.147" height="21.964"/></clipPath></defs><g class="cls-2"><rect class="cls-3" x="1.427" y="9.018" width="37.147" height="21.964"/><g class="cls-4"><path d="M25.974,22.97a.393.393,0,0,0-.2-.06.657.657,0,0,1-.222-.053.325.325,0,0,0-.368.058c-.074.063-.122.073-.408.1-.4.034-.532.034-.532.006a1.162,1.162,0,0,1,.228-.168c.172-.114.244-.145.3-.134a.454.454,0,0,0,.385-.154c.108-.111.133-.119.381-.108a.266.266,0,0,0,.1-.008.365.365,0,0,0-.429-.233.379.379,0,0,1-.225.012.377.377,0,0,0-.436.231c-.033.09-.191.221-.475.4l-.206.132-.4-.156a4.5,4.5,0,0,1-.824-.375.8.8,0,0,1,.124-.163.857.857,0,0,0,.124-.156.741.741,0,0,0-.173-.1,2.473,2.473,0,0,1-1.247-1.269c-.133-.352-.066-.433.1-.118a1.058,1.058,0,0,0,.4.485c.19.123.3.148.368.081.086-.079.066-.173-.055-.313-.273-.316-.351-.793-.127-.793.086,0,.1.016.271.421a2.306,2.306,0,0,0,.687,1.047c.165.087.435.018.479-.125.036-.114-.009-.187-.2-.31a1.356,1.356,0,0,1-.568-.925c-.026-.134-.022-.168.018-.23.067-.1.116-.066.309.227a6.112,6.112,0,0,0,1.279,1.425,1,1,0,0,0,1.223-.03.259.259,0,0,0,.1-.2c0-.137-.1-.2-.317-.184-.493.022-.542.016-.732-.073a2.446,2.446,0,0,1-1-1.19c-.265-.554-.2-.582.249-.118.607.625,1.1.857,1.546.723.218-.064.424-.262.424-.41s-.076-.207-.314-.192c-.107.008-.307.013-.443.013a.693.693,0,0,1-.433-.089,1.973,1.973,0,0,1-.378-.274,3.794,3.794,0,0,1-.775-1.077c0-.131.115-.079.414.186a5.046,5.046,0,0,0,.869.605.866.866,0,0,0,.4.064.666.666,0,0,0,.4-.07.4.4,0,0,0,.259-.376c.021-.274-.112-.342-.5-.242-.554.141-.844.038-1.355-.485-.247-.257-.335-.395-.3-.475s.137-.041.609.2a1.822,1.822,0,0,0,.907.319.654.654,0,0,0,.485-.162c.2-.173.252-.37.124-.5-.1-.1-.3-.1-.514.016a.979.979,0,0,1-.329.1,1.6,1.6,0,0,1-1.114-.424c-.171-.173-.253-.335-.206-.4s.125-.047.317.034a1.824,1.824,0,0,0,.838.207,1.372,1.372,0,0,0,.783-.207c.212-.117.351-.269.351-.374a.381.381,0,0,0-.057-.168c-.079-.131-.224-.126-.5.025a1.257,1.257,0,0,1-1.28.146,1.607,1.607,0,0,1-.5-.481c-.042-.087-.042-.1,0-.137s.085-.046.5.108a1.452,1.452,0,0,0,.541.105,1.429,1.429,0,0,0,.733-.121,1.008,1.008,0,0,0,.561-.685.324.324,0,0,0-.126-.262c-.121-.048-.188-.018-.374.181a1.291,1.291,0,0,1-1.044.417c-.49,0-.691-.079-.691-.267,0-.128.1-.206.3-.237a3.588,3.588,0,0,0,1.693-.779c.224-.21.309-.358.306-.537a.362.362,0,0,0-.248-.386c-.137-.039-.238.025-.38.248a2.067,2.067,0,0,1-.936.82,2.665,2.665,0,0,1-.775.265c-.026,0-.064-.056-.085-.12-.068-.19-.078-.192-.355-.074-.136.06-.419.17-.628.244-.419.152-.56.244-.66.443a.9.9,0,0,0-.06.464c0,.319-.01.356-.065.441a.33.33,0,0,1-.331.153c-.257,0-.4-.153-.414-.453a1.344,1.344,0,0,1,.146-.7,1.277,1.277,0,0,1,.506-.57,1.657,1.657,0,0,1,.82-.27.934.934,0,0,0,.693-.3.745.745,0,0,1-.6-.057c.027-.016.586-.014.659-.023a.766.766,0,0,0,.454-.187c.149-.108.249-.209.21-.279s-.149-.063-.225.025c-.039.045-.111.124-.162.184-.087.1-.107.109-.371.151a.732.732,0,0,1-.354,0c-.039-.028-.071-.062-.071-.075,0-.04.11-.1.213-.125a1.208,1.208,0,0,1,.375.082,1.312,1.312,0,0,0-.078-.178c-.066-.131-.183-.179-.479-.188-.206-.008-.275-.022-.318-.061a.64.64,0,0,0-.112-.084.338.338,0,0,0-.15-.032,1.95,1.95,0,0,0-.758.191.756.756,0,0,1-.384.086,1.468,1.468,0,0,1-.309-.03c-.219-.058-.261-.06-.261-.016s.188.227.329.3c.077.039.107.07.092.1a.861.861,0,0,1-.362.248c-.131.047-.128.1.016.171a.268.268,0,0,1,.118.086c0,.081-.274.264-.4.264-.154,0-.1.122.072.158.094.02.094.031.012.123a.269.269,0,0,1-.265.124c-.1-.023-.122.017-.063.126.047.083.047.089,0,.125a.214.214,0,0,1-.083.036h0l-.019,0-.024,0-.024,0-.019,0h0a.214.214,0,0,1-.083-.036c-.05-.036-.05-.042,0-.125.058-.109.037-.149-.064-.126s-.173-.018-.265-.124-.082-.1.012-.123c.168-.036.226-.158.072-.158-.125,0-.4-.183-.4-.264a.255.255,0,0,1,.118-.086c.143-.071.146-.124.015-.171A.854.854,0,0,1,19,13.857c-.015-.028.015-.059.093-.1.14-.072.329-.246.329-.3s-.042-.042-.262.016a1.468,1.468,0,0,1-.309.03.754.754,0,0,1-.384-.086,1.946,1.946,0,0,0-.758-.191.341.341,0,0,0-.15.032.675.675,0,0,0-.111.084c-.045.039-.112.053-.318.061-.3.009-.414.057-.48.188a1.087,1.087,0,0,0-.077.178,1.2,1.2,0,0,1,.374-.082c.1.021.214.085.214.125,0,.013-.034.047-.072.075a.732.732,0,0,1-.354,0c-.264-.042-.284-.051-.373-.151-.049-.06-.121-.139-.16-.184-.076-.088-.186-.1-.225-.025s.061.171.21.279a.766.766,0,0,0,.454.187c.073.009.632.007.659.023a.745.745,0,0,1-.6.057.934.934,0,0,0,.693.3,1.657,1.657,0,0,1,.82.27,1.277,1.277,0,0,1,.506.57,1.334,1.334,0,0,1,.146.7c-.016.3-.157.453-.414.453a.33.33,0,0,1-.331-.153c-.055-.085-.062-.122-.065-.441a.9.9,0,0,0-.06-.464c-.1-.2-.241-.291-.66-.443-.21-.074-.491-.184-.628-.244-.277-.118-.287-.116-.355.074-.022.064-.059.115-.085.12a2.642,2.642,0,0,1-.774-.265,2.077,2.077,0,0,1-.938-.82c-.141-.223-.242-.287-.379-.248a.36.36,0,0,0-.248.386c0,.179.082.327.306.537a3.6,3.6,0,0,0,1.691.779c.2.031.3.109.3.237,0,.188-.2.264-.692.267a1.29,1.29,0,0,1-1.043-.417c-.188-.2-.253-.229-.374-.181a.324.324,0,0,0-.126.262,1.008,1.008,0,0,0,.561.685,1.825,1.825,0,0,0,1.272.016c.416-.154.451-.159.5-.108s.039.05,0,.137a1.607,1.607,0,0,1-.5.481,1.257,1.257,0,0,1-1.28-.146c-.271-.151-.416-.156-.5-.025a.381.381,0,0,0-.057.168c0,.105.139.257.351.374a1.373,1.373,0,0,0,.784.207,1.824,1.824,0,0,0,.838-.207c.189-.081.267-.09.316-.034s-.035.223-.206.4a1.6,1.6,0,0,1-1.114.424.979.979,0,0,1-.329-.1c-.219-.112-.416-.12-.514-.016-.127.125-.078.322.124.5a.654.654,0,0,0,.485.162,1.828,1.828,0,0,0,.908-.319c.47-.239.58-.276.608-.2s-.055.218-.3.475c-.511.523-.8.626-1.355.485-.392-.1-.527-.032-.5.242a.4.4,0,0,0,.258.376.673.673,0,0,0,.4.07.869.869,0,0,0,.4-.064,5.088,5.088,0,0,0,.87-.605c.3-.265.412-.317.412-.186a3.786,3.786,0,0,1-.774,1.077,1.942,1.942,0,0,1-.378.274.691.691,0,0,1-.433.089c-.136,0-.336-.005-.443-.013-.237-.015-.314.032-.314.192s.206.346.423.41c.45.134.94-.1,1.547-.723.449-.464.514-.436.249.118a2.446,2.446,0,0,1-1,1.19c-.19.089-.239.095-.733.073-.217-.012-.316.047-.316.184a.262.262,0,0,0,.1.2.992.992,0,0,0,1.221.03,6.068,6.068,0,0,0,1.281-1.425c.193-.293.242-.33.308-.227.042.062.045.1.019.23a1.359,1.359,0,0,1-.567.925c-.19.123-.234.2-.2.31.044.143.314.212.479.125a2.314,2.314,0,0,0,.688-1.047c.173-.405.184-.421.27-.421.224,0,.146.477-.127.793-.121.14-.142.234-.055.313.071.067.178.042.368-.081a1.058,1.058,0,0,0,.4-.485c.163-.315.23-.234.1.118a2.474,2.474,0,0,1-1.246,1.269.741.741,0,0,0-.173.1.857.857,0,0,0,.124.156.841.841,0,0,1,.124.163,4.485,4.485,0,0,1-.825.375l-.4.156-.205-.132c-.285-.176-.442-.307-.475-.4a.376.376,0,0,0-.436-.231.379.379,0,0,1-.225-.012.365.365,0,0,0-.429.233.266.266,0,0,0,.1.008c.248-.011.273,0,.381.108a.454.454,0,0,0,.385.154c.055-.011.127.02.3.134a1.162,1.162,0,0,1,.228.168c0,.028-.13.028-.531-.006-.287-.022-.335-.032-.409-.1a.325.325,0,0,0-.368-.058.657.657,0,0,1-.222.053.39.39,0,0,0-.2.06.354.354,0,0,0-.17.216,1.074,1.074,0,0,0,.207-.016c.185-.029.2-.026.263.027a.678.678,0,0,0,.124.09.489.489,0,0,0,.364-.012,1.517,1.517,0,0,1,.488-.04c.227,0,.424,0,.438,0a.84.84,0,0,1-.2.136.54.54,0,0,1-.415.133c-.242,0-.379.07-.418.227-.014.056-.039.157-.055.219-.039.148-.054.171.054.426.117-.281.077-.2.113-.248.059-.087.081-.1.218-.111a.36.36,0,0,0,.351-.23c.048-.106.1-.151.353-.31.348-.217.325-.217.717-.033.193.092.265.139.3.2a.252.252,0,0,0,.319.121c.13-.038.187-.018.277.109.035.054.038.044.094.094a.631.631,0,0,0,.016-.167c0-.115-.014-.138-.16-.288-.172-.173-.276-.221-.4-.173-.057.022-.106.015-.254-.056-.166-.075-.23-.136-.143-.136.016,0,.284-.1.59-.222l.557-.218.082.067a1.132,1.132,0,0,0,.5.232c.1,0,.107-.007.138-.108a7.341,7.341,0,0,1,.543-1.057c.289-.453.449-.571.579-.426.04.048.052.1.049.275a2.487,2.487,0,0,1-.67,1.556,1.151,1.151,0,0,1-.681.35c-.205.028-.342.081-.342.134a.45.45,0,0,0,.524.3.617.617,0,0,0,.408-.13c.18-.109.207-.118.243-.082s.039.062.011.163c-.059.219-.212.318-.571.363s-.491.16-.369.333a.468.468,0,0,0,.408.17.917.917,0,0,0,.645-.331c.106-.1.2-.169.218-.159.039.023.036.247,0,.383a.781.781,0,0,1-.318.381c-.041.016-.147.05-.233.072-.3.084-.344.2-.132.345a.58.58,0,0,0,.536.019,1.816,1.816,0,0,0,.47-.442c.051-.092.1-.024.087.113a1.052,1.052,0,0,1-.227.456c-.12.167-.079.394.127.7a1.317,1.317,0,0,0,.327.378,1.317,1.317,0,0,0,.327-.378c.206-.307.248-.534.127-.7a1.052,1.052,0,0,1-.227-.456c-.016-.137.036-.205.085-.113a1.857,1.857,0,0,0,.472.442.576.576,0,0,0,.534-.019c.214-.143.17-.261-.131-.345-.085-.022-.191-.056-.233-.072a.785.785,0,0,1-.317-.381c-.041-.136-.043-.36,0-.383.017-.01.112.062.218.159a.917.917,0,0,0,.645.331.468.468,0,0,0,.408-.17c.122-.173,0-.286-.369-.333s-.512-.144-.57-.363c-.029-.1-.026-.127.01-.163s.063-.027.242.082a.62.62,0,0,0,.408.13.555.555,0,0,0,.3-.041.549.549,0,0,0,.221-.263c0-.053-.137-.106-.342-.134a1.146,1.146,0,0,1-.68-.35,2.488,2.488,0,0,1-.671-1.556c0-.173.007-.227.049-.275.13-.145.29-.027.579.426a7.341,7.341,0,0,1,.543,1.057c.031.1.041.108.138.108a1.132,1.132,0,0,0,.5-.232l.083-.067.557.218c.306.121.573.222.589.222.087,0,.023.061-.143.136-.149.071-.2.078-.254.056-.124-.048-.228,0-.4.173-.146.15-.16.173-.16.288a.632.632,0,0,0,.017.167c.055-.05.056-.04.094-.094.088-.127.146-.147.276-.109a.252.252,0,0,0,.32-.121c.032-.064.1-.111.3-.2.391-.184.37-.184.718.033.254.159.3.2.352.31a.36.36,0,0,0,.351.23c.138.01.16.024.218.111.036.053,0-.033.113.248.108-.255.093-.278.054-.426-.016-.062-.041-.163-.055-.219-.039-.157-.176-.23-.418-.227a.542.542,0,0,1-.415-.133c-.124-.075-.214-.136-.2-.136s.21,0,.437,0a1.526,1.526,0,0,1,.488.04.49.49,0,0,0,.364.012.678.678,0,0,0,.124-.09c.059-.053.078-.056.263-.027a1.078,1.078,0,0,0,.208.016.361.361,0,0,0-.17-.216M22,13.788c.059-.039-.05-.152.071-.147a.582.582,0,0,1,.125.025c.088.016.133.116.078.171a.568.568,0,0,1-.418.033c-.1-.28.073-.035.144-.082m-3.862.082a.565.565,0,0,1-.417-.033c-.056-.055-.011-.155.077-.171a.582.582,0,0,1,.125-.025c.121-.005.011.108.069.147s.249-.2.146.082"/></g></g></svg>