<?xml version="1.0" encoding="UTF-8"?><svg id="Layer_1" xmlns="http://www.w3.org/2000/svg" viewBox="0 0 40 40"><g><path d="m17.08,23.267l-.534.353c-.036.024-.045.073-.022.107.024.035.071.046.107.023l.767-.508c-.104.013-.208.025-.318.025Z" fill="#aa5520"/><path d="m16.093,23.18c-.038.019-.053.066-.033.104.018.039.065.054.103.034l.282-.144c-.061-.024-.121-.05-.172-.086l-.18.092Z" fill="#aa5520"/><path d="m16.99,24.048c-.028.032-.025.082.007.111.031.027.08.024.109-.008l.926-1.052c-.088.031-.182.057-.278.082l-.764.868Z" fill="#aa5520"/><path d="m18.253,23.009l-.29.568.571.311.211-.292.097.099.461-.955c-.11-.043-.214-.097-.314-.159-.167.128-.42.289-.735.428Z" fill="#aa5520"/><path d="m23.838,23.318c.038.019.085.004.104-.034.019-.038.004-.085-.033-.104l-.18-.092c-.051.036-.11.062-.172.086l.282.144Z" fill="#aa5520"/><path d="m22.603,23.242l.766.508c.036.023.084.012.107-.023.024-.034.014-.083-.022-.107l-.534-.353c-.11,0-.214-.012-.318-.025Z" fill="#aa5520"/><path d="m22.896,24.151c.027.031.076.035.108.008.032-.029.035-.078.007-.111l-.764-.867c-.096-.024-.189-.05-.277-.081l.926,1.051Z" fill="#aa5520"/><path d="m20.699,22.741l.46.954.097-.099.21.292.571-.311-.29-.567c-.315-.138-.568-.3-.735-.428-.1.062-.204.116-.314.159Z" fill="#aa5520"/></g><g><polygon points="20 22.399 19.999 22.399 19.999 22.399 20 22.399 20.002 22.399 20.002 22.399 20 22.399" fill="#ffde00"/><path d="m20.931,17.651c-.021.006-.04.011-.061.018-.754.231-.869.637-.869.637-.003.004-.008.008-.012.012.002,0,.012.006.012.006,0,0,.569-.274.93-.674Z" fill="#ffde00"/><path d="m19.287,17.689c-.056-.028-.154-.059-.267-.091.12.145.27.275.418.384.001-.125-.035-.235-.151-.293Z" fill="#ffde00"/><path d="m2,25.167h36v-10.333H2v10.333Zm22.146-7.208c-.038.058-.36.522-.36.522h-.464l.188-.261.636-.261Zm-1.164-.131l.519-.451-.176.61-.439.148.096-.307Zm-5.962,0l.095.307-.438-.148s-.158-.542-.176-.61l.519.451Zm-.53.392l.19.261h-.464s-.322-.464-.362-.522l.636.261Zm-.695.463l.179.246c.005-.045.009-.073.011-.08.019-.058.503.29.503.29l.115-.638.386.309.193-.608,1.151,1.1c.178-.267.409-.485.675-.646-.162-.112-.338-.304-.496-.535.047.157.012.325-.111.429-.17.145-.44.107-.602-.084-.161-.191-.155-.464.017-.609.158-.135.399-.106.563.052-.093-.163-.173-.334-.228-.504-.458-.089-.872-.156-.872-.156h.001s0,0,0,0c0,0,.002,0,.002,0,.01-.006.45-.28.81-.46.106-.612.739-1.156.867-1.064.1.071-.083.427-.155.879.236-.02.491-.022.581.107.134.191.325.457.612.423.002,0,.004,0,.006,0,.005,0,.011,0,.016,0,.274-.033.371.035.427-.192.058-.229.444-.306.76-.272-.064-.483-.267-.871-.161-.945.133-.097.838.513.887,1.165.343.128.673.274.706.333.013.014.007.024-.029.027-.144.01-.418.066-.752.149-.161.508-.541,1.041-.861,1.261.265.161.496.379.673.646l1.151-1.099.195.608.385-.309.116.638s.481-.348.5-.29c.003.007.006.035.012.08l.177-.245.637-.261c-.039.059-.362.522-.362.522h-.45c.037.334.129,1.479.161,2.164.033.67.055,1.613-.463,1.98l.18.092c.038.019.053.066.033.104-.018.039-.066.054-.104.034l-.282-.144c-.051.02-.097.047-.156.057-.165.03-.324.036-.478.036l.534.353c.036.024.046.073.022.107-.023.035-.071.046-.107.023l-.766-.508c-.123-.015-.242-.032-.356-.061l.764.867c.028.032.025.082-.007.111-.032.027-.081.024-.108-.008l-.926-1.051c-.079-.028-.15-.058-.222-.09l.29.567-.571.311-.21-.292-.097.099-.46-.954c-.101.04-.203.076-.311.099.019.175.142.716.193.952.056.268-.195.5-.195.5l-.298-1.419c-.03.001-.057.01-.087.01s-.058-.008-.087-.01l-.299,1.419s-.251-.232-.195-.5c.05-.236.174-.778.192-.953-.107-.022-.209-.059-.309-.099l-.461.955-.097-.099-.211.292-.571-.311.29-.568c-.072.031-.143.062-.221.09l-.926,1.052c-.029.031-.078.035-.109.008-.033-.029-.035-.078-.007-.111l.764-.868c-.114.029-.233.046-.356.061l-.767.508c-.036.023-.083.012-.107-.023-.023-.034-.014-.083.022-.107l.534-.353c-.155,0-.314-.007-.479-.036-.059-.011-.105-.037-.156-.057l-.282.144c-.038.019-.084.004-.103-.034-.02-.038-.004-.085.033-.104l.18-.092c-.518-.367-.496-1.31-.463-1.98.033-.685.125-1.83.161-2.164h-.451s-.322-.463-.361-.522l.635.261Zm6.487-.219c-.163.191-.431.229-.603.084-.171-.145-.179-.417-.018-.609.162-.192.432-.23.603-.085.172.146.18.418.018.609Z" fill="#ffde00"/><path d="m18.2,21.711l-.238.11s-.018-.055-.04-.134c-.09-.019-.162-.04-.162-.04,0,0-.076-.58-.079-1.178-.002-.599.137-1.062.137-1.062l.058.04v-.002s.192.135.192.135l.039-.444-.426-.42-.154.441-.251-.135s-.64,3.224.404,3.476c.692.167.973.036,1.086-.071-.233-.191-.425-.434-.567-.715Z" fill="#ffde00"/><path d="m22.319,22.497c1.045-.252.404-3.476.404-3.476l-.251.135-.153-.441-.428.42h0s.002,0,.002,0l.04.443.19-.134v.003s.06-.042.06-.042c0,0,.138.464.136,1.062-.002.598-.079,1.178-.079,1.178,0,0-.072.021-.163.04-.023.079-.04.134-.04.134l-.236-.109c-.142.281-.334.524-.567.715.114.107.395.236,1.085.07Z" fill="#ffde00"/></g><g><path d="m34,8H6c-2.209,0-4,1.791-4,4v2.833h36v-2.833c0-2.209-1.791-4-4-4Z" fill="#ea0000"/><polygon points="17.876 19.444 17.876 19.446 18.068 19.58 17.876 19.444" fill="#ea0000"/><path d="m19.068,22.014s0,0,0,0c.035.032.068.067.105.095,0,0,0,0,0,0-.037-.028-.07-.062-.105-.094Z" fill="#ea0000"/><path d="m19.603,22.33s-.002,0-.003-.001c.035.011.067.027.103.036,0,0,0,0,0,0-.034-.008-.066-.023-.099-.034Z" fill="#ea0000"/><path d="m19.315,22.199s-.001,0-.002-.001c.037.022.073.048.112.067,0,0,0,0,0,0-.038-.019-.073-.044-.11-.066Z" fill="#ea0000"/><path d="m18.694,21.51s0,0,0,0c.024.048.047.096.074.142,0,0,0,0,0,0-.027-.045-.05-.093-.074-.141Z" fill="#ea0000"/><polygon points="19.99 22.398 19.999 22.399 19.999 22.399 19.99 22.398" fill="#ea0000"/><path d="m15.809,21.107c-.033.67-.055,1.613.463,1.98.051.036.11.062.172.086.051.02.097.046.156.057.165.03.324.037.479.036.11,0,.214-.012.318-.025.123-.015.242-.032.356-.061.096-.024.19-.05.278-.082.078-.028.149-.058.221-.09.315-.139.568-.3.735-.428-.077-.048-.151-.098-.221-.156-.113.107-.394.238-1.086.071-1.044-.252-.404-3.476-.404-3.476l.251.135.154-.441.426.42.213.181c.004-.006.008-.01.012-.016l-1.151-1.1-.193.608-.386-.309-.115.638s-.484-.348-.503-.29c-.002.007-.006.036-.011.08,0,.004-.001.011-.002.015-.036.334-.128,1.479-.161,2.164Z" fill="#ea0000"/><path d="m18.859,21.782c.024.032.043.068.069.097-.025-.03-.045-.065-.068-.097,0,0,0,0,0,0Z" fill="#ea0000"/><path d="m17.963,21.82l.238-.11s0,0,0,0c-.101.005-.196-.007-.278-.024.023.079.04.134.04.134Z" fill="#ea0000"/><path d="m18.586,21.25h0c.012.038.025.076.039.113,0,0,0,0,0,0-.015-.037-.027-.075-.039-.113Z" fill="#ea0000"/><path d="m18.928,21.879c.007.008.016.014.023.023,0,0,0,0,0,0-.007-.008-.016-.014-.023-.023Z" fill="#ea0000"/><path d="m19.419,23.792c-.056.268.195.5.195.5l.299-1.419c-.102-.005-.204-.013-.302-.033-.018.175-.142.716-.192.953Z" fill="#ea0000"/><path d="m21.382,21.346h0c.012-.031.021-.063.032-.095h0c-.01.032-.02.064-.031.095Z" fill="#ea0000"/><path d="m21.057,21.894c.005-.006.011-.009.015-.015-.005.006-.011.009-.015.015h0Z" fill="#ea0000"/><path d="m21.241,21.639s0,0,0,0c.022-.037.04-.078.06-.118,0,0,0,0,0,0-.02.039-.037.08-.06.117Z" fill="#ea0000"/><path d="m21.072,21.879c.022-.026.039-.058.06-.086,0,0,0,0,0,0-.021.027-.038.059-.06.085Z" fill="#ea0000"/><path d="m20.581,22.263h0c.034-.016.065-.04.097-.059h-.002c-.032.02-.062.043-.095.059Z" fill="#ea0000"/><path d="m20.002,22.399s.008-.001.012-.001c-.004,0-.008.001-.012.001h0Z" fill="#ea0000"/><path d="m20.834,22.104s0,0,0,0c.032-.024.059-.054.089-.082,0,0,0,0,0,0-.03.027-.057.057-.088.081Z" fill="#ea0000"/><path d="m20.301,22.364h0c.032-.008.061-.022.092-.032-.001,0-.003,0-.004.001-.03.009-.057.023-.088.031Z" fill="#ea0000"/><path d="m20.386,24.291s.251-.232.195-.5c-.05-.236-.174-.778-.193-.952-.097.02-.199.028-.3.033l.298,1.419Z" fill="#ea0000"/><path d="m22.077,21.686c-.081.017-.175.029-.276.024,0,0,0,0,0,0l.236.109s.018-.055.04-.134Z" fill="#ea0000"/><path d="m21.891,19.137h0s.428-.422.428-.422l.153.441.251-.135s.641,3.224-.404,3.476c-.69.166-.971.037-1.085-.07-.07.058-.144.108-.221.155.167.127.421.289.735.428.072.032.144.062.222.09.088.031.182.057.277.081.113.029.233.046.356.061.104.013.208.024.318.025.155,0,.313-.006.478-.036.06-.011.105-.037.156-.057.062-.024.121-.05.172-.086.518-.368.495-1.31.463-1.98-.033-.685-.124-1.83-.161-2.164,0-.005-.001-.012-.002-.016-.005-.044-.009-.073-.012-.08-.019-.058-.5.29-.5.29l-.116-.638-.385.309-.195-.608-1.151,1.099c.004.006.009.01.012.016l.211-.179Z" fill="#ea0000"/><rect x="21.912" y="19.511" width=".232" height=".002" transform="translate(-2.585 3.383) rotate(-8.297)" fill="#ea0000"/><path d="m17.815,17.854c-.171.146-.177.418-.017.609.162.191.432.229.602.084.122-.104.157-.271.111-.429-.047-.069-.091-.139-.134-.213-.163-.158-.405-.187-.563-.052Z" fill="#ea0000"/></g><g><path d="m2,28v.004c0,2.207,1.789,3.996,3.995,3.996h28.009c2.207,0,3.995-1.789,3.995-3.996v-2.838H2v2.833Z" fill="#007e2a"/><path d="m17.876,19.446l-.058-.04s-.139.464-.137,1.062c.003.598.079,1.178.079,1.178,0,0,.072.021.162.04.081.017.176.029.278.024-.164-.324-.266-.691-.266-1.088,0-.488.145-.937.386-1.307l-.213-.181-.039.444-.192-.134Z" fill="#007e2a"/><path d="m18.515,20.981c.004.021.012.04.016.061h0c-.004-.021-.013-.04-.016-.061Z" fill="#007e2a"/><path d="m18.574,21.205s0,0,0,0c.004.015.007.03.012.045h0c-.005-.015-.007-.03-.012-.044Z" fill="#007e2a"/><path d="m21.474,21.022c.003-.014.008-.027.011-.042-.003.014-.008.027-.011.042h0Z" fill="#007e2a"/><path d="m21.414,21.251h0c.004-.012.006-.026.01-.038h0c-.004.012-.006.026-.01.038Z" fill="#007e2a"/><path d="m22.24,21.646s.077-.58.079-1.178c.002-.599-.136-1.062-.136-1.062l-.059.042-.19.132v-.002s-.04-.443-.04-.443h-.002s-.211.181-.211.181c.241.37.386.819.386,1.307,0,.396-.102.764-.266,1.088.101.005.195-.007.276-.024.091-.019.163-.04.163-.04Z" fill="#007e2a"/><path d="m19.438,17.982c-.148-.109-.298-.238-.418-.384-.236-.066-.559-.137-.87-.197.055.17.134.341.228.504.042.074.087.144.134.213.158.231.334.423.496.535.089-.054.18-.103.276-.142.072-.147.153-.353.155-.53Z" fill="#007e2a"/><path d="m21.931,16.884c-.049-.652-.754-1.261-.887-1.165-.105.075.097.462.161.945.004,0,.008,0,.012,0,.129.016.424.111.713.219Z" fill="#007e2a"/><path d="m18.802,16.598c.073-.451.255-.808.155-.879-.128-.092-.761.452-.867,1.064.166-.084.316-.149.395-.155.084-.007.198-.02.317-.03Z" fill="#007e2a"/><path d="m20,18.325s-.01-.005-.012-.006c-.014.018-.032.034-.048.051.02,0,.04-.007.06-.007.363,0,.698.111.994.291.319-.22.7-.753.861-1.261-.277.069-.595.157-.925.258-.361.399-.93.674-.93.674Z" fill="#007e2a"/><path d="m20.306,18.883c-.099-.024-.201-.036-.305-.036s-.207.012-.306.036c.099-.024.201-.036.306-.036s.207.012.305.036Z" fill="#007e2a"/></g><g><path d="m17.114,18.135l-.095-.307-.519-.451c.018.068.176.61.176.61l.438.148Z" fill="#fff"/><path d="m16.679,18.48l-.19-.261-.636-.261c.04.058.362.522.362.522h.464Z" fill="#fff"/><path d="m15.971,18.943s.001-.011.002-.015l-.179-.246-.635-.261c.039.059.361.522.361.522h.451Z" fill="#fff"/><path d="m24.479,18.943s.323-.463.362-.522l-.637.261-.177.245s.001.011.002.016h.45Z" fill="#fff"/><polygon points="23.5 17.376 22.981 17.828 22.886 18.135 23.325 17.987 23.5 17.376" fill="#fff"/><path d="m23.786,18.48s.322-.464.36-.522l-.636.261-.188.261h.464Z" fill="#fff"/><path d="m21.66,17.938c-.162.191-.154.464.018.609.172.145.44.107.603-.084.162-.191.155-.464-.018-.609-.171-.145-.441-.107-.603.085Z" fill="#fff"/><path d="m19.287,17.689c.116.058.153.168.151.293-.002.177-.083.382-.155.53,0,0,0,0,0,0,.123-.251.286-.682.004-.824-.347-.173-2.006-.443-2.009-.443h-.001s.414.068.872.157c.311.061.635.131.87.197.112.031.21.062.267.091Z" fill="#fff"/><path d="m20.677,16.993c.058-.232.308-.232.627-.193.277.033,1.25.326,1.332.417-.033-.059-.363-.205-.706-.333-.289-.108-.584-.203-.713-.219-.004,0-.008,0-.012,0-.317-.034-.702.043-.76.272-.057.227-.153.159-.427.192.286-.032.603.092.66-.135Z" fill="#fff"/><path d="m18.63,16.78c.251-.019.483-.096.618.097.087.124.255.203.44.237.021-.001.04-.005.062-.005.072,0,.137.008.197.02.016,0,.032.001.047,0-.287.033-.478-.233-.612-.423-.09-.129-.345-.127-.581-.107-.119.01-.233.023-.317.03-.079.006-.229.071-.395.155-.36.181-.8.454-.81.46.01-.004,1.1-.444,1.35-.463Z" fill="#fff"/></g><path d="m19.287,17.688c.282.142.119.573-.004.824.206-.084.426-.134.657-.141.017-.017.034-.034.048-.051.003-.004.009-.008.012-.012,0,0,.115-.406.869-.637.021-.006.04-.011.061-.018.33-.101.648-.189.925-.258.334-.083.608-.139.752-.149.036-.003.042-.013.029-.027-.082-.092-1.055-.384-1.332-.417-.319-.039-.569-.039-.627.193-.057.227-.374.103-.66.135-.005,0-.011,0-.016,0-.002,0-.004,0-.006,0-.016.002-.032,0-.047,0,.144.029.246.086.246.153,0,.097-.199.175-.443.175-.246,0-.445-.078-.445-.175,0-.087.168-.156.383-.168-.185-.034-.354-.112-.44-.237-.135-.193-.367-.116-.618-.097-.249.019-1.339.459-1.35.463,0,0-.002,0-.002,0h0s1.661.271,2.009.443Z" fill="#010101"/><path d="m18.515,20.265c-.02.115-.031.235-.031.358,0,.048.009.093.012.14.224-.088.498-.214.675-.372.093-.083.18-.159.263-.228-.052-.094-.09-.197-.09-.312,0-.363.294-.657.657-.657s.656.295.656.657c0,.117-.039.221-.093.316.309.21.672.463.943.565.002-.037.009-.072.009-.109,0-.123-.011-.242-.031-.358-.04-.231-.119-.446-.228-.635-.218-.378-.557-.653-.951-.747-.099-.024-.201-.036-.305-.036s-.207.012-.306.036c-.395.095-.734.369-.952.747-.109.189-.188.404-.228.635Z" fill="#f39e00"/><path d="m20.564,20.167c.054-.095.093-.199.093-.316,0-.362-.294-.657-.656-.657s-.657.294-.657.657c0,.115.038.218.09.312.224-.187.412-.312.567-.312.091,0,.309.144.563.316Z" fill="#de001b"/><path d="m20.564,20.167c-.254-.173-.472-.316-.563-.316-.155,0-.342.125-.567.312-.083.069-.17.145-.263.228-.177.158-.45.284-.675.372.003.037.005.073.009.11.007.057.014.114.026.17h0c.012.056.027.109.043.163,0,0,0,0,0,0,.016.053.031.106.051.157,0,0,0,0,0,0,.02.051.044.099.068.147,0,0,0,0,0,0,.024.048.046.096.074.141,0,0,0,0,0,0,.028.046.06.088.092.131,0,0,0,0,0,0,.03.041.059.083.092.12,0,0,0,0,0,0,.036.04.076.075.115.111,0,0,0,0,0,0,.035.032.068.066.105.094,0,0,0,0,0,0,.044.034.093.061.14.089,0,0,.001,0,.002.001.037.022.071.047.11.066,0,0,0,0,0,0,.056.027.116.044.175.063.001,0,.002,0,.003.001.034.011.065.026.099.034,0,0,0,0,0,0,.093.022.189.033.287.034.003,0,.006,0,.009,0,0,0,0,0,.001,0s0,0,.001,0c.004,0,.008-.001.012-.001.098,0,.194-.012.287-.034h0c.03-.007.058-.021.088-.031.001,0,.003,0,.004-.001.064-.02.128-.039.188-.068h0c.033-.016.063-.039.095-.058h.002c.053-.033.107-.063.157-.101t0,0c.031-.024.059-.054.088-.081,0,0,0,0,0,0,.046-.042.092-.082.133-.129h0c.027-.031.05-.067.075-.1,0,0,0,0,0,0,.038-.05.076-.1.109-.155,0,0,0,0,0,0,.022-.037.04-.078.06-.117,0,0,0,0,0,0,.029-.057.058-.114.081-.175h0c.016-.043.028-.089.042-.133h0c.019-.062.037-.125.05-.19h0c.01-.048.014-.098.02-.148.006-.047.01-.094.012-.142-.271-.102-.634-.355-.943-.565Zm-.36,1.981c-.112,0-.203-.147-.203-.329s.09-.328.203-.328c.112,0,.202.146.202.328s-.09.329-.202.329Zm.492,0c0,.023-.018.04-.039.04s-.039-.017-.039-.04v-.803c-.171-.016-.308-.138-.308-.299,0-.17.152-.309.337-.309.187.002.338.139.338.309,0,.154-.129.268-.29.292v.81Z" fill="#008e2b"/><path d="m19.688,17.114c-.215.012-.383.081-.383.168,0,.097.199.175.445.175.244,0,.443-.078.443-.175,0-.067-.102-.124-.246-.153-.06-.012-.125-.02-.197-.02-.022,0-.041.003-.062.005Z" fill="#f39e00"/><g><path d="m20.618,21.346v.803c0,.023.018.04.039.04s.039-.017.039-.04v-.81c-.018.003-.029.018-.048.018-.011,0-.018-.01-.029-.011Z" fill="#ba7b00"/><path d="m20.203,21.492c-.112,0-.203.146-.203.328s.09.329.203.329c.112,0,.202-.147.202-.329s-.09-.328-.202-.328Z" fill="#ba7b00"/></g><path d="m20.985,21.047c0-.17-.151-.307-.338-.309-.185,0-.337.139-.337.309,0,.161.137.283.308.299.011,0,.018.011.029.011.019,0,.03-.016.048-.018.161-.024.29-.138.29-.292Z" fill="#00ae5d"/><path d="m17.934,20.623c0,.397.102.764.266,1.088,0,0,0,0,0,0,.142.281.334.524.567.715.07.058.144.108.221.156.1.062.204.116.314.159.101.04.202.076.309.099.098.021.199.029.302.033.03.001.057.01.087.01s.058-.008.087-.01c.102-.005.203-.013.3-.033.108-.022.21-.059.311-.099.11-.043.213-.097.314-.159.077-.048.151-.098.221-.155.233-.191.425-.434.567-.715,0,0,0,0,0,0,.164-.324.266-.691.266-1.088,0-.488-.145-.937-.386-1.307-.004-.006-.008-.011-.012-.016-.177-.267-.408-.485-.673-.646-.296-.179-.632-.291-.994-.291-.021,0-.04.006-.06.007-.231.007-.451.058-.657.141,0,0,0,0,0,0-.096.039-.187.088-.276.142-.266.161-.497.379-.675.646-.004.006-.009.011-.012.016-.241.369-.386.819-.386,1.307Zm1.76-1.74c.099-.024.201-.036.306-.036s.207.012.305.036c.395.095.733.369.951.747.109.189.188.404.228.635.02.115.031.235.031.358,0,.037-.007.073-.009.109-.003.048-.007.095-.012.142-.004.035-.003.072-.009.106-.003.014-.008.027-.011.042-.013.065-.032.128-.05.19-.004.012-.006.026-.01.038-.01.032-.02.064-.032.095-.023.061-.052.118-.081.175-.02.04-.038.08-.06.118-.033.055-.071.104-.109.155-.021.028-.038.06-.06.086-.005.006-.011.009-.015.015-.041.047-.088.087-.133.129-.03.027-.057.057-.089.082-.049.038-.103.068-.157.1-.033.019-.063.043-.097.059-.06.029-.124.048-.188.068-.031.01-.06.025-.092.032-.093.022-.189.033-.287.034-.004,0-.008.001-.012.001,0,0,0,0-.001,0s0,0-.001,0c-.003,0-.006,0-.009,0-.098,0-.194-.012-.287-.034-.036-.008-.068-.024-.103-.036-.059-.019-.119-.036-.175-.063-.039-.019-.074-.045-.112-.067-.048-.028-.096-.055-.14-.089-.037-.029-.07-.063-.105-.095-.039-.036-.08-.071-.115-.111-.007-.008-.016-.014-.023-.023-.025-.03-.045-.066-.069-.097-.032-.043-.064-.084-.092-.131-.027-.045-.05-.094-.074-.142-.024-.048-.048-.096-.068-.147-.015-.037-.027-.075-.039-.113-.005-.015-.007-.03-.012-.045-.016-.053-.031-.107-.043-.163-.004-.021-.013-.04-.016-.061-.006-.035-.005-.073-.009-.108-.004-.036-.007-.073-.009-.11-.003-.047-.012-.092-.012-.14,0-.123.011-.242.031-.358.04-.231.119-.446.228-.635.218-.378.557-.653.952-.747Z" fill="#00a5e2"/></svg>