<svg id="Layer_1" data-name="Layer 1" xmlns="http://www.w3.org/2000/svg" xmlns:xlink="http://www.w3.org/1999/xlink" viewBox="0 0 40 40"><defs><style>.cls-1{fill:none;}.cls-2{clip-path:url(#clip-path);}.cls-3{fill:#e5e8eb;}.cls-4{clip-path:url(#clip-path-2);}.cls-5{fill:#327c40;}.cls-6{fill:#3e823e;}</style><clipPath id="clip-path"><rect id="SVGID" class="cls-1" x="1.427" y="9.018" width="37.147" height="21.965" rx="4"/></clipPath><clipPath id="clip-path-2"><rect id="SVGID-2" data-name="SVGID" class="cls-1" x="1.427" y="9.018" width="37.147" height="21.965"/></clipPath></defs><g class="cls-2"><rect class="cls-3" x="12.732" y="9.018" width="14.536" height="21.965"/><g class="cls-4"><path class="cls-5" d="M19.989,11.439c-.032.357-.064.715-.1,1.072l-.356.054s.247.141.291.284a.06.06,0,0,1-.006.055.053.053,0,0,1-.013.013c-.072.056-.283.03-.283.03s.28.241.3.328v.012l0,0-.01.014a1.046,1.046,0,0,1-.376.078s.344.251.366.393a.6.6,0,0,1,0,.217c-.024-.021-.58-.5-.939-.358a.074.074,0,0,0-.033.028.061.061,0,0,0,0,.014c.026.078.532.16.886.472-.009.078-1.008-.249-1.044-.044.03.057,1.074.211,1.152.35-.385.014-1.179-.087-1.152.042-.081.149.75.065,1.1.187.1.117.092.216-.086.229-.335-.164-1.087-.284-1.089-.076h0v0l.006,0c.084.043.785.022,1.048.2-.374.086-1.641-.175-1.648-.047a.688.688,0,0,0,.58.309,2.809,2.809,0,0,1,1.2.251v.01c-.024.076-1.051-.233-1.446-.042-.41.2,1.175.076,1.433.317s-.517-.022-.517-.022a5.887,5.887,0,0,0-1.239-.076,1.667,1.667,0,0,0-.345.251s.107.218.215.175a.053.053,0,0,1,.034-.006h0l0,0c0,.033-.074.128-.074.128A6.738,6.738,0,0,1,19.7,17c.334.327-1.919-.514-1.919-.514s-.905.339.054.361a.178.178,0,0,0,.054.262s1.595.339,1.758.6-1.09-.252-1.37-.393a1.7,1.7,0,0,0-1.066.136v0h0v0h0v0h0l0,0v0c.048.053.384.127.394.22h0a.045.045,0,0,1,0,.016c-.042.083-.443.118-.46.2l0,0a15.631,15.631,0,0,1,2.556.973c.539.459-1.584-.548-1.584-.548s.118.165,0,.208-.54-.612-1.23-.208c-.126.168.6.3.788.318-.064.164-.119.219.14.383a.339.339,0,0,1,.05.034h0v0h0c-.039-.007-.5-.249-.553-.259h0c0,.023.054.285.054.285a.609.609,0,0,0-.8-.055c0,.012,0,.2.269.317-.153.317.173.218.691.513-.77-.2-.831.176-.281.263s2.059.141,2.415.612c.075.1.095.148.08.164-.059.055-.605-.345-.684-.36h0l0,.006a1.523,1.523,0,0,0-.037.232,2.338,2.338,0,0,0-.716-.313c-.022.044-.018.106-.039.15a1.39,1.39,0,0,0-.83-.328c-.014.058-.029.116-.043.175,0,0-.3-.382-.895,0-.331.24,1.25.087,1.509.371s.054.327.054.327l-.646-.24s-.766-.142-.981.033,3.148.6,3.245,1.071c.065.254-.791-.267-1.531-.491l-.087.25a1.324,1.324,0,0,0-.625-.349v0c0,.036.066.291.066.291s-.829-.393-1.249-.185,1.465.316,1.638.513c.018.022.026.038.025.047l0,.006c-.041.062-.6-.167-.659-.053-.065.131-.981-.24-.97-.065a.4.4,0,0,0,.13.272s1.907.186,1.972.416-1.056-.131-1.056-.131-.108.164-.022.24l.007.007h0c-.038-.013-.646-.416-.587-.107-.238-.1-.851-.393-.765-.163s1.685.548,1.732.557c-.041,0-.718.061-.688.241-.907-.56-.9-.224-.884-.2h0c-.051-.008-1.167-.29-.279.2.475.261.591.363.594.4v.007h0v0h0v0a.188.188,0,0,1-.076.007h0a1.134,1.134,0,0,1,.079.245l0,0h0a5.1,5.1,0,0,0-.828-.35c-.205-.022-1.176.273-.14.732s1.67-.109,2.241-.044.842.164.788.35-.585-.609-1.143.078c-.634-.127-1.064-.2-.737.272-1.035-.392-1.668.12-.364.328a5.072,5.072,0,0,0,2.07-.318s.216.406.53.121c.3-.27.321.074.332.107h0v0h0c.023-.006.3-.132.3-.132h.075v2.622l1.045.011a11.147,11.147,0,0,1-.151-2.59c.178-.3.346-.264.356-.261a4.076,4.076,0,0,0,.755.174h0l0,0,0,0h0c.056-.051,0-.253.345-.222.106-.039.065-.211.134-.254l.005,0,.009,0,.014,0c.108-.011,2.188.59,2.641.021-.119-.316-.529-.022-.637-.01s-.507-.2-.744,0a4.36,4.36,0,0,0-1.2-.273c-.129-.131,2.34.065,2.48-.033.291-.295-.539-.263-.668-.164a.722.722,0,0,0-.7-.033c-.085-.2-.886-.116-1.332-.174-.142-.085-.119-.134-.022-.187.931.041,1.856.164,2.792.121.253-.334-.318-.459-.668-.176-.206-.342-.625-.01-.906-.043s-.151-.382.205-.327a1.681,1.681,0,0,0,1.11-.187c.119-.163-.071-.329-.658-.174-.2-.2-.635,0-.839.066a2.022,2.022,0,0,0-1.122.032c-.211-.132,1.11-.35,1.11-.35a3.443,3.443,0,0,0,.96-.142c.771-.418-.012-.463-.416-.158-.251-.2-.49.016-.716.093a2.122,2.122,0,0,1-.653.1h0v0h0v0a7.246,7.246,0,0,1,.613-.412s.754-.055.905-.077c.093-.013.414-.168.414-.225,0-.036-.137-.032-.544.072-.366.033-.582.012-.721.023a.842.842,0,0,1-.339-.069l0,0s0-.008,0-.013l0,0a1.7,1.7,0,0,1,.412-.077,9.608,9.608,0,0,0,1.161-.159h0v0h0c.022-.451-.924-.243-.949-.239,0-.318-.854,0-.894,0h0a.1.1,0,0,1-.055-.067.071.071,0,0,1,0-.025c.021-.065.151-.116.151-.116a3.308,3.308,0,0,0,.685-.153s.669-.005.748-.186c-.164-.46-1.416.081-1.584.164a.074.074,0,0,1-.064-.023c-.055-.082.216-.35.226-.359h0a2.26,2.26,0,0,0,1.519-.721c.034-.405-.571.229-.571.229-.045-.526-.657.034-1.013.077s-.366-.163-.118-.2.528-.011.668-.394.561.022.636-.12-.138-.255-.151-.262.313-.329-.193-.318a10.159,10.159,0,0,1-1.164-.065,3.065,3.065,0,0,1,1.023-.2c.5.011.226-.36-.248-.36a1.385,1.385,0,0,1-.722-.164l.808-.306c-.017-.076-.036-.152-.053-.229,0,0,.473-.383-.2-.3l-.744.1s-1.316.2-1.346.207h0c-.012,0-.143-.042-.167-.094l0-.005v-.016c.005-.026.045-.055.149-.081a8.171,8.171,0,0,1,1.747-.273.049.049,0,0,0,.051,0c.069-.064-.159-.465-.72-.523a1.862,1.862,0,0,0-1.045.164s-.421-.153-.033-.285a2.129,2.129,0,0,1,1,.045s.689-.208.119-.3a2.7,2.7,0,0,0-1.014.088c-.105-.132.9-.164.959-.272-.105-.2-.725,0-1.088,0-.154-.067-.165-.175.01-.242.371-.014.718.008,1.089-.007-.011-.2,0-.438-.011-.637a6.547,6.547,0,0,0-1.283.05c.07-.218,1.084-.275,1.2-.334.233-.295-.971-.005-1,0-.214-.032-.2-.169-.065-.251.312-.037,1.013.046.96-.169s-.486-.094-.669-.05a1.579,1.579,0,0,1-.453.011c-.118-.16,1.057-.1,1.046-.218-.015-.142-.744-.045-.992-.033-.191-.134.9-.223.947-.24h0c.041-.364-.754,0-.905,0a.094.094,0,0,1-.059-.018l-.01-.01c-.051-.061-.006-.2-.006-.2a2.141,2.141,0,0,0,.3-.16h0v0h0l0,0a1.177,1.177,0,0,0-.253-.094h0v0h0a1.315,1.315,0,0,1,0-.248s.224-.171.238-.238v-.01h0v0h0v0h0v0h0l0,0h0c-.057-.027-.292.055-.292.055v-.218s.206-.023.227-.121a.032.032,0,0,0,0-.017v-.007l-.006-.014h0c-.046-.062-.238-.07-.238-.07-.036-.383-.071-.765-.108-1.148ZM19.8,15.185v.15a.912.912,0,0,1-.286-.051h0v0h0v0h0v0h0l0,0v0h0l.006-.006a.76.76,0,0,1,.275-.065h0Zm.343.2c.009,0,.482,0,.523.067v0l0,0v.007l0,0c-.036.078-.514.125-.514.125Zm-.026.3h0c.028.008.224.014.248.048h0v0h0v0h0c-.04.051-.221.064-.23.064h0v0a.889.889,0,0,1-.016-.125Zm-1.444.4a3.7,3.7,0,0,1,1.037.19c0,.012.012.164.007.188v0h0c-.009,0-1.047-.307-1.142-.3h-.015l-.009,0,0,0h0l-.009-.007v-.008h0v-.009l.007-.011a.207.207,0,0,1,.131-.036Zm.539.447a5.155,5.155,0,0,1,.584.086.767.767,0,0,1,0,.214v0H19.78c-.033-.008-.619-.2-.641-.274v0l0-.009h0l0,0a.127.127,0,0,1,.064-.015Zm1.629.416c.158,0,.269.01.227.059a2.85,2.85,0,0,1-.892.241L20.159,17c.017,0,.413-.055.679-.059Zm-2.233.754a3.358,3.358,0,0,1,1.129.362l0,.174s-1.165-.358-1.206-.417c-.019-.03-.056-.112.072-.119Zm2.282.26a.1.1,0,0,1,.069.011h0v0l0,0a.036.036,0,0,1-.011.018,2.2,2.2,0,0,1-.69.247v-.16h0c.028,0,.454-.115.628-.124Zm-2.553.021a3.823,3.823,0,0,1,1.446.506s.008.15,0,.164h0c-.052-.017-1.583-.562-1.583-.562s-.024-.1.134-.108Zm2.915.682c.044,0,.073,0,.08.011l0,.006s0,.01-.013.017a4.264,4.264,0,0,1-1.055.284h0l0,0h0v0a.781.781,0,0,1,.014-.147h0c.057,0,.735-.153.974-.163Zm-2.6.4a4.719,4.719,0,0,1,1.1.369h0c0,.016,0,.151-.007.172v0h0a9.3,9.3,0,0,0-1.164-.434c-.03-.074,0-.105.071-.109Zm2.354.1a.309.309,0,0,1,.108.007l0,0h0v0h0l0,0a4.947,4.947,0,0,1-.835.225s0-.142,0-.156c.021,0,.508-.078.732-.089Zm-.06.49a.192.192,0,0,1,.1.011h0v0h0v0h0l0,0,0,0a3.98,3.98,0,0,1-.72.208s-.019-.156-.019-.16c.019,0,.446-.068.646-.075Zm-2.7.04a4.7,4.7,0,0,1,1.48.4l.032.186s-1.571-.513-1.616-.529v-.007a.037.037,0,0,1,.008-.02.132.132,0,0,1,.1-.032Zm2.07.406a1.181,1.181,0,0,1,.331.055h0v0h0v.006h0v0h0v0h0v0c-.041.065-.317.088-.317.088s-.013-.126-.02-.165Zm.638.365c.061,0,.1.006.115.024s-.006.03-.034.055a1.579,1.579,0,0,1-.717.224v-.206h0a5.33,5.33,0,0,1,.635-.1Zm.626.192c.077,0,.111.011.122.029l0,.006v.01a.141.141,0,0,1-.047.071c-.076.073-1.3.466-1.3.466s-.01-.261-.006-.284a6.137,6.137,0,0,1,1.227-.3Zm-.791.738a.271.271,0,0,1,.157.021l0,0v.014l0,.011c-.105.1-.613.12-.613.12v-.13c.095,0,.308-.034.457-.04Zm.509.213c.025,0,.038,0,.041.01v0a.075.075,0,0,1-.023.026,4.164,4.164,0,0,1-.967.3s.01-.1.014-.128c.021,0,.752-.2.935-.208Zm.428.162a.341.341,0,0,1,.2.042h0v0a.347.347,0,0,1-.262.22,7.944,7.944,0,0,0-1.337.3h0v0c0-.02.013-.13.013-.13a3.475,3.475,0,0,1,1.387-.434ZM19,22.385H19a.917.917,0,0,1,.681.3c-.092.163-.819-.2-.743-.282A.089.089,0,0,1,19,22.385Zm2.638.031a.077.077,0,0,1,.047.011.04.04,0,0,1,.013.013.058.058,0,0,1,.008.028c-.048.076-.3.043-.312.041a.784.784,0,0,1,.244-.093Zm-.986.508a.141.141,0,0,1,.078.011l.006.006h0l0,0v0a.046.046,0,0,1-.006.036c-.072.137-.388.086-.388.086v-.1h0a3.047,3.047,0,0,1,.3-.052Zm-1.863.361a.532.532,0,0,1,.272.112,2.257,2.257,0,0,1,.606.032v.183h0a1.977,1.977,0,0,1-.622-.082.605.605,0,0,1-.352-.2v-.01h0v0h0a.245.245,0,0,1,.1-.03Zm2.089.09c.075,0,.106.02.048.1-.163.233-.583.137-.583.137l-.018-.144c.149,0,.42-.089.553-.1Zm-1.57.473a1.075,1.075,0,0,1,.355.061c0,.009.09.183.014.241l-.01.006c-.095.051-.548-.04-.575-.224a.314.314,0,0,1,.216-.084Zm-1.752.091a.761.761,0,0,1,.349.1h0c0,.006-.006.176-.006.176a.782.782,0,0,1-.405-.263.311.311,0,0,1,.061-.01Zm2.96.024c.172,0,.382.04.412.1a.034.034,0,0,1-.007.039c-.085.106-.573.01-.573.01v-.128a.618.618,0,0,1,.168-.02Z"/><path class="cls-6" d="M20.581,27.819h0l-1.045-.01-.023-2.646-.052.024h0s-.272.124-.3.131l-.034-.042c-.025-.128-.105-.241-.29-.073a.356.356,0,0,1-.238.107c-.2,0-.317-.215-.327-.234a4.469,4.469,0,0,1-2.05.329c-.485-.077-.767-.207-.756-.349.008-.1.171-.17.415-.17a2.055,2.055,0,0,1,.713.145c-.132-.116-.165-.218-.13-.286.065-.126.38-.083.863.014a.621.621,0,0,1,.5-.285.928.928,0,0,1,.472.17.4.4,0,0,0,.133.066.1.1,0,0,0,0-.11c-.066-.1-.3-.171-.756-.222a1.759,1.759,0,0,0-.633.093,2.42,2.42,0,0,1-1.615-.052c-.349-.155-.51-.309-.479-.458.042-.208.448-.319.605-.319a3.1,3.1,0,0,1,.747.3c.06.03.1.051.111.054a1.575,1.575,0,0,1-.1-.215l.032-.039h0l.066.017L16.4,23.74c0-.014-.05-.089-.58-.38-.328-.18-.363-.243-.353-.284s.069-.046.113-.046a2.89,2.89,0,0,1,.492.08l.01.008a.11.11,0,0,1,.012-.052.15.15,0,0,1,.149-.072,1.711,1.711,0,0,1,.735.308.055.055,0,0,1,.014-.036,1.031,1.031,0,0,1,.539-.175c-.408-.086-1.527-.34-1.6-.542a.089.089,0,0,1,0-.085c.061-.092.415.057.667.165l.127.054a.053.053,0,0,1-.015-.086c.08-.1.409.082.551.164l.035.02c-.105-.063,0-.224,0-.231a5.094,5.094,0,0,0,.947.2c.078,0,.1-.016.1-.023-.042-.179-1.219-.35-1.95-.421a.4.4,0,0,1-.151-.295.121.121,0,0,1,.015-.044c.052-.057.26-.012.5.043a1.258,1.258,0,0,0,.459.054c.037-.073.24-.034.426.011a1.281,1.281,0,0,0,.218.041A2.14,2.14,0,0,0,17,21.871c-.518-.089-.836-.148-.849-.246-.007-.049.053-.079.074-.088a.7.7,0,0,1,.315-.063,2.67,2.67,0,0,1,.951.247.637.637,0,0,1-.1-.269,1.173,1.173,0,0,1,.666.329l.048-.242a5.307,5.307,0,0,1,.9.327,2.466,2.466,0,0,0,.594.217l.032-.04c-.054-.262-1.264-.528-2.147-.723-.789-.174-1.089-.248-1.107-.327a.085.085,0,0,1,.017-.044.719.719,0,0,1,.428-.093,3.544,3.544,0,0,1,.572.056l.649.239s.034-.014.044-.049.006-.1-.122-.239a2.033,2.033,0,0,0-.962-.2c-.377-.026-.575-.044-.6-.12-.013-.044.037-.08.053-.091a.952.952,0,0,1,.509-.175.547.547,0,0,1,.418.179l-.02-.079L17.4,20.3a1.313,1.313,0,0,1,.852.3.064.064,0,0,1,0-.048.284.284,0,0,1,.022-.082,2.007,2.007,0,0,1,.741.3.409.409,0,0,1,.012-.217c.063-.015.143.035.28.121a1.851,1.851,0,0,0,.414.224.445.445,0,0,0-.081-.132c-.279-.368-1.3-.478-1.97-.551-.171-.018-.32-.034-.431-.052-.233-.037-.389-.135-.382-.238s.21-.159.5-.11a3.24,3.24,0,0,0-.309-.12c-.139-.047-.231-.078-.261-.151a.23.23,0,0,1,.03-.19c-.283-.095-.271-.306-.271-.308a.6.6,0,0,1,.834.036.655.655,0,0,1-.09-.265c.057-.019.16.032.325.114l.064.031c-.1-.095-.084-.163-.038-.275l.017-.042c-.1.02-.728-.078-.8-.238a.082.082,0,0,1,.013-.085.892.892,0,0,1,.463-.141,1.066,1.066,0,0,1,.633.258.4.4,0,0,0,.139.084c.024-.008.036-.019.04-.034.013-.043-.03-.116-.046-.139a.024.024,0,0,1,0-.029.022.022,0,0,1,.028-.006,11.956,11.956,0,0,0,1.629.665c.012.006,0-.016-.07-.078a7.07,7.07,0,0,0-1.956-.765c-.534-.156-.608-.183-.608-.226.013-.06.1-.086.242-.124.087-.024.206-.056.222-.088,0-.046-.146-.1-.231-.134a.5.5,0,0,1-.156-.076.4.4,0,0,1-.006-.045,1.873,1.873,0,0,1,.826-.192.632.632,0,0,1,.27.047,5.693,5.693,0,0,0,1.307.465l.052-.05-.02.012a5.172,5.172,0,0,0-1.743-.59.225.225,0,0,1-.107-.141.205.205,0,0,1,.039-.157c-.374.029-.435-.034-.444-.086-.019-.117.3-.247.4-.284a14.92,14.92,0,0,0,1.9.588,5.909,5.909,0,0,0-1.828-.728c.025-.083.057-.135.057-.149l-.047.024c-.109,0-.2-.174-.207-.194a1.08,1.08,0,0,1,.356-.282.527.527,0,0,1,.2-.024c.356,0,1.043.1,1.05.1a2.544,2.544,0,0,0,.508.124c.035,0,.035-.019-.01-.061a2.323,2.323,0,0,0-.953-.169c-.4-.026-.543-.041-.554-.1-.007-.038.037-.064.08-.085a2.609,2.609,0,0,1,1.121.015,2.476,2.476,0,0,0,.29.038,2.9,2.9,0,0,0-1.118-.227h-.056a.721.721,0,0,1-.58-.321c0-.064.078-.072.162-.072.129,0,.332.022.551.045a4.41,4.41,0,0,0,.95.039,3.5,3.5,0,0,0-.8-.122,1.025,1.025,0,0,1-.252-.033c-.021-.09.029-.163.264-.163a2.269,2.269,0,0,1,.837.189c.058-.008.1-.027.114-.056s-.008-.081-.056-.137a2.908,2.908,0,0,0-.623-.071c-.284-.015-.446-.026-.48-.087a.17.17,0,0,1,0-.055c.037-.063.127-.079.306-.079.115,0,.254.006.392.013s.276.013.39.013l.084,0a6.219,6.219,0,0,0-.772-.2c-.3-.068-.385-.088-.4-.117.014-.1.148-.1.193-.1a3.267,3.267,0,0,1,.544.078,2.12,2.12,0,0,0,.291.046,2.339,2.339,0,0,0-.651-.333c-.143-.055-.207-.081-.22-.12.01-.047.025-.059.046-.07.358-.14.943.343.964.362a.667.667,0,0,1-.038-.2c-.017-.107-.263-.308-.357-.377a2.9,2.9,0,0,0,.375-.115,1.171,1.171,0,0,0-.291-.323c.018-.041.066-.036.125-.036a.3.3,0,0,0,.159-.03c-.03-.175-.267-.313-.269-.314l.186-.071.178-.027.077-1.05a.023.023,0,0,1,.023-.021h0a.023.023,0,0,1,.023.021l.108,1.148c0-.021.183-.011.234.058l.013.059c-.023.11-.223.135-.246.138l.019.185a.451.451,0,0,1,.236-.074l.044.008.024.038c-.015.084-.209.234-.247.264,0,.082,0,.2,0,.219a.824.824,0,0,1,.252.089c-.009.071-.194.159-.3.208,0,.021-.021.123.014.165s.121.009.271-.036c.25-.075.582-.156.676-.049a.158.158,0,0,1,.032.13.327.327,0,0,1-.166.042c-.522.063-.792.119-.8.166a1.318,1.318,0,0,0,.2-.008c.153-.012.341-.028.5-.028.214,0,.313.03.32.1-.053.084-.232.1-.522.118a1.506,1.506,0,0,0-.532.081,2.018,2.018,0,0,0,.433-.012A2.064,2.064,0,0,1,21,14.374c.153,0,.241.046.259.137a.1.1,0,0,1-.017.085c-.074.1-.355.1-.627.1-.126,0-.247,0-.337.012-.051.034-.085.082-.077.121s.06.071.143.083c.673-.151,1-.174,1.045-.07.014.03,0,.066-.028.108a1.28,1.28,0,0,1-.327.069c-.308.045-.822.122-.866.259a2.266,2.266,0,0,1,.354-.062,3.182,3.182,0,0,1,.912-.019,1.632,1.632,0,0,1,.024.335c0,.111,0,.222,0,.324a1.37,1.37,0,0,1-.33.03l-.488,0c-.1,0-.194,0-.293.005-.064.026-.106.061-.106.1s.038.072.1.1a3.557,3.557,0,0,0,.408-.046c.325-.047.625-.07.692.056-.033.079-.206.108-.486.151-.175.027-.467.071-.478.114a1.744,1.744,0,0,0,.231-.05,1.661,1.661,0,0,1,.77-.042c.166.026.242.062.246.119.007.1-.275.2-.362.222a2.671,2.671,0,0,0-1-.044c-.128.043-.148.083-.148.1,0,.054.122.116.182.138a1.732,1.732,0,0,1,1.039-.165.861.861,0,0,1,.744.461c.015.046.012.082-.01.1l-.067-.015-.008.022a.306.306,0,0,0-.091-.009,11.073,11.073,0,0,0-1.642.283c-.12.03-.131.058-.133.063.019.043.132.083.151.087l1.342-.207s.076-.012.744-.1c.246-.031.353-.009.379.067.036.1-.146.253-.167.27l.062.2-.806.327a2.219,2.219,0,0,0,.7.126c.3,0,.536.147.536.274a.112.112,0,0,1-.071.1.455.455,0,0,1-.2.034h-.06a2.969,2.969,0,0,0-.88.162c.186.018.594.055.957.055h.1c.182,0,.272.034.3.1.041.1-.062.22-.087.247a.232.232,0,0,1,.161.15.144.144,0,0,1-.011.113c-.032.061-.12.045-.232.009-.159-.052-.337-.071-.4.108a.588.588,0,0,1-.6.4l-.09.01c-.1.014-.152.056-.15.089s.087.082.262.061a1.482,1.482,0,0,0,.394-.15,1.194,1.194,0,0,1,.436-.151c.125,0,.2.082.21.245-.005-.061.43-.48.542-.359a.179.179,0,0,1,.028.135,2.014,2.014,0,0,1-1.5.736c-.107.074-.283.28-.25.328.008.011.029.013.045.013a3.566,3.566,0,0,1,1.216-.346c.212,0,.343.066.39.2-.084.207-.7.217-.77.217a.98.98,0,0,1-.388.1c-.1.015-.2.031-.291.053-.044.017-.122.061-.135.1a.073.073,0,0,0,.043.063c-.006,0,.012-.01.041-.019.183-.056.7-.19.827-.065a.137.137,0,0,1,.039.105,1.358,1.358,0,0,1,.443-.075.606.606,0,0,1,.442.126.249.249,0,0,1,.064.189,6.049,6.049,0,0,1-1.185.186,1.742,1.742,0,0,0-.4.07c.011-.012.073.022.321.049a1.3,1.3,0,0,1,.133,0h.124c.12,0,.269,0,.46-.019a2.429,2.429,0,0,1,.488-.093c.019,0,.078,0,.082.042,0,.086-.358.239-.435.25-.149.022-.876.075-.907.077a7.067,7.067,0,0,0-.6.4,5.03,5.03,0,0,0,.63-.13,1.4,1.4,0,0,0,.162-.071.529.529,0,0,1,.576-.019.933.933,0,0,1,.562-.2c.107,0,.174.028.187.08.019.08-.094.187-.337.32a3.478,3.478,0,0,1-.97.145,3.228,3.228,0,0,0-1.111.3,2.537,2.537,0,0,1,1.133-.023L23.011,23c.237-.084.614-.179.767-.027.32-.112.621-.083.685.045a.152.152,0,0,1-.025.16c-.128.177-.775.25-1.133.2-.2-.032-.325.072-.33.166,0,.062.046.1.131.115a1.034,1.034,0,0,0,.319-.054c.24-.068.486-.09.605.108.176-.208.633-.211.718-.036a.22.22,0,0,1-.052.238,3.888,3.888,0,0,1-.421.018c-.49,0-.985-.036-1.464-.071-.309-.022-.617-.045-.926-.058-.032.021-.054.041-.054.057s.011.039.089.085c.139.017.327.02.514.023.393.007.765.013.827.163a.639.639,0,0,1,.686.023.689.689,0,0,1,.377-.074c.116,0,.317.014.357.112.019.046,0,.1-.061.162-.027.019-.09.035-.384.035-.236,0-.557-.01-.878-.021s-.638-.021-.872-.021a.983.983,0,0,0-.348.024,3.411,3.411,0,0,1,1.195.253c.094-.127.435-.08.618-.03a.574.574,0,0,0,.112.025.532.532,0,0,0,.111-.042.89.89,0,0,1,.322-.093.225.225,0,0,1,.226.161,1,1,0,0,1-.845.277A8.129,8.129,0,0,1,22.3,24.7c-.118-.025-.211-.045-.234-.045-.041.018-.049.057-.057.1-.013.06-.029.136-.1.162l-.075,0c-.18,0-.2.079-.226.148a.153.153,0,0,1-.035.071l-.053.017a5.247,5.247,0,0,1-.735-.179c-.066,0-.192.023-.33.252a11.272,11.272,0,0,0,.154,2.573.024.024,0,0,1,0,.019.022.022,0,0,1-.018.008ZM19.536,25.14l.024,2.645.994-.012a10.381,10.381,0,0,1-.144-2.579c.15-.248.3-.275.352-.275a6.877,6.877,0,0,0,.753.18.074.074,0,0,0,.044-.055c.025-.079.055-.2.34-.177.037-.016.049-.07.06-.127a.177.177,0,0,1,.06-.124l.043-.012a1.957,1.957,0,0,1,.244.047,8.057,8.057,0,0,0,1.571.22,1.026,1.026,0,0,0,.8-.236.2.2,0,0,0-.186-.108.845.845,0,0,0-.3.089.543.543,0,0,1-.127.046c-.027.009-.07-.011-.127-.027-.174-.048-.463-.1-.605.022a4.834,4.834,0,0,0-1.213-.268c-.007,0-.016-.011-.02-.018a.042.042,0,0,1,0-.027c.011-.026.047-.049.388-.049.234,0,.554.011.873.022s.641.021.877.021a1.084,1.084,0,0,0,.354-.024c.028-.029.062-.074.048-.108-.021-.051-.144-.083-.314-.083a.855.855,0,0,0-.375.065.78.78,0,0,0-.7-.031c-.083-.134-.473-.141-.818-.146a4.919,4.919,0,0,1-.528-.026c-.087-.05-.121-.089-.121-.129s.047-.077.091-.1c.322.011.63.034.939.056a15.568,15.568,0,0,0,1.863.063.2.2,0,0,0,.029-.181c-.069-.141-.465-.13-.682.047-.169-.19-.361-.157-.587-.093a1.141,1.141,0,0,1-.292.057c-.177-.018-.22-.1-.216-.166.007-.12.153-.243.383-.211a1.694,1.694,0,0,0,1.088-.177.108.108,0,0,0,.021-.111c-.05-.1-.311-.118-.654-.026-.194-.153-.514-.048-.74.031l-.1.034a.869.869,0,0,0-.385-.072,3.377,3.377,0,0,0-.738.105c-.008,0-.027-.017-.032-.023a.08.08,0,0,1-.018-.04c.027-.137.888-.29,1.151-.333a3.4,3.4,0,0,0,.922-.132c.349-.181.348-.26.344-.274-.019-.079-.435-.056-.7.148a.52.52,0,0,0-.555.024,1.4,1.4,0,0,1-.167.072,2.545,2.545,0,0,1-.616.109.114.114,0,0,1-.054-.007c.019-.094.509-.4.607-.461.017,0,.765-.059.914-.08a1.019,1.019,0,0,0,.394-.2,2.744,2.744,0,0,0-.515.1c-.2.018-.347.02-.468.02h-.124c-.051,0-.095,0-.133,0-.321-.033-.348-.064-.359-.076a.239.239,0,0,1,0-.046,1.414,1.414,0,0,1,.432-.09,8.379,8.379,0,0,0,1.148-.154.215.215,0,0,0-.057-.141.562.562,0,0,0-.408-.112,2.409,2.409,0,0,0-.45.049c-.039-.052-.047-.075-.065-.093-.1-.1-.607.024-.78.077-.034.011-.057.017-.062.018-.056-.027-.078-.055-.084-.086a.281.281,0,0,1,.169-.167c.091-.023.2-.039.3-.055a1.107,1.107,0,0,0,.38-.094c.2-.007.682-.041.742-.178-.04-.093-.157-.149-.347-.149a3.58,3.58,0,0,0-1.206.344c-.05,0-.077-.009-.093-.03-.07-.1.226-.388.229-.39a.316.316,0,0,1,.053-.013,1.982,1.982,0,0,0,1.463-.706.127.127,0,0,0-.02-.086h-.01c-.151,0-.412.248-.5.346-.055-.194-.135-.217-.2-.217a1.187,1.187,0,0,0-.416.147,1.517,1.517,0,0,1-.408.154c-.228.028-.31-.041-.314-.105s.054-.12.19-.138l.091-.011a.538.538,0,0,0,.559-.369.24.24,0,0,1,.239-.184.774.774,0,0,1,.222.048.518.518,0,0,0,.136.033c.053-.044.056-.07.048-.1a.329.329,0,0,0-.15-.152c.027-.072.105-.175.078-.24-.021-.049-.1-.075-.235-.075h-.127a10.626,10.626,0,0,1-1.065-.067.023.023,0,0,1-.02-.02.024.024,0,0,1,.015-.025,3.1,3.1,0,0,1,.993-.2h.06a.416.416,0,0,0,.175-.029.064.064,0,0,0,.044-.056c0-.092-.2-.228-.489-.228a1.39,1.39,0,0,1-.734-.168l.246-.133.566-.215-.038-.074-.03-.127c.077-.079.179-.188.16-.242s-.124-.062-.329-.035c-.665.087-.743.1-.743.1-.054.008-1.318.2-1.348.207-.009,0-.161-.04-.192-.108,0-.076.056-.108.161-.135a8.007,8.007,0,0,1,1.761-.272c.032,0,.036-.017.025-.051a.824.824,0,0,0-.7-.428,1.868,1.868,0,0,0-1.032.16c-.041-.006-.232-.078-.232-.18,0-.058.06-.106.18-.147a2.637,2.637,0,0,1,1.017.044c.148-.049.318-.13.315-.174,0-.007-.012-.046-.206-.075a1.609,1.609,0,0,0-.752.04,1.12,1.12,0,0,1-.257.047s-.018-.017-.023-.023a.064.064,0,0,1-.006-.036c.025-.066.213-.1.515-.144a1.433,1.433,0,0,0,.452-.1,1.276,1.276,0,0,0-.645-.009,3.1,3.1,0,0,1-.423.044c-.1-.039-.143-.09-.142-.145,0-.04.027-.1.144-.142.107-.005.2-.007.3-.007l.488,0c.1,0,.2,0,.306-.005a.988.988,0,0,1-.028-.3c0-.107,0-.214,0-.311-.086,0-.2-.005-.3-.005a4.646,4.646,0,0,0-.575.047,3.3,3.3,0,0,1-.346.031.079.079,0,0,1-.037-.01c0-.006-.023-.014-.021-.021.05-.152.456-.224.9-.291a1.9,1.9,0,0,0,.3-.057c.013-.02.022-.041.016-.053s-.027-.035-.157-.035a4.265,4.265,0,0,0-.812.125c-.182-.014-.215-.078-.222-.113a.181.181,0,0,1,.108-.175,3.112,3.112,0,0,1,.351-.015c.236,0,.531,0,.59-.081a.05.05,0,0,0,.008-.046c-.013-.067-.085-.1-.213-.1a2.053,2.053,0,0,0-.427.068,2.128,2.128,0,0,1-.461.011c-.008,0-.017-.021-.021-.027a.071.071,0,0,1,0-.038c.032-.068.237-.086.571-.108a1.593,1.593,0,0,0,.479-.068c0-.011-.025-.053-.274-.053-.154,0-.341.016-.493.028-.08.007-.15.013-.2.015h0c-.007,0-.025-.021-.029-.027a.079.079,0,0,1-.016-.039c.021-.086.325-.138.844-.2.076-.009.129-.015.141-.018a.276.276,0,0,0-.037-.075c-.076-.085-.395-.007-.628.062-.181.055-.262.072-.307.034a.273.273,0,0,1-.023-.237,2.772,2.772,0,0,0,.3-.165h0c-.028,0-.216-.063-.239-.066a.565.565,0,0,1-.022-.277A1.132,1.132,0,0,0,20.4,13h0a1.1,1.1,0,0,0-.269.058l-.031-.24c.07-.029.213-.06.227-.126-.034-.059-.156-.078-.226-.081l-.106-.918-.075.821-.347.071a.5.5,0,0,1,.281.257.086.086,0,0,1-.009.077.292.292,0,0,1-.2.059c-.038,0-.072,0-.092-.005a.785.785,0,0,1,.307.3.288.288,0,0,1-.015.05.9.9,0,0,1-.384.087c.07.009.356.227.378.366a.67.67,0,0,1,0,.224c-.056,0-.477-.363-.817-.363a.37.37,0,0,0-.136.024c-.013.032.085.07.172.1a2.211,2.211,0,0,1,.686.372c.007.006-.008.023-.012.032a.064.064,0,0,1-.04.022,2.16,2.16,0,0,1-.3-.048,3.23,3.23,0,0,0-.536-.077c-.064,0-.142.008-.15.049.018,0,.2.042.367.078a1.906,1.906,0,0,1,.783.256l-.105.037c-.115,0-.254-.007-.392-.013s-.275-.013-.39-.013c-.2,0-.251.022-.262.035.017.07.249.082.436.091a2.653,2.653,0,0,1,.646.082c.072.077.094.142.074.192s-.075.076-.165.082c-.357-.168-1.067-.243-1.068-.1l.231.015a2.051,2.051,0,0,1,.816.172.318.318,0,0,1-.231.061c-.208,0-.491-.03-.742-.056-.217-.023-.418-.045-.546-.045-.1,0-.117.014-.12.016a.706.706,0,0,0,.538.283h.056a2.632,2.632,0,0,1,1.183.265.056.056,0,0,1-.065.056,2.416,2.416,0,0,1-.3-.039,2.585,2.585,0,0,0-1.094-.018c-.049.023-.054.036-.055.036a2.161,2.161,0,0,0,.512.061,2.227,2.227,0,0,1,.981.182c.051.047.069.08.058.108s-.063.034-.079.034a2.56,2.56,0,0,1-.519-.125s-.686-.1-1.039-.1a.493.493,0,0,0-.182.019,1.711,1.711,0,0,0-.34.247c.028.019.1.14.171.14l.056-.013.037.033c0,.038-.054.113-.079.144a5.187,5.187,0,0,1,1.842.667c.024.024.05.054.038.084s-.049.032-.076.032a13.43,13.43,0,0,1-1.9-.59c-.17.069-.365.177-.355.232,0,.017.041.074.417.083a.6.6,0,0,0-.013.158.188.188,0,0,0,.079.107c.058.011,1.6.341,1.765.609a.074.074,0,0,1,.012.076c-.012.022-.039.033-.083.033a5.711,5.711,0,0,1-1.328-.469.565.565,0,0,0-.249-.043,2,2,0,0,0-.787.171c.016,0,.082.028.14.051.124.048.253.1.261.169-.029.078-.117.1-.257.142-.075.02-.2.054-.206.08.021.019.29.1.573.18a7.056,7.056,0,0,1,1.973.774c.09.077.1.109.093.134a.107.107,0,0,1-.053.027,10.256,10.256,0,0,1-1.583-.638.174.174,0,0,1,.015.114.094.094,0,0,1-.063.063.333.333,0,0,1-.188-.089,1.027,1.027,0,0,0-.605-.249.853.853,0,0,0-.433.129c.048.144.567.252.778.273l0,.075c-.053.13-.07.173.148.312a.4.4,0,0,1,.054.037c0,.014,0,.045-.014.045a2,2,0,0,1-.277-.126c-.116-.057-.26-.128-.283-.133a1.042,1.042,0,0,1,.078.257c-.32-.166-.568-.208-.806-.032a.39.39,0,0,0,.263.277c-.022.1-.031.15-.017.184.021.053.106.082.233.125a2.568,2.568,0,0,1,.477.206.024.024,0,0,1,.01.029.022.022,0,0,1-.027.014c-.362-.095-.608-.044-.614.029,0,.055.1.149.342.188.11.017.259.033.429.052.681.073,1.711.185,2,.569.085.11.106.165.079.2a1.076,1.076,0,0,1-.472-.219,1.619,1.619,0,0,0-.234-.135,1.347,1.347,0,0,1-.015.218,3.77,3.77,0,0,0-.744-.292c.016.007.012.031.008.057a.315.315,0,0,1-.021.08,1.662,1.662,0,0,0-.852-.315l0,.07-.021.087a.721.721,0,0,0-.9.015c-.031.022-.036.035-.035.039.014.048.314.069.555.086.4.029.857.061.993.21.11.12.154.216.132.286a.123.123,0,0,1-.09.08l-.659-.24h0a3.69,3.69,0,0,0-.56-.053.688.688,0,0,0-.4.082,5.211,5.211,0,0,0,1.071.288c1.2.265,2.127.489,2.182.759a.078.078,0,0,1-.008.07c-.058.075-.312-.033-.682-.194a8.222,8.222,0,0,0-.87-.339l-.058.235h0a2.05,2.05,0,0,0-.649-.333c.026,0,.065.168.09.266a5.154,5.154,0,0,0-.966-.217.674.674,0,0,0-.3.058c-.04.019-.049.034-.048.039.009.069.472.149.811.207a2.51,2.51,0,0,1,.882.23c.023.028.033.048.031.066a.22.22,0,0,1-.062.038,1.323,1.323,0,0,1-.229-.042c-.157-.038-.356-.073-.373-.036s-.07.042-.107.042a2.225,2.225,0,0,1-.4-.071A1.613,1.613,0,0,0,16.3,22a.378.378,0,0,0,.119.265c.184.014,1.913.189,1.979.427a.225.225,0,0,1-.009.064c-.021.029-.066.043-.141.043a4.557,4.557,0,0,1-.931-.207c.006.015-.067.142,0,.2,0,.013,0,.05-.008.05a.283.283,0,0,1-.067-.033c-.118-.068-.443-.238-.492-.174a.088.088,0,0,0-.007.072l-.16-.028a2.2,2.2,0,0,0-.568-.193l-.038.053c.072.194,1.462.5,1.715.543a.023.023,0,0,1,0,.046,1.359,1.359,0,0,0-.655.174.079.079,0,0,1-.016.044c-.007.005-.023.03-.031.02-.639-.4-.792-.357-.843-.278a.072.072,0,0,0-.01.048.063.063,0,0,1-.078.024,2.845,2.845,0,0,0-.471-.076c-.059,0-.068.011-.068.012s.009.053.33.229c.6.33.6.394.606.421,0,0-.023.038-.029.038s-.02.011-.047.011a.945.945,0,0,1,.068.226c-.044.021-.089,0-.153-.032a3.5,3.5,0,0,0-.7-.292h0c-.172,0-.544.109-.579.281-.025.122.131.263.453.405a2.372,2.372,0,0,0,1.584.05,1.8,1.8,0,0,1,.651-.095c.477.055.713.127.789.243a.16.16,0,0,1,.018.137c-.021.07-.094.046-.214-.027a.888.888,0,0,0-.448-.164.627.627,0,0,0-.485.277c-.467-.072-.787-.125-.836-.03-.025.049.008.141.1.273a3.207,3.207,0,0,0-.724-.106c-.236,0-.364.063-.369.126s.14.207.714.3c.062,0,.125,0,.188,0a4.956,4.956,0,0,0,1.869-.319c.031.013.144.221.316.221a.313.313,0,0,0,.207-.1.337.337,0,0,1,.206-.109c.121,0,.149.151.16.208l.275-.125.085,0ZM17.9,24.215a.631.631,0,0,1-.431-.254.106.106,0,0,1,.079-.046h.023a.744.744,0,0,1,.332.1.753.753,0,0,1,.014.2l-.017,0Zm-.329-.277-.02.024a.389.389,0,0,0-.056.01.956.956,0,0,0,.393.213.511.511,0,0,1-.011-.149.924.924,0,0,0-.306-.074v-.024Zm2,.256c-.165,0-.488-.089-.513-.259a.3.3,0,0,1,.237-.11h.029a1.106,1.106,0,0,1,.335.063c.03.045.108.216.02.282a.2.2,0,0,1-.108.025Zm-.247-.346-.027.024a.286.286,0,0,0-.2.076c.032.141.474.226.547.187.054-.04.014-.157-.014-.214a1.336,1.336,0,0,0-.307-.05v-.023Zm1.383.326a2.237,2.237,0,0,1-.374-.04l-.019-.151a.351.351,0,0,1,.19-.044h.006c.153,0,.388.035.428.112a.15.15,0,0,1-.01.066c-.032.038-.1.057-.221.057Zm-.328-.07c.053,0,.2.023.328.023s.173-.025.185-.041c-.016-.052-.193-.1-.382-.1v-.023l0,.023a.649.649,0,0,0-.161.019l.016.1s.009,0,.019,0Zm.148-.445a.978.978,0,0,1-.2-.02l-.036-.164a.026.026,0,0,1,.006-.019.029.029,0,0,1,.018-.008v.024l.013-.024a1.526,1.526,0,0,0,.3-.052,1.584,1.584,0,0,1,.236-.044c.032,0,.079,0,.1.034s-.009.077-.029.107a.483.483,0,0,1-.407.166Zm-.157-.055c.028,0,.088.008.157.008h0a.436.436,0,0,0,.368-.147c.032-.045.026-.058.026-.058l-.04-.032-.013.024a1.62,1.62,0,0,0-.228.043,1.631,1.631,0,0,1-.3.053l.013.111.016,0Zm-.747.033a1.906,1.906,0,0,1-.6-.087c-.081-.007-.339-.129-.362-.213a.148.148,0,0,1,.119-.075H18.8a.456.456,0,0,1,.228.088l.045.027a.436.436,0,0,1,.141-.015,3.2,3.2,0,0,1,.458.045l.019.206a.281.281,0,0,1-.056.025Zm-.835-.352-.009.024a.223.223,0,0,0-.088.027.806.806,0,0,0,.341.171,1.949,1.949,0,0,0,.591.083l.009-.157c-.014.013-.243-.025-.43-.025a.716.716,0,0,0-.147.012L19,23.39a.407.407,0,0,0-.2-.081v-.024Zm1.676-.18a.945.945,0,0,1-.13-.009l-.02-.12c0-.021.009-.019.085-.036a1.528,1.528,0,0,1,.242-.04.205.205,0,0,1,.09.015c.027.045.025.063.015.082-.047.089-.179.108-.282.108Zm-.1-.108v.062a.531.531,0,0,1,.1,0c.074,0,.2-.011.241-.083,0-.022-.015-.028-.047-.028a1.452,1.452,0,0,0-.248.039l-.05.011Zm-.785-.251a1.135,1.135,0,0,1-.666-.312.1.1,0,0,1,.008-.051A.105.105,0,0,1,19,22.362H19a.935.935,0,0,1,.7.305.108.108,0,0,1-.121.079ZM19,22.385v.024c-.033,0-.041.008-.041.008a1.162,1.162,0,0,0,.626.282c.029,0,.068-.006.082-.03a1.047,1.047,0,0,0-.664-.26l0-.024Zm2.526.156c-.061,0-.118-.007-.132-.008a.023.023,0,0,1-.021-.02.023.023,0,0,1,.012-.026.7.7,0,0,1,.252-.094.269.269,0,0,1,.061.014s.031.056.031.06c-.029.054-.094.074-.2.074Zm-.045-.047h.045c.123,0,.153-.027.161-.038l0-.029-.041.013v-.024l0,.024a.464.464,0,0,0-.164.054Zm-1.14-.151a.037.037,0,0,1-.017,0c-.006,0-.023-.009-.023-.017s.014-.133.014-.133a3.351,3.351,0,0,1,1.41-.454h.009a.346.346,0,0,1,.2.046c0,.062-.059.2-.269.265h0a6.464,6.464,0,0,0-1.309.294l-.017,0Zm.012-.131a.927.927,0,0,1,0,.111A5.752,5.752,0,0,1,21.63,22c.206-.051.263-.171.267-.2a.706.706,0,0,0-.167-.019v-.024l-.008.024a3.452,3.452,0,0,0-1.373.429Zm0-.256c-.027-.026-.017-.13-.013-.155a.591.591,0,0,1,.157-.053,6.24,6.24,0,0,1,.8-.175.162.162,0,0,1,.063.026.194.194,0,0,1-.032.056,4.072,4.072,0,0,1-.976.3Zm.944-.336a6.837,6.837,0,0,0-.788.173,1.377,1.377,0,0,1-.146.036c.017,0,.011.087.01.1a7.338,7.338,0,0,0,.924-.312Zm-.964-.042-.024-.154a.844.844,0,0,1,.207-.04c.09-.009.19-.02.272-.023h.043c.092,0,.119.016.131.028a.256.256,0,0,1,.009.045c-.118.126-.586.143-.638.145Zm.5-.194-.041.024c-.081,0-.18.014-.269.023s-.145.015-.189.017l.023.106a2,2,0,0,0,.573-.136h0a.3.3,0,0,0-.1-.011v-.023Zm-.465-.133a1.033,1.033,0,0,1-.035-.311,5.9,5.9,0,0,1,1.248-.317h.02c.068,0,.107.014.123.042a.126.126,0,0,1-.048.115,13.72,13.72,0,0,1-1.308.472Zm1.233-.605-.018.024a6.367,6.367,0,0,0-1.221.3,2.012,2.012,0,0,1,.022.26c.459-.179,1.207-.432,1.261-.482.034-.034.039-.051.039-.056s-.012-.02-.083-.02v-.023Zm-1.28.134-.024-.229a.024.024,0,0,1,.02-.024l.055-.01a4.346,4.346,0,0,1,.583-.086c.095-.006.123.011.136.036s-.014.062-.04.084a1.571,1.571,0,0,1-.73.229Zm.022-.209v.183a2.119,2.119,0,0,0,.679-.239c.028-.025.017-.037-.049-.037a4.177,4.177,0,0,0-.594.086l-.036.007Zm-.583-.276h-.007s-1.572-.514-1.616-.53a.337.337,0,0,1,0-.063.154.154,0,0,1,.113-.042h0a5.423,5.423,0,0,1,1.487.4l.046.2a.022.022,0,0,1-.007.022.022.022,0,0,1-.015.006Zm-1.481-.59c-.083,0-.1.018-.109.026.024,0,1.325.429,1.561.506l-.026-.148a5.35,5.35,0,0,0-1.426-.384Zm2.061.572c-.025-.021-.038-.145-.045-.183a.025.025,0,0,1,.006-.021.025.025,0,0,1,.021-.007l0,.023.037-.02a.765.765,0,0,1,.309.057.464.464,0,0,1,.012.047c-.047.077-.288.1-.336.1Zm.005-.166c.007.052.016.14.016.14.085-.03.25-.06.274-.1a1.352,1.352,0,0,0-.284-.037l-.006,0Zm-.021-.21c-.027-.02-.046-.179-.046-.183a.2.2,0,0,1,.106-.035c.139-.019.413-.058.562-.064h.025c.066,0,.084.01.092.019l-.019.029.013.02a3.724,3.724,0,0,1-.733.214Zm-.017-.16c.021.009.036.134.036.134.207-.068.557-.156.66-.208h-.032v-.024l-.023.024c-.148.006-.419.044-.558.064l-.083.011Zm-.536-.14c-.088-.007-1.068-.415-1.179-.415v0c-.047-.053-.048-.086-.033-.111a.109.109,0,0,1,.094-.043h0a3.971,3.971,0,0,1,1.031.338l.078.033a.268.268,0,0,1,.013.108c0,.039,0,.079,0,.09Zm-1.173-.462a10.6,10.6,0,0,1,1.135.43.118.118,0,0,1,0-.052c0-.043,0-.069,0-.084-.009.006-.035-.007-.069-.021a4.089,4.089,0,0,0-1-.333c-.043,0-.063.009-.069.021a.048.048,0,0,0,0,.039Zm1.685.282-.031-.179A4.255,4.255,0,0,1,21,19.13h.037a.189.189,0,0,1,.083.01c0,.007.014.042.009.047a4.387,4.387,0,0,1-.852.235Zm.76-.268L21,19.176c-.222.011-.7.084-.728.089l.022.132c.24-.072.632-.165.76-.221h-.019v-.023ZM20.265,19l0-.024L20.255,19l-.012-.007a.409.409,0,0,1,0-.159c.01-.009.034-.034.043-.028a1.511,1.511,0,0,1,.218-.048,7.023,7.023,0,0,1,.741-.122c.065.006.089.006.1.022a.2.2,0,0,1-.014.054,4.306,4.306,0,0,1-1.069.29Zm1-.343-.02.024a6.974,6.974,0,0,0-.733.12c-.126.025-.221.044-.24.044,0,.051,0,.088,0,.107a4.313,4.313,0,0,0,1.023-.277l-.034-.018Zm-1.461-.006c-.085,0-1.616-.545-1.616-.545a.083.083,0,0,1,0-.1.172.172,0,0,1,.14-.057h.027a4.367,4.367,0,0,1,1.431.509,1.3,1.3,0,0,1,.018.19Zm-1.449-.676L18.335,18a.138.138,0,0,0-.105.037c-.022.024,1.408.533,1.551.584-.019-.017-.022-.087-.023-.12a4.016,4.016,0,0,0-1.4-.5v-.024Zm1.9.287-.027-.183a.024.024,0,0,1,.022-.024c.009,0,.05-.01.108-.024a3.877,3.877,0,0,1,.519-.1c.05,0,.076,0,.088.018a.233.233,0,0,1-.008.059,2.16,2.16,0,0,1-.7.253Zm.019-.163v.14a3.044,3.044,0,0,0,.649-.262,3.6,3.6,0,0,0-.556.1l-.093.022Zm-.543.155h-.007a9.887,9.887,0,0,1-1.218-.426.112.112,0,0,1-.017-.105c.015-.031.051-.047.107-.05h0a3.724,3.724,0,0,1,1.139.363l.018.2a.022.022,0,0,1-.009.019.019.019,0,0,1-.014,0Zm-1.116-.536c-.053,0-.077.011-.084.025s0,.04.014.057a11.442,11.442,0,0,0,1.162.4l0-.142a3.747,3.747,0,0,0-1.088-.339Zm1.553-.453L20.136,17a3.1,3.1,0,0,1,.7-.084h.047c.165,0,.2.023.21.047a.1.1,0,0,1-.011.052,2.7,2.7,0,0,1-.907.249Zm.708-.3h-.046c-.274,0-.672.059-.675.06l.033.216a3.386,3.386,0,0,0,.852-.255s-.018-.021-.164-.021ZM19.8,16.84c-.077,0-.659-.181-.687-.276a.093.093,0,0,1,.092-.061h.017a2.924,2.924,0,0,1,.448.066c.063.012.11.022.118.021s.013.02.018.024.009.031.009.038a.4.4,0,0,1-.008.188Zm-.578-.314-.015.024a.108.108,0,0,0-.051.01,3.3,3.3,0,0,0,.627.249c0-.014-.011-.116-.014-.155.005-.018-.043-.027-.107-.04a2.866,2.866,0,0,0-.44-.064v-.024Zm.511-.065c-.094,0-1.067-.279-1.164-.279v0l-.045-.013c0-.007-.02-.039-.015-.046a.188.188,0,0,1,.158-.067h.006a4.184,4.184,0,0,1,1.039.191c.009,0,.018.045.018.055a.966.966,0,0,1,0,.159ZM18.712,16.1c-.129.006-.153.026-.157.03l.017,0c.114,0,1.063.278,1.145.3-.024-.013-.029-.1-.031-.134a3.57,3.57,0,0,0-.974-.2Zm1.42-.267a.276.276,0,0,1-.041-.15.02.02,0,0,1,.006-.018.021.021,0,0,1,.017-.008h0a.46.46,0,0,0,.061.008c.123.011.186.022.206.05,0,.013-.006.051-.019.051-.033.057-.23.067-.232.067Zm.007-.125a.586.586,0,0,0,.012.089c.01-.012.164-.029.194-.066-.016,0-.13-.015-.173-.02l-.033,0Zm.013-.1-.035-.229a.022.022,0,0,1,.006-.017.022.022,0,0,1,.017-.007c.02,0,.492,0,.543.077-.036.121-.416.165-.531.176Zm.012-.206.009.182a1.634,1.634,0,0,0,.47-.134,1.848,1.848,0,0,0-.479-.048Zm-.441-.063A.457.457,0,0,1,19.5,15.3c0-.006-.012-.049-.008-.053a.5.5,0,0,1,.253-.079.243.243,0,0,0,.045-.006l.007.023-.006-.013.006.029.006.006,0,0,.025.124a.344.344,0,0,1-.1.011Zm.056-.133-.033,0a.493.493,0,0,0-.214.055,1,1,0,0,0,.267.04l-.02-.1Z"/><rect class="cls-5" x="1.427" y="9.018" width="11.306" height="21.965"/><rect class="cls-5" x="27.269" y="9.018" width="11.305" height="21.965"/></g></g></svg>