<svg id="Layer_1" data-name="Layer 1" xmlns="http://www.w3.org/2000/svg" xmlns:xlink="http://www.w3.org/1999/xlink" viewBox="0 0 40 40"><defs><style>.cls-1{fill:none;}.cls-2{clip-path:url(#clip-path);}.cls-3{fill:#e5e8eb;}.cls-4{fill:#3a4da0;}</style><clipPath id="clip-path"><rect class="cls-1" x="1.087" y="8.916" width="37.825" height="22.168" rx="4"/></clipPath></defs><g class="cls-2"><rect class="cls-3" x="1.087" y="8.916" width="37.825" height="22.168"/><polygon class="cls-4" points="20 18.769 19.621 19.94 20.204 20.13 20 18.769"/><polygon class="cls-4" points="20 18.769 20.379 19.94 19.796 20.13 20 18.769"/><polygon class="cls-4" points="21.166 19.619 19.94 19.619 19.94 20.235 21.166 19.619"/><polygon class="cls-4" points="21.166 19.619 20.175 20.344 19.814 19.845 21.166 19.619"/><polygon class="cls-4" points="18.834 19.619 19.826 20.344 20.186 19.845 18.834 19.619"/><polygon class="cls-4" points="18.834 19.619 20.06 19.619 20.06 20.235 18.834 19.619"/><polygon class="cls-4" points="20.721 20.997 20.341 19.825 19.759 20.016 20.721 20.997"/><polygon class="cls-4" points="20.721 20.997 19.729 20.273 20.089 19.774 20.721 20.997"/><polygon class="cls-4" points="19.279 20.997 20.271 20.273 19.911 19.774 19.279 20.997"/><polygon class="cls-4" points="19.279 20.997 19.659 19.825 20.241 20.016 19.279 20.997"/><polygon class="cls-4" points="26.13 20.616 25.75 21.787 26.333 21.977 26.13 20.616"/><polygon class="cls-4" points="26.13 20.616 26.508 21.787 25.925 21.977 26.13 20.616"/><polygon class="cls-4" points="27.295 21.467 26.069 21.467 26.069 22.083 27.295 21.467"/><polygon class="cls-4" points="27.295 21.467 26.304 22.191 25.943 21.693 27.295 21.467"/><polygon class="cls-4" points="24.963 21.467 25.955 22.191 26.315 21.693 24.963 21.467"/><polygon class="cls-4" points="24.963 21.467 26.189 21.467 26.189 22.083 24.963 21.467"/><polygon class="cls-4" points="26.85 22.844 26.471 21.673 25.888 21.863 26.85 22.844"/><polygon class="cls-4" points="26.85 22.844 25.858 22.12 26.218 21.622 26.85 22.844"/><polygon class="cls-4" points="25.408 22.844 26.4 22.12 26.04 21.622 25.408 22.844"/><polygon class="cls-4" points="25.408 22.844 25.788 21.673 26.37 21.863 25.408 22.844"/><polygon class="cls-4" points="26.13 16.921 25.75 18.092 26.333 18.283 26.13 16.921"/><polygon class="cls-4" points="26.13 16.921 26.508 18.092 25.925 18.283 26.13 16.921"/><polygon class="cls-4" points="27.295 17.772 26.069 17.772 26.069 18.388 27.295 17.772"/><polygon class="cls-4" points="27.295 17.772 26.304 18.496 25.943 17.998 27.295 17.772"/><polygon class="cls-4" points="24.963 17.772 25.955 18.496 26.315 17.998 24.963 17.772"/><polygon class="cls-4" points="24.963 17.772 26.189 17.772 26.189 18.388 24.963 17.772"/><polygon class="cls-4" points="26.85 19.149 26.471 17.978 25.888 18.168 26.85 19.149"/><polygon class="cls-4" points="26.85 19.149 25.858 18.425 26.218 17.927 26.85 19.149"/><polygon class="cls-4" points="25.408 19.149 26.4 18.425 26.04 17.927 25.408 19.149"/><polygon class="cls-4" points="25.408 19.149 25.788 17.978 26.37 18.168 25.408 19.149"/><polygon class="cls-4" points="13.87 20.616 13.492 21.787 14.075 21.977 13.87 20.616"/><polygon class="cls-4" points="13.87 20.616 14.25 21.787 13.667 21.977 13.87 20.616"/><polygon class="cls-4" points="15.037 21.467 13.811 21.467 13.811 22.083 15.037 21.467"/><polygon class="cls-4" points="15.037 21.467 14.045 22.191 13.685 21.693 15.037 21.467"/><polygon class="cls-4" points="12.705 21.467 13.696 22.191 14.057 21.693 12.705 21.467"/><polygon class="cls-4" points="12.705 21.467 13.931 21.467 13.931 22.083 12.705 21.467"/><polygon class="cls-4" points="14.592 22.844 14.212 21.673 13.63 21.863 14.592 22.844"/><polygon class="cls-4" points="14.592 22.844 13.6 22.12 13.96 21.622 14.592 22.844"/><polygon class="cls-4" points="13.15 22.844 14.142 22.12 13.782 21.622 13.15 22.844"/><polygon class="cls-4" points="13.15 22.844 13.529 21.673 14.112 21.863 13.15 22.844"/><polygon class="cls-4" points="13.87 16.921 13.492 18.092 14.075 18.283 13.87 16.921"/><polygon class="cls-4" points="13.87 16.921 14.25 18.092 13.667 18.283 13.87 16.921"/><polygon class="cls-4" points="15.037 17.772 13.811 17.772 13.811 18.388 15.037 17.772"/><polygon class="cls-4" points="15.037 17.772 14.045 18.496 13.685 17.998 15.037 17.772"/><polygon class="cls-4" points="12.705 17.772 13.696 18.496 14.057 17.998 12.705 17.772"/><polygon class="cls-4" points="12.705 17.772 13.931 17.772 13.931 18.388 12.705 17.772"/><polygon class="cls-4" points="14.592 19.149 14.212 17.978 13.63 18.168 14.592 19.149"/><polygon class="cls-4" points="14.592 19.149 13.6 18.425 13.96 17.927 14.592 19.149"/><polygon class="cls-4" points="13.15 19.149 14.142 18.425 13.782 17.927 13.15 19.149"/><polygon class="cls-4" points="13.15 19.149 13.529 17.978 14.112 18.168 13.15 19.149"/><rect class="cls-4" x="1.087" y="8.916" width="37.825" height="7.39"/><rect class="cls-4" x="1.087" y="23.695" width="37.825" height="7.389"/></g></svg>