<?xml version="1.0" encoding="UTF-8"?><svg id="Layer_1" xmlns="http://www.w3.org/2000/svg" viewBox="0 0 40 40"><rect x="2" y="8" width="36" height="24" rx="4" ry="4" fill="#233893"/><g><polygon points="9.709 17.548 2 17.548 2 18.774 9.709 18.774 10.93 18.774 10.93 17.548 10.93 8 9.709 8 9.709 17.548" fill="#e3e7ea"/><polygon points="14.592 17.548 14.592 8 13.372 8 13.372 17.548 13.372 18.774 14.592 18.774 38 18.774 38 17.548 14.592 17.548" fill="#e3e7ea"/><polygon points="2 21.226 2 22.452 9.709 22.452 9.709 32 10.93 32 10.93 22.452 10.93 21.226 9.709 21.226 2 21.226" fill="#e3e7ea"/><polygon points="13.372 21.226 13.372 22.452 13.372 32 14.592 32 14.592 22.452 38 22.452 38 21.226 14.592 21.226 13.372 21.226" fill="#e3e7ea"/></g><polygon points="14.592 18.774 13.372 18.774 13.372 17.548 13.372 8 10.93 8 10.93 17.548 10.93 18.774 9.709 18.774 2 18.774 2 21.226 9.709 21.226 10.93 21.226 10.93 22.452 10.93 32 13.372 32 13.372 22.452 13.372 21.226 14.592 21.226 38 21.226 38 18.774 14.592 18.774" fill="#d8002c"/></svg>