<?xml version="1.0" encoding="UTF-8"?><svg id="a" xmlns="http://www.w3.org/2000/svg" viewBox="0 0 40 40"><rect x="2" y="8" width="36" height="24" rx="4" ry="4" fill="#cf002e"/><path d="M2,11.996v6.995H22.443V8H5.995c-2.207,0-3.995,1.789-3.995,3.996Z" fill="#2b317d"/><g><polygon points="11.197 15.63 12.163 18.533 9.635 16.739 12.759 16.739 10.231 18.533 11.197 15.63" fill="#e3e7ea"/><polygon points="7.761 11.206 8.533 13.529 6.511 12.093 9.01 12.093 6.988 13.529 7.761 11.206" fill="#e3e7ea"/><polygon points="14.711 10.748 15.435 12.926 13.54 11.58 15.883 11.58 13.987 12.926 14.711 10.748" fill="#e3e7ea"/><polygon points="11.197 8.458 11.969 10.781 9.948 9.345 12.446 9.345 10.425 10.781 11.197 8.458" fill="#e3e7ea"/><polygon points="12.915 13.57 13.398 15.022 12.134 14.125 13.696 14.125 12.433 15.022 12.915 13.57" fill="#e3e7ea"/></g></svg>