<?xml version="1.0" encoding="UTF-8"?><svg id="Layer_1" xmlns="http://www.w3.org/2000/svg" viewBox="0 0 40 40"><g><path d="m28.854,3.5H11.854C7.435,3.5,3.854,7.082,3.854,11.5v17c0,4.418,3.582,8,8,8h17c4.418,0,8-3.582,8-8V11.5c0-4.418-3.582-8-8-8Zm4.4,25c0,2.426-1.974,4.4-4.4,4.4H11.854c-2.426,0-4.4-1.974-4.4-4.4V11.5c0-2.426,1.974-4.4,4.4-4.4h17c2.426,0,4.4,1.974,4.4,4.4v17Z" fill="#afb7c0"/><polygon points="13.237 14.439 18.446 14.439 18.446 29.009 22.262 29.009 22.262 14.439 27.471 14.439 27.471 11.103 13.237 11.103 13.237 14.439" fill="#afb7c0"/></g><rect width="40" height="40" fill="none"/></svg>