<?xml version="1.0" encoding="UTF-8"?><svg id="a" xmlns="http://www.w3.org/2000/svg" viewBox="0 0 40 40"><g><path d="M2,28c0,2.209,1.791,4,4,4h28c2.209,0,4-1.791,4-4v-4H2v4Z" fill="#3664b3"/><path d="M34,8H6c-2.209,0-4,1.791-4,4v4H38v-4c0-2.209-1.791-4-4-4Z" fill="#3664b3"/></g><path d="M2,24H38v-8H2v8Zm16.427-.755c-1.083-.528-1.851-1.578-1.988-2.827l.399-.045c.12,1.105,.798,2.035,1.755,2.504l-.167,.368Zm-.798-1.332c.158,.049,.345-.106,.318-.393,.365,.13,.442-.193,.442-.193,0,0,.561,.335,.179,.802-.242,.297-.777,.114-.939-.216Zm.943,.742c.177-.013,.303-.24,.164-.518,.416-.012,.366-.366,.366-.366,0,0,.691,.115,.492,.732-.126,.391-.732,.416-1.023,.152Zm1.381,.175c-.179,0-.323-.145-.323-.323s.145-.323,.323-.323,.323,.145,.323,.323-.145,.323-.323,.323Zm.386-.327c-.199-.618,.492-.732,.492-.732,0,0-.05,.354,.366,.366-.139,.278-.013,.505,.164,.518-.29,.264-.896,.239-1.023-.152Zm1.204-1.176s.078,.323,.442,.193c-.026,.287,.161,.442,.319,.393-.163,.33-.697,.513-.94,.216-.382-.467,.179-.802,.179-.802Zm-.041,1.941l-.164-.369c.798-.377,1.405-1.073,1.672-1.925l.382,.128c-.303,.96-.989,1.743-1.889,2.166Zm1.445-5.26c.394,.576,.625,1.27,.625,2.02,0,.146-.026,.285-.044,.428l-.396-.073c.014-.118,.036-.234,.036-.355,0-.667-.207-1.286-.558-1.798l.337-.222Zm-.466,1.963c-.441-.003-.368-.474-.368-.474,0,0,.218,.107,.315-.158,.149,.148,.323,.115,.369,.004,.109,.244-.036,.629-.316,.627Zm-.006-1.311c.143,.188,.121,.569-.099,.644-.146,.05-.232-.007-.292-.081,.008,.141,.021,.494-.021,.87l.005-.017s.214,.163,.378-.104c.131,.193,.327,.195,.401,.084,.065,.289-.175,.677-.479,.615-.283-.058-.335-.253-.331-.405-.04,.247-.104,.49-.217,.671-.005,.008-.013,.014-.018,.021l.054,.093c.026-.144,.11-.258,.11-.258,0,0,.167,.229,.412,.008,.074,.235,.272,.296,.381,.206-.02,.314-.382,.633-.671,.479-.201-.108-.245-.254-.235-.385h-.174c-.387,.336-1.158,.382-1.531,.122,.493,.143,.83,.063,1.066-.122h-.648c-.124,.06-.263,.104-.431,.114-.046-.034-.085-.072-.119-.114h-.129c-.033,.042-.073,.08-.119,.114-.168-.01-.307-.053-.432-.114h-.648c.235,.185,.573,.265,1.067,.122-.373,.26-1.144,.215-1.531-.122h-.146c.01,.131-.034,.278-.236,.385-.289,.154-.651-.165-.671-.479,.109,.09,.307,.029,.381-.206,.246,.222,.413-.008,.413-.008,0,0,.023,.032,.048,.082l.022-.038c-.068-.137-.119-.293-.152-.461-.025,.125-.104,.25-.321,.294-.305,.062-.546-.326-.479-.615,.074,.111,.271,.109,.402-.084,.136,.224,.301,.15,.354,.118-.018-.158-.025-.31-.027-.446-.015,.139-.081,.326-.362,.328-.28,.002-.424-.383-.316-.627,.046,.111,.219,.144,.369-.004,.093,.252,.288,.169,.308,.16,0-.105,.003-.19,.006-.25-.06,.057-.137,.097-.263,.054-.219-.075-.241-.457-.098-.644,.01,.112,.137,.188,.288,.098,.013,.262,.208,.226,.208,.226,0,0-.014,.11-.071,.205l.301,.171c0,.006-.049,.551,.095,1.061l.319-.549c-.025-.172-.028-.294-.028-.294l-.17-.096c-.118-.677-.018-1.438-.018-1.438l.378,.405c-.008,.076-.045,.56,.057,1.045l.269-.463c.007-.128,.017-.212,.017-.212l-.017-.019,.082,.088,.716-1.235,.768,1.324,.163-.174-.014,.016s.026,.185,.02,.45l.225,.387c.145-.521,.097-1.094,.086-1.195l.389-.417s.101,.761-.018,1.438l-.17,.096s-.002,.208-.059,.473l.302,.52c.204-.55,.145-1.21,.145-1.211l.322-.182c-.051-.092-.065-.193-.065-.193,0,0,.196,.036,.208-.226,.152,.091,.278,.014,.288-.098Zm-4.612-.52c-.013,.104,.078,.141,.21,.081-.038,.245,.111,.298,.111,.298,0,0-.192,.333-.364,.233-.162-.094-.102-.461,.043-.612Zm3.886,.379s.15-.053,.112-.298c.132,.06,.222,.023,.21-.081,.143,.151,.203,.518,.042,.612-.172,.1-.364-.233-.364-.233Zm-1.02-1.999c.584,.123,1.106,.399,1.548,.769l-.279,.292c-.389-.321-.846-.56-1.358-.667l.089-.393Zm-.743-.08c.03,0,.057,.008,.086,.009l-.025,.402c-.021,0-.04-.006-.061-.006-1.005,0-1.89,.475-2.473,1.202l-.331-.231c.657-.832,1.662-1.375,2.804-1.375Zm-3.189,1.975l.364,.173c-.183,.358-.297,.751-.332,1.172l-.403-.01c.037-.479,.165-.927,.371-1.334Z" fill="#e3e7ea"/><g><path d="M22.429,19.34c-.097,.265-.315,.158-.315,.158,0,0-.073,.47,.368,.474,.28,.002,.425-.383,.316-.627-.046,.111-.22,.144-.369-.004Z" fill="#1f601a"/><path d="M22.305,21.913c-.158,.049-.345-.106-.319-.393-.365,.13-.442-.193-.442-.193,0,0-.561,.335-.179,.802,.243,.297,.777,.114,.94-.216Z" fill="#1f601a"/><path d="M21.198,22.137c-.416-.012-.366-.366-.366-.366,0,0-.691,.115-.492,.732,.126,.391,.732,.416,1.023,.152-.177-.013-.303-.24-.164-.518Z" fill="#1f601a"/><path d="M19.103,21.771s.05,.354-.366,.366c.139,.278,.013,.505-.164,.518,.29,.264,.896,.239,1.023-.152,.199-.618-.492-.732-.492-.732Z" fill="#1f601a"/><path d="M18.185,18.52s-.149-.053-.111-.298c-.133,.06-.223,.023-.21-.081-.145,.151-.205,.518-.043,.612,.171,.1,.364-.233,.364-.233Z" fill="#1f601a"/><path d="M21.98,18.985s.015,.101,.065,.193l.036-.021,.004,.067c.06,.074,.146,.131,.292,.081,.22-.075,.242-.457,.099-.644-.01,.112-.136,.188-.288,.098-.013,.262-.208,.226-.208,.226Z" fill="#1f601a"/><path d="M22.114,18.753c.161-.094,.101-.461-.042-.612,.012,.104-.078,.141-.21,.081,.038,.245-.112,.298-.112,.298,0,0,.192,.333,.364,.233Z" fill="#1f601a"/><path d="M18.568,22.129c.382-.467-.179-.802-.179-.802,0,0-.077,.323-.442,.193,.027,.287-.161,.442-.318,.393,.162,.33,.697,.513,.939,.216Z" fill="#1f601a"/><path d="M17.488,19.972c-.131,.193-.327,.195-.402,.084-.066,.289,.175,.677,.479,.615,.217-.044,.296-.169,.321-.294-.019-.095-.034-.191-.044-.287-.053,.031-.217,.105-.354-.118Z" fill="#1f601a"/><path d="M17.813,19.501c-.02,.009-.215,.092-.308-.16-.15,.148-.323,.115-.369,.004-.108,.244,.036,.629,.316,.627,.281-.002,.347-.189,.362-.328,0-.051-.002-.098-.001-.143Z" fill="#1f601a"/><path d="M17.883,19.19c.057-.095,.071-.205,.071-.205,0,0-.195,.036-.208-.226-.151,.091-.278,.014-.288-.098-.143,.188-.121,.569,.098,.644,.126,.043,.203,.003,.263-.054,.003-.055,.006-.094,.006-.094l.058,.033Z" fill="#1f601a"/><path d="M21.855,21.101c-.01,.131,.034,.278,.235,.385,.289,.154,.651-.165,.671-.479-.108,.09-.306,.029-.381-.206-.245,.222-.412-.008-.412-.008,0,0-.084,.114-.11,.258l.028,.049h-.031Z" fill="#1f601a"/><path d="M18.016,20.875c-.026-.05-.048-.082-.048-.082,0,0-.167,.229-.413,.008-.074,.235-.272,.296-.381,.206,.02,.314,.381,.633,.671,.479,.201-.108,.245-.254,.236-.385h-.195l.131-.226Z" fill="#1f601a"/><path d="M22.369,20.671c.305,.062,.545-.326,.479-.615-.074,.111-.27,.109-.401-.084-.163,.268-.378,.104-.378,.104l-.005,.017c-.006,.058-.017,.115-.026,.173-.004,.152,.048,.347,.331,.405Z" fill="#1f601a"/></g><g><path d="M19.954,22.183c-.179,0-.323,.145-.323,.323s.145,.323,.323,.323,.323-.145,.323-.323-.145-.323-.323-.323Z" fill="#06209f"/><path d="M18.185,19.361l-.301-.171-.058-.033s-.003,.04-.006,.094c-.003,.059-.006,.144-.006,.25,0,.045,0,.092,.001,.143,.002,.136,.01,.288,.027,.446,.011,.096,.026,.192,.044,.287,.033,.168,.084,.324,.152,.461l.241-.416c-.144-.51-.095-1.055-.095-1.061Z" fill="#06209f"/><path d="M19.758,21.223c-.494,.143-.831,.063-1.067-.122h-.465c.387,.336,1.158,.382,1.531,.122Z" fill="#06209f"/><path d="M19.77,21.215c.046-.034,.085-.072,.119-.114h-.55c.124,.06,.264,.104,.432,.114Z" fill="#06209f"/><path d="M18.76,18.45l-.378-.405s-.1,.76,.018,1.438l.17,.096s.003,.122,.028,.294l.22-.378c-.102-.485-.065-.969-.057-1.045Z" fill="#06209f"/><path d="M21.336,19.579l.17-.096c.118-.677,.018-1.438,.018-1.438l-.389,.417c.01,.101,.059,.673-.086,1.195l.229,.395c.057-.265,.059-.473,.059-.473Z" fill="#06209f"/><path d="M19.087,18.8l.017,.019s-.011,.084-.017,.212l.083-.143-.082-.088Z" fill="#06209f"/><path d="M20.803,18.819l.014-.016-.163,.174,.169,.292c.005-.265-.02-.45-.02-.45Z" fill="#06209f"/><path d="M20.137,21.215c.168-.01,.307-.053,.431-.114h-.55c.033,.042,.073,.08,.119,.114Z" fill="#06209f"/><path d="M20.15,21.223c.373,.26,1.144,.214,1.531-.122h-.465c-.235,.185-.572,.265-1.066,.122Z" fill="#06209f"/><path d="M22.045,19.178l-.322,.182s.059,.662-.145,1.211l.225,.387c.005-.008,.014-.013,.018-.021,.113-.182,.177-.424,.217-.671,.009-.058,.02-.115,.026-.173,.042-.375,.029-.729,.021-.87l-.004-.067-.036,.021Z" fill="#06209f"/></g><path d="M19.267,19.724c.215,0,.316,.247,.316,.247,0,0,.084-.133,.2-.133s.171,.133,.171,.133c0,0,.083-.13,.133-.106,.05,.023,.213,.222,.215,.225h.001s.05-.087,.163-.119c.113-.032,.187,.116,.189,.119h0s.111-.238,.137-.119c.006,.026,.036,.071,.07,.119h.249l-1.227-2.115-1.227,2.115h.167c.16-.187,.34-.366,.442-.366Zm.669-.656c.084,0,.153,.068,.153,.153s-.068,.153-.153,.153-.153-.068-.153-.153,.068-.153,.153-.153Z" fill="#fff"/><g><path d="M21.112,20.091h-.249c.123,.169,.368,.42,.368,.42h-2.735s.153-.215,.328-.42h-.167l-.492,.849h3.439l-.492-.849Z" fill="#017e93"/><polygon points="20.304 20.091 20.302 20.091 20.303 20.091 20.304 20.091" fill="#017e93"/><polygon points="20.656 20.091 20.655 20.091 20.656 20.091 20.656 20.091" fill="#017e93"/></g><path d="M19.935,19.374c.084,0,.153-.068,.153-.153s-.068-.153-.153-.153-.153,.068-.153,.153,.068,.153,.153,.153Z" fill="#e60000"/><g><path d="M21.277,20.052l-.229-.395-.225-.387-.169-.292-.768-1.324-.716,1.235-.083,.143-.269,.463-.22,.378-.319,.549-.241,.416-.022,.038-.131,.226h4l-.028-.049-.054-.093-.225-.387-.302-.52Zm-3.111,.888l.492-.849h0l1.227-2.115,1.227,2.115h0l.492,.849h-3.439Z" fill="#ffcc01"/><path d="M20.793,19.972c-.026-.119-.136,.116-.137,.119h0s-.076-.151-.189-.119c-.113,.032-.162,.117-.163,.119h-.001s-.165-.201-.215-.225c-.05-.024-.133,.106-.133,.106,0,0-.056-.133-.171-.133s-.2,.133-.2,.133c0,0-.101-.247-.316-.247-.102,0-.282,.179-.442,.366-.176,.205-.328,.419-.328,.419h2.735s-.245-.25-.368-.419c-.035-.048-.065-.093-.07-.119Z" fill="#ffcc01"/><path d="M22.278,17.29c-.442-.369-.964-.646-1.548-.769l-.089,.393c.512,.107,.969,.347,1.358,.667l.279-.292Z" fill="#ffcc01"/><path d="M17.162,18.589l-.364-.173c-.206,.407-.334,.856-.371,1.334l.403,.01c.036-.42,.15-.814,.332-1.172Z" fill="#ffcc01"/><path d="M21.339,22.899l.164,.369c.9-.423,1.586-1.205,1.889-2.166l-.382-.128c-.267,.853-.874,1.549-1.672,1.925Z" fill="#ffcc01"/><path d="M19.987,16.845c.021,0,.04,.006,.061,.006l.025-.402c-.029,0-.057-.009-.086-.009-1.142,0-2.147,.543-2.804,1.375l.331,.231c.584-.727,1.469-1.202,2.473-1.202Z" fill="#ffcc01"/><path d="M23.133,20.383l.396,.073c.018-.142,.044-.281,.044-.428,0-.75-.231-1.444-.625-2.02l-.337,.222c.351,.511,.558,1.13,.558,1.798,0,.121-.022,.237-.036,.355Z" fill="#ffcc01"/><path d="M16.839,20.373l-.399,.045c.137,1.25,.905,2.3,1.988,2.827l.167-.368c-.957-.469-1.634-1.399-1.755-2.504Z" fill="#ffcc01"/></g></svg>