<svg id="Layer_1" data-name="Layer 1" xmlns="http://www.w3.org/2000/svg" xmlns:xlink="http://www.w3.org/1999/xlink" viewBox="0 0 40 40"><defs><style>.cls-1{fill:none;}.cls-2{clip-path:url(#clip-path);}.cls-3{fill:#e5e8eb;}.cls-4{fill:#303a83;}</style><clipPath id="clip-path"><rect class="cls-1" x="1.162" y="8.966" width="37.676" height="22.068" rx="4"/></clipPath></defs><g class="cls-2"><rect class="cls-3" x="1.162" y="8.966" width="37.676" height="22.068"/><rect class="cls-4" x="1.162" y="10.711" width="37.676" height="3.55"/><rect class="cls-4" x="1.162" y="25.739" width="37.676" height="3.55"/><path class="cls-4" d="M22.854,20l1.456-2.485H21.422L20,15.005l-1.422,2.51H15.69L17.146,20,15.69,22.485h2.888L20,25l1.422-2.51H24.31Zm-3.37-2.485.516-.9.516.9ZM22.4,20.8l.5.866h-1Zm-.5-2.462h1l-.5.867Zm-1.379,4.149-.516.9-.516-.9Zm-1.5-.821L18.062,20l.952-1.664h1.972L21.938,20l-.952,1.664Zm-.909,0h-1l.5-.866Zm-1-3.328h1l-.5.867Z"/></g></svg>