<svg id="Layer_1" data-name="Layer 1" xmlns="http://www.w3.org/2000/svg" xmlns:xlink="http://www.w3.org/1999/xlink" viewBox="0 0 40 40"><defs><style>.cls-1{fill:none;}.cls-2{clip-path:url(#clip-path);}.cls-3{fill:#e5e8eb;}.cls-4{fill:#ef943d;}.cls-5{fill:#3e8941;}.cls-6{clip-path:url(#clip-path-2);}.cls-7{fill:#2a2874;}</style><clipPath id="clip-path"><rect class="cls-1" x="1.163" y="8.961" width="37.675" height="22.079" rx="4"/></clipPath><clipPath id="clip-path-2"><rect class="cls-1" x="1.163" y="8.961" width="37.675" height="22.079"/></clipPath></defs><g class="cls-2"><rect class="cls-3" x="1.163" y="8.961" width="37.675" height="22.079"/><rect class="cls-4" x="1.163" y="8.961" width="37.675" height="7.36"/><rect class="cls-5" x="1.163" y="23.68" width="37.675" height="7.359"/><g class="cls-6"><path class="cls-7" d="M20,16.688A3.312,3.312,0,1,0,23.3,20,3.305,3.305,0,0,0,20,16.688m0,.323-.083,1.663.089.948.087-.948-.084-1.663c.085,0,.168,0,.252.011l0,.017a.137.137,0,0,0,.136.137.135.135,0,0,0,.134-.118c.083.015.162.032.242.053l-.51,1.585-.16.941.33-.894.347-1.629c.081.022.16.046.239.075A.141.141,0,0,0,21,17.24a.136.136,0,0,0,.261.054c.076.035.15.074.222.115l-.9,1.4-.4.867.549-.778.754-1.483c.072.042.141.087.209.135a.135.135,0,0,0-.029.083.136.136,0,0,0,.245.083c.064.054.126.111.185.17L20.871,19l-.607.735L21,19.126l1.11-1.236c.059.059.115.12.168.184a.135.135,0,0,0-.05.107.136.136,0,0,0,.217.11c.047.069.093.139.134.212l-1.475.758-.775.552.862-.4,1.392-.905c.044.075.083.155.12.234a.138.138,0,0,0,.053.264A.131.131,0,0,0,22.8,19c.027.074.051.15.071.226l-1.621.349-.89.33.935-.16,1.578-.511c.021.079.04.16.055.243a.137.137,0,0,0,.019.273h.014c.007.083.012.166.012.251l-1.655-.085L20.374,20l.945.088,1.656-.084c0,.084-.005.168-.012.251h-.014a.137.137,0,0,0-.02.272c-.015.083-.033.164-.054.244l-.563-.183-1.014-.33-.935-.161,0,0h0l.889.331,1.621.349c-.022.081-.047.16-.075.238l-.021-.006h0a.127.127,0,0,0-.028,0,.136.136,0,0,0-.136.137.131.131,0,0,0,.011.052h0a.127.127,0,0,0,.038.053h0l.009.008h0l.011.006h0l.009,0c-.036.077-.074.15-.115.222l-1.391-.9h0l-.862-.4,0,0,.45.32.321.229h0l1.474.758c-.042.073-.087.145-.136.215a.136.136,0,0,0-.166.216c-.053.063-.107.123-.165.182L21,20.875l-.729-.607.6.733L22.1,22.117c-.058.057-.118.112-.18.164a.136.136,0,0,0-.222.106.141.141,0,0,0,.013.058,2.577,2.577,0,0,1-.221.141l-.755-1.481-.548-.779h0l.4.867.9,1.4c-.07.04-.144.079-.218.113a.135.135,0,0,0-.124-.081.137.137,0,0,0-.136.137.13.13,0,0,0,.009.049c-.078.029-.159.054-.24.077l-.347-1.629-.33-.894h0l.161.939.51,1.585c-.08.022-.161.04-.243.055a.139.139,0,0,0-.136-.117.136.136,0,0,0-.136.137v.014c-.082.007-.165.012-.249.012l.084-1.663L20,20.377l-.088.949L20,22.989c-.085,0-.169,0-.253-.012v-.014a.136.136,0,0,0-.271-.02c-.081-.016-.16-.033-.238-.055l.509-1.584.16-.94-.329.894-.348,1.629c-.081-.023-.16-.048-.238-.076a.136.136,0,0,0-.126-.187.138.138,0,0,0-.125.082c-.075-.035-.15-.074-.221-.115l.9-1.4.4-.867-.549.778-.754,1.482c-.073-.042-.144-.088-.213-.136a.141.141,0,0,0,.027-.082.137.137,0,0,0-.243-.085c-.062-.053-.123-.108-.181-.166L19.13,21l.606-.734h0l-.731.609-1.111,1.236c-.059-.06-.115-.121-.169-.185a.138.138,0,0,0,.051-.107.135.135,0,0,0-.217-.109c-.047-.068-.092-.14-.134-.212L18.9,20.74l.773-.551-.861.4-1.392.9c-.04-.071-.077-.144-.113-.217a.137.137,0,0,0-.047-.266.141.141,0,0,0-.058.013c-.028-.08-.054-.161-.076-.243l1.62-.35.891-.331-.936.161-1.578.513c-.021-.081-.039-.162-.054-.245a.137.137,0,0,0-.019-.273h-.015c-.006-.082-.011-.166-.012-.25l1.656.084L19.624,20l-.944-.089L17.024,20c0-.085.006-.168.012-.251l.023,0a.137.137,0,0,0,.011-.274q.023-.125.054-.243l1.578.511.936.16-.89-.33-1.621-.349q.033-.121.075-.24a.121.121,0,0,0,.05.01.135.135,0,0,0,.136-.136.138.138,0,0,0-.082-.126c.036-.075.074-.15.115-.222l1.392.905.862.4L18.9,19.26,17.425,18.5c.042-.073.088-.143.135-.213a.134.134,0,0,0,.083.028.136.136,0,0,0,.083-.244c.053-.064.109-.125.167-.183L19,19.126l.732.608L19.13,19,17.9,17.884c.059-.059.12-.116.184-.169a.137.137,0,0,0,.216-.167c.068-.048.138-.092.21-.135l.754,1.483.549.777-.395-.866-.9-1.4c.07-.041.143-.079.217-.113A.137.137,0,0,0,19,17.245a.156.156,0,0,0-.012-.056c.079-.028.16-.053.242-.075l.348,1.628.329.895-.16-.941-.509-1.585c.079-.021.16-.039.242-.054a.138.138,0,0,0,.136.117.136.136,0,0,0,.136-.137v-.015c.082-.007.165-.011.248-.011"/><path class="cls-3" d="M20,19.505a.5.5,0,1,1-.5.5.494.494,0,0,1,.5-.5"/><path class="cls-7" d="M20,19.618a.385.385,0,1,1-.383.385A.383.383,0,0,1,20,19.618"/></g></g></svg>