<?xml version="1.0" encoding="UTF-8"?><svg id="a" xmlns="http://www.w3.org/2000/svg" viewBox="0 0 40 40"><rect x="2" y="8" width="36" height="24" rx="4" ry="4" fill="#0c4ba1"/><path d="M11.013,14.857h26.987v-2.861c0-2.207-1.789-3.996-3.995-3.996H5.995c-1.021,0-1.942,.395-2.649,1.025l7.666,5.832Z" fill="#161515"/><path d="M38,28.004v-2.861H11.013l-7.666,5.832c.706,.63,1.628,1.025,2.649,1.025h28.009c2.207,0,3.995-1.789,3.995-3.996Z" fill="#008b1c"/><polygon points="12.899 16.292 38 16.292 38 14.857 11.013 14.857 12.899 16.292" fill="#e3e7ea"/><polygon points="11.013 25.143 38 25.143 38 23.709 12.898 23.709 11.013 25.143" fill="#e3e7ea"/><polygon points="12.899 16.292 17.15 19.526 17.773 20 12.898 23.709 38 23.709 38 19.526 38 16.292 12.899 16.292" fill="#ef0000"/><polygon points="6.769 24.062 7.025 23.709 6.769 23.709 6.769 24.062" fill="#ffdb00"/><polygon points="10.064 19.526 11.543 17.489 8.592 18.448 7.025 16.292 6.769 15.938 6.769 16.292 6.769 19.041 5.278 19.526 3.817 20 6.769 20.959 6.769 23.709 7.025 23.709 8.592 21.551 11.543 22.51 9.719 20 10.064 19.526" fill="#ffdb00"/></svg>