<svg id="Layer_1" data-name="Layer 1" xmlns="http://www.w3.org/2000/svg" xmlns:xlink="http://www.w3.org/1999/xlink" viewBox="0 0 40 40"><defs><style>.cls-1{fill:none;}.cls-2{clip-path:url(#clip-path);}.cls-3{clip-path:url(#clip-path-2);}.cls-4{fill:#e5e8eb;}.cls-5{fill:#224082;}.cls-6{fill:#bc1f34;}.cls-7{clip-path:url(#clip-path-4);}.cls-8{clip-path:url(#clip-path-5);}.cls-9{clip-path:url(#clip-path-6);}.cls-10{clip-path:url(#clip-path-7);}.cls-11{clip-path:url(#clip-path-8);}.cls-12{clip-path:url(#clip-path-9);}.cls-13{clip-path:url(#clip-path-10);}.cls-14{fill:#f4cc29;}.cls-15{fill:#272116;}.cls-16{fill:#989295;}.cls-17{fill:#357c63;}.cls-18{fill:#25411c;}.cls-19{fill:#25421d;}.cls-20{fill:#c01f3f;}.cls-21{clip-path:url(#clip-path-11);}.cls-22{clip-path:url(#clip-path-12);}.cls-23{clip-path:url(#clip-path-13);}.cls-24{clip-path:url(#clip-path-14);}.cls-25{clip-path:url(#clip-path-15);}</style><clipPath id="clip-path"><rect id="SVGID" class="cls-1" x="0.774" y="9.052" width="38.453" height="21.896" rx="4"/></clipPath><clipPath id="clip-path-2"><rect id="SVGID-2" data-name="SVGID" class="cls-1" x="0.774" y="9.052" width="38.453" height="21.896"/></clipPath><clipPath id="clip-path-4"><rect id="SVGID-4" data-name="SVGID" class="cls-1" x="21.688" y="17.263" width="0.887" height="0.96"/></clipPath><clipPath id="clip-path-5"><rect id="SVGID-5" data-name="SVGID" class="cls-1" x="21.41" y="17.098" width="0.991" height="0.618"/></clipPath><clipPath id="clip-path-6"><rect id="SVGID-6" data-name="SVGID" class="cls-1" x="20.371" y="16.881" width="1.754" height="0.712"/></clipPath><clipPath id="clip-path-7"><rect id="SVGID-7" data-name="SVGID" class="cls-1" x="17.431" y="17.254" width="0.887" height="0.96"/></clipPath><clipPath id="clip-path-8"><rect id="SVGID-8" data-name="SVGID" class="cls-1" x="17.605" y="17.089" width="0.991" height="0.618"/></clipPath><clipPath id="clip-path-9"><rect id="SVGID-9" data-name="SVGID" class="cls-1" x="17.88" y="16.873" width="1.755" height="0.712"/></clipPath><clipPath id="clip-path-10"><rect id="SVGID-10" data-name="SVGID" class="cls-1" x="19.181" y="16.6" width="1.65" height="0.563"/></clipPath><clipPath id="clip-path-11"><rect id="SVGID-11" data-name="SVGID" class="cls-1" x="21.679" y="21.868" width="0.957" height="0.503"/></clipPath><clipPath id="clip-path-12"><rect id="SVGID-12" data-name="SVGID" class="cls-1" x="21.158" y="21.723" width="1.055" height="0.386"/></clipPath><clipPath id="clip-path-13"><rect id="SVGID-13" data-name="SVGID" class="cls-1" x="17.38" y="21.868" width="0.957" height="0.503"/></clipPath><clipPath id="clip-path-14"><rect id="SVGID-14" data-name="SVGID" class="cls-1" x="17.803" y="21.723" width="1.055" height="0.386"/></clipPath><clipPath id="clip-path-15"><rect id="SVGID-15" data-name="SVGID" class="cls-1" x="18.253" y="21.318" width="3.497" height="0.687"/></clipPath></defs><g class="cls-2"><g class="cls-3"><rect class="cls-4" x="0.774" y="9.052" width="38.453" height="21.896"/><rect class="cls-5" x="0.774" y="9.052" width="16.48" height="8.412"/><rect class="cls-6" x="0.774" y="22.499" width="16.48" height="8.448"/><rect class="cls-5" x="22.747" y="22.499" width="16.48" height="8.448"/><rect class="cls-6" x="22.747" y="9.052" width="16.48" height="8.412"/><g class="cls-3"><path d="M22.642,18.368a.268.268,0,0,0-.117-.235c.025-.03.147.035.156.233l-.039,0Z"/><path d="M22.583,18.381a.269.269,0,0,0-.116-.235c.024-.029.145.035.154.233l-.038,0Z"/><path d="M22.52,18.385a.268.268,0,0,0-.117-.234c.023-.033.146.034.155.233Z"/><path d="M22.461,18.407a.268.268,0,0,0-.117-.235c.023-.032.146.034.155.233l-.038,0Z"/><path d="M22.4,18.433a.268.268,0,0,0-.117-.235c.023-.032.146.035.155.233l-.038,0Z"/><path d="M22.338,18.463a.263.263,0,0,0-.117-.234c.025-.031.147.034.156.233Z"/><g class="cls-7"><path class="cls-5" d="M22.575,18.125a1.9,1.9,0,0,0-.347-.7,2.687,2.687,0,0,0-.43-.165l-.11.238s.334.16.406.306a2.246,2.246,0,0,1,.122.416s.147-.061.2-.079.161-.007.161-.019Z"/></g><path d="M22.2,18.249l0-.023a2.237,2.237,0,0,0-.121-.411c-.067-.139-.393-.3-.4-.3l.1-.262a1.634,1.634,0,0,1,.463.16,2,2,0,0,1,.35.7c0,.031-.024.032-.07.033a.36.36,0,0,0-.1.01c-.051.018-.2.079-.2.079l-.022.009Zm-.492-.741a.851.851,0,0,1,.4.291,2.093,2.093,0,0,1,.119.4c.043-.017.138-.056.178-.07a.415.415,0,0,1,.114-.013,1.7,1.7,0,0,0-.3-.666,2,2,0,0,0-.428-.166l-.086.228Z"/><g class="cls-8"><path class="cls-5" d="M22.4,17.716a1.49,1.49,0,0,0-.578-.1c-.123-.03-.386-.1-.412-.158s.225-.361.225-.361l.175.179c.114.116.387.012.484.215Z"/></g><path d="M22.4,17.739l-.01,0a1,1,0,0,0-.4-.089h-.047a.437.437,0,0,1-.129-.009c-.278-.068-.406-.12-.428-.172-.028-.067.15-.292.228-.385l.211.177a.323.323,0,0,0,.19.062.332.332,0,0,1,.3.161l.106.223a.023.023,0,0,1,0,.026.023.023,0,0,1-.017.007Zm-.408-.138a.986.986,0,0,1,.361.071l-.081-.17c-.05-.106-.153-.119-.262-.133a.358.358,0,0,1-.217-.076l-.176-.179a1.82,1.82,0,0,0-.185.336c.009.019.071.064.4.144a.306.306,0,0,0,.077.008Z"/><path d="M21.991,17.619a1,1,0,0,1-.312-.112,1.127,1.127,0,0,0-.143-.061c-.083-.023-.113.016-.114.018-.03-.025.014-.085.124-.054a.9.9,0,0,1,.149.063c.095.044.293.135.318.1l.031.022a.061.061,0,0,1-.053.021Z"/><g class="cls-9"><path class="cls-5" d="M20.468,16.9a4.122,4.122,0,0,1,.95.031c.445.075.7.232.707.33a.479.479,0,0,1-.1.336c-.012-.006,0-.085-.109-.116a6.533,6.533,0,0,0-.751-.2c-.135-.006-.527.012-.585.006s-.206-.036-.206-.1a1.247,1.247,0,0,1,.1-.287Z"/></g><path d="M22.015,17.61,22,17.581a.11.11,0,0,0-.089-.086l-.106-.031a4.928,4.928,0,0,0-.641-.164h-.073c-.076,0-.176,0-.268,0l-.2,0h-.047c-.009,0-.223-.025-.223-.123a1.238,1.238,0,0,1,.1-.295,2.483,2.483,0,0,1,.395-.026,3.262,3.262,0,0,1,.576.046c.447.076.718.237.723.348a.563.563,0,0,1-.1.345l-.029.009Zm-.927-.349h.075a4.979,4.979,0,0,1,.65.166l.105.031a.146.146,0,0,1,.112.1.559.559,0,0,0,.076-.3c0-.082-.245-.236-.691-.312a3.194,3.194,0,0,0-.569-.045c-.165,0-.3.009-.351.013a.771.771,0,0,0-.105.27c0,.045.113.077.189.086s.162,0,.24,0,.193,0,.269,0Z"/><path d="M20.7,17.234h-.02a.266.266,0,0,1-.1-.032.18.18,0,0,0-.1-.023c-.057.006-.066.039-.067.04-.037-.01-.024-.068.063-.077a.2.2,0,0,1,.116.026.251.251,0,0,0,.09.029l.055.009,0-.037.029,0,.009.008-.022.049a.073.073,0,0,1-.05.014Z"/><path d="M17.364,18.359h-.038a.3.3,0,0,1,.137-.267c.013.036-.091.093-.1.268Z"/><path d="M17.423,18.373l-.039,0a.307.307,0,0,1,.138-.267c.013.036-.09.092-.1.269Z"/><path d="M17.487,18.377l-.039,0a.3.3,0,0,1,.138-.266c.013.035-.091.092-.1.268Z"/><path d="M17.545,18.4l-.038,0a.3.3,0,0,1,.138-.267c.013.036-.091.092-.1.269Z"/><path d="M17.609,18.424l-.038,0a.3.3,0,0,1,.138-.266c.013.036-.091.092-.1.268Z"/><path d="M17.668,18.455l-.038,0a.3.3,0,0,1,.137-.267c.014.036-.091.092-.1.269Z"/><g class="cls-10"><path class="cls-5" d="M17.431,18.116a1.908,1.908,0,0,1,.347-.7,2.709,2.709,0,0,1,.431-.166l.109.239s-.334.159-.405.3a2.165,2.165,0,0,0-.122.416s-.148-.061-.2-.079-.161-.006-.161-.019Z"/></g><path d="M17.805,18.24l-.022-.009s-.147-.06-.2-.079a.4.4,0,0,0-.1-.01c-.047,0-.072,0-.072-.026a2.051,2.051,0,0,1,.346-.7,2.233,2.233,0,0,1,.445-.177l.133.249c-.013.026-.339.183-.406.321a2.108,2.108,0,0,0-.12.412l0,.022Zm-.26-.131a.166.166,0,0,1,.054.008c.038.014.134.053.177.071a2.051,2.051,0,0,1,.119-.4c.074-.152.4-.308.415-.315l-.119-.214a3.969,3.969,0,0,0-.4.17,2,2,0,0,0-.343.691.394.394,0,0,1,.1-.014Z"/><g class="cls-11"><path class="cls-5" d="M17.605,17.707a1.458,1.458,0,0,1,.578-.1c.122-.031.385-.1.411-.159s-.225-.361-.225-.361l-.175.179c-.113.116-.387.012-.484.215Z"/></g><path d="M17.605,17.73a.024.024,0,0,1-.018-.007.025.025,0,0,1,0-.026l.105-.223a.329.329,0,0,1,.3-.16.323.323,0,0,0,.19-.062l.175-.179c.114.094.292.319.265.386-.023.052-.147.1-.428.173a.367.367,0,0,1-.089.009l-.087,0a1,1,0,0,0-.4.089l-.009,0Zm.746-.626-.139.18a.358.358,0,0,1-.219.076c-.108.014-.211.027-.261.133l-.08.17a.973.973,0,0,1,.361-.07h.048a.359.359,0,0,0,.116-.007c.308-.077.385-.122.395-.145a1.094,1.094,0,0,0-.221-.337Z"/><path d="M18.014,17.61a.06.06,0,0,1-.052-.021l.031-.022c.025.033.222-.058.316-.1a1.026,1.026,0,0,1,.153-.064c.109-.032.153.03.154.032-.024.016-.048,0-.092,0a.189.189,0,0,0-.053.008,1.081,1.081,0,0,0-.145.06.986.986,0,0,1-.312.112Z"/><g class="cls-12"><path class="cls-5" d="M19.539,16.888a4.1,4.1,0,0,0-.951.03c-.444.075-.7.232-.707.33a.476.476,0,0,0,.1.336c.013-.006,0-.085.109-.116a6.8,6.8,0,0,1,.751-.2c.136-.006.528.012.585.006s.206-.037.206-.1a1.3,1.3,0,0,0-.1-.287Z"/></g><path d="M17.983,17.6l-.021-.01a.558.558,0,0,1-.1-.345c0-.112.275-.273.723-.348a3.131,3.131,0,0,1,.572-.046c.168,0,.3.009.357.013a.607.607,0,0,1,.14.308c0,.1-.213.122-.223.122l-.047,0-.2,0c-.093,0-.193-.005-.268-.005l-.074,0a5.245,5.245,0,0,0-.651.166l-.095.028a.11.11,0,0,0-.09.087l-.026.03Zm1.174-.711a3.147,3.147,0,0,0-.565.045c-.447.075-.689.23-.692.312a.559.559,0,0,0,.076.3.148.148,0,0,1,.112-.1l.094-.027a4.878,4.878,0,0,1,.661-.169h.076c.075,0,.176,0,.268,0l.2,0c.122-.009.232-.043.232-.086a1.249,1.249,0,0,0-.095-.279c-.064,0-.2,0-.364,0Z"/><path d="M19.307,17.225c-.063,0-.068-.04-.071-.061l.035-.023,0,.019c0,.021,0,.032.05.027a.27.27,0,0,0,.091-.028.192.192,0,0,1,.117-.027c.086.009.1.067.1.069-.035.01-.046-.026-.1-.032a.188.188,0,0,0-.1.024.3.3,0,0,1-.1.031Z"/><g class="cls-13"><path class="cls-5" d="M19.988,16.6c-.611.008-.775.094-.8.2a1.031,1.031,0,0,0,.07.367s.1-.19.739-.184.761.171.761.171a1.79,1.79,0,0,0,.075-.36c-.007-.092-.265-.191-.843-.19Z"/></g><path d="M19.252,17.208l-.014-.039a1.027,1.027,0,0,1-.071-.378c.025-.093.14-.2.821-.21.521,0,.853.082.862.207a1.732,1.732,0,0,1-.076.368h0A1.456,1.456,0,0,0,20,17h0c-.615,0-.721.172-.722.173l-.021.037Zm.713-.248c.594.006.765.137.8.171-.01-.044.053-.262.047-.34s-.223-.172-.808-.172c-.512.006-.768.066-.8.182a.856.856,0,0,0,.059.324c.057-.055.229-.165.7-.165Z"/><polygon class="cls-14" points="20.836 17.192 20.86 16.945 20.885 16.947 20.863 17.165 20.956 17.173 20.953 17.202 20.836 17.192"/><polygon class="cls-14" points="20.987 17.205 21.01 16.958 21.036 16.96 21.012 17.208 20.987 17.205"/><polygon class="cls-14" points="21.223 17.221 21.264 16.976 21.399 16.996 21.394 17.026 21.284 17.009 21.271 17.084 21.374 17.1 21.37 17.128 21.267 17.112 21.252 17.196 21.367 17.213 21.362 17.242 21.223 17.221"/><polygon class="cls-14" points="21.615 17.312 21.693 17.106 21.634 17.086 21.644 17.059 21.785 17.106 21.775 17.134 21.716 17.114 21.639 17.32 21.615 17.312"/><path class="cls-14" d="M21.083,17.184l.046,0h.017a.034.034,0,0,0,.015-.006l.011-.013a.065.065,0,0,0,0-.021.062.062,0,0,0,0-.024.044.044,0,0,0-.014-.016.077.077,0,0,0-.027-.006l-.043,0Zm.01-.114.041,0h.023a.027.027,0,0,0,.016-.011.048.048,0,0,0,.007-.021.043.043,0,0,0,0-.023A.019.019,0,0,0,21.166,17L21.138,17,21.1,17Zm-.038.141.023-.247.07.006a.066.066,0,0,1,.035.011.049.049,0,0,1,.018.024.1.1,0,0,1,0,.034.063.063,0,0,1-.01.029.053.053,0,0,1-.021.021.045.045,0,0,1,.024.025.079.079,0,0,1,0,.07.049.049,0,0,1-.016.021.042.042,0,0,1-.021.011.078.078,0,0,1-.031,0Z"/><path class="cls-14" d="M21.462,17.122l.051.014a.052.052,0,0,0,.027,0,.024.024,0,0,0,.018-.01.059.059,0,0,0,.012-.02.043.043,0,0,0,0-.03.034.034,0,0,0-.027-.019l-.057-.016Zm-.064.127.071-.239.08.022a.094.094,0,0,1,.036.016.049.049,0,0,1,.013.028.088.088,0,0,1,0,.039.07.07,0,0,1-.025.039.066.066,0,0,1-.045.012.051.051,0,0,1,.011.016.207.207,0,0,1,.011.037l.011.073-.029-.008-.009-.056c0-.016-.006-.029-.008-.038a.057.057,0,0,0-.008-.019l-.009-.009-.012,0-.028-.008-.032.107Z"/><path class="cls-14" d="M21.909,17.4l.038.013a.062.062,0,0,0,.028,0A.044.044,0,0,0,22,17.408a.1.1,0,0,0,.024-.025.164.164,0,0,0,.021-.044.134.134,0,0,0,.012-.059.048.048,0,0,0-.012-.034.075.075,0,0,0-.029-.015l-.037-.012Zm-.035.02.088-.234.061.021a.1.1,0,0,1,.031.014.06.06,0,0,1,.019.025.09.09,0,0,1,.006.047.227.227,0,0,1-.013.058.281.281,0,0,1-.023.046.128.128,0,0,1-.025.03.111.111,0,0,1-.024.016.071.071,0,0,1-.026,0,.089.089,0,0,1-.03-.006Z"/><path class="cls-14" d="M21.777,17.263l.06.02.006-.071c0-.021,0-.039,0-.052a.354.354,0,0,1-.026.041Zm-.088.079.156-.211.026.009-.016.258-.026-.009.006-.078-.074-.025-.046.064Z"/><polygon class="cls-14" points="19.922 16.93 19.922 16.711 19.853 16.711 19.853 16.682 20.02 16.682 20.02 16.711 19.95 16.711 19.95 16.93 19.922 16.93"/><polygon class="cls-14" points="20.273 16.929 20.284 16.681 20.311 16.683 20.301 16.931 20.273 16.929"/><path class="cls-14" d="M19.5,16.833l.053-.009a.051.051,0,0,0,.036-.018.045.045,0,0,0,0-.035.053.053,0,0,0-.012-.025.031.031,0,0,0-.02-.011.091.091,0,0,0-.026,0l-.053.009Zm0,.134-.047-.245.078-.013a.1.1,0,0,1,.032,0,.064.064,0,0,1,.028.006.07.07,0,0,1,.021.021.09.09,0,0,1,.013.032.087.087,0,0,1-.006.056.076.076,0,0,1-.057.032l-.054.009.02.1Z"/><path class="cls-14" d="M19.706,16.825l.071,0-.027-.067c-.008-.02-.015-.038-.019-.05,0,.015-.005.032-.008.048Zm-.053.106.062-.254.03,0,.105.242-.031,0-.031-.073-.088.006-.017.077Z"/><path class="cls-14" d="M20.077,16.792h.059a.078.078,0,0,0,.03-.005.029.029,0,0,0,.016-.015.043.043,0,0,0,.006-.022.04.04,0,0,0-.011-.029.043.043,0,0,0-.034-.012h-.066Zm-.028.138v-.248h.093a.091.091,0,0,1,.042.007.048.048,0,0,1,.024.023.082.082,0,0,1,.009.038.065.065,0,0,1-.06.067.068.068,0,0,1,.017.012.176.176,0,0,1,.024.033l.036.068H20.2l-.027-.052-.021-.034a.079.079,0,0,0-.014-.016l-.012-.007h-.048v.11Z"/><path class="cls-14" d="M20.434,16.847l.071.012-.009-.071q0-.033-.006-.054a.228.228,0,0,1-.02.045Zm-.078.09.124-.23.03,0,.04.259-.032,0-.01-.078-.086-.015-.037.07Z"/><polygon class="cls-14" points="18.477 17.276 18.439 17.03 18.467 17.026 18.505 17.272 18.477 17.276"/><path class="cls-14" d="M18.771,17.14l.027,0a.082.082,0,0,0,.011.03.061.061,0,0,0,.024.017.061.061,0,0,0,.033,0,.051.051,0,0,0,.028-.008.028.028,0,0,0,.016-.016.034.034,0,0,0,0-.022.059.059,0,0,0-.007-.02.069.069,0,0,0-.021-.013.3.3,0,0,0-.039-.008.129.129,0,0,1-.042-.013.075.075,0,0,1-.026-.02.081.081,0,0,1-.01-.031A.061.061,0,0,1,18.776,17a.06.06,0,0,1,.024-.028.094.094,0,0,1,.038-.011.081.081,0,0,1,.042.005.062.062,0,0,1,.031.024.1.1,0,0,1,.015.038l-.027.005A.06.06,0,0,0,18.88,17a.053.053,0,0,0-.037-.009.055.055,0,0,0-.037.015.036.036,0,0,0-.01.027.031.031,0,0,0,.011.021.11.11,0,0,0,.045.014.2.2,0,0,1,.047.012.055.055,0,0,1,.03.023.073.073,0,0,1,.013.034.082.082,0,0,1-.006.038.075.075,0,0,1-.026.03.086.086,0,0,1-.04.013.122.122,0,0,1-.049-.006.069.069,0,0,1-.034-.027.1.1,0,0,1-.016-.043Z"/><path class="cls-14" d="M18.527,17.129a.152.152,0,0,1,.014-.1.093.093,0,0,1,.068-.045.1.1,0,0,1,.055.009.1.1,0,0,1,.042.041.18.18,0,0,1,.023.064.175.175,0,0,1,0,.069.091.091,0,0,1-.03.049.089.089,0,0,1-.049.023.094.094,0,0,1-.055-.01.1.1,0,0,1-.044-.041.155.155,0,0,1-.021-.059Zm.029,0a.12.12,0,0,0,.031.068.065.065,0,0,0,.056.018.064.064,0,0,0,.048-.033A.121.121,0,0,0,18.7,17.1a.146.146,0,0,0-.017-.051.069.069,0,0,0-.07-.039.067.067,0,0,0-.048.031.127.127,0,0,0-.009.082Z"/><path class="cls-14" d="M18.293,17.3l.043-.013a.1.1,0,0,0,.031-.014.038.038,0,0,0,.013-.018.059.059,0,0,0,.006-.034.181.181,0,0,0-.01-.047.124.124,0,0,0-.03-.054.059.059,0,0,0-.034-.019.111.111,0,0,0-.036,0l-.043.013Zm-.017.036L18.2,17.1l.071-.021a.176.176,0,0,1,.037-.007.068.068,0,0,1,.036.008.113.113,0,0,1,.037.033.227.227,0,0,1,.027.054.37.37,0,0,1,.011.049.119.119,0,0,1,0,.039.067.067,0,0,1-.012.027.061.061,0,0,1-.02.019.126.126,0,0,1-.031.014Z"/><path class="cls-4" d="M18.235,17.761l.323.307v2.459a.461.461,0,0,0,.431.409h.538a.6.6,0,0,1,.485.256.586.586,0,0,1,.484-.256l.584.008a.453.453,0,0,0,.384-.417V18.068l.324-.307Z"/><path d="M20.012,21.228,20,21.2a.585.585,0,0,0-.468-.247h-.538a.483.483,0,0,1-.45-.428V18.068l-.317-.294,3.566-.032-.31.339.006,2.446a.453.453,0,0,1-.133.3.4.4,0,0,1-.268.138h0l-.588-.008h0a.577.577,0,0,0-.467.247l-.016.026Zm1.762-3.481-3.539.033.336.275.006,2.472a.441.441,0,0,0,.412.39h.538a.615.615,0,0,1,.485.242.6.6,0,0,1,.476-.242l.592.008h0a.358.358,0,0,0,.243-.126.41.41,0,0,0,.122-.272V18.068l.329-.321Z"/><polygon class="cls-6" points="20.281 17.761 20.281 19.195 21.464 19.195 21.464 18.068 21.788 17.761 20.281 17.761"/><path d="M21.476,19.207h-1.2l-.012-1.446,1.519-.012-.315.328,0,1.13Zm.3-1.455-1.5.02.012,1.423,1.159-.012V18.068l.327-.316Z"/><polygon class="cls-5" points="18.235 17.761 19.742 17.761 19.742 19.195 18.558 19.195 18.558 18.068 18.235 17.761"/><path d="M19.754,19.207h-1.2l-.012-1.139-.319-.3,1.515-.02.012,1.458Zm-.024-1.446-1.5.011.331.288,0,1.135,1.16-.012V17.761Z"/><path class="cls-6" d="M18.558,19.707h1.184v1.281l-.108-.052h-.645a.451.451,0,0,1-.431-.409Z"/><path d="M19.754,21.006l-.125-.059h-.64a.462.462,0,0,1-.443-.421v-.82l1.2-.012.012,1.311Zm-.024-1.3-1.172.012.012.808a.443.443,0,0,0,.419.4h.645l.1.044V19.707Z"/><path class="cls-5" d="M21.464,19.707H20.281v1.281l.107-.052h.646a.45.45,0,0,0,.43-.409Z"/><path d="M20.269,21.006v-1.3l1.2-.012.012.832a.462.462,0,0,1-.442.421h-.646l-.119.058Zm1.183-1.3-1.171.012.012,1.25.09-.043h.651a.442.442,0,0,0,.418-.4v-.82Z"/><path d="M20.012,21.228,20,21.2a.585.585,0,0,0-.468-.247h-.538a.483.483,0,0,1-.45-.428V18.068l-.317-.294,3.566-.032-.31.339.006,2.446a.453.453,0,0,1-.133.3.4.4,0,0,1-.268.138h0l-.588-.008h0a.577.577,0,0,0-.467.247l-.016.026Zm1.762-3.481-3.539.033.336.275.006,2.472a.441.441,0,0,0,.412.39h.538a.615.615,0,0,1,.485.242.6.6,0,0,1,.476-.242l.592.008h0a.358.358,0,0,0,.243-.126.41.41,0,0,0,.122-.272V18.068l.329-.321Z"/><polygon class="cls-14" points="19.958 18.58 19.958 18.99 20.065 18.99 20.065 18.58 20.172 18.58 20.172 18.478 20.065 18.478 20.065 18.375 19.958 18.375 19.958 18.478 19.85 18.478 19.85 18.58 19.958 18.58"/><path d="M20.084,19.009h-.126l-.02-.429-.088.019-.019-.121.127-.019-.02-.084.127-.019.019.122.088-.019.02.121-.127.019.019.41Zm-.126-.448.019.429.069-.015v-.4l.126-.019-.019-.083-.088.019-.019-.122-.088.019.019.084-.127.019.019.083.089-.019Z"/><polygon class="cls-15" points="20.048 19.111 19.191 18.006 19.249 17.963 20.105 19.068 20.048 19.111 20.048 19.111"/><polygon class="cls-14" points="19.185 18.006 19.094 17.819 19.267 17.959 19.185 18.006"/><path class="cls-6" d="M19.668,18.807c-.007.012-.11.422-.11.422a2.175,2.175,0,0,0,.335.031,2.68,2.68,0,0,0-.065-.3,1.166,1.166,0,0,1-.16-.153Z"/><path class="cls-4" d="M19.384,18.526l-.058.557s.386.33.38.287-.032-.563-.032-.563Z"/><path class="cls-5" d="M19.063,18.19l-.019.611a3.008,3.008,0,0,0,.34.245c0-.025.033-.5.033-.5Z"/><polygon points="19.057 18.704 19.037 18.183 19.076 18.185 19.057 18.704 19.057 18.704"/><polygon class="cls-15" points="20.002 19.147 18.995 18.165 19.046 18.115 20.053 19.098 20.002 19.147 20.002 19.147"/><polygon class="cls-14" points="18.988 18.166 18.871 17.993 19.063 18.108 18.988 18.166"/><path class="cls-4" d="M18.88,18.375v1.537a.55.55,0,0,0,.539.512,3.552,3.552,0,0,0,.539-.1V19.2Z"/><path d="M19.4,20.443a.573.573,0,0,1-.536-.531V18.375l1.108.8.008,1.142a2.206,2.206,0,0,1-.556.12Zm-.528-2.053.031,1.522a.531.531,0,0,0,.5.494v.019l.021-.02a3.721,3.721,0,0,0,.534-.1L19.938,19.2l-1.069-.8Z"/><path class="cls-6" d="M18.88,19.605v.307a.55.55,0,0,0,.539.512,3.552,3.552,0,0,0,.539-.1c-.216-.1-.754.205-.754-.615a.413.413,0,0,1-.324-.1Z"/><path class="cls-5" d="M19.216,18.615,19.2,19.5a1.283,1.283,0,0,1-.324-.1V18.375Z"/><path class="cls-6" d="M19.513,18.868v.685a.442.442,0,0,1,.2.037c.129.049.245.1.245.1v-.5Z"/><path class="cls-5" d="M19.93,19.914a2.012,2.012,0,0,0-.295-.122.573.573,0,0,0-.135.006.981.981,0,0,0-.007.165c.007.061.1.092.136.092s.3-.031.3-.031Z"/><path d="M19.4,20.443a.573.573,0,0,1-.536-.531V18.375l1.108.8.008,1.142a2.206,2.206,0,0,1-.556.12Zm-.528-2.053.031,1.522a.531.531,0,0,0,.5.494v.019l.021-.02a3.721,3.721,0,0,0,.534-.1L19.938,19.2l-1.069-.8Z"/><polygon class="cls-15" points="19.947 19.22 18.829 18.352 18.874 18.297 19.992 19.165 19.947 19.22 19.947 19.22"/><polygon class="cls-14" points="18.823 18.354 18.685 18.194 18.889 18.289 18.823 18.354"/><polygon class="cls-15" points="19.991 19.092 19.933 19.05 20.79 17.945 20.848 17.987 19.991 19.092 19.991 19.092"/><polygon class="cls-14" points="20.855 17.988 20.945 17.801 20.773 17.94 20.855 17.988"/><path class="cls-6" d="M20.372,18.789c.006.012.109.422.109.422a2.162,2.162,0,0,1-.334.031,2.43,2.43,0,0,1,.064-.3,1.174,1.174,0,0,0,.161-.153Z"/><path class="cls-4" d="M20.655,18.508l.057.556s-.385.331-.379.287.033-.562.033-.562Z"/><path class="cls-5" d="M20.976,18.172l.019.611a2.876,2.876,0,0,1-.34.244c0-.024-.032-.5-.032-.5Z"/><polygon points="21.02 18.684 20.963 18.166 21.002 18.165 21.02 18.684 21.02 18.684"/><polygon class="cls-15" points="20.036 19.129 19.985 19.08 20.994 18.097 21.045 18.146 20.036 19.129 20.036 19.129"/><polygon class="cls-14" points="21.051 18.148 21.168 17.974 20.977 18.09 21.051 18.148"/><path class="cls-4" d="M21.158,18.357v1.537a.55.55,0,0,1-.538.512,3.643,3.643,0,0,1-.538-.1V19.176Z"/><path d="M20.642,20.425h-.023a3.554,3.554,0,0,1-.542-.1l-.014-1.145,1.084-.834.031,1.552a.573.573,0,0,1-.536.531Zm-.536-.124c.041,0,.322.072.516.086l.02.02v-.019a.531.531,0,0,0,.5-.494V18.357l-1.045.834L20.1,20.3Z"/><path class="cls-6" d="M21.158,19.586v.308a.55.55,0,0,1-.538.512,3.643,3.643,0,0,1-.538-.1c.215-.1.753.2.753-.614a.406.406,0,0,0,.323-.1Z"/><path class="cls-5" d="M20.823,18.6l.012.887a1.2,1.2,0,0,0,.323-.1V18.357Z"/><path class="cls-6" d="M20.526,18.85v.685a.442.442,0,0,0-.2.037c-.129.049-.245.1-.245.1v-.5Z"/><path class="cls-5" d="M20.108,19.9a2.032,2.032,0,0,1,.3-.122.573.573,0,0,1,.135.006.9.9,0,0,1,.006.164c-.006.062-.1.092-.134.092s-.3-.03-.3-.03Z"/><path d="M20.642,20.425h-.023a3.554,3.554,0,0,1-.542-.1l-.014-1.145,1.084-.834.031,1.552a.573.573,0,0,1-.536.531Zm-.536-.124c.041,0,.322.072.516.086l.02.02v-.019a.531.531,0,0,0,.5-.494V18.357l-1.045.834L20.1,20.3Z"/><polygon class="cls-15" points="20.092 19.202 20.047 19.147 21.166 18.278 21.211 18.333 20.092 19.202 20.092 19.202"/><polygon class="cls-14" points="21.217 18.336 21.353 18.176 21.15 18.27 21.217 18.336"/><path class="cls-6" d="M20.2,20.265c.023.027.114.141.139.114s-.058-.238-.087-.347a1.48,1.48,0,0,1-.1-.4c-.006-.169-.111.018-.111.018Z"/><path d="M20.329,20.4c-.032,0-.076-.044-.136-.116l-.171-.633c.019-.043.062-.113.1-.113s.046.067.047.089a.91.91,0,0,0,.066.295,1.014,1.014,0,0,1,.033.1c.009.033.023.076.037.12.05.154.068.22.046.244l-.024.011Zm-.207-.825a.236.236,0,0,0-.064.081l.16.6a.467.467,0,0,0,.107.1,1.089,1.089,0,0,0-.055-.206c-.014-.045-.028-.088-.037-.121a1.049,1.049,0,0,0-.032-.1.972.972,0,0,1-.069-.307c0-.045-.01-.052-.01-.053Z"/><path class="cls-6" d="M20.108,20.6l.206.009s-.067-.265-.086-.42a4.942,4.942,0,0,0-.192-.621Z"/><path d="M20.339,20.627l-.232-.01-.09-1.05a1.942,1.942,0,0,1,.23.618c.019.154.086.417.086.418l.006.024Zm-.321-1.055.11,1.025.162-.007c-.016-.067-.065-.272-.081-.4a4.994,4.994,0,0,0-.191-.618Z"/><path class="cls-4" d="M19.959,19.521a1.926,1.926,0,0,0-.292.675.722.722,0,0,0,.182.439c.048.073.163.3.163.3a1.779,1.779,0,0,0,.154-.356c.014-.1-.053-.524-.034-.689a4.39,4.39,0,0,1,.149-.552Z"/><path d="M20.011,20.982l-.017-.034s-.113-.231-.161-.3l-.029-.04a.664.664,0,0,1-.156-.409,1.727,1.727,0,0,1,.288-.674l.335-.2c.027.026-.1.41-.12.571a2.589,2.589,0,0,0,.019.407,1.852,1.852,0,0,1,.015.283,1.768,1.768,0,0,1-.156.362l-.018.033Zm.252-1.645-.294.2a1.627,1.627,0,0,0-.283.659.627.627,0,0,0,.149.387l.03.041c.037.057.114.207.147.275a1.525,1.525,0,0,0,.135-.317,1.886,1.886,0,0,0-.015-.275,2.552,2.552,0,0,1-.019-.415,4.078,4.078,0,0,1,.15-.555Z"/><path class="cls-5" d="M19.959,19.521a1.926,1.926,0,0,0-.292.675.722.722,0,0,0,.182.439,3.565,3.565,0,0,1-.014-.466,1.166,1.166,0,0,1,.345-.772Z"/><path class="cls-6" d="M20.075,19.393a3.477,3.477,0,0,0-.116.557c0,.114.047.38.06.6a2.487,2.487,0,0,1-.007.391,1.779,1.779,0,0,0,.154-.356c.015-.1-.053-.524-.034-.689a4.39,4.39,0,0,1,.149-.552Z"/><path d="M20.011,20.982l-.017-.034s-.113-.231-.161-.3l-.029-.04a.664.664,0,0,1-.156-.409,1.727,1.727,0,0,1,.288-.674l.335-.2c.027.026-.1.41-.12.571a2.589,2.589,0,0,0,.019.407,1.852,1.852,0,0,1,.015.283,1.768,1.768,0,0,1-.156.362l-.018.033Zm.252-1.645-.294.2a1.627,1.627,0,0,0-.283.659.627.627,0,0,0,.149.387l.03.041c.037.057.114.207.147.275a1.525,1.525,0,0,0,.135-.317,1.886,1.886,0,0,0-.015-.275,2.552,2.552,0,0,1-.019-.415,4.078,4.078,0,0,1,.15-.555Z"/><path class="cls-6" d="M19.916,19.42c-.067.055-.019.183-.019.183a.18.18,0,0,1,.139-.051c.091,0,.149.137.149.137a.185.185,0,0,0,.067-.127c.01-.087-.182-.183-.336-.142Z"/><path d="M20.177,19.718l-.01-.021s-.054-.122-.132-.126h0a.162.162,0,0,0-.122.044.147.147,0,0,1-.008-.209.325.325,0,0,1,.336.079.1.1,0,0,1,.031.079.2.2,0,0,1-.075.14l-.019.014Zm-.151-.185a.226.226,0,0,1,.165.125.18.18,0,0,0,.042-.1.069.069,0,0,0-.022-.05.339.339,0,0,0-.29-.072c-.036.031-.021.105-.012.139a.144.144,0,0,1,.117-.044Z"/><path d="M19.712,19.072l.187.47s.083-.035.136-.052a.248.248,0,0,1,.118-.007s.087-.046.13-.062a.606.606,0,0,1,.134-.016l.014-.018a4.921,4.921,0,0,0-.712-.346Z"/><path d="M19.888,19.567l-.194-.488.019-.056h0a4.59,4.59,0,0,1,.726.347l.019.01-.026.036c-.017.008-.1.009-.145.023s-.125.06-.125.06h-.057a.206.206,0,0,0-.064.009c-.053.018-.135.052-.135.052l-.019.008Zm-.163-.508.185.458c.027-.011.081-.033.119-.045a.349.349,0,0,1,.127-.008.653.653,0,0,1,.12-.061.761.761,0,0,1,.141-.017,6.491,6.491,0,0,0-.692-.327Z"/><path class="cls-4" d="M19.726,19.03l.186.47s.083-.035.137-.052a.248.248,0,0,1,.118-.007s.087-.046.129-.062a.619.619,0,0,1,.135-.016l-.187-.516a.733.733,0,0,0-.132.028.484.484,0,0,0-.113.077.4.4,0,0,0-.149.009.362.362,0,0,0-.124.069Z"/><path d="M19.9,19.525l-.194-.488a.273.273,0,0,1,.135-.093.319.319,0,0,1,.1-.013l.05,0a.554.554,0,0,1,.116-.076.732.732,0,0,1,.137-.028l.207.528c-.019.025-.1.026-.147.04s-.126.06-.126.06H20.12a.185.185,0,0,0-.065.01c-.053.017-.135.051-.135.051l-.018.008Zm.326-.665a.754.754,0,0,1-.11.032.488.488,0,0,0-.106.074l-.073,0a.293.293,0,0,0-.083.011.365.365,0,0,0-.116.064l.183.433c.027-.012.081-.033.12-.046a.4.4,0,0,1,.127-.008.634.634,0,0,1,.119-.061.77.77,0,0,1,.141-.017l-.2-.484Z"/><polygon class="cls-16" points="20.187 19.437 19.988 18.956 20.01 18.948 20.187 19.437 20.187 19.437"/><path class="cls-16" d="M19.762,19.071l-.015-.018a.383.383,0,0,1,.268-.071.558.558,0,0,0-.253.089Z"/><path class="cls-16" d="M19.781,19.128l-.015-.018a.387.387,0,0,1,.268-.071.558.558,0,0,0-.253.089Z"/><path class="cls-16" d="M19.8,19.191l-.015-.019a.375.375,0,0,1,.268-.07.558.558,0,0,0-.253.089Z"/><path class="cls-16" d="M19.819,19.256l-.015-.018a.379.379,0,0,1,.268-.071.558.558,0,0,0-.253.089Z"/><path class="cls-16" d="M19.855,19.322,19.84,19.3a.383.383,0,0,1,.268-.071.57.57,0,0,0-.253.089Z"/><path class="cls-16" d="M19.872,19.386l-.015-.018a.384.384,0,0,1,.268-.071.57.57,0,0,0-.253.089Z"/><path class="cls-16" d="M19.9,19.448l-.015-.019a.387.387,0,0,1,.268-.07.558.558,0,0,0-.253.089Z"/><path class="cls-16" d="M20.029,19l-.018-.016a.358.358,0,0,1,.248-.1.518.518,0,0,0-.23.117Z"/><path class="cls-16" d="M20.045,19.075l-.018-.016a.363.363,0,0,1,.249-.1.538.538,0,0,0-.231.117Z"/><path class="cls-16" d="M20.062,19.125l-.018-.016a.368.368,0,0,1,.249-.1.526.526,0,0,0-.231.117Z"/><path class="cls-16" d="M20.093,19.191l-.018-.015a.362.362,0,0,1,.249-.1.526.526,0,0,0-.231.116Z"/><path class="cls-16" d="M20.107,19.258l-.017-.016a.363.363,0,0,1,.249-.1.525.525,0,0,0-.232.117Z"/><path class="cls-16" d="M20.139,19.315l-.018-.016a.358.358,0,0,1,.248-.1.512.512,0,0,0-.23.117Z"/><path class="cls-16" d="M20.163,19.376l-.017-.015a.362.362,0,0,1,.248-.1.526.526,0,0,0-.231.117Z"/><path d="M19.9,19.525l-.194-.488a.273.273,0,0,1,.135-.093.319.319,0,0,1,.1-.013l.05,0a.554.554,0,0,1,.116-.076.732.732,0,0,1,.137-.028l.207.528c-.019.025-.1.026-.147.04s-.126.06-.126.06H20.12a.185.185,0,0,0-.065.01c-.053.017-.135.051-.135.051l-.018.008Zm.326-.665a.754.754,0,0,1-.11.032.488.488,0,0,0-.106.074l-.073,0a.293.293,0,0,0-.083.011.365.365,0,0,0-.116.064l.183.433c.027-.012.081-.033.12-.046a.4.4,0,0,1,.127-.008.634.634,0,0,1,.119-.061.77.77,0,0,1,.141-.017l-.2-.484Z"/><path class="cls-17" d="M19.384,22.28a3.214,3.214,0,0,0,.437-.293c.142-.123.27-.282.425-.428s.231-.111.308-.282a.758.758,0,0,0,.038-.412c.054,0,.074.054.105.114.014.03.081-.206.079-.136a2.315,2.315,0,0,0,0,.245c.025-.037.135-.275.135-.275s-.052.33-.038.293a1.922,1.922,0,0,1,.141-.208v.208a.979.979,0,0,0,.115-.257c.026-.012.078.147.1.11s.052-.257.09-.232.065.135.065.135a4.245,4.245,0,0,1,.012-.7c.039.012.129.036.129.036v-.269s.1.318.116.355a1.385,1.385,0,0,0-.039-.33,2.076,2.076,0,0,1-.051-.221s.132.184.155.221a1.319,1.319,0,0,0-.129-.355c-.026,0-.142.134-.117.123s.091-.282.129-.282.115.2.1.173l-.075-.418.1.184a.354.354,0,0,0,0-.171.761.761,0,0,1-.039-.159s.077.1.065.073a1.147,1.147,0,0,1,0-.22s.054.115.067.139.061.094.061.094v-.086l.067.054s-.144-.3-.209-.311-.153.1-.153.1.115-.2.153-.2h.052l-.038-.208s.256.343.244.294-.116-.281-.129-.367-.051-.232-.051-.232.089.122.115.159.1.183.1.159-.012-.306-.012-.306l.128.269.115-.318.065.306s.051-.147.064-.208.051-.061.051-.061-.012.257-.012.281-.026.159-.026.159l.141-.281c.026-.049.128-.086.128-.086s-.05.11-.064.147a1.893,1.893,0,0,0-.128.318c.025,0,.128-.147.192-.147s.181.159.155.171-.129-.049-.167-.049-.347.33-.3.318a1.246,1.246,0,0,0,.232-.2s-.065.15-.039.138.218-.122.218-.122-.282.244-.244.244A1.027,1.027,0,0,0,22.727,19l-.194.232a.789.789,0,0,1,.213-.1.669.669,0,0,1,.16.039,1.942,1.942,0,0,0-.218.024c-.026.013-.219.282-.167.257a.855.855,0,0,0,.153-.134l-.064.159.27-.159-.373.379s.258-.2.3-.183a1.664,1.664,0,0,1,.219.208,2.526,2.526,0,0,0-.257-.111,1.956,1.956,0,0,0-.322.4,1.367,1.367,0,0,1,.284-.122c.05,0,.14.22.115.22s-.142-.061-.168-.061-.32.171-.32.171l.282-.049a1.407,1.407,0,0,0,.244-.025c.052-.024.193-.073.193-.073s-.148.092-.224.153a.532.532,0,0,1-.213.08l.244.024s-.334.1-.417.131-.131.061-.183.086c.039,0,.227-.009.279-.009s.3.036.3.036-.322.049-.36.049a.206.206,0,0,0-.09.037l.347.036-.231.037s.167.059.206.071a1.184,1.184,0,0,1,.153.088s-.295-.061-.359-.061a1.421,1.421,0,0,0-.164.015.524.524,0,0,1,.17.037.107.107,0,0,1,.058.046l-.167-.012a1.086,1.086,0,0,0,.154.1.251.251,0,0,1,.077.048l-.257-.024.218.159s-.231-.049-.27-.049H22.3a1.038,1.038,0,0,1,.141.122.962.962,0,0,1,.052.086,1.139,1.139,0,0,1-.155-.049.581.581,0,0,0-.141-.037l.116.123-.193-.037.1.147-.193-.062s.09.049.09.086-.038.208-.064.184-.038-.123-.064-.159a.265.265,0,0,0-.065-.062.459.459,0,0,0-.131-.036c.012.024.15.11.17.137l-.244-.027s.231.11.193.11-1.273-.1-1.35-.1-.45.416-.527.452-.257.245-.334.257a.861.861,0,0,0-.18.062Z"/><path class="cls-18" d="M19.526,22.375l-.151-.078c.03-.047.3-.207.433-.325a2.787,2.787,0,0,0,.232-.23c.061-.065.124-.132.192-.2a.813.813,0,0,1,.156-.115.305.305,0,0,0,.149-.16.486.486,0,0,0,.042-.282c0-.036-.006-.076-.006-.123.078-.017.1.032.131.085a.411.411,0,0,1,.021-.062c.025-.062.031-.077.049-.077.019.131.019.257.023.271a1.289,1.289,0,0,1,.1-.277v.006c.005,0,.006.014,0,.028a1.217,1.217,0,0,1,0,.223A.9.9,0,0,1,21,20.887l.03.187c.012-.051.066-.15.082-.228.045-.016.061.012.083.05a.222.222,0,0,0,.034.051.388.388,0,0,1,.017-.091c.023-.1.038-.15.072-.15a.249.249,0,0,1,.089.152,2.139,2.139,0,0,1-.023-.705l.151.03-.024-.251c.016-.017.084.151.122.256-.017-.079-.03-.186-.044-.225a1.969,1.969,0,0,1-.052-.223c.027-.013.12.107.167.172-.043-.082-.111-.275-.131-.294,0,.006-.038.042-.073.083a.1.1,0,0,1,0-.1c.044-.127.065-.179.1-.179.054,0,.113.164.118.175v0c-.058-.05-.1-.134-.119-.14a1.1,1.1,0,0,0-.06.152v0a.08.08,0,0,1,.049-.033c.055,0,.148.37.148.374a.719.719,0,0,1-.149-.155c.016.046.03.109.044.149a1.338,1.338,0,0,1,.039.35,1.837,1.837,0,0,1-.152-.363l.037.263-.153-.018c0,.028,0,.371.012.678-.048-.038-.072-.1-.094-.118,0,.009-.021.08-.031.122a.387.387,0,0,1-.033.105c-.048.014-.063-.012-.089-.056a.25.25,0,0,0-.031-.048.657.657,0,0,1-.1.25l0-.013a.026.026,0,0,1,0-.016L21,20.9a1.073,1.073,0,0,1-.1.214c-.035,0-.044,0-.016-.194a1.231,1.231,0,0,1-.083.181c-.031,0-.041-.009-.039-.184-.027.069-.037.085-.056.085-.056-.084-.073-.116-.108-.116a.21.21,0,0,1,.025.1.522.522,0,0,1-.045.3.337.337,0,0,1-.164.177.748.748,0,0,0-.149.11c-.068.064-.13.131-.191.2a3.209,3.209,0,0,1-.234.233,3.341,3.341,0,0,1-.441.3l.131.037a.81.81,0,0,1,.179-.06.666.666,0,0,0,.184-.139.793.793,0,0,1,.144-.116,1.66,1.66,0,0,0,.205-.185c.173-.168.282-.27.331-.27s.474.033.852.061l.459.035a1.628,1.628,0,0,1-.163-.072l.214-.007a.28.28,0,0,1-.056-.034.407.407,0,0,1-.093-.078.258.258,0,0,1,.158.011.215.215,0,0,1,.105.154.218.218,0,0,0,.028.07,1.535,1.535,0,0,0,.032-.17c0-.015-.042-.049-.08-.069h0a.077.077,0,0,1,.068.008l.135.018-.125-.118.213.007-.134-.091c.021-.03.11-.018.164.007a.723.723,0,0,0,.111.038c-.011-.013-.021-.031-.033-.047a.93.93,0,0,0-.136-.118l-.046-.034h.095c.04,0,.25.045.274.049l-.234-.125.218-.007a.23.23,0,0,0-.032-.015,1.028,1.028,0,0,1-.16-.1l.142-.017a.225.225,0,0,0-.028-.015.514.514,0,0,0-.165-.035c0-.037.1-.053.166-.053a2.619,2.619,0,0,1,.276.044c-.032-.013-.062-.03-.076-.035-.039-.011-.207-.07-.207-.07l.011,0c0-.006.012-.008.024-.008h0l.2-.062H22.4c0-.038.049-.074.092-.074.024,0,.156-.018.253-.033-.073,0-.161-.014-.189-.014s-.094,0-.156.005l-.123,0,.009-.019-.009-.018H22.3l.007-.015c.043-.022.09-.045.149-.07.085-.031.42-.132.42-.132l-.163.008.17-.009c0,.037-.329.137-.412.168-.039.016-.073.032-.1.047H22.4c.063,0,.13-.006.158-.006.052,0,.3.037.3.037,0,.037-.324.086-.363.086a.185.185,0,0,0-.079.033l.338,0-.2.062a1.149,1.149,0,0,1,.173.045,1.26,1.26,0,0,1,.159.092,2.665,2.665,0,0,1-.37-.027H22.5a.167.167,0,0,1,.041.016.12.12,0,0,1,.067.055l-.187.013h0a.517.517,0,0,1,.162.062.256.256,0,0,1,.084.053h-.015c-.008.013-.023.01-.039,0l-.218,0,.232.126a1.272,1.272,0,0,1-.269-.014.487.487,0,0,1,.106.092.775.775,0,0,1,.053.088c-.026.024-.128,0-.18-.024A.575.575,0,0,0,22.2,21.3l.132.091-.211,0,.122.117-.138-.021a.074.074,0,0,1,.039.056s-.023.205-.078.205a.152.152,0,0,1-.057-.1.289.289,0,0,0-.028-.075.267.267,0,0,0-.059-.056h0a.49.49,0,0,0-.059-.021l.036.024a.572.572,0,0,1,.088.071l-.263,0c.225.066.222.077.219.093a3.11,3.11,0,0,1-.524-.02c-.359-.028-.8-.061-.849-.061a1.507,1.507,0,0,0-.3.259,1.417,1.417,0,0,1-.215.191.856.856,0,0,0-.135.11.588.588,0,0,1-.2.149.9.9,0,0,0-.175.059l-.008,0Zm3.108-2.045c0-.037.13-.055.2-.113.025-.019.056-.042.088-.063l-.035.015a.443.443,0,0,1-.153.02.655.655,0,0,0-.1.006c-.064.013-.283.049-.283.049l.006,0c0-.007.009-.014.024-.021a1.017,1.017,0,0,1,.287-.182.317.317,0,0,1,.092.032.414.414,0,0,0,.076.029c-.011-.02-.087-.179-.116-.182a1.064,1.064,0,0,0-.232.1l-.042.021c-.033-.046.266-.44.313-.44a1.886,1.886,0,0,1,.265.113c-.109-.065-.211-.166-.232-.174a1.413,1.413,0,0,0-.279.181l0,0a.323.323,0,0,1,.073-.086l.271-.318-.246.188.027-.135a.363.363,0,0,1-.118.111c-.045-.053.125-.278.15-.29a.711.711,0,0,1,.132-.02.456.456,0,0,0-.065-.008.7.7,0,0,0-.2.1l0-.006c0-.011.01-.026.027-.041l.117-.183a.348.348,0,0,1-.159.074c-.021-.022-.03-.039.1-.164-.033.02-.061.036-.07.04-.03-.013-.041-.025-.006-.115a.547.547,0,0,1-.19.177c-.03-.068.246-.355.291-.355a.319.319,0,0,1,.087.027.293.293,0,0,0,.071.024c-.007-.017-.1-.135-.146-.135-.031,0-.085.055-.121.092s-.054.055-.071.055c-.03-.027-.019-.063.074-.263.018-.039.032-.07.036-.08.01-.027.039-.091.055-.126-.022.027-.069.052-.084.08-.025.048-.14.28-.14.28-.037-.012-.012-.143-.012-.167s.008-.177.011-.248a.156.156,0,0,0-.012.032c-.012.062-.064.21-.064.21l0-.011c-.006,0-.009-.013-.009-.027l-.088-.27-.079.32-.141-.231a1.724,1.724,0,0,1,.027.262c-.036.02-.041.016-.1-.084-.016-.026-.031-.052-.04-.065l-.065-.09a1,1,0,0,1,.036.151,1.791,1.791,0,0,0,.087.254,1.131,1.131,0,0,1,.041.111c-.031.026-.049.027-.278-.279l.073.194-.071.022a.305.305,0,0,0-.066.077.109.109,0,0,1,.056-.018c.083.015.2.251.236.323l-.1-.032,0,.007-.01-.021.1.04c-.1-.117-.19-.272-.224-.278h0c-.051,0-.114.065-.134.091v0c-.009-.013,0-.037.017-.06.032-.089.087-.163.12-.163h.052l-.057-.185a2.758,2.758,0,0,1,.22.226l-.016-.038a1.726,1.726,0,0,1-.089-.262c-.013-.085-.051-.231-.051-.231l.006.006c.011-.008.021.009.031.029l.113.109c.009.013.025.04.041.068s.036.062.048.079A1.56,1.56,0,0,1,22,18.2l0,.007c.006,0,.012.011.017.027l.143.226.08-.316.089.27a1.575,1.575,0,0,1,.039-.17c.016-.075.068-.076.07-.076a1.576,1.576,0,0,1,.007.3.4.4,0,0,1-.008.057c.029-.073.073-.16.087-.188a.29.29,0,0,1,.139-.094c.024.025-.026.134-.04.17,0,.011-.018.043-.037.083s-.061.132-.081.183l.015-.016c.048-.048.1-.1.149-.1.068,0,.166.126.176.172l-.03.039a.283.283,0,0,1-.086-.027.331.331,0,0,0-.072-.024,1.6,1.6,0,0,0-.282.3c.013-.025.131-.135.2-.21a.468.468,0,0,1-.012.144,1.143,1.143,0,0,1,.2-.132l0,0c.006.011-.012.03-.038.051-.082.1-.171.189-.178.207a.7.7,0,0,1,.169-.091L22.709,19l-.007.013-.122.187a.35.35,0,0,1,.166-.083.646.646,0,0,1,.167.041l-.01,0a.029.029,0,0,1-.026.01,1.723,1.723,0,0,1-.181.044,1.239,1.239,0,0,0-.165.239,1.6,1.6,0,0,1,.129-.146l0,.009c.006.007,0,.02-.006.036l-.024.134.242-.182-.272.319a.518.518,0,0,1,.2-.127,1.178,1.178,0,0,1,.237.215,1.977,1.977,0,0,1-.272-.079,3.8,3.8,0,0,0-.281.344.885.885,0,0,1,.244-.1c.062,0,.139.19.139.23-.04.027-.069.016-.115,0a.479.479,0,0,0-.077-.028,2.608,2.608,0,0,0-.239.127c.066-.019.159-.035.2-.043a.709.709,0,0,1,.1-.007.463.463,0,0,0,.137-.015c.052-.025.2-.075.2-.075.017.034-.13.125-.206.185a.542.542,0,0,1-.22.084Zm-.928-.755-.1-.373.12.148a.633.633,0,0,0-.016-.132.778.778,0,0,1-.04-.164c.021-.008.053.016.073.037a.557.557,0,0,1-.008-.187c.035,0,.09.107.1.132s.045.07.056.086l.007.016c-.037.013-.085-.06-.1-.085l-.067-.14a1.074,1.074,0,0,1,.035.2c-.019.022-.027.029-.055,0,.01.028.018.062.029.089a.359.359,0,0,1,0,.183l-.138-.18.1.368Z"/><path class="cls-18" d="M20.593,21.381l-.027-.026a1.567,1.567,0,0,0,.178-.2.484.484,0,0,0,.026-.075c.038.009.028.045.01.089a1.467,1.467,0,0,1-.187.214Z"/><path class="cls-18" d="M20.672,21.41l-.021-.032a.721.721,0,0,0,.214-.3c.032.022-.053.239-.193.329Z"/><path class="cls-18" d="M20.909,21.322l-.022-.03a.532.532,0,0,0,.115-.2c.034.02-.025.184-.093.23Z"/><path class="cls-18" d="M20.945,21.418l-.021-.031a.6.6,0,0,0,.237-.468.464.464,0,0,1-.216.5Z"/><path class="cls-18" d="M21.1,21.424l-.028-.026a1,1,0,0,0,.236-.622.735.735,0,0,1-.208.648Z"/><path class="cls-18" d="M21.18,21.462l-.018-.033c.193-.1.2-.562.2-.615l.039-.034c0,.123-.011.574-.219.682Z"/><path class="cls-18" d="M21.492,21.13a1.493,1.493,0,0,0-.093-.495.726.726,0,0,1,.132.494Z"/><path class="cls-18" d="M21.6,21.027h-.038a1.026,1.026,0,0,0-.116-.522c.037-.017.163.2.154.523Z"/><path class="cls-18" d="M21.626,21.006l-.038,0c.073-.7-.078-.78-.08-.781.033-.026.194.057.118.784Z"/><path class="cls-18" d="M21.736,20.7l-.039,0a.62.62,0,0,0-.06-.41c.033-.02.126.1.1.414Z"/><path class="cls-18" d="M21.839,20.488l-.038,0a1.1,1.1,0,0,0-.111-.516h0a.7.7,0,0,1,.148.521Z"/><path class="cls-18" d="M21.845,20.9l-.021-.032c.288-.184.481-.264.558-.237a2.029,2.029,0,0,0-.537.269Z"/><path class="cls-18" d="M21.714,21.162l-.022-.03c.578-.387.7-.3.71-.293a1.484,1.484,0,0,0-.688.323Z"/><path class="cls-18" d="M22.4,21.04a1.828,1.828,0,0,0-.383-.008l0-.037c.236-.015.373,0,.407.038a.03.03,0,0,1-.021.007Z"/><path class="cls-18" d="M22.18,21.255a.89.89,0,0,0-.308-.024l0-.037a.485.485,0,0,1,.326.048c0,.009-.008.013-.015.013Z"/><path class="cls-18" d="M22.035,20.2l-.029-.025c.392-.436.477-.474.485-.476.01.036-.074.076-.456.5Z"/><path class="cls-18" d="M22.018,20.312,22,20.28c.4-.254.447-.292.449-.293.023.03-.022.064-.427.325Z"/><path class="cls-18" d="M21.98,20.52l-.027-.026c.3-.282.429-.3.434-.3,0,.037-.124.056-.407.325Z"/><path class="cls-18" d="M21.978,20.643l-.024-.029c.512-.392.732-.317.742-.314a1.478,1.478,0,0,0-.718.343Z"/><path class="cls-18" d="M21.9,20.761l-.021-.032a1.244,1.244,0,0,1,.382-.179l.054.022a1.334,1.334,0,0,0-.415.189Z"/><path class="cls-18" d="M22.161,19.162c-.1-.456-.154-.649-.154-.651.051.009.1.188.191.644l-.037.007Z"/><path class="cls-18" d="M22.225,19.172c-.037-.01.018-.21.022-.253a.989.989,0,0,0-.124-.446l.032-.021a1.009,1.009,0,0,1,.13.471c0,.043-.06.249-.06.249Z"/><path class="cls-18" d="M22.317,18.667c-.034,0-.06-.071-.043-.3l.038,0a.723.723,0,0,0,.012.293Z"/><path class="cls-18" d="M22.3,18.93l-.033-.018a2.192,2.192,0,0,0,.134-.33c.034.021-.038.24-.1.348Z"/><path class="cls-18" d="M22.156,19.445a1.586,1.586,0,0,1,.1-.25c.066-.15.151-.346.207-.488l.036.013c-.056.143-.142.34-.207.49-.05.114-.088.2-.092.216l-.042.019Z"/><path class="cls-18" d="M22.165,19.712l-.034-.017a2.566,2.566,0,0,1,.4-.65,6.06,6.06,0,0,1-.362.667Z"/><path class="cls-18" d="M22.177,19.8l-.031-.022a4.381,4.381,0,0,0,.384-.567c.034.019-.015.13-.353.589Z"/><path class="cls-18" d="M22.118,20.009l-.03-.023c.384-.479.533-.532.54-.534.011.036-.137.092-.51.557Z"/><path class="cls-18" d="M21.888,20.258a1.408,1.408,0,0,0-.214-.643c.042-.015.207.216.252.64l-.038,0Z"/><path class="cls-18" d="M21.958,20.035a4.475,4.475,0,0,0-.253-.641l.032-.021a1.624,1.624,0,0,1,.221.662Z"/><path class="cls-18" d="M22,19.871a1.952,1.952,0,0,0-.268-.742l.033-.019a1.115,1.115,0,0,1,.235.761Z"/><path class="cls-18" d="M22.048,20.011a1.823,1.823,0,0,0-.19-.865l.034-.018a1.217,1.217,0,0,1,.156.883Z"/><path class="cls-18" d="M22.117,19.661c-.039,0-.031-.177-.178-.539l.035-.014a1.478,1.478,0,0,1,.143.553Z"/><path class="cls-18" d="M22.148,19.326a.958.958,0,0,0-.382-.621l.027-.027c.45.41.359.639.355.648Z"/><path class="cls-18" d="M21.757,21.05c-.035-.014.022-.167.026-.224,0-.02.007-.056.013-.095-.025.06-.06.141-.108.251l-.035-.015c.151-.344.172-.4.172-.4l.008.006a.029.029,0,0,1,.008.027,1.607,1.607,0,0,1-.02.233,1.271,1.271,0,0,1-.064.222Z"/><path class="cls-18" d="M21.994,21.42a1.531,1.531,0,0,0-.633-.107l-.008-.037a1.064,1.064,0,0,1,.65.141l-.009,0Z"/><path class="cls-18" d="M21.774,21.459c-.073,0-.229-.028-.459-.047l0-.037a3.638,3.638,0,0,1,.5.07c0,.01-.018.014-.046.014Z"/><path class="cls-18" d="M22.105,21.345c-.084,0-.508-.154-.658-.161l0-.038a4.026,4.026,0,0,1,.67.2s-.007,0-.014,0Z"/><path class="cls-19" d="M20.673,21.221c-.031-.023-.019-.041,0-.1a.461.461,0,0,0,.019-.164l.038,0a.413.413,0,0,1-.061.263Z"/><path class="cls-17" d="M20.488,22.37a7.488,7.488,0,0,1-.97-.8c-.1-.024-1.123.146-1.113.119a.956.956,0,0,1,.076-.247c.048-.073.173-.146.154-.146l-.278.01a.867.867,0,0,1-.164.155c-.047.018-.259.036-.307.064a1.007,1.007,0,0,0-.134.109s-.019-.1-.019-.128a.232.232,0,0,1,.038-.082,1.633,1.633,0,0,1-.211,0c.028-.009.038-.073.076-.118a.329.329,0,0,1,.154-.119l.134-.037L17.81,21.1a.749.749,0,0,1,.143-.054,1.27,1.27,0,0,0,.144-.028s-.086-.091-.086-.128-.087.137-.154.156a1.379,1.379,0,0,1-.269.036c-.066,0-.163.1-.163.1a.418.418,0,0,1-.019-.137.1.1,0,0,1,.048-.055L17.348,21a1.592,1.592,0,0,1,.039-.155c.009-.019.058-.1.058-.1a.449.449,0,0,1-.1-.091,1.232,1.232,0,0,1-.048-.128h.2a.731.731,0,0,1,.173.055.339.339,0,0,1-.048-.1c0-.027-.039-.091-.02-.091a1.075,1.075,0,0,1,.154.082s-.038-.173-.1-.21-.317-.082-.365-.146a2.1,2.1,0,0,1-.134-.347.161.161,0,0,0-.077-.082h.154s-.019-.091-.029-.146a.352.352,0,0,1,.02-.137s.066.109.1.109.1.064.1.064l.01-.064.115.147a.343.343,0,0,1,.028-.119.28.28,0,0,1,.067-.037.423.423,0,0,0,.02.082,1.132,1.132,0,0,1,.067.183c0,.028-.019.329-.019.356a1.885,1.885,0,0,0,.115.237v-.219c0-.054-.067-.173-.057-.219s.019-.119.019-.119a.532.532,0,0,0,.077.11.611.611,0,0,1,.076.11l.067-.119s-.163-.128-.182-.183a1.456,1.456,0,0,1-.038-.173.875.875,0,0,1-.154-.091,3.281,3.281,0,0,1-.192-.292h.058a.619.619,0,0,1-.058-.174c0-.055.01-.164.01-.164a.4.4,0,0,1,.067.063c.01.019.086.028.086.028a1.369,1.369,0,0,1-.115-.347.756.756,0,0,1,.153-.293l.078.119.153-.219a.529.529,0,0,1,.067.128v.119s.1.009.116.009a.21.21,0,0,1,.067.036.425.425,0,0,0-.106.055c-.029.027-.058.146-.087.155a.993.993,0,0,0-.182.119.7.7,0,0,0-.057.192.878.878,0,0,1,.106.174c.009.045.019.164.019.164s.048.055.085.045a.1.1,0,0,0,.068-.1c-.01-.037-.115-.128-.125-.174s.01-.347.01-.347l.153.082a.614.614,0,0,0,.106-.127,1.477,1.477,0,0,0,.048-.174l.067.192s.048-.082.1-.1.144-.074.144-.074a1.15,1.15,0,0,0-.038.128,2.67,2.67,0,0,1-.009.375c-.02.036-.27.265-.288.283s-.02.155-.02.155l.182-.155s.02.082.029.128a.479.479,0,0,1,.01.091.7.7,0,0,0,.124-.046c.029-.018.087.019.087.019a.408.408,0,0,1-.048.091c-.02.018-.086.192-.115.219s-.2.091-.221.119-.163.182-.2.237a.36.36,0,0,0-.038.164.652.652,0,0,1,.106-.2A2.06,2.06,0,0,0,18.2,20l.029.137a.857.857,0,0,1,.145-.082l.24-.055s-.135.11-.135.137-.019.174-.067.21-.278.174-.3.183-.039.082-.039.11a.134.134,0,0,0,.029.063.4.4,0,0,1,.067-.1.168.168,0,0,0,.028-.119.491.491,0,0,1,.1.119,1.3,1.3,0,0,1,.009.274.4.4,0,0,0,0,.183c.02.027.106.118.126.118s-.116-.237-.1-.347a1.045,1.045,0,0,1,.115-.237.572.572,0,0,0,.025-.11.735.735,0,0,1,.1.139.259.259,0,0,1,.093-.085,1.651,1.651,0,0,1,.1.238.752.752,0,0,1,.111-.138.462.462,0,0,1,.076.251.349.349,0,0,1-.128.189.65.65,0,0,1-.105.055,1.042,1.042,0,0,0,.172.045.292.292,0,0,1,.1.028l-.212.064a1.257,1.257,0,0,0,.26.009.448.448,0,0,0-.029-.174.443.443,0,0,1-.038-.118.634.634,0,0,0,.124.027c.039,0,.106.009.106-.009s-.077-.164-.058-.164.269.219.269.182a1.382,1.382,0,0,1,.108-.229s.091.167.1.2a.733.733,0,0,1,.012.162.354.354,0,0,1-.067.155,1.785,1.785,0,0,0,.221.274,3.406,3.406,0,0,0,.566.53c.127.075.135.073.24.128Z"/><path class="cls-18" d="M20.491,22.385l-.009-.005a3.179,3.179,0,0,1-.739-.593,1.179,1.179,0,0,0-.228-.2c-.126,0-.417.036-.668.07-.2.028-.378.051-.428.051l-.014-.014,0-.041a.692.692,0,0,1,.069-.212.569.569,0,0,1,.126-.12c.019-.008-.24,0-.24,0a.652.652,0,0,1-.159.155.981.981,0,0,1-.126.024.788.788,0,0,0-.18.039,1.009,1.009,0,0,0-.132.108c-.02-.007-.039-.109-.039-.137a.181.181,0,0,1,.034-.079.639.639,0,0,1-.153.013l-.032-.006a1.624,1.624,0,0,1,.2-.022c0,.039-.025.077-.025.094s.013.094.017.118a.385.385,0,0,1,.118-.11.848.848,0,0,1,.188-.041.939.939,0,0,0,.121-.023.806.806,0,0,0,.159-.152c.008,0,.268-.014.287-.014l0,.008-.026.043a.577.577,0,0,0-.12.113.684.684,0,0,0-.067.205,1.2,1.2,0,0,0,.418-.024c.253-.034.539-.073.643-.073.075.013.154.091.274.209a3.187,3.187,0,0,0,.724.585l.1-.129-.074-.023c-.044-.022-.076-.037-.162-.088a2.159,2.159,0,0,1-.458-.416,1.48,1.48,0,0,0-.11-.115,1.75,1.75,0,0,1-.223-.276c0-.015.066-.1.066-.162a.657.657,0,0,0-.013-.159c-.009-.027-.1-.192-.1-.192-.02.073-.085.2-.085.223-.036.017-.083-.019-.187-.1a1.151,1.151,0,0,0-.1-.071.3.3,0,0,1,.046.084.266.266,0,0,1,.026.069v.012l-.051.011-.067,0A.527.527,0,0,1,18.978,21c.011.015.021.06.041.1a.431.431,0,0,1,.031.179v.012L19,21.292c-.074,0-.221-.016-.221-.016l0,0s.009-.007.022-.009l.162-.067a.713.713,0,0,0-.072-.013,1.152,1.152,0,0,1-.177-.046c0-.022.048-.04.1-.076a.337.337,0,0,0,.122-.182.453.453,0,0,0-.074-.242c-.017.036-.06.089-.091.138-.041-.062-.1-.216-.116-.237a.857.857,0,0,0-.074.084c-.028-.033-.083-.095-.108-.122a.243.243,0,0,1-.016.091.338.338,0,0,1-.039.07.442.442,0,0,0-.076.165.657.657,0,0,0,.072.269c.026.062.03.073.024.082-.043.014-.137-.1-.147-.118a.41.41,0,0,1,0-.191,1.255,1.255,0,0,0-.009-.269.378.378,0,0,0-.079-.1.111.111,0,0,1-.025.1.35.35,0,0,0-.065.1c-.024,0-.052-.038-.052-.068s.018-.108.045-.121.248-.145.295-.181.063-.172.063-.2.1-.112.139-.146l-.229.076a.744.744,0,0,0-.141.08L18.193,20a.683.683,0,0,1-.146.165.593.593,0,0,0-.1.2c-.024-.008-.023-.117.016-.174.023-.033.083-.1.132-.156.033-.038.062-.071.07-.082a.421.421,0,0,1,.122-.068.65.65,0,0,0,.1-.052.766.766,0,0,0,.065-.122.463.463,0,0,1,.051-.1.4.4,0,0,0,.045-.088c0,.009-.034-.007-.056-.007a1.289,1.289,0,0,1-.141.051c-.015-.012-.015-.057-.025-.1s-.029-.128-.029-.128l-.162.162a.244.244,0,0,1,0-.173,3.4,3.4,0,0,0,.286-.279,1.527,1.527,0,0,0,.008-.35.57.57,0,0,1,.033-.134.468.468,0,0,1-.123.071.242.242,0,0,0-.089.095l-.081-.176a.5.5,0,0,1-.034.156.6.6,0,0,1-.109.132l-.167-.08c.012.074,0,.3.008.334a.331.331,0,0,0,.067.093.312.312,0,0,1,.058.08.086.086,0,0,1-.014.065.115.115,0,0,1-.063.05.139.139,0,0,1-.1-.05c0-.006-.013-.124-.022-.169a.788.788,0,0,0-.1-.169.593.593,0,0,1,.058-.207,1,1,0,0,1,.187-.122c.011,0,.029-.047.04-.073a.255.255,0,0,1,.043-.079.4.4,0,0,1,.109-.058c-.023,0-.054-.013-.062-.013s-.117-.009-.117-.009l-.011-.131a.493.493,0,0,0-.065-.122l-.133.22-.1-.118c0,.021-.133.194-.133.285a1.385,1.385,0,0,0,.114.342c-.036.014-.1,0-.108-.017a.291.291,0,0,0-.056-.054.886.886,0,0,1,0,.149.618.618,0,0,0,.057.169l-.069.016c.063.07.171.244.2.272a.8.8,0,0,0,.15.089c.007.009.025.126.044.181a.83.83,0,0,0,.178.177l-.063.134c-.048-.047-.083-.1-.093-.105a.394.394,0,0,1-.069-.092.394.394,0,0,1-.01.093.309.309,0,0,0,.028.109.383.383,0,0,1,.03.107v.219a.707.707,0,0,1-.139-.237c0-.014.005-.1.01-.179s.009-.163.009-.177a1.028,1.028,0,0,0-.066-.177.354.354,0,0,1-.02-.085c0,.014-.034.029-.047.042a.3.3,0,0,0-.025.112l-.137-.141.012.059c-.042-.017-.084-.054-.108-.054s-.086-.07-.107-.1a.666.666,0,0,0-.006.116l.028.146-.136.011a.122.122,0,0,1,.059.069l.019.056a1.476,1.476,0,0,0,.114.288.6.6,0,0,0,.227.1.664.664,0,0,1,.135.047c.061.039.1.21.1.218-.081-.026-.153-.067-.166-.068a.2.2,0,0,1,.032.079.311.311,0,0,0,.046.1c-.052,0-.146-.037-.183-.037h-.2a.742.742,0,0,1,.052.111.423.423,0,0,0,.093.087.562.562,0,0,1-.054.115A1.356,1.356,0,0,0,17.36,21l.093-.023c.006.022-.027.039-.035.07a.379.379,0,0,0,.017.125.227.227,0,0,1,.153-.1,1.35,1.35,0,0,0,.266-.036c.035-.009.082-.075.111-.114s.033-.047.044-.047a.52.52,0,0,0,.1.137.353.353,0,0,1-.153.048.649.649,0,0,0-.138.053l.115.033-.137.059a.318.318,0,0,0-.147.115.259.259,0,0,0-.037.064c-.012.026-.023.048-.041.056l-.023,0a.163.163,0,0,0,.042-.061.307.307,0,0,1,.04-.069.347.347,0,0,1,.159-.123l.135-.036-.117-.033a.306.306,0,0,1,.149-.077,1.128,1.128,0,0,0,.141-.028c-.022,0-.08-.06-.092-.1a.135.135,0,0,1-.018.029c-.033.047-.08.112-.123.124a1.347,1.347,0,0,1-.273.037c-.05,0-.128.07-.154.1a.2.2,0,0,1-.039-.148.111.111,0,0,1,.054-.063l-.1.032a.5.5,0,0,1,.027-.173l.057-.1a.24.24,0,0,1-.095-.081,1.142,1.142,0,0,1-.049-.131l.213-.015a.59.59,0,0,1,.157.048.148.148,0,0,1-.044-.082l-.022-.1c.039-.009.133.052.174.077-.028-.034-.064-.163-.108-.19a.692.692,0,0,0-.129-.045.591.591,0,0,1-.239-.1,1.412,1.412,0,0,1-.118-.295l-.018-.055a.151.151,0,0,0-.071-.075h.006c0-.006.012-.007.021,0l.132-.019-.041-.132a.374.374,0,0,1,.02-.143c.048.04.095.1.117.1.042,0,.1.062.105.068l-.011-.057.132.136a.144.144,0,0,1,.015-.116.293.293,0,0,1,.071-.039.667.667,0,0,1,.035.088,1.069,1.069,0,0,1,.068.188c0,.014-.005.1-.01.179s-.009.164-.009.177a1.609,1.609,0,0,0,.113.232l-.022-.214a.385.385,0,0,0-.029-.1.284.284,0,0,1-.028-.121c.009-.045.019-.118.019-.118.049.042.084.095.094.1a.505.505,0,0,1,.082.114l.045-.119s-.162-.116-.183-.173a1.458,1.458,0,0,1-.038-.175.462.462,0,0,1-.15-.085,2.924,2.924,0,0,1-.194-.295l.065-.016a.3.3,0,0,1-.067-.163c0-.056.01-.165.01-.165h0a.137.137,0,0,1,.089.06.241.241,0,0,0,.075.02.824.824,0,0,1-.126-.335.74.74,0,0,1,.156-.3l.1.12.134-.22a.276.276,0,0,1,.088.135v.116a.451.451,0,0,1,.1,0,.194.194,0,0,1,.074.039c0,.021-.078.047-.105.072A.271.271,0,0,0,18,18.6c-.021.05-.035.081-.055.087a1.063,1.063,0,0,0-.178.117.642.642,0,0,0-.053.185h0a.656.656,0,0,1,.105.169c.01.046.02.166.02.166s.039.036.064.036a.084.084,0,0,0,.054-.04.065.065,0,0,0,.012-.047.33.33,0,0,0-.053-.071.3.3,0,0,1-.072-.1,3.406,3.406,0,0,1,.009-.349l.17.071c0-.007.073-.08.09-.121a1.644,1.644,0,0,0,.048-.171l0,.007,0,.01.077.164a.157.157,0,0,1,.085-.1,1.466,1.466,0,0,0,.142-.073.82.82,0,0,1-.02.138,1.624,1.624,0,0,1-.011.38,3,3,0,0,1-.27.268.262.262,0,0,0-.036.165l.162-.164c.02.006.04.089.049.134a.5.5,0,0,1,.01.094c.011-.018.083-.041.106-.055a.148.148,0,0,1,.1.018.231.231,0,0,1-.046.109.573.573,0,0,0-.046.09.568.568,0,0,1-.07.129.5.5,0,0,1-.107.057.637.637,0,0,0-.112.06c-.008.012-.038.046-.072.085s-.107.121-.13.153a.252.252,0,0,0-.031.1.356.356,0,0,1,.081-.15,1.766,1.766,0,0,0,.161-.163l.049.139a.315.315,0,0,1,.131-.087l.24-.055c-.05.07-.117.133-.12.149s-.019.179-.072.219c-.03.023-.136.088-.213.134a.256.256,0,0,1,.1.109,1.383,1.383,0,0,1,.012.242l0-.012a.476.476,0,0,1,.079-.174.357.357,0,0,0,.037-.066.559.559,0,0,0,.024-.107c.026-.007.107.09.124.136a.128.128,0,0,1,.076-.091.906.906,0,0,1,.114.245.315.315,0,0,1,.091-.144.378.378,0,0,1,.1.263.352.352,0,0,1-.132.2.666.666,0,0,1-.108.056c.038-.012.138.023.168.023a.318.318,0,0,1,.1.028l-.011,0-.008,0-.166.067c.045,0,.135,0,.188,0a.2.2,0,0,0,0-.162.431.431,0,0,1-.039-.122c.017-.014.1.013.136.013l.067,0c.026,0,.013-.035,0-.059-.034-.076-.042-.1-.034-.11s.038.005.121.069a.955.955,0,0,0,.156.111.91.91,0,0,1,.1-.226.74.74,0,0,1,.123.2.75.75,0,0,1,.013.166.36.36,0,0,1-.069.162h0a3.223,3.223,0,0,0,.219.259,1.363,1.363,0,0,1,.112.117,2.178,2.178,0,0,0,.452.411c.086.05.117.066.161.087l.079.041-.108.162Zm-2.168-1.541c0,.013,0,.023,0,.031a.4.4,0,0,0,0,.173.677.677,0,0,0,.106.108.209.209,0,0,1-.025-.05.759.759,0,0,1-.076-.262Zm-.132-.349c-.036.022-.063.038-.069.04a.193.193,0,0,0-.032.1.112.112,0,0,0,.02.048.183.183,0,0,1,.056-.093.137.137,0,0,0,.025-.095Z"/><path class="cls-18" d="M17.434,20.935l-.018-.016a.2.2,0,0,1,.141-.061.214.214,0,0,0,.065-.015c.057-.027.162-.082.162-.082.011.021-.094.076-.151.1a.223.223,0,0,1-.073.017.177.177,0,0,0-.126.054Z"/><path class="cls-18" d="M17.524,20.993c0-.023.118-.05.164-.076a.471.471,0,0,0,.076-.085.8.8,0,0,1,.183-.189l.013.02a.809.809,0,0,0-.177.183.435.435,0,0,1-.083.091.863.863,0,0,1-.176.056Z"/><path class="cls-18" d="M17.55,21.039v-.024a.489.489,0,0,0,.2-.042.942.942,0,0,1,.107-.083c.013.019-.053.064-.091.1a.491.491,0,0,1-.21.049Z"/><path class="cls-18" d="M17.724,21.367l0-.023a2.38,2.38,0,0,0,.37-.071c.019.037-.316.089-.368.094Z"/><path class="cls-18" d="M17.89,21.468h-.014v-.023a.561.561,0,0,0,.365-.179.445.445,0,0,1-.352.2Z"/><path class="cls-18" d="M18.327,21.265a.866.866,0,0,1-.39-.072l.012-.02a1.665,1.665,0,0,0,.761.044,1.173,1.173,0,0,1-.383.048Z"/><path class="cls-18" d="M18.529,21.13c-.007-.022.01-.058.026-.368h.024c-.019.367-.038.367-.05.367Z"/><path class="cls-1" d="M18.452,20.954a1.172,1.172,0,0,1,.019-.137Z"/><path class="cls-1" d="M18.5,20.635c0,.018-.01.127-.01.127Z"/><path class="cls-18" d="M18.674,21.06l-.021-.011a.405.405,0,0,0,.047-.168c.024,0,.023.086-.026.179Z"/><path class="cls-1" d="M18.654,20.836l-.009.063Z"/><path class="cls-1" d="M18.817,20.9c-.039.092-.058.092-.058.092Z"/><path class="cls-18" d="M19.3,21.239c-.031,0-.2-.159-.308-.21l.011-.022a1.679,1.679,0,0,1,.3.231Z"/><path class="cls-18" d="M19.409,21.177c-.026,0-.107-.108-.2-.158l.012-.02a.689.689,0,0,1,.186.177Z"/><path class="cls-18" d="M19.452,21.335c-.017-.018.068-.162-.049-.281l.018-.016a.253.253,0,0,1,.031.3Z"/><path class="cls-1" d="M19.547,20.936l-.029.219Z"/><path class="cls-18" d="M17.472,20.108c-.024,0-.08-.047-.113-.087a.154.154,0,0,1-.032-.083.111.111,0,0,0-.017-.054.29.29,0,0,0-.185-.151l.006-.023a.287.287,0,0,1,.184.138.169.169,0,0,1,.036.086.14.14,0,0,0,.026.072.875.875,0,0,0,.1.1l-.009,0Z"/><path class="cls-18" d="M17.682,20.256c-.022,0-.058-.074-.084-.108h0l-.071-.033c-.027-.013-.05-.06-.077-.121a.344.344,0,0,0-.023-.047l0-.045c0-.065,0-.174-.178-.187l0-.024c.206.016.2.148.2.212a.3.3,0,0,0,.026.082c.018.039.044.1.066.109.049.012.062.016.081.04a.927.927,0,0,1,.069.121Z"/><path class="cls-18" d="M17.36,19.716c-.023-.009-.007-.057-.059-.115a.381.381,0,0,0-.073-.07l.011-.021a.357.357,0,0,1,.08.076.14.14,0,0,1,.041.13Z"/><path class="cls-18" d="M17.54,19.889a.258.258,0,0,1-.059-.272l.023.008a.357.357,0,0,0,.037.264Z"/><path class="cls-18" d="M17.609,19.919c-.021-.013.058-.168-.047-.243l.015-.019c.121.087.033.26.032.262Z"/><path class="cls-1" d="M17.588,20l-.009.137Z"/><path class="cls-1" d="M17.9,19.594a.18.18,0,0,1,.087.136Z"/><path class="cls-18" d="M18.042,20.354c-.024,0-.024-.016.026-.083a1.472,1.472,0,0,0,.114-.243l.023.008a1.514,1.514,0,0,1-.117.25.3.3,0,0,0-.046.068Z"/><path class="cls-18" d="M18.023,20.547,18,20.54c.068-.223.186-.262.191-.263a.668.668,0,0,0-.167.27Z"/><path class="cls-18" d="M18.13,20.381l-.009-.022a.854.854,0,0,0,.35-.306.617.617,0,0,1-.341.328Z"/><path class="cls-18" d="M17.451,20.791l-.012-.02a.389.389,0,0,1,.238-.077.187.187,0,0,0,.071-.007.282.282,0,0,0,.138-.087c.017.017-.032.082-.131.11a.211.211,0,0,1-.079.007c-.044,0-.088,0-.225.074Z"/><path class="cls-18" d="M17.664,20.663a1.012,1.012,0,0,0-.332-.063l0-.023a.665.665,0,0,1,.344.084l-.007,0Z"/><path class="cls-18" d="M17.849,20.6c-.025,0-.062-.123-.223-.14l0-.023a.247.247,0,0,1,.22.163Z"/><path class="cls-18" d="M18.2,21.153a.869.869,0,0,0-.353-.013v-.024c.321-.025.356.022.358.037Z"/><path class="cls-1" d="M18.107,20.854c-.01-.119-.01-.146-.01-.146Z"/><path class="cls-18" d="M18.03,20.111l-.02-.012a1.918,1.918,0,0,1,.3-.395c.015.018-.138.165-.28.407Z"/><path class="cls-18" d="M18.306,19.813l-.014-.019a1.74,1.74,0,0,0,.227-.271.778.778,0,0,1-.213.29Z"/><path class="cls-18" d="M18.066,19.8c-.006-.107-.015-.182-.021-.238a.308.308,0,0,1,.022-.226.679.679,0,0,1,.125-.141.307.307,0,0,0,.077-.086.684.684,0,0,0,.066-.251.331.331,0,0,1,.1-.209c.016.017-.075.105-.075.209a.6.6,0,0,1-.053.222.312.312,0,0,1-.1.132.625.625,0,0,0-.121.135c-.036.064-.033.1-.019.212.006.056.014.132.021.239l-.024,0Z"/><path class="cls-18" d="M18.071,19.6a.5.5,0,0,1-.063-.292.238.238,0,0,1,.062-.077.476.476,0,0,0,.169-.492l.024,0a.5.5,0,0,1-.175.514.228.228,0,0,0-.056.066.969.969,0,0,0,.039.286Z"/><path class="cls-18" d="M17.775,19.422a3.716,3.716,0,0,1-.318-.23l.014-.019a2.857,2.857,0,0,1,.308.248Z"/><path class="cls-18" d="M17.819,19.316a.747.747,0,0,1-.129-.04.637.637,0,0,1-.089-.041.242.242,0,0,0-.07-.031V19.18a.228.228,0,0,1,.081.034.6.6,0,0,0,.086.04,1.284,1.284,0,0,1,.136.055.017.017,0,0,1-.015.007Z"/><path class="cls-18" d="M17.725,19.222c-.023-.007-.016-.047-.051-.1a.378.378,0,0,0-.06-.056.356.356,0,0,1-.153-.2l.024,0a.34.34,0,0,0,.144.19.4.4,0,0,1,.065.061.153.153,0,0,1,.031.11Z"/><path class="cls-18" d="M17.989,19.174a2.059,2.059,0,0,1,.019-.34,2.035,2.035,0,0,1,.005.338l-.024,0Z"/><path class="cls-18" d="M18.1,19.124c-.021-.012.054-.165.054-.343h.023a.871.871,0,0,1-.077.343Z"/><path class="cls-18" d="M17.99,19.114a.579.579,0,0,1-.046-.145c0-.016-.006-.034-.012-.057a.222.222,0,0,0-.035-.086c.019-.017.039,0,.058.079.006.025.01.043.013.06a.538.538,0,0,0,.044.14l-.022.009Z"/><path class="cls-18" d="M17.706,18.918h-.024a.639.639,0,0,1,.067-.284.124.124,0,0,0,.02-.087.92.92,0,0,0-.038-.126c.022-.011.041.038.061.121a.142.142,0,0,1-.022.1.625.625,0,0,0-.064.275Z"/><path class="cls-18" d="M17.791,18.6c-.017-.017.06-.135.167-.181l.01.021a.491.491,0,0,0-.177.16Z"/><path class="cls-18" d="M17.753,18.8l-.022-.01a.706.706,0,0,1,.176-.26.183.183,0,0,1,.145-.03c-.007.023-.078.007-.13.049a.684.684,0,0,0-.169.251Z"/><path class="cls-1" d="M17.646,18.425a.393.393,0,0,0,.029.173Z"/><path class="cls-18" d="M17.781,18.522l-.02-.012a.83.83,0,0,0,.094-.3.441.441,0,0,1-.074.309Z"/><path class="cls-18" d="M18.186,19.805l-.024,0a1.491,1.491,0,0,1,.135-.424c.021.013-.092.24-.111.427Z"/><path class="cls-20" d="M17.7,18.9a.061.061,0,1,0-.062.068A.064.064,0,0,0,17.7,18.9Z"/><path class="cls-18" d="M17.635,18.978a.076.076,0,0,1-.072-.08.073.073,0,0,1,.146,0,.077.077,0,0,1-.074.08Z"/><path class="cls-20" d="M17.8,19a.061.061,0,1,0-.062.068A.064.064,0,0,0,17.8,19Z"/><path class="cls-18" d="M17.737,19.075a.076.076,0,0,1-.072-.08.073.073,0,0,1,.146,0,.077.077,0,0,1-.074.08Z"/><path class="cls-20" d="M18.029,19.479a.061.061,0,1,0-.06.068.065.065,0,0,0,.06-.068Z"/><path class="cls-18" d="M17.969,19.559a.077.077,0,0,1-.074-.08.073.073,0,0,1,.146,0,.076.076,0,0,1-.072.08Z"/><path class="cls-20" d="M18.152,19.55a.062.062,0,1,0-.123,0,.062.062,0,1,0,.123,0Z"/><path class="cls-18" d="M18.09,19.63a.077.077,0,0,1-.073-.08.074.074,0,0,1,.147,0,.077.077,0,0,1-.074.08Z"/><path class="cls-20" d="M17.7,20.26a.062.062,0,1,0-.061.068.065.065,0,0,0,.061-.068Z"/><path class="cls-18" d="M17.643,20.34a.077.077,0,0,1-.074-.08.074.074,0,0,1,.147,0,.077.077,0,0,1-.073.08Z"/><path class="cls-20" d="M18,20.409a.061.061,0,1,0-.061.068A.065.065,0,0,0,18,20.409Z"/><path class="cls-18" d="M17.941,20.489a.077.077,0,0,1-.073-.08.073.073,0,0,1,.146,0,.077.077,0,0,1-.073.08Z"/><path class="cls-20" d="M18.179,20.99a.062.062,0,1,0-.061.068.066.066,0,0,0,.061-.068Z"/><path class="cls-18" d="M18.118,21.07a.077.077,0,0,1-.074-.08.074.074,0,0,1,.147,0,.077.077,0,0,1-.073.08Z"/><path class="cls-20" d="M18.5,21.151a.061.061,0,1,0-.061.068.064.064,0,0,0,.061-.068Z"/><path class="cls-18" d="M18.437,21.231a.076.076,0,0,1-.073-.08c0-.087.146-.088.146,0a.076.076,0,0,1-.073.08Z"/><path class="cls-20" d="M18.661,21.145a.062.062,0,1,0-.123,0,.062.062,0,1,0,.123,0Z"/><path class="cls-18" d="M18.6,21.225a.077.077,0,0,1-.074-.08.074.074,0,0,1,.147,0,.077.077,0,0,1-.073.08Z"/><path class="cls-20" d="M19.163,21.255a.061.061,0,1,0-.061.068.065.065,0,0,0,.061-.068Z"/><path class="cls-18" d="M19.1,21.335a.077.077,0,0,1-.073-.08.073.073,0,0,1,.146,0,.077.077,0,0,1-.073.08Z"/><path class="cls-1" d="M22.72,22.194c-.077-.122-.129-.134-.129-.134Z"/><path class="cls-1" d="M22.694,22.237c-.077-.122-.128-.135-.128-.135Z"/><path class="cls-1" d="M22.656,22.274c-.077-.123-.129-.135-.129-.135Z"/><path class="cls-1" d="M22.63,22.317c-.077-.123-.128-.135-.128-.135Z"/><path class="cls-1" d="M22.591,22.347c-.076-.122-.128-.134-.128-.134Z"/><path class="cls-1" d="M22.566,22.39c-.078-.122-.128-.135-.128-.135Z"/><path class="cls-1" d="M22.527,22.421c-.077-.123-.128-.135-.128-.135Z"/><path class="cls-1" d="M22.5,22.463c-.078-.122-.129-.134-.129-.134Z"/><path class="cls-1" d="M22.469,22.494c-.076-.122-.128-.135-.128-.135Z"/><g class="cls-21"><path class="cls-6" d="M22.636,22.09a.69.69,0,0,0-.52-.128.312.312,0,0,0-.285-.082c-.1.039-.152.238-.152.266,0,.054.1.1.186.1s.277.006.341.012.154.111.154.111a1.715,1.715,0,0,1,.276-.282Z"/></g><path d="M22.361,22.4l-.016-.018c-.023-.028-.094-.1-.141-.1s-.1,0-.167-.006-.132,0-.173-.006c-.086-.006-.2-.052-.2-.122,0-.034.059-.241.164-.283a.342.342,0,0,1,.3.085l.141-.006a.52.52,0,0,1,.38.135,3.707,3.707,0,0,0-.275.306l-.014.019Zm-.466-.515a.17.17,0,0,0-.057.01c-.085.035-.139.224-.139.249s.083.078.168.085l.171,0c.069,0,.136,0,.17.007a.308.308,0,0,1,.151.1,1.514,1.514,0,0,1,.268-.269.629.629,0,0,0-.357-.094l-.116,0-.051-.007a.344.344,0,0,0-.208-.089Z"/><g class="cls-22"><path class="cls-6" d="M22.1,22.078c0-.091-.062-.141-.121-.128a4.51,4.51,0,0,1-.521.159c-.109.006-.3-.1-.3-.171s.27-.159.27-.159l.187.055a1.234,1.234,0,0,1,.379-.111c.141,0,.225.086.218.153a.5.5,0,0,1-.116.2Z"/></g><path d="M21.445,22.128a.425.425,0,0,1-.2-.064c-.033-.02-.111-.073-.111-.126,0-.075.217-.155.283-.177l.2.055a1.02,1.02,0,0,1,.373-.112.27.27,0,0,1,.2.077.124.124,0,0,1,.038.1c-.005.057-.1.22-.134.22-.02-.093-.062-.131-.1-.131a1.267,1.267,0,0,0-.172.054,1.8,1.8,0,0,1-.366.106Zm-.022-.331c-.112.041-.245.108-.245.141s.029.056.093.093a.364.364,0,0,0,.174.059v.019l.007-.019a1.839,1.839,0,0,0,.356-.1c.071-.026.132-.048.163-.055a.133.133,0,0,1,.144.132c.008-.043.074-.141.078-.188a.094.094,0,0,0-.028-.069.231.231,0,0,0-.171-.064,1.224,1.224,0,0,0-.37.108l-.2-.053Z"/><path d="M21.982,22.153h-.021a1.046,1.046,0,0,1-.166-.027c-.054-.012-.075,0-.1.027-.022-.033.016-.074.049-.074a.377.377,0,0,1,.06.01,1,1,0,0,0,.16.027c.117,0,.126-.055.128-.076l.038,0c-.005.041-.031.109-.147.109Z"/><path d="M17.312,22.2l-.032-.02c.079-.125.134-.141.139-.142.01.036-.036.051-.107.162Z"/><path d="M17.339,22.247l-.033-.019c.078-.126.134-.142.14-.144.009.036-.038.052-.107.163Z"/><path d="M17.376,22.284l-.032-.02c.079-.125.135-.141.141-.143.009.036-.038.051-.109.163Z"/><path d="M17.4,22.326l-.033-.019c.079-.126.134-.142.14-.143.009.036-.038.051-.107.162Z"/><path d="M17.44,22.357l-.032-.02c.079-.125.135-.141.141-.143.009.037-.038.052-.109.163Z"/><path d="M17.467,22.4l-.033-.02c.079-.125.134-.141.14-.143.009.036-.037.052-.107.163Z"/><path d="M17.506,22.43l-.033-.019c.078-.126.134-.142.14-.143.009.036-.038.051-.107.162Z"/><path d="M17.531,22.473l-.033-.019c.08-.126.134-.142.14-.143.009.036-.037.051-.107.162Z"/><path d="M17.563,22.5l-.033-.019c.079-.125.135-.141.141-.143.009.036-.038.051-.108.162Z"/><g class="cls-23"><path class="cls-6" d="M17.38,22.09a.69.69,0,0,1,.52-.128.313.313,0,0,1,.285-.082c.1.039.152.238.152.266,0,.054-.1.1-.186.1s-.276.006-.34.012-.155.111-.155.111a1.715,1.715,0,0,0-.276-.282Z"/></g><path d="M17.656,22.4l-.015-.019a1.707,1.707,0,0,0-.271-.276.444.444,0,0,1,.376-.165l.116,0a.437.437,0,0,1,.331-.082c.1.042.163.249.163.283,0,.07-.118.116-.2.122-.041,0-.108,0-.173.006s-.134,0-.167.006-.118.076-.141.1l-.015.018Zm.09-.422a.482.482,0,0,0-.353.124c.075.017.218.183.264.239a.306.306,0,0,1,.152-.1c.033,0,.1,0,.169-.007l.172,0c.084-.007.168-.048.168-.085s-.055-.214-.14-.249a.318.318,0,0,0-.265.079l-.006.005-.045,0-.116,0Z"/><g class="cls-24"><path class="cls-6" d="M17.92,22.078c0-.091.062-.141.122-.128a4.43,4.43,0,0,0,.52.159c.109.006.3-.1.3-.171s-.27-.159-.27-.159l-.187.055a1.224,1.224,0,0,0-.379-.111c-.141,0-.225.086-.219.153a.524.524,0,0,0,.117.2Z"/></g><path d="M18.571,22.128h-.01a1.779,1.779,0,0,1-.365-.106c-.07-.025-.129-.046-.158-.053a.1.1,0,0,0-.1.11c-.049.021-.149-.145-.155-.2a.129.129,0,0,1,.039-.1.272.272,0,0,1,.2-.076,1.216,1.216,0,0,1,.387.113l.173-.057c.079.023.295.1.295.178s-.193.19-.306.19Zm-.548-.2a1.173,1.173,0,0,1,.186.057,1.826,1.826,0,0,0,.354.1l.008.019V22.09c.1,0,.268-.1.268-.152,0-.033-.133-.1-.257-.142l-.175.056a1.441,1.441,0,0,0-.385-.11.23.23,0,0,0-.17.063.093.093,0,0,0-.029.07.526.526,0,0,0,.107.188.1.1,0,0,1,.093-.134Z"/><path d="M18.034,22.153c-.117,0-.142-.068-.147-.11l.038,0c.006.055.05.08.128.075a1,1,0,0,0,.16-.027.377.377,0,0,1,.06-.01c.031,0,.068.038.078.049a.148.148,0,0,1-.078-.011.343.343,0,0,0-.051.009,1.086,1.086,0,0,1-.166.027Z"/><g class="cls-25"><path class="cls-6" d="M20.033,21.32c-1.258-.028-1.773.208-1.779.379a.312.312,0,0,0,.237.306c.084,0,.294-.105.287-.148-.034-.019-.038-.042-.017-.054a5.758,5.758,0,0,1,1.279-.1,4.527,4.527,0,0,1,1.253.1c.008.031-.059.05-.1.094.178-.018.223.09.306.1a.3.3,0,0,0,.251-.281c.006-.178-.528-.366-1.717-.392Z"/></g><path d="M18.491,22.024a.247.247,0,0,1-.155-.083.337.337,0,0,1-.1-.243c.007-.192.51-.4,1.6-.4l.2,0a3.24,3.24,0,0,1,1.69.311.14.14,0,0,1,.045.1.321.321,0,0,1-.264.3h0a.208.208,0,0,1-.1-.041.289.289,0,0,0-.172-.058h-.044l-.008-.029a.3.3,0,0,1,.06-.046c.015-.01.038-.025.036-.03a5.791,5.791,0,0,0-1.234-.09,5.858,5.858,0,0,0-1.27.1l.02.011-.008.061a.567.567,0,0,1-.291.132Zm1.343-.687c-1.127,0-1.556.223-1.561.363a.3.3,0,0,0,.091.215.217.217,0,0,0,.127.071.49.49,0,0,0,.268-.127c-.017,0-.03-.019-.03-.038a3.685,3.685,0,0,1,1.311-.141,3.853,3.853,0,0,1,1.272.12c.008.03-.023.05-.052.069a.255.255,0,0,0-.053.04.232.232,0,0,1,.216.03.18.18,0,0,0,.077.035h0a.284.284,0,0,0,.231-.263.106.106,0,0,0-.035-.073c-.061-.063-.361-.271-1.663-.3l-.2,0Z"/><polygon class="cls-14" points="18.669 21.733 18.601 21.541 18.717 21.503 18.725 21.526 18.63 21.556 18.651 21.615 18.741 21.586 18.749 21.609 18.659 21.638 18.683 21.703 18.781 21.671 18.789 21.694 18.669 21.733"/><path class="cls-14" d="M19.071,21.448l.024,0,.012.121a.161.161,0,0,1,0,.051.057.057,0,0,1-.02.032.066.066,0,0,1-.042.015A.073.073,0,0,1,19,21.658a.059.059,0,0,1-.026-.028.147.147,0,0,1-.012-.052l-.011-.121.024,0,.011.122a.172.172,0,0,0,.008.039.046.046,0,0,0,.017.019.05.05,0,0,0,.027,0,.042.042,0,0,0,.037-.017c.008-.009.009-.027.008-.054Z"/><polygon class="cls-14" points="19.325 21.627 19.325 21.426 19.348 21.426 19.348 21.603 19.433 21.603 19.433 21.627 19.325 21.627"/><rect class="cls-14" x="19.477" y="21.417" width="0.026" height="0.21"/><path class="cls-14" d="M19.666,21.556l.021.007a.1.1,0,0,1-.024.054.052.052,0,0,1-.04.018.057.057,0,0,1-.041-.014.1.1,0,0,1-.024-.041.207.207,0,0,1-.008-.057.174.174,0,0,1,.009-.059.1.1,0,0,1,.027-.038.062.062,0,0,1,.038-.013.05.05,0,0,1,.038.017.1.1,0,0,1,.022.046l-.02.006a.072.072,0,0,0-.016-.034.033.033,0,0,0-.025-.011.041.041,0,0,0-.03.012.057.057,0,0,0-.016.033.135.135,0,0,0-.006.041.175.175,0,0,0,.006.048.057.057,0,0,0,.018.03.039.039,0,0,0,.026.01.037.037,0,0,0,.029-.014.082.082,0,0,0,.016-.041Z"/><path class="cls-14" d="M20.366,21.623v-.2H20.4l.044.139.009.029.01-.031.044-.137h.034v.2h-.025v-.165l-.053.165h-.023l-.053-.168v.168Z"/><rect class="cls-14" x="20.581" y="21.43" width="0.025" height="0.201"/><polygon class="cls-14" points="20.652 21.636 20.652 21.434 20.673 21.434 20.754 21.593 20.754 21.434 20.774 21.434 20.774 21.636 20.752 21.636 20.671 21.478 20.671 21.636 20.652 21.636"/><rect class="cls-14" x="20.831" y="21.443" width="0.025" height="0.193"/><path class="cls-14" d="M21.013,21.6l.022.009a.106.106,0,0,1-.031.051.066.066,0,0,1-.047.014.068.068,0,0,1-.042-.018.087.087,0,0,1-.022-.044.159.159,0,0,1,0-.058.182.182,0,0,1,.016-.057.093.093,0,0,1,.033-.035.065.065,0,0,1,.042-.009.058.058,0,0,1,.041.02.083.083,0,0,1,.019.049l-.023,0a.066.066,0,0,0-.012-.036.039.039,0,0,0-.027-.013.047.047,0,0,0-.035.009.07.07,0,0,0-.021.029.189.189,0,0,0-.01.041.157.157,0,0,0,0,.049.057.057,0,0,0,.016.032.042.042,0,0,0,.027.012.04.04,0,0,0,.033-.01.077.077,0,0,0,.022-.039Z"/><polygon class="cls-14" points="21.22 21.715 21.266 21.504 21.288 21.509 21.342 21.693 21.377 21.528 21.399 21.533 21.353 21.744 21.331 21.739 21.278 21.554 21.241 21.719 21.22 21.715"/><path class="cls-14" d="M18.507,21.8l-.083-.195.069-.029a.09.09,0,0,1,.034-.009.048.048,0,0,1,.026.012.083.083,0,0,1,.019.026.062.062,0,0,1,0,.04.05.05,0,0,1-.025.032l.016,0a.2.2,0,0,1,.029.019l.05.041-.026.012-.038-.032-.026-.021-.017-.008h-.011l-.012,0-.025.01.037.087Zm-.027-.118.046-.019a.07.07,0,0,0,.02-.012.03.03,0,0,0,.008-.018.046.046,0,0,0,0-.019.037.037,0,0,0-.018-.019.034.034,0,0,0-.029,0l-.05.021Z"/><path class="cls-14" d="M18.829,21.686l-.047-.2.066-.014.027,0a.06.06,0,0,1,.024.005.058.058,0,0,1,.018.017.069.069,0,0,1,.012.026.068.068,0,0,1,0,.047.061.061,0,0,1-.047.028l-.044.009.018.082Zm0-.111.045-.009a.039.039,0,0,0,.029-.016.035.035,0,0,0,0-.029A.053.053,0,0,0,18.9,21.5a.027.027,0,0,0-.017-.008.063.063,0,0,0-.022,0l-.045.009Z"/><path class="cls-14" d="M19.158,21.644l-.014-.206.063,0a.059.059,0,0,1,.031,0,.057.057,0,0,1,.02.018.084.084,0,0,1,.008.027.053.053,0,0,1,0,.025.045.045,0,0,1-.016.02.047.047,0,0,1,.025.017.063.063,0,0,1,.01.031.08.08,0,0,1,0,.027.056.056,0,0,1-.012.02.034.034,0,0,1-.017.011.068.068,0,0,1-.027,0Zm.014-.12.036,0a.079.079,0,0,0,.021,0,.032.032,0,0,0,.012-.011.048.048,0,0,0,0-.018.059.059,0,0,0,0-.019.022.022,0,0,0-.012-.009.079.079,0,0,0-.025,0l-.034,0Zm.006.095.042,0,.014,0,.013-.006.007-.012a.034.034,0,0,0,0-.018.053.053,0,0,0-.006-.019.024.024,0,0,0-.014-.011.059.059,0,0,0-.025,0l-.038,0Z"/><path class="cls-14" d="M19.71,21.627l.066-.214H19.8l.071.214h-.026l-.02-.065h-.071l-.019.065Zm.05-.088h.058L19.8,21.48c-.006-.018-.009-.033-.012-.045,0,.014-.006.028-.009.041Z"/><path class="cls-14" d="M20,21.627v-.21h.059a.119.119,0,0,1,.031,0,.058.058,0,0,1,.025.015.1.1,0,0,1,.021.036.185.185,0,0,1,.006.05.176.176,0,0,1,0,.042.1.1,0,0,1-.012.031.074.074,0,0,1-.015.019.058.058,0,0,1-.021.01.082.082,0,0,1-.028,0Zm.022-.025h.037a.064.064,0,0,0,.027,0,.037.037,0,0,0,.016-.01.067.067,0,0,0,.012-.027.156.156,0,0,0,.005-.04.116.116,0,0,0-.009-.051.047.047,0,0,0-.022-.024.074.074,0,0,0-.03,0h-.036Z"/><path class="cls-14" d="M20.183,21.523a.153.153,0,0,1,.021-.084.061.061,0,0,1,.052-.03.053.053,0,0,1,.038.014.091.091,0,0,1,.027.04.2.2,0,0,1,.008.057.178.178,0,0,1-.009.059.1.1,0,0,1-.027.039.064.064,0,0,1-.037.013.055.055,0,0,1-.038-.015.09.09,0,0,1-.026-.04.155.155,0,0,1-.009-.053Zm.021,0a.112.112,0,0,0,.015.062.044.044,0,0,0,.037.022.043.043,0,0,0,.037-.023.114.114,0,0,0,.015-.064.16.16,0,0,0-.006-.046.064.064,0,0,0-.018-.03.045.045,0,0,0-.028-.011.047.047,0,0,0-.037.021.122.122,0,0,0-.015.069Z"/><path class="cls-14" d="M21.036,21.668l.112-.2.024.006.023.23-.026-.006,0-.069-.072-.016-.033.061Zm.067-.077.059.013,0-.063c0-.02,0-.035,0-.048a.232.232,0,0,1-.018.039Z"/><path class="cls-14" d="M21.372,21.748l.147-.171.021.01-.024.23-.024-.011.009-.069-.064-.031-.043.053Zm.081-.061.051.025.008-.063.008-.046c-.008.012-.016.023-.025.034Z"/><path class="cls-6" d="M20.609,21.922a.363.363,0,0,0-.315-.018l.007.134a.437.437,0,0,1,.134.019l.129.061Z"/><path d="M20.578,22.145l-.151-.072a.436.436,0,0,0-.126-.016l-.026-.152a.361.361,0,0,1,.341,0l-.038.24Zm-.218-.121a.21.21,0,0,1,.084.016l.107.05.039-.172a1.528,1.528,0,0,0-.285,0l.014.114c0-.007.019-.01.041-.01Z"/><path class="cls-6" d="M19.41,21.931a.365.365,0,0,1,.316-.018l-.007.134a.442.442,0,0,0-.135.019l-.128.061Z"/><path d="M19.442,22.154l-.05-.219a.355.355,0,0,1,.344-.038l0,.151c-.045.018-.117.021-.146.035l-.15.071Zm.164-.248a.493.493,0,0,0-.188.043l.049.151.108-.051a.454.454,0,0,1,.144-.021l-.012-.111c-.006,0-.042-.011-.1-.011Z"/><path class="cls-6" d="M19.893,21.885v.2a.152.152,0,0,0,.109.028.224.224,0,0,0,.109-.028v-.2a.35.35,0,0,0-.123-.018.187.187,0,0,0-.095.027Z"/><path d="M20,22.128a.167.167,0,0,1-.125-.036l0-.207a.155.155,0,0,1,.113-.046.806.806,0,0,1,.131.02l.013.222a.168.168,0,0,1-.128.047Zm-.088-.049c.016,0,.186-.014.187-.014l-.009-.182c-.008.006-.05-.008-.086-.008-.079.009-.1.019-.1.024l.006.181Z"/><path class="cls-6" d="M20.111,22.093c.032.055.26.037.266-.012a.8.8,0,0,0,0-.119h-.27Z"/><path d="M20.227,22.146h0c-.04,0-.111-.006-.133-.044l0-.14.289-.019a.227.227,0,0,1,.015.14c-.006.049-.113.063-.169.063Zm.135-.183-.251.018.019.112a.7.7,0,0,0,.228-.015.746.746,0,0,0,0-.115Z"/><path class="cls-6" d="M20.111,21.876a.486.486,0,0,1,.18-.037.154.154,0,0,1,.1.044l-.013.177a.135.135,0,0,0-.1-.043.371.371,0,0,0-.167.055Z"/><path d="M20.092,22.1v-.228a.361.361,0,0,1,.182-.056.19.19,0,0,1,.128.05l-.009.191c-.044,0-.084-.026-.112-.026a.361.361,0,0,0-.161.053l-.028.016ZM20.277,22a.153.153,0,0,1,.113.052l-.022-.167c0,.009-.028-.02-.079-.025a.486.486,0,0,0-.171.036l.01.148A.354.354,0,0,1,20.277,22Z"/><path class="cls-6" d="M19.893,22.1c-.033.055-.261.037-.268-.012a.826.826,0,0,1,0-.119h.27Z"/><path d="M19.776,22.149c-.056,0-.163-.014-.17-.063a.943.943,0,0,1,0-.122l.29-.018.019.15c-.025.047-.1.053-.136.053Zm-.144-.166a.39.39,0,0,1,.012.1.414.414,0,0,0,.232,0l0-.122-.241.018Z"/><path class="cls-6" d="M19.893,21.879a.491.491,0,0,0-.181-.037.156.156,0,0,0-.1.043l.013.178a.132.132,0,0,1,.1-.043.375.375,0,0,1,.167.055Z"/><path d="M19.912,22.107l-.029-.016a.348.348,0,0,0-.158-.052h0a.124.124,0,0,0-.08.033l-.048-.186a.139.139,0,0,1,.113-.062.71.71,0,0,1,.19.038l.012.245ZM19.722,22a.356.356,0,0,1,.151.043v-.165c-.051-.006-.1-.019-.144-.019a.15.15,0,0,0-.1.037l.015.141c.008-.022.046-.037.076-.037Z"/></g></g></g></svg>