<svg id="Layer_1" data-name="Layer 1" xmlns="http://www.w3.org/2000/svg" xmlns:xlink="http://www.w3.org/1999/xlink" viewBox="0 0 40 40"><defs><style>.cls-1{fill:none;}.cls-2{clip-path:url(#clip-path);}.cls-11,.cls-3{fill:#e5e8eb;}.cls-4{clip-path:url(#clip-path-2);}.cls-5{fill:#f5d528;}.cls-10,.cls-11,.cls-5,.cls-6,.cls-7,.cls-8,.cls-9{fill-rule:evenodd;}.cls-6{fill:#eee839;}.cls-7{fill:#61c7d6;}.cls-8{fill:#3e853f;}.cls-9{fill:#b21e42;}.cls-10{fill:#2b3379;}</style><clipPath id="clip-path"><rect class="cls-1" x="1.42" y="8.974" width="37.159" height="22.051" rx="4"/></clipPath><clipPath id="clip-path-2"><rect class="cls-1" x="1.42" y="8.974" width="37.159" height="22.051"/></clipPath></defs><g class="cls-2"><rect class="cls-3" x="1.42" y="8.974" width="37.159" height="22.051"/><g class="cls-4"><path class="cls-5" d="M22.882,16.915a.724.724,0,0,0-.206-.55c-.2-.107-.2-.174-.219-.314s.341-.4.341-.4a1.388,1.388,0,0,0-.446-.132,1.544,1.544,0,0,0-.39.074c-.032.033-.21-.594-.1-.694s.349.232.349.232.154-.363-.39-1.057a1.409,1.409,0,0,0-1.338-1.659c-.236-.033-.844.19-.941.487a.458.458,0,0,0-.325.38.894.894,0,0,0-.714.677.4.4,0,0,1,.617.032,1.444,1.444,0,0,0,.494.24c.171.008-.162.578-.259.677a5.383,5.383,0,0,0-.487.5c.016.024.316.115.3.255s-.925.57-.876.677a.76.76,0,0,1,.418-.017.62.62,0,0,1-.215.592Z"/><path d="M22.915,16.948H18.373l.11-.062a.587.587,0,0,0,.2-.546c-.012.006-.067,0-.141,0a.8.8,0,0,0-.237.037.078.078,0,0,1-.019-.062h0c.014-.075.149-.164.415-.329.172-.106.431-.268.437-.321.009-.08-.148-.154-.223-.19-.048-.022-.063-.03-.072-.044-.021-.031-.028-.041.38-.436l.111-.108c.086-.088.332-.516.295-.613a1.544,1.544,0,0,1-.526-.254.4.4,0,0,0-.29-.158.453.453,0,0,0-.287.124l-.065.054.012-.084a.93.93,0,0,1,.737-.7c-.02-.008.013-.271.324-.379.083-.3.718-.518.955-.489h0a1.594,1.594,0,0,1,1.071.525,1.429,1.429,0,0,1,.294,1.171c.543.677.394,1.05.388,1.066l-.023.053-.033-.046c-.065-.092-.2-.237-.274-.237-.034.016-.049.035-.053.1a1.461,1.461,0,0,0,.115.559c-.006-.03.1-.047.317-.075l.055-.007a1.381,1.381,0,0,1,.463.135l.051.024-.045.033c-.132.1-.338.285-.327.373.015.142.021.194.2.289a.749.749,0,0,1,.224.579v.033Zm-4.323-.066h4.257a.662.662,0,0,0-.19-.489c-.2-.105-.216-.179-.232-.323s.2-.331.307-.415a1.292,1.292,0,0,0-.361-.109l-.072.008a1.552,1.552,0,0,0-.317.059c-.051.012-.068-.012-.093-.081s-.168-.556-.047-.661c.094-.083.272.081.353.181a1.388,1.388,0,0,0-.4-.962,1.419,1.419,0,0,0-.286-1.144,1.526,1.526,0,0,0-1.017-.5l-.062,0c-.266,0-.777.219-.858.468a.459.459,0,0,0-.323.371c-.031.03-.575.137-.7.6a.464.464,0,0,1,.259-.087.441.441,0,0,1,.335.178h0a1.45,1.45,0,0,0,.47.226.077.077,0,0,1,.071.05c.054.142-.231.6-.309.683l-.112.11c-.1.1-.307.3-.357.362,0,0,.02.005.031.01.1.049.275.13.261.258-.01.081-.184.193-.468.369a3.5,3.5,0,0,0-.375.253,1.006,1.006,0,0,1,.362,0,.692.692,0,0,1-.131.591Z"/><path class="cls-5" d="M22.642,23.1a1.1,1.1,0,0,1-.165.706A1.7,1.7,0,0,1,23.9,25.042c.008.227-.281.4-.281.4s.1.4-.281.471c.008.387-.257.387-.257.387a.426.426,0,0,1-.4.3.569.569,0,0,1-.563.455s-.272.673-.677.412a.633.633,0,0,1-1.191,0c-.141-.008-.455.185-.645-.387-.421.076-.586-.471-.586-.471a.487.487,0,0,1-.39-.311.345.345,0,0,1-.272-.4.466.466,0,0,1-.323-.463.5.5,0,0,1-.24-.446,1.674,1.674,0,0,1,1.406-1.2,1.244,1.244,0,0,1-.165-.681Z"/><path d="M20.848,27.924a.715.715,0,0,1-.633-.438c0,.019-.03.024-.06.029a.846.846,0,0,1-.14.015c-.206,0-.347-.138-.446-.435.007.028-.021.03-.048.03-.375,0-.526-.46-.538-.5a.438.438,0,0,1-.389-.311.347.347,0,0,1-.274-.416A.431.431,0,0,1,18,25.436a.478.478,0,0,1-.24-.448,1.712,1.712,0,0,1,1.384-1.223,1.3,1.3,0,0,1-.143-.66l3.644-.039a.994.994,0,0,1-.1.712,1.759,1.759,0,0,1,1.389,1.262c.008.231-.254.407-.292.431a.354.354,0,0,1-.039.32.359.359,0,0,1-.258.157.318.318,0,0,1-.076.3.284.284,0,0,1-.182.086.4.4,0,0,1-.385.3.59.59,0,0,1-.585.454c.02,0-.174.472-.492.472a.36.36,0,0,1-.172-.047.677.677,0,0,1-.6.406Zm-.612-.485a.733.733,0,0,0,.612.419.618.618,0,0,0,.558-.4.037.037,0,0,1,.021-.018.034.034,0,0,1,.026,0,.31.31,0,0,0,.169.055c.274,0,.459-.447.461-.451a.591.591,0,0,0,.561-.449c0-.015.039-.026.055-.026a.394.394,0,0,0,.35-.28c.034-.023.109-.025.172-.09a.392.392,0,0,0,.083-.286.474.474,0,0,0,.242-.162.433.433,0,0,0,.04-.3c.018-.037.287-.206.281-.41a1.671,1.671,0,0,0-1.392-1.2.034.034,0,0,1-.029-.021.035.035,0,0,1,.008-.035,1.069,1.069,0,0,0,.156-.681l-3.574.039a1.721,1.721,0,0,0,.186.629.036.036,0,0,1,0,.032.034.034,0,0,1-.024.02A1.651,1.651,0,0,0,17.821,25a.463.463,0,0,0,.225.41.474.474,0,0,0,.315.46c.021.05-.025.343.27.4a.5.5,0,0,0,.386.312c.031.029.187.535.577.47.217.529.419.42.55.4a.583.583,0,0,1,.092-.011Z"/><path class="cls-5" d="M16.9,17.406s-.653.716-.98.181.455-.684.466-.694.454-.151.494-.987-.979-1.38-1.266-1.45a7.8,7.8,0,0,0-1.13-.071A30.792,30.792,0,0,1,11.09,13.4a24.1,24.1,0,0,0-3.228-.775s-.465-.06-.426.362a.511.511,0,0,0,.426.474s-.326.262-.287.493a.7.7,0,0,0,.8.544c-.059.826,1.069.957,1.069.957s.118,1.188,1.158,1.128a1.308,1.308,0,0,0,1.178.846,1.669,1.669,0,0,0,1.069.594.938.938,0,0,0,1.159.664s-.06.585.306.585c-.188.664.515.755.783.624a.576.576,0,0,0,.85.3.705.705,0,0,0,.862.262.42.42,0,0,0,.584.241c.465-.15-.5-3.272-.5-3.293Z"/><path d="M17.2,20.775h0a.441.441,0,0,1-.408-.265.7.7,0,0,1-.852-.262.748.748,0,0,1-.316.078.6.6,0,0,1-.54-.379.7.7,0,0,1-.239.04.623.623,0,0,1-.507-.219.54.54,0,0,1-.069-.461.283.283,0,0,1-.176-.095.735.735,0,0,1-.123-.473,1.008,1.008,0,0,1-.209.022,1,1,0,0,1-.943-.725,1.582,1.582,0,0,1-1.063-.583,1.312,1.312,0,0,1-1.176-.83h-.046c-.9,0-1.09-.947-1.119-1.135-.182-.029-1.09-.212-1.076-.948a.726.726,0,0,1-.8-.582c-.032-.189.145-.387.242-.479a.546.546,0,0,1-.381-.491.368.368,0,0,1,.078-.289.492.492,0,0,1,.393-.118,23.239,23.239,0,0,1,3.246.783,31.265,31.265,0,0,0,3.381.98,6.98,6.98,0,0,1,1.129.071c.286.07,1.339.621,1.3,1.492-.033.691-.333.934-.508,1.017-.369.106-.48.234-.515.326a.355.355,0,0,0,.056.315.325.325,0,0,0,.285.179c.293,0,.629-.363.632-.367a.04.04,0,0,1,.053,0,.042.042,0,0,1,.012.053c.008-.008.027.061.058.171.577,2.048.708,3.046.413,3.142a.692.692,0,0,1-.211.036Zm-.386-.358a.039.039,0,0,1,.018,0,.038.038,0,0,1,.021.025.363.363,0,0,0,.347.247h0a.605.605,0,0,0,.187-.033c.133-.043.25-.5-.467-3.04-.017-.059-.029-.1-.037-.133a1.092,1.092,0,0,1-.64.34.406.406,0,0,1-.354-.218.436.436,0,0,1-.063-.389.728.728,0,0,1,.531-.359c.153-.071.455-.285.487-.957.038-.808-.974-1.344-1.236-1.408a7.809,7.809,0,0,0-1.12-.07,29.6,29.6,0,0,1-3.418-1,20.977,20.977,0,0,0-3.211-.767h0a.413.413,0,0,0-.321.092.287.287,0,0,0-.057.225.472.472,0,0,0,.39.437.041.041,0,0,1,.034.03.042.042,0,0,1-.014.044s-.307.249-.272.453a.654.654,0,0,0,.757.51.037.037,0,0,1,.033.011.041.041,0,0,1,.012.033c-.055.777,1.022.912,1.033.913a.041.041,0,0,1,.036.037c0,.044.121,1.093,1.043,1.093l.073,0a.038.038,0,0,1,.041.029,1.278,1.278,0,0,0,1.141.817,1.774,1.774,0,0,0,1.07.593.97.97,0,0,0,.9.7.875.875,0,0,0,.24-.032.043.043,0,0,1,.038.007.043.043,0,0,1,.015.036.755.755,0,0,0,.1.468.212.212,0,0,0,.167.071.037.037,0,0,1,.032.017.039.039,0,0,1,.007.036.491.491,0,0,0,.043.438.55.55,0,0,0,.443.185.57.57,0,0,0,.24-.047.04.04,0,0,1,.054.019.532.532,0,0,0,.8.283.04.04,0,0,1,.051.014.614.614,0,0,0,.536.3.766.766,0,0,0,.276-.051l.015,0Z"/><path class="cls-5" d="M14.881,14.969s.722.081.633,1.219Z"/><path d="M15.514,16.229h0a.041.041,0,0,1-.037-.044c.085-1.086-.591-1.174-.6-1.175a.041.041,0,0,1-.036-.045c0-.023.02-.046.045-.037.008,0,.761.1.669,1.263a.04.04,0,0,1-.04.038Z"/><path class="cls-5" d="M12.129,13.791s-1.387.967,1.207,1.269Z"/><path d="M13.336,15.1h0c-.983-.114-1.522-.34-1.6-.672s.358-.659.377-.672a.039.039,0,0,1,.056.011.041.041,0,0,1-.01.057s-.416.294-.345.584c.05.2.356.473,1.534.611a.041.041,0,0,1,.036.045.042.042,0,0,1-.041.037Z"/><path class="cls-5" d="M12.525,14.929c-.011.021-.654.8.534,1.027-.564.544.5.725.5.725a.528.528,0,0,0,.416.725c-.208.6.475.565.475.565a.753.753,0,0,0,.832.714c-.011.494.554.524.554.524a.562.562,0,0,0,.713.373.351.351,0,0,0,.435.292Z"/><path d="M16.9,19.923a.423.423,0,0,1-.24-.069.364.364,0,0,1-.143-.221.6.6,0,0,1-.71-.385c-.113-.014-.547-.1-.565-.521a.788.788,0,0,1-.829-.715.6.6,0,0,1-.453-.187.432.432,0,0,1-.037-.39.583.583,0,0,1-.382-.28.634.634,0,0,1-.034-.442c-.142-.03-.564-.14-.638-.385a.366.366,0,0,1,.114-.347c-.353-.08-.571-.222-.647-.421a.7.7,0,0,1,.154-.645.045.045,0,0,1,.057-.02.039.039,0,0,1,.019.053l-.01.015a.616.616,0,0,0-.144.567c.07.184.292.314.659.386a.04.04,0,0,1,.032.029.042.042,0,0,1-.011.041c-.124.12-.173.227-.145.318.059.2.467.311.619.336a.04.04,0,0,1,.028.021.039.039,0,0,1,0,.035.578.578,0,0,0,.016.421.525.525,0,0,0,.371.249.042.042,0,0,1,.029.054.38.38,0,0,0,.012.356.568.568,0,0,0,.423.154.035.035,0,0,1,.03.011.043.043,0,0,1,.013.029.71.71,0,0,0,.79.674.048.048,0,0,1,.029.013.035.035,0,0,1,.012.029c-.009.449.494.481.516.482a.04.04,0,0,1,.036.028.519.519,0,0,0,.663.346.039.039,0,0,1,.033,0,.04.04,0,0,1,.018.028.3.3,0,0,0,.118.211.394.394,0,0,0,.27.048.041.041,0,1,1,.016.08.418.418,0,0,1-.092.009Z"/><path class="cls-6" d="M16.821,20.469s.03-.514-.089-.615Z"/><path d="M16.821,20.51h0a.04.04,0,0,1-.038-.044c.011-.19,0-.517-.075-.581a.042.042,0,0,1,0-.058.039.039,0,0,1,.057-.005c.128.109.109.56.1.649a.041.041,0,0,1-.04.039Z"/><path class="cls-6" d="M15.92,20.186c.01-.009.238-.473.159-.553Z"/><path d="M15.92,20.228a.042.042,0,0,1-.032-.067c.05-.079.2-.452.162-.5a.044.044,0,0,1,0-.059.04.04,0,0,1,.056,0,.124.124,0,0,1,.029.093,1.554,1.554,0,0,1-.189.521.04.04,0,0,1-.027.011Z"/><path class="cls-6" d="M15.088,19.894l.615-.614Z"/><path d="M15.088,19.936a.039.039,0,0,1-.029-.013.042.042,0,0,1,0-.058l.614-.614a.039.039,0,0,1,.057,0,.041.041,0,0,1,0,.058l-.614.615a.042.042,0,0,1-.029.012Z"/><path class="cls-6" d="M14.316,19.29c.011-.01.931-.594.931-.594Z"/><path d="M14.315,19.333a.041.041,0,0,1-.03-.014.042.042,0,0,1,0-.059s.013-.013.937-.6a.042.042,0,0,1,.056.013.043.043,0,0,1-.014.057c-.359.228-.9.574-.928.592a.035.035,0,0,1-.025.01Z"/><path class="cls-6" d="M13.99,18.7c.009-.011.524-.232.544-.423Z"/><path d="M14,18.731a.043.043,0,0,1-.028-.009c-.016-.016-.029-.037-.014-.054s.044-.026.048-.028c.39-.192.479-.308.486-.372a.037.037,0,0,1,.045-.036.041.041,0,0,1,.036.045c-.018.166-.312.329-.531.437a.062.062,0,0,1-.042.017Z"/><path class="cls-5" d="M12.851,18.021s1.248.272,1.465-.02Z"/><path d="M13.8,18.178a5.135,5.135,0,0,1-.957-.117.043.043,0,0,1-.032-.049.045.045,0,0,1,.049-.032c.339.075,1.258.219,1.424,0a.04.04,0,0,1,.056-.008.041.041,0,0,1,.008.058.715.715,0,0,1-.548.152Z"/><path class="cls-5" d="M11.812,17.417c.05,0,1.871.2,2.039-.03Z"/><path d="M13.166,17.539q-.476,0-1.269-.073l-.085-.008a.041.041,0,0,1-.04-.041.04.04,0,0,1,.04-.041l.092.008c1.606.147,1.874.034,1.915-.022a.039.039,0,0,1,.056-.008.041.041,0,0,1,.009.057c-.062.086-.3.128-.718.128Z"/><path class="cls-5" d="M10.6,16.581c.03-.01,2.158.4,2.762.09Z"/><path d="M12.593,16.829a12.963,12.963,0,0,1-1.837-.185c-.083-.013-.137-.022-.15-.022a.037.037,0,0,1-.046-.027.047.047,0,0,1,.032-.053c.014,0,.015-.005.176.021a5.669,5.669,0,0,0,2.58.072.039.039,0,0,1,.054.018.041.041,0,0,1-.018.055,1.882,1.882,0,0,1-.791.121Z"/><path class="cls-5" d="M9.584,15.463c.05,0,2.832.685,3.247.474Z"/><path d="M12.547,16.018a17.058,17.058,0,0,1-2.756-.468c-.119-.027-.2-.045-.209-.046a.04.04,0,0,1-.039-.041.042.042,0,0,1,.041-.042,2.276,2.276,0,0,1,.224.048,9.065,9.065,0,0,0,3.005.431.04.04,0,0,1,.054.018.041.041,0,0,1-.018.055.725.725,0,0,1-.3.045Z"/><path class="cls-5" d="M8.525,14.476c.02,0,3.317.785,3.732.463Z"/><path d="M11.817,15.057a18.8,18.8,0,0,1-3.212-.522l-.085-.019a.038.038,0,0,1-.038-.04.044.044,0,0,1,.043-.042.646.646,0,0,1,.1.021c2.065.464,3.381.629,3.61.451a.04.04,0,0,1,.057.008.042.042,0,0,1-.007.058.859.859,0,0,1-.465.085Z"/><path class="cls-5" d="M8.1,13.52c.011,0,3.159,1.047,3.426.785Z"/><path d="M11.337,14.385a16.165,16.165,0,0,1-3.176-.8L8.09,13.56a.037.037,0,0,1-.036-.041.045.045,0,0,1,.045-.041.369.369,0,0,1,.087.026c2.274.732,3.2.878,3.311.771a.041.041,0,0,1,.056.06.327.327,0,0,1-.216.05Z"/><path class="cls-5" d="M24.8,17.429s.653.716.98.182-.456-.685-.465-.7-.456-.151-.5-.987.98-1.38,1.267-1.45a7.77,7.77,0,0,1,1.128-.071,30.875,30.875,0,0,0,3.4-.987,24.054,24.054,0,0,1,3.227-.775s.465-.06.426.362a.511.511,0,0,1-.426.474s.326.262.287.493a.7.7,0,0,1-.8.544c.06.826-1.069.957-1.069.957S32.137,16.664,31.1,16.6a1.309,1.309,0,0,1-1.178.846,1.666,1.666,0,0,1-1.07.594.937.937,0,0,1-1.158.665s.06.584-.307.584c.189.664-.514.755-.781.624a.578.578,0,0,1-.852.3.7.7,0,0,1-.861.262.421.421,0,0,1-.584.242c-.465-.151.5-3.273.5-3.294Z"/><path d="M24.506,20.8a.687.687,0,0,1-.211-.036c-.3-.1-.164-1.1.415-3.152.03-.105.049-.171.052-.185s0-.03.015-.041.041,0,.054.017.339.366.632.366a.321.321,0,0,0,.284-.178.355.355,0,0,0,.057-.316c-.035-.091-.146-.22-.475-.311l-.042-.019c-.173-.079-.473-.322-.506-1.013-.041-.871,1.012-1.422,1.3-1.492a7.689,7.689,0,0,1,1.138-.072,31.569,31.569,0,0,0,3.372-.979,23.2,23.2,0,0,1,3.244-.782.481.481,0,0,1,.4.117.364.364,0,0,1,.078.289.548.548,0,0,1-.381.491c.1.092.274.29.242.479a.727.727,0,0,1-.8.582c.014.736-.894.919-1.076.948-.029.188-.219,1.136-1.119,1.136l-.046,0a1.366,1.366,0,0,1-1.206.845,1.559,1.559,0,0,1-1.068.594.936.936,0,0,1-.908.7,1.008,1.008,0,0,1-.209-.022.735.735,0,0,1-.123.473.283.283,0,0,1-.176.095.54.54,0,0,1-.069.461.623.623,0,0,1-.507.219.68.68,0,0,1-.239-.04.6.6,0,0,1-.54.379.756.756,0,0,1-.317-.078.706.706,0,0,1-.852.262.44.44,0,0,1-.407.266Zm.317-3.289-.034.125c-.721,2.551-.6,3-.469,3.049a.594.594,0,0,0,.186.033.362.362,0,0,0,.346-.248.039.039,0,0,1,.022-.025.038.038,0,0,1,.033,0,.759.759,0,0,0,.276.051.612.612,0,0,0,.535-.3.041.041,0,0,1,.052-.014.534.534,0,0,0,.8-.283.04.04,0,0,1,.054-.019.567.567,0,0,0,.24.047.541.541,0,0,0,.442-.186.485.485,0,0,0,.043-.437.042.042,0,0,1,.007-.036.043.043,0,0,1,.032-.017.213.213,0,0,0,.168-.071.74.74,0,0,0,.1-.467.042.042,0,0,1,.053-.044.875.875,0,0,0,.24.032.909.909,0,0,0,.868-.673,1.754,1.754,0,0,0,1.075-.6,1.338,1.338,0,0,0,1.171-.832c.006-.019.012-.029.041-.029l.073,0c.921,0,1.038-1.049,1.042-1.093a.041.041,0,0,1,.036-.037c.011,0,1.09-.136,1.034-.913a.041.041,0,0,1,.012-.033.038.038,0,0,1,.033-.011.657.657,0,0,0,.757-.51c.029-.17-.186-.384-.272-.453a.043.043,0,0,1-.014-.044.04.04,0,0,1,.034-.029A.471.471,0,0,0,34.226,13a.291.291,0,0,0-.058-.225.417.417,0,0,0-.323-.092,21.152,21.152,0,0,0-3.209.767,29.846,29.846,0,0,1-3.409.994,8.04,8.04,0,0,0-1.129.071c-.262.064-1.274.6-1.236,1.408.032.672.334.886.462.947.316.09.494.212.555.37a.43.43,0,0,1-.063.389.4.4,0,0,1-.353.217,1.092,1.092,0,0,1-.64-.34Z"/><path class="cls-5" d="M26.822,14.992s-.724.081-.635,1.219Z"/><path d="M26.187,16.252a.04.04,0,0,1-.04-.038c-.091-1.164.663-1.262.67-1.263a.039.039,0,0,1,.045.037.041.041,0,0,1-.036.045c-.028,0-.683.093-.6,1.175a.042.042,0,0,1-.037.044Z"/><path class="cls-5" d="M29.574,13.814s1.385.967-1.208,1.27Z"/><path d="M28.366,15.125a.041.041,0,0,1-.04-.037.04.04,0,0,1,.035-.045c1.178-.138,1.484-.408,1.534-.61.071-.291-.34-.582-.344-.585a.041.041,0,0,1-.011-.057.04.04,0,0,1,.056-.011c.019.013.462.327.377.672s-.62.558-1.6.672Z"/><path class="cls-5" d="M29.177,14.952c.01.021.654.8-.534,1.027.564.544-.5.725-.5.725a.528.528,0,0,1-.416.725c.208.6-.475.565-.475.565a.753.753,0,0,1-.831.715c.009.493-.555.523-.555.523a.561.561,0,0,1-.712.373.353.353,0,0,1-.437.292Z"/><path d="M24.806,19.946a.418.418,0,0,1-.092-.009.04.04,0,0,1-.031-.048.041.041,0,0,1,.048-.032.4.4,0,0,0,.27-.048.3.3,0,0,0,.118-.211.043.043,0,0,1,.018-.028.039.039,0,0,1,.033,0,.519.519,0,0,0,.662-.345.04.04,0,0,1,.036-.029c.022,0,.526-.034.517-.482a.038.038,0,0,1,.012-.029c.007-.008.023-.007.029-.013h.017a.7.7,0,0,0,.773-.674.04.04,0,0,1,.014-.029.033.033,0,0,1,.029-.011s.3.01.423-.154a.38.38,0,0,0,.012-.356.042.042,0,0,1,0-.033.037.037,0,0,1,.027-.02.529.529,0,0,0,.371-.25.578.578,0,0,0,.016-.421.043.043,0,0,1,0-.035.039.039,0,0,1,.028-.02c.152-.026.56-.138.619-.336.028-.092-.021-.2-.145-.319a.04.04,0,0,1-.011-.041.038.038,0,0,1,.031-.029c.367-.072.589-.2.66-.385a.617.617,0,0,0-.143-.566c-.009-.021-.006-.054.014-.064s.036-.01.046.007a.7.7,0,0,1,.158.653c-.076.2-.294.34-.647.42a.367.367,0,0,1,.115.348c-.073.244-.5.354-.638.384a.625.625,0,0,1-.034.441.581.581,0,0,1-.382.281.432.432,0,0,1-.037.39.6.6,0,0,1-.453.187.787.787,0,0,1-.828.715c-.019.425-.453.507-.566.521a.6.6,0,0,1-.71.385.366.366,0,0,1-.144.222.427.427,0,0,1-.24.068Z"/><path class="cls-6" d="M24.881,20.492s-.029-.514.089-.615Z"/><path d="M24.881,20.533a.041.041,0,0,1-.04-.039c-.005-.089-.025-.54.1-.649A.039.039,0,0,1,25,19.85a.041.041,0,0,1-.005.058c-.075.064-.085.391-.074.581a.041.041,0,0,1-.038.044Z"/><path class="cls-6" d="M25.782,20.209c-.01-.01-.238-.473-.158-.553Z"/><path d="M25.785,20.252a.043.043,0,0,1-.033-.015s-.269-.5-.157-.611a.04.04,0,0,1,.057,0,.042.042,0,0,1,0,.059c-.041.047.112.418.163.5a.04.04,0,0,1,0,.056.039.039,0,0,1-.026.01Z"/><path class="cls-6" d="M26.613,19.917,26,19.3Z"/><path d="M26.613,19.959a.039.039,0,0,1-.028-.012l-.614-.614a.042.042,0,0,1,0-.059.04.04,0,0,1,.057,0l.614.614a.042.042,0,0,1,0,.058.037.037,0,0,1-.029.013Z"/><path class="cls-5" d="M27.385,19.313c-.009-.01-.93-.594-.93-.594Z"/><path d="M27.385,19.354a.038.038,0,0,1-.025-.009c-.031-.022-.57-.364-.926-.591a.041.041,0,0,1,.043-.07c.924.587.933.6.937.6a.041.041,0,0,1,0,.058.04.04,0,0,1-.029.012Z"/><path class="cls-6" d="M27.713,18.719c-.011-.01-.526-.231-.545-.423Z"/><path d="M27.713,18.76a.037.037,0,0,1-.023-.007c-.251-.123-.545-.286-.562-.453a.041.041,0,0,1,.036-.045c.027-.008.042.014.044.037.007.064.1.18.488.372l.045.026a.041.041,0,0,1,0,.058.039.039,0,0,1-.028.012Z"/><path class="cls-5" d="M28.85,18.044s-1.247.272-1.465-.02Z"/><path d="M27.9,18.2a.718.718,0,0,1-.549-.152.041.041,0,1,1,.065-.05c.166.222,1.084.078,1.424,0a.043.043,0,0,1,.048.032.041.041,0,0,1-.031.049,5.135,5.135,0,0,1-.957.117Z"/><path class="cls-5" d="M29.89,17.44c-.049,0-1.871.2-2.039-.03Z"/><path d="M28.536,17.562c-.419,0-.656-.042-.718-.128a.041.041,0,0,1,.009-.057.04.04,0,0,1,.057.009c.04.055.308.169,1.914.021l.092-.008a.041.041,0,0,1,0,.082l-.084.008q-.8.073-1.27.073Z"/><path class="cls-5" d="M31.1,16.6c-.03-.01-2.158.4-2.763.091Z"/><path d="M29.109,16.853a1.888,1.888,0,0,1-.792-.122.041.041,0,1,1,.037-.073,5.685,5.685,0,0,0,2.58-.072c.161-.025.163-.025.176-.021a.041.041,0,0,1,.026.052.039.039,0,0,1-.041.028c-.015,0-.068.01-.149.023a12.963,12.963,0,0,1-1.837.185Z"/><path class="cls-5" d="M32.118,15.486c-.05,0-2.831.685-3.248.474Z"/><path d="M29.155,16.041a.717.717,0,0,1-.3-.045.041.041,0,0,1-.018-.055.04.04,0,0,1,.054-.018,9.132,9.132,0,0,0,3.006-.431c.19-.043.213-.048.224-.048a.042.042,0,0,1,0,.083c-.015,0-.091.019-.208.046a17.086,17.086,0,0,1-2.757.468Z"/><path class="cls-5" d="M33.176,14.5c-.019,0-3.315.784-3.732.462Z"/><path d="M29.886,15.08A.852.852,0,0,1,29.42,15a.042.042,0,0,1-.008-.058.04.04,0,0,1,.057-.008c.23.178,1.547.014,3.614-.451a.68.68,0,0,1,.093-.02.041.041,0,0,1,.041.042.041.041,0,0,1-.035.04l-.082.019a18.807,18.807,0,0,1-3.214.521Z"/><path class="cls-5" d="M33.6,13.543c-.01,0-3.158,1.047-3.425.785Z"/><path d="M30.366,14.408a.331.331,0,0,1-.217-.05.042.042,0,0,1,0-.058.04.04,0,0,1,.057,0c.109.108,1.039-.04,3.316-.774A.362.362,0,0,1,33.6,13.5a.042.042,0,0,1,.009.082l-.065.021a16.136,16.136,0,0,1-3.18.8Z"/><path class="cls-7" d="M28.585,18.65s-.194,2.814-.2,2.808-.4-.491-.4-.491l-1.217,3.881.284.847-.708,2.363-.584-.754-.944.386.757-2.49.7-.511,1.261-3.824-.7.089Z"/><path d="M26.349,28.128l-.622-.8-.969.423.777-2.556.712-.528L27.48,20.9,26.753,21l1.872-2.453-.008.108a15.422,15.422,0,0,1-.234,2.839c-.024-.009-.033-.015-.392-.457l-1.2,3.824.284.826-.727,2.444Zm-.608-.855.582.716.691-2.3-.283-.826,1.234-3.96.038.047s.248.3.355.433c.029-.351.136-1.885.187-2.623L26.9,20.912l.674-.086L26.3,24.7l-.712.527-.725,2.407.881-.361Z"/><path class="cls-7" d="M31.274,19.811S29.8,22.2,29.8,22.191s-.129-.626-.129-.626l-2.419,2.282-2.582,2.536-.007-.523-.884-.111,1.169-.91.6-.1,3.773-3.48L28.658,21Z"/><path d="M24.635,26.46l-.008-.6-.934-.088,1.232-.959.613-.107,3.717-3.435-.681-.266,2.784-1.269-.056.092a25.761,25.761,0,0,1-1.5,2.4c-.03-.021-.036-.03-.149-.595l-2.377,2.242L24.635,26.46Zm-.777-.734.806.1.03.482,2.533-2.486L29.688,21.5l.012.057s.077.388.112.552c.188-.295.992-1.6,1.378-2.225L28.743,21l.634.247-3.812,3.515-.615.109-1.092.854Z"/><path d="M24.7,25.875l-.058-.033c.016-.034.744-.671,1.352-1.2l.043.052c-.518.449-1.3,1.134-1.337,1.18Z"/><path class="cls-7" d="M30.488,17.789s-.72,2.724-.728,2.716-.3-.561-.3-.561l-2.918,5.1.12.887-1.047,1.952-.432-.854-1,.2L25.3,25.157l.783-.367,2.95-5.033-.7-.049Z"/><path d="M25.611,27.952l-.46-.91-1.032.226,1.153-2.127.8-.38,2.909-4.975-.729-.051,2.3-2.042-.028.1a25.626,25.626,0,0,1-.75,2.74c-.035-.012-.042-.02-.313-.526l-2.889,5.048.124.866-1.08,2.027ZM25.174,27l.438.816,1.018-1.9-.123-.866,2.951-5.17.027.051s.186.348.266.495c.091-.325.457-1.7.678-2.538L28.41,19.68l.678.047-2.977,5.08-.8.38-1.072,1.99L25.17,27l-.006,0c0-.011,0-.025,1.011-1.822l.056.033c-.272.484-.983,1.75-1,1.8L25.174,27Z"/><polygon class="cls-7" points="5.387 17.276 7.146 17.285 6.97 17.715 7.737 20.806 8.665 17.723 8.337 17.276 10.167 17.276 9.776 17.707 8.265 22.123 8.657 22.701 6.898 22.701 7.29 22.123 5.811 17.723 5.387 17.276"/><path d="M8.719,22.734H6.836l.427-.63L5.78,17.734l-.47-.491,1.884.009-.2.476.741,2.956.894-2.97-.362-.471h1.969l-.442.486L8.3,22.134l.423.6Zm-1.761-.066H8.6l-.356-.526L9.745,17.7l.349-.388H8.4l.29.395-.957,3.224-.8-3.205.16-.4-1.635-.009.371.391,1.487,4.412-.363.556Z"/><polygon class="cls-7" points="32.366 17.382 34.037 17.382 33.765 17.764 33.757 22.262 34.132 22.684 32.366 22.684 32.718 22.229 32.71 17.772 32.366 17.382"/><path d="M34.205,22.717H32.3l.393-.509-.015-4.436-.384-.423H34.1l-.309.434v4.479l.415.455Zm-1.773-.066H34.06l-.327-.367v-4.52l.241-.35H32.439l.3.336.017,4.479-.319.422ZM19.681,14.275l-.016-.064c.076-.02.278-.094.3-.2s-.377-.332-.481-.364c-.085-.027-.273-.263-.31-.31l.05-.041a1.37,1.37,0,0,0,.279.288c.046.014.557.244.526.437-.028.168-.312.247-.344.255Zm.678-.55c-.31,0-.393-.368-.394-.372l-.438-.419.045-.048.407.4a1.071,1.071,0,0,1,.71.213.1.1,0,0,1,0,.11.369.369,0,0,1-.286.117l-.04,0Zm-.333-.383c.024.078.109.349.367.315.166-.015.219-.06.237-.085a.8.8,0,0,0-.6-.23Z"/><path class="cls-8" d="M16.815,26.648l.6-.506a.615.615,0,0,0-.609-.268A14.933,14.933,0,0,1,15.586,24.8L15.2,23.736a.6.6,0,0,0,.385-.352,1,1,0,0,0-.05-.609.587.587,0,0,0-.436.186c-.092.135-.234.651-.447.476s.03-.372.03-.372.213-.269.2-.414a1.822,1.822,0,0,0-.315-.588c-.03-.01-.091.568-.172.63s-.193.32-.356.176.082-.362.082-.362.456-.248.01-1.064a1.617,1.617,0,0,1-.386.579s-.122.217-.233.031.132-.362.132-.362a.848.848,0,0,0,.405-.589c.011-.35-.477-.753-.477-.753s-.03.65-.182.733-.213.217-.386.072.132-.464.132-.464.528-.537.5-.847a1.233,1.233,0,0,0-.061-.362s-.4.248-.447.372-.212.568-.416.434c-.142-.165.122-.486.122-.486s.193-.216.183-.31a1.49,1.49,0,0,0-.457-.64,1.989,1.989,0,0,1-.061-.413s-.223.269-.213.413-.02.434.01.754-.243-.1-.243-.1l.05-1.033a2.4,2.4,0,0,0-.852-.651.924.924,0,0,1,.162.506,2.792,2.792,0,0,0-.193.537,1.844,1.844,0,0,0,.64.94c-.629-.691-1.411-.464-1.645-.6.112.135.447.641.407.775s.6.413.6.413l.681.01s.335.238.365.393-.487-.29-.691-.279a5.8,5.8,0,0,1-.74-.072s.324.31.335.444a.759.759,0,0,0,.344.526,3.23,3.23,0,0,0,.711.114s.224-.134.264.01-.294.259-.294.259a1.021,1.021,0,0,1-.457-.093.768.768,0,0,0-.629-.31,1.4,1.4,0,0,0,.274.857s1.37-.113,1.36.186-1.137.031-1.177-.062.05.588.314.733a1.7,1.7,0,0,0,.924.041c.071-.031.335-.062.335.094s-1.34.278-1.36.237a.816.816,0,0,0,.74.5,1.587,1.587,0,0,0,.773-.2s.324-.063.355.072-.326.2-.326.2a6.463,6.463,0,0,1-.883-.021.851.851,0,0,0,.793.537c.446-.041.477-.238.568-.269a1.8,1.8,0,0,1,.457-.02c.04.011.751.516.751.516Z"/><path d="M16.815,26.681a.03.03,0,0,1-.023-.01l-1.807-1.858c-.261-.186-.7-.492-.739-.509a2.055,2.055,0,0,0-.439.021.235.235,0,0,0-.057.049.7.7,0,0,1-.515.221h0a.856.856,0,0,1-.637-.268.753.753,0,0,1-.192-.3A.036.036,0,0,1,12.413,24a.765.765,0,0,1-.49-.251.8.8,0,0,1-.177-.275.032.032,0,0,1,.032-.032.164.164,0,0,0,.073.01,3.6,3.6,0,0,0,1.257-.214c0-.127-.235-.085-.29-.061a1.759,1.759,0,0,1-.449.048,1.148,1.148,0,0,1-.5-.091c-.253-.139-.353-.719-.339-.776.013,0,.064-.011.069,0a2.141,2.141,0,0,0,.839.181c.1,0,.273-.014.277-.106a.064.064,0,0,0-.021-.048c-.044-.047-.2-.125-.763-.125-.287,0-.541.021-.542.021a1.3,1.3,0,0,1-.308-.894.027.027,0,0,1,.012-.022.03.03,0,0,1,.024-.007c.406.051.506.165.586.256a.57.57,0,0,0,.059.061.952.952,0,0,0,.437.086c.069-.025.289-.123.263-.216s-.215.007-.216.008a3.065,3.065,0,0,1-.74-.111.794.794,0,0,1-.365-.555,1.27,1.27,0,0,0-.325-.422.034.034,0,0,1-.007-.038.03.03,0,0,1,.034-.018,6.994,6.994,0,0,0,.7.072h.048a1.152,1.152,0,0,1,.438.2.969.969,0,0,0,.224.116c-.034-.11-.273-.3-.363-.366l-.662,0c-.213-.089-.674-.308-.629-.455.032-.108-.268-.583-.4-.744a.033.033,0,0,1,0-.042.033.033,0,0,1,.041-.008.869.869,0,0,0,.326.054,2.04,2.04,0,0,1,.927.23,1.429,1.429,0,0,1-.3-.6,2.609,2.609,0,0,1,.2-.551h0a.942.942,0,0,0-.159-.473.035.035,0,0,1,0-.039.033.033,0,0,1,.037-.011,2.4,2.4,0,0,1,.866.661L12.086,19.5c.065.089.15.185.178.188a.287.287,0,0,0,0-.084,4.283,4.283,0,0,1-.011-.544c0-.086.005-.158,0-.21-.011-.154.2-.409.221-.438a.034.034,0,0,1,.035-.01.035.035,0,0,1,.022.03,1.835,1.835,0,0,0,.057.4,1.449,1.449,0,0,1,.46.652c.012.1-.157.3-.191.335-.067.082-.223.324-.121.442a.114.114,0,0,0,.052.014c.134,0,.255-.3.3-.415.064-.153.428-.385.469-.411a.023.023,0,0,1,.025,0,.03.03,0,0,1,.02.015,1.225,1.225,0,0,1,.066.376c.031.321-.485.851-.507.873,0,0-.183.194-.175.333a.111.111,0,0,0,.041.083c.1.084.159.057.246-.008a.893.893,0,0,1,.1-.068c.1-.054.153-.461.165-.706a.032.032,0,0,1,.019-.028.032.032,0,0,1,.034,0c.02.017.5.418.489.78a.87.87,0,0,1-.422.616c-.006,0-.215.159-.12.317.067.112.157,0,.177-.03a1.657,1.657,0,0,0,.383-.574.035.035,0,0,1,.028-.022.034.034,0,0,1,.031.017,1.131,1.131,0,0,1,.175.833.459.459,0,0,1-.2.276h0s-.12.112-.12.216a.119.119,0,0,0,.044.092c.092.081.176-.015.242-.1a.493.493,0,0,1,.074-.08,1.491,1.491,0,0,0,.109-.409c.036-.193.042-.229.081-.229a1.562,1.562,0,0,1,.348.62c.011.153-.187.408-.21.437a.3.3,0,0,0-.111.19.178.178,0,0,0,.076.135c.133.108.241-.138.321-.314a1.345,1.345,0,0,1,.079-.155.676.676,0,0,1,.434-.206.15.15,0,0,1,.052.016,1,1,0,0,1,.059.641.6.6,0,0,1-.375.363l.374,1.032h0s.768.745,1.206,1.059h.016a.624.624,0,0,1,.6.281l-.607.545a.029.029,0,0,1-.021.008Zm-2.683-2.448a.813.813,0,0,1,.133.008c.041.011.546.368.762.521l1.79,1.841.573-.484h0a.748.748,0,0,0-.558-.213.163.163,0,0,1-.045-.006,14.881,14.881,0,0,1-1.222-1.078l-.394-1.076a.034.034,0,0,1,.022-.043.569.569,0,0,0,.363-.328.984.984,0,0,0-.043-.578.647.647,0,0,0-.386.182,1.272,1.272,0,0,0-.073.145c-.1.213-.253.475-.42.337a.235.235,0,0,1-.1-.187.353.353,0,0,1,.129-.236.869.869,0,0,0,.192-.386,1.992,1.992,0,0,0-.287-.549.474.474,0,0,1-.015.169,1.024,1.024,0,0,1-.134.446.513.513,0,0,0-.061.069c-.08.1-.209.218-.335.106a.185.185,0,0,1-.067-.143.439.439,0,0,1,.149-.268.417.417,0,0,0,.173-.244,1.023,1.023,0,0,0-.138-.719,1.648,1.648,0,0,1-.369.527s-.065.114-.155.114a.153.153,0,0,1-.127-.091c-.1-.168.048-.339.141-.406.006,0,.382-.234.392-.563.008-.266-.3-.572-.416-.683-.013.177-.058.618-.2.693a.761.761,0,0,0-.1.064.227.227,0,0,1-.325,0,.175.175,0,0,1-.065-.129.675.675,0,0,1,.194-.383c0-.006.517-.53.488-.821a2.482,2.482,0,0,0-.046-.315,1.489,1.489,0,0,0-.4.335c-.08.2-.263.583-.463.448-.166-.19.1-.52.115-.534.076-.086.181-.231.174-.285a1.459,1.459,0,0,0-.445-.619,1.3,1.3,0,0,1-.066-.351.683.683,0,0,0-.154.324c0,.054,0,.129,0,.217a4.325,4.325,0,0,0,.01.536c.007.07,0,.113-.021.137a.111.111,0,0,1-.043.019c-.076,0-.192-.166-.238-.238l.045-1.052h0a2.8,2.8,0,0,0-.741-.58.907.907,0,0,1,.115.438,2.831,2.831,0,0,0-.192.535,1.676,1.676,0,0,0,.423.725,1.587,1.587,0,0,1,.208.193.033.033,0,0,1,0,.044.033.033,0,0,1-.044,0,1.882,1.882,0,0,1-.211-.2,1.824,1.824,0,0,0-1.076-.338,2.107,2.107,0,0,1-.248-.025c.135.188.388.583.348.719-.018.056.254.23.58.372l.668.008c.054.031.365.257.4.419a.121.121,0,0,1-.009.054c-.036.044-.139-.01-.3-.106a1.156,1.156,0,0,0-.405-.187l-.048-.032v.033a5.6,5.6,0,0,1-.607-.059c.1.1.266.289.274.394a.733.733,0,0,0,.325.5,3.254,3.254,0,0,0,.7.111.331.331,0,0,1,.171-.057.118.118,0,0,1,.123.092c.048.17-.278.285-.315.3a.971.971,0,0,1-.488-.1.532.532,0,0,1-.066-.068c-.074-.085-.159-.181-.513-.23a1.408,1.408,0,0,0,.268.8,2.687,2.687,0,0,1,.521-.032c.446,0,.719.049.81.145a.129.129,0,0,1,.038.1c0,.112-.118.17-.341.17a2.4,2.4,0,0,1-.841-.173c.023.154.122.545.3.644a1.09,1.09,0,0,0,.473.083,1.706,1.706,0,0,0,.423-.043.457.457,0,0,1,.166-.028c.136,0,.214.055.214.152,0,.2-1.23.278-1.321.278h-.027a.806.806,0,0,0,.654.424,1.676,1.676,0,0,0,.8-.191.658.658,0,0,1,.175-.021c.136,0,.213.038.23.112a.105.105,0,0,1-.016.084c-.067.1-.308.147-.335.152,0,0-.218.006-.436.006a3.634,3.634,0,0,1-.411-.014.855.855,0,0,0,.735.459.647.647,0,0,0,.488-.2.234.234,0,0,1,.085-.066,1.769,1.769,0,0,1,.343-.029Zm-1.617-.226c.062.006.17.011.377.011s.429,0,.429,0c.062-.011.244-.057.288-.124-.005-.085-.1-.093-.16-.093a.941.941,0,0,0-.151.014,1.542,1.542,0,0,1-.776.2Z"/><path d="M16.8,26.677a.034.034,0,0,1-.028-.016.742.742,0,0,1-.149-.585.355.355,0,0,1,.175-.217.033.033,0,1,1,.026.06.287.287,0,0,0-.139.177.684.684,0,0,0,.142.53.033.033,0,0,1-.01.045.027.027,0,0,1-.017.006Zm-3.641-2.32a.415.415,0,0,1-.277-.08.032.032,0,0,1,0-.046.031.031,0,0,1,.045,0s.2.167.666-.047a.031.031,0,0,1,.043.016.033.033,0,0,1-.016.044,1.114,1.114,0,0,1-.458.116Zm-.513-.622a.64.64,0,0,1-.281-.06.046.046,0,0,1-.042-.038c0-.018,0-.037.023-.037s.041.013.044.014c.084.037.338.15.843-.124a.033.033,0,0,1,.031.059,1.311,1.311,0,0,1-.618.186Zm2.027-.008a.627.627,0,0,1-.111-.01.033.033,0,0,1,.012-.065c.482.085.677-.471.685-.5a.031.031,0,0,1,.041-.02.032.032,0,0,1,.02.041c0,.006-.189.549-.647.549Zm-.369-.557a.032.032,0,0,1-.032-.032.032.032,0,0,1,.031-.034c.235-.009.334-.485.335-.49a.033.033,0,0,1,.064.014c-.005.021-.111.531-.4.542Zm-1.894-.185a.678.678,0,0,1-.547-.21.032.032,0,0,1,.006-.046.031.031,0,0,1,.045.006c.009.012.241.3.849.133a.033.033,0,0,1,.017.064,1.429,1.429,0,0,1-.37.053Zm1.325-.528a.031.031,0,0,1-.031-.027.032.032,0,0,1,.026-.038c.2-.037.3-.332.3-.37,0-.018,0-.048.034-.032a.031.031,0,0,1,.031.032c0,.051-.106.39-.352.434Zm-1.67-.368a.987.987,0,0,1-.708-.272.033.033,0,0,1,0-.046.032.032,0,0,1,.046,0,.975.975,0,0,0,.835.238.033.033,0,1,1,.009.065,1.19,1.19,0,0,1-.183.014Zm1.219-.447c-.023,0-.048-.011-.048-.034s.02-.05.033-.033a.388.388,0,0,0,.3-.106.594.594,0,0,0,.11-.429l.031-.02.034.016a.655.655,0,0,1-.128.479.445.445,0,0,1-.337.127Zm-1.134-.432a2.609,2.609,0,0,1-.929-.389.034.034,0,0,1-.01-.046.032.032,0,0,1,.045-.01,2.494,2.494,0,0,0,.923.377.037.037,0,0,1,.036.03.033.033,0,0,1-.029.036l-.036,0Zm.67-.683h-.03a.032.032,0,0,1-.031-.034c0-.018,0-.028.034-.031a.6.6,0,0,0,.527-.362.032.032,0,1,1,.06.024.659.659,0,0,1-.56.4Zm-1.064-.35a.994.994,0,0,1-.74-.233.458.458,0,0,1-.134-.331c0-.017.021-.028.034-.03a.033.033,0,0,1,.03.035.4.4,0,0,0,.118.281,1.038,1.038,0,0,0,.793.21c.012-.005.032.013.033.032a.032.032,0,0,1-.031.034c-.035,0-.069,0-.1,0ZM12.378,20a.033.033,0,0,1-.031-.023.033.033,0,0,1,.021-.041.407.407,0,0,0,.28-.236.549.549,0,0,0-.073-.406.032.032,0,1,1,.054-.036.607.607,0,0,1,.08.464.467.467,0,0,1-.321.277Zm-.335-.185a.041.041,0,0,1-.017,0c-.5-.307-.483-1.279-.482-1.321,0-.018.016-.023.033-.032a.034.034,0,0,1,.032.034c0,.009-.014.976.451,1.262a.035.035,0,0,1,.011.046.033.033,0,0,1-.028.016Z"/><path class="cls-5" d="M24.265,20.815a2.734,2.734,0,0,1,.407.47c.008.081.1.463.207.519a2.3,2.3,0,0,1,.566.52c.056.129.414.681.414.681s.335.7.559.754.853-.041.98.268a1.986,1.986,0,0,1,.1.754s-.151.138-.223.056-.2.406-.423.268a1.087,1.087,0,0,0-1.1-.551s.174-.276-.535-.519a1.312,1.312,0,0,1-1.436-.982l-.63-.556Z"/><path d="M26.927,25.163a.187.187,0,0,1-.1-.029,1,1,0,0,0-.957-.553,1.079,1.079,0,0,0-.121.006l-.068.009.036-.059a.147.147,0,0,0,0-.121c-.032-.089-.148-.222-.521-.35a1.008,1.008,0,0,1-.23.024c-.929,0-1.223-1.018-1.226-1.028l-.621-.54,1.134-1.758.028.027a2.232,2.232,0,0,1,.416.491,1.11,1.11,0,0,0,.19.494,2.29,2.29,0,0,1,.581.534c.054.126.408.671.411.676.094.194.368.7.54.741a1.405,1.405,0,0,0,.262.023c.286.011.641.024.74.264a2.018,2.018,0,0,1,.1.769c-.03.044-.206.162-.28.076,0,.007-.037.055-.061.089-.061.091-.144.215-.259.215Zm-.048-.072c.01,0,.029.006.048.006.081,0,.15-.1.206-.186.045-.067.078-.116.12-.116l.042.02a.226.226,0,0,0,.177-.058,2.313,2.313,0,0,0-.1-.717c-.084-.2-.416-.214-.683-.224a1.488,1.488,0,0,1-.276-.025c-.232-.059-.545-.7-.58-.772-.012-.019-.359-.551-.415-.682a2.3,2.3,0,0,0-.552-.5c-.126-.069-.218-.483-.223-.545a2.355,2.355,0,0,0-.369-.422l-1.1,1.649.626.513c.013.028.344,1.159,1.408.975.337.111.527.243.578.394a.226.226,0,0,1,.01.12,1.077,1.077,0,0,1,1.081.574Z"/><polygon class="cls-5" points="23.627 22.485 24.121 22.72 24.082 22.291 23.627 22.485"/><polygon points="24.159 22.775 23.614 22.515 23.641 22.456 24.084 22.666 24.05 22.294 24.114 22.288 24.159 22.775 24.159 22.775"/><polygon class="cls-5" points="24.329 22.42 24.784 22.648 24.6 22.275 24.329 22.42"/><polygon points="24.855 22.72 24.315 22.45 24.343 22.391 24.712 22.575 24.571 22.29 24.629 22.26 24.855 22.72 24.855 22.72"/><polygon class="cls-5" points="24.304 21.812 24.751 22.056 24.544 21.585 24.304 21.812"/><polygon points="24.82 22.13 24.289 21.842 24.32 21.784 24.683 21.981 24.515 21.599 24.574 21.572 24.82 22.13 24.82 22.13"/><path class="cls-5" d="M25.015,24.043s-.511-.682-.5-.682.869.171.869.171l-.318-.7.788.211Z"/><path d="M24.989,24.063c-.518-.691-.518-.691-.506-.716.032-.018.04-.019.842.14l-.321-.7.856.229-.017.064-.722-.193.316.693-.062-.013-.791-.156c.092.126.3.413.456.615l-.051.04Z"/><path class="cls-5" d="M26.481,24.149s.5.113.486.964Z"/><path d="M27,25.114h-.065c.016-.812-.441-.928-.461-.932l.014-.065c.022,0,.529.13.512,1Z"/><path class="cls-5" d="M26.745,24.018s.542-.032.509.828Z"/><path d="M27.287,24.848l-.065,0a.876.876,0,0,0-.183-.668.416.416,0,0,0-.292-.126l0-.066a.475.475,0,0,1,.34.143.939.939,0,0,1,.2.72Z"/><path class="cls-5" d="M17.394,20.92a2.706,2.706,0,0,0-.406.471,1.059,1.059,0,0,1-.273.469,2.242,2.242,0,0,0-.517.552c-.056.13-.4.7-.4.7s-.393.58-.616.637c-.273.023-.795.077-.923.385s.07.78.218.78c.224.1.326.205.4.124.121.037.053.142.276,0-.17-.221-.152-.435.018-.491s.446.2.446.2a1.129,1.129,0,0,1,.811-.722A1.242,1.242,0,0,0,17.91,23.1c.174-.241.447-.306.669-.458Z"/><path d="M15,25.142a.1.1,0,0,1-.071-.035.119.119,0,0,0-.061-.039c.01.017-.018.03-.051.03a.443.443,0,0,1-.185-.072c-.046-.025-.1-.055-.165-.084a.221.221,0,0,1-.147-.117.85.85,0,0,1-.088-.706c.14-.337.708-.385.951-.405.167-.043.484-.464.592-.623,0,0,.34-.566.394-.692a2.247,2.247,0,0,1,.531-.568,1.033,1.033,0,0,0,.256-.443,2.242,2.242,0,0,1,.417-.492l.027-.026,1.225,1.779-.027.019a2.129,2.129,0,0,1-.237.135,1.1,1.1,0,0,0-.424.316,1.245,1.245,0,0,1-1.212.973h0a1.749,1.749,0,0,1-.3-.028,1.1,1.1,0,0,0-.773.7l-.012.057-.042-.04s-.217-.2-.37-.2c-.1.025-.135.062-.15.113a.4.4,0,0,0,.1.333l.023.03-.031.019a.377.377,0,0,1-.17.074Zm-.114-.137a.187.187,0,0,1,.088.054l.026.017a.276.276,0,0,0,.1-.046.441.441,0,0,1-.092-.363.222.222,0,0,1,.148-.15c.133-.047.354.105.44.178a1.215,1.215,0,0,1,.816-.7,2.186,2.186,0,0,0,.307.026h0a1.2,1.2,0,0,0,1.15-.923,1.119,1.119,0,0,1,.457-.359c.069-.035.137-.071.2-.112l-1.144-1.661a2.3,2.3,0,0,0-.369.423,1.063,1.063,0,0,1-.29.494,2.259,2.259,0,0,0-.5.538c-.056.13-.386.678-.4.7s-.4.592-.636.651c-.236.021-.777.067-.9.367a.771.771,0,0,0,.082.643c.037.057.077.091.106.091.08.033.135.063.183.088a.437.437,0,0,0,.154.065l.013-.015.056-.012Z"/><path d="M14.84,25.058a.033.033,0,0,1-.031-.023.8.8,0,0,1,.025-.658.589.589,0,0,1,.371-.265.031.031,0,0,1,.038.026.034.034,0,0,1-.026.039.532.532,0,0,0-.328.235.743.743,0,0,0-.018.6.033.033,0,0,1-.021.041Zm1.824-.985a.032.032,0,0,1-.014,0,.032.032,0,0,1-.015-.044,5.454,5.454,0,0,1,.385-.547l.032-.042c-.2.042-.729.154-.729.154a.035.035,0,0,1-.031-.011.035.035,0,0,1-.006-.034l.24-.632-.644.131a.033.033,0,0,1-.013-.065l.7-.142a.031.031,0,0,1,.031.011.033.033,0,0,1,.006.033l-.24.632c.748-.159.756-.159.76-.159.039.039.039.039-.057.164a5.88,5.88,0,0,0-.378.536.032.032,0,0,1-.029.018Zm.874-1.273a.031.031,0,0,1-.018,0,.034.034,0,0,1-.014-.031l.039-.371a.034.034,0,0,1,.036-.029.033.033,0,0,1,.029.036l-.033.309.459-.246a.032.032,0,0,1,.044.014.034.034,0,0,1-.014.045l-.513.275-.015,0Zm-.652-.122a.032.032,0,0,1-.024-.011.032.032,0,0,1,0-.039l.222-.383a.033.033,0,0,1,.045-.012.034.034,0,0,1,.011.045l-.17.293.389-.183a.031.031,0,0,1,.043.016.033.033,0,0,1-.016.044l-.483.227-.013,0Zm.08-.642a.029.029,0,0,1-.023-.01.032.032,0,0,1-.006-.037l.149-.312a.031.031,0,0,1,.043-.016.033.033,0,0,1,.015.044l-.111.233.338-.149a.031.031,0,0,1,.042.018.032.032,0,0,1-.016.043l-.418.183-.013,0Z"/><path d="M14.481,24.91a.793.793,0,0,1,.054-.689.565.565,0,0,1,.412-.214l0,.066a.509.509,0,0,0-.362.188.73.73,0,0,0-.043.631l-.063.018Z"/><path d="M23.609,25.47a.04.04,0,0,1-.039-.032c0-.013-.357-1.406-1.536-1.3a.037.037,0,0,1-.043-.035.042.042,0,0,1,.031-.047.317.317,0,0,0,.237-.166.65.65,0,0,0-.008-.447l.036-.017,0-.043c.014,0,.058-.006.088.215a.463.463,0,0,1-.143.456c1.089.064,1.416,1.356,1.419,1.37a.039.039,0,0,1-.029.049l-.01,0Z"/><path d="M20.237,27.522a.032.032,0,0,1-.032-.032c0-.094-.1-2.306.366-2.685a.281.281,0,0,1,.084-.047.255.255,0,0,1-.044-.043.032.032,0,0,1-.034,0l-.042-.024a.2.2,0,0,0-.179,0c-.5.247-.722,2.389-.724,2.411a.033.033,0,0,1-.035.03.034.034,0,0,1-.029-.037c.009-.09.228-2.2.76-2.463a.262.262,0,0,1,.092-.027.576.576,0,0,1-.1-.126.042.042,0,0,1-.02,0l-.014,0-.006,0a4.3,4.3,0,0,0-1.217,2.138.036.036,0,0,1-.036.028A.033.033,0,0,1,19,26.617a4.218,4.218,0,0,1,1.211-2.149.48.48,0,0,1-.148-.067c-.153.1-1.32.9-1.4,1.9a.031.031,0,0,1-.035.03.034.034,0,0,1-.03-.036,3.122,3.122,0,0,1,1.419-1.932.387.387,0,0,1-.057-.076h0a.048.048,0,0,1-.025.009.293.293,0,0,1-.145-.046h0c-.015.009-1.47.881-1.406,1.651a.034.034,0,0,1-.03.036.033.033,0,0,1-.035-.03c-.064-.772,1.239-1.592,1.42-1.7l-.011-.014a.237.237,0,0,1-.03-.047.04.04,0,0,1-.025.009.332.332,0,0,1-.238-.1l-.011,0a1.84,1.84,0,0,0-1.355,1.4.031.031,0,0,1-.039.024A.032.032,0,0,1,18,25.438,1.907,1.907,0,0,1,19.384,24a.873.873,0,0,1-.048-.568c0-.036.065-.037.065,0l0,.014a.758.758,0,0,0,.057.544.261.261,0,0,0,.21.1.855.855,0,0,1-.009-.4c0-.037.066-.045.066-.009l0,.02a.574.574,0,0,0,.05.455.206.206,0,0,0,.157.08.649.649,0,0,1,.022-.408.038.038,0,0,1,.043-.018.033.033,0,0,1,.017.043.549.549,0,0,0,0,.409.3.3,0,0,0,.067.079l.011.009a.447.447,0,0,0,.2.077.674.674,0,0,1-.039-.384.033.033,0,1,1,.063.016.545.545,0,0,0,.256.586.7.7,0,0,1,0-.42.031.031,0,0,1,.041-.02.033.033,0,0,1,.02.042.61.61,0,0,0,0,.4.244.244,0,0,0,.158.122H20.8l.012.007a.033.033,0,0,1,.013-.013.363.363,0,0,1,.058-.025c.275-.143.186-.5.182-.517a.034.034,0,0,1,.023-.04.033.033,0,0,1,.04.024.59.59,0,0,1-.118.522.26.26,0,0,1,.085.035c.493.319.393,2.641.389,2.74,0,.018-.019.037-.034.032a.033.033,0,0,1-.031-.035c0-.024.1-2.382-.359-2.681a.17.17,0,0,0-.152-.019.491.491,0,0,1-.057.025.032.032,0,0,1-.032-.006.031.031,0,0,1-.036.015h-.005a.182.182,0,0,0-.167.037c-.441.358-.343,2.607-.342,2.63a.033.033,0,0,1-.031.035Zm1.884-.421a.033.033,0,0,1-.032-.03c0-.023-.236-2.378-.922-2.451a.034.034,0,0,1-.029-.029.033.033,0,0,1,.022-.035.282.282,0,0,0,.188-.158.458.458,0,0,0-.033-.325.033.033,0,0,1,.014-.044.032.032,0,0,1,.044.014.523.523,0,0,1,.04.367l0,0,.015.015.012-.006.028-.007c.273-.075.263-.39.232-.574,0-.036.061-.054.062-.02a.836.836,0,0,1-.014.405.555.555,0,0,0,.223-.588A.033.033,0,0,1,22,23.6a.032.032,0,0,1,.04.023.64.64,0,0,1-.2.625A2.318,2.318,0,0,1,23.376,25.9a.032.032,0,1,1-.063.014,2.237,2.237,0,0,0-1.562-1.623.031.031,0,0,1-.021-.016.368.368,0,0,1-.1.131c.754.083,1.457,1.8,1.489,1.883a.033.033,0,0,1-.018.043.031.031,0,0,1-.042-.018c-.008-.02-.817-2-1.572-1.836h0A4.026,4.026,0,0,1,22.7,26.615a.032.032,0,0,1-.032.032h0a.033.033,0,0,1-.033-.033c.008-.853-1.12-2.011-1.25-2.142a.321.321,0,0,1-.113.106c.661.261.874,2.392.883,2.487a.033.033,0,0,1-.029.036Z"/><path d="M20.831,24.347l-.013-.006a6.87,6.87,0,0,1-3.775-8.075l.012-.039.035.02a4.609,4.609,0,0,0,1.762.567h.059a7.012,7.012,0,0,0,1.907-.535,4.073,4.073,0,0,0,1.865.5,9.344,9.344,0,0,0,1.974-.535l.036-.014.007.038a7.117,7.117,0,0,1-3.855,8.072l-.014.006Zm-3.737-8.023a6.8,6.8,0,0,0,3.737,7.951,7.05,7.05,0,0,0,3.813-7.955,9.03,9.03,0,0,1-1.955.525,3.915,3.915,0,0,1-1.874-.508,6.317,6.317,0,0,1-1.9.541l-.062,0a4.462,4.462,0,0,1-1.758-.556Z"/><path class="cls-9" d="M17.074,16.276a4.47,4.47,0,0,0,1.838.569,6.957,6.957,0,0,0,1.919-.537,3.837,3.837,0,0,0,1.855.5,9.22,9.22,0,0,0,1.982-.537,7.093,7.093,0,0,1-3.837,8.035,6.846,6.846,0,0,1-3.757-8.035Z"/><path d="M20.831,24.356l-.017-.007a6.878,6.878,0,0,1-3.779-8.085l.015-.049.044.025a4.618,4.618,0,0,0,1.758.566l.059,0a6.989,6.989,0,0,0,1.9-.533,4.235,4.235,0,0,0,1.867.5,9.266,9.266,0,0,0,1.972-.535l.045-.018.009.049a7.123,7.123,0,0,1-3.86,8.08l-.017.008ZM17.1,16.336a6.8,6.8,0,0,0,3.732,7.93,7.04,7.04,0,0,0,3.807-7.934,9.074,9.074,0,0,1-1.948.521,3.773,3.773,0,0,1-1.879-.509,6.081,6.081,0,0,1-1.9.543h-.062a4.441,4.441,0,0,1-1.753-.552Z"/><path class="cls-10" d="M17.074,16.276a5.906,5.906,0,0,0,.632.3,3.171,3.171,0,0,0,1.206.272,6.957,6.957,0,0,0,1.919-.537,3.837,3.837,0,0,0,1.855.5,9.22,9.22,0,0,0,1.982-.537,6.873,6.873,0,0,1,.1,2.537l-7.912-.047a5.262,5.262,0,0,1,.214-2.49Z"/><path d="M24.807,18.855h-.035l-7.948-.048,0-.037a5.278,5.278,0,0,1,.215-2.506l.014-.05.045.026a6.109,6.109,0,0,0,.627.3,3.216,3.216,0,0,0,1.131.271l.059,0a6.989,6.989,0,0,0,1.9-.533,4.235,4.235,0,0,0,1.867.5,9.247,9.247,0,0,0,1.972-.535l.046-.018.008.05a6.9,6.9,0,0,1,.1,2.55l-.005.036Zm-7.91-.13,7.84.047a6.735,6.735,0,0,0-.1-2.44,9,9,0,0,1-1.946.521,3.773,3.773,0,0,1-1.879-.509,6.081,6.081,0,0,1-1.9.543h-.062a3.238,3.238,0,0,1-1.161-.277,6.222,6.222,0,0,1-.592-.275,5.138,5.138,0,0,0-.2,2.389Z"/><polygon class="cls-11" points="17.357 18.805 17.352 20.707 17.873 21.659 17.868 18.805 17.357 18.805"/><polygon class="cls-11" points="18.666 18.812 18.672 22.733 19.185 23.207 19.179 18.812 18.666 18.812"/><polygon class="cls-11" points="19.952 18.827 19.952 23.823 20.468 24.109 20.464 18.827 19.952 18.827"/><polygon class="cls-11" points="24.378 18.848 24.389 20.476 23.904 21.475 23.867 18.848 24.378 18.848"/><polygon class="cls-11" points="23.11 18.836 23.093 22.617 22.593 23.098 22.599 18.836 23.11 18.836"/><polygon class="cls-11" points="21.777 18.832 21.783 23.762 21.26 24.091 21.266 18.832 21.777 18.832"/><path d="M20.831,24.347l-.013-.006a6.87,6.87,0,0,1-3.775-8.075l.012-.039.035.02a4.609,4.609,0,0,0,1.762.567h.059a7.012,7.012,0,0,0,1.907-.535,4.073,4.073,0,0,0,1.865.5,9.344,9.344,0,0,0,1.974-.535l.036-.014.007.038a7.117,7.117,0,0,1-3.855,8.072l-.014.006Zm-3.737-8.023a6.8,6.8,0,0,0,3.737,7.951,7.05,7.05,0,0,0,3.813-7.955,9.03,9.03,0,0,1-1.955.525,3.915,3.915,0,0,1-1.874-.508,6.317,6.317,0,0,1-1.9.541l-.062,0a4.462,4.462,0,0,1-1.758-.556Z"/></g></g></svg>