<svg id="Layer_1" data-name="Layer 1" xmlns="http://www.w3.org/2000/svg" xmlns:xlink="http://www.w3.org/1999/xlink" viewBox="0 0 40 40"><defs><style>.cls-1{fill:none;}.cls-2{clip-path:url(#clip-path);}.cls-3{fill:#2f3e98;}.cls-4{fill:#bc1f34;}.cls-5{fill:#e5e8eb;}.cls-6{fill:#f3d02f;}.cls-7{clip-path:url(#clip-path-2);}</style><clipPath id="clip-path"><rect class="cls-1" x="1.42" y="8.974" width="37.16" height="22.052" rx="4"/></clipPath><clipPath id="clip-path-2"><rect class="cls-1" x="1.42" y="8.974" width="37.16" height="22.052"/></clipPath></defs><g class="cls-2"><rect class="cls-3" x="1.42" y="8.974" width="37.16" height="11.026"/><rect class="cls-4" x="1.42" y="20" width="37.16" height="11.026"/><polygon class="cls-5" points="1.42 8.974 1.42 31.026 20.287 20 1.42 8.974"/><polygon class="cls-6" points="3.969 28.904 3.13 28.406 2.413 29.072 2.619 28.107 1.775 27.619 2.741 27.52 2.936 26.552 3.327 27.457 4.292 27.347 3.568 28.004 3.969 28.904"/><path class="cls-6" d="M6.511,18.005,5.8,16.771,5.4,16.724l.966,1.4Zm-.549.564L4.478,17.407l-.053-.676.6-.021,1.228,1.527Zm-.225.266-1.222-.7-.052-.411,1.387.964Z"/><path class="cls-6" d="M8.258,17.751l.369-1.378-.252-.327-.3,1.681Zm-.78,0L7.25,15.858l.436-.513.437.42-.209,1.962Zm-.345.023L6.768,16.4l.253-.327.3,1.682Z"/><path class="cls-6" d="M9.674,18.861l1.231-.686.057-.411-1.4.946Zm-.541-.572,1.181-1.479.666-.036,0,.61L9.452,18.592Zm-.255-.236L9.6,16.829l.406-.042-.984,1.385Z"/><path class="cls-6" d="M9.893,20.588l1.354.375.322-.256L9.916,20.4Zm0-.8,1.859-.23.5.444-.413.443-1.929-.213Zm-.023-.349,1.355-.372.321.257-1.653.3Z"/><path class="cls-6" d="M8.862,21.991l.712,1.23.406.045-.973-1.392Zm.546-.567,1.49,1.154.056.677-.6.024L9.12,21.757Zm.224-.267,1.225.7.053.413-1.39-.958Z"/><path class="cls-6" d="M7.121,22.254l-.359,1.38.254.326.289-1.684Zm.781-.005.24,1.89-.433.516-.439-.417.2-1.963Zm.344-.026L8.621,23.6l-.251.329-.308-1.68Z"/><path class="cls-6" d="M5.708,21.172l-1.219.7-.05.413,1.383-.969Zm.55.563L5.1,23.234l-.666.047-.014-.611,1.513-1.233Zm.259.232-.7,1.236-.406.048.962-1.4Z"/><path class="cls-6" d="M5.467,19.429l-1.356-.365-.32.258,1.654.294Zm0,.794-1.858.244-.507-.44.411-.447,1.929.2Zm.025.35-1.352.381L3.821,20.7l1.651-.313Z"/><g class="cls-7"><path class="cls-6" d="M7.682,17.675A2.326,2.326,0,1,1,5.4,20a2.307,2.307,0,0,1,2.286-2.325"/><polygon class="cls-6" points="15.549 20.798 16.123 20.001 15.548 19.206 16.469 19.515 17.035 18.712 17.031 19.7 17.956 19.999 17.031 20.3 17.038 21.288 16.471 20.486 15.549 20.798"/><polygon class="cls-6" points="3.969 10.854 3.13 11.352 2.413 10.686 2.619 11.652 1.775 12.14 2.741 12.239 2.936 13.206 3.327 12.302 4.292 12.412 3.568 11.754 3.969 10.854"/></g></g></svg>