<svg id="Layer_1" data-name="Layer 1" xmlns="http://www.w3.org/2000/svg" xmlns:xlink="http://www.w3.org/1999/xlink" viewBox="0 0 40 40"><defs><style>.cls-1{fill:none;}.cls-2{clip-path:url(#clip-path);}.cls-3{fill:#273b8c;}.cls-4{fill:#e5e8eb;}.cls-5{fill:#bc1f34;}.cls-6{fill:#f3d02f;}</style><clipPath id="clip-path"><rect id="SVGID" class="cls-1" x="1.363" y="9.034" width="37.273" height="21.932" rx="4"/></clipPath></defs><g class="cls-2"><rect class="cls-3" x="1.363" y="9.034" width="37.273" height="21.932"/><rect class="cls-4" x="1.363" y="20" width="37.273" height="5.483"/><rect class="cls-5" x="1.363" y="21.828" width="37.273" height="1.828"/><polygon class="cls-6" points="15.224 16.162 14.98 16.919 14.191 16.919 14.829 17.388 14.586 18.145 15.224 17.677 15.863 18.145 15.619 17.388 16.258 16.919 15.469 16.919 15.224 16.162"/><polygon class="cls-6" points="12.03 17.209 11.785 17.966 10.996 17.966 11.634 18.435 11.391 19.192 12.03 18.724 12.668 19.192 12.424 18.435 13.064 17.966 12.274 17.966 12.03 17.209"/><polygon class="cls-6" points="10.055 19.951 9.811 20.708 9.021 20.708 9.66 21.176 9.416 21.934 10.055 21.465 10.694 21.934 10.449 21.176 11.088 20.708 10.299 20.708 10.055 19.951"/><polygon class="cls-6" points="10.055 23.34 9.811 24.097 9.021 24.097 9.66 24.565 9.416 25.323 10.055 24.855 10.694 25.323 10.449 24.565 11.088 24.097 10.299 24.097 10.055 23.34"/><polygon class="cls-6" points="12.03 26.081 11.785 26.839 10.996 26.839 11.634 27.307 11.391 28.065 12.03 27.597 12.668 28.065 12.424 27.307 13.064 26.839 12.274 26.839 12.03 26.081"/><polygon class="cls-6" points="15.224 27.128 14.98 27.886 14.191 27.886 14.829 28.354 14.586 29.111 15.224 28.643 15.863 29.111 15.619 28.354 16.258 27.886 15.469 27.886 15.224 27.128"/><polygon class="cls-6" points="18.419 26.081 18.175 26.839 17.385 26.839 18.024 27.307 17.78 28.065 18.419 27.597 19.058 28.065 18.814 27.307 19.453 26.839 18.663 26.839 18.419 26.081"/><polygon class="cls-6" points="20.394 19.951 20.15 20.708 19.36 20.708 19.999 21.176 19.755 21.934 20.394 21.465 21.033 21.934 20.789 21.176 21.428 20.708 20.638 20.708 20.394 19.951"/><polygon class="cls-6" points="20.394 23.34 20.15 24.097 19.36 24.097 19.999 24.565 19.755 25.323 20.394 24.855 21.033 25.323 20.789 24.565 21.428 24.097 20.638 24.097 20.394 23.34"/><polygon class="cls-6" points="18.419 17.209 18.175 17.966 17.385 17.966 18.024 18.435 17.78 19.192 18.419 18.724 19.058 19.192 18.814 18.435 19.453 17.966 18.663 17.966 18.419 17.209"/></g></svg>