<?xml version="1.0" encoding="UTF-8"?><svg id="Layer_1" xmlns="http://www.w3.org/2000/svg" viewBox="0 0 40 40"><g><path d="m28.66,14.503l-.288-.227-.208.453-.162-.371s-.124-.123-.33.021c-.139.096-.263.281-.331.396.161.087.355.171.553.251l.73-.46.036-.063Z" fill="#edac00"/><path d="m27.595,15.188c.008.004.014.009.022.013l.007-.004c-.009-.002-.019-.007-.029-.009Z" fill="#edac00"/><path d="m6.868,28.262s.027-.012.068-.032l.521-.328c.03-.025.063-.047.09-.073.247-.248.886-.741,1.298-.804.003,0,.005-.002.008-.002l.755-.475c.014-.012.026-.025.04-.037,0,0-.474.164-.927.247-.453.082-.516.185-.824.412-.31.227-.516,0-.516,0,0,0,.33-.062.598-.412.268-.35.742-.494,1.03-.494s.804-.206.989-.434c.185-.227.433-.227.433-.227,0,0-.35.021-.722.082-.371.062-.535-.123-.803.103-.268.228.124-.247.453-.309.33-.062.722-.186,1.01-.288.288-.104.494-.227.494-.227,0,0-.598-.289-.886-.165-.288.123-.371-.124-.639-.186-.268-.062-.576.041-.576.041,0,0,.227-.371.598-.33.371.042.845-.081,1.298.042.453.124.947.145,1.174.124.227-.021,1.092-.228,1.4-.329.309-.104.557-.577.557-.577,0,0-.33-.021-.474-.206,0,0,.268-.041.474-.206.206-.164.411-.309.494-.247.082.062-.248-.494.123-.556,0,0-.031-.567.164-.693-.213.068-.809.228-1.112-.007,0,0,.434,0,.618-.206.186-.206.268-.514.721-.514,0,0-.144-.806.392-.949,0,0-.103-.432.123-.514,0,0-.597-.165-.782-.062,0,0,.535-.618,1.092-.453.556.165.082-.392.659-.329.576.061.186-.64.968-.475,0,0-.207-.267-.351-.535-.145-.269.577-.104,1.01.186.433.288.927.041,1.422.103.494.062.062-.351.062-.351l1.009.453s.864.494,1.338.371c.475-.124-.433-.145-.433-.145,0,0,.661-.226.722-.205.063.021-.329-.393-.123-.763,0,0-.701-.268-.516-.7,0,0-.413-.021-.576.145-.166.165-.289.494-.289.494,0,0-.082-.412.186-.741.267-.33.164-.556.164-.556,0,0-.577.083-.741.35,0,0,.412-.783.844-.886,0,0-.02-.762.392-1.174,0,0-1.009-.247-1.37-.124-.361.124-.649.289-.649.289,0,0,.185-.536.68-.536s1.092-.206,1.607-.062c.516.144-.68-.393.144-.33,0,0-.309-.454.536-.062.844.393.72-.082.411-.205-.309-.124-1.422-.412-1.71-.33-.289.082-.423.407.02.535,0,0-.391.165-.597-.123-.205-.288.268-.885.886-.823.619.062,1.258.33,1.258.33,0,0,1.401.186.823-.124-.577-.309-.946-.598-1.277-.474-.329.124.206-.453,1.422.268,0,0,.597-.042.042-.248-.557-.206-1.258-.412-1.566-.392s-.453-.165.103-.227c.557-.062,1.215.021,1.833.392s1.092.412.618,0c-.474-.412-1.051-.576-1.051-.576,0,0,.267-.138.597-.114-.265-.084-.579-.164-.782-.154-.412.021.248-.453,1.298.042,1.052.493.824.679,1.258.823.432.144,1.503.351,1.956.289.452-.062.72.515,1.297.309s.701.268.969-.186c.268-.454.268-.412.433-.577.164-.165.144-.165.123-.515-.021-.351.206-.33.433-.516.226-.186.309-.392.309-.392,0,0,.205.31-.124.557-.33.247-.33.7-.412.968-.083.268-.392.886-.392.886,0,0,.228-.289.495-.351.267-.062.885.042,1.153-.144,0,0-.009.026-.012.04l4.823-3.039c-.732-.805-1.777-1.32-2.951-1.32H6c-2.209,0-4,1.791-4,4v16c0,1.035.404,1.969,1.049,2.68l3.831-2.414s-.008-.001-.012-.004Z" fill="#edac00"/><path d="m30.898,13.134l.705-.444c-.168.036-.338.072-.41.124-.084.06-.205.205-.295.32Z" fill="#edac00"/><path d="m26.376,15.736c-.413,0-.701-.103-.865-.062-.165.041-.495.351-.742.351s.371-.433.535-.618c.165-.186-.371.041-.926,0-.557-.041.143-.247.411-.351.267-.103-.622-.165-.622-.165,0,0-.161.454-.161.742,0,0,.69.673,1.279,1.037l1.578-.994c-.05-.031-.106-.072-.152-.094-.11.09-.226.153-.335.153Z" fill="#edac00"/><path d="m16.796,21.257c-.095.278-.149.584-.167.867l2.258-1.423c-.997-.21-1.881-.058-2.091.556Z" fill="#edac00"/></g><g><path d="m37.922,11.223c-.03-.151-.083-.294-.13-.438-.029-.089-.048-.181-.083-.267-.08-.197-.179-.384-.289-.564-.014-.023-.024-.049-.039-.072-.118-.186-.253-.36-.399-.524-.011-.012-.019-.027-.03-.039h-.002s-4.823,3.04-4.823,3.04c-.011.043-.037.128-.132.208-.062.051-.226.087-.393.123l-.705.444c-.065.083-.117.154-.117.154h.33c.186,0,.351-.227.659-.247s1.092.205,1.362.038c0,0-.145.35-.764.329-.618-.021-.864.082-1.112.206-.246.123-1.132.268-1.132.268l-.268.495s.248.309.103.617c-.09.195-.144.411-.175.553.264.04.476.041.63-.1.246-.226-.145-.409-.145-.409,0,0,.598.163.536.431,0,0,.483-.288.004-.556,0,0,.572-.021.572.453,0,0,.433-.021.763.309.33.33.103.495.103.495,0,0-.041-.515-.597-.454-.557.062-.947.268-1.544.247-.181-.006-.465-.092-.789-.203-.004.273-.015.598-.242.76,0,0,.011-.483.009-.841l-.473-.171c-.033.02-.07.038-.092.063-.043.05-.091.107-.138.165.281.221.542.467.447.598-.166.226-.392.72-.763.35-.269-.269-.79-.758-1.202-1.007l-1.578.994c.07.043.139.084.204.117.618.309,1.627.823,2.244.658.618-.163,1.072.032,1.072.032,0,0,.33-1.33,1.421-1.33s.803.659.803.659c0,0,.741.556.741.948s-.824,1.277-1.648,1.277-1.236-.598-1.236-.598c0,0-.865.598-1.689.598l.267.906-.433-.495-.144.701s-.475-.536-.33-.989c0,0-.145.289-.453.269,0,0,.268-.186.289-.618,0,0-.557-.308-.969.104,0,0,.082,1.051-.227,1.689-.309.639-.927,1.154-.947,1.421-.021.268-.123.392-.061.392.061,0,1.4.722,2.162.475.763-.247,1.194-1.422,2.214-.825,0,0-.629.352-.896.876,0,0,1.297-.381,1.297.834,0,0,.536,1.05-.124,1.627-.657.577-1.379.247-1.379.247,0,0-.947-.185-1.359-.844-.411-.658-.02-.844-.02-.844,0,0-1.155-.206-1.752-.433-.598-.226-1.318-.741-1.318-.741l-.351.494-.144-.598s-.392.494-.741.247c0,0,.329-.227.453-.535l-.35-.434.577.228s.33-.372.391-.619c0,0-1.834-.103-3.131-.617-.279-.111-.56-.191-.834-.248l-2.258,1.423c-.032.511.059.941.271.968.329.041.186-.989.598-1.134s1.133.228,1.133.228c0,0-.618,0-.763.639,0,0,1.401-.536,1.504.411,0,0,.617.475.288,1.071-.33.597-1.01.535-1.01.535,0,0-.597.185-.968-.082-.37-.268-.329-.453-.329-.453l-.515-.042s-.165.763-.062,1.071.516.576.536,1.051c0,0,.907-.02,1.277.268.37.287.123,1.441.123,1.441,0,0-.062-.618-.309-.885-.247-.268-.639-.123-.639-.123,0,0,.206.246.247.699.042.453-.185.68-.185.68,0,0,.062.865-.577,1.071s-1.277-.165-1.4-.515c-.124-.351,0-.536,0-.536,0,0-.68-.823-.309-1.257.371-.433.7-.35.7-.35,0,0-.021-.659-.268-.947,0,0-.165-.104-.392.372l-.152-.413-.713.083s.412-.577.7-.453l-.453-.329.721-.062s.021-.638.021-.576c0,.062-.762-.021-1.194.371-.433.392-.68.699-.927.844-.247.144-.639.557-.927.804-.289.247-1.071.186-1.236.536,0,0,.288-.434.536-.475.247-.041.474-.433.474-.433,0,0-.247,0-.618.227-.371.228-.659.577-1.03.475,0,0,.308-.228.432-.494,0,0-.123.144-.432.144s-.227.165-.351.37c-.124.206-.557.186-.722.206-.164.021-.103.452-.617.597-.516.145-.742-.02-1.175.228-.428.244-.636.545-1.039.312l-3.831,2.414h-.002s.006.006.009.009c.172.189.363.36.568.513.012.009.023.021.036.03.191.14.399.257.613.362.035.017.066.039.101.055.194.088.401.149.61.206.061.016.117.042.179.055.25.054.511.081.777.085.019,0,.036.006.055.006h28.009c2.207,0,3.995-1.789,3.995-3.996V11.996c0-.265-.028-.523-.078-.772Z" fill="#e31729"/><path d="m28.961,15.386c.041.011.076.019.113.028l-.003-.045s-.048.007-.11.018Z" fill="#e31729"/><path d="m27.616,15.202c.091.046.177.094.241.146.073.06.22.163.376.281.031-.06.074-.115.138-.157l.04-.029c-.269-.095-.534-.178-.788-.244l-.007.004Z" fill="#e31729"/><path d="m28.624,14.567l-.73.46c.241.097.49.188.724.26.215-.173.435-.371.435-.371l.062-.206-.618.082.128-.225Z" fill="#e31729"/><path d="m8.854,27.022c.38-.06.534-.279.755-.475l-.755.475Z" fill="#e31729"/><path d="m29.341,15.47l.297.057c-.032-.121-.059-.264-.05-.427,0,0-.19.137-.246.37Z" fill="#e31729"/><path d="m6.936,28.23c.112-.053.339-.176.521-.328l-.521.328Z" fill="#e31729"/></g><path d="m30.987,12.463c-.267.062-.495.351-.495.351,0,0,.309-.618.392-.886.082-.268.082-.721.412-.968.329-.247.124-.557.124-.557,0,0-.083.206-.309.392-.227.186-.453.165-.433.516.021.35.041.35-.123.515-.164.165-.164.123-.433.577-.268.453-.392-.021-.969.186s-.845-.371-1.297-.309c-.453.062-1.524-.145-1.956-.289-.433-.145-.206-.33-1.258-.823-1.05-.495-1.71-.021-1.298-.042.203-.01.517.07.782.154-.33-.024-.597.114-.597.114,0,0,.577.164,1.051.576.474.412,0,.371-.618,0s-1.277-.453-1.833-.392c-.556.062-.411.247-.103.227s1.01.186,1.566.392c.555.206-.042.248-.042.248-1.216-.721-1.751-.145-1.422-.268.331-.124.7.165,1.277.474.577.31-.823.124-.823.124,0,0-.639-.268-1.258-.33-.618-.062-1.091.535-.886.823.206.288.597.123.597.123-.443-.128-.309-.453-.02-.535.288-.082,1.401.206,1.71.33.309.123.433.598-.411.205-.845-.392-.536.062-.536.062-.824-.062.371.474-.144.33-.515-.145-1.112.062-1.607.062s-.68.536-.68.536c0,0,.288-.165.649-.289.361-.123,1.37.124,1.37.124-.411.412-.392,1.174-.392,1.174-.432.103-.844.886-.844.886.164-.268.741-.35.741-.35,0,0,.103.227-.164.556-.268.329-.186.741-.186.741,0,0,.123-.329.289-.494.163-.165.576-.145.576-.145-.186.433.516.7.516.7-.206.37.186.783.123.763-.061-.021-.722.205-.722.205,0,0,.908.021.433.145-.474.123-1.338-.371-1.338-.371l-1.009-.453s.433.412-.062.351c-.495-.062-.989.186-1.422-.103-.433-.289-1.154-.454-1.01-.186.144.268.351.535.351.535-.782-.165-.392.535-.968.475-.577-.062-.103.494-.659.329-.557-.165-1.092.453-1.092.453.186-.104.782.062.782.062-.227.082-.123.514-.123.514-.536.143-.392.949-.392.949-.453,0-.535.308-.721.514-.185.206-.618.206-.618.206.303.235.899.074,1.112.007-.195.126-.164.693-.164.693-.371.062-.041.618-.123.556-.083-.062-.288.083-.494.247-.206.165-.474.206-.474.206.144.186.474.206.474.206,0,0-.248.474-.557.577-.309.102-1.174.308-1.4.329-.227.021-.721,0-1.174-.124-.453-.123-.927,0-1.298-.042-.371-.041-.598.33-.598.33,0,0,.309-.103.576-.041.268.062.351.309.639.186.288-.124.886.165.886.165,0,0-.206.123-.494.227-.288.103-.68.226-1.01.288-.329.062-.721.536-.453.309.268-.227.432-.041.803-.103.372-.062.722-.082.722-.082,0,0-.247,0-.433.227-.186.228-.7.434-.989.434s-.762.145-1.03.494c-.268.351-.598.412-.598.412,0,0,.206.227.516,0,.309-.227.371-.33.824-.412.453-.083.927-.247.927-.247-.014.012-.026.025-.04.037-.221.196-.374.415-.755.475-.003,0-.005.002-.008.002-.412.062-1.051.556-1.298.804-.026.026-.06.049-.09.073-.183.152-.409.275-.521.328-.041.02-.068.032-.068.032.004.003.008.001.012.004.402.232.611-.068,1.039-.312.433-.247.659-.083,1.175-.228.515-.145.453-.576.617-.597.165-.02.598,0,.722-.206.124-.205.041-.37.351-.37s.432-.144.432-.144c-.124.267-.432.494-.432.494.371.103.659-.247,1.03-.475.371-.227.618-.227.618-.227,0,0-.227.392-.474.433-.248.041-.536.475-.536.475.165-.351.947-.289,1.236-.536.288-.247.68-.66.927-.804.247-.145.494-.452.927-.844.433-.392,1.194-.309,1.194-.371,0-.062-.021.576-.021.576l-.721.062.453.329c-.288-.124-.7.453-.7.453l.713-.083.152.413c.227-.476.392-.372.392-.372.247.288.268.947.268.947,0,0-.329-.083-.7.35-.371.433.309,1.257.309,1.257,0,0-.124.186,0,.536.123.35.762.721,1.4.515s.577-1.071.577-1.071c0,0,.227-.227.185-.68-.041-.453-.247-.699-.247-.699,0,0,.392-.145.639.123.247.267.309.885.309.885,0,0,.247-1.153-.123-1.441-.37-.287-1.277-.268-1.277-.268-.021-.475-.433-.742-.536-1.051s.062-1.071.062-1.071l.515.042s-.041.186.329.453c.371.267.968.082.968.082,0,0,.68.062,1.01-.535.329-.597-.288-1.071-.288-1.071-.103-.947-1.504-.411-1.504-.411.145-.639.763-.639.763-.639,0,0-.721-.372-1.133-.228s-.268,1.175-.598,1.134c-.212-.027-.303-.457-.271-.968.018-.282.072-.588.167-.867.21-.614,1.094-.766,2.091-.556.274.058.554.137.834.248,1.297.514,3.131.617,3.131.617-.061.247-.391.619-.391.619l-.577-.228.35.434c-.124.309-.453.535-.453.535.35.247.741-.247.741-.247l.144.598.351-.494s.72.515,1.318.741c.597.227,1.752.433,1.752.433,0,0-.392.186.02.844.412.659,1.359.844,1.359.844,0,0,.722.33,1.379-.247.66-.577.124-1.627.124-1.627,0-1.214-1.297-.834-1.297-.834.267-.525.896-.876.896-.876-1.02-.597-1.452.578-2.214.825-.763.247-2.102-.475-2.162-.475-.062,0,.04-.124.061-.392.021-.267.639-.782.947-1.421.31-.639.227-1.689.227-1.689.411-.411.969-.104.969-.104-.021.433-.289.618-.289.618.309.021.453-.269.453-.269-.145.453.33.989.33.989l.144-.701.433.495-.267-.906c.823,0,1.689-.598,1.689-.598,0,0,.412.598,1.236.598s1.648-.886,1.648-1.277-.741-.948-.741-.948c0,0,.288-.659-.803-.659s-1.421,1.33-1.421,1.33c0,0-.454-.196-1.072-.032-.617.165-1.626-.35-2.244-.658-.065-.032-.135-.074-.204-.117-.589-.364-1.279-1.037-1.279-1.037,0-.288.161-.742.161-.742,0,0,.889.062.622.165-.268.103-.968.309-.411.351.555.041,1.091-.186.926,0-.164.185-.782.618-.535.618s.577-.31.742-.351c.164-.041.452.062.865.062.109,0,.225-.063.335-.153.046.022.101.063.152.094.412.249.933.738,1.202,1.007.371.37.597-.124.763-.35.095-.131-.166-.376-.447-.598.047-.058.095-.115.138-.165.022-.026.059-.044.092-.063l.473.171c.003.357-.009.841-.009.841.227-.162.238-.487.242-.76.324.112.608.197.789.203.597.021.988-.186,1.544-.247.556-.062.597.454.597.454,0,0,.227-.165-.103-.495-.329-.33-.763-.309-.763-.309,0-.474-.572-.453-.572-.453.479.268-.004.556-.004.556.062-.268-.536-.431-.536-.431,0,0,.392.184.145.409-.154.141-.366.14-.63.1.031-.142.086-.358.175-.553.145-.309-.103-.617-.103-.617l.268-.495s.886-.145,1.132-.268c.248-.124.494-.228,1.112-.206.619.021.764-.329.764-.329-.27.168-1.053-.058-1.362-.038s-.474.247-.659.247h-.33s.052-.07.117-.154c.09-.115.211-.26.295-.32.072-.052.242-.088.41-.124.167-.036.331-.072.393-.123.094-.079.121-.164.132-.208.003-.013.012-.04.012-.04-.268.186-.886.082-1.153.144Zm-2.616,3.007c-.063.042-.107.097-.138.157-.156-.117-.304-.221-.376-.281-.063-.052-.15-.099-.241-.146-.008-.004-.013-.009-.022-.013.009.002.019.006.029.009.253.066.519.149.788.244l-.04.029Zm.59-.085c.062-.011.11-.018.11-.018l.003.045c-.037-.009-.072-.016-.113-.028Zm.092-.47s-.22.198-.435.371c-.234-.073-.483-.163-.724-.26-.199-.08-.393-.165-.553-.251.068-.115.192-.299.331-.396.206-.144.33-.021.33-.021l.162.371.208-.453.288.227-.036.063-.128.225.618-.082-.062.206Zm.288.555c.056-.233.246-.37.246-.37-.009.163.019.306.05.427l-.297-.057Z" fill="#fff"/></svg>