<?xml version="1.0" encoding="UTF-8"?><svg id="a" xmlns="http://www.w3.org/2000/svg" viewBox="0 0 40 40"><path d="M34,8H6c-2.21,0-4,1.79-4,4V28c0,2.21,1.79,4,4,4h28c2.21,0,4-1.79,4-4V12c0-2.21-1.79-4-4-4ZM13.38,26c-3.34,0-6.04-2.69-6.04-6s2.7-6,6.04-6c2.17,0,4.08,1.15,5.14,2.87-.89-1.02-2.18-1.67-3.64-1.67-2.66,0-4.82,2.15-4.82,4.8s2.16,4.8,4.82,4.8c1.46,0,2.75-.65,3.64-1.67-1.06,1.72-2.97,2.87-5.14,2.87Zm10.56-4.24l-2.09-.67-1.29,1.76v-2.18l-.88-.28-1.2-.39,1.2-.39,.88-.28v-2.18l1.29,1.76,2.09-.67-1.29,1.76,1.29,1.76Z" fill="#e5001e"/><g><path d="M14.885,24.8c-2.667,0-4.829-2.149-4.829-4.8s2.162-4.8,4.829-4.8c1.458,0,2.749,.655,3.634,1.67-1.062-1.719-2.965-2.87-5.143-2.87-3.335,0-6.037,2.687-6.037,6s2.702,6,6.037,6c2.178,0,4.081-1.151,5.143-2.87-.885,1.015-2.176,1.67-3.634,1.67Z" fill="#e3e7ea"/><polygon points="21.852 18.91 20.563 17.147 20.563 19.326 19.675 19.613 18.477 20 19.675 20.387 20.563 20.674 20.563 22.854 21.852 21.09 23.937 21.763 22.649 20 23.937 18.237 21.852 18.91" fill="#e3e7ea"/></g></svg>