<svg id="Layer_1" data-name="Layer 1" xmlns="http://www.w3.org/2000/svg" xmlns:xlink="http://www.w3.org/1999/xlink" viewBox="0 0 40 40"><defs><style>.cls-1{fill:none;}.cls-2{clip-path:url(#clip-path);}.cls-3{fill:#42a04a;}.cls-4{fill:#4993cf;}.cls-5{fill:#e8bf23;}</style><clipPath id="clip-path"><rect class="cls-1" x="1.163" y="8.961" width="37.675" height="22.078" rx="4"/></clipPath></defs><g class="cls-2"><polygon class="cls-3" points="1.163 8.961 1.163 25.725 29.885 8.961 1.163 8.961"/><polygon class="cls-4" points="10.115 31.039 38.837 31.039 38.837 14.274 10.115 31.039"/><polygon class="cls-5" points="38.817 8.961 38.823 8.969 38.837 8.961 38.817 8.961"/><polygon class="cls-5" points="1.163 31.039 1.177 31.031 1.163 31.013 1.163 31.039"/><polygon class="cls-5" points="29.885 8.961 1.163 25.725 1.163 27.429 32.754 8.961 29.885 8.961"/><polygon class="cls-5" points="1.163 31.039 1.163 31.039 1.183 31.039 1.177 31.031 1.163 31.039"/><polygon class="cls-5" points="38.837 8.961 38.823 8.969 38.837 8.987 38.837 8.961"/><polygon class="cls-5" points="7.246 31.039 10.115 31.039 38.837 14.274 38.837 12.57 7.246 31.039"/><polygon points="32.754 8.961 1.163 27.429 1.163 31.013 1.177 31.031 1.183 31.039 7.246 31.039 38.837 12.571 38.837 8.987 38.823 8.969 38.817 8.961 32.754 8.961"/></g></svg>