<svg id="Layer_1" data-name="Layer 1" xmlns="http://www.w3.org/2000/svg" xmlns:xlink="http://www.w3.org/1999/xlink" viewBox="0 0 40 40"><defs><style>.cls-1{fill:none;}.cls-2{clip-path:url(#clip-path);}.cls-3{fill:#6db1dd;}.cls-4{clip-path:url(#clip-path-2);}.cls-5{fill:#e5e8eb;}.cls-6{fill:#c01f3f;}.cls-7{fill:#262d65;}.cls-8{fill:#bc1f34;}.cls-9{fill:#f3edea;}.cls-10{fill:#f4cf2a;}.cls-11{fill:#32783b;}.cls-12{fill:#2d6331;}.cls-13{fill:#a88034;}.cls-14{fill:#294821;}</style><clipPath id="clip-path"><rect id="SVGID" class="cls-1" x="1.363" y="9.034" width="37.273" height="21.932" rx="4"/></clipPath><clipPath id="clip-path-2"><rect id="SVGID-2" data-name="SVGID" class="cls-1" x="1.363" y="9.034" width="37.273" height="21.932"/></clipPath></defs><g class="cls-2"><rect class="cls-3" x="1.363" y="9.034" width="37.273" height="21.932"/><g class="cls-4"><path class="cls-5" d="M25.887,16.007v4.668c.093,2.879,1.527,3.91,3.527,4.757,2.292-1.022,3.456-2.276,3.456-4.757V16.007Z"/><path d="M29.414,25.473l-.014-.006c-2.125-.9-3.46-2.015-3.551-4.79V15.97h7.059v4.705c0,2.332-.975,3.675-3.479,4.791l-.015.007Zm-3.49-9.428v4.63c.089,2.74,1.347,3.807,3.49,4.716,2.46-1.1,3.419-2.424,3.419-4.716v-4.63Z"/><path class="cls-6" d="M25.885,20.6a7.811,7.811,0,0,0,.165,1.357l6.674,0a8.134,8.134,0,0,0,.167-1.353Z"/><path class="cls-6" d="M28.706,18.253l0,6.824c.331.166.752.356.752.356s.281-.184.591-.34l0-6.84Z"/><rect class="cls-7" x="1.363" y="9.034" width="18.677" height="9.42"/><polygon class="cls-5" points="1.363 9.034 1.363 10.087 17.952 18.454 20.04 18.454 20.04 17.401 3.452 9.034 1.363 9.034"/><polygon class="cls-5" points="20.04 9.034 20.04 10.087 3.452 18.454 1.363 18.454 1.363 17.401 17.952 9.034 20.04 9.034"/><rect class="cls-5" x="9.145" y="9.034" width="3.113" height="9.42"/><rect class="cls-5" x="1.363" y="12.174" width="18.677" height="3.14"/><rect class="cls-8" x="1.363" y="12.802" width="18.677" height="1.884"/><rect class="cls-8" x="9.768" y="9.034" width="1.868" height="9.42"/><polygon class="cls-6" points="1.363 18.454 7.589 15.314 8.981 15.314 2.755 18.454 1.363 18.454"/><polygon class="cls-6" points="1.363 9.034 7.589 12.174 6.197 12.174 1.363 9.736 1.363 9.034"/><polygon class="cls-6" points="12.423 12.174 18.648 9.034 20.04 9.034 13.814 12.174 12.423 12.174"/><polygon class="cls-6" points="20.04 18.454 13.814 15.314 15.206 15.314 20.04 17.752 20.04 18.454"/><rect class="cls-6" x="25.877" y="15.987" width="7.004" height="2.518"/><path class="cls-9" d="M26.257,17.168h0a.265.265,0,0,1,.222.291v0a.264.264,0,0,1-.222.291h0a.263.263,0,0,1-.221-.291v0a.264.264,0,0,1,.221-.291Z"/><path d="M26.261,17.759h0a.267.267,0,0,1-.225-.3c0-.168.1-.3.225-.3a.268.268,0,0,1,.23.295c0,.168-.1.3-.226.3Zm0-.587a.259.259,0,0,0-.221.287c0,.164.1.293.217.293h0a.261.261,0,0,0,.218-.288c0-.163-.1-.292-.218-.292Z"/><path class="cls-10" d="M31.384,17.012a1.119,1.119,0,0,0,.544-.166c.142-.139-.1-.392.056-.418a.269.269,0,0,1,.212.083c-.011-.053-.051-.083-.066-.114a.278.278,0,0,0-.192-.039c-.055.009-.065-.008-.156-.1a.225.225,0,0,1-.01-.227.157.157,0,0,0-.076.188,1.133,1.133,0,0,1,.051.165.5.5,0,0,0-.373-.143c-.288-.018-1.013.174-1.341.174a4.169,4.169,0,0,1-.8-.118s.12-.083-.026-.118-.469.123-.56.035c-.065-.082-.04-.065-.05-.1-.025.013-.04.065,0,.135s.055.048.051.048-.116,0-.126.035-.026.056.03.152c.02-.1-.056-.109.111-.118a1.816,1.816,0,0,1,.423.079c.141.022.141-.052.146-.048a3.159,3.159,0,0,0,.827.083,12.383,12.383,0,0,1,1.321-.17c.292.039.484.222.489.392,0,.105-.131.157-.232.175-.121.017-.4.043-.4.043Z"/><path d="M31.383,17.016h0l-.156-.1c0-.007.284-.033.4-.05.052-.009.224-.048.229-.171,0-.159-.187-.348-.485-.389a2.964,2.964,0,0,0-.731.083,5.176,5.176,0,0,1-.59.087,3.105,3.105,0,0,1-.828-.083,3.726,3.726,0,0,0,.828.076,5.146,5.146,0,0,0,.588-.087,2.893,2.893,0,0,1,.733-.083c.314.042.488.236.492.4-.006.128-.181.169-.235.178-.121.017-.4.043-.4.043l.157.09a1.127,1.127,0,0,0,.541-.165c.071-.071.044-.169.021-.256-.016-.057-.029-.107-.01-.137a.065.065,0,0,1,.046-.027.282.282,0,0,1,.215.084.293.293,0,0,0-.048-.075.2.2,0,0,0-.173-.071l-.061,0v0c-.035,0-.055-.02-.112-.079a.228.228,0,0,1-.035-.255.16.16,0,0,0-.069.187.869.869,0,0,0,.032.1.173.173,0,0,1,.018.069.566.566,0,0,0-.376-.14c-.183.016-.445.043-.687.086a4.513,4.513,0,0,1-.654.089,4.205,4.205,0,0,1-.8-.118c0-.007.049-.042.043-.074s-.026-.034-.069-.044a.707.707,0,0,0-.259.028c-.128.029-.256.049-.3.006-.048-.061-.049-.07-.049-.085-.02-.006-.036.041,0,.111a.115.115,0,0,0,.035.047c-.064.009-.105.021-.11.038s-.023.059.03.151a.451.451,0,0,0-.006-.065.09.09,0,0,1,.01-.022.4.4,0,0,1,0,.089c-.061-.094-.048-.126-.038-.153s.077-.037.116-.039c-.014,0-.026-.017-.039-.042-.038-.075-.019-.127.006-.141a.193.193,0,0,0,.055.106c.043.041.17.02.295-.008a.753.753,0,0,1,.263-.028c.045.011.07.028.074.05s-.044.072-.047.074h0a5,5,0,0,0,.8.111,4.643,4.643,0,0,0,.653-.088,4.553,4.553,0,0,1,.647-.087.544.544,0,0,1,.394.128c.016,0,.009-.02,0-.047a.68.68,0,0,1-.033-.1.159.159,0,0,1,.077-.191.234.234,0,0,0,.015.227c.081.084.1.1.131.1h.061a.219.219,0,0,1,.155.04.3.3,0,0,1,.067.115.3.3,0,0,0-.2-.079c-.036,0-.049.012-.057.024-.017.027,0,.076.011.131.023.085.051.19-.023.263a1.145,1.145,0,0,1-.547.167Zm-2.255-.567a.464.464,0,0,1-.048,0,1.215,1.215,0,0,1-.15-.036.861.861,0,0,0-.243-.044.613.613,0,0,0-.121.012.171.171,0,0,1,.09-.018.779.779,0,0,1,.276.043,1.042,1.042,0,0,0,.149.035c.111.017.132-.026.139-.041h0c0,.017-.021.053-.1.053Z"/><path class="cls-10" d="M30.932,17.112s-.269.006-.347.15a.97.97,0,0,0-.108.281s.176-.119.176-.119a.659.659,0,0,0-.058.45c.068.213-.181.2-.325.206a1.177,1.177,0,0,0-.34-.187c-.045-.022-.134-.025-.227.108-.054.082.081-.077.216-.065a.129.129,0,0,1,.027.082c-.072-.007-.147-.113-.235.106.088-.075.1-.074.144-.078s.052.034.05.034-.035.007-.071.05c-.02.032-.069.1-.059.1s.039-.038.084-.068c.029-.026.056-.026.143.006.475.143.73.037.759-.019a.675.675,0,0,1,.5-.918c-.01-.007-.324-.113-.324-.119Z"/><path d="M30.438,18.242h0A1.524,1.524,0,0,1,30,18.17c-.087-.032-.108-.034-.14-.007a.705.705,0,0,0-.058.048l-.012,0a.759.759,0,0,1,.067-.056c.032-.027.054-.027.145.007a.935.935,0,0,0,.756-.019c-.116-.516.054-.811.5-.919a.9.9,0,0,1-.119-.038c-.2-.07-.206-.074-.206-.078s-.265.009-.343.151a1.025,1.025,0,0,0-.108.279l.173-.12a.706.706,0,0,0-.055.451.147.147,0,0,1-.007.132c-.048.069-.177.073-.28.076l-.006,0c.127-.005.239-.013.282-.075a.143.143,0,0,0,.006-.127.672.672,0,0,1,.059-.452,2.057,2.057,0,0,1-.174.123.85.85,0,0,1,.106-.285c.079-.145.347-.152.349-.152s.123.047.206.076l.119.043a.641.641,0,0,0-.5.875c.007.032.01.043.007.047-.018.035-.123.092-.325.092Zm-.725-.116c.05-.143.119-.151.183-.126a.176.176,0,0,0,.05.015.138.138,0,0,0-.018-.061.093.093,0,0,1,.02.064.153.153,0,0,1-.053-.013c-.047-.019-.1-.089-.182.12.082-.076.1-.077.137-.081s.059.012.058.029l-.005,0-.037-.029c-.056.005-.069.006-.153.078Zm0-.114.01-.02a.422.422,0,0,1,.176-.059l.007,0a.369.369,0,0,0-.193.074Zm.434-.018a1.491,1.491,0,0,0-.222-.1.135.135,0,0,0-.149.025.125.125,0,0,1,.15-.029,1.171,1.171,0,0,1,.221.1Z"/><path class="cls-10" d="M27.64,17.893c.315.287,2.441-.306,2.71-.512.155-.119.424-.206.424.2a2.093,2.093,0,0,0,.069-.337,1,1,0,0,1,.2.444c.023-.3-.04-.475-.006-.45.023-.025.023.15.206.394-.04-.194-.051-.282-.051-.282a1.889,1.889,0,0,0,.538.413c.195.05.476-.1.562-.013s.235.244.229.369-.321.018-.355.118.023.1.023.1l.051.138c.017-.044-.017-.138.046-.144.046.006.046.088.058.131.013-.05,0-.15.04-.15s.051.08.086.138v-.138c.131-.043.246-.05.263-.143s-.2-.307-.252-.444.04-.194-.057-.269-.47.119-.642.044-.1-.612-.751-.73a11.489,11.489,0,0,0-2.71.655,1.874,1.874,0,0,1-.688-.106Z"/><path d="M32.241,18.483l-.023-.063.023.045a.191.191,0,0,0,0-.049c0-.039,0-.085.044-.089s.047.055.054.1c.01-.071.012-.118.044-.118h0c.033,0,.045.034.059.073a.385.385,0,0,0,.028.066l-.006-.136.087-.028c.092-.025.164-.045.177-.116.01-.052-.059-.147-.126-.238a1.04,1.04,0,0,1-.126-.2.274.274,0,0,1-.013-.145.11.11,0,0,0-.043-.122c-.041-.032-.152-.01-.275.019a.713.713,0,0,1-.366.025c-.058-.025-.088-.1-.127-.192a.751.751,0,0,0-.623-.538,6,6,0,0,0-2.06.461,5.011,5.011,0,0,1-.649.2,1.82,1.82,0,0,1-.69-.107l.01.572a.563.563,0,0,0,.344.073,7.037,7.037,0,0,0,2.361-.588.45.45,0,0,1,.242-.1c.086,0,.188.052.188.3a2.84,2.84,0,0,0,.062-.337.942.942,0,0,1,.207.443,2.3,2.3,0,0,0-.017-.379c-.006-.048-.008-.067,0-.074s.027.012.038.046a1.117,1.117,0,0,0,.181.349c-.046-.191-.057-.278-.057-.278a2.072,2.072,0,0,0,.542.409.821.821,0,0,0,.307-.019c.117-.022.216-.034.256.007.077.078.236.242.23.371,0,.069-.095.071-.184.072s-.156,0-.171.047a.118.118,0,0,0-.009.069.089.089,0,0,1,0-.071c.017-.049.1-.05.177-.052s.175,0,.178-.065c.006-.127-.152-.289-.229-.367-.037-.039-.136-.026-.25,0a.809.809,0,0,1-.309.018,1.87,1.87,0,0,1-.539-.411c.007.014.02.1.056.276a1.018,1.018,0,0,1-.188-.349c-.007-.021-.014-.043-.018-.043s-.01.035-.006.069a1.881,1.881,0,0,1,.011.38,1.13,1.13,0,0,0-.205-.441,1.561,1.561,0,0,1-.064.335c-.011-.307-.207-.366-.426-.2a7.052,7.052,0,0,1-2.364.59h0a.547.547,0,0,1-.349-.078l-.007-.577h0a2.045,2.045,0,0,0,.691.1,4.953,4.953,0,0,0,.648-.194,6.015,6.015,0,0,1,2.063-.462.757.757,0,0,1,.628.542c.038.092.068.165.123.189a.683.683,0,0,0,.363-.026c.124-.029.236-.051.28-.017a.114.114,0,0,1,.045.128.263.263,0,0,0,.013.142,1.062,1.062,0,0,0,.126.2c.07.1.137.188.126.243-.014.075-.087.1-.181.122l-.084.024,0,.135a.179.179,0,0,1-.035-.065c-.032-.09-.08-.056-.084.017a.49.49,0,0,1-.007.061c-.021-.077-.028-.124-.061-.129s-.037.043-.037.083a.179.179,0,0,1-.006.059l0,.008Z"/><path class="cls-10" d="M27.234,17.686s-.335.423-.561.414-.409-.3-.459-.276-.06-.023-.079-.1.021-.115.019-.107.025.127.035.137-.038-.154.032-.153c.023,0,.019.118.041.171.007-.006-.024-.174.006-.175s.041.171.087.223a.507.507,0,0,0,.3.173c.143-.021.479-.4.506-.388Z"/><path d="M26.68,18.1h-.007a.654.654,0,0,1-.355-.2.5.5,0,0,0-.083-.068.308.308,0,0,1,.087.063.648.648,0,0,0,.352.2l.006,0v0c.222,0,.549-.41.552-.414l-.07-.078a.747.747,0,0,0-.13.111,1.18,1.18,0,0,1-.373.278.516.516,0,0,1-.307-.174.4.4,0,0,1-.051-.136c-.01-.042-.021-.086-.033-.086-.015.015-.009.08,0,.123s0,.049,0,.052a.271.271,0,0,1-.023-.1.356.356,0,0,0-.011-.061.13.13,0,0,1,.017.06.437.437,0,0,0,.015.087c0-.01,0-.025,0-.04a.274.274,0,0,1,0-.126c.019-.008.032.028.047.087a.378.378,0,0,0,.05.133.492.492,0,0,0,.3.172,1.188,1.188,0,0,0,.369-.277c.078-.073.12-.111.134-.111l.075.083c0,.008-.332.419-.557.419Z"/><path class="cls-10" d="M27.245,17.449s-.275-.444-.5-.487-.441.17-.487.142-.063.007-.091.07,0,.106,0,.1.04-.106.052-.113-.057.127.011.141c.023.007.035-.1.063-.141.006.007-.046.148-.017.155s.063-.141.115-.176a.48.48,0,0,1,.321-.085c.137.05.418.459.446.452Z"/><path d="M27.163,17.509c-.012,0-.049-.044-.118-.127a1.3,1.3,0,0,0-.328-.325.477.477,0,0,0-.318.084.289.289,0,0,0-.067.106c-.018.04-.033.071-.048.071-.02-.023-.006-.075,0-.117-.027.074-.036.1-.05.1l-.014-.018c.024,0,.034-.022.042-.049a.361.361,0,0,1,.031-.079.491.491,0,0,0-.018.151c.014,0,.032-.029.048-.064a.279.279,0,0,1,.068-.108.479.479,0,0,1,.323-.086,1.34,1.34,0,0,1,.332.327.808.808,0,0,0,.113.125l.08-.056s-.278-.44-.5-.482a.62.62,0,0,0-.373.1.319.319,0,0,1-.1.043c-.063-.011-.078.018-.1.066a.093.093,0,0,0,0,.1.266.266,0,0,0,.025-.058.189.189,0,0,1,.025-.055c0,.029-.012.059-.014.084a.146.146,0,0,1,.01-.064c-.032.08-.039.1-.046.1a.091.091,0,0,1-.008-.1c.023-.051.038-.082.066-.082a.177.177,0,0,0,.14-.03.6.6,0,0,1,.375-.1c.223.042.5.483.5.488l-.084.061Z"/><path class="cls-10" d="M27.107,17.312l-.3.162.224.063-.161.2.23-.082-.017.269.131-.175.087.244.091-.181.109.2.046-.193.132.193.045-.262.161.162-.023-.274.2.069-.121-.213.2-.013a1.2,1.2,0,0,0-.293-.174Z"/><path d="M27.676,18.018l-.135-.2-.041.193-.114-.2-.087.181-.091-.244-.127.176.012-.271-.226.084.158-.2-.222-.058.3-.167.734-.007a.873.873,0,0,1,.258.15l.033.024a1.179,1.179,0,0,0-.291-.169l-.733.007-.3.162.223.057-.16.2.227-.085-.014.271.127-.177.091.245.087-.182.113.2.041-.193.133.188.044-.257.165.162-.027-.273.2.066-.124-.209s.2-.015.2-.016l0,0s0,0-.2.016l.122.208-.2-.065.026.272-.165-.16-.042.267Z"/><path class="cls-10" d="M27.268,17.24l-.167.092.123.036-.088.113.125-.046-.009.152.072-.1.047.138.051-.1.059.114.025-.11.072.11.025-.149.088.092-.012-.156.106.039-.065-.12.109-.007a.632.632,0,0,0-.16-.1Z"/><path d="M27.58,17.643l-.076-.115-.021.109-.064-.112-.045.1-.052-.138-.068.1,0-.154-.122.048.085-.116-.121-.033.166-.1.4,0a.45.45,0,0,1,.141.084l.007.007a.589.589,0,0,0-.148-.087l-.4,0-.166.091.123.032-.087.116.123-.049-.007.154.068-.1.052.138.045-.1.064.113.021-.109.073.105.024-.143.092.09-.016-.154.109.037-.068-.116a.747.747,0,0,1,.1-.011c-.005.006-.032.007-.1.011l.067.117-.109-.035.016.153-.093-.09-.021.153Z"/><path class="cls-10" d="M27.353,16.8s-.085-.074-.12,0,.075.045.075.057a.458.458,0,0,0-.075.2,2.006,2.006,0,0,0,.057.293.142.142,0,0,0,.1.119c.08.025.109-.081.126-.094s.126.019.166-.087a1.107,1.107,0,0,0,.04-.3s.069.056.069-.056-.074,0-.074,0,.011-.119-.167-.175-.194.056-.2.043Z"/><path d="M27.417,17.474l-.024,0a.142.142,0,0,1-.105-.122.524.524,0,0,0-.015-.064,1.063,1.063,0,0,1-.043-.229.288.288,0,0,1,.031-.121.407.407,0,0,0-.025.121,1.043,1.043,0,0,0,.042.227.461.461,0,0,1,.015.066.139.139,0,0,0,.1.116l.022,0c.044,0,.069-.044.085-.073l.045-.029a.13.13,0,0,0,.137-.081,1.128,1.128,0,0,0,.04-.3c.064.011.069-.025.068-.056s0-.047-.016-.047-.044.035-.053.048,0-.118-.17-.174c-.121-.038-.177.016-.191.037h-.006c.018-.029.076-.082.2-.043.163.052.169.157.168.175.006-.019.074-.082.075,0,0,.064-.023.072-.041.072s-.03.183-.069.285a.134.134,0,0,1-.14.085l-.041.025c-.017.031-.043.076-.09.076Z"/><path class="cls-10" d="M27.331,16.78c-.024-.072-.09-.345-.09-.345l.148.1c-.05-.019-.093-.03-.088-.03a1.364,1.364,0,0,1,.068.131.473.473,0,0,1,.19.049,1.191,1.191,0,0,0,.052-.109.163.163,0,0,1-.033-.018l.132-.1-.04.138h-.027l-.052.1a.283.283,0,0,1,.152.093.264.264,0,0,0,.124-.093c-.048-.021-.07-.037-.065-.037l.2.013a2.479,2.479,0,0,1-.294.267,3.2,3.2,0,0,1-.376-.156Z"/><path d="M27.707,16.94h0c-.039-.017-.1-.04-.163-.063a.746.746,0,0,1-.215-.1c-.024-.072-.091-.345-.091-.345l.154.1-.075-.02s.024.054.04.09c-.026-.039-.05-.088-.056-.1l.09.024-.151-.094c.009.011.072.271.095.341a.985.985,0,0,0,.211.091c.062.023.123.045.162.063A2.411,2.411,0,0,0,28,16.667c-.009,0-.174-.007-.194-.008.006,0,.025.014.064.031a.228.228,0,0,1-.124.1.294.294,0,0,0-.153-.093l.116-.243h0v0l-.035.141-.079.1a.255.255,0,0,1,.152.09.273.273,0,0,0,.118-.093s-.067-.026-.066-.035.2.01.2.01a1.873,1.873,0,0,1-.292.273Zm-.145-.254-.054-.016a.362.362,0,0,0-.123-.032l0,0a.289.289,0,0,1,.129.03l.05.018c.013-.03.037-.079.045-.1a.29.29,0,0,1-.043.1Z"/><path d="M27.422,16.981h0c.033.017.046.029.03.027h0a.372.372,0,0,1-.089-.034h0c-.032-.017-.046-.029-.03-.027h0a.353.353,0,0,1,.088.034Z"/><path d="M27.594,17.056h0c.033.017.046.029.03.027h0a.372.372,0,0,1-.089-.034h0c-.032-.017-.046-.029-.03-.027h0a.353.353,0,0,1,.088.034Z"/><path d="M27.484,17.263h0c.063.024.09.041.058.038h0a.915.915,0,0,1-.172-.048h0c-.064-.024-.09-.041-.059-.038h0a.827.827,0,0,1,.172.047Z"/><path d="M27.473,17.164h0c.028.012.04.021.026.019h0a.323.323,0,0,1-.077-.023h0c-.029-.011-.041-.02-.027-.018h0a.4.4,0,0,1,.077.023Z"/><path d="M27.432,17.19h0c.009-.027.017-.039.018-.028h0a.232.232,0,0,1-.013.07h0c-.008.027-.017.039-.018.028h0a.2.2,0,0,1,.013-.069Z"/><polygon class="cls-11" points="26.407 22.314 26.269 22.07 26.466 22.309 26.474 22.406 26.407 22.314"/><path d="M26.478,22.414l-.073-.1-.138-.245.2.236.01.107Zm-.211-.342.2.325-.008-.088-.2-.237Z"/><polygon class="cls-11" points="26.446 22.341 26.468 22.163 26.528 22.378 26.474 22.412 26.446 22.341"/><polygon points="26.473 22.415 26.444 22.342 26.465 22.163 26.531 22.377 26.473 22.415 26.473 22.415"/><polygon class="cls-11" points="26.396 22.4 26.164 22.279 26.356 22.339 26.481 22.41 26.396 22.4"/><path d="M26.481,22.413,26.4,22.4l-.232-.122.193.055.127.072,0,0Zm-.318-.132.234.117.073.008-.116-.065-.191-.06Z"/><polygon class="cls-11" points="26.465 22.476 26.112 22.374 26.388 22.385 26.482 22.4 26.465 22.476"/><path d="M26.466,22.479h0l-.353-.1.371.021-.016.081Zm-.354-.1.351.1.016-.073-.091-.012-.276-.011Z"/><polygon class="cls-11" points="26.484 22.359 26.7 22.325 26.624 22.462 26.461 22.404 26.484 22.359"/><polygon points="26.625 22.465 26.46 22.406 26.482 22.358 26.7 22.322 26.625 22.465 26.625 22.465"/><polygon class="cls-11" points="26.606 22.431 26.88 22.545 26.651 22.511 26.456 22.397 26.606 22.431"/><path d="M26.88,22.548l-.23-.034-.2-.115.152.03.274.114v0Zm-.425-.149.2.11.209.031-.256-.107-.15-.034Z"/><polygon class="cls-11" points="26.645 22.493 26.937 22.659 26.676 22.564 26.46 22.395 26.645 22.493"/><path d="M26.936,22.662l-.261-.1-.216-.169.479.26,0,0Zm-.477-.265.219.165.232.085-.451-.25Z"/><polygon class="cls-11" points="26.646 22.55 26.815 22.803 26.551 22.518 26.469 22.399 26.646 22.55"/><path d="M26.813,22.805l-.346-.405.181.148.169.254,0,0Zm-.345-.405.085.116.243.262-.152-.227-.176-.151Z"/><polygon class="cls-11" points="26.603 22.556 26.607 22.719 26.479 22.48 26.468 22.397 26.603 22.556"/><path d="M26.605,22.72l-.128-.239-.011-.084.139.157,0,.165Zm-.139-.321.015.08.123.229,0-.152-.135-.157Z"/><polygon class="cls-11" points="26.537 22.505 26.41 22.604 26.417 22.426 26.474 22.41 26.537 22.505"/><polygon points="26.407 22.609 26.414 22.426 26.473 22.408 26.539 22.504 26.407 22.609 26.407 22.609"/><polygon class="cls-11" points="26.375 22.311 26.282 22.173 26.41 22.309 26.471 22.404 26.375 22.311"/><polygon points="26.469 22.406 26.374 22.312 26.28 22.174 26.411 22.308 26.473 22.403 26.469 22.406 26.469 22.406"/><polygon class="cls-11" points="26.443 22.369 26.35 22.195 26.485 22.384 26.504 22.437 26.443 22.369"/><polygon points="26.502 22.438 26.441 22.37 26.348 22.196 26.505 22.436 26.502 22.438 26.502 22.438"/><polygon class="cls-11" points="26.45 22.423 26.206 22.315 26.412 22.378 26.502 22.426 26.45 22.423"/><polygon points="26.502 22.427 26.45 22.425 26.205 22.317 26.503 22.424 26.502 22.427 26.502 22.427"/><polygon class="cls-11" points="26.515 22.409 26.738 22.476 26.57 22.448 26.481 22.416 26.515 22.409"/><polygon points="26.738 22.478 26.481 22.417 26.714 22.471 26.697 22.465 26.739 22.475 26.738 22.478 26.738 22.478"/><polygon class="cls-11" points="26.524 22.466 26.457 22.51 26.492 22.444 26.488 22.412 26.524 22.466"/><polygon class="cls-1" points="26.524 22.466 26.457 22.51 26.492 22.444 26.488 22.412 26.524 22.466"/><polygon class="cls-11" points="26.62 22.509 26.763 22.69 26.642 22.561 26.494 22.418 26.62 22.509"/><path d="M26.761,22.692l-.269-.272.129.087.144.182,0,0Zm-.269-.272.231.224-.105-.133-.126-.091Z"/><polygon class="cls-11" points="26.582 22.446 26.622 22.398 26.636 22.489 26.499 22.429 26.582 22.446"/><polygon class="cls-1" points="26.582 22.446 26.622 22.398 26.636 22.489 26.499 22.429 26.582 22.446"/><polygon class="cls-11" points="26.427 22.342 26.367 22.16 26.466 22.348 26.475 22.406 26.427 22.342"/><polygon points="26.474 22.407 26.426 22.342 26.365 22.16 26.477 22.406 26.474 22.407 26.474 22.407"/><path class="cls-5" d="M27.111,22.751c.033-.025.279-.585,1.448-.5a4.76,4.76,0,0,0-1.175.9c-.073.025-.233-.3-.273-.395Z"/><path d="M27.375,23.154c-.092,0-.268-.4-.27-.4a1.46,1.46,0,0,1,1.454-.512,3.356,3.356,0,0,0-.994.753.705.705,0,0,1-.18.158l-.01,0Zm.958-.908a1.36,1.36,0,0,0-1.2.485c.039.146.177.41.241.41v.007l.007-.007a.781.781,0,0,0,.174-.156,3.139,3.139,0,0,1,1-.743c-.078.006-.153,0-.224,0Z"/><path class="cls-5" d="M28.677,22.474a1.639,1.639,0,0,1-.362.134c.047.027.151.01.269.053-.106,0-.3.111-.382.114.056.045.256,0,.293.013-.107.009-.279.12-.387.12-.049.05.25-.034.37.06-.124-.008-.365.087-.5.064.1.079.277-.008.425.077a2.377,2.377,0,0,1-.508.033c.072.049.291.04.345.084-.09-.016-.331.052-.416.025.076.073.3.032.345.075-.148.07-.374.015-.478.033.07.044.128.088.189.128a2.583,2.583,0,0,0,.538.393c-.186-.032-.25-.036-.37-.049l.272.387c-.113-.083-.314-.237-.447-.317-.294-.194-.507-.16-.711-.324a2.58,2.58,0,0,1-.46-.934c-.015-.118-.027-.33-.289-.22.252-.043.072-.318.336-.318.159,0,.138.154.2.256a1.565,1.565,0,0,0,.367.347,1.168,1.168,0,0,1,1.358-.234Z"/><path d="M28.32,24.225l-.1-.075c-.11-.082-.246-.183-.345-.242a1.4,1.4,0,0,0-.389-.172.938.938,0,0,1-.324-.152,2.611,2.611,0,0,1-.463-.94c-.015-.127-.043-.275-.206-.237l.006,0,0-.005a.305.305,0,0,0,.069-.147c.02-.076.041-.154.182-.154.118,0,.143.083.167.163a.463.463,0,0,0,.038.1,1.537,1.537,0,0,0,.362.342,1.154,1.154,0,0,1,1.359-.232,1.3,1.3,0,0,1-.361.149.381.381,0,0,1,.093,0,.678.678,0,0,1,.175.034c-.058.018-.137.049-.214.078a.741.741,0,0,1-.163.052c.022,0,.051,0,.094,0s.072,0,.105-.006.048,0,.065,0l-.008.006.028,0a.163.163,0,0,1-.043.014,1.021,1.021,0,0,1-.134.061.686.686,0,0,1-.2.062L28.1,22.9a.7.7,0,0,0,.208-.063c.036-.015.072-.03.1-.041h0a.4.4,0,0,1-.213-.017l.169-.066a.805.805,0,0,1,.218-.062l-.174-.017a.248.248,0,0,1-.1-.021c.094-.031.184-.07.362-.149a1.223,1.223,0,0,0-1.348.248,1.392,1.392,0,0,1-.381-.349.423.423,0,0,1-.039-.1c-.025-.081-.046-.151-.151-.151-.129,0-.146.066-.165.142a.258.258,0,0,1-.065.131c.146-.034.177.138.189.239a2.524,2.524,0,0,0,.46.947.882.882,0,0,0,.317.147,1.449,1.449,0,0,1,.393.175c.1.059.235.16.346.242l.059.044-.242-.344.059-.008c.091.009.161.017.319.044a2.035,2.035,0,0,1-.545-.378l-.073-.051c-.036-.025-.073-.051-.114-.077.044-.041.094-.019.154-.016a.788.788,0,0,0,.325-.032l-.13-.008a.37.37,0,0,1-.217-.053.123.123,0,0,1,.06-.008,1.255,1.255,0,0,0,.168-.018,1.352,1.352,0,0,1,.159-.016,1.258,1.258,0,0,0-.128-.02.521.521,0,0,1-.188-.046.263.263,0,0,1,.095-.009h0A3.463,3.463,0,0,0,28.4,23.1a.6.6,0,0,0-.189-.025h-.078a.242.242,0,0,1-.157-.038l.051-.011a1.225,1.225,0,0,0,.229-.036,1.052,1.052,0,0,1,.2-.033.452.452,0,0,0-.188-.03l-.139.005-.016-.018.155,0a.332.332,0,0,1,.209.05c-.075.014-.147.03-.223.047a.832.832,0,0,1-.279.032.519.519,0,0,0,.153.019h.078a.389.389,0,0,1,.2.042,1.509,1.509,0,0,1-.514.049c.042.009.115.018.187.028a.412.412,0,0,1,.165.041c-.081.013-.138.021-.2.029a.659.659,0,0,1-.227.011.627.627,0,0,0,.215.033c.066,0,.118.007.138.029a.584.584,0,0,1-.335.046.649.649,0,0,0-.147,0,.354.354,0,0,1,.118.063l.074.05a2.55,2.55,0,0,0,.536.392c-.162-.011-.232-.018-.323-.027l-.051-.006.28.374-.012.012Z"/><path class="cls-12" d="M30.228,24.548a.289.289,0,0,1,.011-.172.631.631,0,0,1,.133-.164c.078-.029.1,0,.207-.111.034-.071.083-.125.112-.2.067-.113.09-.169.143-.256A2.433,2.433,0,0,0,31,23.4a.881.881,0,0,1,.149-.217.565.565,0,0,1,.148-.217c.051-.106.149-.227.191-.314a2.769,2.769,0,0,0,.17-.241,1.228,1.228,0,0,1,.234-.168c.108-.052.165-.1.237-.025.047.054.131.14.072.2a.1.1,0,0,1-.14.014c-.06-.044-.088-.172-.169-.072a1.858,1.858,0,0,1-.17.217,1.071,1.071,0,0,0-.106.217.893.893,0,0,0-.128.241.71.71,0,0,0-.127.217.808.808,0,0,0-.128.217c-.08.087-.11.161-.169.217a1.031,1.031,0,0,1-.149.241c-.037.069-.074.14-.106.217-.068.078-.07.1-.17.217a1.2,1.2,0,0,1-.184.25.182.182,0,0,1-.231-.068Z"/><path d="M30.378,24.638a.2.2,0,0,1-.153-.087.277.277,0,0,1,.01-.176l.027-.042a.467.467,0,0,1,.107-.125.279.279,0,0,1,.057-.016.245.245,0,0,0,.15-.094.677.677,0,0,1,.05-.087.616.616,0,0,0,.061-.114c.033-.056.056-.1.076-.137s.04-.076.067-.12A2.176,2.176,0,0,0,31,23.4a.89.89,0,0,1,.149-.218.6.6,0,0,1,.149-.218,1.687,1.687,0,0,1,.1-.171,1.212,1.212,0,0,0,.087-.141,2.72,2.72,0,0,0,.17-.242l.058-.047a.8.8,0,0,1,.178-.123l.046-.023c.084-.043.14-.062.2,0s.13.147.073.209a.112.112,0,0,1-.146.016.26.26,0,0,1-.049-.055c-.034-.046-.067-.078-.115-.019l-.05.069a.94.94,0,0,1-.12.148,1.117,1.117,0,0,0-.105.216.9.9,0,0,0-.128.241.735.735,0,0,0-.127.217.812.812,0,0,0-.127.217,1.1,1.1,0,0,0-.093.12.551.551,0,0,1-.078.1.985.985,0,0,1-.149.241c-.036.068-.073.139-.105.216-.035.041-.052.064-.074.094s-.047.063-.1.124l-.052.081a.852.852,0,0,1-.133.169.225.225,0,0,1-.084.019Zm1.678-2.454a.282.282,0,0,0-.111.041l-.047.024a.725.725,0,0,0-.176.122l-.057.046c-.065.1-.094.142-.169.24a1.212,1.212,0,0,1-.087.141,1.676,1.676,0,0,0-.1.172.581.581,0,0,0-.148.216.92.92,0,0,0-.149.218,2.321,2.321,0,0,1-.17.242c-.027.043-.046.079-.067.118s-.042.081-.076.137a.626.626,0,0,1-.061.115.826.826,0,0,0-.051.087.247.247,0,0,1-.155.1.472.472,0,0,0-.055.015.445.445,0,0,0-.1.123l-.027.04a.27.27,0,0,0-.011.161.187.187,0,0,0,.225.071.9.9,0,0,0,.13-.166l.052-.082c.05-.06.075-.095.1-.124s.039-.053.073-.093c.032-.075.069-.147.106-.216a1.013,1.013,0,0,0,.148-.241.6.6,0,0,0,.079-.1.99.99,0,0,1,.092-.119.8.8,0,0,1,.127-.217.734.734,0,0,1,.128-.218.89.89,0,0,1,.127-.24,1.126,1.126,0,0,1,.106-.217,1.052,1.052,0,0,0,.12-.147l.05-.07c.053-.065.093-.031.13.019a.214.214,0,0,0,.046.052.1.1,0,0,0,.134-.013c.052-.056-.017-.134-.063-.186s-.057-.05-.083-.05Z"/><path class="cls-10" d="M31.257,23.614h0c.031.032-.046.163-.173.293l0,0c-.128.129-.257.208-.289.176h0c-.032-.032.045-.164.172-.294l0,0c.127-.13.256-.21.289-.177Z"/><path d="M30.814,24.1l-.024-.008a.087.087,0,0,1,0-.028v0l.025.024a.574.574,0,0,0,.264-.183.776.776,0,0,0,.176-.242.609.609,0,0,1-.166.245.584.584,0,0,1-.274.189Zm-.023-.05a.835.835,0,0,1,.445-.448.04.04,0,0,1,.013.016.481.481,0,0,0-.278.176.713.713,0,0,0-.18.256Z"/><path class="cls-10" d="M30.561,23.139h0c.042.018.021.169-.047.338l0,0c-.068.169-.158.292-.2.275h0c-.042-.017-.021-.168.048-.337l0,0c.068-.169.157-.292.2-.275Z"/><path d="M30.321,23.763l-.01,0c-.052-.021-.018-.191.043-.344s.15-.284.2-.284c.061.023.027.193-.034.346s-.149.284-.2.284Zm.238-.619c-.046,0-.125.1-.194.272s-.087.322-.052.336l.008,0c.037,0,.117-.1.187-.274s.086-.322.052-.336Z"/><path class="cls-10" d="M30.673,23.219h0c.041.018.016.169-.058.335l0,0c-.073.167-.166.287-.208.268h0c-.041-.019-.015-.169.058-.336l0-.005c.074-.166.167-.286.208-.268Z"/><path d="M30.414,23.835l-.011,0c-.05-.023-.011-.192.055-.342s.158-.279.206-.279c.04.016.037.074.029.121a1.052,1.052,0,0,1-.073.224c-.072.163-.158.278-.206.278Zm.257-.611c-.046,0-.129.1-.2.265-.081.183-.1.319-.063.334l.008,0c.038,0,.121-.1.2-.267a.975.975,0,0,0,.074-.228c.011-.059.007-.1-.011-.107Z"/><path class="cls-10" d="M30.928,23.405h0c.036.027-.02.168-.126.316l0,0c-.106.148-.222.246-.258.219h0c-.037-.026.02-.168.125-.316l0,0c.106-.148.222-.247.259-.22Z"/><path d="M30.557,23.955l-.018,0a.154.154,0,0,1-.005-.031v.006l.022.021c.046,0,.149-.1.24-.222a.647.647,0,0,0,.138-.288.554.554,0,0,1-.128.289c-.1.135-.2.23-.25.23Zm-.023-.044a.589.589,0,0,1,.129-.284c.1-.136.2-.231.25-.231a.093.093,0,0,1,.014.014h0c-.06,0-.161.094-.25.218a.724.724,0,0,0-.139.284Z"/><path class="cls-10" d="M31.457,23.744h0c.029.035-.059.16-.2.278l0,0c-.138.119-.274.187-.3.152h0c-.029-.035.058-.159.2-.277l0,0c.138-.118.273-.186.3-.152Z"/><path d="M30.979,24.192l-.028-.011c-.036-.042.072-.178.2-.285a.62.62,0,0,1,.284-.165.042.042,0,0,1,.014.016.531.531,0,0,0-.288.153c-.151.13-.224.245-.2.274l.022.009a.614.614,0,0,0,.275-.16.824.824,0,0,0,.191-.216.639.639,0,0,1-.18.219.619.619,0,0,1-.286.166Z"/><path class="cls-10" d="M31.364,23.687h0c.032.033-.047.163-.176.291l0,0c-.129.128-.259.2-.291.172h0c-.031-.032.047-.162.176-.29l0,0c.129-.128.259-.2.291-.173Z"/><path d="M30.916,24.168l-.025-.009a.15.15,0,0,1,0-.03v0l.025.024a.587.587,0,0,0,.266-.179.6.6,0,0,0,.185-.27c-.074-.024-.186.05-.291.155a.7.7,0,0,0-.183.255.592.592,0,0,1,.173-.259.6.6,0,0,1,.277-.185l.034.035a.6.6,0,0,1-.185.272.594.594,0,0,1-.276.186Z"/><path class="cls-10" d="M31.1,23.548h0c.036.026-.02.168-.126.316l0,0c-.106.149-.221.247-.258.22h0c-.037-.027.019-.168.125-.316l0,0c.106-.149.222-.246.259-.22Z"/><path d="M30.724,24.1l-.018,0c-.045-.033.028-.191.123-.324s.2-.23.251-.23a.131.131,0,0,1,.009.028c-.068-.011-.164.085-.249.2-.116.162-.159.292-.129.314l.013,0c.046,0,.149-.1.239-.222a1.006,1.006,0,0,0,.124-.221.657.657,0,0,1-.113.222c-.1.135-.2.23-.25.23Z"/><path class="cls-10" d="M31.018,23.464h0c.037.026-.019.168-.125.316l0,0c-.106.148-.222.246-.259.22h0c-.036-.027.02-.168.126-.317l0,0c.106-.148.221-.246.258-.219Z"/><path d="M30.647,24.014l-.017,0a.1.1,0,0,1,0-.03v.005l.022.02c.046,0,.149-.1.24-.222a.98.98,0,0,0,.124-.22.676.676,0,0,1-.113.222c-.1.135-.2.23-.251.23Zm-.022-.045a.588.588,0,0,1,.128-.284c.1-.135.2-.23.25-.23a.077.077,0,0,1,.01.028c-.078-.016-.164.084-.249.2a.7.7,0,0,0-.139.283Z"/><path class="cls-10" d="M31.169,22.305h0c.037.027-.02.168-.126.317l0,0c-.105.148-.221.246-.258.22h0c-.037-.027.02-.168.126-.317l0,0c.1-.148.221-.246.258-.22Z"/><path d="M30.8,22.855l-.018,0a.2.2,0,0,1,0-.026h0l.022.021c.046,0,.149-.095.24-.222a.614.614,0,0,0,.138-.294.526.526,0,0,1-.128.3c-.1.136-.2.23-.25.23Zm-.022-.049a.585.585,0,0,1,.128-.279c.1-.135.2-.23.25-.23a.046.046,0,0,1,.016.015l-.007,0c-.059,0-.16.094-.249.218a.741.741,0,0,0-.138.278Z"/><path class="cls-10" d="M31.272,22.373h0c.037.027-.02.169-.126.317l0,0c-.106.148-.221.246-.258.22h0c-.037-.027.019-.169.125-.317l0,0c.106-.148.222-.246.259-.219Z"/><path d="M30.9,22.922l-.018,0c-.045-.033.028-.191.124-.324s.2-.231.25-.231a.131.131,0,0,1,.009.028c-.072,0-.164.085-.249.2-.116.162-.16.292-.129.314l.013,0c.046,0,.149-.095.239-.222a.98.98,0,0,0,.124-.22.657.657,0,0,1-.113.222c-.1.135-.2.229-.25.229Z"/><path class="cls-10" d="M31.375,22.448h0c.036.027-.02.168-.126.317l0,0c-.106.148-.221.246-.258.22h0c-.037-.027.019-.168.125-.317l0,0c.106-.148.222-.246.259-.22Z"/><path d="M31,23l-.018,0c-.045-.034.028-.191.123-.324s.2-.23.251-.23a.107.107,0,0,1,.009.027c-.064,0-.164.084-.249.2-.116.163-.16.293-.13.315l.014,0c.046,0,.149-.1.239-.222a1.006,1.006,0,0,0,.124-.221.648.648,0,0,1-.113.222c-.1.136-.2.23-.25.23Z"/><path class="cls-10" d="M31.487,22.528h0c.036.026-.02.168-.126.316l0,0c-.106.148-.221.247-.258.22h0c-.037-.027.019-.168.125-.316l0,0c.107-.148.222-.246.259-.219Z"/><path d="M31.116,23.078l-.018,0c-.045-.033.028-.191.123-.324s.2-.23.251-.23a.115.115,0,0,1,.009.028c-.072-.013-.164.084-.249.2-.116.162-.16.292-.129.314l.013,0c.046,0,.149-.1.239-.221a1.026,1.026,0,0,0,.124-.22.668.668,0,0,1-.113.22c-.1.136-.2.231-.25.231Z"/><path class="cls-10" d="M31.57,22.6h0c.037.027-.019.168-.125.317l0,0c-.106.148-.222.246-.259.219h0c-.036-.027.02-.169.126-.317l0,0c.106-.148.222-.246.258-.22Z"/><path d="M31.2,23.15l-.017,0c-.045-.033.027-.19.123-.324s.2-.23.251-.23a.057.057,0,0,1,.015.016l-.006,0c-.06,0-.161.094-.249.218-.116.162-.16.292-.13.314l.013,0c.047,0,.149-.095.24-.222a.61.61,0,0,0,.138-.3.519.519,0,0,1-.128.3c-.1.135-.2.23-.25.23Z"/><path class="cls-10" d="M32.127,22.916h0c.037.027-.02.168-.126.316l0,0c-.106.148-.221.246-.258.219h0c-.037-.027.019-.169.125-.317l0,0c.107-.148.222-.247.259-.22Z"/><path d="M31.756,23.466l-.018-.005c-.045-.033.028-.19.124-.324s.2-.23.25-.23a.054.054,0,0,1,.015.015l-.005,0c-.06,0-.161.094-.25.218-.116.163-.159.293-.129.315l.013,0c.046,0,.149-.1.24-.222a.647.647,0,0,0,.138-.29.541.541,0,0,1-.128.291c-.1.135-.2.23-.25.23Z"/><path class="cls-10" d="M32.041,22.886h0c.037.026-.02.168-.125.316l0,0c-.106.148-.222.247-.259.22h0c-.036-.027.02-.168.126-.316l0,0c.106-.148.222-.246.258-.219Z"/><path d="M31.67,23.436l-.017,0c-.045-.034.027-.191.123-.324s.2-.23.25-.23a.088.088,0,0,1,.01.027c-.068,0-.164.085-.25.2-.116.162-.159.292-.129.314l.013,0c.046,0,.149-.1.24-.222a1.039,1.039,0,0,0,.123-.221.627.627,0,0,1-.113.221c-.1.136-.2.231-.25.231Z"/><path class="cls-10" d="M31.965,22.846h0c.036.027-.02.168-.126.316l0,0c-.106.148-.222.247-.258.22h0c-.036-.027.02-.168.126-.316l0,0c.106-.147.222-.246.259-.219Z"/><path d="M31.594,23.4l-.018-.005c-.045-.033.028-.19.123-.324s.2-.23.251-.23a.131.131,0,0,1,.009.028c-.075-.015-.164.084-.249.2-.116.163-.16.292-.13.314l.014,0c.046,0,.149-.095.239-.221a1,1,0,0,0,.124-.22.672.672,0,0,1-.113.221c-.1.135-.2.23-.25.23Z"/><path class="cls-10" d="M31.86,22.776h0c.037.027-.019.169-.125.317l0,0c-.107.148-.222.247-.259.22h0c-.037-.027.02-.168.126-.316l0,0c.106-.148.221-.246.258-.219Z"/><path d="M31.489,23.326l-.018,0c-.044-.033.028-.191.124-.324s.2-.23.25-.23a.032.032,0,0,1,.014.014h0c-.06,0-.161.094-.249.218-.117.162-.16.292-.13.314l.013,0c.046,0,.149-.095.24-.221a.66.66,0,0,0,.139-.289.557.557,0,0,1-.128.29c-.1.137-.2.23-.251.23Z"/><path class="cls-10" d="M31.749,22.72h0c.037.027-.02.169-.126.317l0,0c-.106.148-.221.247-.258.22h0c-.037-.027.019-.168.125-.316l0,0c.107-.148.222-.246.259-.219Z"/><path d="M31.378,23.27l-.018,0c-.045-.034.028-.191.124-.324s.2-.23.25-.23a.043.043,0,0,1,.015.015l-.006,0c-.059,0-.16.094-.249.218-.116.162-.16.292-.129.314l.013,0c.046,0,.149-.1.239-.221a.643.643,0,0,0,.139-.291.535.535,0,0,1-.128.291c-.1.136-.2.231-.25.231Z"/><path class="cls-10" d="M31.661,22.659h0c.037.026-.02.168-.126.316l0,0c-.106.148-.222.247-.258.22h0c-.037-.027.019-.168.125-.316l0,0c.106-.148.222-.246.259-.219Z"/><path d="M31.29,23.209l-.018,0c-.045-.033.028-.191.124-.324s.2-.23.249-.23a.094.094,0,0,1,.01.028c-.069,0-.164.084-.249.2-.116.162-.16.292-.129.314l.013,0c.046,0,.149-.1.239-.221a1.026,1.026,0,0,0,.124-.22.672.672,0,0,1-.113.221c-.1.135-.2.23-.25.23Z"/><path class="cls-10" d="M30.785,23.31h0c.04.022,0,.17-.084.331l0,0c-.087.161-.189.273-.229.251h0c-.039-.022,0-.17.084-.33l0,0c.086-.16.189-.273.228-.251Z"/><path d="M30.483,23.9l-.014,0a.126.126,0,0,1-.009-.031l0,.007.021.018c.044,0,.136-.108.212-.251a.958.958,0,0,0,.1-.243.66.66,0,0,1-.086.243c-.082.153-.175.261-.223.261Zm-.023-.039a.572.572,0,0,1,.09-.3c.083-.153.175-.26.224-.26a.145.145,0,0,1,.011.025c-.064,0-.152.1-.224.235a.7.7,0,0,0-.1.3Z"/><path class="cls-10" d="M30.834,22.718h0c.037.026-.019.168-.125.316l0,0c-.106.148-.222.246-.259.22h0c-.037-.027.02-.169.126-.317l0,0c.106-.148.221-.246.258-.219Z"/><path d="M30.463,23.268l-.017,0c-.045-.033.027-.191.123-.324s.2-.231.25-.231a.054.054,0,0,1,.015.015h0c-.06,0-.161.094-.25.218-.116.162-.159.292-.129.314l.013,0c.046,0,.149-.095.24-.222a.653.653,0,0,0,.139-.288.546.546,0,0,1-.129.289c-.1.136-.2.231-.25.231Z"/><path class="cls-10" d="M30.937,22.785h0c.037.027-.02.169-.125.317l0,0c-.105.148-.221.246-.258.219h0c-.037-.027.02-.169.126-.316l0,0c.106-.148.221-.246.258-.219Z"/><path d="M30.566,23.335l-.018-.006a.164.164,0,0,1,0-.025h0l.022.021c.046,0,.149-.095.24-.222a.66.66,0,0,0,.139-.289.552.552,0,0,1-.129.29c-.1.136-.2.231-.25.231Zm-.022-.051a.607.607,0,0,1,.128-.278c.1-.136.2-.23.25-.23a.032.032,0,0,1,.014.014h0c-.06,0-.161.094-.25.218a.752.752,0,0,0-.138.277Z"/><path class="cls-10" d="M31.04,22.861h0c.037.027-.02.169-.126.317l0,0c-.106.148-.222.246-.258.219h0c-.037-.027.02-.169.125-.317l0,0c.106-.148.222-.246.259-.219Z"/><path d="M30.669,23.411l-.018-.006c-.045-.032.028-.19.124-.323s.2-.231.25-.231a.04.04,0,0,1,.014.015h0c-.06,0-.161.094-.25.218-.116.162-.16.292-.129.314l.013,0c.046,0,.149-.095.24-.222a.66.66,0,0,0,.139-.289.552.552,0,0,1-.129.29c-.1.136-.2.231-.25.231Z"/><path class="cls-10" d="M31.152,22.94h0c.037.027-.02.168-.126.316l0,0c-.106.147-.222.246-.258.219h0c-.037-.026.02-.168.125-.316l0,0c.106-.148.222-.247.259-.22Z"/><path d="M30.781,23.49l-.018,0a.178.178,0,0,1,0-.026h0l.022.02c.046,0,.149-.095.24-.221a.667.667,0,0,0,.139-.291.552.552,0,0,1-.129.292c-.1.135-.2.23-.25.23Zm-.022-.05a.59.59,0,0,1,.128-.279c.1-.135.2-.23.25-.23a.054.054,0,0,1,.015.015l-.005,0c-.06,0-.161.094-.25.218a.748.748,0,0,0-.138.278Z"/><path class="cls-10" d="M31.235,23.013h0c.036.027-.02.169-.126.316l0,0c-.106.148-.222.246-.258.22h0c-.036-.027.02-.169.126-.317l0,0c.106-.148.222-.246.258-.219Z"/><path d="M30.864,23.563l-.017,0c-.045-.033.027-.191.123-.324s.2-.231.25-.231a.094.094,0,0,1,.01.028c-.068,0-.164.084-.249.2-.116.162-.16.292-.13.314l.013,0c.046,0,.149-.1.24-.222a.98.98,0,0,0,.124-.22.663.663,0,0,1-.113.221c-.1.136-.2.231-.251.231Z"/><path class="cls-10" d="M31.792,23.328h0c.037.027-.02.169-.125.317l0,0c-.105.148-.221.246-.258.219h0c-.037-.026.02-.168.126-.316l0,0c.106-.148.222-.246.258-.22Z"/><path d="M31.421,23.879l-.018-.006a.187.187,0,0,1,0-.025h0l.022.021c.046,0,.149-.095.24-.222a.636.636,0,0,0,.139-.291.539.539,0,0,1-.129.292c-.1.136-.2.231-.25.231Zm-.022-.051a.607.607,0,0,1,.128-.278c.1-.136.2-.231.25-.231a.049.049,0,0,1,.016.016l-.006,0c-.06,0-.161.094-.25.218a.738.738,0,0,0-.138.277Z"/><path class="cls-10" d="M31.706,23.3h0c.037.026-.019.168-.125.316l0,0c-.106.148-.222.247-.258.22h0c-.036-.027.02-.168.126-.316l0,0c.106-.148.222-.247.258-.22Z"/><path d="M31.335,23.848l-.017,0c-.045-.033.027-.19.123-.324s.2-.23.25-.23a.05.05,0,0,1,.015.014h0c-.06,0-.161.094-.249.218-.117.163-.16.292-.13.314l.013,0c.046,0,.149-.1.24-.221a.648.648,0,0,0,.139-.289.552.552,0,0,1-.129.29c-.1.135-.2.23-.25.23Z"/><path class="cls-10" d="M31.63,23.258h0c.037.027-.02.168-.126.316l0,0c-.106.148-.222.246-.258.219h0c-.037-.026.019-.168.125-.316l0,0c.106-.148.222-.247.259-.22Z"/><path d="M31.259,23.808l-.018,0a.109.109,0,0,1,0-.025h0l.022.021c.046,0,.149-.1.239-.222a.648.648,0,0,0,.139-.289.557.557,0,0,1-.128.29c-.1.135-.2.23-.25.23Zm-.022-.049a.588.588,0,0,1,.128-.28c.1-.135.2-.23.25-.23a.04.04,0,0,1,.014.015l-.005,0c-.059,0-.16.094-.249.218a.734.734,0,0,0-.138.279Z"/><path class="cls-10" d="M31.525,23.188h0c.037.027-.019.168-.125.316l0,.005c-.106.147-.222.245-.259.219h0c-.037-.026.019-.168.125-.316l0,0c.106-.148.222-.247.258-.22Z"/><path d="M31.154,23.738l-.017,0a.134.134,0,0,1,0-.03v0l.021.02c.046,0,.149-.1.24-.221a.643.643,0,0,0,.139-.291.551.551,0,0,1-.128.292c-.1.135-.2.23-.251.23Zm-.022-.046a.6.6,0,0,1,.128-.283c.1-.135.2-.23.25-.23a.043.043,0,0,1,.015.015l0,0c-.06,0-.16.094-.249.218a.721.721,0,0,0-.139.282Z"/><path class="cls-10" d="M31.414,23.132h0c.037.027-.02.168-.126.316l0,0c-.105.148-.221.246-.258.22h0c-.037-.026.02-.168.126-.316l0,0c.105-.149.221-.247.258-.22Z"/><path d="M31.043,23.682l-.018,0a.187.187,0,0,1,0-.025h0l.022.02c.046,0,.149-.095.24-.222a.617.617,0,0,0,.138-.293.535.535,0,0,1-.128.3c-.1.135-.2.23-.25.23Zm-.022-.05a.61.61,0,0,1,.128-.279c.1-.135.2-.23.25-.23a.054.054,0,0,1,.015.015l-.006,0c-.06,0-.16.1-.249.218a.748.748,0,0,0-.138.278Z"/><path class="cls-10" d="M31.326,23.071h0c.036.027-.02.168-.125.316l0,0c-.106.147-.221.246-.258.219h0c-.037-.026.019-.168.126-.316l0,0c.106-.148.221-.247.258-.22Z"/><path d="M30.955,23.621l-.018,0a.1.1,0,0,1,0-.03v.005l.022.021c.046,0,.149-.1.24-.222a.626.626,0,0,0,.138-.292.533.533,0,0,1-.128.293c-.1.137-.2.23-.25.23Zm-.023-.045a.6.6,0,0,1,.129-.284c.1-.135.2-.23.25-.23a.039.039,0,0,1,.015.016l-.006,0c-.059,0-.16.1-.249.218a.723.723,0,0,0-.139.283Z"/><path class="cls-13" d="M31.4,19.168h0c.061,0,.111.017.111.039v1.332c0,.022-.05.04-.111.04h0c-.062,0-.112-.018-.112-.04V19.207c0-.022.05-.039.112-.039Z"/><path d="M31.4,20.582h0c-.065,0-.115-.018-.115-.043V19.207c0-.048.232-.047.232,0v1.332c0,.025-.05.043-.115.043Zm0-1.411c-.067,0-.11.019-.11.036v1.332c0,.018.043.037.108.037h0c.064,0,.108-.019.108-.037V19.207c0-.017-.044-.036-.108-.036Z"/><polygon class="cls-11" points="31.161 19.702 30.515 20.142 30.93 19.608 31.346 19.51 31.161 19.702"/><path d="M30.518,20.147l-.008-.009.415-.534.42-.1-.179.2-.648.441Zm.824-.641-.41.109-.387.5.613-.417.184-.19Z"/><polygon class="cls-11" points="31.145 19.614 30.247 19.729 31.03 19.444 31.375 19.506 31.145 19.614"/><path d="M30.248,19.736l0-.013.783-.285.348.061-.228.121-.9.116Zm.781-.285-.724.264.839-.108.228-.108-.343-.048Z"/><polygon class="cls-11" points="31.6 19.647 31.849 20.139 31.453 19.766 31.343 19.495 31.6 19.647"/><path d="M31.844,20.144l-.395-.373-.112-.273.266.143.252.5-.011.008Zm-.5-.643.119.262.367.346-.232-.459L31.34,19.5Z"/><polygon class="cls-11" points="31.707 19.466 32.473 20.143 31.552 19.672 31.296 19.503 31.707 19.466"/><path d="M32.47,20.149l-.921-.471-.256-.17.414-.048.771.678-.008.011Zm-.767-.678-.406.039.259.157.874.446-.727-.642Z"/><polygon class="cls-11" points="31.096 19.533 30.178 19.202 31.081 19.211 31.384 19.534 31.096 19.533"/><path d="M31.4,19.541h-.3l-.92-.331.905,0,.318.336Zm-1.221-.332.92.318h.271l-.293-.312-.9-.007Z"/><polygon class="cls-11" points="31.002 19.269 30.566 18.712 31.216 19.126 31.37 19.548 31.002 19.269"/><path d="M31.384,19.567,31,19.274l-.437-.558.658.4.165.447Zm-.822-.849.445.547.35.265-.148-.4-.647-.41Z"/><polygon class="cls-11" points="31.151 19.152 30.897 18.52 31.367 19.038 31.347 19.543 31.151 19.152"/><path d="M31.352,19.568l-.207-.413-.255-.632.482.51-.02.535Zm-.46-1.044.265.625.184.368.02-.48-.469-.513Z"/><polygon class="cls-11" points="31.412 19.1 31.986 18.6 31.594 19.285 31.331 19.526 31.412 19.1"/><path d="M31.321,19.544l.084-.446.577-.5-.383.693-.278.256Zm.659-.947-.564.507-.075.4.248-.226.391-.684Z"/><polygon class="cls-11" points="31.589 19.167 32.328 19.02 31.672 19.439 31.327 19.529 31.589 19.167"/><path d="M31.311,19.54l.273-.377.743-.15-.651.432-.365.095Zm1.014-.526-.734.16-.248.344.328-.085.654-.419Z"/><polygon class="cls-11" points="31.586 19.32 32.489 19.448 31.645 19.589 31.368 19.508 31.586 19.32"/><path d="M31.645,19.6l-.278-.082.215-.2.908.126-.845.155Zm-.06-.27-.213.187.273.07.843-.142-.9-.115Z"/><polygon class="cls-11" points="31.254 19.757 30.942 20.031 31.127 19.701 31.351 19.518 31.254 19.757"/><path d="M30.946,20.036l-.01-.008.185-.33.226-.186-.086.248-.315.276Zm.4-.521-.214.191-.165.3.284-.249.095-.237Z"/><polygon class="cls-11" points="31.288 19.594 30.807 19.898 31.208 19.511 31.387 19.435 31.288 19.594"/><path d="M30.81,19.9,30.8,19.9l.4-.387.18-.077-.094.166-.481.3Zm.573-.469-.174.082-.368.357.444-.281.1-.158Z"/><polygon class="cls-11" points="31.512 19.537 31.871 20.037 31.438 19.639 31.341 19.447 31.512 19.537"/><path d="M31.868,20.041l-.433-.4-.1-.192.177.083.361.5-.007.007Zm-.529-.59.1.185.4.367-.333-.464-.169-.088Z"/><polygon class="cls-11" points="31.221 19.44 30.746 19.009 31.21 19.315 31.368 19.49 31.221 19.44"/><path d="M31.381,19.5l-.162-.055-.476-.432.469.3.169.188Zm-.637-.487.479.425.131.044-.147-.164-.463-.3Z"/><polygon class="cls-11" points="31.449 19.375 31.891 19.45 31.461 19.448 31.326 19.482 31.449 19.375"/><path d="M31.327,19.486l0-.007.124-.107.445.074-.431.006-.134.034Zm.122-.107-.108.095.119-.03.431,0-.442-.067Z"/><polygon class="cls-11" points="31.314 19.179 31.65 18.784 31.473 19.098 31.333 19.467 31.314 19.179"/><path d="M31.339,19.469l-.012,0-.019-.288.337-.4-.166.322-.14.368Zm.3-.689-.325.4.019.254.129-.341.177-.316Z"/><polygon class="cls-11" points="31.154 19.296 30.79 19.27 31.168 19.168 31.364 19.45 31.154 19.296"/><path d="M31.36,19.455l-.21-.153-.361-.025.377-.115.2.284-.01.009Zm-.2-.283-.371.1.363.014.182.131-.174-.249Z"/><polygon class="cls-11" points="31.216 19.643 30.587 19.901 31.111 19.573 31.344 19.509 31.216 19.643"/><path d="M30.589,19.906l0-.009.523-.328.235-.065-.124.142-.63.26Zm.752-.4-.229.072-.477.3.579-.237.127-.133Z"/><path class="cls-13" d="M27.949,19.5h0c.031.012.051.034.046.05l-.3.983c0,.016-.033.02-.064.008h0c-.03-.012-.051-.034-.046-.05l.3-.983c0-.016.033-.02.064-.008Z"/><path d="M27.664,20.551l-.035-.007c-.033-.013-.054-.036-.049-.054l.3-.983.068-.01c.032.013.053.036.048.054l-.3.983-.033.017Zm.284-1.048-.061.006-.3.983c0,.014.015.035.044.047l.034.009.027-.016.3-.983c0-.014-.017-.035-.045-.046Z"/><path class="cls-13" d="M27.334,19.408h0c.032,0,.058.013.058.03v1.039c0,.016-.026.03-.058.03h0c-.033,0-.058-.014-.058-.03V19.438c0-.017.025-.03.058-.03Z"/><path d="M27.335,20.51c-.035,0-.063-.014-.063-.033V19.438c0-.038.124-.037.124,0v1.039c0,.019-.027.033-.061.033Zm0-1.1c-.031,0-.056.012-.056.027v1.039c0,.015.025.027.055.027h0c.03,0,.055-.012.055-.027V19.438c0-.015-.025-.027-.055-.027Z"/><path class="cls-14" d="M26.975,18.846c.144-.043.253.046.3.239,0,.018.034.02.033.015-.024-.328.3-.6.5-.133.02.073-.1-.037-.173-.122-.094-.117-.222.025-.231.33-.008.069-.02.22-.02.22s-.106-.014-.108-.018-.088-.378-.244-.416c-.116-.018-.085.055-.223.085-.129.013-.125-.006-.029-.05.083,0,.137-.13.192-.15Z"/><path d="M27.39,19.4h0c-.108-.014-.11-.018-.111-.019a1.141,1.141,0,0,0-.126-.315,1.01,1.01,0,0,1,.129.3c.007.012.066.02.105.026,0-.023.013-.154.02-.217.009-.327.148-.442.236-.331a1.268,1.268,0,0,0,.111.11.679.679,0,0,1-.116-.106c-.083-.105-.216.01-.225.327-.008.07-.02.221-.02.221v0Zm-.079-.3-.026-.054a.564.564,0,0,1,.117-.259c.124-.135.3-.069.412.178a.02.02,0,0,1-.015.006c-.1-.259-.274-.308-.393-.179a.42.42,0,0,0-.095.308Zm-.561-.047-.019-.01a.419.419,0,0,0,.08,0,.228.228,0,0,0,.113-.056A.108.108,0,0,1,27,18.955a.149.149,0,0,1,.03.009.116.116,0,0,0-.1.028.236.236,0,0,1-.116.057.553.553,0,0,1-.062,0Zm-.026-.022c0-.01.02-.021.057-.038.049,0,.089-.047.123-.087a.22.22,0,0,1,.07-.063.2.2,0,0,1,.247.1.211.211,0,0,0-.245-.093.215.215,0,0,0-.067.061c-.036.041-.075.087-.126.089a.438.438,0,0,0-.059.032Z"/><path class="cls-14" d="M27,19.036c.146-.034.25.063.285.259,0,.017.033.022.033.017-.007-.329.453-.338.632.138.016.075-.016.069-.086-.02-.088-.123-.425-.34-.451-.036-.012.068-.032.218-.032.218a.922.922,0,0,1-.107-.026s-.067-.383-.22-.432c-.116-.026-.15.081-.29.1-.129,0-.124-.016-.026-.052.018,0,.206-.152.262-.168Z"/><path d="M27.388,19.616h0a.426.426,0,0,1-.109-.027,1.036,1.036,0,0,0-.127-.352.859.859,0,0,1,.13.338.254.254,0,0,0,.1.034c0-.022.021-.153.032-.215.011-.13.079-.157.134-.157a.507.507,0,0,1,.323.192c.048.062.068.071.076.071s.011-.016,0-.048c-.151-.4-.45-.43-.567-.311a.237.237,0,0,0-.059.172l-.019-.048a.417.417,0,0,1,.074-.128c.119-.123.423-.1.577.313.006.027.006.044,0,.052-.027,0-.053-.021-.091-.07a.5.5,0,0,0-.318-.189c-.076,0-.119.051-.128.152-.012.068-.032.218-.032.218v0Zm-.627-.357c-.084,0-.093-.007-.094-.014s.006-.019.074-.044a.571.571,0,0,0,.082-.055,1.139,1.139,0,0,1,.18-.114.205.205,0,0,1,.239.112.209.209,0,0,0-.237-.1,1,1,0,0,0-.178.113.616.616,0,0,1-.084.055c-.067.025-.07.034-.07.037s.005.009.067.009a.339.339,0,0,0,.169-.061.2.2,0,0,1,.114-.045l.029.01a.219.219,0,0,0-.139.04.343.343,0,0,1-.144.062Z"/><path class="cls-14" d="M27.042,19.263c.147-.02.244.085.265.283,0,.018.031.026.032.021.017-.328.312-.149.429.3.016.048-.092-.05-.155-.145-.078-.131-.138-.368-.185-.067-.018.067-.048.215-.048.215a.933.933,0,0,1-.105-.036s-.039-.388-.189-.45c-.112-.036-.179.265-.319.274-.129-.008-.123-.026-.023-.054.019,0,.241-.332.3-.343Z"/><path d="M27.766,19.885c-.023,0-.107-.086-.156-.159-.017-.029-.034-.064-.049-.1-.054-.113-.1-.174-.13.027-.018.068-.048.215-.048.215-.109-.029-.111-.033-.111-.034a.728.728,0,0,0-.153-.428.673.673,0,0,1,.157.415.3.3,0,0,0,.1.043s.028-.147.045-.212c.034-.212.083-.152.141-.029a.938.938,0,0,0,.05.1.5.5,0,0,0,.15.157v0c-.122-.477-.409-.6-.424-.311l-.018-.057c.028-.069.063-.114.117-.114.1,0,.254.176.33.472l-.005.017Zm-1-.222c-.087-.006-.1-.015-.1-.023s.008-.018.077-.037a.794.794,0,0,0,.087-.106c.077-.1.174-.23.211-.237a.271.271,0,0,1,.078.008.2.2,0,0,0-.043,0c-.068.009-.168.141-.242.237-.059.078-.082.107-.09.108-.068.019-.072.028-.072.03s.008.012.095.018c.068,0,.118-.079.167-.152s.084-.126.134-.126a.216.216,0,0,1,.044.025.091.091,0,0,0-.027-.015c-.078-.022-.1.057-.146.12s-.1.15-.172.154Z"/><path class="cls-13" d="M26.5,19.412h0c.03-.011.059-.007.065.009l.335.982c0,.016-.015.038-.045.049h0c-.03.01-.059.006-.065-.01l-.335-.982c0-.016.015-.037.045-.048Z"/><path d="M26.818,20.46l-.036-.017-.335-.982a.068.068,0,0,1,.047-.052l.07.011.335.983c.006.017-.015.04-.047.052l-.034.005ZM26.5,19.412v0a.08.08,0,0,0-.043.032l.334.995.03.016.031-.009c.029-.009.049-.03.044-.044l-.335-.982-.062-.01Z"/><path class="cls-14" d="M26.594,18.783c-.149.016-.216.14-.185.336.006.016-.024.032-.025.027-.1-.312-.435-.3-.448.2.009.076.076-.069.114-.176.042-.144.146-.2.27.081.034.06.1.2.1.2a1.1,1.1,0,0,0,.093-.059s-.063-.382.066-.478a.485.485,0,0,1,.245-.084c.123-.038.112-.055.007-.057-.018,0-.181.009-.24.012Z"/><path d="M26.421,19.454v0s-.068-.135-.1-.2c-.073-.163-.132-.2-.168-.2s-.075.042-.1.116c-.02.056-.077.2-.106.2v-.022c.026,0,.066-.083.1-.18.051-.174.172-.154.276.08.031.055.091.172.1.193a.91.91,0,0,0,.089-.056c-.033-.261-.009-.423.068-.48a.443.443,0,0,1,.22-.08c.107-.03.112-.04.112-.043s-.007-.01-.079-.012c-.014,0-.129.007-.2.01a.226.226,0,0,0-.18.076.342.342,0,0,0-.041.259l-.023-.031a.409.409,0,0,1,.059-.232.2.2,0,0,1,.146-.076c.111-.005.225-.01.24-.012.073,0,.084.009.085.017s-.009.02-.092.046a.491.491,0,0,0-.243.084c-.073.054-.1.219-.066.462,0,.016,0,.02-.094.075l0,0Zm-.441-.35c.074-.217.227-.2.322-.106-.1-.087-.244-.1-.322.106Z"/><path class="cls-14" d="M26.639,18.969c-.146.025-.206.154-.164.349.007.016-.022.034-.023.029-.12-.306-.451-.276-.435.234.014.075.073-.075.1-.184.033-.148.134-.209.273.062.038.058.113.189.113.189s.089-.06.09-.065-.085-.379.038-.484a.481.481,0,0,1,.238-.1c.121-.047.109-.062,0-.058-.019,0-.18.022-.239.028Z"/><path d="M26.506,19.653l0,0s-.075-.131-.112-.189c-.08-.155-.139-.187-.174-.187s-.076.045-.094.123c-.017.058-.065.207-.095.207l0-.021c.026,0,.062-.087.091-.187.041-.178.162-.167.279.062.034.052.1.166.111.186a.94.94,0,0,0,.086-.062c-.029-.15-.059-.4.039-.485a.438.438,0,0,1,.217-.1c.1-.038.107-.049.107-.051s0-.008-.051-.008l-.267.029a.2.2,0,0,0-.135.083.341.341,0,0,0-.026.262l-.025-.029a.409.409,0,0,1,.046-.237.2.2,0,0,1,.14-.085c.058-.006.22-.024.238-.028.072,0,.085.005.086.012s-.008.021-.089.052a.489.489,0,0,0-.237.1c-.1.081-.066.33-.039.471,0,.013,0,.017-.089.078l0,0Zm-.481-.206a.382.382,0,0,1,.088-.246.173.173,0,0,1,.253.006.179.179,0,0,0-.249,0,.418.418,0,0,0-.092.242Z"/><path class="cls-14" d="M26.691,19.194c-.144.038-.193.172-.137.364.008.015-.019.035-.021.031-.141-.3-.467-.237-.413.272.02.074.066-.081.089-.194.022-.151.117-.22.276.039.041.055.126.18.126.18s.083-.068.084-.073-.112-.374,0-.489a.479.479,0,0,1,.228-.121c.116-.058.1-.072,0-.058-.018,0-.176.037-.234.049Z"/><path d="M26.61,19.89l0,0s-.084-.124-.126-.18c-.087-.141-.146-.171-.181-.171s-.076.048-.089.132c0,0-.044.215-.079.215l0-.021c.025,0,.055-.091.076-.195.027-.183.147-.182.281.037.038.05.112.158.124.177.031-.025.078-.064.081-.069-.04-.148-.089-.4,0-.49a.45.45,0,0,1,.2-.114.606.606,0,0,0,.1-.052c0,.012-.023.026-.072.049a.5.5,0,0,0-.227.121c-.065.067-.067.24,0,.477,0,.012,0,.016-.082.085l0,0Zm-.492-.163a.382.382,0,0,1,.076-.263.172.172,0,0,1,.253,0,.18.18,0,0,0-.249,0,.411.411,0,0,0-.08.259Zm.439-.17-.027-.026a.427.427,0,0,1,.028-.243.207.207,0,0,1,.132-.1c.058-.011.216-.043.234-.049a.467.467,0,0,1,.057,0l.013.009a.254.254,0,0,0-.069,0c-.017,0-.176.037-.233.049a.194.194,0,0,0-.128.094.35.35,0,0,0-.007.266Z"/><path class="cls-14" d="M27.834,18.712c.148.013.223.138.208.337-.005.017.026.032.027.027.077-.318.463-.451.514.063,0,.077-.08-.071-.126-.179-.053-.146-.216-.06-.317.223-.029.062-.086.2-.086.2s-.095-.053-.1-.057.033-.389-.1-.484c-.1-.061-.1.019-.236,0s-.116-.053-.012-.058c.079.027.169-.07.227-.068Z"/><path d="M28.055,19.388l0,0c-.1-.053-.1-.058-.1-.06.007-.125.01-.4-.1-.482a.141.141,0,0,0-.067-.022.327.327,0,0,1-.168.019c-.085-.024-.1-.036-.095-.045s.012-.016.083-.019a.217.217,0,0,0,.141-.036.2.2,0,0,1,.084-.033.216.216,0,0,1,.2.168.223.223,0,0,0-.2-.161h0a.2.2,0,0,0-.083.031.256.256,0,0,1-.115.042h0c-.1,0-.105.006-.105.009s.005.013.089.038a.22.22,0,0,0,.123-.01h0l.044-.01a.146.146,0,0,1,.07.024c.109.077.112.333.1.478a.341.341,0,0,0,.091.062c.009-.021.059-.141.085-.2.113-.315.275-.355.323-.223a1.349,1.349,0,0,0,.075.152.762.762,0,0,1-.08-.15c-.048-.13-.2-.083-.312.223-.029.063-.086.2-.086.2l0,0Zm.522-.246h0c-.018-.221-.1-.343-.223-.343a.333.333,0,0,0-.278.279.648.648,0,0,0-.008-.067.373.373,0,0,1,.286-.218c.126,0,.215.13.237.347l-.01,0Z"/><path class="cls-14" d="M27.8,18.9c.147.023.216.153.19.35-.006.017.024.034.025.03.094-.313.53-.149.553.367-.008.077-.036.059-.075-.051-.045-.149-.3-.48-.413-.2-.033.06-.1.193-.1.193s-.092-.059-.093-.064.054-.386-.075-.49c-.1-.067-.166.02-.3-.013-.122-.045-.112-.061-.009-.058.019,0,.24-.066.3-.06Z"/><path d="M28.552,19.7c-.015,0-.035-.034-.058-.1-.033-.108-.175-.308-.29-.308-.049,0-.089.036-.118.1s-.1.194-.1.194c-.1-.059-.1-.064-.1-.066.016-.154.027-.406-.074-.487a.182.182,0,0,0-.148-.017.33.33,0,0,1-.154,0c-.084-.03-.093-.043-.092-.051s.028-.01.067-.014a.492.492,0,0,0,.112-.02,1.1,1.1,0,0,1,.2-.04.224.224,0,0,1,.2.179A.23.23,0,0,0,27.8,18.9h0a1.119,1.119,0,0,0-.2.039.667.667,0,0,1-.095.021h0c-.072.008-.079.007-.079.008s0,.014.088.044a.327.327,0,0,0,.15,0,.182.182,0,0,1,.153.018c.1.083.093.338.078.482,0,.014.057.05.091.072a2.025,2.025,0,0,1,.093-.193c.03-.071.071-.108.123-.108.122,0,.263.2.295.313.031.086.047.1.053.1s.012,0,.016-.044c-.015-.322-.2-.522-.363-.522a.193.193,0,0,0-.184.155q0-.03,0-.06a.243.243,0,0,1,.187-.1c.17,0,.354.2.369.529,0,.034-.01.05-.022.05Z"/><path class="cls-14" d="M27.77,19.129c.144.036.2.171.163.366-.007.016.021.036.023.031.116-.3.34-.022.312.446,0,.051-.071-.081-.1-.194-.034-.153-.017-.4-.153-.134-.037.057-.111.184-.111.184a1.114,1.114,0,0,1-.088-.072s.082-.38-.04-.5c-.1-.076-.249.182-.385.138-.118-.056-.107-.071,0-.059.018,0,.327-.222.385-.211Z"/><path d="M28.264,19.987c-.02,0-.075-.115-.1-.209-.007-.034-.012-.072-.017-.109-.017-.127-.04-.2-.13-.023-.037.056-.111.184-.111.184-.094-.067-.094-.072-.094-.074a1.414,1.414,0,0,0,.026-.293,1.058,1.058,0,0,1-.019.284c0,.013.054.054.086.079,0,0,.07-.128.106-.184.1-.19.124-.108.142.026,0,.037.01.075.017.109a.542.542,0,0,0,.095.2l0,0v-.011a.78.78,0,0,0-.118-.53c-.067-.072-.14-.039-.188.086,0-.021,0-.042,0-.062.09-.1.139-.083.191-.028a.782.782,0,0,1,.121.534l-.008.015Zm-.842-.58-.028-.011a.307.307,0,0,0,.2-.08.291.291,0,0,1,.141-.072l.019.017a.224.224,0,0,0-.156.06.333.333,0,0,1-.176.086Zm-.046-.018c-.07-.029-.076-.04-.075-.047a.237.237,0,0,1,.084,0h0a.788.788,0,0,0,.115-.069,1.045,1.045,0,0,1,.265-.143.225.225,0,0,1,.178.2.232.232,0,0,0-.174-.189h0a.972.972,0,0,0-.267.143.624.624,0,0,1-.116.068.412.412,0,0,0-.053,0c-.025.007-.022.018.043.05Z"/><path d="M29.414,25.473l-.014-.006c-2.125-.9-3.46-2.015-3.551-4.79V15.97h7.059v4.705c0,2.332-.975,3.675-3.479,4.791l-.015.007Zm-3.49-9.428v4.63c.089,2.74,1.347,3.807,3.49,4.716,2.46-1.1,3.419-2.424,3.419-4.716v-4.63Z"/></g></g></svg>