<?xml version="1.0" encoding="UTF-8"?><svg id="a" xmlns="http://www.w3.org/2000/svg" viewBox="0 0 40 40"><g><path d="M28.5,3.5H11.5C7.082,3.5,3.5,7.082,3.5,11.5V28.5c0,4.418,3.582,8,8,8H28.5c4.418,0,8-3.582,8-8V11.5c0-4.418-3.582-8-8-8Zm4.4,25c0,2.426-1.974,4.4-4.4,4.4H11.5c-2.426,0-4.4-1.974-4.4-4.4V11.5c0-2.426,1.974-4.4,4.4-4.4H28.5c2.426,0,4.4,1.974,4.4,4.4V28.5Z" fill="#afb7c0"/><polygon points="14.505 29.009 18.345 29.009 18.345 22.504 25.329 22.504 25.329 19.288 18.345 19.288 18.345 14.295 26.218 14.295 26.218 11.103 14.505 11.103 14.505 29.009" fill="#afb7c0"/></g><rect width="40" height="40" fill="none"/></svg>