<svg id="Layer_1" data-name="Layer 1" xmlns="http://www.w3.org/2000/svg" xmlns:xlink="http://www.w3.org/1999/xlink" viewBox="0 0 40 40"><defs><style>.cls-1{fill:none;}.cls-2{clip-path:url(#clip-path);}.cls-3{fill:#488a40;}.cls-4{fill:#f0da28;}</style><clipPath id="clip-path"><rect class="cls-1" x="0.691" y="8.992" width="38.618" height="22.016" rx="4"/></clipPath></defs><g class="cls-2"><polygon class="cls-3" points="4.289 31.008 35.711 31.008 20 22.052 4.289 31.008"/><polygon class="cls-3" points="35.711 8.992 4.289 8.992 20 17.949 35.711 8.992"/><polygon points="0.691 28.957 16.401 20 0.691 11.043 0.691 28.957"/><polygon points="39.309 28.957 39.309 11.043 23.598 20 39.309 28.957"/><polygon class="cls-4" points="0.691 31.008 0.691 31.008 4.289 31.008 20 22.052 35.711 31.008 39.309 31.008 20 20 0.691 31.008"/><polygon class="cls-4" points="35.711 8.992 20 17.949 4.289 8.992 0.691 8.992 20 20 39.309 8.992 35.711 8.992"/><polygon class="cls-4" points="39.309 8.992 20 20 39.309 31.008 39.309 28.957 23.598 20 39.309 11.043 39.309 8.992"/><polygon class="cls-4" points="0.691 11.043 16.401 20 0.691 28.957 0.691 31.008 20 20 0.691 8.992 0.691 11.043"/></g></svg>