<svg id="Layer_1" data-name="Layer 1" xmlns="http://www.w3.org/2000/svg" xmlns:xlink="http://www.w3.org/1999/xlink" viewBox="0 0 40 40"><defs><style>.cls-1{fill:none;}.cls-2{clip-path:url(#clip-path);}.cls-3{fill:#e5e8eb;}.cls-4{clip-path:url(#clip-path-2);}.cls-5{fill:#b41e3b;}.cls-6{fill:#273775;}</style><clipPath id="clip-path"><rect class="cls-1" x="0.691" y="8.992" width="38.618" height="22.016" rx="4"/></clipPath><clipPath id="clip-path-2"><rect class="cls-1" x="0.691" y="8.992" width="38.618" height="22.016"/></clipPath></defs><g class="cls-2"><rect class="cls-3" x="0.691" y="8.992" width="38.618" height="22.016"/><polygon points="26.248 12.622 27.68 14.721 26.899 15.23 25.467 13.13 26.248 12.622"/><polygon points="27.94 15.102 29.372 17.201 28.591 17.71 27.159 15.611 27.94 15.102"/><polygon points="27.42 11.859 30.543 16.438 29.763 16.947 26.639 12.367 27.42 11.859"/><polygon points="28.591 11.095 30.023 13.194 29.242 13.703 27.81 11.604 28.591 11.095"/><polygon points="30.283 13.576 31.715 15.675 30.934 16.184 29.502 14.085 30.283 13.576"/><polygon points="11.409 22.29 14.533 26.87 13.752 27.378 10.628 22.799 11.409 22.29"/><polygon points="10.237 23.053 11.669 25.152 10.888 25.661 9.457 23.562 10.237 23.053"/><polygon points="11.929 25.534 13.361 27.633 12.58 28.142 11.149 26.043 11.929 25.534"/><polygon points="9.066 23.816 12.19 28.396 11.409 28.905 8.285 24.325 9.066 23.816"/><polygon points="10.628 17.201 13.752 12.622 14.533 13.131 11.409 17.71 10.628 17.201"/><polygon points="9.457 16.438 12.58 11.859 13.361 12.367 10.237 16.947 9.457 16.438"/><polygon points="8.285 15.675 11.409 11.095 12.19 11.604 9.066 16.184 8.285 15.675"/><polygon points="25.467 26.87 26.899 24.771 27.68 25.279 26.248 27.378 25.467 26.87"/><polygon points="27.159 24.389 28.591 22.29 29.372 22.799 27.94 24.898 27.159 24.389"/><polygon points="26.639 27.633 28.071 25.534 28.851 26.043 27.42 28.142 26.639 27.633"/><polygon points="28.331 25.152 29.763 23.053 30.543 23.562 29.112 25.661 28.331 25.152"/><polygon points="27.81 28.396 29.242 26.297 30.023 26.806 28.591 28.905 27.81 28.396"/><polygon points="29.502 25.915 30.934 23.816 31.715 24.325 30.283 26.424 29.502 25.915"/><g class="cls-4"><path class="cls-5" d="M15.314,16.947c-.021.03-.041.059-.06.09.02-.031.039-.06.06-.09"/><path class="cls-5" d="M23.124,15.42a5.713,5.713,0,0,0-7.81,1.527,2.713,2.713,0,0,0,.781,3.816A2.855,2.855,0,0,0,20,20a2.856,2.856,0,0,1,3.905-.763,2.713,2.713,0,0,1,.781,3.816,5.429,5.429,0,0,0-1.562-7.633"/><path class="cls-6" d="M15.314,16.947a2.713,2.713,0,0,0,.781,3.816A2.855,2.855,0,0,0,20,20a2.856,2.856,0,0,1,3.905-.763,2.713,2.713,0,0,1,.781,3.816,5.713,5.713,0,0,1-7.81,1.527,5.429,5.429,0,0,1-1.562-7.633"/></g></g></svg>