<?xml version="1.0" encoding="UTF-8"?><svg id="Layer_1" xmlns="http://www.w3.org/2000/svg" viewBox="0 0 40 40"><g><path d="m28.5,3.5H11.5C7.082,3.5,3.5,7.082,3.5,11.5v17c0,4.418,3.582,8,8,8h17c4.418,0,8-3.582,8-8V11.5c0-4.418-3.582-8-8-8Zm4.4,25c0,2.426-1.974,4.4-4.4,4.4H11.5c-2.426,0-4.4-1.974-4.4-4.4V11.5c0-2.426,1.974-4.4,4.4-4.4h17c2.426,0,4.4,1.974,4.4,4.4v17Z" fill="#afb7c0"/><path d="m27.009,16.936c0-3.432-2.376-5.833-6.336-5.833h-7.225v17.906h3.84v-6.36h2.592l3.864,6.36h4.344l-4.488-6.865c1.944-.864,3.408-2.736,3.408-5.208Zm-7.465,2.641h-2.256v-5.329h2.256c2.329,0,3.504.984,3.504,2.664,0,1.752-1.176,2.665-3.504,2.665Z" fill="#afb7c0"/></g><rect width="40" height="40" fill="none"/></svg>