<svg id="Layer_1" data-name="Layer 1" xmlns="http://www.w3.org/2000/svg" xmlns:xlink="http://www.w3.org/1999/xlink" viewBox="0 0 40 40"><defs><style>.cls-1{fill:none;}.cls-2{clip-path:url(#clip-path);}.cls-3{fill:#d91d42;}.cls-4{fill:#e5e8eb;}.cls-5{clip-path:url(#clip-path-2);}</style><clipPath id="clip-path"><rect class="cls-1" x="1.087" y="8.916" width="37.825" height="22.169" rx="4"/></clipPath><clipPath id="clip-path-2"><rect class="cls-1" x="1.087" y="8.916" width="37.825" height="22.169"/></clipPath></defs><g class="cls-2"><rect class="cls-3" x="1.087" y="8.916" width="37.825" height="11.084"/><rect class="cls-4" x="1.087" y="20" width="37.825" height="11.084"/><g class="cls-5"><path class="cls-4" d="M12.439,14.458A4.149,4.149,0,1,1,8.29,10.29a4.159,4.159,0,0,1,4.149,4.168"/><path class="cls-3" d="M13.743,14.458a3.921,3.921,0,1,1-3.921-3.939,3.93,3.93,0,0,1,3.921,3.939"/><polygon class="cls-4" points="8.804 14.559 8.241 14.124 7.677 14.559 7.893 13.858 7.328 13.426 8.026 13.428 8.24 12.727 8.455 13.428 9.152 13.426 8.587 13.858 8.804 14.559"/><polygon class="cls-4" points="13.226 14.559 12.663 14.124 12.099 14.559 12.315 13.858 11.75 13.426 12.448 13.428 12.662 12.727 12.877 13.428 13.574 13.426 13.009 13.858 13.226 14.559"/><polygon class="cls-4" points="11.017 12.91 10.454 12.475 9.89 12.91 10.107 12.209 9.542 11.778 10.239 11.779 10.453 11.078 10.668 11.779 11.365 11.777 10.8 12.209 11.017 12.91"/><polygon class="cls-4" points="9.631 17.197 9.067 16.763 8.504 17.197 8.721 16.497 8.155 16.065 8.853 16.067 9.067 15.365 9.281 16.067 9.98 16.065 9.414 16.497 9.631 17.197"/><polygon class="cls-4" points="12.398 17.197 11.835 16.763 11.272 17.197 11.489 16.497 10.923 16.065 11.621 16.067 11.835 15.365 12.049 16.067 12.746 16.065 12.181 16.497 12.398 17.197"/></g></g></svg>