<svg id="Layer_1" data-name="Layer 1" xmlns="http://www.w3.org/2000/svg" viewBox="0 0 40 40"><defs><style>.cls-1{fill:#afb7c0;}.cls-2{fill:none;}</style></defs><path class="cls-1" d="M28.5,7.1a4.405,4.405,0,0,1,4.4,4.4v17a4.405,4.405,0,0,1-4.4,4.4h-17a4.405,4.405,0,0,1-4.4-4.4v-17a4.405,4.405,0,0,1,4.4-4.4h17m0-3.6h-17a8,8,0,0,0-8,8v17a8,8,0,0,0,8,8h17a8,8,0,0,0,8-8v-17a8,8,0,0,0-8-8Z"/><path class="cls-1" d="M19.521,26.1c1.44,0,2.256-1.007,2.256-2.855V11.1h3.817V23.152c0,4.033-2.041,6.217-6.169,6.217-3.384,0-6.12-1.993-6.481-5.449h4.177A2.19,2.19,0,0,0,19.521,26.1Z"/><rect class="cls-2" width="40" height="40"/></svg>