<?xml version="1.0" encoding="UTF-8"?><svg id="a" xmlns="http://www.w3.org/2000/svg" viewBox="0 0 40 40"><path d="M2,28c0,2.209,1.791,4,4,4h28c2.209,0,4-1.791,4-4v-4H2v4Z" fill="#06a237"/><path d="M34.005,8H5.995c-2.207,0-3.995,1.789-3.995,3.995v4.005H38v-4.005c0-2.207-1.789-3.995-3.995-3.995Zm-7.224,4.44c.101,.142-.078,.346-.295,.496-.52,.359-.837,.483-1.701,.88,.674-.665,.901-.913,1.423-1.272,.135-.094,.285-.167,.403-.173,.072-.004,.132,.017,.17,.07Zm-.442-.564c.114,.132-.044,.35-.246,.517-.487,.403-.792,.555-1.618,1.025,.613-.72,.817-.989,1.303-1.392,.139-.115,.299-.205,.421-.208,.056,0,.104,.016,.139,.058Zm-.487-.526c.124,.123-.014,.354-.2,.537-.45,.443-.741,.621-1.522,1.16,.547-.77,.727-1.057,1.177-1.499,.14-.138,.307-.25,.434-.245,.042,.002,.08,.017,.111,.047Zm-.532-.48c.134,.112,.018,.354-.152,.552-.409,.48-.682,.681-1.413,1.285,.477-.813,.631-1.115,1.04-1.595,.127-.149,.284-.273,.412-.28,.042-.002,.08,.01,.114,.038Zm-.659-.463c.03,0,.059,.01,.086,.028,.144,.1,.047,.352-.104,.565-.364,.513-.616,.738-1.29,1.403,.403-.852,.527-1.164,.893-1.678,.122-.173,.283-.322,.415-.318Zm-.611-.375c.031,0,.061,.004,.089,.02,.152,.087,.078,.345-.053,.57-.318,.543-.552,.79-1.164,1.51,.325-.883,.425-1.208,.743-1.75,.107-.183,.253-.343,.385-.351Zm-.61-.323c.02,0,.038,.007,.058,.015,.16,.073,.112,.337,0,.573-.268,.568-.48,.832-1.027,1.602,.247-.907,.317-1.237,.586-1.805,.097-.206,.241-.391,.383-.385Zm-.669-.267c.02,0,.04,.002,.061,.01,.165,.059,.138,.325,.048,.57-.218,.589-.404,.871-.88,1.685,.166-.925,.206-1.26,.423-1.85,.079-.214,.206-.409,.348-.414Zm-.659-.211c.01,0,.022,.002,.032,.005,.17,.045,.168,.314,.099,.565-.165,.606-.327,.903-.73,1.755,.083-.936,.094-1.275,.259-1.88,.064-.236,.185-.456,.34-.445Zm-1.004,.323c.043-.24,.144-.469,.299-.472l.033,.002c.173,.031,.193,.297,.147,.553-.111,.617-.245,.927-.57,1.81,0-.94-.02-1.275,.091-1.893Zm-.672-.067c.023-.259,.112-.512,.286-.498,.175,.015,.221,.281,.198,.54-.055,.624-.161,.945-.408,1.853-.083-.937-.132-1.271-.076-1.895Zm-.433-.528c.175,0,.243,.26,.243,.52,0,.627-.077,.954-.243,1.88-.167-.926-.244-1.253-.244-1.88,0-.26,.068-.52,.244-.52Zm-.72,.03c.174-.015,.264,.239,.286,.498,.055,.624,.007,.958-.076,1.895-.246-.908-.353-1.229-.408-1.853-.024-.259,.023-.524,.198-.54Zm-.718,.094l.033-.002c.155,.003,.256,.233,.299,.472,.111,.617,.091,.953,.091,1.893-.326-.883-.46-1.193-.57-1.81-.046-.256-.026-.522,.147-.553Zm-.704,.153c.011-.003,.023-.004,.032-.005,.155-.011,.276,.21,.34,.445,.165,.605,.175,.944,.259,1.88-.403-.852-.565-1.15-.73-1.755-.069-.251-.072-.52,.099-.565Zm-.688,.216c.021-.008,.041-.01,.062-.01,.141,.006,.268,.201,.347,.414,.218,.589,.258,.925,.423,1.85-.476-.813-.662-1.095-.88-1.685-.09-.245-.117-.511,.048-.57Zm-.666,.272c.02-.009,.038-.014,.058-.015,.142-.006,.286,.18,.383,.385,.268,.568,.339,.897,.586,1.805-.547-.77-.758-1.034-1.027-1.602-.112-.236-.16-.499,0-.573Zm-.642,.327c.019-.01,.038-.017,.059-.02,.14-.018,.3,.154,.415,.351,.318,.542,.416,.867,.743,1.75-.612-.72-.846-.967-1.164-1.51-.131-.225-.205-.483-.053-.57Zm-.609,.383c.026-.018,.056-.027,.086-.028,.132-.004,.293,.145,.415,.318,.365,.514,.49,.826,.893,1.678-.674-.665-.926-.89-1.29-1.403-.151-.213-.248-.466-.104-.565Zm-.573,.435c.025-.021,.053-.034,.083-.038,.132-.014,.304,.119,.442,.28,.409,.48,.562,.781,1.04,1.595-.731-.604-1.004-.805-1.413-1.285-.17-.199-.286-.441-.152-.552Zm-.532,.48c.03-.031,.069-.045,.111-.047,.127-.005,.294,.107,.434,.245,.45,.443,.63,.729,1.177,1.499-.781-.539-1.072-.717-1.522-1.16-.186-.184-.324-.414-.2-.537Zm-.487,.526c.035-.042,.083-.059,.139-.058,.122,.003,.282,.093,.421,.208,.487,.403,.69,.672,1.303,1.392-.826-.469-1.131-.622-1.618-1.025-.202-.167-.36-.385-.246-.517Zm-.442,.564c.032-.043,.079-.066,.135-.07,.122-.008,.29,.07,.438,.173,.521,.359,.749,.608,1.423,1.272-.864-.397-1.181-.521-1.701-.88-.216-.15-.395-.354-.295-.496Zm-.664,2.961c-.034-.009-.068-.016-.104-.025-.255-.067-.492-.2-.446-.368,.028-.104,.145-.142,.291-.14,.088,.002,.186,.017,.282,.042,.476,.127,.771,.255,1.281,.491h-1.304Zm.079-.668c-.248-.089-.471-.24-.411-.403,.03-.081,.113-.118,.219-.12,.106-.003,.236,.028,.36,.073,.598,.215,.884,.397,1.71,.867-.94-.163-1.28-.204-1.876-.417Zm.24-.625c-.238-.11-.449-.278-.375-.436,.037-.078,.122-.106,.228-.099,.107,.006,.233,.044,.353,.099,.576,.265,.845,.474,1.626,1.012-.921-.242-1.255-.312-1.831-.577Zm.292-.6c-.228-.13-.422-.318-.335-.468,.033-.057,.092-.08,.163-.083,.119-.004,.273,.054,.416,.135,.55,.313,.801,.543,1.532,1.148-.897-.322-1.225-.419-1.776-.732Zm1.899,1.893c.719-2.005,2.656-3.44,4.935-3.44s4.215,1.436,4.935,3.44H15.065Zm11.526-2.308c.142-.081,.297-.139,.415-.135,.07,.003,.129,.026,.163,.083,.087,.15-.107,.337-.335,.468-.551,.313-.879,.411-1.775,.732,.731-.605,.982-.835,1.532-1.148Zm.329,.58c.12-.055,.246-.094,.353-.099,.106-.007,.191,.021,.228,.099,.073,.158-.137,.326-.375,.436-.576,.265-.91,.334-1.831,.577,.781-.539,1.049-.748,1.626-1.012Zm.279,.611c.123-.044,.254-.075,.36-.073,.107,.002,.188,.039,.219,.12,.06,.163-.164,.314-.412,.403-.597,.214-.937,.254-1.876,.417,.826-.47,1.112-.653,1.71-.867Zm.35,1.093c-.036,.01-.07,.017-.104,.025h-1.304c.51-.236,.804-.364,1.281-.491,.096-.025,.194-.041,.282-.042,.146-.002,.263,.036,.291,.14,.046,.168-.191,.301-.446,.368Z"/><g><polygon points="2 20 2 24 38 24 38 20 38 16 2 16 2 20" fill="#cf002e"/><path d="M20,11.961c-2.279,0-4.216,1.436-4.935,3.44h9.87c-.719-2.005-2.656-3.44-4.935-3.44Z" fill="#cf002e"/><path d="M18.985,11.448c0-.94,.02-1.275-.091-1.893-.043-.24-.144-.469-.299-.472l-.033,.002c-.173,.031-.193,.297-.147,.553,.111,.617,.244,.927,.57,1.81Z" fill="#cf002e"/><path d="M15.87,13.047c-.547-.77-.727-1.057-1.177-1.499-.14-.138-.307-.25-.434-.245-.042,.002-.08,.017-.111,.047-.124,.123,.014,.354,.2,.537,.45,.443,.741,.621,1.522,1.16Z" fill="#cf002e"/><path d="M12.296,14.867c-.146-.002-.263,.036-.291,.14-.046,.168,.191,.301,.446,.368,.036,.01,.07,.017,.104,.025h1.304c-.509-.236-.804-.364-1.281-.491-.096-.025-.194-.041-.282-.042Z" fill="#cf002e"/><path d="M13.514,12.936c.52,.359,.837,.483,1.701,.88-.674-.665-.901-.913-1.423-1.272-.148-.103-.315-.181-.438-.173-.056,.004-.103,.026-.135,.07-.1,.142,.078,.346,.295,.496Z" fill="#cf002e"/><path d="M13.907,12.393c.487,.403,.792,.555,1.618,1.025-.613-.72-.816-.989-1.303-1.392-.139-.115-.299-.205-.421-.208-.056,0-.104,.016-.139,.058-.114,.132,.044,.35,.246,.517Z" fill="#cf002e"/><path d="M16.245,12.708c-.477-.813-.631-1.115-1.04-1.595-.138-.161-.31-.295-.442-.28-.03,.004-.058,.017-.083,.038-.134,.112-.018,.354,.152,.552,.409,.48,.682,.681,1.413,1.285Z" fill="#cf002e"/><path d="M17.079,12.133c-.326-.883-.425-1.208-.743-1.75-.116-.197-.275-.369-.415-.351-.021,.003-.04,.01-.059,.02-.152,.087-.078,.345,.053,.57,.318,.543,.552,.79,1.164,1.51Z" fill="#cf002e"/><path d="M16.647,12.403c-.403-.852-.528-1.164-.893-1.678-.122-.173-.283-.322-.415-.318-.03,0-.06,.01-.086,.028-.144,.1-.047,.352,.104,.565,.364,.513,.616,.738,1.29,1.403Z" fill="#cf002e"/><path d="M27.169,13.041c-.033-.057-.092-.08-.163-.083-.119-.004-.273,.054-.415,.135-.551,.313-.802,.543-1.532,1.148,.897-.322,1.225-.419,1.775-.732,.228-.13,.422-.318,.335-.468Z" fill="#cf002e"/><path d="M27.501,13.672c-.037-.078-.122-.106-.228-.099-.107,.006-.233,.044-.353,.099-.576,.265-.845,.474-1.626,1.012,.921-.242,1.255-.312,1.831-.577,.238-.11,.449-.278,.375-.436Z" fill="#cf002e"/><path d="M27.778,14.33c-.03-.081-.112-.118-.219-.12-.106-.003-.236,.028-.36,.073-.598,.215-.884,.397-1.71,.867,.94-.163,1.28-.204,1.876-.417,.248-.089,.471-.24,.412-.403Z" fill="#cf002e"/><path d="M24.785,13.815c.864-.397,1.181-.521,1.701-.88,.217-.15,.396-.354,.295-.496-.038-.053-.099-.073-.17-.07-.118,.006-.268,.079-.403,.173-.521,.359-.749,.608-1.423,1.272Z" fill="#cf002e"/><path d="M27.704,14.867c-.088,.002-.186,.017-.282,.042-.476,.127-.771,.255-1.281,.491h1.304c.034-.009,.068-.016,.104-.025,.255-.067,.492-.2,.446-.368-.028-.104-.145-.142-.291-.14Z" fill="#cf002e"/><path d="M17.53,11.9c-.247-.907-.318-1.237-.586-1.805-.097-.206-.241-.391-.383-.385-.02,0-.038,.007-.058,.015-.16,.073-.112,.337,0,.573,.268,.568,.48,.832,1.027,1.602Z" fill="#cf002e"/><path d="M12.727,13.573c-.106-.007-.191,.021-.228,.099-.073,.158,.137,.326,.375,.436,.576,.265,.91,.334,1.831,.577-.781-.539-1.049-.748-1.626-1.012-.12-.055-.246-.094-.353-.099Z" fill="#cf002e"/><path d="M12.994,12.958c-.071,.003-.129,.026-.163,.083-.087,.15,.107,.337,.335,.468,.551,.313,.879,.411,1.776,.732-.731-.605-.982-.835-1.532-1.148-.143-.081-.298-.139-.416-.135Z" fill="#cf002e"/><path d="M12.441,14.21c-.106,.002-.188,.039-.219,.12-.06,.163,.164,.314,.411,.403,.597,.214,.937,.254,1.876,.417-.826-.47-1.112-.653-1.71-.867-.123-.044-.254-.075-.36-.073Z" fill="#cf002e"/><path d="M24.643,11c.151-.213,.248-.466,.104-.565-.027-.018-.056-.027-.086-.028-.132-.004-.293,.145-.415,.318-.365,.514-.49,.826-.893,1.678,.674-.665,.926-.89,1.29-1.403Z" fill="#cf002e"/><path d="M22.878,10.023c.09-.245,.117-.511-.048-.57-.021-.008-.041-.01-.061-.01-.142,.006-.268,.201-.348,.414-.218,.589-.258,.925-.423,1.85,.476-.813,.662-1.095,.88-1.685Z" fill="#cf002e"/><path d="M23.497,10.298c.112-.236,.16-.499,0-.573-.02-.009-.038-.014-.058-.015-.142-.006-.286,.18-.383,.385-.268,.568-.339,.897-.586,1.805,.547-.77,.758-1.034,1.027-1.602Z" fill="#cf002e"/><path d="M24.085,10.623c.131-.225,.205-.483,.053-.57-.029-.016-.058-.021-.089-.02-.132,.008-.278,.167-.385,.351-.317,.542-.417,.867-.743,1.75,.612-.72,.846-.967,1.164-1.51Z" fill="#cf002e"/><path d="M24.475,13.417c.826-.469,1.131-.622,1.618-1.025,.202-.167,.36-.385,.246-.517-.035-.042-.083-.059-.139-.058-.123,.003-.282,.093-.421,.208-.486,.403-.69,.672-1.303,1.392Z" fill="#cf002e"/><path d="M23.755,12.708c.731-.604,1.004-.805,1.413-1.285,.17-.199,.286-.441,.152-.552-.033-.028-.072-.04-.114-.038-.127,.007-.284,.132-.412,.28-.409,.48-.562,.781-1.04,1.595Z" fill="#cf002e"/><path d="M24.131,13.047c.781-.539,1.072-.717,1.522-1.16,.186-.184,.324-.414,.2-.537-.03-.031-.069-.045-.111-.047-.127-.005-.294,.107-.434,.245-.45,.443-.63,.729-1.177,1.499Z" fill="#cf002e"/><path d="M18.002,11.708c-.166-.925-.206-1.26-.423-1.85-.078-.214-.206-.409-.347-.414-.021,0-.041,.002-.062,.01-.165,.059-.138,.325-.048,.57,.218,.589,.404,.871,.88,1.685Z" fill="#cf002e"/><path d="M19.49,11.383c.083-.937,.131-1.271,.076-1.895-.023-.259-.112-.512-.286-.498-.175,.015-.221,.281-.198,.54,.055,.624,.162,.945,.408,1.853Z" fill="#cf002e"/><path d="M22.241,9.802c.069-.251,.072-.52-.099-.565-.011-.003-.023-.004-.032-.005-.155-.011-.276,.21-.34,.445-.165,.605-.175,.944-.259,1.88,.403-.852,.565-1.15,.73-1.755Z" fill="#cf002e"/><path d="M20.243,9.48c0-.26-.068-.52-.243-.52-.176,0-.244,.26-.244,.52,0,.627,.077,.954,.244,1.88,.166-.926,.243-1.253,.243-1.88Z" fill="#cf002e"/><path d="M18.489,11.558c-.083-.936-.094-1.275-.259-1.88-.064-.236-.185-.456-.34-.445-.01,0-.022,.002-.032,.005-.171,.045-.168,.314-.099,.565,.165,.606,.327,.903,.73,1.755Z" fill="#cf002e"/><path d="M21.585,9.637c.046-.256,.026-.522-.147-.553l-.033-.002c-.155,.003-.256,.233-.299,.472-.111,.617-.091,.953-.091,1.893,.325-.883,.459-1.193,.57-1.81Z" fill="#cf002e"/><path d="M20.918,9.53c.023-.259-.023-.524-.198-.54-.174-.015-.263,.239-.286,.498-.056,.624-.007,.958,.076,1.895,.247-.908,.353-1.229,.408-1.853Z" fill="#cf002e"/></g></svg>