<?xml version="1.0" encoding="UTF-8"?><svg id="a" xmlns="http://www.w3.org/2000/svg" viewBox="0 0 40 40"><path d="M37.265,9.697c-.723-1.024-1.911-1.697-3.26-1.697H5.995c-1.349,0-2.537,.673-3.26,1.697-.46,.651-.735,1.441-.735,2.298V28.004c0,.858,.276,1.647,.736,2.298,.723,1.024,1.911,1.697,3.26,1.697h28.009c1.349,0,2.536-.673,3.26-1.697,.46-.651,.736-1.441,.736-2.298V11.996c0-.858-.276-1.647-.735-2.298Z" fill="#006e4e"/><path d="M18.096,12.473c4.207,0,7.618,3.37,7.618,7.526s-3.411,7.527-7.618,7.527-7.62-3.368-7.62-7.527,3.411-7.526,7.62-7.526" fill="#f70046"/></svg>