<?xml version="1.0" encoding="UTF-8"?><svg id="Layer_1" xmlns="http://www.w3.org/2000/svg" viewBox="0 0 40 40"><g><rect x="3.5" y="3.5" width="33" height="33" rx="8" ry="8" fill="#ef4452"/><g><path d="m15.025,12.675c3.115,0,5.689,1.657,6.248,4.916h-2.989c-.468-1.801-1.657-2.485-3.259-2.485-2.017,0-3.817,1.152-3.817,4.574,0,3.385,1.801,4.537,3.817,4.537,1.602,0,2.791-.685,3.259-2.485h2.989c-.558,3.277-3.133,4.916-6.248,4.916-3.583,0-6.788-2.341-6.788-6.968,0-4.664,3.205-7.005,6.788-7.005Z" fill="#fff"/><path d="m31.748,26.377h-9.075v-13.432h2.881v11.037h6.194v2.395Z" fill="#fff"/></g></g><rect width="40" height="40" fill="none"/></svg>