<svg id="Layer_1" data-name="Layer 1" xmlns="http://www.w3.org/2000/svg" xmlns:xlink="http://www.w3.org/1999/xlink" viewBox="0 0 40 40"><defs><style>.cls-1{fill:none;}.cls-2{clip-path:url(#clip-path);}.cls-3{fill:#e5e8eb;}.cls-4{fill:#c82127;}.cls-5{fill:#efd72f;}.cls-6{clip-path:url(#clip-path-2);}</style><clipPath id="clip-path"><rect class="cls-1" x="1.163" y="8.961" width="37.675" height="22.078" rx="4"/></clipPath><clipPath id="clip-path-2"><rect class="cls-1" x="1.163" y="8.961" width="37.675" height="22.078"/></clipPath></defs><g class="cls-2"><rect class="cls-3" x="1.163" y="8.961" width="37.675" height="22.078"/><rect class="cls-4" x="1.163" y="23.752" width="37.675" height="7.288"/><path class="cls-5" d="M18.264,28.587v.693H18.7v-.348h.587v.348h.465v-.693Zm0,.954v.7h1.484v-.7h-.465v.347H18.7v-.347Z"/><path d="M19.77,30.258H18.264l-.021-.717.453-.022.022.369.565-.022-.021-.325.486-.022.022.739Zm-1.1-.717-.41.022.022.673,1.44-.021v-.674l-.443.022.022.325-.609.022-.022-.369Zm1.1-.239h-.487l-.021-.37-.566.022.022.326-.454.022-.021-.715,1.505-.022.022.737Zm-.487-.392.022.37.421-.021v-.672l-1.462.022.022.671.41-.022-.022-.326.609-.022Z"/><rect x="14.899" y="18.991" width="10.203" height="3.794"/><polygon class="cls-4" points="17.752 22.231 14.399 22.231 13.655 22.723 13.655 23.243 17.752 23.243 17.752 22.231"/><polygon points="13.655 23.265 13.633 22.723 14.387 22.212 17.774 22.209 17.752 22.253 14.399 22.253 13.667 22.741 13.677 23.243 17.752 23.221 13.655 23.265 13.655 23.265"/><polygon class="cls-4" points="22.248 22.231 25.601 22.231 26.345 22.723 26.345 23.243 22.248 23.243 22.248 22.231"/><polygon points="22.248 23.265 26.345 23.221 26.323 22.723 25.589 22.249 22.226 22.253 22.248 22.209 25.601 22.209 26.357 22.704 26.367 23.243 22.248 23.265 22.248 23.265"/><polygon points="13.655 22.745 13.633 22.745 13.655 22.701 26.345 22.701 13.655 22.745 13.655 22.745"/><polygon class="cls-4" points="17.644 22.485 16.805 22.892 16.805 23.498 20 23.498 23.195 23.498 23.195 22.892 22.356 22.485 20 22.485 17.644 22.485"/><path d="M23.217,23.52H16.805l-.022-.628.852-.427,4.721,0,.849.409.012.648Zm-5.573-1.013-.83.4.013.586,6.346-.022v-.584l-.827-.387-4.7,0Z"/><g class="cls-6"><path class="cls-5" d="M21.485,21.9a2.376,2.376,0,0,0-.44.208c-.179.1-.384.224-.577.353-.143.1-.263.19-.38.283-.042.032-.1.066-.135.1a1.279,1.279,0,0,0-.1.105c-.022.022-.052.045-.07.067a.289.289,0,0,0-.091.208.533.533,0,0,0,0,.056.422.422,0,0,1,.268-.148h.016c.011,0,.019,0,.03,0s.019,0,.03,0a.325.325,0,0,1,.045.008l.017-.016c.019-.018.03-.031.053-.051.047-.04.125-.092.184-.138.1-.073.186-.144.3-.221.187-.124.385-.244.556-.339a2.5,2.5,0,0,1,.381-.181Z"/><path d="M19.679,23.318l0-.038a.4.4,0,0,1,0-.059.29.29,0,0,1,.089-.211.334.334,0,0,1,.049-.05l.068-.044-.012-.012a.794.794,0,0,1,.077-.076.841.841,0,0,1,.074-.054c.021-.014.043-.029.061-.043.128-.1.244-.193.382-.284.193-.129.4-.255.578-.354a2.427,2.427,0,0,1,.443-.209l.107.3c-.069.038-.218.106-.389.2s-.368.215-.554.339c-.088.058-.161.113-.233.169l-.148.11c-.039.028-.076.055-.1.078l-.063.038.011.013-.047.017-.036-.022-.009.017h-.054a.4.4,0,0,0-.258.142l-.024.03Zm1.79-1.413c-.093.045-.236.118-.416.217s-.383.225-.576.353c-.137.091-.252.182-.364.27-.034.027-.056.042-.078.057a.774.774,0,0,0-.071.052.753.753,0,0,0-.075.074l-.057.057a.3.3,0,0,0-.04.039.274.274,0,0,0-.087.2v.016a.427.427,0,0,1,.251-.125l.111.006.071-.061c.028-.024.066-.051.1-.079l.147-.11c.074-.056.146-.112.235-.171.187-.124.386-.245.557-.34a2.472,2.472,0,0,1,.384-.182l-.1-.27Z"/><polygon points="16.804 22.913 16.804 22.869 23.196 22.869 16.804 22.913 16.804 22.913"/><path class="cls-4" d="M16.348,20.052a.892.892,0,0,1,.878.9v1.275h.631V17.4H14.4v4.83h1.073V20.954a.9.9,0,0,1,.876-.9Z"/><path d="M17.878,22.251h-.652l-.022-1.3a.869.869,0,0,0-.856-.88.879.879,0,0,0-.854.88v1.275l-1.1.022L14.377,17.4l3.48-.022.021,4.874Zm-1.53-2.221a.913.913,0,0,1,.9.924v1.275l.587-.021V17.4l-3.436.022.022,4.808,1.051-.022-.022-1.253a.923.923,0,0,1,.9-.924Z"/><rect x="15.581" y="14.132" width="1.59" height="2.929"/><path class="cls-4" d="M17.167,16.607H15.775v-.5h-1.02v.5h-.692v-.5h-.414v.9h3.518Zm-3.1.4h3V17.4h-3Z"/><path d="M14.063,17.421l-.02-.392-.394,0-.021-.922.435-.022.022.518.67-.022-.022-.474,1.042-.022.022.518,1.37-.022v.044H15.775l-.022-.518-1,.022.022.474-.714.022-.021-.518-.393.022.022.878,3.394-.025v0h.1l-.1,0,.022.408-3.024.022Zm.022-.391V17.4l2.98-.022-.022-.369-2.958.022Z"/><path class="cls-4" d="M15.254,13.068v3.043h.521v-.835a.564.564,0,0,1,.528-.585.28.28,0,0,1,.029,0,.583.583,0,0,1,.583.585v.835h.5V13.068Z"/><path d="M17.433,16.133h-.518l-.022-.857a.562.562,0,0,0-.561-.563.548.548,0,0,0-.535.563v.835l-.543.022-.022-3.065,2.179-.022.022,3.087ZM16.3,14.669a.612.612,0,0,1,.634.607v.835l.453-.021V13.068l-2.135.022.022,3.021.5-.022-.022-.813a.587.587,0,0,1,.549-.607Z"/><rect x="18.695" y="12.268" width="2.518" height="4.593"/><path class="cls-4" d="M18.519,12.271v3.843h.8v-1.14a.683.683,0,0,1,1.362,0v1.14h.8V12.271H18.519Zm1.357.431h.247v1.315h-.247Zm-.708.258h.25v.963h-.25Zm1.414,0h.25v.963h-.25Z"/><path d="M21.5,16.136h-.822l-.022-1.162a.661.661,0,0,0-1.318,0v1.14l-.822.022L18.5,12.271l2.984-.022.022,3.887ZM20,14.324a.642.642,0,0,1,.7.65v1.14l.756-.022V12.271l-2.94.022.022,3.821.778-.022L19.3,14.974a.642.642,0,0,1,.7-.65Zm0-.285h-.124l-.022-1.359h.269l.022,1.337L20,14.039Zm-.1-1.315v1.293L20,14h.123L20.1,12.7l-.2.022Zm.684,1.221-.022-1.007h.272l.021.985-.271.022Zm.022-.965v.943l.228-.022-.022-.941-.206.02Zm-1.436.965-.021-1.007h.271l.022.985-.272.022Zm.022-.965v.943l.228-.022L19.4,12.96l-.206.02Z"/><polygon class="cls-4" points="18.248 11.718 18.248 12.265 20 12.265 21.752 12.265 21.752 11.718 20 11.718 18.248 11.718"/><path d="M21.773,12.287H18.248l-.021-.569,3.525-.022.021.591Zm-3.525-.547.022.525,3.46-.022v-.525l-3.482.022Z"/><polygon class="cls-4" points="17.919 11.082 17.919 11.718 20 11.718 22.081 11.718 22.081 11.082 21.559 11.082 21.559 11.432 20.969 11.432 20.969 11.082 20.295 11.082 20.295 11.432 20 11.432 19.705 11.432 19.705 11.082 19.031 11.082 19.031 11.432 18.441 11.432 18.441 11.082 17.919 11.082"/><path d="M22.1,11.74H17.919l-.022-.658.544-.022.022.372.568-.022-.022-.328.7-.022.021.372L20,11.41h.3l-.021-.328.7-.022.022.372.568-.022-.022-.328.544-.022.022.68Zm-3.684-.658-.5.022.021.614,4.12-.022v-.614l-.5.022.022.328-.612.022-.022-.372L20.3,11.1l.022.328-.612.022-.022-.372-.652.022.022.328-.612.022-.022-.372Z"/><rect class="cls-4" x="15.067" y="12.656" width="2.511" height="0.412"/><path d="M17.6,13.09H15.067l-.022-.434,2.532-.022.022.456Zm-.044-.434-2.488.022.022.39,2.466-.022v-.39Z"/><polygon class="cls-4" points="14.745 11.866 14.745 12.656 17.758 12.656 17.758 11.866 17.293 11.866 17.293 12.268 16.732 12.268 16.732 11.866 15.877 11.866 15.877 12.268 15.316 12.268 15.316 11.866 14.745 11.866"/><path d="M17.779,12.678H14.745l-.022-.812.593-.022.022.424.539-.022-.022-.38.877-.022.022.424.539-.022-.022-.38.487-.022.021.834Zm-2.485-.812-.549.022.021.768,2.97-.022v-.768l-.443.022.022.38-.583.022-.022-.424-.833.022.022.38-.583.022-.022-.424Z"/><rect class="cls-5" x="19.747" y="25.662" width="0.428" height="5.012"/><path d="M20.2,30.7h-.45l-.022-5.034.45-.022L20.2,30.7Zm-.044-5.034-.406.022.022,4.99.384-.02V25.662Z"/><path class="cls-5" d="M19.961,24.434l.912.533-.912.531-.912-.531Zm-1.221.342H18.5v.383h.239l1.221.711,1.221-.711h.239v-.383h-.239l-1.221-.712Z"/><path d="M19.961,25.9l-1.232-.718-.228,0-.022-.405.261-.023,1.21-.708,1.243.711.228,0,.022.406-.261.022-1.221.715Zm-1.221-.76,1.221.708,1.21-.705.25,0-.023-.36-.216.022-1.232-.714-1.2.711-.251,0,.023.361.216-.023Zm1.232.382-.934-.531.923-.58.923.541-.912.57Zm-.01-1.058-.9.527.912.492.89-.531-.9-.488Z"/><path class="cls-5" d="M18.532,21.911l-.1.286a7.41,7.41,0,0,1,1.173.579,4.146,4.146,0,0,1,.463.318.975.975,0,0,1,.124.119l.008.01v0l.006.011a.342.342,0,0,1-.011.054l0,0v0l0,0-.006.008,0,0,0,0,0,0-.009,0a.179.179,0,0,1-.064.008.189.189,0,0,1-.046,0l-.013,0-.005,0-.008-.006,0,0,0,0,0-.006H19.98a.244.244,0,0,0-.209.178v0l0,0,0,0a.438.438,0,0,0,.647,0,.429.429,0,0,0,.083-.267.3.3,0,0,0-.086-.2,1.212,1.212,0,0,0-.166-.159,4.529,4.529,0,0,0-.5-.343,7.713,7.713,0,0,0-1.226-.606Z"/><path d="M20.1,23.65a.432.432,0,0,1-.332-.146.239.239,0,0,1,.212-.217l.12.027a.177.177,0,0,0,.057-.006.129.129,0,0,0,.03-.07.8.8,0,0,0-.13-.131,4.189,4.189,0,0,0-.462-.316,7.407,7.407,0,0,0-1.17-.578l.093-.308a6.254,6.254,0,0,1,1.25.6,4.357,4.357,0,0,1,.5.344,1.256,1.256,0,0,1,.169.161.312.312,0,0,1,.089.213.446.446,0,0,1-.086.277.429.429,0,0,1-.341.152Zm-.091-.329a.234.234,0,0,0-.22.166.455.455,0,0,0,.625-.01.405.405,0,0,0,.08-.256.278.278,0,0,0-.082-.191,1.242,1.242,0,0,0-.164-.157,4.515,4.515,0,0,0-.5-.341,7.732,7.732,0,0,0-1.223-.605l-.081.276a5.993,5.993,0,0,1,1.166.559,4.136,4.136,0,0,1,.465.319.881.881,0,0,1,.126.121.167.167,0,0,1,.006.095l-.032.037a.221.221,0,0,1-.128.008l-.041-.021Z"/><path class="cls-1" d="M19.833,22.591l-.028.287Z"/><path class="cls-1" d="M20.072,22.738,20,23.019Z"/><path class="cls-1" d="M20.326,22.934l-.154.218Z"/><path d="M20.405,23.487l-.01,0-.225-.121.246.082a.024.024,0,0,1,.009.03.023.023,0,0,1-.02.011Z"/><path class="cls-1" d="M20.474,23.228l-.256.024Z"/><path d="M20.143,23.624a.023.023,0,0,1-.022-.02l-.017-.227.061.223a.022.022,0,0,1-.02.024Z"/><path class="cls-1" d="M20.049,23.342l-.213.158Z"/><path class="cls-5" d="M19.943,23.129a.427.427,0,0,0-.351.426v.952a.422.422,0,0,0,.413.428h.032a.415.415,0,0,0,.371-.24l-.148-.089a.239.239,0,0,1-.223.154h-.032a.246.246,0,0,1-.241-.253v-.952a.244.244,0,0,1,.241-.251h.032a.229.229,0,0,1,.105.025h0l.019-.006.008,0,0,0h0l0,0,0,0,.006-.008v0l0,0,0,0a.208.208,0,0,0,.01-.054l0-.011v0l-.008-.01a.722.722,0,0,0-.083-.081h0l-.01,0h-.027a.3.3,0,0,0-.03,0h-.032a.28.28,0,0,0-.029,0h-.033Zm.5.337c-.005.007-.008.015-.014.022a.353.353,0,0,1-.147.11v.652l.172.1v-.8a.441.441,0,0,0-.009-.089Z"/><path d="M20.027,24.958H20.02a.446.446,0,0,1-.45-.45v-.952a.449.449,0,0,1,.37-.448h.143a.405.405,0,0,1,.125.093.153.153,0,0,1,.006.1l-.081.05a.217.217,0,0,0-.1-.022.23.23,0,0,0-.251.228v.952a.223.223,0,0,0,.219.23.231.231,0,0,0,.234-.139l.18.078a.4.4,0,0,1-.382.282Zm-.041-1.807a.406.406,0,0,0-.371.4v.952a.4.4,0,0,0,.39.4l.022.023,0-.023a.39.39,0,0,0,.356-.227l-.138-.06a.2.2,0,0,1-.212.157.275.275,0,0,1-.3-.275v-.952a.267.267,0,0,1,.264-.274.317.317,0,0,1,.147.027.138.138,0,0,0,.029-.073.925.925,0,0,0-.089-.086l-.055,0Zm.488,1.238-.207-.119-.011-.672a.567.567,0,0,0,.152-.124l.034-.031a.189.189,0,0,1,.032.112v.834Zm-.054-.918a.194.194,0,0,1-.133.148l.014.631.128.064v-.759a.373.373,0,0,0-.009-.084Z"/><path class="cls-4" d="M23.652,20.052a.892.892,0,0,0-.878.9v1.275h-.631V17.4H25.6v4.83H24.528V20.954a.9.9,0,0,0-.876-.9Z"/><path d="M25.623,22.251h-1.1l-.022-1.3a.879.879,0,0,0-.854-.88.869.869,0,0,0-.856.88v1.275l-.653.022L22.121,17.4l3.48-.022.022,4.874ZM23.652,20.03a.923.923,0,0,1,.9.924v1.275l1.029-.022V17.4l-3.436.022.022,4.808.609-.022-.022-1.253a.913.913,0,0,1,.9-.924Z"/><polygon class="cls-4" points="17.145 17.399 17.145 17.796 20 17.796 22.855 17.796 22.855 17.399 20 17.399 17.145 17.399"/><path d="M22.876,17.818H17.145l-.021-.419,5.731-.022.021.441Zm-5.731-.4.022.375,5.666-.022V17.4l-5.688.022Z"/><rect x="22.829" y="14.132" width="1.59" height="2.929"/><path class="cls-4" d="M22.833,16.607h1.392v-.5h1.02v.5h.692v-.5h.413v.9H22.833Zm3.1.4h-3V17.4h3Z"/><path d="M22.935,17.421l-.02-.388h0l0-.024,3.045-.022v.008l.392,0-.022-.878-.391.022.021.474-.713.022-.022-.518-1,.022.022.474-1.414.022v-.044h1.392l-.022-.474,1.042-.022.022.518.67-.022-.022-.474.435-.022.022.922-.414,0V17.4l-3.023.022Zm0-.388.022.366,2.98-.022-.021-.347-2.981,0Z"/><path class="cls-4" d="M24.746,13.068v3.043h-.521v-.835a.564.564,0,0,0-.528-.585.28.28,0,0,0-.029,0,.583.583,0,0,0-.583.585v.835h-.5V13.068Z"/><path d="M24.768,16.133h-.543l-.022-.857a.544.544,0,0,0-.507-.563.569.569,0,0,0-.589.563v.835l-.518.022-.022-3.065,2.179-.022.022,3.087Zm-1.1-1.464a.592.592,0,0,1,.579.607v.835l.477-.021V13.068l-2.135.022.022,3.021.474-.022-.021-.813a.605.605,0,0,1,.6-.607Z"/><polygon class="cls-4" points="16.912 16.111 16.912 17.399 20 17.399 23.088 17.399 23.088 16.111 22.503 16.111 22.503 16.607 21.725 16.607 21.725 16.111 20.681 16.111 20.681 16.607 20 16.607 19.319 16.607 19.319 16.111 18.275 16.111 18.275 16.607 17.497 16.607 17.497 16.111 16.912 16.111"/><path d="M23.11,17.421h-6.2l-.022-1.31.607-.022.021.518.757-.022-.022-.474,1.066-.022.022.518,1.34-.022-.022-.474,1.066-.022.022.518.756-.022-.022-.474.607-.022.022,1.332Zm-5.635-1.31-.563.022.022,1.266,6.132-.022V16.111l-.563.022.021.474-.8.022-.022-.518-1.022.022.022.474-1.384.022-.022-.518-1.022.022.022.474-.8.022-.022-.518Z"/><rect class="cls-4" x="22.423" y="12.656" width="2.51" height="0.412"/><path d="M24.955,13.09H22.423l-.022-.434,2.532-.022.022.456Zm-.044-.434-2.488.022.022.39,2.466-.022v-.39Z"/><polygon class="cls-4" points="25.255 11.866 25.255 12.656 22.242 12.656 22.242 11.866 22.707 11.866 22.707 12.268 23.268 12.268 23.268 11.866 24.123 11.866 24.123 12.268 24.684 12.268 24.684 11.866 25.255 11.866"/><path d="M25.277,12.678H22.242l-.021-.812.486-.022.022.424.539-.022-.022-.38.877-.022.022.424.539-.022-.022-.38.593-.022.022.834Zm-2.592-.812-.443.022.022.768,2.97-.022v-.768l-.55.022.022.38-.583.022-.022-.424-.833.022.022.38-.583.022-.022-.424Z"/><rect class="cls-5" x="19.747" y="26.096" width="0.428" height="4.317"/><path d="M20.2,30.435h-.45L19.725,26.1l.45-.022.022,4.361ZM20.153,26.1l-.406.022.022,4.3.384-.021V26.1Z"/><path class="cls-4" d="M17.655,17.8v4.686h1.1V20.728A1.137,1.137,0,0,1,20,19.512a1.15,1.15,0,0,1,1.242,1.216v1.754h1.1V17.8h-4.69Z"/><path d="M22.345,22.5h-1.1l-.022-1.776A1.135,1.135,0,0,0,20,19.534a1.12,1.12,0,0,0-1.22,1.194v1.754l-1.125.022L17.633,17.8l4.712-.022.022,4.708a.022.022,0,0,1-.022.022ZM20,19.49a1.177,1.177,0,0,1,1.264,1.238v1.754l1.059-.021V17.8l-4.668.022.022,4.664,1.081-.022-.022-1.732A1.161,1.161,0,0,1,20,19.49Z"/></g></g></svg>