<?xml version="1.0" encoding="UTF-8"?><svg id="Layer_1" xmlns="http://www.w3.org/2000/svg" viewBox="0 0 40 40"><path d="m21.438,8H5.995c-2.207,0-3.995,1.789-3.995,3.996v8.004h19.438v-12Zm-5.406,7.5h-2.949v3h-2.949v-3h-2.949v-3h2.949v-3h2.949v3h2.949v3Z" fill="#e3e7ea"/><g><path d="m34,8h-12.562v12H2v8c0,2.209,1.791,4,4,4h28c2.209,0,4-1.791,4-4V12c0-2.209-1.791-4-4-4Z" fill="#c1001b"/><polygon points="13.083 9.5 10.134 9.5 10.134 12.5 7.185 12.5 7.185 15.5 10.134 15.5 10.134 18.5 13.083 18.5 13.083 15.5 16.032 15.5 16.032 12.5 13.083 12.5 13.083 9.5" fill="#c1001b"/></g></svg>