<?xml version="1.0" encoding="UTF-8"?><svg id="Layer_1" xmlns="http://www.w3.org/2000/svg" viewBox="0 0 40 40"><rect x="2" y="8" width="36" height="24" rx="4" ry="4" fill="#e3e7ea"/><g><polygon points="6.152 24 2 26.757 2 26.757 12.177 20 6.152 24" fill="none"/><path d="m23.044,17.6l-2.411-1.601-12.05-8h-2.588c-.092,0-.177.021-.268.027l14.42,9.573h2.897Z" fill="none"/><path d="m23.044,22.4h-2.897l-14.42,9.573c.09.006.176.027.268.027h2.588l12.05-8,2.411-1.601Z" fill="none"/><path d="m38,16v-4.004c0-2.207-1.789-3.996-3.995-3.996H8.584l12.05,8h17.366Z" fill="#e3002a"/><path d="m38,28.004v-4.004h-17.366l-12.05,8h25.421c2.207,0,3.995-1.789,3.995-3.996Z" fill="#2f2d91"/><polygon points="6.152 16 2 13.243 2 16 2 24 2 26.757 6.152 24 12.177 20 6.152 16"/><path d="m2,13.243l4.152,2.757,6.025,4-10.177,6.757v1.247c0,.217.031.425.064.633l13.01-8.637L2.064,11.363c-.033.208-.064.416-.064.633v1.247Z" fill="#fcad00"/><rect x="4.076" y="12.129" width="0" height="4.984" transform="translate(-10.359 9.93) rotate(-56.419)" fill="#fcad00"/><polygon points="12.177 20 6.152 16 6.152 16 12.177 20" fill="#fcad00"/><path d="m23.044,17.6h-2.897L5.728,8.027c-1.866.126-3.373,1.52-3.664,3.336l13.01,8.637L2.064,28.637c.291,1.816,1.798,3.21,3.664,3.336l14.42-9.573h17.852v-4.799h-14.956Z" fill="#007b47"/></g></svg>