<?xml version="1.0" encoding="UTF-8"?><svg id="a" xmlns="http://www.w3.org/2000/svg" viewBox="0 0 40 40"><polygon points="1.992 8.142 1.992 8.264 1.993 8.142 1.992 8.142"/><g><path d="M34.005,8H5.995c-.266,0-.526,.028-.777,.079-.151,.031-.292,.083-.436,.13-.091,.03-.187,.049-.275,.085-.198,.081-.385,.182-.565,.292-.025,.015-.052,.026-.077,.042-.185,.119-.358,.255-.521,.401-.014,.013-.032,.022-.046,.035h.002l8.444,6.935h26.256v-4.004c0-2.207-1.789-3.995-3.995-3.995Z"/><path d="M3.302,30.936h-.002c.014,.014,.03,.023,.044,.035,.164,.146,.337,.283,.523,.402,.023,.015,.048,.024,.071,.039,.182,.112,.371,.213,.571,.294,.082,.034,.171,.051,.255,.079,.15,.05,.298,.104,.456,.136,.25,.05,.508,.078,.774,.078h28.013c2.206,0,3.994-1.789,3.994-3.995v-4.004H11.791L3.302,30.936Z" fill="#008334"/><g><path d="M16.652,20.029l-4.861,3.971h26.209V15.999H11.744l4.908,4.029Zm6.745-3.22c.207,0,.408,.023,.604,.062,.196-.038,.397-.062,.604-.062,1.746,0,3.161,1.429,3.161,3.191s-1.416,3.191-3.161,3.191c-.207,0-.408-.023-.604-.061-.196,.038-.397,.061-.604,.061-1.746,0-3.161-1.429-3.161-3.191s1.416-3.191,3.161-3.191Z" fill="#e3e7ea"/><path d="M21.443,20c0,1.553,1.101,2.844,2.557,3.129,.196,.038,.397,.061,.604,.061,1.746,0,3.161-1.429,3.161-3.191s-1.416-3.191-3.161-3.191c-.207,0-.408,.023-.604,.062-1.456,.285-2.557,1.576-2.557,3.129Zm2.471-2.238l.509,1.597,1.661,.013-1.348,.981,.502,1.599-1.342-.99-1.351,.976,.519-1.594-1.337-.996,1.662,.005,.525-1.591Z" fill="#e3e7ea"/></g><g><path d="M5.22,31.921c-.157-.032-.306-.086-.456-.136,.151,.049,.298,.105,.456,.136Z" fill="#cc001c"/><polygon points="6 32 34 32 34.002 32 5.998 32 6 32" fill="#cc001c"/><path d="M3.344,9.029c.163-.146,.336-.282,.521-.401-.186,.118-.357,.255-.521,.401Z" fill="#cc001c"/><path d="M4.509,31.706c-.2-.082-.389-.183-.571-.294,.183,.111,.37,.214,.571,.294Z" fill="#cc001c"/><path d="M16.652,20.029l-4.908-4.029L3.3,9.066c-.794,.731-1.3,1.77-1.3,2.934V28c0,1.166,.507,2.205,1.302,2.936l8.489-6.936,4.861-3.971Z" fill="#cc001c"/><path d="M3.942,8.586c.18-.11,.368-.211,.565-.292-.199,.08-.384,.182-.565,.292Z" fill="#cc001c"/><path d="M4.782,8.209c.144-.047,.285-.1,.436-.13-.151,.03-.292,.084-.436,.13Z" fill="#cc001c"/><path d="M3.867,31.373c-.186-.119-.359-.255-.523-.402,.164,.147,.336,.283,.523,.402Z" fill="#cc001c"/><path d="M23.397,23.19c.207,0,.408-.023,.604-.061-1.456-.285-2.557-1.576-2.557-3.129s1.101-2.844,2.557-3.129c-.196-.038-.397-.062-.604-.062-1.746,0-3.161,1.429-3.161,3.191s1.416,3.191,3.161,3.191Z" fill="#cc001c"/><polygon points="23.065 20.344 22.546 21.938 23.897 20.962 25.239 21.952 24.738 20.353 26.085 19.372 24.424 19.358 23.914 17.761 23.389 19.353 21.728 19.348 23.065 20.344" fill="#cc001c"/></g></g></svg>