<?xml version="1.0" encoding="UTF-8"?><svg id="Layer_1" xmlns="http://www.w3.org/2000/svg" viewBox="0 0 40 40"><g><path d="m2.89,9.513c-.379.474-.663,1.025-.796,1.639h4.062l-3.266-1.639Z" fill="#2e2c7b"/><path d="m34,8h-13.178v1.058l-4.174,2.094h4.174v3.153h-4.174l4.174,2.094v1.294h-1.636l-6.214-3.12v3.12h-3.14v-3.12l-6.215,3.12h-1.618v10.306c0,2.209,1.791,4,4,4h28c2.209,0,4-1.791,4-4V12c0-2.209-1.791-4-4-4ZM13.022,27.072l-1.27-1.353-1.269,1.353.253-1.85-1.836-.162,1.584-.953-1.02-1.556,1.723.662.564-1.78.565,1.78,1.723-.662-1.02,1.556,1.585.953-1.836.162.253,1.85Zm16.059-14.982l.821.314.268-.847.269.847.82-.314-.485.74.755.455-.875.077.121.881-.605-.644-.604.644.12-.881-.874-.077.755-.455-.486-.74Zm-3.182,7.508l-.604-.644-.605.644.121-.88-.874-.078.754-.452-.485-.742.82.316.269-.847.269.847.82-.316-.486.742.755.452-.874.078.12.88Zm4.876,7.829l-.605-.645-.604.645.12-.881-.874-.077.755-.455-.486-.74.821.314.268-.846.269.846.82-.314-.485.74.755.455-.875.077.121.881Zm1.824-6.374l-.477-.3-.478.3.135-.553-.43-.368.561-.042.212-.528.212.528.56.042-.429.368.134.553Zm2.511-2.772l-.604-.645-.605.645.121-.882-.875-.078.755-.454-.486-.74.821.314.269-.846.268.846.821-.314-.486.74.755.454-.874.078.121.882Z" fill="#2e2c7b"/><path d="m9.833,8h-3.833c-.49,0-.954.101-1.388.262l5.221,2.621v-2.883Z" fill="#2e2c7b"/><polygon points="18.716 8 12.972 8 12.972 10.883 18.716 8" fill="#2e2c7b"/><polygon points="6.156 14.306 2 14.306 2 16.392 6.157 14.306 6.156 14.306" fill="#2e2c7b"/></g><g><polygon points="9.667 14.306 8.263 14.306 2 17.45 2 17.694 2.917 17.694 9.667 14.306" fill="#d00032"/><polygon points="14.543 14.306 20.822 17.458 20.822 16.753 15.947 14.306 14.543 14.306" fill="#d00032"/><path d="m6.859,11.152h1.404l-4.658-2.338s0,0-.001.001c-.181.137-.353.283-.508.448l3.763,1.889Z" fill="#d00032"/><polygon points="14.543 11.152 20.822 8 19.418 8 13.138 11.152 14.543 11.152" fill="#d00032"/><path d="m20.82,11.78v1.9h-8.48v4.01h-1.88v-4.01H2v-1.68c0-.07.02-.14.02-.22h8.44v-3.78h1.88v3.78h8.48Z" fill="#d00032"/></g><g><polygon points="6.157 14.306 2 16.392 2 16.504 6.379 14.306 6.157 14.306" fill="#e3e7ea"/><polygon points="20.822 16.753 20.822 16.4 16.648 14.306 15.947 14.306 20.822 16.753" fill="#e3e7ea"/><path d="m6.859,11.152l-3.763-1.889c-.073.078-.137.163-.204.247,0,0-.001.002-.002.002h0l3.266,1.639h.702Z" fill="#e3e7ea"/><polygon points="9.667 14.306 2.917 17.694 3.618 17.694 9.833 14.575 9.833 14.306 9.667 14.306" fill="#e3e7ea"/><path d="m9.833,10.995v-.112l-5.221-2.621h0c-.014.005-.028.009-.043.013-.032.009-.064.017-.094.029l5.359,2.69Z" fill="#e3e7ea"/><polygon points="16.648 11.152 20.822 9.058 20.822 8.946 16.426 11.152 16.648 11.152" fill="#e3e7ea"/><polygon points="12.972 14.575 19.186 17.694 19.409 17.694 12.972 14.463 12.972 14.575" fill="#e3e7ea"/><polygon points="12.972 11.152 13.138 11.152 19.418 8 18.716 8 12.972 10.883 12.972 11.152" fill="#e3e7ea"/><polygon points="12.972 14.306 12.972 14.463 19.409 17.694 19.889 17.694 13.138 14.306 12.972 14.306" fill="#e3e7ea"/><path d="m9.667,11.152h.165v-.157l-5.359-2.69c-.082.034-.156.081-.236.121,0,0-.001,0-.002,0l5.431,2.726Z" fill="#e3e7ea"/><polygon points="16.426 11.152 20.822 8.946 20.822 8.705 15.947 11.152 16.426 11.152" fill="#e3e7ea"/><polygon points="6.379 14.306 2 16.504 2 16.744 6.859 14.306 6.379 14.306" fill="#e3e7ea"/><path d="m8.263,11.152h1.405l-5.431-2.726s0,0,0,0c-.223.11-.433.239-.63.387,0,0,0,0,0,0l4.658,2.338Z" fill="#e3e7ea"/><polygon points="15.947 11.152 20.822 8.705 20.822 8 14.543 11.152 15.947 11.152" fill="#e3e7ea"/><polygon points="6.859 14.306 2 16.744 2 17.45 8.263 14.306 6.859 14.306" fill="#e3e7ea"/><polygon points="13.138 14.306 19.889 17.694 20.822 17.694 20.822 17.458 14.543 14.306 13.138 14.306" fill="#e3e7ea"/><polygon points="20.822 11.783 20.822 11.152 16.648 11.152 15.393 11.783 20.822 11.783" fill="#e3e7ea"/><polygon points="10.461 11.199 10.461 8 9.833 8 9.833 10.883 10.461 11.199" fill="#e3e7ea"/><polygon points="9.833 14.575 9.833 17.694 10.461 17.694 10.461 14.26 9.833 14.575" fill="#e3e7ea"/><polygon points="12.344 17.694 12.972 17.694 12.972 14.575 12.344 14.26 12.344 17.694" fill="#e3e7ea"/><path d="m7.412,11.783l-1.256-.631H2.094c-.044.203-.06.416-.072.629,0,0,0,0,0,.001h5.391Z" fill="#e3e7ea"/><polygon points="7.412 13.675 2 13.675 2 14.306 6.156 14.306 7.412 13.675" fill="#e3e7ea"/><polygon points="12.972 10.883 12.972 8 12.344 8 12.344 11.199 12.972 10.883" fill="#e3e7ea"/><polygon points="16.648 14.306 20.822 14.306 20.822 13.675 15.393 13.675 16.648 14.306" fill="#e3e7ea"/><polygon points="10.461 11.199 9.833 10.883 9.833 10.995 10.461 11.311 10.461 11.199" fill="#e3e7ea"/><polygon points="13.138 11.152 12.972 11.152 12.972 10.883 12.344 11.199 12.344 11.551 13.138 11.152" fill="#e3e7ea"/><polygon points="14.69 13.675 15.947 14.306 16.648 14.306 15.393 13.675 14.69 13.675" fill="#e3e7ea"/><polygon points="15.17 11.783 15.393 11.783 16.648 11.152 16.426 11.152 15.17 11.783" fill="#e3e7ea"/><polygon points="6.859 11.152 6.156 11.152 7.412 11.783 8.115 11.783 6.859 11.152" fill="#e3e7ea"/><polygon points="7.412 13.675 6.157 14.306 6.379 14.306 7.634 13.675 7.412 13.675" fill="#e3e7ea"/><polygon points="6.156 14.306 6.157 14.306 7.412 13.675 6.156 14.306" fill="#e3e7ea"/><polygon points="10.461 13.907 9.667 14.306 9.833 14.306 9.833 14.575 10.461 14.26 10.461 13.907" fill="#e3e7ea"/><polygon points="12.344 14.147 12.344 14.26 12.972 14.575 12.972 14.463 12.344 14.147" fill="#e3e7ea"/><polygon points="14.543 14.306 15.947 14.306 14.69 13.675 13.286 13.675 14.543 14.306" fill="#e3e7ea"/><polygon points="9.519 11.783 8.263 11.152 6.859 11.152 8.115 11.783 9.519 11.783" fill="#e3e7ea"/><polygon points="10.461 13.675 9.519 13.675 8.263 14.306 9.667 14.306 10.461 13.907 10.461 13.675" fill="#e3e7ea"/><polygon points="12.344 11.783 13.286 11.783 14.543 11.152 13.138 11.152 12.344 11.551 12.344 11.783" fill="#e3e7ea"/><polygon points="10.461 11.311 9.833 10.995 9.833 11.152 9.667 11.152 10.461 11.551 10.461 11.311" fill="#e3e7ea"/><polygon points="7.635 13.675 7.634 13.675 6.379 14.306 6.859 14.306 8.115 13.675 7.635 13.675" fill="#e3e7ea"/><polygon points="12.344 14.147 12.972 14.463 12.972 14.306 13.138 14.306 12.344 13.907 12.344 14.147" fill="#e3e7ea"/><polygon points="15.17 11.783 16.426 11.152 15.947 11.152 14.69 11.783 15.17 11.783" fill="#e3e7ea"/><polygon points="12.344 13.675 12.344 13.907 13.138 14.306 14.543 14.306 13.286 13.675 12.344 13.675" fill="#e3e7ea"/><polygon points="10.461 11.783 10.461 11.551 9.667 11.152 8.263 11.152 9.519 11.783 10.461 11.783" fill="#e3e7ea"/><polygon points="8.115 13.675 6.859 14.306 8.263 14.306 9.519 13.675 8.115 13.675" fill="#e3e7ea"/><polygon points="14.69 11.783 15.947 11.152 14.543 11.152 13.286 11.783 14.69 11.783" fill="#e3e7ea"/><polygon points="13.02 24.106 14.04 22.551 12.317 23.212 11.752 21.432 11.189 23.212 9.466 22.551 10.485 24.106 8.901 25.06 10.737 25.222 10.483 27.072 11.752 25.719 13.022 27.072 12.769 25.222 14.605 25.06 13.02 24.106" fill="#e3e7ea"/><polygon points="30.774 26.013 31.259 25.273 30.439 25.587 30.17 24.741 29.902 25.587 29.081 25.273 29.566 26.013 28.812 26.468 29.686 26.545 29.566 27.426 30.17 26.78 30.775 27.426 30.654 26.545 31.529 26.468 30.774 26.013" fill="#e3e7ea"/><polygon points="25.897 18.187 26.383 17.444 25.563 17.76 25.294 16.913 25.025 17.76 24.205 17.444 24.69 18.187 23.936 18.639 24.81 18.717 24.689 19.597 25.294 18.953 25.898 19.597 25.778 18.717 26.652 18.639 25.897 18.187" fill="#e3e7ea"/><polygon points="29.686 13.361 29.566 14.242 30.17 13.598 30.775 14.242 30.654 13.361 31.529 13.284 30.774 12.83 31.259 12.089 30.439 12.404 30.17 11.556 29.902 12.404 29.081 12.089 29.566 12.83 28.812 13.284 29.686 13.361" fill="#e3e7ea"/><polygon points="35.108 16.867 35.594 16.127 34.773 16.441 34.505 15.595 34.236 16.441 33.415 16.127 33.901 16.867 33.146 17.321 34.021 17.398 33.9 18.28 34.505 17.635 35.109 18.28 34.989 17.398 35.863 17.321 35.108 16.867" fill="#e3e7ea"/><polygon points="32.333 20.089 32.121 19.561 31.909 20.089 31.348 20.131 31.777 20.499 31.643 21.052 32.121 20.752 32.598 21.052 32.465 20.499 32.894 20.131 32.333 20.089" fill="#e3e7ea"/></g></svg>