<?xml version="1.0" encoding="UTF-8"?><svg id="a" xmlns="http://www.w3.org/2000/svg" viewBox="0 0 40 40"><g><path d="M20.087,20.798c-.08,.061-.167,.102-.262,.102-.097,0-.184-.043-.265-.104l-2.135,3.722c.051,.095,.094,.185,.149,.282,.602,1.062,1.46,2.199,2.097,2.366-.029-.059-.592-1.238-.592-3.139,0-1.95,.597-3.15,.597-3.15v6.29c.05,.013,.102,.033,.149,.033s.099-.02,.149-.033v-6.29s.596,1.2,.596,3.15c0,1.901-.562,3.081-.591,3.139,.638-.167,1.495-1.305,2.097-2.366,.055-.096,.098-.186,.148-.28l-2.137-3.722Z" fill="#ba001a"/><path d="M16.245,20c0-1.2,.298-2.399,.745-3.6H2v7.2h14.99c-.447-1.2-.745-2.4-.745-3.6Z" fill="#ba001a"/><path d="M20.421,20c0,.191-.048,.358-.115,.504l2.105,3.663c.1-.206,.185-.398,.248-.567-.447-1.2-.745-2.4-.745-3.6s.298-2.399,.745-3.6c-.063-.169-.149-.364-.25-.571l-2.103,3.667c.067,.146,.116,.313,.116,.504Z" fill="#ba001a"/><path d="M19.227,20c0-.189,.048-.355,.114-.5l-2.104-3.665c-.1,.205-.185,.397-.247,.565,.448,1.2,.746,2.4,.746,3.6s-.298,2.4-.746,3.6c.064,.172,.152,.37,.256,.581l2.1-3.67c-.069-.147-.119-.317-.119-.511Z" fill="#ba001a"/><path d="M19.559,19.205c.081-.062,.169-.105,.266-.105,.098,0,.186,.044,.268,.107l2.132-3.726c-.05-.095-.094-.185-.149-.282-.601-1.061-1.459-2.198-2.096-2.365,.03,.062,.591,1.24,.591,3.138,0,1.95-.596,3.15-.596,3.15v-6.29c-.05-.013-.102-.033-.149-.033s-.099,.02-.149,.033v6.29s-.597-1.2-.597-3.15c0-1.898,.562-3.077,.592-3.139-.638,.168-1.495,1.304-2.097,2.366-.056,.099-.1,.19-.152,.287l2.137,3.719Z" fill="#ba001a"/><path d="M23.404,20c0,1.2-.298,2.4-.746,3.6h15.342v-7.2h-15.342c.448,1.2,.746,2.4,.746,3.6Z" fill="#ba001a"/></g><g><polygon points="15.578 27.136 15.58 27.136 15.579 27.135 15.578 27.136" fill="#006d2d"/><path d="M24.104,27.115l-.283,.188-.01-.017-1.427-2.485h-.309c-.602,1.062-1.459,2.199-2.097,2.366l-.005,.011v-.01c-.05,.013-.102,.033-.149,.033s-.099-.02-.149-.033v.01l-.005-.011c-.638-.167-1.495-1.305-2.097-2.366h-.311l-1.435,2.502-.276-.16,1.34-2.343H2v3.204c0,2.207,1.789,3.996,3.995,3.996h28.009c2.207,0,3.995-1.789,3.995-3.996v-3.204h-15.226l1.33,2.315Z" fill="#006d2d"/></g><g><path d="M34.005,8H5.995c-2.207,0-3.995,1.789-3.995,3.996v3.204h14.873l-.029-.051c-.403-.103-.632-.502-.854-.888-.619-1.077-.89-2.039-1.008-2.656l.026,.022-.006-.026c.113,.099,.219,.199,.322,.3,.454,.419,.987,1.038,1.475,1.889,.222,.386,.451,.785,.34,1.205l.118,.206h.316c.602-1.061,1.459-2.198,2.097-2.366l.005-.012v.011c.05-.013,.102-.033,.149-.033s.099,.02,.149,.033v-.011l.005,.012c.638,.167,1.495,1.304,2.096,2.365h.31l.127-.221c-.113-.402,.116-.802,.338-1.188,.617-1.076,1.311-1.793,1.784-2.205l-.006,.033,.019-.018c-.028,.147-.062,.288-.097,.427-.134,.605-.4,1.379-.89,2.231-.222,.386-.451,.786-.867,.899l-.024,.042h15.23v-3.204c0-2.207-1.789-3.996-3.995-3.996Z"/><path d="M22.658,23.6h0c.448-1.2,.746-2.4,.746-3.6s-.298-2.399-.746-3.6h0c-.447,1.2-.745,2.4-.745,3.6s.298,2.4,.745,3.6Z"/><path d="M16.99,16.4h0c-.447,1.2-.745,2.4-.745,3.6s.298,2.4,.745,3.6h0c.448-1.2,.746-2.4,.746-3.6s-.298-2.399-.746-3.6Z"/></g><g><path d="M22.076,24.8h.309l-.161-.28c-.05,.094-.093,.184-.148,.28Z" fill="#e3e7ea"/><path d="M22.658,23.6h0c-.063,.168-.148,.361-.248,.567l.364,.633h15.226v-1.2h-15.342Z" fill="#e3e7ea"/><path d="M22.385,15.2h-.31c.055,.097,.098,.187,.149,.282l.161-.282Z" fill="#e3e7ea"/><path d="M22.408,15.83c.101,.207,.187,.401,.25,.571h15.342v-1.2h-15.23l-.361,.63Z" fill="#e3e7ea"/><path d="M17.246,24.181c-.103-.211-.192-.409-.256-.581H2v1.2h14.891l.354-.619Z" fill="#e3e7ea"/><path d="M17.262,24.8h.311c-.055-.097-.099-.187-.149-.282l-.162,.282Z" fill="#e3e7ea"/><path d="M16.99,16.4h0c.063-.168,.147-.36,.247-.565l-.365-.635H2v1.2h14.99Z" fill="#e3e7ea"/><path d="M17.573,15.2h-.316l.165,.287c.051-.096,.096-.188,.152-.287Z" fill="#e3e7ea"/><path d="M19.352,20.523l-3.791,6.602,.017,.01h.002l.24,.14,3.727-6.491c-.079-.064-.143-.153-.195-.26Z" fill="#e3e7ea"/><path d="M24.357,11.87c-.854,.828-1.355,1.695-1.489,1.929-.224,.39-.448,.779-.338,1.189l-2.428,4.228c.079,.064,.143,.153,.195,.261l2.491-4.339c.407-.11,.631-.5,.855-.89,.133-.231,.619-1.084,.907-2.221,.035-.139,.069-.281,.097-.427l-.019,.018-.007,.007c-.092,.081-.178,.163-.263,.246Z" fill="#e3e7ea"/><path d="M20.102,20.783l3.727,6.492,.259-.15-3.79-6.603c-.052,.108-.117,.197-.195,.26Z" fill="#e3e7ea"/><path d="M15.088,11.981c.286,1.161,.784,2.034,.918,2.269,.224,.39,.447,.78,.855,.89l2.49,4.338c.053-.108,.117-.197,.195-.26l-2.427-4.228c.109-.41-.115-.799-.338-1.189-.133-.231-.623-1.08-1.458-1.899-.103-.101-.209-.201-.322-.3l.006,.026,.002,.008c.023,.118,.051,.233,.078,.346Z" fill="#e3e7ea"/><path d="M19.346,20.511l.006,.013c.053,.107,.117,.197,.195,.26l.012,.012c.081,.062,.169,.104,.265,.104,.095,0,.182-.042,.262-.102,.005-.004,.009-.011,.015-.015,.078-.064,.143-.153,.195-.26l.008-.019c.067-.146,.115-.313,.115-.504s-.048-.358-.116-.504l-.008-.019c-.052-.108-.117-.197-.195-.261l-.01-.01c-.081-.063-.17-.107-.268-.107-.097,0-.185,.043-.266,.105l-.012,.012c-.079,.063-.143,.153-.195,.26l-.01,.023c-.066,.145-.114,.311-.114,.5,0,.194,.049,.364,.119,.511Z" fill="#e3e7ea"/><path d="M19.974,20.878v6.3l.005-.011c.029-.059,.591-1.238,.591-3.139,0-1.95-.596-3.15-.596-3.15Z" fill="#e3e7ea"/><path d="M19.676,19.123v-6.301l-.005,.012c-.03,.062-.592,1.24-.592,3.139,0,1.95,.597,3.15,.597,3.15Z" fill="#e3e7ea"/><path d="M19.078,24.027c0,1.901,.563,3.081,.592,3.139l.005,.011v-6.3s-.597,1.2-.597,3.15Z" fill="#e3e7ea"/><path d="M20.57,15.973c0-1.898-.561-3.077-.591-3.138l-.005-.012v6.301s.596-1.2,.596-3.15Z" fill="#e3e7ea"/></g></svg>