<?xml version="1.0" encoding="UTF-8"?><svg id="Layer_1" xmlns="http://www.w3.org/2000/svg" viewBox="0 0 40 40"><rect x="2" y="8" width="36" height="24" rx="4" ry="4" fill="#e3e7ea"/><polygon points="34.005 8 5.995 8 5.992 8 34.008 8 34.005 8" fill="none"/><path d="m2,11.995v4.006h36v-4.006c0-2.206-1.787-3.993-3.992-3.995H5.992c-2.205.002-3.992,1.79-3.992,3.995Z" fill="#e14110"/><path d="m20,23.401c1.852,0,3.354-1.522,3.354-3.4s-1.502-3.399-3.354-3.399-3.353,1.521-3.353,3.399,1.502,3.4,3.353,3.4Z" fill="#e14110"/><path d="m2,28.004c0,2.207,1.789,3.996,3.995,3.996h28.009c2.207,0,3.995-1.789,3.995-3.996v-4.004H2v4.004Z" fill="#00b335"/></svg>