<?xml version="1.0" encoding="UTF-8"?><svg id="a" xmlns="http://www.w3.org/2000/svg" viewBox="0 0 40 40"><g><path d="M2,28c0,2.209,1.791,4,4,4h28c2.209,0,4-1.791,4-4v-.285H2v.285Z" fill="#4a5bad"/><path d="M34,8H6c-2.209,0-4,1.791-4,4v.285H38v-.285c0-2.209-1.791-4-4-4Z" fill="#4a5bad"/></g><g><rect x="2" y="26" width="36" height="1.715" fill="#fbd800"/><rect x="2" y="12.285" width="36" height="1.715" fill="#fbd800"/></g><path d="M2,26H38V14H2v12Zm2.927-6.461h6.324c.116-.139,.26-.303,.427-.489H7.559c-.155,0-.281-.126-.281-.281s.126-.281,.281-.281h4.649c.139-.142,.287-.287,.444-.438h-4.093c-.155,0-.281-.126-.281-.281s.126-.281,.281-.281h4.71c1.656-1.445,4.028-2.977,6.672-2.977s5.016,1.531,6.672,2.977h4.407c.013,0,.021,.012,.033,.014l.792-.253,1.53,.5-1.53,.594-.797-.303c-.01,.001-.017,.011-.028,.011h-3.791c.158,.151,.305,.296,.444,.438h2.347c.013,0,.021,.012,.033,.014l.792-.254,1.53,.5-1.53,.594-.797-.303h.001c-.011,0-.017,.011-.029,.011h-1.817c.167,.185,.311,.35,.427,.489h6.443c.234,0,.423,.189,.423,.422s-.188,.422-.422,.422h-.314c.411,.387,.338,.826,.338,.826l-.109-.193c-.079,.141,.109,.375,.109,.703-.094-.063-.219-.297-.219-.297v.75s-.213-.163-.234-.224c.141,.339,0,.646,0,.646l-.156-.266-.219,.547-.078-.203s-.359,.297-.484,.656c-.531-.375-.906-1.046-.906-1.046,0,0-.188,.36-.391,.391,.078-.484-.438-.766-.172-1.375-.11,.032-.391,.266-.391,.266,0,0,.143-.706,.578-1.18h-3.732c-.863,1.046-3.527,3.981-6.884,4.856h0l-.005,.002c-.258,.067-.522,.116-.787,.157-.044,.007-.087,.02-.132,.026-.293,.04-.591,.059-.891,.062-.017,0-.034,.004-.051,.004h-.002c-4.207,0-7.736-3.871-8.754-5.105h-3.096c.108,.289,0,.741,0,.741,0,0-.078-.172-.172-.25,.063,.281,.032,1.172-.109,1.25,.016-.172,0-.281,0-.281,0,0-.141,.187-.141,.422s-.125,.469-.125,.469c0,0-.016-.156-.078-.234-.172,.297-.578,.25-.516,.672-.296-.125-.484-.281-.484-.281,0,0-.047,.125-.141,.172-.218-.125-.266-.328-.359-.594-.093-.266-.281-.328-.281-.328,0,0,.016,.172-.109,.328-.063-.297-.094-.688-.094-.688,0,0-.157-.016-.266,.25-.125-.266-.047-.672-.047-.672l-.266,.125c-.011-.443,.213-.885,.535-1.101h-.511c-.233,0-.422-.189-.422-.422s.189-.422,.422-.422Z" fill="#b00019"/><g><path d="M30.02,19.05c.011,0,.018-.01,.029-.012,.069-.008,.131-.039,.176-.085,.044-.05,.076-.112,.076-.184,0-.071-.032-.132-.075-.182-.045-.045-.105-.077-.173-.086h0c-.012-.002-.02-.014-.033-.014h-2.347c.196,.2,.375,.389,.53,.562h1.817Z" fill="#ffd900"/><path d="M7.559,18.489c-.155,0-.281,.126-.281,.281s.126,.281,.281,.281h4.119c.155-.172,.334-.361,.53-.562H7.559Z" fill="#ffd900"/><path d="M31.019,18.051c.011,0,.017-.01,.028-.011h0c.069-.008,.131-.039,.177-.086,.044-.05,.076-.112,.076-.184,0-.071-.032-.132-.075-.182-.045-.045-.105-.076-.173-.086h0c-.012-.002-.02-.014-.033-.014h-4.407c.219,.191,.424,.378,.616,.562h3.791Z" fill="#ffd900"/><path d="M8.559,17.489c-.155,0-.281,.126-.281,.281s.126,.281,.281,.281h4.093c.192-.184,.398-.371,.617-.562h-4.71Z" fill="#ffd900"/><path d="M4.927,20.383h.511c.109-.073,.229-.121,.356-.133,.5-.047,.141-.375,.141-.375,.328,.078,.219,.28,.344,.202s.031-.312,.031-.312c0,0,.578,.375,.969,.234,.39-.141,.703,.094,.812,.383h3.096c-.193-.232-.305-.382-.305-.382,0,0,.133-.178,.37-.461H4.927c-.233,0-.422,.189-.422,.422s.189,.422,.422,.422Z" fill="#ffd900"/><path d="M28.694,20.383h3.732c.026-.029,.05-.059,.078-.086,.5-.469,.812-.578,.812-.578,0,0,.047,.297,.16,.242,.112-.055,.622-.086,1.169,.32,.044,.033,.078,.068,.115,.102h.314c.234,0,.422-.189,.422-.422s-.189-.422-.423-.422h-6.443c.237,.283,.37,.461,.37,.461,0,0-.113,.15-.305,.383Z" fill="#ffd900"/></g><g><path d="M30.226,18.588c.046,.047,.075,.109,.075,.182,0,.073-.029,.136-.076,.184-.045,.046-.107,.077-.176,.085h-.001l.797,.304,1.53-.594-1.53-.5-.792,.254h0c.068,.009,.128,.04,.173,.086Z" fill="#fff"/><path d="M31.225,17.588c.046,.047,.075,.109,.075,.182,0,.073-.029,.136-.076,.184-.046,.047-.108,.078-.177,.086h0l.797,.303,1.53-.594-1.53-.5-.792,.253h0c.068,.009,.128,.04,.173,.086Z" fill="#fff"/><path d="M20.885,25.423c-.293,.04-.591,.059-.891,.062,.301-.002,.598-.022,.891-.062Z" fill="#fff"/><path d="M21.804,25.24c-.258,.067-.522,.116-.787,.157,.266-.041,.529-.09,.787-.157Z" fill="#fff"/><path d="M11.186,20.383c1.019,1.234,4.547,5.105,8.754,5.105h0c-5.003,0-9.059-5.488-9.059-5.488,0,0,4.042-5.467,9.033-5.486-.679,.656-.933,1.221-.828,1.519,.125,.354,.396,.646,.479,.833,.083,.187,.063,.292,.375,.333s.229,.249,.312,.364c.083,.115,.166,.24,.312,.261s.167,.25,.104,.667-.083,.979,.25,1.146c.333,.167,.729,.208,.312,.479-.417,.271-.667,.708-.667,.917s-.01,.5-.328,.75c-.318,.25-.651,.438-.297,.646,.354,.208,.958,.374,1.104,.5,.146,.126,.167,.376-.354,.438s-1.083,.124-1.104,.312c-.021,.188,.729,.438,1.167,.646,.353,.168,.914,.331,1.057,.917,3.357-.874,6.021-3.81,6.884-4.856,.192-.233,.305-.383,.305-.383,0,0-.133-.178-.37-.461-.116-.139-.26-.303-.427-.489-.155-.172-.334-.361-.53-.562-.139-.142-.286-.287-.444-.438-.192-.184-.398-.371-.616-.562-1.656-1.445-4.028-2.977-6.672-2.977s-5.016,1.531-6.672,2.977c-.219,.191-.424,.378-.617,.562-.158,.151-.305,.296-.444,.438-.196,.2-.375,.389-.53,.562-.167,.185-.311,.35-.427,.489-.237,.283-.37,.461-.37,.461,0,0,.113,.15,.305,.383Zm10.254,1.564h-.438v-1.479h.438v1.479Zm.855,0h-.438v-1.479h.438v1.479Zm.854,0h-.438v-1.479h.438v1.479Zm.853,0h-.438v-1.479h.438v1.479Zm.855,0h-.438v-1.479h.438v1.479Zm.854,0h-.438v-1.479h.438v1.479Zm-.854-2.457h-.438v-1.479h.438v1.479Zm-2.999-1.479h.438v1.479h-.438v-1.479Zm.854,0h.438v1.479h-.438v-1.479Zm.853,0h.438v1.479h-.438v-1.479Zm-2.561,0h.438v1.479h-.438v-1.479Zm4.707,1.479h-.438v-1.479h.438v1.479Z" fill="#fff"/><rect x="14.255" y="18.012" width=".438" height="1.479" fill="#fff"/><rect x="15.108" y="18.012" width=".438" height="1.479" fill="#fff"/><path d="M17.134,18.656c-.153-.117-.252-.249-.317-.358v1.192h.438v-1.004h-.001s0,.139-.12,.17Z" fill="#fff"/><path d="M18.665,18.297s-.061-.085-.141-.167v1.361h.438v-1.479h-.289c.05,.182-.008,.285-.008,.285Z" fill="#fff"/><rect x="14.255" y="20.469" width=".438" height="1.479" fill="#fff"/><rect x="17.67" y="20.469" width=".438" height="1.479" fill="#fff"/><rect x="16.817" y="20.469" width=".438" height="1.479" fill="#fff"/><rect x="15.108" y="20.469" width=".438" height="1.479" fill="#fff"/><rect x="18.524" y="20.469" width=".438" height="1.479" fill="#fff"/><rect x="15.963" y="20.469" width=".438" height="1.479" fill="#fff"/><path d="M17.67,19.49h.438v-.473c-.178-.05-.325-.106-.438-.17v.642Z" fill="#fff"/><path d="M16.302,18.012h-.339v1.479h.438v-1.323c-.035-.054-.072-.106-.099-.156Z" fill="#fff"/></g><g><path d="M20.752,24.321c-.438-.208-1.188-.458-1.167-.646,.021-.188,.583-.25,1.104-.312s.5-.312,.354-.438c-.146-.126-.75-.292-1.104-.5-.354-.208-.021-.396,.297-.646,.318-.25,.328-.541,.328-.75s.25-.646,.667-.917c.417-.271,.021-.312-.312-.479-.333-.167-.313-.729-.25-1.146s.042-.646-.104-.667-.229-.146-.312-.261c-.083-.115,0-.323-.312-.364s-.292-.146-.375-.333c-.083-.187-.354-.479-.479-.833-.105-.298,.149-.863,.828-1.519-4.991,.019-9.033,5.486-9.033,5.486,0,0,4.056,5.487,9.059,5.488h.001c.017,0,.034-.003,.051-.003,.301-.002,.599-.022,.891-.062,.045-.006,.088-.019,.132-.026,.266-.041,.53-.09,.787-.157h.005v-.002c-.143-.586-.705-.749-1.058-.917Zm-5.644-6.31h.438v1.479h-.438v-1.479Zm.557-.776c.047-.594,.866-1.406,1.266-1.671,0,.328,.656,0,1.406,.451,.586,.354,.625,1.141,.625,1.141,0,0-.203-.109-.438-.203,.374,.407,.266,1.058,.266,1.058,0,0-.094-.136-.266-.292,.087,.117,.126,.21,.149,.293h.289v1.479h-.438v-1.361c-.043-.045-.091-.089-.14-.118,.171,.417-.282,.786-.141,1.052-.055-.012-.086-.031-.135-.045v.473h-.438v-.642c-.307-.173-.414-.358-.416-.362v1.004h-.438v-1.192c-.074-.125-.105-.22-.105-.22,0,0-.047,.156-.203,.25-.044-.055-.073-.107-.108-.161v1.323h-.438v-1.479h.339c-.138-.253-.184-.449-.184-.449,0,0-.14,.063-.281,.219-.031-.406,.203-.734,.203-.734,0,0-.203,.032-.375,.188Zm-1.411,.776h.438v1.479h-.438v-1.479Zm.438,3.936h-.438v-1.479h.438v1.479Zm.854,0h-.438v-1.479h.438v1.479Zm.855,0h-.438v-1.479h.438v1.479Zm.854,0h-.438v-1.479h.438v1.479Zm.854,0h-.438v-1.479h.438v1.479Zm.854,0h-.438v-1.479h.438v1.479Z"/><rect x="22.711" y="18.012" width=".438" height="1.479"/><rect x="21.857" y="20.469" width=".438" height="1.479"/><rect x="21.002" y="18.012" width=".438" height="1.479"/><rect x="25.272" y="20.469" width=".438" height="1.479"/><rect x="23.563" y="18.012" width=".438" height="1.479"/><rect x="22.711" y="20.469" width=".438" height="1.479"/><rect x="23.563" y="20.469" width=".438" height="1.479"/><rect x="21.002" y="20.469" width=".438" height="1.479"/><rect x="21.857" y="18.012" width=".438" height="1.479"/><rect x="24.418" y="20.469" width=".438" height="1.479"/><rect x="24.418" y="18.012" width=".438" height="1.479"/><rect x="25.272" y="18.012" width=".438" height="1.479"/></g><g><path d="M33.476,19.961c-.113,.055-.16-.242-.16-.242,0,0-.312,.109-.812,.578-.028,.027-.052,.057-.078,.086-.435,.474-.578,1.18-.578,1.18,0,0,.281-.234,.391-.266-.266,.609,.25,.891,.172,1.375,.203-.031,.391-.391,.391-.391,0,0,.375,.672,.906,1.046,.125-.359,.484-.656,.484-.656l.078,.203,.219-.547,.156,.266s.141-.307,0-.646c.021,.061,.234,.224,.234,.224v-.75s.125,.234,.219,.297c0-.328-.188-.562-.109-.703l.109,.193s.073-.439-.338-.826c-.036-.034-.07-.069-.115-.102-.547-.406-1.057-.375-1.169-.32Zm-1.051,2.054c.313-.469,.266-.801,.5-.807,.216-.006-.172,.635-.5,.807Zm.719,.515c.143-.302-.219-.416,0-.583,.165-.126,.234,.286,0,.583Zm.528,.438c.162-.521-.359-.75-.091-.953,.142-.107,.432,.594,.091,.953Zm.144-1.444c.25-.102,.133,.418,.406,.586-.25-.031-.577-.517-.406-.586Zm-.109-.649c.203-.14,.245,.338,.516,.422-.219,0-.677-.311-.516-.422Z" fill="#3d5da7"/><path d="M7.278,19.999c-.391,.141-.969-.234-.969-.234,0,0,.094,.234-.031,.312s-.016-.124-.344-.202c0,0,.359,.328-.141,.375-.127,.012-.247,.06-.356,.133-.322,.216-.546,.658-.535,1.101l.266-.125s-.078,.406,.047,.672c.109-.266,.266-.25,.266-.25,0,0,.031,.391,.094,.688,.125-.156,.109-.328,.109-.328,0,0,.188,.062,.281,.328,.093,.266,.141,.469,.359,.594,.094-.047,.141-.172,.141-.172,0,0,.188,.156,.484,.281-.062-.422,.344-.375,.516-.672,.062,.078,.078,.234,.078,.234,0,0,.125-.234,.125-.469s.141-.422,.141-.422c0,0,.016,.109,0,.281,.141-.078,.172-.969,.109-1.25,.094,.078,.172,.25,.172,.25,0,0,.109-.452,0-.741h0c-.109-.29-.422-.525-.812-.384Zm-1.765,1.562c.235-.343,.204-.984,.5-.984,.206,0-.062,.703-.5,.984Zm.469,.641c.188-.437,.016-.796,.203-.828,.124-.021,.148,.653-.203,.828Zm.54,.547c.116-.484-.18-.797,0-.875,.207-.091,.319,.659,0,.875Zm.257-1.375c.207-.127,.31,.402,.609,.573-.5-.12-.812-.448-.609-.573Zm-.094-.906c.203-.155,.485,.5,.828,.74-.531-.041-.995-.612-.828-.74Z" fill="#3d5da7"/><path d="M15.837,17.782c.141-.156,.281-.219,.281-.219,0,0,.046,.196,.184,.449,.027,.05,.064,.102,.099,.156,.035,.053,.064,.106,.108,.161,.156-.094,.203-.25,.203-.25,0,0,.031,.095,.105,.22,.065,.109,.164,.241,.317,.358,.12-.031,.12-.172,.12-.172h.001s.108,.19,.416,.363c.113,.064,.26,.12,.438,.17,.049,.014,.08,.033,.135,.045-.141-.266,.312-.635,.141-1.052,.049,.029,.097,.073,.14,.118,.08,.083,.141,.167,.141,.167,0,0,.059-.103,.008-.285-.023-.083-.062-.176-.149-.293,.172,.156,.266,.292,.266,.292,0,0,.108-.651-.266-1.058,.235,.094,.438,.203,.438,.203,0,0-.039-.787-.625-1.141-.751-.451-1.406-.123-1.406-.451-.4,.265-1.219,1.078-1.266,1.671,.172-.156,.375-.188,.375-.188,0,0-.234,.328-.203,.734Zm1.781,.23c.364,0,.265,.52,.406,.739-.406-.14-.632-.739-.406-.739Zm.906-.448c-.36,.031-.998-.488-.781-.547,.343-.094,.443,.483,.781,.547Zm-.001-.86c-.561,.094-1.295-.125-1.21-.422,.069-.24,.569,.391,1.21,.422Zm-1.404,.547c.17-.079,.219,.859,0,1.125,.031-.468-.235-1.015,0-1.125Zm-.485-.703c.29-.088,.188,.844-.156,1.219,.188-.641-.203-1.109,.156-1.219Z" fill="#3d5da7"/></g><g><path d="M6.521,21.874c-.18,.078,.116,.391,0,.875,.319-.216,.207-.966,0-.875Z" fill="#a70000"/><path d="M6.684,20.469c-.167,.128,.297,.699,.828,.74-.343-.24-.625-.895-.828-.74Z" fill="#a70000"/><path d="M6.778,21.375c-.203,.125,.109,.453,.609,.573-.299-.171-.402-.7-.609-.573Z" fill="#a70000"/><path d="M6.013,20.578c-.296,0-.265,.641-.5,.984,.438-.281,.706-.984,.5-.984Z" fill="#a70000"/><path d="M6.185,21.375c-.187,.032-.015,.391-.203,.828,.351-.175,.327-.849,.203-.828Z" fill="#a70000"/><path d="M33.706,20.875c-.161,.111,.297,.422,.516,.422-.271-.084-.313-.562-.516-.422Z" fill="#a70000"/><path d="M16.478,17.767c.344-.375,.446-1.307,.156-1.219-.359,.11,.032,.578-.156,1.219Z" fill="#a70000"/><path d="M32.925,21.208c-.234,.006-.187,.338-.5,.807,.328-.172,.716-.812,.5-.807Z" fill="#a70000"/><path d="M33.144,21.947c-.219,.167,.143,.281,0,.583,.234-.297,.165-.709,0-.583Z" fill="#a70000"/><path d="M33.581,22.015c-.268,.203,.253,.432,.091,.953,.341-.359,.051-1.06-.091-.953Z" fill="#a70000"/><path d="M33.815,21.523c-.171,.069,.156,.555,.406,.586-.273-.168-.156-.688-.406-.586Z" fill="#a70000"/><path d="M17.618,18.012c-.226,0,0,.599,.406,.739-.141-.219-.042-.739-.406-.739Z" fill="#a70000"/><path d="M17.743,17.017c-.217,.059,.421,.578,.781,.547-.338-.064-.438-.641-.781-.547Z" fill="#a70000"/><path d="M18.523,16.704c-.641-.031-1.141-.662-1.21-.422-.086,.297,.649,.516,1.21,.422Z" fill="#a70000"/><path d="M17.119,18.375c.219-.266,.17-1.204,0-1.125-.235,.11,.031,.657,0,1.125Z" fill="#a70000"/></g></svg>