<svg id="Layer_1" data-name="Layer 1" xmlns="http://www.w3.org/2000/svg" viewBox="0 0 40 40"><defs><style>.cls-1{fill:#afb7c0;}.cls-2{fill:none;}</style></defs><path class="cls-1" d="M28.5,7.1a4.405,4.405,0,0,1,4.4,4.4v17a4.405,4.405,0,0,1-4.4,4.4h-17a4.405,4.405,0,0,1-4.4-4.4v-17a4.405,4.405,0,0,1,4.4-4.4h17m0-3.6h-17a8,8,0,0,0-8,8v17a8,8,0,0,0,8,8h17a8,8,0,0,0,8-8v-17a8,8,0,0,0-8-8Z"/><path class="cls-1" d="M19.989,26.128c2.28,0,3.888-1.631,3.888-4.512V11.1h3.816V21.616c0,5.28-3.6,7.753-7.7,7.753-4.081,0-7.7-2.473-7.7-7.753V11.1h3.841V21.616C16.125,24.5,17.708,26.128,19.989,26.128Z"/><rect class="cls-2" width="40" height="40"/></svg>