<?xml version="1.0" encoding="UTF-8"?><svg id="Layer_1" xmlns="http://www.w3.org/2000/svg" viewBox="0 0 40 40"><rect x="2" y="8" width="36" height="24" rx="4" ry="4" fill="#f3da00"/><path d="m20,22.236L3.92,31.404c.607.371,1.313.596,2.076.596h28.009c.763,0,1.469-.225,2.076-.596l-16.081-9.167Z" fill="#1e8c35"/><path d="m20,17.764l16.081-9.168c-.607-.371-1.313-.596-2.076-.596H5.995c-.763,0-1.469.225-2.076.596l16.08,9.168Z" fill="#1e8c35"/><path d="m2.002,11.976c0,.007-.002.013-.002.02v16.009c0,.007.002.013.002.02l14.075-8.025L2.002,11.976Z"/><path d="m37.998,28.025c0-.007.002-.013.002-.02V11.996c0-.007-.002-.013-.002-.02l-14.075,8.024,14.075,8.025Z"/></svg>