<?xml version="1.0" encoding="UTF-8"?><svg id="a" xmlns="http://www.w3.org/2000/svg" viewBox="0 0 40 40"><g><rect x="3.5" y="3.5" width="33" height="33" rx="8" ry="8" fill="#4592fb"/><g><path d="M13.18,15.448v1.596h-3.544v2.494h3.144v1.607h-3.144v3.25h-1.729V15.448h5.272Z" fill="#fff"/><path d="M15.803,21.218v3.178h-1.729V15.448h3.251c1.783,0,2.853,1.2,2.853,2.915,0,1.235-.659,2.171-1.534,2.603l2.021,3.43h-1.956l-1.739-3.178h-1.166Zm1.015-1.535c1.049,0,1.578-.456,1.578-1.331,0-.84-.529-1.332-1.578-1.332h-1.015v2.663h1.015Z" fill="#fff"/><path d="M21.191,24.396V15.448h5.152v1.596h-3.424v2.099h3.035v1.607h-3.035v2.051h3.607v1.595h-5.336Z" fill="#fff"/><path d="M27.38,24.396V15.448h5.152v1.596h-3.424v2.099h3.035v1.607h-3.035v2.051h3.607v1.595h-5.336Z" fill="#fff"/></g></g><rect width="40" height="40" fill="none"/></svg>