<svg id="Layer_1" data-name="Layer 1" xmlns="http://www.w3.org/2000/svg" xmlns:xlink="http://www.w3.org/1999/xlink" viewBox="0 0 40 40"><defs><style>.cls-1{fill:none;}.cls-2{clip-path:url(#clip-path);}.cls-3{fill:#2c4c9d;}.cls-4{fill:#d91e34;}.cls-5{fill:#e5e8eb;}.cls-6{clip-path:url(#clip-path-2);}</style><clipPath id="clip-path"><rect class="cls-1" x="1.163" y="8.961" width="37.675" height="22.078" rx="4"/></clipPath><clipPath id="clip-path-2"><rect class="cls-1" x="1.163" y="8.961" width="37.675" height="22.078"/></clipPath></defs><g class="cls-2"><rect class="cls-3" x="1.163" y="8.961" width="37.675" height="3.68"/><rect class="cls-3" x="1.163" y="27.36" width="37.675" height="3.68"/><rect class="cls-4" x="1.163" y="13.254" width="37.675" height="13.492"/><rect class="cls-5" x="1.163" y="12.641" width="37.675" height="0.613"/><rect class="cls-5" x="1.163" y="26.746" width="37.675" height="0.613"/><g class="cls-6"><path class="cls-5" d="M15.814,15.094A4.906,4.906,0,1,1,10.93,20a4.895,4.895,0,0,1,4.884-4.906"/><polygon class="cls-4" points="15.814 15.247 16.876 18.531 20.313 18.531 17.533 20.561 18.594 23.845 15.814 21.816 13.033 23.845 14.095 20.561 11.314 18.531 14.752 18.531 15.814 15.247"/></g></g></svg>