<?xml version="1.0" encoding="UTF-8"?><svg id="Layer_1" xmlns="http://www.w3.org/2000/svg" viewBox="0 0 40 40"><rect x="2" y="8" width="36" height="24" rx="4" ry="4" fill="#e3e7ea"/><g><g><g><path d="m34.005,8h-7.71v1.715h10.985c-.722-1.035-1.917-1.715-3.274-1.715Z" fill="#ed002c"/><path d="m37.943,11.428h-11.648v1.715h11.706v-1.147c0-.194-.03-.38-.057-.567Z" fill="#ed002c"/><rect x="26.294" y="14.858" width="11.706" height="1.714" fill="#ed002c"/><rect x="26.294" y="18.286" width="11.706" height="1.714" fill="#ed002c"/><polygon points="2 21.715 2 23.428 38 23.428 38 21.715 26.294 21.715 2 21.715" fill="#ed002c"/><rect x="2" y="25.143" width="36" height="1.715" fill="#ed002c"/><path d="m2.722,30.286h34.556c.349-.5.574-1.084.665-1.715H2.057c.09.631.316,1.215.665,1.715Z" fill="#ed002c"/></g><path d="m5.995,8c-1.357,0-2.552.68-3.274,1.715-.349.499-.573,1.083-.664,1.714h-.057v10.286h24.294v-13.715H5.995Z" fill="#303c9d"/></g><path d="m8.507,14.858c0-2.485,2.041-4.501,4.556-4.501.872,0,1.688.243,2.381.665-.921-.812-2.136-1.307-3.467-1.307-2.873,0-5.205,2.304-5.205,5.143s2.332,5.142,5.205,5.142c1.331,0,2.545-.494,3.467-1.307-.693.421-1.509.665-2.381.665-2.515,0-4.556-2.016-4.556-4.5" fill="#fbce00"/><polygon points="18.919 14.858 21.413 13.903 18.747 14.114 20.576 12.186 18.265 13.517 19.066 10.996 17.57 13.186 17.183 10.572 16.907 12.445 16.828 12.985 16.797 13.186 15.301 10.996 16.102 13.517 13.792 12.186 15.62 14.114 12.954 13.903 15.449 14.858 12.954 15.811 15.62 15.602 13.792 17.53 16.102 16.198 15.301 18.719 16.797 16.529 16.828 16.73 16.907 17.27 17.183 19.143 17.57 16.529 19.066 18.719 18.265 16.198 20.576 17.53 18.747 15.602 21.413 15.811 18.919 14.858" fill="#fbce00"/></g></svg>