<?xml version="1.0" encoding="UTF-8"?><svg id="a" xmlns="http://www.w3.org/2000/svg" viewBox="0 0 40 40"><path d="M6,8h-.005c-2.207,0-3.995,1.789-3.995,3.996V28.004c0,2.207,1.789,3.996,3.995,3.996h7.655V8H6Z" fill="#007e5c"/><path d="M13.651,8v24h12.698V8H13.651Zm8.339,14.707l-1.99-1.429-1.991,1.429,.76-2.312-1.99-1.429h2.46l.76-2.311,.76,2.311h2.46l-1.991,1.429,.76,2.312Z" fill="#cf002e"/><g><path d="M34,8h-7.651v24h7.651c2.209,0,4-1.791,4-4V12c0-2.209-1.791-4-4-4Z" fill="#f9cf00"/><polygon points="20.76 18.966 20 16.655 19.24 18.966 16.78 18.966 18.77 20.395 18.009 22.707 20 21.278 21.99 22.707 21.23 20.395 23.22 18.966 20.76 18.966" fill="#f9cf00"/></g></svg>