<svg id="Layer_1" data-name="Layer 1" xmlns="http://www.w3.org/2000/svg" xmlns:xlink="http://www.w3.org/1999/xlink" viewBox="0 0 40 40"><defs><style>.cls-1{fill:none;}.cls-2{clip-path:url(#clip-path);}.cls-3{fill:#231e60;}.cls-4{clip-path:url(#clip-path-2);}.cls-5{fill:#e5e8eb;}.cls-6{fill:#296432;}.cls-7{fill:#ecc422;}.cls-8{clip-path:url(#clip-path-3);}.cls-9{fill:url(#linear-gradient);}.cls-10{clip-path:url(#clip-path-5);}.cls-11{fill:url(#linear-gradient-2);}.cls-12{clip-path:url(#clip-path-7);}.cls-13{fill:url(#linear-gradient-3);}.cls-14{clip-path:url(#clip-path-9);}.cls-15{fill:url(#linear-gradient-4);}.cls-16{clip-path:url(#clip-path-11);}.cls-17{fill:url(#linear-gradient-5);}.cls-18{clip-path:url(#clip-path-13);}.cls-19{fill:url(#linear-gradient-6);}.cls-20{clip-path:url(#clip-path-15);}.cls-21{fill:url(#linear-gradient-7);}.cls-22{clip-path:url(#clip-path-17);}.cls-23{fill:url(#linear-gradient-8);}.cls-24{clip-path:url(#clip-path-19);}.cls-25{fill:url(#linear-gradient-9);}.cls-26{clip-path:url(#clip-path-21);}.cls-27{fill:url(#linear-gradient-10);}.cls-28{clip-path:url(#clip-path-23);}.cls-29{fill:url(#linear-gradient-11);}.cls-30{clip-path:url(#clip-path-25);}.cls-31{fill:url(#linear-gradient-12);}.cls-32{fill:#f4c2b4;}.cls-33{fill:#8f5322;}.cls-34{fill:#b92026;}</style><clipPath id="clip-path"><rect class="cls-1" x="0.909" y="8.981" width="38.182" height="22.037" rx="4"/></clipPath><clipPath id="clip-path-2"><rect class="cls-1" x="0.909" y="8.981" width="38.182" height="22.037"/></clipPath><clipPath id="clip-path-3"><path class="cls-1" d="M26.691,21.716c0,.1.083.076.072.222.007.086-.022.065-.029.147h.144c.022-.1.062-.122.105-.254.007-.129-.105-.115-.072-.2.058-.09.029-.175-.079-.243.021.118-.141.229-.141.324"/></clipPath><linearGradient id="linear-gradient" x1="-626.742" y1="-779.466" x2="-626.704" y2="-779.466" gradientTransform="matrix(-9.036, -6.813, 3.013, -20.432, -3287.659, -20174.456)" gradientUnits="userSpaceOnUse"><stop offset="0" stop-color="#e81e25"/><stop offset="1" stop-color="#f3ea32"/></linearGradient><clipPath id="clip-path-5"><path class="cls-1" d="M26.665,20.358c0,.1.083.075.073.221.007.086-.022.065-.03.147h.145a2.694,2.694,0,0,1,.1-.253c.007-.129-.1-.115-.072-.2.057-.09.028-.175-.08-.243.022.118-.141.229-.141.325"/></clipPath><linearGradient id="linear-gradient-2" x1="-627.325" y1="-781.017" x2="-627.288" y2="-781.017" gradientTransform="matrix(-9.036, -6.813, 3.013, -20.432, -3288.28, -20211.487)" xlink:href="#linear-gradient"/><clipPath id="clip-path-7"><path class="cls-1" d="M31.491,19.123c0,.1.083.075.072.221.007.087-.021.064-.029.147h.145a2.555,2.555,0,0,1,.1-.254c.008-.128-.1-.114-.071-.2.057-.089.028-.176-.08-.243.022.118-.141.229-.141.325"/></clipPath><linearGradient id="linear-gradient-3" x1="-615.583" y1="-786.519" x2="-615.545" y2="-786.519" gradientTransform="matrix(-9.035, -6.813, 3.013, -20.431, -3160.714, -20244.182)" xlink:href="#linear-gradient"/><clipPath id="clip-path-9"><path class="cls-1" d="M26.777,17.8c0,.1.083.075.073.222.007.086-.022.064-.029.146h.144c.022-.1.062-.121.105-.254.007-.128-.105-.114-.072-.2.057-.089.029-.175-.079-.243.021.118-.142.229-.142.325"/></clipPath><linearGradient id="linear-gradient-4" x1="-627.984" y1="-784.024" x2="-627.946" y2="-784.024" gradientTransform="matrix(-9.037, -6.814, 3.013, -20.434, -3285.387, -20282.039)" xlink:href="#linear-gradient"/><clipPath id="clip-path-11"><path class="cls-1" d="M26.788,16.5c0,.1.083.075.072.222.007.085-.022.064-.029.146h.145a2.652,2.652,0,0,1,.1-.253c.007-.129-.1-.115-.072-.2.058-.089.029-.175-.079-.243.021.118-.141.229-.141.325"/></clipPath><linearGradient id="linear-gradient-5" x1="-628.477" y1="-785.494" x2="-628.439" y2="-785.494" gradientTransform="matrix(-9.036, -6.814, 3.013, -20.433, -3285.241, -20315.62)" xlink:href="#linear-gradient"/><clipPath id="clip-path-13"><path class="cls-1" d="M26.812,15.187c0,.1.084.075.073.222.007.085-.022.064-.029.146H27c.022-.1.062-.121.105-.254.007-.128-.105-.114-.072-.2.058-.088.029-.174-.08-.242.022.117-.141.228-.141.325"/></clipPath><linearGradient id="linear-gradient-6" x1="-628.94" y1="-787.022" x2="-628.903" y2="-787.022" gradientTransform="matrix(-9.037, -6.815, 3.014, -20.436, -3285.35, -20354.543)" xlink:href="#linear-gradient"/><clipPath id="clip-path-15"><path class="cls-1" d="M31.527,15.208c0,.1.083.076.072.222.008.085-.022.064-.029.146h.145a2.694,2.694,0,0,1,.105-.253c.007-.129-.105-.115-.073-.2.058-.09.029-.176-.079-.243.022.118-.141.228-.141.324"/></clipPath><linearGradient id="linear-gradient-7" x1="-616.95" y1="-791.025" x2="-616.913" y2="-791.025" gradientTransform="matrix(-9.037, -6.815, 3.014, -20.436, -3160.244, -20354.637)" xlink:href="#linear-gradient"/><clipPath id="clip-path-17"><path class="cls-1" d="M31.484,16.5c0,.1.083.074.072.22.007.086-.022.065-.029.148h.145a2.555,2.555,0,0,1,.1-.254c.007-.129-.1-.114-.072-.2.058-.089.029-.175-.079-.243.021.118-.141.229-.141.326"/></clipPath><linearGradient id="linear-gradient-8" x1="-616.596" y1="-789.481" x2="-616.558" y2="-789.481" gradientTransform="matrix(-9.037, -6.814, 3.013, -20.435, -3161.586, -20318.266)" xlink:href="#linear-gradient"/><clipPath id="clip-path-19"><path class="cls-1" d="M31.426,17.823c0,.1.083.075.072.221.007.086-.021.065-.029.146h.145a2.543,2.543,0,0,1,.105-.253c.007-.128-.105-.114-.073-.2.058-.09.029-.175-.079-.243.022.118-.141.229-.141.325"/></clipPath><linearGradient id="linear-gradient-9" x1="-616.216" y1="-787.943" x2="-616.178" y2="-787.943" gradientTransform="matrix(-9.037, -6.815, 3.014, -20.436, -3162.998, -20284.043)" xlink:href="#linear-gradient"/><clipPath id="clip-path-21"><path class="cls-1" d="M31.484,21.731c0,.095.083.074.072.22.007.086-.022.065-.029.147h.145a2.652,2.652,0,0,1,.1-.253c.007-.129-.1-.114-.072-.2.058-.09.029-.175-.079-.243.021.118-.141.229-.141.326"/></clipPath><linearGradient id="linear-gradient-10" x1="-614.532" y1="-783.561" x2="-614.495" y2="-783.561" gradientTransform="matrix(-9.037, -6.815, 3.014, -20.436, -3160.874, -20179.106)" xlink:href="#linear-gradient"/><clipPath id="clip-path-23"><path class="cls-1" d="M31.477,20.423c0,.1.083.075.072.222.007.085-.022.064-.029.146h.144c.022-.1.062-.121.1-.253.007-.129-.1-.115-.072-.2.058-.089.029-.175-.08-.243.022.118-.14.228-.14.325"/></clipPath><linearGradient id="linear-gradient-11" x1="-615.047" y1="-785.035" x2="-615.009" y2="-785.035" gradientTransform="matrix(-9.037, -6.814, 3.013, -20.434, -3160.766, -20211.961)" xlink:href="#linear-gradient"/><clipPath id="clip-path-25"><path class="cls-1" d="M27.639,19.208c0,.1.083.075.072.222.007.085-.022.064-.029.146h.144c.022-.1.062-.122.105-.254.007-.128-.105-.114-.072-.2.058-.089.029-.175-.08-.243.022.118-.14.229-.14.325"/></clipPath><linearGradient id="linear-gradient-12" x1="-625.262" y1="-783.148" x2="-625.225" y2="-783.148" gradientTransform="matrix(-9.037, -6.814, 3.013, -20.434, -3262.579, -20244.211)" xlink:href="#linear-gradient"/></defs><g class="cls-2"><rect class="cls-3" x="0.909" y="8.981" width="38.182" height="22.037"/><g class="cls-4"><path class="cls-5" d="M25.927,14.35,34,14.32l-.015,7.112s.285,1.081-3.384,2.726a5.923,5.923,0,0,0,2.755-1.526s.585-.741.869-.327a3.183,3.183,0,0,0,.764.785.644.644,0,0,1,.059.934c-.314.326-.808.37-.943-.03a6.22,6.22,0,0,1-4.132,1.718,5.874,5.874,0,0,1-4.148-1.733.551.551,0,0,1-.868.119c-.494-.577-.12-.948-.12-.948a2.423,2.423,0,0,0,.539-.4c.2-.222.255-.518.584-.518a.665.665,0,0,1,.539.34,5.676,5.676,0,0,0,2.8,1.586c-3.279-1.556-3.4-2.519-3.384-2.756Z"/><path class="cls-6" d="M26.122,14.543l7.7-.044v6.844c.016.889-1.5,1.792-3.862,2.948-2.441-1.245-3.848-2-3.863-2.963Z"/><path d="M29.955,24.318l-.011-.006c-2.466-1.257-3.861-2.016-3.877-2.984l.03-6.785,7.72-.068.025,6.868c.015.888-1.472,1.794-3.876,2.969l-.011.006ZM33.793,14.5l-7.671.068-.006,6.761c.015.939,1.4,1.69,3.839,2.936,2.381-1.164,3.853-2.059,3.838-2.921V14.5Z"/><polygon class="cls-7" points="27.063 22.095 27.031 22.074 27.486 21.414 27.974 22.075 27.486 21.435 27.063 22.095 27.063 22.095"/><path class="cls-7" d="M27.592,21.838a.09.09,0,1,1-.09-.09.089.089,0,0,1,.09.09Z"/><path d="M27.5,21.938a.1.1,0,0,1-.1-.1c0-.111.2-.111.2,0a.1.1,0,0,1-.1.1Zm0-.179a.079.079,0,0,0-.079.079c0,.086.158.086.158,0a.079.079,0,0,0-.079-.079Z"/><path class="cls-7" d="M27.133,22.572l.7,0a.159.159,0,0,0-.074-.145c.369-.051.273-.373.582-.391.06.009-.161.137-.161.137s-.186.13-.1.2c.068.052.1-.032.107-.1s.3-.1.257-.287c-.069-.151-.474.1-.474.1l-.29,0c-.017-.032-.1-.16-.18-.161-.1,0-.166.163-.166.163h-.655s-.023.167.309.2a.4.4,0,0,0,.2.148.156.156,0,0,0-.055.137Z"/><path d="M27.847,22.586l-.714,0a.148.148,0,0,1,.047-.157.275.275,0,0,1-.2-.132.378.378,0,0,1-.277-.11.133.133,0,0,1-.034-.1l.667-.01c-.008,0,.061-.159.165-.163s.188.161.192.167l.279,0c0-.006.422-.231.485-.093.03.13-.089.192-.176.237-.039.02-.078.041-.081.057,0,.037-.023.122-.079.122l-.046-.019a.064.064,0,0,1-.027-.052c0-.073.124-.159.129-.163a.648.648,0,0,0,.166-.12.311.311,0,0,0-.251.175.424.424,0,0,1-.327.221.129.129,0,0,1,.084.134l0,.011ZM26.686,22.1a.276.276,0,0,0,.036.07.378.378,0,0,0,.269.1.429.429,0,0,0,.2.149.232.232,0,0,0-.047.148l.68-.01a.146.146,0,0,0-.068-.123.476.476,0,0,0,.315-.233.322.322,0,0,1,.272-.18c.029.047-.07.111-.154.159-.032.022-.116.093-.118.143l.01.043.039,0c.03,0,.048-.052.056-.1,0-.028.043-.048.093-.074.084-.044.19-.1.164-.209-.05-.107-.453.107-.456.108h-.3c-.04-.059-.113-.16-.18-.161-.089,0-.155.154-.155.156l-.661.007Z"/><polygon points="27.183 22.442 27.183 22.419 27.77 22.417 27.183 22.442 27.183 22.442"/><path d="M27.181,22.413c-.228-.043-.276-.312-.278-.323l.024,0a.435.435,0,0,0,.254.327Z"/></g><g class="cls-8"><polygon class="cls-9" points="27.083 21.461 26.721 21.19 26.598 22.015 26.96 22.286 27.083 21.461"/></g><g class="cls-4"><path d="M26.888,22.1h-.154a.111.111,0,0,1,.007-.084.131.131,0,0,0,.01-.074.155.155,0,0,0-.037-.132.13.13,0,0,1-.036-.091.286.286,0,0,1,.069-.143.263.263,0,0,0,.073-.179c.133.06.163.153.1.247-.012.03,0,.042.022.063a.145.145,0,0,1,.052.127.677.677,0,0,1-.059.137.411.411,0,0,0-.046.119l0,.01Zm-.063-.7c.031.058-.014.122-.058.185a.263.263,0,0,0-.064.129.1.1,0,0,0,.03.076.173.173,0,0,1,.042.147.132.132,0,0,1-.013.084.166.166,0,0,0-.016.062l.122-.012a.418.418,0,0,1,.047-.116.824.824,0,0,0,.057-.13.12.12,0,0,0-.046-.106.073.073,0,0,1-.026-.091c.069-.107,0-.183-.075-.228Z"/><path class="cls-7" d="M27.585,21.441a.083.083,0,1,1-.083-.082.082.082,0,0,1,.083.082Z"/><path d="M27.5,21.535a.1.1,0,0,1-.095-.094c0-.1.19-.1.19,0a.094.094,0,0,1-.1.094Zm0-.164a.07.07,0,0,0-.07.07c0,.078.141.078.141,0a.07.07,0,0,0-.071-.07Z"/><polygon class="cls-7" points="27.038 20.736 27.006 20.715 27.46 20.055 27.949 20.717 27.46 20.076 27.038 20.736 27.038 20.736"/><path class="cls-7" d="M27.567,20.479a.09.09,0,1,1-.09-.09.089.089,0,0,1,.09.09Z"/><path d="M27.477,20.579a.1.1,0,0,1-.1-.1c0-.111.2-.111.2,0a.1.1,0,0,1-.1.1Zm0-.179a.079.079,0,0,0-.079.079c0,.086.158.086.158,0a.08.08,0,0,0-.079-.079Z"/><path class="cls-7" d="M27.107,21.213l.7,0a.159.159,0,0,0-.073-.145c.369-.051.273-.373.581-.391.061.009-.161.137-.161.137s-.186.13-.1.2c.067.053.1-.032.106-.1s.3-.1.258-.287c-.069-.15-.475.1-.475.1h-.289c-.018-.033-.1-.161-.181-.162s-.166.163-.166.163h-.655s-.022.167.309.2a.4.4,0,0,0,.2.148.16.16,0,0,0-.055.137Z"/><path d="M27.822,21.227l-.715,0a.151.151,0,0,1,.047-.158.274.274,0,0,1-.2-.132.379.379,0,0,1-.278-.11.137.137,0,0,1-.034-.1l.667-.01c-.008,0,.062-.159.166-.163s.182.152.191.168l.279-.005c0-.006.423-.23.486-.093.03.13-.09.192-.177.237-.038.02-.078.041-.08.057,0,.037-.024.123-.079.123l-.047-.02a.061.061,0,0,1-.026-.052c0-.073.123-.159.128-.163a.672.672,0,0,0,.167-.119.309.309,0,0,0-.252.174.42.42,0,0,1-.327.221.128.128,0,0,1,.084.135v.01Zm-1.161-.486a.276.276,0,0,0,.036.07.376.376,0,0,0,.269.105.428.428,0,0,0,.2.149.24.24,0,0,0-.047.148l.681-.01a.145.145,0,0,0-.069-.123.475.475,0,0,0,.316-.232.318.318,0,0,1,.272-.181c.028.047-.071.111-.155.159-.031.022-.116.093-.117.143l.01.043.039,0c.029,0,.048-.053.055-.1,0-.029.043-.049.093-.075.085-.044.19-.1.165-.208-.05-.108-.453.106-.456.107h-.3c-.04-.06-.114-.161-.181-.162-.088,0-.154.154-.155.156l-.66.007Z"/><polygon points="27.158 21.083 27.158 21.06 27.744 21.058 27.158 21.083 27.158 21.083"/><path d="M27.156,21.054c-.228-.043-.277-.312-.279-.323l.024,0a.436.436,0,0,0,.255.327Z"/></g><g class="cls-10"><polygon class="cls-11" points="27.058 20.102 26.695 19.832 26.572 20.656 26.935 20.927 27.058 20.102"/></g><g class="cls-4"><path d="M26.863,20.738h-.155a.122.122,0,0,1,.007-.084.121.121,0,0,0,.011-.074.158.158,0,0,0-.037-.132.124.124,0,0,1-.036-.09.282.282,0,0,1,.068-.144.263.263,0,0,0,.073-.179c.133.06.163.152.1.247-.012.031,0,.043.022.064a.148.148,0,0,1,.052.127.834.834,0,0,1-.059.138.371.371,0,0,0-.046.117l0,.01Zm-.064-.7c.032.058-.014.122-.058.185a.27.27,0,0,0-.064.13.1.1,0,0,0,.03.075.175.175,0,0,1,.043.147.132.132,0,0,1-.013.084.135.135,0,0,0-.016.062l.122-.012a.436.436,0,0,1,.046-.114.723.723,0,0,0,.057-.131.124.124,0,0,0-.045-.106.075.075,0,0,1-.027-.092c.069-.107,0-.183-.075-.228Z"/><path class="cls-7" d="M27.56,20.082A.083.083,0,1,1,27.477,20a.082.082,0,0,1,.083.082Z"/><path d="M27.477,20.176a.094.094,0,0,1-.095-.094c0-.1.19-.1.19,0a.1.1,0,0,1-.095.094Zm0-.164a.07.07,0,0,0-.071.07c0,.078.141.078.142,0a.07.07,0,0,0-.071-.07Z"/><polygon class="cls-7" points="31.863 19.501 31.831 19.48 32.286 18.819 32.774 19.481 32.286 18.841 31.863 19.501 31.863 19.501"/><path class="cls-7" d="M32.393,19.243a.09.09,0,1,1-.09-.088.09.09,0,0,1,.09.088Z"/><path d="M32.3,19.344a.1.1,0,0,1-.1-.1c0-.11.2-.11.2,0a.1.1,0,0,1-.1.1Zm0-.178a.077.077,0,0,0-.079.077c0,.087.158.087.158,0a.078.078,0,0,0-.079-.077Z"/><path class="cls-7" d="M31.933,19.978l.7,0a.16.16,0,0,0-.075-.145c.37-.051.274-.373.582-.39.061.009-.161.136-.161.136s-.186.13-.1.2c.067.053.1-.032.106-.1s.3-.1.258-.288c-.069-.151-.475.1-.475.1h-.289c-.018-.032-.1-.161-.181-.162s-.166.163-.166.163h-.655s-.023.166.309.2a.4.4,0,0,0,.2.148.157.157,0,0,0-.055.137Z"/><path d="M32.648,19.992l-.715,0a.148.148,0,0,1,.047-.158.274.274,0,0,1-.2-.132.386.386,0,0,1-.279-.11.138.138,0,0,1-.033-.1l.667-.011c-.008,0,.062-.159.166-.163s.175.14.191.168l.279,0c.005-.006.422-.232.486-.093.03.13-.09.192-.177.238-.038.02-.078.04-.08.056-.006.037-.024.123-.079.123l-.047-.019a.064.064,0,0,1-.026-.054c0-.073.123-.158.128-.161a.64.64,0,0,0,.167-.12.312.312,0,0,0-.252.174.422.422,0,0,1-.327.221.13.13,0,0,1,.085.134l0,.011Zm-1.161-.486a.3.3,0,0,0,.035.07.377.377,0,0,0,.27.105.425.425,0,0,0,.2.149.238.238,0,0,0-.047.148l.681-.01a.147.147,0,0,0-.069-.123.472.472,0,0,0,.316-.232.317.317,0,0,1,.272-.18c.028.046-.071.11-.155.159-.031.022-.116.091-.117.142l.01.043.039,0c.03,0,.048-.055.055-.1,0-.029.043-.049.093-.075.084-.044.19-.1.165-.208-.05-.108-.453.106-.456.108h-.3c-.043-.064-.115-.161-.181-.162-.088,0-.155.154-.155.156l-.66.007Z"/><polygon points="31.984 19.849 31.984 19.825 32.57 19.823 31.984 19.849 31.984 19.849"/><path d="M31.982,19.819c-.228-.043-.277-.311-.279-.322l.024,0a.436.436,0,0,0,.255.327Z"/></g><g class="cls-12"><polygon class="cls-13" points="31.884 18.867 31.521 18.597 31.398 19.422 31.761 19.692 31.884 18.867"/></g><g class="cls-4"><path d="M31.689,19.5h-.155a.12.12,0,0,1,.007-.084.112.112,0,0,0,.01-.074.155.155,0,0,0-.037-.132.129.129,0,0,1-.035-.09.282.282,0,0,1,.068-.144.261.261,0,0,0,.073-.179.169.169,0,0,1,.129.121.164.164,0,0,1-.028.127c-.011.029,0,.041.022.062a.146.146,0,0,1,.052.128.677.677,0,0,1-.059.137.41.41,0,0,0-.045.118l0,.01Zm-.064-.7c.031.058-.014.123-.058.185a.27.27,0,0,0-.064.13.108.108,0,0,0,.03.076.17.17,0,0,1,.042.146.134.134,0,0,1-.012.084.136.136,0,0,0-.016.063l.122-.012a.39.39,0,0,1,.046-.116.74.74,0,0,0,.057-.13.122.122,0,0,0-.046-.107.072.072,0,0,1-.026-.09.144.144,0,0,0,.025-.111.2.2,0,0,0-.1-.118Z"/><path class="cls-7" d="M32.386,18.847a.083.083,0,1,1-.083-.082.082.082,0,0,1,.083.082Z"/><path d="M32.3,18.941a.093.093,0,0,1-.095-.094c0-.1.19-.1.19,0a.1.1,0,0,1-.1.094Zm0-.164a.07.07,0,0,0-.071.07c0,.078.141.078.142,0a.07.07,0,0,0-.071-.07Z"/><polygon class="cls-7" points="27.15 18.181 27.118 18.159 27.572 17.499 28.061 18.16 27.572 17.52 27.15 18.181 27.15 18.181"/><path class="cls-7" d="M27.679,17.923a.09.09,0,1,1-.09-.089.089.089,0,0,1,.09.089Z"/><path d="M27.589,18.023a.1.1,0,0,1-.1-.1c0-.11.2-.11.2,0a.1.1,0,0,1-.1.1Zm0-.178a.079.079,0,0,0-.079.078c0,.086.158.086.158,0a.078.078,0,0,0-.079-.078Z"/><path class="cls-7" d="M27.219,18.657l.7,0a.163.163,0,0,0-.074-.146c.369-.05.273-.372.582-.39.06.009-.161.137-.161.137s-.187.129-.1.2c.068.052.1-.032.106-.1s.3-.105.258-.288c-.069-.15-.474.1-.474.1l-.29,0c-.018-.032-.1-.161-.18-.162-.1,0-.167.164-.167.164h-.655s-.022.166.31.2a.4.4,0,0,0,.2.148.158.158,0,0,0-.056.137Z"/><path d="M27.934,18.672l-.715,0a.148.148,0,0,1,.048-.158.273.273,0,0,1-.2-.132.381.381,0,0,1-.278-.109.139.139,0,0,1-.034-.1l.667-.01c-.008,0,.062-.16.166-.164.089,0,.169.129.192.168l.279,0a.958.958,0,0,1,.382-.149.1.1,0,0,1,.1.055c.03.13-.089.193-.177.238-.038.02-.078.04-.08.057,0,.036-.023.122-.079.122l-.046-.019a.061.061,0,0,1-.027-.054c0-.073.124-.158.129-.161a.648.648,0,0,0,.166-.12.309.309,0,0,0-.251.175.426.426,0,0,1-.327.22.132.132,0,0,1,.084.135l0,.011Zm-1.161-.486a.315.315,0,0,0,.036.07.376.376,0,0,0,.269.1.427.427,0,0,0,.2.149.239.239,0,0,0-.048.148l.681-.009a.146.146,0,0,0-.069-.124.472.472,0,0,0,.316-.232.319.319,0,0,1,.272-.18c.029.046-.07.11-.154.159-.032.022-.116.092-.118.142l.01.044.039,0c.03,0,.049-.055.055-.1,0-.028.043-.049.093-.075.085-.043.191-.1.165-.208-.05-.107-.453.106-.456.108h-.3c-.052-.077-.121-.161-.18-.162-.089,0-.155.155-.156.156l-.66.008Z"/><polygon points="27.27 18.528 27.27 18.504 27.856 18.502 27.27 18.528 27.27 18.528"/><path d="M27.268,18.5c-.228-.043-.277-.311-.279-.322l.024,0s.048.266.255.327Z"/></g><g class="cls-14"><polygon class="cls-15" points="27.17 17.546 26.808 17.276 26.685 18.101 27.047 18.371 27.17 17.546"/></g><g class="cls-4"><path d="M26.975,18.182h-.154a.123.123,0,0,1,.006-.084.115.115,0,0,0,.011-.073.161.161,0,0,0-.037-.133.126.126,0,0,1-.036-.09.278.278,0,0,1,.069-.143.265.265,0,0,0,.073-.179.168.168,0,0,1,.128.12.163.163,0,0,1-.027.127c-.012.029,0,.041.022.062a.15.15,0,0,1,.052.128.677.677,0,0,1-.059.137.382.382,0,0,0-.046.118l0,.01Zm-.063-.7c.031.059-.014.123-.059.185a.276.276,0,0,0-.063.13.1.1,0,0,0,.03.076.179.179,0,0,1,.042.147.13.13,0,0,1-.013.083.167.167,0,0,0-.016.063l.122-.012A.418.418,0,0,1,27,18.043a.751.751,0,0,0,.056-.13.126.126,0,0,0-.045-.107.073.073,0,0,1-.027-.09.145.145,0,0,0,.026-.111.2.2,0,0,0-.1-.118Z"/><path class="cls-7" d="M27.672,17.526a.083.083,0,1,1-.083-.082.083.083,0,0,1,.083.082Z"/><path d="M27.589,17.621a.1.1,0,0,1-.095-.095c0-.1.19-.1.19,0a.1.1,0,0,1-.1.095Zm0-.165a.07.07,0,0,0-.071.07c0,.078.142.079.142,0a.07.07,0,0,0-.071-.07Z"/><polygon class="cls-7" points="27.16 16.882 27.128 16.861 27.582 16.201 28.071 16.863 27.582 16.222 27.16 16.882 27.16 16.882"/><path class="cls-7" d="M27.69,16.625a.091.091,0,1,1-.091-.09.09.09,0,0,1,.091.09Z"/><path d="M27.6,16.725a.1.1,0,0,1-.1-.1c0-.112.2-.111.2,0a.1.1,0,0,1-.1.1Zm0-.179a.079.079,0,0,0-.079.079c0,.087.158.086.158,0a.079.079,0,0,0-.079-.079Z"/><path class="cls-7" d="M27.229,17.359l.705,0a.159.159,0,0,0-.074-.145c.369-.05.273-.372.582-.391.06.009-.161.137-.161.137s-.187.13-.1.2c.067.052.1-.032.106-.1s.3-.106.259-.287c-.069-.151-.475.1-.475.1l-.29,0c-.018-.032-.1-.161-.18-.161-.1,0-.167.163-.167.163h-.655s-.022.166.31.2a.41.41,0,0,0,.2.149.156.156,0,0,0-.056.136Z"/><path d="M27.944,17.373l-.715,0a.148.148,0,0,1,.048-.158.278.278,0,0,1-.2-.132.381.381,0,0,1-.279-.11.133.133,0,0,1-.033-.1l.666-.01c-.007,0,.063-.159.167-.163s.175.139.191.167l.279,0c.005-.006.423-.232.486-.093.03.129-.09.191-.177.237-.039.02-.078.04-.081.057,0,.037-.024.122-.079.122l-.046-.019a.061.061,0,0,1-.027-.054c0-.072.124-.158.129-.162a.68.68,0,0,0,.166-.119.31.31,0,0,0-.251.174.424.424,0,0,1-.327.221.129.129,0,0,1,.084.134l0,.011Zm-1.161-.485a.3.3,0,0,0,.036.069.376.376,0,0,0,.269.105.435.435,0,0,0,.2.15.238.238,0,0,0-.048.147l.681-.01a.145.145,0,0,0-.069-.123.472.472,0,0,0,.316-.232.322.322,0,0,1,.272-.181c.029.046-.07.111-.154.159-.032.022-.116.093-.118.143l.01.044.039,0c.03,0,.048-.052.056-.1,0-.028.043-.049.093-.074.085-.045.19-.1.165-.209-.05-.108-.453.106-.457.108h-.3c-.043-.064-.115-.161-.18-.161-.088,0-.155.154-.155.156l-.661.007Z"/><polygon points="27.28 17.229 27.28 17.205 27.867 17.204 27.28 17.229 27.28 17.229"/><path d="M27.278,17.2c-.228-.043-.276-.311-.278-.322l.023,0s.049.265.255.326Z"/></g><g class="cls-16"><polygon class="cls-17" points="27.18 16.249 26.818 15.978 26.695 16.802 27.057 17.073 27.18 16.249"/></g><g class="cls-4"><path d="M26.985,16.884h-.154a.115.115,0,0,1,.007-.084.121.121,0,0,0,.01-.073.156.156,0,0,0-.037-.133.126.126,0,0,1-.035-.09.282.282,0,0,1,.068-.144.265.265,0,0,0,.073-.179.171.171,0,0,1,.129.122.159.159,0,0,1-.028.125c-.012.03,0,.043.022.064a.145.145,0,0,1,.052.127.677.677,0,0,1-.059.137.411.411,0,0,0-.046.119l0,.009Zm-.063-.7c.031.057-.014.122-.058.185a.266.266,0,0,0-.064.13.107.107,0,0,0,.03.076.174.174,0,0,1,.042.147.139.139,0,0,1-.012.083.147.147,0,0,0-.017.063l.122-.012a.418.418,0,0,1,.047-.116.784.784,0,0,0,.057-.13.121.121,0,0,0-.046-.106A.074.074,0,0,1,27,16.417a.138.138,0,0,0,.025-.109.2.2,0,0,0-.1-.119Z"/><path class="cls-7" d="M27.683,16.228a.084.084,0,0,1-.084.083.083.083,0,1,1,.084-.083Z"/><path d="M27.6,16.323a.1.1,0,0,1-.095-.095c0-.1.191-.1.191,0a.1.1,0,0,1-.1.095Zm0-.165a.07.07,0,0,0-.071.07c0,.078.142.078.142,0a.07.07,0,0,0-.071-.07Z"/><polygon class="cls-7" points="27.185 15.565 27.153 15.544 27.607 14.884 28.096 15.545 27.607 14.905 27.185 15.565 27.185 15.565"/><path class="cls-7" d="M27.714,15.308a.09.09,0,0,1-.18,0,.09.09,0,1,1,.18,0Z"/><path d="M27.624,15.408a.1.1,0,0,1-.1-.1c0-.111.2-.111.2,0a.1.1,0,0,1-.1.1Zm0-.179a.079.079,0,0,0-.079.079c0,.087.158.087.158,0a.079.079,0,0,0-.079-.079Z"/><path class="cls-7" d="M27.254,16.042l.7,0a.163.163,0,0,0-.074-.146c.369-.049.273-.371.582-.39.06.01-.161.138-.161.138s-.186.129-.1.2c.068.052.1-.032.106-.1s.3-.106.258-.288c-.069-.15-.474.1-.474.1l-.29,0c-.018-.032-.1-.162-.18-.162-.1,0-.166.164-.166.164H26.8s-.023.165.309.2a.392.392,0,0,0,.2.149.161.161,0,0,0-.056.137Z"/><path d="M27.969,16.056l-.715,0A.151.151,0,0,1,27.3,15.9a.273.273,0,0,1-.2-.132.385.385,0,0,1-.278-.11.133.133,0,0,1-.033-.1l.667-.01c-.008,0,.061-.16.165-.164s.176.14.192.168l.279,0c0-.007.422-.232.485-.094.03.13-.089.192-.176.237-.039.02-.079.041-.081.058,0,.036-.023.122-.079.122l-.046-.019a.065.065,0,0,1-.027-.054c0-.073.124-.158.129-.161a.653.653,0,0,0,.166-.12.306.306,0,0,0-.251.174.421.421,0,0,1-.327.22.132.132,0,0,1,.084.135l0,.011Zm-1.161-.485a.3.3,0,0,0,.036.069.376.376,0,0,0,.269.1.417.417,0,0,0,.2.15.235.235,0,0,0-.047.148l.68-.01a.144.144,0,0,0-.069-.123.472.472,0,0,0,.316-.232.321.321,0,0,1,.272-.181c.029.047-.07.111-.154.16-.032.022-.116.092-.118.142l.01.044.039,0c.03,0,.048-.055.055-.1,0-.028.044-.049.093-.075.085-.044.191-.1.165-.208-.05-.107-.453.106-.456.108h-.3c-.043-.064-.115-.162-.18-.162-.089,0-.155.155-.155.156l-.661.008Z"/><polygon points="27.305 15.913 27.305 15.889 27.892 15.886 27.305 15.913 27.305 15.913"/><path d="M27.3,15.882c-.228-.042-.276-.31-.278-.321l.023-.005s.048.266.255.326Z"/></g><g class="cls-18"><polygon class="cls-19" points="27.206 14.931 26.842 14.661 26.72 15.486 27.082 15.756 27.206 14.931"/></g><g class="cls-4"><path d="M27.01,15.567h-.154a.128.128,0,0,1,.006-.085.114.114,0,0,0,.011-.072.161.161,0,0,0-.037-.133.126.126,0,0,1-.036-.09.285.285,0,0,1,.069-.144.256.256,0,0,0,.072-.178.17.17,0,0,1,.13.121.164.164,0,0,1-.028.125c-.012.03,0,.043.022.063a.148.148,0,0,1,.052.128.7.7,0,0,1-.059.137.4.4,0,0,0-.046.118l0,.01Zm-.063-.694c.031.057-.014.121-.058.184a.262.262,0,0,0-.064.13.1.1,0,0,0,.03.076.179.179,0,0,1,.042.147.132.132,0,0,1-.013.083.167.167,0,0,0-.016.063l.122-.012a.406.406,0,0,1,.047-.116.869.869,0,0,0,.057-.13.124.124,0,0,0-.046-.107.074.074,0,0,1-.027-.091.14.14,0,0,0,.026-.109.2.2,0,0,0-.1-.118Z"/><path class="cls-7" d="M27.707,14.911a.083.083,0,1,1-.083-.082.083.083,0,0,1,.083.082Z"/><path d="M27.624,15.006a.1.1,0,0,1-.095-.1c0-.1.19-.1.19,0a.1.1,0,0,1-.1.1Zm0-.165a.071.071,0,0,0-.071.07c0,.078.142.078.142,0a.071.071,0,0,0-.071-.07Z"/><polygon class="cls-7" points="31.9 15.586 31.868 15.565 32.322 14.905 32.81 15.567 32.322 14.926 31.9 15.586 31.9 15.586"/><path class="cls-7" d="M32.429,15.329a.09.09,0,1,1-.09-.089.089.089,0,0,1,.09.089Z"/><path d="M32.339,15.43a.1.1,0,0,1-.1-.1c0-.111.2-.11.2,0a.1.1,0,0,1-.1.1Zm0-.179a.078.078,0,0,0-.079.078c0,.087.158.086.158,0a.079.079,0,0,0-.079-.078Z"/><path class="cls-7" d="M31.969,16.063l.7,0a.157.157,0,0,0-.074-.144c.369-.051.274-.373.583-.392.059.01-.162.138-.162.138s-.186.129-.1.2c.067.052.1-.032.106-.1s.3-.1.258-.287c-.069-.151-.475.1-.475.1l-.29,0c-.018-.032-.1-.16-.18-.161-.1,0-.166.163-.166.163h-.655s-.022.166.31.2a.4.4,0,0,0,.2.149.158.158,0,0,0-.055.136Z"/><path d="M32.684,16.077l-.715,0a.148.148,0,0,1,.048-.158.27.27,0,0,1-.2-.132.383.383,0,0,1-.279-.11.138.138,0,0,1-.033-.1l.667-.01c-.008,0,.062-.159.166-.163s.175.139.191.167l.279,0c.005-.006.423-.232.486-.093.03.13-.09.192-.177.237-.038.02-.078.04-.08.057-.006.037-.024.122-.079.122l-.047-.019a.061.061,0,0,1-.026-.053c0-.073.123-.158.128-.162a.64.64,0,0,0,.167-.12.309.309,0,0,0-.251.175.423.423,0,0,1-.328.22.127.127,0,0,1,.084.134v.011Zm-1.161-.485a.3.3,0,0,0,.035.069.379.379,0,0,0,.27.105.426.426,0,0,0,.2.15.238.238,0,0,0-.048.147l.681-.01a.146.146,0,0,0-.069-.122.476.476,0,0,0,.315-.233.323.323,0,0,1,.273-.181c.028.047-.07.112-.155.16-.031.022-.116.092-.117.142l.01.044.039,0c.029,0,.048-.052.055-.1,0-.028.043-.049.093-.074.085-.044.19-.1.165-.209-.05-.107-.454.106-.457.108h-.3c-.042-.063-.114-.16-.18-.161-.088,0-.154.154-.155.156l-.66.007Z"/><polygon points="32.019 15.934 32.019 15.91 32.606 15.909 32.019 15.934 32.019 15.934"/><path d="M32.018,15.9c-.228-.042-.277-.311-.279-.322l.024,0s.048.265.255.326Z"/></g><g class="cls-20"><polygon class="cls-21" points="31.92 14.953 31.557 14.682 31.434 15.507 31.797 15.778 31.92 14.953"/></g><g class="cls-4"><path d="M31.725,15.588H31.57a.121.121,0,0,1,.007-.084.111.111,0,0,0,.01-.073.157.157,0,0,0-.036-.132.126.126,0,0,1-.036-.091.271.271,0,0,1,.069-.143.263.263,0,0,0,.072-.179.169.169,0,0,1,.129.12.163.163,0,0,1-.028.127c-.011.03,0,.042.022.062a.149.149,0,0,1,.053.128.816.816,0,0,1-.059.137.384.384,0,0,0-.046.119l0,.009Zm-.063-.694c.031.057-.015.122-.059.184a.27.27,0,0,0-.064.13.1.1,0,0,0,.031.076.179.179,0,0,1,.042.147.134.134,0,0,1-.013.083.147.147,0,0,0-.017.063l.123-.012a.418.418,0,0,1,.046-.116.707.707,0,0,0,.057-.13.12.12,0,0,0-.046-.106.074.074,0,0,1-.026-.091.147.147,0,0,0,.026-.11.2.2,0,0,0-.1-.118Z"/><path class="cls-7" d="M32.422,14.932a.083.083,0,1,1-.166,0,.083.083,0,0,1,.166,0Z"/><path d="M32.339,15.027a.1.1,0,0,1-.095-.095c0-.1.19-.1.19,0a.1.1,0,0,1-.095.095Zm0-.164a.07.07,0,0,0-.071.069c0,.078.142.078.141,0a.069.069,0,0,0-.07-.069Z"/><polygon class="cls-7" points="31.856 16.879 31.824 16.858 32.278 16.198 32.767 16.86 32.278 16.219 31.856 16.879 31.856 16.879"/><path class="cls-7" d="M32.386,16.622a.091.091,0,0,1-.181,0,.091.091,0,0,1,.181,0Z"/><path d="M32.3,16.723a.1.1,0,0,1-.1-.1c0-.11.2-.111.2,0a.1.1,0,0,1-.1.1Zm0-.179a.079.079,0,0,0-.08.078c0,.086.159.087.158,0a.078.078,0,0,0-.078-.078Z"/><path class="cls-7" d="M31.926,17.357h.7a.159.159,0,0,0-.074-.145c.369-.051.273-.372.582-.39.06.009-.161.136-.161.136s-.187.131-.1.2c.067.053.1-.032.106-.1s.3-.1.258-.287c-.069-.15-.475.1-.475.1l-.29,0c-.018-.032-.1-.161-.18-.161-.1,0-.167.163-.167.163h-.654s-.022.166.309.2a.4.4,0,0,0,.2.148.157.157,0,0,0-.055.138Z"/><path d="M32.64,17.37h-.714a.149.149,0,0,1,.047-.159.274.274,0,0,1-.2-.132.385.385,0,0,1-.279-.109.14.14,0,0,1-.033-.1l.666-.01c-.007,0,.063-.159.167-.163.088,0,.168.128.191.168l.279,0a.987.987,0,0,1,.383-.149.1.1,0,0,1,.1.055c.03.13-.09.192-.177.237-.038.02-.078.041-.08.057-.007.046-.026.123-.079.123l-.047-.019a.066.066,0,0,1-.027-.053c0-.073.124-.159.129-.163a.622.622,0,0,0,.167-.119.311.311,0,0,0-.252.174.42.42,0,0,1-.327.221.13.13,0,0,1,.084.135l0,.01Zm-1.16-.485a.245.245,0,0,0,.035.069.378.378,0,0,0,.269.105.422.422,0,0,0,.2.149.234.234,0,0,0-.047.149l.68-.011a.146.146,0,0,0-.068-.123.47.47,0,0,0,.315-.232.32.32,0,0,1,.273-.18c.028.046-.071.11-.155.158-.032.023-.116.093-.117.143l.01.043.039,0c.029,0,.048-.053.055-.1,0-.029.043-.049.093-.075.085-.044.19-.1.165-.208-.05-.109-.453.107-.457.108h-.3c-.025-.032-.1-.161-.18-.161s-.155.154-.155.156l-.66.007Z"/><polygon points="31.976 17.227 31.976 17.203 32.563 17.201 31.976 17.227 31.976 17.227"/><path d="M31.974,17.2c-.228-.042-.276-.31-.278-.322l.023,0s.049.265.255.326Z"/></g><g class="cls-22"><polygon class="cls-23" points="31.876 16.246 31.514 15.976 31.391 16.8 31.753 17.07 31.876 16.246"/></g><g class="cls-4"><path d="M31.681,16.882h-.154a.124.124,0,0,1,.007-.085.121.121,0,0,0,.01-.074.151.151,0,0,0-.037-.131.129.129,0,0,1-.035-.09.289.289,0,0,1,.068-.145.261.261,0,0,0,.073-.179.171.171,0,0,1,.129.122.162.162,0,0,1-.028.126c-.011.029,0,.042.022.063a.145.145,0,0,1,.052.127.652.652,0,0,1-.059.137.428.428,0,0,0-.046.119l0,.01Zm-.063-.7c.031.058-.014.123-.058.185a.269.269,0,0,0-.064.131.1.1,0,0,0,.03.075.173.173,0,0,1,.042.146.141.141,0,0,1-.012.084.152.152,0,0,0-.017.064l.123-.012a.4.4,0,0,1,.046-.117.784.784,0,0,0,.057-.13.12.12,0,0,0-.046-.106.073.073,0,0,1-.026-.091.141.141,0,0,0,.025-.11.2.2,0,0,0-.1-.119Z"/><path class="cls-7" d="M32.379,16.226a.083.083,0,0,1-.083.082.083.083,0,1,1,0-.165.083.083,0,0,1,.083.083Z"/><path d="M32.3,16.32a.094.094,0,0,1-.095-.094c0-.1.19-.1.19,0a.1.1,0,0,1-.095.094Zm0-.165a.071.071,0,0,0-.071.071c0,.078.141.078.141,0a.07.07,0,0,0-.07-.071Z"/><polygon class="cls-7" points="31.798 18.201 31.766 18.18 32.221 17.52 32.709 18.182 32.221 17.541 31.798 18.201 31.798 18.201"/><path class="cls-7" d="M32.328,17.944a.09.09,0,1,1-.09-.09.089.089,0,0,1,.09.09Z"/><path d="M32.238,18.044a.1.1,0,0,1-.1-.1c0-.111.2-.111.2,0a.1.1,0,0,1-.1.1Zm0-.179a.079.079,0,0,0-.079.079c0,.086.158.086.158,0a.079.079,0,0,0-.079-.079Z"/><path class="cls-7" d="M31.868,18.678l.7,0a.159.159,0,0,0-.073-.145c.369-.051.273-.373.581-.391.061.009-.161.137-.161.137s-.186.13-.1.2c.067.052.1-.032.106-.1s.3-.1.258-.287c-.069-.15-.475.1-.475.1h-.289c-.018-.033-.1-.161-.181-.162s-.166.163-.166.163h-.655s-.023.167.309.2a.4.4,0,0,0,.2.148.157.157,0,0,0-.055.137Z"/><path d="M32.583,18.692l-.715,0a.148.148,0,0,1,.047-.158.274.274,0,0,1-.2-.132.379.379,0,0,1-.278-.11.138.138,0,0,1-.034-.1l.667-.01c-.008,0,.062-.159.166-.163s.182.151.191.168l.279-.005a.991.991,0,0,1,.382-.148.1.1,0,0,1,.1.055c.03.13-.09.192-.177.237-.038.02-.078.041-.081.057-.005.037-.023.122-.078.122l-.047-.019a.061.061,0,0,1-.026-.052c0-.073.123-.159.128-.163a.64.64,0,0,0,.167-.12.311.311,0,0,0-.252.175.42.42,0,0,1-.327.221.127.127,0,0,1,.084.134v.011Zm-1.161-.486a.259.259,0,0,0,.035.07.379.379,0,0,0,.27.105.423.423,0,0,0,.2.149.24.24,0,0,0-.047.148l.681-.01a.148.148,0,0,0-.069-.123.476.476,0,0,0,.316-.233.319.319,0,0,1,.272-.18c.029.046-.071.111-.155.159-.031.022-.116.093-.117.143l.01.043.039,0c.03,0,.048-.055.055-.1,0-.028.043-.048.093-.074.084-.044.19-.1.165-.209-.05-.107-.453.106-.456.108h-.3c-.04-.06-.114-.161-.181-.162-.088,0-.155.154-.155.156l-.66.007Z"/><polygon points="31.919 18.548 31.919 18.524 32.505 18.523 31.919 18.548 31.919 18.548"/><path d="M31.917,18.519c-.228-.043-.277-.312-.279-.323l.024,0a.437.437,0,0,0,.255.327Z"/></g><g class="cls-24"><polygon class="cls-25" points="31.819 17.567 31.456 17.296 31.333 18.121 31.696 18.392 31.819 17.567"/></g><g class="cls-4"><path d="M31.624,18.2h-.155a.12.12,0,0,1,.007-.083.116.116,0,0,0,.01-.074.155.155,0,0,0-.037-.132.129.129,0,0,1-.035-.09.282.282,0,0,1,.068-.144.263.263,0,0,0,.073-.179.172.172,0,0,1,.129.121.162.162,0,0,1-.028.126c-.011.03,0,.043.023.063a.151.151,0,0,1,.052.128.9.9,0,0,1-.059.137.368.368,0,0,0-.046.118l0,.009Zm-.064-.694c.032.058-.014.122-.058.185a.27.27,0,0,0-.064.13.1.1,0,0,0,.03.075.173.173,0,0,1,.042.147.134.134,0,0,1-.012.084.135.135,0,0,0-.016.062l.122-.012a.432.432,0,0,1,.046-.116.658.658,0,0,0,.057-.129.122.122,0,0,0-.045-.106.074.074,0,0,1-.027-.092.141.141,0,0,0,.025-.11.2.2,0,0,0-.1-.118Z"/><path class="cls-7" d="M32.321,17.547a.083.083,0,1,1-.083-.082.082.082,0,0,1,.083.082Z"/><path d="M32.238,17.641a.094.094,0,0,1-.095-.094c0-.1.19-.1.19,0a.1.1,0,0,1-.095.094Zm0-.164a.07.07,0,0,0-.071.07c0,.078.142.078.142,0a.07.07,0,0,0-.071-.07Z"/><polygon class="cls-7" points="32.731 22.113 32.274 21.452 31.86 22.112 31.82 22.084 32.274 21.424 32.771 22.086 32.731 22.113 32.731 22.113"/><path class="cls-7" d="M32.386,21.851a.091.091,0,1,1-.09-.089.09.09,0,0,1,.09.089Z"/><path d="M32.3,21.955a.105.105,0,0,1-.106-.1c0-.115.211-.116.211,0a.1.1,0,0,1-.105.1Zm0-.178a.075.075,0,0,0-.076.074c0,.082.151.082.15,0a.074.074,0,0,0-.074-.074Z"/><path class="cls-7" d="M31.926,22.586h.7a.159.159,0,0,0-.074-.145c.369-.051.273-.373.582-.39.06.009-.161.136-.161.136s-.187.131-.1.2c.067.054.1-.032.106-.095s.3-.105.258-.288c-.069-.15-.475.1-.475.1h-.29c-.018-.032-.1-.161-.18-.162-.1,0-.167.163-.167.163h-.654s-.022.167.309.2a.4.4,0,0,0,.2.148.157.157,0,0,0-.055.138Z"/><path d="M32.643,22.6l-.717,0a.149.149,0,0,1,.045-.164c-.064,0-.123-.029-.2-.128a.376.376,0,0,1-.278-.11.142.142,0,0,1-.034-.1l.669-.014c-.009,0,.062-.159.167-.163s.178.142.194.17l.276-.007a.97.97,0,0,1,.382-.148.1.1,0,0,1,.106.057c.031.133-.09.2-.177.241-.036.019-.077.04-.079.055-.007.046-.027.125-.082.125l-.049-.02a.066.066,0,0,1-.028-.056c0-.072.117-.155.13-.164a.7.7,0,0,0,.166-.118.318.318,0,0,0-.246.177.427.427,0,0,1-.329.222.125.125,0,0,1,.086.132l0,.014Zm-1.16-.487a.308.308,0,0,0,.035.066.377.377,0,0,0,.267.1.425.425,0,0,0,.2.149.267.267,0,0,0-.045.152l.674-.013a.146.146,0,0,0-.067-.119.489.489,0,0,0,.315-.236.32.32,0,0,1,.274-.181c.028.028.034.057-.152.164-.031.022-.115.092-.116.14l.007.043.039,0c.027,0,.045-.054.052-.1,0-.029.044-.05.094-.076.084-.044.188-.1.164-.206-.048-.1-.449.108-.452.11l-.3,0c-.045-.065-.116-.162-.18-.163-.086,0-.152.153-.153.154l-.659.009Z"/><polygon points="31.976 22.459 31.976 22.429 32.563 22.427 31.976 22.459 31.976 22.459"/><path d="M31.976,22.423c-.232-.038-.282-.307-.284-.319l.03,0s.049.263.254.324Z"/></g><g class="cls-26"><polygon class="cls-27" points="31.876 21.474 31.514 21.205 31.391 22.029 31.753 22.299 31.876 21.474"/></g><g class="cls-4"><path d="M31.684,22.113h-.157a.119.119,0,0,1,0-.088.116.116,0,0,0,.01-.072.16.16,0,0,0-.036-.131.126.126,0,0,1-.036-.091.279.279,0,0,1,.069-.146.268.268,0,0,0,.072-.177.155.155,0,0,1,.107.248c-.011.028,0,.039.021.06a.149.149,0,0,1,.053.13.706.706,0,0,1-.059.139.39.39,0,0,0-.046.116l0,.012Zm-.068-.7c.037.056-.011.124-.054.184a.269.269,0,0,0-.063.129.1.1,0,0,0,.029.072.177.177,0,0,1,.043.149.134.134,0,0,1-.013.085.152.152,0,0,0-.015.062l.116-.014a.4.4,0,0,1,.046-.114.74.74,0,0,0,.057-.13.122.122,0,0,0-.045-.1.076.076,0,0,1-.027-.094.138.138,0,0,0,.025-.108.2.2,0,0,0-.1-.117Z"/><path class="cls-7" d="M32.379,21.455a.082.082,0,0,1-.083.081.081.081,0,0,1-.083-.081.082.082,0,0,1,.083-.083.083.083,0,0,1,.083.083Z"/><path d="M32.3,21.551a.1.1,0,0,1-.1-.1c0-.108.2-.108.2,0a.1.1,0,0,1-.1.1Zm0-.164a.067.067,0,0,0-.068.068c0,.074.135.074.135,0a.067.067,0,0,0-.067-.068Z"/><polygon class="cls-7" points="31.849 20.801 31.817 20.78 32.271 20.12 32.76 20.781 32.271 20.141 31.849 20.801 31.849 20.801"/><path class="cls-7" d="M32.379,20.544a.091.091,0,1,1-.091-.09.09.09,0,0,1,.091.09Z"/><path d="M32.288,20.644a.1.1,0,0,1-.1-.1c0-.111.2-.111.2,0a.1.1,0,0,1-.1.1Zm0-.179a.079.079,0,0,0-.079.079c0,.087.158.086.158,0a.079.079,0,0,0-.079-.079Z"/><path class="cls-7" d="M31.919,21.278l.7,0a.158.158,0,0,0-.073-.146c.369-.049.273-.371.582-.39.06.009-.161.137-.161.137s-.187.13-.1.2c.068.052.1-.032.106-.1s.3-.106.258-.287c-.069-.151-.474.1-.474.1l-.29,0c-.018-.032-.1-.161-.18-.161-.1,0-.167.163-.167.163h-.655s-.022.166.31.2a.41.41,0,0,0,.2.149.153.153,0,0,0-.055.136Z"/><path d="M32.633,21.292l-.714,0a.149.149,0,0,1,.047-.158.278.278,0,0,1-.2-.132.379.379,0,0,1-.278-.11.136.136,0,0,1-.034-.1l.667-.01c-.008,0,.063-.159.167-.163s.175.139.191.167l.279,0a.958.958,0,0,1,.382-.149.1.1,0,0,1,.1.056c.03.129-.089.191-.176.236-.039.02-.078.041-.081.058-.007.045-.026.122-.079.122l-.046-.019a.061.061,0,0,1-.027-.054c0-.072.124-.158.129-.162a.648.648,0,0,0,.166-.12.313.313,0,0,0-.251.175.421.421,0,0,1-.328.22.129.129,0,0,1,.084.135v.011Zm-1.161-.485a.32.32,0,0,0,.035.069.381.381,0,0,0,.27.105.422.422,0,0,0,.2.149.233.233,0,0,0-.047.148l.68-.01a.145.145,0,0,0-.069-.123.472.472,0,0,0,.316-.232.323.323,0,0,1,.272-.181c.029.046-.07.111-.154.159-.032.022-.117.093-.118.143l.01.044.039,0c.03,0,.048-.053.055-.1,0-.028.044-.049.093-.074.085-.045.191-.1.166-.209-.051-.108-.454.106-.457.108h-.3c-.043-.064-.115-.161-.18-.161-.089,0-.155.154-.156.156l-.66.007Z"/><polygon points="31.969 21.148 31.969 21.124 32.556 21.123 31.969 21.148 31.969 21.148"/><path d="M31.967,21.119c-.228-.043-.277-.311-.279-.322l.024,0s.049.265.255.326Z"/></g><g class="cls-28"><polygon class="cls-29" points="31.869 20.168 31.507 19.897 31.384 20.722 31.746 20.993 31.869 20.168"/></g><g class="cls-4"><path d="M31.674,20.8H31.52a.12.12,0,0,1,.007-.085.112.112,0,0,0,.01-.072.154.154,0,0,0-.037-.132.13.13,0,0,1-.035-.091.282.282,0,0,1,.068-.144.261.261,0,0,0,.072-.178.171.171,0,0,1,.13.12.16.16,0,0,1-.028.126c-.012.03,0,.043.022.063a.148.148,0,0,1,.052.128.677.677,0,0,1-.059.137.393.393,0,0,0-.046.118l0,.01Zm-.063-.694c.031.057-.014.121-.058.183a.273.273,0,0,0-.064.131.107.107,0,0,0,.03.076.176.176,0,0,1,.042.147.139.139,0,0,1-.012.083.147.147,0,0,0-.017.063l.122-.012a.418.418,0,0,1,.047-.116.718.718,0,0,0,.056-.13.12.12,0,0,0-.045-.106.074.074,0,0,1-.026-.092.139.139,0,0,0,.025-.109.2.2,0,0,0-.1-.118Z"/><path class="cls-7" d="M32.371,20.147a.083.083,0,0,1-.166,0,.083.083,0,0,1,.166,0Z"/><path d="M32.288,20.242a.1.1,0,0,1-.095-.1c0-.1.19-.1.19,0a.1.1,0,0,1-.1.1Zm0-.164a.07.07,0,0,0-.071.069c0,.079.142.078.142,0a.07.07,0,0,0-.071-.069Z"/><polygon class="cls-7" points="28.011 19.587 27.979 19.565 28.433 18.905 28.922 19.566 28.433 18.926 28.011 19.587 28.011 19.587"/><path class="cls-7" d="M28.541,19.329a.091.091,0,1,1-.091-.089.09.09,0,0,1,.091.089Z"/><path d="M28.45,19.429a.1.1,0,0,1-.1-.1c0-.111.2-.11.2,0a.1.1,0,0,1-.1.1Zm0-.178a.078.078,0,0,0-.079.078c0,.086.158.086.158,0a.078.078,0,0,0-.079-.078Z"/><path class="cls-7" d="M28.08,20.063l.7,0a.157.157,0,0,0-.073-.145c.369-.05.273-.372.582-.391.06.01-.161.137-.161.137s-.187.13-.1.2c.068.052.1-.032.106-.1s.3-.105.258-.288c-.069-.15-.474.1-.474.1l-.29,0c-.018-.032-.1-.161-.18-.162-.1,0-.167.164-.167.164h-.655s-.022.165.31.2a.388.388,0,0,0,.2.149.158.158,0,0,0-.056.137Z"/><path d="M28.8,20.077l-.715,0a.148.148,0,0,1,.048-.158.274.274,0,0,1-.2-.133.379.379,0,0,1-.278-.109.136.136,0,0,1-.034-.1l.667-.01c-.008,0,.063-.16.167-.164.088,0,.168.129.191.168l.279,0c0-.007.422-.232.485-.094.03.13-.089.192-.176.238-.039.02-.078.04-.081.056-.007.046-.026.123-.079.123l-.046-.019A.062.062,0,0,1,29,19.818c0-.073.124-.158.129-.161a.653.653,0,0,0,.166-.12.306.306,0,0,0-.251.174.424.424,0,0,1-.328.221.128.128,0,0,1,.084.134v.011Zm-1.161-.485a.32.32,0,0,0,.035.069.382.382,0,0,0,.27.1.419.419,0,0,0,.2.15.239.239,0,0,0-.048.148l.681-.01a.145.145,0,0,0-.069-.123.472.472,0,0,0,.316-.232.321.321,0,0,1,.272-.181c.029.047-.07.111-.154.16-.032.022-.117.091-.118.142l.01.044.039,0c.03,0,.048-.053.055-.1,0-.028.044-.049.093-.075.085-.043.191-.1.166-.208-.051-.107-.454.106-.457.108h-.3c-.051-.077-.12-.161-.18-.162-.089,0-.155.155-.156.156l-.66.008Z"/><polygon points="28.131 19.934 28.131 19.91 28.718 19.908 28.131 19.934 28.131 19.934"/><path d="M28.129,19.9c-.228-.042-.277-.31-.279-.321l.024,0s.049.266.255.326Z"/></g><g class="cls-30"><polygon class="cls-31" points="28.031 18.952 27.669 18.682 27.545 19.507 27.908 19.777 28.031 18.952"/></g><g class="cls-4"><path d="M27.836,19.588h-.154a.115.115,0,0,1,.007-.084.129.129,0,0,0,.01-.073.156.156,0,0,0-.037-.133.127.127,0,0,1-.035-.09.276.276,0,0,1,.068-.143.262.262,0,0,0,.072-.18.174.174,0,0,1,.13.121.164.164,0,0,1-.028.127c-.012.029,0,.041.022.062a.147.147,0,0,1,.052.128.677.677,0,0,1-.059.137.382.382,0,0,0-.046.118l0,.01Zm-.063-.7c.031.059-.014.123-.058.185a.27.27,0,0,0-.064.13.1.1,0,0,0,.03.075.176.176,0,0,1,.042.148.13.13,0,0,1-.013.083.167.167,0,0,0-.016.063l.122-.012a.418.418,0,0,1,.047-.116.751.751,0,0,0,.056-.13.122.122,0,0,0-.045-.107.073.073,0,0,1-.027-.09.141.141,0,0,0,.026-.111.2.2,0,0,0-.1-.118Z"/><path class="cls-7" d="M28.533,18.932a.083.083,0,1,1-.083-.082.083.083,0,0,1,.083.082Z"/><path d="M28.45,19.026a.094.094,0,0,1-.095-.094c0-.1.19-.1.19,0a.094.094,0,0,1-.1.094Zm0-.164a.07.07,0,0,0-.071.07c0,.079.142.078.142,0a.07.07,0,0,0-.071-.07Z"/><path class="cls-7" d="M30.426,22.713s.184.419.393.162.133-.369.133-.369l-.47-.253-.138.288Z"/><path d="M30.678,22.97h0c-.151,0-.259-.242-.263-.253l-.082-.17.138-.3.487.247c.007.009.083.125-.13.387a.2.2,0,0,1-.15.088Zm-.2-.706-.121.283.082.16s.106.239.241.239h0a.176.176,0,0,0,.132-.079c.2-.246.132-.354.132-.354l-.466-.249Z"/><path class="cls-32" d="M30.829,22.658s.031,0,.056-.041-.056-.066-.092-.116l-.041.08Z"/><path d="M30.832,22.67h0l-.083-.08.039-.095a.413.413,0,0,1,.07.044c.03.022.064.047.042.084a.075.075,0,0,1-.063.047Z"/><path class="cls-32" d="M29.767,22.547l-.413.221s-.2.041-.22,0,0-.075.113-.08.4-.268.4-.268Z"/><path d="M29.2,22.8c-.045,0-.069-.009-.075-.027l0,0,.005-.049c.017-.025.056-.039.12-.042.1,0,.388-.262.391-.265l.139.127-.417.241a.92.92,0,0,1-.161.02Zm.438-.371a1.064,1.064,0,0,1-.389.272c-.068,0-.093.019-.1.031,0,.033,0,.044.052.044a.958.958,0,0,0,.153-.018l.41-.221-.125-.108Z"/><path class="cls-32" d="M29.772,15.277s.011.1.016.147a.28.28,0,0,1-.087.151s-.046.006-.041.036.066.041.066.041-.025.105,0,.111-.066.136,0,.172a.514.514,0,0,0,.23.07c.051-.01,0,.2,0,.2l-.143.3.786-.081-.163-.257s-.076-.05-.056-.2-.011-.808-.011-.808l-.561-.075Z"/><path d="M29.793,16.519l.152-.322a.408.408,0,0,0,.016-.18.431.431,0,0,1-.24-.072c-.051-.027-.028-.1-.012-.14a.36.36,0,0,1,0-.153c-.008.009-.06,0-.066-.039l.048-.05c.013-.006.084-.1.079-.138l-.015-.146.036-.2.575.065a6.437,6.437,0,0,1,.021.822c-.019.137.048.184.05.186l.168.261-.817.1Zm.014-1.421-.023.182.016.142a.284.284,0,0,1-.077.151l-.048.023c0,.029.036.041.053.044a.473.473,0,0,0,0,.112c.017.018.011.034,0,.061-.017.049-.03.095,0,.111a.579.579,0,0,0,.207.071c.068.042.036.182.029.209l-.135.287.765-.079-.173-.239h0s-.078-.054-.057-.2-.01-.8-.011-.806l-.55-.064Z"/><path class="cls-32" d="M29.629,16.43a.457.457,0,0,0-.245.429c-.066.3-.1.606-.1.606s-.3.339-.393.459-.23.369-.281.435-.25.283-.245.364-.046.439.153.48c.051.02.215-.415.215-.415s.01-.187-.046-.222.122-.156.122-.156.342-.248.419-.309.286-.293.286-.293Z"/><path d="M28.52,19.215h-.008c-.175-.036-.166-.3-.161-.433a.526.526,0,0,0,0-.057c0-.066.1-.2.206-.322l.042-.05c.022-.029.061-.093.106-.166.057-.093.123-.2.175-.269.091-.12.391-.457.393-.46h0a6.015,6.015,0,0,1,.1-.6.471.471,0,0,1,.252-.437l-.1,1.39a3.553,3.553,0,0,1-.291.3c-.076.061-.419.309-.419.309-.053.037-.128.1-.128.128.066.047.058.222.057.242-.049.131-.166.426-.223.426Zm1.1-2.782a.516.516,0,0,0-.221.426c-.066.3-.1.607-.1.607s-.3.345-.395.465c-.051.068-.117.175-.173.267-.046.075-.086.139-.108.168l-.043.052c-.071.085-.2.243-.2.3,0,.014,0,.034,0,.06,0,.123-.013.377.144.409v0a1.378,1.378,0,0,0,.2-.407c0-.046,0-.182-.042-.208-.017-.08.1-.161.123-.176,0,0,.341-.247.417-.308s.283-.29.285-.292l.114-1.367Z"/><path class="cls-5" d="M29.92,16.192s.067.176.215.146a.967.967,0,0,0,.321-.166s.138,0,.159.015.372.359.362.464-.163.077-.219.147a.568.568,0,0,0-.123.379,2.464,2.464,0,0,1,.092.369c-.01.065-.066.086-.066.121s.046.1.046.162-.061.161-.052.227.016.258.016.258l-.016.889a.117.117,0,0,1,.056.08c.006.051.348,1.521.348,1.521s-.015.045-.051.04.138.228.143.293.178.581.173.651a.771.771,0,0,1-.046.233c-.015,0,.113.323.092.374s-.23.045-.23.045l-.056-.01s0,.066-.035.071-.342-.016-.342-.016-.087.132-.139.127-.117-.1-.132-.081.046.1.031.127-.276.08-.327-.041.03-.091.015-.116-.133-.091-.168-.071.092.051.087.1-.113.127-.154.127-.137-.188-.28-.167a1.142,1.142,0,0,0-.235.056.642.642,0,0,1-.24.055.119.119,0,0,1-.1-.1,1.827,1.827,0,0,0,.045-.2c0-.041-.045-.081-.045-.142a1.168,1.168,0,0,1,.117-.268l0-.928s-.107,0-.112-.067.163-1.47.188-1.56.092-.414.092-.414-.076.035-.081,0,.23-.839.23-.839.04-.4.04-.5a2.292,2.292,0,0,0-.02-.252s-.21-.088-.214-.223c-.02-.214.2-.333.224-.4s.1-.282.1-.282a.489.489,0,0,1,.3-.223Z"/><path d="M30.306,22.7c-.092,0-.155-.029-.177-.083-.035-.081-.014-.1.013-.117a.274.274,0,0,0-.137-.066c.046.037.084.06.081.094-.007.058-.12.138-.166.138-.019,0-.038-.021-.068-.052a.291.291,0,0,0-.191-.117,1.223,1.223,0,0,0-.252.057.777.777,0,0,1-.221.058c-.1-.019-.137-.08-.137-.115a.391.391,0,0,1,.019-.081A.52.52,0,0,0,29.1,22.3a.15.15,0,0,0-.019-.049.208.208,0,0,1-.027-.095,1.094,1.094,0,0,1,.119-.273l-.007-.921c-.006.01-.107,0-.112-.068s.163-1.475.189-1.564.073-.327.088-.4a.084.084,0,0,1-.043.013.069.069,0,0,1,0-.029.1.1,0,0,0,.058-.01,2.138,2.138,0,0,1-.075.428c-.023.081-.194,1.492-.188,1.556s.1.056.1.056l.017.94a1.15,1.15,0,0,0-.117.268.2.2,0,0,0,.025.085.213.213,0,0,1,.021.056.47.47,0,0,1-.028.129.437.437,0,0,0-.018.074.108.108,0,0,0,.092.089,1.247,1.247,0,0,0,.233-.054,1.1,1.1,0,0,1,.238-.057.278.278,0,0,1,.232.123c.019.019.042.044.05.044.035,0,.137-.072.141-.117,0-.018-.03-.038-.054-.052l-.039-.039a.214.214,0,0,1,.2.056c-.025.038-.044.047-.014.118s.108.068.155.068a.336.336,0,0,0,.151-.029c0-.008-.01-.04-.018-.059s-.025-.056-.012-.07.039.006.065.028a.172.172,0,0,0,.078.05h0c.034,0,.095-.074.126-.121.011-.006.247.01.329.01a.053.053,0,0,0,.047-.058l.07,0c.127,0,.208-.015.217-.037a.924.924,0,0,0-.059-.244c-.038-.117-.042-.132-.025-.138a1.138,1.138,0,0,0,.037-.222,2.856,2.856,0,0,0-.1-.384c-.037-.126-.07-.236-.072-.265a.717.717,0,0,0-.087-.171c-.054-.089-.067-.113-.059-.127a.067.067,0,0,0,.054-.04c-.014-.054-.342-1.465-.348-1.515a.106.106,0,0,0-.05-.072l.01-.9s0-.191-.015-.257a.293.293,0,0,1,.026-.13.356.356,0,0,0,.024-.1.256.256,0,0,0-.027-.1.181.181,0,0,1-.018-.062.085.085,0,0,1,.027-.052.132.132,0,0,0,.039-.071.606.606,0,0,0-.043-.188c-.018-.059-.038-.122-.049-.177a.585.585,0,0,1,.125-.389.212.212,0,0,1,.11-.057c.055-.015.1-.029.107-.083s-.13-.231-.354-.451c-.01-.008-.039-.016-.122-.016a1.807,1.807,0,0,1-.352.167h-.006a.241.241,0,0,1-.222-.154.521.521,0,0,0-.274.224l-.1.281a.309.309,0,0,1-.068.084.4.4,0,0,0-.156.315c0,.126.205.212.207.213a1.273,1.273,0,0,1,.027.263c0,.107-.04.507-.04.507-.079.27-.19.658-.222.79a7.427,7.427,0,0,1,.2-.8h0s.04-.4.04-.5a2.261,2.261,0,0,0-.02-.25s-.21-.083-.214-.224a.431.431,0,0,1,.162-.334.3.3,0,0,0,.063-.075l.1-.282a.5.5,0,0,1,.3-.231c.014.009.069.15.183.15a.933.933,0,0,0,.348-.168c.154,0,.169.011.174.016.143.14.375.382.366.474-.007.07-.069.089-.124.105a.193.193,0,0,0-.1.048.559.559,0,0,0-.12.369,1.6,1.6,0,0,0,.049.175.607.607,0,0,1,.043.2.16.16,0,0,1-.044.084.089.089,0,0,0,0,.088.307.307,0,0,1,.029.11.337.337,0,0,1-.027.106.3.3,0,0,0-.025.119c.011.066.016.259.016.259l-.015.889c0-.009.05.027.056.08s.228,1.011.347,1.519c0,.008-.018.056-.058.056l.06.1a.655.655,0,0,1,.09.181c0,.027.036.14.072.261a2.377,2.377,0,0,1,.1.392s-.022.234-.054.243a.51.51,0,0,1,.04.108.667.667,0,0,1,.059.259c-.017.044-.131.053-.224.053l-.075-.01a.046.046,0,0,1-.032.071,2.783,2.783,0,0,1-.344-.016c0,.008-.079.127-.135.127a.2.2,0,0,1-.1-.056c-.032-.025-.021,0-.014.014.014.033.027.063.016.082a.3.3,0,0,1-.171.04Z"/><path class="cls-7" d="M29.844,22.607s-.5.257-.567.278-.117-.086-.046-.106a1.364,1.364,0,0,1,.184-.031s-.168-.131-.164-.136.23-.086.235-.086.072.132.118.121a.919.919,0,0,0,.179-.111s.071.081.061.071Z"/><path d="M29.259,22.9a.078.078,0,0,1-.075-.067.056.056,0,0,1,.044-.064,1.278,1.278,0,0,1,.186-.032c-.174-.109-.174-.116-.175-.123a1.764,1.764,0,0,1,.247-.1c.041.052.085.121.112.121a.772.772,0,0,0,.177-.108c.084.078.084.078.081.086-.027.015-.5.263-.576.283l-.021,0Zm0-.277a.946.946,0,0,1,.162.117c-.006.021-.117.032-.187.052a.032.032,0,0,0-.027.038.054.054,0,0,0,.051.046v.012l.015-.014c.067-.019.524-.256.562-.275,0-.012-.063-.054-.063-.054a.441.441,0,0,1-.167.114h0c-.045,0-.083-.055-.115-.106a.963.963,0,0,0-.232.07Z"/><path class="cls-32" d="M30.542,22.748c.046.06.065.163.172.1s-.055-.173-.055-.173Z"/><path d="M30.656,22.881h0c-.049,0-.073-.042-.1-.082a.272.272,0,0,0-.027-.044l.121-.087c.017,0,.112.07.109.134a.071.071,0,0,1-.042.059.127.127,0,0,1-.064.02Zm-.1-.123c.012,0,.02.014.029.029.03.053.059.091.127.054a.054.054,0,0,0,.03-.04c0-.042-.061-.1-.086-.113l-.1.07Z"/><path class="cls-32" d="M30.737,22.738a.073.073,0,0,0,.1,0c.046-.045-.092-.141-.092-.141l-.066.075Z"/><path d="M30.785,22.767a.112.112,0,0,1-.056-.019l-.062-.073.066-.091c.027,0,.118.07.123.123-.03.051-.05.06-.071.06Zm-.05-.165-.05.073.1.068a.059.059,0,0,0,.041-.018c0-.051-.065-.106-.091-.123Z"/><path d="M30.152,16.777c-.035-.1.378-.368.426-.4l.013.02c-.174.11-.446.31-.439.378Z"/><path class="cls-1" d="M30.686,16.439s-.1.111-.107.111Z"/><path d="M30.647,16.855c-.061-.115.16-.3.169-.3l.016.018s-.218.178-.185.285Z"/><path d="M29.866,17.053c-.024-.006-.009-.08-.024-.182a.9.9,0,0,0-.105-.246.538.538,0,0,1-.037-.075c-.017-.05.044-.177.051-.191l.022.01a.392.392,0,0,0-.051.173.628.628,0,0,0,.037.072.946.946,0,0,1,.107.253.638.638,0,0,1,0,.186Z"/><path d="M29.83,17.028c-.033-.047-.112-.181-.143-.211a.593.593,0,0,1-.055-.2l.025,0a.529.529,0,0,0,.047.185.718.718,0,0,1,.126.228Z"/><path d="M29.645,17.308A.132.132,0,0,1,29.6,17.3l.011-.021a.108.108,0,0,0,.077,0c.041-.014.1-.057.162-.181a.268.268,0,0,1-.155.2.155.155,0,0,1-.048.008Z"/><path d="M30.374,17.348a.516.516,0,0,1-.255-.075c-.137-.076-.1-.253-.089-.306s.022-.054.028-.054l.009.019a.379.379,0,0,0-.019.212.168.168,0,0,0,.082.108.419.419,0,0,0,.348.055.964.964,0,0,0,.145-.07c.013.021-.065.067-.137.093a.35.35,0,0,1-.112.018Z"/><path d="M30.5,17.879c-.508-.308-.524-.638-.525-.651H30s.016.331.5.652Z"/><path d="M30.2,17.955A.488.488,0,0,1,30,17.54h.024a.54.54,0,0,0,.184.415Z"/><path d="M29.644,17.688a1.575,1.575,0,0,0,.25-.495l.022.008c-.006.018-.151.44-.272.487Z"/><path d="M29.825,17.943c.016-.115.022-.424.022-.428h.024a1.981,1.981,0,0,1-.046.428Z"/><path d="M29.974,18.144a.329.329,0,0,1-.211-.121l.019-.015s.1.12.2.112a.226.226,0,0,0,.125-.07c.036-.032.069-.064.115-.051.02.005.04.014.062.022a.475.475,0,0,0,.26.043.366.366,0,0,1-.269-.02.4.4,0,0,0-.06-.022c-.034-.01-.059.016-.092.046a.244.244,0,0,1-.138.076Z"/><path d="M30.377,18.754c-.015-.113-.02-.24-.044-.253-.05-.028-.052-.25-.052-.294h.024a.585.585,0,0,0,.04.273c.049.026.036.216.032.274Z"/><path d="M29.565,18.772a.56.56,0,0,1,.047-.331,1.53,1.53,0,0,0,.046-.356h.024a1.61,1.61,0,0,1-.036.333.89.89,0,0,0-.081.353Z"/><path class="cls-1" d="M29.359,18.914a.809.809,0,0,0,.112-.086Z"/><path d="M29.371,20.368a5.144,5.144,0,0,1,.134-1.487l.024.006a5.765,5.765,0,0,0-.158,1.481Z"/><path d="M29.518,19.753a2.725,2.725,0,0,1,.038-.825l.024,0a3.821,3.821,0,0,0-.062.822Z"/><path d="M29.857,18.937c-.123,0-.338-.015-.345-.015V18.9l.43.03c0,.007-.035.009-.085.009Z"/><path d="M30.181,18.933A.436.436,0,0,1,30,18.9l.011-.022a.54.54,0,0,0,.275.05.531.531,0,0,1-.1.01Z"/><path d="M29.912,20.679c.006-.263.026-1.445.027-1.456h.024c0,.012-.021,1.2-.051,1.456Z"/><path d="M30.8,20.629a5.411,5.411,0,0,1-.231-1.132l.024,0a6.666,6.666,0,0,0,.207,1.135Z"/><path d="M30.462,20.626a5.72,5.72,0,0,1-.15-1h.024a8.574,8.574,0,0,0,.126,1Z"/><path d="M29.168,20.967l-.007-.023a.809.809,0,0,0,.3-.2.3.3,0,0,0,.169.094.362.362,0,0,0,.246-.085.713.713,0,0,0,.393.1.257.257,0,0,0,.166-.127c.27.16.393-.017.4-.025.046.039.126.137.176.127-.07.036-.158-.087-.174-.111,0,.023-.141.191-.4.026a.218.218,0,0,1-.164.133.592.592,0,0,1-.4-.1.327.327,0,0,1-.25.09.242.242,0,0,1-.166-.1.671.671,0,0,1-.289.207Z"/><path d="M31.087,22.118a2.775,2.775,0,0,1-.515-1.175l.024-.005a3.116,3.116,0,0,0,.491,1.18Z"/><path d="M29.641,22.162c-.069-.538-.095-1.31-.095-1.317h.024c0,.008.026.779.071,1.318Z"/><path d="M29.475,22.266c0-.038.023-.307.035-.548h.024a3.043,3.043,0,0,1-.059.547Z"/><path d="M29.939,22.58h-.006c-.051-.006-.075-.091-.087-.133-.014-.072-.028-.154-.084-.177s-.112,0-.2.065a.305.305,0,0,1-.264.08.16.16,0,0,1-.092-.1l.024-.006a.13.13,0,0,0,.077.085c.061.022.141,0,.241-.077s.166-.089.22-.067.084.119.091.162c.015.059.039.143.074.147s.044-.02.071-.066c-.011.064-.039.09-.068.09Z"/><path d="M30.362,22.45a.119.119,0,0,1-.054-.012c-.1-.051-.079-.233-.078-.241l.024,0s-.017.174.065.218c.056.029.15-.008.273-.108.154-.125.277-.17.366-.134s.127.181.133.238c-.029-.05-.051-.178-.142-.215s-.2.011-.342.13a.434.434,0,0,1-.245.122Z"/><path class="cls-33" d="M29.757,15.247a.346.346,0,0,0,.174-.02c.061-.035.132-.051.183.02s.087.066.087.066-.076.187,0,.207.112.02.117.046-.066.08-.045.1.056.056.061.077-.046.105-.031.126.061.1.092.1.01.126.1.1a.114.114,0,0,0,.087-.11.162.162,0,0,0,.123-.1.148.148,0,0,1,.086-.105s.123-.066-.041-.167c0-.708-.469-.631-.469-.631s-.056-.127-.148-.111-.1.12-.164.111-.081-.056-.087-.051a.535.535,0,0,0-.061.131c0,.025-.178-.035-.163.1s.1.127.1.116Z"/><path d="M30.471,16.087c-.046,0-.059-.045-.067-.074a.411.411,0,0,1-.1-.116c-.023-.032-.014-.059,0-.1a.193.193,0,0,0,.014-.045.147.147,0,0,0-.033-.042.07.07,0,0,1,0-.1c.019-.047,0-.052-.038-.06l-.049-.012a.249.249,0,0,1-.009-.22c-.009.01-.042,0-.085-.058s-.093-.058-.167-.017a.341.341,0,0,1-.182.022c-.041.008-.095-.022-.107-.127a.082.082,0,0,1,.018-.071.131.131,0,0,1,.1-.031h.048a.456.456,0,0,1,.06-.133.328.328,0,0,0,.1.047c.024.015.04-.015.06-.04a.152.152,0,0,1,.1-.071.213.213,0,0,1,.161.118c.134-.008.47.037.47.636.056.028.087.067.086.105a.1.1,0,0,1-.051.073.135.135,0,0,0-.081.1.166.166,0,0,1-.129.109c.007.007,0,.082-.088.111l-.03,0Zm-.447-.9a.119.119,0,0,1,.1.054c.043.059.072.061.075.061,0,.051-.034.152-.013.192l.066.027c.047.011.073.016.078.043s-.01.034-.025.055-.029.039-.023.046c.042.046.059.064.064.08a.119.119,0,0,1-.016.059c-.007.019-.022.056-.017.063.026.04.064.1.082.1H30.4l.023.044c.01.033.018.056.044.056v.012l.022-.016a.1.1,0,0,0,.079-.1c.011-.012.1-.028.123-.105a.164.164,0,0,1,.095-.114h0s.035-.02.036-.051-.027-.061-.08-.094c-.006-.571-.3-.632-.424-.632l-.009,0-.041-.007s-.048-.105-.122-.105a.136.136,0,0,0-.1.063c-.019.025-.039.05-.072.05a.137.137,0,0,1-.1-.049,1.148,1.148,0,0,0-.048.117l-.052.019a.143.143,0,0,0-.1.023.062.062,0,0,0-.012.053c.01.087.053.11.075.11a.247.247,0,0,1,.065,0,.247.247,0,0,0,.113-.021.2.2,0,0,1,.1-.031Z"/><path d="M30.507,15.434c-.028,0-.1-.05-.067-.16a.147.147,0,0,1-.161-.035.21.21,0,0,1-.044-.165l.024,0a.188.188,0,0,0,.038.144.175.175,0,0,0,.153.043.149.149,0,0,0,.067.164.01.01,0,0,1-.01,0Z"/><path d="M30.693,15.732c.02-.044.036-.069.033-.093a.078.078,0,0,0-.039-.052l0-.024a.1.1,0,0,1,.056.059c.009.026.006.067-.054.11Z"/><path d="M30.658,15.878a.2.2,0,0,1-.062-.013c-.028-.021-.1-.068-.141-.055a.134.134,0,0,1-.12-.05l.018-.015s.047.054.095.042.155.054.159.057a.227.227,0,0,0,.07.012c0,.016,0,.022-.019.022Z"/><path d="M30.076,15.963a.149.149,0,0,1-.047-.007l.008-.023c.006,0,.164.058.27-.2-.063.2-.17.23-.231.23Z"/><path class="cls-1" d="M29.711,15.656l.1.006Z"/><polygon class="cls-1" points="29.726 15.757 29.818 15.757 29.736 15.793 29.726 15.757"/><path class="cls-1" d="M29.854,15.474c.015,0,.072-.019.081,0S29.875,15.5,29.854,15.474Z"/><path class="cls-32" d="M30.957,16.674s.168.5.189.627a4.13,4.13,0,0,1,.061.7c-.026.071-.286.409-.317.5s-.214.415-.214.415a2.347,2.347,0,0,1-.066.337c-.021.016.052.095.045.122s-.148.172-.209.157-.158-.086-.163-.152a.752.752,0,0,1,.051-.339c.046-.055.286-.615.3-.651a4.95,4.95,0,0,0,.225-.551.531.531,0,0,0-.136-.314c-.161-.469-.1-.751.233-.848Z"/><path d="M30.456,19.542h-.013c-.066-.016-.167-.092-.172-.163a.753.753,0,0,1,.053-.347,5.4,5.4,0,0,0,.287-.619l.03-.068a4.232,4.232,0,0,0,.207-.508.522.522,0,0,0-.132-.306.851.851,0,0,1-.038-.661.43.43,0,0,1,.275-.206h0a4.442,4.442,0,0,1,.205.636,4.039,4.039,0,0,1,.06.708,2.036,2.036,0,0,1-.146.229,1.933,1.933,0,0,0-.17.266c-.031.086-.208.4-.215.416a1.582,1.582,0,0,1-.07.342.206.206,0,0,0,.024.047c.016.027.031.051.026.068-.011.033-.14.167-.211.167Zm.491-2.861a.433.433,0,0,0-.248.2.837.837,0,0,0,.036.638.527.527,0,0,1,.137.319,3.543,3.543,0,0,1-.209.517l-.04.063.011,0a5.725,5.725,0,0,1-.291.625.757.757,0,0,0-.048.33c0,.058.1.127.154.141h.007c.059,0,.18-.124.188-.15,0-.007-.014-.033-.024-.049-.02-.034-.037-.063-.018-.078a2.268,2.268,0,0,0,.062-.33c0-.007.185-.332.215-.417a2,2,0,0,1,.173-.272A1.85,1.85,0,0,0,31.2,18a4.121,4.121,0,0,0-.061-.7c-.02-.121-.175-.6-.187-.622Z"/><path class="cls-1" d="M28.578,18.842l.008.221Z"/><path d="M28.512,19.19a1.33,1.33,0,0,0-.154-.358l.021-.013a.887.887,0,0,1,.133.371Z"/><path d="M30.407,19.491a.355.355,0,0,0-.064-.138.074.074,0,0,0-.051-.02l0-.024a.1.1,0,0,1,.07.027.194.194,0,0,1,.047.151c.047-.229.189-.237.2-.237a.39.39,0,0,0-.2.241Z"/><path class="cls-7" d="M29.925,24.379a5.181,5.181,0,0,0,3.533-1.614c-.015-.015.285-.429.524-.371s.584.756,1,.9a.514.514,0,0,1-.15.681c-.09.06-.494.223-.554-.014s-.18-.192-.18-.192A6.568,6.568,0,0,1,29.97,25.55a6.859,6.859,0,0,1-4.178-1.777l-.164.177s-.18.192-.27.177-.479-.266-.509-.518a.487.487,0,0,1,.239-.415s.659-.5.734-.77c.15-.148.435.1.435.1s1.736,1.97,3.668,1.851Z"/><path d="M30.1,25.576l-.13,0h0a6.965,6.965,0,0,1-4.193-1.784l-.129.176c-.018.019-.177.186-.278.186-.113-.017-.511-.273-.543-.54a.5.5,0,0,1,.251-.438s.651-.5.723-.756c.164-.178.464.084.474.092s1.755,1.962,3.65,1.845a5.177,5.177,0,0,0,3.513-1.6c.031-.08.327-.438.552-.385.115.028.243.182.392.361a1.72,1.72,0,0,0,.614.543.532.532,0,0,1-.145.724.831.831,0,0,1-.376.115.2.2,0,0,1-.215-.143c-.04-.16-.106-.178-.132-.178A6.81,6.81,0,0,1,30.1,25.576Zm-4.325-1.82a7.184,7.184,0,0,0,4.168,1.77l.157,0a6.677,6.677,0,0,0,3.986-1.773c.087-.007.173.018.22.2.019.072.073.106.168.106a.8.8,0,0,0,.349-.106.491.491,0,0,0,.143-.648,1.688,1.688,0,0,1-.622-.548c-.138-.165-.268-.321-.366-.345h-.006c-.24,0-.478.308-.489.348A5.156,5.156,0,0,1,29.925,24.4c-.056,0-.113.006-.17.006-1.852,0-3.5-1.846-3.517-1.865h0s-.283-.217-.4-.1c-.07.26-.709.751-.737.772,0,0-.257.16-.23.394s.4.483.489.5h0c.067,0,.186-.1.248-.169l.164-.178Z"/><path d="M25.784,23.785s-.45-.436-.515-.509c-.046-.051-.174-.031-.219-.019l-.013-.046c.02-.006.2-.049.269.033s.512.507.512.507l-.034.034Z"/><path d="M25.643,23.959l-.046-.016a.19.19,0,0,0-.011-.164.546.546,0,0,0-.318-.184l.168-.175.029.038-.162.12a.4.4,0,0,1,.325.177.237.237,0,0,1,.015.2Z"/><path d="M34.122,23.784l-.037-.032a6.258,6.258,0,0,1,.5-.5c.151-.11.251-.059.255-.057l-.023.042s-.078-.037-.2.054a6.046,6.046,0,0,0-.489.49Z"/><path d="M34.278,23.985a.335.335,0,0,1,.044-.289.432.432,0,0,1,.294-.145l-.207-.1.03-.039.193.148c-.015.043-.187.056-.271.169a.292.292,0,0,0-.035.25l-.048.01Z"/><rect class="cls-3" x="0.909" y="8.981" width="19.338" height="9.567"/><path class="cls-5" d="M.909,8.981v1.07l17.175,8.5h2.162v-1.07L3.071,8.981Zm19.337,0v1.07l-17.175,8.5H.909v-1.07l17.175-8.5Z"/><path class="cls-5" d="M8.966,18.548h3.223V8.981H8.966ZM.909,15.359H20.246V12.17H.909Z"/><path class="cls-34" d="M.909,14.721H20.246V12.808H.909Zm8.7,3.827h1.934V8.981H9.61Z"/><path class="cls-34" d="M.909,18.548l6.445-3.189H8.8L2.35,18.548Zm0-9.567L7.354,12.17H5.913l-5-2.476Zm11.45,3.189,6.446-3.189h1.441L13.8,12.17Zm7.887,6.378L13.8,15.359h1.442l5,2.476Z"/><path d="M27.326,23.7l-.013.018a.133.133,0,0,0-.093-.007.725.725,0,0,0-.144.071l-.593.342-.016-.011.149-.687a.755.755,0,0,0,.025-.151.1.1,0,0,0-.037-.057l.013-.019.319.226-.013.018-.011-.008a.143.143,0,0,0-.066-.03.028.028,0,0,0-.027.013.082.082,0,0,0-.011.023c0,.01-.009.038-.02.083l-.094.429.343-.2a.732.732,0,0,0,.08-.05.17.17,0,0,0,.027-.027.051.051,0,0,0,.011-.031.059.059,0,0,0-.011-.033.178.178,0,0,0-.05-.048l.013-.018.219.154Zm.213,1.02-.011.019-.376-.2.011-.02.024.014a.123.123,0,0,0,.056.016.061.061,0,0,0,.036-.014.26.26,0,0,0,.042-.063l.258-.468a.233.233,0,0,0,.032-.071A.047.047,0,0,0,27.6,23.9a.094.094,0,0,0-.041-.037l-.024-.013.01-.02.376.2-.01.019-.024-.012a.1.1,0,0,0-.057-.016.056.056,0,0,0-.035.013.245.245,0,0,0-.043.063l-.258.467a.278.278,0,0,0-.032.072.069.069,0,0,0,.01.037.122.122,0,0,0,.043.036l.024.013Zm1.373-.319-.1.27-.021-.007a.362.362,0,0,0-.054-.209.281.281,0,0,0-.146-.116.235.235,0,0,0-.161,0,.283.283,0,0,0-.13.106.687.687,0,0,0-.087.168.677.677,0,0,0-.044.2.229.229,0,0,0,.041.151.246.246,0,0,0,.125.088.268.268,0,0,0,.059.014.465.465,0,0,0,.066.005l.057-.159a.157.157,0,0,0,.015-.06.064.064,0,0,0-.017-.034.106.106,0,0,0-.044-.027l-.02-.008.008-.02.375.132-.008.021a.171.171,0,0,0-.063-.009.06.06,0,0,0-.037.019.17.17,0,0,0-.024.051l-.057.159a.828.828,0,0,1-.172-.006.818.818,0,0,1-.171-.041A.5.5,0,0,1,28.133,25a.487.487,0,0,1-.1-.123.382.382,0,0,1-.047-.139.4.4,0,0,1,.023-.188.415.415,0,0,1,.227-.248.453.453,0,0,1,.351-.01.517.517,0,0,1,.1.045.444.444,0,0,1,.071.055.337.337,0,0,0,.06.044.05.05,0,0,0,.034,0,.117.117,0,0,0,.04-.035l.021.007Zm.579.919,0,.022-.423-.064,0-.021.027,0a.124.124,0,0,0,.059,0,.055.055,0,0,0,.028-.025.242.242,0,0,0,.018-.073l.081-.527a.267.267,0,0,0,0-.078.057.057,0,0,0-.023-.031.109.109,0,0,0-.052-.02l-.027,0,0-.022.424.063,0,.022-.027,0a.112.112,0,0,0-.059,0,.055.055,0,0,0-.028.025.233.233,0,0,0-.018.073l-.081.528a.264.264,0,0,0,0,.078.066.066,0,0,0,.022.031.107.107,0,0,0,.053.019l.027,0Zm1.1-.264-.017.285-.726.038V25.36h.027a.112.112,0,0,0,.056-.016.052.052,0,0,0,.023-.03.234.234,0,0,0,0-.075l-.028-.532a.311.311,0,0,0-.01-.078.056.056,0,0,0-.029-.025.111.111,0,0,0-.055-.01l-.027,0v-.022l.436-.023v.023h-.035a.113.113,0,0,0-.057.016.055.055,0,0,0-.023.03.237.237,0,0,0,0,.075l.027.516a.271.271,0,0,0,.011.079.049.049,0,0,0,.03.024.284.284,0,0,0,.073,0l.068,0a.233.233,0,0,0,.108-.028.206.206,0,0,0,.071-.075.572.572,0,0,0,.053-.148Zm.794-.137-.277.083-.01.085a.176.176,0,0,0,0,.067.051.051,0,0,0,.04.04.217.217,0,0,0,.082-.009l.006.021-.261.078-.006-.022a.126.126,0,0,0,.059-.055.5.5,0,0,0,.032-.136l.093-.7.011,0,.476.553a.408.408,0,0,0,.1.095.1.1,0,0,0,.063,0l.006.021-.38.113-.006-.022.015,0a.125.125,0,0,0,.061-.032.032.032,0,0,0,0-.03.057.057,0,0,0-.01-.021l-.03-.037-.071-.085Zm-.032-.036-.2-.233-.04.3.238-.07ZM32.4,23.831l.105.193-.019.01a.343.343,0,0,0-.09-.075.161.161,0,0,0-.082-.017.217.217,0,0,0-.076.028L32.184,24l.3.551a.252.252,0,0,0,.043.065.068.068,0,0,0,.037.012.134.134,0,0,0,.055-.016l.024-.014.01.021-.377.2-.011-.019.024-.013a.112.112,0,0,0,.044-.038.049.049,0,0,0,.008-.037.2.2,0,0,0-.03-.069l-.3-.551-.052.027a.177.177,0,0,0-.09.087.236.236,0,0,0,.008.154l-.02.011-.105-.194.648-.345Zm.491-.288.2.263.014-.009a.131.131,0,0,0,.06-.107.3.3,0,0,0-.051-.14l.018-.014.259.339-.019.014a.322.322,0,0,0-.093-.073A.135.135,0,0,0,33.2,23.8a.205.205,0,0,0-.081.041l.139.182a.4.4,0,0,0,.054.063.049.049,0,0,0,.032.006.1.1,0,0,0,.047-.022l.039-.03a.282.282,0,0,0,.114-.151.287.287,0,0,0-.018-.188l.018-.013.128.228-.566.422-.013-.017.021-.017a.115.115,0,0,0,.039-.045.058.058,0,0,0,0-.037.236.236,0,0,0-.04-.064l-.325-.425a.519.519,0,0,0-.043-.053.066.066,0,0,0-.038-.012.109.109,0,0,0-.06.025l-.022.016-.013-.018.547-.409.146.192-.018.013a.3.3,0,0,0-.116-.071.179.179,0,0,0-.106.009.461.461,0,0,0-.108.066l-.068.051Z"/></g></g></svg>