<?xml version="1.0" encoding="UTF-8"?><svg id="Layer_1" xmlns="http://www.w3.org/2000/svg" viewBox="0 0 40 40"><path d="m1.992,12.137v16.009c0,.025.007.047.007.072V12.065c0,.025-.007.047-.007.072Z" fill="none"/><g><rect x="9.565" y="10.313" width="5.955" height="19.373" fill="#ff6700"/><polygon points="3.671 10.313 3.671 29.689 9.565 29.689 9.565 29.687 9.565 10.313 3.671 10.313" fill="#007831"/><g><polygon points="29.604 24.804 29.597 24.802 29.604 24.805 29.604 24.804" fill="#9c0041"/><path d="m30.9,23.498l.004-.033c-.003.01-.01.028-.013.037.003,0,.006-.003.008-.004Z" fill="#9c0041"/><polygon points="35.515 28.526 35.516 28.526 35.515 28.526 35.515 28.526" fill="#9c0041"/><path d="m33.755,26.892c-.006-.004-.019-.005-.025-.009.032.036.062.094.092.144-.024-.049-.046-.094-.068-.135Z" fill="#9c0041"/><path d="m30.104,21.731c.108-.028.215-.045.317-.05-.099,0-.205.016-.317.05Z" fill="#9c0041"/><polygon points="21.236 20.95 21.237 20.951 21.237 20.95 21.236 20.95" fill="#9c0041"/><path d="m31.624,23.323c-.014.003-.031,0-.046.002.016.002.027,0,.044.002,0-.001.002-.002.002-.004Z" fill="#9c0041"/><polygon points="28.878 25.374 29.052 25.361 28.887 25.361 28.878 25.374" fill="#9c0041"/><polygon points="21.23 21.662 21.23 21.662 21.23 21.662 21.23 21.662" fill="#9c0041"/><path d="m19.787,26.814c.004-.006.005-.019.009-.025-.036.032-.094.062-.144.094.049-.024.094-.047.135-.069Z" fill="#9c0041"/><polygon points="18.159 28.582 18.159 28.582 18.159 28.582 18.159 28.582" fill="#9c0041"/><path d="m23.924,18.077c-.035.005-.065.005-.098.008.034-.001.064-.004.098-.008Z" fill="#9c0041"/><path d="m24.238,18.087c-.006.061-.006.114-.006.155v-.003c.005-.04.008-.101.006-.152Z" fill="#9c0041"/><path d="m22.026,14.444c.005-.01.009-.027.014-.034-.096.042-.184.159-.266.323.077-.145.161-.242.252-.289Z" fill="#9c0041"/><path d="m21.689,14.926c.016-.038.031-.077.047-.112-.016.036-.032.072-.047.112Z" fill="#9c0041"/><path d="m23.524,18.074c-.013-.002-.027-.002-.04-.005.014.002.026.003.04.005Z" fill="#9c0041"/><path d="m24.234,18.291c0,.006,0,.017,0,.017.016-.003.025-.004.04-.007-.009,0-.02.002-.023,0-.004-.003-.013-.005-.019-.009Z" fill="#9c0041"/><path d="m17.19,29.689h19.312V10.313h-19.312v19.376Zm2.496-2.188c-.044.512-.099,1.149-.533,1.409-.087.03-.18.044-.279.044-.208,0-.429-.065-.564-.167-.176.068-.273.181-.367.291-.038.045-.077.089-.12.129l-.011.01-.013-.009s-.084-.055-.114-.143c.109-.156.446-.485.46-.499-.095-.044-.161-.192-.178-.375-.021-.215.029-.42.13-.533.163-.152.66-.381,1.099-.584.235-.108.456-.21.606-.291-.003.007-.004.019-.006.026.005-.002.011-.006.016-.008-.013.017-.02.047-.031.07-.047.155-.072.37-.095.63Zm1.804-3.939c.004.052.007.103.01.154.157.029.265.068.317.232-.067.09-.172.103-.336.038,0,0,.096.27-.077.347-.144-.087-.163-.298-.163-.298-.08.099-.199.034-.298-.049.09-.221.342-.115.326-.433,0,0-1.229.173-.711-.559.442-.194.433.26.269.414.202.022.336-.109.365-.308-.25-.337.106-.56.087-.56-.854.193-.97-.395-.653-.491.4.022.273.151.432.27.288-.267.461-.293.634-.02.173-.27.422-.241.432-.212.279.472-.336.501-.586.443.211.232.125.453.057.617.007.161.128.187.326.25-.422-1.17,1.488.312-.432.164Zm-.212-2.229h-.059c-.301-.011-.647-.042-.652-.194.034-.066.097-.072.142-.072.057,0,.128.013.205.027.09.016.189.034.285.034.104-.003.194-.017.279-.03.085-.013.166-.026.232-.026.062,0,.147.009.174.087-.063.125-.358.173-.607.173Zm.621.116c-.002.135-.407.234-.669.234,0,0-.007,0-.007,0-.214-.001-.477-.049-.545-.135-.016-.02-.021-.041-.016-.062,0-.054.073-.054.097-.054.043,0,.101.008.167.016.083.011.179.024.271.024.128-.003.242-.022.347-.039.099-.016.191-.03.253-.03.025,0,.092,0,.101.047Zm-1.047.333l.307.005c.043,0,.085,0,.126-.002.119-.006.249-.031.359-.052.092-.018.171-.033.22-.033.016,0,.063,0,.071.037-.03.131-.349.22-.634.241-.059.004-.119.007-.178.007-.109,0-.465-.009-.493-.131.035-.061.094-.071.221-.071Zm.385-.811h-.016c-.125,0-.541-.013-.654-.143-.022-.026-.032-.054-.028-.085.062-.089.188-.07.377-.038.109.019.235.04.37.042h0c.131,0,.248-.019.347-.035.15-.024.252-.034.295.01.017.018.025.043.024.074-.022.138-.479.174-.717.174Zm14.762,8.031l-.01.004-.008-.007c-.137-.106-.465-.445-.479-.459-.103.206-.694.238-.904.049-.152-.165-.381-.665-.583-1.106-.107-.235-.209-.455-.288-.605.006.003.019.003.026.006-.003-.005-.006-.011-.008-.016.017.013.047.02.069.031.154.048.368.073.627.095.51.044,1.145.099,1.404.535.099.297.015.662-.123.846.068.177.181.275.291.37.044.038.088.076.127.119,0,.028-.052.109-.139.139Zm-1.948-16.513c.202-.441.431-.94.581-1.103.21-.189.774-.159.933.047.002-.002.008-.008.011-.011.019-.047.31-.348.44-.448.105.026.158.107.16.111-.042.068-.085.106-.13.144-.109.095-.222.193-.287.388.135.166.219.531.121.824-.26.439-.895.493-1.404.538-.304.026-.566.049-.685.142l-.03-.025c.08-.15.182-.372.289-.608Zm-10.093,7.396c.371-.278.571-.424,1.034-.608-.093-.279.131-.485-.196-.571-.098.172-.195.36-.382.344l.1-.464s-.333.021-.268.619c-.384-.185-.195-.619-.195-.619h-.185s0,.552-.303.664c.081-.259.117-.664.117-.664,0,0-.495.594-.783.401.169-.193.301-.224.278-.457-.022-.232-.142-.53-.164-.578.043.021.196.065.378.099-.241-.073-.404-.239-.481-.501-.002-.004-.004-.011-.004-.018.011.026.029.041.041.065-.007-.022-.014-.038-.018-.052-.006-.005-.018-.009-.023-.014,0-.008.002-.016.006-.019.008-.006.017-.016.023-.009.126.143.903.194,1.531.194.016-.002.108-.057.233-.057.027,0,.055.003.082.008.083.045.151.092.207.141-.158-.188-.359-.338-.565-.596v.371c-.37-.092-.463-.186-.648-.557l-.277.186c-.488-.29-.849-.976-.156-.936.413.052.063.379.063.379,0,0,1.06-.335,1.481-.371,0,0-.123-.26-.513-.305.324-.244.651-.323.884.192.233.013.449-.268.311-.632.344-.006.514.212.67.442.128.023.257-.111.226-.573.324.278.483.364.505.598.276.062.463,0,.879-.187-.092.372-.092.465-.462.65.261.324.289.716.234.858-.091-.027-.113-.033-.178-.051.02.144.05.538.037.77h-.185l.278.836-.131.197.351-.043c.513-.12,1.026-.1,1.539-.247.74-.093,1.481-.372,2.314-.372.555,0,.555.279,1.296.279v-.464c0-.371-.278-.743-.741-.836-.277,0-.74.186-1.018.278-.37.093-.926.093-1.296.093-1.202-.186-1.011-.303-1.43-.529-.25.068-.392.281-.517.659-.233-.343-.181-.78.096-.965-.277-1.021.463-1.486,1.388-1.671,1.018-.093,2.592.742,3.425,1.3,0-.187,0-.371.184-.465.185-.093.464.093.371.371-.278.649-1.389-.093-1.759-.278l.185.371c-.556-.093-.648-.187-1.018-.65-.092.371-.092.464-.556.464.174-.275.233-.367,0-.649l-.092.557-.462-.649v.649c-.093-.093-.464-.371-.649-.371-.277-.093-.462.464-.555.742.278-.279.369-.464.833-.279-.251.238-.178.524.092.742,0,0,.048-.386.078-.474.147.111.46.527.848.568.278,0,.556-.094.833-.186.926-.092,2.962.092,2.5,1.485-.092.279-.185.465-.371.65,1.296.465.186,2.135-.092,2.97-.185.743-.057,1.334.856,1.238-.184.371-.485.432-.856.432,0,0,.046.224.284.329-.395.356.137.89-.099,1.157-.399.192-.926-.093-.926-.093l-.026.263s-.699-.048-.714-.078c0,0,.199-.374.185-.381-.185.278-.362.441-.74.381,0,0,.03-.174.236-.396-.281.282-.311.404-.606.396,0-.464.277-1.02.833-.835.093,0,.385.231.522.082.111-.16.045-.702.045-.887.058-.821-.104-.772-.567-1.236-.189-.142-.352-.321-.527-.476.033.058.064.12.084.192.082.247-.12.828-.241,1.175l-.039.114c.008-.003.018-.008.026-.012.018-.018.032-.035.06-.051.123-.072.303-.177.645-.118-.001.007-.008.012-.009.02.002,0,.003,0,.006,0-.007.029-.031.054-.044.082-.136.336-.566.571-.587.582.068.228-.354,1.33-.372,1.377l-1.222.013.008-.02h-.008l.052-.103.084-.201-.09.12-.122.196-.479.008.014-.02h-.014l.136-.171.104-.145c-.147.156-.412.367-.659.367,0,0-.023,0-.023,0,0-.009.004-.013.005-.021-.001,0-.003,0-.004,0,.017-.133.048-.24.087-.335.025-.066.057-.12.093-.169.03-.04.062-.076.099-.104.063-.051.138-.081.221-.099.025-.005.051-.01.078-.012.172-.015.367.009.611.113.002-.006.004-.013.005-.02-.005-.044.004-.095.02-.151.092-.329.195-.702.044-1.007-.046-.069-.124-.153-.211-.245-.259-.277-.581-.623-.439-.979.061-.103.19-.21.34-.314-.159.089-.304.174-.414.229-.925.557-1.759.928-2.777,1.114,0,0,.02-.047.02-.14,0-.062.999-.843,1.174-2.214-.273,1.353-1.245,2.068-1.282,2.32-.036.251-.235.68-.259.709.12-.073.506-.263.994-.303-.105.582-.648.465-.74.743,0,.279.37.65,0,.835h-1.481s.228-.316.239-.403c-.199.121-.326.44-.762.407.016-.119.225-.307.19-.381-.25.233-.367.429-.686.377.092-.278.092-.649.464-.649.278-.092.556.093.74-.186.371-.465-.067-1.48-.159-2.037,0-.464.001-.552-.118-1.119l.092,1.671c-.251-.189-.499-.338-.721-.528.123.168.224.345.224.483,0,.233-.188.416-.429.416-.051,0-.102-.009-.152-.025-.276-.069-.564-.33-.877-.797,0,.005-.001.009-.002.014.013.065-.005.207-.08.249-.018.017-.05.027-.092.027-.146,0-.395-.127-.46-.217.076-.133.13-.2.169-.248.048-.06.071-.087.081-.131-.027-.113-.091-.406-.305-.615.007-.006.009-.008.015-.013,0,0,0,0,0-.001.005-.002.005-.004.01-.007.062-.054.099-.086.104-.111.005-.029-.024-.063-.061-.106-.018-.021-.037-.043-.056-.069.072-.055.108-.085.115-.118.008-.041-.023-.096-.096-.168.009-.007.007-.008.015-.013,0,0,0,0,0,0,.002,0,.002-.002.004-.002.042-.032.077-.056.087-.08.021-.046-.005-.114-.051-.201.055-.04.091-.083.119-.158.076-.029.129-.034.179-.034.473,0,.637.402.811.828.064.157.137.312.22.457-.374-.74-.141-1.503.582-1.987Zm-3.263.167c.045.073.122.115.196.159.002-.093.019-.296.042-.586.122-1.484.407-4.959,1.118-5.223-.004.007-.008.023-.012.032.006-.003.012-.011.018-.014-.034.049-.064.161-.091.317-.172,1.145-.19,4.61-.11,5.437-.157.116-.362.136-.509.136-.161,0-.305-.025-.401-.053.33.149.816.078,1.034-.091-.24-.459.413-.36.384-.01-.08.62-2.234.537-2.151-.173.073-.335.848-.293.48.068Zm-3-9.081c.155.109.483.447.497.462.102-.205.696-.236.904-.048.152.164.38.663.582,1.104.108.236.209.458.29.608l-.03.025c-.119-.093-.381-.115-.684-.142-.51-.044-1.145-.099-1.404-.534-.099-.297-.015-.663.122-.847-.068-.177-.181-.275-.29-.37-.044-.038-.088-.076-.128-.12,0-.028.053-.109.14-.138Z" fill="#9c0041"/><polygon points="29.436 25.37 29.809 25.361 29.44 25.361 29.436 25.37" fill="#9c0041"/><path d="m24.268,18.291c.013-.008.041-.014.059-.021-.023.006-.047.012-.058.015v.007Z" fill="#9c0041"/><path d="m25.23,18.384s-.008,0-.012-.004c-.131-.097-.299-.146-.497-.146-.169,0-.31.034-.393.056.375-.071.499-.062.925.108-.002-.011-.006-.016-.008-.027-.002.003-.001.008-.005.01-.003.002-.007.003-.01.003Z" fill="#9c0041"/><polygon points="29.561 25.047 29.513 25.172 29.604 24.991 29.561 25.047" fill="#9c0041"/><path d="m22.068,20.789c.006.005.008.014.013.02-.004-.008-.007-.015-.011-.023-.001,0-.001.003-.003.003Z" fill="#9c0041"/><path d="m22.01,21.082c.02.01.026.023.041.035-.011-.013-.02-.026-.034-.04-.004,0-.003.004-.007.005Z" fill="#9c0041"/><path d="m22.162,20.675c-.007.015-.018.021-.027.032.01-.014.02-.019.027-.032Z" fill="#9c0041"/><path d="m21.995,21.368c.007-.001.01.007.016.009-.004-.005-.007-.009-.011-.013-.003.001-.002.003-.005.004Z" fill="#9c0041"/><path d="m22.651,22.558s0,.013-.001.022c.046.06.089.11.132.163-.048-.065-.094-.129-.131-.185Z" fill="#9c0041"/><path d="m21.984,21.672c.013.011.021.024.033.036-.011-.012-.018-.026-.029-.038-.001,0-.002.001-.003.002Z" fill="#9c0041"/><path d="m22.082,21.292s-.007.006-.01.009c.003-.003.007-.006.01-.009Z" fill="#9c0041"/><path d="m29.165,24.971c-.015.019-.028.037-.049.06l-.068.098.185-.232s-.028.032-.068.073Z" fill="#9c0041"/><path d="m30.474,21.673c-.017,0-.036.008-.053.008-.102.004-.208.022-.317.05-.267.068-.526.194-.735.338-.15.104-.278.211-.34.314-.142.356.18.702.439.979.086.093.164.176.211.245.151.305.047.678-.044,1.007-.016.056-.025.107-.02.151,0,.006-.004.015-.003.021-.001,0-.002,0-.003,0-.244-.104-.439-.127-.611-.113-.027.002-.052.007-.078.012-.083.018-.158.048-.221.099-.036.029-.069.064-.099.104-.036.049-.068.103-.093.169-.037.097-.07.2-.082.334,0,.008-.004.012-.005.021,0,0,.023,0,.023,0,.247,0,.512-.211.659-.367l-.104.145-.122.171-.014.02.479-.008.122-.196.122-.195-.031.075-.084.201-.043.103-.008.02,1.222-.013c.018-.047.44-1.149.372-1.377.021-.011.452-.246.587-.582.011-.028.031-.053.038-.082.002-.007.008-.012.009-.02-.341-.059-.522.046-.645.118-.028.016-.042.034-.06.051-.009.009-.027.016-.031.027l.005-.014.039-.114c.121-.347.323-.929.241-1.175-.02-.073-.05-.134-.084-.192-.125-.218-.34-.335-.639-.335Zm.549,1.788c.099-.058.222-.13.433-.13.04,0,.082-.002.123-.006.015-.001.032.001.046-.002,0,.001-.002.002-.002.004-.085.349-.622.626-.638.651.054.238-.376,1.362-.362,1.363l-.813.02-.373.009.004-.009.073-.189.048-.125.027-.069-.262.363-.274.02-.174.013.009-.013.161-.232.068-.098c.021-.023.034-.041.049-.06.033-.042.055-.076.053-.086h0s-.419.487-.774.488c.063-.46.261-.685.607-.685.146,0,.324.044.546.114.003,0,.005.001.007.002.007.002.012.003.019.005.015-.059.032-.121.05-.184.094-.336.2-.717.041-1.038-.048-.073-.128-.158-.216-.252-.251-.269-.564-.604-.433-.934.163-.271.841-.688,1.409-.688.25,0,.572.087.684.499.078.235-.129.83-.24,1.15l-.014.102-.004.033-.003.023c.04-.01.08-.034.126-.061Z" fill="#9c0041"/><path d="m24.729,16.59c-.076.047-.078.211-.041.342.036.129.103.206.177.206l.051-.012c.083-.037.116-.117.093-.225-.032-.149-.156-.316-.28-.312Zm.136.507c-.065-.001-.114-.091-.138-.177-.037-.13-.026-.266.032-.299.054,0,.18.145.211.288.013.062.012.143-.07.18l-.015.013-.019.016v-.02s0,0-.001,0Z" fill="#9c0041"/><path d="m25.838,17.004c.015,0,.03-.002.046-.004.009,0,.017,0,.026-.002-.269-.222-.273-.394-.287-.441,0,0,0,0,0,0h0c.161.177.576.326.833.306.043-.003.087-.007.118-.021.007-.003.021,0,.027-.005l-.066-.049c-.15-.11-.194-.15-.247-.233-.007-.011-.015-.017-.022-.03h.011s.064.01.064.01c.213.028.447.053.654-.013.035-.011.069-.025.101-.043.014-.007.029-.009.042-.018-.029.013-.064.008-.095.017-.222.064-.47.047-.697.017l-.068.011h-.008s-.02.005-.02.005c.047.15.089.181.262.309l.046.009.023.005s-.011,0-.015.001c-.179.064-.626-.08-.867-.25-.024-.017-.054-.032-.073-.05-.005-.004-.014-.008-.018-.012-.002.008-.033.156.154.348.039.04.073.079.134.122-.007,0-.013-.003-.021-.002-.331.008-.617-.236-.828-.417-.058-.05-.109-.092-.157-.127-.006-.005-.015-.012-.021-.017-.009-.006-.021-.004-.028.005-.006.009-.004.021.005.028.051.036.11.086.174.142.2.172.467.401.787.401.01,0,.02-.002.03-.002Z" fill="#9c0041"/><path d="m25.68,18.731c-.002-.006-.003-.022-.006-.023,0,0-.002.022-.003.036-.007.075-.017.323.067.629.009.033.013.063.024.097-.002,0-.004-.003-.006-.003-.097-.011-.223-.205-.328-.378-.016-.026-.031-.049-.046-.073-.023-.038-.044-.072-.063-.101-.005-.008-.013-.022-.018-.029l-.026.39c0,.011.008.021.019.021.009-.002.021-.008.021-.019v-.029s-.007-.175-.007-.175l-.006-.18s.012.025.016.034c.016.037.049.101.093.183.073.134.17.268.275.329.024.014.048.035.071.038.004,0,.008.007.012.007.003,0,.006,0,.009,0-.091-.332-.081-.609-.092-.721-.002-.018-.005-.025-.009-.034Z" fill="#9c0041"/><path d="m27.473,19.131s.046.171-.064.323c-.106-.009-.279-.227-.43-.431-.034-.047-.064-.086-.095-.128-.025-.035-.053-.073-.075-.102,0,0,0-.001-.001-.002-.018-.032-.033-.052-.042-.053,0,0,0-.001-.001-.002,0,.002.049.118.1.264.047.136.087.291.105.435.005.041.016.086.015.122-.003-.001-.005-.004-.008-.005-.378-.14-.559-.506-.639-.657,0,0,0,0,0-.001-.012-.022-.019-.032-.027-.042-.005-.008-.016-.031-.02-.031,0,0-.001.03,0,.066.003.122.049.405.299.636.016.015.022.031.04.046,0,0-.002,0-.003,0-.023.013-.049.017-.079.009-.236-.063-.59-.69-.633-.767-.003-.004-.008-.014-.008-.015-.005-.01-.018-.013-.027-.008-.01.005-.013.017-.008.027.016.03.399.73.666.801.012.003.023.005.034.005.02,0,.038-.019.056-.034.003-.003.006-.003.01-.006.005-.006.012-.003.017-.01-.277-.247-.318-.552-.341-.68,0-.002-.001-.005-.001-.007,0,.002.003.006.004.008.041.105.151.319.347.49.001.001.003.002.004.004.066.058.146.103.234.143.027.012.049.03.078.04.008.003.013.008.02.01.018-.177-.041-.396-.105-.572-.015-.041-.027-.092-.042-.125.025.039.057.088.089.135.143.211.342.465.483.471.109-.138.102-.276.075-.329-.007-.014-.016-.026-.024-.026,0,0,0,0-.001,0Z" fill="#9c0041"/><path d="m27.385,18.559c-.013.017-.034.027-.063.029-.02.002-.063-.066-.115-.157-.075-.134-.172-.335-.276-.563-.036-.078-.071-.156-.107-.236-.006-.014-.013-.028-.019-.042-.008.325-.026.69-.027.719-.034-.019-.223-.29-.406-.527-.038-.05-.075-.097-.111-.141-.01-.012-.021-.026-.03-.038.074.294.136.62.118.654-.032-.004-.19-.104-.365-.211-.021-.013-.042-.026-.064-.039-.006-.004-.013-.008-.019-.012l-.009.227-.005.135-.01.263-.013-.017-.345-.441-.013-.017c-.007-.009-.019-.01-.028-.003-.009.007-.01.02-.003.028l.235.268.154.176.018.021.017-.403v-.009s.009-.21.009-.21c.002.002.008.006.01.008.094.075.367.283.458.262.036-.053-.029-.359-.094-.549-.017-.05-.034-.097-.049-.124.012.018.02.03.031.046.469.711.501.699.518.69.01-.005.032-.023.03-.404,0-.093-.002-.202-.007-.345.005.012.012.032.017.047.068.185.207.546.331.778.064.119.125.206.167.206,0,0,.002,0,.002,0,.042-.003.073-.018.093-.046.025-.034.018-.071.002-.093-.007-.01-.012-.024-.023-.021,0,0,.013.055-.012.09Z" fill="#9c0041"/><path d="m25.855,17.837c.04-.023-.006-.171-.145-.418-.018-.032-.04-.068-.062-.104-.019-.031-.032-.057-.054-.091.002.002.023.021.039.036.016.015.034.03.06.053.109.096.278.237.367.255.006,0,.052-.012.057-.017.042-.042.039-.156.023-.252-.007-.04-.014-.072-.024-.098-.005-.013-.01-.031-.015-.038.002.002.007.006.01.008.036.031.092.076.153.124.121.095.26.194.303.179.048-.012.057-.104.047-.19-.003-.026-.007-.049-.013-.072-.006-.021-.011-.043-.019-.057.007.007.01.01.017.017.045.045.081.08.111.109.132.128.151.133.172.127.004-.004.009-.015-.003-.132-.006-.061-.017-.154-.035-.29-.011-.085-.025-.182-.043-.307.007.007.011.012.018.019.464.492.569.57.597.556.005-.003.009-.008.01-.015-.037-.012-.269-.244-.484-.442-.042-.039-.084-.077-.124-.111-.007-.006-.015-.014-.022-.02.018.189.041.464.06.609.005.041.009.062.013.077.001.005.003.021.004.023,0,0-.004-.003-.005-.004-.013-.008-.054-.044-.112-.093-.024-.02-.056-.042-.085-.064-.025-.019-.046-.037-.073-.056-.008-.005-.013-.011-.022-.016.006.052.005.097.005.142,0,.08-.007.146-.023.15-.031.002-.128-.062-.246-.141-.033-.022-.065-.044-.101-.067-.033-.022-.067-.044-.101-.066-.008-.005-.015-.01-.023-.015.009.044.016.1.02.155.007.098.003.197-.038.228-.069-.014-.213-.127-.336-.217-.017-.012-.032-.022-.047-.033-.023-.016-.043-.028-.062-.04-.01-.006-.024-.017-.033-.021.016.032.032.064.048.097.111.225.209.455.2.486h0c-.048,0-.337-.238-.596-.474-.005-.005-.01-.009-.016-.014-.008-.008-.021-.007-.028.001-.008.008-.007.021.001.029.252.23.561.497.644.497.005,0,.009,0,.012-.003Z" fill="#9c0041"/><path d="m23.524,18.074c.055.008.108.021.17.021.041,0,.089-.007.133-.01.033-.003.062-.003.098-.008.091-.013.19-.032.303-.059.009.01.009.041.011.07.002.051,0,.112-.005.152v.003s-.005.046-.005.046c0,.001.004.002.006.003.006.003.015.006.019.009.003.003.013.001.023,0,.005,0,.01,0,.012,0,.009-.002.03-.007.041-.01.083-.022.223-.056.393-.056.199,0,.366.049.497.146.004.003.008.004.012.004.004,0,.007,0,.01-.003.003-.002.003-.006.005-.01.002-.004.005-.006.005-.01-.035-.243-.094-.421-.265-.573-.056-.049-.124-.096-.207-.141-.027-.006-.055-.008-.082-.008-.125,0-.217.055-.233.057-.628,0-1.406-.051-1.531-.194-.006-.008-.015.002-.023.009-.004.003-.006.011-.006.019.005.005.017.009.023.014.215.177,1.227.192,1.582.189,0,0,.078-.053.189-.053.025,0,.049.003.068.006.303.164.394.353.44.637-.132-.084-.294-.127-.483-.127-.166,0-.302.035-.394.075-.018.008-.046.014-.059.021v-.007s.005-.041.005-.041c.012-.111.02-.213-.016-.253l-.071-.008c-.638.168-1.035.032-1.244-.387-.012-.024-.03-.039-.041-.065,0,.007.002.014.004.018.077.263.24.428.481.501.03.009.064.013.097.019.013.002.027.003.04.005Z" fill="#9c0041"/><path d="m22.344,20.586c-.05,0-.103.005-.179.034-.028.075-.064.119-.119.158.046.087.072.155.051.201-.011.024-.045.047-.087.08-.002.001-.002.002-.003.003-.007.006-.006.007-.015.013.073.072.105.127.096.168-.007.033-.043.062-.115.118.019.025.038.048.056.069.037.043.067.077.061.106-.005.025-.042.057-.104.111-.004.003-.006.005-.009.008-.006.005-.008.007-.015.013.214.209.278.503.305.615-.01.044-.032.071-.081.131-.039.048-.093.115-.169.248.065.09.314.217.46.217.042,0,.074-.01.092-.027.075-.042.093-.184.08-.249,0-.004.001-.012,0-.016,0,0,0,0,.001.001.313.466.601.727.877.797.05.017.101.025.152.025.241,0,.429-.182.429-.416,0-.138-.101-.315-.224-.483-.132-.18-.289-.348-.384-.442-.049-.059-.086-.131-.125-.2-.083-.145-.156-.299-.22-.457-.174-.426-.338-.828-.811-.828Zm.288,1.971c-.002.061-.02.226-.087.264-.074.066-.424-.087-.496-.158.075-.109.129-.175.167-.222.051-.063.076-.094.083-.181-.021-.094-.086-.365-.282-.552-.012-.011-.02-.025-.033-.036.002,0,.002-.001.003-.002.09-.046.133-.083.142-.126.01-.048-.026-.088-.07-.14-.013-.015-.03-.022-.047-.026-.006-.002-.009-.01-.016-.009.003-.001.002-.003.005-.004.042-.017.051-.042.072-.064.003-.003.007-.006.01-.009.011-.014.041-.023.045-.04.009-.044-.021-.092-.076-.136-.015-.011-.021-.024-.041-.035.004,0,.004-.004.007-.005.058-.017.099-.042.116-.08.027-.061-.006-.136-.052-.187-.005-.006-.008-.015-.013-.02.001,0,.001-.003.003-.003.029-.008.043-.051.065-.079.009-.012.02-.018.027-.032.007-.016.023-.015.028-.034.566-.094.741.333.928.79.096.235.195.478.353.668.18.18.597.627.597.898,0,.255-.261.442-.53.352-.231-.058-.474-.265-.755-.606-.044-.053-.087-.103-.132-.163-.006-.008-.012-.014-.019-.023Z" fill="#9c0041"/><path d="m20.946,20.259c.096.028.24.053.401.053.146,0,.351-.02.509-.136-.08-.827-.062-4.292.11-5.437.022-.144.046-.242.072-.303.004-.009.008-.026.012-.032-.711.264-.997,3.739-1.118,5.223-.024.29-.04.492-.042.586.022.013.034.037.058.047Zm1.094-5.848c-.005.007-.009.024-.014.034-.276.548-.287,4.94-.202,5.717-.14.092-.337.111-.478.111-.183,0-.366-.033-.433-.042.012-.059.03-.274.057-.601.089-1.083.297-3.602.718-4.703.015-.04.031-.076.047-.112.012-.028.025-.055.038-.081.081-.164.169-.281.266-.323Z" fill="#9c0041"/><path d="m35.72,28.374c.138-.184.222-.55.123-.846-.259-.436-.894-.491-1.404-.535-.259-.022-.473-.047-.627-.095-.018-.006-.045-.009-.061-.015-.007-.003-.019-.004-.026-.006.08.15.181.37.288.605.202.442.431.942.583,1.106.21.189.801.157.904-.049.014.015.341.353.479.459l.008.007.01-.004c.087-.03.139-.111.139-.139-.039-.043-.083-.081-.127-.119-.109-.095-.223-.193-.291-.37Zm-1.965-1.482c.134.09.384.116.68.141.501.043,1.125.097,1.372.511.093.28.013.63-.122.824.069.206.186.307.3.406.043.037.085.074.121.091,0,0-.043.066-.111.094-.132-.106-.419-.399-.48-.434,0,0,0,0,0,0-.004-.002-.014-.012-.016-.012-.143.189-.686.215-.875.047-.146-.158-.374-.656-.575-1.095-.077-.168-.151-.315-.227-.439-.031-.05-.061-.108-.092-.144.006.004.019.005.025.009Z" fill="#9c0041"/><path d="m17.97,11.599c-.138.184-.222.55-.122.847.259.435.894.49,1.404.534.303.026.565.049.684.142l.03-.025c-.08-.15-.182-.372-.29-.608-.202-.441-.431-.94-.582-1.104-.209-.188-.803-.157-.904.048-.014-.014-.341-.353-.497-.462-.087.03-.14.11-.14.138.04.043.083.081.128.12.109.095.222.193.29.37Zm-.283-.593c.127.098.426.405.488.44h0s.014.012.016.012c.143-.189.686-.215.875-.045.146.158.373.654.574,1.092.094.205.183.4.257.546-.142-.069-.377-.089-.642-.112-.501-.043-1.125-.097-1.371-.511-.093-.281-.013-.63.121-.824-.068-.206-.185-.308-.299-.406-.043-.037-.086-.074-.122-.092,0,0,.048-.073.103-.101Z" fill="#9c0041"/><path d="m19.802,26.784c-.15.081-.371.183-.606.291-.439.202-.935.432-1.099.584-.101.114-.151.318-.13.533.018.184.083.332.178.375-.014.014-.352.343-.46.499.03.087.11.141.114.143l.013.009.011-.01c.043-.04.081-.084.12-.129.094-.11.192-.223.367-.291.135.101.356.167.564.167.099,0,.192-.014.279-.044.434-.26.489-.897.533-1.409.022-.26.047-.475.095-.63.006-.019.009-.045.015-.062.003-.007.003-.019.006-.026Zm-.015.03c-.09.135-.115.386-.141.684-.043.503-.097,1.129-.509,1.376-.245.082-.604.025-.82-.122-.204.069-.305.186-.403.3-.034.04-.068.078-.105.114-.022-.016-.067-.053-.088-.094.098-.127.403-.428.439-.49,0,0,0,0,0,0,.002-.003.012-.014.012-.016-.087-.066-.148-.207-.165-.378-.019-.201.028-.399.119-.501.157-.146.651-.374,1.087-.575.168-.078.315-.153.439-.229.05-.031.108-.061.144-.094-.004.006-.005.019-.009.025Z" fill="#9c0041"/><path d="m34.476,12.979c.51-.044,1.144-.099,1.404-.538.097-.293.013-.659-.121-.824.065-.196.178-.293.287-.388.044-.038.088-.076.13-.144-.002-.004-.055-.084-.16-.111-.13.1-.421.4-.44.448,0,.002-.009.012-.009.013,0,0-.002,0-.002-.001-.159-.207-.723-.237-.933-.047-.15.163-.379.662-.581,1.103-.108.236-.209.458-.289.608l.03.025c.119-.093.381-.116.685-.142Zm1.545-1.97c.062.021.105.076.119.078-.037.04-.078.075-.12.112-.113.098-.231.2-.296.424.131.176.211.526.12.802-.248.417-.871.471-1.372.514-.266.023-.501.043-.643.112.074-.146.163-.341.257-.546.201-.438.428-.935.573-1.091.087-.078.241-.125.412-.125.204,0,.386.067.494.171.003-.004.34-.351.456-.452Z" fill="#9c0041"/></g><g><path d="m34,8H6c-2.209,0-4,1.791-4,4v16c0,2.209,1.791,4,4,4h28c2.209,0,4-1.791,4-4V12c0-2.209-1.791-4-4-4ZM15.52,29.687h-5.955v.003H3.671V10.313h11.849v19.373Zm20.982.003h-19.312V10.313h19.312v19.376Z" fill="#fbcb00"/><path d="m27.459,19.119c.11-.042.219-.075.329-.101l-.351.043-.032.047.054.011Z" fill="#fbcb00"/><polygon points="25.909 18.014 25.9 18.224 25.9 18.224 25.919 18.022 25.909 18.014" fill="#fbcb00"/><polygon points="25.878 18.622 25.888 18.359 25.865 18.605 25.878 18.622" fill="#fbcb00"/><path d="m26.234,17.611c.015.027.032.074.049.124-.007-.031-.013-.056-.018-.078-.011-.017-.019-.029-.031-.046Z" fill="#fbcb00"/><path d="m25.304,18.896l.006.18.01-.146c-.004-.009-.014-.029-.016-.034Z" fill="#fbcb00"/><path d="m23.884,22.513c.222.19.471.339.721.528l-.092-1.671c.119.567.118.655.118,1.119.092.557.53,1.572.159,2.037-.185.279-.462.093-.74.186-.371,0-.371.371-.464.649.319.052.436-.145.686-.377.035.074-.174.262-.19.381.436.033.563-.286.762-.407-.011.087-.239.403-.239.403h1.481c.37-.185,0-.556,0-.835.092-.278.634-.161.74-.743-.488.04-.874.23-.994.303.024-.028.223-.458.259-.709.037-.252,1.008-.967,1.282-2.32-.175,1.371-1.174,2.152-1.174,2.214,0,.093-.02.14-.02.14,1.018-.186,1.852-.557,2.777-1.114.11-.055.255-.14.414-.229.209-.145.469-.271.735-.338.112-.034.218-.05.317-.05.017,0,.036-.008.053-.008.299,0,.514.118.639.335.175.155.339.334.527.476.463.464.625.416.567,1.236,0,.186.066.728-.045.887-.137.149-.429-.082-.522-.082-.556-.185-.833.371-.833.835.295.008.325-.115.606-.396-.207.222-.236.396-.236.396.378.06.555-.103.74-.381.015.007-.185.381-.185.381.015.03.714.078.714.078l.026-.263s.527.285.926.093c.236-.267-.296-.801.099-1.157-.238-.105-.284-.329-.284-.329.371,0,.672-.061.856-.432-.912.096-1.041-.496-.856-1.238.278-.835,1.389-2.506.092-2.97.186-.186.278-.371.371-.65.463-1.393-1.574-1.577-2.5-1.485-.277.092-.555.186-.833.186-.388-.041-.701-.457-.848-.568-.03.088-.078.474-.078.474-.27-.219-.344-.504-.092-.742-.464-.185-.555,0-.833.279.092-.279.278-.836.555-.742.185,0,.556.279.649.371v-.649l.462.649.092-.557c.233.282.174.374,0,.649.464,0,.464-.092.556-.464.37.464.462.557,1.018.65l-.185-.371c.37.185,1.481.927,1.759.278.093-.278-.185-.465-.371-.371-.184.093-.184.278-.184.465-.834-.558-2.407-1.393-3.425-1.3-.925.185-1.666.649-1.388,1.671-.277.185-.329.622-.096.965.125-.378.266-.592.517-.659.42.227.228.344,1.43.529.371,0,.927,0,1.296-.093.278-.092.741-.278,1.018-.278.463.093.741.465.741.836v.464c-.741,0-.741-.279-1.296-.279-.833,0-1.574.279-2.314.372-.513.147-1.026.126-1.539.247-.11.026-.219.059-.329.101l.034.007s.003.012.006.031c.028.053.035.192-.075.329-.142-.006-.34-.26-.483-.471l-.048-.01c.063.176.123.395.105.572-.008-.002-.013-.008-.02-.01,0,.003,0,.006,0,.008-.031-.011-.05-.034-.079-.048-.088-.04-.168-.086-.234-.143-.001-.001-.003-.003-.004-.004-.195-.171-.305-.385-.347-.49h-.002c.023.128.064.433.341.679-.005.008-.011.005-.017.01.002.001.002.003.004.005-.004.002-.009,0-.013.001-.018.016-.036.034-.056.034-.011,0-.023-.002-.034-.005-.266-.071-.65-.771-.666-.801-.005-.01-.002-.022.008-.027.009-.005.022-.001.027.008,0,0,.006.01.008.015l.376.075c0-.036,0-.065,0-.066.003,0,.014.023.02.031,0-.008,0-.029,0-.029,0,0,.013.036.026.072,0,0,0,0,0,.001l.527.105c-.05-.146-.099-.261-.1-.264,0,0,.001.001.001.002.009.002.024.021.042.053,0,0,0,.001.001.002-.013-.032-.026-.065-.026-.065,0,0,.041.072.101.167.031.042.061.081.095.128l.425.085.032-.047.131-.197-.278-.836h.185c.013-.232-.016-.626-.037-.77.065.018.087.024.178.051.055-.142.027-.534-.234-.858.371-.186.371-.278.462-.65-.416.186-.603.249-.879.187-.022-.234-.181-.32-.505-.598.031.462-.098.596-.226.573-.157-.23-.326-.448-.67-.442.139.364-.078.646-.311.632-.234-.515-.56-.436-.884-.192.391.044.513.305.513.305-.421.036-1.481.371-1.481.371,0,0,.35-.327-.063-.379-.693-.04-.333.646.156.936l.277-.186c.185.371.278.465.648.557v-.371c.206.258.407.407.565.596.172.152.231.33.265.573,0,.004-.003.007-.005.01.002.011.006.016.008.027-.426-.17-.55-.179-.925-.108-.011.003-.032.007-.041.01-.002,0-.007,0-.012,0-.015.003-.024.004-.04.007,0,0,0-.01,0-.017-.002,0-.006-.001-.006-.003l.004-.046c0-.041,0-.094.006-.155-.001-.028-.001-.059-.011-.07-.113.028-.212.047-.303.059-.033.004-.064.006-.098.008-.045.004-.092.01-.133.01-.062,0-.114-.012-.17-.021-.014-.002-.026-.003-.04-.005-.032-.006-.067-.01-.097-.019-.182-.034-.335-.078-.378-.099.022.048.142.347.164.578.023.233-.108.264-.278.457.288.193.783-.401.783-.401,0,0-.036.404-.117.664.302-.111.303-.664.303-.664h.185s-.188.435.195.619c-.066-.599.268-.619.268-.619l-.1.464c.187.016.284-.172.382-.344.328.086.104.292.196.571-.464.185-.663.33-1.034.608-.723.484-.956,1.247-.582,1.987.04.069.076.141.125.2.094.094.252.262.384.442Zm1.897-3.028s-.006,0-.009,0c-.004,0-.008-.006-.012-.007.001.004.001.007.002.011-.023-.001-.049-.032-.074-.049-.105-.061-.202-.195-.275-.329l-.097.138v.029c0,.011-.011.016-.02.019-.011,0-.019-.01-.019-.021l.026-.39c.005.007.013.021.018.029l.002-.028s.026.056.061.128c.015.024.03.047.046.073l.242-.346c.001-.014.003-.035.003-.036.003,0,.004.017.006.023l.014-.02s-.003.023-.005.054c.01.111.001.389.092.721Zm1.636-1.021s.002.011.003.025c.016.021.023.058-.002.093-.02.028-.051.043-.093.046,0,0-.002,0-.002,0-.043,0-.103-.086-.167-.206l-1.255-.199v.009s-.018.403-.018.403l-.018-.021-.002.019-.152-.195-.235-.268c-.007-.009-.005-.021.003-.028.009-.007.021-.006.028.003l.013.017.373.059.009-.227c.006.004.013.008.019.012v-.01s.026.02.064.049c.176.107.333.207.365.211.018-.033-.044-.36-.118-.654.009.011.02.026.03.038-.006-.025-.01-.042-.01-.042,0,0,.052.08.122.183.183.238.372.509.406.527,0-.029.019-.394.027-.719.006.014.013.028.019.042,0-.024.001-.041.001-.041,0,0,.044.121.106.277.104.228.201.429.276.563l.209.033Zm-2.5-1.338l-.051.012c-.075,0-.141-.077-.177-.206-.037-.131-.035-.295.041-.342.124-.005.248.162.28.312.023.107-.01.187-.093.225Zm-.07-.663c-.009-.007-.011-.019-.005-.028.007-.009.019-.011.028-.005.006.004.014.012.021.017l2.153.032c.031-.009.065-.004.095-.017-.013.008-.028.01-.042.018h.05c-.048.022-.1.032-.151.043-.207.067-.441.041-.654.013l-.064-.008c.004.01.008.019.011.028.053.083.097.123.247.233l.066.049c-.007.004-.02.002-.027.005.006.004.009.007.015.011-.031.014-.085.01-.134.01-.257.02-.671-.13-.833-.306,0,0,0,0,0,0,.014.048.018.219.287.441-.009.001-.017,0-.026.002.006.005.007.009.013.014-.021.001-.038-.009-.059-.01-.01,0-.02.002-.03.002-.32,0-.587-.229-.787-.401-.065-.056-.123-.106-.174-.142Zm.353.88c-.008-.008-.009-.02-.001-.029.007-.008.02-.009.028-.001.005.005.01.009.016.014l.397-.012c-.016-.032-.031-.065-.048-.097.009.004.023.015.033.021-.004-.007-.015-.03-.015-.03,0,0,.033.031.077.07.016.011.031.021.047.033l.374-.011c-.004-.055-.011-.111-.02-.155.008.005.015.01.023.015,0-.004-.003-.019-.003-.019,0,0,.047.039.104.085.036.024.068.045.101.067l.269-.008c0-.045.001-.09-.005-.142.008.005.014.011.022.016,0-.005-.002-.019-.002-.019,0,0,.034.034.075.074.029.022.061.044.085.064l.099-.003c-.018-.146-.042-.42-.06-.609.007.006.015.013.022.02,0-.01-.002-.021-.002-.021,0,0,.053.056.126.132.215.197.448.43.484.442-.002.007-.005.012-.01.015.002,0,.007.005.009.005l-.545.017c.012.118.007.128.003.132-.02.005-.039,0-.172-.127l-.096.003c.009.086,0,.178-.047.19-.043.015-.182-.084-.303-.179l-.123.004c.016.096.018.21-.023.252-.005.005-.051.016-.057.017-.089-.018-.258-.159-.367-.255h-.033c.014.031.032.069.049.106.139.247.185.395.145.418-.003.002-.008.003-.012.003-.083,0-.392-.266-.644-.497Z" fill="#fbcb00"/><path d="m25.625,16.537c.019.017.049.033.073.05-.022-.019-.056-.036-.072-.055,0,0,0,.005,0,.006Z" fill="#fbcb00"/><polygon points="26.581 16.835 26.557 16.83 26.565 16.836 26.581 16.835" fill="#fbcb00"/><path d="m26.102,17.164c.005.006.01.025.015.038-.003-.016-.003-.02-.005-.029-.003-.002-.008-.006-.01-.008Z" fill="#fbcb00"/><path d="m25.895,16.994c-.061-.043-.095-.082-.134-.122.032.038.065.077.114.119.007,0,.013.003.021.002Z" fill="#fbcb00"/><path d="m26.806,17.598c.004.143.006.251.007.345.005-.12.009-.233.011-.298-.006-.015-.013-.035-.017-.047Z" fill="#fbcb00"/><path d="m26.869,17.374s.004.004.005.004c-.001-.001-.003-.018-.004-.023,0,.009,0,.013,0,.019Z" fill="#fbcb00"/><path d="m26.802,16.681c.018.125.031.221.043.307-.01-.12-.02-.235-.025-.288-.006-.007-.011-.011-.018-.019Z" fill="#fbcb00"/><path d="m26.583,17.156c.008.014.014.036.019.057-.001-.018-.001-.028-.002-.04-.007-.007-.01-.009-.017-.017Z" fill="#fbcb00"/><path d="m24.884,17.103c-.008.001-.013-.005-.02-.005,0,0,0,0,.001,0v.02l.019-.016Z" fill="#fbcb00"/><polygon points="26.269 16.509 26.277 16.507 26.268 16.506 26.269 16.509" fill="#fbcb00"/><path d="m25.596,17.224c.021.034.035.06.054.091h.012c-.014-.03-.018-.037-.027-.055-.016-.015-.037-.034-.039-.036Z" fill="#fbcb00"/><path d="m26.984,19.556c0-.036-.01-.081-.015-.122.003.04.009.081.007.117.003,0,.005.004.008.005Z" fill="#fbcb00"/><path d="m26.629,19.567c-.018-.014-.024-.031-.04-.046.014.015.021.031.037.046,0,0,.002,0,.003,0Z" fill="#fbcb00"/><path d="m25.762,19.471c-.012-.034-.015-.064-.024-.097.007.032.01.061.019.094.002,0,.004.003.006.003Z" fill="#fbcb00"/><path d="m29.615,24.766c-.002.007-.004.014-.005.02.001,0,.002,0,.003,0-.002-.006.003-.015.003-.021Z" fill="#fbcb00"/><path d="m31.644,23.328s-.003,0-.006,0c-.007.029-.027.054-.038.082.012-.028.037-.052.044-.082Z" fill="#fbcb00"/><path d="m30.891,23.502c.003-.009.009-.027.013-.037l.014-.102c.111-.32.318-.916.24-1.15-.112-.413-.434-.499-.684-.499-.568,0-1.246.417-1.409.688-.131.33.181.665.433.934.088.094.168.18.216.252.159.321.053.702-.041,1.038-.017.063-.035.125-.05.184-.007-.002-.012-.003-.019-.005h0s-.005,0-.007-.002c-.222-.07-.399-.114-.546-.114-.345,0-.544.224-.607.685.355,0,.769-.483.774-.488h0c.003.011-.02.045-.053.087.04-.042.068-.073.068-.073l-.185.232-.161.232h.165l.274-.02.262-.363-.027.069.043-.057-.091.181-.073.189h.369l.813-.02c-.013,0,.417-1.125.362-1.363.016-.025.553-.302.638-.651-.017-.002-.028,0-.044-.002-.041.003-.083.006-.123.006-.211,0-.334.072-.433.13-.046.027-.086.05-.126.061l.003-.023s-.006.003-.008.004Z" fill="#fbcb00"/><polygon points="29.464 25.177 29.555 25.056 29.586 24.981 29.464 25.177" fill="#fbcb00"/><path d="m30.943,23.478c-.009.004-.018.009-.026.012l-.005.014c.004-.011.022-.018.031-.027Z" fill="#fbcb00"/><polygon points="29.418 25.361 29.427 25.361 29.47 25.258 29.418 25.361" fill="#fbcb00"/><path d="m28.421,25.392s.003,0,.004,0c.013-.134.046-.237.082-.334-.038.094-.07.201-.087.335Z" fill="#fbcb00"/><path d="m28.601,24.888c.029-.04.062-.075.099-.104-.036.028-.069.064-.099.104Z" fill="#fbcb00"/><path d="m28.921,24.685c.025-.005.051-.01.078-.012-.027.002-.052.007-.078.012Z" fill="#fbcb00"/><polygon points="28.862 25.361 28.877 25.361 28.999 25.19 28.862 25.361" fill="#fbcb00"/><path d="m24.9,17.09c.082-.037.083-.118.07-.18-.031-.143-.158-.288-.211-.288-.058.033-.069.168-.032.299.024.085.073.175.138.177.007,0,.013.006.02.005l.015-.013Z" fill="#fbcb00"/><path d="m26.288,16.556c-.004-.009-.008-.018-.011-.028h-.011c.008.011.015.017.022.028Z" fill="#fbcb00"/><path d="m25.875,16.992c-.048-.042-.082-.081-.114-.119-.187-.192-.156-.341-.154-.348.004.004.013.008.018.012,0,0,0-.006,0-.006.016.019.05.036.072.055.242.17.689.314.867.25l-.008-.006-.046-.009c-.174-.128-.215-.158-.262-.309l.02-.003s0-.001-.001-.003c.003,0,.006,0,.01.001l.068-.011c.227.03.476.047.697-.017l-2.153-.032c.048.035.099.077.157.127.211.181.497.425.828.417Z" fill="#fbcb00"/><path d="m27.146,16.48h-.05c-.033.016-.067.031-.101.042.051-.011.103-.021.151-.042Z" fill="#fbcb00"/><polygon points="25.622 16.557 25.622 16.557 25.622 16.557 25.622 16.557" fill="#fbcb00"/><path d="m25.896,17.014c-.006-.005-.007-.009-.013-.014-.015.002-.03.003-.046.004.02,0,.038.011.059.01Z" fill="#fbcb00"/><path d="m26.589,16.854c-.006-.005-.009-.007-.015-.011-.032.014-.075.018-.118.021.048,0,.102.004.134-.01Z" fill="#fbcb00"/><path d="m25.694,18.711l-.014.02c.003.008.007.016.009.034.003-.031.005-.054.005-.054Z" fill="#fbcb00"/><path d="m25.322,18.888l-.002.028c.019.029.04.062.063.101-.035-.072-.061-.128-.061-.128Z" fill="#fbcb00"/><path d="m25.31,19.077l.006.175.097-.138c-.044-.082-.077-.146-.093-.183l-.01.146Z" fill="#fbcb00"/><path d="m25.761,19.491s-.001-.007-.002-.011c-.024-.002-.048-.024-.071-.038.025.017.05.048.074.049Z" fill="#fbcb00"/><path d="m25.756,19.467c-.009-.033-.012-.062-.019-.094-.084-.306-.075-.554-.067-.629l-.242.346c.105.173.231.366.328.378Z" fill="#fbcb00"/><path d="m26.31,18.821s0,.021,0,.029c.007.01.015.021.027.042-.014-.036-.026-.072-.026-.072Z" fill="#fbcb00"/><path d="m26.892,19.005l.048.01c-.032-.047-.065-.096-.089-.135.014.033.027.085.042.125Z" fill="#fbcb00"/><path d="m26.783,18.728s.014.033.026.065c.022.029.05.067.075.102-.06-.095-.101-.167-.101-.167Z" fill="#fbcb00"/><polygon points="26.312 18.889 26.314 18.889 26.31 18.882 26.312 18.889" fill="#fbcb00"/><path d="m26.977,19.575s0-.006,0-.008c-.029-.01-.051-.028-.078-.04.029.014.048.037.079.048Z" fill="#fbcb00"/><path d="m26.664,19.383s-.003-.003-.004-.004c.001.001.002.002.004.004Z" fill="#fbcb00"/><path d="m26.639,19.584s-.002-.003-.004-.005c-.003.003-.006.003-.01.006.004-.002.009.001.013-.001Z" fill="#fbcb00"/><path d="m26.979,19.023c.151.204.324.423.43.431.109-.152.064-.321.064-.323,0,0,0,0,.001,0,.008,0,.017.012.024.026-.003-.02-.006-.031-.006-.031l-.034-.007-.054-.011-.425-.085Z" fill="#fbcb00"/><path d="m26.547,19.576c.031.008.056.004.079-.009-.016-.015-.023-.031-.037-.046-.251-.232-.296-.514-.299-.636l-.376-.075c.043.077.397.704.633.767Z" fill="#fbcb00"/><path d="m26.976,19.551c.002-.036-.004-.077-.007-.117-.018-.144-.058-.299-.105-.435l-.527-.105c.08.151.261.517.639.657Z" fill="#fbcb00"/><path d="m26.251,17.6s.004.018.01.042c.036.044.073.091.111.141-.069-.104-.122-.183-.122-.183Z" fill="#fbcb00"/><polygon points="25.862 18.634 25.864 18.615 25.71 18.44 25.862 18.634" fill="#fbcb00"/><path d="m26.825,17.592s0,.017-.001.041c.035.079.071.157.107.236-.061-.155-.106-.277-.106-.277Z" fill="#fbcb00"/><path d="m27.322,18.589c.029-.002.05-.012.063-.029.025-.034.012-.089.012-.09.011-.003.016.011.023.021-.001-.015-.003-.025-.003-.025l-.209-.033c.051.091.095.159.115.157Z" fill="#fbcb00"/><polygon points="25.888 18.359 25.893 18.223 25.52 18.164 25.865 18.605 25.888 18.359" fill="#fbcb00"/><path d="m26.813,17.943c.003.381-.02.399-.03.404-.017.01-.05.021-.518-.69.005.022.011.047.018.078.065.191.13.496.094.549-.091.021-.363-.187-.458-.262l-.019.202,1.255.199c-.125-.231-.264-.593-.331-.778-.002.064-.005.177-.011.298Z" fill="#fbcb00"/><polygon points="25.9 18.233 25.9 18.224 25.9 18.224 25.9 18.233" fill="#fbcb00"/><path d="m25.921,17.999v.01c.021.013.042.026.063.039-.037-.029-.063-.049-.063-.049Z" fill="#fbcb00"/><path d="m26.597,17.142s.001.013.002.019c.027.019.048.037.073.056-.041-.04-.075-.074-.075-.074Z" fill="#fbcb00"/><path d="m26.602,17.213c.006.023.01.046.013.072l.096-.003c-.031-.029-.066-.064-.111-.109.001.012.001.022.002.04Z" fill="#fbcb00"/><path d="m26.107,17.301l-.374.011c.123.089.267.203.336.217.041-.032.046-.13.038-.228Z" fill="#fbcb00"/><path d="m26.582,17.286l-.269.008c.118.08.215.144.246.141.017-.004.023-.069.023-.15Z" fill="#fbcb00"/><path d="m26.869,17.354c-.004-.015-.008-.036-.013-.077l-.099.003c.058.048.1.085.112.093,0-.006,0-.01,0-.019Z" fill="#fbcb00"/><path d="m26.819,16.699c.005.053.015.168.025.288.018.136.029.229.035.29l.545-.017s-.007-.004-.009-.005c-.027.014-.132-.064-.597-.556Z" fill="#fbcb00"/><path d="m26.117,17.202c.01.026.018.058.024.098l.123-.004c-.061-.048-.117-.093-.153-.124.002.01.002.013.005.029Z" fill="#fbcb00"/><path d="m25.609,17.209s.011.023.015.03c.019.012.039.024.062.04-.044-.039-.077-.07-.077-.07Z" fill="#fbcb00"/><path d="m26.816,16.667s.001.011.002.021c.039.034.081.072.124.111-.072-.075-.126-.132-.126-.132Z" fill="#fbcb00"/><path d="m26.107,17.142s.002.015.003.019c.034.022.068.044.101.066-.058-.047-.104-.085-.104-.085Z" fill="#fbcb00"/><path d="m25.661,17.315h.033c-.026-.024-.044-.039-.06-.054.009.018.012.025.027.054Z" fill="#fbcb00"/><path d="m25.711,17.419c-.017-.037-.035-.075-.049-.105h-.012c.022.036.043.073.062.105Z" fill="#fbcb00"/><path d="m25.839,17.801c.009-.031-.089-.26-.2-.486l-.397.012c.259.236.548.474.596.474h0Z" fill="#fbcb00"/><path d="m24.186,17.982l.071.008c.035.039.027.142.016.253l-.004.041c.011-.003.035-.009.058-.015.092-.04.228-.075.394-.075.189,0,.351.043.483.127-.046-.284-.137-.473-.44-.637-.019-.003-.044-.006-.068-.006-.111,0-.188.053-.189.053-.355.003-1.367-.012-1.582-.189.004.013.01.03.018.052.209.419.606.555,1.244.387Z" fill="#fbcb00"/><path d="m22.648,22.604c0-.006.001-.009.002-.014,0,0,0,0-.001-.001,0,.003-.001.012,0,.016Z" fill="#fbcb00"/><path d="m22.782,22.743c.282.341.524.548.755.606.269.091.53-.096.53-.352,0-.271-.418-.718-.597-.898-.158-.19-.257-.433-.353-.668-.186-.458-.361-.884-.928-.79-.005.019-.021.019-.028.034-.007.014-.016.018-.027.032-.021.029-.035.071-.065.079.004.008.007.015.011.023.045.052.079.127.052.187-.017.038-.058.063-.116.08.013.014.023.027.034.04.055.043.085.092.076.136-.003.017-.034.026-.045.04-.003.003-.007.006-.01.009-.021.022-.03.047-.072.064.004.005.007.009.011.013.017.004.035.012.047.026.045.052.08.092.07.14-.008.043-.052.081-.142.126.012.012.019.026.029.038.197.186.262.458.282.552-.006.086-.032.118-.083.181-.038.047-.092.113-.167.222.072.071.422.225.496.158.067-.037.085-.203.087-.264.006.008.012.014.019.023,0-.009.001-.022.001-.022.037.056.083.12.131.185Z" fill="#fbcb00"/><polygon points="22.005 21.062 22.006 21.063 22.009 21.06 22.005 21.062" fill="#fbcb00"/><path d="m21.975,21.654s0,0,0,.001c.004-.003.006-.005.009-.008-.005.002-.005.004-.01.007Z" fill="#fbcb00"/><path d="m21.775,14.733c-.013.026-.026.053-.038.081-.016.034-.032.073-.047.112-.422,1.102-.629,3.621-.718,4.703-.027.326-.044.541-.057.601.067.009.249.042.433.042.141,0,.338-.019.478-.111-.085-.777-.074-5.168.202-5.717-.091.047-.175.144-.252.289Z" fill="#fbcb00"/><path d="m22.056,14.421c-.006.002-.012.011-.018.014-.026.061-.051.16-.072.303.027-.156.057-.268.091-.317Z" fill="#fbcb00"/><path d="m21.922,23.397c-.198-.064-.32-.09-.326-.25.067-.164.154-.385-.057-.617.249.058.864.029.586-.443-.01-.029-.259-.058-.432.212-.172-.273-.345-.248-.634.02-.16-.119-.032-.248-.432-.27-.317.096-.201.684.653.491.019,0-.336.222-.087.56-.029.199-.163.331-.365.308.164-.154.173-.608-.269-.414-.518.732.711.559.711.559.016.318-.237.212-.326.433.099.083.218.148.298.049,0,0,.019.211.163.298.173-.077.077-.347.077-.347.163.065.268.052.336-.038-.051-.164-.16-.203-.317-.232-.003-.051-.006-.102-.01-.154,1.921.147.01-1.334.432-.164Z" fill="#fbcb00"/><path d="m22.364,20.158c.029-.35-.624-.449-.384.01-.217.169-.703.24-1.034.091-.023-.01-.036-.034-.058-.047-.074-.044-.15-.086-.196-.159.368-.361-.407-.402-.48-.068-.083.71,2.071.793,2.151.173Z" fill="#fbcb00"/><path d="m33.743,26.867s.005.011.008.016c.016.006.043.009.061.015-.022-.011-.052-.018-.069-.031Z" fill="#fbcb00"/><path d="m34.05,27.465c.201.439.429.936.575,1.095.189.168.732.143.875-.047.002,0,.012.01.016.012h0c.06.035.347.329.48.435.068-.028.111-.094.111-.094-.036-.017-.078-.054-.121-.091-.114-.099-.231-.2-.3-.406.134-.194.215-.544.122-.824-.247-.414-.87-.468-1.372-.511-.296-.025-.546-.052-.68-.141.021.041.044.086.068.135.076.124.15.271.227.439Z" fill="#fbcb00"/><path d="m17.706,11.199c.113.098.231.2.299.406-.134.194-.214.544-.121.824.246.413.87.467,1.371.511.265.023.5.043.642.112-.075-.146-.164-.341-.257-.546-.201-.438-.428-.935-.574-1.092-.189-.169-.732-.144-.875.045-.002,0-.012-.01-.016-.012h0c-.061-.036-.361-.343-.488-.44-.055.028-.102.1-.103.101.036.018.079.054.122.092Z" fill="#fbcb00"/><path d="m19.212,27.112c-.436.201-.93.429-1.087.575-.091.103-.138.3-.119.501.016.17.078.311.165.378,0,.002-.01.012-.012.016h0c-.036.062-.341.363-.439.49.021.041.066.078.088.094.037-.036.071-.075.105-.114.098-.114.199-.231.403-.3.217.147.576.204.82.122.412-.247.466-.873.509-1.376.026-.297.052-.549.141-.684-.041.021-.086.044-.135.069-.124.076-.271.151-.439.229Z" fill="#fbcb00"/><path d="m19.795,26.81c-.007.016-.009.043-.015.062.011-.022.018-.052.031-.07-.005.002-.011.006-.016.008Z" fill="#fbcb00"/><path d="m34.659,11.415c-.145.157-.372.653-.573,1.091-.094.205-.183.399-.257.546.142-.069.377-.089.643-.112.501-.043,1.124-.097,1.372-.514.091-.277.011-.626-.12-.802.065-.224.182-.326.296-.424.042-.036.083-.071.12-.112-.013-.002-.057-.057-.119-.078-.116.101-.453.448-.456.452-.108-.105-.29-.171-.494-.171-.171,0-.325.047-.412.125Z" fill="#fbcb00"/><polygon points="35.575 11.422 35.564 11.433 35.566 11.435 35.575 11.422" fill="#fbcb00"/><path d="m21.237,20.931c.392,0,.667-.071.677-.138,0-.018-.004-.032-.013-.042-.029-.03-.131-.018-.26.002-.101.016-.22.035-.345.035-.147-.001-.275-.023-.386-.042-.084-.014-.158-.027-.218-.027-.058,0-.096.013-.117.04.002.009.007.027.022.043.068.078.307.127.624.129l.015.02s0,0,0,0v-.019Z" fill="#fbcb00"/><path d="m21.93,20.723c-.043-.044-.145-.033-.295-.01-.099.016-.216.035-.347.035h0c-.135-.002-.261-.023-.37-.042-.188-.032-.315-.051-.377.038-.004.031.005.059.028.085.113.13.529.142.654.142h.016c.238,0,.695-.036.717-.174,0-.031-.007-.056-.024-.074Zm-.693.228l-.015-.02c-.317-.002-.556-.051-.624-.129-.015-.017-.02-.034-.022-.043.021-.027.058-.04.117-.04.059,0,.133.013.218.027.111.019.239.041.386.042.125,0,.244-.019.345-.035.129-.02.231-.032.26-.002.009.01.014.024.013.042-.011.066-.285.138-.677.138v.019h0s0,0,0,0Z" fill="#fbcb00"/><path d="m21.484,21.137c-.087.014-.179.028-.265.03-.103.015-.221-.018-.313-.034-.074-.013-.143-.026-.198-.026-.056,0-.089.013-.105.041.006.078.212.13.616.143h.058c.276,0,.527-.059.571-.136-.029-.045-.178-.048-.364-.019Z" fill="#fbcb00"/><path d="m21.478,21.097c-.085.013-.175.027-.279.03-.096,0-.195-.018-.285-.034-.077-.014-.148-.027-.205-.027-.045,0-.109.006-.142.072.005.152.351.183.652.193h.059c.248,0,.544-.048.607-.172-.027-.078-.112-.087-.174-.087-.066,0-.147.012-.232.026Zm-.2.195h-.058c-.404-.014-.611-.066-.616-.144.016-.028.049-.041.105-.041.055,0,.123.012.198.026.092.017.21.049.313.034.086-.002.177-.016.265-.03.187-.029.335-.027.364.019-.044.077-.295.136-.571.136Z" fill="#fbcb00"/><path d="m21.23,21.642c.275,0,.627-.106.629-.19-.002-.006-.143-.007-.309.019-.107.017-.222.035-.32.038-.139-.005-.225-.012-.31-.023-.064-.009-.12-.016-.162-.016-.038,0-.057.006-.057.019.059.098.289.152.522.153l.006.02h0v-.02Z" fill="#fbcb00"/><path d="m21.197,21.47c-.092,0-.188-.012-.271-.024-.066-.009-.124-.016-.167-.016-.024,0-.097,0-.097.054-.005.021,0,.043.016.062.067.086.331.134.545.135,0,0,.007,0,.007,0,.261,0,.666-.099.669-.234-.009-.047-.076-.047-.101-.047-.063,0-.154.014-.253.03-.105.017-.219.035-.347.039Zm.033.191l-.006-.02c-.233-.001-.463-.055-.522-.153,0-.012.019-.019.057-.019.042,0,.098.008.162.016.085.011.17.019.31.023.098-.003.213-.021.32-.038.166-.026.307-.026.309-.019-.002.083-.354.19-.629.19v.02h0s0,0,0,0Z" fill="#fbcb00"/><path d="m21.298,21.937c.303-.023.577-.116.598-.202-.079.005-.155.02-.244.037-.112.021-.244.047-.365.053-.041.002-.084.003-.128.003l-.307-.005c-.106,0-.167.008-.181.023.01.048.169.098.452.098.058,0,.117-.002.175-.007Z" fill="#fbcb00"/><path d="m21.301,21.977c.285-.021.605-.111.634-.241-.008-.037-.055-.037-.071-.037-.049,0-.128.015-.22.033-.11.021-.24.046-.359.052-.04.002-.083.002-.126.002l-.307-.005c-.127,0-.186.01-.221.071.028.121.384.131.493.131.059,0,.119-.002.178-.007Zm-.449-.155l.307.005c.044,0,.087,0,.128-.003.121-.006.253-.031.365-.053.089-.017.165-.032.244-.037-.021.087-.295.179-.598.202-.057.004-.117.007-.175.007-.283,0-.442-.05-.452-.098.014-.015.075-.023.181-.023Z" fill="#fbcb00"/></g></g></svg>