<?xml version="1.0" encoding="UTF-8"?><svg id="a" xmlns="http://www.w3.org/2000/svg" viewBox="0 0 40 40"><rect x="2" y="8" width="36" height="24" rx="4" ry="4" fill="#2b317d"/><rect x="2" y="19" width="36" height="2" fill="#fcc200"/><polygon points="9.825 29.001 9.302 26.932 7.806 28.464 8.398 26.414 6.329 27 7.875 25.518 5.788 25 7.875 24.482 6.329 23 8.398 23.586 7.806 21.536 9.302 23.068 9.825 21 10.347 23.068 11.843 21.536 11.252 23.586 13.321 23 11.774 24.482 13.861 25 11.774 25.518 13.321 27 11.252 26.414 11.843 28.464 10.347 26.932 9.825 29.001" fill="#e3e7ea"/></svg>