<svg id="Layer_1" data-name="Layer 1" xmlns="http://www.w3.org/2000/svg" xmlns:xlink="http://www.w3.org/1999/xlink" viewBox="0 0 40 40"><defs><style>.cls-1{fill:none;}.cls-2{clip-path:url(#clip-path);}.cls-3{fill:#231e60;}.cls-4{fill:#ab1e2f;}.cls-5{fill:#e5e8eb;}.cls-5,.cls-7,.cls-8{fill-rule:evenodd;}.cls-6{clip-path:url(#clip-path-2);}.cls-7{fill:#8f391e;}.cls-8{fill:#f2bf31;}</style><clipPath id="clip-path"><rect id="SVGID" class="cls-1" x="1.364" y="9.034" width="37.273" height="21.932" rx="4"/></clipPath><clipPath id="clip-path-2"><rect id="SVGID-2" data-name="SVGID" class="cls-1" x="1.364" y="9.034" width="37.273" height="21.932"/></clipPath></defs><g class="cls-2"><rect class="cls-3" x="1.364" y="9.034" width="37.273" height="21.932"/><polygon class="cls-4" points="38.636 9.034 1.364 19.999 1.364 19.999 38.636 30.966 38.636 9.034"/><polygon class="cls-5" points="38.636 10.208 38.636 29.791 5.357 19.999 38.636 10.208"/><g class="cls-6"><path class="cls-7" d="M31.333,22.458s-.272-.224.05-.585c-.174-.149-.014-.435-.014-.435s-.295-.112.014-.573c-.224-.149-.125-.486-.125-.486s-.728-.273-.037-.535c-.567.249-1.1-.336-1.1-.336l-.827.025c-.14-.693-1.229-.091-.42-2.079a.792.792,0,0,0-.679.075c-.233.174-.9.548-1.295.174s.259-.908.272-.921.877-.46,1-.759c-.012-.224-.285-.4-.038-.884.285-.46,2.024-.895,2.814-1.045a1.255,1.255,0,0,0,.555-.511l.087.324s1.752-.523,1.838-.772.038.224.038.224c.69-.062,1.567-.66,1.69-.386a11.143,11.143,0,0,0,1.691-.61s.382-.011.111.412a.4.4,0,0,1-.063.509.427.427,0,0,1-.147.423.442.442,0,0,1-.136.424s.1.286-.3.435a.267.267,0,0,1-.222.3.409.409,0,0,1-.136.374.366.366,0,0,1-.2.3s.123.076-.049.2-1.963,1.233-1.963,1.221,1.308.236,1.4.285,1.072.71,1.072.71l-1,1.244a6.965,6.965,0,0,0-1.159-.062c-.05.062.233.088.3.187s.161.336.357.312-.37.361-.74.4c0,.137.469.149.593.037s-.3.324-.346.386.556-.087.556-.087a.806.806,0,0,1-.63.536c.21.347.124.572.112.572s-.347-.348-.667-.287a1.568,1.568,0,0,0,.419.7c.074.05-.58.037-.666-.15s-.161.449.074.648a.927.927,0,0,1-.506-.15s-.16.374-.049.561-.383-.374-.383-.374l-.937.4Z"/><path d="M32.876,22.87c-.019,0-.052,0-.424-.424l-.895.408a.034.034,0,0,1-.046-.016l-.21-.361h0a.352.352,0,0,1-.112-.235.524.524,0,0,1,.142-.368.4.4,0,0,1-.011-.422.247.247,0,0,1-.1-.136.546.546,0,0,1,.114-.442.489.489,0,0,1-.118-.473c-.09-.038-.325-.152-.328-.308a.2.2,0,0,1,.077-.151,1.3,1.3,0,0,1-.868-.41l-.8.037c-.02,0-.035-.012-.038-.03a.546.546,0,0,0-.332-.379c-.31-.178-.63-.361-.1-1.678l-.01,0a.751.751,0,0,0-.594.079,1.68,1.68,0,0,1-.891.341.638.638,0,0,1-.453-.171.407.407,0,0,1-.138-.314,1.09,1.09,0,0,1,.409-.659c.006-.007.009-.008.057-.035.689-.386.889-.6.935-.713a.758.758,0,0,0-.06-.169.723.723,0,0,1,.024-.718c.364-.59,2.815-1.06,2.84-1.065a1.221,1.221,0,0,0,.529-.491.035.035,0,0,1,.037-.02.036.036,0,0,1,.032.027l.077.287a5.845,5.845,0,0,0,1.777-.738c.023-.064.04-.1.074-.1.039.024.063.05.041.292a3.967,3.967,0,0,0,.894-.27c.382-.149.68-.248.772-.117a11.575,11.575,0,0,0,1.658-.6.256.256,0,0,1,.239.1c.046.084.018.206-.082.362a.363.363,0,0,1,.014.41.4.4,0,0,1-.07.1.439.439,0,0,1-.142.421.479.479,0,0,1-.151.433c.019.006.083.282-.284.435a.293.293,0,0,1-.223.3.416.416,0,0,1-.156.378.315.315,0,0,1-.156.274.116.116,0,0,1,.02.061c0,.054-.034.108-.108.161-.127.092-1.489.94-1.871,1.168.314.053,1.221.23,1.3.275s1.035.684,1.075.711a.038.038,0,0,1,.008.055l-1,1.244c-.039.011-.744-.065-1.048-.065a.79.79,0,0,0-.09,0,.285.285,0,0,1,.071.021.4.4,0,0,1,.207.121l.028.049c.057.1.163.251.282.246.077,0,.092.025.093.046.005.1-.454.362-.758.418a.7.7,0,0,0,.508-.02.163.163,0,0,1,.047-.028c.046.05.046.05-.162.273-.049.052-.1.1-.131.141.159-.019.468-.095.472-.1a.039.039,0,0,1,.035.01.04.04,0,0,1,.01.036.825.825,0,0,1-.608.551.656.656,0,0,1,.091.561.052.052,0,0,1-.037.025.19.19,0,0,1-.051-.03.862.862,0,0,0-.569-.263,1.545,1.545,0,0,0,.393.634.059.059,0,0,1,.021.052c-.009.028-.035.043-.146.043-.14,0-.521-.035-.6-.2a1.092,1.092,0,0,0-.01.226.583.583,0,0,0,.143.377.039.039,0,0,1,.011.041.038.038,0,0,1-.034.026h0a1.007,1.007,0,0,1-.487-.132c-.036.1-.116.351-.036.485a.146.146,0,0,1,.016.075l-.034.02ZM31.188,19.9h0c-.148.062-.227.129-.225.194,0,.11.23.221.31.251a.038.038,0,0,1,.023.046s-.088.312.109.444a.04.04,0,0,1,.016.024.038.038,0,0,1-.006.029.523.523,0,0,0-.124.408.183.183,0,0,0,.093.108.04.04,0,0,1,.022.022.037.037,0,0,1,0,.031s-.143.261,0,.389a.036.036,0,0,1,.013.026.037.037,0,0,1-.01.028.47.47,0,0,0-.146.338.293.293,0,0,0,.093.192l.2.343.908-.385c.135.127.263.258.343.337a.923.923,0,0,1,.069-.5A.036.036,0,0,1,32.9,22.2a.038.038,0,0,1,.031,0,.922.922,0,0,0,.4.142.846.846,0,0,1-.085-.62c.035-.1.119-.028.13-.005.046.1.336.153.528.153h.033a1.7,1.7,0,0,1-.384-.675.035.035,0,0,1,0-.03.039.039,0,0,1,.025-.017.907.907,0,0,1,.672.274.86.86,0,0,0-.142-.5.037.037,0,0,1,0-.034.038.038,0,0,1,.026-.022.794.794,0,0,0,.579-.446,3.361,3.361,0,0,1-.471.087.1.1,0,0,1-.062-.028.053.053,0,0,1,.007-.049c.02-.025.1-.111.181-.2l.065-.07c-.223.054-.5.018-.5-.132a.038.038,0,0,1,.034-.038,1.54,1.54,0,0,0,.748-.355l-.032.034c-.174,0-.274-.178-.334-.285l-.026-.046a.394.394,0,0,0-.169-.091c-.076-.027-.126-.046-.138-.087a.1.1,0,0,1,.012-.052c.017-.021.049-.032.17-.032.308,0,.994.076,1.024.08l.94-1.2c-.174-.116-.963-.642-1.037-.686s-1.281-.278-1.374-.281a.038.038,0,0,1-.033-.02.033.033,0,0,1,0-.037c.074-.041,1.777-1.091,1.972-1.231.05-.036.077-.071.076-.1a.061.061,0,0,0-.024-.039.036.036,0,0,1-.018-.033.038.038,0,0,1,.02-.033.329.329,0,0,0,.176-.264.425.425,0,0,0,.136-.369.039.039,0,0,1,.03-.042.23.23,0,0,0,.193-.256.038.038,0,0,1,.023-.041c.355-.134.278-.377.274-.388.013-.042.2-.214.137-.425a.037.037,0,0,1,.014-.042.356.356,0,0,0,.132-.362.1.1,0,0,1,.008-.054.368.368,0,0,0,.059-.465c.083-.17.11-.268.079-.326s-.143-.068-.155-.068a10.58,10.58,0,0,1-1.687.609.038.038,0,0,1-.041-.022c-.01-.021-.031-.049-.105-.049a2.144,2.144,0,0,0-.588.178,3.753,3.753,0,0,1-.96.28.036.036,0,0,1-.03-.011.037.037,0,0,1-.01-.03c.006-.057.01-.12.012-.171a7.212,7.212,0,0,1-1.84.758.036.036,0,0,1-.029,0,.038.038,0,0,1-.018-.023l-.064-.24a1.3,1.3,0,0,1-.527.451c-.989.189-2.54.616-2.8,1.031a.647.647,0,0,0-.02.65.637.637,0,0,1,.063.212c-.078.2-.394.444-.971.767l-.044.025a1,1,0,0,0-.383.605.331.331,0,0,0,.114.257.565.565,0,0,0,.4.151,1.662,1.662,0,0,0,.846-.327.83.83,0,0,1,.652-.092l.056.01a.038.038,0,0,1,.026.019.036.036,0,0,1,0,.032c-.527,1.3-.245,1.456.053,1.627a.626.626,0,0,1,.361.4l.8-.024a1.364,1.364,0,0,0,.807.4.707.707,0,0,0,.232-.04l.047-.019a.038.038,0,0,1,.048.021.039.039,0,0,1-.02.049l-.048.019Z"/><path class="cls-8" d="M24.085,21.718a5.4,5.4,0,0,0,1.978-.378,3.647,3.647,0,0,0,.725.821l.2-.71s.482.022.527.134a1.133,1.133,0,0,0-.088.31s.329.022.352.066a2.078,2.078,0,0,1-.089.421l1.407.333s.109-.554.22-.488.593.753,1.274.8a.635.635,0,0,0,.725-.577l.154.089a4.248,4.248,0,0,1,.33-.621,1.037,1.037,0,0,0,.483.088,1.144,1.144,0,0,1,.153.444s-.416.422-.284.754.152.244.152.244l3.034.731a.254.254,0,0,1-.111.376c0,.022-3.054-.709-3.054-.709s-.285.333-.5.266-.066.133-.066.133l3.3.266s.242.311.066.4c-.219.023-3.56-.221-3.56-.221s-.2.421-.418.067c-.153.243-.33-.067-.33-.067s-.284.221-.329-.022c-.241.177-.4-.112-.4-.112l-1.4-.088-.088.133s.241.067-.132.222,2.241.088,2.307.111-.175.221-.175.221,1.339.09,1.582-.2-.089.376-.089.376a8.724,8.724,0,0,0,1.055-.087c0-.046-.023.332-.748.287a4.805,4.805,0,0,0,.989.466,2.776,2.776,0,0,1-1.186-.022c.111.288.593.554.593.554s-.351.31-1.142-.444c.219.4.044.554.021.51a2.029,2.029,0,0,0-1.273-.8c.548.353.307.509.307.509s-.286-.509-.748,0c-.175-.465-.856-.731-1.691-.776-.263-.31-.418-.221-1.033-.4a11.134,11.134,0,0,0-.858-.843.537.537,0,0,1,.616-.531c.066.2.066.133.066.133s.659-.244.857.088c.286-.509.682-.075.748.1.188.029,1.143.055,1.143.055s-.111-.2-.045-.178.593-.2.572-.266-.045-.288.044-.266a2.08,2.08,0,0,0-1.21.244c-.152-.155-.043-.576-.043-.576L27.6,22.8l-.066.355s-.4.066-.373-.023-.088.311-.088.311a5.013,5.013,0,0,1-.528-.155c0-.023.155-.8.155-.777a2.746,2.746,0,0,0-1.055.511c-.175-.554-1.56-1.287-1.56-1.308Z"/><path d="M31.524,26.639H31.5l-.021-.027a1.928,1.928,0,0,0-1.051-.725.458.458,0,0,1,.208.313.169.169,0,0,1-.07.139l-.033.021-.02-.034a.43.43,0,0,0-.284-.206.5.5,0,0,0-.4.213l-.041.045-.022-.057c-.159-.424-.779-.705-1.658-.752a.823.823,0,0,0-.575-.29c-.121-.024-.271-.054-.467-.111a11.924,11.924,0,0,0-.871-.85.6.6,0,0,1,.192-.48.57.57,0,0,1,.452-.117c.047.092.067.129.075.143.161-.068.634-.2.842.047A.376.376,0,0,1,28.1,23.7a.612.612,0,0,1,.44.364l1.045.028c-.06-.122-.038-.148-.029-.16l.016-.02.042.006a1.462,1.462,0,0,0,.526-.233.442.442,0,0,1-.013-.228,1.646,1.646,0,0,0-1.095.239l-.026.02L28.98,23.7c-.139-.142-.086-.463-.062-.574l-1.289-.272-.058.317a.817.817,0,0,1-.393.041l-.069.25-.01.035-.035-.009c-.556-.14-.556-.156-.556-.191,0-.014.026-.15.076-.405.032-.159.051-.256.065-.316a2.559,2.559,0,0,0-.982.485l-.042.032-.016-.051c-.139-.44-1.106-1.021-1.423-1.211-.138-.083-.138-.083-.138-.108V21.68h.037a5.4,5.4,0,0,0,1.959-.373l.031-.018.019.031a3.64,3.64,0,0,0,.674.775l.19-.683.029,0c.119,0,.51.032.561.156a1.486,1.486,0,0,0-.08.29c.312.024.334.069.342.084a1.068,1.068,0,0,1-.075.41l1.331.316c.029-.138.1-.435.2-.479l.018-.008.05.012a.792.792,0,0,1,.125.119,1.884,1.884,0,0,0,1.132.674.591.591,0,0,0,.685-.542l0-.059.17.1c.281-.606.32-.606.347-.606l.057.018a.922.922,0,0,0,.426.071,1.043,1.043,0,0,1,.192.475c-.015.037-.41.441-.289.746.081.2.114.231.117.233l3.044.719a.293.293,0,0,1,.063.263.3.3,0,0,1-.166.184c0,.006-.011.011-.286-.05a.441.441,0,0,1,.1.3.149.149,0,0,1-.081.1c-.23.026-3.382-.2-3.574-.218a.288.288,0,0,1-.225.209.228.228,0,0,1-.2-.115.178.178,0,0,1-.133.066.3.3,0,0,1-.206-.144.33.33,0,0,1-.26.067.141.141,0,0,1-.081-.083.259.259,0,0,1-.186.03.382.382,0,0,1-.22-.183L28.522,24.5l-.036.076a.108.108,0,0,1,.064.083c0,.066-.068.126-.232.193.069.039,1.215.037,1.766.034.418,0,.517,0,.539.007l.021.008.015.032c.007.038-.036.1-.128.184.418.021,1.283.018,1.458-.191.049-.058.092-.1.133-.078s.062.041-.131.439c.423-.019.872-.049.96-.072l.006-.016.064,0v.036a.032.032,0,0,1-.008.025c-.042.1-.179.3-.639.3a5.006,5.006,0,0,0,.863.388l.127.041-.13.031a2.781,2.781,0,0,1-1.127,0,1.73,1.73,0,0,0,.543.467l.047.026-.04.035c-.015.013-.344.29-1.058-.323a.414.414,0,0,1,0,.351.1.1,0,0,1-.076.055Zm-1.485-.926.207.047a2.125,2.125,0,0,1,1.288.8.317.317,0,0,1,.016-.042.535.535,0,0,0-.092-.412l-.117-.213.175.167c.585.558.92.517,1.04.47A1.412,1.412,0,0,1,32,25.988l-.026-.067.069.016a2.836,2.836,0,0,0,1.031.046,4.564,4.564,0,0,1-.862-.421l-.119-.078.142.009c.43.025.6-.1.67-.193-.127.022-.4.043-.978.068l-.064,0,.029-.058c.057-.115.117-.248.149-.333-.255.3-1.556.215-1.612.21l-.094-.006.073-.06a.771.771,0,0,0,.173-.179,2.743,2.743,0,0,1-.5.02c-1.652,0-1.838-.03-1.853-.107-.009-.044.042-.065.059-.072.185-.077.185-.119.185-.12s-.027-.025-.049-.031l-.05-.014.117-.176,1.439.072c.031.021.1.141.2.165a.2.2,0,0,0,.169-.047l.048-.035.011.059c.012.064.039.075.048.078.066.027.185-.051.222-.079l.033-.027.022.038c.022.039.095.14.165.141.04.008.069-.025.1-.075l.032-.051.032.051c.053.085.108.125.159.124.089-.006.17-.137.193-.188.065-.02,3.092.2,3.544.2h.046a.084.084,0,0,0,.028-.047c.02-.088-.08-.24-.12-.292L31.6,24.281c-.054-.049-.112-.135-.075-.189s.1-.032.154-.017c.164.051.392-.167.466-.255h0l.079-.359.016,0a.988.988,0,0,1-.123-.247c-.136-.343.257-.757.292-.793a1.608,1.608,0,0,0-.154-.395.822.822,0,0,1-.429-.064,2.563,2.563,0,0,0-.322.589l-.017.037-.143-.082a.659.659,0,0,1-.756.554,1.943,1.943,0,0,1-1.181-.7.979.979,0,0,0-.109-.107,1.038,1.038,0,0,0-.164.463l-.006.026,0,0-.132.4-.009,0a.746.746,0,0,0,.024.472,1.805,1.805,0,0,1,1.173-.23l0,0,.035,0a.04.04,0,0,1,.035.045l0,.034-.049,0a.351.351,0,0,0,0,.214l.008.022-.032.048a1.37,1.37,0,0,1-.584.246c.025.012.05.07.078.121l.033.058-.066,0c-.039,0-.959-.026-1.148-.055-.068-.127-.231-.325-.4-.339-.115-.006-.217.065-.3.219l-.032.057L27.722,24c-.18-.3-.806-.074-.812-.072-.049.019-.066-.01-.114-.156a.591.591,0,0,0-.364.125.613.613,0,0,0-.179.4,7.26,7.26,0,0,1,.848.817c.175.045.323.074.442.1a.832.832,0,0,1,.592.3,1.871,1.871,0,0,1,1.674.733.535.535,0,0,1,.428-.2.472.472,0,0,1,.312.2.093.093,0,0,0,.012-.047c0-.056-.047-.179-.343-.37l-.179-.115Zm2.177-1.876c1.213.27,2.929.676,3.008.68a.233.233,0,0,0,.112-.132A.262.262,0,0,0,35.3,24.2l-2.99-.71L32.3,23.5h0l-.075.342Zm-.623.3-.012,0a.347.347,0,0,0,.048.084l2.916.224c-.445-.1-1.177-.275-2.382-.563.018.008-.269.337-.508.265a.213.213,0,0,0-.062-.012Zm-5-.842c.045,0,.255.057.456.108.026-.092.045-.159.059-.206h0l.281-1.265h0l.006-.04a1.174,1.174,0,0,1,.092-.322,1.7,1.7,0,0,0-.466-.077l-.2.735-.044-.035a3.754,3.754,0,0,1-.715-.8,5.157,5.157,0,0,1-1.842.361l.016.01c.345.207,1.244.747,1.438,1.205a2.608,2.608,0,0,1,.972-.469l.042-.011a.025.025,0,0,1,.024-.009h.037v.038a.059.059,0,0,1,0,.02c-.021.086-.147.722-.151.759Zm.611-.2.008,0-.012.049a1.437,1.437,0,0,0,.331-.024l.042-.362h0l.073-.349-.007,0,.011-.038a2.181,2.181,0,0,0,.09-.4,1.918,1.918,0,0,0-.283-.039L27.2,23.094Zm.447-.318,1.3.275.1-.307-1.332-.316-.073.348Zm4.209,3.241h-.075c-.006-.031-.114-.137-.972-.443-.114-.041-.118-.042-.108-.078l.05-.025a5.8,5.8,0,0,0,.68-.056l.1-.011v.075l-.094.011c-.2.024-.373.042-.5.052.754.274.913.389.913.475Zm-1.573-.389a4.557,4.557,0,0,0-.679-.379.451.451,0,0,1-.114-.007l-.026-.038.034-.042a.188.188,0,0,1,.114.012,2.662,2.662,0,0,0,.62-.092l.052.054a1.5,1.5,0,0,1-.518.1,5.551,5.551,0,0,1,.557.326l-.04.063Zm-1.359-.1a2.174,2.174,0,0,1-.707-.384l-.078-.052a.093.093,0,0,1-.039-.021l-.024-.024.017-.032c.018-.022.022-.027.083.012a3.923,3.923,0,0,0,.719.024l0,.076c-.136,0-.392.009-.579-.006.357.236.565.348.61.331l.023.072a.1.1,0,0,1-.027,0ZM27.592,25.1a1.091,1.091,0,0,1-.67-.417c-.031-.036-.063-.071-.095-.1l-.09-.091.125.028c.131.029.372.114.531.171.076.027.132.047.146.05l-.005.075a.814.814,0,0,1-.166-.054c-.115-.041-.272-.1-.4-.135l.009.01a1.014,1.014,0,0,0,.629.393l-.015.074Zm.091-.589a2.267,2.267,0,0,0-.237-.1c-.451-.176-.652-.271-.652-.368v-.052l.049.016a1.308,1.308,0,0,0,.726.088l.019.073a1.155,1.155,0,0,1-.6-.038c.139.074.369.164.489.211.228.089.258.1.271.129l-.061.041Z"/><path class="cls-8" d="M25.8,19.9s-.923.8,0,1.264c.044-.311.109-.355.109-.355a1.057,1.057,0,0,0,1.23-.4.5.5,0,0,0-.548-.177s-.725,0-.791-.332Z"/><path d="M31.015,24.782l-.032-.067a1.094,1.094,0,0,0,.077-.417h0c-.016-.031-.072-.139-.106-.2l-.174.217c0,.1-.026.377-.109.42l-.035-.067a.894.894,0,0,0,.077-.379l0-.005h0c0-.02-.045-.136-.068-.2-.093.057-.2.14-.215.191a1.2,1.2,0,0,0-.021.124c-.023.171-.042.276-.1.3l-.028-.07a.781.781,0,0,0,.055-.24c.007-.053.014-.1.022-.133a.152.152,0,0,1,.018-.042l-.019,0a.349.349,0,0,0-.015-.183.832.832,0,0,0-.379.55l-.075,0a.679.679,0,0,1,.138-.342l-.388-.059.011-.075.429.066a.561.561,0,0,1,.267-.211h.017l.036.025a.274.274,0,0,1,.038.166,1.162,1.162,0,0,1,.212-.149l.038-.021.015.041c.036.1.057.161.07.2l.143-.187a.28.28,0,0,1-.094-.049.156.156,0,0,1-.058-.1.32.32,0,0,1-.265-.07.3.3,0,0,1-.061-.076l-.249.013,0-.075.221-.012a.568.568,0,0,1-.024-.19.824.824,0,0,0-.164,0l0,0v.014l-.049-.049c0-.039.005-.048.3-.038a.268.268,0,0,0,.21-.074A.5.5,0,0,0,30.789,23l.075,0a.574.574,0,0,1-.131.377.339.339,0,0,1-.266.1h-.012a.387.387,0,0,0,.093.282.3.3,0,0,0,.271.043.771.771,0,0,0,.351-.622.574.574,0,0,1,.015-.1c.025-.075-.086-.113-.087-.114l.024-.071a.211.211,0,0,1,.14.134.31.31,0,0,1,.253-.031.181.181,0,0,1,.095.131.286.286,0,0,1,.225-.052.19.19,0,0,1,.116.123.231.231,0,0,1,.233.025l-.048.058a.16.16,0,0,0-.166-.009,1.341,1.341,0,0,1-.221.75c-.048.073-.09.11-.129.115l-.008-.075c.008,0,.039-.023.089-.1a1.179,1.179,0,0,0,.188-.71.136.136,0,0,0-.077-.1c-.066-.022-.155.036-.185.059l-.008-.01a1.15,1.15,0,0,1-.374.792l.01-.005c.064.14.255.125.291.117l.018.073a.434.434,0,0,1-.239-.025l.075.111.219-.02.006.075-.219.02.026.348-.075,0-.025-.411-.065-.082-.143.144c0,.137-.026.415-.109.455Zm0-.741.1.2.136-.147a.248.248,0,0,1-.061-.082l0,0a.424.424,0,0,1-.175.029Zm-.042-.08a.352.352,0,0,0,.189-.019,1.028,1.028,0,0,0,.383-.781.13.13,0,0,0-.059-.107.248.248,0,0,0-.194.034l-.025-.042a.131.131,0,0,1-.008.046.466.466,0,0,0-.011.084.857.857,0,0,1-.4.683l-.012,0a.077.077,0,0,0,.032.057.223.223,0,0,0,.1.042l0,0,0,0Zm-2.394.526-.062-.042a.259.259,0,0,0-.012-.316l.056-.051a.337.337,0,0,1,.018.409Zm-2.747-3.266-.047-.024a.681.681,0,0,1-.427-.5c-.05-.411.4-.8.42-.822l.048-.042.013.063c.049.248.561.3.754.3a.535.535,0,0,1,.579.194,1.078,1.078,0,0,1-1.263.46,3.2,3.2,0,0,0-.07.321l-.007.052Zm-.047-1.253a1.007,1.007,0,0,0-.352.716.583.583,0,0,0,.34.422c.042-.259.1-.317.118-.329l.02,0,0,0,.592-.515c-.2-.011-.611-.065-.716-.3ZM26,20.8a1.009,1.009,0,0,0,1.112-.414.506.506,0,0,0-.506-.12h-.022l.013.015L26,20.8Z"/><path class="cls-5" d="M25.829,19.906h0a.7.7,0,0,0,.161-.273c.037-.15-.05-.312.1-.448s2.1-.971,2.258-1.133a4.977,4.977,0,0,0,.494-.586c.036-.074.149.375-.186.573.359-.1.594-.212.74-.161-.146.211-.542.559-.728.559.433-.161.828-.3.938-.212s-.53.523-.789.548c.433-.111,1.012-.285,1.086-.1-.234.074-.16.137-.641.411a1.216,1.216,0,0,1-.37.062c.37-.037.874-.187.924.087-.3.112-.406.262-.653.324a10.385,10.385,0,0,0-1.16.311,4.609,4.609,0,0,0-.852.535s-1.1.038-1.1.025-.21-.509-.222-.523Z"/><path d="M26.116,20.47c-.072,0-.1,0-.1-.041s-.2-.472-.215-.5a.033.033,0,0,1,0-.047.655.655,0,0,0,.151-.257.507.507,0,0,0,.008-.147.362.362,0,0,1,.1-.319,8.835,8.835,0,0,1,1.042-.521,10.611,10.611,0,0,0,1.214-.611,5.016,5.016,0,0,0,.488-.576.063.063,0,0,1,.042-.029c.043,0,.057.055.062.073a.547.547,0,0,1-.1.461l.108-.034a.91.91,0,0,1,.489-.078.038.038,0,0,1,.024.024.035.035,0,0,1,0,.033,1.989,1.989,0,0,1-.334.349c.246-.078.454-.117.536-.052a.134.134,0,0,1,.027.07c-.014.09-.193.236-.385.353.34-.078.614-.093.667.041a.039.039,0,0,1,0,.03.034.034,0,0,1-.022.02.509.509,0,0,0-.212.122,2.251,2.251,0,0,1-.29.208c.038,0,.075,0,.11,0,.073,0,.3,0,.331.193a.038.038,0,0,1-.024.042,1.76,1.76,0,0,0-.321.166,1.123,1.123,0,0,1-.336.159l-.218.051a7.373,7.373,0,0,0-.937.258,4.628,4.628,0,0,0-.843.53c-.022.008-.819.036-1.056.036Zm-.038-.076c.156,0,1.07-.027,1.07-.027a3.912,3.912,0,0,1,.84-.533,7.181,7.181,0,0,1,.947-.261l.217-.051a1.03,1.03,0,0,0,.315-.15,1.924,1.924,0,0,1,.3-.16c-.02-.052-.075-.1-.249-.1a2.083,2.083,0,0,0-.28.026,1.59,1.59,0,0,1-.349.049c-.032,0-.037-.015-.038-.035a.037.037,0,0,1,.033-.041c.075-.007.157-.02.238-.032l.105-.016a2.509,2.509,0,0,0,.423-.288.592.592,0,0,1,.186-.117,1.984,1.984,0,0,0-.877.118.593.593,0,0,1-.143.037c-.017.006-.037-.012-.04-.031a.036.036,0,0,1,.027-.043l.13-.034a1.44,1.44,0,0,0,.645-.451.172.172,0,0,0-.083-.016,2.437,2.437,0,0,0-.621.164.435.435,0,0,1-.21.075.037.037,0,0,1-.036-.031.036.036,0,0,1,.023-.042l.2-.073a2,2,0,0,0,.478-.426,1.477,1.477,0,0,0-.39.089c-.082.026-.174.055-.275.083a.036.036,0,0,1-.044-.022.037.037,0,0,1,.015-.047.425.425,0,0,0,.2-.3.386.386,0,0,0-.01-.223,2.4,2.4,0,0,1-.458.591,9.119,9.119,0,0,1-1.236.626,10.379,10.379,0,0,0-1.022.507.289.289,0,0,0-.078.261.605.605,0,0,1-.01.169.709.709,0,0,1-.154.272c.044.1.169.379.206.48Z"/><path d="M26.385,19.821l-.075,0c0-.011.014-.269.137-.365a1.859,1.859,0,0,1,.234-.127,1.738,1.738,0,0,0,.548-.349c.03-.046.048-.07.079-.052s.022.039-.01.106c-.041.084-.164.341-.138.414l-.07.026a.574.574,0,0,1,.078-.337,2.9,2.9,0,0,1-.454.26l-.08.04a.293.293,0,0,1,.181.334l-.072-.021c.051-.175-.177-.262-.187-.266l0-.009a.309.309,0,0,0-.175.349Z"/><path d="M26.686,19.827a.239.239,0,1,1,.236-.238.237.237,0,0,1-.236.238Zm0-.411a.173.173,0,1,0,.171.173.173.173,0,0,0-.171-.173Z"/><path class="cls-5" d="M35.245,19.147l2.134.411s.234-.274.111-.424c.321-.074.234-.5.234-.5s.37-.162.062-.536a.228.228,0,0,0-.049-.373s.086-.373-.185-.41c.073-.3-.469-.4-.469-.4a10.277,10.277,0,0,1-1.913.335c.259.262-.1.423-.1.423s.21.149.148.274.038.262-.233.349c.358.162-.038.435-.038.435s.4.275.3.411Z"/><path d="M32.873,22.285a1.156,1.156,0,0,1-.219-.98l.073.017a1.1,1.1,0,0,0,.2.911l-.054.052Zm-.585-.194c-.01-.018-.015-.047,0-.284l.078-.034,0,.04a1.755,1.755,0,0,0-.012.246l-.067.032Zm-.511-.14a.571.571,0,0,1-.061-.689c-.113-.226.118-.542.129-.557l.016.011a1.1,1.1,0,0,1,.163-.633c-.037-.051-.076-.11-.117-.172a3.292,3.292,0,0,0-.208-.292c-.139-.16-.685-.22-.763-.223v-.015a.292.292,0,0,1-.146.125l-.678.04,0-.076.666-.037c.016-.008.09-.049.1-.1.005-.028-.011-.06-.049-.095l.051-.056a.2.2,0,0,1,.074.139c.09.008.644.061.8.249a3.116,3.116,0,0,1,.214.3,1.33,1.33,0,0,0,.245.315.085.085,0,0,0,.066.016l.088,0a.108.108,0,0,1-.06.067.151.151,0,0,1-.13-.019.408.408,0,0,1-.1-.1c-.093.173-.241.542-.066.66l-.042.063a.25.25,0,0,1-.081-.091c-.059.093-.216.372-.046.516l-.048.058-.025-.024a.47.47,0,0,0,.062.564l-.05.056Zm1.5-.194a.992.992,0,0,1-.414-.636l.074-.014a.932.932,0,0,0,.374.583l-.034.067ZM31.532,21.6l-.178-.123.042-.062.178.123-.042.062Zm2.021-.408c-.007-.065-.168-.212-.281-.3l.044-.061c.05.037.3.228.312.349l-.075.008Zm-2-.193a.36.36,0,0,1-.215-.11l.053-.053c.027.027.114.1.174.086l.012.075-.024,0Zm2.539-.028a1.426,1.426,0,0,1-.63-.236l.042-.063a1.212,1.212,0,0,0,.651.218l.013.074a.384.384,0,0,1-.076.007Zm-.175-.43a1.518,1.518,0,0,1-.586-.115l.031-.069a1.489,1.489,0,0,0,.865.073l.016.074a1.469,1.469,0,0,1-.326.037ZM31.3,20.458a.112.112,0,0,1-.053-.012l.033-.067c.063.032.3-.119.34-.154l.052.054a.881.881,0,0,1-.372.179Zm2.421-.342a.991.991,0,0,1-.6-.219l.049-.057a.887.887,0,0,0,.78.167l.022.073a.871.871,0,0,1-.249.036Zm3.685-.533-2.229-.41.035-.048a.052.052,0,0,0,.008-.04c-.016-.1-.194-.244-.279-.306l-.01.009a7.46,7.46,0,0,0-.992-.251l.015-.074a9.63,9.63,0,0,1,.971.242c.051-.036.179-.147.171-.241,0-.049-.047-.092-.127-.128v.015l-.664-.025v-.075l.638.023.029-.009c.143-.046.168-.1.178-.168-.1-.16-.8-.175-1.25-.144l-.005-.076a3.039,3.039,0,0,1,1.266.128.273.273,0,0,1,.023-.07c.036-.073-.076-.181-.129-.221l-.014.013a11.038,11.038,0,0,0-1.639-.135l0-.076a12.651,12.651,0,0,1,1.633.134l.016-.007s.148-.068.168-.177a.21.21,0,0,0-.081-.184l-.061-.062.087,0a10.233,10.233,0,0,0,1.9-.334.8.8,0,0,1,.483.247.248.248,0,0,1,.039.158.229.229,0,0,1,.136.095.474.474,0,0,1,.048.323h0l0,.021c.012-.009.115.068.128.181a.248.248,0,0,1-.069.194.408.408,0,0,1,.1.341.358.358,0,0,1-.172.214.439.439,0,0,1-.219.5c.074.172-.13.415-.139.426ZM35.3,19.118l2.091.4c.023-.057.159-.26.075-.362l-.032-.039a.992.992,0,0,0-.42-.172c-.088,0-1.9-.215-1.979-.224v-.007l-.02.018c.085.064.264.213.285.337a.142.142,0,0,1,0,.046Zm-.2-.463c.558.066,1.851.218,1.919.218a.955.955,0,0,1,.5.218c.215-.068.2-.33.186-.418l-2.559-.06V18.6a.4.4,0,0,1-.042.057Zm.2-.114,2.431.057a.289.289,0,0,0,.148-.173.325.325,0,0,0-.076-.257,10.472,10.472,0,0,1-2.5.373Zm-.213-.234a.2.2,0,0,1,.1.15v.016a11.1,11.1,0,0,0,2.572-.362l-.01-.013.024-.024a.194.194,0,0,0,.071-.157.257.257,0,0,0-.112-.157l0-.01c-.106,0-1.525.147-2.474.25a.4.4,0,0,0-.011.071.246.246,0,0,1-.156.236Zm.071-.617a.307.307,0,0,1,.122.232c1.79-.2,2.3-.229,2.447-.23a.464.464,0,0,0-.045-.266.167.167,0,0,0-.122-.071l-.041,0v0c-.269.024-1.516.21-2.361.343Zm.1-.4a.25.25,0,0,1,.05.191.264.264,0,0,1-.061.12c1.561-.247,2.095-.306,2.282-.308a.164.164,0,0,0-.026-.121c-.1-.154-.414-.214-.417-.214a10.217,10.217,0,0,1-1.828.332Zm-1.475,1.944-.02-.073c.2-.054.31-.063.345-.026l-.053.053a.922.922,0,0,0-.272.046Zm-1.326-.165a.574.574,0,0,1-.362-.1l.021-.025a.753.753,0,0,1-.5-.045l0-.01a.693.693,0,0,1-.344.064.814.814,0,0,1-.563-.34l0,0a1.053,1.053,0,0,1-.4-.083.5.5,0,0,1-.3-.272.152.152,0,0,1,.083-.179.124.124,0,0,0,.065-.16c-.037-.274-.583-.362-.846-.405a1.141,1.141,0,0,1-.144-.028,1.034,1.034,0,0,1-.266-.278.845.845,0,0,1,.022.3l-.074-.01c.07-.547-.676-1.38-.683-1.388l.055-.051a3.659,3.659,0,0,1,.63.986l.016-.011a1.624,1.624,0,0,0,.327.384,1.161,1.161,0,0,0,.129.025c.281.045.864.139.908.466a.2.2,0,0,1-.1.236c-.043.028-.064.042-.052.1a.436.436,0,0,0,.253.22,1.122,1.122,0,0,0,.963-.072l.035.067a1.342,1.342,0,0,1-.538.156.731.731,0,0,0,.48.271A.915.915,0,0,0,32,18.5l.055.051a1.477,1.477,0,0,1-.361.3c.148.055.633.166,1.054-.541l.064.039a1.188,1.188,0,0,1-.648.579.9.9,0,0,0,.883-.109l.035.067a1.34,1.34,0,0,1-.631.186Zm.568-1.57-.062-.043a.715.715,0,0,1,.389-.258.406.406,0,0,0,.2-.109c.063-.064.09-.116.081-.157a.116.116,0,0,0-.056-.064h0l-.019-.009,0-.013-.005-.009-.01.036a.191.191,0,0,0-.177.058l.007.046c-.025.118-.216.271-.568.456l-.035-.067c.406-.213.5-.337.525-.389h0a.251.251,0,0,0-.258.058L33,17.054l.007.008a3.508,3.508,0,0,1-.6.371l-.029-.069a3.49,3.49,0,0,0,.586-.36.2.2,0,0,0-.166-.065h-.005c-.161.131-.572.454-.706.431L32.1,17.3a2.225,2.225,0,0,0,.659-.427.138.138,0,0,0-.031-.1.131.131,0,0,0-.121-.016h0c-.073.052-.267.167-.778.466l-.037-.065c.274-.16.678-.4.776-.464.015-.12,0-.2-.052-.243-.072-.058-.2-.011-.2-.01l.006.01-.921.576-.04-.064.9-.566c.006-.029.014-.114-.027-.151s-.114-.02-.17,0l-.009,0c-.093.067-.371.23-1.193.688l-.036-.066c.428-.238,1.063-.6,1.191-.683a.214.214,0,0,0-.043-.168.207.207,0,0,0-.146-.059v0c-.259.2-1.285.716-1.329.739l-.033-.068c.011-.005,1.063-.537,1.3-.717a.2.2,0,0,0-.011-.2.381.381,0,0,0-.278-.083.51.51,0,0,1-.075.144,7.467,7.467,0,0,0-1.149.631c-.126.079-.126.079-.14.079l-.014-.073c.01-.005.052-.031.115-.07a6.985,6.985,0,0,1,1.149-.626.294.294,0,0,0,.031-.291.2.2,0,0,0-.222-.066l0-.022a.628.628,0,0,1-.263.243c-.177.063-1.32.659-1.332.665l-.034-.067c.047-.024,1.159-.6,1.341-.669.1-.037.3-.254.278-.391-.018-.1-.168-.125-.291-.125v-.015a18.355,18.355,0,0,0-1.655.846.661.661,0,0,1-.62,0l.035-.066a.6.6,0,0,0,.545,0,16.353,16.353,0,0,1,1.84-.919c.3-.1.482-.692.545-.942l.073.018a2.779,2.779,0,0,1-.241.646l1.764-.521a1.006,1.006,0,0,0,.285-.671l.075,0a1.074,1.074,0,0,1-.114.452c.307-.039,1.726-.248,1.726-.82H35.2a.523.523,0,0,1-.238.408,10.916,10.916,0,0,0,1.976-.683l.055.052a11.436,11.436,0,0,1-2.082.723.314.314,0,0,1,.115.259l1.852-.521.02.072-1.9.534L35,13.86a.233.233,0,0,1,.136.125.278.278,0,0,1,.006.177l1.6-.491.022.072-1.65.508-.011.023a.242.242,0,0,1,.133.167.18.18,0,0,1-.006.065l1.37-.416.022.072-1.447.439-.013.015a.254.254,0,0,1,.166.155.223.223,0,0,1,0,.036c.4-.123.969-.3,1.005-.3l0,.075c-.044.006-.619.182-1.027.309a.406.406,0,0,1-.071.1l.033-.012c.061.022.143.052.162.12l.652-.265.028.07-.674.274-.006-.017a.4.4,0,0,1-.154.182c-.317.144-1.024.427-1.183.49l-.062.105a.151.151,0,0,1,.092.067.153.153,0,0,1,.017.084c.051-.02.684-.268.978-.429a.322.322,0,0,0,.165-.194.124.124,0,0,0-.019-.089l.057-.048a.189.189,0,0,1,.038.107,3.818,3.818,0,0,1,.57-.239l.005.075c-.035.008-.371.155-.574.246l-.008-.018a.383.383,0,0,1-.171.208.143.143,0,0,1,.046.1.207.207,0,0,1-.108.165l-.211.11a.132.132,0,0,1,.045.128l-.074-.013a.054.054,0,0,0-.03-.064l.011-.026-.741.39,0,0h0l-.025.013-.461.306a.169.169,0,0,1,.061.092.252.252,0,0,1-.1.222.448.448,0,0,1-.228.131.645.645,0,0,0-.352.23Zm-.12-.627a.2.2,0,0,1,.1.047.106.106,0,0,1,.019.024.326.326,0,0,1,.266-.045.28.28,0,0,1,.253-.1l.518-.344,0,0a.107.107,0,0,0-.044-.092v0a5.694,5.694,0,0,0-1.119.508Zm-.237-.2a.169.169,0,0,1,.119.043.188.188,0,0,1,.051.113,5.4,5.4,0,0,1,1.148-.533l0,0c.1-.154.094-.22.081-.245s-.088-.035-.087-.037l-.046,0-1.288.565a.523.523,0,0,1,0,.1Zm-.245-.327a.22.22,0,0,1,.142.045.214.214,0,0,1,.071.11l1.331-.576.059-.127.006,0c-.013-.033-.057-.109-.229-.151l-.01,0a.624.624,0,0,1-.229.132c-.154.047-1.087.432-1.226.489a.278.278,0,0,1,.011.092.336.336,0,0,1,.074-.008Zm1.649-.045a.174.174,0,0,1,.075.1v0c.214-.113.778-.41.945-.495.046-.034.072-.069.072-.1a.085.085,0,0,0-.037-.058l0-.007c-.324.17-.95.414-.956.416l-.024-.063a.487.487,0,0,1-.08.2Zm-1.895-.152a.167.167,0,0,1,.116.04l.007.007c.107-.044,1.079-.445,1.242-.5a.571.571,0,0,0,.236-.15.425.425,0,0,0-.2-.282.185.185,0,0,1-.063.119c-.05.037-1.081.387-1.525.537a.218.218,0,0,1,.052.041.272.272,0,0,1,.064.192.347.347,0,0,1,.075-.009Zm-.314-.264h0c.612-.206,1.544-.525,1.6-.559a.221.221,0,0,0,.049-.118.217.217,0,0,1,.028-.014.3.3,0,0,0-.144-.238l-.02-.015a.642.642,0,0,1-.16.123c-.123.068-1.24.39-1.606.494a.377.377,0,0,1,.2.087.229.229,0,0,1,.054.24Zm2-.3a.323.323,0,0,1,.233.185c.215-.092.86-.35,1.153-.482.116-.093.124-.14.121-.156,0-.033-.072-.057-.116-.073l-.044-.017,0-.009,0,0a10.372,10.372,0,0,1-1.349.55Zm-.221-.356a.493.493,0,0,1,.206.286,11.5,11.5,0,0,0,1.319-.539.359.359,0,0,0,.081-.109l-.007-.025.017-.006a.085.085,0,0,0,0-.042c-.017-.07-.12-.1-.121-.1l.017-.058a.582.582,0,0,1-.063.052,11.158,11.158,0,0,1-1.449.544Zm-2.392.049a.245.245,0,0,1,.22.108.269.269,0,0,1,.037.129c.549-.157,1.568-.454,1.676-.513a.5.5,0,0,0,.181-.157l.037-.014a.441.441,0,0,0-.133-.261l-.02-.033-2.015.689q-.009.027-.021.054a.248.248,0,0,1,.038,0Zm2.215-.362a.373.373,0,0,1,.152.255,13.938,13.938,0,0,0,1.434-.549c.054-.04.121-.1.113-.167s-.081-.1-.1-.115c-.483.192-1.346.464-1.589.54a.229.229,0,0,1-.007.036ZM31,14.922c.171.027.224.109.236.179a.219.219,0,0,1,0,.036l1.982-.666c0-.032.058-.185.016-.271a.117.117,0,0,0-.089-.063l0-.022-1.79.532-.007-.023a.632.632,0,0,1-.316.285L31,14.922Zm2.3-.422a.567.567,0,0,1,.163.3c.3-.1,1.115-.358,1.557-.528a.342.342,0,0,0,.042-.259.17.17,0,0,0-.1-.088l.006-.025a11.133,11.133,0,0,1-1.65.509l-.006-.025a.724.724,0,0,1-.045.133h0L33.3,14.5Zm-.087-.419a.177.177,0,0,1,.087.086.291.291,0,0,1,.019.166,11.346,11.346,0,0,0,1.6-.488c.088-.138,0-.242-.09-.315l-.02-.022a4.53,4.53,0,0,1-1.457.394.938.938,0,0,1-.142.179Zm2.044,1.741-.032-.068.519-.248.032.068-.519.248Z"/></g></g></svg>