<svg id="Layer_1" data-name="Layer 1" xmlns="http://www.w3.org/2000/svg" viewBox="0 0 40 40"><defs><style>.cls-1{fill:#ef4452;}.cls-2{fill:#fff;}.cls-3{fill:none;}</style></defs><rect class="cls-1" x="3.5" y="3.5" width="33" height="33" rx="8"/><path class="cls-2" d="M11.829,23.263l-1.08,3.114H7.778l4.97-13.432h2.88L20.58,26.377H17.609l-1.062-3.114Zm3.889-2.413-1.512-4.412L12.675,20.85Z"/><path class="cls-2" d="M31.127,16.475a2.921,2.921,0,0,1-2.485,2.88,3.151,3.151,0,0,1,3.025,3.187c0,2.431-1.656,3.835-4.717,3.835H21.458V12.945h4.934C29.363,12.945,31.127,14.206,31.127,16.475Zm-4.843,1.908c1.314,0,1.926-.63,1.926-1.584,0-.973-.666-1.531-1.926-1.531H24.339v3.115Zm.558,5.672c1.278,0,1.908-.721,1.908-1.675s-.594-1.675-1.908-1.675h-2.5v3.35Z"/><rect class="cls-3" width="40" height="40"/></svg>