<?xml version="1.0" encoding="UTF-8"?><svg id="Layer_1" xmlns="http://www.w3.org/2000/svg" viewBox="0 0 40 40"><g><rect x="3.5" y="3.5" width="33" height="33" rx="8" ry="8" fill="orange"/><g><path d="m15.998,26.594h-2.881l-4.88-13.432h3.024l3.296,9.543,3.295-9.543h3.024l-4.879,13.432Z" fill="#fff"/><path d="m26.185,24.415c1.459,0,2.161-.558,2.161-1.53,0-.9-.576-1.351-2.305-1.818l-1.585-.433c-2.089-.558-3.493-1.729-3.493-3.745,0-2.305,1.999-3.997,5.042-3.997,3.061,0,5.258,1.98,5.293,4.142h-3.007c-.162-.918-1.044-1.692-2.448-1.692-1.188,0-1.837.594-1.837,1.351,0,.684.414,1.206,1.927,1.603l1.603.432c2.629.721,3.799,1.98,3.799,3.979,0,2.557-2.196,4.159-5.365,4.159-2.898,0-5.203-1.747-5.474-4.34h3.223c.252,1.152,1.152,1.891,2.467,1.891Z" fill="#fff"/></g></g><rect width="40" height="40" fill="none"/></svg>