<svg id="Layer_1" data-name="Layer 1" xmlns="http://www.w3.org/2000/svg" xmlns:xlink="http://www.w3.org/1999/xlink" viewBox="0 0 40 40"><defs><style>.cls-1{fill:none;}.cls-2{clip-path:url(#clip-path);}.cls-3{fill:#e5e8eb;}.cls-4{fill:#3c9446;}.cls-5{fill:#2d318d;}.cls-6{clip-path:url(#clip-path-2);}</style><clipPath id="clip-path"><rect id="SVGID" class="cls-1" x="1.063" y="9.053" width="37.875" height="21.894" rx="4"/></clipPath><clipPath id="clip-path-2"><rect id="SVGID-2" data-name="SVGID" class="cls-1" x="1.063" y="9.053" width="37.875" height="21.894"/></clipPath></defs><g class="cls-2"><rect class="cls-3" x="1.063" y="9.053" width="37.875" height="21.894"/><rect class="cls-4" x="1.063" y="24.379" width="37.875" height="6.568"/><rect class="cls-5" x="1.063" y="9.053" width="37.875" height="6.568"/><g class="cls-6"><path d="M19.983,16.028a.424.424,0,0,0-.249.141l.01,1.476-.47.489h.381l0,.846L17.4,21.986l-.333-.113-.582,1.23a7.094,7.094,0,0,0,3.529.869,6.618,6.618,0,0,0,3.54-.91l-.6-1.215-.294.127-2.282-2.991,0-.871h.381l-.519-.483,0-1.471a.431.431,0,0,0-.255-.13Z"/><path d="M19.928,23.988a7.162,7.162,0,0,1-3.452-.871l.575-1.251.354.105,2.234-3v-.837l-.365.016.459-.516-.015-1.465a.414.414,0,0,1,.264-.157.443.443,0,0,1,.267.135v1.482l.514.471-.392.028.019.855,2.279,2.981.274-.132.624,1.223a6.447,6.447,0,0,1-3.555.933ZM16.5,23.109a7.454,7.454,0,0,0,3.429.847h.085a6.676,6.676,0,0,0,3.531-.907l-.608-1.2-.273.135-2.3-3-.006-.881.4-.017-.53-.454V16.158h0a.455.455,0,0,0-.235-.114.413.413,0,0,0-.24.135l.014,1.466-.475.5.37-.028.013.863L17.412,22l-.352-.108L16.5,23.11Z"/><path d="M20.819,19.643h-1.66l-.023-.046a4.747,4.747,0,0,1-.48-2.049,1.3,1.3,0,0,1,1.3-1.316h0c.813,0,1.238.406,1.363,1.28a4.509,4.509,0,0,1-.48,2.086l-.022.045Zm-1.557-.16h1.454a4.273,4.273,0,0,0,.445-1.948c-.114-.791-.477-1.143-1.178-1.143a1.141,1.141,0,0,0-1.166,1.174,4.5,4.5,0,0,0,.445,1.917Z"/><path class="cls-3" d="M17.26,22.377c-.026.034-.213.4-.213.4l.323-.068Z"/><polygon class="cls-3" points="17.446 22.857 17.107 22.966 17.514 23.126 17.446 22.857"/><polygon class="cls-3" points="17.599 22.386 17.769 22.882 18.184 22.764 18.074 22.528 17.599 22.386"/><polygon class="cls-3" points="17.863 23.058 17.921 23.26 18.474 23.395 18.253 22.932 17.863 23.058"/><polygon class="cls-3" points="18.474 22.638 18.668 23.1 19.084 22.941 18.948 22.739 18.474 22.638"/><polygon class="cls-3" points="18.745 23.269 18.813 23.445 19.458 23.538 19.187 23.117 18.745 23.269"/><polygon class="cls-3" points="19.365 22.772 19.602 23.184 20.205 22.966 20.137 22.806 19.365 22.772"/><polygon class="cls-3" points="19.712 23.336 19.84 23.555 20.587 23.529 20.307 23.117 19.712 23.336"/><polygon class="cls-3" points="20.502 22.789 20.706 23.134 21.181 22.907 21.054 22.722 20.502 22.789"/><polygon class="cls-3" points="21.283 23.05 20.808 23.285 20.935 23.488 21.572 23.387 21.283 23.05"/><polygon class="cls-3" points="21.436 22.688 21.682 22.991 22.081 22.68 21.945 22.537 21.436 22.688"/><polygon class="cls-3" points="22.166 22.848 21.784 23.134 21.886 23.311 22.412 23.176 22.166 22.848"/><polygon class="cls-3" points="22.692 22.251 22.786 22.386 22.523 22.772 22.25 22.427 22.692 22.251"/><polygon class="cls-3" points="22.87 22.587 23.032 22.907 22.709 23.017 22.684 22.865 22.87 22.587"/></g></g></svg>