<svg id="Layer_1" data-name="Layer 1" xmlns="http://www.w3.org/2000/svg" viewBox="0 0 40 40"><defs><style>.cls-1{fill:#249d45;}.cls-2{fill:#e50513;}.cls-3{fill:#161515;}.cls-4{fill:#e5e8eb;}</style></defs><path class="cls-1" d="M1.007,27.012a4,4,0,0,0,4,4H34.993a4,4,0,0,0,4-4V24.689H1.007Z"/><path class="cls-2" d="M38.993,12.988a4,4,0,0,0-4-4H5.007a4,4,0,0,0-4,4v2.323H38.993Z"/><rect class="cls-3" x="1.007" y="15.311" width="37.987" height="9.379"/><path class="cls-4" d="M20,23.082a3.071,3.071,0,0,0,2.188-.912,2.678,2.678,0,1,1,0-4.341A3.082,3.082,0,1,0,20,23.082Z"/><path class="cls-4" d="M23.082,20.514v1.665l.979-1.347,1.583.515L24.666,20l.978-1.347-1.583.514-.979-1.346v1.664L21.5,20Z"/></svg>