<?xml version="1.0" encoding="UTF-8"?><svg id="a" xmlns="http://www.w3.org/2000/svg" viewBox="0 0 40 40"><path d="M16.448,23.983c.197-.081,.994-.403,1.247-.417h.001c.157,0,.328,.078,.509,.161,.201,.091,.408,.186,.589,.186,.18-.007,.328-.071,.484-.138,.187-.08,.398-.171,.668-.179h.002c.255,0,.408,.079,.556,.156,.166,.087,.323,.168,.587,.146,.224-.018,.308-.083,.398-.153,.113-.088,.23-.179,.59-.179,.561,.012,1.029,.355,1.24,.538,.223-.186,.421-.39,.603-.604l-7.944-.027c.144,.18,.3,.35,.469,.51Z" fill="#fff"/><path d="M17.821,24.897l.008-.006c.191-.146,.567-.394,.95-.416h.052c.313,0,.501,.136,.666,.257,.126,.092,.235,.171,.382,.184h.005c.187,0,.337-.09,.496-.186,.18-.108,.383-.231,.625-.24h.001c.491,0,1.036,.354,1.059,.368l.06,.039c.176-.088,.35-.191,.524-.315,.147-.088,.276-.191,.41-.29l-6.293-.027c.316,.251,.671,.46,1.056,.631Z" fill="#fff"/><path d="M18.631,14.932l.157,.283c-.196,.115-.21,2.27-.21,2.27,0,0-.765-1.525-1.052-2.103-.125,.066-.253,.123-.373,.2l1.472,2.261-.004,.846-.834-.792s-.119-.004-.119-.087c.001-.1,.114-.073,.114-.203s-.156-.121-.156-.222,.104-.081,.104-.224-.164-.116-.37-.13c-.206-.015-.408,0-.432,.09,0,0-.436-.474-.698-.758-.096,.101-.197,.198-.283,.304l.883,.753s-.133,.102-.122,.197c.002,.087,.16,.098,.158,.186-.003,.095-.14,.108-.143,.196-.007,.086,.133,.18,.133,.18l-.216,.221-1.36-.647c-.049,.106-.094,.213-.136,.322l1.54,.598,.015,.807-1.872-.178c-.015,.116-.016,.232-.023,.348l1.867,.089v1.138l-1.819-.014c.02,.135,.045,.268,.075,.401,.072,.071,.341,.317,.608,.317,.139-.006,.275-.085,.419-.169,.233-.137,.526-.284,.807-.19l.03,.01,.002,.031c.014,.29,.126,.528,.127,.53l.032,.067-1.857-.015c.039,.114,.077,.227,.123,.338,.119-.092,.246-.168,.366-.174h0c.183,0,.343,.092,.496,.181,.149,.085,.302,.174,.45,.174,.227-.01,.269-.047,.328-.099,.03-.027,.064-.057,.121-.087l.042-.022,.022,.042c.082,.162,.4,.347,.403,.349l.149,.086h-2.168c.092,.176,.198,.344,.309,.508,.048-.027,.098-.058,.149-.09,.237-.149,.533-.334,.757-.334,.194,0,.377,.119,.554,.235,.16,.105,.327,.213,.494,.226h.003c.174,0,.296-.084,.438-.183,.169-.117,.361-.25,.629-.25,.27,0,.481,.125,.668,.234,.16,.094,.312,.184,.479,.184,.184,0,.381-.1,.572-.197,.192-.097,.391-.198,.588-.206h.001c.223,0,.419,.11,.608,.217,.171,.096,.332,.187,.479,.187,.162-.007,.307-.097,.46-.193,.182-.114,.37-.232,.6-.24,.379,.032,.772,.283,.914,.5,.143-.192,.271-.392,.384-.599h-2.293l.15-.086s.32-.187,.404-.349l.022-.042,.042,.022c.057,.031,.091,.061,.121,.088,.058,.052,.1,.089,.311,.098h.001c.164,0,.317-.088,.465-.174,.154-.089,.313-.181,.477-.181,.171,.008,.348,.131,.492,.26,.141-.316,.242-.646,.319-.98l-.2,.556-1.93,.015,.032-.067s.113-.241,.127-.53v-.031l.032-.01c.282-.094,.574,.053,.808,.19,.144,.083,.28,.163,.401,.168h0c.325,0,.651-.342,.655-.346l.077,.047c.087-.378,.142-.761,.148-1.147l-.104,.744h-1.957l-.015-1.109,2.055-.151c-.009-.115-.022-.228-.037-.342l-1.987,.234-.016-.821,1.673-.693c.007,.016,.017,.032,.022,.049,.084,.217,.152,.44,.208,.667-.089-.363-.223-.711-.384-1.048l-1.487,.767c-.025-.093-.046-.185-.161-.26,.011-.007,.099-.063,.099-.157,0-.087-.097-.111-.125-.152l-.004-.009-.002-.004v-.017l.002-.006c.018-.052,.121-.104,.127-.223-.013-.078-.1-.183-.109-.227v-.011l.002-.003,.991-.743c-.081-.098-.164-.194-.253-.285-.234,.239-.767,.767-.771,.771-.043-.099-.302-.052-.549-.052-.137,0-.209,.025-.244,.056l-.006,.005c-.006,.006-.011,.013-.014,.019l-.004,.008-.004,.009c-.004,.015-.003,.03,0,.045,.006,.037,.016,.06,.025,.075l.007,.01,.006,.006h.004c.017,.013,.034,.015,.048,.026l.002,.002v.002l.007,.007,.002,.006c.006,.013,.01,.034,.01,.065,0,.044-.01,.072-.024,.09-.028,.034-.073,.041-.095,.079-.006,.01-.01,.025-.012,.041,.008,.085,.088,.101,.112,.13l.003,.006,.002,.004v.011l-.002,.006-.003,.009c-.006,.008-.015,.018-.027,.03l-1,.941,.002-.893,1.513-2.305c-.096-.057-.188-.12-.289-.172l-1.227,2.149,.002-.96s.028-.045,.032-.086l-.002-.023-.004-.009-.008-.011c-.014-.013-.039-.022-.081-.019-.171,.013-.381-.013-.381-.013l.434-1.484c-.584-.147-1.133-.155-1.741-.155-.278,.046-.544,.105-.801,.177Zm.108,4.821c.024-.018,.058-.013,.077,.011l.186,.244,.009-.257c0-.03,.02-.065,.057-.052,.03,0,.054,.026,.053,.056l-.008,.23,.177-.209c.019-.022,.054-.027,.077-.007,.023,.02,.026,.053,.007,.076l-.26,.308,.218,.287c.018,.024,.013,.058-.011,.076-.01,.007-.021,.01-.033,.01-.017,0-.033-.007-.044-.021l-.203-.266-.226,.268c-.011,.012-.026,.019-.042,.019-.012,0-.025-.004-.035-.012-.023-.019-.026-.053-.007-.076l.242-.288-.244-.321c-.018-.024-.013-.058,.011-.076Zm-.11-.854l-.008,.461-.878-.443v-.576s-.103,.014-.089-.101c.005-.24,.646,.438,.975,.659Zm-.122,1.541c.018,.024,.013,.058-.011,.076-.01,.007-.021,.01-.033,.01-.017,0-.033-.007-.044-.021l-.203-.266-.226,.268c-.011,.012-.026,.019-.042,.019-.012,0-.025-.004-.035-.012-.023-.019-.026-.053-.007-.076l.243-.288-.244-.321c-.018-.024-.013-.058,.011-.076,.024-.018,.059-.013,.077,.011l.186,.244,.009-.257c.001-.03,.026-.065,.057-.052,.03,0,.054,.026,.053,.056l-.008,.23,.177-.209c.019-.022,.054-.027,.077-.007,.023,.02,.026,.053,.007,.076l-.26,.308,.218,.287Zm-.764-1.004v-.346l.882,.371-.882-.025Zm.431,3.233c-.596,0-1.116-.524-1.264-1.274,0-.04-.021-2.881-.027-2.996,0-.067,.061-.099,.115-.128,.022-.012,.063-.034,.069-.046,0-.005-.022-.026-.039-.041-.041-.038-.098-.089-.106-.181-.006-.076,.062-.111,.108-.134,.016-.008,.046-.024,.051-.032,0-.018-.039-.05-.068-.072-.047-.039-.101-.083-.097-.148,.007-.056,.043-.096,.075-.131,.025-.028,.051-.057,.051-.081,0-.031-.03-.06-.055-.083-.018-.017-.051-.078-.042-.101,.02-.051,.085-.051,.155-.051l.321-.006h.006c.02,0,.157-.018,.179,.039,.008,.023,.015,.048-.003,.064l-.053,.039c-.036,.024-.118,.08-.116,.111,0,.017,.031,.031,.072,.05,.06,.026,.141,.062,.15,.155,.008,.091-.068,.128-.119,.153-.048,.023-.064,.034-.064,.051,0,.013,.006,.02,.056,.039,.048,.018,.128,.05,.128,.147,0,.092-.073,.139-.121,.169-.019,.012-.05,.032-.05,.041,.003,.041,.067,.083,.097,.096,.021,.01,.035,.031,.034,.054-.017,1.053-.026,2.771,.021,2.897,.133,.236,.504,.406,.886,.406,.359,0,.657-.15,.817-.41,.015-.025,.045-.034,.072-.024,.027,.011,.041,.04,.035,.067-.209,.853-.685,1.361-1.273,1.361Zm-.12-1.162l.106-.135c.156-.197,.453-.373,.466-.38l.815-.03-.064,.125c-.112,.218-.269,.315-.448,.411l-.018,.01h-.856Zm2.367,.279l-.002,.042-1.063,.033,.051-.069c.043-.273,.294-.33,.497-.33s.352,.046,.44,.138c.082,.086,.078,.181,.078,.185Zm-.039-.824l.774,.018c.054,.019,.351,.195,.505,.392l.106,.135h-.833c-.219-.105-.376-.202-.488-.42l-.064-.125Zm.505,1.701l-1.904,.014h-.046l-.002-.048c0-.073,.406-.621,.983-.635l.054-.002c.513,0,.905,.562,.926,.615l.012,.029-.021,.028Zm1.349-1.393c.051-.129,.042-1.846,.025-2.899,0-.023,.013-.044,.034-.054,.031-.014,.095-.055,.096-.096,.001-.011-.024-.028-.046-.043-.045-.03-.113-.077-.113-.168,0-.097,.076-.128,.121-.146,.047-.019,.051-.025,.052-.042,0-.017-.014-.029-.059-.054-.046-.027-.117-.067-.109-.155,.007-.086,.065-.125,.107-.152,.036-.024,.048-.033,.049-.056,.003-.042-.034-.076-.082-.115-.02-.016-.039-.053-.03-.077,.009-.023,.022-.059,.045-.047,.063,0,.118-.001,.127-.002l.327,.006c.068,0,.133,0,.154,.051,.009,.022-.024,.084-.041,.101-.025,.022-.056,.052-.055,.082,0,.025,.026,.054,.052,.082,.031,.035,.066,.074,.074,.125,.004,.071-.05,.115-.097,.154-.028,.023-.067,.054-.067,.074,.004,.007,.034,.022,.05,.031,.045,.023,.113,.058,.107,.133-.007,.092-.064,.144-.106,.182-.016,.014-.039,.035-.039,.043,.005,.009,.047,.031,.069,.043,.054,.029,.115,.061,.115,.125-.006,.118-.025,2.96-.025,2.989-.149,.761-.669,1.284-1.265,1.284-.589,0-1.065-.509-1.274-1.361-.007-.028,.008-.056,.035-.067,.027-.01,.057,0,.072,.023,.161,.261,.459,.41,.818,.41,.383,0,.754-.17,.883-.404Zm-.093-3.171c0,.144-.093,.256-.093,.256v.548l-.868,.403-.004-.375s.794-.702,.964-.832Zm-.269,2.34c.018,.024,.013,.058-.011,.076-.01,.007-.021,.01-.033,.01-.017,0-.033-.007-.044-.021l-.203-.266-.226,.268c-.011,.012-.026,.019-.042,.019-.012,0-.025-.004-.035-.012-.023-.019-.026-.053-.007-.076l.242-.288-.244-.321c-.018-.024-.013-.058,.011-.076,.024-.018,.059-.013,.077,.011l.186,.245,.01-.258c0-.03,.017-.065,.057-.052,.03,0,.054,.026,.053,.056l-.009,.23,.176-.209c.019-.022,.054-.027,.077-.007,.023,.02,.026,.053,.007,.076l-.26,.308,.218,.287Zm-.691-.954l.853-.367-.015,.331-.838,.036Zm.913,1.263c.046,0,.084,.038,.084,.084,0,.046-.038,.083-.084,.083h0l-4.354-.014c-.046,0-.084-.038-.084-.084,0-.046,.038-.083,.084-.083h0l4.354,.014Zm-1.97-.974c.019-.022,.054-.027,.077-.007,.023,.02,.026,.053,.007,.076l-.26,.308,.218,.287c.018,.024,.013,.058-.011,.076-.01,.007-.021,.01-.033,.01-.017,0-.033-.007-.044-.021l-.203-.266-.226,.268c-.011,.012-.026,.019-.042,.019-.012,0-.025-.004-.035-.012-.023-.019-.026-.053-.007-.076l.242-.288-.244-.321c-.018-.024-.013-.058,.011-.076,.024-.018,.058-.013,.077,.011l.186,.244,.009-.257c.001-.03,.029-.065,.057-.052,.03,0,.054,.026,.053,.056l-.008,.23,.177-.21Zm.868,0c.019-.022,.054-.027,.077-.007,.023,.02,.026,.053,.007,.076l-.26,.308,.218,.287c.018,.024,.013,.058-.011,.076-.01,.007-.021,.01-.033,.01-.017,0-.033-.007-.044-.021l-.203-.266-.226,.268c-.011,.012-.026,.019-.042,.019-.012,0-.025-.004-.035-.012-.023-.019-.026-.053-.007-.076l.242-.288-.244-.321c-.018-.024-.013-.058,.011-.076,.024-.018,.059-.013,.077,.011l.187,.246,.009-.258c0-.03,.023-.065,.056-.052,.03,0,.054,.026,.053,.056l-.008,.229,.176-.208Zm-.155-4.92c.03,.004,.051,.03,.05,.059,0,.03-.024,.053-.054,.056-.559,.041-.87,.301-.854,.712,.016,.421,.409,.93,.875,.93,.016,0,.047,.005,.058,.016,.011,.011,.034,.025,.034,.041v2.694c0,.018-.008,.035-.023,.046-.01,.008-.023,.012-.036,.012l-.015-.002-1.926-.504c-.025-.007-.043-.029-.043-.055l-.015-3.356c.147-.361,.295-.711,1.185-.711,.215,0,.472,.021,.765,.062Z" fill="#fff"/><g><path d="M16.668,19.739l-1.867-.089c-.027,.406-.013,.812,.047,1.212l1.819,.014v-1.138Z" fill="#ff9300"/><path d="M16.683,18.673l-1.54-.598c-.153,.399-.264,.81-.318,1.228l1.872,.178-.015-.807Z" fill="#ff9300"/><path d="M16.856,18.178s-.139-.094-.133-.18c.003-.088,.14-.101,.143-.196,.002-.087-.156-.098-.158-.186-.011-.095,.122-.197,.122-.197l-.883-.753c-.275,.339-.492,.706-.668,1.086l1.36,.647,.216-.221Z" fill="#ff9300"/><path d="M23.11,20.877h1.957l.104-.744c.003-.173-.007-.345-.02-.517l-2.055,.151,.015,1.109Z" fill="#ff9300"/><path d="M24.783,17.994l-1.673,.693,.016,.821,1.987-.234c-.026-.19-.055-.379-.1-.565-.055-.227-.123-.45-.208-.667-.006-.017-.016-.032-.022-.049Z" fill="#ff9300"/><path d="M22.969,17.362v.011c.009,.043,.096,.149,.109,.227-.006,.119-.109,.171-.127,.223l-.002,.006v.017l.002,.004,.004,.009c.027,.042,.125,.065,.125,.152,0,.094-.089,.151-.099,.157,.115,.075,.135,.167,.161,.26l1.487-.767c-.026-.054-.048-.109-.076-.162-.04-.076-.081-.151-.125-.225-.076-.129-.158-.254-.245-.376-.045-.063-.089-.128-.137-.189-.026-.033-.057-.062-.084-.094l-.991,.743-.002,.003Z" fill="#ff9300"/><polygon points="22.037 19.119 21.184 19.487 22.022 19.451 22.037 19.119" fill="#ff9300"/><polygon points="17.743 19.09 17.743 19.436 18.625 19.461 17.743 19.09" fill="#ff9300"/><path d="M17.743,18.342v.576l.878,.443,.008-.461c-.328-.221-.97-.899-.975-.659-.015,.115,.089,.101,.089,.101Z" fill="#ff9300"/><path d="M22.052,18.904v-.548s.093-.112,.093-.256c-.17,.13-.964,.832-.964,.832l.004,.375,.868-.403Z" fill="#ff9300"/><path d="M17.36,17.031c.207,.014,.37-.014,.37,.13s-.104,.124-.104,.224,.156,.093,.156,.222-.113,.103-.114,.203c0,.083,.119,.087,.119,.087l.834,.792,.004-.846-1.472-2.261c-.225,.144-.442,.308-.653,.496-.099,.09-.18,.189-.27,.283,.262,.284,.698,.758,.698,.758,.024-.091,.226-.104,.432-.09Z" fill="#ff9300"/><path d="M18.788,15.215l-.157-.283c-.391,.109-.755,.265-1.105,.45,.286,.578,1.052,2.103,1.052,2.103,0,0,.014-2.155,.21-2.27Z" fill="#ff9300"/><path d="M21.121,16.407c.042-.003,.067,.006,.081,.019l.008,.011,.004,.009,.002,.023c-.004,.041-.032,.086-.032,.086l-.002,.96,1.227-2.149c-.008-.004-.015-.01-.024-.014-.213-.106-.441-.195-.678-.274-.034-.011-.064-.028-.098-.039-.149-.056-.292-.093-.435-.129l-.434,1.484s.211,.026,.381,.013Z" fill="#ff9300"/><path d="M21.183,18.736l1-.941c.013-.011,.021-.022,.027-.03l.003-.009,.002-.006v-.011l-.002-.004-.003-.006c-.024-.028-.104-.045-.112-.13,.002-.016,.006-.031,.012-.041,.021-.038,.066-.044,.095-.079,.015-.018,.024-.045,.024-.09,0-.031-.004-.052-.01-.065l-.002-.006-.006-.007v-.002l-.003-.002c-.014-.011-.031-.013-.048-.025h-.004l-.006-.007-.007-.01c-.01-.014-.02-.038-.025-.075-.003-.015-.004-.03,0-.045l.004-.009,.004-.008c.003-.006,.008-.013,.014-.019l.006-.005c.035-.032,.107-.056,.244-.056,.247,0,.506-.047,.549,.052,.004-.004,.537-.532,.771-.771-.021-.022-.038-.046-.06-.067-.053-.053-.111-.101-.167-.151-.115-.105-.235-.206-.362-.301-.074-.055-.152-.107-.23-.158-.062-.041-.129-.076-.193-.115l-1.513,2.305-.002,.893Z" fill="#ff9300"/></g><g><path d="M34,8H6c-2.209,0-4,1.791-4,4v2H38v-2c0-2.209-1.791-4-4-4Z" fill="#cf002e"/><path d="M2,28c0,2.209,1.791,4,4,4h28c2.209,0,4-1.791,4-4v-2H2v2Z" fill="#cf002e"/><path d="M19.003,15.526l.018,3.289,1.81,.474v-2.562c-.543-.037-.95-.575-.967-1.039-.014-.367,.197-.635,.58-.761-.135-.011-.258-.017-.369-.017-.812,0-.938,.3-1.072,.617Z" fill="#cf002e"/><path d="M18.523,21.791c-.429,0-.834-.191-.985-.465-.025,.013-.087,.007-.04-2.921-.048-.028-.125-.087-.131-.176-.005-.077,.057-.117,.103-.146,.046-.029,.067-.046,.067-.072,0-.014-.003-.019-.053-.039-.047-.018-.127-.049-.13-.145,0-.094,.078-.132,.129-.157,.038-.018,.055-.029,.054-.039-.002-.021-.025-.035-.081-.059-.057-.025-.135-.06-.142-.146-.004-.057,.03-.105,.073-.145l-.277,.005c.027,.034,.047,.073,.046,.122-.001,.066-.045,.115-.081,.155-.02,.023-.043,.048-.045,.065,.003,.005,.036,.032,.056,.048,.048,.04,.108,.088,.11,.161,.002,.077-.067,.113-.113,.136-.016,.008-.041,.022-.047,.029,.006,.04,.036,.067,.07,.098,.035,.032,.077,.071,.076,.132-.002,.074-.073,.112-.13,.142-.018,.01-.05,.027-.057,.035,.01,.102,.029,2.858,.03,2.975,.136,.684,.608,1.169,1.148,1.169,.471,0,.865-.375,1.085-1.015-.188,.162-.444,.252-.736,.252Z" fill="#cf002e"/><path d="M21.355,21.791c-.291,0-.547-.09-.736-.253,.219,.641,.614,1.015,1.085,1.015,.539,0,1.012-.485,1.149-1.18,0-.107,.018-2.862,.024-2.98-.002,.006-.034-.01-.053-.021-.057-.03-.127-.068-.13-.141-.001-.062,.041-.101,.077-.133,.035-.031,.064-.058,.068-.105l-.044-.022c-.045-.023-.115-.059-.113-.136,.002-.073,.061-.122,.11-.161,.019-.016,.052-.042,.055-.054-.002-.01-.025-.035-.045-.058-.036-.04-.079-.089-.081-.155-.002-.051,.02-.09,.044-.122l-.298-.006c.029,.038,.048,.081,.044,.134-.006,.081-.061,.117-.101,.144-.039,.026-.053,.037-.055,.066,0,.012,.008,.02,.051,.044,.047,.027,.117,.067,.118,.156-.003,.098-.078,.129-.123,.147-.047,.02-.049,.025-.049,.04,0,.028,.019,.043,.062,.073,.043,.029,.101,.069,.096,.145-.005,.088-.082,.148-.13,.176,.046,2.916-.021,2.935-.076,2.95-.115,.245-.52,.436-.95,.436Z" fill="#cf002e"/></g><g><path d="M21.036,24.588c-.243,.008-.427,.119-.604,.226-.173,.104-.335,.202-.518,.202-.219-.017-.344-.108-.476-.205-.16-.117-.327-.238-.607-.238-.356,.018-.677,.205-.872,.344,.291,.12,.599,.213,.916,.278,.559,.093,1.126,.093,1.675,.093v.049h0l.009-.049c.095-.011,.185-.024,.274-.039l1.087-.363c-.172-.099-.56-.299-.885-.299Z" fill="#243b99"/><path d="M21.006,24.49h-.001c-.242,.009-.445,.131-.625,.24-.158,.095-.309,.186-.496,.186h-.005c-.147-.013-.256-.092-.382-.184-.165-.12-.353-.257-.666-.257h-.052c-.382,.022-.759,.27-.95,.416l-.008,.006c.327,.146,.669,.271,1.043,.347,.567,.095,1.135,.095,1.703,.095,.259-.032,.504-.083,.745-.145l.54-.18c.091-.037,.183-.071,.273-.116l-.06-.039c-.023-.015-.568-.368-1.059-.368Zm-.447,.799l-.009,.049h0v-.049c-.549,0-1.117,0-1.675-.093-.317-.065-.625-.158-.916-.278,.195-.139,.516-.326,.872-.344,.281,0,.447,.121,.607,.238,.132,.097,.257,.188,.476,.205,.182,0,.345-.098,.518-.202,.177-.107,.361-.217,.604-.226,.326,0,.713,.199,.885,.299l-1.087,.363c-.089,.015-.18,.028-.274,.039Z" fill="#243b99"/><path d="M22.121,23.66c-.37,0-.468,.077-.573,.159-.096,.075-.196,.152-.448,.173-.295,.022-.468-.068-.638-.157-.145-.075-.281-.146-.485-.146-.279,.008-.473,.091-.66,.172-.165,.071-.321,.138-.499,.145h-.001c-.223,0-.44-.098-.649-.194-.172-.079-.335-.153-.454-.153-.232,.012-.943,.294-1.188,.393,.049,.045,.098,.089,.149,.132l6.515,.016c.017-.013,.036-.024,.053-.038-.203-.176-.633-.493-1.117-.503h-.003Z" fill="#243b99"/><path d="M21.49,23.745c-.089,.07-.173,.135-.398,.153-.264,.022-.421-.06-.587-.146-.148-.077-.3-.156-.556-.156h-.002c-.27,.008-.481,.099-.668,.179-.156,.068-.304,.132-.484,.138-.18,0-.388-.094-.589-.186-.181-.083-.352-.161-.509-.161h-.001c-.254,.014-1.051,.336-1.247,.417,.025,.024,.052,.046,.078,.069,.244-.099,.955-.381,1.188-.393,.119,0,.282,.074,.454,.153,.21,.095,.426,.194,.649,.194h.001c.178-.007,.334-.074,.499-.145,.187-.081,.381-.164,.66-.172,.204,0,.34,.071,.485,.146,.17,.089,.343,.179,.638,.157,.252-.021,.351-.098,.448-.173,.105-.082,.204-.159,.573-.159h.003c.484,.01,.914,.328,1.117,.503,.025-.02,.053-.038,.078-.059-.21-.183-.679-.526-1.24-.538-.36,0-.477,.091-.59,.179Z" fill="#243b99"/><path d="M16.766,24.266l6.293,.027c.042-.031,.089-.06,.13-.092l-6.515-.016c.031,.026,.059,.056,.091,.081Z" fill="#243b99"/><path d="M23.21,22.825c-.198,.007-.375,.118-.547,.225-.164,.102-.319,.199-.491,.207h0c-.19,0-.362-.096-.543-.198-.179-.101-.364-.206-.542-.206-.194,.007-.384,.104-.566,.197-.201,.102-.408,.207-.615,.207-.193,0-.355-.095-.526-.197-.185-.109-.376-.221-.62-.221-.238,0-.409,.118-.575,.233-.149,.103-.291,.201-.466,.201-.229-.017-.405-.132-.575-.243-.173-.113-.336-.219-.502-.219-.196,0-.492,.185-.707,.319-.062,.039-.105,.064-.149,.09,.04,.057,.08,.112,.122,.167l8.088,.022c.027-.033,.05-.067,.076-.1-.108-.198-.501-.453-.859-.483Z" fill="#243b99"/><path d="M23.212,22.732c-.229,.008-.417,.125-.6,.24-.153,.096-.297,.186-.46,.193-.147,0-.309-.091-.479-.187-.189-.107-.385-.217-.608-.217h-.001c-.197,.008-.396,.109-.588,.206-.191,.097-.388,.197-.572,.197-.167,0-.318-.09-.479-.184-.187-.11-.398-.234-.668-.234-.268,0-.46,.133-.629,.25-.142,.098-.265,.183-.438,.183h-.003c-.168-.013-.334-.121-.494-.226-.177-.115-.359-.235-.554-.235-.224,0-.52,.185-.757,.334-.05,.031-.101,.062-.149,.09,.017,.025,.032,.053,.05,.078,.044-.026,.087-.051,.149-.09,.216-.135,.511-.319,.707-.319,.166,0,.329,.106,.502,.219,.171,.111,.347,.226,.575,.243,.175,0,.317-.098,.466-.201,.166-.115,.337-.233,.575-.233,.244,0,.435,.113,.62,.221,.172,.101,.334,.197,.526,.197,.207,0,.414-.105,.615-.207,.183-.093,.372-.189,.566-.197,.178,0,.364,.104,.542,.206,.181,.102,.353,.198,.543,.198h0c.173-.007,.328-.104,.491-.207,.172-.107,.349-.218,.547-.225,.358,.031,.752,.285,.859,.483,.019-.025,.038-.05,.057-.076-.143-.217-.535-.468-.914-.5Z" fill="#243b99"/><path d="M15.979,23.474l7.944,.027c.025-.03,.046-.062,.07-.093l-8.088-.022c.023,.03,.05,.058,.074,.087Z" fill="#243b99"/><path d="M19.972,22.085l-.051,.002c-.434,.011-.755,.358-.858,.498h1.71c-.108-.146-.429-.5-.801-.5Z" fill="#243b99"/><path d="M19.972,21.992l-.054,.002c-.577,.015-.984,.562-.983,.635l.002,.048h.046l1.904-.014,.021-.028-.012-.029c-.021-.052-.413-.615-.926-.615Zm-.909,.593c.103-.139,.424-.487,.858-.498l.051-.002c.372,0,.693,.354,.801,.499h-1.71Z" fill="#243b99"/><path d="M24.224,22.103c-.153,0-.294,.082-.445,.167-.159,.092-.324,.187-.497,.187-.265-.011-.323-.063-.39-.123-.019-.017-.039-.034-.065-.052-.067,.098-.187,.193-.281,.258h2.014c.03-.059,.068-.114,.096-.174-.169-.153-.319-.259-.431-.264h-.001Z" fill="#243b99"/><path d="M23.733,22.19c-.148,.085-.302,.174-.465,.174h-.001c-.211-.01-.253-.047-.311-.098-.03-.027-.064-.057-.121-.088l-.042-.022-.022,.042c-.083,.162-.401,.347-.404,.349l-.15,.086h2.293c.017-.031,.035-.061,.051-.093h-2.014c.094-.065,.214-.161,.281-.258,.026,.017,.045,.035,.065,.052,.067,.06,.125,.112,.39,.123,.173,0,.338-.095,.497-.187,.15-.086,.291-.167,.445-.167h.001c.112,.005,.263,.111,.431,.264,.015-.032,.03-.065,.045-.098-.144-.128-.321-.252-.492-.26-.163,0-.323,.092-.477,.181Z" fill="#243b99"/><path d="M16.983,22.282c-.026,.017-.046,.035-.065,.052-.067,.06-.125,.112-.37,.123h-.001c-.193,0-.357-.095-.516-.187-.15-.086-.292-.168-.43-.168-.099,.004-.216,.071-.344,.171,.039,.09,.081,.18,.125,.268h1.881c-.094-.065-.213-.161-.28-.258Z" fill="#243b99"/><path d="M17.593,22.633l-.149-.086s-.32-.187-.403-.349l-.022-.042-.042,.022c-.057,.031-.091,.061-.121,.087-.059,.052-.1,.089-.328,.099-.148,0-.302-.088-.45-.174-.154-.089-.313-.181-.496-.181h0c-.12,.006-.247,.082-.366,.174,.013,.031,.029,.059,.042,.09,.128-.1,.246-.167,.344-.171,.138,0,.28,.082,.43,.168,.159,.092,.323,.187,.516,.187h.001c.244-.011,.302-.063,.37-.123,.019-.017,.039-.034,.065-.052,.067,.098,.186,.193,.28,.258h-1.881c.015,.031,.027,.062,.043,.093h2.168Z" fill="#243b99"/><path d="M16.804,21.766c-.035-.09-.092-.263-.106-.466-.237-.067-.479,.062-.7,.191-.154,.09-.3,.175-.445,.181h0c-.23,0-.45-.139-.587-.248l.118,.329,1.72,.013Z" fill="#243b99"/><path d="M16.917,21.793s-.113-.24-.127-.53l-.002-.031-.03-.01c-.281-.094-.574,.053-.807,.19-.144,.083-.28,.163-.419,.169-.267,0-.536-.246-.608-.317,.044,.198,.102,.391,.167,.582l1.857,.015-.032-.067Zm-1.364-.121h0c.145-.006,.29-.091,.445-.181,.221-.129,.463-.257,.7-.191,.015,.203,.071,.376,.106,.466l-1.72-.013-.118-.329c.137,.109,.357,.248,.587,.248Z" fill="#243b99"/><path d="M24.307,21.673c-.166-.007-.311-.092-.466-.182-.221-.129-.465-.257-.7-.191-.015,.203-.071,.376-.106,.466l1.72-.013,.118-.328c-.135,.109-.349,.247-.565,.247Z" fill="#243b99"/><path d="M24.29,21.579h0c-.121-.005-.257-.084-.401-.168-.234-.137-.526-.284-.808-.19l-.03,.01v.031c-.016,.289-.127,.528-.129,.53l-.032,.067,1.93-.015,.2-.556,.002-.008-.077-.047s-.33,.346-.655,.346Zm-1.256,.187c.035-.09,.092-.263,.106-.466,.236-.067,.48,.062,.7,.191,.155,.09,.3,.175,.466,.182,.216,0,.43-.138,.565-.247l-.118,.328-1.72,.013Z" fill="#243b99"/><path d="M19.63,21.741c0-.051,.094-.051,.094,0l-.003,.017,.6-.019c-.007-.021-.021-.049-.047-.075-.069-.07-.196-.107-.369-.107-.307,0-.377,.13-.397,.208l.128-.004c-.003-.006-.005-.012-.005-.02Z" fill="#243b99"/><path d="M19.904,21.464c-.203,0-.454,.056-.497,.33l-.051,.069,1.063-.033,.002-.042s.004-.099-.078-.185c-.088-.092-.236-.138-.44-.138Zm0,.093c.173,0,.301,.037,.369,.107,.026,.026,.04,.054,.047,.075l-.6,.019,.003-.017c0-.051-.094-.051-.094,0,0,.007,.002,.014,.005,.02l-.128,.004c.02-.079,.09-.208,.397-.208Z" fill="#243b99"/></g><g><path d="M18.89,15.505l.015,3.356c0,.026,.018,.049,.043,.055l1.926,.504,.015,.002c.013,0,.025-.004,.036-.012,.015-.011,.023-.028,.023-.046v-2.694c0-.015-.023-.029-.034-.041-.011-.011-.042-.016-.058-.016-.466,0-.859-.509-.875-.93-.016-.411,.296-.671,.854-.712,.03-.002,.053-.026,.054-.056,.001-.03-.02-.055-.05-.059-.292-.041-.55-.062-.765-.062-.89,0-1.037,.35-1.185,.711Zm1.554-.578c-.383,.125-.594,.394-.58,.761,.018,.464,.424,1.002,.967,1.039v2.562l-1.81-.474-.018-3.289c.134-.317,.26-.617,1.072-.617,.112,0,.235,.006,.369,.017Z" fill="#63001d"/><path d="M17.743,20.736c-.046,0-.084,.037-.084,.083,0,.046,.038,.084,.084,.084l4.354,.014h0c.046,0,.084-.037,.084-.083,0-.046-.038-.084-.084-.084l-4.354-.014h0Z" fill="#63001d"/><path d="M18.178,20.008l-.186-.244c-.018-.024-.053-.029-.077-.011-.024,.018-.029,.052-.011,.076l.244,.321,.025-.03,.004-.113Z" fill="#63001d"/><path d="M18.282,20.173c0,.025-.023,.039-.046,.044l-.019,.023,.203,.266c.011,.014,.027,.021,.044,.021,.012,0,.023-.003,.033-.01,.024-.018,.029-.052,.011-.076l-.218-.287-.007,.008v.011Z" fill="#63001d"/><path d="M18.542,19.769c-.023-.02-.058-.015-.077,.007l-.177,.209-.006,.177,.007-.008,.26-.308c.02-.023,.016-.057-.007-.076Z" fill="#63001d"/><path d="M18.227,20.225h-.002c-.03,0-.054-.026-.053-.056l.002-.048-.025,.03-.243,.288c-.019,.023-.016,.057,.007,.076,.01,.009,.023,.012,.035,.012,.016,0,.031-.007,.042-.019l.226-.268,.019-.023s-.004,.008-.008,.008Z" fill="#63001d"/><path d="M18.174,20.121l-.002,.048c0,.03,.023,.055,.053,.056h.002s.004-.007,.008-.008c.023-.006,.045-.02,.046-.044v-.011l.007-.177,.008-.23c0-.03-.022-.055-.053-.056-.03-.013-.056,.023-.057,.052l-.009,.257-.004,.113Z" fill="#63001d"/><path d="M19.106,20.173c0,.025-.023,.039-.046,.044l-.019,.022,.203,.266c.011,.014,.027,.021,.044,.021,.012,0,.023-.003,.033-.01,.024-.018,.029-.052,.011-.076l-.218-.287-.007,.008v.011Z" fill="#63001d"/><path d="M18.998,20.121l.004-.113-.186-.244c-.019-.024-.053-.029-.077-.011-.024,.018-.029,.052-.011,.076l.244,.321,.025-.03Z" fill="#63001d"/><path d="M19.106,20.162l.007-.008,.26-.308c.02-.023,.016-.057-.007-.076-.023-.02-.058-.015-.077,.007l-.177,.209-.006,.176Z" fill="#63001d"/><path d="M19.051,20.225h-.001c-.031,0-.054-.026-.053-.056l.002-.048-.025,.03-.242,.288c-.019,.023-.016,.057,.007,.076,.01,.009,.023,.012,.035,.012,.016,0,.031-.007,.042-.019l.226-.268,.019-.022s-.004,.008-.008,.008Z" fill="#63001d"/><path d="M18.998,20.121l-.002,.048c0,.03,.022,.055,.053,.056h.001s.004-.007,.008-.008c.023-.006,.045-.02,.046-.044v-.011l.007-.176,.008-.23c0-.03-.022-.055-.053-.056-.036-.013-.056,.023-.057,.052l-.009,.257-.004,.113Z" fill="#63001d"/><path d="M19.84,20.008l-.186-.244c-.019-.024-.053-.029-.077-.011-.024,.018-.029,.052-.011,.076l.244,.321,.025-.03,.004-.113Z" fill="#63001d"/><path d="M19.944,20.173c0,.025-.023,.039-.046,.044l-.019,.023,.203,.266c.011,.014,.027,.021,.044,.021,.012,0,.023-.003,.033-.01,.024-.018,.029-.052,.011-.076l-.218-.287-.007,.008v.011Z" fill="#63001d"/><path d="M19.944,20.162l.007-.008,.26-.308c.019-.023,.016-.057-.007-.076-.023-.02-.058-.015-.077,.007l-.177,.21-.006,.176Z" fill="#63001d"/><path d="M19.889,20.225h-.002c-.03,0-.054-.026-.053-.056l.002-.048-.025,.03-.242,.288c-.019,.023-.016,.057,.007,.076,.01,.009,.023,.012,.035,.012,.016,0,.031-.007,.042-.019l.226-.268,.019-.023s-.004,.008-.008,.008Z" fill="#63001d"/><path d="M19.906,19.699c-.027-.013-.055,.023-.057,.052l-.009,.257-.004,.113-.002,.048c0,.03,.022,.055,.053,.056h.002s.004-.007,.008-.008c.023-.006,.045-.02,.046-.044v-.011l.007-.176,.008-.23c0-.03-.022-.055-.053-.056Z" fill="#63001d"/><path d="M20.812,20.173c0,.027-.024,.046-.051,.049l-.015,.018,.203,.266c.011,.014,.027,.021,.044,.021,.012,0,.023-.003,.033-.01,.024-.018,.029-.052,.011-.076l-.218-.287-.006,.007v.012Z" fill="#63001d"/><path d="M20.709,20.01l-.187-.246c-.018-.024-.053-.029-.077-.011-.024,.018-.029,.052-.011,.076l.244,.321,.026-.031,.004-.11Z" fill="#63001d"/><path d="M20.813,20.161l.006-.007,.26-.308c.02-.023,.016-.057-.007-.076-.023-.02-.058-.015-.077,.007l-.176,.208-.006,.176Z" fill="#63001d"/><path d="M20.758,20.225h-.002c-.03,0-.054-.026-.053-.056l.002-.049-.026,.031-.242,.288c-.02,.023-.016,.057,.007,.076,.01,.009,.023,.012,.035,.012,.016,0,.031-.007,.042-.019l.226-.268,.015-.018-.003,.003Z" fill="#63001d"/><path d="M20.705,20.12l-.002,.049c0,.03,.022,.055,.053,.056h.002l.003-.003c.027-.002,.05-.021,.051-.049v-.012l.007-.176,.008-.229c.001-.03-.022-.055-.053-.056-.034-.013-.056,.023-.056,.052l-.009,.258-.004,.11Z" fill="#63001d"/><path d="M21.65,20.173c0,.025-.023,.039-.046,.044l-.019,.022,.203,.266c.011,.014,.027,.021,.044,.021,.012,0,.023-.003,.033-.01,.024-.018,.029-.052,.011-.076l-.218-.287-.007,.008v.011Z" fill="#63001d"/><path d="M21.547,20.009l-.186-.245c-.018-.024-.053-.029-.077-.011-.024,.018-.029,.052-.011,.076l.244,.321,.026-.03,.004-.112Z" fill="#63001d"/><path d="M21.91,19.769c-.023-.02-.058-.015-.077,.007l-.176,.209-.007,.177,.007-.008,.26-.308c.02-.023,.016-.057-.007-.076Z" fill="#63001d"/><path d="M21.595,20.225h-.002c-.03,0-.054-.026-.053-.056l.002-.048-.026,.03-.242,.288c-.019,.023-.016,.057,.007,.076,.01,.009,.023,.012,.035,.012,.016,0,.031-.007,.042-.019l.226-.268,.019-.022s-.004,.008-.008,.008Z" fill="#63001d"/><path d="M21.543,20.121l-.002,.048c-.001,.03,.022,.055,.053,.056h.002s.004-.007,.008-.008c.023-.006,.045-.019,.046-.044v-.011l.007-.177,.009-.23c0-.03-.022-.055-.053-.056-.039-.013-.056,.022-.057,.052l-.01,.258-.004,.112Z" fill="#63001d"/><path d="M19.447,21.309c.007-.028-.008-.056-.035-.067-.027-.01-.058,0-.072,.024-.16,.26-.458,.41-.817,.41-.382,0-.753-.17-.886-.406-.047-.126-.039-1.844-.021-2.897,0-.023-.013-.044-.034-.054-.031-.014-.095-.056-.097-.096,0-.009,.031-.029,.05-.041,.048-.031,.121-.077,.121-.169,0-.097-.08-.129-.128-.147-.05-.019-.055-.026-.056-.039,0-.017,.016-.028,.064-.051,.051-.025,.127-.062,.119-.153-.008-.093-.09-.128-.15-.155-.042-.019-.071-.033-.072-.05-.002-.03,.08-.086,.116-.111l.053-.039c.018-.016,.012-.041,.003-.064-.022-.057-.159-.038-.179-.039h-.006l-.321,.006c-.069,0-.134,0-.155,.051-.009,.022,.024,.084,.042,.101,.025,.023,.056,.052,.055,.083,0,.024-.026,.053-.051,.081-.032,.035-.067,.075-.075,.131-.003,.066,.05,.11,.097,.148,.028,.023,.067,.054,.068,.072-.004,.008-.035,.024-.051,.032-.045,.024-.114,.058-.108,.134,.008,.092,.065,.144,.106,.181,.017,.015,.038,.035,.039,.041-.006,.012-.047,.034-.069,.046-.053,.029-.114,.061-.115,.128,.007,.115,.026,2.957,.027,2.996,.148,.75,.668,1.274,1.264,1.274,.588,0,1.065-.509,1.273-1.361Zm-1.273,1.245c-.54,0-1.012-.485-1.148-1.169,0-.117-.02-2.874-.03-2.975,.007-.009,.038-.025,.057-.035,.057-.031,.128-.068,.13-.142,.001-.061-.041-.1-.076-.132-.035-.031-.064-.058-.07-.098,.005-.007,.031-.021,.047-.029,.046-.023,.115-.059,.113-.136-.001-.073-.061-.122-.11-.161-.019-.016-.052-.042-.056-.048,.002-.017,.025-.042,.045-.065,.036-.04,.079-.088,.081-.155,0-.049-.019-.088-.046-.122l.277-.005c-.043,.04-.077,.088-.073,.145,.006,.086,.085,.121,.142,.146,.055,.024,.079,.038,.081,.059,0,.01-.016,.02-.054,.039-.051,.025-.128,.063-.129,.157,.003,.096,.083,.127,.13,.145,.051,.02,.053,.025,.053,.039,0,.026-.021,.043-.067,.072-.046,.029-.108,.069-.103,.146,.006,.088,.083,.148,.131,.176-.047,2.928,.015,2.934,.04,2.921,.151,.274,.556,.465,.985,.465,.292,0,.547-.09,.736-.252-.219,.64-.614,1.015-1.085,1.015Z" fill="#63001d"/><path d="M21.355,21.675c-.359,0-.657-.15-.818-.41-.015-.024-.045-.034-.072-.023-.027,.011-.041,.04-.035,.067,.209,.853,.685,1.361,1.274,1.361,.596,0,1.116-.524,1.265-1.284,0-.029,.019-2.871,.025-2.989,0-.064-.061-.096-.115-.125-.022-.012-.063-.034-.069-.043,0-.008,.023-.03,.039-.043,.041-.038,.098-.089,.106-.182,.006-.075-.062-.11-.107-.133-.016-.009-.046-.024-.05-.031,0-.02,.039-.052,.067-.074,.047-.039,.101-.083,.097-.154-.008-.051-.043-.09-.074-.125-.025-.028-.051-.057-.052-.082,0-.031,.03-.06,.055-.082,.017-.017,.05-.078,.041-.101-.02-.051-.085-.051-.154-.051l-.327-.006c-.008,0-.064,.003-.127,.002-.022-.012-.036,.024-.045,.047-.009,.024,.01,.061,.03,.077,.048,.039,.085,.073,.082,.115-.002,.023-.013,.032-.049,.056-.042,.028-.099,.066-.107,.152-.007,.088,.063,.128,.109,.155,.045,.025,.059,.037,.059,.054,0,.017-.005,.023-.052,.042-.045,.019-.121,.05-.121,.146,0,.091,.068,.138,.113,.168,.022,.015,.047,.032,.046,.043-.002,.04-.066,.082-.096,.096-.021,.01-.035,.031-.034,.054,.017,1.053,.026,2.771-.025,2.899-.129,.234-.5,.404-.883,.404Zm1.025-3.27c.048-.028,.125-.088,.13-.176,.005-.076-.054-.116-.096-.145-.043-.03-.062-.045-.062-.073,0-.015,.002-.02,.049-.04,.045-.018,.12-.05,.123-.147,0-.089-.071-.129-.118-.156-.042-.024-.052-.033-.051-.044,.002-.028,.016-.04,.055-.066,.04-.027,.096-.063,.101-.144,.004-.053-.015-.096-.044-.134l.298,.006c-.024,.031-.046,.071-.044,.122,.001,.066,.045,.115,.081,.155,.02,.023,.043,.048,.045,.058-.003,.012-.036,.038-.055,.054-.048,.04-.108,.088-.11,.161-.002,.077,.067,.112,.113,.136l.044,.022c-.003,.046-.033,.073-.068,.105-.035,.032-.078,.071-.077,.133,.003,.073,.074,.111,.13,.141,.019,.011,.051,.026,.053,.021-.006,.118-.024,2.873-.024,2.98-.137,.695-.61,1.18-1.149,1.18-.471,0-.866-.375-1.085-1.015,.188,.163,.445,.253,.736,.253,.429,0,.835-.191,.95-.436,.055-.015,.122-.034,.076-2.95Z" fill="#63001d"/><path d="M18.674,21.148c.003,.006-.126,.087-.248,.193h.441c.11-.06,.201-.115,.276-.203l-.469,.011Z" fill="#63001d"/><path d="M18.929,21.498c.179-.095,.336-.193,.448-.411l.064-.125-.815,.03c-.013,.007-.31,.183-.466,.38l-.106,.135h.856l.018-.01Zm-.503-.157c.121-.105,.251-.187,.248-.193l.469-.011c-.075,.088-.166,.144-.276,.203h-.441Z" fill="#63001d"/><path d="M21.399,21.343c-.134-.116-.286-.206-.288-.207l-.434-.002c.079,.094,.177,.152,.297,.216l.425-.007Z" fill="#63001d"/><path d="M20.934,21.507h.833l-.106-.135c-.155-.198-.452-.374-.505-.392l-.774-.018,.064,.125c.112,.218,.269,.315,.488,.42Zm.177-.371s.154,.091,.288,.207l-.425,.007c-.12-.064-.218-.121-.297-.216l.434,.002Z" fill="#63001d"/></g><path d="M2,26H38V14H2v12ZM21.608,15.04c.035,.011,.064,.028,.098,.039,.237,.079,.465,.167,.678,.274,.008,.004,.016,.01,.024,.014,.102,.052,.193,.115,.289,.172,.064,.039,.131,.074,.193,.115,.078,.052,.156,.103,.23,.158,.127,.094,.247,.196,.362,.301,.056,.051,.114,.098,.167,.151,.021,.021,.039,.045,.06,.067,.089,.092,.172,.188,.253,.285,.027,.032,.058,.062,.084,.094,.048,.062,.092,.126,.137,.189,.087,.122,.169,.247,.245,.376,.044,.074,.085,.149,.125,.225,.028,.053,.05,.108,.076,.162,.161,.336,.296,.685,.384,1.048,.045,.186,.074,.375,.1,.565,.016,.114,.029,.227,.037,.342,.013,.172,.023,.344,.02,.517-.006,.386-.062,.77-.148,1.147l-.002,.008c-.077,.335-.178,.664-.319,.98-.015,.033-.029,.065-.045,.098-.028,.06-.065,.115-.096,.174-.016,.031-.034,.062-.051,.093-.113,.208-.241,.407-.384,.599-.019,.025-.038,.051-.057,.076-.026,.033-.05,.067-.076,.1-.024,.03-.045,.063-.07,.093-.182,.214-.38,.417-.603,.604-.025,.021-.053,.038-.078,.059-.017,.013-.036,.024-.053,.038-.041,.032-.087,.061-.13,.092-.134,.099-.263,.202-.41,.29-.174,.124-.348,.227-.524,.315-.09,.045-.182,.079-.273,.116-.176,.072-.356,.133-.54,.18-.241,.062-.486,.113-.745,.145-.568,0-1.136,0-1.703-.095-.374-.076-.716-.202-1.043-.347-.384-.171-.74-.38-1.056-.631-.032-.025-.06-.055-.091-.081-.051-.043-.1-.088-.149-.132-.026-.023-.052-.045-.078-.069-.169-.16-.325-.33-.469-.51-.024-.03-.051-.057-.074-.087-.042-.055-.082-.111-.122-.167-.018-.025-.032-.052-.05-.078-.111-.164-.217-.332-.309-.508-.016-.03-.028-.062-.043-.093-.044-.088-.085-.177-.125-.268-.013-.03-.029-.059-.042-.09-.046-.111-.085-.224-.123-.338-.065-.191-.123-.385-.167-.582-.03-.133-.054-.266-.075-.401-.06-.4-.074-.806-.047-1.212,.008-.116,.008-.233,.023-.348,.054-.418,.165-.829,.318-1.228,.042-.108,.087-.215,.136-.322,.176-.381,.393-.747,.668-1.086,.086-.106,.187-.203,.283-.304,.09-.095,.171-.194,.27-.283,.211-.188,.429-.352,.653-.496,.12-.077,.249-.135,.373-.2,.35-.185,.713-.341,1.105-.45,.257-.072,.523-.13,.801-.177,.608,0,1.157,.008,1.741,.155,.143,.036,.286,.073,.435,.129Z" fill="#e3e7ea"/></svg>