<?xml version="1.0" encoding="UTF-8"?><svg id="a" xmlns="http://www.w3.org/2000/svg" viewBox="0 0 40 40"><rect x="2" y="8" width="36" height="24" rx="4" ry="4" fill="#4979bf"/><path d="M11.755,19.579q-.177-.36-.177-.718c-.089,0-.106,.017-.157,.003-.051-.014-.07,.331-.237,.263-.027-.034,.12-.283-.039-.387-.052-.034,.012-.238-.01-.328,0,0-.202,.107-.354-.269-.075-.099-.178,.09-.178,.09,0,0,.045,.115-.036,.143-.113-.084-.196-.04-.34-.156-.144-.116,.031-.248-.244-.346,.178-.448,.178-.359,.62-.538q-.266-.179-.442-.448c-.266-.09-.354-.18-.62-.36-.355-.449-.532-1.346-.532-1.974,.224-.211,.532,.718,.973,.988l.62,.27c.354,.179,.444,.358,.709,.537l.796,.27c.355,.27,.532,.628,.797,.718,.289,0,.344-.167,.437-.179,.52-.027,.785-.095,.89-.253,.104-.126,.357,.073,1.065-.196l-.088-.359s.188-.156,.442-.09c-.006-.163-.022-.6,.229-.799-.153-.161-.051-.278-.051-.278,0,0,.14-.137,.158-.211-.075-.395,.065-.401,.096-.518,.031-.116-.121-.076-.078-.237,.044-.16,.299-.198,.333-.331,.034-.132-.073-.198-.067-.23,.057-.126,.009-.424,0-.538,.477-.129,.631-.522,.798-.359,.088-.539,.178-.718,.709-.718,.075-.165-.194-.306-.089-.36,.177-.023,.313-.011,.521,.261,.066,.086,.078-.126,.143-.149,.068-.023,.226-.023,.249-.129,.025-.109,.062-.252,.15-.432,.075-.146,.133,.056,.198,.342,.375,.014,1.218,.098,1.572,.196,.266,.07,.442-.07,.697-.098,.188,.191,.366,.048,.464,.454,.14,.219,.372,.02,.421,.084,.295,.828,1.314,.27,1.391,.284,.13,0,.29,.37,.391,.36,.166-.028,.12-.143,.264-.096-.039,.311,.285,.671,.285,.902,0,0,.079,.04,.152-.029,.073-.069,.14-.247,.205-.242,.155,.022,.218,.042,.397,.073,.48,.166,.724,.204,.911,.289,.086,.161,.17,.243,.346,.214,.145,.098,.039,.228,.126,.237,.176-.09,.234-.188,.412-.098,.176,.09,.354,.269,.442,.448,0,.09-.088,.448,0,.988,.045,.179,.066,.321,.257,.629-.051,.316,.239,.848,.239,.984,0,.179-.14,.272-.23,.451,.354,.269,0,.717-.176,.987,1.327,.27,.708,.808,1.771,.538-.266,.628-.172,.578,.094,1.206-.532,.36-.012,.469-.366,.917-.023,.028,.21,.391,.537,.391-.089,.717-.355,.448-.265,1.525-.698-.013-.416,.806-.886,.719,.027,.513,.267,.557,.176,1.077q-.354,.089-.532,.358l-.264-.089c-.089,.448-.266,.537,0,.987,0,0-.343,.011-.444,0-.009,.154,.152,.196,.178,.36-.015,.064-.505,.347-.885,.358-.1,.221,.266,.457,.243,.569-.415,.082-.599,.597-.599,.597,0,0,.214,.087,.178,.18-.113-.085-.178-.09-.354-.09-.088,.023-.305-.006-.512,.348-.227,.075-.333,.048-.506,.28-.076-.22-.185,.001-.319,.088-.135,.085-.316,.296-.339,.287,.005-.06,.082-.286,.082-.286l-.443,.091-.055,.005c-.034,.004-.025-.262-.109-.252-.083,.009-.324,.334-.406,.344-.081,.01-.108-.103-.178-.094-.07,.01-.208,.342-.257,.351-.051,.009-.248-.202-.418-.173-.87,.312-1.009-.615-1.145-.092-.182-.099-.151-.041-.336,.007-.118,.032-.13-.157-.235-.156-.21,.006-.2,.209-.315,.149-.094-.422-.662-.345-.717-.526-.045-.186,.246-.186,.341-.312,.071-.183-.075-.252,.216-.429,.381-.261,.161-.36,.229-.556,.119-.283,.119-.351,.021-.601,0,0-.297-.808-.355-.808-.176-.051-.176,.297-.437,.394-.53,.179-1.468-.456-1.632-.456-.15,.003-.841,.167-.816-.183-.103,.34-.484,.08-.508,.08-.354,0-.218,.278-.455,.267-.109-.036-1.199-.101-1.199-.101v.18l-.708-.359-.62-.18c-.531-.18-.266-.628-1.151-.359v-.538h-.443c.177-1.076,0-.538-.089-1.526l-.354,.09c-.354-.485,.493-.393-.265-.718,0,0,.013-.535-.178-.359-.039,.022,.089,.269,.089,.269-.709-.089-.885-.269-.885-.987,0,0,.583,.084,.53,0-.082-.134-.19-1.011-.172-1.068-.007-.118,.543-.415,.436-.698,.069-.026,.268-.028,.268-.028h0Z" fill="#e3e7ea"/><path d="M29.767,22.397c-.015,0-.029-.008-.037-.02-.037-.056-.041-.132-.01-.202,.008-.018,.025-.031,.044-.027,.019,.002,.034,.015,.039,.033,.027,.069,.049,.121,0,.195-.008,.012-.022,.02-.037,.02h0Z" fill="#e3e7ea"/><path d="M8.864,15.737h-.005c-.023-.002-.043-.019-.049-.042-.016-.061,0-.1,.017-.122,.026-.034,.07-.052,.125-.052,.019,.002,.046,.015,.055,.032,.008,.017,.019,.038,.009,.054-.046,.031-.075,.043-.101,.098-.01,.02-.029,.032-.05,.032h0Z" fill="#e3e7ea"/><path d="M8.864,15.462h-.005c-.023-.002-.042-.019-.048-.042-.014-.056-.01-.098,.014-.13,.035-.048,.097-.049,.147-.049h0c.018,0,.047,.008,.057,.022,.011,.014,.027,.032,.022,.049-.005,.017-.03,.037-.046,.043-.022,.008-.067,.024-.091,.076-.01,.02-.029,.032-.05,.032h0Z" fill="#e3e7ea"/><path d="M9.595,17.071c-.021,0-.04-.012-.05-.031-.03-.062-.055-.08-.064-.086-.01-.017-.02-.048-.011-.065,.009-.017,.015-.039,.034-.041,.038,0,.089,.005,.125,.051,.017,.023,.035,.065,.019,.13-.006,.023-.025,.039-.048,.042h-.006Z" fill="#e3e7ea"/></svg>