<?xml version="1.0" encoding="UTF-8"?><svg id="Layer_1" xmlns="http://www.w3.org/2000/svg" viewBox="0 0 40 40"><g><rect x="3.5" y="3.5" width="33" height="33" rx="8" ry="8" fill="#007ff2"/><g><path d="m12.815,24.114c1.33,0,2.27-.952,2.27-2.634v-6.135h2.227v6.135c0,3.082-2.101,4.524-4.496,4.524-2.382,0-4.497-1.442-4.497-4.524v-6.135h2.241v6.135c0,1.682.925,2.634,2.256,2.634Z" fill="#fff"/><path d="m27.321,18.89c0,2.129-1.639,3.558-4.021,3.558h-1.807v3.348h-2.241v-10.449h4.356c2.325,0,3.712,1.4,3.712,3.544Zm-4.664,1.681c1.345,0,2.353-.462,2.353-1.681,0-1.205-.98-1.681-2.283-1.681h-1.232v3.361h1.163Z" fill="#fff"/><path d="m30.216,22.994c.826,0,1.513.658,1.513,1.513s-.687,1.513-1.513,1.513c-.841,0-1.527-.658-1.527-1.513s.687-1.513,1.527-1.513Zm1.261-7.929l-.225,7.018h-2.087l-.224-7.018h2.535Z" fill="#fff"/></g></g><rect width="40" height="40" fill="none"/></svg>