<?xml version="1.0" encoding="UTF-8"?><svg id="a" xmlns="http://www.w3.org/2000/svg" viewBox="0 0 40 40"><path d="M2,24H38v-8H2v8Zm23.854-6.228l.276-.851,.275,.851h.89l-.721,.526,.276,.851-.721-.526-.721,.526,.276-.851-.721-.526h.891Zm0,3.695l.276-.851,.275,.851h.89l-.72,.526,.276,.851-.721-.526-.721,.526,.276-.851-.721-.526h.891Zm-6.129-1.847l.275-.851,.275,.851h.891l-.72,.526,.275,.851-.721-.526-.721,.526,.275-.851-.72-.526h.89Zm-6.129-1.847l.275-.851,.276,.851h.891l-.721,.526,.276,.851-.721-.526-.721,.526,.276-.851-.721-.526h.89Zm0,3.695l.275-.851,.276,.851h.891l-.721,.526,.276,.851-.721-.526-.721,.526,.276-.851-.72-.526h.89Z" fill="#e3e7ea"/><g><path d="M2,28c0,2.209,1.791,4,4,4h28c2.209,0,4-1.791,4-4v-4H2v4Z" fill="#374ba4"/><path d="M34,8H6c-2.209,0-4,1.791-4,4v4H38v-4c0-2.209-1.791-4-4-4Z" fill="#374ba4"/><polygon points="19.279 20.997 20 20.471 20.721 20.997 20.445 20.146 21.166 19.619 20.275 19.619 20 18.769 19.725 19.619 18.834 19.619 19.555 20.146 19.279 20.997" fill="#374ba4"/><polygon points="25.408 22.844 26.129 22.318 26.85 22.844 26.574 21.993 27.295 21.467 26.404 21.467 26.13 20.616 25.854 21.467 24.963 21.467 25.684 21.993 25.408 22.844" fill="#374ba4"/><polygon points="25.408 19.149 26.129 18.623 26.85 19.149 26.574 18.298 27.295 17.772 26.404 17.772 26.13 16.921 25.854 17.772 24.963 17.772 25.684 18.298 25.408 19.149" fill="#374ba4"/><polygon points="13.15 22.844 13.871 22.318 14.592 22.844 14.316 21.993 15.037 21.467 14.146 21.467 13.87 20.616 13.596 21.467 12.705 21.467 13.426 21.993 13.15 22.844" fill="#374ba4"/><polygon points="13.15 19.149 13.871 18.623 14.592 19.149 14.316 18.298 15.037 17.772 14.146 17.772 13.87 16.921 13.596 17.772 12.705 17.772 13.426 18.298 13.15 19.149" fill="#374ba4"/></g></svg>