<svg id="Layer_1" data-name="Layer 1" xmlns="http://www.w3.org/2000/svg" viewBox="0 0 40 40"><defs><style>.cls-1{fill:#007ff2;}.cls-2{fill:#fff;}.cls-3{fill:none;}</style></defs><rect class="cls-1" x="3.5" y="3.5" width="33" height="33" rx="8"/><path class="cls-2" d="M7.916,20.271c0-4.4,3.025-6.613,6.408-6.613,3.365,0,6.391,2.21,6.391,6.613a6.146,6.146,0,0,1-6.391,6.578A6.15,6.15,0,0,1,7.916,20.271Zm6.408,4.284c1.887,0,3.586-1.072,3.586-4.284,0-3.23-1.7-4.318-3.586-4.318-1.9,0-3.6,1.088-3.6,4.318C10.721,23.483,12.42,24.555,14.324,24.555Z"/><path class="cls-2" d="M24.763,23.075v3.519h-2.72V13.913h2.72V19.1l4.266-5.185h3.3l-4.777,5.8,5.117,6.884H29.3l-3.519-4.777Z"/><rect class="cls-3" width="40" height="40"/></svg>