<svg id="Layer_1" data-name="Layer 1" xmlns="http://www.w3.org/2000/svg" xmlns:xlink="http://www.w3.org/1999/xlink" viewBox="0 0 40 40"><defs><style>.cls-1{fill:none;}.cls-2{fill:#cb0423;}.cls-3{fill:#fcff2c;}.cls-4{clip-path:url(#clip-path);}.cls-5{fill:#499343;}.cls-6{fill:#f5d12a;}.cls-7{fill:#ca2027;}.cls-8{fill:#e5e8eb;}.cls-9{clip-path:url(#clip-path-2);}.cls-10{fill:#f3ea32;}</style><clipPath id="clip-path"><rect class="cls-1" x="1.426" y="9.018" width="37.147" height="21.965" rx="4"/></clipPath><clipPath id="clip-path-2"><rect class="cls-1" x="1.426" y="9.018" width="37.147" height="21.965"/></clipPath></defs><polygon class="cls-2" points="22.338 21.525 25.856 19.034 21.81 18.446 19.999 14.774 18.19 18.446 14.144 19.034 17.661 21.525 16.889 25.226 20 23.442 23.109 25.226 22.338 21.525"/><path d="M22.114,24.785a6.768,6.768,0,0,1,.412-2.309,7.915,7.915,0,0,1,.556-1.2,1.135,1.135,0,0,1,.32.063c.336.1.431.082.431-.083,0-.087-.349-.4-2.046-1.824-1.147-.949-2.086-1.709-2.132-1.709a.12.12,0,0,1-.1-.054c-.009-.033-.062-.406-.121-.827a6.984,6.984,0,0,0-.171-.93.72.72,0,0,0-.688-.411.708.708,0,0,0-.511.1.849.849,0,0,1-.372.121.354.354,0,0,0-.363.348v.131l.293-.01c.162,0,.249,0,.183.015-.21.043-.125.343.124.426.266.1.257.043.257,1.3a4.481,4.481,0,0,1-.085,1.4,2.385,2.385,0,0,0,0,1.21,2.435,2.435,0,0,1,.085.285,3.324,3.324,0,0,1-.284.378,1.69,1.69,0,0,0-.455.949.46.46,0,0,1-.08.218.427.427,0,0,0-.009.493,11,11,0,0,1,.54,2.227c0,.121.019.121.675-.024a9.964,9.964,0,0,1,2.418-.049c.288.044.631.112.757.146.388.106.366.125.368-.378"/><path class="cls-3" d="M21.579,25.042a7.3,7.3,0,0,0-1.963-.16c-.372.019-.762.048-.866.068l-.189.034-.046-.315a2.165,2.165,0,0,1-.036-.329,2.637,2.637,0,0,1,.4-.073,12.147,12.147,0,0,1,3.018.082l.13.025v.382c0,.281-.012.378-.05.378s-.206-.044-.4-.092"/><path class="cls-3" d="M17.98,25.071c0-.087-.23-1.186-.329-1.574-.065-.261-.126-.493-.126-.513s.068,0,.141.058a.505.505,0,0,0,.215.092c.211,0,.327.32.506,1.39.026.15.051.319.063.372.014.088-.007.107-.187.146-.232.058-.283.063-.283.029"/><path class="cls-3" d="M21.971,24.233c-.012-.024,0-.063.039-.1.051-.043.063-.038.063.02,0,.077-.068.14-.1.077"/><path class="cls-3" d="M18.682,24.059c.112-.121.114-.121.2-.034s.082.087.009.121a.678.678,0,0,1-.2.034l-.121,0Z"/><path class="cls-3" d="M21.383,24.132a.3.3,0,0,1,.1-.112c.073-.053.09-.043.153.054l.075.111h-.17c-.111,0-.164-.019-.155-.053"/><path class="cls-3" d="M21.746,24.064c-.046-.068-.08-.136-.07-.14a1.015,1.015,0,0,1,.186.019l.177.034-.1.106-.1.107Z"/><path class="cls-3" d="M18.406,24.074c-.034-.092.037-.16.155-.16.094,0,.092.01-.029.13-.094.1-.1.1-.126.03"/><path class="cls-3" d="M19.36,23.986l.106-.121.1.1a1.313,1.313,0,0,0,.119.112,1.006,1.006,0,0,1-.211.029l-.229.009Z"/><path class="cls-3" d="M20.807,24.1l-.135-.029.1-.107.1-.1.119.131c.128.155.113.165-.182.1"/><path class="cls-3" d="M19,23.977l-.094-.112h.15a.622.622,0,0,0,.215-.029c.058-.029.054,0-.021.107a.553.553,0,0,1-.126.15A.524.524,0,0,1,19,23.977"/><path class="cls-3" d="M20.047,23.953l.116-.136.117.121a.79.79,0,0,1,.113.14.84.84,0,0,1-.235.015h-.232Z"/><path class="cls-3" d="M21.129,23.977l-.1-.112h.191c.209,0,.235.034.119.15-.094.1-.1.1-.213-.038"/><path class="cls-3" d="M19.7,23.928l-.094-.111h.438l-.1.111c-.119.146-.124.146-.245,0"/><path class="cls-3" d="M20.434,23.928l-.1-.111h.435l-.092.111c-.121.146-.128.146-.247,0"/><path class="cls-3" d="M21.746,23.817c-.1-.019-.508-.063-.9-.092a11.288,11.288,0,0,0-2.3.077c-.158.025-.2.015-.2-.043a5.283,5.283,0,0,1,2.088-.189c.618,0,1.249.019,1.4.039.259.034.276.043.276.14,0,.126-.034.131-.366.068"/><path class="cls-3" d="M18.561,23.425a.773.773,0,0,1,.189-.155.443.443,0,0,1,.126.107l.092.116-.2.029c-.112.019-.237.034-.281.048-.061.015-.044-.024.07-.145"/><path class="cls-3" d="M18.273,23.449c-.031-.087-.022-.111.046-.145a.313.313,0,0,1,.16-.02c.07.01.063.025-.044.141l-.128.131Z"/><path class="cls-3" d="M22.073,23.5c0-.019.027-.048.058-.067s.051,0,.036.043c-.024.073-.094.092-.094.024"/><path class="cls-3" d="M19.321,23.343c.061-.078.111-.141.111-.146a.794.794,0,0,1,.131.121l.126.126-.24.015-.237.019Z"/><path class="cls-3" d="M21.507,23.464l-.172-.015.123-.116.126-.116.1.106c.109.107.126.179.048.165-.029,0-.128-.01-.227-.024"/><path class="cls-3" d="M18.977,23.343l-.118-.107.2-.034a.636.636,0,0,1,.208-.019c.01.014-.026.077-.079.145l-.092.116Z"/><path class="cls-3" d="M20.768,23.415l-.094-.034.1-.1c.087-.1.114-.107.17-.049a.511.511,0,0,1,.1.141c.036.067.026.082-.073.077a1.311,1.311,0,0,1-.211-.034"/><path class="cls-3" d="M21.8,23.309l-.121-.141.1.029a1.232,1.232,0,0,0,.267.029h.162l-.121.117a1.758,1.758,0,0,1-.148.111.7.7,0,0,1-.143-.145"/><path class="cls-3" d="M19.7,23.3a.493.493,0,0,1-.085-.131c0-.019.1-.038.23-.038h.233l-.08.1c-.136.165-.2.184-.3.068"/><path class="cls-3" d="M20.079,23.294c.133-.131.179-.131.264.015.062.1.058.1-.155.1h-.223Z"/><path class="cls-3" d="M21.1,23.27l-.1-.14h.1a.987.987,0,0,1,.223.033l.128.025-.118.111a.645.645,0,0,1-.128.107.727.727,0,0,1-.112-.136"/><path class="cls-3" d="M20.434,23.246l-.1-.116h.435l-.092.116c-.121.14-.128.14-.247,0"/><path class="cls-3" d="M18.247,23.105c.016-.048.05-.184.077-.309l.048-.233.453-.251a4.714,4.714,0,0,0,.607-.388c.09-.077.184-.155.211-.174a11.86,11.86,0,0,1,1.774.135c.4.068,1.109.2,1.138.223a4.572,4.572,0,0,1-.141.46c-.08.252-.155.479-.164.518s-.061.048-.2.024a16.916,16.916,0,0,0-3.357.02c-.423.072-.484.067-.447-.025"/><path d="M21.666,22.82a.462.462,0,0,0-.29-.78.42.42,0,0,0-.409.46.4.4,0,0,0,.7.32"/><path class="cls-3" d="M21.223,22.81a.377.377,0,0,1,.027-.629.32.32,0,0,1,.453.324.336.336,0,0,1-.48.3"/><path d="M20.021,22.8a.48.48,0,0,0-.105-.78.38.38,0,0,0-.51.179.423.423,0,0,0,.063.557.347.347,0,0,0,.552.044"/><path class="cls-3" d="M19.628,22.771a.371.371,0,0,1,.134-.682.362.362,0,0,1,.14.663c-.133.077-.15.077-.274.019"/><path class="cls-3" d="M18.062,22.975c.059-.17.049-.388-.014-.388-.031,0-.053.059-.053.16a.383.383,0,0,1-.056.218c-.043.048-.048.014-.031-.208.014-.145.007-.257-.012-.257-.037,0-.107.218-.134.407-.014.116-.014.116-.048-.024a.374.374,0,0,1,.053-.3.856.856,0,0,0,.09-.3c0-.112.075-.223.452-.63.252-.271.543-.605.651-.745.182-.242.192-.266.182-.513a1.127,1.127,0,0,0-.029-.286c-.051-.053-.114.218-.087.368s0,.184-.266.513c-.16.2-.431.5-.6.683-.314.314-.426.479-.426.639a1.015,1.015,0,0,1-.082.285.482.482,0,0,0-.051.242c.012.029,0,.029-.026,0s-.039-.1-.01-.247a.7.7,0,0,0,.022-.237c-.044-.077-.1.02-.121.237-.017.126-.046.218-.063.2-.061-.044-.041-.266.031-.378a1.125,1.125,0,0,0,.1-.319,1.89,1.89,0,0,1,.472-.92c.143-.174.262-.32.262-.329s-.041-.141-.087-.291a2.3,2.3,0,0,1-.017-1.176,2.633,2.633,0,0,1,.653-1.016c.344-.359.676-.572.835-.547.136.024,4.1,3.344,4.1,3.432a.065.065,0,0,1-.07.063c-.039,0-1.048-.3-2.242-.673-1.907-.6-2.18-.7-2.26-.8a.473.473,0,0,1-.012-.537.421.421,0,0,0,.085-.179c0-.1-.2.159-.245.3a.662.662,0,0,0,.165.566,6.538,6.538,0,0,0,.806.3c.672.208.721.232.76.353.082.286-.2.62-.61.717a1.214,1.214,0,0,0-.417.2,5.477,5.477,0,0,1-1.053.721,1.775,1.775,0,0,0-.341.184.921.921,0,0,0-.089.3c-.049.28-.071.324-.146.324-.048,0-.05-.024-.017-.116"/><path class="cls-3" d="M22.216,21.924a13.266,13.266,0,0,0-1.765-.256L19.8,21.61l.247-.107a2.757,2.757,0,0,0,.429-.2.631.631,0,0,1,.472-.092c.363.029.609-.039.7-.2a1.071,1.071,0,0,1,.082-.141,4.969,4.969,0,0,1,.641.179l.637.194-.124.237c-.07.121-.155.291-.191.373-.073.169-.1.174-.479.077"/><path class="cls-3" d="M20.773,21.1c-.034-.029-.029-.053.008-.116s.065-.058.084-.034c.034.068-.034.189-.092.15"/><path class="cls-3" d="M20.926,21.087c0-.058.029-.058.063,0,.009.024,0,.043-.02.043a.043.043,0,0,1-.043-.043"/><path class="cls-3" d="M21.129,21.058c0-.039.02-.058.041-.039.053.034.053.111,0,.111-.021,0-.041-.029-.041-.072"/><path class="cls-3" d="M21.323,21.058a.182.182,0,0,1-.029-.107c0-.043.009-.048.046-.019a.129.129,0,0,1,.029.106c-.008.029-.029.039-.046.02"/><path class="cls-3" d="M21,20.966a.179.179,0,0,1-.029-.1c0-.053.012-.058.046-.019a.134.134,0,0,1,.029.1c-.01.03-.029.039-.046.02"/><path class="cls-3" d="M21.475,20.946c-.043-.082.007-.092.063-.019.032.039.036.063.01.063a.1.1,0,0,1-.073-.044"/><path class="cls-3" d="M21.151,20.859a.055.055,0,0,1,.019-.067c.022-.02.041,0,.041.043,0,.082-.026.087-.06.024"/><path class="cls-3" d="M21.335,20.787c0-.039.019-.054.041-.044.053.039.053.116,0,.116-.022,0-.041-.034-.041-.072"/><path class="cls-3" d="M20.844,20.743c0-.077.026-.082.06-.024a.069.069,0,0,1-.019.073c-.02.014-.041-.005-.041-.049"/><path class="cls-3" d="M21.008,20.7c0-.034.017-.058.039-.039.055.034.055.111,0,.111-.022,0-.039-.034-.039-.072"/><path class="cls-3" d="M18.256,18.5c-.012-.194-.012-.649,0-1.017.024-.75.007-.827-.227-.91-.184-.067-.254-.126-.254-.213,0-.058.038-.063.246-.043s.25.019.238-.044c-.022-.116-.31-.208-.613-.193-.239.019-.268.009-.249-.054a.367.367,0,0,1,.365-.256.934.934,0,0,0,.351-.112.665.665,0,0,1,.46-.077c.535.034.639.189.78,1.21.053.392.1.76.1.818s-.075.145-.262.281a3.756,3.756,0,0,0-.81.823l-.1.15Z"/><path d="M18.653,16.12a.158.158,0,0,0,.029-.2c-.058-.145-.126-.111-.1.048.017.088.005.112-.062.112s-.088-.029-.088-.146-.009-.13-.063-.082a.191.191,0,0,0,0,.281c.09.111.189.111.281-.01"/><g class="cls-4"><rect class="cls-5" x="1.426" y="9.018" width="37.147" height="21.965"/><rect class="cls-6" x="1.426" y="12.155" width="37.147" height="15.689"/><rect class="cls-7" x="1.426" y="15.293" width="37.147" height="9.414"/><rect x="1.426" y="18.432" width="37.147" height="3.138"/><polygon points="1.426 9.018 1.426 30.982 2.214 30.982 16.649 20 2.214 9.018 1.426 9.018"/><polygon class="cls-8" points="1.426 9.018 1.426 30.982 15.862 20 1.426 9.018"/><polygon class="cls-7" points="7.269 14.421 4.835 19.424 8.534 21.276 7.269 14.421"/><polygon class="cls-7" points="7.269 14.421 9.703 19.424 6.004 21.276 7.269 14.421"/><polygon class="cls-7" points="7.269 14.421 5.426 19.677 9.313 21.08 7.269 14.421"/><polygon class="cls-7" points="7.269 14.421 9.112 19.677 5.226 21.08 7.269 14.421"/><polygon class="cls-7" points="12.499 18.276 7.057 17.474 6.464 21.614 12.499 18.276"/><polygon class="cls-7" points="2.039 18.276 7.481 17.474 8.074 21.614 2.039 18.276"/><polygon class="cls-7" points="12.499 18.276 7.002 18.122 6.888 22.305 12.499 18.276"/><polygon class="cls-7" points="2.039 18.276 7.536 18.122 7.65 22.305 2.039 18.276"/><polygon class="cls-7" points="10.047 23.879 9.083 19.186 6.769 19.675 10.047 23.879"/><polygon class="cls-7" points="10.047 23.879 5.945 21.498 7.118 19.417 10.047 23.879"/><polygon class="cls-7" points="4.491 23.879 8.593 21.498 7.42 19.417 4.491 23.879"/><polygon class="cls-7" points="4.491 23.879 5.456 19.186 7.769 19.675 4.491 23.879"/><g class="cls-9"><path d="M9.157,23.484a6.209,6.209,0,0,1,.371-2.092,7.727,7.727,0,0,1,.493-1.091,1.1,1.1,0,0,1,.284.058c.3.086.387.07.387-.073,0-.082-.311-.362-1.828-1.65-1.021-.868-1.86-1.553-1.9-1.553a.1.1,0,0,1-.091-.051c-.009-.028-.058-.364-.109-.747a6.125,6.125,0,0,0-.153-.839.643.643,0,0,0-.615-.373.585.585,0,0,0-.455.088.73.73,0,0,1-.332.109.323.323,0,0,0-.328.319v.116l.265-.008c.145,0,.22,0,.164.012-.188.037-.112.307.11.388.238.086.229.035.229,1.171a4.237,4.237,0,0,1-.074,1.279,2.11,2.11,0,0,0,0,1.093c.039.125.071.241.072.257a2.314,2.314,0,0,1-.251.34,1.556,1.556,0,0,0-.406.862.43.43,0,0,1-.073.2.4.4,0,0,0,0,.448,10.2,10.2,0,0,1,.48,2.009c0,.112.018.111.6-.017A8.287,8.287,0,0,1,8.151,23.7c.261.038.566.1.676.126.348.1.329.117.33-.339"/><path class="cls-10" d="M8.681,23.717a6.2,6.2,0,0,0-1.755-.145c-.332.015-.679.041-.773.06l-.169.033-.042-.287a1.735,1.735,0,0,1-.03-.3,3.049,3.049,0,0,1,.357-.063,10.708,10.708,0,0,1,2.7.072l.119.025v.346c0,.252-.012.344-.046.34s-.185-.04-.356-.081"/><path class="cls-10" d="M5.463,23.742c0-.083-.2-1.073-.291-1.422-.061-.239-.111-.448-.111-.468s.056,0,.124.051a.46.46,0,0,0,.192.087c.188,0,.291.29.451,1.257.022.136.048.288.057.337.015.078-.006.095-.167.134-.205.049-.255.054-.255.024"/><path class="cls-10" d="M9.031,22.985c-.011-.021,0-.06.034-.089s.055-.039.055.014c0,.076-.06.127-.089.075"/><path class="cls-10" d="M6.094,22.827c.1-.109.1-.11.175-.032s.073.08.011.108a.63.63,0,0,1-.176.032l-.109,0Z"/><path class="cls-10" d="M8.506,22.89a.269.269,0,0,1,.086-.1c.061-.045.079-.039.136.049l.066.1H8.643c-.1,0-.146-.017-.137-.048"/><path class="cls-10" d="M8.831,22.831c-.043-.062-.073-.118-.066-.126a.523.523,0,0,1,.168.017l.156.03-.09.1-.09.1Z"/><path class="cls-10" d="M5.843,22.837c-.027-.079.037-.145.142-.146.083,0,.081.008-.027.122-.082.088-.093.09-.115.024"/><path class="cls-10" d="M6.7,22.763l.1-.113.094.092c.052.051.1.1.105.1a1.2,1.2,0,0,1-.19.021l-.2.014Z"/><path class="cls-10" d="M7.992,22.86l-.122-.026.088-.092.088-.092.105.123c.115.135.1.142-.159.087"/><path class="cls-10" d="M6.378,22.752l-.086-.1h.131a.607.607,0,0,0,.2-.028c.051-.022.046,0-.022.1a.467.467,0,0,1-.109.131.387.387,0,0,1-.109-.1"/><path class="cls-10" d="M7.31,22.732l.105-.124.1.111a.826.826,0,0,1,.1.123.829.829,0,0,1-.208.014H7.205Z"/><path class="cls-10" d="M8.278,22.752l-.085-.1h.171c.184,0,.208.032.1.138-.086.087-.087.087-.19-.035"/><path class="cls-10" d="M7,22.711l-.086-.1H7.3l-.086.1c-.106.127-.113.127-.219,0"/><path class="cls-10" d="M7.657,22.711l-.086-.1h.391l-.086.1c-.106.127-.113.127-.219,0"/><path class="cls-10" d="M8.827,22.607c-.091-.017-.454-.055-.808-.084a9.88,9.88,0,0,0-2.053.072c-.14.019-.173.011-.173-.038,0-.107.733-.176,1.864-.176.553,0,1.116.016,1.252.034.229.032.247.042.247.135,0,.109-.031.115-.329.057"/><path class="cls-10" d="M5.984,22.255a.706.706,0,0,1,.167-.142.313.313,0,0,1,.114.1l.083.1-.177.026c-.1.014-.21.033-.251.043s-.037-.021.064-.127"/><path class="cls-10" d="M5.725,22.275c-.027-.082-.02-.1.043-.133a.3.3,0,0,1,.145-.02c.059.01.054.027-.043.132l-.112.12Z"/><path class="cls-10" d="M9.12,22.323c0-.019.023-.046.053-.059s.046,0,.032.037c-.022.065-.085.082-.085.022"/><path class="cls-10" d="M6.663,22.176c.054-.068.1-.128.1-.131a.924.924,0,0,1,.116.11l.116.116-.214.014-.215.014Z"/><path class="cls-10" d="M8.616,22.289l-.155-.016.111-.105.112-.106.09.094c.1.1.116.167.044.156-.025,0-.116-.014-.2-.023"/><path class="cls-10" d="M6.355,22.175l-.105-.1.175-.03a.6.6,0,0,1,.189-.014c.007.009-.024.065-.07.125l-.083.109Z"/><path class="cls-10" d="M7.956,22.243l-.085-.027.093-.1c.079-.084.1-.09.151-.044a.51.51,0,0,1,.094.129c.031.066.022.075-.066.072a.84.84,0,0,1-.187-.031"/><path class="cls-10" d="M8.879,22.148l-.106-.129.091.026a1.1,1.1,0,0,0,.237.026h.147l-.11.1a.68.68,0,0,1-.13.1.578.578,0,0,1-.129-.129"/><path class="cls-10" d="M7,22.14a.4.4,0,0,1-.078-.122c0-.016.093-.029.207-.029H7.34l-.07.087c-.122.153-.18.166-.266.064"/><path class="cls-10" d="M7.341,22.131c.118-.117.159-.114.235.016.053.089.051.09-.143.089l-.2,0Z"/><path class="cls-10" d="M8.248,22.111l-.085-.122h.09a1.13,1.13,0,0,1,.2.026l.112.025-.1.1a.626.626,0,0,1-.116.1.789.789,0,0,1-.1-.124"/><path class="cls-10" d="M7.657,22.093l-.086-.1h.391l-.086.1c-.106.127-.113.127-.219,0"/><path class="cls-10" d="M5.7,21.958a2.719,2.719,0,0,0,.071-.277l.043-.206.4-.228a4.314,4.314,0,0,0,.546-.353,2.413,2.413,0,0,1,.187-.154,9.879,9.879,0,0,1,1.585.118c.361.059.993.186,1.015.2a4.233,4.233,0,0,1-.123.416c-.073.225-.139.433-.147.464s-.056.05-.179.029a14.4,14.4,0,0,0-3,.016c-.378.062-.433.058-.4-.029"/><path d="M8.757,21.705A.418.418,0,0,0,8.5,21a.376.376,0,0,0-.366.413.361.361,0,0,0,.625.292"/><path class="cls-10" d="M8.364,21.7a.343.343,0,0,1,.022-.57.287.287,0,0,1,.4.292.3.3,0,0,1-.426.278"/><path d="M7.288,21.678a.436.436,0,0,0-.093-.7.339.339,0,0,0-.455.165.388.388,0,0,0,.054.5.308.308,0,0,0,.494.034"/><path class="cls-10" d="M6.937,21.659c-.27-.122-.176-.618.117-.618s.382.45.126.6c-.117.068-.131.069-.243.018"/><path class="cls-10" d="M5.538,21.842c.051-.152.044-.347-.012-.347-.03,0-.048.053-.048.144a.361.361,0,0,1-.048.2c-.04.043-.045.01-.028-.185.01-.131.006-.237-.011-.237-.033,0-.1.2-.12.37-.013.1-.014.1-.044-.018a.341.341,0,0,1,.048-.276.762.762,0,0,0,.079-.277c0-.1.07-.2.406-.568.224-.246.484-.551.579-.678.164-.22.172-.242.166-.465a.987.987,0,0,0-.029-.259c-.043-.048-.1.2-.078.336s0,.165-.236.466c-.143.183-.384.458-.536.613-.281.285-.382.439-.382.584a.959.959,0,0,1-.071.258.489.489,0,0,0-.049.221c.013.026,0,.025-.022,0s-.034-.094-.008-.225a.574.574,0,0,0,.017-.213c-.039-.071-.085.02-.108.216-.013.112-.039.194-.056.181-.053-.037-.036-.239.029-.344a.974.974,0,0,0,.091-.285,1.687,1.687,0,0,1,.419-.833c.128-.158.233-.294.233-.3s-.034-.124-.075-.258a2.1,2.1,0,0,1-.015-1.068,2.366,2.366,0,0,1,.581-.916c.31-.326.6-.521.746-.5.123.022,3.663,3.023,3.663,3.107a.06.06,0,0,1-.064.058c-.036,0-.936-.276-2-.614-1.7-.538-1.946-.626-2.02-.722a.428.428,0,0,1-.01-.487.408.408,0,0,0,.073-.16c0-.091-.181.142-.215.278a.6.6,0,0,0,.145.511,5.221,5.221,0,0,0,.72.268c.6.194.644.214.676.322.077.26-.177.562-.542.648a.992.992,0,0,0-.372.188,4.805,4.805,0,0,1-.941.647,1.763,1.763,0,0,0-.3.168.773.773,0,0,0-.082.267c-.043.256-.061.3-.13.3-.041,0-.044-.023-.016-.107"/><path class="cls-10" d="M9.248,20.894a11.416,11.416,0,0,0-1.576-.237l-.581-.051.219-.091a3.373,3.373,0,0,0,.385-.189.545.545,0,0,1,.42-.079c.327.026.546-.039.628-.186.034-.062.067-.119.072-.128a4.823,4.823,0,0,1,.576.161l.565.176-.11.211c-.06.115-.136.27-.168.344-.067.149-.09.154-.43.069"/><path class="cls-10" d="M7.961,20.142c-.031-.021-.029-.048.007-.1s.057-.058.072-.031c.034.062-.028.17-.079.134"/><path class="cls-10" d="M8.1,20.134c0-.053.026-.053.055,0,.012.023.005.042-.016.042a.04.04,0,0,1-.039-.042"/><path class="cls-10" d="M8.278,20.111c0-.035.017-.053.037-.039.048.033.048.1,0,.1-.02,0-.037-.029-.037-.065"/><path class="cls-10" d="M8.452,20.11a.166.166,0,0,1-.027-.094c0-.046.01-.05.041-.017a.112.112,0,0,1,.026.093c-.008.026-.026.034-.04.018"/><path class="cls-10" d="M8.159,20.027a.171.171,0,0,1-.027-.093c0-.046.011-.052.041-.018a.116.116,0,0,1,.027.094c-.008.026-.026.033-.041.017"/><path class="cls-10" d="M8.588,20.008c-.04-.072.005-.087.056-.019.028.039.031.063.007.063a.085.085,0,0,1-.063-.044"/><path class="cls-10" d="M8.3,19.931a.05.05,0,0,1,.016-.064c.02-.015.037,0,.037.038,0,.073-.022.084-.053.026"/><path class="cls-10" d="M8.462,19.864c0-.036.016-.052.036-.039.047.034.047.1,0,.1-.02,0-.036-.029-.036-.064"/><path class="cls-10" d="M8.023,19.828c0-.073.022-.084.053-.026a.052.052,0,0,1-.016.065c-.02.014-.037,0-.037-.039"/><path class="cls-10" d="M8.169,19.782c0-.036.017-.053.037-.039.047.032.047.1,0,.1-.02,0-.037-.029-.037-.064"/><path class="cls-10" d="M5.711,17.8c-.01-.178-.01-.594,0-.923.021-.683,0-.75-.2-.825-.169-.061-.229-.113-.229-.194,0-.052.037-.058.222-.037s.22.018.21-.042c-.018-.106-.274-.186-.545-.17-.214.012-.24.006-.225-.056a.334.334,0,0,1,.327-.228.934.934,0,0,0,.315-.1A.6.6,0,0,1,6,15.152c.478.028.569.171.7,1.094.048.359.088.691.089.739s-.066.136-.234.258a3.519,3.519,0,0,0-.723.742l-.092.138Z"/><path d="M6.067,15.64a.146.146,0,0,0,.024-.187c-.052-.129-.113-.1-.088.043.014.084,0,.1-.06.1s-.077-.026-.077-.129-.008-.121-.055-.077a.174.174,0,0,0,.006.254c.078.1.168.1.25-.008"/></g></g></svg>