<svg id="Layer_1" data-name="Layer 1" xmlns="http://www.w3.org/2000/svg" xmlns:xlink="http://www.w3.org/1999/xlink" viewBox="0 0 40 40"><defs><style>.cls-1{fill:none;}.cls-2{clip-path:url(#clip-path);}.cls-3{fill:#231e60;}.cls-4{clip-path:url(#clip-path-2);}.cls-5{fill:#e5e8eb;}.cls-6{fill:#489fb8;}.cls-7{fill:#983e21;}.cls-8{fill:#ef9626;}.cls-9{fill:#f7df25;}.cls-10{fill:#b92026;}.cls-11{fill:#36813e;}.cls-12{fill:#f7decd;}.cls-13{fill:#7c1316;}</style><clipPath id="clip-path"><rect id="SVGID" class="cls-1" x="1.427" y="9.018" width="37.147" height="21.965" rx="4"/></clipPath><clipPath id="clip-path-2"><rect id="SVGID-2" data-name="SVGID" class="cls-1" x="1.427" y="9.018" width="37.147" height="21.965"/></clipPath></defs><g class="cls-2"><rect class="cls-3" x="1.427" y="9.018" width="37.147" height="21.965"/><g class="cls-4"><path class="cls-5" d="M25.627,15.273h8.079L33.7,21.1c.067,2.342-1.373,3.8-4.024,4.451-1.882-.473-4.052-1.453-4.055-4.385Z"/><path class="cls-6" d="M25.806,15.448h7.721l-.009,5.584c.065,2.245-1.313,3.638-3.846,4.266-1.8-.454-3.872-1.393-3.875-4.2Z"/><path d="M29.672,25.307h0c-1.665-.42-3.879-1.313-3.882-4.21l.009-5.648,7.73-.009v5.593c.063,2.187-1.233,3.625-3.852,4.274Zm3.846-9.859-7.712.01V21.1c0,2.883,2.207,3.773,3.866,4.192,2.609-.647,3.9-2.079,3.837-4.255l.009-5.585Z"/><path class="cls-7" d="M33.467,21.693c-.28,2.143-1.909,3.079-3.795,3.576-1.669-.453-3.465-1.178-3.813-3.564Z"/><polygon points="27.86 16.483 29.367 16.488 29.356 15.785 29.905 15.79 29.911 16.488 31.412 16.488 31.418 17.034 29.911 17.04 29.898 23.473 29.363 23.477 29.356 17.034 27.859 17.04 27.86 16.483"/><path class="cls-8" d="M28.151,21.959l1.375,1.446a2.751,2.751,0,0,0-.48-2.874,1.313,1.313,0,0,1-.337.606c-.3.206-1.029.446-.784.6.054-.079.2-.152.269.021.081.274-.3.291-.3.291a.343.343,0,0,1-.287-.282c-.043-.252.363-.482.4-.5a.92.92,0,0,0,.655-.634c.112-.468.227-.4.249-.408.693.07,1.148,1.329,1.173,2.214a2.276,2.276,0,0,1-.424,1.51C29.585,23.99,28,22.046,28,22.046Z"/><path d="M29.652,23.961c-.1,0-1.5-1.714-1.658-1.909l.016-.013a.584.584,0,0,1-.12.021.357.357,0,0,1-.3-.29c-.046-.269.4-.507.4-.509a.889.889,0,0,0,.651-.628c.1-.414.2-.414.238-.414.714.068,1.176,1.341,1.2,2.222a2.288,2.288,0,0,1-.429,1.518l-.006,0Zm-1.523-1.978a.262.262,0,0,1-.07.04l-.053.031c.621.745,1.566,1.875,1.645,1.889a2.29,2.29,0,0,0,.418-1.5c-.025-.874-.48-2.136-1.165-2.2-.1,0-.176.136-.239.4a.9.9,0,0,1-.648.637c-.016.006-.449.236-.405.492a.335.335,0,0,0,.279.275.593.593,0,0,0,.162-.035l.085-.049a.174.174,0,0,0,.047-.2.141.141,0,0,0-.253-.019c-.049-.021-.067-.048-.065-.078,0-.1.233-.216.476-.338a3.032,3.032,0,0,0,.36-.2,1.3,1.3,0,0,0,.334-.6,2.035,2.035,0,0,1,.679,1.423,2.04,2.04,0,0,1-.184,1.459l-1.367-1.425L29.532,23.4a2.024,2.024,0,0,0,.165-1.443,2.1,2.1,0,0,0-.655-1.416,1.213,1.213,0,0,1-.329.6,3.061,3.061,0,0,1-.362.2c-.227.114-.462.231-.467.322a.079.079,0,0,0,.045.064c.03-.066.181-.208.273.026a.189.189,0,0,1-.052.214l0,0h0l0,0h0l-.019.011Z"/><polygon points="29.17 23.222 29.144 20.614 29.163 20.614 29.17 23.222 29.17 23.222"/><path d="M29.017,23.031c-.018,0-.027-2.365-.027-2.37h.018c0,.006.009,2.37.009,2.37Z"/><polygon points="28.85 22.888 28.822 21.004 28.841 21.004 28.85 22.888 28.85 22.888"/><polygon points="28.713 22.697 28.686 21.139 28.704 21.139 28.713 22.697 28.713 22.697"/><polygon points="28.558 22.523 28.54 21.208 28.558 21.208 28.558 22.523 28.558 22.523"/><polygon points="28.4 22.354 28.382 21.312 28.4 21.312 28.4 22.354 28.4 22.354"/><polygon points="28.263 22.193 28.245 21.395 28.263 21.395 28.263 22.193 28.263 22.193"/><path class="cls-9" d="M29.558,23.759l-1.44-1.625a.015.015,0,0,1,0-.021.015.015,0,0,1,.022,0l1.417,1.645Z"/><path class="cls-9" d="M29.663,23.711l-.013,0a.03.03,0,0,1-.012-.039,3.371,3.371,0,0,0-.048-2.57.03.03,0,0,1,.014-.039.028.028,0,0,1,.037.015,3.432,3.432,0,0,1,.047,2.621.029.029,0,0,1-.025.015Z"/><path class="cls-9" d="M27.963,21.854l-.01,0a.029.029,0,0,1-.017-.037c.006-.015.037-.09.088-.1,0-.006.057.011.064.017a.029.029,0,0,1,0,.04.029.029,0,0,1-.04,0c-.038,0-.052.038-.061.063a.031.031,0,0,1-.027.019Z"/><path class="cls-9" d="M27.736,21.866a.027.027,0,0,1-.02-.009.176.176,0,0,1-.051-.131.52.52,0,0,1,.168-.288.031.031,0,0,1,.04,0,.03.03,0,0,1,0,.041.47.47,0,0,0-.148.246.118.118,0,0,0,.035.09.029.029,0,0,1,0,.04.026.026,0,0,1-.02.008Z"/><path class="cls-5" d="M1.427,9.018v1.069l16.76,8.5H20.3V17.513l-16.76-8.5Zm18.87,0v1.069l-16.76,8.5H1.427V17.513l16.76-8.5Z"/><path class="cls-5" d="M9.289,18.582h3.145V9.018H9.289ZM1.427,15.394H20.3V12.206H1.427Z"/><path class="cls-10" d="M1.427,14.756H20.3V12.843H1.427Zm8.492,3.826h1.886V9.018H9.919Z"/><path class="cls-10" d="M1.427,18.582l6.289-3.188H9.123l-6.29,3.188Zm0-9.564,6.289,3.188H6.31L1.427,9.731ZM12.6,12.206l6.29-3.188H20.3l-6.29,3.188Zm7.7,6.376-6.29-3.188h1.406L20.3,17.869Z"/><path class="cls-11" d="M29.914,17.839c.095-.082.145-.133.2-.124a.475.475,0,0,0,.2-.014,1.226,1.226,0,0,1,.472-.013.356.356,0,0,1,.179.1.529.529,0,0,1,.166.54c-.041.344-.028.492-.046.685-.032.34-.106.62-.241.6.182.322.2.6.318.818a2.316,2.316,0,0,1,.145,1.159,4.523,4.523,0,0,0,.209,2.316c-.064.046-.218,0-.354-.147s-.2-.142-.309-.055c-.344.267-.667.588-1.142.267-.109-.074-.143-.162-.063-.386a4.962,4.962,0,0,0,.264-1.692Z"/><path d="M30.1,24.111a.694.694,0,0,1-.394-.137c-.106-.072-.152-.16-.067-.4a4.9,4.9,0,0,0,.264-1.687V17.839c.1-.095.148-.134.2-.134a.452.452,0,0,0,.21-.012,1.364,1.364,0,0,1,.477-.014.376.376,0,0,1,.181.1c.07.058.213.18.17.548-.026.213-.03.351-.034.471,0,.073,0,.14-.012.213-.026.278-.088.608-.235.608a2.2,2.2,0,0,1,.192.484,1.789,1.789,0,0,0,.119.319,2.345,2.345,0,0,1,.146,1.164l-.008.08a4.319,4.319,0,0,0,.216,2.231c-.072.087-.211.034-.369-.137-.137-.148-.2-.132-.3-.053l-.088.068a1.154,1.154,0,0,1-.671.335Zm.013-6.386c-.056,0-.1.036-.168.1l-.024,4.067a4.927,4.927,0,0,1-.265,1.7c-.081.226-.041.307.061.375.385.262.717.061,1.042-.2l.089-.07c.107-.082.176-.1.32.057.116.126.278.192.343.146a4.251,4.251,0,0,1-.221-2.23l.008-.08a2.277,2.277,0,0,0-.144-1.153,1.775,1.775,0,0,1-.12-.322,2.356,2.356,0,0,0-.2-.5c.126-.013.2-.223.239-.6.007-.073.009-.14.011-.213,0-.12.009-.258.034-.472.043-.358-.1-.476-.162-.532a.364.364,0,0,0-.174-.1,1.319,1.319,0,0,0-.468.013.525.525,0,0,1-.2.015Z"/><path class="cls-12" d="M30.241,17.5a.383.383,0,0,1,0,.271.368.368,0,0,0,.018.335c.109-.156.263-.124.354-.216s.109-.179.177-.2a.3.3,0,0,1-.15-.3c.023-.175.263-.317.045-.584a.315.315,0,0,0-.433-.057.3.3,0,0,0-.09.106c-.014.03,0,.1-.03.137a.442.442,0,0,1-.082.079.039.039,0,0,0-.011.062.1.1,0,0,0,.042.018.36.36,0,0,1-.032.056c-.012.014-.006.028.006.039-.017.055.016.061-.006.1s-.047.077.027.119a.4.4,0,0,0,.167.028Z"/><path d="M30.256,18.119l-.007-.013a.382.382,0,0,1-.019-.344.364.364,0,0,0,.008-.247.294.294,0,0,1,.009.255.358.358,0,0,0,.011.314.392.392,0,0,1,.211-.134.33.33,0,0,0,.135-.071.758.758,0,0,0,.085-.107.258.258,0,0,1,.069-.081.612.612,0,0,1-.055.091.656.656,0,0,1-.085.11.345.345,0,0,1-.143.075.369.369,0,0,0-.211.14l-.008.012Zm.512-.452a.261.261,0,0,1-.139-.279.459.459,0,0,1,.065-.161.314.314,0,0,0-.018-.416.278.278,0,0,0-.421-.056.314.314,0,0,0-.087.1.177.177,0,0,0-.006.046.157.157,0,0,1-.025.094.448.448,0,0,1-.083.08l-.01.047-.027-.023a.056.056,0,0,1,.026-.039.48.48,0,0,0,.08-.076.141.141,0,0,0,.021-.084.154.154,0,0,1,.008-.052.339.339,0,0,1,.092-.11.3.3,0,0,1,.446.06.332.332,0,0,1,.02.436.453.453,0,0,0-.063.155.268.268,0,0,0,.124.27l0,.006ZM30.2,17.5a.341.341,0,0,1-.132-.024.1.1,0,0,1-.051-.054.093.093,0,0,1,.019-.074.454.454,0,0,1,.007-.105.248.248,0,0,1,.027-.1l-.022-.019.038.027a.322.322,0,0,1-.033.058.311.311,0,0,0,.007.087.063.063,0,0,1-.007.053.094.094,0,0,0-.019.064.088.088,0,0,0,.043.043.445.445,0,0,0,.143.028l.007.011Z"/><path class="cls-12" d="M29.359,18.41c-.127.032-.331-.023-.485,0-.069.008-.123-.028-.113-.1a1.09,1.09,0,0,0,0-.271,1.26,1.26,0,0,1,.15-.589,1.318,1.318,0,0,0,.15-.466.216.216,0,0,1,.069-.193.224.224,0,0,0,.074-.085c.038-.057.074-.071.079-.037a.1.1,0,0,1-.023.067,1.383,1.383,0,0,1,.126-.086c.016-.012.1-.069.1-.015.031-.016.053-.015.061,0s0,.027-.013.04c.023,0,.049.036,0,.072.025-.008.048.032.007.068s-.094.065-.109.095a.581.581,0,0,1-.167.132c-.043.018-.045.044-.045.108a3.191,3.191,0,0,1-.084.821c0,.046-.01.087.036.073a.617.617,0,0,1,.179-.035Z"/><path d="M29.258,18.429c-.047,0-.1,0-.152-.009a1.13,1.13,0,0,0-.231-.006.126.126,0,0,1-.1-.032.092.092,0,0,1-.019-.075,1.073,1.073,0,0,0,0-.268,1.3,1.3,0,0,1,.15-.594,1.279,1.279,0,0,0,.149-.463.226.226,0,0,1,.074-.2.179.179,0,0,0,.061-.065c.035-.055.061-.076.08-.076a.079.079,0,0,1,.013.08.277.277,0,0,1,.076-.063.267.267,0,0,1,.11-.056l.06.011c.036.037.034.052.023.064l-.008-.037-.012.006-.05-.011c-.028-.014-.056,0-.087.021a1.328,1.328,0,0,0-.125.086.5.5,0,0,0,.008-.072c-.018-.011-.039,0-.063.04a.221.221,0,0,1-.076.088.207.207,0,0,0-.065.185,1.313,1.313,0,0,1-.151.47,1.25,1.25,0,0,0-.148.584,1.17,1.17,0,0,1,0,.274.077.077,0,0,0,.015.06.093.093,0,0,0,.071.027,1,1,0,0,1,.252.005.924.924,0,0,0,.249,0l-.007-.392c-.053.01-.115.028-.159.041l-.047,0a.082.082,0,0,1-.01-.057.454.454,0,0,1,.023-.153,2.267,2.267,0,0,0,.061-.688c0-.064,0-.095.051-.117a.592.592,0,0,0,.163-.127.21.21,0,0,1,.064-.061.5.5,0,0,0,.046-.037c.02-.016.023-.033.019-.043h0c.022.021.013.042-.006.059l-.048.037a.235.235,0,0,0-.06.054.59.59,0,0,1-.171.136c-.036.016-.039.033-.039.1a2.248,2.248,0,0,1-.063.694.4.4,0,0,0-.021.127l0,.064a.986.986,0,0,1,.2-.035l.009.41a.263.263,0,0,1-.11.019Z"/><path class="cls-12" d="M29.386,19.935a2.62,2.62,0,0,1,.563-.174,2.47,2.47,0,0,0,.412-.179c.1-.051.172-.12.227-.138a.261.261,0,0,0,.149-.124,2.029,2.029,0,0,0,.273-.874c0-.161-.041-.34-.2-.211a1.172,1.172,0,0,0-.344.524,1.775,1.775,0,0,1-.132.363c-.014.05-.066.05-.127.064a1.047,1.047,0,0,0-.531.253,5.408,5.408,0,0,1-.562.368c-.145.082-.172.092-.2.159a.638.638,0,0,1-.089.146.121.121,0,0,0-.029.1c0,.03-.009.167-.012.213s.009.058.027.06.044-.007.053-.062c-.009.055.066.037.07,0,0,.06.077.026.082-.029,0,.039.06.012.066-.007a.781.781,0,0,1,.043-.134.439.439,0,0,1,.106-.161c.059-.043.032-.092.154-.154Z"/><path d="M28.817,20.5h0c-.035,0-.037-.037-.036-.069l0-.054a1.3,1.3,0,0,0,.008-.158.123.123,0,0,1,.032-.109.609.609,0,0,0,.086-.144c.03-.062.056-.077.164-.138l.044-.025a5.525,5.525,0,0,0,.562-.367,1.04,1.04,0,0,1,.534-.255c.076-.015.11-.021.12-.058a.269.269,0,0,1,.023-.052,1.393,1.393,0,0,0,.109-.31,1.194,1.194,0,0,1,.347-.529c.165-.137.21.116.21.218a2,2,0,0,1-.273.878.271.271,0,0,1-.155.129.461.461,0,0,0-.105.062c-.036.024-.076.051-.12.075a2.382,2.382,0,0,1-.415.18l-.092.022a2.028,2.028,0,0,0-.469.152.213.213,0,0,0-.107.1.138.138,0,0,1-.046.056.372.372,0,0,0-.094.138.6.6,0,0,0-.043.121c-.014.047-.042.064-.064.064h0a.154.154,0,0,1-.077.041l-.033-.041c.016.029-.013.049-.037.049l-.033-.045c.049.026.069.012.07,0,.051.022.079,0,.081-.03l.076-.006-.009,0a.8.8,0,0,1,.043-.135.444.444,0,0,1,.11-.164.149.149,0,0,0,.041-.051.228.228,0,0,1,.114-.1,2.076,2.076,0,0,1,.473-.153l.092-.022a2.438,2.438,0,0,0,.41-.178c.044-.024.083-.051.119-.075a.492.492,0,0,1,.11-.064.249.249,0,0,0,.143-.119,1.986,1.986,0,0,0,.271-.87c0-.074-.027-.33-.179-.2a1.165,1.165,0,0,0-.342.519,1.4,1.4,0,0,1-.11.314.271.271,0,0,0-.021.05c-.014.047-.056.055-.1.064a1.072,1.072,0,0,0-.557.258,5.664,5.664,0,0,1-.564.368l-.044.025c-.106.06-.129.073-.156.129a.606.606,0,0,1-.09.149.114.114,0,0,0-.027.094,1.39,1.39,0,0,1-.008.162l0,.054c0,.047.01.049.018.05h0c.025,0,.035-.029.039-.054.008.064-.022.073-.039.073Z"/><path class="cls-12" d="M30.855,23.7c.014.051.039.108.048.143s-.007.045-.016.064a1.3,1.3,0,0,0-.106.349.327.327,0,0,1-.055.129c-.017.033-.01.058.03.09.019.014.082-.005.088-.037a.052.052,0,0,0,.082-.021c.021.021.055.007.077-.027.021.014.05-.014.061-.032.032.016.066,0,.067-.067a.135.135,0,0,1,.017-.05.151.151,0,0,0,.012-.068.246.246,0,0,1,.036-.112.223.223,0,0,0,.043-.159c-.015-.055-.038-.05-.059-.13-.05-.053-.118-.127-.188-.132a.2.2,0,0,0-.137.06Z"/><path d="M30.775,24.489l-.025-.007c-.043-.033-.052-.064-.032-.1a.345.345,0,0,0,.054-.125,1.331,1.331,0,0,1,.107-.353l.015-.058c0-.016-.012-.038-.02-.061s-.02-.055-.028-.081a.2.2,0,0,1,.137-.072.342.342,0,0,1,.2.133.276.276,0,0,0,.038.081.157.157,0,0,1,.026.055.228.228,0,0,1-.044.165.244.244,0,0,0-.035.107.149.149,0,0,1-.013.074.123.123,0,0,0-.016.045c0,.06-.03.081-.055.081s-.046.031-.069.031a.117.117,0,0,1-.067.033.276.276,0,0,1-.074.024.378.378,0,0,1-.1.029Zm.216-.839a.164.164,0,0,0-.112.044.134.134,0,0,0,.012.084.577.577,0,0,1,.021.063.062.062,0,0,1-.01.058,1.311,1.311,0,0,0-.112.358.284.284,0,0,1-.046.115c-.023.042-.023.064.017.095l.014,0c.024,0,.056-.015.06-.034.059.006.073,0,.083-.023A.068.068,0,0,0,31,24.384a.07.07,0,0,0,.061-.031c.068,0,.064-.023.065-.062a.138.138,0,0,1,.018-.054.138.138,0,0,0,.01-.064.289.289,0,0,1,.038-.117.208.208,0,0,0,.042-.151.132.132,0,0,0-.023-.049.248.248,0,0,1-.036-.082c-.048-.049-.114-.12-.179-.124Z"/><path class="cls-12" d="M29.565,24.1a.22.22,0,0,0,.306-.042.841.841,0,0,1-.151-.083.525.525,0,0,1-.155.125Z"/><path d="M29.686,24.15a.179.179,0,0,1-.127-.048,1,1,0,0,0,.154-.137c.047.027.121.062.162.081a.227.227,0,0,1-.189.1Zm.028-.172a.375.375,0,0,1-.146.126.321.321,0,0,0,.118.027h0a.247.247,0,0,0,.179-.083.376.376,0,0,1-.151-.07Z"/><path class="cls-13" d="M30.207,16.787a.154.154,0,0,1,.211-.143.393.393,0,0,0,.17,0c.135-.037.236.011.223.142a.19.19,0,0,1,.068.148c-.007.054,0,.077.054.084s.156.069.086.157a.188.188,0,0,1,.084.218.115.115,0,0,1-.19.018.163.163,0,0,1-.182-.025c-.034.042-.12.037-.136,0a.12.12,0,0,0-.075-.067c-.036-.011-.038-.112.016-.124a.1.1,0,0,1,.009-.08c.014-.016,0-.046-.029-.071a.169.169,0,0,1-.028-.175.25.25,0,0,1-.2-.071c-.025-.037-.059-.04-.082-.007Z"/><path d="M31,17.459a.114.114,0,0,1-.094-.046.13.13,0,0,1-.18-.025c-.006.042-.12.039-.138,0a.1.1,0,0,0-.069-.062c-.025-.007-.034-.041-.033-.07a.071.071,0,0,1,.049-.072.072.072,0,0,1,0-.077.064.064,0,0,0-.028-.058.179.179,0,0,1-.043-.149.262.262,0,0,0,.055.134.1.1,0,0,1,.038.058.142.142,0,0,0-.015.1.075.075,0,0,0-.042.066c0,.025.008.048.02.052a.127.127,0,0,1,.081.071c.012.03.093.031.12,0a.159.159,0,0,0,.185.023.116.116,0,0,0,.186-.014.179.179,0,0,0-.081-.206c.018-.039.024-.064.015-.086a.134.134,0,0,0-.1-.069c-.061-.009-.069-.043-.062-.1a.176.176,0,0,0-.065-.138.159.159,0,0,0-.03-.114.18.18,0,0,0-.185-.028.522.522,0,0,1-.174,0c-.114-.025-.179.017-.2.128l-.02,0a.16.16,0,0,1,.222-.149.532.532,0,0,0,.166,0,.2.2,0,0,1,.2.033.149.149,0,0,1,.032.119.175.175,0,0,1,.068.147c-.007.053,0,.069.046.075a.153.153,0,0,1,.112.081.088.088,0,0,1-.02.091.175.175,0,0,1,.085.217.128.128,0,0,1-.112.065Zm-.558-.595a.217.217,0,0,1-.159-.065.053.053,0,0,0-.038-.026l-.007,0a.04.04,0,0,1,.06.014.263.263,0,0,0,.164.071v0Z"/><path d="M30.242,17.5l0-.018a.276.276,0,0,0,.1-.035.174.174,0,0,1,.09-.028l-.082.044a.263.263,0,0,1-.1.037Z"/><path class="cls-1" d="M30.053,17.245a.14.14,0,0,0,.022.014.154.154,0,0,0,.055.014Z"/><path class="cls-1" d="M30.079,17.15a.092.092,0,0,1,.037.023Z"/><path d="M30.583,16.81a.1.1,0,0,1-.069-.023.192.192,0,0,0-.183-.069.065.065,0,0,0-.048.038l0,.037-.013-.041a.079.079,0,0,1,.06-.052.212.212,0,0,1,.2.073.144.144,0,0,0,.108.019.064.064,0,0,1-.052.018Z"/><path d="M30.968,17.2h-.011c-.045-.007-.093-.059-.141-.152a.108.108,0,0,0-.072-.061.092.092,0,0,1-.065-.06c-.033-.087-.164-.061-.189-.056l0-.018c.083-.02.18-.011.21.067a.071.071,0,0,0,.054.049.129.129,0,0,1,.082.07c.045.087.089.136.128.143a.06.06,0,0,0,.053-.021.045.045,0,0,1-.045.04Z"/><path d="M30.724,17.388a.174.174,0,0,1-.018-.137c-.03-.029-.014-.1,0-.133,0,.04-.008.1.016.129a.184.184,0,0,0,.016.129l-.014.012Z"/><path class="cls-1" d="M30.536,17.191a.119.119,0,0,0,.095.088Z"/><path class="cls-1" d="M30.913,17.407a.145.145,0,0,1-.021-.128Z"/><path d="M30.748,17.14a.124.124,0,0,1-.11-.072.127.127,0,0,1-.066-.119h.018a.115.115,0,0,0,.06.106.141.141,0,0,0,.141.078.131.131,0,0,1-.043.006Z"/><path d="M30.805,16.789a.425.425,0,0,0-.2-.1.293.293,0,0,1,.213.083l-.011.014Z"/><path d="M30.118,19.216c.13-.145.079-.429.042-.637a.611.611,0,0,1,.089-.483l.015.011a.572.572,0,0,0-.089.452c.04.229.092.519-.057.657Z"/><path d="M30.341,19.7a.322.322,0,0,1-.142-.032.379.379,0,0,0,.306-.035.481.481,0,0,1,.343-.038l0,.018a.463.463,0,0,0-.329.035.3.3,0,0,1-.175.052Z"/><path d="M30.5,20.513a1.579,1.579,0,0,1-.021-.476c.005-.068.008-.13.008-.184,0-.166.041-.242.141-.26l0,.018c-.076.014-.126.06-.126.242,0,.055,0,.117-.007.185a2.517,2.517,0,0,0,0,.475Z"/><path d="M30.362,19.852c-.029-.155.028-.17.084-.184l.017.015-.013,0c-.053.013-.1.025-.088.166Z"/><path d="M30.164,19.858h-.018a.235.235,0,0,1,.057-.172.06.06,0,0,1,.054-.011l-.042.025a.22.22,0,0,0-.051.159Z"/><path d="M31.2,22.208a1.875,1.875,0,0,1-.064-.579,4.551,4.551,0,0,0-.117-1.089c-.016-.055-.032-.1-.047-.146a1.641,1.641,0,0,1-.1-.425c-.025-.243-.059-.322-.1-.348a.42.42,0,0,1,.046.255H30.8a.379.379,0,0,0-.048-.25.066.066,0,0,0-.038-.019H30.7a.041.041,0,0,1,.053,0c.065.007.109.076.138.363a1.662,1.662,0,0,0,.1.421c.015.044.031.092.048.147a4.592,4.592,0,0,1,.117,1.094,3.06,3.06,0,0,0,.046.579Z"/><path d="M31.091,23.046c-.039-.128-.116-.319-.214-.562-.067-.166-.144-.358-.221-.573a2.9,2.9,0,0,0,.019-1.968l.017-.006a2.9,2.9,0,0,1-.018,1.973c.076.21.153.4.22.567a3.352,3.352,0,0,1,.2.569Z"/><path d="M30.148,21.138l-.018-.005a.174.174,0,0,0,0-.1.8.8,0,0,1,.024-.432.574.574,0,0,0,.023-.329c.045.049.038.155-.006.333a.773.773,0,0,0-.023.423.2.2,0,0,1,0,.111Z"/><path d="M30.234,21.267a1.174,1.174,0,0,0-.035-.461.82.82,0,0,1-.028-.3l.018,0a.8.8,0,0,0,.028.294.9.9,0,0,1,.017.465Z"/><path d="M30.52,23.966c.061-.057.058-.178.055-.275a.605.605,0,0,1,0-.074,2.729,2.729,0,0,0-.417-1.411l-.043-.083a.5.5,0,0,1-.085-.3,2.067,2.067,0,0,0-.013-.288c-.007-.079-.014-.157-.014-.226h.018c0,.068.007.146.014.225a2.1,2.1,0,0,1,.014.29.478.478,0,0,0,.082.289l.043.084a2.738,2.738,0,0,1,.419,1.42c0,.02,0,.045,0,.072,0,.1.006.23-.073.276Z"/><path d="M30.024,24.1h-.006l0-.019c.015,0,.047-.007.081-.089a2.578,2.578,0,0,0,.1-.914,2.323,2.323,0,0,1-.08.921c-.029.07-.057.1-.094.1Z"/><path d="M30.215,23.961a1.367,1.367,0,0,0,.037-.494l.018,0a1.1,1.1,0,0,1-.055.5Z"/><path d="M30.447,23.721a2.043,2.043,0,0,0-.022-.57l.018,0a1.519,1.519,0,0,1,0,.574Z"/><path d="M30.323,24.068c.042-.031.026-.185.017-.277l-.006-.072h.018l.006.071c.012.117.026.262-.035.279Z"/><path d="M31.129,23.708a1.229,1.229,0,0,1-.234-.5,2.89,2.89,0,0,0-.22-.548l.016-.01a2.963,2.963,0,0,1,.221.552,1.73,1.73,0,0,0,.217.509Z"/><path d="M30.819,23.608V23.6a.4.4,0,0,0-.047-.206c.055.034.06.129.065.205l-.018.009Z"/><path class="cls-1" d="M29.017,20.391a.256.256,0,0,1,.048-.177Z"/><path d="M28.935,20.42l-.007-.032c0-.149.006-.168.055-.215-.031.055-.032.071-.037.216l-.011.031Z"/><path d="M28.874,20.425h-.018v-.076a.263.263,0,0,1,.038-.179.473.473,0,0,0-.02.179v.076Z"/><path class="cls-1" d="M29.491,16.633c-.02.013-.133.1-.181.137Z"/><path d="M29.35,16.825l.029-.046a.7.7,0,0,1,.159-.113l0,.019a.816.816,0,0,0-.149.108l-.041.032Z"/><path d="M29.385,16.88a.21.21,0,0,1,.067-.077.544.544,0,0,1,.087-.065l.007.017a.512.512,0,0,0-.082.062c-.026.021-.053.044-.079.063Z"/><path class="cls-1" d="M29.264,16.734c-.017.013-.049.05-.066.062Z"/><path class="cls-1" d="M30.844,24.438a.119.119,0,0,1,.009-.1Z"/><path class="cls-1" d="M30.926,24.417c-.012-.012,0-.067.012-.1Z"/><path class="cls-1" d="M31,24.39c-.014-.007-.02-.039,0-.083Z"/><path class="cls-1" d="M31.064,24.358c-.01,0-.014-.021,0-.072Z"/><path d="M30.172,16.932c.033.043.067.039.073.067a.067.067,0,0,0,.016.038c.007.009-.015.007-.026,0a.173.173,0,0,0-.053,0c-.017,0-.036-.019-.024-.022s.011-.006.009-.014a.03.03,0,0,1,.012-.025c.005,0,0,0,0-.013s-.011-.04,0-.03Z"/><path d="M30.192,16.891a.238.238,0,0,1,.135.064c.027.03,0,.022-.009.023a.073.073,0,0,1-.054-.025.176.176,0,0,0-.075-.046c-.012,0-.025-.019,0-.016Z"/></g></g></svg>