<svg id="Layer_1" data-name="Layer 1" xmlns="http://www.w3.org/2000/svg" xmlns:xlink="http://www.w3.org/1999/xlink" viewBox="0 0 40 40"><defs><style>.cls-1{fill:none;}.cls-2{clip-path:url(#clip-path);}.cls-3{fill:#396fb6;}.cls-4{clip-path:url(#clip-path-2);}.cls-5{fill:#e5e8eb;}.cls-6{fill:#3d7d3c;}.cls-7{fill:#f5d12a;}.cls-8{fill:#e08728;}.cls-9{fill:#888789;}.cls-10{fill:#643995;}.cls-11{fill:#ca2027;}.cls-12{fill:#f7e224;}.cls-13{fill:#eedf76;}.cls-14{fill:#801818;}</style><clipPath id="clip-path"><rect id="SVGID" class="cls-1" x="0.953" y="9.024" width="38.093" height="21.952" rx="4"/></clipPath><clipPath id="clip-path-2"><rect id="SVGID-2" data-name="SVGID" class="cls-1" x="0.953" y="9.024" width="38.093" height="21.952"/></clipPath></defs><g class="cls-2"><rect class="cls-3" x="0.953" y="9.024" width="38.093" height="21.952"/><g class="cls-4"><path class="cls-5" d="M22.2,25.477s.671-.7,1.317-.568a1.08,1.08,0,0,1,.923-.8.959.959,0,0,1,.866-1A1.67,1.67,0,0,1,25.9,22.1s-.116-.861.478-1.059A1.069,1.069,0,0,1,26.5,19.85c-.008-.013-.614-1.078-.072-1.384a.964.964,0,0,1-.387-1.021.644.644,0,0,1-.4-.9c-.516-.089-.62-.912-.62-.912s-.794.159-.891-.523a.5.5,0,0,1-.587-.428c-.007,0-1.04.274-1.247-.5a.4.4,0,0,1-.575-.16.712.712,0,0,1-.917-.261.8.8,0,0,1-1.065-.02s-.9.588-1.2.134a.9.9,0,0,1-1,.3s-.4.7-1.047.523a.939.939,0,0,1-.891.664s.077.574-.813.727a.906.906,0,0,1-.582.792s.045.657-.375.867c.149.37-.238.823-.238.823a.8.8,0,0,1-.149,1.085c.542.14.149,1.066.149,1.066s.748.331.277.943c.537.173.368.594.375.842.342.154.645.077.5.76,1.053.115.555.689.555.689s.491.019.3.4a.921.921,0,0,1,1.027.663s.834-.216.944.1A13.375,13.375,0,0,1,17.2,27.6a1.841,1.841,0,0,1-1.228-.554c-1.227-.032-.955-.83-.975-.83s-.407.146-.607-.517c-.82.166-.794-.516-.8-.523s-.369-.165-.233-.5a.667.667,0,0,1-.782-.74.363.363,0,0,1-.226-.415c-.109-.038-.859-.051-.471-1.026-.717-.428-.271-.919-.271-.919s-.989-.5-.227-1.085c-.568-.829.046-1.245.046-1.245s-.788-.79.013-1.352c-.129-1.2.594-1.487.594-1.487a1.052,1.052,0,0,1,.652-1.384c.065-.989.788-1.015.788-1.015s.02-.784,1.156-.707a.874.874,0,0,1,1-.562s.239-.849,1.291-.44c.537-1.034,1.331-.5,1.331-.5s.5-.326.756-.224c.319-.543,1-.021,1.441.084.159-.061.729-.486,1.168.051.581-.377,1.079.3,1.079.3a.831.831,0,0,1,1.175.517c1.7-.154,1.452.944,1.452.944s1.338-.3,1.047,1.014c1.215.083,1.091.875,1.091.875s.769.574.433,1.09c.685.032.433.683.433.683s.523.2.09,1a.979.979,0,0,1,.187,1.57,1.175,1.175,0,0,1,.046,1.378c.148,1.174-.452,1.473-.452,1.473a.842.842,0,0,1-.517.976,1.007,1.007,0,0,1-.866,1s.227.387-.619.8c-.034.6-.917.646-.917.646a.891.891,0,0,1-1.208.8c-.273.881-1.589.619-1.615.606s-.251-1.888-.251-1.895Z"/><path d="M17.233,27.632H17.2a1.856,1.856,0,0,1-1.254-.567h0a1.093,1.093,0,0,1-.854-.293.652.652,0,0,1-.132-.52.163.163,0,0,1-.064.009c-.165,0-.387-.092-.527-.525-.485.088-.783-.121-.811-.55a.4.4,0,0,1-.249-.479.708.708,0,0,1-.577-.2.837.837,0,0,1-.189-.587.335.335,0,0,1-.231-.384l-.024,0a.67.67,0,0,1-.488-.287.9.9,0,0,1,.036-.747.754.754,0,0,1-.393-.5.585.585,0,0,1,.112-.422c-.118-.068-.466-.294-.494-.6a.587.587,0,0,1,.274-.5.874.874,0,0,1,.041-1.241,1.171,1.171,0,0,1-.327-.8.79.79,0,0,1,.372-.574,1.339,1.339,0,0,1,.571-1.475,1.084,1.084,0,0,1,.683-1.4c.038-.861.623-.994.768-1.014.02-.151.164-.776,1.193-.711a.847.847,0,0,1,.967-.565.829.829,0,0,1,.792-.548,1.493,1.493,0,0,1,.507.1.994.994,0,0,1,.874-.63.952.952,0,0,1,.494.142,1.1,1.1,0,0,1,.72-.237.479.479,0,0,1,.43-.236,1.824,1.824,0,0,1,.665.192,2.645,2.645,0,0,0,.37.136.217.217,0,0,1,.068-.042,1.266,1.266,0,0,1,.569-.176.684.684,0,0,1,.53.256.7.7,0,0,1,.357-.1,1.034,1.034,0,0,1,.726.405,1.028,1.028,0,0,1,.387-.079.858.858,0,0,1,.811.628.728.728,0,0,1,.275-.038,1.264,1.264,0,0,1,1.025.359.8.8,0,0,1,.163.591,1.023,1.023,0,0,1,.932.237.926.926,0,0,1,.115.789,1.279,1.279,0,0,1,.924.39.712.712,0,0,1,.158.524c.027-.014.732.526.458,1.053a.494.494,0,0,1,.383.2.62.62,0,0,1,.034.5.475.475,0,0,1,.217.252.943.943,0,0,1-.125.759,1.015,1.015,0,0,1,.436,1.18,1.138,1.138,0,0,1-.247.4,1.208,1.208,0,0,1,.028,1.394c.153,1.142-.421,1.462-.464,1.485a.813.813,0,0,1-.524.979.985.985,0,0,1-.827.995.391.391,0,0,1,0,.22,1.136,1.136,0,0,1-.649.581c-.013.53-.74.631-.9.647a.917.917,0,0,1-.884.856,1.4,1.4,0,0,1-.333-.043,1.112,1.112,0,0,1-1.174.645,1.984,1.984,0,0,1-.482-.05c-.054-.026-.271-1.908-.271-1.927a1.878,1.878,0,0,1,1.186-.621.936.936,0,0,1,.141.011,1.121,1.121,0,0,1,.913-.787,1,1,0,0,1,.9-1,1.554,1.554,0,0,1,.577-1.007h0c-.016,0-.113-.825.451-1.05a1.071,1.071,0,0,1,.121-1.171h0a3.684,3.684,0,0,1-.232-.576c-.108-.391-.058-.672.145-.816a1.015,1.015,0,0,1-.37-.993.68.68,0,0,1-.36-.294.77.77,0,0,1-.043-.6c-.446-.111-.578-.735-.605-.9-.155.02-.78.076-.89-.524a.5.5,0,0,1-.589-.447.949.949,0,0,1-.375.062.818.818,0,0,1-.863-.53.512.512,0,0,1-.208.047.428.428,0,0,1-.36-.212.883.883,0,0,1-.324.063.687.687,0,0,1-.588-.321,1.11,1.11,0,0,1-.555.169.733.733,0,0,1-.5-.191,1.888,1.888,0,0,1-.834.295.439.439,0,0,1-.36-.152.911.911,0,0,1-.981.289,1.1,1.1,0,0,1-.852.544.822.822,0,0,1-.183-.021.967.967,0,0,1-.88.653c0,.137-.066.6-.845.729a.889.889,0,0,1-.55.782.983.983,0,0,1-.367.858.983.983,0,0,1-.238.807.836.836,0,0,1-.129,1.067.372.372,0,0,1,.2.185,1.3,1.3,0,0,1-.071.88.8.8,0,0,1,.407.45.587.587,0,0,1-.118.493.57.57,0,0,1,.361.708,1.411,1.411,0,0,0-.009.151.425.425,0,0,1,.167.037c.249.081.447.146.338.693.361.045.578.152.644.318a.414.414,0,0,1-.066.372.4.4,0,0,1,.281.154.268.268,0,0,1,.006.242.981.981,0,0,1,1,.655,2.446,2.446,0,0,1,.5-.064c.251,0,.4.067.447.2A12.927,12.927,0,0,1,17.24,27.6l-.007.029Zm-2.25-1.455.058.023-.005.044a.593.593,0,0,0,.113.482,1.1,1.1,0,0,0,.828.278,1.888,1.888,0,0,0,1.2.554,11.49,11.49,0,0,0,.357-2.42c-.043-.123-.229-.149-.377-.149a2.4,2.4,0,0,0-.522.071l-.038.009-.008-.038a.873.873,0,0,0-.955-.634h-.06l-.009-.053a.229.229,0,0,0,.021-.224C15.515,24.005,15.3,24,15.3,24l-.076,0,.049-.057s.159-.186.093-.351c-.058-.143-.273-.24-.624-.278l-.041,0,.009-.039c.113-.519-.036-.568-.281-.648a1.58,1.58,0,0,1-.2-.072.483.483,0,0,1-.012-.192c.023-.242.049-.517-.358-.648l-.05-.016.031-.041a.544.544,0,0,0,.136-.471.757.757,0,0,0-.4-.417l-.032-.015.014-.033c0-.005.233-.556.086-.851a.309.309,0,0,0-.21-.165l-.061-.016.044-.044a.77.77,0,0,0,.146-1.038l-.019-.023.019-.023s.372-.44.233-.786l-.012-.03.03-.015c.393-.2.355-.827.355-.833l0-.03.03-.008a.862.862,0,0,0,.554-.762c.873-.174.816-.694.813-.717l0-.04H15.6a.893.893,0,0,0,.857-.635l.008-.038.037.011a.731.731,0,0,0,.2.028,1.076,1.076,0,0,0,.8-.534l.017-.03.031.015s.432.235.958-.292l.033-.032.025.037a.355.355,0,0,0,.324.156,1.922,1.922,0,0,0,.82-.3l.026-.018.022.024a.648.648,0,0,0,.471.189,1.052,1.052,0,0,0,.546-.176l.032-.019.019.03a.619.619,0,0,0,.546.317.822.822,0,0,0,.324-.069l.033-.016.016.034a.366.366,0,0,0,.311.2.485.485,0,0,0,.214-.058l.041-.021.012.044a.745.745,0,0,0,.8.518,1.8,1.8,0,0,0,.392-.046h.03l.025.04a.44.44,0,0,0,.542.386l.037-.006.005.037a.587.587,0,0,0,.661.508.96.96,0,0,0,.186-.016l.039-.007,0,.039c0,.008.106.8.589.88l.041.007-.012.04a.727.727,0,0,0,.025.582.618.618,0,0,0,.35.271l.038.01-.012.038a.922.922,0,0,0,.376.981l.04.034-.046.026c-.208.117-.26.373-.153.76a2.842,2.842,0,0,0,.239.574l.011.02-.03.044a1.008,1.008,0,0,0-.1,1.131l.02.037-.041.014c-.559.186-.455,1.011-.453,1.019a1.822,1.822,0,0,0-.594,1.021.963.963,0,0,0-.866.991l0,.036-.037,0a1.033,1.033,0,0,0-.89.771l-.009.033-.035-.007a.762.762,0,0,0-.16-.016,1.914,1.914,0,0,0-1.123.574c.02.074.229,1.773.258,1.853,0-.012.184.026.432.026a1.051,1.051,0,0,0,1.115-.627l.01-.033.035.008a1.354,1.354,0,0,0,.347.049c.743,0,.811-.786.814-.819l0-.032.032,0c.009,0,.852-.054.883-.612.45-.237.589-.435.63-.565a.269.269,0,0,0-.006-.21l-.026-.047.053-.008a.96.96,0,0,0,.834-.966.843.843,0,0,0,.518-.969c.025-.042.594-.345.451-1.475a1.168,1.168,0,0,0-.036-1.359l.027-.061a1.1,1.1,0,0,0,.278-.665,1.08,1.08,0,0,0-.488-.839l-.024-.019.015-.027a.908.908,0,0,0,.136-.724.408.408,0,0,0-.207-.227l-.034-.013.013-.033a.593.593,0,0,0-.017-.466.455.455,0,0,0-.384-.168l-.064,0,.035-.053c.314-.482-.417-1.036-.424-1.042a.833.833,0,0,0-.159-.5,1.24,1.24,0,0,0-.913-.364l-.042,0,.009-.042a.888.888,0,0,0-.092-.769c-.285-.35-.907-.2-.911-.2l-.056.013.013-.056a.752.752,0,0,0-.141-.583c-.215-.264-.623-.373-1.273-.317a.872.872,0,0,0-.78-.6.948.948,0,0,0-.382.084l-.028.014-.018-.025a1.008,1.008,0,0,0-.685-.4.633.633,0,0,0-.344.108l-.028.018-.021-.025a.624.624,0,0,0-.494-.255,1.178,1.178,0,0,0-.535.169c-.04.02-.073.037-.1.046a1.99,1.99,0,0,1-.4-.138c-.4-.17-.826-.288-1.018.039l-.017.027-.029-.012c-.209-.084-.717.218-.722.22a1.453,1.453,0,0,0-.494-.129.95.95,0,0,0-.824.619l-.015.03-.031-.012a1.438,1.438,0,0,0-.511-.109.75.75,0,0,0-.732.524l-.009.032-.033-.005a.847.847,0,0,0-.953.536.642.642,0,0,1-.187.021c-.936,0-.966.65-.967.677v.034l-.034,0c-.028,0-.692.038-.753.98a1.043,1.043,0,0,0-.654,1.369l.013.034-.034.013c-.028.012-.7.294-.572,1.449a.813.813,0,0,0-.356.555,1.158,1.158,0,0,0,.333.776l.031.031-.036.024c-.024.017-.576.406-.036,1.194l.019.028-.027.021a.546.546,0,0,0-.273.462c.029.322.489.56.494.562l.042.022-.032.035a.539.539,0,0,0-.123.4.7.7,0,0,0,.386.464l.026.016-.011.029a.857.857,0,0,0-.051.714.592.592,0,0,0,.437.25.543.543,0,0,1,.063.015l.029.01-.005.03a.33.33,0,0,0,.2.375,1.058,1.058,0,0,0,.194.569.652.652,0,0,0,.571.169l.059,0-.021.054a.352.352,0,0,0,.208.455l.028.046a.486.486,0,0,0,.524.5,1.167,1.167,0,0,0,.231-.026l.033-.006.009.031c.127.418.323.5.467.5a.347.347,0,0,0,.087-.011Z"/><path class="cls-6" d="M14.041,14.948a.709.709,0,0,1,.232.605,5.572,5.572,0,0,0-.222,1.245,2.713,2.713,0,0,1,.016.421,1.5,1.5,0,0,1-.259-.741c0-.383.277-.747.277-1.029a3.564,3.564,0,0,0-.044-.5Z"/><path d="M14.067,17.256a.037.037,0,0,1-.03-.016,1.513,1.513,0,0,1-.265-.762,1.6,1.6,0,0,1,.156-.608,1.268,1.268,0,0,0,.12-.421,2.9,2.9,0,0,0-.039-.457.154.154,0,0,1,0-.068c.036-.013.054-.013.12.065a.728.728,0,0,1,.177.569,4.421,4.421,0,0,1-.1.434,2.386,2.386,0,0,0-.124.8,2.633,2.633,0,0,1,.016.427.035.035,0,0,1-.026.033l-.01,0Zm.019-2.21a2.2,2.2,0,0,1,.035.4A1.3,1.3,0,0,1,14,15.9a1.541,1.541,0,0,0-.152.581,1.367,1.367,0,0,0,.187.614,2.062,2.062,0,0,0-.018-.288,2.445,2.445,0,0,1,.125-.831,4.2,4.2,0,0,0,.1-.425.649.649,0,0,0-.151-.5Z"/><path class="cls-6" d="M13.9,15.056a1.489,1.489,0,0,0-.417.687c-.035.175-.049.988-.053,1.349-.008.11-.055.548-.065.707s.272-.272.288-.622a9.536,9.536,0,0,1,.029-1.242,4.071,4.071,0,0,1,.077-.459c.068-.206.144-.417.141-.42Z"/><path d="M13.379,17.869h0a.061.061,0,0,1-.034-.014.142.142,0,0,1-.015-.058c.006-.094.024-.286.04-.45.011-.113.021-.213.024-.258.006-.43.019-1.183.053-1.353a1.513,1.513,0,0,1,.429-.706.036.036,0,0,1,.051,0c.018.017.018.017-.039.182l-.093.274a1.162,1.162,0,0,0-.048.263,1.706,1.706,0,0,1-.028.192,9.469,9.469,0,0,0-.028,1.234c-.012.281-.215.693-.312.693Zm.434-2.665a1.214,1.214,0,0,0-.293.544c-.024.122-.043.612-.053,1.344,0,.048-.012.148-.024.262-.014.142-.029.306-.037.407a1.262,1.262,0,0,0,.212-.586,9.733,9.733,0,0,1,.03-1.252c.012-.056.019-.118.026-.181a1.224,1.224,0,0,1,.051-.278l.088-.26Z"/><path class="cls-7" d="M22.028,13.918a1.26,1.26,0,0,0,.616-.625c.137-.407-.415-.41-.487-.281s.062.451.027.536-.23.291-.156.37Z"/><path class="cls-8" d="M22.024,13.941l-.01-.01c-.062-.067.023-.192.091-.292a.849.849,0,0,0,.061-.1.533.533,0,0,0-.019-.19A.587.587,0,0,1,22.14,13c.061-.108.4-.105.5.032a.284.284,0,0,1,.02.266,1.258,1.258,0,0,1-.626.635l-.012.006Zm.34-.986a.235.235,0,0,0-.19.066.581.581,0,0,0,.011.323.491.491,0,0,1,.017.211.675.675,0,0,1-.065.105c-.053.078-.125.183-.1.234a1.228,1.228,0,0,0,.59-.607.241.241,0,0,0-.015-.231.3.3,0,0,0-.246-.1Z"/><path class="cls-7" d="M17.783,14.067a1.243,1.243,0,0,0,.23-.842c-.08-.422-.564-.16-.564-.012s.276.364.288.455-.058.364.046.4Z"/><path class="cls-8" d="M17.79,14.089l-.013,0c-.087-.029-.074-.179-.064-.3a.609.609,0,0,0,0-.116.536.536,0,0,0-.11-.157c-.083-.1-.178-.208-.178-.3s.18-.236.348-.236c.078,0,.214.031.255.244a1.25,1.25,0,0,1-.233.857l-.009.011Zm-.013-1.074c-.154,0-.309.127-.309.2s.093.188.168.276a.476.476,0,0,1,.12.177.7.7,0,0,1,0,.123c-.008.093-.018.219.026.253a1.215,1.215,0,0,0,.217-.814c-.034-.176-.137-.213-.217-.213Z"/><path class="cls-7" d="M16.942,14.317a1.243,1.243,0,0,0,.23-.842c-.08-.421-.564-.159-.564-.012s.276.364.288.455-.057.364.046.4Z"/><path class="cls-8" d="M16.95,14.339l-.014,0c-.087-.029-.074-.179-.064-.3a.725.725,0,0,0,0-.116.522.522,0,0,0-.11-.156c-.084-.1-.178-.209-.178-.3s.179-.236.348-.236c.077,0,.213.032.254.244a1.25,1.25,0,0,1-.233.857l-.008.011Zm-.013-1.074c-.154,0-.31.127-.31.2s.094.188.169.276a.483.483,0,0,1,.119.177.682.682,0,0,1,0,.123c-.008.093-.019.219.025.253a1.2,1.2,0,0,0,.217-.814c-.033-.176-.136-.213-.216-.213Z"/><path class="cls-7" d="M16.01,14.6a1.242,1.242,0,0,0,.229-.842c-.08-.421-.564-.159-.564-.011s.276.364.288.455-.057.364.047.4Z"/><path class="cls-8" d="M16.017,14.624,16,14.619c-.087-.029-.074-.179-.064-.3a.713.713,0,0,0,.005-.115.511.511,0,0,0-.11-.157c-.084-.1-.178-.208-.178-.3s.18-.236.348-.236c.077,0,.214.031.254.244a1.241,1.241,0,0,1-.233.856l-.008.012ZM16,13.549c-.154,0-.31.127-.31.2s.094.188.169.276a.481.481,0,0,1,.119.176.678.678,0,0,1,0,.123c-.008.094-.019.219.025.253a1.205,1.205,0,0,0,.218-.813c-.034-.177-.137-.214-.217-.214Z"/><path class="cls-7" d="M15.353,15.25a1.248,1.248,0,0,0,.23-.842c-.081-.422-.565-.159-.565-.012s.277.364.288.455-.057.364.047.4Z"/><path class="cls-8" d="M15.36,15.272l-.013,0c-.087-.029-.075-.179-.064-.3a.607.607,0,0,0,0-.116.522.522,0,0,0-.11-.156c-.083-.1-.178-.208-.178-.3s.18-.236.348-.236c.078,0,.214.032.255.244a1.247,1.247,0,0,1-.233.857l-.009.011ZM15.347,14.2c-.153,0-.309.127-.309.2s.093.188.168.276a.483.483,0,0,1,.12.177.7.7,0,0,1-.005.123c-.008.094-.019.219.026.253a1.215,1.215,0,0,0,.217-.814c-.033-.176-.136-.213-.217-.213Z"/><path class="cls-7" d="M14.662,15.875a1.24,1.24,0,0,0,.23-.842c-.08-.42-.564-.159-.564-.011s.276.364.288.455-.058.364.046.4Z"/><path class="cls-8" d="M14.669,15.9l-.014,0c-.087-.029-.073-.179-.063-.3a.7.7,0,0,0,0-.114.522.522,0,0,0-.11-.156c-.083-.1-.178-.208-.178-.3s.179-.236.348-.236c.077,0,.213.032.254.244a1.239,1.239,0,0,1-.234.856l-.008.012Zm-.012-1.074c-.154,0-.31.127-.31.2s.094.188.169.276a.491.491,0,0,1,.119.177.678.678,0,0,1,0,.121c-.008.094-.019.221.025.255a1.21,1.21,0,0,0,.219-.814c-.034-.176-.137-.213-.217-.213Z"/><path class="cls-7" d="M16.25,12.23a1.252,1.252,0,0,0-.451.75c-.036.427.5.3.541.161s-.167-.425-.153-.516.154-.334.063-.395Z"/><path class="cls-8" d="M16.054,13.293h0a.282.282,0,0,1-.21-.08.3.3,0,0,1-.064-.235,1.253,1.253,0,0,1,.458-.763c.1.05.046.19,0,.3a.67.67,0,0,0-.037.11.53.53,0,0,0,.064.181.59.59,0,0,1,.089.337c-.022.078-.164.147-.3.147Zm.186-1.047a1.361,1.361,0,0,0-.421.736.254.254,0,0,0,.053.205.246.246,0,0,0,.182.068c.131,0,.252-.065.267-.12a.59.59,0,0,0-.087-.311.456.456,0,0,1-.066-.2.608.608,0,0,1,.037-.118c.036-.1.085-.225.035-.259Z"/><path class="cls-7" d="M17.633,11.809a1.256,1.256,0,0,0-.452.749c-.036.427.5.3.541.161s-.167-.424-.154-.514.155-.336.065-.4Z"/><path class="cls-8" d="M17.436,12.872h0a.282.282,0,0,1-.21-.08.294.294,0,0,1-.064-.235,1.261,1.261,0,0,1,.459-.763c.1.049.045.19,0,.3a.762.762,0,0,0-.036.111.53.53,0,0,0,.064.179.592.592,0,0,1,.09.337c-.023.079-.165.148-.3.148Zm.187-1.047a1.371,1.371,0,0,0-.423.735.255.255,0,0,0,.055.206.242.242,0,0,0,.181.068h0c.132,0,.252-.065.268-.12a.588.588,0,0,0-.088-.311.456.456,0,0,1-.066-.2.623.623,0,0,1,.038-.119c.035-.094.084-.224.035-.258Z"/><path class="cls-7" d="M12.483,15.494a1.241,1.241,0,0,0,.448.752c.361.237.51-.288.4-.391s-.456-.059-.53-.115-.224-.295-.32-.246Z"/><path class="cls-8" d="M13.106,16.326h0a.343.343,0,0,1-.186-.065,1.247,1.247,0,0,1-.456-.763l0-.023.051-.006c.073,0,.152.091.223.172a.668.668,0,0,0,.081.084.529.529,0,0,0,.191.032.612.612,0,0,1,.341.084.294.294,0,0,1,.006.29.275.275,0,0,1-.247.2Zm-.6-.82a1.17,1.17,0,0,0,.432.724.247.247,0,0,0,.375-.113.268.268,0,0,0,0-.248A.592.592,0,0,0,13,15.8a.481.481,0,0,1-.212-.04.774.774,0,0,1-.086-.09c-.059-.066-.139-.158-.194-.158Z"/><path class="cls-7" d="M11.792,17.24a1.245,1.245,0,0,0,.323.811c.319.29.549-.2.46-.323s-.441-.13-.5-.2-.174-.326-.278-.292Z"/><path class="cls-8" d="M12.311,18.16h0a.315.315,0,0,1-.209-.095,1.244,1.244,0,0,1-.329-.825c.115-.022.184.087.244.183a.663.663,0,0,0,.066.1.529.529,0,0,0,.183.061.6.6,0,0,1,.325.137.27.27,0,0,1-.023.254.3.3,0,0,1-.257.189Zm-.5-.9a1.228,1.228,0,0,0,.317.781.279.279,0,0,0,.183.085h0a.269.269,0,0,0,.223-.168.243.243,0,0,0,.026-.214.607.607,0,0,0-.3-.124.473.473,0,0,1-.2-.071.562.562,0,0,1-.071-.1c-.05-.079-.118-.187-.174-.187Z"/><path class="cls-7" d="M13.384,19.189a1.258,1.258,0,0,0-.589-.65c-.4-.161-.443.382-.317.463s.46-.031.543.008.278.246.363.179Z"/><path class="cls-8" d="M13.343,19.221a.5.5,0,0,1-.234-.126.665.665,0,0,0-.1-.067.492.492,0,0,0-.193.006.663.663,0,0,1-.352-.017c-.068-.042-.093-.194-.054-.324a.264.264,0,0,1,.388-.171,1.254,1.254,0,0,1,.6.66l.01.026-.069.013Zm-.38-.238a.168.168,0,0,1,.067.01.741.741,0,0,1,.1.072.5.5,0,0,0,.21.118V19.2l.029-.028h0a1.383,1.383,0,0,0-.584-.617.236.236,0,0,0-.337.147.289.289,0,0,0,.038.282.649.649,0,0,0,.326.01,1.312,1.312,0,0,1,.148-.013Z"/><path class="cls-7" d="M13.053,18.346a1.238,1.238,0,0,0,.247-.837c-.071-.422-.561-.17-.563-.023s.269.37.279.461-.065.363.037.4Z"/><path class="cls-8" d="M13.06,18.368l-.013,0c-.087-.031-.071-.181-.058-.3A.775.775,0,0,0,13,17.949a.529.529,0,0,0-.108-.159.592.592,0,0,1-.171-.3c0-.105.189-.229.346-.229.079,0,.218.033.255.249a1.244,1.244,0,0,1-.25.851l-.009.011Zm0-1.073c-.154,0-.307.121-.308.192s.09.19.163.279a.476.476,0,0,1,.116.179.722.722,0,0,1-.007.122c-.01.093-.024.219.02.254a1.2,1.2,0,0,0,.233-.809c-.03-.179-.135-.217-.217-.217Z"/><path class="cls-7" d="M23.007,14.339a1.264,1.264,0,0,0,.616-.625c.137-.406-.415-.411-.488-.281s.062.451.028.536-.23.29-.156.37Z"/><path class="cls-8" d="M23,14.362l-.01-.01c-.061-.067.02-.186.092-.291a.769.769,0,0,0,.061-.1.5.5,0,0,0-.019-.188.6.6,0,0,1-.008-.349c.062-.109.4-.1.5.031a.283.283,0,0,1,.02.265,1.265,1.265,0,0,1-.626.636L23,14.362Zm.341-.985a.236.236,0,0,0-.191.065.592.592,0,0,0,.012.323.491.491,0,0,1,.017.211.676.676,0,0,1-.065.106c-.053.078-.124.182-.1.232a1.223,1.223,0,0,0,.592-.606.243.243,0,0,0-.016-.231.3.3,0,0,0-.246-.1Z"/><path class="cls-7" d="M24.456,15.053a1.243,1.243,0,0,0,.172-.856c-.109-.414-.573-.122-.563.026s.3.345.318.436-.033.366.073.394Z"/><path class="cls-8" d="M24.465,15.075l-.014,0c-.089-.023-.086-.174-.084-.295a.647.647,0,0,0,0-.114.522.522,0,0,0-.12-.149c-.09-.092-.192-.2-.2-.289a.179.179,0,0,1,.06-.125.435.435,0,0,1,.289-.134c.072,0,.2.03.252.228a1.247,1.247,0,0,1-.175.87l-.007.012ZM24.4,14a.391.391,0,0,0-.261.121.152.152,0,0,0-.05.1c0,.078.106.182.187.265a.491.491,0,0,1,.131.168.845.845,0,0,1,0,.121c0,.1,0,.221.042.253a1.208,1.208,0,0,0,.161-.827c-.033-.13-.108-.2-.214-.2Z"/><path class="cls-7" d="M28.409,19.108a1.258,1.258,0,0,0-.59-.649c-.4-.162-.442.382-.317.462s.46-.032.543.008.278.246.364.179Z"/><path class="cls-8" d="M28.368,19.14a.49.49,0,0,1-.235-.127.665.665,0,0,0-.1-.067.56.56,0,0,0-.193.006.657.657,0,0,1-.352-.015c-.068-.043-.092-.2-.053-.325a.263.263,0,0,1,.387-.171,1.259,1.259,0,0,1,.6.66l.01.026-.069.013Zm-.38-.239a.164.164,0,0,1,.066.011.813.813,0,0,1,.1.071.493.493,0,0,0,.211.119v.019l.029-.028h0a1.373,1.373,0,0,0-.585-.616.236.236,0,0,0-.337.145.294.294,0,0,0,.037.283.655.655,0,0,0,.327.01,1.378,1.378,0,0,1,.149-.014Z"/><path class="cls-7" d="M26.476,19.409a1.242,1.242,0,0,1,.333-.807c.323-.287.546.211.456.329s-.443.124-.508.189-.178.324-.281.289Z"/><path class="cls-8" d="M26.5,19.431l-.026,0a1.149,1.149,0,0,1,.326-.839.275.275,0,0,1,.463.1.271.271,0,0,1,.021.258.609.609,0,0,1-.326.133.533.533,0,0,0-.183.058.685.685,0,0,0-.068.1c-.061.095-.131.2-.207.2Zm.508-.9a.28.28,0,0,0-.182.083,1.208,1.208,0,0,0-.326.777c.056,0,.124-.107.175-.185a.641.641,0,0,1,.072-.1.467.467,0,0,1,.2-.069.606.606,0,0,0,.3-.119.247.247,0,0,0-.025-.218A.267.267,0,0,0,27,18.533Z"/><path class="cls-7" d="M26.165,13.885a1.28,1.28,0,0,0-.883,0c-.39.188-.006.58.138.541s.282-.36.368-.4.371-.041.377-.148Z"/><path class="cls-8" d="M25.4,14.45a.391.391,0,0,1-.3-.284c-.017-.071-.016-.2.174-.3a.948.948,0,0,1,.414-.086,1.5,1.5,0,0,1,.484.083c.007.109-.143.136-.264.158a.626.626,0,0,0-.112.026.5.5,0,0,0-.124.146c-.073.105-.156.225-.247.249l-.027,0Zm.29-.628a.914.914,0,0,0-.4.082c-.125.061-.178.148-.154.254a.361.361,0,0,0,.261.254v.019l.017-.021c.077-.021.16-.14.225-.235a.5.5,0,0,1,.141-.16.7.7,0,0,1,.121-.027c.1-.018.237-.043.244-.1a3.3,3.3,0,0,0-.458-.063Z"/><path class="cls-7" d="M25.036,12.951a1.282,1.282,0,0,0-.883,0c-.39.188-.006.58.138.541s.283-.36.369-.394.37-.042.376-.15Z"/><path class="cls-8" d="M24.27,13.517a.391.391,0,0,1-.3-.284c-.017-.071-.016-.2.174-.3a.948.948,0,0,1,.414-.086,1.492,1.492,0,0,1,.484.083c.007.109-.142.136-.262.158a.564.564,0,0,0-.114.027.511.511,0,0,0-.124.145c-.073.106-.156.225-.247.249l-.026,0Zm.289-.628a.917.917,0,0,0-.4.082c-.125.06-.178.148-.154.254a.362.362,0,0,0,.262.254V13.5l.016-.021c.077-.021.159-.139.226-.234a.474.474,0,0,1,.14-.16.749.749,0,0,1,.122-.028c.1-.019.236-.043.243-.1a3.081,3.081,0,0,0-.458-.063Z"/><path class="cls-7" d="M23.353,12.062a1.251,1.251,0,0,0-.46.744c-.042.426.5.309.539.168s-.162-.426-.148-.517.159-.333.069-.4Z"/><path class="cls-8" d="M23.149,13.122h0a.284.284,0,0,1-.213-.081.294.294,0,0,1-.062-.237,1.254,1.254,0,0,1,.467-.757c.1.051.044.192,0,.3a.66.66,0,0,0-.037.108.526.526,0,0,0,.061.18.593.593,0,0,1,.086.339c-.023.076-.163.143-.3.143Zm.194-1.044a1.366,1.366,0,0,0-.431.729.263.263,0,0,0,.052.209.249.249,0,0,0,.185.068h0c.13,0,.248-.062.264-.116a.584.584,0,0,0-.084-.312.47.47,0,0,1-.064-.2.746.746,0,0,1,.039-.116c.038-.095.089-.225.039-.26Z"/><path class="cls-7" d="M22.258,11.8a1.239,1.239,0,0,0,0,.872c.188.386.587.011.549-.132s-.362-.281-.4-.367-.039-.366-.148-.373Z"/><path class="cls-8" d="M22.479,12.861h0a.267.267,0,0,1-.242-.179,1.248,1.248,0,0,1,0-.888c.114,0,.137.141.158.261a.912.912,0,0,0,.026.112.52.52,0,0,0,.148.124c.105.072.225.155.25.245a.209.209,0,0,1-.058.166.4.4,0,0,1-.285.159Zm-.221-1.041a1.355,1.355,0,0,0,.014.845.267.267,0,0,0,.462.013.181.181,0,0,0,.05-.133c-.02-.075-.139-.157-.234-.223s-.144-.1-.161-.141a.612.612,0,0,1-.028-.12c-.018-.1-.043-.236-.1-.241Z"/><path class="cls-7" d="M19.149,13.673a1.243,1.243,0,0,0,.292-.822c-.051-.426-.551-.2-.562-.052s.248.382.253.474-.084.359.017.4Z"/><path class="cls-8" d="M19.154,13.7l-.012,0c-.085-.035-.061-.182-.042-.3a.781.781,0,0,0,.013-.116.508.508,0,0,0-.1-.164.58.58,0,0,1-.154-.313c.007-.1.188-.211.34-.211.086,0,.233.034.26.263a1.254,1.254,0,0,1-.3.837l-.01.01Zm.046-1.072c-.14,0-.3.1-.3.176s.079.194.148.288a.471.471,0,0,1,.105.184.65.65,0,0,1-.013.124c-.015.092-.035.216.006.253a1.213,1.213,0,0,0,.277-.8c-.022-.189-.132-.229-.221-.229Z"/><path class="cls-9" d="M21.005,14.527s.817.051.857.514a1.082,1.082,0,0,1-.194.745s.1,1-.7,1.294a16,16,0,0,1-2.2.022s-.395.1-.555-.712a13.388,13.388,0,0,1-.206-1.377.646.646,0,0,1,.658-.481c.577-.028,2.332.006,2.338-.005Z"/><path d="M19.855,17.168c-.58,0-1.083-.03-1.088-.03-.16.006-.455-.069-.588-.74a13.23,13.23,0,0,1-.206-1.382.681.681,0,0,1,.692-.52c.364-.018,1.193-.011,1.761-.006l.464,0H21c.044,0,.859.057.9.546a1.1,1.1,0,0,1-.2.771h0a1.268,1.268,0,0,1-.712,1.305,9.763,9.763,0,0,1-1.129.054Zm-1.114-.1c.088,0,.567.026,1.114.026a9.832,9.832,0,0,0,1.111-.052c.755-.278.666-1.244.665-1.253a1.163,1.163,0,0,0,.194-.746c-.036-.426-.815-.48-.822-.481.022,0,.022,0-.113,0l-.465,0c-.565-.005-1.394-.012-1.756,0a.606.606,0,0,0-.623.451h0s.048.571.205,1.364c.127.637.4.686.479.686Z"/><path d="M21.268,16.579a.036.036,0,0,1-.036-.029c-.048-.23.356-.735.4-.792a.037.037,0,1,1,.057.046c-.119.146-.422.564-.387.731a.036.036,0,0,1-.029.043Z"/><path class="cls-9" d="M21.073,17.051a.62.62,0,0,1,.234.525l.047.667.571,5.082.5,3.676.034.57s-.12.418-.457.452c-.246.508-1.578.655-1.709.649a3.984,3.984,0,0,0-.8-.158,7.217,7.217,0,0,1-.9.164c-.2-.028-.652-.181-.732-.5a.9.9,0,0,1-.652-.6l.606-4.252.589-5.376s.069-.717.36-.824c.3-.029,1.869.028,2.309-.074Z"/><path d="M18.643,28.718a.475.475,0,0,1-.056,0c-.169-.024-.673-.173-.762-.53a.87.87,0,0,1-.652-.6l.606-4.264.588-5.375c0-.029.075-.741.384-.854.093-.01.274-.012.5-.012h.4a9.267,9.267,0,0,0,1.418-.064.612.612,0,0,1,.28.558l.046.666.572,5.081.5,3.675.034.572c-.007.031-.132.455-.491.491-.225.508-1.536.649-1.7.649a1.192,1.192,0,0,1-.241-.054,2.081,2.081,0,0,0-.519-.105l-.046,0a2.823,2.823,0,0,0-.39.08,2.283,2.283,0,0,1-.466.087Zm.607-11.566c-.222,0-.4,0-.482.009-.212.079-.309.6-.327.792l-.589,5.376-.606,4.253a.876.876,0,0,0,.626.558c.1.345.569.48.726.5l.045,0a2.181,2.181,0,0,0,.448-.085,3.025,3.025,0,0,1,.4-.082,1.973,1.973,0,0,1,.592.1,1.255,1.255,0,0,0,.212.052h0c.24,0,1.453-.171,1.675-.628.338-.052.453-.442.455-.446L22.391,27l-.5-3.673-.572-5.084-.046-.667a.585.585,0,0,0-.222-.5,7.36,7.36,0,0,1-1.4.074Z"/><polygon points="17.903 28.171 17.83 28.168 17.95 24.408 18.024 24.41 17.903 28.171 17.903 28.171"/><polygon points="21.985 28.009 21.648 24.91 21.721 24.902 22.059 28.001 21.985 28.009 21.985 28.009"/><path class="cls-1" d="M11.907,22.455l-.013.043Z"/><path class="cls-1" d="M27.719,22.319l.013.043Z"/><path class="cls-10" d="M12.131,20.763h0c-.294-.008-.908-.2-.934-.732a.973.973,0,0,1,.124-.591.653.653,0,0,0,.094-.283c.025-.321.032-1.765.032-1.78a.036.036,0,0,1,.026-.034.036.036,0,0,1,.041.013,2.18,2.18,0,0,1,.3.552,2.748,2.748,0,0,0,.232.73,4.225,4.225,0,0,1,.77,1.426.738.738,0,0,1-.22.485.659.659,0,0,1-.464.214ZM11.519,17.5c0,.354-.01,1.4-.032,1.667a.73.73,0,0,1-.1.312.907.907,0,0,0-.116.553c.024.483.591.656.862.664a.594.594,0,0,0,.412-.193.663.663,0,0,0,.2-.43,3.819,3.819,0,0,0-.735-1.355,2.533,2.533,0,0,1-.26-.761,1.7,1.7,0,0,0-.229-.457Z"/><path class="cls-10" d="M14.11,15.2h0a1.269,1.269,0,0,1-.573-.146.634.634,0,0,1-.277-.412.719.719,0,0,1,.063-.512A1.893,1.893,0,0,1,14,13.705a3.858,3.858,0,0,0,.715-.4,1.725,1.725,0,0,1,.54-.445l.062-.037a1.338,1.338,0,0,1,.468-.128,6.694,6.694,0,0,0-.814,1.362.685.685,0,0,0-.071.3.964.964,0,0,1-.2.56.674.674,0,0,1-.587.287Zm1.645-2.484a2.375,2.375,0,0,0-.42.137l-.061.037a1.687,1.687,0,0,0-.532.438,3.923,3.923,0,0,1-.726.409,1.862,1.862,0,0,0-.661.415.675.675,0,0,0-.057.482.6.6,0,0,0,.258.388,1.253,1.253,0,0,0,.554.14.63.63,0,0,0,.555-.27.923.923,0,0,0,.2-.542.72.72,0,0,1,.075-.311,5.037,5.037,0,0,1,.82-1.323Z"/><path class="cls-10" d="M19.547,12.739h0a.82.82,0,0,1-.741-.639.628.628,0,0,1,.107-.483.728.728,0,0,1,.417-.311,1.708,1.708,0,0,1,.76.2,3.574,3.574,0,0,0,.8.251c.127.013.253.017.369.02a2.119,2.119,0,0,1,.406.035,1.314,1.314,0,0,1,.418.243c-.042.031-.1.026-.192.026a2.877,2.877,0,0,0-1.363.343,1.361,1.361,0,0,0-.267.116,1.622,1.622,0,0,1-.58.19.84.84,0,0,1-.138.012Zm-.149-1.4a.421.421,0,0,0-.062,0,.685.685,0,0,0-.391.294.594.594,0,0,0-.1.453.78.78,0,0,0,.7.61h0a.747.747,0,0,0,.131-.011,1.611,1.611,0,0,0,.569-.186,1.356,1.356,0,0,1,.27-.118,2.931,2.931,0,0,1,1.527-.341,2.194,2.194,0,0,0-.386-.2,1.994,1.994,0,0,0-.4-.034c-.117,0-.244-.007-.372-.02a3.567,3.567,0,0,1-.814-.254,2.122,2.122,0,0,0-.678-.2Z"/><path class="cls-10" d="M28.312,18.073h-.005c-.146-.036-.285-.211-.461-.433a3.253,3.253,0,0,0-.721-.726.664.664,0,0,0-.275-.138.96.96,0,0,1-.5-.323c-.356-.389-.06-.941.14-1.148a.649.649,0,0,1,.45-.167.742.742,0,0,1,.509.185,1.671,1.671,0,0,1,.233.743,3.445,3.445,0,0,0,.209.808,1.837,1.837,0,0,1,.339.664c.017.065.033.116.047.165a.611.611,0,0,1,.049.359.018.018,0,0,1-.017.011Zm-1.369-2.9a.606.606,0,0,0-.423.156c-.191.2-.476.726-.139,1.095a.919.919,0,0,0,.481.313.709.709,0,0,1,.286.143,3.273,3.273,0,0,1,.728.733c.165.207.3.373.423.415a.73.73,0,0,0-.055-.317c-.015-.049-.031-.1-.045-.155a1.841,1.841,0,0,0-.337-.665,3.463,3.463,0,0,1-.215-.822,1.671,1.671,0,0,0-.224-.724.709.709,0,0,0-.48-.172Z"/><path class="cls-10" d="M28.1,22.726l-.012,0c-.156-.114-.178-.368-.2-.662a2.46,2.46,0,0,0-.214-.939.952.952,0,0,0-.152-.264,1.256,1.256,0,0,1-.252-.557c-.119-.518.371-.813.646-.9a.742.742,0,0,1,.81.483,1.673,1.673,0,0,1-.144.878,2.845,2.845,0,0,0-.177.686c0,.076-.02.194-.036.316a2.873,2.873,0,0,0-.039.436.892.892,0,0,1-.212.514.025.025,0,0,1-.015.008Zm-.044-3.3a.493.493,0,0,0-.132.017c-.264.079-.733.36-.619.85a1.209,1.209,0,0,0,.245.543.98.98,0,0,1,.156.272,2.489,2.489,0,0,1,.217.95c.025.286.045.514.173.623a.834.834,0,0,0,.193-.473,2.832,2.832,0,0,1,.039-.444c.016-.121.031-.237.035-.314a2.883,2.883,0,0,1,.179-.7,1.648,1.648,0,0,0,.144-.857.709.709,0,0,0-.63-.472Z"/><path d="M24.056,26.79a.528.528,0,0,1-.319-.262.18.18,0,0,1,0-.145l.065.033a.125.125,0,0,0,0,.09c.021.055.086.137.277.216l-.028.068Z"/><path d="M24.578,25.989l-.017-.071a1.613,1.613,0,0,1,.764,0l-.025.069a1.561,1.561,0,0,0-.722,0Z"/><path d="M26.164,25.346c-.316-.245-.319-.433-.306-.5l.073,0v.01c-.009.044-.014.206.278.432l-.045.057Z"/><path d="M26.821,24.574a1.246,1.246,0,0,1-.7-.19l.044-.058a1.307,1.307,0,0,0,.675.175v.073Z"/><path d="M23.3,25.67l-.05-.054a1.069,1.069,0,0,0,.234-.707l.073,0a1.115,1.115,0,0,1-.257.763Z"/><path d="M24.7,24.2a1.482,1.482,0,0,1-.314-.033L24.4,24.1a1.283,1.283,0,0,0,.757-.065l.033.065a1.121,1.121,0,0,1-.494.1Z"/><path d="M27.6,23.546c-.387,0-.478-.111-.488-.124l.06-.043s.1.113.536.092l0,.072-.111,0Z"/><path d="M25.838,23.23a2.037,2.037,0,0,1-.564-.091l.031-.066-.016.033.015-.034a1.466,1.466,0,0,0,.875.023l.031.066a.893.893,0,0,1-.372.069Z"/><path d="M26.535,21.609a2.726,2.726,0,0,0-.18-.538l-.006-.047.037-.015c.027,0,.054.01.219.579l-.07.021Z"/><path d="M26.541,19.881l-.035-.064a.56.56,0,0,0,.257-.418l.074,0a.626.626,0,0,1-.3.477Z"/><path d="M28.086,18.564c-.08-.141.243-.41.309-.463l.046.057c-.166.133-.323.314-.29.371l-.065.035Z"/><path d="M26.484,18.485l-.043-.059a.361.361,0,0,0,.113-.49l.063-.037a.436.436,0,0,1-.133.586Z"/><path d="M26.1,16.836a.5.5,0,0,0-.44-.246l0-.072a.569.569,0,0,1,.509.284l-.065.034Z"/><polygon points="25.289 15.667 25.036 15.667 25.036 15.594 25.289 15.594 25.289 15.667 25.289 15.667"/><path d="M26.312,14.717l-.051-.051c.061-.062.081-.111.058-.147l.065-.025h-.037l.033-.015c.045.07.021.15-.068.238Z"/><path d="M24.177,15.134l-.074-.007a1.023,1.023,0,0,0-.14-.583l.062-.039a1.077,1.077,0,0,1,.152.629Z"/><path d="M25.017,13.636l-.007-.072a2.042,2.042,0,0,0,.326-.118l.03.066a2.052,2.052,0,0,1-.349.124Z"/><path d="M23.926,13.008c-.167-.12-.111-.418-.087-.492l.04-.035v.037l.032.017c-.011.024-.08.315.058.414l-.043.059Z"/><path d="M23.582,14.709l-.065-.035c.1-.177.067-.22.012-.292a.449.449,0,0,1-.108-.312h.073a.38.38,0,0,0,.094.268c.073.1.109.168-.006.371Z"/><path d="M22.32,14.181l-.073,0c0-.082.465-.445.5-.445l.017.068a3.055,3.055,0,0,0-.442.382Z"/><path d="M21.745,14.03l-.072-.012a.506.506,0,0,0-.136-.414l.052-.052a.576.576,0,0,1,.156.478Z"/><path d="M20.793,13.821l-.038-.062a.8.8,0,0,0,.214-.345l.07.024a.889.889,0,0,1-.246.383Z"/><path d="M19.734,13.783l-.036-.062a1.112,1.112,0,0,0,.25-.381l.067.032a1.186,1.186,0,0,1-.281.411Z"/><path d="M18.578,13.9l-.055-.048a.455.455,0,0,0,.037-.475l.029-.059.044.04a.515.515,0,0,1-.055.542Z"/><path d="M18.182,12.243l-.06-.043a.584.584,0,0,0,.111-.4l.06-.038a.569.569,0,0,1-.111.478Z"/><path d="M16.549,12.682l-.015-.072c.327-.067.325-.243.317-.3l.073-.008h-.037l.037,0c.01.069.015.3-.375.38Z"/><path d="M16.49,14.727c-.4-.064-.409-.076-.418-.1l.052-.046c.024.01.211.044.378.07l-.012.072Z"/><path d="M15.163,15.526l-.041-.06a3.842,3.842,0,0,1,.481-.151l.022.069s-.429.128-.462.142Z"/><path d="M14.7,16.127a2.18,2.18,0,0,1-.272-.025l-.026-.076.037,0a.819.819,0,0,0,.345.014l.033.065a.278.278,0,0,1-.117.018Z"/><path d="M14.24,16.909l-.073-.012c.075-.45,0-.525,0-.526l.039-.061c.028.015.116.1.034.6Z"/><polygon points="12.847 15.302 12.663 15.03 12.723 14.989 12.908 15.261 12.847 15.302 12.847 15.302"/><path d="M12.485,16.771a.805.805,0,0,1-.44-.326l.019-.035-.011-.035.051.026a.734.734,0,0,0,.4.3l-.016.07Z"/><path d="M13.513,17.871l0-.073a2.306,2.306,0,0,0,.329-.085l.041.061a2.034,2.034,0,0,1-.366.1Z"/><path d="M13.383,18.9v-.036l-.034-.011a.433.433,0,0,1,.247-.339l.035.063a.364.364,0,0,0-.208.279l-.04.044Z"/><path d="M13.435,19.687a.924.924,0,0,1-.4-.353h.037l.032-.017a1.016,1.016,0,0,0,.352.3l-.018.071Z"/><path d="M12.949,19.891l-.022-.07.011.035-.014-.034a.908.908,0,0,1,.554-.2l0,.072a.841.841,0,0,0-.484.171l-.04.024Z"/><path d="M13.362,20.781a.718.718,0,0,1-.476-.114.152.152,0,0,1-.061-.105l.074,0s.028.193.673.14l.006.072c-.08.007-.152.01-.216.01Z"/><path d="M12.966,21.4l-.072-.011a1.336,1.336,0,0,1,.651-.677l.029.067a1.3,1.3,0,0,0-.608.621Z"/><path d="M13.533,21.989l-.07-.022c0-.009.071-.216.436-.358l.026.069c-.328.127-.391.309-.392.311Z"/><path d="M13.912,22.785l-.046-.056a2.008,2.008,0,0,1,.356-.241l.024.069a1.924,1.924,0,0,0-.334.228Z"/><path d="M14.348,23.445a.239.239,0,0,1-.171-.057l.053-.051s.14.13.489-.118l.043.06a.739.739,0,0,1-.414.166Z"/><path d="M13.122,23.663c-.151-.227-.574-.171-.747-.137l-.019-.034,0-.038c.235-.046.654-.086.824.169l-.062.04Z"/><path d="M12.583,23.982l-.009-.072a1.933,1.933,0,0,1,.694-.007l-.046.056a2.2,2.2,0,0,0-.639.023Z"/><path d="M14.758,24.151c-.066,0-.084-.019-.094-.03l-.011-.07.065.021s.071.05.607-.145L15.35,24a2.009,2.009,0,0,1-.592.156Z"/><path d="M15.472,24.879l-.038-.063c.067-.039.068-.086.065-.181a.5.5,0,0,1,.06-.3l.064.037a.416.416,0,0,0-.05.258.232.232,0,0,1-.1.247Z"/><path d="M13.4,24.685l-.048-.057.015-.008a.364.364,0,0,0,.2-.405l.073-.008a.439.439,0,0,1-.239.478Z"/><path d="M13.607,25.216l-.018-.071.01.035.026-.048c.215-.079.444-.149.521-.067l-.055.049c-.019-.021-.1-.039-.44.086l-.044.016Z"/><path d="M14.431,25.694l-.072-.011c.009-.063.063-.38.193-.423l.024.069c-.064.021-.124.23-.145.365Z"/><path d="M15.01,26.262l0-.072a1.117,1.117,0,0,0,.462-.106l.044.058a1.121,1.121,0,0,1-.5.12Z"/><path d="M16.091,25.136a.868.868,0,0,1-.457-.089l.047-.055a1.4,1.4,0,0,0,.936,0l.018.071a2.3,2.3,0,0,1-.544.071Z"/><path d="M16.026,27.039l-.073-.006a4.217,4.217,0,0,0-.084-.558l.073-.014a4.33,4.33,0,0,1,.084.578Z"/><path class="cls-11" d="M27.68,19.365a.488.488,0,0,0-.2-.352.223.223,0,0,0-.3.037.485.485,0,0,0-.1.388.5.5,0,0,0,.2.351.223.223,0,0,0,.3-.036.487.487,0,0,0,.1-.388Z"/><path d="M27.413,19.848h0a.256.256,0,0,1-.141-.043.556.556,0,0,1-.1-.768A.244.244,0,0,1,27.5,19a.558.558,0,0,1,.1.768.242.242,0,0,1-.18.083Zm-.057-.856a.208.208,0,0,0-.153.071.473.473,0,0,0-.1.373.479.479,0,0,0,.186.337.225.225,0,0,0,.121.037h0a.208.208,0,0,0,.152-.07.523.523,0,0,0-.09-.711.218.218,0,0,0-.119-.037Z"/><path class="cls-11" d="M27.617,18.6a.488.488,0,0,0-.2-.351.222.222,0,0,0-.3.036.538.538,0,0,0,.093.739.222.222,0,0,0,.3-.036.49.49,0,0,0,.1-.388Z"/><path d="M27.349,19.079h0a.26.26,0,0,1-.141-.044.515.515,0,0,1-.2-.364.508.508,0,0,1,.108-.4.243.243,0,0,1,.321-.04.515.515,0,0,1,.2.365.506.506,0,0,1-.107.4.245.245,0,0,1-.18.083Zm-.057-.856a.21.21,0,0,0-.153.07.521.521,0,0,0,.09.71.22.22,0,0,0,.12.038h0a.208.208,0,0,0,.153-.071.464.464,0,0,0,.1-.373.471.471,0,0,0-.185-.337.219.219,0,0,0-.12-.037Z"/><path class="cls-11" d="M27.458,17.773a.489.489,0,0,0-.225-.333.222.222,0,0,0-.292.063.485.485,0,0,0-.067.395.491.491,0,0,0,.226.332.22.22,0,0,0,.292-.062.485.485,0,0,0,.066-.395Z"/><path d="M27.215,18.279h0a.255.255,0,0,1-.124-.032.512.512,0,0,1-.236-.345.5.5,0,0,1,.071-.411.244.244,0,0,1,.316-.068.559.559,0,0,1,.165.757.242.242,0,0,1-.192.1Zm-.1-.849a.208.208,0,0,0-.163.084.466.466,0,0,0-.063.38.472.472,0,0,0,.216.319.223.223,0,0,0,.106.029h0a.206.206,0,0,0,.162-.085.524.524,0,0,0-.153-.7.228.228,0,0,0-.105-.027Z"/><path class="cls-11" d="M27.17,16.914a.493.493,0,0,0-.3-.265.221.221,0,0,0-.266.134.481.481,0,0,0,.037.4.5.5,0,0,0,.3.265.222.222,0,0,0,.267-.134.485.485,0,0,0-.038-.4Z"/><path d="M27,17.473h0a.294.294,0,0,1-.065-.007.52.52,0,0,1-.317-.275.509.509,0,0,1-.038-.416.244.244,0,0,1,.289-.144.512.512,0,0,1,.316.275.5.5,0,0,1,.038.414.235.235,0,0,1-.223.153Zm-.2-.812a.2.2,0,0,0-.188.129.474.474,0,0,0,.037.384.482.482,0,0,0,.292.255.2.2,0,0,0,.244-.124.466.466,0,0,0-.037-.382.477.477,0,0,0-.291-.255.286.286,0,0,0-.057-.007Z"/><path class="cls-11" d="M26.863,16.225a.5.5,0,0,0-.3-.265.222.222,0,0,0-.266.134.489.489,0,0,0,.037.4.5.5,0,0,0,.3.265.221.221,0,0,0,.266-.133.491.491,0,0,0-.037-.4Z"/><path d="M26.694,16.784h0a.369.369,0,0,1-.065-.007.52.52,0,0,1-.317-.276.508.508,0,0,1-.038-.414.242.242,0,0,1,.289-.145.517.517,0,0,1,.317.275.51.51,0,0,1,.038.415.237.237,0,0,1-.224.152Zm-.2-.812a.2.2,0,0,0-.188.13.467.467,0,0,0,.036.383.482.482,0,0,0,.292.255.206.206,0,0,0,.245-.123.523.523,0,0,0-.329-.638.22.22,0,0,0-.056-.007Z"/><path class="cls-11" d="M26.424,15.533a.492.492,0,0,0-.325-.239.22.22,0,0,0-.254.155.485.485,0,0,0,.071.395.5.5,0,0,0,.326.238.219.219,0,0,0,.254-.155.484.484,0,0,0-.072-.394Z"/><path d="M26.283,16.1l-.044,0a.516.516,0,0,1-.339-.248.5.5,0,0,1-.074-.409.238.238,0,0,1,.233-.172.521.521,0,0,1,.382.25.506.506,0,0,1,.073.41.236.236,0,0,1-.231.172Zm-.2-.792a.208.208,0,0,0-.224.143.468.468,0,0,0,.069.378.476.476,0,0,0,.313.23l.038,0a.2.2,0,0,0,.2-.145.47.47,0,0,0-.07-.378.476.476,0,0,0-.312-.23Z"/><path class="cls-11" d="M25.937,14.864a.5.5,0,0,0-.347-.205.219.219,0,0,0-.238.179.481.481,0,0,0,.11.385.5.5,0,0,0,.347.207.222.222,0,0,0,.238-.179.489.489,0,0,0-.11-.387Z"/><path d="M25.822,15.449h-.014a.523.523,0,0,1-.361-.214.5.5,0,0,1-.114-.4.238.238,0,0,1,.242-.2.52.52,0,0,1,.377.214.512.512,0,0,1,.114.4.241.241,0,0,1-.244.194Zm-.234-.771a.2.2,0,0,0-.217.164.465.465,0,0,0,.106.37.482.482,0,0,0,.333.2l.012.019v-.019a.2.2,0,0,0,.206-.165.524.524,0,0,0-.439-.568Z"/><path class="cls-11" d="M25.355,14.242a.5.5,0,0,0-.373-.154.219.219,0,0,0-.209.211.486.486,0,0,0,.165.366.5.5,0,0,0,.374.154.219.219,0,0,0,.209-.211.487.487,0,0,0-.166-.366Z"/><path d="M25.282,14.84a.542.542,0,0,1-.358-.162.505.505,0,0,1-.17-.38.237.237,0,0,1,.226-.229.547.547,0,0,1,.389.16.5.5,0,0,1,.171.381.237.237,0,0,1-.227.228l-.031,0Zm-.27-.735c-.14.012-.212.085-.22.2a.469.469,0,0,0,.159.351.5.5,0,0,0,.331.151v.019l.028-.021a.2.2,0,0,0,.192-.193.472.472,0,0,0-.16-.351.5.5,0,0,0-.33-.151Z"/><path class="cls-11" d="M24.7,13.67a.5.5,0,0,0-.387-.12.217.217,0,0,0-.188.229.487.487,0,0,0,.2.349.5.5,0,0,0,.387.12.219.219,0,0,0,.189-.229.491.491,0,0,0-.2-.349Z"/><path d="M24.648,14.272h0a.558.558,0,0,1-.336-.129.507.507,0,0,1-.206-.364.239.239,0,0,1,.2-.248.568.568,0,0,1,.608.487.236.236,0,0,1-.2.248.293.293,0,0,1-.067.006Zm-.271-.709a.381.381,0,0,0-.059,0,.2.2,0,0,0-.173.21.48.48,0,0,0,.191.336.488.488,0,0,0,.372.115.2.2,0,0,0,.173-.21.471.471,0,0,0-.192-.334.51.51,0,0,0-.312-.122Z"/><path class="cls-11" d="M24.008,13.212a.509.509,0,0,0-.4-.055.218.218,0,0,0-.147.257.493.493,0,0,0,.254.312.5.5,0,0,0,.4.055.216.216,0,0,0,.147-.257.494.494,0,0,0-.254-.312Z"/><path d="M23.987,13.821a.587.587,0,0,1-.283-.078.517.517,0,0,1-.264-.325.236.236,0,0,1,.159-.278.526.526,0,0,1,.418.056.505.505,0,0,1,.264.325.236.236,0,0,1-.159.278.39.39,0,0,1-.135.022Zm-.254-.665a.347.347,0,0,0-.12.019.2.2,0,0,0-.135.236.476.476,0,0,0,.245.3.56.56,0,0,0,.264.073h0a.353.353,0,0,0,.121-.019.2.2,0,0,0,.136-.236.477.477,0,0,0-.246-.3.549.549,0,0,0-.265-.073Z"/><path class="cls-11" d="M23.232,12.807a.5.5,0,0,0-.4-.019.218.218,0,0,0-.123.27.551.551,0,0,0,.687.3.216.216,0,0,0,.123-.269.489.489,0,0,0-.282-.287Z"/><path d="M23.224,13.417a.609.609,0,0,1-.246-.055.51.51,0,0,1-.292-.3.235.235,0,0,1,.132-.291.53.53,0,0,1,.422.018.507.507,0,0,1,.292.3.235.235,0,0,1-.133.292.417.417,0,0,1-.175.036Zm-.23-.645a.379.379,0,0,0-.159.033.2.2,0,0,0-.112.247.47.47,0,0,0,.271.275.485.485,0,0,0,.389.019A.2.2,0,0,0,23.5,13.1a.47.47,0,0,0-.271-.275.561.561,0,0,0-.23-.052Z"/><path class="cls-11" d="M22.471,12.5a.5.5,0,0,0-.405.008.217.217,0,0,0-.105.277.5.5,0,0,0,.3.269.506.506,0,0,0,.406-.009.218.218,0,0,0,.1-.277.494.494,0,0,0-.3-.268Z"/><path d="M22.469,13.114a.616.616,0,0,1-.213-.039.515.515,0,0,1-.313-.28.235.235,0,0,1,.113-.3.531.531,0,0,1,.422-.01.518.518,0,0,1,.312.28.234.234,0,0,1-.113.3.426.426,0,0,1-.208.049Zm-.205-.629a.383.383,0,0,0-.189.044.2.2,0,0,0-.1.254.481.481,0,0,0,.29.257.5.5,0,0,0,.389-.008.2.2,0,0,0,.1-.254.481.481,0,0,0-.29-.257.591.591,0,0,0-.2-.036Z"/><path class="cls-11" d="M21.7,12.264a.506.506,0,0,0-.4.039.216.216,0,0,0-.082.284.554.554,0,0,0,.724.205.216.216,0,0,0,.082-.283.494.494,0,0,0-.321-.245Z"/><path d="M21.7,12.874h0a.62.62,0,0,1-.174-.025.513.513,0,0,1-.333-.255.235.235,0,0,1,.089-.307.53.53,0,0,1,.42-.041.519.519,0,0,1,.333.255.235.235,0,0,1-.089.307.444.444,0,0,1-.246.066Zm-.172-.615a.4.4,0,0,0-.224.06.2.2,0,0,0-.076.26.479.479,0,0,0,.309.234.484.484,0,0,0,.387-.036.2.2,0,0,0,.076-.26.482.482,0,0,0-.309-.235.611.611,0,0,0-.163-.023Z"/><path class="cls-11" d="M20.847,12.121a.494.494,0,0,0-.393.1.213.213,0,0,0-.038.292.553.553,0,0,0,.748.094.217.217,0,0,0,.038-.293.5.5,0,0,0-.355-.193Z"/><path d="M20.851,12.731h0a.752.752,0,0,1-.082,0,.521.521,0,0,1-.369-.2.231.231,0,0,1,.041-.316.574.574,0,0,1,.777.1.237.237,0,0,1-.041.318.484.484,0,0,1-.326.11Zm-.084-.6a.447.447,0,0,0-.3.1.2.2,0,0,0-.035.269.483.483,0,0,0,.342.185.47.47,0,0,0,.377-.1.2.2,0,0,0,.035-.269.484.484,0,0,0-.342-.184.506.506,0,0,0-.077-.005Z"/><path class="cls-11" d="M20.006,12.074a.5.5,0,0,0-.383.133.216.216,0,0,0-.012.295.556.556,0,0,0,.753.03.215.215,0,0,0,.012-.295.5.5,0,0,0-.37-.163Z"/><path d="M20.007,12.684h-.026a.516.516,0,0,1-.385-.17.234.234,0,0,1,.013-.319.508.508,0,0,1,.371-.139.538.538,0,0,1,.411.17.234.234,0,0,1-.012.32.514.514,0,0,1-.372.139ZM20,12.093a.488.488,0,0,0-.365.126.2.2,0,0,0-.01.271.474.474,0,0,0,.356.155l.024.02v-.019a.474.474,0,0,0,.343-.127.2.2,0,0,0,.011-.271.483.483,0,0,0-.356-.155Z"/><path class="cls-11" d="M19.236,12.1a.5.5,0,0,0-.383.132.215.215,0,0,0-.012.295.553.553,0,0,0,.753.03.216.216,0,0,0,.013-.295.5.5,0,0,0-.371-.162Z"/><path d="M19.237,12.71h-.026a.525.525,0,0,1-.385-.17.235.235,0,0,1,.013-.32.508.508,0,0,1,.371-.139.54.54,0,0,1,.412.171.236.236,0,0,1-.013.319.51.51,0,0,1-.372.139Zm0-.59a.488.488,0,0,0-.365.126.2.2,0,0,0-.011.271.488.488,0,0,0,.356.155l.025.019v-.019a.467.467,0,0,0,.343-.127.2.2,0,0,0,.012-.27.48.48,0,0,0-.357-.155Z"/><path class="cls-11" d="M18.333,12.207a.491.491,0,0,0-.334.226.216.216,0,0,0,.067.288.5.5,0,0,0,.4.061.49.49,0,0,0,.334-.227.214.214,0,0,0-.066-.287.5.5,0,0,0-.4-.061Z"/><path d="M18.329,12.817a.46.46,0,0,1-.275-.081.235.235,0,0,1-.072-.312.518.518,0,0,1,.347-.236.527.527,0,0,1,.417.065.233.233,0,0,1,.071.311.513.513,0,0,1-.346.236.626.626,0,0,1-.142.017Zm.142-.607a.6.6,0,0,0-.133.015.475.475,0,0,0-.322.217.2.2,0,0,0,.061.264.488.488,0,0,0,.385.057.471.471,0,0,0,.321-.217.194.194,0,0,0-.061-.263.419.419,0,0,0-.251-.073Z"/><path class="cls-11" d="M17.512,12.41a.5.5,0,0,0-.314.253.217.217,0,0,0,.091.281.552.552,0,0,0,.719-.225.219.219,0,0,0-.092-.282.5.5,0,0,0-.4-.027Z"/><path d="M17.511,13.02a.438.438,0,0,1-.233-.06.237.237,0,0,1-.1-.305.517.517,0,0,1,.326-.263.528.528,0,0,1,.421.029.237.237,0,0,1,.1.305.522.522,0,0,1-.327.265.651.651,0,0,1-.188.029Zm.184-.62a.574.574,0,0,0-.177.028.477.477,0,0,0-.3.242.2.2,0,0,0,.083.259.5.5,0,0,0,.388.026.48.48,0,0,0,.3-.243.2.2,0,0,0-.084-.259A.4.4,0,0,0,17.7,12.4Z"/><path class="cls-11" d="M16.764,12.726a.492.492,0,0,0-.281.289.217.217,0,0,0,.123.269.5.5,0,0,0,.4-.02.49.49,0,0,0,.281-.289.215.215,0,0,0-.123-.268.5.5,0,0,0-.405.019Z"/><path d="M16.772,13.337h0A.419.419,0,0,1,16.6,13.3a.236.236,0,0,1-.134-.291.515.515,0,0,1,.291-.3.526.526,0,0,1,.422-.019.234.234,0,0,1,.133.291.512.512,0,0,1-.291.3.606.606,0,0,1-.247.055Zm.23-.645a.576.576,0,0,0-.23.051.482.482,0,0,0-.271.277.2.2,0,0,0,.113.246A.489.489,0,0,0,17,13.247a.476.476,0,0,0,.271-.277.2.2,0,0,0-.113-.246A.379.379,0,0,0,17,12.692Z"/><path class="cls-11" d="M16.017,13.1a.493.493,0,0,0-.256.311.218.218,0,0,0,.146.258.5.5,0,0,0,.4-.053.492.492,0,0,0,.256-.312.22.22,0,0,0-.147-.258.506.506,0,0,0-.4.054Z"/><path d="M16.036,13.714a.386.386,0,0,1-.135-.023.238.238,0,0,1-.159-.279.508.508,0,0,1,.265-.324.525.525,0,0,1,.418-.055.238.238,0,0,1,.159.279.514.514,0,0,1-.265.324.6.6,0,0,1-.283.078Zm.254-.666a.554.554,0,0,0-.264.073.47.47,0,0,0-.246.3.2.2,0,0,0,.134.237A.5.5,0,0,0,16.3,13.6a.473.473,0,0,0,.246-.3.2.2,0,0,0-.134-.237.367.367,0,0,0-.122-.02Z"/><path class="cls-11" d="M15.31,13.578a.489.489,0,0,0-.22.337.217.217,0,0,0,.174.24.5.5,0,0,0,.393-.1.493.493,0,0,0,.22-.337.217.217,0,0,0-.173-.24.5.5,0,0,0-.394.1Z"/><path d="M15.349,14.184h0a.382.382,0,0,1-.09-.01.236.236,0,0,1-.188-.261.513.513,0,0,1,.228-.351.532.532,0,0,1,.41-.1.236.236,0,0,1,.187.26.51.51,0,0,1-.228.351.572.572,0,0,1-.319.11Zm.269-.694a.539.539,0,0,0-.3.1.478.478,0,0,0-.212.323.2.2,0,0,0,.16.22.53.53,0,0,0,.589-.415A.2.2,0,0,0,15.7,13.5a.345.345,0,0,0-.081-.01Z"/><path class="cls-11" d="M14.656,14.067a.488.488,0,0,0-.19.355.218.218,0,0,0,.194.224.493.493,0,0,0,.383-.129.486.486,0,0,0,.19-.353.219.219,0,0,0-.193-.226.505.505,0,0,0-.384.129Z"/><path d="M14.714,14.67h0a.355.355,0,0,1-.057-.005.238.238,0,0,1-.211-.243.568.568,0,0,1,.6-.5.237.237,0,0,1,.209.244.513.513,0,0,1-.2.368.552.552,0,0,1-.342.138Zm.272-.717a.506.506,0,0,0-.317.129.469.469,0,0,0-.184.34.2.2,0,0,0,.178.206.482.482,0,0,0,.368-.125.471.471,0,0,0,.183-.339.2.2,0,0,0-.177-.207.292.292,0,0,0-.051,0Z"/><path class="cls-11" d="M14.078,14.664a.483.483,0,0,0-.163.366.22.22,0,0,0,.209.211.5.5,0,0,0,.374-.156.491.491,0,0,0,.164-.367.22.22,0,0,0-.21-.21.5.5,0,0,0-.374.156Z"/><path d="M14.152,15.261h-.03a.24.24,0,0,1-.227-.229.506.506,0,0,1,.17-.381.54.54,0,0,1,.357-.163.249.249,0,0,1,.259.229.509.509,0,0,1-.17.382.54.54,0,0,1-.359.163Zm.294-.734a.5.5,0,0,0-.354.151.466.466,0,0,0-.158.35.2.2,0,0,0,.192.194l.026.02v-.019a.5.5,0,0,0,.332-.152.468.468,0,0,0,.158-.352.2.2,0,0,0-.192-.192Z"/><path class="cls-11" d="M13.581,15.326a.489.489,0,0,0-.132.379.22.22,0,0,0,.227.192.5.5,0,0,0,.359-.187.482.482,0,0,0,.132-.378.221.221,0,0,0-.226-.193.5.5,0,0,0-.36.187Z"/><path d="M13.68,15.916h0a.238.238,0,0,1-.245-.208.516.516,0,0,1,.136-.395.526.526,0,0,1,.372-.193.24.24,0,0,1,.248.209.5.5,0,0,1-.137.393.517.517,0,0,1-.369.194Zm.26-.758a.53.53,0,0,0-.473.544.2.2,0,0,0,.209.176l0,.019v-.019a.481.481,0,0,0,.34-.18.464.464,0,0,0,.128-.363.2.2,0,0,0-.208-.177Z"/><path class="cls-11" d="M13.128,16a.485.485,0,0,0-.092.39.222.222,0,0,0,.247.168.5.5,0,0,0,.337-.224.484.484,0,0,0,.09-.389.219.219,0,0,0-.246-.168.491.491,0,0,0-.336.223Z"/><path d="M13.256,16.582a.237.237,0,0,1-.238-.183.5.5,0,0,1,.094-.405.514.514,0,0,1,.35-.232h.005a.242.242,0,0,1,.261.182.5.5,0,0,1-.093.4.517.517,0,0,1-.35.232Zm.235-.784a.478.478,0,0,0-.347.217.463.463,0,0,0-.089.374.2.2,0,0,0,.2.155v.019l.025-.02a.525.525,0,0,0,.411-.589.2.2,0,0,0-.2-.156Z"/><path class="cls-11" d="M12.748,16.773a.489.489,0,0,0-.021.4A.221.221,0,0,0,13,17.3a.5.5,0,0,0,.293-.277.488.488,0,0,0,.022-.4.223.223,0,0,0-.272-.123.5.5,0,0,0-.294.277Z"/><path d="M12.929,17.325a.239.239,0,0,1-.22-.145.56.56,0,0,1,.328-.7.243.243,0,0,1,.294.133.559.559,0,0,1-.327.7.284.284,0,0,1-.075.011Zm.183-.82a.243.243,0,0,0-.065.009.48.48,0,0,0-.281.267.474.474,0,0,0-.022.384.207.207,0,0,0,.25.113.48.48,0,0,0,.281-.267.47.47,0,0,0,.021-.384.2.2,0,0,0-.184-.122Z"/><path class="cls-11" d="M12.449,17.576a.485.485,0,0,0,.015.4.223.223,0,0,0,.282.1.5.5,0,0,0,.266-.3.486.486,0,0,0-.015-.4.223.223,0,0,0-.282-.1.491.491,0,0,0-.266.3Z"/><path d="M12.656,18.111a.244.244,0,0,1-.209-.125.5.5,0,0,1-.016-.416.513.513,0,0,1,.278-.314.244.244,0,0,1,.3.106.56.56,0,0,1-.262.73.253.253,0,0,1-.1.019Zm.149-.835a.226.226,0,0,0-.083.016.523.523,0,0,0-.242.675.205.205,0,0,0,.259.09.48.48,0,0,0,.255-.291.464.464,0,0,0-.014-.384.2.2,0,0,0-.175-.106Z"/><path class="cls-11" d="M12.188,19.1a.341.341,0,0,0,.114.307.264.264,0,0,0,.3.022.373.373,0,0,0,.183-.286.339.339,0,0,0-.113-.308.264.264,0,0,0-.3-.021.375.375,0,0,0-.184.286Z"/><path d="M12.465,19.482h0a.275.275,0,0,1-.175-.062.362.362,0,0,1-.121-.324.394.394,0,0,1,.193-.3.289.289,0,0,1,.32.023.366.366,0,0,1,.121.325.4.4,0,0,1-.194.3.3.3,0,0,1-.144.038Zm.043-.688a.266.266,0,0,0-.127.034.356.356,0,0,0-.173.272.323.323,0,0,0,.106.291.24.24,0,0,0,.151.053h0a.261.261,0,0,0,.126-.033.359.359,0,0,0,.173-.272.325.325,0,0,0-.106-.292.245.245,0,0,0-.15-.053Z"/><path class="cls-11" d="M12.258,18.387a.484.484,0,0,0,.062.4.224.224,0,0,0,.292.066.5.5,0,0,0,.229-.331.49.49,0,0,0-.062-.4.223.223,0,0,0-.292-.065.491.491,0,0,0-.229.33Z"/><path d="M12.5,18.9a.243.243,0,0,1-.194-.1.5.5,0,0,1-.066-.412.514.514,0,0,1,.239-.343.244.244,0,0,1,.316.071.558.558,0,0,1-.174.754.253.253,0,0,1-.121.031Zm.1-.849a.224.224,0,0,0-.1.027.522.522,0,0,0-.161.7.21.21,0,0,0,.268.06.477.477,0,0,0,.219-.318.47.47,0,0,0-.058-.38.206.206,0,0,0-.164-.087Z"/><path class="cls-12" d="M27.059,18.023a.261.261,0,0,1,.295-.092c-.04-.264-.124-.353-.227-.321s-.15.167-.068.413Z"/><path class="cls-12" d="M27.2,18.82a.26.26,0,0,1,.3-.069c-.019-.266-.1-.362-.2-.338s-.163.156-.1.407Z"/><path class="cls-12" d="M26.863,17.3a.256.256,0,0,1,.26-.163c-.106-.246-.21-.311-.3-.255s-.1.2.042.418Z"/><path class="cls-12" d="M26.5,16.57a.259.259,0,0,1,.261-.163c-.106-.245-.211-.311-.3-.254s-.1.2.041.417Z"/><path class="cls-12" d="M25.642,15.241a.256.256,0,0,1,.23-.2c-.144-.226-.258-.273-.339-.2s-.068.213.109.4Z"/><path class="cls-12" d="M25.079,14.662a.254.254,0,0,1,.223-.21c-.153-.22-.269-.264-.347-.191s-.06.216.124.4Z"/><path class="cls-12" d="M23.9,13.675a.252.252,0,0,1,.146-.268c-.214-.162-.338-.168-.39-.075s.01.223.244.343Z"/><path class="cls-12" d="M24.511,14.132a.255.255,0,0,1,.191-.239c-.182-.2-.3-.225-.37-.141s-.029.222.179.38Z"/><path class="cls-12" d="M23.193,13.293a.252.252,0,0,1,.118-.282c-.231-.141-.354-.134-.4-.036s.034.221.278.318Z"/><path class="cls-12" d="M22.474,12.982a.254.254,0,0,1,.076-.295c-.247-.106-.369-.082-.4.022s.066.213.32.273Z"/><path class="cls-12" d="M21.7,12.746a.251.251,0,0,1,.05-.3c-.256-.085-.375-.051-.393.054s.083.208.343.247Z"/><path class="cls-12" d="M20.941,12.6a.25.25,0,0,1,.028-.3c-.262-.067-.378-.024-.388.082s.1.2.36.222Z"/><path class="cls-12" d="M20.136,12.54a.253.253,0,0,1,0-.3c-.267-.04-.378.015-.378.121s.119.191.382.184Z"/><path class="cls-12" d="M18.56,12.657a.253.253,0,0,1-.078-.295c-.269.026-.363.1-.337.208s.162.156.415.087Z"/><path class="cls-12" d="M19.336,12.557a.253.253,0,0,1-.037-.3c-.27-.01-.375.055-.362.161s.139.177.4.143Z"/><path class="cls-12" d="M17.8,12.819a.251.251,0,0,1-.12-.28c-.263.063-.345.154-.3.253s.183.131.423.027Z"/><path class="cls-12" d="M16.342,13.482a.255.255,0,0,1-.172-.254c-.246.111-.309.217-.249.306s.205.094.421-.052Z"/><path class="cls-12" d="M17.045,13.126a.252.252,0,0,1-.14-.271c-.257.081-.333.178-.285.273s.192.119.425,0Z"/><path class="cls-12" d="M15.035,14.38a.254.254,0,0,1-.221-.212c-.217.159-.256.276-.179.35s.22.05.4-.138Z"/><path class="cls-12" d="M15.659,13.876a.255.255,0,0,1-.205-.228c-.228.142-.276.254-.206.335s.216.067.411-.107Z"/><path class="cls-12" d="M14.481,14.919a.255.255,0,0,1-.24-.191c-.2.178-.23.3-.147.365s.225.03.387-.174Z"/><path class="cls-12" d="M13.984,15.555a.255.255,0,0,1-.256-.168c-.184.2-.2.317-.112.376s.226.011.368-.208Z"/><path class="cls-12" d="M13.569,16.207a.26.26,0,0,1-.28-.128c-.151.22-.15.343-.052.388s.225-.023.332-.26Z"/><path class="cls-12" d="M13.205,16.9a.26.26,0,0,1-.295-.091c-.121.239-.1.36,0,.392s.22-.053.3-.3Z"/><path class="cls-12" d="M12.913,17.615a.259.259,0,0,1-.306-.044c-.08.255-.044.372.063.388s.208-.087.243-.344Z"/><path class="cls-12" d="M12.717,18.41a.26.26,0,0,1-.308-.023c-.063.259-.018.373.089.382s.2-.1.219-.359Z"/><path class="cls-12" d="M12.637,19.072a.312.312,0,0,1-.306.022c-.036.211.02.295.128.287s.19-.105.178-.309Z"/><path class="cls-12" d="M26.183,15.924a.256.256,0,0,1,.234-.2c-.141-.227-.255-.277-.337-.208s-.071.213.1.407Z"/><path class="cls-12" d="M27.293,19.628a.259.259,0,0,1,.3-.07c-.018-.266-.1-.361-.2-.337s-.162.155-.1.407Z"/><path class="cls-6" d="M26.235,15.293a.858.858,0,0,0-.253.662,5.151,5.151,0,0,1,.243,1.188,4.528,4.528,0,0,1-.112.627,1.473,1.473,0,0,0,.359-.782c0-.384-.244-.886-.244-1.169s.014-.532.007-.526Z"/><path d="M26.113,17.806a.033.033,0,0,1-.017,0,.037.037,0,0,1-.019-.042,4.433,4.433,0,0,0,.111-.621,1.929,1.929,0,0,0-.129-.733,3.05,3.05,0,0,1-.114-.446.875.875,0,0,1,.23-.657c.036-.042.044-.046.06-.046.04.025.04.025.036.194,0,.1-.006.228-.006.368a2.011,2.011,0,0,0,.107.485,2.577,2.577,0,0,1,.136.684,1.481,1.481,0,0,1-.367.806.038.038,0,0,1-.028.012Zm.086-2.425a.81.81,0,0,0-.181.569,2.88,2.88,0,0,0,.112.435,1.993,1.993,0,0,1,.132.762c-.023.194-.052.355-.075.467a1.226,1.226,0,0,0,.248-.627,2.546,2.546,0,0,0-.134-.662,2.068,2.068,0,0,1-.109-.506c0-.142,0-.276.006-.374v-.064Z"/><path class="cls-6" d="M26.8,16.513a.657.657,0,0,0-.213.568A3.769,3.769,0,0,0,27.02,18.2a3.436,3.436,0,0,1,.292.774c-.009.159.057-.153.027-.5a4.3,4.3,0,0,0-.486-1.123.8.8,0,0,1-.089-.422c.01-.263.036-.412.032-.416Z"/><path d="M27.314,19.056a.037.037,0,0,1-.027-.011.178.178,0,0,1-.011-.07,3.236,3.236,0,0,0-.289-.755,3.691,3.691,0,0,1-.44-1.136.69.69,0,0,1,.227-.6.038.038,0,0,1,.048,0,.193.193,0,0,1,.007.073c-.007.062-.021.189-.028.37a.774.774,0,0,0,.083.4,4.276,4.276,0,0,1,.492,1.139,1.633,1.633,0,0,1-.034.573.038.038,0,0,1-.028.012Zm-.565-2.442a.673.673,0,0,0-.129.465,3.773,3.773,0,0,0,.432,1.108,5.573,5.573,0,0,1,.255.595,2.259,2.259,0,0,0,0-.3,4.349,4.349,0,0,0-.482-1.108.817.817,0,0,1-.093-.441c0-.137.014-.243.021-.314Z"/><path class="cls-10" d="M19.687,11.607c0-.083-.093-.149-.208-.149s-.208.066-.208.149.094.148.208.148.208-.066.208-.148Z"/><path class="cls-10" d="M19.777,11.952c0-.078-.1-.142-.215-.142s-.215.064-.215.142.1.142.215.142.215-.063.215-.142Z"/><path class="cls-10" d="M20.043,11.543s-.245.182-.144.254.381-.157.381-.157Z"/><path class="cls-10" d="M27.25,15.7a.145.145,0,0,0-.065-.125.115.115,0,0,0-.128,0,.147.147,0,0,0-.065.125.149.149,0,0,0,.065.125.115.115,0,0,0,.128,0,.147.147,0,0,0,.065-.125Z"/><path class="cls-10" d="M27.156,15.356a.136.136,0,1,0-.134.156.146.146,0,0,0,.134-.156Z"/><path class="cls-10" d="M27.22,16.061c0-.045-.023-.081-.052-.081s-.052.036-.052.081.023.08.052.08.052-.036.052-.08Z"/><path class="cls-10" d="M27.437,15.431c0-.05-.023-.092-.053-.092s-.053.042-.053.092.024.093.053.093.053-.042.053-.093Z"/><path class="cls-10" d="M26.846,15.494c0-.041-.023-.075-.052-.075s-.053.034-.053.075.024.076.053.076.052-.034.052-.076Z"/><path class="cls-10" d="M26.939,15.991a.111.111,0,1,0-.11.122.116.116,0,0,0,.11-.122Z"/><path class="cls-10" d="M26.648,15.772a.094.094,0,1,0-.094.1.1.1,0,0,0,.094-.1Z"/><path class="cls-10" d="M26.6,15.478a.087.087,0,0,0-.04-.075.076.076,0,0,0-.082,0,.088.088,0,0,0-.041.075.089.089,0,0,0,.041.075.08.08,0,0,0,.082,0,.088.088,0,0,0,.04-.075Z"/><path class="cls-10" d="M27.933,16.975a.351.351,0,0,0-.431-.148c-.118.076-.115.264.005.422a.353.353,0,0,0,.432.148c.118-.075.115-.264-.006-.422Z"/><path class="cls-10" d="M28.277,19.88a.315.315,0,0,0-.213-.38c-.142-.017-.275.126-.3.32s.072.363.213.38.274-.127.3-.32Z"/><path class="cls-10" d="M28.349,21.571a.315.315,0,0,0-.179-.4c-.138-.028-.284.1-.324.294a.314.314,0,0,0,.178.4c.14.029.286-.1.325-.293Z"/><path class="cls-10" d="M28.679,19.988a.118.118,0,1,0-.116.139.129.129,0,0,0,.116-.139Z"/><path class="cls-10" d="M28.393,20.307l-.24.268s-.225.006-.214.078.311.289.308.375.2-.02.2-.02l.161-.485s-.009-.335-.1-.33-.112.107-.117.114Z"/><path class="cls-10" d="M12.624,20.2a.114.114,0,1,0-.114.113.114.114,0,0,0,.114-.113Z"/><path class="cls-10" d="M12.732,19.856a.115.115,0,1,0-.114.118.117.117,0,0,0,.114-.118Z"/><path class="cls-10" d="M11.8,18.218c-.043-.095-.132-.148-.2-.119s-.086.131-.043.226.132.147.2.118a.166.166,0,0,0,.044-.225Z"/><path class="cls-10" d="M12.078,19.238a.236.236,0,0,0-.273-.153.208.208,0,0,0-.061.292.236.236,0,0,0,.274.153c.092-.038.119-.169.06-.292Z"/><path class="cls-10" d="M12.381,19.987c.019-.154-.046-.295-.144-.315s-.193.087-.212.24.045.3.143.315.194-.087.213-.24Z"/><path class="cls-10" d="M11.9,20.1c.061-.143.038-.3-.051-.342s-.211.032-.272.174-.037.3.051.341.21-.03.272-.173Z"/><path class="cls-10" d="M11.673,19.774a.127.127,0,1,0-.127.131.128.128,0,0,0,.127-.131Z"/><path class="cls-10" d="M11.572,19.449a.114.114,0,1,0-.114.119.117.117,0,0,0,.114-.119Z"/><path class="cls-10" d="M11.68,18.822c0-.11-.05-.2-.111-.2s-.111.09-.111.2.05.2.111.2.111-.09.111-.2Z"/><path class="cls-10" d="M12.021,18.774c.014-.109-.022-.205-.083-.213s-.123.075-.137.184.023.2.083.213.122-.074.137-.184Z"/><path class="cls-10" d="M14.453,13.981c.046-.156,0-.312-.1-.349s-.222.058-.268.214,0,.312.105.349.222-.059.267-.214Z"/><path class="cls-10" d="M13.992,14.672c.135-.114.193-.271.128-.352s-.225-.053-.361.061-.193.271-.129.352.226.053.362-.061Z"/><path class="cls-10" d="M13.722,14.288c.134-.1.191-.233.127-.3s-.223-.046-.356.052-.192.234-.128.3.223.045.357-.053Z"/><path class="cls-10" d="M14.761,13.613c.09-.068.129-.162.086-.211s-.151-.032-.241.037-.13.163-.087.211.152.031.242-.037Z"/><path class="cls-10" d="M14.219,14.267c.062-.094.066-.2.01-.227s-.153.02-.215.115-.066.2-.009.227.152-.02.214-.115Z"/><path class="cls-10" d="M15,13.863c.1-.081.135-.188.085-.239s-.171-.027-.268.054-.135.187-.085.238.17.028.268-.053Z"/><path class="cls-10" d="M13.588,14.806c.091,0,.159-.049.153-.1s-.085-.088-.175-.084-.159.05-.154.1.085.089.176.084Z"/><path class="cls-10" d="M15.3,13.362c.062-.094.066-.2.009-.227s-.153.02-.214.114-.066.2-.009.227.153-.02.214-.114Z"/><path class="cls-7" d="M25.6,16.224a1.24,1.24,0,0,0,.173-.855c-.109-.414-.575-.122-.564.026s.3.345.318.435-.032.367.073.394Z"/><path class="cls-8" d="M25.605,16.246l-.014,0c-.088-.023-.086-.173-.084-.293a.671.671,0,0,0,0-.116.508.508,0,0,0-.12-.149c-.09-.092-.192-.2-.2-.289a.177.177,0,0,1,.059-.125.433.433,0,0,1,.291-.134c.071,0,.2.03.251.227a1.24,1.24,0,0,1-.175.87l-.007.012Zm-.069-1.071a.388.388,0,0,0-.262.122.147.147,0,0,0-.05.1c.006.079.106.182.187.265a.465.465,0,0,1,.13.169.645.645,0,0,1,0,.123c0,.094,0,.219.043.25a1.2,1.2,0,0,0,.162-.826c-.034-.13-.108-.2-.214-.2Z"/><path class="cls-6" d="M20.215,12.56s1.015.039,1.022.688a4.065,4.065,0,0,1-.036.509.672.672,0,0,0,.309-.6c0-.659-.907-1.111-1.3-.6Z"/><path d="M21.2,13.8a.046.046,0,0,1-.046-.051,3.82,3.82,0,0,0,.035-.45v-.055c-.006-.6-.968-.641-.978-.641a.045.045,0,0,1-.039-.027.043.043,0,0,1,0-.046.761.761,0,0,1,1.121.038.826.826,0,0,1,.257.59.711.711,0,0,1-.333.637.059.059,0,0,1-.022.005Zm-.891-1.281c.261.027.967.155.974.726l0,.056a3.571,3.571,0,0,1-.024.357.647.647,0,0,0,.207-.494.746.746,0,0,0-.232-.532.831.831,0,0,0-.565-.249.512.512,0,0,0-.358.136Z"/><path class="cls-6" d="M19.571,12.531s.819-.169.825.481-.26.752-.26.752a.814.814,0,0,0,.631-.791.671.671,0,0,0-1.2-.442Z"/><path d="M20.136,13.81a.045.045,0,0,1-.043-.032.046.046,0,0,1,.026-.056s.237-.109.231-.71c0-.376-.3-.455-.557-.455a1.077,1.077,0,0,0-.212.019.051.051,0,0,1-.049-.021.045.045,0,0,1,0-.051A.723.723,0,0,1,20.6,12.44a.741.741,0,0,1,.214.533.865.865,0,0,1-.667.836Zm-.343-1.344c.415,0,.645.193.649.545a1.2,1.2,0,0,1-.132.639.729.729,0,0,0,.411-.677.642.642,0,0,0-.187-.469.629.629,0,0,0-.845-.034c.031,0,.066,0,.1,0Z"/><path class="cls-13" d="M22.351,26.536a7.8,7.8,0,0,0,4.986-5.712A8.031,8.031,0,0,1,22.475,27.1Z"/><path d="M22.475,27.12l-.009,0a.016.016,0,0,1-.009-.013l-.125-.565a7.937,7.937,0,0,0,4.987-5.72,8.028,8.028,0,0,1-4.837,6.3Zm4.843-6.3a7.79,7.79,0,0,1-4.962,5.732l.133.522a8.068,8.068,0,0,0,4.829-6.254Z"/><path class="cls-14" d="M22.744,26.826c.118,0,.411-.32.579-.357s.187-.2-.006-.21-.361.216-.361.216a.763.763,0,0,1-.343.16c-.174.018-.063.234.131.191Z"/><path class="cls-14" d="M24.949,25.2s-.4.228-.342.283.411-.215.417-.221.15-.179-.075-.062Z"/><path class="cls-14" d="M24.63,25.51h0l-.037-.013c0-.111.289-.279.347-.312a.288.288,0,0,1,.117-.043c.051.058-.019.134-.02.134a1.279,1.279,0,0,1-.407.234Zm.426-.335a.759.759,0,0,0-.1.043.988.988,0,0,0-.337.253h.009a1.352,1.352,0,0,0,.38-.223.208.208,0,0,0,.046-.074Z"/><path class="cls-14" d="M23.56,26.235s-.119-.044.186-.16.287-.253.387-.308.312-.2.355-.117-.224.259-.286.277-.368.3-.456.32a.225.225,0,0,1-.186-.012Z"/><path class="cls-14" d="M25.278,24.937l-.01,0,.024-.057c-.027,0,.008-.035.226-.276a.032.032,0,0,1,.044,0,.031.031,0,0,1,0,.044c-.233.256-.267.294-.287.294Z"/><path class="cls-14" d="M25.685,24.478a.033.033,0,0,1-.019-.006.029.029,0,0,1,0-.04l.249-.3a.029.029,0,1,1,.045.037l-.249.3a.028.028,0,0,1-.022.01Z"/><path class="cls-14" d="M26.046,24a.023.023,0,0,1-.014,0,.025.025,0,0,1-.008-.035l.28-.444a.026.026,0,0,1,.036-.008.025.025,0,0,1,.008.035l-.28.444a.025.025,0,0,1-.022.012Z"/><path class="cls-14" d="M26.426,23.384l-.011,0a.024.024,0,0,1-.01-.032l.229-.455a.025.025,0,0,1,.033-.011.024.024,0,0,1,.01.032l-.229.455a.025.025,0,0,1-.022.013Z"/><path class="cls-14" d="M26.731,22.757l-.01,0a.025.025,0,0,1-.012-.032l.075-.16a.025.025,0,0,1,.032-.012.025.025,0,0,1,.012.032l-.075.16a.024.024,0,0,1-.022.014Z"/><path class="cls-1" d="M26.974,22.136l-.062.191Z"/><path class="cls-13" d="M17.331,26.436a7.836,7.836,0,0,1-4.94-5.815,8.107,8.107,0,0,0,4.817,6.39Z"/><path d="M17.208,27.03H17.2a8.188,8.188,0,0,1-4.829-6.405,7.968,7.968,0,0,0,4.965,5.794l-.11.6a.019.019,0,0,1-.01.013l-.009,0Zm-4.835-6.4a8.227,8.227,0,0,0,4.821,6.359l.119-.553h0a7.827,7.827,0,0,1-4.939-5.806Z"/><path class="cls-14" d="M16.942,26.73c-.117,0-.407-.326-.574-.363s-.185-.207.006-.213.359.219.359.219a.741.741,0,0,0,.339.163c.173.019.062.239-.13.194Z"/><path class="cls-14" d="M14.757,25.076s.4.232.34.288-.408-.219-.414-.225-.148-.182.074-.063Z"/><path class="cls-14" d="M15.074,25.391c-.107,0-.4-.236-.4-.239s-.07-.078-.054-.116a.163.163,0,0,1,.151.024c.057.034.344.205.354.285l-.047.046Zm-.423-.337a.266.266,0,0,0,.046.072,1.358,1.358,0,0,0,.377.227v.019l.009-.021c.007-.029-.15-.15-.336-.258a.251.251,0,0,0-.1-.039Z"/><path class="cls-14" d="M16.134,26.129s.117-.044-.185-.163-.284-.257-.383-.314-.309-.206-.352-.118.222.262.284.282.364.3.451.326a.218.218,0,0,0,.185-.013Z"/><path class="cls-14" d="M14.431,24.807c-.02,0-.054-.038-.284-.3a.031.031,0,0,1,0-.044.033.033,0,0,1,.044,0c.214.243.25.28.256.285l-.02.024.011.029-.01,0Z"/><path class="cls-14" d="M14.029,24.34a.027.027,0,0,1-.022-.01l-.247-.307a.029.029,0,0,1,0-.04.029.029,0,0,1,.041,0l.247.306a.028.028,0,0,1,0,.04.03.03,0,0,1-.018.006Z"/><path class="cls-14" d="M13.671,23.856a.028.028,0,0,1-.023-.013l-.277-.451a.026.026,0,0,1,.008-.036.027.027,0,0,1,.037.008l.277.452a.026.026,0,0,1-.009.036l-.013,0Z"/><path class="cls-14" d="M13.294,23.227a.023.023,0,0,1-.021-.014l-.229-.464a.024.024,0,0,1,.012-.031.021.021,0,0,1,.031.011l.228.464a.023.023,0,0,1-.011.031l-.01,0Z"/><path class="cls-14" d="M12.992,22.588a.024.024,0,0,1-.022-.014L12.9,22.41a.023.023,0,0,1,.012-.031.025.025,0,0,1,.031.012l.075.163a.024.024,0,0,1-.013.032l-.009,0Z"/><path class="cls-1" d="M12.751,21.956l.062.2Z"/><path class="cls-6" d="M27.519,19.97c.019.291.308.57.194,1.078a11.879,11.879,0,0,0-.564,2.188,1.1,1.1,0,0,1-.138-.682c-.012-.285.42-1.345.458-1.7a8.2,8.2,0,0,1,.05-.88Z"/><path d="M27.149,23.281a.043.043,0,0,1-.037-.019.886.886,0,0,1-.143-.571l0-.136a4,4,0,0,1,.237-.914,5.586,5.586,0,0,0,.221-.8,8.627,8.627,0,0,1,.05-.882.049.049,0,0,1,.048-.039.047.047,0,0,1,.044.043,1,1,0,0,0,.09.3,1.231,1.231,0,0,1,.1.787c-.047.187-.131.456-.221.743a5.426,5.426,0,0,0-.345,1.419.046.046,0,0,1-.022.056.05.05,0,0,1-.021,0Zm.391-3.05c-.013.181-.025.419-.025.619a5.282,5.282,0,0,1-.226.819,4.211,4.211,0,0,0-.232.883l0,.137a1.217,1.217,0,0,0,.041.357,9.493,9.493,0,0,1,.347-1.272c.089-.285.173-.552.219-.737a1.136,1.136,0,0,0-.1-.732l-.029-.074Z"/><path class="cls-6" d="M27.519,19.976a2.021,2.021,0,0,1,.446,1.053c-.026.465-.289,1.01-.2,1.252a.934.934,0,0,1-.2-.62c-.013-.284.232-.6.181-.911a6.112,6.112,0,0,0-.225-.774Z"/><path d="M27.763,22.327a.047.047,0,0,1-.037-.019.984.984,0,0,1-.209-.645,1.194,1.194,0,0,1,.093-.422,1.006,1.006,0,0,0,.089-.483,4.63,4.63,0,0,0-.2-.691c-.033-.1-.033-.1-.018-.117a.048.048,0,0,1,.037-.019.046.046,0,0,1,.036.017,2.035,2.035,0,0,1,.456,1.084,3.406,3.406,0,0,1-.125.642,1.3,1.3,0,0,0-.079.592.047.047,0,0,1-.022.056.059.059,0,0,1-.022.005Zm-.094-2.047a3.333,3.333,0,0,1,.121.463,1.09,1.09,0,0,1-.092.528,1.083,1.083,0,0,0-.089.388.976.976,0,0,0,.093.442,2.913,2.913,0,0,1,.095-.449,3.225,3.225,0,0,0,.121-.625,1.451,1.451,0,0,0-.249-.747Z"/><path class="cls-6" d="M12.108,20.106c-.019.292-.239.551-.126,1.059a5.784,5.784,0,0,1,.578,2.145,1.233,1.233,0,0,0,.206-.719c.013-.285-.57-1.245-.608-1.605a8.233,8.233,0,0,0-.05-.88Z"/><path d="M12.56,23.355a.027.027,0,0,1-.016,0,.044.044,0,0,1-.03-.046,3.139,3.139,0,0,0-.352-1.519,4.542,4.542,0,0,1-.225-.61A1.38,1.38,0,0,1,12,20.39a1.247,1.247,0,0,0,.066-.287.045.045,0,0,1,.044-.042c.031,0,.044.015.048.038a8.65,8.65,0,0,1,.05.887,3.639,3.639,0,0,0,.306.785,2.694,2.694,0,0,1,.3.821,1.283,1.283,0,0,1-.215.744.044.044,0,0,1-.037.019ZM12.089,20.4l-.005.017a1.293,1.293,0,0,0-.057.739,4.591,4.591,0,0,0,.22.6,3.579,3.579,0,0,1,.368,1.373,1.437,1.437,0,0,0,.105-.536,2.807,2.807,0,0,0-.293-.78,3.525,3.525,0,0,1-.315-.818c0-.192-.01-.415-.023-.591Z"/><path class="cls-6" d="M12.108,20.112a1.953,1.953,0,0,0-.433,1.035,16.883,16.883,0,0,1,.5,1.847c.15-.2.194-.18.187-.49a9.683,9.683,0,0,1-.42-1.611c.05-.31.176-.781.17-.781Z"/><path d="M12.171,23.039a.054.054,0,0,1-.022-.005.047.047,0,0,1-.022-.056,3.364,3.364,0,0,0-.266-1.022,4.043,4.043,0,0,1-.232-.808,1.975,1.975,0,0,1,.443-1.064.046.046,0,0,1,.036-.017h0a.045.045,0,0,1,.036.017c.015.019.015.019-.022.173s-.105.438-.138.643a1.7,1.7,0,0,0,.155.687,7.92,7.92,0,0,1,.265.908c.005.262-.022.308-.12.428-.022.027-.047.058-.076.1a.046.046,0,0,1-.037.018Zm-.161-2.707a1.548,1.548,0,0,0-.289.813,4.347,4.347,0,0,0,.227.782,5.673,5.673,0,0,1,.273.928c.077-.095.1-.126.091-.35a7.408,7.408,0,0,0-.261-.888,1.738,1.738,0,0,1-.159-.731c.028-.171.079-.391.118-.554Z"/><polygon class="cls-5" points="19.931 14.899 21.071 18.364 24.759 18.364 21.775 20.507 22.915 23.973 19.931 21.831 16.947 23.973 18.086 20.507 15.103 18.364 18.791 18.364 19.931 14.899"/><path d="M22.915,24A.034.034,0,0,1,22.9,24l-2.984-2.142L16.964,24a.03.03,0,0,1-.034,0,.028.028,0,0,1-.01-.032L18.059,20.5l-2.973-2.111a.027.027,0,0,1-.011-.031.029.029,0,0,1,.028-.02h3.688L19.9,14.89a.031.031,0,0,1,.055,0l1.14,3.466,3.661-.02a.029.029,0,0,1,.027.02.027.027,0,0,1-.01.031L21.792,20.53l1.15,3.434a.03.03,0,0,1-.01.032.041.041,0,0,1-.017.005Zm-3-2.193L22.86,23.9l-1.112-3.383,2.924-2.123h-3.6l-1.14-3.4-1.113,3.383-3.628.019L18.1,20.484,17,23.9l2.914-2.091Z"/></g></g></svg>