<?xml version="1.0" encoding="UTF-8"?><svg id="a" xmlns="http://www.w3.org/2000/svg" viewBox="0 0 40 40"><g><path d="M14.809,17H2v2H14.09c.121-.719,.367-1.393,.719-2Z" fill="#f9cf00"/><path d="M25.91,19h12.09v-2h-12.809c.352,.607,.599,1.281,.719,2Zm2.915-1.917h0Z" fill="#f9cf00"/><path d="M19.014,8h-1.973v6.784c.601-.342,1.266-.579,1.973-.697v-6.088Z" fill="#f9cf00"/><path d="M17.041,25.216v6.784h1.973v-6.088c-.707-.117-1.372-.355-1.973-.697Z" fill="#f9cf00"/></g><g><path d="M25.191,23h12.809v-2h-12.09c-.121,.719-.367,1.393-.719,2Z" fill="#e3e7ea"/><path d="M14.09,21H2v2H14.809c-.352-.608-.598-1.282-.719-2Zm-2.857,1.181h0Z" fill="#e3e7ea"/><path d="M22.959,25.216c-.601,.341-1.265,.579-1.972,.696v6.088h1.972v-6.784Z" fill="#e3e7ea"/><path d="M20.986,14.088c.707,.117,1.372,.355,1.972,.696v-6.784h-1.972v6.088Z" fill="#e3e7ea"/></g><g><polygon points="20.445 23.746 20 24.072 19.555 23.746 19.725 24.273 19.277 24.594 19.829 24.594 20 25.119 20.169 24.596 20.723 24.596 20.272 24.27 20.445 23.746" fill="none"/><polygon points="17.198 16.488 17.366 17.013 17.535 16.488 18.087 16.489 17.639 16.163 17.814 15.641 17.367 15.965 16.92 15.64 17.091 16.163 16.643 16.489 17.198 16.488" fill="none"/><polygon points="17.536 23.271 17.366 22.746 17.194 23.273 16.644 23.27 17.091 23.594 16.92 24.119 17.364 23.795 17.812 24.121 17.64 23.592 18.088 23.27 17.536 23.271" fill="none"/><polygon points="15.739 17.735 15.569 18.261 15.016 18.261 15.462 18.583 15.291 19.11 15.74 18.783 16.185 19.109 16.013 18.584 16.46 18.261 15.905 18.26 15.739 17.735" fill="none"/><polygon points="16.185 20.651 15.735 20.976 15.293 20.649 15.464 21.174 15.016 21.5 15.566 21.498 15.737 22.025 15.908 21.496 16.46 21.498 16.013 21.176 16.185 20.651" fill="none"/><polygon points="19.554 16.013 20 15.688 20.445 16.013 20.274 15.485 20.723 15.165 20.171 15.165 20 14.64 19.831 15.164 19.276 15.164 19.727 15.489 19.554 16.013" fill="none"/><polygon points="23.815 19.108 24.264 18.783 24.706 19.11 24.535 18.584 24.982 18.26 24.433 18.261 24.262 17.734 24.091 18.263 23.539 18.26 23.986 18.583 23.815 19.108" fill="none"/><polygon points="24.708 20.649 24.259 20.976 23.815 20.65 23.986 21.174 23.54 21.498 24.094 21.498 24.26 22.023 24.431 21.498 24.983 21.498 24.537 21.176 24.708 20.649" fill="none"/><polygon points="22.801 23.271 22.633 22.746 22.464 23.271 21.912 23.27 22.36 23.596 22.185 24.119 22.633 23.793 23.08 24.119 22.908 23.596 23.356 23.27 22.801 23.271" fill="none"/><path d="M20.917,18.167l.007-.009c.013-.038,.039-.09,.09-.128-.077-.064-.141-.167-.154-.269,.039-.039,.077-.064,.116-.09-.077-.064-.154-.18-.193-.295,0,0,.065-.078,.09-.116-.063-.064-.192-.167-.257-.206,.039-.038,.077-.154,.077-.154-.129-.038-.257-.128-.309-.18l.013-.077c-.21-.013-.201-.27-.655-.347-.309-.052-.77,.077-.797,.423h-.002c-.314,.082-.296,.662-.013,.861-.008-.104,.028-.188,.078-.261,.023,.07,.077,.136,.218,.153l.002-.002v.004c-.04,.052-.112,.12-.155,.142,.026,.028,.043,.032,.073,.046,.073,.064,.18,.09,.286,.091-.106,0-.213-.027-.287-.091-.086,.081-.16,.176-.224,.201,.04,.009,.056,.013,.104,.013-.077,.107-.253,.299-.313,.355,.009,.026,.064,.081,.111,.12-.029,.06-.102,.159-.158,.193,.022,.038,.069,.103,.133,.111-.039,.09-.117,.24-.146,.317,.038,.043,.09,.086,.133,.099,0,.073-.017,.236-.026,.292,.039,.013,.086,.013,.112,.013-.005,.09-.021,.24-.03,.27,.043,.013,.081,.017,.107,.021-.05,.222,.144,.623,.405,.983-.015,.286,.04,.689,.143,.927-.069,.012-.136,.053-.186,.124-.122-.043-.453-.101-.589-.093-.137,.008-.352,.104-.438,.104s-.128,.068-.128,.137c0,.068,.017,.197,.119,.266,.181-.008,.438-.025,.472-.06,.165,.045,.355,.084,.533,.112,.052,.107,.141,.175,.257,.169v-.003c.089,.044,.216,.004,.249-.048v-.019c.081,.054,.163,.055,.236,.003,.026,.024,.051,.05,.09,.059,.112,.027,.197-.067,.231-.11-.006,0-.011-.008-.017-.01,.077-.014,.125-.029,.265,.019,.013,.004,.029,.013,.043,.018,.104,.335,.209,.645,.25,.752,.077,.197,.189,.6,.438,.67,.111,.059,.266,.016,.197-.498,.076-.018,.092-.215,.076-.352-.013-.099-.039-.396-.055-.708,.122,.122,.226,.23,.299,.318,.051-1.813-.258-3.472-.733-4.076-.057-.073-.121-.134-.188-.186Zm-.937,2.265c.004-.042,.01-.088,.025-.151,.049,.081,.1,.161,.152,.242-.058-.037-.117-.067-.177-.09Zm.336,1.368h-.004c.006-.002,.006-.009,.013-.01-.01-.016-.023-.021-.034-.033,.041-.047,.078-.102,.095-.155,.019-.006,.031-.024,.049-.032,.021,.081,.049,.176,.075,.268-.062-.023-.125-.038-.194-.038Z" fill="none"/><polygon points="22.463 16.488 22.633 17.013 22.805 16.485 23.354 16.49 22.908 16.166 23.079 15.64 22.635 15.964 22.187 15.639 22.358 16.167 21.911 16.489 22.463 16.488" fill="none"/><path d="M20.386,21.601c-.016,.053-.053,.108-.095,.155,.011,.012,.024,.016,.034,.033-.007,0-.006,.008-.013,.01h.004c.07,0,.132,.015,.194,.038-.026-.092-.054-.187-.075-.268-.018,.008-.03,.026-.049,.032Z" fill="#d50038"/><path d="M19.98,20.431c.06,.024,.119,.053,.177,.09-.052-.081-.102-.161-.152-.242-.015,.063-.021,.109-.025,.151Z" fill="#d50038"/><path d="M25.91,19c-.121-.719-.367-1.393-.719-2-.534-.922-1.305-1.689-2.232-2.216-.601-.341-1.265-.579-1.972-.696-.322-.053-.65-.088-.986-.088s-.665,.035-.986,.088c-.707,.117-1.372,.355-1.973,.697-.927,.527-1.697,1.293-2.232,2.216-.352,.607-.599,1.281-.719,2-.055,.326-.09,.658-.09,1s.035,.674,.09,1c.121,.719,.367,1.393,.719,2,.534,.922,1.305,1.688,2.232,2.216,.601,.342,1.266,.579,1.973,.697,.322,.053,.65,.088,.986,.088s.665-.035,.986-.088c.707-.117,1.372-.355,1.972-.696,.927-.527,1.698-1.293,2.232-2.216,.352-.608,.598-1.282,.719-2,.055-.326,.09-.658,.09-1s-.035-.674-.09-1Zm-6.079-3.836l.169-.524,.171,.525h.552l-.449,.32,.171,.528-.445-.325-.446,.325,.173-.524-.451-.325h.555Zm-3.923,6.332l-.171,.529-.171-.527-.55,.002,.448-.326-.171-.525,.442,.327,.45-.325-.172,.525,.447,.322-.552-.002Zm.105-2.912l.172,.525-.445-.326-.449,.327,.171-.527-.446-.322h.553l.17-.526,.166,.525h.555l-.447,.324Zm.907-2.944l.447,.325,.447-.324-.175,.522,.448,.326h-.552l-.169,.524-.168-.525h-.555l.448-.325-.171-.523Zm.892,8.481l-.448-.326-.444,.324,.171-.525-.447-.324,.55,.003,.172-.527,.17,.525h.552l-.448,.321,.172,.529Zm2.357,.475l-.169,.523-.171-.525h-.552l.448-.321-.17-.527,.445,.326,.445-.326-.173,.524,.451,.326h-.554Zm1.669-2.168c-.073-.088-.177-.196-.299-.318,.016,.311,.042,.609,.055,.708,.016,.137,0,.334-.076,.352,.069,.514-.086,.557-.197,.498-.249-.07-.361-.473-.438-.67-.042-.107-.146-.418-.25-.752-.014-.005-.029-.013-.043-.018-.14-.047-.188-.032-.265-.019,.006,.002,.011,.009,.017,.01-.034,.043-.119,.137-.231,.11-.039-.009-.064-.035-.09-.059-.073,.052-.155,.051-.237-.003v.019c-.032,.052-.159,.092-.248,.048v.003c-.116,.006-.205-.062-.257-.169-.177-.028-.368-.067-.533-.112-.034,.035-.291,.052-.472,.06-.102-.069-.119-.198-.119-.266,0-.069,.042-.137,.128-.137s.301-.096,.438-.104c.136-.008,.467,.05,.589,.093,.05-.071,.117-.113,.186-.124-.103-.239-.158-.641-.143-.927-.261-.36-.455-.761-.405-.983-.026-.004-.064-.008-.107-.021,.009-.03,.025-.18,.03-.27-.026,0-.073,0-.112-.013,.009-.056,.026-.219,.026-.292-.043-.013-.095-.056-.133-.099,.029-.077,.107-.227,.146-.317-.064-.008-.111-.073-.133-.111,.056-.034,.129-.133,.158-.193-.047-.039-.102-.094-.111-.12,.06-.056,.236-.248,.313-.355-.048,0-.064-.004-.104-.013,.064-.025,.138-.12,.224-.201,.074,.064,.181,.09,.287,.091-.105,0-.212-.027-.286-.091-.03-.014-.047-.018-.073-.046,.043-.022,.115-.09,.154-.142v-.002c-.142-.017-.196-.083-.219-.153-.05,.073-.086,.157-.078,.261-.283-.199-.301-.779,.013-.862h.002c.027-.345,.489-.474,.797-.422,.454,.077,.445,.334,.655,.347l-.013,.077c.052,.052,.18,.142,.309,.18,0,0-.038,.116-.077,.154,.065,.039,.194,.142,.257,.206-.025,.038-.09,.116-.09,.116,.039,.115,.116,.231,.193,.295-.039,.026-.077,.051-.116,.09,.013,.102,.077,.206,.154,.269-.051,.038-.077,.09-.09,.128l-.007,.009c.067,.052,.13,.113,.188,.186,.475,.604,.784,2.263,.733,4.076Zm.349-6.789l.448,.325,.444-.324-.171,.526,.446,.324-.549-.005-.172,.528-.17-.525h-.552l.447-.321-.171-.528Zm.893,8.48l-.447-.326-.448,.326,.175-.523-.448-.326h.552l.169-.524,.168,.525h.555l-.448,.325,.172,.523Zm1.011-5.856l.171-.529,.171,.527h.549l-.447,.323,.171,.526-.442-.327-.449,.325,.171-.525-.447-.323,.552,.003Zm.34,3.235l-.171,.525-.166-.525h-.554l.446-.324-.171-.524,.444,.326,.449-.327-.171,.527,.446,.322h-.552Z" fill="#d50038"/></g><g><path d="M17.041,14.784v-6.784H6c-2.209,0-4,1.791-4,4v5H14.809c.534-.922,1.305-1.688,2.232-2.216Z" fill="#00693f"/><path d="M22.959,25.216v6.784h11.043c2.209,0,3.999-1.791,3.999-4v-5h-12.809c-.534,.922-1.305,1.689-2.232,2.216Z" fill="#00693f"/><path d="M34,8h-11.041v6.784c.927,.527,1.698,1.293,2.232,2.216h12.809v-5c0-2.209-1.791-4-4-4Z" fill="#00693f"/><path d="M14.809,23H2v5c0,2.209,1.79,3.999,3.999,4h11.042v-6.784c-.927-.527-1.697-1.293-2.232-2.216Z" fill="#00693f"/><polygon points="17.091 16.163 16.643 16.489 17.198 16.488 17.366 17.013 17.535 16.488 18.087 16.489 17.639 16.163 17.814 15.641 17.367 15.965 16.92 15.64 17.091 16.163" fill="#00693f"/><polygon points="22.908 23.596 23.356 23.27 22.801 23.271 22.633 22.746 22.464 23.271 21.912 23.27 22.36 23.596 22.185 24.119 22.633 23.793 23.08 24.119 22.908 23.596" fill="#00693f"/><polygon points="15.566 21.498 15.737 22.025 15.908 21.496 16.46 21.498 16.013 21.176 16.185 20.651 15.735 20.976 15.293 20.649 15.464 21.174 15.016 21.5 15.566 21.498" fill="#00693f"/><polygon points="15.905 18.26 15.739 17.735 15.569 18.261 15.016 18.261 15.462 18.583 15.291 19.11 15.74 18.783 16.185 19.109 16.013 18.584 16.46 18.261 15.905 18.26" fill="#00693f"/><polygon points="24.094 21.498 24.26 22.023 24.431 21.498 24.983 21.498 24.537 21.176 24.708 20.649 24.259 20.976 23.815 20.65 23.986 21.174 23.54 21.498 24.094 21.498" fill="#00693f"/><polygon points="24.262 17.734 24.091 18.263 23.539 18.26 23.986 18.583 23.815 19.108 24.264 18.783 24.706 19.11 24.535 18.584 24.982 18.26 24.433 18.261 24.262 17.734" fill="#00693f"/><polygon points="17.536 23.271 17.366 22.746 17.194 23.273 16.644 23.27 17.091 23.594 16.92 24.119 17.364 23.795 17.812 24.121 17.64 23.592 18.088 23.27 17.536 23.271" fill="#00693f"/><polygon points="19.554 16.013 20 15.688 20.445 16.013 20.274 15.485 20.723 15.165 20.171 15.165 20 14.64 19.831 15.164 19.276 15.164 19.727 15.489 19.554 16.013" fill="#00693f"/><polygon points="20.445 23.746 20 24.072 19.555 23.746 19.725 24.273 19.277 24.594 19.829 24.594 20 25.119 20.169 24.596 20.723 24.596 20.272 24.27 20.445 23.746" fill="#00693f"/><polygon points="22.463 16.488 22.633 17.013 22.805 16.485 23.354 16.49 22.908 16.166 23.079 15.64 22.635 15.964 22.187 15.639 22.358 16.167 21.911 16.489 22.463 16.488" fill="#00693f"/><path d="M20.917,18.167c-.49-.38-1.191-.222-1.406,.237-.104,.219-.118,.741-.014,.965,.083,.178,.278,.535,.508,.912,.049,.081,.1,.161,.152,.242-.058-.037-.117-.067-.177-.09-.001,.011-.007,.031-.007,.041-.045,.199-.136,.515-.213,.65-.143-.128-.28-.296-.407-.472-.015,.286,.04,.689,.143,.927,.052-.009,.103-.006,.148,.02,.08-.04,.172-.054,.252,.011-.004,.003-.006,.012-.009,.016,.095-.021,.194-.005,.256,.07,.053-.008,.104,.014,.148,.061,.041-.047,.078-.102,.095-.155,.019-.006,.031-.024,.049-.032,.021,.081,.049,.176,.075,.268,.06,.022,.119,.051,.183,.081,.129,.06,.292,.094,.429,.078,.146-.01,.232,.137,.204,.258-.025,.121-.094,.232-.205,.197-.103-.031-.314-.141-.488-.205,.104,.335,.209,.645,.25,.752,.077,.197,.189,.6,.438,.67,.111,.059,.266,.016,.197-.498,.076-.018,.092-.215,.076-.352-.013-.099-.039-.396-.055-.708,.122,.122,.226,.23,.299,.318,.051-1.813-.258-3.472-.733-4.076-.057-.073-.121-.134-.188-.186Z" fill="#00693f"/></g><g><path d="M21.014,18.03c-.077-.064-.141-.167-.154-.269h0c-.058,.022-.193,.004-.269-.014-.01-.002-.027-.004-.034-.006-.17,.055-.322,.077-.461,.069-.139-.009-.266-.049-.388-.119-.068,.038-.172,.063-.277,.062-.106,0-.213-.027-.287-.091-.086,.081-.16,.176-.224,.201,.04,.009,.056,.013,.104,.013-.077,.107-.253,.299-.313,.355,.009,.026,.064,.081,.111,.12-.029,.06-.102,.159-.158,.193,.022,.038,.069,.103,.133,.111-.039,.09-.117,.24-.146,.317,.038,.043,.09,.086,.133,.099,0,.073-.017,.236-.026,.292,.039,.013,.086,.013,.112,.013-.005,.09-.021,.24-.03,.27,.043,.013,.081,.017,.107,.021-.05,.222,.144,.623,.405,.983,.127,.175,.264,.343,.407,.472,.077-.135,.168-.451,.213-.65,0-.01,.006-.029,.007-.041,.004-.042,.01-.088,.025-.151-.23-.377-.424-.734-.508-.912-.104-.224-.09-.746,.014-.965,.216-.458,.917-.617,1.406-.237l.007-.009c.013-.038,.039-.09,.09-.128Z" fill="#7d76b6"/><path d="M19.708,17.69h0c.122,.07,.249,.11,.388,.119,.139,.009,.29-.014,.461-.069h0c.007,.002,.024,.004,.033,.006,.076,.018,.211,.036,.269,.014h0c.039-.039,.077-.064,.116-.09-.077-.064-.154-.18-.193-.295,0,0,.065-.078,.09-.116-.063-.064-.192-.167-.257-.206,.039-.038,.077-.154,.077-.154-.129-.038-.257-.128-.309-.18l.013-.077c-.21-.013-.201-.27-.655-.347-.309-.052-.77,.077-.797,.423h0c.171,.167,.431,.39,.284,.751v.004c-.04,.052-.112,.12-.155,.142,.026,.028,.043,.032,.073,.046,.073,.064,.18,.09,.286,.091s.209-.024,.277-.062Zm-.146-1.1c.231,0,.225,.347,0,.347s-.231-.347,0-.347Z" fill="#7d76b6"/></g><g><path d="M18.944,16.72h0l-.002-.002c-.314,.083-.296,.663-.013,.862-.008-.104,.028-.188,.078-.261,.023,.07,.077,.136,.218,.153l.002-.002c.147-.362-.112-.584-.284-.75Z" fill="#fff"/><path d="M20.171,22.039c0-.074,.015-.212,.141-.24,.006-.001,.006-.009,.013-.01-.01-.016-.023-.021-.034-.033-.044-.047-.096-.069-.148-.061-.062-.075-.161-.091-.256-.07,.003-.004,.005-.013,.009-.016-.08-.065-.172-.051-.252-.011-.045-.026-.096-.029-.148-.02-.069,.012-.136,.053-.186,.124-.035,.051-.064,.111-.074,.19-.014,.11,.006,.201,.043,.276,.052,.107,.141,.175,.257,.169v-.003c.089,.044,.216,.004,.249-.048v-.019c.081,.054,.163,.055,.236,.003,.026,.024,.051,.05,.09,.059,.112,.027,.197-.067,.231-.11-.006,0-.011-.008-.017-.01-.079-.02-.154-.1-.154-.17Z" fill="#fff"/></g><g><path d="M19.31,21.702c-.122-.043-.453-.101-.589-.093-.137,.008-.352,.104-.438,.104s-.128,.068-.128,.137c0,.068,.017,.197,.119,.266,.181-.008,.438-.025,.472-.06,.165,.045,.355,.084,.533,.112-.036-.075-.057-.166-.043-.276,.01-.079,.038-.139,.074-.19Z" fill="#ffd420"/><path d="M21.121,22.451c.111,.035,.18-.076,.205-.197,.028-.121-.058-.268-.204-.258-.137,.016-.3-.018-.429-.078-.064-.03-.123-.059-.183-.081-.062-.023-.125-.038-.194-.038h-.004c-.126,.028-.141,.166-.141,.24,0,.07,.075,.15,.154,.17,.077-.014,.125-.029,.265,.019,.013,.004,.029,.013,.043,.018,.174,.064,.385,.174,.488,.205Z" fill="#ffd420"/><path d="M19.562,16.937c.225,0,.231-.347,0-.347s-.225,.347,0,.347Zm0-.217c.058,0,.056,.087,0,.086-.056,0-.058-.086,0-.086Z" fill="#ffd420"/></g><g><path d="M14,20c0-.342,.035-.674,.09-1H2v2H14.09c-.055-.326-.09-.658-.09-1Z"/><path d="M26,20c0,.341-.035,.674-.09,1h12.09v-2h-12.09c.055,.326,.09,.658,.09,1Z"/><path d="M19.014,25.912v6.088h1.973v-6.088c-.322,.053-.65,.088-.986,.088s-.665-.035-.986-.088Zm.614,2.188h0Z"/><path d="M20,14c.337,0,.665,.035,.986,.088v-6.088h-1.973v6.088c.322-.053,.65-.088,.986-.088Zm.775-2.473h0Z"/><path d="M19.562,16.72c-.058,0-.056,.086,0,.086,.056,.001,.058-.086,0-.086Z"/></g></svg>