<?xml version="1.0" encoding="UTF-8"?><svg id="Layer_1" xmlns="http://www.w3.org/2000/svg" viewBox="0 0 40 40"><path d="m5.995,8h28.009c2.205,0,3.996,1.79,3.996,3.996v16.009c0,2.205-1.79,3.995-3.995,3.995H5.996c-2.205,0-3.996-1.79-3.996-3.996V11.995c0-2.205,1.79-3.995,3.995-3.995Z" fill="#e3e7ea"/><path d="m17.313,15.293c0,.316.036.355.053.414.018.059.04,1.146-.106,1.442-.147.296-.437.464-.553.494-.116.03-.481-.256-.821-.375-.338-.118-.321-.099-.463-.099-.143,0-.464.133-.553.217-.058-.01-.072-.04-.107,0-.035.039-.178.198-.214.296-.036.099-.125.474-.232.513-.106.04-.396.36-.588.376-.192.014-.139-.011-.268-.02-.129-.01-.142-.157-.268-.237-.125-.079-.161-.138-.161-.138,0,0-.035-.158-.089-.158-.053,0-.106.277-.106.356,0,.079.142.376.214.435.072.059.072.414.036.514-.036.099.072.197.089.296.017.099-.107.178-.053.198.053.019.125.138.125.256,0,.119.267.158.321.277.053.118.072.316.089.434.017.119.08.065.089.355.085.044.215.138.321.198.107.059.089.197.232.257.142.059.142,0,.214.019.072.019-.036.04.089.079.126.04.179-.02.286.04.106.059.16.197.231.237.072.04.375.138.393.158.018.019.214.099.249.099s.143-.079.143-.079c0,0,.125.04.232,0,.106-.04.178-.158.249-.158s.089.04.16.04.178-.04.178-.04c0,0,.16-.04.285.04.125.079.41.455.41.612,0,.158-.017.237-.017.237,0,0,.143-.019.196.02.053.04.049-.035.446.04-.027-.109-.41-.415-.053-.849.356-.435.379-.257.463-.336.085-.079.41-.311.963-.099.535-.099.143-.178.446-.198.054-.024.156.006.268.04.036-.073.112-.143.232-.118.022-.07.169-.163.32-.178.023-.133.406-.301.625-.316.089-.089.192-.484.678-.297.017-.129.098-.336.232-.375.026-.267-.063-.806.178-.988.241-.241.468-.187.874-.178.277.065.41.297.499.316.089.02.125.02.232-.059.107-.079-.017-.237.072-.237s.053.019.196,0c.142-.02.125-.074.214-.099.142.078.303.019.374.078.072.06.08.055.232.079.053.099.196.099.196.099,0,0-.107-.039-.072-.099.036-.059,0-.237-.072-.316-.071-.079-.106-.099-.161-.178-.053-.079.018-.079-.072-.178-.089-.099-.285-.197-.338-.316-.053-.119-.036-.197-.125-.297-.089-.098-.446-.434-.463-.789-.018-.356.017-.696.231-.81-.009-.208.036-.237.232-.356.196-.119.214-.04.338-.04s.196.02.321-.079c.125-.099.018-.316.339-.632.321-.316.446-.474.553-.494.106-.02.495-.321.659-.296.116-.153.232-.336.374-.455.143-.118.304-.118.375-.217.071-.099.053-.276.267-.434.215-.158.393-.257.481-.336.089-.079.285-.02.357-.099.072-.079.072-.375.143-.434.071-.059-.232.138-.392.217-.16.079-.393.217-.589.197-.196-.019-.089.119-.196.158-.106.039-.285.019-.357.099-.071.079-.195.276-.303.356-.107.079-.16.059-.268.118-.106.059-.195.119-.285.158-.089.04-.357.02-.357.02,0,0-.231.336-.338.454-.107.118-.232.099-.339.158-.106.059-1.016.711-1.64.81-.624.099-.339-.059-.535,0-.196.059-.481.474-.713.494-.232.02-.304,0-.357,0s-.339.198-.517.158c-.262.089-.459.069-.535.059-.076-.01-.215.099-.41,0-.152-.055-.152.064-.446-.04-.295-.103-.5.04-.642-.04-.143-.079-.126-.138-.232-.138-.107,0-.107.079-.232.079s-.143-.079-.249-.079c-.107,0-.232.079-.393.059-.16-.02-.214-.099-.321-.099s-.695-.276-.695-.276h0Z" fill="#eb7700"/><path d="m19.137,27.356c.31-.247.583-.329,1.003-.411.421-.083.867-.22,1.102-.288.235-.069-.793.329-1.053.412-.26.082-1.053.288-1.053.288h0Z" fill="#006a52"/><path d="m20.833,26.629c-.086-.589.124-1.207.607-1.453.112.425-.235,1.152-.607,1.453h0Z" fill="#006a52"/><path d="m21.648,26.323c-.258-.488.179-1.119.499-1.427.147.294-.113,1.172-.499,1.427h0Z" fill="#006a52"/><path d="m22.406,25.944c-.276-.419.05-1.152.397-1.44.136.412,0,1.152-.397,1.44h0Z" fill="#006a52"/><path d="m23.164,25.42c-.25-.395-.077-1.012.283-1.41.26.329.037,1.042-.283,1.41h0Z" fill="#006a52"/><path d="m23.768,24.888c-.21-.371.05-1.263.384-1.509.148.329.037,1.262-.384,1.509h0Z" fill="#006a52"/><path d="m24.251,24.751c-.062-.535.78-1.125,1.127-1.111-.037.439-.397.919-1.127,1.111h0Z" fill="#006a52"/><path d="m23.78,25.354c.396-.453,1.164-.453,1.437-.356-.074.26-.979.837-1.437.356h0Z" fill="#006a52"/><path d="m23.235,25.807c.557-.165.917-.302,1.251.082-.235.329-1.139.233-1.251-.082h0Z" fill="#006a52"/><path d="m22.443,26.204c.532-.315,1.176.151,1.275.425-.594.274-1.287-.356-1.275-.425h0Z" fill="#006a52"/><path d="m21.712,26.657c.483-.206,1.041.069,1.263.371-.26.137-.941.288-1.263-.371h0Z" fill="#006a52"/><path d="m21.044,26.89c.557-.069,1.092.399,1.208.666-.713.075-.986-.158-1.208-.666h0Z" fill="#006a52"/><path d="m20.864,27.356c-.31-.247-.582-.329-1.003-.411-.421-.083-.867-.22-1.102-.288-.235-.069.793.329,1.053.412.26.082,1.053.288,1.053.288h0Z" fill="#006a52"/><path d="m19.168,26.629c.086-.589-.124-1.207-.607-1.453-.112.425.236,1.152.607,1.453h0Z" fill="#006a52"/><path d="m18.352,26.323c.258-.488-.179-1.119-.499-1.427-.147.294.113,1.172.499,1.427h0Z" fill="#006a52"/><path d="m17.595,25.944c.276-.419-.05-1.152-.396-1.44-.136.412,0,1.152.396,1.44h0Z" fill="#006a52"/><path d="m16.837,25.42c.25-.395.077-1.012-.283-1.41-.26.329-.037,1.042.283,1.41h0Z" fill="#006a52"/><path d="m16.233,24.888c.211-.371-.05-1.263-.384-1.509-.148.329-.037,1.262.384,1.509h0Z" fill="#006a52"/><path d="m15.751,24.751c.062-.535-.781-1.125-1.127-1.111.037.439.396.919,1.127,1.111h0Z" fill="#006a52"/><path d="m16.221,25.354c-.396-.453-1.164-.453-1.437-.356.074.26.979.837,1.437.356h0Z" fill="#006a52"/><path d="m16.766,25.807c-.557-.165-.917-.302-1.251.082.236.329,1.139.233,1.251-.082h0Z" fill="#006a52"/><path d="m17.558,26.204c-.532-.315-1.176.151-1.275.425.595.274,1.287-.356,1.275-.425h0Z" fill="#006a52"/><path d="m18.289,26.657c-.483-.206-1.041.069-1.263.371.26.137.941.288,1.263-.371h0Z" fill="#006a52"/><path d="m18.958,26.89c-.557-.069-1.092.399-1.209.666.713.075.986-.158,1.209-.666h0Z" fill="#006a52"/></svg>