<svg id="Layer_1" data-name="Layer 1" xmlns="http://www.w3.org/2000/svg" viewBox="0 0 40 40"><defs><style>.cls-1{fill:#0a802a;}.cls-2{fill:#ffdf0b;}.cls-3{fill:#802109;}</style></defs><rect class="cls-1" x="1.445" y="8.998" width="37.148" height="21.965" rx="4"/><path class="cls-2" d="M31.88,21.576l.162.552H32.6l-.44.34.162.537-.44-.338-.44.322.162-.521-.44-.34h.543Zm-1.451-6.168-.644.6.064-.873L28.983,15l.722-.495-.436-.759.838.255.322-.814L30.75,14l.838-.255-.436.759.722.494-.866.134.064.873Zm-3.436,5.038-.644.595.065-.875-.867-.131.722-.5-.435-.76.837.257.322-.815.321.815.839-.257-.437.76.722.5-.866.131.065.875Zm6.742-.417-.643.595.064-.874-.868-.132.724-.495-.436-.76.837.257.322-.815.321.815.839-.257-.437.76.723.495-.866.132.064.874Zm-3.363,7.34-.643.595.063-.874-.867-.132.724-.5-.436-.759.838.256.321-.815.321.815.839-.256-.437.759.723.5-.866.133.063.874Zm-8.129-3.632a3.737,3.737,0,1,1,2.112-6.814,4.687,4.687,0,1,0,0,6.154A3.714,3.714,0,0,1,22.243,23.737Zm-7.957-8.426a4.823,4.823,0,1,1-4.824-4.823A4.823,4.823,0,0,1,14.286,15.311Z"/><path class="cls-3" d="M9.707,19.1H8.631a3.906,3.906,0,0,0,.538-.635,7.171,7.171,0,0,0,.839-3.374c-.083-1.464.168-1.219.253-.345a13.418,13.418,0,0,1-.151,3.188c-.151.52-.318.852-.1.919a.453.453,0,0,1,.285.247Z"/><path class="cls-1" d="M7.842,12.389H8.5l1.344,1.279-.454-.824.413-.257.124-1.02,1.126-.1-.151.572.588.3-.655.957,1.428-.133L11.991,14h.773l.32,1.059L11.2,14.911l.94.705v1.076L10.16,14.827l-.168.789-.118.79-.434.13-.1-.6-.455.756h-.6l.587-2.132-3.025.569.807-.974,1.6-.32L6.833,13.1l2.083.37-2.15-1.077Z"/></svg>