<svg id="Layer_1" data-name="Layer 1" xmlns="http://www.w3.org/2000/svg" viewBox="0 0 40 40"><defs><style>.cls-1{fill:#afb7c0;}.cls-2{fill:none;}</style></defs><path class="cls-1" d="M28.5,7.1a4.405,4.405,0,0,1,4.4,4.4v17a4.405,4.405,0,0,1-4.4,4.4h-17a4.405,4.405,0,0,1-4.4-4.4v-17a4.405,4.405,0,0,1,4.4-4.4h17m0-3.6h-17a8,8,0,0,0-8,8v17a8,8,0,0,0,8,8h17a8,8,0,0,0,8-8v-17a8,8,0,0,0-8-8Z"/><path class="cls-1" d="M20.3,26.1c1.944,0,2.88-.744,2.88-2.04,0-1.2-.768-1.8-3.072-2.424L18,21.064c-2.785-.744-4.657-2.3-4.657-4.992,0-3.072,2.664-5.329,6.721-5.329,4.08,0,7.008,2.64,7.056,5.521H23.109c-.216-1.224-1.392-2.257-3.264-2.257-1.584,0-2.449.792-2.449,1.8,0,.912.553,1.608,2.569,2.136l2.136.576c3.5.96,5.065,2.64,5.065,5.3,0,3.408-2.929,5.545-7.153,5.545-3.865,0-6.937-2.328-7.3-5.785h4.3A3.137,3.137,0,0,0,20.3,26.1Z"/><rect class="cls-2" width="40" height="40"/></svg>