<?xml version="1.0" encoding="UTF-8"?><svg id="Layer_1" xmlns="http://www.w3.org/2000/svg" viewBox="0 0 40 40"><g><path d="m6.588,11.421l-3.711-1.881c.074-.094.146-.189.228-.277.173-.184.362-.349.567-.498.355-.257.754-.448,1.183-.577l5.785,2.932v-3.121h-4.641c-2.011,0-3.659,1.489-3.942,3.421h4.53Z" fill="#261b64"/><polygon points="6.588 14.93 2.013 14.93 2 14.93 2 17.256 2.013 17.249 6.588 14.93" fill="#261b64"/><polygon points="20.262 8 14.103 8 14.103 11.122 20.262 8" fill="#261b64"/><path d="m34,8h-11.243v1.089l-4.601,2.332h4.601v3.509h-4.601l4.601,2.332v1.177h-2.322l-6.332-3.209v3.209h-3.462v-3.209l-6.331,3.209h-2.31v9.561c0,2.209,1.791,4,4,4h28c2.209,0,4-1.791,4-4V12c0-2.209-1.791-4-4-4Zm.359,13.571h0c-.005.075-.004.155-.012.228-.128,1.115-.592,1.942-1.346,2.614-1.303,1.165-3.168,1.419-3.168,1.698,0-.277-1.865-.533-3.169-1.698-.754-.672-1.216-1.498-1.346-2.614-.008-.073-.006-.153-.012-.228v-6.852h9.053v6.852Z" fill="#261b64"/></g><g><polygon points="13.41 11.472 13.41 12.123 14.103 12.123 16.772 12.123 22.757 12.123 22.757 11.421 18.156 11.421 22.757 9.089 22.757 8 22.584 8 15.834 11.421 14.286 11.421 21.036 8 20.262 8 14.103 11.122 14.103 8 13.41 8 13.41 11.421 13.41 11.472" fill="#e3e7ea"/><path d="m2.013,12.123h9.321v-4.123h-.693v3.121l-5.785-2.932c-.429.13-.829.32-1.183.577l5.237,2.655h-1.548l-4.257-2.157c-.082.087-.154.182-.228.277l3.711,1.881H1.987v.702h.026Z" fill="#e3e7ea"/><polygon points="2.013 18.426 8.91 14.93 10.458 14.93 3.535 18.439 4.31 18.439 10.641 15.23 10.641 18.439 11.334 18.439 11.334 14.93 11.334 14.879 11.334 14.229 10.641 14.229 7.973 14.229 2.013 14.229 1.987 14.229 1.987 14.93 2 14.93 2.013 14.93 6.588 14.93 2.013 17.249 2 17.256 1.987 17.262 1.987 18.439 2.013 18.426" fill="#e3e7ea"/><polygon points="14.103 14.229 13.41 14.229 13.41 14.879 13.41 14.93 13.41 18.439 14.103 18.439 14.103 15.23 20.435 18.439 22.757 18.439 15.834 14.93 17.382 14.93 22.757 17.654 22.757 17.262 18.156 14.93 22.757 14.93 22.757 14.229 16.772 14.229 14.103 14.229" fill="#e3e7ea"/></g><g><polygon points="2.013 14.229 7.973 14.229 10.641 14.229 11.334 14.229 11.334 14.879 11.334 14.93 11.334 18.439 13.41 18.439 13.41 14.93 13.41 14.879 13.41 14.229 14.103 14.229 16.772 14.229 22.757 14.229 22.757 12.123 16.772 12.123 14.103 12.123 13.41 12.123 13.41 11.472 13.41 11.421 13.41 8 11.334 8 11.334 11.421 11.334 11.472 11.334 12.123 10.641 12.123 7.973 12.123 2.013 12.123 1.987 12.123 1.987 14.229 2.013 14.229" fill="#cc001c"/><polygon points="3.535 18.439 10.458 14.93 8.91 14.93 2.013 18.426 1.987 18.439 2 18.439 2.013 18.439 3.535 18.439" fill="#cc001c"/><polygon points="15.834 14.93 22.757 18.439 22.757 17.654 17.382 14.93 15.834 14.93" fill="#cc001c"/><path d="m7.362,11.421h1.548l-5.237-2.655c-.205.148-.394.314-.567.498l4.257,2.157Z" fill="#cc001c"/><polygon points="15.834 11.421 22.584 8 21.036 8 14.286 11.421 15.834 11.421" fill="#cc001c"/></g><g><path d="m25.306,21.571h2.164c.048-.053.109-.104.2-.143.41-.178.85-.361.932-.727.07-.303.165-.47.335-.534-.004-.035.002-.07.029-.099.03-.033.061-.086.096-.158.036-.072.064-.082.221-.17.073-.041.165-.095.261-.156v-1.344c-.137.034-.358-.025-.528-.005-.073.008-.132-.03-.123-.103.01-.075.02-.188.005-.292-.022-.161.055-.384.163-.631.091-.206.135-.329.15-.434h-1.423v-.572h1.756v-.768h.604v.768h1.725v.572h-.545c.042.029.072.075.023.135.075.045.131.158.092.234-.039.076-.159.088-.207.019-.056.024-.143.029-.199-.027-.023.027-.063.03-.098.024-.013.17.088.242.159.303h0c.044.006.103.029.194.107.093.077.226.21.18.58-.046.37-.03.529-.049.735-.034.365-.117.667-.261.642.198.344.216.642.344.878.122.224.198.674.161,1.166h2.688s0,0,0,0v-6.852h-9.053v6.852Z" fill="#00a0ba"/><path d="m29.545,21.241c-.121-.232-.268-.466-.459-.698-.143.529-.512.873-1.09.997-.034.007-.054.021-.082.031h1.631v-.329Z" fill="#00a0ba"/><path d="m29.409,20.042c-.056.041-.088.116-.117.173-.017.036-.029.084-.043.13.104.107.208.215.296.324v-.772c-.091.057-.08.103-.137.145Z" fill="#00a0ba"/><path d="m30.515,17.482c.017-.079.012-.16-.009-.226-.055.007-.16-.016-.183-.029-.079-.044-.049-.09-.029-.128.026-.044-.011-.051.008-.11-.016-.012-.02-.026-.008-.041.013-.016.026-.038.036-.061-.019-.006-.036-.009-.046-.02-.024-.027-.009-.051.013-.066.011-.008.017-.017.027-.025h-.174v.853c.104-.09.159-.144.222-.135.043.007.094-.003.143-.01Z" fill="#00a0ba"/><path d="m29.404,16.887c0,.76-.092.699-.092.881,0,.049-.01.094.039.078.051-.015.122-.037.194-.037v-1.036h-.095c-.043.02-.046.046-.046.114Z" fill="#00a0ba"/></g><g><path d="m31.67,21.571c-.002.026,0,.051-.003.077-.05.523-.188,1.698.227,2.488-.069.049-.234,0-.382-.156.005.005.011.01.016.015.021.086.048.081.063.141.018.065-.023.132-.046.17-.024.039-.041.093-.04.12s-.004.059-.012.076c-.01.015-.019.039-.019.052,0,.068-.038.089-.072.071-.012.021-.045.05-.067.035-.025.036-.062.053-.084.029-.019.037-.064.047-.089.024-.006.034-.075.055-.096.039-.045-.034-.051-.063-.032-.097.017-.03.054-.083.06-.137.008-.094.063-.267.115-.374.01-.022.029-.034.018-.071-.011-.035-.036-.097-.053-.151.005-.003.014-.01.019-.015-.007.005-.013.007-.02.013-.374.284-.725.632-1.244.284,0,0,0,0-.001-.001-.009.012-.016.031-.026.042.012-.012.024-.022.035-.034.039.033.127.072.167.089-.11.116-.265.114-.333.044.039-.013.085-.054.129-.098-.126.141-.275.151-.386.011-.148-.189-1.182-1.411-1.715-2.014.016,0,.025-.01.039-.013-.145.033-.334.025-.415-.117-.069-.118-.122-.357.047-.541h-2.164c.005.075.004.155.012.228.129,1.116.592,1.942,1.346,2.614,1.304,1.165,3.169,1.42,3.169,1.698,0-.278,1.865-.533,3.168-1.698.754-.672,1.218-1.499,1.346-2.614.008-.073.007-.153.012-.227h0s-2.688,0-2.688,0Z" fill="#9f1d22"/><path d="m27.705,21.865c.08-.142.257-.148.342.015.035.07.026.149-.011.215.316.325,1.303,1.369,1.43,1.488.035.032.054.031.08.045v-2.058h-1.631c-.212.079-.257.23-.21.294Z" fill="#9f1d22"/></g><g><path d="m30.148,19.698c-.14.034-.365.074-.572.179-.014.007-.02.013-.031.02v.772c.282.351.478.709.603,1.07v-2.041Z"/><path d="m30.148,19.177v-1.551h0v-.853h.174c.022-.019.045-.038.061-.058.036-.044.018-.117.032-.149.009-.02.038-.045.061-.07-.002.003-.006-.004-.008,0,.026-.176.15-.171.23-.153.032.007.11.015.184-.005.146-.039.257.013.243.153.039.029.08.099.073.158-.006.059.005.084.058.092.02.003.047.016.071.033h.545v-.572h-1.725v-.768h-.604v.768h-1.756v.572h1.423c.003-.021.014-.047.014-.067,0-.077.006-.163.076-.208.052-.033.061-.065.08-.091.041-.062.081-.076.085-.04.005.023-.004.043-.023.073.045-.036.118-.08.138-.093.016-.012.103-.074.107-.015.036-.017.06-.016.067.002.01.021.004.029-.013.044.024-.006.054.038.005.076.025-.009.051.034.005.074-.047.041-.102.069-.12.102-.016.032-.134.121-.18.141-.001,0,0,.001-.002.002h.095v1.036s0,0,0,0v.429h0v1.344c.113-.071.234-.151.352-.239.104-.078.174-.128.251-.167Z"/><path d="m29.545,23.629c.07.037.122.032.159-.055.28-.673.278-1.492-.159-2.333v2.388Z"/></g><path d="m30.908,17.674c-.098.099-.265.065-.385.232-.075-.143-.066-.261-.02-.361.01-.021.008-.043.012-.064-.049.007-.1.016-.143.01-.063-.009-.118.045-.222.135h0v1.551c.083-.042.175-.071.325-.105.068-.015.124-.015.138-.068.016-.056.073-.114.143-.391.046-.182.218-.433.374-.563.167-.137.212.055.212.228,0,.261-.103.562-.296.937-.036.074-.104.115-.163.134-.059.02-.143.094-.246.148-.103.055-.316.158-.449.192-.01.002-.028.007-.039.009v2.041c.273.784.205,1.577-.13,2.318-.027.059-.058.102-.089.144,0,0,0,0,.001.001.518.347.87,0,1.244-.284.007-.006.013-.008.02-.013.013-.01.028-.019.048-.03.062-.032.116-.028.185.026.032.024.06.051.086.078.148.156.313.205.382.156-.415-.79-.277-1.964-.227-2.488.003-.026.001-.051.003-.077.036-.492-.04-.942-.161-1.166-.128-.237-.147-.534-.344-.878.145.025.228-.278.261-.642.019-.207.004-.365.049-.735.046-.37-.087-.504-.18-.58-.091-.077-.15-.101-.194-.107h0s0,0,0,0c-.075.02-.095.114-.194.212Z" fill="#77b253"/><path d="m27.423,22.112c.082.142.27.15.415.117-.014.003-.023.012-.039.013.533.602,1.567,1.825,1.715,2.014.111.139.26.129.386-.011,0,0,.002-.001.002-.002.009-.011.017-.03.026-.042.031-.042.063-.085.089-.144.335-.741.403-1.534.13-2.318-.125-.361-.321-.719-.603-1.07-.088-.109-.192-.217-.296-.324-.001.005-.003.008-.004.013-.005.02-.07.048-.07.007-.005.059-.092.096-.089.033-.005.044-.088.065-.077.005-.01.059-.037.068-.057.066-.02-.002-.032-.014-.03-.064.004-.05.018-.198.013-.23,0-.003.003-.006.003-.01-.17.064-.265.231-.335.534-.082.366-.522.549-.932.727-.092.039-.152.09-.2.143-.168.184-.116.423-.047.541Zm.499.09c.014-.007.028-.013.04-.022-.012.009-.026.014-.04.022Zm.074-.662c.578-.124.947-.467,1.09-.997.191.233.339.466.459.698.437.841.439,1.66.159,2.333-.037.087-.089.092-.159.055-.026-.014-.046-.014-.08-.045-.127-.119-1.113-1.163-1.43-1.488.037-.066.046-.145.011-.215-.085-.163-.262-.158-.342-.015-.048-.064-.003-.216.21-.294.028-.01.048-.024.082-.031Z" fill="#faaa34"/><g><path d="m30.809,17.062c-.039-.013-.043-.121.017-.133-.009-.032-.005-.069.01-.086.014-.018.003-.05-.033-.076-.034-.027-.064-.131-.03-.188-.057.02-.19-.036-.217-.076-.022-.035-.055-.031-.08-.006-.023.025-.051.05-.061.07-.014.032.005.105-.032.149-.016.021-.039.039-.061.058-.01.008-.016.018-.027.025-.022.016-.036.039-.013.066.009.011.026.014.046.02-.01.023-.023.045-.036.061-.012.015-.007.029.008.041-.019.059.017.067-.008.11-.02.038-.05.084.029.128.023.013.128.037.183.029.021.066.026.147.009.226-.005.021-.003.043-.012.064-.046.099-.055.218.02.361.119-.167.286-.134.385-.232.099-.098.119-.192.194-.212,0,0,0,0,0,0-.072-.061-.173-.133-.159-.303-.022-.004-.045-.009-.052-.024-.016-.04-.045-.06-.08-.072Z" fill="#f6ddcd"/><path d="m29.771,24.342c.068.069.223.072.333-.044-.04-.017-.128-.057-.167-.089-.011.011-.023.022-.035.034,0,0-.002.001-.002.002-.044.043-.09.085-.129.098Z" fill="#f6ddcd"/><path d="m31.323,23.855c-.034-.002-.059.009-.082.021-.02.01-.035.019-.048.03-.006.005-.015.011-.019.015.016.054.042.116.053.151.011.037-.008.049-.018.071-.052.106-.107.28-.115.374-.006.055-.043.107-.06.137-.019.035-.013.064.032.097.021.016.089-.005.096-.039.026.024.07.014.089-.024.022.024.059.007.084-.029.023.015.056-.014.067-.035.034.018.071-.004.072-.071,0-.013.009-.037.019-.052.008-.016.013-.048.012-.076s.016-.081.04-.12c.023-.038.064-.105.046-.17-.015-.06-.042-.055-.063-.141-.005-.005-.011-.01-.016-.015-.026-.027-.054-.054-.086-.078-.033-.025-.068-.045-.104-.046Z" fill="#f6ddcd"/><path d="m29.546,17.809s0,0,0,0c-.072,0-.143.022-.194.037-.049.016-.039-.029-.039-.078,0-.182.092-.121.092-.881,0-.068.004-.094.046-.114.001,0,0-.001.002-.002.046-.02.164-.109.18-.141.018-.033.073-.061.12-.102.046-.04.019-.083-.005-.074.049-.038.019-.082-.005-.076.016-.015.023-.023.013-.044-.006-.018-.031-.019-.067-.002-.005-.058-.091.004-.107.015-.019.013-.093.057-.138.093.019-.03.027-.05.023-.073-.004-.036-.044-.022-.085.04-.019.026-.028.058-.08.091-.069.045-.076.13-.076.208,0,.019-.011.046-.014.067-.015.104-.059.228-.15.434-.108.247-.185.47-.163.631.015.104.005.218-.005.292-.009.073.05.111.123.103.17-.02.392.039.528.005h0v-.429Z" fill="#f6ddcd"/><path d="m28.922,20.405c-.002.049.01.062.03.064.019.002.046-.007.057-.066-.011.06.072.039.077-.005-.003.064.084.026.089-.033,0,.041.065.013.07-.007.001-.005.003-.008.004-.013.014-.046.026-.094.043-.13.028-.057.06-.132.117-.173.057-.042.045-.088.137-.145.011-.007.017-.013.031-.02.207-.105.433-.145.572-.179.011-.003.03-.007.039-.009.133-.034.346-.138.449-.192.103-.054.187-.127.246-.148.059-.019.127-.06.163-.134.193-.375.296-.676.296-.937,0-.173-.046-.365-.212-.228-.157.13-.328.381-.374.563-.07.277-.128.335-.143.391-.015.054-.07.054-.138.068-.151.034-.242.062-.325.105-.077.039-.147.089-.251.167-.118.088-.238.168-.352.239-.096.06-.188.115-.261.156-.158.088-.186.098-.221.17-.035.072-.066.126-.096.158-.027.029-.033.063-.029.099,0,.003-.004.006-.003.01.005.032-.009.179-.013.23Z" fill="#f6ddcd"/></g><path d="m31.199,16.648c.007-.059-.034-.128-.073-.158.014-.14-.098-.192-.243-.153-.074.02-.152.013-.184.005-.079-.018-.203-.023-.23.153.002-.003.005.003.008,0,.025-.025.057-.029.08.006.027.04.159.097.217.076-.034.057-.004.161.03.188.036.026.046.058.033.076-.015.016-.019.054-.01.086-.06.012-.056.12-.017.133.036.012.064.032.08.072.007.015.03.02.052.024.035.006.075.003.098-.024.056.056.143.052.199.027.047.069.168.056.207-.019.039-.076-.017-.189-.092-.234.048-.059.018-.105-.023-.135-.024-.017-.051-.03-.071-.033-.053-.008-.065-.033-.058-.092Z" fill="#955c0f"/></svg>