<?xml version="1.0" encoding="UTF-8"?><svg id="Layer_1" xmlns="http://www.w3.org/2000/svg" viewBox="0 0 40 40"><path d="m6,8c-2.209,0-4,1.791-4,4v16c0,2.209,1.791,4,4,4h7.813V8h-7.813Z"/><g><path d="m13.813,8v24h12.357V8h-12.357Zm11.32,13.629c-.07.055-.16.087-.245.116-.089.031-.189.035-.275.072-.045.02-.087.079-.103.129-.039.122-.063.249-.096.389.032.008.069.022.107.025.113.009.226.012.339.019.111.007.139.045.09.145-.178.358-.41.529-.847.49-.121-.011-.172.03-.216.13-.048.108-.112.209-.173.322.145.048.28.094.415.136.09.029.108.087.046.16-.13.153-.292.277-.488.299-.15.017-.312-.023-.461-.066-.162-.048-.156-.06-.264.071-.063.077-.131.149-.204.217-.05.047-.046.073.01.109.104.066.206.135.305.208.113.083.109.129-.016.198-.213.118-.237.143-.581.176.053.062.099.112.142.166.018.022.027.051.04.077-.03.012-.059.029-.09.036-.03.006-.061.002-.092.002h-4.97c-.014,0-.028.003-.041,0-.047-.012-.094-.025-.141-.038.02-.041.036-.086.062-.123.061-.089.127-.175.202-.276-.045-.004-.072-.011-.097-.008-.224.034-.408-.062-.583-.181-.064-.043-.044-.095.009-.134.111-.08.224-.157.336-.235.022-.015.044-.031.077-.054-.023-.027-.04-.05-.061-.07-.056-.055-.13-.1-.167-.166-.098-.177-.23-.141-.376-.086-.327.122-.655.03-.876-.24-.062-.076-.053-.128.04-.163.111-.042.225-.074.338-.107.061-.018.089-.037.045-.107-.068-.11-.121-.229-.187-.341-.017-.028-.058-.056-.091-.059-.092-.009-.185-.006-.278-.005-.288.003-.484-.142-.616-.387-.016-.03-.029-.062-.045-.092-.033-.062-.024-.107.051-.121.117-.021.235-.04.352-.056.039-.006.08,0,.146,0-.049-.174-.091-.33-.141-.483-.005-.016-.053-.024-.081-.027-.167-.013-.328-.063-.454-.167-.093-.077-.16-.191-.222-.299-.038-.065-.055-.147-.063-.224-.012-.112.033-.139.144-.111.122.031.245.059.368.087.019.004.039-.002.05-.003,0-.114-.008-.223.002-.33.019-.193.022-.19-.15-.295-.142-.087-.296-.163-.375-.324-.075-.154-.109-.317-.074-.486.022-.109.073-.129.171-.081.112.055.224.112.341.171.045-.137.095-.267.128-.4.01-.04-.015-.098-.041-.135-.037-.052-.089-.094-.137-.138-.207-.193-.239-.437-.201-.7.008-.056.029-.116.062-.161.016-.022.084-.033.108-.017.104.066.2.143.298.218.032.024.06.054.095.086.09-.141.179-.273.258-.41.015-.027,0-.08-.016-.114-.059-.127-.134-.246-.184-.376-.064-.168-.014-.331.058-.486.026-.055.06-.107.095-.158.059-.084.106-.088.166-.006.093.126.18.258.279.4.031-.037.058-.077.093-.11.101-.098.202-.196.308-.287.055-.047.08-.08.053-.161-.149-.438,0-.807.297-1.125.3-.322.678-.527,1.088-.673.217-.077.437-.15.659-.207.157-.041.321-.062.483-.074.347-.026.695-.056,1.043-.056.293,0,.589.02.877.067.273.045.539.134.807.208.335.093.641.25.925.448.308.214.556.486.648.857.046.185.05.386-.018.578-.012.034-.006.095.017.118.136.139.28.272.429.414.015-.019.033-.041.049-.065.079-.116.155-.234.239-.346.035-.047.085-.077.133-.008.146.208.25.432.169.69-.037.118-.11.226-.178.332-.046.073-.043.125.007.194.082.113.154.234.237.364.062-.054.121-.108.183-.158.061-.049.124-.097.19-.14.074-.048.13-.031.155.051.028.091.058.185.064.279.012.188-.07.345-.193.481-.041.046-.085.09-.132.13-.078.066-.132.125-.066.24.053.092.073.204.104.308.018.059.044.065.098.038.118-.06.24-.113.361-.169.062-.029.121-.018.118.057-.008.166-.018.334-.051.496-.031.15-.183.204-.289.292-.031.026-.067.051-.105.063-.157.048-.188.158-.165.303.023.145.04.29.062.453.07-.011.142-.023.214-.033.097-.014.195-.029.292-.04.068-.008.1.034.083.095-.049.182-.092.372-.249.495Z" fill="#bd001a"/><path d="m23.511,19.652c.007-.095.035-.108.123-.077.159.055.321.104.49.158v-.365c-.127-.023-.249-.038-.367-.07-.09-.025-.187-.056-.259-.113-.143-.113-.218-.275-.265-.451-.036-.137-.028-.15.115-.148.146.002.292,0,.453,0-.009-.069-.021-.153-.031-.236-.01-.085-.041-.107-.13-.075-.365.133-.768-.035-.937-.385-.029-.06-.03-.115.058-.127.144-.019.288-.044.433-.06.071-.008.093-.019.066-.101-.085-.254-.165-.511-.229-.771-.025-.103-.019-.207-.123-.273-.127-.081-.242-.18-.372-.255-.317-.183-.653-.317-1.011-.402-.305-.073-.609-.147-.925-.156-.085-.002-.17-.02-.255-.026-.13-.01-.261-.03-.389-.02-.303.024-.606.053-.906.101-.247.04-.491.103-.733.168-.382.103-.732.278-1.055.506-.14.099-.22.223-.254.398-.046.239-.12.474-.193.707-.033.103-.034.114.075.126.145.016.289.041.433.062.072.01.085.052.053.11-.031.057-.065.114-.103.166-.102.137-.24.24-.406.255-.16.014-.324-.023-.487-.036-.027-.002-.077.002-.08.013-.031.116-.055.234-.079.345.199-.015.371-.031.544-.037.027,0,.082.052.079.075-.01.086-.029.175-.062.255-.062.148-.151.284-.314.333-.162.049-.332.073-.497.113-.025.006-.064.041-.062.057.013.103.037.205.057.309.165-.053.32-.102.475-.153.072-.024.118-.004.121.074.01.262-.05.5-.278.657-.123.085-.262.145-.391.221-.021.012-.042.056-.035.075.031.089.072.175.11.264.136-.095.262-.188.393-.274.106-.07.133-.059.18.059.011.028.017.059.023.089.07.362-.066.635-.358.844-.046.033-.091.066-.141.103.08.105.151.199.231.303.032-.041.055-.074.081-.104.085-.103.17-.206.255-.309.042-.051.091-.05.134-.01.152.139.216.542.111.729-.071.127-.158.246-.231.372-.015.025-.014.085.004.1.082.07.172.129.257.191.074-.161.145-.315.217-.469.035-.074.093-.087.148-.03.119.124.224.26.246.44.008.062.014.125.021.199.006.056-.033.117-.075.213-.033.073-.123.117-.15.194-.007.021.008.068.026.076.11.051.224.094.334.138.024-.086.049-.167.069-.249.029-.169.169-.379.31-.208.074.097.171.188.22.299.05.113.053.247.078.382.022-.018.038-.026.046-.04.067-.114.166-.14.294-.139.833.005,1.666.006,2.498,0,.155-.001.283.02.37.161.007.012.025.018.054.037-.027-.291.073-.516.3-.7.261-.248.316.105.316.105.017.121.043.241.065.365.068-.027.137-.054.207-.08q.198-.074.104-.268c-.004-.009-.013-.018-.014-.027-.087-.08-.127-.308-.126-.314.005-.02.008-.04.012-.06.04-.199.12-.377.271-.518.063-.06.115-.05.15.029.058.131.114.262.169.395.024.058.051.077.106.034.059-.046.119-.091.181-.132.065-.044.071-.089.025-.154-.077-.108-.158-.216-.216-.334-.039-.079-.07-.182-.055-.265.028-.152.087-.299.143-.445.027-.07.087-.073.139-.019.059.062.114.127.167.194.055.069.105.141.167.225.084-.111.158-.211.235-.313-.199-.166-.428-.296-.495-.551l-.023-.152c.004-.019.01-.037.011-.055.006-.079.009-.158.017-.236.014-.132.076-.161.181-.084.097.071.191.144.288.215.034.025.071.045.107.068.064-.12.122-.227.186-.347-.093-.044-.178-.085-.263-.124-.332-.15-.483-.383-.456-.757Zm-2.195-2.523l.189-.272.19.272c.062.029.104.07.104.116,0,.086-.131.156-.293.156s-.293-.07-.294-.156c0-.047.041-.088.104-.116Zm-1.482-.409l.203-.292.203.292c.061.034.102.082.102.137,0,.103-.136.187-.304.187s-.304-.084-.304-.187c0-.055.04-.103.101-.137Zm-1.389.409l.189-.272.189.272c.062.029.104.07.104.116,0,.086-.131.156-.293.156s-.293-.07-.293-.156c0-.047.041-.088.104-.116Zm-.016,1.385v-.801c0-.018.006-.034.01-.051h-.016c-.053,0-.095-.043-.095-.095,0-.053.043-.095.095-.095h.424c.053,0,.095.043.095.095,0,.053-.043.095-.095.095h-.016c.004.017.01.033.01.051v.75l.157-.019.313-.337c-.061-.092-.099-.196-.099-.307,0-.372.385-.673.86-.673s.86.301.86.673c0,.112-.038.216-.1.309l.311.334.157.019v-.75c0-.018.006-.034.01-.051h-.016c-.053,0-.095-.043-.095-.095,0-.053.043-.095.095-.095h.424c.053,0,.095.043.095.095,0,.053-.043.095-.095.095h-.016c.004.017.01.033.01.051v.802l.342.042-.283.425h-.046v.587h-.439v-.587h-2.433v.587h-.439v-.587h-.044l-.283-.425.342-.042Zm3.586,3.233h-1.275v-.334l-.533-.266-1.134-.011.044-1.336.863.046,1.131,1.567h.177v-.525h.439v.547l.289.312Zm-2.59-.334v.334h-1.275l.265-.286v-.573h.438v.525h.571Zm-1.788-1.011c.109.381-.052.72-.405.904.118-.287-.061-.56-.25-.866-.188-.306.057-.607.165-.758-.193-.409.388-.833.388-.833l.134-.118.803,1.174h.38v.647h-.439v-.377l-.271-.41c-.148.072-.597.316-.507.636Zm.331,1.908l-.005-.379h4.076l.016.388-4.087-.008Zm5.19-1.87c-.188.306-.367.579-.25.866-.353-.184-.513-.523-.405-.904.091-.321-.359-.566-.507-.636l-.271.409v.377h-.439v-.647h.38l.803-1.174.135.118s.582.424.388.833c.108.151.353.452.165.758Z" fill="#bd001a"/></g><path d="m36.243,8.689s-.003-.003-.005-.004c-.085-.058-.183-.097-.273-.149-.581-.332-1.244-.536-1.961-.536h-7.834v24h8.654c1.813-.38,3.175-1.991,3.175-3.924V12.01c0-1.382-.697-2.6-1.757-3.321Z" fill="#009d39"/><g><polygon points="17.963 21.931 17.968 22.31 22.055 22.318 22.038 21.931 17.963 21.931" fill="#fff"/><path d="m18.415,18.981v.587h.439v-.587h2.433v.587h.439v-.587h.046l.283-.425-.342-.042v-.802c0-.018-.006-.034-.01-.051h.016c.052,0,.095-.042.095-.095,0-.052-.043-.095-.095-.095h-.424c-.052,0-.095.043-.095.095,0,.052.043.095.095.095h.016c-.004.017-.01.033-.01.051v.75l-.157-.019-.311-.334c.062-.093.1-.197.1-.309,0-.372-.385-.673-.86-.673s-.86.301-.86.673c0,.111.038.215.099.307l-.313.337-.157.019v-.75c0-.018-.006-.034-.01-.051h.016c.052,0,.095-.043.095-.095,0-.052-.043-.095-.095-.095h-.424c-.052,0-.095.043-.095.095,0,.052.043.095.095.095h.016c-.004.017-.01.033-.01.051v.801l-.342.042.283.425h.044Z" fill="#fff"/><path d="m18.634,17.401c.162,0,.293-.07.293-.156,0-.047-.041-.088-.104-.116l-.189-.272-.189.272c-.062.028-.104.069-.104.116,0,.086.131.156.293.156Z" fill="#fff"/><path d="m20.037,17.045c.168,0,.304-.084.304-.187,0-.055-.04-.103-.102-.137l-.203-.292-.203.292c-.061.034-.101.083-.101.137,0,.103.136.187.304.187Z" fill="#fff"/><path d="m21.506,17.401c.162,0,.293-.07.293-.156,0-.047-.041-.088-.104-.116l-.19-.272-.189.272c-.062.028-.104.069-.104.116,0,.086.132.156.294.156Z" fill="#fff"/><polygon points="21.287 20.888 21.287 21.413 21.11 21.413 19.979 19.846 19.116 19.8 19.072 21.136 20.206 21.147 20.739 21.413 20.739 21.748 22.014 21.748 21.726 21.435 21.726 20.888 21.287 20.888" fill="#fff"/><path d="m22.605,18.849l-.135-.118-.803,1.174h-.38v.647h.439v-.377l.271-.409c.148.071.597.316.507.636-.108.381.052.72.405.904-.118-.287.061-.56.25-.866.188-.306-.057-.607-.165-.758.193-.409-.388-.833-.388-.833Z" fill="#fff"/><path d="m18.414,20.175v.377h.439v-.647h-.38l-.803-1.174-.134.118s-.582.424-.388.833c-.108.151-.353.452-.165.758.188.306.367.579.25.866.353-.184.513-.523.405-.904-.091-.32.358-.565.507-.636l.271.41Z" fill="#fff"/><polygon points="18.415 20.888 18.415 21.461 18.149 21.748 19.424 21.748 19.424 21.413 18.853 21.413 18.853 20.888 18.415 20.888" fill="#fff"/><path d="m24.613,21.818c.086-.037.185-.041.275-.072.085-.03.176-.062.245-.116.157-.123.2-.313.249-.495.017-.061-.015-.102-.083-.095-.098.011-.195.026-.292.04-.073.01-.145.022-.214.033-.022-.162-.04-.308-.062-.453-.023-.145.008-.256.165-.303.038-.011.073-.037.105-.063.106-.088.258-.141.289-.292.033-.162.043-.33.051-.496.003-.075-.055-.085-.118-.057-.121.055-.242.109-.361.169-.054.027-.08.021-.098-.038-.031-.104-.051-.216-.104-.308-.067-.116-.012-.174.066-.24.047-.04.09-.084.132-.13.123-.136.205-.294.193-.481-.006-.094-.036-.188-.064-.279-.025-.082-.081-.099-.155-.051-.066.043-.129.091-.19.14-.063.05-.122.105-.183.158-.084-.13-.155-.251-.237-.364-.05-.069-.053-.122-.007-.194.067-.106.141-.214.178-.332.081-.258-.023-.482-.169-.69-.048-.069-.099-.04-.133.008-.083.113-.159.231-.239.346-.016.023-.035.046-.049.065-.149-.142-.293-.275-.429-.414-.023-.024-.029-.084-.017-.118.068-.192.064-.394.018-.578-.092-.371-.34-.642-.648-.857-.284-.198-.59-.356-.925-.448-.268-.074-.534-.163-.807-.208-.289-.047-.585-.067-.877-.067-.348,0-.696.029-1.043.056-.162.012-.326.033-.483.074-.223.057-.443.13-.659.207-.41.146-.788.352-1.088.673-.297.318-.446.688-.297,1.125.028.081.002.115-.053.161-.107.091-.207.189-.308.287-.034.033-.062.074-.093.11-.099-.143-.186-.274-.279-.4-.06-.082-.107-.079-.166.006-.035.05-.069.102-.095.158-.072.155-.122.319-.058.486.05.13.125.249.184.376.016.034.032.088.016.114-.079.138-.168.27-.258.41-.035-.032-.063-.061-.095-.086-.098-.074-.195-.152-.298-.218-.025-.015-.093-.005-.108.017-.033.045-.054.105-.062.161-.038.262-.007.507.201.7.048.044.1.086.137.138.026.037.051.095.041.135-.034.134-.083.263-.128.4-.117-.059-.228-.115-.341-.171-.098-.048-.149-.029-.171.081-.035.169-.001.332.074.486.079.161.232.238.375.324.171.105.168.102.15.295-.01.107-.002.216-.002.33-.011,0-.032.007-.05.003-.123-.028-.246-.055-.368-.087-.111-.028-.155,0-.144.111.008.076.025.159.063.224.062.107.129.222.222.299.126.104.287.154.454.167.029.002.076.01.081.027.049.153.091.309.141.483-.066,0-.107-.005-.146,0-.118.016-.235.035-.352.056-.075.013-.085.059-.051.121.016.03.029.062.045.092.132.246.327.39.616.387.093,0,.186-.004.278.005.032.003.074.03.091.059.066.111.119.231.187.341.043.07.016.089-.045.107-.113.033-.227.066-.338.107-.093.035-.102.086-.04.163.221.271.549.363.876.24.146-.055.278-.09.376.086.037.066.111.111.167.166.02.02.038.044.061.07-.033.023-.055.039-.077.054-.112.078-.225.155-.336.235-.053.038-.072.09-.009.134.175.119.359.215.583.181.025-.004.051.004.097.008-.075.101-.141.187-.202.276-.026.038-.042.082-.062.123.047.013.094.027.141.038.013.003.027,0,.041,0h4.97c.031,0,.063.004.092-.002.031-.007.06-.023.09-.036-.013-.026-.022-.054-.04-.077-.042-.053-.088-.104-.142-.166.344-.034.368-.059.581-.176.125-.069.13-.115.016-.198-.099-.073-.202-.141-.305-.208-.056-.036-.06-.062-.01-.109.072-.067.141-.14.204-.217.108-.131.102-.119.264-.071.148.043.311.083.461.066.196-.022.357-.146.488-.299.062-.073.044-.131-.046-.16-.135-.043-.27-.089-.415-.136.062-.113.125-.214.173-.322.044-.1.095-.141.216-.13.437.039.669-.131.847-.49.049-.1.021-.138-.09-.145-.113-.007-.226-.01-.339-.019-.038-.003-.075-.017-.107-.025.033-.14.057-.267.096-.389.016-.05.058-.109.103-.129Zm-.569-.938c-.036-.023-.073-.043-.107-.068-.097-.071-.192-.144-.288-.215-.105-.076-.167-.048-.181.084-.008.078-.011.157-.017.236-.001.019-.007.037-.011.055l.023.152c.067.255.296.385.495.551-.077.102-.151.201-.235.313-.062-.084-.112-.156-.167-.225-.053-.067-.109-.132-.167-.194-.051-.054-.112-.051-.139.019-.056.146-.115.293-.143.445-.015.083.015.185.055.265.058.118.139.226.216.334.046.065.041.11-.025.154-.062.042-.122.086-.181.132-.055.043-.083.024-.106-.034-.054-.133-.111-.264-.169-.395-.035-.079-.086-.088-.15-.029-.15.141-.231.319-.271.518-.004.02-.007.041-.012.06-.001.006.039.234.126.314.002.01.01.018.014.027q.094.194-.104.268c-.07.026-.139.054-.207.08-.022-.124-.048-.244-.065-.365,0,0-.054-.353-.316-.105-.227.184-.327.408-.3.7-.029-.019-.047-.025-.054-.037-.086-.141-.214-.162-.37-.161-.833.006-1.666.005-2.498,0-.128,0-.227.025-.294.139-.008.013-.025.021-.046.04-.025-.135-.028-.269-.078-.382-.049-.111-.146-.202-.22-.299-.141-.171-.281.038-.31.208-.02.082-.045.163-.069.249-.11-.044-.223-.087-.334-.138-.017-.008-.033-.055-.026-.076.027-.077.118-.121.15-.194.042-.095.081-.157.075-.213-.008-.074-.014-.137-.021-.199-.023-.18-.127-.315-.246-.44-.054-.057-.113-.044-.148.03-.072.154-.143.309-.217.469-.085-.062-.176-.121-.257-.191-.018-.015-.019-.075-.004-.1.073-.126.16-.245.231-.372.105-.187.041-.59-.111-.729-.044-.04-.093-.041-.134.01-.085.103-.17.205-.255.309-.025.031-.049.063-.081.104-.079-.104-.151-.199-.231-.303.05-.036.095-.07.141-.103.291-.208.428-.482.358-.844-.006-.03-.011-.061-.023-.089-.047-.118-.074-.129-.18-.059-.13.086-.257.179-.393.274-.038-.089-.079-.175-.11-.264-.007-.02.015-.063.035-.075.129-.076.268-.136.391-.221.228-.157.287-.396.278-.657-.003-.078-.049-.098-.121-.074-.155.051-.31.1-.475.153-.02-.104-.044-.206-.057-.309-.002-.017.037-.051.062-.057.165-.04.335-.064.497-.113.162-.048.252-.185.314-.333.033-.08.052-.168.062-.255.003-.023-.052-.076-.079-.075-.173.005-.345.022-.544.037.024-.111.048-.229.079-.345.003-.011.053-.015.08-.013.163.012.327.05.487.036.166-.015.304-.117.406-.255.039-.052.072-.109.103-.166.031-.058.019-.1-.053-.11-.144-.021-.288-.046-.433-.062-.109-.012-.108-.023-.075-.126.074-.233.148-.467.193-.707.033-.175.113-.299.254-.398.324-.228.673-.403,1.055-.506.242-.065.486-.128.733-.168.3-.048.603-.077.906-.101.128-.01.26.01.389.02.085.006.17.024.255.026.316.009.619.083.925.156.357.085.694.219,1.011.402.13.075.246.174.372.255.104.067.098.171.123.273.064.26.144.517.229.771.027.082.005.093-.066.101-.145.016-.289.041-.433.06-.088.012-.087.067-.058.127.169.35.572.518.937.385.088-.032.12-.01.13.075.01.084.022.167.031.236-.161,0-.307.001-.453,0-.143-.002-.15.011-.115.148.046.176.122.338.265.451.072.057.169.088.259.113.118.032.24.047.367.07v.365c-.17-.054-.331-.102-.49-.158-.089-.031-.117-.019-.123.077-.027.374.124.607.456.757.086.039.17.08.263.124-.064.12-.122.227-.186.347Z" fill="#fff"/></g></svg>