<?xml version="1.0" encoding="UTF-8"?><svg id="Layer_1" xmlns="http://www.w3.org/2000/svg" viewBox="0 0 40 40"><g><path d="m22.898,20c0,.556-.166,1.071-.441,1.511l11.588,7.129V11.36l-11.588,7.128c.275.44.441.955.441,1.511Z" fill="#007e5c"/><path d="m17.102,20c0-.556.166-1.071.441-1.511l-11.588-7.128v17.28l11.588-7.129c-.275-.44-.441-.955-.441-1.511Zm-6.361,1.471c-.151-.3-.424-.644-.744-.942.108.405.173.809.168,1.162-.325-.135-.671-.405-.982-.725.097.398.259.778.467,1.06-3.146-.609-1.258-3.206-1.784-4.295.763.95,3.698.769,2.875,3.741Z" fill="#007e5c"/></g><g><path d="m34,8H6c-2.209,0-4,1.791-4,4v16c0,2.209,1.791,4,4,4h28c2.209,0,4-1.791,4-4V12c0-2.209-1.791-4-4-4Zm-6.304,1.198l.353-1.078.352,1.078h1.141l-.922.666.352,1.078-.922-.666-.922.666.352-1.078-.922-.666h1.14Zm-8.049,0l.352-1.078.353,1.078h1.14l-.922.666.353,1.078-.923-.666-.922.666.353-1.078-.922-.666h1.14Zm-8.049,0l.352-1.078.353,1.078h1.14l-.922.666.352,1.078-.922-.666-.922.666.352-1.078-.922-.666h1.141Zm1.274,22.384l-.922-.666-.922.666.352-1.078-.922-.667h1.141l.352-1.078.353,1.078h1.14l-.922.667.352,1.078Zm8.05,0l-.923-.666-.922.666.353-1.078-.922-.667h1.14l.352-1.078.353,1.078h1.14l-.922.667.353,1.078Zm8.049,0l-.922-.666-.922.666.352-1.078-.922-.667h1.14l.353-1.078.352,1.078h1.141l-.922.667.352,1.078Zm5.074-2.943H5.955V11.36h28.09v17.28Z" fill="#cf002e"/><path d="m17.543,21.511c.511.819,1.416,1.369,2.457,1.369s1.946-.55,2.457-1.369c.275-.44.441-.955.441-1.511s-.166-1.071-.441-1.511c-.511-.819-1.416-1.368-2.457-1.368s-1.946.55-2.457,1.368c-.275.44-.441.955-.441,1.511s.166,1.071.441,1.511Zm1.861-2.326l.596-1.825.597,1.825h1.93l-1.562,1.127.597,1.824-1.562-1.127-1.561,1.127.596-1.824-1.561-1.127h1.93Z" fill="#cf002e"/><path d="m9.184,20.966c.311.32.657.59.982.725.005-.353-.06-.757-.168-1.162-.276-.257-.585-.481-.891-.596-.044.325-.008.686.077,1.034Z" fill="#cf002e"/></g><g><path d="m20,22.88c-1.04,0-1.946-.55-2.457-1.369l-11.588,7.129h28.09l-11.588-7.129c-.511.819-1.416,1.369-2.457,1.369Z" fill="#f9cf00"/><path d="m17.543,18.489c.511-.819,1.416-1.368,2.457-1.368s1.946.55,2.457,1.368l11.588-7.128H5.955l11.588,7.128Z" fill="#f9cf00"/><polygon points="19.034 20.312 18.439 22.136 20 21.008 21.561 22.136 20.965 20.312 22.527 19.185 20.596 19.185 20 17.36 19.404 19.185 17.473 19.185 19.034 20.312" fill="#f9cf00"/><polygon points="11.028 10.942 11.951 10.276 12.873 10.942 12.521 9.864 13.444 9.198 12.304 9.198 11.951 8.12 11.599 9.198 10.458 9.198 11.38 9.864 11.028 10.942" fill="#f9cf00"/><polygon points="19.077 10.942 20 10.276 20.923 10.942 20.57 9.864 21.492 9.198 20.352 9.198 20 8.12 19.648 9.198 18.508 9.198 19.43 9.864 19.077 10.942" fill="#f9cf00"/><polygon points="27.127 10.942 28.049 10.276 28.971 10.942 28.62 9.864 29.542 9.198 28.401 9.198 28.049 8.12 27.696 9.198 26.556 9.198 27.479 9.864 27.127 10.942" fill="#f9cf00"/><polygon points="12.304 29.838 11.951 28.76 11.599 29.838 10.458 29.838 11.38 30.504 11.028 31.583 11.951 30.917 12.873 31.583 12.521 30.504 13.444 29.838 12.304 29.838" fill="#f9cf00"/><polygon points="20.352 29.838 20 28.76 19.648 29.838 18.508 29.838 19.43 30.504 19.077 31.583 20 30.917 20.923 31.583 20.57 30.504 21.492 29.838 20.352 29.838" fill="#f9cf00"/><polygon points="28.401 29.838 28.049 28.76 27.696 29.838 26.556 29.838 27.479 30.504 27.127 31.583 28.049 30.917 28.971 31.583 28.62 30.504 29.542 29.838 28.401 29.838" fill="#f9cf00"/><path d="m7.867,17.73c.526,1.089-1.363,3.687,1.784,4.295-.207-.281-.37-.661-.467-1.06-.085-.347-.121-.709-.077-1.034.306.116.615.34.891.596.32.298.593.642.744.942.823-2.972-2.112-2.791-2.875-3.741Z" fill="#f9cf00"/></g></svg>