<?xml version="1.0" encoding="UTF-8"?><svg id="Layer_1" xmlns="http://www.w3.org/2000/svg" viewBox="0 0 40 40"><g><rect x="3.5" y="3.5" width="33" height="33" rx="8" ry="8" fill="#ef4452"/><g><path d="m18.852,26.594h-2.362l-5.831-8.295v8.295h-2.72v-12.681h2.363l5.848,8.329v-8.329h2.702v12.681Z" fill="#fff"/><path d="m20.196,20.271c0-4.402,3.025-6.612,6.408-6.612,3.145,0,5.354,1.649,5.898,4.641h-2.873c-.323-1.563-1.444-2.346-3.025-2.346-1.904,0-3.604,1.088-3.604,4.317,0,3.213,1.699,4.284,3.604,4.284,1.869,0,3.025-.867,3.161-2.754h-3.501v-2.193h6.357c.237,4.776-2.143,7.241-6.018,7.241-3.383,0-6.408-2.209-6.408-6.578Z" fill="#fff"/></g></g><rect width="40" height="40" fill="none"/></svg>