<svg id="Layer_1" data-name="Layer 1" xmlns="http://www.w3.org/2000/svg" xmlns:xlink="http://www.w3.org/1999/xlink" viewBox="0 0 40 40"><defs><style>.cls-1{fill:none;}.cls-2{clip-path:url(#clip-path);}.cls-3{fill:#cdae42;}.cls-4{fill:#b41f32;}.cls-5{clip-path:url(#clip-path-2);}.cls-6{fill:#ab6b31;}.cls-7{fill:#355d8e;}.cls-8{fill:#728b42;}</style><clipPath id="clip-path"><rect id="SVGID" class="cls-1" x="1.063" y="9.053" width="37.875" height="21.894" rx="4"/></clipPath><clipPath id="clip-path-2"><rect id="SVGID-2" data-name="SVGID" class="cls-1" x="1.063" y="9.053" width="37.875" height="21.894"/></clipPath></defs><g class="cls-2"><rect class="cls-3" x="1.063" y="9.053" width="37.875" height="21.894"/><rect class="cls-4" x="2.168" y="10.148" width="35.665" height="19.705"/><g class="cls-5"><path class="cls-6" d="M24.8,19.822a2.68,2.68,0,0,0,.9-.421.993.993,0,0,0,.406-.57c.025-.11.036-.2-.046-.133a4.888,4.888,0,0,1-.5.347,1.894,1.894,0,0,1-.414.161c-.091.025-.164.041-.076.007a1.684,1.684,0,0,0,.594-.353,1.33,1.33,0,0,0,.4-.748c0-.2-.012-.186-.077-.136s-.3.334-.427.442a4.345,4.345,0,0,1-.447.313c-.106.061-.254.129-.047-.011a2.1,2.1,0,0,0,.758-.9,1.606,1.606,0,0,0,.127-.723c0-.043-.04-.13-.076-.05a4.2,4.2,0,0,1-.508.819c-.21.223-.16.18-.207.216s-.127.1-.025-.025a2.914,2.914,0,0,0,.421-.705,2.33,2.33,0,0,0,.141-.74,1.312,1.312,0,0,0-.1-.464c-.032-.068-.065-.118-.076-.039s-.177.589-.268.837a3.186,3.186,0,0,1-.309.582c-.036.054-.13.166-.029-.021a3.509,3.509,0,0,0,.323-1.258,1.987,1.987,0,0,0-.119-.952.614.614,0,0,0-.136-.2,4.022,4.022,0,0,1-.095.867,2.847,2.847,0,0,1-.264.781s-.065.073-.02-.05a2.19,2.19,0,0,0,.122-.572,2.682,2.682,0,0,0-.061-1,1.283,1.283,0,0,0-.283-.515,7.165,7.165,0,0,1-.222,1.628c-.034-.029-.078-.085-.1.028a2.87,2.87,0,0,1-.322.883c-.222.4-.313.454-.313.454s-.041-.1-.07-.151-.046-.082-.083-.008a2.788,2.788,0,0,1-.432.666c-.272.311-.425.462-.417.7a.534.534,0,0,0,.3.458c.165.107.194.164.169.291s-.174.171-.3.175a1.2,1.2,0,0,0-.347.025c-.057.032-.061.114-.119.172s-.082.089-.136.1l-.046.006a1.356,1.356,0,0,1,.228-.889l-.672-.782c-.035.017-.069.032-.1.047a.181.181,0,0,0-.019-.03.5.5,0,0,1-.119-.353.5.5,0,0,0,.161.015c.062-.012.015-.073,0-.13a1.129,1.129,0,0,1-.025-.334c.012-.075.018-.105.018-.105s.1.105.159.105.054-.06.064-.126a.511.511,0,0,1,.139-.3.46.46,0,0,0,.229.073.609.609,0,0,0,.418-.158c.13-.124.128-.154.128-.154a1.876,1.876,0,0,0,.429.094.455.455,0,0,0,.478-.215.409.409,0,0,0-.048-.4c-.021-.03-.083-.054-.083,0a.306.306,0,0,1-.109.273.328.328,0,0,1-.308.036.949.949,0,0,0-.427-.051.529.529,0,0,0-.176.036.808.808,0,0,1,.283-.191.236.236,0,0,1,.269.07c.045.054.084.142.121.015a.462.462,0,0,0-.046-.366.348.348,0,0,0-.329-.139.749.749,0,0,0-.186.036.377.377,0,0,0-.246-.233.982.982,0,0,0-.64.139.676.676,0,0,1-.3-.009.968.968,0,0,1-.25-.124c.016-.057.049-.161.049-.161s.043-.013.088-.03.035-.031.04-.067-.083-.1-.083-.1-.013-.11.134-.186.131-.063.131-.063.086.016.121-.01.035-.041.035-.041a.19.19,0,0,0,.089-.06.163.163,0,0,0,.011-.14c-.017-.045-.039-.054-.015-.076a.192.192,0,0,0,.048-.109l0-.046s.049-.017.048-.093a.111.111,0,0,0-.068-.112.155.155,0,0,0-.039-.007.251.251,0,0,0-.044-.105.562.562,0,0,0-.065-.087.062.062,0,0,0,.014-.071.133.133,0,0,0-.086-.091.149.149,0,0,0-.071,0s-.115-.069-.17-.1l-.067-.035a.161.161,0,0,0-.021-.073.126.126,0,0,0-.089-.037.132.132,0,0,0-.05.013s-.2-.05-.277-.063-.084-.019-.084-.019a1.782,1.782,0,0,0-.241-.1.687.687,0,0,1-.087-.02.347.347,0,0,0,.074-.181.268.268,0,0,0-.13-.23c-.04-.023-.06-.027-.073-.035v-.067l.13.014.011-.208-.127.015.02-.125-.267,0,.019.125-.128-.008.011.205.135-.017-.013.077a.236.236,0,0,0-.091.039.246.246,0,0,0-.125.218.406.406,0,0,0,.064.183s-.018,0-.085.018a1.609,1.609,0,0,0-.241.1s0,.006-.085.019-.276.063-.276.063a.132.132,0,0,0-.05-.013.124.124,0,0,0-.089.037.164.164,0,0,0-.022.073l-.067.034c-.055.028-.169.1-.169.1a.14.14,0,0,0-.072,0,.132.132,0,0,0-.085.091.064.064,0,0,0,.012.071.616.616,0,0,0-.064.087.251.251,0,0,0-.044.105.155.155,0,0,0-.039.007.109.109,0,0,0-.067.112c0,.076.047.093.047.093s0,.009,0,.045a.186.186,0,0,0,.048.11c.023.022,0,.031-.016.076a.167.167,0,0,0,.012.14.189.189,0,0,0,.088.06s0,.016.035.041a.21.21,0,0,0,.122.01s-.016-.013.131.063.133.186.133.186-.089.065-.083.1,0,.051.04.067.088.03.088.03.033.1.05.161a.993.993,0,0,1-.251.124.677.677,0,0,1-.3.009.978.978,0,0,0-.639-.139.379.379,0,0,0-.247.233.733.733,0,0,0-.186-.036.348.348,0,0,0-.329.139.47.47,0,0,0-.046.366c.037.127.077.039.122-.015a.234.234,0,0,1,.268-.07.832.832,0,0,1,.284.19.634.634,0,0,0-.177-.035.942.942,0,0,0-.426.051.328.328,0,0,1-.308-.036.307.307,0,0,1-.11-.273c0-.054-.061-.03-.082,0a.409.409,0,0,0-.049.4.455.455,0,0,0,.478.215,1.951,1.951,0,0,0,.43-.094s0,.03.128.154a.6.6,0,0,0,.417.158.46.46,0,0,0,.229-.073.513.513,0,0,1,.14.3c.009.066,0,.126.064.126s.159-.105.159-.105.006.03.017.105a1.13,1.13,0,0,1-.024.334c-.018.057-.064.118,0,.13a.529.529,0,0,0,.161-.015.505.505,0,0,1-.119.353.282.282,0,0,0-.019.029c-.033-.015-.067-.03-.1-.047l-.672.783a1.352,1.352,0,0,1,.228.893v0l-.049-.006c-.053-.009-.078-.041-.136-.1s-.061-.14-.119-.172a1.2,1.2,0,0,0-.347-.025c-.127,0-.275-.049-.3-.175s0-.184.169-.291a.534.534,0,0,0,.3-.458c.008-.233-.144-.384-.416-.7a2.807,2.807,0,0,1-.433-.666c-.038-.074-.054-.045-.083.008s-.07.151-.07.151-.091-.053-.313-.454a2.843,2.843,0,0,1-.322-.883c-.018-.113-.063-.057-.1-.028a7.11,7.11,0,0,1-.222-1.628,1.283,1.283,0,0,0-.283.515,2.7,2.7,0,0,0-.061,1,2.147,2.147,0,0,0,.122.572c.045.123-.021.05-.021.05a2.89,2.89,0,0,1-.264-.781A4.053,4.053,0,0,1,15,15.1a.614.614,0,0,0-.136.2,1.987,1.987,0,0,0-.119.952,3.488,3.488,0,0,0,.323,1.258c.1.187.007.075-.03.021a3.282,3.282,0,0,1-.307-.582c-.092-.248-.258-.759-.27-.837s-.043-.029-.076.039a1.358,1.358,0,0,0-.1.464,2.366,2.366,0,0,0,.142.74,2.914,2.914,0,0,0,.421.705c.1.125.021.06-.026.025s0,.007-.206-.216a4.148,4.148,0,0,1-.508-.819c-.036-.08-.073.007-.076.05a1.589,1.589,0,0,0,.127.723,2.088,2.088,0,0,0,.758.9c.207.14.058.072-.048.011a4.338,4.338,0,0,1-.445-.313c-.131-.108-.363-.392-.429-.442s-.08-.065-.076.136a1.331,1.331,0,0,0,.4.748,1.694,1.694,0,0,0,.6.353c.087.034.014.018-.076-.007a1.9,1.9,0,0,1-.415-.161,4.974,4.974,0,0,1-.495-.347c-.083-.064-.071.023-.045.133a.982.982,0,0,0,.4.57,2.7,2.7,0,0,0,.9.421c.129.036.038.036.038.036s-.052-.007-.314-.065a3.33,3.33,0,0,1-.768-.331c-.107-.067-.123-.092-.108.049a.921.921,0,0,0,.408.584,2.325,2.325,0,0,0,.792.219c.113,0,.085.021.033.025a2.479,2.479,0,0,1-.382-.02,2.939,2.939,0,0,1-.505-.129c-.009-.036-.018-.071-.022-.093-.01-.053-.039-.045-.056-.033a.746.746,0,0,1-.088.051c-.061.03-.063,0-.064-.023a1.353,1.353,0,0,1-.016-.136c0-.04-.024-.041-.053-.03s-.163.068-.212.09,0,.062.022.109.066.118.066.118l-.167.044c-.04.01-.027.038-.018.066s.073.167.089.207a.033.033,0,0,0,.052.016l.126-.074.044.167a.49.49,0,0,0-.122.058c-.064.044-.048.1.029.124a.415.415,0,0,1,.265.237,3.424,3.424,0,0,1,.184,1,1.169,1.169,0,0,0,.432.792c.044.032.018.057.018.057a.223.223,0,0,0-.024.162.241.241,0,0,0,.149.171.051.051,0,0,1,.032.061,1.076,1.076,0,0,0,0,.3.95.95,0,0,0,.229.457c.046.038.048.057.042.072s-.034,0-.089.045a.57.57,0,0,0-.154.168c-.038.07-.024.111-.012.206s.153.181.153.181-.026.006-.031.076a.254.254,0,0,0,.108.2.53.53,0,0,0,.185.076s.01.06.016.1.087.082.137.111a.261.261,0,0,0,.191-.006c.042-.019.071,0,.1.044a.853.853,0,0,1,.017.264c0,.063-.039.13-.017.161s.083.01.144-.025.077-.01.131.025a.427.427,0,0,0,.163.064c.022,0,.013-.061.013-.108s.008-.155.031-.171a1.707,1.707,0,0,0,.177-.045c.032-.014.076-.028.079-.06s-.045-.032-.151-.086a1.373,1.373,0,0,1-.191-.13c-.066-.044-.034-.06-.034-.079s.032-.041.044-.066a.217.217,0,0,0,.006-.083s.055-.054.08-.082a.86.86,0,0,1,.093-.1c.034-.028.089-.165.124-.209s.115-.092.163-.152a1.277,1.277,0,0,1,.249-.206c.073-.048.271-.14.271-.14a.3.3,0,0,0,.048.174c.051.058.119-.044.344-.2a1.731,1.731,0,0,1,.4-.215s.048.072.108.149.115,0,.393-.384a5.048,5.048,0,0,1,.619-.677l.063.027a.486.486,0,0,0-.017.05,2.153,2.153,0,0,1-.121.239c-.055.111-.137.136-.232.284a.712.712,0,0,0-.119.4c-.009.151.077.183.077.183a.974.974,0,0,0-.182.236,1.539,1.539,0,0,0-.063.306s-.022.009-.074.113-.143.119-.276.252a1.354,1.354,0,0,1-.353.229c-.07.042-.051.082-.032.136s.114.107.226.148a.426.426,0,0,0,.226.022c.076,0,.016.057-.016.088a.413.413,0,0,0-.067.265c.007.123.1.1.213.076a1.287,1.287,0,0,0,.248-.076L18.7,26a.372.372,0,0,0-.02.157c0,.1.016.145.045.17s.086-.028.128-.041a1.531,1.531,0,0,1,.212-.075.258.258,0,0,0,.14-.066.2.2,0,0,0-.031.1.818.818,0,0,0,.012.234.43.43,0,0,0,.131.2c.07.063.085.035.136-.044a1.366,1.366,0,0,1,.157-.18s.006.025.076.249a1.033,1.033,0,0,0,.3.41,1.033,1.033,0,0,0,.3-.41c.07-.224.076-.249.076-.249a1.313,1.313,0,0,1,.156.18c.051.079.067.107.137.044a.43.43,0,0,0,.131-.2.855.855,0,0,0,.012-.234.189.189,0,0,0-.032-.1.264.264,0,0,0,.14.066,1.508,1.508,0,0,1,.213.075c.042.013.1.067.127.041s.045-.072.045-.17A.4.4,0,0,0,21.273,26l-.012-.035a1.287,1.287,0,0,0,.248.076c.114.019.206.047.212-.076a.414.414,0,0,0-.066-.265c-.032-.031-.093-.091-.016-.088a.423.423,0,0,0,.225-.022c.112-.041.208-.094.226-.148s.039-.094-.032-.136a1.388,1.388,0,0,1-.353-.229c-.133-.133-.226-.148-.276-.252s-.073-.113-.073-.113a1.493,1.493,0,0,0-.064-.306.949.949,0,0,0-.182-.236s.087-.032.077-.183a.7.7,0,0,0-.118-.4c-.095-.148-.177-.173-.232-.284a1.991,1.991,0,0,1-.121-.239l-.016-.048.082-.036a5.081,5.081,0,0,1,.621.679c.277.38.332.46.393.383s.108-.149.108-.149a1.722,1.722,0,0,1,.4.216c.227.158.294.26.345.2a.206.206,0,0,0,.036-.119s.13.038.28.09c.089.031.188.07.262.1a1.207,1.207,0,0,1,.373.247.65.65,0,0,0,.59.047c.211-.063.771-.247,1-.343a1.283,1.283,0,0,0,.41-.226.714.714,0,0,0,.049-.213.216.216,0,0,0-.066-.123c-.017-.012-.01-.047,0-.075a.239.239,0,0,0-.046-.151c-.035-.037-.03-.051-.025-.159a.68.68,0,0,0-.39-.611.083.083,0,0,0-.025-.042.232.232,0,0,0-.05-.03s0-.132,0-.16.012-.025.028-.018a.256.256,0,0,0,.078.049c.038.01.062-.017.07-.06a1.65,1.65,0,0,1,.054-.169c.014-.042,0-.049-.021-.054s-.074-.01-.1-.017-.027-.007-.021-.021a.674.674,0,0,1,.051-.09c.035-.053,0-.055-.03-.066s-.183-.056-.224-.063a.043.043,0,0,0-.051.046c0,.017,0,.093,0,.121s-.025.02-.041.012a.611.611,0,0,1-.08-.051c-.029-.023-.049,0-.061.029s-.045.16-.057.2-.007.068.008.074a.987.987,0,0,0,.135,0c.044,0,.018.025.018.025s-.047.077-.063.107-.042.034-.078.034h-.1a.858.858,0,0,0-.422.141.706.706,0,0,0-.256.3c-.027.064-.059.05-.087.073s-.105.1-.105.155.018.076-.059.126a.292.292,0,0,0-.038.381,1.163,1.163,0,0,1,.179.282c.032.054,0,.077-.027.077a.406.406,0,0,1-.133-.082c-.048-.035-.29-.223-.394-.3s-.027-.069-.027-.069a.2.2,0,0,0,.087-.023c.061-.025.07-.056.009-.075a.774.774,0,0,1-.21-.118c-.032-.031-.048-.067.013-.1s.194-.117.089-.146-.229-.051-.332-.079-.112-.057-.112-.057l.067-.095s.054-.076-.009-.086a1.463,1.463,0,0,1-.358-.089.859.859,0,0,1-.522-.574l.005-.006c.052.1.175.3.359.3.251.008.28-.069.223-.151s-.124-.156-.141-.18-.02-.057.045,0a.619.619,0,0,0,.571.245c.38-.024.377-.1.377-.118,0-.073-.076-.084-.122-.129-.024-.024-.039-.058.038-.029a1,1,0,0,0,.52.009c.1-.021.367-.137.393-.271a1,1,0,0,1-.287-.06c-.119-.05-.19-.092-.064-.067a1.161,1.161,0,0,0,.585,0A.372.372,0,0,0,24.7,21.5s-.234-.049-.319-.08a.43.43,0,0,1-.113-.054.938.938,0,0,0,.636-.047c.3-.152.316-.36.316-.409a.148.148,0,0,0-.008-.063,2.4,2.4,0,0,1-.482.065,1.247,1.247,0,0,1-.269-.02,2.263,2.263,0,0,0,.866-.191.692.692,0,0,0,.306-.521,3.172,3.172,0,0,1-.533.139,2.254,2.254,0,0,1-.384.02c-.05,0-.08-.02.033-.025a2.324,2.324,0,0,0,.793-.219.934.934,0,0,0,.409-.584c.014-.141,0-.116-.11-.049a3.3,3.3,0,0,1-.767.331c-.263.058-.314.065-.314.065s-.092,0,.038-.036m-10.369.656-.117.066s-.046-.094-.058-.122-.006-.04.01-.04.064-.014.1-.018l.016,0a.658.658,0,0,0,.051.114l0,0m3.536,2.05a.94.94,0,0,1-.4.326,1.384,1.384,0,0,1-.358.089c-.064.01-.01.086-.01.086l.068.095s-.01.029-.112.057-.227.051-.332.08.029.114.089.145.046.067.014.1a.808.808,0,0,1-.211.117c-.061.019-.052.051.01.076a1.811,1.811,0,0,0,.225.057.682.682,0,0,1-.1.083.845.845,0,0,1-.4.133,5.4,5.4,0,0,1-.542,0c-.237-.011-.264-.016-.264-.016s-.009-.078-.025-.194a.984.984,0,0,0-.141-.356c-.055-.076-.169-.226-.169-.226a.652.652,0,0,1,.011-.07.261.261,0,0,0-.025-.15.652.652,0,0,0-.166-.175s-.006-.077-.006-.148a2.538,2.538,0,0,0-.094-.483,5.722,5.722,0,0,0-.359-.641,1.774,1.774,0,0,1-.189-.6.74.74,0,0,1-.008-.3.276.276,0,0,1,.022-.059.621.621,0,0,0,.16.143,2.267,2.267,0,0,0,.867.191,1.259,1.259,0,0,1-.271.02,2.412,2.412,0,0,1-.481-.065.167.167,0,0,0-.007.063c0,.049.013.257.316.409a.938.938,0,0,0,.636.047.43.43,0,0,1-.113.054c-.086.031-.32.08-.32.08a.372.372,0,0,0,.289.327,1.173,1.173,0,0,0,.585,0c.126-.025.055.016-.064.067a1.013,1.013,0,0,1-.288.06c.026.134.293.25.394.271a1,1,0,0,0,.52-.009c.076-.029.061,0,.038.029-.046.045-.123.056-.123.129,0,.02,0,.094.377.118a.619.619,0,0,0,.571-.245c.066-.061.062-.029.046,0s-.083.1-.141.18-.028.159.222.151c.186-.006.308-.2.361-.3l0,0,.011.014c-.024.06-.065.159-.109.242M21.025,14.4c-.034-.064-.053-.094-.053-.094a.813.813,0,0,1,.229.161.341.341,0,0,1,.095.192.631.631,0,0,1-.012.214.267.267,0,0,0,0,.158.23.23,0,0,0,.031.043,1.072,1.072,0,0,0-.122.04c-.061.023-.138.045-.182.009s-.054-.061-.026-.085a.248.248,0,0,0,.14-.224.83.83,0,0,0-.1-.414m-.779.47a.561.561,0,0,0,.021-.328,4.054,4.054,0,0,1-.056-.414.648.648,0,0,1,.258.16.5.5,0,0,1,.186.348c0,.068-.036.152-.042.219a.291.291,0,0,0,.019.125.664.664,0,0,0-.106.057.218.218,0,0,1-.161.052.367.367,0,0,1-.167-.061A.251.251,0,0,0,20.126,15a.3.3,0,0,0,.12-.131m-.739-.582a.649.649,0,0,1,.257-.16,3.565,3.565,0,0,1-.055.414.561.561,0,0,0,.021.328.3.3,0,0,0,.121.131.25.25,0,0,0-.073.027.367.367,0,0,1-.167.061.218.218,0,0,1-.161-.052.715.715,0,0,0-.106-.057.291.291,0,0,0,.019-.125c-.006-.067-.042-.151-.042-.219a.5.5,0,0,1,.186-.348m-.546.835c-.044.036-.122.014-.182-.009a1.072,1.072,0,0,0-.122-.04.206.206,0,0,0,.03-.043.257.257,0,0,0,0-.158.663.663,0,0,1-.013-.214.352.352,0,0,1,.1-.192A.814.814,0,0,1,19,14.308s-.018.03-.053.094a.842.842,0,0,0-.1.414.248.248,0,0,0,.14.224c.028.024.017.049-.026.085m2.019,1.442c-.149.082-.234.063-.228.124s.14.106.14.106a1.632,1.632,0,0,1-.244.212,1.265,1.265,0,0,1-.231.108s-.043.007-.019.073a.254.254,0,0,0,.1.13.322.322,0,0,0,.053.025s-.186.2-.269.26a.73.73,0,0,1-.194.112c-.067.027-.033.136-.019.185a.243.243,0,0,0,.107.124c.033.009.046.033,0,.1-.032.049-.139.181-.189.254l0,0c-.051-.073-.158-.207-.19-.256-.043-.067-.03-.091,0-.1a.234.234,0,0,0,.107-.124c.015-.049.049-.158-.018-.185a.734.734,0,0,1-.2-.112c-.082-.064-.268-.26-.268-.26a.3.3,0,0,0,.052-.025.244.244,0,0,0,.1-.13c.025-.066-.018-.073-.018-.073a1.292,1.292,0,0,1-.232-.108,1.66,1.66,0,0,1-.243-.212s.134-.046.14-.106-.079-.042-.229-.124a.475.475,0,0,1-.2-.185.487.487,0,0,0,.259-.23.321.321,0,0,0,.035-.163l.006,0a3.234,3.234,0,0,0,1.781,0l.007,0a.319.319,0,0,0,.034.163.49.49,0,0,0,.259.23.467.467,0,0,1-.2.185"/><path class="cls-4" d="M17.916,16.8a1.014,1.014,0,0,0-.383-.114,1.2,1.2,0,0,0-.437.048.488.488,0,0,1-.261.009.36.36,0,0,1-.244-.27.246.246,0,0,0,0,.293.33.33,0,0,0,.2.133c.235.048.465-.1.661-.107a.539.539,0,0,1,.335.106.094.094,0,0,0,.107,0c.063-.037.081-.065.022-.1"/><path class="cls-4" d="M23.385,16.476a.36.36,0,0,1-.244.27.488.488,0,0,1-.261-.009,1.206,1.206,0,0,0-.437-.049,1.056,1.056,0,0,0-.383.115c-.059.035-.041.062.021.1a.1.1,0,0,0,.108,0,.539.539,0,0,1,.335-.106c.2.012.426.154.661.107a.327.327,0,0,0,.2-.134.243.243,0,0,0,0-.292"/><path class="cls-3" d="M21.888,19.9a1.373,1.373,0,0,1,.215-.758l-.587-.665a1.833,1.833,0,0,1-1.527,0,1.83,1.83,0,0,1-1.526,0l-.587.665a1.369,1.369,0,0,1,.216.758,4.135,4.135,0,0,1-.144,1.033,1.749,1.749,0,0,0,.023.943,1.206,1.206,0,0,0,.771.779,4.207,4.207,0,0,1,.975.479,1.843,1.843,0,0,1,.272.27,1.825,1.825,0,0,1,.273-.27,4.185,4.185,0,0,1,.975-.479,1.206,1.206,0,0,0,.771-.779,1.759,1.759,0,0,0,.023-.943,4.1,4.1,0,0,1-.143-1.033"/><path class="cls-3" d="M17.388,23.6s-.19.09-.25.106a.4.4,0,0,1-.074.017,1.826,1.826,0,0,1-.224.171.86.86,0,0,1-.328.113c-.148.016-.554.011-.738,0a.438.438,0,0,0-.373.123.213.213,0,0,0,0,.31.156.156,0,0,0,.247-.011.191.191,0,0,0,0-.17c-.016-.034.032-.046.082-.048a1.209,1.209,0,0,1,.216.016,1.111,1.111,0,0,1,.277.089c.06.032.025.037-.017.03a.991.991,0,0,1-.161-.05.657.657,0,0,0-.183-.044c-.046,0-.03.023-.021.039s.035.055.042.073a.263.263,0,0,1-.014.088l.023.043a.647.647,0,0,0,.038-.066c.008-.023,0-.067.006-.088s.049-.02.079.014a.3.3,0,0,1,.081.163.26.26,0,0,1-.014.149.172.172,0,0,1,.044.051.444.444,0,0,1-.01.1s.026.016.049-.032a.976.976,0,0,0,.057-.163c.007-.03.029-.085.065-.044a.344.344,0,0,1,.069.118.164.164,0,0,1,.008.045,1.026,1.026,0,0,0,.111-.126.752.752,0,0,1,.163-.179c.079-.064.216-.192.282-.237s.238-.135.291-.167.062-.034.072-.124a1.022,1.022,0,0,1,.074-.232c.02-.061.026-.085.026-.085"/><path class="cls-3" d="M17.239,23.535l-.055-.007a.819.819,0,0,1-.123-.037.066.066,0,0,0-.074.012,1.938,1.938,0,0,1-.189.121h.279a.223.223,0,0,0,.162-.089"/><path class="cls-3" d="M18.027,23.487V23.46l-.037-.08a.509.509,0,0,0-.087.071,1.849,1.849,0,0,0-.138.167c-.047.059-.112.115-.056.021s.074-.135.119-.2.078-.09.072-.094a.89.89,0,0,0-.158-.024.589.589,0,0,1-.244-.091c-.053-.031-.15-.083-.15-.083s-.2.083-.274.1-.119.03-.046.065.134.047.168.069a.55.55,0,0,0,.213.057c.067,0,.18,0,.136.048a.79.79,0,0,0-.144.27.922.922,0,0,0-.05.314,1.148,1.148,0,0,0,.007.118,1.554,1.554,0,0,1,.3-.227,3.542,3.542,0,0,1,.342-.2c.041-.019.062-.019.054-.071s-.029-.179-.029-.205"/><path class="cls-3" d="M18.866,22.827l-.041-.018-.011,0A.73.73,0,0,0,18.6,23c-.055.086-.109.094-.049,0a.79.79,0,0,1,.149-.189l.046-.039a2.516,2.516,0,0,1-.338-.192.525.525,0,0,1-.073.114.544.544,0,0,1-.15.089.7.7,0,0,0,.111-.148.769.769,0,0,0,.036-.111,1.457,1.457,0,0,1-.222-.209.8.8,0,0,1-.191.335,1.283,1.283,0,0,1-.517.289s-.121.012-.023.038a.628.628,0,0,0,.358.035,1.431,1.431,0,0,0,.229-.048c.025-.008.1,0,0,.033a1.357,1.357,0,0,1-.4.062c-.085-.008-.2-.026-.08.038a.513.513,0,0,0,.248.09c.074,0,.106.022.178.022a.546.546,0,0,0,.144-.022c.051-.011.084.007.084.027a.409.409,0,0,0-.067.217,1.264,1.264,0,0,0,.026.273,1.182,1.182,0,0,0,.065.146c.021.038.028.076.049,0s.067-.2.085-.279.028-.081.036-.122.052-.072.031,0-.044.169-.059.235-.052.189.009.092.3-.355.333-.4.069-.089.1-.127.108-.089.146-.145a1.276,1.276,0,0,1,.182-.185l-.207-.089"/><path class="cls-3" d="M14.358,20.241c0-.015-.032-.069-.04-.1s-.036-.011-.036-.011a.543.543,0,0,1-.1.046c-.044.012-.051,0-.056-.028s-.015-.094-.023-.145-.018-.047-.036-.04-.074.028-.113.045-.026.035-.014.056.057.112.077.144,0,.046-.022.057-.057.015-.1.031-.042.025-.038.041a1,1,0,0,0,.052.107c.017.029.032.009.032.009a.436.436,0,0,1,.091-.064c.042-.02.045-.014.055.017s.059.191.069.221.024.028.046.019.051-.014.075-.022.034-.056.034-.056l-.115-.2c-.025-.041,0-.05.018-.053s.073-.011.119-.022.034-.037.032-.052"/><path class="cls-3" d="M15.385,24.646c-.007-.04,0-.078-.03-.108a.351.351,0,0,1-.081-.138c-.014-.048.011-.071.006-.1s-.041-.027-.078,0a.163.163,0,0,0-.086.144.219.219,0,0,0,.155.227c.123.037.12.009.114-.029"/><path class="cls-3" d="M15.509,24.6s-.025-.016-.037.007-.009.035.023.085a.237.237,0,0,0,.09.085c.037.023.012-.023.007-.037s0-.032-.009-.043a.094.094,0,0,1-.014-.063c0-.036-.06-.034-.06-.034"/><path class="cls-3" d="M15.66,25.017c.022-.034.043-.043.1-.069a.712.712,0,0,1,.193-.041.141.141,0,0,0,.1-.138.126.126,0,0,0-.106-.1c-.044-.009-.083-.009-.1.011a.159.159,0,0,1-.088.064c-.049.016-.056.033-.085.042s-.007.027-.033.048-.06,0-.1-.012a.27.27,0,0,0-.086-.02l-.159-.009a.076.076,0,0,0-.03,0c-.025,0-.028,0-.04.032a.175.175,0,0,0,.031.131c.027.035.118.05.177.069a.959.959,0,0,0,.142.034c.05.01.058,0,.081-.034"/><path class="cls-3" d="M16.221,25.072c.048-.032.02-.087.009-.121s-.079-.042-.113-.042-.054,0-.072.016a.239.239,0,0,1-.094.055c-.051.017-.09.035-.16.063s-.09.073-.12.091a.131.131,0,0,1-.088,0s-.042-.011-.056,0,0,.035.029.065.081.027.14.045.072,0,.1-.011a.76.76,0,0,1,.083-.076.514.514,0,0,1,.176-.034.438.438,0,0,0,.171-.051"/><path class="cls-3" d="M16.221,24.864c.02.018.043.043.062.013s.049-.092.028-.128a.573.573,0,0,0-.047-.069,1.277,1.277,0,0,1-.05.133c-.016.028-.014.032.007.051"/><path class="cls-3" d="M16.033,24.547a.334.334,0,0,0-.041-.133.55.55,0,0,1-.039.1.34.34,0,0,1-.051.073.526.526,0,0,0,.083.016c.023,0,.048,0,.048-.059"/><path class="cls-3" d="M15.687,24.673a.277.277,0,0,0,.127-.062.109.109,0,0,0,.025-.117.153.153,0,0,0-.082-.067h-.035a.333.333,0,0,1-.044.09c-.025.03-.056.051-.053.089s0,.08.062.067"/><path class="cls-3" d="M15.819,24.382a.112.112,0,0,0-.03-.083l-.035-.035s0,.046-.009.072a.111.111,0,0,1-.007.03.157.157,0,0,0,.035.025c.016.006.043.021.046-.009"/><path class="cls-3" d="M15.02,22.754s.077,0,.044-.271a1.779,1.779,0,0,0-.287-.7,3.379,3.379,0,0,1-.281-.6,1.693,1.693,0,0,1-.085-.456.259.259,0,0,1,.046-.161s.019-.029,0-.047-.047,0-.076.027a.329.329,0,0,0-.072.12.209.209,0,0,0-.012.051.565.565,0,0,0-.151-.006c-.093.008-.137.016-.141.035s.013.035.08.063a.354.354,0,0,1,.143.081,1.459,1.459,0,0,1,.146.332,4.641,4.641,0,0,1,.105.558,2.214,2.214,0,0,0,.188.655c.032.067.206.387.352.323"/><path class="cls-3" d="M15.189,23.23c-.064.035-.061.291-.033.424a.964.964,0,0,0,.2.342c.04.044.049.044.071.032a.072.072,0,0,1,.03-.011.4.4,0,0,0,.1-.051c.043-.033.026-.115.019-.187a1.125,1.125,0,0,0-.167-.384c-.1-.167-.154-.2-.217-.165"/><path class="cls-3" d="M15.26,23.023a.154.154,0,0,0-.158-.147.15.15,0,0,0-.1.03c-.084.076-.034.266.09.266a.187.187,0,0,0,.129-.038.155.155,0,0,0,.036-.111"/><path class="cls-3" d="M16.481,25.427a.253.253,0,0,1-.1-.053.5.5,0,0,1-.142-.135c-.014-.033-.014-.035-.062-.019a.7.7,0,0,1-.166.015c-.052,0,.006.059.041.112a.584.584,0,0,1,.024.232.156.156,0,0,1-.008.041c-.008.025,0,.043.012.049s.022-.006.058-.047a1.721,1.721,0,0,0,.1-.149l.065.015a.415.415,0,0,0,.19-.008c.046-.014.024-.047-.009-.053"/><path class="cls-3" d="M16.269,25.565c-.024,0-.034-.006-.046.01a.257.257,0,0,0-.028.061.035.035,0,0,0,.01.041c.014.012.034.026.034.026a.138.138,0,0,0,.04.03c.019.011.024-.019.024-.041s.011-.06.011-.086-.022-.037-.045-.041"/><path class="cls-3" d="M15.662,16.937a1.662,1.662,0,0,0,.253.553c.089.144.114.2.1.211s-.053-.064-.1-.128-.144-.214-.224-.327a4.063,4.063,0,0,1-.213-.407c-.015-.024-.021-.04-.062-.009a.658.658,0,0,0-.024.529,1.739,1.739,0,0,0,.29.418c.058.071.136.181.123.19s-.034-.018-.105-.092-.188-.2-.265-.29a2.225,2.225,0,0,1-.177-.28c-.011-.02-.026-.015-.036,0-.026.025-.067.084-.049.244a.771.771,0,0,0,.247.465c.1.113.209.208.194.223s-.124-.079-.2-.15-.256-.244-.3-.293-.1-.025-.095.168.219.388.308.5.2.171.191.193-.1-.034-.156-.074-.278-.18-.321-.211-.065.028-.009.211a.83.83,0,0,0,.311.4c.095.068.25.15.24.172s-.074-.006-.164-.049a1.717,1.717,0,0,0-.274-.1c-.077-.022-.076.033-.076.033a.4.4,0,0,0,.1.282.614.614,0,0,0,.367.2c.123.022.142.028.139.046s-.016.022-.044.022-.141.012-.246.012-.16.024-.16.07,0,.107.154.211a1.017,1.017,0,0,0,.406.134c.075.016.078.022.062.043s-.049.019-.166.031a.275.275,0,0,0-.2.089c-.016.03.009.122.105.186a.626.626,0,0,0,.4.073c.185-.012.231-.015.237.015s-.055.04-.148.056a.44.44,0,0,0-.215.058c-.054.042-.013.131.076.2a.823.823,0,0,0,.4.059c.093-.007.235-.041.244-.016s-.068.061-.164.095-.123.055-.141.1,0,.076.111.119a.553.553,0,0,0,.366,0c.087-.04.133-.055.148-.04s0,.031-.018.052a.426.426,0,0,1-.188.1c-.1.025-.105.025-.139.1s.052.138.225.144a1.145,1.145,0,0,0,.477-.1c.074-.043.1-.052.114-.037s.01.025-.027.052a.913.913,0,0,1-.213.125.085.085,0,0,0-.065.1c0,.04-.015.119.139.156a.622.622,0,0,0,.5-.107.409.409,0,0,0,.1-.1,1.244,1.244,0,0,1,.012-.362.648.648,0,0,1-.157-.038.3.3,0,0,1-.152-.168c-.022-.046-.052-.046-.089-.034a.3.3,0,0,1-.127.025.371.371,0,0,1-.243-.126.321.321,0,0,1-.068-.232c0-.046-.076-.012-.114-.012a.485.485,0,0,1-.243-.083.259.259,0,0,1-.108-.2.129.129,0,0,0-.08-.073.447.447,0,0,1-.149-.079.333.333,0,0,1-.095-.2c0-.036-.043-.04-.181-.11a.254.254,0,0,1-.121-.275c.006-.058.071-.107.071-.128s-.046-.028-.092-.056a.259.259,0,0,1-.167-.244c0-.171.111-.189.111-.189s-.021-.01-.067-.037-.173-.113-.173-.214a.191.191,0,0,1,.08-.171.531.531,0,0,1,.127-.049.224.224,0,0,1-.084-.116.217.217,0,0,1,.235-.318c.052,0,.1.027.116.012s.022-.027,0-.067a.287.287,0,0,1-.006-.171.19.19,0,0,1,.151-.144.414.414,0,0,1,.314.07c.043.025.025-.033.025-.076a1.407,1.407,0,0,0-.192-.3,3.425,3.425,0,0,1-.262-.465,3.127,3.127,0,0,1-.2-.608c-.015-.077-.045-.04-.045-.04s-.031.012-.1.189a1.148,1.148,0,0,0-.077.48"/><path class="cls-3" d="M17.987,20.063a.345.345,0,0,1-.261-.162c-.08-.114-.2-.142-.406-.138a.328.328,0,0,1-.353-.235c-.052-.142.008-.3.219-.406s.3-.217.313-.394-.21-.4-.429-.646a3.075,3.075,0,0,1-.388-.6.322.322,0,0,0-.064.165c0,.083.032.169,0,.193s-.044-.035-.171-.091-.231-.062-.31.028,0,.248.071.323.132.13.112.158-.127-.044-.162-.067a.347.347,0,0,0-.243-.1c-.123.012-.166.048-.179.15s.111.193.191.232.112.075.091.091-.039,0-.076-.012a.366.366,0,0,0-.2,0c-.063.024-.166.11-.071.217a.67.67,0,0,0,.334.153c.039.008.059,0,.063.028s-.084.031-.191.035a.142.142,0,0,0-.122.185c.016.079.194.165.293.181s.135,0,.143.028-.012.039-.067.055-.163.027-.184.114a.164.164,0,0,0,.06.2.328.328,0,0,0,.258.055c.04-.008.088-.052.127-.012s-.035.071-.1.118-.063.138.052.2a.361.361,0,0,0,.278.024c.047-.016.111-.091.142-.044s-.1.063-.155.13-.035.177.076.244A.374.374,0,0,0,17,20.456c.032-.027.071-.039.095-.015s-.012.086-.036.142a.2.2,0,0,0,.1.279.353.353,0,0,0,.345-.106.065.065,0,0,1,.079-.02c.024.012.012.036-.008.063a.166.166,0,0,0,.056.229.3.3,0,0,0,.218.044c.025-.093.057-.191.09-.329h-.025c-.016,0-.019.023-.019.033s0,.017-.01.017-.016.008-.036.022-.04.031-.051.024.043-.036.057-.054.043-.044.045-.063.011-.03.04-.053a.1.1,0,0,0,.021-.025c.019-.091.037-.2.055-.329a2.286,2.286,0,0,0,.02-.25Z"/><path class="cls-3" d="M14.594,17.609a1.786,1.786,0,0,0,.428.555,1.483,1.483,0,0,1-.047-.149.374.374,0,0,1,0-.129s-.063-.08-.178-.257a1.613,1.613,0,0,1-.178-.439,3.985,3.985,0,0,0,.192.4,2.145,2.145,0,0,0,.18.252s.034-.123.059-.129.042.012.062.039.039.025.039.025a1.394,1.394,0,0,0-.072-.129c-.021-.032-.049-.066-.07-.1a2.662,2.662,0,0,1-.282-.5c-.073-.2-.233-.69-.261-.835s-.055-.066-.083.041a1.23,1.23,0,0,0-.042.486,2.4,2.4,0,0,0,.257.863"/><path class="cls-3" d="M14.824,18.568c.066.048.163.114.163.114a.4.4,0,0,1-.024-.079.9.9,0,0,1-.015-.131l-.131-.114a1.748,1.748,0,0,1-.257-.273c-.136-.165-.027-.066.082.053s.321.29.321.29V18.39A.149.149,0,0,1,15,18.3c.02-.025.009-.028-.109-.118a3.387,3.387,0,0,1-.55-.635c-.124-.2-.26-.479-.26-.479a1.437,1.437,0,0,0,.184.855,1.7,1.7,0,0,0,.564.642"/><path class="cls-3" d="M16.138,21.135a.157.157,0,0,0,.1-.189s-.085.027-.162.056a1.686,1.686,0,0,1-.343.085c-.075,0-.075-.008-.078-.02s.058,0,.167-.019a1.36,1.36,0,0,0,.331-.141c.033-.022.029-.026-.019-.031a.212.212,0,0,1-.109-.041c-.018-.015-.069.007-.193.035a3.024,3.024,0,0,1-.577.073,2.369,2.369,0,0,1-.412-.04c-.031-.007-.064.011.031.169a.872.872,0,0,0,.662.242,1.76,1.76,0,0,0,.6-.179"/><path class="cls-3" d="M15.52,20.809a.551.551,0,0,0,.329-.068s0-.012-.033-.061a.247.247,0,0,1-.026-.13s-.056.01-.156.024a1.078,1.078,0,0,1-.343.006c-.128-.022-.074-.036.028-.024a1.129,1.129,0,0,0,.359-.047c.064-.022.037-.042-.006-.056a1.237,1.237,0,0,1-.158-.087,2.776,2.776,0,0,1-.56.006,3.141,3.141,0,0,1-.5-.107c-.055-.008-.052.014-.052.014s-.014.025.079.17a.773.773,0,0,0,.43.284,2.323,2.323,0,0,0,.606.076"/><path class="cls-3" d="M15.459,20.253a.238.238,0,0,1-.024-.062.091.091,0,0,1,.026-.085,1.815,1.815,0,0,0-.234-.038,1.792,1.792,0,0,1-.3-.061c-.11-.024-.184-.056-.181-.068s.037.006.1.03a4.444,4.444,0,0,0,.454.069.59.59,0,0,0,.2.016.465.465,0,0,1,.091-.03,1.087,1.087,0,0,0-.11-.024.418.418,0,0,1-.148-.059c-.032-.022-.043-.028-.189-.044a2.33,2.33,0,0,1-.526-.157,2.275,2.275,0,0,1-.512-.25c-.053-.043-.049-.013-.034.042a.488.488,0,0,0,.144.276.958.958,0,0,0,.53.34,2.076,2.076,0,0,0,.707.105"/><path class="cls-3" d="M14.473,19.449a1.905,1.905,0,0,0,.714.291c.016-.019-.018-.088,0-.13s.051-.05.122-.054.024-.018.008-.018a.722.722,0,0,1-.138-.032,3.273,3.273,0,0,1-.4-.109c-.163-.061-.212-.1-.208-.117a2.216,2.216,0,0,1,.225.095,2.756,2.756,0,0,0,.421.1c.1.021.012-.02-.033-.046a.525.525,0,0,1-.107-.123,2.6,2.6,0,0,1-.278-.07,2.253,2.253,0,0,1-.461-.192,1.7,1.7,0,0,1-.15-.1c-.1-.07-.2-.142-.236-.17-.059-.042-.041-.008-.035.019a.971.971,0,0,0,.14.279,1.238,1.238,0,0,0,.418.379"/><path class="cls-3" d="M14.424,18.871a1.936,1.936,0,0,0,.584.316c.043.019.038-.006.03-.029a.773.773,0,0,1-.014-.1l-.22-.124c-.115-.067-.243-.158-.329-.216s-.034-.054-.008-.032.145.09.263.163.3.177.3.177a.111.111,0,0,1,.027-.062c.025-.025.086-.018.086-.018a.374.374,0,0,1-.049-.059.979.979,0,0,0-.221-.109,2.615,2.615,0,0,1-.443-.31,5.85,5.85,0,0,1-.437-.441c-.018-.024-.031-.02-.032.01a.435.435,0,0,0,.017.187,1.273,1.273,0,0,0,.449.651"/><path class="cls-3" d="M15.453,16.718a1.688,1.688,0,0,0,.1.163c.039.067.061.11.061.11a.16.16,0,0,0,0-.064.472.472,0,0,1,0-.161.654.654,0,0,0,.012-.1.487.487,0,0,0-.02-.088c-.009-.038-.052-.206-.071-.324a2.61,2.61,0,0,1-.041-.438c0-.149.024-.074.024,0a2.763,2.763,0,0,0,.03.354,3.943,3.943,0,0,0,.1.431.413.413,0,0,1,.026-.1c.022-.057.058-.122.085-.193s.019-.082.019-.082-.1-.484-.129-.712-.07-.829-.07-.829a1.612,1.612,0,0,0-.28.91,3.315,3.315,0,0,0,.044.641,1.612,1.612,0,0,0,.117.482"/><path class="cls-3" d="M15.122,17.481c.005-.11.03-.193.1-.216A1.715,1.715,0,0,1,15.106,17a1.932,1.932,0,0,1-.086-.349c-.038-.259-.07-.526.008-.088a1.955,1.955,0,0,0,.172.591l.113.182a.747.747,0,0,1-.015-.223,1.454,1.454,0,0,1,.042-.3,3.379,3.379,0,0,1-.222-.6,3.769,3.769,0,0,1-.137-.8c-.007-.17-.011-.235-.011-.235s-.14.1-.187.634a3.119,3.119,0,0,0,.163,1.23c.071.193.176.433.176.433"/><path class="cls-3" d="M16.653,21.522s-.021-.015-.088-.057-.046-.167-.046-.167l-.067.046a.86.86,0,0,1-.171.1c-.065.027-.1.044-.141.058s-.031-.005,0-.025a.835.835,0,0,1,.136-.065,1.5,1.5,0,0,0,.265-.189s-.042-.005-.115-.007a.6.6,0,0,1-.166-.039,1.539,1.539,0,0,1-.368.191,2.326,2.326,0,0,1-.544.158.289.289,0,0,0,.173.2.9.9,0,0,0,.6.006,2,2,0,0,0,.533-.206"/><path class="cls-3" d="M17.041,21.821A.267.267,0,0,0,17,21.612a.478.478,0,0,0-.061.048.891.891,0,0,1-.232.176c-.124.061-.168.057-.049-.007a1.661,1.661,0,0,0,.294-.244l-.046-.017c-.046-.018-.126.013-.458.21a1.256,1.256,0,0,1-.526.205.685.685,0,0,0,.55.164c.4-.013.549-.2.574-.326"/><path class="cls-3" d="M17.8,21.678a.466.466,0,0,1-.1.1.791.791,0,0,1-.219.063.282.282,0,0,1-.038.058.981.981,0,0,1-.17.184.339.339,0,0,1-.188.07c-.007-.013.064-.039.133-.081a.93.93,0,0,0,.177-.171c.046-.053-.02-.044-.02-.044s-.084,0-.161,0-.063,0-.085.038a1.1,1.1,0,0,1-.11.136c-.07.08-.137.153-.2.233-.044.052-.011.067-.011.067s.02.033.2.053a.562.562,0,0,0,.356-.074A1.037,1.037,0,0,0,17.6,22.1a.635.635,0,0,0,.2-.423"/><path class="cls-3" d="M17.9,22.158c-.044.057-.068.082-.068.082a.889.889,0,0,1,.058-.139c.014-.023.029-.045.04-.061a1.134,1.134,0,0,1-.072-.213,1.719,1.719,0,0,1-.157.369c-.092.147-.175.2-.122.239a.276.276,0,0,0,.275-.009.3.3,0,0,0,.162-.229c-.02-.03-.038-.062-.056-.095a.255.255,0,0,0-.06.056"/><path class="cls-3" d="M24.634,18.97a.838.838,0,0,0,.311-.4c.055-.183.034-.241-.01-.211s-.261.172-.32.211-.148.1-.157.074.1-.086.191-.193.3-.3.308-.5-.056-.217-.1-.168-.221.223-.3.293-.182.166-.2.15.089-.11.194-.223a.765.765,0,0,0,.246-.465c.018-.16-.022-.219-.048-.244-.011-.01-.025-.016-.037.005a2.013,2.013,0,0,1-.177.279c-.077.092-.193.217-.265.29s-.092.1-.1.092.064-.119.123-.19a1.772,1.772,0,0,0,.289-.418.658.658,0,0,0-.024-.529c-.04-.03-.046-.015-.062.009a4.063,4.063,0,0,1-.213.407c-.08.113-.175.263-.225.327s-.086.138-.1.128.009-.067.1-.211a1.659,1.659,0,0,0,.252-.553,1.132,1.132,0,0,0-.077-.48c-.07-.177-.1-.189-.1-.189s-.031-.037-.046.04a3.036,3.036,0,0,1-.2.608,3.321,3.321,0,0,1-.262.465,1.385,1.385,0,0,0-.191.3c0,.043-.019.1.025.076a.411.411,0,0,1,.314-.07.193.193,0,0,1,.151.144.3.3,0,0,1-.006.171c-.019.04-.015.052,0,.067s.065-.012.118-.012a.216.216,0,0,1,.234.318.22.22,0,0,1-.083.116.529.529,0,0,1,.126.049.191.191,0,0,1,.08.171c0,.1-.126.186-.172.214s-.068.037-.068.037.114.018.11.189a.26.26,0,0,1-.166.245c-.046.027-.092.033-.092.055s.065.07.071.128a.254.254,0,0,1-.12.275c-.139.07-.179.074-.183.11a.316.316,0,0,1-.095.2.434.434,0,0,1-.147.079.126.126,0,0,0-.08.073.264.264,0,0,1-.109.2.488.488,0,0,1-.244.083c-.036,0-.11-.034-.113.012a.321.321,0,0,1-.068.232.364.364,0,0,1-.244.126.3.3,0,0,1-.126-.025.062.062,0,0,0-.089.034.3.3,0,0,1-.151.168.643.643,0,0,1-.158.038,1.28,1.28,0,0,1,.012.362.383.383,0,0,0,.1.1.625.625,0,0,0,.5.107c.155-.037.139-.116.139-.156a.085.085,0,0,0-.065-.1.951.951,0,0,1-.213-.126c-.036-.027-.04-.037-.027-.052s.04-.006.113.037a1.156,1.156,0,0,0,.479.1c.171-.006.259-.067.224-.144s-.043-.076-.139-.1a.411.411,0,0,1-.187-.1c-.019-.021-.034-.036-.019-.052s.062,0,.148.04a.556.556,0,0,0,.367,0c.114-.043.129-.08.111-.119s-.046-.062-.142-.1-.173-.071-.163-.095.15.009.243.016a.8.8,0,0,0,.4-.059c.09-.064.13-.153.078-.2a.451.451,0,0,0-.216-.058c-.093-.015-.154-.025-.148-.056s.053-.027.238-.015a.623.623,0,0,0,.4-.073c.095-.064.12-.156.105-.186a.272.272,0,0,0-.2-.089c-.118-.012-.152-.009-.167-.031s-.012-.027.062-.043a1.025,1.025,0,0,0,.407-.134c.156-.1.154-.165.154-.211s-.055-.07-.16-.07-.219-.012-.247-.012-.041,0-.043-.022.015-.024.139-.046a.612.612,0,0,0,.366-.2.394.394,0,0,0,.1-.282s0-.055-.077-.033a1.8,1.8,0,0,0-.275.1c-.089.043-.153.07-.162.049s.145-.1.24-.171"/><path class="cls-3" d="M24.234,18.551a.369.369,0,0,0-.2,0c-.035.012-.055.028-.075.012s.012-.051.091-.091.2-.13.191-.232-.056-.138-.179-.15a.342.342,0,0,0-.242.1c-.036.023-.142.094-.163.067s.04-.083.111-.158.152-.232.071-.323-.182-.083-.309-.027-.139.114-.171.09,0-.11,0-.193a.325.325,0,0,0-.063-.165,3.161,3.161,0,0,1-.389.6c-.218.248-.436.469-.428.646s.1.291.313.394.27.264.219.406a.329.329,0,0,1-.354.235c-.207,0-.326.024-.405.138a.345.345,0,0,1-.262.162l-.052,0c0,.078.009.162.021.25.016.13.035.238.055.329a.1.1,0,0,0,.021.025c.029.023.038.034.039.053s.031.046.046.063.067.046.056.054-.03-.01-.05-.024-.022-.022-.038-.022-.008-.008-.008-.017,0-.033-.02-.033h-.024c.032.138.065.236.09.329a.3.3,0,0,0,.218-.044A.166.166,0,0,0,22.4,20.8c-.02-.027-.031-.051-.008-.063a.066.066,0,0,1,.08.02.351.351,0,0,0,.345.106.2.2,0,0,0,.1-.279c-.024-.056-.059-.119-.035-.142s.063-.012.095.015a.373.373,0,0,0,.326.008c.111-.067.13-.177.074-.244s-.186-.083-.154-.13.095.028.143.044a.361.361,0,0,0,.278-.024c.115-.063.118-.153.051-.2s-.143-.078-.1-.118.088,0,.127.012a.326.326,0,0,0,.258-.055.161.161,0,0,0,.059-.2c-.019-.087-.127-.1-.182-.114s-.076-.028-.068-.055.044-.012.144-.028.277-.1.293-.181a.142.142,0,0,0-.123-.185c-.107,0-.194,0-.191-.035s.024-.02.064-.028a.673.673,0,0,0,.334-.153c.095-.107-.008-.193-.072-.217"/><path class="cls-3" d="M24.957,18.164a1.81,1.81,0,0,0,.427-.555,2.423,2.423,0,0,0,.257-.863,1.273,1.273,0,0,0-.041-.486c-.028-.107-.057-.186-.084-.041s-.188.638-.261.835a2.662,2.662,0,0,1-.282.5c-.02.033-.049.067-.069.1-.044.07-.073.129-.073.129s.018,0,.038-.025.04-.046.064-.039.058.129.058.129a2.374,2.374,0,0,0,.181-.252,4.133,4.133,0,0,0,.191-.4,1.631,1.631,0,0,1-.177.439c-.116.177-.179.257-.179.257a.389.389,0,0,1,0,.129c-.015.061-.047.149-.047.149"/><path class="cls-3" d="M25.9,17.071s-.135.276-.261.479a3.35,3.35,0,0,1-.549.635c-.119.09-.128.093-.109.118a.149.149,0,0,1,.032.087v.038a4.227,4.227,0,0,0,.32-.29c.11-.119.218-.218.083-.053a1.854,1.854,0,0,1-.257.273l-.132.114a1.011,1.011,0,0,1-.014.131.561.561,0,0,1-.025.079s.1-.066.164-.114a1.693,1.693,0,0,0,.563-.642,1.428,1.428,0,0,0,.184-.855"/><path class="cls-3" d="M24.686,15.6a1.594,1.594,0,0,0-.28-.91s-.043.6-.069.829-.129.712-.129.712-.01.012.018.082.064.136.085.193a.456.456,0,0,1,.027.1,4.04,4.04,0,0,0,.1-.431,2.818,2.818,0,0,0,.031-.354c0-.073.022-.148.023,0a2.726,2.726,0,0,1-.04.438c-.021.118-.062.286-.071.324a.361.361,0,0,0-.02.088.422.422,0,0,0,.012.1.525.525,0,0,1,0,.161.147.147,0,0,0,0,.064s.022-.044.061-.11c.026-.044.062-.095.095-.163a1.631,1.631,0,0,0,.118-.482,3.422,3.422,0,0,0,.043-.641"/><path class="cls-3" d="M25.032,17.048a3.134,3.134,0,0,0,.164-1.23c-.047-.53-.188-.634-.188-.634L25,15.419a3.705,3.705,0,0,1-.137.8,3.474,3.474,0,0,1-.222.6,1.388,1.388,0,0,1,.042.3.781.781,0,0,1-.015.223l.113-.182a1.9,1.9,0,0,0,.171-.591c.079-.438.048-.171.008.088a2.107,2.107,0,0,1-.084.349,1.77,1.77,0,0,1-.118.267c.071.023.1.107.1.216,0,0,.106-.24.176-.433"/><path class="cls-3" d="M25.135,20.9a2.352,2.352,0,0,1-.411.04,3.047,3.047,0,0,1-.578-.073c-.124-.029-.175-.05-.193-.035a.2.2,0,0,1-.108.041c-.049,0-.053.009-.02.031a1.37,1.37,0,0,0,.332.141c.109.019.168.009.166.019s0,.022-.077.02A1.67,1.67,0,0,1,23.9,21c-.078-.029-.162-.058-.162-.056a.157.157,0,0,0,.1.189,1.731,1.731,0,0,0,.6.178.865.865,0,0,0,.661-.241c.1-.158.062-.176.031-.169"/><path class="cls-3" d="M25.521,20.265a3.117,3.117,0,0,1-.5.107,2.691,2.691,0,0,1-.56-.006,1.346,1.346,0,0,1-.159.087c-.042.014-.069.034-.006.056a1.135,1.135,0,0,0,.36.047c.1-.012.156,0,.028.024a1.077,1.077,0,0,1-.343-.006c-.1-.014-.157-.024-.157-.024a.242.242,0,0,1-.027.13c-.032.049-.032.061-.032.061a.553.553,0,0,0,.33.069,2.36,2.36,0,0,0,.605-.077.779.779,0,0,0,.431-.284c.093-.145.079-.169.079-.169s0-.023-.053-.015"/><path class="cls-3" d="M25.866,19.49a2.251,2.251,0,0,1-.512.25,2.34,2.34,0,0,1-.525.157c-.147.016-.157.022-.19.044a.4.4,0,0,1-.148.059,1.087,1.087,0,0,0-.11.024.617.617,0,0,1,.092.03.584.584,0,0,0,.2-.016,4.557,4.557,0,0,0,.455-.069c.065-.024.1-.042.1-.03s-.071.044-.18.068a1.808,1.808,0,0,1-.3.061,1.815,1.815,0,0,0-.234.038.09.09,0,0,1,.027.085.208.208,0,0,1-.025.062,2.09,2.09,0,0,0,.707-.1.979.979,0,0,0,.531-.341.5.5,0,0,0,.144-.276c.014-.054.018-.085-.035-.042"/><path class="cls-3" d="M26.029,18.772c-.039.028-.138.1-.237.17a1.707,1.707,0,0,1-.149.1,2.333,2.333,0,0,1-.461.191,2.578,2.578,0,0,1-.279.07.525.525,0,0,1-.107.123c-.045.027-.128.067-.033.047a2.714,2.714,0,0,0,.42-.1c.151-.056.222-.107.226-.095s-.044.056-.207.117a3.145,3.145,0,0,1-.4.109.742.742,0,0,1-.138.032c-.017,0-.063.014.008.018s.1,0,.122.054-.019.111,0,.13a1.9,1.9,0,0,0,.712-.29,1.224,1.224,0,0,0,.419-.379.928.928,0,0,0,.14-.28c.006-.027.025-.061-.034-.019"/><path class="cls-3" d="M24.924,18.96a.116.116,0,0,1,.028.062s.179-.1.3-.177.237-.141.263-.163.077-.026-.008.032-.214.149-.329.215-.22.125-.22.125a.743.743,0,0,1-.014.1c-.008.024-.012.049.031.03a1.95,1.95,0,0,0,.582-.316A1.254,1.254,0,0,0,26,18.22a.438.438,0,0,0,.019-.187c0-.03-.014-.034-.033-.01a5.989,5.989,0,0,1-.436.441,2.7,2.7,0,0,1-.443.31,1.02,1.02,0,0,0-.222.109.374.374,0,0,1-.049.059s.062-.007.086.018"/><path class="cls-3" d="M23.714,21.173a.609.609,0,0,1-.165.04c-.074,0-.116.006-.116.006a1.476,1.476,0,0,0,.266.189.809.809,0,0,1,.135.065c.035.02.046.038,0,.025s-.076-.031-.143-.057a.927.927,0,0,1-.169-.1L23.46,21.3s.019.125-.046.167l-.089.057a2,2,0,0,0,.533.206.9.9,0,0,0,.595-.006.289.289,0,0,0,.173-.2,2.34,2.34,0,0,1-.545-.158,1.54,1.54,0,0,1-.367-.191"/><path class="cls-3" d="M23.077,21.568l-.047.017a1.637,1.637,0,0,0,.295.244c.12.064.075.068-.049.007a.887.887,0,0,1-.232-.176.558.558,0,0,0-.06-.048.267.267,0,0,0-.046.209c.024.122.17.313.573.327a.689.689,0,0,0,.551-.165,1.261,1.261,0,0,1-.527-.2c-.332-.2-.411-.229-.458-.211"/><path class="cls-3" d="M22.962,22.027a1.008,1.008,0,0,1-.11-.136c-.023-.038-.008-.044-.085-.038s-.162,0-.162,0-.066-.009-.019.044a.875.875,0,0,0,.177.171c.068.042.139.068.132.081a.337.337,0,0,1-.187-.07.926.926,0,0,1-.171-.184.282.282,0,0,1-.038-.058.782.782,0,0,1-.219-.063.449.449,0,0,1-.1-.1.631.631,0,0,0,.2.423,1.1,1.1,0,0,0,.241.205.568.568,0,0,0,.357.074c.18-.02.2-.053.2-.053s.033-.015-.011-.067c-.066-.08-.133-.153-.2-.233"/><path class="cls-3" d="M22.123,21.827a1.134,1.134,0,0,1-.072.213c.012.016.027.038.041.061a.889.889,0,0,1,.058.139.943.943,0,0,1-.069-.082.237.237,0,0,0-.06-.056c-.017.033-.036.065-.055.095a.3.3,0,0,0,.162.229.274.274,0,0,0,.274.009c.053-.039-.029-.092-.121-.239a1.786,1.786,0,0,1-.158-.369"/><path class="cls-3" d="M22.105,16.214a.075.075,0,1,1-.082.075.079.079,0,0,1,.082-.075"/><path class="cls-3" d="M21.1,16.248a.648.648,0,0,0,.132.06.669.669,0,0,0,.452-.039,1.216,1.216,0,0,1,.392-.15c.082-.008.123.027.2.029a.052.052,0,0,0,.053-.023c.016-.032.007-.11-.106-.173a.607.607,0,0,0-.437-.015.906.906,0,0,0-.3.147c-.059.044-.131.112-.148.1s.034-.048.063-.076a.5.5,0,0,1,.041-.038.766.766,0,0,1-.489-.147.309.309,0,0,0,.148.327"/><path class="cls-3" d="M22.791,16.147a.444.444,0,0,0-.357.006,1.33,1.33,0,0,0-.2.091.184.184,0,0,1-.063.17.124.124,0,0,1-.187-.031.69.69,0,0,1-.029-.082,1.091,1.091,0,0,1-.306.1.868.868,0,0,1-.4-.01s-.108.1-.187.166a1.812,1.812,0,0,1-.164.116.073.073,0,0,0,.048.038c.038.012.05.019.024.06a1.979,1.979,0,0,1-.287.26,1.075,1.075,0,0,1-.2.1.225.225,0,0,0,.091.091c.054.022.063.056.041.094a3.218,3.218,0,0,1-.291.316.345.345,0,0,1-.173.092c-.035.009-.1.044-.029.122a.411.411,0,0,0,.4.06.846.846,0,0,0,.322-.239s-.035.276-.035.405a1.488,1.488,0,0,0,.038.351.53.53,0,0,0,.044.113.51.51,0,0,0,.187-.254,1.079,1.079,0,0,0,.094-.354c0-.057,0-.089.054-.06a.519.519,0,0,0,.108.053.158.158,0,0,0,.031,0,1.354,1.354,0,0,1-.031-.242.857.857,0,0,1,.078-.371c.044-.04.052.016.057.041a.186.186,0,0,0,.12.138.661.661,0,0,1,.183-.411c.023-.024.038-.056.118-.025a.559.559,0,0,0,.383.031c.117-.046.2-.165.175-.178a.562.562,0,0,1-.316.041c-.136-.045-.2-.089-.12-.17a2.99,2.99,0,0,1,.272-.22.546.546,0,0,1,.424-.172.219.219,0,0,1,.177.119c.012.016.072.063.072-.05a.354.354,0,0,0-.164-.314"/><path class="cls-3" d="M21.307,18.372a1.49,1.49,0,0,1-.077-.148.622.622,0,0,1-.033.1,1.021,1.021,0,0,1-.111.189s.065-.013.138-.036a.4.4,0,0,0,.123-.064s-.013-.006-.04-.045"/><path class="cls-3" d="M20.745,17.948a.7.7,0,0,1-.147.213c-.1.1-.177.087-.177.087a.565.565,0,0,0,.086-.055.694.694,0,0,0,.152-.206.693.693,0,0,1-.376.076s-.015.035-.039.1a1.285,1.285,0,0,1-.133.224c-.038.05-.009.057-.009.057a.932.932,0,0,0,.257.087,1.152,1.152,0,0,0,.453.029s-.009-.022-.049-.183a1.636,1.636,0,0,1-.018-.426"/><path class="cls-3" d="M17.871,16.214a.075.075,0,1,1-.082.075.078.078,0,0,1,.082-.075"/><path class="cls-3" d="M17.7,16.148c.076,0,.117-.037.2-.029a1.216,1.216,0,0,1,.392.15.669.669,0,0,0,.452.039.6.6,0,0,0,.132-.061.307.307,0,0,0,.148-.326.773.773,0,0,1-.489.148.357.357,0,0,1,.041.037c.029.028.08.061.063.076s-.088-.054-.148-.1a.906.906,0,0,0-.3-.147.612.612,0,0,0-.437.015c-.113.063-.122.141-.106.173a.052.052,0,0,0,.053.023"/><path class="cls-3" d="M19.826,17.729a.348.348,0,0,1-.173-.092,3.337,3.337,0,0,1-.291-.316c-.022-.038-.013-.073.041-.1a.226.226,0,0,0,.091-.091,1.04,1.04,0,0,1-.2-.1,2.039,2.039,0,0,1-.287-.26c-.026-.041-.014-.048.024-.06a.073.073,0,0,0,.048-.038,1.812,1.812,0,0,1-.164-.116c-.079-.063-.187-.166-.187-.166a.854.854,0,0,1-.4.009,1.072,1.072,0,0,1-.306-.1.69.69,0,0,1-.029.082.124.124,0,0,1-.187.03.182.182,0,0,1-.063-.169,1.33,1.33,0,0,0-.2-.091.442.442,0,0,0-.356-.006.353.353,0,0,0-.165.314c0,.113.06.066.073.05a.213.213,0,0,1,.177-.119.541.541,0,0,1,.423.172,2.99,2.99,0,0,1,.272.22c.079.081.016.125-.12.169a.565.565,0,0,1-.316-.04c-.027.012.059.132.175.178a.559.559,0,0,0,.383-.031c.08-.032.095,0,.118.025a.661.661,0,0,1,.183.411.184.184,0,0,0,.12-.138c0-.026.013-.081.057-.041a.856.856,0,0,1,.079.371,1.312,1.312,0,0,1-.032.241.227.227,0,0,0,.032,0,.519.519,0,0,0,.107-.053c.051-.029.054,0,.054.06a1.079,1.079,0,0,0,.094.354.51.51,0,0,0,.187.254.559.559,0,0,0,.045-.113,1.5,1.5,0,0,0,.037-.351c0-.129-.035-.405-.035-.405a.844.844,0,0,0,.323.239.412.412,0,0,0,.4-.06c.069-.079.006-.113-.029-.122"/><path class="cls-3" d="M18.746,18.224a1.49,1.49,0,0,1-.077.148.151.151,0,0,1-.039.045.383.383,0,0,0,.122.064c.073.023.138.036.138.036a1.021,1.021,0,0,1-.111-.189.8.8,0,0,1-.033-.1"/><path class="cls-3" d="M19.732,18.159c-.024-.061-.039-.1-.039-.1a.693.693,0,0,1-.376-.076.681.681,0,0,0,.152.205.555.555,0,0,0,.086.056s-.076.012-.177-.087a.7.7,0,0,1-.147-.213,1.629,1.629,0,0,1-.018.425c-.041.162-.049.183-.049.183a1.13,1.13,0,0,0,.453-.029.951.951,0,0,0,.257-.086s.029-.008-.009-.057a1.257,1.257,0,0,1-.133-.225"/><path class="cls-3" d="M18.894,24.089a.216.216,0,0,0,.191-.076,1.853,1.853,0,0,0,.1-.193l.058-.087a.725.725,0,0,1-.052.192.725.725,0,0,0-.04.311c.021.123.1.143.148.126a.366.366,0,0,0,.14-.149c.016-.026.026-.062.041-.091.032-.059.061-.157.075-.155.031.006.012.075,0,.122a2.018,2.018,0,0,0-.075.313c0,.083.008.233.091.24s.128-.067.175-.237.057-.223.078-.223.019.117.019.167a.843.843,0,0,0,.008.112.563.563,0,0,0,.066.224.1.1,0,0,0,.075.03.1.1,0,0,0,.074-.03.954.954,0,0,0,.073-.336c0-.05,0-.167.02-.167s.03.053.077.223.091.243.176.237.094-.157.09-.24a1.9,1.9,0,0,0-.074-.313c-.024-.093.01-.086.074.033.02.038.04.084.061.115a.291.291,0,0,0,.121.125c.047.016.127,0,.147-.127a1.893,1.893,0,0,0-.074-.476s.008.011.04.06a1.769,1.769,0,0,0,.1.194.217.217,0,0,0,.191.076c.051-.017.057-.11.021-.276s-.189-.26-.3-.393a1.45,1.45,0,0,1-.187-.371,1.244,1.244,0,0,0-.361.252c-.222.23-.27.287-.27.287s-.048-.057-.271-.287a1.265,1.265,0,0,0-.363-.254,1.9,1.9,0,0,1-.206.358c-.05.062-.118.109-.166.168a.552.552,0,0,0-.111.24c-.037.166-.031.259.02.276"/><path class="cls-3" d="M18.888,24.653l.1-.088s.047-.039.035.035a1.1,1.1,0,0,0-.021.293c.015.067.023.123.106.074a.509.509,0,0,0,.142-.119c.039-.041.081-.058.071.006a.947.947,0,0,0-.026.293c.014.131.079.15.164.039a1.531,1.531,0,0,0,.162-.268c.025-.054.076-.1.076,0,0,.219.051.537.294.622.243-.085.294-.4.294-.622,0-.1.051-.054.077,0a1.4,1.4,0,0,0,.161.268c.085.111.15.092.164-.039a.979.979,0,0,0-.026-.293c-.009-.064.031-.047.071-.006a.524.524,0,0,0,.142.119c.083.049.091-.007.107-.074a1.06,1.06,0,0,0-.022-.293c-.012-.074.036-.035.036-.035s.033.031.1.088a.278.278,0,0,0,.153.06.569.569,0,0,0-.054-.366c-.1-.137-.132-.181-.132-.181a.392.392,0,0,1-.1-.02.415.415,0,0,1-.083-.046v.127s.118.112.146.145.082.09,0,.035-.148-.109-.148-.109-.016.115-.049.144a.119.119,0,0,1-.1.026l-.019-.008-.006.045a1,1,0,0,1,.082.189c.01.055-.006.049-.039-.022a2.439,2.439,0,0,0-.128-.208c-.03-.049-.073-.082-.069-.02a.551.551,0,0,1-.044.217.239.239,0,0,1-.035.055s.045.158.051.187,0,.062-.024.025-.1-.193-.1-.193-.1,0-.123-.031a.637.637,0,0,1-.071-.133.837.837,0,0,1-.072.178.444.444,0,0,1-.11.086s0,.234-.01.275-.007.059-.025.059-.02-.018-.025-.059-.011-.275-.011-.275a.43.43,0,0,1-.108-.086.856.856,0,0,1-.073-.178.672.672,0,0,1-.07.133.277.277,0,0,1-.125.031s-.073.156-.1.193-.029,0-.023-.025.051-.187.051-.187a.321.321,0,0,1-.036-.055.552.552,0,0,1-.042-.217c0-.062-.04-.029-.07.02s-.094.138-.128.208-.049.077-.039.022a1.056,1.056,0,0,1,.083-.189l-.006-.045-.02.008a.119.119,0,0,1-.1-.026c-.033-.029-.048-.144-.048-.144s-.068.055-.149.109-.026,0,0-.035.145-.145.145-.145V24.1a.392.392,0,0,1-.082.046.4.4,0,0,1-.1.02s-.036.044-.133.181a.569.569,0,0,0-.054.366.283.283,0,0,0,.154-.06"/><path class="cls-3" d="M18.627,25.433c.058-.037.109-.077.24-.164a.541.541,0,0,0,.181-.182H19c-.025,0-.046-.035-.048-.07a1.224,1.224,0,0,1,.01-.189.38.38,0,0,0-.014-.149.8.8,0,0,1-.141.1c-.085.044-.121.023-.121.023l-.021-.085s-.037.077-.089.167a1.2,1.2,0,0,1-.3.266,1.326,1.326,0,0,1-.294.183c-.084.029-.035.067-.035.067a.582.582,0,0,0,.3.121.451.451,0,0,0,.376-.084"/><path class="cls-3" d="M19.379,25.35a.132.132,0,0,1-.138-.119,2.24,2.24,0,0,1,0-.26.478.478,0,0,0-.054.056.174.174,0,0,1-.095.042.408.408,0,0,1-.039.075.421.421,0,0,1-.139.148,2.224,2.224,0,0,0-.215.147,1.262,1.262,0,0,1-.2.14.322.322,0,0,0-.165.214c-.025.108,0,.142.08.136a.791.791,0,0,0,.232-.032,2.28,2.28,0,0,0,.477-.277.9.9,0,0,0,.248-.27"/><path class="cls-3" d="M19.76,25.475a.5.5,0,0,1-.079-.156l-.062-.246s-.019.052-.066.15a.223.223,0,0,1-.125.121.294.294,0,0,1-.071.125.948.948,0,0,1-.261.218.962.962,0,0,0-.3.235.231.231,0,0,0-.043.244c.033.044.079-.006.145-.038a3.3,3.3,0,0,0,.514-.2.793.793,0,0,0,.344-.452"/><path class="cls-3" d="M19.873,26.051a.977.977,0,0,0,.084-.364.75.75,0,0,1-.061-.046,1.012,1.012,0,0,1-.1-.131s-.042.089-.089.171a.625.625,0,0,1-.166.2,1.616,1.616,0,0,0-.285.27.437.437,0,0,0,.012.346c.036.064.089.043.143-.009s.071-.065.166-.147a1.675,1.675,0,0,0,.3-.29"/><path class="cls-3" d="M21.993,25.329a1.357,1.357,0,0,1-.3-.183,1.2,1.2,0,0,1-.294-.266c-.053-.09-.089-.167-.089-.167l-.021.085s-.035.021-.12-.023a.692.692,0,0,1-.142-.1.369.369,0,0,0-.013.149,1.369,1.369,0,0,1,.01.189c0,.035-.024.07-.049.07h-.047a.531.531,0,0,0,.18.182c.133.087.182.127.241.164a.45.45,0,0,0,.375.084.583.583,0,0,0,.3-.121s.048-.038-.034-.067"/><path class="cls-3" d="M21.473,25.579a1.311,1.311,0,0,1-.2-.14,2.224,2.224,0,0,0-.215-.147.412.412,0,0,1-.139-.148.339.339,0,0,1-.039-.075.174.174,0,0,1-.095-.042.478.478,0,0,0-.054-.056,2.24,2.24,0,0,1,0,.26.132.132,0,0,1-.137.119.909.909,0,0,0,.247.27,2.327,2.327,0,0,0,.476.277.8.8,0,0,0,.234.032c.084.006.1-.028.079-.136a.319.319,0,0,0-.165-.214"/><path class="cls-3" d="M20.884,25.687a.967.967,0,0,1-.262-.218.27.27,0,0,1-.069-.124.234.234,0,0,1-.127-.122c-.046-.1-.065-.15-.065-.15s-.041.164-.062.246a.479.479,0,0,1-.08.156.806.806,0,0,0,.345.453,3.414,3.414,0,0,0,.513.2c.067.033.113.083.146.038a.232.232,0,0,0-.042-.244.99.99,0,0,0-.3-.235"/><path class="cls-3" d="M20.442,25.881a.658.658,0,0,1-.167-.2c-.046-.082-.089-.171-.089-.171a.9.9,0,0,1-.1.131c-.036.029-.06.046-.06.046a.949.949,0,0,0,.083.364,1.739,1.739,0,0,0,.3.29c.095.082.113.095.167.147s.107.073.143.009a.441.441,0,0,0,.012-.346,1.616,1.616,0,0,0-.285-.27"/><path class="cls-3" d="M20.074,26.18a.852.852,0,0,1-.083-.108.852.852,0,0,1-.083.108,1.921,1.921,0,0,1-.208.185.725.725,0,0,0,.083.293.762.762,0,0,0,.208.227.762.762,0,0,0,.208-.227.725.725,0,0,0,.083-.293,2.026,2.026,0,0,1-.208-.185"/><path class="cls-7" d="M25.282,23.839A.206.206,0,0,1,25.2,23.8s-.025,0-.043.033a.374.374,0,0,1-.095.082s-.1.027-.118.1.036.1.086.088a.416.416,0,0,0,.223-.1.378.378,0,0,0,.071-.123c.012-.024.017-.032-.041-.046"/><path class="cls-7" d="M25.445,23.274a.672.672,0,0,0-.339-.45s-.075.259-.1.341-.021.079.042.1.267.06.308.07.111.047.086-.057"/><path class="cls-7" d="M24.5,23.127c.048.008.042-.011.058-.074l.1-.374a.941.941,0,0,0-.391.079.6.6,0,0,0-.262.248,1.049,1.049,0,0,0,.171.047c.123.027.277.066.324.074"/><path class="cls-7" d="M24.015,23.555a.886.886,0,0,1-.1-.022.944.944,0,0,0,.125.276.369.369,0,0,0,.322.15.313.313,0,0,0,.3-.153.5.5,0,0,1,.052-.12s-.29-.038-.408-.065-.215-.052-.289-.066"/><path class="cls-6" d="M21.7,20.089a1.3,1.3,0,0,1,.185-.834l-.5-.582a1.588,1.588,0,0,1-1.393-.027,1.59,1.59,0,0,1-1.394.027l-.5.582a1.3,1.3,0,0,1,.184.834,7.6,7.6,0,0,0-.193,1.431,1.407,1.407,0,0,0,.453.792,2.677,2.677,0,0,0,.743.4,2.139,2.139,0,0,1,.539.309,2.067,2.067,0,0,1,.17.146,1.771,1.771,0,0,1,.169-.146,2.18,2.18,0,0,1,.538-.309,2.663,2.663,0,0,0,.743-.4,1.408,1.408,0,0,0,.454-.792,7.6,7.6,0,0,0-.193-1.431"/><path class="cls-6" d="M20.677,17.581a.921.921,0,0,1-.253.164l0,.014a.492.492,0,0,0,.143-.052.807.807,0,0,0,.2-.167.051.051,0,0,0,0-.063.513.513,0,0,1-.081.1"/><path class="cls-6" d="M20.988,17.75c0,.05-.018.38-.018.38,0,.016-.006.116-.033.13.013,0,.039.007.047-.045s.072-.485.072-.485l-.037-.016s-.031-.013-.031.036"/><path class="cls-6" d="M21.55,16.91a.724.724,0,0,0-.151.1.366.366,0,0,1-.106.051c-.039.019-.025-.065,0-.132a.737.737,0,0,1,.159-.214c.059-.066,0-.045-.03-.018a1.2,1.2,0,0,0-.166.213,1.416,1.416,0,0,0-.116.39s.046-.027.091-.058.1-.059.182-.122a1.118,1.118,0,0,0,.182-.16c.046-.05-.011-.058-.043-.05"/><path class="cls-6" d="M19.3,17.581a.513.513,0,0,1-.081-.1.051.051,0,0,0,0,.063.807.807,0,0,0,.2.167.492.492,0,0,0,.143.052l0-.014a.921.921,0,0,1-.253-.164"/><path class="cls-6" d="M19.006,18.13s-.018-.33-.018-.38-.031-.036-.031-.036l-.037.016s.063.422.072.485.034.047.047.045c-.027-.014-.031-.114-.033-.13"/><path class="cls-6" d="M18.556,16.7c-.027-.027-.089-.048-.03.018a.737.737,0,0,1,.159.214c.023.067.037.151,0,.132a.366.366,0,0,1-.106-.051.751.751,0,0,0-.151-.1c-.032-.008-.089,0-.043.05a1.162,1.162,0,0,0,.182.16c.086.063.136.09.181.122s.092.058.092.058a1.38,1.38,0,0,0-.116-.39,1.2,1.2,0,0,0-.166-.213"/><path class="cls-6" d="M19.984,24.382c.008,0,.01-.019.011-.058s.007-.129.016-.183-.014-.051-.028-.048-.023.044-.023.068.007.161.007.189.009.03.017.032"/><path class="cls-6" d="M20.958,23.893c.038.077.046.067.03,0a.637.637,0,0,0-.077-.181.878.878,0,0,0-.129-.142.709.709,0,0,0,.06.1,1.936,1.936,0,0,1,.116.219"/><path class="cls-6" d="M20.59,23.958a.686.686,0,0,0,.1.187,1.234,1.234,0,0,0-.058-.21.312.312,0,0,0-.077-.144c-.008,0,.007.052.007.052s.012.064.027.115"/><path class="cls-6" d="M20.3,24.189c.017.037.038.081.046.074s-.02-.08-.025-.1a.428.428,0,0,0-.032-.118c-.024-.05-.035-.027-.035-.007a.969.969,0,0,0,.03.115l.016.037"/><path class="cls-6" d="M19.021,23.893a1.787,1.787,0,0,1,.116-.219.651.651,0,0,0,.059-.1.889.889,0,0,0-.128.142.637.637,0,0,0-.077.181c-.017.064-.008.074.03,0"/><path class="cls-6" d="M19.389,23.958c.015-.051.024-.084.024-.084s.014-.05.006-.053-.046.031-.073.114a1.06,1.06,0,0,0-.058.21.715.715,0,0,0,.1-.187"/><path class="cls-6" d="M19.679,24.189l.016-.037a.944.944,0,0,0,.031-.115c0-.02-.011-.043-.035.007a.4.4,0,0,0-.032.118c0,.021-.033.1-.025.1s.029-.037.045-.074"/><path class="cls-6" d="M18.779,25.065l-.04-.023a.82.82,0,0,1-.056.066c-.033.034-.07.048-.095.081a.367.367,0,0,1-.123.1c-.061.031-.084.041-.072.051s.052-.014.052-.014a.329.329,0,0,0,.089-.044.677.677,0,0,0,.136-.106,1.358,1.358,0,0,0,.109-.114"/><path class="cls-6" d="M19.092,25.433c.027-.029.056-.048.041-.064s-.035-.013-.06.008l-.13.118c-.033.029-.06.046-.093.071a1.405,1.405,0,0,1-.139.082c-.036.02,0,.022,0,.022a.435.435,0,0,1,.057-.023c.029-.01.112-.047.112-.047a.567.567,0,0,0,.078-.046,1.059,1.059,0,0,0,.137-.121"/><path class="cls-6" d="M19.454,25.681c.024-.046,0-.033-.04-.017s-.126.11-.177.144a.877.877,0,0,1-.135.07c-.042.021-.042.033-.041.042s.02.009.037,0,.078-.042.078-.042a.258.258,0,0,1,.048-.01c.023,0,.056-.027.109-.071s.1-.071.121-.118"/><path class="cls-6" d="M19.623,26.011a.654.654,0,0,0-.2.182c-.03.058-.049.1-.039.108s.041-.01.054-.033a.586.586,0,0,1,.043-.057,1.57,1.57,0,0,1,.151-.133.378.378,0,0,0,.122-.139.084.084,0,0,0,0-.065.586.586,0,0,1-.132.137"/><path class="cls-6" d="M21.516,25.292a.367.367,0,0,1-.125-.1c-.025-.033-.061-.047-.094-.081a.733.733,0,0,1-.057-.066l-.038.023a1.138,1.138,0,0,0,.108.114.715.715,0,0,0,.136.106.349.349,0,0,0,.089.044s.04.023.052.014-.012-.02-.071-.051"/><path class="cls-6" d="M21.269,25.648a1.53,1.53,0,0,1-.139-.082c-.033-.025-.06-.042-.094-.071l-.129-.118c-.025-.021-.045-.023-.06-.008s.013.035.041.064a1.069,1.069,0,0,0,.137.122.66.66,0,0,0,.077.045s.084.037.113.047a.339.339,0,0,1,.056.023s.033,0,0-.022"/><path class="cls-6" d="M20.878,25.878a.985.985,0,0,1-.136-.07,2.218,2.218,0,0,0-.176-.144c-.039-.015-.064-.029-.041.017a.437.437,0,0,0,.123.118c.051.044.084.069.108.071a.258.258,0,0,1,.048.01s.061.034.078.042.035.007.037,0,0-.021-.041-.042"/><path class="cls-6" d="M20.357,26.011a.586.586,0,0,1-.132-.137.09.09,0,0,0,0,.065.387.387,0,0,0,.122.139,1.57,1.57,0,0,1,.151.133.586.586,0,0,1,.043.057c.013.023.044.043.054.033s-.01-.05-.038-.108a.67.67,0,0,0-.2-.182"/><path class="cls-6" d="M19.96,26.413c0,.044,0,.156.029.156s.023-.112.028-.156.008-.15.008-.15h-.073s0,.1.008.15"/><path class="cls-7" d="M21.654,20.142a1.481,1.481,0,0,1,.145-.865l-.453-.5a1.731,1.731,0,0,1-1.356-.03,1.731,1.731,0,0,1-1.356.03l-.454.5a1.472,1.472,0,0,1,.145.865,8.124,8.124,0,0,0-.162,1.339c0,.022,0,.044.006.066h.414a.2.2,0,0,1,.069-.047.2.2,0,0,0,.06-.033s.009-.082.059-.1a.23.23,0,0,1,.091-.018.074.074,0,0,0,.06-.028.441.441,0,0,0,.118-.165.511.511,0,0,0,.045-.17.786.786,0,0,1,.021-.141s-.012-.026-.053-.011S19,20.809,19,20.768a.312.312,0,0,1,.021-.165l.033-.053-.018-.064s-.262.052-.307-.151-.056-.3-.062-.321-.013-.033-.049-.031-.108-.021-.162-.126-.056-.147-.04-.189.043-.026.052-.013.078.113.107.085.013-.028-.026-.107a.183.183,0,0,1-.022-.143.706.706,0,0,0-.014-.113.033.033,0,0,1,.049-.028.162.162,0,0,1,.056.041c.012.013.016.033.038.02s.009-.085.009-.109.028-.041.064-.022a.105.105,0,0,1,.052.083c0,.026,0,.05.015.05s.029-.039.03-.065.018-.065.042-.033a.171.171,0,0,1,.024.13c-.009.05.009.025-.009.111a.814.814,0,0,0-.024.192.443.443,0,0,0,.038.182c.033.081.058.174.12.176l.079,0a.541.541,0,0,1,.12-.161.485.485,0,0,1,.18-.041c.052-.006.073-.022.073-.035s-.016-.017-.08-.026-.116-.024-.118-.071.011-.089-.031-.092a.252.252,0,0,1-.181-.1.136.136,0,0,1-.024-.119c0-.037.052-.111.083-.042s.05.078.077.094.06.019.043-.028a.239.239,0,0,1-.024-.113.067.067,0,0,1,.057-.057c.029-.007.114-.033.157-.041s.046-.013.046-.013,0-.031.061-.048a.425.425,0,0,1,.136-.019.235.235,0,0,0,.127-.02.264.264,0,0,1,.133-.028.173.173,0,0,1,.088.032c.026.018.018.041.018.066s0,.036.041.036a.286.286,0,0,1,.105.013c.035.014.083.033.052.07s-.032.078-.052.076-.017.02-.026.032-.015.025.006.037.024.027.055.055.077.059.03.1a.5.5,0,0,1-.126.083s-.046.021.006.052.077.093.1.1.04.028.053.035.011.05.011.05a.326.326,0,0,1-.068.035.361.361,0,0,1-.117.032c-.038,0-.057,0-.042.035s.042.072.048.091.015.055.015.055a.651.651,0,0,0,.116.013,1.326,1.326,0,0,0,.2-.011.987.987,0,0,1,.271,0,1.086,1.086,0,0,1,.165.02c.03.011.06.026.06.026a1.737,1.737,0,0,0,.254-.021c.09-.02.112-.077.1-.107s-.012-.076-.169-.1-.22-.013-.345-.037-.32-.087-.355-.241a.22.22,0,0,1,.156-.25c.063-.03.2-.078.264-.1a.623.623,0,0,1,.3-.035c.122.018.192.05.24.022s.088-.007.08.037a.262.262,0,0,1-.2.174.836.836,0,0,1-.394.021c-.09-.024-.158-.058-.212-.039a.105.105,0,0,0-.057.167c.059.081.361.105.442.114s.381-.014.466.134a.246.246,0,0,1-.083.35,1.317,1.317,0,0,1-.263.072l-.076.01a.453.453,0,0,1,.035.111c0,.033,0,.094.032.118a.235.235,0,0,0,.153.034c.064-.006.141.037.145.094s.022.135.029.248a1.96,1.96,0,0,1,0,.206.4.4,0,0,1-.021.085c-.015.041-.093.2-.093.2h.44c0-.022.006-.044.007-.066a8.139,8.139,0,0,0-.163-1.339"/><path class="cls-8" d="M18.222,21.759a1.255,1.255,0,0,0,.535.654c.377.225.54.2.895.424s.333.267.338.267-.017-.039.338-.267.517-.2.893-.424a1.247,1.247,0,0,0,.536-.654Z"/><path class="cls-3" d="M18.53,19.872a.134.134,0,0,0,.132.049c.061-.006.077.038.087.086a1.155,1.155,0,0,0,.055.268c.045.105.194.112.194.112a.664.664,0,0,1,.045-.175c0-.01.024-.057-.03-.057s-.051-.021-.083-.072a1,1,0,0,1-.109-.272.714.714,0,0,1,.028-.261c.015-.047.018-.078,0-.087a.1.1,0,0,0-.051,0s.013.04,0,.047-.027-.021-.038-.051-.024-.025-.045-.023-.022.021-.006.042a.087.087,0,0,1,.006.059.569.569,0,0,0-.066-.042c-.019-.008-.064.008-.068.034a.175.175,0,0,0,.057.124.13.13,0,0,1,.028.135c-.013.031-.072.027-.085.013a.037.037,0,0,0-.056,0c-.017.018-.033.029.007.071"/><path class="cls-3" d="M18.506,19.761a.324.324,0,0,1-.032-.03l-.025-.034a.117.117,0,0,0,0,.036.093.093,0,0,0,.028.053Z"/><path class="cls-3" d="M18.6,19.468c.019-.009.034-.013.019-.034s-.028-.044-.043-.048a.053.053,0,0,0-.027,0,.318.318,0,0,1,.021.061c0,.023.011.031.03.023"/><path class="cls-3" d="M18.707,19.379c0,.019,0,.028.019.019a.036.036,0,0,0,.014-.048.09.09,0,0,0-.027-.03l-.013-.008a.488.488,0,0,1,.007.067"/><path class="cls-3" d="M18.867,19.4a.125.125,0,0,0-.008-.044.084.084,0,0,1-.01.04c-.011.015-.008.011,0,.024s.013,0,.016-.02"/><path class="cls-3" d="M19.116,20.476c.032.072.111-.041.184-.132s.069-.021.059.053a.341.341,0,0,0,.049.2c.029.05.053.022.065-.014a.68.68,0,0,1,.045-.146c.024-.036.048-.005.051.026a.349.349,0,0,0,.077.141c.036.041.053-.014.065-.064s.026-.127.036-.158.044-.005.044-.005l.072.069c.048.046.053-.026.057-.062s-.007-.115.008-.127.056.017.118.048.06-.029.053-.062a.337.337,0,0,0-.094-.153c-.051-.043-.058-.093-.041-.115s.077,0,.116-.007.057-.01.087-.014a.035.035,0,0,0,.028-.034.311.311,0,0,0-.062-.071.255.255,0,0,0-.116-.077.37.37,0,0,0-.121,0l-.007-.015c-.007-.014-.021-.014-.031,0a.374.374,0,0,1-.053.051c-.019.016-.031.026-.043.019s.009-.024.009-.024a.188.188,0,0,0,.051-.067c.024-.048.032-.094.012-.115s-.072,0-.1,0-.046.005-.048-.01.029-.007.065-.012.057-.047.07-.084.021-.031.043-.009.041.017.046,0a.458.458,0,0,1,.048-.086.1.1,0,0,0,.011-.119.092.092,0,0,0-.117-.007.124.124,0,0,0-.051.095c-.007.053-.021.024-.021.007s-.022-.043-.012-.065a.068.068,0,0,0,0-.045.067.067,0,0,0-.056-.055.394.394,0,0,0-.159.015.047.047,0,0,0-.041.055s-.038,0-.079.007a1,1,0,0,0-.128.03c-.038.01-.053.015-.053.034a.317.317,0,0,0,.007.051.133.133,0,0,1,.049.009c.017.01.007.026-.013.033s-.026.01-.026.034.009.029.029.029a.258.258,0,0,1,.108.021.087.087,0,0,1,.056.089c0,.024-.072.055-.106.055s-.044.007-.044.028.041.02.041.02.041,0,.121.012a.174.174,0,0,1,.127.057c.037.031.01.038-.007.048a.432.432,0,0,1-.07.041c-.026.009-.043.029-.067.033a.707.707,0,0,0-.2.045.3.3,0,0,0-.15.187s.014,0,.065-.031.114-.055.172-.091.057.017.028.067.027.041.044.027a.441.441,0,0,1,.094-.058c.055-.028.036.017.036.017a.312.312,0,0,0-.022.112c0,.079.079,0,.118-.045s.056,0,.026.057-.084.1-.115.1a.069.069,0,0,1-.058-.052c0-.019.01-.077-.009-.091s-.076,0-.117.026-.05,0-.059-.017.014-.029,0-.043-.031,0-.048.007-.055.029-.13.067-.07.06-.07.115.015.065.046.137"/><path class="cls-3" d="M19.839,19.278a.341.341,0,0,1,.044-.021.66.66,0,0,1,.069-.013c.032,0,.026-.023.019-.038s-.019-.021-.062-.021a.212.212,0,0,0-.094.031.414.414,0,0,1-.053.017s.006.007.021.029a.041.041,0,0,0,.056.016"/><path class="cls-3" d="M20.013,19.448a.092.092,0,0,0,.035-.009.644.644,0,0,1,.06-.026.078.078,0,0,0,.057-.047c.017-.034-.019-.034-.069-.047s-.073,0-.08.022a.194.194,0,0,1-.024.075c-.019.035,0,.032.021.032"/><path class="cls-3" d="M20,19.492c-.049,0-.1.072-.123.085s-.008.025-.008.025a.32.32,0,0,1,.02.058.526.526,0,0,1,.007.076.112.112,0,0,0,.035,0A.117.117,0,0,0,20,19.7a.179.179,0,0,1,.087-.034.275.275,0,0,0,.1-.037c.043-.022-.022-.061-.068-.1A.164.164,0,0,0,20,19.492"/><path class="cls-3" d="M19.354,19.657c.038,0,.055-.023.055-.044s-.019-.044-.068-.04c-.12.011-.236-.032-.257-.149a.137.137,0,0,0,.033.156.294.294,0,0,0,.237.077"/><path class="cls-3" d="M18.945,21.526a.052.052,0,0,0,.021.021h.184c.031-.008.031-.037.033-.057s.02-.09.046-.211a1.276,1.276,0,0,1,.087-.256c.017-.048-.019-.065-.031-.095a.885.885,0,0,1-.039-.112c0-.027-.049-.023-.072-.022s-.027.04-.031.076-.02.143-.038.234a.63.63,0,0,1-.152.242.119.119,0,0,1-.073.038.2.2,0,0,0-.085.013.1.1,0,0,0-.046.073c0,.027.042.042.042.042a.2.2,0,0,0,.047-.036.122.122,0,0,1,.071-.025c.029-.006.032,0,.022.019s-.008.018.014.056"/><path class="cls-3" d="M18.664,21.518a.057.057,0,0,0-.03.029h.12a.062.062,0,0,0-.012-.029c-.014-.019-.052-.01-.078,0"/><path class="cls-3" d="M18.827,21.514a.111.111,0,0,0-.041.033h.129a.032.032,0,0,0-.009-.04c-.03-.024-.059,0-.079.007"/><path class="cls-3" d="M19.948,21.461c-.014,0-.027.012-.047.026a.075.075,0,0,0-.03.053v.007h.056l0-.007c0-.016.006-.03.029-.05s0-.029-.012-.029"/><path class="cls-3" d="M20.056,21.519c0-.016-.007-.032-.019-.031s-.033.024-.05.036a.094.094,0,0,0-.022.023h.081a.063.063,0,0,0,.01-.028"/><path class="cls-3" d="M20.554,20.929c.04-.027.033-.035.035-.064s0-.039-.014-.05a.276.276,0,0,0-.128-.036.462.462,0,0,0-.2.039c-.039.026-.057.121-.057.17s.008.058.022.058.037-.036.037-.036.052.066.083.113.017.065,0,.1a.369.369,0,0,1-.105.15c-.041.02-.072,0-.12-.006a.107.107,0,0,0-.1.034.027.027,0,0,0,.016.049.067.067,0,0,1,.059.022c.013.016.005.053,0,.074h.24a.189.189,0,0,0,.079-.1.392.392,0,0,1,.089-.1c.025-.023.028-.039.028-.09a.22.22,0,0,0-.033-.116.206.206,0,0,1-.026-.116c.006-.029.057-.062.1-.09"/><path class="cls-3" d="M20.161,20.339c.024.038.012.046-.023.053a.415.415,0,0,1-.124.009c-.054,0-.053,0-.054.029a.227.227,0,0,1-.037.124.062.062,0,0,1-.094.009c-.024-.016-.038-.012-.046.018a.48.48,0,0,1-.051.094c-.025.045-.042.046-.06.041s-.034-.03-.051-.032-.047-.037-.074-.08-.04.005-.058.042-.035.063-.07.059-.073-.068-.092-.107-.032-.075-.061-.074-.079.064-.112.08-.042.011-.056-.01-.035.007-.054.056a.081.081,0,0,0,.028.1c.027.013.081-.026.116-.049a.12.12,0,0,1,.089-.018c.038,0,.035.06.051.149s.069.1.069.1.018.015.058-.053.045-.134.084-.134.041.009.08.062.071.093.093.053a.5.5,0,0,1,.068-.119c.025-.022.049-.027.022.011s-.039.08.016.064.266-.1.351-.117c0,0,.1-.016.214-.022s.143-.013.187-.013.047,0,.05-.034-.021-.024-.105-.024a1.178,1.178,0,0,0-.2.019c-.058.009-.085.008-.075-.007s.027-.025.095-.035a2.439,2.439,0,0,1,.275-.019c.072,0,.049.02.043.067a.774.774,0,0,0,.011.161.2.2,0,0,0,.044.12c.039.061.173.1.212.121s.033,0,.031-.037.03-.036.064-.017a.581.581,0,0,0,.131.046c.041.01.046.018.046.039s0,.066.009.109a.1.1,0,0,1-.014.082c-.019.027-.095.1-.095.1a.508.508,0,0,0-.106.018c-.074.019-.1.052-.1.082s.013.038.016.05a.2.2,0,0,1,0,.035h.016c.007-.01.016-.024.027-.038a.121.121,0,0,1,.131-.021.053.053,0,0,1,.025.059h.167c.022-.043.076-.146.09-.177a.255.255,0,0,0,.029-.119,1.891,1.891,0,0,0,0-.278c-.01-.012,0-.047,0-.106s0-.1-.11-.113a.247.247,0,0,1-.181-.094c-.038-.036-.029-.122-.059-.225s-.1-.12-.232-.145a1.083,1.083,0,0,0-.322-.019,2.017,2.017,0,0,1-.285.016c-.066-.006-.056.014-.032.052"/><path class="cls-3" d="M20.787,21.524a.089.089,0,0,0-.024.023h.113a.046.046,0,0,0-.011-.032c-.017-.02-.05-.009-.078.009"/><path class="cls-3" d="M20.988,21.516a.108.108,0,0,0-.037.031h.115v-.013c0-.018-.038-.037-.077-.018"/><path class="cls-3" d="M18.176,21.587c.007.035.015.071.025.106h3.577a.813.813,0,0,0,.025-.106Z"/><path class="cls-3" d="M20.587,19.894a2.759,2.759,0,0,0,.64.112c.169.034.156.161.105.228s-.288.075-.331.081a.374.374,0,0,1,.058.064l.1-.008a.511.511,0,0,0,.281-.094.171.171,0,0,0,0-.261.534.534,0,0,0-.327-.1c-.127-.014-.226-.024-.369-.047s-.212-.081-.212-.163.078-.126.133-.142a.372.372,0,0,1,.224-.009.684.684,0,0,0,.329.013.218.218,0,0,0,.192-.127.281.281,0,0,1-.1.011c-.079,0-.137-.033-.281-.035a.55.55,0,0,0-.264.073c-.068.023-.248.041-.3.157s.008.171.121.245"/><path class="cls-6" d="M19.646,19.294a.066.066,0,1,1-.067.065.066.066,0,0,1,.067-.065"/><path class="cls-6" d="M21.1,19.472a.863.863,0,0,0-.206.016.08.08,0,0,0,.051.016.643.643,0,0,1,.171.011.221.221,0,0,0,.15-.025s-.077-.01-.166-.018"/><path class="cls-3" d="M23.965,23.443c.072.017.662.129.711.139s.091.022.1.009a.168.168,0,0,1,.075-.041.073.073,0,0,0,.05-.071.878.878,0,0,0,.019-.1c.006-.049.033-.065.091,0a.384.384,0,0,1,.079.232c.012.085.147.106.2.115s.077-.009.107-.058a.613.613,0,0,0,.055-.21c.009-.062,0-.057-.063-.074s-.371-.084-.427-.1-.044-.049-.035-.087.129-.423.129-.423a.864.864,0,0,0-.352-.1s-.088.393-.105.453-.055.06-.119.049-.521-.117-.521-.117l-.035.084a.7.7,0,0,0-.053.238c0,.051.02.049.091.065"/><path class="cls-3" d="M25.53,23.8c-.061-.039-.106-.05-.138.024s-.033.181-.113.256a.434.434,0,0,1-.3.147c-.111-.008-.175-.034-.149-.16s.2-.165.235-.23a.145.145,0,0,0-.028-.191.187.187,0,0,0-.167-.045.364.364,0,0,0-.126.168.468.468,0,0,1-.13.23.559.559,0,0,1-.411.086.293.293,0,0,1-.256-.222,3.924,3.924,0,0,0-.15-.408.091.091,0,0,0-.13,0,.212.212,0,0,0-.076.163.223.223,0,0,0,.064.188.75.75,0,0,1,.153.23c.023.078.094.2-.006.2a.23.23,0,0,1-.221-.065c-.077-.073-.376-.275-.456-.341a1.287,1.287,0,0,0-.117-.085.781.781,0,0,1-.414-.152,2.887,2.887,0,0,1,.095.277.471.471,0,0,1,.013.118s.3.151.42.209.358.194.474.264.214.181.42.139.622-.168.756-.207a3.015,3.015,0,0,0,.644-.225c.137-.094.151-.089.175-.183a.149.149,0,0,0-.061-.186"/><path class="cls-3" d="M24.736,22.39c.023,0,.032-.006.1-.015s.044.057.032.083-.034.077-.062.125.009.056.028.064.049.01.105.026.047-.026.048-.047,0-.132.011-.171.043-.029.056-.021l.078.042c.029.015.042,0,.048-.018a.573.573,0,0,0,.032-.091c.013-.044-.015-.035-.042-.035H25.06c-.047,0-.017-.046-.017-.046l.059-.095c.026-.041.016-.047-.009-.055l-.13-.031c-.022-.006-.033,0-.033.012s0,.093,0,.124,0,.048-.042.049-.064-.021-.1-.055-.046-.022-.049-.008-.029.114-.035.141.009.026.032.023"/><path class="cls-3" d="M22.445,23.5c-.044-.046.069-.048.136-.048a.545.545,0,0,0,.212-.057c.035-.023.1-.034.17-.069s.027-.047-.047-.065-.273-.1-.273-.1-.1.052-.151.083a.591.591,0,0,1-.243.09.962.962,0,0,0-.159.025c-.006,0,.028.031.072.094s.064.1.12.2-.009.038-.056-.021c-.026-.033-.085-.112-.139-.168a.532.532,0,0,0-.087-.07l-.037.079V23.5c0,.026-.022.153-.029.2s.012.052.053.07a3.905,3.905,0,0,1,.343.2,1.512,1.512,0,0,1,.3.227,1.007,1.007,0,0,0,.008-.118.912.912,0,0,0-.051-.315.761.761,0,0,0-.143-.269"/><path class="cls-3" d="M21.936,23.2a.535.535,0,0,0,.144.023c.072,0,.1-.023.178-.023a.52.52,0,0,0,.247-.089c.121-.064.005-.046-.08-.039a1.313,1.313,0,0,1-.4-.061c-.1-.036-.026-.041,0-.034a1.267,1.267,0,0,0,.228.049.642.642,0,0,0,.359-.035c.1-.026-.024-.039-.024-.039a1.289,1.289,0,0,1-.517-.288.791.791,0,0,1-.19-.336,1.467,1.467,0,0,1-.223.21.594.594,0,0,0,.037.111.7.7,0,0,0,.11.148.517.517,0,0,1-.149-.09.473.473,0,0,1-.074-.113,2.453,2.453,0,0,1-.339.191l.047.04a.815.815,0,0,1,.149.189c.06.094.006.086-.048,0a.716.716,0,0,0-.215-.189l-.01,0-.04.019c-.073.032-.142.061-.208.088a1.329,1.329,0,0,1,.182.185c.038.056.118.107.146.146s.059.081.1.127.271.3.333.4.025-.025.01-.091-.039-.161-.06-.235.024-.044.031,0,.019.044.037.123.064.2.084.278.029.043.049,0a1,1,0,0,0,.065-.146,1.252,1.252,0,0,0,.026-.272.4.4,0,0,0-.067-.217c0-.021.033-.038.085-.028"/><path class="cls-3" d="M22.929,23.5a.785.785,0,0,1-.123.037l-.055.007a.223.223,0,0,0,.162.089h.279A1.973,1.973,0,0,1,23,23.51a.067.067,0,0,0-.074-.011"/><path class="cls-3" d="M24.957,23.38a.716.716,0,0,1-.011.107c-.008.027-.028.068,0,.079s.064.025.083.019.011-.044,0-.076a.288.288,0,0,0-.053-.1Z"/><path class="cls-3" d="M25.442,23.7a.07.07,0,0,0,.05.036c.016,0,.038,0,.038-.025a.157.157,0,0,0-.019-.1c-.024-.033-.038-.056-.052-.008s-.028.074-.017.1"/><path class="cls-3" d="M23.753,23.378c.014,0,.066.019.066.019a.767.767,0,0,1,.011-.128c.011-.052.033-.088.014-.088s-.03.017-.044.039-.053.027-.066.09,0,.065.019.068"/><path class="cls-6" d="M17.082,21.223a.394.394,0,0,1-.128.059s-.035,0-.035.011.04,0,.082-.007a.4.4,0,0,0,.121-.065c.02-.015.051-.034.042-.06s-.027.02-.082.062"/><path class="cls-6" d="M17.557,21.475c-.011.013-.1.081-.1.081a.352.352,0,0,1-.058.031.066.066,0,0,0-.038.028s0,.007.038,0a.775.775,0,0,0,.158-.1c.031-.027.045-.034.033-.045s-.018,0-.029.009"/><path class="cls-6" d="M15.628,18.079c.017.021.038.049.047.04s0-.019-.024-.045a.521.521,0,0,0-.037-.04.569.569,0,0,0-.051-.07c-.019-.018-.047-.028-.012.015s.06.08.077.1"/><path class="cls-6" d="M15.481,18.4c.021.019.04.036.063.06s.04.051.053.038-.034-.042-.055-.068a.328.328,0,0,0-.065-.064.421.421,0,0,0-.058-.038.815.815,0,0,0,.062.072"/><path class="cls-6" d="M15.536,18.911c.037.038.09.05.1.035s0-.028-.034-.043a1.17,1.17,0,0,1-.105-.064.544.544,0,0,1-.066-.053c-.017-.017-.037-.032-.043-.026s.05.066.067.075a.51.51,0,0,1,.084.076"/><path class="cls-6" d="M15.641,19.322c0-.015,0-.022-.027-.024l-.073-.007s-.058-.023-.063-.012.05.034.073.038a.229.229,0,0,1,.065.019c.013.007.025,0,.025-.014"/><path class="cls-6" d="M15.687,19.77c-.065,0-.121-.015-.124-.006s.03.025.063.036a.607.607,0,0,0,.135.017c.043,0,.05-.007.048-.028s-.057-.019-.122-.019"/><path class="cls-6" d="M16.2,20.258c-.01-.009-.033,0-.069.006a.586.586,0,0,1-.129.017c-.035,0-.11,0-.11,0s-.041,0-.041.009.055.007.135.017a.561.561,0,0,0,.172-.013c.039-.006.052-.023.042-.033"/><path class="cls-6" d="M16.405,20.607a.264.264,0,0,1-.1.019.881.881,0,0,0-.1.013s-.035,0-.029.018.018,0,.048,0,.053,0,.106,0a.678.678,0,0,0,.117-.021c.033-.006.069-.023.052-.044s-.052.006-.092.021"/><path class="cls-6" d="M16.814,20.871a1.216,1.216,0,0,1-.111.081.333.333,0,0,1-.052.03c-.033.017-.032.025-.026.035s.026-.014.046-.021a.857.857,0,0,0,.115-.076c.032-.027.073-.048.066-.067s-.015-.005-.038.018"/><path class="cls-6" d="M16.134,17.459a.656.656,0,0,0,.078.105c.07.088.033.006.015-.017s-.121-.167-.156-.207-.04-.02-.023,0,.086.114.086.114"/><path class="cls-6" d="M15.985,17.909c.01-.01-.012-.02-.053-.07l-.121-.152s-.022-.048-.03-.043a.235.235,0,0,0,.06.113c.033.032.076.095.1.122s.035.04.045.03"/><path class="cls-6" d="M16.181,18.75c0-.024-.08-.02-.117-.028l-.1-.021s-.076-.013-.078,0,.016.018.057.026.1.026.152.034.086.017.086-.008"/><path class="cls-6" d="M15.985,18.3a.719.719,0,0,0,.116.077c.027.015.05.038.066.02s-.013-.03-.058-.05a.344.344,0,0,1-.069-.038l-.048-.024c-.022-.013-.06-.028-.007.015"/><path class="cls-6" d="M16.441,18a.389.389,0,0,0-.06-.042s-.041-.038-.048-.025.045.049.07.072.071.088.094.075-.023-.053-.056-.08"/><path class="cls-6" d="M16.143,19.169l-.072.019c-.029.007-.031.021.021.021a.6.6,0,0,0,.124-.023c.052-.01.069-.015.061-.032s-.034-.011-.055-.006l-.079.021"/><path class="cls-6" d="M16.224,19.593c0,.01.036,0,.063-.009s.082-.038.114-.048.032-.015.032-.033-.033,0-.075.009a.371.371,0,0,0-.1.055s-.035.017-.038.026"/><path class="cls-6" d="M16.776,19.851c.038-.023.046-.04.032-.051s-.024-.01-.055.015-.09.066-.09.066-.03.012-.053.023-.052.03-.044.042.055,0,.08-.021.092-.051.13-.074"/><path class="cls-6" d="M17.035,20.192c.016-.013.062-.028.083-.044s.034-.06.017-.066-.027.019-.063.046-.16.108-.16.108l-.033.013c-.035.013-.019.023.01.019a.141.141,0,0,0,.082-.03c.034-.027.049-.033.064-.046"/><path class="cls-6" d="M17.421,20.516a.5.5,0,0,0,.1-.075c.023-.022.051-.048.034-.061s-.036,0-.063.028-.1.1-.1.1a.189.189,0,0,0-.047.032c-.038.03,0,.025.015.011a.158.158,0,0,1,.055-.034"/><path class="cls-6" d="M23.025,21.282a.385.385,0,0,1-.128-.059c-.055-.042-.073-.089-.082-.062s.021.045.042.06a.374.374,0,0,0,.12.065c.042.007.082.02.082.007s-.034-.011-.034-.011"/><path class="cls-6" d="M22.584,21.587a.37.37,0,0,1-.06-.031s-.091-.068-.1-.081-.017-.021-.028-.009,0,.018.033.045a.791.791,0,0,0,.158.1c.032.009.038,0,.038,0a.066.066,0,0,0-.038-.028"/><path class="cls-6" d="M24.351,18.079c.017-.02.04-.056.076-.1s.008-.033-.012-.015a.569.569,0,0,0-.051.07s-.013.013-.036.04-.034.036-.025.045.031-.019.048-.04"/><path class="cls-6" d="M24.381,18.5c.013.013.03-.013.054-.038a.856.856,0,0,1,.062-.06.882.882,0,0,0,.063-.072.445.445,0,0,0-.06.038.388.388,0,0,0-.064.064c-.021.026-.068.054-.055.068"/><path class="cls-6" d="M24.594,18.76c-.006-.006-.027.009-.044.026a.49.49,0,0,1-.067.053.925.925,0,0,1-.1.064c-.03.015-.041.027-.034.043s.061,0,.1-.035a.476.476,0,0,1,.083-.076c.018-.009.074-.07.068-.075"/><path class="cls-6" d="M24.436,19.29s-.042.006-.072.008-.026.009-.026.024.011.021.024.014a.24.24,0,0,1,.065-.019c.023,0,.076-.027.072-.038s-.063.011-.063.011"/><path class="cls-6" d="M24.291,19.77c-.065,0-.12,0-.121.019s0,.03.047.028a.632.632,0,0,0,.136-.017c.032-.011.066-.026.063-.036s-.06.006-.125.006"/><path class="cls-6" d="M24.091,20.278s-.074,0-.109,0a.6.6,0,0,1-.13-.017c-.036-.008-.06-.015-.068-.006s0,.027.041.033A.509.509,0,0,0,24,20.3c.081-.01.136-.007.136-.017s-.042-.009-.042-.009"/><path class="cls-6" d="M23.776,20.639a.907.907,0,0,0-.1-.013.267.267,0,0,1-.1-.019c-.04-.015-.074-.041-.092-.021s.02.038.052.044a.7.7,0,0,0,.116.021c.055,0,.077,0,.108,0s.042.017.047,0-.028-.018-.028-.018"/><path class="cls-6" d="M23.326,20.982a.438.438,0,0,1-.051-.03,1.1,1.1,0,0,1-.11-.081c-.024-.023-.032-.036-.039-.018s.034.04.067.067a.8.8,0,0,0,.115.076c.018.007.04.03.045.021s.008-.018-.027-.035"/><path class="cls-6" d="M23.767,17.564a.783.783,0,0,0,.078-.105l.085-.114c.018-.025.013-.045-.022,0s-.139.185-.156.207-.056.105.015.017"/><path class="cls-6" d="M24.2,17.644c-.007,0-.03.043-.03.043s-.08.1-.121.152-.062.06-.053.07.023,0,.046-.03.066-.09.1-.123.068-.107.06-.112"/><path class="cls-6" d="M23.8,18.75c0,.025.038.015.085.008s.11-.027.152-.034.059-.017.057-.026-.078,0-.078,0l-.1.021c-.035.008-.115,0-.115.028"/><path class="cls-6" d="M23.986,18.281l-.048.024a.351.351,0,0,1-.068.038c-.046.02-.073.032-.058.05s.037,0,.066-.02a.722.722,0,0,0,.115-.077c.053-.043.016-.028-.007-.015"/><path class="cls-6" d="M23.482,18.076c.022.013.068-.053.093-.075s.078-.06.071-.072-.048.025-.048.025a.424.424,0,0,0-.061.042c-.033.028-.078.067-.055.08"/><path class="cls-6" d="M23.762,19.186a.61.61,0,0,0,.125.023c.051,0,.049-.014.02-.021l-.072-.019-.078-.021c-.021,0-.048-.011-.056.006s.01.022.061.032"/><path class="cls-6" d="M23.717,19.567a.391.391,0,0,0-.1-.055c-.042-.013-.077-.028-.077-.009s0,.024.033.033.088.038.114.048.068.019.063.009-.037-.026-.037-.026"/><path class="cls-6" d="M23.368,19.9c-.022-.011-.053-.023-.053-.023s-.059-.041-.089-.066-.043-.026-.056-.015-.005.028.033.051.105.053.13.074.073.032.08.021-.022-.031-.045-.042"/><path class="cls-6" d="M23.1,20.249l-.033-.013s-.125-.082-.16-.108-.047-.051-.063-.046-.005.052.016.067.067.03.082.043.031.019.066.046a.136.136,0,0,0,.082.03c.028,0,.043-.006.01-.019"/><path class="cls-6" d="M22.627,20.539a.175.175,0,0,0-.048-.032s-.07-.074-.1-.1-.046-.041-.063-.028.012.039.035.061a.448.448,0,0,0,.1.075.149.149,0,0,1,.055.034c.014.014.054.019.015-.011"/><path class="cls-3" d="M19.988,15.954a2.333,2.333,0,0,1-.734-.093l-.178.039a2.884,2.884,0,0,0,1.824,0l-.179-.039a2.326,2.326,0,0,1-.733.093"/><path class="cls-3" d="M20.934,15.74a1.627,1.627,0,0,0-.17-.116c-.031-.016-.007-.057,0-.073a.736.736,0,0,1,.213-.074c.073-.019.061-.034.061-.034s-.042-.05-.31-.078-.738-.023-.738-.023-.471-.006-.738.023-.311.078-.311.078-.012.015.062.034a.748.748,0,0,1,.213.074c0,.016.029.057,0,.073a1.611,1.611,0,0,0-.169.116c-.021.017-.023.044.009.045a.366.366,0,0,0,.126-.017,4.53,4.53,0,0,1,1.62,0,.363.363,0,0,0,.125.017c.032,0,.031-.028.01-.045"/><polygon class="cls-3" points="18.965 15.506 18.848 15.599 18.993 15.662 19.148 15.552 18.965 15.506"/><polygon class="cls-3" points="21.01 15.506 20.827 15.552 20.982 15.662 21.127 15.599 21.01 15.506"/><path class="cls-3" d="M20.63,15.852a3.9,3.9,0,0,0-.641-.042,4.713,4.713,0,0,0-.64.042,1.876,1.876,0,0,0,.64.069,1.883,1.883,0,0,0,.641-.069"/><path class="cls-7" d="M20.248,21.121c-.023-.034-.029-.031-.054-.009s-.049-.053-.053-.1a1.491,1.491,0,0,1,.02-.189s-.123.025-.188.047-.128.027-.182.04a.287.287,0,0,1-.109.018.821.821,0,0,0-.134-.009c-.047,0-.044.009-.091.056a.383.383,0,0,0-.1.158.911.911,0,0,0-.062.272.806.806,0,0,1-.03.141h.56a.565.565,0,0,1,.023-.057.13.13,0,0,1,.068-.062c.021-.011.041-.011.05-.035a.132.132,0,0,1,.068-.058.221.221,0,0,1,.128.007c.047.013.063-.019.076-.036a.763.763,0,0,1,.044-.074.055.055,0,0,0,.006-.062.191.191,0,0,1-.043-.049"/><path class="cls-7" d="M21.147,21.136c-.008-.032,0-.036-.024-.041a.4.4,0,0,1-.079-.022c-.028-.011-.025.063-.025.063a.7.7,0,0,1-.141,0,.487.487,0,0,1-.194-.1.355.355,0,0,1-.065-.071.259.259,0,0,1-.047.035c-.023.013-.036.059-.041.106s.055.1.059.15a.391.391,0,0,1-.079.177.664.664,0,0,0-.057.113h.27a.131.131,0,0,1,.03-.045.137.137,0,0,1,.074-.033.115.115,0,0,1,.01-.037.174.174,0,0,1,.106-.079.539.539,0,0,1,.149-.031.285.285,0,0,0,.055-.063c.024-.036.006-.091,0-.123"/><polygon class="cls-3" points="19.933 13.356 20.072 13.345 20.06 13.223 20.21 13.244 20.217 13.124 20.058 13.139 20.086 13.01 19.911 13.008 19.943 13.139 19.789 13.124 19.789 13.244 19.941 13.227 19.933 13.356"/><path class="cls-3" d="M20.239,13.552H20.05v-.159a.333.333,0,0,0-.056-.005.263.263,0,0,0-.049,0v.16h-.194a.2.2,0,0,0-.01.064.132.132,0,0,0,0,.028h.5l0-.028a.231.231,0,0,0-.01-.064"/><path class="cls-7" d="M19.994,13.845a.255.255,0,0,0,.241-.156h-.481a.253.253,0,0,0,.24.156"/><path class="cls-7" d="M20.1,13.408v.109h.126a.247.247,0,0,0-.126-.109"/><path class="cls-7" d="M19.89,13.408a.242.242,0,0,0-.124.109h.124Z"/><path class="cls-6" d="M20.139,15.437c-.048-.022-.151-.066-.151-.066l-.152.075c-.054.027-.047.019-.063.057s0,.053.025.063l.193.1.208-.1c.04-.018.033-.037.021-.067s-.034-.039-.081-.062"/><path class="cls-6" d="M20.484,15.392a.142.142,0,1,1,0,.283.142.142,0,1,1,0-.283"/><path class="cls-6" d="M19.491,15.392a.142.142,0,1,1-.149.141.143.143,0,0,1,.149-.141"/><polygon class="cls-3" points="19.826 15.486 19.992 15.57 20.156 15.486 19.988 15.409 19.826 15.486"/><path class="cls-3" d="M20.484,15.419a.085.085,0,1,1-.089.084.087.087,0,0,1,.089-.084"/><path class="cls-3" d="M19.491,15.419a.085.085,0,1,1-.09.084.087.087,0,0,1,.09-.084"/><path class="cls-3" d="M19.181,15.047a.223.223,0,0,0,.088.008.11.11,0,0,0-.022-.1c-.036-.031-.068-.054-.09-.075a.35.35,0,0,1-.026-.029s0,.057,0,.092a.1.1,0,0,0,.053.1"/><path class="cls-3" d="M19.26,15.093a.027.027,0,0,1,.027.025.026.026,0,0,1-.027.026.027.027,0,0,1-.028-.026.028.028,0,0,1,.028-.025"/><path class="cls-3" d="M19.057,15.091a.521.521,0,0,1-.037.041.114.114,0,0,1,.056.019.125.125,0,0,0,.086.029.04.04,0,0,0,.035-.05c-.006-.02-.02-.039-.068-.058s-.061,0-.072.019"/><path class="cls-3" d="M19.161,15.262a.391.391,0,0,1-.216-.093.158.158,0,0,1-.141.14l.007,0a.611.611,0,0,0,.159.049.3.3,0,0,0,.115-.009.478.478,0,0,0,.138-.043c.056-.034.039-.123.039-.123s-.008.068-.1.075"/><path class="cls-3" d="M18.8,15.17a.616.616,0,0,0-.119-.042c-.024,0-.059-.008-.053.036s.051.065.1.067a.174.174,0,0,0,.093-.029c.026-.013.021-.018-.017-.032"/><path class="cls-3" d="M18.506,15.013a.237.237,0,0,0-.078-.037.216.216,0,0,0-.012.115.079.079,0,0,0,.087.054c.04,0,.1-.021.082-.051a.248.248,0,0,0-.079-.081"/><path class="cls-3" d="M18.545,15.191c.017,0,.033.01.033.022s-.016.024-.033.024-.032-.011-.032-.024.014-.022.032-.022"/><path class="cls-3" d="M18.634,14.86a.5.5,0,0,1,.095-.422.705.705,0,0,1,.318-.237.655.655,0,0,1,.07-.081,1.4,1.4,0,0,1,.2-.153s-.152.037-.238.065v.005a.1.1,0,0,1-.1.1.1.1,0,0,1-.06-.019,1.067,1.067,0,0,0-.244.135.1.1,0,0,1,.016.055.106.106,0,0,1-.1.106.1.1,0,0,1-.048-.012l-.013.022a1.055,1.055,0,0,0-.075.17.109.109,0,0,1,.045.091.1.1,0,0,1-.089.106.335.335,0,0,0,0,.068c0,.034.018.055.077.072s.143.122.143.122a.237.237,0,0,0,.017-.2"/><path class="cls-3" d="M19,14.082a.038.038,0,0,0,.008-.059.056.056,0,0,0-.071,0,.04.04,0,0,0-.009.061.059.059,0,0,0,.072,0"/><path class="cls-3" d="M18.614,14.343a.053.053,0,0,0,.01-.076.06.06,0,0,0-.08.006.051.051,0,0,0-.01.075.06.06,0,0,0,.08-.005"/><path class="cls-3" d="M18.382,14.612a.059.059,0,0,1,.06.059.059.059,0,0,1-.06.059.06.06,0,0,1-.06-.059.059.059,0,0,1,.06-.059"/><path class="cls-3" d="M19.681,13.844a.747.747,0,0,0-.175.07h0a.1.1,0,0,1,.107.087.117.117,0,0,1-.114.1.1.1,0,0,1-.1-.1.076.076,0,0,1,.008-.033c-.025.016-.053.033-.082.053a.793.793,0,0,0-.331.364.662.662,0,0,0-.088.479A.256.256,0,0,0,19.1,15a.07.07,0,0,1-.02-.038.3.3,0,0,1,.011-.074.512.512,0,0,0,0-.094.064.064,0,0,1,.054.019c.019.024.047.051.067.075a.691.691,0,0,0,.071.067.183.183,0,0,0,.029-.093c0-.051-.034-.107-.041-.2A.64.64,0,0,1,19.4,14.3a1.048,1.048,0,0,1,.3-.247.1.1,0,0,0,.061-.081c0-.022.006-.037.01-.09s-.044-.051-.094-.04"/><path class="cls-3" d="M19.491,14.046a.066.066,0,0,0,.065-.058.055.055,0,0,0-.061-.049.054.054,0,1,0,0,.107"/><path class="cls-3" d="M19.775,15.159a.14.14,0,0,0,.123-.008.05.05,0,0,0,0-.081.094.094,0,0,0-.1-.008c-.027.014-.087.057-.087.057a.119.119,0,0,0,.059.04"/><path class="cls-3" d="M19.923,15.211a.079.079,0,0,1-.08.043.188.188,0,0,1-.14-.034.367.367,0,0,1-.057-.08h-.058a.267.267,0,0,1-.045.1.16.16,0,0,1-.153,0c-.039-.028-.074-.064-.081-.059s0,.033.04.067a.174.174,0,0,0,.132.055h.367s.075,0,.1-.039.023-.073.013-.083-.017.007-.034.033"/><path class="cls-3" d="M19.365,15.149c.055.031.086.012.105-.013a.111.111,0,0,0,.024-.035.555.555,0,0,1-.077-.033c-.025-.015-.043-.029-.068-.026s-.029.007-.029.007a.1.1,0,0,0,.045.1"/><path class="cls-3" d="M20.073,15.07a.051.051,0,0,0,0,.081.14.14,0,0,0,.123.008.119.119,0,0,0,.059-.04s-.06-.042-.087-.057a.1.1,0,0,0-.1.008"/><path class="cls-3" d="M20.587,15.237a.162.162,0,0,1-.154,0,.267.267,0,0,1-.045-.1H20.33a.367.367,0,0,1-.057.08.188.188,0,0,1-.14.034.079.079,0,0,1-.08-.043c-.017-.026-.024-.044-.034-.033s-.009.039.013.083.1.039.1.039H20.5a.175.175,0,0,0,.132-.055c.04-.034.047-.063.04-.067s-.042.031-.08.059"/><path class="cls-3" d="M20.559,15.068a.555.555,0,0,1-.077.033.111.111,0,0,0,.024.035c.019.025.05.044.105.013a.1.1,0,0,0,.045-.1s0,0-.029-.007-.042.011-.068.026"/><path class="cls-3" d="M20.848,14.946c0-.035,0-.092,0-.092a.35.35,0,0,1-.026.029c-.022.021-.054.044-.09.075a.11.11,0,0,0-.022.1.223.223,0,0,0,.088-.008.1.1,0,0,0,.053-.1"/><path class="cls-3" d="M20.744,15.118a.027.027,0,0,0-.028-.025.026.026,0,0,0-.027.025.027.027,0,0,0,.027.026.028.028,0,0,0,.028-.026"/><path class="cls-3" d="M20.814,15.18a.126.126,0,0,0,.086-.029.114.114,0,0,1,.056-.019.521.521,0,0,1-.037-.041c-.011-.015-.024-.036-.072-.019s-.062.038-.068.058a.04.04,0,0,0,.035.05"/><path class="cls-3" d="M21.031,15.169a.391.391,0,0,1-.216.093c-.093-.007-.1-.075-.1-.075s-.017.089.039.123a.468.468,0,0,0,.138.043.3.3,0,0,0,.115.009.591.591,0,0,0,.159-.05l.007,0a.158.158,0,0,1-.141-.14"/><path class="cls-3" d="M21.3,15.128a.616.616,0,0,0-.119.042c-.038.014-.043.019-.017.032a.174.174,0,0,0,.093.029c.045,0,.09-.023.1-.067s-.029-.038-.053-.036"/><path class="cls-3" d="M21.47,15.013a.248.248,0,0,0-.079.081c-.016.03.042.05.082.051a.079.079,0,0,0,.087-.054.216.216,0,0,0-.012-.115.237.237,0,0,0-.078.037"/><path class="cls-3" d="M21.431,15.191c.018,0,.032.01.032.022s-.014.024-.032.024-.033-.011-.033-.024.016-.022.033-.022"/><path class="cls-3" d="M21.488,14.69a.109.109,0,0,1,.045-.091,1.055,1.055,0,0,0-.075-.17.253.253,0,0,0-.013-.022.1.1,0,0,1-.048.012.105.105,0,0,1-.088-.161,1.067,1.067,0,0,0-.244-.135.1.1,0,0,1-.06.019.1.1,0,0,1-.1-.1v-.005c-.086-.028-.238-.065-.238-.065a1.4,1.4,0,0,1,.2.153.836.836,0,0,1,.071.081.7.7,0,0,1,.317.237.5.5,0,0,1,.095.422.237.237,0,0,0,.017.2s.082-.105.143-.122.073-.038.077-.072a.436.436,0,0,0,0-.068.1.1,0,0,1-.089-.106"/><path class="cls-3" d="M20.972,14.082a.059.059,0,0,0,.072,0,.04.04,0,0,0-.009-.061.056.056,0,0,0-.071,0,.038.038,0,0,0,.008.059"/><path class="cls-3" d="M21.362,14.343a.06.06,0,0,0,.08.005.051.051,0,0,0-.01-.075.06.06,0,0,0-.08-.006.053.053,0,0,0,.01.076"/><path class="cls-3" d="M21.594,14.612a.059.059,0,0,1,.06.059.06.06,0,0,1-.06.059.059.059,0,0,1-.06-.059.059.059,0,0,1,.06-.059"/><path class="cls-3" d="M20.211,13.974a.1.1,0,0,0,.06.081,1.036,1.036,0,0,1,.3.247.64.64,0,0,1,.129.366c-.007.089-.041.145-.041.2a.179.179,0,0,0,.03.093.645.645,0,0,0,.07-.068c.02-.023.048-.05.067-.074a.067.067,0,0,1,.054-.019.5.5,0,0,0,0,.093.313.313,0,0,1,.011.075.077.077,0,0,1-.02.038s.153-.023.194-.136a.662.662,0,0,0-.088-.479.79.79,0,0,0-.332-.364c-.028-.02-.056-.037-.081-.053a.076.076,0,0,1,.008.033.1.1,0,0,1-.1.1.118.118,0,0,1-.115-.1.1.1,0,0,1,.108-.087h0a.747.747,0,0,0-.175-.07c-.05-.011-.1-.013-.094.04s.008.068.01.09"/><path class="cls-3" d="M19.988,14.845a.284.284,0,0,1-.033.082.093.093,0,0,0-.027.077.061.061,0,0,0,.12,0,.093.093,0,0,0-.027-.077.284.284,0,0,1-.033-.082"/><path class="cls-3" d="M19.989,15.082a.03.03,0,0,1,.031.031.03.03,0,0,1-.031.03.031.031,0,0,1-.031-.03.031.031,0,0,1,.031-.031"/><path class="cls-3" d="M19.878,14.954a.71.71,0,0,0,.074-.1c.02-.038.036-.071.036-.071s.016.033.036.071a.71.71,0,0,0,.074.1.3.3,0,0,0,.119-.184,1.125,1.125,0,0,0-.03-.46c-.019-.164-.035-.446-.035-.446a.31.31,0,0,1-.328,0s-.016.282-.036.446a1.123,1.123,0,0,0-.029.46.3.3,0,0,0,.119.184"/><path class="cls-3" d="M20.42,13.988a.066.066,0,0,0,.065.058.054.054,0,1,0,0-.107.055.055,0,0,0-.061.049"/><path class="cls-6" d="M19.1,14.491a.121.121,0,1,1-.123.121.122.122,0,0,1,.123-.121"/><path class="cls-6" d="M19.311,14.194a.126.126,0,0,0-.161.029.1.1,0,0,0,.017.148.124.124,0,0,0,.161-.029.1.1,0,0,0-.017-.148"/><path class="cls-3" d="M19.093,14.529a.067.067,0,1,1-.071.067.069.069,0,0,1,.071-.067"/><path class="cls-3" d="M19.261,14.208a.083.083,0,0,0-.088.034c-.017.028,0,.057.043.066.077.015.115-.081.045-.1"/><path class="cls-6" d="M19.988,14.505a.125.125,0,1,1-.132.125.128.128,0,0,1,.132-.125"/><path class="cls-6" d="M19.988,14.216a.121.121,0,1,1-.126.12.123.123,0,0,1,.126-.12"/><path class="cls-6" d="M19.988,13.941a.115.115,0,1,1-.121.115.118.118,0,0,1,.121-.115"/><path class="cls-6" d="M20.877,14.491a.121.121,0,1,0,.123.12.121.121,0,0,0-.123-.12"/><path class="cls-6" d="M20.826,14.223a.126.126,0,0,0-.161-.029.1.1,0,0,0-.017.148.124.124,0,0,0,.161.029.1.1,0,0,0,.017-.148"/><path class="cls-3" d="M20.883,14.529a.067.067,0,1,1-.072.067.069.069,0,0,1,.072-.067"/><path class="cls-3" d="M20.715,14.208c-.07.019-.032.115.045.1.042-.009.06-.038.043-.066a.083.083,0,0,0-.088-.034"/><path class="cls-3" d="M19.988,14.541a.067.067,0,1,1-.069.066.068.068,0,0,1,.069-.066"/><path class="cls-3" d="M19.988,14.251a.066.066,0,0,1,.067.064.068.068,0,0,1-.135,0,.067.067,0,0,1,.068-.064"/><path class="cls-3" d="M19.988,13.979a.057.057,0,0,1,.058.056.059.059,0,0,1-.117,0,.057.057,0,0,1,.059-.056"/><path class="cls-6" d="M24.083,23.14a.107.107,0,1,1-.107.107.107.107,0,0,1,.107-.107"/><path class="cls-6" d="M24.387,23.211a.109.109,0,1,1-.111.11.11.11,0,0,1,.111-.11"/><path class="cls-6" d="M25.269,23.4a.109.109,0,1,1-.111.109.11.11,0,0,1,.111-.109"/><path class="cls-6" d="M24.69,23.282a.109.109,0,1,1-.111.11.11.11,0,0,1,.111-.11"/><path class="cls-6" d="M24.77,23.02a.11.11,0,1,1-.11.109.109.109,0,0,1,.11-.109"/><path class="cls-6" d="M24.847,22.758a.11.11,0,1,1-.11.11.11.11,0,0,1,.11-.11"/><path class="cls-3" d="M24.091,23.183a.053.053,0,1,1,0,.106.053.053,0,0,1,0-.106"/><path class="cls-3" d="M24.394,23.255a.055.055,0,1,1,0,.109.055.055,0,0,1,0-.109"/><path class="cls-3" d="M25.277,23.44a.055.055,0,0,1,0,.11.055.055,0,0,1,0-.11"/><path class="cls-3" d="M24.7,23.326a.055.055,0,1,1-.055.054.055.055,0,0,1,.055-.054"/><path class="cls-3" d="M24.778,23.064a.055.055,0,1,1-.055.055.055.055,0,0,1,.055-.055"/><path class="cls-3" d="M24.855,22.8a.055.055,0,1,1-.055.055.055.055,0,0,1,.055-.055"/></g></g></svg>