<?xml version="1.0" encoding="UTF-8"?><svg id="Layer_1" xmlns="http://www.w3.org/2000/svg" viewBox="0 0 40 40"><path d="m3.437,8.952c-.872.734-1.437,1.819-1.437,3.048v16c0,1.229.566,2.314,1.437,3.048l16.749-11.048L3.437,8.952Zm2.684,8.001c0-.204.064-.395.169-.568-.199-.002-.394,0-.554.004.146-.146.44-.23.769-.267.319-.309.805-.51,1.356-.51.569,0,1.07.214,1.387.54.028-.006.055-.011.083-.018.439-.1.944.271.979.339.027.055-.488-.042-.841-.03.084.157.132.33.132.51,0,.035-.01.068-.013.102.666.052,1.253-.245,1.253-.245,0,0-.562.899-.228,2.696.342,1.835.241,2.671-1.207,2.725-1.224.046-1.565.414-1.565.414,0,0-.341-.368-1.565-.414-1.447-.054-1.549-.89-1.207-2.725.335-1.797-.228-2.696-.228-2.696,0,0,.611.306,1.292.24-.003-.032-.013-.063-.013-.096Zm3.95,6.426s-.013.089-.038.177c-.722.418-2.189.443-2.189.443,0,0-1.468-.025-2.189-.443-.025-.089-.038-.177-.038-.177,0,0-1.102-.228-1.595-.974s-.506-2.164-.506-2.164l.241-.025.126-.722.671.215-.202.974-.152.038s-.012.785.582,1.393c.595.607,1.645.607,1.645.607,0,0,.544.392,1.417.392s1.418-.392,1.418-.392c0,0,1.05,0,1.645-.607.595-.608.582-1.393.582-1.393l-.152-.038-.203-.974.671-.215.126.722.242.025s-.013,1.417-.506,2.164c-.494.747-1.595.974-1.595.974Z" fill="#e3e7ea"/><path d="m34.005,8H5.995c-.257,0-.507.028-.75.076-.136.027-.265.072-.396.112-.093.029-.189.051-.279.087-.178.07-.348.155-.513.249-.03.017-.061.031-.09.049-.179.108-.349.229-.51.363-.007.006-.016.01-.023.016h.002s16.749,11.049,16.749,11.049h17.814v-8.004c0-2.207-1.789-3.996-3.995-3.996Z" fill="#dc0024"/><path d="m3.437,31.048h-.002c.007.007.016.011.023.017.16.133.331.255.51.363.029.018.06.032.09.049.164.094.335.178.513.249.09.035.186.058.279.087.131.041.26.085.396.112.243.048.492.076.75.076h28.009c2.207,0,3.995-1.789,3.995-3.996v-8.004h-17.814L3.437,31.048Z" fill="#2c2373"/><path d="m6.968,16.658c-.135.084.693.068.893.118.2.05.711-.017.677-.118-.034-.101.422-.084.709-.185.056-.02.136-.027.222-.03.353-.012.868.085.841.03-.034-.068-.539-.439-.979-.339-.027.006-.055.011-.083.018-.415.092-.851.162-.93.067-.084-.101.185-.05.506-.085.321-.034.185-.186-.304-.185-.489,0-1.115-.29-.661.321-.248-.144-.843-.206-1.355-.148-.328.037-.623.121-.769.267.16-.005.355-.005.554-.004.537.005,1.099.029,1.049.054-.067.034-.236.135-.371.219Z" fill="#bd725f"/><path d="m4.842,16.81s.562.898.228,2.696c-.342,1.835-.241,2.671,1.207,2.725,1.224.046,1.565.414,1.565.414,0,0,.341-.368,1.565-.414,1.447-.054,1.549-.89,1.207-2.725-.335-1.796.228-2.696.228-2.696,0,0-.588.298-1.253.245-.092-.007-.185-.021-.278-.043-.848-.202-1.468-.113-1.468.114,0-.227-.62-.317-1.468-.114-.081.019-.161.029-.24.037-.681.067-1.292-.24-1.292-.24Zm1.949.544c.747-.215,1.051.152,1.051.152,0,0,.304-.368,1.051-.152.747.216,1.417.013,1.417.013,0,0-.455,1.215-.025,2.696s-.62,1.696-1.329,1.683c-.709-.013-1.114.392-1.114.392,0,0-.405-.405-1.114-.392-.709.013-1.759-.203-1.329-1.683s-.025-2.696-.025-2.696c0,0,.671.202,1.418-.013Z" fill="#dc181e"/><path d="m5.399,20.063c-.43,1.481.62,1.696,1.329,1.683.709-.013,1.114.392,1.114.392,0,0,.405-.405,1.114-.392.709.013,1.759-.203,1.329-1.683s.025-2.696.025-2.696c0,0-.671.202-1.417-.013-.747-.215-1.051.152-1.051.152,0,0-.304-.367-1.051-.152-.747.216-1.418.013-1.418.013,0,0,.455,1.215.025,2.696Zm4.272-1.993c0,.079-.005.142-.013.196.223.027.393.123.393.241h-1.025c0-.118.169-.213.393-.241-.008-.053-.013-.117-.013-.196,0-.29.133-.525.133-.525,0,0,.133.235.133.525Zm-1.829-.487l.696.468h-.203v.367l1.354.898h-.164v.785h.177v.291h-.164v.735h.202v.367h-3.797v-.367h.203v-.735h-.164v-.291h.177v-.785h-.164l1.354-.898v-.367h-.203l.696-.468Zm-2.189,0c.114-.038.531-.013.671.101.139.114.468-.076.595-.101.126-.025,0,.126-.101.215-.101.088-.05.317-.05.43s-.203-.102-.203-.102c0,0-.19.342-.228.544-.038.203-.152-.126-.152-.126,0,0-.202.202-.253.279s-.063-.582,0-.671-.152-.063-.228-.101c-.076-.038.164-.279.164-.279,0,0-.329-.152-.216-.189Z" fill="#63b0e2"/><g><path d="m7.348,18.418l-1.354.898h.164v.785h-.177v.291h.164v.735h-.203v.367h3.797v-.367h-.202v-.735h.164v-.291h-.177v-.785h.164l-1.354-.898v-.367h.203l-.696-.468-.696.468h.203v.367Zm-.481,2.581h-.455v-.594h.455v.594Zm0-1h-.455v-.594h.455v.594Zm1.987-.594h.455v.594h-.455v-.594Zm0,1h.455v.594h-.455v-.594Zm-.228-.646v.43h-1.494v-.43h1.494Zm-.43-1.607v.317h-.684v-.317h.684Z" fill="#fff"/><path d="m10.05,18.51h-1.03c0-.12.17-.22.4-.24-.01-.06-.02-.12-.02-.2,0-.29.14-.53.14-.53,0,0,.13.24.13.53,0,.08,0,.14-.01.2.22.02.39.12.39.24Z" fill="#fff"/></g><path d="m5.703,18.052c.075.038.291.013.228.101s-.05.747,0,.671.253-.279.253-.279c0,0,.114.329.152.126.038-.202.228-.544.228-.544,0,0,.203.215.203.102s-.051-.342.05-.43c.101-.089.228-.24.101-.215-.126.025-.455.215-.595.101-.139-.114-.556-.139-.671-.101-.113.037.216.189.216.189,0,0-.241.24-.164.279Z" fill="#018830"/><g><rect x="7.513" y="18.152" width=".684" height=".317" fill="#b6b6b6"/><rect x="7.133" y="19.759" width="1.494" height=".43" fill="#b6b6b6"/><rect x="6.412" y="20.405" width=".455" height=".594" fill="#b6b6b6"/><rect x="8.854" y="19.405" width=".455" height=".594" fill="#b6b6b6"/><rect x="8.854" y="20.405" width=".455" height=".594" fill="#b6b6b6"/><rect x="6.412" y="19.405" width=".455" height=".594" fill="#b6b6b6"/></g><g><path d="m7.86,16.271c-.454-.611.172-.321.661-.321.489,0,.625.151.304.185-.321.035-.591-.016-.506.085.079.095.514.024.93-.067-.318-.326-.818-.54-1.387-.54-.551,0-1.037.202-1.356.51.512-.057,1.107.004,1.355.148Z" fill="#fada10"/><path d="m7.842,17.126c0-.227.62-.317,1.468-.114.093.022.187.036.278.043.003-.034.013-.067.013-.102,0-.181-.048-.353-.132-.51-.086.003-.166.01-.222.03-.287.101-.743.084-.709.185.034.101-.477.169-.677.118-.2-.05-1.028-.034-.893-.118.135-.084.304-.185.371-.219.05-.025-.512-.049-1.049-.054-.106.173-.169.364-.169.568,0,.033.01.064.013.096.08-.008.16-.018.24-.037.847-.202,1.468-.113,1.468.114Z" fill="#fada10"/><path d="m11.93,20.215l-.126-.722-.671.215.203.974.152.038s.013.785-.582,1.393c-.595.607-1.645.607-1.645.607,0,0-.544.392-1.418.392s-1.417-.392-1.417-.392c0,0-1.051,0-1.645-.607-.595-.608-.582-1.393-.582-1.393l.152-.038.202-.974-.671-.215-.126.722-.241.025s.013,1.417.506,2.164,1.595.974,1.595.974c0,0,.013.088.038.177.722.418,2.189.443,2.189.443,0,0,1.468-.025,2.189-.443.025-.088.038-.177.038-.177,0,0,1.101-.228,1.595-.974.493-.747.506-2.164.506-2.164l-.242-.025Z" fill="#fada10"/></g></svg>