<svg id="Layer_1" data-name="Layer 1" xmlns="http://www.w3.org/2000/svg" xmlns:xlink="http://www.w3.org/1999/xlink" viewBox="0 0 40 40"><defs><style>.cls-1{fill:none;}.cls-2{clip-path:url(#clip-path);}.cls-3{fill:#231e60;}.cls-4{fill:#e5e8eb;}.cls-5{fill:#bc1f34;}.cls-6{clip-path:url(#clip-path-2);}.cls-7{fill:#9ebfe4;}.cls-8{fill:#4e68b0;}.cls-9{fill:#573614;}.cls-10{fill:#f3ea32;}.cls-11{fill:#c16228;}.cls-12{fill:#4eb648;}.cls-13{fill:#6fbf5f;}.cls-14{fill:#d91e39;}</style><clipPath id="clip-path"><rect class="cls-1" x="1.018" y="8.973" width="37.963" height="22.054" rx="4"/></clipPath><clipPath id="clip-path-2"><rect class="cls-1" x="1.018" y="8.973" width="37.963" height="22.054"/></clipPath></defs><g class="cls-2"><rect class="cls-3" x="1.018" y="8.973" width="37.963" height="22.054"/><polygon class="cls-4" points="17.663 8.973 12.063 11.753 12.063 8.973 8.909 8.973 8.909 11.753 3.308 8.973 1.018 8.973 1.018 10.122 5.022 12.123 1.018 12.123 1.018 15.274 5.022 15.274 1.018 17.275 1.018 18.424 3.308 18.424 8.909 15.643 8.909 18.424 12.063 18.424 12.063 15.643 17.663 18.424 19.974 18.424 19.974 17.275 15.95 15.274 19.974 15.274 19.974 12.123 15.95 12.123 19.974 10.122 19.974 8.973 17.663 8.973"/><polygon class="cls-5" points="18.483 8.973 12.156 12.125 13.671 12.125 19.974 8.973 18.483 8.973"/><polygon class="cls-5" points="19.974 18.424 13.664 15.274 15.185 15.274 19.974 17.673 19.974 18.424"/><polygon class="cls-5" points="1.018 9.726 5.829 12.125 7.357 12.125 1.018 8.973 1.018 9.726"/><polygon class="cls-5" points="7.344 15.274 1.018 18.424 2.532 18.424 8.859 15.274 7.344 15.274"/><polygon class="cls-5" points="9.581 8.973 9.581 12.776 1.018 12.776 1.018 14.622 9.581 14.622 9.581 18.424 11.434 18.424 11.434 14.622 19.974 14.622 19.974 12.776 11.434 12.776 11.434 8.973 9.581 8.973"/><g class="cls-6"><path class="cls-7" d="M32.623,18.255c-.006,2.144-.346,4.454-3.132,5.554-2.786-1.1-3.126-3.41-3.132-5.554Z"/><path class="cls-4" d="M29.491,23.881l-.024-.01c-2.779-1.1-3.168-3.348-3.175-5.616v-.066h6.4v.066c-.007,2.268-.4,4.519-3.174,5.616l-.025.01Zm-3.065-5.56c.013,2.193.409,4.356,3.065,5.417,2.656-1.061,3.052-3.224,3.066-5.417Z"/><path class="cls-8" d="M29.491,23.809A4.513,4.513,0,0,0,31.969,21.7c-.068,0-.21,0-.272-.006s-2.672-.265-2.981-.377a4.511,4.511,0,0,0-1.768.253,4.484,4.484,0,0,0,2.543,2.244Z"/><path class="cls-9" d="M27.543,22.48a.438.438,0,0,1,.156,0c.038.007.045.011.059-.031s.045-.03.068-.01a.09.09,0,0,0,.11-.024c.024-.034.031-.03.055-.007s.034.018.058.011a.161.161,0,0,0,.085-.072c.021-.038.052-.051.069-.03a.062.062,0,0,0,.058.027c.024,0,.031.02.028.051s.01.037.068-.01c.052.051.069.03.069-.024a1.167,1.167,0,0,0-.034-.283.384.384,0,0,1-.045-.168c-.007-.115-.007-.123-.148-.194,0-.041-.009-.058-.109-.051a.111.111,0,0,0-.034-.072c-.021-.017-.024-.024-.014-.071a.118.118,0,0,0,.11-.038c.023-.034.1-.027.151-.007a.361.361,0,0,0,.2.01,1.449,1.449,0,0,1,.154-.092c.062-.034.08-.047.082-.095a.685.685,0,0,0-.068-.328c-.034-.065-.044-.146-.092-.249a.748.748,0,0,0-.11-.208.111.111,0,0,1-.037-.071.2.2,0,0,0-.059-.127,1.462,1.462,0,0,1-.184-.624c-.024-.129-.008-.434-.062-.481a.432.432,0,0,0-.2-.085,1.72,1.72,0,0,1-.106-.294c-.065.01-.109.078-.154.1s-.052.024-.052.086a.5.5,0,0,1-.1.242c-.061.1-.164.068-.25.212-.189-.229-.191-.294-.205-.359s-.045-.078-.151-.17a1.334,1.334,0,0,1,0-.2c-.078-.065-.136-.055-.174-.007s-.065.119-.123.147a3.149,3.149,0,0,0-.227.288,5.47,5.47,0,0,0,1.156,3.309Z"/><path class="cls-10" d="M32.623,18.255c0-.808-.042-1.592-.022-2.279a8.916,8.916,0,0,0-6.22,0c.02.687-.025,1.471-.022,2.279Z"/><path class="cls-4" d="M32.688,18.319H26.3v-.064c0-.35.007-.7.014-1.031.011-.441.02-.858.008-1.246v-.043l.04-.017a8.971,8.971,0,0,1,6.272,0l.04.017v.043c-.012.388,0,.805.008,1.246.007.335.015.681.014,1.031v.064Zm-6.265-.129h6.136c0-.326-.007-.649-.015-.963-.009-.427-.018-.831-.009-1.21a8.912,8.912,0,0,0-6.088,0c.009.379,0,.783-.009,1.21-.008.314-.015.637-.015.963Z"/><path class="cls-11" d="M26.528,19.19a.789.789,0,0,1,.1.2.481.481,0,0,0,.048-.1c.005-.031.041-.09.027-.123s-.024-.058.014-.034.03.065.022.126c-.022.167-.093.2-.1.314.1.237.026.323.136.554.017.011.062-.008.076,0,.059-.041.1-.026.184-.009a.144.144,0,0,1,.127.126.156.156,0,0,0,.017.1c.017.031.051.078.044.112a.092.092,0,0,0,.017.072c.011.017,0,.055-.013.079s-.007.054.034.105a.908.908,0,0,1,.137.393c0,.126.007.184.058.207s.069.045.062.1a3.3,3.3,0,0,0,.031.382c.007.045.024.035.044.059a.107.107,0,0,0,.1.051c.068,0,.134-.009.179,0a.738.738,0,0,1,.113.273c.014.072.013.17.037.17s.048,0,.041-.085a.219.219,0,0,0-.045-.147c-.03-.045-.047-.065-.03-.092A.159.159,0,0,0,28,21.9c-.007-.034-.017-.085.041-.017s.076.085.093.109a.177.177,0,0,1,.02.109c0,.041,0,.059.028.038s.054.013.041.058a.061.061,0,0,0,.045.085c.041.014.058.024.068.055s.045.044.045-.017a.9.9,0,0,0-.041-.232.726.726,0,0,1-.035-.181c0-.052-.013-.065-.037-.075a.075.075,0,0,1-.049-.052.038.038,0,0,0-.039-.032.045.045,0,0,1-.037-.029c-.009-.017-.018-.018-.035-.02s-.045.008-.053-.019a.292.292,0,0,0-.038-.089c-.017-.022-.032-.029-.034-.105s0-.088-.027-.115a1.037,1.037,0,0,1-.082-.129c-.017-.031-.034-.062-.034,0s0,.1.041.123.051.024.034.058,0,.058.007.082.02.047,0,.071-.041.017-.039-.02a.207.207,0,0,0-.026-.113c-.017-.03-.032-.051-.052-.034s-.037,0-.024-.017.011-.024,0-.034-.013-.02,0-.041.017-.031.008-.078a2.164,2.164,0,0,0-.121-.342c-.034-.054-.03-.1.015-.041a.321.321,0,0,1,.085.147.155.155,0,0,0,.028.089c.013.017.023.01.03-.027s.035-.024-.013-.1a.914.914,0,0,1-.172-.406,1.834,1.834,0,0,0-.082-.416.224.224,0,0,1-.048-.126.339.339,0,0,0-.024-.15c-.024-.042-.041-.048-.044.013a.679.679,0,0,0,.02.222c.017.024.006.085,0,.119s-.058.068.054.137a.068.068,0,0,1,.031.088c-.007.024-.014.021-.038-.016a.359.359,0,0,0-.071-.089c-.024-.021-.028-.034-.024-.082s.013-.082,0-.1-.021,0-.028.024a.582.582,0,0,1-.028.123c-.013.02-.02.006-.03-.038a.411.411,0,0,1,.027-.191.515.515,0,0,0,.018-.263c-.021-.1-.011-.133-.089-.218a.838.838,0,0,1-.206-.273A1.01,1.01,0,0,0,27,19.087a.575.575,0,0,0-.137-.126V18.8c0-.037-.017-.061-.062-.054s-.072.044-.1.095-.048.028-.085.116-.093.133-.093.229Z"/><path class="cls-11" d="M26.775,20.189a.085.085,0,0,0,.094.009c.041-.021.091-.08.146-.022a.358.358,0,0,1,.085.228.4.4,0,0,0,.086.294.363.363,0,0,1,.134.262,1.782,1.782,0,0,0,.05.3.3.3,0,0,0,.062.116.329.329,0,0,1,.052.187,1.516,1.516,0,0,0,0,.181c.01.041,0,.075-.031.055a.13.13,0,0,1-.055-.065c-.017-.034-.037-.028-.02.024a.14.14,0,0,0,.113.1.1.1,0,0,1,.085.035c.027.027.031.041.079.041a.258.258,0,0,1,.1.013.074.074,0,0,0,.068,0c.023-.006.047.014.064.058a1.031,1.031,0,0,1,.059.2.162.162,0,0,0,.024.1c.024.034.017.068-.01.048s-.028-.014-.049-.01-.033-.007-.061-.024-.01-.014-.037-.055-.045-.054-.045-.024,0,.069-.024.051-.03-.017-.048,0-.024.031-.045,0a.087.087,0,0,0-.065-.041c-.02-.007-.02-.007-.03-.037a.065.065,0,0,0-.069-.038.039.039,0,0,1-.044-.034.08.08,0,0,0-.034-.044c-.015-.011-.007-.034-.011-.058s-.024-.014-.037-.021-.024,0-.024-.038-.015-.044-.025-.068a.108.108,0,0,1,.008-.074.07.07,0,0,0-.018-.069c-.021-.024,0-.048-.058-.1s-.082-.006-.1-.119a1.752,1.752,0,0,0-.083-.382c-.03-.038-.051-.065-.082-.075s-.051,0-.054-.069a.315.315,0,0,0-.065-.187.994.994,0,0,0-.08-.072c-.02-.017-.027-.047,0-.1a.35.35,0,0,0,.014-.174.528.528,0,0,1-.007-.126.257.257,0,0,0-.007-.12c-.01-.027-.024-.034-.006-.055Z"/><path class="cls-11" d="M27.6,19.219a.737.737,0,0,1-.16.155c-.063.045-.146.082-.1.159s.082.087.091.146.023.109.069.123.064,0,.064.1,0,.133.041.169.036.073.054.159a2.013,2.013,0,0,0,.073.4,1.807,1.807,0,0,1,.165.419c-.014.05-.032.086.023.145a.4.4,0,0,1,.1.2c0,.05.013.069.068.05a.2.2,0,0,0,.1-.059c.018-.023.055-.018.1.009s.129.055.174.027.069-.068.11-.068a.388.388,0,0,0,.1-.168c.013-.027,0-.027-.024-.054s-.013-.074-.017-.119a.6.6,0,0,0-.078-.214,1.915,1.915,0,0,0-.124-.255.272.272,0,0,1-.059-.145c0-.037-.046-.068-.073-.1s-.055-.068-.087-.227-.054-.273-.054-.3-.005-.032-.033-.041a.068.068,0,0,1-.032-.077c.009-.023-.009-.046-.018-.073a.147.147,0,0,1,.018-.105.254.254,0,0,0,0-.168c-.019-.064-.037-.118-.11-.128s-.086-.027-.114-.086-.055-.164-.064-.187-.022-.027-.078.019a.145.145,0,0,0-.073.145.164.164,0,0,0,.028.105.3.3,0,0,1,.037.127c.013.087.09.223-.01.3s-.087.1-.082.15-.027.091-.046.014a.13.13,0,0,1,.055-.159c.055-.037.1-.082.068-.132a.55.55,0,0,1-.054-.223c-.005-.054-.014-.073-.046-.032Z"/><path class="cls-12" d="M26.787,20.379a.659.659,0,0,0,.008.111.35.35,0,0,1-.014.174c-.027.058-.02.088,0,.1l0,0a.082.082,0,0,0,.048-.111.106.106,0,0,1,.007-.1c.018-.032.018-.05,0-.073s-.016-.023,0-.086-.024-.056-.057-.021Z"/><path class="cls-12" d="M27.37,21.261a1.782,1.782,0,0,1-.05-.3.363.363,0,0,0-.134-.262.335.335,0,0,1-.085-.236c-.051-.031-.071-.017-.068.04s.067.091.058.18-.009.066.034.109.059.084.037.1-.025.051.007.062.034.045.029.077.025.039.043.062a.11.11,0,0,1,0,.109c-.018.031-.021.081.011.054s.046,0,.071.041.04.026.064.014a.3.3,0,0,1-.02-.051Z"/><path class="cls-12" d="M27.816,22.055c-.02.042-.044.028-.065.008s-.045-.021-.035-.059.007-.044-.02-.064l-.009-.007h-.032c-.048,0-.052-.014-.079-.041l-.017-.015V21.9c0,.038,0,.031-.038.041s-.03-.038-.037-.068l-.007-.019a.149.149,0,0,1-.1-.1c-.017-.052,0-.058.02-.024a.13.13,0,0,0,.055.065c.031.02.041-.014.031-.055a.157.157,0,0,1,0-.045.072.072,0,0,0-.03-.03c-.056-.024-.039-.03-.035-.075s-.006-.044-.041-.02-.037,0-.037-.072-.045-.068-.056-.021-.026.017-.047-.051-.048-.085-.052-.02-.017.068-.054.037c.006.04.012.077.017.106.017.113.044.071.1.119s.037.072.058.1a.07.07,0,0,1,.018.069.108.108,0,0,0-.008.074c.01.024.025.034.025.068s.009.031.024.038.019,0,.027,0a.324.324,0,0,1,.027-.035c.041-.042.1,0,.124.054s.044.065.075.024.02-.034.055,0,.047.031.047.031a.062.062,0,0,1,.059.007c.024.02.038.017.082-.048s-.02-.044-.041,0Z"/><path class="cls-12" d="M27.938,20.184c.014-.1.005-.2.046-.237s.091-.109.086.046-.009.145-.041.182-.059.045-.027.1a.2.2,0,0,1,.032.155c0,.091,0,.127.032.173s.046.05.055.1a.3.3,0,0,0,.082.154.389.389,0,0,1,.091.214c0,.073.069.091.128.141s-.013.087-.059.064-.027,0-.055.032-.036.036-.06-.018a.244.244,0,0,0-.136-.105c-.037-.014-.069-.073-.1-.132a.176.176,0,0,0-.131-.092.181.181,0,0,1,.017.083c-.014.05-.032.086.023.145a.4.4,0,0,1,.1.2c0,.05.013.069.068.05a.2.2,0,0,0,.1-.059c.018-.023.055-.018.1.009s.129.055.174.027.069-.068.11-.068a.388.388,0,0,0,.1-.168c.013-.027,0-.027-.024-.054s-.013-.074-.017-.119a.6.6,0,0,0-.078-.214,1.915,1.915,0,0,0-.124-.255.272.272,0,0,1-.059-.145c0-.037-.046-.068-.073-.1s-.055-.068-.087-.227c-.025-.125-.044-.221-.052-.271-.032.053-.055.066-.067.03s-.032-.064-.05-.037-.023-.022-.023-.045,0-.028-.027-.028,0-.035-.014-.1-.023-.078-.032.005-.054.131-.036.15.009.054-.009.109a.16.16,0,0,0,0,.123.427.427,0,0,1-.019.164c-.008.059.038.118.051.018Z"/><path class="cls-12" d="M27.1,19.366c-.035,0-.057.032-.038.135.012.064-.037.05-.055.019s-.032-.1-.068-.16-.019.041-.024.1.032.054.065.1,0,.064-.033.064-.017.072-.008.123-.009.059-.037.018-.009-.105,0-.182.008-.059-.041-.078-.041-.027-.024-.073.037-.068.014-.09-.018-.037.018-.041.024-.032.055-.041.046,0,.051-.055.02-.079.057-.065a1.793,1.793,0,0,0,.072.23Z"/><path class="cls-12" d="M27.564,19.9c0,.1,0,.133.041.169s.036.073.054.159a2.013,2.013,0,0,0,.073.4c.017.039.04.086.063.137a.279.279,0,0,0,.066-.086c.013-.032-.028-.1-.06-.15s0-.073.036-.142,0-.072-.054-.091-.051-.064-.077-.136a.16.16,0,0,1,0-.146c.018-.041,0-.072-.032-.082s-.028-.036-.014-.081.023-.055-.032-.041a.1.1,0,0,0-.064.033.258.258,0,0,1,0,.057Z"/><path class="cls-9" d="M28.089,20.093c0,.054,0,.082-.019.1s0,.045.01.072a.16.16,0,0,1,.009.114.09.09,0,0,0,.036.105c.028.014.041,0,.033.064a.2.2,0,0,0,.058.159.131.131,0,0,1,.051.1c0,.027.022.054.055.068s.027.018.027.037.014.018.05.027a.2.2,0,0,1,.105.082c.041.05.1.077.092.022s0-.091-.055-.118-.1-.159-.119-.25a.5.5,0,0,0-.137-.236c0-.064,0-.1-.037-.128a.133.133,0,0,1-.054-.105.114.114,0,0,0-.041-.082.06.06,0,0,1-.028-.058c0-.028-.032-.023-.036.027Z"/><path class="cls-13" d="M27.846,22.533a1.3,1.3,0,0,0,.329-.092.543.543,0,0,0,.193.089.219.219,0,0,1-.152-.007c.011.024.039.061.056.065a.359.359,0,0,1-.188-.048.29.29,0,0,1-.238-.007Z"/><path class="cls-13" d="M27.994,22.636c.029.008.175.032.194.032-.048.041-.007.08.073.073-.039.006-.082.02-.053.026a.794.794,0,0,0,.3-.058.345.345,0,0,1-.512-.073Z"/><path class="cls-13" d="M28.125,22.844a.267.267,0,0,1,.182.008.243.243,0,0,1-.182-.008Z"/><path d="M28.272,22.84c.07-.012.269.036.338-.006-.023.063-.149.071-.191.057a.442.442,0,0,0-.114-.029c.017-.008-.009-.01-.033-.022Z"/><path class="cls-13" d="M28.344,22.937a1.026,1.026,0,0,0,.3-.037.989.989,0,0,0,.21.049.278.278,0,0,1-.205,0,.359.359,0,0,1-.306-.012Z"/><path class="cls-13" d="M28.435,22.969a.379.379,0,0,0,.215-.02.585.585,0,0,1,.255.07.548.548,0,0,1-.25-.019.686.686,0,0,0-.268.05.1.1,0,0,1,.048-.081Z"/><path d="M28.344,22.584a.751.751,0,0,0,.383-.041c.044-.02.07.014.021.031a.547.547,0,0,1-.422.031c-.04-.022-.045-.041.018-.021Z"/><path class="cls-13" d="M29.4,22.294a.94.94,0,0,1-.8.048c-.034-.01-.058,0-.021.024a1.381,1.381,0,0,0,.288.082c.048,0,.031.026,0,.034s-.037.029,0,.014a.691.691,0,0,1,.349.025c.039.02.049.017.047,0s.017-.026.046-.029.046-.014.024-.022-.026-.014-.009-.022.019-.018-.007-.023-.043-.012-.019-.024a.286.286,0,0,1,.088-.023c.007-.019-.006-.068.015-.086Z"/><path d="M28.956,22.325a.869.869,0,0,0,.576-.2.63.63,0,0,0,.161.071c.038.007.072.041.014.041a.518.518,0,0,1-.179-.041,1.007,1.007,0,0,1-.568.147c-.041,0-.051-.02,0-.017Z"/><path class="cls-13" d="M28.511,21.506a.4.4,0,0,0,.261.087.544.544,0,0,0,.19.094.743.743,0,0,0-.187.086c-.036-.035-.082-.03-.094-.046-.034.027-.029.043-.006.057a.674.674,0,0,0,.238.031c.042-.012.054.023.018.036a.325.325,0,0,1-.334-.1c-.062-.1-.115-.137-.283-.047-.018-.047-.018-.059-.051-.059s-.092-.043-.047-.041a.539.539,0,0,0,.295-.1Z"/><path class="cls-13" d="M28.552,21.727c-.028.007-.109.051-.138.054s-.081.044-.027.046.121-.057.158-.061.042-.048.007-.039Z"/><path class="cls-13" d="M28.718,21.9a1.052,1.052,0,0,1-.131.022c-.024,0-.048,0-.046.022s.008.027-.028.024a.1.1,0,0,0-.076.021c-.008.009-.015.02.021.023a.144.144,0,0,0,.1-.012.351.351,0,0,1,.125-.049c.045,0,.089-.06.039-.051Z"/><path d="M28.6,22a.85.85,0,0,0,.29.082c.067,0,.054.027,0,.038a.419.419,0,0,1-.319-.092c-.042-.035,0-.046.026-.028Z"/><path class="cls-13" d="M29.472,22.1a.671.671,0,0,1-.344.013c-.059-.015-.111-.018-.072.019a.325.325,0,0,0,.238.044.914.914,0,0,1-.385.043,1.231,1.231,0,0,0-.234,0,.219.219,0,0,1-.11-.016c-.022-.013-.03-.039.037-.032s.075-.007.017-.016-.139.016-.059.066.251,0,.361.027a.628.628,0,0,0,.563-.125c.011-.009.031-.034-.012-.02Z"/><path class="cls-13" d="M28.777,21.886a.078.078,0,0,1,0,.048c-.005.012-.005.028.017.011s.036-.038.058-.026a.242.242,0,0,0,.1.007c.026,0,.035-.009,0-.024a.226.226,0,0,0-.1-.019.147.147,0,0,1-.063-.01c-.017-.007-.022,0-.017.013Z"/><path class="cls-13" d="M29.142,21.953a.294.294,0,0,1-.108-.029c-.028-.012-.067-.014-.038.026a.245.245,0,0,0,.2.042c.044-.018.025-.039.069-.012a.268.268,0,0,0,.124.047c.032,0,.045,0,.008-.021s-.052-.026-.056-.042-.009-.028.024-.018.071.029.1.016a.271.271,0,0,1,.116-.045l.01-.025a.218.218,0,0,0-.117.02.158.158,0,0,1-.081.005.288.288,0,0,1-.085-.017c-.011-.008-.011-.015.017-.02s.035-.024,0-.017a.567.567,0,0,1-.192-.014c-.053-.017-.076-.019-.1-.01s-.019.032.014.034a.269.269,0,0,1,.132.032c.025.024.022.026-.007.014s-.083,0-.027.034Z"/><path class="cls-13" d="M29.588,21.892l-.01.025a.733.733,0,0,1,.268.045c.047-.038.039-.05.073-.043s.077.019.1.009a.068.068,0,0,1,.054-.005.178.178,0,0,0,.09-.021.27.27,0,0,1,.109-.036c.031,0,.069-.007.013-.015a.447.447,0,0,0-.171.018.728.728,0,0,1-.169.017.7.7,0,0,1-.179.011.656.656,0,0,0-.174,0Z"/><path d="M30.382,21.861a.7.7,0,0,1-.374.1c-.043,0-.029.015.007.018a.56.56,0,0,0,.391-.1c.017-.018.015-.047-.024-.019Z"/><path class="cls-13" d="M29.681,22.035a1.646,1.646,0,0,1,.249.058c.037,0,.048-.012.041-.026s-.012-.028.056-.025.226,0,.256,0,.076-.051.1-.052c-.061,0-.318.017-.351.013a.1.1,0,0,0-.07.012.055.055,0,0,1-.058.007c-.026-.01-.072-.024-.1-.008s-.08,0-.126.02Z"/><path class="cls-13" d="M30.283,22.043c.024-.01.076-.051.1-.052a.486.486,0,0,1,.121.019c.023,0,.049,0,.032-.021s0-.051.068-.043a.653.653,0,0,0,.175.014c.069-.007.1.044.229-.007-.01.051.014.055.039.044s.05-.006.091.024a.984.984,0,0,0,.35.024c.059-.01.089.021.044.034s-.054.035-.044.048.02.031-.034.024a.1.1,0,0,0-.093.031c-.027.02-.034.027-.109.013a.267.267,0,0,0-.131,0,.154.154,0,0,1-.092-.007.367.367,0,0,0-.185-.01.239.239,0,0,1-.143.02c-.048-.013-.052-.007-.022-.037s.039-.027.1-.035.1-.023.061-.047-.054-.02-.11.007-.082.044-.143.01a.153.153,0,0,0-.134-.017.319.319,0,0,1-.167-.04Z"/><path class="cls-13" d="M30.488,22.146c-.079.011-.1-.039-.181-.029-.028,0-.074.037-.011.032s.132.029.193.024.035-.032,0-.027Z"/><path class="cls-13" d="M30.4,22.205c.042-.014.127.014.163.008s.07.015.033.027-.129-.023-.17-.011-.082,0-.026-.024Z"/><path class="cls-13" d="M29.578,22.426a.363.363,0,0,0,.341-.178c.006-.013.012-.019.038,0a.639.639,0,0,0,.3.089c.05,0,.1.028,0,.022a.959.959,0,0,1-.311-.067.394.394,0,0,1-.368.153c-.072,0-.054-.02,0-.018Z"/><path class="cls-13" d="M30.019,22.193a.358.358,0,0,1-.165.107.867.867,0,0,1-.2-.021c-.033-.012-.073-.008-.026.024a.353.353,0,0,0,.207.044.2.2,0,0,1,.135,0c.037.022.1.064.143.056a.332.332,0,0,1,.145,0c.026.012.07.048,0,.028s-.123,0-.153-.017c.034.048.112.124.178.124.015,0,.026.027-.007.043a.152.152,0,0,0,.147-.008c-.01.013,0,.022.013.03s.037.021.006.024a.416.416,0,0,1-.121,0,.626.626,0,0,0,.416.077c.033-.006.051-.02,0-.019-.114,0-.121,0-.141-.01s-.017-.022.016-.032a.734.734,0,0,1,.149-.022c.033,0,.068-.014,0-.014a.83.83,0,0,1-.19-.012c-.035-.012-.061-.027-.024-.051s.073-.017.091-.039c-.113,0-.252-.062-.175-.117.018-.012.012-.013-.018-.016a.646.646,0,0,1-.15-.048c-.036-.021-.012-.038.017-.043a.455.455,0,0,1-.289-.091Z"/><path class="cls-13" d="M31.024,22.19a.463.463,0,0,1-.228.065c-.05,0-.056.017-.017.022a.324.324,0,0,0,.1,0,.061.061,0,0,1,.053.006.2.2,0,0,0,.129,0,.57.57,0,0,1,.159-.02c.033,0,.069,0,0-.016a.484.484,0,0,0-.2,0c-.026.007-.1,0-.059-.01a.28.28,0,0,0,.089-.046l-.032-.011Z"/><path class="cls-13" d="M30.991,22.324a.392.392,0,0,1-.208.079c.071.026.132.1.178.1a.215.215,0,0,1-.079.038.277.277,0,0,0,.181-.036.379.379,0,0,0,.281-.027.32.32,0,0,1-.183-.055.11.11,0,0,0,.079-.039.421.421,0,0,1-.249-.056Z"/><path class="cls-13" d="M30.882,22.537a.215.215,0,0,0,.079-.038.655.655,0,0,1-.377-.085c-.074-.065-.074-.015-.022.03a.362.362,0,0,0,.32.093Z"/><path class="cls-13" d="M31.063,22.693a.59.59,0,0,1-.226.018c-.048-.011-.069-.006-.056.013s.017.036-.022.031a.384.384,0,0,0-.139.014c-.029.01-.066.035,0,.025a.434.434,0,0,1,.165-.01.794.794,0,0,0,.243,0c.032-.014.01-.014-.005-.014s-.022-.01,0-.02a.1.1,0,0,0,.044-.059Z"/><path class="cls-13" d="M29.638,22.5a1.788,1.788,0,0,1-.322.085.443.443,0,0,1-.157.048.269.269,0,0,0,.154.031.541.541,0,0,1-.086.054.6.6,0,0,1,.147.01.407.407,0,0,1-.222.048.1.1,0,0,0,.072.048.375.375,0,0,1-.185,0c.017.034.034.055.058.058a.283.283,0,0,1-.182-.017c.045.058.145.079.292.062a.705.705,0,0,0,.3-.109.974.974,0,0,1-.185,0,1.131,1.131,0,0,0,.291-.127.167.167,0,0,1-.093-.027.919.919,0,0,0,.267-.034.193.193,0,0,1-.116-.075,1.159,1.159,0,0,0,.572.017c.027-.007.031-.041-.024-.037a1.012,1.012,0,0,1-.329-.045.332.332,0,0,0,.137.061.489.489,0,0,1-.394-.057Z"/><path class="cls-13" d="M29.227,22.714a.541.541,0,0,0,.086-.054.269.269,0,0,1-.154-.031.443.443,0,0,0,.157-.048.727.727,0,0,1-.253-.028.3.3,0,0,0-.158-.01c-.031.007-.02.058.11.045a.454.454,0,0,1-.257.037.172.172,0,0,1,.01.113.861.861,0,0,0,.353.085c-.082-.03-.126-.065-.058-.071a.774.774,0,0,0,.164-.038Z"/><path d="M29.015,22.936a.926.926,0,0,0,.558-.164c.045-.037.075-.025.031.014a.962.962,0,0,1-.541.2c-.09,0-.13-.041-.048-.048Z"/><path class="cls-13" d="M30.243,22.666a.632.632,0,0,1-.19.029.192.192,0,0,0-.112.01c-.027.018-.028.028.009.031a.919.919,0,0,0,.11,0,.16.16,0,0,0-.058.052.331.331,0,0,1,.184.027.1.1,0,0,1-.067-.012.581.581,0,0,0,.411.08.171.171,0,0,1-.059.036.365.365,0,0,0,.253-.039,1.017,1.017,0,0,1-.138-.005.152.152,0,0,1,.067-.04.493.493,0,0,0-.169.01.119.119,0,0,1,.05-.054,1.09,1.09,0,0,1-.359-.034,1.071,1.071,0,0,0,.246-.047.263.263,0,0,1-.178-.049Z"/><path class="cls-13" d="M29.9,22.741a1.077,1.077,0,0,0-.2.057c-.027.015-.056.024,0,.024s.223.006.258.012a1.973,1.973,0,0,0-.238-.017c-.024,0-.051,0-.006-.016a1.486,1.486,0,0,1,.177-.06Z"/><path class="cls-13" d="M29.764,22.9a.319.319,0,0,0,.169-.036.376.376,0,0,0,.178.079c.053,0,.048.013,0,.018a.333.333,0,0,1-.182-.056.3.3,0,0,1-.166-.005Z"/><path class="cls-13" d="M28.97,23.359a.563.563,0,0,0,.35.037.318.318,0,0,0,.243.041.351.351,0,0,1,.2,0c.072.024.22.025.261.059a1.306,1.306,0,0,0-.138.006c-.018,0-.008.016.026.035a.723.723,0,0,0-.379.1.218.218,0,0,1,.2-.125.581.581,0,0,0-.322.016.2.2,0,0,1-.042-.069c-.105.06-.311-.025-.393-.1Z"/><path class="cls-13" d="M28.7,23.168a.462.462,0,0,0,.25-.1.273.273,0,0,0,.216.01.048.048,0,0,0-.013.06.786.786,0,0,0-.237.056.336.336,0,0,1-.209.016c-.041-.022-.043-.041-.007-.046Z"/><path class="cls-13" d="M29.151,23.142a.8.8,0,0,0-.238.056.183.183,0,0,1,.016.063,1.516,1.516,0,0,1,.514-.054c-.051,0-.149.056-.2.063a1.017,1.017,0,0,1,.3.026c.034.008.041.034.016.058s-.038.027.016.029a.347.347,0,0,0,.22-.055c-.021-.022-.073-.013-.089-.029a.242.242,0,0,0,.092-.056.963.963,0,0,1-.157-.01c-.031-.007-.053-.016-.016-.036a.226.226,0,0,0,.067-.051.281.281,0,0,1-.258-.035.3.3,0,0,0,.137-.008.166.166,0,0,0-.078-.027.48.48,0,0,1,.381,0,.787.787,0,0,1,.243.014.783.783,0,0,1,.116-.109c-.2.016-.565-.021-.558-.127a.35.35,0,0,1-.28.119c-.008.031.02.069.044.089a.835.835,0,0,1-.24.014.193.193,0,0,0,.123.055c-.072,0-.109.013-.165.008Z"/><path class="cls-13" d="M29.569,23.383a.347.347,0,0,0,.22-.055c-.021-.022-.073-.013-.089-.029a.242.242,0,0,0,.092-.056,2.816,2.816,0,0,0,.335-.024,2.323,2.323,0,0,1,.249-.017c-.136.022-.164.034-.171.056s.045.041.078.041a.19.19,0,0,0-.147.087c-.082-.047-.121.009-.13.027a.261.261,0,0,0-.205.04.4.4,0,0,0-.2-.022c.046-.011.037-.041-.032-.048Z"/><path class="cls-13" d="M30.227,22.984c.047,0,.147,0,.184,0a.231.231,0,0,0-.062.044,1.9,1.9,0,0,1,.322-.015.217.217,0,0,0-.143.046c-.03.019-.013.03.026.036s.093.035.021.025a1.424,1.424,0,0,0-.248,0c-.035,0-.053-.012,0-.019a.28.28,0,0,0,.107-.037.415.415,0,0,1-.144,0c-.023-.006-.039-.02-.012-.027s.009-.017-.02-.014a.34.34,0,0,0-.144.074.9.9,0,0,1,.116-.109Z"/><path d="M29.705,23.06a.3.3,0,0,0,.23.1c.022,0,.063.03.01.032a.275.275,0,0,1-.279-.121c-.014-.019.01-.045.039-.014Z"/><path d="M30.563,21.868a.885.885,0,0,0,.346.061c.021,0,.062.021.01.026a.615.615,0,0,1-.365-.069c-.03-.017-.02-.032.009-.018Z"/><path class="cls-13" d="M30.64,21.866c.117,0,.2,0,.24.033a.741.741,0,0,1,.214-.028c.027.006.059-.006-.005-.022a.945.945,0,0,0-.256-.011,1.466,1.466,0,0,1-.239.008.068.068,0,0,1,.046.02Z"/><path class="cls-13" d="M31.092,21.912c.055-.029.213,0,.261-.022-.035.041.11.044.235.012a1.2,1.2,0,0,1-.2.054.107.107,0,0,1-.1-.01.394.394,0,0,0-.2-.034Z"/><path class="cls-13" d="M31.588,21.9c-.125.032-.27.029-.235-.012-.048.02-.206-.007-.261.022.057-.034.1-.007.141-.077.026.006.085.009.106-.018a.339.339,0,0,1,.118.042c.019.019.049-.005.024-.034.057-.02.021.024.153-.008a1.149,1.149,0,0,1,.116-.021.826.826,0,0,1-.162.106Z"/><path class="cls-10" d="M29.155,21.33c0-.259-.027-2.419-.027-2.918,0-.119-.062-.1-.062,0v2.9l.089.014Z"/><path d="M29.163,21.34l-.009,0V21.33l-.029,0-.062-.01-.006-2.912c0-.1.078-.115.078,0,0,.351.013,1.524.021,2.279l.006.649Zm-.063-3c-.01,0-.026.025-.026.073v2.9l.073.01-.007-.635c-.008-.755-.02-1.928-.02-2.279,0-.053-.013-.073-.02-.073Z"/><polygon class="cls-10" points="30.109 18.255 30.216 21.335 30.197 21.359 30.135 21.36 30.067 18.255 30.109 18.255"/><polygon points="30.127 21.369 30.127 21.36 30.058 18.247 30.109 18.247 30.224 21.335 30.197 21.345 30.101 18.255 30.143 21.352 30.18 21.351 30.127 21.369 30.127 21.369"/><path class="cls-10" d="M31.01,20.856c-.008-.314-.048-1.766-.063-2.481,0-.1-.059-.079-.058,0,.006.576.04,2.188.047,2.48.022,0,.061,0,.074,0Z"/><path d="M30.963,20.865l-.035-.007c-.007-.292-.041-1.9-.047-2.48a.094.094,0,0,1,.019-.068c.032-.009.054.01.055.064.011.547.038,1.525.053,2.1l.01.387-.055.009Zm-.044-2.548a.072.072,0,0,0-.022.061c.006.575.04,2.181.047,2.477l.027-.007.021-.378c-.016-.571-.042-1.548-.053-2.095,0-.042-.013-.058-.02-.058Z"/><path class="cls-4" d="M29.584,18.767l-.912-.014c-.051.184.178.181.265.133.1.075.173.068.229.007a.17.17,0,0,0,.219.007c.11.082.223,0,.2-.133Z"/><path d="M29.068,18.949a.673.673,0,0,0-.39-.079.129.129,0,0,1-.014-.119l.92.008a.149.149,0,0,1-.021.14.13.13,0,0,1-.183.007c-.023.041-.115.081-.22-.007a.1.1,0,0,1-.092.05Zm-.135-.07c.105.069.17.072.226.009.123.077.183.042.22.006.079.04.134.039.171,0a.149.149,0,0,0,.026-.121l-.9-.007a.135.135,0,0,0,.019.1c.07.093.189.047.242.019Z"/><path class="cls-4" d="M29.652,19.224l-.932,0c-.16.153.048.228.226.122a.179.179,0,0,0,.22.041.176.176,0,0,0,.229-.034c.1.045.209.058.257-.126Z"/><path d="M29.252,19.422a.147.147,0,0,1-.091-.031.188.188,0,0,1-.222-.044c-.09.075-.252.066-.28,0-.01-.025-.009-.069.055-.13h.938c-.02.116-.073.171-.15.171h0a.281.281,0,0,1-.111-.029.185.185,0,0,1-.139.064Zm-.09-.046a.181.181,0,0,0,.227-.032c.163.057.218.02.255-.123l-.924.008c-.039.04-.058.08-.045.11.021.056.163.058.267,0a.2.2,0,0,0,.22.04Z"/><path class="cls-4" d="M29.625,19.8l-.9-.007c-.017.16.165.14.236.1a.187.187,0,0,0,.278.021.148.148,0,0,0,.209-.011c.1.086.182-.024.175-.1Z"/><path d="M29.1,19.977a.171.171,0,0,1-.148-.076.182.182,0,0,1-.212,0,.127.127,0,0,1-.025-.1h.906a.126.126,0,0,1-.03.115.1.1,0,0,1-.073.034h0a.117.117,0,0,1-.077-.033c-.029.06-.127.066-.208.011a.167.167,0,0,1-.133.054Zm-.145-.088a.181.181,0,0,0,.145.072.193.193,0,0,0,.132-.05c.1.048.163.045.208-.01a.176.176,0,0,0,.078.028h0a.084.084,0,0,0,.061-.029.138.138,0,0,0,.034-.095h-.89a.146.146,0,0,0,.03.08c.057.064.151.032.2,0Z"/><path class="cls-4" d="M29.669,20.384l-1-.017c-.056.17.1.2.171.16.024.1.158.065.191-.007a.1.1,0,0,0,.147-.01c.015.092.131.095.22.017.182.126.353-.02.274-.143Z"/><path d="M28.915,20.6a.083.083,0,0,1-.086-.068c-.021.046-.128.023-.162-.025a.149.149,0,0,1-.009-.14l1.011.012a.115.115,0,0,1,.013.13.165.165,0,0,1-.146.078h0a.255.255,0,0,1-.146-.05c-.069.079-.208.069-.223-.023-.006.041-.1.066-.144.015a.11.11,0,0,1-.108.071Zm-.082-.077a.088.088,0,0,0,.082.061.124.124,0,0,0,.106-.064.116.116,0,0,0,.148-.012c.04.086.138.088.22.016a.311.311,0,0,0,.147.046h0a.148.148,0,0,0,.132-.069.106.106,0,0,0-.006-.11l-1-.013a.154.154,0,0,0,.014.12.129.129,0,0,0,.153.025Z"/><path class="cls-4" d="M30.56,20.145l-.836-.007c.038.171.12.215.254.116a.231.231,0,0,0,.3.014c.181.147.28-.024.277-.123Z"/><path d="M30.414,20.333h0a.228.228,0,0,1-.137-.059c-.028.063-.223.071-.3-.014-.106.1-.216.059-.256-.12l.844,0a.18.18,0,0,1-.048.154.135.135,0,0,1-.1.042Zm-.138-.07a.283.283,0,0,0,.138.054h0a.116.116,0,0,0,.086-.038.2.2,0,0,0,.052-.133h-.828c.05.153.124.194.249.1a.259.259,0,0,0,.3.016Z"/><path class="cls-4" d="M30.474,19.575l-.808-.024c.013.205.208.2.308.109a.164.164,0,0,0,.257,0c.1.1.271.041.243-.085Z"/><path d="M30.1,19.731a.166.166,0,0,1-.134-.066.184.184,0,0,1-.144.062.163.163,0,0,1-.165-.175l.817.015a.1.1,0,0,1-.014.105.167.167,0,0,1-.236-.006.133.133,0,0,1-.124.065Zm-.132-.077a.173.173,0,0,0,.255,0,.169.169,0,0,0,.224.006.1.1,0,0,0,.018-.085l-.8-.018a.154.154,0,0,0,.158.152.225.225,0,0,0,.146-.057Z"/><path class="cls-4" d="M30.58,18.934h-.87a.2.2,0,0,0,.35.089c.041.163.2.112.267.047.1.127.329-.017.253-.136Z"/><path d="M30.182,19.141a.133.133,0,0,1-.13-.117.2.2,0,0,1-.157.077.186.186,0,0,1-.193-.167l.878-.008a.1.1,0,0,1,.009.111.189.189,0,0,1-.159.09h0a.134.134,0,0,1-.11-.052.174.174,0,0,1-.138.066Zm-.128-.125a.161.161,0,0,0,.267.048.156.156,0,0,0,.109.047h0a.174.174,0,0,0,.145-.082.085.085,0,0,0,0-.091l-.863,0a.186.186,0,0,0,.185.142.232.232,0,0,0,.159-.068Z"/><path class="cls-4" d="M30.529,18.5l-.778.01a.133.133,0,0,0,.24.079.135.135,0,0,0,.206,0c.062.1.136.031.16,0,.09.065.186.035.172-.085Z"/><path d="M29.886,18.648a.157.157,0,0,1-.113-.048.118.118,0,0,1-.03-.094l.786-.017a.109.109,0,0,1-.016.107.086.086,0,0,1-.066.028h0a.159.159,0,0,1-.094-.035.1.1,0,0,1-.163,0c-.012.063-.17.067-.206,0a.094.094,0,0,1-.1.058Zm.635-.15-.77.017a.164.164,0,0,0,.034.074.135.135,0,0,0,.2-.008.15.15,0,0,0,.206,0c.077.071.131.039.161,0a.235.235,0,0,0,.1.03h0a.069.069,0,0,0,.054-.022.111.111,0,0,0,.02-.087Z"/><path class="cls-4" d="M31.44,18.78l-.952-.01a.106.106,0,0,0,.161.1c0,.1.134.126.219.051a.188.188,0,0,0,.3-.007c.141.116.291.035.274-.133Z"/><path d="M31.021,19a.2.2,0,0,1-.159-.073c-.053.078-.222.039-.221-.056-.012.045-.093.026-.13-.011a.114.114,0,0,1-.031-.088l.96,0a.169.169,0,0,1-.033.157.178.178,0,0,1-.246-.009.143.143,0,0,1-.14.078Zm-.158-.084a.2.2,0,0,0,.3-.005c.1.061.185.066.236.009a.174.174,0,0,0,.037-.137l-.944,0a.158.158,0,0,0,.035.068.1.1,0,0,0,.121.016c.022.116.152.111.219.052Z"/><path class="cls-4" d="M31.426,19.558l-.931,0a.15.15,0,0,0,.243.105.121.121,0,0,0,.205.062.186.186,0,0,0,.295,0,.143.143,0,0,0,.188-.161Z"/><path d="M31.1,19.8a.212.212,0,0,1-.158-.075.12.12,0,0,1-.207-.065c-.042.081-.236.036-.243-.107l.939,0a.151.151,0,0,1-.033.141.138.138,0,0,1-.1.045h0a.166.166,0,0,0-.2.066Zm-.157-.086a.191.191,0,0,0,.293,0c.027,0,.044.006.06.006h0a.121.121,0,0,0,.09-.04.156.156,0,0,0,.037-.121l-.923,0a.154.154,0,0,0,.238.091.129.129,0,0,0,.2.062Z"/><path class="cls-4" d="M31.378,20.257l-.736-.01a.128.128,0,0,0,.223.079.158.158,0,0,0,.243.017.155.155,0,0,0,.27-.086Z"/><path d="M31.234,20.4h0a.2.2,0,0,1-.131-.051c-.041.071-.174.064-.245-.018a.129.129,0,0,1-.224-.084l.744,0a.141.141,0,0,1-.144.151Zm-.132-.062a.254.254,0,0,0,.132.046h0a.134.134,0,0,0,.136-.128h-.728c.014.125.161.121.217.065.087.076.185.083.243.018Z"/><path d="M30.2,21.359a7.4,7.4,0,0,1-1.076-.034,1.189,1.189,0,0,1-.548-.191c-.281-.167-.35-.208-.747-.44-.061-.035-.127.009-.041.065.4.263.553.36.743.485a2.068,2.068,0,0,1,.449.381c.157.178.274.181.346.154a.512.512,0,0,1,.3-.037,1,1,0,0,0,.342.017.437.437,0,0,0,.329.031.527.527,0,0,1,.227-.017.765.765,0,0,0,.229-.007,1.412,1.412,0,0,1,.356-.011.787.787,0,0,0,.322-.017.652.652,0,0,1,.271,0,.314.314,0,0,0,.12-.184c.081-.01.107-.021.125-.067.032-.085.064-.169.073-.206h.033l.01-.077-.067-.077.024-.147.073-.017a.32.32,0,0,0-.032-.139c-.431.017-.854.03-1.157.037A.289.289,0,0,0,30.82,21c-.184.031-.294.045-.342.055a.147.147,0,0,0-.113.065c-.062.082-.121.177-.168.238Z"/><path d="M30.14,21.815a.286.286,0,0,1-.182-.05.909.909,0,0,1-.339-.015.539.539,0,0,0-.292.036c-.108.042-.229-.012-.357-.155a2.071,2.071,0,0,0-.446-.381l-.744-.484c-.045-.03-.046-.055-.043-.066l0-.007.043-.02a.1.1,0,0,1,.048.014c.4.232.466.273.747.44a1.165,1.165,0,0,0,.545.19,5.138,5.138,0,0,0,.734.038c.111,0,.226,0,.341,0,.016-.027.042-.065.07-.106s.06-.087.091-.129a.154.154,0,0,1,.112-.067c.031-.006.072-.013.13-.021l.219-.035a.236.236,0,0,1,.076-.141c.307-.009.73-.022,1.161-.039a.27.27,0,0,1,.04.148l-.079.024L32,21.126l.065.07-.008.083a.6.6,0,0,0-.106.208c-.019.05-.049.062-.132.072a.291.291,0,0,1-.116.183.787.787,0,0,0-.274,0,.776.776,0,0,1-.325.017,1.4,1.4,0,0,0-.354.011.792.792,0,0,1-.232.007.528.528,0,0,0-.223.017.734.734,0,0,1-.154.017Zm-.178-.064a.391.391,0,0,0,.329.031.544.544,0,0,1,.23-.017.915.915,0,0,0,.226-.007,1.432,1.432,0,0,1,.359-.011.8.8,0,0,0,.318-.017.729.729,0,0,1,.275,0,.326.326,0,0,0,.11-.178c.09-.017.11-.027.126-.068.031-.085.063-.168.072-.205l.043-.076-.065-.07.022-.154.079-.024a.444.444,0,0,0-.037-.127c-.424.021-.847.034-1.15.041a.305.305,0,0,0-.071.137l-.226.041c-.058.009-.1.015-.122.02a.143.143,0,0,0-.109.062c-.031.041-.062.087-.09.129s-.054.079-.077.109a6.149,6.149,0,0,1-1.084-.031,1.2,1.2,0,0,1-.551-.191c-.281-.168-.35-.209-.747-.441l-.069,0c0,.01,0,.027.036.048l.744.485a2.1,2.1,0,0,1,.45.383c.122.137.238.19.337.151a.552.552,0,0,1,.3-.037,1.015,1.015,0,0,0,.339.017Z"/><path d="M31.584,20.838c.02-.072.077-.267.178-.635.017-.061-.042-.086-.065-.007-.121.43-.166.591-.182.645.024,0,.057,0,.069,0Z"/><path d="M31.584,20.846l-.065-.006.031-.009.034.007,0-.045c.027-.095.081-.282.166-.592l0-.045-.018,0c-.01,0-.025.012-.034.044l-.19.642v0h-.008l.182-.645c.01-.035.029-.056.05-.056.035.026.037.045.031.067-.085.311-.139.5-.166.592l-.02.049Z"/><path class="cls-4" d="M32.252,20.118c-.146.075-.216.1-.283.078a.29.29,0,0,0-.2-.01l0,.017c-.062.227-.108.387-.138.5.108.037.293.043.337,0s.166-.037.227-.034a.183.183,0,0,0,.045-.145.231.231,0,0,1,.009-.128.58.58,0,0,0,.01-.269Z"/><path d="M29.634,21.364l.013-.044h-.109l.012.035-.026-.035-.016.039.015-.039h-.069l.011.033-.011-.033h-.042l-.017.034.017-.034h0l.006,0-.028,0,.009.03-.009-.03-.072.005,0,.02,0-.02H29.3l-.105-.471-.076-.311.016,0,.022.039-.015-.048.016,0,.015.053H29.2l0-.011.016-.005,0,.016h.041l-.04.006.012.036h.031l-.013-.035.015,0,.216.591.428-.886.015.007-.018.037.013,0,.023-.059.015.006-.02.05.018,0,.02-.064.016.006-.018.055.016,0L30,20.277l.016,0-.279,1.081.109-.451h-.065l-.022.067.064,0v.016h-.068l-.018.056.072,0v.016h-.076l-.024.073.073,0v.016h-.077l-.021.067.082,0v.016H29.68l-.028.085.089,0v.016h-.093l-.014.044Zm-.181-.05v0l.076-.016-.031-.079-.041.005.038,0v.016h-.044l-.014.027.013.041h.076l-.074,0Zm-.379,0h-.016v-.052h-.076l0,.036,0-.036-.08.018,0-.018h-.091l.025,0,.012-.069h-.07l-.011.044.01-.044h0l.015-.071h0l.015-.068h0l.016-.07h0l.087-.4.016,0,0,.011.034-.025.016,0,0,.017.019,0L29,20.551l.016,0,0,.039.031,0,.005-.053.016,0,0,.049h0v0h.007l-.006.046h.006l-.006.058h.006l.008.626Zm-.54-.209c.006-.052.013-.111.022-.176-.044.046-.087.088-.126.122.037-.044.082-.094.13-.147.018-.136.041-.293.065-.451-.192.185-.367.34-.481.429l-.01-.014c.117-.09.3-.25.5-.44.034-.233.069-.465.09-.634l.016,0c-.02.164-.054.389-.089.615.225-.218.469-.472.662-.7a.683.683,0,0,1-.178-.126l.014-.009a.721.721,0,0,0,.174.123,2.164,2.164,0,0,0,.327-.478,1.994,1.994,0,0,1-.318.483.638.638,0,0,0,.242.091.562.562,0,0,1-.251-.079,9.328,9.328,0,0,1-.676.723c-.025.159-.051.319-.074.458l.119-.13c.066-.071.13-.14.184-.192l.012.011c-.054.053-.118.122-.184.193-.045.048-.09.1-.135.144-.011.068-.021.13-.03.184Zm2.035-.062.007-.025-.029-.06h.008l-.034-.086h0l-.033-.087h0l-.032-.087h0l-.03-.087h0l-.1-.3.016-.006.015.046.022,0-.009-.022.016-.006.01.026.022,0-.007-.014.015-.008.009.02.034,0-.013-.022.013.022h.012l0,.016.043.072h.01v.016l.043.071h.007v.013l.045.074h.005v.009l.044.073.1-.318.059,0,.01-.035.016.005-.01.03.035-.009,0,.009h.033l-.034,0-.017.08h.047l.013-.07.016,0-.114.547.011.019-.018.012-.009.046.008-.046h-.061l-.007.032.008.016-.008-.016,0,.023-.016,0,.01-.042-.005-.009-.067.005-.008.028.011.028L30.665,21l-.012.036.011-.038-.011-.025-.06,0-.016.048,0,.017-.006-.016-.007.024Zm.23-.171.031.052.072-.393-.051,0-.016.08h.051l-.052,0-.017.081h.052l-.053,0-.017.08h.052l-.053,0-.012.061.011.019h.036l-.034,0Zm.255-.012.091-.069-.018-.047h.005l-.022-.069h0l-.02-.068h0l-.061-.221.016,0,0,.019.033,0-.012-.034.016-.005.012.037.035,0-.011-.03.011,0c-.083-.078-.164-.163-.244-.252a.421.421,0,0,1-.217.146l0-.016a.489.489,0,0,0,.217-.135,11.834,11.834,0,0,1-.935-1.248l-.01-.014a.831.831,0,0,1-.212.1l0-.016a.93.93,0,0,0,.208-.094l-.15-.219.014-.01.15.22a.594.594,0,0,0,.121-.093.519.519,0,0,1-.113.1l.009.014A12.623,12.623,0,0,0,30.9,20.1a.141.141,0,0,0,.013-.024.133.133,0,0,1-.01.028c.092.1.186.2.281.292l.023,0h0l.007,0,.018.049c.055.049.109.095.163.137a2.487,2.487,0,0,0,.207-.229l-.022-.039a3.389,3.389,0,0,1-.842-.843.873.873,0,0,1-.2.1l0-.015a1,1,0,0,0,.2-.1,3.447,3.447,0,0,1-.22-.349l.014-.008a3.634,3.634,0,0,0,.22.349.714.714,0,0,0,.156-.132.547.547,0,0,1-.148.143,3.591,3.591,0,0,0,.826.847,5.669,5.669,0,0,1-.423-1.2l-.04-.139.055.135a5.477,5.477,0,0,0,.438,1.223l.008.006c.021-.027.042-.054.061-.081l.014.01-.061.08.027.017-.027-.017-.007.01.027.045-.014.008-.025-.04a2.266,2.266,0,0,1-.2.223,1.825,1.825,0,0,0,.156.108,1.814,1.814,0,0,1-.159-.105c-.028.027-.058.054-.088.08l.066.179-.071-.175,0,0-.007,0-.037.031.009.026.06,0v.016h-.056l.02.056.062,0v.016H31.3l.011.032-.012-.032h-.064l.01.034-.012-.034h-.081l.009.036-.019-.036h.008l0-.016c-.03.022-.061.044-.092.064Zm.181-.411.075.2c.027-.025.054-.05.08-.076-.052-.039-.1-.08-.155-.125Zm.583.285a.621.621,0,0,1-.2-.031l.133-.5a.226.226,0,0,1,.218-.012c.063.024.133,0,.276-.078l.009,0,0,.01a.577.577,0,0,1-.011.274.221.221,0,0,0-.008.123.2.2,0,0,1-.046.152c-.078,0-.188-.007-.228.035a.232.232,0,0,1-.149.036Zm.021-.557a.154.154,0,0,0-.07.014l-.131.485a.382.382,0,0,0,.317.01c.045-.047.158-.04.223-.036a.164.164,0,0,0,.047-.134.252.252,0,0,1,.009-.134.555.555,0,0,0,.012-.254c-.142.072-.211.1-.28.074a.378.378,0,0,0-.127-.025Zm-3.954.552a7.206,7.206,0,0,0,.909-1.522.466.466,0,0,1-.054.02c.017-.008.037-.019.06-.032.055-.12.1-.228.129-.314l.015.006c-.028.081-.069.182-.12.3a2.162,2.162,0,0,0,.236-.154l.011.013a1.5,1.5,0,0,1-.254.155,6.647,6.647,0,0,1-.932,1.533Zm.906-.354,0-.016a1.664,1.664,0,0,0,.359-.187l-.007,0,.009-.013.012.008a1.538,1.538,0,0,0,.3-.253,1.294,1.294,0,0,1-.286.261,1.136,1.136,0,0,0,.4.2.872.872,0,0,1-.416-.192,1.586,1.586,0,0,1-.366.2Zm2.48-.129a.7.7,0,0,1-.29-.215l.013-.011a.891.891,0,0,0,.277.226Zm-1.51-.1a1.473,1.473,0,0,0,.327-.264l.015,0,0,.014a.985.985,0,0,1-.338.253Zm.753-.009a.785.785,0,0,1-.354-.235l.012-.012a.878.878,0,0,0,.342.247Zm-1.753-.332-.006-.015a.984.984,0,0,0,.3-.2.751.751,0,0,1-.3.216Zm1.675-.239a.521.521,0,0,1-.221-.144c-.026-.023-.05-.046-.074-.066l.011-.012c.024.02.049.043.074.066a.775.775,0,0,0,.21.156Zm-.723,0a1.5,1.5,0,0,0,.372-.237l.01.012a1.149,1.149,0,0,1-.382.225Zm1.5-.011a.577.577,0,0,1-.254-.223l.014-.008a.746.746,0,0,0,.24.231Zm-1.7-.333a.845.845,0,0,1-.394-.171l.01-.013a.953.953,0,0,0,.41.182l-.026,0Zm.965-.291a.7.7,0,0,1-.368-.2l.012-.01a.859.859,0,0,0,.356.212Zm.11-.146h0a.728.728,0,0,0,.292-.184l.011.012a.573.573,0,0,1-.3.173Zm.563-.01c-.068,0-.173-.1-.214-.169l.014-.009a.456.456,0,0,0,.206.178Zm-2.406-.008a1.178,1.178,0,0,0,.307-.265l.012.011a.858.858,0,0,1-.319.254Zm.7-.006a.535.535,0,0,1-.334-.229l.014-.009a.615.615,0,0,0,.32.238Zm.3-.241,0-.016a.539.539,0,0,0,.312-.181.477.477,0,0,1-.309.2Zm.709-.025A.714.714,0,0,1,30.1,18.3l.011-.013a.884.884,0,0,0,.357.2Z"/><path class="cls-12" d="M29.025,21.6a.374.374,0,0,1,.38.014.4.4,0,0,1,.4.037.314.314,0,0,1,.4-.017.353.353,0,0,1,.4.007c.123-.058.26-.106.38.02a.317.317,0,0,0-.38.024.3.3,0,0,0-.4.007.259.259,0,0,0-.39.007.344.344,0,0,0-.408-.028.427.427,0,0,0-.38-.071Z"/><path class="cls-11" d="M30.9,21.455a8.052,8.052,0,0,1-1.993-.037c-.089-.023-.065-.055.01-.038a6.438,6.438,0,0,0,1.294.051c.068-.09.176-.244.208-.286s.047-.047.115-.058l.3-.05a.31.31,0,0,1,0,.041c-.009.007-.018.019-.024.022a2.233,2.233,0,0,0,.026.3l.041-.008c.024-.007.047.054.024.061Z"/><path class="cls-11" d="M31.79,21.481l.071,0a.077.077,0,0,0,.068-.049c.013-.035.056-.161.071-.214l-.055-.082c.013-.068.028-.16.029-.179l.071-.025a.114.114,0,0,0-.017-.071c-.235.009-.937.033-1.066.035-.031,0-.045,0-.056.043a.786.786,0,0,0,.271.777c.017.014.038,0,.009-.023a.892.892,0,0,1-.147-.191l.175,0a1.915,1.915,0,0,0,.066.2c.009.02.029.023.02-.008-.024-.071-.036-.153-.047-.192.045,0,.129,0,.18,0,0,.064.01.151.011.175s.022.026.023,0,0-.143,0-.177l.16,0c0,.037-.012.156-.015.175s.011.041.018,0,.021-.131.024-.178l.111,0a1.439,1.439,0,0,1-.047.175c-.011.029.006.031.017,0a1.048,1.048,0,0,0,.054-.179Z"/><path d="M31.012,21.453a.835.835,0,0,1-.082-.268l.233,0c.009.073.032.23.044.268l-.2,0Z"/><path d="M31.2,21.18c.007.056.037.248.041.27.051,0,.169,0,.189,0,0-.051-.01-.243-.01-.271l-.22.006Z"/><path d="M30.94,20.942a1.035,1.035,0,0,0-.009.2c.059,0,.207,0,.228,0-.006-.051-.014-.143-.019-.2l-.2.006Z"/><path d="M31.184,20.936c0,.047.012.164.016.2l.222-.006c0-.043-.01-.184-.011-.2-.069,0-.184.006-.227.007Z"/><path d="M31.457,20.928c0,.044.007.169,0,.2.055,0,.16,0,.192-.005,0-.044.01-.172.007-.2l-.2.008Z"/><path d="M31.7,20.919c0,.037-.005.169-.006.2l.209-.007c.009-.044.026-.158.031-.206l-.234.008Z"/><path d="M31.911,21.161l-.221.006c-.006.087-.017.236-.022.27l.214-.006a2.105,2.105,0,0,0,.076-.208c-.016-.024-.028-.037-.047-.062Z"/><path d="M31.464,21.174c0,.03.005.25.006.268.04,0,.144,0,.16,0,.007-.085.02-.249.022-.27l-.188.006Z"/><path d="M30.554,21.121l-.089.015c-.041.067-.193.271-.212.3.106,0,.272-.006.312-.01,0-.055-.01-.273-.011-.3Z"/><path d="M30.6,21.113c0,.07.008.257.009.306l.189-.012c-.009-.088-.025-.3-.028-.324l-.17.03Z"/><path d="M29.675,20.376c.011,0,.013.01,0,.01l-1.012-.012c-.013,0-.012-.011,0-.01Z"/><path d="M29.674,20.394l-1.012-.012.506-.007.506.011h0v.008Zm0-.017-.493,0,.494-.007v.009Z"/><path d="M30.47,19.569c.011,0,.013.011,0,.011l-.8-.022c-.014,0-.012-.011,0-.011Z"/><path d="M30.47,19.588l-.8-.022.41,0,.393.008v.016Zm0-.017-.387-.007.387,0v.01Z"/><path d="M29.624,19.8c.011,0,.013.011,0,.011l-.9-.007c-.013,0-.011-.01,0-.01Z"/><path d="M29.624,19.818l-.9-.007.449-.01.449.009v.008Zm0-.017h-.441l.441-.01v.01Z"/><path d="M29.651,19.219c.011,0,.013.01,0,.01l-.939,0c-.014,0-.013-.011,0-.011Z"/><path d="M29.651,19.237l-.939,0,.939-.012v.016Zm-.461-.015.461-.011v.01Z"/><path d="M29.586,18.762c.011,0,.013.01,0,.01l-.913-.014c-.014,0-.012-.01,0-.01Z"/><path d="M29.586,18.78l-.913-.014.456-.006.457.012v.008Zm0-.017-.45,0,.45-.006v.009Z"/><path class="cls-4" d="M30.53,18.494c.012,0,.014.009,0,.009l-.783.008c-.014,0-.012-.01,0-.01Z"/><polygon points="29.746 18.519 29.729 18.506 30.53 18.485 30.238 18.498 30.53 18.495 29.746 18.519 29.746 18.519"/><path d="M30.578,18.929c.011,0,.013.011,0,.011h-.865c-.014,0-.013-.011,0-.011Z"/><polygon points="30.578 18.948 29.713 18.948 30.578 18.932 30.578 18.948 30.578 18.948"/><path d="M31.427,19.551c.012,0,.013.01,0,.01H30.5c-.014,0-.012-.01,0-.01Z"/><path d="M31.427,19.569H30.5l.932-.016v.016Zm-.458-.013.458-.013v.01l-.458,0Z"/><path d="M31.44,18.774c.012,0,.014.011,0,.011l-.952-.01c-.014,0-.012-.01,0-.01Z"/><path d="M31.44,18.793l-.952-.01.466-.008.486.01h0v.009Zm0-.017h-.475l.475-.009v.01Z"/><path d="M30.56,20.139c.011,0,.013.01,0,.01l-.838-.006c-.013,0-.012-.01,0-.01Z"/><polygon points="30.56 20.157 29.722 20.151 30.56 20.141 30.56 20.149 30.56 20.144 30.56 20.157 30.56 20.157"/><path d="M31.378,20.252c.013,0,.014.01,0,.01l-.736-.009c-.014,0-.012-.011,0-.011Z"/><path d="M31.378,20.27l-.736-.009.368-.009.368.01v.008Zm0-.017h-.359l.359-.008v.009Z"/><path class="cls-14" d="M32.043,20.392a.388.388,0,0,0,.012-.19.155.155,0,0,1-.086-.006.345.345,0,0,0-.045-.014.91.91,0,0,1-.046.239.4.4,0,0,1-.172-.016l-.035.123a.444.444,0,0,0,.192,0,.323.323,0,0,1-.058.2.233.233,0,0,0,.156-.033l.007-.006a.478.478,0,0,0,.041-.171.1.1,0,0,0,.068-.019.082.082,0,0,1,.059-.019.212.212,0,0,0,.092-.018.207.207,0,0,1,.014-.074.4.4,0,0,0,.013-.058.689.689,0,0,1-.212.063Z"/><path d="M31.818,20.736h-.013a.462.462,0,0,0,.05-.208.269.269,0,0,1-.185.009l.023-.116.01,0-.024.112a.793.793,0,0,1,.085,0,.43.43,0,0,0,.1-.011.307.307,0,0,1-.039.2.2.2,0,0,0,.133-.031A.289.289,0,0,0,32,20.551l.021-.042a.081.081,0,0,0,.054-.017.1.1,0,0,1,.066-.021.211.211,0,0,0,.087-.018.127.127,0,0,1,.01-.069.4.4,0,0,0,.013-.056.431.431,0,0,1-.2.073.843.843,0,0,0,.007-.154.227.227,0,0,1,0,.149,1.716,1.716,0,0,0,.2-.075.119.119,0,0,1,0,.069.224.224,0,0,0-.013.071.239.239,0,0,1-.1.027.076.076,0,0,0-.057.016.106.106,0,0,1-.066.021.442.442,0,0,1-.042.167.233.233,0,0,1-.157.044Zm.02-.3a.481.481,0,0,1-.124-.019c.041,0,.086,0,.124,0h0a.4.4,0,0,0,.078-.236.11.11,0,0,1,.056.007.145.145,0,0,0,.047.008l.01.01a.117.117,0,0,1-.063,0,.253.253,0,0,0-.044-.014.615.615,0,0,1-.036.235l0,0-.046.005Z"/><path d="M28.773,15.948a1.669,1.669,0,0,0-.378.031c-.048.027-.069.039.015.054a1.027,1.027,0,0,1,.3.1.236.236,0,0,1,.12.251.786.786,0,0,0,.4.837c.026.013.033.022.026.071a.539.539,0,0,1-.038.151c-.015.022-.022.055.025.039-.033.061-.106.183-.128.214-.219-.027-.4,0-.414.231,0,.023.006.058.04,0a.22.22,0,0,1,.167-.125.314.314,0,0,0-.064.209c.009.049.022.079.046.017a.363.363,0,0,1,.115-.156c.018-.014.029-.017.016.022a.2.2,0,0,0,.033.15c.027.028.04.016.033-.03s0-.142.061-.172a.128.128,0,0,1,.184.036c.033.056.062,0,.026-.061s-.073-.109-.133-.113c.052-.092.113-.2.127-.226s.034-.032.051-.019.031.012.049-.025a.71.71,0,0,1,.093-.191.235.235,0,0,0,.072-.027c.057.085.11.178.123.2a.062.062,0,0,1,.016.072c-.014.043-.06.18-.067.21-.163.006-.237.009-.29.1-.022.04.013.055.053.034a.26.26,0,0,1,.122-.034c.027,0,.041.019.013.033-.1.049-.162.111-.158.2,0,.031.015.047.039,0a.276.276,0,0,1,.173-.135c0,.073.011.179.056.2s.048,0,.032-.042a.17.17,0,0,1,.034-.174c.069-.078.229.029.259.056s.057.038.04-.031c-.022-.092-.153-.145-.265-.16a4.443,4.443,0,0,1,.159-.557c.066.036.117-.058.227-.018a2.807,2.807,0,0,1,.508.279c.049.039.066.03.091.009s.065,0,.1.006.062.015.02-.068a.942.942,0,0,0-.313-.341c.1.008.239.008.239-.018s-.159-.077-.224-.083a.443.443,0,0,0,.2-.1c.026-.03-.006-.037-.1-.039a1.132,1.132,0,0,1-.578-.089c-.238-.136-.374-.28-.491-.341a.311.311,0,0,1-.125-.173c-.077-.208-.074-.3-.256-.37a.518.518,0,0,0-.486.1Z"/><path class="cls-4" d="M28.785,16a1.508,1.508,0,0,0-.212-.006c-.017,0-.038.011,0,.016a1.411,1.411,0,0,1,.192.046c.039.014.022.034-.011.025s-.048,0-.019.024c.145.1.16.142.123.493a.565.565,0,0,0,.074.045c.023.012.017.029-.009.022s-.05.008-.009.017.06.027.02.026-.085.032-.008.024.108.027.017.028-.056.031-.009.031c.086,0,.061.024.039.024s-.033.029.024.024a.384.384,0,0,1,.1,0c.02,0,.029.02,0,.022s-.029.024.017.024.066.013.024.022c-.017,0-.041.012.009.019.086.012.089.032.061.035s-.031.019.009.023.073.015.041.024-.05.027-.009.03.076.019.045.029-.037.029,0,.028.054.02.027.035-.046.026-.063,0-.027-.036-.033-.016-.017.007-.03-.024-.038-.039-.031-.015-.024.027-.054.015a.438.438,0,0,0,.521.106c.022-.009.026,0,.043.036s.065.114.082.143.031,0,.04-.026c.034-.112.059-.2.07-.226s.058-.062.043.046a.49.49,0,0,1,.333,0,1.58,1.58,0,0,1,.359.19.081.081,0,0,0,.065.018c.034,0,.042-.008-.023-.068s-.037-.089,0-.06.063.012.032-.024a1.186,1.186,0,0,0-.128-.123.118.118,0,0,0-.082-.027c-.055,0-.172,0-.206,0s-.045,0,.031.03a1.814,1.814,0,0,1,.264.151c.034.023.058.078-.017.03a2.907,2.907,0,0,0-.47-.248c-.359.024-.643.071-.856-.161a.327.327,0,0,1,.065-.471c-.034-.029-.029-.046-.016-.053s.019-.013.006-.03-.012-.033,0-.04c-.038-.02-.055-.044-.053-.07-.046-.01-.067-.064-.129-.047a.114.114,0,0,1-.111-.012.078.078,0,0,0-.068-.019c-.035,0-.063-.01-.064-.027s.029-.026.075-.006c.1.043.177.064.237-.016s-.017-.156-.132-.178a.286.286,0,0,0-.242.1Z"/><path d="M29.773,17.387l-.022-.017c-.035-.059-.068-.115-.082-.144l-.023-.042-.01.011a.446.446,0,0,1-.53-.108l.057-.011.046,0,.076.06.034-.023h-.007l-.051-.035.037-.032h0a.237.237,0,0,0-.049-.01v-.006l0-.01c.026,0,.062.01.064.026l-.037.031c.055,0,.063.008.067.021-.032.038-.046.046-.059.046l-.1-.061,0,0-.044.008a.418.418,0,0,0,.487.083c.037,0,.039.011.053.038s.047.086.069.122l.021.04v0l.016-.041c.034-.112.06-.2.07-.227l0-.006.035-.028c.025.018.028.044.022.084.022-.042.164-.071.328-.011a1.62,1.62,0,0,1,.361.191.069.069,0,0,0,.048.018c.029-.007.024-.018-.016-.055s-.047-.056-.04-.072h.054a.325.325,0,0,0-.106-.134.108.108,0,0,0-.078-.025c-.054,0-.171,0-.2,0a2,2,0,0,1,.3.166c.017.013.04.039.034.055a.06.06,0,0,1-.061-.011,2.512,2.512,0,0,0-.468-.248l-.1.008c-.094.007-.183.014-.267.014a.62.62,0,0,1-.494-.185.333.333,0,0,1-.07-.263.3.3,0,0,1,.137-.219.035.035,0,0,1-.03-.034l0,0,.009-.069a.106.106,0,0,1-.044-.081c-.013,0-.028-.007-.042-.018a.1.1,0,0,0-.056-.024c-.109.023-.11.013-.139-.011a.091.091,0,0,0-.055-.018c-.055,0-.079-.015-.08-.034.049-.026.067-.022.086-.013.087.038.174.057.227-.014a.079.079,0,0,0,.015-.076.184.184,0,0,0-.142-.089A.362.362,0,0,0,28.8,16L28.741,16a1.127,1.127,0,0,0-.156,0c.047-.061.112-.016.157-.013a.642.642,0,0,1,.247-.1c.116.019.175.057.193.1a.089.089,0,0,1-.017.091c-.057.078-.154.06-.246.02a.117.117,0,0,0-.045-.011c-.02.02.01.028.036.028a.1.1,0,0,1,.075.02.11.11,0,0,0,.1.011.134.134,0,0,1,.091.024.1.1,0,0,0,.042.023.091.091,0,0,0,.055.071l.02.075-.009.062a.286.286,0,0,0-.13.208.313.313,0,0,0,.067.25.6.6,0,0,0,.481.179c.084,0,.172-.006.266-.013l.1-.008a2.45,2.45,0,0,1,.474.25c.039.016.026,0,.008-.016a1.651,1.651,0,0,0-.262-.15c-.059-.021-.064-.027-.062-.036a1.411,1.411,0,0,1,.24-.007.117.117,0,0,1,.079.024,1.026,1.026,0,0,1,.137.129l0,.052-.064-.026c-.007.009,0,.029.031.057s.055.055.05.068l-.045.015a.089.089,0,0,1-.058-.021,1.6,1.6,0,0,0-.356-.188.4.4,0,0,0-.326,0c-.006-.056-.014-.069-.016-.071a1.034,1.034,0,0,0-.094.248c-.01.031-.02.044-.033.044Zm-.641-.479-.064-.044.042-.022a.559.559,0,0,0-.109,0h-.009l-.043-.021.039-.023a.21.21,0,0,0-.051,0c-.023,0-.055-.007-.056-.025s.021-.021.065-.022.047-.006.048-.008l-.042-.014-.022.01-.051-.013c0-.016.033-.028.055-.028l-.047-.03.022,0-.007.007c.025,0,.067.011.065.029l-.071.025.056-.006c.027,0,.058.006.058.024s-.021.022-.064.023-.049.007-.049.007c.064.007.109,0,.109.028l-.04.024.108,0,.052.023-.042.021c.05,0,.083.006.085.022l-.037.021Zm-.207-.263c-.025-.016-.045-.028-.069-.045.034-.36.018-.393-.123-.493l.013-.019c.149.114.159.166.123.506.024.011.046.025.069.037l-.013.014Z"/><path class="cls-4" d="M29.361,15.966a.372.372,0,0,0-.127-.082c-.031-.01-.034.02-.017.036-.014.02-.019.069.005.083s.025.033,0,.045-.023.107.029.082c.017-.009.03-.006.028.008a.026.026,0,0,0,.018.034c.016,0,.014.026.01.034s0,.012.019.014.02.043-.012.056c.038,0,.048-.007.058.024s.052.037.052.075-.007.045-.052.038a.068.068,0,0,0-.075.024c-.014.017-.017.034.017.035s.041.018.007.033-.09.005-.1.037,0,.048.025.036.079-.034.1-.046a.035.035,0,0,1,.056.014c.017.027,0,.058-.025.034s-.043,0-.06.012a.12.12,0,0,1-.071.022c-.027,0-.046,0-.042.065.01.184.154.321.418.317s.394-.007.433,0a.412.412,0,0,0-.173-.07c-.031,0-.057.009-.043-.015s0-.024-.015-.034-.031-.024-.059,0a.308.308,0,0,1-.125.068c-.032.007-.072,0-.041-.025s.1-.041.12-.055.021-.022.021-.032,0-.04.034-.017a.99.99,0,0,0,.235.109c.033,0,.055-.015.025-.034s-.037-.046-.029-.056.014-.021.065.008.136.067.167.08.071.009.008-.037-.26-.176-.315-.217-.031.008-.026.024-.037.034-.059.015-.039-.039-.008-.056.038-.019-.008-.06-.06-.037-.05,0,.014.071-.034.053-.072-.041-.041-.06.07-.029.018-.072-.035,0-.048.024-.05.024-.073.005-.033-.037-.017-.052.014-.024.036-.012.056,0,.015-.031-.056-.021-.048,0-.024.056-.075.008c-.024-.022-.024-.053,0-.058s.028-.018.01-.044c-.105-.152-.062-.275-.166-.387Z"/><path d="M29.615,17c-.245,0-.4-.124-.416-.325a.075.075,0,0,1,.012-.062.231.231,0,0,0,.1-.032l.041-.024.043.019-.025-.048-.1.044-.056.007c0-.068.033-.073.06-.076l.059-.022-.054-.02c.022-.048.037-.062.069-.062l.046,0,0-.07-.058-.059c.029-.008.039,0,.046.02.036.038.052.052.052.077s0,.048-.036.048l-.046,0a.051.051,0,0,0-.046.023l.048.041c-.041.035-.057.038-.073.04s-.045.007-.049.022a.2.2,0,0,0,.113-.02c.044-.009.056,0,.068.017L29.4,16.6l-.043-.02a.174.174,0,0,1-.107.045.046.046,0,0,0-.034.056c.011.191.164.31.4.31V17l.01-.008.35,0a.84.84,0,0,1,.084,0,1,1,0,0,0-.169-.054l-.058,0,0-.052-.005.007-.054,0,.007.005a.309.309,0,0,1-.13.071l-.061-.009a.158.158,0,0,1,.1-.072l.1-.064a.915.915,0,0,0,.229.108A.151.151,0,0,0,30,16.854c.041-.036.057-.029.08-.015.051.029.135.066.166.079a.6.6,0,0,0-.151-.127c-.067-.045-.135-.091-.164-.112l-.057.048c-.042-.021-.058-.036-.056-.053l.042-.04a.322.322,0,0,0-.07-.06c.013-.014.026-.006.05.015s.038.035.036.047l-.041.04.039.035.024-.057.043.011c.029.022.1.067.163.113l.152.1c.028.021.039.036.036.048l-.053,0c-.031-.013-.115-.051-.167-.08a.109.109,0,0,0-.044-.018l.017.052-.03.049h0a.942.942,0,0,1-.239-.11c-.022.023-.023.034-.047.049a.342.342,0,0,0-.118.054.228.228,0,0,0,.154-.055l.069-.007,0,0,.013.041a.455.455,0,0,1,.213.074.161.161,0,0,1-.087.013l-.36,0Zm.13-.352c-.038-.015-.058-.03-.06-.047l.065-.055-.03-.031,0,.005-.076.04a.072.072,0,0,1-.043-.015l-.028-.042.036-.043-.045.023a.078.078,0,0,1-.053-.026.051.051,0,0,1-.018-.05l.032-.024,0,.018c.022.062.036.066.044.066l.021-.046a.056.056,0,0,1,.06.015v.051l-.05,0,.011.047.038.006.035-.011,0-.023.056-.007c.02.017.029.03.028.043v0l-.035.03c-.021.026-.008.038.028.052l.031-.045-.007,0a.069.069,0,0,1,.012-.019c.012.044.012.062,0,.073l-.046,0Zm-.219-.276a.72.72,0,0,1-.089-.223.366.366,0,0,0-.082-.182.356.356,0,0,0-.123-.079.168.168,0,0,0-.017.086l.034.05c-.035.034-.039.057-.035.075h0l.077.058.024.05c.024.029.027.049.018.061l-.062-.135c-.056.007-.069-.007-.075-.029a.061.061,0,0,1,.022-.067l-.021-.058a.091.091,0,0,1,.012-.067h0l.025-.039a.4.4,0,0,1,.13.084.376.376,0,0,1,.086.189.546.546,0,0,0,.08.2l-.007.028Z"/><path class="cls-11" d="M29.378,15.986c-.009.014-.012.013-.029.024s-.025.052.009.048a.069.069,0,0,0,.047-.029.3.3,0,0,0-.027-.043Z"/><path class="cls-11" d="M29.271,15.9c-.026.025-.03.036-.017.036s.009,0,0,.021.023.027.037.014.016-.019.023,0,.028,0,.042-.014a.345.345,0,0,0-.082-.057Z"/><path class="cls-11" d="M29.224,16.048c-.034.017-.023.107.029.082.017-.009.03-.006.028.008a.033.033,0,0,0,0,.022.151.151,0,0,0,.057-.041c.032-.036,0-.034-.045-.034s-.062-.009-.016-.036.014-.042-.043-.034c.008.012,0,.025-.012.033Z"/><path class="cls-11" d="M29.421,16.249c-.026-.027-.01-.041.017-.055a.027.027,0,0,0,.015-.012c-.007-.03-.014-.059-.022-.087-.015,0-.031.036-.036.052s-.014.036-.037.029-.04.017-.044.041l.014,0c.01,0,.014.014.011.027.062,0,.073.041.083.07s.025.027.035.009-.011-.05-.036-.077Z"/><path class="cls-10" d="M29.438,16.606c-.011.025-.011.023-.048.025a.169.169,0,0,0-.1.03c-.011.011-.074.014-.074.042s0,.051.027.052.031.006.021.026-.018.055.03.058.082-.012.095.015,0,.071.008.087.042.027.092.043a.867.867,0,0,0,.2.011c.039,0,.024-.027-.015-.031s-.067-.009-.076-.037-.018-.044.005-.067.043-.042.03-.082a.131.131,0,0,0-.078-.1c-.046-.013-.032-.075-.077-.081-.017,0-.032,0-.037.008Z"/><path class="cls-11" d="M29.217,16.976c.04,0,.073.015.041.024s-.05.027-.009.03.076.019.045.029-.037.029,0,.028.054.02.027.035-.046.026-.064,0-.026-.036-.032-.016-.017.007-.03-.024-.038-.039-.031-.015-.024.027-.054.015a.586.586,0,0,0,.1.081.226.226,0,0,1,.105,0,.352.352,0,0,1,.1.028c.029.016.048-.012.036-.042s-.013-.021-.029,0-.019-.006-.017-.042-.019-.023-.026,0-.022-.012-.014-.031,0-.026-.016-.02-.018,0-.02-.035-.017-.029-.022-.015-.019-.005-.04-.033-.038-.009-.074,0a.082.082,0,0,0,.025.006Z"/><path class="cls-10" d="M29.633,17.187a.428.428,0,0,1-.424-.025.23.23,0,0,1,.106,0,.352.352,0,0,1,.1.028c.029.016.048-.012.036-.042.026.032.045.054.075.053a.69.69,0,0,0,.108-.014Z"/><path class="cls-10" d="M29.233,16.328c-.011-.038-.023-.047-.043-.045a.1.1,0,0,1-.053-.011c-.023-.009-.052,0-.057.043s-.029.061-.064.086a.1.1,0,0,0-.054.087.107.107,0,0,1-.033.082c-.01.013-.024.028-.038.043a.328.328,0,0,0,.044.025c.023.012.017.029-.009.022s-.05.008-.009.017.06.027.02.026-.085.032-.008.024.108.027.017.028-.056.031-.009.031c.086,0,.061.024.039.024s-.033.029.024.024h0a.077.077,0,0,0,.018-.032c.009-.028.019-.107.051-.13a.108.108,0,0,0,.047-.077.353.353,0,0,1,.081-.148.121.121,0,0,0,.034-.119Z"/><path class="cls-11" d="M29.167,16.331c-.033-.022-.065-.009-.065.032s-.02.052-.047.066a.112.112,0,0,0-.057.079c0,.032,0,.053-.019.077s-.025.046-.009.06a.061.061,0,0,1,.024.036c.006.02.045,0,.045-.025s.009-.023.034-.036.067-.08.057-.1-.032-.034,0-.059.062-.028.062-.053a.051.051,0,0,1,.018-.043c.009-.009-.021-.023-.041-.036Z"/><path d="M29.167,16.3c-.022-.008-.034.036-.005.043s.035-.032.005-.043Z"/><path d="M29.16,16.355c-.022,0-.048.032-.009.027s.052-.033.009-.027Z"/><path d="M29.116,16.411c-.023.012-.019.043.015.02s.044-.049-.015-.02Z"/><path d="M29.079,16.458c-.023.012-.019.043.015.021s.044-.05-.015-.021Z"/><path d="M29.031,16.48c-.023.011-.008.042.026.02s.033-.049-.026-.02Z"/><path d="M29.061,16.508c-.024.012-.009.043.025.021s.033-.05-.025-.021Z"/><path d="M29.02,16.521c-.024.012-.009.042.025.02s.033-.049-.025-.02Z"/><path d="M29.046,16.554c-.023.012-.008.043.026.02s.032-.049-.026-.02Z"/><path d="M29.006,16.573c-.023.012-.008.043.026.02s.033-.049-.026-.02Z"/><path d="M29.01,16.6c-.024.011-.009.042.026.02s.032-.05-.026-.02Z"/><path class="cls-11" d="M28.991,16.89c-.024,0-.039.037-.009.043s.037.01.037.032.008.055.041.057.058-.034.032-.045-.053-.021-.056-.046a.045.045,0,0,0-.045-.041Z"/><path class="cls-10" d="M29.832,16.7a.08.08,0,0,0,.016.016c.022.019.065,0,.059-.015s-.029-.065.026-.024.252.17.315.217.022.051-.008.037-.115-.051-.167-.08-.056-.019-.065-.008,0,.028.018.046c-.03,0-.08,0-.095-.034a.7.7,0,0,0-.087-.125c-.011-.014-.014-.023-.012-.03Z"/><path class="cls-13" d="M31.531,22.284c-.043.029-.1.08-.062.152l.013-.008a4.168,4.168,0,0,0,.434-.634l0-.021a.642.642,0,0,1-.154.092c.02.054-.076.126-.128.146a.061.061,0,0,1-.03.1c.01.031-.024.031-.065.047a.158.158,0,0,0-.076.051.111.111,0,0,1,.071-.016c.017,0,.02.03-.01.037a.112.112,0,0,0-.063.038c.045-.017.108-.009.066.02Z"/><path d="M29.5,16.633c-.051-.044-.063-.017-.043.01s0,.041-.04.048a1.269,1.269,0,0,1-.138.015c-.028,0-.06.038,0,.034a.915.915,0,0,0,.2-.037c.03-.012.054-.035.013-.07Z"/><path d="M29.276,16.749l-.038-.029.041-.022a1.072,1.072,0,0,0,.137-.016l.049-.013-.015-.021.008-.047a.086.086,0,0,1,.047.025l.024.047c0,.015-.015.028-.038.037a.98.98,0,0,1-.207.039Zm.219-.11c-.028.047-.045.055-.077.06a1.284,1.284,0,0,1-.139.015l0,.027.007-.009a.918.918,0,0,0,.2-.037l.037-.023-.026-.033Z"/><path d="M29.6,16.709c-.042-.037-.056-.027-.046,0s-.009.033-.036.041a1.373,1.373,0,0,1-.182.05c-.046,0-.056.038.013.036a.728.728,0,0,0,.215-.067c.015-.01.021-.03.038-.02s.032-.009,0-.04Z"/><path d="M29.342,16.844c-.044,0-.052-.014-.052-.023v-.008l.044-.021a1.225,1.225,0,0,0,.174-.048l.024-.007-.012.021a1.471,1.471,0,0,1-.184.05l.006.028.006-.008a.72.72,0,0,0,.211-.066l.046-.02L29.56,16.7c.016-.014.029-.006.044.008l.022.046-.044.014a.617.617,0,0,1-.234.081Z"/><path d="M29.63,16.819a.776.776,0,0,1-.137.059c-.031.009-.056.043.009.038a.42.42,0,0,0,.162-.077.082.082,0,0,1,.048-.019c.017,0,.048-.022-.009-.053s-.091-.015-.063.009.007.032-.01.043Z"/><path d="M29.489,16.925l-.037-.026.039-.029a.749.749,0,0,0,.135-.059l0-.056a.093.093,0,0,1,.084.005c.035.019.039.036.036.048l-.065.033a.438.438,0,0,1-.176.083Zm.16-.166-.01.064a.831.831,0,0,1-.144.063l-.006.03.012-.008a.346.346,0,0,0,.141-.064l.066-.032c-.028-.048-.046-.053-.059-.053Z"/><path d="M29.1,15.96a.075.075,0,1,0-.087.123c.081.055.166-.07.087-.123Z"/><path class="cls-4" d="M28.992,16.01l.025,0a.05.05,0,0,0,.06.055.057.057,0,0,1-.085-.057Z"/><path class="cls-4" d="M29.316,17.253a1.091,1.091,0,0,0,.144.017c-.015.031-.029.052-.038.074s-.013.024-.015-.01-.02-.056-.038-.021a.694.694,0,0,1-.036.064c-.009.015-.023.021-.018-.016a.653.653,0,0,0,0-.108Z"/><path d="M29.491,23.827l-.006,0c-2.751-1.086-3.136-3.318-3.143-5.569h.016c-.017-.36-.009-.7,0-1.03.011-.442.02-.859.009-1.248a8.312,8.312,0,0,1,3.126-.577,8.481,8.481,0,0,1,3.117.561c0,.4.007.822.018,1.264.007.335.015.68.014,1.03l-.017.016c.007,2.256-.388,4.472-3.126,5.553l-.006,0Zm-3.132-5.556c.023,2.221.4,4.44,3.132,5.52,2.721-1.077,3.107-3.288,3.116-5.52Zm3.132-2.838a8.449,8.449,0,0,0-3.1.558c.021.375.012.792,0,1.235-.007.334-.015.679-.014,1.029l6.232-.017c0-.343-.007-.683-.014-1.012-.011-.443-.02-.86-.008-1.25a8.615,8.615,0,0,0-3.094-.543Z"/></g></g></svg>