<?xml version="1.0" encoding="UTF-8"?><svg id="a" xmlns="http://www.w3.org/2000/svg" viewBox="0 0 40 40"><g><path d="M37.863,11.014c-.224-.877-.734-1.631-1.43-2.169,.696,.537,1.207,1.291,1.43,2.169Z" fill="#e3e7ea"/><path d="M3.602,31.183c.67,.506,1.494,.817,2.398,.817h28c.904,0,1.729-.311,2.399-.817l-16.398-9.641L3.602,31.183Z" fill="#e3e7ea"/><path d="M2.136,28.984c.223,.877,.734,1.632,1.428,2.169-.695-.538-1.206-1.292-1.428-2.169Z" fill="#e3e7ea"/><path d="M18.036,11.691c-.026,.016-.033,.02-.044,.028,.012-.007,.018-.012,.044-.028Z" fill="#e3e7ea"/><path d="M36.434,31.154c.696-.538,1.207-1.293,1.43-2.171-.223,.878-.734,1.633-1.43,2.171Z" fill="#e3e7ea"/><path d="M2.121,11.064c-.073,.302-.121,.612-.121,.936V28c0,.324,.049,.634,.121,.936l15.234-8.936L2.121,11.064Z" fill="#e3e7ea"/><path d="M38,12c0-.324-.049-.634-.121-.936l-15.234,8.936,15.234,8.936c.073-.302,.121-.612,.121-.936V12Z" fill="#e3e7ea"/><path d="M36.399,8.817c-.67-.506-1.495-.817-2.399-.817H6c-.904,0-1.729,.311-2.398,.817l16.399,9.642,16.398-9.641Zm-16.408,8.741v-.01c-.178-.098-1.726-.998-2.199-3.184-.24-1.106,.169-2.626,.169-2.626h0s-.078-.497-.287-.978c-.208-.481-.521-.977-.521-.977,0,0,.169-.026,.339,.039,.168,.065,.253,.367,.253,.367,0,0,.149-.34,.605-.118,0,0-.247,.248-.195,.456,.052,.209,.196,.301,.443,.267,.287-.038,.339-.371,.339-.371,0,0-.176-.033-.196-.183-.012-.091,.033-.221,.189-.234,.118-.01,.234,.064,.234,.208,0,.105-.13,.195-.13,.195,0,0,.104,.224,.339,.235,.3,.013,.433-.156,.437-.443,.007-.411-.521-.417-.521-.417,0,0,.046-.202,.229-.306,.183-.105,.352,.039,.352,.039,0,0-.13-.294-.091-.496,.033-.174,.164-.346,.211-.403v-.021l.008,.01,.008-.01v.019c.047,.057,.177,.23,.211,.403,.039,.203-.091,.496-.091,.496,0,0,.17-.143,.352-.039s.228,.306,.228,.306c0,0-.528,.006-.521,.417,.004,.287,.137,.456,.436,.443,.236-.011,.34-.235,.34-.235,0,0-.131-.09-.131-.195,0-.143,.116-.218,.235-.208,.156,.012,.201,.143,.189,.234-.019,.15-.197,.183-.197,.183,0,0,.053,.332,.34,.371,.246,.034,.39-.058,.443-.267,.053-.208-.195-.456-.195-.456,.455-.221,.605,.118,.605,.118,0,0,.086-.3,.254-.365,.17-.065,.341-.039,.341-.039,0,0-.312,.496-.521,.977-.209,.482-.287,.978-.287,.978,0,0-.091-.063-.254-.144,.149,.078,.252,.144,.252,.144,0,0,.411,1.52,.17,2.626-.472,2.186-2.021,3.087-2.199,3.184v.01l-.008-.004-.008,.004Z" fill="#e3e7ea"/><path d="M3.564,8.847c-.694,.537-1.204,1.291-1.427,2.167,.223-.876,.733-1.63,1.427-2.167Z" fill="#e3e7ea"/></g><g><path d="M21.45,14.308c-.187,.012-.361-.076-.361-.076,.25,.064,.408-.14,.408-.252,0-.111-.094-.199-.34-.199-.244,0-.357,.076-.66,.076s-.386-.044-.386-.114c0-.071,.099-.129,.327-.129s.1,.038,.387,.038,.368-.111,.368-.111c0,0-.166,.035-.298,.035-.129,0-.349-.073-.524-.073-.176,0-.363,.067-.392,.178-.022,.083,.012,.252,.345,.275,.334,.024,.491-.035,.672-.058,.181-.023,.269,.006,.281,.099,.012,.095-.35,.103-.48,.08-.128-.023-.322,.015-.433,.038-.111,.023-.424,.058-.634,.053-.211-.006-.313-.141-.313-.141,0,0-.041-.082-.006-.152,.035-.071,.111-.134,.093-.176-.017-.04-.123,.042-.123,.042,0,0-.058-.071-.21-.071s-.263,.047-.263,.047c0,0-.088-.065-.117-.03-.029,.035,.07,.175,.088,.234,.017,.058,.058,.179,.128,.225,.065,.191-.035,.145-.246-.043-.124-.111-.175-.182-.199-.223-.036-.064,.077-.152-.111-.258-.069-.039-.113-.042-.148-.036v-.004c-.103-.018-.128,.058-.128,.058,.042-.004,.084,.018,.113,.038l.003-.017c.042,.019,.078,.044,.078,.044-.034-.01-.061-.01-.085-.005v-.003c-.112-.013-.149,.083-.149,.083,.055-.003,.1,.022,.129,.044l.003-.018c.046,.023,.079,.051,.079,.051-.031-.011-.06-.008-.088,0l.002-.009c-.096-.005-.173,.095-.173,.095,.064-.012,.114-.008,.155,.011v-.008c.125,.023,.182,.142,.274,.285,.17,.263,.389,.217,.389,.217,0,0,.057,.076,.138,.093,.345,.07-.118,.141-.316,.041-.121-.06-.187-.17-.316-.199-.078-.018-.134,.012-.173,.042l-.011-.026c-.054,.025-.088,.066-.088,.066l.129,.035c-.097,.005-.088,.141-.088,.141l.051-.011v.011l.083-.018-.052,.099s.024-.004,.054-.007l-.004,.009s.123-.03,.21,.005c.088,.035,.275,.21,.65,.17,.375-.041,.404-.287,.404-.287,0,0,.152,.013,.386-.023,.235-.035,.34-.076,.34-.076,0,0,.14,.094,.1,.141-.041,.047-.1,.017-.229,.006-.063-.006-.102,.017-.127,.041l-.01-.03c-.059,.026-.077,.081-.077,.081l.087,.023c-.076,.018-.093,.106-.093,.106,.015-.013,.036-.012,.056-.014l-.006,.015c.018-.016,.045-.016,.069-.017l.021,.004-.047,.135,.063-.032-.011,.033s.093-.052,.193-.087c.099-.035,.38-.058,.462-.053,.081,.006,.169,.006,.204-.035,.035-.041-.035-.111-.081-.169-.047-.059,.005-.135,.005-.135,.157,.04,.415-.036,.55-.041,.134-.006,.205,.081,.193,.146-.011,.064-.222,.041-.316,.041-.036,0-.062,.024-.087,.046l-.018-.035c-.061,.032-.098,.103-.098,.103h.053l-.002,.003h.065l-.05,.149,.058-.021-.009,.024,.041-.015-.019,.1c.009-.011,.037-.028,.058-.044l-.009,.047c.035-.041,.158-.128,.252-.117,.094,.012,.322-.052,.34-.234,.01-.118-.065-.334-.076-.375s-.169-.006-.357,.005Zm-3.166,.223l-.019-.045,.053,.014c-.02,.001-.021,.02-.033,.031Zm.059,.134l-.019-.043,.046-.01-.027,.053Zm.875-.536c0,.027-.012,.05-.036,.066-.007-.022-.02-.043-.043-.043h-.011c-.023,0-.034,.021-.041,.041-.032-.021-.041-.052-.045-.072-.005-.031-.026-.065-.026-.065,0,0,.07,.032,.111,.03,.041-.004,.114-.042,.114-.042,0,0-.023,.044-.023,.085Zm.858,.664l-.008-.024,.029,.007c-.01,.002-.012,.012-.021,.017Zm.046,.14l-.023-.07c.023,.003,.044,.008,.044,.008l-.021,.062Zm1.145-.128l-.008-.015h.014l-.005,.015Z" fill="none"/><path d="M17.98,12.197c.021-.004,.034,.002,.052,0,.038-.001,.076-.003,.104,.007,.115,.041,.173,.165,.267,.311,.189,.293,.434,.241,.434,.241,0,0,.063,.086,.153,.104,.384,.078-.131,.156-.353,.045-.135-.067-.208-.189-.352-.221-.059-.014-.108,.001-.149,.021l-.002-.005c-.011,.005-.017,.011-.026,.017h0c-.042,.027-.071,.056-.071,.056h.003v.002l.139,.038c-.106,.008-.097,.155-.097,.155h.002v.002l.153-.032-.064,.122h.002s.034-.007,.078-.01h.003c.046-.004,.105-.002,.153,.017,.098,.039,.306,.234,.723,.189,.417-.045,.45-.319,.45-.319,0,0,.169,.014,.43-.026,.26-.039,.377-.085,.377-.085,0,0,.157,.104,.111,.156-.046,.052-.111,.02-.254,.007-.046-.004-.066,.016-.093,.03l-.006-.017c-.018,.008-.026,.021-.038,.031-.006,.006-.009,.006-.014,.012-.021,.024-.033,.046-.033,.046h.002v.002l.094,.025c-.083,.021-.102,.116-.102,.116h.002v.002c.05-.045,.151-.014,.153-.013l-.051,.148h.002v.002s.103-.059,.214-.098c.11-.04,.423-.065,.515-.059,.09,.006,.188,.006,.227-.039s-.039-.124-.09-.189c-.052-.066,.006-.15,.006-.15,.175,.046,.463-.039,.613-.045,.149-.006,.227,.092,.215,.163-.014,.071-.249,.045-.354,.045-.023,0-.035,.019-.054,.029l-.007-.013c-.02,.01-.031,.026-.045,.041-.012,.012-.019,.013-.027,.024-.021,.027-.034,.05-.034,.05h.129l-.059,.169,.105-.039-.025,.137c.039-.045,.175-.143,.279-.13,.104,.012,.359-.059,.379-.261,.012-.131-.072-.372-.086-.417-.014-.046-.19-.007-.397,.005-.209,.013-.406-.084-.406-.084,.281,.072,.457-.156,.457-.28s-.104-.222-.377-.222-.398,.085-.736,.085c-.34,0-.431-.049-.431-.127s.11-.143,.365-.143c.253,0,.111,.042,.43,.042s.411-.124,.411-.124c0,0-.185,.04-.33,.038-.142,0-.387-.082-.583-.082-.195,0-.404,.075-.437,.199-.024,.092,.013,.281,.385,.307,.372,.026,.547-.039,.75-.065,.201-.026,.298,.007,.312,.111,.013,.104-.391,.114-.535,.088-.144-.027-.359,.016-.482,.042-.124,.026-.473,.065-.707,.059-.235-.007-.349-.156-.349-.156,0,0-.045-.091-.006-.169s.123-.151,.104-.196c-.02-.046-.137,.045-.137,.045,0,0-.065-.078-.234-.078s-.293,.053-.293,.053c0,0-.097-.072-.13-.033-.032,.04,.078,.196,.098,.261,.019,.065,.065,.199,.143,.251,.072,.212-.038,.159-.273-.049-.139-.123-.196-.203-.222-.248-.04-.071,.085-.17-.122-.284-.047-.026-.082-.036-.114-.041v-.005s-.004,.002-.008,.002c-.045-.006-.073,.004-.093,.019-.027,.02-.041,.042-.041,.042h.003v.003c.02-.001,.038,.011,.058,.018,.02,.008,.042,.009,.057,.02,.026,.017,.047,.034,.047,.034-.018-.005-.029-.002-.044-.003v-.008c-.009-.001-.011,.007-.021,.007-.042,.001-.077,.012-.099,.031-.031,.026-.047,.055-.047,.055h.004v.003c.024-.001,.038,.012,.058,.018,.027,.009,.06,.013,.078,.026,.027,.02,.045,.041,.045,.041-.016-.006-.03-.002-.046-.002l.002-.009c-.009,0-.014,.007-.022,.008-.038,.004-.073,.018-.101,.038-.041,.03-.07,.06-.07,.06h.004l-.002,.003Zm.259,.744v-.003h.002l-.002,.003Zm.73-.627s.078,.037,.124,.033c.046-.004,.127-.045,.127-.045,0,0-.026,.049-.026,.094,0,.031-.014,.056-.041,.074-.007-.024-.021-.048-.048-.048h-.013c-.024,0-.035,.023-.044,.044-.035-.023-.045-.058-.049-.08-.007-.032-.03-.072-.03-.072Z" fill="none"/><path d="M21.029,15.853c-.138,.008-.269-.057-.269-.057,.186,.048,.304-.104,.304-.187,0-.082-.07-.148-.252-.148s-.265,.057-.491,.057-.287-.032-.287-.085c0-.051,.074-.095,.243-.095,.17,0,.074,.028,.287,.028s.274-.082,.274-.082c0,0-.124,.026-.214,.025-.095,0-.259-.055-.389-.055s-.269,.051-.291,.133c-.016,.062,.009,.187,.256,.205,.248,.017,.366-.025,.5-.044,.135-.017,.2,.005,.209,.074,.009,.07-.261,.077-.357,.059-.095-.016-.239,.011-.322,.029-.083,.017-.315,.043-.472,.039-.156-.004-.233-.104-.233-.104,0,0-.03-.061-.004-.113s.083-.101,.07-.131c-.013-.031-.091,.03-.091,.03,0,0-.044-.052-.157-.052s-.196,.035-.196,.035c0,0-.065-.048-.087-.022-.022,.027,.052,.131,.065,.175,.013,.042,.043,.132,.095,.167,.048,.141-.026,.106-.182-.033-.093-.082-.13-.134-.148-.165-.028-.048,.056-.114-.083-.192-.083-.047-.125-.033-.147-.015-.018,.013-.027,.028-.027,.028,.031-.003,.063,.015,.084,.029v-.003c.015,.01,.029,.021,.029,.021-.016-.004-.02,.005-.032,.005v-.009c-.027-.003-.042,.009-.059,.019-.006,.004-.015,.001-.02,.006-.021,.018-.032,.037-.032,.037,.041-.002,.075,.016,.097,.032v-.002c.016,.012,.029,.026,.029,.026-.013-.005-.022,.006-.035,.007l.002-.012c-.024,0-.042,.012-.061,.023-.008,.005-.014,.003-.021,.008-.027,.02-.046,.04-.046,.04,.004,0,.006,.001,.01,0,.15-.024,.191,.08,.276,.211,.127,.196,.29,.161,.29,.161,0,0,.042,.058,.102,.07,.257,.052-.087,.104-.235,.031-.09-.045-.139-.126-.235-.148-.041-.009-.072,.005-.1,.019l-.003-.007c-.008,.004-.006,.006-.013,.01-.012,.007-.012,.009-.02,.015-.011,.01-.032,.024-.032,.024l.096,.026c-.071,.003-.065,.104-.065,.104h.003l.104-.022-.003,.005v-.003l-.044,.081h.003l.015-.002c.008-.001,.021-.003,.042-.005,.03-.002,.067-.001,.098,.011,.066,.025,.205,.156,.483,.125,.278-.03,.3-.213,.3-.213,0,0,.113,.008,.287-.018,.173-.026,.252-.057,.252-.057,0,0,.104,.07,.074,.105-.031,.035-.074,.013-.17,.004-.032-.003-.046,.011-.064,.021l-.003-.009c-.01,.004-.013,.011-.02,.017-.008,.007-.012,.007-.016,.013-.013,.016-.021,.03-.021,.03l.065,.018c-.057,.013-.07,.078-.07,.078,.035-.029,.104-.009,.104-.009l-.035,.101s.026-.014,.054-.028c.026-.012,.058-.027,.092-.039,.074-.026,.283-.043,.343-.039,.062,.004,.127,.004,.153-.025,.026-.031-.026-.083-.061-.127-.035-.043,.004-.1,.004-.1,.118,.03,.309-.026,.408-.03,.101-.006,.152,.06,.144,.108-.008,.048-.166,.03-.236,.03-.016,0-.024,.013-.037,.02l-.005-.009c-.013,.007-.02,.018-.03,.027-.007,.008-.011,.008-.016,.015-.015,.019-.024,.034-.024,.034h.088l-.04,.113,.069-.026-.017,.092c.004-.005,.017-.012,.024-.019,.037-.032,.104-.077,.164-.069,.068,.009,.238-.039,.252-.174,.008-.087-.049-.247-.057-.278-.008-.031-.127-.005-.266,.004Zm-2.323,.145h0Zm.673-.279c0,.02-.009,.038-.028,.049-.005-.016-.014-.032-.031-.032h-.008c-.017,0-.024,.016-.029,.03-.024-.015-.031-.039-.035-.055-.003-.021-.019-.046-.019-.046,0,0,.052,.023,.083,.021,.03-.002,.084-.031,.084-.031,0,0-.017,.033-.017,.064Z" fill="none"/><path d="M19.048,12.466c.009-.021,.02-.044,.044-.044h.013c.027,0,.041,.024,.048,.048,.027-.018,.041-.044,.041-.074,0-.045,.026-.094,.026-.094,0,0-.081,.041-.127,.045-.046,.004-.124-.033-.124-.033,0,0,.023,.04,.03,.072,.004,.022,.014,.057,.049,.08Z" fill="#dd2e44"/><path d="M19.016,14.056s.021,.034,.026,.065c.004,.02,.013,.051,.045,.072,.008-.02,.019-.041,.041-.041h.011c.024,0,.037,.021,.043,.043,.024-.016,.036-.039,.036-.066,0-.041,.023-.085,.023-.085,0,0-.073,.038-.114,.042-.041,.002-.111-.03-.111-.03Z" fill="#dd2e44"/><path d="M19.229,15.665s.016,.025,.019,.046c.004,.016,.01,.04,.035,.055,.006-.014,.013-.03,.029-.03h.008c.018,0,.026,.016,.031,.032,.018-.011,.028-.029,.028-.049,0-.031,.017-.064,.017-.064,0,0-.054,.029-.084,.031-.031,.002-.083-.021-.083-.021Z" fill="#dd2e44"/><path d="M22.645,20l15.234-8.936h.001c-.004-.018-.012-.033-.017-.05-.223-.877-.734-1.632-1.43-2.169-.012-.009-.021-.021-.033-.029h-.002l-16.398,9.642L3.602,8.817h-.002c-.013,.009-.023,.021-.035,.031-.694,.537-1.205,1.291-1.427,2.167-.004,.017-.013,.032-.017,.05h.001l15.234,8.936L2.121,28.936h-.001c.004,.017,.012,.032,.016,.048,.222,.877,.733,1.632,1.428,2.169,.013,.01,.023,.022,.035,.031h.002l16.399-9.643,16.398,9.641h.002c.012-.008,.021-.02,.033-.029,.696-.538,1.207-1.293,1.43-2.171,.004-.016,.012-.031,.016-.047h-.001l-15.234-8.936Z" fill="#e20033"/><polygon points="18.239 12.941 18.241 12.938 18.238 12.938 18.239 12.941" fill="#e20033"/><polygon points="18.706 15.998 18.707 15.997 18.706 15.997 18.706 15.998" fill="#e20033"/><path d="M20.123,14.932l.021-.062s-.022-.005-.044-.008l.023,.07Z" fill="#e20033"/><polygon points="21.268 14.804 21.273 14.789 21.259 14.789 21.268 14.804" fill="#e20033"/><polygon points="18.343 14.665 18.37 14.612 18.324 14.622 18.343 14.665" fill="#e20033"/><path d="M20.076,14.792c.008-.005,.01-.014,.021-.017l-.029-.007,.008,.024Z" fill="#e20033"/><path d="M19.991,17.548v.01l.008-.004,.008,.004v-.01c.178-.097,1.727-.998,2.199-3.184,.241-1.106-.17-2.626-.17-2.626,0,0-.104-.065-.252-.144-.186-.098-.447-.219-.725-.28-.467-.103-.99-.104-1.061-.104s-.594,0-1.06,.104c-.387,.085-.752,.288-.902,.377-.026,.016-.033,.02-.044,.028l-.03,.018h0s-.409,1.521-.169,2.627c.473,2.186,2.021,3.086,2.199,3.184Zm1.109-1.247c-.059-.008-.127,.037-.164,.069-.007,.006-.021,.013-.024,.019l.017-.092-.069,.026,.04-.113h-.088s.01-.016,.024-.034c.005-.007,.009-.008,.016-.015,.01-.01,.017-.021,.03-.027l.005,.009c.013-.007,.022-.02,.037-.02,.07,0,.228,.018,.236-.03,.008-.048-.043-.114-.144-.108-.099,.004-.29,.06-.408,.03,0,0-.039,.057-.004,.1,.035,.044,.087,.096,.061,.127-.026,.029-.091,.029-.153,.025-.06-.004-.269,.013-.343,.039-.034,.012-.066,.027-.092,.039-.028,.014-.053,.027-.054,.028l.035-.101s-.069-.02-.104,.009c0,0,.013-.065,.07-.078l-.065-.018s.008-.014,.021-.03c.004-.006,.008-.007,.016-.013,.007-.006,.01-.012,.02-.017l.003,.009c.018-.01,.032-.024,.064-.021,.096,.009,.139,.031,.17-.004,.03-.035-.074-.105-.074-.105,0,0-.079,.031-.252,.057-.174,.026-.287,.018-.287,.018,0,0-.022,.183-.3,.213-.278,.031-.417-.1-.483-.125-.031-.013-.068-.013-.098-.011-.021,.002-.034,.003-.042,.005l-.015,.002h-.003l.043-.081v.003l.004-.005-.104,.022h-.003s-.006-.101,.065-.104l-.096-.026s.021-.014,.032-.024c.008-.007,.008-.008,.02-.015,.007-.004,.005-.006,.013-.01l.003,.007c.028-.014,.06-.028,.1-.019,.096,.022,.145,.103,.235,.148,.148,.073,.492,.021,.235-.031-.06-.012-.102-.07-.102-.07,0,0-.163,.035-.29-.161-.084-.131-.126-.236-.276-.211-.004,0-.006-.001-.01,0,0,0,.019-.02,.046-.04,.007-.005,.013-.003,.021-.008,.019-.011,.037-.024,.061-.023l-.002,.012c.013,0,.022-.012,.035-.007,0,0-.013-.013-.029-.026v.002c-.022-.016-.056-.034-.097-.032,0,0,.011-.019,.032-.037,.005-.005,.013-.002,.02-.006,.017-.01,.032-.022,.06-.019v.009c.011,0,.015-.01,.031-.005,0,0-.014-.011-.029-.021v.003c-.021-.014-.053-.032-.084-.029,0,0,.009-.015,.027-.028,.022-.018,.064-.032,.147,.015,.139,.078,.055,.144,.083,.192,.018,.031,.055,.083,.148,.165,.156,.139,.23,.174,.182,.033-.052-.035-.082-.125-.095-.167-.013-.044-.087-.148-.065-.175,.022-.026,.087,.022,.087,.022,0,0,.083-.035,.196-.035s.157,.052,.157,.052c0,0,.078-.061,.091-.03,.013,.03-.044,.079-.07,.131s.004,.113,.004,.113c0,0,.077,.1,.233,.104,.157,.004,.389-.022,.472-.039,.083-.018,.227-.045,.322-.029,.096,.018,.366,.011,.357-.059-.009-.069-.074-.091-.209-.074-.134,.019-.252,.061-.5,.044-.247-.018-.272-.143-.256-.205,.022-.082,.161-.133,.291-.133s.294,.055,.389,.055c.09,0,.214-.025,.214-.025,0,0-.062,.082-.274,.082s-.117-.028-.287-.028c-.169,0-.243,.044-.243,.095,0,.053,.06,.085,.287,.085s.309-.057,.491-.057,.252,.066,.252,.148c0,.083-.118,.235-.304,.187,0,0,.131,.065,.269,.057,.139-.009,.258-.035,.266-.004,.008,.031,.065,.191,.057,.278-.014,.135-.184,.183-.252,.174Zm.443-1.389c-.094-.011-.217,.076-.252,.117l.009-.047c-.021,.016-.049,.033-.058,.044l.019-.1-.041,.015,.009-.024-.058,.021,.05-.149h-.065l.002-.003h-.053s.037-.071,.098-.103l.018,.035c.024-.022,.05-.046,.087-.046,.094,0,.305,.023,.316-.041,.012-.065-.059-.152-.193-.146-.135,.005-.393,.081-.55,.041,0,0-.052,.076-.005,.135,.046,.058,.116,.128,.081,.169-.035,.041-.123,.041-.204,.035-.082-.005-.363,.018-.462,.053-.1,.035-.193,.087-.193,.087l.011-.033-.063,.032,.047-.135-.021-.004c-.025,0-.051,0-.069,.017l.006-.015c-.02,.002-.041,0-.056,.014,0,0,.017-.088,.093-.106l-.087-.023s.018-.055,.077-.081l.01,.03c.025-.024,.064-.047,.127-.041,.129,.011,.188,.041,.229-.006,.04-.047-.1-.141-.1-.141,0,0-.105,.041-.34,.076-.234,.036-.386,.023-.386,.023,0,0-.029,.246-.404,.287-.375,.04-.562-.135-.65-.17-.087-.035-.21-.005-.21-.005l.004-.009c-.03,.003-.054,.007-.054,.007l.052-.099-.084,.018v-.011l-.05,.011s-.009-.136,.088-.141l-.129-.035s.034-.041,.088-.066l.011,.026c.039-.03,.095-.059,.173-.042,.129,.029,.195,.139,.316,.199,.198,.1,.661,.029,.316-.041-.081-.017-.138-.093-.138-.093,0,0-.219,.046-.389-.217-.092-.143-.149-.262-.273-.285v.008c-.042-.019-.092-.023-.156-.011,0,0,.077-.1,.173-.095l-.002,.009c.027-.009,.057-.012,.088,0,0,0-.033-.028-.079-.051l-.003,.018c-.029-.022-.074-.047-.129-.044,0,0,.038-.096,.15-.083v.003c.023-.004,.051-.005,.084,.005,0,0-.036-.025-.078-.044l-.003,.017c-.029-.02-.071-.042-.113-.038,0,0,.025-.076,.129-.058v.004c.034-.006,.078-.003,.147,.036,.188,.106,.075,.194,.111,.258,.024,.041,.075,.112,.199,.223,.211,.188,.311,.234,.246,.043-.07-.046-.111-.167-.128-.225-.018-.059-.117-.199-.088-.234,.029-.035,.117,.03,.117,.03,0,0,.111-.047,.263-.047s.21,.071,.21,.071c0,0,.106-.082,.123-.042,.018,.042-.058,.105-.093,.176-.035,.07,.006,.152,.006,.152,0,0,.102,.135,.313,.141,.21,.005,.523-.03,.634-.053,.111-.023,.305-.061,.433-.038,.13,.023,.492,.015,.48-.08-.012-.093-.1-.122-.281-.099-.181,.023-.338,.082-.672,.058-.333-.023-.367-.192-.345-.275,.029-.111,.216-.178,.392-.178,.175,0,.395,.073,.524,.073,.132,0,.298-.035,.298-.035,0,0-.08,.111-.368,.111s-.158-.038-.387-.038-.327,.058-.327,.129c0,.07,.082,.114,.386,.114s.416-.076,.66-.076c.246,0,.34,.088,.34,.199,0,.112-.158,.316-.408,.252,0,0,.174,.088,.361,.076,.188-.011,.346-.046,.357-.005s.086,.257,.076,.375c-.018,.182-.246,.246-.34,.234Zm-3.495-2.778c.028-.02,.063-.033,.101-.038,.008,0,.014-.009,.022-.008l-.002,.009c.015,0,.03-.004,.046,.002,0,0-.019-.021-.045-.041-.018-.013-.05-.017-.078-.026-.02-.006-.034-.019-.059-.018v-.002h-.003s.016-.03,.047-.056c.022-.019,.056-.029,.099-.031,.009,0,.012-.008,.022-.007v.008c.014,0,.025-.002,.043,.003,0,0-.021-.018-.047-.034-.015-.01-.037-.012-.057-.02-.02-.007-.038-.02-.059-.018v-.002h-.002s.014-.024,.041-.043c.02-.015,.048-.025,.093-.019,.004,0,.005-.003,.009-.002v.005c.031,.005,.067,.015,.113,.041,.207,.114,.082,.213,.122,.284,.026,.045,.083,.125,.222,.248,.235,.208,.345,.261,.273,.049-.078-.052-.124-.186-.143-.251-.02-.065-.13-.221-.098-.261,.033-.039,.13,.033,.13,.033,0,0,.124-.053,.293-.053s.234,.078,.234,.078c0,0,.117-.091,.137-.045,.019,.045-.065,.118-.104,.196s.006,.169,.006,.169c0,0,.114,.149,.349,.156,.234,.006,.583-.033,.707-.059,.123-.026,.338-.069,.482-.042,.144,.026,.548,.016,.535-.088-.014-.104-.111-.137-.312-.111-.203,.026-.378,.091-.75,.065-.372-.026-.409-.215-.385-.307,.033-.124,.242-.199,.437-.199,.196,0,.441,.082,.583,.082,.145,.002,.33-.038,.33-.038,0,0-.092,.124-.411,.124s-.177-.042-.43-.042c-.255,0-.365,.065-.365,.143s.091,.127,.431,.127c.338,0,.463-.085,.736-.085s.377,.098,.377,.222-.176,.352-.457,.28c0,0,.197,.097,.406,.084,.207-.012,.383-.051,.397-.005,.014,.045,.098,.286,.086,.417-.02,.202-.275,.273-.379,.261-.104-.013-.24,.085-.279,.13l.025-.137-.105,.039,.059-.169h-.129s.013-.023,.034-.05c.008-.011,.015-.012,.027-.024,.015-.015,.026-.031,.045-.041l.007,.013c.019-.01,.031-.029,.054-.029,.105,0,.34,.026,.354-.045,.012-.071-.066-.169-.215-.163-.15,.006-.438,.091-.613,.045,0,0-.058,.084-.006,.15,.051,.065,.129,.144,.09,.189s-.137,.045-.227,.039c-.092-.006-.405,.019-.515,.059-.111,.039-.215,.098-.215,.098v-.003h-.001l.051-.147s-.103-.032-.154,.013v-.003h-.001s.02-.095,.102-.115l-.095-.025h0l-.002-.002s.012-.022,.033-.046c.005-.006,.008-.006,.014-.012,.012-.011,.02-.023,.038-.031l.006,.017c.027-.014,.047-.034,.093-.03,.143,.013,.208,.045,.254-.007,.046-.052-.111-.156-.111-.156,0,0-.117,.046-.377,.085-.261,.04-.43,.026-.43,.026,0,0-.033,.274-.45,.319-.417,.045-.625-.15-.723-.189-.049-.019-.107-.021-.153-.018h-.003c-.044,.004-.078,.012-.078,.012h-.002l.064-.123-.154,.032v-.002h-.002s-.009-.146,.097-.155l-.14-.038h.001l-.003-.002s.029-.029,.071-.055h0c.009-.006,.015-.012,.026-.018l.002,.005c.041-.02,.09-.035,.149-.021,.144,.032,.217,.154,.352,.221,.222,.111,.737,.033,.353-.045-.09-.018-.153-.104-.153-.104,0,0-.245,.052-.434-.241-.094-.146-.153-.271-.267-.311-.029-.011-.067-.009-.104-.007-.018,0-.031-.005-.052,0l.002-.003h-.004s.029-.031,.07-.061Z" fill="#e20033"/><path d="M18.284,14.531c.012-.01,.013-.029,.033-.031l-.053-.014,.019,.045Z" fill="#e20033"/></g><g><path d="M18.036,11.691c.15-.09,.515-.292,.902-.377,.466-.103,.989-.104,1.06-.104s.594,0,1.061,.104c.278,.062,.539,.182,.725,.28,.164,.081,.254,.144,.254,.144,0,0,.078-.496,.287-.978,.209-.481,.521-.977,.521-.977,0,0-.171-.026-.341,.039-.168,.065-.254,.365-.254,.365,0,0-.15-.339-.605-.118,0,0,.248,.248,.195,.456-.053,.209-.197,.301-.443,.267-.287-.039-.34-.371-.34-.371,0,0,.178-.033,.197-.183,.012-.091-.033-.222-.189-.234-.119-.01-.235,.065-.235,.208,0,.105,.131,.195,.131,.195,0,0-.104,.224-.34,.235-.299,.013-.432-.156-.436-.443-.007-.411,.521-.417,.521-.417,0,0-.046-.202-.228-.306s-.352,.039-.352,.039c0,0,.13-.293,.091-.496-.034-.173-.164-.346-.211-.403v-.019l-.008,.01-.008-.01v.021c-.047,.057-.178,.229-.211,.403-.039,.202,.091,.496,.091,.496,0,0-.169-.144-.352-.039-.183,.104-.229,.306-.229,.306,0,0,.528,.006,.521,.417-.004,.287-.137,.456-.437,.443-.235-.011-.339-.235-.339-.235,0,0,.13-.09,.13-.195,0-.144-.116-.218-.234-.208-.156,.013-.201,.143-.189,.234,.02,.15,.196,.183,.196,.183,0,0-.052,.333-.339,.371-.247,.034-.391-.058-.443-.267-.052-.208,.195-.456,.195-.456-.456-.222-.605,.118-.605,.118,0,0-.085-.302-.253-.367-.17-.065-.339-.039-.339-.039,0,0,.313,.496,.521,.977,.209,.481,.287,.976,.287,.977l.03-.018c.012-.008,.018-.012,.044-.028Z" fill="#ffcc4d"/><path d="M18.238,12.939h.003l-.002,.002,.047,.107c-.011,0-.018,.002-.028,.002,.046-.003,.105-.002,.153,.018,.098,.039,.306,.234,.723,.189,.417-.045,.45-.319,.45-.319,0,0,.169,.014,.43-.026,.26-.039,.377-.085,.377-.085,0,0,.157,.104,.111,.156-.046,.052-.111,.02-.254,.007-.046-.004-.066,.016-.093,.03l.101,.305c-.054,.025-.089,.045-.092,.046v.003s.103-.059,.214-.098c.11-.04,.423-.065,.515-.059,.09,.006,.188,.006,.227-.039s-.039-.124-.09-.189c-.052-.066,.006-.15,.006-.15,.175,.046,.463-.039,.613-.045,.149-.006,.227,.092,.215,.163-.014,.071-.249,.045-.354,.045-.023,0-.035,.019-.054,.029l.149,.283c-.051,.028-.095,.063-.113,.086,.039-.045,.175-.143,.279-.13,.104,.012,.359-.059,.379-.261,.012-.131-.072-.372-.086-.417-.014-.046-.19-.007-.397,.005-.209,.013-.406-.084-.406-.084,.281,.072,.457-.156,.457-.28s-.104-.222-.377-.222-.398,.085-.736,.085c-.34,0-.431-.049-.431-.127s.11-.143,.365-.143c.253,0,.111,.042,.43,.042s.411-.124,.411-.124c0,0-.185,.04-.33,.038-.142,0-.387-.082-.583-.082-.195,0-.404,.075-.437,.199-.024,.092,.013,.281,.385,.307,.372,.026,.547-.039,.75-.065,.201-.026,.298,.007,.312,.111,.013,.104-.391,.114-.535,.088-.144-.027-.359,.016-.482,.042-.124,.026-.473,.065-.707,.059-.235-.007-.349-.156-.349-.156,0,0-.045-.091-.006-.169s.123-.151,.104-.196c-.02-.046-.137,.045-.137,.045,0,0-.065-.078-.234-.078s-.293,.053-.293,.053c0,0-.097-.072-.13-.033-.032,.04,.078,.196,.098,.261,.019,.065,.065,.199,.143,.251,.072,.212-.038,.159-.273-.049-.139-.123-.196-.203-.222-.248-.04-.071,.085-.17-.122-.284-.047-.026-.082-.036-.114-.041l-.017,.101-.007-.002c.026,.017,.047,.034,.047,.034-.018-.005-.029-.002-.044-.003l-.022,.133-.005-.002c.027,.02,.045,.041,.045,.041-.016-.006-.03-.002-.046-.002l-.018,.109s-.01,0-.014,0c.115,.041,.173,.165,.267,.311,.189,.293,.434,.241,.434,.241,0,0,.063,.086,.153,.104,.384,.078-.131,.156-.353,.045-.135-.067-.208-.189-.352-.221-.059-.014-.108,.001-.149,.021l.1,.23-.153,.032v.002l.153-.032Zm.867-.145h-.013c-.032,0-.058-.027-.058-.059v-.254c0-.008,.011-.008,.014-.015-.035-.023-.045-.058-.049-.08-.007-.032-.03-.072-.03-.072,0,0,.078,.037,.124,.033,.046-.004,.127-.045,.127-.045,0,0-.026,.049-.026,.094,0,.031-.014,.056-.041,.074,.002,.005,.011,.005,.011,.011v.254c0,.032-.026,.059-.059,.059Z" fill="#ffcc4d"/><polygon points="21.229 14.917 21.22 14.941 21.261 14.926 21.265 14.903 21.229 14.917" fill="#ffcc4d"/><path d="M19.576,14.612s.152,.013,.386-.023c.235-.035,.34-.076,.34-.076,0,0,.14,.094,.1,.141-.041,.047-.1,.017-.229,.006-.063-.006-.102,.017-.127,.041l.022,.068,.029,.007c-.01,.002-.012,.012-.021,.017l.023,.07c.023,.003,.044,.008,.044,.008l-.021,.062,.009,.028-.023,.011-.011,.033s.093-.052,.193-.087c.099-.035,.38-.058,.462-.053,.081,.006,.169,.006,.204-.035,.035-.041-.035-.111-.081-.169-.047-.059,.005-.135,.005-.135,.157,.04,.415-.036,.55-.041,.134-.006,.205,.081,.193,.146-.011,.064-.222,.041-.316,.041-.036,0-.062,.024-.087,.046l.038,.071h.014l-.005,.015,.076,.144c-.02,.011-.028,.022-.044,.034l-.009,.047c.035-.041,.158-.128,.252-.117,.094,.012,.322-.052,.34-.234,.01-.118-.065-.334-.076-.375s-.169-.006-.357,.005c-.187,.012-.361-.076-.361-.076,.25,.064,.408-.14,.408-.252,0-.111-.094-.199-.34-.199-.244,0-.357,.076-.66,.076s-.386-.044-.386-.114c0-.071,.099-.129,.327-.129s.1,.038,.387,.038,.368-.111,.368-.111c0,0-.166,.035-.298,.035-.129,0-.349-.073-.524-.073-.176,0-.363,.067-.392,.178-.022,.083,.012,.252,.345,.275,.334,.024,.491-.035,.672-.058,.181-.023,.269,.006,.281,.099,.012,.095-.35,.103-.48,.08-.128-.023-.322,.015-.433,.038-.111,.023-.424,.058-.634,.053-.211-.006-.313-.141-.313-.141,0,0-.041-.082-.006-.152,.035-.071,.111-.134,.093-.176-.017-.04-.123,.042-.123,.042,0,0-.058-.071-.21-.071s-.263,.047-.263,.047c0,0-.088-.065-.117-.03-.029,.035,.07,.175,.088,.234,.017,.058,.058,.179,.128,.225,.065,.191-.035,.145-.246-.043-.124-.111-.175-.182-.199-.223-.036-.064,.077-.152-.111-.258-.069-.039-.113-.042-.148-.036l-.012,.075c.042,.019,.078,.044,.078,.044-.034-.01-.061-.01-.085-.005l-.018,.107c.046,.023,.079,.051,.079,.051-.031-.011-.06-.008-.088,0l-.015,.089c.124,.023,.18,.142,.273,.285,.17,.263,.389,.217,.389,.217,0,0,.057,.076,.138,.093,.345,.07-.118,.141-.316,.041-.121-.06-.187-.17-.316-.199-.078-.018-.134,.012-.173,.042l.026,.061,.053,.014c-.02,.001-.021,.02-.033,.031l.035,.082-.088,.018v.011l.083-.018,.006-.011,.004,.009,.046-.01-.027,.053,.02,.047c-.018,0-.032,.002-.047,.004l-.004,.009s.123-.03,.21,.005c.088,.035,.275,.21,.65,.17,.375-.041,.404-.287,.404-.287Zm-.437-.126h-.011c-.029,0-.053-.023-.053-.053v-.228c0-.007,.01-.006,.012-.012-.032-.021-.041-.052-.045-.072-.005-.031-.026-.065-.026-.065,0,0,.07,.032,.111,.03,.041-.004,.114-.042,.114-.042,0,0-.023,.044-.023,.085,0,.027-.012,.05-.036,.066,.001,.005,.01,.004,.01,.01v.228c0,.03-.023,.053-.053,.053Z" fill="#ffcc4d"/><path d="M20.078,16.344c.026-.012,.058-.027,.092-.039,.074-.026,.283-.043,.343-.039,.062,.004,.127,.004,.153-.025,.026-.031-.026-.083-.061-.127-.035-.043,.004-.1,.004-.1,.118,.03,.309-.026,.408-.03,.101-.006,.152,.06,.144,.108-.008,.048-.166,.03-.236,.03-.016,0-.024,.013-.037,.02l.1,.189c-.023,.013-.037,.026-.052,.039,.037-.032,.104-.077,.164-.069,.068,.009,.238-.039,.252-.174,.008-.087-.049-.247-.057-.278-.008-.031-.127-.005-.266,.004-.138,.008-.269-.057-.269-.057,.186,.048,.304-.104,.304-.187,0-.082-.07-.148-.252-.148s-.265,.057-.491,.057-.287-.032-.287-.085c0-.051,.074-.095,.243-.095,.17,0,.074,.028,.287,.028s.274-.082,.274-.082c0,0-.124,.026-.214,.025-.095,0-.259-.055-.389-.055s-.269,.051-.291,.133c-.016,.062,.009,.187,.256,.205,.248,.017,.366-.025,.5-.044,.135-.017,.2,.005,.209,.074,.009,.07-.261,.077-.357,.059-.095-.016-.239,.011-.322,.029-.083,.017-.315,.043-.472,.039-.156-.004-.233-.104-.233-.104,0,0-.03-.061-.004-.113s.083-.101,.07-.131c-.013-.031-.091,.03-.091,.03,0,0-.044-.052-.157-.052s-.196,.035-.196,.035c0,0-.065-.048-.087-.022-.022,.027,.052,.131,.065,.175,.013,.042,.043,.132,.095,.167,.048,.141-.026,.106-.182-.033-.093-.082-.13-.134-.148-.165-.028-.048,.056-.114-.083-.192-.083-.047-.125-.033-.147-.015,.015-.01,.034-.02,.069-.013l-.012,.067c.015,.01,.029,.021,.029,.021-.016-.004-.02,.005-.032,.005l-.013,.083c.016,.012,.029,.026,.029,.026-.013-.005-.022,.006-.035,.007l-.011,.067c-.028-.012-.063-.013-.105-.007,.15-.024,.191,.08,.276,.211,.127,.196,.29,.161,.29,.161,0,0,.042,.058,.102,.07,.257,.052-.087,.104-.235,.031-.09-.045-.139-.126-.235-.148-.041-.009-.072,.005-.1,.019l.03,.068h0l.036,.083-.1,.021h0l.104-.021-.003,.005,.031,.069-.014,.002c.03-.002,.067-.001,.098,.011,.066,.025,.205,.156,.483,.125,.278-.03,.3-.213,.3-.213,0,0,.113,.008,.287-.018,.173-.026,.252-.057,.252-.057,0,0,.104,.07,.074,.105-.031,.035-.074,.013-.17,.004-.032-.003-.046,.011-.064,.021l.068,.206-.01,.005Zm-.699-.625c0,.02-.009,.038-.028,.049,.001,.004,.008,.003,.008,.008v.169c0,.021-.017,.039-.039,.039h-.008c-.022,0-.039-.018-.039-.039v-.169c0-.005,.008-.005,.01-.01-.024-.015-.031-.039-.035-.055-.003-.021-.019-.046-.019-.046,0,0,.052,.023,.083,.021,.03-.002,.084-.031,.084-.031,0,0-.017,.033-.017,.064Z" fill="#ffcc4d"/></g><g><path d="M18.218,11.797v-.005s-.004,.002-.008,.002c-.044-.006-.073,.004-.093,.019-.027,.02-.041,.042-.041,.042h.003c.021,0,.038,.013,.058,.021,.02,.008,.042,.009,.057,.02l.007,.002,.017-.101Z" fill="#11429a"/><path d="M18.197,11.927v-.008c-.009-.001-.011,.007-.021,.007-.042,.001-.077,.012-.099,.031-.031,.026-.047,.055-.047,.055h.004c.025,0,.038,.014,.058,.021,.027,.009,.06,.013,.078,.026l.005,.002,.022-.133Z" fill="#11429a"/><path d="M18.137,12.706l-.002-.005c-.011,.005-.017,.011-.026,.017h0c-.042,.027-.071,.056-.071,.056h.003l.14,.039h-.001c-.106,.009-.097,.156-.097,.156h.002l.153-.033-.1-.23Z" fill="#11429a"/><path d="M18.169,12.097l.002-.009c-.009,0-.014,.007-.022,.008-.038,.004-.073,.018-.101,.038-.041,.03-.07,.06-.07,.06h.004c.021-.003,.032,.004,.05,.004,.038-.001,.076-.003,.104,.007,.004,.001,.01,0,.014,0l.018-.109Z" fill="#11429a"/><path d="M19.164,12.481c0-.006-.009-.005-.011-.011-.007-.024-.021-.048-.048-.048h-.013c-.024,0-.035,.023-.044,.044-.003,.007-.014,.007-.014,.015v.254c0,.032,.026,.059,.058,.059h.013c.033,0,.059-.027,.059-.059v-.254Z" fill="#11429a"/><path d="M20.155,13.02l-.006-.017c-.018,.008-.026,.021-.038,.031-.004,.004-.011,.008-.014,.012-.021,.024-.033,.046-.033,.046h.002l.096,.026h-.002c-.083,.022-.102,.117-.102,.117h.002c.053-.043,.154-.013,.154-.013v.002l-.052,.148h.002s.038-.022,.092-.047l-.101-.305Z" fill="#11429a"/><path d="M18.239,12.941v-.003h-.002l-.064,.123h.003s.036-.007,.077-.01h.003c.01,0,.017-.003,.028-.003l-.047-.107Z" fill="#11429a"/><path d="M21.456,13.031l-.007-.013c-.02,.01-.031,.026-.045,.041-.009,.009-.02,.016-.027,.024-.021,.027-.034,.05-.034,.05h.129l-.059,.169,.105-.039-.025,.137c.018-.023,.062-.058,.113-.086l-.149-.283Z" fill="#11429a"/><path d="M18.285,13.697c-.112-.013-.15,.083-.15,.083,.055-.003,.1,.022,.129,.044l.003-.018,.018-.107v-.003Z" fill="#11429a"/><path d="M18.26,13.849c-.096-.005-.173,.095-.173,.095,.064-.012,.114-.008,.155,.011v-.008l.016-.089,.002-.009Z" fill="#11429a"/><path d="M18.304,13.582c-.104-.018-.129,.058-.129,.058,.042-.004,.084,.018,.113,.038l.003-.017,.012-.075v-.004Z" fill="#11429a"/><path d="M18.284,14.531l-.019-.045-.026-.061-.011-.026c-.054,.025-.088,.066-.088,.066l.129,.035c-.097,.005-.088,.141-.088,.141l.051-.011,.088-.018-.035-.082Z" fill="#11429a"/><path d="M20.123,14.932l-.023-.07-.023-.07-.008-.024-.022-.068-.01-.03c-.059,.026-.077,.081-.077,.081l.087,.023c-.076,.018-.093,.106-.093,.106,.015-.013,.036-.012,.056-.014,.03-.003,.048-.006,.063-.002l.021,.004-.047,.135,.063-.032,.023-.011-.009-.028Z" fill="#11429a"/><path d="M18.343,14.665l-.019-.043-.004-.009-.006,.011-.052,.099s.024-.004,.054-.007c.015-.002,.028-.004,.047-.004l-.02-.047Z" fill="#11429a"/><path d="M19.192,14.205c0-.006-.008-.005-.01-.01-.007-.022-.02-.043-.043-.043h-.011c-.023,0-.034,.021-.041,.041-.002,.006-.012,.005-.012,.012v.228c0,.03,.024,.053,.053,.053h.011c.03,0,.053-.023,.053-.053v-.228Z" fill="#11429a"/><path d="M21.268,14.804l-.008-.015-.038-.071-.018-.035c-.061,.032-.098,.103-.098,.103h.117v.003l-.051,.149,.058-.021,.036-.014-.004,.023-.019,.1c.009-.011,.037-.028,.058-.044,.016-.012,.024-.022,.044-.034l-.076-.144Z" fill="#11429a"/><path d="M20.059,16.271l-.035,.101s.026-.014,.054-.028l.01-.005-.068-.206-.003-.009c-.01,.004-.013,.011-.02,.017-.006,.005-.012,.009-.016,.013-.013,.016-.021,.03-.021,.03l.065,.018c-.057,.013-.07,.078-.07,.078,.035-.029,.104-.009,.104-.009Z" fill="#11429a"/><path d="M18.715,15.4c-.029-.003-.044,.009-.06,.019-.005,.003-.015,.002-.02,.006-.021,.018-.032,.037-.032,.037,.041-.002,.075,.016,.097,.032v-.002l.014-.083v-.009Z" fill="#11429a"/><path d="M18.66,15.329c-.018,.013-.027,.028-.027,.028,.031-.003,.063,.015,.084,.029v-.003l.012-.067c-.035-.007-.054,.003-.069,.013Z" fill="#11429a"/><path d="M20.888,16.142l-.005-.009c-.013,.007-.02,.018-.03,.027-.005,.005-.012,.01-.016,.015-.015,.019-.024,.034-.024,.034h.088l-.04,.113,.069-.026-.017,.092c.004-.005,.017-.012,.024-.019,.015-.013,.029-.027,.052-.039l-.1-.189Z" fill="#11429a"/><path d="M18.694,15.525l.002-.012c-.024,0-.042,.012-.061,.023-.007,.004-.015,.004-.021,.008-.027,.02-.046,.04-.046,.04,.004,0,.006,.001,.01,0,.041-.006,.076-.005,.105,.007l.011-.067Z" fill="#11429a"/><path d="M18.706,15.998h0l-.03-.069-.003-.007c-.008,.004-.006,.006-.013,.01-.01,.007-.013,.009-.02,.015-.011,.01-.032,.024-.032,.024l.096,.026c-.071,.003-.065,.104-.065,.104h.003l.1-.022-.036-.082Z" fill="#11429a"/><path d="M18.743,16.084v-.003l-.044,.081h.003l.015-.002c.008-.001,.021-.003,.042-.005l.014-.002-.031-.069Z" fill="#11429a"/><path d="M19.312,15.736c-.017,0-.024,.016-.029,.03-.002,.005-.01,.004-.01,.01v.169c0,.021,.017,.039,.039,.039h.008c.022,0,.039-.018,.039-.039v-.169s-.006-.004-.008-.008c-.005-.016-.014-.032-.031-.032h-.008Z" fill="#11429a"/></g></svg>