<svg id="Layer_1" data-name="Layer 1" xmlns="http://www.w3.org/2000/svg" xmlns:xlink="http://www.w3.org/1999/xlink" viewBox="0 0 40 40"><defs><style>.cls-1{fill:none;}.cls-2{clip-path:url(#clip-path);}.cls-3{fill:#e5e8eb;}.cls-4{fill:#2d6a34;}.cls-5{clip-path:url(#clip-path-2);}</style><clipPath id="clip-path"><rect class="cls-1" x="1.162" y="8.966" width="37.677" height="22.068" rx="4"/></clipPath><clipPath id="clip-path-2"><rect class="cls-1" x="1.162" y="8.966" width="37.677" height="22.068"/></clipPath></defs><g class="cls-2"><rect class="cls-3" x="1.162" y="8.966" width="37.677" height="22.068"/><rect class="cls-4" x="10.58" y="8.966" width="28.258" height="22.068"/><g class="cls-5"><path class="cls-3" d="M24.116,13.38A6.62,6.62,0,1,1,17.535,20a6.6,6.6,0,0,1,6.581-6.62"/><path class="cls-4" d="M21.791,13.96a6.007,6.007,0,0,1,8.516.5,6.094,6.094,0,0,1-.5,8.568,6.007,6.007,0,0,1-8.516-.5,6.093,6.093,0,0,1,.5-8.568"/><polygon class="cls-3" points="29.035 15.602 27.025 16.487 27.465 17.497 29.035 15.602"/><polygon class="cls-3" points="29.035 15.602 27.926 17.506 26.98 16.948 29.035 15.602"/><polygon class="cls-3" points="29.288 18.184 27.831 16.534 27.011 17.267 29.288 18.184"/><polygon class="cls-3" points="29.288 18.184 27.145 17.711 27.38 16.633 29.288 18.184"/><polygon class="cls-3" points="26.516 15.046 26.731 17.242 27.823 17.134 26.516 15.046"/><polygon class="cls-3" points="26.516 15.046 27.973 16.696 27.153 17.429 26.516 15.046"/><polygon class="cls-3" points="26.926 19.224 28.034 17.319 27.088 16.761 26.926 19.224"/><polygon class="cls-3" points="26.926 19.224 26.71 17.027 27.802 16.919 26.926 19.224"/><polygon class="cls-3" points="25.212 17.285 27.355 17.757 27.59 16.679 25.212 17.285"/><polygon class="cls-3" points="25.212 17.285 27.222 16.4 27.662 17.411 25.212 17.285"/></g></g></svg>