<?xml version="1.0" encoding="UTF-8"?><svg id="Layer_1" xmlns="http://www.w3.org/2000/svg" viewBox="0 0 40 40"><path d="m2,24h36v-8H2v8Zm18-7.048c1.683,0,3.048,1.365,3.048,3.048s-1.365,3.048-3.048,3.048-3.048-1.365-3.048-3.048,1.365-3.048,3.048-3.048Z" fill="#e3e7ea"/><path d="m2,28v.004c0,2.206,1.788,3.995,3.994,3.996h28.013c2.206,0,3.994-1.79,3.994-3.996v-4.004H2v4Z" fill="#2d3b9d"/><path d="m34.005,8H5.995c-2.207,0-3.995,1.789-3.995,3.996v4.004h36v-4.004c0-2.207-1.789-3.996-3.995-3.996Z" fill="#cf002e"/><path d="m17.745,20.728c.043.13.094.257.158.375.013.025.019.055.033.08l.008-.004.415-.228c-.163-.281-.263-.603-.263-.951,0-1.052.853-1.905,1.905-1.905s1.905.853,1.905,1.905c0,.348-.1.67-.263.95l.416.229.007.004c.013-.023.019-.051.031-.075.067-.125.12-.256.164-.392.018-.054.037-.106.05-.162.038-.153.057-.313.064-.477.001-.032.012-.061.012-.093,0-1.318-1.068-2.386-2.386-2.386s-2.386,1.068-2.386,2.386c0,.048.016.092.019.139.009.144.023.286.056.422.015.063.036.121.056.182Z" fill="#99aab5"/><g><path d="m20,23.048c1.683,0,3.048-1.365,3.048-3.048s-1.365-3.048-3.048-3.048-3.048,1.365-3.048,3.048,1.365,3.048,3.048,3.048Zm0-5.905c1.578,0,2.857,1.279,2.857,2.857s-1.28,2.857-2.857,2.857-2.857-1.28-2.857-2.857,1.279-2.857,2.857-2.857Z"/><path d="m20,22.476c1.368,0,2.476-1.109,2.476-2.476s-1.109-2.476-2.476-2.476-2.476,1.109-2.476,2.476,1.109,2.476,2.476,2.476Zm-2.386-2.491c0-1.318,1.068-2.386,2.386-2.386s2.386,1.068,2.386,2.386c0,.032-.011.061-.012.093-.005.164-.027.323-.064.477-.014.056-.033.108-.05.162-.043.137-.098.267-.164.392-.013.024-.018.052-.031.075l-.007-.004c-.411.715-1.174,1.203-2.058,1.203s-1.646-.487-2.057-1.203l-.008.004c-.014-.025-.02-.054-.033-.08-.063-.12-.115-.245-.158-.375-.02-.061-.041-.119-.056-.182-.032-.136-.049-.278-.056-.422-.003-.047-.019-.091-.019-.139Z"/><path d="m20,21.905c.704,0,1.312-.386,1.642-.955.163-.281.263-.602.263-.95,0-1.052-.853-1.905-1.905-1.905s-1.905.853-1.905,1.905c0,.348.1.67.263.951.33.568.938.954,1.642.954Zm-1.829-1.905c0-1.01.819-1.829,1.829-1.829s1.829.819,1.829,1.829-.819,1.829-1.829,1.829-1.829-.819-1.829-1.829Z"/></g><g><path d="m20,22.857c1.577,0,2.857-1.279,2.857-2.857s-1.279-2.857-2.857-2.857-2.857,1.28-2.857,2.857,1.28,2.857,2.857,2.857Zm0-5.334c1.368,0,2.476,1.109,2.476,2.476s-1.109,2.476-2.476,2.476-2.476-1.109-2.476-2.476,1.109-2.476,2.476-2.476Z" fill="#eee"/><path d="m22.26,20.716c-.044.136-.097.268-.164.392.066-.125.12-.255.164-.392Z" fill="#eee"/><path d="m22.374,20.078c-.006.163-.026.323-.064.477.037-.154.058-.313.064-.477Z" fill="#eee"/><path d="m17.632,20.124c.008.145.024.286.056.422-.033-.136-.048-.278-.056-.422Z" fill="#eee"/><path d="m20,21.905c-.704,0-1.312-.386-1.642-.954l-.415.228c.411.715,1.173,1.203,2.057,1.203s1.647-.487,2.058-1.203l-.416-.229c-.33.568-.938.955-1.642.955Z" fill="#eee"/><path d="m17.902,21.104c-.064-.119-.115-.245-.158-.375.042.131.094.256.158.375Z" fill="#eee"/><path d="m20,21.829c1.01,0,1.829-.819,1.829-1.829s-.819-1.829-1.829-1.829-1.829.819-1.829,1.829.819,1.829,1.829,1.829Zm.178-.207l-.201-.161-.215.148-.215-.121.014-.067.174.121.228-.161.215.148.282-.107-.282.202Zm-.178-2.245l.14.43h.453l-.366.267.139.43-.366-.266-.366.266.139-.43-.366-.267h.453l.14-.43Zm-1.522,1.103c-.027-.162-.031-.201-.031-.416s-.027-.255.04-.443c.066-.188.092-.455.255-.51.161-.053.268-.537.805-.469.133.017,0,.309,0,.309,0,0-.228.121-.308.215-.08.094-.215.268-.268.402-.054.134-.107.255-.134.402-.027.148-.063.175.004.282.067.107.081.255.201.363.121.106.107.187.282.241.174.054.187.121.376.201.164.07.249.196.269.228.012-.039.08-.234.25-.307.188-.08.268-.067.443-.12.174-.054.161-.135.282-.241.12-.107.134-.255.201-.363.068-.107.081-.188.054-.336-.027-.148-.082-.309-.135-.444-.053-.134-.174-.295-.255-.389-.08-.094-.429-.214-.429-.214,0,0,.229-.053.363-.067s.254.296.415.349c.163.055.161.215.229.403.067.188.027.228.027.443s.12.323.094.483c-.027.161-.161.201-.241.309-.08.108-.014.241-.094.323-.08.08-.349.067-.443.148-.094.08-.268.201-.389.134-.119-.066-.368-.093-.374-.094-.031.004-.209.031-.32.092-.121.067-.407.04-.501-.041-.094-.08-.251-.161-.331-.241-.081-.08-.111-.133-.192-.241-.08-.107-.117-.229-.143-.389Z" fill="#eee"/></g><polygon points="19.774 20.074 19.634 20.504 20 20.239 20.366 20.504 20.226 20.074 20.593 19.807 20.14 19.807 20 19.377 19.86 19.807 19.407 19.807 19.774 20.074" fill="#ffac33"/><g><path d="m19.965,21.3c.006,0,.255.027.374.094.121.067.296-.054.389-.134.094-.081.363-.068.443-.148.081-.081.014-.214.094-.323.08-.107.214-.148.241-.309.027-.161-.094-.268-.094-.483s.04-.254-.027-.443c-.067-.188-.066-.348-.229-.403-.161-.053-.281-.363-.415-.349s-.363.067-.363.067c0,0,.349.12.429.214.081.095.202.255.255.389.053.135.107.296.135.444.027.148.014.229-.054.336-.067.107-.081.255-.201.363-.121.107-.107.188-.282.241-.174.053-.254.04-.443.12-.17.073-.238.269-.25.307.003.005.009.013.009.013,0,0-.009.001-.012.002Z" fill="#007127"/><path d="m19.144,21.352c.094.08.379.107.501.041.11-.062.289-.088.32-.092.003,0,.012-.002.012-.002,0,0-.006-.009-.009-.013-.02-.032-.105-.158-.269-.228-.188-.08-.201-.147-.376-.201-.174-.054-.161-.135-.282-.241-.12-.107-.134-.255-.201-.363-.067-.107-.031-.134-.004-.282.027-.148.08-.268.134-.402.053-.134.188-.309.268-.402.08-.094.308-.215.308-.215,0,0,.133-.292,0-.309-.537-.067-.645.416-.805.469-.162.055-.188.322-.255.51-.067.188-.04.228-.04.443s.004.254.031.416c.027.161.063.282.143.389.081.107.111.161.192.241.08.08.238.162.331.241Z" fill="#007127"/><polygon points="19.963 21.379 19.735 21.54 19.56 21.419 19.547 21.487 19.762 21.608 19.976 21.46 20.178 21.621 20.459 21.419 20.178 21.527 19.963 21.379" fill="#007127"/></g></svg>