<?xml version="1.0" encoding="UTF-8"?><svg id="a" xmlns="http://www.w3.org/2000/svg" viewBox="0 0 40 40"><rect x="2" y="8" width="36" height="24" rx="4" ry="4" fill="#cf002e"/><polygon points="17.924 32 5.991 32 5.995 32 34.005 32 34.009 32 22.076 32 17.924 32" fill="none"/><g><path d="M16.693,17.268L5.526,8.048c-1.249,.148-2.315,.86-2.938,1.887l13.691,7.914c.122-.206,.26-.398,.413-.581Z" fill="#fae600"/><path d="M23.308,22.731l11.167,9.222c1.249-.148,2.315-.861,2.937-1.888l-13.691-7.914c-.122,.206-.26,.398-.413,.58Z" fill="#fae600"/><path d="M19.272,15.787c.238-.04,.479-.073,.729-.073s.491,.032,.729,.073l1.347-7.787h-4.152l1.347,7.787Z" fill="#fae600"/><path d="M20,24.286c-.25,0-.491-.032-.729-.073l-1.347,7.787h4.152l-1.347-7.787c-.238,.04-.479,.073-.729,.073Z" fill="#fae600"/><path d="M2.588,30.065c.622,1.027,1.688,1.74,2.937,1.888l11.167-9.221c-.154-.182-.292-.374-.413-.581L2.588,30.065Z" fill="#fae600"/><path d="M37.412,9.935c-.623-1.027-1.689-1.739-2.938-1.887l-11.167,9.221c.154,.182,.292,.374,.413,.58l13.691-7.914Z" fill="#fae600"/><path d="M24.275,19.506c.019,.164,.05,.325,.05,.494s-.031,.33-.05,.494l13.725,1.587v-4.162l-13.725,1.586Z" fill="#fae600"/><path d="M15.675,20c0-.169,.031-.33,.05-.494l-13.725-1.586v4.162l13.725-1.587c-.019-.164-.05-.325-.05-.494Z" fill="#fae600"/><path d="M23.46,20c0-.135-.025-.264-.04-.395-.056-.48-.208-.927-.443-1.325-.097-.165-.208-.318-.331-.464-.516-.613-1.235-1.045-2.063-1.185-.19-.032-.383-.058-.583-.058s-.393,.026-.583,.058c-.828,.14-1.547,.572-2.063,1.185-.123,.146-.233,.299-.331,.464-.235,.398-.387,.845-.443,1.325-.015,.131-.04,.26-.04,.396s.025,.264,.04,.396c.056,.48,.208,.927,.443,1.325,.097,.165,.208,.318,.331,.464,.516,.613,1.235,1.045,2.063,1.185,.19,.032,.383,.058,.583,.058s.392-.026,.583-.058c.828-.14,1.547-.573,2.063-1.185,.123-.146,.233-.299,.331-.464,.235-.398,.387-.845,.443-1.325,.015-.131,.04-.26,.04-.396Z" fill="#fae600"/></g></svg>