<svg id="Layer_1" data-name="Layer 1" xmlns="http://www.w3.org/2000/svg" xmlns:xlink="http://www.w3.org/1999/xlink" viewBox="0 0 40 40"><defs><style>.cls-1{fill:none;}.cls-2{clip-path:url(#clip-path);}.cls-3{fill:#4dacc3;}.cls-4{clip-path:url(#clip-path-2);}.cls-5{fill:#f4c833;}</style><clipPath id="clip-path"><rect class="cls-1" x="1.007" y="8.988" width="37.987" height="22.024" rx="4"/></clipPath><clipPath id="clip-path-2"><rect class="cls-1" x="1.007" y="8.988" width="37.987" height="22.024"/></clipPath></defs><g class="cls-2"><rect class="cls-3" x="1.007" y="8.988" width="37.987" height="22.024"/><g class="cls-4"><path class="cls-5" d="M3.5,24.518a.693.693,0,0,1,.713-.667.574.574,0,0,1,.647.578.96.96,0,0,1-.121.48s-.7,1.437-.968,1.992a.6.6,0,0,0-.044.264.354.354,0,0,0,.706-.006c0-.219-.114-.317-.232-.317-.145,0-.2.059-.2.16,0,.071.035.1.084.1.124,0,.089-.166.089-.166a.114.114,0,0,1,.084.154.22.22,0,0,1,.12.071.221.221,0,0,1-.12.065.112.112,0,0,1-.095.162.171.171,0,0,0,.013-.1.254.254,0,0,1-.336-.249.359.359,0,0,1,.454-.368.206.206,0,0,1-.114-.178.417.417,0,0,0,.114.024.374.374,0,0,1-.081-.232c.055.025.106.071.176.042-.111-.215.025-.511.369-.581a.713.713,0,0,0-.187.463c0,.51.143.6.143.951a.523.523,0,0,1-.23.418v-.006a.309.309,0,0,1,.2.143,1.392,1.392,0,0,1-.746-.007.548.548,0,0,1-.393-.26.783.783,0,0,1,0-.629c.137-.284.783-1.642.984-2.069a.665.665,0,0,0,.068-.29.364.364,0,0,0-.378-.353.321.321,0,0,0-.332.279c0,.1.055.157.132.157.185,0,.174-.156.137-.255a.23.23,0,0,1,.164.24.3.3,0,0,1,.186.1.238.238,0,0,1-.186.1c.037.15-.064.213-.164.248.032-.11.053-.236-.137-.236a.35.35,0,0,1-.31-.113c0,.118-.015.587-.015.587-.008.176.238.171.393.118a.367.367,0,0,1-.458.285.218.218,0,0,1,.14.213.56.56,0,0,1-.224.4Z"/><path class="cls-5" d="M3.592,24.518a.692.692,0,0,0-.713-.667.574.574,0,0,0-.647.578.96.96,0,0,0,.121.48s.7,1.437.967,1.992a.583.583,0,0,1,.045.264.354.354,0,0,1-.706-.006c0-.219.114-.317.231-.317.146,0,.2.059.2.16,0,.071-.035.1-.084.1-.124,0-.089-.166-.089-.166a.113.113,0,0,0-.084.154.22.22,0,0,0-.12.071.221.221,0,0,0,.12.065c-.029.1.01.142.095.162a.171.171,0,0,1-.013-.1.253.253,0,0,0,.335-.249A.359.359,0,0,0,2.8,26.67a.208.208,0,0,0,.114-.178.417.417,0,0,1-.114.024.374.374,0,0,0,.081-.232c-.055.025-.106.071-.176.042a.425.425,0,0,0-.369-.581.713.713,0,0,1,.187.463c0,.51-.143.6-.143.951a.525.525,0,0,0,.229.418v-.006a.307.307,0,0,0-.2.143,1.392,1.392,0,0,0,.746-.007.551.551,0,0,0,.393-.26.783.783,0,0,0,0-.629c-.137-.284-.783-1.642-.984-2.069a.666.666,0,0,1-.069-.29.365.365,0,0,1,.379-.353.32.32,0,0,1,.331.279c0,.1-.054.157-.132.157-.184,0-.174-.156-.136-.255a.23.23,0,0,0-.164.24.3.3,0,0,0-.186.1.238.238,0,0,0,.186.1c-.038.15.064.213.164.248-.032-.11-.053-.236.136-.236a.352.352,0,0,0,.311-.113l.015.587c.008.176-.238.171-.393.118a.367.367,0,0,0,.458.285.218.218,0,0,0-.14.213.56.56,0,0,0,.224.4Z"/><path class="cls-5" d="M3.547,29.282s.21.176.282.088c.115-.142-.353-.847-.353-1.1,0-.407.273-.518.612-.576a2.442,2.442,0,0,1,.6.016.26.26,0,0,1-.233.128.484.484,0,0,1,.264.441c0,.35-.145.495-.145.89a1.155,1.155,0,0,0,.181.5.426.426,0,0,1-.389-.561.159.159,0,0,0-.137.041.228.228,0,0,1,.063-.2c-.04-.022-.07-.009-.133,0a.282.282,0,0,1,.146-.2.348.348,0,0,1-.465-.334.253.253,0,0,1,.219-.271.23.23,0,0,1,.117.036.174.174,0,0,0-.012-.144c.08.021.131.068.095.165a.2.2,0,0,1,.143.065.171.171,0,0,1-.143.066c.045.091,0,.142-.078.183,0,0,.046-.183-.071-.183-.054,0-.1.017-.1.094a.171.171,0,0,0,.2.155c.137-.006.248-.094.248-.311,0-.2-.163-.3-.377-.306a.293.293,0,0,0-.34.3c0,.263.384.864.384,1.1a.292.292,0,0,1-.317.274.589.589,0,0,1-.374-.2Z"/><path class="cls-5" d="M3.547,29.282s-.211.176-.282.088c-.115-.142.353-.847.353-1.1,0-.407-.274-.518-.612-.576a2.442,2.442,0,0,0-.6.016.259.259,0,0,0,.233.128.484.484,0,0,0-.264.441c0,.35.145.495.145.89a1.155,1.155,0,0,1-.181.5.426.426,0,0,0,.389-.561.159.159,0,0,1,.137.041.231.231,0,0,0-.063-.2c.04-.022.069-.009.133,0a.285.285,0,0,0-.146-.2.348.348,0,0,0,.465-.334.252.252,0,0,0-.219-.271.23.23,0,0,0-.117.036.17.17,0,0,1,.012-.144c-.08.021-.131.068-.095.165a.2.2,0,0,0-.143.065.171.171,0,0,0,.143.066c-.045.091,0,.142.078.183,0,0-.046-.183.071-.183.053,0,.1.017.1.094a.171.171,0,0,1-.2.155c-.136-.006-.247-.094-.247-.311,0-.2.163-.3.377-.306a.293.293,0,0,1,.34.3c0,.263-.384.864-.384,1.1a.292.292,0,0,0,.317.274.586.586,0,0,0,.373-.2Z"/><path class="cls-5" d="M3.5,16.805a.693.693,0,0,1,.713-.667.574.574,0,0,1,.647.578.96.96,0,0,1-.121.48s-.7,1.437-.968,1.992a.6.6,0,0,0-.044.264.354.354,0,0,0,.706-.006c0-.219-.114-.317-.232-.317-.145,0-.2.059-.2.16,0,.071.035.1.084.1.124,0,.089-.166.089-.166a.114.114,0,0,1,.084.154.22.22,0,0,1,.12.071.221.221,0,0,1-.12.065.112.112,0,0,1-.095.162.17.17,0,0,0,.013-.1.254.254,0,0,1-.336-.25.359.359,0,0,1,.454-.367.206.206,0,0,1-.114-.178.417.417,0,0,0,.114.024.373.373,0,0,1-.081-.231c.055.025.106.07.176.041-.111-.215.025-.511.369-.581a.713.713,0,0,0-.187.463c0,.51.143.6.143.951a.522.522,0,0,1-.23.418v-.006a.309.309,0,0,1,.2.143,1.382,1.382,0,0,1-.746-.007.551.551,0,0,1-.393-.26.781.781,0,0,1,0-.628c.137-.285.783-1.643.984-2.07a.665.665,0,0,0,.068-.29.364.364,0,0,0-.378-.353.321.321,0,0,0-.332.279c0,.1.055.157.132.157.185,0,.174-.156.137-.255a.23.23,0,0,1,.164.24.3.3,0,0,1,.186.1.238.238,0,0,1-.186.1c.037.15-.064.213-.164.249.032-.111.053-.237-.137-.237a.35.35,0,0,1-.31-.113c0,.118-.015.587-.015.587-.008.176.238.171.393.118a.368.368,0,0,1-.458.285.218.218,0,0,1,.14.213.56.56,0,0,1-.224.4Z"/><path class="cls-5" d="M3.592,16.805a.692.692,0,0,0-.713-.667.574.574,0,0,0-.647.578.96.96,0,0,0,.121.48s.7,1.437.967,1.992a.58.58,0,0,1,.045.264.354.354,0,0,1-.706-.006c0-.219.114-.317.231-.317.146,0,.2.059.2.16,0,.071-.035.1-.084.1-.124,0-.089-.166-.089-.166a.113.113,0,0,0-.084.154.22.22,0,0,0-.12.071.221.221,0,0,0,.12.065c-.029.1.01.142.095.162a.17.17,0,0,1-.013-.1.254.254,0,0,0,.335-.25.359.359,0,0,0-.453-.367.208.208,0,0,0,.114-.178A.417.417,0,0,1,2.8,18.8a.373.373,0,0,0,.081-.231c-.055.025-.106.07-.176.041a.425.425,0,0,0-.369-.581.713.713,0,0,1,.187.463c0,.51-.143.6-.143.951a.523.523,0,0,0,.229.418v-.006a.307.307,0,0,0-.2.143,1.382,1.382,0,0,0,.746-.007.554.554,0,0,0,.393-.26.781.781,0,0,0,0-.628c-.137-.285-.783-1.643-.984-2.07a.666.666,0,0,1-.069-.29.365.365,0,0,1,.379-.353.32.32,0,0,1,.331.279c0,.1-.054.157-.132.157-.184,0-.174-.156-.136-.255a.23.23,0,0,0-.164.24.3.3,0,0,0-.186.1.238.238,0,0,0,.186.1c-.038.15.064.213.164.249-.032-.111-.053-.237.136-.237a.352.352,0,0,0,.311-.113l.015.587c.008.176-.238.171-.393.118a.368.368,0,0,0,.458.285.218.218,0,0,0-.14.213.56.56,0,0,0,.224.4Z"/><path class="cls-5" d="M3.592,15.484a.692.692,0,0,1-.713.667.574.574,0,0,1-.647-.578.96.96,0,0,1,.121-.48s.7-1.437.967-1.992a.578.578,0,0,0,.045-.264.354.354,0,0,0-.706.006c0,.219.114.317.231.317.146,0,.2-.059.2-.16,0-.07-.035-.1-.084-.1-.124,0-.089.166-.089.166a.113.113,0,0,1-.084-.154.22.22,0,0,1-.12-.071.221.221,0,0,1,.12-.065c-.029-.1.01-.142.095-.162a.173.173,0,0,0-.013.1.253.253,0,0,1,.335.249.358.358,0,0,1-.453.367.21.21,0,0,1,.114.178.417.417,0,0,0-.114-.024.376.376,0,0,1,.081.231c-.055-.025-.106-.07-.176-.041a.425.425,0,0,1-.369.581.713.713,0,0,0,.187-.463c0-.51-.143-.6-.143-.951a.523.523,0,0,1,.229-.418v.006a.307.307,0,0,1-.2-.143,1.393,1.393,0,0,1,.746.006.555.555,0,0,1,.393.262.78.78,0,0,1,0,.628c-.137.284-.783,1.642-.984,2.069a.666.666,0,0,0-.069.29.363.363,0,0,0,.379.352.319.319,0,0,0,.331-.278c0-.1-.054-.157-.132-.157-.184,0-.174.156-.136.255a.229.229,0,0,1-.164-.24.3.3,0,0,1-.186-.1.238.238,0,0,1,.186-.1c-.038-.15.064-.213.164-.249-.032.111-.053.238.136.238a.352.352,0,0,1,.311.112l.015-.587c.008-.176-.238-.17-.393-.118a.367.367,0,0,1,.458-.285.218.218,0,0,1-.14-.213.56.56,0,0,1,.224-.4Z"/><path class="cls-5" d="M3.5,15.484a.693.693,0,0,0,.713.667.574.574,0,0,0,.647-.578.96.96,0,0,0-.121-.48s-.7-1.437-.968-1.992a.593.593,0,0,1-.044-.264.354.354,0,0,1,.706.006c0,.219-.114.317-.232.317-.145,0-.2-.059-.2-.16,0-.07.035-.1.084-.1.124,0,.089.166.089.166a.114.114,0,0,0,.084-.154.22.22,0,0,0,.12-.071.221.221,0,0,0-.12-.065.112.112,0,0,0-.095-.162.173.173,0,0,1,.013.1.253.253,0,0,0-.336.249.359.359,0,0,0,.454.367.208.208,0,0,0-.114.178.417.417,0,0,1,.114-.024.376.376,0,0,0-.081.231c.055-.025.106-.07.176-.041-.111.215.025.511.369.581a.713.713,0,0,1-.187-.463c0-.51.143-.6.143-.951a.522.522,0,0,0-.23-.418v.006a.309.309,0,0,0,.2-.143,1.392,1.392,0,0,0-.746.006.553.553,0,0,0-.393.262.78.78,0,0,0,0,.628c.137.284.783,1.642.984,2.069a.665.665,0,0,1,.068.29.363.363,0,0,1-.378.352.32.32,0,0,1-.332-.278c0-.1.055-.157.132-.157.185,0,.174.156.137.255a.229.229,0,0,0,.164-.24.3.3,0,0,0,.186-.1.238.238,0,0,0-.186-.1c.037-.15-.064-.213-.164-.249.032.111.053.238-.137.238a.35.35,0,0,0-.31.112c0-.118-.015-.587-.015-.587-.008-.176.238-.17.393-.118a.367.367,0,0,0-.458-.285.218.218,0,0,0,.14-.213.56.56,0,0,0-.224-.4Z"/><path class="cls-5" d="M3.592,23.2a.691.691,0,0,1-.713.666.574.574,0,0,1-.647-.578.965.965,0,0,1,.121-.48s.7-1.436.967-1.991a.578.578,0,0,0,.045-.264.354.354,0,0,0-.706.006c0,.219.114.317.231.317.146,0,.2-.059.2-.16,0-.07-.035-.1-.084-.1-.124,0-.089.166-.089.166a.113.113,0,0,1-.084-.154.226.226,0,0,1-.12-.071.221.221,0,0,1,.12-.065c-.029-.1.01-.142.095-.162a.173.173,0,0,0-.013.1.252.252,0,0,1,.335.248.359.359,0,0,1-.453.368.208.208,0,0,1,.114.178A.417.417,0,0,0,2.8,21.2a.373.373,0,0,1,.081.231c-.055-.024-.106-.07-.176-.041a.425.425,0,0,1-.369.581.713.713,0,0,0,.187-.463c0-.511-.143-.6-.143-.951a.523.523,0,0,1,.229-.418v.006a.307.307,0,0,1-.2-.143,1.392,1.392,0,0,1,.746.007.551.551,0,0,1,.393.261.78.78,0,0,1,0,.628c-.137.284-.783,1.642-.984,2.068a.673.673,0,0,0-.069.291.364.364,0,0,0,.379.353A.32.32,0,0,0,3.2,23.33c0-.1-.054-.157-.132-.157-.184,0-.174.156-.136.255a.229.229,0,0,1-.164-.24.3.3,0,0,1-.186-.1.235.235,0,0,1,.186-.1c-.038-.15.064-.214.164-.249-.032.111-.053.238.136.238a.352.352,0,0,1,.311.112c0-.119.015-.587.015-.587.008-.176-.238-.171-.393-.118a.367.367,0,0,1,.458-.285.218.218,0,0,1-.14-.213.56.56,0,0,1,.224-.4Z"/><path class="cls-5" d="M3.5,23.2a.692.692,0,0,0,.713.666.574.574,0,0,0,.647-.578.965.965,0,0,0-.121-.48s-.7-1.436-.968-1.991a.593.593,0,0,1-.044-.264.354.354,0,0,1,.706.006c0,.219-.114.317-.232.317-.145,0-.2-.059-.2-.16,0-.07.035-.1.084-.1.124,0,.089.166.089.166a.114.114,0,0,0,.084-.154.226.226,0,0,0,.12-.071.221.221,0,0,0-.12-.065.112.112,0,0,0-.095-.162.173.173,0,0,1,.013.1.253.253,0,0,0-.336.248.36.36,0,0,0,.454.368.206.206,0,0,0-.114.178.417.417,0,0,1,.114-.024.373.373,0,0,0-.081.231c.055-.024.106-.07.176-.041-.111.215.025.511.369.581a.713.713,0,0,1-.187-.463c0-.511.143-.6.143-.951a.522.522,0,0,0-.23-.418v.006a.309.309,0,0,0,.2-.143,1.392,1.392,0,0,0-.746.007.549.549,0,0,0-.393.261.78.78,0,0,0,0,.628c.137.284.783,1.642.984,2.068a.672.672,0,0,1,.068.291.363.363,0,0,1-.378.353.321.321,0,0,1-.332-.279c0-.1.055-.157.132-.157.185,0,.174.156.137.255a.229.229,0,0,0,.164-.24.3.3,0,0,0,.186-.1.235.235,0,0,0-.186-.1c.037-.15-.064-.214-.164-.249.032.111.053.238-.137.238a.35.35,0,0,0-.31.112c0-.119-.015-.587-.015-.587-.008-.176.238-.171.393-.118a.367.367,0,0,0-.458-.285.218.218,0,0,0,.14-.213.56.56,0,0,0-.224-.4Z"/><path class="cls-5" d="M3.547,10.72s.21-.175.282-.088c.115.142-.353.847-.353,1.1,0,.407.273.518.612.576a2.442,2.442,0,0,0,.6-.016.257.257,0,0,0-.233-.127.486.486,0,0,0,.264-.441c0-.351-.145-.5-.145-.891a1.168,1.168,0,0,1,.181-.5.428.428,0,0,0-.389.562.157.157,0,0,1-.137-.042.23.23,0,0,0,.063.206c-.04.022-.07.009-.133,0a.287.287,0,0,0,.146.206.348.348,0,0,0-.465.333.252.252,0,0,0,.219.27.229.229,0,0,0,.117-.035.174.174,0,0,1-.012.144c.08-.02.131-.067.095-.165A.2.2,0,0,0,4.4,11.74a.171.171,0,0,0-.143-.066c.045-.091,0-.142-.078-.184,0,0,.046.184-.071.184-.054,0-.1-.017-.1-.094a.171.171,0,0,1,.2-.155c.137.006.248.094.248.311,0,.2-.163.3-.377.307a.3.3,0,0,1-.34-.3c0-.264.384-.865.384-1.1a.292.292,0,0,0-.317-.274.589.589,0,0,0-.374.2Z"/><path class="cls-5" d="M3.547,10.72s-.211-.175-.282-.088c-.115.142.353.847.353,1.1,0,.407-.274.518-.612.576a2.442,2.442,0,0,1-.6-.016.256.256,0,0,1,.233-.127.486.486,0,0,1-.264-.441c0-.351.145-.5.145-.891a1.168,1.168,0,0,0-.181-.5.428.428,0,0,1,.389.562.157.157,0,0,0,.137-.042.233.233,0,0,1-.063.206c.04.022.069.009.133,0a.29.29,0,0,1-.146.206.348.348,0,0,1,.465.333.251.251,0,0,1-.219.27.229.229,0,0,1-.117-.035.17.17,0,0,0,.012.144c-.08-.02-.131-.067-.095-.165a.2.2,0,0,1-.143-.065.171.171,0,0,1,.143-.066c-.045-.091,0-.142.078-.184,0,0-.046.184.071.184.053,0,.1-.017.1-.094a.171.171,0,0,0-.2-.155c-.136.006-.247.094-.247.311,0,.2.163.3.377.307a.3.3,0,0,0,.34-.3c0-.264-.384-.865-.384-1.1a.292.292,0,0,1,.317-.274.586.586,0,0,1,.373.2Z"/><path class="cls-3" d="M3.133,23.16c0-.036-.08-.014-.138,0s-.094.041-.09.077.076.018.135.006.1-.045.093-.082Z"/><path class="cls-3" d="M2.942,23.28h-.02l-.04-.042c0-.047.036-.085.108-.1a.609.609,0,0,1,.109-.019h.02l.036.041c0,.047-.039.088-.11.1a.533.533,0,0,1-.1.017Z"/><path class="cls-5" d="M20.841,23.953a5.258,5.258,0,0,1-5.256-4.73s-.117-.044-.133.061c-.036.251.069,1.021.03.969-.072-.1-.616-1.543-.715-1.387-.132.21.609,1.856.567,1.9-.15.176-1-1.606-1.068-1.474-.258.5,1.051,2.118,1.041,2.185-.029.216-1-.87-1.076-.754-.182.262,1.041,1.218,1.105,1.292.19.218-.67-.386-.7-.177-.021.17.417.514.679.663s.346.1.421.231c.056.1-.492-.062-.477.059.03.237.6.186.688.293s-.39.025-.37.113c.033.154.517.178.524.243s-.3.021-.284.148c.017.108.491.085.607.162s-.425.011,0,.22a5.815,5.815,0,0,0,1.562.571c.66.128,1-.016,1.019-.058s-.312.034-.78-.05a5.109,5.109,0,0,1-1.348-.527c-.08-.046.249-.14.18-.23s-.333.012-.436-.116c-.066-.083.125-.085.12-.137s-.365-.132-.43-.222.164-.076.172-.137c.006-.043-.227-.12-.244-.18s.262-.043.131-.115-.515-.174-.586-.308.287.019.194-.107c-.063-.085-.409-.232-.481-.432-.05-.135.244-.017.248-.1.007-.136-.174-.049-.231-.439-.019-.128.23-.043.23-.043l.034-.068a2.831,2.831,0,0,1,.671.6c.378.436.485.848.842,1.145.17.141.173-.057.56.182a6.677,6.677,0,0,1,.95.75,8.268,8.268,0,0,1,1.1.112c.417.086.5.306.5.306a1.118,1.118,0,0,0,.344-.308c.044-.066.087,0,.1-.014.045-.039-.006-.092-.006-.092Z"/><path class="cls-5" d="M18.486,24.619a2.654,2.654,0,0,1-.5-.053,5.867,5.867,0,0,1-1.567-.573c-.13-.064-.181-.107-.175-.148s.067-.053.125-.064a.3.3,0,0,0,.062-.016,1.429,1.429,0,0,0-.289-.051c-.175-.022-.327-.041-.339-.119v-.009l.014-.051c.032-.043.109-.055.177-.066a.256.256,0,0,0,.095-.024.757.757,0,0,0-.16-.049c-.153-.037-.342-.084-.365-.19.033-.068.1-.072.214-.076a.467.467,0,0,0,.167-.021.509.509,0,0,0-.251-.078c-.2-.034-.427-.072-.447-.234.055-.112.17-.074.3-.06.051.005.1.009.136.009,0-.065-.04-.079-.119-.107a1.423,1.423,0,0,1-.255-.115c-.245-.139-.714-.5-.69-.685,0-.024.018-.064.085-.064a1.468,1.468,0,0,1,.462.182,1.092,1.092,0,0,0,.191.088.95.95,0,0,1-.159-.12c-.566-.484-1.126-1.006-.984-1.21.109-.022.278.127.544.368a2.165,2.165,0,0,0,.521.405,1.2,1.2,0,0,0-.162-.264c-.348-.5-1.073-1.545-.868-1.939.088-.02.188.148.444.587.207.354.519.889.617.889a3.09,3.09,0,0,0-.165-.486,3.5,3.5,0,0,1-.394-1.421c.115-.026.292.326.585,1.015.063.149.119.281.149.341a1.615,1.615,0,0,1-.031-.252,4.092,4.092,0,0,1-.021-.677.1.1,0,0,1,.1-.089.2.2,0,0,1,.061.011,5.232,5.232,0,0,0,5.228,4.728.083.083,0,0,1,.067.079v.009l-.026.043-.034-.022-.035.011a1.2,1.2,0,0,1-.389.338.718.718,0,0,0-.509-.306,4.1,4.1,0,0,0-.859-.1h-.141a.167.167,0,0,1-.107-.02l-.232-.2a4.84,4.84,0,0,0-.716-.547.624.624,0,0,0-.335-.125l-.075,0a.221.221,0,0,1-.153-.062,2.192,2.192,0,0,1-.456-.59,3.884,3.884,0,0,0-.388-.558,2.876,2.876,0,0,0-.665-.593l0,.059a1.164,1.164,0,0,1-.167-.016.078.078,0,0,0-.056.016c.028.259.1.315.159.356a.125.125,0,0,1,.067.117c0,.055-.072.055-.1.055l-.086,0c-.046,0-.06.007-.065.013a.75.75,0,0,0,.329.337.679.679,0,0,1,.152.117l.008.011.008.054c-.012.022-.041.025-.066.025l-.11-.006c.012.11.2.183.352.242a1.622,1.622,0,0,1,.193.083c.023.013.049.031.046.056s-.043.04-.093.051c-.023,0-.068.015-.074.025a.483.483,0,0,0,.123.081c.076.04.127.068.122.1s-.057.055-.106.069c-.029.008-.072.021-.077.034a.585.585,0,0,0,.257.145c.126.048.181.071.185.106s-.039.055-.076.071c-.022.008-.056.022-.059.034a.278.278,0,0,0,.246.085c.083,0,.162,0,.2.052l.014.05c-.009.047-.07.085-.129.122a.328.328,0,0,0-.073.055,5.327,5.327,0,0,0,1.344.521,2.669,2.669,0,0,0,.482.042c.067,0,.124,0,.169,0l.077,0c.038,0,.058,0,.067.018-.024.071-.207.15-.539.15Zm-3.112-1.85c-.066,0-.083.011-.088.016.014.136.234.173.41.2.13.021.233.038.272.086l.008.011,0,.042c-.018.038-.089.043-.205.047a.476.476,0,0,0-.173.023c.018.079.2.124.332.157s.189.048.193.088-.061.06-.131.071-.127.019-.148.048c0,.072.172.093.3.109a.856.856,0,0,1,.3.066l.026.044c-.006.027-.041.034-.093.044-.025,0-.085.015-.091.028s0,.028.152.1a5.823,5.823,0,0,0,1.556.569,2.641,2.641,0,0,0,.5.052.9.9,0,0,0,.5-.1l-.1.021c-.046,0-.1,0-.171,0a2.688,2.688,0,0,1-.491-.042,5.183,5.183,0,0,1-1.355-.529c-.025-.067.015-.092.07-.127s.1-.065.108-.093c-.03-.048-.1-.049-.169-.05a.336.336,0,0,1-.271-.081l-.017-.059c.008-.033.046-.049.084-.064.015-.007.045-.019.048-.026a.878.878,0,0,0-.156-.069.723.723,0,0,1-.27-.142l-.013-.058c.012-.035.058-.048.106-.062.024-.007.073-.021.075-.032a.5.5,0,0,0-.1-.061c-.08-.043-.134-.074-.144-.111.019-.056.061-.066.106-.076a.232.232,0,0,0,.061-.019c-.07-.031-.138-.058-.213-.087-.167-.065-.356-.138-.407-.236l-.006-.011v-.052c.025-.042.085-.029.136-.025l.051,0c-.006-.047-.061-.083-.126-.126a.846.846,0,0,1-.344-.331.072.072,0,0,1,0-.068.121.121,0,0,1,.1-.032l.086,0c.025,0,.056,0,.057-.014,0-.041-.015-.053-.05-.079a.448.448,0,0,1-.181-.355.078.078,0,0,1,.016-.065c.048-.054.238,0,.243,0l.007-.057h0a1.972,1.972,0,0,1,.707.594,3.879,3.879,0,0,1,.392.563,2.123,2.123,0,0,0,.447.579.178.178,0,0,0,.124.052l.075,0a.663.663,0,0,1,.358.131,4.886,4.886,0,0,1,.722.552l.231.2a.192.192,0,0,0,.079.01h.141a4.177,4.177,0,0,1,.868.1c.425.088.517.311.52.32a3.363,3.363,0,0,0,.306-.312.074.074,0,0,1,.063-.04l.045.013,0-.067-.02.023a5.252,5.252,0,0,1-5.257-4.738l-.032,0a.053.053,0,0,0-.058.051,4.2,4.2,0,0,0,.022.668c.021.26.022.3.007.315-.061-.034-.116-.161-.21-.383a4.471,4.471,0,0,0-.507-1.011,4.3,4.3,0,0,0,.4,1.383c.167.438.187.5.167.526l-.043.02c-.115,0-.334-.361-.655-.91a3.254,3.254,0,0,0-.378-.584c-.181.365.534,1.394.876,1.888.152.219.181.263.178.285l0,.02-.049.028c-.083,0-.263-.157-.551-.417a2.077,2.077,0,0,0-.476-.375c-.14.2.7.916.975,1.151.069.06.117.1.128.113.026.03.039.05.03.069-.058.014-.12-.015-.239-.076a1.508,1.508,0,0,0-.442-.178c-.038,0-.04.017-.041.025-.019.149.383.48.668.642a1.387,1.387,0,0,0,.248.112.274.274,0,0,1,.181.127c-.021.132-.117.066-.218.056-.057-.006-.117-.012-.166-.012Z"/><path class="cls-5" d="M22.84,24.835c-.108-.02-.093.064-.093.064a.246.246,0,0,1-.159.244c-.069.017-.035.068-.058.115l-.288-.015a2.9,2.9,0,0,1-1.725.259s-.145.109-.274.222-.218.138-.245.229.068.14.187.144a.585.585,0,0,0,.275-.108.135.135,0,0,0,.129.1,1.023,1.023,0,0,0,.311-.064.682.682,0,0,0,.3.059.571.571,0,0,0,.236-.1s.034.148.16.153a.7.7,0,0,0,.324-.158.274.274,0,0,0,.21.093.6.6,0,0,0,.259-.15.478.478,0,0,0,.282.021.716.716,0,0,0,.267-.179.286.286,0,0,0,.231.064c.11-.035.182-.187.182-.187a.746.746,0,0,0,.489.023c.138-.066.1-.28.1-.28s.808.116.772-.409c0-.054-1.3-.037-1.869-.143Z"/><path class="cls-5" d="M21.6,26.162h-.007a.207.207,0,0,1-.177-.156.338.338,0,0,1-.216.1,1.093,1.093,0,0,1-.307-.061.806.806,0,0,1-.282.067A.174.174,0,0,1,20.441,26a.359.359,0,0,1-.25.115.249.249,0,0,1-.2-.075.109.109,0,0,1-.015-.1c.02-.067.069-.1.135-.149a1.482,1.482,0,0,0,.117-.091c.13-.113.275-.223.275-.223.178.014.333.023.481.023a2.6,2.6,0,0,0,1.247-.283l.3.012c-.011-.059-.009-.1.052-.115a.22.22,0,0,0,.141-.22.09.09,0,0,1,.018-.065.087.087,0,0,1,.068-.027,10.85,10.85,0,0,0,1.306.1c.574.022.613.029.615.068a.356.356,0,0,1-.09.281.736.736,0,0,1-.523.162h0a1.351,1.351,0,0,1-.177-.011.224.224,0,0,1-.1.278.888.888,0,0,1-.5-.021.279.279,0,0,1-.171.186.327.327,0,0,1-.249-.066.466.466,0,0,1-.249.182.584.584,0,0,1-.3-.023.435.435,0,0,1-.249.152h0A.323.323,0,0,1,21.9,26a.482.482,0,0,1-.3.163Zm-.179-.192c.036.018.067.143.174.148l0,.022v-.022a.7.7,0,0,0,.3-.153c.032,0,.107.089.2.089a.579.579,0,0,0,.265-.145,1.23,1.23,0,0,0,.2.028.343.343,0,0,0,.093-.012.706.706,0,0,0,.257-.173.52.52,0,0,0,.2.065.373.373,0,0,0,.212-.183c.032-.011.177.046.327.046a.406.406,0,0,0,.172-.033c.122-.058.089-.254.089-.256.025-.026.1-.015.2-.015h0a.7.7,0,0,0,.49-.148.312.312,0,0,0,.079-.248c-.024-.006-.3-.016-.573-.027a10.491,10.491,0,0,1-1.278-.1l-.06.009a.3.3,0,0,1-.182.3c-.029.007-.03.018-.031.046a.175.175,0,0,1-.013.058l-.309,0a2.919,2.919,0,0,1-1.725.259c0,.006-.136.109-.258.216a1.288,1.288,0,0,1-.121.093c-.064.046-.1.074-.118.127a.064.064,0,0,0,.007.059.213.213,0,0,0,.16.055h0a.6.6,0,0,0,.261-.1c.035.015.053.088.144.095h0a1.085,1.085,0,0,0,.3-.063,1,1,0,0,0,.266.06.586.586,0,0,0,.261-.094Z"/><path class="cls-5" d="M21.125,24.28a4.528,4.528,0,0,1,.649-.175c.778-.16,1.048-.108,1.1-.156a2.988,2.988,0,0,1,1.518-.911c.357-.3.473-.722.851-1.158s.6-.47.6-.47l.051.1s.2-.152.193-.024c-.016.193-.177.378-.17.513,0,.086.277-.037.253.042-.064.2-.282.326-.345.411-.093.126.248-.045.179.087s-.416.267-.551.352c-.082.053.09.064.073.123s-.373.191-.368.235c.009.061.1.066.054.113-.074.081-.369.093-.373.142s.061.1,0,.186c-.1.129-.183,0-.226.105-.024.06.169.181.038.2a1.264,1.264,0,0,0-.466.205,3.788,3.788,0,0,1-.472.123c-.1.026-.651.094-.628.138a2.834,2.834,0,0,0,1.105-.089,6.215,6.215,0,0,0,1-.25c.567-.178-.145-.191-.029-.267s.611-.04.628-.148c.019-.127-.274-.088-.266-.158s.6-.063.633-.219c.019-.087-.339-.025-.252-.132s.559-.13.574-.332c.01-.122-.385.025-.334-.074.021-.04.181-.083.339-.193.247-.171.641-.468.619-.639-.026-.208-.818.487-.75.221.024-.095,1.292-1.092,1.084-1.334-.141-.164-1.045.908-1.074.693-.009-.069,1.409-1.663,1.15-2.163-.068-.131-1.135,1.9-1.285,1.727-.042-.048.91-2.007.759-2.2-.073-.1-.222.229-.385.591s-.341.759-.377.808.042-.766,0-1.017c-.015-.105-.133-.061-.133-.061a5.572,5.572,0,0,1-4.6,4.726c-.511.072-.674.311-1.231.624-.188.106-.477.156-.726.294a1.516,1.516,0,0,0-.512.479.28.28,0,0,0,.071.27c.053.022.049-.137.108-.166s.059.058.127.054a.326.326,0,0,0,.148-.068s1.387,0,1.981-.02a.605.605,0,0,0,.359-.125c-.023-.066-.184-.03-.285-.025-.419-.029-.967,0-1.359-.027a.061.061,0,0,1-.059-.067,3.22,3.22,0,0,1,.25-.292h-.2a.689.689,0,0,1-.177.073c-.059.006-.081-.031-.059-.049a9.482,9.482,0,0,1,1.19-.624Z"/><path class="cls-5" d="M19.106,25.64l-.018,0c-.041-.016-.067-.087-.077-.116a.247.247,0,0,1,0-.185,1.538,1.538,0,0,1,.519-.487,2.458,2.458,0,0,1,.413-.169,1.955,1.955,0,0,0,.314-.125c.178-.1.316-.194.438-.276a1.716,1.716,0,0,1,.8-.351,5.524,5.524,0,0,0,4.579-4.7.107.107,0,0,1,.177.059,4.978,4.978,0,0,1-.005.676,3.151,3.151,0,0,0-.008.335,6.2,6.2,0,0,1,.291-.694l.052-.114c.19-.422.29-.621.376-.621h.011l.036.025c.1.13-.184.828-.536,1.658a4.97,4.97,0,0,0-.22.555A4.354,4.354,0,0,0,27,20.055c.317-.511.442-.7.5-.7.234.411-.553,1.44-.931,1.934a2.736,2.736,0,0,0-.187.258,1.8,1.8,0,0,0,.425-.316c.23-.205.468-.418.585-.418H27.4l.048.025c.149.173-.323.636-.818,1.095a2.54,2.54,0,0,0-.261.258c.056.034.184-.041.307-.114.226-.133.429-.228.443-.114.018.137-.194.359-.628.659a1.553,1.553,0,0,1-.231.128.411.411,0,0,0-.1.057.5.5,0,0,0,.112,0c.092-.008.179-.011.209.021l.015.047c-.01.138-.2.2-.364.249a.545.545,0,0,0-.215.095c0,.028.065.035.1.039.067.008.126.014.148.045-.016.147-.236.183-.431.215a.753.753,0,0,0-.2.045.559.559,0,0,0,.09.023c.081.016.192.037.177.131-.012.078-.167.092-.348.11a.856.856,0,0,0-.289.053s.058.019.093.03c.086.024.168.048.168.1,0,.035-.028.076-.237.141a6.28,6.28,0,0,1-1,.251,6.162,6.162,0,0,1-.961.113c-.131,0-.158-.018-.168-.036.016-.057.109-.079.452-.135.086-.014.16-.026.19-.034.048-.012.107-.026.167-.039a1.717,1.717,0,0,0,.3-.082,1.271,1.271,0,0,1,.474-.207c.032-.023,0-.058-.01-.078-.029-.039-.059-.078-.045-.114a.08.08,0,0,1,.081-.059l.052.025v-.023a.115.115,0,0,0,.1-.054.1.1,0,0,0,.012-.111.136.136,0,0,1-.012-.063c0-.039.062-.052.16-.075a.505.505,0,0,0,.219-.08c-.029-.039-.054-.059-.06-.1s.041-.06.181-.13a.737.737,0,0,0,.188-.114c0-.01-.024-.025-.042-.034s-.053-.029-.054-.055V22.9l.033-.033c.04-.026.1-.055.163-.088a1.021,1.021,0,0,0,.38-.256.1.1,0,0,0-.079-.014.48.48,0,0,1-.067.008l-.048-.021a.065.065,0,0,1,.017-.063.691.691,0,0,1,.1-.1.733.733,0,0,0,.244-.309.676.676,0,0,0-.084.009c-.105.018-.168-.008-.17-.042a.551.551,0,0,1,.077-.242.835.835,0,0,0,.092-.275c-.048-.027-.12.016-.157.044l-.082-.1a1.783,1.783,0,0,0-.565.472,3.8,3.8,0,0,0-.392.563,2.224,2.224,0,0,1-.462.6c-.085.035-.165.063-.245.09a2.61,2.61,0,0,0-1.271.82c-.029.025-.081.028-.195.036a6.114,6.114,0,0,0-.921.127,4.4,4.4,0,0,0-.645.173,9.56,9.56,0,0,0-1.184.622.457.457,0,0,0,.211-.061l.207,0c-.1.158-.219.3-.228.32l.037.061v-.022c.392.024.941,0,1.36.027l.071-.006c.086-.01.2-.041.233.046a.554.554,0,0,1-.38.154c-.586.017-1.944.02-1.981.02a.258.258,0,0,1-.146.068h0a.1.1,0,0,1-.083-.041c-.048-.007-.068.036-.079.068s-.027.087-.065.087Zm7.04-6.4a.15.15,0,0,0-.045.008,5.539,5.539,0,0,1-4.6,4.726,1.681,1.681,0,0,0-.781.345c-.123.082-.262.176-.442.277a1.9,1.9,0,0,1-.321.129,2.419,2.419,0,0,0-.406.165,1.511,1.511,0,0,0-.5.472.22.22,0,0,0,.008.148.172.172,0,0,0,.052.09h0a.22.22,0,0,0,.023-.056c.014-.043.029-.092.066-.11.06-.007.075.01.088.025s.026.027.045.027a.293.293,0,0,0,.137-.063c.015-.006,1.4-.008,2-.025a.588.588,0,0,0,.344-.118.51.51,0,0,1-.084,0,1.058,1.058,0,0,0-.108.008l-.076.006c-.423-.03-.97,0-1.361-.027a.094.094,0,0,1-.063-.03.084.084,0,0,1-.017-.061,1.667,1.667,0,0,1,.256-.305l-.18.037h0a.559.559,0,0,1-.175.073c-.048,0-.08-.015-.089-.04l0-.015.02-.033a9.28,9.28,0,0,1,1.194-.627,4.376,4.376,0,0,1,.653-.177,6.167,6.167,0,0,1,.928-.127.471.471,0,0,0,.167-.024,2.651,2.651,0,0,1,1.286-.83c.08-.027.159-.054.238-.085a2.234,2.234,0,0,0,.446-.583,3.847,3.847,0,0,1,.4-.568c.379-.437.6-.477.614-.478l.07.1c0-.021.083-.082.14-.082l.043.017a.074.074,0,0,1,.016.058.889.889,0,0,1-.1.289.543.543,0,0,0-.073.221.3.3,0,0,0,.119,0,.516.516,0,0,1,.079-.009l.049.018a.676.676,0,0,1-.252.367.71.71,0,0,0-.091.088c.011.015.032.012.055.008a.536.536,0,0,1,.074-.008h.013l.044.023a.064.064,0,0,1-.006.062,1,1,0,0,1-.4.275c-.063.032-.121.061-.16.086.049.042.095.066.083.111s-.076.072-.212.14a.753.753,0,0,0-.157.091.1.1,0,0,0,.034.037l.033.047a.394.394,0,0,1-.259.134.438.438,0,0,0-.127.04c.025.078.043.129-.008.194a.16.16,0,0,1-.132.071l-.052,0c-.016,0-.028,0-.04.031-.005.013.022.048.04.071.028.039.056.076.043.109a.073.073,0,0,1-.061.039,1.248,1.248,0,0,0-.458.2,1.564,1.564,0,0,1-.313.088c-.06.013-.118.027-.166.039-.031.008-.106.02-.194.034a3.718,3.718,0,0,0-.4.079,3.715,3.715,0,0,0,1.064-.107,6.388,6.388,0,0,0,1-.249c.205-.065.207-.1.207-.1,0-.019-.1-.048-.136-.058-.081-.024-.123-.037-.128-.069l0-.013.024-.026a.843.843,0,0,1,.31-.061c.12-.012.3-.028.309-.073s-.055-.064-.143-.081c-.067-.013-.129-.026-.123-.075s.07-.053.231-.08.385-.062.4-.141c-.011-.019-.075-.026-.117-.031-.07-.008-.131-.015-.146-.051l0-.012.02-.048a.54.54,0,0,1,.237-.109c.152-.048.325-.1.333-.211-.014-.031-.09-.028-.176-.02-.068.008-.132.023-.157-.017.015-.071.056-.09.123-.122a1.554,1.554,0,0,0,.225-.124c.55-.381.618-.551.609-.618a.727.727,0,0,0-.376.148.975.975,0,0,1-.323.153l-.044-.019a.079.079,0,0,1-.006-.07c.007-.031.077-.1.274-.279.331-.307.948-.879.814-1.035-.12,0-.378.216-.581.4-.229.205-.374.332-.447.332h-.019l-.032-.048c0-.024.027-.065.2-.285.373-.487,1.149-1.5.957-1.87a6.927,6.927,0,0,0-.453.689c-.4.64-.668,1.06-.788,1.06-.06-.041-.046-.087.176-.611a5.371,5.371,0,0,0,.542-1.613c-.074,0-.234.336-.348.586l-.051.115c-.151.335-.294.652-.328.7-.055-.013-.055-.06-.041-.359a4.886,4.886,0,0,0,.006-.668.052.052,0,0,0-.058-.051Z"/><path class="cls-3" d="M19.749,25.114c0-.031-.067-.012-.116,0s-.078.034-.075.064.064.016.113,0,.081-.038.078-.068Z"/><path class="cls-3" d="M19.59,25.218h-.021l-.033-.039c0-.041.031-.074.092-.088a.462.462,0,0,1,.092-.016h.021l.03.038c0,.041-.034.076-.1.09a.458.458,0,0,1-.086.015Z"/><path class="cls-5" d="M21.526,15.111a.214.214,0,0,0,.275-.184,8.214,8.214,0,0,0-.038-1,8.281,8.281,0,0,0-.421.912.212.212,0,0,0,.184.275Z"/><path class="cls-5" d="M22.137,15.3a.215.215,0,0,0,.306-.128,8.249,8.249,0,0,0,.16-.991,8.427,8.427,0,0,0-.592.812.213.213,0,0,0,.126.307Z"/><path class="cls-5" d="M22.7,15.6a.217.217,0,0,0,.327-.066,8.5,8.5,0,0,0,.35-.941,8.467,8.467,0,0,0-.74.682.213.213,0,0,0,.063.325Z"/><path class="cls-5" d="M23.194,16a.214.214,0,0,0,.332,0,8.353,8.353,0,0,0,.529-.855,8.506,8.506,0,0,0-.861.526.21.21,0,0,0,0,.33Z"/><path class="cls-5" d="M23.6,16.488a.216.216,0,0,0,.327.063,8.36,8.36,0,0,0,.686-.736,8.483,8.483,0,0,0-.946.349.211.211,0,0,0-.067.324Z"/><path class="cls-5" d="M23.9,17.047a.217.217,0,0,0,.309.126,8.527,8.527,0,0,0,.817-.589,8.28,8.28,0,0,0-1,.159.212.212,0,0,0-.129.3Z"/><path class="cls-5" d="M24.085,17.655a.214.214,0,0,0,.277.182,8.509,8.509,0,0,0,.918-.419,8.755,8.755,0,0,0-1.009-.038.213.213,0,0,0-.186.275Z"/><path class="cls-5" d="M24.147,18.286a.214.214,0,0,0,.236.233,8.477,8.477,0,0,0,.982-.233,8.477,8.477,0,0,0-.982-.233.214.214,0,0,0-.236.233Z"/><path class="cls-5" d="M24.085,18.918a.213.213,0,0,0,.186.274,8.532,8.532,0,0,0,1.009-.038,8.509,8.509,0,0,0-.918-.419.214.214,0,0,0-.277.183Z"/><path class="cls-5" d="M23.9,19.525a.213.213,0,0,0,.129.3,8.45,8.45,0,0,0,1,.158,8.546,8.546,0,0,0-.817-.588.215.215,0,0,0-.309.125Z"/><path class="cls-5" d="M23.6,20.085a.213.213,0,0,0,.067.324,8.483,8.483,0,0,0,.946.349,8.493,8.493,0,0,0-.686-.737.216.216,0,0,0-.327.064Z"/><path class="cls-5" d="M23.194,20.575a.213.213,0,0,0,0,.331,8.467,8.467,0,0,0,.861.525,8.249,8.249,0,0,0-.529-.854.214.214,0,0,0-.332,0Z"/><path class="cls-5" d="M22.7,20.978a.213.213,0,0,0-.063.324,8.467,8.467,0,0,0,.74.682,8.426,8.426,0,0,0-.35-.94.215.215,0,0,0-.327-.066Z"/><path class="cls-5" d="M22.137,21.277a.213.213,0,0,0-.126.306,8.427,8.427,0,0,0,.592.812,8.207,8.207,0,0,0-.16-.99.214.214,0,0,0-.306-.128Z"/><path class="cls-5" d="M19.081,20.978a.217.217,0,0,0-.327.066,8.426,8.426,0,0,0-.35.94,8.324,8.324,0,0,0,.74-.682.21.21,0,0,0-.063-.324Z"/><path class="cls-5" d="M18.588,20.575a.216.216,0,0,0-.333,0,8.249,8.249,0,0,0-.529.854,8.471,8.471,0,0,0,.86-.525.213.213,0,0,0,0-.331Z"/><path class="cls-5" d="M18.183,20.085a.218.218,0,0,0-.328-.064,8.655,8.655,0,0,0-.686.737,8.56,8.56,0,0,0,.947-.349.213.213,0,0,0,.067-.324Z"/><path class="cls-5" d="M17.881,19.525a.214.214,0,0,0-.307-.125,8.453,8.453,0,0,0-.818.588,8.482,8.482,0,0,0,1-.158.212.212,0,0,0,.128-.3Z"/><path class="cls-5" d="M17.7,18.918a.216.216,0,0,0-.278-.183,8.479,8.479,0,0,0-.917.419,8.523,8.523,0,0,0,1.009.038.213.213,0,0,0,.186-.274Z"/><path class="cls-5" d="M17.633,18.286a.215.215,0,0,0-.236-.233,8.528,8.528,0,0,0-.982.233,8.528,8.528,0,0,0,.982.233.213.213,0,0,0,.236-.233Z"/><path class="cls-5" d="M17.7,17.655a.215.215,0,0,0-.186-.275,8.745,8.745,0,0,0-1.009.038,8.479,8.479,0,0,0,.917.419.214.214,0,0,0,.278-.182Z"/><path class="cls-5" d="M17.881,17.047a.212.212,0,0,0-.128-.3,8.311,8.311,0,0,0-1-.159,8.435,8.435,0,0,0,.818.589.214.214,0,0,0,.307-.126Z"/><path class="cls-5" d="M18.183,16.488a.214.214,0,0,0-.067-.324,8.56,8.56,0,0,0-.947-.349,8.517,8.517,0,0,0,.686.736.216.216,0,0,0,.328-.063Z"/><path class="cls-5" d="M18.588,16a.213.213,0,0,0,0-.33,8.51,8.51,0,0,0-.86-.526,8.353,8.353,0,0,0,.529.855.215.215,0,0,0,.333,0Z"/><path class="cls-5" d="M20.887,15.44a2.85,2.85,0,1,1-2.868,2.85,2.859,2.859,0,0,1,2.868-2.85Z"/><path class="cls-5" d="M20.891,15.049a.213.213,0,0,0,.233-.235,8.431,8.431,0,0,0-.233-.976,8.371,8.371,0,0,0-.235.976.213.213,0,0,0,.235.235Z"/><path class="cls-5" d="M21.526,21.461a.214.214,0,0,0-.184.276,8.37,8.37,0,0,0,.421.912,8.223,8.223,0,0,0,.038-1,.214.214,0,0,0-.275-.185Z"/><path class="cls-5" d="M20.891,21.523a.215.215,0,0,0-.235.235,8.321,8.321,0,0,0,.235.976,8.38,8.38,0,0,0,.233-.976.213.213,0,0,0-.233-.235Z"/><path class="cls-5" d="M20.255,21.461a.215.215,0,0,0-.276.185,8.432,8.432,0,0,0,.038,1,8.37,8.37,0,0,0,.421-.912.213.213,0,0,0-.183-.276Z"/><path class="cls-5" d="M19.644,21.277a.216.216,0,0,0-.307.128,8.376,8.376,0,0,0-.159.99,8.6,8.6,0,0,0,.592-.812.213.213,0,0,0-.126-.306Z"/><path class="cls-5" d="M19.081,15.6a.212.212,0,0,0,.063-.325,8.324,8.324,0,0,0-.74-.682,8.5,8.5,0,0,0,.35.941.216.216,0,0,0,.327.066Z"/><path class="cls-5" d="M19.644,15.3a.214.214,0,0,0,.126-.307,8.6,8.6,0,0,0-.592-.812,8.42,8.42,0,0,0,.159.991.215.215,0,0,0,.307.128Z"/><path class="cls-5" d="M20.255,15.111a.213.213,0,0,0,.183-.275,8.281,8.281,0,0,0-.421-.912,8.422,8.422,0,0,0-.038,1,.213.213,0,0,0,.276.184Z"/></g></g></svg>