<?xml version="1.0" encoding="UTF-8"?><svg id="a" xmlns="http://www.w3.org/2000/svg" viewBox="0 0 40 40"><g><polygon points="2 14.929 2 17.231 6.541 14.929 2 14.929" fill="#261b64"/><path d="M10.542,8H6c-.445,0-.866,.09-1.266,.224l5.808,2.944v-3.168Z" fill="#261b64"/><path d="M2.832,9.583c-.411,.538-.683,1.178-.778,1.881H6.542l-3.71-1.881Z" fill="#261b64"/><path d="M34,8h-11.498v1.162l-4.543,2.302h4.543v3.465h-4.542l4.542,2.302v1.162h-2.292l-6.25-3.169v3.169h-3.418v-3.168l-6.25,3.168H2v9.606c0,2.209,1.791,4,4,4h28c2.209,0,4-1.791,4-4V12c0-2.209-1.791-4-4-4Zm-3.545,16.815l-.154,.06-.155-.06c-3.907-1.526-3.758-5.07-3.599-8.821l.009-.213,.175-.12c.322-.221,1.873-.649,3.57-.649s3.248,.429,3.57,.649l.175,.121,.009,.212c.159,3.751,.308,7.295-3.599,8.821Z" fill="#261b64"/><polygon points="20.21 8 13.959 8 13.959 11.168 20.21 8" fill="#261b64"/></g><g><polygon points="13.275 12.157 16.593 12.157 22.502 12.157 22.502 11.465 17.96 11.465 22.502 9.162 22.502 8 15.668 11.465 14.14 11.465 20.974 8 20.21 8 13.959 11.168 13.959 8 13.275 8 13.275 11.515 13.275 12.157" fill="#e3e7ea"/><path d="M11.226,12.157v-4.157h-.684v3.168l-5.808-2.944h-.001l-.01,.004c-.189,.064-.37,.142-.545,.231-.029,.015-.056,.031-.085,.046-.166,.089-.326,.188-.477,.301l-.012,.008,5.23,2.652h-1.528l-4.25-2.155c-.08,.087-.154,.179-.225,.273h.002l3.71,1.882H2v.693H11.226Z" fill="#e3e7ea"/><polygon points="10.362 14.929 3.527 18.394 4.291 18.394 10.542 15.225 10.542 18.394 11.226 18.394 11.226 14.878 11.226 14.236 7.908 14.236 2 14.236 2 14.929 6.541 14.929 2 17.231 2 18.394 8.833 14.929 10.362 14.929" fill="#e3e7ea"/><polygon points="13.275 14.236 13.275 14.878 13.275 18.394 13.959 18.394 13.959 15.225 20.21 18.394 22.502 18.394 15.668 14.929 17.196 14.929 22.502 17.619 22.502 17.231 17.961 14.929 22.502 14.929 22.502 14.236 16.593 14.236 13.275 14.236" fill="#e3e7ea"/></g><g><polygon points="11.226 14.236 11.226 14.878 11.226 18.394 13.275 18.394 13.275 14.878 13.275 14.236 16.593 14.236 22.502 14.236 22.502 12.157 16.593 12.157 13.275 12.157 13.275 11.515 13.275 8 11.226 8 11.226 11.515 11.226 12.157 7.908 12.157 2 12.157 2 14.236 7.908 14.236 11.226 14.236" fill="#cc001c"/><path d="M7.305,11.465h1.528l-5.23-2.652c-.01,.008-.018,.018-.029,.026-.183,.14-.354,.292-.509,.461l-.01,.009,4.25,2.155Z" fill="#cc001c"/><polygon points="15.668 11.465 22.502 8 20.974 8 14.14 11.465 15.668 11.465" fill="#cc001c"/><polygon points="10.362 14.929 8.833 14.929 2 18.394 3.527 18.394 10.362 14.929" fill="#cc001c"/><polygon points="15.668 14.929 22.502 18.394 22.502 17.619 17.196 14.929 15.668 14.929" fill="#cc001c"/></g><path d="M26.917,18.436c.005,.325,.018,.642,.041,.952,.148-.258,.343-.546,.418-.546,.034,0,.234,.33,.492,.785,.145-.271,.31-.515,.392-.527,.104-.015,1.067,1.837,1.319,2.52,.018,.006,.04,.017,.057,.021,.059,.018,.129,.026,.194,.04v-.621h-.287c-.093,0-.168-.076-.168-.168s.076-.168,.168-.168h.287v-.28h-.287c-.093,0-.168-.076-.168-.168s.076-.168,.168-.168h.287v-.31h-.287c-.093,0-.168-.076-.168-.168,0-.093,.076-.168,.168-.168h.287v-.283h-.287c-.093,0-.168-.076-.168-.168s.076-.168,.168-.168h.287v-.177h.111v.177h.189c.093,0,.168,.075,.168,.168,0,.093-.076,.168-.168,.168h-.189v.283h.189c.093,0,.168,.075,.168,.168,0,.092-.076,.168-.168,.168h-.189v.31h.189c.093,0,.168,.075,.168,.168s-.076,.168-.168,.168h-.189v.28h.189c.093,0,.168,.075,.168,.168,0,.093-.076,.168-.168,.168h-.189v.644c.372,.064,.767,.076,1.021,.076v-.889h-.294c-.093,0-.168-.076-.168-.168s.076-.168,.168-.168h.294v-.279h-.294c-.093,0-.168-.075-.168-.168s.076-.168,.168-.168h.294v-.31h-.294c-.093,0-.168-.076-.168-.168s.076-.168,.168-.168h.294v-.283h-.294c-.093,0-.168-.076-.168-.168,0-.093,.076-.168,.168-.168h.294v-.098h.111v.098h.183c.093,0,.168,.075,.168,.168,0,.092-.076,.168-.168,.168h-.183v.283h.183c.093,0,.168,.076,.168,.168s-.076,.168-.168,.168h-.183v.31h.183c.093,0,.168,.075,.168,.168,0,.093-.076,.168-.168,.168h-.183v.279h.183c.093,0,.168,.076,.168,.168s-.076,.168-.168,.168h-.183v.888h.088c.212,0,.618-.619,.796-.619h.048v-.269h-.182c-.093,0-.168-.076-.168-.168s.076-.168,.168-.168h.182v-.279h-.182c-.093,0-.168-.075-.168-.168s.076-.168,.168-.168h.182v-.593h-.182c-.093,0-.168-.075-.168-.168s.076-.168,.168-.168h.182v-.345h.111v.345h.295c.093,0,.168,.076,.168,.168s-.076,.168-.168,.168h-.295v.593h.295c.093,0,.168,.075,.168,.168,0,.093-.076,.168-.168,.168h-.295v.279h.295c.093,0,.168,.076,.168,.168s-.076,.168-.168,.168h-.295v.269h.903c.098,0,.114,.398,.02,.707h.044c.085-.193,.165-.388,.229-.594,.006-.02,.014-.04,.02-.06,.079-.266,.141-.542,.19-.828l.01-.065c.097-.592,.14-1.222,.149-1.884h-6.764Z" fill="#8fc5ff"/><path d="M33.039,21.867c-.06,.195-.163,.355-.32,.355h-2.866c-.101,0-.294-.12-.503-.274-.068,.01-.147,.02-.231,.029,.078,.16,.134,.281,.15,.332,.074,.238-.692,.382-1.257,.43,.025,.035,.052,.068,.078,.102,.104,.134,.216,.262,.337,.386,.048,.049,.094,.098,.145,.145,.033,.03,.07,.059,.104,.088,.036,.032,.073,.063,.111,.094,.073,.059,.148,.117,.226,.173,.067,.049,.136,.096,.208,.143,.04,.026,.078,.053,.119,.078,.022,.013,.047,.025,.069,.038,.042,.025,.086,.048,.13,.072,.061,.034,.12,.069,.185,.102,.181,.092,.371,.179,.575,.259,.205-.08,.395-.167,.577-.26,.063-.032,.12-.066,.18-.099l.029-.016h-1.329c-.083,0-.15-.067-.15-.15s.067-.15,.15-.15h1.807c-.148,.105-.306,.204-.474,.299,.034-.019,.069-.037,.102-.056,.022-.013,.047-.025,.068-.038,.042-.026,.081-.053,.122-.08,.069-.045,.136-.091,.201-.138,.081-.058,.159-.118,.234-.179,.036-.03,.071-.06,.106-.09,.035-.03,.072-.059,.106-.09,.052-.048,.1-.099,.149-.149,.03-.031,.059-.061,.088-.092-.094,.101-.193,.2-.3,.295h-1.82c-.083,0-.15-.067-.15-.15,0-.082,.067-.149,.149-.149h2.125c.084-.091,.163-.184,.237-.28l.03-.039h-2.268c-.083,0-.15-.067-.15-.15s.067-.15,.15-.15h2.477c.076-.118,.146-.24,.211-.366,.035-.068,.07-.136,.101-.206,.009-.02,.02-.038,.029-.058l.004-.009h-.051Z" fill="#366cc9"/><g><path d="M32.269,23.125h-2.125c-.082,0-.149,.067-.149,.149,0,.083,.067,.15,.15,.15h1.82c.107-.095,.206-.194,.3-.295l.005-.005h0Z" fill="#00d860"/><path d="M32.54,22.801c.072-.095,.141-.193,.203-.292l.002-.003h-2.478c-.083,0-.15,.066-.15,.15s.067,.15,.15,.15h2.269l.004-.005Z" fill="#00d860"/><path d="M31.562,23.744h-1.807c-.083,0-.15,.067-.15,.15s.067,.15,.15,.15h1.33l.003-.002c.168-.094,.326-.193,.474-.299Z" fill="#00d860"/></g><g><path d="M29.58,21.619c-.252-.683-1.216-2.535-1.319-2.52-.083,.011-.248,.255-.392,.527,.274,.485,.612,1.11,.889,1.64,.262,.126,.571,.27,.822,.353Z" fill="#5d3100"/><path d="M28.95,21.638c.065,.128,.121,.24,.169,.339,.083-.009,.162-.019,.231-.029-.133-.097-.272-.208-.4-.31Z" fill="#5d3100"/></g><path d="M28.012,22.74c.566-.048,1.332-.193,1.257-.43-.016-.051-.072-.172-.15-.332-.048-.099-.104-.211-.169-.339-.202-.162-.374-.303-.441-.336-.177-.088-.346-.278-.196-.236,.07,.02,.244,.104,.445,.2-.277-.531-.615-1.156-.889-1.64-.257-.455-.457-.785-.492-.785-.075,0-.27,.288-.418,.546h0v.008c.018,.228,.048,.446,.078,.665,.011,.079,.015,.162,.028,.239l.005,.037c.035,.211,.087,.41,.138,.61,.021,.084,.034,.174,.058,.257h0l.003,.008c.061,.205,.142,.398,.224,.59,.009,.021,.016,.044,.025,.066,.01,.022,.016,.047,.026,.069,.004,.009,.007,.019,.011,.028,.008,.017,.013,.035,.021,.052,.013,.028,.033,.052,.047,.079,.104,.208,.22,.409,.355,.599l.011,.018c.007,.009,.01,.02,.017,.029h.008Z" fill="#cf6200"/><g><path d="M27.077,20.384c.006,.032,.01,.065,.016,.097,.012,.063,.025,.125,.038,.187,.038,.183,.083,.361,.134,.535-.024-.083-.037-.173-.058-.257-.047-.185-.096-.368-.129-.562Z" fill="#ff0"/><path d="M30.299,15.437c-1.646,0-3.097,.415-3.329,.575-.011,.258-.021,.513-.03,.765-.045,1.27-.048,2.458,.124,3.521-.012-.077-.017-.16-.028-.239-.03-.219-.06-.437-.077-.665v-.007h0c-.023-.31-.036-.627-.041-.953h6.764c-.009,.662-.052,1.292-.149,1.884,.019-.114,.04-.227,.055-.344,.05-.398,.078-.813,.091-1.242,.006-.214,.009-.432,.009-.653,0-.663-.028-1.356-.058-2.069-.233-.16-1.683-.575-3.329-.575Zm1.28,2.15c.005,.091-.064,.027-.188-.06-.133-.03-.282-.036-.443,.006-.132,.035-.272,.121-.446,.182,.012,.011,.032,.014,.032,.032v.399c0,.035-.028,.063-.063,.063s-.064-.028-.064-.063v-.399c0-.008,.012-.007,.015-.015-.104,.03-.225,.039-.359,.03v.384c0,.035-.028,.063-.063,.063s-.064-.028-.064-.063v-.395c-.026-.005-.046,0-.073-.007-.531-.131-.545-.928-.559-1.263-.004-.121-.535-.296-.522-.39,.012-.085,.148-.079,.284-.087,.028-.035,.091-.041,.17-.037,.022-.009,.049-.012,.065-.027,.141-.124,.524-.423,.835-.036,.174,.217,.13,.365,.324,.542,.194,.177,1.228,.625,1.564,.519-.018,.212-.318,.318-.318,.318,0,0,.284,.211,.32,.459,.022,.156-.154-.037-.45-.158Z" fill="#ff0"/><path d="M27.491,21.801c-.074-.174-.148-.347-.205-.532,.039,.128,.078,.258,.126,.381,.029,.074,.065,.144,.097,.217h.007c-.009-.021-.016-.044-.025-.066Z" fill="#ff0"/><polygon points="27.265 21.203 27.268 21.214 27.268 21.211 27.265 21.203" fill="#ff0"/><path d="M27.521,21.892c.011,.024,.021,.048,.032,.072-.004-.009-.007-.019-.011-.028-.007-.015-.015-.029-.021-.043Z" fill="#ff0"/><path d="M28.622,23.42c.052,.047,.111,.09,.166,.135-.038-.031-.075-.062-.111-.094-.017-.015-.039-.026-.055-.041Z" fill="#ff0"/><path d="M33.041,21.975c.015-.033,.03-.066,.045-.1-.009,.02-.02,.039-.029,.058-.006,.013-.01,.028-.016,.042Z" fill="#ff0"/><path d="M32.745,22.506h0l-.002,.003c-.04,.063-.08,.126-.123,.188l-.012,.019c.149-.207,.281-.425,.393-.653-.013,.027-.033,.05-.046,.077-.064,.126-.135,.248-.211,.367Z" fill="#ff0"/><path d="M31.582,23.73c-.065,.047-.132,.093-.201,.138,.069-.045,.136-.091,.201-.138Z" fill="#ff0"/><path d="M29.221,23.87c-.072-.046-.141-.094-.208-.143,.068,.048,.136,.096,.208,.143Z" fill="#ff0"/><path d="M28.074,22.824c.108,.14,.226,.274,.353,.404-.122-.124-.234-.252-.337-.386l-.016-.018Z" fill="#ff0"/><path d="M27.712,22.277c.083,.15,.175,.295,.275,.435l-.011-.018c-.095-.135-.185-.273-.264-.417Z" fill="#ff0"/><path d="M31.816,23.551c.053-.043,.11-.085,.16-.13-.016,.014-.038,.026-.054,.04-.035,.03-.07,.06-.106,.09Z" fill="#ff0"/><path d="M29.724,24.16c-.064-.032-.123-.068-.185-.102,.062,.034,.12,.069,.185,.102Z" fill="#ff0"/><path d="M32.269,23.125h0l-.005,.005c-.029,.031-.058,.062-.088,.092,.125-.126,.24-.258,.346-.395l-.016,.018c-.075,.096-.153,.189-.237,.28Z" fill="#ff0"/><path d="M31.056,24.06c-.06,.033-.117,.067-.18,.099,.063-.032,.12-.066,.18-.099Z" fill="#ff0"/><path d="M33.09,21.867c.084-.192,.159-.389,.222-.594-.063,.206-.144,.401-.229,.594h.007Z" fill="#ff0"/><path d="M33.522,20.385c-.049,.286-.112,.562-.19,.828,.079-.266,.141-.542,.19-.828Z" fill="#ff0"/><path d="M27.596,22.06c.014,.029,.025,.061,.04,.09,.021,.04,.047,.077,.069,.117-.024-.044-.044-.091-.067-.136-.013-.024-.03-.046-.043-.071Z" fill="#ff0"/><rect x="29.831" y="18.666" width=".111" height=".177" fill="#ff0"/><rect x="32.006" y="19.346" width=".111" height=".593" fill="#ff0"/><rect x="29.831" y="19.797" width=".111" height=".31" fill="#ff0"/><rect x="32.006" y="20.275" width=".111" height=".279" fill="#ff0"/><rect x="30.962" y="18.576" width=".111" height=".098" fill="#ff0"/><path d="M31.074,20.891h-.111v.889h.111v-.889Z" fill="#ff0"/><rect x="32.006" y="20.891" width=".111" height=".269" fill="#ff0"/><rect x="32.006" y="18.666" width=".111" height=".345" fill="#ff0"/><rect x="30.962" y="20.275" width=".111" height=".279" fill="#ff0"/><rect x="30.962" y="19.01" width=".111" height=".283" fill="#ff0"/><rect x="30.962" y="19.629" width=".111" height=".31" fill="#ff0"/><rect x="29.831" y="19.178" width=".111" height=".283" fill="#ff0"/><rect x="29.831" y="20.444" width=".111" height=".28" fill="#ff0"/><path d="M29.942,21.06h-.111v.621c.037,.008,.073,.016,.111,.023v-.644Z" fill="#ff0"/></g><g><path d="M30.715,17.34c-.217,.039-.474,.241-.896,.098-.424-.142-.381-.792-.37-1.066,.003-.098-.417-.278-.399-.352,.002-.009,.014-.009,.019-.015-.137,.008-.273,.002-.284,.087-.013,.094,.518,.268,.522,.39,.014,.335,.028,1.132,.559,1.263,.027,.007,.047,.002,.073,.007v-.004c0-.035,.029-.063,.064-.063s.063,.028,.063,.063v.015c.134,.009,.254,0,.359-.03,.009-.023,.022-.048,.049-.048,.017,0,.019,.02,.031,.031,.174-.061,.314-.147,.446-.182,.161-.042,.31-.036,.443-.006-.149-.104-.38-.24-.676-.188Z" fill="#ac5f1a"/><path d="M31.71,17.286s.301-.106,.318-.318c-.336,.106-1.37-.341-1.564-.519-.194-.177-.15-.326-.324-.542-.312-.387-.695-.088-.835,.036-.017,.015-.043,.018-.065,.027,.087,.004,.184,.008,.244-.036,.122-.09,.456-.308,.684,.028,.126,.188,.081,.306,.228,.463,.145,.157,.956,.592,1.237,.529-.028,.171-.281,.237-.281,.237,0,0,.217,.192,.229,.396h0c.297,.122,.473,.315,.45,.159-.036-.248-.32-.459-.32-.459Z" fill="#ac5f1a"/></g><g><path d="M34.045,15.782l-.175-.121c-.322-.221-1.872-.649-3.57-.649s-3.248,.429-3.57,.649l-.175,.12-.009,.213c-.159,3.751-.307,7.295,3.599,8.821l.155,.06,.154-.06c3.908-1.526,3.758-5.07,3.599-8.821l-.009-.212Zm-.358,2.299c0,.221-.002,.439-.009,.653-.013,.429-.041,.844-.091,1.242-.015,.117-.036,.229-.055,.344l-.01,.065c-.049,.286-.111,.562-.19,.828-.006,.02-.014,.04-.02,.06-.063,.205-.138,.402-.222,.594h0l-.004,.009c-.015,.033-.029,.067-.045,.1-.013,.029-.025,.059-.039,.087-.112,.229-.244,.446-.393,.653-.027,.038-.058,.075-.087,.112-.106,.137-.221,.268-.346,.395-.049,.05-.097,.101-.149,.149-.018,.016-.033,.034-.051,.05-.05,.045-.107,.086-.16,.13-.075,.061-.153,.121-.234,.179-.065,.047-.132,.093-.201,.138-.041,.027-.08,.054-.122,.08-.022,.013-.046,.025-.068,.038-.033,.019-.068,.037-.102,.056l-.003,.002h0l-.029,.016c-.06,.033-.117,.067-.18,.099-.182,.092-.372,.179-.577,.26-.205-.08-.394-.167-.575-.259-.064-.032-.123-.068-.185-.102-.043-.024-.088-.047-.13-.072-.022-.013-.047-.025-.069-.038-.041-.025-.079-.052-.119-.078-.072-.046-.14-.094-.208-.143-.078-.056-.153-.114-.226-.173-.055-.045-.114-.088-.166-.135-.017-.015-.032-.032-.049-.048-.051-.047-.097-.096-.145-.145-.128-.129-.246-.263-.353-.404-.022-.028-.048-.055-.069-.083h-.001c-.007-.009-.011-.02-.017-.029-.101-.14-.192-.285-.275-.435l-.006-.01c-.022-.04-.049-.077-.069-.117-.015-.029-.026-.06-.04-.09l-.022-.045c-.008-.017-.013-.035-.021-.052-.011-.024-.021-.048-.032-.072l-.013-.026h.001c-.032-.073-.068-.143-.097-.217-.048-.123-.086-.252-.126-.381-.006-.018-.013-.036-.018-.054l-.004-.011h0c-.051-.174-.096-.353-.134-.536-.013-.062-.026-.124-.038-.187-.006-.032-.01-.065-.016-.097l-.008-.048-.005-.037c-.172-1.063-.169-2.251-.124-3.521,.009-.252,.019-.507,.03-.765,.233-.159,1.683-.575,3.329-.575s3.097,.415,3.329,.575c.03,.713,.058,1.406,.058,2.069Z" fill="#eee"/><path d="M30.131,20.444c.093,0,.168-.076,.168-.168s-.076-.168-.168-.168h-.588c-.093,0-.168,.075-.168,.168s.076,.168,.168,.168h.588Z" fill="#eee"/><path d="M30.131,19.797c.093,0,.168-.076,.168-.168,0-.093-.076-.168-.168-.168h-.588c-.093,0-.168,.075-.168,.168,0,.092,.076,.168,.168,.168h.588Z" fill="#eee"/><path d="M30.131,21.06c.093,0,.168-.076,.168-.168,0-.094-.076-.169-.168-.168h-.588c-.093,0-.168,.076-.168,.168s.076,.168,.168,.168h.588Z" fill="#eee"/><path d="M32.412,19.346c.093,0,.168-.075,.168-.168s-.076-.168-.168-.168h-.588c-.093,0-.168,.076-.168,.168s.076,.168,.168,.168h.588Z" fill="#eee"/><path d="M32.412,20.891c.093,0,.168-.076,.168-.168s-.076-.168-.168-.168h-.588c-.093,0-.168,.076-.168,.168s.076,.168,.168,.168h.588Z" fill="#eee"/><path d="M30.131,19.178c.093,0,.168-.076,.168-.168,0-.093-.076-.168-.168-.168h-.588c-.093,0-.168,.075-.168,.168s.076,.168,.168,.168h.588Z" fill="#eee"/><path d="M32.412,20.275c.093,0,.168-.075,.168-.168,0-.094-.076-.168-.168-.168h-.588c-.093,0-.168,.075-.168,.168s.076,.168,.168,.168h.588Z" fill="#eee"/><path d="M31.256,19.01c.093,0,.168-.076,.168-.168,0-.094-.076-.169-.168-.168h-.588c-.093,0-.168,.075-.168,.168,0,.092,.076,.168,.168,.168h.588Z" fill="#eee"/><path d="M31.256,19.629c.093,0,.168-.076,.168-.168s-.076-.168-.168-.168h-.588c-.093,0-.168,.076-.168,.168s.076,.168,.168,.168h.588Z" fill="#eee"/><path d="M31.256,20.275c.093,0,.168-.075,.168-.168,0-.094-.076-.168-.168-.168h-.588c-.093,0-.168,.075-.168,.168s.076,.168,.168,.168h.588Z" fill="#eee"/><path d="M31.256,20.891c.093,0,.168-.076,.168-.168s-.076-.168-.168-.168h-.588c-.093,0-.168,.076-.168,.168s.076,.168,.168,.168h.588Z" fill="#eee"/><path d="M31.35,17.19s.253-.066,.281-.237c-.281,.063-1.092-.372-1.237-.529-.147-.158-.102-.276-.228-.463-.228-.336-.561-.118-.684-.028-.06,.044-.157,.04-.244,.036-.079-.003-.142,.002-.17,.037-.005,.006-.017,.006-.019,.015-.018,.074,.402,.253,.399,.352-.011,.273-.053,.924,.37,1.066,.422,.144,.678-.059,.896-.098,.296-.053,.527,.084,.676,.188,.124,.086,.193,.15,.188,.06h0c-.013-.205-.229-.397-.229-.397Zm-1.494-.956c-.066,0-.12-.053-.12-.12,0-.066,.053-.12,.12-.12,.065,0,.12,.053,.12,.12s-.054,.12-.12,.12Z" fill="#eee"/></g><g><path d="M28.313,21.066c-.149-.042,.02,.148,.196,.236,.067,.033,.239,.175,.441,.336,.128,.102,.267,.213,.4,.31,.21,.154,.402,.274,.503,.274h2.866c.157,0,.26-.16,.32-.355,.094-.309,.078-.707-.02-.707h-1.062c-.177,0-.583,.619-.796,.619h-.2c-.254,0-.649-.012-1.021-.076-.038-.007-.074-.015-.111-.023-.065-.014-.134-.022-.194-.04-.017-.005-.039-.016-.057-.021-.251-.083-.56-.227-.822-.353-.2-.096-.375-.181-.445-.2Z"/><path d="M30.002,17.685c-.035,0-.064,.028-.064,.063v.399c0,.035,.029,.063,.064,.063s.063-.028,.063-.063v-.399c0-.035-.028-.063-.063-.063Z"/><path d="M30.424,17.733c-.003,.007-.015,.007-.015,.015v.399c0,.035,.029,.063,.064,.063s.063-.028,.063-.063v-.399c0-.018-.02-.021-.032-.032-.011-.011-.014-.031-.031-.031-.027,0-.039,.025-.049,.048Z"/><path d="M29.856,15.994c-.067,0-.12,.053-.12,.12,0,.067,.054,.12,.12,.12s.12-.054,.12-.12-.054-.12-.12-.12Z"/></g></svg>