<?xml version="1.0" encoding="UTF-8"?><svg id="Layer_1" xmlns="http://www.w3.org/2000/svg" viewBox="0 0 40 40"><g><path d="m34,8h-12.683v1.041l-4.398,2.179h4.398v3.279h-4.398l4.398,2.179v1.1h-2.219l-6.053-2.999v2.999h-3.308v-2.999l-6.053,2.999h-1.685v10.222c0,2.209,1.791,4,4,4h28c2.209,0,4-1.791,4-4V12c0-2.209-1.791-4-4-4Zm.578,12.73c0,.594-.131,1.208-.385,1.808h.017c-.033.078-.076.155-.114.233-.027.055-.051.109-.08.164-.109.203-.232.404-.376.6-.03.042-.067.081-.099.122-.125.161-.264.317-.415.471-.052.053-.104.106-.159.158-.194.182-.403.359-.637.526-.034.024-.073.046-.108.07-.211.145-.441.282-.685.413-.078.042-.157.083-.239.124-.294.146-.603.285-.944.407-.342-.123-.652-.263-.948-.409-.078-.039-.154-.078-.23-.119-.252-.135-.489-.276-.706-.426-.028-.02-.061-.037-.089-.057-.238-.169-.45-.349-.646-.534-.051-.048-.098-.097-.147-.146-.157-.158-.3-.32-.43-.487-.029-.037-.061-.073-.089-.11-.145-.197-.27-.399-.379-.603-.029-.055-.054-.109-.08-.164-.037-.077-.08-.154-.113-.231h.016c-.254-.6-.385-1.215-.385-1.808v-5.435c1.035.702,2.69.731,4.225-.143,1.534.874,3.188.845,4.224.143v5.435Z" fill="#272c6c"/><path d="m9.738,8h-3.742c-.553,0-1.079.112-1.558.315l5.3,2.625v-2.941Z" fill="#272c6c"/><path d="m2.751,9.678s-.003.006-.005.009c-.321.451-.556.967-.667,1.531,0,0,0,.001,0,.002h3.785l-3.112-1.542Z" fill="#272c6c"/><polygon points="13.045 8 13.045 10.941 18.981 8 13.045 8" fill="#272c6c"/><polygon points="2 14.499 2 16.413 5.863 14.499 2 14.499" fill="#272c6c"/></g><g><polygon points="21.2 8 19.721 8 13.22 11.22 14.7 11.22 21.2 8" fill="#d00032"/><path d="m8.083,11.22l-4.622-2.289c-.005.004-.009.01-.015.014-.169.141-.324.294-.467.46-.004.004-.009.008-.013.012l3.637,1.802h1.48Z" fill="#d00032"/><polygon points="2 17.513 2 17.778 2.945 17.778 9.562 14.499 8.083 14.499 2 17.513" fill="#d00032"/><polygon points="14.7 14.499 21.317 17.778 21.317 17.044 16.179 14.499 14.7 14.499" fill="#d00032"/><path d="m12.384,11.876v-3.876h-1.985v3.876H2.012c-.001.041-.012.079-.012.12v1.848h8.399v3.934h1.985v-3.934h8.933v-1.968h-8.933Z" fill="#d00032"/></g><path d="m26.498,22.538c.033.078.076.154.113.231.027.055.051.11.08.164.109.205.234.406.379.603.027.037.06.073.089.11.129.167.273.329.43.487.048.049.096.098.147.146.197.185.408.365.646.534.028.02.06.038.089.057.217.15.454.291.706.426.075.04.151.08.23.119.296.146.606.286.948.409.341-.123.649-.261.944-.407.082-.04.161-.082.239-.124.244-.131.474-.268.685-.413.035-.024.074-.046.108-.07.234-.167.443-.344.637-.526.055-.052.107-.105.159-.158.151-.153.29-.31.415-.471.032-.041.068-.081.099-.122.144-.196.267-.396.376-.6.029-.054.054-.109.08-.164.038-.078.081-.154.114-.233h-7.712Z" fill="#2071bb"/><g><path d="m30.175,16.577c.029-.056.067-.123.096-.18-2.09.494-2.32,3.232-.413,3.545.024-.29-.21-.466-.221-.75.092.019.198.055.27.104-.029-.323-.317-.389-.308-.789.02-.809.434-1.309,1.18-1.369.354-.029.837.111.988.409.058.113.172.271.259.356.082.081.084.053.096-.063.025-.24.459-.348.968-.113.134.062.138.021.038-.071-.493-.452-1.073-.247-1.533-.642-.398-.34-.979-.476-1.421-.438Zm-1.016,2.663c-.054,0-.099-.043-.099-.097s.044-.097.099-.097c.054,0,.098.043.098.097s-.044.097-.098.097Z" fill="#e86a1e"/><path d="m31.298,19.172c-.153.09-.35.432-.661.466.005-.114,0-.3-.02-.371-.177.271-.221.618-.672.923-.506.341-1.403.45-1.86-.039-.239-.256-.393-.598-.259-1.083.09-.323.368-.34.522-.475.044-.038.005-.044-.062-.052-.283-.033-.365-.422-.125-1.007.054-.129-.018-.123-.172.147-.218.385-.217.749-.335,1.074-.288.779-.137,1.869.592,2.26-.036.052-.079.12-.125.174,1.651.389,3.3-.295,3.176-2.015Zm-.306.578c.053,0,.097.043.097.097s-.044.098-.097.098c-.055,0-.1-.044-.1-.098s.044-.097.1-.097Z" fill="#e86a1e"/><path d="m30.838,17.936c.096.189.374.323.46.58-.076,0-.221.038-.297.085.206.095.317.109.509.262l.048.023c.613.646.881,1.286.653,1.863-.116.289-.355.614-.745.736-.527.166-.67-.261-1.145-.185-.034.005-.008.033.038.052.297.128.193.455-.368.702-.044.02-.048.023.048.034.339.038.767-.072.991-.189.278-.148.619-.247.916-.386.58-.271.895-.75.986-1.415.111.08.145.151.197.242.241-1.074-.518-2.452-2.291-2.405Zm.92.416c-.054,0-.099-.043-.099-.097s.044-.097.099-.097c.054,0,.098.043.098.097s-.044.097-.098.097Z" fill="#e86a1e"/></g><g><path d="m9.738,10.941l-5.3-2.625c-.194.082-.375.186-.549.3-.139.092-.273.191-.402.296-.008.007-.018.012-.027.02l4.622,2.289h-1.48l-3.637-1.802c-.073.085-.149.168-.215.26l3.112,1.542h-3.785c-.042.212-.059.433-.066.656h8.387v-3.876h-.662v2.941Z" fill="#e3e7ea"/><polygon points="12.384 17.778 13.045 17.778 13.045 14.779 19.098 17.778 21.317 17.778 14.7 14.499 16.179 14.499 21.317 17.044 21.317 16.678 16.919 14.499 21.317 14.499 21.317 13.844 12.384 13.844 12.384 17.778" fill="#e3e7ea"/><polygon points="14.7 11.22 13.22 11.22 19.721 8 18.981 8 13.045 10.941 13.045 8 12.384 8 12.384 11.876 21.317 11.876 21.317 11.22 16.919 11.22 21.317 9.041 21.317 8 21.2 8 14.7 11.22" fill="#e3e7ea"/><polygon points="2 14.499 5.863 14.499 2 16.413 2 17.513 8.083 14.499 9.562 14.499 2.945 17.778 3.685 17.778 9.738 14.779 9.738 17.778 10.399 17.778 10.399 13.844 2 13.844 2 14.499" fill="#e3e7ea"/><path d="m30.354,15.152c-1.534.874-3.19.845-4.225.143v5.435c0,.594.131,1.208.385,1.808h7.679c.254-.6.385-1.215.385-1.808v-5.435c-1.036.702-2.69.731-4.224-.143Zm-2.232,6.035c.045-.053.088-.121.125-.174-.729-.39-.88-1.481-.592-2.26.118-.325.117-.689.335-1.074.153-.271.225-.276.172-.147-.24.585-.158.974.125,1.007.067.008.107.014.062.052-.154.135-.432.151-.522.475-.134.485.02.827.259,1.083.457.49,1.354.38,1.86.039.45-.305.495-.652.672-.923.02.071.024.257.02.371.311-.033.509-.376.661-.466.125,1.72-1.524,2.405-3.176,2.015Zm5.007-.846c-.052-.091-.085-.162-.197-.242-.091.665-.406,1.144-.986,1.415-.297.139-.638.238-.916.386-.224.117-.652.228-.991.189-.096-.011-.093-.014-.048-.034.562-.247.665-.574.368-.702-.046-.02-.072-.047-.038-.052.475-.076.618.351,1.145.185.39-.123.629-.447.745-.736.228-.577-.04-1.217-.653-1.863l-.048-.023c-.192-.153-.303-.167-.509-.262.076-.047.221-.085.297-.085-.085-.257-.364-.39-.46-.58,1.773-.047,2.531,1.331,2.291,2.405Zm-.038-2.614c-.509-.235-.943-.127-.968.113-.013.116-.014.144-.096.063-.087-.085-.201-.243-.259-.356-.15-.297-.633-.438-.988-.409-.746.06-1.16.56-1.18,1.369-.009.399.279.465.308.789-.072-.049-.178-.085-.27-.104.011.284.245.46.221.75-1.908-.313-1.678-3.051.413-3.545-.029.058-.067.124-.096.18.442-.038,1.023.098,1.421.438.46.395,1.04.19,1.533.642.1.092.096.133-.038.071Z" fill="#e3e7ea"/><path d="m29.16,19.046c-.054,0-.099.043-.099.097s.044.097.099.097c.054,0,.098-.043.098-.097s-.044-.097-.098-.097Z" fill="#e3e7ea"/><path d="m30.992,19.944c.053,0,.097-.044.097-.098s-.044-.097-.097-.097c-.055,0-.1.043-.1.097s.044.098.1.098Z" fill="#e3e7ea"/><path d="m31.758,18.159c-.054,0-.099.043-.099.097s.044.097.099.097c.054,0,.098-.043.098-.097s-.044-.097-.098-.097Z" fill="#e3e7ea"/></g></svg>