<?xml version="1.0" encoding="UTF-8"?><svg id="Layer_1" xmlns="http://www.w3.org/2000/svg" viewBox="0 0 40 40"><rect x="2" y="8" width="36" height="24" rx="4" ry="4" fill="#e3e7ea"/><polygon points="21.298 20 20.001 18.237 20.001 21.763 21.298 20" fill="#e3e7ea"/><path d="m17.674,23c.625.77,1.441,1.298,2.327,1.574v-9.139c-.554.174-1.089.437-1.57.817-2.095,1.657-2.434,4.678-.757,6.748Z" fill="#007831"/><path d="m16.964,25.196c-2.905-1.657-3.901-5.327-2.223-8.197,1.124-1.923,3.163-2.993,5.26-2.995v-6.004H5.995c-2.207,0-3.995,1.789-3.995,3.996v16.009c0,2.207,1.789,3.996,3.995,3.996h14.005v-6.005c-1.033.001-2.079-.252-3.037-.799Z" fill="#007831"/><g><path d="m20.001,24.574c-.886-.276-1.703-.804-2.327-1.574-1.677-2.07-1.338-5.091.757-6.748.481-.38,1.016-.643,1.57-.817,1.859-.582,3.967-.03,5.26,1.564-.533-.911-1.3-1.669-2.223-2.196-.958-.547-2.004-.8-3.036-.799-2.097.002-4.136,1.072-5.26,2.995-1.678,2.87-.682,6.54,2.223,8.197.958.547,2.005.8,3.037.799,2.097-.002,4.136-1.073,5.26-2.995-.223.275-.477.526-.756.747-1.315,1.04-3.009,1.294-4.503.828Z" fill="#d3003b"/><polygon points="22.099 21.089 23.396 22.853 23.396 20.673 25.494 20 23.396 19.326 23.396 17.146 22.099 18.909 20.001 18.237 21.298 20 20.001 21.763 22.099 21.089" fill="#d3003b"/></g></svg>