<?xml version="1.0" encoding="UTF-8"?><svg id="Layer_1" xmlns="http://www.w3.org/2000/svg" viewBox="0 0 40 40"><rect x="2" y="8" width="36" height="24" rx="4" ry="4" fill="#2e2c7b"/><path d="m2,11.379v.616c0-.211.031-.414.062-.616h-.062Z" fill="#e3e7ea"/><polygon points="6.638 14.81 2 17.089 6.64 14.81 6.638 14.81" fill="none"/><polygon points="10.542 14.81 3.422 18.308 10.544 14.81 10.542 14.81" fill="none"/><polygon points="15.965 11.379 14.404 11.379 21.284 8 20.503 8 14.22 11.086 14.22 8 13.522 8 13.522 11.429 13.522 11.813 13.522 12.065 14.568 12.065 16.131 12.065 16.664 12.065 16.911 12.065 22.958 12.065 22.958 11.379 18.308 11.379 22.958 9.095 22.958 8.974 22.958 8.712 22.958 8 22.845 8 15.965 11.379" fill="#e3e7ea"/><path d="m8.817,12.065h2.609v-4.065h-.698v3.086l-5.893-2.895c-.425.13-.822.319-1.173.573l5.322,2.614h-1.561l-4.322-2.123c-.081.086-.152.18-.225.273l3.767,1.85H2.062c-.032.202-.062.405-.062.616v.07h6.817Z" fill="#e3e7ea"/><polygon points="16.131 14.124 14.568 14.124 13.522 14.124 13.522 14.376 13.522 14.638 13.522 14.76 13.522 18.308 14.22 18.308 14.22 15.103 20.745 18.308 20.992 18.308 21.526 18.308 22.958 18.308 22.958 18.245 15.965 14.809 17.527 14.809 22.958 17.478 22.958 17.094 18.308 14.809 22.958 14.809 22.958 14.124 16.911 14.124 16.131 14.124" fill="#e3e7ea"/><polygon points="10.544 14.809 10.542 14.81 10.544 14.81 3.422 18.308 4.203 18.308 10.728 15.103 10.728 18.308 11.426 18.308 11.426 14.76 11.426 14.376 11.426 14.124 10.379 14.124 8.817 14.124 8.284 14.124 8.037 14.124 2 14.124 2 14.809 6.64 14.809 6.638 14.81 6.64 14.81 2 17.089 2 18.24 8.983 14.809 10.544 14.809" fill="#e3e7ea"/><rect x="2" y="14.809" width="4.639" height=".002" fill="#e3e7ea"/><polygon points="10.542 14.81 8.983 14.81 2 18.24 2 18.308 3.422 18.308 10.542 14.81" fill="#d00032"/><polygon points="10.542 14.81 10.544 14.809 8.983 14.809 2 18.24 8.983 14.81 10.542 14.81" fill="#d00032"/><path d="m3.099,9.256l4.322,2.123h1.561l-5.322-2.614c-.203.147-.391.31-.562.491Z" fill="#d00032"/><polygon points="15.965 11.379 22.845 8 21.284 8 14.404 11.379 15.965 11.379" fill="#d00032"/><polygon points="15.965 14.809 22.958 18.245 22.958 17.478 17.527 14.809 15.965 14.809" fill="#d00032"/><polygon points="8.284 14.124 8.817 14.124 10.379 14.124 11.426 14.124 11.426 14.376 11.426 14.76 11.426 18.308 12.474 18.308 13.522 18.308 13.522 14.76 13.522 14.638 13.522 14.376 13.522 14.124 14.568 14.124 16.131 14.124 16.911 14.124 22.958 14.124 22.958 13.095 22.958 12.065 16.911 12.065 16.664 12.065 16.131 12.065 14.568 12.065 13.522 12.065 13.522 11.813 13.522 11.429 13.522 8 11.426 8 11.426 11.429 11.426 11.551 11.426 11.813 11.426 12.065 10.379 12.065 8.817 12.065 8.037 12.065 2 12.065 2 14.124 8.037 14.124 8.284 14.124" fill="#d00032"/><g><polygon points="29.313 14.956 30.451 14.956 30.803 13.892 31.154 14.956 32.294 14.956 31.373 15.613 31.724 16.677 30.803 16.02 29.881 16.677 30.234 15.613 29.313 14.956" fill="#e3e7ea"/><polygon points="29.817 15.118 30.57 15.118 30.803 14.415 31.035 15.118 31.788 15.118 31.179 15.553 31.412 16.257 30.803 15.822 30.194 16.257 30.426 15.553 29.817 15.118" fill="#d00032"/><polygon points="24.759 19.457 25.897 19.457 26.249 18.393 26.601 19.457 27.74 19.457 26.819 20.114 27.17 21.178 26.249 20.521 25.329 21.178 25.68 20.114 24.759 19.457" fill="#e3e7ea"/><polygon points="25.264 19.619 26.016 19.619 26.249 18.916 26.482 19.619 27.235 19.619 26.626 20.054 26.858 20.758 26.249 20.323 25.64 20.758 25.873 20.054 25.264 19.619" fill="#d00032"/><polygon points="33.381 18.341 34.394 18.341 34.707 17.395 35.021 18.341 36.034 18.341 35.213 18.925 35.527 19.873 34.707 19.287 33.887 19.873 34.2 18.925 33.381 18.341" fill="#e3e7ea"/><polygon points="33.83 18.485 34.5 18.485 34.707 17.859 34.914 18.485 35.584 18.485 35.042 18.872 35.249 19.498 34.707 19.111 34.166 19.498 34.372 18.872 33.83 18.485" fill="#d00032"/><polygon points="29.149 26.522 30.413 26.522 30.803 25.339 31.194 26.522 32.459 26.522 31.436 27.253 31.826 28.436 30.803 27.705 29.781 28.436 30.172 27.253 29.149 26.522" fill="#e3e7ea"/><polygon points="29.709 26.702 30.545 26.702 30.803 25.92 31.062 26.702 31.897 26.702 31.221 27.186 31.48 27.969 30.803 27.484 30.127 27.969 30.386 27.186 29.709 26.702" fill="#d00032"/></g><path d="m5.995,32h28.009c.136,0,.264-.027.397-.04H5.599c.132.013.261.04.397.04Z" fill="none"/></svg>