<svg id="Layer_1" data-name="Layer 1" xmlns="http://www.w3.org/2000/svg" xmlns:xlink="http://www.w3.org/1999/xlink" viewBox="0 0 40 40"><defs><style>.cls-1{fill:none;}.cls-2{clip-path:url(#clip-path);}.cls-3{fill:#ad1e3a;}.cls-4{fill:#e5e8eb;}.cls-5{fill:#262d65;}</style><clipPath id="clip-path"><rect id="SVGID" class="cls-1" x="1.427" y="9.018" width="37.147" height="21.965" rx="4"/></clipPath></defs><g class="cls-2"><polygon class="cls-3" points="11.276 9.018 1.427 20.999 1.427 22.995 2.411 23.994 1.427 24.992 1.427 26.989 2.411 27.987 1.427 28.986 1.427 30.982 38.573 30.982 38.573 28.986 37.589 27.987 38.573 26.989 38.573 24.992 37.589 23.994 38.573 22.995 38.573 20.999 37.589 20 38.573 19.002 38.573 17.005 37.589 16.007 38.573 15.008 38.573 13.011 37.589 12.013 38.573 11.014 38.573 9.018 11.276 9.018"/><path class="cls-4" d="M1.427,28.986H38.573v-2H1.427Zm0-3.994H38.573V23H1.427Zm9.849-13.978L1.427,19v2H38.573V19h-27.3l-1.97-2H38.573v-2H9.306v-2H38.573v-2Z"/><rect class="cls-5" x="1.427" y="9.018" width="9.849" height="9.984"/><polygon class="cls-4" points="6.351 11.014 5.438 13.863 7.124 14.419 6.351 11.014"/><polygon class="cls-4" points="6.351 11.014 7.264 13.863 5.578 14.419 6.351 11.014"/><polygon class="cls-4" points="9.161 13.084 6.206 13.084 6.206 14.881 9.161 13.084"/><polygon class="cls-4" points="9.161 13.084 6.771 14.845 5.728 13.391 9.161 13.084"/><polygon class="cls-4" points="8.088 16.433 7.175 13.584 5.489 14.14 8.088 16.433"/><polygon class="cls-4" points="8.088 16.433 5.698 14.672 6.739 13.219 8.088 16.433"/><polygon class="cls-4" points="4.615 16.433 7.004 14.672 5.963 13.219 4.615 16.433"/><polygon class="cls-4" points="4.615 16.433 5.528 13.584 7.214 14.14 4.615 16.433"/><polygon class="cls-4" points="3.541 13.084 5.932 14.845 6.974 13.391 3.541 13.084"/><polygon class="cls-4" points="3.541 13.084 6.496 13.084 6.496 14.881 3.541 13.084"/></g></svg>