<?xml version="1.0" encoding="UTF-8"?><svg id="Layer_1" xmlns="http://www.w3.org/2000/svg" viewBox="0 0 40 40"><path d="m12.48,26.926c-1.838,0-3.371-1.241-3.85-2.925H2v4c0,2.209,1.791,4,4,4h28c2.209,0,4-1.791,4-4v-4h-21.67c-.479,1.684-2.012,2.925-3.85,2.925Z" fill="#e3e7ea"/><g><path d="m16.5,22.906c0,.382-.07.745-.17,1.095h21.67v-8h-21.5v6.905Z" fill="#2f3c86"/><path d="m8.46,22.906v-6.905H2v8h6.63c-.1-.35-.17-.713-.17-1.095Z" fill="#2f3c86"/></g><g><path d="m12.56,10.6c0-.072-.059-.132-.132-.132s-.132.059-.132.132v.189h.263v-.189Z" fill="#ffac33"/><path d="m12.56,11.211v-.182h-.263v.178c.039-.011.078-.024.121-.024.051,0,.097.013.143.029Z" fill="#ffac33"/></g><g><path d="m12.417,12.062c.236,0,.425-.187.436-.42,0-.007.004-.013.004-.02,0-.192-.125-.351-.297-.411-.045-.016-.092-.029-.143-.029-.043,0-.081.013-.121.024-.183.053-.319.216-.319.416,0,.01.005.018.005.027.015.229.201.413.435.413Z" fill="#0c4076"/><path d="m10.363,15.433c0-.107-.124-.194-.276-.194-.111,0-.187.053-.232.118-.017.025-.045.046-.045.076,0,.083.084.142.189.169.03.008.053.025.087.025.153,0,.276-.087.276-.194Z" fill="#0c4076"/><path d="m14.807,15.239c-.153,0-.276.087-.276.194,0,.107.124.194.276.194.067,0,.124-.022.172-.05.033-.019.046-.046.063-.074.009-.015.022-.027.025-.043.002-.01.016-.016.016-.027,0-.003-.004-.004-.004-.007-.006-.104-.123-.187-.272-.187Z" fill="#0c4076"/><path d="m12.429,15.159c-.153,0-.276.086-.276.194s.124.195.276.195.276-.087.276-.195-.123-.194-.276-.194Z" fill="#0c4076"/></g><g><path d="m12.817,23.208s-.004,0-.006,0c-.092.02-.188.029-.286.033-.021,0-.04.007-.061.007-.017,0-.032-.005-.049-.006-.103-.003-.203-.013-.3-.034,0,0-.002,0-.002,0h0c-.153-.034-.295-.094-.428-.167.11.216.101.579-.017.823-.148.304,0,.427,0,.427,0,0-.216.32-.326.503-.11.183.057.396.057.396,0,0-.418.624-.302.868.113.234.809.383,1.318.394l.004.002h.029s.029,0,.029,0l.004-.002c.509-.011,1.206-.16,1.319-.394.117-.243-.302-.868-.302-.868,0,0,.167-.213.057-.396-.11-.183-.327-.503-.327-.503,0,0,.148-.123,0-.427-.112-.231-.13-.574-.039-.794-.117.059-.24.107-.372.136h0Z" fill="#fff"/><path d="m14.158,23.561l.056-.299.024-.127s.148.152.378.137c-.284-.472,0-.365,0-.365,0,0,.108.274.243.396.134.122.175.457.351.503.175.045.081-.396.081-.396,0,0,.175.365.458.441-.256-.548-.161-1.188,0-1.903.162-.716.081-1.553.081-1.553,0,0,.151-1.584.022-2.467-.129-.883-.96-.609-1.313,0-.353.609-.658.974-.985.548-.252-.328-.434-.676-.29-1.082-.246-.07-.629-.255-.404-.472.229-.219.696-.478,1.045-.593-.108-.203-.357-.144-.705,0-.405.167-.661.091-.62.274.041.183.189.198.189.198,0,0-.255.249-.322,1.106-.067-.857-.322-1.106-.322-1.106,0,0,.148-.015.189-.198.04-.183-.216-.107-.621-.274-.348-.144-.596-.202-.704,0,.349.115.817.374,1.046.593.225.217-.158.403-.404.472.144.406-.038.754-.29,1.082-.326.426-.631.107-.984-.503-.353-.609-1.185-.883-1.313,0-.129.883.02,2.421.02,2.421,0,0-.081.837.081,1.553.162.716.257,1.355,0,1.903.283-.076.458-.441.458-.441,0,0-.094.441.081.396.175-.045.216-.381.35-.503.135-.122.243-.396.243-.396,0,0,.284-.107,0,.365.229.015.378-.137.378-.137l.041.216.04.211.135-.228.036.22.031.191.243-.396.159.183s.022-.504.144-.615c-.395-.298-.654-.767-.654-1.299v-2.821h3.266v1.679h.001v.704h-.001v.438c0,.54-.266,1.016-.671,1.313.109.138.128.601.128.601l.159-.183.243.396.041-.252.026-.159.135.228Z" fill="#fff"/></g><g><path d="m12.853,11.642c-.011.233-.2.42-.436.42-.233,0-.42-.184-.435-.413-2.467.137-3.268,1.224-3.043,1.652.24.457.959,1.633.959,1.633,0,0-.163.088-.043.424.044-.065.121-.118.232-.118.153,0,.276.086.276.194s-.124.194-.276.194c-.034,0-.057-.017-.087-.025.331.27,1.177.028,2.479.028,1.335,0,2.188.25,2.5-.053-.048.028-.105.05-.172.05-.153,0-.276-.087-.276-.194,0-.107.124-.194.276-.194.149,0,.266.083.272.187.175-.4-.019-.492-.019-.492,0,0,.719-1.176.96-1.633.229-.435-.6-1.553-3.167-1.659Zm-2.611,2.15c-.045.045.057.103.045.183-.012.08-.137-.24-.32-.183-.129.04-.097.3-.073.425,0,0,0,0,0-.002-.06-.226-.292-.32-.292-.194s-.091,0-.069-.228c.023-.229-.045-.365-.183-.56-.137-.195-.137-.365.035-.48.171-.114.548-.206.548-.206,0,0,.148.651.228.8.08.148.228.246.228.246,0,0-.069.108,0,.165.069.057.148.194.148.194,0,0-.251-.205-.296-.16Zm.957,1.769c-.153,0-.276-.087-.276-.194s.124-.194.276-.194.276.087.276.194-.124.194-.276.194Zm.721-1.825c.023.092-.137.08-.137.217s-.148.08-.148.08c0,0,.183-.479-.126-.469-.175.007-.114.365,0,.491-.05-.077-.194-.08-.314-.171s.017-.24-.075-.206-.148.183-.24.217-.045-.104,0-.217c.045-.114-.053-.171-.053-.171,0,0,.007-.08.076-.126.069-.045.091-.125,0-.217-.091-.091-.422-.605-.319-.777.103-.171.445-.365,1.405-.343.171.788-.091,1.176-.091,1.176,0,0,.194.126.251.194-.137.058-.034.115.057.194.091.081.148.137.091.195-.057.057-.103-.046-.217-.126s-.183-.034-.16.058Zm.509,1.811c-.153,0-.276-.087-.276-.195s.124-.194.276-.194.276.086.276.194-.123.195-.276.195Zm1.237.014c-.153,0-.276-.087-.276-.194s.124-.194.276-.194.276.087.276.194-.124.194-.276.194Zm.39-2.18c.069.045.076.126.076.126,0,0-.099.057-.053.171.045.114.091.251,0,.217s-.148-.183-.24-.217c-.091-.034.045.115-.075.206s-.263.094-.314.171c.114-.126.175-.485,0-.491-.308-.012-.126.469-.126.469,0,0-.148.057-.148-.08s-.16-.126-.137-.217c.023-.091-.045-.137-.16-.058-.114.08-.16.183-.217.126-.057-.057,0-.114.091-.195.092-.08.195-.136.058-.194.057-.069.251-.194.251-.194,0,0-.262-.388-.091-1.176.959-.023,1.302.171,1.405.343.103.171-.228.686-.32.776s-.069.171,0,.217Zm1.553-.148c-.137.194-.205.331-.183.56.023.228-.069.354-.069.228s-.232-.031-.292.194c0,.001,0,0,0,.002.025-.125.056-.385-.073-.425-.103-.032-.219.124-.295.26.03-.11.048-.233.021-.26-.045-.046-.297.16-.297.16,0,0,.08-.137.148-.194.069-.057,0-.165,0-.165,0,0,.148-.097.228-.246.08-.148.228-.8.228-.8,0,0,.377.092.548.206s.172.286.035.48Z" fill="#edb92e"/><path d="m15.06,15.482c.005-.009.003-.013.008-.022-.004.016-.016.029-.025.043.005-.008.013-.012.018-.021Z" fill="#edb92e"/><path d="m12.703,11.029c.067,0,.12-.053.12-.12s-.053-.12-.12-.12h-.571c-.067,0-.12.053-.12.12s.053.12.12.12h.571Z" fill="#edb92e"/><path d="m15.165,23.827c0-.12-.209-.069-.506-.05-.234.016-.303-.164-.444-.517l-.056.299-.135-.228-.026.159c.123.171.275.37.356.435.148.12.227.1.227.1,0,0,.384.498.471.279.088-.219-.357-.408-.357-.408,0,0,.471.05.471-.07Z" fill="#edb92e"/><path d="m10.736,23.561l-.04-.211c-.119.295-.193.442-.407.428-.297-.02-.506-.07-.506.05,0,.119.471.07.471.07,0,0-.445.19-.357.408.087.219.471-.279.471-.279,0,0,.078.02.227-.1.071-.057.198-.22.312-.374l-.036-.22-.135.228Z" fill="#edb92e"/><path d="m14.605,24.878c.1-.231.03-.264-.051-.344-.081-.08-.121-.191-.121-.191,0,0-.04.111-.121.191-.081.08-.151.113-.051.344-.243-.144-.284.12-.172.28.031-.144.223-.111.223.064s-.159.096-.139.167c.019.072.164.224.26.224s.241-.151.26-.224c.02-.073-.139.008-.139-.167s.191-.208.223-.064c.112-.16.072-.424-.172-.28Z" fill="#edb92e"/><path d="m10.63,24.878c.1-.231.03-.264-.05-.344-.081-.08-.121-.191-.121-.191,0,0-.04.111-.121.191-.081.08-.151.113-.051.344-.243-.144-.284.12-.172.28.031-.144.223-.111.223.064s-.159.096-.14.167c.02.072.164.224.26.224s.241-.151.26-.224c.02-.073-.139.008-.139-.167s.191-.208.223-.064c.113-.16.072-.424-.172-.28Z" fill="#edb92e"/><path d="m13.265,17.393c.066.019.125.031.156.031.149,0,.445.171.68-.058.349-.034.431-.331.431-.331,0,0-.255.171-.507.148-.251-.023-.365-.08-.228-.24s.454.126.454.126c0,0,.083.012.281-.274.198-.286-.015-.469-.281-.525-.077-.017-.203.012-.345.058-.349.115-.817.374-1.045.593-.225.217.158.402.404.472Z" fill="#edb92e"/><path d="m12.035,16.921c-.229-.219-.696-.479-1.046-.593-.142-.046-.268-.075-.344-.058-.266.058-.479.24-.281.526.198.286.281.274.281.274,0,0,.316-.286.454-.126.137.16.023.217-.228.24-.251.023-.506-.148-.506-.148,0,0,.083.297.431.331.235.228.531.057.68.057.031,0,.09-.012.156-.031.246-.07.629-.255.404-.472Z" fill="#edb92e"/></g><g><path d="m34.806,8.081c-.021-.004-.044-.003-.066-.007-.238-.045-.482-.074-.733-.074H5.993c-.251,0-.495.03-.733.074-.021.004-.045.002-.066.007-1.822.371-3.194,1.982-3.194,3.914v4.005h6.46v-.039h8.04v.039h21.5v-4.005c0-1.932-1.371-3.543-3.194-3.914Zm-18.787,5.22c-.24.457-.96,1.633-.96,1.633,0,0,.194.093.019.492,0,.003.004.004.004.007,0,.01-.013.017-.016.027-.004.009-.003.013-.008.022-.004.009-.013.013-.018.021-.017.028-.03.055-.063.074-.313.304-1.165.053-2.5.053-1.302,0-2.148.241-2.479-.028-.105-.027-.189-.085-.189-.169,0-.03.028-.051.045-.076-.12-.336.043-.424.043-.424,0,0-.719-1.176-.959-1.633-.225-.428.576-1.515,3.043-1.652,0-.009-.005-.017-.005-.027,0-.2.136-.362.319-.416v-.178h-.164c-.067,0-.12-.053-.12-.12s.053-.12.12-.12h.164v-.189c0-.072.059-.132.132-.132s.132.059.132.132v.189h.143c.067,0,.12.053.12.12s-.053.12-.12.12h-.143v.182c.172.06.297.219.297.411,0,.007-.004.013-.004.02,2.567.106,3.396,1.223,3.167,1.659Z" fill="#dc002d"/><path d="m10.39,13.593s-.148-.097-.228-.246c-.08-.148-.228-.8-.228-.8,0,0-.377.092-.548.206-.172.115-.172.286-.035.48.137.194.205.331.183.56-.023.228.069.354.069.228s.232-.031.292.194c0,0,0,0,0,.002-.025-.125-.056-.385.073-.425.183-.057.308.263.32.183.012-.08-.091-.138-.045-.183.045-.045.296.16.296.16,0,0-.08-.137-.148-.194-.069-.057,0-.165,0-.165Z" fill="#dc002d"/><path d="m14.376,12.388c-.103-.172-.446-.365-1.405-.343-.171.788.091,1.176.091,1.176,0,0-.194.126-.251.194.137.057.034.114-.058.194-.091.081-.148.137-.091.195.057.057.103-.046.217-.126.115-.08.183-.034.16.058-.023.092.137.081.137.217s.148.08.148.08c0,0-.183-.48.126-.469.175.007.114.365,0,.491.051-.077.194-.08.314-.171s-.017-.24.075-.206c.091.034.148.183.24.217s.045-.103,0-.217c-.046-.114.053-.171.053-.171,0,0-.007-.081-.076-.126-.069-.046-.092-.126,0-.217s.423-.605.32-.776Z" fill="#dc002d"/><path d="m12.297,13.804c.057-.057,0-.114-.091-.195-.091-.08-.194-.136-.057-.194-.057-.069-.251-.194-.251-.194,0,0,.262-.388.091-1.176-.96-.023-1.302.172-1.405.343-.102.172.228.686.319.777.091.092.069.172,0,.217-.069.046-.076.126-.076.126,0,0,.098.057.053.171-.045.113-.091.251,0,.217s.148-.183.24-.217-.045.115.075.206.264.094.314.171c-.114-.126-.175-.485,0-.491.308-.011.126.469.126.469,0,0,.148.058.148-.08s.16-.126.137-.217c-.023-.091.046-.137.16-.058s.16.183.217.126Z" fill="#dc002d"/><path d="m15.574,12.753c-.171-.114-.548-.206-.548-.206,0,0-.148.651-.228.8-.08.148-.228.246-.228.246,0,0,.069.108,0,.165-.069.057-.148.194-.148.194,0,0,.251-.206.297-.16.027.027.009.15-.021.26.076-.136.192-.292.295-.26.129.041.097.301.073.425,0-.001,0,0,0-.002.06-.225.292-.32.292-.194s.091,0,.069-.228c-.023-.229.045-.365.183-.56.137-.195.136-.366-.035-.48Z" fill="#dc002d"/><path d="m8.63,24c.479,1.684,2.012,2.925,3.85,2.925s3.371-1.241,3.85-2.925c.1-.35.17-.713.17-1.095v-6.944h-8.04v6.944c0,.382.07.745.17,1.095Zm2.172,1.158c-.032-.144-.223-.111-.223.064s.159.095.139.167c-.019.072-.164.224-.26.224s-.24-.151-.26-.224c-.019-.072.14.008.14-.167s-.191-.208-.223-.064c-.112-.16-.072-.424.172-.28-.1-.232-.03-.265.051-.344.081-.08.121-.191.121-.191,0,0,.04.112.121.191.08.08.151.113.05.344.244-.144.284.12.172.28Zm3.975,0c-.032-.144-.223-.111-.223.064s.159.095.139.167c-.019.072-.164.224-.26.224s-.241-.151-.26-.224c-.02-.072.139.008.139-.167s-.191-.208-.223-.064c-.112-.16-.072-.424.172-.28-.1-.232-.03-.265.051-.344.081-.08.121-.191.121-.191,0,0,.04.112.121.191.081.08.151.113.051.344.244-.144.284.12.172.28Zm.275-.853c-.087.219-.471-.279-.471-.279,0,0-.078.02-.227-.1-.082-.065-.233-.265-.356-.435l-.041.252-.243-.396-.159.183s-.019-.464-.128-.601c-.074.054-.154.101-.237.142-.091.22-.073.563.039.794.148.304,0,.427,0,.427,0,0,.216.32.327.503.11.183-.057.396-.057.396,0,0,.419.625.302.868-.113.234-.809.383-1.319.394l-.004.002h-.029s-.029,0-.029,0l-.004-.002c-.509-.011-1.206-.16-1.318-.394-.116-.244.302-.868.302-.868,0,0-.167-.213-.057-.396.11-.183.326-.503.326-.503,0,0-.148-.123,0-.427.118-.244.127-.607.017-.823-.07-.038-.137-.08-.2-.127-.123.111-.144.615-.144.615l-.159-.183-.243.396-.031-.191c-.113.154-.24.317-.312.374-.148.12-.227.1-.227.1,0,0-.384.498-.471.279-.088-.219.357-.408.357-.408,0,0-.471.05-.471-.07,0-.12.209-.069.506-.05.214.014.288-.133.407-.428l-.041-.216s-.148.153-.378.137c.284-.472,0-.365,0-.365,0,0-.108.274-.243.396-.135.122-.175.458-.35.503-.175.045-.081-.396-.081-.396,0,0-.175.365-.458.441.257-.548.162-1.188,0-1.903-.162-.716-.081-1.553-.081-1.553,0,0-.149-1.538-.02-2.421.128-.883.96-.609,1.313,0,.353.61.659.929.984.503.252-.328.434-.675.29-1.082-.066.019-.124.031-.156.031-.149,0-.445.171-.68-.057-.349-.034-.431-.331-.431-.331,0,0,.255.171.506.148.251-.023.365-.08.228-.24-.137-.16-.454.126-.454.126,0,0-.083.012-.281-.274-.198-.286.015-.469.281-.526.077-.017.203.012.344.058.109-.203.357-.144.704,0,.405.167.661.091.621.274-.04.183-.189.198-.189.198,0,0,.255.249.322,1.106.067-.857.322-1.106.322-1.106,0,0-.148-.015-.189-.198-.04-.183.216-.107.62-.274.348-.144.596-.202.705,0,.142-.047.268-.075.345-.058.266.057.479.24.281.525-.198.286-.281.274-.281.274,0,0-.316-.286-.454-.126s-.023.217.228.24c.251.023.507-.148.507-.148,0,0-.083.297-.431.331-.235.229-.531.058-.68.058-.032,0-.09-.012-.156-.031-.144.406.038.754.29,1.082.327.426.632.061.985-.548.353-.609,1.184-.883,1.313,0,.129.883-.022,2.467-.022,2.467,0,0,.081.838-.081,1.553-.161.715-.256,1.355,0,1.903-.283-.076-.458-.441-.458-.441,0,0,.094.441-.081.396-.175-.046-.216-.381-.351-.503-.135-.122-.243-.396-.243-.396,0,0-.284-.107,0,.365-.229.015-.378-.137-.378-.137l-.024.127c.141.353.21.532.444.517.297-.02.506-.07.506.05,0,.119-.471.07-.471.07,0,0,.445.19.357.408Z" fill="#dc002d"/><path d="m11.199,15.173c-.153,0-.276.087-.276.194s.124.194.276.194.276-.087.276-.194-.124-.194-.276-.194Z" fill="#dc002d"/><path d="m13.665,15.173c-.153,0-.276.087-.276.194s.124.194.276.194.276-.087.276-.194-.124-.194-.276-.194Z" fill="#dc002d"/><path d="m12.113,21.177h-1.281v-.704h1.281v-1.679h-1.282v2.821c0,.532.259,1.001.654,1.299.063.048.13.089.2.127.134.073.275.133.428.166v-2.031Z" fill="#dc002d"/><path d="m14.097,21.615v-.438h-1.28v2.03c.131-.029.254-.077.372-.136.083-.042.163-.088.237-.142.405-.297.671-.773.671-1.313Z" fill="#dc002d"/><rect x="12.816" y="18.794" width="1.281" height="1.679" fill="#dc002d"/></g><path d="m10.832,20.473v.704h1.281v2.031h0s.002,0,.002,0c.097.021.198.031.3.034.017,0,.032.006.049.006.021,0,.04-.006.061-.007.097-.004.193-.013.286-.033.002,0,.004,0,.006,0h0v-2.031h1.281v-.704h-1.282v-1.679h-.703v1.679h-1.281Z" fill="#eee"/></svg>