<?xml version="1.0" encoding="UTF-8"?><svg id="a" xmlns="http://www.w3.org/2000/svg" viewBox="0 0 40 40"><g><path d="M34,32c2.209,0,4-1.791,4-4V14.701L7.62,32h26.38Z" fill="#00973a"/><path d="M5.998,8h-.005c-.249,0-.49,.03-.726,.074-.024,.004-.049,.002-.073,.007-1.822,.371-3.194,1.982-3.194,3.914v13.304L32.38,8H5.998Zm3.872,10.064l-1.413-1.146-.636,1.682-.636-1.682-1.412,1.146,.311-1.767h0l-1.811,.303,1.175-1.38-1.723-.621,1.723-.621-1.175-1.378,1.81,.303h0l-.311-1.768,1.412,1.147,.636-1.682,.636,1.682,1.413-1.147-.311,1.767h0l1.81-.303-1.174,1.378,1.723,.621-1.723,.621,1.174,1.38-1.81-.303,.311,1.767Z" fill="#253680"/><g><path d="M34.472,8.047c-.154-.018-.305-.047-.464-.047h-1.627L2,25.299v1.238L34.472,8.047Z" fill="#e3e7ea"/><path d="M5.529,31.953c.155,.018,.307,.047,.467,.047h1.625L38,14.701v-1.238L5.529,31.953Z" fill="#e3e7ea"/></g><g><path d="M37.474,10.05l-.012-.019c-.224-.394-.512-.745-.851-1.039-.015-.013-.032-.026-.047-.039-.218-.184-.456-.344-.71-.478l-.036-.02c-.41-.21-.861-.351-1.34-.408h-.006L2,26.537v1.468c0,.232,.028,.456,.068,.676,.016,.088,.033,.176,.055,.261,.027,.107,.062,.21,.097,.314,.079,.229,.173,.452,.289,.662,.006,.01,.01,.022,.016,.033L37.474,10.05Z" fill="#d3003b"/><path d="M37.931,11.32c-.016-.087-.033-.175-.054-.26-.028-.108-.062-.212-.098-.317-.079-.228-.172-.449-.288-.658-.006-.011-.011-.023-.017-.034L2.526,29.95l.011,.018c.225,.395,.513,.746,.853,1.041,.014,.012,.029,.024,.044,.036,.22,.185,.459,.347,.716,.481l.032,.017c.411,.21,.863,.352,1.343,.409h.005L38,13.464v-1.468c0-.232-.028-.456-.069-.676Z" fill="#d3003b"/></g><path d="M10.279,14.6c0-.662-.275-1.262-.72-1.696h0c-.445-.435-1.06-.703-1.739-.703s-1.293,.269-1.738,.703h0c-.445,.435-.72,1.034-.72,1.697s.275,1.263,.72,1.697h0c.445,.435,1.059,.703,1.738,.703,1.358,0,2.459-1.075,2.459-2.401Zm-4.508,0c0-1.104,.917-2,2.049-2s2.05,.896,2.05,2-.917,2.001-2.05,2.001-2.049-.896-2.049-2.001Z" fill="#253680"/><g><path d="M9.559,12.903l.311-1.767-1.413,1.147-.636-1.682-.636,1.682-1.412-1.147,.311,1.767c.445-.434,1.059-.703,1.738-.703s1.294,.269,1.739,.703Z" fill="#fbcb00"/><path d="M10.195,15.221l1.723-.621-1.723-.621,1.174-1.378-1.81,.303c.445,.434,.72,1.034,.72,1.696,0,1.325-1.102,2.401-2.459,2.401-.679,0-1.293-.269-1.738-.703l-.311,1.767,1.412-1.146,.636,1.682,.636-1.682,1.413,1.146-.311-1.767,1.81,.303-1.174-1.38Z" fill="#fbcb00"/><path d="M5.362,14.6c0-.663,.275-1.262,.72-1.696l-1.81-.303,1.175,1.378-1.723,.621,1.723,.621-1.175,1.38,1.811-.303c-.445-.434-.72-1.034-.72-1.697Z" fill="#fbcb00"/><path d="M9.87,14.6c0-1.104-.917-2-2.05-2s-2.049,.896-2.049,2,.917,2.001,2.049,2.001,2.05-.896,2.05-2.001Z" fill="#fbcb00"/></g></g><path d="M1.85,32.141c-.16,0-.312-.029-.467-.047l-.083,.047h.55Z" fill="#e3e7ea"/></svg>