<svg id="Layer_1" data-name="Layer 1" xmlns="http://www.w3.org/2000/svg" xmlns:xlink="http://www.w3.org/1999/xlink" viewBox="0 0 40 40"><defs><style>.cls-1{fill:none;}.cls-2{clip-path:url(#clip-path);}.cls-3{clip-path:url(#clip-path-2);}.cls-4{fill:#f0e02f;}.cls-5{fill:#e5e8eb;}.cls-6{fill:#bd2033;}.cls-7{clip-path:url(#clip-path-4);}.cls-8{clip-path:url(#clip-path-5);}.cls-9{fill:#f4cf2f;}.cls-10{fill:#ba4c4c;}</style><clipPath id="clip-path"><rect id="SVGID" class="cls-1" x="1.363" y="9.034" width="37.274" height="21.932" rx="4"/></clipPath><clipPath id="clip-path-2"><rect id="SVGID-2" data-name="SVGID" class="cls-1" x="1.363" y="9.034" width="37.274" height="21.932"/></clipPath><clipPath id="clip-path-4"><rect id="SVGID-4" data-name="SVGID" class="cls-1" x="14.882" y="23.89" width="10.225" height="2.623"/></clipPath><clipPath id="clip-path-5"><rect id="SVGID-5" data-name="SVGID" class="cls-1" x="16.071" y="24.941" width="7.812" height="1.934"/></clipPath></defs><g class="cls-2"><g class="cls-3"><rect class="cls-4" x="1.363" y="9.034" width="37.274" height="21.932"/><polygon class="cls-5" points="1.363 15.736 38.637 24.874 38.637 19.695 1.363 10.557 1.363 15.736"/><polygon points="1.363 20.305 38.637 29.443 38.637 24.874 1.363 15.736 1.363 20.305"/><rect class="cls-6" x="19.785" y="18.168" width="0.391" height="1.054"/><path d="M20.21,19.256h-.459V18.134h.459v1.122Zm-.391-.069h.323V18.2h-.323v.984Z"/><g class="cls-3"><path class="cls-6" d="M20.568,20.95a10.732,10.732,0,0,1,.07-1.617A.605.605,0,0,1,20.851,19c-.215-.023-.452.186-.561.461a1.238,1.238,0,0,0-.313-.626,1.183,1.183,0,0,0-.31.629c-.112-.231-.309-.487-.543-.458a.658.658,0,0,1,.21.329,9.361,9.361,0,0,1,.057,1.608Z"/><path d="M20.5,20.95a10.777,10.777,0,0,1,.072-1.634.642.642,0,0,1,.081-.2.751.751,0,0,0-.3.367l-.083.211-.049-.221a1.3,1.3,0,0,0-.245-.54,1.164,1.164,0,0,0-.242.541l-.04.2-.091-.186a1,1,0,0,0-.281-.365.656.656,0,0,1,.078.187,9.348,9.348,0,0,1,.06,1.628l-.14,0a9.351,9.351,0,0,0-.055-1.588.455.455,0,0,0-.135-.236.788.788,0,0,1-.06-.066l-.083-.1.128-.016c.234-.033.417.171.526.342a1.159,1.159,0,0,1,.288-.495l.047-.043.047.043a1.169,1.169,0,0,1,.285.486.627.627,0,0,1,.549-.339l.14.015-.145.154a.443.443,0,0,0-.147.254,10.444,10.444,0,0,0-.069,1.6Z"/><path class="cls-6" d="M20.6,22.76a13.94,13.94,0,0,1,.074-1.845.562.562,0,0,1,.23-.381c-.235-.027-.458.045-.589.449a1.23,1.23,0,0,0-.341-.686,1.218,1.218,0,0,0-.338.689c-.144-.4-.344-.49-.6-.455a.638.638,0,0,1,.241.384,12.381,12.381,0,0,1,.039,1.834Z"/><path d="M20.542,22.761a13.718,13.718,0,0,1,.076-1.858.586.586,0,0,1,.138-.309c-.143.018-.284.111-.38.408l-.073.224-.045-.232a1.194,1.194,0,0,0-.281-.608A1.186,1.186,0,0,0,19.7,21l-.04.224-.077-.215c-.112-.311-.253-.4-.4-.419a.6.6,0,0,1,.158.314,13.751,13.751,0,0,1,.04,1.849l-.122,0a12.075,12.075,0,0,0-.037-1.819.492.492,0,0,0-.17-.3l-.139-.143.119-.016a.527.527,0,0,1,.59.322,1.22,1.22,0,0,1,.311-.539l.044-.044.043.044a1.23,1.23,0,0,1,.313.534.534.534,0,0,1,.58-.314l.131.015-.132.124a.466.466,0,0,0-.175.315,13.785,13.785,0,0,0-.073,1.833Z"/><path class="cls-6" d="M20.84,23.241a1.737,1.737,0,0,1,.065-.578,1.453,1.453,0,0,1,.173-.271.557.557,0,0,0-.7.387,1.21,1.21,0,0,0-.4-.692,1.22,1.22,0,0,0-.388.692.561.561,0,0,0-.713-.387,1.59,1.59,0,0,1,.179.271,1.674,1.674,0,0,1,.069.578Z"/><path d="M19.18,23.243l-.108,0a1.622,1.622,0,0,0-.065-.554,1.117,1.117,0,0,0-.131-.2l-.094-.128.088-.014a.615.615,0,0,1,.71.285,1.18,1.18,0,0,1,.365-.579l.034-.027.034.027a1.19,1.19,0,0,1,.373.579.6.6,0,0,1,.7-.285l.089.013-.088.121a1.1,1.1,0,0,0-.132.213,1.735,1.735,0,0,0-.061.554l-.108,0a1.809,1.809,0,0,1,.069-.6,1.075,1.075,0,0,1,.124-.2.481.481,0,0,0-.553.362l-.06.164-.043-.169a1.2,1.2,0,0,0-.344-.635,1.229,1.229,0,0,0-.336.635l-.043.169-.06-.164a.485.485,0,0,0-.562-.363,1.083,1.083,0,0,1,.128.205,1.7,1.7,0,0,1,.074.6Z"/><rect class="cls-6" x="19.834" y="16.121" width="0.291" height="0.833"/><path d="M20.18,17.008h-.4v-.942h.4v.942Zm-.292-.109h.183v-.724h-.183V16.9Z"/><g class="cls-7"><path class="cls-6" d="M21.858,26.4a1.555,1.555,0,0,0,.88.008c.911-.16.9-1.067,2.32-.646a.937.937,0,0,0-.841-.542.851.851,0,0,0-.007-.63.971.971,0,0,1-.392.43.678.678,0,0,1-.275-.463c-.032-.528-.287-.621-.314-.607a4.753,4.753,0,0,1-3.262,1.579,4.475,4.475,0,0,1-3.24-1.579c-.027-.014-.282.079-.314.607a.675.675,0,0,1-.276.458.92.92,0,0,1-.39-.425.851.851,0,0,0-.008.63.938.938,0,0,0-.841.542c1.417-.421,1.42.486,2.33.646a1.548,1.548,0,0,0,.864,0Z"/><path d="M17.764,26.513a3.233,3.233,0,0,1-.545-.055,1.7,1.7,0,0,1-.786-.395,1.393,1.393,0,0,0-1.52-.253l-.064-.077a.988.988,0,0,1,.819-.567.865.865,0,0,1,.033-.609l.095.006a.831.831,0,0,0,.338.381.608.608,0,0,0,.225-.4c.027-.441.2-.589.279-.632a.128.128,0,0,1,.114-.019c.016.005.053.031.172.155a4.1,4.1,0,0,0,3.023,1.418h.02A4.143,4.143,0,0,0,22.958,24.1c.149-.148.211-.21.27-.21h0c.009-.012.054.006.087.025.075.042.253.19.28.633a.623.623,0,0,0,.222.4.872.872,0,0,0,.341-.386l.1-.006a.864.864,0,0,1,.032.609.988.988,0,0,1,.819.567l-.064.077a1.381,1.381,0,0,0-1.512.252,1.671,1.671,0,0,1-.783.4,1.533,1.533,0,0,1-.921-.016l.061-.091a1.6,1.6,0,0,0,.841,0,1.581,1.581,0,0,0,.736-.375,1.442,1.442,0,0,1,1.48-.306.872.872,0,0,0-.729-.4l-.051-.07a1,1,0,0,0,.039-.486,1.049,1.049,0,0,1-.357.347l-.056,0a.729.729,0,0,1-.3-.507c-.027-.438-.21-.553-.254-.558a1.2,1.2,0,0,0-.2.18,4.246,4.246,0,0,1-3.068,1.4h-.02a4.2,4.2,0,0,1-3.1-1.451,1.354,1.354,0,0,0-.134-.13c-.035.006-.218.121-.245.558a.724.724,0,0,1-.3.5h-.058a1.01,1.01,0,0,1-.355-.343.99.99,0,0,0,.038.486l-.051.07a.872.872,0,0,0-.729.4,1.458,1.458,0,0,1,1.488.307,1.605,1.605,0,0,0,.739.374,1.508,1.508,0,0,0,.824.009l.06.091a.716.716,0,0,1-.358.063Z"/></g><g class="cls-8"><path class="cls-6" d="M17.459,25.944c-.494-.02-1.457-.777-1.32-.934.043-.044.256,0,.623.261.545.375,1.013,1.558,3.2,1.549,2.229-.009,2.687-1.174,3.232-1.549.367-.259.6-.3.623-.25.131.15-.833.906-1.327.926Z"/><path d="M19.939,26.875A3.414,3.414,0,0,1,17.432,26a2.344,2.344,0,0,1-1.344-.876.131.131,0,0,1,.01-.147c.087-.089.352.009.7.252a2.627,2.627,0,0,1,.39.366,3.283,3.283,0,0,0,2.755,1.173h.024a3.364,3.364,0,0,0,2.816-1.179,2.6,2.6,0,0,1,.386-.36,1.083,1.083,0,0,1,.641-.274l.06.044c.014.013.033.057,0,.129a2.351,2.351,0,0,1-1.35.875,3.531,3.531,0,0,1-2.554.875Zm3.826-1.821a1.262,1.262,0,0,0-.539.262,2.539,2.539,0,0,0-.37.346c-.059.062-.122.129-.191.2a2.639,2.639,0,0,0,1.055-.7c.058-.075.054-.1.054-.1Zm-7.589,0a.393.393,0,0,0,.045.084,2.564,2.564,0,0,0,1.066.722c-.066-.066-.126-.129-.183-.189a2.5,2.5,0,0,0-.373-.351c-.352-.25-.524-.275-.555-.266Z"/></g><path class="cls-6" d="M16.783,18.293c-1.95,2.074-.9,6.838,3.153,6.907,4.076.046,5.265-4.766,3.24-6.916Zm.395.071a3.24,3.24,0,1,0,5.612-.01Z"/><path d="M19.994,25.255h-.059a4.01,4.01,0,0,1-3.8-2.529,4.285,4.285,0,0,1,.607-4.469l.079.075a4.172,4.172,0,0,0-.585,4.352,3.907,3.907,0,0,0,3.7,2.462,3.924,3.924,0,0,0,3.778-2.406,4.175,4.175,0,0,0-.579-4.417l.079-.076a4.287,4.287,0,0,1,.6,4.537,3.984,3.984,0,0,1-3.82,2.472Zm0-1.982A3.121,3.121,0,0,1,17.2,21.657a3.437,3.437,0,0,1-.072-3.321l.094.056A3.324,3.324,0,0,0,17.3,21.6a3.018,3.018,0,0,0,2.7,1.56,2.956,2.956,0,0,0,2.678-1.541,3.353,3.353,0,0,0,.071-3.24l.094-.056a3.466,3.466,0,0,1-.071,3.35,3.059,3.059,0,0,1-2.772,1.6Z"/><path class="cls-9" d="M20.7,25.808a.274.274,0,0,1,.22.331.342.342,0,0,1-.353.212c-.086-.052-.035-.128.232-.157.174-.065.016-.183-.116-.24-.071-.031-.049-.161.017-.146Z"/><path class="cls-6" d="M20.6,26.358l-.031,0c-.041-.024-.045-.048-.042-.063.011-.048.11-.086.274-.1.046-.018.071-.04.072-.068,0-.055-.094-.121-.19-.163a.087.087,0,0,1-.044-.1.059.059,0,0,1,.053-.055.321.321,0,0,1,.216.153.226.226,0,0,1,.018.186.343.343,0,0,1-.326.217Zm.1-.545a.05.05,0,0,0-.051.046.08.08,0,0,0,.039.091c.091.039.2.108.2.172,0,.031-.027.057-.079.076-.158.018-.257.054-.267.1,0,.022.017.041.036.052l.028,0a.334.334,0,0,0,.317-.211.215.215,0,0,0-.018-.178.306.306,0,0,0-.2-.147Z"/><path class="cls-9" d="M20.265,25.761c.066-.075.119.157.134.317s.021.351-.042.361c-.038.006-.006-.18-.045-.352-.052-.2-.074-.292-.047-.326Z"/><path class="cls-6" d="M20.355,26.444c-.022,0-.023-.045-.025-.118a1.26,1.26,0,0,0-.023-.238c-.051-.2-.075-.294-.046-.33a.044.044,0,0,1,.023,0c-.039.048-.014.147.032.327a1.2,1.2,0,0,1,.024.239c0,.056,0,.109.015.109v0c.055-.008.059-.184.038-.355a1.037,1.037,0,0,0-.056-.269.738.738,0,0,1,.065.268c.008.059.039.353-.045.366Z"/><path class="cls-9" d="M20.113,26.048c.166.162-.115.631-.728.426-.035-.064.243,0,.44-.035.373-.059.213-.463.288-.391Z"/><path class="cls-10" d="M19.674,26.53a.928.928,0,0,1-.291-.052l.005-.017a.729.729,0,0,0,.286.059.471.471,0,0,0,.462-.261.186.186,0,0,0-.026-.208c-.017-.008-.017.022-.017.043a.307.307,0,0,1-.268.35.95.95,0,0,1-.153.011h0c-.045,0-.088,0-.128,0l-.087,0c-.015,0-.06,0-.069.011.009-.018.031-.021.069-.021l.088,0a1.31,1.31,0,0,0,.279-.008.3.3,0,0,0,.26-.34c0-.038,0-.06.015-.06a.189.189,0,0,1,.046.229.483.483,0,0,1-.471.267Z"/><path class="cls-9" d="M19.813,25.726c.066-.075.028.164.041.325s0,.336-.074.312c-.039-.019.024-.189-.015-.349-.042-.2,0-.237.048-.288Z"/><path class="cls-6" d="M19.792,26.37l-.014,0c-.021-.01-.017-.05-.011-.111a.729.729,0,0,0-.007-.24c-.042-.2,0-.24.047-.29a.048.048,0,0,1,.018,0c-.063.057-.094.1-.055.285a.713.713,0,0,1,.006.242c0,.053-.009.095.006.1l.01.007.023-.016a.524.524,0,0,0,.034-.3c0-.055,0-.119,0-.177a.837.837,0,0,0,0-.125.308.308,0,0,1,.011.125c0,.058,0,.121,0,.176a.522.522,0,0,1-.037.3l-.03.015Z"/><path class="cls-9" d="M19.392,25.662c.117,0,.086.032.077.348-.009.354-.3.393-.375.3-.059-.076-.038-.1-.3-.073-.059-.03-.057-.094-.25-.078-.05.01-.049-.086-.139-.144-.157-.094-.209.071-.509-.1a.239.239,0,0,1-.118-.242c.023-.194-.153.024-.346-.061a.955.955,0,0,1-.25-.153c-.141-.122.007-.146.2-.022.117.075.29-.1.3-.271s-.08-.231.06-.227c.078,0,.059.32-.073.461-.178.194-.058.156.006.147s.366-.393.417-.361c.078.054-.235.294-.165.522a.482.482,0,0,0,.373.214c.181.03.181-.217.254-.17.1.067-.193.193.116.285.068.021.108-.154.148-.147.1.016-.063.2.11.235.121.02.088-.177.163-.164.087-.006,0,.314.246.282.1-.014-.057-.572.065-.573Z"/><path class="cls-6" d="M19.2,26.357a.137.137,0,0,1-.113-.048c-.066-.091-.07-.093-.3-.071a.174.174,0,0,1-.041-.03c-.033-.029-.067-.06-.209-.048-.033.017-.043-.021-.058-.048a.26.26,0,0,0-.083-.1.243.243,0,0,0-.167-.025c-.066.009-.134.043-.343-.079a.245.245,0,0,1-.12-.247c0-.036,0-.058-.008-.069a.158.158,0,0,0-.091.007.366.366,0,0,1-.243.006.944.944,0,0,1-.252-.153c-.044-.039-.064-.07-.056-.091s.093-.047.259.061c.107.07.283-.1.287-.267a.5.5,0,0,0-.013-.15c-.006-.032-.01-.053,0-.067s.026-.015.061-.015a.051.051,0,0,1,.054.034.53.53,0,0,1-.108.436.448.448,0,0,0-.09.121c0-.025.022-.061.083-.128a.516.516,0,0,0,.106-.425l-.029-.033-.016,0c-.031,0-.047,0-.054.012s0,.029,0,.058a.564.564,0,0,1,.013.153c0,.174-.187.348-.3.274a.423.423,0,0,0-.206-.081c-.041.023-.041.047.015.1a.975.975,0,0,0,.243.149.338.338,0,0,0,.244,0,.26.26,0,0,1,.07-.016.075.075,0,0,1,.041.088.236.236,0,0,0,.115.238.4.4,0,0,0,.336.078.251.251,0,0,1,.174.026.259.259,0,0,1,.086.1c.015.025.025.044.043.044l.065,0a.2.2,0,0,1,.157.053.211.211,0,0,0,.037.028c.229-.024.245-.007.286.05a.14.14,0,0,0,.123.068c.122,0,.255-.106.261-.337l.007-.159c0-.1.007-.149-.011-.169s-.028-.015-.064-.015c-.059.046-.048.173-.038.295.011.139.022.271-.03.278a.206.206,0,0,1-.2-.192c-.011-.051-.033-.1-.046-.09-.033,0-.044.03-.056.065s-.034.1-.092.1c-.121-.019-.111-.093-.1-.152s.009-.078-.026-.084h0c-.015,0-.032.029-.048.058s-.051.091-.088.091c-.095-.027-.142-.056-.157-.092a.126.126,0,0,1,.024-.105c.024-.042.037-.069,0-.091-.035-.005-.048.022-.065.051-.03.052-.07.123-.157.123-.18-.018-.373-.115-.408-.221a.479.479,0,0,1,.115-.375c.045-.069.081-.124.052-.144h0c-.039,0-.14.1-.229.2a.872.872,0,0,1-.183.167.481.481,0,0,1-.07.009.091.091,0,0,1-.017-.017.144.144,0,0,0,.066,0,.67.67,0,0,0,.2-.167c.095-.1.193-.2.231-.2.047.028.011.084-.039.161a.467.467,0,0,0-.113.366c.033.1.222.2.369.211a.17.17,0,0,0,.177-.114c.02-.035.035-.062.059-.062.062.035.041.074.02.111a.118.118,0,0,0-.024.1c.014.033.059.061.138.085.04,0,.067-.044.089-.084s.036-.064.055-.064c.05.008.044.05.037.1-.008.061-.017.124.077.14h0c.064,0,.081-.047.1-.092s.025-.073.056-.073.053.046.064.1c.017.083.038.186.156.186.076-.008.065-.141.054-.269s-.021-.253.015-.293c.066-.012.089-.01.1.006s.019.07.014.175l-.007.159c-.006.238-.145.347-.271.347Z"/><path class="cls-9" d="M17.212,25.246c.07-.015.189-.08.194-.186s-.149-.155-.338-.125A.555.555,0,0,1,16.7,24.8c-.1-.125-.1-.265-.219-.2-.089.04.124.271.229.326s.273.05.283.13-.039.206.219.2Z"/><path class="cls-6" d="M17.184,25.251c-.193,0-.193-.088-.194-.159-.007-.087-.072-.1-.147-.123a.63.63,0,0,1-.135-.045c-.091-.047-.255-.219-.253-.3l.028-.028c-.02.1.141.272.229.317a.612.612,0,0,0,.133.045c.075.019.146.037.153.09,0,.116,0,.192.186.192v0l.028,0c.059-.013.184-.074.189-.181a.089.089,0,0,0-.023-.072.371.371,0,0,0-.31-.048A.539.539,0,0,1,16.7,24.8a.717.717,0,0,1-.074-.121c-.039-.075-.066-.121-.139-.084a.065.065,0,0,1,.047-.023c.047,0,.07.045.1.1a.74.74,0,0,0,.072.119.6.6,0,0,0,.334.136,1.318,1.318,0,0,1,.146-.012.274.274,0,0,1,.2.062.1.1,0,0,1,.026.079c-.005.1-.119.173-.2.19Z"/><path class="cls-9" d="M21.444,25.785c-.038.019-.069.369.148.377a.662.662,0,0,0,.478-.179c.113-.087.317-.261.223-.411-.047-.055-.074.1-.128.19a.636.636,0,0,1-.524.269c-.238-.015-.148-.258-.2-.246Z"/><path class="cls-6" d="M21.62,26.167h-.028c-.088,0-.148-.063-.171-.169s0-.205.021-.217.024.022.026.053c.006.068.014.182.174.192a.661.661,0,0,0,.519-.266.876.876,0,0,0,.047-.1c.023-.057.041-.1.066-.1l.012.018c-.033,0-.05.039-.069.086a.839.839,0,0,1-.048.105.652.652,0,0,1-.491.273c-.205-.012-.214-.137-.219-.2,0-.024,0-.045-.011-.045A.3.3,0,0,0,21.43,26c.016.071.056.158.162.161l.028,0v0A.622.622,0,0,0,22.039,26c.19-.146.276-.258.273-.351.011.1-.072.209-.239.338a.686.686,0,0,1-.453.18Z"/><path class="cls-9" d="M22.005,25.623c-.056-.043.123-.112.141-.177s-.078-.128-.025-.2c.057-.094.061.179.133.186.2.021.057.152-.018.127s-.2.095-.231.064Z"/><path class="cls-6" d="M22.018,25.633,22,25.626a.057.057,0,0,1,0-.022l.02.019a.19.19,0,0,0,.068-.028.279.279,0,0,1,.123-.045l.047.007c.043,0,.093-.036.094-.067s-.034-.046-.1-.053c-.038,0-.057-.069-.074-.126a.348.348,0,0,0-.026-.071c.018.009.026.036.035.068.015.052.034.116.065.119.095.011.108.045.107.064,0,.037-.056.075-.1.075l-.047-.006a.271.271,0,0,0-.119.044.189.189,0,0,1-.072.029ZM22,25.6c0-.03.031-.05.061-.073s.074-.056.082-.083a.122.122,0,0,0-.019-.08c-.019-.038-.038-.077-.005-.121l.021-.006a.1.1,0,0,0-.008.123.125.125,0,0,1,.02.087c-.009.03-.048.059-.085.088S22,25.582,22,25.6Z"/><path class="cls-9" d="M21.85,25.21c-.013.091.042.113.057.061.02-.1-.035-.143-.057-.061Z"/><path class="cls-1" d="M21.85,25.21c-.013.091.042.113.057.061C21.927,25.174,21.872,25.128,21.85,25.21Z"/><path class="cls-9" d="M22,25.115c-.033,0-.037.116,0,.119s.024.08.062.08.049-.13,0-.131-.037-.067-.065-.068Z"/><path class="cls-6" d="M22.061,25.318h0l-.028-.039c-.006-.02-.01-.039-.031-.04s-.034-.036-.034-.064.009-.063.029-.064c.035.048.042.067.066.067s.042.035.042.069-.014.071-.04.071Zm-.068-.183c-.014,0-.019.019-.019.04s.008.053.026.054.034.028.039.047l.022.038v0c.021,0,.031-.033.031-.063s-.01-.057-.032-.058-.039-.025-.047-.044a.037.037,0,0,0-.02-.009Z"/><path class="cls-9" d="M22.356,25.094c-.038.049-.11-.189.134-.223.116.011.216.2.205.39a.945.945,0,0,1-.044.3c-.031.073-.144.311-.2.29s.014-.12.106-.258a.777.777,0,0,0,.064-.483c-.037-.056-.075.137-.153.179s-.134-.065-.144-.114.044-.092.079-.024c.028.051.114-.051.112-.123,0-.117-.075-.024-.161.066Z"/><path class="cls-6" d="M22.46,25.857h-.009a.09.09,0,0,1-.008-.021l.017.013c.049,0,.147-.2.187-.289a.851.851,0,0,0,.042-.269c.012-.213-.088-.4-.2-.414-.131.018-.173.1-.169.167,0,.031.015.053.024.053.08-.082.123-.128.15-.128a.058.058,0,0,1,.026.06.177.177,0,0,1-.05.116.071.071,0,0,1-.045.025c-.037-.039-.051-.051-.065-.051-.029.021-.033.038-.03.057.008.04.058.116.111.116a.238.238,0,0,0,.113-.125c.021-.041.036-.071.054-.071a.056.056,0,0,1,.012.02l0,0c-.021-.008-.039.026-.056.058a.28.28,0,0,1-.091.123.158.158,0,0,1-.15-.117.065.065,0,0,1,.012-.054c.038-.014.057-.008.075.026l.055-.011a.171.171,0,0,0,.048-.109.078.078,0,0,0-.009-.047c-.032-.009-.075.043-.121.093l-.037.031c-.017,0-.031-.026-.033-.062-.005-.072.039-.157.178-.177.119.011.221.2.21.395a.9.9,0,0,1-.045.3s-.125.294-.2.294Zm-.018-.057a.57.57,0,0,1,.1-.193.862.862,0,0,0,.086-.469.769.769,0,0,1-.067.457,1.141,1.141,0,0,0-.12.205Z"/><path class="cls-9" d="M22.883,24.564c-.031.045-.137.145-.157.187a.218.218,0,0,0,.01.182.543.543,0,0,1,.093.28c-.014.1-.083.307-.045.289a.527.527,0,0,0,.109-.375c-.02-.156-.092-.242-.078-.294s.1-.148.116-.213a.464.464,0,0,0-.034-.255c-.024-.014-.11.017-.082.075s.085.024.068.124Z"/><path class="cls-6" d="M22.78,25.508l-.008,0c-.011-.014,0-.07.023-.159.012-.048.024-.1.029-.133a.434.434,0,0,0-.073-.24.25.25,0,0,1-.029-.223.645.645,0,0,1,.089-.109.861.861,0,0,0,.068-.078c.01-.057-.006-.066-.027-.078a.1.1,0,0,1-.041-.041.051.051,0,0,1,0-.051.091.091,0,0,1,.07-.035c.045.019.07.2.054.264a.513.513,0,0,1-.065.12.408.408,0,0,0-.051.094.179.179,0,0,0,.023.1.765.765,0,0,1,.055.193.531.531,0,0,1-.112.381Zm.106-1.139a.078.078,0,0,0-.066.029c.009.061.023.069.036.077s.043.025.032.09a.618.618,0,0,1-.07.081.7.7,0,0,0-.087.107.206.206,0,0,0,.01.178.522.522,0,0,1,.092.282c0,.037-.016.086-.028.135a.472.472,0,0,0-.025.151h0a.539.539,0,0,0,.107-.371.751.751,0,0,0-.055-.19.192.192,0,0,1-.024-.105.415.415,0,0,1,.053-.1.473.473,0,0,0,.063-.118.465.465,0,0,0-.032-.249Z"/><path class="cls-9" d="M23.024,24.645c-.038.035-.019.227.033.159s0-.19-.033-.159Z"/><path class="cls-1" d="M23.024,24.645c-.038.035-.019.227.033.159S23.055,24.614,23.024,24.645Z"/><path class="cls-9" d="M22.019,26.071c-.017.085.065.111.087.063.027-.09-.055-.138-.087-.063Z"/><path class="cls-1" d="M22.019,26.071c-.017.085.065.111.087.063C22.133,26.044,22.051,26,22.019,26.071Z"/><path class="cls-9" d="M22.145,26c-.027.069.092.075.126.036.04-.074-.079-.1-.126-.036Z"/><path class="cls-6" d="M22.2,26.066a.072.072,0,0,1-.062-.025.15.15,0,0,1,.01-.03c.022.08.093.046.114.021-.01-.105-.075-.067-.106-.039a.069.069,0,0,1,.119-.007.053.053,0,0,1,0,.053.1.1,0,0,1-.072.027Z"/><path class="cls-6" d="M17.2,25.005c-.064-.029-.06.1-.029.136s.2-.055.029-.136Z"/><path class="cls-6" d="M17.19,25.153h0l-.026-.009a.144.144,0,0,1-.014-.125L17.2,25c.074.034.083.068.078.091a.094.094,0,0,1-.087.061Zm0-.143a.1.1,0,0,0-.024.127l.019.007h0a.087.087,0,0,0,.077-.054c.007-.028-.018-.055-.072-.08Z"/><path class="cls-6" d="M20.006,17.918c-.64.13-1.078.508-.872.636.126.085.717-.148.842-.346a1.087,1.087,0,0,0,.992.4Z"/><path d="M20.838,18.689a1.249,1.249,0,0,1-.864-.392,1.445,1.445,0,0,1-.632.315A.327.327,0,0,1,19.1,18.6a.149.149,0,0,1-.072-.16c.038-.214.48-.477.964-.576a.057.057,0,0,1,.065.044.056.056,0,0,1-.043.064c-.5.1-.856.356-.879.487,0,.018,0,.033.024.049a.271.271,0,0,0,.158,0,1.221,1.221,0,0,0,.611-.326l.045-.072.046.071a1.054,1.054,0,0,0,.921.385.055.055,0,0,1,.051.1.353.353,0,0,1-.156.029Z"/><path class="cls-6" d="M16.69,17.711a1.884,1.884,0,0,0,1.051.594,8.121,8.121,0,0,0,1.467.136c.173-.077.665-.418.79-.36a4.2,4.2,0,0,0,1.129.458,10.8,10.8,0,0,0,2.074-.6c.057-.1-.348-.35-.608-.35s-5.9.136-5.9.126Z"/><path class="cls-6" d="M18.226,18.515c0,.1.079.171.261.173a1.6,1.6,0,0,0,1.13-.489Z"/><path d="M18.505,18.743h-.019c-.278,0-.312-.158-.314-.226a.054.054,0,0,1,.052-.056c.047,0,.055.023.056.053,0,.078.072.119.207.12a1.583,1.583,0,0,0,1.089-.471.055.055,0,0,1,.081.073,1.657,1.657,0,0,1-1.152.508Z"/><path class="cls-6" d="M17.31,18.367c-.016.083.121.193.388.2a2.779,2.779,0,0,0,1.5-.427Z"/><path d="M17.707,18.618H17.7a.546.546,0,0,1-.406-.14.149.149,0,0,1-.035-.121.053.053,0,0,1,.063-.044.055.055,0,0,1,.044.064.042.042,0,0,0,.012.031.441.441,0,0,0,.323.1,2.829,2.829,0,0,0,1.458-.41.054.054,0,0,1,.076,0,.055.055,0,0,1,0,.078,2.815,2.815,0,0,1-1.528.444Z"/><path class="cls-6" d="M16.68,18.114c-.143.186.312.253.586.25a2.633,2.633,0,0,0,1.3-.245Z"/><path d="M17.266,18.418c-.094,0-.57-.008-.654-.18a.141.141,0,0,1,.025-.157.053.053,0,0,1,.076-.01.054.054,0,0,1,.009.077c-.02.027-.015.037-.013.041.033.067.3.118.556.12a2.633,2.633,0,0,0,1.264-.234.055.055,0,0,1,.065.088,2.626,2.626,0,0,1-1.314.255Z"/><path class="cls-6" d="M16.18,17.8c-.137.183.323.344.882.331a4.016,4.016,0,0,0,1.04-.193Z"/><path d="M17,18.188c-.386,0-.8-.084-.886-.253a.153.153,0,0,1,.018-.166.054.054,0,0,1,.076-.011.055.055,0,0,1,.011.077.042.042,0,0,0-.008.049,1.208,1.208,0,0,0,.846.194,3.933,3.933,0,0,0,1.023-.19.055.055,0,0,1,.035.1,4.024,4.024,0,0,1-1.056.2Z"/><path class="cls-6" d="M21.718,18.515c0,.1-.078.171-.26.173a1.6,1.6,0,0,1-1.13-.489Z"/><path d="M21.439,18.743a1.66,1.66,0,0,1-1.152-.508.055.055,0,0,1,.081-.073,1.6,1.6,0,0,0,1.089.471c.135,0,.2-.042.207-.12,0-.03.014-.05.056-.053a.055.055,0,0,1,.053.056c0,.068-.037.224-.315.226Z"/><path class="cls-6" d="M22.634,18.367c.016.083-.12.193-.387.2a2.776,2.776,0,0,1-1.5-.427Z"/><path d="M22.238,18.618a2.813,2.813,0,0,1-1.528-.444.054.054,0,1,1,.078-.076,2.707,2.707,0,0,0,1.458.41.436.436,0,0,0,.322-.1.077.077,0,0,1,.05-.08c.029,0,.064,0,.07.029a.15.15,0,0,1-.036.121.543.543,0,0,1-.405.14Z"/><path class="cls-6" d="M23.261,18.118c.143.186-.309.249-.582.246a2.631,2.631,0,0,1-1.295-.245Z"/><path d="M22.693,18.418h-.015a2.646,2.646,0,0,1-1.327-.255.055.055,0,0,1,.065-.088,2.606,2.606,0,0,0,1.25.234.85.85,0,0,0,.566-.116.084.084,0,0,1,0-.1c.023-.018.051-.035.069-.01a.143.143,0,0,1,.026.157c-.083.167-.535.176-.637.176Z"/><path class="cls-6" d="M23.766,17.8c.137.183-.324.347-.884.334a4,4,0,0,1-1.039-.193Z"/><path d="M22.94,18.188h-.059a4.046,4.046,0,0,1-1.056-.2.056.056,0,0,1-.034-.07.055.055,0,0,1,.069-.034,3.945,3.945,0,0,0,1.024.19,1.218,1.218,0,0,0,.847-.2c.006-.012.009-.026-.008-.05a.055.055,0,0,1,.011-.077.054.054,0,0,1,.076.011.152.152,0,0,1,.018.166c-.087.171-.5.256-.888.256Z"/><path class="cls-6" d="M17.278,17.785a2.269,2.269,0,0,1-1.18-.018c-.177-.078-.481-.318-.032-.327.3-.005.446.018.784.016a17.773,17.773,0,0,0,2.489-.7c.351,0,.444.161.644.164s.272-.167.623-.164a17.773,17.773,0,0,0,2.489.7c.337,0,.487-.021.784-.016.448.009.145.249-.033.327a2.264,2.264,0,0,1-1.179.018Z"/><path d="M23.355,17.9a4.814,4.814,0,0,1-.7-.059.054.054,0,0,1-.046-.062.052.052,0,0,1,.061-.046,2.2,2.2,0,0,0,1.149-.013c.133-.059.238-.157.235-.188h0s-.023-.032-.18-.035-.265,0-.386.007-.234.008-.4.009a5.642,5.642,0,0,1-1.717-.461,3.3,3.3,0,0,0-.772-.242.859.859,0,0,0-.375.093.473.473,0,0,1-.247.072.583.583,0,0,1-.247-.071.828.828,0,0,0-.4-.094,3.309,3.309,0,0,0-.771.242,5.64,5.64,0,0,1-1.718.461c-.161,0-.284,0-.4-.009s-.234-.01-.386-.007-.181.036-.181.036c0,.03.1.128.234.186a2.179,2.179,0,0,0,1.15.014.052.052,0,0,1,.062.046.054.054,0,0,1-.046.062,2.3,2.3,0,0,1-1.211-.022c-.09-.04-.322-.175-.295-.308.021-.106.172-.121.285-.123.154,0,.27,0,.392.006s.228.011.393.009a5.58,5.58,0,0,0,1.679-.454,3.2,3.2,0,0,1,.809-.248,1.032,1.032,0,0,1,.443.1.479.479,0,0,0,.2.061.763.763,0,0,0,.2-.06.908.908,0,0,1,.424-.1,3.2,3.2,0,0,1,.81.248A5.543,5.543,0,0,0,23.1,17.4c.167,0,.281,0,.393-.009s.238-.01.392-.006c.112,0,.264.017.285.123.026.134-.2.268-.3.309a1.212,1.212,0,0,1-.513.08Z"/><path class="cls-6" d="M19.97,15.209c-.334.016-.794-.041-.942.335-.225.431-.162.919-.061.929.181.021.2-.488.276-.488s.08.441.238.437c.118,0,.192-.444.228-.44s.115.423.263.423.227-.42.263-.423.112.437.229.44c.158,0,.158-.438.239-.437s.111.5.292.485c.1-.01.151-.495-.074-.926-.148-.376-.618-.319-.951-.335Z"/><path d="M18.978,16.529h-.017a.118.118,0,0,1-.088-.071,1.212,1.212,0,0,1,.107-.939c.137-.349.523-.355.834-.36.053,0,.105,0,.154,0s.105,0,.159,0c.314.005.705.012.844.366a1.211,1.211,0,0,1,.115.932.109.109,0,0,1-.086.068h0c-.158,0-.218-.2-.266-.353-.011-.036-.025-.083-.037-.112a.365.365,0,0,1-.017.105c-.036.14-.081.313-.213.313s-.175-.187-.227-.348l0-.012c-.049.141-.121.343-.264.343s-.209-.2-.261-.346l0,.015c-.052.161-.11.345-.223.348-.136,0-.181-.173-.217-.313-.007-.03-.018-.07-.028-.1a.432.432,0,0,1-.019.106c-.043.159-.1.358-.241.358Zm.99-1.266c-.045,0-.1,0-.152.005-.307,0-.625.01-.738.3a1.038,1.038,0,0,0-.1.857l0,0c.061,0,.11-.18.136-.277.034-.127.057-.211.128-.212s.1.092.13.207c.02.081.059.231.107.231s.1-.2.124-.273c.038-.119.053-.168.106-.168s.067.046.1.146c.029.083.1.278.16.278s.137-.2.165-.283.047-.136.093-.141.075.049.113.169c.023.071.083.259.124.272s.086-.151.107-.232c.029-.115.053-.206.129-.206s.095.084.134.209c.031.1.084.276.147.276a1.076,1.076,0,0,0-.111-.845c-.116-.292-.452-.3-.748-.3-.055,0-.108,0-.157-.005Z"/><path class="cls-6" d="M19.167,15.363c.09.152.791.148.83.148s.65.007.794-.141Z"/><path d="M20.019,15.566H20c-.3,0-.786-.023-.876-.176l.094-.055a1.472,1.472,0,0,0,.774.122h.023a1.4,1.4,0,0,0,.741-.125l.078.077a1.471,1.471,0,0,1-.811.157Z"/><path class="cls-6" d="M19.844,13.775v1.5s.008.084.131.087.142-.071.142-.082l-.005-1.509Z"/><path d="M19.981,15.417h-.007a.168.168,0,0,1-.184-.136V13.775H19.9v1.5h0s.011.03.078.032.087-.032.087-.033l-.006-1.5h.109l.006,1.509a.126.126,0,0,1-.041.084.2.2,0,0,1-.15.052Z"/><path class="cls-6" d="M19.988,13.949c.56-.029.727.3.885.377a.73.73,0,0,0,.446.087c.216-.014-.374.363-.374.377l.216.392a1.467,1.467,0,0,1-.733-.262A.843.843,0,0,0,20,14.863Z"/><path d="M21.116,15.239a1.663,1.663,0,0,1-.718-.273.583.583,0,0,0-.308-.049l-.061,0-.043-.009-.043-.048-.01-.966.123-.005a.989.989,0,0,1,.719.293.664.664,0,0,0,.121.091.679.679,0,0,0,.419.082h0c.075,0,.094.032.1.052.022.069-.051.143-.356.361l-.046.033.232.421-.131.014Zm-.94-.435a.526.526,0,0,1,.28.069,1.712,1.712,0,0,0,.613.254l-.171-.31c-.007-.059,0-.062.1-.136.061-.044.2-.145.273-.211a.7.7,0,0,1-.421-.094.693.693,0,0,1-.147-.109A.885.885,0,0,0,20.056,14h-.013l.008.806h.032c.028,0,.06,0,.093,0Z"/><path class="cls-6" d="M20.3,13.492a.324.324,0,1,1-.324-.312.318.318,0,0,1,.324.312Z"/><path d="M19.975,13.84a.348.348,0,1,1,.36-.348.354.354,0,0,1-.36.348Zm0-.623a.275.275,0,1,0,.288.275.282.282,0,0,0-.288-.275Z"/><path class="cls-9" d="M16.512,20.948c-.043.06-.08-.1-.226.012-.083.072-.116.181-.116.41,0,.193.111.323.175.31.1-.013.048-.25.154-.293a.321.321,0,0,1,.41.181c.038.142-.073.3-.192.28-.068-.026.038-.125.047-.168s.021-.185-.081-.224-.086.1-.09.142-.077.159-.158.155a.427.427,0,0,1-.337-.142.534.534,0,0,1-.077-.5c.073-.241.2-.263.265-.267s.243.038.226.108Z"/><path class="cls-6" d="M16.735,21.857h-.019a.1.1,0,0,1,.011-.125.242.242,0,0,0,.029-.053c0-.007.033-.173-.076-.215-.072,0-.077.051-.078.11s-.077.189-.163.189a.442.442,0,0,1-.347-.145.549.549,0,0,1-.079-.512c.071-.235.189-.269.272-.273a.287.287,0,0,1,.224.074v0l.01.045h-.066a.13.13,0,0,0-.162.014c-.082.071-.113.18-.113.4,0,.188.1.3.158.3s.063-.065.075-.128.027-.141.085-.165a.338.338,0,0,1,.421.187.251.251,0,0,1-.044.214.177.177,0,0,1-.138.077Zm-.084-.416a.206.206,0,0,1,.12.241.166.166,0,0,1-.031.058c-.019.029-.043.066-.037.086l.032.015a.162.162,0,0,0,.125-.071.237.237,0,0,0,.041-.2.317.317,0,0,0-.4-.176c-.05.021-.063.088-.076.154s-.026.133-.081.14h0c-.079,0-.183-.127-.184-.318,0-.228.032-.341.119-.416a.147.147,0,0,1,.18-.014c0-.065-.106-.092-.165-.092s-.192.011-.267.261a.53.53,0,0,0,.075.5.412.412,0,0,0,.319.139h0c.09,0,.157-.113.161-.147,0-.071,0-.156.066-.156Z"/><path class="cls-9" d="M16.337,21.951c-.071-.038.027-.178-.158-.129-.074.021.111.237.192.246.09-.009.065-.068-.034-.117Z"/><path class="cls-6" d="M16.371,22.076h0a.382.382,0,0,1-.216-.226c.05-.043.071-.046.089-.046.061,0,.066.04.069.076s.006.052.029.064c.063.032.1.067.093.1,0,.014-.015.031-.062.036Zm-.128-.256a.238.238,0,0,0-.062.01.317.317,0,0,0,.19.229c.028,0,.045-.01.047-.022s-.022-.047-.085-.078a.089.089,0,0,1-.037-.077c0-.036-.006-.062-.053-.062Z"/><path class="cls-9" d="M16.533,22.068c.039.176.075.161.081.249,0,.113-.187.065-.213.117s-.06.185.064.194.3-.04.337.047a.284.284,0,0,0,.4.171c.108-.044.364-.276.422-.3.086-.032-.081-.1-.18-.008-.025.025-.239.245-.349.249-.082.009-.207-.2-.2-.271.008-.052.2-.009.222-.117.02-.076.021-.159-.039-.163s-.341.035-.349-.009c-.052-.125.051-.176.012-.211-.043-.017-.2-.043-.2.048Z"/><path class="cls-6" d="M17.063,22.881a.28.28,0,0,1-.269-.2c-.018-.045-.1-.051-.208-.044l-.086,0c-.075,0-.1-.019-.118-.046a.193.193,0,0,1,.012-.161c.012-.024.049-.029.091-.035.061-.008.123-.016.121-.077a.189.189,0,0,0-.024-.083.569.569,0,0,1-.056-.166c0-.048.041-.074.11-.074a.316.316,0,0,1,.105.018c.023.02.013.041,0,.066a.163.163,0,0,0-.009.149s.006.016.087.016c.046,0,.1,0,.152-.007s.071,0,.091,0a.061.061,0,0,1,.055.023.207.207,0,0,1,0,.151c-.018.068-.092.08-.152.089-.035.006-.068.011-.07.026a.4.4,0,0,0,.1.209.134.134,0,0,0,.084.053.738.738,0,0,0,.346-.245c.117-.1.213-.052.22-.012-.054.04-.12.091-.19.146a1.469,1.469,0,0,1-.261.181.377.377,0,0,1-.14.028Zm-.395-.267c.054,0,.12.007.142.058a.269.269,0,0,0,.387.166,1.471,1.471,0,0,0,.257-.179,1.074,1.074,0,0,1,.165-.117c.027-.033-.06-.093-.171.006-.093.094-.259.248-.355.252h0a.152.152,0,0,1-.1-.058.4.4,0,0,1-.108-.223c0-.027.041-.033.084-.04.058-.009.123-.02.138-.078a.187.187,0,0,0,0-.137l-.042-.016c-.02,0-.053,0-.09,0-.121.008-.25.012-.256-.02a.183.183,0,0,1,.01-.161c.013-.026.016-.036.006-.046-.037-.014-.187-.047-.191.042a.626.626,0,0,0,.054.16.191.191,0,0,1,.026.089c0,.076-.073.086-.135.094-.036,0-.071.01-.079.026a.182.182,0,0,0-.012.146.079.079,0,0,0,.07.036.975.975,0,0,0,.118,0l.084,0Z"/><path class="cls-9" d="M17.482,22.753c-.09.095-.328.248-.328.356a.246.246,0,0,0,.122.18.323.323,0,0,0,.3-.05c.108-.089.157-.179.111-.2-.164-.047-.168.18-.246.187s-.189-.115-.039-.266.356-.3.349-.346-.206.068-.271.134Z"/><path class="cls-6" d="M17.377,23.315a.264.264,0,0,1-.1-.019.251.251,0,0,1-.127-.187c0-.08.117-.178.22-.264.043-.036.083-.07.11-.1a.631.631,0,0,1,.261-.145.034.034,0,0,1,.007.019h0a.583.583,0,0,0-.255.137c-.027.029-.068.063-.111.1-.1.08-.215.179-.215.251a.236.236,0,0,0,.117.172.322.322,0,0,0,.294-.049c.089-.072.13-.139.125-.167l-.051-.019c-.066,0-.1.059-.126.111s-.043.079-.077.083h0a.125.125,0,0,1-.112-.078c-.015-.036-.026-.11.066-.2.058-.058.124-.116.183-.168a.857.857,0,0,0,.164-.164c0,.041-.059.092-.153.176-.059.052-.125.11-.183.168-.084.086-.075.152-.062.185a.108.108,0,0,0,.09.068c.031,0,.049-.036.07-.075s.065-.119.14-.119l.044.006c.03.066-.022.139-.108.209a.337.337,0,0,1-.206.07Z"/><path class="cls-9" d="M17.094,23.386c-.007.061.153.061.182.007s-.175-.068-.182-.007Z"/><path class="cls-6" d="M17.175,23.441h0a.116.116,0,0,1-.08-.025c-.012-.108.16-.086.187-.039a.1.1,0,0,1-.107.064Zm0-.082c-.032,0-.067.008-.069.028a.074.074,0,0,0,.073.037h0a.108.108,0,0,0,.093-.035c-.007-.016-.05-.03-.1-.03Z"/><path class="cls-9" d="M17.633,23.426c-.091.1.01.2.079.293a.515.515,0,0,0,.181.116.4.4,0,0,0,.341-.053c.108-.089.116-.244.051-.245-.17,0-.052.228-.13.235a.437.437,0,0,1-.388-.261c-.058-.128.108-.153.083-.209s-.153.058-.217.124Z"/><path class="cls-6" d="M18,23.861a.3.3,0,0,1-.111-.018.522.522,0,0,1-.184-.119c-.084-.106-.167-.211-.079-.3.064-.065.15-.143.2-.143.045.05.021.07,0,.092s-.079.067-.046.139a.436.436,0,0,0,.367.256c.035,0,.036-.032.035-.08a.18.18,0,0,1,.03-.129c.028-.029.1-.047.122.01a.234.234,0,0,1-.09.223.394.394,0,0,1-.238.073Zm-.173-.557c-.049,0-.112.048-.19.127s0,.177.063.26a.51.51,0,0,0,.2.137.415.415,0,0,0,.333-.053.216.216,0,0,0,.085-.2c-.061-.025-.081-.019-.1,0a.171.171,0,0,0-.025.117c0,.048,0,.093-.038.1h0a.448.448,0,0,1-.394-.265.121.121,0,0,1,.05-.159c.026-.022.04-.035.033-.05l-.015,0Z"/><path class="cls-9" d="M18.073,23.417c.035.05.155-.057.14-.116-.01-.044-.175.066-.14.116Z"/><path class="cls-6" d="M18.1,23.438h0l-.036-.02,0-.043a.207.207,0,0,1,.131-.093.074.074,0,0,1,0,.095.15.15,0,0,1-.1.061Z"/><path class="cls-9" d="M18.312,23.872c-.005.07.016.165-.066.168s-.185-.108-.266-.105-.116.067-.107.1.15.076.392.06.188.132.357.12.2-.07.182-.108-.156-.012-.21-.022a.258.258,0,0,1-.16-.168c-.012-.073-.012-.2.051-.2.116,0,.062.106.067.144s.041.069.092.008a.182.182,0,0,0-.034-.253c-.066-.045-.286.082-.3.253Z"/><path class="cls-6" d="M18.6,24.226a.166.166,0,0,1-.128-.056A.223.223,0,0,0,18.3,24.1c-.072,0-.106.005-.138.005-.162,0-.286-.03-.3-.07a.079.079,0,0,1,.016-.064.122.122,0,0,1,.1-.048h0a.3.3,0,0,1,.138.053.294.294,0,0,0,.126.052c.056,0,.06-.046.06-.116a.335.335,0,0,1,.273-.315.172.172,0,0,1,.111.138.176.176,0,0,1-.036.138.082.082,0,0,1-.06.036h0a.051.051,0,0,1-.048-.048c.009-.065.014-.1,0-.119a.065.065,0,0,0-.053-.018.2.2,0,0,0-.046.19.25.25,0,0,0,.154.161h.125c.043,0,.083,0,.091.028a.062.062,0,0,1-.007.053c-.024.036-.085.058-.182.065Zm-.332-.138a.262.262,0,0,1,.215.07.153.153,0,0,0,.117.051v.009l.019-.01c.114-.008.155-.035.169-.058,0-.049-.023-.054-.07-.054h-.047l-.081,0a.264.264,0,0,1-.167-.174.291.291,0,0,1,.02-.19l.042-.019a.082.082,0,0,1,.066.024c.021.024.014.063.009.094,0,.09.037.082.075.037a.156.156,0,0,0,.033-.125.179.179,0,0,0-.065-.117.307.307,0,0,0-.286.247c0,.105,0,.173-.074.176h0A.3.3,0,0,1,18.109,24a.287.287,0,0,0-.126-.052.108.108,0,0,0-.089.042.06.06,0,0,0-.013.049c.006.024.129.072.384.054Z"/><path class="cls-9" d="M18.911,23.884c-.012.126-.1.135-.091.181a.8.8,0,0,1,.066.2c.012.065.091.092.191.086.082,0,.138-.115.192-.111.075,0,.013.176.188.174.141,0,.175-.123.226-.127s.043.143.16.143.166-.133.219-.136.057.142.229.133a.751.751,0,0,0,.342-.07c.041-.035.06-.149.116-.155s.145.107.223.107.241-.2.292-.2.091.123.2.123c.175,0,.2-.233.278-.244.147-.015.153-.075.161-.091a.946.946,0,0,0-.035-.347c-.016-.05-.2-.473-.288-.482s-.06.113-.01.186.308.412.273.51-.217-.041-.36-.041c-.2,0-.323.409-.465.424-.062.007-.128-.054-.107-.1.041-.063.088-.216-.069-.193s-.317.095-.291.181.119.17.016.205a.749.749,0,0,1-.371.016c-.088-.029-.034-.228-.088-.228s-.062.234-.147.24a.161.161,0,0,1-.179-.094c-.019-.067.032-.149-.025-.158s-.113.262-.2.256-.088-.026-.139-.079.045-.238-.04-.254-.17.272-.226.269-.141-.006-.166-.063a1.43,1.43,0,0,1-.006-.279c0-.034-.082-.019-.076.019Z"/><path class="cls-6" d="M19.843,24.437a.136.136,0,0,1-.123-.1c-.012-.025-.022-.044-.036-.044s-.031.017-.05.037a.231.231,0,0,1-.177.089.135.135,0,0,1-.148-.118c-.011-.035-.018-.055-.041-.055-.011.018-.046.02-.071.044a.2.2,0,0,1-.12.066c-.115,0-.188-.033-.2-.092a.452.452,0,0,0-.045-.148.228.228,0,0,1-.021-.051c-.005-.023.01-.039.028-.056a.189.189,0,0,0,.063-.128c.02-.039.04-.045.056-.045l.036.027a1.413,1.413,0,0,0,0,.276c.022.051.1.055.155.058h0c.025,0,.057-.059.085-.11.043-.078.088-.16.138-.16s.054.077.046.14c-.006.047-.012.1.007.117.053.059.064.071.133.076h0c.042,0,.078-.075.11-.142s.054-.114.084-.114c.046.007.041.046.036.084a.215.215,0,0,0,0,.08.144.144,0,0,0,.151.09c.06,0,.081-.072.1-.132s.034-.11.067-.11.035.043.038.093.009.122.053.136a.762.762,0,0,0,.365-.016.057.057,0,0,0,.039-.029c.01-.023-.008-.056-.027-.092a.441.441,0,0,1-.033-.074.075.075,0,0,1,.01-.063.451.451,0,0,1,.288-.128c.067,0,.1.011.108.035a.193.193,0,0,1-.031.17c.022.067.058.086.09.086.069-.006.128-.091.19-.181.079-.114.169-.243.285-.243a.576.576,0,0,1,.183.044c.083.029.153.049.169,0,.029-.083-.169-.359-.243-.464l-.028-.039a.2.2,0,0,1-.04-.174.048.048,0,0,1,.047-.026c.1.01.29.444.3.488a.949.949,0,0,1,.034.353c-.011.029-.031.083-.168.1-.028,0-.05.041-.076.085-.041.07-.092.158-.2.16a.2.2,0,0,1-.148-.083c-.021-.022-.038-.041-.055-.041a.382.382,0,0,0-.109.081c-.064.057-.137.122-.184.122a.256.256,0,0,1-.129-.061.2.2,0,0,0-.089-.047c-.033,0-.053.044-.071.083a.223.223,0,0,1-.045.07.73.73,0,0,1-.346.072h0a.194.194,0,0,1-.185-.094c-.015-.021-.027-.038-.043-.039s-.037.022-.06.046a.22.22,0,0,1-.159.09Zm-.161-.159c.027,0,.039.025.053.054s.043.089.108.089a.209.209,0,0,0,.147-.085c.025-.027.047-.05.072-.051s.039.022.056.045a.17.17,0,0,0,.157.088.778.778,0,0,0,.353-.068.214.214,0,0,0,.04-.065c.021-.043.042-.088.08-.092a.233.233,0,0,1,.1.049.238.238,0,0,0,.12.058c.041,0,.114-.065.173-.117s.095-.084.118-.085h0c.026,0,.046.021.069.045a.185.185,0,0,0,.136.078c.1,0,.147-.081.188-.151.028-.048.052-.088.088-.093.128-.013.145-.06.152-.079a.886.886,0,0,0-.032-.348c-.018-.056-.2-.469-.281-.477a.127.127,0,0,0,0,.173l.028.04c.137.192.274.4.246.478-.02.057-.1.04-.19.007a.585.585,0,0,0-.178-.043c-.107,0-.195.126-.271.236-.065.093-.126.181-.193.188a.116.116,0,0,1-.109-.054.057.057,0,0,1-.006-.056.187.187,0,0,0,.031-.154.066.066,0,0,0-.063-.029.459.459,0,0,0-.3.123.058.058,0,0,0-.008.049.4.4,0,0,0,.031.071c.021.039.04.076.028.106a.07.07,0,0,1-.049.039.777.777,0,0,1-.375.016c-.054-.018-.06-.092-.064-.151-.007-.093-.047-.064-.073.021-.021.065-.044.139-.095.143h0c-.1,0-.167-.04-.183-.1a.2.2,0,0,1,0-.087c.005-.044.005-.062-.018-.066h0c-.021,0-.048.056-.071.105-.036.075-.073.152-.122.152a.145.145,0,0,1-.128-.06.168.168,0,0,1-.031-.152c.009-.068.012-.114-.025-.121h0c-.046,0-.091.084-.128.151s-.066.119-.095.119c-.063,0-.149-.008-.175-.068a1.765,1.765,0,0,1-.007-.284l-.054,0a.229.229,0,0,1-.072.154c-.018.018-.027.027-.024.041a.243.243,0,0,0,.019.047.473.473,0,0,1,.047.153c.009.05.067.079.157.079a.19.19,0,0,0,.135-.063c.027-.024.053-.048.08-.048s.048.034.058.068a.119.119,0,0,0,.13.106.215.215,0,0,0,.168-.085c.021-.023.039-.041.06-.042Z"/><path class="cls-9" d="M21.763,23.109c.154.236.293.555.379.573.057.008-.179-.428-.257-.526s-.255-.253-.122-.047Z"/><path class="cls-6" d="M22.144,23.69h0c-.06-.012-.136-.146-.231-.317-.049-.085-.1-.178-.154-.26s-.051-.1-.046-.107c.048-.013.141.084.181.146a1.8,1.8,0,0,1,.266.53l-.013.008Zm-.42-.675s0,.014.045.089.106.175.155.261c.085.153.166.3.219.308a2.056,2.056,0,0,0-.265-.511.435.435,0,0,0-.154-.147Z"/><path class="cls-9" d="M18.9,23.684c-.023.057-.015.112.025.105s.09-.105.077-.124a.065.065,0,0,0-.1.019Z"/><path class="cls-6" d="M18.914,23.8l-.029-.015a.12.12,0,0,1,0-.1c.048-.082.1-.042.116-.02-.015.075-.049.129-.081.135Z"/><path class="cls-9" d="M22.216,23.214a.249.249,0,0,0,.257.263.44.44,0,0,0,.364-.387c.013-.191-.221-.332-.279-.291s.022.184.172.193c.064,0,.043.13-.08.231s-.32.1-.367.03c-.036-.1-.069-.1-.067-.039Z"/><path class="cls-6" d="M22.458,23.486a.229.229,0,0,1-.169-.07.289.289,0,0,1-.081-.2l.01-.045c.044-.01.058.041.073.081.043.064.244.055.354-.034.094-.076.121-.161.11-.2a.267.267,0,0,1-.221-.157.06.06,0,0,1,.019-.071.256.256,0,0,1,.211.092.281.281,0,0,1,.081.207.453.453,0,0,1-.372.395Zm-.227-.306a.276.276,0,0,0,.069.225.217.217,0,0,0,.158.064v.009l.014-.009a.434.434,0,0,0,.357-.379.268.268,0,0,0-.077-.2.276.276,0,0,0-.167-.095c-.043.02-.04.045-.036.059a.2.2,0,0,0,.181.124h.006l.034.031c.015.047-.02.137-.115.214-.117.094-.329.105-.379.028-.023-.063-.041-.077-.045-.077Z"/><path class="cls-9" d="M22.317,22.825c-.024.051.027.168.082.163s-.064-.2-.082-.163Z"/><path class="cls-6" d="M22.323,22.83a.138.138,0,0,0,.022.111c.015.025.033.039.05.039v.008l0-.009a.207.207,0,0,0-.075-.149Z"/><path class="cls-9" d="M22.808,22.735c.033.076.071.191.14.191s.124.019.124.078-.179.254-.185.32c-.01.112.071.106.111.045a3.039,3.039,0,0,0,.169-.429,1.512,1.512,0,0,0,.09-.3c-.005-.138.121-.026.182-.021s.116-.1.124-.176-.058-.088-.058-.154a2.248,2.248,0,0,0,.074-.237c.007-.071-.138-.274-.2-.272s-.008.077.021.109.1.1.076.157c-.047.115-.279.144-.29.267-.011.088.011.365-.061.365S23,22.5,22.887,22.5s-.105.176-.079.234Z"/><path class="cls-6" d="M22.932,23.42l-.035-.015a.11.11,0,0,1-.018-.082.531.531,0,0,1,.1-.167A.519.519,0,0,0,23.064,23c0-.046-.039-.069-.116-.069s-.1-.093-.135-.168a.281.281,0,0,1-.009-.233c.052-.082.174-.012.236.062.031.036.059.069.087.069.045,0,.047-.153.049-.254,0-.042,0-.08,0-.1.006-.07.079-.111.149-.15s.121-.068.142-.119-.032-.1-.064-.136-.067-.088-.055-.118a.118.118,0,0,1,.123.048.409.409,0,0,1,.112.216.558.558,0,0,1-.048.158.343.343,0,0,0-.026.078.1.1,0,0,0,.027.065.113.113,0,0,1,.031.09c-.008.072-.067.183-.13.183a.224.224,0,0,1-.069-.023.222.222,0,0,0-.075-.024.055.055,0,0,0-.032.06.63.63,0,0,1-.059.217.428.428,0,0,0-.031.088,3.078,3.078,0,0,1-.17.432.094.094,0,0,1-.073.047Zm-.045-.911a.076.076,0,0,0-.07.034.245.245,0,0,0,0,.188c.042.1.078.187.133.187.109,0,.132.047.132.086a.473.473,0,0,1-.092.162.569.569,0,0,0-.093.159.088.088,0,0,0,.014.068l.023.011a.077.077,0,0,0,.059-.04,3.073,3.073,0,0,0,.168-.426.489.489,0,0,1,.031-.091.609.609,0,0,0,.058-.211.086.086,0,0,1,.017-.064.15.15,0,0,1,.113.013.233.233,0,0,0,.061.021h0c.05,0,.108-.1.116-.168a.1.1,0,0,0-.028-.078.117.117,0,0,1-.03-.075.311.311,0,0,1,.027-.085.522.522,0,0,0,.046-.153.39.39,0,0,0-.107-.2.157.157,0,0,0-.081-.059c-.022.023,0,.068.026.094.046.049.1.11.078.167a.32.32,0,0,1-.149.126c-.07.039-.135.076-.141.138,0,.023,0,.06,0,.1,0,.127,0,.271-.065.271-.035,0-.065-.035-.1-.076s-.083-.1-.141-.1Z"/><path class="cls-9" d="M22.99,21.683c0,.049.105.264.166.264.087,0-.039-.1-.031-.139s.132-.094.082-.106c-.091-.029-.221-.084-.217-.019Z"/><path class="cls-6" d="M23.156,21.955c-.069,0-.171-.224-.174-.272l.043-.039a.526.526,0,0,1,.138.035l.046.015c.021.03,0,.045-.027.066s-.047.036-.049.05.015.035.029.056.04.055.031.074l-.037.015Zm-.131-.294c-.024.067.078.277.131.277v.009l.022-.015c0-.009-.014-.037-.029-.057s-.036-.051-.032-.069.03-.039.056-.059.037-.029.038-.036l-.053-.016a.5.5,0,0,0-.133-.034Z"/><path class="cls-9" d="M22.982,21.406c.019.069.3.173.422.208s.27.181.325.133-.372-.219-.435-.243-.325-.167-.312-.1Z"/><path class="cls-6" d="M23.7,21.764a.345.345,0,0,1-.146-.066.68.68,0,0,0-.153-.076c-.079-.023-.406-.133-.428-.214A.128.128,0,0,1,23,21.4c.018.07.275.168.405.205a.689.689,0,0,1,.156.078.36.36,0,0,0,.138.064v.008l.023-.016c-.006-.049-.29-.174-.433-.228-.015-.006-.042-.018-.074-.034a1.314,1.314,0,0,0-.19-.079.545.545,0,0,1,.2.065c.031.014.057.027.073.033s.432.165.445.236l-.041.031Z"/><path class="cls-9" d="M23.835,21.853c.105,0,.047-.207.021-.258s-.066.1-.061.138.008.118.04.12Z"/><path class="cls-6" d="M23.837,21.862h0c-.034,0-.04-.062-.045-.108a.291.291,0,0,1,.038-.168.085.085,0,0,1,.017.016.222.222,0,0,0-.041.13c.006.054.012.112.032.113l0,.008v-.008a.041.041,0,0,0,.038-.021.3.3,0,0,0-.017-.2.238.238,0,0,1,.031.211.057.057,0,0,1-.052.029Z"/><path class="cls-9" d="M23.22,20.806c0,.048.291.015.427.051.059.017.259.126.3.1.042-.056-.272-.176-.451-.176-.059,0-.271-.03-.272.026Z"/><path class="cls-6" d="M23.925,20.968a.654.654,0,0,1-.191-.067.868.868,0,0,0-.089-.036,1.212,1.212,0,0,0-.239-.02c-.128,0-.2-.006-.194-.039,0-.064.144-.042.221-.037l.056,0a.774.774,0,0,1,.462.158l-.026.038Zm-.6-.187c-.087,0-.1.016-.1.025s.107.021.178.022a1.176,1.176,0,0,1,.243.021c.02.006.053.021.091.037a.721.721,0,0,0,.185.066v.008l.013-.011a.7.7,0,0,0-.446-.161l-.06,0c-.032,0-.069,0-.1,0Z"/><path class="cls-9" d="M23.143,20.942c-.052.057.177.12.38.128s.334.131.317.221c-.029.152-.282.053-.251.136.018.064.13.041.143.11s.08.081.076,0c0-.068.157-.181.153-.212a.4.4,0,0,0-.346-.312c-.242-.024-.4-.142-.472-.067Z"/><path class="cls-6" d="M23.776,21.6c-.022,0-.047-.021-.052-.063s-.035-.04-.067-.05-.066-.022-.076-.058c.012-.047.044-.048.084-.051.067,0,.151-.008.167-.089a.117.117,0,0,0-.029-.09.375.375,0,0,0-.28-.12c-.168-.007-.371-.053-.393-.108.055-.121.118-.061.226-.028a1.383,1.383,0,0,0,.26.058.408.408,0,0,1,.354.319c0,.016-.019.039-.06.08s-.094.1-.094.133a.072.072,0,0,1-.015.057l-.025.01Zm-.57-.674a.072.072,0,0,0-.057.022c.013.059.2.107.375.114a.392.392,0,0,1,.292.127.132.132,0,0,1,.032.1c-.018.093-.113.1-.182.1-.031,0-.063,0-.07.014.009.043.037.052.067.062s.069.024.077.064.021.049.036.049v.009l.013-.015a.061.061,0,0,0,.011-.045c0-.043.052-.1.1-.145.023-.024.055-.057.054-.066a.4.4,0,0,0-.339-.3,1.31,1.31,0,0,1-.262-.059.6.6,0,0,0-.146-.032Z"/><path class="cls-6" d="M16.654,22.436c-.033-.019-.149.086-.107.11.079.045.157-.082.107-.11Z"/><path class="cls-6" d="M16.582,22.557h0l-.036-.01,0-.018.034.025a.1.1,0,0,0,.084-.073.036.036,0,0,0-.013-.044.136.136,0,0,0-.075.037.108.108,0,0,1,.067-.042.037.037,0,0,1,.024.05.1.1,0,0,1-.087.075Z"/><path class="cls-6" d="M16.9,22.311c-.056-.007-.083.114-.036.121.12.016.143-.108.036-.121Z"/><path class="cls-6" d="M16.888,22.435h0l-.021,0c-.018,0-.028-.021-.026-.048s.026-.076.057-.076c.056.007.077.037.075.064s-.032.062-.085.062Z"/><path class="cls-6" d="M22.977,22.65c-.027,0-.111.037-.082.1a.1.1,0,0,0,.151.026.074.074,0,0,0-.069-.122Z"/><path class="cls-6" d="M22.98,22.8a.092.092,0,0,1-.086-.05.049.049,0,0,1,0-.051.12.12,0,0,1,.082-.047.081.081,0,0,1,.083.049.071.071,0,0,1-.013.076.1.1,0,0,1-.067.023Zm0-.145a.118.118,0,0,0-.079.045.048.048,0,0,0,0,.049.1.1,0,0,0,.147.026.071.071,0,0,0,.014-.073.079.079,0,0,0-.081-.047Z"/><path class="cls-6" d="M23.307,22.394c.008.065.055.054.092.04s.055-.075.013-.1-.114.01-.105.056Z"/><path class="cls-6" d="M23.353,22.446c-.027,0-.043-.017-.048-.052l.012-.022c0,.094.049.073.082.061a.062.062,0,0,0,.037-.054.044.044,0,0,0-.009-.027.03.03,0,0,1,.012.028.063.063,0,0,1-.039.055.147.147,0,0,1-.047.011Z"/><path class="cls-6" d="M21.4,23.9c-.056.126-.008.25.084.227s.181-.2.114-.255a.12.12,0,0,0-.2.028Z"/><path class="cls-6" d="M21.46,24.132a.076.076,0,0,1-.065-.038.213.213,0,0,1,0-.194.123.123,0,0,1,.2-.028.089.089,0,0,1,.02.09.235.235,0,0,1-.135.167l-.023,0Zm.038-.3a.1.1,0,0,0-.1.067.208.208,0,0,0,0,.19.072.072,0,0,0,.062.037v0l.022,0a.238.238,0,0,0,.133-.164.089.089,0,0,0-.019-.088.157.157,0,0,0-.1-.039Z"/><path class="cls-6" d="M13.748,18.642c-.212-.019-.693-.116-.712-.019A4.835,4.835,0,0,0,13.44,20a2.367,2.367,0,0,0,.885.417,2.258,2.258,0,0,0-.212-.873,3.592,3.592,0,0,1-.288-.6,2.351,2.351,0,0,0-.077-.3Z"/><path class="cls-6" d="M13.325,18.6c.051-.273.366.054.334.41a.424.424,0,0,0,.117.319Z"/><path d="M13.737,19.371a.487.487,0,0,1-.132-.365.47.47,0,0,0-.2-.449c-.011,0-.029.042-.032.057l-.107-.021c.029-.151.126-.148.154-.145.148.021.313.294.288.57a.37.37,0,0,0,.1.275l-.077.078Z"/><path class="cls-6" d="M13.6,18.616l-.012.016c.158-.269.311.114.335.557Z"/><path d="M13.863,19.192c-.018-.347-.111-.58-.17-.594-.013-.007-.031.012-.056.05h0l-.012.016-.091-.061c.067-.114.136-.124.183-.113.173.043.24.457.253.7l-.109.006Z"/><path class="cls-6" d="M13.052,18.574c-.009-.22.347-.284.324.515a1.2,1.2,0,0,1,.347.625.637.637,0,0,1,.357.291Z"/><path d="M14.029,20.026a.588.588,0,0,0-.319-.259l-.039-.009,0-.04a1.174,1.174,0,0,0-.322-.584l-.026-.016v-.031c.013-.481-.112-.579-.137-.594a.039.039,0,0,0-.046,0,.093.093,0,0,0-.033.082l-.108,0a.2.2,0,0,1,.085-.18.15.15,0,0,1,.157,0c.076.044.2.19.191.663a1.319,1.319,0,0,1,.341.611.69.69,0,0,1,.358.313l-.1.041Z"/><path class="cls-6" d="M13.924,23a15.583,15.583,0,0,0-.037-2.05c-.111-.262-.669-.565-.839-.975a4.294,4.294,0,0,1-.246-1.546c.09-.172.392.211.31.635a1.784,1.784,0,0,1,.355.745c.225.175.569.294.63.451.124.279-.028-.4-.128-.534s-.274-.442-.155-.515.328.12.356.175a3.953,3.953,0,0,0,.391.441c.146.111.514.357.507.569,0,.342.03,2.592.03,2.592Z"/><path d="M13.978,23l-.109,0a15.683,15.683,0,0,0-.032-2.027,1.353,1.353,0,0,0-.323-.358A1.917,1.917,0,0,1,13,19.993a4.166,4.166,0,0,1-.243-1.595.12.12,0,0,1,.153-.061.692.692,0,0,1,.262.708,1.312,1.312,0,0,1,.312.642.3.3,0,0,0,.02.077,2.51,2.51,0,0,0,.28.176,1.772,1.772,0,0,1,.271.174,1.491,1.491,0,0,0-.128-.359c-.024-.033-.235-.33-.2-.5a.142.142,0,0,1,.062-.094.188.188,0,0,1,.156-.014.561.561,0,0,1,.277.211,4.161,4.161,0,0,0,.379.425l.048.036c.181.133.485.357.478.576,0,.34.029,2.589.029,2.589l-.109,0s-.029-2.251-.029-2.593c.005-.163-.291-.381-.433-.486l-.052-.039a3.8,3.8,0,0,1-.408-.461.476.476,0,0,0-.21-.155.084.084,0,0,0-.069,0,.689.689,0,0,0,.171.436,1.522,1.522,0,0,1,.176.656l-.016.03-.037,0c-.042,0-.063-.04-.089-.1-.032-.081-.178-.164-.319-.244a2.571,2.571,0,0,1-.294-.186.225.225,0,0,1-.059-.142,1.208,1.208,0,0,0-.3-.611l-.017-.02,0-.026a.616.616,0,0,0-.187-.609,3.848,3.848,0,0,0,.227,1.51,1.848,1.848,0,0,0,.488.579,1.373,1.373,0,0,1,.35.395A15.6,15.6,0,0,1,13.978,23Z"/><path class="cls-6" d="M13.855,23.8l0,.25c.106.129.545.143.643.143s.509,0,.605-.155c0-.005.006-.208.006-.264Z"/><path d="M14.509,24.245c-.126,0-.574-.011-.7-.163L13.8,23.8h.109l0,.249a1.77,1.77,0,0,0,.589.088c.333-.006.511-.049.559-.129,0,0,0-.183,0-.235h.108a2.451,2.451,0,0,1-.01.287c-.1.157-.383.182-.623.186Z"/><path class="cls-6" d="M13.836,23.437a.172.172,0,0,0-.068.286,1.1,1.1,0,0,0,.689.2c.332.007.771-.109.791-.293s-.165-.173-.144-.166Z"/><path d="M14.487,23.976h-.031a1.137,1.137,0,0,1-.73-.219.262.262,0,0,1-.048-.244.2.2,0,0,1,.146-.13l.024.107a.088.088,0,0,0-.067.06.149.149,0,0,0,.03.139,1.085,1.085,0,0,0,.648.177c.339-.007.721-.118.735-.244a.112.112,0,0,0-.026-.085c-.021-.02-.039-.028-.056-.023l-.008-.053-.018.053-.037-.066.072-.038v0l.013-.007a.2.2,0,0,1,.169.225c-.026.231-.481.346-.816.346Z"/><path class="cls-6" d="M13.836,23.1c-.122.028-.144.182-.058.291a1.1,1.1,0,0,0,.693.219c.331.006.75-.13.77-.314s-.119-.168-.128-.164Z"/><path d="M14.493,23.663H14.47a1.133,1.133,0,0,1-.735-.239.272.272,0,0,1-.051-.254.191.191,0,0,1,.14-.124l.024.107a.08.08,0,0,0-.061.054.163.163,0,0,0,.033.149,1.072,1.072,0,0,0,.652.2c.341,0,.7-.13.715-.265a.124.124,0,0,0-.024-.094l-.073-.113a.145.145,0,0,1,.128.017.209.209,0,0,1,.078.2c-.026.233-.477.367-.8.367Z"/><path class="cls-6" d="M14.525,23.287c.439.007.723-.211.723-.327s-.142-.123-.229-.089a1.113,1.113,0,0,1-.507.123c-.291.008-.548-.2-.636-.2a.159.159,0,0,0-.128.205.908.908,0,0,0,.777.286Z"/><path d="M14.483,23.342a.916.916,0,0,1-.786-.323.227.227,0,0,1,.029-.191.2.2,0,0,1,.146-.087.939.939,0,0,1,.185.065,1.031,1.031,0,0,0,.437.133,1,1,0,0,0,.452-.1L15,22.82c.139-.054.3.008.3.14,0,.152-.3.382-.757.382Zm-.6-.491a.084.084,0,0,0-.065.04.113.113,0,0,0-.016.1.874.874,0,0,0,.683.246v.056l.041-.056h0c.44,0,.67-.2.67-.272,0-.013,0-.052-.079-.052a.219.219,0,0,0-.077.014l-.048.021a1.07,1.07,0,0,1-.478.1h0a1.118,1.118,0,0,1-.5-.144.547.547,0,0,0-.128-.053Z"/><path class="cls-6" d="M26.252,18.642c.212-.019.692-.116.712-.019A4.835,4.835,0,0,1,26.56,20a2.374,2.374,0,0,1-.885.417,2.273,2.273,0,0,1,.211-.873,3.613,3.613,0,0,0,.289-.6,2.351,2.351,0,0,1,.077-.3Z"/><path class="cls-6" d="M26.675,18.6c-.051-.273-.366.054-.335.41a.424.424,0,0,1-.116.319Z"/><path d="M26.263,19.371l-.077-.078a.364.364,0,0,0,.1-.273c-.024-.279.141-.551.288-.572.029,0,.127-.006.155.145l-.107.021c0-.014-.009-.055-.033-.057a.475.475,0,0,0-.2.451.481.481,0,0,1-.131.363Z"/><path class="cls-6" d="M26.405,18.616l.012.016c-.158-.269-.311.114-.335.557Z"/><path d="M26.137,19.192l-.109-.006c.013-.238.08-.652.253-.7.047-.011.116,0,.183.113l-.091.061.014-.015-.017.01c-.028-.047-.051-.069-.063-.062-.059.014-.152.247-.17.594Z"/><path class="cls-6" d="M26.948,18.574c.009-.22-.347-.284-.324.515a1.189,1.189,0,0,0-.347.625.637.637,0,0,0-.357.291Z"/><path d="M25.971,20.026l-.1-.041a.69.69,0,0,1,.358-.313,1.314,1.314,0,0,1,.341-.611c-.009-.473.115-.619.191-.663a.144.144,0,0,1,.156,0,.2.2,0,0,1,.086.18l-.108,0a.091.091,0,0,0-.034-.082.038.038,0,0,0-.045,0c-.026.015-.15.113-.137.594v.031l-.026.016a1.174,1.174,0,0,0-.322.584l0,.04-.04.009a.589.589,0,0,0-.318.259Z"/><path class="cls-6" d="M26.076,23a15.583,15.583,0,0,1,.037-2.05c.111-.262.669-.565.838-.975a4.278,4.278,0,0,0,.247-1.546c-.091-.172-.392.211-.31.635a1.81,1.81,0,0,0-.356.745c-.225.175-.568.294-.629.451-.125.279.028-.4.128-.534s.274-.442.155-.515-.328.12-.356.175a3.871,3.871,0,0,1-.392.441c-.145.111-.514.357-.506.569,0,.342-.03,2.592-.03,2.592Z"/><path d="M26.022,23a15.616,15.616,0,0,1,.041-2.074,1.385,1.385,0,0,1,.35-.394,1.837,1.837,0,0,0,.488-.579,4.492,4.492,0,0,0,.25-1.5c-.108.018-.27.286-.21.6l.005.026-.017.02a1.2,1.2,0,0,0-.3.611.225.225,0,0,1-.059.142,2.5,2.5,0,0,1-.295.186c-.141.08-.286.163-.317.242-.027.06-.048.1-.09.1H25.83l-.019-.033a1.522,1.522,0,0,1,.176-.656.812.812,0,0,0,.183-.415.069.069,0,0,0-.081-.024.469.469,0,0,0-.21.156,3.864,3.864,0,0,1-.405.457l-.055.042c-.143.105-.439.323-.433.485,0,.343-.03,2.594-.03,2.594l-.108,0s.03-2.249.029-2.591c-.007-.217.3-.441.478-.574l.051-.038a4.379,4.379,0,0,0,.376-.422.556.556,0,0,1,.277-.212.189.189,0,0,1,.156.014.142.142,0,0,1,.062.094c.033.171-.178.467-.2.5a1.464,1.464,0,0,0-.128.358,1.852,1.852,0,0,1,.271-.174,2.477,2.477,0,0,0,.281-.177.442.442,0,0,0,.019-.077,1.311,1.311,0,0,1,.312-.641.7.7,0,0,1,.261-.708.123.123,0,0,1,.155.063A4.178,4.178,0,0,1,27,19.992a1.91,1.91,0,0,1-.516.619,1.367,1.367,0,0,0-.323.357A15.707,15.707,0,0,0,26.131,23l-.109,0Z"/><path class="cls-6" d="M26.144,23.8l0,.25c-.106.129-.545.143-.643.143s-.509,0-.605-.155c0-.005-.006-.208-.006-.264Z"/><path d="M25.509,24.245h0c-.272,0-.56-.029-.652-.18a1.982,1.982,0,0,1-.013-.293h.108c0,.052,0,.234.006.257.04.058.218.1.521.106a1.2,1.2,0,0,0,.631-.122L26.09,23.8H26.2l0,.25c-.14.19-.616.2-.692.2Z"/><path class="cls-6" d="M26.164,23.437a.172.172,0,0,1,.068.286,1.106,1.106,0,0,1-.69.2c-.331.007-.77-.109-.79-.293s.164-.173.144-.166Z"/><path d="M25.513,23.976c-.336,0-.79-.115-.815-.342a.2.2,0,0,1,.167-.229l.049-.006.048.1-.048.018-.017-.049-.009.049c-.01,0-.035,0-.056.023a.116.116,0,0,0-.026.089c.013.122.388.237.735.24a1.085,1.085,0,0,0,.648-.177.149.149,0,0,0,.03-.139.088.088,0,0,0-.067-.06l.024-.107a.2.2,0,0,1,.146.13.262.262,0,0,1-.048.244,1.137,1.137,0,0,1-.73.219Z"/><path class="cls-6" d="M26.164,23.1c.121.028.144.182.058.291a1.1,1.1,0,0,1-.693.219c-.331.006-.75-.13-.771-.314-.006-.184.12-.168.129-.164Z"/><path d="M25.507,23.663c-.326,0-.777-.134-.8-.363a.212.212,0,0,1,.078-.2.145.145,0,0,1,.128-.017l-.046.1a.113.113,0,0,0-.051.113c.014.131.379.255.715.261a1.072,1.072,0,0,0,.652-.2.163.163,0,0,0,.033-.149.08.08,0,0,0-.061-.054l.024-.107a.188.188,0,0,1,.139.124.269.269,0,0,1-.05.254,1.133,1.133,0,0,1-.735.239Z"/><path class="cls-6" d="M25.475,23.287c-.439.007-.723-.211-.723-.327s.142-.123.229-.089a1.113,1.113,0,0,0,.507.123c.291.008.548-.2.636-.2a.159.159,0,0,1,.128.205.908.908,0,0,1-.777.286Z"/><path d="M25.517,23.342h-.046a1.152,1.152,0,0,1-.555-.127c-.137-.076-.219-.171-.219-.254,0-.132.164-.194.3-.14l.053.023a.978.978,0,0,0,.435.1h0a1.031,1.031,0,0,0,.453-.133.463.463,0,0,1,.176-.065.2.2,0,0,1,.155.087.226.226,0,0,1,.03.188.914.914,0,0,1-.787.326Zm-.632-.434c-.079,0-.079.039-.079.052s.04.09.163.158a1.025,1.025,0,0,0,.485.114h.063a.865.865,0,0,0,.684-.249.112.112,0,0,0-.017-.092.084.084,0,0,0-.065-.04.547.547,0,0,0-.128.053,1.022,1.022,0,0,1-.981.039l-.048-.021a.219.219,0,0,0-.077-.014Z"/></g></g></g></svg>