<svg id="Layer_1" data-name="Layer 1" xmlns="http://www.w3.org/2000/svg" xmlns:xlink="http://www.w3.org/1999/xlink" viewBox="0 0 40 40"><defs><style>.cls-1{fill:none;}.cls-2{clip-path:url(#clip-path);}.cls-3{clip-path:url(#clip-path-2);}.cls-4{fill:#231e60;}.cls-5{fill:#e5e8eb;}.cls-6{fill:#b92026;}.cls-7{fill:#f2c325;}.cls-8{fill:#6d6767;}.cls-9{fill:#283b93;}.cls-10{fill:#245429;}.cls-11{fill:#102015;}.cls-12{fill:#0b0b14;}.cls-13{clip-path:url(#clip-path-4);}.cls-14{fill:#c12026;}.cls-15{clip-path:url(#clip-path-5);}.cls-16{clip-path:url(#clip-path-6);}.cls-17{fill:#f5db60;}.cls-18{clip-path:url(#clip-path-7);}.cls-19{clip-path:url(#clip-path-8);}.cls-20{clip-path:url(#clip-path-9);}.cls-21{clip-path:url(#clip-path-10);}.cls-22{fill:#f1c226;}.cls-23{clip-path:url(#clip-path-11);}.cls-24{clip-path:url(#clip-path-12);}.cls-25{fill:#3a60ac;}.cls-26{clip-path:url(#clip-path-13);}.cls-27{clip-path:url(#clip-path-14);}.cls-28{clip-path:url(#clip-path-15);}.cls-29{clip-path:url(#clip-path-16);}.cls-30{clip-path:url(#clip-path-17);}.cls-31{clip-path:url(#clip-path-18);}.cls-32{clip-path:url(#clip-path-19);}.cls-33{clip-path:url(#clip-path-20);}.cls-34{clip-path:url(#clip-path-21);}.cls-35{clip-path:url(#clip-path-22);}.cls-36{clip-path:url(#clip-path-23);}.cls-37{clip-path:url(#clip-path-24);}.cls-38{clip-path:url(#clip-path-25);}.cls-39{clip-path:url(#clip-path-26);}.cls-40{clip-path:url(#clip-path-27);}.cls-41{clip-path:url(#clip-path-28);}.cls-42{clip-path:url(#clip-path-29);}.cls-43{clip-path:url(#clip-path-30);}.cls-44{clip-path:url(#clip-path-31);}.cls-45{clip-path:url(#clip-path-32);}.cls-46{clip-path:url(#clip-path-33);}.cls-47{clip-path:url(#clip-path-34);}.cls-48{fill:#121039;}.cls-49{clip-path:url(#clip-path-35);}.cls-50{fill:#16341d;}.cls-51{clip-path:url(#clip-path-36);}.cls-52{clip-path:url(#clip-path-37);}</style><clipPath id="clip-path"><rect id="SVGID" class="cls-1" x="1.465" y="9.038" width="37.07" height="21.925" rx="4"/></clipPath><clipPath id="clip-path-2"><rect id="SVGID-2" data-name="SVGID" class="cls-1" x="1.465" y="9.038" width="37.07" height="21.925"/></clipPath><clipPath id="clip-path-4"><rect id="SVGID-4" data-name="SVGID" class="cls-1" x="25.757" y="21.747" width="1.306" height="1.457"/></clipPath><clipPath id="clip-path-5"><rect id="SVGID-5" data-name="SVGID" class="cls-1" x="31.566" y="21.747" width="1.199" height="1.267"/></clipPath><clipPath id="clip-path-6"><rect id="SVGID-6" data-name="SVGID" class="cls-1" x="31.198" y="22.183" width="2.767" height="2.213"/></clipPath><clipPath id="clip-path-7"><rect id="SVGID-7" data-name="SVGID" class="cls-1" x="24.762" y="22.017" width="2.637" height="2.381"/></clipPath><clipPath id="clip-path-8"><rect id="SVGID-8" data-name="SVGID" class="cls-1" x="25.258" y="21.874" width="8.162" height="3.467"/></clipPath><clipPath id="clip-path-9"><rect id="SVGID-9" data-name="SVGID" class="cls-1" x="33.26" y="22.764" width="0.829" height="1.268"/></clipPath><clipPath id="clip-path-10"><rect id="SVGID-10" data-name="SVGID" class="cls-1" x="24.515" y="22.8" width="0.833" height="1.341"/></clipPath><clipPath id="clip-path-11"><rect id="SVGID-11" data-name="SVGID" class="cls-1" x="26.572" y="17.504" width="5.571" height="2.617"/></clipPath><clipPath id="clip-path-12"><rect id="SVGID-12" data-name="SVGID" class="cls-1" x="26.572" y="20.329" width="5.571" height="1.177"/></clipPath><clipPath id="clip-path-13"><rect id="SVGID-13" data-name="SVGID" class="cls-1" x="26.692" y="21.731" width="5.331" height="1.188"/></clipPath><clipPath id="clip-path-14"><rect id="SVGID-14" data-name="SVGID" class="cls-1" x="28.061" y="23.154" width="2.597" height="1.177"/></clipPath><clipPath id="clip-path-15"><rect id="SVGID-15" data-name="SVGID" class="cls-1" x="27.046" y="18.975" width="1.827" height="0.497"/></clipPath><clipPath id="clip-path-16"><rect id="SVGID-16" data-name="SVGID" class="cls-1" x="27.073" y="17.88" width="1.211" height="1.247"/></clipPath><clipPath id="clip-path-17"><rect id="SVGID-17" data-name="SVGID" class="cls-1" x="31.091" y="19.233" width="0.186" height="0.079"/></clipPath><clipPath id="clip-path-18"><rect id="SVGID-18" data-name="SVGID" class="cls-1" x="31.337" y="19.328" width="0.12" height="0.16"/></clipPath><clipPath id="clip-path-19"><rect id="SVGID-19" data-name="SVGID" class="cls-1" x="31.627" y="19.327" width="0.143" height="0.138"/></clipPath><clipPath id="clip-path-20"><rect id="SVGID-20" data-name="SVGID" class="cls-1" x="29.196" y="19.183" width="0.225" height="0.099"/></clipPath><clipPath id="clip-path-21"><rect id="SVGID-21" data-name="SVGID" class="cls-1" x="29.426" y="19.303" width="0.159" height="0.154"/></clipPath><clipPath id="clip-path-22"><rect id="SVGID-22" data-name="SVGID" class="cls-1" x="29.281" y="19.019" width="0.158" height="0.09"/></clipPath><clipPath id="clip-path-23"><rect id="SVGID-23" data-name="SVGID" class="cls-1" x="27.007" y="18.924" width="0.214" height="0.12"/></clipPath><clipPath id="clip-path-24"><rect id="SVGID-24" data-name="SVGID" class="cls-1" x="26.798" y="19.123" width="0.293" height="0.122"/></clipPath><clipPath id="clip-path-25"><rect id="SVGID-25" data-name="SVGID" class="cls-1" x="26.984" y="19.298" width="0.255" height="0.127"/></clipPath><clipPath id="clip-path-26"><rect id="SVGID-26" data-name="SVGID" class="cls-1" x="27.086" y="17.919" width="0.158" height="0.139"/></clipPath><clipPath id="clip-path-27"><rect id="SVGID-27" data-name="SVGID" class="cls-1" x="27.312" y="17.795" width="0.164" height="0.105"/></clipPath><clipPath id="clip-path-28"><rect id="SVGID-28" data-name="SVGID" class="cls-1" x="27.549" y="17.82" width="0.147" height="0.175"/></clipPath><clipPath id="clip-path-29"><rect id="SVGID-29" data-name="SVGID" class="cls-1" x="29.315" y="18.81" width="1.342" height="0.573"/></clipPath><clipPath id="clip-path-30"><rect id="SVGID-30" data-name="SVGID" class="cls-1" x="28.389" y="17.74" width="3.425" height="1.674"/></clipPath><clipPath id="clip-path-31"><rect id="SVGID-31" data-name="SVGID" class="cls-1" x="27.946" y="17.78" width="1.064" height="1.268"/></clipPath><clipPath id="clip-path-32"><rect id="SVGID-32" data-name="SVGID" class="cls-1" x="28.311" y="18.111" width="0.206" height="0.083"/></clipPath><clipPath id="clip-path-33"><rect id="SVGID-33" data-name="SVGID" class="cls-1" x="28.564" y="18.105" width="0.207" height="0.083"/></clipPath><clipPath id="clip-path-34"><rect id="SVGID-34" data-name="SVGID" class="cls-1" x="28.414" y="18.439" width="0.124" height="0.22"/></clipPath><clipPath id="clip-path-35"><rect id="SVGID-35" data-name="SVGID" class="cls-1" x="28.495" y="21.885" width="1.805" height="1.638"/></clipPath><clipPath id="clip-path-36"><rect id="SVGID-36" data-name="SVGID" class="cls-1" x="27.155" y="20.403" width="1.786" height="1.549"/></clipPath><clipPath id="clip-path-37"><rect id="SVGID-37" data-name="SVGID" class="cls-1" x="29.856" y="20.403" width="1.809" height="1.549"/></clipPath></defs><g class="cls-2"><g class="cls-3"><rect class="cls-4" x="1.465" y="9.038" width="37.07" height="21.925"/><rect class="cls-4" x="1.465" y="9.038" width="18.729" height="9.495"/><path class="cls-5" d="M10.83,14.847l7.27,3.685H20.2V17.471l-7.272-3.686ZM1.465,17.471v1.061H3.558l7.272-3.685L8.736,13.785Zm0-8.433V10.1l7.271,3.686,2.094-1.062L3.558,9.038Zm16.635,0-7.27,3.685,2.093,1.062L20.2,10.1V9.038Z"/><polygon class="cls-5" points="9.268 9.038 9.268 12.203 1.465 12.203 1.465 15.368 9.268 15.368 9.268 18.532 12.39 18.532 12.39 15.368 20.195 15.368 20.195 12.203 12.39 12.203 12.39 9.038 9.268 9.038"/><polygon class="cls-6" points="9.893 9.038 9.893 12.835 1.465 12.835 1.465 14.735 9.893 14.735 9.893 18.532 11.765 18.532 11.765 14.735 20.195 14.735 20.195 12.835 11.765 12.835 11.765 9.038 9.893 9.038"/><path class="cls-6" d="M7.708,15.368,1.465,18.532H2.86L9.1,15.368Zm6.243,0L20.2,18.532v-.707l-4.848-2.457ZM1.465,9.038v.707L6.312,12.2h1.4Zm17.333,0L12.555,12.2h1.4L20.2,9.038Z"/><g class="cls-3"><path class="cls-5" d="M28.218,15.4c-.037.023-.111.091-.185.068s-.24-.317-.424-.272-.3.114-.369.114-.278.068-.278.249.019.317.056.317.092-.113.092-.113.018.226.148.226.406.022.425.09-.13.227-.093.362a1.6,1.6,0,0,0,.2.363s-.24.18-.24.294a.834.834,0,0,0,.037.226l-1.071.045s-.074,3.214-.037,3.463.129.86.129.86a.453.453,0,0,0-.443.125c-.2.2-.914.554-.932.712s-.084.294-.01.408.335.42.259.407c-.248-.044-.34-.4-.508-.532s-.49-.1-.526.034a.987.987,0,0,0,0,.407c.018.046.222.77.277.928a1.315,1.315,0,0,0,.895.374,1.409,1.409,0,0,0,.73-.193,4.465,4.465,0,0,0,3.177,1.109,5.076,5.076,0,0,0,2.9-1.063,2.217,2.217,0,0,0,.923.158,1.235,1.235,0,0,0,.665-.385,9.448,9.448,0,0,0,.3-1.109c.018-.135,0-.294-.167-.339a.451.451,0,0,0-.35.011c-.094.045-.121.17-.259.4a2.677,2.677,0,0,0-.212.2,1.638,1.638,0,0,0,.193-.5c.019-.113.074-.317-.055-.43s-.327-.159-.554-.328c-.215-.15-.388-.4-.517-.4a.548.548,0,0,1-.259-.068,1.174,1.174,0,0,0,.13-.668c-.037-.34.018-3.587,0-3.587a6.4,6.4,0,0,1-.924.023,1.394,1.394,0,0,0,0-.566c-.074-.2-.388-.339-.3-.385s.5-.158.481-.339-.277-.159-.388-.226-.443-.385-.48-.385.96-.611.886-.611-.461-.113-.591-.045c0-.114.535-.453.443-.5s-.517-.091-.406-.114.148-.294.129-.294-.479.068-.479.068-.112-.158-.148-.158a1.069,1.069,0,0,0-.2.09l-.092-.249-.2.136L29.9,13.7s-.166.045-.166,0c.006,0-.02-.114-.046-.114s-.209.144-.216.136-.209-.3-.209-.288-.143.544-.149.544a.991.991,0,0,0-.151.025c-.006.008-.731-.425-.724-.417s.189.417.189.417a1.641,1.641,0,0,0-.157.1c0,.009.026.184.026.184l-.483-.167s.183.376.17.376l-.353.015c.007,0,.164.312.164.312l-.059.185s.52.372.483.394ZM31.3,23.277c.046.068.3.385.258.385a10.3,10.3,0,0,1-.9.5c-.25.079-1.062.226-1.016.215s.73-.391,1.006-.572a4.3,4.3,0,0,0,.656-.526Zm-3.86-.011c-.036.045-.212.4-.212.4a4.739,4.739,0,0,0,.886.5,4.047,4.047,0,0,0,.988.17,7.013,7.013,0,0,1-1.034-.544c-.221-.181-.618-.52-.628-.52Z"/><path class="cls-7" d="M27.848,14.885s.323.238.4.294.314.306.332.295.148-.136.148-.136a1.765,1.765,0,0,0-.434-.317,4.089,4.089,0,0,1-.443-.136Z"/><path class="cls-8" d="M28.576,15.5c-.021,0-.053-.027-.2-.166-.059-.056-.116-.111-.146-.134l-.379-.28-.016-.014h0l-.01-.019v-.046l.05.037a1.831,1.831,0,0,0,.179.052c.082.022.173.046.244.07a1.728,1.728,0,0,1,.443.323.687.687,0,0,1-.151.173l-.014,0Zm-.587-.538c.1.073.227.167.27.2s.09.08.15.138.136.13.165.149c.03-.026.115-.108.132-.124h0a3.55,3.55,0,0,0-.421-.28c-.071-.024-.161-.047-.242-.069l-.053-.014Z"/><path class="cls-7" d="M27.8,14.625a4.025,4.025,0,0,1,.692.475,1.96,1.96,0,0,1,.24.362c.018,0,.259-.045.249-.045s-.11-.407-.341-.532a4.671,4.671,0,0,0-.84-.26Z"/><path class="cls-8" d="M28.734,15.486c-.02,0-.028-.016-.055-.069a1.127,1.127,0,0,0-.2-.3,4.009,4.009,0,0,0-.679-.468l0-.048v0h0a4.559,4.559,0,0,1,.846.263.957.957,0,0,1,.339.51h.023l-.008.042c0,.008-.009.015-.024.022l0,0a1.289,1.289,0,0,1-.244.045Zm-.773-.8a3.8,3.8,0,0,1,.549.4,1.2,1.2,0,0,1,.211.311c.008.016.016.033.022.043.035-.006.155-.027.208-.038l0-.009a.916.916,0,0,0-.316-.485,3.656,3.656,0,0,0-.67-.219Z"/><path class="cls-7" d="M30.193,13.807c-.009,0-.1.339-.129.441s-.074.317-.074.317-.406.045-.388-.012.619-.746.591-.746Z"/><path class="cls-8" d="M29.722,14.606c-.1,0-.125-.012-.138-.029,0-.061.105-.184.316-.437.117-.141.23-.278.264-.327l.029-.03.014.049c-.025.07-.1.334-.12.422s-.074.316-.074.316a.918.918,0,0,1-.291.036Zm-.089-.052c.036,0,.316-.009.351-.012a1.551,1.551,0,0,1,.057-.3c.016-.058.053-.2.084-.3l-.19.231c-.12.144-.282.34-.308.384Z"/><path class="cls-7" d="M27.894,14.217a5.367,5.367,0,0,1,.646.623,5.372,5.372,0,0,1,.342.622c.009,0,.453-.113.453-.1a8.984,8.984,0,0,0-.767-.826,3.311,3.311,0,0,0-.674-.318Z"/><path class="cls-8" d="M28.882,15.486c-.017,0-.017,0-.065-.1a3.585,3.585,0,0,0-.3-.533,5.227,5.227,0,0,0-.634-.612l-.015-.016-.031-.083.068.056-.007.015.01-.012a.8.8,0,0,0,.1.036,2.214,2.214,0,0,1,.575.278,6.516,6.516,0,0,1,.688.735c.043.051.072.085.079.091l.055.051-.069-.009h-.01c-.04,0-.238.053-.336.077a.873.873,0,0,1-.107.025Zm-.862-1.193a4.38,4.38,0,0,1,.539.533,3.743,3.743,0,0,1,.3.54c.015.032.027.056.034.07l.086-.021c.143-.035.244-.059.3-.071l-.02-.018.016,0-.041-.047a6.686,6.686,0,0,0-.681-.728,2.062,2.062,0,0,0-.534-.261Z"/><path class="cls-7" d="M28.393,14.112a5.843,5.843,0,0,1,.285.611c.047.159.186.566.186.566h.378a3.334,3.334,0,0,0-.388-.758,3.02,3.02,0,0,0-.461-.419Z"/><path class="cls-8" d="M29.276,15.313h-.412a4.874,4.874,0,0,1-.208-.583,5.873,5.873,0,0,0-.282-.605l0,0,.042-.021a.562.562,0,0,0,.055.043,2.25,2.25,0,0,1,.4.372,3.3,3.3,0,0,1,.392.766l.012.032ZM28.465,14.2a4.254,4.254,0,0,1,.236.517c.046.157.185.564.185.564l.323-.015a3.152,3.152,0,0,0-.373-.72,2.086,2.086,0,0,0-.371-.346Z"/><path class="cls-7" d="M28.522,13.863a3.678,3.678,0,0,1,.434.69c.083.261.147.589.147.589l.333-.1a4.259,4.259,0,0,0-.48-.849,3.51,3.51,0,0,0-.434-.328Z"/><path class="cls-8" d="M29.085,15.172l-.005-.026s-.065-.33-.146-.586a2.517,2.517,0,0,0-.36-.583.663.663,0,0,1-.075-.107l.041-.022a.654.654,0,0,0,.059.04,2.408,2.408,0,0,1,.373.286,4.2,4.2,0,0,1,.485.856l-.372.142Zm-.468-1.215a2.429,2.429,0,0,1,.361.589c.069.217.126.483.143.566l.306-.094a7.316,7.316,0,0,0-.487-.81,2.2,2.2,0,0,0-.323-.251Z"/><path class="cls-7" d="M31.283,14.93a8.742,8.742,0,0,0-.942.17.773.773,0,0,0-.388.374,1.594,1.594,0,0,0,.342.124,1.343,1.343,0,0,1,.425-.351,2.872,2.872,0,0,0,.563-.317Z"/><path class="cls-8" d="M30.286,15.624a1.917,1.917,0,0,1-.343-.129.645.645,0,0,1,.391-.417,8.565,8.565,0,0,1,.946-.171c.023.075-.42.306-.551.362a1.3,1.3,0,0,0-.416.344l-.027.011Zm.964-.693c-.095.041-.681.121-.9.192a.753.753,0,0,0-.374.361c.091.016.264.087.308.092a1.349,1.349,0,0,1,.428-.351,3.793,3.793,0,0,0,.54-.294Z"/><path class="cls-7" d="M31.255,14.376c-.018.011-.573.566-.748.747s-.342.373-.36.385-.361-.057-.341-.08a6.924,6.924,0,0,1,.83-.724,4.528,4.528,0,0,1,.619-.328Z"/><path class="cls-8" d="M30.137,15.533c-.024,0-.332-.046-.353-.091a5.014,5.014,0,0,1,.839-.758,3.472,3.472,0,0,1,.55-.295.662.662,0,0,0,.066-.031l0,0,.026.039-.009-.011.008.012h0c-.034.028-.563.556-.744.743-.1.1-.187.2-.254.273a1.19,1.19,0,0,1-.111.116l-.022,0Zm-.3-.09c.048,0,.256.042.3.042v.024l0-.024.095-.1c.068-.074.16-.176.255-.274.13-.134.472-.478.646-.649a3.381,3.381,0,0,0-.487.267,6.893,6.893,0,0,0-.825.719Z"/><path class="cls-7" d="M31.116,13.98c-.055.079-.6.622-.747.815s-.388.532-.388.532-.287-.159-.268-.227a4.119,4.119,0,0,1,.684-.69c.276-.227.747-.407.719-.43Z"/><path class="cls-8" d="M29.987,15.358l-.018-.011c-.091-.05-.3-.175-.278-.253a3.99,3.99,0,0,1,.691-.7,3.241,3.241,0,0,1,.568-.339,1.507,1.507,0,0,0,.14-.075l0,0,0,0,0,0h-.008L31.1,14V13.99h0l0-.02h0v-.006l.046-.064,0,.081h-.024l0,.03c-.039.047-.139.152-.254.273-.176.184-.4.414-.48.524-.148.192-.388.532-.388.532l-.012.017Zm1.006-1.275-.023.012a3.22,3.22,0,0,0-.559.333,4.258,4.258,0,0,0-.675.679c-.006.026.106.114.238.189.05-.072.248-.349.376-.516.086-.112.306-.343.483-.528l.16-.169Z"/><path class="cls-7" d="M30.563,13.935c-.01.011-.333.43-.4.543s-.258.611-.258.611-.287-.3-.287-.317a5.017,5.017,0,0,1,.573-.656c.212-.181.379-.147.37-.181Z"/><path class="cls-8" d="M29.915,15.132l-.025-.027c-.293-.312-.293-.321-.293-.333a4.193,4.193,0,0,1,.581-.674.692.692,0,0,1,.333-.164l.034-.015h0l.048-.019-.022.061c-.067.086-.328.428-.386.528s-.255.6-.257.608l-.013.034Zm.578-1.146a.667.667,0,0,0-.285.148,5.008,5.008,0,0,0-.567.648,3.392,3.392,0,0,1,.257.264c.046-.116.192-.483.247-.58s.234-.33.336-.464h0l.013-.017Z"/><path class="cls-7" d="M29.762,14.553a.12.12,0,1,1-.117-.144.133.133,0,0,1,.117.144Z"/><path class="cls-8" d="M29.645,14.716a.166.166,0,1,1,.136-.163.151.151,0,0,1-.136.163Zm0-.288a.114.114,0,0,0-.1.125.1.1,0,1,0,.2,0,.114.114,0,0,0-.1-.125Z"/><path class="cls-7" d="M30,14.745a.118.118,0,1,1-.117-.128.123.123,0,0,1,.117.128Z"/><path class="cls-8" d="M29.88,14.892a.147.147,0,1,1,.136-.147.143.143,0,0,1-.136.147Zm0-.256a.1.1,0,0,0-.1.109.1.1,0,0,0,.2,0,.1.1,0,0,0-.1-.109Z"/><path class="cls-7" d="M29.475,14.6a.144.144,0,1,1-.144-.128.137.137,0,0,1,.144.128Z"/><path class="cls-8" d="M29.331,14.748a.148.148,0,1,1,.163-.147.155.155,0,0,1-.163.147Zm0-.256a.118.118,0,0,0-.125.109c0,.12.25.12.25,0a.118.118,0,0,0-.125-.109Z"/><path class="cls-7" d="M29.853,14.865c0,.137-.073.248-.163.248s-.163-.111-.163-.248.073-.248.163-.248.163.111.163.248Z"/><path class="cls-8" d="M29.69,15.132c-.1,0-.182-.12-.182-.267s.082-.267.182-.267.182.117.182.267-.082.267-.182.267Zm0-.5c-.08,0-.144.1-.144.229s.066.229.144.229.145-.1.145-.229-.065-.229-.145-.229Z"/><path class="cls-7" d="M29.41,14.873a.166.166,0,1,1-.164-.192.18.18,0,0,1,.164.192Z"/><path class="cls-8" d="M29.246,15.084a.213.213,0,1,1,.182-.211.2.2,0,0,1-.182.211Zm0-.384a.176.176,0,1,0,.145.173.161.161,0,0,0-.145-.173Z"/><path class="cls-7" d="M29.188,15.025c0,.093-.056.168-.125.168s-.123-.075-.123-.168h0c0-.093.054-.168.123-.168s.125.075.125.168Z"/><path class="cls-8" d="M29.063,15.212a.17.17,0,0,1-.142-.187c0-.105.062-.187.142-.187a.194.194,0,0,1,0,.374Zm0-.336c-.058,0-.105.067-.105.149s.047.149.105.149.106-.067.106-.149-.048-.149-.106-.149Z"/><path class="cls-7" d="M30.1,15.009a.19.19,0,1,1-.19-.2.2.2,0,0,1,.19.2Z"/><path class="cls-8" d="M29.912,15.228a.219.219,0,1,1,.208-.219.214.214,0,0,1-.208.219Zm0-.4a.181.181,0,1,0,.171.181.176.176,0,0,0-.171-.181Z"/><path class="cls-7" d="M29.645,14.721a.154.154,0,1,1-.151-.12.138.138,0,0,1,.151.12Z"/><path class="cls-8" d="M29.494,14.86a.142.142,0,1,1,.169-.139.156.156,0,0,1-.169.139Zm0-.24a.119.119,0,0,0-.131.1c0,.112.263.111.263,0a.119.119,0,0,0-.132-.1Z"/><path class="cls-7" d="M29.671,14.985a.212.212,0,1,1-.209-.176.2.2,0,0,1,.209.176Z"/><path class="cls-8" d="M29.462,15.18a.2.2,0,1,1,.227-.2.213.213,0,0,1-.227.2Zm0-.352a.16.16,0,1,0,.19.157.176.176,0,0,0-.19-.157Z"/><path class="cls-7" d="M30.206,15.3a.2.2,0,1,1-.2-.216.207.207,0,0,1,.2.216Z"/><path class="cls-8" d="M30.01,15.532a.236.236,0,1,1,.215-.235.225.225,0,0,1-.215.235Zm0-.432a.2.2,0,1,0,.177.2.188.188,0,0,0-.177-.2Z"/><path class="cls-7" d="M29.135,15.241a.115.115,0,1,1-.222,0,.115.115,0,1,1,.222,0Z"/><path class="cls-8" d="M29.024,15.4a.167.167,0,1,1,.13-.163.149.149,0,0,1-.13.163Zm0-.288c-.051,0-.092.056-.092.125a.093.093,0,1,0,.185,0c0-.069-.042-.125-.093-.125Z"/><path class="cls-7" d="M29.919,15.217a.171.171,0,1,1-.17-.184.177.177,0,0,1,.17.184Z"/><path class="cls-8" d="M29.749,15.42a.2.2,0,1,1,.188-.2.2.2,0,0,1-.188.2Zm0-.368a.166.166,0,1,0,.151.165.159.159,0,0,0-.151-.165Z"/><path class="cls-7" d="M29.383,15.209a.15.15,0,1,1-.15-.16.155.155,0,0,1,.15.16Z"/><path class="cls-8" d="M29.233,15.388a.179.179,0,1,1,.169-.179.174.174,0,0,1-.169.179Zm0-.32a.141.141,0,1,0,.132.141.136.136,0,0,0-.132-.141Z"/><path class="cls-7" d="M29.645,15.257a.158.158,0,1,1-.157-.176.167.167,0,0,1,.157.176Z"/><path class="cls-8" d="M29.488,15.452a.2.2,0,1,1,.175-.2.186.186,0,0,1-.175.2Zm0-.352a.158.158,0,1,0,.138.157.148.148,0,0,0-.138-.157Z"/><path class="cls-7" d="M28.966,14.2a2.787,2.787,0,0,1,.313.112s-.339.16-.287.144.378-.064.352-.064-.287.3-.209.288.235-.208.248-.208.17.3.183.288,0-.3.013-.3.327.192.3.176a1.525,1.525,0,0,1-.2-.24c.013,0,.431.048.4.032l-.274-.16s.183-.208.144-.208a2.12,2.12,0,0,0-.313.192c.026-.016.326-.432.326-.432l-.3.176s.052-.256.026-.24-.235.336-.248.336a2.8,2.8,0,0,1-.066-.32s.013.352-.065.368a2.365,2.365,0,0,1-.352.064Z"/><path class="cls-8" d="M29.565,14.781c-.018,0-.03-.015-.123-.178-.024-.041-.053-.092-.065-.109,0,.008-.014.023-.028.037a.588.588,0,0,1-.21.169c-.039-.058.073-.2.143-.277a.484.484,0,0,1-.049.009c-.09.015-.207.034-.236.043-.033-.032-.034-.034.258-.171-.053,0-.221-.069-.279-.082a.8.8,0,0,1,.266-.088l.072-.015c.038-.008.057-.187.051-.35a2.23,2.23,0,0,1,.1.3.5.5,0,0,1,.085-.147,1.269,1.269,0,0,1,.141-.189c.034.012.049.03,0,.261l.273-.2a1.645,1.645,0,0,1-.241.386.819.819,0,0,1,.237-.148c.026.024.038.049-.126.236a2.457,2.457,0,0,1,.266.134l-.024.039c-.052,0-.226-.018-.324-.028l-.066-.007c.029,0,.183.19.2.205h0c-.006,0-.017,0-.032-.009a1.972,1.972,0,0,1-.279-.131c.013.01.013.076.013.126,0,.134,0,.159-.01.17l-.016.008Zm-.182-.327c.016,0,.019,0,.091.13.025.043.058.1.079.134,0-.03,0-.077,0-.115,0-.149,0-.165.025-.165a1.125,1.125,0,0,1,.226.127c-.066-.062-.146-.157-.14-.177a.138.138,0,0,1,.089-.007c.088.009.24.025.3.028a2,2,0,0,1-.253-.127c.062-.106.136-.2.14-.221-.016.018-.223.155-.285.2v0l0-.013a3.822,3.822,0,0,1,.291-.437l-.276.2a2.419,2.419,0,0,1,0-.242.843.843,0,0,1-.108.18c-.112.161-.114.161-.128.161s-.025,0-.057-.176c0,.1-.017.213-.07.224l-.072.015c-.077.017-.183.04-.241.048a1.12,1.12,0,0,1,.277.077,1.309,1.309,0,0,1-.2.126c.043-.011.094-.02.138-.027l.108-.018-.01.017,0,.006a2.223,2.223,0,0,0-.182.273,1.169,1.169,0,0,0,.182-.168c.044-.045.05-.051.061-.051Z"/><path class="cls-9" d="M28.114,16.788c.007.032.216.608.536.592s.451-.112.437-.12a.662.662,0,0,1-.228-.312,1.667,1.667,0,0,1-.092-.3Z"/><path class="cls-9" d="M29.257,16.564a3.161,3.161,0,0,0,.34.648.889.889,0,0,0,.451.136,1.914,1.914,0,0,1,.228,0s-.105-.056-.189-.368-.112-.416-.112-.416Z"/><path class="cls-9" d="M30.693,16.772a1.967,1.967,0,0,0,0,.52,1.444,1.444,0,0,0,.275.3.325.325,0,0,0,.281-.3,1.4,1.4,0,0,0-.092-.5Z"/><path class="cls-10" d="M27.892,16.044a.291.291,0,0,1,0,.112c-.013.048-.123.176-.123.28a.51.51,0,0,0,.528.432,2.015,2.015,0,0,0,.895-.272c-.007-.008-.953-.784-.966-.776s-.334.24-.334.224Z"/><path d="M28.314,16.887H28.3a.527.527,0,0,1-.547-.451.469.469,0,0,1,.088-.218.355.355,0,0,0,.036-.067.253.253,0,0,0,0-.1c.039-.029.223-.16.293-.21l.049-.034h0c.049,0,.983.772.99.78a1.658,1.658,0,0,1-.892.3Zm-.412-.825c.013.007.02.058.008.1a.333.333,0,0,1-.04.076.447.447,0,0,0-.082.2.5.5,0,0,0,.51.413l.016.019v-.019a2.039,2.039,0,0,0,.864-.265c-.015.025-.907-.722-.958-.746l-.034.033a2.357,2.357,0,0,1-.284.191Z"/><path class="cls-10" d="M30.524,16.6a1.963,1.963,0,0,0,.117.312c.033.032.046.1.052.1s.549.144.549.144a.5.5,0,0,0-.026-.328c-.079-.144-.372-.52-.372-.52Z"/><path d="M31.255,17.171l-.018,0s-.524-.14-.546-.144a.7.7,0,0,0-.063-.1,1.681,1.681,0,0,1-.122-.32l.325-.316a3.091,3.091,0,0,1,.4.525.51.51,0,0,1,.028.342l-.005.018Zm-.426-.859-.293.3a2.787,2.787,0,0,0,.118.285.214.214,0,0,1,.047.083,3.077,3.077,0,0,0,.527.147.459.459,0,0,0-.029-.3,6.28,6.28,0,0,0-.37-.518Z"/><path class="cls-10" d="M30.9,16.252c.013,0,.144.136.248.064a2.161,2.161,0,0,0,.274-.264.7.7,0,0,1-.248.048c-.1-.008-.268.16-.274.152Z"/><path d="M31.077,16.356a.308.308,0,0,1-.171-.075l-.067-.022.046-.022.009,0a.659.659,0,0,1,.273-.153.8.8,0,0,0,.245-.046c.013.038-.152.224-.257.3a.138.138,0,0,1-.078.024Zm-.176-.085h0c.081,0,.167.074.233.029a1.851,1.851,0,0,0,.232-.218.43.43,0,0,1-.176.038.454.454,0,0,0-.247.121l-.03.022a.02.02,0,0,1-.012.008Z"/><path class="cls-10" d="M27.873,16.076s-.039-.136-.143-.144-.3.016-.36-.048-.084-.216-.117-.208a.625.625,0,0,1-.124,0,.169.169,0,0,1,.052-.192c.092-.064.17-.008.222-.056a.383.383,0,0,1,.235-.088c.1-.008.274.16.353.2s.248.088.313.048a2.254,2.254,0,0,1,.562-.224c.13-.008.4-.016.509-.008a2.478,2.478,0,0,1,.64.144c.124.072.783.352.874.416a2.864,2.864,0,0,0,.294.16,2.565,2.565,0,0,1-.535.5,3.3,3.3,0,0,1-1.071.16,1.724,1.724,0,0,1-.849-.224c-.254-.16-.528-.312-.541-.392a1.016,1.016,0,0,1-.007-.184Z"/><path d="M29.677,16.762q-.054,0-.1,0a1.73,1.73,0,0,1-.857-.227l-.14-.087c-.247-.151-.4-.248-.41-.318a1.056,1.056,0,0,1-.007-.188l-.28.154c-.026-.013-.063-.135-.153-.142l-.07,0-.052-.019v.019a.39.39,0,0,1-.249-.051.412.412,0,0,1-.077-.143.237.237,0,0,0-.028-.061.48.48,0,0,1-.115,0,.162.162,0,0,1,.034-.227.234.234,0,0,1,.138-.037c.043,0,.065,0,.082-.017a.406.406,0,0,1,.246-.093h0a.537.537,0,0,1,.267.136.768.768,0,0,0,.095.066.468.468,0,0,0,.3.049,2.243,2.243,0,0,1,.57-.227c.131-.008.407-.015.512-.008a2.422,2.422,0,0,1,.648.147c.056.032.222.107.394.185.212.1.431.2.482.231a2.647,2.647,0,0,0,.291.159,1.869,1.869,0,0,1-.536.539,3.485,3.485,0,0,1-.978.164Zm-1.5-.839c.026.019.02.121.033.2.009.056.2.176.392.292l.141.087a1.7,1.7,0,0,0,.84.221,3.335,3.335,0,0,0,1.063-.158,2.533,2.533,0,0,0,.524-.494.893.893,0,0,1-.286-.138C30.83,15.9,30.6,15.8,30.4,15.7c-.174-.079-.341-.155-.4-.187a2.382,2.382,0,0,0-.632-.142c-.1-.008-.377,0-.506.008a2.248,2.248,0,0,0-.553.221.481.481,0,0,1-.332-.047.929.929,0,0,1-.1-.069.542.542,0,0,0-.236-.129.372.372,0,0,0-.23.083c-.028.025-.065.014-.095.027a.2.2,0,0,0-.129.031.154.154,0,0,0-.048.165.191.191,0,0,1,.064,0l.047,0c.028,0,.041.033.06.085a.391.391,0,0,0,.068.128.373.373,0,0,0,.223.041h.052l.073,0c.116.009.159.152.16.158l.281-.148Z"/><path class="cls-10" d="M27.469,15.556c-.014.008-.079.04-.066.056a.116.116,0,0,0,.118.056.439.439,0,0,0,.163-.064.423.423,0,0,0-.215-.048Z"/><path d="M27.5,15.688a.127.127,0,0,1-.111-.059c-.006-.046.015-.061.056-.084a.506.506,0,0,1,.244.042c0,.035-.088.091-.17.1Zm-.012-.114c-.053.021-.069.031-.072.037a.11.11,0,0,0,.084.039v.019l.015-.02a.376.376,0,0,0,.136-.05,1.071,1.071,0,0,0-.163-.025Z"/><path d="M27.462,15.572v.088s.091.032.091.008.007-.08-.013-.08a.206.206,0,0,1-.078-.016Z"/><path class="cls-1" d="M27.462,15.572v.088s.091.032.091.008.007-.08-.013-.08A.206.206,0,0,1,27.462,15.572Z"/><path class="cls-11" d="M28.375,15.638c.024-.05,0-.118.135-.2a.732.732,0,0,1,.367-.057.228.228,0,0,0-.07.127.4.4,0,0,0,.005.094.394.394,0,0,0-.224-.02.882.882,0,0,1-.213.053Z"/><path class="cls-12" d="M28.381,15.659l-.025-.02.013-.045a.228.228,0,0,1,.131-.17.809.809,0,0,1,.379-.059c.01.033-.051.091-.053.147a.4.4,0,0,0,0,.088c-.026.022-.1-.006-.171-.006a.217.217,0,0,0-.065.009,1.394,1.394,0,0,1-.213.056Zm.42-.259a.606.606,0,0,0-.282.057.191.191,0,0,0-.113.145l0,.016c.036-.008.106-.027.181-.051a.413.413,0,0,1,.21.011.218.218,0,0,1,0-.067.2.2,0,0,1,.048-.112Z"/><path class="cls-11" d="M28.976,15.361c-.014.009-.116.148-.1.19s.148.144.191.135.246-.127.257-.186.021-.139,0-.156a3.482,3.482,0,0,0-.348.017Z"/><path class="cls-12" d="M29.057,15.706a.344.344,0,0,1-.2-.15c-.015-.054.1-.2.113-.211l.107-.009c.072-.007.165-.015.215-.015l.049.011c.018.018.018.076,0,.171-.013.071-.224.193-.271.2Zm.254-.349c-.072,0-.163.01-.234.016-.046.005-.083.008-.1.008s-.1.137-.091.165a.327.327,0,0,0,.167.122v.019l0-.019c.045-.009.234-.126.243-.172a.337.337,0,0,0,.009-.139Z"/><path class="cls-11" d="M29.417,15.339a.385.385,0,0,0-.007.2,1.306,1.306,0,0,0,.2.223.712.712,0,0,0,.312-.054c.021-.034.082-.178.064-.212s-.074-.079-.244-.124a.79.79,0,0,0-.328-.031Z"/><path class="cls-12" d="M29.64,15.781l-.033,0a1.315,1.315,0,0,1-.214-.232.394.394,0,0,1,.009-.219.634.634,0,0,1,.347.024c.145.039.229.082.257.134s-.051.208-.065.231c-.027.044-.249.065-.3.065Zm-.143-.429a.728.728,0,0,0-.078,0,.779.779,0,0,0,.007.172,1.554,1.554,0,0,0,.193.213h.021a.8.8,0,0,0,.269-.047.481.481,0,0,0,.064-.193c-.016-.028-.069-.071-.233-.115a.966.966,0,0,0-.243-.036Z"/><path class="cls-11" d="M30.07,15.528a4.563,4.563,0,0,1,.427.286c.143.116.2.249.243.26s.209-.113.216-.147-.2-.215-.348-.3a2.135,2.135,0,0,0-.538-.1Z"/><path class="cls-12" d="M30.745,16.094h-.01c-.025-.007-.046-.036-.079-.08a1.02,1.02,0,0,0-.171-.184,4.21,4.21,0,0,0-.41-.276v0l-.01,0,.01,0c.01-.036.034-.035.066-.031a1.465,1.465,0,0,1,.475.095c.11.063.369.261.358.318a.434.434,0,0,1-.23.163Zm-.666-.544a1.434,1.434,0,0,1,.429.249,1.014,1.014,0,0,1,.177.191c.024.032.047.063.06.066h0a.459.459,0,0,0,.193-.133,1.389,1.389,0,0,0-.339-.277,1.48,1.48,0,0,0-.46-.09l-.06-.006Z"/><path class="cls-11" d="M30.019,15.65a2.541,2.541,0,0,0,.311.639c.054.02.372-.116.368-.161s-.088-.136-.284-.269a1.091,1.091,0,0,0-.4-.209Z"/><path class="cls-12" d="M30.345,16.31l-.021,0A2.566,2.566,0,0,1,30,15.672l.025-.042a1.441,1.441,0,0,1,.4.213c.13.088.285.209.292.283a.694.694,0,0,1-.371.184Zm-.318-.642a3.936,3.936,0,0,0,.311.6h.007a.826.826,0,0,0,.335-.145c0-.009-.021-.079-.276-.252a1.239,1.239,0,0,0-.377-.207Z"/><path class="cls-11" d="M29.673,15.868a1.375,1.375,0,0,0-.069.591,1.482,1.482,0,0,0,.605-.124c.02-.06-.222-.533-.294-.533a.433.433,0,0,0-.242.066Z"/><path class="cls-12" d="M29.638,16.482l-.044-.006c-.014-.009-.021-.031-.023-.076a1.5,1.5,0,0,1,.092-.548.451.451,0,0,1,.252-.069c.017,0,.044.011.1.093a1.217,1.217,0,0,1,.21.465c-.025.073-.492.141-.588.141Zm.277-.661a.432.432,0,0,0-.228.06,1.516,1.516,0,0,0-.071.564h.022a1.659,1.659,0,0,0,.553-.117,1.346,1.346,0,0,0-.2-.424c-.054-.079-.073-.082-.074-.082Z"/><path class="cls-11" d="M29.114,15.754a1.456,1.456,0,0,0-.02.6c.025.031.346.132.381.1a2.084,2.084,0,0,0,.048-.64c-.032-.042-.122-.144-.192-.152s-.184.082-.217.1Z"/><path class="cls-12" d="M29.442,16.472a.96.96,0,0,1-.363-.111,1.35,1.35,0,0,1,.022-.619.489.489,0,0,1,.22-.109c.1.012.2.146.217.161a1.937,1.937,0,0,1-.049.664l-.006.006-.041.008Zm-.114-.8a.4.4,0,0,0-.179.082,1.293,1.293,0,0,0-.04.584,1.043,1.043,0,0,0,.333.1v.019l.02-.022a2.233,2.233,0,0,0,.045-.614c-.035-.047-.119-.138-.178-.145Z"/><path class="cls-11" d="M28.389,15.746c-.053.051-.055.184,0,.206s.2.1.334.17.211.156.25.153a1.164,1.164,0,0,0,.035-.529.582.582,0,0,0-.279-.045,1.392,1.392,0,0,0-.343.045Z"/><path class="cls-12" d="M28.974,16.294c-.026,0-.056-.022-.1-.056a1.243,1.243,0,0,0-.153-.1l-.06-.031c-.114-.06-.224-.119-.273-.138a.09.09,0,0,1-.051-.073.192.192,0,0,1,.043-.165,1.424,1.424,0,0,1,.354-.05.611.611,0,0,1,.29.048c.053.036.016.425-.009.515l-.038.049Zm-.206-.575a1.522,1.522,0,0,0-.371.044.162.162,0,0,0-.027.126.059.059,0,0,0,.029.046c.049.019.161.078.277.139l.059.032a1.336,1.336,0,0,1,.158.1.269.269,0,0,0,.081.049v0a1.558,1.558,0,0,0,.024-.5.547.547,0,0,0-.231-.041Z"/><g class="cls-13"><path class="cls-14" d="M26.011,22.08c.094-.094.242-.322.441-.333a.707.707,0,0,1,.411.177s.21.872.2.872-.348.25-.358.25-.148-.343-.274-.312-.116.5-.137.467-.558-.675-.537-.7a2.512,2.512,0,0,0,.254-.425Z"/></g><g class="cls-15"><path class="cls-14" d="M31.566,21.965c.063-.01.348-.228.547-.218a.642.642,0,0,1,.421.2,1.529,1.529,0,0,1,.232.332s-.253.706-.273.706-.127.063-.148.011-.084-.219-.21-.239-.159.228-.159.228Z"/></g><g class="cls-16"><path class="cls-17" d="M31.7,22.183c0,.063.389,1.039,1.021,1.226s.831-.176.9-.3.337-.114.337-.114a4.174,4.174,0,0,1-.168,1.028.8.8,0,0,1-.779.374,2.132,2.132,0,0,1-1.3-.727,3.358,3.358,0,0,1-.5-.8c-.095-.2.5-.665.494-.686Z"/></g><g class="cls-18"><path class="cls-17" d="M24.843,24.126a.951.951,0,0,0,.683.27,2.18,2.18,0,0,0,1.4-.686,3.564,3.564,0,0,0,.474-.862s-.463-.831-.474-.831a3.425,3.425,0,0,1-.136.447,1.635,1.635,0,0,1-.705.831c-.389.156-.389.218-.547.2a2.142,2.142,0,0,1-.568-.28c0-.011-.2.488-.2.488s-.042.322.074.426Z"/></g><g class="cls-19"><path class="cls-17" d="M26,22.05c-.03,0-.774.412-.744.588a4.6,4.6,0,0,0,3.958,2.7c2.678.03,4.316-2.262,4.2-2.644s-.952-.823-.952-.823a.521.521,0,0,1,.179.412,3.386,3.386,0,0,1-3.274,2.2,3.817,3.817,0,0,1-3.422-2.056c0-.206.119-.323.059-.383Z"/></g><g class="cls-20"><path class="cls-14" d="M33.26,23.866c.064-.052.453-1.132.674-1.1s.147.353.126.436-.242.832-.242.832.011-.177-.136-.219-.39.073-.422.052Z"/></g><g class="cls-21"><path class="cls-14" d="M24.843,24.137c0-.059-.18-.265.029-.323a.845.845,0,0,1,.476.058,7.214,7.214,0,0,0-.327-.793c-.178-.353-.239-.294-.387-.235s-.146.214-.056.449.265.9.265.844Z"/></g><polygon class="cls-22" points="27.298 22.122 27.556 21.235 26.838 20.677 27.738 20.656 28.03 19.78 28.328 20.654 29.226 20.671 28.511 21.232 28.773 22.118 28.034 21.591 27.298 22.122"/><path class="cls-5" d="M32.144,17.5v3.414a4.028,4.028,0,0,1-2.787,3.413,4.026,4.026,0,0,1-2.785-3.413V17.5Z"/><g class="cls-23"><path class="cls-14" d="M26.572,17.5l.005,2.136s.026-.044.393-.017.4.471.8.471.4-.471.8-.471.4.471.795.471.4-.471.8-.471.4.471.818.5c.375-.026.375-.5.775-.524l.4.027V17.5Z"/></g><path d="M30.972,20.139h0a.582.582,0,0,1-.431-.265.437.437,0,0,0-.77,0,.472.472,0,0,1-.825,0,.437.437,0,0,0-.767,0,.513.513,0,0,1-.412.243.559.559,0,0,1-.435-.245.532.532,0,0,0-.363-.226c-.325-.024-.376.01-.377.011L26.553,17.5l5.591-.019.018,2.138-.416-.008a.519.519,0,0,0-.386.261.528.528,0,0,1-.387.263Zm-.818-.535a.517.517,0,0,1,.414.245.554.554,0,0,0,.4.252.5.5,0,0,0,.359-.248.553.553,0,0,1,.415-.276l.4.027-.02-2.1-5.553.019.024,2.1c.023-.028.14-.033.375-.016a.567.567,0,0,1,.387.238.522.522,0,0,0,.408.233.482.482,0,0,0,.384-.229.472.472,0,0,1,.824,0,.436.436,0,0,0,.768,0,.512.512,0,0,1,.412-.242Z"/><g class="cls-24"><path class="cls-25" d="M26.572,20.329v.706h.4c.366.027.4.471.8.471s.4-.471.8-.471.4.471.795.471.4-.471.8-.471.375.444.8.471c.375-.027.4-.444.8-.471h.4v-.706h-.4c-.4,0-.4.471-.8.471s-.4-.471-.8-.471-.4.471-.8.471-.4-.471-.795-.471-.4.471-.8.471-.4-.471-.8-.471Z"/></g><g class="cls-26"><path class="cls-25" d="M26.692,21.742l.278.706c.366.027.4.47.8.47s.4-.47.8-.47.4.47.795.47.4-.47.8-.47.375.444.8.47c.375-.026.387-.443.787-.47l.287-.717-.277.011c-.4,0-.4.47-.8.47s-.4-.47-.8-.47-.4.47-.8.47-.4-.47-.795-.47-.4.47-.8.47-.4-.47-.8-.47Z"/></g><g class="cls-27"><path class="cls-25" d="M29.357,24.331a3.684,3.684,0,0,0,1.3-.706c.008,0-.107-.471-.5-.471s-.4.471-.8.471-.4-.471-.795-.471-.5.471-.5.471a3.571,3.571,0,0,0,1.3.706Z"/></g><g class="cls-28"><path class="cls-22" d="M27.3,19.133a5.32,5.32,0,0,0,.744.041c.293-.02.406-.12.406-.14v-.059h.384s.068.278.023.3-.159.1-.181.1,0-.14-.046-.1a.3.3,0,0,0-.067.1s-.045-.06-.068-.06-.067.06-.067.06,0-.06-.023-.06a.685.685,0,0,0-.135.1l-.113-.08s-.068.1-.091.1a1.036,1.036,0,0,1-.157-.079l-.226.119s0-.179-.045-.159a1.769,1.769,0,0,1-.293.019s-.068.12-.091.12-.113-.1-.09-.1.068-.06.045-.08-.135,0-.135-.02-.045-.139-.023-.139a1.123,1.123,0,0,1,.113.019v-.119h.113Z"/></g><path d="M27.673,19.491v-.019c0-.084-.015-.149-.027-.149a1.556,1.556,0,0,1-.3.021c-.023.051-.066.12-.091.12s-.105-.085-.105-.108A.134.134,0,0,0,27.2,19.3c-.021-.065-.139-.012-.139-.046-.027-.1-.034-.131-.024-.145a.452.452,0,0,1,.128.014l-.014-.108L27.278,19l.034.129c0-.01.031-.006.076,0a4.346,4.346,0,0,0,.656.032c.291-.02.392-.116.4-.129v-.058l.4-.012c.032.095.076.3.027.321a.741.741,0,0,0-.082.047c-.141.086-.124.051-.128,0a.141.141,0,0,0-.008-.049.279.279,0,0,0-.069.1c-.085-.053-.093-.056-.137,0-.021-.033-.028-.056-.032-.056a.715.715,0,0,0-.127.1l-.128-.079c-.01.036-.059.1-.084.1a.82.82,0,0,1-.163-.081l-.231.128Zm-.037-.189c.049,0,.058.093.06.15l.208-.11a1.4,1.4,0,0,0,.163.078.349.349,0,0,0,.081-.094l.13.077a.347.347,0,0,1,.128-.1c.025,0,.032.034.034.057,0-.025.035-.057.056-.057s.055.036.071.056a.164.164,0,0,1,.057-.093c.048-.012.049.026.052.06s.06.006.092-.013a.808.808,0,0,1,.085-.049.6.6,0,0,0-.029-.285l-.373.009.012.048c0,.034-.128.132-.417.151a4.158,4.158,0,0,1-.661-.032l-.084-.008-.035-.129-.1.01.012.107a.62.62,0,0,1-.125-.008c0,.007.017.056.024.08a.247.247,0,0,1,.011.048.265.265,0,0,1,.047,0c.042,0,.07,0,.084.013,0,.07-.032.1-.053.1a.8.8,0,0,0,.09.075.464.464,0,0,0,.081-.114,2.409,2.409,0,0,0,.3-.024Z"/><g class="cls-29"><path class="cls-22" d="M27.707,18a.388.388,0,0,0-.158.338c.022.18.406.438.406.438s.2-.079.271,0a.434.434,0,0,1,.045.319c-.023,0-.293.06-.293.02s0-.08-.023-.08-.271.02-.271.02l.023-.079-.226-.041.09-.079s-.361-.139-.338-.139a1.047,1.047,0,0,0,.158-.08l-.271-.159h.158a1.561,1.561,0,0,1-.2-.159c.023,0,.135.019.135.019l-.068-.159h.068l-.068-.119.113-.04.068.1L27.3,17.88l.157.02v.2a.919.919,0,0,0,.068-.14c0-.02.2.08.181.04Z"/></g><path d="M28.021,19.139c-.02,0-.055,0-.055-.025s0-.068-.011-.068-.27.02-.27.02l.011-.095-.217-.025.085-.1c-.347-.115-.346-.12-.344-.132.026-.011.1-.05.165-.088l-.271-.139.164-.022c-.222-.13-.219-.14-.216-.15a.685.685,0,0,1,.15.011l-.081-.143.079-.017-.078-.1.119-.057.082.1-.044-.231.171.007.01.211a1.1,1.1,0,0,1,.044-.14c.03-.014.056,0,.1.01a.76.76,0,0,0,.081.027.514.514,0,0,0-.133.34c.022.169.389.42.4.429,0-.006.216-.066.274,0a.5.5,0,0,1,.052.326.177.177,0,0,1-.066.021,1.607,1.607,0,0,1-.2.025Zm-.066-.117c.034,0,.034.047.034.092l.032,0a1.389,1.389,0,0,0,.2-.026l.054-.008a.513.513,0,0,0-.054-.3c-.05-.058-.257,0-.258,0-.026-.012-.4-.265-.422-.447a.419.419,0,0,1,.14-.336c-.017.01-.045,0-.073-.011a.392.392,0,0,0-.073-.024.494.494,0,0,1-.063.137l-.022-.205-.147-.009.036.226-.089-.091-.1.044.074.1-.078.018.079.143c-.012.016-.117,0-.144,0a1.528,1.528,0,0,1,.208.138l-.165.022.277.137a.476.476,0,0,1-.159.1,2.423,2.423,0,0,1,.337.117l-.087.1.221.02-.013.092a1.456,1.456,0,0,1,.259-.033Z"/><g class="cls-30"><path d="M31.2,19.233c-.028.025-.113.08-.113.08l.186-.015a.285.285,0,0,1-.073-.065Z"/></g><g class="cls-31"><path d="M31.368,19.328c-.011.015-.045.169-.023.159a.906.906,0,0,0,.113-.125Z"/></g><g class="cls-32"><path d="M31.627,19.347c.028.025.158.14.141.115s-.034-.13-.045-.134-.084.029-.1.019Z"/></g><g class="cls-33"><path d="M29.354,19.183c-.017,0-.158.1-.158.1s.237-.04.226-.04-.074-.045-.068-.06Z"/></g><g class="cls-34"><path d="M29.5,19.3c-.022.02-.1.159-.067.154a1,1,0,0,0,.152-.1Z"/></g><g class="cls-35"><path d="M29.41,19.109c-.017-.006-.135-.055-.129-.055s.157-.035.157-.035Z"/></g><g class="cls-36"><polygon points="27.176 19.044 27.007 18.924 27.221 18.984 27.176 19.044"/></g><g class="cls-37"><path d="M27.03,19.123a1.761,1.761,0,0,0-.232.12c.006,0,.3.005.294,0s-.051-.11-.062-.12Z"/></g><g class="cls-38"><path d="M27.165,19.3a1.353,1.353,0,0,0-.18.124c.011,0,.254,0,.254,0a1.35,1.35,0,0,0-.074-.124Z"/></g><g class="cls-39"><path d="M27.142,18.058a1.346,1.346,0,0,1-.056-.139c.006,0,.158.11.158.11Z"/></g><g class="cls-40"><path d="M27.312,17.885c0-.006.016-.09.016-.09s.153.1.148.1a.623.623,0,0,1-.164-.015Z"/></g><g class="cls-41"><path d="M27.549,17.949c0-.005.017-.129.017-.129a1.334,1.334,0,0,1,.13.174.33.33,0,0,1-.147-.045Z"/></g><g class="cls-42"><path class="cls-22" d="M29.811,18.82c0,.01.237.179.243.219s-.429.05-.429.05-.125-.085-.164-.08-.057.09-.057.09l.1.049-.191.01.055.095.147-.01-.033.089s.09.06.107.05.074-.1.118-.114a.622.622,0,0,1,.141-.015s-.073.109-.039.109A.887.887,0,0,0,30,19.248a.879.879,0,0,0,.039.1c.006,0,.113-.119.113-.119s0,.095.017.095a1.559,1.559,0,0,0,.175-.12s.124.139.141.129.034-.149.051-.149a.683.683,0,0,0,.124-.02.26.26,0,0,1-.079-.124,1.975,1.975,0,0,1,.006-.234c-.006,0-.762.025-.773.01Z"/></g><path d="M29.586,19.4a.357.357,0,0,1-.109-.053l.03-.1-.136.026-.066-.1.2-.027-.107-.028c0-.022.014-.106.06-.112h0a.5.5,0,0,1,.171.082,1.729,1.729,0,0,0,.412-.043,1.307,1.307,0,0,0-.174-.151c-.068-.055-.07-.057-.07-.065.02-.01.035-.007.118-.007.183,0,.548-.011.643-.014.037.008.037.011.033.063a1,1,0,0,0,0,.18.216.216,0,0,0,.067.108c.013.042-.121.05-.123.05l-.015.066c-.012.053-.019.075-.03.082h0c-.034,0-.111-.083-.155-.132a.6.6,0,0,1-.166.123c-.009,0-.028,0-.028-.106-.09.131-.1.131-.1.131s-.013,0-.05-.113a.415.415,0,0,1-.175.123c-.028-.03,0-.083.023-.118-.021.01-.087.012-.122.023a.271.271,0,0,0-.082.078l-.044.038Zm-.069-.164-.023.106c.027.006.076.034.091.034.053-.061.088-.1.12-.115a.642.642,0,0,1,.145-.015,1.09,1.09,0,0,0-.036.112,1.15,1.15,0,0,0,.176-.115.669.669,0,0,1,.054.106.632.632,0,0,1,.1-.119c.02.047.024.086.03.092s.09-.063.163-.119a1.446,1.446,0,0,0,.146.128s.01-.041.015-.066c.014-.06.021-.084.038-.084a1.014,1.014,0,0,0,.118-.017.154.154,0,0,1-.085-.113.978.978,0,0,1,0-.186c0-.021,0-.043,0-.047-.127.015-.63.027-.732.023a.273.273,0,0,1,.042.03c.118.093.178.145.182.171-.035.051-.346.062-.44.064a.587.587,0,0,0-.161-.08c-.025,0-.043.055-.048.08l.095.037-.2.032.065.077.137-.016Z"/><g class="cls-43"><path class="cls-22" d="M28.609,18.517h2.212c.225,0,.429-.08.429-.2s-.362-.14-.5-.1a3.854,3.854,0,0,1-.97.259c-.249-.02-.474-.159-.5-.3s.113-.259.361-.259.564.08.632.06.226-.179.293-.2a2.446,2.446,0,0,1,.271-.04l-.09.06.293-.06a1.258,1.258,0,0,1-.451.279,4.475,4.475,0,0,1-.88.04c-.181,0-.271-.02-.248.1a.242.242,0,0,0,.271.179c.112-.019.451-.119.451-.119l-.091-.06.407-.02s-.023-.059,0-.059.225.02.225.02-.135-.06-.112-.06a2.627,2.627,0,0,1,.293.02c.18.02.564.079.541.239a.34.34,0,0,1-.316.3c-.158,0-.293-.04-.293.02s.18.1.293.1a.971.971,0,0,0,.271-.08c.023,0,.068.119.091.119s.157-.039.157-.039l-.089.218.157.041s-.09.079-.068.079.159,0,.159.02-.181.139-.181.159.135.08.135.08-.09.119-.113.1-.113-.119-.113-.119-.022.08-.067.08a.907.907,0,0,1-.136-.02s.068-.12.046-.12-.135.08-.135.06l-.068-.06s.18-.065.18-.159-.073-.189-.4-.2-.332.069-.575.06-.243-.095-.423-.095-.739.2-1,.194a5.1,5.1,0,0,1-.576-.03c.012-.01.215-.467.22-.482Z"/></g><path d="M31.662,19.426l-.014,0c-.02-.017-.087-.091-.108-.114,0,.02-.021.077-.065.077a.88.88,0,0,1-.138-.02c.017-.06.042-.114.04-.125,0,.006-.032.024-.053.036a.215.215,0,0,1-.071.033l-.079-.066c.006-.021.176-.083.176-.168,0-.118-.127-.181-.389-.193h-.072a.958.958,0,0,0-.261.033.726.726,0,0,1-.2.029.683.683,0,0,1-.285-.056.392.392,0,0,0-.176-.039,2.328,2.328,0,0,0-.4.082,2.944,2.944,0,0,1-.585.112,3.8,3.8,0,0,1-.6-.037c.016-.031.211-.466.22-.491l2.223-.008c.234,0,.417-.082.417-.187s-.349-.128-.482-.088c-.029.008-.08.026-.143.049a3.159,3.159,0,0,1-.8.211c-.283-.021-.516-.163-.54-.31a.188.188,0,0,1,.044-.155c.118-.141.472-.115.732-.077a1.745,1.745,0,0,0,.2.022.439.439,0,0,0,.171-.1.608.608,0,0,1,.15-.1,2.568,2.568,0,0,1,.273-.041l-.083.082.285-.081a.89.89,0,0,1-.446.3,2.421,2.421,0,0,1-.562.044l-.439,0c-.058,0-.1,0-.112.023a.076.076,0,0,0-.006.063.23.23,0,0,0,.223.173c.146-.023.483-.122.483-.122l-.093-.039.412-.042c-.007.009-.028-.034-.016-.05a1.81,1.81,0,0,1,.243.011c-.131-.033-.129-.039-.127-.049a1.04,1.04,0,0,1,.308.009.915.915,0,0,1,.529.171.106.106,0,0,1,.023.081.354.354,0,0,1-.328.309c-.051,0-.1,0-.142-.008-.108-.009-.139,0-.139.016,0,.044.161.088.281.088a.6.6,0,0,0,.217-.061c.09-.038.073-.017.11.047a.207.207,0,0,0,.036.054c.014,0,.1-.025.153-.04l-.076.235.15.024c-.026.047-.06.081-.063.09.163-.01.163.008.162.021s-.019.03-.095.089a.561.561,0,0,0-.086.073,1.023,1.023,0,0,0,.129.066c-.014.043-.079.124-.111.124Zm-.13-.137c.023,0,.107.093.13.114a.344.344,0,0,0,.1-.1c-.138-.044-.138-.065-.138-.072s.019-.03.1-.089a.514.514,0,0,0,.086-.073s-.042-.005-.147-.005c-.017-.017-.021-.029.061-.1l-.153-.02.08-.231a.366.366,0,0,1-.145.052c-.018,0-.032-.024-.056-.065a.215.215,0,0,0-.036-.054.291.291,0,0,0-.043.017.639.639,0,0,1-.227.062c-.109,0-.3-.037-.3-.111,0-.045.055-.045.078-.045s.054,0,.087.006.09.007.14.007a.33.33,0,0,0,.3-.288.085.085,0,0,0-.018-.064c-.077-.1-.354-.144-.513-.161-.139-.015-.223-.019-.266-.02a.922.922,0,0,1,.091.037c-.006.022-.208,0-.23,0a.143.143,0,0,0,.01.043l-.416.036.1.038a2.161,2.161,0,0,1-.455.141.276.276,0,0,1-.285-.189.1.1,0,0,1,.012-.083c.021-.026.064-.031.13-.031l.439,0a2.433,2.433,0,0,0,.556-.043,1.256,1.256,0,0,0,.446-.275l-.283.08.072-.072c-.041.018-.194.035-.251.052a.639.639,0,0,0-.143.1.639.639,0,0,1-.151.1,1.21,1.21,0,0,1-.235-.02c-.253-.037-.6-.064-.711.07a.164.164,0,0,0-.039.135c.022.135.25.27.487.289h0a2.994,2.994,0,0,0,.818-.209c.064-.023.115-.04.144-.049a.682.682,0,0,1,.174-.019c.125,0,.338.027.338.13,0,.137-.227.21-.44.21H28.609c.006,0-.2.466-.212.48.019-.01.312,0,.568.009h0a2.879,2.879,0,0,0,.589-.111,2.2,2.2,0,0,1,.409-.083.415.415,0,0,1,.185.041.576.576,0,0,0,.239.054.792.792,0,0,0,.235-.027.949.949,0,0,1,.267-.035l.073,0c.277.012.412.083.412.216,0,.1-.181.167-.188.17l.071.04a.5.5,0,0,0,.056-.03.226.226,0,0,1,.072-.033c.021.022.006.064-.032.132a1.036,1.036,0,0,1,.122.008c.03,0,.05-.052.056-.071Z"/><g class="cls-44"><path class="cls-22" d="M28.181,18.4c-.023.01-.221.035-.232.219s.017.184.04.174.067-.169.067-.169-.067.219.006.269a.516.516,0,0,0,.152.069l.028-.174s-.056.169.08.229.186.015.174-.03-.05-.159-.05-.159.107.1.112.115a.162.162,0,0,0,.193.054c.135-.035.039-.114.039-.114l-.164-.12s.169.154.243.1-.057-.175-.051-.169.107.169.147.064-.063-.134-.1-.234-.063-.109-.029-.169a.5.5,0,0,0,.04-.174s.141.03.13-.075-.152-.129-.181-.134-.023-.11-.034-.1-.1.064-.1.064-.079-.164-.1-.154-.108.095-.175.1-.108.09-.108.09-.236-.1-.23.065.141.124.141.129a.956.956,0,0,1-.045.239Z"/></g><path d="M28.433,19.059a.293.293,0,0,1-.116-.029.154.154,0,0,1-.087-.091l0,.027a.278.278,0,0,1-.17-.061.16.16,0,0,1-.038-.145c-.012.04-.02.044-.024.046-.052-.019-.065-.051-.057-.186a.262.262,0,0,1,.223-.225c.028-.018.048-.171.053-.22a.38.38,0,0,1-.028.238c-.072.019-.215.057-.224.209-.008.123,0,.155.011.163.02-.007.042-.056.07-.151,0,.1-.018.221.027.251a.514.514,0,0,0,.148.068l0-.082v-.009h0a.319.319,0,0,1,.012-.075v0c.022.007.012.037.011.075h0a.14.14,0,0,0,.084.143c.075.033.135.036.154.011a1.021,1.021,0,0,0-.045-.185.463.463,0,0,1,.134.105.165.165,0,0,0,.179.049c.037-.01.059-.024.062-.041s-.027-.053-.027-.053l-.056-.04a.774.774,0,0,1-.109-.08h0c.014-.019.064.027.12.059h0a.193.193,0,0,0,.089.031c.041-.016.068-.036.032-.1a.48.48,0,0,1-.047-.056v0L28.81,18.7l.009,0c.018-.015.054.035.063.049s.037.027.045.027c.048-.085.023-.117-.01-.157a.284.284,0,0,1-.059-.1c-.01-.028-.019-.049-.026-.066a.1.1,0,0,1,0-.113.5.5,0,0,0,.039-.169v-.011l.053,0a.092.092,0,0,0,.066-.021A.059.059,0,0,0,29,18.11c-.01-.084-.112-.114-.172-.124-.025,0-.03-.046-.035-.082,0-.02-.091.04-.092.04a1.545,1.545,0,0,0-.1-.153.372.372,0,0,1-.173.1c-.06.005-.1.083-.1.083-.016,0-.085-.023-.145-.023a.091.091,0,0,0-.067.022.075.075,0,0,0-.017.06c0,.079.036.119.1.119a.026.026,0,0,1,.011.012c-.094.009-.133-.04-.136-.13a.1.1,0,0,1,.024-.077c.048-.051.2-.008.221,0a.127.127,0,0,1,.1-.091.351.351,0,0,0,.148-.081c.036-.018.056-.018.132.139a.364.364,0,0,1,.087-.066l.015-.006.01.049c0,.015.008.058.016.061.067.011.18.045.191.144a.081.081,0,0,1-.017.063.107.107,0,0,1-.083.029l-.042,0a.275.275,0,0,1-.029.168c-.022.037-.016.05,0,.092a.652.652,0,0,1,.027.067.274.274,0,0,0,.055.089.141.141,0,0,1,.041.153c-.021.056-.05.049-.076.035a.067.067,0,0,1-.024.075l-.046.014-.022,0a.08.08,0,0,1,.025.067c-.006.026-.032.046-.08.058a.19.19,0,0,1-.205-.06,1.215,1.215,0,0,0-.085-.088.745.745,0,0,1,.045.123v.006l-.01.041a.077.077,0,0,1-.066.026Z"/><g class="cls-45"><path d="M28.311,18.15c.027-.009.067-.043.113-.039s.12.04.084.06a.135.135,0,0,1-.105.018.431.431,0,0,1-.092-.039Z"/></g><g class="cls-46"><path d="M28.772,18.145c-.027-.008-.068-.043-.114-.039s-.121.04-.083.06a.129.129,0,0,0,.105.018.482.482,0,0,0,.092-.039Z"/></g><g class="cls-47"><path class="cls-48" d="M28.414,18.439a1.336,1.336,0,0,0,.034.219,2,2,0,0,0,.09-.214.516.516,0,0,1-.124,0Z"/></g><path d="M28.447,18.666c-.011,0-.015-.007-.031-.154,0-.034-.007-.063-.009-.071s.02,0,.069,0h.056c.019.017-.078.223-.079.225l-.006,0Zm-.031-.218a.153.153,0,0,1,.014.062c0,.042.012.108.018.133.02-.04.082-.186.084-.2l-.056.008a.276.276,0,0,1-.06,0Z"/><path d="M28.5,18.505h-.018a.345.345,0,0,0-.07-.01c-.034,0-.069,0-.068-.05,0-.088.067-.068.152-.058a.189.189,0,0,1,.139.061c-.01.038-.082.057-.135.057Zm-.08-.1c-.04,0-.047.011-.048.038s0,.017.042.019a.361.361,0,0,1,.072.011H28.5a.264.264,0,0,0,.113-.025.431.431,0,0,0-.121-.037c-.028,0-.053-.006-.072-.006Z"/><path class="cls-1" d="M28.493,18.3l-.011.094Z"/><path d="M28.876,18.166c0-.041.033-.055.039-.07a.115.115,0,0,0-.051-.036l.014-.035c.015.006.089.039.072.084s-.068.055-.074.057Z"/><path class="cls-1" d="M28.256,18.018a.069.069,0,0,0-.051.055c-.011.039.051.065.051.065Z"/><path d="M28.488,18.316c-.035,0-.083,0-.095-.036s.02-.062.027-.068l.024.028c-.01.009-.018.023-.016.026s.006.012.06.012.055-.008.055-.008l0-.053c.012.008.049.035.04.065s-.053.034-.09.034Z"/><polygon class="cls-22" points="28.731 23.732 28.965 22.951 28.314 22.46 29.129 22.441 29.396 21.671 29.665 22.44 30.481 22.455 29.832 22.949 30.07 23.729 29.399 23.265 28.731 23.732"/><g class="cls-49"><polygon class="cls-50" points="28.842 23.523 29.037 22.903 28.495 22.512 29.175 22.497 29.396 21.885 29.62 22.497 30.3 22.508 29.759 22.901 29.958 23.52 29.399 23.151 28.842 23.523"/></g><polygon class="cls-22" points="27.388 22.15 27.621 21.411 26.977 20.947 27.783 20.929 28.046 20.2 28.313 20.928 29.12 20.942 28.478 21.409 28.713 22.147 28.05 21.708 27.388 22.15"/><g class="cls-51"><polygon class="cls-50" points="27.499 21.952 27.692 21.365 27.155 20.996 27.827 20.983 28.046 20.403 28.268 20.982 28.941 20.993 28.406 21.364 28.603 21.95 28.05 21.601 27.499 21.952"/></g><polygon class="cls-22" points="30.093 22.15 30.327 21.411 29.675 20.947 30.492 20.929 30.759 20.2 31.029 20.928 31.846 20.942 31.196 21.409 31.434 22.147 30.762 21.708 30.093 22.15"/><g class="cls-52"><polygon class="cls-50" points="30.204 21.952 30.399 21.365 29.856 20.996 30.537 20.983 30.759 20.403 30.984 20.982 31.665 20.993 31.123 21.364 31.322 21.95 30.762 21.601 30.204 21.952"/></g><path d="M25.467,22.773l.4-.23.038.084-.158.09.052.116.158-.091.038.085-.4.23-.039-.084.183-.1-.052-.116-.183.105-.037-.085Zm.168.358.376-.282.128.217-.062.047L26,22.974l-.087.065.076.13-.06.044-.075-.129-.1.078.084.142-.064.047-.13-.22Zm.262.409.331-.345.057.069-.13.135.078.1.13-.136.058.069-.332.346-.057-.069.15-.157-.078-.095-.15.156L25.9,23.54Zm.433.205.054.053.1-.187-.151.134Zm-.211.064.375-.307.085.084-.221.458-.068-.067.058-.113-.073-.071-.091.079-.065-.063Zm.327.307.223-.342-.078-.065.045-.067.223.185-.044.067-.078-.064-.223.342-.068-.056Zm.183.149.235-.434.072.048-.092.171.1.068.092-.171.072.049-.235.435-.072-.049.106-.2-.1-.068-.106.2-.072-.049Zm.443.283.189-.461.215.111-.031.076-.138-.072-.045.109.13.068-.031.074-.129-.068-.084.2-.076-.041Zm.418-.069a.565.565,0,0,0-.037.153.054.054,0,0,0,.035.049.044.044,0,0,0,.054-.01.6.6,0,0,0,.062-.144.613.613,0,0,0,.039-.154.053.053,0,0,0-.035-.049.043.043,0,0,0-.055.011.529.529,0,0,0-.063.144Zm-.08-.035a1.2,1.2,0,0,1,.047-.118.2.2,0,0,1,.043-.06.112.112,0,0,1,.059-.027.148.148,0,0,1,.072.015.173.173,0,0,1,.063.042.15.15,0,0,1,.029.065.24.24,0,0,1,0,.077.83.83,0,0,1-.034.124.719.719,0,0,1-.047.117.171.171,0,0,1-.042.06.1.1,0,0,1-.059.028.151.151,0,0,1-.073-.015.158.158,0,0,1-.062-.043.125.125,0,0,1-.028-.065.2.2,0,0,1,0-.076,1.222,1.222,0,0,1,.035-.124Zm.388-.108.081.027-.087.329a.2.2,0,0,0-.008.081.057.057,0,0,0,.039.034.044.044,0,0,0,.048-.006.173.173,0,0,0,.032-.073l.087-.328.079.027-.089.337a.277.277,0,0,1-.024.069.1.1,0,0,1-.083.058.187.187,0,0,1-.071-.01.15.15,0,0,1-.095-.071.213.213,0,0,1,0-.137l.088-.337Zm.217.6.1-.5.085.022.045.376.067-.348.078.02-.1.5-.084-.022-.046-.377-.067.349-.077-.02Zm.441.025.037.007a.116.116,0,0,0,.04,0,.037.037,0,0,0,.02-.012.152.152,0,0,0,.024-.051.639.639,0,0,0,.02-.108.652.652,0,0,0,.009-.108.106.106,0,0,0-.012-.053.035.035,0,0,0-.017-.015.129.129,0,0,0-.036-.011l-.035-.006-.05.355Zm-.092.06.071-.5.133.024a.223.223,0,0,1,.064.019.1.1,0,0,1,.036.033.14.14,0,0,1,.024.071.534.534,0,0,1-.007.124,1.108,1.108,0,0,1-.028.15.234.234,0,0,1-.033.071.084.084,0,0,1-.048.036.261.261,0,0,1-.1,0l-.115-.02Zm.35.058.044-.506.23.025-.007.084-.148-.016-.01.117.137.015-.006.08-.137-.015-.012.14.151.016-.008.086-.234-.026Zm.381-.041.038,0a.136.136,0,0,0,.04,0,.034.034,0,0,0,.018-.015.122.122,0,0,0,.018-.054.744.744,0,0,0,.009-.11.688.688,0,0,0,0-.108A.113.113,0,0,0,29.2,24.7a.035.035,0,0,0-.019-.012.1.1,0,0,0-.036,0l-.036,0-.012.359Zm-.084.072.016-.509.135.006a.226.226,0,0,1,.066.011.089.089,0,0,1,.039.027.147.147,0,0,1,.031.068.519.519,0,0,1,.006.123,1.236,1.236,0,0,1-.011.153.236.236,0,0,1-.025.075.091.091,0,0,1-.046.043.261.261,0,0,1-.1.008l-.116,0Zm.5.007-.018-.509.084,0,.018.509-.084,0Zm.225-.014-.032-.423-.1.009-.006-.084.277-.026.006.084-.1.009.03.424-.083.007Zm.3-.545.083-.017.052.338a.166.166,0,0,0,.025.077.047.047,0,0,0,.048.012.054.054,0,0,0,.04-.03.155.155,0,0,0,0-.082l-.052-.337.082-.016.053.346a.33.33,0,0,1,.006.075.123.123,0,0,1-.01.044.122.122,0,0,1-.041.049.167.167,0,0,1-.068.027.133.133,0,0,1-.113-.016.205.205,0,0,1-.052-.124l-.053-.346Zm.45.129.033-.01a.076.076,0,0,0,.05-.031.094.094,0,0,0,0-.062.087.087,0,0,0-.027-.053.068.068,0,0,0-.057,0l-.036.009.033.148Zm-.02.3-.107-.495.142-.039a.117.117,0,0,1,.1.007.154.154,0,0,1,.051.1.175.175,0,0,1-.006.118.125.125,0,0,1-.085.061l-.06.016.045.21-.081.023Zm.323-.359a.516.516,0,0,0,.054.146.045.045,0,0,0,.055.015.051.051,0,0,0,.037-.046.563.563,0,0,0-.03-.156.552.552,0,0,0-.056-.148.044.044,0,0,0-.054-.014.05.05,0,0,0-.036.047.526.526,0,0,0,.03.156Zm-.082.029a.963.963,0,0,1-.028-.125.176.176,0,0,1,0-.077.134.134,0,0,1,.031-.063.159.159,0,0,1,.064-.039.154.154,0,0,1,.073-.01.107.107,0,0,1,.058.031.2.2,0,0,1,.04.063,1.178,1.178,0,0,1,.041.121,1.068,1.068,0,0,1,.028.125.245.245,0,0,1,0,.077.137.137,0,0,1-.1.1.15.15,0,0,1-.072.01.109.109,0,0,1-.058-.032.173.173,0,0,1-.04-.061.9.9,0,0,1-.041-.122Zm.413.117-.168-.473.08-.036.226.281-.119-.329.074-.034.168.473-.08.036-.228-.281.12.329-.073.034Zm.523-.261-.177-.375-.085.05-.035-.074.246-.146.035.074-.086.051.176.376-.074.044Zm.2-.12-.241-.43.07-.05.095.168.1-.069-.094-.169.07-.05.241.43-.07.05-.109-.2-.1.07.109.2-.07.05Zm.3-.22-.272-.406.185-.158.045.068-.118.1.062.094.111-.094.043.064-.11.094.075.112.121-.1.046.069-.188.16Zm.232-.436.06-.067.021.023a.114.114,0,0,0,.047.038.039.039,0,0,0,.036-.017.058.058,0,0,0,0-.086.062.062,0,0,0-.032-.02.136.136,0,0,0-.055,0l-.053.01a.226.226,0,0,1-.095,0,.109.109,0,0,1-.055-.039.143.143,0,0,1-.039-.1.153.153,0,0,1,.044-.1.122.122,0,0,1,.092-.049.131.131,0,0,1,.093.053l.007.008,0,0-.058.064-.008-.01a.085.085,0,0,0-.045-.033.044.044,0,0,0-.04.019.047.047,0,0,0-.014.035.054.054,0,0,0,.015.035c.013.015.04.018.081.01h0l.055-.012a.194.194,0,0,1,.092,0,.138.138,0,0,1,.064.046.148.148,0,0,1,.042.1.166.166,0,0,1-.049.106.127.127,0,0,1-.1.052.149.149,0,0,1-.1-.06l-.016-.021Zm.35-.143-.346-.327.148-.2.058.055-.1.128.08.075.089-.119.055.052-.089.119.095.09.1-.131.06.055-.152.2Zm.088-.456.04-.067-.178-.086.138.153Zm.083.227-.318-.38.063-.105.432.188-.051.085-.106-.051-.054.091.082.092-.048.08Zm.053-.414.039-.084.025.015a.113.113,0,0,0,.056.019c.012,0,.022-.012.029-.029a.068.068,0,0,0,.007-.047.061.061,0,0,0-.029-.035.052.052,0,0,0-.035-.008.143.143,0,0,0-.053.023l-.047.027a.227.227,0,0,1-.089.038.106.106,0,0,1-.063-.017.132.132,0,0,1-.064-.08.162.162,0,0,1,.014-.11.135.135,0,0,1,.074-.079.128.128,0,0,1,.1.018l.008,0,.005,0-.036.081-.011-.006a.075.075,0,0,0-.052-.015c-.013,0-.024.012-.032.031a.052.052,0,0,0,0,.038.048.048,0,0,0,.024.029c.017.009.044,0,.079-.02h0l.049-.03a.2.2,0,0,1,.086-.035.13.13,0,0,1,.074.02.139.139,0,0,1,.068.084.179.179,0,0,1-.016.119.144.144,0,0,1-.077.083.14.14,0,0,1-.112-.022l-.021-.014Z"/></g></g></g></svg>