<svg id="Layer_1" data-name="Layer 1" xmlns="http://www.w3.org/2000/svg" viewBox="0 0 40 40"><defs><style>.cls-1{fill:#ef4452;}.cls-2{fill:#fff;}.cls-3{fill:none;}</style></defs><rect class="cls-1" x="3.5" y="3.5" width="33" height="33" rx="8"/><path class="cls-2" d="M10.991,23.105c1.053,0,1.561-.4,1.561-1.1,0-.65-.416-.976-1.664-1.313l-1.145-.312c-1.508-.4-2.522-1.248-2.522-2.7,0-1.664,1.443-2.887,3.64-2.887s3.8,1.431,3.823,2.99H12.513a1.639,1.639,0,0,0-1.769-1.221c-.857,0-1.326.428-1.326.974,0,.494.3.871,1.392,1.158L11.967,19c1.9.52,2.742,1.43,2.742,2.873,0,1.846-1.586,3-3.874,3a3.7,3.7,0,0,1-3.952-3.133H9.21A1.7,1.7,0,0,0,10.991,23.105Z"/><path class="cls-2" d="M15.268,19.843a4.712,4.712,0,0,1,4.9-5.058,4.71,4.71,0,0,1,4.889,5.058,4.7,4.7,0,0,1-4.889,5.031A4.7,4.7,0,0,1,15.268,19.843Zm4.9,3.276c1.443,0,2.743-.819,2.743-3.276s-1.3-3.3-2.743-3.3-2.756.832-2.756,3.3S18.713,23.119,20.169,23.119Z"/><path class="cls-2" d="M29.659,23.105c1.053,0,1.561-.4,1.561-1.1,0-.65-.416-.976-1.664-1.313l-1.145-.312c-1.508-.4-2.522-1.248-2.522-2.7,0-1.664,1.443-2.887,3.64-2.887s3.8,1.431,3.823,2.99H31.181a1.64,1.64,0,0,0-1.769-1.221c-.857,0-1.326.428-1.326.974,0,.494.3.871,1.392,1.158L30.635,19c1.9.52,2.742,1.43,2.742,2.873,0,1.846-1.586,3-3.874,3a3.7,3.7,0,0,1-3.952-3.133h2.327A1.7,1.7,0,0,0,29.659,23.105Z"/><rect class="cls-3" width="40" height="40"/></svg>