<svg id="Layer_1" data-name="Layer 1" xmlns="http://www.w3.org/2000/svg" xmlns:xlink="http://www.w3.org/1999/xlink" viewBox="0 0 40 40"><defs><style>.cls-1{fill:none;}.cls-2{clip-path:url(#clip-path);}.cls-3{fill:#e5e8eb;}.cls-4{fill:#2f3e98;}.cls-5{fill:#bc1f34;}.cls-6{clip-path:url(#clip-path-2);}</style><clipPath id="clip-path"><rect class="cls-1" x="0.909" y="8.981" width="38.183" height="22.037" rx="4"/></clipPath><clipPath id="clip-path-2"><rect class="cls-1" x="0.909" y="8.981" width="38.183" height="22.037"/></clipPath></defs><g class="cls-2"><rect class="cls-3" x="0.909" y="8.981" width="38.183" height="22.037"/><rect class="cls-4" x="0.909" y="16.327" width="38.183" height="14.692"/><rect class="cls-5" x="0.909" y="23.673" width="38.183" height="7.346"/><g class="cls-6"><path class="cls-3" d="M6.685,14.162c-.448.033-.322.572-.378.878a16.676,16.676,0,0,0,.274,6.333,7.1,7.1,0,0,0,3.225,3.9,5.292,5.292,0,0,0,1.126.563,5.588,5.588,0,0,0,1.18-.6,7.09,7.09,0,0,0,3.171-3.871,17.019,17.019,0,0,0,.265-6.438c-.023-.294.021-.8-.419-.773Z"/><path class="cls-5" d="M10.932,14.491V25.508c-5.15-2.468-4.587-6.556-4.247-11.017Zm0,0V25.508c5.149-2.468,4.586-6.556,4.247-11.017Z"/><path class="cls-3" d="M11.533,17.513a8.508,8.508,0,0,1,1.626.2,1.948,1.948,0,0,1,0-1.334,8.508,8.508,0,0,1-1.626.2h-1.2a8.488,8.488,0,0,1-1.625-.2,1.948,1.948,0,0,1,0,1.334,8.488,8.488,0,0,1,1.625-.2Z"/><path class="cls-3" d="M12,19.519a8.588,8.588,0,0,1,1.627.2,1.936,1.936,0,0,1,0-1.334,8.509,8.509,0,0,1-1.627.2H9.862a8.5,8.5,0,0,1-1.625-.2,1.948,1.948,0,0,1,0,1.334,8.578,8.578,0,0,1,1.625-.2Z"/><path class="cls-3" d="M10.254,14.913a8.171,8.171,0,0,1,.205,1.6v6.824H11.4V16.514a8.172,8.172,0,0,1,.206-1.6,2.032,2.032,0,0,1-1.355,0"/><path class="cls-4" d="M8.793,21.682a1.1,1.1,0,0,0-1.1,1.087A1.17,1.17,0,0,0,7.7,22.9a6.392,6.392,0,0,0,.749.9,1.111,1.111,0,0,0,.343.058,1.089,1.089,0,1,0,0-2.177"/><path class="cls-4" d="M10.932,21.039a1.386,1.386,0,1,0,1.4,1.386,1.4,1.4,0,0,0-1.4-1.386"/><path class="cls-4" d="M13.07,21.682a1.089,1.089,0,1,0,.342,2.119,6.344,6.344,0,0,0,.751-.9.937.937,0,0,0,.013-.132,1.1,1.1,0,0,0-1.106-1.087"/><path class="cls-4" d="M7.875,23.14a8.077,8.077,0,0,0,3.057,2.369,8.076,8.076,0,0,0,3.055-2.369Z"/></g></g></svg>