<?xml version="1.0" encoding="UTF-8"?><svg id="a" xmlns="http://www.w3.org/2000/svg" viewBox="0 0 40 40"><g><path d="M28.5,3.5H11.5C7.082,3.5,3.5,7.082,3.5,11.5V28.5c0,4.418,3.582,8,8,8H28.5c4.418,0,8-3.582,8-8V11.5c0-4.418-3.582-8-8-8Zm4.4,25c0,2.426-1.974,4.4-4.4,4.4H11.5c-2.426,0-4.4-1.974-4.4-4.4V11.5c0-2.426,1.974-4.4,4.4-4.4H28.5c2.426,0,4.4,1.974,4.4,4.4V28.5Z" fill="#afb7c0"/><path d="M22.101,18.52l-2.136-.576c-2.016-.528-2.568-1.224-2.568-2.136,0-1.008,.864-1.8,2.448-1.8,1.872,0,3.048,1.032,3.264,2.256h4.008c-.048-2.88-2.976-5.521-7.057-5.521-4.056,0-6.72,2.256-6.72,5.329,0,2.688,1.872,4.248,4.656,4.992l2.112,.576c2.304,.624,3.072,1.224,3.072,2.424,0,1.296-.936,2.04-2.88,2.04-1.752,0-2.952-.984-3.289-2.52h-4.296c.36,3.456,3.432,5.784,7.296,5.784,4.225,0,7.153-2.136,7.153-5.544,0-2.664-1.561-4.344-5.064-5.304Z" fill="#afb7c0"/></g><rect width="40" height="40" fill="none"/></svg>