<svg id="Layer_1" data-name="Layer 1" xmlns="http://www.w3.org/2000/svg" xmlns:xlink="http://www.w3.org/1999/xlink" viewBox="0 0 40 40"><defs><style>.cls-1{fill:none;}.cls-2{clip-path:url(#clip-path);}.cls-3{fill:#691840;}.cls-4{fill:#e5e8eb;}</style><clipPath id="clip-path"><rect class="cls-1" x="1.007" y="8.988" width="37.987" height="22.024" rx="4"/></clipPath></defs><g class="cls-2"><polygon class="cls-3" points="12.332 8.988 16.368 10.212 12.332 11.435 16.368 12.659 12.332 13.883 16.368 15.106 12.332 16.329 16.368 17.553 12.332 18.777 16.368 20 12.332 21.224 16.368 22.448 12.332 23.671 16.368 24.894 12.332 26.118 16.368 27.341 12.332 28.565 16.368 29.789 12.332 31.012 38.993 31.012 38.993 8.988 12.332 8.988"/><polygon class="cls-4" points="1.007 8.988 1.007 31.012 12.332 31.012 16.368 29.789 12.332 28.565 16.368 27.341 12.332 26.118 16.368 24.894 12.332 23.671 16.368 22.448 12.332 21.224 16.368 20 12.332 18.777 16.368 17.553 12.332 16.329 16.368 15.106 12.332 13.883 16.368 12.659 12.332 11.435 16.368 10.212 12.332 8.988 1.007 8.988"/></g></svg>