<?xml version="1.0" encoding="UTF-8"?><svg id="Layer_1" xmlns="http://www.w3.org/2000/svg" viewBox="0 0 40 40"><g><path d="m2,28c0,2.209,1.791,4,4,4h28c2.209,0,4-1.791,4-4h0s-36,0-36,0h0Z" fill="#de1518"/><path d="m2,20h14.263c0-2.064,1.673-3.737,3.737-3.737s3.737,1.673,3.737,3.737h14.263v-4H2v4Z" fill="#de1518"/></g><g><path d="m34.005,8H5.995c-2.207,0-3.995,1.789-3.995,3.996v.004h0s36,0,36,0h0v-.005c0-2.207-1.789-3.996-3.995-3.996Z"/><path d="m20,23.737c-2.064,0-3.737-1.673-3.737-3.737H2v4h36v-4h-14.263c0,2.064-1.673,3.737-3.737,3.737Z"/></g><g><path d="m20,23.737c2.064,0,3.737-1.673,3.737-3.737s-1.673-3.737-3.737-3.737-3.737,1.673-3.737,3.737,1.673,3.737,3.737,3.737Zm-1.153-5c.228-.266.384-.447.472-.58-.097-.006-.191-.086-.181-.2.006-.068.052-.108.107-.135-.203-.017-.551.085-.613-.039-.08-.161.564-.35.564-.35,0,0,.034-.171.15-.312l-.209-.55s.208-.062.483-.075v-.009s.104-.04.395,0c.291.04.423.245.423.245h0c.182.206.204.496.204.496l-.327.099c.056.283-.18.612-.33.651-.223.058-.301.856-.223.992.022.039.191.138.412.266.413.162,1.014.435,1.228.532.042.019.063.06.093.092.401.137.874.403.929,1.032.073.846-.793,1.344-.793,1.344l.145-.262-.257.088.112-.191-.404.088s.677-.54.441-1.022c.018.402-.251.511-.251.511,0,0,.034-.092.014-.239-.025.021-.043.034-.043.034,0,0-.051-.113-.154-.253-.059,0-.12-.001-.187-.013-.331-.059-.505.02-.311.291.194.272.272.545-.039.525-.312-.02-.565,0-.565,0,0,0,.117.895.176.992s.623.234.584.331c-.039.097-.37-.039-.584,0s-.759.389-.837.37c-.078-.02.097-.35.097-.35,0,0-.603.021-.525-.097.078-.118.943-.176.943-.176v-1.031s-.418-.077-.574-.038c-.156.038-.331.097-.35.214s-.156.253-.176.156c-.02-.097-.097-.175-.097.02s-.139.253-.157.097-.095-.272-.095-.077-.195.057-.117-.195c.078-.252.292-.466.604-.428.311.039.963-.02.963-.02v-.564s-.224-.098-.419-.273c-.194-.175-.447-.32-.661-.51-.214-.191-.525-.929-.058-1.475Z" fill="#fff"/><path d="m20.306,21.109l-.078.389h.214c.136,0-.136-.388-.136-.389Z" fill="#fff"/></g><g><rect x="2" y="12" width="36" height="4" fill="#f8e700"/><rect x="2" y="24" width="36" height="4" fill="#f8e700"/><path d="m19.985,16.985c.07.025.122.058.169.092l.285-.346h0s-.132-.205-.423-.245c-.291-.04-.395,0-.395,0v.466c.099-.022.217-.021.364.032Z" fill="#fcdc02"/></g><path d="m19.567,20.721c.194.175.419.273.419.273v.564s-.652.058-.963.02c-.311-.038-.525.176-.604.428-.078.252.117.389.117.195s.078-.079.095.077.157.097.157-.097.078-.117.097-.02c.02.097.156-.039.176-.156s.194-.176.35-.214c.156-.038.574.038.574.038v1.031s-.866.058-.943.176c-.078.118.525.097.525.097,0,0-.176.331-.097.35.078.02.623-.331.837-.37s.545.097.584,0c.039-.097-.525-.234-.584-.331s-.176-.992-.176-.992c0,0,.253-.021.565,0,.311.02.234-.253.039-.525-.194-.272-.02-.35.311-.291.067.012.128.014.187.013-.13-.178-.35-.404-.722-.55-.894-.35-1.153-1.183-.744-1.328.036-.013.2.043.407.125-.221-.128-.39-.227-.412-.266-.078-.136,0-.934.223-.992.15-.039.386-.368.33-.651-.018-.092-.066-.178-.161-.249-.047-.035-.099-.067-.169-.092-.147-.053-.265-.054-.364-.032-.12.027-.211.091-.274.168-.116.141-.15.312-.15.312,0,0-.645.189-.564.35.062.124.41.021.613.039.116-.057.282-.023.263.135-.018.155-.104.205-.189.2-.089.133-.245.314-.472.58-.467.546-.156,1.284.058,1.475.214.19.467.335.661.51Zm.74.388s.273.389.136.389h-.214l.078-.389Zm-.876-3.597c0-.052.042-.095.095-.095.052,0,.095.043.095.095s-.042.095-.095.095c-.052,0-.095-.042-.095-.095Z" fill="#141414"/><g><path d="m20.315,17.325l.327-.099s-.022-.29-.204-.496l-.285.346c.095.07.143.156.161.249Z" fill="#d90000"/><path d="m19.621,16.495c-.274.012-.483.075-.483.075l.209.55c.063-.077.154-.141.274-.168v-.457Z" fill="#d90000"/><path d="m19.509,17.956c.018-.158-.147-.192-.263-.135-.054.027-.1.067-.107.135-.01.114.084.194.181.2.085.005.171-.045.189-.2Z" fill="#d90000"/><path d="m21.459,20.088l-.525-.205.263.327-.555-.21.262.21-.262.067c.602.366.757.71.788.929.02.146-.014.239-.014.239,0,0,.269-.109.251-.511.236.482-.441,1.022-.441,1.022l.404-.088-.112.191.257-.088-.145.262s.866-.497.793-1.344c-.055-.629-.528-.895-.929-1.032-.139-.048-.27-.081-.371-.107l.335.336Z" fill="#d90000"/></g><g><path d="m20.51,20.438c.372.146.592.372.722.55.103.14.154.253.154.253,0,0,.018-.013.043-.034-.03-.219-.185-.563-.788-.929l.262-.067-.262-.21.555.21-.263-.327.525.205-.335-.336c.101.026.232.059.371.107-.03-.031-.051-.073-.093-.092-.214-.097-.815-.37-1.228-.532-.208-.082-.371-.137-.407-.125-.409.146-.15.978.744,1.328Z" fill="#9ca69c"/><path d="m19.621,17.511c0-.052-.043-.095-.095-.095-.053,0-.095.043-.095.095,0,.053.043.095.095.095.053,0,.095-.043.095-.095Z" fill="#9ca69c"/></g></svg>