<svg id="Layer_1" data-name="Layer 1" xmlns="http://www.w3.org/2000/svg" xmlns:xlink="http://www.w3.org/1999/xlink" viewBox="0 0 40 40"><defs><style>.cls-1{fill:none;}.cls-2{clip-path:url(#clip-path);}.cls-3{fill:#2d2f77;}.cls-4{fill:#e5e8eb;}.cls-5{fill:#bd1f37;}</style><clipPath id="clip-path"><rect id="SVGID" class="cls-1" x="0.916" y="9.063" width="38.167" height="21.873" rx="4"/></clipPath></defs><g class="cls-2"><polygon class="cls-3" points="20.009 9.063 20.009 9.758 20.009 9.997 20.009 10.108 15.772 12.188 20.009 12.188 20.009 12.813 20.009 13.751 20.009 14.688 20.009 15.313 15.772 15.313 20.009 17.394 20.009 17.743 20.009 18.443 20.009 18.5 18.704 18.5 18.218 18.5 17.993 18.5 12.049 15.58 12.049 18.5 11.412 18.5 10.458 18.5 9.503 18.5 8.867 18.5 8.867 15.58 2.923 18.5 2.212 18.5 0.916 18.5 0.916 30.937 39.084 30.937 39.084 9.063 20.009 9.063"/><polygon class="cls-3" points="0.916 15.313 0.916 17.39 5.144 15.313 0.916 15.313"/><polygon class="cls-3" points="12.049 9.063 12.049 11.921 17.867 9.063 12.049 9.063"/><polygon class="cls-3" points="8.867 9.063 3.049 9.063 8.867 11.921 8.867 9.063"/><polygon class="cls-3" points="0.916 12.188 5.144 12.188 0.916 10.112 0.916 12.188"/><polygon class="cls-4" points="20 9.063 13.638 12.188 12.216 12.188 18.577 9.063 17.867 9.063 12.049 11.921 12.049 9.063 11.412 9.063 11.412 12.234 11.412 12.583 11.412 12.813 12.366 12.813 13.789 12.813 14.275 12.813 14.5 12.813 20.009 12.813 20.009 12.188 15.772 12.188 20.009 10.108 20.009 9.997 20.009 9.758 20.009 9.063 20 9.063"/><polygon class="cls-4" points="8.867 9.063 8.867 11.921 3.049 9.063 0.916 9.063 7.277 12.188 5.855 12.188 0.916 9.762 0.916 10.112 5.144 12.188 0.916 12.188 0.916 12.813 6.416 12.813 7.127 12.813 8.549 12.813 9.503 12.813 9.503 12.583 9.503 12.345 9.503 12.234 9.503 9.063 8.867 9.063"/><polygon class="cls-4" points="13.789 14.688 12.366 14.688 11.412 14.688 11.412 14.918 11.412 15.157 11.412 15.268 11.412 18.5 12.049 18.5 12.049 15.58 17.993 18.5 18.218 18.5 18.704 18.5 20.009 18.5 20.009 18.443 13.638 15.313 15.061 15.313 20.009 17.743 20.009 17.394 15.772 15.313 20.009 15.313 20.009 14.688 14.5 14.688 13.789 14.688"/><polygon class="cls-4" points="8.549 14.688 7.127 14.688 6.641 14.688 6.416 14.688 0.916 14.688 0.916 15.313 5.144 15.313 0.916 17.39 0.916 18.438 7.277 15.313 8.7 15.313 2.212 18.5 2.923 18.5 8.867 15.58 8.867 18.5 9.503 18.5 9.503 15.268 9.503 14.918 9.503 14.688 8.549 14.688"/><polygon class="cls-5" points="7.277 15.313 0.916 18.438 0.916 18.5 2.212 18.5 8.7 15.313 7.277 15.313"/><polygon class="cls-5" points="0.916 9.762 5.855 12.188 7.277 12.188 0.916 9.063 0.916 9.762"/><polygon class="cls-5" points="20 9.063 18.577 9.063 12.216 12.188 13.638 12.188 20 9.063"/><polygon class="cls-5" points="13.638 15.313 20.009 18.443 20.009 17.743 15.061 15.313 13.638 15.313"/><polygon class="cls-5" points="9.503 9.063 9.503 12.234 9.503 12.345 9.503 12.583 9.503 12.813 8.549 12.813 7.127 12.813 6.416 12.813 0.916 12.813 0.916 14.688 6.416 14.688 6.641 14.688 7.127 14.688 8.549 14.688 9.503 14.688 9.503 14.918 9.503 15.268 9.503 18.5 10.458 18.5 11.412 18.5 11.412 15.268 11.412 15.157 11.412 14.918 11.412 14.688 12.366 14.688 13.789 14.688 14.5 14.688 20.009 14.688 20.009 13.751 20.009 12.813 14.5 12.813 14.275 12.813 13.789 12.813 12.366 12.813 11.412 12.813 11.412 12.583 11.412 12.234 11.412 9.063 9.503 9.063"/><polygon class="cls-4" points="27.41 15.446 28.447 15.446 28.768 14.477 29.088 15.446 30.125 15.446 29.287 16.045 29.607 17.014 28.768 16.416 27.928 17.014 28.249 16.045 27.41 15.446"/><polygon class="cls-5" points="27.87 15.594 28.555 15.594 28.768 14.953 28.979 15.594 29.665 15.594 29.11 15.991 29.323 16.631 28.768 16.235 28.213 16.631 28.425 15.991 27.87 15.594"/><polygon class="cls-4" points="23.262 19.547 24.299 19.547 24.619 18.577 24.939 19.547 25.977 19.547 25.138 20.145 25.458 21.115 24.619 20.516 23.781 21.115 24.1 20.145 23.262 19.547"/><polygon class="cls-5" points="23.721 19.694 24.407 19.694 24.619 19.054 24.831 19.694 25.517 19.694 24.963 20.091 25.174 20.732 24.619 20.335 24.065 20.732 24.276 20.091 23.721 19.694"/><polygon class="cls-4" points="31.116 18.53 32.039 18.53 32.324 17.668 32.61 18.53 33.533 18.53 32.785 19.062 33.071 19.925 32.324 19.392 31.577 19.925 31.862 19.062 31.116 18.53"/><polygon class="cls-5" points="31.525 18.661 32.136 18.661 32.324 18.091 32.513 18.661 33.123 18.661 32.629 19.014 32.818 19.584 32.324 19.231 31.831 19.584 32.019 19.014 31.525 18.661"/><polygon class="cls-4" points="27.26 25.983 28.412 25.983 28.768 24.905 29.124 25.983 30.276 25.983 29.344 26.649 29.7 27.727 28.768 27.06 27.837 27.727 28.192 26.649 27.26 25.983"/><polygon class="cls-5" points="27.771 26.147 28.533 26.147 28.768 25.434 29.003 26.147 29.764 26.147 29.149 26.587 29.384 27.301 28.768 26.859 28.152 27.301 28.388 26.587 27.771 26.147"/></g></svg>