<?xml version="1.0" encoding="UTF-8"?><svg id="Layer_1" xmlns="http://www.w3.org/2000/svg" viewBox="0 0 40 40"><g><path d="m23.628,19.838c-.009-.181-.031-.359-.066-.532.02-.019.041-.037.064-.054-.025.01-.048.017-.071.022-.036-.177-.086-.349-.148-.515.017-.021.036-.042.055-.064-.023.013-.045.025-.067.034-.064-.168-.139-.33-.227-.485.012-.024.028-.048.044-.072-.02.017-.041.031-.06.044-.09-.156-.19-.303-.3-.443.01-.025.02-.052.033-.079-.018.021-.036.038-.053.053-.112-.139-.234-.27-.365-.391.005-.027.012-.055.02-.083-.014.023-.029.043-.044.061-.131-.12-.273-.23-.421-.329,0-.027.004-.055.007-.084-.011.025-.022.046-.035.067-.148-.098-.305-.184-.467-.259-.004-.027-.005-.055-.006-.084-.006.026-.014.05-.023.071-.162-.073-.33-.134-.502-.182-.008-.026-.014-.054-.02-.083-.003.027-.007.051-.012.074-.17-.046-.345-.079-.524-.1-.012-.025-.021-.052-.032-.079.002.027.002.052,0,.075-.126-.013-.254-.02-.383-.02-.051,0-.1,0-.15.003-.015-.023-.03-.047-.044-.073.006.026.01.051.012.074-.18.009-.358.031-.53.066-.018-.02-.036-.042-.054-.064.01.025.017.048.023.071-.177.037-.348.087-.513.149-.021-.016-.043-.035-.063-.055.013.023.024.045.033.067-.167.064-.329.14-.483.228-.023-.013-.047-.028-.071-.044.017.021.031.041.043.061-.155.09-.302.191-.441.302-.026-.01-.051-.021-.078-.033.02.018.037.036.052.053-.139.112-.268.235-.389.366-.027-.005-.054-.012-.083-.02.023.014.043.029.06.044-.119.132-.229.274-.328.423-.027,0-.055-.004-.084-.007.025.011.047.022.067.034-.097.149-.184.306-.258.47-.027.003-.054.005-.083.006.026.006.049.014.07.023-.072.162-.133.331-.181.505-.026.008-.053.014-.082.019.027.003.051.007.074.012-.046.171-.08.347-.1.526-.024.012-.051.022-.078.032.027-.001.052-.001.075,0-.013.127-.02.255-.02.385,0,.051.002.101.004.151-.022.016-.047.03-.073.045.027-.006.051-.01.074-.012.01.181.032.359.067.532-.02.018-.042.037-.065.054.025-.009.049-.017.071-.022.037.177.087.349.148.515-.017.021-.035.042-.055.063.023-.013.045-.024.067-.033.064.168.14.33.227.485-.013.023-.028.048-.044.072.02-.017.04-.031.06-.043.089.156.189.303.299.443-.009.026-.02.052-.033.078.018-.02.036-.037.053-.052.112.139.234.27.365.391-.005.027-.012.054-.02.083.014-.023.029-.043.044-.061.132.12.273.23.421.329,0,.027-.004.055-.007.084.012-.024.022-.047.035-.066.148.097.305.184.467.259.004.027.005.055.006.084.007-.026.015-.05.023-.071.162.073.33.134.503.182.007.026.013.054.019.082.003-.026.007-.051.012-.073.17.046.345.08.524.1.012.025.022.051.032.079-.002-.027,0-.052,0-.075.125.013.253.02.383.02.05,0,.1-.001.15-.003.015.022.029.047.044.073-.005-.026-.009-.051-.011-.074.18-.01.357-.032.529-.067.019.02.036.042.054.065-.01-.025-.017-.049-.022-.071.176-.038.347-.088.512-.149.021.017.043.035.064.055-.013-.023-.025-.045-.034-.066.168-.064.329-.141.483-.229.024.013.048.029.072.045-.017-.021-.031-.041-.044-.061.155-.089.302-.19.441-.301.025.009.052.021.078.033-.02-.018-.038-.036-.053-.053.139-.113.269-.235.389-.366.027.005.055.012.083.02-.022-.014-.043-.029-.06-.044.12-.133.229-.274.328-.423.027,0,.056.004.084.007-.025-.01-.046-.022-.067-.034.098-.149.184-.306.258-.47.027-.003.055-.005.083-.006-.026-.007-.049-.015-.07-.023.073-.162.133-.331.181-.505.026-.008.053-.014.082-.019-.027-.003-.051-.007-.073-.012.045-.171.079-.347.099-.526.025-.012.052-.022.078-.032-.027.001-.052,0-.075,0,.013-.126.02-.254.02-.385,0-.05,0-.101-.004-.151.023-.015.047-.03.073-.044-.026.006-.051.009-.074.011Zm-1.241-1.822c-.478.039-.933.156-1.354.34-.055-.042-.111-.082-.168-.121.444-.189.924-.307,1.429-.339.032.039.063.079.093.12Zm-.26-.308c-.544.025-1.064.146-1.544.347-.068-.041-.138-.08-.208-.116.502-.211,1.047-.336,1.619-.359.045.042.09.084.132.128Zm-1.436.815c-.07.038-.139.079-.208.12-.056-.043-.114-.085-.172-.125.068-.042.139-.081.209-.119.059.04.115.081.171.124Zm-.665-1.711c.645,0,1.242.212,1.727.569-.61.025-1.193.161-1.727.391-.535-.23-1.116-.366-1.727-.391.486-.357,1.082-.569,1.727-.569Zm0,1.523c-.069-.041-.139-.08-.21-.116.068-.041.139-.079.21-.116.071.037.14.075.21.116-.071.037-.141.076-.21.116Zm.173.501c-.059.044-.116.088-.173.135-.057-.046-.115-.091-.174-.135.057-.045.115-.088.174-.13.059.042.116.086.173.13Zm-2.143-1.256c.572.023,1.117.148,1.62.359-.071.037-.14.076-.209.116-.479-.201-.998-.322-1.543-.347.043-.044.086-.087.131-.128Zm1.684.938c-.059.041-.115.083-.172.125-.068-.042-.138-.082-.208-.12.056-.043.114-.084.171-.124.071.037.14.077.209.119Zm-1.982-.622c.504.032.984.15,1.429.339-.058.039-.114.08-.169.121-.421-.183-.877-.301-1.354-.34.03-.041.062-.081.094-.12Zm-.678,1.909c0-.594.171-1.147.465-1.612.44.05.858.168,1.245.345-.703.594-1.241,1.384-1.534,2.286-.114-.318-.176-.661-.176-1.019Zm.688,1.922c-.083-.101-.159-.208-.229-.319.22-1.073.792-2.015,1.587-2.696.069.04.138.082.205.125-.828.723-1.401,1.739-1.563,2.89Zm.641.579c-.091-.061-.179-.127-.263-.197.076-1.217.627-2.304,1.467-3.069.059.046.116.093.173.142-.828.783-1.353,1.891-1.378,3.125Zm2.834.223c-.371.172-.783.268-1.218.268s-.847-.096-1.219-.268c0-.043-.002-.087-.002-.131,0-1.168.466-2.226,1.22-2.992.753.766,1.219,1.823,1.219,2.992,0,.044,0,.088-.002.131Zm.398-.223c-.025-1.233-.55-2.341-1.377-3.125.056-.048.114-.096.172-.142.841.766,1.392,1.852,1.467,3.069-.083.071-.171.136-.263.197Zm.641-.58c-.163-1.15-.735-2.166-1.563-2.889.067-.044.136-.086.206-.125.795.681,1.366,1.623,1.586,2.696-.069.111-.146.218-.229.319Zm.513-.903c-.293-.902-.831-1.691-1.534-2.286.386-.177.806-.296,1.244-.345.294.465.464,1.018.464,1.612,0,.358-.062.701-.175,1.019Z" fill="#ea0034"/><path d="m34,8H6c-2.209,0-4,1.791-4,4v16c0,2.209,1.791,4,4,4h28c2.209,0,4-1.791,4-4V12c0-2.209-1.791-4-4-4Zm-7.437,13.063c-.668.551-1.76-.247-2.6-.12-.003.008-.005.016-.006.024.806.096,1.478,1.049,2.363,1.111-.748.44-1.708-.529-2.559-.528-.004.007-.006.014-.01.021.787.216,1.302,1.27,2.172,1.472-.811.318-1.611-.8-2.457-.926-.004.006-.007.011-.011.017.75.332,1.094,1.462,1.924,1.799-.854.188-1.471-1.052-2.29-1.303-.004.005-.008.009-.011.013.694.442.857,1.619,1.627,2.083-.875.052-1.292-1.278-2.067-1.65-.004.003-.008.006-.012.01.624.543.598,1.737,1.289,2.318-.875-.086-1.078-1.471-1.79-1.958-.004.002-.007.004-.011.007.535.634.321,1.812.914,2.496-.851-.223-.835-1.628-1.465-2.218-.004.001-.007.003-.011.005.433.71.037,1.843.517,2.613-.807-.355-.571-1.742-1.104-2.423-.004,0-.007.002-.011.002.319.77-.25,1.827.105,2.665-.743-.478-.292-1.813-.715-2.57-.003,0-.01,0-.01,0,.197.811-.531,1.767-.311,2.651-.66-.589-.005-1.838-.306-2.651-.003,0-.01,0-.01,0,.069.832-.799,1.663-.719,2.57-.56-.685.28-1.815.111-2.665-.004,0-.007-.002-.011-.003-.061.833-1.048,1.516-1.11,2.424-.446-.764.558-1.747.524-2.613-.003-.001-.006-.003-.01-.004-.192.811-1.271,1.331-1.474,2.218-.321-.824.821-1.636.925-2.495-.004-.002-.006-.004-.01-.006-.317.769-1.462,1.114-1.8,1.956-.188-.862,1.06-1.485,1.3-2.314-.003-.003-.006-.006-.01-.009-.434.708-1.616.868-2.08,1.646-.052-.879,1.272-1.298,1.641-2.076-.003-.004-.006-.008-.01-.011-.541.625-1.728.601-2.307,1.294.085-.874,1.449-1.081,1.94-1.786-.003-.005-.005-.01-.009-.014-.633.526-1.797.317-2.474.91.219-.846,1.589-.84,2.188-1.452-.003-.006-.005-.011-.008-.017-.708.412-1.819.029-2.577.505.348-.798,1.69-.581,2.379-1.084-.002-.007-.004-.014-.006-.021-.762.289-1.795-.259-2.616.091.466-.731,1.75-.312,2.51-.693,0-.008,0-.016-.002-.024-.797.158-1.728-.539-2.59-.323.572-.646,1.768-.037,2.578-.286,0-.009,0-.018,0-.027-.807.025-1.616-.804-2.497-.727.663-.546,1.743.235,2.58.124.003-.01.004-.02.007-.03-.798-.109-1.465-1.048-2.345-1.109.737-.434,1.679.499,2.52.527.004-.01.008-.021.012-.03-.766-.238-1.278-1.264-2.133-1.461.792-.312,1.575.75,2.398.916.006-.01.012-.02.018-.031-.715-.359-1.062-1.446-1.873-1.775.829-.182,1.434.981,2.219,1.279.007-.01.015-.019.023-.029-.646-.47-.82-1.593-1.568-2.043.844-.05,1.262,1.187,1.987,1.607.009-.008.019-.017.028-.026-.56-.567-.56-1.698-1.226-2.259.839.083,1.06,1.363,1.706,1.895.012-.007.023-.014.035-.021-.46-.649-.286-1.761-.855-2.419.814.213.835,1.506,1.386,2.135.012-.006.026-.011.038-.017-.348-.713-.006-1.781-.465-2.518.769.338.591,1.614,1.034,2.323.014-.004.028-.007.042-.01-.23-.759.272-1.758-.066-2.556.706.454.333,1.686.659,2.455.014,0,.028-.003.044-.003-.108-.785.542-1.692.333-2.533.627.56.067,1.717.268,2.528.014,0,.029.002.044.002.016-.792.799-1.585.724-2.448.532.651-.202,1.706-.129,2.539.014.003.028.007.043.011.139-.78,1.036-1.441,1.096-2.306.424.728-.467,1.655-.523,2.49.013.006.028.011.041.017.257-.75,1.248-1.262,1.441-2.107.307.787-.722,1.564-.905,2.382.012.007.024.015.036.022.369-.703,1.431-1.053,1.755-1.859.18.828-.964,1.434-1.267,2.216.01.009.021.018.031.027.472-.64,1.579-.818,2.026-1.565.05.848-1.181,1.268-1.6,1.996.008.01.017.02.025.03.564-.562,1.69-.562,2.249-1.232-.083.848-1.37,1.068-1.894,1.725.006.01.012.021.019.032.645-.472,1.761-.292,2.419-.867-.215.827-1.529.839-2.147,1.411.004.011.009.021.013.032.71-.37,1.789-.013,2.53-.479-.342.786-1.648.588-2.346,1.061.003.011.005.021.007.032.759-.26,1.775.267,2.582-.078-.462.725-1.73.318-2.492.684,0,.01.002.02.002.03.793-.145,1.717.542,2.572.327-.572.646-1.768.038-2.577.286,0,.01-.002.019-.003.028.808-.025,1.617.804,2.498.726Z" fill="#ea0034"/></g><g><path d="m26.645,20.022c-.855.215-1.779-.472-2.572-.327,0-.01,0-.02-.002-.03.762-.366,2.03.042,2.492-.684-.807.345-1.822-.182-2.582.078-.002-.01-.004-.021-.007-.032.698-.473,2.005-.275,2.346-1.061-.742.466-1.821.109-2.53.479-.004-.011-.009-.021-.013-.032.618-.572,1.932-.584,2.147-1.411-.658.575-1.774.395-2.419.867-.006-.011-.012-.021-.019-.032.524-.657,1.812-.877,1.894-1.725-.559.67-1.685.67-2.249,1.232-.008-.01-.017-.02-.025-.03.418-.728,1.649-1.147,1.6-1.996-.447.747-1.554.925-2.026,1.565-.011-.009-.021-.018-.031-.027.304-.782,1.448-1.388,1.267-2.216-.324.806-1.386,1.156-1.755,1.859-.012-.008-.024-.015-.036-.022.183-.818,1.212-1.595.905-2.382-.194.845-1.185,1.358-1.441,2.107-.013-.005-.028-.011-.041-.017.056-.835.948-1.762.523-2.49-.06.865-.957,1.526-1.096,2.306-.014-.004-.028-.007-.043-.011-.073-.833.661-1.887.129-2.539.076.863-.708,1.656-.724,2.448-.014,0-.029-.002-.044-.002-.202-.811.359-1.968-.268-2.528.209.841-.441,1.749-.333,2.533-.015,0-.029.003-.044.003-.326-.769.047-2-.659-2.455.338.798-.164,1.797.066,2.556-.014.004-.028.007-.042.01-.443-.708-.265-1.985-1.034-2.323.458.736.116,1.805.465,2.518-.012.005-.026.011-.038.017-.552-.629-.572-1.922-1.386-2.135.569.657.395,1.77.855,2.419-.012.007-.023.014-.035.021-.646-.532-.867-1.812-1.706-1.895.666.561.666,1.693,1.226,2.259-.01.009-.02.018-.028.026-.725-.421-1.143-1.657-1.987-1.607.748.451.922,1.574,1.568,2.043-.008.009-.016.019-.023.029-.785-.298-1.391-1.461-2.219-1.279.811.329,1.158,1.416,1.873,1.775-.005.01-.012.02-.018.031-.823-.166-1.606-1.227-2.398-.916.855.198,1.368,1.223,2.133,1.461-.003.01-.007.021-.012.03-.841-.029-1.782-.961-2.52-.527.879.061,1.546,1,2.345,1.109-.003.01-.004.02-.007.03-.837.111-1.917-.67-2.58-.124.881-.078,1.69.752,2.497.727,0,.01,0,.019,0,.027-.81.25-2.006-.36-2.578.286.862-.216,1.793.482,2.59.323,0,.008,0,.017.002.024-.759.381-2.044-.038-2.51.693.821-.35,1.854.198,2.616-.091.002.007.004.014.006.021-.689.503-2.031.286-2.379,1.084.758-.477,1.87-.093,2.577-.505.003.006.005.011.008.017-.599.613-1.968.606-2.188,1.452.677-.593,1.84-.384,2.474-.91.004.004.006.009.009.014-.49.705-1.854.912-1.94,1.786.578-.693,1.766-.668,2.307-1.294.004.003.007.007.01.011-.369.779-1.694,1.197-1.641,2.076.464-.778,1.646-.938,2.08-1.646.004.003.007.006.01.009-.24.83-1.489,1.452-1.3,2.314.338-.842,1.483-1.187,1.8-1.956.004.002.006.004.01.006-.104.859-1.245,1.671-.925,2.495.203-.887,1.283-1.406,1.474-2.218.004.001.007.003.01.004.034.866-.97,1.849-.524,2.613.062-.908,1.049-1.592,1.11-2.424.004,0,.007.002.011.003.169.85-.671,1.98-.111,2.665-.08-.907.789-1.737.719-2.57,0,0,.007,0,.01,0,.301.813-.354,2.062.306,2.651-.22-.883.508-1.84.311-2.651,0,0,.007,0,.01,0,.423.756-.028,2.092.715,2.57-.354-.837.214-1.895-.105-2.665.004,0,.007-.002.011-.002.533.681.297,2.068,1.104,2.423-.48-.77-.084-1.902-.517-2.613.004-.001.007-.003.011-.005.631.59.615,1.995,1.465,2.218-.592-.684-.379-1.862-.914-2.496.004-.002.007-.004.011-.007.711.486.915,1.871,1.79,1.958-.691-.581-.665-1.775-1.289-2.318.004-.003.007-.006.012-.01.774.372,1.192,1.702,2.067,1.65-.77-.464-.933-1.641-1.627-2.083.004-.004.007-.008.011-.013.819.251,1.436,1.491,2.29,1.303-.83-.336-1.174-1.467-1.924-1.799.004-.006.007-.011.011-.017.846.126,1.646,1.244,2.457.926-.87-.201-1.385-1.256-2.172-1.472.004-.007.006-.014.01-.021.851,0,1.811.969,2.559.528-.885-.062-1.557-1.015-2.363-1.111.002-.008.004-.016.006-.024.839-.127,1.932.671,2.6.12-.881.078-1.69-.752-2.498-.726,0-.009.002-.018.003-.028.809-.249,2.005.36,2.577-.286Zm-3.013,0c0,.13-.007.258-.02.385.023.002.048.002.075,0-.027.01-.053.021-.078.032-.02.18-.054.355-.099.526.022.005.046.009.073.012-.028.005-.056.011-.082.019-.048.174-.108.342-.181.505.021.009.044.016.07.023-.028.001-.057.003-.083.006-.075.164-.161.32-.258.47.02.012.042.024.067.034-.028-.003-.057-.006-.084-.007-.099.149-.208.291-.328.423.018.015.038.03.06.044-.028-.008-.056-.015-.083-.02-.12.131-.25.254-.389.366.015.018.033.036.053.053-.027-.012-.053-.024-.078-.033-.139.111-.287.212-.441.301.012.02.027.04.044.061-.024-.016-.048-.031-.072-.045-.155.088-.315.164-.483.229.009.021.02.044.034.066-.021-.02-.043-.038-.064-.055-.165.062-.337.112-.512.149.005.022.012.046.022.071-.018-.023-.036-.045-.054-.065-.172.035-.349.057-.529.067.002.023.005.048.011.074-.014-.026-.028-.051-.044-.073-.05.002-.1.003-.15.003-.13,0-.258-.007-.383-.02-.002.023-.003.048,0,.075-.01-.028-.02-.054-.032-.079-.179-.021-.354-.054-.524-.1-.005.023-.01.047-.012.073-.005-.028-.012-.056-.019-.082-.173-.048-.341-.109-.503-.182-.008.021-.016.045-.023.071,0-.029-.003-.058-.006-.084-.163-.075-.319-.162-.467-.259-.012.02-.023.042-.035.066.004-.029.006-.058.007-.084-.148-.1-.289-.21-.421-.329-.015.018-.03.038-.044.061.008-.029.015-.056.02-.083-.131-.121-.253-.252-.365-.391-.018.015-.036.032-.053.052.012-.026.024-.052.033-.078-.11-.14-.21-.287-.299-.443-.02.012-.04.026-.06.043.016-.024.031-.048.044-.072-.087-.155-.163-.317-.227-.485-.021.009-.043.02-.067.033.02-.021.038-.042.055-.063-.061-.166-.111-.338-.148-.515-.022.005-.046.013-.071.022.023-.018.045-.036.065-.054-.035-.173-.057-.351-.067-.532-.023.002-.047.005-.074.012.026-.014.051-.029.073-.045-.002-.05-.004-.1-.004-.151,0-.13.007-.258.02-.385-.023-.002-.048-.002-.075,0,.027-.01.054-.021.078-.032.02-.18.054-.355.1-.526-.023-.005-.047-.009-.074-.012.028-.005.056-.011.082-.019.048-.174.109-.342.181-.505-.021-.009-.044-.017-.07-.023.029-.001.057-.003.083-.006.075-.164.162-.32.258-.47-.019-.012-.042-.024-.067-.034.029.003.058.006.084.007.099-.149.209-.291.328-.423-.018-.015-.037-.03-.06-.044.028.008.056.015.083.02.121-.132.25-.254.389-.366-.015-.018-.033-.036-.052-.053.027.012.052.023.078.033.139-.111.286-.212.441-.302-.012-.02-.026-.04-.043-.061.024.017.048.032.071.044.154-.087.316-.164.483-.228-.009-.021-.02-.043-.033-.067.02.02.042.039.063.055.165-.062.337-.112.513-.149-.006-.023-.013-.046-.023-.071.018.023.036.045.054.064.172-.035.35-.057.53-.066-.002-.023-.005-.048-.012-.074.014.025.029.05.044.073.05-.002.1-.003.15-.003.129,0,.257.007.383.02.002-.023.002-.048,0-.075.011.028.02.054.032.079.179.021.354.054.524.1.005-.022.01-.047.012-.074.005.029.012.056.02.083.172.048.34.109.502.182.009-.021.017-.045.023-.071,0,.029.003.058.006.084.163.075.319.161.467.259.012-.02.024-.042.035-.067-.004.029-.006.057-.007.084.148.099.29.209.421.329.015-.018.03-.038.044-.061-.008.028-.015.056-.02.083.131.121.253.252.365.391.018-.015.036-.033.053-.053-.013.027-.023.053-.033.079.11.14.21.288.3.443.02-.012.04-.027.06-.044-.017.024-.032.048-.044.072.087.155.163.317.227.485.021-.009.044-.02.067-.034-.02.021-.038.043-.055.064.062.166.112.339.148.515.023-.005.046-.013.071-.022-.023.018-.044.036-.064.054.035.173.057.351.066.532.023-.002.048-.005.074-.011-.026.014-.05.029-.073.044.003.05.004.1.004.151Z" fill="#f5ec00"/><path d="m19.675,17.939c-.503-.211-1.048-.336-1.62-.359-.045.042-.089.084-.131.128.544.025,1.064.146,1.543.347.068-.041.138-.08.209-.116Z" fill="#f5ec00"/><path d="m21.752,17.381c-.485-.357-1.082-.569-1.727-.569s-1.242.212-1.727.569c.611.025,1.193.161,1.727.391.534-.23,1.116-.366,1.727-.391Z" fill="#f5ec00"/><path d="m19.186,18.235c-.445-.189-.925-.307-1.429-.339-.032.039-.064.079-.094.12.478.039.933.156,1.354.34.055-.042.111-.082.169-.121Z" fill="#f5ec00"/><path d="m20.264,19.181c.827.783,1.352,1.891,1.377,3.125.091-.061.179-.127.263-.197-.076-1.217-.626-2.304-1.467-3.069-.059.046-.116.094-.172.142Z" fill="#f5ec00"/><path d="m20.583,18.056c.48-.201.999-.322,1.544-.347-.043-.044-.087-.087-.132-.128-.572.023-1.117.148-1.619.359.07.037.139.076.208.116Z" fill="#f5ec00"/><path d="m20.719,18.837c.828.723,1.401,1.739,1.563,2.889.083-.1.16-.208.229-.319-.22-1.073-.791-2.015-1.586-2.696-.07.04-.139.082-.206.125Z" fill="#f5ec00"/><path d="m18.789,18.538c-.387-.177-.806-.296-1.245-.345-.293.465-.465,1.018-.465,1.612,0,.358.062.7.176,1.019.293-.902.83-1.691,1.534-2.286Z" fill="#f5ec00"/><path d="m21.032,18.356c.421-.183.877-.301,1.354-.34-.03-.041-.061-.081-.093-.12-.505.032-.985.15-1.429.339.057.039.113.08.168.121Z" fill="#f5ec00"/><path d="m18.805,22.397c0,.044,0,.088.002.131.371.172.783.268,1.219.268s.846-.096,1.218-.268c0-.043.002-.087.002-.131,0-1.168-.466-2.226-1.219-2.992-.754.766-1.22,1.823-1.22,2.992Z" fill="#f5ec00"/><path d="m20.025,18.103c-.071.037-.141.075-.21.116.071.037.14.076.21.116.068-.041.139-.08.21-.116-.069-.041-.139-.079-.21-.116Z" fill="#f5ec00"/><path d="m21.262,18.538c.703.594,1.241,1.384,1.534,2.286.113-.318.175-.661.175-1.019,0-.594-.17-1.147-.464-1.612-.439.05-.858.168-1.244.345Z" fill="#f5ec00"/><path d="m19.613,19.039c-.84.766-1.392,1.852-1.467,3.069.083.071.171.136.263.197.025-1.233.55-2.341,1.378-3.125-.057-.049-.115-.096-.173-.142Z" fill="#f5ec00"/><path d="m19.851,18.836c.06.044.117.088.174.135.057-.046.115-.091.173-.135-.057-.045-.115-.088-.173-.13-.06.042-.117.086-.174.13Z" fill="#f5ec00"/><path d="m19.126,18.711c-.795.681-1.367,1.623-1.587,2.696.07.111.147.218.229.319.162-1.151.735-2.167,1.563-2.89-.068-.044-.136-.086-.205-.125Z" fill="#f5ec00"/><path d="m20.31,18.518c.059.041.116.083.172.125.068-.042.138-.082.208-.12-.056-.042-.113-.084-.171-.124-.07.037-.14.077-.209.119Z" fill="#f5ec00"/><path d="m19.359,18.523c.07.038.139.079.208.12.057-.043.114-.085.172-.125-.068-.042-.138-.081-.209-.119-.058.04-.115.081-.171.124Z" fill="#f5ec00"/></g></svg>