<svg id="Layer_1" data-name="Layer 1" xmlns="http://www.w3.org/2000/svg" viewBox="0 0 40 40"><defs><style>.cls-1{fill:orange;}.cls-2{fill:#fff;}.cls-3{fill:none;}</style></defs><rect class="cls-1" x="3.5" y="3.5" width="33" height="33" rx="8"/><path class="cls-2" d="M16,26.594H13.117L8.237,13.162h3.025l3.3,9.543,3.3-9.543h3.024Z"/><path class="cls-2" d="M26.185,24.415c1.459,0,2.161-.558,2.161-1.53,0-.9-.576-1.351-2.3-1.819l-1.585-.432c-2.089-.558-3.493-1.729-3.493-3.745,0-2.3,2-4,5.042-4,3.06,0,5.258,1.98,5.293,4.141H28.291a2.27,2.27,0,0,0-2.448-1.692c-1.189,0-1.837.594-1.837,1.35,0,.684.414,1.206,1.927,1.6l1.6.432c2.629.72,3.8,1.98,3.8,3.979,0,2.557-2.2,4.159-5.365,4.159-2.9,0-5.2-1.747-5.474-4.34h3.223A2.353,2.353,0,0,0,26.185,24.415Z"/><rect class="cls-3" width="40" height="40"/></svg>