<?xml version="1.0" encoding="UTF-8"?><svg id="a" xmlns="http://www.w3.org/2000/svg" viewBox="0 0 40 40"><rect x="2" y="8" width="36" height="24" rx="4" ry="4" fill="#e3e7ea"/><rect x="17.051" y="8" width="5.898" height="0" fill="#ea0034"/><polygon points="17.051 32 5.993 32 5.995 32 34.005 32 34.006 32 22.949 32 17.051 32" fill="none"/><polygon points="27.864 19 20.983 19 20.983 12 21.966 11 18.034 11 19.017 12 19.017 19 12.136 19 11.153 18 11.153 22 12.136 21 19.017 21 19.017 28 18.034 29 21.966 29 20.983 28 20.983 21 27.864 21 28.847 22 28.847 18 27.864 19" fill="#f4dd00"/><path d="M17.051,17H2v6h15.051v9h5.898v-9h15.051v-6h-15.051V8h-5.898v9Zm4.915-6l-.983,1v7h6.881l.983-1v4l-.983-1h-6.881v7l.983,1h-3.932l.983-1v-7h-6.881l-.983,1v-4l.983,1h6.881v-7l-.983-1h3.932Z" fill="#ea0034"/></svg>