<svg id="Layer_1" data-name="Layer 1" xmlns="http://www.w3.org/2000/svg" xmlns:xlink="http://www.w3.org/1999/xlink" viewBox="0 0 40 40"><defs><style>.cls-1{fill:none;}.cls-2{clip-path:url(#clip-path);}.cls-3{fill:#efd928;}.cls-4{fill:#363794;}.cls-5{fill:#cf2028;}.cls-6{clip-path:url(#clip-path-2);}.cls-7{fill:#f2ea37;}.cls-8{fill:#806432;}.cls-9{fill:#c1212d;}.cls-10{fill:#286038;}.cls-11{fill:#2e5aa1;}</style><clipPath id="clip-path"><rect id="SVGID" class="cls-1" x="1.363" y="9.034" width="37.273" height="21.932" rx="4"/></clipPath><clipPath id="clip-path-2"><rect id="SVGID-2" data-name="SVGID" class="cls-1" x="1.363" y="9.034" width="37.273" height="21.932"/></clipPath></defs><g class="cls-2"><rect class="cls-3" x="1.363" y="9.034" width="37.273" height="21.932"/><rect class="cls-4" x="1.363" y="9.034" width="12.424" height="21.932"/><rect class="cls-5" x="26.212" y="9.034" width="12.424" height="21.932"/><g class="cls-6"><path d="M18.754,13.944a.3.3,0,0,0-.183.05.15.15,0,0,1,.107.146v.179H18.5a.151.151,0,0,1-.145-.107.365.365,0,0,0,0,.369.149.149,0,0,1,.145-.108h.177v.857a.151.151,0,0,1-.1.144c.085.012.157.126.177.188.02-.062.093-.176.177-.188a.15.15,0,0,1-.1-.144v-.857h.176a.151.151,0,0,1,.146.107A.319.319,0,0,0,19.2,14.4a.315.315,0,0,0-.049-.184.151.151,0,0,1-.146.108h-.176V14.14a.151.151,0,0,1,.106-.146.307.307,0,0,0-.183-.05"/><path class="cls-7" d="M18.754,13.981a.33.33,0,0,0-.105.017.191.191,0,0,1,.066.142v.179l0,.007v.029H18.5a.188.188,0,0,1-.14-.065.324.324,0,0,0-.018.105.332.332,0,0,0,.017.106.184.184,0,0,1,.141-.066h.214l0,.011v.018l0,.008v.857a.178.178,0,0,1-.066.134.3.3,0,0,1,.07.062.372.372,0,0,1,.036.064.321.321,0,0,1,.037-.064.26.26,0,0,1,.068-.06.184.184,0,0,1-.066-.136v-.893h.213a.188.188,0,0,1,.141.065.36.36,0,0,0,.018-.106.368.368,0,0,0-.017-.106.186.186,0,0,1-.142.067H18.8V14.14A.188.188,0,0,1,18.859,14a.329.329,0,0,0-.105-.018"/><polygon class="cls-8" points="18.888 17.097 18.595 17.03 17.981 16.703 17.593 16.682 17.566 15.924 16.823 15.321 16.065 16.146 15.956 16.389 15.991 23.9 16.482 23.301 16.585 23.327 17.092 22.774 17.522 21.678 17.65 21.224 18.23 21.916 18.01 22.324 18.21 22.31 18.227 22.481 18.41 22.403 18.46 22.639 18.864 22.226 19.425 22.505 18.36 24.421 17.98 24.704 18.664 24.963 19.367 24.138 19.265 24.68 19.056 25.206 19.911 25.702 20.839 25.149 20.383 24.184 20.531 24.115 21.133 24.994 21.789 24.666 20.937 23.661 20.376 22.453 20.967 22.256 21.37 22.646 21.43 22.392 21.643 22.496 21.616 22.284 21.83 22.331 21.569 21.914 22.231 21.355 22.65 22.674 23.266 23.385 23.397 23.369 23.845 23.927 23.841 16.188 23.013 15.31 22.21 15.971 22.243 16.683 21.882 16.697 21.344 16.975 21.043 17.074 20.902 17.103 20.717 16.9 20.47 16.401 20.454 15.909 20.606 15.588 20.578 15.284 20.715 15.287 20.628 15.082 20.748 15.033 20.567 14.873 20.63 14.799 19.949 14.503 19.428 14.468 19.288 14.53 19.22 14.658 19.357 15.051 19.21 15.199 19.356 15.486 19.361 16.117 19.245 16.648 19.011 17.05 18.888 17.097"/><polygon class="cls-9" points="18.099 22.337 17.585 23.131 17.335 23.123 17.078 23.245 16.995 23.528 17.032 23.657 17.313 23.963 17.54 23.833 17.721 23.634 17.767 23.459 18.417 22.604 18.387 22.391 18.243 22.482 18.19 22.307 18.099 22.337"/><polygon class="cls-9" points="21.39 22.574 22.079 23.513 22.147 23.695 22.449 23.97 22.54 23.947 22.873 23.558 22.797 23.291 22.487 23.1 22.253 23.123 21.731 22.337 21.64 22.299 21.602 22.452 21.451 22.406 21.39 22.574"/><path d="M19.588,14.427a.563.563,0,0,0-.284.052c-.067.045-.062.1-.085.124a.308.308,0,0,1-.2.047c-.3,0-.307.32-.307.32a.272.272,0,0,1,.21-.116c.222,0,.391.122.391.169,0,.018-.023.022-.023.022-.147,0-.367-.085-.483-.089V15l.005,0H18.81v.008a.7.7,0,0,1,.524.791,1.933,1.933,0,0,1-.22,1.014.948.948,0,0,1-.262.267,2.544,2.544,0,0,1-.432-.175,1.531,1.531,0,0,0-.757-.328v-.255c0-.136.049-.259.049-.389-.14-.037-.528-.517-.887-.729a2.073,2.073,0,0,0-.935,1.17s.016,5.588,0,7.534a.89.89,0,0,1-.067.271,2.056,2.056,0,0,0,.619-.754v.089a1.53,1.53,0,0,0,.6-.667l.006.092a5.775,5.775,0,0,0,.591-1.587l-.017-.285a3.982,3.982,0,0,1-.49,1.336V17.636l.206.193.313-.294v-.224l-.277.261V16.9c.042-.064.07-.112.09-.149a2.036,2.036,0,0,0,.36.469c.028-.115.212-.225.212-.225s.067.181.168.225a1.287,1.287,0,0,1,.247-.2.615.615,0,0,0-.255.1c-.063-.015-.079-.266-.079-.266s-.267.131-.314.225c-.051-.013-.13-.216-.161-.3a1.557,1.557,0,0,1,.2-.012.727.727,0,0,1,.276.085c.112.054.229.121.334.169a1.215,1.215,0,0,0,.4.076,1.775,1.775,0,0,1-.223.133,1.458,1.458,0,0,0,.544-.116,1.975,1.975,0,0,0,.235-.165.872.872,0,0,1-.154.276.732.732,0,0,0,.54-.282.922.922,0,0,0,.122.228.9.9,0,0,0,.123-.228.734.734,0,0,0,.54.282.888.888,0,0,1-.153-.276,2.048,2.048,0,0,0,.234.165,1.458,1.458,0,0,0,.544.116,1.878,1.878,0,0,1-.225-.133,1.207,1.207,0,0,0,.4-.076c.105-.048.222-.115.334-.169a.727.727,0,0,1,.276-.085,1.557,1.557,0,0,1,.2.012c-.031.082-.11.285-.161.3-.047-.094-.314-.225-.314-.225s-.016.251-.079.266a.61.61,0,0,0-.255-.1,1.318,1.318,0,0,1,.248.2c.1-.044.166-.225.166-.225s.185.11.213.225a2.036,2.036,0,0,0,.36-.469c.022.039.051.088.09.149v.675l-.276-.261v.224l.312.294.206-.193v4.773a3.976,3.976,0,0,1-.489-1.336l-.017.285a5.8,5.8,0,0,0,.59,1.587l.006-.092a1.536,1.536,0,0,0,.6.667v-.089a2.056,2.056,0,0,0,.619.754.89.89,0,0,1-.067-.271c-.015-1.946,0-7.534,0-7.534A2.073,2.073,0,0,0,23,15.21c-.358.212-.747.692-.887.729,0,.13.049.253.049.389v.254a1.529,1.529,0,0,0-.756.329,2.505,2.505,0,0,1-.434.175.941.941,0,0,1-.26-.267,1.623,1.623,0,0,1-.216-.854c0-.129.144-.275.144-.38a1.819,1.819,0,0,0-.015-.254c.051.007.141.1.141.1s0-.263-.086-.309c0,0,.034-.035.154-.038-.034-.087-.2-.192-.2-.192a.1.1,0,0,1,.043-.039.517.517,0,0,1,.147-.048,1.521,1.521,0,0,1-.165-.046,3.93,3.93,0,0,1-.456-.187,1.342,1.342,0,0,0-.61-.144m.006.078h.071a1.721,1.721,0,0,1,.723.241c.068.03.13.055.185.074a.239.239,0,0,0-.069.088.262.262,0,0,1,.168.12s-.11.012-.128.077a.165.165,0,0,1,.124.159l-.157-.049a1.989,1.989,0,0,1,.038.369c0,.1-.14.214-.14.38a1.485,1.485,0,0,0,.223.885.68.68,0,0,0,.127.19c-.267-.143-.466-.322-.466-.489V15.92h-.07v.631a.406.406,0,0,0,.03.177,2.411,2.411,0,0,0,.179.423c-.246-.134-.371-.3-.371-.364V15.92h-.069V16.8l.013.061a.5.5,0,0,1-.095.116.5.5,0,0,1-.094-.116l.014-.061V15.92h-.07v.867c0,.062-.125.23-.371.364a2.335,2.335,0,0,0,.18-.423.418.418,0,0,0,.029-.177V15.92h-.07v.631c0,.166-.2.346-.464.489a.694.694,0,0,0,.125-.19,1.784,1.784,0,0,0,.227-1.04,1.1,1.1,0,0,0-.1-.517c-.019-.037-.044-.137.1-.137.073,0,.242.131.242.131a.231.231,0,0,0-.092-.164.1.1,0,0,1-.038-.071.149.149,0,0,1,.066-.088c.019-.009-.291-.064-.291-.206,0-.029.019-.049.083-.049.085,0,.222.1.344.1.09,0,.126-.022.219-.022.113,0,.348.216.429.208-.09-.057-.236-.273-.456-.273-.077,0-.146.017-.218.017-.091,0-.181-.085-.28-.085-.066,0-.14,0-.151-.014s0-.047.016-.072c.033-.047.128-.061.22-.064h.082m-2.769.947v0a4.049,4.049,0,0,0,.655.51l.006.153v.448c-.119-.041-.269-.239-.342-.344V16.16a.167.167,0,0,1,.058-.123l-.072-.026a.212.212,0,0,0-.057.139v.035l-.023.025-.012.013-.18.2-.211-.323v-.078a.277.277,0,0,1,.075-.153l-.071-.026a.306.306,0,0,0-.073.169v.064l-.243.252-.123-.267a2.98,2.98,0,0,1,.613-.6m6.171,0a3,3,0,0,1,.613.6l-.123.267-.242-.252v-.064a.313.313,0,0,0-.073-.169l-.071.026a.275.275,0,0,1,.074.153V16.1l-.211.323-.179-.2-.013-.013-.023-.025V16.15a.212.212,0,0,0-.057-.139l-.072.026a.168.168,0,0,1,.059.123v.061c-.073.105-.223.3-.343.344v-.448l.006-.153a4.049,4.049,0,0,0,.655-.51Zm-6.869.742.112.206v.37l-.171.16v-.55a.422.422,0,0,1,.059-.186m7.568,0a.419.419,0,0,1,.058.186v.55l-.17-.16V16.4Zm-7.121.047.2.3v.229l-.2.186Zm6.673,0v.716l-.2-.186v-.229Zm-6.742.054v.661l-.2-.185V16.5Zm6.812,0,.2.208v.268l-.2.185Zm-6.21.048a1.022,1.022,0,0,0,.294.335,1.068,1.068,0,0,1-.294.294Zm5.607,0v.629a1.068,1.068,0,0,1-.294-.294,1.01,1.01,0,0,0,.294-.335m-5.676.032v.581l-.2-.185v-.206Zm5.746,0,.2.19v.206l-.2.185Zm-6.545.619v.579l-.171-.161v-.257Zm7.344,0,.17.161v.257l-.17.161Zm-7.275,0,.112.106.084.078v.208l-.084.079-.112.106Zm.462,0v.577l-.112-.106-.084-.08v-.2l.084-.08Zm.071,0,.2.186v.2l-.085.081-.111.105Zm.462,0v.578l-.112-.106-.084-.08v-.193a.774.774,0,0,0,.2-.2m5.215,0a.79.79,0,0,0,.2.2v.193l-.084.08-.112.106V17Zm.462,0v.577l-.111-.105-.085-.081v-.2Zm.071,0,.112.106.084.08v.2l-.084.08-.112.106Zm.462,0v.577l-.112-.106-.084-.079v-.208L23.4,17.1Zm-6.915.639.208.2.207-.194v4.774s.015.236.025.391l-.44.448Zm6.625,0v5.614l-.439-.448c.01-.155.024-.391.024-.391V17.635l.208.194Zm-6.743,0v5.434a1.174,1.174,0,0,1-.412.593V17.636l.2.193Zm6.861,0,.207.194.205-.193v6.026a1.174,1.174,0,0,1-.412-.593ZM18.189,21.9a3.239,3.239,0,0,1-.277.481.83.83,0,0,0,.111.006c-.036.053-.313.455-.4.607s-.138.079-.264.079a.727.727,0,0,0-.376.234.485.485,0,0,0-.071.227.408.408,0,0,0,.082.185.091.091,0,0,1,.024-.051s.215.27.246.3a.171.171,0,0,0,.174.01,1.491,1.491,0,0,0,.276-.279c.045-.066.048-.142.1-.213.171-.237.51-.692.588-.8.006.029.01.053.015.082a2.745,2.745,0,0,1,.511-.521l-.117-.078a3.761,3.761,0,0,1-.338.356s-.036-.149-.056-.2a.417.417,0,0,1-.151.076s-.016-.1-.029-.167a.333.333,0,0,1-.179.036c.1-.048.215-.335.215-.335l-.083-.042Zm3.443,0-.083.042s.117.287.215.335a.333.333,0,0,1-.179-.036c-.013.066-.028.167-.028.167a.415.415,0,0,1-.152-.076c-.02.053-.056.2-.056.2a3.761,3.761,0,0,1-.338-.356l-.117.078a2.745,2.745,0,0,1,.511.521l.015-.082c.078.1.417.559.588.8.051.071.054.147.1.213a1.465,1.465,0,0,0,.277.279.169.169,0,0,0,.173-.01c.032-.035.246-.3.246-.3a.091.091,0,0,1,.024.051.408.408,0,0,0,.082-.185.485.485,0,0,0-.071-.227.727.727,0,0,0-.376-.234c-.125,0-.182.063-.264-.079s-.363-.554-.4-.607a.83.83,0,0,0,.111-.006,3.332,3.332,0,0,1-.277-.481m-3.471.46a.366.366,0,0,0,.042.187l.151-.1s.01.05.023.119c-.065.089-.437.6-.621.851a.857.857,0,0,0-.084.221s-.067-.032-.067-.09.007-.125.007-.125a.191.191,0,0,1-.137.058c0-.069.134-.145.139-.245-.1.077-.19.038-.308.075s-.165.094-.2.092c-.023,0-.044-.042-.035-.067a.551.551,0,0,1,.285-.183c.027,0,.236.046.278-.02l.483-.752a.136.136,0,0,0,.048-.017m3.5,0a.144.144,0,0,0,.048.017l.483.752c.042.066.251.015.278.02a.551.551,0,0,1,.285.183c.009.025-.012.065-.035.067-.039,0-.075-.053-.2-.092s-.206,0-.308-.075c0,.1.139.176.139.245a.191.191,0,0,1-.137-.058s.008.068.008.125-.067.09-.067.09a.872.872,0,0,0-.085-.221c-.184-.25-.556-.762-.621-.851.013-.069.023-.119.023-.119l.152.1a.373.373,0,0,0,.041-.187m-2.29.1s-.827,1.916-1.56,2.211c0,0,.319.137.711.342l.175.095c.05-.06.1-.126.153-.2.234-.316.463-.683.463-.683a1.924,1.924,0,0,1-.317.752c-.041.072-.084.146-.132.222.054.03.106.061.159.093a2.614,2.614,0,0,1,.888.755A2.614,2.614,0,0,1,20.8,25.3c.053-.032.105-.063.158-.093-.047-.076-.09-.15-.131-.222a1.941,1.941,0,0,1-.317-.752s.229.367.463.683c.051.07.1.136.153.2l.175-.095c.392-.205.711-.342.711-.342-.733-.295-1.56-2.211-1.56-2.211l-.122.036a6.922,6.922,0,0,0,1.3,2.157,4.831,4.831,0,0,0-.5.184,6.916,6.916,0,0,1-.618-.9,4.709,4.709,0,0,1-.355-.906,4.039,4.039,0,0,0,.491,2.039,3.056,3.056,0,0,0-.745.5,3.077,3.077,0,0,0-.745-.5,4.039,4.039,0,0,0,.491-2.039,4.638,4.638,0,0,1-.355.906,6.916,6.916,0,0,1-.618.9,4.831,4.831,0,0,0-.5-.184,6.942,6.942,0,0,0,1.3-2.157Zm-2.159.921a.024.024,0,0,1,.016.008.023.023,0,0,1,0,.032l-.068.06a.023.023,0,0,1-.032,0,.023.023,0,0,1,0-.032l.068-.061a.018.018,0,0,1,.016,0m5.4,0a.021.021,0,0,1,.017,0l.068.061a.023.023,0,0,1,0,.032.023.023,0,0,1-.032,0l-.068-.06a.022.022,0,0,1,0-.032.021.021,0,0,1,.015-.008m-5.327.06a.056.056,0,0,1,.047.021.054.054,0,0,1,0,.076l-.166.146a.057.057,0,0,1-.074-.086l.166-.145a.043.043,0,0,1,.029-.012m5.242,0a.065.065,0,0,1,.014,0,.047.047,0,0,1,.029.012l.166.145a.056.056,0,0,1,0,.078.055.055,0,0,1-.077.008l-.166-.146a.054.054,0,0,1,0-.076.055.055,0,0,1,.034-.021m-5.149.113a.059.059,0,0,1,.049.021.053.053,0,0,1,0,.076l-.167.147a.054.054,0,0,1-.076-.009.055.055,0,0,1,0-.077l.165-.146a.053.053,0,0,1,.028-.012m5.055,0a.066.066,0,0,1,.014,0,.05.05,0,0,1,.028.012l.166.146a.055.055,0,0,1,0,.077.054.054,0,0,1-.076.009l-.167-.147a.054.054,0,0,1,0-.076.059.059,0,0,1,.035-.021m-4.948.111a.055.055,0,0,1,.047.019.056.056,0,0,1,0,.078l-.166.145a.057.057,0,0,1-.074-.085l.167-.146a.049.049,0,0,1,.028-.011m4.842,0a.033.033,0,0,1,.014,0,.052.052,0,0,1,.028.011l.167.146a.055.055,0,0,1,0,.076.053.053,0,0,1-.076.009l-.166-.145a.058.058,0,0,1,.032-.1"/><polygon points="17.649 23.759 18.035 23.971 17.941 24.405 17.555 24.192 17.649 23.759"/><path d="M15.852,19.6l-.139.063,1.571,3.471h.167ZM17.7,23.7l-.114.118.071.158.138-.065Z"/><polygon class="cls-7" points="17.704 23.882 17.944 24.013 17.885 24.282 17.646 24.15 17.704 23.882"/><path d="M16.34,22.34s.132.276.233.314a.656.656,0,0,0-.221.047,1.189,1.189,0,0,0,.551.286.412.412,0,0,0,.318-.092l-.043-.229a.851.851,0,0,0-.341-.234,2.229,2.229,0,0,0-.5-.092"/><path d="M17.337,21.846a.837.837,0,0,0-.232.341.709.709,0,0,0,.033.39l.153.289a.832.832,0,0,0,.3-.285.755.755,0,0,0,.058-.4.906.906,0,0,0-.19.091.709.709,0,0,0-.125-.425"/><path d="M16.751,21.772a1.236,1.236,0,0,1-.41.059.628.628,0,0,1-.352-.175s.159-.108.238-.094c-.087-.032-.212-.251-.212-.251a.589.589,0,0,1,.336.006.846.846,0,0,1,.3.235Z"/><path d="M16.822,20.749s.1.216.079.292a.718.718,0,0,1,.155-.129,1.409,1.409,0,0,1,0,.569.525.525,0,0,1-.286.3l-.237-.465a.518.518,0,0,1,.039-.309.954.954,0,0,1,.247-.258Z"/><path d="M15.469,20.174a.99.99,0,0,1,.431.062.414.414,0,0,1,.224.2l.085.228a.731.731,0,0,1-.438.022.813.813,0,0,1-.335-.3.426.426,0,0,1,.187-.032c-.076-.033-.154-.178-.154-.178"/><path d="M16.176,19.749a.53.53,0,0,1,.1.275.465.465,0,0,1,.149-.165,1.331,1.331,0,0,1,.1.529.558.558,0,0,1-.21.349l-.227-.435a.712.712,0,0,1-.052-.317.433.433,0,0,1,.139-.236"/><path d="M15.4,18.918a.733.733,0,0,0,.028.373.419.419,0,0,0,.1.148.66.66,0,0,0-.3-.085.782.782,0,0,0,.215.375.606.606,0,0,0,.386.09.765.765,0,0,0,.143-.429,1.034,1.034,0,0,0-.186-.462.853.853,0,0,0-.075.253C15.67,19.07,15.4,18.918,15.4,18.918Z"/><path class="cls-10" d="M15.467,19.062a.621.621,0,0,0,.051.271.358.358,0,0,0,.183.137.614.614,0,0,0-.05-.271.358.358,0,0,0-.184-.137"/><path class="cls-10" d="M15.349,19.453a.511.511,0,0,1,.235.075.422.422,0,0,1,.119.205.278.278,0,0,1-.185-.056.844.844,0,0,1-.169-.224"/><path class="cls-10" d="M15.816,19.1a.618.618,0,0,0-.044.238.764.764,0,0,0,.078.262.747.747,0,0,0,.059-.271.44.44,0,0,0-.093-.229"/><path class="cls-10" d="M15.565,20.218a.576.576,0,0,0,.186.159.778.778,0,0,0,.281.058.524.524,0,0,0-.467-.217"/><path class="cls-10" d="M15.6,20.457a.362.362,0,0,0,.152.152.9.9,0,0,0,.3.042.576.576,0,0,0-.176-.145.9.9,0,0,0-.276-.049"/><path class="cls-10" d="M16.168,19.891a.418.418,0,0,0-.054.208.6.6,0,0,0,.077.229.771.771,0,0,0,.045-.247.379.379,0,0,0-.068-.19"/><path class="cls-10" d="M16.387,20.03a.679.679,0,0,0-.116.28.6.6,0,0,0,.057.287.529.529,0,0,0,.138-.266.584.584,0,0,0-.079-.3"/><path class="cls-10" d="M16.107,21.338a.3.3,0,0,0,.054.105.89.89,0,0,0,.115.112.332.332,0,0,1,.158,0,.764.764,0,0,1,.2.1.965.965,0,0,0-.254-.261.469.469,0,0,0-.276-.049"/><path class="cls-10" d="M16.093,21.661a.675.675,0,0,1,.3-.051.563.563,0,0,1,.253.124.83.83,0,0,1-.313.045.47.47,0,0,1-.236-.118"/><path class="cls-10" d="M16.778,20.9a.62.62,0,0,0-.155.285.38.38,0,0,0,.116.257.376.376,0,0,1,.016-.142.576.576,0,0,1,.068-.116.357.357,0,0,0,.013-.122.567.567,0,0,0-.058-.162"/><path class="cls-10" d="M16.983,21.08a.727.727,0,0,0-.17.285.568.568,0,0,0,.027.3A.5.5,0,0,0,17,21.424a.841.841,0,0,0-.016-.344"/><path class="cls-10" d="M17.321,21.969a.978.978,0,0,1,.076.236.339.339,0,0,1,0,.145,1.217,1.217,0,0,0-.092.1.3.3,0,0,0-.042.134.618.618,0,0,1-.107-.329.645.645,0,0,1,.163-.285"/><path class="cls-10" d="M17.588,22.266a.858.858,0,0,0-.226.22.305.305,0,0,0-.031.224.25.25,0,0,0,.18-.121.937.937,0,0,0,.077-.323"/><path class="cls-10" d="M16.521,22.723a1.786,1.786,0,0,1,.377.03.333.333,0,0,1,.2.112.528.528,0,0,1-.3.041.638.638,0,0,1-.268-.183"/><path class="cls-10" d="M16.482,22.443a.673.673,0,0,0,.242.225.786.786,0,0,0,.406.043.8.8,0,0,0-.281-.211,1.044,1.044,0,0,0-.367-.057"/><path d="M17.233,22.885l.006.085c.14,0,.161-.013.2.032a.118.118,0,0,0,.138.029.116.116,0,0,0,.056-.154.109.109,0,0,0-.13-.06c-.031.007-.052.032-.079.046a.575.575,0,0,1-.188.022"/><path class="cls-7" d="M17.583,22.9h0a.062.062,0,1,1-.113.052h0a.063.063,0,0,1,.031-.083.061.061,0,0,1,.082.031Z"/><path d="M17.221,22.82l.068.05c-.073.121-.1.131-.078.185a.12.12,0,0,1-.048.134A.115.115,0,0,1,17,23.156a.111.111,0,0,1,.019-.143c.022-.024.054-.028.08-.043a.585.585,0,0,0,.118-.15"/><path class="cls-7" d="M17.048,23.127h0a.062.062,0,0,0,.086.017.065.065,0,0,0,.018-.087h0a.062.062,0,0,0-.086-.018.064.064,0,0,0-.017.087Z"/><path d="M16.747,21.811l.006.084c.14,0,.16-.012.2.032a.118.118,0,0,0,.139.029.116.116,0,0,0,.056-.153.108.108,0,0,0-.13-.06c-.032.006-.052.031-.079.046a.577.577,0,0,1-.188.022"/><path class="cls-7" d="M17.1,21.825h0a.063.063,0,0,1-.031.083.061.061,0,0,1-.082-.031h0a.062.062,0,1,1,.113-.052Z"/><path d="M16.775,21.841l.06.06c-.091.107-.115.114-.105.171a.122.122,0,0,1-.069.124.116.116,0,0,1-.152-.057.111.111,0,0,1,.04-.139.3.3,0,0,1,.086-.03.589.589,0,0,0,.14-.129"/><path class="cls-7" d="M16.557,22.117h0a.061.061,0,0,0,.082.031.063.063,0,0,0,.031-.083h0a.062.062,0,0,0-.082-.031.064.064,0,0,0-.031.083Z"/><path d="M16.276,20.805l.006.085c.14,0,.161-.013.2.032a.118.118,0,0,0,.137.029.116.116,0,0,0,.057-.153.109.109,0,0,0-.131-.061.321.321,0,0,0-.078.046.55.55,0,0,1-.188.022"/><path class="cls-7" d="M16.626,20.82h0a.064.064,0,0,1-.031.083.062.062,0,0,1-.082-.031h0a.062.062,0,1,1,.113-.052Z"/><path d="M16.314,20.787l.059.06c-.09.108-.114.114-.105.171a.117.117,0,0,1-.068.124.114.114,0,0,1-.152-.057.112.112,0,0,1,.041-.139.287.287,0,0,1,.085-.03.568.568,0,0,0,.14-.129"/><path class="cls-7" d="M16.1,21.064h0a.062.062,0,0,0,.082.031.064.064,0,0,0,.031-.083h0a.062.062,0,0,0-.082-.032.063.063,0,0,0-.031.083Z"/><path d="M15.773,19.743l.007.085c.14,0,.16-.013.2.032a.12.12,0,0,0,.138.029.117.117,0,0,0,.057-.153.107.107,0,0,0-.13-.06c-.032.006-.053.031-.079.045a.555.555,0,0,1-.189.022"/><path class="cls-7" d="M16.124,19.758h0a.063.063,0,0,1-.031.083.062.062,0,0,1-.082-.031h0a.062.062,0,1,1,.113-.052Z"/><path d="M15.812,19.725l.06.06c-.091.108-.115.115-.105.171a.121.121,0,0,1-.069.124.114.114,0,0,1-.152-.057.112.112,0,0,1,.041-.139c.025-.019.058-.018.085-.03a.568.568,0,0,0,.14-.129"/><path class="cls-7" d="M15.594,20h0a.062.062,0,1,0,.113-.052h0a.061.061,0,0,0-.083-.031.063.063,0,0,0-.03.083h0"/><path class="cls-7" d="M16.657,21.559c-.049.021-.124-.2-.178-.32s-.171-.315-.138-.33.082.084.139.21.225.42.177.44"/><path class="cls-7" d="M16.142,20.4c-.05.021-.105-.123-.159-.244s-.111-.211-.079-.226.088.092.134.193.151.257.1.277"/><path class="cls-7" d="M17.335,23.029a2.72,2.72,0,0,1-.351-.659,1.741,1.741,0,0,1-.21-.57c.036-.017.148.273.287.58a3.778,3.778,0,0,1,.274.649"/><polygon class="cls-11" points="17.638 19.552 17.646 21.421 17.782 21.643 18.644 22.124 19.749 22.635 19.893 22.787 20.846 22.261 21.965 21.727 22.177 21.398 22.177 19.559 17.638 19.552"/><path class="cls-9" d="M17.585,17.3l.057.169-.013,2.147.08.089.655.078.708-.1.7.108.009.043.135-.021.134.021.009-.043.7-.108.709.1.655-.078.079-.089-.013-2.147.057-.169-.784.006-1.541.016-1.541-.016-.785-.006Z"/><polygon class="cls-7" points="17.812 19.694 18.165 19.554 18.412 19.36 18.583 19.543 18.925 19.683 18.647 19.845 18.401 20.061 18.187 19.899 17.812 19.694"/><polygon class="cls-7" points="21.407 19.37 21.247 19.543 20.904 19.683 21.225 19.888 21.429 20.072 21.653 19.888 22.017 19.705 21.643 19.554 21.407 19.37"/><polygon class="cls-7" points="19.91 17.601 19.802 17.924 19.492 17.773 19.631 18.086 19.332 18.205 19.631 18.313 19.503 18.625 19.792 18.475 19.91 18.798 20.027 18.475 20.316 18.604 20.187 18.313 20.487 18.205 20.198 18.076 20.327 17.762 20.027 17.913 19.91 17.601"/><polygon class="cls-7" points="20.733 17.546 20.829 17.892 20.98 18.334 21.001 18.755 20.829 19.057 20.519 19.187 20.348 19.241 20.145 19.133 19.92 19.273 19.674 19.122 19.471 19.262 19.343 19.176 19.118 19.144 18.861 18.874 18.807 18.388 19.118 17.525 18.733 17.838 18.401 18.291 18.401 18.885 18.636 19.284 19.064 19.565 19.182 19.597 18.978 19.974 19.332 20.083 19.514 20.266 19.61 20.633 19.589 21.421 19.482 21.604 19.246 21.766 19.235 21.917 19.492 22.079 19.717 22.263 20.048 22.273 20.338 22.068 20.584 21.928 20.519 21.712 20.263 21.507 20.209 20.881 20.284 20.255 20.658 20.018 20.851 19.953 20.648 19.565 20.958 19.457 21.3 19.154 21.461 18.55 21.365 18.183 21.129 17.881 20.733 17.546"/><polygon class="cls-7" points="19.268 20.25 19.417 20.401 19.278 20.541 19.134 20.395 19.268 20.25"/><polygon class="cls-7" points="20.557 20.233 20.407 20.39 20.541 20.536 20.701 20.395 20.557 20.233"/><polygon class="cls-7" points="20.664 20.633 20.396 20.697 20.327 20.854 20.321 21.286 20.434 21.529 20.584 21.593 20.562 21.027 20.664 20.633"/><polygon class="cls-7" points="19.16 20.638 19.257 21.119 19.257 21.583 19.391 21.485 19.482 21.275 19.498 20.908 19.428 20.687 19.16 20.638"/><polygon class="cls-7" points="21.616 21.021 21.306 20.87 21.006 20.935 20.851 21.119 20.835 21.415 21.054 21.675 21.108 21.691 21.102 21.41 21.338 21.086 21.616 21.021"/><polygon class="cls-7" points="18.663 20.919 18.631 20.789 18.465 20.692 18.326 20.746 18.256 20.892 18.294 21.021 18.15 21.005 18.032 21.119 18.016 21.269 18.096 21.367 18.208 21.405 18.273 21.399 18.219 21.534 18.262 21.669 18.396 21.744 18.545 21.707 18.626 21.555 18.754 21.642 18.909 21.609 19.011 21.453 18.941 21.307 18.866 21.248 18.973 21.189 19.016 21.011 18.872 20.844 18.733 20.865 18.663 20.919"/><path d="M19.129,17.422c-.022.158-.811.487-.811,1.149a1.083,1.083,0,0,0,.787,1.049l-.033.06-.192.351a.986.986,0,0,1,.5.165c.208.179.188.559.188.834a.771.771,0,0,1-.138.542c-.148.127-.249.136-.249.285,0,.125.1.15.249.232.2.105.188.246.482.246s.285-.141.483-.246c.154-.082.249-.107.249-.232,0-.149-.1-.158-.249-.285a.771.771,0,0,1-.138-.542c0-.275-.02-.655.188-.834a.988.988,0,0,1,.5-.165l-.192-.351-.032-.06a1.082,1.082,0,0,0,.786-1.049c0-.662-.789-.991-.811-1.149-.077.273.263.651.263,1.1,0,.58-.423.607-.423.607-.1,0-.139.071-.178.071-.083-.008-.122-.115-.2-.115s-.137.121-.239.121-.161-.121-.238-.121-.121.107-.205.115c-.039,0-.079-.071-.178-.071,0,0-.423-.027-.423-.607,0-.447.34-.825.263-1.1m1.62,2.258a2.224,2.224,0,0,1,.668.435,4.212,4.212,0,0,1,.7-.409,1.859,1.859,0,0,1-.7-.388,1.441,1.441,0,0,1-.668.362m-1.677,0a1.435,1.435,0,0,1-.667-.362,1.867,1.867,0,0,1-.7.388,4.257,4.257,0,0,1,.7.409,2.21,2.21,0,0,1,.667-.435m.838-2.2-.136.391-.372-.178.176.375-.387.139.387.139-.176.374.372-.179.136.392.138-.392.372.179-.177-.374.388-.139-.388-.139.177-.375-.372.178Zm-.895.181c.032.07-.264.5-.264.858,0,.437.23.693.538.693.059,0,.123.08.178.08.09,0,.15-.1.205-.1.07,0,.117.111.238.111s.169-.111.239-.111c.055,0,.115.1.2.1.055,0,.12-.08.178-.08.307,0,.538-.256.538-.693,0-.354-.3-.788-.263-.858,0,0,.576.417.576.909a1.054,1.054,0,0,1-.8.988l.179.407a.976.976,0,0,0-.4.16c-.2.164-.2.606-.2.9,0,.352.013.5.139.6s.233.123.233.226-.1.125-.238.185c-.153.068-.168.186-.389.186s-.235-.118-.388-.186c-.134-.06-.238-.1-.238-.185s.1-.125.234-.226.138-.245.138-.6c0-.3,0-.74-.2-.9a.978.978,0,0,0-.4-.16l.179-.407a1.054,1.054,0,0,1-.8-.988c0-.492.577-.909.577-.909m.9.082.088.25.237-.114-.112.24.246.088-.246.089.112.238L20,18.422l-.089.248-.088-.248-.236.113L19.7,18.3l-.247-.089.247-.088-.112-.24.236.114Zm-1.513,1.7a.969.969,0,0,0,.414.256,1.64,1.64,0,0,0-.407.3v.009l-.005,0-.008.009V20a2.681,2.681,0,0,0-.452-.285,1.4,1.4,0,0,0,.458-.274m3.026,0a1.387,1.387,0,0,0,.457.274A2.688,2.688,0,0,0,21.43,20v.017l-.009-.009,0,0V20a1.657,1.657,0,0,0-.408-.3.969.969,0,0,0,.415-.256m-2.153.762-.189.191.189.191.189-.191Zm1.279,0-.189.191.189.191.19-.191Zm-1.279.091.1.1-.1.1-.1-.1Zm1.279,0,.1.1-.1.1-.1-.1Zm-1.453.291a2.175,2.175,0,0,1,.127.732,2.219,2.219,0,0,1-.024.368.484.484,0,0,0,.32-.352c.025-.128.052-.6-.076-.679Zm1.628,0-.348.069c-.128.08-.1.551-.075.679a.484.484,0,0,0,.319.352,2.313,2.313,0,0,1-.023-.368,2.149,2.149,0,0,1,.127-.732m-2.276.076a.174.174,0,0,0-.045.006.225.225,0,0,0-.162.274.181.181,0,0,0,.02.052.233.233,0,0,0-.055-.011.176.176,0,0,0-.023,0,.225.225,0,0,0-.007.45.2.2,0,0,0,.054,0,.208.208,0,0,0-.028.048.23.23,0,0,0,.125.3.224.224,0,0,0,.292-.126.216.216,0,0,0,.013-.053.238.238,0,0,0,.038.04.224.224,0,0,0,.316-.028.221.221,0,0,0-.075-.347.25.25,0,0,0,.05-.023.229.229,0,0,0,.071-.313.219.219,0,0,0-.2-.1.21.21,0,0,0-.1.034.185.185,0,0,0-.043.034.257.257,0,0,0-.006-.055.226.226,0,0,0-.227-.171m.77.03.186.039a.877.877,0,0,1,.057.467.34.34,0,0,1-.162.3,3.05,3.05,0,0,0-.081-.808m1.384,0a3.03,3.03,0,0,0-.082.808.34.34,0,0,1-.162-.3.877.877,0,0,1,.057-.467Zm-2.141.065a.174.174,0,0,1,.176.132.168.168,0,0,1,0,.059.165.165,0,0,1-.01.044.253.253,0,0,0-.087-.015.25.25,0,0,0-.189.086.189.189,0,0,1-.032-.037.181.181,0,0,1-.023-.051.176.176,0,0,1,.127-.213.141.141,0,0,1,.035,0m2.788.072a.45.45,0,0,0-.468.5.573.573,0,0,0,.439.479.52.52,0,0,1-.073-.213.449.449,0,0,1,.467-.5.581.581,0,0,1,.132.016.59.59,0,0,0-.5-.283m-2.439.063a.173.173,0,0,1,.142.083.177.177,0,0,1-.056.242.175.175,0,0,1-.053.022.237.237,0,0,1-.046,0v-.008A.256.256,0,0,0,18.646,21a.156.156,0,0,1,.025-.043.162.162,0,0,1,.041-.037.181.181,0,0,1,.1-.027m2.439.04A.473.473,0,0,1,21.5,21a.552.552,0,0,0-.451.6.446.446,0,0,1-.166-.286.343.343,0,0,1,.368-.382m-3,.105a.172.172,0,0,1,.056.015.158.158,0,0,1,.039.024.254.254,0,0,0-.054.158.26.26,0,0,0,.034.128.154.154,0,0,1-.047.021.184.184,0,0,1-.053.005.176.176,0,0,1,.025-.351m.3.026a.171.171,0,1,1-.168.171.17.17,0,0,1,.168-.171m.252.2a.207.207,0,0,1,.049.012.19.19,0,0,1,.048.027.177.177,0,0,1,.021.247.173.173,0,0,1-.246.022.143.143,0,0,1-.036-.045.154.154,0,0,1-.017-.042.255.255,0,0,0,.181-.221m-.463.118a.254.254,0,0,0,.211.113.248.248,0,0,0,.054-.006.263.263,0,0,1,.005.049.208.208,0,0,1-.011.054.175.175,0,0,1-.325-.131.166.166,0,0,1,.029-.048.136.136,0,0,1,.037-.031m1.276.418c-.157,0-.256.034-.256.081s.1.081.256.081a.081.081,0,1,0,0-.162m.6,0a.081.081,0,1,0,0,.162c.157,0,.257-.033.257-.081s-.1-.081-.257-.081"/><path class="cls-7" d="M17.382,17.241s.207.157.207.316v3.8a.347.347,0,0,0,.079.229,1.09,1.09,0,0,0,.26.234,11.714,11.714,0,0,0,1.307.639,1.494,1.494,0,0,1,.675.453,1.5,1.5,0,0,1,.676-.453,11.714,11.714,0,0,0,1.307-.639,1.052,1.052,0,0,0,.26-.234.346.346,0,0,0,.078-.229v-3.8c0-.159.207-.316.207-.316H17.382Zm.265.121h4.526a.322.322,0,0,0-.061.2v3.8c0,.083-.085.277-.577.524a8.127,8.127,0,0,0-1.625.832,8.127,8.127,0,0,0-1.625-.832c-.491-.247-.576-.441-.576-.524v-3.8a.319.319,0,0,0-.062-.2"/><path d="M19.8,14.921a.183.183,0,1,1-.176-.134.16.16,0,0,1,.176.134Z"/><path class="cls-9" d="M18.778,14.844a.232.232,0,0,1,.2-.111l.262,0c.026.07.149.188.149.31a.525.525,0,0,0-.47-.225.342.342,0,0,0-.145.03"/><path d="M19.224,14.874s-.085-.027-.085-.056.042-.037.066-.008a.13.13,0,0,1,.019.064"/><path class="cls-9" d="M19.341,15.082a.579.579,0,0,0-.09.12.882.882,0,0,1-.2-.16.489.489,0,0,0,.29.04"/><path d="M24.768,19l-.271.2.031.065a.138.138,0,0,0-.072.061.132.132,0,0,0,.015.108,1.15,1.15,0,0,0-.3,0c-.036.024.015.2-.009.356-.033.211-.116.194-.119.235a.242.242,0,0,0,.032.1s-.048.015-.059.036.012.093-.009.132c-.111.222-.277.549-.386.766-.015.03-.056.041-.077.082a.154.154,0,0,0,0,.093.126.126,0,0,0-.1.053.215.215,0,0,0-.011.125.1.1,0,0,0-.069.05c-.023.048.017.073.007.094-.147.291-.321.634-.426.843-.039.077-.175.092-.254.248a.232.232,0,0,0,.033.263s-.114.011-.144.071a.151.151,0,0,0,.076.2.148.148,0,0,0,.2-.053c.031-.059-.03-.158-.03-.158a.23.23,0,0,0,.23-.13c.079-.156.013-.275.052-.351.105-.21.278-.552.425-.843.011-.021.054,0,.079-.051a.1.1,0,0,0,0-.085.208.208,0,0,0,.093-.082.132.132,0,0,0-.013-.112.145.145,0,0,0,.072-.057c.021-.04,0-.08.021-.111l.386-.765c.02-.04.085-.053.1-.086s-.006-.068-.006-.068a.24.24,0,0,0,.1-.034c.03-.027-.032-.084.118-.236.108-.109.282-.173.279-.217A1.135,1.135,0,0,0,24.6,19.5s.072-.007.094-.051a.145.145,0,0,0,.008-.1l.07-.012Zm-2.545,4.873a.08.08,0,0,0-.064.038.089.089,0,0,0,0,.075s-.085-.027-.114-.012a2.1,2.1,0,0,0,0,.42,2.142,2.142,0,0,0,.335-.248c0-.032-.077-.087-.077-.087a.083.083,0,0,0,.06-.043c.011-.022.012-.086-.065-.126a.136.136,0,0,0-.075-.017"/><path class="cls-7" d="M24.718,19.1l-.158.113.08.042.081.041Zm-.153.188a.079.079,0,0,0-.067.043.089.089,0,0,0,.044.117.087.087,0,0,0,.12-.032.089.089,0,0,0-.045-.117.109.109,0,0,0-.052-.011m-.3.189a.182.182,0,0,0-.045,0,2.081,2.081,0,0,0,0,.282.326.326,0,0,1-.063.191.3.3,0,0,1-.086.081l.056.056s.037-.057.094-.17a2.414,2.414,0,0,0,.086-.391,1.543,1.543,0,0,1,.158-.046s-.13-.007-.2-.006m.246.033a.715.715,0,0,0-.169.049,1.9,1.9,0,0,1-.091.379,1.76,1.76,0,0,1-.1.177l.04.021.04.02a1.828,1.828,0,0,1,.085-.182c.078-.157.247-.27.251-.3a.761.761,0,0,0-.059-.166m.048.019a1.554,1.554,0,0,1,.055.158c0,.024-.195.165-.263.3-.057.114-.081.177-.081.177l.078.013a.305.305,0,0,1,.013-.119.341.341,0,0,1,.117-.162c.1-.077.228-.145.227-.165a1.984,1.984,0,0,0-.146-.2m-.442.645a.065.065,0,0,0-.052.038,1.486,1.486,0,0,1-.125.3l-.128.253-.139.275a.055.055,0,0,0,.025.078.053.053,0,0,0,.075-.027s.083-.162.139-.274.077-.153.128-.255a1.475,1.475,0,0,1,.169-.278.072.072,0,0,0-.04-.1.1.1,0,0,0-.052-.011m-.506.971a.051.051,0,0,0-.043.025c-.014.028.011.071.056.094s.1.02.11-.01-.011-.071-.057-.094a.12.12,0,0,0-.066-.015m-.068.141a.076.076,0,0,0-.074.034c-.019.037.011.091.066.119s.116.021.135-.016-.011-.091-.066-.119a.168.168,0,0,0-.061-.018m-.093.176a.051.051,0,0,0-.043.025c-.014.029.011.071.056.1s.1.019.11-.01-.01-.071-.056-.095a.132.132,0,0,0-.067-.015m-.04.152a.06.06,0,0,0-.043.033l-.4.8c-.034.066-.175.107-.23.216a.18.18,0,0,0,.057.25.176.176,0,0,0,.233-.1c.056-.11.006-.249.04-.315.1-.208.4-.8.4-.8a.056.056,0,0,0-.023-.079.05.05,0,0,0-.034-.006M22.7,22.97a.088.088,0,0,0-.077.044.1.1,0,0,0,.057.131.092.092,0,1,0,.081-.161.124.124,0,0,0-.061-.014m-.472.943a.041.041,0,0,0-.037.018c-.011.022.012.057.052.078s.083.019.095,0-.013-.058-.053-.079a.129.129,0,0,0-.057-.014m-.139.111v.29l.234-.169a.258.258,0,0,0-.234-.121"/><path class="cls-7" d="M19.743,14.921a.122.122,0,1,1-.122-.123.123.123,0,0,1,.122.123Z"/><path d="M19.677,14.921a.056.056,0,1,1-.112,0,.056.056,0,0,1,.112,0"/></g></g></svg>