<?xml version="1.0" encoding="UTF-8"?><svg id="a" xmlns="http://www.w3.org/2000/svg" viewBox="0 0 40 40"><path d="M24.043,22.446v.936H15.957v-3.382H2v8c0,2.209,1.791,4,4,4h28c2.209,0,4-1.791,4-4v-8h-13.957v2.446Z" fill="#d3003b"/><path d="M34.005,8H5.995c-2.207,0-3.995,1.789-3.995,3.996v8.004H15.957v-3.382h8.087v3.382h13.957V11.996c0-2.207-1.789-3.996-3.995-3.996Z" fill="#2f2d91"/><g><path d="M18.83,20.468h.015l-1.013-.827c-.014,.004-.024,.002-.038,.01-.061,.03-.104,.118-.153,.179l-.023,.524,1.089,.594,.124-.479Z" fill="#00209f"/><path d="M18.984,20.468h.074l.016-.093,.043-.378-.738-.828c-.094,.04-.145,.227-.236,.225l-.017,.379,.857,.694Z" fill="#00209f"/><path d="M18.659,21.125l.018-.074h.003l.003-.011-1.313-.726c-.026,.012-.051,.022-.079,.046l-.024,.719,1.36,.166,.034-.119Z" fill="#00209f"/><path d="M21.305,21.037l.007,.026,.054,.181,1.351-.165-.024-.719c-.028-.024-.053-.034-.079-.046l-1.309,.723Z" fill="#00209f"/><path d="M21.628,19.192l-.76,.879v.015l.042-.038,.051,.451,.895-.725-.018-.378c-.082,0-.133-.142-.21-.203Z" fill="#00209f"/><path d="M22.19,19.65c-.015-.007-.025-.005-.039-.01l-1.034,.845,.002,.008,.034-.025,.128,.478,1.085-.592-.024-.524c-.049-.061-.092-.149-.153-.179Z" fill="#00209f"/></g><g><polygon points="19.534 21.399 19.451 21.354 19.389 21.43 19.437 21.457 19.534 21.399" fill="#f1b517"/><path d="M17.369,20.313l1.313,.726,.493,.272,.255,.031-.725-.396-1.089-.594-.174-.095-.134-.073-.005-.016c-.007-.024-.037-.125-.044-.146-.008-.024-.615-.109-.615-.109l.373,.327,.086,.006,.165,.011,.101,.056Z" fill="#f1b517"/><path d="M17.785,19.603l.046,.038,1.013,.827,.843,.689,.056-.073-.76-.615-.857-.694-.195-.158-.106-.086s-.023-.039-.046-.081c-.025-.044-.05-.093-.05-.105,0-.024-.526-.227-.526-.227l.307,.365,.107,.047,.168,.074Z" fill="#f1b517"/><polygon points="18.369 19.157 18.38 19.17 19.119 19.998 19.842 20.808 19.842 20.686 19.703 20.532 18.469 19.167 18.424 19.117 18.463 19.014 18.482 18.963 17.957 18.643 18.176 19.125 18.194 19.128 18.369 19.157" fill="#f1b517"/><path d="M18.127,22.289c.461,0,.566-.542,.566-.542l.34,.372,.122-.138-.022-.03-.231-.31,.339-.034,.147-.177,.063-.075,.007-.008-.027-.003-.255-.031-.551-.067-1.36-.166-.094-.011-.049,.372h.437s-.041,.08-.041,.234c0,.048,.022,.128,.055,.213,.074,.186,.235,.403,.552,.403Z" fill="#f1b517"/><path d="M20.96,20.499l-.722,.585,.057,.073,.696-.569,.125-.103,1.034-.845,.046-.038,.168-.074,.107-.047,.308-.365s-.526,.202-.526,.227c0,.012-.025,.061-.05,.105-.024,.042-.047,.081-.047,.081l-.106,.086-.195,.158-.895,.725Z" fill="#f1b517"/><polygon points="20.23 20.808 20.8 20.149 20.867 20.071 21.628 19.192 21.659 19.157 21.792 19.132 21.829 19.125 22.025 18.643 21.501 18.963 21.532 19.01 21.602 19.117 21.559 19.166 20.275 20.635 20.23 20.686 20.23 20.808" fill="#f1b517"/><polygon points="20.449 21.399 20.546 21.457 20.595 21.43 20.532 21.354 20.449 21.399" fill="#f1b517"/><path d="M20.552,21.343l.255-.031,.498-.275,1.309-.723,.101-.056,.164-.01,.087-.006,.372-.328s-.607,.085-.615,.109c-.008,.022-.037,.122-.044,.146l-.005,.016-.135,.074-.174,.094-1.085,.592-.729,.397Z" fill="#f1b517"/><path d="M20.807,21.312l-.255,.031-.026,.003,.006,.008,.063,.075,.148,.178,.338,.034-.245,.33-.008,.01,.123,.138,.34-.372s.105,.542,.566,.542c.324,0,.486-.226,.558-.415,.03-.08,.049-.155,.049-.2,0-.154-.04-.234-.04-.234h.437l-.049-.373-.095,.011-1.351,.165-.559,.068Z" fill="#f1b517"/><path d="M20.056,21.423c.031,0,.059,.004,.088,.007,.029-.183,.052-.439,.067-.736,.012-.238,.019-.5,.019-.78,0-.37-.012-.713-.032-1.001-.078,.022-.163,.093-.163,.093,0,0-.088-.066-.169-.091-.02,.288-.032,.63-.032,.999,0,.274,.007,.531,.019,.764,.015,.306,.039,.569,.069,.756,.043-.006,.087-.01,.135-.01Z" fill="#f1b517"/></g><g><polygon points="20.8 20.149 20.868 20.086 20.867 20.071 20.8 20.149" fill="#fff"/><polygon points="19.075 20.375 19.059 20.468 19.065 20.468 19.075 20.375" fill="#fff"/><polygon points="18.679 21.051 18.676 21.051 18.659 21.125 18.676 21.063 18.679 21.051" fill="#fff"/><polygon points="20.992 20.588 21.119 20.493 21.117 20.486 20.992 20.588" fill="#fff"/><path d="M17.574,21.886c-.034-.085-.055-.164-.055-.213,0-.154,.041-.234,.041-.234h-.437l.049-.372,.094,.011,.024-.719-.006,.003c-.089,.081-.065,.331-.219,.3-.15-.032,.03-.399,.038-.416l-.086-.006-.373-.327s.607,.085,.615,.109c.007,.022,.037,.122,.044,.146,.083,.008,.154,.045,.158,.072,.001,.009-.014,.011-.019,.017l.174,.095,.023-.524c-.038,.047-.08,.08-.14,.048-.108-.058,.044-.261,.117-.349l-.107-.047-.307-.365s.526,.202,.526,.227c0,.012,.025,.061,.05,.105,.118,.003,.223,.098,.218,.134-.003,.025-.028,.028-.066,.032l.195,.158,.017-.379c-.015,0-.028,.008-.046-.005-.077-.055,.012-.174,.096-.262l-.018-.003-.219-.481,.525,.32-.019,.051c.1,.031,.176,.117,.167,.149-.009,.035-.08,.009-.161,.003l1.233,1.365,.15,.146c-.012-.233-.019-.49-.019-.764,0-.369,.012-.711,.032-.999-.048-.015-.095-.019-.119,.023-.065,.114-.147,.098-.156-.154-.008-.251,.056-.624,.056-.624,0,0-.145,.259-.19,.389-.045,.13-.295,.17-.263,0,.033-.171,.235-.438,.113-.349-.122,.09-.267,.146-.408,.146s-.336,.016-.15-.135c.186-.152,.607-.327,.607-.327-.162,.016-.461,.17-.655,.283-.195,.114-.332-.016-.227-.162,.105-.146,.486-.259,.486-.259,0,0-.227,.007-.38,.032-.154,.024-.445,.146-.289-.04,.156-.186,.556-.178,.827-.186s.409,.09,.287-.04c-.122-.13-.307-.097-.505-.105-.198-.008-.231-.032-.109-.096,.121-.065,.34-.145,.624-.072,.278,.071,.463,.245,.611,.274,.148-.03,.323-.203,.601-.274,.283-.073,.497,.007,.618,.072,.122,.064,.087,.088-.111,.096-.198,.009-.385-.024-.507,.105s.016,.032,.287,.04c.272,.008,.672,0,.827,.186,.156,.186-.135,.065-.289,.04-.154-.024-.381-.032-.381-.032,0,0,.38,.113,.486,.259,.105,.145-.032,.275-.226,.162s-.493-.267-.655-.283c0,0,.421,.175,.607,.327,.185,.151-.009,.135-.151,.135-.141,0-.287-.057-.408-.146-.122-.089,.081,.179,.113,.349,.033,.17-.219,.13-.263,0-.045-.13-.19-.389-.19-.389,0,0,.065,.373,.056,.624-.008,.251-.069,.267-.135,.154-.023-.04-.063-.038-.106-.026,.02,.288,.032,.631,.032,1.001,0,.28-.007,.543-.019,.78l.065-.06,1.284-1.469c-.1-.011-.195,.04-.206-.002-.008-.033,.073-.126,.179-.154l-.031-.047,.524-.32-.196,.481-.037,.007c.083,.089,.169,.205,.092,.259-.018,.013-.032,.005-.047,.005l.018,.378,.195-.158c-.038-.004-.063-.008-.066-.032-.004-.036,.1-.131,.219-.135,.025-.044,.05-.093,.05-.105,0-.024,.526-.227,.526-.227l-.308,.365-.107,.047c.073,.088,.226,.291,.118,.349-.061,.032-.103,0-.141-.048l.024,.524,.174-.094c-.005-.006-.021-.009-.02-.018,.004-.027,.076-.064,.159-.072,.007-.024,.036-.125,.044-.146,.008-.024,.615-.109,.615-.109l-.372,.328-.087,.006c.009,.019,.187,.383,.038,.415-.154,.032-.13-.219-.219-.3l-.006-.003,.024,.719,.095-.011,.049,.373h-.437s.04,.08,.04,.234c0,.046-.019,.12-.049,.2,.608,.143,1.16,.334,1.629,.572v-5.829H15.957v5.829c.457-.232,1.011-.417,1.618-.56Z" fill="#fff"/><path d="M21.836,22.503c-.183,.037-.607,.194-.954,.239-.348,.043-.847,.058-.847,.058,0,0-.459-.014-.807-.058-.348-.045-.732-.202-.915-.239-.183-.037-.256,.128-.677,.219-.42,.092-.823,.077-.823,.077l.11,.194-.11,.095c.952,.018,1.391-.29,1.391-.29,.475,.315,1.831,.324,1.831,.324,0,0,1.396-.009,1.872-.324,0,0,.459,.307,1.41,.29l-.101-.095,.116-.194s-.401,.014-.821-.077c-.42-.092-.493-.256-.676-.219Z" fill="#fff"/><path d="M20.056,21.747c.163,0,.3-.037,.369-.09,.029-.022,.048-.046,.048-.072,0-.077-.142-.139-.329-.155-.029-.002-.057-.007-.088-.007-.048,0-.092,.005-.135,.01-.163,.022-.282,.081-.282,.151,0,.017,.012,.033,.026,.049,.054,.065,.206,.113,.392,.113Z" fill="#fff"/></g><g><path d="M19.842,20.808l-.723-.81-.043,.378-.011,.093h-.08l.76,.615-.056,.073-.843-.689h-.015l-.124,.479,.725,.396,.027,.003-.007,.008,.083,.045-.097,.057-.048-.027-.147,.177-.339,.034,.231,.31,.514,.151v-.469h.017c-.013-.016-.026-.031-.026-.049,0-.071,.119-.129,.282-.151-.03-.187-.054-.45-.069-.756l-.15-.146,.139,.154v.122Z" fill="#d21c33"/><path d="M17.443,20.259c.005-.006,.02-.009,.019-.017-.004-.027-.075-.064-.158-.072l.005,.016,.134,.073Z" fill="#d21c33"/><path d="M17.932,19.616c.038-.004,.063-.008,.066-.032,.005-.036-.1-.131-.218-.134,.023,.042,.046,.081,.046,.081l.106,.086Z" fill="#d21c33"/><path d="M18.469,19.167c.08,.006,.151,.032,.161-.003,.008-.032-.068-.118-.167-.149l-.038,.102,.045,.05Z" fill="#d21c33"/><polygon points="18.682 21.04 18.679 21.051 18.676 21.063 18.659 21.125 18.625 21.245 19.176 21.312 18.682 21.04" fill="#d21c33"/><path d="M17.268,20.258l-.165-.011c-.008,.017-.188,.384-.038,.416,.154,.032,.13-.219,.219-.3l.006-.003c.028-.025,.054-.035,.079-.046l-.101-.056Z" fill="#d21c33"/><path d="M18.38,19.17l-.012-.013-.174-.029c-.084,.089-.174,.208-.096,.262,.018,.013,.031,.005,.046,.005,.091,.001,.142-.186,.236-.225Z" fill="#d21c33"/><path d="M17.793,19.65c.015-.007,.024-.005,.038-.01l-.046-.038-.168-.074c-.073,.088-.226,.291-.117,.349,.06,.032,.102,0,.14-.048,.05-.061,.092-.149,.153-.179Z" fill="#d21c33"/><path d="M22.614,20.314c.026,.012,.051,.021,.079,.046l.006,.003c.089,.081,.065,.331,.219,.3,.15-.032-.029-.396-.038-.415l-.164,.01-.101,.056Z" fill="#d21c33"/><path d="M22.679,20.17c-.083,.007-.155,.045-.159,.072-.002,.009,.015,.012,.02,.018l.135-.074,.005-.016Z" fill="#d21c33"/><path d="M20.473,21.585c0,.026-.02,.05-.048,.072v.44l.411-.126,.245-.33-.338-.034-.148-.178-.049,.027-.097-.057,.083-.045-.006-.008,.026-.003,.729-.397-.128-.478-.034,.025-.127,.095-.696,.569-.057-.073,.722-.585-.051-.451-.041,.038-.068,.063-.57,.659v-.122l.045-.052-.065,.06c-.015,.297-.038,.552-.067,.736,.187,.016,.329,.078,.329,.155Z" fill="#d21c33"/><path d="M22.203,19.449c-.118,.003-.223,.098-.219,.135,.003,.025,.028,.028,.066,.032l.106-.086s.023-.039,.047-.081Z" fill="#d21c33"/><path d="M21.532,19.01c-.106,.028-.187,.121-.179,.154,.011,.042,.106-.009,.206,.002l.043-.049-.07-.107Z" fill="#d21c33"/><polygon points="21.366 21.244 21.312 21.063 21.305 21.037 20.807 21.312 21.366 21.244" fill="#d21c33"/><path d="M22.197,19.603l-.046,.038c.014,.004,.024,.002,.039,.01,.061,.03,.103,.118,.153,.179,.038,.047,.08,.08,.141,.048,.108-.058-.045-.261-.118-.349l-.168,.074Z" fill="#d21c33"/><path d="M21.659,19.157l-.031,.035c.077,.062,.128,.203,.21,.203,.015,0,.029,.008,.047-.005,.076-.054-.009-.17-.092-.259l-.134,.025Z" fill="#d21c33"/><path d="M19.647,22.412h.017c-.009-.01-.014-.021-.017-.033v.033Z" fill="#d21c33"/><path d="M20.056,21.747c-.185,0-.337-.048-.392-.113h-.017v.711c.023-.081,.193-.145,.408-.145,.163,0,.3,.037,.369,.09v-.633c-.069,.052-.206,.09-.369,.09Z" fill="#d21c33"/><path d="M20.056,22.2c-.215,0-.386,.063-.408,.145-.002,.006-.009,.011-.009,.017,0,.006,.007,.011,.009,.017,.003,.011,.008,.022,.017,.033,.055,.065,.206,.112,.391,.112,.231,0,.417-.072,.417-.162,0-.026-.02-.05-.048-.072-.069-.053-.206-.09-.369-.09Z" fill="#d21c33"/></g><g><path d="M21.857,22.289c-.461,0-.566-.542-.566-.542l-.34,.372-.123-.138,.008-.01-.411,.126v.193c.029,.022,.048,.046,.048,.072,0,.09-.186,.162-.417,.162-.185,0-.337-.047-.391-.112h-.017v-.033c-.002-.006-.009-.011-.009-.017,0-.006,.007-.011,.009-.017v-.242l-.514-.151,.022,.03-.122,.138-.34-.372s-.105,.542-.566,.542c-.317,0-.478-.217-.552-.403-.607,.142-1.161,.328-1.618,.56v.936h8.087v-.936c-.468-.238-1.02-.428-1.629-.572-.072,.189-.234,.415-.558,.415Zm1.476,.51l-.116,.194,.101,.095c-.951,.018-1.41-.29-1.41-.29-.475,.315-1.872,.324-1.872,.324,0,0-1.356-.009-1.831-.324,0,0-.439,.307-1.391,.29l.11-.095-.11-.194s.403,.015,.823-.077c.421-.091,.494-.256,.677-.219,.183,.037,.567,.194,.915,.239,.348,.044,.807,.058,.807,.058,0,0,.499-.015,.847-.058,.347-.045,.771-.202,.954-.239,.183-.037,.255,.128,.676,.219,.42,.091,.821,.077,.821,.077Z" fill="#006a16"/><path d="M20.198,18.913c.042-.012,.083-.014,.106,.026,.065,.114,.126,.097,.135-.154,.008-.25-.056-.624-.056-.624,0,0,.145,.259,.19,.389,.044,.13,.295,.17,.263,0-.032-.17-.234-.438-.113-.349,.122,.089,.267,.146,.408,.146,.142,0,.336,.016,.151-.135-.186-.152-.607-.327-.607-.327,.162,.016,.461,.17,.655,.283s.331-.016,.226-.162c-.105-.146-.486-.259-.486-.259,0,0,.227,.008,.381,.032,.154,.025,.444,.146,.289-.04-.156-.186-.556-.178-.827-.186-.271-.008-.408,.089-.287-.04s.309-.096,.507-.105c.198-.008,.233-.032,.111-.096-.122-.065-.335-.145-.618-.072-.278,.071-.453,.244-.601,.274-.148-.029-.333-.203-.611-.274-.283-.073-.503,.007-.624,.072-.122,.064-.089,.088,.109,.096,.198,.008,.384-.024,.505,.105,.122,.13-.016,.032-.287,.04s-.672,0-.827,.186c-.156,.186,.135,.064,.289,.04,.154-.025,.38-.032,.38-.032,0,0-.38,.113-.486,.259-.105,.145,.032,.275,.227,.162,.194-.114,.494-.267,.655-.283,0,0-.421,.175-.607,.327-.186,.151,.009,.135,.15,.135s.287-.056,.408-.146c.122-.089-.08,.178-.113,.349-.032,.17,.219,.13,.263,0,.044-.13,.19-.389,.19-.389,0,0-.064,.372-.056,.624,.008,.251,.091,.267,.156,.154,.024-.042,.071-.038,.119-.023,.082,.025,.169,.091,.169,.091,0,0,.085-.07,.163-.093Z" fill="#006a16"/></g></svg>