<?xml version="1.0" encoding="UTF-8"?><svg id="Layer_1" xmlns="http://www.w3.org/2000/svg" viewBox="0 0 40 40"><rect x="2" y="8" width="36" height="24" rx="4" ry="4" fill="#00a03e"/><polygon points="28.4 14.955 28.657 14.264 29.281 12.587 27.168 13.987 25.174 12.422 25.861 14.853 23.747 16.254 25.545 16.326 26.286 16.355 26.973 18.787 27.855 16.418 30.393 16.521 28.4 14.955" fill="#e3e7ea"/><polygon points="14.163 24.388 14.421 23.698 15.045 22.02 12.931 23.421 10.937 21.855 11.624 24.286 9.51 25.687 11.308 25.759 12.049 25.789 12.736 28.22 13.618 25.852 16.156 25.954 14.163 24.388" fill="#e3e7ea"/><polygon points="28.657 14.264 29.281 12.587 27.168 13.987 25.174 12.422 25.861 14.853 23.747 16.254 25.545 16.326 26.286 16.355 26.973 18.787 27.855 16.418 30.393 16.521 28.4 14.955 28.657 14.264" fill="none"/><polygon points="14.421 23.698 15.045 22.02 12.931 23.421 10.937 21.855 11.624 24.286 9.51 25.687 11.308 25.759 12.049 25.789 12.736 28.22 13.618 25.852 16.156 25.954 14.163 24.388 14.421 23.698" fill="none"/><path d="m34.005,32c2.207,0,3.995-1.789,3.995-3.996v-13.009l-25.662,17.005h21.667Z" fill="#cf002e"/><polygon points="27.662 8 2 25.005 2 26.982 30.647 8 27.662 8" fill="#f9cf00"/><polygon points="12.338 32 38 14.995 38 13.018 9.352 32 12.338 32" fill="#f9cf00"/><path d="m2,26.982v1.022c0,2.207,1.789,3.996,3.995,3.996h3.357l28.648-18.982v-1.022c0-2.206-1.788-3.995-3.995-3.995h-3.357L2,26.982Zm11.618-1.131l-.882,2.368-.687-2.431-.741-.03-1.798-.072,2.114-1.401-.687-2.431,1.993,1.565,2.114-1.401-.624,1.677-.258.691,1.993,1.565-2.539-.102Zm14.237-9.433l-.882,2.368-.687-2.431-.741-.03-1.798-.072,2.114-1.401-.687-2.431,1.993,1.565,2.114-1.401-.625,1.677-.257.691,1.993,1.566-2.539-.102Z"/><rect x="-.859" y="17.491" width="34.366" height="0" transform="translate(-6.945 11.927) rotate(-33.53)"/></svg>