<svg id="Layer_1" data-name="Layer 1" xmlns="http://www.w3.org/2000/svg" xmlns:xlink="http://www.w3.org/1999/xlink" viewBox="0 0 40 40"><defs><style>.cls-1{fill:none;}.cls-2{clip-path:url(#clip-path);}.cls-3{fill:#2d2d86;}.cls-4{fill:#b92026;}.cls-5{fill:#e5e8eb;}.cls-6{clip-path:url(#clip-path-2);}</style><clipPath id="clip-path"><rect id="SVGID" class="cls-1" x="0.909" y="9.02" width="38.183" height="21.959" rx="4"/></clipPath><clipPath id="clip-path-2"><rect id="SVGID-2" data-name="SVGID" class="cls-1" x="0.909" y="9.02" width="38.183" height="21.959"/></clipPath></defs><g class="cls-2"><rect class="cls-3" x="0.909" y="9.02" width="38.183" height="21.959"/><rect class="cls-4" x="0.909" y="14.51" width="38.183" height="10.98"/><rect class="cls-5" x="12.92" y="19.98" width="14.16" height="2.257"/><path class="cls-4" d="M27.108,22.265H12.92l-.028-2.285,14.188-.028.028,2.313Zm-.056-2.285-14.132.028.028,2.229,14.1-.028V19.98Z"/><polygon class="cls-5" points="12.91 22.237 12.682 22.768 27.318 22.768 27.09 22.237 12.91 22.237"/><path class="cls-4" d="M27.361,22.8H12.639l.245-.57,14.206-.017.271.587ZM12.722,22.74H27.276l-.212-.493-14.154.018-.188.475Z"/><polygon class="cls-5" points="24.096 22.237 23.818 22.768 27.148 22.768 26.87 22.237 24.096 22.237"/><path class="cls-4" d="M27.194,22.8H23.772l.3-.572,2.8-.015.324.587Zm-3.331-.056H27.1l-.256-.491-2.749.016-.233.475Z"/><polygon class="cls-5" points="24.898 22.237 24.758 22.768 26.435 22.768 26.295 22.237 24.898 22.237"/><path class="cls-4" d="M26.472,22.8H24.758l.113-.566,1.424-.021.177.587Zm-.2-.552-1.37.021-.112.51,1.613-.034-.131-.5Z"/><polygon class="cls-5" points="25.146 22.237 25.056 22.768 26.14 22.768 26.049 22.237 25.146 22.237"/><path class="cls-4" d="M26.173,22.8H25.056l.062-.564.931-.023.124.587Zm-.152-.555-.875.024-.062.507,1.023-.031-.086-.5Z"/><polygon class="cls-5" points="18.541 22.237 18.25 22.768 21.75 22.768 21.458 22.237 18.541 22.237"/><path class="cls-4" d="M21.8,22.8H18.2l.314-.573,2.941-.014.339.587Zm-3.5-.056H21.7l-.269-.49-2.893.015-.245.475Z"/><rect class="cls-5" x="12.841" y="19.945" width="14.318" height="0.531"/><path class="cls-4" d="M27.187,20.5H12.841l-.028-.559,14.346-.028.028.587Zm-.056-.559-14.29.028.028.5,14.262-.027v-.5Z"/><rect class="cls-5" x="24.074" y="19.985" width="2.807" height="2.248"/><path class="cls-4" d="M26.909,22.261H24.074l-.028-2.276,2.835-.028.028,2.3Zm-.056-2.276-2.779.027.028,2.221,2.751-.028v-2.22Z"/><rect class="cls-5" x="26.082" y="21.038" width="0.281" height="1.195"/><path class="cls-4" d="M26.391,22.261h-.309l-.028-1.223.309-.028.028,1.251Zm-.057-1.223-.252.028.028,1.167.224-.025v-1.17Z"/><rect class="cls-5" x="24.847" y="21.038" width="0.281" height="1.195"/><path class="cls-4" d="M25.156,22.261h-.309l-.028-1.223.309-.028.028,1.251ZM25.1,21.038l-.252.028.028,1.167.224-.025v-1.17Z"/><polygon class="cls-5" points="19.258 22.237 19.112 22.768 20.87 22.768 20.723 22.237 19.258 22.237"/><path class="cls-4" d="M20.906,22.8H19.112l.119-.566,1.492-.021.183.587Zm-.21-.552-1.438.021-.12.51,1.695-.034-.137-.5Z"/><polygon class="cls-5" points="19.541 22.237 19.449 22.768 20.551 22.768 20.459 22.237 19.541 22.237"/><path class="cls-4" d="M20.585,22.8H19.449l.064-.564.946-.023.126.587Zm-.153-.554-.891.023-.065.508,1.042-.032-.086-.5Z"/><rect class="cls-5" x="18.507" y="19.98" width="2.957" height="2.257"/><path class="cls-4" d="M21.492,22.265H18.507l-.028-2.285,2.985-.028.028,2.313Zm-.056-2.285-2.929.028.029,2.229,2.9-.028V19.98Z"/><rect class="cls-5" x="20.863" y="21.038" width="0.281" height="1.195"/><path class="cls-4" d="M21.172,22.26h-.309l-.028-1.222.309-.028.028,1.25Zm-.057-1.222-.252.028.028,1.166.224-.025V21.038Z"/><rect class="cls-5" x="18.91" y="21.038" width="0.281" height="1.195"/><path class="cls-4" d="M19.219,22.26H18.91l-.028-1.222.309-.028.028,1.25Zm-.056-1.222-.253.028.029,1.166.224-.025V21.038Z"/><rect class="cls-5" x="19.284" y="19.433" width="1.432" height="2.803"/><path class="cls-4" d="M20.744,22.264h-1.46l-.028-2.831,1.46-.027.028,2.858Zm-.056-2.831-1.4.028.028,2.775,1.376-.027V19.433Z"/><rect class="cls-5" x="20.358" y="21.038" width="0.281" height="1.195"/><path class="cls-4" d="M20.667,22.26h-.309l-.029-1.222.309-.028.029,1.25Zm-.057-1.222-.252.028.028,1.166.224-.025V21.038Z"/><rect class="cls-5" x="19.415" y="21.038" width="0.281" height="1.195"/><path class="cls-4" d="M19.725,22.26h-.31l-.028-1.222.31-.028.028,1.25Zm-.057-1.222-.253.028.029,1.166.224-.025V21.038Z"/><polygon class="cls-5" points="19.377 19.883 19.982 20.745 20.623 19.883 19.377 19.883"/><path class="cls-4" d="M19.982,20.792l-.658-.936h1.354l-.7.936Zm-.551-.881.552.786.584-.786Z"/><rect class="cls-5" x="25.188" y="19.98" width="0.795" height="2.788"/><path class="cls-4" d="M26.012,22.8h-.824L25.16,19.98l.823-.028.029,2.844Zm-.057-2.816-.767.028.028,2.76.739-.027V19.98Z"/><rect class="cls-5" x="25.32" y="19.98" width="0.53" height="2.788"/><path class="cls-4" d="M25.878,22.8H25.32l-.028-2.816.558-.028.028,2.844Zm-.056-2.816-.5.028.028,2.76.474-.026V19.98Z"/><polygon class="cls-5" points="13.1 22.237 12.823 22.768 16.153 22.768 15.875 22.237 13.1 22.237"/><path class="cls-4" d="M16.2,22.8H12.777l.3-.572,2.8-.015.324.587Zm-3.331-.056h3.238l-.256-.491-2.75.016-.232.475Z"/><polygon class="cls-5" points="13.767 22.237 13.636 22.768 15.202 22.768 15.071 22.237 13.767 22.237"/><path class="cls-4" d="M15.238,22.8h-1.6l.1-.566,1.331-.021.167.587Zm-.194-.553-1.277.022-.1.509,1.5-.033-.122-.5Z"/><polygon class="cls-5" points="13.999 22.237 13.916 22.768 14.915 22.768 14.832 22.237 13.999 22.237"/><path class="cls-4" d="M14.948,22.8H13.916l.055-.564.861-.023.116.587Zm-.144-.555-.8.024-.055.507.938-.031-.078-.5Z"/><rect class="cls-5" x="13.079" y="19.98" width="2.784" height="2.257"/><path class="cls-4" d="M15.892,22.265H13.079l-.028-2.285,2.812-.028.029,2.313Zm-.057-2.285-2.756.028.029,2.229,2.727-.028V19.98Z"/><rect class="cls-5" x="13.622" y="21.038" width="0.281" height="1.195"/><path class="cls-4" d="M13.931,22.261h-.309l-.028-1.223.309-.028.028,1.251Zm-.056-1.223-.253.028.028,1.167.225-.025v-1.17Z"/><rect class="cls-5" x="14.913" y="21.038" width="0.281" height="1.195"/><path class="cls-4" d="M15.222,22.261h-.309l-.028-1.223.309-.028.028,1.251Zm-.056-1.223-.253.028.028,1.167.225-.025v-1.17Z"/><rect class="cls-5" x="14.034" y="19.98" width="0.795" height="2.788"/><path class="cls-4" d="M14.858,22.8h-.824l-.028-2.816.823-.028.029,2.844ZM14.8,19.98l-.767.028.028,2.76.739-.027V19.98Z"/><rect class="cls-5" x="14.166" y="19.98" width="0.53" height="2.788"/><path class="cls-4" d="M14.724,22.8h-.558l-.028-2.816.558-.028.028,2.844Zm-.057-2.816-.5.028.028,2.76.473-.026V19.98Z"/><rect class="cls-5" x="12.682" y="19.448" width="14.637" height="0.531"/><path class="cls-4" d="M27.347,20.007H12.682l-.029-.559,14.665-.027.029.586Zm-.057-.559-14.608.028.028.5,14.58-.027v-.5Z"/><rect class="cls-5" x="12.275" y="22.635" width="15.391" height="0.683"/><path class="cls-4" d="M27.694,23.346H12.275l-.028-.711,15.419-.028.028.739Zm-.056-.711-15.363.028.028.655,15.335-.027v-.656Z"/><rect class="cls-5" x="12.04" y="22.781" width="15.861" height="0.683"/><path class="cls-4" d="M27.929,23.492H12.04l-.028-.711L27.9,22.753l.028.739Zm-.056-.711-15.833.028.028.655,15.805-.027v-.656Z"/><rect class="cls-5" x="11.629" y="23.171" width="16.742" height="0.683"/><path class="cls-4" d="M28.4,23.882H11.629l-.028-.711,16.77-.027.028.738Zm-.056-.711L11.629,23.2l.028.656,16.686-.028v-.656Z"/><rect class="cls-5" x="11.042" y="23.659" width="17.916" height="0.683"/><path class="cls-4" d="M28.986,24.37H11.042l-.028-.711,17.944-.028.028.739Zm-.056-.711-17.888.028.028.655,17.86-.028v-.655Z"/><rect class="cls-5" x="10.458" y="24.346" width="19.083" height="0.675"/><path class="cls-4" d="M29.57,25.049H10.458l-.028-.7,19.112-.028.028.731Zm-.057-.7-19.055.028.029.647,19.026-.028v-.647Z"/><rect class="cls-5" x="14.034" y="22.635" width="0.795" height="2.39"/><path class="cls-4" d="M14.858,25.053h-.824l-.028-2.418.823-.028.029,2.446ZM14.8,22.635l-.767.028.028,2.362L14.8,25V22.635Z"/><rect class="cls-5" x="14.166" y="22.635" width="0.531" height="2.39"/><path class="cls-4" d="M14.725,25.053h-.559l-.028-2.418.559-.028.028,2.446Zm-.056-2.418-.5.028.029,2.362L14.669,25V22.635Z"/><rect class="cls-5" x="25.171" y="22.635" width="0.795" height="2.39"/><path class="cls-4" d="M25.994,25.053h-.823l-.029-2.418.824-.028.028,2.446Zm-.056-2.418-.767.028.028,2.362L25.938,25V22.635Z"/><rect class="cls-5" x="25.303" y="22.635" width="0.531" height="2.39"/><path class="cls-4" d="M25.862,25.053H25.3l-.028-2.418.559-.028.028,2.446Zm-.057-2.418-.5.028.028,2.362L25.805,25V22.635Z"/><rect class="cls-5" x="19.706" y="19.979" width="0.639" height="5.046"/><path class="cls-4" d="M20.373,25.053h-.667l-.028-5.074.667-.028.028,5.1Zm-.056-5.074-.611.028.028,5.018L20.317,25V19.979Z"/><g class="cls-6"><path class="cls-5" d="M24.256,20l.007-1.383s.143.271,1.251.33c1.049-.034,1.222-.2,1.27-.347l-.043,1.406Z"/><path class="cls-4" d="M26.768,20.035l-2.512,0-.021-1.411v-.1l.052.091s.161.259,1.227.316c1.017-.034,1.2-.193,1.242-.329l.055.01-.044,1.432Zm-2.477-1.347L24.284,20l2.429-.022.04-1.266c-.114.128-.408.235-1.238.263a2.2,2.2,0,0,1-1.224-.289Z"/><path class="cls-5" d="M24.972,18.382l-.343-.271c.114-.071.327.051.327.051a.839.839,0,0,1,.6-.443.839.839,0,0,1,.6.443s.213-.122.327-.051l-.343.271Z"/><path class="cls-4" d="M26.158,18.41H24.972l-.36-.277a.1.1,0,0,1,.106-.072.6.6,0,0,1,.248.074c-.018-.029.115-.317.587-.443a.894.894,0,0,1,.633.448.333.333,0,0,1,.32-.052l-.348.322Zm-1.44-.294a.137.137,0,0,0-.074.019l.346.226,1.148-.006.3-.239a.241.241,0,0,1-.038,0,.577.577,0,0,0-.224.069,1.076,1.076,0,0,0-.625-.44.82.82,0,0,0-.571.426c-.047.013-.163-.055-.264-.055Z"/><path class="cls-5" d="M24.8,19.086l-.445-.38c.149-.1.424.071.424.071a1.121,1.121,0,0,1,.786-.62,1.121,1.121,0,0,1,.786.62s.276-.17.425-.071l-.446.38Z"/><path class="cls-4" d="M26.335,19.114H24.8l-.463-.387a.135.135,0,0,1,.133-.079.739.739,0,0,1,.322.1c-.022-.03.143-.441.765-.62a1.161,1.161,0,0,1,.816.626.434.434,0,0,1,.418-.074l-.451.431Zm-1.87-.411a.178.178,0,0,0-.1.026l.448.337,1.5-.007.427-.364a.169.169,0,0,1-.086.008.7.7,0,0,0-.3.1,1.356,1.356,0,0,0-.808-.616,1.1,1.1,0,0,0-.751.6c-.044.015-.2-.083-.336-.083Z"/><path class="cls-5" d="M25.566,16.262c.015,0,.534.915,0,.929s0-.9,0-.929Z"/><path class="cls-4" d="M25.555,17.219a.234.234,0,0,1-.214-.1c-.127-.2.091-.645.174-.813.013-.027.022-.045.024-.052a.036.036,0,0,1,.027.006H25.6a.045.045,0,0,1-.006.02,1.324,1.324,0,0,1,.246.649.251.251,0,0,1-.268.288Zm.016-.9-.006.012c-.071.146-.287.587-.177.761a.182.182,0,0,0,.167.072v.027l.011-.028a.19.19,0,0,0,.19-.1c.089-.194-.109-.61-.185-.741Z"/><path class="cls-5" d="M25.116,17.423l-.264-.142a.444.444,0,0,1,.251.026s.088-.163.465-.232c.377.069.465.232.465.232a.444.444,0,0,1,.251-.026l-.264.142Z"/><path class="cls-4" d="M26.027,17.451h-.911l-.328-.173.053-.023a.5.5,0,0,1,.268.025c-.01-.02.1-.168.454-.233a.711.711,0,0,1,.489.239.32.32,0,0,1,.243-.031l.053.023-.321.173ZM24.942,17.3l.187.1.884,0,.181-.1a.622.622,0,0,0-.151.035.85.85,0,0,0-.48-.231c-.346.065-.434.217-.435.219a1.05,1.05,0,0,1-.186-.023Z"/><path class="cls-5" d="M25.336,17.54l-.006-.117a.239.239,0,0,1,.477,0l-.007.117Z"/><path class="cls-4" d="M25.827,17.568h-.491l-.034-.143a.393.393,0,0,1,.257-.26.4.4,0,0,1,.275.251l-.007.152Zm-.268-.351a.345.345,0,0,0-.2.214l.007.107.41-.024,0-.092h0a.354.354,0,0,0-.219-.205Z"/><path class="cls-5" d="M25.1,17.888l-.013-.155a.523.523,0,0,1,.955,0l-.013.155Z"/><path class="cls-4" d="M26.059,17.916H25.1l-.041-.181c.006-.022.1-.245.5-.338a.679.679,0,0,1,.51.326l-.013.193Zm-.5-.466a.63.63,0,0,0-.445.294l.015.142.875-.025.011-.129h0a.678.678,0,0,0-.455-.282Z"/><path class="cls-5" d="M25.1,18.12l-.013-.154a.523.523,0,0,1,.955,0l-.013.154Z"/><path class="cls-4" d="M26.059,18.148H25.1l-.041-.18c.006-.022.1-.245.5-.339a.685.685,0,0,1,.51.326l-.013.193Zm-.5-.465a.63.63,0,0,0-.445.293l.015.142.875-.025.011-.129h0a.675.675,0,0,0-.455-.281Z"/><path class="cls-5" d="M25.116,18.818l-.264-.381c.088-.1.251.071.251.071a.954.954,0,0,1,.465-.62.954.954,0,0,1,.465.62s.163-.169.251-.071l-.264.381Z"/><path class="cls-4" d="M26.035,18.846h-.919l-.287-.393c.071-.168.2-.048.259,0a.952.952,0,0,1,.468-.593.946.946,0,0,1,.492.593c.062-.051.192-.111.257-.037l-.27.427Zm-1.114-.412a.061.061,0,0,0-.048.021l.266.347.866-.012.252-.363c-.01.012-.024.007-.041.007a.3.3,0,0,0-.163.093l-.037.038-.011-.052a.935.935,0,0,0-.449-.6.954.954,0,0,0-.425.6l-.01.053-.038-.039a.3.3,0,0,0-.162-.093Z"/><path class="cls-5" d="M25.116,19.282l-.264-.38c.088-.1.251.07.251.07a.953.953,0,0,1,.465-.619.953.953,0,0,1,.465.619s.163-.168.251-.07l-.264.38Z"/><path class="cls-4" d="M26.035,19.31h-.919l-.287-.392c.071-.169.2-.048.259,0a.95.95,0,0,1,.468-.593.944.944,0,0,1,.492.593c.062-.051.193-.11.257-.037l-.27.426ZM24.921,18.9a.063.063,0,0,0-.048.021l.266.347.866-.012.252-.363c-.011.012-.024.007-.041.007a.305.305,0,0,0-.163.092l-.037.039-.011-.052a.932.932,0,0,0-.449-.6.954.954,0,0,0-.425.6l-.01.052-.038-.039a.306.306,0,0,0-.162-.092Z"/><path class="cls-5" d="M25.1,19.979l-.013-.387a1.221,1.221,0,0,1,.477-.774,1.224,1.224,0,0,1,.478.774l-.013.387Z"/><path class="cls-4" d="M26.06,20.007H25.1l-.041-.414a1.232,1.232,0,0,1,.491-.8,1.2,1.2,0,0,1,.519.794l-.013.419Zm-.506-1.165a1.254,1.254,0,0,0-.435.754l.013.382.873-.026.012-.361a1.2,1.2,0,0,0-.463-.749Z"/><path class="cls-5" d="M25.116,19.979l-.264-.285c.088-.074.251.053.251.053a.75.75,0,0,1,.465-.465.75.75,0,0,1,.465.465s.163-.127.251-.053l-.264.285Z"/><path class="cls-4" d="M26.033,20.007h-.917l-.284-.294c.026-.059.055-.07.089-.07a.35.35,0,0,1,.168.06.782.782,0,0,1,.469-.447.787.787,0,0,1,.489.447c.059-.037.187-.086.256-.03l-.27.334ZM24.921,19.7a.073.073,0,0,0-.05.016l.266.246.871-.009.234-.254a.1.1,0,0,1-.026,0,.332.332,0,0,0-.166.07l-.033.026-.011-.041a.731.731,0,0,0-.448-.446.735.735,0,0,0-.428.446l-.01.041-.034-.026a.342.342,0,0,0-.165-.07Z"/><path class="cls-5" d="M13.852,18.283l-.343-.271c.114-.071.327.05.327.05a.842.842,0,0,1,.6-.442.842.842,0,0,1,.6.442s.212-.121.327-.05l-.343.271Z"/><path class="cls-4" d="M15.038,18.311H13.852l-.361-.278a.1.1,0,0,1,.106-.071.6.6,0,0,1,.248.074c-.017-.029.116-.317.588-.443a.894.894,0,0,1,.633.448.335.335,0,0,1,.32-.053l-.348.323ZM13.6,18.017a.134.134,0,0,0-.073.018l.345.227,1.149-.006.3-.239c-.012,0-.024,0-.038,0a.547.547,0,0,0-.224.069,1.076,1.076,0,0,0-.625-.44.82.82,0,0,0-.571.425c-.046.014-.163-.054-.265-.054Z"/><path class="cls-5" d="M13.676,18.987l-.447-.38c.149-.1.425.07.425.07a1.122,1.122,0,0,1,.786-.619,1.122,1.122,0,0,1,.786.619s.275-.169.424-.07l-.446.38Z"/><path class="cls-4" d="M15.214,19.015H13.676l-.465-.387a.137.137,0,0,1,.134-.079.744.744,0,0,1,.322.1c-.022-.03.142-.442.765-.621a1.162,1.162,0,0,1,.816.627.433.433,0,0,1,.418-.074l-.452.431ZM13.345,18.6a.181.181,0,0,0-.1.026l.449.336,1.5-.006.426-.364c-.022.014-.052.007-.086.008a.7.7,0,0,0-.294.1,1.356,1.356,0,0,0-.808-.617,1.1,1.1,0,0,0-.751.6c-.04.018-.2-.082-.336-.082Z"/><path class="cls-5" d="M13.23,20l.008-1.383s.143.271,1.251.33c1.048-.034,1.222-.2,1.27-.347l-.044,1.406Z"/><path class="cls-4" d="M15.742,20.035l-2.512,0-.02-1.411v-.1l.052.091s.161.259,1.227.316c1.017-.034,1.2-.193,1.242-.329l.055.01-.045,1.432Zm-2.476-1.347L13.259,20l2.429-.022.039-1.266c-.114.128-.408.235-1.237.263a2.2,2.2,0,0,1-1.224-.289Z"/><path class="cls-5" d="M14.43,16.262c.014,0,.533.915,0,.929s0-.9,0-.929Z"/><path class="cls-4" d="M14.418,17.219a.234.234,0,0,1-.214-.1c-.127-.2.092-.645.174-.813l.025-.052a.033.033,0,0,1,.026.006h.029a.045.045,0,0,1-.006.02,1.314,1.314,0,0,1,.246.649.25.25,0,0,1-.267.288Zm.017-.9-.006.012c-.071.146-.288.587-.178.761a.183.183,0,0,0,.167.072v.027l.011-.028a.192.192,0,0,0,.191-.1c.088-.194-.11-.61-.185-.741Z"/><path class="cls-5" d="M13.979,17.423l-.263-.142a.444.444,0,0,1,.251.026s.088-.163.465-.232c.376.069.465.232.465.232a.444.444,0,0,1,.251-.026l-.264.142Z"/><path class="cls-4" d="M14.891,17.451h-.912l-.327-.173.053-.023a.5.5,0,0,1,.267.025c-.009-.02.1-.168.455-.233a.717.717,0,0,1,.489.239.319.319,0,0,1,.243-.031l.053.023-.321.173ZM13.805,17.3l.188.1.884,0,.181-.1a.574.574,0,0,0-.151.035.855.855,0,0,0-.48-.231c-.346.065-.435.217-.436.219a1.061,1.061,0,0,1-.186-.023Z"/><path class="cls-5" d="M14.2,17.54l-.007-.117a.378.378,0,0,1,.239-.232.378.378,0,0,1,.238.232l-.006.117Z"/><path class="cls-4" d="M14.69,17.568H14.2l-.035-.143a.393.393,0,0,1,.257-.26.4.4,0,0,1,.275.251l-.007.152Zm-.268-.351a.352.352,0,0,0-.2.214l.008.107.409-.024,0-.092h0a.357.357,0,0,0-.22-.205Z"/><path class="cls-5" d="M13.967,17.888l-.013-.155a.651.651,0,0,1,.478-.31.65.65,0,0,1,.477.31l-.013.155Z"/><path class="cls-4" d="M14.922,17.916h-.955l-.041-.181c.006-.022.1-.245.5-.338.41.093.506.316.51.326l-.013.193Zm-.5-.466a.63.63,0,0,0-.445.294l.015.142.875-.025.011-.129h0a.682.682,0,0,0-.456-.282Z"/><path class="cls-5" d="M13.967,18.12l-.013-.154a.648.648,0,0,1,.478-.31.647.647,0,0,1,.477.31l-.013.154Z"/><path class="cls-4" d="M14.922,18.148h-.955l-.041-.18c.006-.022.1-.245.5-.339a.682.682,0,0,1,.51.326l-.013.193Zm-.5-.465a.63.63,0,0,0-.445.293l.015.142.875-.025.011-.129h0a.679.679,0,0,0-.456-.281Z"/><path class="cls-5" d="M13.979,18.818l-.263-.381c.088-.1.251.071.251.071a.954.954,0,0,1,.465-.62.958.958,0,0,1,.465.62s.163-.169.251-.071l-.264.381Z"/><path class="cls-4" d="M14.9,18.846h-.92l-.286-.393c.07-.168.2-.048.258,0a.96.96,0,0,1,.468-.593.945.945,0,0,1,.493.593c.061-.051.191-.111.257-.037l-.27.427Zm-1.115-.412a.061.061,0,0,0-.047.021L14,18.8l.866-.012.252-.363c-.011.012-.024.007-.042.007a.3.3,0,0,0-.162.093l-.037.038-.011-.052a.934.934,0,0,0-.45-.6.959.959,0,0,0-.425.6l-.01.053-.037-.039a.3.3,0,0,0-.163-.093Z"/><path class="cls-5" d="M13.979,19.282l-.263-.38c.088-.1.251.07.251.07a.953.953,0,0,1,.465-.619.957.957,0,0,1,.465.619s.163-.168.251-.07l-.264.38Z"/><path class="cls-4" d="M14.9,19.31h-.92l-.286-.392c.071-.169.2-.048.258,0a.953.953,0,0,1,.468-.593.943.943,0,0,1,.493.593c.061-.05.191-.111.257-.037l-.27.426ZM13.784,18.9a.061.061,0,0,0-.047.021l.266.347.866-.012.252-.363c-.011.012-.025.007-.042.007a.3.3,0,0,0-.162.092l-.037.039-.011-.052a.931.931,0,0,0-.45-.6.959.959,0,0,0-.425.6l-.01.052-.037-.039a.305.305,0,0,0-.163-.092Z"/><path class="cls-5" d="M13.967,19.979l-.013-.387a1.219,1.219,0,0,1,.478-.774,1.221,1.221,0,0,1,.477.774l-.013.387Z"/><path class="cls-4" d="M14.923,20.007h-.956l-.041-.414a1.236,1.236,0,0,1,.491-.8,1.2,1.2,0,0,1,.52.794l-.014.419Zm-.506-1.165a1.254,1.254,0,0,0-.435.754l.014.382.873-.026.012-.361a1.206,1.206,0,0,0-.464-.749Z"/><path class="cls-5" d="M13.979,19.979l-.263-.285c.088-.074.251.053.251.053a.75.75,0,0,1,.465-.465.753.753,0,0,1,.465.465s.163-.127.251-.053l-.264.285Z"/><path class="cls-4" d="M14.9,20.007h-.918l-.284-.294c.026-.059.055-.07.089-.07a.346.346,0,0,1,.168.06.782.782,0,0,1,.47-.447.787.787,0,0,1,.489.447c.059-.037.186-.086.255-.03l-.269.334ZM13.784,19.7a.073.073,0,0,0-.05.016l.266.246.871-.009.235-.254a.115.115,0,0,1-.027,0,.342.342,0,0,0-.165.07l-.034.026-.01-.041a.731.731,0,0,0-.448-.446.731.731,0,0,0-.428.446l-.011.041-.034-.026a.342.342,0,0,0-.165-.07Z"/><path class="cls-5" d="M18.38,19.357h3.24a.285.285,0,1,1,0,.57H18.38a.285.285,0,1,1,0-.57Z"/><path class="cls-4" d="M21.62,19.955H18.38a.313.313,0,1,1,0-.626h3.24a.313.313,0,1,1,0,.626Zm-3.24-.571a.258.258,0,1,0,0,.516h3.24a.258.258,0,1,0,0-.516Z"/><path class="cls-5" d="M21.964,19.692l.024-1.882s-.073.462-.294.462H18.306c-.221,0-.294-.462-.294-.462l.024,1.882Z"/><path class="cls-4" d="M21.992,19.72H18.036l-.053-1.91.056,0c.02.122.106.439.267.439h3.388c.161,0,.247-.317.267-.439l.056,0-.025,1.91Zm-3.95-1.688.022,1.66,3.872-.027.022-1.633c-.049.129-.132.267-.264.267H18.306c-.132,0-.215-.138-.264-.267Z"/><path class="cls-5" d="M21.213,18.838l.008-.615s.423-.112.364-.274-.567.2-.567.2H18.982s-.509-.364-.568-.2.365.274.365.274l.007.615Z"/><path class="cls-4" d="M21.241,18.866H18.786l-.035-.641a.525.525,0,0,1-.355-.187.117.117,0,0,1-.008-.1.093.093,0,0,1,.1-.059A1.442,1.442,0,0,1,19,18.13l2.019,0a1.28,1.28,0,0,1,.5-.244.092.092,0,0,1,.1.059.113.113,0,0,1-.007.1c-.068.129-.363.209-.376.212l.014.588v.028Zm-2.756-.93c-.032,0-.04.012-.044.023a.062.062,0,0,0,.005.054c.047.089.262.163.34.184l.028.64,2.372-.027.007-.587c.1-.047.314-.121.361-.21a.065.065,0,0,0,.005-.054c0-.011-.013-.023-.044-.023a1.349,1.349,0,0,0-.481.239l-2.052.006a1.467,1.467,0,0,0-.5-.245Z"/><path class="cls-5" d="M21.456,19.369l.009-.651s.508-.077.437-.237-.681.2-.681.2H18.778s-.61-.363-.68-.2.437.237.437.237l.009.651Z"/><path class="cls-4" d="M21.484,19.4h-2.94l-.038-.679c-.013.018-.36-.034-.43-.158a.1.1,0,0,1,0-.09c.011-.027.04-.058.11-.058a1.873,1.873,0,0,1,.611.248l2.428,0a1.733,1.733,0,0,1,.6-.244c.07,0,.1.031.11.058a.1.1,0,0,1,0,.09c-.07.124-.416.18-.455.185l.016.624V19.4Zm-3.3-.93c-.048,0-.056.018-.059.025.05.127.317.183.416.2l.033.677,2.857-.027.008-.624c.122-.042.39-.1.438-.184,0-.22-.635.171-.64.174l-2.457,0a2.055,2.055,0,0,0-.6-.244Z"/><path class="cls-5" d="M20.355,16.05l0-.259c-.3,0-.224-.282-.224-.389A.267.267,0,0,0,20,14.974c-.239.122-.221.318-.132.419,0,.118.1.4-.229.4l0,.259Z"/><path class="cls-4" d="M20.383,16.078h-.742l-.031-.287a.407.407,0,0,0,.2-.084.316.316,0,0,0,.032-.242.719.719,0,0,1-.006-.072.235.235,0,0,1-.056-.21.344.344,0,0,1,.2-.234.319.319,0,0,1,.229.217.3.3,0,0,1-.061.253.123.123,0,0,1,0,.041.339.339,0,0,0,.042.251.212.212,0,0,0,.157.052l.026.287v.028ZM19.989,15a.33.33,0,0,0-.15.2.215.215,0,0,0,.05.181c.007.036.01.059.013.084a.357.357,0,0,1-.047.285.277.277,0,0,1-.216.075l.031.23.657-.026,0-.233a.15.15,0,0,1-.17-.041.384.384,0,0,1-.057-.293l0-.054a.282.282,0,0,0,.056-.224A.277.277,0,0,0,19.989,15Z"/><path class="cls-5" d="M20.859,17.739l.006-.5s.3-.1.257-.231-.4.167-.4.167H19.279s-.361-.3-.4-.167.258.231.258.231l0,.5Z"/><path class="cls-4" d="M20.887,17.767H19.14l-.033-.523c-.013.015-.3-.087-.257-.24a.074.074,0,0,1,.076-.053c.118,0,.345.185.371.206l1.424-.006a.8.8,0,0,1,.352-.2.073.073,0,0,1,.076.053c.049.153-.242.254-.275.265l.014.471v.027Zm-1.961-.76c-.05.1.147.187.218.21l.024.522,1.664-.027,0-.469c.091-.05.287-.136.26-.222-.1-.022-.292.125-.357.179l-1.46.006a1.054,1.054,0,0,0-.353-.2Z"/><path class="cls-5" d="M21.031,18.174l.007-.533s.359-.062.309-.194-.482.166-.482.166h-1.73s-.433-.3-.482-.166.309.194.309.194l.007.533Z"/><path class="cls-4" d="M21.059,18.2h-2.09l-.035-.56a.383.383,0,0,1-.3-.122.1.1,0,0,1-.007-.083.084.084,0,0,1,.086-.052,1.229,1.229,0,0,1,.439.206l1.714-.006a1.1,1.1,0,0,1,.423-.2.084.084,0,0,1,.086.052.1.1,0,0,1-.007.083c-.059.1-.3.144-.324.149l.017.5V18.2Zm-2.347-.761-.03.051c.034.059.193.106.285.122l.03.559L21,18.146l0-.505c.09-.039.271-.083.309-.149l-.03-.051a1.169,1.169,0,0,0-.407.2l-1.746,0a1.315,1.315,0,0,0-.423-.2Z"/><path class="cls-5" d="M20.556,16.949l0-.325s.2-.079.168-.168-.261.113-.261.113h-.933s-.233-.2-.26-.113.167.168.167.168l0,.325Z"/><path class="cls-4" d="M20.584,16.977h-1.14l-.032-.352c-.006.016-.2-.066-.166-.177l.006-.02.054-.023c.078,0,.218.119.246.143l.914-.007a.471.471,0,0,1,.228-.136h.021l.039.043c.033.11-.161.193-.184.2l.015.3v.027Zm-1.278-.516c-.021.053.089.115.145.138l.021.35,1.056-.027,0-.3c.073-.048.184-.111.169-.16a.837.837,0,0,0-.215.126l-.952.007a.7.7,0,0,0-.227-.136Z"/><path class="cls-5" d="M20.667,17.244l0-.325s.233-.078.2-.168-.312.113-.312.113H19.44s-.28-.2-.312-.113.2.168.2.168l0,.325Z"/><path class="cls-4" d="M20.7,17.272H19.333L19.3,16.92c0,.019-.156-.037-.194-.114L19.1,16.8v-.053a.062.062,0,0,1,.065-.042.773.773,0,0,1,.29.142l1.1-.006a.637.637,0,0,1,.273-.136h.02l.045.042a.08.08,0,0,1,0,.064c-.039.078-.2.134-.214.139l.016.3v.027Zm-1.528-.516c.011.07.112.117.17.137l.024.351,1.279-.026,0-.3c.078-.046.179-.093.2-.137-.065-.027-.2.054-.267.1l-1.136.006a.847.847,0,0,0-.273-.136Z"/><path class="cls-5" d="M20.394,16.376l0-.3s.137-.072.119-.145-.185.093-.185.093h-.661s-.165-.166-.184-.093.118.145.118.145l0,.259Z"/><path class="cls-4" d="M20.421,16.405l-.817-.038-.029-.287c0,.016-.141-.061-.117-.151l.005-.021.045-.019c.058,0,.153.092.181.119L20.33,16c.008-.019.1-.111.162-.111h.021l.029.039c.023.092-.117.168-.133.176l.013.272v.029Zm-.913-.461c-.006.037.072.092.108.112l.018.283.732.009,0-.268c.053-.045.13-.1.119-.138a.5.5,0,0,0-.137.105l-.681.009a.561.561,0,0,0-.161-.112Z"/><path class="cls-5" d="M20.472,16.581l0-.26s.165-.071.142-.144-.222.092-.222.092H19.6s-.2-.166-.221-.092.142.144.142.144l0,.26Z"/><path class="cls-4" d="M20.5,16.609h-.973l-.031-.287c-.013.005-.169-.061-.141-.153l.007-.02.048-.019a.5.5,0,0,1,.211.118l.775-.007a.4.4,0,0,1,.194-.111h.021l.034.039c.028.092-.127.164-.158.177l.014.235v.028Zm-1.09-.423c-.011.031.066.084.126.11l.019.284.89-.026,0-.233c.077-.051.154-.1.144-.136a.5.5,0,0,0-.177.105L19.6,16.3a.621.621,0,0,0-.193-.111Z"/><path class="cls-5" d="M19.749,16.594l-.147-.163c.049-.042.14.03.14.03A.423.423,0,0,1,20,16.2a.423.423,0,0,1,.258.265s.091-.072.14-.03l-.147.163Z"/><path class="cls-4" d="M20.264,16.622h-.515L19.54,16.4l.1-.013a.183.183,0,0,1,.087.028.459.459,0,0,1,.263-.248.465.465,0,0,1,.282.248.191.191,0,0,1,.088-.028l.056.02-.152.212Zm-.624-.177.13.13.468-.008.139-.155c-.048.033-.088.06-.1.071l-.034.027-.011-.042a.392.392,0,0,0-.241-.246.4.4,0,0,0-.221.246l-.011.042-.034-.027a.164.164,0,0,0-.084-.038Z"/><path class="cls-5" d="M19.648,16.86l-.2-.163c.068-.042.2.03.2.03a.378.378,0,0,1,.722,0s.128-.072.2-.03l-.206.163Z"/><path class="cls-4" d="M20.361,16.887h-.713l-.222-.169c.021-.056.044-.062.07-.062a.363.363,0,0,1,.149.043c-.012-.029.076-.192.348-.264a.562.562,0,0,1,.387.266.192.192,0,0,1,.192-.028l-.211.214Zm-.854-.175.159.126.676-.006.151-.12a.332.332,0,0,0-.118.039.726.726,0,0,0-.382-.263.469.469,0,0,0-.328.248c-.038.014-.1-.02-.158-.024Z"/><path class="cls-5" d="M19.6,17.324l-.235-.217c.079-.057.224.04.224.04A.61.61,0,0,1,20,16.793a.61.61,0,0,1,.413.354s.145-.1.224-.04l-.235.217Z"/><path class="cls-4" d="M20.413,17.352H19.6l-.254-.225c.024-.058.05-.065.08-.065a.368.368,0,0,1,.171.057c-.015-.035.082-.254.4-.353a.661.661,0,0,1,.442.354.2.2,0,0,1,.22-.036l-.24.268Zm-.989-.235a.076.076,0,0,0-.044.012l.237.175.773-.007.2-.18a.438.438,0,0,0-.156.053.892.892,0,0,0-.438-.351.586.586,0,0,0-.377.336c-.044.015-.124-.038-.19-.038Z"/><path class="cls-5" d="M19.5,17.9l-.294-.272c.1-.07.28.051.28.051A.76.76,0,0,1,20,17.231a.76.76,0,0,1,.516.443s.181-.121.279-.051L20.5,17.9Z"/><path class="cls-4" d="M20.514,17.922H19.5l-.313-.278c.028-.061.059-.071.1-.071a.458.458,0,0,1,.212.074c-.017-.035.1-.318.5-.443a.8.8,0,0,1,.546.445.255.255,0,0,1,.275-.048l-.3.321Zm-1.233-.293a.1.1,0,0,0-.06.016l.3.229.974-.007.258-.239a.1.1,0,0,1-.03,0,.418.418,0,0,0-.187.068,1.023,1.023,0,0,0-.541-.44.744.744,0,0,0-.481.425c-.044.012-.146-.053-.229-.053Z"/><polygon class="cls-5" points="19.425 18.364 19.983 19.05 20.575 18.364 19.425 18.364"/><path class="cls-4" d="M19.983,19.093l-.616-.756h1.268l-.652.756Zm-.5-.7.5.615.53-.615Z"/><path class="cls-5" d="M19.4,18.44l-.352-.3c.118-.079.336.056.336.056A.884.884,0,0,1,20,17.7a.884.884,0,0,1,.619.493s.218-.135.335-.056l-.351.3Z"/><path class="cls-4" d="M20.614,18.468H19.4l-.37-.31a.108.108,0,0,1,.109-.073.567.567,0,0,1,.255.083c-.019-.032.116-.353.6-.494a.932.932,0,0,1,.649.5.325.325,0,0,1,.329-.057l-.356.353Zm-1.478-.327a.127.127,0,0,0-.075.02l.354.259,1.177-.007.318-.274a.225.225,0,0,1-.047,0,.541.541,0,0,0-.229.076,1.129,1.129,0,0,0-.642-.49.865.865,0,0,0-.585.476c-.045.016-.167-.062-.271-.062Z"/><polygon class="cls-5" points="19.377 19.118 19.982 19.979 20.623 19.118 19.377 19.118"/><path class="cls-4" d="M19.982,20.027l-.658-.937h1.354l-.7.937Zm-.551-.881.552.785.584-.785Z"/><path class="cls-5" d="M19.347,19.215l-.381-.381c.127-.1.363.071.363.071a1.029,1.029,0,0,1,.671-.62,1.029,1.029,0,0,1,.671.62s.236-.169.363-.071l-.381.381Z"/><path class="cls-4" d="M20.665,19.243H19.347l-.4-.389a.119.119,0,0,1,.118-.078.534.534,0,0,1,.25.086,1.069,1.069,0,0,1,.677-.6,1.077,1.077,0,0,1,.7.6c.075-.046.268-.125.366-.05l-.387.431Zm-1.6-.412a.126.126,0,0,0-.081.025l.384.339,1.274-.008.364-.363c-.018.013-.041.007-.069.007a.53.53,0,0,0-.248.1l-.032.023-.011-.038a1.016,1.016,0,0,0-.654-.6,1.016,1.016,0,0,0-.636.6l-.011.038-.032-.023a.535.535,0,0,0-.248-.1Z"/><path class="cls-5" d="M19.347,19.979l-.381-.38c.127-.1.363.07.363.07A1.029,1.029,0,0,1,20,19.05a1.029,1.029,0,0,1,.671.619s.236-.168.363-.07l-.381.38Z"/><path class="cls-4" d="M20.665,20.007H19.347l-.4-.388a.119.119,0,0,1,.118-.078.534.534,0,0,1,.25.086,1.069,1.069,0,0,1,.677-.6,1.077,1.077,0,0,1,.7.6c.074-.046.267-.126.366-.05l-.387.43Zm-1.6-.411a.126.126,0,0,0-.081.025l.384.339,1.274-.008.364-.364c-.018.014-.042.008-.069.008a.53.53,0,0,0-.248.1l-.032.023-.011-.038a1.016,1.016,0,0,0-.654-.6,1.015,1.015,0,0,0-.636.6l-.01.038-.033-.023a.53.53,0,0,0-.248-.1Z"/><rect class="cls-5" x="16.107" y="21.038" width="0.281" height="1.195"/><path class="cls-4" d="M16.416,22.261h-.309l-.028-1.223.308-.028.029,1.251Zm-.057-1.223-.252.028.028,1.167.224-.025v-1.17Z"/><rect class="cls-5" x="17.061" y="21.038" width="0.281" height="1.195"/><path class="cls-4" d="M17.37,22.26h-.309l-.028-1.222.309-.028.028,1.25Zm-.056-1.222-.253.028.028,1.166.225-.025V21.038Z"/><rect class="cls-5" x="16.612" y="21.038" width="0.281" height="1.195"/><path class="cls-4" d="M16.921,22.26h-.309l-.028-1.222.309-.028.028,1.25Zm-.057-1.222-.252.028.028,1.166.224-.025V21.038Z"/><rect class="cls-5" x="21.71" y="21.038" width="0.281" height="1.195"/><path class="cls-4" d="M22.019,22.261H21.71l-.028-1.223.309-.028.028,1.251Zm-.057-1.223-.252.028.028,1.167.224-.025v-1.17Z"/><rect class="cls-5" x="23.618" y="21.038" width="0.281" height="1.195"/><path class="cls-4" d="M23.927,22.26h-.309l-.028-1.222.309-.028.028,1.25Zm-.056-1.222-.253.028.029,1.166.224-.025V21.038Z"/><rect class="cls-5" x="22.664" y="21.038" width="0.281" height="1.195"/><path class="cls-4" d="M22.973,22.26h-.309l-.028-1.222.309-.028.028,1.25Zm-.056-1.222-.253.028.029,1.166.224-.025V21.038Z"/><rect class="cls-5" x="22.215" y="21.038" width="0.281" height="1.195"/><path class="cls-4" d="M22.524,22.26h-.309l-.028-1.222.309-.028.028,1.25Zm-.056-1.222-.253.028.029,1.166.224-.025V21.038Z"/><rect class="cls-5" x="23.113" y="21.038" width="0.281" height="1.195"/><path class="cls-4" d="M23.422,22.26h-.309l-.028-1.222.309-.028.028,1.25Zm-.056-1.222-.253.028.028,1.166.225-.025V21.038Z"/><rect class="cls-5" x="18.015" y="21.038" width="0.281" height="1.195"/><path class="cls-4" d="M18.324,22.261h-.309l-.028-1.223.309-.028.028,1.251Zm-.057-1.223-.252.028.028,1.167.224-.025v-1.17Z"/><rect class="cls-5" x="17.51" y="21.038" width="0.281" height="1.195"/><path class="cls-4" d="M17.819,22.26H17.51l-.028-1.222.309-.028.028,1.25Zm-.057-1.222-.252.028.028,1.166.224-.025V21.038Z"/><rect class="cls-5" x="19.707" y="15.581" width="0.583" height="0.218"/><path class="cls-4" d="M20.318,15.827h-.611l-.028-.246.611-.027.028.273Zm-.057-.246-.554.028.028.19.526-.026v-.192Z"/><rect class="cls-5" x="19.783" y="15.368" width="0.429" height="0.208"/><path class="cls-4" d="M20.241,15.6h-.458l-.028-.236.458-.028.028.264Zm-.056-.236-.4.027.029.181.373-.026v-.182Z"/></g></g></svg>