<svg id="Layer_1" data-name="Layer 1" xmlns="http://www.w3.org/2000/svg" xmlns:xlink="http://www.w3.org/1999/xlink" viewBox="0 0 40 40"><defs><style>.cls-1{fill:none;}.cls-2{clip-path:url(#clip-path);}.cls-17,.cls-3{fill:#457ec0;}.cls-23,.cls-4{fill:#e5e8eb;}.cls-5{clip-path:url(#clip-path-2);}.cls-6{fill:#396fb6;}.cls-10,.cls-7{fill:#e0bf24;}.cls-8{fill:#c2b130;}.cls-9{fill:#e0e1e1;}.cls-10,.cls-13,.cls-15,.cls-17,.cls-18,.cls-19,.cls-21,.cls-23,.cls-25,.cls-27,.cls-28,.cls-29{fill-rule:evenodd;}.cls-11{clip-path:url(#clip-path-3);}.cls-12{fill:#d91e34;}.cls-13{fill:#3c8e4e;}.cls-14,.cls-28{fill:#7a6f2d;}.cls-15{fill:#7bc36b;}.cls-16{fill:#549c51;}.cls-18{fill:#35813e;}.cls-19{fill:#a08630;}.cls-20{fill:#7c692a;}.cls-21{fill:#914922;}.cls-22{fill:#61331a;}.cls-24{fill:#a6a5a5;}.cls-26{fill:#a4a5a4;}.cls-27{fill:#ab772b;}.cls-29{fill:#2d6b35;}.cls-30{fill:#27441e;}.cls-31{fill:#43a548;}</style><clipPath id="clip-path"><rect class="cls-1" x="1.018" y="8.973" width="37.964" height="22.054" rx="4"/></clipPath><clipPath id="clip-path-2"><rect class="cls-1" x="1.018" y="8.973" width="37.964" height="22.054"/></clipPath><clipPath id="clip-path-3"><path class="cls-1" d="M18.517,17.451a6.668,6.668,0,0,0,2.966,0,6.747,6.747,0,0,0-2.966,0"/></clipPath></defs><g class="cls-2"><rect class="cls-3" x="1.018" y="20" width="37.964" height="11.027"/><rect class="cls-4" x="1.018" y="8.973" width="37.964" height="11.027"/><g class="cls-5"><path class="cls-6" d="M20.2,14.8l-.077.006L20,14.8q-.1,0-.2-.009a.2.2,0,0,0,.4,0Z"/><path d="M20,14.959a.2.2,0,0,1-.2-.163c.072,0,.138,0,.2,0l.121,0,.049,0V14.8l-.049.009a2.823,2.823,0,0,1-.32-.007.219.219,0,0,0,.361.063.171.171,0,0,1-.163.095Z"/><path class="cls-6" d="M20,14.574a.2.2,0,0,0-.2.158l.079-.007c.04,0,.08,0,.12,0s.08,0,.12,0,.051,0,.077.006a.2.2,0,0,0-.2-.158Z"/><path d="M20.2,14.739l-.084-.007a2.135,2.135,0,0,0-.24,0l-.073.005v0l.072-.014a2.172,2.172,0,0,1,.242,0l.069.009a.205.205,0,0,0-.383,0c.017-.2.362-.189.4,0v.008Z"/><polygon class="cls-7" points="20.024 14.455 20.024 14.562 20.038 14.576 19.961 14.576 19.976 14.562 19.976 14.455 19.869 14.455 19.855 14.47 19.855 14.392 19.869 14.407 19.976 14.407 19.976 14.301 19.961 14.287 20.038 14.287 20.024 14.301 20.024 14.407 20.131 14.407 20.145 14.392 20.145 14.47 20.131 14.455 20.024 14.455"/><polygon points="20.038 14.582 19.961 14.582 19.97 14.455 19.927 14.458 19.976 14.449 19.982 14.562 20.021 14.568 20.02 14.566 20.018 14.455 20.131 14.449 20.136 14.417 20.152 14.47 20.024 14.462 20.04 14.572 20.038 14.582 20.038 14.582"/><rect class="cls-8" x="19.87" y="14.911" width="0.26" height="0.135"/><path d="M20.136,15.052H19.87l-.006-.141.266-.006.006.147Zm-.012-.141-.254.007.006.128.248-.006v-.129Z"/><path class="cls-7" d="M19.968,14.576c0,.022,0,.044,0,.066s0,.054,0,.082h.08c0-.027,0-.055,0-.081s0-.045,0-.067a.2.2,0,0,0-.034,0l-.032,0Z"/><path class="cls-1" d="M19.968,14.576c0,.022,0,.044,0,.066s0,.054,0,.082h.08c0-.027,0-.055,0-.081s0-.045,0-.067a.2.2,0,0,0-.034,0Z"/><path class="cls-7" d="M20.2,14.732a1,1,0,0,0-.2-.022.91.91,0,0,0-.2.022.166.166,0,0,0,0,.032.163.163,0,0,0,0,.031q.1.008.2.009l.121,0L20.2,14.8a.172.172,0,0,0,0-.064Z"/><path d="M20,14.81h0c-.066,0-.132,0-.2-.009v-.012a2.8,2.8,0,0,0,.318.006l.049,0,.028-.026V14.8l-.076.006c-.042,0-.082,0-.122,0Zm-.2-.019v-.065a1.3,1.3,0,0,1,.4,0v.028l-.006-.021A1.711,1.711,0,0,0,20,14.716h0a.942.942,0,0,0-.2.022v.053Z"/><path class="cls-7" d="M22.3,16.155a.251.251,0,0,1-.041.084l-.241-.273a.213.213,0,0,0,.014-.127c-.027-.2-.353-.411-.748-.439s-1.1-.414-1.288-.284c.068-.082.236-.081.438-.048.054.016.107.034.164.053.136.047.28.1.414.142.066.021.131.039.191.053l.087.018c.027.005.054.008.078.01a1.334,1.334,0,0,1,.145.019,1.162,1.162,0,0,1,.135.036.986.986,0,0,1,.123.05.807.807,0,0,1,.109.06.736.736,0,0,1,.092.069.618.618,0,0,1,.072.073.432.432,0,0,1,.049.077.25.25,0,0,1,.015.038.262.262,0,0,1,.009.038.237.237,0,0,1,0,.064.264.264,0,0,1-.016.063Z"/><path d="M22.26,16.248l-.245-.278a.246.246,0,0,0,.012-.13c-.025-.186-.33-.4-.742-.434a2.757,2.757,0,0,1-.612-.164c-.3-.1-.576-.189-.672-.121.049-.09.22-.094.435-.059l.287.1c.1.035.2.069.291.1.067.021.131.04.192.053.03.007.058.014.086.019a.779.779,0,0,0,.078.009,1.334,1.334,0,0,1,.145.019c.047.01.092.022.136.036a1.281,1.281,0,0,1,.124.05.938.938,0,0,1,.109.061.863.863,0,0,1,.093.069.642.642,0,0,1,.073.075.36.36,0,0,1,.049.077l.025.078a.254.254,0,0,1,0,.066.235.235,0,0,1-.017.064l.2.218a.207.207,0,0,1-.04.091l0,.006Zm-2.153-1.165a2.169,2.169,0,0,1,.57.148,2.8,2.8,0,0,0,.609.163c.379.027.724.23.753.444a.214.214,0,0,1-.014.13l.234.262a.26.26,0,0,0,.036-.077l-.2-.218a.575.575,0,0,0,.015-.067.23.23,0,0,0,0-.063l-.023-.075a.4.4,0,0,0-.049-.075.605.605,0,0,0-.071-.073.8.8,0,0,0-.091-.068.86.86,0,0,0-.109-.06,1.068,1.068,0,0,0-.122-.049,1.111,1.111,0,0,0-.135-.036,1.1,1.1,0,0,0-.143-.019c-.024,0-.051,0-.079-.01l-.087-.018c-.061-.014-.125-.032-.192-.053-.095-.03-.194-.065-.292-.1l-.286-.1a.584.584,0,0,0-.415.031.147.147,0,0,1,.089-.021Z"/><path class="cls-7" d="M22.3,16.155l-.2-.224a.264.264,0,0,0,.016-.063.237.237,0,0,0,0-.064.262.262,0,0,0-.009-.038.25.25,0,0,0-.015-.038.432.432,0,0,0-.049-.077.618.618,0,0,0-.072-.073.736.736,0,0,0-.092-.069.807.807,0,0,0-.109-.06.986.986,0,0,0-.123-.05,1.162,1.162,0,0,0-.135-.036,1.334,1.334,0,0,0-.145-.019c-.024,0-.051,0-.078-.01l-.087-.018c-.06-.014-.125-.032-.191-.053-.134-.042-.278-.1-.414-.142-.057-.019-.11-.037-.164-.053.316.051.721.182.979.208.422.041.853.326.89.678a.519.519,0,0,1,0,.2Z"/><path d="M22.3,16.167l-.2-.232a.575.575,0,0,0,.015-.067.23.23,0,0,0,0-.063l-.023-.075a.4.4,0,0,0-.049-.075.605.605,0,0,0-.071-.073.8.8,0,0,0-.091-.068.86.86,0,0,0-.109-.06,1.068,1.068,0,0,0-.122-.049,1.111,1.111,0,0,0-.135-.036,1.1,1.1,0,0,0-.143-.019c-.024,0-.051,0-.079-.01l-.087-.018c-.061-.014-.125-.032-.192-.053-.095-.03-.194-.065-.292-.1l-.286-.1a3.144,3.144,0,0,1,.469.091,4.161,4.161,0,0,0,.512.106c.4.039.857.311.9.683a.513.513,0,0,1,0,.2l0,.011Zm-1.869-1.094.289.085c.1.035.2.069.291.1.067.021.131.04.192.053.03.007.058.014.086.019a.779.779,0,0,0,.078.009,1.334,1.334,0,0,1,.145.019c.047.01.092.022.136.036a1.281,1.281,0,0,1,.124.05.938.938,0,0,1,.109.061.863.863,0,0,1,.093.069.642.642,0,0,1,.073.075.36.36,0,0,1,.049.077l.025.078a.254.254,0,0,1,0,.066.235.235,0,0,1-.017.064l.189.209a.562.562,0,0,0,0-.188c-.039-.365-.489-.634-.885-.672a4.146,4.146,0,0,1-.514-.106c-.159-.039-.321-.079-.465-.1Z"/><path class="cls-7" d="M17.7,16.155a.251.251,0,0,0,.041.084l.241-.273a.221.221,0,0,1-.014-.127c.027-.2.353-.411.749-.439s1.1-.414,1.287-.284c-.068-.082-.236-.081-.438-.048-.053.016-.107.034-.164.053-.136.047-.28.1-.414.142-.066.021-.131.039-.191.053l-.087.018a.758.758,0,0,1-.078.01,1.367,1.367,0,0,0-.145.019,1.162,1.162,0,0,0-.135.036.986.986,0,0,0-.123.05.807.807,0,0,0-.109.06.736.736,0,0,0-.092.069.618.618,0,0,0-.072.073.432.432,0,0,0-.049.077.25.25,0,0,0-.015.038.262.262,0,0,0-.009.038.286.286,0,0,0,0,.064.264.264,0,0,0,.016.063Z"/><path d="M17.74,16.248l0-.006a.229.229,0,0,1-.041-.086l.2-.229a.127.127,0,0,1-.017-.058.21.21,0,0,1,0-.066l.025-.078a.357.357,0,0,1,.05-.078.622.622,0,0,1,.072-.074.863.863,0,0,1,.093-.069.938.938,0,0,1,.109-.061,1.281,1.281,0,0,1,.124-.05c.043-.014.09-.026.136-.036a1.367,1.367,0,0,1,.145-.019.747.747,0,0,0,.078-.009c.028-.005.057-.012.086-.019.061-.013.125-.032.192-.053.094-.03.193-.064.291-.1l.286-.1c.218-.035.382-.026.444.05a1.551,1.551,0,0,0-.68.13,2.764,2.764,0,0,1-.611.164c-.413.029-.718.248-.743.434a.208.208,0,0,0,.014.124l-.247.284Zm2.043-1.2a1.356,1.356,0,0,0-.217.02l-.285.1c-.1.034-.2.069-.292.1-.067.021-.131.039-.192.053-.029.007-.059.013-.087.018a.776.776,0,0,1-.079.01,1.106,1.106,0,0,0-.278.055,1.148,1.148,0,0,0-.122.049.86.86,0,0,0-.109.06.8.8,0,0,0-.091.068.605.605,0,0,0-.071.073.353.353,0,0,0-.048.075l-.03.074h.006a.224.224,0,0,0,0,.062.27.27,0,0,0,.016.062l-.2.23a.336.336,0,0,0,.037.07l.236-.267a.188.188,0,0,1-.016-.124c.029-.214.375-.417.754-.444a2.806,2.806,0,0,0,.608-.163c.3-.1.579-.191.683-.12a.351.351,0,0,0-.223-.058Z"/><path class="cls-7" d="M17.7,16.155l.2-.224a.264.264,0,0,1-.016-.063.286.286,0,0,1,0-.064.262.262,0,0,1,.009-.038.25.25,0,0,1,.015-.038.432.432,0,0,1,.049-.077.618.618,0,0,1,.072-.073.736.736,0,0,1,.092-.069.807.807,0,0,1,.109-.06.986.986,0,0,1,.123-.05,1.162,1.162,0,0,1,.135-.036,1.367,1.367,0,0,1,.145-.019.758.758,0,0,0,.078-.01l.087-.018c.06-.014.125-.032.191-.053.134-.042.278-.1.414-.142.057-.019.111-.037.164-.053-.316.051-.721.182-.979.208-.422.041-.853.326-.89.678a.54.54,0,0,0,0,.2Z"/><path d="M17.7,16.167l0-.011a.513.513,0,0,1,0-.2c.039-.372.5-.644.9-.683a4.161,4.161,0,0,0,.512-.106c.159-.039.322-.079.466-.1l-.283.108c-.1.034-.2.069-.292.1-.067.021-.131.039-.192.053-.029.007-.059.013-.087.018a.776.776,0,0,1-.079.01,1.106,1.106,0,0,0-.278.055,1.148,1.148,0,0,0-.122.049.86.86,0,0,0-.109.06.8.8,0,0,0-.091.068.605.605,0,0,0-.071.073.353.353,0,0,0-.048.075l-.03.074h.006a.224.224,0,0,0,0,.062.27.27,0,0,0,.016.062l-.205.238Zm1.866-1.105-.461.114a4.2,4.2,0,0,1-.515.106c-.4.038-.846.307-.885.672a.562.562,0,0,0,0,.188l.19-.215a.127.127,0,0,1-.017-.058.21.21,0,0,1,0-.066l.025-.078a.357.357,0,0,1,.05-.078.622.622,0,0,1,.072-.074.863.863,0,0,1,.093-.069.938.938,0,0,1,.109-.061,1.281,1.281,0,0,1,.124-.05c.043-.014.09-.026.136-.036a1.367,1.367,0,0,1,.145-.019.747.747,0,0,0,.078-.009c.028-.005.057-.012.086-.019.061-.013.125-.032.192-.053.094-.03.193-.064.291-.1l.286-.1Z"/><path class="cls-7" d="M20,17.182a5.842,5.842,0,0,0-1.622.206c.034-.016-.016-.158-.058-.266-.051-.13-.124-.149-.124-.149a7.429,7.429,0,0,1,3.617,0,.257.257,0,0,0-.139.159c-.042.107-.076.243-.042.259A5.925,5.925,0,0,0,20,17.182Z"/><path d="M21.625,17.394a6.881,6.881,0,0,0-3.25,0c.008-.018.017-.059-.066-.27-.048-.125-.119-.145-.12-.145l.008,0a6.447,6.447,0,0,1,1.8-.235,6.96,6.96,0,0,1,1.813.223.378.378,0,0,0-.136.167c-.049.127-.069.24-.045.252l0,.011ZM18.2,16.977c.021,0,.079.035.121.143.068.175.085.259.055.273A5.417,5.417,0,0,1,20,17.176a5.981,5.981,0,0,1,1.616.2.555.555,0,0,1,.052-.25.263.263,0,0,1,.143-.163,8.249,8.249,0,0,0-3.606.013Z"/><path class="cls-7" d="M20,16.779a6.562,6.562,0,0,0-1.764.215.053.053,0,1,1-.035-.1,6.481,6.481,0,0,1,1.8-.225,6.5,6.5,0,0,1,1.8.225.053.053,0,1,1-.035.1A6.583,6.583,0,0,0,20,16.779Z"/><path d="M21.786,17l-.022,0A6.515,6.515,0,0,0,20,16.786,6.5,6.5,0,0,0,18.236,17c-.047.007-.07-.011-.079-.035v0l.005-.045a.065.065,0,0,1,.037-.03,6.466,6.466,0,0,1,1.8-.225,6.578,6.578,0,0,1,1.8.225l.037.03a.06.06,0,0,1,0,.047.057.057,0,0,1-.057.038ZM20,16.773a6.58,6.58,0,0,1,1.77.216l.018,0a.045.045,0,0,0,.045-.029L21.8,16.9a6.555,6.555,0,0,0-1.8-.225,6.443,6.443,0,0,0-1.8.225l-.038.064.006,0a.045.045,0,0,0,.045.029A6.669,6.669,0,0,1,20,16.773Z"/><path class="cls-7" d="M20,16.248l.061.011a.215.215,0,0,0-.012.081.238.238,0,0,0,.241.233.243.243,0,0,0,.23-.161s.023-.084.033-.083.008.09.01.088a.242.242,0,0,0,.48-.035.142.142,0,0,0,0-.029l.076-.076.041.1a.218.218,0,0,0-.023.1.226.226,0,0,0,.23.221.232.232,0,0,0,.191-.1l.049-.063v.077c0,.077.032.146.106.158a.316.316,0,0,0,.2-.084,1.266,1.266,0,0,0,.174-.164l.01.09a.768.768,0,0,1-.2.206.345.345,0,0,1-.207.057.207.207,0,0,1-.148-.136.343.343,0,0,1-.174.047.332.332,0,0,1-.31-.192.337.337,0,0,1-.255.112.357.357,0,0,1-.274-.127.355.355,0,0,1-.53-.06.355.355,0,0,1-.53.06.357.357,0,0,1-.274.127.337.337,0,0,1-.255-.112.332.332,0,0,1-.31.192.341.341,0,0,1-.174-.047.207.207,0,0,1-.148.136.352.352,0,0,1-.208-.057.757.757,0,0,1-.194-.206l.01-.09a1.266,1.266,0,0,0,.174.164.316.316,0,0,0,.2.084c.074-.012.106-.081.106-.158v-.077l.048.063a.235.235,0,0,0,.192.1.225.225,0,0,0,.229-.221.218.218,0,0,0-.022-.1l.041-.1.075.076,0,.029a.243.243,0,0,0,.481.035s0-.087.01-.088.03.086.033.083a.243.243,0,0,0,.23.161.241.241,0,0,0,.23-.314L20,16.248Z"/><path d="M21.718,16.884l-.028,0a.212.212,0,0,1-.153-.14.341.341,0,0,1-.483-.145.356.356,0,0,1-.528-.013.364.364,0,0,1-.531-.06.361.361,0,0,1-.529.06.36.36,0,0,1-.529.015.341.341,0,0,1-.483.146.189.189,0,0,1-.144.137.366.366,0,0,1-.212-.057.755.755,0,0,1-.2-.209l.009-.094c0-.011.071.07.183.16a.328.328,0,0,0,.192.084c.065-.011.1-.068.1-.153v-.077l.06.059a.225.225,0,0,0,.187.1.219.219,0,0,0,.223-.215.2.2,0,0,0-.021-.1l.041-.1.085.074a.239.239,0,0,0,.234.259.229.229,0,0,0,.234-.192c0-.08.007-.092.016-.093h0c.01,0,.015.014.029.059a.241.241,0,0,0,.469-.042.213.213,0,0,0-.011-.079L20,16.242l.063.012a.551.551,0,0,0-.007.086.237.237,0,0,0,.459.07c.024-.074.03-.087.039-.087s.012.013.014.069a.236.236,0,0,0,.47-.01l.008-.013a.246.246,0,0,1-.488.049.489.489,0,0,0-.008-.085.324.324,0,0,1-.013.053.254.254,0,0,1-.493-.046.239.239,0,0,1,.012-.083l-.056,0-.061.011a.117.117,0,0,1,.017.075.248.248,0,0,1-.482.074.679.679,0,0,0-.029-.08s0,.042,0,.059a.248.248,0,0,1-.495-.011l-.071-.1-.031.1a.2.2,0,0,1,.023.1.232.232,0,0,1-.236.228.243.243,0,0,1-.2-.1l-.048-.062.012.073c0,.091-.042.153-.112.164a.386.386,0,0,1-.2-.085,1.325,1.325,0,0,1-.175-.166v.087h0a.8.8,0,0,0,.191.2.4.4,0,0,0,.178.058.2.2,0,0,0,.169-.135.355.355,0,0,0,.485-.144.37.37,0,0,0,.529-.017.371.371,0,0,0,.53-.059.372.372,0,0,0,.531.058.367.367,0,0,0,.529.016.357.357,0,0,0,.485.143.225.225,0,0,0,.152.136l.026,0a.39.39,0,0,0,.177-.058.743.743,0,0,0,.193-.2l-.01-.082a.733.733,0,0,1-.165.165.347.347,0,0,1-.2.086.147.147,0,0,1-.115-.165v-.077l-.038.066a.239.239,0,0,1-.2.1.233.233,0,0,1-.237-.228.219.219,0,0,1,.024-.1l-.041-.093-.018.022.019-.028.051.1a.246.246,0,0,0-.022.1.219.219,0,0,0,.224.215.222.222,0,0,0,.186-.1l.049-.062.011.08c0,.085.037.142.1.153a.325.325,0,0,0,.194-.084,1.421,1.421,0,0,0,.173-.163l.02.093a.731.731,0,0,1-.2.213.409.409,0,0,1-.183.059Z"/><path class="cls-9" d="M18.3,16.53a.105.105,0,1,1,.105.1.105.105,0,0,1-.105-.1Z"/><path d="M18.4,16.64a.111.111,0,0,1-.111-.11c0-.122.222-.12.222,0a.111.111,0,0,1-.111.11Zm0-.208a.1.1,0,0,0-.1.1c0,.109.2.108.2,0a.1.1,0,0,0-.1-.1Z"/><path class="cls-9" d="M21.5,16.53a.1.1,0,1,1,.1.1.1.1,0,0,1-.1-.1Z"/><path d="M21.6,16.64a.111.111,0,0,1-.111-.11c0-.121.222-.121.222,0a.111.111,0,0,1-.111.11Zm0-.208a.1.1,0,0,0-.1.1c0,.108.2.108.2,0a.1.1,0,0,0-.1-.1Z"/><path class="cls-9" d="M19.355,16.345a.1.1,0,1,1,.1.1.1.1,0,0,1-.1-.1Z"/><path d="M19.459,16.455a.111.111,0,0,1-.111-.11c0-.12.221-.12.221,0a.11.11,0,0,1-.11.11Zm0-.207a.1.1,0,0,0-.1.1c0,.109.2.109.2,0a.1.1,0,0,0-.1-.1Z"/><path class="cls-9" d="M20.451,16.345a.1.1,0,0,1,.1-.1.1.1,0,1,1-.1.1Z"/><path d="M20.555,16.455a.11.11,0,0,1-.11-.11c0-.121.221-.12.222,0a.111.111,0,0,1-.112.11Zm0-.207a.1.1,0,0,0-.1.1c0,.109.2.109.2,0a.1.1,0,0,0-.1-.1Z"/><path class="cls-10" d="M17.976,16.684a.171.171,0,0,0,.092.018.672.672,0,0,0,.158-.029.143.143,0,0,1-.045-.039.159.159,0,0,0-.039-.059.127.127,0,0,0-.069-.027l-.018-.036.035,0a.1.1,0,0,0,.06.047.185.185,0,0,0,.107-.029s-.035-.074-.075-.08a.133.133,0,0,0-.055,0l-.023-.027.022-.012s.052.019.076.006.022-.032.032-.071.022-.073.022-.073a.218.218,0,0,1-.072-.015c-.031-.013-.051-.043-.089-.026s-.03.04-.041.062-.047.027-.047.027L18,16.284a.064.064,0,0,0,.043-.045.143.143,0,0,0,0-.072.118.118,0,0,0-.076.032c-.023.029-.012.035-.028.046a.074.074,0,0,1-.036.011s-.008-.025.007-.038.011-.012.029-.026a.366.366,0,0,0,.05-.077.208.208,0,0,0-.042,0c-.019,0-.046.011-.051,0a.287.287,0,0,0-.014-.043.275.275,0,0,0-.036-.063.216.216,0,0,0-.078.037c-.033.023-.022.02-.066.056a.2.2,0,0,0-.145,0,.4.4,0,0,1,.16.206.264.264,0,0,1,.028.036.242.242,0,0,1,.027.041,1.01,1.01,0,0,1,.049.092c.016.03.029.06.04.086a.315.315,0,0,0,.022.039c.01.013.02.026.032.039s.05.033.061.043Z"/><path d="M18.075,16.708h-.008a.163.163,0,0,1-.094-.019l-.062-.044q-.018-.019-.033-.039l-.023-.04c-.01-.027-.024-.056-.039-.087a.993.993,0,0,0-.049-.091.29.29,0,0,0-.027-.041l-.028-.036a.41.41,0,0,0-.159-.2A.145.145,0,0,1,17.7,16.1l.028-.03c.066-.048.084-.059.111-.064a.167.167,0,0,1,.044.067l0,.018-.015-.014a.24.24,0,0,0-.035-.061.316.316,0,0,0-.07.038l-.065.055a.231.231,0,0,0-.147,0,.328.328,0,0,1,.155.178c.017.029.027.041.036.055a.485.485,0,0,1,.028.041,1.01,1.01,0,0,1,.049.092c.015.031.028.061.039.087a.558.558,0,0,0,.053.076l.057.047,0-.005a.169.169,0,0,0,.09.017l.007.006V16.7a.652.652,0,0,0,.142-.027.078.078,0,0,1-.042-.032.141.141,0,0,0-.037-.058.123.123,0,0,0-.066-.025l-.018-.047a.091.091,0,0,1,.03,0c-.007.031.036.035.062.059a.109.109,0,0,1,.031.043.162.162,0,0,0,.052.055.342.342,0,0,1-.154.04Zm.091-.146a.128.128,0,0,1-.08-.05.454.454,0,0,0,.066.036.206.206,0,0,0,.1-.028s-.038-.064-.071-.069h0l-.06-.011.006-.043h0a.341.341,0,0,0,.057.01c.035-.012.038-.023.042-.046a.814.814,0,0,1,.027-.095.118.118,0,0,1-.068-.01l-.066-.031c-.041.014-.045.028-.05.043a.078.078,0,0,1-.058.051.056.056,0,0,1,0-.022.031.031,0,0,0,.042-.014c.01-.034.015-.053.044-.065a.083.083,0,0,1,.069.013.267.267,0,0,0,.1.028.272.272,0,0,1-.017.081c-.01.047-.013.064-.035.075a.209.209,0,0,1-.081-.007l.058.036v-.006c.042.007.078.08.08.083a.163.163,0,0,1-.1.04Zm-.156-.275c.008-.018.023-.028.029-.05a.131.131,0,0,0,0-.067s-.047.008-.065.032l-.046.048,0-.01.024-.013a.13.13,0,0,1,.1-.066.1.1,0,0,1,.008.08.07.07,0,0,1-.04.046Z"/><path class="cls-1" d="M17.919,16.572a.426.426,0,0,0,.041.035.39.39,0,0,0,.056.023Zm.021-.1a.244.244,0,0,1,.12,0Zm-.022-.056a.472.472,0,0,1,.141-.054Zm-.043-.057a.115.115,0,0,1,.03-.039.073.073,0,0,0,.024-.031Zm-.1-.052a.111.111,0,0,1,0-.044.134.134,0,0,1,.025-.056Z"/><path class="cls-7" d="M17.888,16.607c.059-.024.073-.1.03-.185a.178.178,0,0,0-.189-.108l-.007,0,0,.028c.005.026.012.053.019.078a.265.265,0,0,0,.025.062.319.319,0,0,0,.038.048c.016.016.033.032.049.046l.031.026Z"/><path d="M17.887,16.614l0,0,0,0,0,0a.078.078,0,0,0,.044-.048.158.158,0,0,0-.018-.129.189.189,0,0,0-.152-.11.139.139,0,0,0-.009.109.248.248,0,0,0,.024.06.3.3,0,0,0,.038.047c.015.016.032.032.048.046l.027.03-.012,0c-.039-.033-.056-.049-.072-.065a.378.378,0,0,1-.039-.049.3.3,0,0,1-.026-.064c-.007-.025-.013-.053-.019-.079l.04-.045a.2.2,0,0,1,.163.117.17.17,0,0,1,.018.138.088.088,0,0,1-.05.055Z"/><path class="cls-9" d="M17.756,16.478c-.032-.06-.049-.111-.007-.126s.1.022.134.083.024.121-.018.136-.077-.032-.109-.093Z"/><path d="M17.85,16.58c-.041,0-.073-.05-.1-.1s-.038-.089-.029-.111l.047-.027a.152.152,0,0,1,.119.089.137.137,0,0,1,.015.109.064.064,0,0,1-.036.036l-.017,0Zm-.081-.225a.089.089,0,0,0-.007.12c.023.043.053.093.088.093v.006l.013-.009a.11.11,0,0,0,.015-.128.143.143,0,0,0-.109-.082Z"/><path class="cls-10" d="M22.024,16.684a.172.172,0,0,1-.091.018.672.672,0,0,1-.159-.029.133.133,0,0,0,.044-.039c.015-.024.014-.036.04-.059a.127.127,0,0,1,.068-.027l.018-.036-.034,0a.1.1,0,0,1-.06.047.187.187,0,0,1-.107-.029s.035-.074.075-.08a.127.127,0,0,1,.054,0l.023-.027-.021-.012s-.052.019-.077.006-.021-.032-.031-.071-.022-.073-.022-.073a.218.218,0,0,0,.072-.015c.031-.013.051-.043.089-.026s.03.04.041.062.046.027.046.027l.006-.03a.066.066,0,0,1-.042-.045.143.143,0,0,1,0-.072.118.118,0,0,1,.076.032c.023.029.012.035.028.046a.074.074,0,0,0,.036.011s.008-.025-.007-.038-.011-.012-.029-.026a.366.366,0,0,1-.05-.077.208.208,0,0,1,.042,0c.019,0,.045.011.051,0a.287.287,0,0,1,.014-.043.275.275,0,0,1,.036-.063.224.224,0,0,1,.078.037.725.725,0,0,1,.065.056.2.2,0,0,1,.145,0,.369.369,0,0,0-.159.206.378.378,0,0,0-.029.036.321.321,0,0,0-.026.041,1.01,1.01,0,0,0-.049.092c-.016.03-.029.06-.04.086a.233.233,0,0,1-.023.039.352.352,0,0,1-.031.039c-.01.011-.05.033-.061.043Z"/><path d="M21.925,16.708a.744.744,0,0,1-.153-.029c.008-.017.034-.034.041-.048a.175.175,0,0,1,.041-.061.124.124,0,0,1,.071-.028c-.022.016-.046.022-.063.037a.113.113,0,0,0-.028.038.176.176,0,0,1-.053.059c.012-.01.1.02.144.02V16.7l.007-.006a.174.174,0,0,0,.09-.017l.063-.038-.005,0a.345.345,0,0,0,.031-.038c.034-.064.047-.094.062-.125a1.01,1.01,0,0,1,.049-.092l.027-.042.029-.036a.375.375,0,0,1,.161-.207.492.492,0,0,1-.066,0,.2.2,0,0,0-.074.013l-.04-.031c-.064-.046-.081-.057-.105-.061,0,0-.017.027-.03.059l-.02.041.005,0H22.1l0,0a.391.391,0,0,1,.051-.107.169.169,0,0,1,.085.037l.062.06,0,0a.215.215,0,0,1,.15,0,.446.446,0,0,0-.157.214l-.034.034,0,0-.026.041a.993.993,0,0,0-.049.091c-.015.031-.029.06-.039.086h0l-.024.04a.366.366,0,0,1-.032.039l-.062.044a.169.169,0,0,1-.094.019Zm-.08-.149a.229.229,0,0,1-.105-.029c0-.011.035-.084.077-.091l.055,0,0,0c.008-.03-.023-.019-.048-.019-.046-.015-.049-.031-.054-.056-.013-.055-.027-.1-.027-.1s.046-.01.076-.022.052-.032.07-.032c.052.017.057.036.061.052a.068.068,0,0,0,.038.039.03.03,0,0,1-.042-.015c-.012-.036-.016-.05-.038-.06l-.058.012a.3.3,0,0,1-.1.03.2.2,0,0,1,.025.066c.009.047.012.059.028.067a.186.186,0,0,0,.071-.007l.007,0,0,.046-.058,0c-.029,0-.059.055-.07.075a.312.312,0,0,0,.086.024.11.11,0,0,0,.071-.046l.044.011a.1.1,0,0,1-.023.026c-.013-.028-.031.006-.075.018Zm.146-.261c-.008-.013-.033-.026-.041-.057a.144.144,0,0,1,0-.076.1.1,0,0,1,.086.03l.02.044-.014-.008a.124.124,0,0,0-.085-.058.216.216,0,0,0,0,.064.055.055,0,0,0,.038.041.046.046,0,0,1-.009.02Z"/><path class="cls-1" d="M22.08,16.572a.375.375,0,0,1-.04.035.444.444,0,0,1-.056.023Zm-.02-.1a.248.248,0,0,0-.121,0Zm.022-.056a.479.479,0,0,0-.142-.054Zm.043-.057a.115.115,0,0,0-.03-.039.073.073,0,0,1-.024-.031Zm.1-.052a.111.111,0,0,0,0-.044.129.129,0,0,0-.026-.056Z"/><path class="cls-7" d="M22.112,16.607c-.059-.024-.072-.1-.03-.185a.178.178,0,0,1,.189-.108l.007,0,0,.028a.679.679,0,0,1-.018.078.265.265,0,0,1-.025.062.274.274,0,0,1-.039.048c-.015.016-.032.032-.048.046l-.031.026Z"/><path d="M22.109,16.613a.088.088,0,0,1-.05-.055.17.17,0,0,1,.018-.138.2.2,0,0,1,.163-.117l.044.017c-.01.054-.016.082-.023.107a.305.305,0,0,1-.025.064.444.444,0,0,1-.041.049c-.015.016-.032.032-.048.046l-.038.027Zm.106-.277a.147.147,0,0,0-.127.089.158.158,0,0,0-.018.129.073.073,0,0,0,.041.046l0,0c.039-.033.055-.049.071-.065a.287.287,0,0,0,.038-.047.248.248,0,0,0,.024-.06.519.519,0,0,0,.018-.078.141.141,0,0,0-.052-.01Z"/><path class="cls-9" d="M22.244,16.478c.032-.06.049-.111.007-.126s-.1.022-.134.083-.024.121.018.136.077-.032.109-.093Z"/><path d="M22.151,16.58l-.018,0a.064.064,0,0,1-.036-.036.137.137,0,0,1,.015-.109.152.152,0,0,1,.119-.089l.047.027c.009.022,0,.055-.029.111s-.058.1-.1.1Zm.076-.211a.117.117,0,0,0-.105.068.125.125,0,0,0-.013.1l.026.035.016,0c.034,0,.065-.05.087-.093s.039-.077.029-.1a.2.2,0,0,0-.04,0Z"/><path class="cls-7" d="M20,17.7a5.9,5.9,0,0,1-1.605-.2.061.061,0,0,1-.044-.064.06.06,0,0,1,.044-.06,6.637,6.637,0,0,1,3.21,0,.06.06,0,0,1,.044.06.061.061,0,0,1-.044.064A5.894,5.894,0,0,1,20,17.7Z"/><path d="M20,17.708h0a5.873,5.873,0,0,1-1.607-.2.068.068,0,0,1-.048-.07.066.066,0,0,1,.048-.066,6.653,6.653,0,0,1,3.214,0,.066.066,0,0,1,.048.066.068.068,0,0,1-.048.07,5.873,5.873,0,0,1-1.607.2Zm0-.519a5.924,5.924,0,0,0-1.6.2.056.056,0,0,0-.039.055.056.056,0,0,0,.039.058,6.628,6.628,0,0,0,3.208,0,.055.055,0,0,0,.039-.057.057.057,0,0,0-.039-.056,5.924,5.924,0,0,0-1.6-.2Z"/></g><g class="cls-5"><path d="M20,17.625h0a6.192,6.192,0,0,1-1.483-.169A5.679,5.679,0,0,1,20,17.28a6.258,6.258,0,0,1,1.487.165,5.683,5.683,0,0,1-1.487.18Zm0-.332a6.21,6.21,0,0,0-1.48.163,7.272,7.272,0,0,0,2.964-.011A6.916,6.916,0,0,0,20,17.293Z"/><path class="cls-7" d="M20,17.106c-.149,0-.268-.056-.268-.124s.119-.124.268-.124.268.055.268.124-.12.124-.268.124Z"/><path d="M20,17.112c-.154,0-.275-.057-.275-.13s.121-.131.275-.131.275.058.275.131-.124.13-.275.13Zm0-.248c-.144,0-.262.053-.262.118s.118.118.262.118.262-.054.262-.118-.118-.118-.262-.118Z"/><path class="cls-12" d="M20,17.067c-.111,0-.2-.038-.2-.085s.088-.085.2-.085.2.038.2.085-.089.085-.2.085Z"/><path d="M20,17.073c-.115,0-.2-.04-.2-.091,0-.1.41-.1.41,0,0,.051-.09.091-.2.091Zm0-.17c-.1,0-.193.036-.193.079,0,.086.386.086.386,0,0-.043-.089-.079-.193-.079Z"/><path class="cls-7" d="M21.708,17.065l-.014-.005c-.143-.042-.273-.021-.293.044s.08.152.221.193c.007-.008.015-.016.022-.025a.366.366,0,0,0,.026-.042.241.241,0,0,0,.02-.044.345.345,0,0,0,.012-.043c0-.014,0-.027,0-.041a.229.229,0,0,0,0-.037Z"/><path d="M21.621,17.3c-.147-.043-.246-.131-.225-.2s.156-.091.3-.049l.018.049-.017.084a.247.247,0,0,1-.02.046c-.008.015-.018.028-.027.043l-.028.027Zm-.069-.259c-.078,0-.133.024-.145.062-.018.061.078.144.214.184l.005-.006a.34.34,0,0,0,.039-.057.286.286,0,0,0,.019-.043L21.7,17.1a.21.21,0,0,0-.149-.057Z"/><path class="cls-12" d="M21.71,17.107l-.027-.01c-.106-.031-.2-.019-.215.026s.061.107.167.138l.018,0a.227.227,0,0,0,.025-.018.181.181,0,0,0,.018-.023.085.085,0,0,0,.013-.025.107.107,0,0,0,.006-.027v-.029c0-.012,0-.023-.006-.035Z"/><path d="M21.645,17.269a.293.293,0,0,1-.176-.106.132.132,0,0,1,0-.037.224.224,0,0,0,.163.129l.016.009-.008,0Zm-.165-.156c.029-.055.118-.046.2-.022l.011.016c-.132-.037-.192-.023-.216.006Z"/><path class="cls-7" d="M18.285,17.065l.014-.005c.143-.042.273-.021.293.044s-.08.152-.221.193a.262.262,0,0,1-.022-.025.374.374,0,0,1-.027-.042.234.234,0,0,1-.019-.044.345.345,0,0,1-.012-.043c0-.014,0-.027,0-.041a.229.229,0,0,1,0-.037Z"/><path d="M18.368,17.3l0,0,0,0,0-.006c.138-.04.235-.123.217-.185s-.152-.079-.285-.041l-.01.078,0-.041H18.28l.009-.046c.168-.052.288-.021.308.046s-.078.157-.225.2Z"/><path class="cls-12" d="M18.283,17.107l.027-.01c.106-.031.2-.019.216.026s-.062.107-.168.138l-.018,0a.16.16,0,0,1-.025-.018.181.181,0,0,1-.018-.023.085.085,0,0,1-.013-.025.107.107,0,0,1-.006-.027v-.029c0-.012,0-.023.006-.035Z"/><path d="M18.337,17.269l0,0v-.006h.007c.111-.031.185-.091.174-.132s-.111-.051-.208-.022l-.035.039h.006l.032.1,0,0,.02.023h-.009l-.04-.039-.019-.056.005-.064c.192-.072.241-.032.254.015s-.061.113-.171.145l-.023,0Z"/><path class="cls-9" d="M19.508,16.989a.057.057,0,0,1,.113,0,.057.057,0,0,1-.113,0Z"/><path d="M19.564,17.049a.061.061,0,0,1-.062-.06c0-.066.125-.065.125,0a.062.062,0,0,1-.063.06Z"/><path class="cls-9" d="M18.655,17.088a.056.056,0,0,1,.057-.053.054.054,0,1,1,0,.107.056.056,0,0,1-.057-.054Z"/><path d="M18.712,17.148a.062.062,0,0,1-.063-.06c0-.065.125-.066.125,0a.061.061,0,0,1-.062.06Z"/><path class="cls-9" d="M20.387,16.989a.057.057,0,0,1,.114,0,.057.057,0,0,1-.114,0Z"/><path d="M20.444,17.049a.062.062,0,0,1-.063-.06c0-.066.126-.066.126,0a.062.062,0,0,1-.063.06Z"/><path class="cls-9" d="M21.231,17.088a.056.056,0,0,1,.057-.053.054.054,0,1,1,0,.107.056.056,0,0,1-.057-.054Z"/><path d="M21.288,17.148a.062.062,0,0,1-.063-.06c0-.065.125-.066.125,0a.061.061,0,0,1-.062.06Z"/><polygon class="cls-10" points="19.107 16.873 19.413 16.99 19.144 17.182 18.837 17.064 19.107 16.873"/><path d="M19.145,17.189l-.31-.119.268-.2.313.117-.271.2Zm-.04-.31-.264.19.3.105.266-.189-.3-.106Z"/><polygon class="cls-13" points="19.113 16.927 19.315 17.003 19.137 17.127 18.936 17.051 19.113 16.927"/><path d="M19.138,17.135l-.205-.078.176-.135.208.075-.179.138Zm-.027-.2-.171.123.2.064L19.311,17l-.2-.065Z"/><polygon class="cls-10" points="20.893 16.873 20.587 16.99 20.856 17.182 21.162 17.064 20.893 16.873"/><path d="M20.855,17.189,20.583,17l.308-.13.275.193-.311.13Zm.034-.311-.3.118.268.178.3-.116-.271-.18Z"/><polygon class="cls-13" points="20.887 16.927 20.685 17.003 20.862 17.127 21.063 17.051 20.887 16.927"/><path d="M20.861,17.135l-.18-.126.2-.088.182.125-.206.089Zm.022-.2-.2.077.175.111.2-.075-.178-.113Z"/><path class="cls-9" d="M19.752,14.975a.078.078,0,0,1-.155,0h0a.078.078,0,0,1,.078-.077.077.077,0,0,1,.077.077Z"/><path d="M19.675,15.059a.084.084,0,0,1-.084-.083.086.086,0,0,1,.084-.085.084.084,0,0,1,0,.168Zm0-.155a.071.071,0,1,0,0,.142h0a.071.071,0,1,0,0-.142Z"/><path class="cls-9" d="M19.527,15a.086.086,0,0,1-.171,0h0a.086.086,0,0,1,.171,0Z"/><path d="M19.442,15.1h0a.09.09,0,0,1-.091-.09.092.092,0,0,1,.183,0,.091.091,0,0,1-.091.091Zm0-.169a.078.078,0,0,0-.078.078c0,.088.157.087.157,0a.078.078,0,0,0-.079-.078Z"/><path class="cls-9" d="M19.272,15.064a.1.1,0,0,1-.195,0h0a.1.1,0,1,1,.195,0Z"/><path d="M19.175,15.167h0a.1.1,0,0,1-.1-.1c0-.114.207-.115.207,0a.1.1,0,0,1-.1.1Zm0-.194a.09.09,0,0,0-.091.091.094.094,0,0,0,.156.063.088.088,0,0,0,.026-.063.091.091,0,0,0-.091-.091Z"/><path class="cls-9" d="M18.982,15.139a.108.108,0,0,1-.216,0h0a.108.108,0,0,1,.216,0Z"/><path d="M18.875,15.253h0a.114.114,0,1,1,.113-.114.115.115,0,0,1-.113.114Zm0-.215a.1.1,0,0,0-.1.1c0,.114.2.113.2,0a.1.1,0,0,0-.1-.1Z"/><path class="cls-9" d="M18.632,15.2a.121.121,0,0,1-.241,0h0a.121.121,0,0,1,.241,0Z"/><path d="M18.512,15.325h0a.125.125,0,0,1-.126-.126.128.128,0,0,1,.126-.127.127.127,0,0,1,0,.253Zm0-.24a.115.115,0,0,0-.114.114c0,.127.228.125.228,0a.114.114,0,0,0-.114-.114Z"/><path class="cls-9" d="M18.265,15.306a.131.131,0,0,1-.261,0h0a.131.131,0,0,1,.261,0Z"/><path d="M18.135,15.443a.137.137,0,1,1,.137-.138.137.137,0,0,1-.137.138Zm0-.261a.125.125,0,0,0-.124.124c0,.137.249.137.249,0a.124.124,0,0,0-.125-.124Z"/><path class="cls-9" d="M17.976,15.511a.131.131,0,0,1-.261,0h0a.131.131,0,0,1,.261,0Z"/><path d="M17.846,15.647h0a.137.137,0,0,1-.137-.136.142.142,0,0,1,.233-.1.137.137,0,0,1-.1.233Zm0-.26a.123.123,0,0,0-.124.124.128.128,0,0,0,.212.087.121.121,0,0,0,.035-.087.123.123,0,0,0-.123-.124Z"/><path class="cls-9" d="M17.821,15.881a.14.14,0,0,1-.28,0h0a.14.14,0,1,1,.28,0Z"/><path d="M17.682,16.027h0a.146.146,0,0,1-.148-.145.153.153,0,0,1,.251-.105.146.146,0,0,1,.043.1.148.148,0,0,1-.146.147Zm0-.28a.134.134,0,1,0,.133.134.134.134,0,0,0-.133-.134Z"/><path class="cls-9" d="M19.812,14.943a.069.069,0,0,0,.068.069.07.07,0,0,0,.069-.069h0a.069.069,0,0,0-.137,0Z"/><path d="M19.88,15.018h0a.075.075,0,0,1-.074-.075c0-.082.149-.083.149,0a.076.076,0,0,1-.075.075Zm0-.137a.061.061,0,0,0-.063.061.063.063,0,0,0,.062.063h0a.062.062,0,1,0,0-.124Z"/><path class="cls-9" d="M20.248,14.975a.078.078,0,0,0,.077.077.077.077,0,0,0,.077-.076h0a.078.078,0,0,0-.078-.077.077.077,0,0,0-.077.077Z"/><path d="M20.325,15.059h0a.084.084,0,0,1,0-.168.084.084,0,0,1,0,.168Zm0-.155a.071.071,0,0,0,0,.142h0a.071.071,0,1,0,0-.142Z"/><path class="cls-9" d="M20.473,15a.086.086,0,0,0,.171,0h0a.086.086,0,0,0-.171,0Z"/><path d="M20.559,15.1h0A.091.091,0,0,1,20.467,15a.092.092,0,1,1,.092.091Zm0-.169a.079.079,0,1,0,0,.157h0a.079.079,0,0,0,0-.157Z"/><path class="cls-9" d="M20.727,15.064a.1.1,0,0,0,.2,0h0a.1.1,0,0,0-.2,0Z"/><path d="M20.825,15.167h0a.1.1,0,0,1-.1-.1c0-.115.208-.114.208,0a.1.1,0,0,1-.1.1Zm0-.194a.091.091,0,0,0-.091.09c0,.1.182.1.182,0a.091.091,0,0,0-.091-.091Z"/><path class="cls-9" d="M21.018,15.139a.108.108,0,1,0,.215,0h0a.108.108,0,0,0-.215,0Z"/><path d="M21.125,15.253h0a.114.114,0,1,1,.114-.114.114.114,0,0,1-.114.114Zm0-.215a.1.1,0,0,0-.1.1c0,.112.2.111.2,0a.1.1,0,0,0-.1-.1Z"/><path class="cls-9" d="M21.368,15.2a.121.121,0,0,0,.241,0h0a.121.121,0,0,0-.241,0Z"/><path d="M21.489,15.325a.127.127,0,1,1,0-.253.128.128,0,0,1,.126.127.125.125,0,0,1-.126.126Zm0-.24a.114.114,0,0,0,0,.228h0a.114.114,0,1,0,0-.228Z"/><path class="cls-9" d="M21.735,15.306a.131.131,0,0,0,.261,0h0a.131.131,0,0,0-.261,0Z"/><path d="M21.865,15.443A.137.137,0,1,1,22,15.306a.138.138,0,0,1-.137.137Zm0-.261a.123.123,0,0,0-.125.123c0,.138.248.139.249,0a.125.125,0,0,0-.124-.125Z"/><path class="cls-9" d="M22.024,15.511a.131.131,0,0,0,.261,0h0a.131.131,0,1,0-.261,0Z"/><path d="M22.154,15.647h0a.137.137,0,1,1,.137-.136.137.137,0,0,1-.137.136Zm0-.26a.12.12,0,0,0-.087.036.126.126,0,0,0,0,.175.125.125,0,0,0,.088.036h0a.121.121,0,0,0,.088-.036.123.123,0,0,0,.036-.087.124.124,0,0,0-.124-.124Z"/><path class="cls-9" d="M22.179,15.881a.14.14,0,0,0,.28,0h0a.14.14,0,1,0-.28,0Z"/><path d="M22.319,16.027h0a.147.147,0,1,1,.147-.146.148.148,0,0,1-.147.146Zm0-.28a.13.13,0,0,0-.095.039.132.132,0,0,0-.039.094.134.134,0,1,0,.134-.133Z"/><path class="cls-9" d="M20.188,14.943a.069.069,0,1,1-.137,0h0a.069.069,0,0,1,.137,0Z"/><path d="M20.119,15.018a.075.075,0,0,1-.074-.075c0-.083.149-.083.149,0a.076.076,0,0,1-.075.076Zm0-.137a.062.062,0,0,0,0,.124h0a.062.062,0,0,0,.063-.062.063.063,0,0,0-.063-.062Z"/><path class="cls-7" d="M19.906,15.036a.14.14,0,0,0-.079.08.84.84,0,0,0-.02.174v.043a.84.84,0,0,1-.061.32l.256.194.254-.194a.84.84,0,0,1-.061-.32V15.29a.914.914,0,0,0-.02-.174.14.14,0,0,0-.078-.081c0,.024.006.046.006.072v.307a1.014,1.014,0,0,0,.009.118.462.462,0,0,0,.023.088L20,15.744l-.135-.124a.462.462,0,0,0,.023-.088,1.014,1.014,0,0,0,.009-.118v-.307a.517.517,0,0,1,.007-.071Z"/><path d="M20,15.854l-.26-.2a.95.95,0,0,0,.058-.325,1.125,1.125,0,0,1,.022-.218.146.146,0,0,1,.082-.084.436.436,0,0,1,0,.076v.307a.832.832,0,0,1-.011.119.482.482,0,0,1-.022.089l.133.118.125-.124a.257.257,0,0,1-.024-.083.832.832,0,0,1-.011-.119v-.295a.39.39,0,0,0,0-.069H20.1a.13.13,0,0,1,.011.056v.307a1.013,1.013,0,0,0,.009.117.437.437,0,0,0,.023.087l-.135.13-.143-.123c.008-.031.015-.061.021-.094a1.013,1.013,0,0,0,.009-.117v-.295a.537.537,0,0,1,0-.07.111.111,0,0,0-.065.069.788.788,0,0,0-.019.172.959.959,0,0,1-.064.366l.251.183.25-.19a.769.769,0,0,1-.063-.316,1.081,1.081,0,0,0-.021-.216.118.118,0,0,0-.053-.064.085.085,0,0,1,.065.061,1.039,1.039,0,0,1,.02.176.965.965,0,0,0,.061.361l-.259.2Z"/><path class="cls-7" d="M19.906,15.036a.517.517,0,0,0-.007.071v.307a1.014,1.014,0,0,1-.009.118.462.462,0,0,1-.023.088l.135.124.133-.124a.462.462,0,0,1-.023-.088,1.014,1.014,0,0,1-.009-.118v-.307c0-.026,0-.048-.006-.072A.219.219,0,0,0,20,15.014h0a.225.225,0,0,0-.1.022Z"/><path d="M20,15.752l-.139-.127c.008-.031.015-.061.021-.094a1.013,1.013,0,0,0,.009-.117v-.295a.537.537,0,0,1,0-.07.158.158,0,0,1,.2-.019.411.411,0,0,1,.01.077v.307a1.013,1.013,0,0,0,.009.117.437.437,0,0,0,.023.087L20,15.752Zm0-.732a.225.225,0,0,0-.094.021c0,.028,0,.046,0,.066v.307a.832.832,0,0,1-.011.119.482.482,0,0,1-.022.089l.129.114.129-.12a.257.257,0,0,1-.024-.083.832.832,0,0,1-.011-.119v-.295a.39.39,0,0,0,0-.069A.133.133,0,0,0,20,15.02Z"/><path class="cls-9" d="M19.931,14.957a.069.069,0,0,0,.138,0h0a.069.069,0,0,0-.138,0Z"/><path d="M20,15.032a.076.076,0,0,1-.075-.075.075.075,0,0,1,.15,0,.076.076,0,0,1-.075.075Zm0-.137a.062.062,0,0,0-.062.062c0,.069.125.07.124,0A.062.062,0,0,0,20,14.9Z"/><path class="cls-9" d="M20.078,15.075a.078.078,0,0,1-.156,0h0a.078.078,0,0,1,.156,0Z"/><path d="M20,15.159a.084.084,0,0,1-.084-.083c0-.093.168-.093.168,0a.085.085,0,0,1-.084.084ZM20,15a.071.071,0,0,0-.071.071c0,.078.142.078.142,0A.071.071,0,0,0,20,15Z"/><path class="cls-9" d="M20.093,15.187a.093.093,0,0,1-.186,0h0a.093.093,0,0,1,.186,0Z"/><path d="M20,15.286h0a.1.1,0,1,1,.1-.1.1.1,0,0,1-.1.1Zm0-.186a.086.086,0,0,0-.086.087c0,.1.172.1.172,0A.086.086,0,0,0,20,15.1Z"/><path class="cls-9" d="M20.111,15.33a.111.111,0,0,1-.222,0h0a.111.111,0,0,1,.222,0Z"/><path d="M20,15.447h0a.117.117,0,0,1-.117-.116c0-.13.236-.13.236,0a.117.117,0,0,1-.118.117Zm0-.222a.1.1,0,0,0-.105.105c0,.117.21.115.21,0A.1.1,0,0,0,20,15.225Z"/><path class="cls-9" d="M20.128,15.49a.128.128,0,0,1-.256,0h0a.128.128,0,0,1,.256,0Z"/><path d="M20,15.624h0a.134.134,0,1,1,.135-.135.136.136,0,0,1-.135.135Zm0-.256a.122.122,0,0,0-.122.122c0,.135.244.134.244,0A.122.122,0,0,0,20,15.368Z"/><path class="cls-10" d="M20,15.594a.5.5,0,0,0-.077.043.2.2,0,0,0-.064.082.514.514,0,0,0-.066-.007.444.444,0,0,0-.063.007.125.125,0,0,0,.009.059c.013.033.016.055.025.058l-.036.013a.048.048,0,0,0-.026.023.328.328,0,0,0,.078.038l.053.009c.022,0,.032.038.032.038a.351.351,0,0,1-.042,0c-.022,0-.021-.021-.059-.036a.286.286,0,0,0-.12,0,.142.142,0,0,0,.04.063.084.084,0,0,0,.067.02l.011.029a.088.088,0,0,1-.06,0c-.024-.015-.032-.039-.075-.037s-.047.038-.07.062a.219.219,0,0,1-.061.045s.036.029.063.054.041.047.072.047.069-.039.069-.039h.027l-.006.034a.143.143,0,0,0-.051.025c-.034.023-.026.1-.026.1s.087.007.119-.021a.09.09,0,0,0,.031-.067l.036-.011,0,.039a.122.122,0,0,0-.051.054.133.133,0,0,0,0,.068.122.122,0,0,1-.02.053.78.78,0,0,0,.168-.044c.127-.087.026-.079.148,0a.78.78,0,0,0,.168.044.122.122,0,0,1-.02-.053.124.124,0,0,0,0-.068.117.117,0,0,0-.05-.054l0-.039.036.011a.09.09,0,0,0,.031.067c.032.028.119.021.119.021s.008-.079-.025-.1a.16.16,0,0,0-.052-.025l-.006-.034H20.3s.039.039.07.039.039-.018.071-.047.063-.054.063-.054a.219.219,0,0,1-.061-.045c-.022-.024-.024-.059-.07-.062s-.051.022-.075.037a.088.088,0,0,1-.06,0L20.251,16a.084.084,0,0,0,.067-.02.142.142,0,0,0,.04-.063.286.286,0,0,0-.12,0c-.038.015-.037.034-.059.036a.361.361,0,0,1-.043,0s.011-.033.033-.038l.053-.009a.328.328,0,0,0,.078-.038.048.048,0,0,0-.027-.023l-.036-.013c.01,0,.014-.025.026-.058a.125.125,0,0,0,.009-.059.444.444,0,0,0-.063-.007.467.467,0,0,0-.065.007.211.211,0,0,0-.065-.082A.392.392,0,0,0,20,15.594Z"/><path d="M20.255,16.444l-.013,0a.741.741,0,0,1-.171-.044A.255.255,0,0,1,20,16.34c-.016.01-.033.029-.074.057a.722.722,0,0,1-.172.045c0-.018.015-.043.014-.058a.147.147,0,0,1,0-.071.124.124,0,0,1,.05-.055.635.635,0,0,0-.038.059.084.084,0,0,0,0,.045.125.125,0,0,1-.018.075c.016-.01.118-.028.159-.05a.325.325,0,0,0,.065-.054c.032.008.047.027.089.055a.674.674,0,0,0,.154.04.093.093,0,0,1-.015-.045.125.125,0,0,0,0-.066.109.109,0,0,0-.048-.051l.009-.049a.07.07,0,0,1,.025.018c-.024.023.014.045.025.078a.1.1,0,0,1,.006.051.116.116,0,0,0,.017.069l.008.011Zm-.593-.116-.01-.008a.214.214,0,0,0,.105-.025.08.08,0,0,0,.029-.061l.048-.012a.079.079,0,0,1-.007.032c-.025-.016-.027.02-.062.05a.172.172,0,0,1-.1.024Zm.655,0a.128.128,0,0,1-.082-.021.091.091,0,0,1-.033-.066.322.322,0,0,0,.041.057c.021.018.075.017.1.021s.02-.071-.01-.092a.152.152,0,0,0-.049-.024l-.005-.046c.056,0,.1.054.144.011s.071-.062.081-.07h0a.122.122,0,0,1-.059-.039c-.028-.043-.036-.058-.065-.059h0a.065.065,0,0,0-.052.02l-.053.023-.006,0L20.246,16a.107.107,0,0,0,.068-.023.136.136,0,0,0,.038-.058.371.371,0,0,1-.066,0,.142.142,0,0,0-.046.006l-.069.038-.04-.006.037-.041.053-.009a.335.335,0,0,0,.071-.035l.011.007a.472.472,0,0,1-.058.032.386.386,0,0,1,.115,0,.094.094,0,0,1-.038.073.089.089,0,0,1-.059.023h.051a.074.074,0,0,1,.056-.024.067.067,0,0,1,.064.042.27.27,0,0,0,.075.066c0,.01-.035.039-.062.063s-.049.05-.075.05a.134.134,0,0,1-.074-.042c-.016.026,0,.028.038.051s.029.105.028.108l-.047,0Zm-.67-.013a.087.087,0,0,1,.017-.1.135.135,0,0,1,.054-.025c-.018-.026-.057.016-.089.016a.074.074,0,0,1-.057-.031c-.046-.043-.082-.072-.082-.072s.039-.03.061-.054c.027-.042.038-.062.073-.064a.069.069,0,0,1,.062.025l.044.019c0-.02-.03-.023-.052-.043a.138.138,0,0,1-.042-.066.2.2,0,0,1,.128-.007l.057.042.042,0-.032-.031H19.8a.344.344,0,0,1-.106-.043l.012-.007a.335.335,0,0,0,.071.035l.053.009c.025.005.036.039.037.041l0,.008-.111-.04a.316.316,0,0,0-.115,0,.342.342,0,0,0,.041.053.077.077,0,0,0,.051.02l.025.04-.066,0c-.03-.026-.041-.036-.066-.036a.055.055,0,0,0-.053.036.286.286,0,0,1-.077.069.236.236,0,0,1,.061.046c.037.036.047.045.068.045s.064-.037.064-.037H19.7l.025.04a.6.6,0,0,0-.054.029c-.022.015-.025.062-.024.088Zm.072-.45.04-.024-.022-.06-.006,0a.122.122,0,0,1-.009-.062.613.613,0,0,1,.135-.005.154.154,0,0,1,.061-.081A.515.515,0,0,1,20,15.588a.238.238,0,0,1,.064.031.234.234,0,0,1,.087.1.664.664,0,0,1,.125,0,.081.081,0,0,1,0,.067l-.029.051v0l0,0,0,0v0l0,0,.022-.055a.11.11,0,0,0,.009-.054s-.036,0-.057,0a.568.568,0,0,0-.065.006.321.321,0,0,0-.068-.083A.368.368,0,0,0,20,15.6s-.039.021-.072.042a.216.216,0,0,0-.062.079.363.363,0,0,1-.071,0,.493.493,0,0,0-.06.006.228.228,0,0,0,.012.05l.016,0,0,.062-.045.02Z"/><path class="cls-1" d="M19.945,16.239a.293.293,0,0,1-.021.045.426.426,0,0,1-.042.04Zm-.07-.083a.243.243,0,0,0-.115.04ZM20,15.938c0-.01,0-.151,0-.151Zm-.127.16a.545.545,0,0,0-.164,0Zm.012-.066a.163.163,0,0,0-.049-.027.091.091,0,0,1-.04-.02Zm.071-.081a.13.13,0,0,0-.026-.04.17.17,0,0,0-.053-.043Zm.1.288a.218.218,0,0,0,.021.045.348.348,0,0,0,.041.04Zm.069-.083a.243.243,0,0,1,.116.04Zm.007-.058a.545.545,0,0,1,.164,0Zm-.011-.066a.152.152,0,0,1,.048-.027.091.091,0,0,0,.039-.02Zm-.071-.081s0-.01.025-.04a.183.183,0,0,1,.053-.043Z"/><path class="cls-7" d="M19.874,16.1a.13.13,0,1,1,.126.161.146.146,0,0,1-.126-.161Z"/><path d="M20,16.268a.171.171,0,1,1,.132-.167.153.153,0,0,1-.132.167Zm0-.32a.139.139,0,0,0-.119.153.123.123,0,1,0,.238,0A.139.139,0,0,0,20,15.948Z"/><path class="cls-9" d="M19.914,16.1c0-.065.038-.119.086-.119s.086.054.086.119-.039.12-.086.12-.086-.054-.086-.12Z"/><path d="M20,16.227c-.052,0-.093-.056-.093-.126a.093.093,0,1,1,.186,0c0,.07-.042.126-.093.126Zm0-.238c-.045,0-.08.05-.08.112a.081.081,0,1,0,.16,0c0-.062-.035-.112-.08-.112Z"/><path class="cls-9" d="M18.8,16.363a.1.1,0,1,1,.105.1.1.1,0,0,1-.105-.1Z"/><path d="M18.9,16.473a.111.111,0,0,1-.111-.11c0-.121.221-.121.221,0a.11.11,0,0,1-.11.11Zm0-.208a.1.1,0,0,0-.1.1c0,.108.2.108.2,0a.1.1,0,0,0-.1-.1Z"/><path class="cls-9" d="M21.211,16.381a.1.1,0,1,0-.1.1.1.1,0,0,0,.1-.1Z"/><path d="M21.107,16.491a.11.11,0,0,1-.11-.11c0-.121.221-.121.221,0a.111.111,0,0,1-.111.11Zm0-.208a.1.1,0,0,0-.1.1c0,.108.2.108.2,0a.1.1,0,0,0-.1-.1Z"/><path class="cls-10" d="M19.993,24.607c2.2-1.717,4.565-5.219,1.791-7.061a1.812,1.812,0,0,0-1.37.157c-.147-.087-.264-.08-.41.084a.33.33,0,0,0-.421-.126,1.646,1.646,0,0,0-1.32-.135c-2.414,1.514-.937,5.107,1.73,7.081Z"/><path class="cls-14" d="M19.994,24.663l-.028-.021c-1.837-1.36-3.03-3.377-2.966-5.018a2.542,2.542,0,0,1,1.239-2.136,1.634,1.634,0,0,1,1.365.134.239.239,0,0,1,.135-.033.343.343,0,0,1,.267.131.3.3,0,0,1,.4-.07,1.916,1.916,0,0,1,1.383-.147,2.6,2.6,0,0,1,1.291,2.129c.068,1.755-1.49,3.78-3.063,5.01l-.027.021Zm-1.2-7.171a1.9,1.9,0,0,0-.515.077,2.453,2.453,0,0,0-1.186,2.058c-.061,1.581,1.131,3.6,2.9,4.924,1.547-1.218,3.069-3.2,3-4.916a2.516,2.516,0,0,0-1.236-2.052,3.107,3.107,0,0,0-.533-.049,1.263,1.263,0,0,0-.784.2l-.024.02-.027-.016c-.143-.084-.23-.065-.354.075l-.036.04-.033-.042a.281.281,0,0,0-.372-.11,1.8,1.8,0,0,0-.806-.212Z"/><path class="cls-15" d="M24.058,20.709s.247-.347.255-.347a.539.539,0,0,0,.273-.347c.247-.081.17-.294.187-.321a.289.289,0,0,0,.06-.311c0-.036.086-.366-.034-.41.006-.35-.2-.318-.366-.089-.177.053-.217.2-.154.374-.23,0-.239.347-.171.543-.307-.009-.136.347-.145.365-.1.053.077.561.095.543Z"/><path class="cls-16" d="M24.056,20.755c-.016,0-.067,0-.141-.3-.046-.188-.03-.267,0-.3a.38.38,0,0,1,0-.32.192.192,0,0,1,.132-.071.594.594,0,0,1,.046-.452.214.214,0,0,1,.125-.087.338.338,0,0,1,.016-.235.291.291,0,0,1,.184-.144c.094-.155.265-.222.354-.132a.34.34,0,0,1,.072.237c.1.073.06.282.04.4a.388.388,0,0,1-.077.379.275.275,0,0,1-.183.325.607.607,0,0,1-.288.351c-.021.024-.242.335-.242.335l-.039.02Zm.05-.908c-.062,0-.1.012-.117.038-.042.056-.006.179.009.231a.21.21,0,0,1,.006.07c-.051.056.012.317.058.438.219-.308.221-.308.251-.308a.483.483,0,0,0,.228-.308.045.045,0,0,1,.031-.037.2.2,0,0,0,.154-.236.237.237,0,0,1,.009-.065.251.251,0,0,0,.055-.271.2.2,0,0,1,.005-.069c.044-.254.011-.306-.012-.314a.047.047,0,0,1-.03-.044c0-.131-.027-.181-.045-.2-.093-.018-.171.044-.238.138a.264.264,0,0,0-.153.115.27.27,0,0,0,0,.216.042.042,0,0,1-.005.042.045.045,0,0,1-.037.02.127.127,0,0,0-.111.056.542.542,0,0,0-.016.426.045.045,0,0,1-.007.042c-.009.012-.021.026-.038.019Z"/><path class="cls-15" d="M22.122,23.692l.153.1c.031.122.139.2.222.178.039.187.232.16.375.053.113.172.252.176.443.116a.415.415,0,0,0,.538-.062c.156.134.261.035.34-.107.123.033.219.012.265-.116.239-.021.119-.255-.077-.356.156-.142.33-.436.086-.48a.341.341,0,0,0-.333.008c-.028-.131-.2-.163-.393-.017-.065-.146-.292-.078-.4.026-.136-.124-.3-.124-.538.018l-.681.641Z"/><path class="cls-16" d="M23.533,24.257a.4.4,0,0,1-.246-.084.257.257,0,0,1-.16.044.318.318,0,0,1-.266-.133c-.169.106-.35.076-.4-.074a.27.27,0,0,1-.23-.209L22.1,23.73a.043.043,0,0,1-.021-.034.046.046,0,0,1,.014-.037l.682-.641c.253-.153.42-.159.568-.045.134-.1.333-.126.414-.031.165-.108.343-.094.406.021a.371.371,0,0,1,.335.017.149.149,0,0,1,.132.11c.036.123-.072.29-.172.4.109.074.2.191.178.29-.007.037-.035.1-.143.117a.225.225,0,0,1-.274.126c-.105.17-.229.208-.362.114a.51.51,0,0,1-.321.123Zm-.232-.163a.393.393,0,0,0,.52-.052.047.047,0,0,1,.061,0c.107.091.182.065.271-.094a.049.049,0,0,1,.052-.022c.113.03.176.007.21-.087a.044.044,0,0,1,.039-.03c.037,0,.083-.014.09-.047.011-.056-.066-.163-.184-.223a.047.047,0,0,1-.01-.075c.111-.1.213-.264.189-.347,0-.01-.012-.042-.08-.055a.3.3,0,0,0-.3.005.047.047,0,0,1-.04,0,.047.047,0,0,1-.025-.032.1.1,0,0,0-.111-.078.365.365,0,0,0-.21.087.046.046,0,0,1-.039.008.048.048,0,0,1-.031-.026.094.094,0,0,0-.1-.056.362.362,0,0,0-.226.1.046.046,0,0,1-.063,0c-.127-.117-.266-.107-.483.023l-.632.595.1.067c.044.117.116.174.17.174a.074.074,0,0,1,.044,0c.01.007.026.017.028.029.028.128.172.124.3.026a.059.059,0,0,1,.036-.009.049.049,0,0,1,.03.02c.091.138.182.163.391.1Z"/><path class="cls-15" d="M22.122,23.309c.028-.163-.081-.46.084-.49-.031-.273.014-.581.316-.552.049-.258.037-.5.324-.534,0,0,.23-.837.469-.258.094.169.077.445-.11.392.036.208-.029.389-.248.382a.344.344,0,0,1-.043.437l-.792.623Z"/><path class="cls-16" d="M22.122,23.355a.04.04,0,0,1-.024-.007.046.046,0,0,1-.022-.047.8.8,0,0,0,0-.182c-.011-.127-.024-.282.083-.332a.643.643,0,0,1,.1-.473.287.287,0,0,1,.225-.094l.012-.073c.032-.2.065-.408.315-.454.037-.123.154-.468.326-.468.085,0,.157.076.221.233a.429.429,0,0,1,.024.384.15.15,0,0,1-.123.077.386.386,0,0,1-.07.284.265.265,0,0,1-.158.087.385.385,0,0,1-.087.43l-.793.625a.048.048,0,0,1-.028.01Zm.384-1.043a.214.214,0,0,0-.18.063.586.586,0,0,0-.074.439.046.046,0,0,1-.038.05c-.064.012-.061.106-.049.248,0,.033.006.067.007.1l.713-.562a.3.3,0,0,0,.034-.375.046.046,0,0,1,0-.048c.008-.014.027-.017.041-.023h0a.19.19,0,0,0,.158-.06.337.337,0,0,0,.043-.269.044.044,0,0,1,.014-.042.05.05,0,0,1,.043-.01c.053,0,.072,0,.086-.027a.356.356,0,0,0-.028-.3c-.068-.163-.12-.181-.139-.181-.087,0-.2.257-.246.429a.047.047,0,0,1-.038.034c-.2.024-.23.154-.266.382l-.019.115a.047.047,0,0,1-.05.036Z"/><path class="cls-15" d="M23.511,22.267l.248-.053c.255-.178.357-.249.486-.053.213-.048.418-.024.409.151.253.018.25.187.222.32.04.235-.057.541-.213.17-.5-.315-.777-.273-1.561-.089l.409-.446Z"/><path class="cls-16" d="M24.8,23.02c-.062,0-.119-.064-.176-.2-.462-.275-.783-.232-1.508-.062a.045.045,0,0,1-.05-.021.047.047,0,0,1,.005-.054l.409-.445.272-.067c.237-.174.381-.246.516-.06a.42.42,0,0,1,.385.059.174.174,0,0,1,.048.1.278.278,0,0,1,.19.1.331.331,0,0,1,.032.273.48.48,0,0,1-.05.342.192.192,0,0,1-.073.036Zm-.839-.5a1.277,1.277,0,0,1,.729.239c.067.141.1.163.11.166a.416.416,0,0,0,.034-.289.28.28,0,0,0-.016-.217.219.219,0,0,0-.164-.066.045.045,0,0,1-.043-.047.1.1,0,0,0-.024-.079.4.4,0,0,0-.329-.026.046.046,0,0,1-.049-.019c-.055-.086-.093-.1-.122-.1a.743.743,0,0,0-.3.162l-.264.061-.286.323a3.423,3.423,0,0,1,.723-.111Z"/><path class="cls-15" d="M23.64,22.009c.008-.009.732-.205.656-.436.205-.036.247-.249.255-.249.427-.143.4-.4.4-.4.122-.136.338-.273.289-.516.014-.277.038-.446-.315-.268-.264-.026-.359.134-.435.374-.125-.154-.327.092-.35.312,0,0-.323.33-.323.338s-.274.525-.274.525c.031.107.063.214.095.321Z"/><path class="cls-16" d="M23.65,22.055l-.011,0a.06.06,0,0,1-.044-.031L23.5,21.7c0-.034.26-.516.275-.553,0-.009,0-.012.334-.355.006-.158.144-.374.292-.374a.144.144,0,0,1,.067.017c.068-.191.175-.373.462-.342.139-.084.256-.1.315-.034s.052.168.043.317a.534.534,0,0,1-.223.5c-.028.027-.055.053-.078.079h0c.012,0,.017.268-.422.415a.313.313,0,0,1-.219.241.164.164,0,0,1-.019.076c-.081.159-.4.279-.635.355a.063.063,0,0,1-.043.016Zm.209-.869s-.026.057-.273.524l.084.241c.416-.137.543-.243.576-.308a.07.07,0,0,0,.006-.056.051.051,0,0,1,0-.038.047.047,0,0,1,.032-.021.29.29,0,0,0,.213-.2c.007-.018.031-.046.05-.046.369-.125.357-.342.356-.351a.54.54,0,0,1,.095-.12c.113-.108.23-.221.2-.392.007-.155.013-.261-.017-.292a.386.386,0,0,0-.233.057c-.043,0-.06,0-.075,0-.19,0-.267.126-.337.345a.045.045,0,0,1-.035.031.048.048,0,0,1-.044-.016c-.087-.107-.247.083-.268.288-.127.143-.314.336-.331.358l0,0Z"/><path class="cls-15" d="M23.656,21.421a.5.5,0,0,1-.238-.462c-.115-.161-.194-.259-.086-.4,0,0-.085-.321-.085-.33-.222-.089-.128-.284-.068-.356a.375.375,0,0,1-.009-.454c0-.285.191-.178.35,0,0,0,.264.2.068.374.2.071.256.249.145.321a.216.216,0,0,1,.1.347c.173.145.108.327.161.49l-.341.471Z"/><path class="cls-16" d="M23.656,21.467a.048.048,0,0,1-.028-.01.536.536,0,0,1-.255-.507c-.115-.137-.2-.257-.078-.42-.052-.161-.075-.234-.086-.269a.237.237,0,0,1-.141-.154.309.309,0,0,1,.055-.237.415.415,0,0,1,.009-.478.19.19,0,0,1,.044-.16c.094-.1.294.061.378.156h0a.385.385,0,0,1,.152.249.221.221,0,0,1-.042.139.3.3,0,0,1,.169.216.169.169,0,0,1-.025.111.279.279,0,0,1,.122.171.244.244,0,0,1-.033.18.473.473,0,0,1,.118.325.669.669,0,0,0,.026.157l-.348.512a.046.046,0,0,1-.03.019Zm-.394-2.179c-.029.016-.047.044-.046.13a.355.355,0,0,0,0,.428.045.045,0,0,1,0,.055.233.233,0,0,0-.057.183.16.16,0,0,0,.107.1.045.045,0,0,1,.029.042c0,.02.083.318.083.318-.086.143-.051.205.064.365a.136.136,0,0,1,.023.056.425.425,0,0,0,.185.388l.312-.432c-.026-.018-.031-.078-.036-.136a.369.369,0,0,0-.118-.293.045.045,0,0,1-.016-.031.044.044,0,0,1,.011-.033.158.158,0,0,0,.04-.137.21.21,0,0,0-.127-.139.046.046,0,0,1-.026-.038.041.041,0,0,1,.02-.041A.072.072,0,0,0,23.742,20a.236.236,0,0,0-.17-.167.045.045,0,0,1-.015-.076.151.151,0,0,0,.058-.118.316.316,0,0,0-.122-.186c-.095-.1-.182-.167-.231-.167Z"/><path class="cls-15" d="M23.963,20.1c-.008-.009-.29-.383-.213-.41-.017-.115-.1-.24-.051-.356a.327.327,0,0,1-.035-.454.328.328,0,0,1,.077-.428c-.039-.219.109-.269.239-.311.1-.353.253-.261.341.009a.408.408,0,0,1,.069.445c.159.113.062.252-.009.311-.139.4-.279.8-.418,1.194Z"/><path class="cls-16" d="M23.963,20.141a.049.049,0,0,1-.034-.015s-.263-.332-.236-.438l.008-.016a.806.806,0,0,0-.026-.089.406.406,0,0,1-.028-.244.365.365,0,0,1-.038-.466.379.379,0,0,1,.1-.459c-.061-.22.13-.281.256-.322.036-.29.285-.308.4.039a.416.416,0,0,1,.078.443.207.207,0,0,1,.079.15.294.294,0,0,1-.111.213l-.405,1.173a.047.047,0,0,1-.034.03Zm.176-2.19c-.028,0-.075.051-.115.2-.175.078-.268.121-.238.291a.334.334,0,0,0-.084.41.045.045,0,0,1,0,.054.281.281,0,0,0,.031.394.046.046,0,0,1,.009.051.3.3,0,0,0,.021.207.851.851,0,0,1,.034.124.046.046,0,0,1-.031.049c.012.024.114.175.183.271l.39-1.113a.246.246,0,0,0,.092-.159.129.129,0,0,0-.067-.1.047.047,0,0,1-.017-.051.367.367,0,0,0-.055-.4c-.06-.162-.118-.227-.152-.227Z"/><path class="cls-15" d="M23.92,18.216c-.079-.083-.158-.166-.239-.249.063-.132.112-.365-.067-.472-.1-.252-.6-.564-.674.035-.075-.181-.233-.359-.35-.151-.258-.231-.4-.16-.264.134,0,0-.12.195.2.347.026.026-.1.356.273.365-.071.113.046.27.2.258-.108.14.074.288.188.232-.048.154-.046.228.162.249l.23.276.188.267c.053-.43.108-.861.161-1.291Z"/><path class="cls-16" d="M23.759,19.553a.044.044,0,0,1-.037-.019l-.189-.268-.227-.273a.186.186,0,0,1-.175-.07.2.2,0,0,1-.016-.151.223.223,0,0,1-.184-.121.171.171,0,0,1-.01-.131.251.251,0,0,1-.166-.12.2.2,0,0,1-.024-.134.306.306,0,0,1-.19-.088.35.35,0,0,1-.063-.269.479.479,0,0,1-.21-.238.244.244,0,0,1,.018-.182.229.229,0,0,1-.036-.244c.057-.09.22-.024.331.066.1-.125.252-.054.34.085.066-.22.2-.256.283-.256a.559.559,0,0,1,.452.339c.165.087.151.309.08.478l.217.228L23.8,19.513a.044.044,0,0,1-.034.038l-.011,0Zm-.6-.878a.054.054,0,0,1,.033.009c.014.012.037.027.031.044-.018.059-.033.118-.015.145s.062.038.138.046l.383.465.147-1.174-.046-.023L23.648,18a.047.047,0,0,1-.008-.051c.015-.03.136-.3-.05-.413a.514.514,0,0,0-.386-.3c-.147,0-.2.166-.219.3a.046.046,0,0,1-.039.04.055.055,0,0,1-.049-.028c-.051-.126-.13-.217-.186-.217-.034,0-.063.038-.081.07a.045.045,0,0,1-.032.023.048.048,0,0,1-.038-.011c-.13-.117-.2-.126-.215-.126s-.046.057.022.207a.34.34,0,0,0-.011.153.327.327,0,0,0,.186.172.1.1,0,0,1,.027.1.269.269,0,0,0,.04.2.251.251,0,0,0,.186.062.049.049,0,0,1,.04.024.045.045,0,0,1,0,.046.105.105,0,0,0,0,.107.163.163,0,0,0,.14.082.056.056,0,0,1,.049.025.047.047,0,0,1,0,.048.09.09,0,0,0-.015.1.133.133,0,0,0,.111.07.083.083,0,0,1,.034-.006Z"/><path class="cls-16" d="M23.728,23.821h0a6.726,6.726,0,0,1-1.635-.165.046.046,0,0,1,.066-.063,7.5,7.5,0,0,0,1.572.137.046.046,0,1,1,0,.091ZM22.2,23.544h0a.046.046,0,0,1-.043-.048,6.9,6.9,0,0,1,.741-1.681l.046-.084c0-.049.088-.034.088.017,0,.014,0,.014-.054.111a5.885,5.885,0,0,0-.73,1.642.046.046,0,0,1-.046.043Zm.193-.075a.046.046,0,0,1-.046-.045.047.047,0,0,1,.045-.047c.522-.012,1.719-.187,1.732-.188a.043.043,0,0,1,.051.038.045.045,0,0,1-.038.052c-.012,0-1.215.177-1.743.19Zm1.243-1.5a.045.045,0,0,1-.039-.07,9.066,9.066,0,0,1,1.371-1.52.045.045,0,0,1,.065,0,.047.047,0,0,1,0,.064,8.881,8.881,0,0,0-1.355,1.5.044.044,0,0,1-.038.021Zm.434-1.372a.048.048,0,0,1-.032-.013.047.047,0,0,1-.007-.058,11.793,11.793,0,0,0,.512-1.394.046.046,0,0,1,.054-.036.045.045,0,0,1,.036.053,10.711,10.711,0,0,1-.53,1.434.047.047,0,0,1-.033.014Zm-.085-.391-.014,0a.046.046,0,0,1-.03-.057,4.645,4.645,0,0,0,.131-1.494.046.046,0,0,1,.042-.049.051.051,0,0,1,.049.042,4.65,4.65,0,0,1-.134,1.528.046.046,0,0,1-.044.032Zm-.289-.994a.045.045,0,0,1-.043-.031c-.05-.148-.093-.3-.13-.44a8.921,8.921,0,0,0-.812-.941.045.045,0,0,1,0-.064.047.047,0,0,1,.065,0,10.289,10.289,0,0,1,.7.781,7.047,7.047,0,0,1-.134-.846.045.045,0,0,1,.042-.049.047.047,0,0,1,.049.042,7.083,7.083,0,0,0,.181,1.041,1.175,1.175,0,0,1,.18.35.047.047,0,0,1-.035.055.051.051,0,0,1-.03,0l.015.045a.045.045,0,0,1-.028.058l-.015,0Z"/><path class="cls-17" d="M19.985,24.355c-1.582-1.559-3.2-4.483-1.59-5.961.286.17.624.018,1.09-.174a.355.355,0,0,0,.5.08.359.359,0,0,0,.449-.094c.457.277,1.044.42,1.18.148,1.587,1.571-.021,4.509-1.629,6Z"/><path class="cls-14" d="M19.984,24.416l-.03-.03c-1.15-1.132-2.3-2.945-2.271-4.445a2.112,2.112,0,0,1,.681-1.58l.025-.022.028.017c.24.142.556.027.995-.154l.085-.036.021.024a.313.313,0,0,0,.442.073,1.038,1.038,0,0,0,.2.033.317.317,0,0,0,.241-.119l.024-.028.032.019c.474.287,1.012.377,1.117.166l.028-.055.044.043a2.285,2.285,0,0,1,.665,1.73,6.978,6.978,0,0,1-2.3,4.335l-.031.029ZM18.4,18.449a2.023,2.023,0,0,0-.628,1.494,6.935,6.935,0,0,0,2.213,4.35,6.864,6.864,0,0,0,2.235-4.243,2.2,2.2,0,0,0-.6-1.626.386.386,0,0,1-.32.12,1.872,1.872,0,0,1-.859-.281.4.4,0,0,1-.475.078c-.079.112-.337.093-.494-.068l-.027.011c-.447.185-.779.3-1.045.165Z"/><path class="cls-18" d="M18.781,21.273a2.171,2.171,0,0,0-.238.09l-.151.248a1.034,1.034,0,0,0-.2.2A8.828,8.828,0,0,0,19.5,23.838a2.188,2.188,0,0,0,.175-.242,2.429,2.429,0,0,0,.329-.748,1.866,1.866,0,0,1-.2-.562c-.043-.112-.215-.405-.215-.405l-.172-.27-.2-.158-.274-.18Z"/><path d="M19.5,23.854l-.007-.009a8.763,8.763,0,0,1-1.319-2.025.922.922,0,0,1,.208-.217l.148-.245a1.792,1.792,0,0,1,.244-.095h.175l.28.182.2.158.174.273a4.371,4.371,0,0,1,.217.407,1.824,1.824,0,0,0,.2.56,2.625,2.625,0,0,1-.5,1l-.008.009Zm-.557-2.573-.166,0a2.1,2.1,0,0,0-.234.089l-.147.244a1.1,1.1,0,0,0-.2.206,8.958,8.958,0,0,0,1.309,2,2.591,2.591,0,0,0,.167-.233A2.389,2.389,0,0,0,20,22.845a1.77,1.77,0,0,1-.2-.556,4.513,4.513,0,0,0-.214-.4l-.172-.27-.192-.155-.274-.18Z"/><path d="M19.1,23.284l.038-.032.128-.312.13-.159.008.006-.129.157-.043.134-.087.181-.045.025Zm.736-.233-.159-.2-.258-.088a.517.517,0,0,1-.067-.161l-.065-.2-.127-.065s-.176-.294-.262-.429L18.9,21.9c.086.136.259.428.259.428l.128.066.068.206a.541.541,0,0,0,.063.156l.257.088.154.2Zm-1.145-.288.1-.207-.062-.015-.11-.16.008-.006.107.158.063.02-.105.21Zm1.059-.364-.074-.131-.061-.02-.089-.137-.15-.066-.089-.206-.085-.065-.17-.022v-.009l.173.022.089.069.088.205.149.064.089.138.061.02.068.138Zm-1.213-.016.082-.055a4.543,4.543,0,0,1,.192-.425c.046-.068.058-.073.072-.073l.028.037h0c.01,0,.034-.021.1-.122h0a2.711,2.711,0,0,1-.044-.425h.009a3.133,3.133,0,0,0,.044.427c-.07.116-.093.129-.106.13l-.029-.037h0c-.007,0-.024.012-.061.068-.086.157-.194.427-.194.427l-.089.048Zm-.193-.339c.08-.075.122-.12.122-.12l-.044-.311.01,0,.043.316a.855.855,0,0,1-.131.117Z"/><path class="cls-19" d="M19.311,25.782c.3-.5,2.357-1.51,4.291-3.685a30.739,30.739,0,0,1-4.81,3.673l.519.012Z"/><path class="cls-20" d="M19.336,25.827l-.674-.015.1-.077c.516-.388,1-.7,1.466-1.011a18.151,18.151,0,0,0,3.339-2.659l.066.061A19.237,19.237,0,0,1,20.327,25a4.438,4.438,0,0,0-.978.808l-.013.022Zm-.414-.1.364.009a4.751,4.751,0,0,1,.988-.812c.491-.354,1.13-.814,1.818-1.408-.653.52-1.238.905-1.812,1.281-.435.285-.883.58-1.358.93Z"/><path class="cls-18" d="M21.342,21.289a2.1,2.1,0,0,0-.238.091l-.152.247s-.237.18-.237.293a.673.673,0,0,1-.152.292.672.672,0,0,0-.151.317c0,.135-.194.27-.194.27a2.423,2.423,0,0,0,.454.825,7.935,7.935,0,0,0,1.251-2.046l-.136-.108-.273-.181Z"/><path d="M20.673,23.64l-.008-.009a2.434,2.434,0,0,1-.457-.829c.005-.012.194-.145.194-.273a.663.663,0,0,1,.154-.323.673.673,0,0,0,.149-.286c0-.116.231-.293.241-.3l.15-.245a1.745,1.745,0,0,1,.243-.094h.175l.415.291a7.665,7.665,0,0,1-1.249,2.061l-.007.009Zm.836-2.342-.167,0a1.908,1.908,0,0,0-.234.089l-.148.243s-.235.182-.235.288a.665.665,0,0,1-.154.3.673.673,0,0,0-.149.311c0,.139-.191.273-.2.278a2.612,2.612,0,0,0,.449.8,7.849,7.849,0,0,0,1.241-2.034l-.4-.277Z"/><path d="M20.425,23.524l.1-.163.13-.114a3.063,3.063,0,0,1-.023-.334c0-.139.091-.14.092-.14l.125-.2-.044-.153V22.3c0-.007,0-.183.089-.251a1.2,1.2,0,0,0,.128-.112l-.044-.311.01,0,.043.315a.771.771,0,0,1-.131.118c-.083.065-.085.242-.085.243v.113l.043.156-.13.207c-.007,0-.086,0-.086.133s.022.337.022.337l-.131.117-.108.157Zm-.087-.271.122-.208-.086-.106.042-.23.13-.227a.857.857,0,0,1,.176-.137c.081-.042-.023-.284-.024-.286l.009,0c0,.01.109.252.019.3a.844.844,0,0,0-.172.134l-.129.225-.042.224.085.108-.13.208Zm.8-.181.1-.3.108-.2-.062-.016-.11-.159.008-.006.107.158.063.02-.105.21-.107.292Zm-.282-.473.034-.116.283-.138a4.309,4.309,0,0,1,.192-.425c.044-.066.049-.07.072-.073l.027.037c.013,0,.032-.017.1-.123h0a2.85,2.85,0,0,1-.044-.425h.01a3.159,3.159,0,0,0,.043.427c-.07.117-.086.137-.106.13l-.028-.036h0c-.007,0-.024.012-.061.068-.086.157-.194.427-.194.427l-.283.137-.041.11Zm.783-.388c-.065-.089-.139-.212-.187-.286l.008-.006c.048.074.122.2.179.292Zm.21-.361-.093-.059-.17-.022v-.01l.173.023.089.068Z"/><path class="cls-21" d="M22.144,23.468a.15.15,0,1,1-.15-.156.153.153,0,0,1,.15.156Z"/><path class="cls-22" d="M21.994,23.648a.18.18,0,1,1,.173-.18.176.176,0,0,1-.173.18Zm0-.314a.134.134,0,1,0,.127.134.131.131,0,0,0-.127-.134Z"/><path class="cls-18" d="M19.974,21.354a2.047,2.047,0,0,0-.238.09l-.151.248s-.237.18-.237.292a.672.672,0,0,1-.152.293.662.662,0,0,0-.151.315c0,.135-.2.27-.2.27-.127.083.116.3.269.486a7.978,7.978,0,0,0,.842.982,6.436,6.436,0,0,0,1.241-1.4,1.813,1.813,0,0,1-.2-.562,4.436,4.436,0,0,0-.216-.405l-.172-.27-.195-.158-.272-.18Z"/><path d="M19.961,24.344l-.007-.007a7.917,7.917,0,0,1-.843-.984c-.03-.036-.064-.075-.1-.113-.113-.125-.219-.244-.208-.327a.086.086,0,0,1,.04-.06s.19-.133.19-.261a.655.655,0,0,1,.153-.321.667.667,0,0,0,.149-.287c0-.116.232-.293.242-.3l.149-.245a1.761,1.761,0,0,1,.243-.095h.177l.277.182.2.158.175.272c.007.013.173.3.216.407a1.819,1.819,0,0,0,.2.561A5.089,5.089,0,0,1,20.2,24.118c-.076.072-.153.144-.23.219l-.007.007Zm.182-2.982-.169,0a2.185,2.185,0,0,0-.234.089l-.146.244c-.005,0-.236.181-.236.287a.67.67,0,0,1-.154.3.654.654,0,0,0-.148.309c0,.139-.192.273-.2.278a.063.063,0,0,0-.031.046c-.01.073.1.194.2.311.034.038.068.077.1.114a7.929,7.929,0,0,0,.834.975l.223-.213a5.174,5.174,0,0,0,1.009-1.18,1.67,1.67,0,0,1-.2-.554c-.041-.109-.213-.4-.214-.4l-.172-.27-.193-.155-.271-.18Z"/><path d="M19.448,23.812l.011-.071a1.648,1.648,0,0,1,.241-.2c.068-.043.064-.056.053-.086a.186.186,0,0,1-.013-.068c0-.038.008-.062.023-.071v-.177l.108-.294.109-.2-.063-.016-.11-.159.008-.006.108.158.063.02-.105.21-.108.292v.156a.21.21,0,0,0-.022.09.186.186,0,0,0,.012.064c.013.036.016.053-.057.1a1.607,1.607,0,0,0-.237.2l-.02.066Zm.56-.021.166-.164.108-.269.045-.025.127-.313.13-.159.008.006-.129.158-.043.133-.087.182-.045.024-.106.268-.174.159Zm-.843-.36.123-.12a3.04,3.04,0,0,1-.023-.334c0-.139.091-.14.091-.14l.127-.2-.045-.154v-.113a.373.373,0,0,1,.088-.252,1.3,1.3,0,0,0,.129-.112l-.044-.312h.01l.042.316a.855.855,0,0,1-.131.117c-.083.065-.084.242-.084.244v.112l.043.157-.131.206c-.007,0-.085,0-.085.133s.021.337.021.337l-.131.117Zm-.129-.215.057-.106L19.007,23l.042-.23.13-.226a.823.823,0,0,1,.175-.138c.081-.042-.023-.284-.023-.287l.009,0c0,.01.108.253.019.3a.8.8,0,0,0-.172.135l-.129.224L19.015,23l.086.109-.065.107Zm1.989-.085-.16-.2-.257-.089a.442.442,0,0,1-.067-.161l-.065-.2-.128-.064s-.175-.295-.261-.43l.008,0c.087.135.26.428.26.428l.128.066.067.206a.561.561,0,0,0,.063.155l.258.089.154.2Zm-1.534-.468.034-.116.283-.138A4.309,4.309,0,0,1,20,21.984c.044-.066.051-.073.071-.073l.028.037h0c.014,0,.046-.041.095-.122h0a2.871,2.871,0,0,1-.044-.426h.01a2.949,2.949,0,0,0,.044.427c-.07.117-.1.134-.106.131l-.029-.037h0c-.008,0-.024.012-.062.067-.086.158-.193.427-.193.427l-.283.138-.041.11Zm1.448-.184-.074-.131-.062-.02-.089-.137-.149-.066-.089-.2-.085-.065-.17-.022v-.01l.172.023.09.068.087.2.15.065.088.137.062.02.068.138Z"/><path class="cls-21" d="M23.584,21.943a.17.17,0,1,1-.17-.177.174.174,0,0,1,.17.177Z"/><path class="cls-22" d="M23.414,22.144a.2.2,0,1,1,.193-.2.2.2,0,0,1-.193.2Zm0-.356a.156.156,0,1,0,.148.155.152.152,0,0,0-.148-.155Z"/><path class="cls-21" d="M24.065,20.648a.151.151,0,1,1-.151-.156.154.154,0,0,1,.151.156Z"/><path class="cls-22" d="M23.914,20.828a.18.18,0,1,1,.173-.18.176.176,0,0,1-.173.18Zm0-.314a.135.135,0,1,0,.128.134.131.131,0,0,0-.128-.134Z"/><path class="cls-21" d="M23.594,18.967a.15.15,0,1,1-.15-.157.153.153,0,0,1,.15.157Z"/><path class="cls-22" d="M23.444,19.146a.18.18,0,1,1,.173-.179.176.176,0,0,1-.173.179Zm0-.313a.134.134,0,1,0,.127.134.131.131,0,0,0-.127-.134Z"/><path class="cls-23" d="M18.4,21.561V20.9l-.065-.056v-.157l.118-.011.022-.742-.075-.045-.011-.123s.086.034.086.011.022-.146.022-.146-.055-.011-.055-.033.065-.079.065-.079a.3.3,0,0,1-.042-.056.946.946,0,0,1-.033-.124l.033-.124-.023-.067-.053-.1.076-.078s-.023-.1-.023-.124a.486.486,0,0,1,.065-.124c.011-.011.1-.134.1-.134l.182-.045.216.033.119.079.021.2s-.021.124-.032.124a.751.751,0,0,0-.1.045.429.429,0,0,1-.119,0,.908.908,0,0,0,.032.134v.135l-.01.169a.288.288,0,0,1-.011.09.376.376,0,0,0-.032.045l-.011.168.172.045-.01.1-.119.011.021.685.172.034v.191l-.074.045-.022.684Z"/><path class="cls-24" d="M19.028,21.584H18.4l-.023-.685-.056-.039-.008-.174.138-.034,0-.719-.065-.026-.021-.14a.2.2,0,0,1,.1,0,.539.539,0,0,1,.012-.131c-.007.015-.054,0-.054-.034s.031-.058.061-.085c-.012,0-.028-.024-.036-.041a.826.826,0,0,1-.035-.128l.033-.134-.074-.153.08-.1h0c-.01,0-.028-.085-.028-.108A.441.441,0,0,1,18.5,18.7c.012-.013.094-.131.094-.131l.2-.055.225.034.127.082.031.218c-.025.148-.036.148-.054.148s-.051.023-.087.042a.514.514,0,0,1-.093.008l-.032-.006a.223.223,0,0,1,.05.107v.141l-.011.17c0,.086-.012.1-.017.1a.334.334,0,0,0-.029.042l-.008.157.156.023.006.124-.139.032.042.661.154.013.018.213-.086.064-.011.688Zm-.643-1.8.041.1.065.028-.012.761-.137.033.02.135.056.039.008.679.558-.021.021-.664.086-.063-.011-.172-.154-.012-.039-.706.138-.034-.009-.081-.156-.022,0-.191a.283.283,0,0,1,.038-.059.654.654,0,0,0,0-.074l.011-.3c-.04-.133-.036-.138-.029-.148l.023.016.032-.02c.034,0,.08,0,.081,0,.082-.044.094-.044.1-.044-.01,0,0-.059.01-.106l-.022-.2-.108-.063-.207-.031-.173.045a.976.976,0,0,1-.087.129.5.5,0,0,0-.058.109c0,.013.013.077.021.118l-.081.1.057.075.024.07-.033.137c.009.031.025.094.031.107a.293.293,0,0,0,.039.052c-.029.056-.056.086-.058.095l.021,0,.033.032s-.021.12-.021.142V19.8l-.036.007a.345.345,0,0,1-.081-.02Z"/><path class="cls-23" d="M21.017,21.573V20.91l-.064-.056V20.7l.118-.011.022-.741-.076-.045-.011-.124s.087.034.087.011.021-.146.021-.146-.053-.011-.053-.033.064-.079.064-.079a.333.333,0,0,1-.043-.056,1.041,1.041,0,0,1-.032-.124l.032-.123-.021-.068-.055-.1.076-.078s-.021-.1-.021-.124a.434.434,0,0,1,.064-.123c.011-.012.1-.135.1-.135l.183-.045.215.034.118.078.022.2a.566.566,0,0,1-.032.124.841.841,0,0,0-.1.045.422.422,0,0,1-.118,0,.8.8,0,0,0,.033.135v.135l-.011.168a.285.285,0,0,1-.011.09.421.421,0,0,0-.033.045l-.01.168.172.045-.011.1-.118.011.022.685.172.034v.191l-.076.045-.021.685Z"/><path class="cls-24" d="M21.641,21.6h-.624L21,20.91l-.057-.039-.007-.174.138-.033,0-.72-.065-.025-.022-.141a.215.215,0,0,1,.095,0,.545.545,0,0,1,.013-.131c-.008.016-.054,0-.054-.034s.031-.058.061-.085a.084.084,0,0,1-.037-.041,1.118,1.118,0,0,1-.034-.128l.033-.134-.074-.152.079-.105h0c-.01,0-.028-.084-.028-.108a.451.451,0,0,1,.07-.139c.012-.012.1-.132.1-.132l.2-.054.224.034.128.082.031.218c-.025.148-.037.148-.054.148s-.051.024-.087.043a.677.677,0,0,1-.094.007l-.031-.006a.222.222,0,0,1,.05.108v.141l-.011.169c0,.087-.013.1-.018.105a.346.346,0,0,0-.029.041l-.007.158.156.022,0,.125-.138.031.042.661.154.013.018.213-.087.064-.011.688ZM21,19.8l.041.1.065.027-.01.761-.139.033.02.135.057.039.007.68.559-.021.021-.665.087-.063-.011-.172-.155-.012-.04-.706.139-.034-.01-.081-.155-.021-.006-.192a.33.33,0,0,1,.038-.059.324.324,0,0,0,.006-.074l.011-.3c-.042-.134-.038-.138-.03-.149l.023.016.031-.019c.034,0,.081,0,.081,0,.083-.045.094-.045.1-.045-.011,0,0-.059.01-.106l-.022-.195-.109-.062-.206-.031-.172.044a1.242,1.242,0,0,1-.088.129.5.5,0,0,0-.058.109c0,.014.013.08.021.118l-.082.1.058.075.024.071-.033.136c.009.028.025.094.031.108a.323.323,0,0,0,.039.051c-.029.056-.056.086-.058.1l.021,0,.032.032s-.021.12-.021.142v.023l-.036.008A.3.3,0,0,1,21,19.8Z"/><path class="cls-23" d="M19.694,21.6v-.662l-.064-.056v-.158l.118-.011.022-.741-.076-.045-.01-.123s.086.033.086.011.021-.146.021-.146-.054-.012-.054-.034.065-.078.065-.078a.354.354,0,0,1-.044-.057c-.01-.022-.032-.123-.032-.123l.032-.124-.021-.067-.053-.1L19.758,19s-.021-.1-.021-.123a.429.429,0,0,1,.065-.124c.011-.011.1-.134.1-.134l.183-.046.216.034.118.079.022.2s-.022.123-.033.123a.8.8,0,0,0-.1.045s-.108.012-.119,0a.783.783,0,0,0,.032.135v.135l-.011.168a.312.312,0,0,1-.01.09.482.482,0,0,0-.032.045l-.011.169.172.044-.011.1-.118.011.021.685.172.034v.191l-.075.044L20.3,21.6Z"/><path class="cls-24" d="M20.319,21.617h-.625l-.022-.684-.057-.039-.007-.175.138-.033,0-.719-.065-.026-.022-.141a.219.219,0,0,1,.1,0,.631.631,0,0,1,.013-.135c0,.021-.055.007-.055-.03s.031-.057.06-.084a.1.1,0,0,1-.037-.04.993.993,0,0,1-.033-.13l.032-.134-.073-.152.078-.1h0a.286.286,0,0,1-.027-.108.421.421,0,0,1,.071-.139c.012-.013.094-.132.094-.132l.2-.054.224.033.128.082.031.219c-.025.148-.037.148-.055.148a.94.94,0,0,0-.086.042.629.629,0,0,1-.093.008l-.032-.006c.024.016.037.065.049.107v.141l-.01.17c0,.086-.012.1-.017.1a.4.4,0,0,0-.03.041l-.007.158.156.022.006.125-.139.031.041.662.155.013.017.213-.085.063-.011.688Zm-.643-1.8.041.1.065.028-.012.761-.138.033.02.135.057.039.008.679.558-.021.021-.665.086-.063-.011-.171-.154-.012-.04-.706.139-.035-.009-.081-.156-.021-.006-.191a.263.263,0,0,1,.039-.059.66.66,0,0,0,0-.075l.011-.3c-.04-.133-.037-.139-.029-.148l.023.016.032-.02c.034,0,.08,0,.08,0,.083-.045.093-.045.1-.045-.01,0,0-.058.011-.1l-.022-.2-.109-.062-.206-.031-.173.045a1.172,1.172,0,0,1-.087.129.492.492,0,0,0-.059.108c0,.015.013.08.021.119l-.08.1.057.075.023.072-.032.136c.008.027.024.093.031.108a.323.323,0,0,0,.039.051c-.029.056-.056.085-.059.1l.021,0,.033.031s-.021.121-.021.143v.022l-.035.008a.293.293,0,0,1-.081-.021Z"/><polygon class="cls-25" points="18.563 21.557 18.563 21.035 18.843 21.035 18.843 21.578 18.563 21.557"/><polygon class="cls-25" points="19.883 21.599 19.893 21.066 20.144 21.066 20.144 21.588 19.883 21.599"/><polygon class="cls-25" points="21.184 21.588 21.163 21.087 21.434 21.077 21.434 21.599 21.184 21.588"/><rect x="18.633" y="20.012" width="0.16" height="0.271"/><rect x="19.903" y="20.022" width="0.22" height="0.261"/><rect x="21.203" y="20.043" width="0.191" height="0.251"/><path class="cls-26" d="M20.123,19.03c-.059,0-.1-.089-.131-.162l.024-.056.017.038c.026.058.074.167.117.174a.074.074,0,0,1-.027.006Zm-1.236,0c-.022,0-.064-.045-.188-.19l.033-.029a1.821,1.821,0,0,0,.178.2c-.007.013-.013.022-.023.022Zm2.605-.011c-.086,0-.135-.136-.14-.153l.042-.014c.019.057.067.152.114.166Z"/><path class="cls-27" d="M18.533,18.256c.5-.17-.118-.51-.221,0-.163.027-.184.153-.536.1-.851,1.448-.221,3.784,2.27,6.2-4.461-3.962-2.648-6.893-1.413-6.783.672.049.333.923-.1.482Z"/><path class="cls-14" d="M20.7,18.392a.592.592,0,0,1-.167-.506l.089.012a.545.545,0,0,0,.121.417l-.043.077Zm-.734-.1-.016-.477.089,0,.016.476-.089,0Zm-.5-.038a.705.705,0,0,1-.026-.137.488.488,0,0,1-.069.136l-.07-.056a.5.5,0,0,0,.085-.3h.058a1.294,1.294,0,0,1,.054-.245l.085.029a1.042,1.042,0,0,0-.031.55l-.086.024Zm.9-.029.012-.055c.024-.091.083-.3-.016-.408l.065-.061c.133.139.066.387.037.493l-.1.031Zm-.239-.117-.064-.061a.71.71,0,0,1,.272-.144l.025.085a.654.654,0,0,0-.233.12Zm-.308-.026c-.042-.077-.17-.06-.187-.053l-.07-.034.054-.054a.256.256,0,0,1,.282.1l-.079.042Zm-.688-.268h-.089c0-.12-.28-.226-.377-.254l.024-.085c.045.012.442.13.442.339Zm1.41,0c-.007-.021-.024-.076.2-.276l.059.067a.8.8,0,0,0-.175.193l-.086.016Zm-1.147-.057a.94.94,0,0,0-.326-.228l.038-.081a1.026,1.026,0,0,1,.367.266l-.079.043Zm1.526-.029-.074-.051c.088-.127.433-.178.472-.183l.012.088a.809.809,0,0,0-.41.146Z"/><path class="cls-28" d="M20.425,18.149l-.024.028a.345.345,0,0,1-.165.109A.332.332,0,0,1,20,18.259l-.023-.009-.02.013a.311.311,0,0,1-.232.059.373.373,0,0,1-.21-.132l-.022-.023-.028.011a4.257,4.257,0,0,1-.605.221.573.573,0,0,1-.446-.043l-.029-.018-.024.022a2.078,2.078,0,0,0-.668,1.365,3.794,3.794,0,0,0,.254,1.635,8.7,8.7,0,0,0,2,3.026l.03.03.031-.029A8.079,8.079,0,0,0,22.04,21.4a2.8,2.8,0,0,0-.395-3.077l-.042-.043-.028.055a.212.212,0,0,1-.15.108.71.71,0,0,1-.273,0,2.1,2.1,0,0,1-.7-.274Zm.016.11a2.121,2.121,0,0,0,.7.271.784.784,0,0,0,.31,0,.332.332,0,0,0,.166-.106,2.726,2.726,0,0,1,.343,2.948,8.031,8.031,0,0,1-1.969,2.922,8.581,8.581,0,0,1-1.953-2.962,3.712,3.712,0,0,1-.249-1.6,1.977,1.977,0,0,1,.62-1.287.69.69,0,0,0,.478.039,4.181,4.181,0,0,0,.594-.215.448.448,0,0,0,.236.138.4.4,0,0,0,.276-.062.429.429,0,0,0,.271.025.41.41,0,0,0,.181-.113Z"/><path class="cls-27" d="M21.5,18.219c-.5-.17.117-.509.22,0,.163.028.184.154.536.1.851,1.448.221,3.784-2.27,6.2,4.461-3.963,2.648-6.894,1.413-6.783-.672.048-.333.922.1.481Z"/><path class="cls-29" d="M17.869,23.652a2.407,2.407,0,0,0-2.628-.453c.315.142.655.191.944.346l1.684.107Z"/><path class="cls-30" d="M17.869,23.7h0l-1.684-.106a3.052,3.052,0,0,0-.519-.194,3.663,3.663,0,0,1-.44-.156A.045.045,0,0,1,15.2,23.2a.044.044,0,0,1,.03-.039,2.465,2.465,0,0,1,2.673.461.045.045,0,0,1,.011.05.043.043,0,0,1-.041.027Zm-2.5-.493c.107.042.216.075.324.108a2.821,2.821,0,0,1,.516.2l1.535.094a2.336,2.336,0,0,0-2.375-.4Z"/><path class="cls-31" d="M17.6,23.6a.064.064,0,0,1-.027-.007,3.126,3.126,0,0,0-1.5-.291.045.045,0,0,1-.044-.045.044.044,0,0,1,.046-.044,3.29,3.29,0,0,1,1.53.3.044.044,0,0,1,.015.008.055.055,0,0,1,.016.066.046.046,0,0,1-.037.018Z"/><path class="cls-29" d="M17.9,23.719c-.367.075-.872.444-1.021.426a6.148,6.148,0,0,1-1.161-.347,1.489,1.489,0,0,0-.485,0c1.374-.679,1.841-.585,2.667-.079Z"/><path class="cls-30" d="M16.885,24.19h-.016A4.063,4.063,0,0,1,16,23.946c-.1-.036-.2-.072-.3-.105a.761.761,0,0,0-.3-.01,1.563,1.563,0,0,1-.167.012.044.044,0,0,1-.02-.084c1.407-.7,1.894-.579,2.71-.078a.043.043,0,0,1,.021.045.044.044,0,0,1-.036.036,2.63,2.63,0,0,0-.606.258,1.247,1.247,0,0,1-.412.17Zm-1.333-.46a.571.571,0,0,1,.176.026c.1.034.2.07.3.106a3.9,3.9,0,0,0,.851.239h.006a1.321,1.321,0,0,0,.37-.16,3.428,3.428,0,0,1,.527-.239c-.717-.424-1.159-.508-2.318.033.03,0,.059,0,.088,0Z"/><path class="cls-29" d="M16.989,22.72s-.459.066-.663.08a1.541,1.541,0,0,1-.829-.573.805.805,0,0,0-.562-.173,1.845,1.845,0,0,1,2.054.666Z"/><path class="cls-30" d="M16.326,22.844h0a1.558,1.558,0,0,1-.859-.587.714.714,0,0,0-.49-.159l-.018,0-.011,0v-.007c-.017-.007-.032-.019-.034-.032s-.007-.043.015-.048a1.884,1.884,0,0,1,2.1.682.046.046,0,0,1,.005.044.045.045,0,0,1-.035.027s-.461.067-.666.08Zm-1.071-.8a.539.539,0,0,1,.275.154,1.527,1.527,0,0,0,.8.557c.152-.01.442-.049.58-.068a1.713,1.713,0,0,0-1.651-.643Z"/><path class="cls-29" d="M16.364,21.788a1.942,1.942,0,0,1-1.582-1.318c0,.009.23.151.192.186,1.025.271,1.092.488,1.39,1.132Z"/><path class="cls-30" d="M16.364,21.832h0a1.976,1.976,0,0,1-1.622-1.351.044.044,0,0,1,.028-.053.045.045,0,0,1,.056.024c.121.082.179.129.2.17.979.263,1.083.489,1.356,1.082l.031.065a.046.046,0,0,1,0,.044.044.044,0,0,1-.037.019Zm-1.5-1.247a1.958,1.958,0,0,0,1.426,1.151c-.269-.584-.363-.782-1.329-1.037a.043.043,0,0,1-.032-.032.043.043,0,0,1,.013-.043.217.217,0,0,1-.078-.039Z"/><path class="cls-29" d="M17.41,22.906a1.616,1.616,0,0,0-.154-1.331,2.592,2.592,0,0,1-.433-.8c-.047.777-.208,1.42.587,2.13Z"/><path class="cls-30" d="M17.41,22.951a.046.046,0,0,1-.03-.011,1.927,1.927,0,0,1-.621-1.905c.007-.086.014-.173.02-.262a.044.044,0,0,1,.085-.014l.042.1a2.255,2.255,0,0,0,.385.687,1.681,1.681,0,0,1,.163,1.367.044.044,0,0,1-.029.035l-.015,0Zm-.556-1.985,0,.076a1.857,1.857,0,0,0,.529,1.775,1.5,1.5,0,0,0-.157-1.215,2.126,2.126,0,0,1-.367-.636Z"/><path class="cls-29" d="M16.427,21.269a2.845,2.845,0,0,0,.473-2.078,3.925,3.925,0,0,1-.179.48c-.689.452-.383,1.158-.294,1.6Z"/><path class="cls-30" d="M16.427,21.313h-.008a.042.042,0,0,1-.035-.035c-.013-.06-.029-.126-.046-.2-.11-.439-.261-1.041.358-1.449.013-.026.148-.392.16-.451a.04.04,0,0,1,.046-.035.044.044,0,0,1,.042.04,2.907,2.907,0,0,1-.479,2.106.048.048,0,0,1-.038.02Zm.445-1.888c-.049.139-.111.29-.151.29-.542.365-.406.909-.3,1.346.008.032.016.063.023.094a2.659,2.659,0,0,0,.425-1.73Z"/><path class="cls-29" d="M16.019,17.859a3.129,3.129,0,0,1,.319,2.211,3.759,3.759,0,0,0-.178-.479c-.689-.453-.23-1.292-.141-1.732Z"/><path class="cls-30" d="M16.338,20.115a.046.046,0,0,1-.044-.037,4.257,4.257,0,0,0-.169-.46c-.574-.374-.376-1.013-.231-1.479a2.944,2.944,0,0,0,.081-.289.045.045,0,0,1,.036-.034.042.042,0,0,1,.046.019,3.065,3.065,0,0,1,.332,2.171l-.006.068a.045.045,0,0,1-.043.041Zm-.152-.561c.027,0,.082.149.127.285a2.869,2.869,0,0,0-.276-1.866c-.016.059-.036.124-.057.193-.144.463-.324,1.041.2,1.388Z"/><path class="cls-29" d="M16.4,18.951c1.123-.59.689-1.34.893-1.917a2.183,2.183,0,0,0-.893,1.917Z"/><path class="cls-30" d="M16.4,19a.048.048,0,0,1-.023-.007.042.042,0,0,1-.021-.039A2.222,2.222,0,0,1,17.267,17a.045.045,0,0,1,.054,0,.044.044,0,0,1,.016.05,1.761,1.761,0,0,0-.068.528,1.383,1.383,0,0,1-.846,1.415.046.046,0,0,1-.021,0Zm.813-1.84a2.1,2.1,0,0,0-.766,1.719,1.281,1.281,0,0,0,.731-1.3,2.447,2.447,0,0,1,.035-.418Z"/><path class="cls-31" d="M16.223,19.715a.044.044,0,0,1-.044-.041c-.02-.237-.118-.8-.16-1.048L16,18.518a.043.043,0,0,1,.037-.05.044.044,0,0,1,.051.037l.018.106c.042.243.14.814.161,1.056a.044.044,0,0,1-.041.048Zm.332-.865-.014,0a.044.044,0,0,1-.029-.056A6.148,6.148,0,0,1,17,17.642a.045.045,0,1,1,0,.089c-.008.038-.266.684-.4,1.088a.044.044,0,0,1-.042.031Z"/><path class="cls-29" d="M16.275,20.989c-.626-.04-1.3-.932-1.48-1.625,0,.009.229.151.191.187a2.175,2.175,0,0,1,1.289,1.438Z"/><path class="cls-30" d="M16.275,21.033h0c-.625-.04-1.331-.923-1.52-1.657a.045.045,0,0,1,.084-.029c.127.087.184.134.2.176a2.049,2.049,0,0,1,1.2,1.268l.081.179a.043.043,0,0,1,0,.044.045.045,0,0,1-.037.019Zm-1.4-1.555A2.228,2.228,0,0,0,16.2,20.935l-.049-.108a1.966,1.966,0,0,0-1.185-1.236.041.041,0,0,1-.025-.033.046.046,0,0,1,.014-.04.248.248,0,0,1-.081-.04Z"/><path class="cls-29" d="M16.089,20.376a2.841,2.841,0,0,1-.472-2.077,3.94,3.94,0,0,0,.178.48c.689.452.383,1.158.294,1.6Z"/><path class="cls-30" d="M16.089,20.421a.048.048,0,0,1-.038-.02,2.909,2.909,0,0,1-.478-2.106.044.044,0,0,1,.042-.041.046.046,0,0,1,.046.037,4.257,4.257,0,0,0,.169.46c.609.4.459,1,.349,1.439-.018.069-.034.134-.047.2a.042.042,0,0,1-.035.035Zm-.444-1.883a2.646,2.646,0,0,0,.424,1.724l.023-.094c.109-.436.245-.98-.321-1.352h0c-.026,0-.08-.144-.125-.278Z"/><path class="cls-29" d="M16.5,19.138c1.161-.537.8-1.1,1.148-1.691-.778.6-1.136,1.02-1.148,1.691Z"/><path class="cls-30" d="M16.5,19.182a.042.042,0,0,1-.024-.007.044.044,0,0,1-.021-.038c.013-.705.4-1.134,1.165-1.725a.047.047,0,0,1,.058,0,.044.044,0,0,1,.009.056A1.741,1.741,0,0,0,17.51,18a1.422,1.422,0,0,1-.987,1.175.043.043,0,0,1-.019,0ZM17.528,17.6a2.022,2.022,0,0,0-.976,1.465,1.31,1.31,0,0,0,.871-1.081,2.394,2.394,0,0,1,.105-.384Z"/><path class="cls-31" d="M16.555,19.063a.047.047,0,0,1-.031-.012.044.044,0,0,1,0-.063,3.209,3.209,0,0,0,.63-.892.043.043,0,0,1,.058-.025.045.045,0,0,1,.025.058,3.236,3.236,0,0,1-.648.92.047.047,0,0,1-.032.014Z"/><path class="cls-19" d="M20.684,25.794l.565.012c-1.877-1.834-5.471-2.633-4.971-6.01-.516,3.662,2.937,4,4.406,6Z"/><path class="cls-20" d="M21.363,25.854l-.68-.014A7.965,7.965,0,0,0,18.749,24.2c-1.341-.91-2.727-1.85-2.554-4.07h0c.008-.112.02-.225.038-.342l.09.013h0c-.016.115-.028.227-.037.335-.151,2.135,1.479,3.185,3.055,4.2a12.27,12.27,0,0,1,1.94,1.434l.082.08Zm-4.709-3.728a6.182,6.182,0,0,0,2.146,2,7.552,7.552,0,0,1,1.921,1.64l.246-.012.166,0a13.079,13.079,0,0,0-1.842-1.342,7.934,7.934,0,0,1-2.637-2.29Z"/><path class="cls-21" d="M16.572,19.072a.18.18,0,1,1-.18-.189.183.183,0,0,1,.18.189Z"/><path class="cls-22" d="M16.392,19.282a.211.211,0,1,1,.2-.21.207.207,0,0,1-.2.21Zm0-.376a.166.166,0,1,0,.157.166.162.162,0,0,0-.157-.166Z"/><path class="cls-21" d="M16.462,20.105a.17.17,0,1,1-.17-.177.174.174,0,0,1,.17.177Z"/><path class="cls-22" d="M16.292,20.305a.2.2,0,1,1,.193-.2.2.2,0,0,1-.193.2Zm0-.355a.155.155,0,1,0,.147.155.152.152,0,0,0-.147-.155Z"/><path class="cls-21" d="M16.623,21.578a.151.151,0,1,1-.151-.157.155.155,0,0,1,.151.157Z"/><path class="cls-22" d="M16.472,21.757a.179.179,0,1,1,.173-.179.176.176,0,0,1-.173.179Zm0-.313a.134.134,0,1,0,.128.134.131.131,0,0,0-.128-.134Z"/><path class="cls-21" d="M17.933,23.207a.151.151,0,1,1-.151-.156.154.154,0,0,1,.151.156Z"/><path class="cls-22" d="M17.782,23.387a.18.18,0,1,1,.174-.18.176.176,0,0,1-.174.18Zm0-.314a.134.134,0,1,0,.128.134.131.131,0,0,0-.128-.134Z"/><path class="cls-21" d="M18.123,23.674a.151.151,0,1,1-.151-.156.154.154,0,0,1,.151.156Z"/><path class="cls-22" d="M17.972,23.853a.179.179,0,1,1,.173-.179.176.176,0,0,1-.173.179Zm0-.313a.134.134,0,1,0,.128.134.131.131,0,0,0-.128-.134Z"/><path class="cls-23" d="M18.783,25.036a.667.667,0,0,1-.2-.255L18,24.715l-.008.35.8-.029Z"/><path d="M17.964,25.089l.009-.375.319.011.294.033a.877.877,0,0,0,.212.261l-.834.07Zm.029-.352.016.305.773-.029a.387.387,0,0,1-.22-.224l-.569-.052Z"/><path class="cls-23" d="M14.473,24.622c.342.066.857-.033,1.026.2.2.239-.633.606-.514.813.259.285.524.168.813.01.068-.154.12-.429.158-.51-.1-.253-.388-.377-.316-.758a3.138,3.138,0,0,1,1.491-.1c.077.159.008.231.024.357-.08.159-.282.429-.283.572.5.184.632-.028,1.081-.016.527.007.848.155.962-.064-.078-.188-.561-.035-.745-.157a.624.624,0,0,1-.23-.194c-.079-.085-.3-.089-.335-.3.093-.447.71-.378.811-.447l1.609.116c.291-.009.456.538.063.7s-1.558-.244-2.062.037c-.026-.115-.389-.288-.416-.293a1.721,1.721,0,0,1-.455.03c-.074.143-.158.247-.232.39-.334-.153-.65.119-1.014.038,0,0-.553.066-.568.066s-.363-.033-.363-.033l-.553.165.395-.363-.347-.263Z"/><path d="M15.333,25.83a.482.482,0,0,1-.365-.182c-.068-.115.088-.251.253-.395.044-.038.089-.077.129-.115h-.009c-.016,0-.365-.032-.365-.032l-.544.164a.022.022,0,0,1-.027-.011.023.023,0,0,1,.005-.028l.395-.362-.345-.229a2.356,2.356,0,0,1,.394-.012c.267.008.544.016.663.178.077.092.018.2-.051.278l.411-.053c-.03-.04-.057-.074-.084-.108a.619.619,0,0,1-.175-.552,3.087,3.087,0,0,1,1.058-.167,1.291,1.291,0,0,1,.468.054.362.362,0,0,1,.039.254.48.48,0,0,0-.008.093.849.849,0,0,1,.105,0,1.259,1.259,0,0,0,.324-.033l.009,0a.278.278,0,0,1-.031-.092c.072-.354.443-.405.664-.436a.567.567,0,0,0,.157-.033l1.624.111h0a.335.335,0,0,1,.307.3.389.389,0,0,1-.237.451,2.191,2.191,0,0,1-.858-.007,2.621,2.621,0,0,0-1.173.028.791.791,0,0,0,.112.057.627.627,0,0,0,.315.052h.077c.174,0,.321.008.366.117a.263.263,0,0,1-.275.151,2.379,2.379,0,0,1-.263-.022,4.341,4.341,0,0,0-.445-.033h-.006a1.641,1.641,0,0,0-.4.049,1.113,1.113,0,0,1-.68-.035.417.417,0,0,1,.048-.21,1.085,1.085,0,0,0-.521.02,1.223,1.223,0,0,1-.436.046.212.212,0,0,1,.022.042c-.016.053-.035.123-.056.2a2.427,2.427,0,0,1-.1.324,1.038,1.038,0,0,1-.486.178Zm.561-.767-.479.068a1.4,1.4,0,0,1-.164.156c-.143.126-.292.255-.246.335.217.238.51.15.782,0,.028-.075.061-.2.089-.307a1.647,1.647,0,0,1,.059-.193.264.264,0,0,1-.041-.06Zm1.25-.378a.72.72,0,0,1-.07.133,1.091,1.091,0,0,0-.179.387,1.4,1.4,0,0,0,.639.011,1.611,1.611,0,0,1,.382-.05,4.487,4.487,0,0,1,.488.034c.271.031.429.034.491-.086-.035-.063-.174-.07-.325-.07l-.077-.022v.022a.648.648,0,0,1-.335-.056.38.38,0,0,1-.137-.093c-.012,0-.026-.026-.032-.034l-.032-.034a.75.75,0,0,0-.119-.091.68.68,0,0,1-.167-.093.459.459,0,0,0-.066-.029,1.6,1.6,0,0,1-.44.032l-.021.039Zm-2.675-.041.363.222-.318.332.457-.137h0c.017,0,.349.032.369.032l.068-.007c.1-.11.125-.189.072-.252-.107-.146-.372-.153-.628-.16a2.336,2.336,0,0,1-.384-.03Zm1.476.4a2.11,2.11,0,0,0,.436-.048.89.89,0,0,1,.545,0l.012-.025a.6.6,0,0,1,.082-.159c.038-.061.077-.121.113-.19a.338.338,0,0,1,.005-.109.324.324,0,0,0-.028-.219,1.639,1.639,0,0,0-.434-.037,3.215,3.215,0,0,0-1.027.147.608.608,0,0,0,.18.5,1.36,1.36,0,0,1,.1.144Zm2.607-.279a5.973,5.973,0,0,1,.692.057,2.184,2.184,0,0,0,.835.01.341.341,0,0,0,.21-.4.3.3,0,0,0-.257-.26l-1.618-.115a.417.417,0,0,1-.161.037c-.223.031-.56.077-.626.392a.225.225,0,0,0,.074.127,1.5,1.5,0,0,1,.161.09.323.323,0,0,1,.1.06.738.738,0,0,1,.069.076,1.7,1.7,0,0,1,.526-.074Z"/><path class="cls-23" d="M14.448,24.551a.152.152,0,1,1-.151-.159.155.155,0,0,1,.151.159Z"/><path d="M14.3,24.733a.182.182,0,1,1,.174-.182.178.178,0,0,1-.174.182Zm0-.318a.136.136,0,1,0,.129.136.134.134,0,0,0-.129-.136Z"/><path class="cls-23" d="M14.409,25.337a.153.153,0,1,1-.152-.159.155.155,0,0,1,.152.159Z"/><path d="M14.257,25.518a.182.182,0,1,1,.175-.181.178.178,0,0,1-.175.181Zm0-.317a.136.136,0,1,0,.13.136.134.134,0,0,0-.13-.136Z"/><path class="cls-23" d="M21.216,25.039a.668.668,0,0,0,.2-.255l.589-.067.008.351-.8-.029Z"/><path d="M22.036,25.092l-.821-.03a1.767,1.767,0,0,0,.18-.286L22,24.7l.034.4Zm-.054-.374-.563.088a.525.525,0,0,1-.185.248l.381-.023.374.014-.007-.327Z"/><path class="cls-23" d="M25.527,24.625c-.342.066-.857-.033-1.026.2-.2.24.633.607.513.814-.258.285-.523.168-.812.01-.068-.154-.12-.429-.158-.511.105-.252.388-.376.316-.757a3.128,3.128,0,0,0-1.492-.1c-.076.159-.007.23-.023.357.079.159.282.429.283.572-.5.184-.632-.028-1.081-.016-.527.007-.848.155-.962-.064.078-.189.561-.035.745-.157a.624.624,0,0,0,.23-.194c.079-.085.3-.089.335-.3-.093-.447-.71-.379-.811-.447l-1.61.115c-.29-.009-.455.539-.062.7s1.558-.244,2.062.037c.026-.115.389-.288.416-.294a1.693,1.693,0,0,0,.455.031c.074.143.158.247.232.39.333-.153.65.119,1.014.038,0,0,.552.066.568.066s.363-.033.363-.033l.552.165q-.2-.182-.394-.362l.347-.264Z"/><path d="M24.666,25.832a1.061,1.061,0,0,1-.475-.166,1.91,1.91,0,0,1-.112-.335,1.44,1.44,0,0,0-.056-.186.377.377,0,0,1,.022-.063,1.021,1.021,0,0,1-.437-.043.828.828,0,0,0-.511-.008.445.445,0,0,1,.054.177.941.941,0,0,1-.7.056,1.585,1.585,0,0,0-.371-.05,4.3,4.3,0,0,0-.482.035,2.617,2.617,0,0,1-.263.021.276.276,0,0,1-.275-.132c.045-.128.192-.136.366-.136h.076a.628.628,0,0,0,.312-.05.325.325,0,0,0,.114-.072,2.964,2.964,0,0,0-1.17-.015,2.2,2.2,0,0,1-.859.007.389.389,0,0,1-.237-.451.334.334,0,0,1,.3-.3l1.615-.115a.616.616,0,0,0,.172.038c.221.03.592.082.663.427a.274.274,0,0,1-.03.1,1.738,1.738,0,0,0,.439.03.742.742,0,0,0-.009-.089.369.369,0,0,1,.031-.245,1.161,1.161,0,0,1,.476-.063,3.352,3.352,0,0,1,1.044.15.6.6,0,0,1-.161.569c-.031.04-.062.079-.09.122l.42.037c-.076-.084-.129-.186-.053-.276.118-.162.395-.169.662-.176a2.586,2.586,0,0,0,.376-.029l-.327.3.394.329a.023.023,0,0,1,.005.028.022.022,0,0,1-.027.01l-.551-.164s-.341.034-.357.034h-.012l.131.115c.165.144.321.279.256.392a.483.483,0,0,1-.368.184Zm-.577-.757a.188.188,0,0,1-.024.069.691.691,0,0,1,.059.175,2.326,2.326,0,0,0,.1.317c.253.129.552.231.774-.015.043-.076-.105-.206-.249-.33-.062-.055-.125-.11-.177-.164l-.482-.052Zm-2.037.094a1.708,1.708,0,0,1,.414.05,1.051,1.051,0,0,0,.654-.033,2.015,2.015,0,0,0-.193-.362c-.039-.065-.076-.126-.1-.176a1.534,1.534,0,0,1-.442-.032s-.019.012-.06.032a.528.528,0,0,1-.14.081.691.691,0,0,0-.134.093l-.041.044c0,.007-.013.027-.019.029s-.019.016-.027.013a.3.3,0,0,1-.125.084.637.637,0,0,1-.332.055H21.43c-.151,0-.29.007-.324.09.06.088.218.1.49.066.129-.014.279-.031.45-.034Zm2.968-.106.466.138-.322-.3.349-.3a.741.741,0,0,1-.366.07c-.256.007-.521.014-.627.159-.054.064-.027.143.084.259.025,0,.051,0,.056,0s.36-.033.36-.033ZM23.3,24.944a1.434,1.434,0,0,1,.316.05,1.108,1.108,0,0,0,.462.038.619.619,0,0,1,.09-.135.574.574,0,0,0,.166-.515,3.614,3.614,0,0,0-1.013-.13,1.311,1.311,0,0,0-.442.045.337.337,0,0,0-.02.21.478.478,0,0,1,.007.122c.034.058.073.118.112.18s.079.123.117.2a.286.286,0,0,1,.205-.06Zm-3.328-.774a.3.3,0,0,0-.264.26.34.34,0,0,0,.21.4,2.184,2.184,0,0,0,.835-.01,2.627,2.627,0,0,1,1.2.033l.037-.04a.283.283,0,0,1,.024-.025.337.337,0,0,1,.119-.088,1.709,1.709,0,0,1,.166-.092.216.216,0,0,0,.068-.133c-.065-.3-.4-.352-.625-.383a.53.53,0,0,1-.176-.041l-1.6.119Z"/><path class="cls-23" d="M25.551,24.554A.152.152,0,1,0,25.7,24.4a.155.155,0,0,0-.152.159Z"/><path d="M25.7,24.735a.181.181,0,1,1,.175-.181.178.178,0,0,1-.175.181Zm0-.317a.136.136,0,1,0,.13.136.134.134,0,0,0-.13-.136Z"/><path class="cls-23" d="M25.591,25.34a.153.153,0,1,0,.152-.159.155.155,0,0,0-.152.159Z"/><path d="M25.743,25.521a.182.182,0,1,1,.175-.181.178.178,0,0,1-.175.181Zm0-.317a.136.136,0,1,0,.13.136.134.134,0,0,0-.13-.136Z"/><path class="cls-23" d="M19.99,24.175a2.205,2.205,0,0,0-.275-.029l-.216.692a5.845,5.845,0,0,0,.641.029c-.2-.043-.152-.689-.15-.692Z"/><polygon points="18.584 24.649 18.584 24.18 18.664 24.18 18.664 24.575 18.866 24.575 18.866 24.649 18.584 24.649"/><rect x="18.937" y="24.205" width="0.08" height="0.469"/><path d="M19.284,24.706h-.137v-.469c.061,0,.1,0,.127,0a.173.173,0,0,1,.11.031.106.106,0,0,1,.039.089.1.1,0,0,1-.056.088.122.122,0,0,1,.084.125.127.127,0,0,1-.046.1.19.19,0,0,1-.121.038Zm-.057-.4v.112h.039c.051,0,.077-.02.077-.061s-.023-.054-.07-.054l-.046,0Zm0,.177v.155l.039,0a.124.124,0,0,0,.078-.019.073.073,0,0,0,.024-.062.075.075,0,0,0-.022-.059.129.129,0,0,0-.079-.018Z"/><polygon points="19.639 24.342 19.639 24.452 19.787 24.452 19.787 24.523 19.639 24.523 19.639 24.664 19.842 24.664 19.842 24.737 19.559 24.737 19.559 24.268 19.846 24.268 19.846 24.342 19.639 24.342"/><path d="M20.212,24.744l-.119-.194-.051,0v.2h-.083v-.469l.052,0,.073,0q.171,0,.171.138a.129.129,0,0,1-.024.076.135.135,0,0,1-.06.049l.133.211Zm-.17-.4v.13l.034,0a.14.14,0,0,0,.073-.015.064.064,0,0,0,.023-.057.051.051,0,0,0-.025-.048.172.172,0,0,0-.078-.014l-.027,0Z"/><polygon points="20.536 24.336 20.536 24.731 20.456 24.731 20.456 24.336 20.313 24.336 20.313 24.262 20.685 24.262 20.685 24.336 20.536 24.336"/><path d="M20.984,24.668l-.033-.095H20.8l-.031.095h-.09l.18-.476h.034l.181.476Zm-.11-.332-.054.173h.108Z"/><path d="M21.137,24.623l.029-.075a.161.161,0,0,0,.094.035q.069,0,.069-.051a.074.074,0,0,0-.016-.046.2.2,0,0,0-.069-.049.34.34,0,0,1-.069-.045.107.107,0,0,1-.028-.041.151.151,0,0,1-.01-.053.121.121,0,0,1,.039-.09.138.138,0,0,1,.1-.036.182.182,0,0,1,.115.03l-.025.072a.145.145,0,0,0-.088-.032.058.058,0,0,0-.043.016.053.053,0,0,0-.015.039c0,.027.028.055.085.084a.3.3,0,0,1,.065.042.144.144,0,0,1,.031.046.148.148,0,0,1,.01.057.12.12,0,0,1-.043.094.174.174,0,0,1-.115.037.2.2,0,0,1-.114-.034Z"/><path class="cls-31" d="M16.923,23.777a4.2,4.2,0,0,1-.526-.028.044.044,0,0,1-.039-.05.042.042,0,0,1,.05-.038,7.236,7.236,0,0,0,1.177,0l.077,0a.043.043,0,0,1,.047.042.045.045,0,0,1-.042.047l-.077,0c-.165.009-.413.023-.667.023Zm.41-.986a.045.045,0,0,1-.044-.036,3.947,3.947,0,0,0-.216-.761,3.463,3.463,0,0,1-.127-.381.045.045,0,0,1,.032-.055.045.045,0,0,1,.054.032,3.3,3.3,0,0,0,.124.372,3.952,3.952,0,0,1,.221.777.043.043,0,0,1-.036.051Zm-.461-.082a3.176,3.176,0,0,1-1.136-.474.045.045,0,1,1,.057-.069,3.029,3.029,0,0,0,1.08.451c.021,0,.061.033.058.055l-.089-.012.044.007-.014.042Zm-.636-1.01a.05.05,0,0,1-.027-.008c-.122-.09-.214-.169-.3-.245a2.789,2.789,0,0,0-.761-.5.044.044,0,0,1-.021-.059.044.044,0,0,1,.059-.021,2.9,2.9,0,0,1,.781.509c.087.075.178.153.3.241a.044.044,0,0,1-.026.08Zm.217-.612h0a.045.045,0,0,1-.041-.048c.05-.751.151-.972.345-1.161a.045.045,0,0,1,.063,0,.044.044,0,0,1,0,.063c-.153.149-.266.315-.318,1.1a.046.046,0,0,1-.045.042Zm-.39-.2s-.715-.786-.932-1.039a.044.044,0,0,1,0-.063.045.045,0,0,1,.063,0c.217.253.93,1.038.93,1.038l-.066.059Zm.007-.8a.045.045,0,0,1-.045-.044c0-.008,0-.7-.249-.884a.044.044,0,1,1,.053-.071c.282.211.285.924.285.955a.044.044,0,0,1-.044.044Z"/></g></g></svg>