<?xml version="1.0" encoding="UTF-8"?><svg id="a" xmlns="http://www.w3.org/2000/svg" viewBox="0 0 40 40"><g><path d="M4.474,8.305c-.082,.034-.156,.081-.236,.121,.108-.054,.216-.106,.33-.15-.032,.009-.064,.017-.094,.029Z" fill="#2e2c7b"/><path d="M3.096,9.264c-.073,.078-.137,.163-.204,.247,.209-.26,.445-.494,.712-.695-.181,.137-.353,.283-.508,.448Z" fill="#2e2c7b"/><path d="M2.89,9.513c-.181,.226-.337,.472-.468,.733-.009,.018-.019,.034-.028,.052-.131,.269-.234,.554-.299,.855H6.156l-3.266-1.639Z" fill="#2e2c7b"/><polygon points="12.972 8 12.972 10.883 18.716 8 12.972 8" fill="#2e2c7b"/><polygon points="6.156 14.306 2 14.306 2 16.392 6.157 14.306 6.156 14.306" fill="#2e2c7b"/><path d="M30.125,18.806l-.056,.019c.016,.07,.04,.139,.055,.209,.008-.008,.013-.027,.023-.031,.023-.009,.055,.007,.086,.024-.009-.031-.023-.059-.031-.09-.428-1.395-.077-.132-.077-.132Z" fill="#2e2c7b"/><path d="M37.317,9.764c-.288-.426-.655-.793-1.08-1.081-.638-.431-1.408-.683-2.236-.683h-13.178v1.058l-4.174,2.094h4.174v3.153h-4.174l4.174,2.094v1.294h-1.636l-6.214-3.12v3.12h-3.14v-3.12l-6.215,3.12h-1.618v10.306c0,1.381,.7,2.598,1.764,3.317,.638,.431,1.408,.683,2.236,.683h28c.828,0,1.598-.252,2.236-.683,1.064-.719,1.764-1.936,1.764-3.317V12c0-.828-.252-1.598-.683-2.236Zm-10.629,17.234c-.095,.044-.239-.072-.383-.264l-.419,.209,.119-.763c-.116-.307-.136-.567-.02-.621,.13-.06,.351,.153,.539,.508l.46,.327-.267,.134c.067,.237,.067,.426-.029,.47Zm7.038-4.271c-.264,.179-.518,.287-.742,.349,.002,.144-.007,.316-.031,.511,.549,.115,.968,.315,.937,.48,0,.17-.514,.223-1.044,.138-.121,.559-.295,1.017-.448,1.211l.009,.002c.198,.132,.066,.582-.176,.999-.104,.148-.222,.261-.34,.354l.021,.316-.276-.168c-.107,.038-.206,.051-.273,.004-.061-.043-.084-.127-.091-.226l-.458-.28,.611-.282c.035-.067,.067-.134,.114-.201,.191-.272,.424-.458,.618-.52-.084-.216-.063-.758,.08-1.369-.308-.112-.544-.249-.544-.362,0-.128,.296-.19,.689-.172,.009-.028,.017-.054,.026-.081-.019-.041-.036-.071-.057-.131-.259-.758-.361-1.197-.977-1.436v2.259c0,1.614-2.482,3.294-2.482,3.294,0,0-.281-.19-.653-.502-.02-.018-.041-.034-.061-.052-.737-.63-1.779-1.715-1.779-2.817v-1.83c-.3,.367-.549,.774-.732,1.215,.015,.049,.03,.101,.044,.153,.356,.055,.633,.176,.633,.298,0,.094-.183,.175-.447,.228,.136,.763,.111,1.398-.069,1.43-.186,.033-.449-.579-.603-1.377-.528-.013-.946-.135-.946-.281,0-.136,.402-.283,.86-.316-.05-.524-.013-.911,.085-.936,.03-.008,.07,.023,.115,.079,.011-.048,.018-.097,.031-.145-.172-.01-.36-.037-.563-.099-.571-.176-.977-.516-.911-.747,.025-.087,.13-.136,.264-.166-.073-.031-.116-.076-.088-.142,.402-.646,1.062-1.09,1.812-1.219,.082-.022,.154-.069,.233-.098-.012,0-.023,0-.035,0-.592,.027-1.115-.336-1.331-.876-.073,.048-.154,.085-.247,.094-.308,.03-.582-.195-.612-.502-.03-.308,.195-.582,.502-.612,.017-.001,.035-.002,.052-.002v-1.127l-.286,.117c-.282,.072-.569-.098-.641-.381-.058-.228,.042-.467,.246-.586l1.021-.351c.24-.08,.502,.021,.626,.241,.012,.029,.01,.059,.016,.089,.036,.053,.061,.111,.061,.175v1.123l.121-.091c.237-.109,.517-.006,.626,.231,.177,.18,.177,.468,0,.648l-.782,.559c-.036,.074-.1,.134-.182,.18,.254,.372,1.354,.624,2.272-.444-.036-.042-.061-.091-.1-.131l-.45-.066c.358-.313,.741-.595,1.127-.874-.201-.076-.325-.173-.325-.279,0-.175,.329-.32,.801-.387l-.23-.019-.45-.319-.22-.527,.439-.329c.279,.175,.621,.215,.933,.11,.373-.154,1.098-.889,1.274-.78,.176,.11-.9,.736-.45,.834s.593-.274,.867-.417c.274-.143,.714-.154,.296,.132-.391,.403-.711,.866-.959,1.369,.301,.074,.498,.188,.498,.333,0,.096-.102,.184-.27,.257,.318,.77,1.085,2.082,1.818,2.082,.769,0,.867-.319,.867-.319-.005,.371-.299,.675-.67,.692-.331,.034-.665-.007-.977-.121,.309,.281,.689,.475,1.098,.56,.659,.176,1.768,.373,1.735,.999-.003,.063-.025,.104-.035,.16,.214-.033,.381-.008,.442,.093,.132,.209-.263,.681-.878,1.098Zm.944-5.71c-.118,.268-.667,.28-1.245,.015l.385,1.395c.28,.016,.503,.241,.509,.523-.006,.287-.24,.516-.527,.516-.114,0-.214-.044-.3-.107-.185,.038-.366-.025-.488-.156l-1.288-.834c-.206-.215-.198-.555,.016-.761,.148-.141,.363-.187,.555-.118l.226,.148-.182-.675c-.067-.236,.047-.473,.254-.586-.06-.108-.093-.212-.057-.303,.11-.274,.681-.274,1.274,0,.593,.275,1.01,.681,.867,.944Z" fill="#2e2c7b"/><path d="M32.464,20.991c-.396-.066-.764-.216-1.087-.429v.341c.362,.391,.895,.354,1.131,1.219,.034,.124,.061,.248,.082,.371,.16-.181,.385-.378,.665-.568,.144-.098,.287-.175,.424-.238-.172-.257-.589-.553-1.214-.696Z" fill="#2e2c7b"/><path d="M24.789,21.518c-.01,.015-.03,.029-.058,.04,.111,.02,.224,.043,.343,.081,.226,.073,.409,.167,.561,.267,.112-.224,.239-.441,.394-.64,.128-.108,.248-.226,.373-.337v-.16c-.008,.004-.014,.01-.022,.014-.554,.191-1.088,.438-1.592,.736Z" fill="#2e2c7b"/><polygon points="28.011 19.353 28.011 19.353 28.01 19.353 28.011 19.353" fill="#2e2c7b"/><path d="M9.833,8h-3.833c-.248,0-.49,.027-.724,.073-.228,.045-.449,.109-.663,.189h-.001l5.221,2.622v-2.883Z" fill="#2e2c7b"/></g><g><polygon points="6.157 14.306 2 16.392 2 16.504 6.379 14.306 6.157 14.306" fill="#e3e7ea"/><polygon points="20.822 16.753 20.822 16.4 16.648 14.306 15.947 14.306 20.822 16.753" fill="#e3e7ea"/><path d="M6.156,11.152h.702l-3.763-1.889c-.073,.078-.137,.163-.204,.247l-.002,.002,3.266,1.639Z" fill="#e3e7ea"/><polygon points="9.667 14.306 2.917 17.694 3.618 17.694 9.833 14.575 9.833 14.306 9.667 14.306" fill="#e3e7ea"/><path d="M9.833,10.995v-.112l-5.221-2.621c-.014,.005-.028,.009-.043,.013-.032,.009-.064,.017-.094,.029l5.359,2.69Z" fill="#e3e7ea"/><polygon points="16.648 11.152 20.822 9.058 20.822 8.946 16.426 11.152 16.648 11.152" fill="#e3e7ea"/><polygon points="12.972 14.575 19.186 17.694 19.409 17.694 12.972 14.463 12.972 14.575" fill="#e3e7ea"/><polygon points="12.972 11.152 13.138 11.152 19.418 8 18.716 8 12.972 10.883 12.972 11.152" fill="#e3e7ea"/><polygon points="12.972 14.306 12.972 14.463 19.409 17.694 19.889 17.694 13.138 14.306 12.972 14.306" fill="#e3e7ea"/><path d="M9.667,11.152h.165v-.157l-5.359-2.69c-.082,.034-.156,.081-.236,.121h-.002l5.431,2.727Z" fill="#e3e7ea"/><polygon points="16.426 11.152 20.822 8.946 20.822 8.705 15.947 11.152 16.426 11.152" fill="#e3e7ea"/><polygon points="6.379 14.306 2 16.504 2 16.744 6.859 14.306 6.379 14.306" fill="#e3e7ea"/><path d="M8.263,11.152h1.405l-5.431-2.726h0c-.223,.111-.433,.239-.63,.387h0l4.658,2.339Z" fill="#e3e7ea"/><polygon points="15.947 11.152 20.822 8.705 20.822 8 14.543 11.152 15.947 11.152" fill="#e3e7ea"/><polygon points="6.859 14.306 2 16.744 2 17.45 8.263 14.306 6.859 14.306" fill="#e3e7ea"/><polygon points="13.138 14.306 19.889 17.694 20.822 17.694 20.822 17.458 14.543 14.306 13.138 14.306" fill="#e3e7ea"/><polygon points="20.822 11.783 20.822 11.152 16.648 11.152 15.393 11.783 20.822 11.783" fill="#e3e7ea"/><polygon points="10.461 11.199 10.461 8 9.833 8 9.833 10.883 10.461 11.199" fill="#e3e7ea"/><polygon points="9.833 14.575 9.833 17.694 10.461 17.694 10.461 14.26 9.833 14.575" fill="#e3e7ea"/><polygon points="12.344 17.694 12.972 17.694 12.972 14.575 12.344 14.26 12.344 17.694" fill="#e3e7ea"/><path d="M7.412,11.783l-1.256-.631H2.094c-.044,.203-.06,.416-.072,.629H7.412Z" fill="#e3e7ea"/><polygon points="7.412 13.675 2 13.675 2 14.306 6.156 14.306 7.412 13.675" fill="#e3e7ea"/><polygon points="12.972 10.883 12.972 8 12.344 8 12.344 11.199 12.972 10.883" fill="#e3e7ea"/><polygon points="16.648 14.306 20.822 14.306 20.822 13.675 15.393 13.675 16.648 14.306" fill="#e3e7ea"/><polygon points="10.461 11.199 9.833 10.883 9.833 10.995 10.461 11.311 10.461 11.199" fill="#e3e7ea"/><polygon points="13.138 11.152 12.972 11.152 12.972 10.883 12.344 11.199 12.344 11.551 13.138 11.152" fill="#e3e7ea"/><polygon points="14.69 13.675 15.947 14.306 16.648 14.306 15.393 13.675 14.69 13.675" fill="#e3e7ea"/><polygon points="15.17 11.783 15.393 11.783 16.648 11.152 16.426 11.152 15.17 11.783" fill="#e3e7ea"/><polygon points="6.859 11.152 6.156 11.152 7.412 11.783 8.115 11.783 6.859 11.152" fill="#e3e7ea"/><polygon points="7.412 13.675 6.157 14.306 6.379 14.306 7.634 13.675 7.412 13.675" fill="#e3e7ea"/><polygon points="6.156 14.306 6.157 14.306 7.412 13.675 6.156 14.306" fill="#e3e7ea"/><polygon points="10.461 13.907 9.667 14.306 9.833 14.306 9.833 14.575 10.461 14.26 10.461 13.907" fill="#e3e7ea"/><polygon points="12.344 14.147 12.344 14.26 12.972 14.575 12.972 14.463 12.344 14.147" fill="#e3e7ea"/><polygon points="14.543 14.306 15.947 14.306 14.69 13.675 13.286 13.675 14.543 14.306" fill="#e3e7ea"/><polygon points="9.519 11.783 8.263 11.152 6.859 11.152 8.115 11.783 9.519 11.783" fill="#e3e7ea"/><polygon points="10.461 13.675 9.519 13.675 8.263 14.306 9.667 14.306 10.461 13.907 10.461 13.675" fill="#e3e7ea"/><polygon points="12.344 11.783 13.286 11.783 14.543 11.152 13.138 11.152 12.344 11.551 12.344 11.783" fill="#e3e7ea"/><polygon points="10.461 11.311 9.833 10.995 9.833 11.152 9.667 11.152 10.461 11.551 10.461 11.311" fill="#e3e7ea"/><polygon points="7.635 13.675 7.634 13.675 6.379 14.306 6.859 14.306 8.115 13.675 7.635 13.675" fill="#e3e7ea"/><polygon points="12.344 14.147 12.972 14.463 12.972 14.306 13.138 14.306 12.344 13.907 12.344 14.147" fill="#e3e7ea"/><polygon points="15.17 11.783 16.426 11.152 15.947 11.152 14.69 11.783 15.17 11.783" fill="#e3e7ea"/><polygon points="12.344 13.675 12.344 13.907 13.138 14.306 14.543 14.306 13.286 13.675 12.344 13.675" fill="#e3e7ea"/><polygon points="10.461 11.783 10.461 11.551 9.667 11.152 8.263 11.152 9.519 11.783 10.461 11.783" fill="#e3e7ea"/><polygon points="8.115 13.675 6.859 14.306 8.263 14.306 9.519 13.675 8.115 13.675" fill="#e3e7ea"/><polygon points="14.69 11.783 15.947 11.152 14.543 11.152 13.286 11.783 14.69 11.783" fill="#e3e7ea"/></g><g><polygon points="9.667 14.306 8.263 14.306 2 17.45 2 17.694 2.917 17.694 9.667 14.306" fill="#d00032"/><polygon points="14.543 14.306 20.822 17.458 20.822 16.753 15.947 14.306 14.543 14.306" fill="#d00032"/><path d="M6.859,11.152h1.404l-4.658-2.338h-.001c-.181,.138-.353,.285-.508,.45l3.763,1.889Z" fill="#d00032"/><polygon points="14.543 11.152 20.822 8 19.418 8 13.138 11.152 14.543 11.152" fill="#d00032"/><path d="M20.82,11.78v1.9H12.34v4.01h-1.88v-4.01H2v-1.68c0-.07,.02-.14,.02-.22H10.46v-3.78h1.88v3.78h8.48Z" fill="#d00032"/></g><g><path d="M30.104,19.686c-.228-.118-.5,.313-.891,.614-.024,.016-.05,.028-.074,.044h1.229c-.083-.125-.164-.283-.221-.472-.019-.065-.03-.124-.043-.186Z" fill="#dc2e44"/><path d="M30.702,19.934c.031,.157,.042,.297,.035,.41h.354c-.143-.123-.272-.26-.388-.41Z" fill="#dc2e44"/></g><g><path d="M30.099,16.892c.248-.503,.568-.967,.959-1.369,.417-.285-.022-.274-.296-.132-.275,.143-.417,.516-.867,.417s.626-.725,.45-.834c-.176-.11-.9,.626-1.274,.78-.312,.105-.654,.065-.933-.11l-.439,.329,.22,.527,.45,.319,.23,.019c.181-.026,.38-.041,.593-.041,.346,0,.661,.035,.907,.095Z" fill="#d2d3d4"/><path d="M28.01,19.353h0c.023-.025,.049-.048,.072-.074,.123,.29,.131,.616,.022,.911-.032,.053-.072,.101-.105,.154h1.14c.024-.016,.051-.028,.074-.044,.391-.301,.662-.732,.891-.614-.07-.321-.059-.576,.02-.651-.015-.071-.039-.139-.055-.209-.198,.065-.888,.263-.888-.151,0-.483,.648-.198,.516-.736-.026-.107-.06-.205-.095-.296-.13,.012-.266,.021-.41,.021-.436,0-.815-.063-1.069-.16-.386,.278-.768,.561-1.127,.874l.45,.066c.038,.04,.064,.089,.1,.131,.16,.186,.288,.392,.392,.613,.047,.047,.076,.1,.073,.165Z" fill="#d2d3d4"/></g><path d="M31.256,20.739v.011c.037,.06,.078,.108,.121,.154v-.56h-4.974v3.7c0,1.102,1.042,2.186,1.779,2.817-.634-.554-1.167-1.216-1.57-1.96l.055-.095-.066-.158,2.427-4.293,2.196,4.227-.176,.428-.954-1.768,.965,1.91c-.565,.89-1.305,1.656-2.174,2.251-.224-.151-.437-.317-.642-.491,.371,.312,.653,.502,.653,.502,0,0,2.482-1.68,2.482-3.294v-2.259c-.062-.024-.124-.049-.198-.069-.802-.22,.077-1.054,.077-1.054Z" fill="#4e8ecb"/><g><path d="M25.546,19.707c0-.132,.329-.241,.725-.241,.293,0,.542,.061,.652,.145,.059-.051,.128-.088,.182-.145,.483-.373,.373-.637,.604-.461,.091,.069,.17,.125,.228,.184-.104-.221-.233-.427-.392-.613-.918,1.068-2.018,.816-2.272,.444,.082-.046,.147-.106,.182-.18l.782-.559c.177-.179,.177-.468,0-.648-.109-.236-.389-.339-.626-.231l-.121,.091v-1.123c0-.064-.025-.122-.061-.175-.088-.13-.264-.221-.467-.221-.25-.026-.477,.147-.516,.396v1.823c-.017,0-.035,0-.052,.002-.308,.031-.533,.305-.502,.612,.03,.308,.304,.533,.612,.502,.093-.009,.174-.046,.247-.094,.216,.541,.739,.903,1.331,.876,.013,.001,.023,0,.035,0,.128-.048,.257-.092,.376-.159-.071,.008-.145,.016-.224,.016-.395,0-.725-.11-.725-.242Z" fill="#039a67"/><path d="M33.803,16.072c-.593-.274-1.164-.274-1.274,0-.036,.091-.004,.196,.057,.303,.121,.217,.404,.45,.8,.641,.014,.007,.026,.009,.04,.015,.578,.266,1.127,.254,1.245-.015,.143-.263-.275-.67-.867-.944Z" fill="#039a67"/><path d="M32.954,23.586c.024-.195,.033-.366,.031-.511-.128,.036-.239,.051-.335,.048,.003,.424-.092,.627-.239,.304-.009,.027-.017,.053-.026,.081-.393-.018-.689,.044-.689,.172,0,.113,.236,.25,.544,.362-.144,.611-.164,1.153-.08,1.369,.092-.029,.176-.037,.241,.002,.153-.194,.327-.652,.448-1.211,.53,.085,1.044,.032,1.044-.138,.031-.165-.388-.365-.937-.48Z" fill="#039a67"/><path d="M25.635,21.906c-.152-.1-.335-.195-.561-.267-.119-.038-.232-.061-.343-.081-.129,.052-.417,.056-.568-.008-.134,.03-.239,.079-.264,.166-.066,.23,.34,.571,.911,.747,.204,.063,.391,.089,.563,.099-.013,.047-.02,.097-.031,.145,.098,.123,.221,.383,.328,.722,.182-.441,.432-.848,.732-1.215v-1.285c-.126,.111-.245,.229-.373,.337-.155,.199-.282,.416-.394,.64Z" fill="#039a67"/><path d="M27.083,20.344h.916c.033-.053,.074-.1,.105-.154,.109-.296,.101-.621-.022-.911-.023,.026-.049,.049-.072,.075h0c-.003,.06-.026,.129-.093,.221-.243,.294-.529,.544-.835,.769Z" fill="#039a67"/><path d="M32.464,20.376c-.409-.085-.789-.279-1.098-.56,.312,.114,.647,.155,.977,.121,.371-.017,.664-.321,.67-.692,0,0-.099,.319-.867,.319-.733,0-1.501-1.312-1.818-2.082,.168-.073,.27-.161,.27-.257,0-.145-.197-.259-.498-.333-.246-.061-.562-.095-.907-.095-.213,0-.413,.015-.593,.041-.472,.067-.801,.212-.801,.387,0,.106,.125,.203,.325,.279,.254,.097,.634,.16,1.069,.16,.144,0,.28-.009,.41-.021,.035,.091,.069,.188,.095,.296,.132,.538-.516,.253-.516,.736,0,.414,.69,.216,.888,.151l.056-.019s-.351-1.263,.077,.132c.008,.031,.022,.06,.031,.09,.131,.07,.313,.335,.419,.689,.023,.075,.036,.145,.05,.216,.116,.15,.245,.287,.388,.41h.287v.219c.323,.213,.691,.363,1.087,.429,.626,.143,1.042,.438,1.214,.696,.18-.082,.341-.13,.485-.152,.011-.055,.032-.096,.035-.16,.033-.626-1.076-.823-1.735-.999Z" fill="#039a67"/><path d="M28.961,21.145l-2.196,3.898-.099-.237-.055,.095c.403,.744,.937,1.406,1.57,1.96,.02,.018,.041,.034,.061,.052,.204,.175,.417,.34,.642,.491,.87-.595,1.609-1.361,2.174-2.251l-.965-1.91-1.132-2.097Zm1.164,5.018l-.242-.066-.988,.823-1.032-.878h-.198l-.044-.867,.604,.626-.099,.132,.681,.461s-.088-.132-.088-.274v-1.812h-.516c-.109,0-.198-.089-.198-.198,0-.103,.083-.187,.186-.187h.527v-.373c0-.154,0-.275,.088-.275h.165s.088,.121,.088,.275v.373h.659c.105,0,.192,.082,.198,.187,0,.109-.089,.198-.198,.198h-.659v1.812c0,.058-.003,.109-.009,.156l.701-.342-.209-.121,.681-.516-.099,.867Z" fill="#039a67"/></g><g><path d="M33.005,19.201c.122,.131,.303,.194,.488,.156,.085,.063,.185,.107,.3,.107,.287,0,.521-.229,.527-.516-.006-.282-.229-.508-.509-.523l-.385-1.395c-.014-.006-.026-.008-.04-.015-.396-.191-.678-.424-.8-.641-.207,.113-.322,.35-.254,.586l.182,.675-.226-.148c-.192-.069-.407-.024-.555,.118-.215,.206-.222,.546-.016,.761l1.288,.834Z" fill="#f9e923"/><path d="M24.448,17.064v-.696c.039-.248,.266-.422,.516-.396,.203,0,.379,.091,.467,.221-.006-.03-.005-.06-.016-.089-.124-.22-.386-.321-.626-.241l-1.021,.351c-.204,.118-.304,.357-.246,.586,.072,.282,.359,.452,.641,.381l.286-.117Z" fill="#f9e923"/><path d="M25.901,24.107c.264-.052,.447-.134,.447-.228,0-.122-.277-.242-.633-.298-.015-.052-.029-.104-.044-.153-.107-.339-.23-.599-.328-.722-.045-.056-.085-.087-.115-.079-.098,.024-.135,.411-.085,.936-.458,.033-.86,.18-.86,.316,0,.145,.417,.267,.946,.281,.154,.799,.416,1.41,.603,1.377,.18-.032,.205-.667,.069-1.43Z" fill="#f9e923"/><path d="M30.147,19.871c.057,.189,.138,.347,.221,.472h.368c.008-.113-.004-.252-.035-.41-.014-.071-.027-.142-.05-.216-.106-.354-.288-.619-.419-.689-.031-.017-.063-.033-.086-.024-.01,.004-.014,.022-.023,.031-.079,.075-.089,.33-.02,.651,.013,.062,.023,.121,.043,.186Z" fill="#f9e923"/><path d="M34.605,21.628c-.06-.101-.227-.126-.442-.093-.144,.022-.306,.07-.485,.152-.137,.063-.28,.14-.424,.238-.28,.19-.505,.387-.665,.568-.021-.122-.048-.247-.082-.371-.236-.865-.769-.827-1.131-1.219-.042-.046-.084-.094-.121-.154v-.011s-.878,.834-.077,1.054c.074,.02,.135,.044,.198,.069,.616,.239,.718,.678,.977,1.436,.02,.06,.038,.089,.057,.131,.147,.323,.242,.12,.239-.304,.096,.003,.207-.012,.335-.048,.223-.062,.478-.17,.742-.349,.615-.417,1.01-.889,.878-1.098Z" fill="#f9e923"/><path d="M24.731,21.558c.028-.011,.048-.024,.058-.04,.505-.298,1.038-.545,1.592-.736,.008-.004,.014-.01,.022-.014v-.426h.681c.306-.224,.592-.475,.835-.769,.067-.092,.089-.161,.093-.221h0c.003-.066-.026-.118-.073-.166-.059-.059-.138-.115-.228-.184-.231-.176-.121,.088-.604,.461-.054,.057-.124,.094-.182,.145-.11-.085-.359-.145-.652-.145-.395,0-.725,.11-.725,.241s.329,.242,.725,.242c.08,0,.153-.007,.224-.016-.118,.067-.248,.111-.376,.159-.079,.03-.151,.076-.233,.098-.75,.129-1.409,.573-1.812,1.219-.028,.066,.015,.111,.088,.142,.151,.063,.439,.06,.568,.008Z" fill="#f9e923"/><path d="M32.4,25.415c-.064-.039-.149-.031-.241-.002-.194,.062-.426,.248-.618,.52-.047,.066-.078,.134-.114,.201l-.611,.282,.458,.28c.007,.098,.03,.183,.091,.226,.067,.048,.166,.034,.273-.004l.276,.168-.021-.316c.118-.092,.236-.206,.34-.354,.242-.417,.373-.867,.176-.999l-.009-.002Z" fill="#f9e923"/><path d="M26.525,26.067c-.188-.354-.409-.568-.539-.508-.116,.054-.096,.313,.02,.621l-.119,.763,.419-.209c.144,.193,.288,.308,.383,.264,.096-.044,.096-.234,.029-.47l.267-.134-.46-.327Z" fill="#f9e923"/><polygon points="26.666 24.806 26.765 25.043 28.961 21.145 30.093 23.242 31.047 25.01 31.223 24.582 29.027 20.354 26.6 24.648 26.666 24.806" fill="#f9e923"/><path d="M29.752,25.932l-.701,.342c.006-.046,.009-.097,.009-.156v-1.812h.659c.109,0,.198-.089,.198-.198-.006-.105-.093-.187-.198-.187h-.659v-.373c0-.154-.088-.275-.088-.275h-.165c-.088,0-.088,.121-.088,.275v.373h-.527c-.103,0-.187,.083-.186,.187,0,.109,.089,.198,.198,.198h.516v1.812c0,.143,.088,.274,.088,.274l-.681-.461,.099-.132-.604-.626,.044,.867h.198l1.032,.878,.988-.823,.242,.066,.099-.867-.681,.516,.209,.121Z" fill="#f9e923"/></g></svg>