<?xml version="1.0" encoding="UTF-8"?><svg id="Layer_1" xmlns="http://www.w3.org/2000/svg" viewBox="0 0 40 40"><g><path d="m28.5,3.5H11.5C7.082,3.5,3.5,7.082,3.5,11.5v17c0,4.418,3.582,8,8,8h17c4.418,0,8-3.582,8-8V11.5c0-4.418-3.582-8-8-8Zm4.4,25c0,2.426-1.974,4.4-4.4,4.4H11.5c-2.426,0-4.4-1.974-4.4-4.4V11.5c0-2.426,1.974-4.4,4.4-4.4h17c2.426,0,4.4,1.974,4.4,4.4v17Z" fill="#afb7c0"/><path d="m19.773,19.144v3.096h4.944c-.192,2.664-1.824,3.888-4.465,3.888-2.688,0-5.088-1.512-5.088-6.048,0-4.561,2.4-6.097,5.088-6.097,2.232,0,3.816,1.104,4.272,3.312h4.057c-.769-4.225-3.889-6.553-8.329-6.553-4.776,0-9.049,3.12-9.049,9.337,0,6.168,4.272,9.289,9.049,9.289,5.473,0,8.833-3.48,8.497-10.225h-8.977Z" fill="#afb7c0"/></g><rect width="40" height="40" fill="none"/></svg>