<?xml version="1.0" encoding="UTF-8"?><svg id="Layer_1" xmlns="http://www.w3.org/2000/svg" viewBox="0 0 40 40"><rect x="2" y="8" width="36" height="24" rx="4" ry="4" fill="#e3e7ea"/><path d="m12.302,14l10.303,6h15.395v-8.005c0-2.206-1.788-3.995-3.995-3.995H5.995c-.941,0-1.795.339-2.477.884l8.785,5.116Z" fill="#70aee0"/><path d="m38,28.004v-8.004h-15.395l-10.303,6-8.785,5.116c.683.545,1.537.884,2.478.884h28.009c2.207,0,3.995-1.789,3.995-3.996Z" fill="#00b136"/><polygon points="8.868 17.6 9.402 19.259 11.131 19.259 9.732 20.284 10.267 21.942 8.868 20.917 7.47 21.942 8.004 20.284 6.605 19.259 8.334 19.259 8.868 17.6" fill="#ff0010"/></svg>