<svg id="Layer_1" data-name="Layer 1" xmlns="http://www.w3.org/2000/svg" xmlns:xlink="http://www.w3.org/1999/xlink" viewBox="0 0 40 40"><defs><style>.cls-1,.cls-8{fill:none;}.cls-2{clip-path:url(#clip-path);}.cls-3,.cls-9{fill:#31745a;}.cls-4{fill:#be1f39;}.cls-10,.cls-5{fill:#e18529;}.cls-13,.cls-14,.cls-16,.cls-17,.cls-5,.cls-7,.cls-9{fill-rule:evenodd;}.cls-6{clip-path:url(#clip-path-2);}.cls-15,.cls-7{fill:#c03f29;}.cls-8{stroke:#292c2f;stroke-linecap:square;stroke-miterlimit:10;stroke-width:0;}.cls-11,.cls-16{fill:#cf3d27;}.cls-12{fill:#ad3c2c;}.cls-13{fill:#e5e8eb;}.cls-14{fill:#aa3b2d;}.cls-17{fill:#fafdff;}</style><clipPath id="clip-path"><rect class="cls-1" x="0.909" y="8.981" width="38.182" height="22.037" rx="4"/></clipPath><clipPath id="clip-path-2"><rect class="cls-1" x="0.909" y="8.981" width="38.182" height="22.037"/></clipPath></defs><g class="cls-2"><rect class="cls-3" x="0.909" y="8.981" width="38.182" height="22.037"/><rect class="cls-4" x="4.918" y="8.981" width="6.014" height="22.037"/><polygon class="cls-5" points="4.918 15.135 4.918 14.964 5.177 14.539 5.112 14.453 5.263 14.219 5.22 14.134 5.112 14.304 5.069 14.219 5.414 13.623 5.478 13.708 5.414 13.793 5.521 13.964 5.78 13.538 5.521 13.134 5.414 13.283 5.478 13.368 5.414 13.453 5.069 12.856 5.112 12.772 5.22 12.941 5.263 12.856 5.112 12.622 5.177 12.537 4.918 12.111 4.918 11.941 5.263 12.537 5.22 12.622 5.371 12.856 5.263 13.027 5.371 13.197 5.521 12.941 5.867 13.538 5.521 14.134 5.371 13.879 5.263 14.049 5.371 14.219 5.22 14.453 5.263 14.539 4.918 15.135"/><polygon class="cls-5" points="4.918 13.027 4.983 13.197 4.983 13.453 5.133 13.453 5.22 13.538 5.133 13.623 4.983 13.623 4.983 13.879 4.918 14.049 4.918 13.027"/><polygon class="cls-5" points="4.918 19.18 4.918 19.01 5.177 18.584 5.112 18.499 5.263 18.243 5.22 18.158 5.112 18.329 5.069 18.243 5.414 17.668 5.478 17.754 5.414 17.839 5.521 18.009 5.78 17.583 5.521 17.179 5.414 17.328 5.478 17.413 5.414 17.498 5.069 16.902 5.112 16.816 5.22 16.987 5.263 16.902 5.112 16.646 5.177 16.561 4.918 16.156 4.918 15.986 5.263 16.561 5.22 16.646 5.371 16.902 5.263 17.072 5.371 17.243 5.521 16.987 5.867 17.583 5.521 18.158 5.371 17.924 5.263 18.094 5.371 18.243 5.22 18.499 5.263 18.584 4.918 19.18"/><polygon class="cls-5" points="4.918 17.072 4.983 17.243 4.983 17.498 5.133 17.498 5.22 17.583 5.133 17.668 4.983 17.668 4.983 17.924 4.918 18.094 4.918 17.072"/><polygon class="cls-5" points="4.918 23.226 4.918 23.055 5.177 22.63 5.112 22.544 5.263 22.289 5.22 22.203 5.112 22.374 5.069 22.289 5.414 21.714 5.478 21.778 5.414 21.863 5.521 22.033 5.78 21.629 5.521 21.203 5.414 21.373 5.478 21.458 5.414 21.543 5.069 20.947 5.112 20.862 5.22 21.033 5.263 20.947 5.112 20.692 5.177 20.607 4.918 20.181 4.918 20.011 5.263 20.607 5.22 20.692 5.371 20.947 5.263 21.118 5.371 21.288 5.521 21.033 5.867 21.629 5.521 22.203 5.371 21.948 5.263 22.118 5.371 22.289 5.22 22.544 5.263 22.63 4.918 23.226"/><polygon class="cls-5" points="4.918 21.118 4.983 21.288 4.983 21.543 5.133 21.543 5.22 21.629 5.133 21.714 4.983 21.714 4.983 21.948 4.918 22.118 4.918 21.118"/><polygon class="cls-5" points="4.918 27.016 4.918 26.845 5.177 26.419 5.112 26.334 5.263 26.079 5.22 25.994 5.112 26.164 5.069 26.079 5.414 25.483 5.478 25.568 5.414 25.653 5.521 25.823 5.78 25.398 5.521 24.993 5.414 25.163 5.478 25.249 5.414 25.334 5.069 24.738 5.112 24.653 5.22 24.823 5.263 24.738 5.112 24.482 5.177 24.397 4.918 23.971 4.918 23.801 5.263 24.397 5.22 24.482 5.371 24.738 5.263 24.908 5.371 25.078 5.521 24.823 5.867 25.419 5.521 25.994 5.371 25.738 5.263 25.909 5.371 26.079 5.22 26.334 5.263 26.419 4.918 27.016"/><polygon class="cls-5" points="4.918 24.908 4.983 25.078 4.983 25.334 5.133 25.334 5.22 25.398 5.133 25.483 4.983 25.483 4.983 25.738 4.918 25.909 4.918 24.908"/><polygon class="cls-5" points="10.932 15.135 10.932 14.964 10.673 14.539 10.738 14.453 10.587 14.219 10.63 14.134 10.738 14.304 10.781 14.219 10.436 13.623 10.372 13.708 10.436 13.793 10.328 13.964 10.091 13.538 10.328 13.134 10.436 13.283 10.372 13.368 10.436 13.453 10.781 12.856 10.738 12.772 10.63 12.941 10.587 12.856 10.738 12.622 10.673 12.537 10.932 12.111 10.932 11.941 10.587 12.537 10.63 12.622 10.479 12.856 10.587 13.027 10.479 13.197 10.328 12.941 9.983 13.538 10.328 14.134 10.479 13.879 10.587 14.049 10.479 14.219 10.63 14.453 10.587 14.539 10.932 15.135"/><polygon class="cls-5" points="10.932 13.027 10.889 13.197 10.889 13.453 10.738 13.453 10.63 13.538 10.738 13.623 10.889 13.623 10.889 13.879 10.932 14.049 10.932 13.027"/><polygon class="cls-5" points="10.932 19.18 10.932 19.01 10.673 18.584 10.738 18.499 10.587 18.243 10.63 18.158 10.738 18.329 10.781 18.243 10.436 17.668 10.372 17.754 10.436 17.839 10.328 18.009 10.091 17.583 10.328 17.179 10.436 17.328 10.372 17.413 10.436 17.498 10.781 16.902 10.738 16.816 10.63 16.987 10.587 16.902 10.738 16.646 10.673 16.561 10.932 16.156 10.932 15.986 10.587 16.561 10.63 16.646 10.479 16.902 10.587 17.072 10.479 17.243 10.328 16.987 9.983 17.583 10.328 18.158 10.479 17.924 10.587 18.094 10.479 18.243 10.63 18.499 10.587 18.584 10.932 19.18"/><polygon class="cls-5" points="10.932 17.072 10.889 17.243 10.889 17.498 10.738 17.498 10.63 17.583 10.738 17.668 10.889 17.668 10.889 17.924 10.932 18.094 10.932 17.072"/><polygon class="cls-5" points="10.932 23.226 10.932 23.055 10.673 22.63 10.738 22.544 10.587 22.289 10.63 22.203 10.738 22.374 10.781 22.289 10.436 21.714 10.372 21.778 10.436 21.863 10.328 22.033 10.091 21.629 10.328 21.203 10.436 21.373 10.372 21.458 10.436 21.543 10.781 20.947 10.738 20.862 10.63 21.033 10.587 20.947 10.738 20.692 10.673 20.607 10.932 20.181 10.932 20.011 10.587 20.607 10.63 20.692 10.479 20.947 10.587 21.118 10.479 21.288 10.328 21.033 9.983 21.629 10.328 22.203 10.479 21.948 10.587 22.118 10.479 22.289 10.63 22.544 10.587 22.63 10.932 23.226"/><polygon class="cls-5" points="10.932 21.118 10.889 21.288 10.889 21.543 10.738 21.543 10.63 21.629 10.738 21.714 10.889 21.714 10.889 21.948 10.932 22.118 10.932 21.118"/><polygon class="cls-5" points="10.932 27.016 10.932 26.845 10.673 26.419 10.738 26.334 10.587 26.079 10.63 25.994 10.738 26.164 10.781 26.079 10.436 25.483 10.372 25.568 10.436 25.653 10.328 25.823 10.091 25.398 10.328 24.993 10.436 25.163 10.372 25.249 10.436 25.334 10.781 24.738 10.738 24.653 10.63 24.823 10.587 24.738 10.738 24.482 10.673 24.397 10.932 23.971 10.932 23.801 10.587 24.397 10.63 24.482 10.479 24.738 10.587 24.908 10.479 25.078 10.328 24.823 9.983 25.419 10.328 25.994 10.479 25.738 10.587 25.909 10.479 26.079 10.63 26.334 10.587 26.419 10.932 27.016"/><polygon class="cls-5" points="10.932 24.908 10.889 25.078 10.889 25.334 10.738 25.334 10.63 25.398 10.738 25.483 10.889 25.483 10.889 25.738 10.932 25.909 10.932 24.908"/><polygon class="cls-5" points="4.918 10.599 4.918 10.429 5.177 10.003 5.112 9.918 5.263 9.663 5.22 9.577 5.112 9.748 5.069 9.663 5.414 9.066 5.478 9.152 5.414 9.237 5.521 9.407 5.78 8.981 5.867 8.981 5.521 9.577 5.371 9.322 5.263 9.492 5.371 9.663 5.22 9.918 5.263 10.003 4.918 10.599"/><polygon class="cls-5" points="4.918 8.981 5.22 8.981 5.133 9.066 4.983 9.066 4.983 9.322 4.918 9.492 4.918 8.981"/><polygon class="cls-5" points="10.932 10.599 10.932 10.429 10.673 10.003 10.738 9.918 10.587 9.663 10.63 9.577 10.738 9.748 10.781 9.663 10.436 9.066 10.372 9.152 10.436 9.237 10.328 9.407 10.091 8.981 9.983 8.981 10.328 9.577 10.479 9.322 10.587 9.492 10.479 9.663 10.63 9.918 10.587 10.003 10.932 10.599"/><polygon class="cls-5" points="10.932 8.981 10.63 8.981 10.738 9.066 10.889 9.066 10.889 9.322 10.932 9.492 10.932 8.981"/><g class="cls-6"><path class="cls-5" d="M7.418,30.827A1.223,1.223,0,0,1,8.2,30.4c.538-.085.624.235.947.235a2.528,2.528,0,0,0,.8-.235,1.656,1.656,0,0,1-.884.405c-.366,0-.495-.213-.883-.17a3.213,3.213,0,0,0-.755.191Z"/><path class="cls-5" d="M8.474,30.827A1.2,1.2,0,0,0,7.72,30.4c-.539-.085-.647.235-.948.235a2.342,2.342,0,0,1-.8-.235,1.564,1.564,0,0,0,.863.405c.387,0,.516-.213.905-.17a2.87,2.87,0,0,1,.732.191Z"/><path class="cls-5" d="M6.707,30.3c-.065-.085-.173-.468-.108-.511.087-.021.345.362.324.7-.173.063-.733-.043-.733-.128.043-.149.366-.107.517-.064Z"/><path class="cls-5" d="M6.362,29.976c-.043-.107-.086-.511-.022-.533.108,0,.281.426.194.767-.172.021-.711-.213-.668-.32.065-.127.367,0,.5.086Z"/><path class="cls-5" d="M6.082,29.592c-.022-.085-.022-.49.043-.511.108,0,.237.469.108.767-.173.021-.69-.3-.647-.383.086-.128.367.042.5.127Z"/><path class="cls-5" d="M5.867,29.209c-.022-.106.043-.511.107-.511.108.021.173.511,0,.788-.172-.021-.625-.405-.582-.49.086-.107.366.107.475.213Z"/><path class="cls-5" d="M5.715,28.8c0-.106.087-.489.173-.489.086.042.108.511-.086.788-.195-.065-.582-.533-.539-.6.108-.085.344.171.452.3Z"/><path class="cls-5" d="M5.758,28.336c-.021.4-.107.4-.258.106-.086-.106-.086-.6-.022-.6.086-.021.28.32.28.49Z"/><path class="cls-5" d="M9.186,30.337c.043-.085.151-.468.086-.51-.086-.022-.345.361-.323.7.172.064.733-.042.733-.128-.044-.149-.367-.106-.5-.064Z"/><path class="cls-5" d="M9.509,30.018c.043-.106.086-.511.022-.532-.108,0-.281.426-.194.766.172.022.711-.213.689-.319-.064-.128-.366,0-.517.085Z"/><path class="cls-5" d="M9.789,29.635c.022-.085.043-.49-.043-.511-.086,0-.237.468-.108.766.173.022.69-.3.647-.383-.086-.127-.366.043-.5.128Z"/><path class="cls-5" d="M10.005,29.252c.021-.107-.022-.512-.108-.512-.086.022-.172.512,0,.789.172-.022.625-.405.582-.491-.086-.106-.345.107-.474.214Z"/><path class="cls-5" d="M10.155,28.847c0-.107-.086-.49-.172-.49-.086.043-.107.511.108.788.173-.042.56-.532.517-.6-.107-.085-.344.17-.453.3Z"/><path class="cls-5" d="M10.134,28.379c0,.4.086.4.238.106.086-.106.086-.6.021-.6-.086-.022-.259.319-.259.49Z"/><polygon class="cls-7" points="10.005 24.142 9.703 24.142 9.703 24.397 9.423 24.397 9.423 24.653 8.259 24.653 8.065 24.908 8.173 25.036 8.647 25.036 8.755 24.908 8.259 24.908 8.366 24.78 9.035 24.78 8.755 25.163 8.065 25.163 7.871 25.036 7.677 25.163 7.009 25.163 6.729 24.78 7.397 24.78 7.483 24.908 7.009 24.908 7.116 25.036 7.591 25.036 7.677 24.908 7.483 24.653 6.427 24.653 6.427 24.397 6.146 24.397 6.146 24.142 5.867 24.142 5.867 22.97 6.146 22.97 6.146 22.715 6.427 22.715 6.427 22.459 7.483 22.459 7.677 22.203 7.591 22.076 7.116 22.076 7.009 22.203 7.483 22.203 7.397 22.332 6.729 22.332 7.009 21.948 7.677 21.948 7.871 22.076 8.065 21.948 8.755 21.948 9.035 22.332 8.366 22.332 8.259 22.203 8.755 22.203 8.647 22.076 8.173 22.076 8.065 22.203 8.259 22.459 9.423 22.459 9.423 22.715 9.703 22.715 9.703 22.97 10.005 22.97 10.005 24.142"/><polygon class="cls-8" points="10.005 24.142 9.703 24.142 9.703 24.397 9.423 24.397 9.423 24.653 8.259 24.653 8.065 24.908 8.173 25.036 8.647 25.036 8.755 24.908 8.259 24.908 8.366 24.78 9.035 24.78 8.755 25.163 8.065 25.163 7.871 25.036 7.677 25.163 7.009 25.163 6.729 24.78 7.397 24.78 7.483 24.908 7.009 24.908 7.116 25.036 7.591 25.036 7.677 24.908 7.483 24.653 6.427 24.653 6.427 24.397 6.146 24.397 6.146 24.142 5.867 24.142 5.867 22.97 6.146 22.97 6.146 22.715 6.427 22.715 6.427 22.459 7.483 22.459 7.677 22.203 7.591 22.076 7.116 22.076 7.009 22.203 7.483 22.203 7.397 22.332 6.729 22.332 7.009 21.948 7.677 21.948 7.871 22.076 8.065 21.948 8.755 21.948 9.035 22.332 8.366 22.332 8.259 22.203 8.755 22.203 8.647 22.076 8.173 22.076 8.065 22.203 8.259 22.459 9.423 22.459 9.423 22.715 9.703 22.715 9.703 22.97 10.005 22.97 10.005 24.142"/><polygon class="cls-9" points="5.953 23.119 5.953 24.014 6.233 24.014 6.233 24.269 6.534 24.269 6.534 24.525 7.483 24.525 7.871 24.908 8.259 24.525 9.315 24.525 9.315 24.269 9.617 24.269 9.617 24.014 9.897 24.014 9.897 23.098 9.617 23.098 9.617 22.843 9.315 22.864 9.315 22.587 8.259 22.587 7.871 22.203 7.483 22.587 6.534 22.587 6.534 22.864 6.233 22.864 6.233 23.119 5.953 23.119"/><path class="cls-10" d="M6.017,24.014H5.888v-.895h.129Zm-.064.064H5.888v-.064h.065Zm0-.128h.28v.128h-.28Zm.28,0H6.3v.064H6.233Zm.064.319H6.168v-.255H6.3Zm-.064.064H6.168v-.064h.065Zm0-.128h.3v.128h-.3Zm.3,0H6.6v.064H6.534Zm.065.32H6.47v-.256H6.6Zm-.065.064H6.47v-.064h.064Zm0-.128h.949v.128H6.534Zm.949,0h.065l-.065.064Zm.065,0,.366.383-.086.107-.388-.384Zm.366.49-.043.042-.043-.042.043-.043Zm-.086-.107.388-.383.086.106-.388.384Zm.388-.383h.043v.064Zm.043,0H9.315v.128H8.259Zm1.121.128H9.315v-.064H9.38Zm-.13-.32h.13v.256H9.25Zm0-.064h.065v.064H9.25Zm.065,0h.3v.128h-.3Zm.367.128H9.617v-.064h.065Zm-.13-.319h.13v.255h-.13Zm0-.064h.065v.064H9.552Zm.065,0H9.9v.128h-.28Zm.345.128H9.9v-.064h.065Zm-.13-.98h.13v.916h-.13Zm.065-.064h.065V23.1H9.9Zm0,.128h-.28v-.128H9.9Zm-.28,0H9.552V23.1h.065Zm-.065-.319h.13V23.1h-.13Zm.065-.064h.065v.064H9.617Zm0,.127-.3.022V22.8l.3-.021Zm-.3.022H9.25v-.064h.065Zm-.065-.341h.13v.277H9.25Zm.065-.064H9.38v.064H9.315Zm0,.128H8.259v-.128H9.315Zm-1.056,0H8.216l.043-.064Zm-.043,0-.388-.384.086-.106.388.383Zm-.388-.49.043-.043.043.043-.043.042Zm.086.106-.366.384-.108-.107.388-.383Zm-.366.384H7.483v-.064Zm-.065,0H6.534v-.128h.949ZM6.47,22.523h.064v.064H6.47Zm.129.341H6.47v-.277H6.6Zm0,.064H6.534v-.064H6.6Zm-.065,0h-.3V22.8h.3ZM6.168,22.8h.065v.064H6.168Zm.129.319H6.168v-.255H6.3Zm0,.064H6.233v-.064H6.3Zm-.064,0h-.28v-.128h.28Zm-.345-.128h.065v.064H5.888Z"/><polygon class="cls-7" points="7.31 22.715 6.729 23.353 6.729 22.715 7.31 22.715"/><polygon class="cls-7" points="8.453 22.715 9.035 23.353 9.035 22.715 8.453 22.715"/><polygon class="cls-7" points="7.31 24.397 6.729 23.758 6.729 24.397 7.31 24.397"/><polygon class="cls-7" points="8.453 24.397 9.035 23.758 9.035 24.397 8.453 24.397"/><polygon class="cls-7" points="8.647 23.098 8.453 23.353 8.841 23.353 8.647 23.098"/><polygon class="cls-7" points="7.116 23.098 6.923 23.353 7.31 23.353 7.116 23.098"/><polygon class="cls-7" points="7.116 24.014 6.923 23.758 7.31 23.758 7.116 24.014"/><polygon class="cls-7" points="8.647 24.014 8.453 23.758 8.841 23.758 8.647 24.014"/><polygon class="cls-5" points="7.871 24.653 7.677 24.397 8.065 24.397 7.871 24.653"/><polygon class="cls-5" points="7.871 23.353 7.677 23.098 8.065 23.098 7.871 23.353"/><polygon class="cls-5" points="7.871 22.459 7.677 22.715 8.065 22.715 7.871 22.459"/><polygon class="cls-5" points="7.871 23.758 7.677 24.014 8.065 24.014 7.871 23.758"/><rect class="cls-10" x="8.453" y="23.353" width="0.388" height="0.128"/><rect class="cls-8" x="8.453" y="23.353" width="0.388" height="0.128"/><rect class="cls-11" x="7.009" y="23.482" width="0.194" height="0.149"/><rect class="cls-8" x="7.009" y="23.482" width="0.194" height="0.149"/><rect class="cls-11" x="8.561" y="23.482" width="0.194" height="0.149"/><rect class="cls-8" x="8.561" y="23.482" width="0.194" height="0.149"/><rect class="cls-12" x="7.677" y="22.715" width="0.388" height="0.128"/><rect class="cls-8" x="7.677" y="22.715" width="0.388" height="0.128"/><rect class="cls-12" x="7.677" y="22.97" width="0.388" height="0.128"/><rect class="cls-8" x="7.677" y="22.97" width="0.388" height="0.128"/><rect class="cls-12" x="7.591" y="22.843" width="0.582" height="0.128"/><rect class="cls-8" x="7.591" y="22.843" width="0.582" height="0.128"/><rect class="cls-12" x="7.677" y="24.014" width="0.388" height="0.128"/><rect class="cls-8" x="7.677" y="24.014" width="0.388" height="0.128"/><rect class="cls-12" x="7.677" y="24.269" width="0.388" height="0.128"/><rect class="cls-8" x="7.677" y="24.269" width="0.388" height="0.128"/><rect class="cls-12" x="7.591" y="24.142" width="0.582" height="0.128"/><rect class="cls-8" x="7.591" y="24.142" width="0.582" height="0.128"/><rect class="cls-10" x="8.453" y="23.631" width="0.388" height="0.127"/><rect class="cls-8" x="8.453" y="23.631" width="0.388" height="0.127"/><rect class="cls-10" x="6.923" y="23.353" width="0.388" height="0.128"/><rect class="cls-8" x="6.923" y="23.353" width="0.388" height="0.128"/><rect class="cls-10" x="6.923" y="23.631" width="0.388" height="0.127"/><rect class="cls-8" x="6.923" y="23.631" width="0.388" height="0.127"/><rect class="cls-10" x="6.815" y="23.482" width="0.194" height="0.149"/><rect class="cls-8" x="6.815" y="23.482" width="0.194" height="0.149"/><rect class="cls-10" x="7.203" y="23.482" width="0.194" height="0.149"/><rect class="cls-8" x="7.203" y="23.482" width="0.194" height="0.149"/><rect class="cls-10" x="8.366" y="23.482" width="0.194" height="0.149"/><rect class="cls-8" x="8.366" y="23.482" width="0.194" height="0.149"/><rect class="cls-10" x="8.755" y="23.482" width="0.173" height="0.149"/><rect class="cls-8" x="8.755" y="23.482" width="0.173" height="0.149"/><path class="cls-13" d="M7.656,24.205a.022.022,0,0,1-.022.022l-.022-.022a.072.072,0,0,1,.022-.042c.022,0,.022.021.022.042Z"/><path class="cls-13" d="M7.914,24.205a.073.073,0,0,1-.043.022l-.022-.022a.072.072,0,0,1,.022-.042.045.045,0,0,1,.043.042Z"/><path class="cls-13" d="M8.151,24.184a.077.077,0,0,1-.022.043.047.047,0,0,1-.043-.043.078.078,0,0,1,.043-.021Z"/><path class="cls-13" d="M7.763,24.078l-.021.021a.021.021,0,0,1-.022-.021c0-.022,0-.043.022-.043a.074.074,0,0,1,.021.043Z"/><path class="cls-13" d="M8.043,24.056c0,.022,0,.043-.021.043S8,24.078,8,24.056a.021.021,0,0,1,.022-.021.021.021,0,0,1,.021.021Z"/><path class="cls-13" d="M7.763,24.312a.073.073,0,0,1-.021.042c-.022,0-.022-.021-.022-.042a.021.021,0,0,1,.022-.021Z"/><path class="cls-13" d="M8.043,24.333c0,.021,0,.021-.021.021S8,24.354,8,24.333s0-.042.022-.042.021.021.021.042Z"/><path class="cls-13" d="M8.432,23.545a.077.077,0,0,1-.022.043c-.022,0-.022-.022-.022-.043s0-.021.022-.021a.021.021,0,0,1,.022.021Z"/><path class="cls-13" d="M8.669,23.545c0,.021,0,.043-.022.043s-.022-.022-.022-.043,0-.021.022-.021.022,0,.022.021Z"/><path class="cls-13" d="M8.906,23.545c0,.021,0,.043-.022.043s-.022-.022-.022-.043,0-.021.022-.021.022,0,.022.021Z"/><path class="cls-13" d="M8.518,23.417c0,.022,0,.043-.022.043a.073.073,0,0,1-.022-.043A.021.021,0,0,1,8.5,23.4c.022,0,.022,0,.022.021Z"/><path class="cls-13" d="M8.819,23.417a.074.074,0,0,1-.021.043.045.045,0,0,1-.043-.043c0-.021.021-.021.043-.021a.021.021,0,0,1,.021.021Z"/><path class="cls-13" d="M8.518,23.673c0,.021,0,.043-.022.043a.077.077,0,0,1-.022-.043.021.021,0,0,1,.022-.021c.022,0,.022,0,.022.021Z"/><path class="cls-13" d="M8.819,23.673a.078.078,0,0,1-.021.043.046.046,0,0,1-.043-.043.074.074,0,0,1,.043-.021Z"/><path class="cls-13" d="M7.656,22.906c0,.022,0,.043-.022.043a.073.073,0,0,1-.022-.043l.022-.021a.021.021,0,0,1,.022.021Z"/><path class="cls-13" d="M7.893,22.906c0,.022,0,.043-.022.043a.073.073,0,0,1-.022-.043l.022-.021a.021.021,0,0,1,.022.021Z"/><path class="cls-13" d="M8.151,22.906a.046.046,0,0,1-.043.043.073.073,0,0,1-.022-.043.021.021,0,0,1,.022-.021c.021,0,.043,0,.043.021Z"/><path class="cls-13" d="M7.763,22.779a.073.073,0,0,1-.021.042c-.022,0-.022-.021-.022-.042a.022.022,0,0,1,.022-.022Z"/><path class="cls-13" d="M8.043,22.779c0,.021,0,.042-.021.042S8,22.8,8,22.779s0-.022.022-.022.021,0,.021.022Z"/><path class="cls-13" d="M7.763,23.034a.078.078,0,0,1-.021.043.046.046,0,0,1-.043-.043c0-.021.021-.021.043-.021a.021.021,0,0,1,.021.021Z"/><path class="cls-13" d="M8.043,23.055a.021.021,0,0,1-.021.022A.022.022,0,0,1,8,23.055c0-.021,0-.042.022-.042s.021.021.021.042Z"/><path class="cls-13" d="M6.9,23.566a.021.021,0,0,1-.021.022c-.022,0-.043,0-.043-.022a.045.045,0,0,1,.043-.042.073.073,0,0,1,.021.042Z"/><path class="cls-13" d="M7.138,23.566a.022.022,0,0,1-.022.022c-.021,0-.021,0-.021-.022s0-.042.021-.042a.072.072,0,0,1,.022.042Z"/><path class="cls-13" d="M7.375,23.566l-.022.022a.021.021,0,0,1-.021-.022c0-.021,0-.042.021-.042a.072.072,0,0,1,.022.042Z"/><path class="cls-13" d="M6.987,23.439c0,.021,0,.021-.021.021s-.022,0-.022-.021,0-.043.022-.043.021.021.021.043Z"/><path class="cls-13" d="M7.267,23.439a.021.021,0,0,1-.021.021l-.022-.021a.073.073,0,0,1,.022-.043c.021,0,.021.021.021.043Z"/><path class="cls-13" d="M6.987,23.694a.021.021,0,0,1-.021.022.022.022,0,0,1-.022-.022c0-.021,0-.042.022-.042s.021.021.021.042Z"/><path class="cls-13" d="M7.267,23.694c0,.022,0,.022-.021.022a.022.022,0,0,1-.022-.022.072.072,0,0,1,.022-.042c.021,0,.021.021.021.042Z"/><polygon class="cls-13" points="8.259 20.756 8.432 20.671 8.582 20.756 8.259 20.756"/><polygon class="cls-13" points="7.763 20.756 7.936 20.671 8.086 20.756 7.763 20.756"/><polygon class="cls-13" points="7.267 20.756 7.44 20.671 7.591 20.756 7.267 20.756"/><polygon class="cls-13" points="8.259 18.52 8.432 18.606 8.582 18.52 8.259 18.52"/><polygon class="cls-13" points="7.763 18.52 7.936 18.606 8.086 18.52 7.763 18.52"/><polygon class="cls-13" points="7.267 18.52 7.44 18.606 7.591 18.52 7.267 18.52"/><polygon class="cls-9" points="8.129 20.713 7.936 20.883 7.742 20.713 7.548 20.883 7.353 20.713 7.353 20.798 7.483 20.883 7.418 20.947 7.418 21.033 7.483 21.033 7.548 20.947 7.612 21.033 7.677 21.033 7.677 20.947 7.612 20.883 7.742 20.798 7.871 20.883 7.806 20.947 7.806 21.033 7.871 21.033 7.936 20.947 8 21.033 8.065 21.033 8.065 20.947 8 20.883 8.129 20.798 8.259 20.883 8.195 20.947 8.195 21.033 8.259 21.033 8.302 20.947 8.366 21.033 8.432 21.033 8.432 20.947 8.366 20.883 8.496 20.798 8.496 20.713 8.302 20.883 8.129 20.713"/><polygon class="cls-9" points="8.129 18.499 7.936 18.35 7.742 18.499 7.548 18.35 7.353 18.499 7.353 18.435 7.483 18.35 7.418 18.286 7.418 18.201 7.483 18.201 7.548 18.286 7.612 18.201 7.677 18.201 7.677 18.286 7.612 18.35 7.742 18.435 7.871 18.35 7.806 18.286 7.806 18.201 7.871 18.201 7.936 18.286 8 18.201 8.065 18.201 8.065 18.286 8 18.35 8.129 18.435 8.259 18.35 8.195 18.286 8.195 18.201 8.259 18.201 8.302 18.286 8.366 18.201 8.432 18.201 8.432 18.286 8.366 18.35 8.496 18.435 8.496 18.499 8.302 18.35 8.129 18.499"/><polygon class="cls-9" points="9.574 19.776 9.789 19.606 9.574 19.457 9.789 19.287 9.574 19.117 9.682 19.117 9.789 19.223 9.897 19.18 10.005 19.18 10.005 19.223 9.897 19.287 10.005 19.329 10.005 19.393 9.897 19.393 9.789 19.329 9.682 19.457 9.789 19.564 9.897 19.5 10.005 19.5 10.005 19.564 9.897 19.606 10.005 19.67 10.005 19.734 9.897 19.734 9.789 19.67 9.682 19.776 9.789 19.883 9.897 19.84 10.005 19.84 10.005 19.883 9.897 19.947 10.005 20.011 10.005 20.053 9.897 20.053 9.789 20.011 9.682 20.117 9.574 20.117 9.789 19.947 9.574 19.776"/><polygon class="cls-9" points="6.276 19.776 6.06 19.606 6.276 19.457 6.06 19.287 6.276 19.117 6.168 19.117 6.06 19.223 5.953 19.18 5.867 19.18 5.867 19.223 5.953 19.287 5.867 19.329 5.867 19.393 5.953 19.393 6.06 19.329 6.168 19.457 6.06 19.564 5.953 19.5 5.867 19.5 5.867 19.564 5.953 19.606 5.867 19.67 5.867 19.734 5.953 19.734 6.06 19.67 6.168 19.776 6.06 19.883 5.953 19.84 5.867 19.84 5.867 19.883 5.953 19.947 5.867 20.011 5.867 20.053 5.953 20.053 6.06 20.011 6.168 20.117 6.276 20.117 6.06 19.947 6.276 19.776"/><rect class="cls-3" x="9.66" y="20.33" width="0.086" height="0.085"/><rect class="cls-8" x="9.66" y="20.33" width="0.086" height="0.085"/><rect class="cls-3" x="9.574" y="20.415" width="0.086" height="0.085"/><rect class="cls-8" x="9.574" y="20.415" width="0.086" height="0.085"/><rect class="cls-3" x="9.164" y="20.798" width="0.087" height="0.085"/><rect class="cls-8" x="9.164" y="20.798" width="0.087" height="0.085"/><rect class="cls-3" x="9.25" y="20.713" width="0.086" height="0.085"/><rect class="cls-8" x="9.25" y="20.713" width="0.086" height="0.085"/><rect class="cls-3" x="6.513" y="20.713" width="0.086" height="0.085"/><rect class="cls-8" x="6.513" y="20.713" width="0.086" height="0.085"/><rect class="cls-3" x="6.103" y="20.33" width="0.087" height="0.085"/><rect class="cls-8" x="6.103" y="20.33" width="0.087" height="0.085"/><rect class="cls-3" x="6.19" y="20.415" width="0.086" height="0.085"/><rect class="cls-8" x="6.19" y="20.415" width="0.086" height="0.085"/><rect class="cls-3" x="6.19" y="18.733" width="0.086" height="0.085"/><rect class="cls-8" x="6.19" y="18.733" width="0.086" height="0.085"/><rect class="cls-3" x="6.103" y="18.819" width="0.087" height="0.064"/><rect class="cls-8" x="6.103" y="18.819" width="0.087" height="0.064"/><rect class="cls-3" x="6.599" y="18.35" width="0.087" height="0.085"/><rect class="cls-8" x="6.599" y="18.35" width="0.087" height="0.085"/><rect class="cls-3" x="6.513" y="18.435" width="0.086" height="0.064"/><rect class="cls-8" x="6.513" y="18.435" width="0.086" height="0.064"/><rect class="cls-3" x="9.164" y="18.35" width="0.087" height="0.085"/><rect class="cls-8" x="9.164" y="18.35" width="0.087" height="0.085"/><rect class="cls-3" x="9.25" y="18.435" width="0.086" height="0.064"/><rect class="cls-8" x="9.25" y="18.435" width="0.086" height="0.064"/><rect class="cls-3" x="9.574" y="18.733" width="0.086" height="0.085"/><rect class="cls-8" x="9.574" y="18.733" width="0.086" height="0.085"/><rect class="cls-3" x="9.66" y="18.819" width="0.086" height="0.064"/><rect class="cls-8" x="9.66" y="18.819" width="0.086" height="0.064"/><rect class="cls-3" x="6.599" y="20.798" width="0.087" height="0.085"/><rect class="cls-8" x="6.599" y="20.798" width="0.087" height="0.085"/><path class="cls-13" d="M7.677,19.606H7.44v-.149h.151v-.128h.172V19.2h.151v.149a.243.243,0,0,0-.237.255Z"/><path class="cls-5" d="M8.151,19.606H8.41v-.149H8.237v-.128H8.086V19.2H7.914v.149a.243.243,0,0,1,.237.255Z"/><path class="cls-13" d="M8.151,19.606H8.41v.149H8.237V19.9H8.086v.128H7.914v-.149a.263.263,0,0,0,.237-.277Z"/><path class="cls-5" d="M7.677,19.606H7.44v.149h.151V19.9h.172v.128h.151v-.149a.263.263,0,0,1-.237-.277Z"/><path class="cls-9" d="M8.151,19.606H7.914v-.255a.256.256,0,0,1,.237.255Z"/><path class="cls-7" d="M8.151,19.606H7.914v.277a.263.263,0,0,0,.237-.277Z"/><path class="cls-9" d="M7.677,19.606h.237v.277a.263.263,0,0,1-.237-.277Z"/><path class="cls-7" d="M7.677,19.606h.237v-.255a.256.256,0,0,0-.237.255Z"/><polygon class="cls-9" points="8.173 20.564 7.936 20.415 7.677 20.564 7.44 20.415 7.181 20.564 7.181 20.5 7.353 20.415 7.267 20.33 7.267 20.266 7.353 20.266 7.44 20.33 7.504 20.266 7.591 20.266 7.591 20.33 7.504 20.415 7.677 20.5 7.849 20.415 7.763 20.33 7.763 20.266 7.849 20.266 7.936 20.33 8 20.266 8.086 20.266 8.086 20.33 8 20.415 8.173 20.5 8.345 20.415 8.259 20.33 8.259 20.266 8.345 20.266 8.432 20.33 8.496 20.266 8.582 20.266 8.582 20.33 8.496 20.415 8.668 20.5 8.668 20.564 8.432 20.415 8.173 20.564"/><polygon class="cls-9" points="8.173 18.669 7.936 18.819 7.677 18.669 7.44 18.819 7.181 18.669 7.181 18.733 7.353 18.819 7.267 18.882 7.267 18.968 7.353 18.968 7.44 18.882 7.504 18.968 7.591 18.968 7.591 18.882 7.504 18.819 7.677 18.733 7.849 18.819 7.763 18.882 7.763 18.968 7.849 18.968 7.936 18.882 8 18.968 8.086 18.968 8.086 18.882 8 18.819 8.173 18.733 8.345 18.819 8.259 18.882 8.259 18.968 8.345 18.968 8.432 18.882 8.496 18.968 8.582 18.968 8.582 18.882 8.496 18.819 8.668 18.733 8.668 18.669 8.432 18.819 8.173 18.669"/><polygon class="cls-9" points="9.078 19.798 8.97 19.606 9.078 19.415 8.97 19.223 9.078 19.053 9.013 19.053 8.97 19.18 8.906 19.117 8.841 19.117 8.841 19.18 8.906 19.223 8.841 19.287 8.841 19.351 8.906 19.351 8.97 19.287 9.013 19.415 8.97 19.542 8.906 19.478 8.841 19.478 8.841 19.542 8.906 19.606 8.841 19.67 8.841 19.734 8.906 19.734 8.97 19.67 9.013 19.798 8.97 19.926 8.906 19.862 8.841 19.862 8.841 19.926 8.906 19.989 8.841 20.053 8.841 20.117 8.906 20.117 8.97 20.053 9.013 20.181 9.078 20.181 8.97 19.989 9.078 19.798"/><path class="cls-9" d="M7.181,18.733l-.323.32v1.128l.323.319H8.669l.323-.319V19.053l-.323-.32ZM7.1,18.5l-.819.767v.7l.819.745h1.66l.819-.745v-.7L8.755,18.5Z"/><path class="cls-8" d="M7.181,18.733l-.323.32v1.128l.323.319H8.669l.323-.319V19.053l-.323-.32ZM7.1,18.5l-.819.767v.7l.819.745h1.66l.819-.745v-.7L8.755,18.5Z"/><polygon class="cls-5" points="7.526 20.564 7.656 20.713 7.785 20.564 7.526 20.564"/><polygon class="cls-8" points="7.526 20.564 7.656 20.713 7.785 20.564 7.526 20.564"/><polygon class="cls-5" points="7.526 18.669 7.656 18.499 7.785 18.669 7.526 18.669"/><polygon class="cls-8" points="7.526 18.669 7.656 18.499 7.785 18.669 7.526 18.669"/><polygon class="cls-5" points="8.065 18.669 8.195 18.499 8.323 18.669 8.065 18.669"/><polygon class="cls-8" points="8.065 18.669 8.195 18.499 8.323 18.669 8.065 18.669"/><polygon class="cls-5" points="8.065 20.564 8.195 20.713 8.323 20.564 8.065 20.564"/><polygon class="cls-8" points="8.065 20.564 8.195 20.713 8.323 20.564 8.065 20.564"/><polygon class="cls-7" points="7.267 18.669 7.397 18.499 7.526 18.669 7.267 18.669"/><polygon class="cls-8" points="7.267 18.669 7.397 18.499 7.526 18.669 7.267 18.669"/><polygon class="cls-7" points="7.785 18.669 7.936 18.499 8.065 18.669 7.785 18.669"/><polygon class="cls-8" points="7.785 18.669 7.936 18.499 8.065 18.669 7.785 18.669"/><polygon class="cls-7" points="8.323 18.669 8.453 18.499 8.582 18.669 8.323 18.669"/><polygon class="cls-8" points="8.323 18.669 8.453 18.499 8.582 18.669 8.323 18.669"/><polygon class="cls-7" points="6.944 20.33 7.181 20.564 6.944 20.564 6.944 20.33"/><polygon class="cls-8" points="6.944 20.33 7.181 20.564 6.944 20.564 6.944 20.33"/><polygon class="cls-9" points="6.772 19.798 6.901 19.606 6.772 19.415 6.901 19.223 6.772 19.053 6.837 19.053 6.901 19.18 6.944 19.117 7.009 19.117 7.009 19.18 6.944 19.223 7.009 19.287 7.009 19.351 6.944 19.351 6.901 19.287 6.837 19.415 6.901 19.542 6.944 19.478 7.009 19.478 7.009 19.542 6.944 19.606 7.009 19.67 7.009 19.734 6.944 19.734 6.901 19.67 6.837 19.798 6.901 19.926 6.944 19.862 7.009 19.862 7.009 19.926 6.944 19.989 7.009 20.053 7.009 20.117 6.944 20.117 6.901 20.053 6.837 20.181 6.772 20.181 6.901 19.989 6.772 19.798"/><polygon class="cls-7" points="9.164 19.415 9.509 19.415 9.574 19.478 9.509 19.542 9.164 19.542 9.164 19.415"/><polygon class="cls-8" points="9.164 19.415 9.509 19.415 9.574 19.478 9.509 19.542 9.164 19.542 9.164 19.415"/><polygon class="cls-7" points="6.944 18.882 6.772 19.053 6.772 20.181 6.944 20.33 6.686 20.33 6.686 18.882 6.944 18.882"/><polygon class="cls-8" points="6.944 18.882 6.772 19.053 6.772 20.181 6.944 20.33 6.686 20.33 6.686 18.882 6.944 18.882"/><polygon class="cls-7" points="7.267 20.564 7.397 20.713 7.526 20.564 7.267 20.564"/><polygon class="cls-8" points="7.267 20.564 7.397 20.713 7.526 20.564 7.267 20.564"/><polygon class="cls-7" points="7.785 20.564 7.936 20.713 8.065 20.564 7.785 20.564"/><polygon class="cls-8" points="7.785 20.564 7.936 20.713 8.065 20.564 7.785 20.564"/><polygon class="cls-7" points="8.323 20.564 8.453 20.713 8.582 20.564 8.323 20.564"/><polygon class="cls-8" points="8.323 20.564 8.453 20.713 8.582 20.564 8.323 20.564"/><polygon class="cls-7" points="8.927 18.882 9.078 19.053 9.078 20.181 8.927 20.33 9.164 20.33 9.164 18.882 8.927 18.882"/><polygon class="cls-8" points="8.927 18.882 9.078 19.053 9.078 20.181 8.927 20.33 9.164 20.33 9.164 18.882 8.927 18.882"/><polygon class="cls-7" points="8.927 20.33 8.668 20.564 8.927 20.564 8.927 20.33"/><polygon class="cls-8" points="8.927 20.33 8.668 20.564 8.927 20.564 8.927 20.33"/><polygon class="cls-7" points="8.927 18.882 8.668 18.669 8.927 18.669 8.927 18.882"/><polygon class="cls-8" points="8.927 18.882 8.668 18.669 8.927 18.669 8.927 18.882"/><polygon class="cls-7" points="6.944 18.882 7.181 18.669 6.944 18.669 6.944 18.882"/><polygon class="cls-8" points="6.944 18.882 7.181 18.669 6.944 18.669 6.944 18.882"/><path class="cls-9" d="M7.181,18.733l-.323.32v1.128l.323.319H8.669l.323-.319V19.053l-.323-.32Zm0-.064-.409.384v1.128l.409.383H8.669l.409-.383V19.053l-.409-.384Z"/><path class="cls-8" d="M7.181,18.733l-.323.32v1.128l.323.319H8.669l.323-.319V19.053l-.323-.32Zm0-.064-.409.384v1.128l.409.383H8.669l.409-.383V19.053l-.409-.384Z"/><polygon class="cls-5" points="9.164 19.542 9.509 19.542 9.574 19.606 9.509 19.691 9.164 19.691 9.164 19.542"/><polygon class="cls-8" points="9.164 19.542 9.509 19.542 9.574 19.606 9.509 19.691 9.164 19.691 9.164 19.542"/><polygon class="cls-7" points="9.164 19.691 9.509 19.691 9.574 19.755 9.509 19.819 9.164 19.819 9.164 19.691"/><polygon class="cls-8" points="9.164 19.691 9.509 19.691 9.574 19.755 9.509 19.819 9.164 19.819 9.164 19.691"/><polygon class="cls-5" points="9.164 19.819 9.509 19.819 9.574 19.883 9.509 19.968 9.164 19.968 9.164 19.819"/><polygon class="cls-8" points="9.164 19.819 9.509 19.819 9.574 19.883 9.509 19.968 9.164 19.968 9.164 19.819"/><polygon class="cls-5" points="9.164 19.266 9.509 19.266 9.574 19.351 9.509 19.415 9.164 19.415 9.164 19.266"/><polygon class="cls-8" points="9.164 19.266 9.509 19.266 9.574 19.351 9.509 19.415 9.164 19.415 9.164 19.266"/><polygon class="cls-7" points="6.686 19.415 6.362 19.415 6.276 19.478 6.362 19.542 6.686 19.542 6.686 19.415"/><polygon class="cls-8" points="6.686 19.415 6.362 19.415 6.276 19.478 6.362 19.542 6.686 19.542 6.686 19.415"/><polygon class="cls-5" points="6.686 19.542 6.362 19.542 6.276 19.606 6.362 19.691 6.686 19.691 6.686 19.542"/><polygon class="cls-8" points="6.686 19.542 6.362 19.542 6.276 19.606 6.362 19.691 6.686 19.691 6.686 19.542"/><polygon class="cls-7" points="6.686 19.691 6.362 19.691 6.276 19.755 6.362 19.819 6.686 19.819 6.686 19.691"/><polygon class="cls-8" points="6.686 19.691 6.362 19.691 6.276 19.755 6.362 19.819 6.686 19.819 6.686 19.691"/><polygon class="cls-5" points="6.686 19.819 6.362 19.819 6.276 19.883 6.362 19.968 6.686 19.968 6.686 19.819"/><polygon class="cls-8" points="6.686 19.819 6.362 19.819 6.276 19.883 6.362 19.968 6.686 19.968 6.686 19.819"/><polygon class="cls-5" points="6.686 19.266 6.362 19.266 6.276 19.351 6.362 19.415 6.686 19.415 6.686 19.266"/><polygon class="cls-8" points="6.686 19.266 6.362 19.266 6.276 19.351 6.362 19.415 6.686 19.415 6.686 19.266"/><path class="cls-14" d="M6.19,18.819v1.6H6.6V20.8H9.25v-.383h.41v-1.6H9.25v-.384H6.6v.384Zm.086.063V20.33h.41v.383H9.164V20.33h.41V18.882h-.41V18.5H6.686v.383Z"/><path class="cls-8" d="M6.19,18.819v1.6H6.6V20.8H9.25v-.383h.41v-1.6H9.25v-.384H6.6v.384Zm.086.063V20.33h.41v.383H9.164V20.33h.41V18.882h-.41V18.5H6.686v.383Z"/><polygon class="cls-7" points="10.005 10.982 9.746 10.599 9.746 10.322 9.509 10.024 8.992 10.024 8.582 9.748 7.267 9.748 6.858 10.024 6.362 10.024 6.103 10.322 6.103 10.599 5.867 10.982 5.867 11.728 6.103 12.111 6.103 12.388 6.362 12.665 6.858 12.665 7.267 12.942 8.582 12.942 8.992 12.665 9.509 12.665 9.746 12.388 9.746 12.111 10.005 11.728 10.005 10.982"/><polygon class="cls-8" points="10.005 10.982 9.746 10.599 9.746 10.322 9.509 10.024 8.992 10.024 8.582 9.748 7.267 9.748 6.858 10.024 6.362 10.024 6.103 10.322 6.103 10.599 5.867 10.982 5.867 11.728 6.103 12.111 6.103 12.388 6.362 12.665 6.858 12.665 7.267 12.942 8.582 12.942 8.992 12.665 9.509 12.665 9.746 12.388 9.746 12.111 10.005 11.728 10.005 10.982"/><polygon class="cls-5" points="5.931 11.344 5.931 11.622 6.19 12.005 6.19 12.281 6.427 12.58 6.944 12.58 7.353 12.856 7.936 12.856 7.936 11.344 5.931 11.344"/><polygon class="cls-7" points="7.224 12.005 6.923 12.239 6.75 12.239 6.815 12.324 6.686 12.494 6.75 12.58 6.923 12.494 6.987 12.58 7.009 12.367 7.353 12.111 7.224 12.005"/><polygon class="cls-7" points="6.901 11.813 6.599 12.069 6.405 12.069 6.47 12.132 6.362 12.303 6.405 12.388 6.599 12.303 6.664 12.388 6.686 12.175 7.009 11.92 6.901 11.813"/><polygon class="cls-7" points="6.729 11.451 6.427 11.685 6.254 11.685 6.319 11.771 6.19 11.92 6.254 12.005 6.427 11.92 6.491 12.005 6.513 11.792 6.858 11.536 6.729 11.451"/><polygon class="cls-5" points="9.919 11.344 9.919 11.068 9.66 10.684 9.66 10.408 9.423 10.131 8.927 10.131 8.496 9.833 7.936 9.833 7.936 11.344 9.919 11.344"/><polygon class="cls-7" points="7.936 12.856 7.763 12.856 7.591 12.665 7.31 12.665 7.159 12.58 7.246 12.473 7.397 12.58 7.548 12.58 7.699 12.281 7.936 12.388 7.936 12.58 7.699 12.58 7.936 12.856"/><polygon class="cls-13" points="5.931 11.344 5.931 11.068 6.19 10.684 6.19 10.408 6.427 10.131 6.944 10.131 7.353 9.833 7.936 9.833 7.936 11.344 5.931 11.344"/><polygon class="cls-7" points="7.936 9.833 7.763 9.833 7.591 10.024 7.31 10.024 7.159 10.131 7.246 10.216 7.397 10.131 7.548 10.131 7.699 10.408 7.936 10.322 7.936 10.131 7.699 10.131 7.936 9.833"/><polygon class="cls-7" points="7.936 9.833 8.086 9.833 8.259 10.024 8.539 10.024 8.69 10.131 8.625 10.216 8.453 10.131 8.302 10.131 8.151 10.408 7.936 10.322 7.936 10.131 8.151 10.131 7.936 9.833"/><polygon class="cls-13" points="9.919 11.344 9.919 11.622 9.66 12.005 9.66 12.281 9.423 12.58 8.927 12.58 8.496 12.856 7.936 12.856 7.936 11.344 9.919 11.344"/><polygon class="cls-7" points="7.936 12.856 8.086 12.856 8.259 12.665 8.539 12.665 8.69 12.58 8.625 12.473 8.453 12.58 8.302 12.58 8.151 12.281 7.936 12.388 7.936 12.58 8.151 12.58 7.936 12.856"/><polygon class="cls-7" points="6.901 10.876 6.599 10.642 6.405 10.642 6.47 10.557 6.362 10.386 6.405 10.322 6.599 10.386 6.664 10.322 6.686 10.535 7.009 10.791 6.901 10.876"/><polygon class="cls-7" points="8.625 10.684 8.927 10.45 9.099 10.45 9.056 10.365 9.164 10.216 9.099 10.131 8.927 10.216 8.862 10.131 8.841 10.344 8.496 10.599 8.625 10.684"/><polygon class="cls-7" points="7.224 10.684 6.923 10.45 6.75 10.45 6.815 10.365 6.686 10.216 6.75 10.131 6.923 10.216 6.987 10.131 7.009 10.344 7.353 10.599 7.224 10.684"/><polygon class="cls-7" points="6.729 11.259 6.427 11.004 6.254 11.004 6.319 10.94 6.19 10.77 6.254 10.684 6.427 10.77 6.491 10.684 6.513 10.897 6.858 11.153 6.729 11.259"/><polygon class="cls-13" points="6.082 11.344 6.168 11.344 6.233 11.451 6.319 11.344 7.936 11.344 7.936 12.665 7.849 12.665 7.936 12.75 7.936 12.856 7.699 12.58 7.699 12.473 7.763 12.473 7.763 12.58 7.849 12.58 7.849 12.473 7.224 12.069 6.707 12.069 6.707 11.664 6.47 11.451 6.319 11.451 6.233 11.536 6.319 11.622 6.233 11.622 6.082 11.344"/><polygon class="cls-5" points="6.082 11.344 6.168 11.344 6.233 11.259 6.319 11.344 7.936 11.344 7.936 10.024 7.849 10.024 7.936 9.939 7.936 9.833 7.699 10.131 7.699 10.216 7.763 10.216 7.763 10.131 7.849 10.131 7.849 10.216 7.224 10.642 6.707 10.642 6.707 11.046 6.47 11.259 6.319 11.259 6.233 11.153 6.319 11.068 6.233 11.068 6.082 11.344"/><polygon class="cls-9" points="6.427 11.344 7.936 11.344 7.936 12.473 7.267 12.005 6.772 12.005 6.772 11.622 6.427 11.344"/><polygon class="cls-7" points="8.949 10.876 9.25 10.642 9.445 10.642 9.38 10.557 9.509 10.386 9.445 10.322 9.25 10.386 9.207 10.322 9.164 10.535 8.841 10.791 8.949 10.876"/><polygon class="cls-7" points="9.121 11.259 9.423 11.004 9.595 11.004 9.552 10.94 9.66 10.77 9.595 10.684 9.423 10.77 9.358 10.684 9.337 10.897 8.992 11.153 9.121 11.259"/><polygon class="cls-13" points="9.768 11.344 9.682 11.344 9.617 11.259 9.531 11.344 7.936 11.344 7.936 10.024 8 10.024 7.936 9.939 7.936 9.833 8.151 10.131 8.151 10.216 8.086 10.216 8.086 10.131 8 10.131 8 10.216 8.625 10.642 9.142 10.642 9.142 11.046 9.38 11.259 9.531 11.259 9.617 11.153 9.531 11.068 9.617 11.068 9.768 11.344"/><polygon class="cls-9" points="9.423 11.344 7.936 11.344 7.936 10.216 8.582 10.684 9.078 10.684 9.078 11.068 9.423 11.344"/><polygon class="cls-7" points="8.625 12.005 8.927 12.239 9.099 12.239 9.056 12.324 9.164 12.494 9.099 12.58 8.927 12.494 8.862 12.58 8.841 12.367 8.496 12.111 8.625 12.005"/><polygon class="cls-7" points="8.949 11.813 9.25 12.069 9.445 12.069 9.38 12.132 9.509 12.303 9.445 12.388 9.25 12.303 9.207 12.388 9.164 12.175 8.841 11.92 8.949 11.813"/><polygon class="cls-7" points="9.121 11.451 9.423 11.685 9.595 11.685 9.552 11.771 9.66 11.92 9.595 12.005 9.423 11.92 9.358 12.005 9.337 11.792 8.992 11.536 9.121 11.451"/><polygon class="cls-5" points="9.768 11.344 9.682 11.344 9.617 11.451 9.531 11.344 7.936 11.344 7.936 12.665 8 12.665 7.936 12.75 7.936 12.856 8.151 12.58 8.151 12.473 8.086 12.473 8.086 12.58 8 12.58 8 12.473 8.625 12.069 9.142 12.069 9.142 11.664 9.38 11.451 9.531 11.451 9.617 11.536 9.531 11.622 9.617 11.622 9.768 11.344"/><polygon class="cls-7" points="9.423 11.344 7.936 11.344 7.936 12.473 8.582 12.005 9.078 12.005 9.078 11.622 9.423 11.344"/><polygon class="cls-7" points="6.427 11.344 7.936 11.344 7.936 10.216 7.267 10.684 6.772 10.684 6.772 11.068 6.427 11.344"/><polygon class="cls-7" points="8.086 11.344 8.496 11.068 8.755 11.068 8.668 10.982 8.841 10.791 8.755 10.684 8.496 10.791 8.432 10.684 8.388 10.94 7.936 11.238 8.086 11.344"/><polygon class="cls-7" points="7.763 11.344 7.353 11.622 7.095 11.622 7.181 11.728 7.009 11.92 7.095 12.005 7.353 11.92 7.44 12.005 7.461 11.749 7.936 11.451 7.763 11.344"/><polygon class="cls-9" points="7.763 11.344 7.353 11.068 7.095 11.068 7.181 10.982 7.009 10.791 7.095 10.684 7.353 10.791 7.44 10.684 7.461 10.94 7.936 11.238 7.763 11.344"/><polygon class="cls-9" points="8.086 11.344 8.496 11.622 8.755 11.622 8.668 11.728 8.841 11.92 8.755 12.005 8.496 11.92 8.432 12.005 8.388 11.749 7.936 11.451 8.086 11.344"/><polygon class="cls-13" points="7.44 11.344 7.936 10.876 8.432 11.344 7.936 11.813 7.44 11.344"/><polygon class="cls-7" points="6.319 11.536 6.384 11.622 6.319 11.728 6.233 11.728 6.017 11.344 6.082 11.344 6.233 11.622 6.319 11.622 6.233 11.536 6.319 11.451 6.47 11.451 6.47 11.536 6.319 11.536"/><polygon class="cls-7" points="6.319 11.153 6.384 11.068 6.319 10.982 6.233 10.982 6.017 11.344 6.082 11.344 6.233 11.068 6.319 11.068 6.233 11.153 6.319 11.259 6.47 11.259 6.47 11.153 6.319 11.153"/><polygon class="cls-7" points="9.531 11.536 9.466 11.622 9.531 11.728 9.617 11.728 9.832 11.344 9.768 11.344 9.617 11.622 9.531 11.622 9.617 11.536 9.531 11.451 9.38 11.451 9.38 11.536 9.531 11.536"/><polygon class="cls-7" points="9.531 11.153 9.466 11.068 9.531 10.982 9.617 10.982 9.832 11.344 9.768 11.344 9.617 11.068 9.531 11.068 9.617 11.153 9.531 11.259 9.38 11.259 9.38 11.153 9.531 11.153"/><rect class="cls-15" x="7.849" y="10.982" width="0.151" height="0.746"/><rect class="cls-15" x="7.612" y="11.153" width="0.625" height="0.383"/><polygon class="cls-9" points="7.246 26.079 5.867 26.867 5.867 28.208 7.246 28.996 8.625 28.996 10.005 28.208 10.005 26.867 8.625 26.079 7.246 26.079"/><polygon class="cls-8" points="7.246 26.079 5.867 26.867 5.867 28.208 7.246 28.996 8.625 28.996 10.005 28.208 10.005 26.867 8.625 26.079 7.246 26.079"/><polygon class="cls-16" points="6.362 27.228 6.448 27.228 6.448 27.037 6.621 27.037 6.621 27.228 6.707 27.228 6.707 26.781 6.621 26.781 6.621 26.973 6.448 26.973 6.448 26.781 6.362 26.781 6.362 27.228"/><polygon class="cls-16" points="8.474 28.74 8.561 28.74 8.561 28.549 8.733 28.549 8.733 28.74 8.819 28.74 8.819 28.293 8.733 28.293 8.733 28.485 8.561 28.485 8.561 28.293 8.474 28.293 8.474 28.74"/><polygon class="cls-16" points="9.142 27.228 9.229 27.228 9.229 27.037 9.402 27.037 9.402 27.228 9.488 27.228 9.488 26.781 9.402 26.781 9.402 26.973 9.229 26.973 9.229 26.781 9.142 26.781 9.142 27.228"/><polygon class="cls-16" points="9.142 27.995 9.229 27.995 9.229 27.804 9.402 27.804 9.402 27.995 9.488 27.995 9.488 27.527 9.402 27.527 9.402 27.739 9.229 27.739 9.229 27.527 9.142 27.527 9.142 27.995"/><polygon class="cls-5" points="7.936 28.932 7.936 27.527 9.919 27.527 9.919 28.166 8.604 28.932 7.936 28.932"/><polygon class="cls-5" points="7.936 26.143 7.936 27.527 5.931 27.527 5.931 26.909 7.267 26.143 7.936 26.143"/><polygon class="cls-13" points="7.936 26.143 7.936 27.527 9.919 27.527 9.919 26.909 8.604 26.143 7.936 26.143"/><polygon class="cls-13" points="7.936 28.932 7.936 27.527 5.931 27.527 5.931 28.166 7.267 28.932 7.936 28.932"/><path class="cls-5" d="M8.992,26.973h.8l-.8-.383Zm.927-.064v.618H8.668v-.49h-.28l-.323-.192V26.4l.194-.191H8v.638H7.936v-.7H8.6Z"/><path class="cls-8" d="M8.992,26.973h.8l-.8-.383Zm.927-.064v.618H8.668v-.49h-.28l-.323-.192V26.4l.194-.191H8v.638H7.936v-.7H8.6Z"/><polygon class="cls-7" points="7.267 27.101 7.267 27.974 7.461 27.974 7.936 28.229 8.388 27.974 8.604 27.974 8.604 27.101 8.388 27.101 7.936 26.845 7.461 27.101 7.267 27.101"/><path class="cls-5" d="M6.858,28.1h-.8l.8.383Zm-.927.064v-.639H7.2v.511h.258l.324.191v.448l-.194.191h.258v-.639h.087v.7H7.267Z"/><path class="cls-8" d="M6.858,28.1h-.8l.8.383Zm-.927.064v-.639H7.2v.511h.258l.324.191v.448l-.194.191h.258v-.639h.087v.7H7.267Z"/><path class="cls-13" d="M6.858,26.973h-.8l.8-.383Zm-.927-.064v.618H7.2v-.49h.258l.324-.192V26.4l-.194-.191h.258v.638h.087v-.7H7.267Z"/><path class="cls-8" d="M6.858,26.973h-.8l.8-.383Zm-.927-.064v.618H7.2v-.49h.258l.324-.192V26.4l-.194-.191h.258v.638h.087v-.7H7.267Z"/><path class="cls-13" d="M8.992,28.1h.8l-.8.383Zm.927.064v-.639H8.668v.511h-.28l-.323.191v.448l.194.191H8v-.639H7.936v.7H8.6Z"/><path class="cls-8" d="M8.992,28.1h.8l-.8.383Zm.927.064v-.639H8.668v.511h-.28l-.323.191v.448l.194.191H8v-.639H7.936v.7H8.6Z"/><polygon class="cls-7" points="6.319 28.038 6.405 28.038 6.405 27.846 6.577 27.846 6.577 28.038 6.664 28.038 6.664 27.59 6.577 27.59 6.577 27.782 6.405 27.782 6.405 27.59 6.319 27.59 6.319 28.038"/><polygon class="cls-7" points="7.116 28.677 7.203 28.677 7.203 28.485 7.375 28.485 7.375 28.677 7.461 28.677 7.461 28.229 7.375 28.229 7.375 28.421 7.203 28.421 7.203 28.229 7.116 28.229 7.116 28.677"/><polygon class="cls-7" points="6.319 27.037 6.405 27.037 6.405 27.228 6.577 27.228 6.577 27.037 6.664 27.037 6.664 27.484 6.577 27.484 6.577 27.292 6.405 27.292 6.405 27.484 6.319 27.484 6.319 27.037"/><polygon class="cls-7" points="7.116 26.398 7.203 26.398 7.203 26.59 7.375 26.59 7.375 26.398 7.461 26.398 7.461 26.845 7.375 26.845 7.375 26.654 7.203 26.654 7.203 26.845 7.116 26.845 7.116 26.398"/><polygon class="cls-7" points="9.186 27.484 9.272 27.484 9.272 27.292 9.445 27.292 9.445 27.484 9.531 27.484 9.531 27.037 9.445 27.037 9.445 27.228 9.272 27.228 9.272 27.037 9.186 27.037 9.186 27.484"/><polygon class="cls-7" points="8.388 28.677 8.474 28.677 8.474 28.485 8.647 28.485 8.647 28.677 8.733 28.677 8.733 28.229 8.647 28.229 8.647 28.421 8.474 28.421 8.474 28.229 8.388 28.229 8.388 28.677"/><polygon class="cls-7" points="9.186 28.038 9.272 28.038 9.272 27.846 9.445 27.846 9.445 28.038 9.531 28.038 9.531 27.59 9.445 27.59 9.445 27.782 9.272 27.782 9.272 27.59 9.186 27.59 9.186 28.038"/><polygon class="cls-7" points="8.388 26.845 8.474 26.845 8.474 26.654 8.647 26.654 8.647 26.845 8.733 26.845 8.733 26.398 8.647 26.398 8.647 26.59 8.474 26.59 8.474 26.398 8.388 26.398 8.388 26.845"/><polygon class="cls-9" points="8 27.527 8.259 27.314 8.388 27.314 8.388 27.42 8.259 27.42 8.259 27.484 8.453 27.484 8.453 27.25 8.259 27.25 8.259 27.079 8 27.079 8 27.25 8.065 27.25 8.065 27.122 8.195 27.122 8.195 27.25 7.936 27.484 7.656 27.25 7.656 27.122 7.785 27.122 7.785 27.25 7.849 27.25 7.849 27.079 7.591 27.079 7.591 27.25 7.397 27.25 7.397 27.484 7.591 27.484 7.591 27.42 7.461 27.42 7.461 27.314 7.591 27.314 7.849 27.527 7.591 27.761 7.461 27.761 7.461 27.654 7.591 27.654 7.591 27.59 7.397 27.59 7.397 27.825 7.591 27.825 7.591 27.995 7.849 27.995 7.849 27.825 7.785 27.825 7.785 27.953 7.656 27.953 7.656 27.825 7.936 27.59 8.195 27.825 8.195 27.953 8.065 27.953 8.065 27.825 8 27.825 8 27.995 8.259 27.995 8.259 27.825 8.453 27.825 8.453 27.59 8.259 27.59 8.259 27.654 8.388 27.654 8.388 27.761 8.259 27.761 8 27.527"/><polygon class="cls-7" points="6.06 15.752 6.19 15.582 6.966 15.582 7.548 14.858 8.323 14.858 8.906 15.582 9.66 15.582 9.789 15.752 9.66 15.922 8.906 15.922 8.323 16.667 7.548 16.667 6.966 15.922 6.19 15.922 6.06 15.752"/><polygon class="cls-7" points="6.125 15.56 6.19 15.497 6.987 15.497 7.591 14.794 8.259 14.794 8.862 15.497 9.66 15.497 9.725 15.56 9.66 15.624 8.862 15.624 8.323 16.242 7.526 16.242 6.987 15.624 6.19 15.624 6.125 15.56"/><polygon class="cls-8" points="6.125 15.56 6.19 15.497 6.987 15.497 7.591 14.794 8.259 14.794 8.862 15.497 9.66 15.497 9.725 15.56 9.66 15.624 8.862 15.624 8.323 16.242 7.526 16.242 6.987 15.624 6.19 15.624 6.125 15.56"/><path class="cls-5" d="M8.259,15.624l.259.277-.13.149-.065-.064H8.259v.064l.064.085h.13l.129-.149v-.149l-.259-.3.259-.3v-.128l-.129-.149h-.13l-.064.064v.085h.064l.065-.085.13.149-.259.3L8,15.177l.259-.3v-.064H8.2l-.259.3-.259-.3H7.612v.064l.259.3-.259.3-.259-.3.13-.149.065.085h.064v-.085l-.064-.064h-.13l-.129.149v.128l.259.3-.259.3v.149l.129.149h.13l.064-.085v-.064H7.548l-.065.064-.13-.149.259-.277.259.277-.259.3v.085h.065l.259-.3.259.3h.064V16.2L8,15.9Zm-.323-.383-.259.3.259.3.259-.3Z"/><path class="cls-8" d="M8.259,15.624l.259.277-.13.149-.065-.064H8.259v.064l.064.085h.13l.129-.149v-.149l-.259-.3.259-.3v-.128l-.129-.149h-.13l-.064.064v.085h.064l.065-.085.13.149-.259.3L8,15.177l.259-.3v-.064H8.2l-.259.3-.259-.3H7.612v.064l.259.3-.259.3-.259-.3.13-.149.065.085h.064v-.085l-.064-.064h-.13l-.129.149v.128l.259.3-.259.3v.149l.129.149h.13l.064-.085v-.064H7.548l-.065.064-.13-.149.259-.277.259.277-.259.3v.085h.065l.259-.3.259.3h.064V16.2L8,15.9Zm-.323-.383-.259.3.259.3.259-.3Z"/><polygon class="cls-5" points="7.548 16.348 7.548 16.923 7.612 16.859 7.677 16.923 7.742 16.859 7.806 16.923 7.871 16.859 7.936 16.923 8 16.859 8.065 16.923 8.129 16.859 8.195 16.923 8.259 16.859 8.323 16.923 8.323 16.348 7.548 16.348"/><polygon class="cls-5" points="8.323 14.73 8.323 14.155 8.259 14.219 8.195 14.155 8.129 14.219 8.065 14.155 8 14.219 7.936 14.155 7.871 14.219 7.806 14.155 7.742 14.219 7.677 14.155 7.612 14.219 7.548 14.155 7.548 14.73 8.323 14.73"/><polygon class="cls-5" points="9.402 15.39 9.402 14.815 9.337 14.879 9.272 14.815 9.207 14.879 9.142 14.815 9.099 14.879 9.035 14.815 8.97 14.879 8.906 14.815 8.906 15.39 9.402 15.39"/><polygon class="cls-5" points="6.966 15.39 6.966 14.815 6.901 14.879 6.837 14.815 6.772 14.879 6.707 14.815 6.642 14.879 6.577 14.815 6.513 14.879 6.448 14.815 6.448 15.39 6.966 15.39"/><polygon class="cls-5" points="9.402 15.688 9.402 16.284 9.337 16.199 9.272 16.284 9.207 16.199 9.142 16.284 9.099 16.199 9.035 16.284 8.97 16.199 8.906 16.284 8.906 15.688 9.402 15.688"/><polygon class="cls-5" points="6.966 15.688 6.966 16.284 6.901 16.199 6.837 16.284 6.772 16.199 6.707 16.284 6.642 16.199 6.577 16.284 6.513 16.199 6.448 16.284 6.448 15.688 6.966 15.688"/><polygon class="cls-9" points="8.323 16.348 8.323 16.71 8.388 16.646 8.453 16.71 8.518 16.646 8.582 16.71 8.647 16.646 8.712 16.71 8.776 16.646 8.841 16.71 8.906 16.646 8.906 15.688 8.323 16.348"/><polygon class="cls-9" points="7.548 16.348 7.548 16.71 7.483 16.646 7.418 16.71 7.353 16.646 7.289 16.71 7.224 16.646 7.159 16.71 7.095 16.646 7.03 16.71 6.966 16.646 6.966 15.688 7.548 16.348"/><polygon class="cls-9" points="7.548 14.73 7.548 14.368 7.483 14.453 7.418 14.368 7.353 14.453 7.289 14.368 7.224 14.453 7.159 14.368 7.095 14.453 7.03 14.368 6.966 14.453 6.966 15.39 7.548 14.73"/><polygon class="cls-9" points="8.323 14.73 8.323 14.368 8.388 14.453 8.453 14.368 8.518 14.453 8.582 14.368 8.647 14.453 8.712 14.368 8.776 14.453 8.841 14.368 8.906 14.453 8.906 15.39 8.323 14.73"/><polygon class="cls-9" points="6.448 16.135 6.384 16.05 6.319 16.135 6.254 16.05 6.19 16.135 6.125 16.05 6.06 16.135 5.996 16.05 5.931 16.135 5.931 14.964 5.996 15.028 6.06 14.964 6.125 15.028 6.19 14.964 6.254 15.028 6.319 14.964 6.384 15.028 6.448 14.964 6.448 15.39 6.19 15.39 6.06 15.539 6.19 15.688 6.448 15.688 6.448 16.135"/><polygon class="cls-9" points="9.402 16.135 9.466 16.05 9.531 16.135 9.595 16.05 9.66 16.135 9.725 16.05 9.789 16.135 9.854 16.05 9.919 16.135 9.919 14.964 9.854 15.028 9.789 14.964 9.725 15.028 9.66 14.964 9.595 15.028 9.531 14.964 9.466 15.028 9.402 14.964 9.402 15.39 9.66 15.39 9.789 15.539 9.66 15.688 9.402 15.688 9.402 16.135"/><path class="cls-13" d="M7.224,16.391s-.065.064-.065.085a.168.168,0,0,0,.087.085.092.092,0,0,0,.086-.085c0-.021-.065-.085-.065-.085v-.107s.13.192.13.107c0-.064-.13-.171-.13-.171H7.224s-.129.128-.129.171c0,.085.129-.107.129-.107Z"/><path class="cls-7" d="M7.893,16.625s-.065.064-.065.106.065.128.108.128a.2.2,0,0,0,.086-.128c0-.042-.065-.106-.065-.106v-.17s.108.255.108.149a.6.6,0,0,0-.108-.235H7.893s-.13.192-.108.235c0,.106.108-.149.108-.149Z"/><path class="cls-9" d="M7.353,15.539c0,.043-.064.085-.129.085-.086,0-.129-.042-.129-.085s.043-.064.129-.064c.065,0,.129.022.129.064Z"/><path class="cls-9" d="M8.065,15.539c0,.043-.065.085-.129.085-.087,0-.13-.042-.13-.085s.043-.064.13-.064c.064,0,.129.022.129.064Z"/><path class="cls-9" d="M8.776,15.539c0,.043-.064.085-.129.085-.086,0-.129-.042-.129-.085s.043-.064.129-.064c.065,0,.129.022.129.064Z"/><path class="cls-13" d="M7.2,14.709A.261.261,0,0,1,7.16,14.6c0-.021.043-.085.064-.085.043,0,.086.064.086.085a.261.261,0,0,1-.043.107v.106s.108-.191.108-.106c0,.064-.108.17-.108.17H7.2s-.108-.128-.108-.17c0-.085.108.106.108.106Z"/><path class="cls-7" d="M7.871,14.475a.343.343,0,0,1-.065-.128.263.263,0,0,1,.108-.106c.043,0,.086.063.086.106a.344.344,0,0,1-.064.128v.17s.129-.277.129-.149c0,.085-.129.213-.129.213H7.871s-.129-.17-.108-.213c0-.128.108.149.108.149Z"/><path class="cls-13" d="M8.6,16.391s-.065.064-.065.085a.17.17,0,0,0,.086.085c.022,0,.087-.043.087-.085,0-.021-.065-.085-.065-.085v-.107s.129.192.129.107c0-.064-.129-.171-.129-.171H8.6s-.13.128-.13.171c0,.085.13-.107.13-.107Z"/><path class="cls-13" d="M8.582,14.709a.261.261,0,0,1-.043-.107c-.021-.021.043-.085.065-.085.043,0,.086.064.086.085a.261.261,0,0,1-.043.107v.106s.108-.191.108-.106c0,.064-.108.17-.108.17H8.582s-.108-.128-.108-.17c0-.085.108.106.108.106Z"/><path class="cls-7" d="M6.664,15.986s-.087.064-.087.085.087.085.109.085a.148.148,0,0,0,.107-.085c0-.021-.064-.085-.064-.085V15.88s.129.17.129.085c0-.043-.129-.149-.129-.149H6.664s-.151.128-.13.149c0,.085.13-.085.13-.085Z"/><path class="cls-7" d="M6.642,15.156s-.065-.043-.065-.085a.15.15,0,0,1,.109-.085.148.148,0,0,1,.107.085c0,.042-.086.085-.086.085v.106s.13-.17.13-.085c0,.043-.13.149-.13.149H6.642s-.151-.127-.129-.149c0-.085.129.085.129.085Z"/><path class="cls-7" d="M9.142,15.965s-.064.064-.064.085c-.022.021.064.085.108.085.021,0,.107-.064.107-.085s-.086-.085-.086-.085v-.107s.13.171.13.107-.13-.149-.13-.149H9.142s-.15.106-.129.149c0,.064.129-.107.129-.107Z"/><path class="cls-7" d="M9.121,15.135s-.065-.043-.065-.086c0-.021.065-.063.108-.063s.108.042.108.063c0,.043-.086.086-.086.086v.106s.129-.17.129-.085c0,.043-.129.149-.129.149H9.121s-.151-.128-.129-.149c0-.085.129.085.129.085Z"/><path class="cls-13" d="M6.125,15.986a.159.159,0,0,1,0-.106c-.022-.022.065-.085.086-.085s.065.063.065.085v.106L6.233,15.9c-.043.128-.043.128-.065,0Z"/><path class="cls-13" d="M6.125,15.135c-.022.042,0,.085,0,.106a.17.17,0,0,0,.086.085c.022,0,.065-.064.065-.106v-.085l-.043.085c-.043-.128-.043-.128-.065,0Z"/><path class="cls-13" d="M9.617,15.965a.188.188,0,0,1-.022-.107c0-.021.065-.063.087-.063a.092.092,0,0,1,.086.085.276.276,0,0,1-.022.106L9.725,15.9c-.043.106-.043.106-.065-.021Z"/><path class="cls-13" d="M9.617,15.135a.156.156,0,0,0-.022.085c0,.042.065.085.087.085.043,0,.086-.064.086-.085v-.107l-.043.086c-.043-.128-.043-.128-.065,0Z"/><path class="cls-7" d="M7.526,16.944v-.213h-.6v-.4H6.384v-.149H5.931V14.922h.453v-.128h.539v-.426h.6v-.191h.8v.191h.6v.426h.539v.128h.453v1.256H9.466v.149H8.927v.4h-.6v.213Zm-.065.064v-.192h-.6v-.425H6.319v-.149H5.867V14.858h.452V14.73h.539V14.3h.6v-.212h.927V14.3h.6v.426h.539v.128h.474v1.384H9.531v.149H8.992v.425h-.6v.192Z"/><path class="cls-8" d="M7.526,16.944v-.213h-.6v-.4H6.384v-.149H5.931V14.922h.453v-.128h.539v-.426h.6v-.191h.8v.191h.6v.426h.539v.128h.453v1.256H9.466v.149H8.927v.4h-.6v.213Zm-.065.064v-.192h-.6v-.425H6.319v-.149H5.867V14.858h.452V14.73h.539V14.3h.6v-.212h.927V14.3h.6v.426h.539v.128h.474v1.384H9.531v.149H8.992v.425h-.6v.192Z"/><path class="cls-13" d="M19.188,13.921a2.771,2.771,0,0,0-5.541,0,2.771,2.771,0,0,0,5.541,0Z"/><path class="cls-9" d="M18.433,13.5A2.738,2.738,0,1,0,15.7,16.22,2.725,2.725,0,0,0,18.433,13.5Z"/><polygon class="cls-17" points="16.773 12.388 16.385 12.388 16.277 12.772 16.148 12.388 15.76 12.388 16.062 12.154 15.933 11.792 16.256 12.005 16.579 11.792 16.471 12.154 16.773 12.388"/><polygon class="cls-17" points="15.372 11.685 14.984 11.707 14.876 12.069 14.747 11.707 14.359 11.685 14.661 11.451 14.531 11.089 14.855 11.302 15.156 11.089 15.07 11.451 15.372 11.685"/><polygon class="cls-17" points="15.372 13.091 14.984 13.091 14.876 13.453 14.747 13.091 14.359 13.091 14.661 12.856 14.531 12.473 14.855 12.707 15.156 12.473 15.07 12.856 15.372 13.091"/><polygon class="cls-17" points="15.372 14.496 14.984 14.496 14.876 14.858 14.747 14.496 14.359 14.496 14.661 14.262 14.531 13.879 14.855 14.113 15.156 13.879 15.07 14.262 15.372 14.496"/><polygon class="cls-17" points="13.971 13.772 13.583 13.772 13.475 14.155 13.346 13.772 12.958 13.772 13.26 13.538 13.13 13.176 13.454 13.389 13.777 13.176 13.669 13.538 13.971 13.772"/><polygon class="cls-7" points="8.388 28.677 8.474 28.677 8.474 28.485 8.647 28.485 8.647 28.677 8.733 28.677 8.733 28.229 8.647 28.229 8.647 28.421 8.474 28.421 8.474 28.229 8.388 28.229 8.388 28.677"/></g></g></svg>