<svg id="Layer_1" data-name="Layer 1" xmlns="http://www.w3.org/2000/svg" xmlns:xlink="http://www.w3.org/1999/xlink" viewBox="0 0 40 40"><defs><style>.cls-1{fill:none;}.cls-2{clip-path:url(#clip-path);}.cls-3{fill:#bd2034;}.cls-4{fill:#e5e8eb;}.cls-5{fill:#060606;}.cls-6{clip-path:url(#clip-path-2);}.cls-7{fill:#429a4b;}</style><clipPath id="clip-path"><rect class="cls-1" x="1.087" y="8.916" width="37.825" height="22.169" rx="4"/></clipPath><clipPath id="clip-path-2"><rect class="cls-1" x="1.087" y="8.916" width="37.825" height="22.169"/></clipPath></defs><g class="cls-2"><rect class="cls-3" x="1.087" y="8.916" width="37.825" height="7.39"/><rect class="cls-4" x="1.087" y="16.305" width="37.825" height="7.39"/><rect class="cls-5" x="1.087" y="23.695" width="37.825" height="7.389"/><g class="cls-6"><path class="cls-7" d="M23.263,18.638a.387.387,0,0,1-.112-.084c-.025-.036-.01-.037.094-.008a.413.413,0,0,0,.426-.072l.106-.089.124.064a.4.4,0,0,0,.162.053.361.361,0,0,0,.161-.207c0-.062.048-.046.072.02a.243.243,0,0,1-.15.318.347.347,0,0,1-.215-.023c-.115-.04-.135-.04-.193,0a.435.435,0,0,1-.475.024"/><path class="cls-7" d="M23.725,18.215a.665.665,0,0,1-.082-.331c.016-.047.032-.056.073-.043.074.024.092.075.08.249-.008.141-.029.178-.071.125"/><path class="cls-7" d="M18.288,18.058c-.015.106.188.369.279.417-.062.028-.139.015-.2.047-.318.319-1.479,1.456-1.691,1.728.628.012,1.324-.009,1.913-.036,0-.428.4-.45.675-.607.139.221.489.2.533.536v1.428H14.436a.781.781,0,0,1-.994.606c.162-.17.435-.228.532-.464a1.592,1.592,0,0,0-.324-1.125,1.893,1.893,0,0,0,.573-.3c-.188.576.491.513.995.5.017-.2.007-.426-.142-.455a1.371,1.371,0,0,0,.533-.357v.777c1.2,0,2.492-.009,3.716-.009,0-.243.064-.633-.128-.633s-.008.5-.15.5h-2.87c0-.107,0-.332,0-.494.122-.122.108-.111.938-.946.084-.083.666-.612,1.176-1.109"/><path class="cls-7" d="M25.46,18.037a2.58,2.58,0,0,0,.605.321c-.03.1-.119.142-.143.25v2.177c.274.061.332-.095.462-.178.035.348.256.69.248.964H25.46Z"/><path class="cls-7" d="M23.9,19.2s.426-.362.426-.375v1.9h.307c0-.724-.009-1.459-.009-2.131a2.652,2.652,0,0,0,.43-.433v3.4H22.358c-.039-.706-.047-1.437.773-1.28V20c-.026-.049-.07.013-.081-.051.131-.132.174-.165.527-.474,0,.373.006,1.254.006,1.254h.311s0-1.475,0-1.523m-1.011,1.5c.058.087.254.085.245-.061-.034-.12-.291-.075-.245.061"/><path class="cls-7" d="M15.09,21.806a.166.166,0,1,1-.164.166.165.165,0,0,1,.164-.166"/><path class="cls-7" d="M20.165,18.041a2.631,2.631,0,0,0,.6.321c-.029.1-.118.142-.142.25v2.177c.274.061.331-.1.461-.179.036.348.257.69.249.964H20.165Z"/></g></g></svg>