<?xml version="1.0" encoding="UTF-8"?><svg id="Layer_1" xmlns="http://www.w3.org/2000/svg" viewBox="0 0 40 40"><g><g><path d="m20.686,20.168c-.025-.011-.129-.029-.31-.041l-.007-.006c.008.057.018.154.018.154.093-.033.273-.065.299-.107Z" fill="#e3e7ea"/><path d="m21.056,20.522c-.196.005-.514.067-.65.094l-.039.008v.2c.021-.026.514-.072.742-.261.031-.028.019-.041-.053-.041Z" fill="#e3e7ea"/><path d="m20.559,24.355c-.072,0-.133.008-.176.021l.018.112s.01-.004.021-.004c.058,0,.22.026.358.026.144,0,.189-.028.203-.045-.018-.057-.211-.11-.418-.11v-.025h0l-.006.025Z" fill="#e3e7ea"/><path d="m21.008,21.549s-.026-.012-.106-.012v-.024s-.002,0-.003,0l-.042.025c-.088.003-.196.015-.294.025-.083.009-.158.017-.206.018l.025.115s.008,0,.011,0c.133-.03.528-.062.616-.147Z" fill="#e3e7ea"/><path d="m21.411,21.771c-.148.005-.629.129-.861.189-.133.034-.151.039-.159.039.017.005.012.086.011.108.007-.001.01-.002.02-.004.103-.046.785-.191.99-.332Z" fill="#e3e7ea"/><path d="m21.028,19.635c-.161.006-.458.048-.609.07-.044.006-.077.011-.091.012.023.01.038.14.039.144.008-.002.018-.004.03-.007.228-.073.583-.164.691-.219-.009,0-.02,0-.034,0v-.022s-.002,0-.003,0l-.023.023Z" fill="#e3e7ea"/><polygon points="20.297 19.342 20.297 19.342 20.297 19.34 20.297 19.342" fill="#e3e7ea"/><path d="m16.262,25.5c-.069-.016-.119-.023-.18-.035.065.019.125.031.193.056-.006-.008-.007-.013-.012-.021Z" fill="#e3e7ea"/><polygon points="21.136 19.632 21.137 19.631 21.137 19.631 21.133 19.636 21.136 19.632" fill="#e3e7ea"/><path d="m21.094,19.1c-.242.012-.768.091-.795.097l.023.14c.014-.003.034-.007.062-.013.264-.077.639-.168.77-.225h-.021v-.022s-.002,0-.004,0l-.034.023Z" fill="#e3e7ea"/><path d="m21.017,17.791c-.179.009-.447.072-.608.11-.044.01-.079.018-.101.023v.147c.011-.002.028-.006.045-.01.174-.065.579-.173.664-.27Z" fill="#e3e7ea"/><path d="m20.956,23.714c-.062.003-.153.025-.249.047-.116.027-.235.055-.327.058l.015.121s.009-.002.017-.002c.031,0,.097.009.172.009.132,0,.31-.028.402-.16.035-.049.028-.063.028-.063l-.036-.029s-.005-.002-.01-.002l-.012.022Z" fill="#e3e7ea"/><path d="m21.365,18.56c-.169.007-.55.082-.802.131-.137.027-.241.047-.262.047.005.056.003.097.004.117.105-.018.981-.177,1.118-.303l-.027-.014s-.007-.002-.012-.002l-.019.023Z" fill="#e3e7ea"/><path d="m21.722,20.732c-.209.008-.658.117-1.334.325.013.009.023.257.023.277.021-.007.064-.021.13-.042.502-.19,1.194-.427,1.247-.478.038-.037.043-.056.043-.061-.002-.004-.014-.021-.091-.021v-.023h-.002l-.018.024Z" fill="#e3e7ea"/><polygon points="20.283 18.077 20.284 18.077 20.283 18.068 20.283 18.077" fill="#e3e7ea"/><polygon points="16.078 24.389 16.079 24.389 16.079 24.388 16.074 24.388 16.076 24.389 16.078 24.389" fill="#e3e7ea"/><polygon points="20.286 18.883 20.286 18.883 20.286 18.883 20.286 18.882 20.286 18.883" fill="#e3e7ea"/><path d="m20.778,23.25c-.002-.024-.016-.031-.052-.031-.095.004-.201.028-.271.043-.024.005-.041.009-.054.011v.069c.014-.007.06-.002.114-.002.08,0,.221-.012.263-.091Z" fill="#e3e7ea"/><path d="m21.787,22.666c-.052.002-.124.032-.179.059h.006c.015,0,.032,0,.049,0,.134,0,.167-.03.175-.042v-.031s-.047.014-.047.014v-.024s0,0,0,0l-.005.024Z" fill="#e3e7ea"/><path d="m21.881,21.948c-.377.003-1.105.23-1.5.469.006.006-.006.095-.005.117.021-.006.062-.018.123-.035.648-.209,1.106-.314,1.282-.314.225-.056.288-.187.292-.217-.026-.007-.093-.021-.183-.021v-.024s0,0,0,0l-.008.024Z" fill="#e3e7ea"/><polygon points="20.386 21.342 20.388 21.342 20.386 21.334 20.386 21.342" fill="#e3e7ea"/><polygon points="23.323 21.571 23.321 21.568 23.322 21.571 23.323 21.571" fill="#e3e7ea"/><path d="m21.145,16.707s-.02-.023-.18-.023h-.05c-.299.006-.734.064-.738.065l.036.235c.008-.001.014-.002.027-.004.224-.058.811-.163.904-.273Z" fill="#e3e7ea"/><path d="m22.273,22.871h0v.004s.002,0,.002,0c0,0,.003,0,.003,0,.001,0,.008,0,.01,0,.011-.02.03-.042.06-.07-.038.028-.068.051-.074.061,0,0,0,.002,0,.003Z" fill="#e3e7ea"/><path d="m23.506,20.189c-.011-.034-.023-.065-.035-.089.01.031.024.054.027.097,0,0,.006-.006.008-.008Z" fill="#e3e7ea"/><polygon points="21.544 15.732 21.53 15.727 21.543 15.733 21.544 15.732" fill="#e3e7ea"/><path d="m22.11,18.02l.075-.041c-.029.011-.059.022-.088.033,0,0,.011.006.013.007Z" fill="#e3e7ea"/><polygon points="20.134 12.388 20.129 12.35 20.129 12.39 20.134 12.388" fill="#e3e7ea"/><path d="m17.675,15.976c.006-.003.036.001.065.005-.034-.009-.045-.012-.058-.015-.002.003-.005.008-.007.01Z" fill="#e3e7ea"/><polygon points="17.18 21.608 17.189 21.62 17.187 21.61 17.18 21.608" fill="#e3e7ea"/><path d="m19.5,12.321c.009.003.024.015.036.021-.012-.011-.014-.013-.023-.021-.003,0-.01,0-.013,0Z" fill="#e3e7ea"/><path d="m19.4,12.796c.011.001.035.016.054.026-.02-.016-.024-.019-.035-.028-.005,0-.015.001-.019.001Z" fill="#e3e7ea"/><path d="m17.252,21.893c-.01,0-.028-.005-.047-.01.03.013.05.022.05.022l-.003-.012Z" fill="#e3e7ea"/><path d="m18.092,20.685c-.009-.005-.017-.01-.026-.015.009.006.017.011.026.017,0,0,0-.001,0-.002Z" fill="#e3e7ea"/><path d="m18.917,20.857c-.037-.016-.07-.032-.105-.048.035.02.069.036.104.057v-.009Z" fill="#e3e7ea"/><path d="m19.789,13.428c-.009-.004-.025-.013-.039-.021.021.017.034.028.038.031,0,0,0-.008.001-.01Z" fill="#e3e7ea"/><path d="m17.869,21.96s-.011-.007-.016-.009c.003.002.013.012.014.013,0-.001,0-.002.001-.004Z" fill="#e3e7ea"/><path d="m16.408,22.946l-.038-.007c.012.005.027.011.037.016,0-.004.001-.005,0-.009Z" fill="#e3e7ea"/><polygon points="17.139 20.515 17.129 20.511 17.138 20.52 17.139 20.515" fill="#e3e7ea"/><path d="m17.111,18.998c-.027-.013-.051-.022-.077-.034.027.018.055.03.08.052,0,0-.003-.013-.004-.018Z" fill="#e3e7ea"/><path d="m19.806,13.939l-.01.003s.01,0,.015,0c0-.001-.004-.002-.005-.003Z" fill="#e3e7ea"/><path d="m19.609,14.579c-.007.004-.014.007-.021.01.01-.002.026-.001.036-.004-.004-.003-.01-.004-.014-.007Z" fill="#e3e7ea"/><path d="m17.629,16.556c0,.005-.001.009-.002.014.003-.005.001-.009.005-.014-.001,0-.002,0-.003,0Z" fill="#e3e7ea"/><path d="m17.055,18.73s.005.01.007.013c0-.004-.001-.007-.002-.01,0,0-.005-.002-.005-.002Z" fill="#e3e7ea"/><path d="m18.86,22.641c.006.058.452.308.683.308.032,0,.074-.006.09-.032-.04-.031-.214-.228-.725-.284l-.005-.026v.026c-.034.001-.043.009-.043.009Z" fill="#e3e7ea"/><path d="m19.763,18.522h.002s-.013-.005-.019-.006c.003,0,.016.006.017.006Z" fill="#e3e7ea"/><polygon points="19.774 14.759 19.778 14.764 19.778 14.739 19.777 14.74 19.777 14.74 19.775 14.741 19.774 14.741 19.77 14.742 19.774 14.759" fill="#e3e7ea"/><path d="m18.206,17.815v-.022s-.002,0-.003,0l-.023.023c-.058.003-.097.018-.114.041-.024.026,1.538.582,1.694.637-.02-.018-.024-.095-.025-.131-.936-.453-1.349-.548-1.529-.548Z" fill="#e3e7ea"/><path d="m18.418,17.598c.047.046.79.287,1.27.436l-.004-.155c-.742-.302-1.058-.371-1.189-.371-.058.003-.084.013-.091.028-.009.017.003.044.015.062Z" fill="#e3e7ea"/><polygon points="19.778 14.781 19.778 14.766 19.776 14.767 19.778 14.781" fill="#e3e7ea"/><path d="m19.685,16.133s.002,0,.002,0h0s0-.002,0-.003c-.008,0-.019-.003-.031-.005.01.003.028.008.028.009Z" fill="#e3e7ea"/><path d="m19.759,14.77c-.01,0-.022.002-.037.004-.065.007-.174.018-.234.06.023.019.184.038.29.044v-.007l-.02-.101Z" fill="#e3e7ea"/><polygon points="18.44 15.803 18.44 15.803 18.44 15.803 18.44 15.803" fill="#e3e7ea"/><path d="m19.688,16.107s0-.003,0-.004c-.023-.019-.029-.105-.031-.141-.598-.185-.911-.222-1.065-.222-.141.007-.167.029-.171.033l.019.003c.124,0,1.153.301,1.248.33Z" fill="#e3e7ea"/><path d="m19.137,16.23c-.032,0-.05.007-.056.011.029.052.587.245.685.272-.005-.016-.012-.127-.015-.17.006-.019-.047-.029-.117-.043-.143-.028-.358-.07-.48-.07v-.024s0,0-.001,0l-.015.024Z" fill="#e3e7ea"/><path d="m19.715,19.562h.002s0-.002,0-.003c0,0,0-.002,0-.002-.011-.003-.022-.005-.04-.011.016.007.036.015.038.016Z" fill="#e3e7ea"/><path d="m19.24,24.231c-.097.005-.171.033-.218.083.035.154.518.247.598.205.059-.044.016-.171-.015-.234-.008.002-.171-.055-.336-.055v-.024h-.002l-.027.024Z" fill="#e3e7ea"/><path d="m20.726,15.047s0-.003.002-.004v-.007s0,0,0-.002c-.007.01-.019.019-.03.029.007-.006.027-.01.029-.016Z" fill="#e3e7ea"/><path d="m18.112,19.678c-.091.004-.112.019-.12.028.027.005,1.448.469,1.705.553l-.028-.162c-.966-.343-1.382-.419-1.558-.419Z" fill="#e3e7ea"/><path d="m20.189,15.181s.011-.001.018-.002c.214-.048.477-.099.496-.142-.028-.031-.341-.051-.523-.053l.009.197Z" fill="#e3e7ea"/><path d="m18.674,23.616c-.031.002-.064.012-.097.03.029.044.285.187.373.187.103.061.497.091.645.091l.01-.171c-.015.013-.266-.028-.47-.028-.06,0-.116.004-.162.013l-.068-.033c-.075-.045-.146-.088-.223-.088v-.023s0,0,0,0l-.009.023Z" fill="#e3e7ea"/><path d="m17.694,24.573c-.017-.03-.012-.156-.012-.163-.126-.048-.24-.081-.335-.081v-.023h-.002l-.019.024c-.016.001-.032.005-.048.008.016.024.037.045.059.066.122.091.305.154.356.17Z" fill="#e3e7ea"/><polygon points="18.454 19.089 18.454 19.089 18.454 19.085 18.454 19.089" fill="#e3e7ea"/><path d="m19.698,19.381c-.01.006-.038-.007-.076-.023-.231-.1-.843-.364-1.086-.364-.047.002-.069.01-.076.023-.007.01-.004.027,0,.042.15.011,1.072.397,1.24.469-.007-.013-.006-.034-.005-.057,0-.046.002-.075.003-.092Z" fill="#e3e7ea"/><polygon points="18.565 23.623 18.565 23.624 18.566 23.623 18.565 23.623" fill="#e3e7ea"/><path d="m20.152,15.313c.004.044.009.087.013.097.011-.013.179-.031.212-.072-.017-.004-.142-.016-.188-.021-.013,0-.026-.002-.036-.003Z" fill="#e3e7ea"/><path d="m12.06,8v24h15.88V8h-15.88Zm10.04,16.31c.15.01.36.02.56.02.43.01.84.02.9.18.14-.15.52-.12.75.02.04-.05.25-.08.41-.08.13,0,.35.02.39.13.03.05,0,.11-.06.17-.03.02-.1.04-.42.04-.26,0-.61-.01-.96-.02-.35-.01-.7-.02-.95-.02-.24,0-.32.01-.36.02.15,0,1.06.11,1.28.28.1-.14.48-.09.68-.03.05.01.1.02.12.02s.07-.02.12-.04c.1-.05.23-.1.35-.1s.21.05.25.17c-.15.21-.46.3-.92.3-.61,0-1.34-.15-1.73-.24-.13-.03-.23-.05-.26-.05-.04.02-.05.07-.06.11-.01.07-.03.15-.11.18h-.08c-.2,0-.22.08-.25.16-.01.03-.02.06-.04.07,0,.01-.05.02-.05.02-.17,0-.78-.18-.81-.19-.07,0-.21.02-.36.27-.19.32.17,2.79.17,2.81,0,.01,0,.02-.01.03h-.02l-1.14-.01-.02-2.89-.06.03s-.3.13-.32.14l-.04-.04c-.03-.14-.11-.27-.32-.08-.08.07-.17.11-.26.11-.21,0-.34-.23-.35-.25-.01.02-.88.4-2.24.36-.53-.09-.84-.23-.83-.39.01-.11.19-.18.45-.18.16,0,.42.03.76.15-.03-.04-.05-.07-.06-.1-.06-.08-.09-.15-.06-.21.07-.13.42-.09.94.02.15-.2.34-.31.55-.31s.38.11.51.18c.07.04.12.08.15.08.03-.06.02-.09,0-.12-.07-.11-.33-.19-.83-.25-.21-.02-.44.04-.69.11-.28.07-.61.12-.96.11h-.05c-.24-.02-.5-.06-.75-.17-.38-.17-.56-.34-.53-.5.05-.23.49-.35.66-.35.2.02.61.22.82.33.06.03.1.05.12.05v-.01c-.03-.03-.09-.2-.11-.22l.04-.04.07.01-.02-.01c0-.02-.05-.1-.63-.42-.36-.19-.4-.26-.39-.31.01-.04.08-.05.13-.05.15,0,.42.06.53.09l.02.01c0-.02,0-.04.01-.06.02-.04.06-.08.16-.08.17,0,.44.11.8.34,0-.01.01-.03.02-.04.08-.11.39-.17.59-.19-.45-.1-1.67-.37-1.75-.59-.02-.04-.02-.07,0-.1.07-.1.45.06.73.18l.13.06v-.01c-.03-.02-.03-.06-.01-.08.09-.11.45.09.6.18.01,0,.02.01.03.01-.01-.01-.01-.02-.02-.03-.05-.08.03-.21.04-.21.02.01.73.21,1.03.21.09,0,.11-.02.11-.02-.04-.2-1.33-.39-2.13-.46-.02-.01-.15-.13-.16-.33,0,0,.01-.04.02-.05.05-.06.28-.01.54.05.24.06.49.09.5.06.04-.08.26-.04.47.01.09.03.19.05.23.05-.08-.12-.53-.2-.93-.27-.57-.09-.92-.16-.93-.26-.01-.06.06-.09.08-.1.09-.05.21-.07.34-.07.44,0,.95.23,1.03.26-.01,0-.01-.01-.01-.02-.04-.07-.08-.23-.08-.26h.02v-.01c.05.01.09.03.13.04.31.08.54.29.57.32.01-.03.01-.05.02-.08l.04-.18c.35.08.69.23.99.36.29.13.54.24.64.24l.04-.05c-.06-.28-1.38-.57-2.35-.79-.86-.19-1.19-.27-1.21-.35,0-.01.02-.05.02-.05.09-.07.24-.1.47-.1.3,0,.62.06.63.06l.7.26s.04-.02.05-.06c.01-.03.01-.1-.13-.26-.13-.14-.64-.18-1.05-.21-.41-.03-.63-.05-.65-.13-.02-.05.04-.09.05-.1.2-.13.39-.19.56-.19.27,0,.41.14.44.18q.01-.01.01-.02l-.01-.05.02-.1c.43,0,.68.15.93.33-.01-.01-.01-.03,0-.05,0-.03.01-.06.02-.09.33.05.58.19.81.33v-.01c-.02-.04-.01-.18.01-.23.01,0,.02.01.03.01h.01c.07,0,.14.04.27.12.16.11.39.25.45.25,0-.01-.01-.04-.09-.15-.3-.4-1.41-.52-2.15-.6-.19-.02-.35-.04-.47-.05-.25-.04-.43-.15-.42-.26.01-.13.23-.18.54-.13-.13-.06-.24-.09-.33-.13-.16-.05-.26-.08-.29-.16-.02-.05-.01-.12.03-.21-.31-.1-.29-.33-.29-.34.29-.24.6-.2.89.03,0-.01-.01-.02-.01-.03-.04-.08-.07-.22-.07-.25.01,0,.02.01.03.01v-.01c0,.01.01.01.02.01.06.01.16.04.31.12.02.01.04.02.06.03-.11-.1-.09-.17-.04-.3l.02-.04h-.03c-.17,0-.77-.1-.84-.26-.01-.03-.01-.06.02-.1.17-.1.34-.15.5-.15.31,0,.54.17.69.28.07.05.13.09.16.09.02-.01.03-.02.04-.03.01-.05-.03-.13-.05-.16-.01,0-.01-.02,0-.03s.02-.01.03,0c.02,0,1.54.72,1.78.72,0,0-.02-.03-.08-.08-.38-.33-1.43-.63-2.13-.84-.59-.17-.67-.2-.67-.25.02-.06.11-.09.27-.13.09-.03.22-.06.24-.1-.01-.05-.16-.11-.25-.14-.09-.04-.15-.06-.17-.09,0,0-.01-.04-.01-.05.05-.07.56-.21.9-.21.13,0,.23.02.3.06.26.13,1.17.5,1.42.5l.04-.04c-.14-.22-1.3-.52-1.9-.64-.03-.02-.1-.07-.12-.16-.01-.05,0-.1.04-.16h-.12c-.29,0-.36-.05-.36-.1-.02-.13.33-.27.43-.31.04,0,1.75.64,2.09.64-.35-.39-1.98-.79-2-.8q0-.01.01-.02v-.01c.03-.07.05-.12.05-.13l-.05.03c-.12,0-.22-.19-.23-.21.02-.04.21-.23.39-.31.04-.02.11-.03.22-.03.39,0,1.14.11,1.15.11s.4.13.56.13c.03,0,.03-.02-.02-.06-.13-.13-.63-.16-1.04-.19-.43-.03-.59-.04-.6-.11-.01-.04.04-.07.08-.09.25-.12.85-.05,1.23.01.14.03.26.05.32.05-.02-.09-.82-.25-1.22-.25h-.07c-.41,0-.63-.35-.63-.35,0-.07.09-.08.18-.08.14,0,.36.02.6.05.37.04.8.07,1,.04-.02-.01-.04-.02-.07-.03-.21-.06-.54-.08-.77-.1-.16-.01-.24-.02-.27-.04-.03-.1.03-.18.28-.18.28,0,.69.1.92.21.06-.01.11-.03.12-.06.02-.04,0-.09-.06-.15-.16-.05-.43-.07-.68-.08-.31-.01-.49-.03-.52-.09-.01-.01,0-.06,0-.06.04-.07.14-.09.33-.09.13,0,.28.01.43.01.15.01.3.02.43.02h.06c-.01-.01-.02-.02-.04-.03-.14-.05-.51-.13-.77-.19-.34-.07-.42-.1-.44-.13.01-.11.16-.11.21-.11.16,0,.4.05.59.08.14.03.26.06.32.06-.21-.18-.51-.29-.71-.37-.16-.06-.23-.09-.24-.13.01-.05.03-.06.05-.08.37-.14.97.33,1.04.39,0-.01,0-.02.01-.04-.02-.04-.03-.1-.04-.17-.02-.11-.28-.33-.39-.41.01,0,.02,0,.03-.01l-.01-.01h.07c.13-.04.28-.07.32-.1-.01-.07-.2-.26-.32-.36.01-.01.02-.01.03-.01l-.01-.01h.01c.03-.01.06-.02.11-.02.09,0,.15-.01.17-.03-.03-.19-.29-.34-.29-.34l.03-.01c0-.01-.02-.01-.02-.01.03-.01.05-.01.08-.02l.11-.04.2-.03.08-1.15c0-.01.01-.02.03-.02.01,0,.02.01.02.02l.12,1.26c0-.02.2-.01.26.06,0,0,.01.06.01.07-.02.12-.24.14-.27.15l.02.2c.02-.03.18-.08.26-.08l.05.01.03.04c-.02.09-.23.25-.28.29.01.09,0,.22.01.24.02-.01.23.06.27.09,0,.01-.01.02-.01.03l-.01.01c-.05.07-.21.15-.31.19,0,.02-.02.13.02.18.05.05.13.01.3-.04.27-.08.63-.17.73-.05.03.03.05.08.04.14-.03.03-.09.04-.18.05-.57.06-.87.13-.88.18.05,0,.13,0,.21-.01.17-.01.38-.03.55-.03.23,0,.34.03.35.1-.01.02-.04.02-.06.03-.01.01-.02.02-.05.02-.09.04-.24.07-.46.08-.23.02-.56.04-.58.09.02,0,.33.02.47-.01.11-.03.31-.08.48-.08.16,0,.26.05.28.15.01.04,0,.07-.02.1-.08.1-.39.1-.68.11-.14,0-.27,0-.37.01-.06.03-.09.09-.09.13.01.04.07.08.16.09.74-.16,1.09-.19,1.14-.08.02.04.01.08-.03.12-.05.03-.16.05-.36.08-.32.05-.86.13-.93.27h.07c.1-.03.19-.04.3-.06.31-.04.71-.07,1-.02.03.13.03.25.03.37v.35c-.13.03-.25.04-.36.04l-.53-.01c-.11,0-.21,0-.32.01-.07.03-.12.06-.12.1,0,.04.05.08.12.11.12,0,.28-.02.44-.05.36-.05.69-.07.76.06-.04.09-.23.12-.53.17-.19.03-.51.08-.52.12.07-.01.15-.03.25-.05.19-.05.42-.11.84-.05.18.03.26.07.27.13.01.11-.3.22-.4.24-.02,0-.75-.16-1.09-.04-.14.04-.16.09-.16.11-.01.06.13.12.19.15,0-.01.43-.25,1.14-.18.49.05.76.33.81.5.02.05.02.09-.01.11l-.07-.01-.01.02c-.01,0-.04-.01-.1-.01-.37,0-1.44.22-1.79.31-.14.03-.15.06-.15.07.02.05.15.09.17.09s.97-.15,1.46-.22c0,0,.09-.01.82-.11.26-.03.38-.01.41.07.04.11-.16.28-.18.3l.06.22-.87.36c.08.01.33.14.76.14.33,0,.58.16.58.3,0,.04-.03.08-.08.1-.05.03-.12.04-.21.04h-.06c-.39,0-.78.12-.97.18.21.02.65.06,1.05.06h.11c.2,0,.3.03.33.11.05.11-.07.24-.09.27.03,0,.14.07.17.16.01.05.01.09-.01.13-.04.06-.13.05-.25.01-.18-.06-.37-.08-.44.11-.14.39-.42.42-.66.44l-.09.01c-.11.02-.17.06-.17.1s.1.09.29.07c.12-.02.28-.09.43-.17.18-.08.34-.16.47-.16.14,0,.21.08.23.25.01-.01.03-.03.05-.06.09-.11.32-.31.47-.32h.08c.02.03.03.08.03.15-.23.31-.68.69-1.64.8-.12.08-.31.31-.27.36,0,.01.03.02.04.02.16-.08.87-.38,1.33-.38.24,0,.38.07.43.22-.01.02-.05.03-.07.05-.01.01-.01.02-.03.03-.2.14-.68.15-.74.15-.06.05-.23.08-.43.11-.11.02-.22.04-.31.06-.05.02-.14.07-.15.11,0,.03.02.05.05.07,0-.01.02-.01.04-.02.2-.06.77-.21.9-.07.03.03.04.06.05.11.01-.01.03-.01.07-.02.17-.05.32-.06.41-.06.24,0,.4.05.48.14.05.05.08.12.07.2-.09.09-1.09.19-1.29.21-.14.01-.37.04-.42.07.02,0,.09.03.34.06.03-.01.08-.01.14-.01h.14c.13,0,.29,0,.5-.02.26-.07.44-.1.53-.1.02,0,.09,0,.09.05,0,.09-.39.26-.47.27-.17.02-.96.08-.99.08-.23.15-.61.39-.65.44h.02c.16-.03.48-.08.66-.14.06-.02.12-.05.18-.08.21-.1.44-.17.63-.02.17-.15.44-.22.61-.22.12,0,.19.03.21.09.02.09-.1.2-.37.35-.23.06-.54.15-1.06.16-.65.1-1.21.25-1.21.32.15-.03.96-.18,1.23-.02l.09-.04c.26-.09.67-.2.84-.03.35-.13.68-.09.75.05.02.05.01.11-.03.17-.14.19-.85.28-1.24.22-.21-.04-.35.07-.36.18,0,.06.05.11.14.12.14.01.24-.02.35-.06.26-.07.53-.09.66.12.2-.23.7-.23.79-.04.02.05.03.14-.06.26-.16.02-.31.02-.46.02-.53,0-1.08-.04-1.6-.07-.34-.03-.67-.05-1.01-.07-.03.02-.06.05-.06.06,0,.02.01.05.1.1Z" fill="#e3e7ea"/></g><g><path d="m34,8H6c-2.209,0-4,1.791-4,4v16c0,2.209,1.791,4,4,4h6.059V8h15.883v24h6.058c2.209,0,4-1.791,4-4V12c0-2.209-1.791-4-4-4Z" fill="#018434"/><path d="m23.071,24.215c.523.038,1.065.078,1.6.078.147,0,.294-.003.461-.02.092-.121.081-.208.056-.261-.092-.191-.592-.188-.785.04-.13-.216-.398-.192-.661-.117-.11.031-.216.061-.348.058-.093-.011-.147-.058-.143-.125.006-.103.148-.216.361-.182.391.059,1.098-.021,1.238-.214.044-.061.053-.123.027-.175-.07-.14-.398-.172-.749-.049-.166-.166-.579-.062-.837.029l-.086.039c-.271-.155-1.082-.004-1.237.025.004-.068.561-.216,1.213-.324.522-.009.831-.095,1.06-.158.266-.144.39-.262.368-.349-.014-.057-.087-.088-.203-.088-.17,0-.445.069-.615.221-.192-.151-.424-.077-.629.021-.06.029-.119.057-.177.077-.188.063-.503.112-.664.138-.006,0-.014,0-.018,0,.039-.046.419-.29.645-.434.034-.002.827-.061.991-.084.084-.012.475-.18.475-.274-.003-.046-.068-.046-.09-.046-.091,0-.272.034-.533.101-.208.018-.372.021-.502.021h-.135c-.058,0-.107,0-.145.004-.272-.029-.339-.066-.351-.053.047-.031.289-.063.434-.077.2-.018,1.201-.114,1.295-.203.004-.083-.019-.153-.07-.207-.086-.091-.248-.138-.482-.138-.089,0-.237.014-.413.064-.035.006-.058.01-.073.012,0-.044-.013-.081-.041-.109-.134-.137-.703.01-.903.071-.031.01-.052.016-.045.021-.029-.018-.046-.036-.047-.07.014-.043.099-.091.147-.11.095-.024.208-.041.318-.058.199-.03.371-.057.424-.109.065,0,.541-.017.745-.157.011-.008.02-.016.029-.024.021-.019.057-.032.067-.056-.052-.144-.194-.217-.426-.217-.468,0-1.176.3-1.329.378-.018,0-.041-.003-.049-.014-.036-.053.156-.278.273-.359.956-.114,1.416-.494,1.638-.805.006-.07-.004-.118-.03-.147-.016-.017-.048-.002-.073-.002-.002,0-.004,0-.007,0-.143.009-.375.208-.465.325-.024.023-.042.041-.053.052-.02-.163-.092-.251-.223-.251s-.299.081-.476.166c-.152.073-.308.148-.43.163-.191.022-.284-.023-.286-.066-.002-.036.054-.083.164-.097l.098-.011c.24-.025.512-.053.652-.437.072-.195.267-.175.44-.118.122.04.218.058.253-.009.021-.04.025-.082.013-.124-.03-.102-.149-.169-.176-.163.027-.03.14-.165.095-.27-.032-.076-.131-.114-.329-.114h-.113c-.396,0-.842-.039-1.045-.059.184-.061.579-.177.962-.177h.066c.092,0,.163-.011.213-.036.05-.025.077-.063.077-.108,0-.139-.256-.3-.586-.3-.423,0-.677-.121-.753-.134-.003-.002-.004-.002-.006-.003l.878-.356-.067-.224c.023-.018.221-.183.182-.296-.029-.083-.145-.107-.414-.073-.731.096-.813.108-.813.108-.496.077-1.441.223-1.466.226-.021-.004-.144-.047-.165-.095.001-.005.013-.035.144-.069.355-.09,1.422-.31,1.795-.31.059,0,.087.006.1.01l.009-.024.073.017c.024-.022.028-.062.011-.112-.054-.168-.324-.453-.813-.503-.706-.072-1.144.173-1.135.18-.065-.024-.2-.092-.199-.15,0-.021.022-.065.162-.112.345-.117,1.07.047,1.095.048.095-.028.402-.13.395-.243-.004-.062-.087-.102-.268-.13-.42-.064-.65-.004-.841.046-.095.025-.178.046-.253.055.012-.047.332-.095.522-.125.306-.047.496-.079.531-.165-.073-.138-.401-.114-.756-.062-.16.024-.325.048-.446.05-.072-.031-.115-.072-.114-.109,0-.038.046-.077.116-.106.108-.004.214-.005.32-.005l.534.004c.111,0,.223-.001.36-.033-.006-.111-.006-.232-.006-.354,0-.117,0-.235-.026-.366-.291-.055-.686-.019-.997.021-.114.014-.208.032-.302.052-.023.001-.051.004-.072.004.072-.142.607-.224.934-.273.196-.029.308-.046.357-.074.036-.046.047-.085.031-.118-.053-.114-.407-.089-1.141.077-.091-.013-.148-.046-.157-.091-.009-.042.029-.095.084-.132.098-.011.231-.012.368-.013.297-.002.604-.003.685-.109.021-.027.027-.058.018-.093-.02-.099-.115-.15-.283-.15-.165,0-.369.049-.479.076-.142.033-.451.015-.472.013.023-.051.359-.074.581-.089.228-.015.369-.038.465-.078.019-.008.039-.015.053-.025.013-.01.044-.012.052-.025-.008-.073-.116-.106-.35-.106-.17,0-.375.017-.542.031-.087.007-.163.013-.215.008.012-.052.308-.113.879-.181.089-.01.152-.018.182-.046.007-.06-.005-.108-.036-.142-.103-.117-.465-.029-.738.053-.164.049-.244.086-.297.039-.038-.045-.014-.156-.015-.18.1-.045.253-.121.306-.19.003-.002.012-.007.013-.009h0v-.002s0-.002,0-.002h-.002s-.001-.002-.002-.003c.004-.007.013-.015.014-.022-.042-.033-.257-.106-.275-.097-.008-.02-.003-.15-.004-.24.042-.032.253-.197.27-.288l-.027-.042s-.044-.009-.048-.009c-.085,0-.241.051-.257.081l-.021-.202c.025-.003.244-.031.269-.151,0-.002-.015-.063-.015-.065-.056-.075-.256-.085-.255-.063l-.118-1.254c-.001-.013-.012-.023-.025-.023-.013,0-.024.01-.025.023l-.084,1.148-.194.029-.114.043-.076.012s.012.008.018.011l-.03.011s.262.152.294.343c-.028.021-.09.033-.173.033-.048,0-.084.003-.11.02-.002,0-.01,0-.01,0,0,0,.005.004.005.005-.007.005-.017.006-.021.015.116.1.305.282.317.354-.039.036-.191.062-.323.099-.041.004-.072.006-.072.006,0,0,.012.009.015.011-.01.003-.021.006-.03.009.102.075.372.294.39.412.01.067.018.122.033.17-.001.017-.003.024-.004.034-.074-.061-.667-.53-1.04-.385-.024.012-.04.026-.05.076.014.043.084.072.241.131.199.075.5.189.711.365-.059,0-.179-.024-.318-.051-.192-.038-.432-.085-.595-.085-.049,0-.196,0-.211.113.017.032.103.054.437.128.266.059.633.142.778.192.015.008.023.016.033.025h-.059c-.125,0-.276-.006-.426-.013-.151-.007-.302-.014-.428-.014-.196,0-.294.017-.334.086-.004.008-.006.053-.002.061.036.066.213.078.524.094.245.012.524.027.681.078.052.061.075.115.061.149-.013.032-.062.053-.124.061-.234-.114-.644-.206-.915-.206-.256,0-.311.08-.288.178.033.017.117.024.275.036.231.018.555.046.77.103.025.01.047.022.068.034-.195.031-.627-.007-1-.045-.239-.026-.461-.049-.602-.049-.092,0-.178.008-.177.078.002.003.216.351.634.351h.061c.407,0,1.199.165,1.222.247-.061,0-.175-.019-.317-.042-.385-.062-.983-.132-1.226-.016-.047.023-.095.051-.087.092.012.067.167.083.605.112.404.026.907.059,1.042.185.049.046.05.062.01.066-.153,0-.547-.132-.555-.135-.007,0-.758-.107-1.147-.107-.112,0-.184.008-.221.026-.179.084-.376.271-.389.309.011.022.108.211.226.211l.051-.026c0,.012-.025.061-.049.128,0,0-.006.009-.006.009,0,0,.003,0,.003,0-.003.009-.006.014-.009.024.017.004,1.647.408,1.997.796-.339,0-2.047-.636-2.081-.642-.108.041-.459.182-.438.31.008.05.075.104.363.097.04.003.07.008.119.009-.033.054-.05.107-.039.159.017.085.088.137.117.154.599.127,1.768.427,1.904.645l.021-.014-.057.055c-.257,0-1.17-.377-1.428-.508-.069-.035-.168-.052-.294-.052-.343,0-.856.14-.903.21-.003.004.006.044.006.049.023.025.08.048.171.083.093.036.248.096.253.147-.018.035-.148.07-.243.096-.155.042-.25.07-.264.136,0,.046.081.076.665.247.7.204,1.758.513,2.137.836.08.068.09.092.077.085-.244,0-1.765-.719-1.78-.727-.012-.006-.024-.002-.031.007-.008.009-.008.022,0,.031.018.024.064.105.05.152-.005.016-.018.028-.043.037-.029,0-.086-.042-.152-.091-.153-.113-.384-.282-.691-.282-.164,0-.332.05-.507.155-.028.037-.023.071-.014.093.07.162.665.264.834.261.012.002.024.003.034.005l-.016.04c-.05.122-.072.196.041.3-.024-.012-.047-.023-.07-.034-.15-.073-.243-.113-.309-.116-.003-.001-.014-.007-.016-.007h-.004s0,.003,0,.004c-.007,0-.02-.006-.026-.004,0,.02.03.166.071.245.003.013.004.021.006.031-.288-.227-.599-.269-.89-.027,0,.002-.014.234.296.336-.044.092-.054.157-.033.208.033.08.133.114.285.165.092.031.207.071.338.131-.311-.054-.531-.003-.54.12-.009.113.163.22.417.26.121.019.284.037.471.056.736.08,1.847.2,2.152.602.081.108.087.141.089.144-.064,0-.288-.142-.452-.245-.125-.079-.203-.119-.267-.124-.002,0-.009-.005-.01-.005,0,0,0,0,0,0,0,0,0,0,0,.002,0,0,0,0,0,0-.008,0-.019-.007-.027-.005-.019.044-.034.192-.014.23,0,.004,0,.004,0,.007-.233-.136-.475-.275-.808-.326-.014.028-.019.06-.024.09-.003.02-.006.039.003.052-.251-.182-.496-.331-.93-.332l-.023.095.013.053c-.002.006-.003.013-.005.019-.032-.036-.175-.182-.444-.182-.173,0-.36.064-.556.19-.018.012-.071.052-.058.099.023.083.24.103.652.132.408.029.916.065,1.051.213.139.152.143.229.133.262-.011.038-.049.05-.049.053l-.708-.262s-.327-.06-.626-.06c-.227,0-.385.034-.467.101-.008.006-.021.039-.02.049.02.086.348.167,1.21.357.965.213,2.287.504,2.345.79,0,0-.035.043-.035.044-.105,0-.357-.11-.649-.237-.297-.129-.633-.276-.987-.357l-.036.183-.025.073c-.029-.028-.259-.235-.563-.314-.043-.014-.084-.034-.129-.041,0,0,0,0,0,.002v.002s.001.005.001.007c-.009,0-.017-.006-.026-.006,0,.034.042.196.083.263.003.012.004.016.006.024-.08-.037-.586-.263-1.023-.263-.137,0-.253.023-.345.069-.022.011-.088.043-.081.096.015.107.362.172.928.27.402.069.858.148.938.263-.049,0-.141-.022-.238-.045-.203-.049-.425-.091-.465-.012-.012.028-.262-.004-.501-.059-.261-.06-.487-.109-.545-.047-.005.005-.017.042-.016.049.012.199.146.312.165.322.799.078,2.085.265,2.131.46-.006.008-.028.026-.113.026-.301,0-1.011-.206-1.035-.215-.005.007-.081.134-.032.215.002.011.009.021.015.031-.008-.005-.015-.009-.026-.015-.155-.09-.515-.285-.603-.179-.02.025-.021.059.01.084,0,.002,0,.004,0,.006l-.132-.056c-.275-.118-.661-.28-.729-.18-.016.023-.016.054-.001.093.083.221,1.305.498,1.751.592-.201.027-.506.083-.588.192-.01.013-.017.027-.016.039-.366-.223-.636-.337-.803-.337-.102,0-.145.043-.163.079-.01.019-.014.039-.014.057l-.01-.009c-.116-.026-.387-.087-.538-.087-.048,0-.112.005-.123.05-.011.045.028.114.386.311.579.318.633.4.634.415l.018.019-.072-.018-.034.042c.014.023.074.194.102.226,0,.002,0,.005.001.007-.013-.005-.054-.025-.116-.056-.215-.107-.617-.307-.817-.327-.171,0-.614.122-.661.349-.034.163.142.332.524.501.253.113.508.154.756.167.014,0,.029.003.043.003.351.013.685-.04.965-.114.247-.066.476-.127.692-.102.492.056.754.133.826.243.021.031.025.067,0,.12-.028,0-.082-.033-.146-.072-.13-.079-.307-.187-.516-.187-.204,0-.396.108-.545.312-.528-.106-.872-.154-.944-.016-.026.052,0,.125.058.206.015.03.034.063.058.1-.332-.121-.593-.151-.752-.151-.267,0-.445.073-.454.185-.012.155.296.298.826.382,1.367.045,2.238-.332,2.241-.359.011.02.144.256.357.256.087,0,.174-.039.26-.117.202-.184.289-.06.316.08l.038.045c.026-.007.328-.143.323-.143l.058-.026.025,2.891,1.142.011h0c.007,0,.014-.003.019-.009.005-.006.007-.013.006-.021-.004-.024-.362-2.49-.169-2.812.151-.25.289-.272.36-.275.026.008.643.195.803.195.002,0,.056-.018.058-.019.02-.018.029-.047.039-.078.023-.076.05-.161.247-.161.021,0,.045,0,.082.002.079-.029.096-.111.11-.177.009-.045.018-.087.063-.107.025,0,.127.022.255.05.391.084,1.118.241,1.727.241.464,0,.773-.093.924-.302-.044-.117-.127-.176-.247-.176-.118,0-.253.059-.351.102-.054.024-.1.044-.122.046-.022,0-.069-.013-.122-.028-.2-.055-.572-.106-.675.033-.238-.182-1.277-.3-1.306-.277.01-.008.068-.026.38-.026.256,0,.604.011.953.023.351.012.701.023.96.023.321,0,.39-.018.419-.039.065-.067.088-.126.067-.177-.044-.107-.263-.123-.39-.123-.165,0-.37.028-.411.081-.234-.145-.615-.171-.75-.025-.068-.164-.474-.171-.904-.178-.204-.003-.41-.007-.562-.025-.085-.051-.098-.08-.097-.093,0-.018.025-.04.06-.063.337.015.674.04,1.011.064Zm-5.792.123c.016-.003.032-.007.048-.008l.019-.024h.002v.023c.094,0,.208.033.335.081,0,.007-.005.134.012.163-.051-.016-.234-.079-.356-.17-.022-.021-.043-.042-.059-.066Zm.35-7.782s.002,0,.003,0c-.004.005-.002.009-.005.014,0-.005.001-.009.002-.014Zm2.182-2.614s-.01,0-.015,0l.01-.003s.004.002.005.003Zm-.052.828l.02.101v.007c-.106-.005-.267-.025-.29-.044.06-.042.169-.053.234-.06.014-.001.027-.003.037-.004Zm.02.011l-.003-.014s.002,0,.003,0v.015Zm0-.018s-.002-.002-.005-.005l-.004-.017s.003,0,.004,0c0,0,0,0,0,0h.002s0,0,0,0h0s0,.023,0,.023Zm-.155-.178c-.009.002-.025.002-.036.004.007-.004.015-.006.021-.01.004.002.01.004.014.007Zm-1.42,3.207s.002,0,.003,0v.022c.18,0,.593.096,1.529.548.001.036.005.113.025.131-.156-.055-1.718-.611-1.694-.637.017-.024.057-.038.114-.041l.023-.023Zm1.485-1.685c-.095-.029-1.124-.33-1.248-.33l-.019-.003s.03-.027.171-.033c.154,0,.466.036,1.065.222.002.036.009.122.031.141,0,.002,0,.003,0,.004Zm0,.022s0,0,0,.002h0s0,.002-.002.002c0,0-.018-.006-.028-.009.012.002.023.004.031.005Zm-.551.101l.015-.024s0,0,.001,0v.024c.122,0,.337.042.48.07.071.014.123.024.117.043.003.042.01.154.015.17-.099-.027-.656-.219-.685-.272.006-.004.024-.01.056-.011Zm-.719,1.367c-.012-.018-.023-.045-.015-.062.007-.015.033-.025.091-.028.131,0,.447.069,1.189.371l.004.155c-.48-.148-1.223-.389-1.27-.436Zm1.347.923h0s-.002.001-.002.001c-.001,0-.014-.005-.017-.006.006.001.015.004.019.005Zm-1.653,1.157c.176,0,.592.076,1.558.419l.028.162c-.258-.084-1.679-.548-1.705-.553.008-.009.029-.024.12-.028Zm1.588-.149c-.168-.072-1.09-.458-1.24-.469-.005-.015-.007-.032,0-.042.008-.013.029-.021.076-.023.243,0,.856.264,1.086.364.038.016.066.029.076.023-.001.017-.002.045-.003.092,0,.022-.001.043.005.057Zm-1.246-.44v-.004s0,.004,0,.004h0Zm1.263.469s0,.002,0,.002c0,0,0,.002,0,.003h-.002s-.022-.01-.038-.016c.018.006.029.008.04.011Zm-.174,3.392c-.232,0-.678-.249-.683-.308,0,0,.009-.008.044-.009v-.026s.004.026.004.026c.511.056.685.253.725.284-.015.027-.057.032-.09.032Zm-.978.675h0s0,0,.001,0c0,0,0,0-.001,0Zm.109-.008l.009-.023s0,0,0,0v.023c.077,0,.148.043.223.088l.068.033c.045-.009.102-.013.162-.013.204,0,.455.042.47.028l-.01.171c-.148,0-.542-.03-.645-.091-.088,0-.345-.142-.373-.187.033-.018.066-.028.097-.03Zm.566.615l.027-.024h.002v.024c.165,0,.328.057.336.055.031.062.074.189.015.234-.08.042-.563-.051-.598-.205.048-.05.122-.078.218-.083Zm1.275-.89c-.054,0-.1-.005-.114.002v-.069c.012-.002.03-.006.054-.011.07-.015.176-.039.271-.043.035,0,.05.007.052.031-.042.079-.182.091-.263.091Zm.471.445c-.092.133-.27.16-.402.16-.075,0-.141-.009-.172-.009-.009,0-.014,0-.017.002l-.015-.121c.092-.003.212-.031.327-.058.096-.022.187-.044.249-.047l.012-.022s.006.002.01.002l.036.029s.007.014-.028.063Zm-.61-1.252c0-.022.011-.112.005-.117.395-.239,1.123-.466,1.5-.469l.008-.024s0,0,0,0v.024c.09,0,.157.014.183.021-.004.03-.067.161-.292.217-.177,0-.634.105-1.282.314-.061.017-.102.029-.123.035Zm1.021-3.995l.027.014c-.137.125-1.013.284-1.118.303,0-.021,0-.061-.004-.117.021,0,.125-.02.262-.047.252-.049.633-.125.802-.131l.019-.023c.006,0,.007.001.012.002Zm-.26,1.092h0s-.002.004-.003.005l.004-.005h0Zm-.85-.749h0s0,0,0,0c0,0,0,0,0,0h0Zm.807.218l.034-.023s.003,0,.004,0v.022h.021c-.131.057-.506.148-.77.225-.027.006-.048.01-.062.013l-.023-.14c.028-.006.553-.085.795-.097Zm-.675.605c.152-.022.448-.064.609-.07l.023-.023s.002,0,.003,0v.022c.014,0,.026,0,.034,0-.108.055-.463.146-.691.219-.012.002-.022.005-.03.007,0-.005-.016-.135-.039-.144.013-.001.046-.006.091-.012Zm-.042.422c.181.012.285.03.31.041-.026.042-.207.074-.299.107,0,0-.01-.097-.018-.154l.007.006Zm-.009.497l.039-.008c.136-.027.454-.089.65-.094.072,0,.084.013.053.041-.228.189-.721.235-.742.261v-.2Zm1.375.084v.023c.077,0,.089.018.091.021,0,.005-.005.024-.043.061-.054.051-.746.288-1.247.478-.066.021-.11.036-.13.042,0-.021-.011-.269-.023-.277.676-.207,1.125-.316,1.334-.325l.018-.024h.002Zm-.884.831l.042-.025s.002,0,.003,0v.024c.08,0,.102.012.106.012-.087.086-.482.118-.616.147-.003,0-.009,0-.011,0l-.025-.115c.048-.001.123-.009.206-.018.098-.01.206-.022.294-.025Zm-.455.568c.002-.022.007-.104-.011-.108.008,0,.026-.004.159-.039.232-.06.713-.184.861-.189-.204.141-.887.286-.99.332-.01.002-.013.003-.02.004Zm-.016-.772s.001.005.002.007h-.001s0-.006,0-.007Zm-.033-3.274c-.017.004-.034.008-.045.01v-.147c.022-.005.058-.013.101-.023.161-.038.429-.102.608-.11-.086.098-.49.206-.664.27Zm-.069.016s-.001,0-.001,0v-.009.009Zm.015,1.266h0s0-.002,0-.002v.002Zm.262,5.013l.006-.025h0v.025c.207,0,.4.052.418.11-.014.017-.058.045-.203.045-.138,0-.3-.026-.358-.026-.012,0-.02,0-.021.004l-.018-.112c.042-.013.103-.02.176-.021Zm1.233-1.714v.024l.045-.014v.031c-.007.012-.039.042-.173.042-.017,0-.034,0-.049,0h-.006c.055-.027.127-.057.179-.059l.005-.024s0,0,0,0Zm-.826-5.958c.16,0,.182.021.18.023-.093.11-.681.215-.904.273-.013.002-.019.003-.027.004l-.036-.235s.439-.06.738-.065h.05Zm-.777-1.504l-.009-.197c.182.002.495.022.523.053-.02.043-.282.094-.496.142-.006,0-.014.002-.018.002Zm.188.157c-.032.041-.201.059-.212.072-.004-.009-.009-.053-.013-.097.01,0,.023.002.036.003.047.005.172.017.188.021Zm.35-.303s0,.001,0,.002v.007s-.001.003-.002.004c-.003.006-.022.01-.029.016.011-.009.024-.018.03-.029Zm1.562,7.843s-.009,0-.01,0c0,0-.002,0-.003,0h-.001s0-.003,0-.003h0v-.002s0-.002,0-.003c.006-.01.036-.033.074-.061-.03.027-.049.05-.06.07Zm1.034-1.307s0,0,0,0c0-.001-.001-.002-.001-.003,0,.001.001.001.002.003Zm.183-1.382s-.008.008-.008.008c-.004-.043-.017-.067-.027-.097.013.024.024.055.035.089Zm-1.396-2.17s-.013-.007-.013-.007c.029-.011.059-.022.088-.033l-.075.041Zm-.566-2.288s-.002,0-.002,0c-.003-.003-.009-.003-.012-.006.003.002.012.003.014.005Zm-1.41-3.344s-.005.002-.005.002v-.04l.005.038Zm-.634-.067s.01,0,.013,0c.008.008.011.01.023.021-.012-.007-.027-.018-.036-.021Zm-.101.475s.014,0,.019-.001c.011.009.016.012.035.028-.019-.01-.043-.025-.054-.026Zm.39.632s-.001.009-.001.01c-.003-.003-.017-.014-.038-.031.014.008.03.018.039.021Zm-2.115,2.548s.005-.007.007-.01c.013.003.024.006.058.015-.029-.004-.059-.008-.065-.005Zm-.62,2.754s.005.002.005.002c0,.003,0,.006.002.01-.002-.003-.005-.012-.007-.013Zm.056.268c.001.005.004.018.004.018-.026-.021-.054-.033-.08-.052.026.012.05.02.077.034Zm1.806,1.859v.009c-.036-.021-.071-.037-.105-.057.035.016.069.032.105.048Zm-.825-.172s0,.001,0,.002c-.009-.006-.017-.011-.026-.017.009.005.017.01.026.015Zm-.953-.17s0,.003-.001.005c0,0-.005-.006-.008-.009.003.002.006.003.009.004Zm.73,1.445s0,.002-.001.004c-.001,0-.012-.01-.014-.013.005.003.012.007.016.009Zm-.688-.352s.005.002.007.002c0,.003.001.006.002.01-.003-.003-.006-.011-.009-.012Zm.071.285l.003.012s-.02-.009-.05-.022c.018.005.037.01.047.01Zm-.843,1.053s-.002.005,0,.009c-.011-.004-.025-.011-.037-.016l.038.007Zm-.33,1.441h0s0,.001,0,.001h-.002s-.002,0-.002,0c.002,0,.003,0,.005,0Zm.183,1.113c.005.008.007.013.012.021-.068-.026-.128-.037-.193-.056.061.012.112.019.18.035Z" fill="#018434"/></g></g><rect x="11.341" y="32.141" width="15.883" height="0" fill="#e3e7ea"/></svg>