<?xml version="1.0" encoding="UTF-8"?><svg id="a" xmlns="http://www.w3.org/2000/svg" viewBox="0 0 40 40"><g><path d="M34,8H6c-2.209,0-4,1.791-4,4v1.992H38v-1.992c0-2.209-1.791-4-4-4Z" fill="#30298a"/><path d="M2,28c0,2.209,1.791,4,4,4h28c2.209,0,4-1.791,4-4v-2.008H2v2.008Z" fill="#30298a"/></g><path d="M2,25.992H38V13.992H2v12Zm22.028-.514h-3.198v-3.47h3.198v3.47Zm3.085-3.002v.521h.441v.801h.482v.801h.441l-.04,.881h-2.718v-3.47h.758l.047,.067h.389v.401h.201Zm-13.706-3.688l.2,.18v-.421h.161v.201h.321v-.642l.38,.341-.12-.431,.22-.991h.12s.099-.421,.3-.421c0,0-.08-.259,.08-.259,.161,0,.121,.2,.121,.2,0,0,.28,.121,.28,.42l.161-.02,.241,1.161-.17,.341,.391-.341v.882h2.127v-.801l.121,.12v.281h.28v-.281l-.201-.18v-.38l.161,.17,.24-.331v-.281l.14,.139,.039-.24-.201-.32,.031-.26,.23,.28v-.24l-.1-.22,.46-1.163,.111-.322,.17-.02v-.161s.12-.28,.28-.28,.281,.28,.281,.28v.161l.17,.02,.11,.322,.461,1.163-.1,.22v.24l.229-.28,.03,.26-.201,.32,.041,.24,.14-.139v.281l.241,.331,.162-.17v.38l-.201,.18v.281h.28v-.281l.121-.12v.801h2.123v-.882l.391,.341-.17-.341,.241-1.161,.16,.02c0-.299,.28-.42,.28-.42,0,0-.04-.2,.121-.2s.081,.259,.081,.259c.201,0,.299,.421,.299,.421h.121l.221,.991-.121,.431,.381-.341v.643h.319v-.201h.161v.421l.201-.18v1.322l-.241,.241v1.321h-.594v-1.542h-.3v5.347h-1.01v-5.347h-.379v1.542h-3.198v-1.542h-.31v5.347h-.982v-5.347h-.314v1.542h-3.28v-1.55h-.293v5.349h.293v-3.462h3.28v3.47h-4.591v-5.347h-.304v1.542h-.683v-1.322l-.24-.241v-1.322Zm-1.844,5.81h.442v-.802h.44v-.8h.402v-.521h.279v-.401h.309l.046-.066h.849v3.47h-2.807l.04-.881Z" fill="#cc001c"/><g><path d="M13.647,21.673h.683v-1.542h.304v5.347h4.591v-3.47h-3.28v3.462h-.293v-5.349h.293v1.55h3.28v-1.542h.314v5.347h.982v-5.347h.31v1.542h3.198v-1.542h.379v5.347h1.01v-5.347h.3v1.542h.594v-1.321l.241-.241v-1.322l-.201,.18v-.421h-.161v.201h-.319v-.643l-.381,.341,.121-.431-.221-.991h-.121s-.099-.421-.299-.421c0,0,.08-.259-.081-.259s-.121,.2-.121,.2c0,0-.28,.121-.28,.42l-.16-.02-.241,1.161,.17,.341-.391-.341v.882h-2.123v-.801l-.121,.12v.281h-.28v-.281l.201-.18v-.38l-.162,.17-.241-.331v-.281l-.14,.139-.041-.24,.201-.32-.03-.26-.229,.28v-.24l.1-.22-.461-1.163-.11-.322-.17-.02v-.161s-.121-.28-.281-.28-.28,.28-.28,.28v.161l-.17,.02-.111,.322-.46,1.163,.1,.22v.24l-.23-.28-.031,.26,.201,.32-.039,.24-.14-.139v.281l-.24,.331-.161-.17v.38l.201,.18v.281h-.28v-.281l-.121-.12v.801h-2.127v-.882l-.391,.341,.17-.341-.241-1.161-.161,.02c0-.299-.28-.42-.28-.42,0,0,.04-.2-.121-.2-.16,0-.08,.259-.08,.259-.201,0-.3,.421-.3,.421h-.12l-.22,.991,.12,.431-.38-.341v.642h-.321v-.201h-.161v.421l-.2-.18v1.322l.24,.241v1.322Z" fill="#fff"/><rect x="20.831" y="22.009" width="3.198" height="3.47" fill="#fff"/><polygon points="26.523 22.075 26.477 22.009 25.718 22.009 25.718 25.479 28.436 25.479 28.476 24.598 28.036 24.598 28.036 23.797 27.554 23.797 27.554 22.997 27.113 22.997 27.113 22.476 26.912 22.476 26.912 22.075 26.523 22.075" fill="#fff"/><polygon points="14.331 22.009 13.481 22.009 13.435 22.075 13.126 22.075 13.126 22.475 12.847 22.475 12.847 22.996 12.445 22.996 12.445 23.796 12.005 23.796 12.005 24.598 11.564 24.598 11.524 25.479 14.331 25.479 14.331 22.009" fill="#fff"/></g></svg>