<?xml version="1.0" encoding="UTF-8"?><svg id="Layer_1" xmlns="http://www.w3.org/2000/svg" viewBox="0 0 40 40"><rect x="2" y="8" width="36" height="24" rx="4" ry="4" fill="#4772bb"/><path d="m34.005,8H5.995c-.068,0-.132.017-.199.02h28.407c-.067-.003-.131-.02-.199-.02Z" fill="none"/><path d="m4.418,31.674L38,14.316v-1.2L3.387,31.008c.309.269.65.501,1.031.666Z" fill="#f3d400"/><path d="m2,25.724v1.2L36.644,9.017c-.306-.271-.646-.503-1.024-.671L2,25.724Z" fill="#f3d400"/><path d="m2,28.004c0,1.204.544,2.271,1.387,3.004L38,13.117v-1.121c0-1.19-.53-2.246-1.356-2.978L2,26.924v1.081Z" fill="#cf0028"/><polygon points="8.079 10.546 9 13.415 11.98 13.415 9.569 15.189 10.49 18.058 8.079 16.285 5.668 18.058 6.589 15.189 4.178 13.415 7.158 13.415 8.079 10.546" fill="#f3d400"/></svg>