<svg id="Layer_1" data-name="Layer 1" xmlns="http://www.w3.org/2000/svg" xmlns:xlink="http://www.w3.org/1999/xlink" viewBox="0 0 40 40"><defs><style>.cls-1{fill:none;}.cls-2{clip-path:url(#clip-path);}.cls-3{fill:#bd1f37;}.cls-4{fill:#e5e8eb;}.cls-5{clip-path:url(#clip-path-2);}.cls-6{fill:#efeceb;}.cls-7{fill:#d31f3c;}.cls-8{fill:#90857d;}.cls-9{fill:#c9c9ca;}.cls-10{fill:#cdcdce;}</style><clipPath id="clip-path"><rect id="SVGID" class="cls-1" x="1.465" y="9.038" width="37.07" height="21.925" rx="4"/></clipPath><clipPath id="clip-path-2"><rect id="SVGID-2" data-name="SVGID" class="cls-1" x="1.465" y="9.038" width="37.07" height="21.925"/></clipPath></defs><g class="cls-2"><rect class="cls-3" x="20" y="9.038" width="18.535" height="21.925"/><rect class="cls-4" x="1.465" y="9.038" width="18.535" height="21.925"/><g class="cls-5"><path class="cls-6" d="M5.752,12.375c0,.035-.039.063-.087.063s-.088-.028-.088-.063.039-.064.088-.064.087.029.087.064Z"/><path class="cls-7" d="M3.01,12.067v1.615H4.6a.574.574,0,0,0,.531.538v1.614H6.725V14.22a.575.575,0,0,0,.531-.538H8.848V12.067H7.256a.575.575,0,0,0-.531-.538V9.915H5.133v1.614a.574.574,0,0,0-.531.538Z"/><path class="cls-3" d="M3.062,12.121v1.507H4.655a.574.574,0,0,0,.531.538v1.615H6.672V14.166a.574.574,0,0,0,.531-.538H8.8V12.121H7.2a.574.574,0,0,0-.531-.538V9.969H5.186v1.614a.574.574,0,0,0-.531.538Z"/><path class="cls-8" d="M3.116,12.175v1.4H4.708a.574.574,0,0,0,.531.538v1.615h1.38V14.112a.574.574,0,0,0,.53-.538H8.742v-1.4H7.149a.575.575,0,0,0-.53-.539V10.022H5.239v1.614a.575.575,0,0,0-.531.539Z"/><path class="cls-9" d="M3.169,12.229V13.52H4.761a.575.575,0,0,0,.531.538v1.615H6.566V14.058a.574.574,0,0,0,.53-.538H8.689V12.229H7.1a.574.574,0,0,0-.53-.539V10.076H5.292V11.69a.575.575,0,0,0-.531.539Z"/><path class="cls-10" d="M5.305,11.557c.093.094.017.325-.169.514s-.413.266-.506.171-.018-.324.169-.514.413-.265.506-.171Z"/><path class="cls-8" d="M5.192,11.671a.293.293,0,0,1-.056.4.285.285,0,0,1-.394.057.3.3,0,0,1,.057-.4.283.283,0,0,1,.393-.057Z"/><polygon class="cls-10" points="4.723 11.957 4.761 11.919 4.911 11.995 4.836 11.843 4.873 11.805 5.024 12.109 4.723 11.957"/><polygon class="cls-10" points="4.949 11.728 4.986 11.69 5.211 11.918 5.174 11.957 4.949 11.728"/><path class="cls-10" d="M7.228,12.242c-.093.095-.32.018-.506-.171s-.263-.42-.17-.514.321-.018.507.171.262.419.169.514Z"/><path class="cls-8" d="M7.116,12.128a.285.285,0,0,1-.394-.057.3.3,0,0,1-.057-.4.284.284,0,0,1,.394.057.3.3,0,0,1,.057.4Z"/><polygon class="cls-10" points="6.834 11.652 6.872 11.69 6.797 11.843 6.947 11.766 6.984 11.805 6.684 11.957 6.834 11.652"/><polygon class="cls-10" points="7.059 11.88 7.097 11.919 6.872 12.147 6.834 12.109 7.059 11.88"/><path class="cls-10" d="M6.553,14.192c-.094-.1-.018-.325.169-.514s.413-.266.506-.171.018.324-.169.514-.413.266-.506.171Z"/><path class="cls-8" d="M6.665,14.078a.3.3,0,0,1,.057-.4.285.285,0,0,1,.394-.057.3.3,0,0,1-.057.4.285.285,0,0,1-.394.057Z"/><polygon class="cls-10" points="7.134 13.792 7.097 13.83 6.947 13.754 7.022 13.906 6.984 13.945 6.834 13.64 7.134 13.792"/><polygon class="cls-10" points="6.909 14.021 6.872 14.059 6.646 13.83 6.684 13.792 6.909 14.021"/><path class="cls-10" d="M4.63,13.507c.093-.095.32-.018.506.171s.262.419.169.514-.32.018-.506-.171-.262-.42-.169-.514Z"/><path class="cls-8" d="M4.742,13.621a.285.285,0,0,1,.394.057.292.292,0,0,1,.056.4.283.283,0,0,1-.393-.056.3.3,0,0,1-.057-.4Z"/><polygon class="cls-10" points="5.024 14.097 4.986 14.059 5.061 13.906 4.911 13.983 4.873 13.945 5.174 13.792 5.024 14.097"/><polygon class="cls-10" points="4.799 13.868 4.761 13.83 4.986 13.602 5.024 13.64 4.799 13.868"/><path class="cls-8" d="M5.929,14.014a1.14,1.14,0,0,1,0-2.279,1.108,1.108,0,0,1,.794.334,1.151,1.151,0,0,1,0,1.611,1.1,1.1,0,0,1-.794.334Zm0-2.261a1.122,1.122,0,0,0,0,2.243,1.092,1.092,0,0,0,.782-.329,1.134,1.134,0,0,0,0-1.585,1.092,1.092,0,0,0-.782-.329Z"/><path class="cls-8" d="M5.929,13.745a.871.871,0,1,1,.858-.87.865.865,0,0,1-.858.87Zm0-1.723a.853.853,0,1,0,.84.853.847.847,0,0,0-.84-.853Z"/><path d="M5.557,13.789a.055.055,0,0,1-.026.047.051.051,0,0,1-.053,0,.053.053,0,0,1-.027-.047.052.052,0,0,1,.027-.046.051.051,0,0,1,.053,0,.053.053,0,0,1,.026.046Z"/><path d="M6.407,13.789a.053.053,0,0,1-.027.047.051.051,0,0,1-.053,0,.053.053,0,0,1-.027-.047.052.052,0,0,1,.027-.046.051.051,0,0,1,.053,0,.052.052,0,0,1,.027.046Z"/><path d="M5.893,13.789v.056h-.07c-.071,0-.071.057,0,.057h.07v.055c0,.059.062.066.067,0l0-.06h.071c.071,0,.071-.057,0-.057H5.964v-.056a.036.036,0,1,0-.071,0Z"/><path class="cls-8" d="M6.535,13.039a.161.161,0,0,1,.049,0s0,.013-.006.017a.143.143,0,0,0,.042,0l-.019.013a.062.062,0,0,1,.026.017.09.09,0,0,1-.039,0,.056.056,0,0,1,.007.028.1.1,0,0,1-.059-.041Z"/><path class="cls-1" d="M6.535,13.039a.161.161,0,0,1,.049,0s0,.013-.006.017a.143.143,0,0,0,.042,0l-.019.013a.062.062,0,0,1,.026.017.09.09,0,0,1-.039,0,.056.056,0,0,1,.007.028.1.1,0,0,1-.059-.041Z"/><path class="cls-8" d="M6.462,13.014c-.011.026-.088-.022-.088-.022a.134.134,0,0,0,.085.06Z"/><path class="cls-1" d="M6.462,13.014c-.011.026-.088-.022-.088-.022a.134.134,0,0,0,.085.06Z"/><polygon class="cls-8" points="5.495 13.517 6.402 13.517 6.472 13.461 6.355 13.397 6.176 13.336 6.104 13.296 5.971 13.303 5.86 13.363 5.707 13.381 5.672 13.423 5.558 13.432 5.38 13.428 5.677 13.476 5.433 13.463 5.495 13.517"/><path d="M6.4,13.522H5.5l-.065-.055.247,0-.3-.038.291-.015.033-.04.155-.02.11-.059.135-.008.074.041.3.125-.071.065Zm-.971-.054.066.046h.9l.069-.055L6.1,13.3l-.131.007-.109.06-.154.019-.033.04-.116.011-.179,0,.3.038-.245,0Z"/><path class="cls-8" d="M5.984,13.254c-.114-.062-.147.09-.2.127.066.012.116-.051.173-.082.042.118.11.04.11.04s.07.114.164.062a.049.049,0,0,0,.054,0s.034.006.041-.009c.018.006.038-.016.038-.016s.039,0,.046-.021c.058.011.135-.12.135-.12l.023-.045.034-.008s0-.022-.016-.021c0-.014-.012-.021-.028-.018,0-.009-.009-.015-.009-.015-.033.008-.035.091-.035.091a.737.737,0,0,1-.077.054c0-.047-.078-.111-.062-.141s.066.046.111.032a.129.129,0,0,0,.068-.118.919.919,0,0,0-.043-.082l-.029,0L6.461,12.9s-.053.035-.052.066.056.056.056.056a.085.085,0,0,1-.061.011c0,.031.036.025.05.026a.067.067,0,0,0,.029.034s.013.035-.022.031-.076-.085-.125-.047.023.113.023.113a.186.186,0,0,0-.074.087c-.112-.1-.177-.051-.3-.025Z"/><path d="M6.186,13.419a.159.159,0,0,1-.118-.076c0,.013-.08.045-.112-.042a.45.45,0,0,1-.043.036.2.2,0,0,1-.109.05v0a.262.262,0,0,0,.105-.054.4.4,0,0,1,.05-.034c.044.091.108.042.109.041s.086.105.166.061h0l.056,0,.047-.008c.032-.017.067-.017.073-.034.065,0,.134-.12.135-.121l.023-.045H6.561l0-.048c-.025-.005-.034.056-.034.078a.508.508,0,0,1-.08.058A.265.265,0,0,0,6.4,13.2c-.019-.028-.037-.054-.027-.073l.05.008a.1.1,0,0,0,.053.024.116.116,0,0,0,.075-.115.726.726,0,0,0-.039-.075.215.215,0,0,1,.048.073.133.133,0,0,1-.071.125.129.129,0,0,1-.071-.024c-.044,0-.028.026-.01.052a.164.164,0,0,1,.036.076c.014-.014.07-.058.07-.058s0-.083.036-.091l.037.035-.036.079s-.073.123-.132.123c-.01.019-.049.019-.053.019l-.063.027-.07-.008,0,0a.109.109,0,0,1-.051.014ZM5.8,13.373a.145.145,0,0,1,.022-.048c.035-.056.085-.117.161-.075l.06-.016a.233.233,0,0,1,.242.042.161.161,0,0,1,.068-.088h0a.1.1,0,0,1-.043-.076l.049-.047a.1.1,0,0,1,.061.032c.014.012.027.024.038.024.018-.021,0-.034-.01-.055l.036.027-.026.038a.1.1,0,0,1-.044-.027.1.1,0,0,0-.055-.03l-.04.038c0,.035.039.076.04.077a.287.287,0,0,0-.073.092.244.244,0,0,0-.241-.038l-.064.015c-.083-.04-.118.018-.151.072a.32.32,0,0,1-.03.043Zm.629-.332.028-.014c-.012-.006-.054-.03-.055-.059s.051-.068.054-.069l.009.018L6.457,12.9c-.008.012-.044.041-.043.064s.038.045.053.052l0,.005v0h0a.065.065,0,0,1-.03.013Z"/><path class="cls-8" d="M5.82,13.092c.047.044.014.118.033.133s.046-.008.046-.008a.333.333,0,0,0,.137-.014c.038.022.023-.011.046-.009.021.053.09.043.09.043a.544.544,0,0,0-.1-.084.307.307,0,0,1-.133.019c-.017,0-.006-.024-.014-.037.032-.031.006-.11-.011-.14-.072-.048-.157.034-.092.1Z"/><path d="M6.16,13.243a.083.083,0,0,1-.082-.048.548.548,0,0,1-.148.03l-.062.009-.026-.047a.11.11,0,0,0-.025-.092.067.067,0,0,1-.02-.073.08.08,0,0,1,.117-.031c.021.035.045.115.012.148a.159.159,0,0,0,.141.01.447.447,0,0,1,.108.085l-.015.009Zm-.079-.054a.083.083,0,0,0,.079.044v0l.01,0c-.009,0-.067-.059-.1-.075a.277.277,0,0,1-.113.02l-.036-.046c.031-.03.005-.107-.011-.135a.075.075,0,0,0-.1.028.057.057,0,0,0,.018.063.119.119,0,0,1,.028.1l.017.043.028-.016a.552.552,0,0,0,.138-.016l.047-.009Z"/><path class="cls-8" d="M5.51,12.958c-.059.016-.161-.077-.208-.041s-.026.123.006.167-.045.059-.066.084.007.052.007.052l.021.014,0,.032.012.038s.01.01.014,0c.01.01,0,.039.025.042a.164.164,0,0,1,.006-.069s.043,0,.054-.016-.011-.059-.011-.059h.013a.073.073,0,0,1-.019-.039s.059-.02.059-.065-.1-.093-.061-.117.106.068.163.024.021,0,.021,0,.026-.059-.032-.044Z"/><path d="M5.324,13.35l-.011,0-.051-.081,0-.009,0,.008h0l.039.067a.223.223,0,0,1,.009-.058c.033,0,.049-.009.054-.017s0-.044-.011-.055l0-.046s.056-.019.055-.06c0-.019-.02-.04-.038-.059s-.032-.033-.03-.047a.13.13,0,0,1,.027-.01c-.019.021,0,.036.01.051s.04.042.04.065c0,.048-.059.068-.061.069.011.037.03.077.019.1s-.036.018-.051.018a.109.109,0,0,0-.009.062l0,.008Zm-.069-.123-.009,0a.045.045,0,0,1-.007-.059c.05-.034.069-.044.072-.058A.293.293,0,0,1,5.271,13a.091.091,0,0,1,.028-.085.182.182,0,0,1,.114.017.227.227,0,0,0,.082.026l.052,0-.011.024L5.5,12.965a.243.243,0,0,1-.086-.027.236.236,0,0,0-.08-.025A.077.077,0,0,0,5.28,13a.184.184,0,0,0,.032.085.06.06,0,0,1-.036.068c-.047.041-.025.065-.024.067l0,.01Z"/><path class="cls-8" d="M5.813,12.321c-.078-.033-.239-.035-.328-.08a.063.063,0,0,0-.059.046c-.041,0-.069.064-.063.077-.074-.031-.109.089-.085.113-.063,0-.056.086-.062.109-.02.05,0,.067.045.049.006.022,0,.034-.02.038.11.128.172-.079.27-.078a.34.34,0,0,0,.168-.1l.048.007Z"/><path d="M5.312,12.72a.1.1,0,0,1-.075-.044l-.028-.041a.058.058,0,0,1,0-.051c.006-.052.011-.109.066-.111-.015-.005-.015-.036,0-.066s.036-.056.067-.053c.014,0,.021-.02.031-.035a.065.065,0,0,1,.051-.036.062.062,0,0,1,.061-.047.7.7,0,0,0,.187.048.644.644,0,0,1,.143.033l-.084.19-.052,0a.316.316,0,0,1-.167.1.167.167,0,0,0-.1.06.164.164,0,0,1-.1.061Zm-.09-.092.043.006-.023.043c.064.049.111.025.163-.024a.173.173,0,0,1,.1-.063.343.343,0,0,0,.166-.1l.051.005.082-.181c-.033-.009-.084-.017-.139-.026a.681.681,0,0,1-.187-.048.058.058,0,0,0-.052.043.075.075,0,0,0-.051.035l0,.011-.023.034a.065.065,0,0,0-.078.043c-.011.025-.012.054,0,.063-.05.01-.054.06-.058.092l-.006.064.005,0Z"/><path class="cls-8" d="M6.03,12.229a.116.116,0,1,1-.116-.117.116.116,0,0,1,.116.117Z"/><path d="M5.914,12.351a.121.121,0,0,1-.12-.122c0-.135.241-.135.241,0a.122.122,0,0,1-.121.122Zm0-.235a.112.112,0,0,0-.111.113c0,.124.223.124.223,0a.113.113,0,0,0-.112-.113Z"/><path class="cls-8" d="M5.711,13.153a.264.264,0,0,1-.2-.187c.067-.266.412-.127.442-.327a.6.6,0,0,1,.088-.374.155.155,0,0,1,.077-.054.074.074,0,0,1,0,.047,1.305,1.305,0,0,1,.189.029.084.084,0,0,1,.01.064c0,.02-.025.014-.025.014a.066.066,0,0,1-.068.021.224.224,0,0,1-.088.027s.125.133.1.175a.27.27,0,0,1,.065.07.4.4,0,0,0,.113-.087c.049,0,.13.053.171.058l.1.082s-.059.039-.084-.012c-.031,0-.1-.073-.191-.049a.2.2,0,0,1-.093.141.24.24,0,0,1,.131.017c.048.041.119.1.119.1l.063.109s-.058.01-.08-.065c-.021.061-.022-.038-.107-.084a.064.064,0,0,1-.061-.012.561.561,0,0,1-.221.043,1.911,1.911,0,0,0-.169.1c-.062.029-.08.015-.08.015H5.856c-.007.031,0,.078-.03.086.017.019-.013.1-.043.115.014.052.056.068.1.1a.063.063,0,0,1,.065,0A.326.326,0,0,1,6,13.4a.227.227,0,0,1-.07,0c-.017-.007-.019-.025-.038-.02-.122-.109-.186-.066-.2-.091s.028-.092.016-.135Z"/><path d="M5.97,13.409,5.928,13.4a.356.356,0,0,0-.205-.1.1.1,0,0,1-.019-.015.311.311,0,0,1,.191.088l.075.028L6,13.4s-.022-.042-.041-.068A.239.239,0,0,1,6,13.4l-.034.008Zm-.027-.093-.062-.005c-.056-.032-.09-.052-.1-.1a.142.142,0,0,0,.046-.081v0a.1.1,0,0,1-.041.087.157.157,0,0,0,.081.075l.05,0a.34.34,0,0,1,.028.021ZM5.7,13.277a.061.061,0,0,1,0-.046.149.149,0,0,0,.009-.076.262.262,0,0,1-.2-.188c.037-.147.154-.174.258-.2s.171-.04.184-.131a.6.6,0,0,1,.089-.375.152.152,0,0,1,.079-.056.041.041,0,0,1,.008.031l-.006-.027v0a.164.164,0,0,0-.075.053.605.605,0,0,0-.087.371c-.014.1-.1.117-.191.139s-.216.05-.251.189a.262.262,0,0,0,.2.182.135.135,0,0,1-.006.084.18.18,0,0,0-.009.044Zm.226-.259H5.885l.021-.012a.121.121,0,0,0,.079-.014.442.442,0,0,0,.076-.047.369.369,0,0,1,.094-.054.462.462,0,0,0,.175-.028l.047-.015.063.013a.189.189,0,0,1,.07.067.479.479,0,0,0-.074-.059l-.059-.016v0l-.045.014a.453.453,0,0,1-.148.031.232.232,0,0,0-.118.05A.481.481,0,0,1,5.989,13a.178.178,0,0,1-.066.019Zm.687-.005a.063.063,0,0,1-.055-.032.1.1,0,0,0,.063.028l-.06-.1h0s-.07-.055-.118-.1a.173.173,0,0,0-.086-.018l-.008,0a.156.156,0,0,1,.1.013c.048.041.118.1.118.1l.065.11-.019,0Zm-.264-.241a.277.277,0,0,0,.055-.123.235.235,0,0,1,.153.028l.04.022v0l.041.027-.057-.088a.308.308,0,0,1-.068-.025.3.3,0,0,0-.1-.032.352.352,0,0,1-.111.086c-.006,0-.044-.059-.069-.07.014-.038-.071-.139-.1-.176,0-.008.061-.013.089-.034.044,0,.055-.008.067-.02.027-.031.028-.042.013-.073a.208.208,0,0,1-.071-.011.436.436,0,0,0-.1-.016v0a.282.282,0,0,1,.1.01.593.593,0,0,0,.074.014.086.086,0,0,1,.015.069c-.04.029-.054.04-.079.04a.5.5,0,0,1-.107.026c.016.006.13.129.108.172.024.006.061.06.064.066a.55.55,0,0,0,.106-.088.362.362,0,0,1,.108.032.387.387,0,0,0,.067.025l.1.083c0,.014-.071.034-.091-.007-.008,0-.024-.006-.042-.016a.223.223,0,0,0-.109-.035.33.33,0,0,1-.095.122Z"/><path class="cls-8" d="M5.419,12.665c.006-.008.051.009.051.009l.081.051.164.109.059.086-.105-.035-.146-.127-.079-.052s-.032-.033-.025-.041Z"/><path d="M5.785,12.928l-.117-.039-.226-.179c-.014-.014-.035-.038-.027-.048a.115.115,0,0,1,.056.008l.247.16.067.1Zm-.359-.266,0,.006.25.213.09.03-.05-.075-.286-.174Z"/><path class="cls-8" d="M6.4,12.939c-.057-.015-.2.158-.2.158l.106.116a.444.444,0,0,1,.092-.274Z"/><path d="M6.307,13.225,6.194,13.1c0-.013.131-.167.193-.167l0,0c-.065.018-.182.161-.183.163l.1.1a.508.508,0,0,1,.063-.233.639.639,0,0,0-.054.244v.012Z"/><path class="cls-8" d="M5.7,12.456a.125.125,0,0,0,.007.155c0,.05.045.149.077.159a.861.861,0,0,0,.234.034.248.248,0,0,0,.125.213.045.045,0,0,0,.007.028c.008.01.042.012.044.007.015.021.089.031.094.021a1.264,1.264,0,0,0-.134-.114.74.74,0,0,1-.072-.2.208.208,0,0,0-.152-.066l0-.132,0-.15-.052-.027a.073.073,0,0,0,.016-.011c.013.006.036-.02.039-.027s.023,0,.025,0,0-.031.009-.044c.039-.035-.006-.11-.066-.111s-.073.072-.072.078c.006.023,0,.034,0,.04a.122.122,0,0,1-.025.018.1.1,0,0,0-.074,0c-.04.016-.085.037-.087.064a.079.079,0,0,0-.054.047c-.017,0-.037.01-.072.067-.062.028-.066.162-.066.162a.1.1,0,0,0-.017.038c0,.013.006.025.014.023s.012.016.017.013a.02.02,0,0,0,.021.013c0,.006.025,0,.027,0s0-.036,0-.038.023.013.028.01,0-.018,0-.023-.02-.01-.024-.031a.1.1,0,0,1,.011-.051s.067-.053.075-.1c.051.005.077-.041.092-.058Z"/><path d="M6.272,13.082a.127.127,0,0,1-.082-.028h0a.244.244,0,0,0,.082.018v.005l.013-.006c0-.006-.049-.041-.079-.065a.682.682,0,0,1-.055-.044.719.719,0,0,1-.073-.206.209.209,0,0,0-.147-.063l0-.136,0-.15-.05-.023,0,0,.087-.089a.043.043,0,0,0,.009-.049.081.081,0,0,0-.072-.053h0a.058.058,0,0,0-.045.02.089.089,0,0,0-.022.052h0l-.03.062-.072,0,0,0c-.036.014-.083.036-.085.06a.092.092,0,0,0-.054.048c-.025,0-.045.025-.072.069-.061.028-.065.158-.065.159l0,.023V12.66h0c0-.006,0-.137.068-.166.027-.046.049-.068.069-.068a.091.091,0,0,1,.058-.047c0-.025.046-.047.087-.063l.075,0,0,0,.023-.053a.1.1,0,0,1,.021-.056.065.065,0,0,1,.053-.027.093.093,0,0,1,.083.059.052.052,0,0,1-.012.059l-.022.051c-.014,0-.034.025-.05.025l.034.029-.006.286a.181.181,0,0,1,.151.063.744.744,0,0,0,.072.205L6.211,13c.073.056.085.069.081.076l-.02.007ZM5.985,12.8a.841.841,0,0,1-.2-.03c-.035-.01-.077-.111-.081-.163a.12.12,0,0,1-.02-.13.081.081,0,0,1-.066.038.265.265,0,0,1-.08.1.1.1,0,0,0-.009.047l.026.058-.047.034-.048-.036.035.023.029-.038a.168.168,0,0,1,.007-.093s.067-.055.074-.1a.114.114,0,0,0,.087-.051l0,.006.009-.015-.012.022a.14.14,0,0,0,.025.133c0,.055.047.149.076.157A.984.984,0,0,0,6,12.8v0Z"/><path class="cls-8" d="M5.583,12.264c.015-.038.071-.035.071-.035s.02-.052.095-.021c.028-.022.1.01.1.01a.082.082,0,0,1,.064-.034.078.078,0,0,1,.074.082c-.036.009-.1-.03-.149-.019a.307.307,0,0,0-.091.057c-.045,0-.094-.042-.166-.04Z"/><path d="M5.742,12.308a.178.178,0,0,1-.061-.016.24.24,0,0,0-.093-.023v0a.173.173,0,0,1,.1.018.159.159,0,0,0,.058.016V12.3l.006-.005a.165.165,0,0,1,.063-.042l.048-.017a.263.263,0,0,1,.066.012.181.181,0,0,0,.051.011c-.009-.051-.027-.07-.061-.074a.087.087,0,0,0-.06.031c-.006,0-.046-.015-.077-.015l-.073,0a.049.049,0,0,0-.047.028c-.019,0-.055.005-.069.03.009-.034.049-.036.061-.036h0a.081.081,0,0,1,.1-.021.189.189,0,0,1,.1.009.069.069,0,0,1,.057-.034.088.088,0,0,1,.074.044l.01.044a.142.142,0,0,1-.071-.006.291.291,0,0,0-.063-.012l-.044.016a.191.191,0,0,0-.063.041l-.01,0Z"/><path class="cls-8" d="M5.723,12.327c.017-.01.059-.029.087-.006a.469.469,0,0,0,.074.062l.051.022.024.014-.016.238c-.047-.049-.091-.058-.125-.116-.019-.025,0-.084-.036-.124s-.066-.066-.059-.09Z"/><path d="M5.947,12.667,5.94,12.66a.3.3,0,0,0-.055-.045.222.222,0,0,1-.071-.072A.115.115,0,0,1,5.8,12.5a.138.138,0,0,0-.023-.075c-.047-.054-.065-.074-.059-.094a.106.106,0,0,1,.058-.02l.027.017a.1.1,0,0,0-.078.008c0,.013.014.031.035.055a.17.17,0,0,1,.049.108.108.108,0,0,0,.011.044.192.192,0,0,0,.07.069.486.486,0,0,1,.048.039l0-.074,0,.085v.01Z"/><path class="cls-8" d="M5.846,12.4s.027-.005.034,0,.019.006.022.014.017.009.017.016.013.02.013.02l-.009.014a.041.041,0,0,1-.011-.02c-.007,0-.021-.007-.024-.016a.022.022,0,0,1-.021-.017c-.01,0-.021-.012-.021-.012Z"/><path class="cls-1" d="M5.846,12.4s.027-.005.034,0,.019.006.022.014.017.009.017.016.013.02.013.02l-.009.014a.041.041,0,0,1-.011-.02c-.007,0-.021-.007-.024-.016a.022.022,0,0,1-.021-.017C5.857,12.41,5.846,12.4,5.846,12.4Z"/><path class="cls-8" d="M6.073,12.241c-.015-.018-.042,0-.042,0l-.071.126-.032.026,0,.1.026.093-.009.071a.2.2,0,0,0,.041-.054.289.289,0,0,0-.014-.079.132.132,0,0,1,0-.106c.026-.069.085-.126.1-.17Z"/><path d="M5.936,12.662l.011-.084-.026-.09,0-.1.034-.028.072-.124.048,0a.22.22,0,0,1-.041.074.475.475,0,0,0-.058.1.128.128,0,0,0,0,.1.289.289,0,0,1,.014.082.177.177,0,0,1-.042.056l-.009.009Zm.133-.423-.1.125-.034.123.026.09-.008.06a.118.118,0,0,0,.03-.042.264.264,0,0,0-.013-.076.132.132,0,0,1,0-.109.516.516,0,0,1,.06-.1.282.282,0,0,0,.04-.068Z"/><path class="cls-8" d="M6.25,12.353a.635.635,0,0,1-.295.22c-.051.012-.032-.12-.032-.12l-.013,0s-.028.13.04.132a.628.628,0,0,0,.323-.234Z"/><path d="M5.95,12.592l-.035-.017c-.027-.035-.01-.116-.009-.12l.007.015a.149.149,0,0,0,.009.1l.028.018v0A.558.558,0,0,0,6.23,12.4a.5.5,0,0,1-.279.193Zm.006-.015a.075.075,0,0,1-.016-.015.6.6,0,0,0,.307-.212s0,.011,0,.025a.677.677,0,0,1-.288.2Z"/><path class="cls-8" d="M6.326,13.286a.035.035,0,0,1-.039,0,.053.053,0,0,0-.043-.029s-.02-.059-.052-.042c0-.03-.04-.014-.04-.014s0-.044-.041-.038c.014-.051-.056-.048-.056-.048s0-.056-.1-.045c.22-.1.393.156.393.156Z"/><path d="M6.285,13.29a.053.053,0,0,0-.041-.028s-.016-.037-.034-.044l-.006,0-.056-.02H6.141l-.034-.04c-.017-.045-.052-.043-.051-.042a.1.1,0,0,0-.1-.046c.218-.109.4.147.4.15a.434.434,0,0,0-.295-.172.236.236,0,0,0-.1.022.087.087,0,0,1,.09.009c.014.028.051.026.067.046l.074.066a.118.118,0,0,1,.064.06.047.047,0,0,1,.043.03l.038,0Z"/><path class="cls-8" d="M6.431,13.308s.05.058.077.059.029-.057.029-.057.008.024.021.018a.021.021,0,0,0,.016.022s-.046.108-.176.006Z"/><path d="M6.5,13.4a.178.178,0,0,1-.1-.045.173.173,0,0,0,.123.034.085.085,0,0,0,.052-.044l-.029-.034c0,.014-.007.056-.033.056h0c-.028,0-.076-.054-.081-.06l.007-.006c.014.016.067.048.074.057s.023-.038.024-.052l.008,0,0,0h0v0l.037.037a.09.09,0,0,1-.057.05l-.022,0Z"/><path class="cls-8" d="M6.034,13.33l-.018.075s-.023.021-.016.025.043-.007.043-.007a.176.176,0,0,0,.073-.024.048.048,0,0,0,.038.029.032.032,0,0,0,0-.018.064.064,0,0,0,.024,0s.007-.022-.009-.03c0-.015.009-.029-.018-.027-.02.022-.07.047-.083.038s.049-.036.032-.072Z"/><path d="M6,13.434l.033-.1.008,0-.018.075a.116.116,0,0,0,.093-.01l.035.027.013-.041.016.031a.054.054,0,0,1-.027.012l0,0-.007,0h0a.034.034,0,0,1-.035-.025c-.011.019-.066.026-.069.027L6,13.434Z"/><path d="M4.892,13.153l.073-.018L4.957,13.1a.027.027,0,0,0-.009-.016.037.037,0,0,0-.022,0l0-.005.063-.015v0l-.015.007-.006.01a.082.082,0,0,0,0,.014l.008.035.058-.014.019-.007,0-.007a.015.015,0,0,0,0-.013v-.007l0,0,.019.081h0v-.006c0-.008-.006-.013-.011-.015a.03.03,0,0,0-.022,0l-.12.028-.018.007,0,.007a.029.029,0,0,0,0,.013v.007h0l-.033-.14.041-.012v0a.067.067,0,0,0-.017.013.025.025,0,0,0-.006.014.068.068,0,0,0,0,.023Zm-.047-.334a.089.089,0,0,1,.032-.064.094.094,0,0,1,.072-.023.1.1,0,0,1,.07.032.09.09,0,0,1,.025.069.088.088,0,0,1-.031.065.1.1,0,0,1-.074.023.095.095,0,0,1-.094-.1Zm.01,0a.048.048,0,0,0,.017.042.106.106,0,0,0,.068.024.115.115,0,0,0,.073-.017.05.05,0,0,0,.021-.039.06.06,0,0,0-.018-.047.106.106,0,0,0-.066-.021.115.115,0,0,0-.074.015.054.054,0,0,0-.021.043Zm.276-.354-.017.048-.107.029,0,.011v0l0,0,.052.02a.039.039,0,0,0,.022,0,.026.026,0,0,0,.012-.013l0-.007h0l-.029.078,0,0,0-.007a.021.021,0,0,0,0-.019.062.062,0,0,0-.019-.01l-.115-.045c-.011,0-.019-.006-.022,0a.02.02,0,0,0-.012.013l0,.007,0,0,.024-.066a.172.172,0,0,1,.02-.041.051.051,0,0,1,.024-.017.044.044,0,0,1,.03,0,.044.044,0,0,1,.025.021.067.067,0,0,1,0,.041l.066-.018a.084.084,0,0,0,.031-.013.054.054,0,0,0,.017-.021Zm-.139.093v-.007a.064.064,0,0,0,0-.044.042.042,0,0,0-.023-.024.04.04,0,0,0-.052.024l-.006.023Zm.406-.641.037.049,0,0a.075.075,0,0,0-.034-.018.06.06,0,0,0-.046.01.065.065,0,0,0-.031.055.107.107,0,0,0,.018.058.116.116,0,0,0,.036.037.07.07,0,0,0,.077,0l.016-.014.011-.017-.03-.047-.012-.015-.009,0-.015.007,0-.005.062-.041,0,0,0,0A.017.017,0,0,0,5.461,12a.075.075,0,0,0,.009.019l.032.05a.124.124,0,0,1-.02.029.123.123,0,0,1-.027.022.1.1,0,0,1-.09.016.088.088,0,0,1-.051-.04.1.1,0,0,1-.016-.047.1.1,0,0,1,.044-.1l.017-.009.025-.007.01,0,0-.005,0-.009Zm.311.022-.072.019,0,.033a.046.046,0,0,0,0,.017l.006.007h.019v0l-.058.016,0,0a.055.055,0,0,0,.014-.009.1.1,0,0,0,.008-.032l.025-.171H5.65l.1.138a.081.081,0,0,0,.02.021.03.03,0,0,0,.019,0l0,.005-.073.02V12a.029.029,0,0,0,.013-.008l0-.009a.045.045,0,0,0-.01-.017Zm-.007-.01-.051-.067-.012.085Zm.337,0h0l-.019.051-.147,0v-.006h.007a.019.019,0,0,0,.018-.008.052.052,0,0,0,0-.021l0-.124c0-.013,0-.02,0-.023a.017.017,0,0,0-.016-.007H5.885v-.006l.086,0V11.8a.041.041,0,0,0-.021,0l-.009.007a.141.141,0,0,0,0,.022l0,.122a.037.037,0,0,0,0,.016l.005,0,.022,0h.014a.087.087,0,0,0,.031,0,.041.041,0,0,0,.017-.011.091.091,0,0,0,.015-.025ZM6.293,12l0,0-.031.045L6.125,12l0,0,.007,0a.02.02,0,0,0,.019,0,.067.067,0,0,0,.009-.019l.039-.119c0-.012.005-.019,0-.023a.021.021,0,0,0-.013-.011l-.007,0,0-.005.081.027v0a.046.046,0,0,0-.021,0l-.011,0a.059.059,0,0,0-.008.02l-.038.115,0,.016,0,.006a.052.052,0,0,0,.02.009l.013,0a.1.1,0,0,0,.031.007.043.043,0,0,0,.018-.006A.07.07,0,0,0,6.293,12Zm.205.11-.06-.043-.028.018L6.4,12.1l0,.008a.044.044,0,0,0,.012.014l0,.005-.048-.036,0,0,.015.005a.082.082,0,0,0,.029-.014l.146-.09,0,0-.038.17a.061.061,0,0,0,0,.029.031.031,0,0,0,.011.016l0,0-.061-.044,0,0a.029.029,0,0,0,.015.006l.007,0,.007-.02Zm0-.01.018-.083-.071.044Zm.226.042.031.042-.045.182L6.8,12.3c.01-.007.015-.012.016-.016a.023.023,0,0,0,0-.017l0-.006,0,0,.039.054,0,0,0,0a.019.019,0,0,0-.016-.01.069.069,0,0,0-.018.01l-.13.1,0,0,.049-.2-.094.071c-.01.007-.015.012-.016.016a.023.023,0,0,0,0,.017l0,.006,0,0-.039-.054,0,0,0,.006a.024.024,0,0,0,.017.01.056.056,0,0,0,.018-.01l.107-.08,0-.019,0-.013-.007-.011Zm.241.45-.041.017,0,0,.014-.01a.028.028,0,0,0,.008-.015.038.038,0,0,0,0-.02l-.009-.026-.137.05c-.011,0-.018.007-.02.011a.025.025,0,0,0,0,.017l0,.007,0,0-.027-.078,0,0,0,.007a.019.019,0,0,0,.012.014.039.039,0,0,0,.021,0l.137-.049-.007-.022-.008-.018a.029.029,0,0,0-.014-.008.034.034,0,0,0-.022,0l0,0,.043-.014Zm-.151.343,0-.052.086-.07v-.02l-.055,0c-.012,0-.02,0-.022,0a.024.024,0,0,0-.006.017v.007H6.811l0-.082h.006v.008a.019.019,0,0,0,.009.017.048.048,0,0,0,.02,0l.124-.007a.033.033,0,0,0,.022-.005.023.023,0,0,0,0-.017v-.007H7L7,12.8a.19.19,0,0,1,0,.046.044.044,0,0,1-.015.025.034.034,0,0,1-.027.012.047.047,0,0,1-.032-.01.069.069,0,0,1-.02-.035l-.052.043a.088.088,0,0,0-.024.024.066.066,0,0,0-.007.026Zm.091-.143V12.8a.068.068,0,0,0,.014.042.041.041,0,0,0,.059,0,.039.039,0,0,0,.01-.03.12.12,0,0,0,0-.023Zm.053.4-.017.066H6.938v0a.02.02,0,0,0,0-.011l-.006-.015-.015-.019-.059-.064-.046-.013a.042.042,0,0,0-.022,0c-.005,0-.008.007-.01.015l0,.006h0l.021-.08,0,0,0,.006a.02.02,0,0,0,0,.019s.009.005.019.008l.044.011.09-.03.021-.008.011-.011,0-.008H7l-.021.08h0v0a.028.028,0,0,0,0-.013.009.009,0,0,0-.008-.007.044.044,0,0,0-.02,0l-.069.023.048.052c.007.008.012.013.016.014h.007l.007,0,0-.01Z"/></g></g></svg>