<?xml version="1.0" encoding="UTF-8"?><svg id="Layer_1" xmlns="http://www.w3.org/2000/svg" viewBox="0 0 40 40"><rect x="3.5" y="3.5" width="33" height="33" rx="8" ry="8" fill="#3036d1"/><g><path d="m12.368,16.646c-.576,0-1.044-.467-1.044-1.044v-1.813c0-.577.468-1.044,1.044-1.044h15.869c.576,0,1.044.467,1.044,1.044v1.312c0,.577-.468,1.044-1.044,1.044s-1.044-.467-1.044-1.044v-.269h-13.781v.77c0,.577-.468,1.044-1.044,1.044Z" fill="#fff"/><path d="m19.969,14.414c-.576,0-1.044-.467-1.044-1.044v-2.171c0-.577.468-1.044,1.044-1.044s1.044.467,1.044,1.044v2.171c0,.577-.468,1.044-1.044,1.044Z" fill="#fff"/><path d="m12.784,21.514c-.459,0-.88-.306-1.007-.771-.15-.556.178-1.13.734-1.281,4.859-1.319,4.516-5.062,4.499-5.221-.061-.57.349-1.087.919-1.152.562-.059,1.085.337,1.154.906.24,1.957-.71,6.04-6.025,7.482-.092.025-.184.037-.274.037Z" fill="#fff"/><path d="m22.795,20.852c-.736,0-1.207-.324-1.469-.609-.5-.545-.504-1.219-.48-1.499v-4.79c0-.577.468-1.044,1.044-1.044s1.044.467,1.044,1.044v4.805l2.989-.002-.052-.225c-.131-.562.22-1.123.781-1.252.559-.127,1.122.22,1.252.782l.348,1.503c.072.31,0,.636-.199.885s-.499.394-.817.394h-4.26c-.062.004-.122.006-.181.006Z" fill="#fff"/><path d="m27.235,24.688h-13.865c-.576,0-1.044-.467-1.044-1.044s.468-1.044,1.044-1.044h13.865c.576,0,1.044.467,1.044,1.044s-.468,1.044-1.044,1.044Z" fill="#fff"/><path d="m20.22,29.699c-.576,0-1.044-.467-1.044-1.044v-4.761c0-.577.468-1.044,1.044-1.044s1.044.467,1.044,1.044v4.761c0,.577-.468,1.044-1.044,1.044Z" fill="#fff"/><path d="m29.073,29.699H11.365c-.576,0-1.044-.467-1.044-1.044s.468-1.044,1.044-1.044h17.708c.576,0,1.044.467,1.044,1.044s-.468,1.044-1.044,1.044Z" fill="#fff"/></g><rect width="40" height="40" fill="none"/></svg>