<?xml version="1.0" encoding="UTF-8"?><svg id="Layer_1" xmlns="http://www.w3.org/2000/svg" viewBox="0 0 40 40"><g><rect x="3.5" y="3.5" width="33" height="33" rx="8" ry="8" fill="#fa2d4c"/><g><path d="m11.961,14.335c-.552,0-1-.448-1-1v-1.212c0-.552.448-1,1-1h9.641c.552,0,1,.448,1,1v1.129c0,.552-.448,1-1,1s-1-.448-1-1v-.129h-7.641v.212c0,.552-.448,1-1,1Z" fill="#fff"/><path d="m16.844,12.687c-.552,0-1-.448-1-1v-.648c0-.552.448-1,1-1s1,.448,1,1v.648c0,.552-.448,1-1,1Z" fill="#fff"/><path d="m16.72,22.909c-.552,0-1-.448-1-1v-7.605c0-.552.448-1,1-1s1,.448,1,1v7.605c0,.552-.448,1-1,1Z" fill="#fff"/><path d="m20.584,16.613h-7.729c-.552,0-1-.448-1-1s.448-1,1-1h7.729c.552,0,1,.448,1,1s-.448,1-1,1Z" fill="#fff"/><path d="m20.896,19.73h-8.602c-.552,0-1-.448-1-1s.448-1,1-1h8.602c.552,0,1,.448,1,1s-.448,1-1,1Z" fill="#fff"/><path d="m21.769,22.909h-10.597c-.552,0-1-.448-1-1s.448-1,1-1h10.597c.552,0,1,.448,1,1s-.448,1-1,1Z" fill="#fff"/><path d="m13.229,29.961c-.552,0-1-.448-1-1v-3.874c0-.552.448-1,1-1h6.794c.552,0,1,.448,1,1v3.827c0,.552-.448,1-1,1s-1-.448-1-1v-2.827h-4.794v2.874c0,.552-.448,1-1,1Z" fill="#fff"/><path d="m19.711,29.267h-6.295c-.552,0-1-.448-1-1s.448-1,1-1h6.295c.552,0,1,.448,1,1s-.448,1-1,1Z" fill="#fff"/><path d="m24.075,25.651c-.552,0-1-.448-1-1v-9.298c0-.552.448-1,1-1s1,.448,1,1v9.298c0,.552-.448,1-1,1Z" fill="#fff"/><path d="m27.565,29.392c-.086,0-.172-.011-.257-.034l-2.105-.561c-.534-.142-.851-.69-.709-1.224.142-.534.689-.85,1.224-.709l.848.226v-15.591c0-.552.448-1,1-1s1,.448,1,1v16.892c0,.311-.145.604-.391.793-.177.136-.392.207-.609.207Z" fill="#fff"/></g></g><rect width="40" height="40" fill="none"/></svg>