<svg id="Layer_1" data-name="Layer 1" xmlns="http://www.w3.org/2000/svg" viewBox="0 0 40 40"><defs><style>.cls-1{fill:#fa2d4c;}.cls-2,.cls-3{fill:none;}.cls-2{stroke:#fff;stroke-linecap:round;stroke-linejoin:round;stroke-width:2px;}</style></defs><rect class="cls-1" x="3.5" y="3.5" width="33" height="33" rx="8"/><line class="cls-2" x1="11.219" y1="13.217" x2="18.795" y2="13.217"/><line class="cls-2" x1="15.743" y1="10.76" x2="15.743" y2="17.909"/><line class="cls-2" x1="11.382" y1="18.192" x2="14.98" y2="14.176"/><line class="cls-2" x1="18.795" y1="17.113" x2="15.634" y2="13.577"/><line class="cls-2" x1="28.781" y1="13.217" x2="21.205" y2="13.217"/><line class="cls-2" x1="24.257" y1="10.76" x2="24.257" y2="17.909"/><line class="cls-2" x1="28.618" y1="18.192" x2="25.02" y2="14.176"/><line class="cls-2" x1="21.205" y1="17.113" x2="24.366" y2="13.577"/><line class="cls-2" x1="13.803" y1="20.729" x2="26.393" y2="20.729"/><polyline class="cls-2" points="10.609 23.606 20.343 23.606 29.391 23.606"/><polyline class="cls-2" points="17.743 28.461 20.251 29.24 20.251 23.606"/><line class="cls-2" x1="14.877" y1="26.467" x2="12.71" y2="28.754"/><line class="cls-2" x1="25.124" y1="26.467" x2="27.291" y2="28.754"/><rect class="cls-3" width="40" height="40"/></svg>