<?xml version="1.0" encoding="UTF-8"?><svg id="Layer_1" xmlns="http://www.w3.org/2000/svg" viewBox="0 0 40 40"><rect x="3.5" y="3.5" width="33" height="33" rx="8" ry="8" fill="orange"/><g><path d="m11.762,29.153c-.236,0-.473-.083-.664-.252-.413-.367-.45-.999-.083-1.412.832-.938,2.97-3.795,2.878-5.735v-9.906c0-.552.447-1,.999-1h11.346c.552,0,1,.448,1,1v16.053c0,.334-.167.646-.445.832-.279.185-.631.22-.939.092l-2.737-1.137c-.51-.212-.751-.797-.54-1.307.212-.51.798-.752,1.307-.54l1.354.562v-13.554h-9.346v8.859c.144,3.051-3.021,6.705-3.383,7.111-.197.222-.472.335-.747.335Z" fill="#fff"/><path d="m25.299,17.524h-9.568c-.552,0-1-.448-1-1s.448-1,1-1h9.568c.552,0,1,.448,1,1s-.448,1-1,1Z" fill="#fff"/><path d="m25.325,22.159h-9.39c-.552,0-1-.448-1-1s.448-1,1-1h9.39c.552,0,1,.448,1,1s-.448,1-1,1Z" fill="#fff"/></g><rect width="40" height="40" fill="none"/></svg>