<?xml version="1.0" encoding="UTF-8"?><svg id="Layer_1" xmlns="http://www.w3.org/2000/svg" viewBox="0 0 40 40"><g><g><path d="M26.10621,10.84199c0,3.06441-2.19186,5.78139-3.9507,7.46831-1.21457,1.16491-3.11074,1.16491-4.32531,0-1.75884-1.68692-3.9507-4.40391-3.9507-7.46831s2.19186-5.78139,3.9507-7.46831c1.21457-1.16491,3.11074-1.16491,4.32531,0,1.75884,1.68692,3.9507,4.40391,3.9507,7.46831Z" style="fill:#006956;"/><path d="M27.98274,16.27708c-2.09326,2.23805-5.54999,2.72513-7.98685,2.75571-1.68278,.02112-3.06762-1.27413-3.15893-2.95456-.13223-2.43346,.12291-5.91501,2.21617-8.15306,2.09326-2.23805,5.54999-2.72513,7.98685-2.75571,1.68278-.02112,3.06762,1.27413,3.15893,2.95456,.13223,2.43346-.12291,5.91501-2.21617,8.15306Z" style="fill:#006956;"/><path d="M12.20805,16.33692c2.12325,2.20962,5.58624,2.65004,8.02329,2.64775,1.68291-.00158,3.05016-1.31538,3.1188-2.9969,.0994-2.43502-.20267-5.91281-2.32591-8.12243s-5.58624-2.65004-8.02329-2.64775c-1.68291,.00158-3.05016,1.31538-3.1188,2.9969-.0994,2.43502,.20267,5.91281,2.32591,8.12243Z" style="fill:#006956;"/></g><path d="M5.44902,22.54552l6.89201,10.76399c3.57746,5.58731,11.74044,5.58731,15.31791,.00001l6.89203-10.76399c3.47459-5.42663-.12404-12.83263-6.23547-12.83263H11.6845c-6.11143,0-9.71006,7.40599-6.23548,12.83262Z" style="fill:#ef4452;"/><circle cx="12.63423" cy="16.586" r="1.12014" style="fill:#ffa082;"/><circle cx="20" cy="16.586" r="1.12014" style="fill:#ffa082;"/><circle cx="20" cy="29.88166" r="1.12014" style="fill:#ffa082;"/><circle cx="16.31711" cy="23.40929" r="1.12014" style="fill:#ffa082;"/><circle cx="23.68289" cy="23.40929" r="1.12014" style="fill:#ffa082;"/><circle cx="27.36577" cy="16.586" r="1.12014" style="fill:#ffa082;"/></g><rect width="40" height="40" style="fill:none;"/></svg>