<svg id="Layer_1" data-name="Layer 1" xmlns="http://www.w3.org/2000/svg" viewBox="0 0 40 40"><defs><style>.cls-1{fill:none;}.cls-2{fill:#88c5ff;}.cls-3{fill:#e5e8eb;}</style></defs><rect class="cls-1" width="40" height="40"/><path class="cls-2" d="M16.61,33.29a15.354,15.354,0,0,1,2.422-3.343.321.321,0,0,1,.558.146,15.364,15.364,0,0,1,.476,4.1,1.786,1.786,0,0,1-3.456-.9Z"/><path class="cls-2" d="M24.645,33.29a15.354,15.354,0,0,1,2.422-3.343.321.321,0,0,1,.558.146,15.364,15.364,0,0,1,.476,4.1,1.786,1.786,0,0,1-3.456-.9Z"/><path class="cls-2" d="M8.575,33.29A15.354,15.354,0,0,1,11,29.947a.321.321,0,0,1,.558.146,15.364,15.364,0,0,1,.476,4.1,1.786,1.786,0,0,1-3.456-.9Z"/><polygon class="cls-3" points="30.43 27.282 9.356 27.282 9.356 16.364 30.15 17.767 30.43 27.282"/><circle class="cls-3" cx="22.733" cy="12.004" r="8.707"/><circle class="cls-3" cx="30.116" cy="19.898" r="7.384"/><circle class="cls-3" cx="9.356" cy="20.426" r="6.856"/><circle class="cls-3" cx="14.026" cy="13.266" r="5.612"/></svg>