<svg id="Layer_1" data-name="Layer 1" xmlns="http://www.w3.org/2000/svg" viewBox="0 0 40 40"><defs><style>.cls-1{fill:#006956;}.cls-2{fill:#68c76f;}.cls-3{fill:none;}</style></defs><path class="cls-1" d="M24.353,8.973c-1.393,1.626-3.9,1.894-5.08,1.927a.743.743,0,0,1-.743-.637c-.148-1.167-.266-3.689,1.127-5.315s3.9-1.894,5.08-1.927a.743.743,0,0,1,.743.637C25.628,4.825,25.747,7.347,24.353,8.973Z"/><path class="cls-2" d="M29.373,8.471a10.238,10.238,0,0,0-7.21,1.341,4.339,4.339,0,0,1-4.326,0,10.238,10.238,0,0,0-7.21-1.341C4.448,9.733,1.009,17.1,2.947,24.917s8.517,13.138,14.7,11.877a8.943,8.943,0,0,0,1.431-.421,2.566,2.566,0,0,1,1.85,0,8.943,8.943,0,0,0,1.431.421c6.18,1.261,12.76-4.056,14.7-11.877S35.552,9.733,29.373,8.471Z"/><rect class="cls-3" width="40" height="40"/></svg>