<?xml version="1.0" encoding="UTF-8"?><svg id="Layer_1" xmlns="http://www.w3.org/2000/svg" viewBox="0 0 40 40"><rect width="40" height="40" fill="none"/><g><g><path d="m10.246,23.904v-2.247c-.307-.074-.54-.338-.54-.668s.233-.594.54-.668v-3.688l-2.692-2.27,2.241,5.008-4.703-2.356,3.125,4.289-4.861-1.016,5.008,4.056c.275-.271.652-.439,1.068-.439h.814Z" fill="#8be091"/><path d="m30.438,18.56c0,.369-.288.664-.651.69v4.654h1.306c.31,0,.598.094.839.253l4.779-3.87-4.861,1.016,3.125-4.289-4.703,2.356,2.241-5.008-2.724,2.297v1.21c.362.027.651.321.651.69Z" fill="#8be091"/></g><g><path d="m22.276,30.171l-1.671-2.663c-.159-.253-.528-.253-.686,0l-1.661,2.648c1.339.032,2.68.038,4.019.015Z" fill="#ffbf45"/><path d="m24.9,28.627c.231.368.12.854-.249,1.086l-.653.409c2.173-.077,4.334-.22,6.458-.451l-.185,1.294.575-4.018h-7.001l1.054,1.681Z" fill="#ffbf45"/><path d="m32.8,36.62c0,1.41-5.61,2.56-12.54,2.56s-12.54-1.15-12.54-2.56c0-.65,1.18-1.24,3.1-1.69l-.43-3.01c6.38.81,13.11.8,19.75,0l-.44,3.01c1.93.45,3.1,1.04,3.1,1.69Z" fill="#ffbf45"/><path d="m15.87,29.71l.61.38c-2.16-.09-4.31-.24-6.42-.47l-.38-2.67h7l-1.06,1.68c-.23.37-.12.85.25,1.08Z" fill="#ffbf45"/></g><g><path d="m15.97,12.82v7.5c-.05-.01-.1-.03-.16-.03h-5.4c-.06,0-.11.02-.16.03v-7.5c0,1.55.44,2.88,1.13,3.73.47.6,1.07.96,1.73.96s1.25-.36,1.73-.96c.69-.85,1.13-2.18,1.13-3.73Z" fill="#22ad67"/><path d="m15.97,21.66v2.24h-5.72v-2.24c.05.01.1.03.16.03h5.4c.06,0,.11-.02.16-.03Z" fill="#22ad67"/><path d="m24.07,10.07c0,.03-.01.05-.01.08v-.08h.01Z" fill="#22ad67"/><g><g><path d="m29.79,19.25v4.65h-5.73v-4.69c.09.03.18.05.27.05h5.41c.02,0,.03-.01.05-.01Z" fill="#22ad67"/><path d="m29.79,10.07v.08c0-.02-.01-.05-.01-.08h.01Z" fill="#22ad67"/><path d="m29.79,10.15v7.72c-.02,0-.03-.01-.05-.01h-5.41c-.09,0-.18.02-.27.05v-7.75c0,1.55.45,2.89,1.13,3.74.48.59,1.08.95,1.73.95.66,0,1.26-.36,1.74-.95.68-.85,1.13-2.19,1.13-3.75Z" fill="#22ad67"/></g><g><path d="m22.86,15.23v8.67h-5.72v-8.67c.05.02.1.04.16.04h5.4c.06,0,.11-.02.16-.04Z" fill="#22ad67"/><path d="m22.86,5.74v8.16c-.05-.01-.1-.03-.16-.03h-5.4c-.06,0-.11.02-.16.03V5.74h.01c.04,1.46.47,2.71,1.12,3.52.48.59,1.07.95,1.73.95s1.25-.36,1.73-.95c.65-.81,1.08-2.06,1.12-3.52h.01Z" fill="#22ad67"/></g></g></g><g><path d="m18.268,15.266h4.434c.057,0,.107-.02.16-.032.307-.074.54-.338.54-.668s-.233-.594-.54-.668c-.053-.013-.103-.032-.16-.032h-5.404c-.057,0-.107.02-.16.032-.307.074-.54.338-.54.668s.233.594.54.668c.053.013.103.032.16.032h.97Z" fill="#1d9458"/><path d="m25.192,19.26h4.545c.018,0,.032-.009.05-.01.362-.027.651-.321.651-.69s-.288-.664-.651-.69c-.017-.001-.032-.01-.05-.01h-5.404c-.096,0-.188.02-.271.055-.252.106-.429.355-.429.646s.177.54.429.646c.083.035.175.055.271.055h.859Z" fill="#1d9458"/><path d="m14.84,20.288h-4.434c-.057,0-.107.02-.16.032-.307.074-.54.338-.54.668s.233.594.54.668c.053.013.103.032.16.032h5.404c.057,0,.107-.02.16-.032.307-.074.54-.338.54-.668s-.233-.594-.54-.668c-.053-.013-.103-.032-.16-.032h-.97Z" fill="#1d9458"/></g><g><path d="m20,9.082c.819,0,1.733-1.466,1.733-3.569s-.913-3.57-1.733-3.57-1.732,1.466-1.732,3.57.912,3.569,1.732,3.569Z" fill="#1a854f"/><path d="m26.925,13.724c.819,0,1.732-1.466,1.732-3.57s-.912-3.57-1.732-3.57-1.733,1.466-1.733,3.57.913,3.57,1.733,3.57Z" fill="#1a854f"/><path d="m13.108,16.378c.819,0,1.733-1.466,1.733-3.57s-.913-3.57-1.733-3.57-1.732,1.466-1.732,3.57.912,3.57,1.732,3.57Z" fill="#1a854f"/></g><g><path d="m18.268,9.257c.479.594,1.073.956,1.732.956s1.253-.362,1.733-.956c.652-.808,1.075-2.061,1.117-3.516.002-.077.014-.15.014-.228,0-2.635-1.258-4.7-2.863-4.7s-2.862,2.065-2.862,4.7c0,.078.011.151.014.228.041,1.454.464,2.708,1.116,3.516Zm0-3.744c0-2.104.912-3.57,1.732-3.57s1.733,1.466,1.733,3.57-.913,3.569-1.733,3.569-1.732-1.466-1.732-3.569Z" fill="#8be091"/><path d="m25.192,13.898c.479.594,1.073.956,1.733.956s1.253-.362,1.732-.956c.687-.851,1.13-2.192,1.13-3.744,0-.029-.005-.054-.005-.083-.027-2.595-1.269-4.617-2.857-4.617s-2.831,2.023-2.858,4.617c0,.026-.005.05-.005.076,0,.002,0,.005,0,.007s0,.005,0,.007c.001,1.55.444,2.887,1.13,3.737Zm0-3.744c0-2.104.913-3.57,1.733-3.57s1.732,1.466,1.732,3.57-.912,3.57-1.732,3.57-1.733-1.466-1.733-3.57Z" fill="#8be091"/><path d="m11.376,16.553c.479.593,1.072.955,1.732.955s1.253-.362,1.733-.956c.685-.848,1.127-2.184,1.13-3.731,0-.005,0-.009,0-.013,0-2.635-1.258-4.7-2.863-4.7s-2.862,2.065-2.862,4.7c0,.005,0,.009,0,.013.003,1.547.445,2.883,1.129,3.731Zm0-3.745c0-2.104.912-3.57,1.732-3.57s1.733,1.466,1.733,3.57-.913,3.57-1.733,3.57-1.732-1.466-1.732-3.57Z" fill="#8be091"/></g><path d="m23.999,30.123l-.59.371c-.369.231-.855.12-1.086-.249l-.046-.074c-1.339.023-2.68.017-4.019-.015l-.056.089c-.231.369-.717.48-1.086.249l-.637-.4c-2.16-.092-4.308-.246-6.419-.475l.329,2.298c6.377.812,13.112.805,19.747,0h0l.136-.951.185-1.294c-2.124.231-4.285.375-6.458.451Z" fill="#db901f"/><path d="m15.624,28.627c-.231.368-.12.854.249,1.086l.606.38.637.4c.369.231.855.12,1.086-.249l.056-.089,1.661-2.648c.159-.253.528-.253.686,0l1.671,2.663.046.074c.231.369.717.48,1.086.249l.59-.371.653-.409c.369-.231.48-.718.249-1.086l-1.054-1.681h7.247c.84,0,1.521-.681,1.521-1.521,0-.53-.272-.996-.683-1.268-.241-.159-.528-.253-.839-.253H9.432c-.417,0-.793.168-1.068.439-.279.276-.453.658-.453,1.082,0,.84.681,1.521,1.521,1.521h7.247l-1.054,1.681Z" fill="#ba5f1a"/></g></svg>