<?xml version="1.0" encoding="UTF-8"?><svg id="Layer_1" xmlns="http://www.w3.org/2000/svg" viewBox="0 0 40 40"><g><g><path d="M28.79631,4.4593l-.03669,1.69589h0l-.11638,5.38074-.00108,.04982,5.39817,.11765,.00024-.01192,1.70138,.03709c1.49067,.03249,2.72532-1.15419,2.7577-2.65049,.03237-1.49632-1.1498-2.73564-2.64047-2.76814l-1.70138-.03709,.03669-1.69589c.03237-1.49632-1.14983-2.73564-2.6405-2.76814-1.49065-.03251-2.72532,1.15415-2.75769,2.65047Z" style="fill:#d0d5da;"/><polygon points="29.51944 6.98241 33.25603 10.89968 27.97621 15.97423 24.23962 12.05696 29.51944 6.98241" style="fill:#d0d5da;"/></g><g><ellipse cx="14.39885" cy="25.24379" rx="12.8986" ry="12.94747" style="fill:#f77f00;"/><path d="M27.11791,27.49034L12.24459,12.47728l13.25334-2.75125c.37828-.07981,.7708,.04205,1.03813,.3223l3.5081,3.67772c.26653,.27942,.37101,.67687,.27652,1.05191l-3.20275,12.71238Z" style="fill:#f77f00;"/></g></g><rect width="40" height="40" style="fill:none;"/></svg>