<?xml version="1.0" encoding="UTF-8"?><svg id="Layer_1" xmlns="http://www.w3.org/2000/svg" viewBox="0 0 40 40"><g><path d="M37.92774,11.74726c-1.43112,.79101-4.98723,2.47587-9.6276,2.6841-.23244,.01043-.45979-.1008-.59544-.28983l-.91739-1.27841c-.04552-.06343-.07762-.12527-.0991-.20034-.26515-.92678-2.00521-7.70486,2.57942-11.62911,.22483-.19245,.58808-.08168,.67182,.20218,.3328,1.12808,1.33641,3.51198,4.05956,4.65861,2.97822,1.25404,4.10256,3.18287,4.4628,4.57295,.13038,.50311-.07919,1.02843-.53406,1.27985Z" style="fill:#b1b3fb;"/><path d="M2.15713,27.58213c1.49268-.66761,5.17812-2.04683,9.81953-1.86332,.23249,.00919,.44966,.13918,.5689,.33897l.80641,1.35116c.04001,.06704,.06679,.13137,.08186,.20798,.18611,.94582,1.34886,7.84642-3.55014,11.37041-.24025,.17282-.59287,.03184-.6524-.25806-.23657-1.15211-1.03573-3.6121-3.65258-4.98411-2.86197-1.50053-3.81978-3.51724-4.0616-4.93273-.08752-.51231,.16556-1.0181,.64-1.2303Z" style="fill:#b1b3fb;"/><path d="M17.35988,8.18754c6.42192-1.35495,12.72625,2.75268,14.08118,9.17451,.36056,1.7089,.32399,3.40629-.02972,5.00754L12.79126,10.23772c1.32179-.97044,2.85972-1.68962,4.56862-2.05018Z" style="fill:#8b8bf4;"/><path d="M26.45983,29.6621c-1.2352,.83445-2.64484,1.45443-4.19328,1.78114-6.42184,1.35493-12.72624-2.75259-14.08118-9.17451-.3267-1.54844-.32897-3.08841-.06465-4.55544l18.33911,11.94881Z" style="fill:#8b8bf4;"/><path d="M12.79126,10.23772l18.62008,12.13188c-.65505,2.96512-2.42712,5.5871-4.95151,7.2925L8.12072,17.71329c.54023-2.99811,2.2228-5.67847,4.67054-7.47557Z" style="fill:#b1b3fb;"/></g><rect width="40" height="40" style="fill:none;"/></svg>