<?xml version="1.0" encoding="UTF-8"?><svg id="Layer_1" xmlns="http://www.w3.org/2000/svg" viewBox="0 0 40 40"><g><path d="m30.205,10.297l-.266-.273c-.668-.684-1.41-1.249-2.193-1.718-4.115-2.466-9.522-1.975-13.117,1.533l-8.113,7.92c-1.924,1.878-1.155,5.901,1.601,9.707l.742-.724c-2.012-3.021-2.511-6.113-.99-7.597,1.929-1.883,6.366-.467,9.91,3.164,3.544,3.631,4.853,8.1,2.924,9.983-1.551,1.514-4.723.892-7.749-1.296l-.712.695c3.739,2.847,7.742,3.713,9.666,1.835l8.113-7.92c3.594-3.509,4.215-8.902,1.85-13.076-.45-.795-.997-1.55-1.665-2.234Z" fill="#f77f00"/><path d="m14.076,24.963l.813.833c.914.937.896,2.438-.04,3.352l-1.895,1.85c3.026,2.188,6.198,2.811,7.749,1.296,1.929-1.883.62-6.353-2.924-9.983-3.544-3.631-7.981-5.047-9.91-3.164-1.521,1.484-1.022,4.576.99,7.597l1.865-1.821c.937-.914,2.437-.896,3.352.041Z" fill="#e32939"/><g><path d="m39,9.11c-.02,1.63-1.36,2.93-2.99,2.91l-1.86-.02v.01l-1.73-.02-.55.54c-.45-.79-1-1.55-1.66-2.23l-.27-.28c-.67-.68-1.41-1.24-2.19-1.71l.55-.55.03-1.73.02-1.85c.02-1.63,1.35-2.93,2.98-2.91s2.94,1.35,2.92,2.98l-.02,1.85,1.86.02c1.62.02,2.93,1.36,2.91,2.99Z" fill="#d0d5da"/><path d="m14.85,29.15l-1.9,1.85-.71.69-.54.54-.03,1.73h-.01l-.02,1.86c-.02,1.63-1.36,2.93-2.99,2.91s-2.93-1.35-2.91-2.98l.02-1.86-1.85-.03c-1.62-.02-2.93-1.35-2.91-2.98.02-1.63,1.36-2.94,2.99-2.92l1.84.03,1.73.02.56-.54.74-.73,1.86-1.82c.94-.91,2.44-.89,3.36.04l.81.84c.91.93.9,2.43-.04,3.35Z" fill="#d0d5da"/></g></g><rect width="40" height="40" fill="none"/></svg>