<?xml version="1.0" encoding="UTF-8"?><svg id="Layer_1" xmlns="http://www.w3.org/2000/svg" viewBox="0 0 40 40"><rect x="0" y="0" width="40" height="40" transform="translate(40 40) rotate(-180)" style="fill:none;"/><g><rect x="20.02251" y="24.59786" width="17.18435" height="7.3167" rx="1.08684" ry="1.08684" style="fill:#8a94a0;"/><path d="M28.65527,24.47852c-.41406,0-.75-.33594-.75-.75V9.32715c0-.41406,.33594-.75,.75-.75s.75,.33594,.75,.75v14.40137c0,.41406-.33594,.75-.75,.75Z" style="fill:#4b596a;"/><path d="M3.83411,12.38762l28.18316-1.1557c.5359-.02198,.95903-.46281,.95903-.99916v-1.79346c0-.53635-.42313-.97718-.95903-.99916L3.83411,6.28445c-.56788-.02329-1.04097,.4308-1.04097,.99916v4.10485c0,.56836,.47309,1.02245,1.04097,.99916Z" style="fill:#ffcd00;"/><rect x="26.41217" y="6.74465" width="4.40503" height="5.64191" rx=".4662" ry=".4662" style="fill:#fa0;"/><path d="M25.49805,32.66504c-.08984,0-.17969-.01562-.26855-.0498-.38672-.14844-.58008-.58203-.43164-.96875l3.8584-10.07031,3.8877,10.06836c.14941,.38672-.04297,.82129-.42871,.96973-.38574,.1543-.82129-.04297-.96973-.42871l-2.4834-6.43164-2.46387,6.42969c-.11426,.29785-.39844,.48145-.7002,.48145Z" style="fill:#4b596a;"/><path d="M13.89604,35.91165l-1.16468-31.89628c-.01963-.53773-.46125-.96351-.99933-.96351H7.47178c-.53808,0-.9797,.42578-.99933,.96351l-1.16468,31.89628c-.02068,.56622,.43274,1.03649,.99933,1.03649h6.5896c.56659,0,1.02001-.47027,.99933-1.03649Z" style="fill:#fa0;"/></g></svg>