<svg id="Layer_1" data-name="Layer 1" xmlns="http://www.w3.org/2000/svg" viewBox="0 0 40 40"><defs><style>.cls-1{fill:#23b169;}.cls-2{fill:#ffda16;}.cls-3{fill:#68c76f;}.cls-4{fill:#fa0;}.cls-5{fill:none;}</style></defs><path class="cls-1" d="M3.543,31.958C2.76,32.844,3.412,34.7,5,36.1s3.509,1.819,4.292.933l1.137-1.288L4.68,30.671Z"/><path class="cls-2" d="M28.415,23.209C35.947,14.68,37.273,7.17,33.6,3.921s-10.968-1-18.5,7.524L5.758,22.016,18.6,33.358Z"/><path class="cls-1" d="M15.672,22.492a79.168,79.168,0,0,1,17.943-4.905c.626-.1,1.12.7.7,1.123l-16.241,16.6a7.653,7.653,0,0,1-7.165,1.92,10.217,10.217,0,0,1-4.624-2.36h0a10.5,10.5,0,0,1-2.048-2.464C5.752,28.01,10.341,24.8,15.672,22.492Z"/><path class="cls-3" d="M14.345,23.572c-.507,4.839-1.582,9.917-3.738,13.58a11.233,11.233,0,0,1-4.531-2.466h0a11.677,11.677,0,0,1-2.083-2.424c-1.888-2.93-2.13-6.345-.349-8.61l9.874-12.561c.328-.416,1.151-.009,1.173.583A86.35,86.35,0,0,1,14.345,23.572Z"/><rect class="cls-4" x="20.479" y="10.161" width="4.046" height="1.779" rx="0.89" transform="translate(32.052 34.228) rotate(-138.549)"/><rect class="cls-4" x="27.418" y="11.043" width="4.046" height="1.779" rx="0.89" transform="matrix(-0.75, -0.662, 0.662, -0.75, 43.608, 40.367)"/><rect class="cls-5" width="40" height="40" transform="translate(40 40) rotate(-180)"/></svg>