<?xml version="1.0" encoding="UTF-8"?><svg id="Layer_1" xmlns="http://www.w3.org/2000/svg" viewBox="0 0 40 40"><g><path d="m11.4,17.921l-5.611.862L3.075,3.091c-.061-.351.254-.662.599-.577,1.725.428,6.09,2.768,7.725,15.407Z" fill="#e60000"/><path d="m5.702,18.691l5.62.911L14.608,3.583c.118-.574-.441-1.057-.988-.847-1.994.767-5.938,3.826-7.918,15.955Z" fill="#f40"/><path d="m23.644,5.183c1.649.31,3.287.883,4.86,1.741,7.007,3.823,10.209,12.446,7.432,19.93-3.26,8.787-13.035,12.082-21.558,8.45-5.291-2.254-8.89-6.083-9.795-11.359-.023-.131.052-.262.175-.312l6.396-2.583s3.062,3.199,5.739,3.902c1.774.466,3.673-.702,4.3-2.48.453-1.284.021-2.786-1.072-3.597-.12-.089-.242-.168-.367-.238-.893-.502-1.274-1.596-1.037-2.592l2.172-9.108c.294-1.232,1.51-1.989,2.755-1.755Z" fill="#f40"/><path d="m11.37,19.328l-.215,1.723-6.439,2.6.556-4.982c.038-.267.292-.449.558-.398l5.54,1.056Z" fill="#e60000"/><path d="m20.961,19.857c.433.786.539,1.748.233,2.615-.067.191-.155.361-.25.525,3.7,1.604,7.53,5.895,8.185,12.104,3.012-1.835,5.471-4.646,6.807-8.247,1.159-3.124,1.263-6.444.496-9.534-7.332-3.196-13.443.893-15.472,2.537Z" fill="#ff9c00"/><path d="m20.944,22.997c-.784,1.358-2.435,1.775-4.018,1.359-.446-.117-.903-.288-1.356-.49-.541-.242-1.173-.123-1.584.303-1.99,2.068-3.526,5.442-4.425,7.782-.205.533-.072,1.143.357,1.518,1.262,1.105,2.716,2.034,4.344,2.728,5.031,2.144,10.528,1.546,14.868-1.097-.655-6.208-4.486-10.5-8.185-12.104Z" fill="#ffb72d"/><path d="m28.504,6.924c-1.573-.858-3.21-1.431-4.86-1.741-1.245-.234-2.461.523-2.755,1.755l-2.172,9.108c-.237.996.144,2.09,1.037,2.592.125.07.247.149.367.238.355.263.632.604.839.982,2.029-1.644,8.14-5.732,15.472-2.537-1.07-4.31-3.847-8.169-7.929-10.396Z" fill="#ffb72d"/></g><rect width="40" height="40" fill="none"/></svg>