<svg id="Layer_1" data-name="Layer 1" xmlns="http://www.w3.org/2000/svg" viewBox="0 0 40 40"><defs><style>.cls-1{fill:#d12030;}.cls-2{fill:#ef4452;}.cls-3{fill:#e32939;}.cls-4{fill:none;}</style></defs><path class="cls-1" d="M21,12.572l-3.323-2.323L3.783,27.9a2,2,0,0,0,.353,2.823l5.288,4.064a2,2,0,0,0,2.92-.533L24.322,14.9Z"/><path class="cls-1" d="M19,12.572l3.323-2.323L36.217,27.9a2,2,0,0,1-.353,2.823l-5.288,4.064a2,2,0,0,1-2.92-.533L15.678,14.9Z"/><path class="cls-2" d="M3.968,8.424A34.51,34.51,0,0,0,3.9,18.908a4.381,4.381,0,0,0,6.534,3.182l7.254-4.242V9.039L10.236,5.276A4.353,4.353,0,0,0,3.968,8.424Z"/><path class="cls-2" d="M36.032,8.424A34.51,34.51,0,0,1,36.1,18.908a4.381,4.381,0,0,1-6.534,3.182l-7.254-4.242V9.039l7.451-3.763A4.353,4.353,0,0,1,36.032,8.424Z"/><rect class="cls-3" x="15.191" y="8.738" width="9.618" height="9.411" rx="3.332"/><rect class="cls-4" width="40" height="40"/></svg>