<?xml version="1.0" encoding="UTF-8"?><svg id="a" xmlns="http://www.w3.org/2000/svg" viewBox="0 0 40 40"><rect width="40" height="40" fill="none"/><g><path d="M22.536,9.33h-5.072c-.553,0-.954-.526-.808-1.059l1.046-3.811c.2-.727,.861-1.232,1.615-1.232h1.365c.754,0,1.416,.504,1.615,1.232l1.046,3.811c.146,.533-.255,1.059-.808,1.059Z" fill="#037f56"/><g><circle cx="25.748" cy="21.857" r="12.752" fill="#ec6700"/><circle cx="14.252" cy="21.857" r="12.752" fill="#ec6700"/></g><circle cx="20" cy="21.857" r="14.915" fill="#ff8000"/><g><path d="M28.52,24.075c-.219,1.368-.867,2.62-1.822,3.65-1.58,1.704-3.999,2.799-6.698,2.799s-5.118-1.095-6.698-2.799c-.955-1.03-1.604-2.282-1.822-3.65-.025-.156-.044-.562-.058-.953-.017-.484,.371-.885,.855-.885h2.363c.348,0,.662,.211,.793,.534l.14,.347c.131,.323,.444,.534,.793,.534h.745c.413,0,.767-.295,.841-.701l.002-.013c.074-.406,.428-.701,.841-.701h2.303c.413,0,.767,.295,.841,.701l.002,.013c.074,.406,.428,.701,.841,.701h.745c.348,0,.662-.211,.793-.534l.14-.347c.131-.323,.444-.534,.793-.534h2.47c.484,0,.872,.401,.855,.885-.014,.391-.033,.798-.058,.953Z" fill="#ffcd00" fill-rule="evenodd"/><path d="M19.706,17.947l-1.046,1.308c-.197,.247-.022,.612,.294,.612h2.092c.316,0,.492-.366,.294-.612l-1.046-1.308c-.151-.189-.438-.189-.589,0Z" fill="#ffcd00"/><circle cx="23.595" cy="16.228" r="1.824" fill="#ffcd00"/><circle cx="16.083" cy="16.228" r="1.824" fill="#ffcd00"/></g></g></svg>