<svg id="Layer_1" data-name="Layer 1" xmlns="http://www.w3.org/2000/svg" viewBox="0 0 40 40"><defs><style>.cls-1,.cls-2,.cls-3{fill:none;}.cls-1{opacity:0;}.cls-2{stroke:#6e4944;stroke-linecap:round;stroke-width:2px;}.cls-2,.cls-3{stroke-miterlimit:10;}.cls-3{stroke:#65778e;}.cls-4{fill:#8a94a0;}.cls-5{fill:#a96850;}.cls-6{fill:#fa0;}.cls-7{fill:#ffcd00;}</style></defs><rect class="cls-1" width="40" height="40"/><line class="cls-2" x1="34.867" y1="5.04" x2="7.239" y2="32.667"/><path class="cls-3" d="M6.944,3.752l.075,27.741A1.305,1.305,0,0,0,8.36,32.824l27.761.027"/><path class="cls-4" d="M37.523,1.925,32.268,3.649a.6.6,0,0,0-.409.544L31.75,7.12a1,1,0,0,0,1.036,1.036l2.928-.109a.6.6,0,0,0,.543-.409l1.724-5.255A.363.363,0,0,0,37.523,1.925Z"/><path class="cls-5" d="M35.121,32.564a1,1,0,0,0,1.974-.2,28.76,28.76,0,0,0-29.8-29.8,1,1,0,0,0-.2,1.974A39.265,39.265,0,0,1,24.716,14.939,39.265,39.265,0,0,1,35.121,32.564Z"/><path class="cls-6" d="M14,27.284l.15,1.483A7.79,7.79,0,0,1,12.1,34.854L9.236,37.938A.488.488,0,0,1,8.4,37.68l-.636-4.168Z"/><path class="cls-7" d="M12.607,25.877l-1.483-.149a7.793,7.793,0,0,0-6.088,2.045L1.953,30.638a.488.488,0,0,0,.258.839l4.168.636Z"/></svg>