<?xml version="1.0" encoding="UTF-8"?><svg id="Layer_1" xmlns="http://www.w3.org/2000/svg" viewBox="0 0 40 40"><rect width="40" height="40" fill="none"/><g><path d="m32.393,8.362H7.607c-1.053,0-1.907.854-1.907,1.907v25.033c0,1.136.921,2.057,2.057,2.057h24.487c1.136,0,2.057-.921,2.057-2.057V10.268c0-1.053-.854-1.907-1.907-1.907Z" fill="#d0d5da"/><path d="m14.757,26.71c0,.263-.213.477-.477.477h-1.907c-.263,0-.477-.213-.477-.477v-1.907c0-.263.213-.477.477-.477h1.907c.263,0,.477.213.477.477v1.907Zm0-6.673c0,.263-.213.477-.477.477h-1.907c-.263,0-.477-.213-.477-.477v-1.907c0-.263.213-.477.477-.477h1.907c.263,0,.477.213.477.477v1.907Zm6.673,6.673c0,.263-.213.477-.477.477h-1.907c-.263,0-.477-.213-.477-.477v-1.907c0-.263.213-.477.477-.477h1.907c.263,0,.477.213.477.477v1.907Zm0-6.673c0,.263-.213.477-.477.477h-1.907c-.263,0-.477-.213-.477-.477v-1.907c0-.263.213-.477.477-.477h1.907c.263,0,.477.213.477.477v1.907Zm6.673,6.673c0,.263-.213.477-.477.477h-1.907c-.263,0-.477-.213-.477-.477v-1.907c0-.263.213-.477.477-.477h1.907c.263,0,.477.213.477.477v1.907Zm0-6.673c0,.263-.213.477-.477.477h-1.907c-.263,0-.477-.213-.477-.477v-1.907c0-.263.213-.477.477-.477h1.907c.263,0,.477.213.477.477v1.907Z" fill="#8a94a0"/><path d="m18.664,32.217h2.672c.682,0,1.235.553,1.235,1.235v3.907h-5.142v-3.907c0-.682.553-1.235,1.235-1.235Z" fill="#6b7683"/><rect x="14.28" y="2.642" width="11.44" height="11.44" rx="1.673" ry="1.673" fill="#4d9dff"/><path d="m19.701,5.025h-1.905c-.263,0-.477.213-.477.477v5.72c0,.263.213.477.477.477h2.001c2.069,0,3.704-1.893,3.265-4.038-.32-1.56-1.769-2.636-3.361-2.636Zm.096,4.767h-.571v-2.86h.571c.789,0,1.43.641,1.43,1.43s-.641,1.43-1.43,1.43Z" fill="#fff"/></g></svg>