<svg id="Layer_1" data-name="Layer 1" xmlns="http://www.w3.org/2000/svg" viewBox="0 0 40 40"><defs><style>.cls-1{fill:#68c76f;}.cls-2{fill:#22ad67;}.cls-3,.cls-5,.cls-6{fill:none;}.cls-3{stroke:#22ad67;stroke-width:0.956px;}.cls-3,.cls-5{stroke-miterlimit:10;}.cls-4{fill:#ff4645;}.cls-5{stroke:#7d2222;stroke-linecap:round;stroke-width:0.478px;}</style></defs><path class="cls-1" d="M22.749,11.532l1.006.081a15.52,15.52,0,0,1,11.8,7.058l.548.848a.166.166,0,0,1-.153.255l-1.006-.08a15.522,15.522,0,0,1-11.8-7.059l-.548-.848A.166.166,0,0,1,22.749,11.532Z"/><path class="cls-1" d="M6.371,5.647a39.953,39.953,0,0,1,0,30.759H14.1a39.953,39.953,0,0,0,0-30.759Z"/><rect class="cls-2" x="5.346" y="35.312" width="10.459" height="2.188" rx="1.094"/><rect class="cls-2" x="5.346" y="4.553" width="10.459" height="2.188" rx="1.094"/><rect class="cls-2" x="7.723" y="14.806" width="10.459" height="2.188" rx="1.094"/><rect class="cls-2" x="7.723" y="25.059" width="10.459" height="2.188" rx="1.094"/><path class="cls-3" d="M15.805,15.9a17.511,17.511,0,0,1,8.032-4.763"/><path class="cls-2" d="M22.167,11.6l.685-1A18.6,18.6,0,0,1,37.237,2.562L38.445,2.5a.2.2,0,0,1,.174.311l-.686,1a18.6,18.6,0,0,1-14.385,8.041l-1.208.062A.2.2,0,0,1,22.167,11.6Z"/><path class="cls-4" d="M27.459,34.1c-7.138-2.689-8.586-13.758-8.586-13.758l6.933-2.033s2.1,10.994,9.46,13Z"/><line class="cls-5" x1="20.145" y1="11.974" x2="22.52" y2="20.404"/><rect class="cls-6" width="40" height="40"/></svg>