<?xml version="1.0" encoding="UTF-8"?><svg id="Layer_1" xmlns="http://www.w3.org/2000/svg" viewBox="0 0 40 40"><rect x="0" y="0" width="40" height="40" transform="translate(40 40) rotate(-180)" fill="none"/><g><path d="m10.558,3.349c2.091-1.704,5.165-1.392,6.873.694l1.059-.863c.296-.241.305-.683.034-.953C16.044-.249,12.044-.495,9.269,1.767c-2.789,2.273-3.346,6.27-1.387,9.203.201.3.63.343.91.115l1.06-.864c-1.699-2.093-1.384-5.167.707-6.872Z" fill="#4a9e25"/><path d="m11.43,8.813c.418-.989.635-2.066.64-3.153.003-.547.446-.987.993-.987h3.611l.765-.623s-.005-.004-.007-.007c-1.708-2.086-4.782-2.398-6.873-.694s-2.406,4.778-.707,6.872c.002.003.003.006.006.009l1.49-1.215c.028-.068.054-.134.083-.202Z" fill="#69ca33"/><path d="m19.494,36.178c-.06.081-.289.189-.625.319-1.392.536-4.672,1.455-5.888,2.513-.308.268-.094.78.315.78h13.49c.408,0,.623-.512.315-.78-1.241-1.08-4.631-2.014-5.97-2.545-.29-.115-.489-.212-.543-.286-.182-.26-.911-.26-1.094,0Z" fill="#e3e7ec"/><path d="m28.57,8.81c-.42-.99-.64-2.06-.64-3.15,0-.55-.45-.99-.99-.99h-13.88c-.54,0-.99.44-.99.99,0,1.09-.22,2.16-.64,3.15-.03.07-.05.14-.08.2-1.62,3.87-2.82,7.5-2.82,9.79,0,5.9,3.54,10.86,8.37,12.38,1.03.32,1.76,1.29,1.97,2.44v2.88c.34-.13.56-.24.62-.32.19-.26.92-.26,1.1,0,.05.07.25.17.54.28v-2.45c.09-1.31.87-2.48,2.01-2.84,4.81-1.53,8.33-6.49,8.33-12.37,0-2.33-1.24-6.05-2.9-9.99Zm-8.57,21.37c-5.58,0-10.11-5.07-10.11-11.32,0-1.81.85-4.55,2.04-7.53.29-.18.6-.34.93-.42,1.58-.4,4.11-.62,7.14.68,3.93,1.68,7.02.82,8.29.3,1.07,2.76,1.82,5.28,1.82,6.97,0,6.25-4.53,11.32-10.11,11.32Z" fill="#e2e5e8"/><path d="m30.108,18.856c0-1.689-.744-4.205-1.82-6.971-4.221,3.204-17.55,2.426-16.355-.56-1.195,2.986-2.04,5.729-2.04,7.531,0,6.256,4.525,11.328,10.108,11.328s10.108-5.072,10.108-11.328Zm-7.199,1.067c.639,0,1.158.518,1.158,1.158s-.518,1.158-1.158,1.158-1.158-.519-1.158-1.158.518-1.158,1.158-1.158Zm-5.006-1.158c-.639,0-1.158-.518-1.158-1.158s.518-1.158,1.158-1.158,1.158.519,1.158,1.158-.518,1.158-1.158,1.158Z" fill="#ee9376"/><g><path d="m28.287,11.886c-1.27.519-4.354,1.381-8.287-.3-3.031-1.295-5.559-1.08-7.141-.676-.331.085-.636.236-.926.416-1.195,2.986,12.134,3.764,16.355.56Z" fill="#e96328"/><path d="m22.908,22.239c.639,0,1.158-.519,1.158-1.158s-.518-1.158-1.158-1.158-1.158.518-1.158,1.158.518,1.158,1.158,1.158Z" fill="#e95939"/><path d="m17.902,16.45c-.639,0-1.158.519-1.158,1.158s.518,1.158,1.158,1.158,1.158-.518,1.158-1.158-.518-1.158-1.158-1.158Z" fill="#e95939"/></g></g></svg>