<?xml version="1.0" encoding="UTF-8"?><svg id="Layer_1" xmlns="http://www.w3.org/2000/svg" viewBox="0 0 40 40"><rect width="40" height="40" fill="none"/><path d="m34.75,20c0-1.795,1.455-3.25,3.25-3.25v-8.204c0-.904-.733-1.636-1.636-1.636H3.636c-.904,0-1.636.733-1.636,1.636v8.204c1.795,0,3.25,1.455,3.25,3.25s-1.455,3.25-3.25,3.25v8.204c0,.904.733,1.636,1.636,1.636h32.727c.904,0,1.636-.733,1.636-1.636v-8.204c-1.795,0-3.25-1.455-3.25-3.25Z" fill="#f56570"/><polygon points="25.506 17.945 21.701 17.392 20 13.945 18.299 17.392 14.494 17.945 17.247 20.629 16.597 24.418 20 22.629 23.403 24.418 22.753 20.629 25.506 17.945" fill="#e32939"/></svg>