<?xml version="1.0" encoding="UTF-8"?><svg id="Layer_1" xmlns="http://www.w3.org/2000/svg" viewBox="0 0 40 40"><g><path d="m18.011,9.536l-.553.127v4.633c.182-.02.368-.033.553-.049v-4.711Z" fill="#901a18"/><path d="m19.011,14.184c.281-.012.563-.023.848-.025,1.945-.729,3.915-.751,5.017.351.064.064.115.137.171.207,5.094,1.167,8.702,4.038,8.702,7.403,0,.416-.072.822-.178,1.221,1.294-1.137,2.182-2.44,2.537-3.841.016-.066.039-.132.052-.198.036-.164.049-.332.07-.498.023-.205.054-.409.054-.617,0-4.964-6.623-9.023-15.028-9.396l-2.247.517v4.877Z" fill="#901a18"/><path d="m16.458,9.893l-.553.127v4.494c.181-.033.369-.054.553-.083v-4.538Z" fill="#901a18"/><path d="m6.439,23.382c-.114-.412-.189-.832-.189-1.262,0-3.355,3.586-6.22,8.655-7.393v-4.476l-1.507.347c-.056.013-.112.016-.166.012-.224-.02-.422-.179-.479-.407-.046-.182.016-.362.136-.492-5.425,1.531-9.173,4.746-9.173,8.476,0,.102.021.201.026.302.099,1.807,1.086,3.481,2.698,4.894Z" fill="#901a18"/></g><g><path d="m15.098,22.832c-.033-.05-.062-.101-.093-.151-.048.036-.101.063-.148.101.081.013.161.036.241.051Z" fill="#f77f00"/><path d="m16.347,16.372c.036-.035.074-.069.111-.103v-1.837c-.184.029-.372.05-.553.083v1.322c.194.132.344.319.442.535Z" fill="#f77f00"/><path d="m12.882,22.701c.22-.015.441-.022.662-.021.305-.363.652-.673,1.029-.929-.056-.171-.105-.344-.139-.521-.601.388-1.131.878-1.552,1.471Z" fill="#f77f00"/><path d="m22.2,25.762c-.788-.456-1.674-.656-2.56-.591.574.56,1.078,1.197,1.49,1.909.094.164.079.355-.012.506-.274.011-.547.021-.824.024-.008-.012-.023-.017-.03-.03-.694-1.202-1.676-2.17-2.846-2.846-.266-.103-.522-.233-.768-.388-.364-.16-.738-.301-1.129-.406-2.014-.54-4.12-.264-5.928.78-.239.139-.545.056-.683-.183-.138-.239-.056-.545.183-.683.807-.466,1.668-.791,2.553-.983.002-.081.016-.162.06-.238.638-1.105,1.564-1.978,2.674-2.549.017-.205.046-.411.093-.619-1.306.591-2.448,1.574-3.218,2.907-.093.16-.261.25-.434.25-.085,0-.171-.021-.25-.067-.239-.138-.321-.443-.183-.683.093-.161.198-.311.3-.463-.06.042-.129.073-.209.073h-1.676c-.252,0-.443-.254-.347-.487.192-.466.65-.794,1.185-.794s.993.328,1.185.794c.023.057.029.115.021.17,1.032-1.425,2.47-2.421,4.058-2.937v-1.336h-.56c-.252,0-.442-.254-.347-.487.157-.381.496-.659.907-.751v-.93c-5.069,1.173-8.655,4.038-8.655,7.393,0,.431.075.85.189,1.262.913.8,2.021,1.518,3.3,2.121.042-.083.099-.158.186-.208,3.308-1.91,7.515-.862,9.567,2.309-.42-.007-.839-.018-1.251-.043.578.036,1.164.058,1.759.058,1.307,0,2.571-.101,3.788-.271-.387-.646-.917-1.198-1.588-1.585Z" fill="#f77f00"/><path d="m10.812,25.963c.301.12.613.231.929.339,1.487-.502,3.142-.359,4.527.447.224.131.302.407.196.639.576.074,1.162.134,1.76.171-1.787-2.152-4.852-2.843-7.412-1.596Z" fill="#f77f00"/><path d="m11.823,26.331c.323.109.65.213.987.309-.336-.096-.664-.2-.987-.309Z" fill="#f77f00"/><path d="m18.011,14.247c-.185.016-.37.029-.553.049v1.152c.181-.13.365-.253.553-.371v-.829Z" fill="#f77f00"/><path d="m26.247,26.888c-.034.008-.069.015-.103.023.034-.008.069-.015.103-.023Z" fill="#f77f00"/><path d="m27.654,26.497c-.02.006-.041.012-.061.019.02-.006.041-.012.061-.019Z" fill="#f77f00"/><path d="m10.021,25.629c-.076-.034-.157-.065-.233-.101.075.035.156.066.233.101Z" fill="#f77f00"/><path d="m16.284,27.361c-1.168-.158-2.285-.389-3.34-.685,1.055.295,2.172.527,3.34.685Z" fill="#f77f00"/><g><path d="m26.59,23.861c.631.721,1.151,1.552,1.526,2.476.388-.131.767-.269,1.134-.418,0,0-.001,0-.001-.001-.585-1.012-1.563-1.736-2.658-2.056Z" fill="#f77f00"/><path d="m27.384,20.615c-.832-.223-1.678-.3-2.513-.247-.117.242-.247.481-.384.717,2.762-.338,5.59.943,7.067,3.501.031.054.043.113.052.172.216-.128.429-.259.632-.394-.04-.032-.083-.062-.11-.109-1.043-1.808-2.728-3.1-4.743-3.64Z" fill="#f77f00"/><path d="m23.379,22.645c-.149.172-.303.338-.462.498.208.095.413.198.614.314,1.351.78,2.379,1.954,2.983,3.358.218-.056.431-.117.644-.178-.747-1.79-2.116-3.177-3.778-3.991Z" fill="#f77f00"/><path d="m19.859,14.159c-.286.002-.567.013-.848.025v.334c.28-.136.564-.253.848-.359Z" fill="#f77f00"/><path d="m23.031,24.322c-.31-.179-.632-.324-.961-.445-.245.184-.49.344-.736.483.471.122.933.285,1.367.536.943.544,1.683,1.337,2.159,2.286.223-.041.439-.092.658-.138-.528-1.133-1.379-2.082-2.486-2.721Z" fill="#f77f00"/><path d="m25.291,19.353c.784-.005,1.574.087,2.352.296,2.273.608,4.174,2.067,5.351,4.105.009.015.012.032.016.048.195-.151.383-.305.562-.462.106-.399.178-.805.178-1.221,0-3.365-3.609-6.237-8.702-7.403.888,1.094.87,2.862.243,4.637Zm1.485-1.52c.192-.466.65-.794,1.185-.794s.993.328,1.185.794c.096.233-.095.487-.347.487h-1.676c-.252,0-.443-.254-.347-.487Z" fill="#f77f00"/><path d="m24.462,22.083c.303.18.591.382.871.597.007,0,.014-.005.021-.005,1.959,0,3.782,1.049,4.76,2.742.021.037.03.076.039.115.225-.105.435-.22.65-.332-.043-.033-.087-.065-.115-.114-1.296-2.245-3.803-3.358-6.225-3.003Z" fill="#f77f00"/></g></g><path d="m36.109,19.499c-.356,1.401-1.244,2.704-2.537,3.841-.18.158-.368.311-.562.462.003.011.007.021.011.032-.244.188-.496.372-.763.549-.007-.006-.012-.014-.02-.02-.203.135-.416.265-.632.394.002.012.009.023.01.034-.253.149-.523.289-.793.428-.007-.006-.013-.014-.02-.02-.215.112-.425.227-.65.332.002.006.005.012.006.019-.289.134-.586.263-.891.386-.005-.008-.014-.011-.019-.019-.367.149-.746.287-1.134.418.002.006.006.011.008.017-.153.051-.313.096-.47.144-.02.006-.041.012-.061.019-.144.043-.284.09-.43.132-.002-.004-.004-.008-.005-.011-.213.061-.426.122-.644.178.002.004.005.008.007.012-.089.023-.183.04-.273.061-.034.008-.069.015-.103.023-.207.047-.413.096-.623.14-.001-.003-.003-.005-.004-.008-.219.046-.434.097-.658.138.001.003.003.005.005.008-.351.063-.712.111-1.072.161,0-.001-.002-.003-.003-.004-1.218.171-2.482.271-3.788.271-.595,0-1.181-.022-1.759-.058-.005,0-.011,0-.017,0,0,0,0,0,0,0-.598-.038-1.183-.097-1.76-.171,0,0,0,0,0,.001-.061-.008-.119-.019-.18-.028-1.168-.158-2.284-.39-3.34-.685-.044-.012-.089-.024-.134-.036-.336-.096-.664-.2-.987-.309-.029-.01-.059-.018-.087-.027.001,0,.003,0,.004-.001-.316-.108-.627-.219-.929-.339-.003.002-.007.002-.01.004-.268-.107-.524-.223-.781-.338-.076-.034-.157-.065-.233-.101-.017-.008-.035-.015-.052-.022,0,0,.002-.002.003-.003-1.279-.604-2.387-1.321-3.3-2.121-1.612-1.413-2.599-3.087-2.698-4.894h0c-.017-.042-.026-.069-.026-.069v4.174c0,8.994,7.291,16.285,16.285,16.285s16.285-7.291,16.285-16.285c0,0,.017-4.216,0-4.174-.007.129-.038.255-.054.383-.021.167-.034.334-.07.498-.014.067-.035.132-.052.198Z" fill="#cb2c29"/><g><path d="m16.347,16.372c-.097-.216-.248-.403-.442-.535v.996c.108-.121.216-.242.336-.362.034-.034.071-.065.106-.098Z" fill="#901a18"/><path d="m13.999,16.408c-.096.233.095.487.347.487h.56v-1.238c-.41.092-.75.37-.907.751Z" fill="#901a18"/><path d="m10.826,20.997c-.192-.466-.65-.794-1.185-.794s-.993.328-1.185.794c-.096.233.095.487.347.487h1.676c.08,0,.148-.031.209-.073.054-.081.103-.166.159-.244.007-.055.002-.113-.021-.17Z" fill="#901a18"/><path d="m27.123,18.32h1.676c.252,0,.443-.254.347-.487-.192-.466-.65-.794-1.185-.794s-.993.328-1.185.794c-.096.233.095.487.347.487Z" fill="#901a18"/></g><g><path d="m15.905,10.021l.553-.127v-1.247l-.579.157c.012.042.026.083.026.129v1.088Z" fill="#3d3d3d"/><path d="m17.458,9.663l.553-.127v-1.312l-.579.157c.011.042.026.083.026.129v1.153Z" fill="#3d3d3d"/><path d="m36.897,4.549l-.189-.755c-.04-.161-.142-.297-.286-.381-.143-.084-.311-.106-.472-.063l-16.966,4.609c.011.042.026.083.026.129v1.217l2.247-.517,15.182-3.492c.162-.038.3-.136.386-.278.087-.142.113-.309.072-.47Z" fill="#3d3d3d"/><path d="m12.752,10.202c.057.228.256.387.479.407.054.005.11.001.166-.012l1.507-.347v-1.182l-1.77.481c-.101.027-.18.088-.247.161-.12.13-.182.31-.136.492Z" fill="#3d3d3d"/><path d="m15.46,8.444l20.228-6.132c.159-.049.289-.156.367-.304.077-.147.091-.316.039-.474l-.241-.74c-.051-.159-.162-.287-.311-.36-.149-.074-.317-.085-.475-.031l-22.34,7.741c-.276.096-.427.4-.337.677.065.201.241.339.439.368.075.011.155.006.232-.018l2.022-.613c.087-.075.198-.125.322-.125.019,0,.036.009.054.011Z" fill="#3d3d3d"/></g><g><path d="m14.905,10.25v7.98c.01-.003.02-.006.03-.01.242-.465.562-.93.97-1.388v-7.9c0-.046-.014-.087-.026-.129-.053-.194-.215-.337-.42-.36-.019-.002-.035-.011-.054-.011-.124,0-.234.05-.322.125-.107.092-.178.223-.178.375v1.318Z" fill="#ffad00"/><path d="m16.458,9.893v6.375c.313-.293.647-.568,1-.821v-6.937c0-.046-.015-.087-.026-.129-.058-.212-.243-.371-.474-.371-.276,0-.5.224-.5.5v1.383Z" fill="#ffad00"/><path d="m18.011,9.536v5.54c.326-.204.659-.393,1-.558v-6.429c0-.046-.015-.087-.026-.129-.058-.212-.243-.371-.474-.371-.276,0-.5.224-.5.5v1.447Z" fill="#ffad00"/><path d="m23.531,23.456c-.2-.116-.406-.219-.614-.314,0,0-.001.001-.002.002-.279.279-.561.519-.845.733.329.121.651.266.961.445,1.107.639,1.957,1.588,2.486,2.721.001.003.003.005.004.008.21-.044.416-.093.623-.14.034-.008.069-.015.103-.023.091-.021.184-.039.273-.061-.002-.004-.005-.008-.007-.012-.604-1.405-1.632-2.578-2.983-3.358Z" fill="#ffad00"/><path d="m24.86,27.18v.01c-.35.06-.71.11-1.07.16-.39-.65-.92-1.2-1.59-1.59-.79-.45-1.67-.65-2.56-.59.57.56,1.08,1.2,1.49,1.91.09.16.08.36-.01.51-.27.01-.55.02-.83.02,0-.01-.02-.02-.03-.03-.69-1.2-1.67-2.17-2.84-2.85.25.1.5.18.76.23.41.07.82.08,1.25.04.62-.07,1.26-.28,1.9-.64.47.12.94.29,1.37.54.94.54,1.68,1.33,2.16,2.28Z" fill="#ffad00"/><path d="m10.847,21.167c-.056.078-.105.163-.159.244-.102.152-.207.302-.3.463-.138.239-.056.545.183.683.079.046.165.067.25.067.173,0,.341-.09.434-.25.769-1.333,1.912-2.316,3.218-2.907.092-.412.247-.828.463-1.246-.01.003-.02.006-.03.01-1.589.516-3.026,1.511-4.058,2.937Z" fill="#ffad00"/><path d="m16.65,24.35c-.36-.16-.74-.3-1.13-.41-2.01-.54-4.12-.26-5.93.78-.24.14-.54.06-.68-.18-.14-.24-.06-.55.18-.68.81-.47,1.67-.8,2.56-.99,0-.08.01-.16.06-.24.63-1.1,1.56-1.97,2.67-2.54-.03.39-.02.77.05,1.14-.6.39-1.13.88-1.55,1.47.22-.01.44-.02.66-.02.31-.36.66-.67,1.03-.93.11.32.26.63.44.93-.05.04-.11.06-.15.1.08.01.16.04.24.05.18.28.4.55.65.8.28.28.58.52.9.72Z" fill="#ffad00"/><path d="m27.643,19.649c-.778-.209-1.567-.302-2.352-.296-.12.34-.258.68-.42,1.015.835-.053,1.681.024,2.513.247,2.016.54,3.7,1.832,4.743,3.64.027.047.07.077.11.109.007.006.012.014.02.02.267-.177.52-.361.763-.549-.004-.01-.008-.021-.011-.032-.004-.016-.007-.033-.016-.048-1.177-2.038-3.077-3.497-5.351-4.105Z" fill="#ffad00"/><path d="m31.62,24.79c-.26.15-.53.29-.8.43,0-.01-.01-.01-.02-.02-.04-.03-.08-.06-.11-.11-1.3-2.25-3.81-3.36-6.23-3.01.3.18.59.38.87.6.01,0,.02,0,.02-.01,1.96,0,3.79,1.05,4.76,2.75.02.03.03.07.04.11,0,.01.01.01.01.02-.29.14-.59.26-.89.39-.01-.01-.02-.01-.02-.02-.59-1.02-1.57-1.74-2.66-2.06.63.72,1.15,1.55,1.53,2.48v.01c-.15.05-.31.1-.47.15-.02,0-.04.01-.06.02-.14.04-.28.09-.43.13v-.01c-.75-1.79-2.12-3.18-3.78-4,.11-.12.21-.26.32-.39.1-.14.2-.27.3-.41.17-.25.34-.5.49-.75,2.76-.34,5.59.94,7.06,3.5.03.05.05.11.05.17.01.01.01.02.02.03Z" fill="#ffad00"/><path d="m9.925,25.295c-.086.05-.143.125-.186.208,0,.001-.002.002-.003.003.017.008.035.015.052.022.075.035.156.066.233.101.256.116.512.232.781.338.003-.001.007-.002.01-.004,2.559-1.247,5.624-.556,7.412,1.596,0,0,0,0,0,0,.005,0,.011,0,.017,0,.412.025.831.036,1.251.043-2.052-3.17-6.259-4.219-9.567-2.309Z" fill="#ffad00"/><path d="m16.268,26.749c-1.385-.805-3.041-.948-4.527-.447-.001,0-.003,0-.004.001.029.01.059.018.087.027.323.109.651.213.987.309.044.013.089.024.134.036,1.055.296,2.172.527,3.34.685.061.008.119.02.18.028,0,0,0,0,0-.001.105-.231.028-.508-.196-.639Z" fill="#ffad00"/></g><path d="m18.011,15.076c-.188.118-.372.241-.553.371-.353.253-.687.528-1,.821-.037.035-.075.068-.111.103-.035.033-.072.065-.106.098-.12.12-.228.241-.336.362-.408.458-.729.923-.97,1.388-.217.417-.371.834-.463,1.246-.047.208-.076.414-.093.619-.032.39-.016.774.055,1.145.034.177.083.35.139.521.106.323.252.633.432.929.031.051.06.102.093.151.187.283.403.552.654.802.278.278.58.513.898.712.246.155.503.285.768.388.249.097.504.173.766.222.403.075.821.087,1.246.04.624-.07,1.264-.277,1.904-.635.246-.138.492-.298.736-.483.284-.214.566-.454.845-.733,0,0,.001-.001.002-.002.159-.159.313-.325.462-.498.111-.128.215-.262.32-.396.105-.135.205-.272.303-.412.172-.245.335-.495.485-.752.137-.236.267-.475.384-.717.162-.335.3-.675.42-1.015.627-1.775.645-3.543-.243-4.637-.056-.069-.108-.143-.171-.207-1.102-1.102-3.072-1.08-5.017-.351-.284.107-.568.224-.848.359-.341.165-.674.354-1,.558Zm3.245,3.054c1.04,1.04,1.04,2.725,0,3.765-1.04,1.04-2.725,1.04-3.765,0-1.04-1.04-1.04-2.725,0-3.765,1.04-1.04,2.725-1.04,3.765,0Z" fill="#fff"/><path d="m17.491,18.13c-1.04,1.04-1.04,2.725,0,3.765,1.04,1.04,2.725,1.04,3.765,0,1.04-1.04,1.04-2.725,0-3.765-1.04-1.04-2.725-1.04-3.765,0Z" fill="#ffcd00"/></svg>