<?xml version="1.0" encoding="UTF-8"?><svg id="Layer_1" xmlns="http://www.w3.org/2000/svg" viewBox="0 0 40 40"><g><path d="m24.15,8.973c-1.393,1.626-3.904,1.894-5.08,1.927-.366.01-.697-.274-.743-.637-.148-1.167-.267-3.689,1.127-5.315,1.393-1.626,3.904-1.894,5.08-1.927.366-.01.697.274.743.637.148,1.167.267,3.689-1.127,5.315Z" fill="#006956"/><path d="m29.373,8.471c-2.445-.499-4.952.032-7.21,1.341-1.329.77-2.997.77-4.326,0-2.258-1.308-4.765-1.84-7.21-1.341-6.18,1.262-9.618,8.624-7.681,16.445,1.938,7.821,8.518,13.138,14.697,11.877.496-.101.973-.243,1.431-.421.593-.23,1.258-.23,1.85,0,.458.178.936.319,1.431.421,6.18,1.261,12.76-4.056,14.697-11.877,1.938-7.821-1.501-15.184-7.681-16.445Z" fill="#ef4452"/></g><rect width="40" height="40" fill="none"/></svg>