<?xml version="1.0" encoding="UTF-8"?><svg id="Layer_1" xmlns="http://www.w3.org/2000/svg" viewBox="0 0 40 40"><g><path d="M18.01074,9.53613l-.55273,.1272v4.63281c.18231-.01978,.36798-.0332,.55273-.04883v-4.71118Z" style="fill:#901a18;"/><path d="M19.01074,14.18359c.28131-.01172,.56268-.02319,.84845-.0249,1.94495-.72949,3.9151-.75122,5.01703,.35059,.06378,.06396,.11493,.13721,.17133,.20654,5.09369,1.1665,8.70233,4.03809,8.70233,7.40332,0,.41626-.07184,.82202-.17816,1.22119,1.29376-1.13745,2.18182-2.44043,2.53741-3.84131,.01599-.06641,.03864-.13159,.05225-.19849,.03552-.16406,.04919-.33154,.07001-.49805,.02295-.20483,.05377-.40869,.05377-.61694,0-4.96387-6.62317-9.02319-15.02771-9.396l-2.2467,.5166v4.87744Z" style="fill:#901a18;"/><path d="M16.45801,9.89331l-.55273,.1272v4.49365c.1806-.03271,.36902-.05444,.55273-.08301v-4.53784Z" style="fill:#901a18;"/><path d="M6.43921,23.38159c-.11365-.41211-.18909-.83179-.18909-1.26245,0-3.35498,3.586-6.21997,8.65515-7.39307v-4.47559l-1.50745,.34668c-.05615,.01318-.11194,.01636-.16614,.01172-.22357-.01978-.42206-.17896-.47949-.40723-.04565-.18213,.0163-.36206,.13599-.49219-5.42523,1.53052-9.17334,4.74561-9.17334,8.47607,0,.10205,.02081,.20117,.02637,.30249,.09918,1.80688,1.08575,3.48096,2.698,4.89355Z" style="fill:#901a18;"/></g><g><path d="M15.09839,22.83154c-.03284-.04956-.06244-.10059-.0932-.15137-.04822,.03589-.10126,.06299-.14813,.10083,.08075,.0127,.16071,.03589,.24133,.05054Z" style="fill:#f77f00;"/><path d="M16.34705,16.37183c.03613-.03516,.0741-.0686,.11096-.10327v-1.8374c-.18372,.02856-.37213,.05029-.55273,.08301v1.32227c.1936,.13232,.34448,.31934,.44177,.5354Z" style="fill:#f77f00;"/><path d="M12.88245,22.70068c.22015-.01538,.44067-.02197,.66199-.02051,.30463-.36279,.65186-.67285,1.02881-.92896-.05609-.17114-.10468-.34424-.13867-.52124-.60077,.3877-1.13055,.87817-1.55212,1.4707Z" style="fill:#f77f00;"/><path d="M22.2002,25.76172c-.78839-.4563-1.67395-.65576-2.56-.59106,.57367,.55957,1.07843,1.19653,1.49017,1.90942,.09442,.16357,.07941,.35498-.01172,.50562-.27362,.01099-.54736,.02124-.82446,.02417-.00842-.01196-.02258-.01685-.03003-.02979-.69403-1.20239-1.67615-2.16968-2.84625-2.84619-.2655-.10303-.52173-.23315-.76807-.3877-.36395-.15967-.73816-.30103-1.12933-.40576-2.01367-.54004-4.11963-.26367-5.92773,.78027-.23926,.13867-.54492,.05566-.68311-.18262-.13818-.23926-.05615-.54492,.18311-.68262,.80688-.46582,1.6676-.79102,2.55292-.98291,.00183-.08105,.01636-.16235,.05988-.23779,.638-1.10498,1.56427-1.97778,2.67371-2.54932,.01666-.20459,.04614-.41089,.09277-.6189-1.30603,.59106-2.44824,1.57422-3.21765,2.90747-.09277,.16016-.26074,.25-.43359,.25-.08496,0-.1709-.02148-.24951-.06738-.23926-.1377-.32129-.44336-.18311-.68262,.09302-.16113,.19763-.31128,.29987-.46338-.06036,.04199-.12878,.07324-.20862,.07324h-1.67645c-.25195,0-.4425-.25366-.34668-.48682,.19159-.46582,.6499-.79395,1.18488-.79395s.99335,.32812,1.18494,.79395c.02338,.05688,.02856,.11475,.02112,.16992,1.03235-1.42529,2.46954-2.4209,4.05804-2.93652v-1.33594h-.56c-.25189,0-.44244-.25366-.34662-.48682,.15686-.38135,.4964-.65918,.90662-.75146v-.93018c-5.06915,1.1731-8.65515,4.03809-8.65515,7.39307,0,.43066,.07544,.85034,.18909,1.26245,.91296,.80005,2.021,1.51758,3.30005,2.12134,.0423-.08252,.09912-.15845,.18555-.20801,3.30811-1.90991,7.5152-.86157,9.5672,2.30859-.42029-.00732-.83923-.01758-1.2511-.04297,.57837,.03613,1.16406,.05786,1.75909,.05786,1.30652,0,2.57056-.10059,3.78839-.27148-.38715-.64575-.91711-1.198-1.5882-1.58521Z" style="fill:#f77f00;"/><path d="M10.81171,25.96338c.30133,.12012,.6131,.23071,.92865,.33887,1.48651-.50171,3.14227-.35864,4.52722,.44678,.22424,.1311,.30151,.40723,.19611,.63867,.57648,.07422,1.16174,.13379,1.75958,.17139-1.78711-2.15186-4.85217-2.84253-7.41156-1.5957Z" style="fill:#f77f00;"/><path d="M11.82349,26.33081c.32257,.10913,.65027,.21265,.98657,.30908-.33569-.09644-.664-.19995-.98657-.30908Z" style="fill:#f77f00;"/><path d="M18.01074,14.24731c-.18475,.01562-.37042,.02905-.55273,.04883v1.15161c.18054-.12988,.36462-.25342,.55273-.37134v-.8291Z" style="fill:#f77f00;"/><path d="M26.24683,26.88794c-.03424,.00806-.06897,.01538-.10339,.02319,.03412-.00806,.0694-.01489,.10339-.02319Z" style="fill:#f77f00;"/><path d="M27.65393,26.49683l-.06091,.0188,.06091-.0188Z" style="fill:#f77f00;"/><path d="M10.02106,25.62891c-.07642-.03442-.15735-.06543-.23267-.10059,.07532,.03516,.15631,.06616,.23267,.10059Z" style="fill:#f77f00;"/><path d="M16.28357,27.36133c-1.16772-.15845-2.28522-.38916-3.3399-.68506,1.05548,.29541,2.17206,.52661,3.3399,.68506Z" style="fill:#f77f00;"/><g><path d="M26.58978,23.8606c.63141,.72144,1.15137,1.55151,1.52563,2.47559,.38776-.1311,.76685-.26904,1.13361-.41772l-.00146-.00146c-.58484-1.01221-1.56348-1.73633-2.65778-2.0564Z" style="fill:#f77f00;"/><path d="M27.38379,20.61523c-.83209-.22339-1.67847-.30005-2.51331-.24707-.11731,.24243-.2467,.48145-.38409,.71704,2.76196-.33838,5.59039,.94287,7.06683,3.50073,.03149,.05444,.04309,.11304,.05176,.17163,.21588-.12842,.42859-.25854,.6319-.3938-.04041-.03174-.08264-.06152-.10992-.10889-1.04297-1.80762-2.72754-3.09961-4.74316-3.63965Z" style="fill:#f77f00;"/><path d="M23.37903,22.64478c-.14874,.17212-.30267,.33838-.46179,.49756,.20789,.09473,.41309,.198,.61353,.31372,1.35071,.77979,2.37885,1.95361,2.98279,3.35815,.21783-.05591,.43091-.11694,.64368-.17822-.74719-1.79004-2.11572-3.17749-3.7782-3.99121Z" style="fill:#f77f00;"/><path d="M19.85919,14.15869c-.28577,.00171-.56714,.01318-.84845,.0249v.33447c.28046-.13574,.56415-.25269,.84845-.35938Z" style="fill:#f77f00;"/><path d="M23.03076,24.32227c-.30975-.17871-.63208-.32373-.96069-.44507-.24463,.18433-.49023,.34448-.73639,.48267,.47083,.12207,.93304,.28516,1.36652,.53564,.9425,.54395,1.68311,1.33691,2.15857,2.28613,.22339-.04102,.43854-.09204,.65765-.13843-.52844-1.13281-1.37854-2.08179-2.48566-2.72095Z" style="fill:#f77f00;"/><path d="M25.29095,19.35303c.78418-.00537,1.57367,.08716,2.35162,.29639,2.27344,.6084,4.17383,2.06738,5.35059,4.10547,.00879,.01514,.0119,.03174,.01611,.04785,.19489-.15112,.38293-.30469,.56244-.4624,.10632-.39917,.17816-.80493,.17816-1.22119,0-3.36523-3.60864-6.23682-8.70233-7.40332,.88849,1.09448,.87006,2.86206,.24341,4.63721Zm1.48505-1.52002c.19159-.46582,.6499-.79395,1.18488-.79395s.99335,.32812,1.18494,.79395c.09583,.23291-.09473,.48682-.34668,.48682h-1.67645c-.25195,0-.4425-.25391-.34668-.48682Z" style="fill:#f77f00;"/><path d="M24.46228,22.08301c.30255,.18018,.59119,.38184,.87067,.59692,.00714-.00073,.01398-.00464,.02106-.00513,1.95947,0,3.78174,1.04883,4.75977,2.74219,.02118,.03662,.02954,.07617,.03888,.11548,.22504-.10522,.43469-.22046,.64978-.33228-.04279-.03296-.08673-.06494-.11542-.11426-1.29614-2.24512-3.80322-3.35815-6.22473-3.00293Z" style="fill:#f77f00;"/></g></g><path d="M36.10913,19.49902c-.35559,1.40088-1.24365,2.70386-2.53741,3.84131-.1795,.15771-.36755,.31128-.56244,.4624,.00275,.01074,.00677,.02124,.01068,.03174-.2439,.18823-.4964,.37183-.76343,.54883-.0072-.00586-.01239-.01367-.01965-.01953-.20331,.13525-.41602,.26538-.6319,.3938,.00177,.01172,.00934,.02271,.01038,.03442-.25336,.14941-.52277,.28882-.79272,.42822-.00745-.00586-.01276-.01416-.0202-.02002-.21509,.11182-.42474,.22705-.64978,.33228l.00623,.01855c-.28949,.13403-.58594,.26343-.89111,.38599-.00507-.00781-.01355-.01123-.01874-.01855-.36676,.14868-.74585,.28662-1.13361,.41772l.00836,.0166c-.15332,.05127-.31317,.09619-.46985,.14404l-.06091,.0188c-.14386,.04346-.28424,.09033-.43036,.13184l-.00543-.01147c-.21277,.06128-.42584,.12231-.64368,.17822l.00659,.01245c-.08923,.02271-.1828,.04028-.27332,.06128-.034,.0083-.06927,.01514-.10339,.02319-.20709,.04688-.41272,.0957-.62274,.13965l-.00427-.00757c-.21912,.04639-.43427,.09741-.65765,.13843l.00488,.0083c-.35052,.06348-.71216,.11133-1.07239,.16113l-.00287-.00415c-1.21783,.1709-2.48187,.27148-3.78839,.27148-.59503,0-1.18073-.02173-1.75909-.05786l-.01672-.00049-.00092-.00098c-.59784-.0376-1.18311-.09717-1.75958-.17139l-.00031,.00122c-.06091-.00781-.1192-.01929-.17981-.02759-1.16785-.15845-2.28442-.38965-3.3399-.68506-.04431-.01245-.08948-.02368-.13361-.03638-.3363-.09644-.664-.19995-.98657-.30908-.02856-.00952-.05896-.01758-.08746-.02734l.00433-.00122c-.31555-.10815-.62732-.21875-.92865-.33887l-.00983,.00391c-.26843-.10669-.52435-.22266-.78082-.33838-.07635-.03442-.15735-.06543-.23267-.10059-.01672-.00781-.03497-.01465-.05164-.02246l.0025-.00293c-1.27905-.60376-2.38708-1.32129-3.30005-2.12134-1.61224-1.4126-2.59882-3.08667-2.698-4.89355h0c-.01654-.04175-.02637-.0686-.02637-.0686v4.17407c0,8.9939,7.29108,16.28516,16.28516,16.28516s16.28516-7.29126,16.28516-16.28516c0,0,.01654-4.21582,0-4.17407-.00708,.12939-.03778,.25513-.05377,.38306-.02081,.1665-.03448,.33398-.07001,.49805-.01447,.06665-.03546,.13208-.05225,.19849Z" style="fill:#cb2c29;"/><g><path d="M16.34705,16.37183c-.09729-.21606-.24817-.40308-.44177-.5354v.99609c.10779-.12109,.21594-.24219,.33588-.3623,.03387-.03369,.07134-.06494,.1059-.09839Z" style="fill:#901a18;"/><path d="M13.99866,16.40771c-.09583,.23315,.09473,.48682,.34662,.48682h.56v-1.23828c-.41022,.09229-.74976,.37012-.90662,.75146Z" style="fill:#901a18;"/><path d="M10.82611,20.99707c-.19159-.46582-.64996-.79395-1.18494-.79395s-.99329,.32812-1.18488,.79395c-.09583,.23315,.09473,.48682,.34668,.48682h1.67645c.07983,0,.14825-.03125,.20862-.07324,.05396-.08057,.10278-.16553,.15918-.24365,.00745-.05518,.00226-.11304-.02112-.16992Z" style="fill:#901a18;"/><path d="M27.12268,18.31982h1.67645c.25195,0,.4425-.25391,.34668-.48682-.19159-.46582-.64996-.79395-1.18494-.79395s-.99329,.32812-1.18488,.79395c-.09583,.23291,.09473,.48682,.34668,.48682Z" style="fill:#901a18;"/></g><g><path d="M15.90527,10.02051l.55273-.1272v-1.24707l-.57874,.15723c.01154,.04224,.026,.08325,.026,.12915v1.08789Z" style="fill:#3d3d3d;"/><path d="M17.45801,9.66333l.55273-.1272v-1.31177l-.57874,.15723c.01147,.04224,.026,.08325,.026,.12915v1.15259Z" style="fill:#3d3d3d;"/><path d="M36.89746,4.54932l-.18933-.75537c-.04047-.16138-.14172-.29663-.28577-.38062-.14313-.08423-.31061-.1062-.4718-.06274L18.98474,7.95972c.01147,.04224,.026,.08325,.026,.12915v1.21729l2.2467-.5166,15.18152-3.4917c.16235-.0376,.29962-.13647,.38641-.27832,.08722-.1416,.11255-.30859,.07208-.47021Z" style="fill:#3d3d3d;"/><path d="M12.7522,10.20166c.05743,.22827,.25592,.38745,.47949,.40723,.0542,.00464,.10999,.00146,.16614-.01172l1.50745-.34668v-1.18237l-1.77002,.48071c-.10095,.02734-.18042,.08838-.24707,.16064-.11969,.13013-.18164,.31006-.13599,.49219Z" style="fill:#3d3d3d;"/><path d="M15.45959,8.4436L35.68762,2.31177c.15942-.04858,.28931-.15625,.36664-.3042,.07684-.14722,.09088-.31592,.03943-.47388l-.24054-.74048c-.05139-.15869-.1618-.28687-.31085-.36035-.14886-.07446-.31702-.08496-.47467-.03076L12.7276,8.14307c-.27618,.0957-.42725,.39966-.33685,.67725,.06512,.20117,.24078,.33887,.43878,.36768,.07544,.01099,.15454,.00586,.23193-.01758l2.02185-.61279c.08746-.07495,.19751-.125,.32196-.125,.01929,0,.03558,.00879,.05432,.01099Z" style="fill:#3d3d3d;"/></g><g><path d="M14.90527,10.25049v7.97998l.02985-.00952c.24158-.46533,.56226-.93042,.97015-1.38843v-7.8999c0-.0459-.01447-.08691-.026-.12915-.0531-.19434-.21472-.33667-.41968-.35986-.01874-.0022-.03503-.01099-.05432-.01099-.12445,0-.2345,.05005-.32196,.125-.10681,.0918-.17804,.22314-.17804,.375v1.31787Z" style="fill:#ffad00;"/><path d="M16.45801,9.89331v6.37524c.31281-.29321,.6474-.56787,1-.8208v-6.93701c0-.0459-.01453-.08691-.026-.12915-.05792-.21191-.24347-.37085-.474-.37085-.27637,0-.5,.22363-.5,.5v1.38257Z" style="fill:#ffad00;"/><path d="M18.01074,9.53613v5.54028c.32574-.2041,.65942-.39331,1-.55835v-6.4292c0-.0459-.01453-.08691-.026-.12915-.05792-.21216-.24341-.37085-.474-.37085-.27637,0-.5,.22363-.5,.5v1.44727Z" style="fill:#ffad00;"/><path d="M23.53076,23.45605c-.20044-.11572-.40564-.21899-.61353-.31372l-.00195,.0022c-.27875,.27856-.56128,.5188-.84521,.73267,.32861,.12134,.65094,.26636,.96069,.44507,1.10712,.63916,1.95721,1.58813,2.48566,2.72095l.00427,.00757c.21002-.04395,.41565-.09277,.62274-.13965,.03442-.00781,.06915-.01514,.10339-.02319,.09052-.021,.18408-.03857,.27332-.06128l-.00659-.01245c-.60394-1.40454-1.63208-2.57837-2.98279-3.35815Z" style="fill:#ffad00;"/><path d="M24.85999,27.17993v.01001c-.34998,.06006-.70996,.11011-1.07001,.16016-.38995-.65015-.91998-1.2002-1.58997-1.59009-.79004-.44995-1.66998-.65015-2.56-.59009,.57001,.56006,1.07996,1.2002,1.48999,1.91016,.08997,.15991,.08002,.35986-.01001,.50977-.27002,.01025-.54999,.02002-.83002,.02002,0-.00977-.01996-.02002-.02997-.02979-.69-1.2002-1.66998-2.17017-2.84003-2.8501,.25,.1001,.5,.17993,.76001,.22998,.41003,.07007,.82001,.08008,1.25,.04004,.62-.07007,1.26001-.28003,1.90002-.64014,.46997,.12012,.94,.29004,1.37,.54004,.94,.54004,1.67999,1.33008,2.15997,2.28003Z" style="fill:#ffad00;"/><path d="M10.84723,21.16699c-.0564,.07812-.10522,.16309-.15918,.24365-.10223,.1521-.20685,.30225-.29987,.46338-.13818,.23926-.05615,.54492,.18311,.68262,.07861,.0459,.16455,.06738,.24951,.06738,.17285,0,.34082-.08984,.43359-.25,.76941-1.33325,1.91162-2.31641,3.21765-2.90747,.09229-.41187,.24652-.82837,.46307-1.24561l-.02985,.00952c-1.5885,.51562-3.0257,1.51123-4.05804,2.93652Z" style="fill:#ffad00;"/><path d="M16.65002,24.3501c-.36005-.16016-.74005-.30005-1.13-.41016-2.01001-.54004-4.12-.26001-5.92999,.78003-.24005,.13989-.54004,.06006-.68005-.17993-.13995-.23999-.06-.55005,.18005-.68018,.81-.46973,1.66998-.7998,2.56-.98975,0-.08008,.00995-.16016,.06-.24023,.63-1.09985,1.56-1.96997,2.66998-2.54004-.03003,.39014-.02002,.77002,.04999,1.14014-.59998,.39014-1.13,.87988-1.54999,1.46997,.21997-.01001,.44-.02002,.65997-.02002,.31-.35986,.66003-.66992,1.03003-.92993,.10999,.32007,.26001,.62988,.44,.92993-.04999,.04004-.10999,.06006-.15002,.1001,.08002,.01001,.16003,.04004,.23999,.05005,.18005,.27979,.40002,.5498,.65002,.7998,.28003,.28003,.58002,.52002,.90002,.72021Z" style="fill:#ffad00;"/><path d="M27.64258,19.64941c-.77795-.20923-1.56744-.30176-2.35162-.29639-.12,.33984-.25836,.67969-.42047,1.01514,.83484-.05298,1.68121,.02368,2.51331,.24707,2.01562,.54004,3.7002,1.83203,4.74316,3.63965,.02728,.04736,.06952,.07715,.10992,.10889,.00726,.00586,.01245,.01367,.01965,.01953,.26703-.177,.51953-.3606,.76343-.54883-.00391-.0105-.00793-.021-.01068-.03174-.00421-.01611-.00732-.03271-.01611-.04785-1.17676-2.03809-3.07715-3.49707-5.35059-4.10547Z" style="fill:#ffad00;"/><path d="M31.62,24.79004c-.26001,.1499-.52997,.29004-.79999,.42993,0-.01001-.01001-.01001-.02002-.02002-.03998-.03003-.08002-.05981-.10999-.11011-1.29999-2.25-3.81-3.35986-6.22998-3.00977,.29999,.17993,.58997,.37988,.87,.59985,.01001,0,.01996,0,.01996-.01001,1.96002,0,3.79004,1.05005,4.76001,2.75,.02002,.03003,.03003,.07007,.04004,.11011,0,.01001,.00995,.01001,.00995,.02002-.28998,.13989-.58997,.26001-.88995,.38989-.01001-.01001-.02002-.01001-.02002-.02002-.59003-1.02002-1.57001-1.73999-2.65997-2.06006,.62994,.72021,1.14996,1.55005,1.52997,2.47998v.01025c-.15002,.0498-.31,.09985-.46997,.1499-.02002,0-.04004,.01001-.06,.02002-.14001,.04004-.28003,.08984-.43005,.12988v-.00977c-.75-1.79004-2.12-3.18018-3.77997-4,.10999-.12012,.21002-.26025,.32001-.39014,.09998-.14014,.20001-.27002,.29999-.41016,.16998-.25,.34003-.5,.48999-.75,2.76001-.33984,5.59003,.94019,7.06,3.5,.03003,.05029,.04999,.11011,.04999,.17017,.01001,.01001,.01001,.02002,.02002,.03003Z" style="fill:#ffad00;"/><path d="M9.9248,25.29492c-.08643,.04956-.14325,.12549-.18555,.20801l-.0025,.00293c.01666,.00781,.03491,.01465,.05164,.02246,.07532,.03516,.15625,.06616,.23267,.10059,.25647,.11572,.51239,.23169,.78082,.33838l.00983-.00391c2.55939-1.24683,5.62445-.55615,7.41156,1.5957l.00092,.00098,.01672,.00049c.41187,.02539,.83081,.03564,1.2511,.04297-2.052-3.17017-6.25909-4.21851-9.5672-2.30859Z" style="fill:#ffad00;"/><path d="M16.26758,26.74902c-1.38495-.80542-3.04071-.94849-4.52722-.44678l-.00433,.00122c.0285,.00977,.0589,.01782,.08746,.02734,.32257,.10913,.65088,.21265,.98657,.30908,.04413,.0127,.08929,.02393,.13361,.03638,1.05469,.2959,2.17218,.52661,3.3399,.68506,.06061,.0083,.1189,.01978,.17981,.02759l.00031-.00122c.10541-.23145,.02814-.50757-.19611-.63867Z" style="fill:#ffad00;"/></g><path d="M18.01074,15.07642c-.18811,.11792-.37219,.24146-.55273,.37134-.3526,.25293-.68719,.52759-1,.8208-.03687,.03467-.07483,.06812-.11096,.10327-.03456,.03345-.07202,.0647-.1059,.09839-.11993,.12012-.22809,.24121-.33588,.3623-.4079,.45801-.72858,.9231-.97015,1.38843-.21655,.41724-.37079,.83374-.46307,1.24561-.04663,.20801-.07611,.41431-.09277,.6189-.03168,.39014-.01593,.77368,.0553,1.14453,.034,.177,.08258,.3501,.13867,.52124,.1059,.32251,.25177,.63281,.43195,.92896,.03076,.05078,.06036,.10181,.0932,.15137,.18658,.28271,.40326,.55176,.65356,.80225,.2782,.27808,.58032,.51343,.89789,.7124,.24634,.15454,.50256,.28467,.76807,.3877,.24878,.09668,.50385,.17334,.76605,.22192,.40326,.07471,.82092,.08667,1.24609,.03955,.62384-.06958,1.26416-.27686,1.90363-.6355,.24615-.13818,.49176-.29834,.73639-.48267,.28394-.21387,.56647-.4541,.84521-.73267l.00195-.0022c.15912-.15918,.31305-.32544,.46179-.49756,.1106-.12793,.21545-.26196,.31989-.396,.10474-.13452,.20471-.27222,.30286-.41187,.17169-.24463,.33484-.49463,.48462-.75171,.13739-.2356,.26678-.47461,.38409-.71704,.16211-.33545,.30048-.67529,.42047-1.01514,.62665-1.77515,.64508-3.54272-.24341-4.63721-.0564-.06934-.10754-.14258-.17133-.20654-1.10193-1.10181-3.07208-1.08008-5.01703-.35059-.2843,.10669-.56799,.22363-.84845,.35938-.34058,.16504-.67426,.35425-1,.55835Zm3.24451,3.05396c1.03955,1.03955,1.03955,2.7251,0,3.76465-1.03961,1.03955-2.7251,1.03955-3.76465,0-1.03961-1.03955-1.03961-2.7251,0-3.76465,1.03955-1.03955,2.72504-1.03955,3.76465,0Z" style="fill:#fff;"/><path d="M17.4906,18.13037c-1.03961,1.03955-1.03961,2.7251,0,3.76465,1.03955,1.03955,2.72504,1.03955,3.76465,0,1.03955-1.03955,1.03955-2.7251,0-3.76465-1.03961-1.03955-2.7251-1.03955-3.76465,0Z" style="fill:#ffcd00;"/></svg>