<svg id="Layer_1" data-name="Layer 1" xmlns="http://www.w3.org/2000/svg" viewBox="0 0 40 40"><defs><style>.cls-1,.cls-5,.cls-6,.cls-7,.cls-8{fill:none;}.cls-2{fill:#ef4452;}.cls-3{fill:#edccf8;}.cls-4{fill:#a41926;}.cls-5{stroke:#b44bd7;}.cls-5,.cls-6,.cls-7,.cls-8{stroke-linecap:round;stroke-miterlimit:10;stroke-width:2.5px;}.cls-6{stroke:#ef4452;}.cls-7{stroke:#7896ff;}.cls-8{stroke:#4a81ec;}.cls-9{fill:#fff;}.cls-10{fill:#7896ff;}.cls-11{fill:#a8bfff;}.cls-12{fill:#ffc84d;}</style></defs><rect class="cls-1" width="40" height="40"/><path class="cls-2" d="M6.163,37.144l23.312-8.38L10.248,9.6,1.908,32.894A3.325,3.325,0,0,0,6.163,37.144Z"/><circle class="cls-3" cx="10.356" cy="2.794" r="1.868"/><ellipse class="cls-4" cx="20.551" cy="18.478" rx="5.13" ry="13.829" transform="translate(-7.047 19.944) rotate(-45)"/><path class="cls-5" d="M17.062,12.556a12.332,12.332,0,0,0-.1-7.093"/><path class="cls-6" d="M29.368,16.207A15.406,15.406,0,0,1,37.744,13.3"/><path class="cls-7" d="M22.564,22.516a15.365,15.365,0,0,1,8.984-.868,15.566,15.566,0,0,1,2.833.868"/><path class="cls-8" d="M21.356,16.32A15.392,15.392,0,0,0,27.264,6.086"/><rect class="cls-9" x="12.44" y="17.152" width="3.291" height="3.291" rx="0.707" transform="translate(32.886 4.717) rotate(90.014)"/><rect class="cls-10" x="21.833" y="0.807" width="3.366" height="3.366" rx="0.723" transform="translate(1.398 10.857) rotate(-26.766)"/><rect class="cls-11" x="34.339" y="26.296" width="3.366" height="3.366" rx="0.723" transform="matrix(-0.303, 0.953, -0.953, -0.303, 73.598, 2.124)"/><circle class="cls-12" cx="33.534" cy="9.01" r="1.504"/><circle class="cls-11" cx="3.504" cy="15.531" r="1.504"/><circle class="cls-12" cx="24.564" cy="34.893" r="1.755"/></svg>