<?xml version="1.0" encoding="UTF-8"?><svg id="Layer_1" xmlns="http://www.w3.org/2000/svg" viewBox="0 0 40 40"><rect width="40" height="40" style="fill:none;"/><g><g><circle cx="20" cy="18.44802" r="17.5" style="fill:#ebebeb;"/><circle cx="20" cy="18.44802" r="13.01849" style="fill:#f3f3f3;"/></g><g><path d="M27.85433,11.43966l-1.37488,13.90815-2.28711-.00002-1.23927-7.58433c-.3111-2.96024,1.37879-5.76779,4.14029-6.87861h0c.38075-.15316,.79034,.14546,.76097,.55481Z" style="fill:#b7b7b7;"/><path d="M24.19234,25.34778l-.92257,12.24612c-.01869,.7997,.62447,1.45808,1.42446,1.45808h1.28114c.79999,0,1.44315-.65838,1.42446-1.45808l-.92038-12.24612h-2.28711Z" style="fill:#767676;"/></g><g><path d="M14.9315,25.34778l-.92257,12.24612c-.01869,.7997,.62447,1.45808,1.42446,1.45808h1.28114c.79999,0,1.44315-.65838,1.42446-1.45808l-.92038-12.24612h-2.28711Z" style="fill:#767676;"/><path d="M17.17586,24.74171c.00649-.86197,.68019-1.10312,.68019-1.10312l-.00386-.0039c.02835-.01376,.05846-.02069,.08671-.03513l1.68558-.59836c.9215-.471,1.48233-1.64234,1.36336-2.84765l-1.18857-8.63098c-.05353-.38882-.38589-.67849-.77842-.67849h-.00005c-.43777,0-.79116,.35779-.78565,.7956l.09306,7.44128c0,.27688-.13527,.52536-.34534,.63203-.13966,.07164-.29947,.07164-.43918,0-.20949-.10736-.34534-.35515-.34534-.63203l-.12653-7.46451c-.00727-.42864-.35686-.77237-.78565-.77237h-.42498c-.42874,0-.77833,.34373-.7856,.77237l-.12663,7.46451c0,.27688-.13527,.52536-.34588,.63203-.13859,.07164-.29898,.07164-.43864,0-.20949-.10736-.34534-.35515-.34534-.63203l.09355-7.44128c.00551-.43781-.34788-.7956-.78569-.7956-.39253,0-.72484,.28966-.77837,.67849l-1.18857,8.63098c-.11897,1.20531,.44191,2.37597,1.36283,2.84765l1.68567,.59836c.02723,.01396,.05622,.02059,.08364,.03387l-.00503,.00517s.70489,.24701,.68385,1.15114l-.03948,.55805h2.28711l-.04275-.60607Z" style="fill:#b7b7b7;"/></g></g></svg>