<svg id="Layer_1" data-name="Layer 1" xmlns="http://www.w3.org/2000/svg" viewBox="0 0 40 40"><defs><style>.cls-1{fill:#d12030;}.cls-2{fill:#ef4452;}.cls-3{fill:#ffcd00;}.cls-4{fill:none;}</style></defs><path class="cls-1" d="M17.476,20.657h7.435a1,1,0,0,0,.9-.557l7.82-15.787a1,1,0,0,0-.9-1.444H25.3a1,1,0,0,0-.9.556L16.58,19.213A1,1,0,0,0,17.476,20.657Z"/><path class="cls-2" d="M22.524,20.657H15.089a1,1,0,0,1-.9-.557L6.373,4.313a1,1,0,0,1,.9-1.444H14.7a1,1,0,0,1,.9.556L23.42,19.213A1,1,0,0,1,22.524,20.657Z"/><path class="cls-3" d="M21.358,13.736,24.1,19.289a1.511,1.511,0,0,0,1.14.828l6.128.891a1.514,1.514,0,0,1,.839,2.583l-4.434,4.322a1.517,1.517,0,0,0-.436,1.341l1.047,6.1a1.514,1.514,0,0,1-2.2,1.6l-5.481-2.881a1.515,1.515,0,0,0-1.41,0l-5.481,2.881a1.514,1.514,0,0,1-2.2-1.6l1.047-6.1a1.517,1.517,0,0,0-.436-1.341L7.794,23.591a1.514,1.514,0,0,1,.839-2.583l6.128-.891a1.511,1.511,0,0,0,1.14-.828l2.741-5.553A1.515,1.515,0,0,1,21.358,13.736Z"/><rect class="cls-4" width="40" height="40"/></svg>