<?xml version="1.0" encoding="UTF-8"?><svg id="Layer_1" xmlns="http://www.w3.org/2000/svg" viewBox="0 0 40 40"><g opacity="0"><rect x="0" width="40" height="40" fill="none"/></g><g><path d="m7.239,33.667c-.256,0-.512-.098-.707-.293-.391-.391-.391-1.023,0-1.414L34.159,4.333c.391-.391,1.023-.391,1.414,0s.391,1.023,0,1.414L7.946,33.374c-.195.195-.451.293-.707.293Z" fill="#6e4944"/><path d="m36.121,33.351l-27.762-.026c-.484-.007-.954-.173-1.307-.523-.354-.351-.544-.818-.534-1.317l-.075-27.73,1-.002.075,27.741c-.005.233.08.442.238.599.158.157.379.233.589.233l27.775.026v1Z" fill="#65778e"/><path d="m37.523,1.925l-5.255,1.724c-.237.078-.4.294-.409.543l-.109,2.927c-.022.581.455,1.058,1.036,1.036l2.927-.109c.249-.009.466-.173.543-.409l1.724-5.255c.093-.283-.175-.551-.458-.458Z" fill="#8a94a0"/><path d="m35.121,32.564c.291,1.122,1.932.956,1.974-.202.281-7.711-2.518-15.512-8.404-21.398S15.004,2.278,7.293,2.56c-1.158.042-1.324,1.683-.202,1.974,6.093,1.578,12.319,5.099,17.625,10.405,5.307,5.307,8.828,11.532,10.405,17.626Z" fill="#a96850"/><path d="m13.996,27.284l.15,1.483c.225,2.229-.52,4.446-2.045,6.087l-2.865,3.083c-.277.299-.777.145-.838-.258l-.636-4.168,6.235-6.228Z" fill="#fa0"/><path d="m12.607,25.877l-1.483-.15c-2.229-.225-4.446.52-6.087,2.045l-3.083,2.865c-.299.277-.145.777.258.838l4.168.636,6.228-6.235Z" fill="#ffcd00"/></g></svg>