<svg id="Layer_1" data-name="Layer 1" xmlns="http://www.w3.org/2000/svg" viewBox="0 0 40 40"><defs><style>.cls-1,.cls-4{fill:none;}.cls-2{fill:#ffc100;}.cls-3{fill:#3d3d3d;}.cls-4{stroke:#ffcd00;stroke-linecap:round;stroke-miterlimit:10;stroke-width:2.5px;}.cls-5{fill:#ffda16;}</style></defs><rect class="cls-1" width="40" height="40"/><path class="cls-2" d="M25.73,17.476a3.869,3.869,0,0,1,2.736,6.605L20.152,32.4a3.869,3.869,0,0,1-5.471-5.472l8.313-8.314a3.848,3.848,0,0,1,2.736-1.133m0-2.919a6.764,6.764,0,0,0-4.8,1.988l-8.314,8.314a6.789,6.789,0,1,0,9.6,9.6l8.314-8.314a6.788,6.788,0,0,0-4.8-11.588Z"/><path class="cls-3" d="M10.026,32.5,8.467,34.058a1.7,1.7,0,0,0,0,2.4h0a.486.486,0,0,1,0,.688l-.713.713a.485.485,0,0,1-.688,0L4.6,35.4,2.143,32.934a.486.486,0,0,1,0-.688l.713-.713a.486.486,0,0,1,.688,0h0a1.7,1.7,0,0,0,2.4,0L7.5,29.974Z"/><line class="cls-4" x1="17.952" y1="16.43" x2="30.061" y2="28.538"/><line class="cls-4" x1="15.226" y1="19.155" x2="27.335" y2="31.264"/><line class="cls-4" x1="12.501" y1="21.881" x2="24.609" y2="33.99"/><path class="cls-5" d="M7.5,29.974,20.182,17.293a9.356,9.356,0,0,0,0-13.232h0a.649.649,0,0,1,0-.919l.952-.952a.65.65,0,0,1,.918,0l7.879,7.879,7.879,7.879a.65.65,0,0,1,0,.918l-.952.952a.649.649,0,0,1-.919,0h0a9.356,9.356,0,0,0-13.232,0L10.026,32.5Z"/></svg>