<svg id="Layer_1" data-name="Layer 1" xmlns="http://www.w3.org/2000/svg" viewBox="0 0 40 40"><defs><style>.cls-1{fill:none;}.cls-2{fill:#8be091;}.cls-3{fill:#ffbf45;}.cls-4{fill:#22ad67;stroke:#22ad67;stroke-miterlimit:10;stroke-width:1.13px;}.cls-5{fill:#1a854f;}.cls-6{fill:#1d9458;}.cls-7{fill:#db901f;}.cls-8{fill:#ba5f1a;}</style></defs><rect class="cls-1" width="40" height="40"/><polygon class="cls-2" points="8.433 24.399 3.355 20.287 8.216 21.304 5.092 17.015 9.795 19.371 7.554 14.363 13.726 19.566 14.237 23.806 8.433 24.399"/><polygon class="cls-2" points="31.632 24.399 36.71 20.287 31.849 21.304 34.974 17.015 30.27 19.371 32.511 14.363 26.339 19.566 25.829 23.806 31.632 24.399"/><ellipse class="cls-3" cx="20.262" cy="36.616" rx="12.54" ry="2.563"/><path class="cls-3" d="M28.614,36.909a41.609,41.609,0,0,1-16.7,0,1.213,1.213,0,0,1-.953-1.018l-1.317-9.2H30.884l-1.317,9.2A1.215,1.215,0,0,1,28.614,36.909Z"/><rect class="cls-4" x="10.811" y="13.387" width="4.594" height="10.839"/><rect class="cls-4" x="24.628" y="10.637" width="4.594" height="13.59"/><rect class="cls-4" x="17.703" y="6.306" width="4.594" height="17.92"/><ellipse class="cls-5" cx="20" cy="5.513" rx="2.297" ry="4.135"/><path class="cls-2" d="M20,10.213c-1.605,0-2.862-2.064-2.862-4.7S18.4.813,20,.813s2.863,2.065,2.863,4.7S21.605,10.213,20,10.213Zm0-8.27c-.819,0-1.732,1.466-1.732,3.57S19.181,9.082,20,9.082s1.733-1.466,1.733-3.569S20.819,1.943,20,1.943Z"/><rect class="cls-6" x="16.598" y="13.865" width="6.805" height="1.401" rx="0.7"/><rect class="cls-6" x="23.633" y="17.86" width="6.805" height="1.401" rx="0.7"/><rect class="cls-6" x="9.706" y="20.288" width="6.805" height="1.401" rx="0.7"/><ellipse class="cls-5" cx="26.925" cy="10.154" rx="2.297" ry="4.135"/><path class="cls-2" d="M26.925,14.854c-1.605,0-2.863-2.064-2.863-4.7s1.258-4.7,2.863-4.7,2.862,2.065,2.862,4.7S28.53,14.854,26.925,14.854Zm0-8.27c-.819,0-1.733,1.466-1.733,3.57s.914,3.57,1.733,3.57,1.732-1.466,1.732-3.57S27.744,6.584,26.925,6.584Z"/><ellipse class="cls-5" cx="13.108" cy="12.808" rx="2.297" ry="4.135"/><path class="cls-2" d="M13.108,17.508c-1.605,0-2.862-2.065-2.862-4.7s1.257-4.7,2.862-4.7,2.863,2.064,2.863,4.7S14.713,17.508,13.108,17.508Zm0-8.27c-.82,0-1.732,1.466-1.732,3.57s.912,3.57,1.732,3.57,1.732-1.466,1.732-3.57S13.927,9.238,13.108,9.238Z"/><path class="cls-7" d="M30.135,31.917a80.721,80.721,0,0,1-19.746,0l-.329-2.3a95.717,95.717,0,0,0,20.4.054Z"/><path class="cls-8" d="M31.093,23.9H9.432A1.521,1.521,0,0,0,7.91,25.425h0a1.521,1.521,0,0,0,1.522,1.522h7.247l-1.055,1.68a.788.788,0,0,0,.249,1.086l1.243.78a.788.788,0,0,0,1.086-.249l1.717-2.737a.4.4,0,0,1,.686,0l1.718,2.737a.787.787,0,0,0,1.085.249l1.243-.78a.788.788,0,0,0,.249-1.086l-1.054-1.68h7.247a1.521,1.521,0,0,0,1.521-1.522h0A1.521,1.521,0,0,0,31.093,23.9Z"/></svg>