<?xml version="1.0" encoding="UTF-8"?><svg id="Layer_1" xmlns="http://www.w3.org/2000/svg" viewBox="0 0 40 40"><path d="M20,32.59619c-8.14886,0-14.89874-3.42944-16.22571-7.93042-.02576,.21704-.05701,.43335-.05701,.65405,0,.0415,.00983,.08154,.01074,.1228,.11487,5.15161,7.35095,9.30859,16.27197,9.30859s16.1571-4.15698,16.27197-9.30859c.00092-.04126,.01074-.0813,.01074-.1228,0-.2207-.03125-.43701-.05701-.65405-1.32697,4.50098-8.07684,7.93042-16.22571,7.93042Z" style="fill:#179614;"/><path d="M35.84711,23.5437l-14.08374,7.6084c-1.07788,.58228-2.37665,.58228-3.45453,0l-14.15594-7.64746c-.25549-.13794-.45398-.32129-.62616-.52075-.00024,.02271-.00586,.04443-.00586,.06689,0,.55176,.09833,1.08887,.25342,1.61499,1.32697,4.50098,8.07684,7.93042,16.22571,7.93042s14.89874-3.42944,16.22571-7.93042c.15509-.52612,.25342-1.06323,.25342-1.61499,0-.0105-.00269-.02075-.00275-.03149-.17267,.20093-.37207,.3855-.62927,.52441Z" style="fill:#6e452c;"/><path d="M35.73212,19.53174l-.08264-.03882c-1.61975,4.91455-8.00458,8.04736-15.64948,8.04736-7.66309,0-14.06171-3.14722-15.66248-8.08179l-.1001,.04858c-1.38434,.67407-1.62366,2.41919-.71069,3.47681,.17218,.19946,.37067,.38281,.62616,.52075l14.15594,7.64746c1.07788,.58228,2.37665,.58228,3.45453,0l14.08374-7.6084c.2572-.13892,.4566-.32349,.62927-.52441,.91748-1.06714,.66235-2.82886-.74426-3.48755Z" style="fill:#ffd16b;"/><path d="M20,27.54028c7.6449,0,14.02972-3.13281,15.64948-8.04736,.04309-.13086,.08472-.26196,.12097-.39526-2.71039,3.48413-8.745,5.91357-15.77045,5.91357s-13.06006-2.42944-15.77045-5.91357c.03302,.12158,.06927,.24146,.10797,.36084,1.60077,4.93457,7.99939,8.08179,15.66248,8.08179Z" style="fill:#ed0000;"/><g><path d="M20,34.75122c-8.92102,0-16.1571-4.15698-16.27197-9.30859-.12317,.5647-.20715,1.14282-.20715,1.74683,0,6.49048,7.37799,10.81055,16.47913,10.81055s16.47913-4.32007,16.47913-10.81055c0-.604-.08398-1.18213-.20715-1.74683-.11487,5.15161-7.35095,9.30859-16.27197,9.30859Z" style="fill:#ff9e26;"/><path d="M20,25.01123c7.02545,0,13.06006-2.42944,15.77045-5.91357,.97632-1.25488,1.53259-2.64307,1.53259-4.10889,0-5.5354-6.29132-12.98877-17.30304-12.98877S2.69696,9.45337,2.69696,14.98877c0,1.46582,.55627,2.854,1.53259,4.10889,2.71039,3.48413,8.745,5.91357,15.77045,5.91357ZM26.91748,7.57275c.24823-.29883,.69171-.33984,.99048-.09155,.29883,.24829,.33984,.69165,.09161,.99048-.1579,.18994-.72052,.42163-1.10889,.56494-.17621,.06494-.35681-.08496-.3252-.27002,.06958-.4082,.19403-1.00366,.35199-1.19385Zm-4.93439,4.21973c.19019-.15796,.78571-.28247,1.19373-.35205,.18518-.03174,.33521,.14893,.2702,.3252-.14331,.38843-.37488,.95093-.56506,1.10889-.29877,.24829-.74225,.20728-.99048-.09155-.24817-.29883-.20715-.74219,.09161-.99048Zm-3.42828-6.62622c.24615-.02271,.80774,.21143,1.18365,.38452,.17059,.07861,.1922,.3125,.03894,.42114-.33777,.23926-.84686,.57251-1.09302,.59521-.38684,.03564-.72937-.24878-.76514-.63574-.03583-.38672,.24878-.72925,.63556-.76514Zm-2.48254,5.19653c.40802,.06982,1.00354,.19409,1.19373,.35205,.29877,.24829,.33978,.69165,.09161,.99048-.24823,.29883-.69171,.33984-.99048,.09155-.19019-.15771-.42175-.72046-.56506-1.10889-.065-.17603,.08502-.35669,.2702-.3252Zm-4.66852-2.05908c.1579-.19019,.72052-.42188,1.10889-.56494,.17621-.06519,.35681,.08496,.3252,.27002-.06958,.4082-.19409,1.00366-.35199,1.19385-.24823,.29883-.69171,.33984-.99048,.09155-.29883-.24829-.33984-.69165-.09161-.99048Z" style="fill:#ff9e26;"/></g><g><path d="M22.88196,12.87451c.19019-.15796,.42175-.72046,.56506-1.10889,.065-.17627-.08502-.35693-.2702-.3252-.40802,.06958-1.00354,.19409-1.19373,.35205-.29877,.24829-.33978,.69165-.09161,.99048,.24823,.29883,.69171,.33984,.99048,.09155Z" style="fill:#ffd16b;"/><path d="M16.36713,11.79687c.29877,.24829,.74225,.20728,.99048-.09155,.24817-.29883,.20715-.74219-.09161-.99048-.19019-.15796-.78571-.28223-1.19373-.35205-.18518-.03149-.33521,.14917-.2702,.3252,.14331,.38843,.37488,.95117,.56506,1.10889Z" style="fill:#ffd16b;"/><path d="M26.89069,9.03662c.38837-.14331,.95099-.375,1.10889-.56494,.24823-.29883,.20721-.74219-.09161-.99048-.29877-.24829-.74225-.20728-.99048,.09155-.15796,.19019-.28241,.78564-.35199,1.19385-.03162,.18506,.14899,.33496,.3252,.27002Z" style="fill:#ffd16b;"/><path d="M18.68439,6.56714c.24615-.02271,.75525-.35596,1.09302-.59521,.15326-.10864,.13165-.34253-.03894-.42114-.37592-.1731-.9375-.40723-1.18365-.38452-.38678,.03589-.67139,.37842-.63556,.76514,.03577,.38696,.3783,.67139,.76514,.63574Z" style="fill:#ffd16b;"/><path d="M12.48584,9.20264c.1579-.19019,.28241-.78564,.35199-1.19385,.03162-.18506-.14899-.33521-.3252-.27002-.38837,.14307-.95099,.37476-1.10889,.56494-.24823,.29883-.20721,.74219,.09161,.99048,.29877,.24829,.74225,.20728,.99048-.09155Z" style="fill:#ffd16b;"/></g></svg>