<?xml version="1.0" encoding="UTF-8"?><svg id="Layer_1" xmlns="http://www.w3.org/2000/svg" viewBox="0 0 40 40"><path d="m20.5,7.554l6.507-2.755c.739-.313.739-1.36,0-1.673L20.358.311c.087.09.142.212.142.347v6.896Z" fill="#4592fb"/><path d="m20.5,7.866V.658c0-.135-.055-.257-.142-.347-.091-.094-.217-.153-.358-.153-.276,0-.5.224-.5.5v7.208c.316-.168.684-.168,1,0Z" fill="#333d4b"/><g><path d="m25.674,37.707h8.169c1.191,0,2.157-.966,2.157-2.157v-18.258h-10.326v20.416Z" fill="#d0d5da"/><path d="m4,17.291v18.258c0,1.191.966,2.157,2.157,2.157h8.169v-20.416H4Z" fill="#d0d5da"/></g><path d="m36,16.21v1.08h-10.33l-5.67-5.7-5.67,5.7H4v-1.08c0-1.19.97-2.16,2.16-2.16h7.09l5.99-6.01c.07-.08.17-.12.26-.17.32-.17.68-.17,1,0,.09.05.19.09.26.17l5.99,6.01h7.09c1.19,0,2.16.97,2.16,2.16Z" fill="#4592fb"/><path d="m25.674,17.291l-5.674-5.702-5.674,5.702h0v20.416h11.348v-20.416h0Zm-2.977,20.416h-5.393v-4.187c0-.666.54-1.206,1.206-1.206h2.981c.666,0,1.206.54,1.206,1.206v4.187Zm-2.697-13.017c-2.043,0-3.699-1.656-3.699-3.698s1.656-3.699,3.699-3.699,3.699,1.656,3.699,3.699-1.656,3.698-3.699,3.698Z" fill="#e5e9ee"/><path d="m20,17.292c-2.043,0-3.699,1.656-3.699,3.699s1.656,3.698,3.699,3.698,3.699-1.656,3.699-3.698-1.656-3.699-3.699-3.699Zm.5,4.208h-2.274c-.276,0-.5-.224-.5-.5s.224-.5.5-.5h1.274v-1.812c0-.276.224-.5.5-.5s.5.224.5.5v2.812Z" fill="#fff"/><g><path d="m21.491,32.313h-2.981c-.666,0-1.206.54-1.206,1.206v4.187h5.393v-4.187c0-.666-.54-1.206-1.206-1.206Z" fill="#6b7683"/><path d="m20,18.188c-.276,0-.5.224-.5.5v1.812h-1.274c-.276,0-.5.224-.5.5s.224.5.5.5h2.274v-2.812c0-.276-.224-.5-.5-.5Z" fill="#6b7683"/></g></svg>