<svg id="Layer_1" data-name="Layer 1" xmlns="http://www.w3.org/2000/svg" viewBox="0 0 40 40"><defs><style>.cls-1{fill:none;}.cls-2{fill:#64a7ff;}.cls-3{fill:#2f81f9;}.cls-4{fill:#ffc84d;}.cls-5{fill:#f80;}</style></defs><rect class="cls-1" width="40" height="40"/><path class="cls-2" d="M35.041,12.111H15.069a2.958,2.958,0,0,0-2.958,2.958v9.986a12.945,12.945,0,1,0,25.889,0V15.069A2.958,2.958,0,0,0,35.041,12.111Z"/><path d="M18.931,23.641a.262.262,0,0,1-.373-.284,2.5,2.5,0,0,1,4.926,0,.262.262,0,0,1-.373.284,4.863,4.863,0,0,0-4.18,0Z"/><path d="M31.179,23.641a.262.262,0,0,0,.374-.284,2.5,2.5,0,0,0-4.926,0,.261.261,0,0,0,.373.284,4.861,4.861,0,0,1,4.179,0Z"/><path class="cls-3" d="M25.055,29.732a16.127,16.127,0,0,0-5.1.766.472.472,0,0,1-.486-.779,8.354,8.354,0,0,1,5.59-1.929,8.359,8.359,0,0,1,5.591,1.929.472.472,0,0,1-.486.779A16.139,16.139,0,0,0,25.055,29.732Z"/><path class="cls-4" d="M24.931,2H4.959A2.959,2.959,0,0,0,2,4.959v9.986a12.945,12.945,0,0,0,25.889,0V4.959A2.958,2.958,0,0,0,24.931,2Z"/><path d="M8.821,13.531a.262.262,0,0,1-.374-.284,2.5,2.5,0,0,1,4.926,0,.262.262,0,0,1-.373.284,4.861,4.861,0,0,0-4.179,0Z"/><path d="M21.069,13.531a.262.262,0,0,0,.373-.284,2.5,2.5,0,0,0-4.926,0,.262.262,0,0,0,.373.284,4.863,4.863,0,0,1,4.18,0Z"/><path class="cls-5" d="M14.945,18.472a16.11,16.11,0,0,1-5.105-.766.472.472,0,0,0-.486.779,8.353,8.353,0,0,0,5.591,1.929,8.349,8.349,0,0,0,5.59-1.929.472.472,0,0,0-.486-.779A16.1,16.1,0,0,1,14.945,18.472Z"/></svg>