<?xml version="1.0" encoding="UTF-8"?><svg id="Layer_1" xmlns="http://www.w3.org/2000/svg" viewBox="0 0 40 40"><circle cx="14.054" cy="26.961" r="10.1" fill="#d0d6de"/><path d="m22.522-.47h0c2.866,0,5.192,2.326,5.192,5.192v31.171h-10.384V4.722c0-2.866,2.326-5.192,5.192-5.192Z" transform="translate(17.869 -10.56) rotate(42.472)" fill="#d0d6de"/><circle cx="14.054" cy="26.961" r="5.983" fill="#e32939"/><path d="m27.472,5.827h0c.944,0,1.71.766,1.71,1.71v11.244h-3.419V7.536c0-.944.766-1.71,1.71-1.71Z" transform="translate(15.516 -15.321) rotate(42.472)" fill="#f0f3f6"/><path d="m20.874,11.737h0c.944,0,1.71.766,1.71,1.71v13.839h-3.419v-13.839c0-.944.766-1.71,1.71-1.71Z" transform="translate(18.652 -8.975) rotate(42.472)" fill="#e32939"/><rect width="40" height="40" fill="none"/></svg>