<svg id="Layer_1" data-name="Layer 1" xmlns="http://www.w3.org/2000/svg" viewBox="0 0 40 40"><defs><style>.cls-1,.cls-2{fill:none;}.cls-2{stroke:#185dee;stroke-miterlimit:10;stroke-width:2px;}.cls-3{fill:#2f81f9;}.cls-4{fill:#4d9dff;}</style></defs><rect class="cls-1" width="40" height="40"/><path class="cls-2" d="M23.463,7.176V5.463A3.463,3.463,0,0,0,20,2h0a3.463,3.463,0,0,0-3.463,3.463V7.176"/><path class="cls-3" d="M20,5.218h0A14.966,14.966,0,0,1,34.966,20.184v9.2a7.837,7.837,0,0,1-7.837,7.837H12.87a7.837,7.837,0,0,1-7.837-7.837v-9.2A14.966,14.966,0,0,1,20,5.218Z"/><rect class="cls-4" x="6.993" y="21.46" width="26.014" height="15.758" rx="5.878"/></svg>