<?xml version="1.0" encoding="UTF-8"?><svg id="a" xmlns="http://www.w3.org/2000/svg" viewBox="0 0 40 40"><g><g><path d="M22.825,4.577c-3.389,0-6.136,2.747-6.136,6.136s2.747,6.136,6.136,6.136,6.136-2.747,6.136-6.136-2.747-6.136-6.136-6.136Zm0,7.923c-.987,0-1.787-.8-1.787-1.787s.8-1.787,1.787-1.787,1.787,.8,1.787,1.787-.8,1.787-1.787,1.787Z" fill="#4e5968"/><path d="M11.458,4.577c-3.389,0-6.136,2.747-6.136,6.136s2.747,6.136,6.136,6.136,6.136-2.747,6.136-6.136-2.747-6.136-6.136-6.136Zm0,7.923c-.987,0-1.787-.8-1.787-1.787s.8-1.787,1.787-1.787,1.787,.8,1.787,1.787-.8,1.787-1.787,1.787Z" fill="#4e5968"/></g><path d="M28.733,27.018l5.686,3.017c.423,.225,.933-.082,.933-.561v-11.447c0-.479-.51-.786-.933-.561l-5.686,3.017v6.534Z" fill="#4e5968"/><path d="M10.66,31.416h12.266v3.231c0,.428-.347,.775-.775,.775H11.435c-.428,0-.775-.347-.775-.775v-3.231h0Z" fill="#4e5968"/><path d="M27.211,32.428l-4.285,.991H10.66l-4.008-.975c-1.104-.269-1.88-1.257-1.88-2.393v-11.929c0-1.023,.829-1.851,1.851-1.851H27.268c1.023,0,1.851,.829,1.851,1.851v11.906c0,1.146-.791,2.141-1.908,2.399Z" fill="#afb7c0"/></g><rect x=".062" width="40" height="40" fill="none"/></svg>