<?xml version="1.0" encoding="UTF-8"?><svg id="Layer_1" xmlns="http://www.w3.org/2000/svg" viewBox="0 0 40 40"><rect width="40" height="40" style="fill:none;"/><g><g style="isolation:isolate;"><path d="M29.73612,24.46466c-5.40982-3.12336-14.15396-3.12334-19.53492,.00373-5.3747,3.12343-5.34616,8.18837,.06366,11.31173,5.40982,3.12336,14.15395,3.12333,19.52865-.0001,5.38095-3.12707,5.35242-8.192-.05739-11.31536" style="fill:#ffc84d;"/></g><g><path d="M22.66323,30.55876h-5.32611c-.53321,0-.953-.45493-.91022-.98642l1.27719-15.86976h4.59217l1.27719,15.86976c.04277,.53149-.37701,.98642-.91022,.98642Z" style="fill:#a96850;"/><g><polygon points="22.29629 13.70257 17.70407 13.70257 17.6306 14.61583 22.36977 14.61583 22.29629 13.70257" style="fill:#86584a;"/><polygon points="22.59024 17.3552 17.41012 17.3552 17.33665 18.26846 22.66372 18.26846 22.59024 17.3552" style="fill:#86584a;"/><polygon points="22.8842 21.00792 17.11617 21.00792 17.04264 21.92108 22.95767 21.92108 22.8842 21.00792" style="fill:#86584a;"/><polygon points="23.17815 24.66065 16.82217 24.66065 16.74869 25.5737 23.25162 25.5737 23.17815 24.66065" style="fill:#86584a;"/></g><path d="M19.9938,10.55166c-.27022-2.99194,1.16572-6.00955,3.93832-7.6103,2.7726-1.60075,6.10389-1.33549,8.55978,.39456l-12.4981,7.21574Z" style="fill:#0a9f60;"/><path d="M20.00018,10.55166c1.92472-3.03998,5.48934-4.86036,9.29102-4.35985,3.80168,.50051,6.77368,3.18147,7.84587,6.61601l-17.13689-2.25616Z" style="fill:#23b169;"/><path d="M20.00018,10.55166c3.3776-1.24009,7.31379-.51428,10.02517,2.19711,2.71138,2.7114,3.43717,6.64759,2.19698,10.02509l-12.22214-12.22221Z" style="fill:#68c76f;"/><path d="M20.00657,10.55166c.27022-2.99194-1.16572-6.00955-3.93832-7.6103-2.7726-1.60075-6.10389-1.33549-8.55978,.39456l12.4981,7.21574Z" style="fill:#0a9f60;"/><path d="M20.00018,10.55166c-1.92472-3.03998-5.48934-4.86036-9.29102-4.35985s-6.77368,3.18147-7.84587,6.61601l17.13689-2.25616Z" style="fill:#23b169;"/><path d="M20.00018,10.55166c-3.3776-1.24009-7.31379-.51428-10.02517,2.19711-2.71138,2.7114-3.43717,6.64759-2.19698,10.02509l12.22214-12.22221Z" style="fill:#68c76f;"/><path d="M23.75442,11.33352c-1.06513-1.38255-2.56688-1.78423-3.7211-.89501-1.15422,.88922-1.14888,2.44375-.08376,3.8263,1.06513,1.38255,2.41299,1.58448,3.56721,.69526s1.30277-2.244,.23765-3.62655Z" style="fill:#ffc450;"/><path d="M16.23318,11.33352c1.06513-1.38255,2.56688-1.78423,3.7211-.89501,1.15422,.88922,1.14888,2.44375,.08376,3.8263s-2.41299,1.58448-3.56721,.69526c-1.15422-.88922-1.30277-2.244-.23765-3.62655Z" style="fill:#ffe3a0;"/></g></g><path d="M10.26487,35.78009c5.40979,3.12335,14.15393,3.12335,19.52869-.00006,1.51208-.87878,2.5813-1.91302,3.23962-3.01178-1.4967-.8667-3.54456-.73438-4.86877,.40259-1.50317,1.29041-3.93994,1.29041-5.44287,0h-.00012c-1.50305-1.29041-3.93982-1.29041-5.44287,0s-3.93982,1.29041-5.44287,0c-1.31848-1.13196-3.35498-1.26984-4.84998-.41583,.66907,1.104,1.75171,2.14319,3.27917,3.02509Z" style="fill:#5a81ff;"/></svg>