<svg id="Layer_1" data-name="Layer 1" xmlns="http://www.w3.org/2000/svg" viewBox="0 0 40 40"><defs><style>.cls-1{fill:none;opacity:0;}.cls-2{fill:#ec6700;}.cls-3{fill:#fa0;}.cls-4{fill:#ffe63b;}.cls-5{fill:#ff9a00;}</style></defs><rect class="cls-1" width="40" height="40"/><path class="cls-2" d="M20.089,37.941c-.077-.049-6.377-6.259-6.744-11.66a5.8,5.8,0,0,1,2.05-5.1C16.8,20,23.373,20,24.783,21.185a5.8,5.8,0,0,1,2.049,5.1c-.366,5.4-6.666,11.611-6.743,11.66"/><path class="cls-2" d="M2.5,25.74c.023-.089,3.981-8,9.005-10.017a5.794,5.794,0,0,1,5.48.375c1.56.975,3.59,7.222,2.9,8.928a5.8,5.8,0,0,1-4.213,3.524C10.422,29.871,2.57,25.8,2.5,25.74"/><path class="cls-2" d="M9.276,5.048c.092-.006,8.838,1.315,12.309,5.469a5.794,5.794,0,0,1,1.337,5.327c-.445,1.786-5.759,5.647-7.594,5.518a5.8,5.8,0,0,1-4.654-2.917C7.8,13.859,9.243,5.133,9.276,5.048"/><path class="cls-2" d="M30.437,4.9c.033.085,1.48,8.812-1.4,13.4a5.8,5.8,0,0,1-4.654,2.917c-1.835.129-7.15-3.732-7.594-5.517a5.793,5.793,0,0,1,1.337-5.327C21.6,6.212,30.345,4.891,30.437,4.9"/><path class="cls-2" d="M37.5,25.5c-.07.059-7.922,4.132-13.173,2.811a5.8,5.8,0,0,1-4.213-3.524c-.689-1.706,1.341-7.954,2.9-8.928a5.794,5.794,0,0,1,5.48-.375c5.024,2.018,8.982,9.928,9,10.016"/><path class="cls-3" d="M20.089,19.7c.077-.049,6.377-6.258,6.743-11.66a5.794,5.794,0,0,0-2.049-5.095c-1.41-1.183-7.979-1.183-9.388,0a5.794,5.794,0,0,0-2.05,5.1c.367,5.4,6.667,11.611,6.744,11.66"/><path class="cls-3" d="M20.024,19.562c-.022-.088-3.981-8-9.005-10.016a5.8,5.8,0,0,0-5.48.374c-1.56.975-3.59,7.223-2.9,8.929a5.8,5.8,0,0,0,4.213,3.523c5.251,1.321,13.1-2.751,13.173-2.81"/><path class="cls-3" d="M19.871,19.58c-.091,0-8.837,1.315-12.308,5.47a5.793,5.793,0,0,0-1.337,5.327c.444,1.785,5.759,5.646,7.594,5.518a5.8,5.8,0,0,0,4.653-2.918c2.879-4.585,1.432-13.312,1.4-13.4"/><path class="cls-3" d="M19.842,19.731c-.034.085-1.481,8.812,1.4,13.4a5.8,5.8,0,0,0,4.653,2.918c1.835.128,7.15-3.733,7.594-5.518A5.793,5.793,0,0,0,32.15,25.2c-3.471-4.155-12.217-5.476-12.308-5.47"/><path class="cls-3" d="M19.976,19.806c.07.059,7.922,4.131,13.173,2.81a5.792,5.792,0,0,0,4.213-3.523c.689-1.706-1.341-7.954-2.9-8.928a5.8,5.8,0,0,0-5.48-.375C23.957,11.808,20,19.718,19.976,19.806"/><path class="cls-4" d="M19.956,20.118c-.031.02-2.551,2.5-2.7,4.664a2.317,2.317,0,0,0,.82,2.038,5.136,5.136,0,0,0,3.755,0,2.317,2.317,0,0,0,.82-2.038c-.147-2.16-2.666-4.644-2.7-4.664"/><path class="cls-4" d="M20.864,19.679c.009.035,1.593,3.2,3.6,4.006a2.317,2.317,0,0,0,2.192-.15,5.144,5.144,0,0,0,1.16-3.571,2.316,2.316,0,0,0-1.685-1.409c-2.1-.529-5.241,1.1-5.269,1.124"/><path class="cls-4" d="M20.736,18.481c.036,0,3.535-.526,4.923-2.188a2.313,2.313,0,0,0,.535-2.13,5.142,5.142,0,0,0-3.038-2.208A2.318,2.318,0,0,0,21.3,13.123c-1.151,1.834-.573,5.324-.559,5.358"/><path class="cls-4" d="M19.408,18.406c.013-.034.592-3.525-.56-5.359a2.317,2.317,0,0,0-1.861-1.167,5.143,5.143,0,0,0-3.038,2.207,2.32,2.32,0,0,0,.535,2.131c1.389,1.662,4.887,2.19,4.924,2.188"/><path class="cls-4" d="M19.136,19.557c-.028-.024-3.169-1.653-5.269-1.124a2.314,2.314,0,0,0-1.685,1.409,5.144,5.144,0,0,0,1.16,3.571,2.317,2.317,0,0,0,2.192.15c2.009-.807,3.593-3.971,3.6-4.006"/><path class="cls-5" d="M20.027,19.389a4.242,4.242,0,0,0,1.125-2.674,2.747,2.747,0,0,0-.377-1.211.837.837,0,0,0-1.5,0,2.747,2.747,0,0,0-.377,1.211,4.234,4.234,0,0,0,1.126,2.674"/><path class="cls-5" d="M20.027,19.389a4.237,4.237,0,0,0-2.2-1.9,2.728,2.728,0,0,0-1.269-.016A.836.836,0,0,0,16.1,18.9a2.732,2.732,0,0,0,1.036.733,4.244,4.244,0,0,0,2.891-.244"/><path class="cls-5" d="M20.027,19.389a4.235,4.235,0,0,0-2.482,1.5,2.715,2.715,0,0,0-.407,1.2.836.836,0,0,0,1.21.88,2.72,2.72,0,0,0,1.017-.759,4.243,4.243,0,0,0,.662-2.824"/><path class="cls-5" d="M20.027,19.389a4.232,4.232,0,0,0,.661,2.824,2.729,2.729,0,0,0,1.017.759.837.837,0,0,0,1.211-.88,2.727,2.727,0,0,0-.408-1.2,4.237,4.237,0,0,0-2.481-1.5"/><path class="cls-5" d="M20.027,19.389a4.24,4.24,0,0,0,2.89.244,2.732,2.732,0,0,0,1.036-.733.836.836,0,0,0-.463-1.423,2.723,2.723,0,0,0-1.268.016,4.232,4.232,0,0,0-2.2,1.9"/></svg>