<svg id="Layer_1" data-name="Layer 1" xmlns="http://www.w3.org/2000/svg" viewBox="0 0 40 40"><defs><style>.cls-1{fill:#956759;}.cls-2{fill:#333;}.cls-3{fill:#4e5968;}.cls-4{fill:#3e5af4;}.cls-5{fill:#ff3b26;}.cls-6{fill:none;}</style></defs><path class="cls-1" d="M13.379,30.811a5.183,5.183,0,0,1-3.407-1.277L7.593,27.469a2.351,2.351,0,1,1,3.083-3.551l2.379,2.065a.492.492,0,0,0,.662-.012l3.695-3.464a2.351,2.351,0,1,1,3.216,3.43L16.933,29.4A5.184,5.184,0,0,1,13.379,30.811Z"/><rect class="cls-1" x="22.385" y="8.934" width="2.58" height="2.515" transform="translate(8.139 -10.376) rotate(29.643)"/><circle class="cls-1" cx="25.601" cy="5.735" r="4.346"/><path class="cls-2" d="M25.6,5.735,22.85,9.1a4.346,4.346,0,1,1,6.464-5.623Z"/><ellipse class="cls-1" cx="25.011" cy="6.035" rx="1.639" ry="1.425" transform="translate(14.874 29.682) rotate(-80.363)"/><ellipse cx="28.691" cy="6.259" rx="0.679" ry="0.386" transform="translate(17.717 33.498) rotate(-80.363)"/><path class="cls-1" d="M28.867,37.037A2.351,2.351,0,0,1,26.516,34.7l-.03-4.286a1.364,1.364,0,0,0-.556-1.087l-2.894-2.114a2.351,2.351,0,0,1,2.774-3.8L28.7,25.533a6.086,6.086,0,0,1,2.484,4.851l.03,4.286a2.35,2.35,0,0,1-2.334,2.367Z"/><path class="cls-3" d="M26.5,33.945V38a.425.425,0,0,0,.425.425h7.393A.425.425,0,0,0,34.747,38v-.537A2.331,2.331,0,0,0,33.67,35.5l-2.43-1.552Z"/><circle class="cls-1" cx="12.511" cy="17.982" r="2.61"/><path class="cls-1" d="M12.711,18.987a2.09,2.09,0,0,1-1.741-3.242l1.577-2.387a5.073,5.073,0,0,1,3.7-2.254l4.821-.524a2.09,2.09,0,0,1,.451,4.156l-4.82.523a.906.906,0,0,0-.661.4l-1.577,2.387A2.09,2.09,0,0,1,12.711,18.987Z"/><path class="cls-4" d="M13.8,25.914,16.735,29.6l2.969-1.92a2.445,2.445,0,0,1,2.253-.212l3.606,1.6,2.5-3.994-3.823-2.9-7-.289Z"/><path class="cls-5" d="M17.245,21.882l1.9-8.579a5.192,5.192,0,0,1,1.241-2.444,3.154,3.154,0,0,1,3.38-.994A3,3,0,0,1,26.2,13.092c-.146.838-1.959,9.079-1.959,9.079Z"/><circle class="cls-1" cx="34.08" cy="16.743" r="2.61"/><path class="cls-1" d="M29.267,21.675a4.289,4.289,0,0,1-1.253-.189,4.228,4.228,0,0,1-2.526-2.1l-2.954-5.859a2.09,2.09,0,1,1,3.732-1.882l2.941,5.833c0-.009,0,.005.032.014a.069.069,0,0,0,.058-.006l3.789-2.048a2.09,2.09,0,0,1,1.988,3.677l-3.789,2.048A4.237,4.237,0,0,1,29.267,21.675Z"/><path class="cls-3" d="M11.1,24.2,8.191,21.375a.426.426,0,0,0-.6.008l-5.152,5.3a.425.425,0,0,0,.008.6l.385.374a2.33,2.33,0,0,0,2.16.6L7.8,27.6Z"/><rect class="cls-6" width="40" height="40"/></svg>