<svg id="Layer_1" data-name="Layer 1" xmlns="http://www.w3.org/2000/svg" viewBox="0 0 40 40"><defs><style>.cls-1,.cls-2{fill:none;}.cls-2{stroke:#e4e7ea;stroke-miterlimit:10;stroke-width:2.262px;}.cls-3{fill:#e5e9ee;}.cls-4{fill:#15a01c;}.cls-5{fill:#69cc29;}.cls-6{fill:#e4e7ea;}.cls-7{fill:#fdaeb3;}.cls-8{fill:#fa878f;}</style></defs><rect class="cls-1" width="40" height="40" transform="translate(40 40) rotate(-180)"/><line class="cls-2" x1="20" y1="27.383" x2="20" y2="38.873"/><path class="cls-3" d="M20.588,36.178a.867.867,0,0,0-1.094,0c-.306.418-5,1.518-6.513,2.832a.452.452,0,0,0,.315.78h13.49a.452.452,0,0,0,.315-.78C25.59,37.7,20.893,36.6,20.588,36.178Z"/><path class="cls-4" d="M18.49,3.179a.64.64,0,0,0,.034-.953A6.922,6.922,0,0,0,7.881,10.97a.625.625,0,0,0,.91.115Z"/><path class="cls-5" d="M17.438,4.05a4.89,4.89,0,0,0-7.581,6.179Z"/><path class="cls-6" d="M31.473,18.8c0-2.333-1.24-6.05-2.9-9.987a8.216,8.216,0,0,1-.64-3.153.992.992,0,0,0-.993-.987H13.063a.992.992,0,0,0-.993.987,8.216,8.216,0,0,1-.64,3.153c-1.664,3.938-2.9,7.654-2.9,9.987,0,5.9,3.542,10.862,8.371,12.378a3.168,3.168,0,0,1,2.035,3.091l2.18-.012a3.169,3.169,0,0,1,2.026-3.088C27.95,29.639,31.473,24.682,31.473,18.8Z"/><path class="cls-7" d="M28.287,11.886a10.682,10.682,0,0,1-8.287-.3,11.028,11.028,0,0,0-7.141-.676,3.359,3.359,0,0,0-.927.416c-1.2,2.986-2.04,5.728-2.04,7.53,0,6.257,4.526,11.329,10.108,11.329s10.108-5.072,10.108-11.329A22.236,22.236,0,0,0,28.287,11.886Z"/><path class="cls-8" d="M28.287,11.886a10.682,10.682,0,0,1-8.287-.3,11.028,11.028,0,0,0-7.141-.676,3.359,3.359,0,0,0-.927.416C10.737,14.312,24.066,15.09,28.287,11.886Z"/><circle class="cls-8" cx="22.908" cy="21.081" r="1.158"/><circle class="cls-8" cx="17.902" cy="17.608" r="1.158"/></svg>