<?xml version="1.0" encoding="UTF-8"?><svg id="Layer_1" xmlns="http://www.w3.org/2000/svg" viewBox="0 0 40 40"><g><path d="m8.019,32.448c-1.283,0-2.568-.483-3.554-1.453-1.991-1.959-2.017-5.173-.059-7.164.484-.493,1.276-.498,1.768-.015.492.484.499,1.275.015,1.768-.992,1.009-.979,2.637.03,3.629,1.008.992,2.636.979,3.628-.03L34.757,4.16c.487-.49,1.279-.492,1.768-.004.489.487.491,1.278.004,1.768L11.623,30.942c-.987,1.003-2.295,1.506-3.604,1.506Z" fill="#495b73"/><g><path d="m35.707,7.565l-11.607,27.373c-.115.271-.561.143-.736-.207-.408-.812-.974-1.608-1.696-2.33-1.311-1.312-2.866-2.125-4.315-2.382L35.327,5.9c.395.514.603,1.137.379,1.665Z" fill="#2f81f9"/><path d="m10.661,23.322c-.255-1.449-1.066-3.005-2.377-4.316-.722-.722-1.517-1.29-2.329-1.698-.349-.176-.477-.621-.206-.736l27.402-11.565c.567-.239,1.244.017,1.775.471L10.661,23.322Z" fill="#2f81f9"/><path d="m35.081,5.645c.084.084.173.164.246.259l-17.974,24.12h0c-.127-.725-.394-1.476-.792-2.21s-.929-1.451-1.584-2.107c-.2-.2-.414-.365-.623-.542-.23-.194-.462-.376-.701-.541-.564-.389-1.144-.705-1.728-.93-.054-.021-.108-.053-.162-.073-.37-.133-.739-.232-1.101-.296L34.926,5.482c.055.047.098.106.149.156l.023-.017-.017.023Z" fill="#64a7ff"/></g></g><rect width="40" height="40" fill="none"/></svg>