<?xml version="1.0" encoding="UTF-8"?><svg id="Layer_1" xmlns="http://www.w3.org/2000/svg" viewBox="0 0 40 40"><path d="m9.895,17.794c0-1.116,4.525-2.021,10.105-2.021s10.105.905,10.105,2.021v14.059c0,1.116-4.525,2.021-10.105,2.021s-10.105-.905-10.105-2.021" fill="#997642"/><path d="m17.979,17.794c0-1.116.905-2.021,2.021-2.021s2.021.905,2.021,2.021v14.059c0,1.116-.905,2.021-2.021,2.021s-2.021-.905-2.021-2.021" fill="#d7bf95"/><path d="m30.106,33.873c-1.116,0-2.021-.905-2.021-2.021v-14.059c0-1.116.905-2.021,2.021-2.021s2.021.905,2.021,2.021v14.059c0,1.116-.905,2.021-2.021,2.021Z" fill="#d7bf95"/><path d="m9.895,33.873c-1.116,0-2.021-.905-2.021-2.021v-14.059c0-1.116.905-2.021,2.021-2.021s2.021.905,2.021,2.021v14.059c0,1.116-.905,2.021-2.021,2.021Z" fill="#d7bf95"/><rect x="17.979" y="14.517" width="4.043" height="5.96" fill="#c1966b"/><rect x="28.084" y="14.517" width="4.043" height="5.96" fill="#c1966b"/><rect x="7.874" y="14.517" width="4.043" height="5.96" fill="#c1966b"/><path d="m33.813,13.495L21.225,3.744c-.721-.558-1.729-.558-2.45,0L6.187,13.495v1.915h27.626v-1.915Z" fill="#d7bf95" fill-rule="evenodd"/><rect x="4" y="31.622" width="32" height="5.053" rx="1.011" ry="1.011" fill="#e3d6c3"/><path d="m20,12.003c-1.325,0-2.4-1.075-2.4-2.4s1.075-2.4,2.4-2.4,2.4,1.075,2.4,2.4-1.075,2.4-2.4,2.4Z" fill="#e3d6c3" fill-rule="evenodd"/><rect x="4" y="13.593" width="32" height="5.053" rx="1.011" ry="1.011" fill="#e3d6c3"/></svg>