<?xml version="1.0" encoding="UTF-8"?><svg id="Layer_1" xmlns="http://www.w3.org/2000/svg" viewBox="0 0 40 40"><rect width="40" height="40" style="fill:none;"/><g><path d="M25.9541,35.80176c-3.89941,0-6.9541-4.32617-6.9541-9.84961v-8.90918c0-.55273,.44727-1,1-1s1,.44727,1,1v8.90918c0,4.25488,2.26855,7.84961,4.9541,7.84961,.55273,0,1,.44727,1,1s-.44727,1-1,1Z" style="fill:#23b169;"/><g><path d="M1.70608,6.48097c3.19572-1.84118,7.79442-1.74892,11.85278,.59415,4.05835,2.34308,6.43762,6.27953,6.44114,9.96778-3.19583,1.84104-7.79456,1.74884-11.85292-.59423C4.08873,14.10559,1.70949,10.16908,1.70608,6.48097Z" style="fill:#68c76f;"/><path d="M38.29392,6.48097c-3.19572-1.84118-7.79442-1.74892-11.85278,.59415-4.05835,2.34308-6.43762,6.27953-6.44114,9.96778,3.19583,1.84104,7.79456,1.74884,11.85292-.59423,4.05835-2.34308,6.43759-6.27959,6.441-9.96769Z" style="fill:#68c76f;"/></g></g></svg>