<?xml version="1.0" encoding="UTF-8"?><svg id="Layer_1" xmlns="http://www.w3.org/2000/svg" viewBox="0 0 40 40"><g><g><path d="m19.135,36h1.279v-7.504c-.441-.083-.876-.168-1.279-.235v7.739Z" fill="#595959"/><path d="m19.135,11.207v11.181c.119.019.238.039.351.05.034.004.067.006.1.009.293.024.567.015.827-.019v-11.221h-1.279Z" fill="#595959"/></g><g><path d="m20.019,1.062l-.086-.059c-.135-.03-.275-.03-.403.029L3.6,8.351c-.703.323-1.154,1.026-1.154,1.801v.416c0,.353.286.64.64.64h5.144v-2.28L20.019,1.062Z" fill="#ffcc35"/><path d="m31.366,11.207v-2.28L20.149,1.152l5.432,7.775v2.28h10.928c.177,0,.337-.072.452-.188-.116.116-.276.188-.452.188h-5.144Z" fill="#ffcc35"/><polygon points="19.798 8.927 20.063 1.092 20.034 1.072 14.014 8.927 14.014 11.207 19.135 11.207 19.798 11.207 19.798 8.927" fill="#ffcc35"/></g><g><path d="m36.777,8.709L20.065,1.031l.085.121,11.216,7.775v2.28h5.144c.177,0,.337-.072.452-.188.116-.116.188-.276.188-.452v-1.276c0-.25-.146-.477-.373-.582Z" fill="#ffaf00"/><polygon points="20.034 1.072 20.063 1.092 20.065 1.031 20.034 1.072" fill="#ffaf00"/><path d="m20.065,1.031c-.042-.019-.087-.019-.132-.029h0l.086.059.046-.031Z" fill="#ffaf00"/><polygon points="20.149 1.152 20.065 1.031 20.063 1.092 19.798 8.927 19.798 11.207 20.414 11.207 25.582 11.207 25.582 8.927 20.149 1.152" fill="#ffaf00"/><polygon points="20.034 1.072 20.065 1.031 20.019 1.062 8.23 8.927 8.23 11.207 14.014 11.207 14.014 8.927 20.034 1.072" fill="#ffaf00"/></g><path d="m22.907,23.759c0,.662-.541,1.203-1.203,1.203h-4.614c-.661,0-1.203-.541-1.203-1.203v-1.54c.835-.116,1.843-.09,3.06.141,0,0,0,0,0,0,0,0,0,0,0,0-2.077-.395-3.564-.208-4.577.305h0s.023.748-.751.51c-.742.669-1.051,1.586-1.034,2.503.039,2.107-.859,1.756-1.561,2.771-.703,1.015-.156.858-1.015,2.654s-2.029.468-2.459,2.342c-.429,1.873.742,1.288,1.912.546,1.171-.742,1.951-2.654,2.537-3.269.585-.615,1.717-.088,2.693-.322.976-.234,1.873-1.522,2.615-2.108.288-.228.986-.171,1.828-.031.403.067.838.151,1.279.235,1.005.189,2.035.365,2.747.265,1.678-.234,2.106-1.399,2.739-1.856,1.097-.792,1.012,4.076,1.327,5.789.201,1.093.359,1.162,1.367,1.366.617.125.852-.113.252-1.763-.579-1.592-.103-4.01.209-5.454.312-1.444-.007-2.359-1.446-4.132-1.096-1.352-.351-4.722.781-3.552,1.132,1.171,1.873,1.483,2.693.82.782-.634-.048-2.41-1.855-4.539-.086-.101-.162-.198-.252-.301-.37-.421-.718-.685-1.05-.817-.117-.047-.233-.076-.346-.091.069.167.108.349.108.541,0,.777-.63,1.407-1.407,1.407-.01,0-.02-.003-.03-.003.009.05.03.095.03.148,0,.494-.4.894-.894.894-.059,0-.11-.023-.166-.033-.026.271-.149.508-.342.677.033.083.054.171.054.266,0,.366-.273.656-.624.71.077.129.134.271.134.432,0,.473-.384.857-.857.857-.099,0-.19-.025-.279-.056-.2.347-.4.656-.603.921.117.184.203.389.203.623v2.144Z" fill="#e1e7ee"/><g><path d="m28.977,15.14c.09.103.166.2.252.301l.694-2.027c.058-.169-.131-.316-.281-.218l-1.716,1.127c.332.132.68.396,1.05.817Z" fill="#7b93ac"/><path d="m27.69,14.77c0,.78-.63,1.41-1.41,1.41h-.03c.01.05.03.09.03.15,0,.49-.4.89-.89.89-.06,0-.11-.02-.17-.03-.02.27-.15.5-.34.67.03.09.05.17.05.27,0,.37-.27.66-.62.71.08.13.13.27.13.43,0,.47-.38.86-.85.86-.1,0-.2-.03-.28-.06-.34-.11-.58-.42-.58-.8,0-.45.36-.82.8-.85-.04-.09-.06-.19-.06-.29s.02-.18.05-.27c-.21-.19-.36-.46-.36-.77,0-.57.47-1.04,1.04-1.04.12,0,.23.03.34.07.07-.29.26-.52.54-.63-.13-.21-.21-.45-.21-.72,0-.77.63-1.4,1.41-1.4.59,0,1.09.35,1.3.86.07.17.11.35.11.54Z" fill="#7b93ac"/><path d="m14.37,22.666h0s-.37-1.177-1.876-1.281c-1.509-.104-1.723,1.444-3.955,1.899-.884.18-2.108.442-1.353.859.755.416,1.828,1.136,3.2.598,1.565-.614,2.457-1.805,3.232-1.566,0,0,0,0,0,0,.774.238.751-.51.751-.51Z" fill="#7b93ac"/></g><path d="m19.587,22.447c-.033-.003-.067-.005-.1-.009-.113-.011-.233-.031-.351-.05-.063-.01-.123-.015-.188-.027,0,0,0,0,0,0-1.217-.231-2.224-.257-3.06-.141v1.54c0,.662.541,1.203,1.203,1.203h4.614c.662,0,1.203-.541,1.203-1.203v-2.144c0-.233-.086-.438-.203-.623-.003-.005-.005-.011-.008-.016-.68.888-1.399,1.337-2.282,1.451-.261.034-.534.042-.827.019Z" fill="#243d55"/><path d="m5.407,36c-.547,0-.991.444-.991.991v.991c0,.547.444.991.991.991h28.736c.547,0,.991-.444.991-.991v-.991c0-.547-.444-.991-.991-.991H5.407Z" fill="#ffaf00"/></g><rect x="0" y="0" width="40" height="40" transform="translate(40 40) rotate(-180)" fill="none"/></svg>