<?xml version="1.0" encoding="UTF-8"?><svg id="Layer_1" xmlns="http://www.w3.org/2000/svg" viewBox="0 0 40 40"><g><path d="m30.064,11.536c.765-.819.761-2.07.034-2.893.67-.87.59-2.119-.228-2.884s-2.069-.761-2.893-.034c-.87-.67-2.119-.59-2.884.228-.765.819-.761,2.07-.034,2.893-.67.87-.591,2.119.228,2.884.819.765,2.07.761,2.893.034.87.67,2.119.59,2.884-.228Z" fill="#ffc733"/><path d="m21.554,8.48c.579-.959.316-2.182-.566-2.837.475-.99.139-2.195-.821-2.774-.959-.579-2.182-.316-2.837.566-.99-.475-2.195-.139-2.775.821s-.316,2.182.566,2.837c-.475.99-.139,2.195.821,2.775.96.579,2.182.316,2.837-.566.99.475,2.195.139,2.774-.821Z" fill="#ffc733"/><path d="m26.339,8.926c.565-.968.282-2.187-.609-2.828.46-.997.105-2.197-.863-2.762s-2.187-.282-2.828.609c-.997-.46-2.197-.105-2.762.863s-.282,2.187.609,2.828c-.46.997-.105,2.197.863,2.762s2.187.282,2.829-.609c.997.46,2.197.105,2.762-.863Z" fill="#ffd361"/><path d="m13.527,11.784c0-1.121-.858-2.031-1.951-2.137-.105-1.093-1.016-1.951-2.137-1.951s-2.031.858-2.137,1.951c-1.093.105-1.951,1.016-1.951,2.137s.858,2.031,1.951,2.137c.105,1.093,1.016,1.951,2.137,1.951s2.031-.858,2.137-1.951c1.093-.105,1.951-1.016,1.951-2.137Z" fill="#ffc733"/><path d="m24.554,12.6c0-1.572-1.203-2.849-2.736-2.997-.148-1.533-1.425-2.736-2.997-2.736s-2.849,1.203-2.997,2.736c-1.533.148-2.737,1.425-2.737,2.997s1.203,2.849,2.737,2.997c.148,1.533,1.425,2.737,2.997,2.737s2.849-1.203,2.997-2.737c1.533-.148,2.736-1.425,2.736-2.997Z" fill="#ffdb80"/><path d="m34.339,12.6c0-1.121-.858-2.031-1.951-2.137-.105-1.093-1.016-1.951-2.137-1.951s-2.031.858-2.137,1.951c-1.093.105-1.951,1.016-1.951,2.137s.858,2.031,1.951,2.137c.105,1.093,1.016,1.951,2.137,1.951s2.031-.858,2.137-1.951c1.093-.105,1.951-1.016,1.951-2.137Z" fill="#ffdb80"/><path d="m17.173,10.593c.507-1,.154-2.2-.774-2.788.4-1.023-.024-2.199-1.023-2.706-1-.507-2.199-.154-2.788.774-1.023-.4-2.199.024-2.706,1.023s-.154,2.2.774,2.788c-.4,1.023.024,2.199,1.023,2.706,1,.507,2.2.154,2.788-.774,1.023.4,2.199-.024,2.706-1.023Z" fill="#ffe9b0"/><path d="m28.543,13.966c.507-1,.154-2.2-.774-2.788.4-1.023-.024-2.199-1.023-2.706-1-.507-2.199-.154-2.788.774-1.023-.4-2.199.024-2.706,1.023s-.154,2.2.774,2.788c-.4,1.023.024,2.199,1.023,2.706,1,.507,2.2.154,2.788-.774,1.023.4,2.199-.024,2.706-1.023Z" fill="#ffe9b0"/><g><path d="m36.576,15.218h-.003c-.015-1.818-1.491-3.287-3.312-3.287s-3.297,1.47-3.312,3.287h-6.636c-.015-1.818-1.491-3.287-3.312-3.287s-3.297,1.47-3.312,3.287h-6.636c-.015-1.818-1.491-3.287-3.312-3.287s-3.297,1.47-3.312,3.287h-.003l.002.012c0,.005-.002.011-.002.016,0,.288.048.563.118.83l2.709,19.773c.125.912.904,1.592,1.825,1.592h23.848c.921,0,1.7-.68,1.825-1.592l2.709-19.773c.069-.267.117-.541.117-.83,0-.005-.002-.01-.002-.016l.002-.012Z" fill="#e32939"/><g><path d="m29.945,15.244l.002-.026h-.005c-.015-1.818-1.491-3.287-3.312-3.287s-3.297,1.47-3.312,3.287h-.002l-.597,22.223h5.417l1.809-22.178c0-.006.002-.011.002-.017,0,0,0-.001,0-.002Z" fill="#d5d5d5"/><path d="m16.682,15.218c-.015-1.818-1.491-3.287-3.312-3.287s-3.297,1.47-3.312,3.287h-.005l.002.026s0,0,0,.001c0,.005.002.01.002.016l1.829,22.179h5.416l-.618-22.223h-.002Z" fill="#d5d5d5"/></g></g></g><rect width="40" height="40" fill="none"/></svg>