<?xml version="1.0" encoding="UTF-8"?><svg id="Layer_1" xmlns="http://www.w3.org/2000/svg" viewBox="0 0 40 40"><g><path d="M13.48285,26.51562c-2.40186-2.40137-3.28088-5.74512-2.646-8.84033-1.80127,.36938-3.51892,1.24829-4.91644,2.64551-3.5672,3.56641-3.78424,9.21265-.65314,13.03345,.20386,.24878,.4209,.49023,.65314,.72241,.23206,.23193,.47345,.44873,.72198,.65234,3.82166,3.1311,9.46979,2.91431,13.03717-.65234,1.39758-1.39722,2.27655-3.11475,2.646-4.91553-3.09607,.63477-6.44073-.2439-8.84271-2.64551Z" style="fill:#4fc578;"/><path d="M20.89124,19.10889c-2.4342-2.43359-3.30054-5.83447-2.61572-8.96436-1.7558,.38428-3.42743,1.25024-4.79266,2.61523-1.39758,1.39722-2.27661,3.1145-2.646,4.91553-.63489,3.09521,.24414,6.43896,2.646,8.84033,2.40198,2.40161,5.74664,3.28027,8.84271,2.64551,1.80127-.36963,3.51898-1.24829,4.91644-2.64551,1.3653-1.36475,2.23163-3.03613,2.61572-4.79175-3.13062,.68481-6.53223-.1814-8.96649-2.61499Z" style="fill:#ffc450;"/><path d="M35.30347,6.0752l-2.73706,2.73633c-.18945,.18945-.43848,.28516-.6875,.28516s-.49805-.0957-.6875-.28516c-.37988-.37988-.37988-.99512,0-1.375l2.73694-2.73633c-3.82166-3.13086-9.46967-2.91406-13.03711,.65259-1.3653,1.36499-2.23163,3.03638-2.61572,4.79175-.68481,3.12988,.18152,6.53076,2.61572,8.96436,2.43427,2.43359,5.83588,3.2998,8.96649,2.61499,1.7558-.38403,3.42743-1.25024,4.79266-2.61499,3.56732-3.56641,3.78442-9.21289,.65308-13.03369Z" style="fill:#fa878f;"/><g><path d="M5.26727,33.35425l-3.4548,3.45435c-.37986,.37988-.37986,.99512,0,1.375,.18948,.18945,.4385,.28516,.68752,.28516s.49805-.0957,.68748-.28516l3.45492-3.45459c-.24854-.20361-.48993-.42041-.72198-.65234-.23224-.23218-.44928-.47363-.65314-.72241Z" style="fill:#5e403b;"/><path d="M31.19141,8.81152c.18945,.18945,.43848,.28516,.6875,.28516s.49805-.0957,.6875-.28516l2.73706-2.73633,1.01392-1.01367c.37988-.37988,.37988-.99512,0-1.375-.37891-.37891-.99414-.37891-1.375,0l-1.01404,1.01367-2.73694,2.73633c-.37988,.37988-.37988,.99512,0,1.375Z" style="fill:#5e403b;"/></g></g><rect width="40" height="40" style="fill:none;"/></svg>