<svg id="Layer_1" data-name="Layer 1" xmlns="http://www.w3.org/2000/svg" viewBox="0 0 40 40"><defs><style>.cls-1{fill:#fff;}.cls-2{fill:none;}.cls-3{fill:#b8e0ff;}.cls-4{fill:#23b169;}.cls-5{fill:#0a9f60;}.cls-6{fill:#7bd58f;}.cls-7{fill:#4fc578;}.cls-8{fill:#64a7ff;}</style></defs><path class="cls-1" d="M28.679,28.9h-25V16.889a5.463,5.463,0,0,1,8.955.858,3.46,3.46,0,0,1,1.135-.041A3.513,3.513,0,0,1,15.846,18.9a3.2,3.2,0,0,1,.938,2.972,4.714,4.714,0,0,1,1.667.483,3.36,3.36,0,0,1,6.333-1.072,2.359,2.359,0,0,1,2.914.743,2.224,2.224,0,0,1,.536,2.309h0a2.729,2.729,0,0,1,2.509,1.522,2.853,2.853,0,0,1-.176,2.81A8,8,0,0,1,28.679,28.9Z"/><rect class="cls-2" width="40" height="40"/><rect class="cls-3" x="3.5" y="3.5" width="33" height="33" rx="8"/><path class="cls-4" d="M30.08,11.1a1.4,1.4,0,0,0-2.477,0L18.252,28.859a1.4,1.4,0,0,0,1.238,2.052H36.129A8,8,0,0,0,36.5,28.5V23.293Z"/><path class="cls-5" d="M18.505,18.033l-5.7,10.826a1.4,1.4,0,0,0,1.239,2.052H27.761L20.982,18.033A1.4,1.4,0,0,0,18.505,18.033Z"/><path class="cls-5" d="M3.5,19.427V28.5a8,8,0,0,0,.371,2.411H7.227a1.4,1.4,0,0,0,1.238-2.052Z"/><path class="cls-6" d="M3.7,28.911c-.063,0-.121,0-.183,0A7.993,7.993,0,0,0,11.5,36.5h17a7.993,7.993,0,0,0,7.979-7.589Z"/><rect class="cls-2" x="3.5" y="3.5" width="32.927" height="33" rx="8"/><path class="cls-7" d="M26.306,18.776c1.263,0,1.263,1.317,2.526,1.317s1.264-1.317,2.528-1.317,1.265,1.317,2.531,1.317a1.349,1.349,0,0,0,.8-.247L30.1,11.11a1.423,1.423,0,0,0-2.519,0l-4.6,8.737a1.349,1.349,0,0,0,.8.246C25.043,20.093,25.043,18.776,26.306,18.776Z"/><path class="cls-8" d="M8.465,28.859a12.193,12.193,0,0,0,3.78,1.936c2.276.64,9.355.831,9.355,3.068,0,1.96-6.615,2.637-6.615,2.637H28.039a2.554,2.554,0,0,0,1.285-2.4c-.212-1.328-1.841-2.549-6.223-3.3s-9.614-1-10.295-1.939Z"/></svg>