<svg id="Layer_1" data-name="Layer 1" xmlns="http://www.w3.org/2000/svg" viewBox="0 0 40 40"><defs><style>.cls-1{fill:none;}.cls-2{fill:#002a82;}.cls-3{fill:#144dc4;}.cls-4{fill:#ffdfdb;}.cls-5{fill:#96ade0;}.cls-6{fill:#292929;}.cls-7{fill:#cf0042;}.cls-8{fill:#ffce5b;}.cls-9{fill:#1141a6;}.cls-10{fill:#750026;}.cls-11{fill:#db85a1;}.cls-12{fill:#ffb05b;}</style></defs><rect class="cls-1" y="-0.019" width="40" height="40"/><path class="cls-2" d="M18.608,28.641,17.2,25.78l-8.88-1.467.192.772-4.885.7L2.377,28.641a2.037,2.037,0,0,0,1.077,3.766H17.372a2.037,2.037,0,0,0,2.036-2.037A1.91,1.91,0,0,0,18.608,28.641Z"/><path class="cls-3" d="M19.4,24.056c-.564-3.308-3.055-9.129-7.894-9.811H9.474c-4.84.682-7.331,6.5-7.895,9.811a6.239,6.239,0,0,0,.344,3.908v.005L1.938,28l.023.043c.03.053.078.134.134.222.024.036.044.07.066.1a2.158,2.158,0,0,0,.216.28,42.492,42.492,0,0,1,4.647-2.725l.347.035L10.488,26l3.126-.052.324-.036a34.1,34.1,0,0,1,4.67,2.725,3.608,3.608,0,0,0,.454-.672l0-.023A6.253,6.253,0,0,0,19.4,24.056Z"/><path class="cls-4" d="M12.788,22.25a1.921,1.921,0,0,0,1.15,3.666l-.58-1.85Z"/><path class="cls-2" d="M8.184,22.25V14.57a7.756,7.756,0,0,0-2.963,1.96v4.718Z"/><path class="cls-2" d="M15.755,21.248V16.573a7.82,7.82,0,0,0-2.963-1.988V22.25Z"/><path class="cls-5" d="M9.928,16.468,8.79,15.037l1.652-1.652,1.651,1.652-1.138,1.431A.656.656,0,0,1,9.928,16.468Z"/><circle class="cls-4" cx="10.442" cy="12.377" r="3.134"/><circle class="cls-4" cx="7.308" cy="12.848" r="0.965"/><circle class="cls-4" cx="13.576" cy="12.848" r="0.965"/><path class="cls-6" d="M9.188,9.8V5.675a1.249,1.249,0,1,1,2.5,0V9.8Z"/><rect class="cls-6" x="7.612" y="8.035" width="5.661" height="0.578" rx="0.289"/><path class="cls-6" d="M10.442,9.207a3.124,3.124,0,0,0-3.088,2.676,1.077,1.077,0,0,0,.919-1.141h4.2s.137,1.1,1.053,1.141A3.124,3.124,0,0,0,10.442,9.207Z"/><path class="cls-6" d="M9.971,12.767a.57.57,0,1,0-1.022-.5Z"/><path class="cls-6" d="M10.945,12.79a.57.57,0,0,1,.989-.567Z"/><circle class="cls-7" cx="10.442" cy="13.899" r="0.292"/><polygon class="cls-8" points="9.338 23.859 8.273 22.975 12.298 17.787 13.696 18.947 9.338 23.859"/><path class="cls-4" d="M8.174,22.25a1.921,1.921,0,0,1-1.15,3.666l.581-1.85Z"/><rect class="cls-9" x="9.318" y="25.984" width="2.432" height="6.423"/><rect class="cls-8" x="1.439" y="32.407" width="17.969" height="3.015" rx="1.507"/><rect class="cls-8" x="20.504" y="32.407" width="17.969" height="3.015" rx="1.507"/><path class="cls-6" d="M32.335,7.61H26.561a3.21,3.21,0,0,0-2.724,4.909l2.439,3.912,3.132.147v0l.04,0,.04,0v0l3.131-.147,2.44-3.912A3.21,3.21,0,0,0,32.335,7.61Z"/><path class="cls-10" d="M37.683,28.641,36.275,25.78l-8.881-1.467.193.772-4.886.7-1.248,2.861a2.037,2.037,0,0,0,1.076,3.766H36.447a2.037,2.037,0,0,0,2.037-2.037A1.909,1.909,0,0,0,37.683,28.641Z"/><path class="cls-7" d="M38.443,24.291c-.564-3.139-3.055-8.663-7.895-9.31H28.521c-4.84.647-7.331,6.171-7.895,9.31A5.641,5.641,0,0,0,20.97,28V28l.016.026.023.04c.029.051.078.128.134.212.023.034.044.066.065.094a2.132,2.132,0,0,0,.217.265l4.647-2.586h6.914l4.669,2.586A3.342,3.342,0,0,0,38.108,28l0-.022A5.65,5.65,0,0,0,38.443,24.291Z"/><path class="cls-8" d="M35.292,21.211a6.136,6.136,0,0,0-11.608,0l5.8,1.988Z"/><path class="cls-4" d="M31.05,25.012a1.921,1.921,0,0,0,3.355,1.872l-1.693-.945Z"/><path class="cls-4" d="M27.019,22.666a1.921,1.921,0,0,1,2.553,2.871l-1.288-1.449Z"/><path class="cls-11" d="M28.975,16.468l-1.138-1.431,1.651-1.652,1.652,1.652L30,16.468A.656.656,0,0,1,28.975,16.468Z"/><circle class="cls-4" cx="29.483" cy="12.377" r="3.134"/><circle class="cls-4" cx="26.354" cy="12.848" r="0.965"/><circle class="cls-4" cx="32.622" cy="12.848" r="0.965"/><path class="cls-6" d="M29.488,8.782c-1.574,0-3.371,1.5-3.088,3.1a1.076,1.076,0,0,0,.919-1.141h4.2s.138,1.1,1.054,1.141C32.86,10.273,31.062,8.782,29.488,8.782Z"/><circle class="cls-12" cx="29.489" cy="7.841" r="1.558"/><path class="cls-12" d="M29.807,5.909a.351.351,0,1,0-.7,0v.713h.7Z"/><path class="cls-12" d="M28.512,6.173a.351.351,0,1,0-.5.5l.5.5.5-.5Z"/><path class="cls-12" d="M30.466,6.173a.351.351,0,0,1,.5.5l-.5.5-.5-.5Z"/><rect class="cls-12" x="26.848" y="7.332" width="5.269" height="0.815" rx="0.407"/><circle class="cls-7" cx="29.478" cy="13.899" r="0.292"/><path class="cls-6" d="M29.018,12.767a.57.57,0,1,0-1.022-.5Z"/><path class="cls-6" d="M29.992,12.79a.57.57,0,1,1,.989-.567Z"/></svg>