<?xml version="1.0" encoding="UTF-8"?><svg id="Layer_1" xmlns="http://www.w3.org/2000/svg" viewBox="0 0 40 40"><rect width="40" height="40" fill="none"/><g><g><path d="m13.266,27.17c1.131,3.948,3.148,6.852,5.484,7.634v-7.634h-5.484Z" fill="#5dcfcd"/><path d="m12.699,24.67h6.051v-9.34h-6.051c-.257,1.478-.402,3.047-.402,4.67s.145,3.192.402,4.67Z" fill="#5dcfcd"/><path d="m26.734,12.83c-1.131-3.948-3.148-6.852-5.484-7.634v7.634h5.484Z" fill="#5dcfcd"/><path d="m21.25,34.804c2.336-.782,4.353-3.685,5.484-7.634h-5.484v7.634Z" fill="#5dcfcd"/><path d="m27.301,24.67c.257-1.478.402-3.047.402-4.67s-.145-3.192-.402-4.67h-6.051v9.34h6.051Z" fill="#5dcfcd"/><path d="m18.75,5.196c-2.336.782-4.353,3.685-5.484,7.634h5.484v-7.634Z" fill="#5dcfcd"/><path d="m20,37.53c-9.67,0-17.53-7.86-17.53-17.53S10.33,2.47,20,2.47c-2.53,0-4.81,1.51-6.58,4.04-1.18,1.69-2.13,3.85-2.75,6.32h-6.62c-.36.8-.66,1.64-.9,2.5h7.01c-.23,1.48-.36,3.04-.36,4.67s.13,3.19.36,4.67H3.15c.24.86.54,1.7.9,2.5h6.62c.62,2.47,1.57,4.63,2.75,6.32,1.77,2.53,4.05,4.04,6.58,4.04Z" fill="#5dcfcd"/><path d="m37.53,20c0,9.67-7.86,17.53-17.53,17.53,2.53,0,4.81-1.51,6.58-4.04,1.18-1.69,2.13-3.85,2.75-6.32h6.62c.36-.8.66-1.64.9-2.5h-7.01c.23-1.48.36-3.04.36-4.67s-.13-3.19-.36-4.67h7.01c-.24-.86-.54-1.7-.9-2.5h-6.62c-.62-2.47-1.57-4.63-2.75-6.32-1.77-2.53-4.05-4.04-6.58-4.04,9.67,0,17.53,7.86,17.53,17.53Z" fill="#5dcfcd"/></g><g><path d="m27.301,24.67h2.539c.231-1.484.364-3.044.364-4.67s-.133-3.186-.364-4.67h-2.539c.257,1.478.402,3.047.402,4.67s-.145,3.192-.402,4.67Z" fill="#00adab"/><path d="m10.161,24.67h2.539c-.257-1.478-.402-3.047-.402-4.67s.145-3.192.402-4.67h-2.539c-.231,1.484-.364,3.044-.364,4.67s.133,3.186.364,4.67Z" fill="#00adab"/><path d="m26.579,33.492c1.183-1.695,2.127-3.852,2.756-6.322h-2.601c-1.131,3.948-3.148,6.852-5.484,7.634v1.476h-2.5v-1.476c-2.336-.782-4.353-3.685-5.484-7.634h-2.601c.629,2.47,1.573,4.627,2.756,6.322,1.765,2.528,4.049,4.037,6.579,4.037s4.814-1.509,6.579-4.037Z" fill="#00adab"/><path d="m13.421,6.508c-1.183,1.695-2.127,3.852-2.756,6.322h2.601c1.131-3.948,3.148-6.852,5.484-7.634v-1.476h2.5v1.476c2.336.782,4.353,3.685,5.484,7.634h2.601c-.629-2.47-1.573-4.627-2.756-6.322-1.765-2.528-4.049-4.037-6.579-4.037s-4.814,1.509-6.579,4.037Z" fill="#00adab"/><polygon points="18.75 27.17 18.75 34.804 18.75 36.279 21.25 36.279 21.25 34.804 21.25 27.17 18.75 27.17" fill="#00adab"/><polygon points="21.25 12.83 21.25 5.196 21.25 3.721 18.75 3.721 18.75 5.196 18.75 12.83 21.25 12.83" fill="#00adab"/><rect x="18.75" y="15.33" width="2.5" height="9.34" fill="#00adab"/><path d="m26.734,12.83H4.048c-.362.803-.66,1.638-.898,2.5h33.701c-.238-.862-.537-1.697-.898-2.5h-9.218Z" fill="#00adab"/><path d="m27.301,24.67H3.149c.238.862.537,1.697.898,2.5h31.904c.362-.803.66-1.638.898-2.5h-9.55Z" fill="#00adab"/></g></g></svg>