<svg id="Layer_1" data-name="Layer 1" xmlns="http://www.w3.org/2000/svg" viewBox="0 0 40 40"><defs><style>.cls-1,.cls-7{fill:none;}.cls-1{stroke:#595959;stroke-linecap:round;stroke-linejoin:round;stroke-width:1.28px;}.cls-2{fill:#ffcc35;}.cls-3{fill:#ffaf00;}.cls-4{fill:#7b93ac;}.cls-5{fill:#e1e7ee;}.cls-6{fill:#243d55;}</style></defs><line class="cls-1" x1="19.775" y1="8.927" x2="19.775" y2="37.486"/><path class="cls-2" d="M20.065,1.031,35.995,8.35a1.983,1.983,0,0,1,1.155,1.8v.416a.64.64,0,0,1-.64.64H3.086a.639.639,0,0,1-.64-.64v-.416A1.984,1.984,0,0,1,3.6,8.35L19.53,1.031A.641.641,0,0,1,20.065,1.031Z"/><path class="cls-3" d="M19.933,1a.662.662,0,0,1,.132.029L36.777,8.71a.639.639,0,0,1,.373.581v1.276a.64.64,0,0,1-.64.64H31.366V8.927Z"/><polygon class="cls-3" points="20.065 1.031 25.582 8.927 25.582 11.207 19.798 11.207 19.798 8.927 20.065 1.031"/><polygon class="cls-3" points="14.014 11.207 14.014 8.927 20.065 1.031 8.23 8.927 8.23 11.207 14.014 11.207"/><path class="cls-4" d="M29.643,13.2l-2.016,1.323a.189.189,0,0,0-.012.306l1.235.957a.187.187,0,0,0,.292-.087l.781-2.281A.188.188,0,0,0,29.643,13.2Z"/><path class="cls-5" d="M25.9,26.905c-.634.457-1.061,1.622-2.74,1.856s-5.112-1.053-5.854-.468-1.639,1.873-2.615,2.108-2.107-.293-2.693.321-1.366,2.528-2.537,3.269-2.341,1.327-1.912-.546,1.6-.547,2.459-2.342.312-1.639,1.015-2.654,1.6-.663,1.561-2.771,1.639-4.215,6.361-3.317c2.378.452,3.63-.469,5.152-3.864s2.888-5.62,4.879-3.357,2.927,4.176,2.107,4.84-1.561.351-2.693-.82-1.877,2.2-.78,3.552c1.438,1.773,1.757,2.688,1.445,4.132s-.788,3.861-.209,5.453c.6,1.65.365,1.888-.252,1.763-1.009-.2-1.166-.273-1.367-1.366C26.913,30.98,27,26.113,25.9,26.905Z"/><circle class="cls-4" cx="26.282" cy="14.773" r="1.407"/><circle class="cls-4" cx="25.387" cy="16.325" r="0.894"/><circle class="cls-4" cx="24.202" cy="18.129" r="0.731"/><circle class="cls-4" cx="23.585" cy="19.271" r="0.857"/><circle class="cls-4" cx="24.202" cy="17.089" r="1.04"/><path class="cls-4" d="M14.37,22.666a2.034,2.034,0,0,0-1.876-1.281c-1.509-.1-1.724,1.443-3.955,1.9-.884.181-2.108.443-1.353.859a3.525,3.525,0,0,0,3.2.6c1.565-.613,2.458-1.8,3.232-1.566S14.37,22.666,14.37,22.666Z"/><path class="cls-6" d="M18.946,22.361a9.416,9.416,0,0,0-3.059-.141v1.539a1.206,1.206,0,0,0,1.2,1.2H21.7a1.207,1.207,0,0,0,1.2-1.2V21.616a1.167,1.167,0,0,0-.211-.639A3.369,3.369,0,0,1,18.946,22.361Z"/><rect class="cls-3" x="4.416" y="36" width="30.718" height="2.973" rx="0.991" transform="translate(39.549 74.973) rotate(-180)"/><rect class="cls-7" width="40" height="40" transform="translate(40 40) rotate(-180)"/></svg>