<?xml version="1.0" encoding="UTF-8"?><svg id="a" xmlns="http://www.w3.org/2000/svg" viewBox="0 0 40 40"><g><path d="M9.228,23.132v10.933c0,.552,.448,1,1,1H29.772c.552,0,1-.448,1-1v-10.933c-6.966-2.487-14.578-2.487-21.544,0Z" fill="#3d3d3d"/><path d="M20,7.986c-3.665,0-6.636,2.971-6.636,6.636s2.971,6.636,6.636,6.636,6.636-2.971,6.636-6.636-2.971-6.636-6.636-6.636Z" fill="#fff"/><g><path d="M32.77,5.78v.16c0-1.66-1.34-3-3-3H10.23c-1.66,0-3,1.34-3,3v-.16c0-1.57,1.27-2.85,2.84-2.85H29.93c1.57,0,2.84,1.28,2.84,2.85Z" fill="#ef4452"/><path d="M29.77,2.94H10.23c-1.66,0-3,1.34-3,3v28.13c0,1.65,1.34,3,3,3H29.77c1.66,0,3-1.35,3-3V5.94c0-1.66-1.34-3-3-3Zm1,31.13c0,.55-.45,1-1,1H10.23c-.55,0-1-.45-1-1v-10.94c3.48-1.25,7.13-1.87,10.77-1.87-3.66,0-6.64-2.97-6.64-6.64s2.98-6.63,6.64-6.63,6.64,2.97,6.64,6.63-2.98,6.64-6.64,6.64c3.64,0,7.29,.62,10.77,1.87v10.94Z" fill="#ef4452"/></g></g><rect width="40" height="40" fill="none"/></svg>