<?xml version="1.0" encoding="UTF-8"?><svg id="Layer_1" xmlns="http://www.w3.org/2000/svg" viewBox="0 0 40 40"><rect width="40" height="40" style="fill:none;"/><g><g><path d="M12.26443,17.03936c1.84338,0,1.84338,1.92139,3.68677,1.92139,1.84503,0,1.84503-1.92139,3.69006-1.92139,1.84625,0,1.84625,1.92139,3.6925,1.92139,.50708,0,.86938-.15063,1.17444-.36096l-6.71149-12.74902c-.77887-1.47949-2.89746-1.47949-3.67633,0l-6.71252,12.75098c.30408,.20935,.66534,.35901,1.17023,.35901,1.8432,0,1.8432-1.92139,3.68634-1.92139Z" style="fill:#ff9000;"/><path d="M31.67514,32.21392l-7.16693-13.61414c-.30505,.21033-.66736,.36096-1.17444,.36096-1.84625,0-1.84625-1.92139-3.6925-1.92139-1.84503,0-1.84503,1.92139-3.69006,1.92139-1.84338,0-1.84338-1.92139-3.68677-1.92139-1.84314,0-1.84314,1.92139-3.68634,1.92139-.50488,0-.86615-.14966-1.17023-.35901L.24197,32.21392c-.72821,1.3833,.2749,3.04492,1.8382,3.04492H29.83694c1.56329,0,2.56641-1.66162,1.8382-3.04492Z" style="fill:#6b7683;"/></g><path d="M31.29929,16.14585l8.45873,16.06801c.72822,1.38332-.27488,3.04499-1.83817,3.04499H17.56123l10.06172-19.11301c.77887-1.47953,2.89747-1.47953,3.67634,0Z" style="fill:#8a94a0;"/></g></svg>