<?xml version="1.0" encoding="UTF-8"?><svg id="Layer_1" xmlns="http://www.w3.org/2000/svg" viewBox="0 0 40 40"><g><path d="M37.684,30.42274l-1.11941-1.80778L21.43609,4.18268c-.81553-1.31707-2.73916-1.29424-3.5232,.04182L4.92851,26.35064l-1.56087,2.65982-1.07766,1.83641c-.61762,1.05246-.21281,2.4075,.8753,2.95989,10.7009,5.43242,23.34099,5.15907,33.71473-.40458,1.07526-.57668,1.44635-1.94208,.80399-2.97945Z" style="fill:#f77f00;"/><path d="M21.44765,4.21754c-.81553-1.31707-2.73915-1.29424-3.5232,.04181L5.4602,25.49905l-1.50564,2.56577c10.00257,5.88612,22.3793,5.59089,32.02315-.38145L21.44765,4.21754Z" style="fill:#ffad00;"/><g><path d="M37.68402,30.42285l-1.11945-1.80786-5.11377-8.25879c-.60083,.34326-1.28674,.55493-2.0282,.55493-2.27222,0-4.11426-1.84204-4.11426-4.11426,0-1.42383,.72382-2.67798,1.82294-3.4165L20.55939,2.76685c-.41748-.67432-1.40222-.66284-1.80365,.02124l-3.03027,5.16382c1.04572,.74609,1.73309,1.96265,1.73309,3.34497,0,2.27222-1.84204,4.11426-4.11432,4.11426-.63123,0-1.22229-.15356-1.75684-.40771l-6.65887,11.34717-1.56091,2.65991-1.07764,1.83643c-.61768,1.05249-.21283,2.40747,.87531,2.95972,10.70087,5.43262,23.34094,5.15918,33.71466-.4043,1.07526-.5769,1.44641-1.94238,.80408-2.97949Zm-19.25592-4.34058c-2.27228,0-4.11432-1.84204-4.11432-4.11426s1.84204-4.11426,4.11432-4.11426,4.11426,1.84204,4.11426,4.11426-1.84204,4.11426-4.11426,4.11426Z" style="fill:none;"/><path d="M17.45856,11.29687c0-1.38232-.68738-2.59888-1.73309-3.34497l-4.13806,7.05151c.53455,.25415,1.12561,.40771,1.75684,.40771,2.27228,0,4.11432-1.84204,4.11432-4.11426Z" style="fill:#ef4452;"/><path d="M25.30835,16.79687c0,2.27222,1.84204,4.11426,4.11426,4.11426,.74146,0,1.42737-.21167,2.0282-.55493l-4.31952-6.97583c-1.09912,.73853-1.82294,1.99268-1.82294,3.4165Z" style="fill:#ef4452;"/><path d="M18.4281,17.85376c-2.27228,0-4.11432,1.84204-4.11432,4.11426s1.84204,4.11426,4.11432,4.11426,4.11426-1.84204,4.11426-4.11426-1.84204-4.11426-4.11426-4.11426Z" style="fill:#ef4452;"/></g><rect x="26.56069" y="24.81196" width="3.46176" height="3.46176" rx=".74385" ry=".74385" transform="translate(-8.92221 15.58519) rotate(-26.76626)" style="fill:#036d50;"/><rect x="21.03246" y="11.0772" width="2.76941" height="2.76941" rx=".59508" ry=".59508" transform="translate(36.82011 33.68413) rotate(-153.23374)" style="fill:#299c50;"/><rect x="9.47465" y="22.78233" width="2.76941" height="2.76941" rx=".59508" ry=".59508" transform="translate(23.06466 47.68301) rotate(176.76626)" style="fill:#45aa1f;"/></g><rect width="40" height="40" style="fill:none;"/></svg>