<?xml version="1.0" encoding="UTF-8"?><svg id="Layer_1" xmlns="http://www.w3.org/2000/svg" viewBox="0 0 40 40"><g><polygon points="15.34731 25.66032 26.85859 22.51614 21.70369 17.62811 16.87261 19.88989 15.34731 25.66032" style="fill:#8f6150;"/><path d="M12.67523,16.87635l4.24397-8.32741c.63655-1.30749,1.34968-2.17695,2.62951-2.00697l11.57259,1.98853,5.19015,1.94737c.5708,.19684,.83597,.85282,.56215,1.39106-.2035,.39995-.64984,.61405-1.08926,.52254l-2.48834-.53091c-.45544-.06589-1.24501-.31253-1.00914,.08266,.36148,.60549,.42012,.98047-.26851,1.13254l-.00222,.00044c-.38557,.08501-.78591-.05691-1.03166-.36592l-2.38647-1.87458-6.93269,.14881-5.2092,13.56645-13.43822,.12949v-3.02131s9.63472-4.67104,9.65733-4.7828Z" style="fill:#c3846c;"/><g><circle cx="26.53466" cy="18.68166" r="5.86928" style="fill:#c3846c;"/><circle cx="23.78506" cy="14.92154" r="2.16979" style="fill:#c3846c;"/><path d="M27.05083,16.35434c.34088,.5924,.32038,1.2792,.00046,1.75152-.08395,.12395-.10024,.27205-.03286,.38915h0c.06738,.11709,.20361,.17744,.35296,.16714,.56913-.03924,1.17322,.28818,1.51409,.88056,.45427,.78946,.26859,1.74818-.41473,2.14138-.68332,.39319-1.60551,.07197-2.05978-.7175-.34071-.59212-.3204-1.27856-.0009-1.75087,.08395-.1241,.10024-.27232,.0328-.38952h0c-.06744-.1172-.20377-.1776-.35325-.16738-.5689,.03889-1.17259-.28849-1.5133-.8806-.45426-.78945-.26859-1.74818,.41473-2.14138,.68332-.39319,1.60552-.07195,2.05978,.7175Z" style="fill:#5a75ff;"/><path d="M24.88129,13.04917c.56389-.16538,1.16212-.24884,1.78092-.23539,3.24072,.07044,5.81077,2.75468,5.74033,5.99543-.03139,1.44417-.58278,2.75426-1.47024,3.75773-1.72361-6.2407-6.03091-9.50256-6.05101-9.51777Z" style="fill:#482ec5;"/><circle cx="23.66195" cy="20.58557" r=".62823" style="fill:#ef4452;"/></g><path d="M19.4956,16.63514s-6.50484,5.67088-11.17767,2.38682l-5.30004,2.30581v3.20822h13.43822l3.03949-7.90085Z" style="fill:#482ec5;"/><path d="M36.24727,33.30582H3.01789v-9.81348c19.20197,3.55448,28.30298-6.856,33.22937,0v9.81348Z" style="fill:#93c9ff;"/></g><rect width="40" height="40" style="fill:none;"/></svg>