<?xml version="1.0" encoding="UTF-8"?><svg id="Layer_1" xmlns="http://www.w3.org/2000/svg" viewBox="0 0 40 40"><path d="M20.00001,19.91019c-.09357-.04925-7.7328-7.28496-8.17681-12.74315-.20673-2.54102,1.09704-4.23812,3.00652-4.41723s2.75162,.3914,5.17028,.3914c2.41866,0,3.2608-.57052,5.17028-.3914s3.21325,1.87621,3.00652,4.41723c-.44401,5.45819-8.08323,12.6939-8.17681,12.74315" style="fill:#fdaeb3;"/><path d="M20,19.91018c-.07576,.07378-9.31798,5.10315-14.64623,3.83876-2.48054-.58861-3.69169-2.353-3.27197-4.22437s1.22255-2.496,1.96995-4.79628c.74741-2.30028,.46505-3.2775,1.22546-5.03818s2.77733-2.4762,5.13011-1.49437c5.05384,2.10895,9.57476,11.61024,9.59268,11.71446" style="fill:#fdaeb3;"/><path d="M19.99998,19.91018c.04676,.09485,1.97397,10.43888-.87506,15.11563-1.32633,2.17724-3.37863,2.78389-5.02871,1.80643-1.65009-.97746-1.99605-1.93402-3.95278-3.35567-1.95673-1.42165-2.97338-1.45509-4.4129-2.72236-1.43952-1.26727-1.49677-3.40659,.16406-5.34081,3.56746-4.15478,14.00076-5.51838,14.10541-5.50322" style="fill:#fdaeb3;"/><path d="M19.99998,19.9102c.10465-.01516,10.53796,1.34843,14.10541,5.50322,1.66082,1.93422,1.60358,4.07354,.16406,5.34081s-2.45617,1.30071-4.4129,2.72236c-1.95673,1.42165-2.3027,2.37821-3.95278,3.35567s-3.70238,.37082-5.02871-1.80643c-2.84903-4.67675-.92181-15.02079-.87506-15.11563" style="fill:#fdaeb3;"/><path d="M20,19.9102c.01792-.10421,4.53884-9.6055,9.59268-11.71446,2.35277-.98183,4.3697-.2663,5.13011,1.49437s.47805,2.7379,1.22546,5.03818c.74741,2.30028,1.55024,2.9249,1.96995,4.79628s-.79143,3.63576-3.27197,4.22437c-5.32825,1.26439-14.57047-3.76498-14.64623-3.83876" style="fill:#fdaeb3;"/><g><path d="M19.95565,20.11841c-.03087,.0195-2.55082,2.50327-2.69728,4.66386-.06819,1.00585,.34976,1.64372,.81975,2.03823,.5637,.47316,3.19137,.47316,3.75507,0,.46999-.39451,.88794-1.03238,.81975-2.03823-.14647-2.16059-2.66642-4.64437-2.69728-4.66386" style="fill:#f56570;"/><path d="M20.86415,19.67866c.009,.03538,1.5925,3.19953,3.60209,4.00648,.93555,.37568,1.67135,.1753,2.19179-.14978,.6242-.3899,1.43619-2.88896,1.16038-3.57129-.22996-.5689-.70746-1.16351-1.68515-1.40947-2.10011-.52836-5.24102,1.10073-5.2691,1.12406" style="fill:#f56570;"/><path d="M20.73595,19.1028c.03643,.00237,3.53504-.52585,4.9235-2.18772,.64639-.77367,.6832-1.53538,.53485-2.1308-.17792-.71413-2.30376-2.25864-3.03792-2.20718-.61212,.04291-1.32518,.31329-1.86123,1.16712-1.15147,1.83405-.57271,5.32465-.5592,5.35857" style="fill:#f56570;"/><path d="M19.40757,19.02735c.01351-.03392,.59227-3.52452-.5592-5.35857-.53605-.85383-1.24911-1.12422-1.86123-1.16712-.73416-.05146-2.85999,1.49304-3.03792,2.20718-.14835,.59542-.11154,1.35713,.53485,2.1308,1.38846,1.66186,4.88707,2.19009,4.9235,2.18772" style="fill:#f56570;"/><path d="M19.13585,19.55657c-.02808-.02333-3.169-1.65242-5.2691-1.12406-.97769,.24597-1.45519,.84058-1.68515,1.40947-.27581,.68233,.53618,3.18139,1.16038,3.57129,.52043,.32508,1.25624,.52546,2.19179,.14978,2.00958-.80696,3.59309-3.9711,3.60209-4.00648" style="fill:#f56570;"/></g><rect y="0" width="40" height="40" style="fill:none;"/><path d="M20.08984,20.41016c-.27637,0-.5-.22363-.5-.5V8.87988c0-.27637,.22363-.5,.5-.5s.5,.22363,.5,.5v11.03027c0,.27637-.22363,.5-.5,.5Z" style="fill:#e32939;"/><path d="M20.08984,11.11035c-.6626,0-1.2002-.53711-1.2002-1.2002v-3.03027c0-.66309,.5376-1.2002,1.2002-1.2002s1.2002,.53711,1.2002,1.2002v3.03027c0,.66309-.5376,1.2002-1.2002,1.2002Z" style="fill:#ffe63b;"/><circle cx="20.08963" cy="19.91019" r="1.46097" style="fill:#e32939;"/></svg>