<?xml version="1.0" encoding="UTF-8"?><svg id="Layer_1" xmlns="http://www.w3.org/2000/svg" viewBox="0 0 40 40"><g><path d="M5.32378,24.95623c4.28471-2.14467,7.45498-5.89849,9.75607-10.90736,.01662-.03617,.03217-.07427,.04584-.11165,2.06875-5.65652,5.69577-9.46103,10.85949-11.43911,.57738-.22118,1.23387-.06046,1.67107,.37674l8.31543,8.31544c.76861,.76862,.5745,2.08815-.407,2.55527-4.58634,2.18277-7.7825,5.86195-9.70885,10.90799-.01666,.04363-.03562,.08789-.05604,.12989-2.50925,5.16134-6.12671,8.88792-10.779,11.27476-.60654,.31118-1.34876,.1734-1.83081-.30865L4.93823,27.49779c-.76106-.76106-.57691-2.05981,.38555-2.54156Z" style="fill:#ffb72d;"/><path d="M5.46147,30.74232h2.25885v6.5181c0,.62334-.50608,1.12942-1.12942,1.12942h0c-.62334,0-1.12942-.50608-1.12942-1.12942v-6.5181h0Z" transform="translate(26.37237 5.46372) rotate(45.00006)" style="fill:#956759;"/></g><rect width="40" height="40" style="fill:none;"/></svg>