<?xml version="1.0" encoding="UTF-8"?><svg id="Layer_1" xmlns="http://www.w3.org/2000/svg" viewBox="0 0 40 40"><g><path d="m3.621,13.95v12.1c0,2.108,1.125,4.056,2.95,5.11l10.478,6.05c1.826,1.054,4.075,1.054,5.9,0l10.478-6.05c1.826-1.054,2.95-3.002,2.95-5.11v-12.1c0-2.108-1.125-4.056-2.95-5.11l-10.478-6.05c-1.826-1.054-4.075-1.054-5.9,0l-10.478,6.05c-1.826,1.054-2.95,3.002-2.95,5.11Z" fill="#e5e5e5"/><path d="m22.083,8.88c-1.262-.729-3.31-.729-4.563,0-1.254.729-1.247,1.915.015,2.643,1.262.729,3.31.729,4.563,0,1.254-.729,1.247-1.915-.015-2.643" fill="#e32939"/><g isolation="isolate"><path d="m25.101,28.695c-.841.486-1.524,1.668-1.521,2.635s.69,1.358,1.531.873,1.524-1.668,1.521-2.635-.69-1.358-1.531-.873" fill="#3d3d3d"/></g><g isolation="isolate"><path d="m28.538,23.322c-.846.488-1.524,1.663-1.521,2.635.003.967.685,1.356,1.531.867.841-.486,1.519-1.66,1.517-2.627-.003-.972-.685-1.361-1.527-.875" fill="#3d3d3d"/></g><g isolation="isolate"><path d="m31.971,17.947c-.841.486-1.524,1.668-1.521,2.635s.69,1.358,1.531.873,1.524-1.668,1.521-2.635-.69-1.358-1.531-.873" fill="#3d3d3d"/></g><g isolation="isolate"><path d="m13.523,27.819c.841.486,1.524,1.668,1.521,2.635s-.69,1.358-1.531.873c-.841-.486-1.524-1.668-1.521-2.635s.69-1.358,1.531-.873" fill="#3d3d3d"/></g><g isolation="isolate"><path d="m8.406,18.823c.841.486,1.524,1.668,1.521,2.635s-.69,1.358-1.531.873-1.524-1.668-1.521-2.635.69-1.358,1.531-.873" fill="#3d3d3d"/></g></g><rect y="0" width="40" height="40" fill="none"/></svg>