<?xml version="1.0" encoding="UTF-8"?><svg id="Layer_1" xmlns="http://www.w3.org/2000/svg" viewBox="0 0 40 40"><rect y="0" width="40" height="40" style="fill:none;"/><path d="M16.61012,33.28964c.18596-.71126,1.67526-2.48543,2.42184-3.34304,.17544-.20153,.50399-.11563,.55834,.14598,.23129,1.11326,.66167,3.38933,.47571,4.10059-.2495,.95432-1.2254,1.52568-2.17971,1.27618-.95432-.2495-1.52568-1.2254-1.27618-2.17971Z" style="fill:#88c5ff;"/><path d="M24.64519,33.28964c.18596-.71126,1.67526-2.48543,2.42184-3.34304,.17544-.20153,.50399-.11563,.55834,.14598,.23129,1.11326,.66167,3.38933,.47571,4.10059-.2495,.95432-1.2254,1.52568-2.17971,1.27618-.95432-.2495-1.52568-1.2254-1.27618-2.17971Z" style="fill:#88c5ff;"/><path d="M8.57505,33.28964c.18596-.71126,1.67526-2.48543,2.42184-3.34304,.17544-.20153,.50399-.11563,.55834,.14598,.23129,1.11326,.66167,3.38933,.47571,4.10059-.2495,.95432-1.2254,1.52568-2.17971,1.27618-.95432-.2495-1.52568-1.2254-1.27618-2.17971Z" style="fill:#88c5ff;"/><g><polygon points="30.42985 27.28162 9.35562 27.28162 9.35562 16.36422 30.14987 17.7667 30.42985 27.28162" style="fill:#e5e8eb;"/><circle cx="22.733" cy="12.00423" r="8.70729" style="fill:#e5e8eb;"/><circle cx="30.1165" cy="19.89811" r="7.3835" style="fill:#e5e8eb;"/><circle cx="9.35562" cy="20.426" r="6.85562" style="fill:#e5e8eb;"/><circle cx="14.0257" cy="13.26621" r="5.61162" style="fill:#e5e8eb;"/></g></svg>