<svg id="Layer_1" data-name="Layer 1" xmlns="http://www.w3.org/2000/svg" xmlns:xlink="http://www.w3.org/1999/xlink" viewBox="0 0 40 40"><defs><style>.cls-1{fill:none;}.cls-2{fill:#f77f00;}.cls-3{fill:#ffad00;}.cls-4{clip-path:url(#clip-path);}.cls-5{fill:#ef4452;}.cls-6{fill:#036d50;}.cls-7{fill:#299c50;}.cls-8{fill:#45aa1f;}</style><clipPath id="clip-path"><path class="cls-1" d="M37.684,30.423l-1.119-1.808L20.559,2.767a1.053,1.053,0,0,0-1.8.021L4.929,26.351,3.368,29.01,2.29,30.847a2.12,2.12,0,0,0,.875,2.96A36.515,36.515,0,0,0,36.88,33.4,2.119,2.119,0,0,0,37.684,30.423Z"/></clipPath></defs><path class="cls-2" d="M37.684,30.423l-1.119-1.808L21.436,4.183a2.057,2.057,0,0,0-3.523.041L4.929,26.351,3.368,29.01,2.29,30.847a2.12,2.12,0,0,0,.875,2.96A36.515,36.515,0,0,0,36.88,33.4,2.118,2.118,0,0,0,37.684,30.423Z"/><path class="cls-3" d="M21.448,4.218a2.057,2.057,0,0,0-3.524.041L5.46,25.5l-1.5,2.566a31.043,31.043,0,0,0,32.023-.382Z"/><g class="cls-4"><circle class="cls-5" cx="13.344" cy="11.297" r="4.114"/><circle class="cls-5" cx="29.423" cy="16.797" r="4.114"/><circle class="cls-5" cx="18.428" cy="21.968" r="4.114"/></g><rect class="cls-6" x="26.561" y="24.812" width="3.462" height="3.462" rx="0.744" transform="translate(-8.922 15.585) rotate(-26.766)"/><rect class="cls-7" x="21.032" y="11.077" width="2.769" height="2.769" rx="0.595" transform="translate(36.82 33.684) rotate(-153.234)"/><rect class="cls-8" x="9.475" y="22.782" width="2.769" height="2.769" rx="0.595" transform="translate(23.065 47.683) rotate(176.766)"/><rect class="cls-1" width="40" height="40"/></svg>