<?xml version="1.0" encoding="UTF-8"?><svg id="Layer_1" xmlns="http://www.w3.org/2000/svg" viewBox="0 0 40 40"><rect width="40" height="40" fill="none"/><g><path d="m4.961,18.892s0,0,0,0c.092,1.679,1.004,3.234,2.496,4.547-.105-.383-.175-.773-.175-1.173,0-2.097,1.506-3.986,3.915-5.333.363-.394.824-.704,1.378-.852.095-.025.191-.031.286-.046.261-1.34,1.252-2.483,2.654-2.859,1.63-.437,3.283.31,4.098,1.702.13-.002.257-.011.388-.011,7.024,0,12.719,3.313,12.719,7.4,0,.4-.07.79-.175,1.173,1.491-1.313,2.404-2.868,2.496-4.547,0,0,0,0,0,0,.005-.094.024-.186.024-.281,0-1.478-.635-2.868-1.745-4.089-2.526-2.779-7.539-4.675-13.319-4.675s-10.793,1.896-13.319,4.675c-1.11,1.221-1.745,2.612-1.745,4.089,0,.095.019.187.024.281Z" fill="#3d3d3d"/><path d="m32.719,22.266c0-4.087-5.694-7.4-12.719-7.4-.131,0-.258.009-.388.011.165.281.307.579.395.91.003.012.005.024.008.036.112-.045.221-.097.341-.129,1.619-.434,3.282.533,3.714,2.159.003.011.006.023.009.035.148.623-.347,1.219-.985,1.219h-11.503c-.71,0-1.224-.731-.935-1.382.131-.294.322-.555.541-.793-2.409,1.346-3.915,3.236-3.915,5.333,0,.4.07.79.175,1.173,2.692,2.369,7.295,3.936,12.544,3.936s9.852-1.567,12.544-3.936c.105-.383.175-.773.175-1.173Zm-20.383-.012c.315-.771,1.07-1.313,1.951-1.313s1.636.542,1.951,1.313c.158.385-.156.805-.571.805h-2.761c-.415,0-.729-.42-.571-.805Zm12.084,2.639h-5.119c-.72,0-1.198-.735-.931-1.405.555-1.389,1.908-2.371,3.49-2.371s2.935.981,3.49,2.371c.268.671-.211,1.405-.931,1.405Zm1.555-4.661c-.415,0-.729-.42-.571-.805.315-.771,1.07-1.313,1.951-1.313s1.636.542,1.951,1.313c.158.385-.156.805-.571.805h-2.761Z" fill="#ffad00"/><path d="m11.59,19.108h11.503c.638,0,1.133-.596.985-1.219-.003-.012-.006-.024-.009-.035-.432-1.626-2.095-2.593-3.714-2.159-.12.032-.228.084-.341.129-.003-.012-.004-.024-.008-.036-.088-.331-.231-.629-.395-.91-.815-1.392-2.468-2.139-4.098-1.702-1.402.376-2.393,1.519-2.654,2.859-.096.016-.191.021-.286.046-.554.149-1.015.459-1.378.852-.219.238-.411.498-.541.793-.289.651.225,1.382.935,1.382Z" fill="#037f56"/><g><path d="m29.307,19.427c-.315-.771-1.07-1.313-1.951-1.313s-1.636.542-1.951,1.313c-.158.385.156.805.571.805h2.761c.415,0,.729-.42.571-.805Z" fill="#f77f00"/><path d="m16.239,22.254c-.315-.771-1.07-1.313-1.951-1.313s-1.636.542-1.951,1.313c-.158.385.156.805.571.805h2.761c.415,0,.729-.42.571-.805Z" fill="#f77f00"/></g><g><path d="m38.5,18.611c0-2.258-1.823-4.089-4.071-4.089h-1.11c1.11,1.221,1.745,2.612,1.745,4.089,0,.095-.019.187-.024.281.015-.039.024-.063.024-.063v3.808c1.945-.308,3.436-1.985,3.436-4.025Z" fill="#c50010"/><path d="m4.961,18.892c-.005-.094-.024-.186-.024-.281,0-1.478.635-2.868,1.745-4.089h-1.11c-2.248,0-4.071,1.831-4.071,4.089,0,2.04,1.491,3.717,3.436,4.025v-3.808s.009.025.024.063Z" fill="#c50010"/><path d="m25.351,23.488c-.555-1.389-1.908-2.371-3.49-2.371s-2.935.981-3.49,2.371c-.268.671.211,1.405.931,1.405h5.119c.72,0,1.198-.735.931-1.405Z" fill="#c50010"/><path d="m35.039,18.892s0,0,0,0c-.092,1.679-1.004,3.234-2.496,4.547-2.692,2.369-7.295,3.936-12.544,3.936s-9.852-1.567-12.544-3.936c-1.491-1.313-2.404-2.868-2.496-4.547,0,0,0,0,0,0-.015-.039-.024-.063-.024-.063v3.878c0,8.356,6.744,15.131,15.064,15.131s15.064-6.774,15.064-15.131v-3.878s-.009.025-.024.063Z" fill="#c50010"/></g><g><path d="m25.79,8.97c-.94.17-1.84-.2-2.42-.88-.21.09-.43.16-.66.2-1.67.29-3.26-.84-3.55-2.52-.29-1.68.83-3.27,2.5-3.56,1.35-.23,2.63.46,3.23,1.61h.01c1.42-.25,2.77.71,3.01,2.13.25,1.42-.71,2.78-2.12,3.02Z" fill="#d5d5d5"/><path d="m14.259,8.912c1.219,0,2.207-.992,2.207-2.217s-.988-2.217-2.207-2.217-2.207.992-2.207,2.217.988,2.217,2.207,2.217Z" fill="#d5d5d5"/></g></g></svg>