<svg id="Layer_1" data-name="Layer 1" xmlns="http://www.w3.org/2000/svg" viewBox="0 0 40 40"><defs><style>.cls-1{fill:#ef4452;}.cls-2{fill:#e5e5e5;}.cls-3,.cls-6{fill:none;}.cls-3{stroke:#243d55;stroke-linecap:round;stroke-linejoin:round;stroke-width:1.5px;}.cls-4{fill:#3d3d3d;}.cls-5{fill:#a41926;}.cls-6{opacity:0;}</style></defs><circle class="cls-1" cx="18.441" cy="21.683" r="15.941"/><circle class="cls-2" cx="18.441" cy="21.683" r="11.955"/><circle class="cls-1" cx="18.441" cy="21.683" r="7.97"/><circle class="cls-2" cx="18.441" cy="21.683" r="3.985"/><line class="cls-3" x1="37.059" y1="2.759" x2="18.441" y2="21.608"/><path class="cls-4" d="M20.574,19.449s-1.809-2.253-.18-3.9S31.5,6.814,31.5,6.814l-.533,2.111Z"/><path class="cls-4" d="M20.574,19.449s2.275,1.781,3.9.132S33.073,8.365,33.073,8.365l-2.1.56Z"/><path class="cls-5" d="M29.1,10.819s-2.727-5.408,1.074-9.256,5.209,2.9,5.209,2.9Z"/><path class="cls-1" d="M29.1,10.819s5.441,2.66,9.242-1.189-2.959-5.172-2.959-5.172Z"/><rect class="cls-6" width="40" height="40"/></svg>