<?xml version="1.0" encoding="UTF-8"?><svg id="Layer_1" xmlns="http://www.w3.org/2000/svg" viewBox="0 0 40 40"><path d="M21.61498,4.59006c-.30917-.20927-.6121-.42808-.92061-.63307-.49079-.32618-1.01195-.29711-1.5229,.06392-.6565,.46385-1.22034,1.04451-2.12707,1.14108-.49553,.0528-.95352,.52004-.97702,1.16551-.02306,.63182,.44161,.94935,.88836,1.18213,.34395,.17921,.76316,.07344,.87845-.41122,.1021-.42916,.33988-.71525,.74895-.86072,.36669-.1304,.50412-.4505,.676-.76088,.37341-.67422,.96336-.74039,1.51467-.20927,.40022,.38551,.93214,.79934,.61427,1.38481-.31714,.58409-.73286,1.16138-1.58622,1.17717-.67604,.01251-1.08989,.641-1.6217,.98703-.66363,.43177-1.11828,.43841-1.77077,.0063-.63083-.41776-1.15093-1.04276-1.97814-1.12929-.30072-.03146-.4924-.23774-.56435-.53104-.10555-.43017-.29742-.78698-.80749-.6756-.51933,.1134-.87977,.48866-1.01401,.98703-.14629,.54294,.24486,.73974,.69977,.86017,.369,.09766,.48789,.37646,.48146,.74768-.00602,.34843-.14735,.59469-.47562,.6758-.63667,.15732-.94202,.50586-.61019,1.13295,.37179,.70263,1.2185,.9618,1.77184,.58428,.43063-.29376,.83357-.62804,1.25846-.93065,.50372-.35879,1.05176-.39192,1.52158,.00387,.3838,.32333,.84326,.51931,1.21336,.86989,.46581,.4413,1.0857,.26592,1.30048-.33216,.13898-.38692,.29151-.66956,.76591-.67224,.46328-.00263,.68776,.22714,.7773,.64635,.12891,.60372,.59502,.58055,1.05518,.5771,.74505-.0056,1.5117-.1073,2.04094,.63155,.20053,.27994,.31769,.55996,.30039,.9005-.02879,.56632-.44752,.90891-.89747,.59199-1.14476-.80631-2.407-.48605-3.62749-.52597-.8938-.02924-1.74543-.01425-1.86028-1.20749-.01682-.17468-.11532-.25652-.30594-.2305-1.02984,.14054-2.16604-.13312-2.9841,.81162-.57456,.6635-1.35385,.63527-2.13856,.62069-.98415-.01827-1.56716,.43195-1.7458,1.41316-.08881,.48778-.40297,.83388-.67358,1.13882-.58044,.65413-.54757,1.3889-.61665,2.1637-.11011,1.23441,.40764,2.09212,1.31991,2.83585,.54874,.44736,1.18053,.33481,1.77746,.40117,.66642,.0741,1.34731,.01647,2.02192,.01798,1.60477,.00354,2.84222,1.20997,2.89162,2.83271,.01829,.60084,.04988,1.20644-.00217,1.80308-.08058,.92393,.10912,1.7534,.76529,2.41176,.54786,.54963,.67971,1.19186,.59183,1.91409-.09281,.76288,.08161,1.48801,.81105,1.75671,.72011,.26525,1.53183,.19047,2.23527-.22782,1.43332-.85222,2.38038-1.99575,2.32602-3.7919-.01858-.61465,.62455-.92735,.88396-1.43336,.15778-.30774,.46585-.56478,.42769-.93578-.11492-1.11782,.25676-2.11658,.72614-3.08439,.31303-.64556,.72188-1.24695,1.23092-1.75305,.40051-.3982,.33741-.63656-.10353-.93339-.47187-.31766-.91565-.67206-1.31873-1.09154-.60376-.62833-.53813-1.36174-.47371-2.10971,.01374-.15945,.0808-.37442,.29555-.38176,.20641-.00707,.29746,.18736,.34145,.34889,.15815,.58073,.68974,.96404,.77263,1.60223,.04932,.37983,.42391,.3676,.72819,.23293,.75703-.3351,1.27374-.94623,1.67903-1.63031,.16553-.27944,.1811-.66807-.21691-.92083-.24446-.15525-.4209-.4143-.64692-.60384-.21217-.17787-.39295-.35736-.14478-.6137,.24394-.25201,.44481-.06486,.63946,.11031,.71975,.64769,1.51644,1.08054,2.52593,1.11782,.82295,.03037,2.09096,1.40765,2.09398,2.23995,.00228,.62593,.18511,1.12057,.67784,1.50549,.33275,.26001,.55547,.18536,.65683-.2108,.26862-1.04956,.88473-1.86931,1.67686-2.5702,.18863-.16689,.40914-.33205,.65364-.32948-1.26886-6.16541-5.78207-11.14289-11.6752-13.0791-.02115,.06264-.04547,.12366-.07088,.17688-.67083,1.40725-2.5058,1.89989-3.77903,1.03814Z" style="fill:#7bd58f;"/><rect width="40" height="40" style="fill:none;"/><path d="M2.49998,20c0,9.66498,7.83506,17.5,17.50002,17.5s17.50002-7.83502,17.50002-17.5c0-1.21491-.12425-2.4007-.35993-3.54585-.24449-.00257-.46501,.16259-.65364,.32948-.79214,.70089-1.40824,1.52064-1.67686,2.5702-.10137,.39616-.32408,.47081-.65683,.2108-.49273-.38492-.67556-.87957-.67784-1.50549-.00301-.8323-1.27103-2.20958-2.09398-2.23995-1.00949-.03728-1.80618-.47013-2.52593-1.11782-.19466-.17517-.39552-.36232-.63946-.11031-.24817,.25634-.06739,.43583,.14478,.6137,.22602,.18953,.40246,.44859,.64692,.60384,.39801,.25276,.38244,.64139,.21691,.92083-.40529,.68408-.922,1.29521-1.67903,1.63031-.30429,.13468-.67887,.14691-.72819-.23293-.08289-.63819-.61449-1.0215-.77263-1.60223-.044-.16153-.13505-.35596-.34145-.34889-.21475,.00735-.28181,.22231-.29555,.38176-.06442,.74797-.13005,1.48138,.47371,2.10971,.40308,.41948,.84686,.77388,1.31873,1.09154,.44095,.29683,.50405,.53519,.10353,.93339-.50904,.5061-.91789,1.1075-1.23092,1.75305-.46938,.9678-.84106,1.96657-.72614,3.08439,.03816,.371-.26991,.62804-.42769,.93578-.25941,.50601-.90254,.81871-.88396,1.43336,.05436,1.79615-.8927,2.93968-2.32602,3.7919-.70344,.41829-1.51515,.49307-2.23527,.22782-.72944-.2687-.90386-.99383-.81105-1.75671,.08789-.72223-.04396-1.36446-.59183-1.91409-.65617-.65836-.84587-1.48783-.76529-2.41176,.05204-.59664,.02046-1.20223,.00217-1.80308-.0494-1.62275-1.28685-2.82917-2.89162-2.83271-.67461-.00151-1.3555,.05612-2.02192-.01798-.59693-.06637-1.22872,.04618-1.77746-.40117-.91227-.74373-1.43002-1.60144-1.31991-2.83585,.06908-.7748,.03621-1.50957,.61665-2.1637,.27061-.30495,.58477-.65105,.67358-1.13882,.17864-.98121,.76165-1.43143,1.7458-1.41316,.78472,.01458,1.564,.04281,2.13856-.62069,.81807-.94474,1.95426-.67108,2.9841-.81162,.19062-.02602,.28912,.05583,.30594,.2305,.11485,1.19324,.96648,1.17825,1.86028,1.20749,1.22049,.03992,2.48274-.28034,3.62749,.52597,.44995,.31692,.86868-.02567,.89747-.59199,.0173-.34054-.09986-.62056-.30039-.9005-.52924-.73885-1.29589-.63715-2.04094-.63155-.46016,.00345-.92627,.02663-1.05518-.5771-.08954-.41921-.31402-.64897-.7773-.64635-.47441,.00268-.62694,.28532-.76591,.67224-.21478,.59809-.83467,.77346-1.30048,.33216-.3701-.35058-.82956-.54656-1.21336-.86989-.46982-.39579-1.01786-.36266-1.52158-.00387-.4249,.30262-.82784,.63689-1.25846,.93065-.55334,.37752-1.40005,.11835-1.77184-.58428-.33183-.62708-.02648-.97563,.61019-1.13295,.32827-.08111,.4696-.32737,.47562-.6758,.00643-.37122-.11246-.65002-.48146-.74768-.45491-.12043-.84605-.31723-.69977-.86017,.13424-.49837,.49468-.87363,1.01401-.98703,.51007-.11138,.70193,.24543,.80749,.6756,.07195,.29331,.26363,.49958,.56435,.53104,.82721,.08653,1.34731,.71154,1.97814,1.12929,.6525,.43212,1.10715,.42547,1.77077-.0063,.53181-.34603,.94566-.97452,1.6217-.98703,.85336-.01579,1.26908-.59307,1.58622-1.17717,.31788-.58547-.21405-.9993-.61427-1.38481-.55131-.53111-1.14127-.46495-1.51467,.20927-.17188,.31038-.30932,.63048-.676,.76088-.40907,.14548-.64684,.43157-.74895,.86072-.11529,.48465-.53449,.59043-.87845,.41122-.44675-.23278-.91143-.5503-.88836-1.18213,.02351-.64547,.4815-1.11271,.97702-1.16551,.90673-.09657,1.47057-.67723,2.12707-1.14108,.51095-.36103,1.03211-.3901,1.5229-.06392,.30851,.20499,.61144,.4238,.92061,.63307,1.27323,.86175,3.1082,.36911,3.77903-1.03814,.02542-.05322,.04973-.11424,.07088-.17688-1.72002-.56512-3.5558-.87505-5.46489-.87505C10.33504,2.5,2.49998,10.33502,2.49998,20Zm24.35717,7.85228c.09645-.3313-.26796-1.01129,.61232-.97082,.29474,.01355,.474,.11055,.47848,.42729,.00529,.37159,.0108,.74318,.01359,1.11477,.00279,.37007-.02251,.68118-.53872,.68535-.49747,.00402-.57702-.26482-.56648-.65775,.00466-.17333,.00081-.34691,.00081-.59884Z" style="fill:#2f81f9;"/><path d="M27.42283,29.10887c.5162-.00417,.54151-.31529,.53872-.68535-.00279-.37159-.0083-.74318-.01359-1.11477-.00448-.31674-.18375-.41373-.47848-.42729-.88028-.04047-.51587,.63952-.61232,.97082,0,.25193,.00386,.42551-.00081,.59884-.01054,.39293,.06901,.66177,.56648,.65775Z" style="fill:#7bd58f;"/></svg>