<?xml version="1.0" encoding="UTF-8"?><svg id="Layer_1" xmlns="http://www.w3.org/2000/svg" viewBox="0 0 40 40"><path d="m20,32.596c-8.149,0-14.899-3.429-16.226-7.93-.026.217-.057.433-.057.654,0,.042.01.082.011.123.115,5.152,7.351,9.309,16.272,9.309s16.157-4.157,16.272-9.309c0-.041.011-.081.011-.123,0-.221-.031-.437-.057-.654-1.327,4.501-8.077,7.93-16.226,7.93Z" fill="#179614"/><path d="m35.847,23.544l-14.084,7.608c-1.078.582-2.377.582-3.455,0l-14.156-7.647c-.255-.138-.454-.321-.626-.521,0,.023-.006.044-.006.067,0,.552.098,1.089.253,1.615,1.327,4.501,8.077,7.93,16.226,7.93s14.899-3.429,16.226-7.93c.155-.526.253-1.063.253-1.615,0-.01-.003-.021-.003-.031-.173.201-.372.385-.629.524Z" fill="#6e452c"/><path d="m35.732,19.532l-.083-.039c-1.62,4.915-8.005,8.047-15.649,8.047s-14.062-3.147-15.662-8.082l-.1.049c-1.384.674-1.624,2.419-.711,3.477.172.199.371.383.626.521l14.156,7.647c1.078.582,2.377.582,3.455,0l14.084-7.608c.257-.139.457-.323.629-.524.917-1.067.662-2.829-.744-3.488Z" fill="#ffd16b"/><path d="m20,27.54c7.645,0,14.03-3.133,15.649-8.047.043-.131.085-.262.121-.395-2.71,3.484-8.745,5.914-15.77,5.914s-13.06-2.429-15.77-5.914c.033.122.069.241.108.361,1.601,4.935,7.999,8.082,15.662,8.082Z" fill="#ed0000"/><g><path d="m20,34.751c-8.921,0-16.157-4.157-16.272-9.309-.123.565-.207,1.143-.207,1.747,0,6.49,7.378,10.811,16.479,10.811s16.479-4.32,16.479-10.811c0-.604-.084-1.182-.207-1.747-.115,5.152-7.351,9.309-16.272,9.309Z" fill="#ff9e26"/><path d="m20,25.011c7.025,0,13.06-2.429,15.77-5.914.976-1.255,1.533-2.643,1.533-4.109,0-5.535-6.291-12.989-17.303-12.989S2.697,9.453,2.697,14.989c0,1.466.556,2.854,1.533,4.109,2.71,3.484,8.745,5.914,15.77,5.914Zm6.917-17.438c.248-.299.692-.34.99-.092.299.248.34.692.092.99-.158.19-.721.422-1.109.565-.176.065-.357-.085-.325-.27.07-.408.194-1.004.352-1.194Zm-4.934,4.22c.19-.158.786-.282,1.194-.352.185-.032.335.149.27.325-.143.388-.375.951-.565,1.109-.299.248-.742.207-.99-.092-.248-.299-.207-.742.092-.99Zm-3.428-6.626c.246-.023.808.211,1.184.385.171.079.192.312.039.421-.338.239-.847.573-1.093.595-.387.036-.729-.249-.765-.636-.036-.387.249-.729.636-.765Zm-2.483,5.197c.408.07,1.004.194,1.194.352.299.248.34.692.092.99-.248.299-.692.34-.99.092-.19-.158-.422-.72-.565-1.109-.065-.176.085-.357.27-.325Zm-4.669-2.059c.158-.19.721-.422,1.109-.565.176-.065.357.085.325.27-.07.408-.194,1.004-.352,1.194-.248.299-.692.34-.99.092-.299-.248-.34-.692-.092-.99Z" fill="#ff9e26"/></g><g><path d="m22.882,12.875c.19-.158.422-.72.565-1.109.065-.176-.085-.357-.27-.325-.408.07-1.004.194-1.194.352-.299.248-.34.692-.092.99.248.299.692.34.99.092Z" fill="#ffd16b"/><path d="m16.367,11.797c.299.248.742.207.99-.092.248-.299.207-.742-.092-.99-.19-.158-.786-.282-1.194-.352-.185-.031-.335.149-.27.325.143.388.375.951.565,1.109Z" fill="#ffd16b"/><path d="m26.891,9.037c.388-.143.951-.375,1.109-.565.248-.299.207-.742-.092-.99-.299-.248-.742-.207-.99.092-.158.19-.282.786-.352,1.194-.032.185.149.335.325.27Z" fill="#ffd16b"/><path d="m18.684,6.567c.246-.023.755-.356,1.093-.595.153-.109.132-.343-.039-.421-.376-.173-.938-.407-1.184-.385-.387.036-.671.378-.636.765.036.387.378.671.765.636Z" fill="#ffd16b"/><path d="m12.486,9.203c.158-.19.282-.786.352-1.194.032-.185-.149-.335-.325-.27-.388.143-.951.375-1.109.565-.248.299-.207.742.092.99.299.248.742.207.99-.092Z" fill="#ffd16b"/></g></svg>