<?xml version="1.0" encoding="UTF-8"?><svg id="Layer_1" xmlns="http://www.w3.org/2000/svg" viewBox="0 0 40 40"><rect width="40" height="40" fill="none"/><g><path d="m20,2c-3.98,0-7.207,3.24-7.207,7.236v9.975c0,3.996,3.226,7.236,7.207,7.236s7.207-3.239,7.207-7.236v-9.975c0-3.996-3.227-7.236-7.207-7.236Z" fill="#3d3d3d"/><g><path d="m19.999,33.036c-7.597,0-13.776-6.202-13.776-13.826,0-.887.718-1.604,1.604-1.604s1.604.718,1.604,1.604c0,5.854,4.74,10.617,10.567,10.617s10.569-4.763,10.569-10.617c0-.887.718-1.604,1.604-1.604s1.604.718,1.604,1.604c0,7.624-6.181,13.826-13.778,13.826Z" fill="#767676"/><path d="m19.999,39.604c-.887,0-1.604-.718-1.604-1.604v-6.568c0-.887.718-1.604,1.604-1.604s1.604.718,1.604,1.604v6.568c0,.887-.718,1.604-1.604,1.604Z" fill="#767676"/></g></g></svg>