<?xml version="1.0" encoding="UTF-8"?><svg id="Layer_1" xmlns="http://www.w3.org/2000/svg" viewBox="0 0 40 40"><g><rect x="3.518" y="3.5" width="33" height="33" rx="8" ry="8" fill="#93c9ff"/><path d="m36.518,21.503v-2.341c-.013,0-.023-.007-.036-.007-10.546,0-15.323-6.916-15.519-7.208-.218-.327-.585-.523-.979-.524h-.003c-.392,0-.759.196-.978.521-.198.295-4.965,7.193-15.485,7.209v2.356c2.315-.003,4.382-.31,6.214-.802v4.77h1.414v-5.203c1.267-.433,2.404-.95,3.417-1.507v10.535h1.414v-11.388c1.403-.921,2.496-1.873,3.298-2.68v14.564h1.414v-14.564c.801.807,1.895,1.759,3.298,2.68v11.274h1.414v-10.421c.906.499,1.918.962,3.028,1.366v5.344h1.414v-4.885c1.937.559,4.139.918,6.638.918.013,0,.024-.007.036-.007Z" fill="#ff2b4b"/><rect x="3.482" y="3.5" width="33" height="33" rx="8" ry="8" fill="none"/><path d="m15.36,29.05c.006-.083.025-.163.025-.248,0-1.946-1.578-3.524-3.524-3.524-.238,0-.469.025-.693.07-.935-1.673-2.721-2.806-4.774-2.806-1.057,0-2.04.305-2.876.824v5.134c0,4.418,3.582,8,8,8h6.128c.885-.788,1.452-1.924,1.452-3.202,0-2.183-1.632-3.968-3.739-4.248Z" fill="#f0f3f6"/><path d="m28.518,36.5c4.418,0,8-3.582,8-8v-4.01c-1.003-1.19-2.503-1.948-4.181-1.948-2.053,0-3.839,1.133-4.774,2.806-.224-.045-.456-.07-.693-.07-1.946,0-3.524,1.578-3.524,3.524,0,.229.026.452.067.669-.596.061-1.156.224-1.668.483-.225-1.648-1.624-2.922-3.334-2.922-1.313,0-2.439.757-2.999,1.851-.317-.143-.667-.227-1.038-.227-1.401,0-2.536,1.135-2.536,2.536,0,.26.051.506.123.742h0c-1.544,0-2.796,1.252-2.796,2.796,0,.568.172,1.094.462,1.535.607.147,1.238.234,1.89.234h17Z" fill="#d0d6de"/><rect x="3.518" y="3.5" width="33" height="33" rx="8" ry="8" fill="none"/></g><rect x="0" width="40" height="40" fill="none"/></svg>