<?xml version="1.0" encoding="UTF-8"?><svg id="Layer_1" xmlns="http://www.w3.org/2000/svg" viewBox="0 0 40 40"><g><g><path d="m27.259,15.785c-.246.252-.589.409-.969.409-.504,0-.938-.278-1.172-.686l-.763-.705c-.221.095-.457.15-.699.112l-1.844-.288c.674,1.105.523,2.54-.413,3.466l-1.866,1.847.385.393c.692.707.675,1.843-.039,2.529l-.22.212c-.211.203-.546.198-.751-.011l-2.963-3.022c-.176-.18-.184-.466-.016-.654l2.06-2.324c.284-.32.303-.795.047-1.137l-1.604-2.139-.291-.045s-3.135-.422-4.754,1.545c0,0-4.375-2.055-7.225,2.353-.7,1.226-1.195,2.375-2.186,2.722-.148.052-.166.254-.024.321,1.08.512,4.101,1.385,6.585-3.208.398-.663,1.226-1.226,1.922-1.094,0,0-3.058,2.8-.352,6.779,0,0-.86,2.157-3.067,2.421-.22.026-.421.144-.525.34l-2.903,5.494c-.095.18-.27.303-.471.332l-.994.142c-.17.024-.295.169-.295.341v2.139c0,.599.739.883,1.14.438l6.49-7.208c.102-.114.242-.18.395-.187,1.11-.045,5.889-.424,7.76-3.613.097-.165.297-.235.463-.139.868.498,3.662,1.823,8.085,1.304.217-.026.432.08.535.272l4.969,9.28c.042.078.057.166.044.254l-.199,1.351c-.036.248.156.47.406.47h2.109c.371,0,.622-.377.48-.719l-4.315-10.361c-.104-.25.008-.539.254-.652l2.465-1.136c.223-.103.488-.01.599.209l1.498,2.97-1.208.259,1.178,2.171c.157.288.541.354.78.13.598-.559,1.483-1.654,1.089-2.991-.424-1.443-1.256-3.731-1.662-4.831-.137-.37-.514-.587-.903-.525l-2.987.479c-.309.05-.543-.281-.386-.552.487-.841,1.26-2.476,1.76-4.903-.697.188-1.386.27-2.039.27-1.378,0-2.583-.33-3.391-.621Z" fill="#db8b30"/><path d="m38.777,12.486l-3.168-3.482.09-1.773c.023-.457-.501-.731-.863-.451l-1.17.905h0l-7.118,5.505h0l-.013.01.622.604c.297.249.49.617.49,1.035,0,.101-.013.198-.033.292,1.168.42,3.177.884,5.232.187.057-.344.111-.695.155-1.067.073-.62.784-.939,1.288-.569l.635.465c.065-.054.132-.096.197-.153h.001s2.49-2.788,2.49-2.788l.51.561-2.507,2.789h.001s-.005.005-.008.007l-.046.051-.009-.007h-.001s.692.508.692.508c.517.379.914.353,1.179.109l1.289-1.193c.442-.409.472-1.098.066-1.544Zm-2.647-1.081c-.182.15-.477.092-.659-.128-.182-.221-.181-.521.001-.671.182-.15.477-.092.659.128.182.221.181.521-.001.671Z" fill="#db8b30"/></g><path d="m33.665,7.685h0s-5.279-.85-7.118,5.505h0l7.118-5.505Z" fill="#864a00"/><g><polygon points="38.12 11.766 37.61 11.205 35.12 13.994 35.614 14.554 38.12 11.766" fill="#424242"/><path d="m35.561,14.613l.046-.051c-.018.016-.037.028-.055.044l.009.007Z" fill="#424242"/><path d="m35.607,14.562s.005-.004.008-.006h-.001s-.494-.561-.494-.561h-.001c-.065.056-.132.098-.197.152-.677.556-1.379.934-2.078,1.171-2.055.697-4.064.233-5.232-.187-.055.251-.18.476-.353.654.808.292,2.012.621,3.391.621.653,0,1.342-.081,2.039-.27.962-.26,1.939-.733,2.862-1.53h.001c.018-.017.037-.029.055-.045Z" fill="#424242"/><path d="m29.6,5.21h-2.96v2.54h-.46v-2.54h-2.31v-.04c0-.26.04-.52.12-.75v-.01c.32-1.05,1.3-1.82,2.46-1.82,0,0,.01.01.02.01l.01-.01c1.2,0,2.19.81,2.51,1.9.34.07.61.36.61.72Z" fill="#424242"/><path d="m17.987,17.063l-2.06,2.324c-.167.189-.16.474.016.654l2.963,3.022c.205.209.54.214.751.011l.22-.212c.713-.686.731-1.822.039-2.529l-.385-.393,1.866-1.847c.936-.927,1.087-2.362.413-3.466-.046-.075-.084-.153-.138-.225l-1.246-1.668h0l-3.412-4.569-.567.26c-1.546.71-2.042,2.666-1.021,4.027l1.002,1.336,1.604,2.139c.256.342.237.817-.047,1.137Z" fill="#424242"/></g><g><path d="m25.499,7.001c.119.206.197.422.24.642.142.041.288.068.439.084v-2.517h-2.307c.004.269.057.524.137.767.604.099,1.161.452,1.492,1.024Z" fill="#ffc74d"/><path d="m26.641,5.21v2.524c1.32-.1,2.363-1.183,2.382-2.524h-2.382Zm1.729.221c.114.037.152.236.084.444-.068.208-.215.347-.329.31-.114-.037-.152-.236-.084-.444s.215-.347.329-.31Z" fill="#ffc74d"/><path d="m25.138,15.526l-.02-.018c.234.408.668.686,1.172.686.38,0,.723-.157.969-.409.174-.178.298-.403.353-.654.021-.094.033-.191.033-.292,0-.418-.193-.787-.49-1.035l.104.101-2.121,1.622Z" fill="#ffc74d"/></g><path d="m20.428,12.734l.998-.639,2.929,2.708.763.705.02.018,2.121-1.622-.104-.101-.622-.604-2.55-2.477,1.067-1.061c.031-.027.056-.057.085-.084l.118-.118-.004-.006c.434-.495.617-1.167.489-1.811-.044-.22-.122-.437-.24-.642-.33-.572-.887-.925-1.492-1.024-.317-.052-.647-.038-.965.06l-.002-.003-.025.009c-.018.006-.035.012-.052.018l-5.948,2.103,3.412,4.569h0Z" fill="#ff3d29"/><path d="m35.472,10.606c-.182.15-.183.45-.001.671.182.221.477.278.659.128.182-.15.183-.45.001-.671-.182-.221-.477-.278-.659-.128Z"/><path d="m28.126,6.184c.114.037.261-.102.329-.31.068-.208.03-.407-.084-.444-.114-.037-.261.102-.329.31s-.03.407.084.444Z"/></g><rect width="40" height="40" fill="none"/></svg>