<?xml version="1.0" encoding="UTF-8"?><svg id="Layer_1" xmlns="http://www.w3.org/2000/svg" viewBox="0 0 40 40"><g><path d="m17.476,20.657h7.434c.38,0,.727-.216.896-.556l7.821-15.787c.329-.665-.154-1.444-.896-1.444h-7.434c-.38,0-.727.216-.896.556l-7.821,15.787c-.329.665.154,1.444.896,1.444Z" fill="#d12030"/><path d="m22.524,20.657h-7.434c-.38,0-.727-.216-.896-.556L6.373,4.313c-.329-.665.154-1.444.896-1.444h7.434c.38,0,.727.216.896.556l7.821,15.787c.329.665-.154,1.444-.896,1.444Z" fill="#ef4452"/><path d="m21.358,13.736l2.74,5.553c.221.447.647.757,1.14.828l6.128.89c1.242.181,1.738,1.707.839,2.583l-4.434,4.322c-.357.348-.52.849-.436,1.341l1.047,6.103c.212,1.237-1.086,2.181-2.197,1.597l-5.481-2.881c-.441-.232-.968-.232-1.409,0l-5.481,2.881c-1.111.584-2.41-.359-2.197-1.597l1.047-6.103c.084-.491-.079-.993-.436-1.341l-4.434-4.322c-.899-.876-.403-2.403.839-2.583l6.128-.89c.493-.072.92-.381,1.14-.828l2.74-5.553c.556-1.126,2.161-1.126,2.716,0Z" fill="#ffcd00"/></g><rect width="40" height="40" fill="none"/></svg>