<svg id="Layer_1" data-name="Layer 1" xmlns="http://www.w3.org/2000/svg" viewBox="0 0 40 40"><defs><style>.cls-1{fill:none;}.cls-2{fill:#ffcd00;}.cls-3{fill:#fa0;}</style></defs><rect class="cls-1" width="40" height="40"/><path class="cls-2" d="M34.75,20A3.25,3.25,0,0,1,38,16.75v-8.2a1.637,1.637,0,0,0-1.636-1.636H3.636A1.637,1.637,0,0,0,2,8.545V16.75a3.25,3.25,0,0,1,0,6.5v8.2a1.637,1.637,0,0,0,1.636,1.636H36.364A1.637,1.637,0,0,0,38,31.455v-8.2A3.25,3.25,0,0,1,34.75,20Z"/><polygon class="cls-3" points="25.506 17.945 21.701 17.392 20 13.945 18.299 17.392 14.494 17.945 17.247 20.629 16.597 24.418 20 22.629 23.403 24.418 22.753 20.629 25.506 17.945"/></svg>