<svg id="Layer_1" data-name="Layer 1" xmlns="http://www.w3.org/2000/svg" viewBox="0 0 40 40"><defs><style>.cls-1{fill:#68c76f;}.cls-2{fill:#ffe3a0;}.cls-3{fill:none;}</style></defs><circle id="SVGID" class="cls-1" cx="20" cy="20" r="17.5"/><path class="cls-2" d="M8.359,6.986A17.7,17.7,0,0,0,6.95,8.4c2.074,2.489,8.474,11.787-.072,23.183A17.64,17.64,0,0,0,8.3,33.014C17.993,20.338,10.556,9.648,8.359,6.986Z"/><path class="cls-2" d="M33.122,31.58c-8.546-11.4-2.146-20.695-.072-23.183a17.544,17.544,0,0,0-1.41-1.411c-2.2,2.661-9.633,13.351.062,26.028A17.957,17.957,0,0,0,33.122,31.58Z"/><rect class="cls-3" width="40" height="40"/></svg>