<?xml version="1.0" encoding="UTF-8"?><svg id="Layer_1" xmlns="http://www.w3.org/2000/svg" viewBox="0 0 40 40"><rect y="0" width="40" height="40" fill="none"/><g><rect x="18.054" y="9.273" width="3.892" height="29.044" rx=".973" ry=".973" fill="#86584a"/><g><path d="m18.543,13.633l-12.63,15.751c-.98,1.223-.11,3.036,1.457,3.036h25.26c1.567,0,2.437-1.813,1.457-3.036l-12.63-15.751c-.748-.932-2.166-.932-2.914,0Z" fill="#0a9f60"/><path d="m18.868,7.702l-10.479,13.068c-.761.95-.085,2.358,1.132,2.358h20.958c1.217,0,1.893-1.409,1.132-2.358l-10.479-13.068c-.581-.724-1.683-.724-2.264,0Z" fill="#23b169"/><path d="m19.159,2.721l-8.206,10.234c-.566.706-.063,1.753.841,1.753h16.412c.905,0,1.407-1.047.841-1.753L20.841,2.721c-.432-.538-1.251-.538-1.682,0Z" fill="#68c76f"/></g></g></svg>