<svg id="Layer_1" data-name="Layer 1" xmlns="http://www.w3.org/2000/svg" viewBox="0 0 40 40"><defs><style>.cls-1{fill:#fdaeb3;}.cls-2{fill:#f56570;}.cls-3,.cls-4,.cls-5{fill:none;}.cls-4{stroke:#e32939;}.cls-4,.cls-5{stroke-linecap:round;stroke-miterlimit:10;}.cls-5{stroke:#ffe63b;stroke-width:2.4px;}.cls-6{fill:#e32939;}</style></defs><path class="cls-1" d="M20,19.91c-.094-.049-7.733-7.285-8.177-12.743-.207-2.541,1.1-4.238,3.007-4.417s2.751.391,5.17.391,3.261-.57,5.17-.391,3.214,1.876,3.007,4.417C27.733,12.625,20.094,19.861,20,19.91"/><path class="cls-1" d="M20,19.91c-.076.074-9.318,5.1-14.646,3.839C2.873,23.16,1.662,21.4,2.082,19.525s1.222-2.5,1.97-4.8.465-3.277,1.225-5.038S8.055,7.214,10.407,8.2C15.461,10.305,19.982,19.806,20,19.91"/><path class="cls-1" d="M20,19.91c.047.095,1.974,10.439-.875,15.116C17.8,37.2,15.746,37.81,14.1,36.832s-2-1.934-3.953-3.355S7.17,32.021,5.731,30.754s-1.5-3.406.164-5.341C9.462,21.259,19.9,19.9,20,19.91"/><path class="cls-1" d="M20,19.91c.105-.015,10.538,1.349,14.1,5.5,1.661,1.935,1.6,4.074.164,5.341s-2.456,1.3-4.412,2.723-2.3,2.378-3.953,3.355-3.7.371-5.029-1.806C18.026,30.349,19.953,20.005,20,19.91"/><path class="cls-1" d="M20,19.91c.018-.1,4.539-9.6,9.593-11.714,2.352-.982,4.369-.267,5.13,1.494s.478,2.738,1.225,5.038,1.55,2.925,1.97,4.8-.791,3.635-3.272,4.224C29.318,25.013,20.076,19.984,20,19.91"/><path class="cls-2" d="M19.956,20.118c-.031.02-2.551,2.5-2.7,4.664a2.317,2.317,0,0,0,.82,2.038,5.136,5.136,0,0,0,3.755,0,2.317,2.317,0,0,0,.82-2.038c-.147-2.16-2.666-4.644-2.7-4.664"/><path class="cls-2" d="M20.864,19.679c.009.035,1.593,3.2,3.6,4.006a2.317,2.317,0,0,0,2.192-.15,5.144,5.144,0,0,0,1.16-3.571,2.316,2.316,0,0,0-1.685-1.409c-2.1-.529-5.241,1.1-5.269,1.124"/><path class="cls-2" d="M20.736,19.1c.036,0,3.535-.526,4.923-2.188a2.314,2.314,0,0,0,.535-2.131,5.144,5.144,0,0,0-3.038-2.207A2.317,2.317,0,0,0,21.3,13.744c-1.151,1.834-.573,5.325-.559,5.359"/><path class="cls-2" d="M19.408,19.027c.013-.034.592-3.524-.56-5.358A2.317,2.317,0,0,0,16.987,12.5a5.143,5.143,0,0,0-3.038,2.207,2.32,2.32,0,0,0,.535,2.131c1.389,1.661,4.887,2.19,4.924,2.187"/><path class="cls-2" d="M19.136,19.557c-.028-.024-3.169-1.653-5.269-1.124a2.314,2.314,0,0,0-1.685,1.409,5.144,5.144,0,0,0,1.16,3.571,2.317,2.317,0,0,0,2.192.15c2.009-.807,3.593-3.971,3.6-4.006"/><rect class="cls-3" width="40" height="40"/><line class="cls-4" x1="20.09" y1="19.91" x2="20.09" y2="8.879"/><line class="cls-5" x1="20.09" y1="9.91" x2="20.09" y2="6.879"/><circle class="cls-6" cx="20.09" cy="19.91" r="1.461"/></svg>