<?xml version="1.0" encoding="UTF-8"?><svg id="Layer_1" xmlns="http://www.w3.org/2000/svg" viewBox="0 0 40 40"><rect x="0" y="0" width="40" height="40" style="fill:none;"/><g><path d="M22.68029,5.32215v-1.86606c0-1.2777-.87298-2.46201-2.13408-2.66723-1.6069-.26148-2.99573,.97203-2.99573,2.52977v2.00353c0,.37098-.22325,.69109-.5539,.85931-2.23611,1.13762-3.77125,3.45232-3.77125,6.13323h13.78011c0-2.68091-1.53514-4.99561-3.77124-6.13323-.33065-.16822-.5539-.48833-.5539-.85931Z" style="fill:#ffd06c;"/><rect x="11.84741" y="11.10309" width="16.53593" height="5.03376" rx="1.09198" ry="1.09198" style="fill:#93c9ff;"/><path d="M26.43316,39.24627H13.56683c-2.13395,0-3.89214-1.67514-3.99532-3.8066l-.73139-15.10942c-.11048-2.28241,1.71024-4.1934,3.99532-4.1934h14.32913c2.28508,0,4.10581,1.911,3.99532,4.1934l-.7314,15.10942c-.10318,2.13146-1.86137,3.8066-3.99532,3.8066Z" style="fill:#c8e1ff;"/></g></svg>