<svg id="Layer_1" data-name="Layer 1" xmlns="http://www.w3.org/2000/svg" viewBox="0 0 40 40"><defs><style>.cls-1{fill:none;}.cls-2{fill:#2e3d51;}.cls-3{fill:#495b73;}.cls-4{fill:#4592fb;}.cls-5{fill:#64a7ff;}.cls-6{fill:#fbd018;}.cls-7{fill:#fff;}.cls-8{fill:#ffda16;}.cls-9{fill:#c8e1ff;}</style></defs><rect class="cls-1" width="40" height="40"/><rect class="cls-2" x="3.5" y="3.5" width="33" height="33" rx="8"/><path class="cls-3" d="M29.668,23.99a3,3,0,0,0-3.8,0L17.306,31l-3.774-3.089a2,2,0,0,0-2.534,0l-6.15,5.034A7.99,7.99,0,0,0,11.5,36.5h17a8,8,0,0,0,7.927-6.977Z"/><circle class="cls-4" cx="27.364" cy="16.488" r="0.9"/><circle class="cls-5" cx="20.222" cy="18.924" r="0.9"/><circle class="cls-6" cx="31.731" cy="16.827" r="0.72"/><circle class="cls-4" cx="16.925" cy="22.681" r="0.72"/><circle class="cls-7" cx="15.783" cy="14.499" r="0.9"/><circle class="cls-8" cx="19.707" cy="10.823" r="0.9"/><circle class="cls-9" cx="23.148" cy="14.091" r="1.35"/><circle class="cls-4" cx="10.726" cy="13.53" r="1.35"/><circle class="cls-5" cx="7.909" cy="20.731" r="0.9"/><path class="cls-9" d="M14.208,17.274l.2.989a.248.248,0,0,0,.144.178l.927.4a.247.247,0,0,1,.023.442l-.88.493a.248.248,0,0,0-.125.192l-.092,1a.247.247,0,0,1-.413.158l-.74-.684a.247.247,0,0,0-.222-.059l-.983.222a.247.247,0,0,1-.279-.344l.422-.915a.244.244,0,0,0-.012-.229l-.515-.867a.247.247,0,0,1,.241-.371l1,.119a.248.248,0,0,0,.214-.083l.665-.757A.246.246,0,0,1,14.208,17.274Z"/><path class="cls-5" d="M29.8,10.279l-.172.863a.215.215,0,0,1-.126.156l-.808.347a.216.216,0,0,0-.021.386l.768.43a.215.215,0,0,1,.109.168l.081.876a.215.215,0,0,0,.36.139l.647-.6A.214.214,0,0,1,30.834,13l.859.194a.215.215,0,0,0,.243-.3l-.369-.8a.218.218,0,0,1,.011-.2l.45-.756a.216.216,0,0,0-.211-.324l-.874.1a.214.214,0,0,1-.187-.071l-.58-.662A.215.215,0,0,0,29.8,10.279Z"/></svg>