<svg id="Layer_1" data-name="Layer 1" xmlns="http://www.w3.org/2000/svg" viewBox="0 0 40 40"><defs><style>.cls-1{fill:none;}.cls-2{fill:#4fc578;}.cls-3{fill:#e5e8eb;}.cls-4{fill:#23b169;}</style></defs><rect class="cls-1" width="40" height="40"/><path class="cls-2" d="M14.423,8.174,1.844,32.069a2.077,2.077,0,0,0,1.838,3.045H28.841a2.077,2.077,0,0,0,1.838-3.045L18.1,8.174A2.078,2.078,0,0,0,14.423,8.174Z"/><path class="cls-3" d="M17.962,7.912a1.922,1.922,0,0,0-3.4,0L6.237,23.724h0l5.736-6.51,1.688,5.815,5.387-6.621,6.5,5.915h0Z"/><path class="cls-4" d="M30.59,17.7l7.566,14.372a2.077,2.077,0,0,1-1.838,3.045H17.744L26.913,17.7A2.078,2.078,0,0,1,30.59,17.7Z"/></svg>