<?xml version="1.0" encoding="UTF-8"?><svg id="Layer_1" xmlns="http://www.w3.org/2000/svg" viewBox="0 0 40 40"><rect y="0" width="40" height="40" transform="translate(40 40) rotate(-180)" style="fill:none;"/><g><path d="M32.50623,26.71606l-3.28107-1.89429h0l-8.58044-4.9541-4.95282,8.57861c-.20264,.35156-.57031,.54785-.94873,.54785-.18555,0-.37402-.04688-.54639-.14648-.52344-.30273-.70264-.97168-.40039-1.49512l4.61328-7.99048c-3.61761,.11377-7.17615,.96167-9.93323,2.56396-4.25354,2.47192-5.4209,6.0437-3.54596,9.13818,1.64868-.94165,3.89441-.78979,5.34839,.4585,1.65753,1.4231,4.34473,1.4231,6.0022,0,1.65753-1.4231,4.34473-1.4231,6.00226,0h.00012c1.65741,1.4231,4.3446,1.4231,6.00226,0,1.46033-1.25366,3.71863-1.39966,5.36914-.44385,.87604-1.46216,1.07971-3.02856,.5871-4.53882-.46436,.41016-1.16235,.50708-1.73572,.17603Z" style="fill:#ffc84d;"/><path d="M28.28571,31.52271c-1.65765,1.4231-4.34485,1.4231-6.00226,0h-.00012c-1.65753-1.4231-4.34473-1.4231-6.00226,0-1.65747,1.4231-4.34467,1.4231-6.0022,0-1.45398-1.24829-3.69971-1.40015-5.34839-.4585h-.00006l.00037,.00049c.17871,.29492,.38666,.58496,.61938,.86987l.03772,.04688c.21515,.25952,.45862,.51294,.71954,.76196,.04016,.03833,.07703,.07739,.11835,.11548,.2442,.2251,.51556,.44287,.79846,.65698,.06616,.05005,.125,.10229,.19336,.15186,.34924,.25293,.72333,.49829,1.12903,.73242,2.23718,1.29175,4.99139,2.09888,7.87286,2.42188,1.92096,.21509,3.8985,.21509,5.81708,0,2.87787-.323,5.62305-1.13037,7.8457-2.42188l.00391-.00269c.40033-.23291,.76971-.47632,1.1142-.72754,.06793-.0498,.1264-.10205,.19226-.15234,.27991-.21338,.54852-.43042,.78986-.65479,.03949-.03662,.07452-.07446,.11298-.11133,.25891-.24878,.50024-.50195,.7132-.76147l.03491-.04395c.22986-.28394,.43512-.57324,.61115-.86694l.00012-.00024h0c-1.65051-.95581-3.90881-.80981-5.36914,.44385Z" style="fill:#5a81ff;"/><g><path d="M28.7796,5.77759l.07684-.13306c.30225-.52344,.12305-1.19238-.40039-1.49512-.52295-.30176-1.19287-.12207-1.49512,.40137l-.07831,.13574c.33765,.16504,.6759,.32812,1.00635,.51904,.3089,.17822,.59796,.37695,.89062,.57202Z" style="fill:#4b596a;"/><path d="M14.19678,28.84766c.17236,.09961,.36084,.14648,.54639,.14648,.37842,0,.74609-.19629,.94873-.54785l4.95282-8.57861-.91565-.52856-.97961-.56567-.33978,.58862-4.61328,7.99048c-.30225,.52344-.12305,1.19238,.40039,1.49512Z" style="fill:#4b596a;"/></g><g><path d="M10.23297,13.85645l5.27289,3.04443c4.50659-7.80566,10.05066-13.04175,12.38312-11.69531-5.24457-3.02783-13.14941,.84521-17.65601,8.65088Z" style="fill:#e5e9ee;"/><path d="M23.95233,21.77734l-4.22327-2.43823,.91565,.52856,8.58044,4.9541h0c4.50659-7.80566,3.90833-16.58813-1.33618-19.61621,2.33246,1.34668,.56995,8.76611-3.93665,16.57178Z" style="fill:#e5e9ee;"/></g><g><path d="M10.23297,13.85645C14.73956,6.05078,22.64441,2.17773,27.88898,5.20557c-.33044-.19092-.6687-.354-1.00635-.51904-7.14984-3.49805-15.78351-1.3103-20.3988,5.11621-.51251,.71362-.29279,1.72021,.46808,2.15942l8.55396,4.93872h0l-5.27289-3.04443Z" style="fill:#4d9dff;"/><path d="M28.7796,5.77759c-.29266-.19507-.58173-.3938-.89062-.57202,5.24451,3.02808,5.84277,11.81055,1.33618,19.61621l3.28107,1.89429c.57336,.33105,1.27136,.23413,1.73572-.17603,.15186-.13428,.27924-.30127,.36841-.49854,3.26794-7.23218,.81982-15.83276-5.83075-20.26392Z" style="fill:#4d9dff;"/><path d="M23.95233,21.77734c4.50659-7.80566,6.2691-15.2251,3.93665-16.57178-2.33246-1.34644-7.87653,3.88965-12.38312,11.69531h-.00006l3.24365,1.87256,.97961,.56567,4.22327,2.43823Z" style="fill:#4d9dff;"/></g></g></svg>