<svg id="Layer_1" data-name="Layer 1" xmlns="http://www.w3.org/2000/svg" viewBox="0 0 40 40"><defs><style>.cls-1{fill:none;}.cls-2{fill:#d0d5da;}.cls-3{fill:#e5e9ee;}.cls-4{fill:#a96951;}.cls-5{fill:#ef4452;}.cls-6{fill:#d12030;}</style></defs><rect class="cls-1" width="40" height="40"/><path class="cls-2" d="M5.668,37.5H34.332a2,2,0,0,0,2-2V18.7H3.668V35.5A2,2,0,0,0,5.668,37.5Z"/><path class="cls-3" d="M27.618,10.631H12.382V37.5H27.618Z"/><path class="cls-4" d="M20,29.953h0a2.753,2.753,0,0,1,2.753,2.753V37.5a0,0,0,0,1,0,0H17.247a0,0,0,0,1,0,0V32.706A2.753,2.753,0,0,1,20,29.953Z"/><path class="cls-5" d="M29.142,11.169,20.868,2.861a1.225,1.225,0,0,0-1.736,0l-8.274,8.308Z"/><path class="cls-6" d="M10.858,11.169H29.142a0,0,0,0,1,0,0v1.7a.51.51,0,0,1-.51.51H11.369a.51.51,0,0,1-.51-.51v-1.7A0,0,0,0,1,10.858,11.169Z"/><path class="cls-5" d="M37.2,18.913l-4.36-4.378a1.225,1.225,0,0,0-1.736,0l-4.36,4.378Z"/><path class="cls-6" d="M26.747,18.913H37.2a0,0,0,0,1,0,0v1.7a.51.51,0,0,1-.51.51H27.257a.51.51,0,0,1-.51-.51v-1.7A0,0,0,0,1,26.747,18.913Z"/><path class="cls-5" d="M13.253,18.913l-4.36-4.378a1.225,1.225,0,0,0-1.736,0L2.8,18.913Z"/><path class="cls-6" d="M2.8,18.913H13.253a0,0,0,0,1,0,0v1.7a.51.51,0,0,1-.51.51H3.307a.51.51,0,0,1-.51-.51v-1.7A0,0,0,0,1,2.8,18.913Z"/></svg>