<svg id="Layer_1" data-name="Layer 1" xmlns="http://www.w3.org/2000/svg" viewBox="0 0 40 40"><defs><style>.cls-1{fill:#ff9c00;}.cls-2{fill:#e5e9ee;}.cls-3{fill:#d0d6de;}.cls-4{fill:none;}</style></defs><path class="cls-1" d="M7.224,33.084l3.714-16.448a1.136,1.136,0,0,1,1.673-.735l14.043,8.051a1.135,1.135,0,0,1,.211,1.814l-12.3,11.521A4.423,4.423,0,0,1,7.224,33.084Z"/><path class="cls-1" d="M25.356,28.113c-1.555,2.715-5.913,2.178-10.246-.3s-7-5.969-5.446-8.684Z"/><path class="cls-2" d="M13.982,10.736s-4.528-.857-6.014,2.411,1.351,6.628,6.805,10.138,9.17,5,12.459,5.656,5.391-2.9,3.018-5.156c0,0,4.325-4.407-.463-8.179,0,0,7.724-7.768-1.184-13.991a.612.612,0,0,0-.953.343C27.3,3.4,25.876,6.035,20.06,5.853,14.042,5.687,13.982,10.736,13.982,10.736Z"/><path class="cls-3" d="M31.976,18.94c-1.448,1.385-4.813,2.3-12.64-.628a.135.135,0,0,0-.122.24c2.272,1.388,7.286,4.276,11.069,5.192A6.259,6.259,0,0,0,31.976,18.94Z"/><path class="cls-3" d="M29.791,15.6s5.3-5.336,2.042-10.706c-.047,2.725-1.077,7.068-7.1,7.444a.434.434,0,0,0-.25.776,13.786,13.786,0,0,0,5.3,2.5"/><rect class="cls-4" width="40" height="40"/></svg>