<svg id="Layer_1" data-name="Layer 1" xmlns="http://www.w3.org/2000/svg" viewBox="0 0 40 40"><defs><style>.cls-1{fill:#313d4c;}.cls-2{fill:#afb7c0;}.cls-3{fill:#4e5968;}.cls-4{fill:none;}</style></defs><path class="cls-1" d="M24.124,4.705c3.376-3.375,8.6-3.626,11.664-.56s2.816,8.289-.56,11.665a9.173,9.173,0,0,1-4.79,2.55L21.574,9.5A9.172,9.172,0,0,1,24.124,4.705Z"/><path class="cls-2" d="M19.954,12.112l7.865,7.866a.209.209,0,0,0,.263.026l2.291-1.524a.209.209,0,0,0,.032-.321L21.772,9.527a.207.207,0,0,0-.32.032L19.928,11.85A.208.208,0,0,0,19.954,12.112Z"/><path class="cls-3" d="M19.886,12.045l8,8L9.624,36.555l0,0h0a3.759,3.759,0,0,1-3.748,1.352,4.5,4.5,0,0,1-2.512-7.595l.01-.009Z"/><rect class="cls-2" x="18.026" y="17.493" width="3.249" height="5.034" rx="1.624" transform="translate(19.396 48.053) rotate(-135)"/><rect class="cls-4" width="40" height="40"/></svg>