<svg id="Layer_1" data-name="Layer 1" xmlns="http://www.w3.org/2000/svg" viewBox="0 0 40 40"><defs><style>.cls-1{fill:#2f81f9;}.cls-2{fill:none;}.cls-3{fill:#7bd58f;}</style></defs><circle class="cls-1" cx="20" cy="20" r="17.5"/><rect class="cls-2" width="40" height="40"/><path class="cls-3" d="M9.9,9.43A3.927,3.927,0,0,1,11.919,12.8a3.625,3.625,0,0,0,1.09,2.523,17.152,17.152,0,0,1,1.343,1.694,2.2,2.2,0,0,1,.315,1.213A1.33,1.33,0,0,0,16.1,19.614c.225,0,.451,0,.676,0,1.035,0,1.035,0,.589-.863a2.858,2.858,0,0,1,.777-3.028c.588-.36,1.272-.107,1.91-.164a1.168,1.168,0,0,1,1.431.99c.04.187.2.4.434.308s.591-.053.634-.428a4.11,4.11,0,0,0,.034-.674,1.889,1.889,0,0,1,.691-1.659,1.869,1.869,0,0,0,.694-1.35,1.524,1.524,0,0,1,1.25-1.321.9.9,0,0,0,.8-.751.711.711,0,0,1,.8-.622,2.04,2.04,0,0,0,.375-.015c.325-.046.673-.071.662-.537s-.373-.519-.688-.5a2.271,2.271,0,0,1-2.047-.864.5.5,0,0,1-.1-.639c.394-.852.143-1.194-.8-1.217a4.858,4.858,0,0,0-.526,0c-.26.023-.6-.15-.757.147a.763.763,0,0,0,.2.9c.342.337.39.6-.015.91-.362.274-.227.689-.24,1.051-.017.459-.071.866-.646.916-.49.044-.92-.028-1-.628-.057-.411-.358-.52-.691-.565a7.062,7.062,0,0,0-.824-.023c-.589-.006-1.189.053-1.178-.842.01-.845.578-.8,1.141-.8.225,0,.452.012.675-.012.447-.049.829-.177.891-.725.052-.462.365-.63.8-.594s.595-.149.565-.569c-.04-.582.287-.736.825-.812a5.169,5.169,0,0,1,4.458,1.789A13.345,13.345,0,0,0,30.632,8.45a4.743,4.743,0,0,0,2.676.192,17.527,17.527,0,0,0-7.417-5.123,26.754,26.754,0,0,1-5.232.117,1.939,1.939,0,0,0-1.7.8c-.285.394-.74.725-.8,1.3-.047.476-.446.521-.852.522s-.781-.073-.838-.546c-.071-.6-.433-.71-.942-.7-.674.016-1.349.012-2.024,0-.554-.014-1.018-.173-1.154-.759A17.572,17.572,0,0,0,6.664,8.674c-.007.031-.018.058-.024.089A5.992,5.992,0,0,1,9.9,9.43Z"/><path class="cls-3" d="M30.721,25.217a1.7,1.7,0,0,1-1.363-1.368,2.7,2.7,0,0,0-2.851-2.686,12.2,12.2,0,0,0-2.994.045c-1.545.4-1.5-1.384-2.539-1.6a.52.52,0,0,1-.348-.456.81.81,0,0,0-.093-.356c-.21-.3-.51-.462-.828-.2-.41.336-.377.966-.8,1.32-.064.053.051.178.147.219.875.373,1.271,1.395,2.3,1.625a5.229,5.229,0,0,1,1.081.638c.246.138.317.3.093.529a4.013,4.013,0,0,0-1,3.384,1.446,1.446,0,0,0,1.3,1.328,1.678,1.678,0,0,1,1.4,1.327c.022,1.2,0,2.405,0,3.607a.672.672,0,0,1-.574.755c-.328.066-.659.128-.624.586s.449.443.728.488a3.074,3.074,0,0,0,2.441-1,57.437,57.437,0,0,0,4.789-4.651,3.139,3.139,0,0,0,1.078-2.072A1.421,1.421,0,0,0,30.721,25.217Z"/></svg>