<?xml version="1.0" encoding="UTF-8"?><svg id="Layer_1" xmlns="http://www.w3.org/2000/svg" viewBox="0 0 40 40"><g><path d="m22.749,11.532l1.006.081c4.819.386,9.183,2.996,11.804,7.058l.547.848c.074.115-.016.266-.152.255l-1.006-.081c-4.819-.386-9.183-2.996-11.804-7.058l-.547-.848c-.074-.115.016-.266.152-.255Z" fill="#68c76f"/><path d="m6.371,5.647c4.104,10.253,4.104,20.506,0,30.759h7.733c4.104-10.253,4.104-20.506,0-30.759h-7.733Z" fill="#68c76f"/><rect x="5.346" y="35.312" width="10.459" height="2.188" rx="1.094" ry="1.094" fill="#22ad67"/><rect x="5.346" y="4.553" width="10.459" height="2.188" rx="1.094" ry="1.094" fill="#22ad67"/><rect x="7.723" y="14.806" width="10.459" height="2.188" rx="1.094" ry="1.094" fill="#22ad67"/><rect x="7.723" y="25.059" width="10.459" height="2.188" rx="1.094" ry="1.094" fill="#22ad67"/><path d="m16.172,16.206l-.734-.612c.11-.133,2.771-3.27,8.262-4.914l.274.916c-5.199,1.557-7.777,4.58-7.802,4.61Z" fill="#22ad67"/><path d="m22.167,11.6l.685-.997c3.281-4.774,8.599-7.747,14.385-8.041l1.208-.061c.164-.008.267.175.174.31l-.685.997c-3.281,4.774-8.599,7.747-14.385,8.041l-1.208.061c-.164.008-.267-.175-.174-.31Z" fill="#22ad67"/><path d="m27.459,34.101c-7.137-2.689-8.586-13.758-8.586-13.758l6.933-2.033s2.101,10.995,9.459,13.003l-7.807,2.788Z" fill="#ff4645"/><path d="m22.52,20.644c-.104,0-.2-.069-.23-.175l-2.375-8.431c-.036-.127.038-.259.165-.295.129-.032.259.039.295.166l2.375,8.431c.036.127-.038.259-.165.295-.022.006-.043.009-.065.009Z" fill="#7d2222"/></g><rect width="40" height="40" fill="none"/></svg>