<svg id="Layer_1" data-name="Layer 1" xmlns="http://www.w3.org/2000/svg" viewBox="0 0 40 40"><defs><style>.cls-1,.cls-2{fill:none;}.cls-2{stroke:#23b169;stroke-linecap:round;stroke-miterlimit:10;stroke-width:2px;}.cls-3{fill:#23b169;}.cls-4{fill:#68c76f;}</style></defs><rect class="cls-1" width="40" height="40" transform="translate(40 40) rotate(-180)"/><path class="cls-2" d="M20,20.347v9.112C20,33.9,22.423,37.5,25.413,37.5"/><path class="cls-3" d="M20.117,17.464s.5-7.073-.714-11.051-5.431-4.949-7.572-2.808a4.213,4.213,0,0,0-.825,4.748,4.214,4.214,0,0,0-4.749.825c-2.141,2.141-1.169,6.353,2.809,7.572S20.117,17.464,20.117,17.464Z"/><path class="cls-3" d="M19.883,17.231s-.5,7.072.714,11.05,5.431,4.95,7.572,2.809a4.214,4.214,0,0,0,.825-4.749,4.214,4.214,0,0,0,4.749-.825c2.141-2.141,1.169-6.353-2.809-7.571S19.883,17.231,19.883,17.231Z"/><path class="cls-4" d="M19.883,17.464s7.073.505,11.051-.714,4.95-5.431,2.809-7.572a4.214,4.214,0,0,0-4.749-.825,4.213,4.213,0,0,0-.825-4.748c-2.141-2.141-6.353-1.17-7.572,2.808S19.883,17.464,19.883,17.464Z"/><path class="cls-4" d="M20.117,17.231s-7.073-.505-11.051.714-4.95,5.43-2.809,7.571a4.214,4.214,0,0,0,4.749.825,4.214,4.214,0,0,0,.825,4.749c2.141,2.141,6.353,1.17,7.572-2.809S20.117,17.231,20.117,17.231Z"/></svg>