<?xml version="1.0" encoding="UTF-8"?><svg id="Layer_1" xmlns="http://www.w3.org/2000/svg" viewBox="0 0 40 40"><g><path d="M29.31,3.47998l-3,1.82007c-.28998-.72998-1.03998-1.09009-1.73999-.79004-.75,.31995-1.16998,1.26001-.91998,2.09998,.09998,.35999,.31,.63,.56995,.81995l-1.35999,1.66003-.01001,.01001-.01996-.02002c-.15002-.13-.29004-.25989-.42004-.40002-.01996-.02002-.03998-.04993-.06995-.07996-.15002-.17004-.28003-.35999-.41003-.54993-.02997-.05005-.06-.11011-.09998-.16003-.12-.22009-.23004-.45007-.31-.68005-.02002-.06006-.04004-.10999-.05005-.16992-.06-.19006-.10999-.38013-.13995-.58008-.02002-.06995-.03003-.13989-.04004-.20996-.02997-.22998-.03998-.46997-.02997-.71997,.01001-.05005,.01001-.1001,.02002-.15002,.00995-.12,.00995-.25,.03998-.37,.01001-.06006,.02997-.11011,.03998-.16003,.03003-.16003,.08002-.30994,.13-.45996,.04004-.12,.07001-.2301,.12-.34998,.07001-.15002,.15002-.30005,.23004-.44006,.04999-.09998,.09998-.19006,.15997-.27991,.10999-.15015,.22998-.30005,.34998-.44006,.06-.06995,.11005-.13,.18005-.19006,.12994-.13989,.27997-.27002,.42999-.37988,.07996-.06006,.14996-.11011,.21997-.17004,.07001-.04004,.13-.09998,.20001-.14001,.08997-.05005,.19-.09009,.28998-.14001,.09003-.03992,.17999-.07996,.28003-.12,.15997-.07007,.33002-.13,.5-.17993,.09998-.03003,.20996-.05005,.32001-.08008,.15997-.03003,.32001-.05005,.48999-.06006,.12-.01001,.25-.02002,.37-.02002,.15997,0,.32001,.02002,.46997,.03003,.08002,.01001,.15002,.01001,.23004,.02002,.04999,.01001,.09998,.03003,.14996,.04004,.17999,.04004,.35004,.08997,.51001,.15002,.12,.03992,.22998,.06995,.34003,.12,.16998,.06995,.32996,.16992,.48999,.26001,.08997,.05994,.19,.09998,.27002,.15991,.16998,.12012,.31995,.26001,.46997,.40002,.07001,.06006,.15002,.12,.21002,.19006,.14996,.15991,.27997,.33997,.39996,.52002,.04999,.06995,.10004,.11987,.14001,.18994Z" style="fill:#523725;"/><path d="M17.24524,21.88232l-3.34918,3.9209-.09491,.11108,2.91168,3.65686,.02222,.02795,2.96924-1.92041c.67139-.43433,1.51251-.51318,2.25299-.21167l3.60614,1.59534h0l2.50299-3.99451h0l-3.82343-2.89648-6.99774-.28906Z" style="fill:#3e5af4;"/><path d="M22.53394,13.5249c-.51965-1.03064-.10541-2.28735,.92523-2.80688,.63483-.32056,1.35474-.28394,1.93622,.03101-.10974-.11963-.22369-.2373-.35931-.34058-.33563-.25562-.75275-.4519-1.2652-.54346-.53265-.09485-.96802-.11353-1.34711-.08203-.80219,.06677-1.32581,.38501-1.80347,.84558-.0769,.07422-.15344,.14929-.22937,.2301-.63544,.67676-1.03918,1.53833-1.24048,2.44458l-.38434,1.73071-1.52087,6.84839,6.99774,.28906s.37811-1.71899,.80255-3.66516l-2.5116-4.98132Z" style="fill:#e32939;"/><g><path d="M13.89606,25.80322l-.17859,.16748c-.18567,.17395-.47089,.1792-.66272,.0127l-2.00183-1.73804-3.25647,3.35059-.04443,.0105,2.22028,1.92773c.98242,.85254,2.19519,1.27686,3.40668,1.27686,1.18939,0,2.36798-.42639,3.33386-1.23987l-2.91168-3.65686,.09491-.11108Z" style="fill:#c3846c;"/><g><path d="M29.33002,3.51001c0-.01001-.01001-.02002-.02002-.03003l-3,1.82007c-.28998-.72998-1.03998-1.09009-1.73999-.79004-.75,.31995-1.16998,1.26001-.91998,2.09998,.09998,.35999,.31,.63,.56995,.81995l-1.35999,1.66003-.01001,.01001-.01996-.02002-.41003,.70007c.38-.03003,.82001-.01001,1.35004,.07996,.51001,.09998,.92999,.28992,1.26996,.54993l.20001-.34985c.87,.06995,1.78003-.11011,2.59003-.59009,2.06-1.22998,2.72998-3.8999,1.5-5.95996Zm-.26001,2.81006c-.06,.36987-.28003,.63989-.48999,.60986-.21002-.03992-.33002-.36987-.27002-.73999,.06-.35999,.28003-.63989,.48999-.59998,.21002,.04004,.33002,.35999,.27002,.7301Z" style="fill:#c3846c;"/><path d="M25.92987,29.33008c.34546,.25244,.55359,.65845,.5564,1.08655l.02478,3.52844h4.70233l-.02502-3.56128c-.01324-1.91028-.94232-3.72363-2.48474-4.85034l-.63721-.46558-2.50299,3.99451,.36646,.2677Z" style="fill:#c3846c;"/><path d="M20.62,10.63c-.08002,.06995-.15002,.15002-.22998,.22998-.63,.68005-1.04004,1.53992-1.23999,2.44006l-.38,1.72998-2.08002,.22998c-.27002,.03003-.51001,.17993-.65997,.3999l-1.02002,1.56006c.23999,.80005,.08997,1.70996-.47998,2.41003-.91003,1.12-2.56006,1.27991-3.67004,.37-1.12-.91003-1.27997-2.55005-.37-3.67004,.10999-.13,.22998-.25,.35999-.35999,.04004-.07996,.07001-.1499,.12-.22998l1.58002-2.38c.84003-1.27002,2.17999-2.08997,3.69-2.26001l4.38-.46997Z" style="fill:#c3846c;"/><path d="M36.69,16.73999c0,1.15991-.76001,2.13-1.79999,2.46997l-3.60999,1.94995c-.63,.34009-1.32001,.52002-2.01001,.52002-.42004,0-.84003-.06995-1.26001-.18994-1.09003-.34009-1.98999-1.09009-2.52002-2.10999l-.44-.87-2.51996-4.98999c-.52002-1.03003-.10004-2.28003,.92999-2.80005,.63-.32007,1.34998-.29004,1.94,.03003,.35999,.19995,.66998,.5,.87,.89001l2.94,5.83997s.00995,0,.02997,.01001c.03003,.01001,.04999,0,.06-.01001l2.22003-1.19995c.20996-1.21997,1.27997-2.15002,2.56-2.15002,1.44,0,2.60999,1.17004,2.60999,2.60999Z" style="fill:#c3846c;"/></g></g><g><path d="M26.50366,33.94507v4.05347c0,.23474,.19037,.42505,.42517,.42505h7.39319c.2348,0,.42511-.19031,.42511-.42505v-.5365c0-.79602-.40601-1.53687-1.07684-1.96521l-2.43048-1.55176h-4.73615Z" style="fill:#4e5968;"/><path d="M11.05292,24.24536l.04443-.04565-2.90674-2.82507c-.16833-.1637-.4375-.15979-.60114,.00867l-5.15277,5.30176c-.16364,.16821-.15979,.4375,.00854,.60107l.38477,.3739c.57074,.55481,1.38507,.77991,2.15973,.59741l2.76227-.651,.04443-.0105,3.25647-3.35059Z" style="fill:#4e5968;"/></g><path d="M28.57733,6.9292c.2099,.03564,.43103-.23535,.49384-.60522s-.05646-.69849-.26636-.73413c-.20996-.03564-.43103,.23523-.49384,.6051s.05646,.69861,.26636,.73425Z"/></g><rect width="40" height="40" style="fill:none;"/></svg>