<svg id="Layer_1" data-name="Layer 1" xmlns="http://www.w3.org/2000/svg" viewBox="0 0 40 40"><defs><style>.cls-1{fill:#93c9ff;}.cls-2{fill:#ff2b4b;}.cls-3{fill:none;}.cls-4{fill:#f0f3f6;}.cls-5{fill:#d0d6de;}</style></defs><rect class="cls-1" x="3.518" y="3.5" width="33" height="33" rx="8"/><path class="cls-2" d="M36.518,21.5V19.162c-.013,0-.023-.007-.036-.007-10.546,0-15.323-6.916-15.519-7.208a1.18,1.18,0,0,0-.979-.524h0a1.179,1.179,0,0,0-.978.521c-.2.295-4.965,7.193-15.485,7.21v2.355a23.969,23.969,0,0,0,6.214-.8v4.77h1.414v-5.2a21.5,21.5,0,0,0,3.417-1.507V29.3h1.414V17.913a20.633,20.633,0,0,0,3.3-2.679V29.8h1.414V15.234a20.6,20.6,0,0,0,3.3,2.68V29.188H25.4V18.767a21.584,21.584,0,0,0,3.028,1.366v5.344h1.415V20.592a23.783,23.783,0,0,0,6.638.918C36.495,21.51,36.505,21.5,36.518,21.5Z"/><rect class="cls-3" x="3.482" y="3.5" width="33" height="33" rx="8"/><path class="cls-4" d="M15.36,29.05c.006-.083.025-.163.025-.248a3.519,3.519,0,0,0-4.217-3.454,5.453,5.453,0,0,0-7.65-1.982V28.5a8,8,0,0,0,8,8h6.129a4.274,4.274,0,0,0-2.287-7.45Z"/><path class="cls-5" d="M28.518,36.5a8,8,0,0,0,8-8V24.49a5.463,5.463,0,0,0-8.955.858,3.512,3.512,0,0,0-4.15,4.123,4.719,4.719,0,0,0-1.668.483,3.359,3.359,0,0,0-6.332-1.071,2.511,2.511,0,0,0-3.451,3.052h0a2.793,2.793,0,0,0-2.334,4.331,8.012,8.012,0,0,0,1.89.234Z"/><rect class="cls-3" x="3.518" y="3.5" width="33" height="33" rx="8"/><rect class="cls-3" width="40" height="40"/></svg>