<?xml version="1.0" encoding="UTF-8"?><svg id="Layer_1" xmlns="http://www.w3.org/2000/svg" viewBox="0 0 40 40"><rect y="0" width="40" height="40" transform="translate(40 40) rotate(-180)" style="fill:none;"/><path d="M37.5614,12.43429C33.27364,4.31855,24.41122-.30591,15.59984,2.12595,6.85677,4.53896,.95432,13.61783,1.71902,23.5116c.36573,4.73183,2.08907,8.94755,4.68402,12.27261,2.55306,3.27138,7.38218,3.66094,10.446,.89693,.04067-.03669,15.86113-15.69536,20.18277-20.2301,.98425-1.03278,1.23154-2.6881,.52958-4.01675Z" style="fill:#ff9c00;"/><g><path d="M17.603,4.87513c-1.89302,.43704-3.34564,1.74146-4.08127,3.38849-.21197,.02542-.42285,.03171-.63564,.08083-2.58149,.59598-4.35188,2.79187-4.56769,5.2964-1.34915,1.40217-1.99144,3.43071-1.52107,5.46812,.1863,.80697,.52949,1.53635,.98831,2.16587-1.15192,1.3823-1.68437,3.25485-1.24839,5.14325,.14583,.63164,.40989,1.19923,.72784,1.72538-.05512,.61227-.04365,1.23818,.10218,1.86982,.73999,3.20526,3.93825,5.20382,7.14358,4.46381,3.20526-.73999,5.20372-3.93831,4.46373-7.14357-.14583-.63164-.40989-1.19923-.72784-1.72538,.05512-.61227,.04365-1.23818-.10218-1.86982-.18629-.80689-.52949-1.53635-.98831-2.16587,.77138-.92565,1.24658-2.06914,1.35228-3.29606,.48019-.49903,.8568-1.08214,1.13861-1.71304,.21204-.02544,.42285-.03171,.63564-.08083,3.20533-.74001,5.2038-3.93833,4.46381-7.14358s-3.93825-5.20382-7.14358-4.46381Z" style="fill:#6e4944;"/><circle cx="11.63151" cy="16.7998" r="1.00044" style="fill:#ffcf9c;"/><circle cx="15.16451" cy="12.49816" r="1.00044" style="fill:#ffcf9c;"/><path d="M12.70715,24.83434c.5734,.01162,1.01815,.49505,.98202,1.06743-.04198,.6651-.22053,1.52324-.80559,2.06149-.58506,.53824-1.45508,.64477-2.12137,.63127-.5734-.01162-1.01815-.49505-.98202-1.06743,.04198-.6651,.22053-1.52324,.80559-2.06149s1.45508-.64477,2.12137-.63127Z" style="fill:#489c5e;"/><path d="M15.07892,21.87796c.21985,.5297-.04402,1.13127-.58264,1.32827-.62587,.22892-1.4834,.41038-2.21143,.09104s-1.1753-1.07316-1.43077-1.68867c-.21985-.5297,.04402-1.13127,.58264-1.32827,.62587-.22892,1.4834-.41038,2.21143-.09104s1.1753,1.07316,1.43077,1.68867Z" style="fill:#489c5e;"/></g><path d="M36.87165,8.098l-.40354-.53396c-1.38398-1.83167-3.1691-3.3638-5.28778-4.24795-1.80694-.75404-3.58394-.97175-5.27976-.58024-7.30388,1.68623-10.32162,13.51852-9.19391,29.70844,.00192,.04244,.00467,.07809,.0053,.12304,.08005,5.74244-4.12266,5.95485-4.12266,5.95485,2.08699-.09821,3.67401-.97551,4.93418-2.23189s0,0,0,0l18.65966-18.6035c2.59881-2.57266,2.89312-6.67119,.68852-9.58879Z" style="fill:#ffd06c;"/></svg>