<svg id="Layer_1" data-name="Layer 1" xmlns="http://www.w3.org/2000/svg" viewBox="0 0 40 40"><defs><style>.cls-1{fill:#6b7683;}.cls-2{fill:#8a94a0;}.cls-3{fill:#e5e9ee;}.cls-4{fill:#b1b3fb;}.cls-5{fill:none;}</style></defs><ellipse class="cls-1" cx="19.437" cy="35.261" rx="7.674" ry="2.239"/><polygon class="cls-1" points="22.107 34.578 16.766 34.578 17.645 30.55 21.228 30.55 22.107 34.578"/><path class="cls-2" d="M35.26,16.449a15.824,15.824,0,0,1-31.647,0Z"/><ellipse class="cls-2" cx="19.437" cy="16.449" rx="15.823" ry="5.06"/><path class="cls-3" d="M30.135,7.651A13.708,13.708,0,0,0,5.729,16.208c0,.183,0,.366.012.547a1.5,1.5,0,0,0,.917,1.32,34.051,34.051,0,0,0,12.779,2.2,34.05,34.05,0,0,0,12.778-2.2,1.5,1.5,0,0,0,.917-1.32c.008-.181.012-.364.012-.547A13.636,13.636,0,0,0,30.135,7.651Z"/><path class="cls-4" d="M30.135,7.678a13.687,13.687,0,0,0-21.4,0,4.15,4.15,0,0,0,4.515,0,3.5,3.5,0,0,1,4.375,0C20.183,9.4,21.8,7.659,21.8,7.659s1.452-1.848,3.791-.019A3.68,3.68,0,0,0,30.135,7.678Z"/><path class="cls-1" d="M28.427,15.449a3.622,3.622,0,0,0,1.084-.574,3.51,3.51,0,0,0,1.341-3.359.642.642,0,0,1,.242-.643l5.018-3.6a.659.659,0,0,0,.138-.937l-.816-1.058a.659.659,0,0,0-.937-.11L29.735,9.032a.745.745,0,0,1-.73.066,3.5,3.5,0,0,0-3.617.424,3.633,3.633,0,0,0-.805.86.484.484,0,0,0,.046.575Z"/><rect class="cls-5" width="40" height="40"/></svg>