<?xml version="1.0" encoding="UTF-8"?><svg id="Layer_1" xmlns="http://www.w3.org/2000/svg" viewBox="0 0 40 40"><g><path d="m6.885,29.447s3.734,1.957,7.998,1.987c4.449.031,9.613-2.086,14.009-2.056,2.911.02,5.24.772,6.353,1.209.335.132.712-.088.712-.408V9.45c0-.309-.203-.586-.529-.707-1.159-.43-4.089-1.367-7.463-1.311-4.38.073-8.925,2.213-13.236,2.213-4.167,0-7.843-1.965-7.843-1.965v21.768Z" fill="#e5e8eb"/><path d="m6.044,36.838c-.553,0-1-.447-1-1V6.162c0-.553.447-1,1-1s1,.447,1,1v29.676c0,.553-.447,1-1,1Z" fill="#333d4b"/><circle cx="6.043" cy="6.162" r="2" fill="#333d4b"/></g><rect width="40" height="40" fill="none"/></svg>