<?xml version="1.0" encoding="UTF-8"?><svg id="Layer_1" xmlns="http://www.w3.org/2000/svg" viewBox="0 0 40 40"><g style="opacity:0;"><rect width="40" height="40" style="fill:none;"/></g><g><polygon points="25.9659 16.09194 27.57976 16.09194 27.57976 12.64762 25.9659 13.74278 25.9659 16.09194" style="fill:#4b596a;"/><path d="M1.52075,21.98522c0-5.7635,8.04516-11.93125,13.80866-11.93125h.9456c.53746,0,.97328,.43548,.97368,.97295l.00274,3.61508c.00041,.53746,.43622,.97295,.97368,.97295h10.579c5.35489,0,9.69589,4.341,9.69589,9.69589v.4688c0,.63603-.51561,1.15164-1.15164,1.15164H3.37621c-1.04117,0-1.88322-.84777-1.87617-1.88892l.0207-3.05714Z" style="fill:#ef4452;"/><rect x="22.67412" y="12.34321" width="7.22371" height="1.29579" rx=".59988" ry=".59988" transform="translate(55.54585 11.09875) rotate(150)" style="fill:#d12030;"/><path d="M1.50749,23.94412H38.39267c-.09538-.6744-.25953-1.32503-.48625-1.94737H1.52068l-.01319,1.94737Z" style="fill:#f1f3f5;"/><g><circle cx="31.04665" cy="24.95102" r="4.995" style="fill:#313d4c;"/><circle cx="31.04665" cy="24.95103" r="1.998" style="fill:#6b7683;"/></g><g><circle cx="8.45855" cy="24.95102" r="4.995" style="fill:#313d4c;"/><circle cx="8.45855" cy="24.95103" r="1.998" style="fill:#6b7683;"/></g></g></svg>