<?xml version="1.0" encoding="UTF-8"?><svg id="Layer_1" xmlns="http://www.w3.org/2000/svg" viewBox="0 0 40 40"><path d="m36.043,15.786c.215.446.331.94.331,1.448v5.059l-8.405-6.684-3.467,4.57c-.149.196-.459.047-.4-.191l1.544-6.226-4.609-3.665c-.607-.483-1.467-.483-2.075,0L3.626,22.293v4.208l4.967-3.551c.101-.073.242-.05.315.052l2.088,2.893c.057.08.159.113.253.083l5.972-1.923c.262-.084.419.284.177.415l-6.847,3.681c-.098.053-.221.026-.288-.063l-1.792-2.381c-.076-.101-.221-.12-.321-.041l-4.523,3.573v3.695c0,2.209,1.791,4,4,4h9.041v-6.255c0-.92.746-1.667,1.666-1.667h3.335c.92,0,1.666.746,1.666,1.667v6.255h4.596l2.686-5.468c.079-.161-.052-.346-.231-.324l-3.721.455c-.186.023-.317-.177-.223-.339l2.372-4.044c.131-.223.473-.087.416.165l-.492,2.16c-.036.156.099.299.257.273l4.108-.669c.174-.028.313.145.246.309l-3.051,7.481h2.076c2.209,0,4-1.791,4-4v-15.697c0-.508-.116-1.002-.331-1.449Z" fill="#d0d5da"/><g><path d="m23.334,30.677c0-.92-.746-1.667-1.666-1.667h-3.335c-.92,0-1.666.746-1.666,1.667v6.255h-.628,7.922-.627v-6.255Z" fill="#6b7683"/><path d="m36.37,17.23v5.06l-8.4-6.68-3.47,4.57c-.15.2-.46.05-.4-.19l1.55-6.23-4.61-3.66c-.61-.49-1.47-.49-2.08,0L3.63,22.29v-5.06c0-1.01.46-1.97,1.25-2.6l8.32-6.62,5.76-4.58c.61-.48,1.47-.48,2.08,0l8.3,6.6,5.77,4.59c.2.16.38.34.54.54.07.08.11.18.17.27.08.12.16.23.22.36.22.44.33.94.33,1.44Z" fill="#6b7683"/><path d="m8.47,25.705l1.792,2.381c.067.089.19.116.288.063l6.847-3.681c.243-.131.086-.499-.177-.415l-5.972,1.923c-.093.03-.195-.003-.253-.083l-2.088-2.893c-.073-.101-.214-.124-.315-.052l-4.967,3.551v2.736l4.523-3.573c.1-.079.245-.06.321.041Z" fill="#6b7683"/><path d="m33.103,29.141l-4.108.669c-.159.026-.293-.117-.257-.273l.492-2.16c.057-.252-.285-.388-.416-.165l-2.372,4.044c-.095.162.037.362.223.339l3.721-.455c.178-.022.31.163.231.324l-2.686,5.468h2.368l3.051-7.481c.067-.164-.071-.337-.246-.309Z" fill="#6b7683"/></g></svg>