<svg id="Layer_1" data-name="Layer 1" xmlns="http://www.w3.org/2000/svg" viewBox="0 0 40 40"><defs><style>.cls-1{fill:none;}.cls-2{fill:#86584a;}.cls-3{fill:#0a9f60;}.cls-4{fill:#23b169;}.cls-5{fill:#68c76f;}</style></defs><rect class="cls-1" width="40" height="40"/><rect class="cls-2" x="18.054" y="9.273" width="3.892" height="29.044" rx="0.973"/><path class="cls-3" d="M18.543,13.633,5.913,29.383A1.868,1.868,0,0,0,7.37,32.419H32.63a1.868,1.868,0,0,0,1.457-3.036l-12.63-15.75A1.867,1.867,0,0,0,18.543,13.633Z"/><path class="cls-4" d="M18.868,7.7,8.389,20.77a1.451,1.451,0,0,0,1.132,2.358H30.479a1.451,1.451,0,0,0,1.132-2.358L21.132,7.7A1.451,1.451,0,0,0,18.868,7.7Z"/><path class="cls-5" d="M19.159,2.721,10.953,12.954a1.078,1.078,0,0,0,.841,1.753H28.206a1.078,1.078,0,0,0,.841-1.753L20.841,2.721A1.078,1.078,0,0,0,19.159,2.721Z"/></svg>