<?xml version="1.0" encoding="UTF-8"?><svg id="Layer_1" xmlns="http://www.w3.org/2000/svg" viewBox="0 0 40 40"><g><path d="M11.39962,17.92116l-5.61051,.86198L3.07519,3.09091c-.06064-.35065,.25392-.66229,.59929-.57655,1.72455,.42815,6.09001,2.76839,7.72514,15.4068Z" style="fill:#e60000;"/><path d="M5.70193,18.69147l5.61953,.91115L14.60806,3.58304c.11785-.57441-.44109-1.05748-.98837-.84695-1.99407,.76709-5.93845,3.8261-7.91776,15.95538Z" style="fill:#f40;"/><path d="M23.64418,5.18342c1.64935,.30989,3.28719,.88302,4.85981,1.74102,7.00675,3.82276,10.20859,12.44647,7.43224,19.92978-3.26019,8.78746-13.03511,12.08178-21.55781,8.45016-5.29051-2.25435-8.89039-6.08288-9.7952-11.35864-.0225-.13121,.05172-.26209,.17516-.31194l6.3965-2.58303s3.06185,3.19883,5.73897,3.90184c1.77371,.46577,3.67269-.70181,4.29961-2.48003,.45263-1.28384,.02095-2.78571-1.07217-3.59702-.11961-.08878-.2421-.16805-.36677-.2381-.89282-.50171-1.27408-1.59553-1.03654-2.59172l2.17163-9.10754c.29379-1.23211,1.50971-1.98866,2.75458-1.75476Z" style="fill:#f40;"/><path d="M11.36954,19.32751l-.21467,1.72326-6.43907,2.60022,.55561-4.98173c.03842-.26749,.2924-.44876,.55785-.39814l5.54027,1.05639Z" style="fill:#e60000;"/><path d="M20.96068,19.85712c.43252,.78609,.53851,1.74831,.2328,2.61545-.06733,.191-.15545,.36123-.24975,.52463,3.69974,1.60377,7.53013,5.89528,8.18533,12.10355,3.01231-1.83462,5.47133-4.64589,6.80715-8.24653,1.15916-3.12439,1.26324-6.44421,.4964-9.5338-7.33225-3.19555-13.44284,.89271-15.47192,2.53671Z" style="fill:#ff9c00;"/><path d="M20.94372,22.9972c-.78372,1.35753-2.43505,1.77458-4.01818,1.3588-.44613-.11717-.90333-.28765-1.35597-.48991-.54071-.24161-1.17328-.12342-1.58396,.30329-1.99016,2.06784-3.52601,5.44177-4.42534,7.78202-.2047,.53266-.07191,1.14253,.35737,1.5185,1.26216,1.10543,2.71623,2.03448,4.34369,2.72796,5.03051,2.14356,10.52842,1.54577,14.86773-1.09711-.6552-6.20827-4.48559-10.49977-8.18533-12.10355Z" style="fill:#ffb72d;"/><path d="M28.50399,6.92446c-1.5726-.85802-3.21045-1.43118-4.8598-1.74105-1.24485-.2339-2.46083,.52266-2.75461,1.75475l-2.17164,9.10757c-.23749,.99621,.14374,2.08999,1.03658,2.59174,.1247,.07002,.24713,.1493,.36674,.23808,.35477,.26331,.63162,.60388,.83942,.98155,2.02908-1.644,8.13967-5.73226,15.47192-2.53671-1.06985-4.31031-3.84729-8.16926-7.92861-10.39595Z" style="fill:#ffb72d;"/></g><rect width="40" height="40" style="fill:none;"/></svg>