<svg id="Layer_1" data-name="Layer 1" xmlns="http://www.w3.org/2000/svg" viewBox="0 0 40 40"><defs><style>.cls-1{fill:#fff;opacity:0;}.cls-2{fill:#3d3d3d;fill-rule:evenodd;}.cls-3{fill:none;stroke:#767676;stroke-miterlimit:10;stroke-width:2.478px;}.cls-4{fill:#00bc79;}.cls-5{fill:#ef4452;}.cls-6{fill:#64a7ff;}.cls-7{fill:#ffc84d;}</style></defs><rect class="cls-1" width="40" height="40"/><path class="cls-2" d="M38.829,26.683,35.951,12.11l-.005-.018,0-.036h-.006A8.719,8.719,0,0,0,27.66,5.107H12.34a8.719,8.719,0,0,0-8.275,6.949H4.059l0,.036,0,.018L1.171,26.683a6.2,6.2,0,0,0,11.47,4.384l2-3.347h0L15.784,25.8a1.985,1.985,0,0,1,1.7-.967h5.026a1.985,1.985,0,0,1,1.7.967l1.147,1.925h0l2,3.347a6.191,6.191,0,0,0,11.47-4.384Z"/><line class="cls-3" x1="8.559" y1="14.895" x2="17.78" y2="14.895"/><line class="cls-3" x1="13.17" y1="10.284" x2="13.17" y2="19.505"/><circle class="cls-4" cx="24.314" cy="14.895" r="1.449"/><circle class="cls-5" cx="30.414" cy="14.895" r="1.449"/><circle class="cls-6" cx="27.364" cy="11.845" r="1.449"/><circle class="cls-7" cx="27.364" cy="17.945" r="1.449"/></svg>