<?xml version="1.0" encoding="UTF-8"?><svg id="Layer_1" xmlns="http://www.w3.org/2000/svg" viewBox="0 0 40 40"><rect width="40" height="40" fill="none"/><g><path d="m29.625,26.944l-2.896-.716c-.55-.136-.885-.692-.749-1.241l4.409-17.843c.183-.739,1.078-1.028,1.658-.536l2.54,2.154c.297.252.426.65.332,1.028l-4.053,16.404c-.136.55-.692.885-1.241.749Z" fill="#fa0"/><path d="m18.943,26.07h2.983c.566,0,1.025-.459,1.025-1.025V6.665c0-.761-.8-1.257-1.481-.918l-2.983,1.482c-.349.173-.569.529-.569.918v16.897c0,.566.459,1.025,1.025,1.025Z" fill="#fa0"/><path d="m12.086,26.366l-2.953.418c-.561.079-1.079-.311-1.159-.871L5.397,7.715c-.107-.753.616-1.356,1.338-1.117l3.161,1.049c.369.123.638.444.692.829l2.368,16.73c.079.561-.311,1.079-.871,1.159Z" fill="#fa0"/><path d="m17.894,23.551l-4.325-.594c-.566.024-1.043-.416-1.067-.981l-.696-16.636c-.016-.373.173-.725.492-.919l2.911-1.77c.667-.405,1.524.053,1.557.833l1.127,20.067Z" fill="#ffcd00"/><path d="m22.69,22.848l4.465,1.203,2.458-19.768c.116-.752-.599-1.364-1.324-1.133l-3.174,1.009c-.371.118-.643.436-.702.821l-2.579,16.699c-.086.56.297,1.083.857,1.17Z" fill="#ffcd00"/><path d="m32.199,14.59c-.635,0-1.202.334-1.589.837-1.662,2.159-5.782,3.689-10.61,3.689s-8.948-1.53-10.61-3.689c-.388-.503-.954-.837-1.589-.837h-2.814c-.626,0-1.101.562-.998,1.179l3.362,20.042c.163.975,1.007,1.689,1.995,1.689h21.307c.988,0,1.832-.714,1.995-1.689l3.362-20.042c.103-.617-.372-1.179-.998-1.179h-2.814Z" fill="#e32939"/></g></svg>