<?xml version="1.0" encoding="UTF-8"?><svg id="Layer_1" xmlns="http://www.w3.org/2000/svg" viewBox="0 0 40 40"><g><g><path d="M27.79566,12.03064l-8.55902,10.67376c-.7024,.87594-.0788,2.17533,1.04399,2.17533h17.11805c1.12278,0,1.74638-1.29938,1.04399-2.17533l-8.55902-10.67376c-.53569-.66804-1.55229-.66804-2.08797,0Z" style="fill:#4fc578;"/><path d="M28.02872,7.52354l-7.10748,8.86357c-.54559,.68039-.06121,1.68969,.81092,1.68969h14.21496c.87213,0,1.35651-1.0093,.81092-1.68969l-7.10748-8.86357c-.4161-.5189-1.20574-.5189-1.62184,0Z" style="fill:#4fc578;"/><path d="M28.23697,3.93991l-5.56944,6.94552c-.40548,.50567-.04549,1.25578,.60268,1.25578h11.13888c.64816,0,1.00816-.75011,.60268-1.25578l-5.56944-6.94552c-.30924-.38565-.89611-.38565-1.20535,0Z" style="fill:#4fc578;"/></g><g><path d="M19.34487,15.02382l-8.55902,10.67376c-.7024,.87594-.0788,2.17533,1.04399,2.17533H28.94788c1.12278,0,1.74638-1.29938,1.04399-2.17533l-8.55902-10.67376c-.53569-.66804-1.55229-.66804-2.08797,0Z" style="fill:#45aa1f;"/><path d="M19.57794,10.51673l-7.10748,8.86357c-.54559,.68039-.06121,1.68969,.81092,1.68969h14.21496c.87213,0,1.35651-1.0093,.81092-1.68969l-7.10748-8.86357c-.4161-.5189-1.20574-.5189-1.62184,0Z" style="fill:#53ba24;"/><path d="M19.78618,6.9331l-5.56944,6.94552c-.40548,.50567-.04549,1.25578,.60268,1.25578h11.13888c.64816,0,1.00816-.75011,.60268-1.25578l-5.56944-6.94552c-.30924-.38565-.89611-.38565-1.20535,0Z" style="fill:#23b169;"/></g><g><path d="M28.27994,13.26377H11.635c-.62308,0-1.04547,.36816-1.2964,.93848L1.90679,33.36536c-.25385,.57694,.1687,1.22452,.79902,1.22452H37.35096c.63032,0,1.05287-.64758,.79902-1.22452L29.71817,14.20225c-.25094-.57031-.81516-.93848-1.43824-.93848Z" style="fill:#ff8100;"/><path d="M21.16004,33.36334L12.71397,14.16807c-.21732-.49442-.68577-.9043-1.19676-.9043-.53241,.03438-.97944,.40988-1.19676,.9043L1.87437,33.36334c-.25425,.57789,.16908,1.22654,.80033,1.22654H20.35971c.63126,0,1.05459-.64866,.80033-1.22654Z" style="fill:#ff9e00;"/><path d="M15.47115,34.58988c-3.17069,0-3.95389-19.50483-3.95389-19.50483,0,0-.7832,19.50483-3.95389,19.50483h7.90779Z" style="fill:#965343;"/></g></g><rect width="40" height="40" style="fill:none;"/></svg>