<?xml version="1.0" encoding="UTF-8"?><svg id="Layer_1" xmlns="http://www.w3.org/2000/svg" viewBox="0 0 40 40"><g><rect x="3.5" y="3.5" width="33" height="33" rx="6" ry="6" fill="#3d3d3d"/><rect x="3.5" y="3.5" width="33" height="23" rx="6" ry="6" fill="#767676"/><g><path d="m18,15.896H7.275c-.552,0-1,.448-1,1v3.501c0,2.202,1.785,3.987,3.987,3.987h7.737c.552,0,1-.448,1-1v-6.489c0-.552-.448-1-1-1Z" fill="#292929"/><path d="m19,12.896v-6.281c0-.552-.448-1-1-1h-7.737c-2.202,0-3.987,1.785-3.987,3.987v3.294c0,.552.448,1,1,1h10.725c.552,0,1-.448,1-1Z" fill="#292929"/></g><path d="m29.738,5.615h-7.738c-.552,0-1,.448-1,1v16.77c0,.552.448,1,1,1h7.737c2.202,0,3.987-1.785,3.987-3.987v-10.796c0-2.202-1.785-3.987-3.987-3.987Z" fill="#e5e8eb"/><circle cx="16.49" cy="8.254" r="1.451" fill="#ec6700"/><circle cx="16.49" cy="11.593" r="1.451" fill="#ec6700"/><rect x="11.854" y="6.804" width="2.558" height="6.24" rx="1.279" ry="1.279" fill="#ffcd00"/><rect x="11.962" y="13.767" width="2.684" height="9.273" rx="1.317" ry="1.317" transform="translate(31.707 5.099) rotate(90)" fill="#03905a"/><rect x="11.962" y="17.083" width="2.684" height="9.273" rx="1.317" ry="1.317" transform="translate(35.023 8.415) rotate(90)" fill="#03905a"/><rect x="8.668" y="6.804" width="2.558" height="6.24" rx="1.279" ry="1.279" fill="#ffcd00"/></g><rect width="40" height="40" fill="none"/></svg>