<svg id="Layer_1" data-name="Layer 1" xmlns="http://www.w3.org/2000/svg" viewBox="0 0 40 40"><defs><style>.cls-1,.cls-2{fill:none;}.cls-2{stroke:#6b7683;stroke-miterlimit:10;stroke-width:2.966px;}.cls-3{fill:#313d4c;}.cls-4{fill:#6b7683;}.cls-5{fill:#ef4452;}.cls-6{fill:#4b596a;}</style></defs><rect class="cls-1" width="40" height="40"/><line class="cls-2" x1="25.623" y1="19.632" x2="32.359" y2="26.368"/><circle class="cls-3" cx="32.647" cy="26.656" r="5.853"/><circle class="cls-4" cx="32.647" cy="26.656" r="2.341"/><path class="cls-5" d="M37.751,14.359H20.087A3.659,3.659,0,0,1,17.5,13.288L15.223,11.01a1.829,1.829,0,0,0-1.293-.536H3.333A1.83,1.83,0,0,0,2.039,13.6L16.826,28.332A3.66,3.66,0,0,0,19.408,29.4h4.386a1.829,1.829,0,0,0,1.829-1.829v-.622a7.316,7.316,0,0,1,7.316-7.316h2.983A1.829,1.829,0,0,0,37.751,17.8Z"/><path class="cls-6" d="M26.778,14.381V8.663a1.173,1.173,0,0,1,1.173-1.172h.7a9.465,9.465,0,0,1,9.1,6.89Z"/><circle class="cls-3" cx="8.688" cy="26.656" r="5.853"/><circle class="cls-4" cx="8.688" cy="26.656" r="2.341"/></svg>