<?xml version="1.0" encoding="UTF-8"?><svg id="Layer_1" xmlns="http://www.w3.org/2000/svg" viewBox="0 0 40 40"><path d="M35.45575,29.88745c-4.11945,3.98804-13.10126,1.5166-20.06146-5.51978-6.92023-6.99609-9.23022-15.86621-5.20776-19.88745l-.00549-.00537-2.43201,2.43188C2.78815,11.86768,3.2973,24.09302,4.0144,30.79126c.2937,2.74365,2.45074,4.90063,5.1944,5.19458,6.69836,.7168,18.92358,1.22607,23.88446-3.73486l2.43207-2.43188-.00549-.00562c-.02325,.02344-.04041,.05103-.06409,.07397Z" style="fill:#ffcd00;"/><path d="M15.39429,24.36768c6.96021,7.03638,15.94202,9.50781,20.06146,5.51978,.02368-.02295,.04083-.05054,.06409-.07397,4.02246-4.02124,1.71246-12.89111-5.20776-19.88721C23.35187,2.88989,14.37006,.41846,10.25061,4.40625c-.02368,.02295-.04083,.05078-.06409,.07397-4.02246,4.02124-1.71246,12.89136,5.20776,19.88745ZM11.45276,5.73755c3.47723-3.47729,11.40228-1.18994,17.70105,5.10864,6.29877,6.29883,8.58606,14.22388,5.10883,17.70117-3.47729,3.47729-11.40228,1.18994-17.70105-5.10889S7.97552,9.21484,11.45276,5.73755Z" style="fill:#ffe63b;"/><g><path d="M25.45001,18.65991l7.69153,7.69165c.88397-1.3291,.97339-3.23462,.39502-5.375-.03888-.00488-.0777-.00537-.11658-.0166l-7.96997-2.30005Z" style="fill:#ffc100;"/><path d="M19.03003,6.6001c-.0127-.04639-.0061-.09131-.01001-.13745-2.13904-.57739-4.04327-.48755-5.37146,.396l7.67145,7.67139-2.28998-7.92993Z" style="fill:#ffc100;"/><path d="M32.95062,19.25635c-.9035-2.1875-2.42938-4.5127-4.47308-6.67383l-4.17755,4.17749,8.65063,2.49634Z" style="fill:#ffc100;"/><path d="M27.41748,11.52246c-2.17072-2.05273-4.50745-3.58398-6.70319-4.48584l2.50568,8.68335,4.19751-4.19751Z" style="fill:#ffc100;"/><path d="M26.67999,27.69995c.01221,.04077,.00592,.08032,.01105,.12109,2.15039,.5813,4.065,.48999,5.39484-.40527l-7.71588-7.71582,2.31,8Z" style="fill:#ffc100;"/><path d="M18.29767,22.76221c2.16626,2.04858,4.49768,3.57715,6.68951,4.47998l-2.49719-8.67212-4.19232,4.19214Z" style="fill:#ffc100;"/><path d="M20.27002,15.6001l-7.68567-7.68604c-.89355,1.32739-.98615,3.2373-.40863,5.38281,.04828,.00439,.09576-.00146,.14429,.01318l7.95001,2.29004Z" style="fill:#ffc100;"/><path d="M12.75006,14.99512c.90173,2.19678,2.43359,4.53516,4.48767,6.70703l4.20227-4.20215-8.68994-2.50488Z" style="fill:#ffc100;"/></g><path d="M29.15002,10.8501C22.85999,4.55005,14.92999,2.26001,11.45001,5.73999c-3.47003,3.46997-1.19,11.40015,5.10999,17.69995,6.29999,6.30005,14.22998,8.58008,17.70001,5.11011,3.47998-3.47998,1.19-11.40015-5.10999-17.69995Zm3.79999,8.40991l-8.65002-2.5,4.17999-4.17993c2.04004,2.15991,3.57001,4.48999,4.47003,6.67993Zm-5.53003-7.73999l-4.20001,4.19995-2.50995-8.67993c2.19995,.8999,4.53998,2.42993,6.70996,4.47998Zm-8.39996-5.06006c0,.05005,0,.09009,.01001,.14014l2.28998,7.92993-7.66998-7.67017c1.32996-.87988,3.22998-.96973,5.37-.3999Zm-6.44,1.44995l7.69,7.69019-7.95001-2.29004c-.04999-.01001-.10004-.01001-.14001-.01001-.58002-2.15015-.48999-4.06006,.40002-5.39014Zm.16998,7.09009l8.69,2.5-4.20001,4.19995c-2.06-2.16992-3.58997-4.51001-4.48999-6.69995Zm5.54999,7.76001l4.19-4.18994,2.5,8.66992c-2.19-.90015-4.52997-2.42993-6.69-4.47998Zm8.39001,5.06006c0-.04004,0-.08008-.01001-.12012l-2.31-8,7.72003,7.71997c-1.33002,.89014-3.25,.97998-5.40002,.40015Zm6.45001-1.46997l-7.69-7.69019,7.96997,2.30005c.04004,.01001,.08002,.01001,.12,.02002,.57001,2.14014,.49005,4.04004-.39996,5.37012Z" style="fill:#fff9d9;"/></svg>