<?xml version="1.0" encoding="UTF-8"?><svg id="Layer_1" xmlns="http://www.w3.org/2000/svg" viewBox="0 0 40 40"><g><path d="M34.36243,6.67058c-1.41599,1.26594-3.65502,1.20755-4.69269,1.09791-.32259-.03409-.58077-.32287-.57866-.64725,.0068-1.04342,.19854-3.27499,1.61453-4.54093s3.65502-1.20755,4.69269-1.09791c.32259,.03409,.58077,.32287,.57866,.64725-.0068,1.04342-.19854,3.27499-1.61453,4.54093Z" style="fill:#006956;"/><path d="M32.04205,28.79636l.00126,.00085,.00224-.01288c.19261-.70526,.31509-1.42661,.37048-2.15634,.29753-4.10547,.98961-8.22583,2.12442-12.36353l-.00034-.0002c.73883-2.8692-.77553-5.57001-3.67979-7.52888s-6.30499-2.5732-8.68844-.81326l-.00028-.00019c-3.28056,2.53601-6.83673,4.73743-10.66949,6.60254-.6541,.3241-1.27554,.70702-1.85601,1.14861l-.01362,.00843,.00155,.00104c-.93915,.71653-1.7721,1.58308-2.45821,2.60033-3.82681,5.67371-1.69606,13.80265,4.75911,18.15654,6.45517,4.35389,14.79032,3.28401,18.61713-2.38969,.68612-1.01725,1.1775-2.11417,1.49-3.25337Z" style="fill:#ffb72d;"/></g><rect width="40" height="40" style="fill:none;"/></svg>