<svg id="Layer_1" data-name="Layer 1" xmlns="http://www.w3.org/2000/svg" viewBox="0 0 40 40"><defs><style>.cls-1{fill:#767676;}.cls-2{fill:#3d3d3d;}.cls-3{fill:#fff;}.cls-4{fill:#ffcd00;}.cls-5{fill:none;}</style></defs><path class="cls-1" d="M2.016,37.863l.871.871a1.71,1.71,0,0,0,2.437-.02l8.149-8.427a.994.994,0,0,0-.011-1.393l-1.606-1.606a.994.994,0,0,0-1.393-.011L2.037,35.426A1.709,1.709,0,0,0,2.016,37.863Z"/><path class="cls-1" d="M7.609,30.039l2.854-2.762a.994.994,0,0,1,1.393.011l1.606,1.606a.994.994,0,0,1,.011,1.393l-2.76,2.855Z"/><circle class="cls-2" cx="21.574" cy="18.574" r="16.068"/><path class="cls-3" d="M10.613,15.018A7.1,7.1,0,0,1,19.53,9.242a7.663,7.663,0,0,0,4.087,0,7.1,7.1,0,0,1,8.933,5.889,7.082,7.082,0,0,1-2.472,6.39,6.944,6.944,0,0,0-2,2.96,7.094,7.094,0,0,1-13.435-.3A6.74,6.74,0,0,0,12.8,21.288,7.092,7.092,0,0,1,10.613,15.018Z"/><circle class="cls-4" cx="21.574" cy="18.574" r="5.219"/><rect class="cls-5" width="40" height="40" transform="translate(40 40) rotate(-180)"/></svg>