<svg id="Layer_1" data-name="Layer 1" xmlns="http://www.w3.org/2000/svg" viewBox="0 0 40 40"><defs><style>.cls-1{fill:none;}.cls-2{fill:#ffda16;}.cls-3{fill:#ffcd00;}.cls-4{fill:#3d3d3d;}</style></defs><rect class="cls-1" width="40" height="40"/><path class="cls-2" d="M26.922,7.165v16.8a1.986,1.986,0,0,1-1.592,1.991,1.916,1.916,0,0,1-2.236-1.889V13.084a1,1,0,0,0-1-1H2.45a1,1,0,0,0-1,1v2.072a1,1,0,0,0,1,1h0a5.485,5.485,0,0,1,5.485,5.485v3.7A12.151,12.151,0,0,0,19.6,37.63,11.893,11.893,0,0,0,31.72,25.74V2.368A4.8,4.8,0,0,0,26.922,7.165Z"/><ellipse class="cls-3" cx="26.917" cy="8.024" rx="1.157" ry="1.998"/><ellipse class="cls-3" cx="26.917" cy="13.024" rx="1.157" ry="1.998"/><ellipse class="cls-3" cx="26.917" cy="18.024" rx="1.157" ry="1.998"/><path class="cls-4" d="M31.72,2.368h4.835a2,2,0,0,1,2,2v0a2,2,0,0,1-2,2H31.72a0,0,0,0,1,0,0V2.368A0,0,0,0,1,31.72,2.368Z"/></svg>