<?xml version="1.0" encoding="UTF-8"?><svg id="Layer_1" xmlns="http://www.w3.org/2000/svg" viewBox="0 0 40 40"><rect y="0" width="40" height="40" style="fill:none;"/><g><rect x="3.5" y="3.5" width="33" height="33" rx="8" ry="8" style="fill:#2e3d51;"/><g><path d="M18.94795,9.44373c-.00354,.58343,1.04053,6.09194,1.04053,6.09194,0,0,1.06873-5.49567,1.07228-6.0791s-.46655-1.05928-1.04998-1.06282-1.05928,.46655-1.06282,1.04998Z" style="fill:#ef4452;"/><path d="M10.33197,15.63297c.5035,.29479,5.79604,2.14485,5.79604,2.14485,0,0-4.22502-3.67338-4.72852-3.96817-.5035-.29479-1.15063-.12559-1.44542,.3779s-.12559,1.15063,.3779,1.44542Z" style="fill:#ef4452;"/><path d="M11.38402,26.18924c.50704-.28865,4.75551-3.94709,4.75551-3.94709,0,0-5.29376,1.82229-5.8008,2.11093s-.68409,.93368-.39544,1.44072,.93368,.68409,1.44072,.39544Z" style="fill:#ef4452;"/><path d="M21.05205,30.55627c.00354-.58343-1.04053-6.09194-1.04053-6.09194,0,0-1.06873,5.49567-1.07228,6.0791s.46655,1.05928,1.04998,1.06282,1.05928-.46655,1.06282-1.04998Z" style="fill:#ef4452;"/><path d="M29.66803,24.36703c-.5035-.29479-5.79604-2.14485-5.79604-2.14485,0,0,4.22502,3.67338,4.72852,3.96817s1.15063,.12559,1.44542-.3779,.12559-1.15063-.3779-1.44542Z" style="fill:#ef4452;"/><path d="M28.61598,13.81076c-.50704,.28865-4.75551,3.94709-4.75551,3.94709,0,0,5.29376-1.82229,5.8008-2.11093s.68409-.93368,.39544-1.44072-.93368-.68409-1.44072-.39544Z" style="fill:#ef4452;"/></g><g><path d="M15.28439,13.43545c.21992,.38632,3.00731,3.62325,3.00731,3.62325,0,0-1.38841-4.03334-1.60833-4.41965s-.71138-.52121-1.09769-.30129-.52121,.71138-.30129,1.09769Z" style="fill:#fa878f;"/><path d="M11.95712,20.80156c.44452,.0027,4.64148-.79278,4.64148-.79278,0,0-4.18718-.81427-4.6317-.81697s-.80707,.35547-.80977,.79999,.35547,.80707,.79999,.80977Z" style="fill:#fa878f;"/><path d="M16.67274,27.36612c.2246-.38362,1.63417-4.41603,1.63417-4.41603,0,0-2.79877,3.21907-3.02337,3.60268s-.09569,.87667,.28793,1.10127,.87667,.09569,1.10127-.28793Z" style="fill:#fa878f;"/><path d="M24.71561,26.56455c-.21992-.38632-3.00731-3.62325-3.00731-3.62325,0,0,1.38841,4.03334,1.60833,4.41965s.71138,.52121,1.09769,.30129,.52121-.71138,.30129-1.09769Z" style="fill:#fa878f;"/><path d="M28.04288,19.19844c-.44452-.0027-4.64148,.79278-4.64148,.79278,0,0,4.18718,.81427,4.6317,.81697s.80707-.35547,.80977-.79999-.35547-.80707-.79999-.80977Z" style="fill:#fa878f;"/><path d="M23.32726,12.63388c-.2246,.38362-1.63417,4.41603-1.63417,4.41603,0,0,2.79877-3.21907,3.02337-3.60268s.09569-.87667-.28793-1.10127-.87667-.09569-1.10127,.28793Z" style="fill:#fa878f;"/></g><circle cx="20" cy="20" r="1.5" style="fill:#fff;"/></g></svg>