<svg id="Layer_1" data-name="Layer 1" xmlns="http://www.w3.org/2000/svg" viewBox="0 0 40 40"><defs><style>.cls-1{fill:#fa0;}.cls-2{fill:#ffcd00;}.cls-3{fill:#ff8000;}.cls-4{fill:#ec6700;}.cls-5{fill:#d12030;}.cls-6{fill:none;}</style></defs><rect class="cls-1" x="3.5" y="3.5" width="33" height="33" rx="8"/><circle class="cls-2" cx="20" cy="20" r="7"/><path class="cls-3" d="M22.963,21.109l10,9.5a1.81,1.81,0,0,1-1.246,3.122H6.922L20.208,21.109A2,2,0,0,1,22.963,21.109Z"/><path class="cls-4" d="M3.65,18.414A1.639,1.639,0,0,0,3.5,18.3V28.5a8,8,0,0,0,8,8H22.692Z"/><path class="cls-5" d="M31.106,22.544a2,2,0,0,0-2.754,0L13.658,36.5H28.5a8,8,0,0,0,8-8v-.833Z"/><rect class="cls-6" x="3.5" y="3.5" width="33" height="33" rx="8"/><rect class="cls-6" width="40" height="40"/></svg>