<?xml version="1.0" encoding="UTF-8"?><svg id="Layer_1" xmlns="http://www.w3.org/2000/svg" viewBox="0 0 40 40"><rect width="40" height="40" style="fill:none;"/><g><path d="M23.56433,5.44312c.42883-.42896,.42883-1.12427,0-1.55298-.42889-.42871-1.12427-.42871-1.5531,0-.42889,.42871-.42889,1.12402,0,1.55298,.42883,.42871,1.12421,.42871,1.5531,0Z" style="fill:#fa0;"/><path d="M26.77002,7.84082c-.11768,.41113,.12061,.83984,.53174,.95801,.07129,.01953,.14307,.0293,.21338,.0293,.33691,0,.64697-.22168,.74414-.56152,.43164-1.51172,.40869-3.10742-.06641-4.61523-.12842-.40918-.56348-.63379-.97168-.50586-.40771,.12793-.63428,.56348-.50586,.9707,.38379,1.21777,.40283,2.50586,.05469,3.72461Z" style="fill:#93c9ff;"/><path d="M29.96143,10.6416c-.34326,.1416-.50684,.53418-.36572,.87793,.1416,.34277,.53271,.50684,.87744,.36621,2.47217-1.02051,4.13086,.64746,4.72949,1.41016,.13232,.16895,.32959,.25684,.5293,.25684,.14502,0,.29102-.04688,.41406-.14258,.29248-.22949,.34375-.65234,.11426-.94434-1.63867-2.09082-3.99414-2.77051-6.29883-1.82422Z" style="fill:#ffd06c;"/><path d="M37.00494,8.80347c-.48846,0-.88446,.396-.88446,.88452,0,.48828,.396,.88428,.88446,.88428,.48853,0,.88446-.396,.88446-.88428,0-.48853-.39594-.88452-.88446-.88452Z" style="fill:#ffc84d;"/><g><circle cx="19.54382" cy="9.80225" r=".88437" style="fill:#c8e1ff;"/><path d="M32.08997,14.84497c-.48846,0-.88446,.396-.88446,.88452,0,.48828,.396,.88428,.88446,.88428,.48853,0,.88446-.396,.88446-.88428,0-.48853-.39594-.88452-.88446-.88452Z" style="fill:#c8e1ff;"/></g><path d="M23.90784,11.28345l-.05353,.04443c-.29291,.24194-.59167,.4751-.89514,.69824-.12939,.09521-.25793,.19165-.38947,.28394-.39331,.2749-.79517,.53906-1.21112,.78833-.03168,.01904-.06128,.04028-.09308,.05908-.44281,.26196-.90521,.50757-1.37891,.74487-.15656,.07861-.31866,.15381-.479,.22974-.34424,.16357-.69836,.32275-1.06134,.47632-.17426,.07397-.34717,.14819-.52606,.21997-.46124,.18506-.93805,.36475-1.43268,.53857-.07465,.02612-.14331,.0542-.21875,.08032l-.00085,.00024c.2829,1.70459,1.07422,3.34106,2.3894,4.65601,1.31525,1.31519,2.95197,2.10645,4.6568,2.38916h.00006c.02716-.07861,.05646-.15039,.08386-.22852,.17273-.49121,.35126-.96484,.5351-1.4231,.07172-.17871,.14612-.35156,.21979-.52563,.15405-.36377,.3136-.71875,.47748-1.06348,.07574-.15967,.15039-.3208,.22852-.47656,.23773-.47412,.48334-.93677,.74573-1.37988,.01831-.03101,.039-.05957,.0575-.09058,.24963-.41675,.51453-.81958,.79022-1.21362,.09174-.1311,.18811-.25928,.28296-.38818,.22345-.30371,.45679-.60254,.69891-.89575l.04449-.05347-3.47089-3.47046Z" style="fill:#ffd06c;"/><g><path d="M16.16791,15.44751l.00085-.00024c-1.27209,.43848-2.65851,.84692-4.1922,1.24854-4.6554,1.21973-8.27374,6.17505-10.04852,9.56567-.7771,1.48462-.47095,3.30566,.71411,4.49048l5.26532,5.26465c1.185,1.18481,3.00623,1.49097,4.49109,.71387,3.39111-1.77441,8.34717-5.39233,9.56696-10.04712,.40173-1.53296,.81018-2.91895,1.2486-4.19067-1.70483-.28271-3.34155-1.07397-4.6568-2.38916-1.31519-1.31494-2.10651-2.95142-2.3894-4.65601Z" style="fill:#23b169;"/><path d="M25.9118,8.96729c-.20233-.20239-.53046-.20239-.73279,0l-1.42737,1.427c-.20245,.20239-.20245,.53052,0,.73315l.15619,.15601,3.47089,3.47046,.15631,.15625c.20239,.20239,.53046,.20239,.73285,0l1.42731-1.42725c.20245-.20215,.20245-.53052,0-.73291l-3.78339-3.78271Z" style="fill:#23b169;"/></g><path d="M32.1803,8.10303c.41943,.479,1.13007,.56982,1.65656,.21191l2.61609-1.77808c.62628-.42554,.73853-1.30347,.23956-1.87305l-1.58411-1.80811c-.49896-.56958-1.38397-.57373-1.88831-.00879l-2.10663,2.35962c-.42395,.47485-.42725,1.19116-.00781,1.66992l1.07465,1.22656Z" style="fill:#875a00;"/></g></svg>