<?xml version="1.0" encoding="UTF-8"?><svg id="Layer_1" xmlns="http://www.w3.org/2000/svg" viewBox="0 0 40 40"><g><path d="M21.5406,4.54789l3.10878,6.29908c.25025,.50706,.73398,.85851,1.29356,.93983l6.95145,1.0101c1.40915,.20476,1.97182,1.93647,.95215,2.93041l-5.03012,4.90315c-.40491,.39469-.58968,.96336-.4941,1.52067l1.18745,6.92336c.24071,1.40346-1.23237,2.47371-2.49275,1.81109l-6.21757-3.26877c-.5005-.26313-1.09843-.26313-1.59893,0l-6.21757,3.26877c-1.26038,.66262-2.73347-.40763-2.49275-1.81109l1.18745-6.92336c.09559-.55731-.08918-1.12598-.4941-1.52067l-5.03012-4.90315c-1.01967-.99393-.457-2.72565,.95215-2.93041l6.95145-1.0101c.55958-.08131,1.04331-.43276,1.29356-.93983l3.10878-6.29908c.63019-1.27691,2.45102-1.27691,3.08121,0Z" style="fill:#ffcd00;"/><g><path d="M27.65763,4.1521c-.43608,.5926-.87684,2.5415-1.15938,4.00385-.13817,.71515,.61316,1.26803,1.25485,.9234,1.31213-.70471,3.04172-1.7052,3.4778-2.2978,.7261-.98673,.51482-2.37526-.47191-3.10136s-2.37526-.51482-3.10136,.47191Z" style="fill:#ffe63b;"/><path d="M35.97944,21.32544c-.69835-.23161-2.68807-.04856-4.16615,.13462-.72285,.08958-1.0165,.97499-.49044,1.47878,1.07568,1.03014,2.56168,2.36591,3.26004,2.59752,1.16281,.38565,2.41809-.24437,2.80374-1.40719s-.24437-2.41809-1.40719-2.80374Z" style="fill:#ffe63b;"/><path d="M22.2182,34.54681c.00447-.73574-.78448-2.57151-1.41545-3.92065-.30857-.65979-1.24139-.66545-1.55795-.00947-.64732,1.34137-1.45851,3.16741-1.46298,3.90316-.00744,1.22507,.97964,2.22423,2.20472,2.23167,1.22507,.00744,2.22423-.97964,2.23167-2.20472Z" style="fill:#ffe63b;"/><path d="M5.39147,25.54472c.70112-.22311,2.20324-1.54072,3.29136-2.55772,.53214-.49736,.24928-1.38627-.47243-1.48463-1.47575-.20113-3.46309-.40834-4.16421-.18524-1.16741,.37149-1.81264,1.61902-1.44115,2.78643s1.61902,1.81264,2.78643,1.44115Z" style="fill:#ffe63b;"/><path d="M8.75323,6.75975c.42884,.59786,2.14615,1.61929,3.44962,2.33989,.63745,.3524,1.39545-.19131,1.26598-.90808-.26475-1.46567-.6818-3.41978-1.11064-4.01764-.71406-.99548-2.09991-1.22362-3.09539-.50956-.99548,.71406-1.22362,2.09991-.50956,3.09539Z" style="fill:#ffe63b;"/></g></g><rect y="0" width="40" height="40" style="fill:none;"/></svg>