<?xml version="1.0" encoding="UTF-8"?><svg id="Layer_1" xmlns="http://www.w3.org/2000/svg" viewBox="0 0 40 40"><g><path d="m7.224,33.084l3.715-16.448c.168-.745,1.01-1.115,1.673-.735l14.043,8.051c.663.38.769,1.292.211,1.814l-12.304,11.521c-3.181,2.979-8.298.048-7.338-4.203Z" fill="#ff9c00"/><path d="m25.356,28.113c-1.555,2.716-5.913,2.178-10.246-.304-4.333-2.482-7.002-5.968-5.446-8.684l15.692,8.988Z" fill="#ff9c00"/><g><path d="m13.982,10.736s-4.528-.856-6.013,2.411c-1.485,3.267,1.351,6.629,6.804,10.138,5.453,3.509,9.171,4.995,12.459,5.656s5.391-2.896,3.018-5.156c0,0,4.326-4.407-.463-8.179,0,0,7.725-7.768-1.184-13.991-.355-.248-.852-.078-.953.343-.347,1.437-1.773,4.077-7.59,3.894-6.018-.165-6.078,4.883-6.078,4.883Z" fill="#e5e9ee"/><path d="m31.976,18.94c-1.448,1.385-4.813,2.303-12.64-.627-.154-.058-.263.154-.122.24,2.272,1.388,7.286,4.276,11.069,5.192.209-.221,2.1-2.32,1.693-4.804Z" fill="#d0d6de"/><path d="m29.791,15.596s5.297-5.336,2.042-10.706c-.047,2.725-1.077,7.068-7.098,7.444-.404.025-.571.53-.249.776,1.022.782,2.878,1.964,5.301,2.496" fill="#d0d6de"/></g></g><rect width="40" height="40" fill="none"/></svg>