<?xml version="1.0" encoding="UTF-8"?><svg id="Layer_1" xmlns="http://www.w3.org/2000/svg" viewBox="0 0 40 40"><g><path d="m3.128,30.561h0c7.561,7.614,19.862,7.655,27.473.092,7.611-7.565,7.652-19.87.091-27.485h0S3.128,30.561,3.128,30.561Z" fill="#c1eec9"/><path d="m27.992,28.026c6.162-6.124,6.195-16.084.073-22.248L5.753,27.953c6.122,6.165,16.079,6.198,22.239.073Z" fill="#ef4452"/><path d="m25.066,23.03c.54.544.537,1.423-.006,1.962-.544.54-1.423.538-1.962-.006-.312-.314-.588-1.25-.766-1.984-.11-.455.303-.864.756-.751.732.182,1.666.465,1.978.78Zm1.82-4.935c.754.136,1.256.859,1.119,1.612-.136.754-.858,1.255-1.612,1.118-.429-.077-1.283-.686-1.941-1.198-.396-.308-.283-.936.196-1.087.796-.25,1.81-.523,2.238-.446Zm-.363-5.209c.755-.121,1.466.397,1.585,1.155.121.757-.397,1.468-1.155,1.586-.431.068-1.424-.231-2.198-.502-.469-.164-.567-.786-.171-1.086.654-.496,1.507-1.086,1.938-1.154Zm-8.355,13.874c.131.755.849,1.263,1.604,1.132.755-.131,1.261-.851,1.129-1.606-.074-.429-.678-1.287-1.185-1.948-.305-.398-.935-.289-1.088.189-.255.793-.534,1.805-.46,2.234Zm-5.285-.398c-.125.754.388,1.47,1.144,1.594.756.126,1.471-.387,1.594-1.144.071-.43-.222-1.425-.487-2.202-.16-.47-.782-.572-1.085-.178-.5.651-1.096,1.5-1.166,1.931Z" fill="#422e27"/><path d="m30.035,3.821c3.487,3.51,5.397,8.164,5.381,13.106-.015,4.939-1.958,9.582-5.466,13.069-7.239,7.191-18.975,7.152-26.165-.087l-1.744,1.734c-.12.119-.119.317.003.435,4.088,3.933,9.369,5.904,14.663,5.922,5.446.018,10.901-2.039,15.06-6.173,4.034-4.008,6.267-9.346,6.284-15.025.018-5.513-2.053-10.718-5.837-14.708-.117-.123-.315-.125-.435-.006l-1.743,1.733Z" fill="#037f56"/></g><rect width="40" height="40" fill="none"/></svg>