<?xml version="1.0" encoding="UTF-8"?><svg id="Layer_1" xmlns="http://www.w3.org/2000/svg" viewBox="0 0 40 40"><path d="m34,8H6c-2.209,0-4,1.791-4,4v8h3.67c.042-.272.165-1.776.165-1.776,0,0-.413-.189-.533-.361s-.138-.585-.138-.585c0,0-.379-.379-.104-.568,0,0,0-.499-.447-.619,0,0,.224-.172.533,0,.31.172.517.396.517.396,0,0,.206,0,.533.499,0,0,.034-.586.241-.792.207-.206-.016-.844-.499-.964,0,0,.792-.207,1.05.395.258.603.447.585.344.998l-.086.361s.069-.224.207-.156c0,0,.189-.137.275-.361s0-.517,0-.517c0,0,.395.207.344.551-.052.345-.018.465-.018.465,0,0,0,.245-.068.503-.069.258-.206.271-.413.426-.241.172-.465.361-.361.585s.385.545.437.958c.023.185.026.388.024.561h2.576c.058-.473.342-.503.342-.503,0,0-.115-.465,0-.844s.458-.568.458-.568c0,0-.189-.24,0-.619s.465-.482.465-.482c0,0-.086-.671.482-.998,0,0-.225-.818.499-1.084,0,0-.118-.252-.209-.467-.499.134-.988.486-1.117,1.104l-.316-.435s-.205.505-.263.694c-.057.188-.161.344-.161.344,0,0-.344-.413-.12-.774,0,0-.385-.532-.373-.953-.115.004-.218.007-.298.007-.551,0-2.478-.172-2.478-.172l.275.619s-.964-.413-1.411-.93-.964-1.756-.964-1.756c0,0,1.884,1.115,2.847,1.081l-.782.366s3.614.172,5.232-.275c0,0-.091-.449-1.159-.432l-.025.333-.311-.225.034.328-.284-.193.033.304-.233-.155-.086.259-.191-.182s-.225.052-.259-.009c-.035-.061-.09-.062-.076-.232-.024-.195-.438-.502-.918-.476-.62.034-1.443.206-1.573.12-.086-.057.606-.855,1.57-.992.964-.138,1.757-.165,1.757-.165,0,0-.07-.489.584-.661s2.433.117,2.916.013c0,0,.321-.426.802-.46.481-.034,1.343-.412,1.515-.619l-.07,1.045.398.035s-.615.476-.924.579c-.31.103-.259.804-.121.976.138.172.175.226.175.226,0,0,.854.164.957.889,0,0-.916-.139-.916.137s1.115.312,1.002,1.279c0,0-.977-.413-1.149-.104-.172.311.232.697.544.795.467.147.415.957.415.957,0,0-.77-.447-1.045-.413-.275.035-.259.708-.09.724.282.025.792.241.86.93,0,0-.625-.269-.796.11-.172.379.074.751.074.751,0,0,1.411-.139,1.858-.38s.93-.654.93-1.239-.173-1.824.619-2.582c.792-.757,5.097-3.916,7.231-4.81,0,0-.673,1.063-.362,2.264.254.985,5.995-1.762,5.995-1.762,0,0-2.4,1.967-2.468,2.657-.068.69,1.033,1.033,1.033,1.033,0,0-1.578.687-2.304,1.615-.838,1.072.205,2.654.067,2.654s-1.643-.211-2.607,1.028c0,0,1.196-.064,2.298.006,1.102.069,3.269,1.171,4.302-.413,0,0-.792.275-1.515.241-.723-.034-1.687-.93-1.48-1.652.206-.722.929-1.377,1.962-1.377s1.618.413,1.618.413l.447-.964s-.946.229-1.732.047c0,0,1.284-1.253,1.973-1.976.688-.722,1.741-2.023,1.741-1.92s-.055,1.06-.089,2.299c-.034,1.24.519,2.755.519,2.755,0,0-1.201-.303-1.51-.854l-.453,1.405s.463.699.187,1.731c-.075.281-.222.616-.452.958h4.426v-8c0-2.209-1.791-4-4-4Z" fill="#e3e7ea"/><g><path d="m7.659,20.381s.295.045.447.183c.188.169.275.429.189.585,0,0,.189-.016.447.104.258.12.378.466.378.466,0,0,.307-.125.445-.04s.303.276.303.276c0,0,.079-.099.217-.151.139-.052.207.034.207.034,0,0,0-.465.431-.517,0,0-.431-.241-.482-1.016-.008-.121-.002-.218.008-.306h-2.576c-.003.214-.014.381-.014.381Z" fill="#00ae37"/><path d="m29.225,21.992s1.772.981,2.53,1.429,1.357,1.074,1.116,1.177c-.241.103-.753-.128-.995-.335-.241-.206-.557-.348-.557-.348,0,0,.489.762.385,1.656-.104.895-.274,2.215-.4,2.299-.173.117-.008.82.193.868.349.084.857.278,1.132.519.275.24.382.755.348.651-.034-.103-.448-.447-.792-.344-.345.104-.448.068-.758-.104s-.678-.328-1.057-.191c-.379.138-.63.267-.802.26-.413-.016-.519-.272-.909-.225-.355.044-.649.217-.89.458-.241.241-.576.031-.851.157-.275.127-.585.264-.585.264,0,0-.035-.602.723-.809,0,0,.033-.286.395-.327.232-.026.446-.11.404-.141-.169-.129-.68-.16-.855-.069-.337.173-.663.066-.668.003,0,0-.413-.207-.792.31,0,0-.155-.517.637-.792.061-.021.097-.018.15-.032.031-.105.096-.217.246-.227.275-.018.654,0,.654,0,0,0-.258-.172-.465-.189-.207-.018-.104-.241-.104-.241,0,0-.109-.137-.35-.103-.241.034-.442.154-.442.154,0,0,.148-.448.501-.54.251-.065.411.005.411.005,0,0,0-.206.224-.14.224.069.681.664,1.042.82s.745.5,1.261.173c.517-.327.588-.528.588-.528,0,0-.172-.252-.12-.479.052-.227.361-.347.361-.347,0,0-.138-.482.086-.758,0,0-.295-.59-.189-1.05,0,0-.431-.275-.431-.499,0,0-.637.138-.774-.172,0,0-.822.317-1.217-.165,0,0-1.114.375-1.457-.176,0,0-1.036.004-1.26-.564,0,0-.489-.008-.713-.351,0,0-.224.345-.499.517-.275.173-.465.517-.413.844.052.327.217.645.63.714.413.068.789.398,1.063.371.619-.059,1.175.478,1.124,1.218,0,0-1.042-.272-1.335-.513,0,0-.326.894-1.488,1.686-1.161.791-2.013.986-2.013.986,0,0,.184.117.372.099.239-.023.535-.129.742.198,0,0,.493.041.649.23.154.189.258.603.258.603,0,0-.379-.361-.654-.361s-.204.25-.651.164c-.448-.086-.918-.553-1.175-.571-.258-.018-.566.131-.704.114-.138-.018-.408-.105-.809-.071-.482.041-1.055.164-1.279.32-.224.155-.478.284-.546.112,0,0-.172-.104-.379-.018-.206.086-.361.31-.361.31,0,0-.431-.569.327-.74,0,0-.312-.259-.448-.293-.137-.034-.119-.224-.119-.224,0,0-.172-.086-.327-.018-.154.069-.344.293-.344.293,0,0-.034-.361.31-.603.344-.241.619-.104.619-.104,0,0,.258-.172.465-.12s.517.275.758.275.603.018.603.018c0,0-.12-.224-.327-.395-.206-.172-.603-.172-.774-.224-.173-.052-.259-.189-.241-.31,0,0-.137-.224-.344-.189-.207.035-.431.207-.431.207,0,0,.034-.465.413-.533.378-.069.619.068.619.068,0,0,.021-.217.296-.131.275.086.683.631.821.717s.983.274,1.206.223c.224-.052.603-.138.93-.086,0,0,.104-.516.637-.447,0,0-.086-.481.379-.585,0,0-.431-.086-.413-.396,0,0-.43.086-.894-.052-.465-.138-.533-.533-.533-.533,0,0-.637-.258-.878-.671-.241-.413-.052-.774-.052-.774,0,0-.499.207-.808.052,0,0-.517.517-.981.654-.465.138-.86.018-.86.018,0,0-.43.379-.723.465,0,0-.138.431-.258.688-.12.258-.258.671-.258.671,0,0-.551-.878-.568-1.153-.007-.102-.042-.313-.075-.553-.063.063-.126.131-.184.209-.259.344-.758.998-1.205,1.325s-1.016,1.167-1.171,1.924c0,0,.337.232.681.181.344-.052.628.082.61.202,0,0,.86.018.74.758,0,0-.31-.31-.551-.275-.24.034-.258.344-.723.275-.465-.07-.723-.275-.964-.483-.241-.207-.531-.139-.72.033s-.519.225-.726.156c-.207-.068-.452-.163-.847.147-.395.309-1.115.579-1.494.156,0,0-.348-.034-.537.086-.189.12-.357.369-.357.369,0,0-.01-.861.661-.861l.062-.24-.275-.172s-.392-.089-.633-.037c-.241.052-.4.141-.4.141,0,0,.043-.437.449-.534.488-.117.706,0,.706,0l.172-.258s-.155-.173-.018-.293c0,0-.102-.189-.31-.207s-.431.224-.431.224c0,0,.034-.619.465-.619s.395.189.585.31c0,0,.052-.104.361-.052s.651.558,1.529.455c.878-.104,1.358-1.04,1.358-1.04,0,0-.22-.706.538-.964,0,0-.224-.412-.086-.619s.517-.241.517-.241c0,0-.361-.12-.018-.603,0,0-.534-.052-.981,0s-.946.138-.946.138c0,0,.086.912-.706,1.497,0,0-.172-1.291-.637-2.014-.465-.723-.844-1.17-1.257-1.445-.413-.275-1.498-1.824-1.48-2.511,0,0-.052.241-.189.447s-.275.327-.275.533-.138.515-.379.533c0,0-.206.241-.533.31-.327.069-.637-.12-.637-.12,0,0,.31-.052.533-.172.224-.121.224-.431.224-.431,0,0-.258-.137-.034-.327s.311-.538.431-.63.276-.195.311-.333c.002-.007.005-.033.007-.048h-3.67v8.004c0,2.207,1.789,3.996,3.995,3.996h28.009c2.207,0,3.995-1.789,3.995-3.996v-8.004h-4.426c-.613.91-1.87,1.867-4.349,1.992Z" fill="#00ae37"/></g><path d="m5.352,20.381c-.12.093-.207.441-.431.63s.034.327.034.327c0,0,0,.31-.224.431-.224.12-.533.172-.533.172,0,0,.31.189.637.12.327-.068.533-.31.533-.31.241-.018.379-.327.379-.533s.138-.327.275-.533.189-.447.189-.447c-.018.688,1.067,2.236,1.48,2.511.413.275.792.722,1.257,1.445.465.723.637,2.014.637,2.014.792-.585.706-1.497.706-1.497,0,0,.499-.086.946-.138s.981,0,.981,0c-.344.482.018.603.018.603,0,0-.379.034-.517.241s.086.619.086.619c-.758.258-.538.964-.538.964,0,0-.48.936-1.358,1.04-.878.104-1.219-.403-1.529-.455s-.361.052-.361.052c-.189-.12-.155-.31-.585-.31s-.465.619-.465.619c0,0,.224-.241.431-.224s.31.207.31.207c-.138.12.018.293.018.293l-.172.258s-.218-.117-.706,0c-.406.097-.449.534-.449.534,0,0,.159-.089.4-.141.241-.052.633.037.633.037l.275.172-.062.24c-.671,0-.661.861-.661.861,0,0,.167-.249.357-.369.189-.12.537-.086.537-.086.379.423,1.098.153,1.494-.156.395-.31.64-.215.847-.147.207.068.536.016.726-.156s.479-.24.72-.033c.241.207.499.413.964.483.465.068.482-.241.723-.275.241-.034.551.275.551.275.12-.74-.74-.758-.74-.758.018-.12-.267-.253-.61-.202-.344.052-.681-.181-.681-.181.155-.758.724-1.597,1.171-1.924s.946-.981,1.205-1.325c.058-.078.121-.146.184-.209.033.24.068.451.075.553.018.275.568,1.153.568,1.153,0,0,.138-.413.258-.671.12-.258.258-.688.258-.688.293-.086.723-.465.723-.465,0,0,.395.12.86-.018.465-.138.981-.654.981-.654.31.155.808-.052.808-.052,0,0-.189.361.052.774.241.413.878.671.878.671,0,0,.068.395.533.533.465.138.894.052.894.052-.018.31.413.396.413.396-.465.104-.379.585-.379.585-.533-.068-.637.447-.637.447-.327-.052-.706.034-.93.086-.224.052-1.068-.137-1.206-.223s-.545-.631-.821-.717c-.275-.086-.296.131-.296.131,0,0-.241-.138-.619-.068-.379.068-.413.533-.413.533,0,0,.224-.172.431-.207.207-.034.344.189.344.189-.018.12.068.258.241.31.172.052.568.052.774.224.207.172.327.395.327.395,0,0-.361-.018-.603-.018s-.551-.224-.758-.275-.465.12-.465.12c0,0-.275-.138-.619.104-.344.241-.31.603-.31.603,0,0,.189-.224.344-.293.155-.068.327.018.327.018,0,0-.018.189.119.224.137.034.448.293.448.293-.758.172-.327.74-.327.74,0,0,.155-.224.361-.31.207-.086.379.018.379.018.068.172.323.043.546-.112.224-.155.796-.279,1.279-.32.401-.034.671.053.809.071.138.018.446-.131.704-.114.258.018.727.485,1.175.571.447.086.376-.164.651-.164s.654.361.654.361c0,0-.104-.413-.258-.603-.155-.189-.649-.23-.649-.23-.207-.327-.503-.221-.742-.198-.188.018-.372-.099-.372-.099,0,0,.853-.195,2.013-.986,1.162-.792,1.488-1.686,1.488-1.686.293.241,1.335.513,1.335.513.052-.74-.505-1.278-1.124-1.218-.274.027-.65-.303-1.063-.371-.413-.068-.578-.387-.63-.714-.052-.327.138-.671.413-.844.275-.172.499-.517.499-.517.224.344.713.351.713.351.224.568,1.26.564,1.26.564.344.551,1.457.176,1.457.176.395.483,1.217.165,1.217.165.138.31.774.172.774.172,0,.224.431.499.431.499-.106.459.189,1.05.189,1.05-.224.275-.086.758-.086.758,0,0-.31.12-.361.347-.052.227.12.479.12.479,0,0-.072.201-.588.528-.517.327-.9-.018-1.261-.173s-.818-.75-1.042-.82c-.224-.066-.224.14-.224.14,0,0-.16-.071-.411-.005-.354.091-.501.54-.501.54,0,0,.2-.12.442-.154.241-.034.35.103.35.103,0,0-.104.223.104.241.207.018.465.189.465.189,0,0-.379-.018-.654,0-.15.01-.215.122-.246.227-.053.014-.089.011-.15.032-.792.275-.637.792-.637.792.379-.517.792-.31.792-.31.004.063.33.17.668-.003.175-.09.686-.059.855.069.042.031-.172.115-.404.141-.362.041-.395.327-.395.327-.758.207-.723.809-.723.809,0,0,.31-.138.585-.264.275-.127.61.084.851-.157.241-.241.535-.414.89-.458.39-.047.496.208.909.225.172.007.423-.122.802-.26.379-.138.748.019,1.057.191s.413.207.758.104c.344-.104.758.241.792.344.034.104-.073-.411-.348-.651-.275-.241-.783-.435-1.132-.519-.2-.048-.366-.751-.193-.868.126-.084.296-1.404.4-2.299.104-.894-.385-1.656-.385-1.656,0,0,.316.142.557.348.241.207.753.438.995.335.241-.104-.358-.73-1.116-1.177s-2.53-1.429-2.53-1.429c2.478-.125,3.736-1.082,4.349-1.992.23-.341.376-.676.452-.958.275-1.032-.187-1.731-.187-1.731l.453-1.405c.31.551,1.51.854,1.51.854,0,0-.553-1.515-.519-2.755.034-1.239.089-2.195.089-2.299s-1.053,1.198-1.741,1.92c-.688.723-1.973,1.976-1.973,1.976.785.182,1.732-.047,1.732-.047l-.447.964s-.585-.413-1.618-.413-1.756.654-1.962,1.377c-.207.723.758,1.618,1.48,1.652.723.034,1.515-.241,1.515-.241-1.033,1.584-3.201.482-4.302.413-1.101-.069-2.298-.006-2.298-.006.964-1.239,2.47-1.028,2.607-1.028s-.905-1.582-.067-2.654c.726-.927,2.304-1.615,2.304-1.615,0,0-1.102-.344-1.033-1.033.068-.689,2.468-2.657,2.468-2.657,0,0-5.741,2.747-5.995,1.762-.311-1.201.362-2.264.362-2.264-2.135.895-6.439,4.053-7.231,4.81-.792.758-.619,1.996-.619,2.582s-.482.998-.93,1.239-1.858.38-1.858.38c0,0-.246-.372-.074-.751.172-.379.796-.11.796-.11-.068-.688-.578-.904-.86-.93-.169-.015-.185-.688.09-.724.275-.034,1.045.413,1.045.413,0,0,.052-.811-.415-.957-.312-.098-.716-.485-.544-.795.172-.31,1.149.104,1.149.104.112-.967-1.002-1.003-1.002-1.279s.916-.137.916-.137c-.104-.725-.957-.889-.957-.889,0,0-.037-.054-.175-.226-.138-.172-.188-.874.121-.976.31-.104.924-.579.924-.579l-.398-.035.07-1.045c-.172.207-1.033.585-1.515.619-.481.034-.802.46-.802.46-.482.104-2.261-.185-2.916-.013s-.584.661-.584.661c0,0-.793.028-1.757.165-.964.138-1.656.935-1.57.992.13.086.953-.086,1.573-.12.479-.026.893.281.918.476-.014.171.041.172.076.232.034.061.259.009.259.009l.191.182.086-.259.233.155-.033-.304.284.193-.034-.328.311.225.025-.333c1.067-.018,1.159.432,1.159.432-1.618.447-5.232.275-5.232.275l.782-.366c-.964.034-2.847-1.081-2.847-1.081,0,0,.517,1.239.964,1.756s1.411.93,1.411.93l-.275-.619s1.928.172,2.478.172c.08,0,.184-.002.298-.007-.012.421.373.953.373.953-.224.361.12.774.12.774,0,0,.104-.155.161-.344.058-.189.263-.694.263-.694l.316.435c.129-.618.618-.969,1.117-1.104.091.215.209.467.209.467-.724.265-.499,1.084-.499,1.084-.568.327-.482.998-.482.998,0,0-.275.104-.465.482s0,.619,0,.619c0,0-.344.189-.458.568s0,.844,0,.844c0,0-.284.03-.342.503-.011.087-.016.185-.008.306.052.774.482,1.016.482,1.016-.431.052-.431.517-.431.517,0,0-.068-.086-.207-.034-.138.052-.217.151-.217.151,0,0-.165-.19-.303-.276s-.445.04-.445.04c0,0-.12-.346-.378-.466-.258-.12-.447-.104-.447-.104.086-.155-.001-.415-.189-.585-.152-.138-.447-.183-.447-.183,0,0,.012-.166.014-.381.002-.173-.001-.376-.024-.561-.052-.413-.334-.735-.437-.958s.12-.413.361-.585c.207-.155.344-.168.413-.426.068-.259.068-.503.068-.503,0,0-.034-.12.018-.465.052-.344-.344-.551-.344-.551,0,0,.086.293,0,.517s-.275.361-.275.361c-.138-.068-.207.156-.207.156l.086-.361c.104-.413-.086-.396-.344-.998-.258-.602-1.05-.395-1.05-.395.482.12.706.758.499.964-.207.206-.241.792-.241.792-.327-.499-.533-.499-.533-.499,0,0-.207-.224-.517-.396-.31-.172-.533,0-.533,0,.447.12.447.619.447.619-.275.189.104.568.104.568,0,0,.018.413.138.585s.533.361.533.361c0,0-.123,1.504-.165,1.776-.002.015-.005.041-.007.048-.034.138-.191.24-.311.333Zm6.499-8.046c-.427-.053-.441-.532-.441-.532,0,0,.098-.016.228-.02,0,0,0,0,0,0,.002,0,.005,0,.007,0,.09-.003.192,0,.296.02.108.022.21.047.296.071.003,0,.007.001.01.002h0c.116.031.199.057.199.057,0,0-.169.454-.596.402Z" fill="#d3003b"/><path d="m12.45,11.93s-.17.46-.6.4c-.43-.05-.44-.53-.44-.53,0,0,.1-.01.23-.02h.01c.09,0,.19,0,.29.02.11.02.21.05.3.07l.01.01c.11.03.2.05.2.05Z"/></svg>