<?xml version="1.0" encoding="UTF-8"?><svg id="Layer_1" xmlns="http://www.w3.org/2000/svg" viewBox="0 0 40 40"><rect width="40" height="40" fill="none"/><g><path d="m30.74,27.26v.02h-.31c.1,0,.21,0,.31-.02Z" fill="#e5e8eb"/><path d="m37.81,19.9c0,3.98-3.13,7.21-7.07,7.36-.1.02-.21.02-.31.02H9.67c-3.79,0-6.86-3.07-6.86-6.85,0-3.48,2.58-6.35,5.94-6.79-.02-.12-.02-.24-.02-.37,0-3.1,2.51-5.62,5.61-5.62.38,0,.75.04,1.1.11,1.49-2.66,4.34-4.46,7.6-4.46,4.81,0,8.71,3.9,8.71,8.7,0,.21-.01.42-.02.63,3.46.61,6.08,3.63,6.08,7.27Z" fill="#e5e8eb"/></g><g><path d="m13.87,34.14c-.11.19-.32.3-.52.3-.11,0-.21-.03-.3-.08l-1.1-.64v1.27c0,.33-.27.6-.6.6s-.6-.27-.6-.6v-1.27l-1.1.64c-.1.05-.2.08-.3.08-.21,0-.41-.11-.52-.3-.17-.29-.07-.66.22-.82l1.1-.63-1.1-.64c-.29-.17-.39-.54-.22-.82.16-.29.53-.39.82-.22l1.1.64v-1.28c0-.33.27-.6.6-.6s.6.27.6.6v1.28l1.1-.64c.28-.17.65-.07.82.22.16.28.06.65-.22.82l-1.1.64,1.1.63c.28.16.38.53.22.82Z" fill="#a8bfff"/><path d="m21.87,34.14c-.11.19-.32.3-.52.3-.11,0-.21-.03-.3-.08l-1.1-.64v1.27c0,.33-.27.6-.6.6s-.6-.27-.6-.6v-1.27l-1.1.64c-.1.05-.2.08-.3.08-.21,0-.41-.11-.52-.3-.17-.29-.07-.66.22-.82l1.1-.63-1.1-.64c-.29-.17-.39-.54-.22-.82.16-.29.53-.39.82-.22l1.1.64v-1.28c0-.33.27-.6.6-.6s.6.27.6.6v1.28l1.1-.64c.28-.17.65-.07.82.22.16.28.06.65-.22.82l-1.1.64,1.1.63c.28.16.38.53.22.82Z" fill="#a8bfff"/><path d="m29.87,34.14c-.11.19-.32.3-.52.3-.11,0-.21-.03-.3-.08l-1.1-.64v1.27c0,.33-.27.6-.6.6s-.6-.27-.6-.6v-1.27l-1.1.64c-.1.05-.2.08-.3.08-.21,0-.41-.11-.52-.3-.17-.29-.07-.66.22-.82l1.1-.63-1.1-.64c-.29-.17-.39-.54-.22-.82.16-.29.53-.39.82-.22l1.1.64v-1.28c0-.33.27-.6.6-.6s.6.27.6.6v1.28l1.1-.64c.28-.17.65-.07.82.22.16.28.06.65-.22.82l-1.1.64,1.1.63c.28.16.38.53.22.82Z" fill="#a8bfff"/></g></svg>