<?xml version="1.0" encoding="UTF-8"?><svg id="Layer_1" xmlns="http://www.w3.org/2000/svg" viewBox="0 0 40 40"><g><rect x="29.109" y="4.232" width="3.071" height="9.76" transform="translate(19.161 -20.725) rotate(52.39)" fill="#5e403b"/><ellipse cx="34.51" cy="6.134" rx=".625" ry="1.536" transform="translate(3.428 22.336) rotate(-37.61)" fill="#cb8c00"/><rect x="26.048" y="1.298" width="3.071" height="9.76" transform="translate(6.631 -12.797) rotate(29.54)" fill="#5e403b"/><ellipse cx="29.99" cy="1.932" rx=".625" ry="1.536" transform="translate(13.523 27.071) rotate(-60.46)" fill="#cb8c00"/><ellipse cx="20" cy="36.797" rx="7.552" ry="2.203" fill="#6b7683"/><polygon points="22.628 36.125 17.372 36.125 18.237 32.161 21.763 32.161 22.628 36.125" fill="#6b7683"/><path d="m35.57,18.286c0,8.599-6.971,15.57-15.57,15.57s-15.57-6.971-15.57-15.57h31.14Z" fill="#8a94a0"/><ellipse cx="20" cy="18.286" rx="15.57" ry="4.979" fill="#8a94a0"/><path d="m30.528,9.628c-2.472-3.087-6.266-5.068-10.528-5.068s-8.056,1.982-10.528,5.068c-1.849,2.308-2.961,5.233-2.961,8.42,0,.181.004.36.012.539.025.573.374,1.076.903,1.299,3.156,1.335,7.621,2.168,12.574,2.168s9.418-.833,12.574-2.168c.528-.224.878-.726.903-1.299.008-.179.012-.358.012-.539,0-3.188-1.112-6.112-2.961-8.42Z" fill="#ffe3a0"/></g><rect width="40" height="40" fill="none"/></svg>