<svg id="Layer_1" data-name="Layer 1" xmlns="http://www.w3.org/2000/svg" viewBox="0 0 40 40"><defs><style>.cls-1{fill:#3d3d3d;}.cls-2{fill:#2f81f9;}.cls-3{fill:#64a7ff;}.cls-4{fill:none;}</style></defs><path class="cls-1" d="M9.285,31.316A15.981,15.981,0,1,1,31.62,30.43l-1.086-1.025a14.489,14.489,0,1,0-20.248.8Z"/><rect class="cls-2" x="6.738" y="20.788" width="8.929" height="16.031" rx="4.464" transform="translate(22.431 57.597) rotate(179.947)"/><rect class="cls-3" x="12.458" y="20.102" width="3.411" height="17.398" rx="1.706" transform="translate(28.353 57.589) rotate(179.947)"/><rect class="cls-2" x="23.887" y="20.788" width="8.929" height="16.031" rx="4.464"/><rect class="cls-3" x="23.685" y="20.102" width="3.411" height="17.398" rx="1.706"/><path class="cls-2" d="M33.7,14.507a1.724,1.724,0,0,1-1.549-.966,13.518,13.518,0,0,0-24.3,0,1.722,1.722,0,0,1-3.1-1.512,16.964,16.964,0,0,1,30.5,0A1.724,1.724,0,0,1,33.7,14.507Z"/><rect class="cls-4" width="40" height="40"/></svg>