<?xml version="1.0" encoding="UTF-8"?><svg id="Layer_1" xmlns="http://www.w3.org/2000/svg" viewBox="0 0 40 40"><path d="M28.5,3.5H11.5C7.08173,3.5,3.5,7.08179,3.5,11.5V28.5c0,1.78223,.5899,3.42261,1.57526,4.75244,.06891-1.86011,.30365-4.29785,.85107-6.96729,.84985-4.23682,2.3147-7.8125,3.32617-9.38647-.005,.03735-.01837,.08862-.02454,.12793,.36084-.76636,.94177-1.66016,1.76361-2.57593,1.51337-1.69629,3.43158-2.92285,4.77234-3.27686-.06189,.85156-1.15881,2.32568-2.73419,3.948-1.552,1.59033-3.09961,2.91235-4.17377,3.46997-.16425,.57422-.36609,1.22705-.58795,1.94141,.48718-.74316,1.30927-1.65234,2.44757-2.54346,1.75616-1.38428,3.77509-2.27759,5.03448-2.46143-.32446,.73706-1.71631,1.92847-3.49542,3.2439-1.67987,1.2334-3.23804,2.26636-4.28131,2.71704-.19763,.64233-.40033,1.31592-.60437,2.03027,.68744-.69897,1.8399-1.55273,3.3725-2.30615,2.14813-1.06665,4.40753-1.57471,5.66071-1.54053-.62079,.62769-2.40997,1.51685-4.53937,2.5188-1.87866,.87476-3.55713,1.63379-4.67175,1.97168-.15338,.55615-.3017,1.12671-.44434,1.71313,.56055-.49707,1.52393-1.1084,2.75824-1.62402,1.62488-.68506,3.24463-.98584,4.10181-.93188-.51337,.44897-1.86151,1.06226-3.46277,1.71777-1.40833,.57007-2.67145,1.03662-3.49103,1.21558-.00989,.04199-.02106,.08154-.03082,.12378-.67474,2.85132-.97931,5.41943-1.21185,7.30298,.19019,.22314,.3941,.43359,.60736,.63477-.03943-.03516-.07959-.06958-.11737-.10669,.48059-1.02759,1.20038-2.31665,2.17041-3.66772,1.57343-2.21265,3.37091-3.9209,4.35669-4.5918-.37476,.58203-1.20142,1.46606-2.16125,2.59058,.5332-.42871,1.32214-.91138,2.2915-1.32935,1.4671-.63721,2.90936-.92529,3.66742-.87061-.46857,.45215-1.68402,1.06982-3.13147,1.68652-1.38141,.58374-2.59583,1.00391-3.31824,1.09717-.20709,.25024-.41687,.50928-.62811,.7793,.61145-.31714,1.46814-.6377,2.46844-.86499,1.54681-.35522,2.97137-.37598,3.659-.19141-.56458,.35303-1.86304,.73511-3.37646,1.07935-1.27289,.28613-2.40369,.47461-3.13861,.48877-.07648,.10205-.15332,.19922-.22937,.30371-.31421,.427-.59845,.84497-.86914,1.25537,.47437-.22729,1.20721-.44971,2.05621-.57568,1.12897-.1709,2.13397-.12012,2.60284,.04785-.42578,.23926-1.37354,.4707-2.48175,.63672-.97241,.1438-1.815,.19702-2.33826,.13916-.52844,.81592-.98303,1.58008-1.35632,2.2085,1.41876,1.28223,3.29321,2.06982,5.3562,2.06982h8.50073v-5.76562h-1.72693v-2.06592h1.45062c-.03918-.14819-.06665-.30103-.06665-.46167,0-.84302,.57831-1.54565,1.35809-1.74829-.00323-.04419-.01324-.08643-.01324-.13135,0-.84326,.57837-1.5459,1.35815-1.74854-.00323-.04419-.01324-.08643-.01324-.13135,0-1.00146,.81177-1.81299,1.81311-1.81299s1.81311,.81152,1.81311,1.81299c0,.05273-.01111,.10205-.0155,.15356,.99799,.00366,1.80615,.81348,1.80615,1.8125,0,.04492-.01001,.08716-.01324,.1311,.77979,.20288,1.35815,.90527,1.35815,1.74854,0,.12891-.01434,.25439-.03992,.37549h1.42389v2.06592h-1.72699v5.7522c4.29395-.14185,7.7337-3.6582,7.7337-7.98657V11.5c0-4.41821-3.58173-8-8-8Zm-4.11646,15.86743c-3.16034,0-5.72229-2.56177-5.72229-5.72217s2.56195-5.72241,5.72229-5.72241,5.72223,2.56201,5.72223,5.72241-2.56195,5.72217-5.72223,5.72217Z" style="fill:#2e3d51;"/><path d="M24.38354,7.92285c-3.16034,0-5.72229,2.56201-5.72229,5.72241s2.56195,5.72217,5.72229,5.72217,5.72223-2.56177,5.72223-5.72217-2.56195-5.72241-5.72223-5.72241Z" style="fill:#ffcd00;"/><path d="M24.38354,31.75977c.54364,0,1.00916,.32153,1.22589,.78296h3.15686v-1.80835h-8.76556v1.80835h3.15692c.21674-.46143,.68225-.78296,1.22589-.78296Z" style="fill:#965343;"/><g><path d="M22.81573,27.00098c.32751-.36499,.79663-.59912,1.32428-.60498,.00323-.33838,.1026-.65137,.26691-.9209-.30579-.56934-.89966-.96118-1.59119-.96118-.15808,0-.30878,.02661-.45496,.0647-.77979,.20264-1.35815,.90527-1.35815,1.74854,0,.04492,.01001,.08716,.01324,.13135,.14618-.03809,.29688-.0647,.45496-.0647,.53619,0,1.013,.2373,1.34491,.60718Z" style="fill:#d0d5da;"/><path d="M25.75183,27.35474c-.30579-.56934-.89966-.96094-1.59119-.96094l-.02063,.0022c-.52765,.00586-.99677,.23999-1.32428,.60498-.28796,.32104-.4682,.74072-.4682,1.20581,0,.16064,.02753,.31348,.06671,.46167h3.10889c-.02557-.12109-.03998-.24658-.03998-.37549,0-.34473,.10156-.66382,.26868-.93823Z" style="fill:#d0d5da;"/></g><g><path d="M29.10999,28.29004c0,.12988-.01996,.26001-.03998,.37988h-3.54999c-.02002-.11987-.04004-.25-.04004-.37988,0-.34009,.10004-.66016,.27002-.93994-.29999-.56006-.90002-.95996-1.59003-.95996-.00995,0-.00995,.00977-.01996,.00977,0-.33984,.09998-.65991,.26996-.91992-.31-.57007-.89996-.96997-1.58997-.96997-.16003,0-.31,.03003-.46002,.07007,0-.05005-.01001-.09009-.01001-.13013,0-1,.81-1.82007,1.81-1.82007s1.81,.82007,1.81,1.82007c0,.05005-.00995,.1001-.00995,.15015,1,0,1.79999,.80981,1.79999,1.80981,0,.05005-.01001,.09009-.01001,.13013,.78003,.20996,1.35999,.90991,1.35999,1.75Z" style="fill:#e5e9ee;"/><path d="M22.34753,28.20679c0-.46509,.18024-.88477,.4682-1.20581-.33191-.36987-.80872-.60718-1.34491-.60718-.15808,0-.30878,.02661-.45496,.0647-.77979,.20264-1.35809,.90527-1.35809,1.74829,0,.16064,.02747,.31348,.06665,.46167h2.68982c-.03918-.14819-.06671-.30103-.06671-.46167Z" style="fill:#e5e9ee;"/></g><g><path d="M25.60944,32.54272c.08221,.17505,.13165,.36841,.13165,.57446,0,.74976-.60779,1.35742-1.35754,1.35742s-1.35754-.60767-1.35754-1.35742c0-.20605,.04944-.39941,.13165-.57446h-3.15692v3.95728h8.76556v-3.95728h-3.15686Z" style="fill:#ac7262;"/><polygon points="30.49329 30.73437 30.49329 28.66846 29.0694 28.66846 25.52313 28.66846 22.41425 28.66846 19.72443 28.66846 18.2738 28.66846 18.2738 30.73437 20.00073 30.73437 28.7663 30.73437 30.49329 30.73437" style="fill:#ac7262;"/></g><path d="M24.38354,31.75977c-.54364,0-1.00916,.32153-1.22589,.78296-.08221,.17505-.13165,.36841-.13165,.57446,0,.74976,.60779,1.35742,1.35754,1.35742s1.35754-.60767,1.35754-1.35742c0-.20605-.04944-.39941-.13165-.57446-.21674-.46143-.68225-.78296-1.22589-.78296Z" style="fill:#5e403b;"/><g><path d="M9.83838,32.08252c1.10822-.16602,2.05597-.39746,2.48175-.63672-.46887-.16797-1.47388-.21875-2.60284-.04785-.849,.12598-1.58185,.34839-2.05621,.57568-.05542,.08398-.1073,.16528-.16095,.24805,.52325,.05786,1.36584,.00464,2.33826-.13916Z" style="fill:#fa0;"/><path d="M13.09357,28.02637c1.44745-.6167,2.6629-1.23438,3.13147-1.68652-.75806-.05469-2.20032,.2334-3.66742,.87061-.96936,.41797-1.7583,.90063-2.2915,1.32935-.16028,.18774-.32446,.38257-.49078,.58374,.72241-.09326,1.93683-.51343,3.31824-1.09717Z" style="fill:#fa0;"/><path d="M11.89819,29.92578c1.51343-.34424,2.81189-.72632,3.37646-1.07935-.68762-.18457-2.11218-.16382-3.659,.19141-1.00031,.22729-1.85699,.54785-2.46844,.86499-.12939,.16528-.25842,.33936-.38763,.51172,.73492-.01416,1.86572-.20264,3.13861-.48877Z" style="fill:#fa0;"/></g><g><path d="M7.66107,31.97363c.27069-.4104,.55493-.82837,.86914-1.25537,.07605-.10449,.15289-.20166,.22937-.30371,.12921-.17236,.25824-.34644,.38763-.51172,.21124-.27002,.42102-.52905,.62811-.7793,.16632-.20117,.33051-.396,.49078-.58374,.95984-1.12451,1.7865-2.00854,2.16125-2.59058-.98578,.6709-2.78326,2.37915-4.35669,4.5918-.97003,1.35107-1.68982,2.64014-2.17041,3.66772,.03778,.03711,.07794,.07153,.11737,.10669,.04236,.03809,.08398,.07666,.12616,.11475h0c.37329-.62842,.82788-1.39258,1.35632-2.2085,.05365-.08276,.10553-.16406,.16095-.24805Z" style="fill:#036d50;"/><path d="M6.65295,26.25391c-.1145,.0249-.22089,.04443-.31726,.05762,.09204-.12842,.23181-.27612,.41101-.43506,.14264-.58643,.29095-1.15698,.44434-1.71313-.15308,.04639-.29669,.08569-.42755,.11548,.11572-.21436,.32611-.47534,.60547-.75928,.20404-.71436,.40674-1.38794,.60437-2.03027-.06677,.02881-.13824,.06299-.20062,.08691,.0575-.2749,.22772-.63477,.4953-1.04297,.22186-.71436,.42371-1.36719,.58795-1.94141-.02081,.01099-.04425,.02612-.0647,.03638-.02014-.38892,.12976-.94971,.43671-1.60156,.00616-.03931,.01953-.09058,.02454-.12793-1.01147,1.57397-2.47632,5.14966-3.32617,9.38647-.54742,2.66943-.78217,5.10718-.85107,6.96729h0l.0011,.00146c.10754,.14502,.21661,.28882,.33362,.42627l.00031,.00049h0c.23254-1.88354,.53711-4.45166,1.21185-7.30298,.00977-.04224,.02094-.08179,.03082-.12378Z" style="fill:#036d50;"/></g><g><path d="M6.33569,26.31152c.09637-.01318,.20276-.03271,.31726-.05762,.81958-.17896,2.0827-.64551,3.49103-1.21558,1.60126-.65552,2.9494-1.2688,3.46277-1.71777-.85718-.05396-2.47693,.24683-4.10181,.93188-1.23431,.51562-2.19769,1.12695-2.75824,1.62402-.1792,.15894-.31897,.30664-.41101,.43506Z" style="fill:#ffcd00;"/><path d="M7.97333,21.48926c1.04327-.45068,2.60144-1.48364,4.28131-2.71704,1.77911-1.31543,3.17096-2.50684,3.49542-3.2439-1.2594,.18384-3.27832,1.07715-5.03448,2.46143-1.13831,.89111-1.96039,1.80029-2.44757,2.54346-.26758,.4082-.43781,.76807-.4953,1.04297,.06238-.02393,.13385-.05811,.20062-.08691Z" style="fill:#ffcd00;"/><path d="M8.85596,18.5918c1.07416-.55762,2.62177-1.87964,4.17377-3.46997,1.57538-1.62231,2.6723-3.09644,2.73419-3.948-1.34076,.354-3.25897,1.58057-4.77234,3.27686-.82184,.91577-1.40277,1.80957-1.76361,2.57593-.30695,.65186-.45685,1.21265-.43671,1.60156,.02045-.01025,.04388-.02539,.0647-.03638Z" style="fill:#ffcd00;"/><path d="M6.76349,24.27881c.13086-.02979,.27448-.06909,.42755-.11548,1.11462-.33789,2.79309-1.09692,4.67175-1.97168,2.12939-1.00195,3.91858-1.89111,4.53937-2.5188-1.25317-.03418-3.51257,.47388-5.66071,1.54053-1.53259,.75342-2.68506,1.60718-3.3725,2.30615-.27936,.28394-.48975,.54492-.60547,.75928Z" style="fill:#ffcd00;"/></g></svg>