<?xml version="1.0" encoding="UTF-8"?><svg id="Layer_1" xmlns="http://www.w3.org/2000/svg" viewBox="0 0 40 40"><rect x="1" y="0" width="40" height="40" fill="none"/><g><polygon points="31.43 26.561 10.356 26.561 10.356 15.643 31.15 17.046 31.43 26.561" fill="#e5e8eb"/><circle cx="23.733" cy="11.283" r="8.707" fill="#e5e8eb"/><circle cx="31.116" cy="19.177" r="7.384" fill="#e5e8eb"/><circle cx="10.356" cy="19.705" r="6.856" fill="#e5e8eb"/><circle cx="15.026" cy="12.545" r="5.612" fill="#e5e8eb"/></g><path d="m25.153,29.033h-2.873l.805-4.378c.132-.717-.776-1.14-1.24-.578l-5.758,6.974c-.381.461-.053,1.157.545,1.157h2.873l-.805,4.378c-.132.717.776,1.14,1.24.578l5.758-6.974c.381-.461.053-1.157-.545-1.157Z" fill="#ffcd00" fill-rule="evenodd"/></svg>