<?xml version="1.0" encoding="UTF-8"?><svg id="Layer_1" xmlns="http://www.w3.org/2000/svg" viewBox="0 0 40 40"><g opacity="0"><rect width="40" height="40" fill="#fff"/></g><rect x="18.5" y="25" width="3" height="6.667" fill="#fa0"/><path d="m29.674,20.245c-1.21,0-2.419-.333-3.571-.999-2.919-1.688-4.958-5.244-4.958-8.647v-1.146l7.978-2.178h5.88c1.378,0,2.5,1.122,2.5,2.5v1.806c0,3.216-1.638,6.157-4.274,7.674-1.146.66-2.35.989-3.554.989Zm-5.42-8.53c.376,1.983,1.692,3.975,3.351,4.934,1.369.792,2.758.793,4.127.006,1.709-.984,2.771-2.928,2.771-5.074v-1.306h-4.978l-5.271,1.439Z" fill="#ffcd00"/><path d="m10.326,20.245c-1.204,0-2.408-.33-3.555-.99-2.636-1.517-4.274-4.458-4.274-7.674v-1.806c0-1.378,1.122-2.5,2.5-2.5h5.88l7.978,2.178v1.146c0,3.403-2.039,6.959-4.958,8.647-1.151.666-2.361.999-3.571.999Zm-4.829-9.969v1.306c0,2.146,1.062,4.09,2.771,5.074,1.37.788,2.758.786,4.127-.006,1.659-.959,2.975-2.951,3.351-4.934l-5.271-1.439h-4.978Z" fill="#ffcd00"/><path d="m32.078,16.588c0,6.735-5.512,12.182-12.271,12.077-6.669-.104-11.886-5.842-11.886-12.511V5.333c0-1.105.895-2,2-2h20.157c1.105,0,2,.895,2,2v11.255Z" fill="#ffcd00"/><path d="m27.335,37.167h-14.67c-.819,0-1.397-.802-1.138-1.579l.926-2.779c.327-.98,1.244-1.641,2.277-1.641h10.54c1.033,0,1.95.661,2.277,1.641l.926,2.779c.259.777-.319,1.579-1.138,1.579Z" fill="#ffcd00"/></svg>