<svg id="Layer_1" data-name="Layer 1" xmlns="http://www.w3.org/2000/svg" viewBox="0 0 40 40"><defs><style>.cls-1{fill:#ff9000;}.cls-2{fill:#006956;}.cls-3{fill:none;}</style></defs><path class="cls-1" d="M36.389,22.392c0,8.308-7.337,15.042-16.389,15.042S3.611,30.7,3.611,22.392,10.948,9.107,20,9.107,36.389,14.085,36.389,22.392Z"/><path class="cls-2" d="M26.97,9.065c-1.908,1.368-4.653,1-5.914.726a.813.813,0,0,1-.625-.872c.147-1.282.679-4,2.587-5.367s4.653-1,5.914-.727a.816.816,0,0,1,.626.873C29.411,4.979,28.879,7.7,26.97,9.065Z"/><rect class="cls-3" width="40" height="40"/></svg>