<svg id="Layer_1" data-name="Layer 1" xmlns="http://www.w3.org/2000/svg" viewBox="0 0 40 40"><defs><style>.cls-1{fill:none;}.cls-2{fill:#ffd06c;}.cls-3{fill:#ef4452;}.cls-4{fill:#ffcac6;}</style></defs><rect class="cls-1" width="40" height="40"/><path class="cls-2" d="M22.813,37.932H17.28a4,4,0,0,1-3.98-4.374l1.557-16.577a4,4,0,0,1,3.983-3.626h2.418a4,4,0,0,1,3.983,3.626L26.8,33.558a4,4,0,0,1-3.987,4.374Z"/><path class="cls-3" d="M19.678,2.068h.644A17.227,17.227,0,0,1,37.549,19.3a4,4,0,0,1-4,4H6.451a4,4,0,0,1-4-4A17.227,17.227,0,0,1,19.678,2.068Z"/><path class="cls-4" d="M20.364,9.927a4.178,4.178,0,1,1-4.178-4.178A4.179,4.179,0,0,1,20.364,9.927Z"/><path class="cls-4" d="M29.513,15.927a3.482,3.482,0,1,1-3.482-3.482A3.482,3.482,0,0,1,29.513,15.927Z"/><path class="cls-4" d="M28.933,4.39a2.9,2.9,0,1,0,4.045,3.246A17.272,17.272,0,0,0,28.933,4.39Z"/><circle class="cls-4" cx="9.418" cy="17.369" r="2.901"/></svg>