<?xml version="1.0" encoding="UTF-8"?><svg id="a" xmlns="http://www.w3.org/2000/svg" viewBox="0 0 40 40"><rect width="40" height="40" fill="none"/><g><rect x="3.5" y="3.5" width="33" height="33" rx="8" ry="8" fill="#b7b7b7"/><g><line x1="11.729" y1="10.079" x2="13.057" y2="10.079" fill="none" stroke="#dedede" stroke-linecap="round" stroke-miterlimit="10" stroke-width="1.5"/><line x1="11.729" y1="15.039" x2="13.057" y2="15.039" fill="none" stroke="#dedede" stroke-linecap="round" stroke-miterlimit="10" stroke-width="1.5"/><line x1="11.729" y1="20" x2="13.057" y2="20" fill="none" stroke="#dedede" stroke-linecap="round" stroke-miterlimit="10" stroke-width="1.5"/><line x1="11.729" y1="24.961" x2="13.057" y2="24.961" fill="none" stroke="#dedede" stroke-linecap="round" stroke-miterlimit="10" stroke-width="1.5"/><line x1="11.729" y1="29.921" x2="13.057" y2="29.921" fill="none" stroke="#dedede" stroke-linecap="round" stroke-miterlimit="10" stroke-width="1.5"/></g><g><line x1="28.271" y1="10.079" x2="26.943" y2="10.079" fill="none" stroke="#dedede" stroke-linecap="round" stroke-miterlimit="10" stroke-width="1.5"/><line x1="28.271" y1="15.039" x2="26.943" y2="15.039" fill="none" stroke="#dedede" stroke-linecap="round" stroke-miterlimit="10" stroke-width="1.5"/><line x1="28.271" y1="20" x2="26.943" y2="20" fill="none" stroke="#dedede" stroke-linecap="round" stroke-miterlimit="10" stroke-width="1.5"/><line x1="28.271" y1="24.961" x2="26.943" y2="24.961" fill="none" stroke="#dedede" stroke-linecap="round" stroke-miterlimit="10" stroke-width="1.5"/><line x1="28.271" y1="29.921" x2="26.943" y2="29.921" fill="none" stroke="#dedede" stroke-linecap="round" stroke-miterlimit="10" stroke-width="1.5"/></g><line x1="20" y1="8.029" x2="20" y2="31.871" fill="none" stroke="#3d3d3d" stroke-linecap="round" stroke-miterlimit="10" stroke-width="2.5"/><path d="M22.036,17.811h-4.071c-1.057,0-1.876-.927-1.745-1.976l.274-2.198c.018-.144,.018-.29,0-.434l-.274-2.198c-.131-1.049,.688-1.976,1.745-1.976h4.071c1.057,0,1.876,.927,1.745,1.976l-.274,2.198c-.018,.144-.018,.29,0,.434l.274,2.198c.131,1.049-.688,1.976-1.745,1.976Z" fill="#fff"/><path d="M23.507,13.203l.099-.796h-7.213l.099,.796c.018,.144,.018,.29,0,.434l-.113,.906h7.24l-.113-.906c-.018-.144-.018-.29,0-.434Z" fill="#767676"/></g></svg>