<?xml version="1.0" encoding="UTF-8"?><svg id="Layer_1" xmlns="http://www.w3.org/2000/svg" viewBox="0 0 40 40"><g><path d="M24.80826,9.06342c-1.33904,1.56223-3.68427,1.90219-4.96584,1.9659-.5182,.02576-.9783-.3686-1.0321-.88465-.13306-1.27623-.15582-3.64586,1.18322-5.2081,1.33904-1.56223,3.68427-1.90219,4.96584-1.9659,.5182-.02576,.9783,.3686,1.0321,.88465,.13306,1.27623,.15582,3.64586-1.18322,5.2081Z" style="fill:#006956;"/><g><path d="M35.54966,23.88417c-3.63183,10.14179-15.22545,13.14635-15.22545,13.14635,0,0-7.17032-10.70851-4.22979-20.77781,1.83517-6.28419,8.68384-9.32683,14.05626-7.21946,5.37242,2.10737,7.60613,8.68753,5.39899,14.85092Z" style="fill:#fdaeb3;"/><path d="M24.42779,17.28545c3.3042,10.25321-4.10358,19.74507-4.10358,19.74507,0,0-12.16251-4.15891-15.97048-13.93321-2.37654-6.10008,1.1972-12.68722,6.7405-14.29212,5.5433-1.6049,11.32553,2.24916,13.33357,8.48026Z" style="fill:#fa878f;"/></g></g><rect width="40" height="40" style="fill:none;"/></svg>