<svg id="Layer_1" data-name="Layer 1" xmlns="http://www.w3.org/2000/svg" viewBox="0 0 40 40"><defs><style>.cls-1{fill:#ebebeb;}.cls-2{fill:#767676;}.cls-3{fill:#bababa;fill-rule:evenodd;}.cls-4{fill:none;}</style></defs><path id="SVGID" class="cls-1" d="M32.938,27.909a2.066,2.066,0,0,0,1.336-2.38,2.07,2.07,0,0,0,.9-2.577,2.067,2.067,0,0,0,.441-2.694,2.069,2.069,0,0,0-.034-2.729,2.068,2.068,0,0,0-.507-2.683,2.068,2.068,0,0,0-.965-2.553,2.068,2.068,0,0,0-1.394-2.347,2.069,2.069,0,0,0-1.781-2.07,2.067,2.067,0,0,0-2.112-1.728,2.068,2.068,0,0,0-2.381-1.336,2.067,2.067,0,0,0-2.577-.9,2.067,2.067,0,0,0-2.694-.441,2.066,2.066,0,0,0-2.729.034,2.066,2.066,0,0,0-2.682.507,2.068,2.068,0,0,0-2.554.965A2.068,2.068,0,0,0,10.86,6.369a2.067,2.067,0,0,0-2.069,1.78,2.067,2.067,0,0,0-1.729,2.113,2.066,2.066,0,0,0-1.336,2.381,2.069,2.069,0,0,0-.9,2.576,2.067,2.067,0,0,0-.441,2.694,2.07,2.07,0,0,0,.034,2.73,2.067,2.067,0,0,0,.507,2.682,2.068,2.068,0,0,0,.965,2.554,2.068,2.068,0,0,0,1.394,2.347A2.069,2.069,0,0,0,9.064,30.3Z"/><path class="cls-2" d="M15.4,32.126H24.6a0,0,0,0,1,0,0v3.265a1.637,1.637,0,0,1-1.637,1.637H17.041A1.637,1.637,0,0,1,15.4,35.391V32.126A0,0,0,0,1,15.4,32.126Z"/><path class="cls-3" d="M36.37,16.5a1.625,1.625,0,0,1,1.623,1.765,18.08,18.08,0,0,1-35.986,0A1.625,1.625,0,0,1,3.63,16.5Z"/><rect class="cls-4" width="40" height="40"/></svg>