<svg id="Layer_1" data-name="Layer 1" xmlns="http://www.w3.org/2000/svg" viewBox="0 0 40 40"><defs><style>.cls-1{fill:#e5e8eb;}.cls-2{fill:#313d4c;}.cls-3{fill:none;}</style></defs><rect class="cls-1" x="3.5" y="3.5" width="33" height="33" rx="8" transform="translate(40 40) rotate(-180)"/><rect class="cls-2" x="11.691" y="17.702" width="13.669" height="10.681" rx="2.672" transform="translate(37.05 46.086) rotate(-180)"/><path class="cls-2" d="M29.53,19.429v7.226a.6.6,0,0,1-.932.5l-4.084-2.668a.523.523,0,0,1-.237-.438V22.025a.521.521,0,0,1,.238-.438L28.6,18.925A.6.6,0,0,1,29.53,19.429Z"/><circle class="cls-2" cx="22.205" cy="13.908" r="3.292"/><circle class="cls-2" cx="14.762" cy="13.908" r="3.292"/><rect class="cls-3" width="40" height="40"/></svg>