<svg id="Layer_1" data-name="Layer 1" xmlns="http://www.w3.org/2000/svg" viewBox="0 0 40 40"><defs><style>.cls-1,.cls-3,.cls-8{fill:none;}.cls-2{fill:#4592fb;}.cls-3{stroke:#333d4b;}.cls-3,.cls-8{stroke-linecap:round;stroke-miterlimit:10;}.cls-4{fill:#d0d5da;}.cls-5{fill:#e5e9ee;}.cls-6{fill:#fff;fill-rule:evenodd;}.cls-7{fill:#6b7683;}.cls-8{stroke:#6b7683;}</style></defs><rect class="cls-1" width="40" height="40"/><path class="cls-2" d="M27.007,3.126,20.316.293V7.632L27.007,4.8A.908.908,0,0,0,27.007,3.126Z"/><line class="cls-3" x1="20" y1="0.659" x2="20" y2="13.079"/><path class="cls-4" d="M6.157,37.707H33.843A2.158,2.158,0,0,0,36,35.549V17.291H4V35.549A2.158,2.158,0,0,0,6.157,37.707Z"/><path class="cls-2" d="M6.157,14.055H33.843A2.157,2.157,0,0,1,36,16.212v1.079a0,0,0,0,1,0,0H4a0,0,0,0,1,0,0V16.212A2.157,2.157,0,0,1,6.157,14.055Z"/><path class="cls-2" d="M26.753,14.055,20.764,8.042a1.077,1.077,0,0,0-1.528,0l-5.989,6.013v3.236H26.753Z"/><path class="cls-5" d="M25.674,17.291,20,11.589l-5.674,5.7V37.707H25.674Z"/><path class="cls-6" d="M20,24.689a3.7,3.7,0,1,1,3.7-3.7A3.7,3.7,0,0,1,20,24.689Z"/><path class="cls-7" d="M18.509,32.313h2.981A1.206,1.206,0,0,1,22.7,33.519v4.187a0,0,0,0,1,0,0H17.3a0,0,0,0,1,0,0V33.519A1.206,1.206,0,0,1,18.509,32.313Z"/><polyline class="cls-8" points="20 18.688 20 21 18.225 21"/></svg>