<svg id="Layer_1" data-name="Layer 1" xmlns="http://www.w3.org/2000/svg" viewBox="0 0 40 40"><defs><style>.cls-1{fill:#b1b3fb;}.cls-2{fill:#8b8bf4;}.cls-3{fill:none;}</style></defs><path class="cls-1" d="M37.928,11.747A22.551,22.551,0,0,1,28.3,14.431a.7.7,0,0,1-.6-.289l-.918-1.279a.645.645,0,0,1-.1-.2c-.265-.927-2-7.7,2.58-11.629a.422.422,0,0,1,.671.2A7.208,7.208,0,0,0,34,5.894c2.978,1.255,4.1,3.183,4.463,4.573A1.126,1.126,0,0,1,37.928,11.747Z"/><path class="cls-1" d="M2.157,27.582a22.56,22.56,0,0,1,9.82-1.863.7.7,0,0,1,.569.339l.806,1.351a.624.624,0,0,1,.082.208c.186.946,1.349,7.846-3.55,11.37a.424.424,0,0,1-.653-.258,7.2,7.2,0,0,0-3.652-4.984c-2.862-1.5-3.82-3.517-4.062-4.933A1.127,1.127,0,0,1,2.157,27.582Z"/><path class="cls-2" d="M17.36,8.188A11.868,11.868,0,0,1,31.411,22.37L12.791,10.238A11.809,11.809,0,0,1,17.36,8.188Z"/><path class="cls-2" d="M26.46,29.662A11.874,11.874,0,0,1,8.121,17.713Z"/><path class="cls-1" d="M12.791,10.238,31.411,22.37a11.911,11.911,0,0,1-4.951,7.292L8.121,17.713A11.913,11.913,0,0,1,12.791,10.238Z"/><rect class="cls-3" width="40" height="40"/></svg>