<svg id="Layer_1" data-name="Layer 1" xmlns="http://www.w3.org/2000/svg" viewBox="0 0 40 40"><defs><style>.cls-1{fill:none;}.cls-2{fill:#a41926;}.cls-3{fill:#d12030;}</style></defs><rect class="cls-1" width="40" height="40"/><path class="cls-2" d="M20.2,38h0a1.167,1.167,0,0,1-1.167-1.2l.283-9.722h1.732l.318,9.718A1.167,1.167,0,0,1,20.2,38Z"/><path class="cls-3" d="M25.01,14.949c0,7.289-4.837,13.2-4.837,13.2s-4.836-5.909-4.836-13.2c0-6.162,3.457-11.338,4.526-12.79a.383.383,0,0,1,.621,0C21.553,3.611,25.01,8.787,25.01,14.949Z"/><path class="cls-3" d="M14.952,16.947c4.929,4.262,6.1,10.988,6.1,10.988S14.225,27.751,9.3,23.489c-4.117-3.559-5.61-8.838-5.99-10.481a.386.386,0,0,1,.41-.474C5.4,12.673,10.835,13.388,14.952,16.947Z"/><path class="cls-3" d="M12.654,25.124a15,15,0,0,1,8.952,1.1,14.991,14.991,0,0,1-7.545,4.943,14.816,14.816,0,0,1-8.609-.95.282.282,0,0,1-.1-.443A14.81,14.81,0,0,1,12.654,25.124Z"/><path class="cls-3" d="M27.7,25.124a15,15,0,0,0-8.951,1.1,14.991,14.991,0,0,0,7.545,4.943,14.819,14.819,0,0,0,8.609-.95.282.282,0,0,0,.1-.443A14.814,14.814,0,0,0,27.7,25.124Z"/><path class="cls-3" d="M25.148,17.016c-4.825,4.379-5.831,11.131-5.831,11.131s6.817-.348,11.642-4.727c4.031-3.657,5.4-8.97,5.737-10.621a.386.386,0,0,0-.421-.464C34.6,12.514,29.178,13.359,25.148,17.016Z"/></svg>