<?xml version="1.0" encoding="UTF-8"?><svg id="Layer_1" xmlns="http://www.w3.org/2000/svg" viewBox="0 0 40 40"><g><rect width="40" height="40" fill="none"/><g><path d="m9.828,26.486c-.169,0-.341-.043-.499-.134-2.392-1.381-4.285-3.32-5.333-5.461-1.111-2.271-1.153-4.51-.119-6.302.276-.479.888-.644,1.366-.366.479.276.642.888.366,1.366-.691,1.197-.626,2.768.184,4.423.874,1.787,2.485,3.424,4.536,4.607.478.276.642.888.366,1.366-.186.32-.521.5-.867.5Z" fill="#86584a"/><g><path d="m31.596,11.298c-.346,0-.682-.179-.867-.5-.276-.479-.112-1.09.366-1.366,2.912-1.681,4.491-4.627,3.448-6.432-.276-.479-.112-1.09.366-1.366.479-.276,1.09-.113,1.366.366,1.639,2.839-.198,6.864-4.181,9.164-.157.091-.33.134-.499.134Z" fill="#c3846c"/><path d="m34.609,8.255c.019-.314-.156-.617-.437-.758-3.093-1.541-7.347-1.356-11.122.824-3.963,2.288-6.287,6.133-6.29,9.735,3.121,1.798,7.612,1.708,11.576-.58,3.775-2.18,6.063-5.771,6.274-9.22Z" fill="#dcb095"/></g></g><path d="m27.519,28.893c-.659,1-1.788,1.662-3.075,1.662-2.034,0-3.683-1.649-3.683-3.683,0-1.347.731-2.513,1.81-3.155-.434-.302-.88-.595-1.35-.866-5.034-2.906-10.706-3.153-14.829-1.098-.375.187-.609.592-.583,1.01.282,4.599,3.332,9.387,8.366,12.293,5.285,3.051,11.273,3.171,15.434.774-.002-2.328-.737-4.73-2.09-6.937Z" fill="#c3846c"/></g><g><path d="m14.463,13.193c-2.866,0-5.198-2.332-5.198-5.198,0-.414.336-.75.75-.75s.75.336.75.75c0,2.039,1.659,3.698,3.698,3.698.414,0,.75.336.75.75s-.336.75-.75.75Z" fill="#cecfcf"/><path d="m14.047,16.097c-4.127,0-7.485-3.358-7.485-7.485,0-.414.336-.75.75-.75s.75.336.75.75c0,3.301,2.685,5.985,5.985,5.985.414,0,.75.336.75.75s-.336.75-.75.75Z" fill="#cecfcf"/></g></svg>