<svg id="Layer_1" data-name="Layer 1" xmlns="http://www.w3.org/2000/svg" viewBox="0 0 40 40"><defs><style>.cls-1{fill:#e5ded6;}.cls-2{fill:#965343;}.cls-3,.cls-4{fill:none;}.cls-3{stroke:#e5ded6;stroke-linecap:round;stroke-linejoin:round;stroke-width:2.042px;}</style></defs><path class="cls-1" d="M20.863,35a21.646,21.646,0,0,0,8.755-5.382,21.636,21.636,0,0,0,5.482-9.08c0-.009.014-.009.017-.019a20.008,20.008,0,0,0,.777-3.878c.462-4.486-.635-8.337-2.387-10.089-1.478-1.478-4.484-2.5-8.079-2.516l-.01-.013c-.1,0-.2.006-.3,0l-.175,0a19.275,19.275,0,0,0-6.586,1.2l.007.007A22.206,22.206,0,0,0,5.139,18.627l-.009.017c-.006.016-.01.032-.016.048l-.03.094c-.142.395-.261.793-.367,1.191-.01.036-.023.071-.033.106l0,.005a22.3,22.3,0,0,0-.641,4.164l.016.019c-.262,4.066.817,7.561,2.45,9.193,1.419,1.42,4.253,2.419,7.66,2.507l.014.017c.116,0,.237-.009.354-.008.328,0,.66-.007,1-.023.253-.012.5-.024.753-.045.117-.01.23-.009.348-.022l-.016-.015a20.426,20.426,0,0,0,3.265-.587l0,.006c.13-.036.257-.082.387-.12.193-.058.411-.108.586-.17Z"/><path class="cls-2" d="M33.5,6.541c-1.752-1.752-5.641-2.888-10.127-2.426L35.887,16.63C36.349,12.144,35.251,8.293,33.5,6.541Z"/><path class="cls-2" d="M6.506,33.457c1.752,1.752,5.641,2.888,10.127,2.426L4.119,23.368C3.618,27.816,4.754,31.705,6.506,33.457Z"/><path class="cls-2" d="M35.29,19.883,20.08,4.673a22.177,22.177,0,0,0-15.4,15.4l15.21,15.21a21.628,21.628,0,0,0,9.723-5.68A21.623,21.623,0,0,0,35.29,19.883Z"/><line class="cls-3" x1="24.788" y1="15.176" x2="15.619" y2="24.344"/><line class="cls-3" x1="20.315" y1="15.229" x2="24.783" y2="19.697"/><line class="cls-3" x1="17.748" y1="17.796" x2="22.216" y2="22.265"/><line class="cls-3" x1="15.18" y1="20.363" x2="19.649" y2="24.832"/><rect class="cls-4" width="40" height="40"/></svg>