<?xml version="1.0" encoding="UTF-8"?><svg id="Layer_1" xmlns="http://www.w3.org/2000/svg" viewBox="0 0 40 40"><g><g><path d="M19.13477,36h1.2793v-7.50391c-.44116-.08325-.87616-.16797-1.2793-.23462v7.73853Z" style="fill:#595959;"/><path d="M19.13477,11.20703v11.18066c.11877,.01904,.23816,.03906,.35138,.05029,.03394,.00366,.06702,.00586,.10046,.00854,.29346,.02368,.56677,.01489,.82745-.0188V11.20703h-1.2793Z" style="fill:#595959;"/></g><g><path d="M20.01892,1.06177l-.08557-.05933c-.13501-.02979-.27496-.03003-.40289,.02881L3.60028,8.35059c-.70349,.32324-1.15436,1.02637-1.15436,1.80078v.41602c0,.35327,.2865,.63965,.63989,.63965h5.14404v-2.28003L20.01892,1.06177Z" style="fill:#ffcc35;"/><path d="M31.36566,11.20703v-2.28003L20.14941,1.1521l5.43231,7.7749v2.28003h10.92804c.1767,0,.33661-.07153,.45245-.1875-.11578,.11597-.2757,.1875-.45239,.1875h-5.14417Z" style="fill:#ffcc35;"/><polygon points="19.79767 8.927 20.06274 1.09204 20.03357 1.07178 14.01385 8.927 14.01385 11.20703 19.13477 11.20703 19.79779 11.20703 19.79767 8.927" style="fill:#ffcc35;"/></g><g><path d="M36.77698,8.70947L20.06482,1.03101l.08459,.12109,11.21625,7.7749v2.28003h5.14417c.1767,0,.33661-.07153,.45239-.1875,.11578-.11572,.1875-.27563,.1875-.45239v-1.27612c0-.25-.14557-.47705-.37274-.58154Z" style="fill:#ffaf00;"/><polygon points="20.03357 1.07178 20.06274 1.09204 20.06482 1.03101 20.03357 1.07178" style="fill:#ffaf00;"/><path d="M20.06482,1.03101c-.04181-.01904-.08746-.0188-.13153-.02856h.00006l.08557,.05933,.0459-.03076Z" style="fill:#ffaf00;"/><polygon points="20.14941 1.1521 20.06482 1.03101 20.06274 1.09204 19.79767 8.927 19.79779 11.20703 20.41406 11.20703 25.58173 11.20703 25.58173 8.927 20.14941 1.1521" style="fill:#ffaf00;"/><polygon points="20.03357 1.07178 20.06482 1.03101 20.01892 1.06177 8.22986 8.927 8.22986 11.20703 14.01385 11.20703 14.01385 8.927 20.03357 1.07178" style="fill:#ffaf00;"/></g><path d="M22.90656,23.75928c0,.66162-.5412,1.20288-1.20288,1.20288h-4.6142c-.6615,0-1.20282-.54126-1.20282-1.20288v-1.53955c.83527-.11621,1.84277-.09033,3.05969,.14087l.00067,.00024-.00061-.00024c-2.07721-.39478-3.56439-.20752-4.57654,.30493l.00024,.00049s.02289,.74756-.75098,.50952c-.74231,.66943-1.05139,1.58569-1.03442,2.50269,.03906,2.10742-.85864,1.7561-1.5611,2.771-.70251,1.01465-.15613,.8584-1.01477,2.65381s-2.02948,.46826-2.4588,2.3418c-.42932,1.87329,.74152,1.28784,1.91241,.54639,1.17084-.7417,1.95142-2.65381,2.53687-3.2688,.58539-.61499,1.71722-.08765,2.69293-.32178,.97571-.23413,1.87341-1.52222,2.61493-2.10767,.28845-.22754,.98615-.1709,1.82758-.03149,.40314,.06665,.83813,.15137,1.2793,.23462,1.00543,.18945,2.03473,.36475,2.74744,.26514,1.67822-.23389,2.10553-1.39893,2.7392-1.85645,1.09692-.79175,1.0119,4.07568,1.32697,5.78931,.20093,1.09277,.35852,1.16162,1.36731,1.36597,.61664,.125,.85156-.11328,.25214-1.7627-.57867-1.59229-.10309-4.00977,.20917-5.45361,.31219-1.44409-.00726-2.35864-1.44556-4.13184-1.0965-1.35181-.35126-4.72241,.78058-3.55151,1.13184,1.17065,1.87335,1.48315,2.69299,.81958,.78247-.63354-.04773-2.40967-1.85547-4.53857-.08575-.10107-.16193-.19849-.25208-.30103-.37006-.4209-.71838-.6853-1.05029-.81738-.11731-.04663-.2326-.07642-.34601-.09058,.0694,.1665,.10834,.34888,.10834,.54053,0,.7771-.62988,1.40698-1.40692,1.40698-.01025,0-.01971-.00269-.02991-.00293,.00867,.05005,.02991,.09546,.02991,.14819,0,.4939-.40045,.89429-.89441,.89429-.05884,0-.11023-.02271-.16589-.03345-.02631,.27075-.14862,.50757-.34229,.67725,.03253,.08252,.05371,.17139,.05371,.26562,0,.36621-.27344,.65625-.62427,.70996,.07733,.12866,.13373,.271,.13373,.43213,0,.47339-.38373,.85693-.85712,.85693-.09894,0-.19049-.02539-.27893-.05615-.20007,.34717-.39978,.65576-.60254,.92139,.11688,.18408,.2027,.38916,.2027,.62256v2.14355Z" style="fill:#e1e7ee;"/><g><path d="M28.97675,15.14038c.09015,.10254,.16632,.19995,.25208,.30103l.69427-2.02734c.05792-.16919-.13104-.31592-.28052-.21777l-1.71613,1.12671c.33191,.13208,.68024,.39648,1.05029,.81738Z" style="fill:#7b93ac;"/><path d="M27.69,14.77002c0,.78003-.63,1.40991-1.40997,1.40991h-.03003c.01001,.05005,.03003,.09009,.03003,.15015,0,.48999-.40002,.88989-.89001,.88989-.06,0-.10999-.02002-.17004-.03003-.01996,.27002-.14996,.5-.33997,.66992,.02997,.09009,.04999,.17017,.04999,.27002,0,.37012-.27002,.66016-.62,.70996,.08002,.13013,.13,.27002,.13,.43018,0,.46997-.38,.85986-.84998,.85986-.10004,0-.20001-.02979-.28003-.05981-.34003-.11011-.58002-.42017-.58002-.80005,0-.44995,.36005-.82007,.80005-.8501-.04004-.08984-.06006-.18994-.06006-.29004,0-.09985,.02002-.17993,.05005-.27002-.21002-.18994-.36005-.45996-.36005-.77002,0-.56982,.47003-1.03979,1.04004-1.03979,.12,0,.22998,.03003,.33997,.07007,.07001-.29004,.26001-.52002,.54004-.63013-.13-.20996-.21002-.44995-.21002-.71997,0-.77002,.63-1.3999,1.41003-1.3999,.58997,0,1.08997,.34985,1.29999,.85986,.07001,.16992,.10999,.3501,.10999,.54004Z" style="fill:#7b93ac;"/><path d="M14.37012,22.66602l-.00024-.00049c-.00116-.00391-.36951-1.17676-1.87622-1.28052-1.50909-.10425-1.72333,1.4436-3.9549,1.89941-.88403,.18042-2.10754,.44214-1.35297,.85864,.75452,.41626,1.82806,1.13647,3.20032,.59839,1.56537-.61401,2.45746-1.80542,3.23218-1.56616l.00085,.00024c.77386,.23804,.75098-.50952,.75098-.50952Z" style="fill:#7b93ac;"/></g><path d="M19.58661,22.44653c-.03333-.00269-.06671-.00513-.10046-.00854-.11322-.01123-.2326-.03125-.35138-.05029-.06348-.01025-.12262-.01465-.18774-.02686l-.00067-.00024c-1.21692-.2312-2.22443-.25708-3.05969-.14087v1.53955c0,.66162,.54132,1.20288,1.20282,1.20288h4.6142c.66168,0,1.20288-.54126,1.20288-1.20288v-2.14355c0-.2334-.08582-.43848-.2027-.62256l-.00824-.01636c-.6803,.88843-1.39886,1.33667-2.28156,1.45093-.26068,.03369-.534,.04248-.82745,.0188Z" style="fill:#243d55;"/><path d="M5.40662,36c-.54724,0-.99084,.4436-.99084,.99097v.99097c0,.54712,.4436,.99072,.99084,.99072h28.73578c.54724,0,.99084-.4436,.99084-.99072v-.99097c0-.54736-.4436-.99097-.99084-.99097H5.40662Z" style="fill:#ffaf00;"/></g><rect x="0" y="0" width="40" height="40" transform="translate(40 40) rotate(-180)" style="fill:none;"/></svg>