<?xml version="1.0" encoding="UTF-8"?><svg id="Layer_1" xmlns="http://www.w3.org/2000/svg" viewBox="0 0 40 40"><g><path d="M35.26001,16.44995c0,8.01001-5.96002,14.62012-13.69,15.65991-.70001,.1001-1.41003,.16016-2.13,.16016-.72998,0-1.44-.06006-2.14001-.16016-7.71997-1.03979-13.69-7.6499-13.69-15.65991,0-.96997,.85999-1.86011,2.33002-2.62988-.14001,.76978-.21002,1.57007-.21002,2.38989,0,.18018,0,.36011,.01001,.55005,.03003,.57983,.38,1.09009,.91998,1.32007,3.21002,1.34985,7.74005,2.19995,12.78003,2.19995,5.02997,0,9.57001-.8501,12.77002-2.19995,.53998-.22998,.89996-.74023,.91998-1.32007,.01001-.18994,.01001-.36987,.01001-.55005,0-.81982-.07001-1.62012-.20001-2.38989,1.46002,.76978,2.32001,1.65991,2.32001,2.62988Z" style="fill:#8a94a0;"/><path d="M31.09351,10.87305c-.20337,.14575-.28326,.39624-.24139,.64307,.20679,1.21875-.26282,2.52783-1.34125,3.3584-.33667,.25952-.70367,.45044-1.08362,.57495l-3.79779-4.49292c-.13672-.16162-.16449-.39819-.04694-.57422,.2132-.31958,.4823-.61133,.80511-.85986,1.08752-.83789,2.48657-.95142,3.617-.4248,.22034,.10254,.54193,.0874,.73071-.06592l.8869-.71973c-.15833-.22363-.31586-.448-.48688-.66162-2.51196-3.13647-6.36761-5.15039-10.69873-5.15039s-8.18671,2.01392-10.69867,5.15039c-1.40601,1.75562-2.39215,3.86206-2.79968,6.16846-.13708,.77563-.20923,1.57373-.20923,2.38892,0,.18335,.00409,.36597,.0119,.54736,.0249,.58252,.38049,1.09302,.91742,1.32007,3.20679,1.35693,7.74457,2.20361,12.77826,2.20361s9.57153-.84668,12.77832-2.20361c.53693-.22705,.89252-.73755,.91742-1.32007,.00781-.1814,.0119-.36401,.0119-.54736,0-.81519-.0722-1.61328-.20923-2.38892-.2157-1.22046-.59888-2.38135-1.11511-3.46729l-.72644,.52148ZM19.43665,2.52783c4.33112,0,8.18677,2.01392,10.69873,5.15063,0,0-2.20898,1.79102-4.54773-.03833-2.33875-1.82959-3.79102,.0188-3.79102,.0188,0,0-1.61353,1.7439-4.16821,.01953-2.52356-1.70337-4.37573,0-4.37573,0-2.43304,1.50952-4.51471,0-4.51471,0,2.51196-3.13672,6.36761-5.15063,10.69867-5.15063Z" style="fill:#e5e9ee;"/><path d="M13.25269,7.67847s1.85217-1.70337,4.37573,0c2.55469,1.72437,4.16821-.01953,4.16821-.01953,0,0,1.45227-1.84839,3.79102-.0188,2.33875,1.82935,4.54773,.03833,4.54773,.03833-2.51196-3.13672-6.36761-5.15063-10.69873-5.15063s-8.18671,2.01392-10.69867,5.15063c0,0,2.08167,1.50952,4.51471,0Z" style="fill:#fdaeb3;"/><g><path d="M27.10999,35.26001c0,1.23999-3.42999,2.23999-7.66998,2.23999s-7.67999-1-7.67999-2.23999c0-1,2.23999-1.84009,5.32001-2.13013l.21997-1.02002c.70001,.1001,1.41003,.16016,2.14001,.16016,.71997,0,1.42999-.06006,2.13-.16016l.21997,1.02002c3.09003,.29004,5.32001,1.13013,5.32001,2.13013Z" style="fill:#6b7683;"/><path d="M29.00464,9.09766c-1.13043-.52661-2.52948-.41309-3.617,.4248-.32281,.24854-.59192,.54028-.80511,.85986-.11755,.17603-.08978,.4126,.04694,.57422l3.79779,4.49292c.37994-.12451,.74695-.31543,1.08362-.57495,1.07843-.83057,1.54803-2.13965,1.34125-3.3584-.04187-.24683,.03802-.49731,.24139-.64307l.72644-.52148,4.29187-3.08032c.30273-.21729,.36517-.64209,.13782-.93726l-.81519-1.05811c-.22607-.29346-.64954-.34302-.93713-.10938l-3.87506,3.14551-.8869,.71973c-.18878,.15332-.51038,.16846-.73071,.06592Z" style="fill:#6b7683;"/></g></g><rect width="40" height="40" style="fill:none;"/></svg>