<?xml version="1.0" encoding="UTF-8"?><svg id="Layer_1" xmlns="http://www.w3.org/2000/svg" viewBox="0 0 40 40"><g><path d="m24.808,9.063c-1.339,1.562-3.684,1.902-4.966,1.966-.518.026-.978-.369-1.032-.885-.133-1.276-.156-3.646,1.183-5.208,1.339-1.562,3.684-1.902,4.966-1.966.518-.026.978.369,1.032.885.133,1.276.156,3.646-1.183,5.208Z" fill="#006956"/><g><path d="m35.55,23.884c-3.632,10.142-15.225,13.146-15.225,13.146,0,0-7.17-10.709-4.23-20.778,1.835-6.284,8.684-9.327,14.056-7.219,5.372,2.107,7.606,8.688,5.399,14.851Z" fill="#fdaeb3"/><path d="m24.428,17.285c3.304,10.253-4.104,19.745-4.104,19.745,0,0-12.163-4.159-15.97-13.933-2.377-6.1,1.197-12.687,6.74-14.292,5.543-1.605,11.326,2.249,13.334,8.48Z" fill="#fa878f"/></g></g><rect width="40" height="40" fill="none"/></svg>