<?xml version="1.0" encoding="UTF-8"?><svg id="Layer_1" xmlns="http://www.w3.org/2000/svg" viewBox="0 0 40 40"><g><rect x="29.1086" y="4.23232" width="3.07119" height="9.76026" transform="translate(19.16137 -20.72458) rotate(52.39017)" style="fill:#5e403b;"/><ellipse cx="34.51016" cy="6.1342" rx=".62455" ry="1.53559" transform="translate(3.42814 22.33568) rotate(-37.60983)" style="fill:#cb8c00;"/><rect x="26.04812" y="1.29761" width="3.07119" height="9.76026" transform="translate(6.63145 -12.79667) rotate(29.54021)" style="fill:#5e403b;"/><ellipse cx="29.98979" cy="1.93198" rx=".62455" ry="1.53559" transform="translate(13.52295 27.07086) rotate(-60.45979)" style="fill:#cb8c00;"/><ellipse cx="20" cy="36.79685" rx="7.5517" ry="2.20315" style="fill:#6b7683;"/><polygon points="22.62804 36.12497 17.37196 36.12497 18.23737 32.16098 21.76263 32.16098 22.62804 36.12497" style="fill:#6b7683;"/><path d="M35.57011,18.28581c0,8.59913-6.97097,15.57011-15.57011,15.57011s-15.57011-6.97097-15.57011-15.57011h31.14021Z" style="fill:#8a94a0;"/><ellipse cx="20" cy="18.28581" rx="15.57011" ry="4.97863" style="fill:#8a94a0;"/><path d="M30.52754,9.62807c-2.47178-3.08651-6.26571-5.06816-10.52757-5.06816s-8.05573,1.98165-10.5275,5.06816c-1.84879,2.3084-2.96077,5.23267-2.96077,8.42025,0,.18054,.00403,.36008,.01168,.53868,.02454,.57315,.37441,1.07558,.90274,1.2991,3.15552,1.33494,7.6207,2.16834,12.57385,2.16834s9.41839-.8334,12.57392-2.16834c.52834-.22351,.87821-.72595,.90274-1.2991,.00765-.1786,.01168-.35814,.01168-.53868,0-3.18758-1.11198-6.11185-2.96077-8.42025Z" style="fill:#ffe3a0;"/></g><rect width="40" height="40" style="fill:none;"/></svg>