<?xml version="1.0" encoding="UTF-8"?><svg id="a" xmlns="http://www.w3.org/2000/svg" viewBox="0 0 40 40"><rect y="0" width="40" height="40" fill="none"/><g><path d="M27.732,23.813c.122-.188,.237-.385,.344-.591,1.334-2.562,.995-5.914-.904-8.457-3.15-4.216-8.876-4.851-12.09-1.637-.101,.101-.198,.204-.291,.31-.939,1.07-2.31,1.623-3.789,1.741-2.516,.202-4.899,1.239-6.708,3.136-3.977,4.17-3.674,11.281,.685,15.968,4.782,5.141,12.433,5.66,16.859,1.234,1.356-1.356,2.248-3.015,2.684-4.801,.616-2.52,1.826-4.775,3.209-6.904Z" fill="#fa0"/><rect x="19.282" y="11.331" width="15.704" height="3.034" transform="translate(-1.137 22.95) rotate(-45)" fill="#3d3d3d"/><rect x="8.476" y="27.278" width="6.833" height="1.622" rx=".811" ry=".811" transform="translate(23.345 -.182) rotate(45)" fill="#f77f00"/><circle cx="19.397" cy="20.585" r="3.532" fill="#3d3d3d"/><path d="M31.664,5.203l3.023-3.446c.308-.351,.85-.369,1.18-.039l2.396,2.396c.331,.331,.313,.872-.039,1.18l-3.446,3.023c-.32,.281-.804,.265-1.106-.036l-1.973-1.973c-.301-.301-.317-.785-.036-1.106Z" fill="#fa0"/></g></svg>