<svg id="Layer_1" data-name="Layer 1" xmlns="http://www.w3.org/2000/svg" viewBox="0 0 40 40"><defs><style>.cls-1{fill:#ffc733;}.cls-2{fill:#ffd361;}.cls-3{fill:#ffdb80;}.cls-4{fill:#ffe9b0;}.cls-5{fill:#e32939;}.cls-6{fill:#d5d5d5;}.cls-7{fill:none;}</style></defs><path class="cls-1" d="M30.064,11.536A2.151,2.151,0,0,0,30.1,8.643a2.146,2.146,0,0,0-3.122-2.919,2.145,2.145,0,0,0-2.918,3.122,2.145,2.145,0,0,0,3.121,2.918A2.152,2.152,0,0,0,30.064,11.536Z"/><path class="cls-1" d="M21.554,8.48a2.15,2.15,0,0,0-.565-2.838,2.146,2.146,0,0,0-3.658-2.209,2.145,2.145,0,0,0-2.209,3.658A2.145,2.145,0,0,0,18.78,9.3,2.149,2.149,0,0,0,21.554,8.48Z"/><path class="cls-2" d="M26.339,8.926A2.152,2.152,0,0,0,25.73,6.1a2.146,2.146,0,0,0-3.692-2.152,2.145,2.145,0,0,0-2.152,3.691,2.145,2.145,0,0,0,3.691,2.152A2.15,2.15,0,0,0,26.339,8.926Z"/><path class="cls-1" d="M13.527,11.784a2.151,2.151,0,0,0-1.951-2.137,2.145,2.145,0,0,0-4.273,0,2.146,2.146,0,0,0,0,4.274,2.145,2.145,0,0,0,4.273,0A2.151,2.151,0,0,0,13.527,11.784Z"/><path class="cls-3" d="M24.554,12.6a3.017,3.017,0,0,0-2.737-3,3.009,3.009,0,0,0-5.994,0,3.009,3.009,0,0,0,0,5.994,3.009,3.009,0,0,0,5.994,0A3.017,3.017,0,0,0,24.554,12.6Z"/><path class="cls-3" d="M34.339,12.6a2.151,2.151,0,0,0-1.951-2.137,2.145,2.145,0,0,0-4.273,0,2.145,2.145,0,0,0,0,4.273,2.145,2.145,0,0,0,4.273,0A2.149,2.149,0,0,0,34.339,12.6Z"/><path class="cls-4" d="M17.173,10.593A2.15,2.15,0,0,0,16.4,7.805a2.145,2.145,0,0,0-3.811-1.933,2.145,2.145,0,0,0-1.933,3.811,2.146,2.146,0,0,0,3.812,1.933A2.151,2.151,0,0,0,17.173,10.593Z"/><path class="cls-4" d="M28.543,13.966a2.15,2.15,0,0,0-.774-2.788,2.145,2.145,0,0,0-3.811-1.932,2.145,2.145,0,0,0-1.932,3.811,2.145,2.145,0,0,0,3.811,1.932A2.149,2.149,0,0,0,28.543,13.966Z"/><path class="cls-5" d="M36.576,15.218h0a3.313,3.313,0,0,0-6.625,0H23.312a3.312,3.312,0,0,0-6.624,0H10.052a3.313,3.313,0,0,0-6.625,0h0l0,.012,0,.016a3.3,3.3,0,0,0,.118.83L6.251,35.849a1.842,1.842,0,0,0,1.825,1.592H31.924a1.842,1.842,0,0,0,1.825-1.592l2.709-19.774a3.286,3.286,0,0,0,.118-.829l0-.016Z"/><path class="cls-6" d="M29.945,15.244l0-.026h0a3.313,3.313,0,0,0-6.625,0h0l-.6,22.223h5.417l1.809-22.178v-.019Z"/><path class="cls-6" d="M16.682,15.218a3.313,3.313,0,0,0-6.625,0h0l0,.026v.018l1.83,22.179H17.3l-.618-22.223Z"/><rect class="cls-7" width="40" height="40"/></svg>