<?xml version="1.0" encoding="UTF-8"?><svg id="Layer_1" xmlns="http://www.w3.org/2000/svg" viewBox="0 0 40 40"><rect width="40" height="40" fill="none"/><g><path d="m25.954,35.802c-3.899,0-6.954-4.326-6.954-9.85v-8.909c0-.553.447-1,1-1s1,.447,1,1v8.909c0,4.255,2.269,7.85,4.954,7.85.553,0,1,.447,1,1s-.447,1-1,1Z" fill="#23b169"/><g><path d="m1.706,6.481c3.196-1.841,7.794-1.749,11.853.594,4.058,2.343,6.438,6.28,6.441,9.968-3.196,1.841-7.795,1.749-11.853-.594C4.089,14.106,1.709,10.169,1.706,6.481Z" fill="#68c76f"/><path d="m38.294,6.481c-3.196-1.841-7.794-1.749-11.853.594-4.058,2.343-6.438,6.28-6.441,9.968,3.196,1.841,7.795,1.749,11.853-.594,4.058-2.343,6.438-6.28,6.441-9.968Z" fill="#68c76f"/></g></g></svg>