<?xml version="1.0" encoding="UTF-8"?><svg id="a" xmlns="http://www.w3.org/2000/svg" viewBox="0 0 40 40"><rect x="2" y="8" width="36" height="24" rx="4" ry="4" fill="#3090d1"/><polygon points="2.03 11.702 2.029 11.703 16.13 20 2.03 11.702" fill="#3090d1"/><path d="M35.783,8.435l-15.783,9.287L4.217,8.435c-1.225,.614-2.081,1.83-2.187,3.267l14.1,8.297L2.029,28.297c.106,1.437,.962,2.654,2.187,3.268l15.783-9.288,15.783,9.288c1.225-.614,2.081-1.831,2.187-3.268l-14.1-8.297,14.1-8.296c-.106-1.437-.962-2.654-2.187-3.268Z" fill="#e3e7ea"/><polygon points="37.971 28.297 37.971 28.296 23.87 20 37.971 28.297" fill="#e3e7ea"/></svg>