<svg id="Layer_1" data-name="Layer 1" xmlns="http://www.w3.org/2000/svg" viewBox="0 0 40 40"><defs><style>.cls-1{fill:#3d3d3d;}.cls-2{fill:#d3d3d3;}.cls-3,.cls-4{fill:none;}.cls-3{stroke:#3d3d3d;stroke-linecap:round;stroke-miterlimit:10;stroke-width:2px;}</style></defs><path class="cls-1" d="M14.084,16.083a15.357,15.357,0,0,1-7.341-1.239V7.5a15.332,15.332,0,0,0,7.341,1.238Z"/><path class="cls-2" d="M21.425,14.844a45.441,45.441,0,0,1-7.341,1.239V8.741A45.438,45.438,0,0,0,21.425,7.5Z"/><path class="cls-1" d="M28.766,13.605a45.441,45.441,0,0,0-7.341,1.239V7.5a45.331,45.331,0,0,1,7.341-1.239Z"/><path class="cls-2" d="M36.107,14.844a15.343,15.343,0,0,0-7.341-1.239V6.264a15.577,15.577,0,0,1,6.72.977,1,1,0,0,1,.621.933Z"/><path class="cls-2" d="M14.084,23.424a15.357,15.357,0,0,1-7.341-1.239V14.844a15.357,15.357,0,0,0,7.341,1.239Z"/><path class="cls-1" d="M21.425,22.185a45.441,45.441,0,0,1-7.341,1.239V16.083a45.441,45.441,0,0,0,7.341-1.239Z"/><path class="cls-2" d="M28.766,20.946a45.551,45.551,0,0,0-7.341,1.239V14.844a45.551,45.551,0,0,1,7.341-1.239Z"/><path class="cls-1" d="M36.107,22.185a15.355,15.355,0,0,0-7.341-1.239V13.605a15.343,15.343,0,0,1,7.341,1.239Z"/><path class="cls-1" d="M14.084,30.765a15.345,15.345,0,0,1-7.341-1.239V22.185a15.357,15.357,0,0,0,7.341,1.239Z"/><path class="cls-2" d="M21.425,29.526a45.331,45.331,0,0,1-7.341,1.239V23.424a45.551,45.551,0,0,0,7.341-1.239Z"/><path class="cls-1" d="M28.766,28.287a45.441,45.441,0,0,0-7.341,1.239V22.185a45.441,45.441,0,0,1,7.341-1.239Z"/><path class="cls-2" d="M34.794,29.012a15.907,15.907,0,0,0-6.028-.725V20.946a15.355,15.355,0,0,1,7.341,1.239v5.886A.994.994,0,0,1,34.794,29.012Z"/><line class="cls-3" x1="5.893" y1="5.162" x2="5.893" y2="34.838"/><circle class="cls-1" cx="5.893" cy="5.162" r="2"/><rect class="cls-4" width="40" height="40"/></svg>