<svg id="Layer_1" data-name="Layer 1" xmlns="http://www.w3.org/2000/svg" viewBox="0 0 40 40"><defs><style>.cls-1{fill:none;}.cls-2{fill:#3d3d3d;}.cls-3{fill:#ffcd00;}</style></defs><rect class="cls-1" width="40" height="40"/><path class="cls-2" d="M33.263,21.8,36.192,7.342a2.153,2.153,0,0,0-2.11-2.579H5.986A2.152,2.152,0,0,0,3.877,7.342L6.805,21.8l.6,2.94H32.667Z"/><polygon class="cls-3" points="7.401 24.735 8.821 31.743 31.248 31.743 32.667 24.735 7.401 24.735"/><path class="cls-2" d="M30.009,35.763H9.991a7.615,7.615,0,0,1-6.53-3.7h0a1.06,1.06,0,0,1,.91-1.606H35.629a1.06,1.06,0,0,1,.91,1.606h0A7.615,7.615,0,0,1,30.009,35.763Z"/></svg>