<?xml version="1.0" encoding="UTF-8"?><svg id="Layer_1" xmlns="http://www.w3.org/2000/svg" viewBox="0 0 40 40"><rect y="0" width="40" height="40" fill="none"/><rect x="3.5" y="3.5" width="33" height="33" rx="8" ry="8" fill="#2e3d51"/><path d="m16.054,13.726l3.065,2.932c.247.235.593.335.927.266l4.152-.862c.388-.084.789.062,1.034.374.245.312.29.736.117,1.093l-1.841,3.82c-.149.307-.136.668.034.965l2.103,3.683c.196.342.18.767-.04,1.094-.221.328-.609.501-1,.447l-4.202-.57c-.339-.047-.679.077-.91.331l-2.853,3.138c-.265.292-.674.409-1.053.3-.38-.108-.665-.424-.734-.812l-.756-4.173c-.061-.336-.283-.621-.595-.761l-3.866-1.743c-.36-.162-.597-.515-.61-.909-.014-.395.198-.762.546-.949l3.735-2.009c.3-.162.502-.46.54-.8l.462-4.219c.043-.392.306-.725.676-.86s.786-.048,1.071.224Z" fill="#ffcd00"/><path d="m20.687,14.093c.415-.41,3.572-5.043,3.572-5.043,0,0-4.642,3.13-5.057,3.54s-.419,1.079-.009,1.494,1.079.419,1.494.009Z" fill="#ffcd00"/><path d="m28.02,23.364c.415-.41,3.572-5.043,3.572-5.043,0,0-4.642,3.13-5.057,3.54-.415.41-.419,1.079-.009,1.494s1.079.419,1.494.009Z" fill="#ffcd00"/><path d="m26.343,12.442c.387-.383,3.334-4.708,3.334-4.708,0,0-4.333,2.922-4.721,3.305s-.391,1.007-.008,1.395,1.007.391,1.395.008Z" fill="#ff9000"/><path d="m27.678,17.781c.299-.295,2.572-3.631,2.572-3.631,0,0-3.342,2.254-3.641,2.549s-.302.777-.007,1.076.777.302,1.076.007Z" fill="#ff9000"/></svg>