<?xml version="1.0" encoding="UTF-8"?><svg id="Layer_1" xmlns="http://www.w3.org/2000/svg" viewBox="0 0 40 40"><rect width="40" height="40" style="fill:none;"/><g><path d="M30.73999,27.26001v.02002h-.31c.10004,0,.21002,0,.31-.02002Z" style="fill:#e5e8eb;"/><path d="M37.81,19.8999c0,3.97998-3.13,7.20996-7.07001,7.36011-.09998,.02002-.20996,.02002-.31,.02002H9.66998c-3.78998,0-6.85999-3.07007-6.85999-6.8501,0-3.47998,2.58002-6.34985,5.94-6.78979-.02002-.12012-.02002-.24023-.02002-.37012,0-3.1001,2.51001-5.62012,5.61005-5.62012,.37994,0,.75,.04004,1.09998,.11011,1.48999-2.65991,4.34003-4.45996,7.59998-4.45996,4.81,0,8.71002,3.8999,8.71002,8.69995,0,.20996-.01001,.41992-.02002,.62988,3.46002,.61011,6.08002,3.63013,6.08002,7.27002Z" style="fill:#e5e8eb;"/></g><g><path d="M13.87,34.14014c-.10999,.18994-.32001,.2998-.52002,.2998-.10999,0-.20996-.03003-.29999-.08008l-1.09998-.63989v1.27002c0,.33008-.27002,.59985-.60004,.59985-.32996,0-.59998-.26978-.59998-.59985v-1.27002l-1.09998,.63989c-.10004,.05005-.20001,.08008-.30005,.08008-.20996,0-.40997-.10986-.51996-.2998-.17004-.29004-.07001-.66016,.21997-.82007l1.10004-.63013-1.10004-.63989c-.28998-.17017-.39001-.54004-.21997-.82007,.15997-.29004,.52997-.39014,.82001-.21997l1.09998,.63989v-1.27979c0-.33008,.27002-.6001,.59998-.6001,.33002,0,.60004,.27002,.60004,.6001v1.27979l1.09998-.63989c.28003-.17017,.65002-.07007,.82001,.21997,.16003,.28003,.06,.6499-.21997,.82007l-1.10004,.63989,1.10004,.63013c.27997,.15991,.38,.53003,.21997,.82007Z" style="fill:#a8bfff;"/><path d="M21.87,34.14014c-.10999,.18994-.32001,.2998-.52002,.2998-.10999,0-.20996-.03003-.29999-.08008l-1.09998-.63989v1.27002c0,.33008-.27002,.59985-.60004,.59985-.32996,0-.59998-.26978-.59998-.59985v-1.27002l-1.09998,.63989c-.10004,.05005-.20001,.08008-.30005,.08008-.20996,0-.40997-.10986-.51996-.2998-.17004-.29004-.07001-.66016,.21997-.82007l1.10004-.63013-1.10004-.63989c-.28998-.17017-.39001-.54004-.21997-.82007,.15997-.29004,.52997-.39014,.82001-.21997l1.09998,.63989v-1.27979c0-.33008,.27002-.6001,.59998-.6001,.33002,0,.60004,.27002,.60004,.6001v1.27979l1.09998-.63989c.28003-.17017,.65002-.07007,.82001,.21997,.16003,.28003,.06,.6499-.21997,.82007l-1.10004,.63989,1.10004,.63013c.27997,.15991,.38,.53003,.21997,.82007Z" style="fill:#a8bfff;"/><path d="M29.87,34.14014c-.10999,.18994-.32001,.2998-.52002,.2998-.10999,0-.20996-.03003-.29999-.08008l-1.09998-.63989v1.27002c0,.33008-.27002,.59985-.60004,.59985-.32996,0-.59998-.26978-.59998-.59985v-1.27002l-1.09998,.63989c-.10004,.05005-.20001,.08008-.30005,.08008-.20996,0-.40997-.10986-.51996-.2998-.17004-.29004-.07001-.66016,.21997-.82007l1.10004-.63013-1.10004-.63989c-.28998-.17017-.39001-.54004-.21997-.82007,.15997-.29004,.52997-.39014,.82001-.21997l1.09998,.63989v-1.27979c0-.33008,.27002-.6001,.59998-.6001,.33002,0,.60004,.27002,.60004,.6001v1.27979l1.09998-.63989c.28003-.17017,.65002-.07007,.82001,.21997,.16003,.28003,.06,.6499-.21997,.82007l-1.10004,.63989,1.10004,.63013c.27997,.15991,.38,.53003,.21997,.82007Z" style="fill:#a8bfff;"/></g></svg>