<svg id="Layer_1" data-name="Layer 1" xmlns="http://www.w3.org/2000/svg" viewBox="0 0 40 40"><defs><style>.cls-1{fill:none;}.cls-2{fill:#e5e8eb;}.cls-3{fill:#ffcd00;fill-rule:evenodd;}</style></defs><rect class="cls-1" x="1" width="40" height="40"/><polygon class="cls-2" points="31.43 26.561 10.356 26.561 10.356 15.643 31.15 17.046 31.43 26.561"/><circle class="cls-2" cx="23.733" cy="11.283" r="8.707"/><circle class="cls-2" cx="31.116" cy="19.177" r="7.384"/><circle class="cls-2" cx="10.356" cy="19.705" r="6.856"/><circle class="cls-2" cx="15.026" cy="12.545" r="5.612"/><path class="cls-3" d="M25.153,29.033H22.28l.8-4.378a.706.706,0,0,0-1.24-.577l-5.758,6.974a.706.706,0,0,0,.545,1.156h2.873l-.8,4.379a.707.707,0,0,0,1.24.577L25.7,30.19A.707.707,0,0,0,25.153,29.033Z"/></svg>