<?xml version="1.0" encoding="UTF-8"?><svg id="Layer_1" xmlns="http://www.w3.org/2000/svg" viewBox="0 0 40 40"><g><path d="M20.00195,37.91016c-.51123,0-.92529-.41504-.92529-.92578V20.95117c0-.51074,.41406-.92578,.92529-.92578s.92529,.41504,.92529,.92578v16.0332c0,.51074-.41406,.92578-.92529,.92578Z" style="fill:#23b169;"/><path d="M33.02397,25.31407c-2.45531-.18218-5.85128,1.3801-8.73499,4.2638-2.8837,2.88369-4.446,6.27966-4.26394,8.73507,2.45539,.18205,5.85138-1.3802,8.73508-4.2639,2.8837-2.88369,4.44598-6.27968,4.26384-8.73497Z" style="fill:#68c76f;"/><path d="M7.02612,25.31407c2.45531-.18218,5.85128,1.3801,8.73499,4.2638,2.8837,2.88369,4.446,6.27966,4.26394,8.73507-2.45539,.18205-5.85138-1.3802-8.73508-4.2639-2.8837-2.88369-4.44598-6.27968-4.26384-8.73497Z" style="fill:#68c76f;"/><g><path d="M20.02153,2.32725c1.45381,0,3.23826,1.59949,4.52227,3.14574,2.97131,3.57814,4.33291,13.86242-4.52227,13.86242s-7.49358-10.28428-4.52227-13.86242c1.28402-1.54625,3.06846-3.14574,4.52227-3.14574Z" style="fill:#f56570;"/><path d="M29.64742,3.09358c-1.27412-.42139-3.7222,.94498-5.70227,2.39368-4.58204,3.35242-11.46046,15.06865-3.69977,17.63532,1.30557,.43179,2.10041,.47584,3.24894,.35111,6.71943-.72973,8.89822-11.14373,8.37747-15.36487-.27055-2.19305-.95024-4.59385-2.22437-5.01523Z" style="fill:#fa878f;"/><path d="M22.52437,14.71201l-.01511-.03997c-.06956-.18374-.1148-.29591-.1148-.29591l-.00178,.00341c-1.41077-3.55574-4.21581-7.13333-6.46025-8.74288-1.99709-1.432-4.46122-2.77785-5.73031-2.34591s-1.92033,2.83827-2.16496,5.0336c-.50785,4.55751,.88057,15.26564,9.52162,15.26564l-.00395,.00744,.13796,.00015c.03765,.00046,.07529,.00046,.1131,.00015l4.15617,.00232c.8875,.00046,1.69731-.61475,1.83287-1.4918,.40808-2.63873-.85621-6.29471-1.27056-7.39625Z" style="fill:#fdaeb3;"/></g></g><rect width="40" height="40" style="fill:none;"/></svg>