<?xml version="1.0" encoding="UTF-8"?><svg id="a" xmlns="http://www.w3.org/2000/svg" viewBox="0 0 40 40"><rect width="40" height="40" fill="none"/><path d="M35.957,13.312v-3.938c0-.275-.203-.521-.529-.629-1.159-.382-4.089-1.215-7.463-1.166-4.38,.064-8.925,1.967-13.236,1.967-4.167,0-7.843-1.747-7.843-1.747v4.238s3.734,1.74,7.998,1.766c4.449,.027,9.613-1.854,14.009-1.827,2.911,.018,5.952,.946,7.065,1.335Z" fill="#a2d3ed"/><path d="M35.957,13.075c-1.159-.382-4.618-1.42-7.992-1.371-4.38,.064-8.925,1.967-13.236,1.967-4.167,0-7.843-1.747-7.843-1.747v4.238s3.734,1.74,7.998,1.766c4.449,.027,9.613-1.854,14.009-1.827,2.911,.018,5.952,.946,7.065,1.335v-4.361Z" fill="#feb4c9"/><path d="M35.957,17.199c-1.159-.382-4.618-1.42-7.992-1.371-4.38,.064-8.925,1.967-13.236,1.967-4.167,0-7.843-1.747-7.843-1.747v4.238s3.734,1.74,7.998,1.766c4.449,.027,9.613-1.854,14.009-1.827,2.911,.018,5.952,.946,7.065,1.335v-4.361Z" fill="#eeeeed"/><path d="M35.957,21.323c-1.159-.382-4.618-1.42-7.992-1.371-4.38,.064-8.925,1.967-13.236,1.967-4.167,0-7.843-1.747-7.843-1.747v4.238s3.734,1.74,7.998,1.766c4.449,.027,9.613-1.854,14.009-1.827,2.911,.018,5.952,.946,7.065,1.335v-4.361Z" fill="#feb4c9"/><path d="M35.957,25.447c-1.159-.382-4.618-1.42-7.992-1.371-4.38,.064-8.925,1.967-13.236,1.967-4.167,0-7.843-1.747-7.843-1.747v4.238s3.734,1.74,7.998,1.766c4.449,.027,9.613-1.854,14.009-1.827,2.128,.013,4.326,.513,5.789,.932,.641,.184,1.276-.294,1.276-.961v-2.998Z" fill="#a2d3ed"/><line x1="6.043" y1="6.162" x2="6.043" y2="35.838" fill="none" stroke="#333d4b" stroke-linecap="round" stroke-miterlimit="10" stroke-width="2"/><circle cx="6.043" cy="6.162" r="2" fill="#333d4b"/></svg>