<svg id="Layer_1" data-name="Layer 1" xmlns="http://www.w3.org/2000/svg" viewBox="0 0 40 40"><defs><style>.cls-1{fill:none;}.cls-2{fill:#a96951;}.cls-3{fill:#6e4944;}</style></defs><rect class="cls-1" width="40" height="40"/><path class="cls-2" d="M11.715,7.778c.6-.278,1.209-.551,1.793-.868l5.637-3.066a1.827,1.827,0,0,1,1.6-.008l5.67,3.005c.587.311,1.2.577,1.8.848a16.2,16.2,0,0,1,9.83,14.974,13.825,13.825,0,0,1-13.834,13.6l-8.184.044a13.826,13.826,0,0,1-13.98-13.45A16.2,16.2,0,0,1,11.715,7.778Z"/><path class="cls-3" d="M24.483,36.266l-8.6.046A13.688,13.688,0,0,1,3.9,29.367a73.309,73.309,0,0,1,15.74-1.643A71.225,71.225,0,0,1,36.268,29.4,13.677,13.677,0,0,1,24.483,36.266Z"/></svg>