<?xml version="1.0" encoding="UTF-8"?><svg id="Layer_1" xmlns="http://www.w3.org/2000/svg" viewBox="0 0 40 40"><g><g><rect x="3.5" y="6.9" width="33" height="1.1" fill="#595959"/><rect x="3.5" y="12.675" width="33" height="1.1" fill="#595959"/><rect x="3.5" y="18.45" width="33" height="1.1" fill="#595959"/><rect x="3.5" y="24.225" width="33" height="1.1" fill="#595959"/><rect x="3.5" y="30" width="33" height="1.1" fill="#595959"/></g><rect x="3.5" y="6.9" width="3.3" height="24.2" fill="#595959"/></g><rect x="0" y="0" width="40" height="40" fill="none"/><g><path d="m19.058,39.13c-1.198,0-2.379-.462-3.232-1.282-.669-.643-1.441-1.796-1.321-3.64.036-.55.488-.961,1.063-.933.551.036.969.512.933,1.063-.057.863.183,1.56.711,2.067.54.518,1.345.786,2.12.71.624-.066,1.186-.371,1.58-.858.396-.488.577-1.101.512-1.725,0-.008-.114-1.559-.286-3.91-1.847-.01-3.659-.654-5.09-1.834-1.453-1.199-2.406-3.083-2.549-5.04-.118-1.599.234-4.05,2.578-6.645,1.02-1.129,1.902-2.122,2.811-3.144.313-.353.629-.707.954-1.072-.181-2.464-.319-4.331-.369-4.985-.139-1.814.368-3.418,1.39-4.4.749-.719,1.71-1.052,2.717-.935,1.25.145,2.358,1.037,2.821,2.273.374.997.65,3.056-1.695,5.632-1.078,1.186-1.982,2.19-2.807,3.114.097,1.319.203,2.777.313,4.289.099-.005.201-.006.299-.007,2.209,0,4.234,1.288,5.3,3.378,1.07,2.099.896,4.524-.452,6.33-1.049,1.405-2.528,2.38-4.232,2.806.174,2.393.289,3.973.289,3.973.119,1.123-.217,2.257-.948,3.16-.731.902-1.771,1.467-2.926,1.588-.16.018-.321.025-.482.025Zm.987-23.461c-.796.895-1.588,1.783-2.484,2.775-1.48,1.64-2.195,3.423-2.068,5.159.104,1.423.788,2.784,1.828,3.643,1.034.853,2.335,1.334,3.671,1.374-.046-.629-.095-1.29-.145-1.975-.889-.123-1.743-.5-2.378-1.086-1.135-1.048-1.497-3.012-.861-4.671.474-1.235,1.392-2.134,2.628-2.615-.065-.891-.13-1.766-.19-2.604Zm2.795,10.804c.047.648.093,1.276.137,1.875,1.115-.353,2.079-1.029,2.778-1.967.903-1.209,1.005-2.788.272-4.225-.729-1.43-2.091-2.309-3.567-2.286-.034,0-.068,0-.103.002.108,1.49.219,2.997.325,4.448.229-.183.393-.43.487-.739.163-.526.721-.824,1.25-.662.527.162.824.722.662,1.25-.339,1.103-1.149,1.931-2.242,2.304Zm-2.446-6.033c-.42.287-.732.679-.918,1.165-.384,1-.123,2.049.35,2.485.233.215.539.379.87.481-.099-1.348-.2-2.744-.302-4.132Zm2.792-15.895c-.347,0-.661.135-.938.399-.581.56-.874,1.608-.782,2.807.036.471.117,1.57.228,3.068.474-.526.98-1.086,1.532-1.691,1.19-1.309,1.665-2.614,1.301-3.584-.202-.541-.665-.93-1.179-.989-.055-.006-.108-.01-.162-.01Z" fill="#3d3d3d"/><g><circle cx="16.601" cy="34.216" r="1.1" fill="#3d3d3d"/><path d="m16.597,36.316c-.519,0-1.013-.189-1.401-.539-.416-.375-.662-.891-.692-1.451-.06-1.158.833-2.147,1.988-2.207.565-.03,1.097.161,1.514.536s.663.89.693,1.45h0c.06,1.158-.833,2.148-1.988,2.208-.038.002-.076.003-.113.003Zm.003-2.2s-.003,0-.004,0c-.056.003-.098.05-.095.104.002.046.029.137.104.094.056-.003.098-.05.095-.105-.003-.045-.055-.094-.101-.094Z" fill="#3d3d3d"/></g></g></svg>