<svg id="Layer_1" data-name="Layer 1" xmlns="http://www.w3.org/2000/svg" viewBox="0 0 40 40"><defs><style>.cls-1,.cls-2{fill:none;}.cls-2{stroke:#23b169;stroke-linecap:round;stroke-miterlimit:10;stroke-width:2px;}.cls-3{fill:#68c76f;}</style></defs><rect class="cls-1" width="40" height="40" transform="translate(40 40) rotate(-180)"/><path class="cls-2" d="M32.108,7.45,12.932,26.626c-3.23,3.229-4.086,7.609-1.913,9.782"/><path class="cls-3" d="M27.471,34.593a9.409,9.409,0,0,0-5.016-7.762,9.408,9.408,0,0,0-9.231-.463A9.409,9.409,0,0,0,18.24,34.13,9.408,9.408,0,0,0,27.471,34.593Z"/><path class="cls-3" d="M5,12.121a9.409,9.409,0,0,1,7.762,5.016,9.408,9.408,0,0,1,.463,9.231,9.409,9.409,0,0,1-7.762-5.016A9.408,9.408,0,0,1,5,12.121Z"/><path class="cls-3" d="M31.522,24.188a7.528,7.528,0,0,0-5.484-4.959,7.525,7.525,0,0,0-7.228,1.553,7.528,7.528,0,0,0,5.483,4.96A7.526,7.526,0,0,0,31.522,24.188Z"/><path class="cls-3" d="M15.4,8.07a7.526,7.526,0,0,1,4.96,5.484,7.525,7.525,0,0,1-1.553,7.228A7.526,7.526,0,0,1,13.85,15.3,7.527,7.527,0,0,1,15.4,8.07Z"/><path class="cls-3" d="M34.863,15.257a6.02,6.02,0,0,0-5.264-2.7,6.023,6.023,0,0,0-5.264,2.7,6.023,6.023,0,0,0,5.264,2.7A6.02,6.02,0,0,0,34.863,15.257Z"/><path class="cls-3" d="M24.335,4.729a6.02,6.02,0,0,1,2.7,5.264,6.023,6.023,0,0,1-2.7,5.264,6.023,6.023,0,0,1-2.7-5.264A6.02,6.02,0,0,1,24.335,4.729Z"/><path class="cls-3" d="M35.847,3.745A6.017,6.017,0,0,0,30.218,5.56,6.019,6.019,0,0,0,28.4,11.189a6.019,6.019,0,0,0,5.629-1.815A6.017,6.017,0,0,0,35.847,3.745Z"/></svg>