<svg id="Layer_1" data-name="Layer 1" xmlns="http://www.w3.org/2000/svg" viewBox="0 0 40 40"><defs><style>.cls-1{fill:#dfe3e8;}.cls-2{fill:#fa5f3c;}.cls-3{fill:#faa594;}.cls-4{fill:none;}</style></defs><path class="cls-1" d="M3.564,21.565v5.149A7.318,7.318,0,0,0,7.682,33.3l2.1,1.018A10.433,10.433,0,0,0,20.135,33.6l13.973-9.336a8.436,8.436,0,0,0,3.75-7.015V11.908Z"/><path class="cls-2" d="M3.289,22.628l8.61,4.027a5.333,5.333,0,0,0,5.08-.3A98.636,98.636,0,0,1,37.027,13.857c2.361-1.471,1.976-3.671-.384-5.419L29.4,4.374a8.738,8.738,0,0,0-6.126-.454A42.43,42.43,0,0,0,2.346,18.141q-.067.077-.129.153A2.853,2.853,0,0,0,3.289,22.628Z"/><path class="cls-3" d="M21.624,21.388a8.942,8.942,0,0,0-2.25-5.28L12.642,8.834c-.668.431-1.345.893-2.025,1.389l6.191,6.467a8.447,8.447,0,0,1,2.375,5.468c0,.11.006.221.006.331v2.129q.521-.4,1.046-.783c.365-.285.666-.506,1.389-1.026Z"/><path class="cls-3" d="M28.708,10.629,22.7,4.1c-.756.236-1.6.524-2.506.878l5.945,6.237a8.437,8.437,0,0,1,2.375,5.468c0,.11.007.221.007.331v1.347q1.207-.712,2.435-1.392V15.909A8.937,8.937,0,0,0,28.708,10.629Z"/><path class="cls-3" d="M3.422,16.853a21.171,21.171,0,0,1,4.1,7.755l3.078,1.44A31.684,31.684,0,0,0,4.927,15.2Q4.168,15.99,3.422,16.853Z"/><rect class="cls-4" width="40" height="40"/></svg>