<?xml version="1.0" encoding="UTF-8"?><svg id="Layer_1" xmlns="http://www.w3.org/2000/svg" viewBox="0 0 40 40"><rect width="40" height="40" fill="none"/><g><path d="m6.163,37.144l23.313-8.379L10.248,9.603,1.908,32.894c-.947,2.646,1.611,5.2,4.255,4.25Z" fill="#ef4452"/><circle cx="10.356" cy="2.794" r="1.868" fill="#edccf8"/><ellipse cx="20.551" cy="18.478" rx="5.13" ry="13.829" transform="translate(-7.047 19.944) rotate(-45)" fill="#a41926"/><path d="m17.063,13.807c-.113,0-.229-.016-.344-.048-.664-.189-1.048-.881-.859-1.545.596-2.087.564-4.291-.093-6.374-.208-.659.158-1.36.816-1.568.658-.208,1.36.157,1.568.816.805,2.551.844,5.253.113,7.812-.157.549-.657.907-1.202.907Z" fill="#b44bd7"/><path d="m29.369,17.457c-.387,0-.769-.179-1.013-.517-.405-.559-.28-1.34.279-1.746,2.644-1.916,5.775-3.005,9.055-3.148.695-.007,1.273.505,1.304,1.194.03.69-.505,1.273-1.194,1.304-2.79.122-5.451,1.047-7.698,2.675-.222.161-.478.238-.732.238Z" fill="#ef4452"/><path d="m34.38,23.766c-.159,0-.321-.031-.478-.096-.84-.348-1.716-.616-2.604-.797-2.773-.566-5.628-.291-8.256.797-.641.263-1.37-.039-1.633-.676-.264-.638.039-1.369.676-1.633,3.091-1.28,6.451-1.604,9.713-.937,1.044.213,2.074.528,3.061.937.638.264.941.995.677,1.633-.199.481-.665.772-1.155.772Z" fill="#7896ff"/><path d="m21.357,17.57c-.375,0-.747-.168-.993-.489-.42-.547-.317-1.332.231-1.752,3.007-2.307,4.935-5.647,5.43-9.405.09-.684.719-1.167,1.402-1.076.685.09,1.167.718,1.076,1.402-.582,4.42-2.85,8.348-6.387,11.062-.227.174-.494.258-.76.258Z" fill="#4a81ec"/><rect x="12.44" y="17.152" width="3.291" height="3.291" rx=".707" ry=".707" transform="translate(32.886 4.717) rotate(90.014)" fill="#fff"/><rect x="21.833" y=".807" width="3.366" height="3.366" rx=".723" ry=".723" transform="translate(1.398 10.857) rotate(-26.766)" fill="#7896ff"/><rect x="34.339" y="26.296" width="3.366" height="3.366" rx=".723" ry=".723" transform="translate(73.598 2.124) rotate(107.634)" fill="#a8bfff"/><circle cx="33.534" cy="9.01" r="1.504" fill="#ffc84d"/><circle cx="3.504" cy="15.531" r="1.504" fill="#a8bfff"/><circle cx="24.564" cy="34.893" r="1.755" fill="#ffc84d"/></g></svg>