<svg id="Layer_1" data-name="Layer 1" xmlns="http://www.w3.org/2000/svg" viewBox="0 0 40 40"><defs><style>.cls-1{fill:none;}.cls-2{fill:#ff9000;}.cls-3{fill:#6b7683;}.cls-4{fill:#8a94a0;}</style></defs><rect class="cls-1" width="40" height="40"/><path class="cls-2" d="M12.264,17.039c1.844,0,1.844,1.922,3.687,1.922s1.845-1.922,3.69-1.922,1.847,1.922,3.693,1.922a1.97,1.97,0,0,0,1.174-.361L17.8,5.851a2.078,2.078,0,0,0-3.677,0L7.408,18.6a1.966,1.966,0,0,0,1.17.359C10.421,18.961,10.421,17.039,12.264,17.039Z"/><path class="cls-3" d="M31.675,32.214,24.508,18.6a1.97,1.97,0,0,1-1.174.361c-1.846,0-1.846-1.922-3.693-1.922s-1.845,1.922-3.69,1.922-1.843-1.922-3.687-1.922-1.843,1.922-3.686,1.922a1.966,1.966,0,0,1-1.17-.359L.242,32.214A2.077,2.077,0,0,0,2.08,35.259H29.837A2.077,2.077,0,0,0,31.675,32.214Z"/><path class="cls-4" d="M31.3,16.146l8.459,16.068a2.077,2.077,0,0,1-1.838,3.045H17.561L27.623,16.146A2.077,2.077,0,0,1,31.3,16.146Z"/></svg>