<svg id="Layer_1" data-name="Layer 1" xmlns="http://www.w3.org/2000/svg" viewBox="0 0 40 40"><defs><style>.cls-1{fill:#5e403b;}.cls-2{fill:#ffb72d;}.cls-3,.cls-5{fill:none;}.cls-3{stroke:#ffcf2e;stroke-linecap:round;stroke-linejoin:round;stroke-width:1.254px;}.cls-4{fill:#93efff;}</style></defs><path class="cls-1" d="M20,2.5A17.483,17.483,0,1,0,37.483,19.983,17.483,17.483,0,0,0,20,2.5Zm0,24.3a6.82,6.82,0,1,1,6.82-6.82A6.82,6.82,0,0,1,20,26.8Z"/><path class="cls-2" d="M19.991,37.5a17.439,17.439,0,0,0,13.7-6.638l-.837-.837a2.875,2.875,0,0,0-4.068,0l-1.119,1.119a2.877,2.877,0,0,1-4.068,0l-1.12-1.119a2.875,2.875,0,0,0-4.068,0l-1.119,1.119a2.877,2.877,0,0,1-4.068,0L12.1,30.025a2.875,2.875,0,0,0-4.068,0l-1.321,1.32A17.416,17.416,0,0,0,19.991,37.5Z"/><line class="cls-3" x1="15.604" y1="7.087" x2="16.858" y2="9.09"/><line class="cls-3" x1="29.827" y1="15.373" x2="31.081" y2="17.376"/><line class="cls-3" x1="6.955" y1="19.105" x2="8.209" y2="21.108"/><circle class="cls-4" cx="25.28" cy="9.887" r="0.923"/><circle class="cls-4" cx="32.887" cy="23.33" r="0.923"/><circle class="cls-4" cx="11.073" cy="13.479" r="0.923"/><rect class="cls-5" width="40" height="40"/></svg>