<?xml version="1.0" encoding="UTF-8"?><svg id="Layer_1" xmlns="http://www.w3.org/2000/svg" viewBox="0 0 40 40"><g><path d="m6.885,29.447s3.734,1.957,7.998,1.987c4.449.031,9.613-2.086,14.009-2.056,2.911.02,5.24.772,6.353,1.209.335.132.712-.088.712-.408V9.45c0-.309-.203-.586-.529-.707-1.159-.43-4.089-1.367-7.463-1.311-4.38.073-8.925,2.213-13.236,2.213-4.167,0-7.843-1.965-7.843-1.965v21.768Z" fill="#4b596a"/><path d="m6.044,36.838c-.553,0-1-.447-1-1V6.162c0-.553.447-1,1-1s1,.447,1,1v29.676c0,.553-.447,1-1,1Z" fill="#333d4b"/><circle cx="6.043" cy="6.162" r="2" fill="#333d4b"/><g><path d="m21.093,24.732c-3.725,0-6.744-.306-6.744-5.232,0-3.725,3.02-6.744,6.744-6.744,3.725,0,6.744,3.02,6.744,6.744,0,4.926-3.02,5.232-6.744,5.232" fill="#cacbcb"/><path d="m24.44,21.641v3.148c0,.769-.623,1.392-1.392,1.392h-3.909c-.769,0-1.392-.623-1.392-1.392v-3.148h6.694Z" fill="#cacbcb"/><rect x="21.743" y="17.685" width="2.728" height="3.195" rx="1.364" ry="1.364"/><rect x="17.716" y="17.685" width="2.728" height="3.195" rx="1.364" ry="1.364"/><path d="m19.937,26.181v-1.37c0-.213-.172-.385-.385-.385s-.385.172-.385.385v1.37h.771Z"/><path d="m21.479,26.181v-1.37c0-.213-.172-.385-.385-.385s-.385.172-.385.385v1.37h.771Z"/><path d="m23.02,26.181v-1.37c0-.213-.172-.385-.385-.385s-.385.172-.385.385v1.37h.771Z"/><path d="m20.407,21.584l.335-.476c.176-.251.55-.247.721.007l.321.476c.196.291-.012.683-.363.683h-.656c-.355,0-.562-.4-.358-.69Z"/></g></g><rect width="40" height="40" fill="none"/></svg>