<?xml version="1.0" encoding="UTF-8"?><svg id="Layer_1" xmlns="http://www.w3.org/2000/svg" viewBox="0 0 40 40"><rect y="0" width="40" height="40" style="fill:none;"/><g><g><path d="M20.50495,17.17987l1.53197-1.53197c.24997-.24997,.24996-.65524,0-.9052l-1.53195-1.5319c-.16171-.1617-.22486-.39739-.16567-.61828l.56073-2.09257c.0915-.34145-.11113-.69243-.45259-.78393l-2.09259-.56074c-.22088-.05919-.3934-.23171-.45259-.45259l-.56074-2.09267c-.0915-.34146-.44247-.54409-.78393-.45259l-2.09265,.56074c-.22088,.05919-.45657-.00396-.61827-.16566l-1.5319-1.5319c-.24997-.24997-.65524-.24996-.9052,0l-1.53183,1.53188c-.1617,.1617-.39738,.22486-.61827,.16567l-2.09265-.56074c-.34146-.0915-.69243,.11114-.78393,.45259l-.56074,2.09266c-.05919,.22088-.23171,.39341-.45259,.45259l-2.09266,.56074c-.34146,.0915-.54409,.44247-.45259,.78393l.56074,2.09265c.05919,.22089-.00396,.45657-.16567,.61827l-1.53188,1.53183c-.24997,.24996-.24997,.65524,0,.9052l1.5319,1.5319c.1617,.1617,.22485,.39738,.16566,.61827l-.56074,2.09265c-.0915,.34146,.11114,.69243,.45259,.78393l2.09267,.56074c.22088,.05919,.3934,.23171,.45259,.45259l.56074,2.09259c.0915,.34145,.44247,.54409,.78393,.45259l2.09257-.56073c.22089-.05919,.45658,.00396,.61828,.16567l1.5319,1.53195c.24996,.24997,.65524,.24997,.9052,0l1.53197-1.53197c.1617-.1617,.39738-.22485,.61827-.16566l2.09258,.56073c.34145,.0915,.69243-.11113,.78393-.45259l.56074-2.0926c.05919-.22088,.23171-.3934,.45259-.45259l2.0926-.56074c.34145-.0915,.54409-.44247,.45259-.78393l-.56073-2.09258c-.05919-.22089,.00396-.45657,.16566-.61827Z" style="fill:#ffcd00;"/><circle cx="11.8622" cy="15.24253" r="6.04006" style="fill:#fa0;"/></g><g><polygon points="31.09626 35.16686 9.02767 35.16686 9.02767 23.73434 30.80307 25.203 31.09626 35.16686" style="fill:#e5e8eb;"/><circle cx="23.03623" cy="19.16863" r="9.11814" style="fill:#e5e8eb;"/><circle cx="30.76812" cy="27.43498" r="7.73188" style="fill:#e5e8eb;"/><circle cx="9.02767" cy="27.98777" r="7.17909" style="fill:#e5e8eb;"/><circle cx="13.9181" cy="20.49016" r="5.8764" style="fill:#e5e8eb;"/></g></g></svg>