<svg id="Layer_1" data-name="Layer 1" xmlns="http://www.w3.org/2000/svg" viewBox="0 0 40 40"><defs><style>.cls-1,.cls-4{fill:none;}.cls-2{fill:#3d3d3d;}.cls-3{fill:#fff;}.cls-4{stroke:#3d3d3d;stroke-miterlimit:10;}</style></defs><rect class="cls-1" width="40" height="40"/><rect class="cls-2" x="3.5" y="3.5" width="33" height="33" rx="6"/><rect class="cls-2" x="3.5" y="3.5" width="33" height="33" rx="6"/><rect class="cls-3" x="7.5" y="7.5" width="25" height="29" rx="4" transform="translate(42 2) rotate(90)"/><line class="cls-4" x1="12.75" y1="9.183" x2="12.75" y2="34.683"/><line class="cls-4" x1="20" y1="9.183" x2="20" y2="34.683"/><line class="cls-4" x1="27.25" y1="9.183" x2="27.25" y2="34.683"/><path class="cls-2" d="M10.376,9h4.748a0,0,0,0,1,0,0V20.724a.93.93,0,0,1-.93.93H11.306a.93.93,0,0,1-.93-.93V9A0,0,0,0,1,10.376,9Z"/><path class="cls-2" d="M17.626,9h4.748a0,0,0,0,1,0,0V20.724a.93.93,0,0,1-.93.93H18.556a.93.93,0,0,1-.93-.93V9A0,0,0,0,1,17.626,9Z"/><path class="cls-2" d="M24.876,9h4.748a0,0,0,0,1,0,0V20.724a.93.93,0,0,1-.93.93H25.806a.93.93,0,0,1-.93-.93V9A0,0,0,0,1,24.876,9Z"/></svg>