<svg id="Layer_1" data-name="Layer 1" xmlns="http://www.w3.org/2000/svg" viewBox="0 0 40 40"><defs><style>.cls-1{fill:#6b7683;}.cls-2,.cls-4{fill:#afb7c0;}.cls-3{fill:#8a94a0;}.cls-4,.cls-7{fill-rule:evenodd;}.cls-5{fill:none;}.cls-6{fill:#d0d5da;}.cls-7{fill:#ffcd00;}</style></defs><path class="cls-1" d="M9.9,17.794c0-1.117,4.525-2.021,10.105-2.021s10.106.9,10.106,2.021V31.852c0,1.116-4.525,2.021-10.106,2.021s-10.1-.9-10.1-2.021"/><path class="cls-2" d="M17.979,17.794a2.021,2.021,0,1,1,4.042,0V31.852a2.021,2.021,0,1,1-4.042,0"/><path class="cls-2" d="M30.106,33.873a2.021,2.021,0,0,1-2.022-2.021V17.794a2.022,2.022,0,0,1,4.043,0V31.852A2.021,2.021,0,0,1,30.106,33.873Z"/><path class="cls-2" d="M9.9,33.873a2.021,2.021,0,0,1-2.021-2.021V17.794a2.021,2.021,0,0,1,4.042,0V31.852A2.021,2.021,0,0,1,9.9,33.873Z"/><rect class="cls-3" x="17.979" y="14.517" width="4.043" height="5.96"/><rect class="cls-3" x="28.084" y="14.517" width="4.043" height="5.96"/><rect class="cls-3" x="7.874" y="14.517" width="4.043" height="5.96"/><path class="cls-4" d="M33.813,13.5,21.225,3.744a2,2,0,0,0-2.45,0L6.187,13.5V15.41H33.813Z"/><rect class="cls-5" width="40" height="40"/><rect class="cls-6" x="4" y="31.622" width="32" height="5.053" rx="1.011"/><path class="cls-7" d="M20,12a2.4,2.4,0,1,1,2.4-2.4A2.4,2.4,0,0,1,20,12Z"/><rect class="cls-6" x="4" y="13.593" width="32" height="5.053" rx="1.011"/></svg>