<svg id="Layer_1" data-name="Layer 1" xmlns="http://www.w3.org/2000/svg" viewBox="0 0 40 40"><defs><style>.cls-1{fill:#ffb72d;}.cls-2{fill:#956759;}.cls-3{fill:none;}</style></defs><path class="cls-1" d="M5.324,24.956c4.284-2.144,7.455-5.9,9.756-10.907.016-.036.032-.074.046-.112Q18.228,5.453,25.985,2.5a1.58,1.58,0,0,1,1.671.377l8.316,8.315a1.591,1.591,0,0,1-.407,2.556,18.988,18.988,0,0,0-9.709,10.908c-.017.043-.036.087-.056.129A24.032,24.032,0,0,1,15.021,36.058a1.582,1.582,0,0,1-1.831-.308L4.938,27.5A1.589,1.589,0,0,1,5.324,24.956Z"/><path class="cls-2" d="M5.461,30.742H7.72a0,0,0,0,1,0,0V37.26A1.129,1.129,0,0,1,6.591,38.39h0A1.129,1.129,0,0,1,5.461,37.26V30.742A0,0,0,0,1,5.461,30.742Z" transform="translate(26.372 5.464) rotate(45)"/><rect class="cls-3" width="40" height="40"/></svg>