<svg id="Layer_1" data-name="Layer 1" xmlns="http://www.w3.org/2000/svg" viewBox="0 0 40 40"><defs><style>.cls-1,.cls-3,.cls-5{fill:none;}.cls-1{stroke:#abb7c7;stroke-width:0.84px;}.cls-1,.cls-3{stroke-linecap:round;stroke-miterlimit:10;}.cls-2{fill:#ff3d29;}.cls-3{stroke:#4e5968;stroke-width:1.681px;}.cls-4{fill:#4e5968;fill-rule:evenodd;}</style></defs><line class="cls-1" x1="29.887" y1="5" x2="18.968" y2="35"/><ellipse class="cls-2" cx="20.012" cy="32.132" rx="1.004" ry="1.926" transform="translate(-17.026 39.947) rotate(-70)"/><line class="cls-3" x1="28.234" y1="9.544" x2="29.887" y2="5"/><path class="cls-4" d="M35.4,28.46l-.607-.174a8.958,8.958,0,0,1-3.431-1.873L13.623,10.871a6.1,6.1,0,0,1-1.687-2.43h0A1.768,1.768,0,0,0,9.685,7.366a1.725,1.725,0,0,0-1,2.221l.446,1.177a6.1,6.1,0,0,0,1.687,2.43L28.563,28.736a8.958,8.958,0,0,0,3.431,1.873l.945.272a3.129,3.129,0,0,0,2.816-.563A1.063,1.063,0,0,0,35.4,28.46Z"/><path class="cls-4" d="M30.662,32.253l-.608-.175a8.952,8.952,0,0,1-3.431-1.873L8.882,14.663A6.106,6.106,0,0,1,7.2,12.233h0a1.768,1.768,0,0,0-2.25-1.075,1.726,1.726,0,0,0-1,2.222l.446,1.176a6.11,6.11,0,0,0,1.687,2.431L23.822,32.529A8.963,8.963,0,0,0,27.253,34.4l.946.272a3.126,3.126,0,0,0,2.815-.562A1.062,1.062,0,0,0,30.662,32.253Z"/><line class="cls-1" x1="21.354" y1="5" x2="10.435" y2="35"/><ellipse class="cls-2" cx="11.479" cy="32.132" rx="1.004" ry="1.926" transform="translate(-22.641 31.929) rotate(-70)"/><line class="cls-3" x1="19.701" y1="9.544" x2="21.354" y2="5"/><rect class="cls-5" width="40" height="40"/></svg>