<svg id="Layer_1" data-name="Layer 1" xmlns="http://www.w3.org/2000/svg" viewBox="0 0 40 40"><defs><style>.cls-1{fill:none;}.cls-2{fill:#86584a;}.cls-3{fill:#0a9f60;}.cls-4{fill:#23b169;}.cls-5{fill:#68c76f;}.cls-6{fill:#fff;}.cls-7{fill:#ffe63b;}.cls-8{fill:#ef4452;}.cls-9{fill:#ffb72d;}.cls-10{fill:#ffcd00;}</style></defs><rect class="cls-1" width="40" height="40"/><rect class="cls-2" x="17.981" y="8.866" width="4.038" height="30.134" rx="1.009"/><path class="cls-3" d="M18.488,13.389,5.384,29.731A1.938,1.938,0,0,0,6.9,32.881H33.1a1.938,1.938,0,0,0,1.512-3.15l-13.1-16.342A1.939,1.939,0,0,0,18.488,13.389Z"/><path class="cls-4" d="M18.826,8.041,7.953,21.6a1.506,1.506,0,0,0,1.175,2.447H30.872A1.506,1.506,0,0,0,32.047,21.6L21.174,8.041A1.505,1.505,0,0,0,18.826,8.041Z"/><path class="cls-5" d="M19.127,4.087,10.613,14.7a1.119,1.119,0,0,0,.873,1.819H28.514a1.119,1.119,0,0,0,.873-1.819L20.873,4.087A1.119,1.119,0,0,0,19.127,4.087Z"/><circle class="cls-6" cx="16.321" cy="16.777" r="1.697"/><circle class="cls-7" cx="22.558" cy="21.033" r="1.822"/><circle class="cls-8" cx="23.567" cy="13.957" r="1.291"/><circle class="cls-9" cx="14.482" cy="27.071" r="1.291"/><circle class="cls-6" cx="26.566" cy="28.616" r="1.519"/><path class="cls-10" d="M20.454,1.282l.916,1.856a.505.505,0,0,0,.381.277l2.049.3a.506.506,0,0,1,.28.863L22.6,6.021a.508.508,0,0,0-.146.448l.35,2.04a.506.506,0,0,1-.734.534L20.236,8.08a.505.505,0,0,0-.472,0l-1.832.963a.506.506,0,0,1-.734-.534l.35-2.04a.508.508,0,0,0-.146-.448L15.92,4.576a.506.506,0,0,1,.28-.863l2.049-.3a.505.505,0,0,0,.381-.277l.916-1.856A.506.506,0,0,1,20.454,1.282Z"/></svg>