<?xml version="1.0" encoding="UTF-8"?><svg id="Layer_1" xmlns="http://www.w3.org/2000/svg" viewBox="0 0 40 40"><g><path d="m7.61,6.16c0,.74-.41,1.38-1,1.72v4.41c-.01.07-.01.12,0,.19v13.92c-.01.07-.01.13,0,.2v9.24c0,.55-.45,1-1,1-.56,0-1-.45-1-1V7.88c-.6-.34-1-.98-1-1.72,0-1.1.89-2,2-2,1.1,0,2,.9,2,2Z" fill="#3d3d3d"/><path d="m11.286,7.379c.193.213,4.538,5.112-.006,10.021.399.148.809.252,1.233.252h18.604c.596,0,1.079-.483,1.079-1.079v-8.364c0-.596-.483-1.079-1.079-1.079H12.513c-.422,0-.829.103-1.227.25Z" fill="#93c9ff"/><g><g><path d="m11.28,17.4s-.004.005-.006.007c.818.321,2.938,1.029,5.635.982.377-.007.622-.39.489-.737h-4.886c-.424,0-.833-.104-1.233-.252Z" fill="#64a7ff"/><path d="m12.513,7.13h4.885c.134-.347-.111-.732-.489-.739-2.692-.047-4.809.658-5.631.98.001.001.006.006.007.008.398-.146.805-.25,1.227-.25Z" fill="#64a7ff"/><path d="m36.063,14.502c.571-1.729.293-3.283-.01-4.231-.154-.481-.76-.636-1.138-.301l-2.718,2.416,2.722,2.425c.381.339.985.174,1.145-.31Z" fill="#64a7ff"/></g><path d="m6.605,12.485c.012.118.027.24.08.331.362.622,1.12,1.803,2.12,2.844.033.034.063.07.097.104.137.139.28.268.425.399.086.078.171.157.26.231.122.101.247.192.374.284.121.088.242.176.366.255.113.072.229.133.345.196.146.078.293.152.444.214.011.004.021.011.032.015.041.016.079.042.12.058.002-.003.004-.005.006-.008.002-.002.004-.005.006-.007,4.544-4.91.199-9.808.006-10.021-.002-.002-.006-.007-.007-.008-.002-.002-.011-.012-.011-.012-.072.027-.14.071-.211.102-.1.043-.198.092-.296.143-.167.086-.331.175-.492.279-.065.042-.127.088-.191.133-.188.132-.372.267-.549.417-.014.012-.028.025-.042.037-1.339,1.15-2.362,2.733-2.802,3.489-.053.091-.068.213-.08.331-.007.07-.007.126,0,.196Zm2.829-.188c-.383,0-.694-.311-.694-.694s.311-.694.694-.694.694.311.694.694-.311.694-.694.694Z" fill="#64a7ff"/></g><path d="m31.117,21.24H12.513c-.422,0-.829.103-1.227.25.194.213,4.538,5.112-.006,10.021.399.148.809.252,1.233.252h18.604c.596,0,1.079-.483,1.079-1.079v-8.364c0-.596-.483-1.079-1.079-1.079Z" fill="#fdaeb3"/><g><path d="m11.28,31.511s-.004.005-.006.007c.818.321,2.938,1.029,5.635.982.377-.007.622-.39.489-.737h-4.886c-.424,0-.833-.104-1.233-.252Z" fill="#fa878f"/><path d="m12.513,21.24h4.885c.134-.347-.111-.732-.489-.739-2.692-.047-4.809.658-5.631.98.001.001.006.006.007.008.398-.146.805-.25,1.227-.25Z" fill="#fa878f"/><path d="m34.915,24.081l-2.718,2.416,2.722,2.425c.381.339.985.174,1.145-.31.571-1.729.293-3.283-.01-4.231-.154-.481-.76-.636-1.138-.301Z" fill="#fa878f"/><path d="m11.286,21.489s-.006-.007-.007-.008l-.011-.012c-.072.027-.14.071-.211.102-.1.043-.197.092-.295.142-.167.086-.332.175-.493.28-.064.042-.127.088-.19.132-.188.132-.372.267-.549.417-.014.012-.028.025-.042.037-1.339,1.15-2.362,2.733-2.802,3.489-.053.091-.068.213-.08.331-.007.07-.007.126,0,.196.012.118.027.24.08.331.361.621,1.12,1.802,2.119,2.843.033.035.065.071.099.105.137.138.28.268.425.398.086.078.17.157.259.231.122.101.248.192.375.285.121.088.241.176.366.255.113.072.229.133.345.196.146.078.293.152.444.214.01.004.02.011.031.015.041.017.079.043.121.058.002-.003.004-.005.006-.008.002-.002.004-.005.006-.007,4.544-4.91.2-9.808.006-10.021Zm-1.852,4.918c-.383,0-.694-.311-.694-.694s.311-.694.694-.694.694.311.694.694-.311.694-.694.694Z" fill="#fa878f"/></g><g><path d="m9.434,10.909c-.383,0-.694.311-.694.694s.311.694.694.694.694-.311.694-.694-.311-.694-.694-.694Z"/><path d="m9.434,25.019c-.383,0-.694.311-.694.694s.311.694.694.694.694-.311.694-.694-.311-.694-.694-.694Z"/></g></g><rect width="40" height="40" fill="none"/></svg>