<svg id="Layer_1" data-name="Layer 1" xmlns="http://www.w3.org/2000/svg" xmlns:xlink="http://www.w3.org/1999/xlink" viewBox="0 0 40 40"><defs><style>.cls-1,.cls-6{fill:none;}.cls-2{fill:#901a18;}.cls-3{fill:#f77f00;}.cls-4{fill:#cb2c29;}.cls-5{fill:#3d3d3d;}.cls-6{stroke:#ffad00;stroke-linecap:round;stroke-linejoin:round;}.cls-7{clip-path:url(#clip-path);}.cls-8{fill:#fff;}.cls-9{fill:#ffcd00;}</style><clipPath id="clip-path"><ellipse class="cls-1" cx="20" cy="18.186" rx="16.285" ry="9.433"/></clipPath></defs><rect class="cls-1" width="40" height="40"/><rect class="cls-1" width="40" height="40"/><ellipse class="cls-2" cx="20" cy="18.186" rx="16.285" ry="9.433"/><ellipse class="cls-3" cx="20" cy="22.119" rx="13.75" ry="7.964"/><path class="cls-4" d="M20,27.619c-8.818,0-15.981-4.063-16.259-9.131l-.026-.068v4.173a16.285,16.285,0,1,0,32.57,0s.017-4.215,0-4.173C36.007,23.488,28.818,27.619,20,27.619Z"/><path class="cls-2" d="M14.345,16.9A.363.363,0,0,1,14,16.408a1.281,1.281,0,0,1,2.369,0,.363.363,0,0,1-.346.487Z"/><path class="cls-2" d="M8.8,21.484A.363.363,0,0,1,8.456,21a1.281,1.281,0,0,1,2.37,0,.363.363,0,0,1-.347.487Z"/><path class="cls-2" d="M27.123,18.32a.363.363,0,0,1-.347-.487,1.281,1.281,0,0,1,2.37,0,.363.363,0,0,1-.347.487Z"/><path class="cls-5" d="M36.9,4.549l-.189-.755h0a.614.614,0,0,0-.757-.443l-22.816,6.2a.54.54,0,0,0,.1,1.06A.522.522,0,0,0,13.4,10.6L36.439,5.3a.611.611,0,0,0,.386-.279A.6.6,0,0,0,36.9,4.549Z"/><path class="cls-5" d="M36.094,1.534,35.853.793A.615.615,0,0,0,35.068.4L12.728,8.143a.54.54,0,0,0,.1,1.045.536.536,0,0,0,.231-.017L35.688,2.312a.616.616,0,0,0,.406-.778Z"/><line class="cls-6" x1="15.405" y1="8.932" x2="15.405" y2="18.32"/><line class="cls-6" x1="16.958" y1="8.51" x2="16.958" y2="18.318"/><line class="cls-6" x1="18.511" y1="8.089" x2="18.511" y2="18.053"/><g class="cls-7"><path class="cls-6" d="M17.806,21.617a8.312,8.312,0,0,1,10.18,5.877"/><path class="cls-6" d="M18.237,23.223a6.657,6.657,0,0,1,8.144,4.7"/><path class="cls-6" d="M18.667,24.828a4.993,4.993,0,0,1,6.108,3.527"/><path class="cls-6" d="M10.821,22.124a7.606,7.606,0,0,1,10.39-2.784"/><path class="cls-6" d="M12.139,22.884a6.093,6.093,0,0,1,8.312-2.227"/><path class="cls-6" d="M13.769,23.173a4.569,4.569,0,0,1,5.921-1.2"/><path class="cls-6" d="M32.56,24.005a8.31,8.31,0,0,0-11.354-3.042"/><path class="cls-6" d="M31.12,24.836A6.657,6.657,0,0,0,22.037,22.4"/><path class="cls-6" d="M29.681,25.667a4.991,4.991,0,0,0-4.347-2.492"/><path class="cls-6" d="M9.343,24.288A8.312,8.312,0,0,1,20.7,27.33"/><path class="cls-6" d="M10.175,25.728a6.656,6.656,0,0,1,9.083,2.433"/><path class="cls-6" d="M11.006,27.167a4.989,4.989,0,0,1,5.01.015"/></g><path class="cls-8" d="M22.915,23.144c-2.519,2.52-5.32,2.333-7.163.49s-2.03-4.644.489-7.164,6.792-3.8,8.635-1.961S25.435,20.625,22.915,23.144Z"/><circle class="cls-9" cx="19.373" cy="20.013" r="2.662"/></svg>