<svg id="Layer_1" data-name="Layer 1" xmlns="http://www.w3.org/2000/svg" viewBox="0 0 40 40"><defs><style>.cls-1{fill:#ebebeb;}.cls-2{fill:#3d3d3d;}.cls-3{fill:none;}</style></defs><path class="cls-1" d="M3.605,21.893,11.65,8.272a9.67,9.67,0,0,1,16.64-.021l8.092,13.62A9.67,9.67,0,0,1,28.069,36.48H11.931A9.67,9.67,0,0,1,3.605,21.893Z"/><path class="cls-2" d="M14.863,22.179H25.137a2.014,2.014,0,0,1,2.014,2.014V36.48a0,0,0,0,1,0,0h-14.3a0,0,0,0,1,0,0V24.193A2.014,2.014,0,0,1,14.863,22.179Z"/><rect class="cls-3" width="40" height="40"/></svg>