<svg id="Layer_1" data-name="Layer 1" xmlns="http://www.w3.org/2000/svg" viewBox="0 0 40 40"><defs><style>.cls-1{fill:#595959;}.cls-2,.cls-3{fill:none;}.cls-3,.cls-4{stroke:#3d3d3d;stroke-linecap:round;stroke-linejoin:round;stroke-width:2px;}.cls-4{fill:#3d3d3d;}</style></defs><rect class="cls-1" x="3.5" y="6.9" width="33" height="1.1"/><rect class="cls-1" x="3.5" y="12.675" width="33" height="1.1"/><rect class="cls-1" x="3.5" y="18.45" width="33" height="1.1"/><rect class="cls-1" x="3.5" y="24.225" width="33" height="1.1"/><rect class="cls-1" x="3.5" y="30" width="33" height="1.1"/><rect class="cls-1" x="3.5" y="6.9" width="3.3" height="24.2"/><rect class="cls-2" width="40" height="40"/><path class="cls-3" d="M24.126,23.875c-.677,2.2-3.565,2.254-4.979.949-1.611-1.487-1.169-5.893,3.3-5.954a5.169,5.169,0,0,1,4.111,8.11,6.905,6.905,0,0,1-9.873,1.038c-2.205-1.819-3.653-6.05.134-10.244,2.429-2.689,4.086-4.61,7.147-7.973s1.355-6.025-.5-6.239c-1.755-.2-3.2,1.537-2.994,4.266s1.948,26.6,1.948,26.6a3.35,3.35,0,0,1-2.981,3.681A3.505,3.505,0,0,1,15.5,34.274"/><circle class="cls-4" cx="16.601" cy="34.216" r="1.1"/></svg>