<?xml version="1.0" encoding="UTF-8"?><svg id="Layer_1" xmlns="http://www.w3.org/2000/svg" viewBox="0 0 40 40"><g><rect x="18.80908" y="26.30176" width="2.29883" height="12.00781" style="fill:#e4e7ea;"/><path d="M20.55588,35.58713c-.18547-.2638-.92629-.2638-1.11176,0-.31077,.42433-5.08547,1.54315-6.62085,2.8782-.31317,.27231-.09512,.79286,.31989,.79286h13.71368c.41501,0,.63306-.52055,.31989-.79286-1.53538-1.33505-6.31008-2.45386-6.62085-2.8782Z" style="fill:#e5e9ee;"/><g><path d="M21.14768,31.25367c0-1.65602,.99096-3.17066,2.48323-3.62051,5.59845-1.68768,9.70244-7.1765,9.70244-13.69586,0-2.77577-1.66239-7.31824-3.81217-12.03408-.32346-.70956-1.0367-1.16141-1.8165-1.16141H12.29534c-.77981,0-1.49304,.45186-1.8165,1.16141-2.14978,4.71584-3.81217,9.25831-3.81217,12.03408,0,6.51936,4.10398,12.00818,9.70244,13.69586,1.49227,.44985,2.48323,1.96449,2.48323,3.62051h2.29535Z" style="fill:#e5e9ee;"/><path d="M31.40544,14.12015s0-3.60268-4.86451-3.28442c-3.2072,.20983-5.15108,5.36497-11.96241,3.95553-5.21962-1.08007,3.51961,5.64005,3.51961,5.64005h10.09359s2.90999-2.22344,3.21373-6.31116Z" style="fill:#d12030;"/><path d="M31.40544,14.12015c0,6.72741-5.10638,12.18121-11.40544,12.18121s-11.40544-5.45381-11.40544-12.18121c0,0,0-6.20212,11.40545,0,7.10426,3.8632,11.40542,0,11.40542,0Z" style="fill:#a41926;"/></g></g><rect x="0" y="0" width="40" height="40" transform="translate(40 40) rotate(-180)" style="fill:none;"/></svg>