<svg id="Layer_1" data-name="Layer 1" xmlns="http://www.w3.org/2000/svg" viewBox="0 0 40 40"><defs><style>.cls-1{fill:#d1956b;}.cls-2{fill:#ffb582;}.cls-3{fill:#5a75ff;}.cls-4{fill:#515a8a;}.cls-5{fill:#ef4452;}.cls-6{fill:#93c9ff;}.cls-7{fill:none;}</style></defs><polygon class="cls-1" points="15.347 25.703 26.859 22.559 21.704 17.671 16.873 19.933 15.347 25.703"/><path class="cls-2" d="M12.675,16.919l4.244-8.327c.637-1.308,1.35-2.177,2.63-2.007L31.121,8.573l5.19,1.948a.994.994,0,0,1-.527,1.913L33.3,11.9c-.455-.066-1.245-.312-1.009.083.361.6.42.98-.269,1.132h0a1.035,1.035,0,0,1-1.032-.366L28.6,10.878l-6.933.149L16.456,24.594l-13.438.129V21.7S12.653,17.031,12.675,16.919Z"/><circle class="cls-2" cx="26.535" cy="18.724" r="5.869"/><circle class="cls-2" cx="23.785" cy="14.964" r="2.17"/><path class="cls-3" d="M27.051,16.4a1.667,1.667,0,0,1,0,1.751.368.368,0,0,0-.033.39h0a.368.368,0,0,0,.353.167,1.667,1.667,0,0,1,1.514.88,1.442,1.442,0,1,1-2.474,1.424,1.669,1.669,0,0,1,0-1.751.367.367,0,0,0,.033-.389h0a.368.368,0,0,0-.353-.168,1.669,1.669,0,0,1-1.514-.88A1.443,1.443,0,1,1,27.051,16.4Z"/><path class="cls-4" d="M24.881,13.092a5.869,5.869,0,0,1,6.051,9.518A19.031,19.031,0,0,0,24.881,13.092Z"/><circle class="cls-5" cx="23.662" cy="20.628" r="0.628"/><path class="cls-6" d="M36.247,33.348H3.018V23.535c19.2,3.554,28.3-6.856,33.229,0Z"/><rect class="cls-7" width="40" height="40"/></svg>