<svg id="Layer_1" data-name="Layer 1" xmlns="http://www.w3.org/2000/svg" xmlns:xlink="http://www.w3.org/1999/xlink" viewBox="0 0 40 40"><defs><style>.cls-1,.cls-4{fill:none;}.cls-2{fill:#e5e9ee;}.cls-3{clip-path:url(#clip-path);}.cls-4{stroke:#d0d5da;stroke-linecap:round;stroke-miterlimit:10;stroke-width:1.5px;}</style><clipPath id="clip-path"><circle class="cls-1" cx="20" cy="20" r="17.5"/></clipPath></defs><rect class="cls-1" width="40" height="40"/><circle class="cls-2" cx="20" cy="20" r="17.5"/><g class="cls-3"><path class="cls-4" d="M20.042,20A17.841,17.841,0,0,0,24.663,2.755"/><path class="cls-4" d="M20.042,20A17.843,17.843,0,0,0,2.78,24.637"/><path class="cls-4" d="M24.42,12.832A17.877,17.877,0,0,0,2.78,15.646"/><path class="cls-4" d="M11.643,19.794A17.881,17.881,0,0,0,24.9,37.127"/><path class="cls-4" d="M24.061,27.378A17.882,17.882,0,0,0,32.444,7.23"/><path class="cls-4" d="M20.042,20A17.842,17.842,0,0,0,32.667,32.627"/></g></svg>