<?xml version="1.0" encoding="UTF-8"?><svg id="Layer_1" xmlns="http://www.w3.org/2000/svg" viewBox="0 0 40 40"><g><path d="m36.389,22.392c0,8.308-7.338,15.042-16.389,15.042S3.611,30.7,3.611,22.392s7.338-13.286,16.389-13.286,16.389,4.978,16.389,13.286Z" fill="#ff9000"/><path d="m26.97,9.065c-1.909,1.368-4.653.999-5.914.727-.392-.085-.671-.474-.625-.872.147-1.282.679-3.999,2.587-5.367,1.909-1.368,4.653-.999,5.914-.727.392.085.671.474.625.872-.147,1.282-.679,3.999-2.587,5.367Z" fill="#006956"/></g><rect width="40" height="40" fill="none"/></svg>