<?xml version="1.0" encoding="UTF-8"?><svg id="Layer_1" xmlns="http://www.w3.org/2000/svg" viewBox="0 0 40 40"><g><g><rect x="3.5" y="6.9" width="33" height="1.1" style="fill:#595959;"/><rect x="3.5" y="12.675" width="33" height="1.1" style="fill:#595959;"/><rect x="3.5" y="18.45" width="33" height="1.1" style="fill:#595959;"/><rect x="3.5" y="24.225" width="33" height="1.1" style="fill:#595959;"/><rect x="3.5" y="30" width="33" height="1.1" style="fill:#595959;"/></g><rect x="3.5" y="6.9" width="3.3" height="24.2" style="fill:#595959;"/></g><rect x="0" y="0" width="40" height="40" style="fill:none;"/><path d="M27.80957,21.24805c-1.06543-2.08984-3.09082-3.37793-5.2998-3.37793-.09766,.00098-.2002,.00195-.29883,.00684-.11035-1.51172-.2168-2.96973-.31348-4.28906,.82422-.92383,1.72852-1.92871,2.80664-3.11426,2.3457-2.57617,2.06934-4.63477,1.69531-5.63184-.46289-1.23633-1.57129-2.12891-2.82129-2.27344-1.00684-.11719-1.96777,.21582-2.7168,.93457-1.02148,.98242-1.52832,2.58594-1.38965,4.40039,.0498,.6543,.18848,2.52148,.36914,4.98535-.3252,.36523-.64062,.71973-.9541,1.07227-.9082,1.02148-1.79102,2.01465-2.81055,3.14355-2.34375,2.59473-2.69629,5.0459-2.57812,6.64453,.14258,1.95703,1.0957,3.84082,2.54883,5.04004,1.43066,1.17969,3.24316,1.82422,5.08984,1.83398,.17188,2.35156,.28516,3.90234,.28613,3.91016,.06543,.62402-.11621,1.23633-.51172,1.72461-.39453,.4873-.95605,.79199-1.58008,.8584-.77539,.07617-1.58008-.19238-2.12012-.70996-.04785-.04602-.08081-.10156-.1239-.15063,.96539-.22998,1.66406-1.12195,1.61121-2.14917v-.00098c-.03027-.56055-.27637-1.0752-.69336-1.4502s-.94824-.56641-1.51367-.53613c-1.10742,.05713-1.96393,.9707-1.98132,2.06616-.00073,.00806-.00543,.01453-.00598,.02271-.00269,.04077,.00085,.07666-.00092,.1167l-.00006,.00146,.00006,.00037c-.07867,1.77209,.66827,2.89294,1.3222,3.52112,.85352,.82031,2.03418,1.28223,3.23242,1.28223,.16113,0,.32227-.00781,.48242-.02539,1.15527-.12109,2.19434-.68555,2.92578-1.58789,.73145-.90332,1.06738-2.03711,.94824-3.16016,0,0-.11523-1.58008-.28906-3.97266,1.7041-.42578,3.18359-1.40039,4.23242-2.80566,1.34863-1.80566,1.52246-4.23145,.45215-6.33008Zm-7.11426,3.32324c-.33105-.10254-.63672-.2666-.87012-.48145-.47266-.43652-.7334-1.48535-.34961-2.48535,.18555-.48633,.49805-.87793,.91797-1.16504,.10156,1.3877,.20312,2.78418,.30176,4.13184Zm-3.375,2.6748c-1.04004-.8584-1.72363-2.21973-1.82812-3.64258-.12695-1.73633,.58789-3.51953,2.06836-5.15918,.89648-.99219,1.68848-1.88086,2.48438-2.77539,.06055,.83887,.125,1.71387,.19043,2.60449-1.23633,.48145-2.1543,1.37988-2.62793,2.61523-.63574,1.65918-.27344,3.62305,.86133,4.6709,.63477,.58594,1.48926,.96289,2.37793,1.08594,.0498,.68457,.09863,1.3457,.14453,1.97461-1.33594-.04004-2.63672-.52148-3.6709-1.37402Zm4.37305-16.42676c-.11035-1.49805-.19141-2.59766-.22754-3.06836-.0918-1.19824,.20117-2.24707,.78223-2.80664,.27637-.26465,.59082-.39941,.9375-.39941,.05371,0,.10742,.00391,.16211,.00977,.51367,.05957,.97656,.44824,1.17871,.98926,.36426,.96973-.11035,2.27539-1.30078,3.58398-.55176,.60547-1.05859,1.16504-1.53223,1.69141Zm4.06152,15.56152c-.69922,.9375-1.66309,1.61426-2.77832,1.9668-.04395-.59863-.08984-1.22656-.13672-1.875,1.09277-.37305,1.90332-1.20117,2.24219-2.30371,.16211-.52832-.13477-1.08789-.66211-1.25-.5293-.16211-1.08691,.13574-1.25,.66211-.09473,.30957-.25781,.55664-.4873,.73926-.10645-1.45117-.2168-2.95801-.3252-4.44824,.03418-.00098,.06836-.00195,.10254-.00195,1.47656-.02246,2.83887,.85645,3.56738,2.28613,.73242,1.43652,.63086,3.01562-.27246,4.22461Z" style="fill:#3d3d3d;"/></svg>