<svg id="Layer_1" data-name="Layer 1" xmlns="http://www.w3.org/2000/svg" viewBox="0 0 40 40"><defs><style>.cls-1,.cls-3{fill:none;}.cls-2{fill:#8a94a0;}.cls-3{stroke:#4b596a;stroke-linecap:round;stroke-miterlimit:10;stroke-width:1.5px;}.cls-4{fill:#ffcd00;}.cls-5{fill:#fa0;}</style></defs><rect class="cls-1" width="40" height="40" transform="translate(40 40) rotate(-180)"/><rect class="cls-2" x="20.023" y="24.598" width="17.184" height="7.317" rx="1.087"/><line class="cls-3" x1="28.655" y1="9.328" x2="28.655" y2="23.729"/><path class="cls-4" d="M3.834,12.388l28.183-1.156a1,1,0,0,0,.959-1V8.439a1,1,0,0,0-.959-1L3.834,6.284a1,1,0,0,0-1.041,1v4.1A1,1,0,0,0,3.834,12.388Z"/><rect class="cls-5" x="26.412" y="6.745" width="4.405" height="5.642" rx="0.466"/><polyline class="cls-3" points="25.498 31.915 28.659 23.665 31.845 31.915"/><path class="cls-5" d="M13.9,35.912l-1.165-31.9a1,1,0,0,0-1-.963H7.472a1,1,0,0,0-1,.963l-1.164,31.9a1,1,0,0,0,1,1.036H12.9A1,1,0,0,0,13.9,35.912Z"/></svg>