<?xml version="1.0" encoding="UTF-8"?><svg id="Layer_1" xmlns="http://www.w3.org/2000/svg" viewBox="0 0 40 40"><rect width="40" height="40" style="fill:none;"/><g><g><path d="M20.32016,16.76626v.00002L37.74939,6.67976l-.00054-.00037c-7.73801-5.34958-18.21225,.7124-17.42869,10.08688Z" style="fill:#ffcd00;"/><ellipse cx="29.40833" cy="12.35149" rx="10.25906" ry="3.80265" transform="translate(-2.23949 16.32954) rotate(-29.94675)" style="fill:#ffad00;"/></g><g><path d="M19.67984,16.76626v.00002L2.25061,6.67976l.00054-.00037c7.73801-5.34958,18.21225,.7124,17.42869,10.08688Z" style="fill:#ffcd00;"/><ellipse cx="10.59167" cy="12.35149" rx="3.80265" ry="10.25906" transform="translate(-5.39807 15.36326) rotate(-60.05325)" style="fill:#ffad00;"/></g><circle cx="36.07063" cy="25.45651" r="1.76042" style="fill:#edccf8;"/><path d="M30.83301,26.5249c-.19775,0-.39844-.04639-.58594-.14404-2.25293-1.1709-4.09277-2.95557-5.3208-5.16064-.3418-.61426-.12109-1.38916,.49268-1.73096,.61328-.34131,1.38818-.12207,1.73096,.49268,.98438,1.76855,2.46143,3.2002,4.271,4.14111,.62354,.32422,.86621,1.09229,.54199,1.71582-.22656,.43604-.67041,.68604-1.12988,.68604Z" style="fill:#b44bd7;"/><path d="M11.13965,30.06445c-.38232,0-.76074-.17139-1.01123-.49854-.42725-.55811-.32129-1.35693,.23633-1.78418,2.07227-1.58691,3.61572-3.7207,4.46338-6.17041,.22998-.66455,.95654-1.01562,1.61865-.78662,.66406,.22998,1.01611,.95459,.78662,1.61865-1.01172,2.92285-2.85156,5.46729-5.3208,7.35889-.23096,.17676-.50293,.26221-.77295,.26221Z" style="fill:#ef4452;"/><path d="M5.35107,24.146c-.58398,0-1.11035-.4043-1.2417-.99805-.15137-.68604,.28174-1.36572,.96777-1.51709,.83057-.18408,1.646-.44824,2.4248-.78516,2.43018-1.05273,4.47021-2.79346,5.89941-5.03418,.37793-.59277,1.16406-.76611,1.75732-.38818,.59229,.37793,.76611,1.16455,.38818,1.75732-1.70361,2.66992-4.13574,4.74463-7.0332,6-.92725,.40186-1.89844,.71631-2.88672,.93506-.09277,.02002-.18506,.03027-.27588,.03027Z" style="fill:#7896ff;"/><path d="M23.55225,33.90576c-.38184,0-.75928-.1709-1.00977-.49707-2.57324-3.34814-3.68701-7.49658-3.13525-11.68115,.09229-.6958,.72998-1.18164,1.42822-1.09521,.69678,.0918,1.18701,.73145,1.09521,1.42822-.46289,3.50928,.47119,6.98877,2.62939,9.79736,.42822,.55713,.32373,1.35596-.2334,1.78418-.23096,.17773-.50391,.26367-.77441,.26367Z" style="fill:#ffad00;"/><path d="M22.45006,15.57193l1.2502,1.24878c.26018,.25988,.26007,.68113-.00023,.94089l-1.25081,1.24817c-.26031,.25975-.68224,.25965-.94242-.00023l-1.2502-1.24878c-.26018-.25988-.26007-.68113,.00023-.94089l1.25081-1.24817c.26031-.25975,.68224-.25965,.94242,.00023Z" style="fill:#ef4452;"/><rect x="26.86194" y="29.06532" width="3.1671" height="3.17125" rx=".7362" ry=".7362" transform="translate(66.46625 13.24267) rotate(108.26149)" style="fill:#7896ff;"/><path d="M3.14264,28.12896l.83141,1.60365c.17302,.33373,.58427,.46424,.91855,.2915l1.60626-.83006c.33428-.17274,.465-.58332,.29197-.91705l-.83141-1.60365c-.17302-.33373-.58427-.46424-.91855-.2915l-1.60626,.83006c-.33428,.17274-.465,.58332-.29197,.91705Z" style="fill:#a8bfff;"/><circle cx="14.5984" cy="33.91888" r="1.41779" style="fill:#ffc84d;"/><circle cx="27.43655" cy="14.30653" r="1.41779" style="fill:#fff;"/><circle cx="10.8662" cy="12.61287" r="1.65371" style="fill:#ffc84d;"/></g></svg>