<?xml version="1.0" encoding="UTF-8"?><svg id="Layer_1" xmlns="http://www.w3.org/2000/svg" viewBox="0 0 40 40"><g><path d="m22.976,22.629c-.248,0-.49-.121-.636-.344-.229-.352-.131-.821.22-1.05l11.261-7.353c.487-.318.82-.806.94-1.374.119-.568.01-1.148-.308-1.635-.655-1.003-2.006-1.287-3.009-.632-.648.423-1.024,1.166-.983,1.939.023.418-.298.775-.716.798-.432.027-.776-.298-.798-.716-.071-1.312.567-2.573,1.668-3.291,1.699-1.112,3.994-.632,5.107,1.071.539.826.725,1.812.521,2.776-.202.965-.769,1.793-1.594,2.332l-11.261,7.353c-.128.084-.272.124-.414.124Z" fill="#c9ced6"/><path d="m35.219,30.312c-.961,0-1.902-.376-2.602-1.068-.298-.295-.301-.775-.006-1.072.295-.3.775-.301,1.072-.006.551.546,1.359.755,2.103.554,1.157-.315,1.841-1.513,1.526-2.669-.153-.561-.515-1.027-1.019-1.315-.505-.289-1.094-.362-1.65-.21l-9.716,2.648c-.405.114-.821-.128-.931-.532-.11-.404.128-.82.532-.931l9.715-2.648c.952-.26,1.946-.133,2.802.355.856.489,1.471,1.283,1.729,2.234.535,1.963-.627,3.995-2.59,4.53-.318.087-.644.13-.967.13Z" fill="#c9ced6"/><path d="m24.085,24.978c-.289,0-.565-.167-.691-.448-.172-.382-.002-.83.381-1.002l14.123-6.348c.38-.172.831-.002,1.002.381.172.382.002.83-.381,1.002l-14.123,6.348c-.101.046-.206.067-.311.067Z" fill="#dde0e3"/><path d="m20.647,26.5l-1.57-.74c-.252-.119-.275-.468-.041-.619l1.347-.866c.569-.349.478-1.191-.148-1.464-1.68-.731-2.845-1.439-3.375-1.815-.19-.135-.24-.395-.116-.592.225-.356.592-.936.868-1.372.206-.325.114-.755-.206-.969l-1.702-1.135c-.989-.659-1.731-1.626-2.112-2.752s-.959-2.835-1.757-5.209C10.192,4.089,1.792,4.089,1.792,4.089v34.208l12.074-2.099.008-.006c2.786-.484,4.907-2.909,4.907-5.834,0-.177-.009-.352-.025-.524-.031-.321.123-.635.401-.798.639-.374,1.214-.791,1.659-1.15.473-.382.381-1.128-.169-1.387Z" fill="#dde0e3"/><path d="m1.792,22.49l4.204-13.792s1.317-3.328,4.07-1.951c0,0,1.051.497,2.474,4.318l1.836-2.05c2.529-2.825.524-7.311-3.268-7.311H1.792v20.787Z" fill="#acb1b8"/><path d="m14.367,25.103c-.683-2.027-2.346-3.443-4.282-3.91,1.385.977,2.524,2.46,3.143,4.294s.609,3.705.098,5.32c1.258-1.544,1.725-3.677,1.042-5.705Z" fill="#acb1b8"/><path d="m12.247,15.707c-.027-.073-.063-.138-.095-.207-.125.671-.559,1.246-1.209,1.484-.65.238-1.353.078-1.881-.354.02.073.034.147.061.22.401,1.097,1.426,1.73,2.288,1.415.863-.315,1.237-1.461.836-2.557Z" fill="#acb1b8"/><circle cx="7.486" cy="7.784" r="4.312" fill="#acb1b8"/></g><rect width="40" height="40" fill="none"/></svg>