<svg id="Layer_1" data-name="Layer 1" xmlns="http://www.w3.org/2000/svg" viewBox="0 0 40 40"><defs><style>.cls-1{fill:none;}.cls-2{fill:#ffcd00;}.cls-3{fill:#ffe63b;}.cls-4{fill:#ff9a00;}</style></defs><rect class="cls-1" width="40" height="40" transform="translate(40 40) rotate(-180)"/><path class="cls-2" d="M1.5,20c0,7.374,16.882,3.5,18.5,0C18.382,16.505,1.5,12.626,1.5,20Z"/><path class="cls-2" d="M38.5,20c0-7.374-16.882-3.5-18.5,0C21.618,23.5,38.5,27.374,38.5,20Z"/><path class="cls-2" d="M20,1.5c-7.374,0-3.5,16.882,0,18.5C23.5,18.382,27.374,1.5,20,1.5Z"/><path class="cls-3" d="M6.919,6.919C1.7,12.133,16.385,21.327,20,20,21.327,16.385,12.133,1.7,6.919,6.919Z"/><path class="cls-3" d="M6.919,33.081C12.133,38.3,21.327,23.615,20,20,16.385,18.673,1.7,27.867,6.919,33.081Z"/><path class="cls-2" d="M20,38.5c7.374,0,3.5-16.882,0-18.5C16.505,21.618,12.626,38.5,20,38.5Z"/><path class="cls-3" d="M33.081,33.081C38.3,27.867,23.615,18.673,20,20,18.673,23.615,27.867,38.3,33.081,33.081Z"/><path class="cls-3" d="M33.081,6.919C27.867,1.7,18.673,16.385,20,20,23.615,21.327,38.3,12.133,33.081,6.919Z"/><circle class="cls-4" cx="20.041" cy="20" r="3.464"/></svg>