<?xml version="1.0" encoding="UTF-8"?><svg id="Layer_1" xmlns="http://www.w3.org/2000/svg" viewBox="0 0 40 40"><g><path d="m9.874,29.139c-2.504,0-4.59,1.031-5.066,2.401.917,1.026,2.865,1.755,5.066,1.755s4.148-.729,5.066-1.755c-.475-1.369-2.562-2.401-5.066-2.401Z" fill="#fff"/><g><path d="m4.808,31.54c.475-1.369,2.562-2.401,5.066-2.401s4.59,1.031,5.066,2.401c.354-.396.559-.834.559-1.294,0-1.653-2.576-3.049-5.625-3.049s-5.625,1.396-5.625,3.049c0,.46.205.898.559,1.294Z" fill="#a8c6de"/><path d="m15.996,30.334s-.005.013-.01.026c-.025.448-.186.876-.471,1.267-.929,1.273-3.105,2.166-5.641,2.166s-4.712-.893-5.641-2.166c-.286-.391-.447-.819-.471-1.267-.005-.013-.01-.026-.01-.026v2.03c0,3.381,2.741,6.122,6.122,6.122,2.552,0,4.737-1.562,5.657-3.782.299-.721.465-1.511.465-2.34v-2.03Z" fill="#a8c6de"/></g><path d="m4.233,31.626c.929,1.273,3.105,2.166,5.641,2.166s4.712-.893,5.641-2.166c.286-.391.447-.819.471-1.267.002-.038.01-.075.01-.114,0-.483-.168-.943-.47-1.363-.004-.006-.007-.012-.011-.018-.083-.114-.178-.224-.28-.332-.535-.561-1.327-1.027-2.281-1.35-.905-.306-1.955-.485-3.079-.485-2.309,0-4.318.741-5.361,1.834-.102.107-.197.218-.28.331-.004.006-.007.012-.011.017-.302.42-.47.88-.47,1.363,0,.038.008.075.01.114.025.448.186.876.471,1.267Zm5.641-4.429c3.049,0,5.625,1.396,5.625,3.049,0,.46-.205.898-.559,1.294-.917,1.026-2.865,1.755-5.066,1.755s-4.148-.729-5.066-1.755c-.354-.396-.559-.834-.559-1.294,0-1.653,2.576-3.049,5.625-3.049Z" fill="#e0f1ff"/><path d="m23.949,4.427c2.303,0,4.24.837,4.959,1.996.745-.524,1.171-1.14,1.171-1.73,0-1.443-2.518-3.051-6.13-3.051s-6.13,1.608-6.13,3.051c0,.59.427,1.206,1.171,1.73.719-1.159,2.657-1.996,4.959-1.996Z" fill="#4a667a"/><path d="m23.949,4.427c-2.303,0-4.24.837-4.959,1.996,1.076.758,2.824,1.321,4.959,1.321s3.883-.563,4.959-1.321c-.719-1.159-2.657-1.996-4.959-1.996Z" fill="#fff"/><path d="m32.79,20.45l-3.58-5.13c-.55-.8-.72-1.8-.45-2.73l2.01-6.9c.15-.32.24-.65.24-1,0-.96-.61-1.84-1.62-2.53-.14-.1-.29-.19-.45-.28-.32-.18-.67-.34-1.05-.49-1.12-.42-2.48-.67-3.94-.67s-2.82.25-3.95.67c-.37.15-.72.31-1.04.49-.16.09-.31.18-.46.28-1,.69-1.61,1.57-1.61,2.53,0,.35.09.68.23,1,.03.06.05.11.08.16h-.01l1.95,6.74c.27.93.1,1.93-.45,2.73l-3.58,5.13c-1.42,2.02-2.13,4.38-2.16,6.73.96.33,1.75.79,2.28,1.35.14.12.24.23.3.35.3.42.47.88.47,1.37,0,.03-.01.07-.01.11,0-.01.01-.03.01-.03v2.03c0,.83-.17,1.62-.47,2.34,2.01,2.54,5.07,4.05,8.33,4.05h.18c3.51,0,6.8-1.73,8.78-4.63l.03-.04c2.82-4.11,2.8-9.54-.06-13.63ZM23.95,1.64c3.61,0,6.13,1.61,6.13,3.05,0,.59-.43,1.21-1.17,1.73-1.08.76-2.83,1.32-4.96,1.32s-3.88-.56-4.96-1.32c-.75-.52-1.17-1.14-1.17-1.73,0-1.44,2.52-3.05,6.13-3.05Z" fill="#7b9cb5"/></g><rect x="0" y="0" width="40" height="40" transform="translate(40 40) rotate(-180)" fill="none"/></svg>