<?xml version="1.0" encoding="UTF-8"?><svg id="Layer_1" xmlns="http://www.w3.org/2000/svg" viewBox="0 0 40 40"><g><path d="m20.089,37.941c-.077-.049-6.377-6.258-6.743-11.66-.17-2.515.874-4.109,2.049-5.096,1.409-1.183,7.978-1.183,9.388,0,1.175.986,2.22,2.581,2.049,5.096-.366,5.401-6.666,11.611-6.743,11.66" fill="#ec6700"/><path d="m2.5,25.74c.023-.088,3.981-7.999,9.005-10.016,2.339-.939,4.178-.438,5.479.374,1.56.975,3.59,7.222,2.901,8.928-.575,1.422-1.769,2.909-4.213,3.524-5.25,1.321-13.103-2.752-13.173-2.81" fill="#ec6700"/><path d="m9.276,5.048c.091-.006,8.838,1.315,12.309,5.469,1.616,1.934,1.708,3.838,1.337,5.327-.445,1.785-5.759,5.647-7.595,5.518-1.53-.107-3.313-.783-4.653-2.918-2.879-4.585-1.432-13.312-1.398-13.396" fill="#ec6700"/><path d="m30.437,4.897c.034.085,1.481,8.811-1.398,13.396-1.34,2.135-3.123,2.811-4.653,2.918-1.835.129-7.15-3.733-7.595-5.518-.371-1.489-.279-3.393,1.337-5.327,3.471-4.155,12.218-5.475,12.309-5.469" fill="#ec6700"/><path d="m37.5,25.495c-.07.058-7.922,4.131-13.173,2.81-2.444-.615-3.638-2.101-4.213-3.524-.69-1.706,1.34-7.953,2.901-8.928,1.301-.813,3.141-1.314,5.479-.374,5.024,2.017,8.983,9.928,9.005,10.016" fill="#ec6700"/></g><g><path d="m20.089,19.702c.077-.049,6.377-6.258,6.743-11.66.17-2.515-.874-4.109-2.049-5.096-1.409-1.183-7.978-1.183-9.388,0-1.175.986-2.22,2.581-2.049,5.096.366,5.401,6.666,11.611,6.743,11.66" fill="#fa0"/><path d="m20.024,19.562c-.023-.088-3.981-7.999-9.005-10.016-2.339-.939-4.178-.438-5.479.374-1.56.975-3.59,7.222-2.901,8.928.575,1.422,1.769,2.909,4.213,3.524,5.25,1.321,13.103-2.752,13.173-2.81" fill="#fa0"/><path d="m19.871,19.58c-.091-.006-8.838,1.315-12.309,5.469-1.616,1.934-1.708,3.838-1.337,5.327.445,1.785,5.759,5.647,7.595,5.518,1.53-.107,3.313-.783,4.653-2.918,2.879-4.585,1.432-13.312,1.398-13.396" fill="#fa0"/><path d="m19.842,19.731c-.034.085-1.481,8.811,1.398,13.396,1.34,2.135,3.123,2.811,4.653,2.918,1.835.129,7.15-3.733,7.595-5.518.371-1.489.279-3.393-1.337-5.327-3.471-4.155-12.218-5.475-12.309-5.469" fill="#fa0"/><path d="m19.976,19.806c.07.058,7.922,4.131,13.173,2.81,2.444-.615,3.638-2.101,4.213-3.524.69-1.706-1.34-7.953-2.901-8.928-1.301-.813-3.141-1.314-5.479-.374-5.024,2.017-8.983,9.928-9.005,10.016" fill="#fa0"/></g><g><path d="m19.956,20.118c-.031.019-2.551,2.503-2.697,4.664-.068,1.006.35,1.644.82,2.038.564.473,3.191.473,3.755,0,.47-.395.888-1.032.82-2.038-.146-2.161-2.666-4.644-2.697-4.664" fill="#ffe63b"/><path d="m20.864,19.679c.009.035,1.593,3.2,3.602,4.006.936.376,1.671.175,2.192-.15.624-.39,1.436-2.889,1.16-3.571-.23-.569-.707-1.164-1.685-1.409-2.1-.528-5.241,1.101-5.269,1.124" fill="#ffe63b"/><path d="m20.736,18.481c.036.002,3.535-.526,4.923-2.188.646-.774.683-1.535.535-2.131-.178-.714-2.304-2.259-3.038-2.207-.612.043-1.325.313-1.861,1.167-1.151,1.834-.573,5.325-.559,5.359" fill="#ffe63b"/><path d="m19.408,18.406c.014-.034.592-3.525-.559-5.359-.536-.854-1.249-1.124-1.861-1.167-.734-.051-2.86,1.493-3.038,2.207-.148.595-.112,1.357.535,2.131,1.388,1.662,4.887,2.19,4.923,2.188" fill="#ffe63b"/><path d="m19.136,19.557c-.028-.023-3.169-1.652-5.269-1.124-.978.246-1.455.841-1.685,1.409-.276.682.536,3.181,1.16,3.571.52.325,1.256.525,2.192.15,2.01-.807,3.593-3.971,3.602-4.006" fill="#ffe63b"/></g><g><path d="m20.027,19.389c.024-.015,1.01-.972,1.125-2.674.022-.319-.156-.777-.377-1.212-.313-.617-1.183-.617-1.497,0-.221.434-.399.893-.377,1.212.115,1.701,1.101,2.658,1.125,2.674" fill="#ff9a00"/><path d="m20.027,19.389c-.007-.028-.613-1.261-2.195-1.896-.296-.119-.788-.091-1.269-.016-.684.107-.953.934-.463,1.423.345.344.726.655,1.036.733,1.653.416,2.868-.226,2.89-.244" fill="#ff9a00"/><path d="m20.027,19.389c-.029-.002-1.389.193-2.482,1.502-.205.245-.33.721-.407,1.202-.109.684.594,1.195,1.211.88.434-.222.847-.488,1.017-.759.907-1.444.672-2.798.661-2.824" fill="#ff9a00"/><path d="m20.027,19.389c-.011.027-.245,1.38.661,2.824.17.271.583.537,1.017.759.616.315,1.32-.196,1.211-.88-.077-.481-.202-.957-.407-1.202-1.093-1.308-2.453-1.503-2.482-1.502" fill="#ff9a00"/><path d="m20.027,19.389c.022.018,1.237.66,2.89.244.31-.078.691-.389,1.036-.733.49-.489.221-1.316-.462-1.423-.481-.076-.972-.103-1.269.016-1.582.635-2.188,1.868-2.195,1.896" fill="#ff9a00"/></g></svg>