<?xml version="1.0" encoding="UTF-8"?><svg id="Layer_1" xmlns="http://www.w3.org/2000/svg" viewBox="0 0 40 40"><circle cx="20" cy="20" r="17.5" fill="#7bd58f"/><rect width="40" height="40" fill="none"/><path d="m4.799,28.038c-.102.022-.2.063-.284.114,2.932,5.558,8.764,9.348,15.485,9.348,9.665,0,17.5-7.835,17.5-17.5S29.665,2.5,20,2.5c-2.204,0-4.312.412-6.254,1.155.104.09.297.109.443.149.905.253,1.717.694,2.389,1.343.787.759,1.462,1.638,2.775,1.414.629-.107,1.292-.018,1.939-.018.797,0,1.594.017,2.39-.005.684-.019,1.266.142,1.725.692.423.507.966.736,1.652.668.518-.051,1.045.004,1.568-.005.432-.007.642.169.638.62-.004.435-.16.734-.614.781-.32.033-.661.07-.967-.002-.412-.098-.667.032-.995.279-.809.61-1.387,1.319-1.44,2.368-.018.363-.192.537-.568.531-.394-.006-.512-.223-.524-.572-.011-.313-.163-.559-.383-.783-.53-.538-1.966-.813-2.69-.514-.317.131-.347.37-.354.663-.008.326.122.559.432.599.753.096,1.189.562,1.507,1.192.096.191.242.29.46.333.832.166,1.089.89.497,1.513-.522.549-1.042,1.063-1.102,1.881-.024.32-.302.348-.568.342-.303-.007-.45-.16-.475-.458-.039-.463-.005-.888.398-1.216.269-.219.519-.473.623-.823.056-.19.134-.423-.057-.553-.188-.127-.312.085-.424.204-.194.206-.457.179-.694.229-.906.19-1.358.724-1.355,1.644.001.424-.017.843-.108,1.26-.054.25-.164.418-.422.449-.681.08-.806.54-.82,1.121-.018.745.078,1.493-.066,2.234-.062.317-.064.65-.531.671-.425.018-.544-.229-.653-.566-.113-.35-.131-.758-.416-1.024-.545-.508-.934-1.081-1.024-1.845-.042-.358-.323-.446-.666-.443-.319.002-.581.104-.61.416-.081.863-.579,1.456-1.178,2.005-.235.216-.283.524-.324.817-.043.308-.05.594-.467.637-.462.048-.603-.226-.703-.595-.13-.479-.257-.966-.681-1.294-.397-.306-.586-.737-.679-1.21-.08-.404-.125-.776-.695-.781-.553-.005-.626.325-.73.743-.196.788-.907,1.249-1.619,1.077-.47-.114-.713-.507-.959-.883-.243-.371-.487-.409-.844-.087-.462.416-.798.901-.557,1.491.211.516.604.972,1.257,1.023.602.047,1.088.348,1.244.904.162.578.118,1.219-.435,1.635-.674.507-.801,1.172-.779,1.967.043,1.548-.225,1.85-1.704,2.163Zm21.862,4.441c-.02-.363.076-.683.341-.947.502-.5,1.075-.929,1.068-1.774-.003-.362.409-.449.758-.425.34.023.577.2.616.537.064.55.051,1.078-.424,1.503-.472.423-.957.826-.949,1.592.005.454-.449.55-.85.486-.565-.091-.576-.531-.561-.972Zm-4.465-9.689c.397-.068.669.194.92.478.441.499.927.893,1.647.877.347-.008.463.221.462.543-.001.335-.154.492-.49.524-.426.04-.778-.058-1.066-.394-.462-.54-.974-.986-1.76-.965-.356.009-.43-.266-.422-.574.011-.466.332-.489.708-.488Zm-2.049-2.045c.05-.404.291-.6.648-.63.334-.013.423.151.39.418-.05.403-.289.606-.684.63-.298.018-.386-.152-.354-.418Zm1.087,6.041c.473.037.8-.191.868-.72.038-.294.208-.473.556-.479.378-.007.563.171.613.504.049.33.198.544.517.658,1.424.507,1.469.575,1.467,2.185.148.734-.15,1.423-.839,1.964-.154.121-.296.274-.402.438-.443.681-.59.748-1.091.152-.63-.749-1.38-.97-2.312-.895-.422.034-.857.098-1.273-.236-.91-.731-.746-2.031.302-2.93.464-.398.938-.694,1.594-.642Zm-4.703-3.874c.323-.039.553.077.61.396.089.5.28.804.869.793.566-.011.707-.335.796-.788.062-.315.282-.44.607-.402.416.048.307.376.381.669-.175.729-.739,1.189-1.359,1.534-.543.302-1.063.077-1.461-.383-.329-.381-.869-.631-.799-1.266.027-.245,0-.51.355-.552Zm-9.821,4.796c.239-.308.536-.579.845-.82.077-.06.193.109.165.444-.028.229-.259.483-.677.552-.155.026-.397-.093-.333-.176Z" fill="#2f81f9"/></svg>