<svg id="Layer_1" data-name="Layer 1" xmlns="http://www.w3.org/2000/svg" viewBox="0 0 40 40"><defs><style>.cls-1{fill:none;}.cls-2{fill:#6b7683;}.cls-3{fill:#d0d5da;}.cls-4{fill:#007ff2;}</style></defs><rect id="_20x20" data-name="20x20" class="cls-1" width="40" height="40"/><path class="cls-2" d="M17.811,29.01H22.19a1.771,1.771,0,0,1,1.771,1.771v6.15a0,0,0,0,1,0,0H16.04a0,0,0,0,1,0,0v-6.15A1.771,1.771,0,0,1,17.811,29.01Z"/><path class="cls-3" d="M35.116,14.626,21.037,3.431a1.665,1.665,0,0,0-2.074,0L4.885,14.626a3.331,3.331,0,0,0-1.259,2.609v15.7a4,4,0,0,0,4,4h9.041V30.677a1.667,1.667,0,0,1,1.667-1.667h3.333a1.667,1.667,0,0,1,1.667,1.667v6.255h9.04a4,4,0,0,0,4-4v-15.7A3.333,3.333,0,0,0,35.116,14.626Z"/><path class="cls-4" d="M35.115,14.625,21.037,3.431a1.665,1.665,0,0,0-2.074,0L4.884,14.626a3.333,3.333,0,0,0-1.258,2.609v5.058L18.963,10.1a1.667,1.667,0,0,1,2.075,0l15.336,12.2V17.235A3.334,3.334,0,0,0,35.115,14.625Z"/></svg>