<?xml version="1.0" encoding="UTF-8"?><svg id="Layer_1" xmlns="http://www.w3.org/2000/svg" viewBox="0 0 40 40"><rect width="40" height="40" fill="none"/><g><rect x="27.508" y="18.237" width="2.967" height="9.527" transform="translate(-7.772 27.236) rotate(-45)" fill="#6b7683"/><circle cx="32.647" cy="26.656" r="5.853" fill="#313d4c"/><circle cx="32.647" cy="26.656" r="2.341" fill="#6b7683"/><path d="m37.751,14.359h-17.664c-.97,0-1.901-.385-2.587-1.071l-2.278-2.278c-.343-.343-.808-.536-1.293-.536H3.333c-1.629,0-2.445,1.97-1.293,3.122l14.787,14.736c.686.683,1.614,1.067,2.582,1.067h4.386c1.01,0,1.829-.819,1.829-1.829v-.622c0-4.04,3.275-7.316,7.316-7.316h2.983c1.01,0,1.829-.819,1.829-1.829v-3.444Z" fill="#ef4452"/><path d="m26.778,14.381v-5.718c0-.648.525-1.172,1.172-1.172h.698c4.334,0,7.979,2.916,9.102,6.89h-10.972Z" fill="#4b596a"/><circle cx="8.688" cy="26.656" r="5.853" fill="#313d4c"/><circle cx="8.688" cy="26.656" r="2.341" fill="#6b7683"/></g></svg>