<?xml version="1.0" encoding="UTF-8"?><svg id="a" xmlns="http://www.w3.org/2000/svg" viewBox="0 0 40 40"><rect y="0" width="40" height="40" fill="none"/><g><path d="M34.184,14.642C34.184,6.5,27.138,.004,18.81,.918,12.441,1.618,7.298,6.806,6.64,13.179c-.407,3.939,.851,7.574,3.148,10.311,.782,.933,1.936,1.474,3.154,1.474h14.876c1.146,0,2.267-.456,3.016-1.323,2.085-2.416,3.352-5.556,3.352-8.999Z" fill="#93c9ff"/><g><line x1="20.374" y1="31.008" x2="20.374" y2="24.964" fill="none" stroke="#2f81f9" stroke-miterlimit="10" stroke-width="1.5"/><path d="M23.766,29.464c.061,4.876,1.011,7.511,1.578,8.656,.164,.331-.083,.712-.452,.712h-5.64c-.177,0-.337-.092-.429-.243-.463-.76-1.76-3.391-1.834-9.112-.004-.279,.225-.516,.504-.516h5.777c.273,0,.493,.229,.496,.502Z" fill="#2f81f9"/><line x1="20.374" y1="24.964" x2="20.374" y2=".833" fill="none" stroke="#4d9dff" stroke-miterlimit="10" stroke-width="1.5"/></g></g></svg>