<svg id="Layer_1" data-name="Layer 1" xmlns="http://www.w3.org/2000/svg" viewBox="0 0 40 40"><defs><style>.cls-1{fill:none;}.cls-2{fill:#ffd06c;}.cls-3{fill:#93c9ff;}.cls-4{fill:#c8e1ff;}</style></defs><rect class="cls-1" width="40" height="40"/><path class="cls-2" d="M22.68,5.322V3.456A2.66,2.66,0,0,0,20.546.789a2.567,2.567,0,0,0-3,2.53v2A.971.971,0,0,1,17,6.181a6.877,6.877,0,0,0-3.772,6.134h13.78a6.878,6.878,0,0,0-3.771-6.134A.972.972,0,0,1,22.68,5.322Z"/><rect class="cls-3" x="11.847" y="11.103" width="16.536" height="5.034" rx="1.092"/><path class="cls-4" d="M26.433,39.246H13.567a4,4,0,0,1-4-3.806L8.84,20.33a4,4,0,0,1,4-4.193h14.33a4,4,0,0,1,4,4.193l-.732,15.11A4,4,0,0,1,26.433,39.246Z"/></svg>