<?xml version="1.0" encoding="UTF-8"?><svg id="Layer_1" xmlns="http://www.w3.org/2000/svg" viewBox="0 0 40 40"><rect width="40" height="40" fill="none"/><g><g><circle cx="20" cy="18.448" r="17.5" fill="#ebebeb"/><circle cx="20" cy="18.448" r="13.018" fill="#f3f3f3"/></g><g><path d="m27.854,11.44l-1.375,13.908h-2.287s-1.239-7.584-1.239-7.584c-.311-2.96,1.379-5.768,4.14-6.879h0c.381-.153.79.145.761.555Z" fill="#b7b7b7"/><path d="m24.192,25.348l-.923,12.246c-.019.8.624,1.458,1.424,1.458h1.281c.8,0,1.443-.658,1.424-1.458l-.92-12.246h-2.287Z" fill="#767676"/></g><g><path d="m14.932,25.348l-.923,12.246c-.019.8.624,1.458,1.424,1.458h1.281c.8,0,1.443-.658,1.424-1.458l-.92-12.246h-2.287Z" fill="#767676"/><path d="m17.176,24.742c.006-.862.68-1.103.68-1.103l-.004-.004c.028-.014.058-.021.087-.035l1.686-.598c.921-.471,1.482-1.642,1.363-2.848l-1.189-8.631c-.054-.389-.386-.678-.778-.678h0c-.438,0-.791.358-.786.796l.093,7.441c0,.277-.135.525-.345.632-.14.072-.299.072-.439,0-.209-.107-.345-.355-.345-.632l-.127-7.465c-.007-.429-.357-.772-.786-.772h-.425c-.429,0-.778.344-.786.772l-.127,7.465c0,.277-.135.525-.346.632-.139.072-.299.072-.439,0-.209-.107-.345-.355-.345-.632l.094-7.441c.006-.438-.348-.796-.786-.796-.393,0-.725.29-.778.678l-1.189,8.631c-.119,1.205.442,2.376,1.363,2.848l1.686.598c.027.014.056.021.084.034l-.005.005s.705.247.684,1.151l-.039.558h2.287l-.043-.606Z" fill="#b7b7b7"/></g></g></svg>