<svg id="Layer_1" data-name="Layer 1" xmlns="http://www.w3.org/2000/svg" viewBox="0 0 40 40"><defs><style>.cls-1{fill:#333;}.cls-2{fill:#ff440a;}.cls-3{fill:#ffcba7;}.cls-4{fill:#898989;}.cls-5{fill:none;}</style></defs><path class="cls-1" d="M18.92,3.333l-4.48,2.36a.927.927,0,0,0-.17,1.526l2.263,1.328,6.185-3.941Z"/><ellipse class="cls-2" cx="19.872" cy="28.185" rx="6.112" ry="19.56" transform="translate(-14.139 33.885) rotate(-64.327)"/><circle class="cls-3" cx="33.968" cy="15.679" r="2.387"/><ellipse class="cls-3" cx="6.855" cy="8.547" rx="2.006" ry="2.637" transform="translate(-3.706 5.628) rotate(-35.819)"/><rect class="cls-3" x="8.741" y="5.997" width="3.747" height="6.336" transform="translate(1.349 19.692) rotate(-89.452)"/><path class="cls-3" d="M32.28,16.315a8.909,8.909,0,0,0-5.092-4.061l1.349-3.5a12.615,12.615,0,0,1,7.082,5.857Z"/><path class="cls-3" d="M22.864,20.786,22.35,24.47a3.284,3.284,0,0,0,1.05,2.892l.439.4a.552.552,0,0,1,.137.629L23,30.645a1.7,1.7,0,0,0,.884,2.233h0a1.7,1.7,0,0,0,2.157-.719l2.083-3.66a1.622,1.622,0,0,0-.238-1.926l-.9-.939a1.1,1.1,0,0,1-.272-1.021l.863-3.488Z"/><path class="cls-3" d="M17.443,14.909l-1.926.621a3.555,3.555,0,0,0-2.387,4.119l.916,4.34-.846.46a2.009,2.009,0,0,0-.886,2.557l.177.413a.875.875,0,0,0,1.2.434l4.264-2.177a.661.661,0,0,0,.343-.739L17.188,20.2a.465.465,0,0,1,.269-.534l1.618-.7.26-3.325Z"/><path class="cls-4" d="M13.783,7.317S23.6,6.765,28.532,8.771L27.209,12.3H25.834l1.539,1.673a4.3,4.3,0,0,1,1.007,3.951l-.8,3.2-4.718-.339.121-2.654a.456.456,0,0,0-.621-.445l-3.289,1.28a5.91,5.91,0,0,0-2.32-3.87l1.708-.541A.69.69,0,0,0,18.8,13.48l-1.256-1.651a1.756,1.756,0,0,0-1.351-.691l-2.414-.062Z"/><circle class="cls-3" cx="20.749" cy="6.607" r="3.75"/><path class="cls-1" d="M24.5,6.607a3.749,3.749,0,0,0-3.75-3.749,3.873,3.873,0,0,0-3.892,3.749l4.274-2.119a.451.451,0,0,1,.469.035Z"/><ellipse cx="20.512" cy="6.87" rx="0.359" ry="0.54"/><ellipse cx="21.94" cy="6.87" rx="0.359" ry="0.54"/><rect class="cls-5" width="40" height="40"/></svg>