<?xml version="1.0" encoding="UTF-8"?><svg id="Layer_1" xmlns="http://www.w3.org/2000/svg" viewBox="0 0 40 40"><g><path d="m13.151,24.437c-.011,0-.021,0-.033,0-.73-.018-1.307-.623-1.29-1.354.327-13.431,9.769-18.189,10.17-18.386.467-.229,1.027-.159,1.428.174.4.335.566.873.424,1.375-2.31,8.159,4.409,14.963,4.477,15.03.518.515.52,1.353.005,1.87-.515.518-1.353.52-1.87.005-.286-.284-6.243-6.32-5.716-14.388-2.507,2.17-6.085,6.613-6.274,14.384-.018.719-.606,1.29-1.321,1.29Z" fill="#037f56"/><circle cx="11.455" cy="27.765" r="9.348" fill="#f56570"/><circle cx="27.395" cy="27.765" r="9.348" fill="#ef4452"/><rect x="15.109" y="4.064" width="12.926" height="3.106" rx="1.553" ry="1.553" transform="translate(1.977 -5.01) rotate(13.876)" fill="#037f56"/></g><rect x="-.575" width="40" height="40" fill="none"/></svg>