<?xml version="1.0" encoding="UTF-8"?><svg id="Layer_1" xmlns="http://www.w3.org/2000/svg" viewBox="0 0 40 40"><circle cx="20" cy="20" r="17.5" fill="#2f81f9"/><rect width="40" height="40" fill="none"/><g><path d="m9.896,9.43c1.227.799,2.038,1.907,2.023,3.372-.01,1.066.473,1.823,1.09,2.522.48.544.935,1.097,1.343,1.694.251.367.298.782.315,1.213.034.867.556,1.361,1.434,1.382.225.005.451.003.676.002q1.035-.003.589-.864c-.418-.808-.001-2.55.776-3.027.588-.361,1.272-.107,1.911-.165.746-.067,1.262.197,1.431.99.04.187.2.402.434.308.232-.093.591-.052.634-.428.026-.223.044-.45.034-.674-.03-.665.16-1.224.69-1.659.421-.345.637-.772.694-1.35.069-.699.589-1.163,1.25-1.321.462-.11.703-.314.796-.751.091-.432.361-.637.804-.621.125.005.252.002.375-.015.325-.046.673-.071.662-.537-.011-.466-.373-.519-.688-.502-.835.047-1.515-.198-2.047-.863-.172-.215-.241-.34-.102-.64.394-.852.143-1.194-.803-1.217-.175-.004-.352-.016-.525,0-.26.023-.6-.15-.757.147-.168.316-.03.666.204.897.342.337.39.602-.016.91-.362.275-.226.69-.24,1.051-.017.459-.071.866-.646.917-.49.043-.92-.029-1.003-.629-.057-.411-.358-.52-.691-.564-.271-.036-.55-.021-.825-.024-.588-.006-1.189.053-1.178-.841.01-.845.578-.796,1.141-.802.225-.002.452.011.675-.013.446-.049.829-.176.891-.724.052-.462.365-.63.798-.595.424.035.594-.149.565-.569-.04-.582.286-.736.824-.812,1.845-.263,3.234.6,4.458,1.789.83.805,1.751,1.473,2.739,2.032.825.467,1.772.239,2.676.192-1.964-2.299-4.512-4.084-7.416-5.122-1.736.31-3.49.148-5.232.117-.78-.014-1.335.296-1.703.803-.285.394-.74.725-.796,1.303-.046.476-.446.521-.852.522-.415.001-.781-.073-.837-.546-.071-.596-.433-.71-.942-.698-.674.016-1.35.013-2.024-.004-.555-.013-1.018-.172-1.154-.759-2.192,1.067-4.125,2.579-5.687,4.417-.007.03-.019.057-.024.089,1.123.037,2.254.015,3.256.667Z" fill="#7bd58f"/><path d="m30.721,25.217c-.631-.064-1.317-.753-1.362-1.369-.123-1.658-1.212-2.684-2.851-2.686-1.002,0-2.056-.199-2.994.045-1.545.401-1.504-1.384-2.539-1.6-.176-.037-.318-.233-.347-.456-.016-.122-.027-.262-.093-.356-.211-.3-.51-.462-.828-.202-.41.336-.378.966-.8,1.32-.064.053.051.178.147.219.875.373,1.271,1.395,2.295,1.625.35.079.712.431,1.081.638.246.138.317.296.093.529-.919.953-1.122,2.113-.999,3.384.067.689.586,1.266,1.296,1.328.631.055,1.391.739,1.401,1.327.022,1.202.001,2.404.003,3.607,0,.404-.161.671-.575.755-.327.067-.658.128-.624.586.036.471.449.444.728.488.999.16,1.759-.433,2.441-1,1.713-1.425,3.255-3.039,4.79-4.651.534-.561,1.062-1.205,1.078-2.072.018-.772-.536-1.378-1.34-1.46Z" fill="#7bd58f"/></g></svg>