<?xml version="1.0" encoding="UTF-8"?><svg id="Layer_1" xmlns="http://www.w3.org/2000/svg" viewBox="0 0 40 40"><rect x="0" y="0" width="40" height="40" transform="translate(40 40) rotate(-180)" style="fill:none;"/><g><rect x="19.0498" y="17.96387" width="1.90039" height="19.24512" style="fill:#0a9f60;"/><g><path d="M19.9647,1c-2.23574,1.03482-3.79011,3.29201-3.79011,5.91754s1.55437,4.88272,3.79011,5.91763c2.23569-1.03491,3.79011-3.2921,3.79011-5.91763s-1.55441-4.88272-3.79011-5.91754Z" style="fill:#ffda16;"/><path d="M6.31622,8.92071c-.22169,2.45362,.95591,4.92833,3.22969,6.2411s5.00574,1.09524,7.01988-.32351c.22159-2.45363-.95598-4.92838-3.22977-6.24115-2.27378-1.31277-5.00577-1.0952-7.0198,.32356Z" style="fill:#ffda16;"/><path d="M6.35153,24.701c2.01405,1.4188,4.74602,1.63633,7.0198,.32356,2.27378-1.31277,3.45137-3.78748,3.22977-6.24115-2.01411-1.41871-4.74609-1.63628-7.01988-.32351-2.27378,1.31277-3.45135,3.78752-3.22969,6.2411Z" style="fill:#ffda16;"/><path d="M20.0353,32.56057c2.23574-1.03482,3.79011-3.29201,3.79011-5.91754,0-2.62554-1.55437-4.88272-3.79011-5.91763-2.23569,1.03491-3.79011,3.2921-3.79011,5.91763,0,2.62554,1.55441,4.88272,3.79011,5.91754Z" style="fill:#ffda16;"/><path d="M33.68378,24.63985c.22169-2.45362-.95591-4.92833-3.22969-6.2411s-5.00574-1.09524-7.01988,.32351c-.22159,2.45363,.95598,4.92838,3.22977,6.24115,2.27378,1.31277,5.00577,1.0952,7.0198-.32356Z" style="fill:#ffda16;"/><path d="M33.64847,8.85957c-2.01405-1.4188-4.74602-1.63633-7.0198-.32356-2.27378,1.31277-3.45137,3.78748-3.22977,6.24115,2.01411,1.41871,4.74609,1.63628,7.01988,.32351,2.27378-1.31277,3.45135-3.78752,3.22969-6.2411Z" style="fill:#ffda16;"/><path d="M12.07929,3.13181c-1.4188,2.01405-1.63633,4.74602-.32356,7.0198,1.31277,2.27378,3.78748,3.45137,6.24115,3.22977,1.41871-2.01411,1.63628-4.74609,.32351-7.01988-1.31277-2.27378-3.78752-3.45135-6.2411-3.22969Z" style="fill:#ffe63b;"/><path d="M12.14043,30.46406c2.45362,.22169,4.92833-.95591,6.2411-3.22969,1.31277-2.27378,1.09524-5.00574-.32351-7.01988-2.45363-.22159-4.92838,.95598-6.24115,3.22977-1.31277,2.27378-1.0952,5.00577,.32356,7.0198Z" style="fill:#ffe63b;"/><path d="M27.92071,30.42876c1.4188-2.01405,1.63633-4.74602,.32356-7.0198-1.31277-2.27378-3.78748-3.45137-6.24115-3.22977-1.41871,2.01411-1.63628,4.74609-.32351,7.01988,1.31277,2.27378,3.78752,3.45135,6.2411,3.22969Z" style="fill:#ffe63b;"/><path d="M35.78028,16.74498c-1.03482-2.23574-3.29201-3.79011-5.91754-3.79011s-4.88272,1.55437-5.91763,3.79011c1.03491,2.23569,3.2921,3.79011,5.91763,3.79011,2.62554,0,4.88272-1.55441,5.91754-3.79011Z" style="fill:#ffe63b;"/><path d="M4.21972,16.81559c1.03482,2.23574,3.29201,3.79011,5.91754,3.79011,2.62554,0,4.88272-1.55437,5.91763-3.79011-1.03491-2.23569-3.2921-3.79011-5.91763-3.79011s-4.88272,1.55441-5.91754,3.79011Z" style="fill:#ffe63b;"/><path d="M27.85957,3.09651c-2.45362-.22169-4.92833,.95591-6.2411,3.22969-1.31277,2.27378-1.09524,5.00574,.32351,7.01988,2.45363,.22159,4.92838-.95598,6.24115-3.22977s1.0952-5.00577-.32356-7.0198Z" style="fill:#ffe63b;"/><circle cx="20" cy="16.78028" r="8.82166" style="fill:#6e4944;"/></g><g><path d="M32.23736,33.93006c-1.56552-1.56267-4.24392-2.22307-6.95868-1.49566s-4.70413,2.63852-5.27868,4.77462c1.5656,1.56261,4.24402,2.22304,6.95877,1.49564,2.71476-.72741,4.70412-2.63856,5.27859-4.77459Z" style="fill:#68c76f;"/><path d="M7.76264,33.93006c1.56552-1.56267,4.24392-2.22307,6.95868-1.49566,2.71476,.72741,4.70413,2.63852,5.27868,4.77462-1.5656,1.56261-4.24402,2.22304-6.95877,1.49564-2.71476-.72741-4.70412-2.63856-5.27859-4.77459Z" style="fill:#68c76f;"/></g></g></svg>