<?xml version="1.0" encoding="UTF-8"?><svg id="Layer_1" xmlns="http://www.w3.org/2000/svg" viewBox="0 0 40 40"><g><path d="M28.5,3.5H11.5C7.08173,3.5,3.5,7.08179,3.5,11.5v5.28711H12.83344v-4.01025c0-.56592,.43774-1.02466,.97766-1.02466h5.17218c.53992,0,.97766,.45874,.97766,1.02466v10.30078h2.9632v-2.35767c0-.75708,.58551-1.37061,1.30774-1.37061h6.91852c.72229,0,1.3078,.61353,1.3078,1.37061v6.27246h4.04181V11.5c0-4.41821-3.58173-8-8-8Z" style="fill:#90c6fd;"/><path d="M15.09448,18.00464v6.02661c0-.52686,.31323-.95361,.69971-.95361h4.16675V12.77686c0-.56592-.43774-1.02466-.97766-1.02466h-5.17218c-.53992,0-.97766,.45874-.97766,1.02466v4.01025h1.36774c.49335,0,.89331,.54517,.89331,1.21753Z" style="fill:#64a7ff;"/><g><rect x="5.82776" y="20.48218" width="1.82214" height="1.82617" style="fill:#fffd67;"/><rect x="5.82776" y="24.2876" width="1.82214" height="1.82666" style="fill:#fffd67;"/><rect x="9.87891" y="20.48218" width="1.82214" height="1.82617" style="fill:#fffd67;"/><rect x="9.87891" y="24.2876" width="1.82214" height="1.82666" style="fill:#fffd67;"/><rect x="9.87891" y="28.09351" width="1.82214" height="1.82617" style="fill:#fffd67;"/></g><path d="M30.5791,36.21729v-8.27832c0-.52295,.31091-.94653,.69446-.94653h1.18463v-6.27246c0-.75708-.58551-1.37061-1.3078-1.37061h-6.91852c-.72223,0-1.30774,.61353-1.30774,1.37061v2.35767h1.38727c.38647,0,.69971,.42676,.69971,.95361v12.46875h3.48889c.32953,0,.65265-.02563,.9715-.0647,.08386-.0105,.16589-.02515,.24896-.03809,.2511-.03882,.4989-.08765,.74164-.14966,.06604-.01685,.13214-.03247,.19745-.05078,.05548-.01562,.1076-.03882,.1626-.05566-.08136,.0249-.16058,.0542-.24304,.07617Z" style="fill:#4592fb;"/><g><path d="M15.09448,24.03125v-6.02661c0-.67236-.39996-1.21753-.89331-1.21753H3.5v11.71289c0,.27612,.01398,.54907,.04132,.81787,.08191,.80688,.28369,1.57812,.58734,2.29614,.30359,.71777,.70905,1.38208,1.19812,1.97485,.48914,.59253,1.06189,1.11353,1.70032,1.54492,1.27679,.86255,2.81604,1.36621,4.4729,1.36621h3.59448v-12.46875Zm-7.44458,2.08301h-1.82214v-1.82666h1.82214v1.82666Zm0-3.80591h-1.82214v-1.82617h1.82214v1.82617Zm4.05115,7.61133h-1.82214v-1.82617h1.82214v1.82617Zm0-3.80542h-1.82214v-1.82666h1.82214v1.82666Zm0-3.80591h-1.82214v-1.82617h1.82214v1.82617Z" style="fill:#104be0;"/><path d="M31.27356,26.99243c-.38354,0-.69446,.42358-.69446,.94653v8.27832c.08246-.02197,.16168-.05127,.24304-.07617,.12793-.03882,.25702-.07495,.38214-.11987l.00684-.00244c.05548-.02002,.10834-.04517,.16333-.06641,.10419-.04028,.20782-.08179,.30988-.12598,.24866-.10815,.49231-.22534,.72711-.35718,.01599-.00879,.03088-.01953,.04675-.02832,.51434-.29346,.99261-.64185,1.42743-1.0376,.03284-.02979,.06616-.05908,.09845-.08936,.12225-.11499,.23981-.23486,.35461-.35718,.04651-.04956,.09186-.1001,.13715-.15088,.10352-.11621,.20483-.23438,.30151-.35645,.05133-.0647,.09924-.13232,.14862-.19873,.08722-.11743,.17493-.23462,.25574-.35669,.05957-.09033,.11255-.18481,.16846-.27734,.10626-.17578,.20563-.35596,.29834-.54004,.06409-.12744,.12842-.25464,.18579-.38574,.04095-.09399,.07623-.19067,.11365-.28638,.05188-.13257,.10205-.26562,.14691-.40137,.03156-.09546,.05994-.19238,.08795-.28955,.04126-.14282,.07819-.28735,.11151-.43359,.02142-.09399,.0426-.18774,.06073-.28296,.03088-.16284,.05457-.32788,.07544-.49414,.01019-.08154,.02344-.16211,.03119-.24438,.02356-.25,.03833-.50244,.03833-.75854v-1.50757h-5.22644Z" style="fill:#104be0;"/></g><path d="M24.3114,23.07764H15.79419c-.38647,0-.69971,.42676-.69971,.95361v12.46875h9.91663v-12.46875c0-.52686-.31323-.95361-.69971-.95361Zm-5.13159,7.30591h-1.42731v-1.43091h1.42731v1.43091Zm0-2.9812h-1.42731v-1.43042h1.42731v1.43042Zm3.17328,2.9812h-1.42731v-1.43091h1.42731v1.43091Zm0-2.9812h-1.42731v-1.43042h1.42731v1.43042Z" style="fill:#1e6ef4;"/><g><rect x="17.7525" y="25.97192" width="1.42731" height="1.43042" style="fill:#fffd67;"/><rect x="17.7525" y="28.95264" width="1.42731" height="1.43091" style="fill:#fffd67;"/><rect x="20.92578" y="25.97192" width="1.42731" height="1.43042" style="fill:#fffd67;"/><rect x="20.92578" y="28.95264" width="1.42731" height="1.43091" style="fill:#fffd67;"/></g></g><rect x="3.5" y="3.5" width="32.92743" height="33" rx="8" ry="8" style="fill:none;"/></svg>