<?xml version="1.0" encoding="UTF-8"?><svg id="Layer_1" xmlns="http://www.w3.org/2000/svg" viewBox="0 0 40 40"><g><g><path d="m16.216,11.718h.491v-1.999c0-.648.525-1.173,1.173-1.173s1.173.525,1.173,1.173v1.999h1.965v-1.999c0-.648.525-1.173,1.173-1.173s1.173.525,1.173,1.173v1.999h3.394v-3.717s-.008,0-.012,0h-13.497s-.008,0-.012,0v3.717h2.976Z" fill="#ccc"/><polygon points="15.858 15.423 10.598 15.423 10.598 18.581 15.963 15.423 15.858 15.423" fill="#ccc"/><polygon points="29.402 18.581 29.402 15.423 24.287 15.423 29.402 18.581" fill="#ccc"/><path d="m15.029,23.45H6.438v3.806h5.628v-1.999c0-.648.525-1.173,1.173-1.173h0c.648,0,1.173.525,1.173,1.173v1.999h4.641v-1.999c0-.648.525-1.173,1.173-1.173s1.173.525,1.173,1.173v1.999h4.185v-1.999c0-.648.525-1.173,1.173-1.173s1.173.525,1.173,1.173v1.999h5.628v-3.806H15.029Z" fill="#ccc"/></g><g><path d="m37.4,22.12c-1.11.06-4.36-.06-5.68-3.54h-2.32l-5.11-3.16h6.47c.5,0,.99-.12,1.43-.34l1.01-.53c.07-.03.04-.14-.04-.14-.91.04-3.27-.12-4.24-2.69H11.08c-.97,2.57-3.33,2.73-4.24,2.69-.08,0-.11.11-.04.14l1.01.53c.44.22.93.34,1.43.34h6.72l-5.36,3.16h-2.32c-1.32,3.48-4.57,3.6-5.68,3.54-.08-.01-.11.1-.04.14l1.64.84c.44.23.93.35,1.42.35h28.76c.49,0,.98-.12,1.42-.35l1.64-.84c.07-.04.04-.15-.04-.14Zm-14.01-3.18h-6.75c-.2,0-.29-.21-.2-.36.02-.03.03-.05.06-.08l3.46-2.42c.08-.06.19-.05.28.01l3.29,2.42c.03.02.04.05.06.07.09.15,0,.36-.2.36Z" fill="#1f494d"/><path d="m20,8.001h6.748s.008,0,.012,0c.637-.002,1.257-.2,1.777-.568l.965-.683c.06-.043.027-.139-.047-.133-.845.067-3.318-.063-4.317-3.681h-10.275c-.999,3.617-3.472,3.748-4.317,3.681-.074-.006-.107.09-.047.133l.965.683c.52.368,1.14.566,1.777.568.004,0,.008,0,.012,0h6.748Z" fill="#1f494d"/></g><path d="m20.238,16.086c-.083-.061-.196-.062-.281-.003l-3.458,2.421c-.03.021-.04.05-.057.077-.092.149-.004.362.195.362h6.754c.199,0,.287-.212.195-.362-.016-.025-.025-.053-.052-.073l-3.297-2.421Z" fill="#ccc"/><g><path d="m34.84,37.06H5.16c-.69,0-1.2-.65-1.02-1.32l2.3-8.48h5.63v-2c0-.65.52-1.18,1.17-1.18s1.17.53,1.17,1.18v2h4.64v-2c0-.65.53-1.18,1.18-1.18s1.17.53,1.17,1.18v2h4.19v-2c0-.65.52-1.18,1.17-1.18s1.17.53,1.17,1.18v2h5.63l2.3,8.48c.18.67-.33,1.32-1.02,1.32Z" fill="#6e6e6e"/><g><path d="m17.881,8.545c-.648,0-1.173.525-1.173,1.173v1.999h2.347v-1.999c0-.648-.525-1.173-1.173-1.173Z" fill="#6e6e6e"/><path d="m22.192,8.545c-.648,0-1.173.525-1.173,1.173v1.999h2.347v-1.999c0-.648-.525-1.173-1.173-1.173Z" fill="#6e6e6e"/></g></g></g><rect x="0" y="0" width="40" height="40" transform="translate(40 40) rotate(-180)" fill="none"/></svg>