<?xml version="1.0" encoding="UTF-8"?><svg id="Layer_1" xmlns="http://www.w3.org/2000/svg" viewBox="0 0 40 40"><rect y="0" width="40" height="40" style="fill:none;"/><rect x="3.5" y="3.5" width="33" height="33" rx="8" ry="8" style="fill:#2e3d51;"/><path d="M16.05393,13.72603l3.06474,2.93209c.24664,.23532,.5933,.33493,.92742,.26578l4.15236-.86178c.38779-.08384,.78909,.06162,1.03388,.37381,.24464,.31178,.28984,.73628,.11672,1.09331l-1.84109,3.81984c-.14863,.30721-.13572,.66788,.03388,.96482l2.10289,3.68283c.1959,.34217,.1803,.76694-.04039,1.09366-.22119,.32752-.60885,.50095-.9998,.44743l-4.20248-.56978c-.33901-.04681-.67943,.0771-.90958,.33106l-2.85304,3.13778c-.26508,.29229-.67353,.40863-1.05294,.2997-.37963-.10822-.66461-.42359-.73448-.81162l-.75582-4.17313c-.06095-.33648-.28344-.62088-.59477-.76067l-3.86625-1.74253c-.35985-.16242-.59664-.51484-.61029-.90929-.01371-.39458,.19765-.76241,.54554-.94946l3.73484-2.00893c.3004-.1618,.50218-.46025,.53965-.7996l.46181-4.21939c.04327-.39206,.30561-.72535,.67623-.86024s.78581-.04821,1.07097,.22431Z" style="fill:#ffcd00;"/><path d="M20.68702,14.09274c.41506-.41004,3.57189-5.04342,3.57189-5.04342,0,0-4.64173,3.13032-5.05679,3.54036s-.41912,1.07892-.00908,1.49398,1.07892,.41912,1.49398,.00908Z" style="fill:#ffcd00;"/><path d="M28.0196,23.36358c.41506-.41004,3.57189-5.04342,3.57189-5.04342,0,0-4.64173,3.13032-5.05679,3.54036-.41506,.41004-.41912,1.07892-.00908,1.49398s1.07892,.41912,1.49398,.00908Z" style="fill:#ffcd00;"/><path d="M26.34338,12.4424c.38747-.38279,3.3345-4.70822,3.3345-4.70822,0,0-4.33324,2.92227-4.72071,3.30506s-.39127,1.00721-.00847,1.39469,1.00721,.39127,1.39469,.00847Z" style="fill:#ff9000;"/><path d="M27.67788,17.78136c.29884-.29523,2.57176-3.63126,2.57176-3.63126,0,0-3.34205,2.25383-3.64089,2.54906s-.30177,.77682-.00654,1.07566,.77682,.30177,1.07566,.00654Z" style="fill:#ff9000;"/></svg>