<?xml version="1.0" encoding="UTF-8"?><svg id="Layer_1" xmlns="http://www.w3.org/2000/svg" viewBox="0 0 40 40"><g><path d="M3.56379,21.56548v5.14834c0,2.80115,1.59927,5.35645,4.11869,6.58078l2.09665,1.01889c3.333,1.61971,7.27503,1.34993,10.3563-.70873l13.97275-9.33551c2.3432-1.56555,3.75012-4.19758,3.75012-7.01566v-5.34535L3.56379,21.56548Z" style="fill:#dfe3e8;"/><path d="M3.28887,22.62772l8.60989,4.02721c1.63591,.76518,3.54792,.65053,5.08067-.30465,6.19271-5.01472,12.90934-9.1203,20.04792-12.49363,2.3605-1.47104,1.97595-3.67099-.38399-5.4187l-7.23926-4.06384c-1.9206-.88643-4.09686-1.05146-6.12595-.45373-4.76077,1.40244-13.6248,5.08711-20.93191,14.22099-.04509,.05073-.088,.10162-.12879,.15262-1.14151,1.42689-.58376,3.55952,1.07143,4.33372Z" style="fill:#fa5f3c;"/><path d="M21.62421,21.3882c0-1.92916-1.05575-3.76612-2.25069-5.28066l-6.73122-7.27366c-.66875,.43072-1.34488,.89315-2.02522,1.38897l6.19081,6.46671c1.41449,1.48375,2.29555,3.41967,2.37479,5.46808,.00429,.11038,.00642,.22103,.00642,.33184v2.12805c.34702-.26391,.69602-.52441,1.04609-.78302,.36473-.2847,.66548-.50573,1.38902-1.02583v-1.42048Z" style="fill:#faa594;"/><path d="M28.70812,10.62854l-6.00505-6.5329c-.75597,.23622-1.59626,.52468-2.50608,.87829l5.9455,6.23663c1.41449,1.48375,2.29555,3.41967,2.37479,5.46808,.00429,.11038,.00642,.22103,.00642,.33184v1.34634c.80526-.47511,1.61694-.93905,2.43511-1.39177v-1.05585c0-1.92916-1.05575-3.76612-2.25069-5.28066Z" style="fill:#faa594;"/><path d="M3.42215,16.85263c.96281,1.17663,3.24578,4.23995,4.10088,7.75558l3.07785,1.43966c-.77611-2.47752-2.57777-7.3203-5.67351-10.84981-.50645,.52837-1.00851,1.07998-1.50522,1.65457Z" style="fill:#faa594;"/></g><rect width="40" height="40" style="fill:none;"/></svg>