<svg id="Layer_1" data-name="Layer 1" xmlns="http://www.w3.org/2000/svg" viewBox="0 0 40 40"><defs><style>.cls-1{fill:#8b3900;}.cls-2{fill:#632800;}.cls-3{fill:#d12030;}.cls-4{fill:#d5d5d5;}.cls-5{fill:none;}</style></defs><rect class="cls-1" x="14.171" y="4.713" width="21.108" height="21.125" rx="1.585" transform="translate(31.406 43.56) rotate(-135)"/><path class="cls-2" d="M17.08,11.07l-3.921,3.921a.494.494,0,0,0,0,.7l3.981,3.98a.347.347,0,0,1,.1.239l.016,2.034a.333.333,0,0,1-.568.235l-5.77-5.769a1.593,1.593,0,0,1,0-2.251l5.714-5.714a.366.366,0,0,1,.624.258v1.947A.6.6,0,0,1,17.08,11.07Z"/><path class="cls-2" d="M24.719,27.412v2.136a1.586,1.586,0,0,1-1.126-.466l-5.746-5.746a.836.836,0,0,1,0-1.183L24.1,15.905a.366.366,0,0,1,.624.258V18.1a.7.7,0,0,1-.206.5l-3.89,3.89a.47.47,0,0,0,0,.665L24.6,27.131A.4.4,0,0,1,24.719,27.412Z"/><path class="cls-2" d="M24.719,1.015V3.051a.917.917,0,0,1-.269.649L20.623,7.527a.47.47,0,0,0,0,.665l3.827,3.827a.917.917,0,0,1,.269.648v1.806a.335.335,0,0,1-.572.237L17.868,8.431a.867.867,0,0,1,0-1.225l5.725-5.725A1.586,1.586,0,0,1,24.719,1.015Z"/><path class="cls-2" d="M32.194,8.688v1.848a.921.921,0,0,1-.269.648l-3.81,3.81a.47.47,0,0,0,0,.665l3.81,3.811a.917.917,0,0,1,.269.648v1.806a.335.335,0,0,1-.572.237l-6.279-6.279a.867.867,0,0,1,0-1.225L31.57,8.43A.366.366,0,0,1,32.194,8.688Z"/><path class="cls-3" d="M4.952,17.74h17.6a1.754,1.754,0,0,1,1.754,1.754V34.756a0,0,0,0,1,0,0H3.2a0,0,0,0,1,0,0V19.495A1.754,1.754,0,0,1,4.952,17.74Z" transform="translate(4.916 54.532) rotate(-135)"/><polygon class="cls-4" points="23.814 31.111 20.599 23.738 11.874 20.029 10.031 15.043 12.305 12.769 27.231 27.695 23.814 31.111"/><rect class="cls-5" width="40" height="40"/></svg>