<?xml version="1.0" encoding="UTF-8"?><svg id="Layer_1" xmlns="http://www.w3.org/2000/svg" viewBox="0 0 40 40"><rect x="0" width="40" height="40" fill="none"/><g><path d="m31.9,11.022v-6.482c0-.575-.466-1.041-1.041-1.041h-3.727c-.575,0-1.041.466-1.041,1.041v1.023c0,3.336-2.57,6.244-5.904,6.345-3.45.104-6.279-2.662-6.279-6.089v-1.278c0-.575-.466-1.041-1.041-1.041h-3.727c-.575,0-1.041.466-1.041,1.041v6.482c0,2.103-.533,3.957-1.343,5.051-1.031,1.393-1.703,3.016-1.703,4.749v13.596c0,1.15.932,2.081,2.081,2.081h25.729c1.15,0,2.081-.932,2.081-2.081v-13.596c0-1.733-.672-3.356-1.703-4.749-.81-1.095-1.343-2.949-1.343-5.051Z" fill="#93c9ff"/><path d="m31.9,10.974v-6.434c0-.575-.466-1.041-1.041-1.041h-1.856c-1.938,17.525-11.936,30.919-23.949,30.919h0c0,1.149.932,2.081,2.081,2.081h6.824c8.364-4.009,15.02-13.497,17.941-25.526Z" fill="#4d9dff"/></g></svg>