<?xml version="1.0" encoding="UTF-8"?><svg id="Layer_1" xmlns="http://www.w3.org/2000/svg" viewBox="0 0 40 40"><rect x="0" y="0" width="40" height="40" transform="translate(40 40) rotate(-180)" fill="none"/><g><path d="m29.449,3.104l-1.72,17.396h-2.861s-1.55-9.486-1.55-9.486c-.389-3.703,1.725-7.214,5.179-8.604h0c.476-.192.989.182.952.694Z" fill="#d5d5d5"/><path d="m13.286,20.5l-1.154,15.317c-.023,1,.781,1.824,1.782,1.824h1.602c1.001,0,1.805-.823,1.782-1.824l-1.151-15.317h-2.861Z" fill="#767676"/><path d="m24.869,20.5l-1.154,15.317c-.023,1,.781,1.824,1.782,1.824h1.602c1.001,0,1.805-.823,1.782-1.824l-1.151-15.317h-2.861Z" fill="#767676"/><path d="m16.093,19.742c.008-1.078.851-1.38.851-1.38l-.005-.005c.035-.017.073-.026.108-.044l2.108-.748c1.153-.589,1.854-2.054,1.705-3.562l-1.487-10.795c-.067-.486-.483-.849-.974-.849h0c-.548,0-.99.448-.983.995l.116,9.307c0,.346-.169.657-.432.791-.175.09-.375.09-.549,0-.262-.134-.432-.444-.432-.791l-.158-9.336c-.009-.536-.446-.966-.983-.966h-.532c-.536,0-.974.43-.983.966l-.158,9.336c0,.346-.169.657-.433.791-.173.09-.374.09-.549,0-.262-.134-.432-.444-.432-.791l.117-9.307c.007-.548-.435-.995-.983-.995-.491,0-.907.362-.974.849l-1.487,10.795c-.149,1.508.553,2.972,1.705,3.562l2.108.748c.034.017.07.026.105.042l-.006.006s.882.309.855,1.44l-.049.698h2.861l-.053-.758Z" fill="#d5d5d5"/></g></svg>