<svg id="Layer_1" data-name="Layer 1" xmlns="http://www.w3.org/2000/svg" viewBox="0 0 40 40"><defs><style>.cls-1,.cls-5{fill:none;}.cls-2{fill:#d0d5da;}.cls-3{fill:#6b7683;}.cls-4{fill:#2f81f9;fill-rule:evenodd;}.cls-5{stroke:#93c9ff;stroke-miterlimit:10;stroke-width:4px;}.cls-6{fill:#fff;}</style></defs><rect class="cls-1" width="40" height="40"/><path class="cls-2" d="M8,35.208H32a2.021,2.021,0,0,0,2.021-2.021V17.019H5.98V33.187A2.021,2.021,0,0,0,8,35.208Z"/><path class="cls-2" d="M25.316,17.019H14.684V35.208H25.316Z"/><path class="cls-3" d="M18.392,29.39h3.216a1.3,1.3,0,0,1,1.3,1.3v4.517a0,0,0,0,1,0,0H17.091a0,0,0,0,1,0,0V30.691a1.3,1.3,0,0,1,1.3-1.3Z"/><path class="cls-4" d="M34.3,4.792H5.939A1.939,1.939,0,0,0,4,6.731V17.4a1.939,1.939,0,0,0,1.939,1.939H34.061A1.939,1.939,0,0,0,36,17.4V6.489A1.7,1.7,0,0,0,34.3,4.792Z"/><line class="cls-5" x1="14.5" y1="12.064" x2="4" y2="12.064"/><line class="cls-5" x1="36" y1="12.064" x2="25.5" y2="12.064"/><path class="cls-6" d="M18,15.064h4a1,1,0,0,0,1-1v-4a1,1,0,0,0-1-1H18a1,1,0,0,0-1,1v4A1,1,0,0,0,18,15.064Z"/></svg>