<?xml version="1.0" encoding="UTF-8"?><svg id="Layer_1" xmlns="http://www.w3.org/2000/svg" viewBox="0 0 40 40"><g><rect x="14.171" y="4.713" width="21.108" height="21.125" rx="1.585" ry="1.585" transform="translate(31.406 43.56) rotate(-135)" fill="#8b3900"/><path d="m17.08,11.07l-3.921,3.921c-.192.192-.192.505,0,.697l3.981,3.981c.063.063.099.149.1.239l.016,2.034c0,.296-.358.445-.568.235l-5.769-5.769c-.622-.622-.622-1.629,0-2.251l5.714-5.714c.23-.23.624-.067.624.258v1.947c0,.158-.064.31-.176.422Z" fill="#632800"/><path d="m24.719,27.412v2.136c-.407,0-.815-.156-1.125-.466l-5.746-5.746c-.327-.327-.327-.856,0-1.182l6.248-6.248c.23-.23.624-.067.624.258v1.936c0,.186-.074.365-.206.497l-3.89,3.89c-.184.184-.184.481,0,.665l3.979,3.979c.075.075.116.176.116.281Z" fill="#632800"/><path d="m24.719,1.015v2.036c0,.243-.097.477-.269.649l-3.827,3.827c-.184.184-.184.481,0,.665l3.827,3.827c.172.172.269.405.269.649v1.806c0,.298-.361.448-.572.237l-6.279-6.279c-.338-.338-.338-.887,0-1.225l5.725-5.725c.311-.311.718-.466,1.125-.466Z" fill="#632800"/><path d="m32.194,8.688v1.847c0,.243-.097.476-.269.648l-3.81,3.81c-.184.184-.184.481,0,.665l3.81,3.81c.172.172.269.405.269.649v1.805c0,.298-.361.448-.572.237l-6.279-6.279c-.338-.338-.338-.887,0-1.225l6.227-6.227c.23-.23.623-.067.623.258Z" fill="#632800"/><path d="m4.952,17.74h17.599c.968,0,1.754.786,1.754,1.754v15.261H3.198v-15.261c0-.968.786-1.754,1.754-1.754Z" transform="translate(4.916 54.532) rotate(-135)" fill="#d12030"/><polygon points="23.814 31.111 20.599 23.738 11.874 20.029 10.031 15.043 12.305 12.769 27.231 27.695 23.814 31.111" fill="#d5d5d5"/></g><rect width="40" height="40" fill="none"/></svg>