<?xml version="1.0" encoding="UTF-8"?><svg id="Layer_1" xmlns="http://www.w3.org/2000/svg" viewBox="0 0 40 40"><rect x="0" y="0" width="40" height="40" transform="translate(40 40) rotate(-180)" style="fill:none;"/><g><path d="M10.64001,18.40991c0,.91016,.37,1.75,.95996,2.36011,.08002,.08008,.16003,.1499,.24005,.21997v9.5h-2.49005c-2.26996,0-4.09998-1.83008-4.09998-4.09985V9.3501c.23999,.09985,.51001,.15991,.79999,.15991H14.57001c-2.04999,.04004-3.71002,1.61987-3.89001,3.63013-.01001,.12988-.03998,.23975-.03998,.36987v4.8999Z" style="fill:#f77f00;"/><path d="M14.56714,9.51465c.02478-.00024,.04779-.00732,.07269-.00732h12.31262l-.00006-2.42139v-.57861c0-2.20898-1.79083-4-4-4H8.04755c-2.20911,0-4,1.79102-4,4v1.00732c0,.82031,.49475,1.52344,1.20123,1.83203,.24493,.10693,.5144,.16797,.79877,.16797H14.56714Z" style="fill:#d0d5da;"/><path d="M33.52002,19.3501h-1.17999v-3c-.24005,.09985-.51001,.15991-.80005,.15991h-12.60999c-1.14996,0-2.08002,.92993-2.08002,2.07983,0,1.77002-1.47998,3.19019-3.26996,3.1001-.67004-.03003-1.26001-.2998-1.73999-.69995v12.40015c0,2.26978,1.83997,4.09985,4.09998,4.09985h12.29999c2.27002,0,4.10004-1.83008,4.10004-4.09985v-.54004h1.17999c2.01996,0,3.65997-1.64014,3.65997-3.66016v-6.17993c0-2.02002-1.64001-3.65991-3.65997-3.65991Zm-15.32001,11.80981c0,.56006-.46002,1.02002-1.03003,1.02002-.56,0-1.01996-.45996-1.01996-1.02002v-5.86987c0-.57007,.45996-1.03003,1.01996-1.03003,.57001,0,1.03003,.45996,1.03003,1.03003v5.86987Zm4.91998,0c0,.56006-.46002,1.02002-1.02997,1.02002-.56,0-1.02002-.45996-1.02002-1.02002v-10.01001c0-.56982,.46002-1.02979,1.02002-1.02979,.56995,0,1.02997,.45996,1.02997,1.02979v10.01001Zm4.91998,0c0,.56006-.45996,1.02002-1.02997,1.02002-.56,0-1.02002-.45996-1.02002-1.02002v-10.01001c0-.56982,.46002-1.02979,1.02002-1.02979,.57001,0,1.02997,.45996,1.02997,1.02979v10.01001Zm6.67999-1.96997c0,.66016-.53998,1.2002-1.19995,1.2002h-1.17999v-8.58008h1.17999c.65997,0,1.19995,.54004,1.19995,1.19995v6.17993Z" style="fill:#fa0;"/><g><path d="M23.11719,21.15039c0-.56641-.45898-1.02539-1.0249-1.02539s-1.0249,.45898-1.0249,1.02539v10.00488c0,.56641,.45898,1.02539,1.0249,1.02539s1.0249-.45898,1.0249-1.02539v-10.00488Z" style="fill:#f77f00;"/><path d="M27.0127,20.125c-.56592,0-1.0249,.45898-1.0249,1.02539v10.00488c0,.56641,.45898,1.02539,1.0249,1.02539s1.0249-.45898,1.0249-1.02539v-10.00488c0-.56641-.45898-1.02539-1.0249-1.02539Z" style="fill:#f77f00;"/><path d="M18.19678,25.28906c0-.56641-.45898-1.02539-1.0249-1.02539s-1.0249,.45898-1.0249,1.02539v5.86621c0,.56641,.45898,1.02539,1.0249,1.02539s1.0249-.45898,1.0249-1.02539v-5.86621Z" style="fill:#f77f00;"/></g><path d="M14.63983,9.50732c-.0249,0-.04791,.00708-.07269,.00732-2.05103,.0376-3.70685,1.61792-3.89075,3.62988-.01111,.12134-.03656,.23853-.03656,.36279v4.90601c0,.90186,.36975,1.74536,.96466,2.35498,.07605,.07788,.15314,.15454,.23651,.22412,.48071,.40137,1.07397,.66357,1.73779,.69824,1.79132,.09399,3.27319-1.33081,3.27319-3.10156,0-1.14575,.92871-2.07446,2.07428-2.07446h12.61841c.28442,0,.55389-.06104,.79883-.16797,.70642-.30884,1.20117-1.01172,1.20117-1.83203v-1.00732c0-2.20898-1.79089-4-4-4H14.63983Z" style="fill:#ebebeb;"/></g></svg>