<?xml version="1.0" encoding="UTF-8"?><svg id="Layer_1" xmlns="http://www.w3.org/2000/svg" viewBox="0 0 40 40"><rect y="0" width="40" height="40" fill="none"/><path d="m16.61,33.29c.186-.711,1.675-2.485,2.422-3.343.175-.202.504-.116.558.146.231,1.113.662,3.389.476,4.101-.25.954-1.225,1.526-2.18,1.276-.954-.25-1.526-1.225-1.276-2.18Z" fill="#88c5ff"/><path d="m24.645,33.29c.186-.711,1.675-2.485,2.422-3.343.175-.202.504-.116.558.146.231,1.113.662,3.389.476,4.101-.25.954-1.225,1.526-2.18,1.276-.954-.25-1.526-1.225-1.276-2.18Z" fill="#88c5ff"/><path d="m8.575,33.29c.186-.711,1.675-2.485,2.422-3.343.175-.202.504-.116.558.146.231,1.113.662,3.389.476,4.101-.25.954-1.225,1.526-2.18,1.276-.954-.25-1.526-1.225-1.276-2.18Z" fill="#88c5ff"/><g><polygon points="30.43 27.282 9.356 27.282 9.356 16.364 30.15 17.767 30.43 27.282" fill="#e5e8eb"/><circle cx="22.733" cy="12.004" r="8.707" fill="#e5e8eb"/><circle cx="30.116" cy="19.898" r="7.384" fill="#e5e8eb"/><circle cx="9.356" cy="20.426" r="6.856" fill="#e5e8eb"/><circle cx="14.026" cy="13.266" r="5.612" fill="#e5e8eb"/></g></svg>