<?xml version="1.0" encoding="UTF-8"?><svg id="Layer_1" xmlns="http://www.w3.org/2000/svg" viewBox="0 0 40 40"><g><rect x="3.5" y="3.5" width="33" height="33" rx="8" ry="8" style="fill:#fa0;"/><circle cx="20" cy="20" r="7" style="fill:#ffcd00;"/><path d="M22.96289,21.10857l9.9984,9.49637c1.18556,1.12603,.38861,3.12235-1.24648,3.12235H6.9224l13.28582-12.61872c.77189-.73313,1.98279-.73313,2.75468,0Z" style="fill:#ff8000;"/><path d="M3.65045,18.41406c-.04706-.04468-.10004-.07861-.15045-.11731v10.20325c0,4.41821,3.58173,8,8,8h11.19244L3.65045,18.41406Z" style="fill:#ec6700;"/><path d="M31.10632,22.54419c-.77191-.73315-1.98279-.73315-2.7547,0l-14.69373,13.95581h14.8421c4.41827,0,8-3.58179,8-8v-.83301l-5.39368-5.1228Z" style="fill:#d12030;"/><rect x="3.5" y="3.5" width="33" height="33" rx="8" ry="8" style="fill:none;"/></g><rect x="0" width="40" height="40" style="fill:none;"/></svg>