<svg id="Layer_1" data-name="Layer 1" xmlns="http://www.w3.org/2000/svg" viewBox="0 0 40 40"><defs><style>.cls-1{fill:#e5e5e5;}.cls-2{fill:#ffd06c;}.cls-3{fill:#ef4452;}.cls-4{fill:none;}</style></defs><path class="cls-1" d="M13.006,18.8H37a0,0,0,0,1,0,0V34.34a2,2,0,0,1-2,2H15.007a2,2,0,0,1-2-2V18.8A0,0,0,0,1,13.006,18.8Z"/><path class="cls-2" d="M30.391,18.8H3.472A3.979,3.979,0,0,0,3,20.647V34.34a2,2,0,0,0,2,2H33.48V21.887A3.088,3.088,0,0,0,30.391,18.8Z"/><path class="cls-1" d="M23.671,3.765a5.023,5.023,0,0,0-4.282,1.09L4.409,17.6a3.982,3.982,0,0,0-.937,1.2H37S35.908,6.332,23.671,3.765Z"/><rect class="cls-1" x="3" y="25.568" width="31.632" height="4.002"/><path class="cls-3" d="M19.357,11.1c0-2.25,1.823-4.917,4.073-4.917S27.5,8.854,27.5,11.1a4.074,4.074,0,0,1-8.147,0Z"/><rect class="cls-4" width="40" height="40"/></svg>