<?xml version="1.0" encoding="UTF-8"?><svg id="Layer_1" xmlns="http://www.w3.org/2000/svg" viewBox="0 0 40 40"><g><path d="M3.12803,30.56127h0c7.56143,7.61421,19.86233,7.65478,27.47289,.09151,7.61148-7.56509,7.65206-19.86965,.09064-27.48478h-.00091L3.12803,30.56127Z" style="fill:#c1eec9;"/><path d="M27.99173,28.02634c6.16203-6.12425,6.19487-16.08439,.07337-22.24823L5.75265,27.953c6.1215,6.16476,16.07889,6.1976,22.23909,.07334Z" style="fill:#ef4452;"/><path d="M25.06577,23.02971c.53951,.544,.53662,1.4227-.00647,1.96222-.544,.54043-1.42271,.53753-1.96222-.00647-.31233-.31439-.5884-1.25014-.7658-1.98405-.10991-.45466,.30255-.86433,.75645-.75133,.73241,.18234,1.66577,.46476,1.97804,.77963Zm1.82033-4.93526c.75391,.13598,1.25625,.85908,1.11936,1.61207-.13598,.75391-.85816,1.25534-1.61207,1.11845-.42859-.07679-1.28331-.68629-1.94115-1.19801-.39598-.30803-.28282-.93637,.19574-1.0869,.79551-.25021,1.80994-.52345,2.23812-.44561Zm-.3632-5.20945c.75475-.12095,1.46626,.3971,1.58537,1.15459,.12094,.7575-.39711,1.46808-1.1546,1.58628-.43104,.06786-1.42358-.23147-2.19791-.50163-.46883-.16357-.56692-.78562-.17118-1.08552,.65408-.49567,1.50716-1.08636,1.93832-1.15372Zm-8.35464,13.87363c.13101,.75479,.84894,1.2628,1.60373,1.13179,.75479-.13101,1.26098-.85078,1.12906-1.60648-.07444-.4289-.67773-1.28705-1.1848-1.94813-.30543-.3982-.93482-.28904-1.08833,.18876-.25492,.79349-.53412,1.80511-.45966,2.23407Zm-5.28467-.39781c-.12501,.75394,.38833,1.46976,1.14411,1.59386,.75577,.12593,1.47067-.38742,1.59386-1.14411,.07071-.4301-.22214-1.42542-.4872-2.20222-.1604-.47007-.78203-.57231-1.08452-.17836-.49971,.65081-1.09555,1.49975-1.16625,1.93082Z" style="fill:#422e27;"/><path d="M30.03457,3.8213c3.48704,3.51011,5.39743,8.16422,5.38105,13.10624-.0155,4.93927-1.95821,9.58161-5.46639,13.06925-7.23901,7.19142-18.97467,7.15197-26.16538-.08727l-1.74435,1.734c-.11985,.11914-.11891,.31742,.00287,.43459,4.08788,3.93313,9.3687,5.90424,14.66312,5.92178,5.44635,.01804,10.90117-2.03904,15.06048-6.1729,4.03388-4.00799,6.26673-9.34574,6.28356-15.02517,.01822-5.51263-2.053-10.71815-5.83651-14.70817-.11654-.1229-.31538-.12492-.43548-.0055l-1.74299,1.73315Z" style="fill:#037f56;"/></g><rect width="40" height="40" style="fill:none;"/></svg>