<?xml version="1.0" encoding="UTF-8"?><svg id="a" xmlns="http://www.w3.org/2000/svg" viewBox="0 0 40 40"><rect width="40" height="40" fill="none"/><g><path id="b" d="M32.833,26.58c0,3.667-5.667,7.167-12.833,7.167s-12.833-3.667-12.833-7.167v-9.167l12.833-3.833,12.833,3.667v9.333Z" fill="#4e5968" fill-rule="evenodd"/><path id="c" d="M1.667,13.247L18.333,3.58c1-.667,2.333-.667,3.333,0l16.667,9.667c1.167,.667,1.167,2.167,0,2.833l-16.667,9.667c-1,.667-2.333,.667-3.333,0L1.667,16.08c-1.167-.667-1.167-2.167,0-2.833" fill="#6b7683" fill-rule="evenodd"/><path id="d" d="M20.5,13.747l-1.833-1.5-11.667,7.333h0v14h0c0,.667,.5,1.167,1.167,1.167s1.167-.5,1.167-1.167h0v-12.833l11.167-7Z" fill="#ffc100" fill-rule="evenodd"/><path id="e" d="M22.667,12.747c0,1-1.167,1.833-2.667,1.833s-2.667-.833-2.667-1.833,1.167-1.833,2.667-1.833c1.5-.167,2.667,.833,2.667,1.833" fill="#303d4c" fill-rule="evenodd"/><path d="M8.333,30.08c-1.333,0-2.333,1-2.333,2.167v3.462c0,.519,1.038,1.212,2.25,1.212s2.25-.519,2.25-1.212v-3.462c0-1.167-.833-2.167-2.167-2.167Z" fill="#ffda16" fill-rule="evenodd"/></g></svg>