<?xml version="1.0" encoding="UTF-8"?><svg id="Layer_1" xmlns="http://www.w3.org/2000/svg" viewBox="0 0 40 40"><rect y="0" width="40" height="40" transform="translate(40 40) rotate(-180)" fill="none"/><path d="m37.561,12.434C33.274,4.319,24.411-.306,15.6,2.126,6.857,4.539.954,13.618,1.719,23.512c.366,4.732,2.089,8.948,4.684,12.273,2.553,3.271,7.382,3.661,10.446.897.041-.037,15.861-15.695,20.183-20.23.984-1.033,1.232-2.688.53-4.017Z" fill="#ff9c00"/><g><path d="m17.603,4.875c-1.893.437-3.346,1.741-4.081,3.388-.212.025-.423.032-.636.081-2.581.596-4.352,2.792-4.568,5.296-1.349,1.402-1.991,3.431-1.521,5.468.186.807.529,1.536.988,2.166-1.152,1.382-1.684,3.255-1.248,5.143.146.632.41,1.199.728,1.725-.055.612-.044,1.238.102,1.87.74,3.205,3.938,5.204,7.144,4.464,3.205-.74,5.204-3.938,4.464-7.144-.146-.632-.41-1.199-.728-1.725.055-.612.044-1.238-.102-1.87-.186-.807-.529-1.536-.988-2.166.771-.926,1.247-2.069,1.352-3.296.48-.499.857-1.082,1.139-1.713.212-.025.423-.032.636-.081,3.205-.74,5.204-3.938,4.464-7.144s-3.938-5.204-7.144-4.464Z" fill="#6e4944"/><circle cx="11.632" cy="16.8" r="1" fill="#ffcf9c"/><circle cx="15.165" cy="12.498" r="1" fill="#ffcf9c"/><path d="m12.707,24.834c.573.012,1.018.495.982,1.067-.042.665-.221,1.523-.806,2.061-.585.538-1.455.645-2.121.631-.573-.012-1.018-.495-.982-1.067.042-.665.221-1.523.806-2.061s1.455-.645,2.121-.631Z" fill="#489c5e"/><path d="m15.079,21.878c.22.53-.044,1.131-.583,1.328-.626.229-1.483.41-2.211.091s-1.175-1.073-1.431-1.689c-.22-.53.044-1.131.583-1.328.626-.229,1.483-.41,2.211-.091s1.175,1.073,1.431,1.689Z" fill="#489c5e"/></g><path d="m36.872,8.098l-.404-.534c-1.384-1.832-3.169-3.364-5.288-4.248-1.807-.754-3.584-.972-5.28-.58-7.304,1.686-10.322,13.519-9.194,29.708.002.042.005.078.005.123.08,5.742-4.123,5.955-4.123,5.955,2.087-.098,3.674-.976,4.934-2.232s0,0,0,0l18.66-18.603c2.599-2.573,2.893-6.671.689-9.589Z" fill="#ffd06c"/></svg>