<?xml version="1.0" encoding="UTF-8"?><svg id="Layer_1" xmlns="http://www.w3.org/2000/svg" viewBox="0 0 40 40"><g id="_아이콘-icon"><g id="_002.----------아이콘-Icons_1.-컬러-아이콘_308---환전"><g id="Group-10"><g id="Stroke-4"><path d="m12.015,17.484c-2.468,0-4.346-1.46-5.132-2.464-.409-.521-.317-1.275.205-1.685.521-.407,1.271-.315,1.68.199.082.102,1.963,2.376,4.859,1.223.671-.268,1.096-.791,1.033-1.273-.071-.543-.859-1.263-2.848-1.502-4.218-.507-4.85-2.862-4.942-3.572-.209-1.596.805-3.129,2.523-3.814,3.537-1.411,6.12.484,7.066,1.364.485.451.513,1.21.062,1.696-.451.483-1.21.514-1.696.062-.76-.706-2.361-1.765-4.544-.893-.67.268-1.095.791-1.032,1.273.071.543.859,1.262,2.849,1.501,4.219.508,4.849,2.864,4.941,3.574.208,1.597-.806,3.129-2.523,3.813-.882.352-1.721.497-2.501.497Z" fill="#424f57"/></g><g id="Stroke-6"><path d="m11.955,6.493c-.663,0-1.2-.537-1.2-1.2v-1.973c0-.663.538-1.2,1.2-1.2s1.2.537,1.2,1.2v1.973c0,.663-.538,1.2-1.2,1.2Z" fill="#424f57"/></g><g id="Stroke-8"><path d="m11.955,19.464c-.663,0-1.2-.537-1.2-1.2v-1.973c0-.663.538-1.2,1.2-1.2s1.2.537,1.2,1.2v1.973c0,.663-.538,1.2-1.2,1.2Z" fill="#424f57"/></g></g></g></g><rect width="40" height="40" fill="none"/><g><path d="m28.338,30.549c-.341,0-.667-.146-.895-.4l-4.838-5.409c-.442-.494-.399-1.252.095-1.694.494-.441,1.252-.4,1.694.095l3.944,4.409,3.944-4.409c.442-.495,1.2-.537,1.694-.095.494.442.537,1.2.095,1.694l-4.838,5.409c-.228.255-.553.4-.895.4Z" fill="#424f57"/><g id="Stroke-8-2"><path d="m28.23,37.917c-.663,0-1.2-.537-1.2-1.2v-6.293c0-.663.538-1.2,1.2-1.2s1.2.537,1.2,1.2v6.293c0,.663-.538,1.2-1.2,1.2Z" fill="#424f57"/></g><path d="m32.454,30.635h-8.447c-.663,0-1.2-.537-1.2-1.2s.538-1.2,1.2-1.2h8.447c.663,0,1.2.537,1.2,1.2s-.538,1.2-1.2,1.2Z" fill="#424f57"/><path d="m32.454,34.628h-8.447c-.663,0-1.2-.537-1.2-1.2s.538-1.2,1.2-1.2h8.447c.663,0,1.2.537,1.2,1.2s-.538,1.2-1.2,1.2Z" fill="#424f57"/></g><g><g><path d="m33.3,21.2c-.663,0-1.2-.537-1.2-1.2,0-6.672-5.428-12.1-12.1-12.1-.663,0-1.2-.537-1.2-1.2s.538-1.2,1.2-1.2c7.995,0,14.5,6.505,14.5,14.5,0,.663-.538,1.2-1.2,1.2Z" fill="#4fc378"/><path d="m20,34.5c-7.995,0-14.5-6.505-14.5-14.5,0-.663.538-1.2,1.2-1.2s1.2.537,1.2,1.2c0,6.672,5.428,12.1,12.1,12.1.663,0,1.2.537,1.2,1.2s-.538,1.2-1.2,1.2Z" fill="#4fc378"/></g><path d="m33.3,21.2c-.307,0-.614-.117-.849-.352l-3.007-3.007c-.343-.344-.446-.859-.26-1.308.186-.448.624-.741,1.109-.741h2.564c.663,0,1.2.537,1.2,1.2,0,.561-.385,1.031-.904,1.163l.995.995c.469.469.469,1.229,0,1.697-.234.234-.542.352-.849.352Z" fill="#4fc378"/><path d="m9.707,24.207h-2.562c-.663,0-1.2-.537-1.2-1.2,0-.56.383-1.03.902-1.163l-.996-.995c-.469-.469-.469-1.229,0-1.697s1.229-.469,1.697,0l3.007,3.007c.343.344.446.859.26,1.308-.186.448-.624.741-1.109.741Z" fill="#4fc378"/></g></svg>