<?xml version="1.0" encoding="UTF-8"?><svg id="Layer_1" xmlns="http://www.w3.org/2000/svg" viewBox="0 0 40 40"><g><path d="M27.0266,28.02949l-4.20967-1.59929c-2.45769-.93369-5.17245-.93369-7.63013,0l-4.20963,1.59927c-2.0263,.76981-3.70376,2.21543-4.76663,4.06705-.43606,.75967-.71219,1.60054-.92149,2.4511l-.53812,2.1868c-.08135,.33061,.16891,.64992,.50938,.64992h27.48315c.34047,0,.59074-.31931,.50938-.64992l-.53815-2.18686c-.2093-.85054-.48543-1.6914-.9215-2.45106-1.06287-1.8516-2.74032-3.29721-4.7666-4.06701Z" style="fill:#5a81ff;"/><polygon points="16.62937 28.35492 21.57268 28.35492 19.10102 32.78934 16.62937 28.35492" style="fill:#fff;"/><g><circle cx="19.00188" cy="15.83031" r="9.15053" style="fill:#6e4944;"/><g><ellipse cx="10.65087" cy="16.08722" rx="3.66317" ry="3.43573" style="fill:#6e4944;"/><ellipse cx="27.35289" cy="16.08722" rx="3.66317" ry="3.43573" style="fill:#6e4944;"/></g><path d="M29.3498,13.20646c.0965-6.56162-5.8036-11.86554-12.57207-10.59822-4.22686,.79143-7.61006,4.21275-8.35199,8.44858-.13376,.76366-.18527,1.51581-.16192,2.24906,.00186,.05848,.04838,.10992,.10689,.11034,.23391,.00169,.83224,.12151,1.41601,1.18146,.08774,.15931,.30214,.19508,.42333,.05947l5.78428-6.47243s7.32768,5.88493,12.16384,5.56382c.10651-.00707,.22946-.04403,.35079-.09595,.32238-.18162,.5932-.51823,.84084-.44614Z" style="fill:#333;"/><g><ellipse cx="16.43109" cy="15.38765" rx=".97379" ry="1.16854"/><ellipse cx="21.57268" cy="15.38765" rx=".97379" ry="1.16854"/></g><path d="M20.21323,19.99499c.21885,0,.37431,.21024,.31625,.42125-.18447,.67046-.79852,1.16296-1.52759,1.16296s-1.34312-.4925-1.52759-1.16296c-.05806-.21101,.09741-.42125,.31625-.42125h2.42269Z" style="fill:#5c2f17;"/></g><path d="M16.81924,22.68515h4.38828v4.16509c0,1.21098-.98316,2.19414-2.19414,2.19414h0c-1.21098,0-2.19414-.98316-2.19414-2.19414v-4.16509h0Z" style="fill:#6e4944;"/><path d="M22.91907,26.71002c-.03044-.16837-.14169-.31103-.29757-.38159l-1.40132-.56697-2.02343,6.65181c-.05808,.17787-.30971,.17787-.3678,0l-2.02343-6.65181-1.40132,.56697c-.15588,.07056-.26713,.21321-.29757,.38159l-1.07519,5.9473c-.02688,.14869,.13093,.26192,.26318,.18883l1.73229-.95742c.23265-.12858,.52316-.08046,.70192,.11628l1.92451,2.11804c.19273,.21212,.52627,.21212,.719,0l1.92451-2.11804c.17876-.19673,.46927-.24486,.70192-.11628l1.73229,.95742c.13225,.07309,.29006-.04014,.26318-.18883l-1.07519-5.9473Z" style="fill:#374be5;"/><path d="M25.46385,37.41987l5.58762-8.37308c1.4058,.38672,2.87081-.02391,3.63994-1.15617,.60971-.89756,.73705-2.17901,.36219-3.30419-.11237-.33727-.55803-.40735-.75778-.11327l-1.24543,1.83355c-.18781,.27649-.89497,.12371-1.57949-.34126s-1.08708-1.06602-.89927-1.34251l1.20912-1.78009c.20157-.29676-.03411-.69199-.39165-.66263-1.14553,.09406-2.23938,.6741-2.83059,1.54452-.77055,1.13439-.60971,2.65111,.27226,3.81632l-7.2513,9.8788h3.88439Z" style="fill:#c4c4c4;"/><path d="M15.11624,35.66715l-2.78888,.74416c-.12186,.03251-.25011,.03251-.37196,0l-2.78888-.74416c-.09081-.02423-.15399-.10648-.15399-.20047v-.81195c0-.11459,.09289-.20749,.20749-.20749h5.84274c.11459,0,.20749,.09289,.20749,.20749v.81195c0,.09399-.06318,.17624-.15399,.20047Z" style="fill:#374be5;"/></g><rect y="-.00501" width="40" height="40" style="fill:none;"/></svg>