<?xml version="1.0" encoding="UTF-8"?><svg id="Layer_1" xmlns="http://www.w3.org/2000/svg" viewBox="0 0 40 40"><g><g><path d="m30.618,36.903l-.494-2.008c-.192-.781-.446-1.553-.846-2.251-.976-1.7-2.516-3.027-4.377-3.734l-2.901-1.102v1.006c-.273.185-.577.353-.908.501-.173.077-.37.133-.557.199-.403.963-1.256,1.688-2.296,1.919v6.067h11.911c.313,0,.542-.293.468-.597Z" fill="#75663a"/><path d="m14.53,29.515c-.543-.192-1.049-.419-1.464-.7v-1.006l-2.901,1.102c-1.861.707-3.401,2.034-4.377,3.734-.4.698-.654,1.47-.846,2.251l-.494,2.008c-.075.304.155.597.468.597h11.911v-6.067c-1.04-.231-1.893-.955-2.296-1.919Z" fill="#75663a"/><path d="m15.366,25.771c.331.078.674.141,1.028.187.361.042.729.072,1.11.073.01,0,.019.002.029.002,1.209,0,2.317-.229,3.255-.6v-1.123h-6.509v1.123c.341.135.703.247,1.088.338h0Z" fill="#75663a"/><path d="m18.24,31.433c1.04-.231,1.893-.955,2.296-1.919-.69.244-1.462.403-2.296.463v1.455Z" fill="#75663a"/><path d="m14.53,29.515c.403.963,1.256,1.688,2.296,1.919v-1.453c-.134-.011-.273-.012-.404-.028-.684-.078-1.313-.232-1.892-.437Z" fill="#75663a"/><path d="m18.24,29.978c-.235.017-.464.046-.707.046-.007,0-.013-.001-.021-.001-.236,0-.46-.024-.686-.043v7.52h1.414v-7.522Z" fill="#948049"/><path d="m14.53,29.515c.579.205,1.208.359,1.892.437-.339-.043-.669-.102-.987-.175-.256-.647-.397-1.357-.397-2.104,0-.671.119-1.31.328-1.902-.385-.091-.747-.204-1.088-.338-.444-.175-.862-.372-1.213-.61v3.992c.415.282.921.508,1.464.7Z" fill="#4d4326"/><path d="m16.394,25.958c.358.046.729.071,1.11.073-.381-.001-.75-.031-1.11-.073Z" fill="#4d4326"/><path d="m17.533,30.024c-.007,0-.013-.001-.021-.001.007,0,.013.001.021.001.243,0,.472-.029.707-.046.833-.06,1.606-.219,2.296-.463.186-.066.384-.122.557-.199-.992.445-2.223.709-3.56.709Z" fill="#4d4326"/><path d="m17.504,26.031c-.382-.001-.752-.027-1.11-.073-.354-.045-.697-.109-1.028-.187h0c-.209.592-.328,1.232-.328,1.902,0,.746.142,1.457.397,2.104.319.073.648.132.987.175.131.017.27.017.404.028.227.019.451.042.686.043.007,0,.013.001.021.001,1.336,0,2.568-.264,3.56-.709.331-.148.635-.316.908-.501v-3.992c-.273.185-.577.353-.908.501-.095.042-.206.07-.305.109-.938.37-2.046.6-3.255.6-.01,0-.019-.002-.029-.002Z" fill="#594e2c"/></g><ellipse cx="17.533" cy="18.613" rx="13.1" ry="6.854" fill="#b03b2f"/><g><path d="m27.009,15.302c-.221-.038-.461.247-.747.408-.111.048-.224.082-.322.088-4.441.295-11.169-5.109-11.169-5.109l-5.311,5.943c-.111.125-.308.092-.389-.055-.536-.973-1.085-1.083-1.3-1.085,0,0,0,0-.001,0-.768.577-1.27,1.456-1.27,2.448,0,1.74,1.5,3.15,3.34,3.16,1.31,2.95,4.26,5.01,7.69,5.01s6.38-2.06,7.69-5.01c1.85-.01,3.34-1.42,3.34-3.16,0-1.11-.622-2.078-1.551-2.638Z" fill="#ffc84d"/><path d="m9.071,16.577c.081.146.277.179.389.055l5.311-5.943s6.728,5.404,11.169,5.109c.098-.006.211-.04.322-.088.285-.161.526-.446.747-.408.008.001.017-.004.025-.002.089-6.025-5.329-10.895-11.544-9.731-3.881.727-6.988,3.868-7.669,7.758-.123.701-.17,1.392-.149,2.065.002.053.044.099.097.101,0,0,0,0,.001,0,.215.002.764.112,1.3,1.085Z" fill="#ff9000"/><g><ellipse cx="15.172" cy="17.302" rx=".894" ry="1.073"/><ellipse cx="19.893" cy="17.302" rx=".894" ry="1.073"/></g><path d="m18.645,21.533c.201,0,.344.193.29.387-.169.616-.733,1.068-1.403,1.068s-1.233-.452-1.403-1.068c-.053-.194.089-.387.29-.387h2.225Z" fill="#5c2f17"/></g><path d="m28.167,14.79c-.035-5.845-4.781-10.573-10.634-10.573S6.934,8.945,6.899,14.79c2.378-1.486,6.249-2.457,10.634-2.457s8.257.971,10.634,2.457Z" fill="#ed422f"/><path d="m30.63,18.62c0,.2-.02.41-.06.61-.59-3.5-6.2-6.24-13.04-6.24s-12.44,2.74-13.04,6.24c-.03-.2-.06-.41-.06-.61,0-2.92,3.48-5.41,8.39-6.4l-.54-6.33c-.09-1.05.44-2.05,1.32-2.47,1.21-.59,2.54-.92,3.93-.92s2.72.33,3.94.92c.87.42,1.41,1.42,1.32,2.47l-.54,6.33c4.9.99,8.38,3.48,8.38,6.4Z" fill="#ff5543"/><g><path d="m19.236,6.799c.062.414.134.651-.162.651-.403,0-.403-.954-1.086-1.498-.675-.538-1.178-.407-1.189-.404,0,0,0,0,0,0,.562.469.249,1.241-.119,1.453-.353.204-.756-.053-.545-.659-.464.634-.865,1.403-.865,2.169,0,1.25,1.013,2.263,2.263,2.263s2.263-1.013,2.263-2.263c0-.591-.239-1.183-.56-1.714Zm-1.703,3.701c-.544,0-.984-.441-.984-.984,0-.792.984-1.359.984-1.359,0,0,.984.567.984,1.359,0,.544-.441.984-.984.984Z" fill="#fb0"/><path d="m17.533,8.157s-.984.567-.984,1.359c0,.544.441.984.984.984s.984-.441.984-.984c0-.792-.984-1.359-.984-1.359Z" fill="#ff5543"/></g><path d="m4.915,37.5h25.235c.313,0,.542-.293.468-.597l-.345-1.401H4.792l-.345,1.401c-.075.304.155.597.468.597Z" fill="#d6b049"/><g><polygon points="20.614 37.5 23.093 37.5 28.189 30.185 26.598 28.91 20.614 37.5" fill="#593e2c"/><path d="m32.742,32.322c.345-.278.677-.577.977-.918-.3.341-.632.641-.977.918Z" fill="#ed422f"/><path d="m30.135,31.745c.923-.556,1.754-1.299,2.41-2.24.656-.942,1.065-1.978,1.267-3.037l-5.711-3.432c-.152-.092-.35-.049-.451.096l-2.778,3.988c-.102.146-.073.346.066.457l1.662,1.333,1.59,1.275,3.544,2.842c.085-.049.165-.109.249-.162-.084.052-.164.112-.249.162l-1.598-1.281Z" fill="#ed422f"/><path d="m33.811,26.468h0c-.202,1.059-.611,2.095-1.267,3.037-.656.942-1.486,1.684-2.41,2.24l1.598,1.281c.085-.049.165-.109.249-.162.263-.165.516-.346.76-.543.345-.278.677-.577.977-.918.194-.22.377-.453.548-.699.515-.739.881-1.535,1.112-2.355.077-.273.139-.549.187-.827l-1.756-1.055Z" fill="#b7b7b7"/></g></g><rect width="40" height="40" fill="none"/></svg>