<?xml version="1.0" encoding="UTF-8"?><svg id="Layer_1" xmlns="http://www.w3.org/2000/svg" viewBox="0 0 40 40"><rect width="40" height="40" style="fill:none;"/><g><g><path d="M1.71175,36.88673H27.06629c2.29493,0,4.30118-1.54771,4.88368-3.76749l2.80065-9.73625c.02219-.08455-.02422-.17198-.10668-.20097l-6.90565-2.42836c-.10278-.03614-.21618,.01183-.26183,.11075l-2.69323,6.35896s-2.94884-4.09994-9.32099-4.08712h-.00001c-7.88683-.34065-13.75047,6.1563-13.75047,13.75047h0Z" style="fill:#5268e9;"/><g><circle cx="13.81127" cy="14.39402" r="8.1129" style="fill:#946759;"/><g><ellipse cx="6.43388" cy="15.06172" rx="3.24778" ry="3.04613" transform="translate(-.88435 .40929) rotate(-3.40946)" style="fill:#946759;"/><ellipse cx="21.21576" cy="14.18106" rx="3.24778" ry="3.04613" transform="translate(-.80581 1.28682) rotate(-3.40946)" style="fill:#946759;"/></g><path d="M22.83119,11.5262c-.24949-5.56515-5.30354-9.81999-10.93239-8.8741-4.32915,.72748-7.60731,4.47655-7.75825,8.8638-.01536,.44639,.00007,.88529,.04423,1.31489,0,0,.78029-.23573,1.57563,1.25107l4.98594-6.29588s6.79556,4.822,11.05879,4.28281c.09389-.01187,.20076-.05107,.30541-.10342,.27575-.17774,.49768-.48993,.72065-.43918Z" style="fill:#333;"/><g><ellipse cx="11.51269" cy="14.13779" rx=".86336" ry="1.03604" transform="translate(-.82041 .7097) rotate(-3.40946)"/><ellipse cx="16.06317" cy="13.86669" rx=".86336" ry="1.03604" transform="translate(-.79624 .97984) rotate(-3.40946)"/></g><path d="M15.10294,18.01603c.19369-.01154,.34236,.16634,.30211,.35615-.12791,.60311-.6454,1.07137-1.29066,1.10981-.64526,.03844-1.21468-.36506-1.4133-.94872-.06251-.18369,.064-.37796,.25768-.3895l2.14416-.12774Z" style="fill:#5c2f17;"/></g><path d="M12.07815,21.27506h4.57224v2.28612c0,1.26174-1.02438,2.28612-2.28612,2.28612h0c-1.26174,0-2.28612-1.02437-2.28612-2.28612v-2.28612h0Z" transform="translate(-1.37581 .89598) rotate(-3.40951)" style="fill:#946759;"/></g><path d="M34.69938,23.38299l3.43905-4.12479c.67481-.80936,.61634-2.00092-.13445-2.74034h0c-.79378-.78175-2.06987-.77572-2.85623,.01349l-1.16803,1.17226c-.43908,.44067-1.07753,.61801-1.68098,.46691l-.91092-.22808c-1.48984-.37303-3.02262,.4303-3.5636,1.8677l-.34777,.92404,7.22293,2.6488Z" style="fill:#946759;"/></g></svg>