<?xml version="1.0" encoding="UTF-8"?><svg id="Layer_1" xmlns="http://www.w3.org/2000/svg" viewBox="0 0 40 40"><polygon points="30.56 22.75 30.37 33.83997 27.42999 33.83997 26.94 25.70001 26.45001 33.83997 23.51001 33.83997 23.32001 22.75 30.56 22.75" style="fill:#6d7681;"/><path d="M32.90302,17.73596l-.74103-2.95398c-.14972-1.20007-.97498-2.2077-2.12201-2.591l-2.37897-.79474v.24573c0,.43634-.3537,.79004-.79004,.79004-.43628,0-.78998-.3537-.78998-.79004v-.23285l-2.505,.84784c-1.03125,.349-1.80811,1.20728-2.05298,2.26801l-1.17499,3.40802,.4444,.12109,2.01117,.54797,.57239,.15594-.29297,3.99298h7.72601l-.362-4.02399,.3031-.12231,1.95312-.78809,.19977-.08063Z" style="fill:#d0d4d9;"/><g><g><path d="M22.461,35.20898c-.23865,.2124-.37933,.51367-.38898,.83301v.25598c0,.34503,.42395,.62604,.94696,.62604h1.01202c.66852,.03668,1.31805-.22919,1.76898-.724l.27002-.36005c.06708-.08569,.104-.19116,.10498-.29999v-1.70099h-2.3006l-1.41339,1.37Z" style="fill:#313c50;"/><path d="M27.81299,35.54102c.00104,.10883,.0379,.21429,.10504,.29999l.26996,.35999c.44983,.49335,1.09735,.75873,1.76404,.72302h1.01099c.52399,0,.948-.28101,.948-.62604v-.25598c-.01013-.31921-.15076-.62036-.38904-.83301l-1.41339-1.37h-2.29559v1.70203Z" style="fill:#313c50;"/></g><g><path d="M8.88397,35.18799c-.2381,.2132-.37866,.51453-.38898,.83398v.255c0,.34601,.42401,.62604,.948,.62604h1.01099c.66644,.03552,1.31378-.22943,1.76404-.72205l.26996-.35999c.06714-.08569,.104-.19116,.10504-.29999v-1.70099l-2.29987,.00299-1.40918,1.36499Z" style="fill:#313c50;"/><path d="M14.24103,35.521c-.00049,.10828,.03467,.21362,.09998,.29999l.27002,.35999c.45038,.49237,1.0976,.75726,1.76398,.72205h1.01202c.52295,0,.94696-.28003,.94696-.62604v-.255c-.00983-.31958-.15045-.62109-.38898-.83398l-1.40918-1.36499-2.2948-.00299v1.70099Z" style="fill:#313c50;"/></g></g><path d="M9.65808,22.14197l.04791,4.65399c.00378,.14197,.12,.25507,.26202,.255h6.87097c.14374,.00006,.2608-.1153,.263-.25897l-.03198-4.65002h-7.41193Z" style="fill:#d74f21;"/><path d="M19.34998,17.72296l-.742-2.95398c-.14886-1.20013-.97388-2.20801-2.12097-2.591l-2.40698-.80414v.25214c0,.43634-.3537,.79004-.79004,.79004-.43628,0-.78998-.3537-.78998-.79004v-.22144l-2.47699,.83545c-1.03131,.34949-1.80811,1.20801-2.05304,2.26898l-1.17596,3.40704,.44647,.12177,2.01019,.54816,.57233,.15607-.29297,3.39996h7.72595l-.36298-3.42896,.30469-.1228,1.9541-.78741,.19818-.07983Z" style="fill:#e98d90;"/><g><g><path d="M24.02142,9.43121l-.75842,.56879c-.03241,.02435-.06042,.05414-.0827,.08801-.10724,.16284-.06213,.38177,.10071,.48895l.672,.44501c.02667,.01764,.0556,.03162,.086,.04144,.18597,.06036,.38568-.04144,.44598-.22742l.17255-.53412c-.25928-.25079-.46838-.54749-.63611-.87067Z" style="fill:#333;"/><path d="M29.54303,10.836c.05975,.18555,.25867,.28754,.44421,.22772,.0307-.00989,.05988-.02393,.08673-.04175l.67303-.44501c.16266-.10748,.20734-.32648,.09985-.48914-.0224-.03381-.05042-.06354-.08289-.08783l-.80292-.60284c-.15991,.31708-.3573,.61206-.6051,.86139l.18707,.57745Z" style="fill:#333;"/><path d="M23.67798,7.57098s.40796-.24866,.9422-.62775c.83563-.59296,1.98273-1.50769,2.37982-2.30927,0,0,.73364,1.85016,2.23773,2.37701,.32861,.11511,.69257,.16968,1.09528,.125,.04407-.00586,.0871-.01764,.12799-.03497,.10016-.05438,.18622-.14789,.26575-.16058,.01416-.00226,.0285-.00732,.04224-.00342,.02448-1.76532-1.14001-3.3269-2.83899-3.80701-.2027-.05182-.41412-.05933-.62-.02203l-.33801,.05603c-.06628,.00977-.13367,.00977-.20001,0l-.17297-.02301c-.38245-.05505-.77271-.00922-1.13202,.133-1.32867,.54126-2.24939,1.77252-2.39301,3.20001-.01703,.18048-.02173,.36188-.01398,.54297,0,0,.02246-.00476,.05981-.00159,.1073,.00909,.34235,.08679,.55817,.5556Z" style="fill:#333;"/></g><path d="M10.27197,8.26501c-.0592-.33936,.02325-.68811,.22803-.96503,.07434-.10437,.16132-.1991,.25897-.28198,.54639-.51715,.91205-1.19623,1.04303-1.93701,.00305-.01556,.01123-.02966,.02332-.03992,.02942-.02509,.07361-.02155,.09869,.00793,.64868,.75464,1.54016,1.25958,2.521,1.42798,1.29102,.19202,1.89801,1.05103,1.72699,2.05103-.24304,1.07697-1.05365,1.91956-2.09198,2.22003v.39581c.98181-.01562,1.95386-.21777,2.85901-.61188,.19507-.11737,.31653-.32635,.32196-.55402,.06671-1.50208-.11475-3.00488-.53699-4.448-.51953-1.30939-1.70807-2.23419-3.10498-2.41595-.8382-.13367-1.68457,.18536-2.22601,.83899-2.50598,1.09796-2.034,6.27899-2.034,6.27899,0,0,.20007,.75702,3.14099,.87274v-.33478c-1.14862-.29553-2.06128-1.25714-2.22803-2.50494Z" style="fill:#333;"/></g><g><g><path d="M20.00189,21.38824l.98108,4.13776c.0025,.03827,.0025,.07672,0,.11499,0,.01599,.01202,.02997,.01404,.047,0,.034-.01001,.06403-.01001,.09998-.00061,.03857-.00433,.07703-.01099,.11505-.03607,.55127-.45551,.9931-.99817,1.07275,.02863,.00537,.05286,.02094,.08215,.02423,.65167,.06622,1.23364-.40833,1.29987-1.05994l.00012-.0011c.03186-.37537-.12018-.74286-.40796-.98596l1.85156-6.35095-2.01117-.54797-.79053,3.33417Z" style="fill:#6e4944;"/><path d="M34.53497,25.65698c.0025-.03827,.0025-.07672,0-.11499l-1.83173-7.7254-1.95312,.78809,1.84985,6.34833c-.28741,.24329-.43909,.61078-.40698,.98596l.00031,.00305c.06677,.65106,.64868,1.12469,1.29968,1.05798,.56122-.06305,.99695-.51855,1.03503-1.08203,.00702-.0376,.01099-.07574,.01196-.11395-.00098-.03601,.00903-.06604,.00903-.10004-.00104-.01697-.01404-.02997-.01404-.047Z" style="fill:#6e4944;"/><path d="M30.72998,6.94c-.07996,.01001-.16998,.10999-.26996,.15997-.04004,.02002-.08002,.03003-.13,.04004-.40002,.03998-.76001-.01001-1.09003-.13-1.51001-.53003-2.23999-2.38-2.23999-2.38-.40002,.81-1.53998,1.71997-2.38,2.31-.52997,.38-.94,.63-.94,.63-.21997-.47003-.45001-.55005-.56-.55005-.32001,.23004-.52997,.57001-.52997,.97003,0,.70001,.58997,1.26001,1.32996,1.26001,.03003,.06,.07001,.12,.10004,.17999,.16998,.32001,.38,.62,.63995,.87,.39001,.38,.88,.65997,1.42004,.81v.53003c0,.43994,.34998,.78998,.78998,.78998s.78998-.35004,.78998-.78998v-.46002c.66003-.14001,1.24005-.46002,1.70001-.91998,.23999-.25,.44-.55005,.60004-.86005,.02997-.04999,.06-.09998,.07996-.14996,.74005,0,1.34003-.56,1.34003-1.26001,0-.45001-.27002-.83002-.65002-1.04999Zm-4.21997,2.48999c.01001-.01001,.02002-.01001,.02997-.01001h.89001c.06,0,.12,.06,.12,.12,0,.02002-.01001,.03003-.01001,.03998-.07996,.31006-.39996,.49005-.70996,.40002-.20001-.04999-.35004-.21002-.41003-.40002-.01996-.06995,.02002-.13995,.09003-.14996Zm-.47003-1.27002c-.19,0-.34998-.19-.34998-.41998,0-.23999,.15997-.42999,.34998-.42999,.20001,0,.36005,.19,.36005,.42999,0,.22998-.16003,.41998-.36005,.41998Zm1.88,0c-.19,0-.34998-.19-.34998-.41998,0-.23999,.15997-.42999,.34998-.42999,.20001,0,.36005,.19,.36005,.42999,0,.22998-.16003,.41998-.36005,.41998Z" style="fill:#6e4944;"/></g><g><polygon points="10.29303 33.823 10.29315 33.823 12.59302 33.82001 13.13226 27.05096 10.28925 27.05096 10.29303 33.823" style="fill:#6e4944;"/><polygon points="14.23602 33.82001 14.24103 33.82001 16.53583 33.823 16.53601 33.823 16.48425 27.05096 13.6153 27.05096 14.23602 33.82001" style="fill:#6e4944;"/><path d="M5.46399,25.526c-.0025,.03827-.0025,.07672,0,.11499,0,.01599-.013,.02997-.01398,.047,0,.034,.01001,.06403,.00897,.09998,.00098,.03864,.005,.07709,.01202,.11505,.03705,.56628,.47577,1.02399,1.03998,1.08496,.65045,.06726,1.23224-.40552,1.2995-1.05597l.00049-.005c.03247-.37756-.12085-.74725-.41095-.99103l1.85065-6.35004-2.01019-.54816-1.77649,7.48822Z" style="fill:#6e4944;"/><path d="M20.97601,25.90302c.00665-.03802,.01038-.07648,.01099-.11505,0-.03595,.01001-.06598,.01001-.09998-.00201-.01703-.01404-.03101-.01404-.047,.0025-.03827,.0025-.07672,0-.11499l-.98108-4.13776-.8501-3.58545-1.9541,.78741,1.85028,6.34576c-.29034,.24365-.44403,.61334-.41199,.99103l.00031,.00305c.06677,.651,.64868,1.12469,1.29968,1.05792,.01495-.00159,.0271-.01007,.04187-.01221,.54266-.07965,.9621-.52148,.99817-1.07275Z" style="fill:#6e4944;"/><path d="M14.45001,6.47998c-.98999-.16998-1.88-.67999-2.53003-1.42999-.01996-.03003-.07001-.03003-.08997-.01001-.02002,.01001-.02002,.03003-.03003,.03998-.13,.74005-.48999,1.42004-1.03998,1.94-.10004,.08002-.19,.18005-.26001,.28003-.20001,.27997-.28998,.63-.22998,.96997,.16998,1.24005,1.07996,2.20001,2.22998,2.5v.86005c0,.42999,.34998,.78998,.78998,.78998s.79004-.35999,.79004-.78998v-.88c1.03998-.29999,1.84998-1.15002,2.08997-2.22003,.17004-1-.42999-1.85999-1.71997-2.04999Zm-1.67999,2.89001h.87c.07001,0,.12,.04999,.12,.10999,0,.01001-.01001,.02002-.01001,.03003-.08002,.28998-.38,.46997-.66998,.38995-.19-.04999-.33002-.19995-.38-.38995-.02002-.06,.01001-.12,.07001-.14001Zm-.44-1.37c-.17999,0-.33002-.17999-.33002-.41003,0-.21997,.15002-.39996,.33002-.39996,.19,0,.33997,.17999,.33997,.39996,0,.23004-.14996,.41003-.33997,.41003Zm1.77997,0c-.17999,0-.32996-.17999-.32996-.41003,0-.21997,.14996-.39996,.32996-.39996,.19,0,.34003,.17999,.34003,.39996,0,.23004-.15002,.41003-.34003,.41003Z" style="fill:#6e4944;"/></g></g><g><g><path d="M26.39801,7.737c0-.23639-.15942-.42804-.35602-.42804s-.35602,.19165-.35602,.42804,.15942,.42798,.35602,.42798,.35602-.19159,.35602-.42798Z"/><path d="M27.92297,8.16498c.19666,0,.35602-.19159,.35602-.42798s-.15936-.42804-.35602-.42804c-.19659,0-.35596,.19165-.35596,.42804s.15936,.42798,.35596,.42798Z"/></g><g><path d="M12.33398,7.18799c-.1861,0-.33698,.18085-.33698,.40399s.15088,.40399,.33698,.40399c.18616,0,.33704-.18085,.33704-.40399s-.15088-.40399-.33704-.40399Z"/><path d="M14.11298,7.18799c-.1861,0-.33698,.18085-.33698,.40399s.15088,.40399,.33698,.40399c.18616,0,.33704-.18085,.33704-.40399s-.15088-.40399-.33704-.40399Z"/></g></g><g><path d="M26.82733,9.98132c.30872,.08545,.62823-.09558,.71368-.40436,.00311-.01068,.00476-.02173,.00488-.03284,.00061-.06683-.0531-.12152-.11987-.12213h-.88702c-.01068,.00012-.0213,.00165-.03156,.00452-.06488,.01825-.10266,.08563-.08447,.15045,.05438,.19647,.20789,.34998,.40436,.40436Z" style="fill:#56321b;"/><path d="M13.64301,9.36798h-.83899c-.01025,.00006-.02045,.00153-.03033,.00427-.06055,.01715-.09583,.08014-.07867,.14075,.05115,.18665,.19696,.33246,.38361,.38361,.29187,.08002,.59338-.09174,.6734-.38361,.00275-.00989,.00421-.02008,.00427-.03033,.00037-.06293-.05035-.11432-.11328-.11469Z" style="fill:#56321b;"/></g></svg>