<svg id="Layer_1" data-name="Layer 1" xmlns="http://www.w3.org/2000/svg" viewBox="0 0 40 40"><defs><style>.cls-1{fill:#ff9000;}.cls-2{fill:#ffc84d;}.cls-3{fill:#5c2f17;}.cls-4{fill:none;}</style></defs><path class="cls-1" d="M3.812,32.846S1.874,11.537,12.179,7.02c0,0,2.833-4.106,9.156-3.449A15.955,15.955,0,0,1,34.1,13.507c1.2,3.285,2.4,10.238,2.209,18.3a2.747,2.747,0,0,1-1.324,2.279C33.244,35.141,29.2,36.5,19.939,36.5,4.748,36.5,3.812,32.846,3.812,32.846Z"/><path class="cls-2" d="M24.729,17.4a17.609,17.609,0,0,1-10.368-5.876.286.286,0,0,0-.5.135,14.439,14.439,0,0,1-4.29,7.966,6.372,6.372,0,0,0-1.088,1.164,5.186,5.186,0,0,0-.937,3.969A12.623,12.623,0,0,0,19.8,35.467a12.565,12.565,0,0,0,12.024-9.626C32.536,21.723,30.042,18.193,24.729,17.4Z"/><ellipse cx="16.048" cy="21.987" rx="1.386" ry="1.663"/><ellipse cx="23.365" cy="21.987" rx="1.386" ry="1.663"/><path class="cls-3" d="M21.432,29.292a.47.47,0,0,1,.449.6,2.256,2.256,0,0,1-4.349,0,.47.47,0,0,1,.449-.6Z"/><rect class="cls-4" width="40" height="40"/></svg>