<?xml version="1.0" encoding="UTF-8"?><svg id="Layer_1" xmlns="http://www.w3.org/2000/svg" viewBox="0 0 40 40"><g><path d="M34.54819,17.76595c0-8.03476-6.51346-14.54822-14.54822-14.54822S5.45175,9.73119,5.45175,17.76595c0,1.1267,.1405,2.21857,.38292,3.27166,.26532,8.74441,6.49669,15.74465,14.1653,15.74465s13.90024-7.00037,14.16536-15.74491c.24236-1.05303,.38286-2.14483,.38286-3.27141Z" style="fill:#ffc84d;"/><g><ellipse cx="8.18081" cy="21.23416" rx="5.68081" ry="5.3281" style="fill:#ffc84d;"/><ellipse cx="31.81919" cy="21.23416" rx="5.68081" ry="5.3281" style="fill:#ffc84d;"/></g><ellipse cx="16.01324" cy="20.14927" rx="1.51014" ry="1.81217"/><ellipse cx="23.98676" cy="20.14927" rx="1.51014" ry="1.81217"/><path d="M16.39174,29.20372l2.09169-1.14558c.18399-.11226,.41685-.10555,.59406,.01714l.68667,.62369c.17866,.12369,.41373,.12942,.59821,.01458l.83149-.65096c.1844-.11479,.41936-.10912,.59801,.01444l1.84247,1.12617c.34447,.23825,.30261,.75985-.07544,.94012l-2.74248,1.30772c-.48043,.22909-1.03762,.23373-1.5218,.01268l-2.84535-1.29904c-.39745-.18145-.43049-.73339-.05752-.96096Z" style="fill:#f77f00;"/></g><rect width="40" height="40" style="fill:none;"/></svg>