<?xml version="1.0" encoding="UTF-8"?><svg id="Layer_1" xmlns="http://www.w3.org/2000/svg" viewBox="0 0 40 40"><g><path d="m2.288,16.004c-.709-.721-.717-1.875-.017-2.605l7.877-8.227c2.11-2.204,5.595-2.317,7.844-.254l.844.775c.658.604,1.67.604,2.328,0l.844-.775c2.248-2.063,5.734-1.95,7.844.254l7.877,8.227c.699.73.692,1.884-.017,2.605l-17.325,17.126L2.288,16.004Z" fill="#e32939"/><path d="m32.781,15.529c0,1.684-5.692,3.049-12.713,3.049s-12.713-1.365-12.713-3.049,5.692-4.265,12.713-4.265,12.713,2.581,12.713,4.265Z" fill="#731019"/><path d="m10.918,14.124h18.3c1.683,0,3.049,1.366,3.049,3.049v7.186c0,6.733-5.466,12.2-12.2,12.2h0c-6.733,0-12.2-5.466-12.2-12.2v-7.186c0-1.683,1.366-3.049,3.049-3.049Z" fill="#f56570"/></g><rect width="40" height="40" fill="none"/></svg>