<?xml version="1.0" encoding="UTF-8"?><svg id="Layer_1" xmlns="http://www.w3.org/2000/svg" viewBox="0 0 40 40"><g><path d="M34.54819,17.76595c0-8.03476-6.51346-14.54822-14.54822-14.54822S5.45175,9.73119,5.45175,17.76595c0,1.1267,.1405,2.21857,.38292,3.27166,.26532,8.74441,6.49669,15.74465,14.1653,15.74465s13.90024-7.00037,14.16536-15.74491c.24236-1.05303,.38286-2.14483,.38286-3.27141Z" style="fill:#c3846c;"/><ellipse cx="8.18081" cy="21.23416" rx="5.68081" ry="5.3281" style="fill:#c3846c;"/><ellipse cx="31.81919" cy="21.23416" rx="5.68081" ry="5.3281" style="fill:#c3846c;"/><ellipse cx="16.01324" cy="19.14927" rx="1.51014" ry="1.81217"/><ellipse cx="23.98676" cy="19.14927" rx="1.51014" ry="1.81217"/><path d="M22.7051,26.68376c.48872,0,.83588,.4695,.70624,.94071-.41195,1.49723-1.7832,2.59706-3.41133,2.59706s-2.99938-1.09983-3.41133-2.59706c-.12965-.4712,.21752-.94071,.70624-.94071h5.41019Z" style="fill:#5c2f17;"/></g><rect width="40" height="40" style="fill:none;"/></svg>