<svg id="Layer_1" data-name="Layer 1" xmlns="http://www.w3.org/2000/svg" viewBox="0 0 40 40"><defs><style>.cls-1{fill:#75663a;}.cls-2{fill:#948049;}.cls-3{fill:#b03b2f;}.cls-4{fill:#d6b049;}.cls-5{fill:#ff9000;}.cls-6{fill:#ffc84d;}.cls-7{fill:#5c2f17;}.cls-8{fill:#ed422f;}.cls-9{fill:#ff5543;}.cls-10{fill:#fb0;}.cls-11{fill:#593e2c;}.cls-12{fill:#b7b7b7;}.cls-13{fill:#4d4326;}.cls-14{fill:#594e2c;}.cls-15{fill:none;}</style></defs><path class="cls-1" d="M24.951,28.823,21.046,27.34a9.964,9.964,0,0,0-7.077,0l-3.9,1.483A8.635,8.635,0,0,0,5.643,32.6a8.74,8.74,0,0,0-.854,2.274l-.5,2.028a.487.487,0,0,0,.473.6H30.254a.486.486,0,0,0,.472-.6l-.5-2.028a8.3,8.3,0,0,0-5.276-6.046Z"/><path class="cls-1" d="M14.22,24.176H20.8a0,0,0,0,1,0,0v3.991a3.288,3.288,0,0,1-3.288,3.288h0a3.288,3.288,0,0,1-3.288-3.288V24.176A0,0,0,0,1,14.22,24.176Z"/><rect class="cls-2" x="16.794" y="28.899" width="1.428" height="8.601"/><ellipse class="cls-3" cx="17.508" cy="18.777" rx="13.233" ry="6.923"/><path class="cls-4" d="M4.762,37.5H30.254a.486.486,0,0,0,.472-.6l-.348-1.415H4.638L4.289,36.9A.487.487,0,0,0,4.762,37.5Z"/><path class="cls-5" d="M7.184,24.52S5.924,10.673,12.621,7.738A6.4,6.4,0,0,1,18.571,5.5a10.366,10.366,0,0,1,8.3,6.456A36.59,36.59,0,0,1,28.3,23.842a1.785,1.785,0,0,1-.86,1.481c-1.134.689-3.761,1.572-9.78,1.572C7.792,26.9,7.184,24.52,7.184,24.52Z"/><path class="cls-6" d="M20.777,14.443a11.471,11.471,0,0,1-6.738-3.777.186.186,0,0,0-.324.087,9.254,9.254,0,0,1-2.788,5.121,4.119,4.119,0,0,0-.707.747,3.3,3.3,0,0,0-.609,2.552,8.175,8.175,0,0,0,7.963,6.882,8.147,8.147,0,0,0,7.814-6.188C25.85,17.22,24.229,14.951,20.777,14.443Z"/><ellipse cx="15.135" cy="17.463" rx="0.9" ry="1.081"/><ellipse cx="19.89" cy="17.463" rx="0.9" ry="1.081"/><path class="cls-7" d="M18.634,22.211a.305.305,0,0,1,.292.388,1.465,1.465,0,0,1-2.826,0,.3.3,0,0,1,.292-.388Z"/><path class="cls-8" d="M28.25,14.915a10.743,10.743,0,0,0-21.485,0c2.4-1.5,6.313-2.482,10.743-2.482S25.848,13.414,28.25,14.915Z"/><path class="cls-9" d="M17.508,13.1c6.909,0,12.574,2.771,13.173,6.3a3.75,3.75,0,0,0,.059-.618c0-3.824-5.924-6.924-13.232-6.924s-13.233,3.1-13.233,6.924a3.645,3.645,0,0,0,.06.618C4.934,15.867,10.6,13.1,17.508,13.1Z"/><path class="cls-9" d="M22.233,12.859l.585-6.93a2.528,2.528,0,0,0-1.335-2.5,8.977,8.977,0,0,0-7.95,0,2.524,2.524,0,0,0-1.335,2.5l.585,6.93a23.837,23.837,0,0,1,9.45,0Z"/><path class="cls-10" d="M19.228,6.843c.063.418.136.658-.163.658-.408,0-.408-.964-1.1-1.513a1.464,1.464,0,0,0-1.2-.409h0a.931.931,0,0,1-.121,1.468c-.356.206-.763-.054-.55-.665a3.915,3.915,0,0,0-.874,2.191,2.287,2.287,0,1,0,4.573,0A3.436,3.436,0,0,0,19.228,6.843Z"/><path class="cls-9" d="M17.508,8.215s.994.572.994,1.372a.994.994,0,0,1-1.988,0C16.514,8.787,17.508,8.215,17.508,8.215Z"/><polygon class="cls-11" points="23.124 37.5 29.404 28.485 27.719 27.311 20.621 37.5 23.124 37.5"/><path class="cls-8" d="M35.725,27.421l-7.543-4.532a.341.341,0,0,0-.456.1L24.92,27.015a.34.34,0,0,0,.066.461l6.866,5.505a7.929,7.929,0,0,0,3.873-5.56Z"/><path class="cls-12" d="M34.412,30.636a7.974,7.974,0,0,0,1.313-3.215l-1.774-1.066a7.847,7.847,0,0,1-3.713,5.331l1.614,1.3A7.951,7.951,0,0,0,34.412,30.636Z"/><path class="cls-13" d="M17.508,25.916A8.181,8.181,0,0,1,13,24.693v4.033a8.181,8.181,0,0,0,4.513,1.222,8.181,8.181,0,0,0,4.513-1.222V24.693A8.181,8.181,0,0,1,17.508,25.916Z"/><path class="cls-14" d="M22.021,28.726V24.693a8.181,8.181,0,0,1-4.513,1.223,9.477,9.477,0,0,1-2.189-.264,5.775,5.775,0,0,0,.07,4.047,9.539,9.539,0,0,0,2.119.249A8.181,8.181,0,0,0,22.021,28.726Z"/><rect class="cls-15" width="40" height="40"/></svg>