<?xml version="1.0" encoding="UTF-8"?><svg id="Layer_1" xmlns="http://www.w3.org/2000/svg" viewBox="0 0 40 40"><rect x="0" width="40" height="40" fill="none"/><g><path d="m33.703,16.069l-.023-.456c-.154-3.048-1.929-5.603-4.554-6.552h0c-2.672-.967-5.727-.09-7.794,2.235l-.275.309c-2.79,3.139-1.324,6.627,2.282,7.932l3.54,1.281c3.648,1.32,7.038-.512,6.824-4.748Z" fill="#5e403b"/><g><ellipse cx="36.571" cy="12.075" rx="2.344" ry="2.187" transform="translate(12.776 42.358) rotate(-70.113)" fill="#5e403b"/><ellipse cx="21.475" cy="6.614" rx="2.344" ry="2.187" transform="translate(7.95 24.558) rotate(-70.113)" fill="#5e403b"/><ellipse cx="27.38" cy="4.751" rx="2.525" ry="2.33" transform="translate(13.598 28.882) rotate(-70.113)" fill="#5e403b"/><ellipse cx="33.224" cy="6.865" rx="2.525" ry="2.33" transform="translate(15.466 35.773) rotate(-70.113)" fill="#5e403b"/></g></g><g><path d="m6.479,31.928l.023-.456c.154-3.048,1.929-5.603,4.554-6.552h0c2.672-.967,5.727-.09,7.794,2.235l.275.309c2.79,3.139,1.324,6.627-2.282,7.932l-3.54,1.281c-3.648,1.32-7.038-.512-6.824-4.748Z" fill="#5e403b"/><g><ellipse cx="3.611" cy="27.934" rx="2.187" ry="2.344" transform="translate(-9.287 2.894) rotate(-19.887)" fill="#5e403b"/><ellipse cx="18.707" cy="22.473" rx="2.187" ry="2.344" transform="translate(-6.529 7.704) rotate(-19.887)" fill="#5e403b"/><ellipse cx="12.802" cy="20.61" rx="2.33" ry="2.525" transform="translate(-6.247 5.584) rotate(-19.887)" fill="#5e403b"/><ellipse cx="6.958" cy="22.724" rx="2.33" ry="2.525" transform="translate(-7.315 3.722) rotate(-19.887)" fill="#5e403b"/></g></g></svg>