<?xml version="1.0" encoding="UTF-8"?><svg id="a" xmlns="http://www.w3.org/2000/svg" viewBox="0 0 40 40"><rect y="0" width="40" height="40" transform="translate(40 40) rotate(-180)" fill="none" opacity=".1"/><g><path d="M22.249,11.551l-1.54-.738c.097-.2,2.441-4.906,7.045-6.217,2.665-.759,5.498-.22,8.423,1.597l-.909,1.434c-2.493-1.549-4.858-2.019-7.031-1.407-3.866,1.095-5.968,5.288-5.989,5.331Z" fill="orange"/><path d="M26.212,11.826l-5.426-3.371,1.379-2.174c.899-1.416,2.787-1.844,4.219-.955l.243,.151c1.431,.889,1.863,2.758,.965,4.175l-1.379,2.174Z" fill="#3f3f3f"/><ellipse cx="17.725" cy="21.881" rx="15.979" ry="15.812" fill="#3f3f3f"/></g><path d="M39.275,5.428l-2.293-.764,1.081-2.162c.091-.182-.102-.374-.283-.283l-2.162,1.081-.764-2.293c-.064-.193-.337-.193-.401,0l-.764,2.293-2.162-1.081c-.182-.091-.374,.102-.283,.283l1.081,2.162-2.293,.764c-.193,.064-.193,.337,0,.401l2.293,.764-1.081,2.162c-.091,.182,.102,.374,.283,.283l2.162-1.081,.764,2.293c.064,.193,.337,.193,.401,0l.764-2.293,2.162,1.081c.182,.091,.374-.102,.283-.283l-1.081-2.162,2.293-.764c.193-.064,.193-.337,0-.401Z" fill="#ef4452"/></svg>