<svg id="Layer_1" data-name="Layer 1" xmlns="http://www.w3.org/2000/svg" viewBox="0 0 40 40"><defs><style>.cls-1,.cls-4{fill:#ec4452;}.cls-1,.cls-3{fill-rule:evenodd;}.cls-2,.cls-3{fill:#595959;}.cls-5{fill:none;}</style></defs><path class="cls-1" d="M16.672,17.358H6.689V4.281a1.583,1.583,0,0,1,2.218-1.45L14.2,5.148a4.131,4.131,0,0,1,2.473,3.784Z"/><path class="cls-2" d="M5.025,37.3H18.336V19.025a1.667,1.667,0,0,0-1.667-1.667H6.692a1.667,1.667,0,0,0-1.667,1.667Z"/><path class="cls-3" d="M34.975,25.677H21.664V10.7a6.656,6.656,0,1,1,13.311,0Z"/><rect class="cls-2" x="21.664" y="32.333" width="13.311" height="4.97"/><rect class="cls-4" x="21.664" y="25.678" width="13.311" height="6.656"/><rect class="cls-5" width="40" height="40"/></svg>