<svg id="Layer_1" data-name="Layer 1" xmlns="http://www.w3.org/2000/svg" viewBox="0 0 40 40"><defs><style>.cls-1{fill:#ac8074;}.cls-2{fill:#fff;}.cls-3{fill:none;}</style></defs><path class="cls-1" d="M38.008,10.7a6.946,6.946,0,0,0-13.3-2.382,1.744,1.744,0,0,1-1.6,1.071l-6.17-.032A1.741,1.741,0,0,1,15.36,8.3,6.994,6.994,0,0,0,1.992,10.7H1.971v9.781A15.367,15.367,0,0,0,17.337,35.85h5.326A15.367,15.367,0,0,0,38.029,20.484V10.7Z"/><circle cx="13.223" cy="17.151" r="1.843"/><circle cx="26.777" cy="17.151" r="1.843"/><path class="cls-2" d="M20,25.818a4.556,4.556,0,0,1,4.026,2.454c.723-1.13.436-2.851.436-4.78,0-3.4-.864-6.163-4.446-6.163s-4.447,2.759-4.447,6.163c0,1.953-.355,3.69.384,4.82A4.556,4.556,0,0,1,20,25.818Z"/><path d="M22.658,21.345a1.039,1.039,0,0,1,.794,1.536A4.033,4.033,0,0,1,16.586,23a1.066,1.066,0,0,1,.738-1.65Z"/><rect class="cls-3" width="40" height="40"/></svg>