<svg id="Layer_1" data-name="Layer 1" xmlns="http://www.w3.org/2000/svg" viewBox="0 0 40 40"><defs><style>.cls-1{fill:#e77f77;}.cls-2{fill:#a84d4d;}.cls-3{fill:none;}</style></defs><path class="cls-1" d="M36.786,22.805c-.543.538.581,1.126.357,1.753a7.868,7.868,0,0,0-.4,3.653,1.541,1.541,0,0,1-1.088,1.7,7.916,7.916,0,0,0-4.973,4.5,1.61,1.61,0,0,1-1.838.915,7.912,7.912,0,0,0-6.512,1.424,1.611,1.611,0,0,1-2.049-.126A7.909,7.909,0,0,0,13.936,34.6a1.543,1.543,0,0,1-1.7-1.088,7.915,7.915,0,0,0-4.5-4.974A1.61,1.61,0,0,1,6.821,26.7a7.9,7.9,0,0,0,.06-3.151A7.865,7.865,0,0,0,5.4,20.19a1.611,1.611,0,0,1,.126-2.049,7.912,7.912,0,0,0,1.628-2.7,7.868,7.868,0,0,0,.4-3.653,1.545,1.545,0,0,1,1.088-1.7,7.915,7.915,0,0,0,4.974-4.5,1.609,1.609,0,0,1,1.837-.915,7.9,7.9,0,0,0,3.151.06A7.872,7.872,0,0,0,21.957,3.25a1.611,1.611,0,0,1,2.049.126A7.912,7.912,0,0,0,26.705,5a7.868,7.868,0,0,0,3.653.4,1.545,1.545,0,0,1,1.7,1.088,7.913,7.913,0,0,0,4.213,4.845,2.074,2.074,0,0,1,1.142,2.277,7.9,7.9,0,0,0,0,2.84c.144.784-.994,1.51-.438,2.174Z"/><path class="cls-2" d="M23.564,19.267l-4.652-2.134c-.286-.131-.664.016-.662.258l.035,5.948c0,.249.4.39.684.241l4.624-2.444a.289.289,0,0,0,.174-.246l-.009-1.371A.292.292,0,0,0,23.564,19.267Z"/><path class="cls-1" d="M6.813,18.578,3.192,16.2A1.474,1.474,0,0,0,.915,17.259a25.692,25.692,0,0,0,.145,5.5A1.474,1.474,0,0,0,3.4,23.776l3.434-2.524a.43.43,0,0,0,.177-.35V18.941A.434.434,0,0,0,6.813,18.578Z"/><path class="cls-2" d="M37.411,25.257a1.6,1.6,0,0,0,1.07-2.791,2.1,2.1,0,0,1,.024-3.149l.126-.109a1.6,1.6,0,0,0-2.106-2.41l-.123.108a5.3,5.3,0,0,0-.06,7.942A1.6,1.6,0,0,0,37.411,25.257Z"/><circle cx="29.509" cy="11.904" r="1.833"/><rect class="cls-3" width="40" height="40"/></svg>