<svg id="Layer_1" data-name="Layer 1" xmlns="http://www.w3.org/2000/svg" viewBox="0 0 40 40"><defs><style>.cls-1{fill:#fdbec2;}.cls-2{fill:#fa878f;}.cls-3{fill:#ec4452;}.cls-4{fill:none;}</style></defs><path class="cls-1" d="M17.842,34.421a3.862,3.862,0,0,0,4.316,0c3.579-2.4,10.657-7.655,13.766-13.51,4.251-8.006-.741-15.991-7.338-15.991a8.735,8.735,0,0,0-7.272,3.65,1.625,1.625,0,0,1-2.628,0,8.735,8.735,0,0,0-7.272-3.65c-6.6,0-11.589,7.985-7.338,15.991C7.185,26.766,14.263,32.02,17.842,34.421Z"/><path class="cls-2" d="M18.719,30.51a2.321,2.321,0,0,0,2.562,0c2.472-1.633,7.858-5.534,10.176-9.9C34.516,14.85,30.924,9.1,26.177,9.1a6.287,6.287,0,0,0-5.234,2.629,1.165,1.165,0,0,1-1.886,0A6.287,6.287,0,0,0,13.823,9.1c-4.747,0-8.339,5.746-5.28,11.506C10.861,24.976,16.247,28.877,18.719,30.51Z"/><path class="cls-3" d="M19.2,26.584a1.452,1.452,0,0,0,1.6,0c1.549-1.023,4.923-3.467,6.375-6.2,1.916-3.608-.334-7.207-3.307-7.207a3.936,3.936,0,0,0-3.279,1.647.731.731,0,0,1-1.182,0,3.936,3.936,0,0,0-3.279-1.647c-2.973,0-5.223,3.6-3.307,7.207C14.275,23.117,17.649,25.561,19.2,26.584Z"/><rect class="cls-4" width="40" height="40"/></svg>