<?xml version="1.0" encoding="UTF-8"?><svg id="Layer_1" xmlns="http://www.w3.org/2000/svg" viewBox="0 0 40 40"><path d="M31.95361,24.78314c1.64233,0,2.97375-1.29834,2.97375-2.89996s-1.33142-2.89996-2.97375-2.89996l-.00061,.00006h-.7298c1.48743-.15527,2.65039-1.37256,2.65039-2.8689,0-1.60156-1.32715-2.89984-2.96429-2.89984l-.00311,.00031h-1.95453v-.00031h-10.81812l2.0188-6.8595-.00891-.00433c.55652-1.40247,.02832-3.03497-1.3172-3.81183-1.47888-.85382-3.36987-.34711-4.22369,1.13171l-7.89459,13.52777,.00769,.0011c-1.04248,1.85736-1.64301,3.99591-1.64301,6.27734,0,7.09827,5.75427,12.85254,12.85254,12.85254h11.02649v-.00879h.00195v-.00006c1.64233,0,2.97375-1.29834,2.97375-2.89996,0-1.49518-1.16473-2.71167-2.65515-2.86865h1.18134v-.00006c1.64233,0,2.97375-1.29834,2.97375-2.89996,0-1.49518-1.16473-2.71167-2.65515-2.86865h1.18146v-.00006Z" style="fill:#c3846c;"/><rect width="40" height="40" style="fill:none;"/></svg>