<?xml version="1.0" encoding="UTF-8"?><svg id="Layer_1" xmlns="http://www.w3.org/2000/svg" viewBox="0 0 40 40"><g><path d="m22.881,12.595c-.099-.577.039-1.174.388-1.643.238-.319.45-.482.45-.482,1.266-1.129,1.664-2.686,1.776-3.298.018-.099.141-.132.207-.056.481.56,1.983,2.09,4.293,2.433,2.2.327,3.232,1.788,2.938,3.493-.404,1.567-1.474,2.836-2.865,3.493.628.157,1.229.374,1.791.656,1.24-.203,1.974-.489,2.383-.737.331-.201.539-.556.548-.944.078-3.336-.416-6.215-.914-7.575-.67-1.825-2.669-3.842-5.287-4.114s-3.791,1.428-3.791,1.428c-4.267,1.87-3.464,10.693-3.464,10.693,0,0,.214.786,2.69,1.224.563-.277,1.164-.492,1.793-.645-1.508-.723-2.634-2.169-2.936-3.927Z" fill="#f80"/><path d="m31.86,17.192c-.562-.282-1.163-.499-1.791-.656-.647.306-1.357.492-2.114.492-.766,0-1.484-.192-2.138-.506-.628.153-1.23.367-1.793.645-1.804.889-3.222,2.376-3.97,4.184,2.695.035,4.867,2.28,4.827,4.991-.042,0-.075-.009-.116-.01.477.281.796.776.796,1.344,0,.877-.757,1.588-1.691,1.59-.364.823-.988,1.497-1.761,1.944,1.947.823,3.313,2.75,3.313,4.997h10.94v-11.946c0-3.067-1.825-5.728-4.502-7.07Z" fill="#482ec4"/><path d="m32.934,13.043c.294-1.705-.738-3.167-2.938-3.493-2.31-.343-3.812-1.873-4.293-2.433-.065-.076-.189-.043-.207.056-.112.612-.51,2.169-1.776,3.298,0,0-.212.162-.45.482-.35.469-.487,1.067-.388,1.643.302,1.758,1.428,3.204,2.936,3.927.654.313,1.371.506,2.138.506.757,0,1.467-.186,2.114-.492,1.391-.658,2.461-1.927,2.865-3.493Zm-3.503-2.284c.317,0,.574.308.574.688s-.257.688-.574.688-.574-.308-.574-.688.257-.688.574-.688Zm-2.229,3.713h1.429c.129,0,.22.124.186.248-.108.395-.47.686-.9.686s-.792-.291-.9-.686c-.034-.124.057-.248.186-.248Zm-.8-3.713c.317,0,.574.308.574.688s-.257.688-.574.688-.574-.308-.574-.688.257-.688.574-.688Z" fill="#ffc84d"/><ellipse cx="26.401" cy="11.447" rx=".574" ry=".688"/><path d="m29.431,12.135c.317,0,.574-.308.574-.688s-.257-.688-.574-.688-.574.308-.574.688.257.688.574.688Z"/><path d="m27.916,15.405c.43,0,.792-.291.9-.686.034-.124-.057-.248-.186-.248h-1.429c-.129,0-.22.124-.186.248.109.395.47.686.9.686Z" fill="#5c2f17"/></g><g><path d="m7.049,12.595c-.099-.577.039-1.174.388-1.643.238-.319.45-.482.45-.482,1.266-1.129,1.664-2.686,1.776-3.298.018-.099.141-.132.207-.056.481.56,1.983,2.09,4.293,2.433,2.199.327,3.232,1.788,2.938,3.493-.404,1.567-1.474,2.836-2.864,3.493.628.157,1.229.374,1.791.656,1.24-.203,1.974-.489,2.383-.737.331-.201.539-.556.548-.944.078-3.336-.416-6.215-.914-7.575-.67-1.825-2.669-3.842-5.287-4.114-2.618-.272-3.791,1.428-3.791,1.428-4.267,1.87-3.464,10.693-3.464,10.693,0,0,.214.786,2.69,1.224.563-.277,1.164-.492,1.793-.645-1.508-.723-2.634-2.169-2.936-3.927Z" fill="#f80"/><path d="m17.89,31.211c-.774-.448-1.397-1.121-1.761-1.944-.934-.002-1.691-.713-1.691-1.59,0-.522.271-.98.685-1.271-.008-.213-.004-.429.017-.649.215-2.282,2.04-4.135,4.319-4.379.164-.018.325-.024.486-.025-.74-1.791-2.137-3.268-3.917-4.16-.562-.282-1.163-.499-1.791-.656-.647.306-1.357.492-2.114.492-.766,0-1.484-.192-2.138-.506-.628.153-1.23.367-1.793.645-2.705,1.333-4.555,4.007-4.555,7.094v11.946h10.94c0-2.246,1.366-4.174,3.313-4.997Z" fill="#482ec4"/><path d="m17.102,13.043c.294-1.705-.738-3.167-2.938-3.493-2.31-.343-3.812-1.873-4.293-2.433-.065-.076-.189-.043-.207.056-.112.612-.51,2.169-1.776,3.298,0,0-.212.162-.45.482-.35.469-.487,1.067-.388,1.643.302,1.758,1.428,3.204,2.936,3.927.654.313,1.371.506,2.138.506.757,0,1.467-.186,2.114-.492,1.391-.658,2.461-1.927,2.864-3.493Zm-3.503-2.284c.317,0,.574.308.574.688s-.257.688-.574.688-.574-.308-.574-.688.257-.688.574-.688Zm-2.229,3.713h1.429c.129,0,.22.124.186.248-.109.395-.47.686-.9.686s-.792-.291-.9-.686c-.034-.124.057-.248.186-.248Zm-.8-3.713c.317,0,.574.308.574.688s-.257.688-.574.688-.574-.308-.574-.688.257-.688.574-.688Z" fill="#ffc84d"/><path d="m10.569,12.135c.317,0,.574-.308.574-.688s-.257-.688-.574-.688-.574.308-.574.688.257.688.574.688Z"/><ellipse cx="13.599" cy="11.447" rx=".574" ry=".688"/><path d="m12.084,15.405c.43,0,.792-.291.9-.686.034-.124-.057-.248-.186-.248h-1.429c-.129,0-.22.124-.186.248.108.395.47.686.9.686Z" fill="#5c2f17"/></g><g><path d="m22.11,31.211c-.623.361-1.337.583-2.11.583s-1.486-.222-2.11-.583c-1.947.823-3.313,2.75-3.313,4.997h10.845c0-2.246-1.366-4.174-3.313-4.997Z" fill="#64a7ff"/><path d="m24.77,26.33c-.49-.01-.91-.09-1.26-.21-1.28-.43-1.72-1.36-1.72-1.36,0,0-.85,1.01-1.79,1.01s-1.88-1.01-1.88-1.01c-.56.72-1.16,1.12-1.67,1.36-.76.35-1.33.32-1.33.32v-.03c-.41.29-.68.74-.68,1.27,0,.87.75,1.58,1.69,1.59.36.82.99,1.49,1.76,1.94.62.36,1.34.58,2.11.58s1.49-.22,2.11-.58c.77-.45,1.4-1.12,1.76-1.94.94-.01,1.69-.72,1.69-1.59,0-.57-.32-1.07-.79-1.35Zm-5.96,1.56c-.25,0-.45-.24-.45-.54s.2-.54.45-.54.45.24.45.54-.2.54-.45.54Zm1.19,2.33c-.34,0-.62-.23-.71-.54-.02-.1.05-.19.15-.19h1.12c.1,0,.17.09.15.19-.09.31-.37.54-.71.54Zm1.19-2.33c-.25,0-.45-.24-.45-.54s.2-.54.45-.54.45.24.45.54-.2.54-.45.54Z" fill="#ffc84d"/><path d="m18.81,27.893c.249,0,.451-.242.451-.541s-.202-.541-.451-.541-.451.242-.451.541.202.541.451.541Z"/><path d="m21.19,27.893c.249,0,.451-.242.451-.541s-.202-.541-.451-.541-.451.242-.451.541.202.541.451.541Z"/><path d="m20,30.219c.338,0,.622-.228.707-.538.027-.098-.045-.195-.146-.195h-1.122c-.101,0-.173.097-.146.195.085.31.37.538.707.538Z" fill="#5c2f17"/><path d="m15.14,25.757c-.021.219-.024.436-.017.649,0,.012-.002.025,0,.038,0,0,.572.026,1.332-.328.51-.237,1.102-.641,1.671-1.354,0,0,.939,1.012,1.875,1.012s1.791-1.012,1.791-1.012c0,0,.438.93,1.716,1.362.352.119.769.197,1.259.21.041,0,.074.01.116.01.04-2.711-2.132-4.956-4.827-4.991-.037,0-.073,0-.11,0-.161.002-.322.008-.486.025-2.279.245-4.104,2.097-4.319,4.379Z" fill="#f80"/></g></svg>