<?xml version="1.0" encoding="UTF-8"?><svg id="Layer_1" xmlns="http://www.w3.org/2000/svg" viewBox="0 0 40 40"><g><path d="m16.247,16.236c-.137.468-.473.874-.953,1.085-.865.379-1.872-.015-2.251-.878l-3.928-8.958-5.054-1.482c-.905-.265-1.424-1.215-1.159-2.12s1.215-1.424,2.12-1.159l5.818,1.706c.485.142.882.491,1.084.953l4.247,9.687c.168.383.184.795.075,1.166Z" fill="#65778e"/><path d="m13.385,10.371c-.134.457-.456.854-.921,1.07l-4.249,1.972c-.855.397-1.871.025-2.268-.831-.399-.857-.025-1.871.831-2.268l4.249-1.972c.855-.397,1.871-.025,2.268.831.182.391.203.815.09,1.198Z" fill="#65778e"/><path d="m5.251,26.61h4.288c-3.865-.376-4.806-3.435-5.025-5.198-.055-.44.44-.758.81-.514,2.269,1.496,4.844.436,4.844.436-3.447-.073-4.671-2.74-5.063-4.028-.104-.342.159-.684.517-.684h6.988c.339,0,.593-.31.526-.642l-.552-2.761c-.075-.376.257-.707.632-.632l3.563.717c.349.07.669-.213.641-.568l-.184-2.357c-.027-.341.274-.632.612-.579,5.591.873,7.26,5.653,7.624,7.011.058.216-.024.439-.205.571l-3.216,2.33c-.114.082-.19.2-.214.338l-3.68,7.474,16.223,1.908-9.346,7.372c-.278.219-.686.021-.686-.332v-3.59s-4.973,3.922-4.973,3.922c-.278.219-.686.021-.686-.332v-1.709s-7.602,2.582-7.602,2.582c-.35-.011-.589-.351-.491-.687l.733-2.516c.097-.335-.147-.659-.495-.685-5.227-.382-6.011-4.694-6.122-6.272-.022-.312.223-.574.536-.574Z" fill="#176b73"/><path d="m31.738,22.218l-1.496,2.028c-.174.236-.524.241-.705.011l-1.603-2.039h3.803Z" fill="#ffb134"/><path d="m26.033,25.962l1.496-2.028c.174-.236.524-.241.705-.011l1.603,2.039h-3.803Z" fill="#ffb134"/><path d="m21.915,16.621h1.909s13.344,0,13.344,0v2.878c0,1.502-1.217,2.719-2.719,2.719h-10.179c-1.034,0-1.872.838-1.872,1.872h0c0,1.034.838,1.872,1.872,1.872h11.007c.705,0,1.29.57,1.292,1.275.005,1.211-.976,2.194-2.186,2.194h-13.751c-3.538,0-6.405-2.868-6.405-6.405h0c0-3.538,2.868-6.405,6.405-6.405h1.283Z" fill="#ffb134"/><circle cx="20.572" cy="16.327" r="3.136" fill="#ffb134"/><circle cx="20.572" cy="16.327" r="1.734" fill="#191f28"/><path d="m32.68,16.621c0-1.239,1.004-2.244,2.244-2.244,1.239,0,2.244,1.004,2.244,2.244h-4.487Z" fill="#ec6700"/></g><rect width="40" height="40" fill="none"/></svg>