<?xml version="1.0" encoding="UTF-8"?><svg id="Layer_1" xmlns="http://www.w3.org/2000/svg" viewBox="0 0 40 40"><polygon points="30.56 22.75 30.37 33.84 27.43 33.84 26.94 25.7 26.45 33.84 23.51 33.84 23.32 22.75 30.56 22.75" fill="#6d7681"/><path d="m32.903,17.736l-.741-2.954c-.15-1.2-.975-2.208-2.122-2.591l-2.379-.795v.246c0,.436-.354.79-.79.79s-.79-.354-.79-.79v-.233l-2.505.848c-1.031.349-1.808,1.207-2.053,2.268l-1.175,3.408.444.121,2.011.548.572.156-.293,3.993h7.726l-.362-4.024.303-.122,1.953-.788.2-.081Z" fill="#d0d4d9"/><g><g><path d="m22.461,35.209c-.239.212-.379.514-.389.833v.256c0,.345.424.626.947.626h1.012c.669.037,1.318-.229,1.769-.724l.27-.36c.067-.086.104-.191.105-.3v-1.701h-2.301l-1.413,1.37Z" fill="#313c50"/><path d="m27.813,35.541c.001.109.038.214.105.3l.27.36c.45.493,1.097.759,1.764.723h1.011c.524,0,.948-.281.948-.626v-.256c-.01-.319-.151-.62-.389-.833l-1.413-1.37h-2.296v1.702Z" fill="#313c50"/></g><g><path d="m8.884,35.188c-.238.213-.379.515-.389.834v.255c0,.346.424.626.948.626h1.011c.666.036,1.314-.229,1.764-.722l.27-.36c.067-.086.104-.191.105-.3v-1.701l-2.3.003-1.409,1.365Z" fill="#313c50"/><path d="m14.241,35.521c0,.108.035.214.1.3l.27.36c.45.492,1.098.757,1.764.722h1.012c.523,0,.947-.28.947-.626v-.255c-.01-.32-.15-.621-.389-.834l-1.409-1.365-2.295-.003v1.701Z" fill="#313c50"/></g></g><path d="m9.658,22.142l.048,4.654c.004.142.12.255.262.255h6.871c.144,0,.261-.115.263-.259l-.032-4.65h-7.412Z" fill="#d74f21"/><path d="m19.35,17.723l-.742-2.954c-.149-1.2-.974-2.208-2.121-2.591l-2.407-.804v.252c0,.436-.354.79-.79.79s-.79-.354-.79-.79v-.221l-2.477.835c-1.031.349-1.808,1.208-2.053,2.269l-1.176,3.407.446.122,2.01.548.572.156-.293,3.4h7.726l-.363-3.429.305-.123,1.954-.787.198-.08Z" fill="#e98d90"/><g><g><path d="m24.021,9.431l-.758.569c-.032.024-.06.054-.083.088-.107.163-.062.382.101.489l.672.445c.027.018.056.032.086.041.186.06.386-.041.446-.227l.173-.534c-.259-.251-.468-.547-.636-.871Z" fill="#ffdb87"/><path d="m29.543,10.836c.06.186.259.288.444.228.031-.01.06-.024.087-.042l.673-.445c.163-.107.207-.326.1-.489-.022-.034-.05-.064-.083-.088l-.803-.603c-.16.317-.357.612-.605.861l.187.577Z" fill="#ffdb87"/><path d="m23.678,7.571s.408-.249.942-.628c.836-.593,1.983-1.508,2.38-2.309,0,0,.734,1.85,2.238,2.377.329.115.693.17,1.095.125.044-.006.087-.018.128-.035.1-.054.186-.148.266-.161.014-.002.029-.007.042-.003.024-1.765-1.14-3.327-2.839-3.807-.203-.052-.414-.059-.62-.022l-.338.056c-.066.01-.134.01-.2,0l-.173-.023c-.382-.055-.773-.009-1.132.133-1.329.541-2.249,1.773-2.393,3.2-.017.18-.022.362-.014.543,0,0,.022-.005.06-.002.107.009.342.087.558.556Z" fill="#ffdb87"/></g><path d="m10.272,8.265c-.059-.339.023-.688.228-.965.074-.104.161-.199.259-.282.546-.517.912-1.196,1.043-1.937.003-.016.011-.03.023-.04.029-.025.074-.022.099.008.649.755,1.54,1.26,2.521,1.428,1.291.192,1.898,1.051,1.727,2.051-.243,1.077-1.054,1.92-2.092,2.22v.396c.982-.016,1.954-.218,2.859-.612.195-.117.317-.326.322-.554.067-1.502-.115-3.005-.537-4.448-.52-1.309-1.708-2.234-3.105-2.416-.838-.134-1.685.185-2.226.839-2.506,1.098-2.034,6.279-2.034,6.279,0,0,.2.757,3.141.873v-.335c-1.149-.296-2.061-1.257-2.228-2.505Z" fill="#ffdb87"/></g><g><g><path d="m20.002,21.388l.981,4.138c.003.038.003.077,0,.115,0,.016.012.03.014.047,0,.034-.01.064-.01.1,0,.039-.004.077-.011.115-.036.551-.456.993-.998,1.073.029.005.053.021.082.024.652.066,1.234-.408,1.3-1.06,0,0,0,0,0-.001.032-.375-.12-.743-.408-.986l1.852-6.351-2.011-.548-.791,3.334Z" fill="#ffb582"/><path d="m34.535,25.657c.003-.038.003-.077,0-.115l-1.832-7.725-1.953.788,1.85,6.348c-.287.243-.439.611-.407.986,0,.001,0,.002,0,.003.067.651.649,1.125,1.3,1.058.561-.063.997-.519,1.035-1.082.007-.038.011-.076.012-.114,0-.036.009-.066.009-.1-.001-.017-.014-.03-.014-.047Z" fill="#ffb582"/><path d="m30.73,6.94c-.08.01-.17.11-.27.16-.04.02-.08.03-.13.04-.4.04-.76-.01-1.09-.13-1.51-.53-2.24-2.38-2.24-2.38-.4.81-1.54,1.72-2.38,2.31-.53.38-.94.63-.94.63-.22-.47-.45-.55-.56-.55-.32.23-.53.57-.53.97,0,.7.59,1.26,1.33,1.26.03.06.07.12.1.18.17.32.38.62.64.87.39.38.88.66,1.42.81v.53c0,.44.35.79.79.79s.79-.35.79-.79v-.46c.66-.14,1.24-.46,1.7-.92.24-.25.44-.55.6-.86.03-.05.06-.1.08-.15.74,0,1.34-.56,1.34-1.26,0-.45-.27-.83-.65-1.05Zm-4.22,2.49c.01-.01.02-.01.03-.01h.89c.06,0,.12.06.12.12,0,.02-.01.03-.01.04-.08.31-.4.49-.71.4-.2-.05-.35-.21-.41-.4-.02-.07.02-.14.09-.15Zm-.47-1.27c-.19,0-.35-.19-.35-.42,0-.24.16-.43.35-.43.2,0,.36.19.36.43,0,.23-.16.42-.36.42Zm1.88,0c-.19,0-.35-.19-.35-.42,0-.24.16-.43.35-.43.2,0,.36.19.36.43,0,.23-.16.42-.36.42Z" fill="#ffb582"/></g><g><polygon points="10.293 33.823 10.293 33.823 12.593 33.82 13.132 27.051 10.289 27.051 10.293 33.823" fill="#ffb582"/><polygon points="14.236 33.82 14.241 33.82 16.536 33.823 16.536 33.823 16.484 27.051 13.615 27.051 14.236 33.82" fill="#ffb582"/><path d="m5.464,25.526c-.003.038-.003.077,0,.115,0,.016-.013.03-.014.047,0,.034.01.064.009.1,0,.039.005.077.012.115.037.566.476,1.024,1.04,1.085.65.067,1.232-.406,1.299-1.056,0-.002,0-.003,0-.005.032-.378-.121-.747-.411-.991l1.851-6.35-2.01-.548-1.776,7.488Z" fill="#ffb582"/><path d="m20.976,25.903c.007-.038.01-.076.011-.115,0-.036.01-.066.01-.1-.002-.017-.014-.031-.014-.047.003-.038.003-.077,0-.115l-.981-4.138-.85-3.585-1.954.787,1.85,6.346c-.29.244-.444.613-.412.991,0,0,0,.002,0,.003.067.651.649,1.125,1.3,1.058.015-.002.027-.01.042-.012.543-.08.962-.521.998-1.073Z" fill="#ffb582"/><path d="m14.45,6.48c-.99-.17-1.88-.68-2.53-1.43-.02-.03-.07-.03-.09-.01-.02.01-.02.03-.03.04-.13.74-.49,1.42-1.04,1.94-.1.08-.19.18-.26.28-.2.28-.29.63-.23.97.17,1.24,1.08,2.2,2.23,2.5v.86c0,.43.35.79.79.79s.79-.36.79-.79v-.88c1.04-.3,1.85-1.15,2.09-2.22.17-1-.43-1.86-1.72-2.05Zm-1.68,2.89h.87c.07,0,.12.05.12.11,0,.01-.01.02-.01.03-.08.29-.38.47-.67.39-.19-.05-.33-.2-.38-.39-.02-.06.01-.12.07-.14Zm-.44-1.37c-.18,0-.33-.18-.33-.41,0-.22.15-.4.33-.4.19,0,.34.18.34.4,0,.23-.15.41-.34.41Zm1.78,0c-.18,0-.33-.18-.33-.41,0-.22.15-.4.33-.4.19,0,.34.18.34.4,0,.23-.15.41-.34.41Z" fill="#ffb582"/></g></g><g><g><path d="m26.398,7.737c0-.236-.159-.428-.356-.428s-.356.192-.356.428.159.428.356.428.356-.192.356-.428Z"/><path d="m27.923,8.165c.197,0,.356-.192.356-.428s-.159-.428-.356-.428-.356.192-.356.428.159.428.356.428Z"/></g><g><path d="m12.334,7.188c-.186,0-.337.181-.337.404s.151.404.337.404.337-.181.337-.404-.151-.404-.337-.404Z"/><path d="m14.113,7.188c-.186,0-.337.181-.337.404s.151.404.337.404.337-.181.337-.404-.151-.404-.337-.404Z"/></g></g><g><path d="m26.827,9.981c.309.085.628-.096.714-.404.003-.011.005-.022.005-.033,0-.067-.053-.122-.12-.122h-.887c-.011,0-.021.002-.032.005-.065.018-.103.086-.084.15.054.196.208.35.404.404Z" fill="#56321b"/><path d="m13.643,9.368h-.839c-.01,0-.02.002-.03.004-.061.017-.096.08-.079.141.051.187.197.332.384.384.292.08.593-.092.673-.384.003-.01.004-.02.004-.03,0-.063-.05-.114-.113-.115Z" fill="#56321b"/></g></svg>