<?xml version="1.0" encoding="UTF-8"?><svg id="Layer_1" xmlns="http://www.w3.org/2000/svg" viewBox="0 0 40 40"><rect x="0" width="40" height="40" fill="none"/><g><path d="m2.054,10.294v21.372c0,1.519,1.231,2.75,2.75,2.75h25.055c1.519,0,2.75-1.231,2.75-2.75V13.044c0-1.519-1.231-2.75-2.75-2.75H2.054Z" fill="#ffa300" fill-rule="evenodd"/><path d="m7.642,17.4l-4.601,14.01c-.487,1.482.617,3.007,2.177,3.007h24.735c1.584,0,2.989-1.017,3.484-2.523l4.601-14.01c.487-1.482-.617-3.007-2.177-3.007H11.125c-1.584,0-2.989,1.017-3.484,2.523Z" fill="#ffc33a" fill-rule="evenodd"/><path d="m2.054,10.294h16.081l-3.768-3.768c-.603-.603-1.421-.942-2.274-.942h-7.29c-1.519,0-2.75,1.231-2.75,2.75v1.96Z" fill="#ffa300" fill-rule="evenodd"/></g></svg>