<?xml version="1.0" encoding="UTF-8"?><svg id="Layer_1" xmlns="http://www.w3.org/2000/svg" viewBox="0 0 40 40"><g><g><path d="M22.02155,28.59143l.17719-2.56012c-1.43713-.29938-2.91791-.30316-4.35596-.00952l.21271,2.56964h3.96606Z" style="fill:#e6e6e6;"/><path d="M12.95532,34.80884l1.53912-1.09857c.10571-.07544,.091-.23682-.02661-.29187l-1.80872-.84686c-.07965-.03723-.11761-.12921-.08752-.21179l1.89948-5.21271,.12616-.05084-2.65613,1.00909c-2.03491,.77307-3.71954,2.22485-4.78693,4.08435-.43793,.76294-.71521,1.60736-.92542,2.46155l-.54041,2.19611c-.08173,.33203,.16962,.65271,.51154,.65271h7.21814l-.53021-2.51801c-.01392-.06598,.01257-.13397,.0675-.17316Z" style="fill:#e6e6e6;"/><path d="M34.31165,36.84729l-.54041-2.19617c-.21021-.85419-.48755-1.69861-.92548-2.46149-1.06738-1.8595-2.75195-3.31128-4.78687-4.08435l-2.50439-.95142,1.92151,5.20544c.03052,.08276-.00739,.17511-.08728,.21252l-1.80817,.84656c-.11761,.05505-.13232,.21643-.02661,.29187l1.53918,1.09857c.05487,.03918,.08136,.10718,.06744,.17316l-.53021,2.51801h7.16974c.34192,0,.59326-.32068,.51154-.65271Z" style="fill:#e6e6e6;"/><polygon points="18.05548 28.59143 18.79279 37.5 20 37.5 21.40497 37.5 22.02155 28.59143 18.05548 28.59143" style="fill:#b1b3fb;"/><path d="M27.09314,34.80884l-1.53918-1.09857c-.10571-.07544-.091-.23682,.02661-.29187l1.80817-.84656c.0799-.03741,.1178-.12976,.08728-.21252l-1.92151-5.20544-.0025-.00684-3.33698-1.35107-.0163,.23535-.17719,2.56012-.61658,8.90857h5.2254l.53021-2.51801c.01392-.06598-.01257-.13397-.06744-.17316Z" style="fill:#d4d4d4;"/><path d="M18.05548,28.59143l-.21271-2.56964-.01868-.22583-3.22687,1.30023-.12616,.05084-1.65472,4.54095c1.33929,.05151,2.41156,1.14575,2.41156,2.49774,0,1.2077-.85425,2.2149-1.99121,2.453l.18134,.86127h5.37476l-.7373-8.90857Z" style="fill:#d4d4d4;"/></g><path d="M29.42224,31.79999l.00024,.00262v2.53888c0,.39606-.27808,.71442-.64539,.80774,.15643,.13519,.26062,.32843,.26062,.55139,0,.20221-.08197,.38495-.21381,.51813,.92987-.12408,1.65216-.91394,1.65216-1.87726v-2.53888l-.00024-.00262h-1.05359Z" style="fill:#9e9794;"/><path d="M22.57001,31.65997c0-.68481,.19403-1.33722,.51801-1.92004-.32507,.58344-.51971,1.23627-.51971,1.91559v2.68597c0,1.04901,.85345,1.90253,1.90247,1.90253h.36865c-.15021-.13495-.24872-.32556-.24872-.5434,0-.19879,.08063-.37769,.2085-.51025h-.32843c-.46814,0-.84888-.38068-.84888-.84888v-2.68597c0-.40723,.08655-.80627,.24823-1.17206-.1626,.36627-.25012,.76642-.25012,1.17651h-1.04999Z" style="fill:#9e9794;"/><path d="M12.72052,31.67834c-.24371,0-.47455,.04572-.69733,.11053-1.04303,.30365-1.81006,1.25574-1.81006,2.39685,0,1.38477,1.12262,2.50732,2.50739,2.50732,.17706,0,.34949-.01941,.51617-.05432,1.13696-.2381,1.99121-1.2453,1.99121-2.453,0-1.25122-.92194-2.27051-2.12048-2.45801-.0965-.01508-.19128-.03589-.29108-.03973-.03253-.00122-.06299-.00964-.09583-.00964Zm1.36273,2.50739c0,.75262-.61011,1.36273-1.36273,1.36273s-1.36273-.61011-1.36273-1.36273,.61011-1.36273,1.36273-1.36273,1.36273,.61011,1.36273,1.36273Z" style="fill:#9e9794;"/><circle cx="12.72052" cy="34.18573" r="1.36273" style="fill:#d4d4d4;"/><g><path d="M12.02319,31.78888c.22278-.06482,.45361-.11053,.69733-.11053,.03284,0,.06329,.00842,.09583,.00964,.09979,.00385,.19458,.02466,.29108,.03973,.29944-2.73755,2.16986-5.00653,4.70258-5.85962v-.37555c-.53943-.02301-1.04279-.0542-1.51874-.09131-2.35272,1.2464-4.02771,3.60645-4.26807,6.38763Z" style="fill:#333;"/><path d="M22.21997,25.85999c1.17847,.38947,2.24677,1.08826,3.06641,2.03632l.0036,.00366c-.22681,.06982-.44434,.17419-.65643,.2901-.03247,.01776-.06805,.02673-.10016,.04547-.04224,.02472-.07794,.06122-.11938,.08765-.19238,.1225-.38226,.2514-.55402,.4068-.3186,.29144-.5661,.63959-.77197,1.00995-.32397,.58282-.51801,1.23523-.51801,1.92004h1.04999c0-.4101,.08752-.81024,.25012-1.17651,.11426-.25745,.27747-.48895,.46155-.70477,.0777-.09113,.14929-.18707,.23834-.26868,.50793-.46631,1.14978-.71075,1.82874-.73792,.13647-.00549,.27234-.0155,.41125-.00214,1.46002,.14001,2.60999,1.47003,2.60999,3.03003h1.06c0-2.09998-1.57001-3.89001-3.57001-4.08002-.13995-.01001-.27997-.01996-.41998-.01996-.71075-.96558-1.64362-1.72211-2.6806-2.27386-.49927,.0343-1.02502,.06281-1.58942,.08209v.35175Z" style="fill:#333;"/><path d="M24.83942,36.24402c.13055,.11731,.29919,.19385,.48853,.19385,.40717,0,.73724-.33008,.73724-.73724s-.33008-.73724-.73724-.73724c-.20837,0-.39465,.08801-.52875,.22699-.12787,.13257-.2085,.31146-.2085,.51025,0,.21783,.09851,.40845,.24872,.5434Z" style="fill:#333;"/><path d="M28.7771,35.14923c-.12921-.11169-.29242-.18585-.47662-.18585-.40723,0-.7373,.33008-.7373,.73724s.33008,.73724,.7373,.73724c.20496,0,.38983-.08405,.52344-.21912,.13184-.13318,.21381-.31592,.21381-.51813,0-.22296-.10419-.4162-.26062-.55139Z" style="fill:#333;"/></g><g><path d="M30.11432,9.48779c-1.12939-3.07867-4.50116-6.47937-8.91632-6.93811-4.41516-.45868-6.39337,2.40826-6.39337,2.40826-7.19611,3.15369-5.84235,18.03333-5.84235,18.03333,0,0,.48975,1.87689,7.32898,2.40997,.47595,.03711,.97931,.0683,1.51874,.09131v-1.17255c-3.19-.91003-5.65002-3.66003-6.23999-7.07001-.16998-.97003,.06-1.96002,.64996-2.75,.41003-.53003,.76001-.79999,.76001-.79999,2.14001-1.88,2.81-4.48004,3-5.5,.03003-.17004,.23999-.22003,.35004-.10004,.81,.94,3.33997,3.48999,7.23999,4.06,3.71002,.54999,5.45001,2.98999,4.95001,5.83002-.82001,3.14001-3.23999,5.59998-6.30005,6.39001v1.12823c.56439-.01929,1.09015-.04779,1.58942-.08209,3.9812-.2735,5.95911-.98669,6.92249-1.57227,.55823-.33936,.9093-.93811,.9245-1.59119,.13147-5.62616-.70068-10.48145-1.54205-12.7749Z" style="fill:#333;"/><path d="M28.52002,17.98999c.5-2.84003-1.23999-5.28003-4.95001-5.83002-3.90002-.57001-6.42999-3.12-7.23999-4.06-.11005-.12-.32001-.07001-.35004,.10004-.19,1.01996-.85999,3.62-3,5.5,0,0-.34998,.26996-.76001,.79999-.58997,.78998-.81995,1.77997-.64996,2.75,.58997,3.40997,3.04999,6.15997,6.23999,7.07001v3.5c0,1.20996,.97998,2.19995,2.20001,2.19995,1.21997,0,2.20996-.98999,2.20996-2.19995v-3.44c3.06006-.79004,5.48004-3.25,6.30005-6.39001Z" style="fill:#956759;"/><g><ellipse cx="17.50619" cy="15.40858" rx=".96759" ry="1.16111"/><ellipse cx="22.61509" cy="15.40858" rx=".96759" ry="1.16111"/></g><path d="M21.26533,20.50975c.21693,0,.37088,.20836,.31347,.41756-.18296,.66672-.79335,1.15658-1.51816,1.15658s-1.3352-.48987-1.51816-1.15658c-.05741-.2092,.09654-.41756,.31347-.41756h2.40938Z" style="fill:#5c2f17;"/></g></g><rect width="40" height="40" style="fill:none;"/></svg>