<?xml version="1.0" encoding="UTF-8"?><svg id="Layer_1" xmlns="http://www.w3.org/2000/svg" viewBox="0 0 40 40"><g><g><g><path d="M35.75433,24.46582c-.78827-2.14893-3.14166-4.52246-6.22333-4.84253-3.0816-.32031-4.46234,1.68091-4.46234,1.68091-5.02271,2.20117-4.07782,12.58667-4.07782,12.58667,0,0,.45587,1.78101,7.8598,1.78101,4.5144,0,6.48456-.66211,7.33472-1.17896,.38965-.23682,.63464-.65479,.64532-1.1106,.09174-3.92676-.48914-7.31567-1.07635-8.9165Zm-1.11102,6.01123c-.69641,2.70215-3.05554,4.69116-5.86005,4.69116-2.98376,0-5.46338-2.25122-5.97247-5.21777-.11652-.67871,.04547-1.38208,.45691-1.93433,.28009-.37598,.53015-.56714,.53015-.56714,1.49048-1.32861,1.95892-3.16187,2.09088-3.88232,.02124-.11621,.1665-.15552,.24347-.06567,.5661,.65894,2.33441,2.45947,5.05298,2.86377,2.58905,.38477,3.80457,2.10498,3.45813,4.1123Z" style="fill:#523725;"/><path d="M31.18518,26.36475c-2.71857-.4043-4.48688-2.20483-5.05298-2.86377-.07697-.08984-.22223-.05054-.24347,.06567-.13196,.72046-.6004,2.55371-2.09088,3.88232,0,0-.25006,.19116-.53015,.56714-.41144,.55225-.57343,1.25562-.45691,1.93433,.50909,2.96655,2.98871,5.21777,5.97247,5.21777,2.8045,0,5.16364-1.98901,5.86005-4.69116,.34644-2.00732-.86908-3.72754-3.45813-4.1123Zm-3.46991,2.5354c-.14532,.30566-.5293,.63428-1.1499,.63428-.62067,0-1.00464-.32861-1.14996-.63428-.06726-.1416,.03577-.24561,.16998-.18652,.23279,.10205,.50629,.21094,.97998,.21094,.47363,0,.74719-.10889,.97992-.21094,.13428-.05908,.23724,.04492,.16998,.18652Zm1.49237,4.44897c-.23639,0-.85083-.1272-.88861-.66309-.02094-.2959,.24719-.55957,.44147-.7063-.19427-.14673-.43561-.29224-.41406-.64771,.02942-.48438,.79993-.62085,.90118-.62085,.10419,0,.16895,.01001,.16992,.07324,.00098,.06348-.07513,.08521-.18439,.11792-.33417,.10107-.46588,.29639-.46588,.43555,0,.25342,.24799,.37915,.38873,.46973,.11456,.07373,.18701,.09131,.18982,.15405,.00232,.05347-.07239,.08081-.18933,.15503-.11688,.07422-.37042,.2417-.37042,.52393,0,.21777,.18488,.38208,.44733,.48633,.15741,.0625,.21765,.09009,.20831,.15015-.00934,.05981-.0943,.07202-.23407,.07202Zm2.99835-4.44897c-.14532,.30566-.5293,.63428-1.14996,.63428-.62061,0-1.00458-.32861-1.1499-.63428-.06726-.1416,.03571-.24561,.16998-.18652,.23273,.10205,.50629,.21094,.97992,.21094,.47369,0,.74719-.10889,.97998-.21094,.13422-.05908,.23724,.04492,.16998,.18652Z" style="fill:#c3846c;"/><path d="M27.54529,28.71362c-.23273,.10205-.50629,.21094-.97992,.21094-.47369,0-.74719-.10889-.97998-.21094-.13422-.05908-.23724,.04492-.16998,.18652,.14532,.30566,.5293,.63428,1.14996,.63428,.62061,0,1.00458-.32861,1.1499-.63428,.06726-.1416-.03571-.24561-.16998-.18652Z"/><path d="M32.03601,28.71362c-.23279,.10205-.50629,.21094-.97998,.21094-.47363,0-.74719-.10889-.97992-.21094-.13428-.05908-.23724,.04492-.16998,.18652,.14532,.30566,.5293,.63428,1.1499,.63428,.62067,0,1.00464-.32861,1.14996-.63428,.06726-.1416-.03577-.24561-.16998-.18652Z"/><path d="M29.2334,33.12695c-.26245-.10425-.44733-.26855-.44733-.48633,0-.28223,.25354-.44971,.37042-.52393,.11694-.07422,.19165-.10156,.18933-.15503-.00281-.06274-.07526-.08032-.18982-.15405-.14075-.09058-.38873-.21631-.38873-.46973,0-.13916,.13171-.33447,.46588-.43555,.10925-.03271,.18536-.05444,.18439-.11792-.00098-.06323-.06573-.07324-.16992-.07324-.10126,0-.87177,.13647-.90118,.62085-.02155,.35547,.21979,.50098,.41406,.64771-.19427,.14673-.4624,.4104-.44147,.7063,.03778,.53589,.65222,.66309,.88861,.66309,.13977,0,.22473-.01221,.23407-.07202,.00934-.06006-.0509-.08765-.20831-.15015Z" style="fill:#a84900;"/></g><path d="M19.13241,18.93379c.52719,.34831,1.20798,.34831,1.73517,0,1.6737-1.1058,5.32136-3.74808,6.8914-6.70479,2.07136-3.90081-.36128-7.79168-3.57546-7.79168-1.83247,0-2.93528,.9574-3.5448,1.78053-.32126,.43385-.95618,.43385-1.27744,0-.60952-.82313-1.71233-1.78053-3.5448-1.78053-3.21418,0-5.64683,3.89086-3.57546,7.79168,1.57004,2.95671,5.2177,5.59898,6.8914,6.70479Z" style="fill:#ec4452;"/></g><rect y="0" width="40" height="40" style="fill:none;"/></g><g><g><path d="M17.87439,24.46582c-.78827-2.14893-3.14166-4.52246-6.22333-4.84253-3.08167-.32031-4.4624,1.68091-4.4624,1.68091-5.02264,2.20117-4.07776,12.58667-4.07776,12.58667,0,0,.45587,1.78101,7.8598,1.78101,4.5144,0,6.4845-.66211,7.33472-1.17896,.38965-.23682,.63464-.65479,.64526-1.1106,.09174-3.92676-.48907-7.31567-1.07629-8.9165Zm-1.11102,6.01123c-.69647,2.70215-3.05554,4.69116-5.86005,4.69116-2.98383,0-5.46338-2.25122-5.97253-5.21777-.11646-.67871,.04547-1.38208,.45697-1.93433,.28009-.37598,.53009-.56714,.53009-.56714,1.49054-1.32861,1.95898-3.16187,2.09088-3.88232,.0213-.11621,.1665-.15552,.24353-.06567,.56604,.65894,2.33441,2.45947,5.05298,2.86377,2.58905,.38477,3.80457,2.10498,3.45813,4.1123Z" style="fill:#333;"/><path d="M13.30524,26.36475c-2.71857-.4043-4.48694-2.20483-5.05298-2.86377-.07703-.08984-.22223-.05054-.24353,.06567-.1319,.72046-.60034,2.55371-2.09088,3.88232,0,0-.25,.19116-.53009,.56714-.4115,.55225-.57343,1.25562-.45697,1.93433,.50916,2.96655,2.98871,5.21777,5.97253,5.21777,2.8045,0,5.16357-1.98901,5.86005-4.69116,.34644-2.00732-.86908-3.72754-3.45813-4.1123Zm-3.46997,2.5354c-.14526,.30566-.5293,.63428-1.1499,.63428s-1.00458-.32861-1.1499-.63428c-.06726-.1416,.03571-.24561,.16992-.18652,.23279,.10205,.50635,.21094,.97998,.21094s.74719-.10889,.97998-.21094c.13422-.05908,.23718,.04492,.16992,.18652Zm1.16364,4.44897c-.13977,0-.22473-.01221-.23407-.07202-.00934-.06006,.0509-.08765,.20831-.15015,.26245-.10425,.44733-.26855,.44733-.48633,0-.28223-.25354-.44971-.37042-.52393-.11694-.07422-.19165-.10156-.18933-.15503,.00281-.06274,.07526-.08032,.18982-.15405,.14075-.09058,.38873-.21631,.38873-.46973,0-.13916-.13171-.33447-.46588-.43555-.10925-.03271-.18536-.05444-.18439-.11792,.00098-.06323,.06573-.07324,.16992-.07324,.10126,0,.87177,.13647,.90118,.62085,.02155,.35547-.21979,.50098-.41412,.64771,.19434,.14673,.46246,.4104,.44153,.7063-.03778,.53589-.65222,.66309-.88861,.66309Zm3.32709-4.44897c-.14532,.30566-.5293,.63428-1.1499,.63428s-1.00464-.32861-1.1499-.63428c-.06726-.1416,.03571-.24561,.16992-.18652,.23279,.10205,.50635,.21094,.97998,.21094s.74719-.10889,.97998-.21094c.13422-.05908,.23718,.04492,.16992,.18652Z" style="fill:#6e4944;"/><path d="M9.66534,28.71362c-.23279,.10205-.50635,.21094-.97998,.21094s-.74719-.10889-.97998-.21094c-.13422-.05908-.23718,.04492-.16992,.18652,.14532,.30566,.5293,.63428,1.1499,.63428s1.00464-.32861,1.1499-.63428c.06726-.1416-.03571-.24561-.16992-.18652Z"/><path d="M14.15607,28.71362c-.23279,.10205-.50635,.21094-.97998,.21094s-.74719-.10889-.97998-.21094c-.13422-.05908-.23718,.04492-.16992,.18652,.14526,.30566,.5293,.63428,1.1499,.63428s1.00458-.32861,1.1499-.63428c.06726-.1416-.03571-.24561-.16992-.18652Z"/><path d="M11.44598,31.97974c.19434-.14673,.43567-.29224,.41412-.64771-.02942-.48438-.79993-.62085-.90118-.62085-.10419,0-.16895,.01001-.16992,.07324-.00098,.06348,.07513,.08521,.18439,.11792,.33417,.10107,.46588,.29639,.46588,.43555,0,.25342-.24799,.37915-.38873,.46973-.11456,.07373-.18701,.09131-.18982,.15405-.00232,.05347,.07239,.08081,.18933,.15503,.11688,.07422,.37042,.2417,.37042,.52393,0,.21777-.18488,.38208-.44733,.48633-.15741,.0625-.21765,.09009-.20831,.15015,.00934,.05981,.0943,.07202,.23407,.07202,.23639,0,.85083-.1272,.88861-.66309,.02094-.2959-.24719-.55957-.44153-.7063Z" style="fill:#572600;"/></g><rect y="0" width="40" height="40" style="fill:none;"/></g></svg>