<?xml version="1.0" encoding="UTF-8"?><svg id="Layer_1" xmlns="http://www.w3.org/2000/svg" viewBox="0 0 40 40"><g><path d="m37.934,18.487c0-2.352-1.436-4.373-3.527-5.42.789-2.159.279-4.635-1.583-6.356-1.799-1.663-4.361-2.154-6.64-1.528-1.094-2.042-3.349-3.46-5.982-3.46-2.545,0-4.731,1.327-5.864,3.259-2.336-.729-5.015-.257-6.877,1.463-1.799,1.663-2.33,4.031-1.653,6.138-2.21,1.011-3.743,3.095-3.743,5.529,0,2.352,1.436,4.373,3.527,5.42-.789,2.159-.279,4.635,1.583,6.356,1.799,1.663,4.361,2.154,6.64,1.528,1.094,2.042,3.349,3.46,5.982,3.46,2.545,0,4.731-1.327,5.864-3.259,2.336.729,5.015.257,6.877-1.463,1.799-1.663,2.33-4.031,1.653-6.138,2.21-1.011,3.743-3.095,3.743-5.529Z" fill="#e2e5e8"/><circle cx="6.197" cy="34.876" r="2.847" fill="#e2e5e8"/></g><rect width="40" height="40" fill="none"/></svg>