<?xml version="1.0" encoding="UTF-8"?><svg id="Layer_1" xmlns="http://www.w3.org/2000/svg" viewBox="0 0 40 40"><g><g><path d="M10.08398,30.22729l-.383,1.85693c.43774-.38794,.93475-.71045,1.48151-.94141-.41815-.24219-.78656-.55054-1.09851-.91553Z" style="fill:#5268e9;"/><path d="M24.59845,31.14282c-.77362-.448-1.39703-1.12109-1.76123-1.94434-.93439-.00244-1.69128-.71313-1.69128-1.59009,0-.52173,.27148-.98047,.68512-1.27075-.00757-.21313-.00385-.42944,.01678-.64893,.2149-2.28198,2.04004-4.13452,4.31921-4.37915,.5849-.06299,1.15051-.01733,1.68347,.11304-.8728-2.23853-2.77271-4.00073-5.15729-4.7832-.80792,.55542-1.74939,.88062-2.75909,.88062-1.01025,0-1.95221-.32544-2.76038-.88135-2.39764,.78613-4.30188,2.56445-5.16925,4.81885,.2428-.06641,.49066-.12061,.74658-.14795,2.96338-.31836,5.46564,2.0564,5.42291,4.96509-.04218-.00024-.07465-.00879-.11578-.01001,.47668,.28174,.79584,.77637,.79584,1.34375,0,.87695-.7569,1.58765-1.69128,1.59009-.3642,.82324-.98761,1.49634-1.76123,1.94434,1.94672,.82275,3.31281,2.75024,3.31281,4.99658h2.57129c0-2.24634,1.36609-4.17383,3.31281-4.99658Z" style="fill:#5268e9;"/><path d="M28.8175,31.14282c.52441,.22168,1.00378,.52661,1.42853,.89331l-.37915-1.74927c-.30139,.34009-.65363,.62671-1.04938,.85596Z" style="fill:#5268e9;"/></g><path d="M26.03003,10.28003v.09009l-.77002,.69995c-.15002,.13989-.39001,.03979-.41003-.16016-.02997-.35986-.14996-.85986-.45996-1.32007-.42999-.61987-1.23999-1.15991-2.81-1.13989-3.67004,.05005-4.38-2.11987-4.38-2.11987,0,0-.58002,1.85986-1.28003,3.31006-.23999,.47998-.47998,.90991-.71997,1.21973-.17999,.22021-.51001,.25-.72003,.07007l-.63995-.55005v-.10986c-.34003,.35986-.55005,.83008-.55005,1.33984,0,.9502,.69,1.74023,1.62,1.96021,.44,1.28979,1.24005,2.36987,2.26001,3.07007,.81,.5498,1.75,.87988,2.76001,.87988s1.96002-.33008,2.76001-.87988c1.02997-.7002,1.83002-1.78027,2.26001-3.07007,.94-.21997,1.63-1.01001,1.63-1.96021,0-.50977-.21002-.97998-.54999-1.32983Zm-7.61005,1.61011c-.32001,0-.57001-.31006-.57001-.69019,0-.37988,.25-.68994,.57001-.68994s.57001,.31006,.57001,.68994c0,.38013-.25,.69019-.57001,.69019Zm1.51001,3.76978c-.42999,0-.78998-.28979-.89996-.68994-.03003-.11987,.06-.25,.18994-.25h1.43005c.13,0,.21997,.13013,.17999,.25-.10004,.40015-.47003,.68994-.90002,.68994Zm1.52002-3.76978c-.32001,0-.57001-.31006-.57001-.69019,0-.37988,.25-.68994,.57001-.68994s.57001,.31006,.57001,.68994c0,.38013-.25,.69019-.57001,.69019Z" style="fill:#ffc84d;"/><path d="M18.41943,11.88916c.31689,0,.57379-.30811,.57379-.68848,0-.38013-.2569-.68848-.57379-.68848-.31683,0-.57373,.30835-.57373,.68848,0,.38037,.2569,.68848,.57373,.68848Z"/><path d="M21.44879,11.88916c.31689,0,.57379-.30811,.57379-.68848,0-.38013-.2569-.68848-.57379-.68848-.31683,0-.57373,.30835-.57373,.68848,0,.38037,.2569,.68848,.57373,.68848Z"/><path d="M14.47876,10.92505c.21472,.18335,.54346,.15942,.71765-.0625,.24292-.30981,.48804-.74414,.7196-1.22192,.70435-1.45337,1.28204-3.31152,1.28204-3.31152,0,0,.71002,2.1665,4.38556,2.11938,1.56183-.02002,2.37305,.51978,2.80475,1.14355,.31592,.45654,.43475,.95654,.46515,1.32251,.01654,.19873,.25397,.29053,.40192,.15649l.7757-.7019s.00189-.03809,.00366-.09204c.00861-.25879,.0141-1.09131-.20868-2.16455-.26923-1.29736-1.81128-3.54932-4.67517-4.13672-2.86383-.58765-4.5528,1.26343-4.5528,1.26343-2.84851,.70386-2.79327,4.37012-2.75977,5.03223,.00336,.06616,.00653,.11279,.00653,.11279l.63385,.54077Z" style="fill:#f80;"/><path d="M19.93414,15.65723c.42957,0,.79132-.29004,.90002-.68506,.03424-.12451-.05737-.24829-.18634-.24829h-1.42737c-.12897,0-.22058,.12378-.18634,.24829,.10864,.39502,.47046,.68506,.90002,.68506Z" style="fill:#5c2f17;"/></g><g><path d="M32.13,36.14014h-10.84003c0-2.25,1.36005-4.17017,3.31-5,.62,.35986,1.34003,.58984,2.11005,.58984,.76996,0,1.47998-.22998,2.10999-.58984,.52002,.21973,1,.52979,1.42999,.8999,1.15002,.98999,1.88,2.45996,1.88,4.1001Z" style="fill:#64a7ff;"/><path d="M31.46997,26.26001c-.48999-.01001-.89996-.09009-1.25995-.20996-1.27002-.42993-1.71002-1.36011-1.71002-1.36011,0,0-.85999,1.02002-1.78998,1.02002-.94,0-1.88-1.02002-1.88-1.02002-.57001,.71997-1.16003,1.12012-1.67004,1.36011-.75995,.34985-1.32996,.32983-1.32996,.32983v-.04004c-.41003,.29004-.67999,.75-.67999,1.27002,0,.88013,.75,1.59009,1.69,1.59009,.35999,.82007,.97998,1.48999,1.75995,1.94019,.62,.35986,1.34003,.58984,2.11005,.58984,.76996,0,1.47998-.22998,2.10999-.58984,.39001-.23022,.75-.51025,1.04999-.8501,.28003-.33008,.53003-.68994,.71002-1.09009,.92999,0,1.69-.70996,1.69-1.59009,0-.56982-.32001-1.05981-.80005-1.34985Zm-5.94995,1.57007c-.25,0-.45001-.25-.45001-.55005,0-.29004,.20001-.54004,.45001-.54004s.44995,.25,.44995,.54004c0,.30005-.19995,.55005-.44995,.55005Zm1.19,2.31982c-.34003,0-.62-.22998-.71002-.54004-.03003-.09985,.04999-.18994,.15002-.18994h1.12c.09998,0,.16998,.09009,.14996,.18994-.08997,.31006-.37,.54004-.70996,.54004Zm1.19-2.31982c-.25,0-.45001-.25-.45001-.55005,0-.29004,.20001-.54004,.45001-.54004s.44995,.25,.44995,.54004c0,.30005-.19995,.55005-.44995,.55005Z" style="fill:#ffc84d;"/><path d="M25.96997,27.28003c0,.30005-.19995,.55005-.44995,.55005s-.45001-.25-.45001-.55005c0-.29004,.20001-.54004,.45001-.54004s.44995,.25,.44995,.54004Z"/><path d="M28.34998,27.28003c0,.30005-.19995,.55005-.44995,.55005s-.45001-.25-.45001-.55005c0-.29004,.20001-.54004,.45001-.54004s.44995,.25,.44995,.54004Z"/><path d="M27.41998,29.60986c-.08997,.31006-.37,.54004-.70996,.54004-.34003,0-.62-.22998-.71002-.54004-.03003-.09985,.04999-.18994,.15002-.18994h1.12c.09998,0,.16998,.09009,.14996,.18994Z" style="fill:#5c2f17;"/><path d="M31.59003,26.27002c-.04004,0-.07001,0-.12006-.01001-.48999-.01001-.89996-.09009-1.25995-.20996-1.27002-.42993-1.71002-1.36011-1.71002-1.36011,0,0-.85999,1.02002-1.78998,1.02002-.94,0-1.88-1.02002-1.88-1.02002-.57001,.71997-1.16003,1.12012-1.67004,1.36011-.75995,.34985-1.32996,.32983-1.32996,.32983v-.04004c-.01001-.21973,0-.42993,.01996-.6499,.21002-2.28003,2.04004-4.13989,4.32001-4.37988,.58002-.06006,1.15002-.02002,1.67999,.10986,2.17004,.53003,3.77002,2.52002,3.74005,4.8501Z" style="fill:#f80;"/></g><g><path d="M18.71002,36.14014H7.87c0-1.62012,.71002-3.06006,1.83002-4.06006,.44-.38013,.94-.70996,1.47998-.93994,.63,.35986,1.34003,.58984,2.10999,.58984,.77002,0,1.49005-.22998,2.11005-.58984,1.94995,.82983,3.31,2.75,3.31,5Z" style="fill:#64a7ff;"/><path d="M18.06,26.26001c-.48999-.01001-.90997-.09009-1.26001-.20996-1.27997-.42993-1.71997-1.36011-1.71997-1.36011,0,0-.85004,1.02002-1.79004,1.02002-.92999,0-1.87-1.02002-1.87-1.02002-.57001,.71997-1.15997,1.12012-1.66998,1.36011-.76001,.34985-1.34003,.32983-1.34003,.32983,0-.02002,.01001-.02979,.01001-.04004-.41998,.29004-.69,.75-.69,1.27002,0,.88013,.76001,1.59009,1.69,1.59009,.17004,.38013,.40002,.71997,.66003,1.03003,.32001,.35986,.67999,.66992,1.09998,.91016,.63,.35986,1.34003,.58984,2.10999,.58984,.77002,0,1.49005-.22998,2.11005-.58984,.77997-.4502,1.39996-1.12012,1.75995-1.94019,.94,0,1.69-.70996,1.69-1.59009,0-.56982-.31995-1.05981-.78998-1.34985Zm-5.96002,1.57007c-.25,0-.44995-.25-.44995-.55005,0-.29004,.19995-.54004,.44995-.54004s.45001,.25,.45001,.54004c0,.30005-.20001,.55005-.45001,.55005Zm1.19,2.31982c-.33997,0-.62-.22998-.70996-.54004-.02002-.09985,.04999-.18994,.14996-.18994h1.12c.10004,0,.18005,.09009,.15002,.18994-.09003,.31006-.37,.54004-.71002,.54004Zm1.19-2.31982c-.25,0-.44995-.25-.44995-.55005,0-.29004,.19995-.54004,.44995-.54004s.45001,.25,.45001,.54004c0,.30005-.20001,.55005-.45001,.55005Z" style="fill:#ffc84d;"/><path d="M12.54999,27.28003c0,.30005-.20001,.55005-.45001,.55005s-.44995-.25-.44995-.55005c0-.29004,.19995-.54004,.44995-.54004s.45001,.25,.45001,.54004Z"/><path d="M14.92999,27.28003c0,.30005-.20001,.55005-.45001,.55005s-.44995-.25-.44995-.55005c0-.29004,.19995-.54004,.44995-.54004s.45001,.25,.45001,.54004Z"/><path d="M14,29.60986c-.09003,.31006-.37,.54004-.71002,.54004-.33997,0-.62-.22998-.70996-.54004-.02002-.09985,.04999-.18994,.14996-.18994h1.12c.10004,0,.18005,.09009,.15002,.18994Z" style="fill:#5c2f17;"/><path d="M18.16998,26.27002c-.03998,0-.07001,0-.10999-.01001-.48999-.01001-.90997-.09009-1.26001-.20996-1.27997-.42993-1.71997-1.36011-1.71997-1.36011,0,0-.85004,1.02002-1.79004,1.02002-.92999,0-1.87-1.02002-1.87-1.02002-.57001,.71997-1.15997,1.12012-1.66998,1.36011-.76001,.34985-1.34003,.32983-1.34003,.32983,0-.02002,.01001-.02979,.01001-.04004-.01001-.21973-.01001-.42993,.01001-.6499,.19-2.03003,1.65002-3.70996,3.57001-4.22998,.25-.06982,.5-.12012,.75-.1499,2.96002-.32007,5.46997,2.06006,5.41998,4.95996Z" style="fill:#f80;"/></g></svg>