<svg id="Layer_1" data-name="Layer 1" xmlns="http://www.w3.org/2000/svg" viewBox="0 0 40 40"><defs><style>.cls-1{fill:#cb8c00;}.cls-2{fill:#ffc84d;}.cls-3{fill:none;}</style></defs><path class="cls-1" d="M6.968,32.855a6.991,6.991,0,0,0,7.838.871c4.428-2.306,1.42-5.032,1.42-5.032Z"/><path class="cls-1" d="M33.04,32.855a6.991,6.991,0,0,1-7.838.871c-4.428-2.306-1.42-5.032-1.42-5.032Z"/><path class="cls-2" d="M34.384,25.246,32.41,21.877a33.444,33.444,0,0,1-4.142-11.441h0A8.294,8.294,0,0,0,20.086,3.5h-.172a8.294,8.294,0,0,0-8.182,6.936h0A33.444,33.444,0,0,1,7.59,21.877L5.6,25.28a4.816,4.816,0,0,0-.694,2.1,7.116,7.116,0,0,0,2.066,5.475c.441.445,1.013.193,1.674-.253.678-.458,1.73-1.7,3.1-1.446,2.156.406,3.221,2.742,4.105,3.6l.031.031.188.184H16.1a5.735,5.735,0,0,0,7.795,0h.021l.12-.117c.054-.054.107-.107.163-.161.872-.836,1.937-3.141,4.041-3.538,1.376-.259,2.422,1,3.108,1.45.755.494,1.233.7,1.675.255a7.127,7.127,0,0,0,2.087-5.047A5.149,5.149,0,0,0,34.384,25.246Z"/><rect class="cls-3" width="40" height="40"/></svg>