<?xml version="1.0" encoding="UTF-8"?><svg id="Layer_1" xmlns="http://www.w3.org/2000/svg" viewBox="0 0 40 40"><g><path d="M33.349,36.89117l-.50409-2.0484c-.19604-.79675-.45471-1.58435-.86316-2.29596-.99561-1.73438-2.56689-3.0885-4.4649-3.80957l-3.94324-1.49811c-.49133-.18665-.995-.32495-1.5036-.43195v1.66278c0,1.13-.91998,2.04999-2.06,2.04999-1.13,0-2.04999-.91998-2.04999-2.04999v-1.66974c-.51886,.10748-1.03259,.2486-1.53363,.4389l-3.94318,1.49805c-1.89807,.72113-3.46936,2.07526-4.46497,3.80963-.40845,.71161-.66711,1.49927-.86316,2.29602l-.50409,2.04834c-.07617,.30969,.15826,.60883,.47717,.60883h25.74371c.31891,0,.55334-.29913,.47711-.60883Z" style="fill:#d9d9d9;"/><g><path d="M29.67664,14.85352c-.22766-.04913-.4762,.25055-.7713,.41675-.11365,.04865-.22882,.08325-.32855,.08984-4.53009,.30084-11.39398-5.21167-11.39398-5.21167l-5.41821,6.06281c-.11353,.12701-.31433,.09351-.39655-.05573-.54681-.99286-1.10724-1.1051-1.32635-1.10669l-.00592-.00262c-.78113,.58948-1.28577,1.4881-1.28577,2.50378,0,1.77002,1.52002,3.21002,3.40997,3.21997,1.06,2.40002,3.20001,4.23004,5.80005,4.86005v2.83997c0,1.13,.91998,2.04999,2.04999,2.04999,1.14001,0,2.06-.91998,2.06-2.04999v-2.83997c2.58997-.65002,4.71997-2.47003,5.77002-4.86005,1.88995-.00995,3.40997-1.44995,3.40997-3.21997,0-1.13538-.62878-2.12421-1.57336-2.69647Z" style="fill:#ffcca8;"/><path d="M11.36804,16.15552c.08221,.14923,.28302,.18274,.39655,.05573l5.41821-6.06281s6.86389,5.51251,11.39398,5.21167c.09973-.00659,.2149-.0412,.32855-.08984,.2951-.1662,.54364-.46588,.7713-.41675,.00537,.00116,.01105-.00269,.01636-.00116,.09039-6.1463-5.43628-11.11456-11.77637-9.92743-3.95935,.74133-7.12842,3.94611-7.82343,7.91388-.12524,.71527-.17352,1.41986-.15161,2.10669,.00165,.05243,.04266,.09656,.09418,.10071l.00592,.00262c.21912,.00159,.77954,.11383,1.32635,1.10669Z" style="fill:#333;"/><g><ellipse cx="17.59191" cy="16.89551" rx=".91215" ry="1.09458"/><ellipse cx="22.40808" cy="16.89551" rx=".91215" ry="1.09458"/></g><path d="M21.13467,21.21125c.205,0,.35062,.19694,.29624,.39459-.1728,.62803-.74798,1.08936-1.43091,1.08936s-1.25811-.46133-1.43091-1.08936c-.05438-.19765,.09124-.39459,.29624-.39459h2.26935Z" style="fill:#5c2f17;"/></g><g><path d="M20.01076,15.37545c5.3988,0,9.95139-2.65415,11.38163-6.28402,.38504-.9772,.12313-2.08406-.63137-2.81475-2.35389-2.27962-6.28574-3.77668-10.75026-3.77668s-8.39644,1.4971-10.75028,3.77673c-.75448,.7307-1.01638,1.83755-.63134,2.81475,1.43026,3.62987,5.98281,6.28398,11.38161,6.28398Z" style="fill:#242424;"/><path d="M20.01076,10.08988c3.63909,0,6.92788,.74522,9.29692,1.94545v-1.55597c0-.27595-.15256-.53131-.40276-.64771-2.33233-1.08509-5.45699-1.7499-8.89416-1.7499-3.44848,0-6.58166,.66951-8.91635,1.76102-.24957,.11668-.40156,.3717-.40156,.64719v1.55686c2.37064-1.20677,5.66764-1.95693,9.31791-1.95693Z" style="fill:#fb0;"/><path d="M23.28003,4.28998h-1.52002c-.04999,0-.10004,.01001-.15002,.03998l-1.14001,.76001c-.16998-.13995-.37-.20996-.59998-.20996s-.44,.07996-.60999,.20996l-1.14001-.76001c-.03998-.02997-.08997-.03998-.14001-.03998h-1.51996c-.21002,0-.34003,.22003-.23004,.40002,.89001,1.56,2.47003,1.21997,2.64001,1.17999,0,.54999,.45001,1,1,1s.98999-.45001,.98999-1c0,0,1.70001,.46997,2.65002-1.17999,.09998-.17999-.03003-.40002-.22998-.40002Z" style="fill:#fb0;"/></g><polygon points="19.93591 32.96433 17.43322 30.43237 22.54536 30.43237 19.93591 32.96433" style="fill:#261e18;"/><polygon points="18.33644 37.5 19.94997 31.53929 21.57354 37.5 18.33644 37.5" style="fill:#261e18;"/><path d="M22.06604,26.7976l-2.05946,2.48482-2.05108-2.48482c-.90726,.14505-1.94758,.60054-1.94758,.60054l1.59623,4.54134c.06282,.17873,.27637,.25152,.43528,.14836l1.96719-1.27707,1.96011,1.27012c.16244,.10526,.38048,.02657,.43828-.15816l1.43376-4.58284s-.89321-.38623-1.77272-.5423Z" style="fill:#f5f5f5;"/><path d="M16.4264,27.23914l-3.94324,1.49806c-1.89804,.72113-3.46932,2.07524-4.46492,3.80963-.40848,.71161-.66712,1.49925-.86318,2.29599l-.50407,2.04841c-.0762,.30968,.15823,.60877,.47719,.60877h11.21298l-1.50579-10.39518c-.13622,.04521-.27428,.08316-.40896,.13432Z" style="fill:#333;"/><path d="M33.349,36.89124l-.50409-2.0484c-.19604-.79675-.45465-1.58441-.86316-2.29602-.99561-1.73438-2.56689-3.0885-4.4649-3.80963l-3.94324-1.49805c-.1347-.05115-.27277-.08911-.409-.13434l-1.50574,10.3952h11.21295c.31897,0,.55341-.29913,.47717-.60876Zm-6.30902-2.70123c0,.32996-.26996,.59998-.59998,.59998s-.59998-.27002-.59998-.59998c0,0-1.03003,.27997-1.60004-.71002-.06-.10999,.02002-.25,.14001-.25h.91998c.03003,0,.06,.01001,.09003,.03003l.67999,.45996c.09998-.07996,.22998-.13,.37-.13s.27002,.05005,.37,.13l.67999-.45996c.03003-.02002,.06-.03003,.09003-.03003h.91998c.12,0,.20001,.14001,.14001,.25-.57001,.98999-1.60004,.71002-1.60004,.71002Z" style="fill:#333;"/><path d="M28.5,33.22998h-.91998c-.03003,0-.06,.01001-.09003,.03003l-.67999,.45996c-.09998-.07996-.22998-.13-.37-.13s-.27002,.05005-.37,.13l-.67999-.45996c-.03003-.02002-.06-.03003-.09003-.03003h-.91998c-.12,0-.20001,.14001-.14001,.25,.57001,.98999,1.60004,.71002,1.60004,.71002,0,.32996,.26996,.59998,.59998,.59998s.59998-.27002,.59998-.59998c0,0,1.03003,.27997,1.60004-.71002,.06-.10999-.02002-.25-.14001-.25Z" style="fill:#fb0;"/></g><rect width="40" height="40" style="fill:none;"/></svg>