<?xml version="1.0" encoding="UTF-8"?><svg id="Layer_1" xmlns="http://www.w3.org/2000/svg" viewBox="0 0 40 40"><g><g><path d="m28.908,10.014c-6.592,3.795-17.261,3.477-20.189,3.356-2.914-.122-5.625-.162-6.677,2.185-1.052,2.347.269,7.701.269,7.701,0,0,.683,1.906-.099,3.185-.781,1.279-.71,3.41-.71,3.41l-.002,5.967h2.95s-.107-1.598-1.066-1.669c-.959-.071,1.883-6.287,1.883-6.287l1.527,7.956h2.77s.32-1.314-.639-1.882c-.321-.19-.515-1.219-.628-2.16-.121-1.019.17-2.044.803-2.852l.782-.999c.139-.178.371-.248.583-.168.941.358,3.848,1.148,8.614-.315.349-.107.712.125.742.489.137,1.671.414,5.865-.063,7.886h2.984s.249-1.279-.888-1.563c0,0,0-3.232.639-3.978,0,0,1.385,2.131,1.421,5.541h3.126s-.107-1.492-.888-1.74c-.781-.249-1.03-2.557-1.066-3.658-.036-1.101-.32-3.374-.32-3.374,0,0,.371-.114.908-.396,2.048-1.071,3.431-3.092,3.813-5.371l.658-3.02c2.454.944,2.632-.687,3.393-.978.642-.246.652-.216,1.283.057.7.303,1.298.423,1.664.471.234.03.46-.072.599-.263l1.337-1.832c.11-.151.104-.356-.017-.498-.54-.634-1.987-2.348-2.445-3.023-.475-.7-1.013-1.827-1.396-2.366-.886-1.247-3.441-.798-3.568-.903l-2.087,1.091Z" fill="#5e403b"/><circle cx="34.4" cy="12.192" r=".725"/><path d="m31.086,10.167l-2.978,3.059c-.267.274-.09.731.292.755,1.448.092,3.985-.215,2.686-3.814Z" fill="#956759"/><path d="m31.956,4.422c.112-.077.048-.249-.088-.239-1.172.086-3.993.6-3.884,3.548.111,2.983,3.121,3.229,4.422,3.195.347-.009.642-.252.716-.592h0c.085-.392-.151-.778-.538-.882-.887-.239-2.31-.831-2.369-2.171-.062-1.416,1.099-2.416,1.741-2.859Z" fill="#afb7c0"/></g><path d="m38.003,15.286l-.896-.778c-.11-.095-.282-.017-.28.128.006.414.163,1.041,1.081.946.148-.015.206-.199.094-.296Z" fill="#524339"/></g><rect width="40" height="40" fill="none"/></svg>