<?xml version="1.0" encoding="UTF-8"?><svg id="Layer_1" xmlns="http://www.w3.org/2000/svg" viewBox="0 0 40 40"><g><g><g><path d="M18.53998,20.02002c-.14996-.04004-.32001,.16992-.51996,.28003-.08002,.03979-.16003,.05981-.23004,.07007-.58997,.02979-1.22998-.07007-1.88995-.27002-2.80005-.83008-5.85004-3.28003-5.85004-3.28003l-2.64996,2.96997-1.19,1.33008c-.41003-.88013-.85004-.97021-1.01001-.96021-.53003,.40015-.88,1-.88,1.69019,0,1.20996,1.03998,2.17993,2.32001,2.18994,.72998,1.6499,2.20001,2.88989,3.98999,3.31006v1.08984c0,.07007,.03998,.13013,.10999,.16992,.32001,.15015,1.32001,.54004,2.39001,0,.07001-.02979,.10999-.09985,.10999-.17993v-1.05981c1.82001-.41016,3.31-1.66016,4.04999-3.33008,1.28003-.01001,2.32001-.97998,2.32001-2.18994,0-.77002-.41998-1.44019-1.07001-1.83008Zm-8.20996,2.12988c-.34003,0-.62-.32983-.62-.73999,0-.40991,.27997-.75,.62-.75,.33997,0,.62,.34009,.62,.75,0,.41016-.28003,.73999-.62,.73999Zm1.63995,3.2002c-.46997,0-.85999-.32007-.97998-.74023-.02997-.13989,.07001-.27002,.21002-.27002h1.53998c.14001,0,.22998,.13013,.20001,.27002-.12,.42017-.51001,.74023-.97003,.74023Zm1.63-3.2002c-.33997,0-.62-.32983-.62-.73999,0-.40991,.28003-.75,.62-.75,.34003,0,.62,.34009,.62,.75,0,.41016-.27997,.73999-.62,.73999Z" style="fill:#6e4944;"/><path d="M6.2113,21.12256l1.18866-1.33008,2.65222-2.96777s3.05054,2.44849,5.84534,3.2771c.6604,.19556,1.3067,.30249,1.8949,.26343,.06775-.00464,.146-.02808,.22321-.06104,.20251-.11426,.37292-.32227,.52887-.28369l.00623-.00024c.05878-3.9978-3.38055-7.26196-7.45374-6.82446-3.13263,.33643-5.6413,2.88232-5.93671,6.01929-.03003,.31909-.03772,.63428-.02441,.94385,0,0,.02655-.00366,.06458-.00366,.15857-.00098,.60248,.08081,1.01086,.96729Z" style="fill:#333;"/><path d="M10.94977,21.4082c0-.41064-.2774-.74365-.61963-.74365s-.61969,.33301-.61969,.74365,.27747,.74365,.61969,.74365,.61963-.33301,.61963-.74365Z"/><ellipse cx="13.60187" cy="21.4082" rx=".61963" ry=".74365"/><path d="M11.966,25.34814c.46393,0,.85468-.31348,.97205-.74023,.03693-.13428-.06195-.26807-.20123-.26807h-1.54163c-.13928,0-.23822,.13379-.20123,.26807,.11737,.42676,.50812,.74023,.97205,.74023Z" style="fill:#5c2f17;"/><path d="M18.79987,30.69067c-2.31055-1.43188-4.76617-2.41089-5.56195-2.71216v.45557c0,.07153-.04169,.14111-.10559,.17383-1.06927,.54395-2.07709,.15063-2.39569-.00269-.06543-.03149-.1037-.09595-.1037-.1687v-.45801c-.79565,.30127-3.2514,1.28027-5.56195,2.71216-2.80518,1.73828-2.64709,6.77197-2.64709,6.77197H21.44696s.15802-5.03369-2.64709-6.77197Z" style="fill:#5268ea;"/></g><g><path d="M34.66998,20.02002c-.14996-.04004-.32001,.16992-.52997,.28003-.07001,.03979-.15002,.05981-.22003,.07007-.58997,.02979-1.22998-.07007-1.88995-.27002-2.80005-.83008-5.85004-3.28003-5.85004-3.28003l-2.64996,2.96997-1.19,1.33008c-.41003-.88013-.85004-.97021-1.01001-.96021-.53003,.40015-.88,1-.88,1.69019,0,1.20996,1.03998,2.17993,2.32001,2.18994,.72998,1.6499,2.19995,2.88989,3.98999,3.31006v1.08984c0,.07007,.03998,.13013,.10999,.16992,.31,.15015,1.32001,.54004,2.39001,0,.07001-.02979,.10999-.09985,.10999-.17993v-1.05981c1.82001-.41016,3.31-1.66016,4.04999-3.33008,1.28003-.01001,2.32001-.97998,2.32001-2.18994,0-.77002-.42999-1.44019-1.07001-1.83008Zm-8.20996,2.12988c-.34003,0-.62-.32983-.62-.73999,0-.40991,.27997-.75,.62-.75,.33997,0,.62,.34009,.62,.75,0,.41016-.28003,.73999-.62,.73999Zm1.63995,3.2002c-.46997,0-.85999-.32007-.97998-.74023-.02997-.13989,.07001-.27002,.20001-.27002h1.54999c.14001,0,.22998,.13013,.20001,.27002-.12,.42017-.51001,.74023-.97003,.74023Zm1.63-3.2002c-.33997,0-.62-.32983-.62-.73999,0-.40991,.28003-.75,.62-.75,.34003,0,.62,.34009,.62,.75,0,.41016-.27997,.73999-.62,.73999Z" style="fill:#c3846c;"/><path d="M22.34045,21.12256l1.18872-1.33008,2.65222-2.96777s3.05048,2.44849,5.84528,3.2771c.6604,.19556,1.3067,.30249,1.8949,.26343,.06781-.00464,.14606-.02808,.22327-.06104,.20251-.11426,.37286-.32227,.52881-.28369l.00623-.00024c.05878-3.9978-3.38055-7.26196-7.45367-6.82446-3.13269,.33643-5.6413,2.88232-5.93671,6.01929-.03009,.31909-.03778,.63428-.02448,.94385,0,0,.02655-.00366,.06464-.00366,.15863-.00098,.60248,.08105,1.0108,.96729Z" style="fill:#523725;"/><ellipse cx="26.45929" cy="21.4082" rx=".61963" ry=".74365"/><path d="M29.73102,22.15186c.34222,0,.61969-.33301,.61969-.74365s-.27747-.74365-.61969-.74365-.61963,.33301-.61963,.74365,.2774,.74365,.61963,.74365Z"/><path d="M28.09515,25.34814c.46393,0,.85468-.31348,.97205-.74023,.03699-.13428-.06195-.26807-.20123-.26807h-1.54163c-.13922,0-.23816,.13379-.20123,.26807,.11737,.42676,.50812,.74023,.97205,.74023Z" style="fill:#5c2f17;"/><path d="M34.92902,30.69067c-2.31061-1.43188-4.7663-2.41089-5.56195-2.71216v.45557c0,.07153-.04163,.14111-.10559,.17383-1.06927,.54395-2.07703,.15063-2.39563-.00269-.06549-.03149-.10376-.09595-.10376-.1687v-.45801c-.79572,.30127-3.2514,1.28027-5.56195,2.71216-2.80511,1.73828-2.64709,6.77197-2.64709,6.77197h19.02307s.15808-5.03369-2.64709-6.77197Z" style="fill:#5268ea;"/></g></g><path d="M19.31751,13.94111c.41471,.274,.95027,.274,1.36498,0,1.31662-.86988,4.18607-2.94844,5.42114-5.27434,1.62944-3.06859-.2842-6.12935-2.81265-6.12935-1.44152,0-2.30905,.75314-2.78853,1.40066-.25272,.34129-.75218,.34129-1.00491,0-.47948-.64752-1.34701-1.40066-2.78853-1.40066-2.52845,0-4.44209,3.06076-2.81265,6.12935,1.23508,2.32591,4.10452,4.40446,5.42114,5.27434Z" style="fill:#ec4452;"/></g><rect width="40" height="40" style="fill:none;"/></svg>