<svg id="Layer_1" data-name="Layer 1" xmlns="http://www.w3.org/2000/svg" viewBox="0 0 40 40"><defs><style>.cls-1{fill:none;opacity:0.1;}.cls-2{fill:orange;}.cls-3{fill:#3f3f3f;}.cls-4{fill:#ef4452;}</style></defs><rect class="cls-1" width="40" height="40" transform="translate(40 40) rotate(-180)"/><path class="cls-2" d="M22.249,11.551l-1.54-.738c.1-.2,2.441-4.906,7.046-6.217,2.665-.759,5.5-.22,8.423,1.6l-.91,1.434c-2.493-1.549-4.858-2.019-7.03-1.406C24.371,7.315,22.27,11.508,22.249,11.551Z"/><path class="cls-3" d="M26.212,11.826,20.786,8.455l1.38-2.174a3.078,3.078,0,0,1,4.218-.955l.243.151a3.011,3.011,0,0,1,.965,4.175Z"/><ellipse class="cls-3" cx="17.725" cy="21.881" rx="15.979" ry="15.812"/><path class="cls-4" d="M39.275,5.428l-2.292-.764L38.064,2.5a.211.211,0,0,0-.284-.283L35.619,3.3l-.765-2.293a.211.211,0,0,0-.4,0L33.689,3.3,31.528,2.219a.211.211,0,0,0-.284.283l1.081,2.162-2.292.764a.211.211,0,0,0,0,.4l2.292.764L31.244,8.755a.211.211,0,0,0,.284.283l2.161-1.081.765,2.293a.211.211,0,0,0,.4,0l.765-2.293L37.78,9.038a.211.211,0,0,0,.284-.283L36.983,6.593l2.292-.764A.211.211,0,0,0,39.275,5.428Z"/></svg>