<?xml version="1.0" encoding="UTF-8"?><svg id="Layer_1" xmlns="http://www.w3.org/2000/svg" viewBox="0 0 40 40"><g><g><path d="m5.126,28.001l1.478,5.935c.274,1.099,1.26,1.87,2.393,1.87h21.945c1.213,0,2.247-.883,2.436-2.081l.904-5.724H5.126Z" fill="#ff9000"/><circle cx="20" cy="24.01" r="12.99" fill="#ffc84d"/><g><ellipse cx="8.145" cy="24.375" rx="5.2" ry="4.877" fill="#ffc84d"/><ellipse cx="31.855" cy="24.375" rx="5.2" ry="4.877" fill="#ffc84d"/></g><path d="m34.689,20.286c.131-8.918-7.542-16.2-16.628-15.224-6.988.751-12.585,6.43-13.244,13.428-.067.712-.084,1.415-.055,2.106,0,0,1.27-.302,2.399,2.15l8.568-9.588s10.402,8.354,17.267,7.898c.151-.01.326-.063.498-.136.458-.258.842-.736,1.194-.633Z" fill="#333"/><g><ellipse cx="16.351" cy="23.382" rx="1.382" ry="1.659"/><ellipse cx="23.649" cy="23.382" rx="1.382" ry="1.659"/></g><path d="m21.72,29.922c.311,0,.531.298.449.598-.262.952-1.134,1.651-2.169,1.651s-1.907-.699-2.169-1.651c-.082-.3.138-.598.449-.598h3.439Z" fill="#5c2f17"/></g><g><path d="m4.294,18.346c0-8.716,7.266-15.735,16.071-15.33,8.052.37,14.574,7.177,14.621,15.237.004.742-.044,1.472-.142,2.187-.179,1.308-1.547,2.101-2.786,1.644l-12.419-4.575-15.346.836Z" fill="#c2bfbe"/><path d="m24.615,3.782c-4.498.913-12.027,3.571-19.971,11.258-.223,1.041-.347,2.119-.347,3.227,0,1.069.114,2.11.327,3.115.265,1.253,1.611,1.956,2.803,1.487l26.394-10.389c-1.662-4.071-5.024-7.258-9.205-8.697Z" fill="#d6d3d2"/><polygon points="20.362 17.776 22.641 18.616 33.82 12.479 20.362 17.776" fill="#aba8a8"/></g><path d="m7.426,22.868h1.488c.676,0,1.344-.143,1.96-.419l10.398-4.337-.911-.336-12.936,5.092Z" fill="#ddb455"/></g><rect x="0" width="40" height="40" fill="none"/></svg>