<?xml version="1.0" encoding="UTF-8"?><svg id="Layer_1" xmlns="http://www.w3.org/2000/svg" viewBox="0 0 40 40"><g><path d="M18.62092,23.43815l-1.5532,9.57809c-.03506,.21621,.06654,.42762,.25798,.53404,.45148,.25099,1.25179,.79406,1.51559,1.60263,.08769,.26877-.13509,.54321-.4178,.54321h-2.56704c-.1865,.00001-.3537-.11497-.42044-.28912l-3.92396-10.23968,1.4602-4.07319,5.57182,.42269,.07685,1.92132Z" style="fill:#ff9000;"/><path d="M23.73163,24.87743l-2.13583,8.91157c-.05509,.22984,.0477,.46852,.25255,.58642l3.04325,1.75159c.25369,.14602,.5764,.06443,.72669-.18675,.26317-.43987,.47229-1.25275-.22137-2.50484-.07726-.13945-.10977-.30545-.07631-.46132l1.52356-7.09758-3.11253-.99908Z" style="fill:#ff9000;"/><path d="M9.40081,15.61638s-2.64419-1.68778-3.20679-4.21946c-.56259-2.53167-4.66953-3.26305-4.66953-3.26305,0,0-.90015,9.00151,8.21388,9.95792,9.11403,.95641-.33756-2.47542-.33756-2.47542Z" style="fill:#ffb72d;"/><path d="M38.44249,10.22642l-2.92932-.63036c-.21899-.04712-.40048-.18896-.4966-.39129-.30312-.63808-1.2143-2.05835-3.41144-2.35949-.25837-.03541-.48471-.19815-.57343-.44339l-.81105-2.24209c-.16729-.46246-.81352-.48344-1.01046-.03281l-3.5978,8.23226c-.49631,1.13563-1.52314,1.94736-2.74431,2.15885-2.3393,.40513-6.21237,.96972-8.43715,.71943-3.34074-.37583-6.84851,1.1275-6.3474,5.34518,.34555,2.90839,.59182,4.72466,.71142,5.57203,.05023,.35592-.09441,.70451-.37759,.9259l-1.45067,1.13416c-.24394,.19071-.38649,.48311-.38649,.79275v6.98339c0,.11508,.09329,.20838,.20838,.20838h2.97988c.11184,0,.2044-.08267,.20875-.19443,.0212-.54496-.05803-2.07628-1.5596-2.51992,0,0,.66815-1.96134,4.21768-3.63171,3.54953-1.67037,2.67259-4.92759,2.67259-4.92759l16.19863,8.06218c.39129,.16253,.64443,.54667,.63944,.97034l-.01369,1.16397c-.00545,.46366,.35963,.84719,.823,.86456l1.87165,.07019c.39169,.01469,.74906-.23574,.85291-.6137,.28591-1.0406,.56031-3.10643-1.26061-4.29003-1.60524-1.04341-3.44455-2.63752-4.55912-3.64842-.62314-.56518-.83387-1.45031-.5372-2.23753l3.59799-9.54714c.07996-.21217,.27053-.35736,.49665-.37417,1.30068-.09668,5.62929-.74688,5.02494-5.1195Z" style="fill:#ffb72d;"/><path d="M36.74394,9.86387l1.69857,.36554c.07423,.53714,.05977,1.00618-.00012,1.43684-.62199-.3656-1.31681-.94234-1.69845-1.80238Z"/><circle cx="32.87702" cy="9.59687" r=".81972"/></g><rect width="40" height="40" style="fill:none;"/></svg>