<?xml version="1.0" encoding="UTF-8"?><svg id="Layer_1" xmlns="http://www.w3.org/2000/svg" viewBox="0 0 40 40"><g><path d="M6.3633,29.78388c-1.57485-4.19259-.06392-12.76578,.73595-16.57354,.19053-.90703,1.25439-1.30805,1.99649-.75281,3.11179,2.32823,9.89688,7.76007,11.48431,11.98615,1.47466,3.92585-.51242,8.30382-4.43827,9.77848-3.92585,1.47466-8.30382-.51242-9.77848-4.43827Z" style="fill:#c8e1ff;"/><path d="M22.05523,15.91504c-3.03485-.9657-7.15825-5.58298-8.93295-7.70567-.42274-.50563-.17849-1.27634,.45826-1.44645,2.67001-.7133,8.69023-2.11224,11.74932-1.13883,2.84177,.90426,4.41242,3.94102,3.50816,6.78279-.90426,2.84177-3.94102,4.41242-6.78279,3.50816Z" style="fill:#93c9ff;"/><path d="M26.87845,29.45683c-1.75789-1.84425-2.87563-6.66883-3.30465-8.84032-.10219-.51726,.36547-.96406,.87758-.83861,2.14742,.52605,6.90885,1.85906,8.68078,3.71804,1.64605,1.72692,1.5805,4.46125-.14642,6.1073s-4.46125,1.5805-6.1073-.14642Z" style="fill:#64a7ff;"/></g><g style="opacity:.1;"><rect y="0" width="40" height="40" transform="translate(0 40) rotate(-90)" style="fill:none;"/></g></svg>