<svg id="Layer_1" data-name="Layer 1" xmlns="http://www.w3.org/2000/svg" viewBox="0 0 40 40"><defs><style>.cls-1{fill:#523725;}.cls-2{fill:#c3846c;}.cls-3{fill:#e0decc;}.cls-4{fill:#262626;}.cls-5{fill:#eab894;}.cls-6{fill:#42ad41;}.cls-7{fill:#ff5543;}.cls-8{fill:#8e80ff;}.cls-9{fill:#ffd152;}.cls-10{fill:#ff7d7d;}.cls-11{fill:#d9d9d9;}.cls-12{fill:#5a81ff;}.cls-13{fill:#a3a3a3;}.cls-14{fill:#807e74;}.cls-15{fill:#5c2f17;}.cls-16{fill:none;}</style></defs><path class="cls-1" d="M10.468,23.782S9.173,9.543,16.058,6.526a6.586,6.586,0,0,1,6.118-2.3,10.66,10.66,0,0,1,8.532,6.639,37.608,37.608,0,0,1,1.476,12.225,1.836,1.836,0,0,1-.885,1.522c-1.165.709-3.866,1.616-10.055,1.616C11.093,26.223,10.468,23.782,10.468,23.782Z"/><path class="cls-2" d="M24.444,13.42a11.793,11.793,0,0,1-6.927-3.883.192.192,0,0,0-.334.089,9.507,9.507,0,0,1-2.867,5.265,4.2,4.2,0,0,0-.727.769,3.4,3.4,0,0,0-.626,2.623A8.265,8.265,0,0,0,29.185,19C29.66,16.275,27.994,13.942,24.444,13.42Z"/><ellipse cx="18.644" cy="16.526" rx="0.926" ry="1.111"/><ellipse cx="23.532" cy="16.526" rx="0.926" ry="1.111"/><path class="cls-3" d="M28.744,28.578l-4.015-1.525a10.24,10.24,0,0,0-7.277,0l-4.015,1.525a8.879,8.879,0,0,0-4.546,3.879A8.963,8.963,0,0,0,8.012,34.8L7.5,36.88a.5.5,0,0,0,.486.62H34.2a.5.5,0,0,0,.486-.62L34.168,34.8a8.524,8.524,0,0,0-5.424-6.217Z"/><path class="cls-2" d="M19.009,22.638h4.185a0,0,0,0,1,0,0V26.61A2.093,2.093,0,0,1,21.1,28.7h0a2.093,2.093,0,0,1-2.093-2.093V22.638A0,0,0,0,1,19.009,22.638Z"/><path class="cls-4" d="M11.018,13.351l19.022-2.93a.421.421,0,0,0,.307-.207,4.888,4.888,0,0,0,.162-4.625c-1.3-2.513-6.866-4.218-13.6-1.391a28.123,28.123,0,0,0-8.834,5.9,1.584,1.584,0,0,0,.4,2.534l.867.445A2.754,2.754,0,0,0,11.018,13.351Z"/><path class="cls-4" d="M18.734,2.487h0a.692.692,0,0,1,.692.692v1.2a0,0,0,0,1,0,0H18.042a0,0,0,0,1,0,0v-1.2a.692.692,0,0,1,.692-.692Z" transform="translate(-0.106 6.225) rotate(-18.815)"/><path class="cls-5" d="M3.744,37.494c-1.218-4.328-.338-8.409,2.5-10.05,3.683-2.127,9.267.649,12.472,6.2a16.914,16.914,0,0,1,1.636,3.85Z"/><circle class="cls-6" cx="6.441" cy="34.664" r="1.36"/><circle class="cls-7" cx="8.569" cy="30.228" r="1.36"/><circle class="cls-8" cx="13.352" cy="31.835" r="1.36"/><circle class="cls-9" cx="16.349" cy="35.273" r="1.36"/><path class="cls-10" d="M21.09,27.813A2.564,2.564,0,0,1,19,26.729V27.4a8.712,8.712,0,0,0,.922,2.635,1.294,1.294,0,0,0,2.34,0,8.721,8.721,0,0,0,.923-2.635v-.672A2.567,2.567,0,0,1,21.09,27.813Z"/><path class="cls-11" d="M36.739,23.488a1.916,1.916,0,0,1-3.62-1.257c.347-1,3.114-3.127,3.114-3.127S37.086,22.488,36.739,23.488Z"/><path class="cls-12" d="M36.7,21.453c-.173-1.171-.47-2.349-.47-2.349s-.963.74-1.824,1.553Z"/><polygon class="cls-13" points="30.518 37.5 35.257 24.702 33.551 24.109 29.204 37.5 30.518 37.5"/><circle class="cls-14" cx="21.09" cy="32.995" r="0.592"/><circle class="cls-14" cx="21.09" cy="35.864" r="0.592"/><path class="cls-15" d="M22.241,21.407a.315.315,0,0,1,.3.4,1.507,1.507,0,0,1-2.906,0,.315.315,0,0,1,.3-.4Z"/><rect class="cls-16" x="0.016" width="40" height="40"/></svg>