<?xml version="1.0" encoding="UTF-8"?><svg id="Layer_1" xmlns="http://www.w3.org/2000/svg" viewBox="0 0 40 40"><g><ellipse cx="20" cy="20.5782" rx="14.19056" ry="16.31896" style="fill:#ffc84d;"/><g><ellipse cx="8.18081" cy="21.34906" rx="5.68081" ry="5.3281" style="fill:#ffc84d;"/><ellipse cx="31.81919" cy="21.34906" rx="5.68081" ry="5.3281" style="fill:#ffc84d;"/></g><path d="M21.87854,29.53753c.33939,0,.58047,.32604,.49044,.65327-.28608,1.03974-1.23834,1.80351-2.36898,1.80351s-2.0829-.76377-2.36898-1.80351c-.09003-.32723,.15106-.65327,.49044-.65327h3.75708Z" style="fill:#5c2f17;"/><path d="M20,26.45895c-2.58478,0-4.88403,.88838-6.36726,2.27135-.78038,.72763-.26846,2.03562,.79852,2.03562l4.43774-.57833c.75082-.09785,1.51117-.09785,2.262,0l4.43774,.57833c1.06698,0,1.5789-1.30798,.79852-2.03562-1.48323-1.38297-3.78247-2.27135-6.36726-2.27135Z" style="fill:#ff9000;"/><ellipse cx="20" cy="11.2273" rx="12.2901" ry="8.12447" style="fill:#ffc84d;"/><path d="M6.23805,20.96341c-.11127,.26534-.48999,.25723-.58979-.01263l-1.30349-3.52467s-1.22506-3.40591-.25937-6.19105c.50817-1.46561,1.76863-2.536,3.27457-2.90803,.18274-.04514,.38196-.0893,.59783-.13075,.54505-.10465,1.05575,.3027,1.05575,.85771,0,1.32979,.00001,3.61657,.00001,4.69485,0,.38595-.1406,.75549-.39549,1.04529l-.83205,.94599c-.66072,.7512-1.08306,1.68197-1.21328,2.67389l-.33469,2.5494Z" style="fill:#ff9000;"/><path d="M33.39144,20.96341c.11127,.26534,.48999,.25723,.58979-.01263l1.30349-3.52467s1.22506-3.40591,.25937-6.19105c-.50817-1.46561-1.76863-2.536-3.27457-2.90803-.18274-.04514-.38196-.0893-.59783-.13075-.54505-.10465-1.05575,.3027-1.05575,.85771,0,1.32979-.00001,3.61657-.00001,4.69485,0,.38595,.1406,.75549,.39549,1.04529l.83205,.94599c.66072,.7512,1.08306,1.68197,1.21328,2.67389l.33469,2.5494Z" style="fill:#ff9000;"/><ellipse cx="16.01324" cy="20.26417" rx="1.51014" ry="1.81217"/><ellipse cx="23.98676" cy="20.26417" rx="1.51014" ry="1.81217"/></g><rect width="40" height="40" style="fill:none;"/></svg>