<svg id="Layer_1" data-name="Layer 1" xmlns="http://www.w3.org/2000/svg" viewBox="0 0 40 40"><defs><style>.cls-1{fill:#3e5af4;}.cls-2{fill:#4e5968;}.cls-3{fill:#ffb582;}.cls-4{fill:#ffdb87;}.cls-5{fill:#d12030;}.cls-6{fill:#2e3d51;}.cls-7{fill:none;}</style></defs><path class="cls-1" d="M30.6,35.881l-4.621-.52.906-8.058a.7.7,0,0,0-.677-.776l-5.785-.152-2.8-1.618L19.1,21.7l8.7.215a3.99,3.99,0,0,1,3.867,4.434Z"/><path class="cls-2" d="M26.327,32.3l-.575,3.731a.4.4,0,0,0,.332.451l6.805,1.048a.4.4,0,0,0,.451-.331l.076-.494a2.169,2.169,0,0,0-.712-1.961L30.92,33.005Z"/><path class="cls-2" d="M15.776,39.551a8.057,8.057,0,1,1,8.057-8.057A8.066,8.066,0,0,1,15.776,39.551Zm0-15.081A7.024,7.024,0,1,0,22.8,31.494,7.033,7.033,0,0,0,15.776,24.47Z"/><rect class="cls-3" x="15.537" y="8.653" width="2.551" height="2.487" transform="translate(5.123 -5.723) rotate(22.705)"/><circle class="cls-3" cx="18.196" cy="5.406" r="4.298"/><path class="cls-4" d="M18.2,5.406l-2.4,3.563a4.3,4.3,0,1,1,5.854-6.126Z"/><ellipse class="cls-3" cx="17.642" cy="5.755" rx="1.621" ry="1.409" transform="translate(10.563 22.909) rotate(-85.643)"/><ellipse cx="21.286" cy="5.641" rx="0.672" ry="0.381" transform="translate(14.044 26.437) rotate(-85.643)"/><rect class="cls-2" x="15.139" y="29.1" width="7.198" height="1.033" transform="translate(-13.862 16.751) rotate(-36.143)"/><path class="cls-2" d="M16.348,31.737l0-.309L9.7,27.891,9.21,28.8l6.106,3.246c.012,2.6.02,6.515-.011,6.834l.509.077.534-.068Z"/><circle class="cls-2" cx="15.843" cy="31.739" r="1.285"/><path class="cls-5" d="M15.5,9.736l2.428.712,6.129,11.638H13.862S12.811,13.539,15.5,9.736Z"/><path class="cls-3" d="M25.433,23.629H18.57a3.477,3.477,0,0,1-3.431-2.989l-.293-2.112,3.582-.5.275,1.982h6.73Z"/><path class="cls-2" d="M26.243,26.607H16.6a4.508,4.508,0,0,1-4.4-3.538l-2.1-9.55a1.808,1.808,0,0,1,1.377-2.154h0a1.808,1.808,0,0,1,2.155,1.378l1.889,8.591a2.112,2.112,0,0,0,2.061,1.657h8.668Z"/><rect class="cls-6" x="25.772" y="19.142" width="0.462" height="2.723" transform="translate(5.81 -5.742) rotate(14.17)"/><circle class="cls-3" cx="25.39" cy="22.113" r="2.102"/><circle class="cls-5" cx="26.47" cy="18.655" r="1.037"/><rect class="cls-7" width="40" height="40"/></svg>