<?xml version="1.0" encoding="UTF-8"?><svg id="Layer_1" xmlns="http://www.w3.org/2000/svg" viewBox="0 0 40 40"><path d="M32.90302,17.81598l-.74103-2.953c-.14935-1.20044-.97467-2.20856-2.12201-2.59198l-2.33398-.77972v.23071c0,.43628-.3537,.78998-.78998,.78998-.43634,0-.79004-.3537-.79004-.78998v-.24811l-2.54999,.8631c-1.03125,.349-1.80811,1.20721-2.05298,2.26801l-1.17499,3.40802,.4444,.12122,2.01093,.54858,.57263,.15619-.29297,3.992h7.72601l-.362-4.02399,.3031-.12231,1.95312-.78809,.19977-.08063Z" style="fill:#d0d4d9;"/><g><g><path d="M22.461,35.28497c-.23871,.21277-.37939,.5144-.38898,.83398v.255c0,.34601,.42395,.62604,.94696,.62604h1.01202c.66663,.0354,1.31403-.22992,1.76398-.72302l.27002-.35901c.06671-.08588,.10358-.19122,.10498-.29999v-1.698h-2.30078l-1.4082,1.36499Z" style="fill:#313c50;"/><path d="M27.81299,35.61798c.00146,.10876,.03833,.21411,.10504,.29999l.26996,.35901c.44983,.49335,1.09735,.75873,1.76404,.72302h1.01099c.52399,0,.948-.28003,.948-.62604v-.255c-.01007-.31952-.1507-.62091-.38904-.83398l-1.4082-1.36499h-2.30078v1.698Z" style="fill:#313c50;"/></g><g><path d="M8.90802,35.28497c-.23889,.21277-.37994,.51428-.39001,.83398v.255c0,.34601,.42499,.62604,.948,.62604h1.01202c.66632,.03571,1.31354-.22974,1.763-.72302l.26996-.35901c.06769-.08545,.10498-.19098,.10602-.29999v-1.698h-2.30078l-1.4082,1.36499Z" style="fill:#313c50;"/><path d="M14.26099,35.61798c.00104,.10901,.03833,.21454,.10602,.29999l.27002,.35901c.4494,.49329,1.09662,.75873,1.763,.72302h1.00995c.52301,0,.948-.28003,.948-.62604v-.255c-.01007-.3197-.15106-.62122-.38995-.83398l-1.40826-1.36499h-2.29877v1.698Z" style="fill:#313c50;"/></g></g><g><polygon points="30.56 22.82996 30.37 33.91998 27.42999 33.91998 26.94 25.77997 26.45001 33.91998 23.51001 33.91998 23.32001 22.82996 30.56 22.82996" style="fill:#6d7681;"/><polygon points="17 22.82996 16.82001 33.91998 13.87 33.91998 13.39001 25.77997 12.90002 33.91998 9.95001 33.91998 9.77002 22.82996 17 22.82996" style="fill:#6d7681;"/></g><path d="M19.34998,17.81598l-.742-2.953c-.14874-1.20038-.97375-2.20862-2.12097-2.59198l-2.40698-.80414v.25513c0,.43628-.3537,.78998-.79004,.78998-.43628,0-.78998-.3537-.78998-.78998v-.22339l-2.47699,.83838c-1.03125,.349-1.80811,1.20721-2.05304,2.26801l-1.17596,3.40802,.44623,.1217,2.01019,.54816,.57257,.15613-.29297,3.992h7.72595l-.36298-4.02399,.30414-.12268,1.95404-.78815,.19879-.0802Z" style="fill:#75a4f9;"/><g><g><g><path d="M20,21.47626l.98297,4.14575c.0025,.03857,.0025,.07733,0,.11597,0,.01599,.01202,.03003,.01404,.047,0,.034-.01001,.06403-.01001,.10004,.00079,.03845-.00153,.0769-.00702,.11499-.03516,.54517-.44641,.98108-.97998,1.06842,.02106,.00342,.03857,.01526,.06,.01758,.65167,.06622,1.23364-.40833,1.29993-1.05994l.00006-.0011c.03375-.37738-.11853-.7475-.40796-.992l1.85132-6.35016-2.01093-.54858-.79242,3.34204Z" style="fill:#c3846c;"/><path d="M34.53497,25.73798c.0025-.03864,.0025-.07739,0-.11597l-1.83173-7.7254-1.95312,.78809,1.84985,6.34827c-.29065,.24347-.4444,.61328-.41199,.99103l.00031,.00305c.06677,.65106,.64868,1.12469,1.29968,1.05792,.56458-.06104,1.00342-.51929,1.04004-1.086,.00702-.0376,.01105-.07568,.01196-.11395-.00098-.03601,.00903-.06604,.00903-.10004-.00104-.01697-.01404-.03101-.01404-.047Z" style="fill:#c3846c;"/></g><path d="M30.64001,6.91998c-.08002,0-.17004,.09003-.28003,.15002-.03998,.01996-.07996,.02997-.13,.03998-.32001,.02002-.67999-.03998-1.04999-.15002-1.59998-.45996-3.34998-1.87-3.34998-1.87l-1.52002,1.70001-.66998,.75c-.21002-.46997-.45001-.53998-.54999-.54999-.31,.21997-.53003,.56-.53003,.96002,0,.69,.59003,1.23999,1.33002,1.25,.40997,.92999,1.22998,1.62,2.23999,1.87v.64996c0,.44,.34998,.79004,.78998,.79004,.42999,0,.79004-.35004,.79004-.79004v-.64996c1-.25,1.82996-.94,2.23999-1.87,.72998,0,1.32001-.56,1.32001-1.25,0-.44-.26001-.81-.63-1.03003Zm-4.19,2.45001h.89996c.07001,0,.12,.04999,.12,.12v.02997c-.07996,.31-.39996,.49005-.70996,.40002-.19-.04999-.34003-.20001-.40002-.40002-.01996-.06,.02002-.12994,.09003-.14996Zm-.47003-1.25c-.19,0-.34998-.19-.34998-.41998,0-.23004,.15997-.42004,.34998-.42004,.20001,0,.36005,.19,.36005,.42004,0,.22998-.16003,.41998-.36005,.41998Zm1.87,0c-.19995,0-.35999-.19-.35999-.41998,0-.23004,.16003-.42004,.35999-.42004,.19,0,.35004,.19,.35004,.42004,0,.22998-.16003,.41998-.35004,.41998Z" style="fill:#c3846c;"/></g><g><path d="M5.46399,25.62201c-.0025,.03857-.0025,.07733,0,.11597,0,.01599-.013,.03003-.01398,.047,0,.034,.01001,.06403,.00897,.10004-.00043,.03845,.00226,.0769,.008,.11499,.03662,.56665,.47546,1.02496,1.04004,1.086,.651,.06677,1.23291-.40692,1.29968-1.05798l.00031-.00305c.03394-.3772-.11792-.74731-.40698-.992l1.8504-6.3501-2.01019-.54816-1.77625,7.4873Z" style="fill:#c3846c;"/><path d="M20.97998,26c.00549-.03809,.00781-.07654,.00702-.11499,0-.03601,.01001-.06604,.01001-.10004-.00201-.01697-.01404-.03101-.01404-.047,.0025-.03864,.0025-.07739,0-.11597l-.98297-4.14575-.84882-3.58008-1.95404,.78815,1.85083,6.34863c-.28943,.24451-.44171,.61462-.40796,.992l.00012,.0011c.06622,.65161,.64819,1.12616,1.29987,1.05994,.02142-.00232,.03894-.01416,.06-.01758,.53357-.08734,.94482-.52325,.97998-1.06842Z" style="fill:#c3846c;"/><path d="M17.02002,6.91998c-.09003,0-.17004,.09003-.28003,.15002-.03998,.01996-.08002,.02997-.13,.03998-.32996,.02002-.69-.03998-1.04999-.15002-1.59998-.45996-3.34998-1.87-3.34998-1.87l-1.52002,1.70001-.66998,.75c-.22003-.46997-.45001-.53998-.55005-.54999-.31995,.21997-.52997,.56-.52997,.96002,0,.69,.59003,1.25,1.32001,1.25,.40997,.91998,1.23999,1.62,2.23999,1.87v.64996c0,.44,.34998,.79004,.78998,.79004s.79004-.35004,.79004-.79004v-.64996c1.01001-.24005,1.82996-.94,2.25-1.87,.72998-.01001,1.32001-.56,1.32001-1.25,0-.44-.26001-.81-.63-1.03003Zm-2.79004,.35999c.19,0,.35004,.19,.35004,.42004,0,.22998-.16003,.41998-.35004,.41998-.19995,0-.35999-.19-.35999-.41998,0-.23004,.16003-.42004,.35999-.42004Zm-1.87,0c.20001,0,.35999,.19,.35999,.42004,0,.22998-.15997,.41998-.35999,.41998-.19,0-.34998-.19-.34998-.41998,0-.23004,.15997-.42004,.34998-.42004Zm2.08002,2.34003l-.59998-.08002c-.10004,.28998-.40002,.47003-.70001,.38-.17999-.04999-.32001-.19-.38-.37l-.53003,.07001c-.06,0-.10999-.02002-.15997-.07001-.09003-.09003-.09003-.23999,.01001-.33002,.34998-.29999,.79999-.45996,1.26001-.45001,.45996-.00995,.90997,.15002,1.25995,.45001,.04004,.04004,.07001,.10004,.07001,.16003,0,.13-.09998,.23999-.22998,.23999Z" style="fill:#c3846c;"/></g></g><g><path d="M23.63898,7.53699l.6698-.74969,1.51721-1.6983s1.75354,1.40826,3.3515,1.87396c.36859,.10742,.72894,.16473,1.0575,.14301,.04395-.00488,.08679-.01666,.12701-.03497,.10535-.05939,.19403-.15143,.27582-.15271,.00909-.00012,.01935-.01184,.0282-.00928,.05615-2.11011-1.60895-3.86615-3.71899-3.9223-2.01117-.05353-3.71942,1.46118-3.90704,3.46429-.01654,.17847-.02124,.35791-.01398,.53699,0,0,.02301-.00464,.06091-.00122,.10699,.00964,.33868,.08801,.55206,.55023Z" style="fill:#523725;"/><g><path d="M10.01703,7.53699l.67004-.74963,1.51794-1.69836s1.75287,1.4082,3.35046,1.87396c.36859,.10742,.72888,.16473,1.0575,.14301,.04395-.00476,.08685-.01654,.12701-.03497,.1051-.05927,.19373-.15076,.27606-.15253,.00934-.00018,.01978-.01208,.02893-.00946,.04291-2.11041-1.63312-3.85602-3.74353-3.89886-2.11041-.04291-3.85602,1.63318-3.89886,3.74353-.00159,.07812-.00079,.15625,.00244,.23431,0,0,.02264-.0047,.06012-.0014,.10663,.00934,.33875,.08716,.55188,.55042Z" style="fill:#523725;"/><path d="M13.11401,9.50696c.14874-.01898,.29926-.01898,.448,0l.27539,.03607,.60358,.07898c.12866-.0025,.23102-.10876,.22852-.23743-.00116-.06134-.02649-.11981-.0705-.1626-.34985-.30139-.79938-.46185-1.26099-.45001-.46167-.01184-.91113,.14862-1.26099,.45001-.09229,.08972-.09436,.23724-.00464,.32947,.04279,.04401,.10126,.06934,.1626,.07056l.52429-.0686,.35474-.04645Z" style="fill:#523725;"/></g></g><g><g><path d="M26.33801,7.70001c0-.23364-.15808-.42303-.35303-.42303s-.35297,.18939-.35297,.42303c0,.23358,.15802,.42297,.35297,.42297s.35303-.18939,.35303-.42297Z"/><path d="M27.84802,8.12299c.19495,0,.35297-.18939,.35297-.42297,0-.23364-.15802-.42303-.35297-.42303-.19501,0-.35303,.18939-.35303,.42303,0,.23358,.15802,.42297,.35303,.42297Z"/></g><g><path d="M12.36298,8.12299c.19501,0,.35303-.18939,.35303-.42297,0-.23364-.15802-.42303-.35303-.42303-.19495,0-.35297,.18939-.35297,.42303,0,.23358,.15802,.42297,.35297,.42297Z"/><path d="M14.22601,8.12299c.19495,0,.35297-.18939,.35297-.42297,0-.23364-.15802-.42303-.35297-.42303s-.35303,.18939-.35303,.42303c0,.23358,.15808,.42297,.35303,.42297Z"/></g></g><g><path d="M26.76447,9.92346c.30566,.08398,.62158-.09576,.70551-.40149,.00305-.01062,.00464-.02161,.00464-.03259,.00024-.06628-.05334-.12018-.11963-.12042h-.87799c-.01068,.00012-.02136,.00171-.03162,.00464-.06372,.01825-.10059,.08466-.0824,.14838,.05365,.19531,.20624,.34784,.40149,.40149Z" style="fill:#56321b;"/><path d="M13.11401,9.50696l-.35474,.04645c.06152,.1781,.20001,.3197,.38318,.37006,.29785,.08179,.60162-.08905,.69495-.38043l-.27539-.03607c-.14874-.01898-.29926-.01898-.448,0Z" style="fill:#56321b;"/></g></svg>