<?xml version="1.0" encoding="UTF-8"?><svg id="Layer_1" xmlns="http://www.w3.org/2000/svg" viewBox="0 0 40 40"><g><ellipse cx="20" cy="21.567" rx="13.42" ry="15.433" fill="#ffc84d"/><g><ellipse cx="8.823" cy="22.296" rx="5.372" ry="5.039" fill="#ffc84d"/><ellipse cx="31.177" cy="22.296" rx="5.372" ry="5.039" fill="#ffc84d"/></g><g><ellipse cx="16.23" cy="21.27" rx="1.428" ry="1.714"/><ellipse cx="23.77" cy="21.27" rx="1.428" ry="1.714"/></g><path d="m33.245,20.948l1.948-1.998s.143-2.137-.527-5.366c-.67-3.229-4.509-8.834-11.637-10.297-7.128-1.462-11.332,3.145-11.332,3.145-7.799,1.927-6.853,12.806-6.853,12.806l1.578,1.346c.535.456,1.353.397,1.786-.156,2.444-3.117,4.982-11.284,4.982-11.284,0,0,1.767,5.393,10.916,5.276,6.732-.086,7.904,2.459,8.139,6.138.032.496.632.723,1,.39Z" fill="#ffe8b3"/><path d="m21.777,30.04c.321,0,.549.308.464.618-.271.983-1.171,1.706-2.24,1.706s-1.97-.722-2.24-1.706c-.085-.309.143-.618.464-.618h3.553Z" fill="#5c2f17"/></g><rect width="40" height="40" fill="none"/></svg>