<svg id="Layer_1" data-name="Layer 1" xmlns="http://www.w3.org/2000/svg" viewBox="0 0 40 40"><defs><style>.cls-1{fill:#e5e8eb;}.cls-2{fill:#ef4452;}.cls-3{fill:none;}</style></defs><rect class="cls-1" x="3.5" y="3.5" width="33" height="33" rx="8" transform="translate(0 40) rotate(-90)"/><path class="cls-2" d="M18.983,29.347a1.839,1.839,0,0,0,2.034,0c1.963-1.3,6.241-4.395,8.083-7.863,2.429-4.575-.424-9.138-4.194-9.138a4.993,4.993,0,0,0-4.157,2.088.926.926,0,0,1-1.5,0,4.993,4.993,0,0,0-4.157-2.088c-3.77,0-6.623,4.563-4.194,9.138C12.742,24.952,17.02,28.051,18.983,29.347Z"/><rect class="cls-3" width="40" height="40"/></svg>