<?xml version="1.0" encoding="UTF-8"?><svg id="Layer_1" xmlns="http://www.w3.org/2000/svg" viewBox="0 0 40 40"><g><path d="M14.89941,12.5957c-.099-.57666,.03857-1.17432,.38818-1.64355,.23792-.31934,.45032-.48169,.45032-.48169,1.2663-1.12866,1.66425-2.68604,1.77631-3.2981,.01813-.09888,.14148-.13208,.20691-.05615,.4809,.56006,1.98315,2.08984,4.29272,2.43311,2.19952,.3269,3.23212,1.78833,2.93781,3.49341-.40289,1.56348-1.46918,2.83032-2.85571,3.48926,.62347,.15625,1.2157,.38159,1.77362,.66138,1.24573-.20337,1.98193-.4895,2.39215-.73877,.33099-.20117,.53912-.55615,.54822-.9436,.07788-3.33594-.41553-6.21509-.91443-7.57495-.66968-1.82544-2.66895-3.8418-5.28699-4.11377-2.61798-.27222-3.79095,1.42773-3.79095,1.42773-4.26697,1.87012-3.46429,10.69312-3.46429,10.69312,0,0,.21454,.78662,2.6936,1.2251,.56049-.27612,1.15552-.49707,1.78101-.64917-1.50458-.7251-2.62726-2.16821-2.92847-3.92334Z" style="fill:#f80;"/><path d="M28.24249,22.85962c-.461-2.46436-2.11462-4.53394-4.37292-5.66626-.55792-.27979-1.15015-.50513-1.77362-.66138-.64941,.30859-1.36273,.49634-2.12268,.49634-.76929,0-1.48981-.1936-2.14539-.50928-.62549,.1521-1.22052,.37305-1.78101,.64917-2.24268,1.10571-3.89905,3.13062-4.39862,5.55249l.00012-.01099-2.78363,13.49756h5.71295c0-2.19019,1.30121-4.07251,3.17053-4.92822-.24817-.15649-.48077-.3335-.69055-.53662l-.21796,.67334c-.09113,.28149-.42542,.39844-.67212,.23535l-.85132-.56299c-.25793-.17065-.26904-.54517-.02167-.73071l.95782-.71826c-.03973-.07666-.0882-.14795-.12323-.22705-.93445-.00244-1.69128-.71338-1.69128-1.59033,0-.50269,.25354-.94556,.64185-1.23706-.02905,0-.04901,.00293-.04901,.00293-.00964-.22534-.00409-.45459,.01776-.68677,.17242-1.83057,1.38062-3.38428,3.02808-4.0542,.45233-.18384,.94806-.23389,1.43188-.16895l.21869,.02954c.08502,.01147,.17126,.01025,.25586-.00366l.42804-.0708c.26202-.04321,.53149-.03467,.78735,.03662,2.09296,.58203,3.62579,2.5354,3.59222,4.81714l-.00714,.00049c.46753,.2832,.77856,.77393,.77856,1.33472,0,.87695-.75684,1.58789-1.69128,1.59033-.0285,.06445-.06866,.12183-.10028,.18457l1.01428,.76074c.24738,.18555,.23633,.56006-.02167,.73071l-.85126,.56299c-.2467,.16309-.58105,.04614-.67212-.23535l-.2356-.72778c-.22522,.22656-.48083,.41968-.75238,.59106,1.86932,.85571,3.17053,2.73804,3.17053,4.92822h5.71301l-2.89282-13.34766Z" style="fill:#482ec4;"/><path d="M24.95166,13.04272c.29431-1.70508-.73828-3.1665-2.93781-3.49341-2.30957-.34326-3.81183-1.87305-4.29272-2.43311-.06543-.07593-.18878-.04272-.20691,.05615-.11206,.61206-.51001,2.16943-1.77631,3.2981,0,0-.2124,.16235-.45032,.48169-.34961,.46924-.48718,1.06689-.38818,1.64355,.30121,1.75513,1.42389,3.19824,2.92847,3.92334,.65558,.31567,1.3761,.50928,2.14539,.50928,.75995,0,1.47327-.18774,2.12268-.49634,1.38654-.65894,2.45282-1.92578,2.85571-3.48926Zm-3.50287-2.28442c.31689,0,.57379,.30835,.57379,.68848,0,.38037-.2569,.68848-.57379,.68848-.31683,0-.57373-.30811-.57373-.68848,0-.38013,.2569-.68848,.57373-.68848Zm-2.229,3.71338h1.42865c.12866,0,.21997,.12354,.18591,.24756-.10852,.39526-.47046,.68579-.90021,.68579-.42981,0-.79175-.29053-.90021-.68579-.03406-.12402,.05725-.24756,.18585-.24756Zm-.80035-3.71338c.31689,0,.57379,.30835,.57379,.68848,0,.38037-.2569,.68848-.57379,.68848-.31683,0-.57373-.30811-.57373-.68848,0-.38013,.2569-.68848,.57373-.68848Z" style="fill:#ffc84d;"/><path d="M18.41943,12.13525c.31689,0,.57379-.30811,.57379-.68848,0-.38013-.2569-.68848-.57379-.68848-.31683,0-.57373,.30835-.57373,.68848,0,.38037,.2569,.68848,.57373,.68848Z"/><path d="M21.44879,12.13525c.31689,0,.57379-.30811,.57379-.68848,0-.38013-.2569-.68848-.57379-.68848-.31683,0-.57373,.30835-.57373,.68848,0,.38037,.2569,.68848,.57373,.68848Z"/><path d="M19.93414,15.40503c.42975,0,.79169-.29053,.90021-.68579,.03406-.12402-.05725-.24756-.18591-.24756h-1.42865c-.1286,0-.21991,.12354-.18585,.24756,.10846,.39526,.4704,.68579,.90021,.68579Z" style="fill:#5c2f17;"/></g><g><path d="M22.25177,31.27905c-.6535,.41235-1.42188,.66016-2.25177,.66016s-1.59827-.2478-2.25177-.66016c-1.86932,.85571-3.17053,2.73804-3.17053,4.92822h10.8446c0-2.19019-1.30121-4.07251-3.17053-4.92822Z" style="fill:#f56570;"/><path d="M16.25244,29.63916l-.95782,.71826c-.24738,.18555-.23627,.56006,.02167,.73071l.85132,.56299c.2467,.16309,.58099,.04614,.67212-.23535l.21796-.67334c-.32831-.31787-.59308-.69385-.80524-1.10327Z" style="fill:#f80;"/><path d="M23.23975,31.41577c.09106,.28149,.42542,.39844,.67212,.23535l.85126-.56299c.258-.17065,.26904-.54517,.02167-.73071l-1.01428-.76074c-.20239,.40186-.45239,.77539-.76636,1.09131l.2356,.72778Z" style="fill:#f80;"/><path d="M24.78003,26.48999c-.11005-.03003-.23004,.11987-.38,.19995-.05005,.03003-.11005,.04004-.16003,.05005-.52002,.06006-.98999-.02002-1.40997-.16992-1.89001-.67017-2.81-3-2.81-3-.5,1.01001-1.92999,2.15991-2.98999,2.90991-.69,.48999-1.22003,.81006-1.22003,.81006-.28998-.64014-.60999-.70996-.72998-.70996-.39001,.2998-.64001,.73999-.64001,1.23999,0,.87988,.75,1.58984,1.69,1.58984,.02997,.08008,.08002,.15015,.12,.23022,.21002,.40991,.47998,.77979,.81,1.09985,.21002,.20996,.44,.38013,.69,.54004,.65002,.40991,1.41998,.65991,2.25,.65991s1.59998-.25,2.25-.65991c.27002-.17017,.53003-.37012,.75-.59009,.32001-.31982,.57001-.68994,.77002-1.08984,.02997-.07007,.07001-.12012,.09998-.19019,.94,0,1.69-.70996,1.69-1.58984,0-.56006-.31-1.05005-.77997-1.33008Zm-5.97003,1.55005c-.25,0-.45001-.23999-.45001-.54004s.20001-.54004,.45001-.54004,.45001,.23999,.45001,.54004-.20001,.54004-.45001,.54004Zm1.19,2.31982c-.34003,0-.62-.21973-.71002-.52979-.01996-.1001,.05005-.2002,.15002-.2002h1.12c.09998,0,.16998,.1001,.15002,.2002-.09003,.31006-.37,.52979-.71002,.52979Zm1.19-2.31982c-.25,0-.45001-.23999-.45001-.54004s.20001-.54004,.45001-.54004,.45001,.23999,.45001,.54004-.20001,.54004-.45001,.54004Z" style="fill:#ffc84d;"/><path d="M18.80981,28.03906c.24902,0,.45087-.24243,.45087-.54102,0-.29883-.20184-.54102-.45087-.54102-.24896,0-.45081,.24219-.45081,.54102,0,.29858,.20184,.54102,.45081,.54102Z"/><path d="M21.19019,28.03906c.24896,0,.45081-.24243,.45081-.54102,0-.29883-.20184-.54102-.45081-.54102-.24902,0-.45087,.24219-.45087,.54102,0,.29858,.20184,.54102,.45087,.54102Z"/><path d="M20,30.36426c.33752,0,.62183-.22803,.70721-.53833,.02686-.09766-.0451-.19507-.14642-.19507h-1.12158c-.10132,0-.17328,.09741-.14642,.19507,.08539,.3103,.36969,.53833,.70721,.53833Z" style="fill:#5c2f17;"/><path d="M15.81323,27.28857s.52899-.32275,1.21692-.81201c1.05499-.75098,2.48724-1.89771,2.98566-2.90381,0,0,.92401,2.32227,2.81213,2.99976,.4223,.15161,.89166,.2229,1.41101,.16504,.04913-.00537,.10626-.02026,.16241-.04443,.1463-.08228,.26935-.2312,.38214-.20605l.00714-.00049c.03357-2.28174-1.49927-4.23511-3.59222-4.81714-.25586-.07129-.52533-.07983-.78735-.03662l-.42804,.0708c-.08459,.01392-.17084,.01514-.25586,.00366l-.21869-.02954c-.48383-.06494-.97955-.01489-1.43188,.16895-1.64746,.66992-2.85565,2.22363-3.02808,4.0542-.02185,.23218-.0274,.46143-.01776,.68677,0,0,.01996-.00293,.04901-.00293,.11719,.00024,.43817,.06299,.73346,.70386Z" style="fill:#f80;"/></g></svg>