<svg id="Layer_1" data-name="Layer 1" xmlns="http://www.w3.org/2000/svg" viewBox="0 0 40 40"><defs><style>.cls-1{fill:#dfc2c0;}.cls-2{fill:none;}</style></defs><path class="cls-1" d="M32.133,11.084s-3.348-1.674-4.91,1.394-2.009,4.129-7.755,7.309S9.258,27.619,8.2,31.58A9.518,9.518,0,0,0,9.342,38.6a.81.81,0,0,0,.706.4H29.18a.365.365,0,0,0,.36-.447,3.418,3.418,0,0,0-3.321-2.789h0s1.952-2.845,2.008-10.321c.04-5.309,3.455-6.508,5.432-7.1a3.364,3.364,0,0,0,2.082-1.753l.375-.776A1.843,1.843,0,0,0,36,13.98,7.311,7.311,0,0,0,32.133,11.084Z"/><circle class="cls-1" cx="7.239" cy="31.249" r="3.544"/><path class="cls-1" d="M21.114,11.277c3.129,1.407,8.3,1.261,8.3,1.261s-3.262-4.1-6.391-5.511S16.931,5.431,16.4,6.6,17.984,9.87,21.114,11.277Z"/><path class="cls-1" d="M23.49,7.582c2.012,2.779,6.569,5.23,6.569,5.23s-.783-5.184-2.8-7.963S22.776.429,21.733,1.183,21.478,4.8,23.49,7.582Z"/><circle cx="32.387" cy="14.049" r="0.956"/><rect class="cls-2" width="40" height="40"/></svg>