<svg id="Layer_1" data-name="Layer 1" xmlns="http://www.w3.org/2000/svg" viewBox="0 0 40 40"><defs><style>.cls-1{fill:#495b73;}.cls-2{fill:#c4d9ee;}.cls-3{fill:none;}</style></defs><path class="cls-1" d="M33.382,6.46a.775.775,0,0,0-.727-.51h-.021a.774.774,0,0,0-.726,1.039l4.949,13.58a48.233,48.233,0,0,0-15.146.684,6.757,6.757,0,0,1-3.034,0,49.948,49.948,0,0,0-15.566-.631L8.035,7.114a.773.773,0,0,0-.726-1.038H7.288a.772.772,0,0,0-.726.509L1.679,19.967A2.954,2.954,0,0,0,1.6,21.734l1.586,6.018c1.1,5.255,7.55,4.988,7.55,4.988,5.628,0,7.3-5.344,7.834-6.888A2.536,2.536,0,0,1,19.043,25a1.408,1.408,0,0,1,2.3,0,2.536,2.536,0,0,1,.475.857c.537,1.544,2.206,6.888,7.833,6.888,0,0,6.448.267,7.551-4.988l1.259-6.339a2.32,2.32,0,0,0-.1-1.241Z"/><path class="cls-2" d="M15.917,22.712a32.877,32.877,0,0,0-10.78.019.894.894,0,0,0-.7,1.056l.685,3.437c.823,3.921,5.634,3.722,5.634,3.722,4.2,0,5.444-3.988,5.845-5.14l.349-1.615A1.235,1.235,0,0,0,15.917,22.712Z"/><path class="cls-2" d="M24.362,22.712a32.879,32.879,0,0,1,10.78.019.893.893,0,0,1,.7,1.056l-.685,3.437c-.823,3.921-5.633,3.722-5.633,3.722-4.2,0-5.444-3.988-5.845-5.14l-.349-1.615A1.235,1.235,0,0,1,24.362,22.712Z"/><rect class="cls-3" width="40" height="40"/></svg>