<svg id="Layer_1" data-name="Layer 1" xmlns="http://www.w3.org/2000/svg" viewBox="0 0 40 40"><defs><style>.cls-1{fill:#333;}.cls-2{fill:#ed422f;}.cls-3{fill:#956759;}.cls-4{fill:#5c2f17;}.cls-5{fill:#474747;}.cls-6,.cls-7{fill:none;}.cls-6{stroke:#787878;stroke-miterlimit:10;stroke-width:0.939px;}</style></defs><path class="cls-1" d="M12.65,24.082l.74,2.97a1.234,1.234,0,0,0,1.2.936H25.571a1.235,1.235,0,0,0,1.219-1.042l.452-2.864Z"/><path class="cls-2" d="M26.6,31.06l-3.46-1.1a10.438,10.438,0,0,0-6.272,0l-3.46,1.1a7.436,7.436,0,0,0-3.918,2.8,5.854,5.854,0,0,0-.758,1.687l-.442,1.506c-.067.227.139.447.419.447H31.3c.28,0,.486-.22.419-.447l-.442-1.506a5.854,5.854,0,0,0-.758-1.687A7.436,7.436,0,0,0,26.6,31.06Z"/><circle class="cls-3" cx="20" cy="21.826" r="6.908"/><ellipse class="cls-3" cx="13.696" cy="22.02" rx="2.765" ry="2.594"/><ellipse class="cls-3" cx="26.304" cy="22.02" rx="2.765" ry="2.594"/><ellipse cx="18.059" cy="21.492" rx="0.735" ry="0.882"/><ellipse cx="21.941" cy="21.492" rx="0.735" ry="0.882"/><path class="cls-4" d="M20.914,24.97a.25.25,0,0,1,.239.318,1.2,1.2,0,0,1-2.306,0,.25.25,0,0,1,.239-.318Z"/><path class="cls-3" d="M18.352,26.8h3.313a0,0,0,0,1,0,0v3.144A1.656,1.656,0,0,1,20.009,31.6h0a1.656,1.656,0,0,1-1.656-1.656V26.8A0,0,0,0,1,18.352,26.8Z"/><path class="cls-5" d="M20.009,32.915a2.975,2.975,0,0,0,2.972-2.972v-.03a10.285,10.285,0,0,0-1.313-.3v.333a1.66,1.66,0,1,1-3.319,0v-.336a10.027,10.027,0,0,0-1.313.3v.034A2.976,2.976,0,0,0,20.009,32.915Z"/><path class="cls-6" d="M26.908,18.523v2.793a6.908,6.908,0,0,1-13.816,0V18.523"/><path class="cls-5" d="M17.136,2.5H22.82a6.073,6.073,0,0,1,6.073,6.073v9.963a1.651,1.651,0,0,1-1.651,1.651H12.715a1.651,1.651,0,0,1-1.651-1.651V8.573A6.073,6.073,0,0,1,17.136,2.5Z"/><rect class="cls-5" x="25.018" y="30.863" width="5.301" height="2.462" rx="1.231" transform="translate(16.32 -8.732) rotate(25.231)"/><rect class="cls-5" x="9.617" y="30.863" width="5.301" height="2.462" rx="1.231" transform="translate(37.046 55.897) rotate(154.769)"/><rect class="cls-5" x="19.594" y="32.695" width="0.812" height="4.805"/><rect class="cls-7" width="40" height="40"/></svg>