<svg id="Layer_1" data-name="Layer 1" xmlns="http://www.w3.org/2000/svg" viewBox="0 0 40 40"><defs><style>.cls-1{fill:#e0e0e0;}.cls-2{fill:#f93052;}.cls-3{fill:none;}</style></defs><path class="cls-1" d="M33.92,36.044a4.525,4.525,0,0,0,.761-3.183c-.765-5.717-2-14.695-2.764-19.024C30.754,7.254,26.252,3,20,3S9.246,7.254,8.083,13.837c-.765,4.329-2,13.307-2.764,19.024a4.521,4.521,0,0,0,.728,3.131A3.412,3.412,0,0,0,8.52,37c2.874,0,2.874-2.758,5.748-2.758S17.141,37,20.014,37s2.873-2.758,5.746-2.758S28.633,37,31.505,37A3.384,3.384,0,0,0,33.92,36.044Z"/><path class="cls-1" d="M8.308,24.693l-6.12-6.936c-1.336-1.515-.059-3.935,1.75-3.314L9.61,16.361Z"/><path class="cls-1" d="M31.692,24.693l6.12-6.936c1.336-1.515.059-3.935-1.75-3.314L30.39,16.361Z"/><circle cx="16.38" cy="12.014" r="1.755"/><circle cx="23.704" cy="12.075" r="1.755"/><path d="M26.3,16.78a.554.554,0,0,0-.6-.21,20.293,20.293,0,0,1-11.383-.095.541.541,0,0,0-.6.838,8.058,8.058,0,0,0,12.57.105A.539.539,0,0,0,26.3,16.78Z"/><path class="cls-2" d="M22.558,19.069V17.194a21.306,21.306,0,0,1-5.19-.05l0,2.749V19.9c0,.006,0,.011,0,.017l0,.013a2.6,2.6,0,0,0,5.187.014l.006-.879Z"/><rect class="cls-3" width="40" height="40"/></svg>