<?xml version="1.0" encoding="UTF-8"?><svg id="Layer_1" xmlns="http://www.w3.org/2000/svg" viewBox="0 0 40 40"><g><path d="m19.739,10.528c-4.209,0-11.332-.893-11.332-4.238s7.123-4.238,11.332-4.238,11.332.893,11.332,4.238-7.123,4.238-11.332,4.238Zm0-6.295c-5.993,0-9.031,1.495-9.231,2.09.199.529,3.239,2.024,9.231,2.024,5.885,0,8.921-1.442,9.218-2.057-.295-.615-3.331-2.057-9.218-2.057Z" fill="#ffe63b"/><path d="m22.79,26.006c-.56-.581-1.776-.362-3.254.445-.56-.604-1.897-.527-3.58.106.431-.853.534-1.572.219-2.037-.857-1.265-4.456-.179-8.039,2.425-3.583,2.605-5.794,5.741-4.938,7.006.493.728,1.897.674,3.68.003-.431.852-.533,1.572-.219,2.037.594.876,2.505.622,4.815-.482-.303.947-.291,1.698.106,2.109,1.054,1.093,4.419-.621,7.514-3.828,3.095-3.207,4.75-6.692,3.695-7.785Z" fill="#d0d5da"/><path d="m17.21,26.006c.56-.581,1.776-.362,3.254.445.56-.604,1.897-.527,3.58.106-.431-.853-.534-1.572-.219-2.037.857-1.265,4.456-.179,8.039,2.425,3.583,2.605,5.794,5.741,4.938,7.006-.493.728-1.897.674-3.68.003.431.852.533,1.572.219,2.037-.594.876-2.505.622-4.815-.482.303.947.291,1.698-.106,2.109-1.054,1.093-4.419-.621-7.514-3.828-3.095-3.207-4.75-6.692-3.695-7.785Z" fill="#d0d5da"/><g><ellipse cx="19.739" cy="20.549" rx="12.623" ry="13.571" fill="#6e4944"/><g><ellipse cx="9.506" cy="22.069" rx="4.489" ry="4.362" fill="#6e4944"/><ellipse cx="29.973" cy="22.069" rx="4.489" ry="4.362" fill="#6e4944"/></g><g><ellipse cx="16.589" cy="21.553" rx="1.193" ry="1.484"/><ellipse cx="22.89" cy="21.553" rx="1.193" ry="1.484"/></g><path d="m21.224,25.917c.268,0,.459.267.388.535-.226.851-.979,1.476-1.872,1.476s-1.646-.625-1.872-1.476c-.071-.268.119-.535.388-.535h2.969Z" fill="#5c2f17"/><path d="m19.342,10.704c-.045.605.533,1.044,1.079.824,1.27-.512,2.941-1.506,2.928-3.185-.022-2.707-3.253-2.509-4.019-2.36-1.074.21-2.323.971-2.885,1.342-.111.073-.086.248.043.28.857.218,3.011.98,2.855,3.098Z" fill="#333"/></g></g><rect y="0" width="40" height="40" fill="none"/></svg>