<?xml version="1.0" encoding="UTF-8"?><svg id="Layer_1" xmlns="http://www.w3.org/2000/svg" viewBox="0 0 40 40"><path d="m32.903,17.816l-.741-2.953c-.149-1.2-.975-2.209-2.122-2.592l-2.334-.78v.231c0,.436-.354.79-.79.79s-.79-.354-.79-.79v-.248l-2.55.863c-1.031.349-1.808,1.207-2.053,2.268l-1.175,3.408.444.121,2.011.549.573.156-.293,3.992h7.726l-.362-4.024.303-.122,1.953-.788.2-.081Z" fill="#d0d4d9"/><g><g><path d="m22.461,35.285c-.239.213-.379.514-.389.834v.255c0,.346.424.626.947.626h1.012c.667.035,1.314-.23,1.764-.723l.27-.359c.067-.086.104-.191.105-.3v-1.698h-2.301l-1.408,1.365Z" fill="#313c50"/><path d="m27.813,35.618c.001.109.038.214.105.3l.27.359c.45.493,1.097.759,1.764.723h1.011c.524,0,.948-.28.948-.626v-.255c-.01-.32-.151-.621-.389-.834l-1.408-1.365h-2.301v1.698Z" fill="#313c50"/></g><g><path d="m8.908,35.285c-.239.213-.38.514-.39.834v.255c0,.346.425.626.948.626h1.012c.666.036,1.314-.23,1.763-.723l.27-.359c.068-.085.105-.191.106-.3v-1.698h-2.301l-1.408,1.365Z" fill="#313c50"/><path d="m14.261,35.618c.001.109.038.215.106.3l.27.359c.449.493,1.097.759,1.763.723h1.01c.523,0,.948-.28.948-.626v-.255c-.01-.32-.151-.621-.39-.834l-1.408-1.365h-2.299v1.698Z" fill="#313c50"/></g></g><g><polygon points="30.56 22.83 30.37 33.92 27.43 33.92 26.94 25.78 26.45 33.92 23.51 33.92 23.32 22.83 30.56 22.83" fill="#6d7681"/><polygon points="17 22.83 16.82 33.92 13.87 33.92 13.39 25.78 12.9 33.92 9.95 33.92 9.77 22.83 17 22.83" fill="#6d7681"/></g><path d="m19.35,17.816l-.742-2.953c-.149-1.2-.974-2.209-2.121-2.592l-2.407-.804v.255c0,.436-.354.79-.79.79s-.79-.354-.79-.79v-.223l-2.477.838c-1.031.349-1.808,1.207-2.053,2.268l-1.176,3.408.446.122,2.01.548.573.156-.293,3.992h7.726l-.363-4.024.304-.123,1.954-.788.199-.08Z" fill="#75a4f9"/><g><g><g><path d="m20,21.476l.983,4.146c.003.039.003.077,0,.116,0,.016.012.03.014.047,0,.034-.01.064-.01.1,0,.038-.002.077-.007.115-.035.545-.446.981-.98,1.068.021.003.039.015.06.018.652.066,1.234-.408,1.3-1.06,0,0,0,0,0-.001.034-.377-.119-.747-.408-.992l1.851-6.35-2.011-.549-.792,3.342Z" fill="#c3846c"/><path d="m34.535,25.738c.003-.039.003-.077,0-.116l-1.832-7.725-1.953.788,1.85,6.348c-.291.243-.444.613-.412.991,0,.001,0,.002,0,.003.067.651.649,1.125,1.3,1.058.565-.061,1.003-.519,1.04-1.086.007-.038.011-.076.012-.114,0-.036.009-.066.009-.1-.001-.017-.014-.031-.014-.047Z" fill="#c3846c"/></g><path d="m30.64,6.92c-.08,0-.17.09-.28.15-.04.02-.08.03-.13.04-.32.02-.68-.04-1.05-.15-1.6-.46-3.35-1.87-3.35-1.87l-1.52,1.7-.67.75c-.21-.47-.45-.54-.55-.55-.31.22-.53.56-.53.96,0,.69.59,1.24,1.33,1.25.41.93,1.23,1.62,2.24,1.87v.65c0,.44.35.79.79.79.43,0,.79-.35.79-.79v-.65c1-.25,1.83-.94,2.24-1.87.73,0,1.32-.56,1.32-1.25,0-.44-.26-.81-.63-1.03Zm-4.19,2.45h.9c.07,0,.12.05.12.12v.03c-.08.31-.4.49-.71.4-.19-.05-.34-.2-.4-.4-.02-.06.02-.13.09-.15Zm-.47-1.25c-.19,0-.35-.19-.35-.42s.16-.42.35-.42c.2,0,.36.19.36.42s-.16.42-.36.42Zm1.87,0c-.2,0-.36-.19-.36-.42s.16-.42.36-.42c.19,0,.35.19.35.42s-.16.42-.35.42Z" fill="#c3846c"/></g><g><path d="m5.464,25.622c-.003.039-.003.077,0,.116,0,.016-.013.03-.014.047,0,.034.01.064.009.1,0,.038.002.077.008.115.037.567.475,1.025,1.04,1.086.651.067,1.233-.407,1.3-1.058,0,0,0-.002,0-.003.034-.377-.118-.747-.407-.992l1.85-6.35-2.01-.548-1.776,7.487Z" fill="#c3846c"/><path d="m20.98,26c.005-.038.008-.077.007-.115,0-.036.01-.066.01-.1-.002-.017-.014-.031-.014-.047.003-.039.003-.077,0-.116l-.983-4.146-.849-3.58-1.954.788,1.851,6.349c-.289.245-.442.615-.408.992,0,0,0,0,0,.001.066.652.648,1.126,1.3,1.06.021-.002.039-.014.06-.018.534-.087.945-.523.98-1.068Z" fill="#c3846c"/><path d="m17.02,6.92c-.09,0-.17.09-.28.15-.04.02-.08.03-.13.04-.33.02-.69-.04-1.05-.15-1.6-.46-3.35-1.87-3.35-1.87l-1.52,1.7-.67.75c-.22-.47-.45-.54-.55-.55-.32.22-.53.56-.53.96,0,.69.59,1.25,1.32,1.25.41.92,1.24,1.62,2.24,1.87v.65c0,.44.35.79.79.79s.79-.35.79-.79v-.65c1.01-.24,1.83-.94,2.25-1.87.73-.01,1.32-.56,1.32-1.25,0-.44-.26-.81-.63-1.03Zm-2.79.36c.19,0,.35.19.35.42s-.16.42-.35.42c-.2,0-.36-.19-.36-.42s.16-.42.36-.42Zm-1.87,0c.2,0,.36.19.36.42s-.16.42-.36.42c-.19,0-.35-.19-.35-.42s.16-.42.35-.42Zm2.08,2.34l-.6-.08c-.1.29-.4.47-.7.38-.18-.05-.32-.19-.38-.37l-.53.07c-.06,0-.11-.02-.16-.07-.09-.09-.09-.24.01-.33.35-.3.8-.46,1.26-.45.46-.01.91.15,1.26.45.04.04.07.1.07.16,0,.13-.1.24-.23.24Z" fill="#c3846c"/></g></g><g><path d="m23.639,7.537l.67-.75,1.517-1.698s1.754,1.408,3.352,1.874c.369.107.729.165,1.057.143.044-.005.087-.017.127-.035.105-.059.194-.151.276-.153.009,0,.019-.012.028-.009.056-2.11-1.609-3.866-3.719-3.922-2.011-.054-3.719,1.461-3.907,3.464-.017.178-.021.358-.014.537,0,0,.023-.005.061-.001.107.01.339.088.552.55Z" fill="#523725"/><g><path d="m10.017,7.537l.67-.75,1.518-1.698s1.753,1.408,3.35,1.874c.369.107.729.165,1.057.143.044-.005.087-.017.127-.035.105-.059.194-.151.276-.153.009,0,.02-.012.029-.009.043-2.11-1.633-3.856-3.744-3.899-2.11-.043-3.856,1.633-3.899,3.744-.002.078,0,.156.002.234,0,0,.023-.005.06-.001.107.009.339.087.552.55Z" fill="#523725"/><path d="m13.114,9.507c.149-.019.299-.019.448,0l.275.036.604.079c.129-.003.231-.109.229-.237-.001-.061-.026-.12-.07-.163-.35-.301-.799-.462-1.261-.45-.462-.012-.911.149-1.261.45-.092.09-.094.237-.005.329.043.044.101.069.163.071l.524-.069.355-.046Z" fill="#523725"/></g></g><g><g><path d="m26.338,7.7c0-.234-.158-.423-.353-.423s-.353.189-.353.423.158.423.353.423.353-.189.353-.423Z"/><path d="m27.848,8.123c.195,0,.353-.189.353-.423s-.158-.423-.353-.423-.353.189-.353.423.158.423.353.423Z"/></g><g><path d="m12.363,8.123c.195,0,.353-.189.353-.423s-.158-.423-.353-.423-.353.189-.353.423.158.423.353.423Z"/><path d="m14.226,8.123c.195,0,.353-.189.353-.423s-.158-.423-.353-.423-.353.189-.353.423.158.423.353.423Z"/></g></g><g><path d="m26.764,9.923c.306.084.622-.096.706-.401.003-.011.005-.022.005-.033,0-.066-.053-.12-.12-.12h-.878c-.011,0-.021.002-.032.005-.064.018-.101.085-.082.148.054.195.206.348.401.401Z" fill="#56321b"/><path d="m13.114,9.507l-.355.046c.062.178.2.32.383.37.298.082.602-.089.695-.38l-.275-.036c-.149-.019-.299-.019-.448,0Z" fill="#56321b"/></g></svg>