<?xml version="1.0" encoding="UTF-8"?><svg id="Layer_1" xmlns="http://www.w3.org/2000/svg" viewBox="0 0 40 40"><g><path d="M29.14661,15.43011l.98026-6.07419c.30434-2.64094,.96169-4.94718,4.54338-4.54338h0s5.32974,.99233,5.32974,4.02755c0,2.657-2.95188,3.71471-4.12925,4.03091-.28968,.0778-.5103,.30081-.56771,.59521-.2155,1.10504-.20739,.92952-1.18993,4.1686-1.85948,6.13005-6.3954,12.49898-16.81746,13.20658-8.44945,.57367-12.23252,.42794-13.92365,.19658-1.11955-.15316-1.57117-1.57251-.7018-2.29434,.54559-.453,1.4979-.8102,3.14272-.81742,4.54669-.01998,23.3337-12.49608,23.3337-12.49608Z" style="fill:#03905a;"/><path d="M26.86315,35.23362h-5.69922c-.47133,0-.85706-.37512-.8702-.84627l-.35902-12.87329c-.01845-.66144,.51273-1.20764,1.17443-1.20764h.93571c3.00457,0,5.45688,2.40394,5.51672,5.40792l.17194,8.63141c.00971,.48747-.38279,.88787-.87036,.88787Z" style="fill:#03905a;"/><path d="M6.89979,35.23362h5.35436c.48078,0,.723-.38551,.87053-.87053l1.16309-5.11384c0-1.95935-1.58836-3.54771-3.54771-3.54771h0c-1.95935,0-3.54771,1.58836-3.54771,3.54771l-1.16309,5.11384c-.14657,.54226,.38975,.87053,.87053,.87053Z" style="fill:#03905a;"/><path d="M27.189,14.1456c-2.63715-2.72831-6.55093-4.45689-10.91979-4.45689-7.9413,0-14.379,5.71133-14.379,12.75662,0,.77911,.07873,1.54191,.22951,2.28247,0,0,.18064,5.08468,8.22275,.79555,8.04211-4.28912,17.46286-10.68451,17.46286-10.68451l-.61633-.69324Z" style="fill:#036d50;"/><path d="M5.29498,29.06287c2.69166,0,5.25815-1.40182,5.60411-1.59831l18.14285-11.16385c.64598-.3972,.84722-1.24336,.44949-1.88881-.39773-.64545-1.24336-.84722-1.88934-.45002L9.5015,25.10038c-.84247,.47326-3.53624,1.63845-5.34107,1.05533-.69774-.22607-1.18737-.68665-1.54021-1.44936-.31744-.68982-1.1335-.99089-1.82279-.6708-.68823,.31797-.98877,1.13456-.67027,1.82226,.66975,1.45041,1.77578,2.45715,3.1982,2.91456,.64334,.20599,1.31044,.29051,1.96963,.29051Z" style="fill:#7bb593;"/><circle cx="36.49251" cy="8.53584" r="1.29669" style="fill:#163823;"/></g><rect x="0" width="40" height="40" style="fill:none;"/></svg>