<svg id="Layer_1" data-name="Layer 1" xmlns="http://www.w3.org/2000/svg" viewBox="0 0 40 40"><defs><style>.cls-1{fill:#6b7683;}.cls-2{fill:none;}</style></defs><path class="cls-1" d="M28.584,6.92l-3.822,3.933S12.151,9.371,6.388,15.924a13.154,13.154,0,0,0-1.312,15.9c1.427,1.71,4.964,4.217,11.983,4.559a103.861,103.861,0,0,0,11.583,0,4.751,4.751,0,0,0-3.2-1.2c-2.111-.057-12.61.171-16.148-2.678s-2.4-3.02-2.4-3.02h9.03a.519.519,0,0,0,.484-.714,2.149,2.149,0,0,0-1.626-1.355.214.214,0,0,1-.119-.358l1.672-1.709a2.527,2.527,0,0,1,3.875.938l1.272,2.82a.933.933,0,0,0,.85.549h1.9a.41.41,0,0,0,.345-.63l-.336-.526a1.849,1.849,0,0,1-.087-1.842l3.515-6.826a15.6,15.6,0,0,1,6.287-6.492l1.056-.588.042-.023c2.9-1.655,2.467-3.826-.791-4.549Z"/><ellipse class="cls-1" cx="24.994" cy="8.169" rx="4.71" ry="4.704"/><circle cx="31.604" cy="10.007" r="1.069"/><rect class="cls-2" width="40" height="40"/></svg>