<?xml version="1.0" encoding="UTF-8"?><svg id="a" xmlns="http://www.w3.org/2000/svg" viewBox="0 0 40 40"><path d="M13.663,6.489c0-.663-.537-1.2-1.2-1.2H7.836c-.663,0-1.2,.537-1.2,1.2v1.042h7.027v-1.042Z" fill="#8595aa"/><path d="M20,15.432c-3.524,0-6.392,2.868-6.392,6.393s2.867,6.391,6.392,6.391,6.392-2.867,6.392-6.391-2.867-6.393-6.392-6.393Zm0,9.592c-1.764,0-3.199-1.436-3.199-3.2,0-.425,.087-.828,.238-1.199-.336-.233-.571-.603-.571-1.042,0-.712,.579-1.292,1.291-1.292,.439,0,.809,.234,1.042,.571,.371-.151,.775-.238,1.199-.238,1.764,0,3.2,1.436,3.2,3.2s-1.435,3.2-3.2,3.2Z" fill="#333d4b"/><g><path d="M33.7,7.531h-3.045l.421,2.906h0c.129,.892,.668,1.592,1.344,1.743l2.937,.659c.248,.056,.424,.276,.424,.53s-.176,.475-.424,.53l-2.937,.658c-.675,.151-1.215,.852-1.344,1.742l-.529,3.66c-.038,.267-.268,.465-.537,.465s-.499-.198-.537-.466l-.528-3.659c-.129-.891-.669-1.591-1.344-1.742l-2.937-.658c-.248-.056-.424-.276-.424-.53s.176-.475,.424-.53l2.937-.659c.676-.151,1.215-.852,1.344-1.742l.42-2.907H6.3c-2.209,0-4,1.791-4,4V31.666c0,2.2,1.8,4,4,4h27.4c2.209,0,4-1.791,4-4V11.531c0-2.209-1.791-4-4-4Zm-13.7,22.184c-4.352,0-7.892-3.54-7.892-7.891s3.54-7.893,7.892-7.893,7.892,3.541,7.892,7.893-3.54,7.891-7.892,7.891Z" fill="#4e5968"/><path d="M20,18.623c-.424,0-.828,.087-1.199,.238,.145,.209,.249,.448,.249,.721,0,.712-.579,1.291-1.291,1.291-.273,0-.512-.104-.721-.249-.151,.371-.238,.775-.238,1.199,0,1.764,1.435,3.2,3.199,3.2s3.2-1.436,3.2-3.2-1.435-3.2-3.2-3.2Z" fill="#4e5968"/></g><path d="M19.05,19.582c0-.273-.104-.512-.249-.721-.233-.336-.603-.571-1.042-.571-.712,0-1.291,.579-1.291,1.292,0,.439,.235,.809,.571,1.042,.209,.145,.448,.249,.721,.249,.712,0,1.291-.579,1.291-1.291Z" fill="#fff"/><path d="M20,13.932c-4.352,0-7.892,3.541-7.892,7.893s3.54,7.891,7.892,7.891,7.892-3.54,7.892-7.891-3.54-7.893-7.892-7.893Zm0,14.283c-3.524,0-6.392-2.867-6.392-6.391s2.867-6.393,6.392-6.393,6.392,2.868,6.392,6.393-2.867,6.391-6.392,6.391Z" fill="#d0d6de"/><path d="M35.78,13.37c0,.25-.18,.47-.42,.53l-2.94,.66c-.68,.15-1.22,.85-1.34,1.74l-.53,3.66c-.04,.27-.27,.47-.54,.47s-.5-.2-.54-.47l-.53-3.66c-.13-.89-.67-1.59-1.34-1.74l-2.94-.66c-.24-.06-.42-.28-.42-.53s.18-.47,.42-.53l2.94-.66c.68-.15,1.21-.85,1.34-1.74l.42-2.91,.11-.75c.04-.27,.27-.47,.54-.47s.5,.2,.54,.47l.1,.75,.43,2.91c.12,.89,.66,1.59,1.34,1.74l2.94,.66c.24,.06,.42,.28,.42,.53Z" fill="#ffe63b"/></svg>