<svg id="Layer_1" data-name="Layer 1" xmlns="http://www.w3.org/2000/svg" viewBox="0 0 40 40"><defs><style>.cls-1{fill:#5a81ff;}.cls-2{fill:#ffdb87;}.cls-3{fill:#ffb582;}.cls-4{fill:#5c2f17;}.cls-5{fill:#262626;}.cls-6{fill:#fb0;}.cls-7{fill:#374be5;}.cls-8{fill:#3036d1;}.cls-9{fill:#94a4ff;}.cls-10{fill:none;}</style></defs><path class="cls-1" d="M27.651,28.581l-4.014-1.525a10.242,10.242,0,0,0-7.274,0l-4.014,1.525a8.869,8.869,0,0,0-4.544,3.878A8.977,8.977,0,0,0,6.926,34.8L6.413,36.88a.5.5,0,0,0,.486.62H33.1a.5.5,0,0,0,.486-.62L33.074,34.8a8.963,8.963,0,0,0-.879-2.336A8.869,8.869,0,0,0,27.651,28.581Z"/><path class="cls-2" d="M10.01,19.63,11,23.616a1.656,1.656,0,0,0,1.607,1.256H27.349a1.656,1.656,0,0,0,1.636-1.4l.607-3.844Z"/><circle class="cls-3" cx="20" cy="16.95" r="8.724"/><ellipse class="cls-3" cx="12.038" cy="17.195" rx="3.493" ry="3.276"/><ellipse class="cls-3" cx="27.962" cy="17.195" rx="3.493" ry="3.276"/><path class="cls-2" d="M29.866,14.448A10.059,10.059,0,0,0,9.917,12.4a10.467,10.467,0,0,0-.155,2.144.106.106,0,0,0,.1.105c.223,0,.794.116,1.35,1.127a.249.249,0,0,0,.4.057l5.515-6.171s6.986,5.61,11.6,5.3a1.068,1.068,0,0,0,.334-.091C29.372,14.7,29.63,14.38,29.866,14.448Z"/><ellipse cx="17.549" cy="16.528" rx="0.928" ry="1.114"/><ellipse cx="22.451" cy="16.528" rx="0.928" ry="1.114"/><path class="cls-4" d="M21.155,20.921a.314.314,0,0,1,.3.4,1.51,1.51,0,0,1-2.912,0,.314.314,0,0,1,.3-.4Z"/><path class="cls-3" d="M17.908,24.581h4.184a0,0,0,0,1,0,0v3.971A2.092,2.092,0,0,1,20,30.644h0a2.092,2.092,0,0,1-2.092-2.092V24.581A0,0,0,0,1,17.908,24.581Z"/><path class="cls-1" d="M20,14.918a15.26,15.26,0,0,0,11.209-4.89A3.052,3.052,0,0,0,30.6,5.354,20.208,20.208,0,0,0,20,2.5,20.208,20.208,0,0,0,9.4,5.354a3.052,3.052,0,0,0-.606,4.674A15.26,15.26,0,0,0,20,14.918Z"/><path class="cls-5" d="M29.867,11.315a24.126,24.126,0,0,0-19.734,0A15.271,15.271,0,0,0,20,14.918,15.271,15.271,0,0,0,29.867,11.315Z"/><path class="cls-6" d="M20.1,4.156a.107.107,0,0,0-.163,0,1.582,1.582,0,0,1-1.2.55,1.555,1.555,0,0,1-.852-.255.111.111,0,0,0-.168.1c.107,1.81,1.086,3.228,2.281,3.228s2.165-1.406,2.279-3.2a.11.11,0,0,0-.166-.1,1.558,1.558,0,0,1-.817.233A1.582,1.582,0,0,1,20.1,4.156Z"/><path class="cls-7" d="M23.724,27.155a.381.381,0,0,0-.283-.223L22.092,26.5,20.175,30.48a.235.235,0,0,1-.35,0L17.908,26.5l-1.349.431a.381.381,0,0,0-.283.223l-1.025,3.467c-.026.087.124.153.251.11l1.651-.558a.811.811,0,0,1,.669.068l1.835,1.235a.679.679,0,0,0,.686,0l1.835-1.235a.811.811,0,0,1,.669-.068l1.651.558c.127.043.277-.023.251-.11Z"/><path class="cls-8" d="M10.533,32.042a3.562,3.562,0,0,0,1.919-3.5l-.1.038a8.878,8.878,0,0,0-4.545,3.877c-.048.085-.088.174-.133.261A4.259,4.259,0,0,0,10.533,32.042Z"/><path class="cls-8" d="M27.654,28.581l-.1-.038a3.564,3.564,0,0,0,1.919,3.5,4.261,4.261,0,0,0,2.86.677c-.045-.087-.085-.176-.134-.261A8.872,8.872,0,0,0,27.654,28.581Z"/><path class="cls-9" d="M17.3,35.565l-2.255.751a1.276,1.276,0,0,1-.8,0l-2.256-.751a.19.19,0,0,1-.13-.181V34.49a.19.19,0,0,1,.19-.191h5.192a.19.19,0,0,1,.191.191v.894A.191.191,0,0,1,17.3,35.565Z"/><path class="cls-6" d="M26.654,33.387V32.7a.176.176,0,0,0-.176-.177H24.543a.177.177,0,0,0-.177.177v.717a2.934,2.934,0,0,0-.7,1.392,1.732,1.732,0,0,0,1.858,1.57,1.732,1.732,0,0,0,1.858-1.57A3,3,0,0,0,26.654,33.387Z"/><rect class="cls-10" width="40" height="40"/></svg>