<?xml version="1.0" encoding="UTF-8"?><svg id="Layer_1" xmlns="http://www.w3.org/2000/svg" viewBox="0 0 40 40"><g><g><g><path d="M18.79987,30.69067c-2.23175-1.38306-4.59747-2.34277-5.47369-2.67847v.42188c0,.07178-.04163,.14136-.10559,.17383-1.06927,.54395-2.07703,.15088-2.39563-.00244-.06549-.03174-.10376-.09619-.10376-.1687v-.49146c-.68219,.25488-3.24426,1.25439-5.65021,2.74536-2.80518,1.73828-2.64709,6.77197-2.64709,6.77197H21.44696s.15802-5.03369-2.64709-6.77197Z" style="fill:#482ec5;"/><path d="M6.72858,22.60132c-.10406-.6062,.04059-1.23438,.40808-1.72754,.25018-.33569,.47345-.50659,.47345-.50659,1.33124-1.18652,1.74963-2.82373,1.86749-3.46729,.01898-.104,.14868-.13892,.21747-.05884,.50555,.58862,2.0849,2.19678,4.51294,2.55762,2.31238,.34375,3.39801,1.88013,3.08862,3.67285-.51337,1.99194-2.0451,3.53247-3.97046,4.01587v.60669c3.17645-.10522,4.66626-.61646,5.34644-1.02856,.34973-.21191,.57056-.58569,.58014-.99463,.08203-3.5083-.43695-6.53613-.96161-7.96655-.70428-1.91968-2.80695-4.04053-5.5603-4.32666-2.7533-.28589-3.98694,1.50195-3.98694,1.50195-3.93146,1.7229-3.77069,9.05835-3.67047,10.84985,.01996,.35693,.19379,.68896,.49005,.8894,.60779,.41089,2.00043,.94727,5.15771,1.07104v-.62524c-2.03607-.54541-3.61737-2.2771-3.99261-4.46338Z" style="fill:#333;"/><path d="M10.42926,20.66992c-.33313,0-.60321,.32397-.60321,.72388,0,.39966,.27008,.72388,.60321,.72388s.60315-.32422,.60315-.72388c0-.3999-.27002-.72388-.60315-.72388Z"/><path d="M13.61401,20.66992c-.33313,0-.60315,.32397-.60315,.72388,0,.39966,.27002,.72388,.60315,.72388s.60321-.32422,.60321-.72388c0-.3999-.27008-.72388-.60321-.72388Z"/><path d="M12.78027,24.59277h-1.48126c-.13379,0-.22882,.12842-.19336,.25732,.11279,.41016,.48822,.71118,.93402,.71118,.44574,0,.82123-.30103,.93402-.71118,.03546-.12891-.05957-.25732-.19342-.25732Z" style="fill:#5c2f17;"/><path d="M14.21002,19.3999c-2.42999-.35986-4.01001-1.96997-4.51001-2.56006-.07001-.07983-.20001-.03979-.22003,.06006-.12,.64014-.53998,2.28003-1.87,3.47021,0,0-.21997,.16992-.46997,.5-.37,.5-.52002,1.12988-.41003,1.72998,.37,2.18994,1.96002,3.91992,3.98999,4.45996v1.37988c0,.07007,.04004,.13013,.10004,.16992,.32001,.15015,1.33002,.54004,2.39996,0,.06006-.02979,.11005-.09985,.11005-.17993v-1.34009c1.91998-.48975,3.45001-2.02979,3.96997-4.01978,.31-1.79004-.77997-3.33008-3.08997-3.67017Zm-2.91003,5.18994h1.48004c.12994,0,.22998,.13013,.18994,.26025-.10999,.40991-.47998,.70996-.92999,.70996-.44995,0-.82001-.30005-.92999-.70996-.03998-.13013,.06-.26025,.19-.26025Zm-.87-2.46973c-.33002,0-.59998-.33008-.59998-.72998,0-.40015,.26996-.72021,.59998-.72021s.60004,.32007,.60004,.72021c0,.3999-.27002,.72998-.60004,.72998Zm3.17999,0c-.32996,0-.59998-.33008-.59998-.72998,0-.40015,.27002-.72021,.59998-.72021,.34003,0,.60999,.32007,.60999,.72021,0,.3999-.26996,.72998-.60999,.72998Z" style="fill:#956759;"/></g><g><path d="M34.66998,20.02002c-.14996-.04004-.32001,.16992-.52997,.28003-.07001,.03979-.15002,.05981-.22003,.07007-.58997,.02979-1.22998-.07007-1.88995-.27002-2.80005-.83008-5.85004-3.28003-5.85004-3.28003l-2.64996,2.96997-1.19,1.33008c-.41003-.88013-.85004-.97021-1.01001-.96021-.53003,.40015-.88,1-.88,1.69019,0,1.20996,1.03998,2.17993,2.32001,2.18994,.72998,1.6499,2.19995,2.88989,3.98999,3.31006v1.08984c0,.07007,.03998,.13013,.10999,.16992,.31,.15015,1.32001,.54004,2.39001,0,.07001-.02979,.10999-.09985,.10999-.17993v-1.05981c1.82001-.41016,3.31-1.66016,4.04999-3.33008,1.28003-.01001,2.32001-.97998,2.32001-2.18994,0-.77002-.42999-1.44019-1.07001-1.83008Zm-7.34998,4.31982h1.54999c.14001,0,.22998,.13013,.20001,.27002-.12,.42017-.51001,.74023-.97003,.74023-.46997,0-.85999-.32007-.97998-.74023-.02997-.13989,.07001-.27002,.20001-.27002Zm-.85999-2.18994c-.34003,0-.62-.32983-.62-.73999,0-.40991,.27997-.75,.62-.75,.33997,0,.62,.34009,.62,.75,0,.41016-.28003,.73999-.62,.73999Zm3.26996,0c-.33997,0-.62-.32983-.62-.73999,0-.40991,.28003-.75,.62-.75,.34003,0,.62,.34009,.62,.75,0,.41016-.27997,.73999-.62,.73999Z" style="fill:#ffcca8;"/><path d="M22.34045,21.12256l1.18872-1.33008,2.65222-2.96777s3.05048,2.44849,5.84528,3.2771c.6604,.19556,1.3067,.30249,1.8949,.26343,.06781-.00464,.14606-.02808,.22327-.06104,.20251-.11426,.37286-.32227,.52881-.28369l.00623-.00024c.05878-3.9978-3.38055-7.26196-7.45367-6.82446-3.13269,.33643-5.6413,2.88232-5.93671,6.01929-.03009,.31909-.03778,.63428-.02448,.94385,0,0,.02655-.00366,.06464-.00366,.15863-.00098,.60248,.08105,1.0108,.96729Z" style="fill:#333;"/><ellipse cx="26.45929" cy="21.4082" rx=".61963" ry=".74365"/><path d="M29.73102,22.15186c.34222,0,.61969-.33301,.61969-.74365s-.27747-.74365-.61969-.74365-.61963,.33301-.61963,.74365,.2774,.74365,.61963,.74365Z"/><path d="M28.09515,25.34814c.46393,0,.85468-.31348,.97205-.74023,.03699-.13428-.06195-.26807-.20123-.26807h-1.54163c-.13922,0-.23816,.13379-.20123,.26807,.11737,.42676,.50812,.74023,.97205,.74023Z" style="fill:#5c2f17;"/><path d="M34.92902,30.69067c-2.31061-1.43188-4.7663-2.41089-5.56195-2.71216v.45557c0,.07153-.04163,.14111-.10559,.17383-1.06927,.54395-2.07703,.15063-2.39563-.00269-.06549-.03149-.10376-.09595-.10376-.1687v-.45801c-.79572,.30127-3.2514,1.28027-5.56195,2.71216-2.80511,1.73828-2.64709,6.77197-2.64709,6.77197h19.02307s.15808-5.03369-2.64709-6.77197Z" style="fill:#5268ea;"/></g></g><path d="M19.31751,13.94111c.41471,.274,.95027,.274,1.36498,0,1.31662-.86988,4.18607-2.94844,5.42114-5.27434,1.62944-3.06859-.2842-6.12935-2.81265-6.12935-1.44152,0-2.30905,.75314-2.78853,1.40066-.25272,.34129-.75218,.34129-1.00491,0-.47948-.64752-1.34701-1.40066-2.78853-1.40066-2.52845,0-4.44209,3.06076-2.81265,6.12935,1.23508,2.32591,4.10452,4.40446,5.42114,5.27434Z" style="fill:#ec4452;"/></g><rect width="40" height="40" style="fill:none;"/></svg>