<?xml version="1.0" encoding="UTF-8"?><svg id="Layer_1" xmlns="http://www.w3.org/2000/svg" viewBox="0 0 40 40"><g><g><path d="M9.56343,24.01372s-1.27231-13.98445,5.49088-16.94839c0,0,1.8592-2.6945,6.00873-2.26338,4.14953,.43112,7.31844,3.62723,8.37989,6.52069,.79072,2.15547,1.57282,6.71867,1.4493,12.00632-.01434,.61382-.34424,1.17653-.86889,1.49545-1.1448,.69588-3.79766,1.58742-9.87643,1.58742-9.96964,0-10.58348-2.3981-10.58348-2.3981Z" style="fill:#333;"/><path d="M20.01001,30.51996c1.14001,0,2.06-.91998,2.06-2.04999v-3.16998c2.85999-.75,5.10999-3.04999,5.88-5.98999,.45996-2.66998-1.16998-4.96002-4.66003-5.47003-3.65997-.53998-6.03998-2.94-6.79999-3.82001-.10999-.12-.29999-.06-.33002,.09003-.17999,.96002-.81,3.40002-2.81995,5.16998,0,0-.33002,.26001-.71002,.76001-.54999,.72998-.77002,1.66998-.62,2.57001,.57001,3.23999,2.90997,5.84003,5.95001,6.66998v3.19c0,1.13,.91998,2.04999,2.04999,2.04999Z" style="fill:#6e4944;"/><g><ellipse cx="17.59332" cy="16.8872" rx=".90938" ry="1.09126"/><ellipse cx="22.39486" cy="16.8872" rx=".90938" ry="1.09126"/></g><path d="M21.12631,21.68147c.20388,0,.34857,.19582,.29461,.39244-.17195,.6266-.74562,1.087-1.42683,1.087s-1.25487-.4604-1.42683-1.087c-.05395-.19661,.09073-.39244,.29461-.39244h2.26442Z" style="fill:#5c2f17;"/></g><g><path d="M33.349,36.89117l-.50409-2.0484c-.19604-.79675-.45471-1.58435-.86316-2.29596-.99561-1.73438-2.56689-3.0885-4.4649-3.80957l-3.94324-1.49811c-.49133-.18665-.995-.32495-1.5036-.43195v1.66278c0,1.13-.91998,2.04999-2.06,2.04999-1.13,0-2.04999-.91998-2.04999-2.04999v-1.66974c-.51886,.10748-1.03259,.2486-1.53363,.4389l-3.94318,1.49805c-1.89807,.72113-3.46936,2.07526-4.46497,3.80963-.40845,.71161-.66711,1.49927-.86316,2.29602l-.50409,2.04834c-.07617,.30969,.15826,.60883,.47717,.60883h25.74371c.31891,0,.55334-.29913,.47711-.60883Z" style="fill:#d9d9d9;"/><g><path d="M30.76105,6.27667c-2.35394-2.2796-6.28577-3.77667-10.75031-3.77667s-8.39642,1.49707-10.75024,3.77673c-.75452,.73065-1.01642,1.83752-.63135,2.8147,.42755,1.08508,1.13898,2.08002,2.06372,2.94586v-1.54736c0-.27551,.15198-.53052,.40155-.64716,2.33466-1.09155,5.46783-1.76105,8.91632-1.76105,3.43719,0,6.56183,.66479,8.89417,1.74988,.25018,.11646,.40277,.37177,.40277,.64777v1.55597c-2.36902-1.20026-5.65784-1.9455-9.29694-1.9455-3.64703,0-6.94104,.74908-9.31128,1.95392,2.16907,2.0271,5.53027,3.33167,9.31128,3.33167,5.3988,0,9.95142-2.65411,11.38165-6.284,.38501-.97723,.12311-2.08411-.63135-2.81476Zm-7.25006-1.5874c-.93616,1.63092-2.61145,1.1955-2.64758,1.18591-.00085,.54901-.44574,.99365-.99487,.99365s-.99396-.4447-.99481-.99371c-.03583,.00946-1.71136,.44525-2.64758-1.18585-.10284-.1792,.02692-.40399,.23358-.40399h1.51617c.05304,0,.10486,.01569,.14899,.04504l1.13867,.75836-.0108,.02209c.17078-.13794,.37915-.23224,.61578-.23224s.44501,.09424,.61578,.23218l-.0108-.02203,1.13867-.75836c.04413-.02936,.09601-.04504,.14899-.04504h1.51624c.2066,0,.33643,.22479,.23358,.40399Z" style="fill:#242424;"/><path d="M29.30768,12.03534v-1.55597c0-.276-.15259-.53131-.40277-.64777-2.33234-1.08508-5.45697-1.74988-8.89417-1.74988-3.44849,0-6.58167,.66949-8.91632,1.76105-.24957,.11664-.40155,.37164-.40155,.64716v1.55688l.00659-.00305c2.37024-1.20483,5.66425-1.95392,9.31128-1.95392,3.6391,0,6.92792,.74524,9.29694,1.9455Z" style="fill:#fb0;"/><path d="M23.51001,4.69c-.94,1.63-2.60999,1.19-2.65002,1.19,0,.53998-.44,.98999-.98999,.98999s-1-.45001-1-.98999c-.02997,0-1.71002,.44-2.64001-1.19-.10999-.17999,.02002-.40002,.23004-.40002h1.51996c.05005,0,.10004,.01001,.14001,.03998l1.14001,.76001-.01001,.02002c.16998-.14001,.38-.22998,.62-.22998s.44,.08997,.60999,.22998l-.01001-.02002,1.14001-.76001c.04999-.02997,.10004-.03998,.15002-.03998h1.52002c.19995,0,.32996,.22003,.22998,.40002Z" style="fill:#fb0;"/></g><polygon points="19.93591 32.96433 17.43322 30.43237 22.54536 30.43237 19.93591 32.96433" style="fill:#261e18;"/><polygon points="18.33644 37.5 19.94997 31.53929 21.57354 37.5 18.33644 37.5" style="fill:#261e18;"/><path d="M22.06604,26.7976l-2.05946,2.48482-2.05108-2.48482c-.90726,.14505-1.94758,.60054-1.94758,.60054l1.59623,4.54134c.06282,.17873,.27637,.25152,.43528,.14836l1.96719-1.27707,1.96011,1.27012c.16244,.10526,.38048,.02657,.43828-.15816l1.43376-4.58284s-.89321-.38623-1.77272-.5423Z" style="fill:#f5f5f5;"/><path d="M16.4264,27.23914l-3.94324,1.49806c-1.89804,.72113-3.46932,2.07524-4.46492,3.80963-.40848,.71161-.66712,1.49925-.86318,2.29599l-.50407,2.04841c-.0762,.30968,.15823,.60877,.47719,.60877h11.21298l-1.50579-10.39518c-.13622,.04521-.27428,.08316-.40896,.13432Z" style="fill:#333;"/><path d="M33.349,36.89124l-.50409-2.0484c-.19604-.79675-.45465-1.58441-.86316-2.29602-.99561-1.73438-2.56689-3.0885-4.4649-3.80963l-3.94324-1.49805c-.1347-.05115-.27277-.08911-.409-.13434l-1.50574,10.3952h11.21295c.31897,0,.55341-.29913,.47717-.60876Zm-6.30902-2.70123c0,.32996-.26996,.59998-.59998,.59998s-.59998-.27002-.59998-.59998c0,0-1.03003,.27997-1.60004-.71002-.06-.10999,.02002-.25,.14001-.25h.91998c.03003,0,.06,.01001,.09003,.03003l.67999,.45996c.09998-.07996,.22998-.13,.37-.13s.27002,.05005,.37,.13l.67999-.45996c.03003-.02002,.06-.03003,.09003-.03003h.91998c.12,0,.20001,.14001,.14001,.25-.57001,.98999-1.60004,.71002-1.60004,.71002Z" style="fill:#333;"/><path d="M28.5,33.22998h-.91998c-.03003,0-.06,.01001-.09003,.03003l-.67999,.45996c-.09998-.07996-.22998-.13-.37-.13s-.27002,.05005-.37,.13l-.67999-.45996c-.03003-.02002-.06-.03003-.09003-.03003h-.91998c-.12,0-.20001,.14001-.14001,.25,.57001,.98999,1.60004,.71002,1.60004,.71002,0,.32996,.26996,.59998,.59998,.59998s.59998-.27002,.59998-.59998c0,0,1.03003,.27997,1.60004-.71002,.06-.10999-.02002-.25-.14001-.25Z" style="fill:#fb0;"/></g></g><rect width="40" height="40" style="fill:none;"/></svg>