<svg id="Layer_1" data-name="Layer 1" xmlns="http://www.w3.org/2000/svg" viewBox="0 0 40 40"><defs><style>.cls-1{fill:#109494;stroke:#fb0;stroke-width:1.05px;}.cls-1,.cls-7,.cls-8{stroke-miterlimit:10;}.cls-2{fill:#ab866c;}.cls-3{fill:#fff;}.cls-4{fill:#c3846c;}.cls-5{fill:#523725;}.cls-6{fill:#5c2f17;}.cls-10,.cls-7,.cls-8{fill:none;}.cls-7,.cls-8{stroke:#363636;}.cls-7{stroke-width:0.525px;}.cls-8{stroke-width:0.42px;}.cls-9{fill:#ff2a00;}</style></defs><rect class="cls-1" x="3.097" y="8.643" width="33.806" height="18.977" rx="0.529"/><path class="cls-2" d="M28.216,28.136,24,26.535a10.75,10.75,0,0,0-7.638,0l-4.214,1.6a9.308,9.308,0,0,0-4.771,4.071,9.411,9.411,0,0,0-.923,2.453l-.539,2.189a.526.526,0,0,0,.51.651H33.938a.525.525,0,0,0,.51-.651L33.91,34.66a9.411,9.411,0,0,0-.923-2.453A9.312,9.312,0,0,0,28.216,28.136Z"/><rect class="cls-3" x="17.998" y="26.629" width="4.393" height="10.871"/><circle class="cls-4" cx="20.183" cy="15.924" r="9.16"/><ellipse class="cls-4" cx="11.823" cy="16.181" rx="3.667" ry="3.439"/><ellipse class="cls-4" cx="28.542" cy="16.181" rx="3.667" ry="3.439"/><path class="cls-5" d="M30.541,13.3A10.558,10.558,0,0,0,9.477,12.031a10.738,10.738,0,0,0-.039,1.485s.9-.213,1.692,1.516l6.042-6.761s7.335,5.891,12.176,5.569a1.128,1.128,0,0,0,.352-.1C30.022,13.562,30.293,13.225,30.541,13.3Z"/><ellipse cx="17.461" cy="15.481" rx="0.975" ry="1.17"/><ellipse cx="22.905" cy="15.481" rx="0.975" ry="1.17"/><path class="cls-6" d="M21.4,20.093a.332.332,0,0,1,.317.422,1.586,1.586,0,0,1-3.058,0,.331.331,0,0,1,.316-.422Z"/><path class="cls-4" d="M18,22.786h4.393a0,0,0,0,1,0,0v4.169a2.2,2.2,0,0,1-2.2,2.2h0a2.2,2.2,0,0,1-2.2-2.2V22.786A0,0,0,0,1,18,22.786Z"/><circle class="cls-7" cx="17.021" cy="15.483" r="2.417"/><circle class="cls-7" cx="23.459" cy="15.483" r="2.417"/><path class="cls-8" d="M19.422,15.61a.811.811,0,0,1,1.621,0"/><rect class="cls-9" x="11.429" y="32.512" width="17.174" height="4.988"/><path class="cls-3" d="M28.6,33.514H12.831a1.023,1.023,0,0,1-1.024-1.023h0a1.023,1.023,0,0,1,1.024-1.024l15.772.377"/><path class="cls-9" d="M28.6,31.844H12.831a.647.647,0,1,0,0,1.293H28.6v.755H12.831a1.4,1.4,0,0,1,0-2.8h15.15A.739.739,0,0,1,28.6,31.844Z"/><rect class="cls-10" width="40" height="40"/></svg>