<?xml version="1.0" encoding="UTF-8"?><svg id="Layer_1" xmlns="http://www.w3.org/2000/svg" viewBox="0 0 40 40"><g><path d="m3.889,32.785S1.959,11.577,12.216,7.082c0,0,2.82-4.086,9.113-3.433s11.099,5.501,12.709,9.889c1.199,3.269,2.385,10.189,2.198,18.208-.022.931-.522,1.784-1.318,2.268-1.736,1.055-5.759,2.407-14.978,2.407-15.12,0-16.051-3.637-16.051-3.637Z" fill="#e86c00"/><path d="m24.707,17.416c-5.552-.825-9.163-4.502-10.319-5.848-.157-.183-.454-.103-.497.134-.269,1.471-1.226,5.215-4.27,7.928,0,0-.511.39-1.083,1.158-.84,1.128-1.171,2.564-.933,3.95,1.04,6.058,6.103,10.655,12.196,10.655,5.727,0,10.545-4.062,11.967-9.58.707-4.099-1.775-7.612-7.062-8.398Z" fill="#956759"/><ellipse cx="16.067" cy="21.977" rx="1.379" ry="1.655"/><ellipse cx="23.349" cy="21.977" rx="1.379" ry="1.655"/><path d="m21.425,29.248c.309,0,.529.297.447.595-.261.95-1.131,1.649-2.164,1.649s-1.903-.698-2.164-1.649c-.082-.298.138-.595.447-.595h3.434Z" fill="#5c2f17"/></g><rect width="40" height="40" fill="none"/></svg>