<?xml version="1.0" encoding="UTF-8"?><svg id="Layer_1" xmlns="http://www.w3.org/2000/svg" viewBox="0 0 40 40"><g><path d="M29.39974,32.52301l-4.93099-1.87353c-2.87879-1.09363-6.05872-1.09363-8.93751,0l-4.93099,1.87353c-2.07808,.78962-3.84293,2.18583-5.08564,3.97699h28.97076c-1.24263-1.79116-3.00748-3.18737-5.08564-3.97699Z" style="fill:#482ec5;"/><path d="M6.74169,27.85819S5.15379,10.40504,13.59452,6.70591c0,0,2.32036-3.36284,7.49914-2.82479,5.17878,.53805,9.13371,4.52692,10.45844,8.13808,.98685,2.69012,1.96294,8.38518,1.80879,14.98438-.01789,.76607-.42962,1.46835-1.08442,1.86638-1.42876,.86849-4.73964,1.98117-12.32618,1.98117-12.44252,0-13.20861-2.99293-13.20861-2.99293Z" style="fill:#333;"/><path d="M23.87352,15.21027c-4.56861-.67913-7.54035-3.70518-8.49166-4.81268-.12937-.15061-.37343-.08467-.40919,.11063-.22171,1.21088-1.00894,4.29144-3.51381,6.52439,0,0-.42014,.32117-.89087,.95296-.69149,.92807-.96363,2.11005-.76786,3.25072,.85557,4.98518,5.02259,8.7686,10.03691,8.7686,4.71307,0,8.67759-3.34283,9.84797-7.88389,.5822-3.37299-1.46051-6.26398-5.81149-6.91074Z" style="fill:#ffcca8;"/><path d="M19.86179,25.01486c-.88604,0-1.57748-.15315-2.04937-.3075-.24477-.08007-.44501,.21085-.28553,.41306,.426,.54016,1.17649,1.18336,2.3349,1.18336s1.9089-.64321,2.3349-1.18336c.15948-.20221-.04076-.49312-.28553-.41306-.47189,.15436-1.16333,.3075-2.04937,.3075Z" style="fill:#5c2f17;"/><path d="M17.28044,28.31805h5.32251v2.66126c0,1.46878-1.19247,2.66125-2.66125,2.66125h0c-1.46878,0-2.66125-1.19247-2.66125-2.66125v-2.66126h0Z" style="fill:#ffcca8;"/><g><path d="M16.10975,19.51213c-.79598,0-1.25567-.18271-1.64685-.35449-.22558-.09906-.39867,.07574-.28562,.31354,.2442,.51368,.88949,1.06584,1.93247,1.06584,1.04297,0,1.68827-.55216,1.93247-1.06583,.11305-.2378-.06004-.4126-.28562-.31354-.39117,.17178-.85086,.35449-1.64685,.35448Z"/><path d="M23.6565,19.51213c-.79598,0-1.25567-.18271-1.64685-.35449-.22558-.09906-.39867,.07574-.28562,.31354,.2442,.51368,.88949,1.06584,1.93247,1.06584,1.04297,0,1.68827-.55216,1.93247-1.06583,.11305-.2378-.06004-.4126-.28562-.31354-.39117,.17178-.85086,.35449-1.64685,.35448Z"/></g><g><path d="M10.61102,12.4834l-.58105,3.92188c-.01611,.10889-.05676,.2085-.10748,.30225l.00104,.00684,1.18018-3.00732c.60486-1.54126,1.87939-2.72266,3.4621-3.20923l1.64313-.50513-2.59326,.01099c-1.53516,.00635-2.8241,1.07007-3.00464,2.47974Z" style="fill:#242424;"/><path d="M16.42877,7.677l-1.12817-.18945c-1.75421-.29443-3.14923-1.52808-3.54541-3.1355l-.21008-.85205h-3.40674l-.85907,5.45068,.6507,7.40137c.04462,.50708,.50281,.89771,1.05316,.89771,.40942,0,.76453-.21948,.93933-.54224,.05072-.09375,.09137-.19336,.10748-.30225l.58105-3.92188c.18054-1.40967,1.46948-2.47339,3.00464-2.47974l2.59326-.01099c.69501-.00293,1.25677-.52441,1.25677-1.16724,0-.56421-.43652-1.04761-1.03693-1.14844Z" style="fill:#ffcca8;"/><path d="M28.90955,12.4834c-.18054-1.40967-1.46954-2.47339-3.00464-2.47974l-2.59326-.01099,1.64307,.50513c1.5827,.48657,2.8573,1.66797,3.46216,3.20923l1.18011,3.00732,.00104-.00708c-.05066-.09351-.09131-.19312-.10742-.302l-.58105-3.92188Z" style="fill:#242424;"/><path d="M31.38214,3.5h-3.40668l-.21008,.85205c-.39618,1.60742-1.7912,2.84106-3.54541,3.1355l-1.12817,.18945c-.60046,.10083-1.03693,.58423-1.03693,1.14844,0,.64282,.56177,1.16431,1.25677,1.16724l2.59326,.01099c1.5351,.00635,2.8241,1.07007,3.00464,2.47974l.58105,3.92188c.01611,.10889,.05676,.2085,.10742,.302,.17487,.323,.52991,.54248,.93939,.54248,.55035,0,1.00854-.39062,1.0531-.89771l.65076-7.40137-.85913-5.45068Z" style="fill:#ffcca8;"/></g></g><rect width="40" height="40" style="fill:none;"/></svg>