<?xml version="1.0" encoding="UTF-8"?><svg id="Layer_1" xmlns="http://www.w3.org/2000/svg" viewBox="0 0 40 40"><g><path d="m34.548,17.766c0-8.035-6.513-14.548-14.548-14.548s-14.548,6.513-14.548,14.548c0,1.127.14,2.219.383,3.272.265,8.744,6.497,15.745,14.165,15.745s13.9-7,14.165-15.745c.242-1.053.383-2.145.383-3.271Z" fill="#ffc84d"/><g><ellipse cx="8.181" cy="21.234" rx="5.681" ry="5.328" fill="#ffc84d"/><ellipse cx="31.819" cy="21.234" rx="5.681" ry="5.328" fill="#ffc84d"/></g><ellipse cx="16.013" cy="20.149" rx="1.51" ry="1.812"/><ellipse cx="23.987" cy="20.149" rx="1.51" ry="1.812"/><path d="m16.392,29.204l2.092-1.146c.184-.112.417-.106.594.017l.687.624c.179.124.414.129.598.015l.831-.651c.184-.115.419-.109.598.014l1.842,1.126c.344.238.303.76-.075.94l-2.742,1.308c-.48.229-1.038.234-1.522.013l-2.845-1.299c-.397-.181-.43-.733-.058-.961Z" fill="#f77f00"/></g><rect width="40" height="40" fill="none"/></svg>