<?xml version="1.0" encoding="UTF-8"?><svg id="Layer_1" xmlns="http://www.w3.org/2000/svg" viewBox="0 0 40 40"><g><path d="m26.25,28.136l-4.214-1.601c-2.46-.935-5.178-.935-7.638,0l-4.214,1.601c-2.028.771-3.708,2.218-4.771,4.071-.437.76-.713,1.602-.922,2.454l-.539,2.189c-.081.331.169.651.51.651h27.511c.341,0,.591-.32.51-.651l-.539-2.189c-.21-.851-.486-1.693-.922-2.454-1.064-1.853-2.743-3.301-4.771-4.071Z" fill="#d1d1d1"/><polygon points="15.643 27.036 21.102 27.036 18.217 37.5 15.643 27.036" fill="#5a81ff"/><circle cx="18.217" cy="15.924" r="9.16" fill="#ffb582"/><g><ellipse cx="9.857" cy="16.181" rx="3.667" ry="3.439" fill="#ffb582"/><ellipse cx="26.576" cy="16.181" rx="3.667" ry="3.439" fill="#ffb582"/></g><path d="m28.575,13.298c.097-6.568-5.809-11.878-12.585-10.609-4.231.792-7.618,4.217-8.36,8.457-.134.764-.185,1.517-.162,2.251.002.059.048.11.107.11.234.002.833.122,1.417,1.183.088.159.302.195.424.06l5.79-6.479s7.335,5.891,12.176,5.569c.107-.007.23-.044.351-.096.323-.182.594-.519.842-.447Z" fill="#ffdb87"/><path d="m19.429,20.093c.219,0,.375.21.317.422-.185.671-.799,1.164-1.529,1.164s-1.344-.493-1.529-1.164c-.058-.211.098-.422.317-.422h2.425Z" fill="#5c2f17"/><path d="m16.02,22.251h4.393v4.169c0,1.212-.984,2.196-2.196,2.196h0c-1.212,0-2.196-.984-2.196-2.196v-4.169h0Z" fill="#ffb582"/><path d="m16.02,26.061l2.196,11.439-4.682-4.913c-.138-.145-.147-.369-.022-.525l1.155-1.431c.098-.122.081-.3-.039-.401l-2.921-2.458c-.113-.095-.086-.276.052-.33.858-.334,3.495-1.267,4.26-1.381Z" fill="#f5f5f5"/><path d="m20.417,26.061l-2.2,11.439,4.682-4.913c.138-.145.147-.369.022-.525l-1.155-1.431c-.098-.122-.081-.3.039-.401l2.921-2.458c.113-.095.086-.276-.052-.33-.858-.334-3.491-1.267-4.256-1.381Z" fill="#f5f5f5"/><path d="m35.854,35.233l-3.495-5.927c-.214-.364-.328-.778-.328-1.2v-3.473c0-.258-.209-.467-.467-.467h-2.642c-.258,0-.467.209-.467.467v3.473c0,.422-.113.837-.328,1.2l-3.495,5.927c-.591,1.002.131,2.267,1.295,2.267h8.632c1.163,0,1.886-1.265,1.295-2.267Z" fill="#b4d1fa"/><path d="m32.03,30.677l2.719,4.611c.326.552-.072,1.25-.714,1.25h-7.583c-.641,0-1.04-.697-.714-1.25l2.719-4.611c.118-.2.333-.323.565-.323h2.443c.232,0,.447.123.565.323Z" fill="#62b3c9"/></g><g><path d="m23.737,13.203c.75.261,1.492.453,2.208.555l-.103-.555h-2.105Z" fill="#fcf3d8"/><g><path d="m10.796,13.203l-.259.29-.403,2.179c-.06.326.116.65.415.76l5.331,1.963c.181.067.39-.017.462-.205.299-.781,1.025-1.333,1.875-1.333s1.577.552,1.875,1.333c.072.187.281.271.462.205l5.331-1.963c.299-.11.475-.433.415-.76l-.354-1.914c-.716-.102-1.458-.293-2.208-.555h-12.941Zm4.847,3.445c-.538,0-.975-.524-.975-1.17s.436-1.17.975-1.17.975.524.975,1.17-.436,1.17-.975,1.17Zm5.147,0c-.538,0-.975-.524-.975-1.17s.436-1.17.975-1.17.975.524.975,1.17-.436,1.17-.975,1.17Z" fill="#f9e6d5"/><polygon points="10.591 13.203 10.537 13.493 10.796 13.203 10.591 13.203" fill="#fcf3d8"/><path d="m15.643,14.309c-.538,0-.975.524-.975,1.17s.436,1.17.975,1.17.975-.524.975-1.17-.436-1.17-.975-1.17Z" fill="#999a9a"/><ellipse cx="20.79" cy="15.479" rx=".975" ry="1.17" fill="#999a9a"/><polygon points="25.838 13.205 10.588 13.205 10.708 12.545 25.718 12.545 25.838 13.205" fill="#333"/></g></g><rect width="40" height="40" fill="none"/></svg>