<?xml version="1.0" encoding="UTF-8"?><svg id="Layer_1" xmlns="http://www.w3.org/2000/svg" viewBox="0 0 40 40"><g><polygon points="26.925 22.751 23.322 22.751 23.506 33.839 23.87 33.839 26.17 33.839 26.452 33.839 26.94 25.699 26.914 25.275 26.925 22.751" fill="#6b7683"/><polygon points="26.925 22.751 26.914 25.275 26.94 25.699 27.427 33.839 27.813 33.839 30.113 33.839 30.374 33.839 30.557 22.751 26.925 22.751" fill="#6b7683"/></g><path d="m32.903,17.736l-.741-2.954c-.149-1.2-.974-2.208-2.122-2.591l-2.379-.795v.245c0,.436-.354.79-.79.79s-.79-.354-.79-.79v-.233l-2.505.848c-1.031.349-1.808,1.207-2.053,2.268l-1.175,3.408.445.121,2.011.548.573.156-.293,3.993h7.726l-.362-4.024.304-.123,1.954-.788.199-.08Z" fill="#d0d5da"/><g><path d="m20.002,21.389l.981,4.137c.009.039,0,.077.004.116.003.016.013.03.014.047.003.034-.01.064-.01.097-.003.039-.003.077-.011.114-.045.547-.448,1.004-1.008,1.076.031.006.056.022.088.026.651.065,1.232-.41,1.297-1.061.039-.393-.132-.744-.406-.988l1.851-6.351-2.011-.548-.791,3.335Z" fill="#ffcca8"/><path d="m34.54,25.657c-.004-.039.005-.076-.004-.115l-1.832-7.726-1.954.788,1.851,6.349c-.274.244-.445.595-.406.988.065.651.646,1.126,1.297,1.061.578-.058.994-.527,1.04-1.086.008-.037.009-.075.011-.114,0-.033.013-.063.01-.097-.002-.017-.012-.03-.014-.047Z" fill="#ffcca8"/><path d="m30.74,6.95c-.08,0-.17.09-.28.15-.04.02-.09.03-.13.04-.4.04-.76-.01-1.09-.13-1.51-.53-2.25-2.38-2.25-2.38-.39.8-1.54,1.72-2.37,2.31-.54.38-.95.63-.95.63-.21-.46-.44-.54-.55-.55-.32.23-.53.57-.53.97,0,.7.59,1.26,1.33,1.26.03.06.07.12.1.18.17.32.38.62.64.87.39.38.88.66,1.42.81v.53c0,.44.36.79.79.79.44,0,.79-.35.79-.79v-.46c.66-.14,1.24-.46,1.7-.92.24-.25.44-.55.6-.86.03-.05.06-.1.08-.15.74,0,1.34-.56,1.34-1.26,0-.45-.27-.82-.64-1.04Zm-4.7,1.21c-.2,0-.35-.19-.35-.42,0-.24.15-.43.35-.43s.36.19.36.43c0,.23-.16.42-.36.42Zm.94,1.84c-.26,0-.49-.18-.56-.42-.02-.08.04-.16.12-.16h.89c.08,0,.13.08.11.16-.07.24-.29.42-.56.42Zm.94-1.84c-.19,0-.35-.19-.35-.42,0-.24.16-.43.35-.43.2,0,.36.19.36.43,0,.23-.16.42-.36.42Z" fill="#ffcca8"/></g><g><path d="m24.021,9.429l-.757.568c-.196.147-.187.443.017.578l.673.445c.195.129.459.036.531-.186l.172-.532c-.259-.251-.469-.548-.636-.872Z" fill="#333"/><path d="m29.543,10.833c.072.222.336.315.531.186l.673-.445c.204-.135.213-.431.017-.578l-.802-.601c-.16.318-.358.613-.606.862l.186.575Z" fill="#333"/><path d="m23.673,7.571s.409-.25.945-.63c.835-.593,1.98-1.507,2.377-2.307,0,0,.737,1.85,2.242,2.376.329.115.693.17,1.096.125.039-.004.084-.016.128-.035.105-.059.195-.151.277-.153.01,0,.021-.013.03-.01.027-1.803-1.185-3.347-2.839-3.807-.202-.056-.415-.063-.622-.029l-.338.056c-.067.011-.135.012-.202.003l-.173-.023c-.382-.052-.774-.012-1.132.133-1.302.529-2.257,1.757-2.393,3.204-.017.184-.022.365-.014.543,0,0,.024-.005.063-.001.108.01.341.09.556.555Z" fill="#333"/></g><g><g><path d="m22.461,35.205c-.254.246-.389.536-.389.834v.255c0,.346.424.626.948.626h1.012c.748,0,1.431-.28,1.763-.723l.27-.36c.069-.092.105-.194.105-.297v-1.701h-2.3l-1.409,1.365Z" fill="#2e3d51"/><path d="m27.813,35.54c0,.103.036.205.105.297l.27.36c.332.443,1.016.723,1.763.723h1.012c.523,0,.948-.28.948-.626v-.255c0-.297-.136-.588-.389-.834l-1.409-1.365h-2.3v1.701Z" fill="#2e3d51"/></g><g><path d="m10.293,33.823l-1.409,1.365c-.254.246-.389.536-.389.834v.255c0,.346.424.626.948.626h1.012c.748,0,1.431-.28,1.763-.723l.27-.36c.069-.092.105-.194.105-.297v-1.704l-2.3.003h0Z" fill="#2e3d51"/><path d="m14.236,35.524c0,.103.036.205.105.297l.27.36c.332.443,1.016.723,1.763.723h1.012c.523,0,.948-.28.948-.626v-.255c0-.297-.136-.588-.389-.834l-1.409-1.366-2.3-.003v1.704Z" fill="#2e3d51"/></g></g><path d="m9.658,22.139l.048,4.657c.004.142.12.255.262.255h6.871c.144,0,.261-.116.262-.259l-.031-4.652h-7.412Z" fill="#ec3f00"/><path d="m19.35,17.72l-.741-2.954c-.149-1.2-.974-2.208-2.122-2.591l-2.402-.802v.253c0,.436-.354.79-.79.79s-.79-.354-.79-.79v-.225l-2.482.84c-1.031.349-1.808,1.207-2.053,2.268l-1.175,3.408.445.121,2.011.548.573.156-.293,3.397h7.726l-.362-3.429.304-.123,1.954-.788.199-.08Z" fill="#fa878f"/><path d="m10.267,8.266c-.058-.339.023-.69.228-.965.14-.188.265-.283.265-.283.744-.663.977-1.577,1.043-1.937.011-.058.083-.078.121-.033.282.329,1.165,1.227,2.521,1.429,1.292.192,1.898,1.05,1.725,2.052-.275,1.067-1.073,1.901-2.085,2.207v.369c1.696-.068,2.491-.35,2.859-.575.194-.119.312-.328.318-.555.045-1.957-.244-3.646-.537-4.445-.393-1.072-1.567-2.256-3.105-2.416s-2.226.839-2.226.839c-2.219.973-2.103,5.148-2.048,6.09.01.17.084.325.22.428.309.233,1.078.561,2.939.634v-.343c-1.141-.302-2.028-1.271-2.238-2.495Z" fill="#333"/><g><polygon points="10.293 33.823 10.293 33.823 12.593 33.82 13.133 27.051 10.289 27.051 10.293 33.823" fill="#956759"/><polygon points="14.236 33.82 16.536 33.823 16.536 33.823 16.484 27.051 13.615 27.051 14.236 33.82" fill="#956759"/><path d="m5.464,25.526c-.009.039,0,.077-.004.116-.003.016-.013.03-.014.047-.003.034.01.064.01.097.003.039.003.077.011.114.046.559.462,1.028,1.04,1.086.651.065,1.232-.41,1.297-1.061.039-.393-.132-.744-.406-.988l1.851-6.351-2.011-.548-1.775,7.488Z" fill="#956759"/><path d="m20.98,25.9c.008-.037.009-.075.011-.114,0-.033.013-.063.01-.097-.002-.017-.012-.03-.014-.047-.004-.039.005-.076-.004-.116l-.981-4.137-.851-3.589-1.954.788,1.851,6.349c-.274.244-.445.595-.406.988.065.651.646,1.126,1.297,1.061.012-.001.021-.008.032-.009.56-.073.963-.529,1.008-1.076Z" fill="#956759"/><path d="m14.44,6.48c-1.35-.2-2.23-1.1-2.52-1.43-.03-.05-.11-.03-.12.03-.06.36-.3,1.28-1.04,1.94,0,0-.13.09-.27.28-.2.28-.28.63-.22.97.21,1.22,1.09,2.19,2.23,2.49v.87c0,.43.36.79.79.79.44,0,.79-.36.79-.79v-.89c1.02-.31,1.82-1.14,2.09-2.21.17-1-.43-1.86-1.73-2.05Zm-1.64,2.89h.84c.08,0,.13.07.11.14-.06.24-.27.41-.53.41-.25,0-.46-.17-.53-.41-.02-.07.04-.14.11-.14Zm-.47-1.37c-.18,0-.33-.19-.33-.41s.15-.4.33-.4c.19,0,.34.18.34.4s-.15.41-.34.41Zm1.78,0c-.18,0-.33-.19-.33-.41s.15-.4.33-.4c.19,0,.34.18.34.4s-.15.41-.34.41Z" fill="#956759"/></g><g><g><path d="m26.398,7.737c0-.236-.16-.428-.356-.428s-.356.191-.356.428.16.428.356.428.356-.191.356-.428Z"/><path d="m27.923,8.164c.197,0,.356-.191.356-.428s-.16-.428-.356-.428-.356.191-.356.428.159.428.356.428Z"/></g><g><path d="m12.334,7.187c-.186,0-.337.181-.337.404s.151.404.337.404.337-.181.337-.404-.151-.404-.337-.404Z"/><path d="m14.113,7.187c-.186,0-.337.181-.337.404s.151.404.337.404.337-.181.337-.404-.151-.404-.337-.404Z"/></g></g><g><path d="m26.982,10.002c.267,0,.491-.18.559-.426.021-.077-.036-.154-.116-.154h-.886c-.08,0-.137.077-.116.154.068.245.292.426.559.426Z" fill="#5c2f17"/><path d="m13.643,9.368h-.839c-.076,0-.129.073-.109.145.064.232.276.403.529.403s.465-.171.529-.403c.02-.073-.034-.145-.109-.145Z" fill="#5c2f17"/></g></svg>