<svg id="Layer_1" data-name="Layer 1" xmlns="http://www.w3.org/2000/svg" viewBox="0 0 40 40"><defs><style>.cls-1{fill:#ff9000;}.cls-2{fill:#ff9138;}.cls-3{fill:#ec6700;}.cls-4{fill:none;}</style></defs><path class="cls-1" d="M31.759,7.258l-2.117-.552s-.981,1.473,1.595,2.056Z"/><path class="cls-2" d="M6.478,12.348s-4,3.141-4.978,10.76A33.831,33.831,0,0,0,6.478,12.348Z"/><path class="cls-3" d="M11.333,18.258,9.777,27.2l2.445,6.624a1.319,1.319,0,0,1,1.188,1.449H11.1a.632.632,0,0,1-.588-.4l-1.97-4.993a14.064,14.064,0,0,1-.968-4.5L7.3,19.7Z"/><path class="cls-3" d="M20.174,23.6l-2.252,4.449a7.934,7.934,0,0,0-.856,3.586v3.1a.527.527,0,0,0,.527.527h1.45a.4.4,0,0,0,.384-.541,4.085,4.085,0,0,0-.808-1.448.782.782,0,0,1-.268-.747c.28-1.164,1.073-3.939,2.477-5.051Z"/><path class="cls-1" d="M4.61,23.023a20.162,20.162,0,0,0,.235-4.381c-.231-4.066,1.039-5.938,1.939-6.585a13.6,13.6,0,0,0,5.149-4.783c1.87-2.824,3-2.518,3.9-2.541s1.893.138,4.248,2.749a31.16,31.16,0,0,0,6.323,4.656,3,3,0,0,0,4.54-2.333,5.786,5.786,0,0,0,.011-.728,2.464,2.464,0,0,1,.854-2.242A2.2,2.2,0,0,1,34.572,7l2.471-.354a.627.627,0,0,1,.553.2l.69.749a.636.636,0,0,1,.058.893l-.276.317a1.947,1.947,0,0,1-1.457.667l-1.275.006a.378.378,0,0,0-.358.239A57.379,57.379,0,0,1,31.732,16.8c-1.346,2.146-2.733,2.1-4.625,2.062s-2.818.757-4.289,3.535-.3,11.194-.3,11.194C23.785,33.67,24,35.269,24,35.269H21.787a.616.616,0,0,1-.608-.518l-1.561-9.824a5.7,5.7,0,0,0-5.253-4.795l-.087-.006a7.882,7.882,0,0,0-4.97,1.327,7.613,7.613,0,0,0-1.561,1.386,4.384,4.384,0,0,0-.889,3.453L7.9,33.364c1.287.18,1.528,1.905,1.528,1.905H6.208C5.568,32.405,4.232,24.538,4.61,23.023Z"/><circle cx="33.3" cy="7.916" r="0.62"/><rect class="cls-4" width="40" height="40"/></svg>