<?xml version="1.0" encoding="UTF-8"?><svg id="Layer_1" xmlns="http://www.w3.org/2000/svg" viewBox="0 0 40 40"><g><g><path d="M21.66884,3.09934l-4.83871,4.56423,6.83687,3.91512s.58785-5.13904-.86206-8.27625c-.20219-.43749-.7855-.5338-1.13609-.2031Z" style="fill:#8595aa;"/><path d="M36.40696,17.28093l-9.80997-2.89155s-.49552-3.96417-5.20304-5.81923c-1.13593-.44763-2.14641-1.16585-3.01518-2.02373l-3.93283-3.88351c-.4218-.47682-1.19331-.36921-1.46854,.20483l-3.22543,6.72737c-.20045,.41809-.54206,.76464-.97787,.92289-1.65519,.60103-5.46089,3.59566-6.1713,8.50859-.07357,.5088,.26647,1.00369,.7715,1.09982l3.44108,.65496c.62514,.25303,.94647,.9466,.72488,1.58356-.81755,2.35007-1.9629,8.03133,3.57207,12.93386,.10883,.09639,.2744,.08752,.36522-.026,.53463-.66821,2.26527-2.83149,3.30012-4.12505,.31921-.399,.93839-.27691,1.10533,.20603,.59269,1.71456,2.29696,4.807,7.06299,6.27402,.14687,.04521,.30124-.07539,.28088-.22771-.18072-1.35177-.46706-6.49725,5.38396-7.72904,6.33097-1.33284,5.25857-3.25762,8.6484-10.34511,.3814-.79745-.01729-1.75486-.85228-2.045Z" style="fill:#abb7c7;"/><path d="M37.25925,19.32593l-1.257,2.83864s-4.77432-1.91709-3.71004-6.09649l4.07693,1.1997c.84521,.29369,1.28864,1.25702,.8901,2.05815Z" style="fill:#495b73;"/></g><circle cx="21.15851" cy="15.08712" r="2.15552"/></g><rect width="40" height="40" style="fill:none;"/></svg>