<svg id="Layer_1" data-name="Layer 1" xmlns="http://www.w3.org/2000/svg" viewBox="0 0 40 40"><defs><style>.cls-1{fill:#ef4452;}.cls-2{fill:#a41926;}.cls-3{fill:none;}</style></defs><path class="cls-1" d="M22.152,8.961l-.884.926a1.621,1.621,0,0,1-2.424-.012l-.875-.936A5.3,5.3,0,0,0,9.8,9.2L1.549,19.048a2.5,2.5,0,0,0,0,3.131L3.937,25.01c8.762,10.393,23.212,10.468,32.08.165l2.416-2.8a2.505,2.505,0,0,0,.034-3.132l-8.15-9.93A5.3,5.3,0,0,0,22.152,8.961Z"/><path class="cls-2" d="M26.609,19.571a.53.53,0,0,1-.005.955A13.686,13.686,0,0,1,19.991,22.4,13.687,13.687,0,0,1,13.4,20.458.53.53,0,0,1,13.4,19.5a13.682,13.682,0,0,1,6.613-1.877A13.691,13.691,0,0,1,26.609,19.571Z"/><rect class="cls-3" width="40" height="40"/></svg>