<?xml version="1.0" encoding="UTF-8"?><svg id="a" xmlns="http://www.w3.org/2000/svg" viewBox="0 0 40 40"><rect x="0" y="0" width="40" height="40" fill="none"/><g><rect x="12.937" y="3" width="20.105" height="23.081" rx="1.299" ry="1.299" fill="#e5e8eb"/><rect x="3.854" y="11.473" width="32.291" height="25.527" rx="4.152" ry="4.152" fill="#2e3d51"/><circle cx="17.345" cy="24.258" r="1.025" fill="#6b7683"/><circle cx="20.701" cy="24.258" r="1.025" fill="#6b7683"/><circle cx="24.058" cy="24.258" r="1.025" fill="#6b7683"/><circle cx="17.345" cy="27.86" r="1.025" fill="#6b7683"/><circle cx="20.701" cy="27.86" r="1.025" fill="#6b7683"/><circle cx="24.058" cy="27.86" r="1.025" fill="#6b7683"/><circle cx="17.345" cy="31.462" r="1.025" fill="#6b7683"/><circle cx="20.701" cy="31.462" r="1.025" fill="#6b7683"/><circle cx="24.058" cy="31.462" r="1.025" fill="#6b7683"/><rect x="14.264" y="14.397" width="17.203" height="3.966" rx=".51" ry=".51" fill="#7bd58f"/><rect x="26.414" y="23.387" width="3.126" height="1.743" rx=".871" ry=".871" fill="#6b7683"/><rect x="26.414" y="26.988" width="3.126" height="1.743" rx=".871" ry=".871" fill="#6b7683"/><rect x="26.414" y="30.59" width="3.126" height="1.743" rx=".871" ry=".871" fill="#ef4452"/><rect x="5.837" y="13.916" width="6.299" height="21.354" rx="3.149" ry="3.149" fill="#6b7683"/></g></svg>