<?xml version="1.0" encoding="UTF-8"?><svg id="Layer_1" xmlns="http://www.w3.org/2000/svg" viewBox="0 0 40 40"><g><g><path d="M14.22003,28.16675v-.90955c-.08325,.02917-.16827,.05103-.25092,.0824l-3.90454,1.4834c-1.87952,.71399-3.43542,2.05493-4.42126,3.77234-.40448,.70459-.66058,1.4845-.85468,2.27356l-.49915,2.02832c-.07544,.30664,.15668,.60278,.47247,.60278h12.03168v-6.1283c-1.47144-.32678-2.57361-1.63513-2.57361-3.20496Z" style="fill:#75663a;"/><path d="M30.72607,36.89722l-.49915-2.02844c-.19415-.78894-.45026-1.56885-.85474-2.27344-.98584-1.71741-2.54175-3.05823-4.4212-3.77234l-3.9046-1.4834c-.08264-.03137-.1676-.05322-.25085-.0824v.90955c0,1.56982-1.10217,2.87817-2.57361,3.20496v6.1283h12.03168c.3158,0,.54797-.29614,.47247-.60278Z" style="fill:#75663a;"/><path d="M16.79364,31.3717v-2.47253h1.42828v2.47253c1.47144-.32678,2.57361-1.63513,2.57361-3.20496v-3.99097h-6.5755v3.99097c0,1.56982,1.10217,2.87817,2.57361,3.20496Z" style="fill:#75663a;"/><polygon points="18.22192 28.89917 16.79364 28.89917 16.79364 31.3717 16.79364 37.5 17.50775 37.5 18.22192 37.5 18.22192 31.3717 18.22192 28.89917" style="fill:#948049;"/></g><ellipse cx="17.50779" cy="18.77706" rx="13.23263" ry="6.92341" style="fill:#b03b2f;"/><path d="M4.76198,37.5H30.25364c.31578,0,.54791-.29616,.47246-.60281l-.34835-1.41554H4.63781l-.34835,1.41554c-.07545,.30665,.15668,.60281,.47251,.60281Z" style="fill:#d6b049;"/><g><path d="M26.86908,11.95337c-1.05109-2.86511-4.18896-6.02991-8.29785-6.45679-4.10889-.427-5.94989,2.24121-5.94989,2.24121-6.69702,2.93481-5.43713,16.78247-5.43713,16.78247,0,0,.60785,2.37451,10.47986,2.37451,6.01923,0,8.64612-.88281,9.77972-1.57178,.51953-.31592,.84619-.87305,.86041-1.48083,.12231-5.23596-.65216-9.75439-1.43512-11.88879Zm-1.48138,7.9137c-.92859,3.56396-4.0741,6.18762-7.81348,6.18762-3.97845,0-7.28461-2.96948-7.96344-6.88196-.15527-.89526,.06061-1.82288,.60925-2.55139,.37347-.49585,.70685-.7478,.70685-.7478,1.98737-1.75256,2.612-4.17029,2.7879-5.12061,.02832-.15332,.22198-.20508,.32465-.08691,.75476,.86926,3.11255,3.24414,6.73737,3.77722,3.45209,.50769,5.07281,2.77649,4.6109,5.42383Z" style="fill:#ff9000;"/><path d="M20.77679,14.44324c-3.62482-.53308-5.9826-2.90796-6.73737-3.77722-.10266-.11816-.29633-.06641-.32465,.08691-.1759,.95032-.80054,3.36804-2.7879,5.12061,0,0-.33337,.25195-.70685,.7478-.54865,.72852-.76453,1.65613-.60925,2.55139,.67883,3.91248,3.98499,6.88196,7.96344,6.88196,3.73938,0,6.88489-2.62366,7.81348-6.18762,.46191-2.64734-1.15881-4.91614-4.6109-5.42383Z" style="fill:#ffc84d;"/><g><ellipse cx="15.13548" cy="17.46348" rx=".90048" ry="1.08057"/><ellipse cx="19.89" cy="17.46348" rx=".90048" ry="1.08057"/></g><path d="M18.63387,22.21082c.20189,0,.34515,.19391,.29173,.3886-.17027,.62047-.73832,1.07636-1.41286,1.07636s-1.24259-.45589-1.41286-1.07636c-.05343-.19469,.08984-.3886,.29173-.3886h2.24225Z" style="fill:#5c2f17;"/></g><path d="M28.25017,14.91497c-.03546-5.9043-4.82969-10.68057-10.74242-10.68057S6.80086,9.01073,6.7654,14.91497c2.40186-1.50124,6.31285-2.48244,10.74236-2.48244s8.34062,.98125,10.74242,2.48244Z" style="fill:#ed422f;"/><path d="M30.73999,18.78003c0,.20996-.02002,.41992-.06,.61987-.59998-3.52991-6.26001-6.29993-13.16998-6.29993s-12.58002,2.77002-13.17999,6.29993c-.03003-.19995-.04999-.40991-.04999-.61987,0-2.94006,3.50995-5.45007,8.45996-6.45007l-.53998-6.40002c-.09003-1.06995,.45001-2.06995,1.33002-2.5,1.22998-.59998,2.56995-.92993,3.97998-.92993,1.39996,0,2.73999,.32996,3.96997,.92993,.89001,.43005,1.42999,1.43005,1.34003,2.5l-.53998,6.40002c4.94995,1,8.45996,3.51001,8.45996,6.45007Z" style="fill:#ff5543;"/><g><path d="M19.22821,6.84253c.06274,.41846,.13562,.65796-.1637,.65796-.40723,0-.40747-.96375-1.09674-1.51282-.68188-.54321-1.19043-.41113-1.20123-.40833l-.00061,.00073c.56793,.47412,.25122,1.25342-.12061,1.46826-.35657,.20593-.76373-.05396-.55054-.66553-.46869,.64087-.87341,1.4176-.87341,2.19141,0,1.2627,1.02368,2.28638,2.28638,2.28638s2.28644-1.02368,2.28644-2.28638c0-.59668-.24103-1.19495-.56598-1.73169Zm-1.7204,3.73877c-.54907,0-.9942-.44507-.9942-.99414,0-.79993,.9942-1.37244,.9942-1.37244,0,0,.99414,.57251,.99414,1.37244,0,.54907-.44513,.99414-.99414,.99414Z" style="fill:#fb0;"/><path d="M17.50781,8.21472s-.9942,.57251-.9942,1.37244c0,.54907,.44513,.99414,.9942,.99414,.54901,0,.99414-.44507,.99414-.99414,0-.79993-.99414-1.37244-.99414-1.37244Z" style="fill:#ff5543;"/></g><g><polygon points="20.62067 37.5 23.12402 37.5 28.27173 30.11023 26.66553 28.82227 20.62067 37.5" style="fill:#593e2c;"/><path d="M30.23761,31.6864c.93274-.56213,1.77148-1.31189,2.4342-2.26331s1.0755-1.9978,1.27942-3.06763l-5.76935-3.46655c-.15393-.09253-.35321-.0498-.45581,.09741l-2.80615,4.02832c-.10266,.14746-.07361,.34912,.06653,.46143l1.67908,1.34619,1.6062,1.28796,3.5802,2.87048c.08618-.0498,.16681-.11023,.2514-.16333-.08453,.05298-.16516,.11353-.25134,.16333l-1.61438-1.29431Z" style="fill:#ed422f;"/><path d="M33.95123,26.35547h0c-.20392,1.06982-.6167,2.11621-1.27942,3.06763s-1.50146,1.70117-2.4342,2.26331l1.61438,1.29431c.08618-.0498,.16681-.11035,.25134-.16333,.39856-.25012,.78308-.52722,1.13812-.84961,.4303-.39087,.82422-.83472,1.17078-1.33228,.34662-.49756,.62659-1.02075,.84399-1.55981s.37231-1.09399,.46863-1.65454l-1.77362-1.06567Z" style="fill:#b7b7b7;"/></g><g><path d="M17.50778,25.91583c-1.79994,0-3.41074-.47446-4.51274-1.2224v4.03263c1.102,.74794,2.7128,1.2224,4.51274,1.2224s3.41074-.47446,4.51274-1.2224v-4.03263c-1.102,.74794-2.7128,1.2224-4.51274,1.2224Z" style="fill:#4d4326;"/><path d="M22.02053,28.72603v-4.03263c-1.102,.74794-2.7128,1.2224-4.51274,1.2224-.77739,0-1.50778-.1032-2.18887-.264-.21087,.59845-.3315,1.24425-.3315,1.92169,0,.75389,.14296,1.47197,.4013,2.12508,.66224,.15073,1.36765,.24986,2.11907,.24986,1.79994,0,3.41074-.47446,4.51274-1.2224Z" style="fill:#594e2c;"/></g></g><rect width="40" height="40" style="fill:none;"/></svg>