<svg id="Layer_1" data-name="Layer 1" xmlns="http://www.w3.org/2000/svg" viewBox="0 0 40 40"><defs><style>.cls-1{fill:#956759;}.cls-2{fill:#bdbdbd;}.cls-3{fill:#d9d9d9;}.cls-4{fill:#5c2f17;}.cls-5,.cls-6,.cls-7{fill:none;}.cls-5{stroke:#845b40;stroke-linecap:round;stroke-linejoin:round;stroke-width:0.609px;}.cls-6{stroke:#fff;stroke-miterlimit:10;stroke-width:0.715px;}</style></defs><path class="cls-1" d="M33.449,21.151C33.16,12.578,26.882,5.832,19.427,6.084S6.164,13.489,6.453,22.062c.214,6.346,3.712,11.309,8.537,13.358a2.26,2.26,0,0,1,.741.525,6.324,6.324,0,0,0,4.22,1.3,6.426,6.426,0,0,0,4.18-1.269,2.066,2.066,0,0,1,.692-.451C30.059,33.439,33.679,27.962,33.449,21.151Z"/><ellipse cx="15.402" cy="23.725" rx="1.437" ry="1.725"/><ellipse cx="24.501" cy="23.725" rx="1.437" ry="1.725"/><ellipse class="cls-2" cx="20.168" cy="6.476" rx="6.172" ry="3.726"/><path class="cls-3" d="M9.462,31.04S2.325,28.548,2.04,23.028A9.607,9.607,0,0,1,5.751,14.8s-.523-4,4.52-7.28a8.555,8.555,0,0,1,6.117-1.426,4.367,4.367,0,0,1,2.856,7.026,7.9,7.9,0,0,1-3.878,2.321C7.457,17.871,5.028,22.9,9.462,31.04Z"/><path class="cls-3" d="M30.728,30.808c-.142.074,6.89-2.263,7.227-7.809a9.482,9.482,0,0,0-3.711-8.232s.523-4-4.52-7.28a8.558,8.558,0,0,0-6.117-1.425,4.367,4.367,0,0,0-2.856,7.026,7.906,7.906,0,0,0,3.878,2.321C32.538,17.841,35.163,22.666,30.728,30.808Z"/><path class="cls-4" d="M21.078,32.448c.445,0,.79.226.68.459-.222.472-.815.807-1.807.807s-1.585-.335-1.806-.807c-.11-.233.235-.459.68-.459Z"/><path class="cls-5" d="M17.3,30.5s-1.6.292-2.159,2.827"/><circle class="cls-6" cx="14.614" cy="23.844" r="4.127"/><circle class="cls-6" cx="25.288" cy="23.844" r="4.127"/><path class="cls-6" d="M18.742,23.844a1.989,1.989,0,0,1,2.419,0"/><rect class="cls-7" width="40" height="40"/></svg>