<svg id="Layer_1" data-name="Layer 1" xmlns="http://www.w3.org/2000/svg" viewBox="0 0 40 40"><defs><style>.cls-1,.cls-3{fill:none;}.cls-1{opacity:0;}.cls-2{fill:#4e5968;}.cls-2,.cls-3{fill-rule:evenodd;}.cls-3{stroke:#333d4b;stroke-miterlimit:10;stroke-width:2.5px;}.cls-4{fill:#ffc84d;}</style></defs><rect class="cls-1" width="40" height="40"/><path class="cls-2" d="M32.59,9.656H28.006L26.278,6.292a3.258,3.258,0,0,0-2.9-1.77H16.532A3.258,3.258,0,0,0,13.6,6.354l-1.608,3.3H7.41a3.911,3.911,0,0,0-3.91,3.91v18a3.911,3.911,0,0,0,3.91,3.91H32.59a3.91,3.91,0,0,0,3.91-3.91v-18A3.91,3.91,0,0,0,32.59,9.656Z"/><path class="cls-3" d="M20,28.029A6.228,6.228,0,1,1,26.227,21.8,6.234,6.234,0,0,1,20,28.029Z"/><circle class="cls-4" cx="30.686" cy="16.335" r="1.97"/></svg>