<svg id="Layer_1" data-name="Layer 1" xmlns="http://www.w3.org/2000/svg" viewBox="0 0 40 40"><defs><style>.cls-1{fill:none;}.cls-2{fill:#ffa300;}.cls-2,.cls-3{fill-rule:evenodd;}.cls-3{fill:#ffc33a;}</style></defs><rect class="cls-1" width="40" height="40"/><path class="cls-2" d="M2.054,10.294V31.666a2.75,2.75,0,0,0,2.75,2.75H29.859a2.75,2.75,0,0,0,2.749-2.75V13.044a2.75,2.75,0,0,0-2.749-2.75Z"/><path class="cls-3" d="M7.642,17.4l-4.6,14.009a2.292,2.292,0,0,0,2.177,3.007H29.953a3.667,3.667,0,0,0,3.484-2.523l4.6-14.009a2.293,2.293,0,0,0-2.178-3.007H11.125A3.665,3.665,0,0,0,7.642,17.4Z"/><path class="cls-2" d="M2.054,10.294H18.135L14.367,6.526a3.216,3.216,0,0,0-2.274-.942H4.8a2.75,2.75,0,0,0-2.75,2.75Z"/></svg>