<?xml version="1.0" encoding="UTF-8"?><svg id="a" xmlns="http://www.w3.org/2000/svg" viewBox="0 0 40 40"><g opacity="0"><rect width="40" height="40" fill="none"/></g><g><path d="M33,9.699H7c-.241,0-.475,.03-.704,.071-1.872,.334-3.296,1.961-3.296,3.929v18.524c0,2.209,1.791,4,4,4h26c2.209,0,4-1.791,4-4V13.699c0-2.209-1.791-4-4-4ZM11.992,32.238c-2.929,0-5.304-2.375-5.304-5.304s2.375-5.304,5.304-5.304,5.304,2.375,5.304,5.304-2.375,5.304-5.304,5.304Zm20.754-.949c0,.216-.175,.391-.391,.391h-12.523c-.216,0-.391-.175-.391-.391h0c0-.216,.175-.391,.391-.391h12.523c.216,0,.391,.175,.391,.391h0Zm-.391-2.427h-12.523c-.216,0-.391-.175-.391-.391s.175-.391,.391-.391h12.523c.216,0,.391,.175,.391,.391s-.175,.391-.391,.391Zm0-2.818h-12.523c-.216,0-.391-.175-.391-.391s.175-.391,.391-.391h12.523c.216,0,.391,.175,.391,.391s-.175,.391-.391,.391Zm0-2.819h-12.523c-.216,0-.391-.175-.391-.391s.175-.391,.391-.391h12.523c.216,0,.391,.175,.391,.391s-.175,.391-.391,.391Zm1.853-5.744c0,1.012-.82,1.833-1.832,1.833H7.624c-1.012,0-1.832-.821-1.832-1.833v-2.632c0-1.012,.82-1.833,1.832-1.833h24.752c1.012,0,1.832,.82,1.832,1.833v2.632Z" fill="#4e5968"/><g><path d="M14.224,9.699l18.494-4.956c.534-.143,.85-.691,.707-1.225-.143-.534-.691-.853-1.225-.707L6.37,9.733c-.028,.007-.047,.027-.074,.036,.229-.041,.463-.071,.704-.071h7.224Z" fill="#2e3d51"/><path d="M32.376,13.015H7.624c-1.012,0-1.832,.82-1.832,1.833v2.632c0,1.012,.82,1.833,1.832,1.833h24.752c1.012,0,1.832-.821,1.832-1.833v-2.632c0-1.012-.82-1.833-1.832-1.833Zm-2.779,4.184c0,.298-.242,.54-.54,.54s-.54-.242-.54-.54v-2.127c0-.298,.242-.54,.54-.54s.54,.242,.54,.54v2.127Z" fill="#2e3d51"/><path d="M11.992,21.63c-2.929,0-5.304,2.375-5.304,5.304s2.375,5.304,5.304,5.304,5.304-2.375,5.304-5.304-2.375-5.304-5.304-5.304Z" fill="#2e3d51"/><path d="M32.355,22.441h-12.523c-.216,0-.391,.175-.391,.391s.175,.391,.391,.391h12.523c.216,0,.391-.175,.391-.391s-.175-.391-.391-.391Z" fill="#2e3d51"/><path d="M32.355,25.26h-12.523c-.216,0-.391,.175-.391,.391s.175,.391,.391,.391h12.523c.216,0,.391-.175,.391-.391s-.175-.391-.391-.391Z" fill="#2e3d51"/><path d="M32.355,28.079h-12.523c-.216,0-.391,.175-.391,.391s.175,.391,.391,.391h12.523c.216,0,.391-.175,.391-.391s-.175-.391-.391-.391Z" fill="#2e3d51"/><rect x="19.441" y="30.897" width="13.306" height=".783" rx=".391" ry=".391" fill="#2e3d51"/></g><path d="M29.057,14.532c-.298,0-.54,.242-.54,.54v2.127c0,.298,.242,.54,.54,.54s.54-.242,.54-.54v-2.127c0-.298-.242-.54-.54-.54Z" fill="#e4e7ea"/></g></svg>