<?xml version="1.0" encoding="UTF-8"?><svg id="Layer_1" xmlns="http://www.w3.org/2000/svg" viewBox="0 0 40 40"><g><g><path d="M22.01501,28.62018l.17664-2.55182c-1.43256-.29846-2.90851-.30225-4.34192-.00952l.21204,2.56134h3.95325Z" style="fill:#e6e6e6;"/><path d="M34.26544,36.84943l-.5387-2.18909c-.20953-.85144-.48596-1.69312-.92242-2.45355-1.06396-1.85352-2.7431-3.3006-4.77148-4.07117l-2.49628-.94836,1.91528,5.18866c.03046,.08252-.00732,.17456-.08698,.21185l-1.80231,.84381c-.11725,.05487-.1319,.21576-.02655,.29095l1.53418,1.09503c.05475,.03906,.08112,.10675,.06726,.17255l-.5285,2.50989h7.14661c.34082,0,.59131-.31964,.50989-.65057Z" style="fill:#e6e6e6;"/><path d="M12.97803,34.81757l1.53424-1.09503c.10535-.0752,.0907-.23608-.02655-.29095l-1.80292-.84412c-.07935-.03717-.11725-.12878-.08722-.21112l1.89337-5.19586,.12683-.05109-2.64868,1.00623c-2.02832,.77057-3.70752,2.21765-4.77142,4.07117-.43652,.76044-.71295,1.60217-.92242,2.45361l-.5387,2.18903c-.08142,.33093,.16907,.65057,.50989,.65057h7.19489l-.52856-2.50989c-.01385-.0658,.01257-.13348,.06726-.17255Z" style="fill:#e6e6e6;"/><polygon points="18.06177 28.62018 18.79669 37.5 20 37.5 21.40039 37.5 22.01501 28.62018 18.06177 28.62018" style="fill:#1a8ead;"/><path d="M27.07019,34.81757l-1.53418-1.09503c-.10535-.0752-.0907-.23608,.02655-.29095l1.80231-.84381c.07965-.03729,.11743-.12933,.08698-.21185l-1.91528-5.18866-.0025-.00677-3.32617-1.34674-.01624,.23462-.17664,2.55182-.61462,8.87982h5.20856l.5285-2.50989c.01385-.0658-.01251-.13348-.06726-.17255Z" style="fill:#d4d4d4;"/><path d="M18.06177,28.62018l-.21204-2.56134-.01862-.2251-3.21533,1.29565-.12683,.05109-1.64935,4.52631c1.33502,.05139,2.40369,1.14203,2.40369,2.48962,0,1.2038-.85144,2.2077-1.98474,2.44513l.18079,.85846h5.35736l-.73492-8.87982Z" style="fill:#d4d4d4;"/></g><g><path d="M30.3313,13.2995c-.24072-.04224-.50336,.26929-.81458,.44464-.12146,.05194-.24457,.08899-.35114,.09607-4.84106,.32141-12.17621-5.56952-12.17621-5.56952l-6.04211,6.76099c-.64642-1.4032-1.34949-1.52496-1.59473-1.52185-.83746,.63019-1.38257,1.58783-1.38257,2.67017,0,1.89001,1.64001,3.42999,3.65002,3.44,1.12646,2.56195,3.40625,4.50635,6.17444,5.19214l.02557,.00787v3.02997c0,1.21002,.97998,2.19,2.19,2.19,1.20996,0,2.20001-.97998,2.20001-2.19v-3.03998l.00964-.00299c2.76544-.68225,5.03168-2.63007,6.16034-5.18701,2.01001-.01001,3.65002-1.54999,3.65002-3.44,0-1.21295-.68298-2.26855-1.69873-2.88049Z" style="fill:#c3846c;"/><path d="M10.94727,15.03168l6.04211-6.76099s7.33514,5.89093,12.17621,5.56952c.10657-.00708,.22968-.04413,.35114-.09607,.31122-.17535,.57385-.48688,.81458-.44464,.00885,.00153,.01831-.00452,.0271-.00195,.09253-6.28894-5.31793-11.42371-11.72546-10.7356-4.92798,.52924-8.87433,4.53448-9.33905,9.46899-.0473,.50208-.05939,.9978-.03845,1.48492,0,0,.04016-.00531,.09711-.00604,.24524-.00311,.9483,.11865,1.59473,1.52185Z" style="fill:#523725;"/><g><ellipse cx="17.42658" cy="15.48097" rx=".97477" ry="1.16973"/><ellipse cx="22.57339" cy="15.48097" rx=".97477" ry="1.16973"/></g><path d="M21.21256,20.09299c.21907,0,.37469,.21046,.31657,.42168-.18466,.67114-.79933,1.16414-1.52915,1.16414s-1.34449-.493-1.52915-1.16414c-.05812-.21122,.0975-.42168,.31657-.42168h2.42515Z" style="fill:#5c2f17;"/></g><g><path d="M17.79443,24.81213c-3.33215,.97168-5.77606,4.04834-5.77606,7.68988h1.05017c0-3.06586,1.99408-5.6701,4.75146-6.59747v-1.08453l-.02557-.00787Z" style="fill:#333;"/><path d="M24.82367,36.24805c.13019,.117,.29828,.19324,.48706,.19324,.40588,0,.73486-.32898,.73486-.73486s-.32898-.73486-.73486-.73486c-.20776,0-.39343,.08771-.5271,.22626-.12744,.1322-.20776,.31049-.20776,.50861,0,.2171,.09814,.4071,.2478,.54163Z" style="fill:#333;"/><path d="M28.74878,35.15674c-.12878-.11133-.29156-.18518-.47516-.18518-.40582,0-.73486,.32898-.73486,.73486s.32904,.73486,.73486,.73486c.20435,0,.38867-.0838,.52185-.21844,.13135-.13275,.21301-.31488,.21301-.51642,0-.22229-.10376-.41498-.2597-.54968Z" style="fill:#333;"/><path d="M29.39923,29.06097c-.63794-.72552-1.5199-1.21649-2.50922-1.31097-.14001-.01001-.28003-.02002-.42004-.02002-1.06995-1.42999-2.56995-2.44-4.25-2.91998h-.00995v1.08997c1.17816,.3894,2.24646,1.07825,3.06592,2.02594l.00409,.00409c-.24902,.07513-.48474,.18402-.71063,.31244-.01532,.00873-.03271,.01282-.04797,.02179-.23785,.13971-.46216,.30646-.67145,.49579-.1629,.14703-.30078,.3158-.43512,.48651-.54181,.6886-.85486,1.54205-.85486,2.42346h1.04999c0-.1593,.02411-.31555,.05042-.47101,.00702-.0415,.00464-.08472,.01349-.12579,.01135-.05273,.03546-.10144,.04968-.15338,.09973-.3634,.26508-.70496,.49579-1.00592,.10382-.13544,.21338-.26727,.34064-.38391,.25854-.23315,.5545-.40186,.86707-.52698,.42487-.17004,.88477-.24908,1.36292-.203,.56323,.05402,1.07635,.2865,1.49725,.63776,.26135,.21808,.48853,.48016,.66559,.77911,.27704,.46771,.43719,1.01855,.43719,1.60315h1.04999c0-1.05103-.39551-2.02509-1.04077-2.75903Z" style="fill:#333;"/></g><path d="M29.39923,29.06097c.64526,.73395,1.04077,1.70801,1.04077,2.75903h-1.0481l.00012,.00104v2.53064c0,.39478-.2771,.71204-.64325,.80505,.15594,.1347,.2597,.32739,.2597,.54968,0,.20154-.08167,.38367-.21301,.51642,.92688-.12366,1.64679-.91095,1.64679-1.87115v-2.53064c0-1.05225-.39636-2.02643-1.04303-2.76007Z" style="fill:#9e9794;"/><path d="M22.56049,31.66998l-.00049,.00439v2.67731c0,1.04565,.85071,1.89636,1.8963,1.89636h.36737c-.14966-.13452-.2478-.32452-.2478-.54163,0-.19812,.08032-.3764,.20776-.50861h-.32733c-.46661,0-.84607-.37946-.84607-.84613v-2.67731c0-.16089,.0238-.3186,.05017-.4754-.02631,.15546-.05042,.31171-.05042,.47101h-1.0495Z" style="fill:#9e9794;"/><path d="M12.8396,31.70679c-.03241-.00122-.06287-.00964-.09558-.00964-1.38031,0-2.49927,1.11896-2.49927,2.49927s1.11896,2.49927,2.49927,2.49927c.17651,0,.34833-.01935,.51453-.05414,1.1333-.23743,1.98474-1.24133,1.98474-2.44513,0-1.3476-1.06866-2.43823-2.40369-2.48962Zm-.09558,3.84796c-.75018,0-1.35834-.60815-1.35834-1.35834s.60815-1.35834,1.35834-1.35834,1.35834,.60815,1.35834,1.35834-.60815,1.35834-1.35834,1.35834Z" style="fill:#9e9794;"/><circle cx="12.74402" cy="34.19641" r="1.35834" style="fill:#d4d4d4;"/></g><rect width="40" height="40" style="fill:none;"/></svg>