<?xml version="1.0" encoding="UTF-8"?><svg id="Layer_1" xmlns="http://www.w3.org/2000/svg" viewBox="0 0 40 40"><path d="m36.563,16.06l-9.732-9.732c-2.366-2.366-5.634-3.829-9.244-3.829-7.22,0-13.072,5.853-13.072,13.072v7.147h.009v.002h0c0,1.67,1.321,3.025,2.95,3.025,1.521,0,2.758-1.185,2.918-2.701v1.202h0c0,1.67,1.321,3.025,2.95,3.025,1.521,0,2.758-1.185,2.918-2.701v.185h0c0,1.67,1.321,3.025,2.95,3.025,1.521,0,2.758-1.185,2.918-2.701v11.406h0c0,1.665,1.32,3.015,2.949,3.015s2.949-1.35,2.949-3.015c0-.001,0-.002,0-.003v-13.763h0v-5.122l4.09,2.91c1.228,1.228,3.219,1.228,4.448,0s1.228-3.219,0-4.448Z" fill="#ffcca8"/><rect width="40" height="40" transform="translate(40 40) rotate(-180)" fill="none"/></svg>