<svg id="Layer_1" data-name="Layer 1" xmlns="http://www.w3.org/2000/svg" viewBox="0 0 40 40"><defs><style>.cls-1{fill:none;}.cls-2{fill:#495b73;}.cls-3{fill:#65778e;}.cls-4{fill:#e5e8eb;}</style></defs><rect class="cls-1" width="40" height="40" transform="translate(0 40) rotate(-90)"/><path class="cls-2" d="M5.429,3.486H31.657A2.914,2.914,0,0,1,34.571,6.4V28.743a2.914,2.914,0,0,1-2.914,2.914H5.429a0,0,0,0,1,0,0V3.486A0,0,0,0,1,5.429,3.486Z" transform="translate(2.429 37.571) rotate(-90)"/><path class="cls-3" d="M8.829,9.8H31.171a2.915,2.915,0,0,1,2.915,2.914V34.086A2.915,2.915,0,0,1,31.171,37H8.829a2.915,2.915,0,0,1-2.915-2.914V6.886A2.915,2.915,0,0,0,8.829,9.8H31.171"/><path class="cls-4" d="M31.171,4.943H8.829a.972.972,0,0,0-.972.971v.972a.972.972,0,0,0,.972.971H31.171a2.915,2.915,0,0,1,2.915,2.914V7.857A2.915,2.915,0,0,0,31.171,4.943Z"/></svg>