<svg id="Layer_1" data-name="Layer 1" xmlns="http://www.w3.org/2000/svg" viewBox="0 0 40 40"><defs><style>.cls-1{fill:#ffce00;}.cls-2{fill:#ffdc42;}.cls-3{fill:#ff7500;}.cls-4{fill:none;}</style></defs><path class="cls-1" d="M2.761,21.75a1.576,1.576,0,0,0-.039,2.482,7.516,7.516,0,0,0,10.5-10.579Z"/><path class="cls-1" d="M37.239,21.75a1.576,1.576,0,0,1,.039,2.482,7.516,7.516,0,0,1-10.5-10.579Z"/><path class="cls-2" d="M20,36.8C9.652,36.8,6.36,31.2,6.36,25.549a22.826,22.826,0,0,1,.7-5.144c.438-1.778,1.154-3.433,2.2-8.283C10.362,7,14.011,3.2,20,3.2h0c5.989,0,9.638,3.8,10.741,8.92,1.045,4.85,1.761,6.5,2.2,8.283a22.826,22.826,0,0,1,.7,5.144C33.64,31.2,30.348,36.8,20,36.8Z"/><path class="cls-3" d="M19.965,14.966l-1.318-.914a.531.531,0,0,1,0-.872l1.318-.914a.531.531,0,0,1,.605,0l1.318.914a.531.531,0,0,1,0,.872l-1.318.914A.531.531,0,0,1,19.965,14.966Z"/><circle cx="17.224" cy="10.981" r="1.429"/><circle cx="23.037" cy="10.981" r="1.429"/><rect class="cls-4" width="40" height="40"/></svg>