<?xml version="1.0" encoding="UTF-8"?><svg id="Layer_1" xmlns="http://www.w3.org/2000/svg" viewBox="0 0 40 40"><g><circle cx="20" cy="23.11264" r="13.37221" style="fill:#c3846c;"/><g><ellipse cx="7.79618" cy="23.48808" rx="5.3532" ry="5.02083" style="fill:#c3846c;"/><ellipse cx="32.20382" cy="23.48808" rx="5.3532" ry="5.02083" style="fill:#c3846c;"/></g><path d="M35.12201,19.27826c.13503-9.18105-7.76356-16.67716-17.11769-15.67261-7.19427,.7726-12.95546,6.61977-13.63388,13.82353-.06903,.73296-.08667,1.45662-.05611,2.16779,0,0,1.30695-.31137,2.46982,2.2129L15.60488,11.93971s10.70837,8.59999,17.77572,8.13073c.15565-.01033,.33533-.06435,.51264-.14022,.47112-.26541,.86688-.75732,1.22877-.65196Z" style="fill:#523725;"/><g><ellipse cx="16.24315" cy="22.46575" rx="1.42305" ry="1.70766"/><ellipse cx="23.75685" cy="22.46575" rx="1.42305" ry="1.70766"/></g><path d="M21.77021,29.19873c.31981,0,.547,.30724,.46216,.6156-.26958,.97978-1.16692,1.69951-2.23236,1.69951s-1.96278-.71972-2.23236-1.69951c-.08484-.30835,.14234-.6156,.46216-.6156h3.54041Z" style="fill:#5c2f17;"/></g><rect width="40" height="40" style="fill:none;"/></svg>