<svg id="Layer_1" data-name="Layer 1" xmlns="http://www.w3.org/2000/svg" viewBox="0 0 40 40"><defs><style>.cls-1{fill:none;}.cls-2{fill:#93c9ff;}.cls-3{fill:#007ff3;}</style></defs><rect class="cls-1" width="40" height="40" transform="translate(40 40) rotate(-180)"/><path class="cls-2" d="M18.5,13.843l4.987-4.395a1.633,1.633,0,0,1,2.16,0L35.78,18.381a1.631,1.631,0,0,1,.553,1.225V32.077a3.266,3.266,0,0,1-3.266,3.266H6.933a3.266,3.266,0,0,1-3.266-3.266V6.293A1.633,1.633,0,0,1,6.38,5.068l9.957,8.775A1.633,1.633,0,0,0,18.5,13.843Z"/><path class="cls-3" d="M6.38,4.972l9.957,8.775a1.633,1.633,0,0,0,2.16,0l4.987-4.394a1.633,1.633,0,0,1,2.16,0L35.78,18.285a1.635,1.635,0,0,1,.553,1.225h0a1.926,1.926,0,0,1-3.2,1.445l-7.491-6.6a1.633,1.633,0,0,0-2.16,0L18.5,18.747a1.633,1.633,0,0,1-2.16,0L3.667,7.581V6.2A1.633,1.633,0,0,1,6.38,4.972Z"/></svg>