<?xml version="1.0" encoding="UTF-8"?><svg id="a" xmlns="http://www.w3.org/2000/svg" viewBox="0 0 40 40"><rect width="40" height="40" fill="none"/><g><path d="M34.663,15.633c-.278-7.717-6.608-13.957-14.328-14.129-8.256-.184-15.007,6.454-15.007,14.669,0,2.487,.621,4.829,1.713,6.881l-.006-.004c.016,.029,.031,.055,.047,.083,.041,.076,.085,.15,.128,.226,.044,.078,.089,.156,.133,.231,.071,.122,.144,.242,.219,.361,.043,.068,.085,.133,.128,.199,.055,.085,.109,.171,.165,.255,2.078,3.094,3.845,3.316,4.471,5.677h6.35v-7.062l-3.389-3.389c-.548-.548-.548-1.436,0-1.984,.548-.548,1.436-.548,1.984,0l2.751,2.751,2.707-2.707c.548-.548,1.436-.548,1.984,0h0c.548,.548,.548,1.436,0,1.984l-3.389,3.389v7.017h6.35c.628-2.37,2.405-2.585,4.492-5.706l.005-.007c.1-.149,.2-.306,.301-.469,.052-.084,.103-.168,.153-.253,.114-.191,.228-.387,.342-.597l-.009,.005c1.171-2.201,1.801-4.734,1.704-7.422Z" fill="#ffc33a"/><path d="M21.324,30.083v-7.017l3.389-3.389c.548-.548,.548-1.436,0-1.984h0c-.548-.548-1.436-.548-1.984,0l-2.707,2.707-2.751-2.751c-.548-.548-1.436-.548-1.984,0-.548,.548-.548,1.436,0,1.984l3.389,3.389v7.062h2.649Z" fill="#ff9000"/><path d="M12.354,30.083c.007,.158,.012,.322,.014,.494v2.879c0,2.785,2.458,5.043,5.244,5.043h4.776c2.785,0,5.274-2.258,5.274-5.043v-2.768c0-.214,.006-.413,.015-.606H12.354Z" fill="#7d8996"/></g><rect x="12.184" y="30.308" width="15.664" height="3" fill="#4b596a"/></svg>