<?xml version="1.0" encoding="UTF-8"?><svg id="Layer_1" xmlns="http://www.w3.org/2000/svg" viewBox="0 0 40 40"><path d="m28.543,9.999c-.183.07-.366.143-.556.187l-.418,1.008c-.271.652-1.019.962-1.671.691s-.962-1.019-.691-1.671l.104-.251-.857-.248c-.615,1.29-1.87,2.547-3.38,3.694-4.097,3.112-10.047,5.422-10.047,5.422.011.015.021.028.032.043.982,1.359,1.954,2.547,2.904,3.586,3.042,3.331,5.846,5.13,7.975,6.102,2.34,1.067,3.862,1.136,3.992,1.14.006,0,.014,0,.014,0,.173-.763.333-1.51.483-2.243.041-.201.077-.393.117-.591.787-3.936,1.268-7.395,1.556-10.138.388-3.698.437-6.099.443-6.622,0-.069,0-.108,0-.11Z" fill="#be3637"/><path d="m29.88,2.79l-2.33,2.59c-.49-.61-1.3-.74-1.88-.26-.63.52-.75,1.53-.27,2.27.2.3.47.51.77.61l-.82,1.96v.01l-.04-.01-.86-.24-.69-.21-1.95-.56c-.49-.14-.73-.69-.5-1.15l1.69-3.4h.01l.01.02c.02-.07.05-.14.08-.21.03-.08.07-.16.11-.23.09-.17.19-.33.31-.49.05-.07.1-.14.16-.21.12-.15.24-.28.38-.41.07-.07.15-.14.23-.2.13-.11.27-.21.42-.31.09-.06.19-.11.29-.16.14-.08.29-.15.44-.21.12-.04.23-.08.35-.12.15-.04.3-.07.46-.1.07-.02.14-.04.22-.05.05-.01.1,0,.15,0,.18-.02.36-.02.53-.01.12,0,.23,0,.35.01.19.03.37.07.55.11.1.03.2.05.3.08.19.06.38.15.56.24.08.04.17.07.25.12.19.11.36.25.53.38.06.05.13.09.19.14Z" fill="#ee9530"/><g><path d="m24.87,38.92l-3.69-1.82c-.55-.27-.85-.85-.78-1.45,0-.06,0-.12.01-.19l1.53-6.9c2.34,1.07,3.86,1.14,3.99,1.14l-1.05,4.76,1.37,3.14c.39.87-.52,1.74-1.38,1.32Z" fill="#f5ca5f"/><path d="m20.41,35.46c-.01.07-.01.13-.01.19l-.03-.01.04-.18Z" fill="#f5ca5f"/><path d="m24.45,9.72c-.61,1.29-1.86,2.54-3.38,3.69l-6.69-.25c-.21.22-.46.41-.75.55-1.21.57-2.65.05-3.22-1.16-.57-1.21-.05-2.65,1.16-3.22.37-.18.76-.24,1.14-.22v-.01l11.05.41.69.21Z" fill="#f5ca5f"/><path d="m37.38,16.03c-.02.01-.05.01-.07.02v.01l-3.65,2.14c-.63.37-1.33.56-2.05.56-.35,0-.71-.05-1.07-.14-1.04-.28-1.9-.96-2.44-1.89.39-3.7.44-6.1.44-6.62l2.69,4.8c.07.13.18.19.26.21s.2.03.33-.05l2.26-1.32c.07-.81.54-1.57,1.33-1.93,1.16-.55,2.54-.05,3.09,1.11.54,1.17.04,2.55-1.12,3.1Z" fill="#f5ca5f"/><path d="m29.91,2.81c-.01,0-.02-.01-.03-.02l-2.33,2.59c-.49-.61-1.3-.74-1.88-.26-.63.52-.75,1.53-.27,2.27.2.3.47.51.77.61l-.82,1.96v.01l-.04-.01-.1.25c-.27.66.04,1.4.69,1.68.65.27,1.4-.04,1.67-.7l.42-1c.19-.05.37-.12.55-.19.61-.23,1.17-.59,1.64-1.1,1.61-1.75,1.48-4.48-.27-6.09Zm.26,3.47c-.21.02-.42-.25-.47-.62-.04-.37.09-.69.3-.72.21-.02.42.25.46.62.05.37-.08.69-.29.72Z" fill="#f5ca5f"/><path d="m13.96,22.46l-5.68,1.3-.41.48c-.44.52-1.18.66-1.78.34l-3.64-1.92c-.84-.45-.67-1.7.26-1.89l3.69-.83,4.66-1.06c.98,1.35,1.95,2.54,2.9,3.58Z" fill="#f5ca5f"/></g><path d="m30.166,6.278c.209-.026.342-.346.296-.716s-.253-.647-.463-.621-.342.346-.296.716.253.647.463.621Z"/></svg>