<?xml version="1.0" encoding="UTF-8"?><svg id="Layer_1" xmlns="http://www.w3.org/2000/svg" viewBox="0 0 40 40"><rect width="40" height="40" fill="none"/><path d="m29.014,8.111c-1.546,0-2.799,1.253-2.799,2.799l-.742,4.406-3.224-3.224h0s-6.07-6.07-6.07-6.07c0,0-.001-.001-.002-.002-1.072-1.073-2.792-1.091-3.841-.042-1.049,1.049-1.03,2.769.042,3.841h0s0,0,0,0l6.072,6.072-.008.009-7.74-7.74c-1.071-1.072-2.79-1.09-3.838-.042-1.048,1.048-1.029,2.766.042,3.838l7.74,7.74-.012.012-6.609-6.609c-1.064-1.064-2.788-1.066-3.851-.003-1.062,1.062-1.061,2.787.003,3.851l2.02,2.02c-.943-.615-2.202-.524-3.01.284-.932.932-.913,2.462.043,3.417h0s8.72,8.72,8.72,8.72h0c4.544,4.544,11.912,4.544,16.456,0,2.272-2.272,3.408-5.25,3.408-8.228v-12.25c0-1.546-1.253-2.799-2.799-2.799Z" fill="#ec6700"/><path d="m32.877,9.057c-1.449,0-2.623,1.175-2.623,2.624l-.682,4.048-3.636-3.636h0s-6.087-6.087-6.087-6.087c0,0,0-.001-.001-.002-.918-.917-2.389-.934-3.287-.036-.898.898-.881,2.369.036,3.287h0,0s6.089,6.089,6.089,6.089l-.595.594-7.763-7.763c-.922-.922-2.401-.938-3.303-.036-.902.902-.886,2.381.036,3.303l7.763,7.763-.592.592-6.647-6.647c-.901-.901-2.36-.902-3.259-.003-.899.899-.898,2.358.003,3.259l6.647,6.647-.613.614-4.015-4.015h0c-.913-.914-2.375-.932-3.265-.042-.89.89-.872,2.352.041,3.265l4.016,4.016h0l1.513,1.513,2.802,2.802h0l.183.183c4.544,4.544,11.912,4.544,16.456,0,2.272-2.272,3.408-5.25,3.408-8.228v-11.48c0-1.449-1.175-2.624-2.623-2.624Z" fill="#ffb582"/><g><circle cx="25.879" cy="4.455" r="1.504" fill="#edccf8"/><circle cx="10.788" cy="34.757" r="1.504" fill="#f66570"/><rect x="31.409" y="1.868" width="4.181" height="4.181" rx=".898" ry=".898" transform="translate(1.806 15.511) rotate(-26.766)" fill="#b44bd7"/><rect x="2.861" y="29.943" width="3.49" height="3.49" rx=".75" ry=".75" transform="translate(33.41 17.699) rotate(72.366)" fill="#6376ff"/><circle cx="37.586" cy="8.471" r="1.504" fill="#7896ff"/></g></svg>