<?xml version="1.0" encoding="UTF-8"?><svg id="Layer_1" xmlns="http://www.w3.org/2000/svg" viewBox="0 0 40 40"><g><path d="m22.152,8.961l-.884.927c-.689.723-1.742.717-2.424-.013l-.874-.936c-2.328-2.492-5.958-2.375-8.168.263L1.549,19.048c-.733.874-.732,2.261.002,3.131l2.386,2.831c8.762,10.393,23.212,10.468,32.08.166l2.415-2.806c.743-.863.758-2.25.034-3.131l-8.15-9.93c-2.184-2.661-5.811-2.815-8.165-.347Z" fill="#ef4452"/><path d="m26.609,19.571c.398.234.396.725-.005.955-1.204.691-3.716,1.892-6.613,1.877-2.897-.015-5.397-1.242-6.593-1.945-.398-.234-.396-.725.005-.955,1.204-.691,3.716-1.892,6.613-1.877,2.897.015,5.397,1.242,6.593,1.945Z" fill="#a41926"/></g><rect width="40" height="40" fill="none"/></svg>