<?xml version="1.0" encoding="UTF-8"?><svg id="Layer_1" xmlns="http://www.w3.org/2000/svg" viewBox="0 0 40 40"><path d="M22.81061,12.42664c.0116-.01379,.02411-.02576,.03558-.03967,.03815-.04712,.07837-.09863,.12079-.15613,.01221-.01587,.02399-.03247,.03607-.04858,.11987-.16565,.24854-.35754,.36157-.53406L15.77301,3.36621l-.89459,.7478,7.77466,8.48169c.05243-.0564,.10718-.10938,.15747-.16907h.00006Z" style="fill:#999;"/><g><path d="M36.74115,8.03979h-1.06641c-.4007,0-.75793-.23401-.92358-.59888-.31696-.698-1.03473-1.78369-2.48438-1.99573-.5575-.08167-1.16766-.19006-1.79846-.24597,.07892,2.4502,.65912,6.91064-.16571,7.77344-1.13055,1.18262-4.22937-.90503-5.78796-3.51477-.36212,.74353-.68256,1.40723-1.01923,1.98132l.02655-.04248,7.25568,5.11389,.56207-1.52759c.2644-.71863,.91003-1.21985,1.67126-1.30273,1.8186-.19812,5.48901-.89697,5.48901-3.36365v-.57227s-1.75885-.07983-1.75885-1.70459Zm-3.61456,1.25171c-.46118,0-.83502-.37402-.83502-.83521s.37384-.83496,.83502-.83496,.83502,.37378,.83502,.83496-.37384,.83521-.83502,.83521Z" style="fill:#5e403b;"/><path d="M18.42999,20v5.25c-.5-.09009-1.01001-.16003-1.57001-.16003-1.19,0-2.22998,.20007-3.14996,.52002-1.64001,.56995-2.90002,1.54993-3.84003,2.66003-1.83002,2.16992-2.51001,4.81995-2.70001,5.71997-.03998,.17993,.06,.35999,.22003,.45996,.76001,.5,.82001,1.3501,.77997,1.83008-.01001,.19995-.17999,.34998-.38995,.34998h-2.84003c-.22003,0-.40002-.18005-.38-.41003,.17999-2.16992,1.01001-12.27002,.97003-15.05005-.04004-2.03992,.85999-3.92993,2.07996-5.23999-2.38-.56995-6.66998-2.28003-6.04999-7.12988,.85999-6.65015,10.53998-6.97009,11.91998,0,.42004,2.59985-1.13995,3.56995-1.13995,3.56995,0,0-1.61005-4.43005-5.39001-2.75-2.17999,1.17004-1.22003,4.22998,2.06,5.15002,.25-.15002,.5-.28003,.75-.38,1.21997-.47009,2.73999-.53003,4.52997-.5-.22998,.35999-.63995,1.07996-.87,2.02991-.07001,.33008-.13,.68005-.14996,1.06006,0,.09009-.01001,.17993-.01001,.27002v1.75c0,.55005,.45001,1,1,1h4.16998Z" style="fill:#5e403b;"/><path d="M22.81616,12.42603v6.57397c0,.16455-.04932,.31335-.11981,.45032h6.99969l-.40454,1.09961h-9.76587v4.99756c.73212,.26428,1.38696,.62952,1.96735,1.07458,1.20996,.92798,2.10767,2.18018,2.77386,3.48755,1.28925,2.52966,1.7113,5.255,1.82251,6.1886,.02319,.1947,.18817,.33557,.38416,.33557h3.62634c.21277,0,.38696-.1665,.38898-.37915,.0061-.64355-.12762-1.92981-1.22791-2.44409-.13434-.06274-.23822-.17822-.26129-.32458l-1.10901-7.03784c-.15125-.95984-.0545-1.9425,.28101-2.85437l2.20111-5.98242-7.55658-5.1853Z" style="fill:#5e403b;"/></g><g><g><path d="M21.49298,26.62207l-1.422,9.56665c-.03485,.23438,.14679,.44507,.38379,.44507h3.34583c.23553,0,.41241-.20557,.38531-.43958-.05127-.44348-.22821-1.13281-.80884-1.6366-.12939-.1123-.19794-.2793-.15472-.44507l1.04449-4.00293c-.6662-1.30737-1.5639-2.55957-2.77386-3.48755Z" style="fill:#191f28;"/><path d="M9.87366,28.2688l1.46265,8.04639c.03351,.18457,.19421,.3186,.38171,.3186h3.26501c.24982,0,.43268-.22974,.37903-.47363-.13361-.6073-.46161-1.63745-1.20331-2.10474-.12671-.07983-.21661-.20471-.22089-.35449l-.23242-8.08777c-1.63861,.56848-2.89227,1.54358-3.83179,2.65564Z" style="fill:#191f28;"/></g><g><path d="M30.30261,12.97266c.82483-.86279,.24463-5.32324,.16571-7.77344l-.00006-.00098c-.12573-.01111-.25244-.01953-.37964-.02563-.03577-.00183-.07184-.0022-.10773-.00342-.10669-.00391-.21362-.00562-.32086-.00488-.04297,.00024-.08582,.00073-.12878,.00183-.11914,.00293-.23834,.0094-.35767,.01917-.02344,.00195-.04694,.00269-.07043,.00488-.14172,.01355-.28333,.03345-.42462,.05859-.03284,.00586-.06561,.01367-.09839,.02014-.11157,.02234-.22278,.04871-.33356,.07947-.03845,.01074-.0769,.02148-.11523,.0332-.12921,.03967-.25769,.08472-.38525,.1377-.01123,.00464-.02264,.00806-.03387,.01294-.13977,.05945-.27802,.12939-.41504,.20679-.03052,.01733-.06067,.03687-.091,.05518-.10797,.06458-.21472,.13562-.3205,.21289-.03394,.02466-.06793,.04907-.10162,.0752-.13068,.10132-.25995,.20996-.38641,.33276l-.00189,.00171c-.12854,.12488-.25415,.26453-.37769,.41333-.02911,.03516-.0575,.07312-.0863,.10962-.09558,.12109-.18927,.25024-.28131,.38708-.02966,.04431-.05963,.0874-.08893,.13342-.1153,.18066-.22858,.37012-.33734,.57861-.0108,.02075-.01862,.03809-.02936,.05872-.24103,.46411-.4577,.90369-.66034,1.3197l-.02014,.04016,.00031,.00049c1.55859,2.60974,4.65741,4.69739,5.78796,3.51477Z" style="fill:#191f28;"/><path d="M33.12659,7.62134c-.46118,0-.83502,.37378-.83502,.83496s.37384,.83521,.83502,.83521,.83502-.37402,.83502-.83521-.37384-.83496-.83502-.83496Z"/><path d="M37.87634,8.03979h-1.13519c0,1.62476,1.75885,1.70459,1.75885,1.70459v-1.08093c0-.34436-.27924-.62366-.62366-.62366Z" style="fill:#191f28;"/></g></g><g><path d="M19.52563,19.45032h3.17072c.0705-.13696,.11981-.28577,.11981-.45032v-6.57422h-.00006l-.00549,.00085h-.00006c-.05029,.05969-.10504,.11267-.15747,.16907-.05396,.05811-.10577,.11963-.16223,.17432l-.00671,.00598c-.10913,.1051-.22314,.20398-.34332,.29602l-.02399,.0166c-.11584,.08716-.23663,.16919-.36469,.2439-.0152,.00891-.03241,.01587-.04779,.02466-.12286,.06946-.25,.13501-.38574,.19312-.02887,.01221-.06165,.02148-.09113,.0332-.12714,.05103-.25665,.09985-.39618,.14087-.04773,.01404-.10193,.02344-.15125,.03625-.1283,.03357-.25629,.06714-.39569,.09265-.08398,.01526-.1781,.02368-.26636,.03613-.11566,.01611-.22681,.0354-.35022,.04639-.04486,.00415-.09619,.00415-.14215,.00745v5.50708Z" style="fill:#eb4552;"/><path d="M13.27319,16.98315c-.00446,.09045-.01416,.17773-.01416,.27075v1.74609c0,.55225,.44775,1,1,1h4.16699v-6.02905c-.29169,.00061-.58282,.00159-.86401-.00183-.0647-.00085-.12604-.00256-.19019-.00342-1.10065-.01648-2.12665-.05457-3.07196-.07117l-.00763-.00024-.00006,.00012c-.23413,.35376-.64197,1.07507-.86853,2.02356-.07861,.3291-.13165,.6853-.15045,1.06519Z" style="fill:#eb4552;"/></g><g><path d="M23.49542,11.43921c-.04022,.06543-.08276,.13416-.1308,.20898-.11304,.17651-.2417,.36841-.36157,.53406l-.03607,.04858c-.04242,.0575-.08264,.10901-.12079,.15613-.00952,.01172-.02094,.02795-.03009,.03882h.00006v.00024l7.55658,5.1853,.00153,.00098,.40503-1.10059-.00165-.0011-7.25568-5.11389-.02655,.04248Z" style="fill:#c7c7c7;"/><path d="M29.2915,20.54993l.40454-1.09961h-10.17041v-5.50745h0c-.17725,.01294-.35596,.0249-.5498,.02747-.18848,.00256-.36523-.00085-.5498-.00049v11.2821l.00055,.00024c.38361,.07458,.75232,.17017,1.09906,.29541v-4.99768h9.76587Z" style="fill:#c7c7c7;"/></g><rect width="40" height="40" style="fill:none;"/></svg>