<?xml version="1.0" encoding="UTF-8"?><svg id="Layer_1" xmlns="http://www.w3.org/2000/svg" viewBox="0 0 40 40"><path d="M13.40997,11.34998c.07001,.08997,.09003,.20007,.07001,.29993l-2.48999-2.02991-1.33002,1.70996c-.38995,.5-1.12,.59998-1.62,.20007-.5-.39001-.58997-1.11011-.19995-1.62012l1.35999-1.73999-.83002-.67993-3.48999,.66992c-.63,.12012-1.22998-.28992-1.34998-.90991-.12006-.63,.28998-1.22998,.90997-1.3501l4.02002-.7699c.33997-.06995,.69,.0199,.94995,.22998l4.36005,3.54993-1.36005,.38013c-.25,.06995-.34998,.36987-.19,.57996l1.19,1.47998Z" style="fill:#65778e;"/><path d="M30.32001,12.88l-3.34003,7.30994c-.08997,.21997-.39996,.22998-.51001,.01001l-1.10999-2.1499-1.76996,3.88989c-.10004,.20996-.41003,.21997-.52002,.01001l-.53003-1.03003-3.22998,3.34009-.53998,.56006c-.21002,.09985-.46002-.03003-.5-.26001l-.34003-1.73999c-.03998-.2301-.28998-.3501-.51001-.26001-3.26001,1.38989-5.06-.96008-5.60999-1.87012-.10999-.18994-.04999-.41992,.14001-.52002l2.58002-1.31995c-1.21002,.47998-2.19,.33997-2.96002-.03992-1.96002,4.02991-3.48999,9.7699-3,17.68994H4.42999l2.83002-3.35999c.34998-.42004,.40997-1,.14996-1.4801l-1.70996-3.10986c-.29999-.55005-.16998-1.22998,.29999-1.64014l1.85999-1.54993c.45001-.38,.60004-1.01001,.35004-1.54993l-1.07001-2.36011c-.29004-.65991,0-1.43994,.65997-1.72998l3.04999-1.39001c-.39996-.33997-.71997-.71997-.94-1.04993-.16998-.25,.03003-.59009,.32001-.56006,1.72003,.18994,2.91003-1.07007,3.04004-1.21997-2.09003,1.01001-3.64001-.21997-4.28003-.87-.16998-.17004-.10999-.46008,.10004-.56995l4.19995-2.16016c.10004-.04993,.17004-.1499,.19-.25,.02002-.09985,0-.20996-.07001-.29993l-1.19-1.47998c-.15997-.21008-.06-.51001,.19-.57996l1.36005-.38013,1-.28992c.22998-.05994,.33997-.32996,.20996-.54004l-.83997-1.35999c-.12-.18994-.03003-.45996,.19-.53003,3.47998-1.1499,5.89996,.95996,6.65997,1.76001l-.95996,.48999-.09003,.05005c-.03003-.07007-.03998-.13-.07001-.18994-.53998-1.04004-1.82001-1.45007-2.85999-.92004-1.04004,.53992-1.45001,1.81995-.91003,2.85999,.11005,.21997,.27002,.40991,.45001,.58008-.88,1.2699-1.07001,2.95996-.31,4.42993,1.09003,2.13,3.70001,2.95996,5.82001,1.87l8.26001-4.23999Z" style="fill:#176b73;"/><path d="M30.96002,10.89001c-.22003-.43005-.75-.58997-1.17004-.37l-3.26996,1.67993-1.59003-.72998c-.17999-.08997-.39001,.03003-.41998,.21997l-.27002,1.68005-1.06,.54993c-.62,.32007-1.39001,.07007-1.71002-.54993-.31995-.62-.06995-1.38,.55005-1.70007l2.19995-1.13989,1.60004,.72998c.16998,.08997,.38-.02002,.41998-.21997l.27002-1.68005,1.63-.83997c.89996-.45996,1.25-1.57007,.78998-2.46997l-.89001-1.72998-2.69,1.38989-4.35999,2.23999-.95996,.48999-.09003,.05005c-.03003-.07007-.03998-.13-.07001-.18994-.53998-1.04004-1.82001-1.45007-2.85999-.92004-1.04004,.53992-1.45001,1.81995-.91003,2.85999,.11005,.21997,.27002,.40991,.45001,.58008-.88,1.2699-1.07001,2.95996-.31,4.42993,1.09003,2.13,3.70001,2.95996,5.82001,1.87l8.26001-4.23999c.51001-.27002,.81-.78003,.81-1.31995,0-.22009-.06-.45007-.16998-.67004Zm-12.31-.49011c-.65002,.33008-1.45001,.08008-1.78003-.56995s-.08002-1.44995,.57001-1.77991c.65002-.34009,1.45001-.08008,1.77997,.56995,.33002,.65002,.08002,1.44006-.56995,1.77991Z" style="fill:#ffb134;"/><path d="M18.64862,10.39795c.64893-.3335,.90466-1.12988,.57123-1.77881-.33344-.6488-1.12976-.90454-1.77869-.57117-.64886,.33337-.9046,1.12976-.57123,1.77869,.33344,.64893,1.12982,.90466,1.77869,.57129Z" style="fill:#191f28;"/><path d="M28.04144,4.323c-.38251-.74438-1.29596-1.0376-2.04028-.65515-.74438,.38245-1.03772,1.2959-.65521,2.04028h0l2.6955-1.38513Z" style="fill:#ec6700;"/><path d="M36.48999,36.5H8.57001c-.48999-7.92004,1.03998-13.66003,3-17.68994,.77002,.37988,1.75,.5199,2.96002,.03992l-2.58002,1.31995c-.19,.1001-.25,.33008-.14001,.52002,.54999,.91003,2.34998,3.26001,5.60999,1.87012,.22003-.09009,.47003,.02991,.51001,.26001l.34003,1.73999c.03998,.22998,.28998,.35986,.5,.26001l.53998-.56006c-.47998,3.03003-.21997,6.06006,.17999,8.34998,1.91003-1.44006,4.28003-2.28992,6.85004-2.28992,4.42999,0,8.25,2.50989,10.14996,6.17993Z" style="fill:#12555c;"/></svg>