<?xml version="1.0" encoding="UTF-8"?><svg id="a" xmlns="http://www.w3.org/2000/svg" viewBox="0 0 40 40"><g><path d="M33.561,6.048H6.563c-.845,0-1.53,.685-1.53,1.53V28.266h30.058V7.578c0-.845-.685-1.53-1.53-1.53Z" fill="#333d4b" fill-rule="evenodd"/><path d="M35.091,28.266H5.033l-3.221,3.991c-.589,.73-.07,1.818,.869,1.818H37.443c.938,0,1.458-1.087,.869-1.818l-3.221-3.991Z" fill="#c0c7d1"/><path d="M24.842,29.573H15.281c-.281,0-.547,.127-.724,.346l-1.14,1.413c-.201,.249-.024,.62,.297,.62h12.697c.32,0,.498-.371,.297-.62l-1.14-1.413c-.177-.219-.443-.346-.724-.346Z" fill="#e5e9ee"/></g><rect x=".062" y=".062" width="40" height="40" fill="none"/></svg>