<?xml version="1.0" encoding="UTF-8"?><svg id="Layer_1" xmlns="http://www.w3.org/2000/svg" viewBox="0 0 40 40"><g><polygon points="35.333 14.502 35.93 14.502 36.425 10.651 34.894 10.651 35.333 14.502" fill="#e6e6e6"/><circle cx="24.145" cy="8.929" r="3.889" fill="#d0d6de"/><path d="m36.79,10.032c.44-.837.172-1.85-.638-2.338-1.723-1.038-5.25-2.299-9.909.536-3.021,1.791-4.476,2.182-9.007,2.742-4.532.56-14.089,4.533-14.234,13.262-.137,8.288,6.764,12.439,23.116,10.062.337-.049.328-.547-.012-.568-5.179-.315-15.549-.271-19.113-4.016-.137-.144-.021-.385.177-.385h11.16c.319,0,.558-.301.473-.608-.175-.633-.813-1.538-3.023-1.574l4.825-3.632c.27-.203.658-.101.793.208l2.278,5.186c.097.221.316.364.558.364h2.496c.415,0,.785-.279.88-.683.166-.7.121-1.711-1.424-1.891,0,0-1.79-5.26,2.518-8.674,3.574-2.832,6.802-5.549,8.085-7.99Z" fill="#d0d6de"/><circle cx="30.636" cy="9.241" r="1.041" fill="#d14623"/></g><rect width="40" height="40" fill="none"/></svg>