<?xml version="1.0" encoding="UTF-8"?><svg id="Layer_1" xmlns="http://www.w3.org/2000/svg" viewBox="0 0 40 40"><g><path d="m21.464,17.96s-11.632,2.454-12.326-4.482l-2.188,1.103s1.309,3.631,3.722,4.399c.156.05.245.21.177.358-.337.738-1.126,2.913-.484,6.038.8,3.895-3.735,5.496-3.735,5.496l2.454.907s4.215-3.522,6.35-5.923,8.057-.96,8.057-.96l-2.028-6.936Z" fill="#8a94a0"/><polygon points="30.266 25.371 28.314 30.248 25.501 30.052 25.732 25.371 30.266 25.371" fill="#8a94a0"/><polygon points="16.628 23.784 15.318 30.052 12.737 30.052 12.044 24.284 16.628 23.784" fill="#8a94a0"/><path d="m27.424,34.937l1.443,1.794c.139.173.016.43-.206.43h-3.513c-.159,0-.282-.139-.262-.296l.283-2.315,2.256.388Z" fill="#8a94a0"/><path d="m15.061,34.977l1.367,1.7c.157.195.018.484-.232.484h-3.405c-.179,0-.317-.156-.295-.334l.278-2.277,2.287.427Z" fill="#8a94a0"/><path d="m6.276,33.449l-1.236,2.682c-.1.218-.404.234-.526.028l-1.779-2.99c-.088-.148-.033-.339.121-.417l2.636-1.343.785,2.04Z" fill="#8a94a0"/><path d="m29.688,7.305l6.543,2.261c.766.265,1.577.483.688,1.863h0c-.346.59-.953.979-1.634,1.047l-6.458.648.861-5.818Z" fill="#8a94a0"/><path d="m30.074,9.307c-.054-.313.081-.624.35-.793.834-.525,2.556-1.882,1.812-3.789-.967-2.478-5.472-2.043-7.375-1.33-2.651.994-4.473,4.358-4.352,11.186.064,1.818-.557,2.829-1.028,3.745-.88,1.713-1.511,3.99,1.693,6.528,3.204,2.539,6.677,3.627,10.109,1.33,3.431-2.297,3.433-7.858,1.135-11.364-1.663-2.537-2.183-4.578-2.344-5.513Z" fill="#d0d6de"/><circle cx="7.456" cy="11.344" r="4.162" fill="#d0d6de"/><circle cx="26.648" cy="32.34" r="2.88" fill="#d0d6de"/><circle cx="7.332" cy="31.516" r="2.88" fill="#d0d6de"/><circle cx="14.336" cy="32.34" r="2.88" fill="#d0d6de"/><path d="m24.298,16.248h0c1.26.433,2.627-.269,3.009-1.546l1.699-5.689c.322-1.079-.264-2.219-1.328-2.586h0c-1.064-.366-2.228.172-2.638,1.221l-2.161,5.53c-.485,1.241.161,2.636,1.421,3.07Z" fill="#e5e9ee"/><circle cx="32.722" cy="9.675" r=".817" fill="#332d26"/><path d="m35.772,9.921c0-.168.046-.327.118-.477l.355.123c.73.252,1.483.475.785,1.687-.732-.199-1.257-.718-1.257-1.333Z" fill="#332d26"/></g><rect width="40" height="40" fill="none"/></svg>