<svg id="Layer_1" data-name="Layer 1" xmlns="http://www.w3.org/2000/svg" viewBox="0 0 40 40"><defs><style>.cls-1{fill:none;}.cls-2{fill:#aab6c6;}.cls-3{fill:#6e4944;}.cls-4{fill:#333;}.cls-5{fill:#5c2f17;}</style></defs><rect class="cls-1" width="40" height="40"/><path class="cls-2" d="M1.712,36.887H27.066a5.05,5.05,0,0,0,4.884-3.768l2.8-9.736a.168.168,0,0,0-.107-.2l-6.906-2.428a.212.212,0,0,0-.262.11l-2.693,6.359a11.641,11.641,0,0,0-9.321-4.087h0c-7.887-.34-13.75,6.157-13.75,13.751Z"/><path class="cls-3" d="M12.078,21.275H16.65a0,0,0,0,1,0,0v2.286a2.286,2.286,0,0,1-2.286,2.286h0a2.286,2.286,0,0,1-2.286-2.286V21.275A0,0,0,0,1,12.078,21.275Z" transform="translate(-1.376 0.896) rotate(-3.41)"/><path class="cls-3" d="M34.7,23.383l3.439-4.125A2.025,2.025,0,0,0,38,16.518h0a2.025,2.025,0,0,0-2.856.013L33.98,17.7a1.769,1.769,0,0,1-1.681.467l-.911-.229a3.024,3.024,0,0,0-3.564,1.868l-.348.924Z"/><path class="cls-4" d="M4.673,17.359,5.815,21a1.539,1.539,0,0,0,1.561,1.077l13.682-.815A1.54,1.54,0,0,0,22.5,19.878l.351-3.6Z"/><circle class="cls-3" cx="13.798" cy="14.318" r="8.113"/><ellipse class="cls-3" cx="6.42" cy="14.986" rx="3.248" ry="3.046" transform="translate(-0.88 0.408) rotate(-3.409)"/><ellipse class="cls-3" cx="21.202" cy="14.105" rx="3.248" ry="3.046" transform="translate(-0.801 1.286) rotate(-3.409)"/><path class="cls-4" d="M22.818,11.45a9.352,9.352,0,0,0-18.691-.01,9.709,9.709,0,0,0,.044,1.315s.781-.236,1.576,1.251l4.986-6.3s6.795,4.822,11.059,4.283a.994.994,0,0,0,.3-.1C22.373,11.712,22.6,11.4,22.818,11.45Z"/><ellipse cx="11.499" cy="14.062" rx="0.863" ry="1.036" transform="translate(-0.816 0.709) rotate(-3.409)"/><ellipse cx="16.05" cy="13.791" rx="0.863" ry="1.036" transform="translate(-0.792 0.979) rotate(-3.409)"/><path class="cls-5" d="M15.089,17.94a.294.294,0,0,1,.3.356,1.405,1.405,0,0,1-2.7.161.293.293,0,0,1,.257-.389Z"/></svg>