<?xml version="1.0" encoding="UTF-8"?><svg id="Layer_1" xmlns="http://www.w3.org/2000/svg" viewBox="0 0 40 40"><g><path d="m28.584,6.92l-3.823,3.932s-12.61-1.482-18.373,5.072c-5.763,6.554-2.739,14.19-1.312,15.9,1.426,1.71,4.964,4.217,11.982,4.559s11.583,0,11.583,0c0,0-1.084-1.14-3.195-1.197-2.111-.057-12.61.171-16.148-2.678-3.538-2.849-2.396-3.02-2.396-3.02h9.03c.369,0,.63-.375.484-.714-.242-.56-.653-1.14-1.625-1.355-.168-.037-.239-.234-.119-.357l1.671-1.709c1.289-1.024,3.199-.562,3.876.938l1.272,2.82c.151.334.483.548.849.548h1.902c.324,0,.52-.357.345-.63l-.336-.526c-.355-.555-.388-1.256-.086-1.842l3.515-6.826c1.409-2.736,3.596-4.995,6.287-6.493l1.055-.587c.014-.008.028-.016.042-.024,2.898-1.654,2.467-3.825-.791-4.549l-5.688-1.262Z" fill="#6b7683"/><ellipse cx="24.994" cy="8.169" rx="4.71" ry="4.704" fill="#6b7683"/><circle cx="31.604" cy="10.007" r="1.069"/></g><rect width="40" height="40" fill="none"/></svg>