<svg id="Layer_1" data-name="Layer 1" xmlns="http://www.w3.org/2000/svg" viewBox="0 0 40 40"><defs><style>.cls-1{fill:#c3846c;}.cls-2{fill:#523725;}.cls-3{fill:#5c2f17;}.cls-4{fill:none;}</style></defs><circle class="cls-1" cx="20" cy="23.113" r="13.372"/><ellipse class="cls-1" cx="7.796" cy="23.488" rx="5.353" ry="5.021"/><ellipse class="cls-1" cx="32.204" cy="23.488" rx="5.353" ry="5.021"/><path class="cls-2" d="M35.122,19.278A15.414,15.414,0,0,0,4.37,17.429,15.95,15.95,0,0,0,4.314,19.6s1.307-.311,2.47,2.213l8.821-9.87s10.708,8.6,17.776,8.13a1.629,1.629,0,0,0,.512-.14C34.364,19.665,34.76,19.173,35.122,19.278Z"/><ellipse cx="16.243" cy="22.466" rx="1.423" ry="1.708"/><ellipse cx="23.757" cy="22.466" rx="1.423" ry="1.708"/><path class="cls-3" d="M21.77,29.2a.483.483,0,0,1,.462.615,2.315,2.315,0,0,1-4.464,0,.483.483,0,0,1,.462-.615Z"/><rect class="cls-4" width="40" height="40"/></svg>