<?xml version="1.0" encoding="UTF-8"?><svg id="Layer_1" xmlns="http://www.w3.org/2000/svg" viewBox="0 0 40 40"><g><path d="m15.852,13.673h3.848c1.047,0,1.895-.848,1.895-1.895v-2.702l-5.743,4.598Z" fill="#ec6700"/><path d="m9.262,7.535c-2.152,1.164-3.125,2.214-3.743,4.031-1.511,4.444-2.967,15.534-3.018,19.893-.051,4.359,3.092,5.791,6.769,5.791s20.375.032,23.749.032c3.087,0,4.482-1.441,4.482-4.949,0-7.564-4.631-13.504-11.748-13.504s-13.418,7.785-13.418,7.785l.596-11.946c.028-.558.489-.997,1.047-.997h1.875l5.928-3.852c.943-.613,1.196-1.882.559-2.809l-2.251-3.279c-.578-.842-1.691-1.116-2.59-.633-2.36,1.269-6.701,3.604-8.237,4.435Z" fill="#ffb582"/></g><rect width="40" height="40" fill="none"/></svg>