<?xml version="1.0" encoding="UTF-8"?><svg id="Layer_1" xmlns="http://www.w3.org/2000/svg" viewBox="0 0 40 40"><g><path d="m30.671,17.927c.001-.115-.09-.201-.204-.211-2.179-.201-2.588-2.565-2.664-3.368-.013-.136-.151-.215-.283-.179-1.815.481-2.977-1.292-3.293-1.851-.054-.096-.171-.124-.273-.081-2.219.934-3.575-.449-3.989-.973-.079-.099-.22-.104-.316-.021-1.426,1.237-2.818.576-3.3.276-.103-.064-.231-.024-.294.08-1.03,1.678-2.774,1.976-3.355,2.029-.113.01-.19.109-.191.222-.007,2.28-1.676,2.781-2.239,2.885-.108.02-.175.118-.169.227.122,2.365-1.39,3.551-1.815,3.836-.069.046-.096.131-.083.213.143.872-.119,1.497-.54,1.948.463,6.413,5.803,11.475,12.337,11.475,6.839,0,12.383-5.541,12.383-12.376,0-.285-.024-.564-.043-.844-1.566-.492-1.677-2.62-1.67-3.287Z" fill="#c3846c"/><ellipse cx="16.34" cy="20.947" rx="1.386" ry="1.664"/><ellipse cx="23.66" cy="20.947" rx="1.386" ry="1.664"/><path d="m21.726,28.256c.311,0,.531.299.449.598-.262.955-1.137,1.657-2.175,1.657s-1.913-.702-2.175-1.657c-.082-.3.138-.598.449-.598h3.452Z" fill="#5c2f17"/><path d="m37,25.89s.9-1.89-.33-3.2c0,0,.85-2.02-.6-3.39,0,0,.74-1.92-.59-3,0,0,.55-2.81-1.78-3.84,0,0-.93-2.62-2.38-3.13,0,0-.6-1.66-2.25-1.79,0,0-.66-2.5-3.1-2.5,0,0-.6-1.21-3.57-.89-2.65-1.34-4.93,0-4.93,0-2.97-.32-3.57.89-3.57.89-2.44,0-3.1,2.5-3.1,2.5-1.65.13-2.25,1.79-2.25,1.79-1.45.51-2.38,3.13-2.38,3.13-1.58.51-1.78,3.84-1.78,3.84-1.06.89-.59,3-.59,3-1.19.71-.6,3.39-.6,3.39-.92.77-.33,3.2-.33,3.2-.66,2.11.73,4.48.73,4.48-.93,2.87,1.25,4.35,1.25,4.35.93,1.53,2.71,1.66,2.71,1.66l23.97.07c.7-.06,1.37-.22,2.01-.52.52-.25,1.14-.6,1.73-1.11,0,0,1.93-1.58,1-4.45,0,0,1.49-1.59.73-4.48Zm-17,8.54c-6.53,0-11.87-5.06-12.34-11.47.42-.45.69-1.08.54-1.95-.01-.08.02-.17.09-.21.42-.29,1.93-1.47,1.81-3.84-.01-.11.06-.21.17-.23.56-.1,2.23-.6,2.24-2.88,0-.11.08-.21.19-.22.58-.06,2.32-.35,3.35-2.03.07-.11.19-.15.3-.08.48.3,1.87.96,3.3-.28.09-.08.24-.08.31.02.42.53,1.78,1.91,3.99.98.1-.05.22-.02.28.08.31.56,1.47,2.33,3.29,1.85.13-.04.27.04.28.18.08.8.49,3.16,2.67,3.37.11.01.2.09.2.21-.01.66.1,2.79,1.67,3.28.02.28.04.56.04.85,0,6.83-5.54,12.37-12.38,12.37Z" fill="#523725"/></g><rect width="40" height="40" fill="none"/></svg>