<?xml version="1.0" encoding="UTF-8"?><svg id="Layer_1" xmlns="http://www.w3.org/2000/svg" viewBox="0 0 40 40"><g><rect x="29.36" y="8.632" width="7.996" height="1.903" transform="translate(7.203 32.399) rotate(-57.127)" fill="#ffcac6"/><rect x="25.915" y="7.151" width="7.996" height="1.903" transform="translate(15.988 35.788) rotate(-78.456)" fill="#ffcac6"/><circle cx="30.639" cy="4.721" r="1.441" fill="#333d4b"/><circle cx="35.176" cy="6.623" r="1.441" fill="#333d4b"/><path d="m16.683,36.994h8.66c6.027,0,10.913-4.886,10.913-10.913v-12.321c0-1.962-1.591-3.553-3.553-3.553h-2.626c-1.441,0-2.739.87-3.286,2.202l-10.106,24.585Z" fill="#ffcac6"/><path d="m16.874,12.459c-7.043-.324-12.855,5.29-12.855,12.261,0,.141.016.279.021.419h-.011v8.477c0,1.866,1.512,3.378,3.378,3.378h8.477v-.021c.137.005.271.021.409.021,6.971,0,12.585-5.811,12.261-12.854-.287-6.251-5.43-11.394-11.681-11.682Z" fill="#85add7"/><path d="m11.369,22.968c-4.026-.185-7.349,3.024-7.349,7.009,0,.081.009.159.012.24h-.006v4.846c0,1.067.865,1.931,1.931,1.931h4.846v-.012c.078.003.155.012.234.012,3.985,0,7.194-3.322,7.009-7.348-.164-3.573-3.104-6.514-6.678-6.678Z" fill="#7092b5"/></g><rect width="40" height="40" fill="none"/></svg>