<?xml version="1.0" encoding="UTF-8"?><svg id="Layer_1" xmlns="http://www.w3.org/2000/svg" viewBox="0 0 40 40"><g><path d="m18.621,23.438l-1.553,9.578c-.035.216.067.428.258.534.451.251,1.252.794,1.516,1.603.088.269-.135.543-.418.543h-2.567c-.187,0-.354-.115-.42-.289l-3.924-10.24,1.46-4.073,5.572.423.077,1.921Z" fill="#ff9000"/><path d="m23.732,24.877l-2.136,8.912c-.055.23.048.469.253.586l3.043,1.752c.254.146.576.064.727-.187.263-.44.472-1.253-.221-2.505-.077-.139-.11-.305-.076-.461l1.524-7.098-3.113-.999Z" fill="#ff9000"/><path d="m9.401,15.616s-2.644-1.688-3.207-4.219c-.563-2.532-4.67-3.263-4.67-3.263,0,0-.9,9.002,8.214,9.958,9.114.956-.338-2.475-.338-2.475Z" fill="#ffb72d"/><path d="m38.442,10.226l-2.929-.63c-.219-.047-.4-.189-.497-.391-.303-.638-1.214-2.058-3.411-2.359-.258-.035-.485-.198-.573-.443l-.811-2.242c-.167-.462-.814-.483-1.01-.033l-3.598,8.232c-.496,1.136-1.523,1.947-2.744,2.159-2.339.405-6.212.97-8.437.719-3.341-.376-6.849,1.127-6.347,5.345.346,2.908.592,4.725.711,5.572.05.356-.094.705-.378.926l-1.451,1.134c-.244.191-.386.483-.386.793v6.983c0,.115.093.208.208.208h2.98c.112,0,.204-.083.209-.194.021-.545-.058-2.076-1.56-2.52,0,0,.668-1.961,4.218-3.632,3.55-1.67,2.673-4.928,2.673-4.928l16.199,8.062c.391.163.644.547.639.97l-.014,1.164c-.005.464.36.847.823.865l1.872.07c.392.015.749-.236.853-.614.286-1.041.56-3.106-1.261-4.29-1.605-1.043-3.445-2.638-4.559-3.648-.623-.565-.834-1.45-.537-2.238l3.598-9.547c.08-.212.271-.357.497-.374,1.301-.097,5.629-.747,5.025-5.119Z" fill="#ffb72d"/><path d="m36.744,9.864l1.699.366c.074.537.06,1.006,0,1.437-.622-.366-1.317-.942-1.698-1.802Z"/><circle cx="32.877" cy="9.597" r=".82"/></g><rect width="40" height="40" fill="none"/></svg>