<svg id="Layer_1" data-name="Layer 1" xmlns="http://www.w3.org/2000/svg" viewBox="0 0 40 40"><defs><style>.cls-1{fill:none;}.cls-2{fill:#333d4b;}.cls-3{fill:#8b8bf4;}.cls-3,.cls-4{fill-rule:evenodd;}.cls-4{fill:#786de7;}</style></defs><rect class="cls-1" width="40" height="40"/><path class="cls-2" d="M6.909,32.151h6.465a0,0,0,0,1,0,0v2.183A1.667,1.667,0,0,1,11.707,36H8.575a1.667,1.667,0,0,1-1.667-1.667V32.151A0,0,0,0,1,6.909,32.151Z"/><path class="cls-2" d="M26.637,32.151H33.1a0,0,0,0,1,0,0v2.183A1.667,1.667,0,0,1,31.436,36H28.3a1.667,1.667,0,0,1-1.667-1.667V32.151A0,0,0,0,1,26.637,32.151Z"/><path class="cls-3" d="M32.073,25.283H7.936a1.028,1.028,0,0,1-1.027-1.029V10.693A6.693,6.693,0,0,1,13.6,4H26.41A6.694,6.694,0,0,1,33.1,10.693V24.254a1.029,1.029,0,0,1-1.029,1.029"/><path class="cls-4" d="M33.1,13.284c-.084,0-.159.018-.241.024s-.158-.024-.239-.024a3.155,3.155,0,0,0-3.156,3.154v6.98a.743.743,0,0,1-.744.745H11.285a.744.744,0,0,1-.744-.745v-6.98a3.155,3.155,0,0,0-3.155-3.154c-.083,0-.159.018-.241.024s-.158-.024-.24-.024H4.346a2.841,2.841,0,0,0-2.854,2.582c-.277,1.7.463,3.208,2.013,3.552a.874.874,0,0,1,.681.847l.044,2.99v7.178a1.727,1.727,0,0,0,1.727,1.726h28.1a1.727,1.727,0,0,0,1.728-1.726V23.255l.045-2.99a.872.872,0,0,1,.68-.847c1.551-.344,2.279-1.848,2-3.552a2.831,2.831,0,0,0-2.843-2.582Z"/></svg>