<svg id="Layer_1" data-name="Layer 1" xmlns="http://www.w3.org/2000/svg" viewBox="0 0 40 40"><defs><style>.cls-1{fill:#6e4944;}.cls-2{fill:#5c2f17;}.cls-3{fill:#333;}.cls-4{fill:none;}</style></defs><ellipse class="cls-1" cx="20" cy="21.863" rx="13.15" ry="15.122"/><ellipse class="cls-1" cx="9.048" cy="22.577" rx="5.264" ry="4.937"/><ellipse class="cls-1" cx="30.952" cy="22.577" rx="5.264" ry="4.937"/><ellipse cx="16.306" cy="21.572" rx="1.399" ry="1.679"/><ellipse cx="23.694" cy="21.572" rx="1.399" ry="1.679"/><path class="cls-2" d="M21.741,30.165a.475.475,0,0,1,.454.605,2.277,2.277,0,0,1-4.39,0,.475.475,0,0,1,.454-.605Z"/><path class="cls-3" d="M20,27.312a8.7,8.7,0,0,0-5.9,2.105,1.089,1.089,0,0,0,.74,1.886l4.112-.536a8.169,8.169,0,0,1,2.1,0l4.112.536a1.089,1.089,0,0,0,.74-1.886A8.7,8.7,0,0,0,20,27.312Z"/><path class="cls-3" d="M6.8,22.331a2.888,2.888,0,0,1-.44-1.808,4.288,4.288,0,0,1-1.1-4.868s-1.735-2.087.183-3.608c0,0-.548-2.912,2.191-3.477,0,0-.319-2.782,3.1-2.782a3.727,3.727,0,0,1,4.521-1.521,4.558,4.558,0,0,1,5.57-.565s2.6-1.217,4.247.522A2.847,2.847,0,0,1,28.69,6.093s3.378.217,3.607,2.651A2.837,2.837,0,0,1,34.58,12.4a3.263,3.263,0,0,1-.137,4.52s.913,2.217-.32,2.956a2.585,2.585,0,0,1-.472,2.669.319.319,0,0,1-.529-.14l-1.976-6.934a4.033,4.033,0,0,0-3.919-2.854H12.9a4.022,4.022,0,0,0-3.961,3.017L7.379,22.235A.316.316,0,0,1,6.8,22.331Z"/><rect class="cls-4" width="40" height="40"/></svg>