<svg id="Layer_1" data-name="Layer 1" xmlns="http://www.w3.org/2000/svg" viewBox="0 0 40 40"><defs><style>.cls-1{fill:#ffba5e;}.cls-2{fill:#6e4944;}.cls-3{fill:none;}</style></defs><ellipse class="cls-1" cx="11.181" cy="11.064" rx="8.114" ry="8.064"/><ellipse class="cls-1" cx="28.819" cy="11.064" rx="8.114" ry="8.064"/><path class="cls-1" d="M35.007,23.529,30.2,16.559a12.407,12.407,0,0,0-20.39,0l-4.812,6.97A7.731,7.731,0,0,0,9.047,35.287,31.592,31.592,0,0,0,20,37a31.592,31.592,0,0,0,10.953-1.713A7.731,7.731,0,0,0,35.007,23.529Z"/><ellipse cx="23.033" cy="26.07" rx="1.773" ry="1.762"/><ellipse cx="16.967" cy="26.07" rx="1.773" ry="1.762"/><path class="cls-2" d="M20.41,32.688l1.041-1.508a.608.608,0,0,0-.5-.953H18.66a.6.6,0,0,0-.5.948l1.044,1.513A.732.732,0,0,0,20.41,32.688Z"/><rect class="cls-3" width="40" height="40"/></svg>