<?xml version="1.0" encoding="UTF-8"?><svg id="Layer_1" xmlns="http://www.w3.org/2000/svg" viewBox="0 0 40 40"><g><path d="M9.38628,10.30862l-4.21688,4.61723c-.68104,.7457-.82339,1.83755-.3563,2.73293l1.52188,2.91735c.22063,.42294,.18587,.9338-.09001,1.32295l-2.183,3.07924c-.56669,.79935-.5915,1.86266-.06271,2.68757l1.3307,2.0759c.42055,.65605,.49698,1.47526,.20507,2.19779l-1.63238,4.04032h6.19341l-.70978-25.67129Z" style="fill:#6e4944;"/><path d="M23.35279,35.97996H7.74638S6.342,10.74311,12.17668,4.09809c.09966-.1135,.28109-.10005,.37303,.0198l3.86869,5.04317c.27001,.35198,.65914,.59336,1.09443,.67889l17.09741,3.74987c1.12747,.22154,1.89285,1.27567,1.75445,2.41633l-.21977,1.81132c-.81784,5.46322-.15629,7.32159-9.19498,7.32159l-5.80448,.00004,2.20733,10.84086Z" style="fill:#a96951;"/><circle cx="22.71504" cy="14.81799" r="1.70577"/></g><rect width="40" height="40" style="fill:none;"/></svg>