<svg id="Layer_1" data-name="Layer 1" xmlns="http://www.w3.org/2000/svg" viewBox="0 0 40 40"><defs><style>.cls-1{fill:#5268e9;}.cls-2{fill:#ffc84d;}.cls-3{fill:#f80;}.cls-4{fill:#5c2f17;}.cls-5{fill:#f56570;}.cls-6{fill:none;}</style></defs><path class="cls-1" d="M28.242,22.792a8.325,8.325,0,0,0-8.308-6.6,8.342,8.342,0,0,0-8.286,6.457v-.011l-2.783,13.5h22.27Z"/><ellipse class="cls-2" cx="19.934" cy="11.32" rx="5.391" ry="6.2"/><ellipse class="cls-2" cx="15.444" cy="11.613" rx="2.158" ry="2.024"/><ellipse class="cls-2" cx="24.425" cy="11.613" rx="2.158" ry="2.024"/><ellipse cx="18.419" cy="11.201" rx="0.574" ry="0.688"/><ellipse cx="21.449" cy="11.201" rx="0.574" ry="0.688"/><path class="cls-3" d="M25.255,11.071l.776-.7a9.257,9.257,0,0,0-.2-2.257,6.036,6.036,0,0,0-4.675-4.136A4.979,4.979,0,0,0,16.6,5.239c-3.133.774-2.753,5.145-2.753,5.145l.634.541a.5.5,0,0,0,.717-.062,19.822,19.822,0,0,0,2-4.534s.71,2.167,4.386,2.119c2.7-.034,3.2,1.6,3.27,2.466A.24.24,0,0,0,25.255,11.071Z"/><path class="cls-4" d="M20.648,14.724a.2.2,0,0,1,.186.248.934.934,0,0,1-1.8,0,.2.2,0,0,1,.186-.248Z"/><path class="cls-5" d="M14.578,36.139a5.422,5.422,0,1,1,10.844,0Z"/><path class="cls-3" d="M15.3,30.289l1.2-.9.794.562-.452,1.4a.447.447,0,0,1-.672.235l-.852-.563A.447.447,0,0,1,15.3,30.289Z"/><path class="cls-3" d="M24.785,30.289l-1.2-.9-.794.562.453,1.4a.447.447,0,0,0,.672.235l.851-.563A.448.448,0,0,0,24.785,30.289Z"/><circle class="cls-2" cx="20" cy="27.635" r="4.236"/><ellipse class="cls-2" cx="16.134" cy="27.754" rx="1.696" ry="1.591"/><ellipse class="cls-2" cx="23.866" cy="27.754" rx="1.696" ry="1.591"/><ellipse cx="18.81" cy="27.43" rx="0.451" ry="0.541"/><ellipse cx="21.19" cy="27.43" rx="0.451" ry="0.541"/><path class="cls-4" d="M20.561,29.563a.153.153,0,0,1,.146.2.734.734,0,0,1-1.414,0,.153.153,0,0,1,.146-.2Z"/><path class="cls-3" d="M21.2,21.6a4.936,4.936,0,0,1,3.593,4.818c-.115-.034-.24.122-.39.206a.61.61,0,0,1-.162.045c-2.842.315-4.223-3.165-4.223-3.165-.824,1.662-4.2,3.716-4.2,3.716-.368-.8-.782-.7-.782-.7a4.951,4.951,0,0,1,.018-.687,4.9,4.9,0,0,1,3.028-4.054,2.808,2.808,0,0,1,1.432-.169l.218.029a.845.845,0,0,0,.256,0l.428-.071A1.833,1.833,0,0,1,21.2,21.6Z"/><rect class="cls-6" width="40" height="40"/></svg>