<svg id="Layer_1" data-name="Layer 1" xmlns="http://www.w3.org/2000/svg" viewBox="0 0 40 40"><defs><style>.cls-1{fill:#ffc33a;}.cls-2{fill:#e5e8eb;}.cls-3{fill:#ffa300;}.cls-4{fill:#3182f6;}.cls-5{fill:#1e6ef4;}.cls-6{fill:#23b169;}.cls-7{fill:#03905a;}.cls-8{fill:none;}</style></defs><path class="cls-1" d="M7.571,24.84H23.559a0,0,0,0,1,0,0V34.982a0,0,0,0,1,0,0H7.571A5.071,5.071,0,0,1,2.5,29.911v0A5.071,5.071,0,0,1,7.571,24.84Z"/><path class="cls-2" d="M37.5,33.026H23.842a3.178,3.178,0,0,1-3.158-2.487,3.106,3.106,0,0,1,3.043-3.717H37.5Z"/><path class="cls-3" d="M37.5,26.822H23.727a3.106,3.106,0,0,0-3.043,3.717,3.178,3.178,0,0,0,3.158,2.487H37.5a1.956,1.956,0,0,1-1.956,1.956H23.559a4.891,4.891,0,0,1-4.89-4.89h0A5.251,5.251,0,0,1,23.92,24.84h11.6A1.982,1.982,0,0,1,37.5,26.822Z"/><path class="cls-4" d="M7.571,14.929H23.559a0,0,0,0,1,0,0V25.071a0,0,0,0,1,0,0H7.571A5.071,5.071,0,0,1,2.5,20v0a5.071,5.071,0,0,1,5.071-5.071Z"/><path class="cls-2" d="M37.5,23.115H23.842a3.179,3.179,0,0,1-3.158-2.488,3.105,3.105,0,0,1,3.043-3.716H37.5Z"/><path class="cls-5" d="M37.5,16.911H23.727a3.106,3.106,0,0,0-3.043,3.717,3.178,3.178,0,0,0,3.158,2.487H37.5a1.956,1.956,0,0,1-1.956,1.956H23.559a4.891,4.891,0,0,1-4.89-4.89h0a5.251,5.251,0,0,1,5.251-5.252h11.6A1.982,1.982,0,0,1,37.5,16.911Z"/><path class="cls-6" d="M7.571,5.018H23.559a0,0,0,0,1,0,0V15.16a0,0,0,0,1,0,0H7.571A5.071,5.071,0,0,1,2.5,10.089v0A5.071,5.071,0,0,1,7.571,5.018Z"/><path class="cls-2" d="M37.5,13.2H23.842a3.179,3.179,0,0,1-3.158-2.488A3.105,3.105,0,0,1,23.727,7H37.5Z"/><path class="cls-7" d="M37.5,7H23.727a3.106,3.106,0,0,0-3.043,3.717A3.179,3.179,0,0,0,23.842,13.2H37.5a1.956,1.956,0,0,1-1.956,1.956H23.559a4.891,4.891,0,0,1-4.89-4.891h0A5.251,5.251,0,0,1,23.92,5.018h11.6A1.982,1.982,0,0,1,37.5,7Z"/><rect class="cls-8" width="40" height="40"/></svg>