<svg id="Layer_1" data-name="Layer 1" xmlns="http://www.w3.org/2000/svg" viewBox="0 0 40 40"><defs><style>.cls-1{fill:#ffdb87;}.cls-2{fill:#ffb582;}.cls-3{fill:#5c2f17;}.cls-4{fill:none;}</style></defs><path class="cls-1" d="M4.674,27.227,6.2,33.343A2.541,2.541,0,0,0,8.662,35.27H31.274a2.541,2.541,0,0,0,2.51-2.145l.931-5.9Z"/><circle class="cls-2" cx="20" cy="23.116" r="13.384"/><ellipse class="cls-2" cx="7.785" cy="23.491" rx="5.358" ry="5.025"/><ellipse class="cls-2" cx="32.215" cy="23.491" rx="5.358" ry="5.025"/><path class="cls-1" d="M35.136,19.278a15.428,15.428,0,0,0-30.78-1.851A15.815,15.815,0,0,0,4.3,19.6s1.308-.312,2.472,2.215l8.829-9.88s10.718,8.608,17.792,8.139a1.658,1.658,0,0,0,.513-.141C34.378,19.665,34.774,19.172,35.136,19.278Z"/><ellipse cx="16.24" cy="22.468" rx="1.424" ry="1.709"/><ellipse cx="23.76" cy="22.468" rx="1.424" ry="1.709"/><path class="cls-3" d="M21.772,29.207a.484.484,0,0,1,.462.616,2.318,2.318,0,0,1-4.468,0,.484.484,0,0,1,.462-.616Z"/><rect class="cls-4" width="40" height="40"/></svg>