<?xml version="1.0" encoding="UTF-8"?><svg id="Layer_1" xmlns="http://www.w3.org/2000/svg" viewBox="0 0 40 40"><g><path d="m8.908,22.928s-.75-8.264,1.852-13.763H3.623s-.003,17.925-.003,17.925h11.015s1.468-.557,1.468-.557c.535-.203,1.083-.354,1.637-.469v-.643c-8.277-.351-8.832-2.494-8.832-2.494Z" fill="#109494"/><path d="m31.531,22.201c-.015.651-.365,1.248-.922,1.586-1.08.657-3.434,1.476-8.48,1.649v.634c.545.114,1.085.263,1.612.463l1.471.559h11.165s.002-17.925.002-17.925h-6.509c.041.099.086.199.123.299.839,2.286,1.668,7.127,1.537,12.735Z" fill="#109494"/><path d="m14.635,27.091H3.62s.003-17.926.003-17.926h7.137c.173-.364.363-.714.566-1.051H3.623c-.581,0-1.054.473-1.054,1.054v17.922c0,.581.473,1.054,1.054,1.054h8.243c.008-.003.015-.007.022-.01l2.747-1.043Z" fill="#fb0"/><path d="m36.377,8.114h-7.02c.199.351.37.703.514,1.053h6.509s-.002,17.926-.002,17.926h-11.165s2.744,1.041,2.744,1.041c.008.003.015.007.022.01h8.398c.581,0,1.054-.473,1.054-1.054V9.167c0-.581-.473-1.054-1.054-1.054Z" fill="#fb0"/></g><g><g><path d="m25.213,27.092l-1.471-.559c-.527-.2-1.067-.348-1.612-.463v.557h0v10.872h11.549c.341,0,.591-.32.51-.651l-.539-2.189c-.21-.852-.486-1.693-.923-2.454-1.06-1.847-2.731-3.289-4.75-4.062-.008-.003-.015-.007-.022-.01l-2.744-1.042Z" fill="#5a81ff"/><path d="m17.737,26.628h.003v-.563c-.554.115-1.102.265-1.637.469l-1.468.558-2.747,1.043c-.008.003-.015.007-.022.01-2.018.773-3.69,2.215-4.75,4.062-.437.761-.713,1.602-.923,2.454l-.539,2.189c-.081.331.169.651.51.651h11.572v-10.872Z" fill="#5a81ff"/></g><path d="m22.131,26.628h0v.322c0,1.22-.98,2.2-2.2,2.2-1.21,0-2.19-.98-2.19-2.2v-.322h-.003v10.872h4.393v-10.872Z" fill="#fff"/></g><g><path d="m10.76,9.165c-2.602,5.499-1.852,13.763-1.852,13.763,0,0,.555,2.143,8.832,2.494v-1.172c-3.19-.9-5.64-3.64-6.23-7.05-.17-.96.06-1.95.65-2.73.4-.53.76-.8.76-.8,2.13-1.88,2.79-4.47,2.98-5.49.03-.16.24-.22.35-.09.81.93,3.34,3.47,7.22,4.04,3.7.55,5.43,2.98,4.94,5.81-.82,3.13-3.23,5.58-6.28,6.37v1.127c5.045-.173,7.399-.992,8.48-1.649.557-.338.906-.935.922-1.586.131-5.609-.699-10.449-1.537-12.735-.036-.099-.082-.199-.123-.299-.144-.35-.315-.702-.514-1.053-1.497-2.643-4.492-5.174-8.252-5.564-4.401-.457-6.374,2.401-6.374,2.401-1.464.641-2.568,1.774-3.406,3.163-.203.337-.394.687-.566,1.051Z" fill="#333"/><g><path d="m25.35,15.48c0-1.19-.96-2.15-2.15-2.15s-2.16.96-2.16,2.15.97,2.15,2.16,2.15,2.15-.96,2.15-2.15Zm-3.687.026c0-.646.437-1.17.975-1.17s.975.524.975,1.17-.436,1.17-.975,1.17-.975-.524-.975-1.17Z" fill="#956759"/><path d="m16.76,13.33c-1.19,0-2.15.96-2.15,2.15s.96,2.15,2.15,2.15,2.15-.96,2.15-2.15-.96-2.15-2.15-2.15Zm.432,3.346c-.538,0-.975-.524-.975-1.17s.436-1.17.975-1.17.975.524.975,1.17-.437,1.17-.975,1.17Z" fill="#956759"/><path d="m22.13,24.31c3.05-.79,5.46-3.24,6.28-6.37.49-2.83-1.24-5.26-4.94-5.81-3.88-.57-6.41-3.11-7.22-4.04-.11-.13-.32-.07-.35.09-.19,1.02-.85,3.61-2.98,5.49,0,0-.36.27-.76.8-.59.78-.82,1.77-.65,2.73.59,3.41,3.04,6.15,6.23,7.05v2.7c0,1.22.98,2.2,2.19,2.2,1.22,0,2.2-.98,2.2-2.2v-2.64Zm-3.359-3.856h2.402c.216,0,.37.208.312.416-.182.665-.791,1.153-1.513,1.153s-1.331-.488-1.513-1.153c-.057-.209.096-.416.312-.416Zm1.75-4.974v-.09c.01-.01,0-.01,0-.01-.09-.22-.3-.37-.55-.37-.24,0-.44.14-.53.34v.13c0,1.48-1.2,2.68-2.68,2.68s-2.68-1.2-2.68-2.68,1.2-2.68,2.68-2.68c1.25,0,2.29.85,2.59,2,.17-.13.39-.21.62-.21.24,0,.46.08.63.23.3-1.16,1.35-2.02,2.6-2.02,1.48,0,2.68,1.2,2.68,2.68s-1.2,2.68-2.68,2.68-2.68-1.2-2.68-2.68Z" fill="#956759"/></g><path d="m19.971,22.023c.723,0,1.331-.488,1.513-1.153.057-.209-.096-.416-.312-.416h-2.402c-.216,0-.37.208-.312.416.182.665.791,1.153,1.513,1.153Z" fill="#5c2f17"/><path d="m17.192,14.336c-.538,0-.975.524-.975,1.17s.436,1.17.975,1.17.975-.524.975-1.17-.437-1.17-.975-1.17Z"/><path d="m23.612,15.506c0-.646-.436-1.17-.975-1.17s-.975.524-.975,1.17.437,1.17.975,1.17.975-.524.975-1.17Z"/></g><path d="m25.88,15.48c0-1.48-1.2-2.68-2.68-2.68-1.25,0-2.3.86-2.6,2.02-.17-.15-.39-.23-.63-.23-.23,0-.45.08-.62.21-.3-1.15-1.34-2-2.59-2-1.48,0-2.68,1.2-2.68,2.68s1.2,2.68,2.68,2.68,2.68-1.2,2.68-2.68v-.13c.09-.2.29-.34.53-.34.25,0,.46.15.55.37,0,0,.01,0,0,.01v.09c0,1.48,1.2,2.68,2.68,2.68s2.68-1.2,2.68-2.68Zm-9.12,2.15c-1.19,0-2.15-.96-2.15-2.15s.96-2.15,2.15-2.15,2.15.96,2.15,2.15-.96,2.15-2.15,2.15Zm4.28-2.15c0-1.19.97-2.15,2.16-2.15s2.15.96,2.15,2.15-.96,2.15-2.15,2.15-2.16-.96-2.16-2.15Z" fill="#363636"/><g><path d="m12.569,31.843c-.357,0-.646.29-.646.646s.29.647.646.647h15.774v-1.293h-15.774Z" fill="#fff"/><path d="m12.57,33.14h15.77v4.36H11.17v-5.01c0-.77.63-1.4,1.4-1.4h15.15s.62.09.62.75h-15.77c-.36,0-.65.29-.65.65s.29.65.65.65Z" fill="#ff2a00"/></g><rect width="40" height="40" fill="none"/></svg>