<svg id="Layer_1" data-name="Layer 1" xmlns="http://www.w3.org/2000/svg" viewBox="0 0 40 40"><defs><style>.cls-1{fill:#7d9dff;}.cls-2{fill:#466cfb;}.cls-3{fill:#ccd7ff;}.cls-4{fill:none;}</style></defs><path class="cls-1" d="M10.8,6.972H29.2a7.8,7.8,0,0,1,7.8,7.8V29.016a5.274,5.274,0,0,1-5.274,5.274H8.274A5.274,5.274,0,0,1,3,29.016V14.775a7.8,7.8,0,0,1,7.8-7.8Z"/><path class="cls-2" d="M28.7,5.71H29.73a.992.992,0,0,1,.992.992v1.74a0,0,0,0,1,0,0H27.707a0,0,0,0,1,0,0V6.7A.992.992,0,0,1,28.7,5.71Z"/><path class="cls-3" d="M30.217,15.885H28.211a.946.946,0,0,1-.944-1.011l.44-6.432h3.015l.439,6.432A.946.946,0,0,1,30.217,15.885Z"/><path class="cls-2" d="M8.274,33.985H31.726A5.275,5.275,0,0,0,37,28.71V22.047H3V28.71A5.275,5.275,0,0,0,8.274,33.985Z"/><rect class="cls-4" width="40" height="40"/></svg>