<?xml version="1.0" encoding="UTF-8"?><svg id="Layer_1" xmlns="http://www.w3.org/2000/svg" viewBox="0 0 40 40"><g><path d="m32.24,5.809c-.822-.876-1.619,1.158-2.268,1.694-.082.068-.183.098-.286.108l2.374.984c.693-.705.96-1.954.18-2.786Z" fill="#949494"/><path d="m3.385,32.737c.959.071,1.066,1.67,1.066,1.67H1.5l.002-5.969s-.071-2.132.711-3.411c.782-1.279.099-3.186.099-3.186,0,0-1.336-6.795-.283-9.143,1.053-2.348,3.765-2.307,6.679-2.186,2.929.122,13.616,1.879,20.211-1.917-.693-.705-.96-1.954-.18-2.786.822-.876,1.619,1.158,2.268,1.694.127.105.295.146.455.109.676-.157,2.227-.453,3.114.794.383.539.922,1.667,1.396,2.367.452.666,1.866,2.343,2.423,2.997.135.159.141.387.018.556l-1.315,1.801c-.139.191-.366.293-.6.263-.366-.047-.964-.167-1.664-.471-.631-.273-1.357-.303-1.999-.057-.689.264-1.624.446-2.396-.038-.113-.071-.26-.019-.282.113l-.658,3.924c-.382,2.28-1.765,4.302-3.814,5.373-.538.281-.909.396-.909.396,0,0,.284,2.274.32,3.375.036,1.102.284,3.411,1.066,3.66.782.249.888,1.741.888,1.741h-3.127c-.036-3.411-1.421-5.543-1.421-5.543-.64.746-.64,3.979-.64,3.979,1.137.284.888,1.563.888,1.563h-2.985c.604-2.558,0-8.598,0-8.598-2.699.232-4.401.088-4.401.088-.428.788-.957,1.182-1.536,1.631l.453.721c.162.259.084.6-.175.763s-.6.084-.763-.175l-.455-.725c-.379.189-.763.333-1.143.438l.133.919c.044.302-.166.583-.468.627s-.583-.166-.627-.468l-.125-.861c-1.394.172-2.495-.056-2.495-.056,0,0,.148,3.448.765,3.813.959.569.64,1.883.64,1.883h-2.771s-1.528-7.959-1.528-7.959c0,0-2.842,6.218-1.883,6.289Z" fill="#e7e7e7"/><circle cx="33.894" cy="10.774" r=".726"/><path d="m13.015,15.158c-1.234-1.459-4.362-3.172-6.397-4.69.67-.014,1.373.01,2.089.04,2.415.1,10.102,1.305,16.423-.401-.222,1.269-.916,2.95-2.64,5.052-4.309,5.253-7.581,2.239-9.475,0Z" fill="#595959"/><path d="m6.62,16.742c.55,1.266-.864,3.101-3.16,4.1-.423.184-.842.313-1.254.415-.172-.989-.498-3.094-.566-5.063,2.237-.914,4.444-.686,4.981.549Z" fill="#595959"/><path d="m15.363,25.893c-.428.788-.957,1.182-1.536,1.631l.453.721c.162.259.084.6-.175.763s-.6.084-.763-.175l-.455-.725c-.379.189-.763.333-1.143.438l.133.919c.044.302-.166.583-.468.627s-.583-.166-.627-.468l-.125-.861c-1.394.172-2.495-.056-2.495-.056l-.423-3.22c1.419.605,7.623.406,7.623.406Z" fill="#ffbfc2"/><path d="m26.633,17.078c1.155.518,1.551,2.144.884,3.631-.667,1.487-2.144,2.273-3.299,1.754-1.155-.518-1.551-2.144-.883-3.631s2.144-2.273,3.299-1.754Z" fill="#595959"/></g><rect width="40" height="40" fill="none"/></svg>