<?xml version="1.0" encoding="UTF-8"?><svg id="Layer_1" xmlns="http://www.w3.org/2000/svg" viewBox="0 0 40 40"><rect width="40" height="40" fill="none"/><g><g><ellipse cx="10.264" cy="10.431" rx="8.917" ry="8.967" fill="#6b7683"/><ellipse cx="10.264" cy="10.431" rx="5.707" ry="5.739" fill="#fa878f"/></g><g><ellipse cx="29.743" cy="10.431" rx="8.917" ry="8.967" fill="#6b7683"/><ellipse cx="29.743" cy="10.431" rx="5.707" ry="5.739" fill="#fa878f"/></g><path d="m14.817,34.199l-5.261-5.29c-4.816-4.843-4.816-12.666,0-17.508h0c5.66-5.691,14.869-5.691,20.528,0h0c4.816,4.843,4.816,12.666,0,17.508l-5.261,5.29c-2.759,2.774-7.248,2.774-10.007,0Z" fill="#6b7683"/><ellipse cx="23.095" cy="25.256" rx="1.67" ry="1.66"/><ellipse cx="16.893" cy="25.256" rx="1.67" ry="1.66"/><path d="m20.928,32.526l.978-1.416c.324-.469-.012-1.108-.581-1.108h-2.664c-.567,0-.9.636-.578,1.102l.982,1.422c.45.652,1.414.652,1.864,0Z" fill="#fa878f"/></g></svg>