<svg id="Layer_1" data-name="Layer 1" xmlns="http://www.w3.org/2000/svg" viewBox="0 0 40 40"><defs><style>.cls-1{fill:#333;}.cls-2{fill:#956759;}.cls-3{fill:#5c2f17;}.cls-4{fill:#e6e6e6;}.cls-5{fill:#c4c4c4;}.cls-6{fill:#4c6db5;}.cls-7{fill:#807057;}.cls-8{fill:none;}</style></defs><path class="cls-1" d="M8.687,24.4S7.464,10.959,13.965,8.11a6.218,6.218,0,0,1,5.776-2.176,9.245,9.245,0,0,1,7.517,6.256A32.741,32.741,0,0,1,29.19,23.744a1.732,1.732,0,0,1-.836,1.437c-1.1.669-3.65,1.526-9.493,1.526C9.277,26.707,8.687,24.4,8.687,24.4Z"/><path class="cls-2" d="M21.882,14.619a11.133,11.133,0,0,1-6.54-3.666.181.181,0,0,0-.315.084,8.973,8.973,0,0,1-2.707,4.971,4.008,4.008,0,0,0-.686.726,3.211,3.211,0,0,0-.591,2.477,7.935,7.935,0,0,0,7.73,6.68,7.908,7.908,0,0,0,7.585-6.006C26.807,17.315,25.233,15.112,21.882,14.619Z"/><ellipse cx="16.406" cy="17.551" rx="0.874" ry="1.049"/><ellipse cx="21.021" cy="17.551" rx="0.874" ry="1.049"/><path class="cls-3" d="M19.8,22.16a.3.3,0,0,1,.283.377,1.423,1.423,0,0,1-2.743,0,.3.3,0,0,1,.283-.377Z"/><path class="cls-4" d="M31.09,9.056a3.1,3.1,0,0,0-3.1-3.1c-.073,0-.141.016-.213.021a4.427,4.427,0,0,0-3.74-1.907,4.877,4.877,0,0,0-1.423.224,4.319,4.319,0,0,0-7.208.3,4.785,4.785,0,0,0-2.183-.529,4.431,4.431,0,0,0-3.734,1.9c-.036,0-.07-.011-.106-.011a3.093,3.093,0,0,0-.332,6.169v2.841a.067.067,0,0,0,.089.066,31.758,31.758,0,0,1,9.519-1.322,31.765,31.765,0,0,1,9.52,1.322.068.068,0,0,0,.089-.066V12.13A3.092,3.092,0,0,0,31.09,9.056Z"/><path class="cls-5" d="M9.05,14.965a.067.067,0,0,0,.089.066,31.758,31.758,0,0,1,9.519-1.322,31.765,31.765,0,0,1,9.52,1.322.068.068,0,0,0,.089-.066V12.148A31.625,31.625,0,0,0,18.658,10.8,31.623,31.623,0,0,0,9.05,12.148Z"/><path class="cls-5" d="M26.123,29.013,22.3,27.562a9.738,9.738,0,0,0-6.923,0l-3.819,1.451a8.1,8.1,0,0,0-5.187,6.209l-.353,1.706a.475.475,0,0,0,.466.572H31.31a.476.476,0,0,0,.462-.59l-.488-1.984a8.579,8.579,0,0,0-.836-2.224A8.442,8.442,0,0,0,26.123,29.013Z"/><path class="cls-2" d="M16.862,24.973h3.981a0,0,0,0,1,0,0v3.779a1.991,1.991,0,0,1-1.991,1.991h0a1.991,1.991,0,0,1-1.991-1.991V24.973A0,0,0,0,1,16.862,24.973Z"/><path class="cls-6" d="M18.853,29.144a2.44,2.44,0,0,1-1.991-1.032v.64a1.991,1.991,0,1,0,3.982,0v-.639A2.442,2.442,0,0,1,18.853,29.144Z"/><circle class="cls-6" cx="15.828" cy="32.213" r="0.682"/><circle class="cls-6" cx="22.059" cy="32.213" r="0.682"/><circle class="cls-6" cx="15.828" cy="36.122" r="0.682"/><circle class="cls-6" cx="22.059" cy="36.122" r="0.682"/><path class="cls-7" d="M32.586,22.68c-1.355-.706-3.168-.12-4.252,1.959a5.275,5.275,0,0,0-.244,3.88,2.351,2.351,0,0,1-.228,1.823l-.269.462-3.909,6.7h2.433L28.9,31.483l.283-.612a2.563,2.563,0,0,1,1.394-1.233,5.4,5.4,0,0,0,2.844-2.346C34.5,25.212,33.942,23.386,32.586,22.68Z"/><rect class="cls-8" width="40" height="40"/></svg>