<?xml version="1.0" encoding="UTF-8"?><svg id="Layer_1" xmlns="http://www.w3.org/2000/svg" viewBox="0 0 40 40"><g><path d="M36.5723,7.71416l-.99526,2.03614c-.29033,.59398-1.07435,.73433-1.55271,.27796h0c-.46462-.44327-.38281-1.20651,.1652-1.54123l1.93413-1.18133c.26966-.1647,.5874,.12459,.44864,.40847Z" style="fill:#d0d5da;"/><path d="M3.37628,32.52131c.95498,.07081,1.06113,1.66237,1.06113,1.66237H1.50006l.00161-5.94204s-.07068-2.12213,.7074-3.39543c.77814-1.2733,.09839-3.1717,.09839-3.1717,0,0-1.32983-6.76453-.28211-9.10194,1.04777-2.33716,3.74773-2.29691,6.64913-2.17592,2.91549,.12124,12.58104,.95591,20.11912-1.90809l1.922-.74262c1.03429-.33864,2.59176-.50063,3.47394,.74112,.38125,.5364,1.15262,1.47343,1.62529,2.1702,.28075,.41392,1.15684,1.39368,1.74386,2.09953,.39368-.0451,.51048,.11485,.77663,.38106,.30603,.30597,.1282,.57565-.07136,.89789-.0821,.12997-1.32856,1.95175-1.32856,1.95175-.13863,.18982-.36385,.29193-.59696,.26162-.36435-.04721-.95926-.16671-1.65654-.46858-.62851-.27205-1.35082-.30187-1.99027-.05665-.68584,.26311-1.61703,.44448-2.3853-.03764-.1128-.07068-.25932-.01876-.28137,.11255l-.65454,3.906c-.38044,2.27008-1.75747,4.28202-3.79711,5.34874-.53535,.28-.90442,.39392-.90442,.39392,0,0,.28292,2.26362,.31833,3.36003,.03534,1.09653,.28292,3.39556,1.06106,3.64314s.88423,1.73306,.88423,1.73306h-3.11251c-.03534-3.39543-1.41479-5.51756-1.41479-5.51756-.63665,.74274-.63665,3.9614-.63665,3.9614,1.13181,.28286,.88423,1.55616,.88423,1.55616h-2.97102c.47516-2.01256,.19932-6.18987,.06273-7.85348-.02975-.36224-.39118-.59379-.73864-.48721-4.74669,1.45691-7.64087,.66982-8.57827,.31354-.21019-.08-.44143-.00994-.58007,.16721l-.77883,.99454c-.63013,.80498-.92063,1.82523-.79963,2.84027,.11168,.93665,.30491,1.96101,.62491,2.15058,.95498,.56597,.63665,1.87455,.63665,1.87455h-2.75884l-1.52088-7.9228s-2.82959,6.18974-1.87461,6.26043Z" style="fill:#afb7c0;"/><path d="M30.80869,9.72602c-.05569,.89457-.43934,3.34883-2.91507,4.87193-.15865,.09761-.37242,.03251-.45004-.13682-.37409-.81604-1.09051-3.07973,1.55391-4.58875l.16737-.06734,1.32673-.3367c.16741-.04249,.32783,.0853,.3171,.25769Z" style="fill:#8a94a0;"/><path d="M33.95988,6.19168l-.22267,2.45218c-.06496,.71534-.8066,1.16115-1.46881,.8829h0c-.64319-.27026-.85541-1.07677-.42855-1.6286l1.50653-1.94759c.21004-.27153,.64454-.10077,.6135,.24112Z" style="fill:#d0d5da;"/><circle cx="34.11387" cy="10.37418" r=".58627"/></g><rect width="40" height="40" style="fill:none;"/></svg>