<svg id="Layer_1" data-name="Layer 1" xmlns="http://www.w3.org/2000/svg" viewBox="0 0 40 40"><defs><style>.cls-1{fill:#956759;}.cls-2{fill:#5c2f17;}.cls-3{fill:#d9d9d9;}.cls-4{fill:none;}</style></defs><ellipse class="cls-1" cx="20" cy="20.572" rx="14.033" ry="16.137"/><ellipse class="cls-1" cx="8.312" cy="21.334" rx="5.618" ry="5.269"/><ellipse class="cls-1" cx="31.688" cy="21.334" rx="5.618" ry="5.269"/><path class="cls-2" d="M21.858,29.431a.508.508,0,0,1,.485.646,2.431,2.431,0,0,1-4.686,0,.508.508,0,0,1,.485-.646Z"/><path class="cls-3" d="M20,26.387a9.283,9.283,0,0,0-6.3,2.246,1.162,1.162,0,0,0,.789,2.013l4.389-.572a8.716,8.716,0,0,1,2.236,0l4.389.572a1.162,1.162,0,0,0,.789-2.013A9.283,9.283,0,0,0,20,26.387Z"/><ellipse class="cls-1" cx="20" cy="11.325" rx="12.153" ry="8.034"/><path class="cls-3" d="M6.391,20.953a.313.313,0,0,1-.583-.013L4.519,17.455s-1.212-3.368-.257-6.122A4.545,4.545,0,0,1,7.5,8.457q.27-.067.591-.129a.871.871,0,0,1,1.044.848v4.642a1.563,1.563,0,0,1-.391,1.034l-.823.936a4.987,4.987,0,0,0-1.2,2.644Z"/><path class="cls-3" d="M33.242,20.953a.314.314,0,0,0,.584-.013l1.289-3.485s1.211-3.368.256-6.122a4.544,4.544,0,0,0-3.238-2.876q-.272-.067-.591-.129a.871.871,0,0,0-1.044.848v4.642a1.563,1.563,0,0,0,.391,1.034l.823.936a4.987,4.987,0,0,1,1.2,2.644Z"/><ellipse cx="16.058" cy="20.261" rx="1.493" ry="1.792"/><ellipse cx="23.942" cy="20.261" rx="1.493" ry="1.792"/><rect class="cls-4" width="40" height="40"/></svg>