<?xml version="1.0" encoding="UTF-8"?><svg id="Layer_1" xmlns="http://www.w3.org/2000/svg" viewBox="0 0 40 40"><path d="M38.00818,10.70288c-.20972-3.65295-3.22968-6.55286-6.93518-6.55286-2.85004,0-5.29352,1.71667-6.36664,4.17078-.28131,.64331-.89612,1.07446-1.59827,1.0708l-6.17041-.03125c-.69293-.00342-1.29816-.42969-1.57727-1.06396-1.08063-2.45532-3.57654-4.14636-6.43341-4.14636-3.70551,0-6.72546,2.8999-6.93518,6.55286h-.02032v9.78101c0,8.48645,6.87958,15.36597,15.36597,15.36597h5.32507c8.48639,0,15.36597-6.87952,15.36597-15.36597V10.70288h-.02032ZM13.22284,18.9939c-1.01807,0-1.84332-.8252-1.84332-1.84326s.82526-1.84338,1.84332-1.84338c1.01801,0,1.84332,.82532,1.84332,1.84338s-.82532,1.84326-1.84332,1.84326Zm10.80328,9.27856c-.76617-1.45166-2.27332-2.45459-4.026-2.45459-1.76862,0-3.28821,1.02063-4.04736,2.49377-.73914-1.12927-.38373-2.8667-.38373-4.8197,0-3.40381,.87805-6.16309,4.44647-6.16309,3.58289,0,4.44647,2.75928,4.44647,6.16309,0,1.92944,.28723,3.65039-.43585,4.78052Zm2.75104-9.27856c-1.01801,0-1.84332-.8252-1.84332-1.84326s.82532-1.84338,1.84332-1.84338c1.01807,0,1.84332,.82532,1.84332,1.84338s-.82526,1.84326-1.84332,1.84326Z" style="fill:#ac8074;"/><path d="M20.0155,17.32886c-3.56842,0-4.44647,2.75928-4.44647,6.16309,0,1.953-.35541,3.69043,.38373,4.8197,.75916-1.47314,2.27875-2.49377,4.04736-2.49377,1.75269,0,3.25983,1.00293,4.026,2.45459,.72308-1.13013,.43585-2.85107,.43585-4.78052,0-3.40381-.86359-6.16309-4.44647-6.16309Zm3.43677,5.55237c-.62524,1.16907-1.94189,1.97449-3.4649,1.97449-1.47296,0-2.75287-.75342-3.40106-1.86035-.41089-.70166,.00549-1.65063,.73773-1.65063h5.33429c.68115,0,1.15259,.86609,.79395,1.5365Z" style="fill:#fff;"/><g><path d="M13.22284,15.30725c-1.01807,0-1.84332,.82532-1.84332,1.84338s.82526,1.84326,1.84332,1.84326c1.01801,0,1.84332-.8252,1.84332-1.84326s-.82532-1.84338-1.84332-1.84338Z"/><path d="M26.77716,15.30725c-1.01801,0-1.84332,.82532-1.84332,1.84338s.82532,1.84326,1.84332,1.84326c1.01807,0,1.84332-.8252,1.84332-1.84326s-.82526-1.84338-1.84332-1.84338Z"/><path d="M22.65833,21.34473h-5.33429c-.73224,0-1.14862,.94897-.73773,1.65063,.64819,1.10693,1.9281,1.86035,3.40106,1.86035,1.52301,0,2.83966-.80542,3.4649-1.97449,.35864-.67041-.11279-1.5365-.79395-1.5365Z"/></g><rect width="40" height="40" style="fill:none;"/></svg>