<?xml version="1.0" encoding="UTF-8"?><svg id="Layer_1" xmlns="http://www.w3.org/2000/svg" viewBox="0 0 40 40"><g><rect x="29.36019" y="8.63177" width="7.99593" height="1.903" transform="translate(7.20342 32.39852) rotate(-57.1273)" style="fill:#ffcac6;"/><rect x="25.91474" y="7.15068" width="7.99601" height="1.90261" transform="translate(15.98848 35.78826) rotate(-78.45596)" style="fill:#ffcac6;"/><circle cx="30.6394" cy="4.7208" r="1.44144" style="fill:#333d4b;"/><circle cx="35.17568" cy="6.62327" r="1.44144" style="fill:#333d4b;"/><path d="M16.68293,36.99436h8.65975c6.02692,0,10.9127-4.88578,10.9127-10.9127V13.76037c0-1.96246-1.59089-3.55334-3.55334-3.55334h-2.62628c-1.44066,0-2.73874,.86987-3.28649,2.20234l-10.10634,24.58499Z" style="fill:#ffcac6;"/><path d="M16.87448,12.45904c-7.04279-.32432-12.85461,5.28968-12.85461,12.26091,0,.14149,.01641,.27865,.02116,.41901h-.01089v8.47718c0,1.86574,1.51248,3.37822,3.37822,3.37822H15.88565v-.02064c.13685,.00454,.27065,.02064,.40858,.02064,6.97101,0,12.58467-5.81113,12.26101-12.85352-.28726-6.25051-5.43028-11.39396-11.68076-11.6818Z" style="fill:#85add7;"/><path d="M11.36858,22.96805c-4.02621-.18541-7.3487,3.024-7.3487,7.00929,0,.08089,.00938,.1593,.01209,.23954h-.00622v4.84622c0,1.0666,.86465,1.93125,1.93125,1.93125h4.84628v-.0118c.07823,.0026,.15473,.0118,.23358,.0118,3.98517,0,7.19438-3.3221,7.00935-7.34808-.16422-3.57328-3.10437-6.51368-6.67763-6.67823Z" style="fill:#7092b5;"/></g><rect width="40" height="40" style="fill:none;"/></svg>