<?xml version="1.0" encoding="UTF-8"?><svg id="Layer_1" xmlns="http://www.w3.org/2000/svg" viewBox="0 0 40 40"><g><path d="m3.865,32.804S1.933,11.564,12.205,7.063c0,0,2.824-4.092,9.126-3.438,6.302.655,11.115,5.509,12.727,9.904,1.201,3.274,2.389,10.204,2.201,18.235-.022.932-.523,1.787-1.32,2.271-1.739,1.057-5.768,2.411-15,2.411-15.142,0-16.074-3.642-16.074-3.642Z" fill="#e86c00"/><path d="m24.714,17.412c-5.56-.826-9.176-4.509-10.334-5.857-.157-.183-.454-.103-.498.135-.27,1.474-1.228,5.222-4.276,7.94,0,0-.511.391-1.084,1.16-.841,1.129-1.173,2.568-.934,3.956,1.041,6.067,6.112,10.671,12.214,10.671,5.736,0,10.56-4.068,11.984-9.594.709-4.105-1.777-7.623-7.072-8.41Z" fill="#6e4944"/><ellipse cx="16.061" cy="21.98" rx="1.381" ry="1.657"/><ellipse cx="23.354" cy="21.98" rx="1.381" ry="1.657"/><path d="m21.427,29.262c.31,0,.529.297.447.596-.261.952-1.132,1.651-2.167,1.651s-1.906-.699-2.167-1.651c-.082-.299.138-.596.447-.596h3.439Z" fill="#5c2f17"/></g><rect width="40" height="40" fill="none"/></svg>