<svg id="Layer_1" data-name="Layer 1" xmlns="http://www.w3.org/2000/svg" viewBox="0 0 40 40"><defs><style>.cls-1{fill:#ffcca8;}.cls-2{fill:#333;}.cls-3{fill:#5c2f17;}.cls-4{fill:#5268ea;}.cls-5{fill:#65778e;}.cls-6{fill:none;}</style></defs><circle class="cls-1" cx="16.486" cy="14.937" r="8.145"/><ellipse class="cls-1" cx="9.052" cy="15.165" rx="3.261" ry="3.058"/><ellipse class="cls-1" cx="23.919" cy="15.165" rx="3.261" ry="3.058"/><path class="cls-2" d="M25.7,12.6A9.389,9.389,0,0,0,6.966,11.475a9.594,9.594,0,0,0-.034,1.32s.8-.189,1.5,1.348l5.373-6.012s6.522,5.239,10.827,4.953A.972.972,0,0,0,24.948,13C25.235,12.837,25.476,12.537,25.7,12.6Z"/><ellipse cx="14.197" cy="14.543" rx="0.867" ry="1.04"/><ellipse cx="18.774" cy="14.543" rx="0.867" ry="1.04"/><path class="cls-3" d="M17.564,18.644a.294.294,0,0,1,.281.375,1.41,1.41,0,0,1-2.719,0,.294.294,0,0,1,.281-.375Z"/><path class="cls-4" d="M26.045,27.527a48.3,48.3,0,0,0-8.156-3.933s-.561-.009-1.229-.014v0h-.434v0c-.668.005-1.229.014-1.229.014a48.3,48.3,0,0,0-8.156,3.933C2.917,29.959,3.138,37,3.138,37h26.61S29.969,29.959,26.045,27.527Z"/><path class="cls-1" d="M14.621,21.881v2.493a.257.257,0,0,0,.145.236,3.823,3.823,0,0,0,3.351,0,.277.277,0,0,0,.148-.243v-2.49Z"/><path class="cls-5" d="M27.8,4.21l.8,11.534,1.282.631-.322-.707a2.128,2.128,0,0,1,.539-2.488l.19-.165L29.5,5.676A1.641,1.641,0,0,0,27.8,4.21Z"/><path class="cls-2" d="M20.964,4.248a15.356,15.356,0,0,0,9.377,3.268l-6.405,2.843Z"/><path class="cls-5" d="M35.792,15.121a2.318,2.318,0,1,1,.71-3.2A2.321,2.321,0,0,1,35.792,15.121Zm-2.025-3.18a1.451,1.451,0,1,0,2,.445A1.453,1.453,0,0,0,33.767,11.941Z"/><path class="cls-5" d="M22.55,7.55l10.112,5.6.03,1.43-.505-.592a2.127,2.127,0,0,0-2.482-.564l-.23.1-6.32-3.813A1.641,1.641,0,0,1,22.55,7.55Z"/><path class="cls-5" d="M25.851,18.7a2.319,2.319,0,1,1,3.2.71A2.322,2.322,0,0,1,25.851,18.7Zm.732-.466a1.451,1.451,0,1,0,.445-2A1.453,1.453,0,0,0,26.583,18.235Z"/><rect class="cls-6" width="40" height="40"/></svg>