<svg id="Layer_1" data-name="Layer 1" xmlns="http://www.w3.org/2000/svg" viewBox="0 0 40 40"><defs><style>.cls-1{fill:#c3846c;}.cls-2{fill:#5c2f17;}.cls-3{fill:#523725;}.cls-4{fill:none;}</style></defs><ellipse class="cls-1" cx="20" cy="20.618" rx="15.114" ry="15.685"/><ellipse class="cls-1" cx="7.747" cy="22.375" rx="5.375" ry="5.041"/><ellipse class="cls-1" cx="32.253" cy="22.375" rx="5.375" ry="5.041"/><ellipse cx="16.228" cy="21.778" rx="1.429" ry="1.715"/><ellipse cx="23.772" cy="21.778" rx="1.429" ry="1.715"/><path class="cls-2" d="M21.777,26.822a.485.485,0,0,1,.464.618,2.325,2.325,0,0,1-4.482,0,.485.485,0,0,1,.464-.618Z"/><path class="cls-3" d="M19.524,9.24a.946.946,0,0,0,1.291.953c1.522-.592,3.522-1.741,3.506-3.681-.027-3.128-3.9-2.9-4.813-2.727a11.315,11.315,0,0,0-3.453,1.55.178.178,0,0,0,.051.324C17.132,5.911,19.711,6.792,19.524,9.24Z"/><rect class="cls-4" width="40" height="40"/></svg>