<?xml version="1.0" encoding="UTF-8"?><svg id="Layer_1" xmlns="http://www.w3.org/2000/svg" viewBox="0 0 40 40"><g><g><g><path d="M24.5528,31.14282c-.77368-.448-1.39703-1.12109-1.76123-1.94434-.93439-.00244-1.69128-.71313-1.69128-1.59009,0-.52173,.27148-.98047,.68512-1.27075-.00757-.21313-.00385-.42944,.01678-.64893,.2149-2.28198,2.04004-4.13452,4.31921-4.37915,.60406-.06494,1.18695-.0127,1.73505,.12793-.87018-2.24561-2.77338-4.01392-5.16321-4.7981-.80792,.55542-1.74939,.88062-2.75909,.88062-1.01025,0-1.95221-.32544-2.76038-.88135-2.46393,.80786-4.40454,2.66479-5.23639,5.00806,.29974-.05493,.60468-.07788,.90881-.03687l.21869,.02954c.08496,.01147,.1712,.01001,.25586-.00391l.42798-.07056c.26202-.04346,.53156-.03467,.78741,.03638,2.09296,.58228,3.62573,2.5354,3.59222,4.81738l-.0072,.00049c.46747,.2832,.77856,.77393,.77856,1.33472,0,.87695-.7569,1.58765-1.69128,1.59009-.0285,.06445-.0686,.12183-.10022,.18481l1.01428,.76074c.24738,.18555,.23627,.56006-.02167,.73071l-.85132,.56274c-.2467,.16333-.58099,.04639-.67212-.23511l-.2356-.72778c-.22528,.22656-.48083,.41968-.75238,.59106,1.86932,.85571,3.17059,2.73804,3.17059,4.92822h2.47998c0-2.24634,1.36609-4.17383,3.31281-4.99658Z" style="fill:#5268e9;"/><path d="M28.77185,31.14282c.54834,.23169,1.04669,.55542,1.48535,.94482l-.39978-1.84473c-.3092,.3584-.6734,.66113-1.08557,.8999Z" style="fill:#5268e9;"/><path d="M10.39539,30.67432l-.21802,.67358c-.05792,.17896-.21594,.28052-.38562,.29663l-.10126,.49072c.41248-.37598,.88165-.68896,1.39545-.92407-.24811-.15649-.48071-.33374-.69055-.53687Z" style="fill:#5268e9;"/></g><path d="M26.03003,10.28003v.09009l-.77002,.69995c-.15002,.13989-.39001,.03979-.41003-.16016-.02997-.35986-.14996-.85986-.45996-1.32007-.42999-.61987-1.23999-1.15991-2.81-1.13989-3.67004,.05005-4.38-2.11987-4.38-2.11987,0,0-.58002,1.85986-1.28003,3.31006-.23999,.47998-.47998,.90991-.71997,1.21973-.17999,.22021-.51001,.25-.72003,.07007l-.63995-.55005v-.10986c-.34003,.35986-.55005,.83008-.55005,1.33984,0,.9502,.69,1.74023,1.62,1.96021,.44,1.28979,1.24005,2.36987,2.26001,3.07007,.81,.5498,1.75,.87988,2.76001,.87988s1.96002-.33008,2.76001-.87988c1.02997-.7002,1.83002-1.78027,2.26001-3.07007,.94-.21997,1.63-1.01001,1.63-1.96021,0-.50977-.21002-.97998-.54999-1.32983Zm-7.61005,1.61011c-.32001,0-.57001-.31006-.57001-.69019,0-.37988,.25-.68994,.57001-.68994s.57001,.31006,.57001,.68994c0,.38013-.25,.69019-.57001,.69019Zm1.51001,3.76978c-.42999,0-.78998-.28979-.89996-.68994-.03003-.11987,.06-.25,.18994-.25h1.43005c.13,0,.21997,.13013,.17999,.25-.10004,.40015-.47003,.68994-.90002,.68994Zm1.52002-3.76978c-.32001,0-.57001-.31006-.57001-.69019,0-.37988,.25-.68994,.57001-.68994s.57001,.31006,.57001,.68994c0,.38013-.25,.69019-.57001,.69019Z" style="fill:#ffc84d;"/><path d="M18.41943,11.88916c.31689,0,.57379-.30811,.57379-.68848,0-.38013-.2569-.68848-.57379-.68848-.31683,0-.57373,.30835-.57373,.68848,0,.38037,.2569,.68848,.57373,.68848Z"/><path d="M21.44879,11.88916c.31689,0,.57379-.30811,.57379-.68848,0-.38013-.2569-.68848-.57379-.68848-.31683,0-.57373,.30835-.57373,.68848,0,.38037,.2569,.68848,.57373,.68848Z"/><path d="M14.47876,10.92505c.21472,.18335,.54346,.15942,.71765-.0625,.24292-.30981,.48804-.74414,.7196-1.22192,.70435-1.45337,1.28204-3.31152,1.28204-3.31152,0,0,.71002,2.1665,4.38556,2.11938,1.56183-.02002,2.37305,.51978,2.80475,1.14355,.31592,.45654,.43475,.95654,.46515,1.32251,.01654,.19873,.25397,.29053,.40192,.15649l.7757-.7019s.00189-.03809,.00366-.09204c.00861-.25879,.0141-1.09131-.20868-2.16455-.26923-1.29736-1.81128-3.54932-4.67517-4.13672-2.86383-.58765-4.5528,1.26343-4.5528,1.26343-2.84851,.70386-2.79327,4.37012-2.75977,5.03223,.00336,.06616,.00653,.11279,.00653,.11279l.63385,.54077Z" style="fill:#f80;"/><path d="M19.93414,15.65723c.42957,0,.79132-.29004,.90002-.68506,.03424-.12451-.05737-.24829-.18634-.24829h-1.42737c-.12897,0-.22058,.12378-.18634,.24829,.10864,.39502,.47046,.68506,.90002,.68506Z" style="fill:#5c2f17;"/></g><g><path d="M18.76001,36.14014H7.91998c0-1.59009,.67999-3.01025,1.77002-4,.40997-.38013,.88-.69019,1.40002-.93018,.64996,.41016,1.41998,.66016,2.25,.66016,.82996,0,1.59998-.25,2.25-.66016,1.87,.86011,3.16998,2.73999,3.16998,4.93018Z" style="fill:#f56570;"/><path d="M10.40002,30.66992l-.22003,.68018c-.06,.17993-.21997,.27979-.39001,.29004-.09998,.00977-.19,0-.27997-.06006l-.85999-.56006c-.25-.16992-.27002-.54004-.02002-.72998l.96002-.71997c.20996,.40991,.47998,.78979,.81,1.09985Z" style="fill:#f80;"/><path d="M18.09998,31.02002l-.84998,.56006c-.25,.16992-.58002,.0498-.66998-.22998l-.23999-.72998c.31995-.32007,.56995-.69019,.76996-1.09009l1.01001,.76001c.25,.18994,.23999,.56006-.02002,.72998Z" style="fill:#f80;"/><path d="M18.13,26.41992h-.01001c-.10999-.02979-.22998,.12012-.38,.20996-.06,.02002-.10999,.03003-.15997,.04004-.52002,.06006-.98999-.01001-1.41003-.16992-1.88995-.66992-2.82001-3-2.82001-3-.48999,1.01001-1.92999,2.15991-2.97998,2.90991-.69,.48999-1.21997,.81006-1.21997,.81006-.29004-.63989-.62-.69995-.73004-.69995-.38995,.29004-.63995,.72998-.63995,1.22998,0,.87988,.75,1.58984,1.68994,1.58984,.03003,.08008,.08002,.15015,.12006,.23022,.20996,.40991,.47998,.78979,.81,1.09985,.20996,.20996,.44,.38013,.69,.54004,.64996,.41016,1.41998,.66016,2.25,.66016,.82996,0,1.59998-.25,2.25-.66016,.26996-.16992,.52997-.35986,.75-.58984,.31995-.32007,.56995-.69019,.76996-1.09009,.03003-.06006,.07001-.12012,.10004-.19019,.92999,0,1.69-.70996,1.69-1.58984,0-.56006-.31-1.04004-.77002-1.33008Zm-5.97998,1.55005c-.25,0-.45001-.23999-.45001-.54004s.20001-.53979,.45001-.53979,.44995,.23975,.44995,.53979-.19995,.54004-.44995,.54004Zm1.19,2.33008c-.34003,0-.62006-.22998-.71002-.54004-.03003-.1001,.04999-.19995,.15002-.19995h1.12c.09998,0,.16998,.09985,.13995,.19995-.07996,.31006-.35999,.54004-.69995,.54004Zm1.19-2.33008c-.25,0-.45001-.23999-.45001-.54004s.20001-.53979,.45001-.53979,.44995,.23975,.44995,.53979-.19995,.54004-.44995,.54004Z" style="fill:#ffc84d;"/><path d="M12.59998,27.42993c0,.30005-.19995,.54004-.44995,.54004s-.45001-.23999-.45001-.54004,.20001-.53979,.45001-.53979,.44995,.23975,.44995,.53979Z"/><path d="M14.97998,27.42993c0,.30005-.19995,.54004-.44995,.54004s-.45001-.23999-.45001-.54004,.20001-.53979,.45001-.53979,.44995,.23975,.44995,.53979Z"/><path d="M14.03998,29.76001c-.07996,.31006-.35999,.54004-.69995,.54004-.34003,0-.62006-.22998-.71002-.54004-.03003-.1001,.04999-.19995,.15002-.19995h1.12c.09998,0,.16998,.09985,.13995,.19995Z" style="fill:#5c2f17;"/><path d="M18.13,26.41992h-.01001c-.10999-.02979-.22998,.12012-.38,.20996-.06,.02002-.10999,.03003-.15997,.04004-.52002,.06006-.98999-.01001-1.41003-.16992-1.88995-.66992-2.82001-3-2.82001-3-.48999,1.01001-1.92999,2.15991-2.97998,2.90991-.69,.48999-1.21997,.81006-1.21997,.81006-.29004-.63989-.62-.69995-.73004-.69995h-.04999c-.01001-.22998-.01001-.45996,.02002-.68994,.16998-1.83008,1.38-3.38013,3.01996-4.05005,.17004-.07007,.35004-.1001,.53003-.13013,.29999-.06006,.59998-.07983,.90997-.04004l.21002,.03027c.09003,.00977,.17999,.00977,.26001,0l.42999-.08008c.26001-.04004,.53003-.03003,.78998,.04004,2.09003,.57983,3.62,2.54004,3.59003,4.81982Z" style="fill:#f80;"/></g><g><path d="M32.08002,36.14014h-10.84003c0-2.25,1.37-4.17017,3.31-5,.63,.35986,1.34003,.58984,2.10999,.58984,.77002,0,1.49005-.22998,2.11005-.58984,.54999,.22998,1.04999,.55981,1.48999,.94971,1.12,.99023,1.82001,2.44019,1.82001,4.05029Z" style="fill:#64a7ff;"/><path d="M31.42999,26.26001c-.48999-.01001-.90997-.09009-1.26001-.20996-1.27997-.42993-1.71997-1.36011-1.71997-1.36011,0,0-.85004,1.02002-1.79004,1.02002-.92999,0-1.87-1.02002-1.87-1.02002-.57001,.71997-1.15997,1.12012-1.66998,1.36011-.76001,.34985-1.33997,.32983-1.33997,.32983,0-.02002,.00995-.02979,.00995-.04004-.41998,.29004-.69,.75-.69,1.27002,0,.88013,.76001,1.59009,1.69,1.59009,.37,.82007,.99005,1.48999,1.76001,1.94019,.63,.35986,1.34003,.58984,2.10999,.58984,.77002,0,1.49005-.22998,2.11005-.58984,.40997-.24023,.77997-.54004,1.08997-.90015,.27002-.31006,.5-.65991,.67004-1.04004,.93994,0,1.68994-.70996,1.68994-1.59009,0-.56982-.31-1.05981-.78998-1.34985Zm-5.96002,1.57007c-.25,0-.44995-.25-.44995-.55005,0-.29004,.19995-.54004,.44995-.54004s.45001,.25,.45001,.54004c0,.30005-.20001,.55005-.45001,.55005Zm1.19,2.31982c-.33997,0-.62-.22998-.69995-.54004-.03003-.09985,.03998-.18994,.13995-.18994h1.12c.10004,0,.18005,.09009,.15002,.18994-.08997,.31006-.37,.54004-.71002,.54004Zm1.19-2.31982c-.25,0-.44995-.25-.44995-.55005,0-.29004,.19995-.54004,.44995-.54004s.45001,.25,.45001,.54004c0,.30005-.20001,.55005-.45001,.55005Z" style="fill:#ffc84d;"/><path d="M25.91998,27.28003c0,.30005-.20001,.55005-.45001,.55005s-.44995-.25-.44995-.55005c0-.29004,.19995-.54004,.44995-.54004s.45001,.25,.45001,.54004Z"/><path d="M28.29999,27.28003c0,.30005-.20001,.55005-.45001,.55005s-.44995-.25-.44995-.55005c0-.29004,.19995-.54004,.44995-.54004s.45001,.25,.45001,.54004Z"/><path d="M27.37,29.60986c-.08997,.31006-.37,.54004-.71002,.54004-.33997,0-.62-.22998-.69995-.54004-.03003-.09985,.03998-.18994,.13995-.18994h1.12c.10004,0,.18005,.09009,.15002,.18994Z" style="fill:#5c2f17;"/><path d="M31.53998,26.27002c-.03998,0-.07001,0-.10999-.01001-.48999-.01001-.90997-.09009-1.26001-.20996-1.27997-.42993-1.71997-1.36011-1.71997-1.36011,0,0-.85004,1.02002-1.79004,1.02002-.92999,0-1.87-1.02002-1.87-1.02002-.57001,.71997-1.15997,1.12012-1.66998,1.36011-.76001,.34985-1.33997,.32983-1.33997,.32983,0-.02002,.00995-.02979,.00995-.04004-.00995-.21973-.00995-.42993,.01001-.6499,.22003-2.28003,2.04004-4.13989,4.32001-4.37988,.60999-.07007,1.19-.01001,1.73999,.12988,2.14001,.55005,3.72003,2.52002,3.67999,4.83008Z" style="fill:#f80;"/></g></g><rect width="40" height="40" style="fill:none;"/></svg>