<svg id="Layer_1" data-name="Layer 1" xmlns="http://www.w3.org/2000/svg" viewBox="0 0 40 40"><defs><style>.cls-1{fill:none;opacity:0.1;}.cls-2{fill:#ffcca8;}.cls-3{fill:#e68e51;}</style></defs><rect class="cls-1" width="40" height="40"/><path class="cls-2" d="M39.027,16.266a1.723,1.723,0,0,0-2.28.862h0l-1.373,2.944-.4-.184,3.277-7.027a1.7,1.7,0,1,0-3.085-1.438l-3.282,7.038-.4-.184,3.756-8.053a1.7,1.7,0,1,0-3.085-1.439L28.4,16.851l-.4-.184,3.051-6.542h0a1.7,1.7,0,1,0-3.085-1.439v0L24.6,15.921l-.306-1.82a1.812,1.812,0,1,0-3.623,0v7.927h0A8.3,8.3,0,0,0,34.835,27.9a18.84,18.84,0,0,0,2.805-4.629l.385-.825.048-.1.181-.39,1.578-3.384h0A1.723,1.723,0,0,0,39.027,16.266Z"/><path class="cls-2" d="M17.523,12.289A1.812,1.812,0,0,0,15.711,14.1l-.306,1.82L12.031,8.688v0a1.7,1.7,0,1,0-3.085,1.439h0L12,16.667l-.4.184L7.839,8.786a1.7,1.7,0,1,0-3.085,1.439L8.51,18.278l-.4.184L4.831,11.424a1.7,1.7,0,1,0-3.085,1.438l3.277,7.027-.4.184L3.253,17.129h0a1.723,1.723,0,0,0-2.28-.862,1.723,1.723,0,0,0-.8,2.3h0l1.578,3.384.181.39.048.1.385.825A18.84,18.84,0,0,0,5.165,27.9a8.3,8.3,0,0,0,14.169-5.869h0V14.1A1.811,1.811,0,0,0,17.523,12.289Z"/><path class="cls-3" d="M15.214,19.363l-1.909.7a3.008,3.008,0,0,0-1.8,3.855l.287.787A12.719,12.719,0,0,1,15.214,19.363Z"/><path class="cls-3" d="M24.786,19.363l1.909.7a3.008,3.008,0,0,1,1.8,3.855l-.287.787A12.719,12.719,0,0,0,24.786,19.363Z"/></svg>