<?xml version="1.0" encoding="UTF-8"?><svg id="Layer_1" xmlns="http://www.w3.org/2000/svg" viewBox="0 0 40 40"><g><path d="m11.03,25.972l-4.209,4.705c-.238.266-.251.665-.03.945l2.9,3.683c.075.095.119.212.125.333l.078,1.555c.008.17.149.303.319.303h2.947c.253,0,.406-.281.268-.493l-3.334-5.13c-.139-.214-.035-.502.209-.578l3.684-1.143-2.956-4.179Z" fill="#6e4944"/><path d="m30.176,4.193s-3.178-.341-4.739,2.752c-1.561,3.093-.853,6.441-2.612,9.137l6.891-5.618.459-6.271Z" fill="#5e403b"/><path d="m12.673,29.037s-4.23-2.585-3.329-6.893,6.619-4.778,6.619-4.778l4.251-.534c1.635-.205,3.066-1.2,3.828-2.662l5.968-11.45c.147-.282.549-.292.701-.012.236.435.55,1.096.842,1.968l5.373,2.898c.326.176.458.575.3.91l-1.068,2.273c-.103.22-.35.334-.584.269l-3.078-.844c-.611-.168-1.188.368-1.057.988.493,2.329,1.297,7.118.374,10.195-.083.278.165.539.449.478.997-.213,2.835-.606,3.583-.766.191-.041.378.068.442.253l2.257,6.516c.037.108.022.227-.043.322l-1.504,2.209c-.11.161-.349.155-.451-.011l-1.311-2.151.887-.532c.163-.098.222-.304.137-.473l-1.414-2.795c-.084-.166-.294-.222-.45-.119l-3.224,2.138c-.12.08-.17.231-.12.366l3.749,10.237c.082.224-.084.46-.322.46h-2.238c-.244,0-.44-.2-.434-.444l.058-2.631c.003-.115-.026-.229-.083-.33l-4.417-7.766c-.115-.203-.345-.307-.572-.256-1.273.29-5.477,1.143-7.912.39-.234-.073-.477.052-.527.292-.189.907-.762,2.951-2.254,4.21-.298.251-.22.723.152.841l3.206,1.011c.122.039.225.124.284.238l2.101,4c.106.202-.04.445-.269.445h-2.391c-.158,0-.289-.121-.302-.278l-.154-1.849c-.011-.132-.107-.242-.236-.271l-5.896-1.321c-.393-.088-.649-.469-.581-.866l.662-3.874Z" fill="#86584a"/><path d="m10.279,20.785s-4.833-.276-6.141,3.473-.432,6.316-2.701,6.886c0,0,3.198.431,4.872-2.647s.829-4.439,3.969-7.713Z" fill="#86584a"/><circle cx="32.598" cy="6.944" r=".655"/></g><rect width="40" height="40" fill="none"/></svg>