<?xml version="1.0" encoding="UTF-8"?><svg id="Layer_1" xmlns="http://www.w3.org/2000/svg" viewBox="0 0 40 40"><rect width="40" height="40" transform="translate(40 0) rotate(90)" style="fill:none;"/><path d="M30.99951,24.38904l-.00928-19.95581,.00031-.0033-.00031-.0033-.00006-.06757h-.00684c-.03986-1.73102-1.44977-3.12518-3.19012-3.12634-1.7403-.00116-3.14838,1.39111-3.18579,3.12207h-.00745l.00568,12.14697-.00012-.00012-3.48749-12.98987-.02905,.00775c-.49524-1.67395-2.22687-2.67316-3.90662-2.23346-1.70087,.44525-2.6991,2.19427-2.22955,3.90649,.00983,.03577,.0282,.06659,.03912,.10175l1.13861,4.24091h-.00006l1.02014,3.79968h0l.00372,.01392c-.1076-.00281-.21411-.01392-.32196-.01392-4.09033,0-8.42639,1.47333-10.56842,6.23407-.51331,1.14087-.68652,2.53888,.42072,3.24609,.94098,.60107,2.30518,.46008,3.09198-.46362,.90875-1.06689,2.7655-3.66595,5.16931-3.66595s4.48688,1.4613,4.48688,4.87482c0,3.08087-4.6994,5.90747-8.65674,1.87347l-.00861,.0069c-.04181-.0567-.07434-.11768-.1214-.17175-.94354-1.08459-2.58887-1.19788-3.67493-.25305-1.086,.94482-1.20154,2.58997-.25793,3.67456,3.11267,4.20758,6.49902,8.30957,14.06781,8.30957,5.6438,0,10.21893-4.5752,10.21893-10.21893v-2.39209l-.00049,.00006Z" style="fill:#ffc84d;"/></svg>