<?xml version="1.0" encoding="UTF-8"?><svg id="Layer_1" xmlns="http://www.w3.org/2000/svg" viewBox="0 0 40 40"><g><path d="m29.537,32.308l-5.003-1.9c-2.921-1.11-6.147-1.11-9.068,0l-5.003,1.9c-2.167.823-3.994,2.301-5.259,4.192h29.591c-1.265-1.891-3.092-3.369-5.259-4.192Z" fill="#abb7c7"/><g><path d="m10.1,23.73c-.892-.007-1.718-.265-2.404-.7l1.146,4.6c.228.915,1.05,1.558,1.993,1.558h4.634c-2.391-1.102-4.309-3.047-5.369-5.458Z" fill="#333"/><path d="m24.531,29.188h4.583c1.011,0,1.871-.735,2.029-1.734l.658-4.166c-.575.269-1.214.436-1.901.442-1.059,2.411-2.978,4.355-5.369,5.458Z" fill="#333"/><path d="m9.306,18.308l7.137-7.987s8.665,6.959,14.383,6.579c.126-.008.271-.052.415-.114.37-.208.681-.581.967-.526.009.002.018-.004.027-.002.109-7.429-6.282-13.494-13.851-12.681-5.821.625-10.483,5.356-11.032,11.185-.056.593-.07,1.179-.045,1.754,0,0,.046-.006.11-.007.286-.005,1.121.132,1.888,1.798Z" fill="#333"/></g><path d="m34.21,19.67c0-1.437-.802-2.685-2.001-3.409-.286-.055-.597.317-.967.526-.143.062-.289.105-.415.114-5.719.38-14.383-6.579-14.383-6.579l-7.137,7.987c-.767-1.666-1.602-1.803-1.888-1.798-.988.745-1.629,1.877-1.629,3.16,0,1.397.755,2.629,1.906,3.36.686.435,1.512.693,2.404.7,1.059,2.411,2.978,4.355,5.369,5.458,1.378.635,2.912.992,4.531.992s3.153-.357,4.531-.992c2.391-1.102,4.309-3.047,5.369-5.458.687-.006,1.326-.173,1.901-.442,1.425-.667,2.409-2.029,2.409-3.618Z" fill="#956759"/><path d="m20.021,24.848c-.899,0-1.6-.155-2.079-.312-.248-.081-.451.214-.29.419.432.548,1.194,1.201,2.369,1.201s1.937-.653,2.369-1.201c.162-.205-.041-.5-.29-.419-.479.157-1.18.312-2.079.312Z" fill="#5c2f17"/><path d="m17.3,28.042h5.4v2.7c0,1.49-1.21,2.7-2.7,2.7h0c-1.49,0-2.7-1.21-2.7-2.7v-2.7h0Z" fill="#956759"/><g><path d="m16.192,19.265c-.808,0-1.274-.185-1.671-.36-.229-.101-.404.077-.29.318.248.521.902,1.081,1.961,1.081,1.058,0,1.713-.56,1.961-1.081.115-.241-.061-.419-.29-.318-.397.174-.863.36-1.671.36Z"/><path d="m23.849,19.265c-.808,0-1.274-.185-1.671-.36-.229-.101-.404.077-.29.318.248.521.902,1.081,1.961,1.081,1.058,0,1.713-.56,1.961-1.081.115-.241-.061-.419-.29-.318-.397.174-.863.36-1.671.36Z"/></g><g><path d="m11.278,11.987l-.549,3.705c-.015.103-.054.197-.102.285v.007s1.116-2.841,1.116-2.841c.571-1.456,1.776-2.572,3.271-3.032l1.552-.477-2.45.01c-1.45.006-2.668,1.011-2.839,2.343Z" fill="#212121"/><path d="m16.774,7.446l-1.066-.179c-1.657-.278-2.975-1.444-3.349-2.962l-.198-.805h-3.218l-.812,5.149.615,6.992c.042.479.475.848.995.848.387,0,.722-.207.887-.512.048-.088.086-.183.102-.285l.549-3.705c.171-1.332,1.388-2.337,2.839-2.343l2.45-.01c.657-.003,1.187-.496,1.187-1.103,0-.533-.412-.99-.98-1.085Z" fill="#956759"/><path d="m28.565,11.987c-.171-1.332-1.388-2.337-2.839-2.343l-2.45-.01,1.552.477c1.495.459,2.699,1.576,3.271,3.032l1.115,2.841v-.007c-.047-.088-.085-.183-.101-.285l-.549-3.705Z" fill="#212121"/><path d="m30.901,3.5h-3.218l-.198.805c-.374,1.518-1.692,2.684-3.349,2.962l-1.066.179c-.567.095-.98.552-.98,1.085,0,.607.531,1.1,1.187,1.103l2.45.01c1.45.006,2.668,1.011,2.839,2.343l.549,3.705c.015.103.054.197.102.285.165.305.501.512.887.512.52,0,.953-.369.995-.848l.615-6.992-.812-5.149Z" fill="#956759"/></g></g><rect width="40" height="40" fill="none"/></svg>