<?xml version="1.0" encoding="UTF-8"?><svg id="Layer_1" xmlns="http://www.w3.org/2000/svg" viewBox="0 0 40 40"><g><path d="m34.623,3.269c.573-.331,1.325-.079,1.555.541,1.229,3.314-.071,7.128-3.235,8.955-3.164,1.827-7.118,1.046-9.373-1.676-.422-.51-.264-1.287.309-1.618l10.744-6.203Z" fill="#b3202d"/><path d="m5.377,3.269c-.573-.331-1.325-.079-1.555.541-1.229,3.314.071,7.128,3.235,8.955,3.164,1.827,7.118,1.046,9.373-1.676.422-.51.264-1.287-.309-1.618L5.377,3.269Z" fill="#b3202d"/><circle cx="20" cy="20" r="17" fill="#e32939"/><circle cx="24.61" cy="24.309" r="2.104"/><path d="m24.25,21.788c-1.365.788-1.823,1.925-1.729,2.682.044.351.291.382.5.081.331-.477,1.009-.854,2.066-1.465.964-.964,2.072-1.354,2.466-1.481.348-.112.387-.38.074-.458-.593-.147-2.011-.147-3.376.641"/><circle cx="15.39" cy="24.309" r="2.104"/><path d="m15.75,21.788c1.365.788,1.823,1.925,1.729,2.682-.044.351-.291.382-.5.081-.331-.477-1.009-.854-2.066-1.465-.964-.964-2.072-1.354-2.466-1.481-.348-.112-.387-.38-.074-.458.593-.147,2.011-.147,3.376.641"/><path d="m20,30.496c-1.431,0-2.548.247-3.311.497-.395.129-.719-.341-.461-.667.688-.873,1.901-1.912,3.772-1.912s3.084,1.039,3.772,1.912c.258.327-.066.797-.461.667-.762-.249-1.879-.497-3.311-.497Z" fill="#731019"/></g><rect width="40" height="40" fill="none"/></svg>