<?xml version="1.0" encoding="UTF-8"?><svg id="Layer_1" xmlns="http://www.w3.org/2000/svg" viewBox="0 0 40 40"><polygon points="20 1.5 23.982 10.386 33.081 6.919 29.614 16.018 38.5 20 29.614 23.982 33.081 33.081 23.982 29.614 20 38.5 16.018 29.614 6.919 33.081 10.386 23.982 1.5 20 10.386 16.018 6.919 6.919 16.018 10.386 20 1.5" fill="#ef4452"/><polygon points="17.844 25.207 12.916 27.084 14.794 22.156 9.981 20 14.794 17.843 12.917 12.917 17.844 14.794 20 9.982 22.156 14.794 27.084 12.917 25.207 17.843 30.019 20 25.207 22.156 27.085 27.084 22.156 25.207 20 30.019 17.844 25.207" fill="#ffc33a"/></svg>