<?xml version="1.0" encoding="UTF-8"?><svg id="a" xmlns="http://www.w3.org/2000/svg" viewBox="0 0 40 40"><g><path d="M17.777,33.687h5.338v2.759c0,.395-.321,.716-.716,.716h-3.906c-.395,0-.716-.321-.716-.716v-2.759h0Z" fill="#0a37c7"/><g><path d="M28.46,9.668H11.54c-4.672,0-8.46,3.788-8.46,8.46v13.389c0,1.198,.971,2.17,2.17,2.17h29.502c1.198,0,2.17-.971,2.17-2.17v-13.389c0-4.673-3.788-8.46-8.46-8.46Z" fill="#1e6ef4"/><path d="M13.528,11.415c-.064-.018-.129-.033-.193-.05-.15-.037-.3-.072-.453-.101-.115-.021-.231-.037-.347-.053-.121-.016-.242-.032-.365-.042-.046-.004-.09-.013-.135-.016-.079-.005-.155,0-.233-.003-.088-.003-.173-.013-.261-.013-.054,0-.106,.007-.16,.008-.122,.002-.243,.01-.364,.018-.136,.01-.272,.021-.406,.038-.119,.015-.236,.034-.353,.054-.132,.023-.264,.049-.394,.079-.115,.027-.228,.056-.341,.088-.127,.036-.253,.075-.378,.118-.11,.037-.219,.077-.326,.119-.122,.048-.242,.1-.361,.154-.105,.048-.208,.097-.31,.149-.116,.06-.229,.123-.342,.189-.098,.057-.196,.115-.291,.177-.109,.071-.215,.146-.32,.222-.092,.067-.183,.133-.272,.203-.102,.081-.2,.167-.297,.253-.084,.075-.168,.148-.249,.226-.094,.091-.182,.186-.271,.282-.076,.082-.154,.163-.226,.249-.085,.1-.164,.204-.243,.309-.068,.089-.137,.176-.2,.268-.076,.11-.145,.224-.215,.338-.058,.094-.118,.186-.171,.282-.067,.12-.125,.244-.185,.368-.047,.097-.097,.192-.14,.291-.056,.13-.103,.264-.152,.398-.036,.099-.076,.195-.108,.296-.045,.143-.08,.29-.117,.437-.024,.096-.054,.19-.074,.287-.034,.164-.056,.332-.079,.5-.012,.084-.03,.167-.038,.252-.026,.255-.041,.513-.041,.774v12.242c0,.78,.633,1.413,1.413,1.413h13.437v-13.655c0-3.411-2.303-6.278-5.437-7.148Z" fill="#104be0"/><path d="M32.255,4.293c.539-.411,.248-1.271-.429-1.271h-4.956c-.368,0-.665,.298-.665,.665v14.391c0,.649,.526,1.175,1.175,1.175h0c.649,0,1.175-.526,1.175-1.175V7.114l3.7-2.821Z" fill="#0a37c7"/></g></g><rect width="40" height="40" fill="none"/></svg>