<?xml version="1.0" encoding="UTF-8"?><svg id="a" xmlns="http://www.w3.org/2000/svg" viewBox="0 0 40 40"><g><path d="M20.109,33.444c-3.865,0-6.881,.742-8.939,1.49-1.068,.388-1.941-1.022-1.245-2.002,1.858-2.618,5.132-5.735,10.184-5.735s8.326,3.117,10.184,5.735c.696,.98-.178,2.39-1.245,2.002-2.058-.748-5.074-1.49-8.939-1.49Z" fill="#ef4452"/><path d="M33.444,19.891c0,3.865,.742,6.881,1.49,8.939,.388,1.068-1.022,1.941-2.002,1.245-2.618-1.858-5.735-5.132-5.735-10.184,0-5.053,3.117-8.326,5.735-10.184,.98-.696,2.39,.178,2.002,1.245-.748,2.058-1.49,5.074-1.49,8.939Z" fill="#ef4452"/><path d="M19.891,6.556c3.865,0,6.881-.742,8.939-1.49,1.068-.388,1.941,1.022,1.245,2.002-1.858,2.618-5.132,5.735-10.184,5.735-5.053,0-8.326-3.117-10.184-5.735-.696-.98,.178-2.39,1.245-2.002,2.058,.748,5.074,1.49,8.939,1.49Z" fill="#ef4452"/><path d="M6.556,20.109c0-3.865-.742-6.881-1.49-8.939-.388-1.068,1.022-1.941,2.002-1.245,2.618,1.858,5.735,5.132,5.735,10.184s-3.117,8.326-5.735,10.184c-.98,.696-2.39-.178-2.002-1.245,.748-2.058,1.49-5.074,1.49-8.939Z" fill="#ef4452"/></g><rect y="0" width="40" height="40" transform="translate(40 40) rotate(-180)" fill="none" opacity=".1"/></svg>