<?xml version="1.0" encoding="UTF-8"?><svg id="Layer_1" xmlns="http://www.w3.org/2000/svg" viewBox="0 0 40 40"><g><path d="m22.461,35.285c-.254.246-.389.536-.389.834v.255c0,.346.424.626.948.626h1.012c.748,0,1.431-.28,1.763-.723l.27-.36c.069-.092.105-.194.105-.297v-1.701h-2.3l-1.409,1.365Z" fill="#2e3d51"/><path d="m27.813,35.62c0,.103.036.205.105.297l.27.36c.332.443,1.016.723,1.763.723h1.012c.523,0,.948-.28.948-.626v-.255c0-.297-.136-.588-.389-.834l-1.409-1.365h-2.3v1.701Z" fill="#2e3d51"/></g><g><polygon points="26.925 22.831 23.322 22.831 23.506 33.92 23.87 33.92 26.17 33.92 26.452 33.92 26.94 25.78 26.914 25.356 26.925 22.831" fill="#30587f"/><polygon points="26.925 22.831 26.914 25.356 26.94 25.78 27.427 33.92 27.813 33.92 30.113 33.92 30.374 33.92 30.557 22.831 26.925 22.831" fill="#30587f"/></g><path d="m32.903,17.816l-.741-2.954c-.149-1.2-.974-2.208-2.122-2.591l-2.402-.802v.253c0,.436-.354.79-.79.79s-.79-.354-.79-.79v-.225l-2.482.84c-1.031.349-1.808,1.207-2.053,2.268l-1.175,3.408.445.121,2.011.548.573.156-.293,3.993h7.726l-.362-4.024.304-.123,1.954-.788.199-.08Z" fill="#64a7ff"/><g><path d="m20.011,21.429l.971,4.096c.009.039,0,.077.004.116.003.016.013.03.014.047.003.034-.01.064-.01.097-.003.039-.003.077-.011.114-.046.559-.462,1.028-1.04,1.086-.102.01-.196-.014-.293-.029.125.065.263.111.414.126.651.065,1.232-.41,1.297-1.061.039-.393-.132-.744-.406-.988l1.851-6.351-2.011-.548-.781,3.295Z" fill="#956759"/><path d="m34.54,25.738c-.004-.039.005-.077-.004-.116l-1.832-7.726-1.954.788,1.851,6.349c-.274.244-.445.595-.406.988.065.651.646,1.126,1.297,1.061.578-.058.994-.527,1.04-1.086.008-.037.009-.075.011-.114,0-.033.013-.063.01-.097-.002-.017-.012-.03-.014-.047Z" fill="#956759"/><path d="m30.57,6.92c-.08,0-.17.09-.28.15-.04.02-.08.03-.12.04-.33.02-.69-.04-1.06-.15-1.6-.46-3.35-1.87-3.35-1.87l-1.52,1.7-.67.75c-.21-.47-.44-.54-.55-.55-.31.22-.53.56-.53.96,0,.69.6,1.25,1.33,1.25.41.93,1.23,1.62,2.24,1.87v.65c0,.44.35.79.79.79.43,0,.79-.35.79-.79v-.65c1-.25,1.83-.94,2.24-1.87.73,0,1.32-.56,1.32-1.25,0-.44-.26-.81-.63-1.03Zm-2.79.36c.19,0,.35.19.35.42s-.16.42-.35.42c-.2,0-.35-.19-.35-.42s.15-.42.35-.42Zm-1.86,0c.19,0,.35.19.35.42s-.16.42-.35.42c-.2,0-.36-.19-.36-.42s.16-.42.36-.42Zm2.07,2.34l-.6-.07c-.07.23-.29.39-.54.39s-.46-.16-.54-.38l-.52.06c-.21,0-.31-.25-.16-.4.29-.27.75-.45,1.26-.45s.97.18,1.26.45c.16.15.06.4-.16.4Z" fill="#956759"/></g><g><path d="m23.571,7.537l.67-.75,1.518-1.698s1.754,1.408,3.351,1.874c.368.107.729.164,1.057.143.039-.003.083-.016.127-.035.105-.059.194-.151.276-.152.009,0,.02-.012.029-.009.034-2.277-1.925-4.136-4.245-3.887-1.784.192-3.213,1.642-3.381,3.428-.017.182-.022.361-.014.538,0,0,.023-.005.06-.001.107.009.339.087.552.55Z" fill="#333"/><path d="m26.667,9.51c.149-.019.299-.019.448,0l.276.036.603.079c.211,0,.313-.259.158-.403-.294-.274-.749-.45-1.261-.45s-.967.176-1.261.45c-.155.144-.053.403.158.403l.522-.068.357-.047Z" fill="#333"/></g><g><path d="m10.293,33.823l-1.409,1.365c-.254.246-.389.536-.389.834v.255c0,.346.424.626.948.626h1.012c.748,0,1.431-.28,1.763-.723l.27-.36c.069-.092.105-.194.105-.297v-1.704l-2.3.003h0Z" fill="#2e3d51"/><path d="m14.236,35.524c0,.103.036.205.105.297l.27.36c.332.443,1.016.723,1.763.723h1.012c.523,0,.948-.28.948-.626v-.255c0-.297-.136-.588-.389-.834l-1.409-1.366-2.3-.003v1.704Z" fill="#2e3d51"/></g><path d="m9.658,22.139l.048,4.657c.004.142.12.255.262.255h6.871c.144,0,.261-.116.262-.259l-.031-4.652h-7.412Z" fill="#ec3f00"/><path d="m19.35,17.72l-.741-2.954c-.149-1.2-.974-2.208-2.122-2.591l-2.402-.802v.253c0,.436-.354.79-.79.79s-.79-.354-.79-.79v-.225l-2.482.84c-1.031.349-1.808,1.207-2.053,2.268l-1.175,3.408.445.121,2.011.548.573.156-.293,3.397h7.726l-.362-3.429.304-.123,1.954-.788.199-.08Z" fill="#fa878f"/><path d="m10.267,8.266c-.058-.339.023-.69.228-.965.14-.188.265-.283.265-.283.744-.663.977-1.577,1.043-1.937.011-.058.083-.078.121-.033.282.329,1.165,1.227,2.521,1.429,1.292.192,1.898,1.05,1.725,2.052-.275,1.067-1.073,1.901-2.085,2.207v.369c1.696-.068,2.491-.35,2.859-.575.194-.119.312-.328.318-.555.045-1.957-.244-3.646-.537-4.445-.393-1.072-1.567-2.256-3.105-2.416s-2.226.839-2.226.839c-2.219.973-2.103,5.148-2.048,6.09.01.17.084.325.22.428.309.233,1.078.561,2.939.634v-.343c-1.141-.302-2.028-1.271-2.238-2.495Z" fill="#333"/><g><polygon points="10.293 33.823 10.293 33.823 12.593 33.82 13.133 27.051 10.289 27.051 10.293 33.823" fill="#6e4944"/><polygon points="14.236 33.82 16.536 33.823 16.536 33.823 16.484 27.051 13.615 27.051 14.236 33.82" fill="#6e4944"/><path d="m5.464,25.526c-.009.039,0,.077-.004.116-.003.016-.013.03-.014.047-.003.034.01.064.01.097.003.039.003.077.011.114.046.559.462,1.028,1.04,1.086.651.065,1.232-.41,1.297-1.061.039-.393-.132-.744-.406-.988l1.851-6.351-2.011-.548-1.775,7.488Z" fill="#6e4944"/><path d="m20.98,25.9c.008-.037.009-.075.011-.114,0-.033.013-.063.01-.097-.002-.017-.012-.03-.014-.047-.004-.039.005-.076-.004-.116l-.971-4.096-.861-3.629-1.954.788,1.851,6.349c-.274.244-.445.595-.406.988.055.549.483.952,1.004,1.032.097.015.191.039.293.029.578-.058.994-.527,1.04-1.086Z" fill="#6e4944"/><path d="m14.44,6.48c-1.35-.2-2.23-1.1-2.52-1.43-.03-.05-.11-.03-.12.03-.06.36-.3,1.28-1.04,1.94,0,0-.13.09-.27.28-.2.28-.28.63-.22.97.21,1.22,1.09,2.19,2.23,2.49v.87c0,.43.36.79.79.79.44,0,.79-.36.79-.79v-.89c1.02-.31,1.82-1.14,2.09-2.21.17-1-.43-1.86-1.73-2.05Zm-1.64,2.89h.84c.08,0,.13.07.11.14-.06.24-.27.41-.53.41-.25,0-.46-.17-.53-.41-.02-.07.04-.14.11-.14Zm-.47-1.37c-.18,0-.33-.19-.33-.41s.15-.4.33-.4c.19,0,.34.18.34.4s-.15.41-.34.41Zm1.78,0c-.18,0-.33-.19-.33-.41s.15-.4.33-.4c.19,0,.34.18.34.4s-.15.41-.34.41Z" fill="#6e4944"/></g><g><g><path d="m25.916,8.123c.195,0,.353-.19.353-.424s-.158-.423-.353-.423-.353.19-.353.423.158.424.353.424Z"/><path d="m27.78,8.123c.195,0,.353-.19.353-.424s-.158-.423-.353-.423-.353.19-.353.423.158.424.353.424Z"/></g><g><path d="m12.334,7.187c-.186,0-.337.181-.337.404s.151.404.337.404.337-.181.337-.404-.151-.404-.337-.404Z"/><path d="m14.113,7.187c-.186,0-.337.181-.337.404s.151.404.337.404.337-.181.337-.404-.151-.404-.337-.404Z"/></g></g><g><path d="m26.667,9.51l-.357.047c.078.224.287.387.538.387.255,0,.467-.168.543-.397l-.276-.036c-.149-.019-.299-.019-.448,0Z" fill="#5c2f17"/><path d="m13.643,9.368h-.839c-.076,0-.129.073-.109.145.064.232.276.403.529.403s.465-.171.529-.403c.02-.073-.034-.145-.109-.145Z" fill="#5c2f17"/></g></svg>