<?xml version="1.0" encoding="UTF-8"?><svg id="Layer_1" xmlns="http://www.w3.org/2000/svg" viewBox="0 0 40 40"><g><g><path d="m11.8,19.62c-2.01-.01-3.64-1.55-3.64-3.44,0-1.082.542-2.04,1.376-2.67-.057,0-.098.006-.098.006-.021-.487-.009-.983.038-1.485.094-1.001.338-1.96.698-2.863H3.625s-.004,17.923-.004,17.923h11.274s1.469-.557,1.469-.557c.534-.203,1.083-.354,1.636-.468v-1.246c-2.78-.68-5.07-2.63-6.2-5.2Z" fill="#109494"/><path d="m30.522,13.299c1.012.613,1.688,1.671,1.688,2.881,0,1.89-1.63,3.43-3.65,3.44-1.13,2.56-3.4,4.51-6.17,5.19v1.262c.545.114,1.085.263,1.612.463l1.472.559h10.901s.001,0,.001,0l.002-17.923h-6.616c.515,1.276.8,2.667.779,4.126-.006-.002-.013.003-.019.001Z" fill="#109494"/><path d="m36.375,8.118h-7.103c.183.34.346.692.491,1.053h6.616s-.002,17.924-.002,17.924c0,0,0,0-.001,0h-10.901s2.742,1.04,2.742,1.04c.007.003.014.007.022.009h8.137c.581,0,1.054-.473,1.054-1.054V9.171c0-.581-.473-1.054-1.054-1.054Z" fill="#fb0"/><path d="m14.895,27.093H3.622s.004-17.925.004-17.925h6.549c.144-.36.309-.709.49-1.05H3.625c-.581,0-1.054.473-1.054,1.054v17.92c0,.581.473,1.054,1.054,1.054h8.503c.007-.003.014-.007.022-.009l2.745-1.043Z" fill="#fb0"/></g><g><g><path d="m17.998,26.629h.002v-.563c-.554.115-1.102.265-1.636.468l-1.469.558-2.745,1.043c-.007.003-.014.007-.022.009-2.018.773-3.69,2.215-4.75,4.062-.436.76-.713,1.602-.922,2.454l-.539,2.189c-.081.331.169.651.51.651h11.571v-10.871Z" fill="#ab866c"/><path d="m25.474,27.094l-1.472-.559c-.527-.2-1.067-.348-1.612-.463v.557h0v10.871h11.548c.341,0,.591-.32.51-.651l-.539-2.189c-.21-.851-.486-1.693-.922-2.454-1.06-1.847-2.731-3.289-4.75-4.062-.007-.003-.014-.007-.022-.009l-2.742-1.042Z" fill="#ab866c"/></g><path d="m22.391,26.629h0v.331c0,1.21-.98,2.19-2.2,2.19-1.21,0-2.19-.98-2.19-2.19v-.331h-.002v10.871h4.393v-10.871Z" fill="#fff"/></g><g><g><path d="m17.02,13.33c-1.19,0-2.15.97-2.15,2.15,0,1.19.96,2.16,2.15,2.16s2.15-.97,2.15-2.16c0-1.18-.96-2.15-2.15-2.15Zm.441,3.321c-.538,0-.975-.524-.975-1.17s.436-1.17.975-1.17.975.524.975,1.17-.436,1.17-.975,1.17Z" fill="#956759"/><path d="m28.56,19.62c2.02-.01,3.65-1.55,3.65-3.44,0-1.21-.676-2.269-1.688-2.881-.243-.051-.508.268-.823.445-.121.052-.245.089-.351.096-4.841.321-12.176-5.57-12.176-5.57l-6.042,6.761c-.646-1.402-1.348-1.525-1.594-1.522-.835.63-1.376,1.588-1.376,2.67,0,1.89,1.63,3.43,3.64,3.44,1.13,2.57,3.42,4.52,6.2,5.2v2.14c0,1.21.98,2.19,2.19,2.19,1.22,0,2.2-.98,2.2-2.19v-2.15c2.77-.68,5.04-2.63,6.17-5.19Zm-9.59.473h2.425c.219,0,.375.21.317.422-.185.671-.799,1.164-1.529,1.164s-1.345-.493-1.529-1.164c-.058-.211.098-.422.317-.422Zm1.81-4.613v-.09c.01-.01,0-.01,0-.01-.09-.22-.3-.37-.55-.37-.24,0-.44.14-.53.34v.13c0,1.48-1.2,2.68-2.68,2.68s-2.68-1.2-2.68-2.68c0-1.47,1.2-2.68,2.68-2.68,1.25,0,2.3.86,2.59,2.01.17-.14.39-.22.62-.22.24,0,.46.08.63.23.3-1.16,1.35-2.02,2.6-2.02,1.48,0,2.68,1.21,2.68,2.68,0,1.48-1.2,2.68-2.68,2.68s-2.68-1.2-2.68-2.68Z" fill="#956759"/><path d="m25.61,15.48c0-1.18-.96-2.15-2.15-2.15s-2.15.97-2.15,2.15c0,1.19.96,2.16,2.15,2.16s2.15-.97,2.15-2.16Zm-3.68,0c0-.646.436-1.17.975-1.17s.975.524.975,1.17-.436,1.17-.975,1.17-.975-.524-.975-1.17Z" fill="#956759"/></g><path d="m10.174,9.168c-.36.903-.603,1.862-.698,2.863-.047.502-.059.998-.038,1.485,0,0,.04-.005.098-.006.246-.003.948.12,1.594,1.522l6.042-6.761s7.335,5.891,12.176,5.57c.107-.007.23-.044.351-.096.315-.177.58-.496.823-.445.006.001.013-.003.019-.001.021-1.459-.264-2.851-.779-4.127-.146-.361-.309-.712-.491-1.053-1.955-3.644-5.955-6.039-10.456-5.556-3.53.379-6.548,2.546-8.151,5.556-.181.34-.346.69-.49,1.051Z" fill="#333"/><ellipse cx="17.461" cy="15.481" rx=".975" ry="1.17"/><ellipse cx="22.905" cy="15.481" rx=".975" ry="1.17"/><path d="m20.183,21.679c.73,0,1.344-.493,1.529-1.164.058-.211-.097-.422-.317-.422h-2.425c-.219,0-.375.21-.317.422.185.671.799,1.164,1.529,1.164Z" fill="#5c2f17"/></g><path d="m26.14,15.48c0-1.47-1.2-2.68-2.68-2.68-1.25,0-2.3.86-2.6,2.02-.17-.15-.39-.23-.63-.23-.23,0-.45.08-.62.22-.29-1.15-1.34-2.01-2.59-2.01-1.48,0-2.68,1.21-2.68,2.68,0,1.48,1.2,2.68,2.68,2.68s2.68-1.2,2.68-2.68v-.13c.09-.2.29-.34.53-.34.25,0,.46.15.55.37,0,0,.01,0,0,.01v.09c0,1.48,1.2,2.68,2.68,2.68s2.68-1.2,2.68-2.68Zm-9.12,2.16c-1.19,0-2.15-.97-2.15-2.16,0-1.18.96-2.15,2.15-2.15s2.15.97,2.15,2.15c0,1.19-.96,2.16-2.15,2.16Zm4.29-2.16c0-1.18.96-2.15,2.15-2.15s2.15.97,2.15,2.15c0,1.19-.96,2.16-2.15,2.16s-2.15-.97-2.15-2.16Z" fill="#363636"/><g><path d="m12.831,31.844c-.357,0-.646.29-.646.646s.29.647.646.647h15.772v-1.293h-15.772Z" fill="#fff"/><path d="m12.83,33.14h15.77v4.36H11.43v-5.01c0-.77.63-1.4,1.4-1.4h15.15s.62.09.62.75h-15.77c-.36,0-.65.29-.65.65s.29.65.65.65Z" fill="#ff2a00"/></g></g><rect width="40" height="40" fill="none"/></svg>