<svg xmlns="http://www.w3.org/2000/svg" viewBox="0 0 40 40"><defs><style>.cls-1{isolation:isolate;}.cls-2{fill:#6e4944;}.cls-3{fill:#333;}.cls-4{fill:#5c2f17;}.cls-5{fill:#c2bfbe;}.cls-6{fill:#d6d3d2;}.cls-7{fill:#aba8a8;}.cls-8{fill:#d4c4b6;mix-blend-mode:multiply;}.cls-9{fill:none;}</style></defs><g class="cls-1"><g id="Layer_1" data-name="Layer 1"><circle class="cls-2" cx="20" cy="23.994" r="12.936"/><ellipse class="cls-2" cx="8.194" cy="24.357" rx="5.178" ry="4.857"/><ellipse class="cls-2" cx="31.806" cy="24.357" rx="5.178" ry="4.857"/><path class="cls-3" d="M34.817,20.284A14.911,14.911,0,0,0,5.069,18.5a15.39,15.39,0,0,0-.055,2.1s1.265-.3,2.39,2.14l8.532-9.548s10.359,8.32,17.2,7.866a1.6,1.6,0,0,0,.5-.136C34.084,20.658,34.466,20.182,34.817,20.284Z"/><ellipse cx="16.554" cy="23.368" rx="1.377" ry="1.652"/><ellipse cx="23.822" cy="23.368" rx="1.377" ry="1.652"/><path class="cls-4" d="M21.9,29.881a.468.468,0,0,1,.447.6,2.24,2.24,0,0,1-4.319,0,.468.468,0,0,1,.447-.6Z"/><path class="cls-5" d="M4.547,18.353a15.283,15.283,0,0,1,30.565-.092,15.485,15.485,0,0,1-.141,2.178A2.072,2.072,0,0,1,32.2,22.077L19.83,17.521Z"/><path class="cls-6" d="M24.784,3.849c-4.479.909-11.977,3.556-19.889,11.212a15.323,15.323,0,0,0-.345,3.213,15.015,15.015,0,0,0,.325,3.1,2.074,2.074,0,0,0,2.792,1.48L33.951,12.51A15.3,15.3,0,0,0,24.784,3.849Z"/><polygon class="cls-7" points="20.549 17.786 22.818 18.622 33.951 12.51 20.549 17.786"/><path class="cls-8" d="M7.667,22.856H9.149a4.775,4.775,0,0,0,1.952-.417L21.456,18.12l-.907-.334Z"/><rect class="cls-9" width="40" height="40"/></g></g></svg>