<svg id="Layer_1" data-name="Layer 1" xmlns="http://www.w3.org/2000/svg" viewBox="0 0 40 40"><defs><style>.cls-1{fill:#ffdc42;}.cls-2{fill:#ff7500;}.cls-3{fill:#93c9ff;}.cls-4{fill:none;}</style></defs><path class="cls-1" d="M20,36.559c-7.8,0-14.117-3.723-14.117-10.716a23.585,23.585,0,0,1,.725-5.323c.453-1.84,1.2-3.554,2.276-8.573C10.025,6.649,13.8,2.715,20,2.715h0c6.2,0,9.975,3.934,11.116,9.232,1.081,5.019,1.823,6.733,2.276,8.573a23.585,23.585,0,0,1,.725,5.323C34.117,32.836,27.8,36.559,20,36.559Z"/><path class="cls-2" d="M19.965,14.566l-1.328-.921a.534.534,0,0,1,0-.878l1.328-.921a.534.534,0,0,1,.609,0l1.328.921a.535.535,0,0,1,0,.878l-1.328.921A.534.534,0,0,1,19.965,14.566Z"/><circle cx="17.204" cy="10.552" r="1.44"/><circle cx="23.059" cy="10.552" r="1.44"/><path class="cls-3" d="M34.248,17.8,31.069,19.99a.965.965,0,0,1-1.1,0L25.8,17.115a.967.967,0,0,0-1.1,0l-4.164,2.874a.967.967,0,0,1-1.1,0l-4.16-2.873a.967.967,0,0,0-1.1,0l-4.162,2.874a.967.967,0,0,1-1.1,0L5.753,17.8a.969.969,0,0,0-1.5.608,15.28,15.28,0,0,0,.26,6.826,16.23,16.23,0,0,0,15.724,12.05A16.017,16.017,0,0,0,36.017,21.268a15.6,15.6,0,0,0-.268-2.863A.967.967,0,0,0,34.248,17.8Z"/><rect class="cls-4" width="40" height="40"/></svg>