<?xml version="1.0" encoding="UTF-8"?><svg id="Layer_1" xmlns="http://www.w3.org/2000/svg" viewBox="0 0 40 40"><g><g><path d="M28.48364,9.46149c-1.12921-3.07812-4.50037-6.47821-8.91467-6.93683-4.41437-.45862-6.39221,2.40784-6.39221,2.40784-7.19476,3.15308-5.84125,18.02997-5.84125,18.02997,0,0,.65295,2.55115,11.25885,2.55115,6.46667,0,9.28888-.94843,10.50671-1.68872,.55817-.33929,.90912-.93793,.92438-1.59088,.13135-5.62512-.70062-10.47949-1.54181-12.77252Zm-1.59149,8.50195c-.99762,3.82892-4.37695,6.64752-8.39435,6.64752-4.27411,0-7.82605-3.19012-8.55536-7.39349-.16687-.96179,.06512-1.95844,.65454-2.74097,.40125-.53271,.7594-.80353,.7594-.80353,2.13507-1.88275,2.80615-4.48022,2.99512-5.50122,.03046-.16467,.23853-.22028,.34875-.09332,.81091,.93384,3.34399,3.48535,7.23822,4.05798,3.70874,.54535,5.44995,2.98297,4.95367,5.82703Z" style="fill:#333;"/><path d="M17.08533,28.61652c.37683,.29779,.84686,.48346,1.36469,.48346,.51392,0,.98199-.18597,1.35754-.48419l.84247-2.76959v-1.51624c3.02997-.79999,5.41998-3.25,6.23999-6.37,.5-2.83997-1.23999-5.27997-4.95001-5.81995-3.90002-.58002-6.42999-3.13-7.23999-4.06006-.10999-.12994-.32001-.06995-.35004,.09003-.19,1.02002-.85999,3.62-2.98999,5.5,0,0-.35999,.27002-.76001,.81-.58997,.78003-.81995,1.78003-.65997,2.73999,.59998,3.42999,3.08002,6.19,6.29999,7.08002v1.5376l.84534,2.77893Z" style="fill:#6e4944;"/><g><ellipse cx="15.87782" cy="15.38116" rx=".96742" ry="1.1609"/><ellipse cx="20.98578" cy="15.38116" rx=".96742" ry="1.1609"/></g><path d="M19.63627,20.48139c.21689,0,.37081,.20832,.31341,.41748-.18293,.66659-.79321,1.15637-1.51788,1.15637s-1.33496-.48978-1.51788-1.15637c-.0574-.20916,.09652-.41748,.31341-.41748h2.40893Z" style="fill:#5c2f17;"/></g><g><path d="M32.74432,36.82239l-.54034-2.1958c-.21014-.854-.48743-1.69824-.92523-2.461-1.0672-1.85919-2.75153-3.31067-4.78607-4.08362l-4.22681-1.60577c-.03754-.01428-.07629-.02362-.11395-.03741,.10773,.07831,.19238,.18469,.21655,.31836l1.07953,5.9715c.02698,.14935-.13147,.263-.26422,.18964l-1.73938-.9613c-.23358-.12915-.52527-.08081-.70477,.1167l-1.93237,2.12671c-.19348,.21295-.52838,.21295-.72192,0l-1.93231-2.12671c-.1795-.19751-.47119-.24585-.70477-.1167l-1.73938,.9613c-.13275,.07336-.29126-.04028-.26422-.18964l1.07953-5.9715c.02539-.1405,.11572-.25269,.2323-.33081-.05023,.01825-.10181,.03088-.15179,.04987l-4.22681,1.60577c-2.03455,.77295-3.71881,2.22449-4.78601,4.08362-.43787,.76276-.71509,1.60706-.92523,2.46106l-.54034,2.19574c-.08167,.33197,.16962,.65259,.51147,.65259h27.59509c.34186,0,.59314-.32062,.51147-.65259Zm-18.05591-1.27289c0,.09436-.06342,.17694-.1546,.20129l-2.80023,.74713c-.12238,.03265-.25116,.03265-.37347,0l-2.80023-.74713c-.09119-.02435-.15466-.10693-.15466-.20129v-.81531c0-.11505,.09326-.20831,.20837-.20831h5.86652c.11505,0,.20831,.09326,.20831,.20831v.81531Z" style="fill:#5a81ff;"/><path d="M18.26166,32.48364c.02167,.06635,.07245,.09967,.12781,.1167l-.20319-.3645,.07538,.2478Z" style="fill:#5a81ff;"/><path d="M17.08533,28.61652l1.10095,3.61932,.20319,.3645c.09369,.02887,.20483-.00446,.24152-.1167l1.17657-3.86786c-.37555,.29822-.84363,.48419-1.35754,.48419-.51782,0-.98785-.18567-1.36469-.48346Z" style="fill:#fff;"/><path d="M14.52417,26.75714l-1.07953,5.9715c-.02704,.14935,.13147,.263,.26422,.18964l1.73938-.9613c.23358-.12915,.52527-.08081,.70477,.1167l1.93231,2.12671c.19354,.21295,.52844,.21295,.72192,0l1.93237-2.12671c.1795-.19751,.47119-.24585,.70477-.1167l1.73938,.9613c.13275,.07336,.2912-.04028,.26422-.18964l-1.07953-5.9715c-.02417-.13367-.10883-.24005-.21655-.31836-.0285-.02075-.0495-.04993-.08228-.06476l-1.40698-.56934-.01263,.0415-.84247,2.76959-1.17657,3.86786c-.03668,.11224-.14783,.14557-.24152,.1167-.05536-.01703-.10614-.05035-.12781-.1167l-.07538-.2478-1.10095-3.61932-.84534-2.77893-.01001-.0329-1.40704,.56934c-.02643,.01196-.04272,.03644-.06647,.05231-.11658,.07812-.20691,.19031-.2323,.33081Z" style="fill:#374be5;"/><path d="M14.4801,34.52588h-5.86652c-.11511,0-.20837,.09326-.20837,.20831v.81531c0,.09436,.06348,.17694,.15466,.20129l2.80023,.74713c.12231,.03265,.2511,.03265,.37347,0l2.80023-.74713c.09119-.02435,.1546-.10693,.1546-.20129v-.81531c0-.11505-.09326-.20831-.20831-.20831Z" style="fill:#374be5;"/></g><g><path d="M31.2691,25.42029c-.04242-.1131-.16846-.17047-.28156-.12805l-1.82324,.68414c-1.00006,.37482-1.8103,1.13141-2.25256,2.10352l-1.57715,3.46698,2.27112,1.0329,1.1485-2.52527c.4422-.97223,1.2525-1.729,2.25262-2.10382l.85638-.32184c.11316-.04242,.17047-.16846,.12805-.28162l-.72217-1.92694Z" style="fill:#c4c4c4;"/><path d="M25.21863,31.49414c-.29413-.13373-.64093-.0033-.77399,.29108l-2.57123,5.68976,4.27081-.00006,1.841-4.08301c.13232-.2934,.00232-.63843-.29059-.77167l-.08893-.04047-2.27112-1.0329-.11597-.05273Z" style="fill:#333;"/></g><g><path d="M35.68091,24.59796c-.68481-.21118-2.24701-.63788-2.90588-.36346-.85608,.35663-1.26099,1.33972-.90436,2.19574,.35663,.85608,1.33966,1.26099,2.19574,.90436,.65887-.27441,1.45612-1.68402,1.78851-2.31891,.08612-.16461,.00348-.36298-.17401-.41772Zm-2.30145,2.06647c-.40576,.16901-.87177-.02289-1.04077-.42871-.16907-.40576,.02289-.87177,.42865-1.04077,.40576-.16907,.87177,.02289,1.04083,.42865,.16901,.40582-.02289,.87177-.42871,1.04083Z" style="fill:#ff5543;"/><path d="M32.76733,25.19495c-.40576,.16901-.59772,.63501-.42865,1.04077,.16901,.40582,.63501,.59772,1.04077,.42871,.40582-.16907,.59772-.63501,.42871-1.04083-.16907-.40576-.63507-.59772-1.04083-.42865Z" style="fill:#fb0;"/></g></g><rect y="-.02503" width="40" height="40" style="fill:none;"/></svg>