<svg id="Layer_1" data-name="Layer 1" xmlns="http://www.w3.org/2000/svg" viewBox="0 0 40 40"><defs><style>.cls-1,.cls-2{fill:none;}.cls-1{stroke:#ec4452;stroke-linecap:round;stroke-linejoin:round;stroke-width:2.5px;}</style></defs><path class="cls-1" d="M6.717,11.19l5.738-3.669Q8.992,16.063,6.062,24.809"/><path class="cls-1" d="M16.94,8.683a12.749,12.749,0,0,0-3.146,9.2,3.71,3.71,0,0,0,1.674,3.124,3.733,3.733,0,0,0,3.635-.38A11.291,11.291,0,0,0,23.018,14.5a9.881,9.881,0,0,0,.439-5.551C22.726,6.422,19.262,5.914,16.94,8.683Z"/><path class="cls-1" d="M27.94,7.583a12.749,12.749,0,0,0-3.146,9.2,3.71,3.71,0,0,0,1.674,3.124,3.733,3.733,0,0,0,3.635-.38A11.291,11.291,0,0,0,34.018,13.4a9.881,9.881,0,0,0,.439-5.551C33.726,5.322,30.262,4.814,27.94,7.583Z"/><path class="cls-1" d="M10.616,28.161a135.584,135.584,0,0,1,19.763-3.678"/><path class="cls-1" d="M5.307,34.28a158.287,158.287,0,0,1,26.521-5.294"/><rect class="cls-2" width="40" height="40"/></svg>