<?xml version="1.0" encoding="UTF-8"?><svg id="Layer_1" xmlns="http://www.w3.org/2000/svg" viewBox="0 0 40 40"><g><path d="m31.466,14.466c0-6.333-5.134-11.466-11.466-11.466s-11.466,5.134-11.466,11.466v15.902c0,3.663,2.969,6.632,6.632,6.632,2.372,0,4.447-1.249,5.619-3.121l.007.002,8.499-12.695-.012-.004c1.369-1.889,2.186-4.204,2.186-6.716Z" fill="#956759"/><path d="m18.79,25.338c0,2.137-1.732,3.869-3.869,3.869-1.829,0-3.869-2.642-3.869-2.642v-1.226c0-2.137,1.732-3.869,3.869-3.869s3.869,1.732,3.869,3.869Z" fill="#4f3632"/><path d="m27.477,15.699c0-4.536-3.677-8.213-8.213-8.213s-8.213,3.677-8.213,8.213v.202c.485-.138.986-.235,1.515-.235,3.074,0,5.567,2.492,5.567,5.567s-2.492,5.567-5.567,5.567c-.529,0-1.03-.097-1.515-.235v.524c0,2.624,2.127,4.75,4.75,4.75,1.699,0,3.185-.895,4.025-2.235h.005s6.088-9.092,6.088-9.092l-.009-.003c.981-1.353,1.566-3.011,1.566-4.81Z" fill="#7d564b"/><path d="m27.312,14.055c-.762-3.748-4.075-6.569-8.047-6.569-4.536,0-8.213,3.677-8.213,8.213v.202c.485-.138.986-.235,1.515-.235.579,0,1.137.089,1.661.252h0s4.129-8.274,13.084-1.863Z" fill="#6e4b45"/></g><rect width="40" height="40" fill="none"/></svg>