<?xml version="1.0" encoding="UTF-8"?><svg id="Layer_1" xmlns="http://www.w3.org/2000/svg" viewBox="0 0 40 40"><path d="m37.201,18.079l-.455-1.084c-.505-1.203-1.115-2.326-1.799-3.375-2.182-3.344-5.203-5.864-8.655-7.258-1.988-.802-4.114-1.237-6.303-1.237-2.093,0-4.126.405-6.037,1.14-3.476,1.337-6.536,3.799-8.759,7.098-.824,1.224-1.537,2.558-2.109,3.995l-.394.989c-4.004,10.038,2.599,17.197,12.467,17.197h9.688c9.983,0,16.584-7.399,12.358-17.464Zm-23.136,9.466c-.615,1.376-1.38,1.902-3.117,1.902-.149,0-.299-.008-.451-.024-1.919-.208-3.038-1.969-2.792-3.586.848-5.573,4.805-7.538,8.851-7.315,1.926.107,3.105,1.306,3.101,2.938-.007,2.285-.911,2.744-2.787,3.218-1.336.338-2.071,1.224-2.805,2.867Zm6.122,3.896c-1.787,0-3.235-1.12-3.235-2.503s3.235-1.485,3.235-1.485c0,0,3.235.103,3.235,1.485s-1.448,2.503-3.235,2.503Zm9.337-2.018c-.152.016-.302.024-.451.024-1.737,0-2.502-.526-3.117-1.902-.734-1.644-1.469-2.53-2.805-2.867-1.876-.474-2.781-.933-2.787-3.218-.005-1.631,1.174-2.831,3.1-2.938,4.047-.224,8.003,1.742,8.851,7.315.246,1.618-.872,3.379-2.792,3.586Z" fill="#d0d6de"/><g><path d="m12.977,21.619c-1.059,0-1.918.859-1.918,1.918s.859,1.918,1.918,1.918,1.918-.859,1.918-1.918-.859-1.918-1.918-1.918Z"/><path d="m27.043,21.619c-1.059,0-1.918.859-1.918,1.918s.859,1.918,1.918,1.918,1.918-.859,1.918-1.918-.859-1.918-1.918-1.918Z"/></g><g><path d="m13.951,6.265c-1.033-1.11-2.501-1.809-4.137-1.809-3.123,0-5.655,2.532-5.655,5.655,0,1.212.384,2.331,1.033,3.252,2.223-3.299,5.283-5.76,8.759-7.098Z" fill="#2e3d51"/><path d="m34.947,13.62c.765-.965,1.225-2.182,1.225-3.509,0-3.123-2.532-5.655-5.655-5.655-1.683,0-3.189.739-4.225,1.906,3.452,1.394,6.473,3.914,8.655,7.258Z" fill="#2e3d51"/><path d="m20.186,27.453s-3.235.103-3.235,1.485,1.448,2.503,3.235,2.503,3.235-1.12,3.235-2.503-3.235-1.485-3.235-1.485Z" fill="#2e3d51"/></g><g><path d="m19.657,21.46c.005-1.631-1.174-2.831-3.101-2.938-4.047-.224-8.003,1.742-8.851,7.315-.246,1.618.872,3.379,2.792,3.586.152.016.302.024.451.024,1.737,0,2.502-.526,3.117-1.902.734-1.644,1.469-2.53,2.805-2.867,1.876-.474,2.781-.933,2.787-3.218Zm-6.68,3.995c-1.059,0-1.918-.859-1.918-1.918s.859-1.918,1.918-1.918,1.918.859,1.918,1.918-.859,1.918-1.918,1.918Z" fill="#495b73"/><path d="m23.464,18.522c-1.926.107-3.105,1.306-3.1,2.938.007,2.285.911,2.744,2.787,3.218,1.336.338,2.071,1.224,2.805,2.867.615,1.376,1.38,1.902,3.117,1.902.149,0,.299-.008.451-.024,1.919-.208,3.038-1.969,2.792-3.586-.848-5.573-4.805-7.538-8.851-7.315Zm3.579,6.933c-1.059,0-1.918-.859-1.918-1.918s.859-1.918,1.918-1.918,1.918.859,1.918,1.918-.859,1.918-1.918,1.918Z" fill="#495b73"/></g><rect width="40" height="40" fill="none"/></svg>