<?xml version="1.0" encoding="UTF-8"?><svg id="Layer_1" xmlns="http://www.w3.org/2000/svg" viewBox="0 0 40 40"><g><g><path d="m22.015,28.62l.177-2.552c-1.433-.298-2.909-.302-4.342-.01l.212,2.561h3.953Z" fill="#e6e6e6"/><path d="m34.265,36.849l-.539-2.189c-.21-.851-.486-1.693-.922-2.454-1.064-1.854-2.743-3.301-4.771-4.071l-2.496-.948,1.915,5.189c.03.083-.007.175-.087.212l-1.802.844c-.117.055-.132.216-.027.291l1.534,1.095c.055.039.081.107.067.173l-.529,2.51h7.147c.341,0,.591-.32.51-.651Z" fill="#e6e6e6"/><path d="m12.978,34.818l1.534-1.095c.105-.075.091-.236-.027-.291l-1.803-.844c-.079-.037-.117-.129-.087-.211l1.893-5.196.127-.051-2.649,1.006c-2.028.771-3.708,2.218-4.771,4.071-.437.76-.713,1.602-.922,2.454l-.539,2.189c-.081.331.169.651.51.651h7.195l-.529-2.51c-.014-.066.013-.133.067-.173Z" fill="#e6e6e6"/><polygon points="18.062 28.62 18.797 37.5 20 37.5 21.4 37.5 22.015 28.62 18.062 28.62" fill="#1a8ead"/><path d="m27.07,34.818l-1.534-1.095c-.105-.075-.091-.236.027-.291l1.802-.844c.08-.037.117-.129.087-.212l-1.915-5.189-.003-.007-3.326-1.347-.016.235-.177,2.552-.615,8.88h5.209l.529-2.51c.014-.066-.013-.133-.067-.173Z" fill="#d4d4d4"/><path d="m18.062,28.62l-.212-2.561-.019-.225-3.215,1.296-.127.051-1.649,4.526c1.335.051,2.404,1.142,2.404,2.49,0,1.204-.851,2.208-1.985,2.445l.181.858h5.357l-.735-8.88Z" fill="#d4d4d4"/></g><g><path d="m30.331,13.299c-.241-.042-.503.269-.815.445-.121.052-.245.089-.351.096-4.841.321-12.176-5.57-12.176-5.57l-6.042,6.761c-.646-1.403-1.349-1.525-1.595-1.522-.837.63-1.383,1.588-1.383,2.67,0,1.89,1.64,3.43,3.65,3.44,1.126,2.562,3.406,4.506,6.174,5.192.009.002.017.006.026.008v3.03c0,1.21.98,2.19,2.19,2.19s2.2-.98,2.2-2.19v-3.04s.006-.002.01-.003c2.765-.682,5.032-2.63,6.16-5.187,2.01-.01,3.65-1.55,3.65-3.44,0-1.213-.683-2.269-1.699-2.88Z" fill="#956759"/><path d="m10.947,15.032l6.042-6.761s7.335,5.891,12.176,5.57c.107-.007.23-.044.351-.096.311-.175.574-.487.815-.445.009.002.018-.005.027-.002.093-6.289-5.318-11.424-11.725-10.736-4.928.529-8.874,4.534-9.339,9.469-.047.502-.059.998-.038,1.485,0,0,.04-.005.097-.006.245-.003.948.119,1.595,1.522Z" fill="#333"/><g><ellipse cx="17.427" cy="15.481" rx=".975" ry="1.17"/><ellipse cx="22.573" cy="15.481" rx=".975" ry="1.17"/></g><path d="m21.213,20.093c.219,0,.375.21.317.422-.185.671-.799,1.164-1.529,1.164s-1.344-.493-1.529-1.164c-.058-.211.098-.422.317-.422h2.425Z" fill="#5c2f17"/></g><g><path d="m17.794,24.812c-3.332.972-5.776,4.048-5.776,7.69h1.05c0-3.066,1.994-5.67,4.751-6.597v-1.085c-.009-.002-.017-.006-.026-.008Z" fill="#333"/><path d="m24.824,36.248c.13.117.298.193.487.193.406,0,.735-.329.735-.735s-.329-.735-.735-.735c-.208,0-.393.088-.527.226-.127.132-.208.31-.208.509,0,.217.098.407.248.542Z" fill="#333"/><path d="m28.749,35.157c-.129-.111-.292-.185-.475-.185-.406,0-.735.329-.735.735s.329.735.735.735c.204,0,.389-.084.522-.218.131-.133.213-.315.213-.516,0-.222-.104-.415-.26-.55Z" fill="#333"/><path d="m29.399,29.061c-.638-.726-1.52-1.216-2.509-1.311-.14-.01-.28-.02-.42-.02-1.07-1.43-2.57-2.44-4.25-2.92h-.01v1.09c1.178.389,2.246,1.078,3.066,2.026.001.001.003.003.004.004-.249.075-.485.184-.711.312-.015.009-.033.013-.048.022-.238.14-.462.306-.671.496-.163.147-.301.316-.435.487-.542.689-.855,1.542-.855,2.423h1.05c0-.159.024-.316.05-.471.007-.042.005-.085.013-.126.011-.053.035-.101.05-.153.1-.363.265-.705.496-1.006.104-.135.213-.267.341-.384.259-.233.555-.402.867-.527.425-.17.885-.249,1.363-.203.563.054,1.076.286,1.497.638.261.218.489.48.666.779.277.468.437,1.019.437,1.603h1.05c0-1.051-.396-2.025-1.041-2.759Z" fill="#333"/></g><path d="m29.399,29.061c.645.734,1.041,1.708,1.041,2.759h-1.048s0,0,0,.001v2.531c0,.395-.277.712-.643.805.156.135.26.327.26.55,0,.202-.082.384-.213.516.927-.124,1.647-.911,1.647-1.871v-2.531c0-1.052-.396-2.026-1.043-2.76Z" fill="#9e9794"/><path d="m22.56,31.67s0,.003,0,.004v2.677c0,1.046.851,1.896,1.896,1.896h.367c-.15-.135-.248-.325-.248-.542,0-.198.08-.376.208-.509h-.327c-.467,0-.846-.379-.846-.846v-2.677c0-.161.024-.319.05-.475-.026.155-.05.312-.05.471h-1.049Z" fill="#9e9794"/><path d="m12.84,31.707c-.032-.001-.063-.01-.096-.01-1.38,0-2.499,1.119-2.499,2.499s1.119,2.499,2.499,2.499c.177,0,.348-.019.515-.054,1.133-.237,1.985-1.241,1.985-2.445,0-1.348-1.069-2.438-2.404-2.49Zm-.096,3.848c-.75,0-1.358-.608-1.358-1.358s.608-1.358,1.358-1.358,1.358.608,1.358,1.358-.608,1.358-1.358,1.358Z" fill="#9e9794"/><circle cx="12.744" cy="34.196" r="1.358" fill="#d4d4d4"/></g><rect width="40" height="40" fill="none"/></svg>