<?xml version="1.0" encoding="UTF-8"?><svg id="Layer_1" xmlns="http://www.w3.org/2000/svg" viewBox="0 0 40 40"><rect width="40" height="40" style="fill:none;"/><path d="M36.61397,19.86832l-5.32837-8.36353c-5.43892-8.53705-17.14013-8.53703-22.57903,.00005L3.37827,19.86832c-3.40027,5.33717,.2487,12.32563,5.51724,14.10814,2.98043,1.25857,6.27461,2.05555,11.10061,2.05555s8.12011-.79698,11.10054-2.05555c5.26854-1.7825,8.91751-8.77097,5.51731-14.10814Z" style="fill:#ffba5e;"/><path d="M31.28018,22.50714c-2.11803,2.20913-5.55197,2.20913-7.66947,0h-.00026c-2.11803-2.2092-5.55171-2.2092-7.66974,0-2.11776,2.20913-5.55145,2.20913-7.66947,0-1.51056-1.57557-3.68457-2.00632-5.57892-1.33403-2.26688,5.11442,1.35417,11.16267,6.20319,12.80332,2.98057,1.25856,6.27449,2.05557,11.10074,2.05557,4.82573,0,8.11992-.79701,11.10048-2.05557,4.78361-1.61847,8.39603-7.52585,6.28899-12.59508-2.00396-.9666-4.45345-.59772-6.10555,1.12579Z" style="fill:#ffe3a0;"/><g><path d="M30.77351,3.84812c2.06859,2.06859,2.05821,5.43281-.02318,7.51419-2.08139,2.08139-5.44561,2.09176-7.51419,.02318-2.06859-2.06859,5.46878-9.60596,7.53737-7.53737Z" style="fill:#ffba5e;"/><path d="M9.21576,3.84812c-2.06859,2.06859-2.05821,5.43281,.02318,7.51419,2.08139,2.08139,5.44561,2.09176,7.51419,.02318,2.06859-2.06859-5.46878-9.60596-7.53737-7.53737Z" style="fill:#ffba5e;"/></g><ellipse cx="24.85199" cy="18.69657" rx="1.89971" ry="1.88803"/><ellipse cx="15.13728" cy="18.69657" rx="1.89971" ry="1.88803"/><path d="M21.32359,25.27295l.70304-1.01842c.34391-.49818-.01269-1.17768-.61805-1.17768h-2.83185c-.60218,0-.95691,.67593-.61481,1.17149l.70731,1.0246c.64109,.92868,2.01325,.92868,2.65435,0Z" style="fill:#fa878f;"/></svg>