<?xml version="1.0" encoding="UTF-8"?><svg id="Layer_1" xmlns="http://www.w3.org/2000/svg" viewBox="0 0 40 40"><g><path d="M32.09834,17.33315c.78799,.06278,1.58881-.02036,2.32429-.31009,.93266-.36741,1.90537-1.12584,1.06427-2.36747-.3191-.47106-.59688-.82187-.85264-1.09946-.95836-1.04017-1.5773-2.3358-1.99323-3.68762-.32996-1.07241-.90315-2.30078-1.77516-3.28461-2.69775-3.04368-8.33903-3.56813-12.0276-3.54403-.47424,.0031-.94074-.07511-1.39413-.21421-1.7589-.53965-6.61318-1.77184-11.04888-.55251-.47489,.13054-.68389,.68563-.39331,1.08327l.19769,.27052c1.77388,2.42743,1.54858,5.67352-.30245,8.04264-1.39431,1.78456-2.34809,4.50035-1.18134,8.46787,1.1888,4.0425,3.83164,7.57758,7.52102,9.61313,2.58945,1.42868,4.82077,1.75638,5.81349,1.82998,.3074,.02279,.55529,.25758,.59034,.56383,.14945,1.30586,.84542,4.61936,4.08128,6.08233,.16699,.0755,.35773-.06328,.33734-.24541-.1315-1.17475-.06649-4.71488,4.4023-8.93864,.13135-.12415,.03497-.34481-.14391-.31895l-7.77492,1.32423c-.37679,.06418-.75891-.02088-1.07293-.23879-1.44334-1.00158-5.39125-4.12657-4.3057-7.69336,1.03632-3.40505,3.29185-3.84915,4.21658-3.88233,.21382-.00767,.37539,.19023,.33678,.40067l-.77644,4.23162c-.05017,.27341,.18509,.51719,.45781,.46344,1.14869-.22639,3.99788-1.27894,7.73698-6.1233,.15418-.19976,.40148-.31572,.65303-.29568l5.30944,.42295Z" style="fill:#2f81f9;"/><circle cx="27.77414" cy="12.71855" r="1.23441"/><path d="M9.38991,18.39544c2.40154-6.52487,15.21024-5.27681,17.80945-3.09014,1.65283,1.39054,5.11279,1.63669,7.41689,1.6323-.06355,.02878-.12658,.06035-.19031,.08545-.73548,.2897-1.53629,.37284-2.32428,.31006l-5.30944-.42298c-.25149-.02006-.49876,.0959-.65287,.29558-3.73921,4.84451-6.58843,5.8971-7.73716,6.12349-.27267,.0537-.50796-.19007-.45776-.46346l.77642-4.23163c.03863-.21042-.12296-.40833-.33676-.40067-.92472,.03317-3.18028,.47728-4.21662,3.88235-1.08553,3.56677,2.86239,6.69174,4.30575,7.69336,.31397,.2179,.69613,.30294,1.07289,.23879l7.77496-1.32426c.17885-.02581,.27522,.19482,.1439,.31896-4.45576,4.21145-4.53338,7.74321-4.40348,8.92826,.02059,.18728-.1709,.33077-.34246,.25297-3.21719-1.45837-3.91985-4.74725-4.07313-6.06326-.03649-.31356-.27991-.5568-.59472-.58024-4.35998-1.94515-11.06276-6.66011-8.66128-13.18493Z" style="fill:#93c9ff;"/></g><rect width="40" height="40" style="fill:none;"/></svg>