<?xml version="1.0" encoding="UTF-8"?><svg id="Layer_1" xmlns="http://www.w3.org/2000/svg" viewBox="0 0 40 40"><g><g><g><path d="m35.754,24.466c-.788-2.149-3.142-4.522-6.223-4.843-3.082-.32-4.462,1.681-4.462,1.681-5.023,2.201-4.078,12.587-4.078,12.587,0,0,.456,1.781,7.86,1.781,4.514,0,6.485-.662,7.335-1.179.39-.237.635-.655.645-1.111.092-3.927-.489-7.316-1.076-8.917Zm-1.111,6.011c-.696,2.702-3.056,4.691-5.86,4.691-2.984,0-5.463-2.251-5.972-5.218-.117-.679.045-1.382.457-1.934.28-.376.53-.567.53-.567,1.49-1.329,1.959-3.162,2.091-3.882.021-.116.167-.156.243-.066.566.659,2.334,2.459,5.053,2.864,2.589.385,3.805,2.105,3.458,4.112Z" fill="#523725"/><path d="m31.185,26.365c-2.719-.404-4.487-2.205-5.053-2.864-.077-.09-.222-.051-.243.066-.132.72-.6,2.554-2.091,3.882,0,0-.25.191-.53.567-.411.552-.573,1.256-.457,1.934.509,2.967,2.989,5.218,5.972,5.218,2.805,0,5.164-1.989,5.86-4.691.346-2.007-.869-3.728-3.458-4.112Zm-3.47,2.535c-.145.306-.529.634-1.15.634s-1.005-.329-1.15-.634c-.067-.142.036-.246.17-.187.233.102.506.211.98.211s.747-.109.98-.211c.134-.059.237.045.17.187Zm1.492,4.449c-.236,0-.851-.127-.889-.663-.021-.296.247-.56.441-.706-.194-.147-.436-.292-.414-.648.029-.484.8-.621.901-.621.104,0,.169.01.17.073,0,.063-.075.085-.184.118-.334.101-.466.296-.466.436,0,.253.248.379.389.47.115.074.187.091.19.154.002.053-.072.081-.189.155-.117.074-.37.242-.37.524,0,.218.185.382.447.486.157.062.218.09.208.15-.009.06-.094.072-.234.072Zm2.998-4.449c-.145.306-.529.634-1.15.634s-1.005-.329-1.15-.634c-.067-.142.036-.246.17-.187.233.102.506.211.98.211s.747-.109.98-.211c.134-.059.237.045.17.187Z" fill="#c3846c"/><path d="m27.545,28.714c-.233.102-.506.211-.98.211s-.747-.109-.98-.211c-.134-.059-.237.045-.17.187.145.306.529.634,1.15.634s1.005-.329,1.15-.634c.067-.142-.036-.246-.17-.187Z"/><path d="m32.036,28.714c-.233.102-.506.211-.98.211s-.747-.109-.98-.211c-.134-.059-.237.045-.17.187.145.306.529.634,1.15.634s1.005-.329,1.15-.634c.067-.142-.036-.246-.17-.187Z"/><path d="m29.233,33.127c-.262-.104-.447-.269-.447-.486,0-.282.254-.45.37-.524.117-.074.192-.102.189-.155-.003-.063-.075-.08-.19-.154-.141-.091-.389-.216-.389-.47,0-.139.132-.334.466-.436.109-.033.185-.054.184-.118,0-.063-.066-.073-.17-.073-.101,0-.872.136-.901.621-.022.355.22.501.414.648-.194.147-.462.41-.441.706.038.536.652.663.889.663.14,0,.225-.012.234-.072.009-.06-.051-.088-.208-.15Z" fill="#a84900"/></g><path d="m19.132,18.934c.527.348,1.208.348,1.735,0,1.674-1.106,5.321-3.748,6.891-6.705,2.071-3.901-.361-7.792-3.575-7.792-1.832,0-2.935.957-3.545,1.781-.321.434-.956.434-1.277,0-.61-.823-1.712-1.781-3.545-1.781-3.214,0-5.647,3.891-3.575,7.792,1.57,2.957,5.218,5.599,6.891,6.705Z" fill="#ec4452"/></g><rect x="0" y="0" width="40" height="40" fill="none"/></g><g><g><path d="m17.874,24.466c-.788-2.149-3.142-4.522-6.223-4.843-3.082-.32-4.462,1.681-4.462,1.681-5.023,2.201-4.078,12.587-4.078,12.587,0,0,.456,1.781,7.86,1.781,4.514,0,6.484-.662,7.335-1.179.39-.237.635-.655.645-1.111.092-3.927-.489-7.316-1.076-8.917Zm-1.111,6.011c-.696,2.702-3.056,4.691-5.86,4.691-2.984,0-5.463-2.251-5.973-5.218-.116-.679.045-1.382.457-1.934.28-.376.53-.567.53-.567,1.491-1.329,1.959-3.162,2.091-3.882.021-.116.167-.156.244-.066.566.659,2.334,2.459,5.053,2.864,2.589.385,3.805,2.105,3.458,4.112Z" fill="#f8d585"/><path d="m13.305,26.365c-2.719-.404-4.487-2.205-5.053-2.864-.077-.09-.222-.051-.244.066-.132.72-.6,2.554-2.091,3.882,0,0-.25.191-.53.567-.411.552-.573,1.256-.457,1.934.509,2.967,2.989,5.218,5.973,5.218,2.805,0,5.164-1.989,5.86-4.691.346-2.007-.869-3.728-3.458-4.112Zm-3.47,2.535c-.145.306-.529.634-1.15.634s-1.005-.329-1.15-.634c-.067-.142.036-.246.17-.187.233.102.506.211.98.211s.747-.109.98-.211c.134-.059.237.045.17.187Zm1.164,4.449c-.14,0-.225-.012-.234-.072-.009-.06.051-.088.208-.15.262-.104.447-.269.447-.486,0-.282-.254-.45-.37-.524-.117-.074-.192-.102-.189-.155.003-.063.075-.08.19-.154.141-.091.389-.216.389-.47,0-.139-.132-.334-.466-.436-.109-.033-.185-.054-.184-.118,0-.063.066-.073.17-.073.101,0,.872.136.901.621.022.355-.22.501-.414.648.194.147.462.41.442.706-.038.536-.652.663-.889.663Zm3.327-4.449c-.145.306-.529.634-1.15.634s-1.005-.329-1.15-.634c-.067-.142.036-.246.17-.187.233.102.506.211.98.211s.747-.109.98-.211c.134-.059.237.045.17.187Z" fill="#f5af80"/><path d="m9.665,28.714c-.233.102-.506.211-.98.211s-.747-.109-.98-.211c-.134-.059-.237.045-.17.187.145.306.529.634,1.15.634s1.005-.329,1.15-.634c.067-.142-.036-.246-.17-.187Z"/><path d="m14.156,28.714c-.233.102-.506.211-.98.211s-.747-.109-.98-.211c-.134-.059-.237.045-.17.187.145.306.529.634,1.15.634s1.005-.329,1.15-.634c.067-.142-.036-.246-.17-.187Z"/><path d="m11.446,31.98c.194-.147.436-.292.414-.648-.029-.484-.8-.621-.901-.621-.104,0-.169.01-.17.073,0,.063.075.085.184.118.334.101.466.296.466.436,0,.253-.248.379-.389.47-.115.074-.187.091-.19.154-.002.053.072.081.189.155.117.074.37.242.37.524,0,.218-.185.382-.447.486-.157.062-.218.09-.208.15.009.06.094.072.234.072.236,0,.851-.127.889-.663.021-.296-.247-.56-.442-.706Z" fill="#ec6700"/></g><rect x="0" y="0" width="40" height="40" fill="none"/></g></svg>