<?xml version="1.0" encoding="UTF-8"?><svg id="Layer_1" xmlns="http://www.w3.org/2000/svg" viewBox="0 0 40 40"><g><rect x="8.5" y="2.389" width="23" height="35.221" rx="3.825" ry="3.825" fill="#333d4b"/><g><rect x="12.562" y="18.075" width="3.849" height="3.849" rx="1.155" ry="1.155" fill="#f56570"/><rect x="23.588" y="12.669" width="3.849" height="3.849" rx="1.155" ry="1.155" fill="#93c9ff"/><rect x="18.075" y="12.669" width="3.849" height="3.849" rx="1.155" ry="1.155" fill="#58c6c6"/><rect x="12.562" y="12.669" width="3.849" height="3.849" rx="1.155" ry="1.155" fill="#fff"/><rect x="18.075" y="23.482" width="3.849" height="3.849" rx="1.155" ry="1.155" fill="#64a7ff"/><rect x="23.588" y="18.075" width="3.849" height="3.849" rx="1.155" ry="1.155" fill="#fdaeb3"/><rect x="18.075" y="18.075" width="3.849" height="3.849" rx="1.155" ry="1.155" transform="translate(40 40) rotate(180)" fill="#7d9dff"/><rect x="12.562" y="23.482" width="3.849" height="3.849" rx="1.155" ry="1.155" transform="translate(28.974 50.813) rotate(-180)" fill="#5a81ff"/><rect x="23.588" y="23.482" width="3.849" height="3.849" rx="1.155" ry="1.155" fill="#58c6c6"/></g></g><rect width="40" height="40" fill="none"/><path d="m35.185,33.24c-.552,0-1-.448-1-1,0-1.496.935-2.259,1.618-2.816.64-.523.882-.768.882-1.267s-.242-.744-.883-1.268c-.682-.558-1.617-1.321-1.617-2.816s.935-2.258,1.618-2.815c.64-.522.882-.767.882-1.266s-.242-.742-.882-1.264c-.683-.557-1.618-1.319-1.618-2.813s.935-2.257,1.618-2.813c.64-.522.882-.766.882-1.263s-.242-.742-.882-1.264c-.683-.557-1.618-1.32-1.618-2.814,0-.552.448-1,1-1s1,.448,1,1c0,.498.242.742.882,1.264.683.557,1.618,1.32,1.618,2.814s-.935,2.256-1.618,2.813c-.64.522-.882.766-.882,1.264s.242.742.882,1.264c.683.557,1.618,1.319,1.618,2.813s-.935,2.258-1.618,2.815c-.64.522-.882.767-.882,1.266s.242.744.883,1.268c.682.558,1.617,1.321,1.617,2.816s-.935,2.259-1.617,2.816c-.641.523-.883.768-.883,1.268,0,.552-.448,1-1,1Z" fill="#d0d6de"/><path d="m4.815,33.24c-.552,0-1-.448-1-1,0-.5-.242-.744-.883-1.268-.683-.557-1.617-1.321-1.617-2.816s.935-2.259,1.617-2.816c.641-.523.883-.768.883-1.268s-.242-.743-.882-1.266c-.683-.558-1.618-1.321-1.618-2.815s.935-2.257,1.618-2.813c.64-.522.882-.766.882-1.264s-.242-.742-.882-1.264c-.683-.557-1.618-1.319-1.618-2.813s.935-2.257,1.618-2.814c.64-.522.882-.767.882-1.264,0-.552.448-1,1-1s1,.448,1,1c0,1.494-.935,2.257-1.618,2.814-.64.522-.882.767-.882,1.264s.242.741.882,1.263c.683.557,1.618,1.319,1.618,2.813s-.935,2.257-1.618,2.813c-.64.522-.882.766-.882,1.264s.242.743.882,1.266c.683.558,1.618,1.321,1.618,2.815s-.935,2.259-1.617,2.816c-.641.523-.883.768-.883,1.268s.242.744.882,1.267c.683.558,1.618,1.321,1.618,2.816,0,.552-.448,1-1,1Z" fill="#d0d6de"/></svg>