<svg id="Layer_1" data-name="Layer 1" xmlns="http://www.w3.org/2000/svg" viewBox="0 0 40 40"><defs><style>.cls-1{fill:#2085f7;}.cls-1,.cls-2{fill-rule:evenodd;}.cls-2{fill:#64a7ff;}.cls-3{fill:#d0d5da;}.cls-4{fill:#e5e9ee;}.cls-5{fill:#afb7c0;}.cls-6{fill:none;}</style></defs><path class="cls-1" d="M6.735,35.484a3.4,3.4,0,0,1-3.4-3.4V22.336L6.9,13.978a4,4,0,0,1,3.679-2.43H29.42a4,4,0,0,1,3.679,2.43l3.568,8.358v9.746a3.4,3.4,0,0,1-3.4,3.4Z"/><path class="cls-2" d="M36.667,22.336H3.333v9.746a3.4,3.4,0,0,0,3.4,3.4h26.53a3.4,3.4,0,0,0,3.4-3.4Z"/><path class="cls-3" d="M9.793,8.378v9.38a2.731,2.731,0,0,0,.615,1.716l7.181-5.724Z"/><path class="cls-3" d="M30.207,8.378l-7.8,5.372,7.181,5.724a2.731,2.731,0,0,0,.615-1.716Z"/><path class="cls-4" d="M21.878,14.117a3.31,3.31,0,0,1-3.756,0l-.533-.367-7.181,5.724a2.741,2.741,0,0,0,2.144,1.042h14.9a2.741,2.741,0,0,0,2.144-1.042L22.411,13.75Z"/><path class="cls-5" d="M30.207,8.378l-8.329,6.941a3.01,3.01,0,0,1-3.756,0L9.793,8.378Z"/><path class="cls-4" d="M27.448,4.516h-14.9A2.759,2.759,0,0,0,9.793,7.275v1.1l8.329,5.739a3.31,3.31,0,0,0,3.756,0l8.329-5.739v-1.1A2.759,2.759,0,0,0,27.448,4.516Z"/><rect class="cls-6" width="40" height="40"/></svg>