<svg id="Layer_1" data-name="Layer 1" xmlns="http://www.w3.org/2000/svg" viewBox="0 0 40 40"><defs><style>.cls-1,.cls-4{fill:none;}.cls-2{fill:#e5e9ee;}.cls-2,.cls-3{fill-rule:evenodd;}.cls-3{fill:#c0c7d1;}.cls-4{stroke:#d0d5da;stroke-linejoin:round;stroke-width:0.95px;}</style></defs><rect class="cls-1" width="40" height="40"/><path class="cls-2" d="M6.273,34.725V5.275a.95.95,0,0,1,.95-.95h18.5l8,8v22.4a.95.95,0,0,1-.95.95H7.223A.95.95,0,0,1,6.273,34.725Z"/><path class="cls-3" d="M26.677,12.326h7.05l-8-8v7.051A.95.95,0,0,0,26.677,12.326Z"/><line class="cls-4" x1="6.273" y1="30.036" x2="33.727" y2="30.036"/><line class="cls-4" x1="6.273" y1="25.547" x2="33.727" y2="25.547"/><line class="cls-4" x1="6.273" y1="21.059" x2="33.727" y2="21.059"/><line class="cls-4" x1="6.273" y1="16.57" x2="33.727" y2="16.57"/></svg>