<?xml version="1.0" encoding="UTF-8"?><svg id="Layer_1" xmlns="http://www.w3.org/2000/svg" viewBox="0 0 40 40"><g><path d="m32.425,13.61c.143-.583-.155-1.185-.706-1.425-.792-.344-1.163-1.667-.797-2.449.706-1.506,2.251-1.312,4.276-.386.002,0,.004.002.007.003,0,0,.983-3.307-2.71-3.722,0,0-1.456-2.346-3.681-1.901-2.225.445-2.994,2.783-2.994,2.783,0,0-2.218-.412-3.45,1.384-1.08,1.574-.636,3.478-.636,3.478,0,0-2.657-2.121-5.775.116,0,0-2.553-2.824-5.724-.116,0,0-5.324-1.398-5.661,3.481,0,0-3.705,1.762-1.211,5.844,0,0-2.358,3.825,1.324,6.039,0,0-.618,3.435,2.116,4.815.498.251,1.094.443,1.839.524.494.054.945.042,1.363-.007.368-.044.707-.119,1.017-.219,1.704-.548,2.538-1.765,2.538-1.765,0,0,.25.187.664.431,1.322.778,4.403,2.153,7.094.161.168-.124.337-.247.501-.399,0,0,.993.818,2.701,1.101.241.04.495.064.764.079.551.03,1.145.015,1.807-.112.51-.098.95-.284,1.338-.529,2.105-1.329,2.523-4.631,2.331-7.935,0,0,3.768-2.38,1.862-7.028-.091-.223-.155-.453-.204-.686-.109-.514-.12-1.045.006-1.561Zm-3.546-3.18l-2.191-.21c-.791-.076-1.174-1.006-.666-1.616l.968-1.164c.318-.382.871-.469,1.29-.202l1.389.883c.384.244.552.72.406,1.151l-.166.491c-.147.435-.574.711-1.031.667Z" fill="#edd395"/><g><path d="m25.284,31.461l1.11,3.997c.175.63.828,1,1.459.825l.802-.223c.631-.175,1-.828.825-1.459l-1.05-3.781c-.388.245-.827.431-1.338.529-.662.127-1.256.142-1.807.112Z" fill="#c3846c"/><path d="m21.318,30.68v4.458c0,.654.531,1.185,1.185,1.185h.832c.654,0,1.185-.531,1.185-1.185v-3.756c-1.708-.284-2.701-1.101-2.701-1.101-.165.152-.333.274-.501.399Z" fill="#c3846c"/><path d="m11.022,31.852v3.286c0,.654.531,1.185,1.185,1.185h.832c.654,0,1.185-.531,1.185-1.185v-4.62c-.414-.244-.664-.431-.664-.431,0,0-.834,1.217-2.538,1.765Z" fill="#c3846c"/><path d="m8.642,32.079c-.745-.081-1.341-.273-1.839-.524v3.584c0,.654.531,1.185,1.185,1.185h.832c.654,0,1.185-.531,1.185-1.185v-3.067c-.418.05-.869.061-1.363.007Z" fill="#c3846c"/><path d="m36.945,11.258l-1.747-1.907c-2.025-.926-3.571-1.12-4.276.386-.366.782.005,2.105.797,2.449.551.24.849.841.706,1.425-.126.516-.116,1.047-.006,1.561l4.038-.254c.521-.033.937-.448.97-.969l.069-1.074c.038-.59-.16-1.171-.55-1.615Zm-3.584.346c-.516,0-.934-.418-.934-.934s.418-.934.934-.934.934.418.934.934-.418.934-.934.934Z" fill="#c3846c"/><path d="m29.909,9.762l.166-.491c.146-.432-.022-.907-.406-1.151l-1.389-.883c-.42-.267-.972-.18-1.29.202l-.968,1.164c-.508.611-.125,1.541.666,1.616l2.191.21c.457.044.884-.233,1.031-.667Z" fill="#c3846c"/></g><path d="m33.362,9.736c-.516,0-.934.418-.934.934s.418.934.934.934.934-.418.934-.934-.418-.934-.934-.934Z"/></g><rect width="40" height="40" fill="none"/></svg>