<svg id="Layer_1" data-name="Layer 1" xmlns="http://www.w3.org/2000/svg" viewBox="0 0 40 40"><defs><style>.cls-1{fill:#333;}.cls-2{fill:#d64034;}.cls-3{fill:#ff5543;}.cls-4{fill:#fff;}.cls-5{fill:#af1b1b;}.cls-6{fill:none;}</style></defs><circle class="cls-1" cx="20" cy="5.648" r="3.659"/><circle class="cls-1" cx="16.288" cy="6.137" r="3.659"/><circle class="cls-1" cx="12.829" cy="7.571" r="3.659"/><circle class="cls-1" cx="9.859" cy="9.852" r="3.659"/><circle class="cls-1" cx="7.58" cy="12.824" r="3.659"/><circle class="cls-1" cx="6.147" cy="16.286" r="3.659"/><circle class="cls-1" cx="5.659" cy="20" r="3.659"/><circle class="cls-1" cx="6.147" cy="23.714" r="3.659"/><circle class="cls-1" cx="7.58" cy="27.176" r="3.659"/><circle class="cls-1" cx="9.859" cy="30.148" r="3.659"/><circle class="cls-1" cx="12.829" cy="32.429" r="3.659"/><circle class="cls-1" cx="16.288" cy="33.863" r="3.659"/><circle class="cls-1" cx="20" cy="34.352" r="3.659"/><circle class="cls-1" cx="23.712" cy="33.863" r="3.659"/><circle class="cls-1" cx="27.171" cy="32.429" r="3.659"/><circle class="cls-1" cx="30.141" cy="30.148" r="3.659"/><circle class="cls-1" cx="32.42" cy="27.176" r="3.659"/><circle class="cls-1" cx="33.853" cy="23.714" r="3.659"/><circle class="cls-1" cx="34.341" cy="20" r="3.659"/><circle class="cls-1" cx="33.853" cy="16.286" r="3.659"/><circle class="cls-1" cx="32.42" cy="12.824" r="3.659"/><circle class="cls-1" cx="30.141" cy="9.852" r="3.659"/><circle class="cls-1" cx="27.171" cy="7.571" r="3.659"/><circle class="cls-1" cx="23.712" cy="6.137" r="3.659"/><path class="cls-2" d="M23.957,4.243a.688.688,0,0,1,1.027-.2,4.69,4.69,0,0,1-4.622,8.006.689.689,0,0,1-.344-.988Z"/><path class="cls-2" d="M16.043,4.243a.688.688,0,0,0-1.027-.2,4.69,4.69,0,0,0,4.622,8.006.689.689,0,0,0,.344-.988Z"/><path class="cls-3" d="M34.318,20.336a14.318,14.318,0,0,1-28.636,0c0-7.014,4.225-12.849,10.883-14.079.848-.157,1.322.579,3.435.579s2.587-.736,3.436-.579C30.093,7.487,34.318,13.323,34.318,20.336Z"/><circle class="cls-4" cx="24.595" cy="17.064" r="3.153"/><circle cx="24.595" cy="17.064" r="1.709"/><circle class="cls-4" cx="15.405" cy="17.064" r="3.153"/><circle cx="15.405" cy="17.064" r="1.709"/><path class="cls-5" d="M20,23.7a24.011,24.011,0,0,1-8.345-1.361.6.6,0,0,0-.729.86c1.253,2.08,4.952,4.475,9.074,4.475s7.821-2.4,9.074-4.475a.6.6,0,0,0-.729-.86A24.011,24.011,0,0,1,20,23.7Z"/><path class="cls-4" d="M13.184,22.823l.058,2.2.057,2.169a.57.57,0,0,0,1.055.283l.956-1.559,1.471-2.4A23.635,23.635,0,0,1,13.184,22.823Z"/><path class="cls-4" d="M26.816,22.823l-.058,2.2L26.7,27.188a.57.57,0,0,1-1.055.283l-.956-1.559-1.471-2.4A23.635,23.635,0,0,0,26.816,22.823Z"/><rect class="cls-6" width="40" height="40"/></svg>