<?xml version="1.0" encoding="UTF-8"?><svg id="Layer_1" xmlns="http://www.w3.org/2000/svg" viewBox="0 0 40 40"><g><path d="M22.46106,35.28491c-.25366,.24579-.38934,.53638-.38934,.83386v.25531c0,.34564,.42426,.62592,.94763,.62592h1.01184c.74792,0,1.43127-.28003,1.76349-.72266l.27002-.35974c.06934-.09241,.10535-.19409,.10535-.29718v-1.70081h-2.30011l-1.40887,1.3653Z" style="fill:#2e3d51;"/><path d="M27.81262,35.62042c0,.10309,.03607,.20477,.10541,.29718l.27002,.35974c.33221,.44263,1.01556,.72266,1.76349,.72266h1.01184c.52338,0,.94763-.28027,.94763-.62592v-.25531c0-.29749-.13568-.58807-.38934-.83386l-1.40887-1.3653h-2.30017v1.70081Z" style="fill:#2e3d51;"/></g><g><polygon points="26.92462 22.8313 23.3222 22.8313 23.50562 33.91962 23.86993 33.91962 26.17004 33.91962 26.45215 33.91962 26.93976 25.77966 26.91437 25.35577 26.92462 22.8313" style="fill:#30587f;"/><polygon points="26.92462 22.8313 26.91437 25.35577 26.93976 25.77966 27.42731 33.91962 27.81262 33.91962 30.11279 33.91962 30.3739 33.91962 30.55731 22.8313 26.92462 22.8313" style="fill:#30587f;"/></g><path d="M32.90308,17.81628l-.74133-2.9538c-.14929-1.2002-.97443-2.20801-2.12158-2.59125l-2.40186-.80237v.25323c0,.43634-.35376,.7901-.79016,.7901s-.7901-.35376-.7901-.7901v-.22504l-2.48175,.83984c-1.03137,.349-1.80841,1.20734-2.05341,2.26825l-1.17535,3.40778,.44513,.12134,2.01056,.54816,.57294,.15619-.29315,3.99268h7.72626l-.36243-4.02435,.30389-.12256,1.95355-.7879,.19879-.0802Z" style="fill:#64a7ff;"/><g><path d="M20.01147,21.42908l.97125,4.09644c.00916,.03906,.00018,.07654,.00378,.11554,.0025,.01642,.0127,.02979,.0144,.04681,.00342,.03406-.00995,.06421-.00964,.09747-.00275,.03906-.00281,.07678-.01129,.11426-.04633,.55859-.46234,1.02783-1.04022,1.08575-.10193,.01019-.19641-.0144-.29321-.02924,.125,.06537,.263,.11078,.4137,.12585,.65143,.06531,1.23224-.40997,1.29749-1.0611,.03931-.39258-.13202-.74414-.4057-.98779l1.8512-6.35065-2.01056-.54816-.78119,3.2948Z" style="fill:#ffcca8;"/><path d="M34.53986,25.73773c-.0036-.039,.00537-.07654-.00378-.11554l-1.83179-7.72571-1.95355,.7879,1.85059,6.34869c-.27368,.24365-.44501,.59521-.40564,.98779,.06525,.65112,.64606,1.1264,1.29749,1.0611,.57782-.05786,.99384-.5271,1.04016-1.08575,.00848-.03741,.00854-.07513,.01129-.11426-.00024-.03326,.01306-.06342,.00964-.09747-.00171-.01697-.0119-.0304-.0144-.04675Z" style="fill:#ffcca8;"/><path d="M30.57001,6.91998c-.08002,0-.16998,.09003-.28003,.15002-.03998,.01996-.07996,.02997-.12,.03998-.32996,.02002-.69-.03998-1.06-.15002-1.59998-.45996-3.34998-1.87-3.34998-1.87l-1.52002,1.70001-.66998,.75c-.21002-.46997-.44-.53998-.54999-.54999-.31,.21997-.53003,.56-.53003,.96002,0,.69,.60004,1.25,1.33002,1.25,.40997,.92999,1.22998,1.62,2.23999,1.87v.64996c0,.44,.34998,.79004,.78998,.79004,.43005,0,.79004-.35004,.79004-.79004v-.64996c1-.25,1.82996-.94,2.23999-1.87,.72998,0,1.32001-.56,1.32001-1.25,0-.44-.26001-.81-.63-1.03003Zm-2.78998,.35999c.18994,0,.34998,.19,.34998,.42004,0,.22998-.16003,.41998-.34998,.41998-.20001,0-.35004-.19-.35004-.41998,0-.23004,.15002-.42004,.35004-.42004Zm-1.86005,0c.19,0,.35004,.19,.35004,.42004,0,.22998-.16003,.41998-.35004,.41998-.20001,0-.35999-.19-.35999-.41998,0-.23004,.15997-.42004,.35999-.42004Zm2.07001,2.34003l-.59998-.07001c-.07001,.22998-.29004,.39001-.54004,.39001s-.45996-.16003-.53998-.38l-.52002,.06c-.20996,0-.31-.25-.15997-.40002,.28998-.26996,.75-.45001,1.26001-.45001s.96997,.18005,1.26001,.45001c.15997,.15002,.06,.40002-.16003,.40002Z" style="fill:#ffcca8;"/></g><g><path d="M23.57068,7.53699l.66992-.74963,1.51758-1.69812s1.75366,1.40833,3.35138,1.87372c.36841,.1073,.72852,.16449,1.05695,.1427,.03857-.00256,.08313-.01599,.12714-.03479,.10498-.0592,.1936-.1507,.27588-.15228,.00928-.00018,.01971-.01202,.02881-.0094,.03351-2.27686-1.92529-4.13586-4.24512-3.88678-1.78412,.19165-3.21289,1.64172-3.3811,3.42822-.01715,.18176-.02155,.36121-.01392,.5376,0,0,.02283-.00464,.06049-.00134,.10687,.00946,.33881,.08728,.552,.55011Z" style="fill:#333;"/><path d="M26.66711,9.51025c.14868-.01935,.29926-.01935,.44794,0l.27563,.03595,.60315,.07861c.2113,0,.31268-.25903,.15814-.40314-.2937-.27386-.74902-.44983-1.26093-.44983-.51184,0-.96716,.17596-1.26093,.44983-.15454,.1441-.05316,.40314,.15814,.40314l.52222-.06805,.35663-.04651Z" style="fill:#333;"/></g><g><path d="M10.29321,33.82294l-1.40887,1.3653c-.25372,.24585-.3894,.53644-.3894,.83392v.25525c0,.3457,.42432,.62592,.94769,.62592h1.01178c.74799,0,1.43127-.27997,1.76349-.7226l.27002-.3598c.06934-.09235,.10541-.19403,.10541-.29718v-1.70361l-2.30011,.00281h0Z" style="fill:#2e3d51;"/><path d="M14.2359,35.52374c0,.10315,.03607,.20483,.10541,.29718l.27002,.3598c.33221,.44263,1.0155,.7226,1.76349,.7226h1.01184c.52332,0,.94763-.28021,.94763-.62592v-.25525c0-.29749-.13568-.58807-.38934-.83392l-1.40924-1.3656-2.2998-.0025v1.70361Z" style="fill:#2e3d51;"/></g><path d="M9.65796,22.13934l.04791,4.65686c.00403,.14191,.12024,.25488,.26221,.25488h6.87122c.14374,0,.26068-.11572,.26227-.25946l-.03113-4.65228h-7.41248Z" style="fill:#ec3f00;"/><path d="M19.34967,17.71967l-.74133-2.9538c-.14923-1.2002-.97437-2.20807-2.12152-2.59131l-2.40198-.80237v.25323c0,.4364-.35376,.79016-.79016,.79016-.43634,0-.7901-.35376-.7901-.79016v-.22498l-2.48163,.83978c-1.03137,.349-1.80841,1.20734-2.05341,2.26825l-1.17542,3.40778,.44519,.1214,2.01056,.5481,.57288,.15619-.29309,3.3974h7.72626l-.36249-3.42902,.30396-.12262,1.95355-.7879,.19873-.08014Z" style="fill:#fa878f;"/><path d="M10.26666,8.26624c-.05817-.33868,.02264-.68958,.22791-.96509,.13977-.18756,.26453-.2829,.26453-.2829,.74359-.6629,.97729-1.57745,1.04315-1.93689,.01062-.05798,.08307-.07758,.12146-.03284,.28241,.3288,1.16461,1.22711,2.52094,1.42871,1.29169,.19202,1.89813,1.05029,1.72528,2.05164-.2749,1.06653-1.07257,1.90143-2.08508,2.20746v.36853c1.69611-.06842,2.49109-.34991,2.85889-.57513,.19385-.11871,.31226-.328,.3175-.55524,.04535-1.95746-.24426-3.64648-.53705-4.44458-.39325-1.07202-1.56738-2.25623-3.1048-2.41595s-2.22632,.83862-2.22632,.83862c-2.21936,.9726-2.10327,5.14825-2.04773,6.09021,.01001,.17017,.08386,.32544,.22003,.42798,.30945,.23297,1.07751,.56146,2.93921,.63409v-.3432c-1.14111-.30243-2.02789-1.27148-2.23792-2.49542Z" style="fill:#333;"/><g><polygon points="10.29321 33.82294 10.29321 33.82294 12.59332 33.82013 13.13263 27.05109 10.28937 27.05109 10.29321 33.82294" style="fill:#956759;"/><polygon points="14.2359 33.82013 16.53571 33.82263 16.53577 33.82263 16.48407 27.05109 13.61499 27.05109 14.2359 33.82013" style="fill:#956759;"/><path d="M5.46393,25.52551c-.00916,.03906-.00018,.07654-.00378,.11554-.0025,.01642-.0127,.02979-.0144,.04681-.00342,.03406,.00989,.06421,.00964,.09747,.00275,.03906,.00281,.07678,.01129,.11426,.04633,.55859,.46234,1.02783,1.04016,1.08575,.65143,.06525,1.23224-.41003,1.29749-1.06116,.03937-.39258-.13196-.74408-.40564-.98779l1.8512-6.35065-2.01056-.5481-1.77539,7.48785Z" style="fill:#956759;"/><path d="M20.97998,25.8996c.00848-.03748,.00854-.0752,.01129-.11426-.00031-.03326,.01306-.06342,.00964-.09747-.00171-.01703-.0119-.0304-.0144-.04681-.0036-.039,.00537-.07648-.00378-.11554l-.97125-4.09644-.86053-3.62927-1.95355,.7879,1.85059,6.34869c-.27368,.24371-.44501,.59521-.4057,.98779,.05505,.54926,.48267,.95178,1.00427,1.03192,.0968,.01483,.19128,.03943,.29321,.02924,.57788-.05792,.9939-.52716,1.04022-1.08575Z" style="fill:#956759;"/><path d="M14.44,6.47998c-1.34998-.20001-2.22998-1.09998-2.52002-1.42999-.02997-.04999-.10999-.03003-.12,.02997-.06,.36005-.29999,1.28003-1.03998,1.94,0,0-.13,.09003-.27002,.28003-.20001,.27997-.27997,.63-.21997,.96997,.20996,1.22003,1.08997,2.19,2.22998,2.49005v.87c0,.42999,.35999,.78998,.78998,.78998,.44,0,.79004-.35999,.79004-.78998v-.89001c1.01996-.31,1.82001-1.14001,2.08997-2.21002,.17004-1-.42999-1.85999-1.72998-2.04999Zm-1.64001,2.89001h.84003c.07996,0,.13,.07001,.10999,.14001-.06,.23999-.27002,.40997-.53003,.40997-.25,0-.45996-.16998-.52997-.40997-.02002-.07001,.03998-.14001,.10999-.14001Zm-.46997-1.37c-.17999,0-.33002-.19-.33002-.41003,0-.21997,.15002-.39996,.33002-.39996,.19,0,.33997,.17999,.33997,.39996,0,.22003-.14996,.41003-.33997,.41003Zm1.77997,0c-.17999,0-.32996-.19-.32996-.41003,0-.21997,.14996-.39996,.32996-.39996,.19,0,.34003,.17999,.34003,.39996,0,.22003-.15002,.41003-.34003,.41003Z" style="fill:#956759;"/></g><g><g><path d="M25.91644,8.12317c.19495,0,.35291-.18964,.35291-.42352s-.15796-.42346-.35291-.42346c-.19489,0-.35291,.18958-.35291,.42346s.15802,.42352,.35291,.42352Z"/><path d="M27.77985,8.12317c.19489,0,.35291-.18964,.35291-.42352s-.15802-.42346-.35291-.42346c-.19495,0-.35291,.18958-.35291,.42346s.15796,.42352,.35291,.42352Z"/></g><g><path d="M12.3338,7.18732c-.1861,0-.33691,.18103-.33691,.4043,0,.22333,.15082,.40436,.33691,.40436s.33698-.18103,.33698-.40436c0-.22327-.15088-.4043-.33698-.4043Z"/><path d="M14.11285,7.18732c-.1861,0-.33698,.18103-.33698,.4043,0,.22333,.15088,.40436,.33698,.40436,.18604,0,.33691-.18103,.33691-.40436,0-.22327-.15088-.4043-.33691-.4043Z"/></g></g><g><path d="M26.66711,9.51025l-.35663,.04651c.07831,.22388,.28705,.38678,.53766,.38678,.25476,0,.46747-.1676,.54254-.39734l-.27563-.03595c-.14868-.01935-.29926-.01935-.44794,0Z" style="fill:#5c2f17;"/><path d="M13.64282,9.36798h-.83899c-.07556,0-.12915,.07251-.10919,.14539,.06372,.23218,.27631,.40271,.52869,.40271s.4649-.17053,.52863-.40271c.02002-.07288-.03357-.14539-.10913-.14539Z" style="fill:#5c2f17;"/></g></svg>