<svg id="Layer_1" data-name="Layer 1" xmlns="http://www.w3.org/2000/svg" viewBox="0 0 40 40"><defs><style>.cls-1{fill:#3e5af4;}.cls-2{fill:#5a81ff;}.cls-3{fill:none;}</style></defs><path class="cls-1" d="M20,18.47a11.05,11.05,0,0,1-3.756-.615l.608-1.549a10.277,10.277,0,0,0,6.347-.014l.527,1.578A11.744,11.744,0,0,1,20,18.47Z"/><path class="cls-1" d="M11.039,9.42a.831.831,0,0,1-.789-1.1l1.936-5.757a.832.832,0,0,1,1.577.529L11.828,8.853A.833.833,0,0,1,11.039,9.42Z"/><path class="cls-1" d="M28.962,9.42a.832.832,0,0,1-.789-.567L26.237,3.1a.832.832,0,0,1,1.578-.529l1.936,5.757a.832.832,0,0,1-.789,1.1Z"/><path class="cls-2" d="M16.146,11.7a14.1,14.1,0,0,0-4.163-3.721,1.546,1.546,0,0,0-1.571-.028l-.156.091c-3.6,2.143-5.07,6.306-3.288,9.3s6.144,3.682,9.742,1.539c.066-.039.13-.079.2-.119a2.264,2.264,0,0,0,1.025-2.305A12.55,12.55,0,0,0,16.146,11.7Z"/><path class="cls-2" d="M23.854,11.7a14.1,14.1,0,0,1,4.163-3.721,1.546,1.546,0,0,1,1.571-.028l.156.091c3.6,2.143,5.07,6.306,3.288,9.3s-6.144,3.682-9.742,1.539c-.066-.039-.13-.079-.2-.119a2.264,2.264,0,0,1-1.025-2.305A12.55,12.55,0,0,1,23.854,11.7Z"/><path class="cls-2" d="M32.558,26.687v1.344a19.172,19.172,0,0,0-7.838,4.562A15.735,15.735,0,0,0,21.2,37.251,1.251,1.251,0,0,1,20.08,38h-.16a1.251,1.251,0,0,1-1.124-.749,15.747,15.747,0,0,0-3.515-4.658,19.181,19.181,0,0,0-7.839-4.562V26.687Z"/><rect class="cls-3" width="40" height="40"/></svg>