<?xml version="1.0" encoding="UTF-8"?><svg id="Layer_1" xmlns="http://www.w3.org/2000/svg" viewBox="0 0 40 40"><g><path d="m34.706,36.88l-.513-2.086c-.2-.811-.463-1.613-.879-2.338-1.014-1.766-2.614-3.145-4.546-3.879l-4.015-1.525c-.501-.19-1.015-.331-1.534-.44-.001,1.159-.941,2.088-2.09,2.088-1.16,0-2.1-.93-2.1-2.09v-.002c-.526.109-1.046.252-1.554.445l-4.015,1.525c-1.932.734-3.532,2.113-4.546,3.879-.416.725-.679,1.526-.879,2.338l-.513,2.086c-.078.315.161.62.486.62h26.211c.325,0,.563-.305.486-.62Z" fill="#e0decc"/><g><path d="m30.733,10.86c-.089-.243-.198-.488-.316-.733-.015.027-.033.065-.046.087-.065.114-.177.187-.307.207l-9.672,1.49c1.099.671,2.456,1.272,4.076,1.51,3.55.522,5.216,2.855,4.741,5.577-.955,3.665-4.189,6.362-8.034,6.362-4.091,0-7.49-3.053-8.188-7.076-.16-.921.062-1.874.626-2.623.384-.51.727-.769.727-.769.811-.715,1.394-1.536,1.822-2.329l-4.875.751c-1.301,4.908-.795,10.469-.795,10.469,0,0,.625,2.442,10.776,2.442,6.189,0,8.89-.908,10.056-1.616.534-.325.87-.898.885-1.523.126-5.384-.671-10.03-1.476-12.224Z" fill="#ff9000"/><path d="m21.13,28.7c1.149,0,2.088-.929,2.09-2.088,0,0,0-.002,0-.002v-1.51c2.91-.76,5.21-3.11,5.99-6.1.47-2.72-1.19-5.06-4.74-5.58-1.62-.24-2.98-.84-4.08-1.51l-4.23.65c-.43.8-1.01,1.62-1.82,2.33,0,0-.34.26-.73.77-.56.75-.78,1.7-.62,2.62.57,3.3,2.95,5.94,6.04,6.78v1.55c0,1.16.94,2.09,2.1,2.09Z" fill="#ffc84d"/><path d="m22.265,21.407c.208,0,.355.199.3.4-.175.638-.759,1.107-1.453,1.107s-1.278-.469-1.453-1.107c-.055-.2.092-.4.3-.4h2.306Z" fill="#5c2f17"/><g><ellipse cx="18.668" cy="16.526" rx=".926" ry="1.111"/><ellipse cx="23.557" cy="16.526" rx=".926" ry="1.111"/></g></g><path d="m30.42,10.13c-.02.02-.04.06-.05.08-.06.12-.18.19-.31.21l-9.67,1.49-4.23.65-4.87.75-.25.04c-.57.09-1.16-.01-1.67-.27l-.87-.44c-.96-.5-1.16-1.78-.4-2.54,1.63-1.61,4.6-4.12,8.84-5.9.4-.17.8-.32,1.19-.46l-.11-.32c-.12-.37.07-.76.43-.88.37-.13.76.07.88.43l.13.36c5.56-1.51,9.94.07,11.07,2.26,1.05,2.02.25,3.88-.11,4.54Z" fill="#262626"/><g><path d="m18.745,33.643c-3.204-5.55-8.788-8.326-12.472-6.199-2.842,1.641-3.723,5.721-2.504,10.05h16.613c-.361-1.281-.905-2.584-1.636-3.851Zm-12.28,2.382c-.751,0-1.36-.609-1.36-1.36s.609-1.36,1.36-1.36,1.36.609,1.36,1.36-.609,1.36-1.36,1.36Zm2.128-4.436c-.751,0-1.36-.609-1.36-1.36s.609-1.36,1.36-1.36,1.36.609,1.36,1.36-.609,1.36-1.36,1.36Zm4.783,1.608c-.751,0-1.36-.609-1.36-1.36s.609-1.36,1.36-1.36,1.36.609,1.36,1.36-.609,1.36-1.36,1.36Zm2.997,3.437c-.751,0-1.36-.609-1.36-1.36s.609-1.36,1.36-1.36,1.36.609,1.36,1.36-.609,1.36-1.36,1.36Z" fill="#eab894"/><path d="m6.465,33.304c-.751,0-1.36.609-1.36,1.36s.609,1.36,1.36,1.36,1.36-.609,1.36-1.36-.609-1.36-1.36-1.36Z" fill="#42ad41"/><path d="m8.593,28.867c-.751,0-1.36.609-1.36,1.36s.609,1.36,1.36,1.36,1.36-.609,1.36-1.36-.609-1.36-1.36-1.36Z" fill="#ff5543"/><path d="m13.377,30.475c-.751,0-1.36.609-1.36,1.36s.609,1.36,1.36,1.36,1.36-.609,1.36-1.36-.609-1.36-1.36-1.36Z" fill="#8e80ff"/><path d="m16.374,33.912c-.751,0-1.36.609-1.36,1.36s.609,1.36,1.36,1.36,1.36-.609,1.36-1.36-.609-1.36-1.36-1.36Z" fill="#ffd152"/></g><g><g><path d="m36.436,19.876c.015.07.031.145.047.221-.016-.076-.031-.151-.047-.221Z" fill="#d9d9d9"/><path d="m36.279,19.187c.006.024.013.053.021.087-.009-.036-.015-.062-.021-.087Z" fill="#d9d9d9"/><path d="m36.506,20.212c.024.117.048.239.072.365-.024-.126-.048-.249-.072-.365Z" fill="#d9d9d9"/><path d="m36.318,19.352c.009.038.019.081.029.126-.011-.047-.02-.087-.029-.126Z" fill="#d9d9d9"/><path d="m36.372,19.586c.012.051.024.107.037.165-.013-.058-.025-.113-.037-.165Z" fill="#d9d9d9"/><path d="m36.726,21.453l-2.291-.796c-.599.565-1.149,1.164-1.291,1.574-.347,1,.182,2.091,1.181,2.439,1,.347,2.091-.182,2.439-1.181.142-.41.082-1.221-.038-2.035Z" fill="#d9d9d9"/><path d="m36.673,21.113c.014.088.029.175.042.264-.013-.088-.027-.176-.042-.264Z" fill="#d9d9d9"/><path d="m36.595,20.668c.018.099.037.199.054.301-.018-.102-.036-.202-.054-.301Z" fill="#d9d9d9"/><path d="m35.954,19.345c.038-.031.074-.059.106-.084-.032.026-.067.053-.106.084Z" fill="#d9d9d9"/><path d="m34.489,20.606c.066-.062.132-.122.198-.183-.066.06-.132.121-.198.183Z" fill="#d9d9d9"/><path d="m35.458,19.751c.064-.054.127-.107.186-.155-.059.049-.122.101-.186.155Z" fill="#d9d9d9"/><path d="m35.73,19.526c.051-.041.1-.081.144-.118-.045.036-.093.076-.144.118Z" fill="#d9d9d9"/><path d="m34.795,20.325c.081-.073.161-.144.241-.213-.08.069-.16.14-.241.213Z" fill="#d9d9d9"/><path d="m35.091,20.064c.098-.085.194-.167.286-.245-.092.078-.188.16-.286.245Z" fill="#d9d9d9"/><path d="m36.117,19.214c.032-.025.06-.048.082-.064-.022.017-.048.037-.082.064Z" fill="#d9d9d9"/><path d="m36.258,19.104s.005.02.011.044c-.007-.028-.011-.044-.011-.044Z" fill="#d9d9d9"/><path d="m36.22,19.133c.022-.017.038-.029.038-.029,0,0-.014.011-.038.029Z" fill="#d9d9d9"/><path d="m36.727,21.453c-.004-.026-.008-.051-.012-.076-.013-.088-.028-.176-.042-.264-.008-.048-.016-.096-.024-.144-.018-.102-.036-.203-.054-.301-.006-.03-.011-.061-.017-.091-.024-.126-.048-.249-.072-.365-.008-.04-.016-.076-.024-.115-.016-.076-.032-.152-.047-.221-.01-.044-.018-.083-.027-.125-.013-.057-.025-.114-.037-.165-.009-.039-.017-.073-.025-.108-.01-.045-.02-.088-.029-.126-.007-.029-.013-.054-.018-.077-.008-.034-.015-.063-.021-.087-.004-.015-.007-.029-.01-.039-.006-.024-.011-.044-.011-.044,0,0-.016.012-.038.029-.006.005-.013.01-.021.017-.021.017-.049.039-.082.064-.018.014-.037.029-.058.046-.032.025-.068.054-.106.084-.026.021-.051.041-.08.064-.045.036-.094.076-.144.118-.029.023-.055.045-.085.07-.059.048-.122.101-.186.155-.028.023-.053.044-.081.068-.092.078-.188.16-.286.245-.018.016-.037.032-.055.048-.079.069-.16.14-.241.213-.036.032-.071.065-.107.098-.066.06-.132.121-.198.183-.018.017-.037.034-.055.051h.001s2.291.796,2.291.796h.001Z" fill="#5a81ff"/></g><polygon points="30.542 37.5 35.282 24.702 33.576 24.109 29.229 37.5 30.542 37.5" fill="#a3a3a3"/></g><circle cx="21.115" cy="32.995" r=".592" fill="#807e74"/><circle cx="21.115" cy="35.864" r=".592" fill="#807e74"/><path d="m21.115,27.813c-.865,0-1.626-.43-2.093-1.084v.672c0,.532.444,1.618.923,2.634.465.988,1.875.988,2.34,0,.479-1.017.923-2.102.923-2.634v-.672c-.467.654-1.228,1.084-2.093,1.084Z" fill="#ff7d7d"/></g><rect x=".041" width="40" height="40" fill="none"/></svg>