<?xml version="1.0" encoding="UTF-8"?><svg id="Layer_1" xmlns="http://www.w3.org/2000/svg" viewBox="0 0 40 40"><g><ellipse cx="20" cy="20.578" rx="14.191" ry="16.319" fill="#ffcca8"/><g><ellipse cx="8.181" cy="21.349" rx="5.681" ry="5.328" fill="#ffcca8"/><ellipse cx="31.819" cy="21.349" rx="5.681" ry="5.328" fill="#ffcca8"/></g><path d="m21.879,29.538c.339,0,.58.326.49.653-.286,1.04-1.238,1.804-2.369,1.804s-2.083-.764-2.369-1.804c-.09-.327.151-.653.49-.653h3.757Z" fill="#5c2f17"/><path d="m20,26.459c-2.585,0-4.884.888-6.367,2.271-.78.728-.268,2.036.799,2.036l4.438-.578c.751-.098,1.511-.098,2.262,0l4.438.578c1.067,0,1.579-1.308.799-2.036-1.483-1.383-3.782-2.271-6.367-2.271Z" fill="#d9d9d9"/><ellipse cx="20" cy="11.227" rx="12.29" ry="8.124" fill="#ffcca8"/><path d="m6.238,20.963c-.111.265-.49.257-.59-.013l-1.303-3.525s-1.225-3.406-.259-6.191c.508-1.466,1.769-2.536,3.275-2.908.183-.045.382-.089.598-.131.545-.105,1.056.303,1.056.858,0,1.33,0,3.617,0,4.695,0,.386-.141.755-.395,1.045l-.832.946c-.661.751-1.083,1.682-1.213,2.674l-.335,2.549Z" fill="#d9d9d9"/><path d="m33.391,20.963c.111.265.49.257.59-.013l1.303-3.525s1.225-3.406.259-6.191c-.508-1.466-1.769-2.536-3.275-2.908-.183-.045-.382-.089-.598-.131-.545-.105-1.056.303-1.056.858,0,1.33,0,3.617,0,4.695,0,.386.141.755.395,1.045l.832.946c.661.751,1.083,1.682,1.213,2.674l.335,2.549Z" fill="#d9d9d9"/><g><ellipse cx="16.013" cy="20.264" rx="1.51" ry="1.812"/><ellipse cx="23.987" cy="20.264" rx="1.51" ry="1.812"/></g></g><rect width="40" height="40" fill="none"/></svg>