<?xml version="1.0" encoding="UTF-8"?><svg id="Layer_1" xmlns="http://www.w3.org/2000/svg" viewBox="0 0 40 40"><g><path d="M36.41998,24.18994v11.9502h-4.28998c0-2.25-1.37-4.17017-3.31-5,.77002-.4502,1.39001-1.12012,1.76001-1.94019,.92999,0,1.69-.70996,1.69-1.59009,0-.56982-.32001-1.05981-.80005-1.34985,.05005,.01001,.08002,.01001,.12006,.01001,.03998-2.8999-2.46002-5.28003-5.42004-4.95996-2.27997,.23999-4.10999,2.09985-4.32001,4.37988-.01996,.21997-.02997,.43018-.01996,.6499-.41003,.29004-.67999,.75-.67999,1.27002,0,.88013,.75,1.59009,1.69,1.59009,.35999,.82007,.97998,1.48999,1.75995,1.94019-1.94995,.82983-3.31,2.75-3.31,5h-.82001v-11.9502c0-.90991-.16998-1.79004-.46997-2.60986,.84003-2.31006,2.78003-4.14014,5.21997-4.93994,.81006,.55981,1.75,.87988,2.76001,.87988s1.95001-.32007,2.75-.87988c3.31,1.07983,5.69,4.0498,5.69,7.5498Z" style="fill:#5268e9;"/><path d="M34.08002,10.28003c0,.05005-.01001,.09009-.01001,.09009l-.77002,.69995c-.14996,.13989-.39001,.03979-.39996-.16016-.03003-.35986-.15002-.85986-.47003-1.32007-.42999-.61987-1.23999-1.15991-2.79999-1.13989-3.67999,.05005-4.39001-2.11987-4.39001-2.11987,0,0-.58002,1.85986-1.27997,3.31006-.23004,.47998-.48004,.90991-.72003,1.21973-.17999,.22021-.5,.25-.71997,.07007l-.63-.55005s-.01001-.04004-.01001-.10986c-.34003,.35986-.54999,.83008-.54999,1.33984,0,.9502,.69,1.74023,1.63,1.96021,.42999,1.28979,1.23999,2.36987,2.25995,3.07007,.81006,.55981,1.75,.87988,2.76001,.87988s1.95001-.32007,2.75-.87988c1.03003-.7002,1.83002-1.78027,2.27002-3.07007,.92999-.21997,1.63-1.01001,1.63-1.96021,0-.50977-.22003-.97998-.54999-1.32983Zm-7.62,1.61011c-.31,0-.57001-.31006-.57001-.69019,0-.37988,.26001-.68994,.57001-.68994,.32001,0,.57996,.31006,.57996,.68994,0,.38013-.25995,.69019-.57996,.69019Zm1.51996,3.76978c-.42999,0-.78998-.28979-.89996-.68994-.04004-.11987,.04999-.25,.17999-.25h1.42999c.13,0,.21997,.13013,.19,.25-.10999,.40015-.47003,.68994-.90002,.68994Zm1.51001-3.76978c-.32001,0-.57001-.31006-.57001-.69019,0-.37988,.25-.68994,.57001-.68994s.58002,.31006,.58002,.68994c0,.38013-.26001,.69019-.58002,.69019Z" style="fill:#ffc84d;"/><path d="M27.03998,11.19995c0,.38013-.25995,.69019-.57996,.69019-.31,0-.57001-.31006-.57001-.69019,0-.37988,.26001-.68994,.57001-.68994,.32001,0,.57996,.31006,.57996,.68994Z"/><path d="M30.07001,11.19995c0,.38013-.26001,.69019-.58002,.69019s-.57001-.31006-.57001-.69019c0-.37988,.25-.68994,.57001-.68994s.58002,.31006,.58002,.68994Z"/><path d="M34.08002,10.28003c0,.05005-.01001,.09009-.01001,.09009l-.77002,.69995c-.14996,.13989-.39001,.03979-.39996-.16016-.03003-.35986-.15002-.85986-.47003-1.32007-.42999-.61987-1.23999-1.15991-2.79999-1.13989-3.67999,.05005-4.39001-2.11987-4.39001-2.11987,0,0-.58002,1.85986-1.27997,3.31006-.23004,.47998-.48004,.90991-.72003,1.21973-.17999,.22021-.5,.25-.71997,.07007l-.63-.55005s-.01001-.04004-.01001-.10986c-.03003-.66016-.09003-4.33008,2.76001-5.03003,0,0,1.69-1.84985,4.54999-1.26001,2.87,.58008,4.40997,2.84009,4.67999,4.12988,.22003,1.08008,.22003,1.91016,.21002,2.17017Z" style="fill:#f80;"/><path d="M28.88,14.96997c-.10999,.40015-.47003,.68994-.90002,.68994s-.78998-.28979-.89996-.68994c-.04004-.11987,.04999-.25,.17999-.25h1.42999c.13,0,.21997,.13013,.19,.25Z" style="fill:#5c2f17;"/></g><g><path d="M20.46997,24.18994v11.9502h-1.75995c0-2.25-1.36005-4.17017-3.31-5,.77997-.4502,1.39996-1.12012,1.75995-1.94019,.94,0,1.69-.70996,1.69-1.59009,0-.56982-.31995-1.05981-.78998-1.34985,.03998,.01001,.07001,.01001,.10999,.01001,.04999-2.8999-2.45996-5.28003-5.41998-4.95996-2.28003,.23999-4.09998,2.09985-4.32001,4.37988-.02002,.21997-.02002,.43018-.01001,.6499-.41998,.29004-.69,.75-.69,1.27002,0,.88013,.76001,1.59009,1.69,1.59009,.37,.82007,.98999,1.48999,1.76001,1.94019-1.94,.82983-3.31,2.75-3.31,5H3.58002v-11.9502c0-3.5,2.38-6.46997,5.69-7.5498,.79999,.55981,1.73999,.87988,2.75,.87988s1.94995-.32007,2.76001-.87988c2.43994,.7998,4.37994,2.62988,5.21997,4.93994,.29999,.81982,.46997,1.69995,.46997,2.60986Z" style="fill:#5268e9;"/><path d="M18.12,10.28003v.09009l-.77997,.69995c-.14001,.13989-.38,.03979-.40002-.16016-.03003-.35986-.15002-.85986-.46002-1.32007-.42999-.61987-1.25-1.15991-2.81-1.13989-3.66998,.05005-4.38-2.11987-4.38-2.11987,0,0-.57996,1.85986-1.27997,3.31006-.23999,.47998-.47998,.90991-.72003,1.21973-.17999,.22021-.50995,.25-.71997,.07007l-.64001-.55005v-.10986c-.33997,.35986-.56,.83008-.56,1.33984,0,.9502,.70001,1.74023,1.63,1.96021,.44,1.28979,1.23999,2.36987,2.27002,3.07007,.79999,.55981,1.73999,.87988,2.75,.87988s1.94995-.32007,2.76001-.87988c1.01996-.7002,1.82996-1.78027,2.25995-3.07007,.94-.21997,1.63-1.01001,1.63-1.96021,0-.50977-.20996-.97998-.54999-1.32983Zm-7.60999,1.61011c-.32001,0-.58002-.31006-.58002-.69019,0-.37988,.26001-.68994,.58002-.68994s.57001,.31006,.57001,.68994c0,.38013-.25,.69019-.57001,.69019Zm1.51001,3.76978c-.42999,0-.79004-.28979-.90002-.68994-.02997-.11987,.06-.25,.19-.25h1.42999c.13,0,.22003,.13013,.17999,.25-.10999,.40015-.46997,.68994-.89996,.68994Zm1.51996-3.76978c-.32001,0-.57996-.31006-.57996-.69019,0-.37988,.25995-.68994,.57996-.68994,.31,0,.57001,.31006,.57001,.68994,0,.38013-.26001,.69019-.57001,.69019Z" style="fill:#ffc84d;"/><path d="M11.08002,11.19995c0,.38013-.25,.69019-.57001,.69019s-.58002-.31006-.58002-.69019c0-.37988,.26001-.68994,.58002-.68994s.57001,.31006,.57001,.68994Z"/><path d="M14.10999,11.19995c0,.38013-.26001,.69019-.57001,.69019-.32001,0-.57996-.31006-.57996-.69019,0-.37988,.25995-.68994,.57996-.68994,.31,0,.57001,.31006,.57001,.68994Z"/><path d="M18.12,10.28003v.09009l-.77997,.69995c-.14001,.13989-.38,.03979-.40002-.16016-.03003-.35986-.15002-.85986-.46002-1.32007-.42999-.61987-1.25-1.15991-2.81-1.13989-3.66998,.05005-4.38-2.11987-4.38-2.11987,0,0-.57996,1.85986-1.27997,3.31006-.23999,.47998-.47998,.90991-.72003,1.21973-.17999,.22021-.50995,.25-.71997,.07007l-.64001-.55005v-.10986c-.03998-.66016-.08997-4.33008,2.76001-5.03003,0,0,1.69-1.84985,4.54999-1.26001,2.85999,.58008,4.41003,2.84009,4.67999,4.12988,.22003,1.08008,.21002,1.91016,.20001,2.17017Z" style="fill:#f80;"/><path d="M12.91998,14.96997c-.10999,.40015-.46997,.68994-.89996,.68994s-.79004-.28979-.90002-.68994c-.02997-.11987,.06-.25,.19-.25h1.42999c.13,0,.22003,.13013,.17999,.25Z" style="fill:#5c2f17;"/></g><g><path d="M32.13,36.14014h-10.84003c0-2.25,1.36005-4.17017,3.31-5,.62,.35986,1.34003,.58984,2.11005,.58984,.76996,0,1.47998-.22998,2.10999-.58984,1.94,.82983,3.31,2.75,3.31,5Z" style="fill:#64a7ff;"/><path d="M31.46997,26.26001c-.48999-.01001-.89996-.09009-1.25995-.20996-1.27002-.42993-1.71002-1.36011-1.71002-1.36011,0,0-.85999,1.02002-1.78998,1.02002-.94,0-1.88-1.02002-1.88-1.02002-.57001,.71997-1.16003,1.12012-1.67004,1.36011-.75995,.34985-1.32996,.32983-1.32996,.32983v-.04004c-.41003,.29004-.67999,.75-.67999,1.27002,0,.88013,.75,1.59009,1.69,1.59009,.35999,.82007,.97998,1.48999,1.75995,1.94019,.62,.35986,1.34003,.58984,2.11005,.58984,.76996,0,1.47998-.22998,2.10999-.58984,.77002-.4502,1.39001-1.12012,1.76001-1.94019,.92999,0,1.69-.70996,1.69-1.59009,0-.56982-.32001-1.05981-.80005-1.34985Zm-5.94995,1.57007c-.25,0-.45001-.25-.45001-.55005,0-.29004,.20001-.54004,.45001-.54004s.44995,.25,.44995,.54004c0,.30005-.19995,.55005-.44995,.55005Zm1.19,2.31982c-.34003,0-.62-.22998-.71002-.54004-.03003-.09985,.04999-.18994,.15002-.18994h1.12c.09998,0,.16998,.09009,.14996,.18994-.08997,.31006-.37,.54004-.70996,.54004Zm1.19-2.31982c-.25,0-.45001-.25-.45001-.55005,0-.29004,.20001-.54004,.45001-.54004s.44995,.25,.44995,.54004c0,.30005-.19995,.55005-.44995,.55005Z" style="fill:#ffc84d;"/><path d="M25.96997,27.28003c0,.30005-.19995,.55005-.44995,.55005s-.45001-.25-.45001-.55005c0-.29004,.20001-.54004,.45001-.54004s.44995,.25,.44995,.54004Z"/><path d="M28.34998,27.28003c0,.30005-.19995,.55005-.44995,.55005s-.45001-.25-.45001-.55005c0-.29004,.20001-.54004,.45001-.54004s.44995,.25,.44995,.54004Z"/><path d="M27.41998,29.60986c-.08997,.31006-.37,.54004-.70996,.54004-.34003,0-.62-.22998-.71002-.54004-.03003-.09985,.04999-.18994,.15002-.18994h1.12c.09998,0,.16998,.09009,.14996,.18994Z" style="fill:#5c2f17;"/><path d="M31.59003,26.27002c-.04004,0-.07001,0-.12006-.01001-.48999-.01001-.89996-.09009-1.25995-.20996-1.27002-.42993-1.71002-1.36011-1.71002-1.36011,0,0-.85999,1.02002-1.78998,1.02002-.94,0-1.88-1.02002-1.88-1.02002-.57001,.71997-1.16003,1.12012-1.67004,1.36011-.75995,.34985-1.32996,.32983-1.32996,.32983v-.04004c-.01001-.21973,0-.42993,.01996-.6499,.21002-2.28003,2.04004-4.13989,4.32001-4.37988,2.96002-.32007,5.46002,2.06006,5.42004,4.95996Z" style="fill:#f80;"/></g><g><path d="M15.40155,31.14282c-.62335,.36084-1.3374,.58276-2.1095,.58276s-1.48621-.22192-2.10956-.58276c-1.94672,.82275-3.31281,2.75024-3.31281,4.99658h10.84467c0-2.24634-1.36609-4.17383-3.31281-4.99658Z" style="fill:#64a7ff;"/><path d="M18.06,26.26001c-.48999-.01001-.90997-.09009-1.26001-.20996-1.27997-.42993-1.71997-1.36011-1.71997-1.36011,0,0-.85004,1.02002-1.79004,1.02002-.92999,0-1.87-1.02002-1.87-1.02002-.57001,.71997-1.15997,1.12012-1.66998,1.36011-.76001,.34985-1.34003,.32983-1.34003,.32983,0-.02002,.01001-.02979,.01001-.04004-.41998,.29004-.69,.75-.69,1.27002,0,.88013,.76001,1.59009,1.69,1.59009,.37,.82007,.98999,1.48999,1.76001,1.94019,.63,.35986,1.34003,.58984,2.10999,.58984,.77002,0,1.49005-.22998,2.11005-.58984,.77997-.4502,1.39996-1.12012,1.75995-1.94019,.94,0,1.69-.70996,1.69-1.59009,0-.56982-.31995-1.05981-.78998-1.34985Zm-5.96002,1.57007c-.25,0-.44995-.25-.44995-.55005,0-.29004,.19995-.54004,.44995-.54004s.45001,.25,.45001,.54004c0,.30005-.20001,.55005-.45001,.55005Zm1.19,2.31982c-.33997,0-.62-.22998-.70996-.54004-.02002-.09985,.04999-.18994,.14996-.18994h1.12c.10004,0,.18005,.09009,.15002,.18994-.09003,.31006-.37,.54004-.71002,.54004Zm1.19-2.31982c-.25,0-.44995-.25-.44995-.55005,0-.29004,.19995-.54004,.44995-.54004s.45001,.25,.45001,.54004c0,.30005-.20001,.55005-.45001,.55005Z" style="fill:#ffc84d;"/><path d="M12.10187,27.82544c.24896,0,.45081-.24219,.45081-.54102s-.20184-.54102-.45081-.54102c-.24902,0-.45087,.24219-.45087,.54102s.20184,.54102,.45087,.54102Z"/><path d="M14.48218,27.82544c.24902,0,.45087-.24219,.45087-.54102s-.20184-.54102-.45087-.54102c-.24896,0-.45081,.24219-.45081,.54102s.20184,.54102,.45081,.54102Z"/><path d="M13.29205,30.15088c.33752,0,.62177-.22803,.70721-.53857,.02686-.09766-.0451-.19482-.14642-.19482h-1.12164c-.10132,0-.17328,.09717-.14636,.19482,.08539,.31055,.36963,.53857,.70721,.53857Z" style="fill:#5c2f17;"/><path d="M9.74615,26.04785c.50983-.23706,1.1015-.64062,1.67053-1.35425,0,0,.93903,1.01196,1.87537,1.01196,.93628,0,1.79102-1.01196,1.79102-1.01196,0,0,.43805,.92969,1.71594,1.36133,.35229,.11914,.7691,.19751,1.25922,.20972,.04114,.00122,.07361,.00977,.11578,.01001,.04272-2.90869-2.45953-5.28345-5.42291-4.96509-2.27917,.24463-4.10431,2.09717-4.31921,4.37915-.02063,.21948-.02435,.43579-.01678,.64893,.00043,.01245-.00153,.02563-.00098,.03784,0,0,.57233,.02588,1.33203-.32764Z" style="fill:#f80;"/></g></svg>