<svg id="Layer_1" data-name="Layer 1" xmlns="http://www.w3.org/2000/svg" viewBox="0 0 40 40"><defs><style>.cls-1{fill:#ffdc42;}.cls-2{fill:#3f3f3f;}.cls-3{fill:#e0e0e0;}.cls-4{fill:none;}</style></defs><path class="cls-1" d="M31.6,13.085l5.34,3.672a1.032,1.032,0,0,1-.023,1.716l-4.6,2.991a.446.446,0,0,1-.761-.318Z"/><path class="cls-2" d="M21.2,36H14.039A11.409,11.409,0,0,1,3.805,19.551l3.959-8.036c6.21-12.608,25.162-8.419,25.48,5.631l-.039,6.911A12.01,12.01,0,0,1,21.2,36Z"/><path class="cls-3" d="M29.531,18.365,23.273,31.071a5.162,5.162,0,0,1-7.2,2.2h0a5.162,5.162,0,0,1-2.065-6.76L20.372,13.6a5.162,5.162,0,0,1,7.356-2.1A5.317,5.317,0,0,1,29.531,18.365Z"/><circle cx="25.003" cy="15.878" r="1.964"/><rect class="cls-4" width="40" height="40"/></svg>