<?xml version="1.0" encoding="UTF-8"?><svg id="Layer_1" xmlns="http://www.w3.org/2000/svg" viewBox="0 0 40 40"><g><ellipse cx="20" cy="21.56742" rx="13.41979" ry="15.43258" style="fill:#c3846c;"/><g><ellipse cx="8.82278" cy="22.2964" rx="5.37225" ry="5.0387" style="fill:#c3846c;"/><ellipse cx="31.17722" cy="22.2964" rx="5.37225" ry="5.0387" style="fill:#c3846c;"/></g><g><ellipse cx="16.22978" cy="21.27044" rx="1.42811" ry="1.71374"/><ellipse cx="23.77022" cy="21.27044" rx="1.42811" ry="1.71374"/></g><path d="M33.24538,20.94785l1.94754-1.99847s.14322-2.13682-.52699-5.36597c-.6702-3.22915-4.50862-8.83447-11.63712-10.29672s-11.33249,3.14514-11.33249,3.14514c-7.7987,1.92659-6.85324,12.80644-6.85324,12.80644l1.57777,1.34615c.53451,.45604,1.35282,.39701,1.7864-.15587,2.44416-3.11666,4.98232-11.28435,4.98232-11.28435,0,0,1.76734,5.39281,10.91624,5.27552,6.73198-.08631,7.90429,2.45911,8.13921,6.13815,.03165,.49561,.63214,.72322,1.00036,.38998Z" style="fill:#ffe8b3;"/><path d="M21.77651,30.04011c.32095,0,.54895,.30834,.4638,.61779-.27054,.98327-1.17107,1.70555-2.24031,1.70555s-1.96977-.72228-2.24031-1.70555c-.08514-.30945,.14285-.61779,.4638-.61779h3.55301Z" style="fill:#5c2f17;"/></g><rect width="40" height="40" style="fill:none;"/></svg>