<?xml version="1.0" encoding="UTF-8"?><svg id="Layer_1" xmlns="http://www.w3.org/2000/svg" viewBox="0 0 40 40"><g><g><path d="M18.16998,27.3999c-.16998-.0498-.35999,.18018-.57996,.31006-.08002,.03003-.17004,.06006-.24005,.06006-.63995,.05005-1.34998-.07007-2.06-.28003-3.04999-.90991-6.38-3.58008-6.38-3.58008l-2.88995,3.23999-1.29004,1.4502c-.44995-.97021-.92999-1.06006-1.09998-1.06006-.58002,.43994-.96002,1.1001-.96002,1.8501,0,1.31982,1.13,2.37988,2.53003,2.38989,.97998,2.22998,3.20996,3.78003,5.79999,3.78003s4.82001-1.55005,5.79999-3.78003c1.40002-.01001,2.53003-1.07007,2.53003-2.38989,0-.83008-.46002-1.57007-1.16003-1.99023Zm-8.26996,1.74023c-.14001,.2998-.53003,.62988-1.15002,.62988-.47998,0-.81-.18994-1.01001-.41992-.06-.07007-.10999-.14014-.14001-.20996-.04999-.12012,.01001-.2002,.10004-.2002,.01996,0,.04999,0,.07001,.01001,.22998,.1001,.51001,.20996,.97998,.20996s.75-.10986,.97998-.20996c.14001-.05981,.23999,.04004,.17004,.19019Zm1.04999,4.43994c-.14001,0-.23004-.01001-.23999-.07007-.01001-.06006,.04999-.09009,.20996-.15015,.26001-.09985,.45001-.27002,.45001-.47998,0-.29004-.26001-.44995-.37-.52979-.12-.07007-.20001-.1001-.19-.15015,0-.07007,.07001-.07983,.19-.15991,.14001-.09009,.39001-.20996,.39001-.46997,0-.14014-.14001-.33008-.47003-.42993-.10999-.04004-.19-.06006-.17999-.12012,0-.06006,.06-.07007,.16998-.07007,.10004,0,.87006,.13013,.90002,.62012,.02002,.34985-.21997,.5-.41998,.63989,.20001,.1499,.45996,.41992,.44,.70996-.03003,.54004-.65002,.66016-.88,.66016Zm1.14001-4.43994c-.07001-.15015,.03998-.25,.16998-.19019,.22998,.1001,.51001,.20996,.97998,.20996,.47998,0,.75-.10986,.97998-.20996,.03003-.01001,.06006-.02002,.08002-.01001,.09003,0,.14001,.08008,.09003,.2002-.03003,.05981-.08002,.12988-.13,.18994-.20001,.23999-.53003,.43994-1.02002,.43994-.62,0-1-.33008-1.14996-.62988Z" style="fill:#ffcca8;"/><path d="M4.72827,28.59814l1.29553-1.44971,2.89062-3.23438s3.32477,2.6687,6.37073,3.57153c.71979,.21338,1.42419,.32959,2.06531,.28711,.07385-.00488,.15912-.03052,.24329-.06665,.2207-.12427,.40631-.35107,.57635-.30884l.00677-.00049c.06409-4.35718-3.68445-7.91455-8.12372-7.43799-3.41425,.3667-6.14838,3.14185-6.47034,6.56055-.03278,.3479-.04114,.69116-.02667,1.02856,0,0,.02893-.00391,.0705-.00415,.17291-.00073,.65668,.08862,1.10162,1.05444Z" style="fill:#333;"/><path d="M7.60114,29.13525c.03375,.07104,.08331,.14282,.14282,.21191,.19666,.22803,.5307,.42236,1.00708,.42236,.62067,0,1.00464-.32861,1.14996-.63428,.06726-.1416-.03577-.24561-.16998-.18652-.23279,.10205-.50629,.21094-.97998,.21094-.47363,0-.74719-.10889-.97992-.21094-.02582-.01147-.04877-.01196-.07129-.01221-.09454-.00049-.15302,.08447-.09869,.19873Z"/><path d="M13.24176,29.15967c-.47363,0-.74719-.10889-.97992-.21094-.13428-.05908-.23724,.04492-.16998,.18652,.14532,.30566,.5293,.63428,1.1499,.63428,.48572,0,.82147-.2019,1.0163-.43604,.05414-.06494,.10205-.13184,.13367-.19824,.05292-.11133-.00079-.19604-.09088-.19995-.02448-.00098-.05048,.00073-.0791,.01343-.23279,.10205-.50629,.21094-.97998,.21094Z"/><path d="M11.39258,32.21484c.19427-.14648,.43567-.29248,.41412-.64746-.02942-.48462-.79993-.62109-.90125-.62109-.10419,0-.16895,.00977-.16992,.07324-.00092,.06348,.0752,.08496,.18439,.11816,.33417,.10059,.46594,.29614,.46594,.4353,0,.25342-.24799,.37915-.38879,.46973-.1145,.07349-.18701,.09131-.18976,.15405-.00238,.05347,.07233,.08081,.18927,.15503s.37048,.2417,.37048,.52368c0,.21802-.18494,.38232-.44739,.48657-.15735,.0625-.21765,.09009-.20831,.15015s.0943,.07202,.23407,.07202c.23645,0,.85083-.1272,.88867-.66309,.02087-.29565-.24725-.55957-.44153-.7063Z" style="fill:#ec6700;"/></g><rect width="40" height="40" style="fill:none;"/></g><g><g><path d="M19.13241,18.93379c.52719,.34831,1.20798,.34831,1.73517,0,1.6737-1.1058,5.32136-3.74808,6.8914-6.70479,2.07136-3.90081-.36128-7.79168-3.57546-7.79168-1.83247,0-2.93528,.9574-3.5448,1.78053-.32126,.43385-.95618,.43385-1.27744,0-.60952-.82313-1.71233-1.78053-3.5448-1.78053-3.21418,0-5.64683,3.89086-3.57546,7.79168,1.57004,2.95671,5.2177,5.59898,6.8914,6.70479Z" style="fill:#ec4452;"/><g><path d="M35.95001,27.3999c-.16998-.0498-.35999,.18018-.58002,.31006-.08002,.03003-.16998,.06006-.23999,.06006-.64001,.05005-1.34998-.07007-2.07001-.28003-3.03998-.90991-6.37-3.58008-6.37-3.58008l-2.89001,3.23999-1.28998,1.4502c-.45001-.97021-.92999-1.06006-1.10004-1.06006-.57996,.43994-.95996,1.1001-.95996,1.8501,0,1.31982,1.13,2.37988,2.52997,2.38989,.98004,2.22998,3.21002,3.78003,5.80005,3.78003s4.81995-1.55005,5.79999-3.78003c1.39996-.01001,2.52997-1.07007,2.52997-2.38989,0-.83008-.45996-1.57007-1.15997-1.99023Zm-8.25,1.74023c-.15002,.2998-.53003,.62988-1.15002,.62988-.5,0-.83997-.20996-1.02997-.44995-.05005-.06006-.09003-.12012-.12-.17993-.06-.11011-.01001-.2002,.07996-.21021,.03003,0,.05005,0,.09003,.02002,.22998,.1001,.5,.20996,.97998,.20996,.47003,0,.73999-.10986,.98004-.20996,.12994-.05981,.22998,.04004,.16998,.19019Zm1.76996,4.43994c-.23999,0-.84998-.12012-.88995-.66016-.02002-.29004,.25-.56006,.44-.70996-.19-.13989-.42999-.29004-.41003-.63989,.03003-.48999,.79999-.62012,.90002-.62012,.09998,0,.16998,.01001,.16998,.07007s-.08002,.08008-.19,.12012c-.33002,.09985-.45996,.28979-.45996,.42993,0,.26001,.25,.37988,.38995,.46997,.11005,.08008,.17999,.08984,.19,.15991,0,.05005-.07996,.08008-.19,.15015-.12,.07983-.37,.23975-.37,.52979,0,.20996,.17999,.38013,.44,.47998,.16003,.06006,.22003,.09009,.21002,.15015s-.09003,.07007-.23004,.07007Zm.42004-4.43994c-.07001-.15015,.02997-.25,.16998-.19019,.22998,.1001,.5,.20996,.97998,.20996,.47003,0,.74005-.10986,.98004-.20996,.01996-.01001,.03998-.01001,.06-.01001,.09998-.01001,.15997,.08008,.10999,.2002-.03998,.06982-.09003,.1499-.15997,.21973-.19,.22021-.53003,.41016-.99005,.41016-.62,0-1.00995-.33008-1.14996-.62988Z" style="fill:#ffcca8;"/><path d="M22.50739,28.59814l1.29553-1.44971,2.89062-3.23438s3.32477,2.6687,6.37079,3.57153c.71979,.21338,1.42419,.32959,2.06525,.28711,.07385-.00488,.15912-.03052,.24329-.06665,.2207-.12427,.40631-.35107,.57635-.30884l.00677-.00049c.06409-4.35718-3.68439-7.91455-8.12372-7.43799-3.41425,.3667-6.14838,3.14185-6.47034,6.56055-.03278,.3479-.04114,.69116-.02667,1.02856,0,0,.02893-.00391,.0705-.00415,.17291-.00073,.65671,.08862,1.10162,1.05444Z" style="fill:#333;"/><path d="M25.39624,29.13525c.0293,.06152,.07526,.12329,.1239,.18384,.19275,.23999,.5304,.45044,1.026,.45044,.62061,0,1.00458-.32861,1.1499-.63428,.06726-.1416-.03571-.24561-.16998-.18652-.23273,.10205-.50629,.21094-.97992,.21094-.47369,0-.74719-.10889-.97998-.21094-.03168-.01416-.0611-.01758-.08746-.01489-.08539,.00854-.13391,.09326-.08246,.20142Z"/><path d="M31.03687,29.15967c-.47369,0-.74719-.10889-.97998-.21094-.13422-.05908-.23724,.04492-.16998,.18652,.14532,.30566,.5293,.63428,1.14996,.63428,.46649,0,.79901-.18579,.99725-.40771,.06549-.07349,.11658-.15088,.15265-.22656,.05585-.11768-.00781-.20312-.10712-.19727-.02032,.00122-.0401,.00049-.06287,.01074-.23273,.10205-.50629,.21094-.97992,.21094Z"/><path d="M29.4942,33.36206c-.26245-.10425-.44733-.26855-.44733-.48657,0-.28198,.25354-.44946,.37042-.52368,.11694-.07422,.19171-.10156,.18933-.15503-.00281-.06274-.07526-.08057-.18982-.15405-.14075-.09058-.38873-.21631-.38873-.46973,0-.13916,.13171-.33472,.46588-.4353,.10925-.0332,.18536-.05469,.18439-.11816s-.06573-.07324-.16992-.07324c-.10126,0-.87177,.13647-.90118,.62109-.02155,.35498,.21979,.50098,.41412,.64746-.19434,.14673-.46246,.41064-.44153,.7063,.03778,.53589,.65222,.66309,.88861,.66309,.13977,0,.22473-.01196,.23407-.07202s-.0509-.08765-.20831-.15015Z" style="fill:#ec6700;"/></g></g><rect width="40" height="40" style="fill:none;"/></g></svg>