<?xml version="1.0" encoding="UTF-8"?><svg id="Layer_1" xmlns="http://www.w3.org/2000/svg" viewBox="0 0 40 40"><g><g><g><path d="m18.8,30.691c-2.232-1.383-4.597-2.343-5.474-2.678v.422c0,.072-.042.141-.106.174-1.069.544-2.077.151-2.396-.002-.065-.032-.104-.096-.104-.169v-.491c-.682.255-3.244,1.254-5.65,2.745-2.805,1.738-2.647,6.772-2.647,6.772h19.023s.158-5.034-2.647-6.772Z" fill="#482ec5"/><path d="m6.729,22.601c-.104-.606.041-1.234.408-1.728.25-.336.473-.507.473-.507,1.331-1.187,1.75-2.824,1.867-3.467.019-.104.149-.139.217-.059.506.589,2.085,2.197,4.513,2.558,2.312.344,3.398,1.88,3.089,3.673-.513,1.992-2.045,3.532-3.97,4.016v.607c3.176-.105,4.666-.616,5.346-1.029.35-.212.571-.586.58-.995.082-3.508-.437-6.536-.962-7.967-.704-1.92-2.807-4.041-5.56-4.327-2.753-.286-3.987,1.502-3.987,1.502-3.931,1.723-3.771,9.058-3.67,10.85.02.357.194.689.49.889.608.411,2,.947,5.158,1.071v-.625c-2.036-.545-3.617-2.277-3.993-4.463Z" fill="#523725"/><path d="m10.429,20.67c-.333,0-.603.324-.603.724s.27.724.603.724.603-.324.603-.724-.27-.724-.603-.724Z"/><path d="m13.614,20.67c-.333,0-.603.324-.603.724s.27.724.603.724.603-.324.603-.724-.27-.724-.603-.724Z"/><path d="m12.78,24.593h-1.481c-.134,0-.229.128-.193.257.113.41.488.711.934.711s.821-.301.934-.711c.035-.129-.06-.257-.193-.257Z" fill="#5c2f17"/><path d="m14.21,19.4c-2.43-.36-4.01-1.97-4.51-2.56-.07-.08-.2-.04-.22.06-.12.64-.54,2.28-1.87,3.47,0,0-.22.17-.47.5-.37.5-.52,1.13-.41,1.73.37,2.19,1.96,3.92,3.99,4.46v1.38c0,.07.04.13.1.17.32.15,1.33.54,2.4,0,.06-.03.11-.1.11-.18v-1.34c1.92-.49,3.45-2.03,3.97-4.02.31-1.79-.78-3.33-3.09-3.67Zm-2.91,5.19h1.48c.13,0,.23.13.19.26-.11.41-.48.71-.93.71s-.82-.3-.93-.71c-.04-.13.06-.26.19-.26Zm-.87-2.47c-.33,0-.6-.33-.6-.73s.27-.72.6-.72.6.32.6.72-.27.73-.6.73Zm3.18,0c-.33,0-.6-.33-.6-.73s.27-.72.6-.72c.34,0,.61.32.61.72s-.27.73-.61.73Z" fill="#c3846c"/></g><g><path d="m34.67,20.02c-.15-.04-.32.17-.53.28-.07.04-.15.06-.22.07-.59.03-1.23-.07-1.89-.27-2.8-.83-5.85-3.28-5.85-3.28l-2.65,2.97-1.19,1.33c-.41-.88-.85-.97-1.01-.96-.53.4-.88,1-.88,1.69,0,1.21,1.04,2.18,2.32,2.19.73,1.65,2.2,2.89,3.99,3.31v1.09c0,.07.04.13.11.17.31.15,1.32.54,2.39,0,.07-.03.11-.1.11-.18v-1.06c1.82-.41,3.31-1.66,4.05-3.33,1.28-.01,2.32-.98,2.32-2.19,0-.77-.43-1.44-1.07-1.83Zm-7.35,4.32h1.55c.14,0,.23.13.2.27-.12.42-.51.74-.97.74-.47,0-.86-.32-.98-.74-.03-.14.07-.27.2-.27Zm-.86-2.19c-.34,0-.62-.33-.62-.74s.28-.75.62-.75.62.34.62.75-.28.74-.62.74Zm3.27,0c-.34,0-.62-.33-.62-.74s.28-.75.62-.75.62.34.62.75-.28.74-.62.74Z" fill="#c3846c"/><path d="m22.34,21.123l1.189-1.33,2.652-2.968s3.05,2.448,5.845,3.277c.66.196,1.307.302,1.895.263.068-.005.146-.028.223-.061.203-.114.373-.322.529-.284.002,0,.004,0,.006,0,.059-3.998-3.381-7.262-7.454-6.824-3.133.336-5.641,2.882-5.937,6.019-.03.319-.038.634-.024.944,0,0,.027-.004.065-.004.159,0,.602.081,1.011.967Z" fill="#523725"/><ellipse cx="26.459" cy="21.408" rx=".62" ry=".744"/><path d="m29.731,22.152c.342,0,.62-.333.62-.744s-.277-.744-.62-.744-.62.333-.62.744.277.744.62.744Z"/><path d="m28.095,25.348c.464,0,.855-.313.972-.74.037-.134-.062-.268-.201-.268h-1.542c-.139,0-.238.134-.201.268.117.427.508.74.972.74Z" fill="#5c2f17"/><path d="m34.929,30.691c-2.311-1.432-4.766-2.411-5.562-2.712v.456c0,.072-.042.141-.106.174-1.069.544-2.077.151-2.396-.003-.065-.031-.104-.096-.104-.169v-.458c-.796.301-3.251,1.28-5.562,2.712-2.805,1.738-2.647,6.772-2.647,6.772h19.023s.158-5.034-2.647-6.772Z" fill="#5268ea"/></g></g><path d="m19.318,13.941c.415.274.95.274,1.365,0,1.317-.87,4.186-2.948,5.421-5.274,1.629-3.069-.284-6.129-2.813-6.129-1.442,0-2.309.753-2.789,1.401-.253.341-.752.341-1.005,0-.479-.648-1.347-1.401-2.789-1.401-2.528,0-4.442,3.061-2.813,6.129,1.235,2.326,4.105,4.404,5.421,5.274Z" fill="#ec4452"/></g><rect width="40" height="40" fill="none"/></svg>