<?xml version="1.0" encoding="UTF-8"?><svg id="a" xmlns="http://www.w3.org/2000/svg" viewBox="0 0 40 40"><g><path d="M11.515,28.485l-7.778-7.778c-.391-.391-.391-1.024,0-1.414l7.778-7.778,8.485,8.485-8.485,8.485Z" fill="#7d9dff"/><path d="M28.485,28.485l-7.778,7.778c-.391,.391-1.024,.391-1.414,0l-7.778-7.778,8.485-8.485,8.485,8.485Z" fill="#a8bfff"/><path d="M28.485,11.515l7.778,7.778c.391,.391,.391,1.024,0,1.414l-7.778,7.778-8.485-8.485,8.485-8.485Z" fill="#5a81ff"/><path d="M11.515,11.515l7.778-7.778c.391-.391,1.024-.391,1.414,0l7.778,7.778-8.485,8.485L11.515,11.515Z" fill="#a8bfff"/><circle cx="20" cy="20" r="2" fill="#fff"/></g><rect width="40" height="40" fill="none"/></svg>