<svg id="Layer_1" data-name="Layer 1" xmlns="http://www.w3.org/2000/svg" viewBox="0 0 40 40"><defs><style>.cls-1{fill:none;}.cls-2{fill:#333d4b;}.cls-3{fill:#90bdf8;}.cls-4{fill:#c8e1ff;}.cls-5{fill:#495b73;}</style></defs><rect class="cls-1" width="40" height="40"/><rect class="cls-2" x="4" y="4" width="32" height="32" rx="2"/><path class="cls-3" d="M21.489,17.874l6.593-9.417a14.151,14.151,0,0,0-19.72,3.394L17.856,18.5A2.607,2.607,0,0,1,21.489,17.874Z"/><path class="cls-3" d="M18.511,22.126l-6.593,9.417a14.151,14.151,0,0,0,19.72-3.394L22.144,21.5A2.607,2.607,0,0,1,18.511,22.126Z"/><path class="cls-3" d="M17.856,18.5,8.362,11.851a14.058,14.058,0,0,0-1.15,14.112L17.653,21.1A2.58,2.58,0,0,1,17.856,18.5Z"/><path class="cls-4" d="M11.918,31.543l6.593-9.417a2.6,2.6,0,0,1-.858-1.031L7.212,25.963A14.22,14.22,0,0,0,11.918,31.543Z"/><path class="cls-3" d="M32.788,14.037,22.347,18.905a2.58,2.58,0,0,1-.2,2.6l9.494,6.648A14.055,14.055,0,0,0,32.788,14.037Z"/><path class="cls-4" d="M28.082,8.457l-6.593,9.417a2.6,2.6,0,0,1,.858,1.031l10.441-4.868A14.22,14.22,0,0,0,28.082,8.457Z"/><path class="cls-5" d="M22.47,16.569a4.227,4.227,0,1,0,1.067,5.907A4.245,4.245,0,0,0,22.47,16.569Zm-3.395,4.848a1.691,1.691,0,1,1,2.367-.408A1.7,1.7,0,0,1,19.075,21.417Z"/></svg>