<?xml version="1.0" encoding="UTF-8"?><svg id="Layer_1" xmlns="http://www.w3.org/2000/svg" viewBox="0 0 40 40"><g><g><circle cx="17.992" cy="22.008" r="15.58" fill="#df1600"/><path d="m20.248,19.752L3.724,28.266c.778,1.775,1.881,3.388,3.251,4.759,1.431,1.431,3.128,2.57,4.995,3.353l8.277-16.625Z" fill="#a00f00"/><circle cx="24.191" cy="28.207" r="2.476" fill="#4a1900"/><circle cx="22.454" cy="15.157" r="2.476" fill="#4a1900"/><circle cx="8.991" cy="18.879" r="2.476" fill="#4a1900"/></g><path d="m21.787,5.225c2.911-2.911,8.08-2.481,11.662.926,2.884,2.742,3.868,6.666,2.713,9.851-.511,1.409-1.374,2.363-2.401,3.027-.242.156-.602.078-.847-.166l-11.776-11.776c-.244-.244-.322-.604-.166-.846.233-.361.503-.703.816-1.015Z" fill="#3b1400"/><g><path d="m35.375,10.46c-.476,0-.929-.28-1.125-.747-.262-.621.03-1.337.651-1.599l2.213-.932c.623-.258,1.337.03,1.598.651.262.621-.03,1.337-.651,1.599l-2.213.932c-.155.064-.315.096-.473.096Z" fill="#3b1400"/><path d="m30.761,5.846c-.158,0-.318-.031-.473-.096-.621-.262-.913-.978-.651-1.599l.932-2.213c.262-.621.977-.909,1.598-.651.621.262.913.978.651,1.599l-.932,2.213c-.196.467-.649.747-1.125.747Z" fill="#3b1400"/></g></g><rect width="40" height="40" fill="none"/></svg>