<?xml version="1.0" encoding="UTF-8"?><svg id="Layer_1" xmlns="http://www.w3.org/2000/svg" viewBox="0 0 40 40"><g><path d="M31.46608,14.4662c0-6.33259-5.13355-11.4662-11.46608-11.4662s-11.46608,5.13361-11.46608,11.4662v15.90169c0,3.66282,2.96929,6.63211,6.63211,6.63211,2.37169,0,4.44672-1.24893,5.61908-3.12094l.0071,.00206,8.49948-12.69542-.01185-.00378c1.36942-1.88885,2.18625-4.20436,2.18625-6.71572Z" style="fill:#ffcca8;"/><path d="M18.7896,25.33838c0,2.13664-1.73209,3.86872-3.86872,3.86872-1.82929,0-3.86872-2.64234-3.86872-2.64234v-1.22638c0-2.13664,1.73209-3.86872,3.86872-3.86872s3.86872,1.73209,3.86872,3.86872Z" style="fill:#c97c47;"/><path d="M27.47736,15.6993c0-4.53571-3.67686-8.21256-8.21256-8.21256s-8.21264,3.67686-8.21264,8.21256v.20191c.48469-.13783,.9861-.23503,1.51494-.23503,3.0745,0,5.56688,2.49222,5.56688,5.56672s-2.49238,5.56688-5.56688,5.56688c-.52885,0-1.03025-.09735-1.51494-.23503v.52417c0,2.62361,2.12681,4.75034,4.75026,4.75034,1.69876,0,3.18496-.89472,4.02472-2.23543l.00506,.00138,6.08775-9.09303-.00851-.00276c.98088-1.35297,1.56592-3.01133,1.56592-4.81013Z" style="fill:#ffb785;"/><path d="M27.31218,14.05528c-.76156-3.74781-4.07481-6.56854-8.0474-6.56854-4.53572,0-8.21262,3.67691-8.21262,8.21262v.20182c.48467-.13779,.98606-.23503,1.51494-.23503,.57865,0,1.13656,.08854,1.66126,.25244h.00011s4.12882-8.27367,13.08371-1.86331Z" style="fill:#ffa466;"/></g><rect width="40" height="40" style="fill:none;"/></svg>