<svg id="Layer_1" data-name="Layer 1" xmlns="http://www.w3.org/2000/svg" viewBox="0 0 40 40"><defs><style>.cls-1{fill:#191f28;}.cls-2{fill:#999;}.cls-3{fill:#5e403b;}.cls-4{fill:#c7c7c7;}.cls-5{fill:none;}</style></defs><path class="cls-1" d="M21.763,24.807,20.071,36.189a.388.388,0,0,0,.384.445H23.8a.39.39,0,0,0,.385-.44,2.527,2.527,0,0,0-.809-1.636.446.446,0,0,1-.155-.445l1.868-7.157Z"/><path class="cls-1" d="M9.454,25.958l1.882,10.357a.388.388,0,0,0,.382.319h3.265a.388.388,0,0,0,.379-.474,3.39,3.39,0,0,0-1.2-2.1.436.436,0,0,1-.221-.354l-.27-9.407Z"/><polygon class="cls-2" points="23.207 13.201 24.102 12.453 15.773 3.366 14.878 4.114 23.207 13.201"/><path class="cls-3" d="M37.876,8.04h-2.2a1.012,1.012,0,0,1-.924-.6,3.265,3.265,0,0,0-2.484-2C30.1,5.127,27.13,4.386,25.224,8.04s-2.277,5.877-6.248,5.93-7.043-.423-9.214.424a7.436,7.436,0,0,0-4.236,6.778c.047,2.783-.788,12.877-.971,15.049a.382.382,0,0,0,.387.413H7.784a.386.386,0,0,0,.388-.357,1.928,1.928,0,0,0-.783-1.824.451.451,0,0,1-.216-.465c.334-1.617,2.248-8.9,9.685-8.9,7.513,0,9,9.31,9.231,11.208a.384.384,0,0,0,.385.336H30.1a.385.385,0,0,0,.389-.379,2.557,2.557,0,0,0-1.228-2.444A.444.444,0,0,1,29,33.486l-1.109-7.038a5.683,5.683,0,0,1,.281-2.854l3.168-8.611a2.006,2.006,0,0,1,1.671-1.3c1.819-.2,5.489-.9,5.489-3.363V8.663A.623.623,0,0,0,37.876,8.04Z"/><path class="cls-4" d="M23.522,11.4l7.257,5.115-.405,1.1-7.558-5.186A10.2,10.2,0,0,0,23.522,11.4Z"/><path class="cls-1" d="M30.3,12.973c-1.131,1.182-4.23-.906-5.789-3.516.217-.445.449-.917.71-1.418A4.808,4.808,0,0,1,30.468,5.2C30.547,7.648,31.128,12.11,30.3,12.973Z"/><circle cx="33.127" cy="8.456" r="0.835"/><path class="cls-1" d="M36.741,8.04h1.135a.623.623,0,0,1,.624.623V9.744S36.741,9.665,36.741,8.04Z"/><path class="cls-3" d="M9.138,16.206s-8.435-.75-7.577-7.4,10.534-6.973,11.918,0c.418,2.6-1.139,3.562-1.139,3.562S10.725,7.938,6.953,9.622c-2.281,1.217-1.14,4.51,2.5,5.264a23.941,23.941,0,0,1,5.017,1.43S10.57,18.5,10.492,18.5,9.138,16.206,9.138,16.206Z"/><rect class="cls-5" width="40" height="40"/></svg>