<?xml version="1.0" encoding="UTF-8"?><svg id="Layer_1" xmlns="http://www.w3.org/2000/svg" viewBox="0 0 40 40"><g><path d="m26.596,31.06l-3.46-1.101c-2.02-.643-4.252-.643-6.272,0l-3.46,1.101c-1.666.53-3.044,1.525-3.918,2.8-.358.523-.585,1.102-.757,1.687l-.442,1.505c-.067.228.139.447.419.447h22.591c.28,0,.486-.22.419-.447l-.442-1.505c-.172-.586-.399-1.164-.757-1.687-.874-1.275-2.253-2.27-3.918-2.8Z" fill="#ed422f"/><circle cx="20" cy="21.826" r="6.908" fill="#ffb582"/><g><ellipse cx="13.696" cy="22.02" rx="2.765" ry="2.594" fill="#ffb582"/><ellipse cx="26.304" cy="22.02" rx="2.765" ry="2.594" fill="#ffb582"/></g><g><ellipse cx="18.059" cy="21.492" rx=".735" ry=".882"/><ellipse cx="21.941" cy="21.492" rx=".735" ry=".882"/></g><path d="m20.914,24.97c.165,0,.283.159.239.318-.139.506-.603.878-1.153.878s-1.014-.372-1.153-.878c-.044-.159.074-.318.239-.318h1.829Z" fill="#5c2f17"/><path d="m18.352,26.804h3.313v3.144c0,.914-.742,1.656-1.656,1.656h0c-.914,0-1.656-.742-1.656-1.656v-3.144h0Z" fill="#ffb582"/><path d="m20.009,32.915c1.639,0,2.972-1.333,2.972-2.973v-.029c-.43-.129-.868-.232-1.313-.303v.333c0,.915-.744,1.66-1.659,1.66s-1.66-.745-1.66-1.66v-.336c-.444.071-.882.174-1.313.302v.034c0,1.639,1.334,2.973,2.973,2.973Z" fill="#474747"/><g><path d="m20,27.755c3.55,0,6.439-2.889,6.439-6.439v-1.13h-12.878v1.13c0,3.55,2.889,6.439,6.439,6.439Z" fill="none"/><path d="m26.439,20.187v1.13c0,3.55-2.889,6.439-6.439,6.439s-6.439-2.889-6.439-6.439v-1.13h-.846c-.032,0-.061-.008-.092-.009v1.139c0,4.068,3.31,7.377,7.377,7.377s7.377-3.31,7.377-7.377v-1.143c-.046.004-.089.014-.136.014h-.802Z" fill="#787878"/><path d="m22.82,2.5h-5.685c-3.354,0-6.073,2.719-6.073,6.073v9.963c0,.88.691,1.593,1.559,1.642.031.002.061.009.092.009h14.527c.047,0,.09-.01.136-.014.847-.07,1.515-.772,1.515-1.638v-9.963c0-3.354-2.719-6.073-6.073-6.073Z" fill="#474747"/></g><rect x="25.018" y="30.863" width="5.301" height="2.462" rx="1.231" ry="1.231" transform="translate(16.32 -8.732) rotate(25.231)" fill="#474747"/><rect x="9.617" y="30.863" width="5.301" height="2.462" rx="1.231" ry="1.231" transform="translate(37.046 55.897) rotate(154.769)" fill="#474747"/><rect x="19.594" y="32.695" width=".812" height="4.805" fill="#474747"/></g><rect width="40" height="40" fill="none"/></svg>