<?xml version="1.0" encoding="UTF-8"?><svg id="Layer_1" xmlns="http://www.w3.org/2000/svg" viewBox="0 0 40 40"><g><path d="M21.0779,6.64972l7.60147,.18384,2.94059-2.28902c.35375-.27531,.87231-.13013,1.03246,.28925l5.41787,14.18942c.24476,.75357,.55419,3.06245,.37768,4.67252-1.02882,7.24102-8.89153,11.90054-18.44797,11.90054S2.58089,30.93675,1.55208,23.69573c-.17662-1.61006,.13292-3.91895,.37768-4.67252L7.34763,4.83379c.16015-.41937,.6787-.56456,1.03251-.28925l2.94048,2.28902,7.60147-.18384h2.15581Z" style="fill:#ffb5ad;"/><rect width="40" height="40" style="fill:none;"/></g><g><ellipse cx="16.17302" cy="14.92574" rx="1.89774" ry="1.90283"/><ellipse cx="23.82698" cy="14.92574" rx="1.89774" ry="1.90283"/><g><rect x="10.89767" y="17.73411" width="18.20474" height="11.63697" rx="5.81069" ry="5.81069" style="fill:#fa878f;"/><g><ellipse cx="16.62821" cy="23.56652" rx="2.17342" ry="2.4287" style="fill:#e32939;"/><ellipse cx="23.37188" cy="23.56652" rx="2.17342" ry="2.4287" style="fill:#e32939;"/></g></g></g></svg>