<svg id="Layer_1" data-name="Layer 1" xmlns="http://www.w3.org/2000/svg" xmlns:xlink="http://www.w3.org/1999/xlink" viewBox="0 0 40 40"><defs><style>.cls-1{fill:#ff8934;}.cls-2{fill:#ffc450;}.cls-3{clip-path:url(#clip-path);}.cls-4{fill:#422709;}.cls-5{fill:none;}</style><clipPath id="clip-path"><path id="SVGID" class="cls-1" d="M23.282,26.684H23.3l-.042-.235c-.008-.042-.013-.084-.023-.126l-.7-3.88H22.52a2.582,2.582,0,0,0-5.04,0h-.011l-.715,3.917,0,.009-.04.218h.016a2.774,2.774,0,0,0-.042.388A3.184,3.184,0,0,0,20,30.013a3.185,3.185,0,0,0,3.314-3.038A2.539,2.539,0,0,0,23.282,26.684Z"/></clipPath></defs><path class="cls-2" d="M15.506,6.757a5.112,5.112,0,0,0-7.818,6.59l3.4,4.038L18.91,10.8Z"/><path class="cls-2" d="M24.388,6.757a5.112,5.112,0,1,1,7.818,6.59l-3.4,4.038L20.984,10.8Z"/><path id="SVGID-2" data-name="SVGID" class="cls-2" d="M35.372,16.731A12.932,12.932,0,0,0,23.194,8.149H16.806A12.932,12.932,0,0,0,4.628,16.731l-.375,1.05a12.936,12.936,0,0,0-.12,8.345h0a12.932,12.932,0,0,0,12.3,8.934h7.138a12.932,12.932,0,0,0,12.3-8.934h0a12.938,12.938,0,0,0-.12-8.346Z"/><path id="SVGID-3" data-name="SVGID" class="cls-1" d="M23.282,26.684H23.3l-.042-.235c-.008-.042-.013-.084-.023-.126l-.7-3.88H22.52a2.582,2.582,0,0,0-5.04,0h-.011l-.715,3.917,0,.009-.04.218h.016a2.774,2.774,0,0,0-.042.388A3.184,3.184,0,0,0,20,30.013a3.185,3.185,0,0,0,3.314-3.038A2.539,2.539,0,0,0,23.282,26.684Z"/><g class="cls-3"><ellipse cx="20" cy="28.444" rx="5.503" ry="2.229"/></g><circle cx="16.12" cy="21.692" r="1.421"/><circle cx="23.978" cy="21.692" r="1.421"/><path class="cls-4" d="M9.542,28.861c-1.224-.331-3.7-1-4.782-1.264A12.914,12.914,0,0,0,8.153,31.98l1.669-2.325A.512.512,0,0,0,9.542,28.861Z"/><path class="cls-4" d="M8.571,24.739,5.639,22.267a.512.512,0,0,1,.16-.875l2.628-.934a.513.513,0,0,0,.184-.853L4.956,16.09l-.115.033c-.072.176-.148.349-.213.53L4.253,17.7a12.739,12.739,0,0,0,.357,9.572c.82-.384,2.752-1.211,3.833-1.671A.513.513,0,0,0,8.571,24.739Z"/><path class="cls-4" d="M31.38,19.605a.513.513,0,0,0,.184.853l2.629.934a.513.513,0,0,1,.159.875L31.42,24.739a.513.513,0,0,0,.128.864c1.085.461,3.025,1.292,3.84,1.675a12.735,12.735,0,0,0,.359-9.576l-.375-1.05c-.064-.179-.141-.351-.212-.526l-.125-.036Z"/><path class="cls-4" d="M30.169,29.655l1.672,2.329a12.908,12.908,0,0,0,3.4-4.39c-1.08.266-3.565.935-4.793,1.267A.512.512,0,0,0,30.169,29.655Z"/><path class="cls-4" d="M20.413,29.9a3.727,3.727,0,0,1-.413.038,3.5,3.5,0,0,1-.386-.036,9.348,9.348,0,0,1-4.35,5.026c.385.035.774.057,1.167.057h7.138c.407,0,.808-.024,1.207-.062A9.464,9.464,0,0,1,20.413,29.9Z"/><rect class="cls-5" width="40" height="40"/></svg>