<svg id="Layer_1" data-name="Layer 1" xmlns="http://www.w3.org/2000/svg" viewBox="0 0 40 40"><defs><style>.cls-1{fill:#ebb181;}.cls-2{fill:#ef4452;}.cls-3{fill:#489df9;}.cls-4{fill:#7ab7f9;}.cls-5{fill:none;}</style></defs><path class="cls-1" d="M29.774,11.383a.953.953,0,0,0,.649-.253L33.55,8.247a.957.957,0,0,0-1.3-1.406L29.126,9.724a.956.956,0,0,0,.648,1.659Z"/><path class="cls-2" d="M21.2,34.514a3.407,3.407,0,0,1-3.807,0C14.237,32.4,7.993,27.762,5.251,22.6,1.5,15.536,5.905,8.492,11.724,8.492a7.707,7.707,0,0,1,6.415,3.22,1.432,1.432,0,0,0,2.317,0,7.707,7.707,0,0,1,6.415-3.22c5.818,0,10.222,7.044,6.472,14.106C30.6,27.762,24.358,32.4,21.2,34.514Z"/><path class="cls-3" d="M37.069,3.535a.219.219,0,0,1,.163.175A10.931,10.931,0,0,1,37.2,8.544c-.673,1.955-2.781,2.366-3.808,1.266a1.991,1.991,0,0,1-.522-1.784.37.37,0,0,0-.406-.435,1.992,1.992,0,0,1-1.744-.644c-1.027-1.1-.473-3.174,1.523-3.712A10.952,10.952,0,0,1,37.069,3.535Z"/><path class="cls-1" d="M9.18,31.365a.952.952,0,0,0,.656-.259L20.058,21.5A.957.957,0,1,0,18.747,20.1L8.525,29.711a.957.957,0,0,0,.655,1.654Z"/><path class="cls-4" d="M12.225,26.671c-1.587-.9-4.464-.015-6.838,2.217l-2.68,2.467c-.288.271-.272.608.027.564l4.375.211a.183.183,0,0,1,.226.24L7.223,36.7c-.062.3.274.332.562.061l2.68-2.467c2.374-2.232,3.43-5.05,2.634-6.689A3.751,3.751,0,0,0,12.225,26.671Z"/><rect class="cls-5" width="40" height="40"/></svg>