<?xml version="1.0" encoding="UTF-8"?><svg id="Layer_1" xmlns="http://www.w3.org/2000/svg" viewBox="0 0 40 40"><g><path d="M31.66766,14.27388c-.289,1.67204-1.39924,6.48892-4.80012,8.2655,0,0,1.60847,2.66016,5.44405,1.60847,0,0,2.97737-6.1265-.15673-10.00678-.14738-.18247-.44725-.09832-.4872,.13281Z" style="fill:#9c9c9c;"/><path d="M21.84434,10.22598l-4.50455-5.21333c-.34325-.39726-.98649-.2828-1.17163,.20849l-3.20195,8.4967,8.87814-3.49186Z" style="fill:#5e403b;"/><path d="M8.22722,4.24621l4.94007,2.29807c.96239,.44769,1.99789,.70131,3.05081,.83543,5.22672,.66575,6.4409,4.43482,10.66808,7.85465,4.59792,3.71963,7.92779,3.23591,7.92779,3.23591v10.73905c-3.49705,0-10.75678,3.44923-10.75678,3.44923-.00474,.00442-5.25221,3.17975-9.25405,3.17975-3.88841,0-7.27437-1.21333-9.0813-3.01097-1.31448-1.05078-2.18692-2.66118-2.18692-4.53354V15.75098c0-1.73829,.76062-3.13701,1.70669-4.20433,.25774-.29078,.4206-.6534,.50294-1.03314l1.22332-5.64189c.12228-.56395,.73615-.8688,1.25936-.62541Z" style="fill:#6e4944;"/><path d="M27.48856,17.32748c-.45463,1.54296-1.97607,5.83442-5.20664,7.43422-.28328,.14028-.38639,.48462-.19673,.73751,.52635,.70183,1.75213,1.87021,4.04606,1.7961,.51994-.0168,1.00058-.3033,1.24284-.76366,.86609-1.64581,2.72339-5.94167,.60953-9.27936-.12436-.19636-.42938-.14777-.49507,.07519Z" style="fill:#fff;"/><circle cx="19.55939" cy="17.12924" r="1.80314"/><ellipse cx="34.81397" cy="23.8398" rx="1.65112" ry="5.36953" style="fill:#b3766e;"/></g><rect width="40" height="40" style="fill:none;"/></svg>