<?xml version="1.0" encoding="UTF-8"?><svg id="Layer_1" xmlns="http://www.w3.org/2000/svg" viewBox="0 0 40 40"><circle cx="14.24145" cy="20.02848" r="10.74145" style="fill:#5e403b;"/><rect width="40" height="40" style="fill:none;"/><path d="M18.31067,26.5271c.87408,1.49292,2.45502,2.50378,4.27979,2.505,1.77271,.0011,3.32007-.9469,4.20697-2.36829,.73547,.53467,1.62885,.85657,2.59949,.85718,2.48523,.00171,4.4986-2.0564,4.49689-4.59692-.00043-.64551-.1333-1.25879-.36853-1.81653,.23499-.5415,.36853-1.13708,.36853-1.76501v-1.54944c0-2.45325-1.98877-4.44214-4.44208-4.44214H9.95056c-2.24945,0-4.08868,1.67786-4.38208,3.84692-1.24243,.89807-2.05865,2.3717-2.05756,4.04651,.00189,2.74133,2.17731,4.96509,4.85901,4.9668,.80487,.00061,1.55237-.21826,2.22046-.57202,.8855,1.41156,2.42224,2.354,4.18127,2.36395l.02454,.00165c1.37134,.00085,2.61176-.56445,3.51447-1.47766Z" style="fill:#5e403b;"/><path d="M37.05219,22.24878l-3.15839-4.21124v1.30499c0,.62793-.13354,1.22351-.36853,1.76501,.23523,.55774,.3681,1.17102,.36853,1.81653,.00171,2.54053-2.01166,4.59863-4.49689,4.59692-.97064-.00061-1.86401-.32251-2.59949-.85718-.8869,1.42139-2.43427,2.36938-4.20697,2.36829-1.82477-.00122-3.4057-1.01208-4.27979-2.505-.90271,.91321-2.14313,1.47852-3.51447,1.47766l-.02454-.00165c-.255,.52148-.41095,1.09991-.41095,1.71954,0,2.17407,1.76257,3.93677,3.93683,3.93677l.00183-.00024h9.77185c2.66333,0,5.1712-1.25391,6.76923-3.38452l2.21173-2.94922c1.1283-1.50415,1.1283-3.57251,0-5.07666Z" style="fill:#956759;"/><path d="M33.8938,14.44666c0-4.41833-3.58173-8-8-8H11.5c-4.41827,0-8,3.58167-8,8v1.9043h.00183l.00916,4.43372c-.0011,.03687-.01062,.07129-.01062,.10828,.00134,1.93298,1.53534,3.5011,3.42633,3.50232,1.89099,.00122,3.42291-1.5647,3.42157-3.49768,0-.0343-.00897-.06604-.00995-.10022l-.00916-4.44641h1.02289l.00739,6.3717c-.0011,.03662-.01056,.0708-.01056,.10767,.00134,1.92993,1.53296,3.49561,3.42096,3.49683,1.8877,.00122,3.41687-1.56177,3.4162-3.49121h.01074l-.00757-6.48499h1.01123l.00861,7.38708c-.00134,.04053-.01166,.07825-.01166,.1189,.00128,1.92969,1.53265,3.49512,3.42041,3.49634,1.88776,.00122,3.41705-1.56201,3.41571-3.4917l-.00061-.0061h.01239l-.00873-7.50452h1.01263l.00836,6.39819c-.00134,.04041-.01166,.078-.01166,.11877,.00128,1.92969,1.53265,3.495,3.42041,3.49622,1.88776,.00134,3.41699-1.56201,3.41571-3.4917l-.00061-.00598h.01239l-.00848-6.5155h.00848v-1.9043Z" style="fill:#956759;"/></svg>