<?xml version="1.0" encoding="UTF-8"?><svg id="Layer_1" xmlns="http://www.w3.org/2000/svg" viewBox="0 0 40 40"><rect width="40" height="40" fill="none"/><path d="m36.614,19.868l-5.328-8.364c-5.439-8.537-17.14-8.537-22.579,0l-5.328,8.363c-3.4,5.337.249,12.326,5.517,14.108,2.98,1.259,6.275,2.056,11.101,2.056s8.12-.797,11.101-2.056c5.269-1.783,8.918-8.771,5.517-14.108Z" fill="#ffba5e"/><path d="m31.28,22.507c-2.118,2.209-5.552,2.209-7.669,0h0c-2.118-2.209-5.552-2.209-7.67,0-2.118,2.209-5.551,2.209-7.669,0-1.511-1.576-3.685-2.006-5.579-1.334-2.267,5.114,1.354,11.163,6.203,12.803,2.981,1.259,6.274,2.056,11.101,2.056s8.12-.797,11.1-2.056c4.784-1.618,8.396-7.526,6.289-12.595-2.004-.967-4.453-.598-6.106,1.126Z" fill="#ffe3a0"/><g><path d="m30.774,3.848c2.069,2.069,2.058,5.433-.023,7.514-2.081,2.081-5.446,2.092-7.514.023-2.069-2.069,5.469-9.606,7.537-7.537Z" fill="#ffba5e"/><path d="m9.216,3.848c-2.069,2.069-2.058,5.433.023,7.514,2.081,2.081,5.446,2.092,7.514.023,2.069-2.069-5.469-9.606-7.537-7.537Z" fill="#ffba5e"/></g><ellipse cx="24.852" cy="18.697" rx="1.9" ry="1.888"/><ellipse cx="15.137" cy="18.697" rx="1.9" ry="1.888"/><path d="m21.324,25.273l.703-1.018c.344-.498-.013-1.178-.618-1.178h-2.832c-.602,0-.957.676-.615,1.171l.707,1.025c.641.929,2.013.929,2.654,0Z" fill="#fa878f"/></svg>