<svg id="Layer_1" data-name="Layer 1" xmlns="http://www.w3.org/2000/svg" viewBox="0 0 40 40"><defs><style>.cls-1{fill:#1e6ef4;}.cls-2{fill:none;}.cls-3{fill:#104be0;}.cls-4{fill:#0a37c7;}</style></defs><path class="cls-1" d="M28.065,9.69H11.145a8.461,8.461,0,0,0-8.46,8.461V31.539a2.169,2.169,0,0,0,2.169,2.17h29.5a2.169,2.169,0,0,0,2.17-2.17V18.151A8.461,8.461,0,0,0,28.065,9.69Z"/><rect class="cls-2" width="40" height="40"/><path class="cls-3" d="M13.132,11.437c-.062-.018-.126-.033-.19-.049-.15-.038-.3-.073-.456-.1-.114-.021-.229-.037-.344-.053s-.244-.032-.368-.042c-.046,0-.089-.013-.135-.016-.078-.005-.154,0-.231,0s-.174-.013-.263-.013c-.054,0-.107.007-.161.008-.121,0-.241.01-.361.018-.138.01-.274.021-.409.038q-.177.023-.351.054c-.133.023-.265.049-.395.079-.115.026-.227.056-.34.087s-.254.075-.379.118c-.109.038-.218.077-.325.119s-.242.1-.361.155-.208.1-.31.149-.23.124-.343.19-.2.114-.29.176-.216.146-.322.223-.182.132-.27.2-.2.167-.3.254-.168.148-.248.225-.183.187-.272.282-.153.163-.226.249-.164.205-.244.31c-.067.089-.136.175-.2.267-.076.11-.145.224-.216.338-.057.093-.117.185-.171.282-.066.119-.124.243-.184.367-.047.1-.1.191-.14.29-.057.13-.1.264-.152.4-.036.1-.077.2-.109.3-.045.142-.08.289-.116.435-.025.1-.054.191-.075.289-.034.164-.056.333-.079.5-.012.084-.03.166-.038.251a7.317,7.317,0,0,0-.041.774h0V30.827A1.413,1.413,0,0,0,5.133,32.24H18.57V18.585A7.421,7.421,0,0,0,13.132,11.437Z"/><path class="cls-4" d="M38.413,23.642a.708.708,0,0,0,1.272-.429V18.257a.666.666,0,0,0-.666-.665H24.628a1.175,1.175,0,0,0-1.175,1.175h0a1.175,1.175,0,0,0,1.175,1.175H35.593Z"/><path class="cls-4" d="M17.382,33.709H22.72a0,0,0,0,1,0,0v2.759a.716.716,0,0,1-.716.716H18.1a.716.716,0,0,1-.716-.716V33.709A0,0,0,0,1,17.382,33.709Z"/></svg>