<?xml version="1.0" encoding="UTF-8"?><svg id="Layer_1" xmlns="http://www.w3.org/2000/svg" viewBox="0 0 40 40"><g><g><path d="M31.14001,36.14014h-5.72003c0-2.25-1.35999-4.17017-3.31-5,.77002-.4502,1.40002-1.12012,1.76001-1.94019,.94,0,1.69-.70996,1.69-1.59009,0-.56982-.32001-1.05981-.78998-1.34985,.03998,.01001,.07001,.01001,.10999,.01001,.03998-2.8999-2.46002-5.28003-5.41998-4.95996-2.28003,.23999-4.11005,2.09985-4.32001,4.37988-.02002,.21997-.02002,.43018-.02002,.6499-.40997,.29004-.67999,.75-.67999,1.27002,0,.88013,.75,1.59009,1.69,1.59009,.35999,.82007,.98999,1.48999,1.76001,1.94019-1.95001,.82983-3.31,2.75-3.31,5h-5.72003l2.79004-13.5c.58997-2.81006,2.71997-5.08008,5.51996-6,.81,.5498,1.75,.87988,2.76001,.87988s1.96002-.33008,2.76001-.87988c2.85999,.93994,5.01001,3.27979,5.54999,6.1499l2.90002,13.3501Z" style="fill:#5268e9;"/><path d="M26.03003,10.28003v.09009l-.77002,.69995c-.15002,.13989-.39001,.03979-.41003-.16016-.02997-.35986-.14996-.85986-.45996-1.32007-.42999-.61987-1.23999-1.15991-2.81-1.13989-3.67004,.05005-4.38-2.11987-4.38-2.11987,0,0-.58002,1.85986-1.28003,3.31006-.23999,.47998-.47998,.90991-.71997,1.21973-.17999,.22021-.51001,.25-.72003,.07007l-.63995-.55005v-.10986c-.34003,.35986-.55005,.83008-.55005,1.33984,0,.9502,.69,1.74023,1.62,1.96021,.44,1.28979,1.24005,2.36987,2.26001,3.07007,.81,.5498,1.75,.87988,2.76001,.87988s1.96002-.33008,2.76001-.87988c1.02997-.7002,1.83002-1.78027,2.26001-3.07007,.94-.21997,1.63-1.01001,1.63-1.96021,0-.50977-.21002-.97998-.54999-1.32983Zm-7.61005,1.61011c-.32001,0-.57001-.31006-.57001-.69019,0-.37988,.25-.68994,.57001-.68994s.57001,.31006,.57001,.68994c0,.38013-.25,.69019-.57001,.69019Zm1.51001,3.76978c-.42999,0-.78998-.28979-.89996-.68994-.03003-.11987,.06-.25,.18994-.25h1.43005c.13,0,.21997,.13013,.17999,.25-.10004,.40015-.47003,.68994-.90002,.68994Zm1.52002-3.76978c-.32001,0-.57001-.31006-.57001-.69019,0-.37988,.25-.68994,.57001-.68994s.57001,.31006,.57001,.68994c0,.38013-.25,.69019-.57001,.69019Z" style="fill:#ffc84d;"/><path d="M18.98999,11.19995c0,.38013-.25,.69019-.57001,.69019s-.57001-.31006-.57001-.69019c0-.37988,.25-.68994,.57001-.68994s.57001,.31006,.57001,.68994Z"/><path d="M22.02002,11.19995c0,.38013-.25,.69019-.57001,.69019s-.57001-.31006-.57001-.69019c0-.37988,.25-.68994,.57001-.68994s.57001,.31006,.57001,.68994Z"/><path d="M26.03003,10.28003v.09009l-.77002,.69995c-.15002,.13989-.39001,.03979-.41003-.16016-.02997-.35986-.14996-.85986-.45996-1.32007-.42999-.61987-1.23999-1.15991-2.81-1.13989-3.67004,.05005-4.38-2.11987-4.38-2.11987,0,0-.58002,1.85986-1.28003,3.31006-.23999,.47998-.47998,.90991-.71997,1.21973-.17999,.22021-.51001,.25-.72003,.07007l-.63995-.55005v-.10986c-.04004-.66016-.09003-4.33008,2.75995-5.03003,0,0,1.69-1.84985,4.55005-1.26001,2.85999,.58008,4.40997,2.84009,4.67999,4.12988,.21997,1.08008,.20996,1.91016,.20001,2.17017Z" style="fill:#f80;"/><path d="M20.83002,14.96997c-.10004,.40015-.47003,.68994-.90002,.68994s-.78998-.28979-.89996-.68994c-.03003-.11987,.06-.25,.18994-.25h1.43005c.13,0,.21997,.13013,.17999,.25Z" style="fill:#5c2f17;"/></g><g><path d="M22.10956,31.14282c-.62335,.36084-1.33746,.58276-2.10956,.58276s-1.48621-.22192-2.10956-.58276c-1.94666,.823-3.31274,2.75024-3.31274,4.99658h10.8446c0-2.24634-1.36609-4.17358-3.31274-4.99658Z" style="fill:#64a7ff;"/><path d="M24.77002,26.26001c-.48999-.01001-.91003-.09009-1.26001-.20996-1.28003-.42993-1.72003-1.36011-1.72003-1.36011,0,0-.84998,1.02002-1.78998,1.02002s-1.88-1.02002-1.88-1.02002c-.56,.71997-1.15997,1.12012-1.66998,1.36011-.76001,.34985-1.33002,.32983-1.33002,.32983v-.04004c-.40997,.29004-.67999,.75-.67999,1.27002,0,.88013,.75,1.59009,1.69,1.59009,.35999,.82007,.98999,1.48999,1.76001,1.94019,.62,.35986,1.33997,.58984,2.10999,.58984s1.48999-.22998,2.10999-.58984c.77002-.4502,1.40002-1.12012,1.76001-1.94019,.94,0,1.69-.70996,1.69-1.59009,0-.56982-.32001-1.05981-.78998-1.34985Zm-5.96002,1.57007c-.25,0-.45001-.25-.45001-.55005,0-.29004,.20001-.54004,.45001-.54004s.45001,.25,.45001,.54004c0,.30005-.20001,.55005-.45001,.55005Zm1.19,2.31982c-.34003,0-.62-.22998-.71002-.54004-.01996-.09985,.05005-.18994,.15002-.18994h1.12c.09998,0,.16998,.09009,.15002,.18994-.09003,.31006-.37,.54004-.71002,.54004Zm1.19-2.31982c-.25,0-.45001-.25-.45001-.55005,0-.29004,.20001-.54004,.45001-.54004s.45001,.25,.45001,.54004c0,.30005-.20001,.55005-.45001,.55005Z" style="fill:#ffc84d;"/><path d="M18.80981,27.82544c.24902,0,.45087-.24219,.45087-.54102s-.20184-.54102-.45087-.54102c-.24896,0-.45081,.24219-.45081,.54102s.20184,.54102,.45081,.54102Z"/><path d="M21.19019,27.82544c.24896,0,.45081-.24219,.45081-.54102s-.20184-.54102-.45081-.54102c-.24902,0-.45087,.24219-.45087,.54102s.20184,.54102,.45087,.54102Z"/><path d="M20,30.15088c.33752,0,.62183-.22803,.70721-.53857,.02686-.09766-.0451-.19482-.14642-.19482h-1.12158c-.10132,0-.17328,.09717-.14642,.19482,.08539,.31055,.36969,.53857,.70721,.53857Z" style="fill:#5c2f17;"/><path d="M16.45416,26.04785c.50983-.23706,1.1015-.64062,1.67053-1.35425,0,0,.93903,1.01196,1.87531,1.01196s1.79102-1.01196,1.79102-1.01196c0,0,.43817,.92969,1.716,1.36133,.35229,.11914,.76904,.19751,1.25922,.20996,.04108,.00098,.07361,.00952,.11572,.00977,.04279-2.90869-2.45947-5.28345-5.42291-4.96509-2.27911,.24463-4.10425,2.09717-4.31921,4.37915-.02063,.21948-.02435,.43579-.01678,.64893,.00043,.01245-.00153,.02563-.00098,.03784,0,0,.57239,.02588,1.33209-.32764Z" style="fill:#f80;"/></g></g><rect width="40" height="40" style="fill:none;"/></svg>