<?xml version="1.0" encoding="UTF-8"?><svg id="Layer_1" xmlns="http://www.w3.org/2000/svg" viewBox="0 0 40 40"><g><path d="M3.8718,32.79862S1.94019,11.5676,12.20799,7.06777c0,0,2.82262-4.09076,9.12238-3.43623,6.29976,.65452,11.11077,5.50681,12.72225,9.89963,1.20046,3.27241,2.38783,10.20021,2.20031,18.22786-.02177,.93189-.52262,1.78619-1.31915,2.27037-1.73803,1.05648-5.76557,2.41-14.99427,2.41-15.1358,0-16.06772-3.64077-16.06772-3.64077Z" style="fill:#333;"/><path d="M24.71195,17.41296c-5.55752-.82613-9.17252-4.50719-10.32975-5.85442-.15737-.18321-.45426-.103-.49776,.13457-.2697,1.47298-1.22733,5.22036-4.2744,7.93665,0,0-.51108,.39069-1.08371,1.15924-.84116,1.12896-1.17221,2.56678-.93407,3.95437,1.04077,6.06425,6.10977,10.66663,12.20948,10.66663,5.73325,0,10.55592-4.06642,11.97964-9.59041,.70822-4.1031-1.77665-7.61987-7.06943-8.40662Z" style="fill:#ffcca8;"/><g><ellipse cx="16.06269" cy="21.97922" rx="1.38061" ry="1.65674"/><ellipse cx="23.35233" cy="21.97922" rx="1.38061" ry="1.65674"/></g><path d="M21.42642,29.25783c.30953,0,.52919,.2973,.44728,.59579-.26106,.9513-1.132,1.65027-2.16619,1.65027s-1.90513-.69897-2.16619-1.65027c-.08191-.2985,.13775-.59579,.44728-.59579h3.43782Z" style="fill:#5c2f17;"/></g><rect width="40" height="40" style="fill:none;"/></svg>