<?xml version="1.0" encoding="UTF-8"?><svg id="Layer_1" xmlns="http://www.w3.org/2000/svg" viewBox="0 0 40 40"><g><path d="m29.4,32.368l-4.931-1.873c-2.879-1.094-6.059-1.094-8.938,0l-4.931,1.873c-2.136.812-3.936,2.268-5.184,4.132h29.167c-1.247-1.864-3.047-3.32-5.184-4.132Z" fill="#5268ea"/><circle cx="19.98" cy="19.608" r="10.665" fill="#ffcca8"/><g><ellipse cx="10.247" cy="19.907" rx="4.269" ry="4.004" fill="#ffcca8"/><ellipse cx="29.713" cy="19.907" rx="4.269" ry="4.004" fill="#ffcca8"/></g><path d="m32.04,16.55c.108-7.322-6.192-13.301-13.652-12.5-5.738.616-10.333,5.28-10.874,11.025-.055.585-.069,1.162-.045,1.729,0,0,1.042-.248,1.97,1.765l7.035-7.872s8.54,6.859,14.177,6.485c.124-.008.267-.051.409-.112.376-.212.691-.604.98-.52Z" fill="#333"/><path d="m20,25.17c-.886,0-1.577-.153-2.049-.308-.245-.08-.445.211-.286.413.426.54,1.176,1.183,2.335,1.183s1.909-.643,2.335-1.183c.159-.202-.041-.493-.286-.413-.472.154-1.163.308-2.049.308Z" fill="#5c2f17"/><g><path d="m16.2,19.512c-.796,0-1.256-.183-1.647-.354-.226-.099-.399.076-.286.314.244.514.889,1.066,1.932,1.066,1.043,0,1.688-.552,1.932-1.066.113-.238-.06-.413-.286-.314-.391.172-.851.354-1.647.354Z"/><path d="m23.747,19.512c-.796,0-1.256-.183-1.647-.354-.226-.099-.399.076-.286.314.244.514.889,1.066,1.932,1.066,1.043,0,1.688-.552,1.932-1.066.113-.238-.06-.413-.286-.314-.391.172-.851.354-1.647.354Z"/></g><path d="m17.318,28.163h5.323v2.661c0,1.469-1.192,2.661-2.661,2.661h0c-1.469,0-2.661-1.192-2.661-2.661v-2.661h0Z" fill="#ffcca8"/><g><path d="m10.851,12.483l-.581,3.922c-.016.109-.057.208-.107.302v.007s1.181-3.007,1.181-3.007c.605-1.541,1.879-2.723,3.462-3.209l1.643-.505-2.593.011c-1.535.006-2.824,1.07-3.005,2.48Z" fill="#242424"/><path d="m16.669,7.677l-1.128-.189c-1.754-.294-3.149-1.528-3.545-3.135l-.21-.852h-3.407l-.859,5.451.651,7.401c.045.507.503.898,1.053.898.409,0,.765-.219.939-.542.051-.094.091-.193.107-.302l.581-3.922c.181-1.41,1.47-2.473,3.005-2.48l2.593-.011c.695-.003,1.257-.524,1.257-1.167,0-.564-.436-1.048-1.037-1.148Z" fill="#ffcca8"/><path d="m29.149,12.483c-.181-1.41-1.469-2.473-3.005-2.48l-2.593-.011,1.643.505c1.583.487,2.857,1.668,3.462,3.209l1.18,3.007v-.007c-.05-.094-.09-.193-.106-.302l-.581-3.922Z" fill="#242424"/><path d="m31.622,3.5h-3.407l-.21.852c-.396,1.607-1.791,2.841-3.545,3.135l-1.128.189c-.6.101-1.037.584-1.037,1.148,0,.643.562,1.164,1.257,1.167l2.593.011c1.535.006,2.824,1.07,3.005,2.48l.581,3.922c.016.109.057.208.107.302.175.323.53.542.939.542.55,0,1.009-.391,1.053-.898l.651-7.401-.859-5.451Z" fill="#ffcca8"/></g></g><rect width="40" height="40" fill="none"/></svg>