<?xml version="1.0" encoding="UTF-8"?><svg id="Layer_1" xmlns="http://www.w3.org/2000/svg" viewBox="0 0 40 40"><g><ellipse cx="20" cy="21.701" rx="13.304" ry="15.299" fill="#c3846c"/><g><ellipse cx="8.92" cy="22.424" rx="5.326" ry="4.995" fill="#c3846c"/><ellipse cx="31.08" cy="22.424" rx="5.326" ry="4.995" fill="#c3846c"/></g><g><ellipse cx="16.262" cy="21.407" rx="1.416" ry="1.699"/><ellipse cx="23.738" cy="21.407" rx="1.416" ry="1.699"/></g><path d="m21.763,29.806c.317,0,.543.305.459.611-.268.976-1.161,1.692-2.221,1.692s-1.954-.717-2.221-1.692c-.084-.306.141-.611.459-.611h3.525Z" fill="#5c2f17"/><path d="m4.947,19.098s-.937-10.786,6.794-12.696c0,0,4.168-4.567,11.234-3.118s10.872,7.006,11.536,10.208c.664,3.201.506,5.568.506,5.568l-1.995,1.57c-.535.421-1.291.392-1.795-.066-1.167-1.06-3.641-2.816-7.708-3.439-5.98-.916-9.399-5.585-10.298-8.034,0,0-2.516,8.097-4.939,11.187-.43.548-1.241.607-1.771.155l-1.564-1.334Z" fill="#523725"/></g><rect width="40" height="40" fill="none"/></svg>