<?xml version="1.0" encoding="UTF-8"?><svg id="Layer_1" xmlns="http://www.w3.org/2000/svg" viewBox="0 0 40 40"><g><path d="M9.39746,11.66669c-.05444-.31708,.02124-.64563,.21344-.90356,.1308-.17566,.24762-.26489,.24762-.26489,.69623-.62067,.91504-1.47693,.97668-1.81354,.00995-.05426,.07776-.07263,.11371-.03076,.26447,.30786,1.09045,1.14899,2.36035,1.33777,1.20941,.17975,1.77722,.98334,1.61536,1.9209-.2536,.98401-.98199,1.75873-1.91022,2.05548v.35382c1.55072-.06689,2.28772-.32501,2.63055-.53339,.18201-.1106,.29645-.30585,.30139-.51874,.03632-1.55554-.15363-2.92444-.37939-3.76245,.07489,.35919,.10553,.72418,.05066,1.0755-.25647-1.79718-1.77917-3.08801-3.40289-3.06134-1.62402-.02869-3.14844,1.26392-3.40289,3.06134-.02704-.17383-.02405-.35284-.0188-.53149-.40759,1.64404-.24573,3.45593-.24573,3.45593,0,0,.18774,.7229,3.0174,.82056v-.30402c-1.10364-.25989-1.96613-1.18518-2.16724-2.35712Z" style="fill:#ee9530;"/><g><path d="M11.33295,10.65649c-.17426,0-.31549,.16949-.31549,.3786,0,.20905,.14124,.37854,.31549,.37854,.17419,0,.31543-.16949,.31543-.37854,0-.20911-.14124-.3786-.31543-.3786Z"/><path d="M12.9986,10.65649c-.17419,0-.31549,.16949-.31549,.3786,0,.20905,.1413,.37854,.31549,.37854,.17426,0,.31549-.16949,.31549-.37854,0-.20911-.14124-.3786-.31549-.3786Z"/></g><path d="M12.55853,12.69824h-.78552c-.07074,0-.12091,.06793-.10223,.13611,.05969,.21741,.25867,.37708,.495,.37708s.4353-.15967,.495-.37708c.01868-.06818-.03149-.13611-.10223-.13611Z" style="fill:#56321b;"/><g><polygon points="15.59753 23.21375 12.52423 25.62842 15.59753 34.59937 17.87695 34.51074 15.59753 23.21375" style="fill:#f5ca5f;"/><polygon points="15.59753 23.21375 15.59222 23.09631 15.59222 23.09631 15.59753 23.21375" style="fill:#f5ca5f;"/><polygon points="9.73505 34.51074 11.91937 34.51074 11.91138 34.64197 12.52423 25.62842 9.04047 23.45325 9.73505 34.51074" style="fill:#f5ca5f;"/><path d="M7.22235,18.89886l1.92206-1.63733,.04053-2.41547c-.24408-.00397-.49109,.06708-.69183,.23846l-2.94983,2.51312c-.3728,.31689-.59021,.77911-.59729,1.2677-.00714,.48962,.19702,.95789,.55969,1.28497l3.24847,2.94275c.08734,.07886,.18701,.13306,.28937,.17725l.04504-2.68073-1.86621-1.69073Z" style="fill:#f5ca5f;"/><path d="M15.33282,17.36871h0l1.79657,1.53119-1.65918,1.50256h0l.12201,2.69385h0l.00531-.00323,3.25055-2.94275c.36163-.3291,.56482-.79742,.55768-1.28601-.00812-.48859-.22552-.94977-.59729-1.26666l-2.94983-2.51312c-.18634-.15912-.41309-.22479-.63983-.23254h0l.11401,2.51672Z" style="fill:#f5ca5f;"/><path d="M13.31,9.98999c-1.27002-.19-2.09998-1.03003-2.35999-1.34003-.04004-.03998-.10004-.01996-.10999,.03003-.07001,.33997-.29004,1.20001-.98004,1.82001,0,0-.12,.08997-.25,.26001-.19,.25995-.26996,.58997-.20996,.90997,.19995,1.16998,1.06,2.09003,2.15997,2.34998v.71002h-1.33002c.11005,.89001,.92999,1.58002,1.94,1.58002s1.83002-.69,1.95001-1.58002h-1.10999v-.76001c.92999-.29999,1.65997-1.07001,1.90997-2.06,.17004-.92999-.39996-1.73999-1.60999-1.91998Zm-1.53998,2.71002h.78998c.07001,0,.12,.06995,.09998,.12994-.06,.22003-.25995,.38-.48999,.38-.23999,0-.44-.15997-.5-.38-.01996-.06,.03003-.12994,.10004-.12994Zm-.44-1.29004c-.17004,0-.31-.16998-.31-.37,0-.21002,.13995-.38,.31-.38,.17999,0,.32001,.16998,.32001,.38,0,.20001-.14001,.37-.32001,.37Zm1.66998,0c-.17999,0-.32001-.16998-.32001-.37,0-.21002,.14001-.38,.32001-.38,.16998,0,.31,.16998,.31,.38,0,.20001-.14001,.37-.31,.37Z" style="fill:#f5ca5f;"/></g><g><path d="M15.62,10.57996c-.26001-1.78998-1.77997-3.08997-3.40997-3.06-1.62-.02997-3.14001,1.27002-3.40002,3.06-.02997-.16998-.02002-.34998-.02002-.52997,.02002-.73999,.30005-1.48999,.83002-2.06,.26001-.28998,.58002-.52002,.91998-.71002-.31-.37-.63-.95996-.85999-1.66998-.41998-1.28003-.41998-2.42999,.01001-2.57001,.42999-.14996,1.12,.78003,1.54999,2.06,.22003,.69,.32001,1.33002,.29999,1.81,.02002,0,.04004,0,.06-.01001,.20001-.02997,.41003-.06,.61005-.06,.23999,0,.46997,.03003,.69,.07001-.02002-.47998,.07996-1.12,.31-1.81,.41998-1.27997,1.10999-2.20996,1.53998-2.06,.42999,.14001,.44,1.28998,.02002,2.57001-.23999,.71997-.56,1.31-.87,1.67999,.33997,.17999,.64996,.41003,.90997,.70001,.40002,.42999,.64001,.96002,.76001,1.52002,.07001,.35999,.09998,.71997,.04999,1.06995Z" style="fill:#3d3d3d;"/><path d="M15.59222,23.09631l-.12201-2.69385-.13739-3.03375-.11401-2.51672-.00549-.12115h-1.0968c-.11401,.89032-.93555,1.58411-1.94421,1.58411-1.00842,0-1.82996-.69379-1.94397-1.58411h-1.04144l-.00195,.11523-.04053,2.41547-.05585,3.32806-.04504,2.68073-.00305,.18292,3.48376,2.17517,3.0733-2.41467-.00531-.11743Z" style="fill:#3d3d3d;"/><path d="M9.73505,34.51074h0l-.79944,.30048c-.55566,.20886-.92365,.7403-.92365,1.33386,0,.42474,.34436,.76904,.76904,.76904h2.18225c.4552,0,.83173-.35431,.85931-.80865l.08881-1.4635,.008-.13123h-2.18433Z" style="fill:#3d3d3d;"/><path d="M18.82715,34.81122l-.9502-.30048-2.27942,.08862,.51538,1.69116c.12811,.42017,.52228,.70209,.9613,.68738l1.90753-.06378c.42468,0,.76904-.3443,.76904-.76904,0-.59357-.36798-1.125-.92365-1.33386Z" style="fill:#3d3d3d;"/></g></g><g><path d="M24.65198,11.66669c-.05444-.31708,.02124-.64563,.21344-.90356,.1308-.17566,.24762-.26489,.24762-.26489,.69623-.62067,.91504-1.47693,.97668-1.81354,.00995-.05426,.07776-.07263,.11371-.03076,.26447,.30786,1.09045,1.14899,2.36035,1.33777,1.20941,.17975,1.77722,.98334,1.61536,1.9209-.24927,.96704-.95605,1.73431-1.86133,2.0423v.36401c1.51526-.07037,2.24261-.32434,2.58167-.5304,.18201-.1106,.29645-.30585,.30139-.51874,.02966-1.26776-.09198-2.40784-.25977-3.24274,.0069,.18689,.00836,.37402-.02002,.55579-.25653-1.79718-1.77917-3.08801-3.40289-3.06134-1.62402-.02869-3.1485,1.26392-3.40295,3.06134-.03729-.24011-.03796-.48706-.0141-.73425-.47522,1.69409-.29932,3.65869-.29932,3.65869,0,0,.18774,.73212,3.06635,.82275v-.29211c-1.12756-.2431-2.01202-1.18158-2.21619-2.37122Z" style="fill:#ee9530;"/><g><path d="M26.58746,10.65649c-.17426,0-.31549,.16949-.31549,.3786,0,.20905,.14124,.37854,.31549,.37854,.17419,0,.31543-.16949,.31543-.37854,0-.20911-.14124-.3786-.31543-.3786Z"/><path d="M28.25311,10.65649c-.17419,0-.31549,.16949-.31549,.3786,0,.20905,.1413,.37854,.31549,.37854,.17426,0,.31549-.16949,.31549-.37854,0-.20911-.14124-.3786-.31549-.3786Z"/></g><path d="M27.81305,12.69824h-.78552c-.07074,0-.12091,.06793-.10223,.13611,.05969,.21741,.25867,.37708,.495,.37708s.4353-.15967,.495-.37708c.01868-.06818-.03149-.13611-.10223-.13611Z" style="fill:#56321b;"/><g><polygon points="25.03851 34.51074 27.22284 34.51074 27.21484 34.64246 27.82764 25.62842 24.34393 23.45325 25.03851 34.51074" style="fill:#f5ca5f;"/><polygon points="30.901 23.21375 27.82764 25.62842 30.901 34.59937 33.18042 34.51074 30.901 23.21375" style="fill:#f5ca5f;"/><path d="M22.52582,18.89886l1.92206-1.63739,.04053-2.41541c-.24408-.00397-.49109,.06708-.69183,.23846l-2.94989,2.51312c-.3728,.31689-.59015,.77911-.59729,1.2677-.00708,.48962,.19708,.95789,.55969,1.28497l3.24854,2.94275c.08734,.07886,.18701,.13306,.28937,.17725l.04504-2.68073-1.86621-1.69073Z" style="fill:#f5ca5f;"/><path d="M32.4328,18.8999l-1.65912,1.50256,.12201,2.69385,.00531-.00323,3.25055-2.94275c.36163-.3291,.56476-.79742,.55768-1.28601-.00812-.48859-.22552-.94977-.59729-1.26666l-2.94989-2.51312c-.18634-.15912-.41309-.22479-.63977-.23254l.11401,2.51672,1.79651,1.53119Z" style="fill:#f5ca5f;"/><path d="M28.56,9.98999c-1.27002-.19-2.09003-1.03003-2.35999-1.34003-.03003-.03998-.10004-.01996-.10999,.03003-.06,.33997-.28003,1.20001-.98004,1.82001,0,0-.10999,.08997-.23999,.26001-.20001,.25995-.27002,.58997-.21997,.90997,.20996,1.19,1.08997,2.12,2.21997,2.37v.69h-1.33997c.12,.89001,.93994,1.58002,1.94995,1.58002,1,0,1.83002-.69,1.94-1.58002h-1.09998v-.77997c.89996-.30005,1.60999-1.07001,1.85999-2.04004,.16003-.92999-.40997-1.73999-1.62-1.91998Zm-1.52997,2.71002h.77997c.07001,0,.12,.06995,.10999,.12994-.06,.22003-.26001,.38-.5,.38s-.44-.15997-.48999-.38c-.02002-.06,.03003-.12994,.10004-.12994Zm-.44-1.29004c-.18005,0-.32001-.16998-.32001-.37,0-.21002,.13995-.38,.32001-.38,.16998,0,.31,.16998,.31,.38,0,.20001-.14001,.37-.31,.37Zm1.65997,0c-.16998,0-.31-.16998-.31-.37,0-.21002,.14001-.38,.31-.38,.17999,0,.32001,.16998,.32001,.38,0,.20001-.14001,.37-.32001,.37Z" style="fill:#f5ca5f;"/></g><g><path d="M30.94,10.02997c.01001,.17999,.01001,.37-.02002,.54999-.26001-1.78998-1.77997-3.08997-3.39996-3.06-1.63-.02997-3.15002,1.27002-3.40002,3.06-.03998-.23999-.03998-.47998-.02002-.72998,.07001-.66998,.35004-1.33997,.82001-1.85999,.26001-.28998,.58002-.52002,.92999-.71002-.31-.37-.63-.95996-.87-1.66998-.41998-1.28003-.40997-2.42999,.02002-2.57001,.42999-.14996,1.12,.78003,1.53998,2.06,.23004,.67999,.33002,1.33002,.31,1.81,.22003-.03998,.44-.07001,.67004-.07001,.19,0,.38,.03003,.57001,.06,.03998,.01001,.07996,0,.12,.01001-.02002-.47998,.07001-1.12,.29999-1.81,.41998-1.27997,1.12-2.20996,1.54999-2.06,.41998,.14001,.42999,1.28998,.01001,2.57001-.23999,.71997-.56,1.31-.87,1.67999,.33997,.17999,.65997,.41003,.90997,.70001,.52002,.56,.79999,1.31,.83002,2.03998Z" style="fill:#3d3d3d;"/><path d="M30.89569,23.09631l-.12201-2.69385-.13739-3.03375-.11401-2.51672-.00549-.12115h-1.0968c-.11401,.89032-.93555,1.58411-1.94421,1.58411-1.00842,0-1.82996-.69379-1.94397-1.58411h-1.04144l-.00195,.11523-.04053,2.41541-.05585,3.32812-.04504,2.68073-.00305,.18292,3.4837,2.17517,3.07336-2.41467-.00531-.11743Z" style="fill:#3d3d3d;"/><path d="M25.03851,34.51074h0l-.7995,.30048c-.5556,.20886-.92358,.7403-.92358,1.33386,0,.42474,.3443,.76904,.76904,.76904h2.18225c.4552,0,.83167-.35431,.85925-.80865l.08887-1.46301,.008-.13171h-2.18433Z" style="fill:#3d3d3d;"/><path d="M34.13062,34.81122l-.9502-.30048-2.27942,.08862,.51538,1.69116c.12805,.42017,.52228,.70209,.9613,.68738l1.90747-.06378c.42474,0,.76904-.3443,.76904-.76904,0-.59357-.36792-1.125-.92358-1.33386Z" style="fill:#3d3d3d;"/></g></g></svg>