<?xml version="1.0" encoding="UTF-8"?><svg id="Layer_1" xmlns="http://www.w3.org/2000/svg" viewBox="0 0 40 40"><g><path d="M36.40997,22.41992c0-1.29077-.53564-2.46509-1.4007-3.35327l-1.98706,1.56335c-.53516,.42102-1.2912,.39172-1.79523-.06604-1.16681-1.05981-3.64117-2.81604-7.70819-3.43872-5.97955-.91553-9.39941-5.58459-10.29761-8.03418,0,0-2.51624,8.09692-4.93921,11.18652-.42981,.5481-1.24103,.60669-1.77094,.15454l-1.55518-1.3269c-.84351,.88403-1.36584,2.04199-1.36584,3.3147,0,2.32312,1.68683,4.26807,3.97144,4.82458,.01666,.00403,.0318,.0116,.04852,.0155,.91852,2.71265,2.49695,5.04175,4.50153,6.74597,2.2074,1.87659,4.93268,2.99402,7.88849,2.99402s5.68109-1.11743,7.88849-2.99402c2.00458-1.70422,3.58301-4.03333,4.50153-6.74597,.22028-.05151,.42926-.1272,.63763-.20361,1.97711-.72498,3.38232-2.51953,3.38232-4.63647Z" style="fill:#ffcca8;"/><g><ellipse cx="16.26243" cy="21.40664" rx="1.41575" ry="1.6989"/><ellipse cx="23.73757" cy="21.40664" rx="1.41575" ry="1.6989"/></g><path d="M21.76265,29.80597c.31741,0,.54266,.30486,.45866,.61096-.2677,.97551-1.1608,1.69227-2.22132,1.69227s-1.95362-.71676-2.22132-1.69227c-.084-.30609,.14125-.61096,.45866-.61096h3.52531Z" style="fill:#5c2f17;"/><g><path d="M27.88849,34.00598h2.12701c.62964,0,1.18237-.41907,1.35223-1.02551l1.65991-5.92407c-.20837,.07642-.41736,.1521-.63763,.20361-.91852,2.71265-2.49695,5.04175-4.50153,6.74597Z" style="fill:#ffe8b3;"/><path d="M7.60999,27.26001c-.01672-.00391-.03186-.01147-.04852-.0155l1.13159,5.63367c.13171,.65601,.70782,1.12781,1.37683,1.12781h2.04163c-2.00458-1.70422-3.58301-4.03333-4.50153-6.74597Z" style="fill:#ffe8b3;"/><path d="M8.28198,20.27759c2.42297-3.0896,4.93921-11.18652,4.93921-11.18652,.89819,2.44958,4.31805,7.11865,10.29761,8.03418,4.06702,.62268,6.54138,2.37891,7.70819,3.43872,.50403,.45776,1.26007,.48706,1.79523,.06604l1.98706-1.56335,.00818-.00659s.15851-2.36719-.50592-5.56836c-.66437-3.20117-4.46954-8.75793-11.53632-10.20752s-11.23438,3.11792-11.23438,3.11792c-7.73114,1.90991-6.79388,12.69556-6.79388,12.69556l.00891,.00757,1.55518,1.3269c.52991,.45215,1.34113,.39355,1.77094-.15454Z" style="fill:#ffe8b3;"/></g></g><rect width="40" height="40" style="fill:none;"/></svg>