<?xml version="1.0" encoding="UTF-8"?><svg id="Layer_1" xmlns="http://www.w3.org/2000/svg" viewBox="0 0 40 40"><g><g><path d="m28.484,9.461c-1.129-3.078-4.5-6.478-8.915-6.937-4.414-.459-6.392,2.408-6.392,2.408-7.195,3.153-5.841,18.03-5.841,18.03,0,0,.653,2.551,11.259,2.551,6.467,0,9.289-.948,10.507-1.689.558-.339.909-.938.924-1.591.131-5.625-.701-10.479-1.542-12.773Zm-1.591,8.502c-.998,3.829-4.377,6.648-8.394,6.648-4.274,0-7.826-3.19-8.555-7.393-.167-.962.065-1.958.655-2.741.401-.533.759-.804.759-.804,2.135-1.883,2.806-4.48,2.995-5.501.03-.165.239-.22.349-.093.811.934,3.344,3.485,7.238,4.058,3.709.545,5.45,2.983,4.954,5.827Z" fill="#523725"/><path d="m17.085,28.617c.377.298.847.483,1.365.483.514,0,.982-.186,1.358-.484l.842-2.77v-1.516c3.03-.8,5.42-3.25,6.24-6.37.5-2.84-1.24-5.28-4.95-5.82-3.9-.58-6.43-3.13-7.24-4.06-.11-.13-.32-.07-.35.09-.19,1.02-.86,3.62-2.99,5.5,0,0-.36.27-.76.81-.59.78-.82,1.78-.66,2.74.6,3.43,3.08,6.19,6.3,7.08v1.538l.845,2.779Z" fill="#c3846c"/><g><ellipse cx="15.878" cy="15.381" rx=".967" ry="1.161"/><ellipse cx="20.986" cy="15.381" rx=".967" ry="1.161"/></g><path d="m19.636,20.481c.217,0,.371.208.313.417-.183.667-.793,1.156-1.518,1.156s-1.335-.49-1.518-1.156c-.057-.209.097-.417.313-.417h2.409Z" fill="#5c2f17"/></g><g><path d="m32.744,36.822l-.54-2.196c-.21-.854-.487-1.698-.925-2.461-1.067-1.859-2.752-3.311-4.786-4.084l-4.227-1.606c-.038-.014-.076-.024-.114-.037.108.078.192.185.217.318l1.08,5.971c.027.149-.131.263-.264.19l-1.739-.961c-.234-.129-.525-.081-.705.117l-1.932,2.127c-.193.213-.528.213-.722,0l-1.932-2.127c-.18-.198-.471-.246-.705-.117l-1.739.961c-.133.073-.291-.04-.264-.19l1.08-5.971c.025-.141.116-.253.232-.331-.05.018-.102.031-.152.05l-4.227,1.606c-2.035.773-3.719,2.224-4.786,4.084-.438.763-.715,1.607-.925,2.461l-.54,2.196c-.082.332.17.653.511.653h27.595c.342,0,.593-.321.511-.653Zm-18.056-1.273c0,.094-.063.177-.155.201l-2.8.747c-.122.033-.251.033-.373,0l-2.8-.747c-.091-.024-.155-.107-.155-.201v-.815c0-.115.093-.208.208-.208h5.867c.115,0,.208.093.208.208v.815Z" fill="#5a81ff"/><path d="m18.262,32.484c.022.066.072.1.128.117l-.203-.365.075.248Z" fill="#5a81ff"/><path d="m17.085,28.617l1.101,3.619.203.365c.094.029.205-.004.242-.117l1.177-3.868c-.376.298-.844.484-1.358.484-.518,0-.988-.186-1.365-.483Z" fill="#fff"/><path d="m14.524,26.757l-1.08,5.971c-.027.149.131.263.264.19l1.739-.961c.234-.129.525-.081.705.117l1.932,2.127c.194.213.528.213.722,0l1.932-2.127c.18-.198.471-.246.705-.117l1.739.961c.133.073.291-.04.264-.19l-1.08-5.971c-.024-.134-.109-.24-.217-.318-.029-.021-.049-.05-.082-.065l-1.407-.569-.013.042-.842,2.77-1.177,3.868c-.037.112-.148.146-.242.117-.055-.017-.106-.05-.128-.117l-.075-.248-1.101-3.619-.845-2.779-.01-.033-1.407.569c-.026.012-.043.036-.066.052-.117.078-.207.19-.232.331Z" fill="#374be5"/><path d="m14.48,34.526h-5.867c-.115,0-.208.093-.208.208v.815c0,.094.063.177.155.201l2.8.747c.122.033.251.033.373,0l2.8-.747c.091-.024.155-.107.155-.201v-.815c0-.115-.093-.208-.208-.208Z" fill="#374be5"/></g><g><path d="m31.269,25.42c-.042-.113-.168-.17-.282-.128l-1.823.684c-1,.375-1.81,1.131-2.253,2.104l-1.577,3.467,2.271,1.033,1.148-2.525c.442-.972,1.253-1.729,2.253-2.104l.856-.322c.113-.042.17-.168.128-.282l-.722-1.927Z" fill="#c4c4c4"/><path d="m25.219,31.494c-.294-.134-.641-.003-.774.291l-2.571,5.69h4.271s1.841-4.083,1.841-4.083c.132-.293.002-.638-.291-.772l-.089-.04-2.271-1.033-.116-.053Z" fill="#333"/></g><g><path d="m35.681,24.598c-.685-.211-2.247-.638-2.906-.363-.856.357-1.261,1.34-.904,2.196.357.856,1.34,1.261,2.196.904.659-.274,1.456-1.684,1.789-2.319.086-.165.003-.363-.174-.418Zm-2.301,2.066c-.406.169-.872-.023-1.041-.429-.169-.406.023-.872.429-1.041.406-.169.872.023,1.041.429.169.406-.023.872-.429,1.041Z" fill="#ff5543"/><path d="m32.767,25.195c-.406.169-.598.635-.429,1.041.169.406.635.598,1.041.429.406-.169.598-.635.429-1.041-.169-.406-.635-.598-1.041-.429Z" fill="#fb0"/></g></g><rect y="-.025" width="40" height="40" fill="none"/></svg>