<?xml version="1.0" encoding="UTF-8"?><svg id="Layer_1" xmlns="http://www.w3.org/2000/svg" viewBox="0 0 40 40"><g><path d="m19.132,18.825c.527.348,1.208.348,1.735,0,1.674-1.106,5.321-3.748,6.891-6.705,2.071-3.901-.361-7.792-3.575-7.792-1.832,0-2.935.957-3.545,1.781-.321.434-.956.434-1.277,0-.61-.823-1.712-1.781-3.545-1.781-3.214,0-5.647,3.891-3.575,7.792,1.57,2.957,5.218,5.599,6.891,6.705Z" fill="#ec4452"/><g><g><path d="m35.874,24.466c-.788-2.149-3.142-4.522-6.223-4.843-3.082-.32-4.462,1.681-4.462,1.681-5.023,2.201-4.078,12.587-4.078,12.587,0,0,.456,1.781,7.86,1.781,4.514,0,6.484-.662,7.335-1.179.39-.237.635-.655.645-1.111.092-3.927-.489-7.316-1.076-8.917Zm-1.111,6.011c-.696,2.702-3.056,4.691-5.86,4.691-2.984,0-5.463-2.251-5.972-5.218-.116-.679.045-1.382.457-1.934.28-.376.53-.567.53-.567,1.491-1.329,1.959-3.162,2.091-3.882.021-.116.167-.156.243-.066.566.659,2.334,2.459,5.053,2.864,2.589.385,3.805,2.105,3.458,4.112Z" fill="#ff9000"/><path d="m31.305,26.365c-2.719-.404-4.487-2.205-5.053-2.864-.077-.09-.222-.051-.243.066-.132.72-.6,2.554-2.091,3.882,0,0-.25.191-.53.567-.411.552-.573,1.256-.457,1.934.509,2.967,2.989,5.218,5.972,5.218,2.805,0,5.164-1.989,5.86-4.691.346-2.007-.869-3.728-3.458-4.112Zm-3.47,2.535c-.145.306-.529.634-1.15.634s-1.005-.329-1.15-.634c-.067-.142.036-.246.17-.187.233.102.506.211.98.211s.747-.109.98-.211c.134-.059.237.045.17.187Zm1.438,4.229c-.197,0-.709-.106-.741-.552-.017-.247.206-.467.368-.589-.162-.122-.363-.244-.345-.54.024-.404.667-.517.751-.517.087,0,.141.008.142.061,0,.053-.063.071-.154.098-.279.084-.388.247-.388.363,0,.211.207.316.324.392.095.061.156.076.158.128.002.044-.06.067-.158.129-.097.062-.309.201-.309.437,0,.182.154.319.373.405.131.052.181.075.174.125-.008.05-.079.06-.195.06Zm3.053-4.229c-.145.306-.529.634-1.15.634s-1.005-.329-1.15-.634c-.067-.142.036-.246.17-.187.233.102.506.211.98.211s.747-.109.98-.211c.134-.059.237.045.17.187Z" fill="#ffc84d"/><path d="m27.665,28.714c-.233.102-.506.211-.98.211s-.747-.109-.98-.211c-.134-.059-.237.045-.17.187.145.306.529.634,1.15.634s1.005-.329,1.15-.634c.067-.142-.036-.246-.17-.187Z"/><path d="m32.155,28.714c-.233.102-.506.211-.98.211s-.747-.109-.98-.211c-.134-.059-.237.045-.17.187.145.306.529.634,1.15.634s1.005-.329,1.15-.634c.067-.142-.036-.246-.17-.187Z"/><path d="m29.294,32.944c-.219-.087-.373-.224-.373-.405,0-.235.211-.375.309-.437.097-.062.16-.085.158-.129-.002-.052-.063-.067-.158-.128-.117-.075-.324-.18-.324-.392,0-.116.11-.279.388-.363.091-.027.154-.045.154-.098,0-.053-.055-.061-.142-.061-.084,0-.727.114-.751.517-.018.296.183.417.345.54-.162.122-.385.342-.368.589.032.446.544.552.741.552.117,0,.187-.01.195-.06.008-.05-.042-.073-.174-.125Z" fill="#ec6700"/></g><g><path d="m17.874,24.466c-.788-2.149-3.142-4.522-6.223-4.843-3.082-.32-4.462,1.681-4.462,1.681-5.023,2.201-4.078,12.587-4.078,12.587,0,0,.456,1.781,7.86,1.781,4.514,0,6.484-.662,7.335-1.179.39-.237.635-.655.645-1.111.092-3.927-.489-7.316-1.076-8.917Zm-1.111,6.011c-.696,2.702-3.056,4.691-5.86,4.691-2.984,0-5.463-2.251-5.973-5.218-.116-.679.045-1.382.457-1.934.28-.376.53-.567.53-.567,1.491-1.329,1.959-3.162,2.091-3.882.021-.116.167-.156.244-.066.566.659,2.334,2.459,5.053,2.864,2.589.385,3.805,2.105,3.458,4.112Z" fill="#ff9000"/><path d="m13.305,26.365c-2.719-.404-4.487-2.205-5.053-2.864-.077-.09-.222-.051-.244.066-.132.72-.6,2.554-2.091,3.882,0,0-.25.191-.53.567-.411.552-.573,1.256-.457,1.934.509,2.967,2.989,5.218,5.973,5.218,2.805,0,5.164-1.989,5.86-4.691.346-2.007-.869-3.728-3.458-4.112Zm-3.47,2.535c-.145.306-.529.634-1.15.634s-1.005-.329-1.15-.634c-.067-.142.036-.246.17-.187.233.102.506.211.98.211s.747-.109.98-.211c.134-.059.237.045.17.187Zm1.218,4.229c-.116,0-.187-.01-.195-.06-.008-.05.042-.073.174-.125.219-.087.373-.224.373-.405,0-.235-.211-.375-.309-.437s-.16-.085-.158-.129c.002-.052.063-.067.158-.128.117-.075.324-.18.324-.392,0-.116-.11-.279-.388-.363-.091-.027-.154-.045-.154-.098,0-.053.055-.061.142-.061.084,0,.727.114.751.517.018.296-.183.417-.345.54.162.122.385.342.368.589-.032.446-.544.552-.741.552Zm3.273-4.229c-.145.306-.529.634-1.15.634s-1.005-.329-1.15-.634c-.067-.142.036-.246.17-.187.233.102.506.211.98.211s.747-.109.98-.211c.134-.059.237.045.17.187Z" fill="#ffc84d"/><path d="m9.665,28.714c-.233.102-.506.211-.98.211s-.747-.109-.98-.211c-.134-.059-.237.045-.17.187.145.306.529.634,1.15.634s1.005-.329,1.15-.634c.067-.142-.036-.246-.17-.187Z"/><path d="m14.156,28.714c-.233.102-.506.211-.98.211s-.747-.109-.98-.211c-.134-.059-.237.045-.17.187.145.306.529.634,1.15.634s1.005-.329,1.15-.634c.067-.142-.036-.246-.17-.187Z"/><path d="m11.426,31.988c.162-.122.363-.244.345-.54-.024-.404-.667-.517-.751-.517-.087,0-.141.008-.142.061,0,.053.063.071.154.098.279.084.388.247.388.363,0,.211-.207.316-.324.392-.095.061-.156.076-.158.128-.002.044.06.067.158.129s.309.201.309.437c0,.182-.154.319-.373.405-.131.052-.181.075-.174.125.008.05.079.06.195.06.197,0,.709-.106.741-.552.017-.247-.206-.467-.368-.589Z" fill="#ec6700"/></g></g></g><rect width="40" height="40" fill="none"/></svg>