<?xml version="1.0" encoding="UTF-8"?><svg id="Layer_1" xmlns="http://www.w3.org/2000/svg" viewBox="0 0 40 40"><g><ellipse cx="20" cy="21.86274" rx="13.14979" ry="15.12209" style="fill:#6e4944;"/><g><ellipse cx="9.04766" cy="22.57706" rx="5.26416" ry="4.93732" style="fill:#6e4944;"/><ellipse cx="30.95234" cy="22.57706" rx="5.26416" ry="4.93732" style="fill:#6e4944;"/></g><g><ellipse cx="16.30564" cy="21.57173" rx="1.39938" ry="1.67926"/><ellipse cx="23.69436" cy="21.57173" rx="1.39938" ry="1.67926"/></g><path d="M21.74076,30.16496c.31449,0,.5379,.30213,.45447,.60536-.2651,.96349-1.14751,1.67124-2.19523,1.67124s-1.93014-.70775-2.19523-1.67124c-.08343-.30323,.13998-.60536,.45447-.60536h3.48153Z" style="fill:#5c2f17;"/><path d="M20,27.31218c-2.39521,0-4.52582,.82323-5.90027,2.10477-.72315,.67427-.24877,1.88632,.73995,1.88632l4.11227-.53591c.69576-.09067,1.40034-.09067,2.0961,0l4.11227,.53591c.98873,0,1.4631-1.21205,.73995-1.88632-1.37444-1.28154-3.50506-2.10477-5.90027-2.10477Z" style="fill:#333;"/><path d="M6.80227,22.33111c-.25436-.40871-.51453-1.03217-.4404-1.80838,0,0-2.32866-1.95589-1.09584-4.86798,0,0-1.73508-2.08628,.18264-3.60752,0,0-.54792-2.9121,2.19168-3.47713,0,0-.31962-2.7817,3.10488-2.7817,0,0,1.46112-2.56438,4.52035-1.52124,0,0,2.23734-2.39053,5.57053-.56503,0,0,2.60262-1.217,4.24639,.52157,0,0,2.55696-.86928,3.60715,1.86896,0,0,3.37885,.21732,3.60715,2.65131,0,0,2.87658,.39118,2.283,3.65099,0,0,2.0547,2.3036-.13698,4.52027,0,0,.9132,2.21667-.31962,2.95556,0,0,.6396,1.54-.47186,2.66942-.16808,.1708-.46399,.08983-.52964-.14063l-1.97532-6.93369c-.47983-1.68428-2.08574-2.85361-3.91902-2.85361H12.90324c-1.899,0-3.54439,1.25287-3.96144,3.01642l-1.56239,6.60681c-.06491,.27448-.42811,.33509-.57714,.09563Z" style="fill:#333;"/></g><rect width="40" height="40" style="fill:none;"/></svg>