<?xml version="1.0" encoding="UTF-8"?><svg id="Layer_1" xmlns="http://www.w3.org/2000/svg" viewBox="0 0 40 40"><g><g><path d="m9.563,24.014s-1.272-13.984,5.491-16.948c0,0,1.859-2.694,6.009-2.263,4.15.431,7.318,3.627,8.38,6.521.791,2.155,1.573,6.719,1.449,12.006-.014.614-.344,1.177-.869,1.495-1.145.696-3.798,1.587-9.876,1.587-9.97,0-10.583-2.398-10.583-2.398Z" fill="#333"/><path d="m20.01,30.52c1.14,0,2.06-.92,2.06-2.05v-3.17c2.86-.75,5.11-3.05,5.88-5.99.46-2.67-1.17-4.96-4.66-5.47-3.66-.54-6.04-2.94-6.8-3.82-.11-.12-.3-.06-.33.09-.18.96-.81,3.4-2.82,5.17,0,0-.33.26-.71.76-.55.73-.77,1.67-.62,2.57.57,3.24,2.91,5.84,5.95,6.67v3.19c0,1.13.92,2.05,2.05,2.05Z" fill="#6e4944"/><g><ellipse cx="17.593" cy="16.887" rx=".909" ry="1.091"/><ellipse cx="22.395" cy="16.887" rx=".909" ry="1.091"/></g><path d="m21.126,21.681c.204,0,.349.196.295.392-.172.627-.746,1.087-1.427,1.087s-1.255-.46-1.427-1.087c-.054-.197.091-.392.295-.392h2.264Z" fill="#5c2f17"/></g><g><path d="m33.349,36.891l-.504-2.048c-.196-.797-.455-1.584-.863-2.296-.996-1.734-2.567-3.089-4.465-3.81l-3.943-1.498c-.491-.187-.995-.325-1.504-.432v1.663c0,1.13-.92,2.05-2.06,2.05-1.13,0-2.05-.92-2.05-2.05v-1.67c-.519.107-1.033.249-1.534.439l-3.943,1.498c-1.898.721-3.469,2.075-4.465,3.81-.408.712-.667,1.499-.863,2.296l-.504,2.048c-.076.31.158.609.477.609h25.744c.319,0,.553-.299.477-.609Z" fill="#d9d9d9"/><g><path d="m30.761,6.277c-2.354-2.28-6.286-3.777-10.75-3.777s-8.396,1.497-10.75,3.777c-.755.731-1.016,1.838-.631,2.815.428,1.085,1.139,2.08,2.064,2.946v-1.547c0-.276.152-.531.402-.647,2.335-1.092,5.468-1.761,8.916-1.761s6.562.665,8.894,1.75c.25.116.403.372.403.648v1.556c-2.369-1.2-5.658-1.945-9.297-1.945s-6.941.749-9.311,1.954c2.169,2.027,5.53,3.332,9.311,3.332,5.399,0,9.951-2.654,11.382-6.284.385-.977.123-2.084-.631-2.815Zm-7.25-1.587c-.936,1.631-2.611,1.195-2.648,1.186,0,.549-.446.994-.995.994s-.994-.445-.995-.994c-.036.009-1.711.445-2.648-1.186-.103-.179.027-.404.234-.404h1.516c.053,0,.105.016.149.045l1.139.758-.011.022c.171-.138.379-.232.616-.232s.445.094.616.232l-.011-.022,1.139-.758c.044-.029.096-.045.149-.045h1.516c.207,0,.336.225.234.404Z" fill="#242424"/><path d="m29.308,12.035v-1.556c0-.276-.153-.531-.403-.648-2.332-1.085-5.457-1.75-8.894-1.75s-6.582.669-8.916,1.761c-.25.117-.402.372-.402.647v1.557s.005-.002.007-.003c2.37-1.205,5.664-1.954,9.311-1.954s6.928.745,9.297,1.945Z" fill="#fb0"/><path d="m23.51,4.69c-.94,1.63-2.61,1.19-2.65,1.19,0,.54-.44.99-.99.99s-1-.45-1-.99c-.03,0-1.71.44-2.64-1.19-.11-.18.02-.4.23-.4h1.52c.05,0,.1.01.14.04l1.14.76-.01.02c.17-.14.38-.23.62-.23s.44.09.61.23l-.01-.02,1.14-.76c.05-.03.1-.04.15-.04h1.52c.2,0,.33.22.23.4Z" fill="#fb0"/></g><polygon points="19.936 32.964 17.433 30.432 22.545 30.432 19.936 32.964" fill="#261e18"/><polygon points="18.336 37.5 19.95 31.539 21.574 37.5 18.336 37.5" fill="#261e18"/><path d="m22.066,26.798l-2.059,2.485-2.051-2.485c-.907.145-1.948.601-1.948.601l1.596,4.541c.063.179.276.252.435.148l1.967-1.277,1.96,1.27c.162.105.38.027.438-.158l1.434-4.583s-.893-.386-1.773-.542Z" fill="#f5f5f5"/><path d="m16.426,27.239l-3.943,1.498c-1.898.721-3.469,2.075-4.465,3.81-.408.712-.667,1.499-.863,2.296l-.504,2.048c-.076.31.158.609.477.609h11.213l-1.506-10.395c-.136.045-.274.083-.409.134Z" fill="#333"/><path d="m33.349,36.891l-.504-2.048c-.196-.797-.455-1.584-.863-2.296-.996-1.734-2.567-3.089-4.465-3.81l-3.943-1.498c-.135-.051-.273-.089-.409-.134l-1.506,10.395h11.213c.319,0,.553-.299.477-.609Zm-6.309-2.701c0,.33-.27.6-.6.6s-.6-.27-.6-.6c0,0-1.03.28-1.6-.71-.06-.11.02-.25.14-.25h.92c.03,0,.06.01.09.03l.68.46c.1-.08.23-.13.37-.13s.27.05.37.13l.68-.46c.03-.02.06-.03.09-.03h.92c.12,0,.2.14.14.25-.57.99-1.6.71-1.6.71Z" fill="#333"/><path d="m28.5,33.23h-.92c-.03,0-.06.01-.09.03l-.68.46c-.1-.08-.23-.13-.37-.13s-.27.05-.37.13l-.68-.46c-.03-.02-.06-.03-.09-.03h-.92c-.12,0-.2.14-.14.25.57.99,1.6.71,1.6.71,0,.33.27.6.6.6s.6-.27.6-.6c0,0,1.03.28,1.6-.71.06-.11-.02-.25-.14-.25Z" fill="#fb0"/></g></g><rect width="40" height="40" fill="none"/></svg>