<svg id="Layer_1" data-name="Layer 1" xmlns="http://www.w3.org/2000/svg" viewBox="0 0 40 40"><defs><style>.cls-1{fill:#6b778a;}.cls-2{fill:#f0f0f0;}.cls-3{fill:#4f5966;}.cls-4{fill:#523725;}.cls-5{fill:#c3846c;}.cls-6{fill:#5c2f17;}.cls-7{fill:none;}</style></defs><path class="cls-1" d="M28.032,28.133l-4.213-1.6a10.75,10.75,0,0,0-7.638,0l-4.213,1.6A9.322,9.322,0,0,0,7.2,32.2a9.417,9.417,0,0,0-.923,2.454l-.538,2.188a.525.525,0,0,0,.51.651H33.754a.525.525,0,0,0,.51-.651l-.538-2.189A9.424,9.424,0,0,0,32.8,32.2,9.322,9.322,0,0,0,28.032,28.133Z"/><path class="cls-2" d="M23.819,26.533a10.75,10.75,0,0,0-7.638,0l-.461.175V37.5h8.554V26.706Z"/><polygon class="cls-3" points="16.181 26.533 18.04 37.494 12.451 37.494 11.599 34.281 13.848 32.883 11.599 31.547 12.293 28.01 16.181 26.533"/><polygon class="cls-3" points="23.842 26.539 21.983 37.5 27.572 37.5 28.424 34.287 26.175 32.889 28.424 31.553 27.73 28.016 23.842 26.539"/><path class="cls-4" d="M8.865,23.079S7.506,8.136,14.733,4.968a6.91,6.91,0,0,1,6.42-2.418,11.19,11.19,0,0,1,8.955,6.968,39.47,39.47,0,0,1,1.548,12.829,1.924,1.924,0,0,1-.928,1.6c-1.223.744-4.058,1.7-10.554,1.7C9.521,25.641,8.865,23.079,8.865,23.079Z"/><path class="cls-5" d="M23.533,12.205a12.378,12.378,0,0,1-7.27-4.077.2.2,0,0,0-.35.094A9.977,9.977,0,0,1,12.9,13.748a4.412,4.412,0,0,0-.763.807,3.565,3.565,0,0,0-.657,2.753,8.822,8.822,0,0,0,8.593,7.427,8.791,8.791,0,0,0,8.432-6.678C29.008,15.2,27.259,12.752,23.533,12.205Z"/><ellipse cx="17.446" cy="15.464" rx="0.972" ry="1.166"/><ellipse cx="22.576" cy="15.464" rx="0.972" ry="1.166"/><path class="cls-6" d="M21.221,20.587a.33.33,0,0,1,.315.419,1.582,1.582,0,0,1-3.05,0,.33.33,0,0,1,.315-.419Z"/><path class="cls-5" d="M17.815,22.649h4.392a0,0,0,0,1,0,0v4.169a2.2,2.2,0,0,1-2.2,2.2h0a2.2,2.2,0,0,1-2.2-2.2V22.649A0,0,0,0,1,17.815,22.649Z"/><rect class="cls-7" width="40" height="40"/></svg>