<svg id="Layer_1" data-name="Layer 1" xmlns="http://www.w3.org/2000/svg" viewBox="0 0 40 40"><defs><style>.cls-1{fill:#333;}.cls-2{fill:#ffcca8;}.cls-3{fill:#5c2f17;}.cls-4{fill:none;}</style></defs><path class="cls-1" d="M3.872,32.8S1.94,11.568,12.208,7.068c0,0,2.823-4.091,9.122-3.436a15.9,15.9,0,0,1,12.723,9.9c1.2,3.273,2.387,10.2,2.2,18.228a2.737,2.737,0,0,1-1.319,2.27c-1.738,1.057-5.766,2.41-14.994,2.41C4.8,36.439,3.872,32.8,3.872,32.8Z"/><path class="cls-2" d="M24.712,17.413a17.546,17.546,0,0,1-10.33-5.854.285.285,0,0,0-.5.134A14.382,14.382,0,0,1,9.61,19.63a6.3,6.3,0,0,0-1.084,1.159,5.168,5.168,0,0,0-.934,3.954A12.577,12.577,0,0,0,19.8,35.41a12.517,12.517,0,0,0,11.979-9.59C32.49,21.716,30.005,18.2,24.712,17.413Z"/><ellipse cx="16.063" cy="21.979" rx="1.381" ry="1.657"/><ellipse cx="23.352" cy="21.979" rx="1.381" ry="1.657"/><path class="cls-3" d="M21.426,29.258a.468.468,0,0,1,.448.6,2.247,2.247,0,0,1-4.333,0,.468.468,0,0,1,.448-.6Z"/><rect class="cls-4" width="40" height="40"/></svg>