<?xml version="1.0" encoding="UTF-8"?><svg id="Layer_1" xmlns="http://www.w3.org/2000/svg" viewBox="0 0 40 40"><g><path d="m14.355,34.087c.713.471,1.633.471,2.346,0,2.263-1.495,7.194-5.067,9.317-9.065,2.8-5.274-.488-10.534-4.834-10.534-2.477,0-3.968,1.294-4.792,2.407-.434.587-1.293.587-1.727,0-.824-1.113-2.315-2.407-4.792-2.407-4.346,0-7.634,5.26-4.834,10.534,2.123,3.997,7.054,7.57,9.317,9.065Z" fill="#ec4452"/><path d="m28.69,16.841c.41.271.94.271,1.35,0,1.302-.86,4.141-2.917,5.363-5.217,1.612-3.035-.281-6.063-2.782-6.063-1.426,0-2.284.745-2.758,1.386-.25.338-.744.338-.994,0-.474-.641-1.332-1.386-2.758-1.386-2.501,0-4.394,3.028-2.782,6.063,1.222,2.301,4.06,4.357,5.363,5.217Z" fill="#ec4452"/></g><rect width="40" height="40" fill="none"/></svg>