<svg id="Layer_1" data-name="Layer 1" xmlns="http://www.w3.org/2000/svg" viewBox="0 0 40 40"><defs><style>.cls-1{fill:none;}.cls-2{fill:#5268e9;}.cls-3{fill:#ffb481;}.cls-4{fill:#ffda86;}.cls-5{fill:#5c2f17;}</style></defs><rect class="cls-1" width="40" height="40"/><path class="cls-2" d="M1.712,36.887H27.066a5.05,5.05,0,0,0,4.884-3.768l2.8-9.736a.168.168,0,0,0-.107-.2l-6.906-2.428a.212.212,0,0,0-.262.11l-2.693,6.359a11.641,11.641,0,0,0-9.321-4.087h0c-7.887-.34-13.75,6.157-13.75,13.751Z"/><circle class="cls-3" cx="13.811" cy="14.394" r="8.113"/><ellipse class="cls-3" cx="6.434" cy="15.062" rx="3.248" ry="3.046" transform="translate(-0.884 0.409) rotate(-3.409)"/><ellipse class="cls-3" cx="21.216" cy="14.181" rx="3.248" ry="3.046" transform="translate(-0.806 1.287) rotate(-3.409)"/><path class="cls-4" d="M22.831,11.526a9.351,9.351,0,0,0-18.69-.01,9.549,9.549,0,0,0,.044,1.315s.78-.236,1.575,1.251l4.986-6.3s6.8,4.822,11.059,4.283a.991.991,0,0,0,.306-.1C22.386,11.788,22.608,11.475,22.831,11.526Z"/><ellipse cx="11.513" cy="14.138" rx="0.863" ry="1.036" transform="translate(-0.82 0.71) rotate(-3.409)"/><ellipse cx="16.063" cy="13.867" rx="0.863" ry="1.036" transform="translate(-0.796 0.98) rotate(-3.409)"/><path class="cls-5" d="M15.1,18.016a.293.293,0,0,1,.3.356,1.405,1.405,0,0,1-2.7.161.293.293,0,0,1,.258-.389Z"/><path class="cls-3" d="M12.078,21.275H16.65a0,0,0,0,1,0,0v2.286a2.286,2.286,0,0,1-2.286,2.286h0a2.286,2.286,0,0,1-2.286-2.286V21.275a0,0,0,0,1,0,0Z" transform="translate(-1.376 0.896) rotate(-3.41)"/><path class="cls-3" d="M34.7,23.383l3.439-4.125A2.025,2.025,0,0,0,38,16.518h0a2.025,2.025,0,0,0-2.856.013L33.98,17.7a1.769,1.769,0,0,1-1.681.467l-.911-.229a3.024,3.024,0,0,0-3.564,1.868l-.348.924Z"/></svg>