<svg id="Layer_1" data-name="Layer 1" xmlns="http://www.w3.org/2000/svg" viewBox="0 0 40 40"><defs><style>.cls-1{fill:#f80;}.cls-2{fill:#482ec4;}.cls-3{fill:#ffc84d;}.cls-4{fill:#5c2f17;}.cls-5{fill:#f56570;}.cls-6{fill:none;}</style></defs><path class="cls-1" d="M13.353,15.943s-.8-8.823,3.465-10.693a4.081,4.081,0,0,1,3.791-1.428A6.608,6.608,0,0,1,25.9,7.936a23.332,23.332,0,0,1,.914,7.575,1.139,1.139,0,0,1-.548.944c-.723.439-2.4,1-6.231,1C13.741,17.456,13.353,15.943,13.353,15.943Z"/><path class="cls-2" d="M28.242,22.86a8.325,8.325,0,0,0-8.308-6.6,8.342,8.342,0,0,0-8.286,6.457V22.71l-2.783,13.5h22.27Z"/><path class="cls-3" d="M22.014,9.549a7.289,7.289,0,0,1-4.293-2.433.119.119,0,0,0-.207.056,5.981,5.981,0,0,1-1.776,3.3,2.624,2.624,0,0,0-.45.481A2.147,2.147,0,0,0,14.9,12.6a5.112,5.112,0,0,0,10.053.447C25.246,11.338,24.213,9.876,22.014,9.549Z"/><ellipse cx="18.419" cy="11.447" rx="0.574" ry="0.688"/><ellipse cx="21.449" cy="11.447" rx="0.574" ry="0.688"/><path class="cls-4" d="M20.648,14.472a.194.194,0,0,1,.186.247.933.933,0,0,1-1.8,0,.194.194,0,0,1,.186-.247Z"/><path class="cls-5" d="M14.578,36.207a5.422,5.422,0,0,1,10.844,0Z"/><path class="cls-1" d="M15.3,30.357l1.2-.9.794.562-.452,1.4a.447.447,0,0,1-.672.235l-.852-.563A.447.447,0,0,1,15.3,30.357Z"/><path class="cls-1" d="M24.785,30.357l-1.2-.9-.794.562.453,1.4a.447.447,0,0,0,.672.235l.851-.563A.448.448,0,0,0,24.785,30.357Z"/><circle class="cls-3" cx="20" cy="27.703" r="4.236"/><ellipse class="cls-3" cx="16.134" cy="27.822" rx="1.696" ry="1.591"/><ellipse class="cls-3" cx="23.866" cy="27.822" rx="1.696" ry="1.591"/><ellipse cx="18.81" cy="27.498" rx="0.451" ry="0.541"/><ellipse cx="21.19" cy="27.498" rx="0.451" ry="0.541"/><path class="cls-4" d="M20.561,29.631a.153.153,0,0,1,.146.2.734.734,0,0,1-1.414,0,.153.153,0,0,1,.146-.2Z"/><path class="cls-1" d="M21.2,21.669a4.936,4.936,0,0,1,3.593,4.818c-.115-.034-.24.122-.39.206a.61.61,0,0,1-.162.045c-2.842.315-4.223-3.165-4.223-3.165-.824,1.662-4.2,3.716-4.2,3.716-.368-.8-.782-.7-.782-.7a4.951,4.951,0,0,1,.018-.687,4.9,4.9,0,0,1,3.028-4.054,2.808,2.808,0,0,1,1.432-.169l.218.029a.879.879,0,0,0,.256,0l.428-.071A1.833,1.833,0,0,1,21.2,21.669Z"/><rect class="cls-6" width="40" height="40"/></svg>