<?xml version="1.0" encoding="UTF-8"?><svg id="Layer_1" xmlns="http://www.w3.org/2000/svg" viewBox="0 0 40 40"><g><ellipse cx="20" cy="21.86269" rx="13.14948" ry="15.12173" style="fill:#956759;"/><g><ellipse cx="9.04791" cy="22.577" rx="5.26404" ry="4.9372" style="fill:#956759;"/><ellipse cx="30.95209" cy="22.577" rx="5.26404" ry="4.9372" style="fill:#956759;"/></g><g><ellipse cx="16.30572" cy="21.5717" rx="1.39935" ry="1.67922"/><ellipse cx="23.69428" cy="21.5717" rx="1.39935" ry="1.67922"/></g><path d="M21.74072,30.16473c.31449,0,.53789,.30212,.45446,.60534-.26509,.96346-1.14749,1.6712-2.19518,1.6712s-1.93009-.70774-2.19518-1.6712c-.08343-.30322,.13997-.60534,.45446-.60534h3.48144Z" style="fill:#5c2f17;"/><path d="M20,27.31201c-2.39515,0-4.52572,.82321-5.90013,2.10472-.72313,.67425-.24877,1.88627,.73994,1.88627l4.11217-.5359c.69574-.09067,1.40031-.09067,2.09605,0l4.11217,.5359c.9887,0,1.46307-1.21202,.73994-1.88627-1.37441-1.28151-3.50498-2.10472-5.90013-2.10472Z" style="fill:#333;"/><path d="M6.80258,22.33105c-.25435-.4087-.51452-1.03215-.44039-1.80833,0,0-2.32861-1.95584-1.09582-4.86787,0,0-1.73504-2.08623,.18264-3.60744,0,0-.54791-2.91203,2.19163-3.47705,0,0-.31961-2.78164,3.10481-2.78164,0,0,1.46109-2.56432,4.52024-1.52121,0,0,2.23729-2.39047,5.5704-.56502,0,0,2.60256-1.21697,4.24629,.52156,0,0,2.5569-.86926,3.60706,1.86891,0,0,3.37877,.21732,3.60706,2.65125,0,0,2.87652,.39117,2.28295,3.6509,0,0,2.05466,2.30355-.13698,4.52016,0,0,.91318,2.21662-.31961,2.95549,0,0,.63958,1.53997-.47185,2.66936-.16808,.1708-.46398,.08983-.52963-.14063l-1.97528-6.93353c-.47982-1.68424-2.08569-2.85355-3.91893-2.85355H12.90341c-1.89896,0-3.54431,1.25284-3.96135,3.01635l-1.56235,6.60665c-.06491,.27447-.4281,.33508-.57713,.09562Z" style="fill:#333;"/></g><rect width="40" height="40" style="fill:none;"/></svg>