<?xml version="1.0" encoding="UTF-8"?><svg id="Layer_1" xmlns="http://www.w3.org/2000/svg" viewBox="0 0 40 40"><path d="m22.811,12.427c.012-.014.024-.026.036-.04.038-.047.078-.099.121-.156.012-.016.024-.032.036-.049.12-.166.249-.358.362-.534L15.773,3.366l-.895.748,7.775,8.482c.052-.056.107-.109.157-.169h0Z" fill="#999"/><g><path d="m36.741,8.04h-1.066c-.401,0-.758-.234-.924-.599-.317-.698-1.035-1.784-2.484-1.996-.557-.082-1.168-.19-1.798-.246.079,2.45.659,6.911-.166,7.773-1.131,1.183-4.229-.905-5.788-3.515-.362.744-.683,1.407-1.019,1.981.008-.013.019-.03.027-.042l7.256,5.114.562-1.528c.264-.719.91-1.22,1.671-1.303,1.819-.198,5.489-.897,5.489-3.364v-.572s-1.759-.08-1.759-1.705Zm-3.615,1.252c-.461,0-.835-.374-.835-.835s.374-.835.835-.835.835.374.835.835-.374.835-.835.835Z" fill="#5e403b"/><path d="m18.43,20v5.25c-.5-.09-1.01-.16-1.57-.16-1.19,0-2.23.2-3.15.52-1.64.57-2.9,1.55-3.84,2.66-1.83,2.17-2.51,4.82-2.7,5.72-.04.18.06.36.22.46.76.5.82,1.35.78,1.83-.01.2-.18.35-.39.35h-2.84c-.22,0-.4-.18-.38-.41.18-2.17,1.01-12.27.97-15.05-.04-2.04.86-3.93,2.08-5.24-2.38-.57-6.67-2.28-6.05-7.13.86-6.65,10.54-6.97,11.92,0,.42,2.6-1.14,3.57-1.14,3.57,0,0-1.61-4.43-5.39-2.75-2.18,1.17-1.22,4.23,2.06,5.15.25-.15.5-.28.75-.38,1.22-.47,2.74-.53,4.53-.5-.23.36-.64,1.08-.87,2.03-.07.33-.13.68-.15,1.06,0,.09-.01.18-.01.27v1.75c0,.55.45,1,1,1h4.17Z" fill="#5e403b"/><path d="m22.816,12.426v6.574c0,.165-.049.313-.12.45h7l-.405,1.1h-9.766v4.998c.732.264,1.387.63,1.967,1.075,1.21.928,2.108,2.18,2.774,3.488,1.289,2.53,1.711,5.255,1.823,6.189.023.195.188.336.384.336h3.626c.213,0,.387-.167.389-.379.006-.644-.128-1.93-1.228-2.444-.134-.063-.238-.178-.261-.325l-1.109-7.038c-.151-.96-.055-1.943.281-2.854l2.201-5.982-7.557-5.185Z" fill="#5e403b"/></g><g><g><path d="m21.493,26.622l-1.422,9.567c-.035.234.147.445.384.445h3.346c.236,0,.412-.206.385-.44-.051-.443-.228-1.133-.809-1.637-.129-.112-.198-.279-.155-.445l1.044-4.003c-.666-1.307-1.564-2.56-2.774-3.488Z" fill="#191f28"/><path d="m9.874,28.269l1.463,8.046c.034.185.194.319.382.319h3.265c.25,0,.433-.23.379-.474-.134-.607-.462-1.637-1.203-2.105-.127-.08-.217-.205-.221-.354l-.232-8.088c-1.639.568-2.892,1.544-3.832,2.656Z" fill="#191f28"/></g><g><path d="m30.303,12.973c.825-.863.245-5.323.166-7.773,0,0,0,0,0,0-.126-.011-.252-.02-.38-.026-.036-.002-.072-.002-.108-.003-.107-.004-.214-.006-.321-.005-.043,0-.086,0-.129.002-.119.003-.238.009-.358.019-.023.002-.047.003-.07.005-.142.014-.283.033-.425.059-.033.006-.066.014-.098.02-.112.022-.223.049-.334.079-.038.011-.077.021-.115.033-.129.04-.258.085-.385.138-.011.005-.023.008-.034.013-.14.059-.278.129-.415.207-.031.017-.061.037-.091.055-.108.065-.215.136-.32.213-.034.025-.068.049-.102.075-.131.101-.26.21-.386.333,0,0-.001,0-.002.002-.129.125-.254.265-.378.413-.029.035-.057.073-.086.11-.096.121-.189.25-.281.387-.03.044-.06.087-.089.133-.115.181-.229.37-.337.579-.011.021-.019.038-.029.059-.241.464-.458.904-.66,1.32-.006.013-.014.028-.02.04,0,0,0,0,0,0,1.559,2.61,4.657,4.697,5.788,3.515Z" fill="#191f28"/><path d="m33.127,7.621c-.461,0-.835.374-.835.835s.374.835.835.835.835-.374.835-.835-.374-.835-.835-.835Z"/><path d="m37.876,8.04h-1.135c0,1.625,1.759,1.705,1.759,1.705v-1.081c0-.344-.279-.624-.624-.624Z" fill="#191f28"/></g></g><g><path d="m19.526,19.45h3.171c.07-.137.12-.286.12-.45v-6.574h0s0,0,0,0h-.005s0,0,0,0c-.05.06-.105.113-.157.169-.054.058-.106.12-.162.174-.002.002-.005.004-.007.006-.109.105-.223.204-.343.296-.008.006-.016.011-.024.017-.116.087-.237.169-.365.244-.015.009-.032.016-.048.025-.123.069-.25.135-.386.193-.029.012-.062.021-.091.033-.127.051-.257.1-.396.141-.048.014-.102.023-.151.036-.128.034-.256.067-.396.093-.084.015-.178.024-.266.036-.116.016-.227.035-.35.046-.045.004-.096.004-.142.007v5.507Z" fill="#eb4552"/><path d="m13.273,16.983c-.004.09-.014.178-.014.271v1.746c0,.552.448,1,1,1h4.167v-6.029c-.292,0-.583.002-.864-.002-.065,0-.126-.003-.19-.003-1.101-.016-2.127-.055-3.072-.071-.002,0-.005,0-.008,0h0c-.234.354-.642,1.075-.869,2.024-.079.329-.132.685-.15,1.065Z" fill="#eb4552"/></g><g><path d="m23.495,11.439c-.04.065-.083.134-.131.209-.113.177-.242.368-.362.534-.012.017-.024.032-.036.049-.042.057-.083.109-.121.156-.01.012-.021.028-.03.039h0s7.557,5.186,7.557,5.186h.002s.405-1.1.405-1.1h-.002s-7.256-5.115-7.256-5.115c-.008.013-.018.029-.027.042Z" fill="#c7c7c7"/><path d="m29.292,20.55l.405-1.1h-10.17v-5.507h0c-.177.013-.356.025-.55.027-.188.003-.365,0-.55,0h0v11.282s0,0,0,0c.384.075.752.17,1.099.295h0v-4.998h9.766Z" fill="#c7c7c7"/></g><rect width="40" height="40" fill="none"/></svg>