<?xml version="1.0" encoding="UTF-8"?><svg id="Layer_1" xmlns="http://www.w3.org/2000/svg" viewBox="0 0 40 40"><rect width="40" height="40" fill="none"/><g><path d="m11.562,18.718H2.394c-.69,0-1.25.56-1.25,1.25s.56,1.25,1.25,1.25h9.007c-.013-.201-.031-.402-.031-.606,0-.649.066-1.282.192-1.894Z" fill="#d0d6de"/><path d="m33.89,23.06c.51.98.81,2.1.81,3.28,0,3.93-3.19,7.12-7.13,7.12-.07,0-.13-.01-.2-.01-1.23,2.4-3.73,4.05-6.62,4.05-4.1,0-7.42-3.32-7.42-7.41,0-1.07.24-2.09.65-3.01-.1-.11-.2-.22-.3-.33H4.39c-.69,0-1.25-.56-1.25-1.25s.56-1.25,1.25-1.25h7.71c-.39-.94-.63-1.96-.7-3.03-.01-.2-.03-.4-.03-.61,0-.65.07-1.28.19-1.89.22-1.07.63-2.07,1.18-2.97H4.34c-.69,0-1.25-.56-1.25-1.25s.56-1.25,1.25-1.25h8.93c-.33-.86-.51-1.8-.51-2.77,0-4.41,3.58-7.98,7.99-7.98,2.85,0,5.34,1.48,6.75,3.71.23-.01.45-.03.68-.03,5.21,0,9.43,4.21,9.43,9.41,0,3.05-1.46,5.75-3.72,7.47Z" fill="#e5e8eb"/></g></svg>