<?xml version="1.0" encoding="UTF-8"?><svg id="Layer_1" xmlns="http://www.w3.org/2000/svg" viewBox="0 0 40 40"><g><path d="m18.396,35.739c.891.589,2.042.589,2.934,0,2.83-1.87,8.997-6.337,11.652-11.336,3.502-6.595-.611-13.174-6.045-13.174-3.098,0-4.963,1.619-5.993,3.01-.543.734-1.617.734-2.16,0-1.031-1.392-2.895-3.01-5.993-3.01-5.434,0-9.547,6.579-6.045,13.174,2.655,4.999,8.822,9.467,11.652,11.336Z" fill="#ec4452"/><path d="m4.675,12.842c-.056,0-.113-.006-.17-.018-.426-.094-.697-.513-.606-.939.014-.062,1.433-6.256,8.717-5.229.434.061.736.461.675.895s-.463.736-.895.675c-5.799-.816-6.903,3.798-6.947,3.996-.083.369-.411.621-.774.621Z" fill="#ec4452"/><path d="m1.501,11.24c-.055,0-.111-.006-.167-.018-.428-.092-.701-.514-.609-.942.019-.085,1.947-8.496,11.892-7.098.434.061.736.461.675.896-.061.433-.463.733-.896.675C3.899,3.559,2.337,10.325,2.275,10.614c-.08.372-.409.626-.774.626Z" fill="#ec4452"/><path d="m35.324,12.844c-.365,0-.693-.253-.773-.624-.045-.203-1.15-4.805-6.947-3.995-.435.06-.834-.242-.895-.675-.061-.434.241-.834.675-.895,7.282-1.022,8.703,5.167,8.717,5.229.092.428-.181.85-.609.942-.056.012-.112.018-.167.018Z" fill="#ec4452"/><path d="m38.499,11.24c-.365,0-.693-.254-.774-.625-.065-.295-1.668-7.045-10.121-5.862-.441.058-.835-.242-.896-.675-.061-.434.241-.834.675-.896,9.949-1.397,11.873,7.013,11.892,7.098.092.428-.181.85-.609.942-.056.012-.112.018-.167.018Z" fill="#ec4452"/></g><rect width="40" height="40" fill="none"/></svg>