<svg id="Layer_1" data-name="Layer 1" xmlns="http://www.w3.org/2000/svg" viewBox="0 0 40 40"><defs><style>.cls-1{fill:#5268ea;}.cls-2{fill:#6e4944;}.cls-3{fill:#333;}.cls-4{fill:#5c2f17;}.cls-5{fill:#212121;}.cls-6{fill:none;}</style></defs><path class="cls-1" d="M29.4,32.368l-4.931-1.874a12.592,12.592,0,0,0-8.938,0L10.6,32.368A10.89,10.89,0,0,0,5.417,36.5H34.583A10.9,10.9,0,0,0,29.4,32.368Z"/><circle class="cls-2" cx="19.98" cy="19.608" r="10.665"/><ellipse class="cls-2" cx="10.247" cy="19.907" rx="4.269" ry="4.004"/><ellipse class="cls-2" cx="29.713" cy="19.907" rx="4.269" ry="4.004"/><path class="cls-3" d="M32.04,16.55A12.294,12.294,0,0,0,7.514,15.075,12.554,12.554,0,0,0,7.47,16.8s1.042-.248,1.969,1.765L16.474,10.7s8.541,6.859,14.177,6.484a1.307,1.307,0,0,0,.409-.111C31.436,16.858,31.752,16.466,32.04,16.55Z"/><path class="cls-4" d="M20,25.17a6.573,6.573,0,0,1-2.049-.308.263.263,0,0,0-.286.413,2.894,2.894,0,0,0,4.67,0,.263.263,0,0,0-.286-.413A6.568,6.568,0,0,1,20,25.17Z"/><path d="M16.2,19.512a3.7,3.7,0,0,1-1.647-.354c-.226-.1-.4.075-.286.313A2.062,2.062,0,0,0,16.2,20.537a2.059,2.059,0,0,0,1.932-1.066c.113-.238-.06-.412-.285-.313A3.7,3.7,0,0,1,16.2,19.512Z"/><path d="M23.747,19.512a3.7,3.7,0,0,1-1.647-.354c-.226-.1-.4.075-.286.313a2.061,2.061,0,0,0,1.933,1.066,2.059,2.059,0,0,0,1.932-1.066c.113-.238-.06-.412-.286-.313A3.7,3.7,0,0,1,23.747,19.512Z"/><path class="cls-2" d="M17.318,28.163h5.323a0,0,0,0,1,0,0v2.661a2.661,2.661,0,0,1-2.661,2.661h0a2.661,2.661,0,0,1-2.661-2.661V28.163a0,0,0,0,1,0,0Z"/><path class="cls-5" d="M10.163,16.714l1.18-3.007A5.435,5.435,0,0,1,14.806,10.5l1.643-.5L8.93,8.349Z"/><path class="cls-2" d="M7.519,8.951l.651,7.4a1.027,1.027,0,0,0,1.053.9h0a1.034,1.034,0,0,0,1.047-.845l.581-3.922a2.963,2.963,0,0,1,3-2.479l2.594-.011A1.217,1.217,0,0,0,17.7,8.826h0a1.2,1.2,0,0,0-1.036-1.149L15.54,7.488A4.318,4.318,0,0,1,12,4.352l-.21-.852H8.378Z"/><path class="cls-5" d="M29.837,16.714l-1.18-3.007A5.435,5.435,0,0,0,25.2,10.5l-1.644-.5L31.07,8.349Z"/><path class="cls-2" d="M32.481,8.951l-.651,7.4a1.027,1.027,0,0,1-1.053.9h0a1.034,1.034,0,0,1-1.047-.845l-.581-3.922a2.963,2.963,0,0,0-3-2.479l-2.594-.011A1.217,1.217,0,0,1,22.3,8.826h0a1.2,1.2,0,0,1,1.037-1.149l1.128-.189a4.318,4.318,0,0,0,3.545-3.136l.21-.852h3.407Z"/><rect class="cls-6" width="40" height="40"/></svg>