<svg id="Layer_1" data-name="Layer 1" xmlns="http://www.w3.org/2000/svg" viewBox="0 0 40 40"><defs><style>.cls-1{fill:#abb7c7;}.cls-2{fill:#495b73;}.cls-3{fill:none;}</style></defs><ellipse class="cls-1" cx="11.058" cy="12.036" rx="8.489" ry="8.536"/><ellipse class="cls-1" cx="28.942" cy="12.036" rx="8.489" ry="8.536"/><path class="cls-1" d="M15.368,34.641l-6.1-6.132a9.877,9.877,0,0,1,0-13.915l1.1-1.11a13.324,13.324,0,0,1,18.916,0l1.1,1.11a9.879,9.879,0,0,1,0,13.915l-6.1,6.132A6.285,6.285,0,0,1,15.368,34.641Z"/><ellipse cx="22.878" cy="26.097" rx="1.68" ry="1.689"/><ellipse cx="17.129" cy="26.097" rx="1.68" ry="1.689"/><path class="cls-2" d="M20.976,33.692l1-1.471a1.037,1.037,0,0,0-.85-1.623H18.858a1.037,1.037,0,0,0-.85,1.623l1,1.471A1.187,1.187,0,0,0,20.976,33.692Z"/><rect class="cls-3" width="40" height="40"/></svg>