<svg id="Layer_1" data-name="Layer 1" xmlns="http://www.w3.org/2000/svg" viewBox="0 0 40 40"><defs><style>.cls-1{fill:#a41926;}.cls-2{fill:#f09292;}.cls-3{fill:none;}</style></defs><path class="cls-1" d="M8.84,33.449a8.957,8.957,0,0,1-5.15-1.715,2.259,2.259,0,0,1,2.743-3.591,4.376,4.376,0,0,0,3.011.732,5.513,5.513,0,0,0,3.375-2.751,2.26,2.26,0,0,1,3.8,2.456c-1.767,2.727-3.936,4.328-6.446,4.757A7.9,7.9,0,0,1,8.84,33.449Z"/><path class="cls-1" d="M31.167,33.449a7.921,7.921,0,0,1-1.329-.112c-2.509-.429-4.678-2.03-6.445-4.757a2.26,2.26,0,0,1,3.795-2.456,5.51,5.51,0,0,0,3.375,2.751,4.345,4.345,0,0,0,3.012-.734,2.274,2.274,0,0,1,3.155.452,2.248,2.248,0,0,1-.413,3.141A8.957,8.957,0,0,1,31.167,33.449Z"/><path class="cls-1" d="M14.592,37a2.26,2.26,0,0,1-1.32-4.1,5.765,5.765,0,0,0,2.444-6.176,2.26,2.26,0,0,1,4.335-1.277,10.314,10.314,0,0,1-4.143,11.125A2.253,2.253,0,0,1,14.592,37Z"/><path class="cls-1" d="M25.625,37a2.253,2.253,0,0,1-1.316-.424,10.316,10.316,0,0,1-4.143-11.125A2.26,2.26,0,0,1,24.5,26.732,5.765,5.765,0,0,0,26.945,32.9a2.26,2.26,0,0,1-1.32,4.1Z"/><path class="cls-1" d="M7.35,16.311C7.35,8.151,13.113,3,20.223,3S33.1,8.151,33.1,16.311,27.333,29.464,20.223,29.464,7.35,24.47,7.35,16.311Z"/><circle cx="17.755" cy="14.439" r="1.478"/><circle cx="23.03" cy="14.439" r="1.478"/><path class="cls-2" d="M20.31,23.629a3.74,3.74,0,1,1,3.66-3.739A3.7,3.7,0,0,1,20.31,23.629Zm0-5.076a1.339,1.339,0,1,0,1.257,1.337A1.3,1.3,0,0,0,20.31,18.553Z"/><rect class="cls-3" width="40" height="40"/></svg>