<svg id="Layer_1" data-name="Layer 1" xmlns="http://www.w3.org/2000/svg" viewBox="0 0 40 40"><defs><style>.cls-1{fill:#6e4944;}.cls-2{fill:#ffe8b3;}.cls-3{fill:#5c2f17;}.cls-4{fill:none;}</style></defs><ellipse class="cls-1" cx="20" cy="21.567" rx="13.42" ry="15.433"/><ellipse class="cls-1" cx="8.823" cy="22.296" rx="5.372" ry="5.039"/><ellipse class="cls-1" cx="31.177" cy="22.296" rx="5.372" ry="5.039"/><ellipse cx="16.23" cy="21.27" rx="1.428" ry="1.714"/><ellipse cx="23.77" cy="21.27" rx="1.428" ry="1.714"/><path class="cls-2" d="M33.245,20.948l1.948-2a21.956,21.956,0,0,0-.527-5.366c-.67-3.229-4.509-8.834-11.637-10.3A12.394,12.394,0,0,0,11.7,6.432C3.9,8.358,4.843,19.238,4.843,19.238l1.578,1.346a1.247,1.247,0,0,0,1.786-.155C10.651,17.312,13.19,9.144,13.19,9.144s1.767,5.393,10.916,5.276c6.732-.087,7.9,2.459,8.139,6.138A.6.6,0,0,0,33.245,20.948Z"/><path class="cls-3" d="M21.777,30.04a.485.485,0,0,1,.463.618,2.324,2.324,0,0,1-4.48,0,.485.485,0,0,1,.463-.618Z"/><rect class="cls-4" width="40" height="40"/></svg>