<?xml version="1.0" encoding="UTF-8"?><svg id="a" xmlns="http://www.w3.org/2000/svg" viewBox="0 0 40 40"><rect width="40" height="40" transform="translate(40 40) rotate(-180)" fill="none"/><g><g><path d="M4.376,5.48v29.04c0,1.094,.886,1.98,1.98,1.98H22.526l9.9-9.9V5.48c0-1.094-.886-1.98-1.98-1.98H6.356c-1.094,0-1.98,.886-1.98,1.98Z" fill="#e5e9ee" fill-rule="evenodd"/><path d="M24.506,26.6h7.92l-9.9,9.9v-7.92c0-1.094,.886-1.98,1.98-1.98Z" fill="#c0c7d1" fill-rule="evenodd"/></g><g><line x1="4.376" y1="9.43" x2="32.426" y2="9.43" fill="none" stroke="#d0d5da" stroke-linejoin="round" stroke-width=".971"/><line x1="4.376" y1="14.016" x2="32.426" y2="14.016" fill="none" stroke="#d0d5da" stroke-linejoin="round" stroke-width=".971"/><line x1="4.376" y1="18.602" x2="32.426" y2="18.602" fill="none" stroke="#d0d5da" stroke-linejoin="round" stroke-width=".971"/><line x1="4.376" y1="23.188" x2="32.426" y2="23.188" fill="none" stroke="#d0d5da" stroke-linejoin="round" stroke-width=".971"/></g><path d="M32.426,6.43h2.228c.536,0,.971,.435,.971,.971v5.148c0,.536-.435,.971-.971,.971h-2.228V6.43h0Z" fill="#4592fb"/><path d="M34.654,23.519h-2.228v-7.089h2.228c.536,0,.971,.435,.971,.971v5.148c0,.536-.435,.971-.971,.971Z" fill="#ffc100"/></g></svg>