<?xml version="1.0" encoding="UTF-8"?><svg id="Layer_1" xmlns="http://www.w3.org/2000/svg" viewBox="0 0 40 40"><g><g><ellipse cx="20" cy="21.567" rx="13.42" ry="15.433" fill="#ffcca8"/><g><ellipse cx="8.823" cy="22.296" rx="5.372" ry="5.039" fill="#ffcca8"/><ellipse cx="31.177" cy="22.296" rx="5.372" ry="5.039" fill="#ffcca8"/></g><g><ellipse cx="16.23" cy="21.27" rx="1.428" ry="1.714"/><ellipse cx="23.77" cy="21.27" rx="1.428" ry="1.714"/></g></g><path d="m33.245,20.948l1.931-1.747s.16-2.388-.51-5.617-4.509-8.834-11.637-10.297c-7.128-1.462-11.332,3.145-11.332,3.145-7.799,1.927-6.853,12.806-6.853,12.806l1.578,1.346c.535.456,1.353.397,1.786-.156,2.444-3.117,4.982-11.284,4.982-11.284,0,0,1.767,5.393,10.916,5.276,6.732-.086,7.96,3.982,8.139,6.138.041.495.632.723,1,.39Z" fill="#e86c00"/><g><path d="m18.93,30.655l-1.116.146c.316.908,1.17,1.563,2.186,1.563s1.87-.656,2.186-1.563l-1.116-.146c-.71-.093-1.429-.093-2.139,0Z" fill="#5c2f17"/><path d="m26.021,29.277c-1.403-1.308-3.577-2.148-6.021-2.148s-4.619.84-6.021,2.148c-.738.688-.254,1.925.755,1.925l3.081-.401,1.116-.146c.71-.093,1.429-.093,2.139,0l1.116.146,3.081.401c1.009,0,1.493-1.237.755-1.925Z" fill="#e86c00"/></g></g><rect width="40" height="40" fill="none"/></svg>