<svg id="Layer_1" data-name="Layer 1" xmlns="http://www.w3.org/2000/svg" viewBox="0 0 40 40"><defs><style>.cls-1{fill:#86584a;}.cls-2{fill:#d2aba6;}.cls-3{fill:none;}</style></defs><polygon class="cls-1" points="4.467 22.892 6.486 36.031 10.246 36.031 12.551 22.892 4.467 22.892"/><path class="cls-2" d="M8.326,3.969a1.869,1.869,0,0,0-1.85,2.14l.024.168a25.348,25.348,0,0,1-1.8,13.7,4.691,4.691,0,0,0-.234,2.92h0c.12.514.127.878,1.106.878h.4A13.225,13.225,0,0,1,18.97,34.536h0a1.837,1.837,0,0,0,1.8,1.495H34.665a.973.973,0,0,0,.973-.967l.025-4.017A2.974,2.974,0,0,0,34.4,28.985l-2.091-1.437A24.555,24.555,0,0,1,21.668,6.676l.02-.789a1.869,1.869,0,0,0-1.869-1.918Z"/><path class="cls-1" d="M20.774,36.031H34.665a.973.973,0,0,0,.973-.967l.022-3.526H18.012a13.237,13.237,0,0,1,.958,3A1.837,1.837,0,0,0,20.774,36.031Z"/><rect class="cls-3" width="40" height="40"/></svg>