<?xml version="1.0" encoding="UTF-8"?><svg id="Layer_1" xmlns="http://www.w3.org/2000/svg" viewBox="0 0 40 40"><g><g><g id="SVGID"><path d="m26.386,5.245c-.587-.522-1.506-.353-1.873.341l-1.551,2.934c-.275.52-.815.845-1.403.845h-3.119c-.588,0-1.128-.325-1.403-.845l-1.551-2.934c-.367-.695-1.285-.863-1.873-.341-5.007,4.449-11.132,10.846-11.132,15.516,0,7.897,7.843,14.299,17.519,14.299s17.519-6.402,17.519-14.299c0-4.67-6.125-11.067-11.132-15.516Z" fill="#ffb72d"/></g><path d="m37.221,18.864l-3.293,1.679c-.762.389-.762,1.478,0,1.866l3.122,1.591c.296-1.042.468-2.123.468-3.239,0-.606-.107-1.242-.297-1.897Z"/><path d="m2.779,18.864l3.293,1.679c.762.389.762,1.478,0,1.866l-3.122,1.591c-.296-1.042-.468-2.123-.468-3.239,0-.606.107-1.242.297-1.897Z"/></g><path d="m19.125,19.883h1.751c.858,0,1.316.802.75,1.313l-.875.792c-.397.359-1.103.359-1.5,0l-.875-.792c-.566-.511-.108-1.313.75-1.313Z" fill="#ff5e01"/><circle cx="15.893" cy="16.884" r="1.833"/><circle cx="23.709" cy="16.884" r="1.833"/><path d="m16.578,27.966c-.189,0-.376-.081-.506-.237-.232-.279-.193-.693.086-.926l3.185-2.645v-2.874c0-.363.294-.657.657-.657s.657.294.657.657v3.183c0,.195-.087.381-.237.506l-3.423,2.842c-.123.102-.271.151-.419.151Z" fill="#ff5e01"/><path d="m23.23,27.966c-.154,0-.309-.054-.434-.164l-3.23-2.842c-.272-.239-.299-.654-.059-.927s.654-.301.927-.06l3.23,2.842c.272.239.299.654.059.927-.13.147-.311.224-.494.224Z" fill="#ff5e01"/></g><rect width="40" height="40" fill="none"/></svg>