<svg id="Layer_1" data-name="Layer 1" xmlns="http://www.w3.org/2000/svg" viewBox="0 0 40 40"><defs><style>.cls-1{fill:#f80;}.cls-2{fill:#482ec4;}.cls-3{fill:#ffc84d;}.cls-4{fill:#5c2f17;}.cls-5{fill:#f56570;}.cls-6{fill:#64a7ff;}.cls-7{fill:none;}</style></defs><path class="cls-1" d="M13.353,15.943s-.8-8.823,3.465-10.693a4.081,4.081,0,0,1,3.791-1.428A6.608,6.608,0,0,1,25.9,7.936a23.332,23.332,0,0,1,.914,7.575,1.139,1.139,0,0,1-.548.944c-.723.439-2.4,1-6.231,1C13.741,17.456,13.353,15.943,13.353,15.943Z"/><path class="cls-2" d="M28.242,22.86a8.325,8.325,0,0,0-8.308-6.6,8.342,8.342,0,0,0-8.286,6.457V22.71l-2.783,13.5h22.27Z"/><path class="cls-3" d="M22.014,9.549a7.289,7.289,0,0,1-4.293-2.433.119.119,0,0,0-.207.056,5.981,5.981,0,0,1-1.776,3.3,2.624,2.624,0,0,0-.45.481A2.147,2.147,0,0,0,14.9,12.6a5.112,5.112,0,0,0,10.053.447C25.246,11.338,24.213,9.876,22.014,9.549Z"/><ellipse cx="18.419" cy="11.447" rx="0.574" ry="0.688"/><ellipse cx="21.449" cy="11.447" rx="0.574" ry="0.688"/><path class="cls-4" d="M20.648,14.472a.194.194,0,0,1,.186.247.933.933,0,0,1-1.8,0,.194.194,0,0,1,.186-.247Z"/><path class="cls-5" d="M7.915,36.207a5.423,5.423,0,0,1,10.845,0Z"/><path class="cls-1" d="M8.632,30.357l1.2-.9.794.562-.453,1.4a.447.447,0,0,1-.672.235l-.851-.563A.448.448,0,0,1,8.632,30.357Z"/><path class="cls-1" d="M18.122,30.357l-1.2-.9-.794.562.452,1.4a.448.448,0,0,0,.673.235l.851-.563A.447.447,0,0,0,18.122,30.357Z"/><circle class="cls-3" cx="13.338" cy="27.703" r="4.236"/><ellipse class="cls-3" cx="9.472" cy="27.822" rx="1.696" ry="1.591"/><ellipse class="cls-3" cx="17.204" cy="27.822" rx="1.696" ry="1.591"/><ellipse cx="12.148" cy="27.498" rx="0.451" ry="0.541"/><ellipse cx="14.528" cy="27.498" rx="0.451" ry="0.541"/><path class="cls-4" d="M13.9,29.631a.153.153,0,0,1,.147.2.734.734,0,0,1-1.415,0,.154.154,0,0,1,.147-.2Z"/><path class="cls-1" d="M14.536,21.669a4.934,4.934,0,0,1,3.592,4.818c-.114-.034-.24.122-.389.206a.61.61,0,0,1-.162.045c-2.842.315-4.224-3.165-4.224-3.165-.823,1.662-4.2,3.716-4.2,3.716-.369-.8-.783-.7-.783-.7a5.112,5.112,0,0,1,.018-.687,4.9,4.9,0,0,1,3.028-4.054,2.809,2.809,0,0,1,1.432-.169l.219.029a.879.879,0,0,0,.256,0l.428-.071A1.834,1.834,0,0,1,14.536,21.669Z"/><path class="cls-6" d="M21.24,36.207a5.423,5.423,0,0,1,10.845,0Z"/><circle class="cls-3" cx="26.662" cy="27.557" r="4.236"/><ellipse class="cls-3" cx="22.796" cy="27.676" rx="1.696" ry="1.591"/><ellipse class="cls-3" cx="30.528" cy="27.676" rx="1.696" ry="1.591"/><ellipse cx="25.472" cy="27.352" rx="0.451" ry="0.541"/><ellipse cx="27.852" cy="27.352" rx="0.451" ry="0.541"/><path class="cls-4" d="M27.223,29.485a.154.154,0,0,1,.147.2.734.734,0,0,1-1.415,0,.153.153,0,0,1,.147-.2Z"/><path class="cls-1" d="M31.544,26.343a4.883,4.883,0,0,0-9.742-.586,5.112,5.112,0,0,0-.018.687,3.881,3.881,0,0,0,3-1.682,3.216,3.216,0,0,0,1.875,1.012,2.892,2.892,0,0,0,1.791-1.012A3.26,3.26,0,0,0,31.544,26.343Z"/><rect class="cls-7" width="40" height="40"/></svg>