<?xml version="1.0" encoding="UTF-8"?><svg id="Layer_1" xmlns="http://www.w3.org/2000/svg" viewBox="0 0 40 40"><g><polygon points="26.92462 22.75098 23.3222 22.75098 23.50562 33.83923 23.87 33.83923 26.17004 33.83923 26.45215 33.83923 26.93976 25.69934 26.91437 25.27545 26.92462 22.75098" style="fill:#6b7683;"/><polygon points="26.92462 22.75098 26.91437 25.27545 26.93976 25.69934 27.42731 33.83923 27.81262 33.83923 30.11273 33.83923 30.3739 33.83923 30.55731 22.75098 26.92462 22.75098" style="fill:#6b7683;"/></g><path d="M32.90308,17.73596l-.74133-2.9538c-.14929-1.2002-.97443-2.20807-2.12158-2.59125l-2.3786-.79462v.24548c0,.43634-.35376,.7901-.7901,.7901-.4364,0-.79016-.35376-.79016-.7901v-.23291l-2.505,.84766c-1.03137,.34906-1.80841,1.20734-2.05341,2.26825l-1.17535,3.40784,.44513,.12134,2.01056,.5481,.57294,.15619-.29315,3.99274h7.72626l-.36243-4.02435,.30389-.12256,1.95355-.7879,.19879-.0802Z" style="fill:#d0d5da;"/><g><path d="M20.00195,21.38892l.98077,4.1366c.00916,.03906,.00018,.07654,.00378,.11554,.0025,.01642,.0127,.02979,.0144,.04681,.00342,.03406-.00995,.06421-.00964,.09747-.00275,.03906-.00281,.07678-.01129,.11426-.04541,.54742-.44836,1.00366-1.00818,1.07648,.03094,.00568,.05646,.0224,.08844,.02557,.65143,.06531,1.23224-.40997,1.29749-1.06116,.03931-.39252-.13202-.74408-.4057-.98779l1.8512-6.35065-2.01056-.5481-.79071,3.33496Z" style="fill:#ffb582;"/><path d="M34.53986,25.65735c-.0036-.039,.00537-.07648-.00378-.11548l-1.83179-7.72571-1.95355,.7879,1.85059,6.34863c-.27368,.24371-.44501,.59528-.40564,.98779,.06525,.65118,.64606,1.12646,1.29749,1.06116,.57782-.05792,.99384-.52716,1.04016-1.08575,.00848-.03748,.00854-.0752,.01129-.11426-.00024-.03326,.01306-.06342,.00964-.09747-.00171-.01703-.0119-.0304-.0144-.04681Z" style="fill:#ffb582;"/><path d="M30.73999,6.95001c-.08002,0-.16998,.08997-.27997,.14996-.04004,.02002-.09003,.03003-.13,.04004-.40002,.03998-.76001-.01001-1.09003-.13-1.51001-.53003-2.25-2.38-2.25-2.38-.39001,.79999-1.53998,1.71997-2.37,2.31-.53998,.38-.95001,.63-.95001,.63-.20996-.46002-.44-.54004-.54999-.55005-.32001,.23004-.52997,.57001-.52997,.97003,0,.70001,.58997,1.26001,1.32996,1.26001,.03003,.06,.07001,.12,.10004,.17999,.16998,.32001,.38,.62,.63995,.87,.39001,.38,.88,.65997,1.42004,.81v.53003c0,.43994,.35999,.78998,.78998,.78998,.44,0,.78998-.35004,.78998-.78998v-.46002c.66003-.14001,1.24005-.46002,1.70001-.91998,.23999-.25,.44-.55005,.60004-.86005,.02997-.04999,.06-.09998,.07996-.14996,.74005,0,1.34003-.56,1.34003-1.26001,0-.45001-.27002-.82001-.64001-1.03998Zm-4.70001,1.20996c-.19995,0-.34998-.19-.34998-.41998,0-.23999,.15002-.42999,.34998-.42999,.20001,0,.36005,.19,.36005,.42999,0,.22998-.16003,.41998-.36005,.41998Zm.94,1.84003c-.26001,0-.48999-.17999-.56-.42004-.01996-.07996,.04004-.15997,.12-.15997h.89001c.08002,0,.13,.08002,.10999,.15997-.07001,.24005-.28998,.42004-.56,.42004Zm.94-1.84003c-.19,0-.34998-.19-.34998-.41998,0-.23999,.15997-.42999,.34998-.42999,.20001,0,.36005,.19,.36005,.42999,0,.22998-.16003,.41998-.36005,.41998Z" style="fill:#ffb582;"/></g><g><path d="M24.02051,9.42877l-.75702,.56781c-.19556,.14661-.18677,.44275,.01709,.57751l.67285,.44495c.19495,.12897,.45917,.03644,.53119-.18597l.1723-.53229c-.25946-.25116-.46875-.54834-.63641-.87201Z" style="fill:#ffdb87;"/><path d="M29.54285,10.83307c.07202,.22241,.33624,.31494,.53125,.18597l.67279-.44495c.20386-.13477,.21265-.43091,.01709-.57751l-.80164-.60126c-.15997,.3175-.35767,.61279-.60571,.86249l.18622,.57526Z" style="fill:#ffdb87;"/><path d="M23.67334,7.57117s.40924-.24957,.9447-.6297c.83533-.59302,1.98022-1.50653,2.37683-2.30707,0,0,.73694,1.84991,2.242,2.37646,.32886,.11505,.69299,.16956,1.09576,.12482,.03882-.00433,.08392-.01611,.12836-.03516,.10547-.05939,.19464-.1507,.27734-.15332,.00977-.00031,.02069-.0127,.03027-.00989,.02655-1.80341-1.18494-3.34717-2.83911-3.80731-.20221-.05627-.41516-.06305-.62225-.02887l-.33832,.05585c-.06689,.01105-.13501,.01202-.20221,.00299l-.17285-.02325c-.38239-.05151-.77423-.01184-1.13165,.13348-1.30212,.5293-2.25702,1.75745-2.39325,3.2041-.01727,.18353-.02173,.36475-.01404,.54279,0,0,.02374-.0047,.06262-.0011,.10846,.01007,.34137,.08984,.55579,.55518Z" style="fill:#ffdb87;"/></g><g><g><path d="M22.46106,35.20453c-.25366,.24585-.38934,.53644-.38934,.83392v.25531c0,.34564,.42426,.62592,.94763,.62592h1.01184c.74792,0,1.43127-.28003,1.76349-.72266l.27002-.3598c.06934-.09235,.10535-.19403,.10535-.29712v-1.70087h-2.30005l-1.40894,1.3653Z" style="fill:#2e3d51;"/><path d="M27.81262,35.5401c0,.10309,.03607,.20477,.10541,.29712l.27002,.3598c.33221,.44263,1.01556,.72266,1.76349,.72266h1.01184c.52338,0,.94763-.28027,.94763-.62592v-.25531c0-.29749-.13568-.58807-.38934-.83392l-1.40894-1.3653h-2.30011v1.70087Z" style="fill:#2e3d51;"/></g><g><path d="M10.29321,33.82294l-1.40887,1.3653c-.25372,.24585-.3894,.53644-.3894,.83392v.25525c0,.3457,.42432,.62592,.94769,.62592h1.01178c.74799,0,1.43127-.27997,1.76349-.7226l.27002-.3598c.06934-.09235,.10541-.19403,.10541-.29718v-1.70361l-2.30011,.00281h0Z" style="fill:#2e3d51;"/><path d="M14.2359,35.52374c0,.10315,.03607,.20483,.10541,.29718l.27002,.3598c.33221,.44263,1.0155,.7226,1.76349,.7226h1.01184c.52332,0,.94763-.28021,.94763-.62592v-.25525c0-.29749-.13568-.58807-.38934-.83392l-1.40924-1.3656-2.2998-.0025v1.70361Z" style="fill:#2e3d51;"/></g></g><path d="M9.65796,22.13934l.04791,4.65686c.00403,.14191,.12024,.25488,.26221,.25488h6.87122c.14374,0,.26068-.11572,.26227-.25946l-.03113-4.65228h-7.41248Z" style="fill:#ec3f00;"/><path d="M19.34967,17.71967l-.74133-2.9538c-.14923-1.2002-.97437-2.20807-2.12152-2.59131l-2.40198-.80237v.25323c0,.4364-.35376,.79016-.79016,.79016-.43634,0-.7901-.35376-.7901-.79016v-.22498l-2.48163,.83978c-1.03137,.349-1.80841,1.20734-2.05341,2.26825l-1.17542,3.40778,.44519,.1214,2.01056,.5481,.57288,.15619-.29309,3.3974h7.72626l-.36249-3.42902,.30396-.12262,1.95355-.7879,.19873-.08014Z" style="fill:#fa878f;"/><path d="M10.26666,8.26624c-.05817-.33868,.02264-.68958,.22791-.96509,.13977-.18756,.26453-.2829,.26453-.2829,.74359-.6629,.97729-1.57745,1.04315-1.93689,.01062-.05798,.08307-.07758,.12146-.03284,.28241,.3288,1.16461,1.22711,2.52094,1.42871,1.29169,.19202,1.89813,1.05029,1.72528,2.05164-.2749,1.06653-1.07257,1.90143-2.08508,2.20746v.36853c1.69611-.06842,2.49109-.34991,2.85889-.57513,.19385-.11871,.31226-.328,.3175-.55524,.04535-1.95746-.24426-3.64648-.53705-4.44458-.39325-1.07202-1.56738-2.25623-3.1048-2.41595s-2.22632,.83862-2.22632,.83862c-2.21936,.9726-2.10327,5.14825-2.04773,6.09021,.01001,.17017,.08386,.32544,.22003,.42798,.30945,.23297,1.07751,.56146,2.93921,.63409v-.3432c-1.14111-.30243-2.02789-1.27148-2.23792-2.49542Z" style="fill:#333;"/><g><polygon points="10.29321 33.82294 10.29321 33.82294 12.59332 33.82013 13.13263 27.05109 10.28937 27.05109 10.29321 33.82294" style="fill:#956759;"/><polygon points="14.2359 33.82013 16.53571 33.82263 16.53577 33.82263 16.48407 27.05109 13.61499 27.05109 14.2359 33.82013" style="fill:#956759;"/><path d="M5.46393,25.52551c-.00916,.03906-.00018,.07654-.00378,.11554-.0025,.01642-.0127,.02979-.0144,.04681-.00342,.03406,.00989,.06421,.00964,.09747,.00275,.03906,.00281,.07678,.01129,.11426,.04633,.55859,.46234,1.02783,1.04016,1.08575,.65143,.06525,1.23224-.41003,1.29749-1.06116,.03937-.39258-.13196-.74408-.40564-.98779l1.8512-6.35065-2.01056-.5481-1.77539,7.48785Z" style="fill:#956759;"/><path d="M20.97998,25.8996c.00848-.03748,.00854-.0752,.01129-.11426-.00031-.03326,.01306-.06342,.00964-.09747-.00171-.01703-.0119-.0304-.0144-.04681-.0036-.039,.00537-.07648-.00378-.11554l-.98077-4.1366-.85101-3.58911-1.95355,.7879,1.85059,6.34869c-.27368,.24371-.44501,.59521-.4057,.98779,.06525,.65112,.64606,1.1264,1.29749,1.06116,.0116-.00116,.02057-.00781,.03204-.00928,.55981-.07281,.96277-.52905,1.00818-1.07648Z" style="fill:#956759;"/><path d="M14.44,6.47998c-1.34998-.20001-2.22998-1.09998-2.52002-1.42999-.02997-.04999-.10999-.03003-.12,.02997-.06,.36005-.29999,1.28003-1.03998,1.94,0,0-.13,.09003-.27002,.28003-.20001,.27997-.27997,.63-.21997,.96997,.20996,1.22003,1.08997,2.19,2.22998,2.49005v.87c0,.42999,.35999,.78998,.78998,.78998,.44,0,.79004-.35999,.79004-.78998v-.89001c1.01996-.31,1.82001-1.14001,2.08997-2.21002,.17004-1-.42999-1.85999-1.72998-2.04999Zm-1.64001,2.89001h.84003c.07996,0,.13,.07001,.10999,.14001-.06,.23999-.27002,.40997-.53003,.40997-.25,0-.45996-.16998-.52997-.40997-.02002-.07001,.03998-.14001,.10999-.14001Zm-.46997-1.37c-.17999,0-.33002-.19-.33002-.41003,0-.21997,.15002-.39996,.33002-.39996,.19,0,.33997,.17999,.33997,.39996,0,.22003-.14996,.41003-.33997,.41003Zm1.77997,0c-.17999,0-.32996-.19-.32996-.41003,0-.21997,.14996-.39996,.32996-.39996,.19,0,.34003,.17999,.34003,.39996,0,.22003-.15002,.41003-.34003,.41003Z" style="fill:#956759;"/></g><g><g><path d="M26.39801,7.73657c0-.23615-.15955-.42755-.35632-.42755s-.35632,.19141-.35632,.42755,.15955,.42761,.35632,.42761,.35632-.19147,.35632-.42761Z"/><path d="M27.92297,8.16418c.19678,0,.35632-.19147,.35632-.42761s-.15955-.42755-.35632-.42755-.35626,.19141-.35626,.42755,.15948,.42761,.35626,.42761Z"/></g><g><path d="M12.3338,7.18732c-.1861,0-.33691,.18103-.33691,.4043,0,.22333,.15082,.40436,.33691,.40436s.33698-.18103,.33698-.40436c0-.22327-.15088-.4043-.33698-.4043Z"/><path d="M14.11285,7.18732c-.1861,0-.33698,.18103-.33698,.4043,0,.22333,.15088,.40436,.33698,.40436,.18604,0,.33691-.18103,.33691-.40436,0-.22327-.15088-.4043-.33691-.4043Z"/></g></g><g><path d="M26.98236,10.00208c.26672,0,.49146-.18024,.5589-.42554,.0213-.07721-.03558-.15411-.11566-.15411h-.88647c-.08008,0-.13696,.0769-.11572,.15411,.0675,.2453,.29218,.42554,.55896,.42554Z" style="fill:#5c2f17;"/><path d="M13.64282,9.36798h-.83899c-.07556,0-.12915,.07251-.10919,.14539,.06372,.23218,.27631,.40271,.52869,.40271s.4649-.17053,.52863-.40271c.02002-.07288-.03357-.14539-.10913-.14539Z" style="fill:#5c2f17;"/></g></svg>