<?xml version="1.0" encoding="UTF-8"?><svg id="Layer_1" xmlns="http://www.w3.org/2000/svg" viewBox="0 0 40 40"><g><path d="m14.899,12.596c-.099-.577.039-1.174.388-1.644.238-.319.45-.482.45-.482,1.266-1.129,1.664-2.686,1.776-3.298.018-.099.141-.132.207-.056.481.56,1.983,2.09,4.293,2.433,2.2.327,3.232,1.788,2.938,3.493-.403,1.563-1.469,2.83-2.856,3.489.623.156,1.216.382,1.774.661,1.246-.203,1.982-.49,2.392-.739.331-.201.539-.556.548-.944.078-3.336-.416-6.215-.914-7.575-.67-1.825-2.669-3.842-5.287-4.114-2.618-.272-3.791,1.428-3.791,1.428-4.267,1.87-3.464,10.693-3.464,10.693,0,0,.214.787,2.694,1.225.56-.276,1.156-.497,1.781-.649-1.505-.725-2.627-2.168-2.928-3.923Z" fill="#f80"/><g><path d="m10.35,30.742l-.218.673c-.053.163-.188.261-.339.291l-.092.445c.399-.354.849-.649,1.339-.873-.248-.156-.481-.333-.691-.537Z" fill="#482ec4"/><path d="m24.456,31.279c-.248-.156-.481-.333-.691-.537l-.218.673c-.091.281-.425.398-.672.235l-.851-.563c-.258-.171-.269-.545-.022-.731l.958-.718c-.04-.077-.088-.148-.123-.227-.934-.002-1.691-.713-1.691-1.59,0-.503.254-.946.642-1.237-.029,0-.049.003-.049.003-.01-.225-.004-.455.018-.687.172-1.831,1.381-3.384,3.028-4.054.452-.184.948-.234,1.432-.169l.219.03c.085.011.171.01.256-.004l.428-.071c.262-.043.531-.035.787.037.002,0,.004.001.006.002-.7-1.936-2.159-3.533-4.043-4.478-.558-.28-1.15-.505-1.774-.661-.649.309-1.363.496-2.123.496-.769,0-1.49-.194-2.145-.509-.625.152-1.221.373-1.781.649-1.919.946-3.403,2.567-4.105,4.534.284-.046.572-.063.859-.024l.219.03c.085.011.171.01.256-.004l.428-.071c.262-.043.531-.035.787.037,2.093.582,3.626,2.535,3.592,4.817-.002,0-.005.001-.007,0,.467.283.779.774.779,1.335,0,.877-.757,1.588-1.691,1.59-.029.064-.069.122-.1.185l1.014.761c.247.186.236.56-.022.731l-.851.563c-.247.163-.581.046-.672-.235l-.236-.728c-.225.227-.481.42-.752.591,1.869.856,3.171,2.738,3.171,4.928h2.571c0-2.19,1.301-4.073,3.171-4.928Z" fill="#482ec4"/><path d="m29.948,31.416l-.236-.728c-.225.227-.481.42-.752.591.469.215.901.492,1.286.825l-.098-.452c-.088-.053-.165-.127-.2-.236Z" fill="#482ec4"/></g><path d="m24.952,13.043c.294-1.705-.738-3.167-2.938-3.493-2.31-.343-3.812-1.873-4.293-2.433-.065-.076-.189-.043-.207.056-.112.612-.51,2.169-1.776,3.298,0,0-.212.162-.45.482-.35.469-.487,1.067-.388,1.644.301,1.755,1.424,3.198,2.928,3.923.656.316,1.376.509,2.145.509.76,0,1.473-.188,2.123-.496,1.387-.659,2.453-1.926,2.856-3.489Zm-3.503-2.284c.317,0,.574.308.574.688s-.257.688-.574.688-.574-.308-.574-.688.257-.688.574-.688Zm-2.229,3.713h1.429c.129,0,.22.124.186.248-.109.395-.47.686-.9.686s-.792-.291-.9-.686c-.034-.124.057-.248.186-.248Zm-.8-3.713c.317,0,.574.308.574.688s-.257.688-.574.688-.574-.308-.574-.688.257-.688.574-.688Z" fill="#ffc84d"/><path d="m18.419,12.135c.317,0,.574-.308.574-.688s-.257-.688-.574-.688-.574.308-.574.688.257.688.574.688Z"/><path d="m21.449,12.135c.317,0,.574-.308.574-.688s-.257-.688-.574-.688-.574.308-.574.688.257.688.574.688Z"/><path d="m19.934,15.405c.43,0,.792-.291.9-.686.034-.124-.057-.248-.186-.248h-1.429c-.129,0-.22.124-.186.248.108.395.47.686.9.686Z" fill="#5c2f17"/></g><g><path d="m30.246,32.104c-.385-.333-.818-.61-1.286-.825-.654.412-1.422.66-2.252.66s-1.598-.248-2.252-.66c-1.869.856-3.171,2.738-3.171,4.928h10.845c0-1.641-.732-3.109-1.884-4.103Z" fill="#f56570"/><path d="m22.96,29.639l-.958.718c-.247.186-.236.56.022.731l.851.563c.247.163.581.046.672-.235l.218-.673c-.328-.318-.593-.694-.805-1.103Z" fill="#f80"/><path d="m29.712,30.688l.236.728c.035.108.112.183.2.236.141.084.32.1.472,0l.851-.563c.258-.171.269-.545.022-.731l-1.014-.761c-.202.402-.453.775-.766,1.091Z" fill="#f80"/><path d="m31.49,26.49c-.11-.03-.23.12-.38.2-.06.03-.11.04-.16.05-.52.06-.99-.02-1.41-.17-1.89-.67-2.82-3-2.82-3-.49,1.01-1.93,2.16-2.98,2.91-.69.49-1.22.81-1.22.81-.29-.64-.62-.71-.73-.71-.39.3-.64.74-.64,1.24,0,.88.75,1.59,1.69,1.59.03.08.08.15.12.23.21.41.48.78.81,1.1.21.21.44.38.69.54.65.41,1.42.66,2.25.66s1.6-.25,2.25-.66c.27-.17.53-.37.75-.59.32-.32.57-.69.77-1.09.03-.07.07-.12.1-.19.93,0,1.69-.71,1.69-1.59,0-.56-.31-1.05-.78-1.33Zm-5.97,1.55c-.25,0-.45-.24-.45-.54s.2-.54.45-.54.45.24.45.54-.2.54-.45.54Zm1.19,2.32c-.34,0-.62-.22-.71-.53-.03-.1.05-.2.15-.2h1.12c.1,0,.17.1.15.2-.09.31-.37.53-.71.53Zm1.19-2.32c-.25,0-.45-.24-.45-.54s.2-.54.45-.54.45.24.45.54-.2.54-.45.54Z" fill="#ffc84d"/><path d="m25.518,28.039c.249,0,.451-.242.451-.541s-.202-.541-.451-.541-.451.242-.451.541.202.541.451.541Z"/><path d="m27.898,28.039c.249,0,.451-.242.451-.541s-.202-.541-.451-.541-.451.242-.451.541.202.541.451.541Z"/><path d="m26.708,30.364c.338,0,.622-.228.707-.538.027-.098-.045-.195-.146-.195h-1.122c-.101,0-.173.097-.146.195.085.31.37.538.707.538Z" fill="#5c2f17"/><path d="m27.119,21.633l-.428.071c-.085.014-.171.015-.256.004l-.219-.03c-.484-.065-.98-.015-1.432.169-1.648.67-2.856,2.224-3.028,4.054-.022.232-.027.461-.018.687,0,0,.02-.003.049-.003.117,0,.438.063.733.704,0,0,.529-.323,1.217-.812,1.055-.751,2.487-1.898,2.986-2.904,0,0,.924,2.322,2.812,3,.422.152.892.223,1.411.165.049-.005.106-.02.162-.044.146-.082.269-.231.382-.206.002,0,.005-.001.007,0,.033-2.28-1.497-4.231-3.586-4.815-.002,0-.004-.002-.006-.002-.256-.071-.525-.08-.787-.037Z" fill="#f80"/></g><g><path d="m18.71,36.21H7.87c0-1.62.71-3.06,1.83-4.06.4-.35.85-.65,1.34-.87.65.41,1.42.66,2.25.66s1.6-.25,2.25-.66c1.87.85,3.17,2.74,3.17,4.93Z" fill="#f56570"/><path d="m10.35,30.74l-.22.68c-.05.16-.19.26-.34.29-.11.02-.23.01-.33-.06l-.85-.56c-.26-.17-.27-.55-.02-.73l.95-.72c.22.41.48.78.81,1.1Z" fill="#f80"/><path d="m18.06,31.09l-.86.56c-.24.16-.58.05-.67-.23l-.23-.73c.31-.32.56-.69.76-1.09l1.02.76c.24.18.23.56-.02.73Z" fill="#f80"/><path d="m18.08,26.49c-.12-.03-.24.12-.39.2-.05.03-.11.04-.16.05-.52.06-.99-.02-1.41-.17-1.89-.67-2.81-3-2.81-3-.5,1.01-1.93,2.16-2.99,2.91-.69.49-1.21.81-1.21.81-.3-.64-.62-.71-.74-.71-.39.3-.64.74-.64,1.24,0,.88.76,1.59,1.69,1.59.04.08.08.15.12.23.22.41.48.78.81,1.1.21.21.44.38.69.54.65.41,1.42.66,2.25.66s1.6-.25,2.25-.66c.28-.17.53-.37.76-.59.31-.32.56-.69.76-1.09.03-.07.07-.12.1-.19.94,0,1.69-.71,1.69-1.59,0-.56-.31-1.05-.77-1.33Zm-5.98,1.55c-.25,0-.45-.24-.45-.54s.2-.54.45-.54.45.24.45.54-.2.54-.45.54Zm1.19,2.32c-.34,0-.62-.22-.71-.53-.02-.1.05-.2.15-.2h1.12c.1,0,.18.1.15.2-.09.31-.37.53-.71.53Zm1.19-2.32c-.25,0-.45-.24-.45-.54s.2-.54.45-.54.45.24.45.54-.2.54-.45.54Z" fill="#ffc84d"/><path d="m12.55,27.5c0,.3-.2.54-.45.54s-.45-.24-.45-.54.2-.54.45-.54.45.24.45.54Z"/><path d="m14.93,27.5c0,.3-.2.54-.45.54s-.45-.24-.45-.54.2-.54.45-.54.45.24.45.54Z"/><path d="m14,29.83c-.09.31-.37.53-.71.53s-.62-.22-.71-.53c-.02-.1.05-.2.15-.2h1.12c.1,0,.18.1.15.2Z" fill="#5c2f17"/><path d="m18.08,26.4v.09c-.12-.03-.24.12-.39.2-.05.03-.11.04-.16.05-.52.06-.99-.02-1.41-.17-1.89-.67-2.81-3-2.81-3-.5,1.01-1.93,2.16-2.99,2.91-.69.49-1.21.81-1.21.81-.3-.64-.62-.71-.74-.71-.03,0-.05.01-.05.01-.01-.23,0-.46.02-.69.17-1.83,1.38-3.38,3.03-4.05.18-.08.38-.12.57-.15.29-.04.57-.06.86-.02l.22.03c.08.01.17.01.26-.01l.42-.07c.27-.04.53-.03.79.04,2.06.57,3.59,2.48,3.59,4.73Z" fill="#f80"/></g></svg>