<?xml version="1.0" encoding="UTF-8"?><svg id="Layer_1" xmlns="http://www.w3.org/2000/svg" viewBox="0 0 40 40"><g><path d="M36.41998,31.21997H3.58002c0-10.43994,3.19-19.58997,7.95001-24.59998,2.46997-2.62,5.37-4.12,8.46997-4.12,9.07001,0,16.41998,12.85999,16.41998,28.71997Z" style="fill:#e3e3e3;"/><path d="M28.24188,28.13564l-4.21394-1.60091c-2.46018-.93464-5.1777-.93464-7.63788,0l-4.21391,1.6009c-2.02836,.77059-3.70752,2.21769-4.77147,4.07119-.43651,.76044-.71291,1.60217-.92243,2.45359l-.53866,2.18902c-.08144,.33095,.16908,.65058,.5099,.65058h27.51108c.34082,0,.59134-.31964,.5099-.65058l-.5387-2.18908c-.20952-.8514-.48593-1.69312-.92243-2.45355-1.06395-1.85348-2.7431-3.30056-4.77145-4.07114Z" style="fill:#956759;"/><g><g><path d="M24.02643,24.24182h3.89838c.85565,0,1.58417-.62244,1.71759-1.46765l.55701-3.52832c-.48785,.22925-1.02942,.37134-1.60938,.37415-.90254,2.04651-2.53552,3.69055-4.5636,4.62183Z" style="fill:#333;"/><path d="M11.83002,19.62c-.75537-.00378-1.45587-.2218-2.03729-.59167l.96991,3.89478c.19299,.7749,.88885,1.31873,1.68732,1.31873h3.9436c-2.02808-.93127-3.66107-2.57532-4.56354-4.62183Z" style="fill:#333;"/><path d="M29.60541,8.71777c-2.65216-.91516-6.14124-1.4563-9.48022-1.4563-3.48352,0-7.09064,.59143-9.81055,1.58093-.31689,.73059-.55219,1.50232-.6925,2.30334-.13391,.7644-.18549,1.51733-.16211,2.25134,.00183,.05652,.04608,.10413,.10162,.10803l.00537,.00244c.23413,.00171,.83307,.12158,1.41748,1.18262,.08783,.15942,.30243,.19531,.42377,.05957l5.79016-6.479s7.33508,5.89087,12.17615,5.56934c.10663-.00708,.22974-.04395,.3512-.09595,.31488-.17749,.5802-.49658,.82318-.44531,.00604,.00134,.01245-.00305,.01849-.00122,.02399-1.63171-.32385-3.18506-.96204-4.57983Z" style="fill:#333;"/><path d="M28.22083,6.49011c-2.32239-2.90173-6.11487-4.57361-10.23822-3.80164-2.5481,.47705-4.78461,1.91309-6.32715,3.90283,2.51868-.74829,5.38959-1.17554,8.46973-1.17554,2.93079,0,5.66632,.39258,8.09564,1.07434Z" style="fill:#333;"/></g><path d="M32.23999,16.17993c0-1.21533-.67816-2.27026-1.69104-2.8811-.24298-.05127-.5083,.26782-.82318,.44531-.12146,.052-.24457,.08887-.3512,.09595-4.84106,.32153-12.17615-5.56934-12.17615-5.56934l-5.79016,6.479c-.12134,.13574-.33594,.09985-.42377-.05957-.58441-1.06104-1.18335-1.18091-1.41748-1.18262l-.00537-.00244c-.83777,.62915-1.38165,1.58789-1.38165,2.6748,0,1.18335,.63922,2.229,1.61273,2.84839,.58142,.36987,1.28192,.58789,2.03729,.59167,.90247,2.04651,2.53546,3.69055,4.56354,4.62183,1.1629,.53406,2.45343,.83813,3.81647,.83813s2.6535-.30408,3.81641-.83813c2.02808-.93127,3.66105-2.57532,4.5636-4.62183,.57996-.00281,1.12152-.1449,1.60938-.37415,1.20288-.56543,2.04059-1.72119,2.04059-3.06592Z" style="fill:#956759;"/><g><ellipse cx="17.6356" cy="15.48095" rx=".97477" ry="1.16973"/><ellipse cx="22.78241" cy="15.48095" rx=".97477" ry="1.16973"/></g><path d="M21.42158,20.09298c.21907,0,.37469,.21046,.31657,.42168-.18466,.67114-.79933,1.16414-1.52915,1.16414s-1.34449-.493-1.52915-1.16414c-.05812-.21122,.0975-.42168,.31657-.42168h2.42515Z" style="fill:#5c2f17;"/></g><path d="M18.02414,23.67896h4.39274v4.79254c0,.86825-.70491,1.57315-1.57315,1.57315h-1.24644c-.86825,0-1.57315-.70491-1.57315-1.57315v-4.79254h0Z" style="fill:#956759;"/><path d="M10.70964,33.44496v4.05504H29.85384v-4.07189c0-.93231-.83-1.64391-1.74992-1.49249-1.80741,.2975-4.64683,.8725-6.70673,1.79778-.76425,.34329-1.63883,.3304-2.41308,.0103-1.46782-.60684-3.99796-1.51176-6.6272-1.80566-.88268-.09867-1.64727,.61874-1.64727,1.50692Z" style="fill:#f0f0f0;"/><path d="M22.79781,26.14523c-.31717,1.13158-1.35623,1.96141-2.58911,1.96141-1.24564,0-2.29342-.84709-2.59872-1.99664" style="fill:none; stroke:#fff; stroke-linecap:round; stroke-miterlimit:10; stroke-width:.74598px;"/></g><rect x="0" width="40" height="40" style="fill:none;"/></svg>