<svg id="Layer_1" data-name="Layer 1" xmlns="http://www.w3.org/2000/svg" viewBox="0 0 40 40"><defs><style>.cls-1{fill:#ffb142;}.cls-2{fill:#e80000;}.cls-3{fill:#e7e7e7;}.cls-4{fill:none;}</style></defs><path class="cls-1" d="M29.218,22.009V16.88h5.388a.867.867,0,0,1,.448,1.609Z"/><path class="cls-1" d="M29.218,20.44v5.129h5.388a.867.867,0,0,0,.448-1.609Z"/><path class="cls-2" d="M30.988,34.63a5.465,5.465,0,0,1-7.729-.1l-7.625-7.832,7.833-7.625L31.091,26.9A5.465,5.465,0,0,1,30.988,34.63Z"/><path class="cls-3" d="M15.6,36.651H11.014A6.48,6.48,0,0,1,5.2,27.307l5.017-10.185c4.953-10.056,20.068-6.715,20.322,4.491v.178A14.944,14.944,0,0,1,15.6,36.651Z"/><path class="cls-2" d="M22.966,12.656c3.167,0,5.735-2.094,5.735-4.677,0-2.344-2.114-4.285-4.872-4.624a.778.778,0,0,0-.863.775Z"/><path class="cls-2" d="M10.236,12.656a.772.772,0,0,1-.744-.947A4.15,4.15,0,0,1,13.5,8.379a4.2,4.2,0,0,1,4.107,4.277Z"/><path class="cls-2" d="M23.2,12.656a7.714,7.714,0,0,0-7.039-7.548.784.784,0,0,0-.868.776v6.772Z"/><circle cx="25.047" cy="18.352" r="1.761"/><rect class="cls-4" width="40" height="40"/></svg>