<svg id="Layer_1" data-name="Layer 1" xmlns="http://www.w3.org/2000/svg" viewBox="0 0 40 40"><defs><style>.cls-1{fill:#d0d5da;}.cls-2{fill:#e5e9ee;}.cls-3{fill:#afb7c0;}.cls-4{fill:#1e6ef4;}.cls-5{fill:none;}</style></defs><path class="cls-1" d="M1.5,12.5v17a4.954,4.954,0,0,0,1.115,3.112L15.63,22.236Z"/><path class="cls-1" d="M38.5,12.5,24.37,22.236,37.385,32.612A4.954,4.954,0,0,0,38.5,29.5Z"/><path class="cls-2" d="M23.4,22.9a6,6,0,0,1-6.808,0l-.966-.665L2.615,32.612A4.97,4.97,0,0,0,6.5,34.5h27a4.97,4.97,0,0,0,3.885-1.888L24.37,22.236Z"/><path class="cls-3" d="M38.5,12.5,23.4,25.08a5.457,5.457,0,0,1-6.808,0L1.5,12.5Z"/><path class="cls-2" d="M33.5,5.5H6.5a5,5,0,0,0-5,5v2L16.6,22.9a6,6,0,0,0,6.808,0L38.5,12.5v-2A5,5,0,0,0,33.5,5.5Z"/><path class="cls-4" d="M25.322,25.087h1.921c-1.06,1.9-3.881,3.56-7.122,3.56-5.181,0-8.382-3.02-8.382-7.9a8.437,8.437,0,0,1,8.723-8.662c4.74,0,7.8,3,7.8,7.082a5.484,5.484,0,0,1-5.142,5.581,1.664,1.664,0,0,1-1.8-1.261,2.7,2.7,0,0,1-2.4,1.361c-1.88,0-3.221-1.4-3.221-3.66,0-3.162,1.741-5.3,4.222-5.3a2.368,2.368,0,0,1,2.3,1.621l.3-1.4,2.161-.04-1.321,6.282c-.1.519.08.82.42.82,1.021,0,2.78-1.28,2.78-4,0-3.181-2.139-5.562-6.1-5.562-4.361,0-7.022,3.1-7.022,7.142,0,3.881,2.361,6.382,6.681,6.382A6.618,6.618,0,0,0,25.322,25.087Zm-4.08-4.581c.239-1.561-.24-2.6-1.2-2.6-1.04,0-1.8,1.321-1.8,3.2,0,1.161.5,1.72,1.26,1.72C20.361,22.826,21,21.986,21.242,20.506Z"/><rect class="cls-5" width="40" height="40" transform="translate(40 40) rotate(-180)"/></svg>