<?xml version="1.0" encoding="UTF-8"?><svg id="Layer_1" xmlns="http://www.w3.org/2000/svg" viewBox="0 0 40 40"><g><ellipse cx="20" cy="21.566" rx="13.409" ry="15.42" fill="#956759"/><g><ellipse cx="8.832" cy="22.295" rx="5.368" ry="5.035" fill="#956759"/><ellipse cx="31.168" cy="22.295" rx="5.368" ry="5.035" fill="#956759"/></g><g><ellipse cx="16.233" cy="21.269" rx="1.427" ry="1.712"/><ellipse cx="23.767" cy="21.269" rx="1.427" ry="1.712"/></g><path d="m33.235,20.947l1.929-1.746s.16-2.386-.51-5.612c-.67-3.227-4.505-8.827-11.628-10.288-7.123-1.461-11.323,3.143-11.323,3.143-7.792,1.925-6.848,12.796-6.848,12.796l1.576,1.345c.534.456,1.352.397,1.785-.156,2.442-3.114,4.978-11.275,4.978-11.275,0,0,1.766,5.388,10.907,5.271,6.726-.086,7.954,3.979,8.133,6.133.041.495.632.723,1,.39Z" fill="#e86c00"/><g><path d="m18.931,30.646l-1.115.145c.316.907,1.169,1.562,2.184,1.562s1.868-.655,2.184-1.562l-1.115-.145c-.709-.092-1.428-.092-2.137,0Z" fill="#5c2f17"/><path d="m26.016,29.269c-1.401-1.307-3.574-2.146-6.016-2.146s-4.615.839-6.016,2.146c-.737.688-.254,1.923.755,1.923l3.078-.401,1.115-.145c.709-.092,1.428-.092,2.137,0l1.115.145,3.078.401c1.008,0,1.492-1.236.755-1.923Z" fill="#e86c00"/></g></g><rect width="40" height="40" fill="none"/></svg>