<?xml version="1.0" encoding="UTF-8"?><svg id="Layer_1" xmlns="http://www.w3.org/2000/svg" viewBox="0 0 40 40"><g><g><g><path d="m24.553,31.143c-.774-.448-1.397-1.121-1.761-1.944-.934-.002-1.691-.713-1.691-1.59,0-.522.271-.98.685-1.271-.008-.213-.004-.429.017-.649.215-2.282,2.04-4.135,4.319-4.379.604-.065,1.187-.013,1.735.128-.87-2.246-2.773-4.014-5.163-4.798-.808.555-1.749.881-2.759.881s-1.952-.325-2.76-.881c-2.464.808-4.405,2.665-5.236,5.008.3-.055.605-.078.909-.037l.219.03c.085.011.171.01.256-.004l.428-.071c.262-.043.532-.035.787.036,2.093.582,3.626,2.535,3.592,4.817-.002,0-.005,0-.007,0,.467.283.779.774.779,1.335,0,.877-.757,1.588-1.691,1.59-.029.064-.069.122-.1.185l1.014.761c.247.186.236.56-.022.731l-.851.563c-.247.163-.581.046-.672-.235l-.236-.728c-.225.227-.481.42-.752.591,1.869.856,3.171,2.738,3.171,4.928h2.48c0-2.246,1.366-4.174,3.313-4.997Z" fill="#5268e9"/><path d="m28.772,31.143c.548.232,1.047.555,1.485.945l-.4-1.845c-.309.358-.673.661-1.086.9Z" fill="#5268e9"/><path d="m10.395,30.674l-.218.674c-.058.179-.216.281-.386.297l-.101.491c.412-.376.882-.689,1.395-.924-.248-.156-.481-.334-.691-.537Z" fill="#5268e9"/></g><path d="m26.03,10.28v.09l-.77.7c-.15.14-.39.04-.41-.16-.03-.36-.15-.86-.46-1.32-.43-.62-1.24-1.16-2.81-1.14-3.67.05-4.38-2.12-4.38-2.12,0,0-.58,1.86-1.28,3.31-.24.48-.48.91-.72,1.22-.18.22-.51.25-.72.07l-.64-.55v-.11c-.34.36-.55.83-.55,1.34,0,.95.69,1.74,1.62,1.96.44,1.29,1.24,2.37,2.26,3.07.81.55,1.75.88,2.76.88s1.96-.33,2.76-.88c1.03-.7,1.83-1.78,2.26-3.07.94-.22,1.63-1.01,1.63-1.96,0-.51-.21-.98-.55-1.33Zm-7.61,1.61c-.32,0-.57-.31-.57-.69s.25-.69.57-.69.57.31.57.69-.25.69-.57.69Zm1.51,3.77c-.43,0-.79-.29-.9-.69-.03-.12.06-.25.19-.25h1.43c.13,0,.22.13.18.25-.1.4-.47.69-.9.69Zm1.52-3.77c-.32,0-.57-.31-.57-.69s.25-.69.57-.69.57.31.57.69-.25.69-.57.69Z" fill="#ffc84d"/><path d="m18.419,11.889c.317,0,.574-.308.574-.688s-.257-.688-.574-.688-.574.308-.574.688.257.688.574.688Z"/><path d="m21.449,11.889c.317,0,.574-.308.574-.688s-.257-.688-.574-.688-.574.308-.574.688.257.688.574.688Z"/><path d="m14.479,10.925c.215.183.543.159.718-.062.243-.31.488-.744.72-1.222.704-1.453,1.282-3.312,1.282-3.312,0,0,.71,2.167,4.386,2.119,1.562-.02,2.373.52,2.805,1.144.316.457.435.957.465,1.323.017.199.254.291.402.156l.776-.702s.002-.038.004-.092c.009-.259.014-1.091-.209-2.165-.269-1.297-1.811-3.549-4.675-4.137-2.864-.588-4.553,1.263-4.553,1.263-2.849.704-2.793,4.37-2.76,5.032.003.066.007.113.007.113l.634.541Z" fill="#f80"/><path d="m19.934,15.657c.43,0,.791-.29.9-.685.034-.125-.057-.248-.186-.248h-1.427c-.129,0-.221.124-.186.248.109.395.47.685.9.685Z" fill="#5c2f17"/></g><g><path d="m18.76,36.14H7.92c0-1.59.68-3.01,1.77-4,.41-.38.88-.69,1.4-.93.65.41,1.42.66,2.25.66s1.6-.25,2.25-.66c1.87.86,3.17,2.74,3.17,4.93Z" fill="#f56570"/><path d="m10.4,30.67l-.22.68c-.06.18-.22.28-.39.29-.1.01-.19,0-.28-.06l-.86-.56c-.25-.17-.27-.54-.02-.73l.96-.72c.21.41.48.79.81,1.1Z" fill="#f80"/><path d="m18.1,31.02l-.85.56c-.25.17-.58.05-.67-.23l-.24-.73c.32-.32.57-.69.77-1.09l1.01.76c.25.19.24.56-.02.73Z" fill="#f80"/><path d="m18.13,26.42h-.01c-.11-.03-.23.12-.38.21-.06.02-.11.03-.16.04-.52.06-.99-.01-1.41-.17-1.89-.67-2.82-3-2.82-3-.49,1.01-1.93,2.16-2.98,2.91-.69.49-1.22.81-1.22.81-.29-.64-.62-.7-.73-.7-.39.29-.64.73-.64,1.23,0,.88.75,1.59,1.69,1.59.03.08.08.15.12.23.21.41.48.79.81,1.1.21.21.44.38.69.54.65.41,1.42.66,2.25.66s1.6-.25,2.25-.66c.27-.17.53-.36.75-.59.32-.32.57-.69.77-1.09.03-.06.07-.12.1-.19.93,0,1.69-.71,1.69-1.59,0-.56-.31-1.04-.77-1.33Zm-5.98,1.55c-.25,0-.45-.24-.45-.54s.2-.54.45-.54.45.24.45.54-.2.54-.45.54Zm1.19,2.33c-.34,0-.62-.23-.71-.54-.03-.1.05-.2.15-.2h1.12c.1,0,.17.1.14.2-.08.31-.36.54-.7.54Zm1.19-2.33c-.25,0-.45-.24-.45-.54s.2-.54.45-.54.45.24.45.54-.2.54-.45.54Z" fill="#ffc84d"/><path d="m12.6,27.43c0,.3-.2.54-.45.54s-.45-.24-.45-.54.2-.54.45-.54.45.24.45.54Z"/><path d="m14.98,27.43c0,.3-.2.54-.45.54s-.45-.24-.45-.54.2-.54.45-.54.45.24.45.54Z"/><path d="m14.04,29.76c-.08.31-.36.54-.7.54s-.62-.23-.71-.54c-.03-.1.05-.2.15-.2h1.12c.1,0,.17.1.14.2Z" fill="#5c2f17"/><path d="m18.13,26.42h-.01c-.11-.03-.23.12-.38.21-.06.02-.11.03-.16.04-.52.06-.99-.01-1.41-.17-1.89-.67-2.82-3-2.82-3-.49,1.01-1.93,2.16-2.98,2.91-.69.49-1.22.81-1.22.81-.29-.64-.62-.7-.73-.7h-.05c-.01-.23-.01-.46.02-.69.17-1.83,1.38-3.38,3.02-4.05.17-.07.35-.1.53-.13.3-.06.6-.08.91-.04l.21.03c.09.01.18.01.26,0l.43-.08c.26-.04.53-.03.79.04,2.09.58,3.62,2.54,3.59,4.82Z" fill="#f80"/></g><g><path d="m32.08,36.14h-10.84c0-2.25,1.37-4.17,3.31-5,.63.36,1.34.59,2.11.59s1.49-.23,2.11-.59c.55.23,1.05.56,1.49.95,1.12.99,1.82,2.44,1.82,4.05Z" fill="#64a7ff"/><path d="m31.43,26.26c-.49-.01-.91-.09-1.26-.21-1.28-.43-1.72-1.36-1.72-1.36,0,0-.85,1.02-1.79,1.02-.93,0-1.87-1.02-1.87-1.02-.57.72-1.16,1.12-1.67,1.36-.76.35-1.34.33-1.34.33,0-.02.01-.03.01-.04-.42.29-.69.75-.69,1.27,0,.88.76,1.59,1.69,1.59.37.82.99,1.49,1.76,1.94.63.36,1.34.59,2.11.59s1.49-.23,2.11-.59c.41-.24.78-.54,1.09-.9.27-.31.5-.66.67-1.04.94,0,1.69-.71,1.69-1.59,0-.57-.31-1.06-.79-1.35Zm-5.96,1.57c-.25,0-.45-.25-.45-.55,0-.29.2-.54.45-.54s.45.25.45.54c0,.3-.2.55-.45.55Zm1.19,2.32c-.34,0-.62-.23-.7-.54-.03-.1.04-.19.14-.19h1.12c.1,0,.18.09.15.19-.09.31-.37.54-.71.54Zm1.19-2.32c-.25,0-.45-.25-.45-.55,0-.29.2-.54.45-.54s.45.25.45.54c0,.3-.2.55-.45.55Z" fill="#ffc84d"/><path d="m25.92,27.28c0,.3-.2.55-.45.55s-.45-.25-.45-.55c0-.29.2-.54.45-.54s.45.25.45.54Z"/><path d="m28.3,27.28c0,.3-.2.55-.45.55s-.45-.25-.45-.55c0-.29.2-.54.45-.54s.45.25.45.54Z"/><path d="m27.37,29.61c-.09.31-.37.54-.71.54s-.62-.23-.7-.54c-.03-.1.04-.19.14-.19h1.12c.1,0,.18.09.15.19Z" fill="#5c2f17"/><path d="m31.54,26.27c-.04,0-.07,0-.11-.01-.49-.01-.91-.09-1.26-.21-1.28-.43-1.72-1.36-1.72-1.36,0,0-.85,1.02-1.79,1.02-.93,0-1.87-1.02-1.87-1.02-.57.72-1.16,1.12-1.67,1.36-.76.35-1.34.33-1.34.33,0-.02.01-.03.01-.04-.01-.22-.01-.43.01-.65.22-2.28,2.04-4.14,4.32-4.38.61-.07,1.19-.01,1.74.13,2.14.55,3.72,2.52,3.68,4.83Z" fill="#f80"/></g></g><rect width="40" height="40" fill="none"/></svg>