<?xml version="1.0" encoding="UTF-8"?><svg id="Layer_1" xmlns="http://www.w3.org/2000/svg" viewBox="0 0 40 40"><g><g><path d="m5.444,34.214s-1.743-19.161,7.523-23.222c0,0,2.547-3.692,8.233-3.101,5.686.591,10.027,4.97,11.482,8.934,1.083,2.953,2.155,9.206,1.986,16.451-.02.841-.472,1.612-1.191,2.049-1.569.953-5.203,2.175-13.532,2.175-13.66,0-14.501-3.286-14.501-3.286Z" fill="#333"/><path d="m24.076,20.271c-5.016-.738-8.278-4.024-9.323-5.227-.142-.164-.41-.092-.449.12-.243,1.315-1.108,4.66-3.858,7.085,0,0-.461.349-.978,1.035-.759,1.008-1.058,2.291-.843,3.53.939,5.414,5.514,9.523,11.019,9.523,5.174,0,9.527-3.63,10.812-8.562.639-3.663-1.603-6.803-6.38-7.505Z" fill="#6e4944"/><g><ellipse cx="16.447" cy="24.45" rx="1.246" ry="1.495"/><ellipse cx="23.025" cy="24.45" rx="1.246" ry="1.495"/></g><path d="m21.287,31.019c.279,0,.478.268.404.538-.236.859-1.022,1.489-1.955,1.489s-1.719-.631-1.955-1.489c-.074-.269.124-.538.404-.538h3.103Z" fill="#5c2f17"/></g><path d="m8.89,13.756l-.116-5.988c-.003-.136.154-.214.26-.13l2.026,1.588c.08.063.198.036.244-.055l2.317-4.664c.052-.104.194-.121.268-.031l2.993,3.622c.074.09.216.073.268-.031l2.724-5.478c.059-.119.229-.119.288,0l2.724,5.478c.052.104.194.121.268.031l2.993-3.622c.074-.09.216-.073.268.031l2.317,4.664c.045.091.163.118.244.055l2.026-1.588c.107-.084.263-.006.26.13l-.116,6.006c-.006.302-.21.56-.506.624-2.123.463-10.814,2.07-21.221-.008-.302-.06-.525-.327-.531-.635Z" fill="#d69600"/><ellipse cx="20.019" cy="11.856" rx="1.366" ry="2.073" fill="#f3f3f3"/></g><rect width="40" height="40" fill="none"/></svg>