<?xml version="1.0" encoding="UTF-8"?><svg id="Layer_1" xmlns="http://www.w3.org/2000/svg" viewBox="0 0 40 40"><g><path d="m33.587,36.88l-.513-2.085c-.2-.811-.463-1.613-.879-2.337-1.013-1.765-2.613-3.144-4.544-3.878l-4.014-1.525c-.506-.192-1.024-.334-1.547-.444v1.938c0,1.16-.93,2.09-2.09,2.09s-2.09-.93-2.09-2.09v-1.938c-.523.109-1.042.251-1.547.444l-4.013,1.525c-1.932.734-3.531,2.112-4.545,3.878-.416.724-.679,1.526-.879,2.337l-.513,2.085c-.078.315.161.62.486.62h26.203c.325,0,.563-.304.486-.62Z" fill="#5a81ff"/><g><path d="m29.841,14.45c-.23-.041-.48.256-.777.424-.116.05-.233.085-.334.092-1.223.081-2.613-.26-3.996-.796-.085.028-.175.044-.26.07-.3.092-.604.173-.911.246-.181.043-.36.087-.543.124-.331.066-.667.116-1.005.161-.162.021-.321.05-.485.066-.503.05-1.012.081-1.528.081s-1.026-.031-1.529-.081c-.162-.016-.321-.044-.481-.065-.34-.045-.677-.095-1.009-.162-.182-.037-.361-.081-.541-.124-.308-.074-.613-.155-.914-.247-.176-.054-.35-.109-.523-.169-.309-.107-.611-.225-.911-.351-.142-.06-.286-.115-.426-.179l-2.048,2.291c-.116.129-.32.095-.404-.057-.557-1.01-1.127-1.125-1.35-1.126,0,0,0,0-.001,0-.797.601-1.313,1.518-1.313,2.552,0,1.79,1.55,3.26,3.47,3.27,1.08,2.44,3.24,4.3,5.89,4.95v3.13c0,1.16.93,2.09,2.09,2.09s2.09-.93,2.09-2.09v-3.13c2.65-.65,4.81-2.51,5.89-4.95,1.92-.01,3.47-1.48,3.47-3.27,0-1.157-.644-2.167-1.609-2.75Z" fill="#956759"/><g><path d="m27.422,12.987c-.349.194-.703.376-1.068.543-.147.067-.298.126-.447.189-.299.125-.6.244-.908.35-.089.031-.175.07-.265.1,1.383.536,2.773.877,3.996.796.102-.007.219-.042.334-.092.297-.167.547-.465.777-.424.008.001.017-.004.025-.002.014-.985-.127-1.935-.377-2.841-.587.464-1.202.892-1.854,1.268-.069.04-.142.073-.212.112Z" fill="#333"/><path d="m11.214,15.775c.084.152.288.186.404.057l2.048-2.291c-.007-.003-.013-.007-.019-.01-.364-.167-.719-.349-1.067-.543-.07-.039-.144-.073-.214-.113-.776-.448-1.511-.959-2.195-1.531-.102.346-.191.696-.254,1.055-.128.728-.177,1.445-.154,2.144.002.055.046.104.101.105,0,0,0,0,.001,0,.223.002.794.116,1.35,1.126Z" fill="#333"/></g><g><ellipse cx="17.549" cy="16.528" rx=".928" ry="1.114"/><ellipse cx="22.451" cy="16.528" rx=".928" ry="1.114"/></g><path d="m21.155,20.921c.209,0,.357.2.302.402-.176.639-.761,1.109-1.456,1.109s-1.281-.47-1.456-1.109c-.055-.201.093-.402.302-.402h2.31Z" fill="#5c2f17"/></g><g><path d="m20,9.205c3.595,0,6.953.774,9.848,2.102.477-.402.937-.823,1.362-1.279,1.308-1.406,1.026-3.662-.606-4.674-2.868-1.779-6.562-2.854-10.603-2.854s-7.735,1.074-10.603,2.854c-1.632,1.012-1.914,3.268-.606,4.674.425.456.885.877,1.362,1.279,2.895-1.328,6.252-2.102,9.847-2.102Z" fill="#5a81ff"/><path d="m12.579,12.988c.348.194.703.376,1.067.543.146.067.297.126.446.188.299.126.602.244.911.351.173.06.347.115.523.169.301.092.606.173.914.247.18.043.359.087.541.124.332.067.67.117,1.009.162.161.021.319.049.481.065.503.05,1.012.081,1.529.081s1.025-.031,1.528-.081c.163-.016.323-.045.485-.066.338-.045.674-.095,1.005-.161.183-.037.363-.081.543-.124.308-.073.611-.155.911-.246.176-.054.352-.11.525-.17.308-.106.61-.225.908-.35.149-.062.3-.122.447-.189.364-.167.719-.349,1.068-.543.07-.039.143-.073.212-.112.651-.376,1.267-.804,1.854-1.268.125-.099.256-.189.378-.292-.006-.003-.013-.005-.019-.008-2.895-1.328-6.252-2.102-9.848-2.102s-6.953.774-9.847,2.102c-.006.003-.013.005-.019.008.012.01.025.019.037.029.683.572,1.418,1.083,2.195,1.531.07.04.143.074.214.113Z" fill="#262626"/><path d="m20.1,4.156c-.043-.05-.121-.05-.164,0-.291.336-.717.55-1.196.55-.315,0-.606-.095-.852-.255-.075-.049-.173.013-.168.103.107,1.81,1.086,3.228,2.281,3.228s2.165-1.406,2.279-3.205c.006-.089-.09-.151-.166-.104-.238.146-.517.233-.817.233-.479,0-.906-.215-1.196-.55Z" fill="#fb0"/></g><g><path d="m24.749,30.622l-1.025-3.468c-.029-.098-.135-.181-.284-.222l-1.349-.431-1.917,3.979c-.055.104-.295.104-.351,0l-1.917-3.979-1.349.431c-.149.041-.255.124-.284.222l-1.025,3.468c-.026.087.125.153.251.11l1.652-.558c.222-.075.499-.047.669.068l1.835,1.235c.184.124.502.124.686,0l1.835-1.235c.17-.115.447-.143.669-.068l1.652.558c.126.043.277-.023.251-.11Z" fill="#374be5"/><path d="m12.452,28.543l-.1.038c-1.932.734-3.531,2.112-4.545,3.877-.049.085-.089.174-.133.261.863.135,1.904-.078,2.859-.678,1.434-.901,2.188-2.354,1.919-3.499Z" fill="#3036d1"/><path d="m32.198,32.458c-1.013-1.765-2.613-3.144-4.545-3.877l-.1-.038c-.269,1.145.484,2.598,1.919,3.499.955.6,1.996.812,2.859.678-.045-.087-.085-.176-.133-.261Z" fill="#3036d1"/><path d="m17.243,34.299h-5.192c-.105,0-.191.085-.191.191v.895c0,.082.053.155.13.181l2.256.751c.26.086.541.086.801,0l2.256-.751c.078-.026.13-.099.13-.181v-.895c0-.105-.085-.191-.191-.191Z" fill="#94a4ff"/><path d="m26.654,32.702c0-.098-.079-.177-.177-.177h-1.935c-.098,0-.177.079-.177.177v.717c-.377.498-.702,1.03-.702,1.392,0,.867.832,1.57,1.858,1.57s1.858-.703,1.858-1.57c0-.37-.338-.917-.725-1.423v-.686Z" fill="#fb0"/></g></g><rect width="40" height="40" fill="none"/></svg>