<?xml version="1.0" encoding="UTF-8"?><svg id="Layer_1" xmlns="http://www.w3.org/2000/svg" viewBox="0 0 40 40"><g><g><path d="M29.22461,11.88782l-6.02429,1.83093c.03455,.00537,.06488,.01624,.09967,.02124,3.48004,.52002,5.12,2.79999,4.65002,5.46997-.77002,2.94-3.02002,5.24005-5.87,5.98004v1.07788c4.72345-.16595,6.92938-.93488,7.94379-1.55151,.52399-.31848,.85345-.88049,.8678-1.49353,.11639-4.98328-.57336-9.29559-1.31494-11.5777-.09314,.10669-.20508,.198-.35205,.24268Z" style="fill:#ffdb87;"/><path d="M12.03998,18.51001c-.15997-.90002,.06-1.84003,.61005-2.57001,.38-.5,.70996-.75,.70996-.75,.70563-.62134,1.23334-1.32501,1.63904-2.01849l-4.07971-1.23993c-1.94904,5.12286-1.32916,11.97516-1.32916,11.97516,0,0,.53864,2.01782,8.34985,2.34558v-1.09235c-3.02002-.83997-5.34998-3.42999-5.90002-6.64996Z" style="fill:#ffdb87;"/><path d="M27.95001,19.20996c.46997-2.66998-1.16998-4.94995-4.65002-5.46997-.03479-.005-.06512-.01587-.09967-.02124l-2.70197,.82117c-.32489,.09875-.67188,.09875-.99677,0l-4.50256-1.36841c-.4057,.69348-.93341,1.39716-1.63904,2.01849,0,0-.32996,.25-.70996,.75-.55005,.72998-.77002,1.66998-.61005,2.57001,.55005,3.21997,2.88,5.81,5.90002,6.64996v3.25c0,1.14001,.92999,2.07001,2.07001,2.07001s2.07001-.92999,2.07001-2.07001v-3.21997c2.84998-.73999,5.09998-3.04004,5.87-5.98004Z" style="fill:#ffb582;"/><g><ellipse cx="17.60976" cy="16.78939" rx=".90821" ry="1.08986"/><ellipse cx="22.40512" cy="16.78939" rx=".90821" ry="1.08986"/></g><path d="M21.1382,21.57751c.20362,0,.34812,.19557,.29423,.39193-.17173,.6258-.74467,1.0856-1.42499,1.0856s-1.25326-.4598-1.42499-1.0856c-.05388-.19636,.09062-.39193,.29423-.39193h2.26152Z" style="fill:#5c2f17;"/></g><path d="M33.43335,36.88733l-.50726-2.0614c-.19733-.8017-.45758-1.59436-.86865-2.31042-1.00189-1.74536-2.58307-3.10803-4.4931-3.83368l-3.9682-1.50751c-.49542-.18823-1.0033-.3277-1.51611-.43542v1.67108c0,1.14001-.92999,2.07001-2.07001,2.07001s-2.07001-.92999-2.07001-2.07001v-1.67566c-.51971,.10803-1.0343,.24933-1.53619,.44l-3.96814,1.50751c-1.91003,.72565-3.49127,2.08832-4.49316,3.83374-.41107,.71606-.67133,1.50867-.86859,2.31042l-.50726,2.06134c-.07672,.31165,.15918,.61267,.48016,.61267h25.90637c.32092,0,.55688-.30103,.48016-.61267Z" style="fill:#333;"/><path d="M33.92676,5.65521l-13.33527-3.08765c-.38922-.09009-.79382-.09009-1.18304,0L6.07324,5.65521c-.21173,.04907-.21777,.34827-.00824,.40588l1.63501,.44934v-.13043c0-.11005,.08002-.21002,.19-.23999l9.26996-2.19c.13-.03003,.26001,.04999,.29004,.17999,.03998,.13995-.04999,.26996-.17999,.29999l-9.08002,2.14996v.06512l3.55371,.97656-1.45544,3.18616c-.19788,.43323,.03137,.94153,.48706,1.08002l.14398,.04376,4.07971,1.23993,4.50256,1.36841c.32489,.09875,.67188,.09875,.99677,0l2.70197-.82117,6.02429-1.83093c.14697-.04468,.25891-.13599,.35205-.24268,.19556-.22412,.26904-.54388,.13501-.83734l-1.45544-3.18616,5.67877-1.56055c.20953-.05762,.20349-.35681-.00824-.40588Z" style="fill:#262626;"/><path d="M17.27002,4.42999c.13-.03003,.21997-.16003,.17999-.29999-.03003-.13-.16003-.21002-.29004-.17999L7.89001,6.14001c-.10999,.02997-.19,.12994-.19,.23999v5.89996c-.40002,.10004-.69,.47003-.69,.90002,0,.52002,.41998,.94,.94,.94,.51996,0,.94-.41998,.94-.94,0-.44-.29999-.79999-.70001-.91003V6.57996l9.08002-2.14996Z" style="fill:#fa0;"/></g><rect width="40" height="40" style="fill:none;"/></svg>