<?xml version="1.0" encoding="UTF-8"?><svg id="a" xmlns="http://www.w3.org/2000/svg" viewBox="0 0 40 40"><g><path d="M27.48,5.45H12.52c-1.742,0-3.427,.624-4.749,1.758L1.734,12.389c-.243,.209-.305,.561-.147,.84l4.169,7.382c.184,.325,.598,.438,.921,.251l2.751-1.594c.173-.101,.391,.025,.391,.225v17.314c0,.494,.401,.895,.895,.895H29.286c.494,0,.895-.401,.895-.895V19.492c0-.2,.217-.326,.391-.225l2.751,1.594c.323,.187,.738,.075,.921-.251l4.169-7.382c.158-.279,.096-.631-.147-.84l-6.036-5.18c-1.322-1.135-3.007-1.758-4.749-1.758Z" fill="#4592fb"/><path d="M16.677,10.514l-3.462-5.047,1.828-3.169,5.068,5.47-2.601,2.807c-.233,.252-.64,.222-.834-.061Z" fill="#93c9ff"/><path d="M23.547,10.514l3.462-5.047-1.828-3.169-5.068,5.47,2.601,2.807c.233,.252,.64,.222,.834-.061Z" fill="#93c9ff"/><polygon points="15.043 2.299 25.18 2.299 20.112 7.768 15.043 2.299" fill="#2f81f9"/></g><rect width="40" height="40" fill="none"/></svg>