<?xml version="1.0" encoding="UTF-8"?><svg id="Layer_1" xmlns="http://www.w3.org/2000/svg" viewBox="0 0 40 40"><g><g><circle cx="17.99226" cy="22.00774" r="15.58003" style="fill:#df1600;"/><path d="M20.24763,19.75237L3.72441,28.26596c.77834,1.77451,1.88095,3.38835,3.25112,4.75851,1.43138,1.43138,3.12811,2.57018,4.99508,3.35256l8.27703-16.62467Z" style="fill:#a00f00;"/><circle cx="24.19131" cy="28.20678" r="2.47602" style="fill:#4a1900;"/><circle cx="22.45364" cy="15.15718" r="2.47602" style="fill:#4a1900;"/><circle cx="8.9911" cy="18.87941" r="2.47602" style="fill:#4a1900;"/></g><path d="M21.7872,5.22454c2.91064-2.91064,8.08031-2.48068,11.66175,.92559,2.8835,2.74247,3.86846,6.66565,2.71278,9.85145-.51116,1.40908-1.37444,2.36324-2.40103,3.02654-.24198,.15635-.602,.0782-.8466-.16641L21.13773,7.08534c-.24435-.24435-.32233-.60382-.16616-.84556,.23346-.36139,.50295-.70254,.81564-1.01523Z" style="fill:#3b1400;"/><g><path d="M35.37549,10.45996c-.47607,0-.92871-.28027-1.125-.74707-.26172-.62109,.02979-1.33691,.65088-1.59863l2.21289-.93164c.62256-.25781,1.33691,.03027,1.59814,.65137,.26172,.62109-.02979,1.33691-.65088,1.59863l-2.21289,.93164c-.15479,.06445-.31543,.0957-.47314,.0957Z" style="fill:#3b1400;"/><path d="M30.76074,5.8457c-.15771,0-.31836-.03125-.47314-.0957-.62109-.26172-.9126-.97754-.65088-1.59863l.93164-2.21289c.26172-.62109,.97656-.90918,1.59814-.65137,.62109,.26172,.9126,.97754,.65088,1.59863l-.93164,2.21289c-.19629,.4668-.64893,.74707-1.125,.74707Z" style="fill:#3b1400;"/></g></g><rect width="40" height="40" style="fill:none;"/></svg>