<svg id="Layer_1" data-name="Layer 1" xmlns="http://www.w3.org/2000/svg" viewBox="0 0 40 40"><defs><style>.cls-1{fill:#ec4452;}.cls-2{fill:none;}</style></defs><path class="cls-1" d="M28.586,5.089a8.672,8.672,0,0,0-6.729,2.982l.439.65a3.5,3.5,0,0,1,0,3.933L20.152,15.83a.588.588,0,0,0,0,.66L22.3,19.666a3.5,3.5,0,0,1,0,3.933l-2.144,3.176a.587.587,0,0,0,0,.659L22.3,30.611a3.494,3.494,0,0,1,.033,3.863c3.627-2.449,10.534-7.626,13.6-13.394C40.175,13.075,35.183,5.089,28.586,5.089Z"/><path class="cls-1" d="M18.518,34.911l1.353-2a.588.588,0,0,0,0-.66l-2.145-3.176a3.5,3.5,0,0,1,0-3.933l2.145-3.177a.585.585,0,0,0,0-.658l-2.145-3.177a3.5,3.5,0,0,1,0-3.932l2.144-3.177a.588.588,0,0,0,0-.66L18.9,8.919a1.453,1.453,0,0,1-.213-.179,8.737,8.737,0,0,0-7.273-3.651c-6.6,0-11.589,7.986-7.338,15.991,3.108,5.856,10.187,11.11,13.766,13.511A3.933,3.933,0,0,0,18.518,34.911Z"/><rect class="cls-2" width="40" height="40"/></svg>