<?xml version="1.0" encoding="UTF-8"?><svg id="a" xmlns="http://www.w3.org/2000/svg" viewBox="0 0 40 40"><rect width="40" height="40" fill="none"/><g><path d="M28.01,1.62H11.99c-2.2,0-3.99,1.79-3.99,3.99v28.78c0,2.2,1.79,3.99,3.99,3.99H28.01c2.2,0,3.99-1.79,3.99-3.99V5.61c0-2.2-1.79-3.99-3.99-3.99Zm-9.01,11.28c0-.55,.45-1,1-1s1,.45,1,1v4.92c0,.55-.45,1-1,1s-1-.45-1-1v-4.92Zm1,15.2c-3.92,0-7.1-3.18-7.1-7.1,0-2.84,1.68-5.29,4.1-6.43v2.33c-1.27,.92-2.1,2.41-2.1,4.1,0,2.81,2.29,5.1,5.1,5.1s5.1-2.29,5.1-5.1c0-1.69-.83-3.18-2.1-4.1v-2.33c2.42,1.14,4.1,3.59,4.1,6.43,0,3.92-3.18,7.1-7.1,7.1Z" fill="#333d4b"/><g><path d="M23,14.573v2.322c1.267,.929,2.101,2.417,2.101,4.105,0,2.812-2.289,5.101-5.101,5.101s-5.101-2.289-5.101-5.101c0-1.688,.834-3.176,2.101-4.105v-2.322c-2.418,1.134-4.101,3.584-4.101,6.427,0,3.916,3.186,7.101,7.101,7.101s7.101-3.186,7.101-7.101c0-2.843-1.683-5.293-4.101-6.427Z" fill="#afb7c0"/><path d="M19,17.82c0,.552,.448,1,1,1s1-.448,1-1v-4.921c0-.552-.448-1-1-1s-1,.448-1,1v4.921Z" fill="#afb7c0"/></g></g></svg>