<svg id="Layer_1" data-name="Layer 1" xmlns="http://www.w3.org/2000/svg" viewBox="0 0 40 40"><defs><style>.cls-1{fill:#ff9000;}.cls-2{fill:#ffc84d;}.cls-3{fill:#5c2f17;}.cls-4{fill:#3d3d3d;}.cls-5{fill:none;}</style></defs><path class="cls-1" d="M8.547,13.507s-.441-4.851,1.9-5.879a2.243,2.243,0,0,1,2.085-.785,3.633,3.633,0,0,1,2.907,2.262,12.817,12.817,0,0,1,.5,4.165.626.626,0,0,1-.3.519,7,7,0,0,1-3.426.55C8.76,14.339,8.547,13.507,8.547,13.507Z"/><path class="cls-2" d="M13.309,9.992a4.007,4.007,0,0,1-2.36-1.338.065.065,0,0,0-.114.031A3.281,3.281,0,0,1,9.859,10.5a1.472,1.472,0,0,0-.248.265,1.185,1.185,0,0,0-.214.9,2.811,2.811,0,0,0,5.528.246C15.086,10.975,14.519,10.171,13.309,9.992Z"/><ellipse cx="11.333" cy="11.035" rx="0.315" ry="0.379"/><ellipse cx="12.999" cy="11.035" rx="0.315" ry="0.379"/><path class="cls-3" d="M12.559,12.7a.107.107,0,0,1,.1.136.513.513,0,0,1-.99,0,.107.107,0,0,1,.1-.136Z"/><path class="cls-1" d="M23.8,13.507s-.442-4.851,1.905-5.879a2.243,2.243,0,0,1,2.084-.785A3.63,3.63,0,0,1,30.7,9.105a12.811,12.811,0,0,1,.5,4.165.627.627,0,0,1-.3.519,7,7,0,0,1-3.426.55C24.015,14.339,23.8,13.507,23.8,13.507Z"/><path class="cls-2" d="M28.564,9.992A4.014,4.014,0,0,1,26.2,8.654a.064.064,0,0,0-.113.031,3.291,3.291,0,0,1-.977,1.813,1.472,1.472,0,0,0-.248.265,1.184,1.184,0,0,0-.213.9,2.811,2.811,0,0,0,5.527.246C30.341,10.975,29.773,10.171,28.564,9.992Z"/><ellipse cx="26.587" cy="11.035" rx="0.315" ry="0.379"/><ellipse cx="28.253" cy="11.035" rx="0.315" ry="0.379"/><path class="cls-3" d="M27.813,12.7a.107.107,0,0,1,.1.136.513.513,0,0,1-.99,0,.108.108,0,0,1,.1-.136Z"/><polygon class="cls-2" points="9.04 23.453 9.759 34.889 11.895 34.889 12.524 25.628 15.598 34.599 17.877 34.511 15.598 23.214 15.213 14.731 9.187 14.731 9.04 23.453"/><path class="cls-2" d="M9.452,23.362a1.036,1.036,0,0,1-.7-.269L5.506,20.15A1.7,1.7,0,0,1,5.543,17.6l2.95-2.513a1.04,1.04,0,1,1,1.349,1.582L7.222,18.9l2.928,2.652a1.04,1.04,0,0,1-.7,1.811Z"/><path class="cls-2" d="M14.9,23.362a1.04,1.04,0,0,1-.7-1.811L17.129,18.9,14.51,16.667a1.04,1.04,0,1,1,1.349-1.582L18.808,17.6a1.7,1.7,0,0,1,.04,2.552L15.6,23.093A1.04,1.04,0,0,1,14.9,23.362Zm2.56-4.182h0Z"/><rect class="cls-2" x="11.565" y="13.878" width="1.45" height="1.726"/><ellipse class="cls-4" cx="10.458" cy="5.353" rx="0.82" ry="2.44" transform="translate(-1.151 3.547) rotate(-18.263)"/><ellipse class="cls-4" cx="13.987" cy="5.353" rx="2.44" ry="0.82" transform="translate(4.52 16.958) rotate(-71.737)"/><path class="cls-4" d="M8.812,10.583A3.183,3.183,0,0,1,9.62,7.989a3.5,3.5,0,0,1,5.19,0,3.186,3.186,0,0,1,.808,2.6,3.5,3.5,0,0,0-3.4-3.062A3.5,3.5,0,0,0,8.812,10.583Z"/><path class="cls-4" d="M15.213,14.731h-1.1a1.9,1.9,0,0,1-1.945,1.584,1.9,1.9,0,0,1-1.944-1.584H9.187L9.04,23.453l3.484,2.175L15.6,23.214Z"/><path class="cls-4" d="M10.963,36.914H8.781a.769.769,0,0,1-.769-.769h0a1.426,1.426,0,0,1,.924-1.334l.8-.3h2.184l-.1,1.594A.862.862,0,0,1,10.963,36.914Z"/><path class="cls-4" d="M18.982,36.914a.769.769,0,0,0,.769-.769h0a1.426,1.426,0,0,0-.924-1.334l-.95-.3L15.6,34.6l.515,1.692a.97.97,0,0,0,.961.687Z"/><polygon class="cls-2" points="24.344 23.453 25.062 34.889 27.198 34.889 27.828 25.628 30.901 34.599 33.18 34.511 30.901 23.214 30.517 14.731 24.49 14.731 24.344 23.453"/><path class="cls-2" d="M24.755,23.362a1.035,1.035,0,0,1-.7-.269L20.809,20.15a1.7,1.7,0,0,1,.038-2.552l2.95-2.513a1.04,1.04,0,0,1,1.349,1.582L22.526,18.9l2.927,2.652a1.04,1.04,0,0,1-.7,1.811Z"/><path class="cls-2" d="M30.2,23.362a1.04,1.04,0,0,1-.7-1.811L32.433,18.9l-2.62-2.233a1.04,1.04,0,1,1,1.349-1.582l2.95,2.513a1.7,1.7,0,0,1,.04,2.552L30.9,23.093A1.038,1.038,0,0,1,30.2,23.362Zm2.56-4.182h0Z"/><rect class="cls-2" x="26.868" y="13.878" width="1.45" height="1.726"/><ellipse class="cls-4" cx="25.761" cy="5.353" rx="0.82" ry="2.44" transform="translate(-0.38 8.343) rotate(-18.263)"/><ellipse class="cls-4" cx="29.29" cy="5.353" rx="2.44" ry="0.82" transform="matrix(0.313, -0.95, 0.95, 0.313, 15.028, 31.491)"/><path class="cls-4" d="M24.115,10.583a3.187,3.187,0,0,1,.809-2.594,3.5,3.5,0,0,1,5.189,0,3.183,3.183,0,0,1,.808,2.6,3.422,3.422,0,0,0-6.806,0Z"/><path class="cls-4" d="M30.517,14.731h-1.1a1.985,1.985,0,0,1-3.888,0H24.49l-.146,8.722,3.484,2.175L30.9,23.214Z"/><path class="cls-4" d="M26.267,36.914H24.084a.769.769,0,0,1-.769-.769h0a1.426,1.426,0,0,1,.924-1.334l.8-.3h2.184l-.1,1.594A.861.861,0,0,1,26.267,36.914Z"/><path class="cls-4" d="M34.285,36.914a.769.769,0,0,0,.769-.769h0a1.426,1.426,0,0,0-.923-1.334l-.951-.3L30.9,34.6l.515,1.692a.971.971,0,0,0,.962.687Z"/><rect class="cls-5" width="40" height="40"/></svg>