<?xml version="1.0" encoding="UTF-8"?><svg id="Layer_1" xmlns="http://www.w3.org/2000/svg" viewBox="0 0 40 40"><g><path d="m32.756,36.843l-.539-2.189c-.21-.851-.486-1.693-.922-2.453-1.064-1.853-2.743-3.3-4.771-4.07l-4.213-1.601c-.533-.202-1.079-.352-1.63-.467l-2.184,3.157-2.185-3.159c-.554.115-1.103.265-1.638.469l-4.213,1.601c-2.028.77-3.707,2.217-4.771,4.07-.436.76-.713,1.602-.922,2.453l-.539,2.189c-.081.331.169.65.51.65h27.506c.341,0,.591-.32.51-.65Z" fill="#333"/><g><path d="m20.681,26.063l.005-.007s.01.003.014.003v-1.249c2.77-.68,5.04-2.63,6.17-5.19,2.02-.01,3.65-1.55,3.65-3.44,0-1.217-.68-2.272-1.694-2.883-.242-.046-.505.269-.818.445-.121.052-.245.089-.351.096-4.84.321-12.174-5.568-12.174-5.568l-5.789,6.478c-.121.136-.336.1-.424-.06-.584-1.061-1.183-1.181-1.417-1.182,0,0-.001,0-.002-.001-.836.629-1.38,1.588-1.38,2.675,0,1.89,1.63,3.43,3.64,3.44,1.13,2.57,3.42,4.52,6.2,5.2v1.239l.002.003,2.185,3.159,2.184-3.157Z" fill="#ffc84d"/><path d="m9.27,14.688c.088.159.302.195.424.06l5.789-6.478s7.334,5.89,12.174,5.568c.107-.007.23-.044.351-.096.313-.176.577-.491.818-.445.008.001.016-.004.023-.002.097-6.567-5.808-11.875-12.583-10.607-4.23.792-7.616,4.216-8.359,8.456-.134.764-.185,1.517-.162,2.251.002.058.047.107.105.109,0,0,.001.001.002.001.234.002.833.122,1.417,1.182Z" fill="#ff9000"/><g><ellipse cx="15.92" cy="15.479" rx=".975" ry="1.17"/><ellipse cx="21.066" cy="15.479" rx=".975" ry="1.17"/></g><path d="m17.942,20.698l-.983.128c-.006.044-.008.089.005.135.185.671.799,1.164,1.529,1.164s1.344-.493,1.529-1.164c.014-.049.013-.098.005-.145l-.908-.118c-.391-.051-.786-.051-1.177,0Z" fill="#5c2f17"/><path d="m21.844,19.94c-.772-.72-1.968-1.182-3.313-1.182s-2.542.462-3.313,1.182c-.406.379-.14,1.059.416,1.059l1.326-.173.983-.128c.391-.051.786-.051,1.177,0l.908.118,1.402.183c.555,0,.822-.681.416-1.059Z" fill="#ff9000"/></g><g><path d="m18.497,29.237l-3.858,3.548s1.154,3.217,3.865,3.217,3.851-3.217,3.851-3.217l-3.858-3.548Z" fill="#fff"/><path d="m18.497,29.237l-.007-.007.007-.01-2.187-3.162-.002-.003c-1.106.197-3.511,1.188-3.511,1.188l1.842,5.542,3.858-3.548Z" fill="#c4c4c4"/><path d="m18.497,29.22l-.007.01.007.007,3.858,3.548,1.842-5.542s-2.385-.982-3.497-1.184c-.004,0-.01-.003-.014-.003l-2.189,3.164Z" fill="#c4c4c4"/></g><g><path d="m35.31,31.17c-.85,1.6-2.52,2.38-3.74,1.73l-2.62-1.38-3.16,5.98h-2.21l3.64-6.9-3.45-1.82c.88.47,2.29-.45,3.13-2.05.85-1.6.82-3.27-.07-3.74l7.8,4.12c1.22.64,1.52,2.46.68,4.06Z" fill="#d16f00"/><path d="m26.905,26.734c.845-1.601.811-3.279-.077-3.747-.888-.469-2.292.449-3.138,2.05-.845,1.601-.811,3.279.077,3.747.888.469,2.292-.449,3.137-2.05Z" fill="#eba400"/></g></g><rect width="40" height="40" fill="none"/></svg>