<svg id="Layer_1" data-name="Layer 1" xmlns="http://www.w3.org/2000/svg" viewBox="0 0 40 40"><defs><style>.cls-1{fill:#e0decc;}.cls-2{fill:#956759;}.cls-3{fill:#eab894;}.cls-4{fill:#42ad41;}.cls-5{fill:#ff5543;}.cls-6{fill:#8e80ff;}.cls-7{fill:#ffd152;}.cls-8{fill:#ff7d7d;}.cls-9{fill:#333;}.cls-10{fill:#5c2f17;}.cls-11{fill:#262626;}.cls-12{fill:#d9d9d9;}.cls-13{fill:#5a81ff;}.cls-14{fill:#a3a3a3;}.cls-15{fill:#807e74;}.cls-16{fill:none;}</style></defs><path class="cls-1" d="M28.727,28.578l-4.015-1.525a10.24,10.24,0,0,0-7.277,0l-4.014,1.525A8.531,8.531,0,0,0,8,34.8L7.483,36.88a.5.5,0,0,0,.485.62H34.179a.5.5,0,0,0,.486-.62L34.152,34.8a8.531,8.531,0,0,0-5.425-6.217Z"/><path class="cls-2" d="M18.992,22.638h4.185a0,0,0,0,1,0,0V26.61A2.093,2.093,0,0,1,21.085,28.7h0a2.093,2.093,0,0,1-2.093-2.093V22.638a0,0,0,0,1,0,0Z"/><path class="cls-3" d="M3.728,37.494c-1.219-4.328-.338-8.409,2.5-10.05,3.684-2.127,9.268.649,12.472,6.2a16.874,16.874,0,0,1,1.637,3.85Z"/><circle class="cls-4" cx="6.424" cy="34.664" r="1.36"/><circle class="cls-5" cx="8.552" cy="30.228" r="1.36"/><circle class="cls-6" cx="13.336" cy="31.835" r="1.36"/><circle class="cls-7" cx="16.333" cy="35.273" r="1.36"/><path class="cls-8" d="M21.074,27.813a2.567,2.567,0,0,1-2.093-1.084V27.4a8.721,8.721,0,0,0,.923,2.635,1.294,1.294,0,0,0,2.34,0,8.721,8.721,0,0,0,.923-2.635v-.672A2.567,2.567,0,0,1,21.074,27.813Z"/><circle class="cls-2" cx="21.074" cy="16.944" r="8.727"/><ellipse class="cls-2" cx="13.109" cy="17.189" rx="3.494" ry="3.277"/><ellipse class="cls-2" cx="29.038" cy="17.189" rx="3.494" ry="3.277"/><path class="cls-9" d="M30.943,14.441a10.062,10.062,0,0,0-19.956-2.05,10.545,10.545,0,0,0-.154,2.145.106.106,0,0,0,.1.105c.223,0,.794.116,1.35,1.127a.249.249,0,0,0,.4.057l5.517-6.173s6.988,5.612,11.6,5.306a1.066,1.066,0,0,0,.335-.091C30.448,14.694,30.707,14.372,30.943,14.441Z"/><ellipse cx="18.622" cy="16.521" rx="0.929" ry="1.114"/><ellipse cx="23.526" cy="16.521" rx="0.929" ry="1.114"/><path class="cls-10" d="M22.229,21.127a.316.316,0,0,1,.3.4,1.512,1.512,0,0,1-2.914,0,.316.316,0,0,1,.3-.4Z"/><path class="cls-11" d="M11,13.351l19.023-2.93a.423.423,0,0,0,.307-.207,4.886,4.886,0,0,0,.161-4.625c-1.3-2.513-6.865-4.218-13.6-1.391a28.111,28.111,0,0,0-8.834,5.9,1.584,1.584,0,0,0,.4,2.534l.867.445A2.756,2.756,0,0,0,11,13.351Z"/><path class="cls-11" d="M18.718,2.487h0a.692.692,0,0,1,.692.692v1.2a0,0,0,0,1,0,0H18.026a0,0,0,0,1,0,0v-1.2A.692.692,0,0,1,18.718,2.487Z" transform="translate(-0.106 6.22) rotate(-18.815)"/><path class="cls-12" d="M36.723,23.488a1.916,1.916,0,0,1-3.62-1.257c.347-1,3.114-3.127,3.114-3.127S37.07,22.488,36.723,23.488Z"/><path class="cls-13" d="M36.686,21.453c-.172-1.171-.469-2.349-.469-2.349s-.963.74-1.824,1.553Z"/><polygon class="cls-14" points="30.501 37.5 35.241 24.702 33.535 24.109 29.188 37.5 30.501 37.5"/><circle class="cls-15" cx="21.074" cy="32.995" r="0.592"/><circle class="cls-15" cx="21.074" cy="35.864" r="0.592"/><path class="cls-9" d="M22.327,19.945a1.164,1.164,0,0,0-1.186.312.077.077,0,0,1-.112,0,1.165,1.165,0,0,0-1.186-.312c-.513.139-1.654,1.073-3.1.187a.078.078,0,0,0-.114.1c.295.669,1.4,2.484,4.425,1.333a.075.075,0,0,1,.055,0c3.022,1.151,4.131-.664,4.426-1.333a.078.078,0,0,0-.114-.1C23.981,21.018,22.84,20.084,22.327,19.945Z"/><rect class="cls-16" width="40" height="40"/></svg>