<?xml version="1.0" encoding="UTF-8"?><svg id="Layer_1" xmlns="http://www.w3.org/2000/svg" viewBox="0 0 40 40"><g><path d="M25.53015,19.77454c-9.33179-2.13403-11.50201-9.00623-11.50201-9.00623,.8078,7.66016-3.39734,9.95569-5.37329,10.6062-.60248,.19849-1.26593-.00916-1.62842-.52966-.28961-.41577-.60864-.99988-.83118-1.71472-.9696,.89026-1.57526,2.12683-1.57526,3.49988,0,2.29993,1.67999,4.22998,3.95001,4.7699,.03003,.08887,.06702,.17358,.09845,.26147,1.06854,2.99023,2.94629,5.49597,5.32581,7.15625,1.9812,1.38232,4.30511,2.18237,6.79572,2.18237,4.5282,0,8.5202-2.64062,10.87561-6.65674l-.00446,.00342c.01862-.03198,3.20087-8.43811-6.13098-10.57214Z" style="fill:#6e4944;"/><g><ellipse cx="17.10229" cy="21.63093" rx="1.39538" ry="1.67446"/><ellipse cx="24.46992" cy="21.63093" rx="1.39538" ry="1.67446"/></g><path d="M22.52341,29.90944c.31284,0,.53485,.30048,.45206,.60217-.26385,.96148-1.14411,1.66793-2.18937,1.66793s-1.92552-.70645-2.18937-1.66793c-.08279-.30169,.13922-.60217,.45206-.60217h3.4746Z" style="fill:#5c2f17;"/><g><path d="M11.32831,8.53564l-.2077-.46765c-.2113-.47583,.00317-1.03284,.479-1.24414l5.34027-2.37146c-1.09076-.71069-3.73792-2.07202-6.9422-1.13354-4.22028,1.23608-6.2804,5.43872-2.98419,12.77271L15.85889,6.58105c-1.65393,.50806-3.11267,1.24854-4.38,2.16687-.05536-.06604-.11383-.12952-.15057-.21228Z" style="fill:#ffe8b3;"/><path d="M8.66846,27.66138c-.47034,.90466-1.19318,2.04468-2.20282,2.98669-.71686,.66882-.61108,1.83997,.26648,2.27698,.61115,.30444,1.35455,.61426,2.20087,.85156-.24438,.29688-.52057,.58142-.84265,.83521,0,0,2.73328,1.09253,5.90393,.20581-2.37952-1.66028-4.25726-4.16602-5.32581-7.15625Z" style="fill:#ffe8b3;"/><path d="M35.30646,18.86084c-.31226-3.58862-1.81445-7.01099-4.44775-9.46899-1.8504-1.72705-4.47742-3.26013-8.07745-3.52466-1.40234-.10303-2.70587-.05933-3.93317,.08643-2.94049,.34937-5.38641,1.35742-7.3692,2.79431-2.41895,1.75281-4.15918,4.12769-5.26343,6.70435-.44409,1.45715-.32617,2.69495-.0202,3.67786,.22253,.71484,.54156,1.29895,.83118,1.71472,.36249,.52051,1.02594,.72815,1.62842,.52966,1.97595-.65051,6.18109-2.94604,5.37329-10.6062,0,0,2.17023,6.87219,11.50201,9.00623,9.33185,2.13403,6.1496,10.54016,6.13098,10.57214l.00446-.00342c.03613-.01318,4.34467-3.39319,3.64087-11.48242Z" style="fill:#ffe8b3;"/></g><path d="M18.85419,5.1936l-.2077-.46765c-.2113-.47583-.76831-.69031-1.24414-.47888l-.46246,.20532-5.34027,2.37146c-.47583,.2113-.69031,.76831-.479,1.24414l.2077,.46765c.03674,.08276,.09521,.14624,.15057,.21228,1.26733-.91833,2.72607-1.65881,4.38-2.16687,.93372-.28687,1.92816-.50146,2.9892-.62744,.1037-.23462,.11847-.50708,.0061-.76001Z" style="fill:#333;"/></g><rect width="40" height="40" style="fill:none;"/></svg>