<svg id="Layer_1" data-name="Layer 1" xmlns="http://www.w3.org/2000/svg" viewBox="0 0 40 40"><defs><style>.cls-1{fill:#ffd06c;}.cls-2{fill:#ef4452;}.cls-3{fill:#fa878f;}.cls-4{fill:#d12030;}.cls-5{fill:none;}</style></defs><ellipse class="cls-1" cx="20" cy="21.613" rx="22.691" ry="3.345" transform="translate(-8.868 15.803) rotate(-35.841)"/><path class="cls-1" d="M23.953,7.357a8.105,8.105,0,0,0-6.344-2.5h0A15.548,15.548,0,0,0,4.846,14.078h0a8.107,8.107,0,0,0,.378,6.807l3.694,7.591L30,13.25Z"/><polygon class="cls-2" points="22.631 14.711 20.038 14.751 20.283 30.541 22.845 28.482 25.47 30.46 25.225 14.67 22.631 14.711"/><polygon class="cls-2" points="21.596 15.459 22.449 13.009 37.362 18.205 34.602 19.99 35.655 23.104 20.742 17.908 21.596 15.459"/><path class="cls-3" d="M12.247,18.938A22.071,22.071,0,0,0,16.138,24.4a2.8,2.8,0,0,0,4.58-.8l2.172-4.916-3.3-4.568-5.273.84A2.784,2.784,0,0,0,12.247,18.938Z"/><path class="cls-3" d="M28.873,6.929a22.073,22.073,0,0,1,3.962,5.411,2.8,2.8,0,0,1-2.2,4.1l-5.35.517-3.3-4.568,2.454-4.741A2.784,2.784,0,0,1,28.873,6.929Z"/><rect class="cls-4" x="19.364" y="12.527" width="6.152" height="6.02" rx="2.189" transform="translate(-4.848 16.082) rotate(-35.841)"/><rect class="cls-5" width="40" height="40"/></svg>