<svg id="Layer_1" data-name="Layer 1" xmlns="http://www.w3.org/2000/svg" viewBox="0 0 40 40"><defs><style>.cls-1{fill:#956759;}.cls-2{fill:#5c2f17;}.cls-3{fill:#333;}.cls-4{fill:none;}</style></defs><ellipse class="cls-1" cx="20" cy="21.701" rx="13.304" ry="15.299"/><ellipse class="cls-1" cx="8.92" cy="22.424" rx="5.326" ry="4.995"/><ellipse class="cls-1" cx="31.08" cy="22.424" rx="5.326" ry="4.995"/><ellipse cx="16.262" cy="21.407" rx="1.416" ry="1.699"/><ellipse cx="23.738" cy="21.407" rx="1.416" ry="1.699"/><path class="cls-2" d="M21.763,29.806a.48.48,0,0,1,.458.611,2.3,2.3,0,0,1-4.442,0,.48.48,0,0,1,.458-.611Z"/><path class="cls-3" d="M4.947,19.1S4.01,8.312,11.741,6.4A12.289,12.289,0,0,1,22.975,3.284c7.067,1.45,10.872,7.007,11.537,10.208a22.785,22.785,0,0,1,.505,5.568l-2,1.57a1.388,1.388,0,0,1-1.795-.066,14.625,14.625,0,0,0-7.708-3.439,13.57,13.57,0,0,1-10.3-8.034s-2.516,8.1-4.939,11.187a1.237,1.237,0,0,1-1.771.154Z"/><rect class="cls-4" width="40" height="40"/></svg>