<svg id="Layer_1" data-name="Layer 1" xmlns="http://www.w3.org/2000/svg" xmlns:xlink="http://www.w3.org/1999/xlink" viewBox="0 0 40 40"><defs><style>.cls-1{fill:none;}.cls-2{fill:#1e6ef4;}.cls-3{fill:#082b9c;}.cls-4{fill:#0a37c7;}.cls-5{clip-path:url(#clip-path);}.cls-6{fill:#d0d5da;}.cls-7{fill:#e5e9ee;}.cls-8{fill:#afb7c0;}</style><clipPath id="clip-path"><path class="cls-1" d="M10.454,11.176a7.593,7.593,0,0,1,6.931,7.663v13.4H3.948a1.413,1.413,0,0,1-1.413-1.413V18.585A7.426,7.426,0,0,1,10.454,11.176Z"/></clipPath></defs><path class="cls-2" d="M26.881,9.69H9.96A8.461,8.461,0,0,0,1.5,18.151V31.539a2.169,2.169,0,0,0,2.17,2.17h29.5a2.169,2.169,0,0,0,2.169-2.17V18.151A8.461,8.461,0,0,0,26.881,9.69Z"/><path class="cls-3" d="M10.454,11.176a7.593,7.593,0,0,1,6.931,7.663v13.4H3.948a1.413,1.413,0,0,1-1.413-1.413V18.585A7.426,7.426,0,0,1,10.454,11.176Z"/><path class="cls-4" d="M37.229,23.642a.708.708,0,0,0,1.271-.429V18.257a.665.665,0,0,0-.665-.665H23.443a1.175,1.175,0,0,0-1.175,1.175h0a1.175,1.175,0,0,0,1.175,1.175H34.408Z"/><path class="cls-4" d="M16.2,33.709h5.338a0,0,0,0,1,0,0v2.759a.716.716,0,0,1-.716.716H16.914a.716.716,0,0,1-.716-.716V33.709A0,0,0,0,1,16.2,33.709Z"/><g class="cls-5"><path class="cls-6" d="M8.041,21.127v8.587A2.5,2.5,0,0,0,8.6,31.286l6.574-5.241Z"/><path class="cls-6" d="M26.73,21.127l-7.138,4.918,6.575,5.241a2.5,2.5,0,0,0,.563-1.572Z"/><path class="cls-7" d="M19.105,26.381a3.028,3.028,0,0,1-3.439,0l-.488-.336L8.6,31.286a2.51,2.51,0,0,0,1.963.954H24.2a2.512,2.512,0,0,0,1.963-.954l-6.575-5.241Z"/><path class="cls-8" d="M26.73,21.127l-7.625,6.355a2.759,2.759,0,0,1-3.439,0L8.041,21.127Z"/><path class="cls-7" d="M24.2,17.592H10.567a2.525,2.525,0,0,0-2.526,2.525v1.01l7.625,5.254a3.028,3.028,0,0,0,3.439,0l7.625-5.254v-1.01A2.525,2.525,0,0,0,24.2,17.592Z"/></g><rect class="cls-1" width="40" height="40"/></svg>