<svg xmlns="http://www.w3.org/2000/svg" viewBox="0 0 40 40"><defs><style>.cls-1{isolation:isolate;}.cls-2{fill:#333;}.cls-3{fill:#956759;}.cls-4{fill:#5c2f17;}.cls-5{fill:#c2bfbe;}.cls-6{fill:#d6d3d2;}.cls-7{fill:#aba8a8;}.cls-8{fill:#d6c9c0;mix-blend-mode:multiply;}.cls-9{fill:none;}</style></defs><g class="cls-1"><g id="Layer_1" data-name="Layer 1"><path class="cls-2" d="M5.139,27.994l1.477,5.93a2.462,2.462,0,0,0,2.39,1.868H30.932a2.464,2.464,0,0,0,2.434-2.079l.9-5.719Z"/><circle class="cls-3" cx="20" cy="24.007" r="12.978"/><ellipse class="cls-3" cx="8.155" cy="24.371" rx="5.196" ry="4.873"/><ellipse class="cls-3" cx="31.845" cy="24.371" rx="5.196" ry="4.873"/><path class="cls-2" d="M34.677,20.285A14.96,14.96,0,0,0,4.831,18.491a15.328,15.328,0,0,0-.055,2.1s1.269-.3,2.4,2.147l8.561-9.579s10.393,8.347,17.253,7.891a1.581,1.581,0,0,0,.5-.136C33.941,20.66,34.326,20.183,34.677,20.285Z"/><ellipse cx="16.354" cy="23.379" rx="1.381" ry="1.657"/><ellipse cx="23.646" cy="23.379" rx="1.381" ry="1.657"/><path class="cls-4" d="M21.718,29.914a.47.47,0,0,1,.449.6,2.248,2.248,0,0,1-4.334,0,.47.47,0,0,1,.449-.6Z"/><path class="cls-5" d="M4.308,18.348a15.333,15.333,0,1,1,30.524,2.093,2.079,2.079,0,0,1-2.784,1.643L19.641,17.513Z"/><path class="cls-6" d="M24.611,3.8C20.117,4.708,12.6,7.364,4.657,15.045a15.354,15.354,0,0,0-.347,3.224,15.041,15.041,0,0,0,.327,3.111,2.081,2.081,0,0,0,2.8,1.486L33.808,12.485A15.346,15.346,0,0,0,24.611,3.8Z"/><polygon class="cls-7" points="20.362 17.778 22.639 18.617 33.808 12.485 20.362 17.778"/><path class="cls-8" d="M7.437,22.866H8.924a4.793,4.793,0,0,0,1.959-.419l10.389-4.333-.91-.336Z"/><rect class="cls-9" width="40" height="40"/></g></g></svg>