<?xml version="1.0" encoding="UTF-8"?><svg id="Layer_1" xmlns="http://www.w3.org/2000/svg" viewBox="0 0 40 40"><g><path d="M32.42462,13.60962c.14288-.5835-.15533-1.18506-.70624-1.42456-.79193-.34424-1.16309-1.66687-.79669-2.44885,.70575-1.5061,2.25146-1.31213,4.27637-.38586l.00653,.00269s.9834-3.30652-2.71033-3.72168c0,0-1.4563-2.34619-3.68115-1.90112-2.22491,.44495-2.99353,2.78333-2.99353,2.78333,0,0-2.21777-.41174-3.44983,1.38403-1.0799,1.57385-.63586,3.47815-.63586,3.47815,0,0-2.65747-2.12073-5.77478,.11572,0,0-2.55261-2.82373-5.72424-.11572,0,0-5.32434-1.39783-5.66089,3.48145,0,0-3.70465,1.76196-1.21136,5.84351,0,0-2.35773,3.82483,1.32434,6.03857,0,0-.61774,3.43457,2.11615,4.81519,.49786,.25146,1.09363,.44275,1.83887,.52417,.4939,.05383,.94495,.04224,1.36304-.00732,.36823-.0437,.70697-.11938,1.01703-.21912,1.70392-.54773,2.5379-1.76453,2.5379-1.76453,0,0,.24963,.18689,.664,.43091,1.32214,.77832,4.40265,2.15332,7.09436,.16113,.16815-.12439,.33667-.24695,.50122-.3988,0,0,.99286,.8175,2.70062,1.10144,.24078,.04004,.49493,.06433,.76422,.07886,.55139,.02966,1.14526,.01489,1.80713-.11206,.5105-.09778,.94952-.28369,1.33789-.52893,2.10455-1.32898,2.52319-4.63074,2.33112-7.93494,0,0,3.76801-2.37976,1.862-7.02832-.09125-.22266-.15472-.453-.20428-.68604-.10938-.5144-.11993-1.04517,.00641-1.56128Zm-3.54608-3.18042l-2.19092-.20996c-.79059-.07568-1.17365-1.00562-.66571-1.61621l.96777-1.16357c.31805-.3822,.87054-.46875,1.29022-.20215l1.3891,.88269c.38446,.24426,.55225,.7196,.40631,1.15125l-.16595,.4906c-.14709,.43469-.57397,.71106-1.03082,.66736Z" style="fill:#edd395;"/><g><path d="M25.28436,31.46118l1.10974,3.99658c.17511,.63049,.82825,.99976,1.45886,.82471l.80151-.22266c.63062-.17505,.99988-.82812,.82477-1.45874l-1.04987-3.78088c-.38837,.24524-.82739,.43115-1.33789,.52893-.66187,.12695-1.25574,.14172-1.80713,.11206Z" style="fill:#c3846c;"/><path d="M21.3183,30.67969v4.4585c0,.65442,.53052,1.18506,1.185,1.18506h.83185c.65448,0,1.185-.53064,1.185-1.18506v-3.75586c-1.70776-.28394-2.70062-1.10144-2.70062-1.10144-.16455,.15186-.33307,.27441-.50122,.3988Z" style="fill:#c3846c;"/><path d="M11.02203,31.85217v3.28601c0,.65442,.53058,1.18506,1.18506,1.18506h.83179c.65448,0,1.18506-.53064,1.18506-1.18506v-4.61963c-.41437-.24402-.664-.43091-.664-.43091,0,0-.83398,1.2168-2.5379,1.76453Z" style="fill:#c3846c;"/><path d="M8.64197,32.07861c-.74524-.08142-1.341-.27271-1.83887-.52417v3.58374c0,.65442,.53058,1.18506,1.18506,1.18506h.83179c.65448,0,1.18506-.53064,1.18506-1.18506v-3.06689c-.41809,.04956-.86914,.06116-1.36304,.00732Z" style="fill:#c3846c;"/><path d="M36.94519,11.25781l-1.74713-1.90747c-2.0249-.92627-3.57062-1.12024-4.27637,.38586-.36639,.78198,.00476,2.10461,.79669,2.44885,.5509,.2395,.84912,.84106,.70624,1.42456-.12634,.51611-.11578,1.04688-.00641,1.56128l4.03839-.25439c.5213-.03284,.93683-.448,.97015-.96924l.06866-1.0741c.03772-.58997-.16016-1.17102-.55023-1.61536Zm-3.58356,.34595c-.51575,0-.93378-.41809-.93378-.93384,0-.51562,.41803-.93372,.93378-.93372,.51569,0,.93372,.41809,.93372,.93372,0,.51575-.41803,.93384-.93372,.93384Z" style="fill:#c3846c;"/><path d="M29.90936,9.76184l.16595-.4906c.14594-.43164-.02185-.90698-.40631-1.15125l-1.3891-.88269c-.41968-.2666-.97217-.18005-1.29022,.20215l-.96777,1.16357c-.50793,.6106-.12488,1.54053,.66571,1.61621l2.19092,.20996c.45685,.0437,.88373-.23267,1.03082-.66736Z" style="fill:#c3846c;"/></g><path d="M33.36163,9.73621c-.51575,0-.93378,.41809-.93378,.93372,0,.51575,.41803,.93384,.93378,.93384,.51569,0,.93372-.41809,.93372-.93384,0-.51562-.41803-.93372-.93372-.93372Z"/></g><rect width="40" height="40" style="fill:none;"/></svg>