<svg id="Layer_1" data-name="Layer 1" xmlns="http://www.w3.org/2000/svg" viewBox="0 0 40 40"><defs><style>.cls-1{fill:#176b73;}.cls-2{fill:#12555c;}.cls-3{fill:#65778e;}.cls-4{fill:#ffb134;}.cls-5{fill:#191f28;}.cls-6{fill:#ec6700;}.cls-7{fill:none;}</style></defs><path class="cls-1" d="M12.108,17.765,7.8,19.717a1.309,1.309,0,0,0-.653,1.733l1.07,2.364a1.311,1.311,0,0,1-.352,1.544L6.005,26.915A1.309,1.309,0,0,0,5.7,28.55L7.41,31.662a1.309,1.309,0,0,1-.145,1.475L4.434,36.5H9.3Z"/><path class="cls-2" d="M18.032,10.839S7.385,17.332,8.572,36.5h11.84s-4.5-13.284,2.857-20.212Z"/><path class="cls-3" d="M15.356,10.549A1.154,1.154,0,0,1,13.5,11.662L8.37,7.494l-3.493.67A1.154,1.154,0,0,1,4.442,5.9l4.022-.771a1.154,1.154,0,0,1,.945.238L14.95,9.872A1.149,1.149,0,0,1,15.356,10.549Z"/><path class="cls-3" d="M11.826,7.909a1.148,1.148,0,0,1-.223.927l-1.943,2.5A1.153,1.153,0,1,1,7.84,9.915l1.943-2.5a1.154,1.154,0,0,1,2.043.491Z"/><path class="cls-1" d="M11.952,20.175l2.576-1.324A3.674,3.674,0,0,1,9.9,17.28a.36.36,0,0,1,.328-.559,3.786,3.786,0,0,0,3.044-1.233,3.569,3.569,0,0,1-4.284-.858.361.361,0,0,1,.1-.57l4.2-2.157a.363.363,0,0,0,.118-.549L12.224,9.867a.363.363,0,0,1,.185-.575l2.362-.669a.363.363,0,0,0,.21-.539l-.838-1.359a.366.366,0,0,1,.189-.537,6.356,6.356,0,0,1,6.744,1.858.356.356,0,0,1,.053.406l-1.212,2.393a.35.35,0,0,0-.024.269l.1,5.626,10.334-3.862-3.339,7.313a.286.286,0,0,1-.514.012l-1.108-2.157-1.777,3.892a.286.286,0,0,1-.514.012l-.528-1.027-3.769,3.9a.361.361,0,0,1-.508-.261l-.336-1.738a.366.366,0,0,0-.509-.259,4.264,4.264,0,0,1-5.614-1.878A.361.361,0,0,1,11.952,20.175Z"/><path class="cls-4" d="M26.508,9.361l-.273,1.68a.3.3,0,0,1-.42.224l-1.592-.73Z"/><path class="cls-4" d="M24.236,13.371l.273-1.68a.3.3,0,0,1,.42-.224l1.592.73Z"/><path class="cls-4" d="M18.879,9.031l1.147-.589,8.015-4.119.889,1.729a1.836,1.836,0,0,1-.794,2.472l-6.115,3.142a1.265,1.265,0,0,0-.547,1.7h0a1.265,1.265,0,0,0,1.7.547l6.612-3.4a.873.873,0,0,1,1.17.367,1.477,1.477,0,0,1-.636,1.993l-8.261,4.245a4.326,4.326,0,0,1-5.825-1.871h0a4.327,4.327,0,0,1,1.871-5.825Z"/><circle class="cls-4" cx="17.982" cy="9.268" r="2.118"/><circle class="cls-5" cx="18.045" cy="9.223" r="1.321"/><path class="cls-6" d="M25.346,5.708a1.515,1.515,0,0,1,2.7-1.385Z"/><path class="cls-2" d="M26.345,30.316A11.425,11.425,0,0,0,16.2,36.5h20.3A11.423,11.423,0,0,0,26.345,30.316Z"/><rect class="cls-7" width="40" height="40"/></svg>