<?xml version="1.0" encoding="UTF-8"?><svg id="Layer_1" xmlns="http://www.w3.org/2000/svg" viewBox="0 0 40 40"><path d="m35.714,19.556c-.383,0-1.461.199-2.363,2.267,0,0-1.66-1.022-3.864-2.587-3.347-2.368-7.845-5.984-9.488-9.183-1.643,3.199-6.141,6.815-9.488,9.183-2.203,1.565-3.864,2.587-3.864,2.587-.941-2.094-1.98-2.267-2.363-2.267-1.245.957-2.044,2.363-2.044,3.959,0,2.809,2.427,5.076,5.396,5.076.128.256.255.479.383.735.703,1.309,1.533,2.49,2.586,3.512.671.67,1.405,1.214,2.203,1.724,2.076,1.309,4.534,2.107,7.184,2.107.002,0,.003,0,.005,0s.003,0,.005,0c2.65,0,5.109-.798,7.184-2.107.798-.51,1.533-1.054,2.203-1.724,1.054-1.022,1.884-2.203,2.586-3.512.128-.256.255-.479.383-.735,2.969,0,5.396-2.267,5.396-5.076,0-1.597-.798-3.002-2.044-3.959Zm-15.709,12.069s-.003,0-.005,0-.003,0-.005,0c-1.086,0-1.98-.702-2.267-1.692-.064-.32.16-.639.479-.639h3.586c.319,0,.543.32.479.639-.287.99-1.181,1.692-2.267,1.692Z" fill="#956759"/><g><path d="m10.608,32.839l-.702,2.171c-.16.511-.607.83-1.086.926-.351.064-.734.032-1.054-.192l-2.714-1.788c-.83-.543-.862-1.756-.064-2.331l3.033-2.298c.703,1.309,1.533,2.49,2.586,3.512Z" fill="#333"/><path d="m35.226,33.956l-2.746,1.788c-.766.511-1.852.16-2.139-.734l-.735-2.331c.99-1.021,1.788-2.203,2.427-3.48l3.257,2.426c.766.575.734,1.788-.064,2.331Z" fill="#333"/><path d="m17.632,22.493c0,.958-.639,1.724-1.437,1.724s-1.437-.766-1.437-1.724.638-1.724,1.437-1.724,1.437.766,1.437,1.724Z"/><path d="m25.232,22.493c0,.958-.639,1.724-1.437,1.724s-1.437-.766-1.437-1.724.638-1.724,1.437-1.724,1.437.766,1.437,1.724Z"/><path d="m22.262,29.933c-.287.99-1.181,1.692-2.267,1.692s-1.98-.702-2.267-1.692c-.064-.32.16-.639.479-.639h3.576c.319,0,.575.32.479.639Z" fill="#653717"/></g><path d="m35.8,17.384c-.543-5.843-4.406-10.792-9.675-12.931-.575-.256-1.213-.384-1.82-.479-.926-.128-1.82-.191-2.746-.064l-.703.096c-.255.032-.521.097-.862.097s-.607-.066-.862-.097l-.703-.096c-.926-.127-1.82-.064-2.746.064-.607.096-1.245.224-1.82.479-5.268,2.139-9.132,7.088-9.675,12.931-.064.734,0,2.172.096,2.172.383,0,1.405.223,2.363,2.267,0,0,1.66-1.022,3.864-2.587,3.344-2.366,7.836-5.978,9.483-9.174,1.647,3.197,6.139,6.808,9.483,9.174,2.203,1.565,3.864,2.587,3.864,2.587.958-2.044,1.98-2.267,2.363-2.267.096,0,.16-1.438.096-2.172Z" fill="#333"/></svg>