<svg id="Layer_1" data-name="Layer 1" xmlns="http://www.w3.org/2000/svg" viewBox="0 0 40 40"><defs><style>.cls-1{fill:#ffcca8;}.cls-2{fill:#5c2f17;}.cls-3{fill:#d9d9d9;}.cls-4{fill:none;}</style></defs><ellipse class="cls-1" cx="20" cy="20.578" rx="14.191" ry="16.319"/><ellipse class="cls-1" cx="8.181" cy="21.349" rx="5.681" ry="5.328"/><ellipse class="cls-1" cx="31.819" cy="21.349" rx="5.681" ry="5.328"/><path class="cls-2" d="M21.879,29.538a.513.513,0,0,1,.49.653,2.458,2.458,0,0,1-4.738,0,.513.513,0,0,1,.49-.653Z"/><path class="cls-3" d="M20,26.459a9.385,9.385,0,0,0-6.367,2.271,1.175,1.175,0,0,0,.8,2.036l4.438-.578a8.739,8.739,0,0,1,2.262,0l4.438.578a1.175,1.175,0,0,0,.8-2.036A9.385,9.385,0,0,0,20,26.459Z"/><ellipse class="cls-1" cx="20" cy="11.227" rx="12.29" ry="8.124"/><path class="cls-3" d="M6.238,20.963a.317.317,0,0,1-.59-.012l-1.3-3.525s-1.225-3.406-.26-6.191A4.6,4.6,0,0,1,7.36,8.327q.274-.068.6-.131a.882.882,0,0,1,1.056.858v4.7a1.579,1.579,0,0,1-.4,1.045l-.832.946a5.038,5.038,0,0,0-1.213,2.674Z"/><path class="cls-3" d="M33.391,20.963a.317.317,0,0,0,.59-.012l1.3-3.525s1.225-3.406.259-6.191A4.6,4.6,0,0,0,32.27,8.327Q32,8.26,31.672,8.2a.882.882,0,0,0-1.056.858v4.7a1.583,1.583,0,0,0,.395,1.045l.832.946a5.039,5.039,0,0,1,1.214,2.674Z"/><ellipse cx="16.013" cy="20.264" rx="1.51" ry="1.812"/><ellipse cx="23.987" cy="20.264" rx="1.51" ry="1.812"/><rect class="cls-4" width="40" height="40"/></svg>