<?xml version="1.0" encoding="UTF-8"?><svg id="Layer_1" xmlns="http://www.w3.org/2000/svg" viewBox="0 0 40 40"><g><g><ellipse cx="20" cy="21.56615" rx="13.4089" ry="15.42005" style="fill:#ffb582;"/><g><ellipse cx="8.83185" cy="22.29454" rx="5.36789" ry="5.03461" style="fill:#ffb582;"/><ellipse cx="31.16815" cy="22.29454" rx="5.36789" ry="5.03461" style="fill:#ffb582;"/></g><g><ellipse cx="16.23284" cy="21.26941" rx="1.42695" ry="1.71234"/><ellipse cx="23.76716" cy="21.26941" rx="1.42695" ry="1.71234"/></g></g><path d="M33.23463,20.94708l1.92928-1.74603s.15977-2.38591-.50989-5.61243S30.14907,4.76132,23.02635,3.30025c-7.12271-1.46107-11.32329,3.14258-11.32329,3.14258-7.79237,1.92503-6.84768,12.79605-6.84768,12.79605l1.57649,1.34506c.53407,.45567,1.35172,.39669,1.78495-.15574,2.44217-3.11413,4.97828-11.27519,4.97828-11.27519,0,0,1.7659,5.38844,10.90737,5.27124,6.72652-.08624,7.95367,3.97918,8.1326,6.13317,.04108,.49451,.63163,.72264,.99955,.38967Z" style="fill:#e86c00;"/><g><path d="M18.93127,30.64624l-1.11499,.14526c.3158,.90698,1.16919,1.56189,2.18372,1.56189s1.86792-.65491,2.18372-1.56189l-1.11499-.14526c-.70947-.09253-1.42798-.09253-2.13745,0Z" style="fill:#5c2f17;"/><path d="M26.01654,29.26917c-1.40155-1.30676-3.57416-2.14624-6.01654-2.14624s-4.61499,.83948-6.01654,2.14624c-.73737,.68762-.25366,1.92346,.75452,1.92346l3.07831-.40112,1.11499-.14526c.70947-.09253,1.42798-.09253,2.13745,0l1.11499,.14526,3.07831,.40112c1.00818,0,1.49188-1.23584,.75452-1.92346Z" style="fill:#e86c00;"/></g></g><rect width="40" height="40" style="fill:none;"/></svg>