<?xml version="1.0" encoding="UTF-8"?><svg id="Layer_1" xmlns="http://www.w3.org/2000/svg" viewBox="0 0 40 40"><g><g><path d="M33.11041,34.78784c-.15503-.62988-.35071-1.25317-.62378-1.84021l-2.25787,4.55176H9.77124l-2.25793-4.55176c-.27307,.5871-.46875,1.21027-.62372,1.84027l-.51447,2.0907c-.07782,.3161,.16144,.6214,.487,.6214h26.27576c.32556,0,.56482-.3053,.487-.6214l-.51447-2.09076Z" style="fill:#956759;"/><path d="M20,37.49939h10.22876l2.25787-4.55176,1.07263-2.16229c.18866-.38031,.02155-.84113-.367-1.01215l-3.09601-1.36249c-4.69104,1.81549-8.10809,4.35712-9.42914,5.4303-.35254,.28638-.85144,.28638-1.20398,0-1.32751-1.07849-4.76947-3.64093-9.49622-5.45813l-3.15918,1.39032c-.38855,.17102-.55566,.63184-.367,1.01215l1.07257,2.16229,2.25793,4.55176h10.22876Z" style="fill:#6453e4;"/><path d="M19.46313,33.841c.35254,.28638,.85144,.28638,1.20398,0,1.32104-1.07318,4.7381-3.61481,9.42914-5.4303,.03864-.01495,.07355-.0318,.11237-.04663,.39679-.15186,.50885-.65771,.19775-.94708-1.42651-1.32672-5.16058-4.25378-10.34125-4.25378s-8.91479,2.927-10.34131,4.25378c-.3111,.28937-.19904,.79517,.19775,.94708,.01569,.00598,.02972,.01282,.04535,.0188,4.72675,1.8172,8.1687,4.37964,9.49622,5.45813Z" style="fill:#b1b3fb;"/></g><path d="M20.65929,32.39191c-.23207,.51158-.95632,.51158-1.18839,0-.62026-1.36731-1.50356-3.44648-1.50356-4.19826v-3.98212h4.1955v3.98212c0,.75179-.8833,2.83095-1.50355,4.19826Z" style="fill:#2f365e;"/><path d="M26.17694,21.20959c2.59863-3.20325-.43793-8.03595-.43793-8.03595l-.17346,2.60181c-1.38763-2.57288-4.82776-4.97229-4.82776-4.97229l.11566,1.61884-5.66144-4.62299-.0083,.00507-1.29773,6.99164-1.54242-1.11725-.83606,4.28802c.76471,2.31146,2.46436,4.19196,4.65479,5.19672,.57312,.26288,1.17584,.47241,1.80768,.60675v2.82001c0,1.16003,.94,2.10004,2.10004,2.10004,1.14996,0,2.08997-.94,2.08997-2.10004v-2.94c.45557-.12714,.89587-.29089,1.3183-.48676,1.02271-.47406,1.93549-1.1427,2.69867-1.95361Z" style="fill:#956759;"/><path d="M20.97049,19.20066c.20923,0,.35787,.20101,.30236,.40274-.17637,.64101-.76344,1.11187-1.46049,1.11187s-1.28412-.47087-1.46049-1.11187c-.05551-.20174,.09313-.40274,.30236-.40274h2.31625Z" style="fill:#5c2f17;"/><g><path d="M20.39795,12.05005l-2.68817-2.19507-4.10602,6.63672c-.09338,.151,.01514,.34589,.19269,.34589h1.48297c.08246,0,.13287,.09052,.08954,.16052l-2.31879,3.74799c.05414,.0661,.10529,.1347,.16132,.19916,.06812,.07837,.13824,.15479,.20911,.23065,.13025,.13953,.26447,.27521,.40356,.40594,.07605,.07141,.15363,.14105,.23218,.20978,.14227,.12445,.28839,.24438,.4386,.35956,.08484,.065,.17084,.1283,.25806,.19025,.15442,.10962,.31268,.21429,.47437,.3139,.0882,.05444,.17725,.10748,.26746,.15887,.07947,.04517,.16241,.08459,.24341,.12726l4.56384-7.37671c.09338-.151-.01514-.34583-.19269-.34583h-1.48309c-.0824,0-.13281-.09052-.08948-.16064l1.86115-3.00824Zm-3.04346,3.86285c-.51416,0-.93097-.50018-.93097-1.11719s.41681-1.11725,.93097-1.11725c.51422,0,.93103,.50024,.93103,1.11725s-.41681,1.11719-.93103,1.11719Z" style="fill:#ff7d7d;"/><path d="M20.78247,11.42853l.25275-.40851c-.18536-.13818-.29742-.21686-.29742-.21686l.04468,.62537Z" style="fill:#ff7d7d;"/></g><g><path d="M17.35449,13.67847c-.51416,0-.93097,.50024-.93097,1.11725s.41681,1.11719,.93097,1.11719c.51422,0,.93103-.50018,.93103-1.11719s-.41681-1.11725-.93103-1.11725Z"/><path d="M22.2702,13.67847c-.51416,0-.93097,.50024-.93097,1.11725s.41681,1.11719,.93097,1.11719c.51422,0,.93103-.50018,.93103-1.11719s-.41681-1.11725-.93103-1.11725Z"/></g><path d="M30.34003,17.90997l-1.03003,3.85999c-.21997,.82001-.96002,1.39001-1.81,1.39001h-4.02002c1.02002-.46997,1.92999-1.14001,2.70001-1.95001,2.60004-3.19995-.44-8.03998-.44-8.03998l-.16998,2.60999c-1.15002-2.12-3.66998-4.12-4.53003-4.76001-.19-.13995-.29999-.21997-.29999-.21997l.04004,.63,.06995,.98999-.44995-.37-2.69-2.20001-2.52002-2.04999h-.01001l-1.28998,7-1.54999-1.12-.83002,4.28998c.33997,1.02002,.87,1.96002,1.53998,2.78003,.04999,.06,.10999,.13,.16003,.20001,.07001,.06995,.13995,.14996,.20996,.22998,.13,.14001,.27002,.27002,.40002,.39996l.23999,.21002c.14001,.13,.28003,.25,.42999,.35999,.09003,.07001,.17999,.13,.26001,.19,.15997,.11005,.32001,.22003,.47998,.32001,.09003,.04999,.17004,.10004,.26001,.15002,.08002,.04999,.16998,.08997,.25,.13,.14001,.07996,.28003,.15997,.41998,.21997h-3.75995c-.76001,0-1.43005-.51996-1.61005-1.26001,0,0-.53998-1.66998-.95996-3.84998l-.04004-.14001h.01001c-.33002-1.76001-.57001-3.81-.41998-5.59998,.01001-.09003,.01001-.16998,.02002-.25,0-.07001,.00995-.13,.01996-.19,.40002-4.20001,3.67999-5.72998,3.67999-5.72998,0,0,.12-2.91003,4.25-3.52002,5.90002-.87,10.76001,3.09998,12.41003,7.02997,1.64996,3.92999,.58002,8.26001,.58002,8.26001Z" style="fill:#b1b3fb;"/></g><rect width="40" height="40" style="fill:none;"/></svg>