<?xml version="1.0" encoding="UTF-8"?><svg id="a" xmlns="http://www.w3.org/2000/svg" viewBox="0 0 40 40"><g><path d="M31.744,5.623H10.386c-.845,0-1.646,.356-2.193,.946-.014,.015-.026,.032-.039,.047-.086,.097-.165,.199-.236,.307-.066,.104-.124,.213-.177,.326-.017,.035-.038,.068-.053,.104-.084,.201-.137,.416-.172,.637-.026,.169-.042,.337-.039,.5,.002,.076,.015,.149,.023,.223,.013,.126,.027,.252,.056,.373,.019,.078,.046,.152,.07,.227,.037,.111,.076,.22,.126,.324,.035,.073,.074,.142,.115,.211,.057,.097,.119,.191,.187,.281,.048,.063,.099,.125,.152,.185,.076,.083,.158,.161,.243,.235,.059,.052,.118,.103,.181,.15,.094,.069,.196,.128,.298,.185,.066,.036,.129,.076,.198,.108,.118,.053,.243,.092,.369,.129,.062,.018,.122,.044,.186,.058,.194,.042,.394,.068,.6,.068H31.744c.992,0,1.796,.804,1.796,1.796V7.419c0-.992-.804-1.796-1.796-1.796Z" fill="#e5e8eb"/><path d="M10.458,13.04c-2.628,0-4.759-2.131-4.759-4.759V31.719c0,2.448,1.984,4.431,4.431,4.431H31.744c.992,0,1.796-.804,1.796-1.796V13.04H10.458Z" fill="#ef4452"/><path d="M7.52,7.99c-.03,.17-.05,.34-.04,.5,0,.08,.01,.15,.02,.22,.01,.13,.03,.25,.06,.38,.01,.07,.04,.15,.07,.22,.03,.11,.07,.22,.12,.33l.12,.21c.05,.1,.12,.19,.18,.28,.05,.06,.1,.12,.16,.18,.07,.09,.15,.16,.24,.24l.18,.15c.09,.07,.2,.13,.3,.18,.07,.04,.13,.08,.2,.11,.12,.05,.24,.09,.37,.13l.18,.06c.2,.04,.4,.06,.6,.06H31.74c1,0,1.8,.81,1.8,1.8H10.46c-2.63,0-4.76-2.13-4.76-4.76,0-2.45,1.98-4.43,4.43-4.43H31.77c.98,0,1.77,.79,1.77,1.77v1.8c0-.99-.8-1.8-1.8-1.8H10.39c-.85,0-1.65,.36-2.2,.95-.01,.01-.02,.03-.04,.05-.08,.09-.16,.2-.23,.3-.07,.11-.12,.22-.18,.33-.02,.03-.04,.07-.05,.1-.07,.17-.13,.34-.16,.53-.01,.03-.01,.07-.01,.11Z" fill="#bb1b2a"/></g><rect y="0" width="40" height="40" transform="translate(0 40) rotate(-90)" fill="none"/></svg>