<?xml version="1.0" encoding="UTF-8"?><svg id="Layer_1" xmlns="http://www.w3.org/2000/svg" viewBox="0 0 40 40"><rect x="0" width="40" height="40" style="fill:none;"/><g><path d="M33.7029,16.06936l-.02304-.45629c-.15386-3.04831-1.92949-5.60303-4.55417-6.55248h-.00003c-2.67203-.96659-5.72702-.09049-7.79435,2.2353l-.27486,.30919c-2.78994,3.13871-1.32354,6.62746,2.28245,7.93189l3.5399,1.28052c3.64772,1.31952,7.03794-.51171,6.8241-4.74813Z" style="fill:#5e403b;"/><g><ellipse cx="36.57126" cy="12.07485" rx="2.34425" ry="2.18651" transform="translate(12.7762 42.35774) rotate(-70.11303)" style="fill:#5e403b;"/><ellipse cx="21.47462" cy="6.61382" rx="2.34425" ry="2.18651" transform="translate(7.95028 24.55801) rotate(-70.11303)" style="fill:#5e403b;"/><ellipse cx="27.3799" cy="4.75136" rx="2.52499" ry="2.32999" transform="translate(13.59818 28.88222) rotate(-70.11303)" style="fill:#5e403b;"/><ellipse cx="33.22407" cy="6.86542" rx="2.52499" ry="2.32999" transform="translate(15.46638 35.77281) rotate(-70.11303)" style="fill:#5e403b;"/></g></g><g><path d="M6.47893,31.92818l.02304-.45629c.15386-3.04831,1.92949-5.60303,4.55417-6.55248h.00003c2.67203-.96659,5.72702-.09049,7.79435,2.2353l.27486,.30919c2.78994,3.13871,1.32354,6.62746-2.28245,7.93189l-3.5399,1.28052c-3.64772,1.31952-7.03794-.51171-6.8241-4.74813Z" style="fill:#5e403b;"/><g><ellipse cx="3.61057" cy="27.93367" rx="2.18651" ry="2.34425" transform="translate(-9.28676 2.894) rotate(-19.88697)" style="fill:#5e403b;"/><ellipse cx="18.70721" cy="22.47264" rx="2.18651" ry="2.34425" transform="translate(-6.52883 7.7037) rotate(-19.88697)" style="fill:#5e403b;"/><ellipse cx="12.80193" cy="20.61018" rx="2.32999" ry="2.52499" transform="translate(-6.24744 5.58386) rotate(-19.88697)" style="fill:#5e403b;"/><ellipse cx="6.95775" cy="22.72424" rx="2.32999" ry="2.52499" transform="translate(-7.31508 3.72194) rotate(-19.88697)" style="fill:#5e403b;"/></g></g></svg>