<?xml version="1.0" encoding="UTF-8"?><svg id="Layer_1" xmlns="http://www.w3.org/2000/svg" viewBox="0 0 40 40"><g><path d="m14.956,12.596c-.099-.577.039-1.174.388-1.644.238-.319.45-.482.45-.482,1.266-1.129,1.664-2.686,1.776-3.298.018-.099.141-.132.207-.056.481.56,1.983,2.09,4.293,2.433,2.2.327,3.232,1.788,2.938,3.493-.403,1.563-1.469,2.83-2.856,3.489.623.156,1.216.382,1.774.661,1.246-.203,1.982-.49,2.392-.739.331-.201.539-.556.548-.944.078-3.336-.416-6.215-.914-7.575-.67-1.825-2.669-3.842-5.287-4.114-2.618-.272-3.791,1.428-3.791,1.428-4.267,1.87-3.464,10.693-3.464,10.693,0,0,.214.787,2.694,1.225.56-.276,1.156-.497,1.781-.649-1.505-.725-2.627-2.168-2.928-3.923Z" fill="#f80"/><g><path d="m28.457,31.211c.758.321,1.424.812,1.96,1.421l-.58-2.677c-.357.518-.833.94-1.379,1.256Z" fill="#482ec4"/><path d="m10.065,30.659l-.226,1.097c.307-.214.635-.399.983-.546-.273-.158-.527-.339-.757-.551Z" fill="#482ec4"/><path d="m24.238,31.211c-.774-.448-1.397-1.121-1.761-1.944-.934-.002-1.691-.713-1.691-1.59,0-.522.271-.98.685-1.271-.008-.213-.004-.43.017-.649.215-2.282,2.04-4.135,4.319-4.379.758-.081,1.485.015,2.147.25-.706-1.917-2.158-3.497-4.028-4.434-.558-.28-1.15-.505-1.774-.661-.649.309-1.363.496-2.123.496-.769,0-1.49-.194-2.145-.509-.625.152-1.221.373-1.781.649-1.833.904-3.274,2.42-4.011,4.269.1-.017.196-.048.298-.059,2.963-.318,5.466,2.057,5.423,4.965-.042,0-.075-.009-.116-.01.477.281.796.776.796,1.344,0,.877-.757,1.588-1.691,1.59-.364.823-.988,1.497-1.761,1.944,1.947.823,3.313,2.75,3.313,4.997h2.571c0-2.246,1.366-4.174,3.313-4.997Z" fill="#482ec4"/></g><path d="m25.008,13.043c.294-1.705-.738-3.167-2.938-3.493-2.31-.343-3.812-1.873-4.293-2.433-.065-.076-.189-.043-.207.056-.112.612-.51,2.169-1.776,3.298,0,0-.212.162-.45.482-.35.469-.487,1.067-.388,1.644.301,1.755,1.424,3.198,2.928,3.923.656.316,1.376.509,2.145.509.76,0,1.473-.188,2.123-.496,1.387-.659,2.453-1.926,2.856-3.489Zm-3.503-2.284c.317,0,.574.308.574.688s-.257.688-.574.688-.574-.308-.574-.688.257-.688.574-.688Zm-2.229,3.713h1.429c.129,0,.22.124.186.248-.108.395-.47.686-.9.686s-.792-.291-.9-.686c-.034-.124.057-.248.186-.248Zm-.8-3.713c.317,0,.574.308.574.688s-.257.688-.574.688-.574-.308-.574-.688.257-.688.574-.688Z" fill="#ffc84d"/><path d="m18.476,12.135c.317,0,.574-.308.574-.688s-.257-.688-.574-.688-.574.308-.574.688.257.688.574.688Z"/><path d="m21.505,12.135c.317,0,.574-.308.574-.688s-.257-.688-.574-.688-.574.308-.574.688.257.688.574.688Z"/><path d="m19.99,15.405c.43,0,.792-.291.9-.686.034-.124-.057-.248-.186-.248h-1.429c-.129,0-.22.124-.186.248.109.395.47.686.9.686Z" fill="#5c2f17"/></g><g><path d="m28.457,31.211c-.623.361-1.337.583-2.109.583s-1.486-.222-2.11-.583c-1.947.823-3.313,2.75-3.313,4.997h10.845c0-1.372-.513-2.621-1.353-3.576-.536-.609-1.202-1.1-1.96-1.421Z" fill="#64a7ff"/><path d="m31.11,26.33c-.49-.01-.9-.09-1.26-.21-1.27-.43-1.71-1.36-1.71-1.36,0,0-.86,1.01-1.79,1.01-.94,0-1.88-1.01-1.88-1.01-.57.72-1.16,1.12-1.67,1.36-.76.35-1.33.32-1.33.32v-.03c-.41.29-.68.74-.68,1.27,0,.87.75,1.58,1.69,1.59.36.82.98,1.49,1.76,1.94.62.36,1.34.58,2.11.58s1.48-.22,2.11-.58c.54-.32,1.02-.74,1.38-1.26.14-.21.27-.44.38-.68.93-.01,1.69-.72,1.69-1.59,0-.57-.32-1.07-.8-1.35Zm-5.95,1.56c-.25,0-.45-.24-.45-.54s.2-.54.45-.54.45.24.45.54-.2.54-.45.54Zm1.19,2.33c-.34,0-.62-.23-.71-.54-.03-.1.05-.19.15-.19h1.12c.1,0,.17.09.14.19-.08.31-.36.54-.7.54Zm1.19-2.33c-.25,0-.45-.24-.45-.54s.2-.54.45-.54.45.24.45.54-.2.54-.45.54Z" fill="#ffc84d"/><path d="m25.157,27.893c.249,0,.451-.242.451-.541s-.202-.541-.451-.541-.451.242-.451.541.202.541.451.541Z"/><path d="m27.538,27.893c.249,0,.451-.242.451-.541s-.202-.541-.451-.541-.451.242-.451.541.202.541.451.541Z"/><path d="m26.348,30.219c.338,0,.622-.228.707-.538.027-.098-.045-.195-.146-.195h-1.122c-.101,0-.173.097-.146.195.085.31.37.538.707.538Z" fill="#5c2f17"/><path d="m25.807,21.377c-2.279.245-4.104,2.097-4.319,4.379-.021.219-.024.436-.017.649,0,.012-.002.025,0,.038,0,0,.572.026,1.332-.328.51-.237,1.102-.641,1.671-1.354,0,0,.939,1.012,1.875,1.012s1.791-1.012,1.791-1.012c0,0,.438.93,1.716,1.362.352.119.769.197,1.259.21.041,0,.074.01.116.01.032-2.165-1.347-4.032-3.276-4.715-.663-.235-1.389-.332-2.147-.25Z" fill="#f80"/></g><g><path d="m18.35,36.21H7.51c0-1.85.92-3.47,2.33-4.45.31-.22.63-.4.98-.55.63.36,1.34.58,2.11.58s1.49-.22,2.11-.58c1.95.82,3.31,2.75,3.31,5Z" fill="#64a7ff"/><path d="m17.7,26.33c-.49-.01-.91-.09-1.26-.21-1.28-.43-1.72-1.36-1.72-1.36,0,0-.85,1.01-1.79,1.01-.93,0-1.87-1.01-1.87-1.01-.57.72-1.16,1.12-1.67,1.36-.76.35-1.34.32-1.34.32,0-.01.01-.02,0-.03-.41.29-.68.74-.68,1.27,0,.87.76,1.58,1.69,1.59.24.53.58,1,1.01,1.39.22.21.48.39.75.55.63.36,1.34.58,2.11.58s1.49-.22,2.11-.58c.77-.45,1.4-1.12,1.76-1.94.94-.01,1.69-.72,1.69-1.59,0-.57-.32-1.07-.79-1.35Zm-5.96,1.56c-.25,0-.45-.24-.45-.54s.2-.54.45-.54.45.24.45.54-.2.54-.45.54Zm1.19,2.33c-.34,0-.62-.23-.71-.54-.02-.1.05-.19.15-.19h1.12c.1,0,.18.09.15.19-.09.31-.37.54-.71.54Zm1.19-2.33c-.25,0-.45-.24-.45-.54s.2-.54.45-.54.45.24.45.54-.2.54-.45.54Z" fill="#ffc84d"/><ellipse cx="11.74" cy="27.35" rx=".45" ry=".54"/><ellipse cx="14.12" cy="27.35" rx=".45" ry=".54"/><path d="m13.64,29.68c-.09.31-.37.54-.71.54s-.62-.23-.71-.54c-.02-.1.05-.19.15-.19h1.12c.1,0,.18.09.15.19Z" fill="#5c2f17"/><path d="m17.81,26.34c-.04,0-.07-.01-.11-.01-.49-.01-.91-.09-1.26-.21-1.28-.43-1.72-1.36-1.72-1.36,0,0-.85,1.01-1.79,1.01-.93,0-1.87-1.01-1.87-1.01-.57.72-1.16,1.12-1.67,1.36-.76.35-1.34.32-1.34.32,0-.01.01-.02,0-.03,0-.22,0-.43.02-.65.21-2.18,1.89-3.95,4.02-4.32.1-.02.2-.05.3-.06,2.96-.32,5.47,2.05,5.42,4.96Z" fill="#f80"/></g></svg>