<?xml version="1.0" encoding="UTF-8"?><svg id="Layer_1" xmlns="http://www.w3.org/2000/svg" viewBox="0 0 40 40"><g><path d="M26.34012,5.44563l1.69638,4.05476-19.97964,7.69061S14.28618,7.18355,24.68895,4.53997c.67548-.17165,1.36612,.22432,1.65117,.90566Z" style="fill:#495b73;"/><path d="M29.64552,30.77074l-8.00044,4.5448c-.82079,.46626-1.83285,.01129-2.10202-.94496l-2.41553-8.58147,12.518,4.98163Z" style="fill:#495b73;"/><path d="M2.53416,10.46002l14.05195,10.77604L3.16151,32.8812c-.32092,.27838-.78111-.07554-.63042-.48853,1.26431-3.46499,3.53501-12.06476-.59254-21.39914-.17708-.40047,.26008-.79082,.59561-.53351Z" style="fill:#495b73;"/><path d="M6.87374,18.40697c-1.41515,1.55124-1.34623,4.05402,.1518,5.51226,3.58313,3.48797,10.36514,9.12373,16.60977,8.92437,5.57445-.17796,10.36838-4.99456,13.21783-8.64907,1.74802-2.24189,1.64897-5.83876-.21935-7.96519-3.04555-3.46632-8.0961-7.96863-13.67055-7.79066-6.24462,.19936-12.7046,6.25787-16.0895,9.96829Z" style="fill:#abb7c7;"/><path d="M24.13074,8.47404c5.10684,.42048,9.6718,4.53284,12.50303,7.75532,1.86833,2.12641,1.96738,5.72328,.21935,7.96515-2.64892,3.39744-6.97957,7.79378-12.0543,8.53931-.93112-3.69756-1.50397-7.78217-1.62256-12.08879s.22848-8.42052,.95449-12.17099Z" style="fill:#65778e;"/><circle cx="31.8756" cy="18.28952" r="1.81509"/><path d="M25.02216,18.30816l-8.12097-2.12108c-.36758-.09601-.72675,.18114-.72675,.5608v6.53887c0,.37526,.35142,.65161,.71643,.56339l8.13129-1.96529v-3.57669Z" style="fill:#65778e;"/></g><rect width="40" height="40" style="fill:none;"/></svg>