<?xml version="1.0" encoding="UTF-8"?><svg id="Layer_1" xmlns="http://www.w3.org/2000/svg" viewBox="0 0 40 40"><g><path d="m1.558,32.217l7.432-12.357.022.008c.925-1.68,2.636-2.824,4.618-2.824,1.315,0,2.504.517,3.436,1.343l11.555-10.117c-.674-.941-.541-2.278.33-3.04s2.148-.66,2.909.204l.008-.007.069.086h0s2.788,3.508,2.788,3.508c.164.207.241.475.213.743l-.315,2.948c-.057.534-.51.922-1.02.874l-2.787-.264c-.518-.049-.975.351-1.022.895l-.25,2.904c-.047.543-.504.944-1.022.895l-2.767-.263c-.518-.049-.975.352-1.022.895l-.25,2.904c-.047.543-.504.944-1.022.895l-2.767-.263c-.518-.049-.975.351-1.022.895l-.236,2.737c-.052.602-.538,1.058-1.114,1.046l-1.095-.024-.383,3.942,1.886-1.979c.275-.288.721-.288.996,0l2.3,2.414c.275.289.721.289.996,0l2.3-2.414c.275-.288.721-.288.996,0l2.3,2.414c.275.289.721.289.996,0l2.3-2.414c.275-.288.721-.288.996,0l2.3,2.414c.275.289.721.289.996,0l1.335-1.401c.443-.465,1.202-.136,1.202.522v4.948h-22.334s-3.001,0-3.001,0H3.168c-1.499,0-2.41-1.734-1.61-3.065Z" fill="#036d50"/><ellipse cx="13.629" cy="22.661" rx="2.11" ry="2.214" fill="#1d1d1b"/></g><rect width="40" height="40" fill="none"/></svg>