<?xml version="1.0" encoding="UTF-8"?><svg id="Layer_1" xmlns="http://www.w3.org/2000/svg" viewBox="0 0 40 40"><g><path d="M11.02968,25.9722l-4.20933,4.70454c-.2381,.26611-.25064,.6648-.02974,.94535l2.90025,3.68332c.07519,.0955,.11884,.21201,.12489,.3334l.07751,1.55454c.00847,.16995,.14873,.30339,.31889,.30339h2.94749c.25333,0,.40576-.28088,.26771-.49328l-3.33441-5.13032c-.13932-.21436-.0352-.50249,.20897-.57827l3.6839-1.14332-2.95613-4.17936Z" style="fill:#6e4944;"/><path d="M30.17574,4.19258s-3.178-.3405-4.73863,2.75238c-1.56063,3.09288-.85339,6.44113-2.61157,9.13676l6.8914-5.61826,.45881-6.27088Z" style="fill:#5e403b;"/><path d="M12.67345,29.03677s-4.22999-2.58499-3.32916-6.89331,6.61915-4.77832,6.61915-4.77832l4.25091-.53378c1.63532-.20534,3.06577-1.20007,3.82751-2.66163L30.00937,2.71989c.1468-.28167,.54937-.29167,.70061-.01236,.23572,.43535,.55003,1.09623,.84175,1.96764l5.37265,2.8984c.32577,.17575,.4575,.57538,.30009,.9104l-1.06814,2.27322c-.10332,.21989-.34987,.33355-.58418,.2693l-3.07829-.84405c-.61128-.16761-1.18789,.36802-1.05662,.98812,.49305,2.32903,1.29742,7.11752,.37436,10.19469-.08332,.27778,.16523,.53908,.44883,.47848,.99706-.21306,2.83471-.60572,3.58295-.7656,.19108-.04083,.37804,.06816,.44199,.25279l2.25686,6.51578c.03742,.10805,.02154,.22743-.04283,.32193l-1.50434,2.2085c-.10973,.16109-.34921,.15502-.45063-.01142l-1.31104-2.15145,.88653-.53192c.16258-.09755,.22221-.3041,.13664-.47328l-1.41355-2.79498c-.08407-.16623-.29438-.22184-.44962-.11888l-3.2245,2.13835c-.12,.07958-.16972,.2311-.12021,.36631l3.74886,10.23659c.08185,.2235-.0836,.46029-.32162,.46029h-2.23835c-.2436,0-.43956-.20031-.43421-.44386l.05782-2.63068c.00254-.11536-.02625-.22926-.0833-.32956l-4.41665-7.76594c-.1155-.20308-.3447-.30741-.5725-.25554-1.27342,.28996-5.47679,1.14322-7.91156,.3897-.23445-.07256-.47703,.05215-.52706,.29241-.18881,.90672-.76176,2.9509-2.25424,4.20998-.29786,.25127-.21984,.7234,.15181,.84058l3.20635,1.01101c.12238,.03859,.22454,.12398,.28422,.23757l2.10149,3.99962c.10619,.20211-.04038,.4447-.26869,.4447h-2.39085c-.15786,0-.28937-.121-.30248-.27832l-.15412-1.84947c-.01102-.13222-.10663-.24195-.23609-.27097l-5.8956-1.32143c-.39328-.08815-.64853-.46897-.58062-.86624l.66214-3.87355Z" style="fill:#86584a;"/><path d="M10.27923,20.78455s-4.83264-.27606-6.14063,3.47326-.43241,6.31579-2.70075,6.886c0,0,3.19805,.43056,4.87199-2.64666s.82864-4.4388,3.96939-7.71261Z" style="fill:#86584a;"/><circle cx="32.59824" cy="6.94446" r=".65547"/></g><rect width="40" height="40" style="fill:none;"/></svg>