<svg id="Layer_1" data-name="Layer 1" xmlns="http://www.w3.org/2000/svg" xmlns:xlink="http://www.w3.org/1999/xlink" viewBox="0 0 40 40"><defs><style>.cls-1{fill:#ff8934;}.cls-2{fill:#d47d13;}.cls-3{fill:#ffc450;}.cls-4{fill:#422709;}.cls-5{fill:none;}.cls-6{clip-path:url(#clip-path);}</style><clipPath id="clip-path"><path id="SVGID" class="cls-1" d="M29.477,10.663h.006l-.017-.094c0-.016-.005-.033-.009-.05l-.28-1.546h0a1.029,1.029,0,0,0-2.008,0h0l-.285,1.561v0l-.016.087h.007a.993.993,0,0,0-.017.155,1.326,1.326,0,0,0,2.641,0A1.112,1.112,0,0,0,29.477,10.663Z"/></clipPath></defs><path class="cls-2" d="M16.8,28.6l1.749,7.9H25.3s-1.025-2.944-3.054-3.085l-.16-5.552Z"/><path class="cls-3" d="M23.247,13.108,11.273,24.074,7.028,36.5h6.854a3.01,3.01,0,0,0-1.813-3.007s3.98-2.3,3.936-5.13c3.917,1.45,9.363-.876,9.363-.876l2.681,7.254h2.985l3.408-11.148a12.013,12.013,0,0,0-.194-7.61l-1.163-3.208Z"/><path class="cls-3" d="M8.676,26.028a7.644,7.644,0,0,1,0-15.287.753.753,0,0,1,0,1.505,6.139,6.139,0,1,0,0,12.277,6.082,6.082,0,0,0,2.4-.487.752.752,0,1,1,.589,1.384A7.592,7.592,0,0,1,8.676,26.028Z"/><path class="cls-3" d="M22.083,24.9l4.246,11.6h7.687s-.494-2.79-2.583-3.064l-2.568-9.292Z"/><polygon class="cls-2" points="34.442 23.593 29.447 26.249 31.433 33.436 34.442 23.593"/><path class="cls-4" d="M24.317,17.315c-.574-.685-1.685-2.031-2.367-2.988l-2.2,2.013A11.464,11.464,0,0,0,24.1,17.8.3.3,0,0,0,24.317,17.315Z"/><path class="cls-4" d="M17.776,18.15l-2.222,2.035L18.9,21.567a.3.3,0,0,0,.379-.407Z"/><path class="cls-4" d="M13.873,21.725l-2,1.833L14.249,24.6a.3.3,0,0,0,.4-.36Z"/><path class="cls-4" d="M34.967,19.633a11.921,11.921,0,0,0-.367-2.515l-2.575,1.1a.3.3,0,0,0,.033.558Z"/><path class="cls-4" d="M31.269,32.853l-.8-2.884-2.044,1.589a.4.4,0,0,0,.159.7Z"/><path class="cls-4" d="M21.956,25.009l1.385,3.34,1.86-2.524A.3.3,0,0,0,25,25.354Z"/><path class="cls-4" d="M22.24,32.853l-.069-2.4-2.375.815a.3.3,0,0,0-.018.555Z"/><path class="cls-4" d="M12.822,33.023a10.307,10.307,0,0,0,2.3-2.192l-2.729-.9a.3.3,0,0,0-.378.367Z"/><path class="cls-4" d="M8.216,33.023l1.876,1.449A.3.3,0,0,1,9.975,35l-2.637.6Z"/><rect class="cls-5" width="40" height="40"/><path class="cls-3" d="M26.379,3.724a2.037,2.037,0,1,0-3.115,2.625L24.62,7.958l3.115-2.625Z"/><path class="cls-3" d="M29.917,3.724a2.037,2.037,0,0,1,3.115,2.625L31.676,7.958,28.561,5.333Z"/><path id="SVGID-2" data-name="SVGID" class="cls-3" d="M34.293,7.7a5.15,5.15,0,0,0-4.851-3.419H26.9A5.15,5.15,0,0,0,22.045,7.7l-.149.418a5.152,5.152,0,0,0-.048,3.325h0A5.151,5.151,0,0,0,26.747,15h2.844a5.15,5.15,0,0,0,4.9-3.559h0a5.152,5.152,0,0,0-.048-3.325Z"/><path id="SVGID-3" data-name="SVGID" class="cls-1" d="M29.477,10.663h.006l-.017-.094c0-.016-.005-.033-.009-.05l-.28-1.546h0a1.029,1.029,0,0,0-2.008,0h0l-.285,1.561v0l-.016.087h.007a.993.993,0,0,0-.017.155,1.326,1.326,0,0,0,2.641,0A1.112,1.112,0,0,0,29.477,10.663Z"/><g class="cls-6"><ellipse cx="28.169" cy="11.364" rx="2.192" ry="0.888"/></g><circle cx="26.623" cy="8.674" r="0.566"/><circle cx="29.754" cy="8.674" r="0.566"/><path class="cls-4" d="M24,12.53c-.488-.132-1.473-.4-1.906-.5a5.153,5.153,0,0,0,1.352,1.747l.665-.927A.2.2,0,0,0,24,12.53Z"/><path class="cls-4" d="M23.616,10.888,22.448,9.9a.2.2,0,0,1,.063-.349l1.047-.371a.2.2,0,0,0,.074-.34l-1.456-1.4-.046.013c-.029.071-.059.14-.085.211l-.149.419a5.071,5.071,0,0,0,.142,3.813c.326-.153,1.1-.483,1.527-.666A.2.2,0,0,0,23.616,10.888Z"/><path class="cls-4" d="M32.7,8.843a.2.2,0,0,0,.073.34l1.047.371a.2.2,0,0,1,.064.349l-1.168.985a.2.2,0,0,0,.051.344c.432.184,1.2.515,1.53.667a5.051,5.051,0,0,0,.19-.489,5.152,5.152,0,0,0-.048-3.325l-.149-.419c-.025-.071-.056-.14-.084-.209l-.05-.015Z"/><path class="cls-4" d="M32.22,12.846l.666.928a5.124,5.124,0,0,0,1.355-1.749c-.43.106-1.42.373-1.909.5A.2.2,0,0,0,32.22,12.846Z"/><path class="cls-4" d="M28.279,11.981a1.118,1.118,0,0,1-.115.011.963.963,0,0,1-.108-.01,2.6,2.6,0,0,1-1.21,1.4c.107.01.215.016.325.016h1.986c.113,0,.224-.007.335-.017A2.633,2.633,0,0,1,28.279,11.981Z"/></svg>