<svg id="Layer_1" data-name="Layer 1" xmlns="http://www.w3.org/2000/svg" viewBox="0 0 40 40"><defs><style>.cls-1{fill:none;opacity:0;}.cls-2{fill:#2e3d51;}.cls-3{fill:#4e5968;}.cls-4{fill:#ffcd00;}</style></defs><rect class="cls-1" x="0.062" width="40" height="40"/><path class="cls-2" d="M8.087,19.583,2.931,21.3A.934.934,0,0,1,1.7,20.411v-8.8a.934.934,0,0,1,1.229-.887l5.156,1.714a.206.206,0,0,1,.142.2v6.748A.206.206,0,0,1,8.087,19.583Z"/><path class="cls-2" d="M36.3,13H21.328L24.87,6.929a2.427,2.427,0,0,1,2.1-1.2H36.3Z"/><rect class="cls-2" x="35.563" y="4.801" width="2.859" height="9.132" rx="1.219"/><rect class="cls-3" x="5.581" y="9.362" width="27.948" height="25.837" rx="4"/><rect class="cls-2" x="14.008" y="12.756" width="8.273" height="17.432" rx="2.34" transform="translate(-9.869 19.119) rotate(-45)"/><circle class="cls-4" cx="29.259" cy="12.998" r="1.339"/></svg>