<?xml version="1.0" encoding="UTF-8"?><svg id="Layer_1" xmlns="http://www.w3.org/2000/svg" viewBox="0 0 40 40"><g><path d="m36.42,31.22H3.58c0-10.44,3.19-19.59,7.95-24.6,2.47-2.62,5.37-4.12,8.47-4.12,9.07,0,16.42,12.86,16.42,28.72Z" fill="#e3e3e3"/><path d="m10.348,18.738s.405,3.602-1.96,6.346c-1.466,1.701-1.128,4.635.525,5.976h11.292v-12.968l-9.856.646Z" fill="#333"/><path d="m30.06,18.738s-.405,3.602,1.96,6.346c1.466,1.701,1.128,4.635-.525,5.976h-11.292v-12.968s9.856.646,9.856.646Z" fill="#333"/><path d="m28.242,28.136l-4.214-1.601c-2.46-.935-5.178-.935-7.638,0l-4.214,1.601c-2.028.771-3.708,2.218-4.771,4.071-.437.76-.713,1.602-.922,2.454l-.539,2.189c-.081.331.169.651.51.651h27.511c.341,0,.591-.32.51-.651l-.539-2.189c-.21-.851-.486-1.693-.922-2.454-1.064-1.853-2.743-3.301-4.771-4.071Z" fill="#956759"/><g><g><path d="m29.605,8.718c-2.652-.915-6.141-1.456-9.48-1.456-3.484,0-7.091.591-9.811,1.581-.317.731-.552,1.502-.693,2.303-.134.764-.185,1.517-.162,2.251.002.057.046.104.102.108.002,0,.003.002.005.002.234.002.833.122,1.417,1.183.088.159.302.195.424.06l5.79-6.479s7.335,5.891,12.176,5.569c.107-.007.23-.044.351-.096.315-.177.58-.497.823-.445.006.001.012-.003.018-.001.024-1.632-.324-3.185-.962-4.58Z" fill="#333"/><path d="m28.221,6.49c-2.322-2.902-6.115-4.574-10.238-3.802-2.548.477-4.785,1.913-6.327,3.903,2.519-.748,5.39-1.176,8.47-1.176,2.931,0,5.666.393,8.096,1.074Z" fill="#333"/></g><path d="m30.549,13.299c-.243-.051-.508.268-.823.445-.121.052-.245.089-.351.096-4.841.322-12.176-5.569-12.176-5.569l-5.79,6.479c-.121.136-.336.1-.424-.06-.584-1.061-1.183-1.181-1.417-1.183-.002,0-.003-.002-.005-.002-.838.629-1.382,1.588-1.382,2.675,0,1.89,1.63,3.43,3.65,3.44,1.42,3.22,4.64,5.46,8.38,5.46s6.96-2.24,8.38-5.46c2.01-.01,3.65-1.55,3.65-3.44,0-1.215-.678-2.27-1.691-2.881Z" fill="#956759"/><g><ellipse cx="17.636" cy="15.481" rx=".975" ry="1.17"/><ellipse cx="22.782" cy="15.481" rx=".975" ry="1.17"/></g><path d="m21.422,20.093c.219,0,.375.21.317.422-.185.671-.799,1.164-1.529,1.164s-1.344-.493-1.529-1.164c-.058-.211.098-.422.317-.422h2.425Z" fill="#5c2f17"/></g><path d="m18.024,23.679h4.393v4.169c0,1.212-.984,2.196-2.196,2.196h0c-1.212,0-2.196-.984-2.196-2.196v-4.169h0Z" fill="#956759"/><path d="m10.71,33.445v4.055h19.144v-4.072c0-.932-.83-1.644-1.75-1.492-1.807.298-4.647.872-6.707,1.798-.764.343-1.639.33-2.413.01-1.468-.607-3.998-1.512-6.627-1.806-.883-.099-1.647.619-1.647,1.507Z" fill="#f0f0f0"/><path d="m22.798,26.145c-.317,1.132-1.356,1.961-2.589,1.961-1.246,0-2.293-.847-2.599-1.997" fill="none" stroke="#fff" stroke-linecap="round" stroke-miterlimit="10" stroke-width="1.042"/></g><rect x="0" width="40" height="40" fill="none"/></svg>