<?xml version="1.0" encoding="UTF-8"?><svg id="Layer_1" xmlns="http://www.w3.org/2000/svg" viewBox="0 0 40 40"><path d="m31.954,24.783c1.642,0,2.974-1.298,2.974-2.9s-1.331-2.9-2.974-2.9c0,0,0,0,0,0h-.73c1.487-.155,2.65-1.373,2.65-2.869,0-1.602-1.327-2.9-2.964-2.9-.001,0-.002,0-.003,0h-1.955s-10.818,0-10.818,0l2.019-6.859-.009-.004c.557-1.402.028-3.035-1.317-3.812-1.479-.854-3.37-.347-4.224,1.132l-7.895,13.528h.008c-1.042,1.858-1.643,3.997-1.643,6.278,0,7.098,5.754,12.853,12.853,12.853h11.026v-.009h.002c1.642,0,2.974-1.298,2.974-2.9,0-1.495-1.165-2.712-2.655-2.869h1.181c1.642,0,2.974-1.298,2.974-2.9,0-1.495-1.165-2.712-2.655-2.869h1.181Z" fill="#956759"/><rect width="40" height="40" fill="none"/></svg>