<?xml version="1.0" encoding="UTF-8"?><svg id="Layer_1" xmlns="http://www.w3.org/2000/svg" viewBox="0 0 40 40"><g><path d="M18.53168,27.77356l-.00623,.00085,1.89661,8.56384h7.3158s-1.11176-3.19275-3.31219-3.34558l-.15442-5.35254c-1.72906,.36865-3.83893,.58545-5.73956,.13342Zm4.84882,5.41858c.23627-.23621,.61932-.23621,.85553,0,.23627,.23633,.23627,.61938,0,.85571-.23621,.23621-.61926,.23621-.85553,0-.23627-.23633-.23627-.61938,0-.85571Zm-2.4964-3.12622c-.23627,.23621-.61932,.23621-.85559,0-.23627-.23633-.23627-.61938,0-.85571,.23627-.23608,.61932-.23608,.85559,0,.23627,.23633,.23627,.61938,0,.85571Z" style="fill:#bf7111;"/><path d="M32.23871,25.22144l2.15363,7.79358,1.11847-3.65833c-.31287-.10107-.48969-.43286-.3941-.7489,.09595-.31726,.4292-.49634,.74677-.40466l1.79224-5.86206-5.41699,2.88037h0Zm2.10931-.84497c.33411,0,.60498,.27075,.60498,.60498,0,.33398-.27087,.60498-.60498,.60498s-.60498-.271-.60498-.60498c0-.33423,.27087-.60498,.60498-.60498Z" style="fill:#bf7111;"/></g><g><path d="M10.83002,9.21997c0-.12-.03003-.21997-.07001-.32007,.03998,.1001,.06,.21008,.06,.32007s-.02002,.21997-.06,.32007c.03998-.1001,.07001-.20007,.07001-.32007Z" style="fill:#ffc450;"/><path d="M38.28003,18.73999c.01996-3.14001-1.19-5.43994-2.31006-7.76001,.61005-1,.91003-2.15002,.84003-3.32007l.33002-.37988c.77997-.93005,.65997-2.32007-.27002-3.11011-.90997-.76001-2.25-.66992-3.03998,.20007-1.23004-.15002-2.46002-.15002-3.69,0-.79999-.87-2.14001-.97009-3.04999-.20007-.94,.79004-1.05005,2.18005-.27002,3.11011l.35999,.42993c-.10999,1.38,.28003,2.73999,1.10004,3.86011h-.01001s.15997,.47998,.03998,1.12988h.02002c.33997,0,.60999,.27002,.60999,.6001,0,.32996-.27002,.60986-.60999,.60986-.17999,0-.34003-.07996-.45001-.20996-.27002,.39001-.66998,.77002-1.28003,1.13-.08997,.05005-.17999,.09998-.25995,.15002l-8.29004,4.72998c.10999,.11011,.17999,.26001,.17999,.43005,0,.33997-.26996,.60999-.59998,.60999-.28998,0-.52002-.19995-.59003-.45996l-4.45996,2.53992c-.81,.34998-1.67999,.52002-2.57001,.52002-1.59003,0-3.04004-.55994-4.19-1.48999-.16998,.12-.35999,.21008-.58002,.21008-.57001,0-1.03998-.47009-1.03998-1.04004,0-.25,.10999-.47998,.26001-.66003-.70001-1.05994-1.11005-2.31995-1.11005-3.68005,0-3.66992,2.99005-6.65991,6.66003-6.65991v-1.63013c-1.16998,0-2.28003,.25-3.28003,.68005,.16003-.04993,.20001,.31995,.20001,.51001,0,.41003-.33002,.73999-.73999,.73999-.34998,0-.64001-.23999-.71002-.56995-2.26001,1.47998-3.76001,4.04004-3.76001,6.92993v.05005c.09003-.02002,.17004-.05005,.25-.05005,.58002,0,1.04004,.45996,1.04004,1.04004,0,.56006-.46002,1.02002-1.02002,1.02002,.78003,3.04004,3.22998,5.40991,6.32001,6.05005,.07001-.23999,.28003-.42004,.54999-.42004,.32001,0,.58002,.25,.58002,.56995,.19,.02002,.38,.03003,.57001,.03003,.64001,0,1.26001-.08008,1.87-.21997l-3.95001,11.57996h7.42999s.19-2.5-1.96997-3.26001c0,0,4.32001-2.5,4.26996-5.56995,.28003,.10999,.58002,.18994,.87006,.26001,1.89996,.45996,4.00995,.23999,5.73999-.13,1.63995-.34998,2.91998-.82996,3.35999-1l3.56,9.69995h2.81c0-.32996,.27002-.59998,.59998-.59998,.33002,0,.60004,.27002,.60004,.59998h1.98999s-.53003-3.02991-2.79999-3.31995l-2.15002-7.80005,5.41998-2.88c.36005-1.19995,.61005-2.38,.62006-3.59998ZM2.42999,13.72998c0-.33008,.26001-.58997,.58002-.58997s.58002,.25989,.58002,.58997c0,.32007-.26001,.58008-.58002,.58008s-.58002-.26001-.58002-.58008Zm8.09003,21.84009c-.23999,.22998-.62,.22998-.86005,0-.22998-.24011-.22998-.62012,0-.86011,.24005-.22998,.62006-.22998,.86005,0,.22998,.23999,.22998,.62,0,.86011Zm2.63-8.30005c-.34003,0-.61005-.27002-.61005-.61011,0-.32996,.27002-.59985,.61005-.59985,.32996,0,.59998,.2699,.59998,.59985,0,.34009-.27002,.61011-.59998,.61011Zm1.20996,4.17993c-.33997,0-.60999-.27002-.60999-.59998,0-.33997,.27002-.60999,.60999-.60999,.33002,0,.60004,.27002,.60004,.60999,0,.32996-.27002,.59998-.60004,.59998Zm2.20001-7.46997c-.23999,.23999-.62,.23999-.85999,0s-.23999-.62,0-.85999c.23999-.22998,.62-.22998,.85999,0,.22998,.23999,.22998,.62,0,.85999Zm5.15997-2.84998c0-.32996,.27002-.59998,.60004-.59998,.33997,0,.60999,.27002,.60999,.59998,0,.33997-.27002,.60999-.60999,.60999-.33002,0-.60004-.27002-.60004-.60999Zm.88,5.31995c-.33997,0-.60999-.27002-.60999-.60999,0-.32996,.27002-.59998,.60999-.59998,.33002,0,.60004,.27002,.60004,.59998,0,.33997-.27002,.60999-.60004,.60999Zm2.03003-7.77002c-.34003,0-.60999-.27002-.60999-.59998,0-.33997,.26996-.60999,.60999-.60999,.33002,0,.59998,.27002,.59998,.60999,0,.32996-.26996,.59998-.59998,.59998Zm3.10999,4.17004c-.33997,0-.60999-.27002-.60999-.59998,0-.34009,.27002-.60999,.60999-.60999,.33002,0,.60004,.2699,.60004,.60999,0,.32996-.27002,.59998-.60004,.59998Zm4.79999,9.04004c.29004-.17004,.66003-.06995,.83002,.21997,.16003,.28992,.07001,.66003-.21997,.81995-.29004,.17004-.66003,.07007-.83002-.21997s-.07001-.65991,.21997-.81995Zm-3.41998-13.95007c0-.04993,.02002-.09998,.03003-.15991,.06995-.25,.29999-.44006,.56995-.44006,.30005,0,.54004,.22009,.59003,.5,.01001,.04004,.02002,.06995,.02002,.09998,0,.34009-.27002,.61011-.61005,.61011-.32996,0-.59998-.27002-.59998-.61011Zm.60999,8.12012c0-.33008,.27002-.61011,.60004-.61011,.33997,0,.60999,.28003,.60999,.61011,0,.32996-.27002,.59985-.60999,.59985-.33002,0-.60004-.2699-.60004-.59985Zm.89001,4.17993c-.33002,0-.59998-.27002-.59998-.59998,0-.33997,.26996-.60999,.59998-.60999s.60999,.27002,.60999,.60999c0,.32996-.27997,.59998-.60999,.59998Zm2.02002-7.29004c-.33002,0-.60999-.27002-.60999-.60999,0-.32996,.27997-.59998,.60999-.59998,.32996,0,.59998,.27002,.59998,.59998,0,.33997-.27002,.60999-.59998,.60999Zm0-2.62988c-.33002,0-.60999-.28003-.60999-.61011,0-.32996,.27997-.59998,.60999-.59998,.32996,0,.59998,.27002,.59998,.59998,0,.33008-.27002,.61011-.59998,.61011Zm.04999-4.11011c-.02002,0-.03003,.01001-.04999,.01001-.33002,0-.60999-.27002-.60999-.59998,0-.08997,.02997-.18005,.06-.25,.09998-.21008,.31-.35999,.54999-.35999,.32996,0,.59998,.27002,.59998,.60999,0,.30994-.23999,.56995-.54999,.58997Zm1.03998-8.28003c-.25,0-.45996-.1499-.56-.35986,.10004,.27991,.34003,.80994,.98004,1.28992l-.81,1.95007h-2.61005l-.81-1.95007c.64001-.47998,.89001-1.01001,.98004-1.28992-.10004,.20996-.31,.35986-.56,.35986-.34003,0-.62006-.27002-.62006-.60986,0-.34009,.28003-.62012,.62006-.62012,.09998,0,.19,.03003,.26996,.07007h2.85004c.08997-.04004,.17999-.07007,.26996-.07007,.34003,0,.62,.28003,.62,.62012,0,.33984-.27997,.60986-.62,.60986Zm1.82001,6.40002c-.33002,0-.59998-.2699-.59998-.59998,0-.33997,.26996-.60999,.59998-.60999,.34003,0,.60999,.27002,.60999,.60999,0,.33008-.26996,.59998-.60999,.59998Zm.60999,2.75c0-.33997,.27002-.60999,.60004-.60999,.33997,0,.60999,.27002,.60999,.60999,0,.32996-.27002,.59998-.60999,.59998-.33002,0-.60004-.27002-.60004-.59998Zm.60004,3.24011c0-.34009,.27002-.61011,.60999-.61011,.33002,0,.59998,.27002,.59998,.61011,0,.32983-.26996,.59985-.59998,.59985-.33997,0-.60999-.27002-.60999-.59985Z" style="fill:#ffc450;"/></g><g><path d="M31.96112,10.32007c.03284,.0127,.07635,.01282,.1095,.00049,.48273-.17834,.78662-.43176,.91162-.76025h-1.9339c.14594,.33911,.46356,.58521,.91278,.75977Z" style="fill:#422709;"/><polygon points="30.72864 10.80774 33.34003 10.80774 32.01526 10.32959 30.72864 10.80774" style="fill:#422709;"/></g><g><path d="M30.33899,7.93262c.25,0,.46326-.15063,.55908-.36499l.01221-.03735c.02466-.06641,.04279-.13647,.04279-.21167,0-.04187-.01587-.07861-.02386-.11804-.0379-.18787-.15344-.34387-.32037-.42688-.08234-.04102-.17169-.06909-.26984-.06909-.33911,0-.61407,.2749-.61407,.61401s.27496,.61401,.61407,.61401Z"/><path d="M33.13202,7.2583c-.00214,.02087-.01215,.03894-.01215,.0603,0,.0752,.01813,.14526,.04279,.21167l.01221,.03735c.09583,.21436,.30908,.36499,.55908,.36499,.33917,0,.61407-.2749,.61407-.61401s-.2749-.61401-.61407-.61401c-.09814,0-.1875,.02808-.26984,.06909-.18414,.09155-.31018,.27087-.33209,.48462Z"/><g><circle cx="35.55219" cy="13.72607" r=".60498" style="fill:#1d1d1b;"/><path d="M28.33118,13.90564c.33411,0,.60498-.27087,.60498-.6051,0-.33398-.27087-.60498-.60498-.60498-.00708,0-.0202-.00659-.02106,.00049l-.00049,.00244-.00085,.00366c-.0069,.0509-.02277,.11023-.04266,.17297-.09229,.29065-.29407,.6665-.36145,.78784l-.0235,.04199c.11072,.12317,.2713,.20068,.45001,.20068Z" style="fill:#1d1d1b;"/><path d="M32.63928,16.22266c.01813,0,.03339-.00879,.05109-.01025,.30902-.02734,.55396-.27856,.55396-.59473,0-.33398-.27087-.60498-.60504-.60498-.24329,0-.45001,.14575-.54608,.35278-.03589,.07727-.0589,.16138-.0589,.2522,0,.33423,.27087,.60498,.60498,.60498Z" style="fill:#1d1d1b;"/><circle cx="36.76215" cy="17.07532" r=".60498" style="fill:#1d1d1b;"/><circle cx="37.36713" cy="20.31555" r=".60498" style="fill:#1d1d1b;"/><circle cx="34.34802" cy="24.98145" r=".60498" style="fill:#1d1d1b;"/><path d="M35.1167,28.60779c-.09558,.31604,.08124,.64783,.3941,.7489h0l.00989,.00537,.35022-1.1582-.00745-.00073h0c-.31757-.09167-.65082,.0874-.74677,.40466Z" style="fill:#1d1d1b;"/><path d="M32.63928,20.31555c.33417,0,.60504-.27087,.60504-.60498s-.27087-.60498-.60504-.60498c-.33411,0-.60498,.27087-.60498,.60498s.27087,.60498,.60498,.60498Z" style="fill:#1d1d1b;"/><circle cx="24.6272" cy="18.07837" r=".60498" style="fill:#1d1d1b;"/><path d="M17.62903,20.74792c.33411,0,.60498-.27087,.60498-.6051,0-.17017-.07031-.32373-.18323-.43359l-.00012-.00024-.81226,.46411-.19739,.11279c.06421,.26514,.3031,.46204,.58801,.46204Z" style="fill:#1d1d1b;"/><circle cx="22.32172" cy="21.1311" r=".60498" style="fill:#1d1d1b;"/><g><circle cx="27.73785" cy="22.24829" r=".60498" style="fill:#1d1d1b;"/><circle cx="22.59827" cy="25.84204" r=".60498" style="fill:#1d1d1b;"/><circle cx="13.14551" cy="26.66443" r=".60498" style="fill:#1d1d1b;"/><path d="M14.35547,30.24304c-.33411,0-.60498,.27087-.60498,.6051,0,.33398,.27087,.60498,.60498,.60498s.60498-.271,.60498-.60498c0-.33423-.27087-.6051-.60498-.6051Z" style="fill:#1d1d1b;"/><path d="M15.7002,23.12329c-.23627,.23621-.23627,.61926,0,.85547,.23627,.23633,.61932,.23633,.85559,0,.23627-.23621,.23627-.61926,0-.85547-.23627-.23633-.61932-.23633-.85559,0Z" style="fill:#1d1d1b;"/><path d="M9.66241,34.71143c-.23627,.23621-.23627,.61926,0,.85547,.23627,.23633,.61932,.23633,.85553,0,.23627-.23621,.23627-.61926,0-.85547-.23621-.23633-.61926-.23633-.85553,0Z" style="fill:#1d1d1b;"/><path d="M20.0285,29.21021c-.23627,.23633-.23627,.61938,0,.85571,.23627,.23621,.61932,.23621,.85559,0,.23627-.23633,.23627-.61938,0-.85571-.23627-.23608-.61932-.23608-.85559,0Z" style="fill:#1d1d1b;"/><path d="M24.23602,34.04785c.23627-.23633,.23627-.61938,0-.85571-.23621-.23621-.61926-.23621-.85553,0-.23627,.23633-.23627,.61938,0,.85571,.23627,.23621,.61932,.23621,.85553,0Z" style="fill:#1d1d1b;"/><path d="M29.72491,17.33984c-.27667,0-.50031,.18945-.57233,.44312-.01495,.05249-.03265,.10449-.03265,.16187,0,.33411,.27087,.60498,.60498,.60498s.60498-.27087,.60498-.60498c0-.03711-.01471-.06934-.02112-.10449-.05115-.28235-.28687-.50049-.58386-.50049Z" style="fill:#1d1d1b;"/><path d="M32.63928,22.94604c.33417,0,.60504-.27087,.60504-.60498,0-.33423-.27087-.60498-.60504-.60498-.33411,0-.60498,.27075-.60498,.60498,0,.33411,.27087,.60498,.60498,.60498Z" style="fill:#1d1d1b;"/><circle cx="30.33459" cy="26.05945" r=".60498" style="fill:#1d1d1b;"/><circle cx="30.62048" cy="29.63806" r=".60498" style="fill:#1d1d1b;"/><path d="M33.14618,32.93396c.28937-.16711,.38849-.53711,.22144-.82642-.16705-.28943-.53705-.38855-.82642-.22144s-.38849,.53699-.22144,.82642,.53705,.38855,.82642,.22144Z" style="fill:#1d1d1b;"/><path d="M34.60071,35.74414c-.33026,0-.59668,.26538-.60278,.59412l-.0022,.01086h1.20996l-.0022-.01086c-.0061-.32874-.27252-.59412-.60278-.59412Z" style="fill:#1d1d1b;"/><path d="M30.95166,7.36047s-.01038,.06592-.04138,.1698l-.01221,.03735c-.0907,.28284-.33344,.81079-.97638,1.2876l1.03137-.58911-.0014-.90564Z" style="fill:#1d1d1b;"/><path d="M33.12128,7.36047l-.0014,.90564,1.03137,.58911c-.64294-.47681-.88568-1.00476-.97638-1.2876l-.01221-.03735c-.03101-.10388-.04138-.1698-.04138-.1698Z" style="fill:#1d1d1b;"/><path d="M10.82263,9.21899c0-.45056-.36499-.81555-.81506-.8158l-.00049-.00012v1.63171c.45038,0,.81555-.36511,.81555-.8158Z" style="fill:#1d1d1b;"/><path d="M4.2041,21.03442c0,.57043,.4624,1.03284,1.03284,1.03284,.22198,0,.41638-.08521,.58478-.20435l-.00964-.00916c-.23431-.19067-.45148-.40076-.65784-.62085-.04333-.04639-.08563-.09302-.12769-.1405-.19812-.22388-.38538-.45789-.55237-.70715l-.01202-.01538c-.15485,.18066-.25806,.40796-.25806,.66455Z" style="fill:#1d1d1b;"/><path d="M3.00757,17.7251c0-.57056-.46252-1.03296-1.03296-1.03296-.08911,0-.16895,.0293-.25128,.05078l-.00256,.00049c.00024,.04224,.00793,.08228,.00885,.12415,.00641,.28442,.02454,.5658,.06018,.84216,.0072,.05591,.01715,.11108,.02551,.16675,.04242,.2832,.09576,.56274,.16492,.83667,.00348,.01379,.00476,.02832,.0083,.04199l.00244-.00049c.5625-.00903,1.0166-.46484,1.0166-1.02954Z" style="fill:#1d1d1b;"/><path d="M3.58923,13.72607c0-.32129-.26044-.58179-.58167-.58179-.32129,0-.58167,.2605-.58167,.58179,0,.32117,.26038,.58167,.58167,.58167,.32123,0,.58167-.2605,.58167-.58167Z" style="fill:#1d1d1b;"/><path d="M8.86127,24.37634c-.26697,0-.48218,.18335-.5506,.42847l-.00024,.00061,.00476,.00049c.36658,.07642,.74359,.12061,1.12592,.14673h.00073c-.00305-.3186-.26123-.57629-.58057-.57629Z" style="fill:#1d1d1b;"/><path d="M6.18903,10.32959c.40717,0,.73724-.32996,.73724-.73706,0-.19507-.03357-.56006-.19885-.50854l-.00598-.00146c-.73157,.27588-1.25458,.65845-1.25458,.65845,.00153,.00757,.00647,.01355,.00824,.021,.07715,.32471,.36572,.56763,.71393,.56763Z" style="fill:#1d1d1b;"/></g></g></g></svg>