<?xml version="1.0" encoding="UTF-8"?><svg id="Layer_1" xmlns="http://www.w3.org/2000/svg" viewBox="0 0 40 40"><g><g><path d="M31.77216,36.91034l-.48822-1.98407c-.18994-.77167-.44043-1.53461-.83606-2.22382-.96429-1.67987-2.48621-2.99146-4.32465-3.68988l-3.81927-1.45099c-.47833-.1817-.96875-.31641-1.46393-.42017v1.60858c0,1.09998-.89001,1.98999-1.99005,1.98999-1.09998,0-1.98999-.89001-1.98999-1.98999v-1.61194c-.50024,.104-.99561,.23999-1.4787,.42352l-3.81927,1.45099c-1.37903,.52386-2.57996,1.39276-3.50104,2.50336-.8772,1.05774-1.40723,2.36047-1.68604,3.70605l-.35339,1.70551c-.06122,.29541,.16437,.57251,.46606,.57251H31.31c.3089,0,.53601-.28973,.46216-.58966Z" style="fill:#c4c4c4;"/><g><path d="M18.84998,30.73999c1.10004,0,1.99005-.89001,1.99005-1.98999v-2.73999c2.50995-.62,4.57996-2.39001,5.59998-4.72003,1.82001-.01001,3.29999-1.39996,3.29999-3.10999,0-1.09851-.61865-2.05872-1.53802-2.61389-.21698-.03375-.45367,.24487-.73383,.40271-.11005,.04706-.22162,.08063-.31824,.08704-2.13794,.14197-4.80878-1.05371-6.98944-2.31628-.49426-.01886-.99414-.03064-1.50208-.03064-1.86902,0-3.65216,.13232-5.28894,.37006l-2.50342,2.80121c-.10999,.12305-.3045,.09058-.38409-.05396-.5296-.96167-1.07251-1.07037-1.28473-1.0719l-.00391-.00177c-.76062,.57202-1.2533,1.44476-1.2533,2.42743,0,1.71002,1.46997,3.08997,3.29999,3.10999,1.03003,2.33002,3.10004,4.10004,5.62,4.72003v2.73999c0,1.09998,.89001,1.98999,1.98999,1.98999Z" style="fill:#6e4944;"/><g><path d="M10.48193,16.82623c.07959,.14453,.27411,.177,.38409,.05396l2.50342-2.80121c-1.56409,.22717-2.99475,.55048-4.2309,.95245h-.00006c-.00952,.00311-.01685-.00336-.02582-.00421-.00671,.20959-.01898,.42053-.01239,.62701,.00159,.05151,.04218,.0954,.09302,.09833l.00391,.00177c.21222,.00153,.75513,.11023,1.28473,1.0719Z" style="fill:#333;"/><path d="M20.16046,13.73956c2.18066,1.26257,4.8515,2.45825,6.98944,2.31628,.09662-.00641,.20819-.03998,.31824-.08704,.28015-.15784,.51685-.43646,.73383-.40271,.00952,.00146,.01959-.00482,.02905-.00208,.00269-.18152-.0152-.35822-.02252-.53748-.01031,.00171-.0191,.00848-.03027,.00488-2.17816-.70831-4.95526-1.17523-8.01776-1.29187Z" style="fill:#333;"/></g><g><ellipse cx="16.51022" cy="17.54297" rx=".88349" ry="1.06019"/><ellipse cx="21.17504" cy="17.54297" rx=".88349" ry="1.06019"/></g><path d="M19.94165,21.72309c.19855,0,.3396,.19075,.28693,.38219-.16737,.60829-.72448,1.05513-1.38595,1.05513s-1.21858-.44683-1.38595-1.05513c-.05267-.19144,.08837-.38219,.28693-.38219h2.19804Z" style="fill:#5c2f17;"/></g><path d="M18.85306,29.14408c-.82277,0-1.54678-.40918-1.9907-1.03163v.63965c0,1.09943,.89127,1.9907,1.9907,1.9907s1.9907-.89127,1.9907-1.9907v-.63959c-.44386,.62245-1.16793,1.03158-1.9907,1.03158Z" style="fill:#4c6db5;"/><circle cx="15.82798" cy="32.21313" r=".68224" style="fill:#4c6db5;"/><circle cx="22.05854" cy="32.21313" r=".68224" style="fill:#4c6db5;"/><circle cx="15.82798" cy="36.12241" r=".68224" style="fill:#4c6db5;"/><circle cx="22.05854" cy="36.12241" r=".68224" style="fill:#4c6db5;"/><g><path d="M31.09015,9.05621c0-1.71283-1.38855-3.10144-3.10144-3.10144-.07288,0-.14099,.01654-.21259,.02148-.73553-1.13251-2.12549-1.90747-3.74017-1.90747-.5014,0-.97534,.08807-1.42279,.22375-.7912-1.08185-2.06042-1.79254-3.50336-1.79254-1.57452,0-2.94104,.84485-3.70435,2.09784-.64215-.32825-1.38287-.52905-2.1839-.52905-1.6095,0-2.99591,.77002-3.73334,1.89673-.03613-.00128-.07001-.01074-.10638-.01074-1.71289,0-3.10144,1.38861-3.10144,3.10144,0,1.59918,1.21497,2.90027,2.76947,3.06799l-.00006,2.84064c0,.0238,.01086,.04413,.0274,.05664-.01654-.01251-.02734-.03284-.02734-.05658l.00006-2.81647c2.54022-.83984,5.91058-1.3515,9.60846-1.3515s7.06824,.51166,9.60846,1.3515l.00006,2.81647-.00006-2.83521c1.58051-.14282,2.8233-1.45587,2.8233-3.07349Z" style="fill:#e6e6e6;"/><path d="M18.65839,10.79694c-3.69788,0-7.06824,.51166-9.60846,1.3515l-.00006,2.81647c0,.02374,.0108,.04407,.02734,.05658,.00958,.00726,.02313,.00452,.03546,.00574,.00897,.00085,.0163,.00732,.02582,.00421h.00006c1.23615-.40198,2.66681-.72528,4.2309-.95245,1.63678-.23773,3.41992-.37006,5.28894-.37006,.50793,0,1.00781,.01178,1.50208,.03064,3.0625,.11664,5.8396,.58356,8.01776,1.29187,.04523,.01471,.08868-.01898,.08868-.06653l-.00006-2.81647c-2.54022-.83984-5.91058-1.3515-9.60846-1.3515Z" style="fill:#c4c4c4;"/></g></g><path d="M32.5862,22.67987c-1.35529-.70631-3.16856-.12013-4.25225,1.9595-.68735,1.31899-.56331,2.85848-.24435,3.87936,.18944,.60623,.07911,1.26719-.22752,1.82336l-.26941,.4615-3.90881,6.69641h2.43281l2.77977-6.01701,.28283-.61216c.28456-.5788,.79348-.99801,1.39418-1.23286,.95573-.37369,2.20068-1.11198,2.84396-2.34645,1.08369-2.07957,.52419-3.90541-.83122-4.61166Z" style="fill:#807057;"/></g><rect width="40" height="40" style="fill:none;"/></svg>