<?xml version="1.0" encoding="UTF-8"?><svg id="Layer_1" xmlns="http://www.w3.org/2000/svg" viewBox="0 0 40 40"><g><ellipse cx="20" cy="21.861" rx="13.139" ry="15.11" fill="#c3846c"/><g><ellipse cx="9.056" cy="22.575" rx="5.26" ry="4.933" fill="#c3846c"/><ellipse cx="30.944" cy="22.575" rx="5.26" ry="4.933" fill="#c3846c"/></g><g><ellipse cx="16.309" cy="21.57" rx="1.398" ry="1.678"/><ellipse cx="23.691" cy="21.57" rx="1.398" ry="1.678"/></g><path d="m21.792,30.465c.324,0,.554.311.468.623-.273.992-1.181,1.721-2.26,1.721s-1.987-.729-2.26-1.721c-.086-.312.144-.623.468-.623h3.584Z" fill="#5c2f17"/><path d="m20,27.306c-2.393,0-4.522.823-5.896,2.103-.723.674-.249,1.885.739,1.885l4.109-.535c.695-.091,1.399-.091,2.094,0l4.109.535c.988,0,1.462-1.211.739-1.885-1.373-1.281-3.502-2.103-5.896-2.103Z" fill="#523725"/><path d="m6.813,22.329c-.254-.408-.514-1.031-.44-1.807,0,0-2.327-1.954-1.095-4.864,0,0-1.734-2.085.182-3.605,0,0-.547-2.91,2.19-3.474,0,0-.319-2.78,3.102-2.78,0,0,1.46-2.562,4.517-1.52,0,0,2.236-2.389,5.566-.565,0,0,2.601-1.216,4.243.521,0,0,2.555-.869,3.604,1.867,0,0,3.376.217,3.604,2.649,0,0,2.874.391,2.281,3.648,0,0,2.053,2.302-.137,4.517,0,0,.912,2.215-.319,2.953,0,0,.639,1.539-.471,2.667-.168.171-.464.09-.529-.141l-1.974-6.928c-.479-1.683-2.084-2.851-3.916-2.851h-14.313c-1.898,0-3.542,1.252-3.958,3.014l-1.561,6.602c-.065.274-.428.335-.577.096Z" fill="#523725"/></g><rect width="40" height="40" fill="none"/></svg>