<?xml version="1.0" encoding="UTF-8"?><svg id="Layer_1" xmlns="http://www.w3.org/2000/svg" viewBox="0 0 40 40"><g><path d="m33.476,36.885l-.509-2.068c-.198-.804-.459-1.599-.871-2.318-1.005-1.751-2.591-3.118-4.507-3.846l-3.981-1.512c-.501-.19-1.014-.331-1.533-.44v1.269c0,1.146-.929,2.075-2.075,2.075s-2.075-.929-2.075-2.075v-1.269c-.518.108-1.032.249-1.533.44l-3.981,1.512c-1.916.728-3.502,2.095-4.507,3.846-.412.719-.673,1.514-.871,2.318l-.509,2.068c-.077.312.16.615.482.615h25.988c.322,0,.559-.302.482-.615Z" fill="#5a81ff"/><g><path d="m7.243,16.377c0,1.089.801,2.101,2.173,2.94.097-1.955.368-4.274,1.013-6.414-1.977.927-3.186,2.141-3.186,3.473Z" fill="#c27700"/><path d="m32.757,16.377c0-1.203-.989-2.309-2.634-3.195.351,1.575.647,3.608.791,5.911,1.162-.794,1.843-1.721,1.843-2.716Z" fill="#c27700"/></g><g><path d="m29.533,11.087c-1.072-2.921-4.271-6.147-8.459-6.583-4.189-.435-6.066,2.285-6.066,2.285-2.379,1.043-3.772,3.437-4.578,6.114-.645,2.14-.916,4.458-1.013,6.414-.13,2.617.048,4.582.048,4.582,0,0,.545,2.044,8.465,2.372v-1.101c-3.06-.84-5.43-3.45-5.99-6.72-.16-.92.06-1.86.62-2.6.38-.51.72-.77.72-.77,2.03-1.78,2.66-4.25,2.84-5.22.03-.15.23-.21.33-.09.77.89,3.18,3.31,6.87,3.86,3.52.51,5.17,2.83,4.7,5.52-.77,2.98-3.06,5.31-5.95,6.05v1.086c4.787-.166,7.022-.945,8.049-1.569.53-.322.863-.89.877-1.51.034-1.437,0-2.818-.082-4.115-.144-2.302-.44-4.336-.791-5.911-.186-.835-.388-1.543-.59-2.094Z" fill="#ffdb87"/><path d="m28.02,19.15c.47-2.69-1.18-5.01-4.7-5.52-3.69-.55-6.1-2.97-6.87-3.86-.1-.12-.3-.06-.33.09-.18.97-.81,3.44-2.84,5.22,0,0-.34.26-.72.77-.56.74-.78,1.68-.62,2.6.56,3.27,2.93,5.88,5.99,6.72v2.8c0,1.15.92,2.08,2.07,2.08s2.07-.93,2.07-2.08v-2.77c2.89-.74,5.18-3.07,5.95-6.05Z" fill="#ffb582"/><g><ellipse cx="17.571" cy="16.705" rx=".918" ry="1.102"/><ellipse cx="22.418" cy="16.705" rx=".918" ry="1.102"/></g><path d="m21.137,21.544c.206,0,.352.198.297.396-.174.633-.753,1.097-1.44,1.097s-1.267-.465-1.44-1.097c-.054-.198.092-.396.297-.396h2.286Z" fill="#5c2f17"/></g><path d="m30.952,14.113c-.036-6.019-4.924-10.889-10.952-10.889s-10.915,4.869-10.952,10.889c2.449-1.53,6.436-2.531,10.952-2.531s8.503,1,10.952,2.531Z" fill="#ff9d00"/><path d="m32.76,16.38c0,.16-.03.32-.06.47-.58-2.69-6.04-4.79-12.7-4.79s-12.12,2.1-12.7,4.79c-.03-.15-.06-.31-.06-.47,0-2.2,3.26-4.08,7.89-4.88l-.54-5.85c-.1-.98.46-1.9,1.36-2.3,1.25-.55,2.62-.85,4.05-.85s2.8.3,4.05.85c.9.4,1.46,1.32,1.36,2.3l-.54,5.85c4.63.8,7.89,2.68,7.89,4.88Z" fill="#fb0"/><g><polygon points="27.588 28.654 24.731 27.569 22.633 37.5 25.325 37.5 27.301 28.545 27.588 28.654" fill="#ff8400"/><path d="m28.821,29.245c.201.116.386.255.576.386-.191-.131-.375-.27-.576-.386Z" fill="#ff8400"/><path d="m29.844,29.946l-1.559,7.554h2.945l.754-5.177c-.559-.922-1.293-1.718-2.14-2.377Z" fill="#ff8400"/><path d="m29.846,29.932c-.142-.11-.301-.199-.449-.301-.191-.131-.375-.27-.576-.386-.393-.227-.802-.428-1.233-.591l-.287-.109-1.976,8.955h2.959l1.559-7.554.003-.014Z" fill="#fb0"/><path d="m8.009,32.323l.754,5.177h2.945l-1.559-7.554c-.847.66-1.581,1.455-2.14,2.377Z" fill="#ff8400"/><polygon points="12.405 28.654 12.692 28.545 14.668 37.5 17.36 37.5 15.262 27.569 12.405 28.654" fill="#ff8400"/><path d="m10.596,29.631c.191-.131.375-.27.576-.386-.202.115-.385.255-.576.386Z" fill="#ff8400"/><path d="m12.405,28.654c-.43.164-.84.364-1.233.591-.201.116-.386.255-.576.386-.149.102-.308.19-.45.301l.003.014,1.559,7.554h2.959l-1.976-8.955-.287.109Z" fill="#fb0"/></g></g><rect width="40" height="40" fill="none"/></svg>