<?xml version="1.0" encoding="UTF-8"?><svg id="Layer_1" xmlns="http://www.w3.org/2000/svg" viewBox="0 0 40 40"><g><path d="m16.808,28.603h-.006s1.749,7.897,1.749,7.897h6.746s-1.025-2.944-3.054-3.085l-.016-.568-2.449-1.026c-.252-.105-.24-.466.018-.555l2.361-.81-.057-1.978c-1.594.34-3.54.54-5.292.123Z" fill="#d47d13"/><polygon points="31.433 33.436 34.442 23.593 29.447 26.249 31.433 33.436" fill="#d47d13"/></g><path d="m34.95,19.63l-2.89-.85c-.27-.08-.29-.45-.04-.56l2.57-1.1c-.1-.38-.21-.76-.34-1.14l-.94-2.58c.12-.13.24-.26.34-.41-.22.27-.45.51-.71.73-.02.02-.04.03-.05.05l-.67-.92c-.08-.12-.03-.28.11-.32.49-.13,1.48-.4,1.91-.5.02-.04.04-.09.06-.13-.33-.15-1.1-.48-1.53-.67-.14-.06-.17-.24-.05-.34l1.17-.99c.12-.1.08-.29-.07-.35l-1.04-.37c-.15-.05-.19-.23-.08-.34l1.46-1.4.02.01c-.22-.54-.53-1.03-.91-1.45.45-.83.27-1.89-.48-2.52-.86-.73-2.15-.62-2.87.24l-.47.56h-2.6l-.47-.56c-.73-.86-2.01-.97-2.87-.24-.76.64-.93,1.71-.46,2.55-.37.42-.67.89-.89,1.42l.02-.01,1.45,1.4c.11.11.07.29-.07.34l-1.05.37c-.15.06-.18.25-.06.35l1.17.99c.11.1.09.28-.06.34-.43.19-1.2.51-1.52.67.02.04.04.09.06.13.43.1,1.41.37,1.9.5.14.04.2.2.11.32l-.66.92c-.31-.26-.59-.56-.84-.89.11.17.23.32.37.47l-11.6,10.63c-.1,0-.2.01-.3.06-.76.32-1.57.48-2.4.48-3.39,0-6.14-2.75-6.14-6.14s2.75-6.13,6.14-6.13c.41,0,.75-.34.75-.76,0-.41-.34-.75-.75-.75-4.22,0-7.65,3.43-7.65,7.64s3.43,7.65,7.65,7.65c.69,0,1.37-.1,2.02-.28l-2.48,7.27,1.87,1.45c.2.16.13.47-.11.53l-2.64.59-.31.91h6.85s.18-2.3-1.81-3.01c0,0,.31-.18.74-.49l-.8-2.7c-.06-.23.15-.45.38-.37l2.71.89c.53-.73.92-1.57.91-2.46.26.1.53.18.8.24,1.75.42,3.7.22,5.29-.12.42-.09.81-.19,1.18-.29l-1.32-3.18.17.02,2.86.32c.23.03.35.29.21.48l-1.86,2.52,2.99,8.15h7.69s-.5-2.79-2.59-3.06l-.16-.59-2.69-.59c-.33-.07-.42-.49-.15-.7l2.04-1.59-1.02-3.72,4.99-2.66c.4-1.29.56-2.63.51-3.96Zm-20.7,4.97l-2.38-1.04,2-1.84.78,2.52c.08.24-.17.46-.4.36Zm4.65-3.03l-3.35-1.39,2.23-2.03,1.5,3.01c.12.25-.12.51-.38.41Zm5.2-3.77c-1.49-.03-3.46-.99-4.35-1.46l2.2-2.01c.68.95,1.79,2.3,2.37,2.98.16.2.02.5-.22.49Zm1.96-9.13c0-.31.25-.56.56-.56.32,0,.57.25.57.56,0,.32-.25.57-.57.57-.31,0-.56-.25-.56-.57Zm3.43,4.71c-.11.01-.22.02-.33.02h-1.99c-.11,0-.22-.01-.32-.02.73-.4,1.06-1,1.21-1.4-.14,0-.28-.03-.4-.09-.48-.18-.81-.61-.81-1.11,0-.05.01-.1.02-.16h-.01l.02-.08v-.01l.28-1.56h.01c.06-.45.48-.8,1-.8.51,0,.93.35,1,.8h.01l.28,1.55c0,.02,0,.03.01.05l.01.09c0,.04.01.08.01.12,0,.5-.33.93-.81,1.11-.13.06-.26.09-.4.09.15.4.48.99,1.21,1.4Zm.26-4.14c-.31,0-.56-.25-.56-.57,0-.31.25-.56.56-.56.32,0,.57.25.57.56,0,.32-.25.57-.57.57Z" fill="#ffc450"/><path d="m27.165,8.973h-.004l-.285,1.56s0,.002,0,.004l-.016.087h.006c-.007.051-.017.102-.017.155h0c0-.042.007-.083.014-.124.366-.111.815-.179,1.307-.179.495,0,.946.069,1.313.181l-.016-.088c-.003-.017-.005-.034-.009-.05l-.28-1.546h-.005c-.069-.454-.49-.804-1.004-.804s-.935.351-1.004.804Z" fill="#ff8934"/><g><path d="m29.49,10.78c0,.5-.33.93-.81,1.11-.16.07-.33.1-.51.1s-.36-.03-.51-.1c-.48-.18-.81-.61-.81-1.11,0-.04.01-.08.01-.12.37-.12.82-.18,1.31-.18s.95.07,1.31.18c0,.04.01.08.01.12Z"/><circle cx="26.623" cy="8.674" r=".566"/><circle cx="29.754" cy="8.674" r=".566"/></g><g><path d="m21.95,14.327l-2.199,2.014c.885.473,2.86,1.434,4.344,1.461.249.004.381-.295.221-.486-.574-.685-1.685-2.031-2.367-2.988Z" fill="#422709"/><path d="m19.281,21.16l-1.505-3.01-2.222,2.035,3.348,1.383c.254.105.502-.162.379-.407Z" fill="#422709"/><path d="m13.873,21.725l-2.002,1.833,2.378,1.043c.233.102.478-.117.403-.36l-.779-2.516Z" fill="#422709"/><path d="m32.058,18.78l2.896.849.013.004c-.006-.165-.032-.329-.046-.494-.013-.163-.025-.326-.045-.488-.023-.192-.052-.383-.084-.573-.036-.209-.078-.416-.125-.623-.025-.112-.039-.225-.068-.337l-.009.004-2.566,1.1c-.256.11-.234.48.033.558Z" fill="#422709"/><path d="m28.584,32.262l2.685.591-.8-2.884-2.044,1.588c-.267.207-.171.631.159.704Z" fill="#422709"/><path d="m25.201,25.825c.135-.184.021-.446-.206-.471l-2.867-.325-.172-.02,1.32,3.181.066.159.002-.003,1.857-2.521Z" fill="#422709"/><path d="m19.778,31.822l2.449,1.026.014.006-.069-2.401-.014.005-2.361.81c-.258.089-.27.449-.018.555Z" fill="#422709"/><path d="m12.014,30.296l.801,2.704.007.023c.652-.465,1.602-1.234,2.3-2.192l-.023-.007-2.707-.894c-.228-.075-.446.136-.378.366Z" fill="#422709"/><path d="m10.092,34.471l-1.876-1.448h0l-.878,2.571h0l2.638-.595c.247-.056.317-.373.117-.528Z" fill="#422709"/><g><path d="m24.114,12.846c.083-.116.026-.279-.111-.316-.488-.132-1.473-.397-1.905-.504.324.683.788,1.276,1.352,1.746l.665-.926Z" fill="#422709"/><path d="m23.616,10.888l-1.168-.985c-.121-.102-.085-.296.063-.349l1.047-.372c.143-.051.183-.235.073-.34l-1.456-1.4-.018.005-.027.008c-.029.07-.059.139-.085.211l-.149.418c-.194.542-.292,1.109-.298,1.677-.006.556.076,1.112.25,1.648.054.165.118.324.187.481.001.003.002.005.003.008h0c.327-.153,1.096-.483,1.527-.666.14-.06.167-.246.051-.344Z" fill="#422709"/><path d="m32.703,8.843c-.11.105-.07.289.073.34l1.047.372c.149.053.184.247.063.349l-1.168.985c-.117.098-.089.284.051.344.432.184,1.205.515,1.53.667h0s.001-.003.002-.005c.07-.158.135-.319.189-.485.174-.536.256-1.092.25-1.648-.006-.568-.105-1.135-.298-1.677l-.149-.418c-.026-.071-.056-.14-.084-.21l-.027-.008-.023-.007-1.456,1.4Z" fill="#422709"/><path d="m32.22,12.846l.666.928c.566-.471,1.03-1.065,1.355-1.749-.43.106-1.42.372-1.909.505-.138.037-.195.2-.111.316Z" fill="#422709"/><path d="m28.279,11.981c-.038.004-.076.011-.115.011-.037,0-.072-.006-.107-.01-.144.399-.476.994-1.21,1.398.107.01.215.016.325.016h1.986c.113,0,.225-.007.336-.017-.732-.405-1.067-1-1.214-1.398Z" fill="#422709"/></g></g></svg>