<?xml version="1.0" encoding="UTF-8"?><svg id="Layer_1" xmlns="http://www.w3.org/2000/svg" viewBox="0 0 40 40"><g><path d="m20,2.5c-8.765,0-15.871,7.453-15.871,16.648,0,5.353,4.788,11.63,9.875,15.633,2.209,1.738,4.185,2.601,5.996,2.719,1.811-.117,3.787-.981,5.996-2.719,5.087-4.004,9.875-10.28,9.875-15.633,0-9.194-7.106-16.648-15.871-16.648Z" fill="#afafff"/><g><ellipse cx="14.127" cy="20.5" rx="4.305" ry="5.733" transform="translate(-10.358 15.993) rotate(-45)" fill="#404066"/><ellipse cx="25.874" cy="20.5" rx="5.733" ry="4.305" transform="translate(-6.918 24.3) rotate(-45)" fill="#404066"/></g><path d="m21.795,27.677c.356,0,.627.329.56.679-.251,1.303-1.21,2.273-2.355,2.273s-2.103-.97-2.355-2.273c-.067-.35.204-.679.56-.679h3.59Z" fill="#404066"/></g><rect width="40" height="40" fill="none"/></svg>