<?xml version="1.0" encoding="UTF-8"?><svg id="Layer_1" xmlns="http://www.w3.org/2000/svg" viewBox="0 0 40 40"><g><path d="m2.831,33.624S.775,11.024,11.705,6.233c0,0,3.005-4.355,9.711-3.658,6.706.697,11.828,5.862,13.543,10.538,1.278,3.484,2.542,10.858,2.342,19.404-.023.992-.556,1.901-1.404,2.417-1.85,1.125-6.138,2.565-15.962,2.565-16.112,0-17.104-3.876-17.104-3.876Z" fill="#f2f2f2"/><path d="m25.016,17.246c-5.916-.879-9.764-4.798-10.996-6.232-.168-.195-.484-.11-.53.143-.287,1.568-1.307,5.557-4.55,8.449,0,0-.544.416-1.154,1.234-.895,1.202-1.248,2.732-.994,4.209,1.108,6.455,6.504,11.355,12.997,11.355,6.103,0,11.237-4.329,12.753-10.209.754-4.368-1.891-8.111-7.526-8.949Z" fill="#ffb582"/><ellipse cx="15.809" cy="22.107" rx="1.47" ry="1.764"/><ellipse cx="23.569" cy="22.107" rx="1.47" ry="1.764"/><path d="m21.518,29.855c.329,0,.563.316.476.634-.278,1.013-1.205,1.757-2.306,1.757s-2.028-.744-2.306-1.757c-.087-.318.147-.634.476-.634h3.66Z" fill="#5c2f17"/></g><rect width="40" height="40" fill="none"/></svg>