<?xml version="1.0" encoding="UTF-8"?><svg id="Layer_1" xmlns="http://www.w3.org/2000/svg" viewBox="0 0 40 40"><g><g><g><path d="m18.8,30.691c-2.232-1.383-4.597-2.343-5.474-2.678v.422c0,.072-.042.141-.106.174-1.069.544-2.077.151-2.396-.002-.065-.032-.104-.096-.104-.169v-.491c-.682.255-3.244,1.254-5.65,2.745-2.805,1.738-2.647,6.772-2.647,6.772h19.023s.158-5.034-2.647-6.772Z" fill="#482ec5"/><path d="m6.729,22.601c-.104-.606.041-1.234.408-1.728.25-.336.473-.507.473-.507,1.331-1.187,1.75-2.824,1.867-3.467.019-.104.149-.139.217-.059.506.589,2.085,2.197,4.513,2.558,2.312.344,3.398,1.88,3.089,3.673-.513,1.992-2.045,3.532-3.97,4.016v.607c3.176-.105,4.666-.616,5.346-1.029.35-.212.571-.586.58-.995.082-3.508-.437-6.536-.962-7.967-.704-1.92-2.807-4.041-5.56-4.327-2.753-.286-3.987,1.502-3.987,1.502-3.931,1.723-3.771,9.058-3.67,10.85.02.357.194.689.49.889.608.411,2,.947,5.158,1.071v-.625c-2.036-.545-3.617-2.277-3.993-4.463Z" fill="#ff9000"/><path d="m14.21,19.4c-2.43-.36-4.01-1.97-4.51-2.56-.07-.08-.2-.04-.22.06-.12.64-.54,2.28-1.87,3.47,0,0-.22.17-.47.5-.37.5-.52,1.13-.41,1.73.37,2.19,1.96,3.92,3.99,4.46v1.38c0,.07.04.13.1.17.32.15,1.33.54,2.4,0,.06-.03.11-.1.11-.18v-1.34c1.92-.49,3.45-2.03,3.97-4.02.31-1.79-.78-3.33-3.09-3.67Zm-2.91,5.19h1.48c.13,0,.23.13.19.26-.11.41-.48.71-.93.71s-.82-.3-.93-.71c-.04-.13.06-.26.19-.26Zm-.87-2.47c-.33,0-.6-.33-.6-.73s.27-.72.6-.72.6.32.6.72-.27.73-.6.73Zm3.18,0c-.33,0-.6-.33-.6-.73s.27-.72.6-.72c.34,0,.61.32.61.72s-.27.73-.61.73Z" fill="#ffc84d"/><path d="m10.429,20.67c-.333,0-.603.324-.603.724s.27.724.603.724.603-.324.603-.724-.27-.724-.603-.724Z"/><path d="m13.614,20.67c-.333,0-.603.324-.603.724s.27.724.603.724.603-.324.603-.724-.27-.724-.603-.724Z"/><path d="m12.78,24.593h-1.481c-.134,0-.229.128-.193.257.113.41.488.711.934.711s.821-.301.934-.711c.035-.129-.06-.257-.193-.257Z" fill="#5c2f17"/></g><g><path d="m34.929,30.691c-2.232-1.383-4.597-2.343-5.474-2.678v.422c0,.072-.042.141-.106.174-1.069.544-2.077.151-2.396-.002-.065-.032-.104-.096-.104-.169v-.491c-.682.255-3.244,1.254-5.65,2.745-2.805,1.738-2.647,6.772-2.647,6.772h19.023s.158-5.034-2.647-6.772Z" fill="#482ec5"/><path d="m22.858,22.601c-.104-.606.041-1.234.408-1.728.25-.336.474-.507.474-.507,1.331-1.187,1.75-2.824,1.867-3.467.019-.104.149-.139.217-.059.506.589,2.085,2.197,4.513,2.558,2.312.344,3.398,1.88,3.089,3.673-.513,1.992-2.045,3.532-3.97,4.016v.607c3.176-.105,4.666-.617,5.346-1.029.35-.212.57-.586.58-.995.082-3.508-.437-6.536-.962-7.967-.704-1.92-2.807-4.041-5.56-4.327-2.753-.286-3.987,1.502-3.987,1.502-3.931,1.723-3.771,9.058-3.67,10.85.02.357.194.689.49.889.608.411,2.001.947,5.158,1.071v-.625c-2.036-.545-3.617-2.277-3.993-4.463Z" fill="#ff9000"/><path d="m30.34,19.4c-2.43-.36-4.01-1.97-4.52-2.56-.06-.08-.19-.04-.21.06-.12.64-.54,2.28-1.87,3.47,0,0-.22.17-.47.5-.37.5-.52,1.13-.41,1.73.37,2.19,1.95,3.92,3.99,4.46v1.38c0,.07.04.13.1.17.32.15,1.33.54,2.4,0,.06-.03.11-.1.11-.18v-1.34c1.92-.49,3.45-2.03,3.97-4.02.31-1.79-.78-3.33-3.09-3.67Zm-2.91,5.19h1.48c.13,0,.23.13.19.26-.11.41-.49.71-.93.71-.45,0-.82-.3-.94-.71-.03-.13.06-.26.2-.26Zm-.87-2.47c-.33,0-.6-.33-.6-.73s.27-.72.6-.72.6.32.6.72-.27.73-.6.73Zm3.18,0c-.33,0-.6-.33-.6-.73s.27-.72.6-.72c.34,0,.61.32.61.72s-.27.73-.61.73Z" fill="#ffc84d"/><path d="m26.558,20.67c-.333,0-.603.324-.603.724s.27.724.603.724.603-.324.603-.724-.27-.724-.603-.724Z"/><path d="m29.743,20.67c-.333,0-.603.324-.603.724s.27.724.603.724.603-.324.603-.724-.27-.724-.603-.724Z"/><path d="m28.909,24.593h-1.481c-.134,0-.229.128-.193.257.113.41.488.711.934.711s.821-.301.934-.711c.035-.129-.06-.257-.193-.257Z" fill="#5c2f17"/></g></g><path d="m19.318,13.941c.415.274.95.274,1.365,0,1.317-.87,4.186-2.948,5.421-5.274,1.629-3.069-.284-6.129-2.813-6.129-1.442,0-2.309.753-2.789,1.401-.253.341-.752.341-1.005,0-.479-.648-1.347-1.401-2.789-1.401-2.528,0-4.442,3.061-2.813,6.129,1.235,2.326,4.105,4.404,5.421,5.274Z" fill="#ec4452"/></g><rect y="0" width="40" height="40" fill="none"/></svg>