<?xml version="1.0" encoding="UTF-8"?><svg id="Layer_1" xmlns="http://www.w3.org/2000/svg" viewBox="0 0 40 40"><g><path d="m36.572,7.714l-.995,2.036c-.29.594-1.074.734-1.553.278h0c-.465-.443-.383-1.207.165-1.541l1.934-1.181c.27-.165.587.125.449.408Z" fill="#d0d5da"/><path d="m3.376,32.521c.955.071,1.061,1.662,1.061,1.662H1.5l.002-5.942s-.071-2.122.707-3.395c.778-1.273.098-3.172.098-3.172,0,0-1.33-6.765-.282-9.102,1.048-2.337,3.748-2.297,6.649-2.176,2.915.121,12.581.956,20.119-1.908l1.922-.743c1.034-.339,2.592-.501,3.474.741.381.536,1.153,1.473,1.625,2.17.281.414,1.157,1.394,1.744,2.1.394-.045.51.115.777.381.306.306.128.576-.071.898-.082.13-1.329,1.952-1.329,1.952-.139.19-.364.292-.597.262-.364-.047-.959-.167-1.657-.469-.629-.272-1.351-.302-1.99-.057-.686.263-1.617.444-2.385-.038-.113-.071-.259-.019-.281.113l-.655,3.906c-.38,2.27-1.757,4.282-3.797,5.349-.535.28-.904.394-.904.394,0,0,.283,2.264.318,3.36.035,1.097.283,3.396,1.061,3.643s.884,1.733.884,1.733h-3.113c-.035-3.395-1.415-5.518-1.415-5.518-.637.743-.637,3.961-.637,3.961,1.132.283.884,1.556.884,1.556h-2.971c.475-2.013.199-6.19.063-7.853-.03-.362-.391-.594-.739-.487-4.747,1.457-7.641.67-8.578.314-.21-.08-.441-.01-.58.167l-.779.995c-.63.805-.921,1.825-.8,2.84.112.937.305,1.961.625,2.151.955.566.637,1.875.637,1.875h-2.759s-1.521-7.923-1.521-7.923c0,0-2.83,6.19-1.875,6.26Z" fill="#afb7c0"/><path d="m30.809,9.726c-.056.895-.439,3.349-2.915,4.872-.159.098-.372.033-.45-.137-.374-.816-1.091-3.08,1.554-4.589l.167-.067,1.327-.337c.167-.042.328.085.317.258Z" fill="#8a94a0"/><path d="m33.96,6.192l-.223,2.452c-.065.715-.807,1.161-1.469.883h0c-.643-.27-.855-1.077-.429-1.629l1.507-1.948c.21-.272.645-.101.613.241Z" fill="#d0d5da"/><circle cx="34.114" cy="10.374" r=".586"/></g><rect width="40" height="40" fill="none"/></svg>