<svg id="Layer_1" data-name="Layer 1" xmlns="http://www.w3.org/2000/svg" viewBox="0 0 40 40"><defs><style>.cls-1{fill:#e32939;}.cls-2{fill:#731019;}.cls-3{fill:#f56570;}.cls-4{fill:none;}</style></defs><path class="cls-1" d="M2.288,16A1.871,1.871,0,0,1,2.271,13.4l7.877-8.227a5.61,5.61,0,0,1,7.844-.254l.844.775a1.722,1.722,0,0,0,2.328,0l.844-.775a5.61,5.61,0,0,1,7.844.254L37.729,13.4A1.871,1.871,0,0,1,37.712,16L20.387,33.13Z"/><path class="cls-2" d="M32.781,15.529c0,1.684-5.692,3.049-12.713,3.049S7.355,17.213,7.355,15.529s5.691-4.265,12.713-4.265S32.781,13.845,32.781,15.529Z"/><path class="cls-3" d="M10.918,14.124h18.3a3.049,3.049,0,0,1,3.049,3.049v7.186a12.2,12.2,0,0,1-12.2,12.2h0a12.2,12.2,0,0,1-12.2-12.2V17.173a3.049,3.049,0,0,1,3.049-3.049Z"/><rect class="cls-4" width="40" height="40"/></svg>