<?xml version="1.0" encoding="UTF-8"?><svg id="Layer_1" xmlns="http://www.w3.org/2000/svg" viewBox="0 0 40 40"><g><path d="m30.518,21.224l4.536-2.736c.752-.453.43-1.609-.448-1.609h-5.221c.642,1.262,1.041,2.718,1.13,4.342l.004.002Z" fill="#ffb142"/><path d="m35.054,23.96l-4.536-2.736-.004-.002c.007.131.022.258.025.391v.178c-.008,1.309-.201,2.57-.523,3.778h4.59c.878,0,1.199-1.155.448-1.609Z" fill="#ffb142"/></g><path d="m30.54,21.613c-.003-.133-.018-.26-.025-.391-.089-1.625-.487-3.08-1.13-4.342-1.018-2.001-2.631-3.519-4.518-4.493-.527.151-1.088.24-1.672.26,0,.003,0,.006,0,.009h-8.977c-1.606.984-3.01,2.452-4.002,4.466l-5.017,10.186c-2.121,4.306,1.013,9.343,5.813,9.343h4.582c2.803,0,5.417-.786,7.659-2.129,3.235-1.938,5.672-5.057,6.715-8.772.017-.06.031-.12.047-.18.323-1.208.515-2.47.523-3.778v-.178Zm-7.254-3.261c0-.973.788-1.761,1.761-1.761s1.761.788,1.761,1.761-.788,1.761-1.761,1.761-1.761-.788-1.761-1.761Z" fill="#e7e7e7"/><g><path d="m23.255,34.521l.005.005c2.105,2.163,5.566,2.21,7.729.104s2.209-5.566.104-7.729l-1.122-1.152c-1.043,3.715-3.48,6.834-6.715,8.772Z" fill="#e80000"/><path d="m23.196,12.646c.584-.019,1.145-.108,1.672-.26,2.231-.64,3.833-2.369,3.833-4.408,0-2.344-2.114-4.285-4.873-4.624-.459-.056-.863.313-.863.775v6.733c.145.573.229,1.168.23,1.784Z" fill="#e80000"/><path d="m15.289,8.823c-.543-.276-1.145-.444-1.79-.444-1.956,0-3.593,1.424-4.006,3.331-.105.484.248.947.744.947h5.053v-3.833Z" fill="#e80000"/><path d="m15.289,12.656h7.908s0-.006,0-.009c0-.615-.085-1.211-.23-1.784-.774-3.065-3.477-5.406-6.809-5.755-.462-.048-.868.312-.868.776v6.772Z" fill="#e80000"/></g><path d="m25.047,20.113c.973,0,1.761-.788,1.761-1.761s-.788-1.761-1.761-1.761-1.761.788-1.761,1.761.788,1.761,1.761,1.761Z"/><rect width="40" height="40" fill="none"/></svg>