<?xml version="1.0" encoding="UTF-8"?><svg id="Layer_1" xmlns="http://www.w3.org/2000/svg" viewBox="0 0 40 40"><g><path d="M26.16583,28.79189c-.09045-.11013-.27652,.03122-.26976,.17357l.25283,5.32561c.01705,.35921-.26958,.65978-.6292,.65978h-2.48002c-.27566,0-.51929-.17923-.60135-.44239l-2.06863-6.63379c-.01435-.04602-.06065-.06421-.10668-.04989-3.26468,1.01568-7.00243,1.43043-10.73193-.07031l-.09483,6.13186c.0453,.57386-.40815,1.06453-.9838,1.06453h-2.01515c-.26444,0-.49837-.15867-.58919-.40703-.49546-1.35498-2.98894-5.65738-3.93207-10.56467-1.40033-7.2862,.17866-15.13705,13.4602-15.13705,10.24863,0,15.36158,6.37494,15.36158,6.37494,3.30065-.44337,5.01723,.44471,6.21737,1.62463,.53933,.53024,.15422,1.15784-.70134,1.79238l-1.79181,.9806c-.23892,.04452-.41177,.27338-.37516,.51364,.50695,3.32664,2.97842,5.18748,4.16021,5.8941,.24401,.1459,.32316,.45401,.18574,.7029l-1.3997,2.53525c-.22702,.4112-.71222,.60566-1.16039,.46506l-1.02921-.35991s-4.77574,4.17691-8.67773-.5738Z" style="fill:#ffb5ad;"/><path d="M2.85782,9.66454c-.18727,1.01768,.14656,2.17564,.92564,3.03386,.74732,.82374,1.85633,1.39883,3.29632,1.70867,.04012,.00778,.08083,.01219,.12037,.01219,.26304,0,.4999-.18279,.55733-.45024,.06631-.30868-.12984-.61178-.43806-.67867-1.20151-.25747-2.10705-.71562-2.69109-1.35864-.35612-.39242-.62753-.95857-.67543-1.52925,.48927,.16153,1.01535,.16724,1.48348-.01011,.32319-.12264,.58014-.31866,.74343-.56614,.36163-.55175,.22292-1.35203-.30932-1.78658-.44415-.36118-1.09786-.44143-1.66738-.20302-.29143,.12264-.55726,.32553-.77687,.58857-.10365-.2585-.15991-.55279-.1605-.86263-.0011-.50495,.13489-1.06565,.41628-1.71541,.12484-.28858-.00778-.62409-.29701-.7501-.29143-.12705-.62526,.00778-.75069,.29766-.34491,.79574-.51156,1.50578-.50988,2.17006,.0022,.80468,.26751,1.55919,.73338,2.0998Zm1.35254-.38452c.12147-.18616,.27251-.32319,.4352-.39126,.07467-.03111,.15609-.04667,.23407-.04667,.10475,0,.20289,.02774,.26972,.08245,.08472,.06897,.11538,.21507,.07694,.27406-.02846,.04356-.10144,.09153-.19453,.12601-.25189,.09593-.5489,.07364-.82141-.0446Z" style="fill:#ffb5ad;"/><circle cx="32.5747" cy="23.84593" r="1.1864"/></g><rect width="40" height="40" style="fill:none;"/></svg>