<svg id="Layer_1" data-name="Layer 1" xmlns="http://www.w3.org/2000/svg" viewBox="0 0 40 40"><defs><style>.cls-1{fill:#2e3d51;}.cls-2,.cls-5{fill:none;}.cls-2{stroke:#2e3d51;stroke-linecap:round;stroke-miterlimit:10;stroke-width:1.419px;}.cls-3{fill:#ffc84d;}.cls-4{fill:#d0d6de;}</style></defs><ellipse class="cls-1" cx="26.778" cy="12.444" rx="5.669" ry="6.378" transform="translate(-0.368 24.063) rotate(-48.098)"/><path class="cls-2" d="M35.5,12.27s-4.295-1.679-6.746,1.053"/><path class="cls-2" d="M26.352,4.057s2.132,4.089-.319,6.82"/><path class="cls-1" d="M13.248,32.707,9.4,33.1A1.16,1.16,0,0,1,8.122,31.95L8.1,28.083Z"/><path class="cls-3" d="M23.163,12.551a5,5,0,0,0-3.986-.33c-4.047,1.716-8.149,3.4-9.671,5.1A9.6,9.6,0,0,0,23.8,30.141c1.521-1.695,2.947-5.9,4.025-10.165a5.2,5.2,0,0,0-.745-3.933"/><path class="cls-1" d="M13.4,14.7A38.021,38.021,0,0,0,25.916,26.143a13.629,13.629,0,0,1-2.121,4,9.617,9.617,0,0,1-2.24,1.843A29.812,29.812,0,0,1,7.931,19.713a9.573,9.573,0,0,1,1.576-2.394A13.975,13.975,0,0,1,13.4,14.7Z"/><path class="cls-4" d="M22.954,30.876A7.449,7.449,0,0,0,37.447,27.43c-.952-4-10.365-11.391-10.365-11.391S22,26.874,22.954,30.876Z"/><path class="cls-4" d="M8.868,18.236A7.448,7.448,0,0,1,10.73,3.456c4.081.514,12.443,9.075,12.443,9.075S12.949,18.751,8.868,18.236Z"/><rect class="cls-5" width="40" height="40"/></svg>