<svg id="Layer_1" data-name="Layer 1" xmlns="http://www.w3.org/2000/svg" viewBox="0 0 40 40"><defs><style>.cls-1{fill:#495b73;}.cls-2{fill:#7b91ad;}.cls-3{fill:#d0d6de;}.cls-4{fill:none;}</style></defs><path class="cls-1" d="M26.259,10.978s-14.935.087-18.767,1.568-5.923,6.184-5.923,12.8V36.736a.764.764,0,0,0,.764.764h7c1.289,0,1.164-1.411,1.164-1.411l.045-3.384a3.693,3.693,0,0,1,3.693-3.694h0a3.694,3.694,0,0,1,3.694,3.694v3.821a.974.974,0,0,0,.974.974h6.14a1.219,1.219,0,0,0,1.219-1.219Z"/><path class="cls-2" d="M33.557,28.291a3.661,3.661,0,0,1-2.1,2.279A3.511,3.511,0,0,1,26.818,27.7a11.1,11.1,0,0,1-.128-1.754h1.993s-.173,2.2.78,2.2,2.137-1.415,1.155-5.488-4.881-2.368-6.123-.519-3.932,4.572-6.762,1.833-7.027-13.416-2.464-19.3,9.705,2.113,9.705,2.113,7.032-.011,8.447,5.584S35.013,23.821,33.557,28.291Z"/><circle cx="27.879" cy="14.26" r="1.302"/><path class="cls-3" d="M26.8,20.369c1.362,3.968,4.356,8.75,11.382,7a.341.341,0,0,0-.021-.664,11.023,11.023,0,0,1-7.841-5.385,2.534,2.534,0,0,0-3.41-1.012Z"/><rect class="cls-4" width="40" height="40"/></svg>