<?xml version="1.0" encoding="UTF-8"?><svg id="Layer_1" xmlns="http://www.w3.org/2000/svg" viewBox="0 0 40 40"><g><path d="m21.078,6.65l7.601.184,2.941-2.289c.354-.275.872-.13,1.032.289l5.418,14.189c.245.754.554,3.062.378,4.673-1.029,7.241-8.892,11.901-18.448,11.901S2.581,30.937,1.552,23.696c-.177-1.61.133-3.919.378-4.673L7.348,4.834c.16-.419.679-.565,1.033-.289l2.94,2.289,7.601-.184h2.156Z" fill="#ffb5ad"/><rect width="40" height="40" fill="none"/></g><g><ellipse cx="16.173" cy="14.926" rx="1.898" ry="1.903"/><ellipse cx="23.827" cy="14.926" rx="1.898" ry="1.903"/><g><rect x="10.898" y="17.734" width="18.205" height="11.637" rx="5.811" ry="5.811" fill="#fa878f"/><g><ellipse cx="16.628" cy="23.567" rx="2.173" ry="2.429" fill="#e32939"/><ellipse cx="23.372" cy="23.567" rx="2.173" ry="2.429" fill="#e32939"/></g></g></g></svg>