<svg id="Layer_1" data-name="Layer 1" xmlns="http://www.w3.org/2000/svg" viewBox="0 0 40 40"><defs><style>.cls-1{fill:#d11800;}.cls-2{fill:#e7e7e7;}.cls-3{fill:#f2a630;}.cls-4{fill:none;}</style></defs><path class="cls-1" d="M34.089,7.761s1.767-.53,1.828-1.968-1.828-1.246-1.828-1.246-.338-2.795-2.45-2.769c-1.164,0-1.8,2-1.8,2s-1.653-.184-1.99.459S27.722,6.2,29.589,7.18A8.545,8.545,0,0,0,34.089,7.761Z"/><path class="cls-2" d="M34.37,8.615a3.371,3.371,0,0,0-2.412-3.1c-1.058-.282-2.372-.077-3.707,1.539a82.853,82.853,0,0,0-6.07,8.892.633.633,0,0,1-.993.122C19.419,14.3,13.806,9.3,8.34,10.811c-6.6,1.825-5.966,9.182-5.966,9.182l3.96-2.5a.424.424,0,0,1,.648.281c.446,2.575,2.881,12.141,14.4,12.141C33.375,29.917,34.828,16.729,34.37,8.615Z"/><path class="cls-1" d="M34.824,8.02S31.876,6.093,31.2,8.7s.34,7.652,3.344,7.482,3.106-3.679.964-4.931C34.08,10.418,34.824,8.02,34.824,8.02Z"/><path class="cls-3" d="M34.205,7.694l3.438,1.448-2.8,1.373-.032-.042a3.36,3.36,0,0,1-.61-2.779Z"/><circle cx="32.891" cy="8.977" r="0.741"/><rect class="cls-3" x="20.701" y="28.812" width="0.965" height="8.512" transform="translate(41.148 66.886) rotate(-177.913)"/><path class="cls-2" d="M13.7,23.812c-.925,3.062,6.058,8.695,7.338,9.081s7.069-5.82,7.993-8.882S25.671,22.19,24.391,21.8,14.629,20.749,13.7,23.812Z"/><path class="cls-3" d="M19.7,37.309c-.138-.163-.255-.506-.055-.579a10.925,10.925,0,0,1,1.887-.04l3.344.522a.509.509,0,0,1-.156,1l-3.36-.524Z"/><path class="cls-3" d="M21.137,37.644a.517.517,0,0,0,.215-.047L24.7,36.045a.509.509,0,0,0-.429-.923l-3.232,1.5-3.755-.136a.465.465,0,0,0-.527.489.511.511,0,0,0,.49.528l3.877.14Z"/><rect class="cls-4" width="40" height="40"/></svg>