<?xml version="1.0" encoding="UTF-8"?><svg id="Layer_1" xmlns="http://www.w3.org/2000/svg" viewBox="0 0 40 40"><g><path d="m14.899,12.596c-.099-.577.039-1.174.388-1.644.238-.319.45-.482.45-.482,1.266-1.129,1.664-2.686,1.776-3.298.018-.099.141-.132.207-.056.481.56,1.983,2.09,4.293,2.433,2.2.327,3.232,1.788,2.938,3.493-.403,1.563-1.469,2.83-2.856,3.489.623.156,1.216.382,1.774.661,1.246-.203,1.982-.49,2.392-.739.331-.201.539-.556.548-.944.078-3.336-.416-6.215-.914-7.575-.67-1.825-2.669-3.842-5.287-4.114-2.618-.272-3.791,1.428-3.791,1.428-4.267,1.87-3.464,10.693-3.464,10.693,0,0,.215.787,2.694,1.225.56-.276,1.156-.497,1.781-.649-1.505-.725-2.627-2.168-2.928-3.923Z" fill="#f80"/><path d="m28.242,22.86c-.461-2.464-2.115-4.534-4.373-5.666-.558-.28-1.15-.505-1.774-.661-.649.309-1.363.496-2.123.496-.769,0-1.49-.194-2.145-.509-.625.152-1.221.373-1.781.649-2.243,1.106-3.899,3.131-4.399,5.552v-.011s-2.784,13.498-2.784,13.498h5.713c0-2.19,1.301-4.073,3.171-4.928-.248-.156-.481-.333-.691-.537l-.218.673c-.091.281-.425.398-.672.235l-.851-.563c-.258-.171-.269-.545-.022-.731l.958-.718c-.04-.077-.088-.148-.123-.227-.934-.002-1.691-.713-1.691-1.59,0-.503.254-.946.642-1.237-.029,0-.049.003-.049.003-.01-.225-.004-.455.018-.687.172-1.831,1.381-3.384,3.028-4.054.452-.184.948-.234,1.432-.169l.219.03c.085.011.171.01.256-.004l.428-.071c.262-.043.531-.035.787.037,2.093.582,3.626,2.535,3.592,4.817-.002,0-.005.001-.007,0,.468.283.779.774.779,1.335,0,.877-.757,1.588-1.691,1.59-.029.064-.069.122-.1.185l1.014.761c.247.186.236.56-.022.731l-.851.563c-.247.163-.581.046-.672-.235l-.236-.728c-.225.227-.481.42-.752.591,1.869.856,3.171,2.738,3.171,4.928h5.713l-2.893-13.348Z" fill="#482ec4"/><path d="m24.952,13.043c.294-1.705-.738-3.167-2.938-3.493-2.31-.343-3.812-1.873-4.293-2.433-.065-.076-.189-.043-.207.056-.112.612-.51,2.169-1.776,3.298,0,0-.212.162-.45.482-.35.469-.487,1.067-.388,1.644.301,1.755,1.424,3.198,2.928,3.923.656.316,1.376.509,2.145.509.76,0,1.473-.188,2.123-.496,1.387-.659,2.453-1.926,2.856-3.489Zm-3.503-2.284c.317,0,.574.308.574.688s-.257.688-.574.688-.574-.308-.574-.688.257-.688.574-.688Zm-2.229,3.713h1.429c.129,0,.22.124.186.248-.109.395-.47.686-.9.686s-.792-.291-.9-.686c-.034-.124.057-.248.186-.248Zm-.8-3.713c.317,0,.574.308.574.688s-.257.688-.574.688-.574-.308-.574-.688.257-.688.574-.688Z" fill="#ffc84d"/><path d="m18.419,12.135c.317,0,.574-.308.574-.688s-.257-.688-.574-.688-.574.308-.574.688.257.688.574.688Z"/><path d="m21.449,12.135c.317,0,.574-.308.574-.688s-.257-.688-.574-.688-.574.308-.574.688.257.688.574.688Z"/><path d="m19.934,15.405c.43,0,.792-.291.9-.686.034-.124-.057-.248-.186-.248h-1.429c-.129,0-.22.124-.186.248.108.395.47.686.9.686Z" fill="#5c2f17"/></g><g><path d="m22.252,31.279c-.654.412-1.422.66-2.252.66s-1.598-.248-2.252-.66c-1.869.856-3.171,2.738-3.171,4.928h10.845c0-2.19-1.301-4.073-3.171-4.928Z" fill="#f56570"/><path d="m16.252,29.639l-.958.718c-.247.186-.236.56.022.731l.851.563c.247.163.581.046.672-.235l.218-.673c-.328-.318-.593-.694-.805-1.103Z" fill="#f80"/><path d="m23.24,31.416c.091.281.425.398.672.235l.851-.563c.258-.171.269-.545.022-.731l-1.014-.761c-.202.402-.452.775-.766,1.091l.236.728Z" fill="#f80"/><path d="m24.78,26.49c-.11-.03-.23.12-.38.2-.05.03-.11.04-.16.05-.52.06-.99-.02-1.41-.17-1.89-.67-2.81-3-2.81-3-.5,1.01-1.93,2.16-2.99,2.91-.69.49-1.22.81-1.22.81-.29-.64-.61-.71-.73-.71-.39.3-.64.74-.64,1.24,0,.88.75,1.59,1.69,1.59.03.08.08.15.12.23.21.41.48.78.81,1.1.21.21.44.38.69.54.65.41,1.42.66,2.25.66s1.6-.25,2.25-.66c.27-.17.53-.37.75-.59.32-.32.57-.69.77-1.09.03-.07.07-.12.1-.19.94,0,1.69-.71,1.69-1.59,0-.56-.31-1.05-.78-1.33Zm-5.97,1.55c-.25,0-.45-.24-.45-.54s.2-.54.45-.54.45.24.45.54-.2.54-.45.54Zm1.19,2.32c-.34,0-.62-.22-.71-.53-.02-.1.05-.2.15-.2h1.12c.1,0,.17.1.15.2-.09.31-.37.53-.71.53Zm1.19-2.32c-.25,0-.45-.24-.45-.54s.2-.54.45-.54.45.24.45.54-.2.54-.45.54Z" fill="#ffc84d"/><path d="m18.81,28.039c.249,0,.451-.242.451-.541s-.202-.541-.451-.541-.451.242-.451.541.202.541.451.541Z"/><path d="m21.19,28.039c.249,0,.451-.242.451-.541s-.202-.541-.451-.541-.451.242-.451.541.202.541.451.541Z"/><path d="m20,30.364c.338,0,.622-.228.707-.538.027-.098-.045-.195-.146-.195h-1.122c-.101,0-.173.097-.146.195.085.31.37.538.707.538Z" fill="#5c2f17"/><path d="m15.813,27.289s.529-.323,1.217-.812c1.055-.751,2.487-1.898,2.986-2.904,0,0,.924,2.322,2.812,3,.422.152.892.223,1.411.165.049-.005.106-.02.162-.044.146-.082.269-.231.382-.206.002,0,.005-.001.007,0,.034-2.282-1.499-4.235-3.592-4.817-.256-.071-.525-.08-.787-.037l-.428.071c-.085.014-.171.015-.256.004l-.219-.03c-.484-.065-.98-.015-1.432.169-1.647.67-2.856,2.224-3.028,4.054-.022.232-.027.461-.018.687,0,0,.02-.003.049-.003.117,0,.438.063.733.704Z" fill="#f80"/></g></svg>