<svg id="Layer_1" data-name="Layer 1" xmlns="http://www.w3.org/2000/svg" viewBox="0 0 40 40"><defs><style>.cls-1{fill:#ff2e57;}.cls-2{fill:none;}</style></defs><path id="SVGID" class="cls-1" d="M8.087,34.814a.824.824,0,0,1-.8-.7l-3.6-21.279A6.441,6.441,0,0,1,10.1,5.191l1.525.062a.733.733,0,0,1,.676.584c.662,2.934,4.388,16.516,17.2,20.129,3.018.883,6.552,2.484,6.909,7.923a.846.846,0,0,1-.814.925H20.536a.814.814,0,0,1-.74-.5L15.4,24.305a2.833,2.833,0,0,0-5.436,1.277l.1,8.371a.833.833,0,0,1-.813.861Z"/><rect class="cls-2" width="40" height="40"/></svg>