<?xml version="1.0" encoding="UTF-8"?><svg id="Layer_1" xmlns="http://www.w3.org/2000/svg" viewBox="0 0 40 40"><rect width="40" height="40" fill="none"/><g><path d="m32.124,5.623H10.767c-.845,0-1.646.356-2.193.946-.013.015-.025.031-.038.046-.086.097-.166.2-.237.309-.066.104-.124.212-.176.325-.017.035-.038.068-.054.104-.084.201-.137.416-.172.637-.026.169-.042.337-.039.5.002.076.015.148.022.223.013.127.027.253.056.374.019.078.045.151.07.226.037.111.076.22.126.324.035.073.074.142.114.211.057.097.119.191.188.281.048.063.098.125.152.184.076.084.158.161.243.235.059.052.118.103.181.15.094.069.196.128.299.185.066.036.129.076.198.107.118.053.243.092.369.129.062.018.122.043.186.058.194.042.394.068.6.068h21.461c.992,0,1.796.804,1.796,1.796v-5.621c0-.992-.804-1.796-1.796-1.796Z" fill="#e5e8eb"/><path d="m10.838,13.04c-2.628,0-4.759-2.131-4.759-4.759v23.437c0,2.448,1.984,4.431,4.431,4.431h21.613c.992,0,1.796-.804,1.796-1.796V13.04H10.838Z" fill="#23b169"/><path d="m7.9,7.99c-.03.17-.05.34-.04.5,0,.08.01.15.02.22.01.13.03.26.06.38.01.07.04.15.07.22.03.11.07.22.12.33.04.07.08.14.12.21.05.1.12.19.18.28.05.06.1.12.16.18.07.09.15.16.24.24.06.05.12.1.18.15.1.07.2.13.3.18.07.04.13.08.2.11.12.05.24.09.37.13.06.02.12.04.18.06.2.04.4.06.6.06h21.46c1,0,1.8.81,1.8,1.8H10.84c-2.63,0-4.76-2.13-4.76-4.76,0-2.45,1.98-4.43,4.43-4.43h21.64c.98,0,1.77.79,1.77,1.77v1.8c0-.99-.8-1.8-1.8-1.8H10.77c-.85,0-1.65.36-2.2.95-.01.01-.02.03-.03.04-.09.1-.17.2-.24.31-.07.11-.12.22-.18.33-.01.03-.04.07-.05.1-.07.17-.13.34-.16.53-.01.03-.01.07-.01.11Z" fill="#03905a"/></g></svg>