<?xml version="1.0" encoding="UTF-8"?><svg id="Layer_1" xmlns="http://www.w3.org/2000/svg" viewBox="0 0 40 40"><g><path d="m7.415,3h21.767c1.508,0,2.732,1.224,2.732,2.732v18.021c0,7.311-5.936,13.247-13.247,13.247h-.737c-7.311,0-13.247-5.936-13.247-13.247V5.732c0-1.508,1.224-2.732,2.732-2.732Z" fill="#ff5543"/><circle cx="17.734" cy="13.158" r="3.78" fill="#fff"/><path d="m17.709,11.437l-4.266-5.741c-.323-.498.035-1.156.628-1.156h3.332c.302,0,.575.182.691.461l3.175,6.778h-2.932c-.254,0-.49-.129-.628-.342Z" fill="#1d1d1b"/><circle cx="19.491" cy="13.944" r="1.601" fill="#1d1d1b"/><circle cx="26.562" cy="13.058" r="3.78" fill="#fff"/><circle cx="28.319" cy="13.844" r="1.601" fill="#1d1d1b"/><path d="m20.292,22.686h-6.846c0,1.909,2.114,3.06,3.717,2.023l3.128-2.023Z" fill="#1d1d1b"/><path d="m26.532,11.437l4.266-5.741c.323-.498-.035-1.156-.628-1.156h-3.332c-.302,0-.575.182-.691.461l-3.175,6.778h2.932c.254,0,.49-.129.628-.342Z" fill="#1d1d1b"/><path d="m22.494,26.769c1.907,0,3.901.486,5.616,1.367.596.306.831,1.038.524,1.633-.306.597-1.041.832-1.633.524-1.378-.708-2.979-1.099-4.507-1.099-1.512,0-2.962.379-4.429,1.159-.593.314-1.327.089-1.64-.501-.314-.592-.09-1.326.501-1.64,1.827-.971,3.648-1.444,5.568-1.444Z" fill="#ffed00"/><path d="m31.441,22.989c-.215,1.718-2.162,2.7-3.676,1.721l-2.661-1.721h-3.177l9.731,3.676c.166-.826.255-1.679.255-2.554v-1.122h-.473Z" fill="#d64034"/><path d="m31.441,22.989h-6.336l2.661,1.721c1.514.979,3.461-.002,3.676-1.721Z" fill="#1d1d1b"/><path d="m31.878,16.11h-9.9c-1.625,0-2.943,1.318-2.943,2.943v.993c0,1.625,1.318,2.943,2.943,2.943h9.9c1.9,0,3.439-1.54,3.439-3.439s-1.54-3.439-3.439-3.439Z" fill="#ff5543"/></g><rect width="40" height="40" fill="none"/></svg>