<?xml version="1.0" encoding="UTF-8"?><svg id="Layer_1" xmlns="http://www.w3.org/2000/svg" viewBox="0 0 40 40"><g><path d="m30.705,17.92c.001-.115-.09-.202-.205-.212-2.186-.201-2.596-2.574-2.673-3.379-.013-.137-.151-.215-.284-.18-1.821.483-2.987-1.296-3.304-1.857-.054-.096-.172-.124-.273-.081-2.226.937-3.587-.45-4.002-.976-.079-.1-.221-.104-.317-.021-1.431,1.241-2.827.578-3.311.277-.104-.064-.231-.024-.295.08-1.033,1.684-2.783,1.983-3.365,2.036-.113.01-.191.109-.191.222-.007,2.287-1.681,2.79-2.247,2.895-.108.02-.175.119-.17.228.122,2.372-1.394,3.562-1.821,3.849-.069.046-.096.132-.083.214.143.875-.12,1.501-.542,1.954.465,6.433,5.822,11.512,12.377,11.512,6.861,0,12.423-5.559,12.423-12.416,0-.286-.024-.566-.043-.847-1.571-.494-1.683-2.628-1.675-3.297Z" fill="#ffcca8"/><g><ellipse cx="16.328" cy="20.95" rx="1.391" ry="1.669"/><ellipse cx="23.672" cy="20.95" rx="1.391" ry="1.669"/></g><path d="m21.732,28.283c.312,0,.533.299.451.6-.263.958-1.14,1.662-2.182,1.662s-1.919-.704-2.182-1.662c-.083-.301.139-.6.451-.6h3.463Z" fill="#5c2f17"/><path d="m37.05,25.91s.91-1.9-.33-3.21c0,0,.86-2.03-.59-3.4,0,0,.73-1.93-.6-3.01,0,0,.55-2.82-1.79-3.85,0,0-.93-2.63-2.39-3.15,0,0-.59-1.66-2.25-1.79,0,0-.66-2.5-3.12-2.5,0,0-.59-1.22-3.57-.9-2.66-1.35-4.95,0-4.95,0-2.98-.32-3.58.9-3.58.9-2.45,0-3.11,2.5-3.11,2.5-1.66.13-2.26,1.79-2.26,1.79-1.45.52-2.38,3.15-2.38,3.15-1.59.51-1.79,3.85-1.79,3.85-1.06.9-.6,3.01-.6,3.01-1.19.71-.59,3.4-.59,3.4-.93.77-.33,3.21-.33,3.21-.67,2.12.72,4.49.72,4.49-.92,2.89,1.26,4.36,1.26,4.36.93,1.54,2.72,1.68,2.72,1.68l24.05.06c.7-.06,1.38-.22,2.01-.52.52-.25,1.15-.6,1.74-1.11,0,0,1.93-1.58,1-4.47,0,0,1.49-1.59.73-4.49Zm-17.05,8.57c-6.56,0-11.91-5.08-12.38-11.51.43-.45.69-1.08.54-1.96-.01-.08.02-.16.09-.21.42-.29,1.94-1.48,1.82-3.85-.01-.11.06-.21.17-.23.56-.1,2.24-.6,2.24-2.89,0-.11.08-.21.2-.22.58-.06,2.33-.36,3.36-2.04.07-.1.19-.14.3-.08.48.3,1.88.96,3.31-.28.09-.08.24-.08.31.02.42.53,1.78,1.92,4.01.98.1-.04.22-.01.27.08.32.56,1.48,2.34,3.3,1.86.14-.04.27.04.29.18.07.8.48,3.18,2.67,3.38.11.01.21.09.2.21,0,.67.11,2.8,1.68,3.3.02.28.04.56.04.84,0,6.86-5.56,12.42-12.42,12.42Z" fill="#333"/></g><rect width="40" height="40" fill="none"/></svg>