<?xml version="1.0" encoding="UTF-8"?><svg id="a" xmlns="http://www.w3.org/2000/svg" viewBox="0 0 40 40"><path d="M35.62,34.44h-6.65c4.84-2.99,8.08-8.34,8.08-14.45,0-9.38-7.61-16.99-16.99-16.99S3.07,10.61,3.07,19.99s7.61,16.99,16.99,16.99h.02v.02h15.54c.55,0,1-.45,1-1v-.56c0-.55-.45-1-1-1Zm-15.56-.69c-7.6,0-13.76-6.16-13.76-13.76S12.46,6.23,20.06,6.23s13.76,6.16,13.76,13.76-6.16,13.76-13.76,13.76Z" fill="#4e5968"/><path d="M33.823,19.991c0-7.599-6.161-13.76-13.761-13.76S6.301,12.392,6.301,19.991s6.162,13.761,13.761,13.761,13.761-6.161,13.761-13.761Zm-25.181,0c0-2.049,1.661-3.71,3.709-3.71s3.71,1.661,3.71,3.71-1.661,3.71-3.71,3.71-3.709-1.661-3.709-3.71Zm12.483,0c0,.587-.475,1.062-1.062,1.062s-1.062-.475-1.062-1.062,.475-1.062,1.062-1.062,1.062,.476,1.062,1.062Zm2.648-7.712c0,2.049-1.661,3.71-3.71,3.71s-3.71-1.661-3.71-3.71,1.661-3.71,3.71-3.71,3.71,1.661,3.71,3.71Zm-7.42,15.423c0-2.049,1.661-3.71,3.71-3.71s3.71,1.66,3.71,3.71-1.661,3.709-3.71,3.709-3.71-1.661-3.71-3.709Zm7.712-7.712c0-2.049,1.661-3.71,3.709-3.71s3.71,1.661,3.71,3.71-1.661,3.71-3.71,3.71-3.709-1.661-3.709-3.71Z" fill="#afb7c0"/><g><path d="M23.772,27.702c0-2.049-1.661-3.71-3.71-3.71s-3.71,1.66-3.71,3.71,1.661,3.709,3.71,3.709,3.71-1.661,3.71-3.709Z" fill="#2e3d51"/><path d="M31.483,19.99c0-2.049-1.661-3.71-3.71-3.71s-3.709,1.661-3.709,3.71,1.661,3.71,3.709,3.71,3.71-1.661,3.71-3.71Z" fill="#2e3d51"/><path d="M16.352,12.279c0,2.049,1.661,3.71,3.71,3.71s3.71-1.661,3.71-3.71-1.661-3.71-3.71-3.71-3.71,1.661-3.71,3.71Z" fill="#2e3d51"/><path d="M12.351,23.7c2.049,0,3.71-1.661,3.71-3.71s-1.661-3.71-3.71-3.71-3.709,1.661-3.709,3.71,1.661,3.71,3.709,3.71Z" fill="#2e3d51"/><path d="M19,19.991c0,.587,.475,1.062,1.062,1.062s1.062-.475,1.062-1.062-.475-1.062-1.062-1.062-1.062,.476-1.062,1.062Z" fill="#2e3d51"/></g></svg>