<?xml version="1.0" encoding="UTF-8"?><svg id="Layer_1" xmlns="http://www.w3.org/2000/svg" viewBox="0 0 40 40"><g><path d="M36.78648,22.8048c-.54318,.53811,.58075,1.12633,.35702,1.75325-.43259,1.21214-.54845,2.45833-.39538,3.65265,.09845,.76814-.34754,1.46982-1.08795,1.69679-1.00059,.30674-1.95656,.81718-2.80483,1.53809-.98073,.83347-1.70423,1.85485-2.16881,2.96573-.29598,.70774-1.08864,1.08231-1.83727,.91481-1.0062-.22512-2.07296-.25696-3.15133-.05984-1.26608,.23143-2.40334,.75427-3.36112,1.48404-.61019,.46493-1.48393,.39299-2.0485-.12638-.75884-.6981-1.66678-1.25907-2.69925-1.62753-1.21225-.43263-2.45858-.54847-3.65294-.39535-.76809,.09847-1.46971-.34751-1.69661-1.08789-.30666-1.00063-.81712-1.95662-1.53804-2.80492-.83341-.9807-1.85468-1.70415-2.96548-2.16884-.70779-.29609-1.0824-1.08882-.91495-1.83755,.22502-1.0062,.25682-2.07282,.05973-3.15101-.23141-1.26594-.75415-2.40309-1.48377-3.36095-.46491-.61034-.39297-1.48416,.12641-2.04887,.69798-.7589,1.25885-1.66674,1.62729-2.69907,.43259-1.21214,.54845-2.45836,.39546-3.6527-.0984-.76818,.34763-1.46987,1.08807-1.69688,1.00056-.30676,1.95643-.81717,2.80462-1.53801,.98067-.83341,1.70411-1.85472,2.16875-2.96556,.29605-.70778,1.08875-1.08238,1.83745-.91492,1.00622,.22506,2.07291,.25687,3.1512,.05977,1.26611-.23144,2.40334-.75425,3.36111-1.48402,.61018-.46492,1.48391-.39299,2.04847,.12638,.75885,.69811,1.66681,1.25907,2.69931,1.62757,1.21207,.43258,2.45824,.54845,3.65256,.39539,.76817-.09844,1.46987,.34755,1.69688,1.08798,.30677,1.00057,.81723,1.95651,1.53808,2.80474,.76043,.89482,1.67728,1.57547,2.67573,2.04073,.86445,.40282,1.3124,1.33866,1.14175,2.27697-.16617,.91367-.17365,1.87205,.00324,2.83976,.14329,.78387-.99411,1.50997-.43862,2.17371l-.18827,4.18192Z" style="fill:#e77f77;"/><path d="M23.56375,19.2665l-4.65166-2.13367c-.28571-.13105-.66373,.01608-.66229,.25778l.03523,5.9486c.00147,.24894,.40154,.38982,.68365,.24074l4.62455-2.44392c.10953-.05788,.17388-.14915,.17331-.24581l-.00812-1.37101c-.00061-.10227-.07377-.19725-.19466-.2527Z" style="fill:#a84d4d;"/><path d="M6.81258,18.57774l-3.62089-2.37956c-.91735-.60286-2.15668-.03014-2.27629,1.06103-.19839,1.8099-.04555,3.9117,.14454,5.50072,.13438,1.12327,1.42566,1.68568,2.33729,1.01581l3.43401-2.52333c.11143-.08188,.17724-.2119,.17724-.35017v-1.96134c0-.14631-.07363-.28279-.19589-.36315Z" style="fill:#e77f77;"/><path d="M37.41091,25.2572c.43849,0,.87467-.18001,1.19084-.5308,.5908-.65696,.53618-1.66933-.12078-2.26013-.45464-.40772-.70235-.96929-.69773-1.58009,.00462-.6108,.26078-1.16776,.72158-1.56932l.12616-.10924c.66542-.58311,.73235-1.59394,.15078-2.25859s-1.59317-.73081-2.25705-.15078l-.12308,.1077c-1.14237,.9939-1.80626,2.43706-1.8178,3.95561-.01154,1.51855,.62927,2.97094,1.75856,3.98638,.30617,.27386,.68773,.40925,1.06852,.40925Z" style="fill:#a84d4d;"/><circle cx="29.50947" cy="11.90382" r="1.83308"/></g><rect width="40" height="40" style="fill:none;"/></svg>