<svg id="Layer_1" data-name="Layer 1" xmlns="http://www.w3.org/2000/svg" viewBox="0 0 40 40"><defs><style>.cls-1{fill:#f80;}.cls-2{fill:#482ec4;}.cls-3{fill:#ffc84d;}.cls-4{fill:#5c2f17;}.cls-5{fill:#64a7ff;}.cls-6{fill:none;}</style></defs><path class="cls-1" d="M13.41,15.943s-.8-8.823,3.464-10.693a4.081,4.081,0,0,1,3.791-1.428,6.608,6.608,0,0,1,5.287,4.114,23.3,23.3,0,0,1,.914,7.575,1.139,1.139,0,0,1-.548.944c-.722.439-2.4,1-6.231,1C13.8,17.456,13.41,15.943,13.41,15.943Z"/><path class="cls-2" d="M28.3,22.86a8.326,8.326,0,0,0-8.308-6.6,8.34,8.34,0,0,0-8.286,6.457V22.71l-2.784,13.5H31.192Z"/><path class="cls-3" d="M22.07,9.549a7.293,7.293,0,0,1-4.293-2.433.118.118,0,0,0-.206.056,5.977,5.977,0,0,1-1.777,3.3,2.624,2.624,0,0,0-.45.481,2.146,2.146,0,0,0-.388,1.644,5.112,5.112,0,0,0,10.052.447C25.3,11.338,24.27,9.876,22.07,9.549Z"/><ellipse cx="18.476" cy="11.447" rx="0.574" ry="0.688"/><ellipse cx="21.505" cy="11.447" rx="0.574" ry="0.688"/><path class="cls-4" d="M20.705,14.472a.194.194,0,0,1,.186.247.934.934,0,0,1-1.8,0,.194.194,0,0,1,.186-.247Z"/><path class="cls-5" d="M20.925,36.207a5.423,5.423,0,0,1,10.845,0Z"/><circle class="cls-3" cx="26.348" cy="27.557" r="4.236"/><ellipse class="cls-3" cx="22.481" cy="27.676" rx="1.696" ry="1.591"/><ellipse class="cls-3" cx="30.214" cy="27.676" rx="1.696" ry="1.591"/><ellipse cx="25.157" cy="27.352" rx="0.451" ry="0.541"/><ellipse cx="27.538" cy="27.352" rx="0.451" ry="0.541"/><path class="cls-4" d="M26.908,29.485a.153.153,0,0,1,.147.2.734.734,0,0,1-1.415,0,.154.154,0,0,1,.147-.2Z"/><path class="cls-1" d="M31.23,26.343a4.884,4.884,0,0,0-9.743-.586,5.11,5.11,0,0,0-.017.687,3.88,3.88,0,0,0,3-1.682,3.216,3.216,0,0,0,1.876,1.012,2.9,2.9,0,0,0,1.791-1.012A3.259,3.259,0,0,0,31.23,26.343Z"/><path class="cls-5" d="M7.509,36.207a5.423,5.423,0,0,1,10.845,0Z"/><circle class="cls-3" cx="12.932" cy="27.557" r="4.236"/><ellipse class="cls-3" cx="9.066" cy="27.676" rx="1.696" ry="1.591"/><ellipse class="cls-3" cx="16.798" cy="27.676" rx="1.696" ry="1.591"/><ellipse cx="11.742" cy="27.352" rx="0.451" ry="0.541"/><ellipse cx="14.122" cy="27.352" rx="0.451" ry="0.541"/><path class="cls-4" d="M13.492,29.485a.153.153,0,0,1,.147.2.734.734,0,0,1-1.415,0,.154.154,0,0,1,.147-.2Z"/><path class="cls-1" d="M17.814,26.343a4.883,4.883,0,1,0-9.76.1,3.88,3.88,0,0,0,3-1.682,3.216,3.216,0,0,0,1.876,1.012,2.9,2.9,0,0,0,1.791-1.012A3.259,3.259,0,0,0,17.814,26.343Z"/><rect class="cls-6" width="40" height="40"/></svg>