<?xml version="1.0" encoding="UTF-8"?><svg id="Layer_1" xmlns="http://www.w3.org/2000/svg" viewBox="0 0 40 40"><g><path d="M30.91998,33.00494l.00006,.00006,.74786-6.65582c.26135-2.32629-1.52661-4.37677-3.86682-4.43451l-.3302-.00812c.00684,.06903,.02087,.13599,.02087,.20685,0,.85657-.5141,1.59058-1.24915,1.91791v2.5047c.38959,.03174,.68341,.37341,.63916,.76721l-.5788,5.15063,.02405-.15625,4.59296,.70734Z" style="fill:#3e5af4;"/><path d="M18.42773,18.03094l.27539,1.98193h4.25909l-5.01508-9.52307-.02228-.0423-2.42773-.71161h0c-.8241,1.16705-1.29419,2.78162-1.55304,4.45789l.95166,4.32727,3.53198-.49011Z" style="fill:#8b8bf4;"/><g><path d="M32.7038,34.74182l-1.78375-1.73682-.00006-.00006-4.59296-.70734-.02405,.15625-.55048,3.57483c-.03333,.21606,.11493,.41827,.33105,.45154l6.8053,1.04803c.21606,.03326,.41827-.11493,.45154-.33105l.07605-.49384c.11285-.7326-.15588-1.47217-.71265-1.96155Z" style="fill:#4e5968;"/><path d="M26.23999,24.02997c-.26001,.12-.54999,.19-.84998,.19-.85004,0-1.57001-.51001-1.90002-1.22998h-5.90997c-1,0-1.85004-.69-2.07001-1.66003l-.60999-2.81-.96002-4.32996-.32001-1.45001c-.21002-.97003-1.16998-1.59003-2.15002-1.37-.96997,.20996-1.58997,1.16998-1.37994,2.14996l2.09998,9.55005c.08002,.37,.21997,.70996,.38,1.02997-2.85004,1.23999-4.85004,4.09003-4.85004,7.39001,0,4.45001,3.61005,8.06,8.06006,8.06,4.43994,0,8.04999-3.60999,8.04999-8.06,0-1.83002-.62-3.53003-1.66003-4.88h4.07001v-2.58002Zm-13.09998,.96002c.83997,.98999,2.07996,1.62,3.45001,1.62h4.21997c.15997,.15997,.31,.34003,.46002,.52002l-4.81,3.51001c-.17999-.11005-.39001-.19-.62-.19-.30005,0-.56,.12-.78003,.28998l-5.32001-2.82001c.78003-1.32001,1.97998-2.34998,3.40002-2.92999Zm-4.39001,6.5c0-.94,.19-1.83002,.53003-2.65002l5.29999,2.82001c-.01001,.03003-.02002,.04999-.02002,.08002,0,.52002,.31,.96997,.76001,1.16998,.01001,2.09003,.01001,4.62,0,5.58002-3.66003-.22998-6.57001-3.28003-6.57001-7Zm14.04999,0c0,3.67999-2.84998,6.71002-6.45001,7v-5.57001c.46002-.20001,.78003-.65002,.78003-1.17999,0-.09998-.03998-.17999-.06-.27002l4.77997-3.48999c.60004,1.03998,.95001,2.22998,.95001,3.51001Z" style="fill:#4e5968;"/></g><path d="M26.45178,19.67157c-.07855-.00128-.15594,.00873-.23541-.01135s-.14276-.06561-.21252-.10175l-.12994,.51465c.15332,.03625,.2981,.09125,.43634,.15912l.14154-.56067Z" style="fill:#2e3d51;"/><path d="M26.45178,19.67157c.47052,.00781,.90405-.28717,1.02423-.76312,.1402-.55542-.19641-1.11938-.75183-1.25958-.55542-.14026-1.11932,.19635-1.25958,.75177-.12018,.47595,.12146,.94141,.53925,1.15784,.06976,.03613,.13306,.08167,.21252,.10175s.15686,.01007,.23541,.01135Z" style="fill:#d12030;"/><path d="M21.65002,2.83997l-.01001,.01001-2.78003,2.07001c-.35999-.70001-1.13-.98999-1.78998-.63-.60004,.32001-.91003,1.04999-.82001,1.75,.02002,.14001,.04999,.27002,.09998,.41003,.22003,.56,.69,.88995,1.19,.91998l.49005,2.08997-2.18005-.46997-.03998-.01001-2.51001-.52997,.66003-3.82001h.01996l.01001,.01001,.03003-.18005,.08997-.35999c.04999-.15997,.12-.31,.19-.45996,.04004-.09003,.08002-.19,.13-.28003,.09003-.16998,.20001-.32001,.29999-.46997,.06-.07001,.10004-.14001,.16003-.21002,.12-.14001,.26001-.28003,.39996-.41003,.06-.06,.13-.12,.20001-.17999,.14001-.12,.29004-.21997,.45001-.32001,.09003-.04999,.16998-.09998,.26001-.14996,.15997-.08002,.32001-.15002,.47998-.22003,.10004-.03998,.20001-.07001,.31-.09998,.16003-.04999,.32001-.09003,.47998-.10999,.12006-.02002,.24005-.04004,.36005-.04999,.14996-.02002,.31-.02002,.46997-.01001,.07001,0,.15002-.02002,.22003-.01001,.04999,0,.09998,.02002,.14996,.02997,.17999,.02002,.35004,.05005,.53003,.10004,.10999,.01996,.21997,.04999,.33002,.07996,.17999,.06006,.34998,.14001,.50995,.22003,.10004,.03998,.20001,.08002,.29004,.13,.16998,.09998,.33997,.22998,.5,.34998,.07001,.06,.14996,.10004,.21997,.16003,.16003,.14996,.29999,.32001,.44,.48999,.04999,.04999,.10999,.09998,.16003,.15997Z" style="fill:#333;"/><g><path d="M21.66998,2.87c-.01001-.01001-.01996-.01001-.02997-.02002l-2.78003,2.07001c-.35999-.70001-1.13-.98999-1.78998-.63-.60004,.32001-.91003,1.04999-.82001,1.75,.02002,.14001,.04999,.27002,.09998,.41003,.22003,.56,.69,.88995,1.19,.91998l.49005,2.08997-2.18005-.46997-.03998-.01001-.31,.76001,2.41998,.71002,.03003,.03998,.33002-.78998c.84998-.02002,1.70996-.28003,2.44995-.82001,1.92004-1.40002,2.34003-4.09003,.94-6.01001Zm-.42999,3.44c-.20996-.01001-.35999-.33002-.33002-.70001,.02002-.37,.22003-.65002,.43005-.64001,.20996,.02002,.34998,.33002,.32996,.70001-.02997,.37-.21997,.65997-.42999,.64001Z" style="fill:#956759;"/><path d="M27.48999,22.10999c0,.85999-.51001,1.59003-1.25,1.91998-.26001,.12-.54999,.19-.84998,.19-.85004,0-1.57001-.51001-1.90002-1.22998h-5.90997c-1,0-1.85004-.69-2.07001-1.66003l-.60999-2.81,3.52997-.48999,.27002,1.98004h6.70001c.00995,0,.01996,.00995,.02997,.00995,.15002,0,.29999,.02002,.44,.05005,.16003,.03998,.29999,.08997,.44,.15997,.64001,.31,1.09003,.94,1.15997,1.67999,.01001,.07001,.02002,.13,.02002,.20001Z" style="fill:#956759;"/></g><path d="M21.23505,6.31122c.20996,.01599,.40295-.27094,.43115-.64087s-.11914-.6828-.3291-.69879-.40295,.27094-.43115,.64087,.11914,.6828,.3291,.69879Z"/></g><rect width="40" height="40" style="fill:none;"/></svg>