<?xml version="1.0" encoding="UTF-8"?><svg id="Layer_1" xmlns="http://www.w3.org/2000/svg" viewBox="0 0 40 40"><rect width="40" height="40" transform="translate(40 40) rotate(-180)" fill="none"/><g><path d="m12.753,38.218l25.437-25.437c.362-.362.362-.95,0-1.312L28.487,1.767c-.369-.369-.968-.369-1.337,0L1.739,27.178c-.369.369-.369.968,0,1.337l9.703,9.703c.362.362.95.362,1.312,0Z" fill="#d0d6de"/><g><rect x="26.32" y="2.741" width=".887" height="2.837" transform="translate(4.898 20.143) rotate(-45)" fill="#a3adb7"/><rect x="24.263" y="4.798" width=".887" height="2.837" transform="translate(2.84 19.291) rotate(-45)" fill="#a3adb7"/><rect x="22.205" y="6.856" width=".887" height="2.837" transform="translate(.783 18.438) rotate(-45)" fill="#a3adb7"/><rect x="20.148" y="8.912" width=".887" height="2.838" transform="translate(-1.274 17.586) rotate(-45)" fill="#a3adb7"/><rect x="18.09" y="10.97" width=".887" height="2.838" transform="translate(-3.332 16.734) rotate(-45)" fill="#a3adb7"/><rect x="16.033" y="13.028" width=".887" height="2.838" transform="translate(-5.39 15.882) rotate(-45)" fill="#a3adb7"/><rect x="13.975" y="15.085" width=".887" height="2.838" transform="translate(-7.447 15.029) rotate(-45)" fill="#a3adb7"/><rect x="11.918" y="17.143" width=".887" height="2.838" transform="translate(-9.505 14.177) rotate(-45)" fill="#a3adb7"/><rect x="9.86" y="19.201" width=".887" height="2.838" transform="translate(-11.563 13.325) rotate(-45)" fill="#a3adb7"/><rect x="7.803" y="21.258" width=".887" height="2.837" transform="translate(-13.62 12.473) rotate(-45)" fill="#a3adb7"/><rect x="5.745" y="23.316" width=".887" height="2.837" transform="translate(-15.677 11.62) rotate(-45)" fill="#a3adb7"/><rect x="3.688" y="25.374" width=".887" height="2.837" transform="translate(-17.735 10.768) rotate(-45)" fill="#a3adb7"/></g></g></svg>