<svg id="Layer_1" data-name="Layer 1" xmlns="http://www.w3.org/2000/svg" xmlns:xlink="http://www.w3.org/1999/xlink" viewBox="0 0 40 40"><defs><style>.cls-1,.cls-3{fill:none;}.cls-2{fill:#ec4452;}.cls-3{stroke:#a41926;stroke-linecap:round;stroke-miterlimit:10;stroke-width:2.5px;}.cls-4{clip-path:url(#clip-path);}.cls-5{fill:#d0d5da;}.cls-6{fill:#e5e9ee;}.cls-7{fill:#afb7c0;}</style><clipPath id="clip-path"><rect class="cls-1" x="9.962" y="12.503" width="20.076" height="18.995"/></clipPath></defs><rect class="cls-1" width="40" height="40"/><path class="cls-2" d="M15.5,3.5h9a12,12,0,0,1,12,12v17a4,4,0,0,1-4,4H7.5a4,4,0,0,1-4-4v-17A12,12,0,0,1,15.5,3.5Z"/><line class="cls-3" x1="9.962" y1="12.503" x2="30.038" y2="12.503"/><g class="cls-4"><path class="cls-5" d="M15.138,31.269H26.159a3.214,3.214,0,0,0,2.017-.723L21.45,22.108Z"/><path class="cls-5" d="M15.138,7.282l6.312,9.161,6.726-8.438a3.214,3.214,0,0,0-2.017-.723Z"/><path class="cls-6" d="M21.881,17.069a3.892,3.892,0,0,1,0,4.414l-.431.625,6.726,8.438A3.222,3.222,0,0,0,29.4,28.027v-17.5a3.224,3.224,0,0,0-1.224-2.519L21.45,16.443Z"/><path class="cls-7" d="M15.138,7.282l8.155,9.787a3.536,3.536,0,0,1,0,4.414l-8.155,9.786Z"/><path class="cls-6" d="M10.6,10.524v17.5a3.242,3.242,0,0,0,3.241,3.242h1.3l6.743-9.786a3.892,3.892,0,0,0,0-4.414L15.138,7.282h-1.3A3.242,3.242,0,0,0,10.6,10.524Z"/></g></svg>