<?xml version="1.0" encoding="UTF-8"?><svg id="Layer_1" xmlns="http://www.w3.org/2000/svg" viewBox="0 0 40 40"><g><path d="M36.41998,24.18994v11.9502h-11c0-2.25-1.35999-4.17017-3.31-5,.77002-.4502,1.40002-1.12012,1.76001-1.94019,.94,0,1.69-.70996,1.69-1.59009,0-.56982-.32001-1.05981-.78998-1.34985,.03998,.01001,.07001,.01001,.10999,.01001,.03998-2.68994-2.09998-4.91992-4.77002-4.97998,.90002-2.18018,2.77002-3.88013,5.10999-4.6499,.81006,.55981,1.75,.87988,2.76001,.87988s1.95001-.32007,2.75-.87988c3.31,1.07983,5.69,4.0498,5.69,7.5498Z" style="fill:#5268e9;"/><path d="M34.08002,10.28003c0,.05005-.01001,.09009-.01001,.09009l-.77002,.69995c-.14996,.13989-.39001,.03979-.39996-.16016-.03003-.35986-.15002-.85986-.47003-1.32007-.42999-.61987-1.23999-1.15991-2.79999-1.13989-3.67999,.05005-4.39001-2.11987-4.39001-2.11987,0,0-.58002,1.85986-1.27997,3.31006-.23004,.47998-.48004,.90991-.72003,1.21973-.17999,.22021-.5,.25-.71997,.07007l-.63-.55005s-.01001-.04004-.01001-.10986c-.34003,.35986-.54999,.83008-.54999,1.33984,0,.9502,.69,1.74023,1.63,1.96021,.42999,1.28979,1.23999,2.36987,2.25995,3.07007,.81006,.55981,1.75,.87988,2.76001,.87988s1.95001-.32007,2.75-.87988c1.03003-.7002,1.83002-1.78027,2.27002-3.07007,.92999-.21997,1.63-1.01001,1.63-1.96021,0-.50977-.22003-.97998-.54999-1.32983Zm-7.62,1.61011c-.31,0-.57001-.31006-.57001-.69019,0-.37988,.26001-.68994,.57001-.68994,.32001,0,.57996,.31006,.57996,.68994,0,.38013-.25995,.69019-.57996,.69019Zm1.51996,3.76978c-.42999,0-.78998-.28979-.89996-.68994-.04004-.11987,.04999-.25,.17999-.25h1.42999c.13,0,.21997,.13013,.19,.25-.10999,.40015-.47003,.68994-.90002,.68994Zm1.51001-3.76978c-.32001,0-.57001-.31006-.57001-.69019,0-.37988,.25-.68994,.57001-.68994s.58002,.31006,.58002,.68994c0,.38013-.26001,.69019-.58002,.69019Z" style="fill:#ffc84d;"/><path d="M27.03998,11.19995c0,.38013-.25995,.69019-.57996,.69019-.31,0-.57001-.31006-.57001-.69019,0-.37988,.26001-.68994,.57001-.68994,.32001,0,.57996,.31006,.57996,.68994Z"/><path d="M30.07001,11.19995c0,.38013-.26001,.69019-.58002,.69019s-.57001-.31006-.57001-.69019c0-.37988,.25-.68994,.57001-.68994s.58002,.31006,.58002,.68994Z"/><path d="M34.08002,10.28003c0,.05005-.01001,.09009-.01001,.09009l-.77002,.69995c-.14996,.13989-.39001,.03979-.39996-.16016-.03003-.35986-.15002-.85986-.47003-1.32007-.42999-.61987-1.23999-1.15991-2.79999-1.13989-3.67999,.05005-4.39001-2.11987-4.39001-2.11987,0,0-.58002,1.85986-1.27997,3.31006-.23004,.47998-.48004,.90991-.72003,1.21973-.17999,.22021-.5,.25-.71997,.07007l-.63-.55005s-.01001-.04004-.01001-.10986c-.03003-.66016-.09003-4.33008,2.76001-5.03003,0,0,1.69-1.84985,4.54999-1.26001,2.87,.58008,4.40997,2.84009,4.67999,4.12988,.22003,1.08008,.22003,1.91016,.21002,2.17017Z" style="fill:#f80;"/><path d="M28.88,14.96997c-.10999,.40015-.47003,.68994-.90002,.68994s-.78998-.28979-.89996-.68994c-.04004-.11987,.04999-.25,.17999-.25h1.42999c.13,0,.21997,.13013,.19,.25Z" style="fill:#5c2f17;"/></g><g><path d="M14.44,27.60986c0,.88013,.75,1.59009,1.69,1.59009,.35999,.82007,.98999,1.48999,1.76001,1.94019-1.95001,.82983-3.31,2.75-3.31,5H3.58002v-11.9502c0-3.5,2.38-6.46997,5.69-7.5498,.79999,.55981,1.73999,.87988,2.75,.87988s1.94995-.32007,2.76001-.87988c2.33997,.76978,4.20996,2.46973,5.10999,4.6499-.15002,0-.29004,0-.42999,.02002-2.28003,.23999-4.11005,2.09985-4.32001,4.37988-.02002,.21997-.02002,.43018-.02002,.6499-.40997,.29004-.67999,.75-.67999,1.27002Z" style="fill:#5268e9;"/><path d="M18.12,10.28003v.09009l-.77997,.69995c-.14001,.13989-.38,.03979-.40002-.16016-.03003-.35986-.15002-.85986-.46002-1.32007-.42999-.61987-1.25-1.15991-2.81-1.13989-3.66998,.05005-4.38-2.11987-4.38-2.11987,0,0-.57996,1.85986-1.27997,3.31006-.23999,.47998-.47998,.90991-.72003,1.21973-.17999,.22021-.50995,.25-.71997,.07007l-.64001-.55005v-.10986c-.33997,.35986-.56,.83008-.56,1.33984,0,.9502,.70001,1.74023,1.63,1.96021,.44,1.28979,1.23999,2.36987,2.27002,3.07007,.79999,.55981,1.73999,.87988,2.75,.87988s1.94995-.32007,2.76001-.87988c1.01996-.7002,1.82996-1.78027,2.25995-3.07007,.94-.21997,1.63-1.01001,1.63-1.96021,0-.50977-.20996-.97998-.54999-1.32983Zm-7.60999,1.61011c-.32001,0-.58002-.31006-.58002-.69019,0-.37988,.26001-.68994,.58002-.68994s.57001,.31006,.57001,.68994c0,.38013-.25,.69019-.57001,.69019Zm1.51001,3.76978c-.42999,0-.79004-.28979-.90002-.68994-.02997-.11987,.06-.25,.19-.25h1.42999c.13,0,.22003,.13013,.17999,.25-.10999,.40015-.46997,.68994-.89996,.68994Zm1.51996-3.76978c-.32001,0-.57996-.31006-.57996-.69019,0-.37988,.25995-.68994,.57996-.68994,.31,0,.57001,.31006,.57001,.68994,0,.38013-.26001,.69019-.57001,.69019Z" style="fill:#ffc84d;"/><path d="M11.08002,11.19995c0,.38013-.25,.69019-.57001,.69019s-.58002-.31006-.58002-.69019c0-.37988,.26001-.68994,.58002-.68994s.57001,.31006,.57001,.68994Z"/><path d="M14.10999,11.19995c0,.38013-.26001,.69019-.57001,.69019-.32001,0-.57996-.31006-.57996-.69019,0-.37988,.25995-.68994,.57996-.68994,.31,0,.57001,.31006,.57001,.68994Z"/><path d="M18.12,10.28003v.09009l-.77997,.69995c-.14001,.13989-.38,.03979-.40002-.16016-.03003-.35986-.15002-.85986-.46002-1.32007-.42999-.61987-1.25-1.15991-2.81-1.13989-3.66998,.05005-4.38-2.11987-4.38-2.11987,0,0-.57996,1.85986-1.27997,3.31006-.23999,.47998-.47998,.90991-.72003,1.21973-.17999,.22021-.50995,.25-.71997,.07007l-.64001-.55005v-.10986c-.03998-.66016-.08997-4.33008,2.76001-5.03003,0,0,1.69-1.84985,4.54999-1.26001,2.85999,.58008,4.41003,2.84009,4.67999,4.12988,.22003,1.08008,.21002,1.91016,.20001,2.17017Z" style="fill:#f80;"/><path d="M12.91998,14.96997c-.10999,.40015-.46997,.68994-.89996,.68994s-.79004-.28979-.90002-.68994c-.02997-.11987,.06-.25,.19-.25h1.42999c.13,0,.22003,.13013,.17999,.25Z" style="fill:#5c2f17;"/></g><g><path d="M22.10956,31.14282c-.62335,.36084-1.33746,.58276-2.10956,.58276s-1.48621-.22192-2.10956-.58276c-1.94666,.823-3.31274,2.75024-3.31274,4.99658h10.8446c0-2.24634-1.36609-4.17358-3.31274-4.99658Z" style="fill:#64a7ff;"/><path d="M24.77002,26.26001c-.48999-.01001-.91003-.09009-1.26001-.20996-1.28003-.42993-1.72003-1.36011-1.72003-1.36011,0,0-.84998,1.02002-1.78998,1.02002s-1.88-1.02002-1.88-1.02002c-.56,.71997-1.15997,1.12012-1.66998,1.36011-.76001,.34985-1.33002,.32983-1.33002,.32983v-.04004c-.40997,.29004-.67999,.75-.67999,1.27002,0,.88013,.75,1.59009,1.69,1.59009,.35999,.82007,.98999,1.48999,1.76001,1.94019,.62,.35986,1.33997,.58984,2.10999,.58984s1.48999-.22998,2.10999-.58984c.77002-.4502,1.40002-1.12012,1.76001-1.94019,.94,0,1.69-.70996,1.69-1.59009,0-.56982-.32001-1.05981-.78998-1.34985Zm-5.96002,1.57007c-.25,0-.45001-.25-.45001-.55005,0-.29004,.20001-.54004,.45001-.54004s.45001,.25,.45001,.54004c0,.30005-.20001,.55005-.45001,.55005Zm1.19,2.31982c-.34003,0-.62-.22998-.71002-.54004-.01996-.09985,.05005-.18994,.15002-.18994h1.12c.09998,0,.16998,.09009,.15002,.18994-.09003,.31006-.37,.54004-.71002,.54004Zm1.19-2.31982c-.25,0-.45001-.25-.45001-.55005,0-.29004,.20001-.54004,.45001-.54004s.45001,.25,.45001,.54004c0,.30005-.20001,.55005-.45001,.55005Z" style="fill:#ffc84d;"/><path d="M18.80981,27.82544c.24902,0,.45087-.24219,.45087-.54102s-.20184-.54102-.45087-.54102c-.24896,0-.45081,.24219-.45081,.54102s.20184,.54102,.45081,.54102Z"/><path d="M21.19019,27.82544c.24896,0,.45081-.24219,.45081-.54102s-.20184-.54102-.45081-.54102c-.24902,0-.45087,.24219-.45087,.54102s.20184,.54102,.45087,.54102Z"/><path d="M20,30.15088c.33752,0,.62183-.22803,.70721-.53857,.02686-.09766-.0451-.19482-.14642-.19482h-1.12158c-.10132,0-.17328,.09717-.14642,.19482,.08539,.31055,.36969,.53857,.70721,.53857Z" style="fill:#5c2f17;"/><path d="M15.13983,25.68872c-.02063,.21948-.02435,.43579-.01678,.64893,.00043,.01245-.00153,.02563-.00098,.03784,0,0,.57239,.02588,1.33209-.32764,.50983-.23706,1.1015-.64062,1.67053-1.35425,0,0,.93903,1.01196,1.87531,1.01196s1.79102-1.01196,1.79102-1.01196c0,0,.43817,.92969,1.716,1.36133,.35229,.11914,.76904,.19751,1.25922,.20996,.04108,.00098,.07361,.00952,.11572,.00977,.03961-2.69092-2.10028-4.92017-4.76727-4.98755-.07599-.00195-.1524-.00146-.22925,.00024-.14124,.00293-.28271,.00659-.42639,.02222-2.27911,.24463-4.10425,2.09717-4.31921,4.37915Z" style="fill:#f80;"/></g></svg>