<svg id="Layer_1" data-name="Layer 1" xmlns="http://www.w3.org/2000/svg" viewBox="0 0 40 40"><defs><style>.cls-1{fill:#dfdfdf;}.cls-2{fill:#cecfcf;}.cls-3{fill:none;}</style></defs><path class="cls-1" d="M16.962,4.483a4.208,4.208,0,0,0-8.14,2.135l5.716,21.231,8.14-2.135Z"/><polygon class="cls-2" points="22.678 6.255 16.255 18.593 23.695 22.527 32.036 6.697 22.678 6.255"/><path class="cls-1" d="M22.678,6.255l5.587,8.465a4.023,4.023,0,1,0,6.8-4.3L33.026,7.328a2.39,2.39,0,0,0-2-1.073Z"/><path class="cls-1" d="M13.062,38.658H25.035a8.737,8.737,0,0,0,7.452-13.3L26.5,15.579a8.737,8.737,0,0,0-14.9,0L5.61,25.36A8.737,8.737,0,0,0,13.062,38.658Z"/><circle cx="15.114" cy="29.963" r="1.701"/><circle cx="22.983" cy="29.963" r="1.701"/><path d="M17.682,33.2h2.541a.486.486,0,0,1,.4.758l-1.271,1.874a.485.485,0,0,1-.8,0L17.28,33.955A.485.485,0,0,1,17.682,33.2Z"/><rect class="cls-3" width="40" height="40"/></svg>