<svg id="Layer_1" data-name="Layer 1" xmlns="http://www.w3.org/2000/svg" viewBox="0 0 40 40"><defs><style>.cls-1{fill:#ffb582;}.cls-2{fill:#ffdb87;}.cls-3{fill:#2e3d51;}.cls-4{fill:#e32939;}.cls-5{fill:#3e5af4;}.cls-6{fill:none;}</style></defs><rect class="cls-1" x="14.377" y="8.655" width="2.58" height="2.515" transform="translate(2.866 -3.498) rotate(14.012)"/><circle class="cls-1" cx="16.99" cy="5.403" r="4.346"/><path class="cls-2" d="M16.99,5.4l-3,3.144a4.346,4.346,0,1,1,6.874-5.114Z"/><ellipse class="cls-1" cx="16.378" cy="5.657" rx="1.639" ry="1.425" transform="translate(6.924 20.178) rotate(-75.988)"/><ellipse cx="20.32" cy="6.234" rx="0.679" ry="0.386" transform="translate(9.352 24.44) rotate(-75.988)"/><circle class="cls-1" cx="5.707" cy="20.754" r="2.61"/><path class="cls-3" d="M15.171,34.289v3.742a.392.392,0,0,0,.392.393h6.825a.392.392,0,0,0,.392-.393v-.495a2.15,2.15,0,0,0-.994-1.814l-2.243-1.433Z"/><path class="cls-3" d="M8.468,28.752,4.811,30.5a.426.426,0,0,0-.2.567L7.8,37.737a.426.426,0,0,0,.567.2l.484-.232a2.329,2.329,0,0,0,1.309-1.818l.353-2.862Z"/><rect class="cls-1" x="4.398" y="14.762" width="9.272" height="4.18" transform="translate(-9.218 11.155) rotate(-44.471)"/><rect class="cls-1" x="16.886" y="13.119" width="4.18" height="10.731" transform="translate(-7.36 15.626) rotate(-38.054)"/><path class="cls-4" d="M8.689,14.227l2.694,3.2v5.048h6.96l-.112-9.568a3.463,3.463,0,0,0-3.46-3.331h0a3.324,3.324,0,0,0-2.335.958Z"/><polygon class="cls-5" points="18.343 22.476 21.112 35.316 15.171 35.345 11.383 22.476 18.343 22.476"/><polygon class="cls-5" points="7.796 29.069 13.929 26.117 15.717 32.295 10.334 34.632 7.796 29.069"/><path class="cls-3" d="M37.765,38.054A.527.527,0,0,1,37.4,37.9L22.562,23.171a.523.523,0,1,1,.737-.742L38.134,37.16a.523.523,0,0,1-.369.894Z"/><circle class="cls-1" cx="22.93" cy="22.8" r="2.61"/><rect class="cls-6" width="40" height="40"/></svg>