<?xml version="1.0" encoding="UTF-8"?><svg id="Layer_1" xmlns="http://www.w3.org/2000/svg" viewBox="0 0 40 40"><g><path d="m30.92,33.005h0s.748-6.656.748-6.656c.261-2.326-1.527-4.377-3.867-4.435l-.33-.008c.007.069.021.136.021.207,0,.857-.514,1.591-1.249,1.918v2.505c.39.032.683.373.639.767l-.579,5.151.024-.156,4.593.707Z" fill="#3e5af4"/><path d="m18.428,18.031l.275,1.982h4.259l-5.015-9.523-.022-.042-2.428-.712h0c-.824,1.167-1.294,2.782-1.553,4.458l.952,4.327,3.532-.49Z" fill="#8b8bf4"/><g><path d="m32.704,34.742l-1.784-1.737h0s-4.593-.707-4.593-.707l-.024.156-.55,3.575c-.033.216.115.418.331.452l6.805,1.048c.216.033.418-.115.452-.331l.076-.494c.113-.733-.156-1.472-.713-1.962Z" fill="#4e5968"/><path d="m26.24,24.03c-.26.12-.55.19-.85.19-.85,0-1.57-.51-1.9-1.23h-5.91c-1,0-1.85-.69-2.07-1.66l-.61-2.81-.96-4.33-.32-1.45c-.21-.97-1.17-1.59-2.15-1.37-.97.21-1.59,1.17-1.38,2.15l2.1,9.55c.08.37.22.71.38,1.03-2.85,1.24-4.85,4.09-4.85,7.39,0,4.45,3.61,8.06,8.06,8.06s8.05-3.61,8.05-8.06c0-1.83-.62-3.53-1.66-4.88h4.07v-2.58Zm-13.1.96c.84.99,2.08,1.62,3.45,1.62h4.22c.16.16.31.34.46.52l-4.81,3.51c-.18-.11-.39-.19-.62-.19-.3,0-.56.12-.78.29l-5.32-2.82c.78-1.32,1.98-2.35,3.4-2.93Zm-4.39,6.5c0-.94.19-1.83.53-2.65l5.3,2.82c-.01.03-.02.05-.02.08,0,.52.31.97.76,1.17.01,2.09.01,4.62,0,5.58-3.66-.23-6.57-3.28-6.57-7Zm14.05,0c0,3.68-2.85,6.71-6.45,7v-5.57c.46-.2.78-.65.78-1.18,0-.1-.04-.18-.06-.27l4.78-3.49c.6,1.04.95,2.23.95,3.51Z" fill="#4e5968"/></g><path d="m26.452,19.672c-.079-.001-.156.009-.235-.011s-.143-.066-.213-.102l-.13.515c.153.036.298.091.436.159l.142-.561Z" fill="#2e3d51"/><path d="m26.452,19.672c.471.008.904-.287,1.024-.763.14-.555-.196-1.119-.752-1.26-.555-.14-1.119.196-1.26.752-.12.476.121.941.539,1.158.07.036.133.082.213.102s.157.01.235.011Z" fill="#d12030"/><path d="m21.65,2.84l-.01.01-2.78,2.07c-.36-.7-1.13-.99-1.79-.63-.6.32-.91,1.05-.82,1.75.02.14.05.27.1.41.22.56.69.89,1.19.92l.49,2.09-2.18-.47-.04-.01-2.51-.53.66-3.82h.02l.01.01c.01-.06.02-.12.03-.18.03-.12.06-.24.09-.36.05-.16.12-.31.19-.46.04-.09.08-.19.13-.28.09-.17.2-.32.3-.47.06-.07.1-.14.16-.21.12-.14.26-.28.4-.41.06-.06.13-.12.2-.18.14-.12.29-.22.45-.32.09-.05.17-.1.26-.15.16-.08.32-.15.48-.22.1-.04.2-.07.31-.1.16-.05.32-.09.48-.11.12-.02.24-.04.36-.05.15-.02.31-.02.47-.01.07,0,.15-.02.22-.01.05,0,.1.02.15.03.18.02.35.05.53.1.11.02.22.05.33.08.18.06.35.14.51.22.1.04.2.08.29.13.17.1.34.23.5.35.07.06.15.1.22.16.16.15.3.32.44.49.05.05.11.1.16.16Z" fill="#333"/><g><path d="m21.67,2.87c-.01-.01-.02-.01-.03-.02l-2.78,2.07c-.36-.7-1.13-.99-1.79-.63-.6.32-.91,1.05-.82,1.75.02.14.05.27.1.41.22.56.69.89,1.19.92l.49,2.09-2.18-.47-.04-.01-.31.76,2.42.71.03.04.33-.79c.85-.02,1.71-.28,2.45-.82,1.92-1.4,2.34-4.09.94-6.01Zm-.43,3.44c-.21-.01-.36-.33-.33-.7.02-.37.22-.65.43-.64.21.02.35.33.33.7-.03.37-.22.66-.43.64Z" fill="#956759"/><path d="m27.49,22.11c0,.86-.51,1.59-1.25,1.92-.26.12-.55.19-.85.19-.85,0-1.57-.51-1.9-1.23h-5.91c-1,0-1.85-.69-2.07-1.66l-.61-2.81,3.53-.49.27,1.98h6.7c.01,0,.02.01.03.01.15,0,.3.02.44.05.16.04.3.09.44.16.64.31,1.09.94,1.16,1.68.01.07.02.13.02.2Z" fill="#956759"/></g><path d="m21.235,6.311c.21.016.403-.271.431-.641s-.119-.683-.329-.699-.403.271-.431.641.119.683.329.699Z"/></g><rect width="40" height="40" fill="none"/></svg>