<?xml version="1.0" encoding="UTF-8"?><svg id="Layer_1" xmlns="http://www.w3.org/2000/svg" viewBox="0 0 40 40"><g><path d="m15.506,6.757c-1.82-2.159-5.045-2.434-7.204-.615-2.159,1.82-2.434,5.045-.615,7.204l3.404,4.039,7.818-6.589-3.404-4.039Z" fill="#ffc450"/><path d="m24.388,6.757c1.82-2.159,5.045-2.434,7.204-.615,2.159,1.82,2.434,5.045.615,7.204l-3.404,4.039-7.818-6.589,3.404-4.039Z" fill="#ffc450"/><g id="SVGID"><path d="m35.372,16.731c-1.838-5.146-6.713-8.582-12.177-8.582h-6.389c-5.465,0-10.339,3.435-12.177,8.582l-.375,1.05c-.961,2.692-1.004,5.627-.12,8.346h0c1.731,5.327,6.696,8.934,12.297,8.934h7.139c5.602,0,10.566-3.607,12.297-8.934h0c.884-2.719.841-5.654-.12-8.346l-.375-1.05Z" fill="#ffc450"/></g><g id="SVGID-2"><path d="m23.282,26.684h.017s-.043-.234-.043-.234c-.008-.042-.013-.085-.023-.126l-.703-3.88h-.011c-.173-1.139-1.229-2.019-2.52-2.019s-2.346.88-2.52,2.019h-.011l-.715,3.916s0,.006-.002.009l-.04.218h.016c-.018.129-.043.255-.043.388,0,1.678,1.484,3.038,3.314,3.038s3.315-1.36,3.315-3.038c0-.1-.022-.194-.032-.291Z" fill="#ff8934"/></g><path d="m16.72,26.658c-.016.105-.035.208-.035.317,0,1.678,1.484,3.038,3.314,3.038s3.315-1.36,3.315-3.038c0-.1-.022-.194-.032-.291h.017s-.004-.021-.004-.021c-.919-.279-2.058-.447-3.295-.447-1.231,0-2.363.166-3.28.442Z"/><circle cx="16.12" cy="21.692" r="1.421"/><circle cx="23.978" cy="21.692" r="1.421"/><path d="m9.542,28.861c-1.224-.331-3.698-.997-4.782-1.264.814,1.715,1.977,3.203,3.394,4.383l1.668-2.325c.209-.291.066-.7-.28-.794Z" fill="#422709"/><path d="m8.571,24.739l-2.931-2.472c-.303-.255-.214-.743.159-.876l2.629-.933c.359-.128.459-.589.184-.853l-3.655-3.515-.115.033c-.072.176-.148.349-.213.53l-.375,1.05c-.961,2.692-1.004,5.627-.12,8.346.137.421.301.827.477,1.226.82-.384,2.752-1.211,3.833-1.671.352-.15.42-.617.128-.864Z" fill="#422709"/><path d="m31.38,19.605c-.275.264-.175.726.184.853l2.629.933c.373.133.462.62.159.876l-2.931,2.472c-.292.247-.224.714.128.864,1.085.461,3.025,1.292,3.84,1.675.177-.4.341-.807.479-1.229.884-2.719.841-5.654-.12-8.346l-.375-1.05c-.064-.179-.14-.351-.212-.527l-.125-.036-3.655,3.515Z" fill="#422709"/><path d="m30.169,29.655l1.672,2.33c1.42-1.182,2.586-2.672,3.401-4.39-1.079.265-3.564.935-4.793,1.267-.346.093-.489.503-.28.794Z" fill="#422709"/><path d="m20.413,29.897c-.137.016-.272.038-.414.038-.132,0-.258-.022-.386-.036-.518,1.432-1.712,3.573-4.35,5.026.386.035.774.057,1.167.057h7.139c.406,0,.808-.024,1.207-.062-2.63-1.454-3.835-3.593-4.362-5.024Z" fill="#422709"/></g><rect width="40" height="40" fill="none"/></svg>