<svg id="Layer_1" data-name="Layer 1" xmlns="http://www.w3.org/2000/svg" viewBox="0 0 40 40"><defs><style>.cls-1{fill:#ff5543;}.cls-2{fill:#fff;}.cls-3{fill:#1d1d1b;}.cls-4{fill:#ffed00;}.cls-5{fill:#d64034;}.cls-6{fill:none;}</style></defs><path class="cls-1" d="M7.415,3H29.182a2.732,2.732,0,0,1,2.732,2.732V23.753A13.247,13.247,0,0,1,18.667,37H17.93A13.247,13.247,0,0,1,4.683,23.753V5.732A2.732,2.732,0,0,1,7.415,3Z"/><circle class="cls-2" cx="17.734" cy="13.158" r="3.78"/><path class="cls-3" d="M17.709,11.437,13.443,5.7a.749.749,0,0,1,.628-1.156H17.4A.75.75,0,0,1,18.1,5l3.175,6.778H18.337A.75.75,0,0,1,17.709,11.437Z"/><circle class="cls-3" cx="19.491" cy="13.944" r="1.601"/><circle class="cls-2" cx="26.562" cy="13.058" r="3.78"/><circle class="cls-3" cx="28.319" cy="13.844" r="1.601"/><path class="cls-3" d="M20.292,22.686H13.446a2.409,2.409,0,0,0,3.717,2.024Z"/><path class="cls-3" d="M26.532,11.437,30.8,5.7A.749.749,0,0,0,30.17,4.54H26.837A.749.749,0,0,0,26.146,5l-3.175,6.778H25.9A.751.751,0,0,0,26.532,11.437Z"/><path class="cls-4" d="M22.494,26.769a12.523,12.523,0,0,1,5.616,1.367A1.213,1.213,0,0,1,27,30.294a10.039,10.039,0,0,0-4.507-1.1,9.256,9.256,0,0,0-4.429,1.159,1.213,1.213,0,1,1-1.139-2.141A11.615,11.615,0,0,1,22.494,26.769Z"/><path class="cls-5" d="M21.928,22.989l9.731,3.676a12.952,12.952,0,0,0,.255-2.554V22.989Z"/><path class="cls-3" d="M24.637,22.686h6.846a2.409,2.409,0,0,1-3.717,2.024Z"/><path class="cls-1" d="M21.978,16.11h9.9a3.439,3.439,0,0,1,3.439,3.439v0a3.439,3.439,0,0,1-3.439,3.439h-9.9a2.943,2.943,0,0,1-2.943-2.943v-.993a2.943,2.943,0,0,1,2.943-2.943Z"/><rect class="cls-6" width="40" height="40"/></svg>