<svg id="Layer_1" data-name="Layer 1" xmlns="http://www.w3.org/2000/svg" viewBox="0 0 40 40"><defs><style>.cls-1,.cls-3{fill:none;}.cls-2{fill:#d0d6de;}.cls-3{stroke:#a3adb7;stroke-miterlimit:10;stroke-width:0.887px;}</style></defs><rect class="cls-1" width="40" height="40" transform="translate(40 40) rotate(-180)"/><path class="cls-2" d="M12.753,38.218,38.19,12.782a.928.928,0,0,0,0-1.312l-9.7-9.7a.946.946,0,0,0-1.337,0L1.739,27.178a.944.944,0,0,0,0,1.337l9.7,9.7A.925.925,0,0,0,12.753,38.218Z"/><line class="cls-3" x1="25.761" y1="3.156" x2="27.767" y2="5.162"/><line class="cls-3" x1="23.703" y1="5.213" x2="25.709" y2="7.22"/><line class="cls-3" x1="21.646" y1="7.271" x2="23.652" y2="9.277"/><line class="cls-3" x1="19.588" y1="9.329" x2="21.594" y2="11.335"/><line class="cls-3" x1="17.531" y1="11.386" x2="19.537" y2="13.392"/><line class="cls-3" x1="15.473" y1="13.444" x2="17.479" y2="15.45"/><line class="cls-3" x1="13.415" y1="15.501" x2="15.422" y2="17.507"/><line class="cls-3" x1="11.358" y1="17.559" x2="13.364" y2="19.565"/><line class="cls-3" x1="9.3" y1="19.616" x2="11.306" y2="21.623"/><line class="cls-3" x1="7.243" y1="21.674" x2="9.249" y2="23.68"/><line class="cls-3" x1="5.185" y1="23.732" x2="7.191" y2="25.738"/><line class="cls-3" x1="3.128" y1="25.789" x2="5.134" y2="27.795"/></svg>