<?xml version="1.0" encoding="UTF-8"?><svg id="Layer_1" xmlns="http://www.w3.org/2000/svg" viewBox="0 0 40 40"><g><path d="M33.44949,21.1509c-.28926-8.57302-6.56714-15.31888-14.02203-15.06732-7.45486,.25156-13.26373,7.40526-12.97443,15.97827,.21412,6.34629,3.71151,11.30912,8.53731,13.35865,.28302,.1202,.5273,.30292,.74059,.52441,.67333,.69925,2.30891,1.30509,4.22034,1.30509,1.87767,0,3.48558-.58915,4.1794-1.26898,.19981-.19578,.43236-.3476,.69217-.45133,5.23607-2.09039,8.85651-7.56757,8.62666-14.3788Z" style="fill:#956759;"/><ellipse cx="15.40185" cy="23.72543" rx="1.43728" ry="1.72474"/><ellipse cx="24.50068" cy="23.72543" rx="1.43728" ry="1.72474"/><ellipse cx="20.168" cy="6.4756" rx="6.17205" ry="3.7256" style="fill:#bdbdbd;"/><path d="M9.46245,31.03967s-7.13722-2.49203-7.42271-8.01148c-.28549-5.51945,3.71135-8.23159,3.71135-8.23159,0,0-.5234-3.99684,4.52024-7.27996,2.32146-1.51114,4.47156-1.6816,6.11624-1.4254,3.33277,.51916,5.01714,4.43586,2.85607,7.02559-.74419,.89181-1.95441,1.72987-3.87802,2.32146-7.90908,2.43236-10.33808,7.45886-5.90317,15.60138Z" style="fill:#d9d9d9;"/><path d="M30.72822,30.80825c-.1419,.07386,6.88985-2.26298,7.22691-7.80929,.33526-5.51664-3.71136-8.23158-3.71136-8.23158,0,0,.5234-3.99684-4.52024-7.27996-2.32146-1.51114-4.47156-1.6816-6.11624-1.4254-3.33277,.51916-5.01714,4.43586-2.85607,7.02559,.74419,.89181,1.95441,1.72987,3.87802,2.32146,7.90908,2.43236,10.5339,7.25667,6.09898,15.39919Z" style="fill:#d9d9d9;"/><path d="M21.078,32.44848c.44496,0,.78954,.2256,.68,.45897-.22151,.4719-.81453,.80632-1.80674,.80632s-1.58523-.33442-1.80674-.80632c-.10954-.23337,.23504-.45897,.68-.45897h2.25348Z" style="fill:#5c2f17;"/><path d="M15.1416,33.63379c-.02197,0-.04395-.00195-.06592-.00684-.16406-.03613-.26807-.19922-.23193-.36328,.59277-2.70215,2.32812-3.04785,2.40186-3.06152,.16699-.02832,.32422,.08008,.35449,.24512,.02979,.16504-.0791,.32324-.24316,.35352-.06738,.01465-1.41944,.31934-1.91846,2.59375-.03125,.14258-.15723,.23926-.29688,.23926Z" style="fill:#845b40;"/><path d="M14.61426,28.32812c-2.47266,0-4.48438-2.01172-4.48438-4.48438s2.01172-4.48438,4.48438-4.48438,4.48486,2.01172,4.48486,4.48438-2.01221,4.48438-4.48486,4.48438Zm0-8.25391c-2.07861,0-3.76953,1.69141-3.76953,3.76953s1.69092,3.76953,3.76953,3.76953c2.0791,0,3.77002-1.69141,3.77002-3.76953s-1.69092-3.76953-3.77002-3.76953Z" style="fill:#fff;"/><path d="M25.28809,28.32812c-2.47266,0-4.48438-2.01172-4.48438-4.48438s2.01172-4.48438,4.48438-4.48438,4.48438,2.01172,4.48438,4.48438-2.01172,4.48438-4.48438,4.48438Zm0-8.25391c-2.07861,0-3.76953,1.69141-3.76953,3.76953s1.69092,3.76953,3.76953,3.76953,3.76953-1.69141,3.76953-3.76953-1.69092-3.76953-3.76953-3.76953Z" style="fill:#fff;"/><path d="M18.96143,24.125l-.43945-.5625c.50146-.3916,1.74463-.89355,2.86279,.00195l-.44727,.55859c-.96337-.77441-1.93456-.0293-1.97607,.00195Z" style="fill:#fff;"/></g><rect width="40" height="40" style="fill:none;"/></svg>