<svg id="Layer_1" data-name="Layer 1" xmlns="http://www.w3.org/2000/svg" viewBox="0 0 40 40"><defs><style>.cls-1{fill:#eaedf0;}.cls-2{fill:#ef4452;}.cls-3{fill:#afb7c0;}.cls-4{fill:#3036d1;}.cls-5{fill:none;}</style></defs><polygon class="cls-1" points="11.14 23.13 29.106 18.178 29.106 10.643 11.14 15.595 11.14 23.13"/><polygon class="cls-2" points="11.14 6.954 11.14 15.595 29.106 10.643 29.106 6.954 11.14 6.954"/><path class="cls-3" d="M7.16,2.5H32.595a.863.863,0,0,1,.863.863v0a4.7,4.7,0,0,1-4.7,4.7H10.994a4.7,4.7,0,0,1-4.7-4.7v0A.863.863,0,0,1,7.16,2.5Z"/><polygon class="cls-4" points="11.14 29.702 29.106 24.749 29.106 17.214 11.14 22.167 11.14 29.702"/><polygon class="cls-1" points="11.14 33.152 29.106 33.152 29.106 24.749 11.14 29.702 11.14 33.152"/><path class="cls-3" d="M11.227,31.94H29.018A4.685,4.685,0,0,1,33.7,36.625v0a.875.875,0,0,1-.875.875H7.417a.875.875,0,0,1-.875-.875v0a4.685,4.685,0,0,1,4.685-4.685Z"/><rect class="cls-5" width="40" height="40"/></svg>