<svg id="Layer_1" data-name="Layer 1" xmlns="http://www.w3.org/2000/svg" viewBox="0 0 40 40"><defs><style>.cls-1{fill:none;}.cls-2{fill:#ffcd00;}.cls-3{fill:#ffad00;}</style></defs><rect class="cls-1" width="40" height="40"/><path class="cls-2" d="M32.35,30.767l2.8-15.056a.8.8,0,0,0-1.177-.845l-5,2.792a3,3,0,0,1-4.005-1.024l-4.3-6.853a.8.8,0,0,0-1.356,0l-4.3,6.853a3,3,0,0,1-4,1.024l-5-2.792a.8.8,0,0,0-1.177.845l2.8,15.056"/><path class="cls-3" d="M30.767,35.517H9.233A1.5,1.5,0,0,1,7.65,33.933V30.767h24.7v3.166A1.587,1.587,0,0,1,30.767,35.517Z"/><circle class="cls-3" cx="20" cy="6.872" r="2.533"/><circle class="cls-3" cx="36.467" cy="13.033" r="2.533"/><circle class="cls-3" cx="3.533" cy="13.033" r="2.533"/></svg>