<?xml version="1.0" encoding="UTF-8"?><svg id="Layer_1" xmlns="http://www.w3.org/2000/svg" viewBox="0 0 40 40"><rect width="40" height="40" fill="none" opacity=".1"/><g><path d="m39.027,16.266c-.852-.397-1.873-.011-2.28.862,0,0,0,0,0,0l-1.373,2.944-.397-.183,3.277-7.027c.398-.853.03-1.867-.822-2.265-.852-.397-1.865-.027-2.263.826l-3.282,7.038-.397-.183,3.755-8.054c.406-.871.045-1.899-.807-2.296-.852-.397-1.872-.013-2.278.858l-3.761,8.065-.397-.183,3.051-6.543h0c.406-.871.045-1.899-.807-2.296s-1.872-.013-2.278.858c0,0,0,.001,0,.002l-3.373,7.234-.307-1.821c0-1-.811-1.812-1.811-1.812s-1.811.811-1.811,1.812v7.927h0c0,2.124.81,4.248,2.431,5.869,3.241,3.241,8.497,3.241,11.738,0,1.009-1.009,2.102-3.122,2.805-4.629.122-.261.258-.554.385-.826l.048-.102c.066-.142.127-.272.181-.389l1.578-3.385h0c.407-.874.047-1.904-.805-2.301Z" fill="#ffb582"/><path d="m17.523,12.289c-1,0-1.811.811-1.811,1.812l-.307,1.821-3.373-7.234s0-.001,0-.002c-.406-.871-1.426-1.255-2.278-.858s-1.213,1.425-.807,2.296h0s3.051,6.543,3.051,6.543l-.397.183-3.761-8.065c-.406-.871-1.426-1.255-2.278-.858s-1.213,1.425-.807,2.296l3.755,8.054-.397.183-3.282-7.038c-.398-.854-1.411-1.223-2.263-.826-.852.397-1.22,1.411-.822,2.265l3.277,7.027-.397.183-1.373-2.944s0,0,0,0c-.407-.874-1.428-1.26-2.28-.862s-1.212,1.427-.805,2.301H.168l1.578,3.385c.055.117.115.247.181.389l.048.102c.127.272.263.565.385.826.703,1.507,1.796,3.62,2.805,4.629,3.241,3.241,8.497,3.241,11.738,0,1.621-1.621,2.431-3.745,2.431-5.869h0v-7.927c0-1-.811-1.812-1.811-1.812Z" fill="#ffb582"/><path d="m15.214,19.363l-1.909.695c-1.561.568-2.366,2.294-1.798,3.855l.286.787c.67-2.023,1.835-3.869,3.421-5.337Z" fill="#ec6700"/><path d="m24.786,19.363l1.909.695c1.561.568,2.366,2.294,1.798,3.855l-.286.787c-.67-2.023-1.835-3.869-3.421-5.337Z" fill="#ec6700"/></g></svg>