<svg id="Layer_1" data-name="Layer 1" xmlns="http://www.w3.org/2000/svg" viewBox="0 0 40 40"><defs><style>.cls-1{fill:#333;}.cls-2{fill:#ffcca8;}.cls-3{fill:#5c2f17;}.cls-4{fill:none;}</style></defs><path class="cls-1" d="M4.674,27.393,6.2,33.509a2.54,2.54,0,0,0,2.465,1.926H31.274a2.54,2.54,0,0,0,2.51-2.144l.931-5.9Z"/><circle class="cls-2" cx="20" cy="23.281" r="13.384"/><ellipse class="cls-2" cx="7.785" cy="23.657" rx="5.358" ry="5.025"/><ellipse class="cls-2" cx="32.215" cy="23.657" rx="5.358" ry="5.025"/><path class="cls-1" d="M35.136,19.443a15.428,15.428,0,0,0-30.78-1.85A15.8,15.8,0,0,0,4.3,19.762s1.308-.311,2.472,2.215L15.6,12.1s10.718,8.608,17.792,8.138a1.628,1.628,0,0,0,.513-.14C34.378,19.83,34.774,19.338,35.136,19.443Z"/><ellipse cx="16.24" cy="22.634" rx="1.424" ry="1.709"/><ellipse cx="23.76" cy="22.634" rx="1.424" ry="1.709"/><path class="cls-3" d="M21.772,29.373a.484.484,0,0,1,.462.616,2.318,2.318,0,0,1-4.468,0,.484.484,0,0,1,.462-.616Z"/><rect class="cls-4" width="40" height="40"/></svg>