<svg id="Layer_1" data-name="Layer 1" xmlns="http://www.w3.org/2000/svg" viewBox="0 0 40 40"><defs><style>.cls-1{fill:#333d4b;}.cls-2{fill:#f56570;}.cls-3{fill:#93c9ff;}.cls-4{fill:#58c6c6;}.cls-5{fill:#fff;}.cls-6{fill:#64a7ff;}.cls-7{fill:#fdaeb3;}.cls-8{fill:#7d9dff;}.cls-9{fill:#5a81ff;}.cls-10,.cls-11{fill:none;}.cls-11{stroke:#d0d6de;stroke-linecap:round;stroke-miterlimit:10;stroke-width:2px;}</style></defs><rect class="cls-1" x="8.5" y="2.389" width="23" height="35.221" rx="3.825"/><rect class="cls-2" x="12.562" y="18.075" width="3.849" height="3.849" rx="1.155"/><rect class="cls-3" x="23.588" y="12.669" width="3.849" height="3.849" rx="1.155"/><rect class="cls-4" x="18.075" y="12.669" width="3.849" height="3.849" rx="1.155"/><rect class="cls-5" x="12.562" y="12.669" width="3.849" height="3.849" rx="1.155"/><rect class="cls-6" x="18.075" y="23.482" width="3.849" height="3.849" rx="1.155"/><rect class="cls-7" x="23.588" y="18.075" width="3.849" height="3.849" rx="1.155"/><rect class="cls-8" x="18.075" y="18.075" width="3.849" height="3.849" rx="1.155" transform="translate(40 40) rotate(180)"/><rect class="cls-9" x="12.562" y="23.482" width="3.849" height="3.849" rx="1.155" transform="translate(28.974 50.813) rotate(-180)"/><rect class="cls-4" x="23.588" y="23.482" width="3.849" height="3.849" rx="1.155"/><rect class="cls-10" width="40" height="40"/><path class="cls-11" d="M35.185,7.76c0,2.039,2.5,2.039,2.5,4.078s-2.5,2.038-2.5,4.077,2.5,2.038,2.5,4.077-2.5,2.04-2.5,4.081,2.5,2.042,2.5,4.084-2.5,2.041-2.5,4.083"/><path class="cls-11" d="M4.815,7.76c0,2.039-2.5,2.039-2.5,4.078s2.5,2.038,2.5,4.077-2.5,2.038-2.5,4.077,2.5,2.04,2.5,4.081-2.5,2.042-2.5,4.084,2.5,2.041,2.5,4.083"/></svg>