<?xml version="1.0" encoding="UTF-8"?><svg id="Layer_1" xmlns="http://www.w3.org/2000/svg" viewBox="0 0 40 40"><g><path d="m13.277,30.393l-1.835-1.835-1.835-1.835-3.682,1.553c-2.195.926-3.659,3.008-3.856,5.382-.138,1.666-.438,3.629-1.069,5.342,1.713-.631,3.676-.931,5.342-1.069,2.375-.197,4.456-1.661,5.382-3.856l1.553-3.682Z" fill="#ffb72d"/><path d="m33.317,3.006h0c-4.347.26-8.348,2.458-10.899,5.988l-12.811,17.729,1.835,1.835,1.835,1.835,17.729-12.811c3.53-2.551,5.728-6.552,5.988-10.899h0c.124-2.08-1.597-3.801-3.677-3.677Z" fill="#1e6ef4"/><path d="m9.771,24.464h6.73v3.977c0,.452-.367.818-.818.818h-5.094c-.452,0-.818-.367-.818-.818v-3.977h0Z" transform="translate(22.841 -1.421) rotate(45)" fill="#4a4a4a"/></g><rect width="40" height="40" fill="none"/></svg>