<?xml version="1.0" encoding="UTF-8"?><svg id="Layer_1" xmlns="http://www.w3.org/2000/svg" viewBox="0 0 40 40"><g><rect x="-.036" y="0" width="40" height="40" fill="none"/><path d="m31.068,8.09H5.464c-2.209,0-4,1.791-4,4v15.82c0,2.209,1.791,4,4,4h25.604c2.209,0,4-1.791,4-4v-15.82c0-2.209-1.791-4-4-4Zm1.595,19.916c0,.828-.672,1.5-1.5,1.5H5.369c-.828,0-1.5-.672-1.5-1.5V11.995c0-.828.672-1.5,1.5-1.5h25.794c.828,0,1.5.672,1.5,1.5v16.011Z" fill="#6b7683"/><path d="m37.068,15.721h1.396v8.557h-1.396c-1.104,0-2-.896-2-2v-4.557c0-1.104.896-2,2-2Z" transform="translate(73.532 40) rotate(-180)" fill="#4e5968"/></g><path d="m5.949,8.45h19.011v21.6c0,.828-.672,1.5-1.5,1.5H7.449c-.828,0-1.5-.672-1.5-1.5V8.45h0Z" transform="translate(35.455 4.545) rotate(90)" fill="#7bd58f"/></svg>