<?xml version="1.0" encoding="UTF-8"?><svg id="a" xmlns="http://www.w3.org/2000/svg" viewBox="0 0 40 40"><g opacity="0"><rect width="40" height="40" fill="none"/></g><g><path d="M20,5.5c-7.995,0-14.5,6.505-14.5,14.5s6.505,14.5,14.5,14.5,14.5-6.505,14.5-14.5-6.505-14.5-14.5-14.5Zm4.932,23.162c-.234,.133-.489,.197-.741,.197-.521,0-1.028-.272-1.305-.758l-1.386-2.434v4.006c0,.829-.672,1.5-1.5,1.5s-1.5-.671-1.5-1.5v-9.672c0-.018,.005-.034,.005-.052,.002-.055,.009-.109,.017-.164,.007-.045,.013-.09,.023-.134,.011-.048,.028-.094,.044-.141,.016-.046,.031-.091,.051-.135,.02-.044,.045-.085,.069-.127,.024-.041,.047-.082,.075-.121,.029-.04,.061-.077,.094-.114,.032-.036,.063-.072,.098-.104,.034-.032,.072-.061,.109-.09,.042-.032,.083-.063,.128-.091,.016-.01,.029-.023,.045-.032,.025-.014,.051-.021,.076-.034,.047-.024,.095-.045,.145-.064,.047-.018,.094-.031,.141-.044,.045-.012,.09-.022,.137-.03,.055-.009,.11-.014,.166-.017,.026-.001,.051-.008,.077-.008,.018,0,.034,.005,.051,.005,.056,.002,.11,.009,.165,.017,.045,.006,.089,.013,.132,.023,.049,.012,.097,.028,.145,.045,.044,.015,.088,.03,.13,.049,.046,.021,.089,.046,.133,.072,.039,.023,.078,.045,.115,.072,.042,.03,.08,.063,.118,.097,.035,.031,.069,.061,.101,.094,.033,.035,.062,.073,.092,.111,.032,.041,.063,.083,.091,.127,.01,.016,.023,.029,.032,.045l4.189,7.358c.41,.72,.158,1.636-.562,2.046Z" fill="#e5e8eb"/><path d="M20,2.5C10.335,2.5,2.5,10.335,2.5,20s7.835,17.5,17.5,17.5,17.5-7.835,17.5-17.5S29.665,2.5,20,2.5Zm0,32c-7.995,0-14.5-6.505-14.5-14.5S12.005,5.5,20,5.5s14.5,6.505,14.5,14.5-6.505,14.5-14.5,14.5Z" fill="#a3adb7"/><path d="M21.304,19.258c-.009-.016-.022-.029-.032-.045,.142,.229,.228,.497,.228,.787v5.667l1.386,2.434c.276,.486,.783,.758,1.305,.758,.252,0,.507-.063,.741-.197,.72-.41,.972-1.326,.562-2.046l-4.189-7.358Z" fill="#ff2a4b"/><path d="M21.272,19.213c-.028-.045-.059-.086-.091-.127-.03-.038-.059-.076-.092-.111-.032-.034-.066-.064-.101-.094-.038-.034-.076-.068-.118-.097-.037-.026-.076-.049-.115-.072-.043-.026-.087-.051-.133-.072-.042-.019-.086-.034-.13-.049-.048-.017-.095-.033-.145-.045-.043-.01-.087-.016-.132-.023-.054-.008-.109-.015-.165-.017-.017,0-.034-.005-.051-.005-.026,0-.051,.006-.077,.008-.056,.003-.112,.008-.166,.017-.047,.008-.092,.018-.137,.03-.048,.013-.095,.027-.141,.044-.05,.019-.097,.041-.145,.064-.041,.021-.082,.041-.121,.065-.045,.028-.087,.059-.128,.091-.037,.029-.075,.058-.109,.09-.035,.033-.066,.068-.098,.104-.033,.037-.065,.074-.094,.114-.028,.038-.051,.079-.075,.121-.024,.042-.049,.083-.069,.127-.02,.044-.035,.089-.051,.135-.016,.046-.032,.092-.044,.141-.01,.044-.017,.089-.023,.134-.008,.054-.015,.108-.017,.164,0,.018-.005,.034-.005,.052v9.672c0,.829,.672,1.5,1.5,1.5s1.5-.671,1.5-1.5v-9.672c0-.29-.086-.558-.228-.787Z" fill="#313d4c"/></g></svg>