<?xml version="1.0" encoding="UTF-8"?><svg id="Layer_1" xmlns="http://www.w3.org/2000/svg" viewBox="0 0 40 40"><path d="m24.453,21.823c2.396,2.396,6.28,2.396,8.676,0,2.331-2.331,2.387-6.067.183-8.474.395-.245.771-.533,1.114-.876,2.396-2.396,2.396-6.28,0-8.676-2.396-2.396-6.28-2.396-8.676,0-.343.343-.631.719-.876,1.114-2.407-2.204-6.143-2.148-8.474.183-2.396,2.396-2.396,6.28,0,8.676.965.965,2.171,1.528,3.423,1.715l-15.642,15.642c-.539.539-.539,1.414,0,1.953l.847.847c.539.539,1.414.539,1.953,0l4.069-4.069,2.719,2.719-2.266,2.266c-.539.539-.539,1.414,0,1.953l.8.8c.539.539,1.414.539,1.953,0l6.396-6.396c.539-.539.539-1.414,0-1.953l-.8-.8c-.539-.539-1.414-.539-1.953,0l-1.602,1.602-2.719-2.719,9.137-9.137c.152,1.326.72,2.612,1.737,3.63Zm6.586-6.279c1.153,1.153,1.153,3.021,0,4.174-1.153,1.153-3.021,1.153-4.174,0-1.153-1.153-1.153-3.021,0-4.174,1.153-1.153,3.021-1.153,4.174,0Zm-12.556-4.207c-1.153-1.153-1.153-3.021,0-4.174,1.153-1.153,3.021-1.153,4.174,0s1.153,3.021,0,4.174c-1.153,1.153-3.021,1.153-4.174,0Zm9.492-1.088c-1.202-1.202-1.202-3.152,0-4.354,1.202-1.202,3.152-1.202,4.354,0,1.202,1.202,1.202,3.152,0,4.354s-3.152,1.202-4.354,0Z" fill="#4e5968"/><rect x="0" y="0" width="40" height="40" transform="translate(40 40) rotate(-180)" fill="none"/></svg>