<?xml version="1.0" encoding="UTF-8"?><svg id="a" xmlns="http://www.w3.org/2000/svg" viewBox="0 0 40 40"><g><path d="M20,5.5c-7.995,0-14.5,6.505-14.5,14.5s6.505,14.5,14.5,14.5,14.5-6.505,14.5-14.5-6.505-14.5-14.5-14.5Zm1.5,24.172c0,.829-.671,1.5-1.5,1.5s-1.5-.671-1.5-1.5v-9.266l-4.072-6.956c-.418-.715-.178-1.634,.537-2.052,.715-.419,1.634-.178,2.052,.537l4.278,7.307c.015,.025,.023,.052,.036,.078,.025,.049,.049,.099,.069,.151,.017,.045,.03,.09,.042,.136,.013,.047,.025,.094,.033,.143,.009,.054,.013,.107,.016,.161,.002,.03,.009,.058,.009,.089v9.672Z" fill="#e5e8eb"/><path d="M20,2.5C10.335,2.5,2.5,10.335,2.5,20s7.835,17.5,17.5,17.5,17.5-7.835,17.5-17.5S29.665,2.5,20,2.5Zm0,32c-7.995,0-14.5-6.505-14.5-14.5S12.005,5.5,20,5.5s14.5,6.505,14.5,14.5-6.505,14.5-14.5,14.5Z" fill="#a3adb7"/><path d="M20,18.5c.583,0,1.082,.335,1.33,.82-.013-.026-.021-.053-.036-.078l-4.278-7.307c-.418-.715-1.337-.956-2.052-.537-.715,.418-.955,1.337-.537,2.052l4.072,6.956v-.407c0-.829,.671-1.5,1.5-1.5Z" fill="#ff2a4b"/><path d="M21.475,19.751c-.008-.049-.021-.096-.033-.143-.013-.046-.026-.092-.042-.136-.02-.052-.044-.102-.069-.151-.248-.485-.748-.82-1.33-.82-.829,0-1.5,.671-1.5,1.5v9.672c0,.829,.671,1.5,1.5,1.5s1.5-.671,1.5-1.5v-9.672c0-.03-.007-.059-.009-.089-.003-.054-.007-.108-.016-.161Z" fill="#313d4c"/></g><rect x="0" y="0" width="40" height="40" fill="none"/></svg>