<?xml version="1.0" encoding="UTF-8"?><svg id="Layer_1" xmlns="http://www.w3.org/2000/svg" viewBox="0 0 40 40"><rect x="0" y="0" width="40" height="40" transform="translate(40 40) rotate(-180)" fill="none"/><path d="m33.129,19.347l-2.415-2.199c-.355-.477-.586-1.042-.621-1.636-.127-2.171.284-2.73-.581-4.975-1.65-4.282-5.325-7.468-9.84-8.289C10.52.582,2.55,7.568,2.55,16.415c0,3.194,1.044,6.14,2.805,8.527,1.084,1.469,1.705,3.226,1.705,5.051v6.042c0,1.086.88,1.966,1.966,1.966h10.551c1.086,0,1.966-.88,1.966-1.966v-3.667h5.537c1.435,0,2.662-1.033,2.906-2.447l.334-1.935-1.848-1.222c-.668-.441-.524-1.46.24-1.699l2.076-.651.015-1.674,2.295-1.911c.458-.382.474-1.08.033-1.482Z" fill="#333d4b"/><g><path d="m37.374,28.937c-.064,0-.129-.008-.195-.025l-2.383-.639c-.4-.107-.637-.519-.53-.919.107-.399.519-.634.919-.53l2.383.639c.4.107.637.519.53.919-.09.335-.393.556-.724.556Z" fill="#abb7c7"/><path d="m36.35,32.429c-.127,0-.256-.032-.375-.101l-2.137-1.233c-.359-.207-.481-.666-.274-1.024.207-.359.666-.482,1.024-.274l2.137,1.233c.359.207.481.666.274,1.024-.139.241-.391.375-.65.375Z" fill="#abb7c7"/><path d="m38.233,25.4h-2.467c-.414,0-.75-.336-.75-.75s.336-.75.75-.75h2.467c.414,0,.75.336.75.75s-.336.75-.75.75Z" fill="#abb7c7"/></g></svg>