<svg id="Layer_1" data-name="Layer 1" xmlns="http://www.w3.org/2000/svg" viewBox="0 0 40 40"><defs><style>.cls-1{fill:none;}.cls-2{fill:#c3846c;}.cls-3{fill:#e5e9ee;}.cls-4{fill:#23b169;}.cls-5{fill:#313d4c;}</style></defs><g id="guide"><rect id="_20x20" data-name="20x20" class="cls-1" width="40" height="40"/></g><path class="cls-2" d="M35.5,3.5H4.5a1,1,0,0,0-1,1v31a1,1,0,0,0,1,1h31a1,1,0,0,0,1-1V4.5A1,1,0,0,0,35.5,3.5Z"/><path class="cls-3" d="M32.8,7.2H7.2V32.8H32.8Z"/><path class="cls-4" d="M23.683,27.726H13.947a1.912,1.912,0,0,1-1.609-2.944l4.869-7.588a1.91,1.91,0,0,1,3.217,0l4.869,7.588A1.912,1.912,0,0,1,23.683,27.726Z"/><rect class="cls-1" width="40" height="40"/><path class="cls-5" d="M26.469,17.384a2.425,2.425,0,1,1,2.425-2.424A2.425,2.425,0,0,1,26.469,17.384Z"/></svg>