<svg id="Layer_1" data-name="Layer 1" xmlns="http://www.w3.org/2000/svg" viewBox="0 0 40 40"><defs><style>.cls-1{fill:none;}.cls-2{fill:#ffc522;}</style></defs><rect class="cls-1" width="40" height="40"/><path class="cls-2" d="M17.63,5.567a11.883,11.883,0,1,0,16.8,16.8,11.883,11.883,0,1,0-16.8-16.8Zm8.779,2.606a3.832,3.832,0,1,1-.039,5.458A3.859,3.859,0,0,1,26.409,8.173Z"/><path class="cls-2" d="M12.076,35.167,9.919,33.01a1.5,1.5,0,0,1,2.121-2.121L14.2,33.046h0l2.121-2.12h0l-2.157-2.157a1.5,1.5,0,1,1,2.121-2.121l2.157,2.158h0l6.748-6.748-7.244-7.244L3.5,29.256a5.123,5.123,0,0,0,0,7.244h0a5.123,5.123,0,0,0,7.244,0l1.333-1.333Z"/></svg>