<svg id="Layer_1" data-name="Layer 1" xmlns="http://www.w3.org/2000/svg" viewBox="0 0 40 40"><defs><style>.cls-1,.cls-2{fill:none;}.cls-2{stroke:#64a7ff;stroke-linecap:round;stroke-linejoin:round;stroke-width:2.5px;}.cls-3{fill:#d0d6de;}.cls-4{fill:#abb7c7;}.cls-5{fill:#4e5968;}</style></defs><rect class="cls-1" width="40" height="40"/><line class="cls-2" x1="18.266" y1="36.103" x2="34.949" y2="26.471"/><rect class="cls-3" x="4.511" y="32.958" width="30.979" height="5.042" rx="1.655" transform="translate(40 70.958) rotate(-180)"/><path class="cls-4" d="M18.611,32.96a6.41,6.41,0,0,1,3.165-11.984V14.6A12.789,12.789,0,0,0,10.269,32.959Z"/><path class="cls-5" d="M24.928,23.556h3.194a1.1,1.1,0,0,1,1.1,1.1v.961a0,0,0,0,1,0,0h-5.4a0,0,0,0,1,0,0v-.961a1.1,1.1,0,0,1,1.1-1.1Z" transform="translate(61.789 32.619) rotate(150)"/><rect class="cls-4" x="14.219" y="5.355" width="5.137" height="4.735" transform="translate(35.187 6.017) rotate(150)"/><rect class="cls-3" x="17.353" y="7.641" width="8.709" height="17.205" rx="1.655" transform="matrix(-0.866, 0.5, -0.5, -0.866, 48.628, 19.458)"/><rect class="cls-5" x="10.91" y="3.512" width="8.328" height="2.487" rx="1.103" transform="matrix(-0.866, 0.5, -0.5, -0.866, 30.507, 1.336)"/></svg>