<?xml version="1.0" encoding="UTF-8"?><svg id="Layer_1" xmlns="http://www.w3.org/2000/svg" viewBox="0 0 40 40"><rect x="0" y="0" width="40" height="40" fill="none"/><g><g><path d="m36.654,18.86h-3.224l-.63-1.365c-.763-1.653-2.418-2.712-4.239-2.712H11.439c-1.821,0-3.476,1.059-4.239,2.712l-.63,1.365h-3.224v15.532h.017c.06,1.718,1.457,3.184,3.286,3.184h26.702c1.829,0,3.226-1.466,3.286-3.184h.017v-15.532Z" fill="#2085f7" fill-rule="evenodd"/><path d="m33.351,22.399H6.649c-2.157,0-3.734-2.035-3.197-4.123l3.749-8.121c.763-1.653,2.418-2.712,4.239-2.712h17.122c1.821,0,3.476,1.059,4.239,2.712l3.749,8.121c.537,2.089-1.04,4.123-3.197,4.123Z" fill="#64a7ff" fill-rule="evenodd"/></g><path d="m26.857,15.558h-13.715c-.676,0-1.225-.548-1.225-1.225s.548-1.225,1.225-1.225h13.715c.676,0,1.225.548,1.225,1.225s-.548,1.225-1.225,1.225Z" fill="#3182f6"/><path d="m14.302,2.577h11.397c.64,0,1.159.519,1.159,1.159v10.597h-13.715V3.736c0-.64.519-1.159,1.159-1.159Z" fill="#e2e5e8"/></g></svg>