<svg id="Layer_1" data-name="Layer 1" xmlns="http://www.w3.org/2000/svg" viewBox="0 0 40 40"><defs><style>.cls-1,.cls-4{fill:none;}.cls-2{fill:#4e5968;}.cls-3{fill:#6b7683;}.cls-4{stroke:#d0d6de;stroke-linecap:round;stroke-miterlimit:10;stroke-width:2px;}</style></defs><rect class="cls-1" width="40" height="40"/><path class="cls-2" d="M9.3,26.76H4.325a1.817,1.817,0,0,1-1.818-1.817V15.057A1.817,1.817,0,0,1,4.325,13.24H9.3Z"/><path class="cls-3" d="M9.3,26.76V13.24l17-8.062A1.817,1.817,0,0,1,28.9,6.82V33.18a1.817,1.817,0,0,1-2.6,1.642Z"/><path class="cls-2" d="M28.9,16.62h2.08A1.818,1.818,0,0,1,32.8,18.437v3.126A1.818,1.818,0,0,1,30.98,23.38H28.9"/><path class="cls-4" d="M35.506,27.916s4.47-6.183,0-14.964"/></svg>