<svg id="Layer_1" data-name="Layer 1" xmlns="http://www.w3.org/2000/svg" viewBox="0 0 40 40"><defs><style>.cls-1{fill:none;}.cls-2,.cls-4{fill:#333d4b;}.cls-2,.cls-3{fill-rule:evenodd;}.cls-3{fill:#4e5968;}.cls-5{fill:#afb7c0;}.cls-6{fill:#ef4452;}</style></defs><rect class="cls-1" width="40" height="40"/><path class="cls-2" d="M36.491,27.727H33.3l-.624-1.352a4.624,4.624,0,0,0-4.2-2.685H11.523a4.624,4.624,0,0,0-4.2,2.685L6.7,27.727H3.509v7.62h.016A3.261,3.261,0,0,0,6.779,38.5H33.221a3.261,3.261,0,0,0,3.254-3.153h.016Z"/><path class="cls-3" d="M33.221,31.231H6.779a3.269,3.269,0,0,1-3.166-4.083l3.712-8.041a4.625,4.625,0,0,1,4.2-2.686H28.477a4.625,4.625,0,0,1,4.2,2.686l3.712,8.041A3.269,3.269,0,0,1,33.221,31.231Z"/><ellipse class="cls-4" cx="20" cy="22.792" rx="6.443" ry="3.609"/><path class="cls-5" d="M21.457,21.066c0,1.648-2.914,1.648-2.914,0V7.32h2.914Z"/><circle class="cls-6" cx="20" cy="7.32" r="5.82"/></svg>