<?xml version="1.0" encoding="UTF-8"?><svg id="a" xmlns="http://www.w3.org/2000/svg" viewBox="0 0 40 40"><rect x="0" width="40" height="40" fill="none"/><g><g isolation="isolate"><path d="M33.041,12.421c-7.246-4.184-18.959-4.184-26.167,.005-7.199,4.184-7.161,10.968,.085,15.152s18.959,4.184,26.158,0c7.208-4.189,7.169-10.973-.077-15.157" fill="#a3adb7"/></g><path d="M33.041,17.707c-7.246-4.184-18.959-4.184-26.167,.005-2.417,1.404-3.998,3.104-4.785,4.898,.796,1.82,2.406,3.546,4.87,4.969,7.246,4.184,18.959,4.184,26.158,0,2.421-1.407,4.004-3.109,4.792-4.904-.796-1.819-2.405-3.544-4.869-4.967Z" fill="#2e3d51"/></g></svg>