<?xml version="1.0" encoding="UTF-8"?><svg id="Layer_1" xmlns="http://www.w3.org/2000/svg" viewBox="0 0 40 40"><rect width="40" height="40" fill="none"/><g><g><path d="m7.697,26.76H2.72c-1.004,0-1.818-.814-1.818-1.818v-9.886c0-1.004.814-1.818,1.818-1.818h4.977v13.521Z" fill="#4e5968"/><path d="m7.697,26.76v-13.521L24.699,5.178c1.206-.572,2.596.308,2.596,1.642v26.36c0,1.335-1.39,2.214-2.596,1.642L7.697,26.76Z" fill="#6b7683"/><path d="m27.295,16.62h2.08c1.004,0,1.818.814,1.818,1.818v3.125c0,1.004-.814,1.818-1.818,1.818h-2.08" fill="#4e5968"/></g><path d="m32.996,27.669c-.203,0-.408-.062-.585-.189-.446-.323-.548-.946-.227-1.393.141-.2,3.301-4.794-.079-11.434-.25-.492-.054-1.094.438-1.345.488-.253,1.094-.054,1.345.438,3.956,7.773.086,13.279-.081,13.51-.195.271-.501.414-.812.414Z" fill="#d0d6de"/><path d="m36.364,31.291c-.203,0-.408-.062-.585-.189-.447-.323-.548-.947-.226-1.395h0c.235-.329,5.698-8.195-.08-19.543-.25-.492-.055-1.094.438-1.345.493-.252,1.095-.054,1.346.438,6.353,12.478.185,21.253-.081,21.621-.195.271-.501.414-.812.414Z" fill="#d0d6de"/></g></svg>