<svg id="Layer_1" data-name="Layer 1" xmlns="http://www.w3.org/2000/svg" viewBox="0 0 40 40"><defs><style>.cls-1{fill:#4e5968;}.cls-2{fill:#333d4b;}.cls-3{fill:none;}.cls-4{fill:#64a7ff;}.cls-5{fill:#3182f6;}.cls-6{fill:#fff;}</style></defs><path class="cls-1" d="M19.938,38.062h0A11.417,11.417,0,0,0,30.35,31.3a40.261,40.261,0,0,0,3.6-16.408c0-5.995-6.274-10.854-14.014-10.854S5.924,8.9,5.924,14.9A40.243,40.243,0,0,0,9.527,31.3a11.415,11.415,0,0,0,10.411,6.759Z"/><path class="cls-2" d="M6.173,19.1c2.545,2.1,7.629,3.465,13.765,3.465S31.159,21.2,33.7,19.1c.116-1.043.187-2.121.216-3.225,0,.025-.014.046-.014.072,0,2.394-5.736,5.061-13.968,5.061S5.971,18.34,5.971,15.946c0-.026-.013-.048-.015-.074C5.985,16.977,6.056,18.055,6.173,19.1Z"/><rect class="cls-3" width="40" height="40"/><path class="cls-2" d="M19.938,22.564a.778.778,0,0,1-.779-.778V15.437a.779.779,0,0,1,1.558,0v6.349A.778.778,0,0,1,19.938,22.564Z"/><path class="cls-2" d="M12.642,10.452a7.465,7.465,0,0,1,14.93,0c0,4.089-3.343,5.43-7.465,5.43S12.642,14.541,12.642,10.452Z"/><path class="cls-4" d="M12.642,9.465a7.465,7.465,0,0,1,14.93,0c0,4.089-3.343,5.43-7.465,5.43S12.642,13.554,12.642,9.465Z"/><path class="cls-5" d="M12.642,9.465a7.465,7.465,0,0,1,14.93,0C27.572,13.554,12.642,13.554,12.642,9.465Z"/><ellipse class="cls-6" cx="22.906" cy="6.666" rx="1.01" ry="1.002"/></svg>