<?xml version="1.0" encoding="UTF-8"?><svg id="Layer_1" xmlns="http://www.w3.org/2000/svg" viewBox="0 0 40 40"><rect y="0" width="40" height="40" transform="translate(40 40) rotate(-180)" style="fill:none;"/><g><g><path d="M17.38281,15.4873c-1.84082,0-4.34082-.40039-5.91016-2.28223-1.95898-2.35059-1.84277-6.24805,.3457-11.58496,.20898-.51074,.79297-.75684,1.30469-.54492,.51074,.20898,.75488,.79297,.54492,1.30469-1.85645,4.52734-2.08594,7.82617-.66211,9.54004,1.89551,2.28223,6.27344,1.40137,6.31836,1.39355,.53711-.11816,1.06934,.23438,1.18262,.77344,.11328,.54004-.23145,1.06934-.77051,1.18359-.09375,.01953-1.06152,.2168-2.35352,.2168Z" style="fill:#333d4b;"/><path d="M13.63184,18.02637c-.875,0-1.76562-.14062-2.63281-.4873-2.77148-1.10742-4.58887-4.00781-5.40234-8.62207-.09668-.54395,.2666-1.0625,.81055-1.1582,.54199-.09961,1.0625,.2666,1.1582,.81055,.68555,3.88281,2.08789,6.27539,4.16992,7.11035,3.46582,1.3877,7.90137-1.82617,7.94629-1.85938,.44434-.3252,1.07031-.23145,1.39746,.21289s.23338,1.06934-.21094,1.39746c-.1748,.12891-3.56836,2.5957-7.23633,2.5957Z" style="fill:#333d4b;"/><path d="M4.46289,31.14355h-.01758c-.55273-.00977-.99219-.46582-.98242-1.01758,.06348-3.58984,1.24414-6.38379,3.50781-8.30664,4.31836-3.66699,10.97852-2.74609,11.25879-2.7041,.5459,.0791,.92383,.58594,.84473,1.13281-.0791,.5459-.57031,.93848-1.13281,.8457-.05762-.00879-6.05957-.82812-9.68262,2.25586-1.80273,1.53418-2.74316,3.82617-2.7959,6.81152-.00977,.5459-.45605,.98242-1,.98242Z" style="fill:#333d4b;"/><path d="M11.14941,39c-.26172,0-.52344-.10254-.71973-.30566-2.26953-2.35156-3.23047-4.90332-2.85645-7.58594,.84961-6.08789,8.37207-10.51953,8.69238-10.70508,.47559-.27539,1.08789-.11621,1.36621,.36328,.27734,.47656,.11523,1.08887-.36133,1.36621-.07031,.04102-7.00586,4.13379-7.7168,9.25684-.28711,2.06836,.46973,4.00391,2.31543,5.91602,.38379,.39746,.37207,1.03027-.02539,1.41406-.19434,.1875-.44434,.28027-.69434,.28027Z" style="fill:#333d4b;"/><path d="M22.78418,15.4873c-1.12988,0-1.96387-.20703-2.04004-.22656-.53418-.1377-.85645-.68262-.71973-1.21777,.1377-.53418,.68262-.85254,1.21484-.7207h0c.03027,.00879,3.1416,.75977,4.90332-1.04004,1.62207-1.65723,1.77344-5.12109,.43652-10.01855-.14551-.5332,.16895-1.08301,.70117-1.22852,.53516-.13867,1.08301,.16797,1.22852,.70117,1.55859,5.71289,1.23926,9.73535-.94922,11.95703-1.44043,1.46191-3.34473,1.79395-4.77539,1.79395Z" style="fill:#333d4b;"/><path d="M26.68652,18.02637c-3.5625,0-6.85059-2.47656-7.01953-2.60645-.43848-.33496-.52148-.96094-.1875-1.40039,.33594-.43848,.96484-.52148,1.40137-.18848,.04199,.03125,4.24023,3.18164,7.54199,1.88184,2.04004-.80566,3.41406-3.20703,4.08398-7.1377,.09277-.54395,.6123-.90723,1.15332-.81738,.54395,.0918,.91016,.6084,.81738,1.15332-.79492,4.67188-2.58789,7.58789-5.32812,8.66504-.8125,.31934-1.64551,.4502-2.46289,.4502Z" style="fill:#333d4b;"/><path d="M35.53711,31.14355c-.54492,0-.99023-.43652-1-.9834-.05176-3.05371-.99707-5.38086-2.80859-6.91602-3.48926-2.95801-9.1377-2.1582-9.19336-2.15039-.54688,.07812-1.05469-.2959-1.13672-.84082-.08203-.5459,.29297-1.05469,.83887-1.13672,.26758-.04297,6.58594-.94727,10.77539,2.59375,2.27539,1.9248,3.46191,4.75586,3.52441,8.41602,.00977,.55273-.43066,1.00781-.98242,1.01758h-.01758Z" style="fill:#333d4b;"/><path d="M29.08203,39c-.24414,0-.48926-.08887-.68164-.26855-.4043-.37598-.42676-1.00879-.0498-1.41309,1.76953-1.89941,2.52051-3.9082,2.23242-5.97168-.71484-5.11035-7.37305-9.18066-7.43945-9.22168-.47266-.28516-.625-.89941-.34082-1.37207,.28516-.47363,.89941-.625,1.37207-.3418,.30664,.18555,7.53613,4.5957,8.38768,10.65234,.37795,2.69141-.54686,5.25391-2.74901,7.61816-.19629,.21094-.46387,.31836-.73145,.31836Z" style="fill:#333d4b;"/></g><ellipse cx="20.30456" cy="25.62757" rx="7.34354" ry="8.55953" style="fill:#333d4b;"/><circle cx="20.23178" cy="15.35374" r="4.91973" style="fill:#333d4b;"/><circle cx="19.19447" cy="14.14176" r=".71258" style="fill:#fff;"/><circle cx="21.37674" cy="14.14176" r=".71258" style="fill:#fff;"/></g></svg>