<?xml version="1.0" encoding="UTF-8"?><svg id="a" xmlns="http://www.w3.org/2000/svg" viewBox="0 0 40 40"><g><path d="M25.6,32.127c0,3.093-2.507,5.6-5.6,5.6s-5.6-2.507-5.6-5.6h11.2Z" fill="#ff9e00"/><path d="M16.623,5.65c0-1.865,1.512-3.377,3.377-3.377s3.377,1.512,3.377,3.377h-6.753Z" fill="#ff9e00"/><path d="M6.104,18.823c0-7.981,6.728-14.39,14.821-13.866,7.386,.478,12.971,6.941,12.971,14.342v6.079l2.364,4.094c.681,1.18-.17,2.655-1.533,2.655H5.272c-1.362,0-2.214-1.475-1.533-2.655l2.364-4.094v-6.555Z" fill="#ffc000"/></g><rect width="40" height="40" fill="none"/><line x1="34.79" y1="5.21" x2="5.21" y2="34.79" fill="none" stroke="#ef4452" stroke-linecap="round" stroke-miterlimit="10" stroke-width="4"/></svg>