<?xml version="1.0" encoding="UTF-8"?><svg id="a" xmlns="http://www.w3.org/2000/svg" viewBox="0 0 40 40"><g opacity="0"><rect width="40" height="40" fill="none"/></g><g><path d="M20,5.5c-7.995,0-14.5,6.505-14.5,14.5s6.505,14.5,14.5,14.5,14.5-6.505,14.5-14.5-6.505-14.5-14.5-14.5Zm8.065,11.517l-6.565,3.843v8.812c0,.829-.671,1.5-1.5,1.5s-1.5-.671-1.5-1.5v-9.672c0-.016,.004-.03,.005-.046,.002-.053,.009-.106,.016-.158,.006-.047,.012-.093,.022-.138,.011-.046,.027-.09,.042-.135,.016-.048,.031-.095,.052-.141,.019-.042,.043-.081,.066-.122,.025-.043,.048-.087,.077-.127,.027-.038,.059-.073,.09-.109,.033-.038,.064-.076,.1-.11,.032-.03,.068-.057,.103-.085,.043-.034,.087-.068,.134-.098,.013-.008,.023-.018,.036-.026l7.307-4.278c.716-.419,1.633-.178,2.052,.537,.418,.715,.178,1.634-.537,2.052Z" fill="#e5e8eb"/><path d="M20,2.5C10.335,2.5,2.5,10.335,2.5,20s7.835,17.5,17.5,17.5,17.5-7.835,17.5-17.5S29.665,2.5,20,2.5Zm0,32c-7.995,0-14.5-6.505-14.5-14.5S12.005,5.5,20,5.5s14.5,6.505,14.5,14.5-6.505,14.5-14.5,14.5Z" fill="#a3adb7"/><path d="M26.549,14.428l-7.307,4.278c-.013,.008-.023,.018-.036,.026,.231-.144,.501-.231,.793-.231,.829,0,1.5,.671,1.5,1.5v.86l6.565-3.843c.715-.418,.955-1.337,.537-2.052-.419-.715-1.336-.956-2.052-.537Z" fill="#ff2a4b"/><path d="M20,18.5c-.292,0-.563,.087-.793,.231-.047,.03-.09,.063-.134,.098-.035,.028-.071,.054-.103,.085-.036,.034-.068,.072-.1,.11-.031,.036-.063,.071-.09,.109-.029,.04-.052,.084-.077,.127-.023,.04-.047,.079-.066,.122-.021,.045-.035,.093-.052,.141-.015,.044-.031,.089-.042,.135-.011,.045-.016,.092-.022,.138-.007,.052-.014,.105-.016,.158,0,.016-.005,.03-.005,.046v9.672c0,.829,.671,1.5,1.5,1.5s1.5-.671,1.5-1.5v-9.672c0-.829-.671-1.5-1.5-1.5Z" fill="#313d4c"/></g></svg>