<svg id="Layer_1" data-name="Layer 1" xmlns="http://www.w3.org/2000/svg" viewBox="0 0 40 40"><defs><style>.cls-1{fill:none;}.cls-2{fill:#ffc84d;}.cls-3{fill:#ffa01d;}</style></defs><rect class="cls-1" width="40" height="40"/><path class="cls-2" d="M37.479,19.97a3,3,0,0,0-4.235,0l-3.895,2.772V18.687l.4-11.542v0a2.553,2.553,0,1,0-5.1-.178h0L24.3,16.9H23.011L22.61,5.4a2.554,2.554,0,1,0-5.1.178l.4,11.383-1.12.29L15.069,7.521a2.553,2.553,0,1,0-5.028.887l1.787,10.131-1.371.355L8.678,11.759h0a2.585,2.585,0,0,0-3.11-1.922,2.585,2.585,0,0,0-1.844,3.157h0L7.07,26.414l.024-.009a12.439,12.439,0,0,0,21.118,7.068l9.267-9.267A3,3,0,0,0,37.479,19.97Z"/><path class="cls-3" d="M27.766,23.53h-2.7a4,4,0,0,0-4,4v1.113A16.906,16.906,0,0,1,27.766,23.53Z"/></svg>