<?xml version="1.0" encoding="UTF-8"?><svg id="Layer_1" xmlns="http://www.w3.org/2000/svg" viewBox="0 0 40 40"><rect width="40" height="40" fill="none"/><g><path d="m33.182,18.008h0c.001-1.577-1.245-2.854-2.782-2.853-1.538.001-2.785,1.28-2.786,2.857,0,0,0,0,0,0l-.006-1.752h0c.001-1.774-1.404-3.21-3.139-3.209s-3.142,1.44-3.144,3.213c0,.001,0,.002,0,.004V3.709h0c.001-1.774-1.404-3.21-3.139-3.209s-3.142,1.44-3.144,3.213c0,.001,0,.002,0,.004l-.005,12.51c-.021-1.754-1.414-3.168-3.135-3.167-1.735.001-3.142,1.44-3.144,3.213,0,.001,0,.002,0,.003l-.002,2.77c-2.262.592-3.939,2.631-3.939,5.078v.306c0,.013.007.024.008.037.081,7.763,6.392,14.033,14.175,14.033,7.833,0,14.182-6.35,14.182-14.182v-6.31h0Z" fill="#956759"/><path d="m6.292,20.482l2.464,4.295v-5.731c-.953.249-1.802.747-2.464,1.436Z" fill="#5e403b"/></g></svg>