<?xml version="1.0" encoding="UTF-8"?><svg id="Layer_1" xmlns="http://www.w3.org/2000/svg" viewBox="0 0 40 40"><rect width="40" height="40" fill="none"/><g><rect x="3.5" y="3.5" width="33" height="33" rx="8" ry="8" fill="#e2e5e8"/><path d="m17.2,27.915c.405.417-.453,1.947-.939,1.365-.319-.251-.903.286-.926.508-.065.626-.734.416-.755.082-.438-.354-.139-.438-.224-.598-.061-.029-.548-.036-.392-.325.036-.067.55-.348.826-.612.565-.542.582.047,1.041-.272.312-.467.958-.525,1.37-.148Zm8.641-12.911c-.009-.01-.022-.016-.024.002.008,0,.016-.001.024-.002Zm.035-.398c.605.105.78,1.652,1.186,2.375.323.662.863,1.028.428,1.733-.49.522-.382,1.941-1.022,1.676-.264-.099-.353.046-.36.257.67,2.041-1,2.671-.38,3.447.609.851.446.767.006,1.077-.24,1.139-1.758,1.829-1.019-.069-.199.251-.012.606-.609.646-.874.059.03.729-.709,1.085-.593.286-.401-.522-.354-.695-.488-.006-.401.664-.865.643-.323-.195-1.763.458-1.615-.132-.469-.042-.057-.164-.426-.502-.567.941,1.776.981-.421,1.572.093,1.67-2.248,1.173-1.857-.162-.266-.118-.119-.499.04-.737-.198.042-.38-.021-.553-.15-.778-.03-1.391.564-2.251.566-.34.002-.871.713-1.066.261-.226.535-.239.92-.844.468-.216-.219-.937-.073-.956.071.129.019.255.174.388.209.455-.189.593.09.384.54.11.085.324.113.341.305.044.494.282.303.245.57-.019.137-.46.289-.699,1.12-.376,1.31.194,1.399-.788,1.484-.039.358-.436.503-.736.455-.229-.345.057-.469-.086-.652.026.65-1.106.344-.809-.293.366-.658-.324-.985-.062-1.661.157-.407.425.133.523.334.68-.827-.346-1.589-.112-1.162.623,1.14-.221.505-.51.58-.703.515-.668-.554-.683-.906-.573-.474.765-.889,1.114-.753.241-.389.62-.684.972-.606.242-.385-.253-.647.38-.775,1.52-.309.468-.477,1.75-1.198,1.152-.649.378-.893,1.59-.566.585.158,2.927-.765,3.066-.111.092.487.602-.332.613-.014-.01-.304.002-.816.222-1.068.723-.829.624-1.957,1.123-2.096,1.53-.424.427.602.292.732.09.123.128.249.036.367.018.137.257.05.308-.013.591-.748,1.187-.277,1.752-1.404.645-1.201.849-.391,1.027-1.449.439-.278.337-.974.555-1.425.201-1.138-1.087-.87-.025-1.46-.139-.389-.287-.778.053-1.104.536-.512.069-.49.349-.758.387-.364.587.206.666.434.12-.336.682-.243.064-.279-.338.109-.058-1.247.346-.808Zm-12.382,13.237c-.006.016-.01.033-.01.05.003-.017.006-.033.01-.05Zm-.221,1.633c.008-.004.016-.008.024-.012-.008.003-.016.007-.024.012h0ZM30.874,8.953c-.042.163.126,1.177.154,1.245.687.598-.891.948-1.266,1.021-1.449.281-.933,1.709-1.44,1.811-.13.026-1.433-1.044-2.054-.744-.892.487-1.006-.182-1.169.11.122.527,1.202.96.381,1.086-.859.132-.732.652-1.125.749-.589.144.082-.759-.238-1.429-.529-1.109.313-.638.485-1.747.167-1.086.452-.161.96-.418.997-.505.527-3.104.686-3.705.31-1.172,1.063.914,1.092.953.209.28,2.536,1.459,2.642,1.44.204-.187.019-.47.726-.727.208-.061.347.239.166.357Z" fill="#039c6a" fill-rule="evenodd"/></g></svg>