<?xml version="1.0" encoding="UTF-8"?><svg id="Layer_1" xmlns="http://www.w3.org/2000/svg" viewBox="0 0 40 40"><g id="SVGID"><rect y="0" width="40" height="40" fill="none"/></g><g><path d="m5,37c-.512,0-1.023-.195-1.414-.586-.781-.781-.781-2.047,0-2.828l8.981-8.981c.781-.781,2.047-.781,2.828,0,.781.781.781,2.047,0,2.828l-8.981,8.981c-.391.391-.902.586-1.414.586Z" fill="#4e5968"/><g><path d="m10.37,17.315c0-6.79,5.524-12.315,12.315-12.315,3.395,0,6.474,1.381,8.704,3.611L13.981,26.019c-2.23-2.23-3.611-5.309-3.611-8.704Z" fill="#e5e9ee"/><path d="m13.981,26.019L31.389,8.611c2.23,2.23,3.611,5.309,3.611,8.704,0,6.79-5.525,12.315-12.315,12.315-3.395,0-6.474-1.381-8.704-3.611Z" fill="#f0f3f6"/></g><path d="m22.686,31.129c-7.618,0-13.815-6.197-13.815-13.814S15.067,3.5,22.686,3.5s13.814,6.197,13.814,13.815-6.197,13.814-13.814,13.814Zm0-24.629c-5.964,0-10.815,4.852-10.815,10.815s4.852,10.814,10.815,10.814,10.814-4.852,10.814-10.814-4.852-10.815-10.814-10.815Z" fill="#a3adb7"/></g></svg>