<?xml version="1.0" encoding="UTF-8"?><svg id="Layer_1" xmlns="http://www.w3.org/2000/svg" viewBox="0 0 40 40"><g><path d="m20,5.5c-7.995,0-14.5,6.505-14.5,14.5s6.505,14.5,14.5,14.5,14.5-6.505,14.5-14.5-6.505-14.5-14.5-14.5Zm1.5,14.5v9.672c0,.829-.671,1.5-1.5,1.5s-1.5-.671-1.5-1.5v-9.663l-.051-8.467c-.005-.829.663-1.504,1.491-1.509h.009c.824,0,1.495.666,1.5,1.491l.051,8.467s0,.003,0,.005c0,.002,0,.003,0,.005Z" fill="#e5e8eb"/><path d="m20,2.5C10.335,2.5,2.5,10.335,2.5,20s7.835,17.5,17.5,17.5,17.5-7.835,17.5-17.5S29.665,2.5,20,2.5Zm0,32c-7.995,0-14.5-6.505-14.5-14.5s6.505-14.5,14.5-14.5,14.5,6.505,14.5,14.5-6.505,14.5-14.5,14.5Z" fill="#a3adb7"/><path d="m21.449,11.523c-.005-.825-.676-1.491-1.5-1.491h-.009c-.828.005-1.496.681-1.491,1.509l.051,8.467v-.009c0-.829.671-1.5,1.5-1.5s1.497.669,1.5,1.495c0-.002,0-.003,0-.005l-.051-8.467Z" fill="#ff2a4b"/><path d="m20,18.5c-.829,0-1.5.671-1.5,1.5v9.672c0,.829.671,1.5,1.5,1.5s1.5-.671,1.5-1.5v-9.672s0-.003,0-.005c-.002-.826-.672-1.495-1.5-1.495Z" fill="#313d4c"/></g><rect x="0" y="0" width="40" height="40" fill="none"/></svg>