<svg id="Layer_1" data-name="Layer 1" xmlns="http://www.w3.org/2000/svg" viewBox="0 0 40 40"><defs><style>.cls-1{fill:none;opacity:0;}.cls-2{fill:#786de7;}.cls-3{fill:#fff;}</style></defs><rect class="cls-1" width="40" height="40"/><rect class="cls-2" x="3.5" y="3.5" width="33" height="33" rx="8"/><path class="cls-3" d="M28.716,19.2a3.878,3.878,0,0,0-3.728-1.542c-1.887.247-2.8,1.675-3.614,2.935a5.633,5.633,0,0,1-2.072,2.24,5.711,5.711,0,0,0-.712-.657,3.828,3.828,0,0,0,1.168-4.889,3.866,3.866,0,0,0-2.814-2.055,6.249,6.249,0,0,0-4.962,1.562.472.472,0,0,0-.044.678L13,18.637a.473.473,0,0,0,.648.042A3.8,3.8,0,0,1,16.5,17.7a1.371,1.371,0,0,1,1.029.737,1.417,1.417,0,0,1,.013,1.217A2.957,2.957,0,0,1,15.377,20.8a.473.473,0,0,0-.4.461v1.7a.475.475,0,0,0,.388.459A3.354,3.354,0,0,1,18.081,25.6a1.939,1.939,0,0,1-.55,2.081,2.908,2.908,0,0,1-2.829.293c-.856-.33-2.315-1.289-2.792-4.042a.472.472,0,0,0-.517-.4l-1.56.2a.476.476,0,0,0-.411.544c.5,2.969,2.075,5.157,4.377,6.044a5.945,5.945,0,0,0,2.129.4,4.947,4.947,0,0,0,3.242-1.134,4.428,4.428,0,0,0,1.352-4.546,7.98,7.98,0,0,0,2.965-3.083c.7-1.09,1.13-1.711,1.827-1.8a1.372,1.372,0,0,1,1.4.573A5.32,5.32,0,0,1,27,25.4a2.06,2.06,0,0,1-1.439,1.38c-1.243.177-1.61-1.056-1.819-1.822a.465.465,0,0,0-.6-.314l-1.5.516a.465.465,0,0,0-.3.57c.479,1.622,1.343,3.5,3.981,3.575a3.475,3.475,0,0,0,.535-.032,4.364,4.364,0,0,0,3.452-2.895A7.755,7.755,0,0,0,28.716,19.2Z"/><rect class="cls-3" x="21.733" y="9.875" width="2.702" height="2.702" rx="0.426" transform="translate(-1.177 19.611) rotate(-45)"/><path class="cls-3" d="M23.635,16.771c-.209,0-.407,0-.592-.016a6.966,6.966,0,0,1-4.864-2.863.472.472,0,0,1,.107-.671l1.459-1.027a.472.472,0,0,1,.64.1,4.325,4.325,0,0,0,2.879,1.749,4.015,4.015,0,0,0,2.99-1.25.472.472,0,0,1,.65,0l1.275,1.251a.472.472,0,0,1,0,.677A6.864,6.864,0,0,1,23.635,16.771Z"/></svg>