<?xml version="1.0" encoding="UTF-8"?><svg id="Layer_1" xmlns="http://www.w3.org/2000/svg" viewBox="0 0 40 40"><rect y="0" width="40" height="40" fill="none"/><g><path d="m15.098,30.412c-5.574,5.574-11.102,9.083-12.347,7.837-1.245-1.245,2.264-6.773,7.837-12.347" fill="#8a94a0"/><g><path d="m13.796,19.549c-3.713,3.92-6.764,7.731-8.828,10.929-.301.466-.276,1.011.045,1.331l4.18,4.18c.32.32.865.346,1.331.045,3.198-2.065,7.009-5.116,10.929-8.828l-7.656-7.656Z" fill="#d0d5da"/><path d="m23.569,25.149c9.539-9.539,15.544-19,13.413-21.131s-11.592,3.874-21.131,13.413c-.708.708-1.388,1.414-2.055,2.117l7.656,7.656c.704-.667,1.409-1.347,2.117-2.055Z" fill="#e4e7ea"/></g><path d="m23.233,24.814c.397.397,1.128.316,1.614-.182,9.007-9.237,14.405-18.343,12.135-20.614-2.27-2.27-11.377,3.128-20.614,12.135-.498.486-.579,1.217-.182,1.614l7.047,7.047Z" fill="#afb7c0"/></g></svg>