<?xml version="1.0" encoding="UTF-8"?><svg id="Layer_1" xmlns="http://www.w3.org/2000/svg" viewBox="0 0 40 40"><rect width="40" height="40" fill="none"/><rect width="40" height="40" fill="none"/><g><g><path d="m8.946,12.884l.951,18.804h20.205l.926-18.824-10.426-8.231c-.353-.279-.852-.279-1.205,0l-10.451,8.251Z" fill="#f77f00"/><polygon points="9.897 16.022 9.897 35.576 30.103 35.576 30.103 16.022 20 8.046 9.897 16.022" fill="#ffe3a0"/><rect x="17.05" y="31.085" width="5.9" height="4.492" fill="#86584a"/><path d="m20,27.218c-1.629,0-2.95,1.321-2.95,2.95v.917h5.9v-.917c0-1.629-1.321-2.95-2.95-2.95Z" fill="#86584a"/><circle cx="20" cy="18.137" r="4.984" fill="#ffc100"/><path d="m21.948,18.137l.854-1.42c.049-.081-.01-.184-.104-.184h-1.714l-.879-1.463c-.047-.079-.161-.079-.208,0l-.879,1.463h-1.714c-.095,0-.153.103-.104.184l.854,1.42-.854,1.42c-.049.081.01.184.104.184h1.714l.879,1.463c.047.079.161.079.208,0l.879-1.463h1.714c.095,0,.153-.103.104-.184l-.854-1.42Z" fill="#ffef61"/></g><path d="m9.897,13.918v21.659h-5.453c-1.074,0-1.944-.871-1.944-1.944V13.918h7.397Z" fill="#ffd06c"/><path d="m5.489,8.906c.384-.415,1.036-.415,1.42,0,1.074,1.161,2.989,3.437,2.989,4.907v2.049H2.5v-2.049c0-1.47,1.914-3.746,2.989-4.907Z" fill="#f77f00"/><path d="m30.103,13.918v21.659s5.453,0,5.453,0c1.074,0,1.944-.871,1.944-1.944V13.918s-7.397,0-7.397,0Z" fill="#ffd06c"/><path d="m34.511,8.906c-.384-.415-1.036-.415-1.42,0-1.074,1.161-2.989,3.437-2.989,4.907v2.049s7.397,0,7.397,0v-2.049c0-1.47-1.914-3.746-2.989-4.907Z" fill="#f77f00"/></g></svg>