<?xml version="1.0" encoding="UTF-8"?><svg id="Layer_1" xmlns="http://www.w3.org/2000/svg" viewBox="0 0 40 40"><g opacity="0"><rect width="40" height="40" fill="none"/></g><g><path d="m20,5.5c-7.995,0-14.5,6.505-14.5,14.5s6.505,14.5,14.5,14.5,14.5-6.505,14.5-14.5-6.505-14.5-14.5-14.5Zm5.493,7.884l-3.993,7.014v9.275c0,.829-.671,1.5-1.5,1.5s-1.5-.671-1.5-1.5v-9.672c0-.027.007-.053.008-.08.003-.054.008-.108.016-.162.008-.048.019-.094.031-.14.012-.047.026-.093.043-.139.019-.051.041-.099.065-.147.012-.025.019-.05.033-.075l4.189-7.358c.41-.72,1.326-.971,2.046-.562.72.41.971,1.326.562,2.046Z" fill="#e5e8eb"/><path d="m20,2.5C10.335,2.5,2.5,10.335,2.5,20s7.835,17.5,17.5,17.5,17.5-7.835,17.5-17.5S29.665,2.5,20,2.5Zm0,32c-7.995,0-14.5-6.505-14.5-14.5s6.505-14.5,14.5-14.5,14.5,6.505,14.5,14.5-6.505,14.5-14.5,14.5Z" fill="#a3adb7"/><path d="m24.932,11.338c-.72-.41-1.636-.158-2.046.562l-4.189,7.358c-.014.024-.021.05-.033.075.246-.492.749-.832,1.337-.832.829,0,1.5.671,1.5,1.5v.397l3.993-7.014c.41-.72.158-1.636-.562-2.046Z" fill="#ff2a4b"/><path d="m20,18.5c-.587,0-1.091.341-1.337.832-.024.048-.046.096-.065.147-.017.045-.031.092-.043.139-.012.046-.023.092-.031.14-.009.053-.013.107-.016.162-.001.027-.008.053-.008.08v9.672c0,.829.671,1.5,1.5,1.5s1.5-.671,1.5-1.5v-9.672c0-.829-.671-1.5-1.5-1.5Z" fill="#313d4c"/></g></svg>