<svg id="Layer_1" data-name="Layer 1" xmlns="http://www.w3.org/2000/svg" viewBox="0 0 40 40"><defs><style>.cls-1{fill:none;}.cls-2{fill:#8a94a0;}.cls-3{fill:#4e5968;}.cls-4{fill:#afb7c0;}</style></defs><rect class="cls-1" width="40" height="40"/><path class="cls-2" d="M31.367,11.307,20,8.576,8.633,11.307,6.281,30.827A5.514,5.514,0,0,0,11.755,37h16.49a5.514,5.514,0,0,0,5.474-6.173Z"/><path class="cls-3" d="M20,28.741a20.05,20.05,0,0,0-7.431,1.282.37.37,0,0,1-.459-.526C13,27.848,16.3,26.205,20,26.205s7,1.643,7.89,3.292a.37.37,0,0,1-.459.526A20.05,20.05,0,0,0,20,28.741Z"/><polygon class="cls-3" points="18.247 14.283 8.275 14.283 8.83 9.675 18.247 7.101 18.247 14.283"/><polygon class="cls-3" points="21.753 14.283 31.725 14.283 31.17 9.675 21.753 7.101 21.753 14.283"/><path class="cls-4" d="M24.857,10.153l6.51,1.154L30.95,7.854A5.513,5.513,0,0,0,25.476,3H14.523A5.512,5.512,0,0,0,9.05,7.854l-.417,3.453,6.51-1.154a.919.919,0,0,1,1.075.994l-.879,9.025a1.838,1.838,0,0,0,1.829,2.016h5.664a1.838,1.838,0,0,0,1.829-2.016l-.879-9.025A.919.919,0,0,1,24.857,10.153Z"/></svg>