<?xml version="1.0" encoding="UTF-8"?><svg id="a" xmlns="http://www.w3.org/2000/svg" viewBox="0 0 40 40"><rect width="40" height="40" fill="none"/><g><path d="M11.794,27.067H5.545c-1.049,0-1.9-.851-1.9-1.9V14.833c0-1.049,.851-1.9,1.9-1.9h6.248v14.134Z" fill="#4e5968"/><path d="M11.794,27.067V12.933L29.566,4.506c1.261-.598,2.714,.322,2.714,1.717v27.555c0,1.395-1.453,2.315-2.714,1.717L11.794,27.067Z" fill="#6b7683"/><path d="M32.28,16.467h2.174c1.049,0,1.9,.851,1.9,1.9v3.267c0,1.049-.851,1.9-1.9,1.9h-2.174" fill="#4e5968"/></g><line x1="35" y1="5" x2="5" y2="35" fill="none" stroke="#ef4452" stroke-linecap="round" stroke-miterlimit="10" stroke-width="4"/></svg>