<?xml version="1.0" encoding="UTF-8"?><svg id="a" xmlns="http://www.w3.org/2000/svg" viewBox="0 0 40 40"><rect x="0" y="0" width="40" height="40" transform="translate(40 40) rotate(-180)" fill="none"/><path d="M33.129,19.347l-2.415-2.199c-.355-.477-.586-1.042-.621-1.636-.127-2.171,.284-2.73-.581-4.975-1.65-4.282-5.325-7.468-9.84-8.289C10.52,.582,2.55,7.568,2.55,16.415c0,3.194,1.044,6.14,2.805,8.527,1.084,1.469,1.705,3.226,1.705,5.051v6.042c0,1.086,.88,1.966,1.966,1.966h10.551c1.086,0,1.966-.88,1.966-1.966v-3.667h5.537c1.435,0,2.662-1.033,2.906-2.447l.334-1.935-1.848-1.222c-.668-.441-.524-1.46,.24-1.699l2.076-.651,.015-1.674,2.295-1.911c.458-.382,.474-1.08,.033-1.482Z" fill="#333d4b"/><g><line x1="34.99" y1="27.548" x2="37.373" y2="28.187" fill="none" stroke="#abb7c7" stroke-linecap="round" stroke-miterlimit="10" stroke-width="1.5"/><line x1="34.213" y1="30.446" x2="36.35" y2="31.679" fill="none" stroke="#abb7c7" stroke-linecap="round" stroke-miterlimit="10" stroke-width="1.5"/><line x1="35.766" y1="24.65" x2="38.234" y2="24.65" fill="none" stroke="#abb7c7" stroke-linecap="round" stroke-miterlimit="10" stroke-width="1.5"/></g></svg>