<svg id="Layer_1" data-name="Layer 1" xmlns="http://www.w3.org/2000/svg" viewBox="0 0 40 40"><defs><style>.cls-1{fill:#3d3d3d;}.cls-2{fill:#fff;}.cls-3{fill:#956759;}.cls-4{fill:#212121;}.cls-5{fill:none;}</style></defs><ellipse class="cls-1" cx="20.008" cy="37.873" rx="3.5" ry="2.127"/><path class="cls-1" d="M26.806,19.492C29.311,8.737,23,7.812,23,7.812H19.7L17.383,19.2l9.423.291"/><polygon class="cls-1" points="21.51 19.201 18.506 19.201 14.57 19.201 16.044 31.066 19.222 31.066 20.794 31.066 23.972 31.066 25.445 19.201 21.51 19.201"/><path class="cls-1" d="M13.21,19.492C10.7,8.737,17.016,7.812,17.016,7.812h3.3L22.633,19.2l-9.423.291"/><polygon class="cls-2" points="22.481 18.064 17.519 18.064 18.462 6.224 21.464 6.246 22.481 18.064"/><path class="cls-3" d="M17.519,18.064a2.446,2.446,0,0,1-1.34,3.173,2.446,2.446,0,0,1-2.969-1.745Z"/><path class="cls-1" d="M20.763,13.594l-.514.617a.323.323,0,0,1-.5,0l-.516-.619a.6.6,0,0,1-.137-.433l.458-3.2h.865l.477,3.2A.6.6,0,0,1,20.763,13.594Z"/><circle class="cls-3" cx="19.97" cy="5.889" r="3.526"/><path class="cls-4" d="M20,7.133a.187.187,0,0,0-.145.072.307.307,0,0,0-.06.1,1.253,1.253,0,0,1-1.081.828.9.9,0,0,1-.942-.582,2.376,2.376,0,0,1-.112-.64.176.176,0,0,1,.146-.182,5.565,5.565,0,0,1,2,.022.888.888,0,0,0,.384,0,5.565,5.565,0,0,1,2-.022.176.176,0,0,1,.146.182,2.376,2.376,0,0,1-.112.64.9.9,0,0,1-.942.582A1.253,1.253,0,0,1,20.2,7.308a.307.307,0,0,0-.06-.1A.187.187,0,0,0,20,7.133Z"/><path class="cls-1" d="M20.473,31.037H16.028a2.343,2.343,0,0,0,2.223,2.448A2.149,2.149,0,0,0,20,32.531a2.149,2.149,0,0,0,1.749.954,2.343,2.343,0,0,0,2.223-2.448Z"/><path class="cls-1" d="M23.443,3.56,23.173,2C23.173.97,21.905.138,20.008.138S16.87.97,16.87,2l-.3,1.563c-1.14.4-1.865.993-1.865,1.657,0,1.2,2.373,2.177,5.3,2.177s5.3-.975,5.3-2.177C25.307,4.553,24.582,3.96,23.443,3.56Z"/><path class="cls-4" d="M16.573,3.56c0,.747,1.618,1.315,3.435,1.315s3.435-.568,3.435-1.315l-.207-1.2c0,.747-1.411,1.352-3.228,1.352S16.8,3.106,16.8,2.359Z"/><path class="cls-3" d="M22.5,18.064a2.447,2.447,0,0,0,1.341,3.173,2.446,2.446,0,0,0,2.969-1.745Z"/><rect class="cls-5" width="40" height="40"/></svg>