<svg id="Layer_1" data-name="Layer 1" xmlns="http://www.w3.org/2000/svg" viewBox="0 0 40 40"><defs><style>.cls-1,.cls-2{fill:none;}.cls-2{stroke:#0a9d60;stroke-miterlimit:10;stroke-width:2.069px;}.cls-3{fill:#0a9d60;}.cls-4{fill:#7bd58f;}</style></defs><rect class="cls-1" width="40" height="40"/><path class="cls-2" d="M14.614,20.931h5.84a4.714,4.714,0,0,0,3.933-2.117l1.561-2.367"/><path class="cls-3" d="M36.051,9.839l-.012-1.6,1.282-.01a1.106,1.106,0,0,1,1.114,1.1l.027,3.408a1.106,1.106,0,0,1-1.1,1.114l-1.282.01-.013-1.635Z"/><path class="cls-4" d="M34.328,5.371H7.351a5.889,5.889,0,0,0-5.889,5.89V11.9A5.821,5.821,0,0,0,3.576,16.4a3.717,3.717,0,0,1,1.269,3.7L2.134,31.739a2.357,2.357,0,0,0,2.3,2.89h8.058a3.535,3.535,0,0,0,3.488-2.966l1.615-9.918a4.711,4.711,0,0,1,4.65-3.954H30.8A5.889,5.889,0,0,0,36.684,11.9V7.727A2.356,2.356,0,0,0,34.328,5.371Z"/></svg>