<?xml version="1.0" encoding="UTF-8"?><svg id="Layer_1" xmlns="http://www.w3.org/2000/svg" viewBox="0 0 40 40"><rect id="SVGID" width="40" height="40" style="fill:none;"/><g><path d="M35,37c-.51172,0-1.02344-.19531-1.41406-.58594l-8.98145-8.98145c-.78125-.78076-.78125-2.04736,0-2.82812,.78125-.78125,2.04688-.78125,2.82812,0l8.98145,8.98145c.78125,.78076,.78125,2.04736,0,2.82812-.39062,.39062-.90234,.58594-1.41406,.58594Z" style="fill:#4e5968;"/><g><path d="M29.62964,17.31482c0-6.79028-5.52442-12.31482-12.31495-12.31482-3.39502,0-6.47363,1.38117-8.70361,3.61109L26.01856,26.01861c2.22998-2.22992,3.61108-5.30866,3.61108-8.7038Z" style="fill:#e5e9ee;"/><path d="M26.01856,26.01861L8.61108,8.61109c-2.22998,2.22992-3.61108,5.30859-3.61108,8.70374,0,6.79028,5.52466,12.31482,12.3147,12.31482,3.39526,0,6.47412-1.38111,8.70386-3.61103Z" style="fill:#f0f3f6;"/></g><path d="M17.31445,31.12939c-7.61719,0-13.81445-6.19727-13.81445-13.81445,0-7.61768,6.19727-13.81494,13.81445-13.81494,7.61816,0,13.81543,6.19727,13.81543,13.81494,0,7.61719-6.19727,13.81445-13.81543,13.81445Zm0-24.62939c-5.96289,0-10.81445,4.85156-10.81445,10.81494,0,5.96289,4.85156,10.81445,10.81445,10.81445,5.96387,0,10.81543-4.85156,10.81543-10.81445,0-5.96338-4.85156-10.81494-10.81543-10.81494Z" style="fill:#a3adb7;"/></g></svg>