<?xml version="1.0" encoding="UTF-8"?><svg id="a" xmlns="http://www.w3.org/2000/svg" viewBox="0 0 40 40"><g><path d="M20,5.5c-7.995,0-14.5,6.505-14.5,14.5s6.505,14.5,14.5,14.5,14.5-6.505,14.5-14.5-6.505-14.5-14.5-14.5Zm1.5,24.172c0,.829-.672,1.5-1.5,1.5s-1.5-.671-1.5-1.5v-4.151l-.985,1.68c-.279,.476-.78,.741-1.295,.741-.258,0-.52-.066-.758-.206-.715-.419-.954-1.338-.535-2.053l3.779-6.443c.008-.013,.018-.023,.026-.036,.029-.047,.063-.089,.097-.132,.028-.035,.055-.071,.085-.104,.035-.037,.074-.069,.112-.102,.035-.03,.069-.061,.106-.088,.042-.03,.088-.054,.133-.08,.038-.021,.075-.044,.115-.062,.049-.022,.1-.038,.151-.055,.041-.014,.081-.028,.123-.038,.049-.012,.1-.018,.15-.024,.049-.006,.097-.013,.146-.015,.017,0,.032-.005,.049-.005,.033,0,.064,.008,.096,.01,.05,.003,.1,.007,.151,.015,.051,.009,.101,.021,.15,.035,.044,.012,.088,.024,.131,.041,.052,.02,.102,.044,.151,.069,.026,.013,.054,.021,.079,.036,.013,.008,.023,.018,.036,.026,.046,.029,.088,.062,.131,.096,.036,.029,.073,.056,.106,.087,.035,.034,.066,.071,.098,.107,.032,.037,.065,.073,.093,.112,.028,.039,.05,.081,.074,.123,.024,.042,.049,.082,.068,.126,.02,.044,.034,.091,.05,.137,.016,.046,.032,.091,.043,.138,.01,.044,.016,.09,.022,.136,.007,.054,.015,.107,.016,.161,0,.015,.004,.029,.004,.044v9.672Z" fill="#e5e8eb"/><path d="M20,2.5C10.335,2.5,2.5,10.335,2.5,20s7.835,17.5,17.5,17.5,17.5-7.835,17.5-17.5S29.665,2.5,20,2.5Zm0,32c-7.995,0-14.5-6.505-14.5-14.5S12.005,5.5,20,5.5s14.5,6.505,14.5,14.5-6.505,14.5-14.5,14.5Z" fill="#a3adb7"/><path d="M18.732,19.205c-.008,.013-.019,.023-.026,.036l-3.779,6.443c-.419,.714-.18,1.633,.535,2.053,.238,.14,.5,.206,.758,.206,.515,0,1.016-.265,1.295-.741l.985-1.68v-5.522c0-.293,.087-.564,.232-.795Z" fill="#ff2a4b"/><path d="M21.479,19.795c-.006-.046-.011-.091-.022-.136-.011-.047-.027-.092-.043-.138-.016-.046-.03-.093-.05-.137-.02-.044-.044-.084-.068-.126-.024-.042-.047-.084-.074-.123-.028-.04-.061-.076-.093-.112-.032-.037-.063-.074-.098-.107-.033-.031-.07-.059-.106-.087-.043-.034-.085-.067-.131-.096-.037-.023-.076-.043-.115-.063-.049-.025-.099-.049-.151-.069-.043-.016-.087-.029-.131-.041-.049-.014-.099-.026-.15-.035-.049-.008-.1-.012-.151-.015-.032-.002-.063-.01-.096-.01-.017,0-.032,.004-.049,.005-.05,.002-.098,.008-.146,.015-.051,.007-.101,.013-.15,.024-.042,.01-.082,.025-.123,.038-.051,.017-.102,.033-.151,.055-.04,.018-.077,.041-.115,.062-.045,.026-.091,.05-.133,.08-.038,.027-.071,.058-.106,.088-.039,.033-.077,.065-.112,.102-.031,.032-.057,.068-.085,.104-.034,.043-.067,.086-.097,.132-.145,.231-.232,.502-.232,.795v9.672c0,.829,.672,1.5,1.5,1.5s1.5-.671,1.5-1.5v-9.672c0-.015-.004-.029-.004-.044-.002-.055-.009-.108-.016-.161Z" fill="#313d4c"/></g><rect width="40" height="40" fill="none"/></svg>