<svg id="Layer_1" data-name="Layer 1" xmlns="http://www.w3.org/2000/svg" viewBox="0 0 40 40"><defs><style>.cls-1,.cls-2{fill:none;}.cls-2{stroke:#6b7683;stroke-miterlimit:10;stroke-width:2.912px;}.cls-3{fill:#afb7c0;}.cls-4{fill:#e5e9ee;}.cls-5{fill:#424f57;}</style></defs><rect class="cls-1" width="40" height="40"/><path class="cls-2" d="M25.378,11.177a6.94,6.94,0,0,0-13.88,0v5.188h13.88Z"/><rect class="cls-3" x="3.493" y="13.17" width="29.89" height="22.916" rx="4"/><path class="cls-4" d="M9.008,29.908A1.864,1.864,0,1,1,9.7,30.6l-3.3,3.3L13.1,32.872a1.955,1.955,0,0,0,1.355-.883l4.531-7.1-4.266-4.266-7.1,4.531a1.955,1.955,0,0,0-.883,1.355L5.712,33.2Z"/><path class="cls-5" d="M33.15,2.279l-6.1,4.008a40.042,40.042,0,0,0-13.622,15.16h0l4.731,4.731.053-.027A40.05,40.05,0,0,0,33.257,12.59L37.3,6.433a1.768,1.768,0,0,0-.227-2.222l-1.7-1.705A1.768,1.768,0,0,0,33.15,2.279Z"/></svg>