<?xml version="1.0" encoding="UTF-8"?><svg id="a" xmlns="http://www.w3.org/2000/svg" viewBox="0 0 40 40"><g opacity="0"><rect width="40" height="40" fill="none"/></g><g><path d="M20,5.5c-7.995,0-14.5,6.505-14.5,14.5s6.505,14.5,14.5,14.5,14.5-6.505,14.5-14.5-6.505-14.5-14.5-14.5Zm8.603,19.536c-.279,.477-.781,.743-1.296,.743-.258,0-.519-.066-.757-.206l-5.05-2.956v7.056c0,.829-.672,1.5-1.5,1.5s-1.5-.671-1.5-1.5v-9.672c0-.029,.007-.057,.009-.086,.003-.055,.007-.11,.017-.165,.008-.047,.02-.092,.032-.137,.013-.048,.026-.096,.044-.143,.019-.049,.041-.096,.065-.142,.014-.028,.023-.057,.039-.084,.008-.014,.02-.025,.028-.039,.028-.045,.061-.086,.093-.128,.029-.036,.056-.073,.088-.107,.035-.037,.074-.069,.113-.103,.035-.03,.068-.06,.105-.087,.044-.031,.091-.057,.138-.083,.036-.02,.071-.042,.109-.059,.051-.023,.104-.04,.158-.058,.039-.013,.077-.027,.116-.036,.051-.012,.103-.018,.155-.025,.047-.006,.094-.013,.142-.014,.017,0,.033-.005,.05-.005,.033,0,.064,.008,.097,.01,.05,.003,.1,.007,.15,.015,.051,.008,.1,.021,.149,.035,.044,.012,.089,.025,.132,.041,.052,.02,.102,.044,.151,.069,.026,.013,.053,.021,.079,.036l7.308,4.278c.715,.418,.955,1.337,.537,2.052Z" fill="#e5e8eb"/><path d="M20,2.5C10.335,2.5,2.5,10.335,2.5,20s7.835,17.5,17.5,17.5,17.5-7.835,17.5-17.5S29.665,2.5,20,2.5Zm0,32c-7.995,0-14.5-6.505-14.5-14.5S12.005,5.5,20,5.5s14.5,6.505,14.5,14.5-6.505,14.5-14.5,14.5Z" fill="#a3adb7"/><path d="M28.065,22.983l-7.308-4.278c-.025-.015-.053-.023-.079-.036,.485,.248,.821,.748,.821,1.33v2.616l5.05,2.956c.238,.14,.499,.206,.757,.206,.515,0,1.017-.266,1.296-.743,.418-.715,.178-1.634-.537-2.052Z" fill="#ff2a4b"/><path d="M20.679,18.67c-.049-.025-.099-.049-.151-.069-.043-.016-.087-.029-.132-.041-.049-.014-.098-.026-.149-.035-.049-.008-.099-.012-.15-.015-.033-.002-.064-.01-.097-.01-.017,0-.033,.004-.05,.005-.048,.002-.095,.008-.142,.014-.053,.007-.105,.013-.155,.025-.04,.01-.078,.023-.116,.036-.054,.018-.107,.035-.158,.058-.038,.017-.073,.039-.109,.059-.047,.026-.094,.052-.138,.083-.037,.026-.07,.057-.105,.087-.039,.033-.078,.066-.113,.103-.032,.033-.059,.07-.088,.107-.033,.042-.065,.083-.093,.128-.025,.039-.046,.081-.067,.123-.024,.047-.046,.093-.065,.142-.018,.046-.031,.095-.044,.143-.012,.045-.024,.09-.032,.137-.009,.054-.013,.109-.017,.165-.002,.029-.009,.057-.009,.086v9.672c0,.829,.672,1.5,1.5,1.5s1.5-.671,1.5-1.5v-9.672c0-.583-.336-1.082-.821-1.33Z" fill="#313d4c"/></g></svg>