<?xml version="1.0" encoding="UTF-8"?><svg id="a" xmlns="http://www.w3.org/2000/svg" viewBox="0 0 40 40"><rect id="b" x=".062" y=".062" width="40" height="40" fill="none"/><g><g><path d="M26.634,14.542v-1.34h8.714c.369,0,.67,.301,.67,.67s-.301,.67-.67,.67h-8.714Z" fill="#e5e8eb"/><path d="M35.348,11.658h-10.258v4.428h10.258c1.223,0,2.214-.991,2.214-2.214s-.991-2.214-2.214-2.214h0Z" fill="#a3adb7"/></g><g><path d="M26.634,26.922v-1.341h8.714c.369,0,.67,.301,.67,.67s-.301,.67-.67,.67h-8.714Z" fill="#e5e8eb"/><path d="M35.348,24.037h-10.258v4.428h10.258c1.223,0,2.214-.991,2.214-2.214s-.991-2.214-2.214-2.214h0Z" fill="#a3adb7"/></g><path d="M27.383,32.756V7.368c0-1.146-.929-2.075-2.075-2.075h-3.541v29.539h3.541c1.146,0,2.075-.929,2.075-2.075Z" fill="#424f57"/><path d="M2.562,25.175V14.949c0-.821,.488-1.564,1.242-1.89L21.767,5.292v29.539L3.803,27.064c-.754-.326-1.242-1.069-1.242-1.89Z" fill="#424f57"/></g></svg>