<svg id="Layer_1" data-name="Layer 1" xmlns="http://www.w3.org/2000/svg" viewBox="0 0 40 40"><defs><style>.cls-1{fill:none;}.cls-2{fill:#333d4b;}.cls-3{fill:#ffc100;}.cls-4{fill:#4e5968;}.cls-5{fill:#ffd06c;}</style></defs><rect class="cls-1" width="40" height="40"/><path class="cls-2" d="M20,3.134V36.866L35.893,33.79A1.985,1.985,0,0,0,37.5,31.842V9.705A1.984,1.984,0,0,0,36.069,7.8Z"/><polygon class="cls-3" points="20 10.003 37.5 13.484 37.5 15.131 20 12.12 20 10.003"/><path class="cls-4" d="M20,3.134V36.866L4.107,33.79A1.985,1.985,0,0,1,2.5,31.842V9.705A1.984,1.984,0,0,1,3.931,7.8Z"/><polygon class="cls-5" points="20 10.003 2.5 13.484 2.5 15.131 20 12.12 20 10.003"/></svg>