<?xml version="1.0" encoding="UTF-8"?><svg id="Layer_1" xmlns="http://www.w3.org/2000/svg" viewBox="0 0 40 40"><g opacity="0"><path d="m0,0v40h40V0H0Zm37.72,17.96c0,.41-.34.75-.75.75h-20.57v2.92c0,.91-1.02,1.45-1.77.94L2.78,14.54c-.66-.45-.66-1.43,0-1.88L14.63,4.64c.75-.52,1.77.02,1.77.93v3h20.57c.41,0,.75.34.75.75v8.64Z" fill="none"/></g><g><path d="m37.72,9.32v8.64c0,.41-.34.75-.75.75h-20.57v2.92c0,.91-1.02,1.45-1.77.94L2.78,14.54c-.66-.45-.66-1.43,0-1.88L14.63,4.64c.75-.52,1.77.02,1.77.93v3h20.57c.41,0,.75.34.75.75Z" fill="#4e5968"/><g><path d="m8.687,35.562v-9.698h5.889v1.729h-3.914v2.275h3.469v1.742h-3.469v2.223h4.123v1.729h-6.098Z" fill="#4e5968"/><path d="m23.997,35.562h-1.716l-4.234-6.345v6.345h-1.975v-9.698h1.716l4.246,6.37v-6.37h1.963v9.698Z" fill="#4e5968"/><path d="m33.741,30.726c0,3.185-2.062,4.836-4.505,4.836h-3.519v-9.698h3.519c2.444,0,4.505,1.651,4.505,4.862Zm-4.617,3.106c1.346,0,2.58-.767,2.58-3.106,0-2.354-1.234-3.134-2.58-3.134h-1.432v6.24h1.432Z" fill="#4e5968"/></g></g></svg>