<?xml version="1.0" encoding="UTF-8"?><svg id="Layer_1" xmlns="http://www.w3.org/2000/svg" viewBox="0 0 40 40"><rect width="40" height="40" fill="none"/><g><path d="m36.032,25.847c-.345-.599-1.11-.802-1.708-.458l-13.111,7.569h5.002l9.359-5.403c.598-.346.803-1.11.458-1.708Z" fill="#64a7ff"/><g><path d="m18.611,32.959s-.001,0-.002-.001c-1.936-1.103-3.241-3.185-3.241-5.573,0-2.785,1.78-5.149,4.262-6.032l-3.211-5.562c-4.38,2.028-7.425,6.45-7.425,11.594,0,1.998.458,3.888,1.275,5.573,0,0,0,0,0,0h8.342Z" fill="#abb7c7"/><rect x="13.982" y="5.603" width="5.137" height="3.42" transform="translate(-1.439 9.256) rotate(-30.002)" fill="#abb7c7"/></g><g><path d="m18.609,32.958s.001,0,.002.001h-8.342s0-.001,0-.001h-4.103c-.914,0-1.655.741-1.655,1.655v1.732c0,.914.741,1.655,1.655,1.655h27.669c.914,0,1.655-.741,1.655-1.655v-1.732c0-.914-.741-1.655-1.655-1.655h-15.226Z" fill="#d0d6de"/><path d="m21.41,24.438c.457.792,1.469,1.063,2.26.606l4.676-2.7c.791-.457,1.063-1.469.606-2.26l-6.948-12.034c-.457-.792-1.469-1.063-2.26-.606l-.114.066-4.449,2.569-.114.066c-.791.457-1.063,1.469-.606,2.26l1.956,3.387,3.211,5.562,1.781,3.085Z" fill="#d0d6de"/></g><g><path d="m24.151,25.876c.305.528.979.708,1.507.404l2.766-1.597c.528-.305.708-.979.404-1.507l-.48-.832-4.676,2.7.48.832Z" fill="#4e5968"/><path d="m18.347,4.302c.528-.305.708-.979.404-1.507l-.14-.243c-.305-.528-.979-.708-1.507-.404l-5.302,3.061c-.528.305-.708.979-.404,1.507l.14.243c.305.528.979.708,1.507.404l.426-.246,4.449-2.569.426-.246Z" fill="#4e5968"/></g></g></svg>