<?xml version="1.0" encoding="UTF-8"?><svg id="a" xmlns="http://www.w3.org/2000/svg" viewBox="0 0 40 40"><rect width="40" height="40" fill="none"/><g><g><path d="M9.302,26.76H4.325c-1.004,0-1.818-.814-1.818-1.818V15.057c0-1.004,.814-1.818,1.818-1.818h4.977v13.521Z" fill="#4e5968"/><path d="M9.302,26.76V13.24L26.304,5.178c1.206-.572,2.596,.308,2.596,1.642v26.36c0,1.335-1.39,2.214-2.596,1.642L9.302,26.76Z" fill="#6b7683"/><path d="M28.9,16.62h2.08c1.004,0,1.818,.814,1.818,1.818v3.125c0,1.004-.814,1.818-1.818,1.818h-2.08" fill="#4e5968"/></g><path d="M35.506,27.916s4.47-6.183,0-14.964" fill="none" stroke="#d0d6de" stroke-linecap="round" stroke-miterlimit="10" stroke-width="2"/></g></svg>