<?xml version="1.0" encoding="UTF-8"?><svg id="a" xmlns="http://www.w3.org/2000/svg" viewBox="0 0 40 40"><rect x="0" y="0" width="40" height="40" fill="none"/><g><g><path d="M24.88,8.79c0,2.505-2.03,4.535-4.535,4.535s-4.535-2.03-4.535-4.535S20.344,0,20.344,0c0,0,4.535,6.286,4.535,8.79Z" fill="#ef4452"/><rect x="19.585" y="8.952" width="1.519" height="7.807" fill="#313d4c"/><path d="M22.671,10.638c0,1.285-1.041,2.326-2.326,2.326s-2.326-1.041-2.326-2.326,2.326-4.509,2.326-4.509c0,0,2.326,3.224,2.326,4.509Z" fill="#fdaeb3"/></g><path d="M30.069,33.288h0c-.928,0-1.68-.752-1.68-1.68v-14.778c0-1.461-1.359-2.543-2.783-2.215l-11.542,2.656c-1.032,.237-1.764,1.156-1.764,2.215v12.122c0,.928-.752,1.68-1.68,1.68h-.689c-1.854,0-3.356,1.503-3.356,3.356v2.237c0,.618,.501,1.119,1.119,1.119h24.612c.618,0,1.119-.501,1.119-1.119v-2.237c0-1.854-1.503-3.356-3.356-3.356Z" fill="#d0d6de"/></g></svg>