<?xml version="1.0" encoding="UTF-8"?><svg id="a" xmlns="http://www.w3.org/2000/svg" viewBox="0 0 40 40"><rect x="0" width="40" height="40" fill="none"/><g><path d="M33.038,4.629H6.962c-1.067,0-1.932,.865-1.932,1.932v28.008c0,1.067,.865,1.932,1.932,1.932H27.243l7.726-7.726V6.561c0-1.067-.865-1.932-1.932-1.932Z" fill="#e5e9ee"/><path d="M29.175,28.774h5.795l-7.726,7.726v-5.795c0-1.067,.865-1.932,1.932-1.932Z" fill="#c0c7d1" fill-rule="evenodd"/><line x1="5.03" y1="10.465" x2="34.97" y2="10.465" fill="none" stroke="#d0d5da" stroke-linejoin="round" stroke-width=".966"/><line x1="5.03" y1="15.028" x2="34.97" y2="15.028" fill="none" stroke="#d0d5da" stroke-linejoin="round" stroke-width=".966"/><line x1="5.03" y1="19.592" x2="34.97" y2="19.592" fill="none" stroke="#d0d5da" stroke-linejoin="round" stroke-width=".966"/><line x1="5.03" y1="24.155" x2="34.97" y2="24.155" fill="none" stroke="#d0d5da" stroke-linejoin="round" stroke-width=".966"/><line x1="9.907" y1="3.5" x2="9.907" y2="5.914" fill="none" stroke="#4b596a" stroke-linecap="round" stroke-miterlimit="10" stroke-width="2.414"/><line x1="16.345" y1="3.5" x2="16.345" y2="5.914" fill="none" stroke="#4b596a" stroke-linecap="round" stroke-miterlimit="10" stroke-width="2.414"/><line x1="22.784" y1="3.5" x2="22.784" y2="5.914" fill="none" stroke="#4b596a" stroke-linecap="round" stroke-miterlimit="10" stroke-width="2.414"/><line x1="29.223" y1="3.5" x2="29.223" y2="5.914" fill="none" stroke="#4b596a" stroke-linecap="round" stroke-miterlimit="10" stroke-width="2.414"/></g></svg>