<svg id="Layer_1" data-name="Layer 1" xmlns="http://www.w3.org/2000/svg" viewBox="0 0 40 40"><defs><style>.cls-1,.cls-2,.cls-3{fill:none;}.cls-2{stroke:#8a94a0;}.cls-2,.cls-3{stroke-linecap:round;stroke-miterlimit:10;stroke-width:2px;}.cls-3{stroke:#afb7c0;}</style></defs><rect class="cls-1" width="40" height="40"/><path class="cls-2" d="M20.814,13.374,16.5,29.464a7.1,7.1,0,0,1-8.675,5.009l-.077-.021a7.1,7.1,0,0,1-5.009-8.676L6.434,11.991"/><path class="cls-2" d="M16.287,14.631,12.605,28.372a3.106,3.106,0,0,1-3.791,2.189h0a3.1,3.1,0,0,1-2.189-3.792l3.746-13.982"/><path class="cls-3" d="M26.436,27.213l1,3.745a5.114,5.114,0,0,0,6.259,3.58h0a5.114,5.114,0,0,0,3.631-6.23l-1.126-4.2"/><path class="cls-3" d="M36.2,24.105,32.567,10.536a7.1,7.1,0,0,0-8.676-5.009l-.077.021a7.106,7.106,0,0,0-5.009,8.676L22.5,28.009"/><path class="cls-3" d="M32.351,25.369,28.67,11.628a3.106,3.106,0,0,0-3.792-2.189h0a3.106,3.106,0,0,0-2.189,3.792l3.747,13.982"/><path class="cls-2" d="M10.371,12.787l1-3.745a5.113,5.113,0,0,1,6.259-3.58h0a5.114,5.114,0,0,1,3.63,6.23l-.45,1.682"/></svg>