<?xml version="1.0" encoding="UTF-8"?><svg id="Layer_1" xmlns="http://www.w3.org/2000/svg" viewBox="0 0 40 40"><g><path d="m26.741,16.787c0-.414-.13-.767-.358-1.049l-2.733,2.733c.256.072.533.115.831.115,1.32,0,2.26-.76,2.26-1.8Z" fill="#3f3f3f"/><path d="m24.48,21.388c-1.38,0-2.5.76-2.5,1.961,0,1.18,1.12,1.9,2.5,1.9s2.46-.721,2.46-1.9c0-1.201-1.08-1.961-2.46-1.961Z" fill="#3f3f3f"/><path d="m12.9,16.106l-3.501,2.161v-3.182l4.221-2.64h2.561v9.253l3.427-3.427c-.339-.546-.528-1.162-.528-1.786,0-2.36,2.121-4.221,5.401-4.221.368,0,.718.031,1.056.077l3.593-3.594c-2.495-2.028-5.671-3.249-9.129-3.249-7.995,0-14.5,6.505-14.5,14.5,0,3.459,1.221,6.635,3.249,9.13l4.151-4.151v-8.873Z" fill="#3f3f3f"/><path d="m31.251,10.87l-2.747,2.748c.848.75,1.338,1.749,1.338,2.869,0,1.461-.96,2.901-2.7,3.421,1.9.48,3.061,1.94,3.061,3.701,0,2.42-2.321,4.341-5.721,4.341-3.441,0-5.741-1.921-5.741-4.341,0-.084.015-.164.02-.246l-2.579,2.579v1.628h-1.628l-3.682,3.682c2.495,2.028,5.671,3.249,9.129,3.249,7.995,0,14.5-6.505,14.5-14.5,0-3.459-1.221-6.635-3.249-9.13Z" fill="#3f3f3f"/></g><g><polygon points="16.18 27.569 16.18 25.941 14.552 27.569 16.18 27.569" fill="#fff"/><polygon points="13.62 12.446 9.399 15.086 9.399 18.268 12.9 16.106 12.9 24.979 16.18 21.699 16.18 12.446 13.62 12.446" fill="#fff"/><path d="m26.741,16.787c0,1.04-.94,1.8-2.26,1.8-.298,0-.575-.044-.831-.115l-4.89,4.891c-.005.083-.02.162-.02.246,0,2.42,2.3,4.341,5.741,4.341,3.4,0,5.721-1.921,5.721-4.341,0-1.761-1.16-3.221-3.061-3.701,1.74-.52,2.7-1.96,2.7-3.421,0-1.12-.49-2.119-1.338-2.869l-2.121,2.121c.229.282.358.635.358,1.049Zm-2.26,8.462c-1.38,0-2.5-.721-2.5-1.9,0-1.201,1.12-1.961,2.5-1.961s2.46.76,2.46,1.961c0,1.18-1.08,1.9-2.46,1.9Z" fill="#fff"/><path d="m19.079,16.486c0,.624.189,1.239.528,1.786l5.929-5.93c-.338-.046-.687-.077-1.056-.077-3.281,0-5.401,1.86-5.401,4.221Z" fill="#fff"/></g><path d="m20,2.5C10.34,2.5,2.5,10.34,2.5,20s7.84,17.5,17.5,17.5,17.5-7.84,17.5-17.5S29.66,2.5,20,2.5Zm0,3c3.46,0,6.63,1.22,9.13,3.25l-3.59,3.59-5.93,5.93-3.43,3.43-7.43,7.43c-2.03-2.49-3.25-5.67-3.25-9.13,0-8,6.5-14.5,14.5-14.5Zm0,29c-3.46,0-6.63-1.22-9.13-3.25L31.25,10.87c2.03,2.49,3.25,5.67,3.25,9.13,0,8-6.5,14.5-14.5,14.5Z" fill="#ef4452"/></svg>