<?xml version="1.0" encoding="UTF-8"?><svg id="Layer_1" xmlns="http://www.w3.org/2000/svg" viewBox="0 0 40 40"><rect width="40" height="40" fill="none"/><path d="m36.616,19.645c-1.179-1.179-3.091-1.179-4.271,0l-5.439,3.87,2.861-14.828s0-.001,0-.002c.275-1.427-.633-2.802-2.029-3.071-1.396-.269-2.751.669-3.026,2.096h0s0,0,0,0l-2.131,11.046h-.77s2.207-12.62,2.207-12.62c.25-1.431-.682-2.79-2.082-3.035-1.4-.245-2.738.717-2.989,2.148l-2.36,13.495-1.02-.002-2.7-11.694c-.32-1.388-1.703-2.253-3.088-1.933-1.385.32-2.248,1.704-1.928,3.091l2.43,10.526-.869-.002-1.836-7.365s0,0,0,0c-.353-1.414-1.757-2.282-3.136-1.938-1.379.344-2.212,1.769-1.859,3.184l3.374,13.532.024-.009c.853,6.102,6.079,10.803,12.416,10.803,3.466,0,6.604-1.405,8.876-3.676l9.344-9.344c1.179-1.179,1.179-3.091,0-4.271Z" fill="#956759"/><path d="m26.766,23.53h-2.702c-2.209,0-4,1.791-4,4v1.114c1.757-2.223,4.053-4,6.702-5.114Z" fill="#5e403b"/></svg>