<?xml version="1.0" encoding="UTF-8"?><svg id="Layer_1" xmlns="http://www.w3.org/2000/svg" viewBox="0 0 40 40"><rect width="40" height="40" style="fill:none;"/><g><rect x="30.15118" y="11.39852" width="8.48509" height=".55356" transform="translate(12.7554 40.84762) rotate(-72.18445)" style="fill:#2b7900;"/><path d="M22.18011,3.75195c-.22416-.59925-.93234-.87026-1.49443-.56465-3.79027,2.06079-5.55288,6.74193-3.9563,11.01017,1.74343,4.66081,6.8322,7.06431,11.36609,5.36836L22.18011,3.75195Z" style="fill:#abb7c7;"/><path d="M32.72972,12.26564l-.79401-.39441c-2.07548-1.03096-4.59443-.32582-5.83301,1.63286l-1.56946,2.48194L2.71688,30.11917c-.27168,.176-.29176,.56617-.0396,.76914l7.38699,5.9458c.23617,.19009,.58753,.11347,.72311-.15769l3.95034-7.90068c.17079-.34157,.53178-.53939,.91077-.4924,2.4529,.30419,11.47179,.9235,14.00029-5.96102l3.08095-10.05667Z" style="fill:#e5e8eb;"/><path d="M32.72972,12.26564l2.93321,1.45385c.14933,.07402,.13318,.29203-.02543,.34323l-3.69171,.7618,.78393-2.55888Z" style="fill:#adadad;"/><path d="M6.44963,3.8626c-.52704-.35234-1.23414-.1568-1.53345,.40206-2.97491,5.55455-1.18705,12.64995,4.30595,16.3221,5.83504,3.90081,13.64138,2.46162,17.43596-3.21451L6.44963,3.8626Z" style="fill:#e5e8eb;"/><circle cx="29.80442" cy="13.23344" r=".9842"/><path d="M31.23688,8.34441c-.20664,.03911-.3318,.24682-.26981,.44778,.1522,.4935,.51595,1.36868,1.26854,1.82215s1.69631,.36612,2.20374,.27008c.20664-.03911,.3318-.24682,.26981-.44778-.1522-.4935-.51595-1.36868-1.26854-1.82215s-1.69631-.36612-2.20374-.27008Z" style="fill:#2b7900;"/><path d="M35.32849,9.16787c-.15681,.14014-.15681,.38265,0,.52279,.38506,.34414,1.1483,.90603,2.02695,.90603s1.64189-.56188,2.02695-.90602c.15681-.14014,.15681-.38265,0-.52279-.38506-.34414-1.1483-.90603-2.02695-.90603-.87865,0-1.64189,.56188-2.02695,.90602Z" style="fill:#2b7900;"/><path d="M35.70848,3.91074c-.14685-.15055-.38912-.13997-.52229,.0228-.32702,.3997-.85509,1.18672-.81677,2.06453,.03832,.87782,.63295,1.61582,.99355,1.98552,.14685,.15055,.38912,.13997,.52229-.0228,.32702-.3997,.85509-1.18672,.81677-2.06453s-.63295-1.61582-.99355-1.98552Z" style="fill:#2b7900;"/></g></svg>