<svg id="Layer_1" data-name="Layer 1" xmlns="http://www.w3.org/2000/svg" viewBox="0 0 40 40"><defs><style>.cls-1{fill:#64a7ff;}.cls-2{fill:#1e6ef4;}.cls-3{fill:none;}</style></defs><path class="cls-1" d="M6.1,28.026,2.877,35.518a1.015,1.015,0,0,0,.235,1.138L4.24,37.723a1.016,1.016,0,0,0,1.149.171L12.7,34.253a.431.431,0,0,1,.411.014h0a1.671,1.671,0,0,0,2.059-.294L36.7,11.2a1.848,1.848,0,0,0-.073-2.613L30.2,2.505a1.848,1.848,0,0,0-2.612.073l-21.746,23a1.239,1.239,0,0,0-.109,1.569l.325.456A.436.436,0,0,1,6.1,28.026Z"/><rect class="cls-1" x="15.048" y="3.42" width="12.546" height="29.825" transform="translate(24.22 46.303) rotate(-136.606)"/><rect class="cls-2" x="6.863" y="26.017" width="12.546" height="1.948" transform="translate(4.138 55.628) rotate(-136.606)"/><rect class="cls-2" x="23.882" y="8.054" width="12.546" height="1.948" transform="translate(45.865 36.304) rotate(-136.606)"/><ellipse class="cls-2" cx="21.116" cy="18.55" rx="7.221" ry="3.155" transform="translate(-6.871 21.15) rotate(-46.606)"/><rect class="cls-3" width="40" height="40"/></svg>