<?xml version="1.0" encoding="UTF-8"?><svg id="Layer_1" xmlns="http://www.w3.org/2000/svg" viewBox="0 0 40 40"><rect x="0" width="40" height="40" style="fill:none;"/><g><g><path d="M26.94727,17.77051H10.07959v-6.67285c0-4.65039,3.78369-8.43262,8.43408-8.43262s8.43359,3.78223,8.43359,8.43262v6.67285Zm-13.95068-2.91602h11.03369v-3.75684c0-3.04199-2.47461-5.5166-5.5166-5.5166s-5.51709,2.47461-5.51709,5.5166v3.75684Z" style="fill:#6b7683;"/><rect x="3.49305" y="13.10073" width="30.04086" height="23.03132" rx="4" ry="4" style="fill:#afb7c0;"/></g><path d="M36.01518,4.62833c-3.98324-3.98318-10.48834-3.93603-14.52964,.10516-2.90999,2.91017-3.73733,7.09447-2.49179,10.69782l-9.63736,9.63754c-1.71715,1.71715-1.71715,4.50095,0,6.21833h.00006c1.71715,1.71691,4.50112,1.71715,6.21827,0l1.1438-1.14398h-.00012l-1.85195-1.85201c-.50261-.50244-.50261-1.31798,0-1.82066,.50255-.50244,1.31798-.50244,1.8206,0l1.85201,1.85201h.00006l1.8206-1.82042-.00006-.00024-1.85201-1.85178c-.50255-.50267-.50255-1.31822,0-1.82066,.50255-.50267,1.31804-.50267,1.8206,0l1.85201,1.85178,.00012,.00024,3.03177-3.03183c3.60359,1.2456,7.78783,.41826,10.69776-2.49167,4.04136-4.04118,4.08852-10.54645,.10527-14.52964Zm-2.34237,6.99332c-1.30301,1.30289-3.40047,1.31798-4.68473,.03372-1.28427-1.28427-1.26912-3.38172,.03389-4.68461,1.30301-1.30289,3.40047-1.31822,4.68473-.03395s1.26912,3.38172-.03389,4.68485Z" style="fill:#ffc522;"/></g></svg>