<svg id="Layer_1" data-name="Layer 1" xmlns="http://www.w3.org/2000/svg" viewBox="0 0 40 40"><defs><style>.cls-1{fill:none;}.cls-2{fill:#e5e8eb;}.cls-3{fill:#313d4c;}</style></defs><rect class="cls-1" width="40" height="40"/><rect class="cls-2" x="3.5" y="3.5" width="33" height="33" rx="8"/><path class="cls-3" d="M24.6,22.888a3.067,3.067,0,0,1-2.167-.9l-8.055-8.055a3.066,3.066,0,0,0-2.166-.9H8.855v3.746h1.806a3.061,3.061,0,0,1,2.167.9l8.055,8.055a3.07,3.07,0,0,0,2.166.9H25.8V22.888Z"/><path class="cls-3" d="M31.275,25.266l-4.743,3.215a.628.628,0,0,1-.981-.52v-6.43a.628.628,0,0,1,.981-.52l4.743,3.215A.628.628,0,0,1,31.275,25.266Z"/><path class="cls-3" d="M8.354,22.717h2.307a2.583,2.583,0,0,0,1.814-.751l8.054-8.054a3.537,3.537,0,0,1,2.52-1.044l3.254,0v4.747H24.6a2.546,2.546,0,0,0-1.815.751l-8.055,8.054a3.542,3.542,0,0,1-2.519,1.045H8.354Z"/><path class="cls-2" d="M25.8,13.366v3.746H24.6a3.067,3.067,0,0,0-2.167.9l-8.055,8.055a3.066,3.066,0,0,1-2.166.9H8.855V23.217h1.806a3.065,3.065,0,0,0,2.167-.9l8.055-8.055a3.07,3.07,0,0,1,2.166-.9H25.8m1-1H23.049a4.041,4.041,0,0,0-2.873,1.191l-8.055,8.054a2.046,2.046,0,0,1-1.46.605H7.855v5.746h4.36a4.039,4.039,0,0,0,2.873-1.191l8.055-8.055a2.051,2.051,0,0,1,1.46-.6h2.2V12.365Z"/><path class="cls-3" d="M31.275,14.734l-4.743-3.215a.628.628,0,0,0-.981.52v6.43a.628.628,0,0,0,.981.52l4.743-3.215A.628.628,0,0,0,31.275,14.734Z"/></svg>