<?xml version="1.0" encoding="UTF-8"?><svg id="Layer_1" xmlns="http://www.w3.org/2000/svg" viewBox="0 0 40 40"><g><path d="M7.93193,24.00459s-1.27309-13.993,5.49424-16.95877c0,0,1.86034-2.69615,6.01241-2.26476,4.15207,.43138,7.32292,3.62945,8.38502,6.52468,.79121,2.15679,1.57378,6.72279,1.45019,12.01367-.01435,.61419-.34445,1.17725-.86943,1.49636-1.1455,.69631-3.79999,1.58839-9.88247,1.58839-9.97574,0-10.58996-2.39957-10.58996-2.39957Z" style="fill:#ff9000;"/><g><polygon points="17.49847 32.28711 17.11865 31.93945 17.46124 34.78271 18.03412 32.66614 17.55798 32.18445 17.49847 32.28711" style="fill:#be958d;"/><path d="M31.74536,36.89087l-.50439-2.0498c-.19617-.79712-.45502-1.58521-.86371-2.29736-.99622-1.73535-2.56848-3.09033-4.46765-3.81177l-.49335-.1875-2.1485,1.37573c-.22418,.14355-.22034,.42993,.00763,.56909l3.6358,2.21973c.37402,.22827,.47461,.66345,.22986,.99451l-2.80646,3.79651h6.93335c.31909,0,.55365-.29932,.47742-.60913Z" style="fill:#be958d;"/><polygon points="19.19318 32.12024 18.64441 32.65271 19.30652 35.08362 19.69501 31.92578 19.29944 32.28711 19.19318 32.12024" style="fill:#be958d;"/><path d="M9.88672,32.70898l3.6358-2.21973c.22797-.13916,.23181-.42554,.00763-.56909l-2.15662-1.38086-.50677,.1925c-1.89917,.72156-3.47144,2.07654-4.46765,3.81201-.40875,.71204-.66754,1.50012-.86371,2.29736l-.50433,2.04968c-.07629,.30981,.15826,.60913,.47742,.60913h6.95483l-2.80646-3.79651c-.24469-.33105-.1441-.76624,.22986-.99451Z" style="fill:#be958d;"/><polygon points="18.35675 30.80664 17.55798 32.18445 18.03412 32.66614 18.34015 31.53564 18.64441 32.65271 19.19318 32.12024 18.35675 30.80664" style="fill:#261e18;"/><polygon points="18.64441 32.65271 18.34015 31.53564 18.03412 32.66614 17.46124 34.78271 17.78864 37.5 18.38818 37.5 19.00928 37.5 19.30652 35.08362 18.64441 32.65271" style="fill:#261e18;"/><path d="M26.33002,19.30005c-.42999,1.6499-1.34003,3.09985-2.54999,4.18994-.93005,.83008-2.04004,1.44995-3.27002,1.79004l-.35999,2.94995-1.81,1.05005-1.67004-1.03003-.35999-2.97998c-1.21997-.34009-2.34003-.96997-3.26001-1.81006-1.37-1.23999-2.33002-2.93994-2.66998-4.85999-.15002-.90002,.07001-1.83997,.62-2.57996,.38-.5,.71002-.75,.71002-.75,2.00995-1.77002,2.63995-4.21997,2.82001-5.18005,.02997-.15002,.22998-.19995,.32996-.08997,.76001,.88,3.14001,3.28003,6.81,3.82007,3.48999,.50989,5.12,2.80994,4.66003,5.47998Z" style="fill:#ffcd00;"/><polygon points="16.67365 28.24646 17.11865 31.93945 17.49847 32.28711 17.55798 32.18445 18.35675 30.80664 19.19318 32.12024 19.29944 32.28711 19.69501 31.92578 20.15002 28.22717 18.34149 29.27734 16.67365 28.24646" style="fill:#fff;"/><path d="M10.34753,27.37085c-.13928,.20264-.07794,.46155,.14282,.60291l.88318,.56555,2.15662,1.38086c.22418,.14355,.22034,.42993-.00763,.56909l-3.6358,2.21973c-.37396,.22827-.47455,.66345-.22986,.99451l2.80646,3.79651h5.32532l-.32739-2.71729-.34259-2.84326-.44501-3.69299-.35907-2.9801c-1.22815-.3396-2.33966-.96899-3.26788-1.81104l-2.69916,3.91553Z" style="fill:#86584a;"/><path d="M26.91119,32.70898l-3.6358-2.21973c-.22797-.13916-.23181-.42554-.00763-.56909l2.1485-1.37573,.8913-.57068c.22076-.14136,.2821-.40027,.14288-.60291l-2.6701-3.88501c-.93011,.83423-2.04077,1.45825-3.2674,1.79126l-.36292,2.95007-.45502,3.69861-.38849,3.15784-.29724,2.41638h5.32532l2.80646-3.79651c.24475-.33105,.14417-.76624-.22986-.99451Z" style="fill:#86584a;"/></g><g><ellipse cx="15.96674" cy="16.87371" rx=".90994" ry="1.09193"/><ellipse cx="20.77121" cy="16.87371" rx=".90994" ry="1.09193"/></g><path d="M19.50188,21.67092c.20401,0,.34878,.19594,.29479,.39268-.17206,.62699-.74608,1.08767-1.4277,1.08767s-1.25564-.46068-1.4277-1.08767c-.05399-.19673,.09079-.39268,.29479-.39268h2.26581Z" style="fill:#5c2f17;"/><g><path d="M31.15727,11.67379c.65128,.12254,.80581,.98515,.23568,1.32298-1.98867,1.1784-7.05355,2.01591-12.98771,2.01591-5.94717,0-11.02125-.84119-13.00075-2.02367-.56626-.33826-.41782-1.19411,.2293-1.32177l2.94469-.58092,19.55988,.01946,3.0189,.568Z" style="fill:#303030;"/><path d="M22.03101,2.5h-7.48671c-2.46056,0-4.9809,2.78662-5.40945,5.31014l-.7121,4.19318H28.29078l-.7121-4.19318c-.42856-2.52352-3.08711-5.31014-5.54767-5.31014Z" style="fill:#303030;"/><path d="M18.40526,9.06707c-3.60683,0-6.87645-.31305-9.34453-.8205l-.48224,2.83976c2.51376,.56646,5.98825,.91699,9.82678,.91699,3.79266,0,7.22673-.34296,9.73311-.89753l-.48224-2.83938c-2.45707,.49588-5.69047,.80067-9.25086,.80067Z" style="fill:#454545;"/></g><g><g><path d="M33.92011,31.32251c.76416-1.83179-.10394-3.9436-1.93524-4.70776-1.83228-.7644-3.94397,.10449-4.70819,1.93628-.10028,.24036-.16913,.4856-.21466,.73181,1.38043,.77136,2.52844,1.89758,3.31427,3.26648,.1767,.30786,.31464,.63477,.44232,.96558,1.32477-.08398,2.55664-.88623,3.1015-2.19238Z" style="fill:#fff;"/><path d="M27.06202,29.28284c-.3017,1.63086,.55927,3.31177,2.15106,3.97595,.52563,.21924,1.0722,.29004,1.60553,.2561-.12769-.33081-.26562-.65771-.44232-.96558-.78583-1.3689-1.93384-2.49512-3.31427-3.26648Z" style="fill:#e2d6d3;"/></g><path d="M32.28998,25.89001c-2.22998-.94006-4.81,.12-5.73999,2.34998-.87,2.07007-.01001,4.44995,1.91003,5.52002l-1.56,3.73999h1.07996l1.41003-3.35999c2.09998,.62,4.39001-.45007,5.26001-2.52002,.92999-2.22998-.13-4.79993-2.36005-5.72998Zm1.63,5.43005c-.76001,1.82983-2.87,2.69995-4.70996,1.92993-1.83002-.76001-2.70001-2.87-1.92999-4.69995,.75995-1.84009,2.87-2.71008,4.70996-1.94006,1.83002,.76001,2.70001,2.88,1.92999,4.71008Z" style="fill:#333;"/></g></g><rect width="40" height="40" style="fill:none; opacity:0;"/></svg>