<?xml version="1.0" encoding="UTF-8"?><svg id="a" xmlns="http://www.w3.org/2000/svg" viewBox="0 0 40 40"><rect id="b" width="40" height="40" fill="#fff" opacity="0"/><g><path d="M35.422,17.677v4.037c0,5.956-7.457,11.75-14.494,15.379-.581,.3-1.274,.3-1.856,0-7.037-3.628-14.494-9.422-14.494-15.379V4.579c0-1.433,1.529-2.347,2.791-1.669l11.342,6.093c.805,.432,1.773,.432,2.577,0l11.342-6.093c1.262-.678,2.791,.236,2.791,1.669v13.098Z" fill="#ffc84d"/><path d="M35.422,21.715V4.579c0-1.433-1.529-2.347-2.791-1.669l-11.342,6.093c-.387,.208-.812,.31-1.237,.318v27.991c.301-.008,.602-.077,.877-.219,7.037-3.628,14.494-9.423,14.494-15.379Z" fill="#18a4a4"/></g></svg>