<?xml version="1.0" encoding="UTF-8"?><svg id="a" xmlns="http://www.w3.org/2000/svg" viewBox="0 0 40 40"><g id="b"><rect x="0" width="40" height="40" fill="none"/></g><g><path d="M14.189,23.367c.159,.265,.331,.523,.516,.774-.184-.251-.357-.508-.516-.774Z" fill="#3182f6"/><g><path d="M19.709,27.756l-3.99,3.991c.781-.781,2.047-.781,2.828,0s.781,2.048,0,2.828l5.761-5.762c.273-.273,.523-.563,.76-.861-.751,.178-1.524,.28-2.315,.28-1.049,0-2.072-.166-3.044-.476Z" fill="#0a37c7"/><path d="M25.939,16.846c.5,.948,.169,2.129-.769,2.667-.958,.55-2.181,.218-2.73-.74-.018-.031-.041-.059-.06-.09,.552,.919,.853,1.97,.853,3.07,0,.87-.19,1.708-.54,2.477,.02,0,.04,.003,.06,.003,1.599,0,3.102-.622,4.232-1.753l.223-.222c.008-.168,.025-.335,.025-.504,0-1.749-.454-3.426-1.294-4.907Z" fill="#0a37c7"/></g><path d="M18.547,31.747c-.781-.781-2.047-.781-2.828,0-2.333,2.332-6.131,2.333-8.466,0-2.333-2.334-2.333-6.132,0-8.466l5.539-5.538,.223-.222c1.131-1.131,2.634-1.753,4.232-1.753,.02,0,.04,.003,.06,.003,1.576,.016,3.055,.634,4.172,1.75,.171,.171,.327,.354,.475,.542,.04,.051,.076,.102,.114,.154,.111,.151,.215,.307,.311,.466,.018,.031,.042,.059,.06,.09,.55,.958,1.772,1.29,2.73,.74,.937-.538,1.269-1.719,.769-2.667-.011-.021-.017-.043-.028-.064-.03-.052-.068-.097-.099-.148-.159-.266-.332-.525-.517-.776-.066-.09-.13-.18-.199-.268-.246-.312-.505-.615-.788-.898-1.144-1.144-2.518-1.971-4.016-2.448-.972-.31-1.995-.476-3.044-.476-.791,0-1.564,.102-2.315,.28-1.781,.421-3.419,1.318-4.745,2.645l-5.762,5.761c-3.893,3.894-3.893,10.229,0,14.122,1.947,1.946,4.504,2.92,7.062,2.92s5.113-.974,7.061-2.92c.781-.78,.781-2.047,0-2.828Z" fill="#185dee"/><path d="M35.58,19.55l-5.77,5.76c-1.32,1.32-2.96,2.22-4.74,2.64-.75,.18-1.53,.28-2.32,.28-1.05,0-2.07-.16-3.04-.47-.65-.21-1.28-.49-1.88-.83-.06-.04-.13-.08-.2-.12-.26-.16-.52-.33-.78-.52-.08-.06-.17-.13-.26-.19-.31-.25-.61-.51-.9-.79-.28-.29-.54-.59-.79-.9-.06-.09-.13-.18-.2-.27-.18-.25-.35-.51-.51-.77-.03-.05-.07-.1-.1-.15-.01-.02-.02-.05-.03-.07-.84-1.48-1.29-3.15-1.29-4.9,0-.17,.01-.34,.02-.51l.22-.22c1.14-1.13,2.64-1.75,4.24-1.75h.06c-.35,.77-.54,1.61-.54,2.48,0,1.1,.3,2.15,.85,3.07,.1,.16,.2,.31,.31,.46,.04,.06,.08,.11,.12,.16,.14,.19,.3,.37,.47,.54,.17,.17,.35,.33,.54,.47,.05,.04,.1,.08,.16,.12,.15,.11,.3,.21,.46,.31,.91,.54,1.93,.84,3.01,.85h.06c1.6,0,3.1-.62,4.24-1.75l.22-.22,5.54-5.54c2.33-2.34,2.33-6.13,0-8.47-2.34-2.33-6.13-2.33-8.47,0l-1.68,1.69-1.06,1.06-1.25,1.24c-.97-.31-1.99-.47-3.04-.47-.79,0-1.57,.1-2.32,.28,.24-.3,.49-.59,.76-.86l3.02-3.02,2.74-2.75c3.89-3.89,10.23-3.89,14.13,0,3.89,3.9,3.89,10.23,0,14.13Z" fill="#3182f6"/></g></svg>