<?xml version="1.0" encoding="UTF-8"?><svg id="a" xmlns="http://www.w3.org/2000/svg" viewBox="0 0 40 40"><g><rect x="3.5" y="3.5" width="33" height="33" rx="8" ry="8" fill="#e5e8eb"/><g><path d="M17.431,13.723v4.76h-1.819l-.116-.839c-.322,.774-1.303,1.058-2.064,1.058-1.355,0-2.387-.89-2.387-2.129,0-1.406,1.174-2.189,2.554-2.189h1.832v-.494c0-.619-.491-.98-1.071-.98-.606,0-1.006,.361-1.045,.774h-1.974c.09-1.329,1.497-2.348,3.07-2.348,1.832,0,3.019,.942,3.019,2.387Zm-1.999,2.412v-.464h-1.432c-.619,0-.929,.245-.929,.761,0,.426,.413,.684,.916,.684,.735,0,1.445-.271,1.445-.981Z" fill="#3182f6"/><path d="M28.898,14.895c0,2.348-1.38,3.702-3.019,3.702-.929,0-1.651-.374-2.103-1.084l-.09,.865h-1.935V9.354h2.064v2.96c.464-.696,1.161-1.083,2.064-1.083,1.638,0,3.019,1.341,3.019,3.664Zm-2.025,0c0-1.29-.555-2.038-1.548-2.038s-1.509,.748-1.509,2.038c0,1.329,.516,2.064,1.509,2.064s1.548-.735,1.548-2.064Z" fill="#3182f6"/><path d="M14.367,22.788c1.858,0,3.122,1.174,3.303,2.838h-2.052c-.077-.658-.503-1.213-1.251-1.213-.993,0-1.535,.748-1.535,2.051,0,1.316,.542,2.051,1.535,2.051,.748,0,1.174-.555,1.251-1.213h2.052c-.181,1.677-1.445,2.851-3.303,2.851-2.167,0-3.561-1.509-3.561-3.689,0-2.219,1.432-3.677,3.561-3.677Z" fill="#3182f6"/><path d="M26.385,20.807h2.064v9.024h-1.935l-.09-.865c-.452,.71-1.174,1.084-2.103,1.084-1.638,0-3.019-1.354-3.019-3.702,0-2.322,1.38-3.664,3.019-3.664,.903,0,1.6,.387,2.064,1.083v-2.96Zm0,5.541c0-1.29-.516-2.038-1.509-2.038s-1.548,.748-1.548,2.038c0,1.329,.555,2.064,1.548,2.064s1.509-.735,1.509-2.064Z" fill="#3182f6"/></g></g><rect width="40" height="40" fill="none" opacity="0"/></svg>