<svg id="Layer_1" data-name="Layer 1" xmlns="http://www.w3.org/2000/svg" viewBox="0 0 40 40"><defs><style>.cls-1{fill:#d0d5da;}.cls-2{fill:#3182f6;}.cls-2,.cls-4,.cls-6,.cls-7{fill-rule:evenodd;}.cls-3{fill:#e5e9ee;}.cls-4{fill:#00bc79;}.cls-5{fill:none;}.cls-6{fill:#ffc33a;}.cls-7{fill:#ec4452;}</style></defs><rect class="cls-1" x="4.167" y="7.941" width="31.667" height="20" rx="2.85"/><path class="cls-2" d="M20.167,7.941H31.952V6.059a2,2,0,0,0-2-2H22.167a2,2,0,0,0-2,2Z"/><rect class="cls-3" x="4.167" y="10.941" width="31.667" height="20" rx="2.85"/><path class="cls-4" d="M12.167,10.941H23.952V9.059a2,2,0,0,0-2-2H14.167a2,2,0,0,0-2,2Z"/><rect class="cls-5" width="40" height="40"/><path class="cls-6" d="M4.167,13.941v18.15a2.85,2.85,0,0,0,2.85,2.85H32.983a2.85,2.85,0,0,0,2.85-2.85v-15.3a2.85,2.85,0,0,0-2.85-2.85Z"/><path class="cls-7" d="M4.167,13.941H15.952V12.059a2,2,0,0,0-2-2H6.167a2,2,0,0,0-2,2Z"/></svg>