<svg id="Layer_1" data-name="Layer 1" xmlns="http://www.w3.org/2000/svg" viewBox="0 0 40 40"><defs><style>.cls-1{fill:none;opacity:0;}.cls-2{fill:#786de7;}.cls-3{fill:#fff;}</style></defs><rect class="cls-1" width="40" height="40"/><rect class="cls-2" x="3.5" y="3.5" width="33" height="33" rx="8"/><circle class="cls-3" cx="20.019" cy="11.236" r="0.614"/><circle class="cls-3" cx="17.302" cy="11.255" r="0.614"/><circle class="cls-3" cx="14.584" cy="11.255" r="0.614"/><circle class="cls-3" cx="11.867" cy="11.255" r="0.614"/><circle class="cls-3" cx="9.15" cy="11.255" r="0.614"/><circle class="cls-3" cx="30.888" cy="11.255" r="0.614"/><circle class="cls-3" cx="28.171" cy="11.255" r="0.614"/><circle class="cls-3" cx="25.453" cy="11.255" r="0.614"/><circle class="cls-3" cx="22.736" cy="11.255" r="0.614"/><path class="cls-3" d="M20,24.769A11.4,11.4,0,0,1,8.5,13.511H9.725A10.167,10.167,0,0,0,20,23.542,10.167,10.167,0,0,0,30.275,13.511H31.5A11.4,11.4,0,0,1,20,24.769Z"/><path class="cls-3" d="M20,21.589a8.36,8.36,0,0,1-8.6-8.078h1.227A7.133,7.133,0,0,0,20,20.362a7.132,7.132,0,0,0,7.37-6.851H28.6A8.36,8.36,0,0,1,20,21.589Z"/><path class="cls-3" d="M20,16.622a3.23,3.23,0,0,1-3.255-3.2h1.227a2.029,2.029,0,0,0,4.056,0h1.227A3.23,3.23,0,0,1,20,16.622Z"/><path class="cls-3" d="M20,19.2a5.845,5.845,0,0,1-5.9-5.777h1.228a4.671,4.671,0,0,0,9.338,0H25.9A5.845,5.845,0,0,1,20,19.2Z"/><rect class="cls-3" x="19.343" y="13.426" width="1.315" height="13.817"/><path class="cls-3" d="M19.774,26.219l-4.321,2.229a.492.492,0,0,0,.225.929h8.643a.492.492,0,0,0,.226-.929l-4.322-2.229A.492.492,0,0,0,19.774,26.219Z"/></svg>