<?xml version="1.0" encoding="UTF-8"?><svg id="Layer_1" xmlns="http://www.w3.org/2000/svg" viewBox="0 0 40 40"><g opacity="0"><rect width="40" height="40" fill="none"/></g><g><rect x="3.5" y="3.5" width="33" height="33" rx="8" ry="8" fill="#e5e8eb"/><g><path d="m8.151,17.876v-3.656l4.852-3.035h2.943v17.385h-3.771v-13.177l-4.024,2.483Z" fill="#3182f6"/><path d="m18.892,20.015c0-6.001,2.69-8.944,6.668-8.944s6.692,2.943,6.692,8.944-2.713,8.899-6.692,8.899-6.668-2.921-6.668-8.899Zm6.668,5.795c1.84,0,2.897-1.609,2.897-5.795,0-4.208-1.058-5.841-2.897-5.841-1.816,0-2.874,1.633-2.874,5.841,0,4.186,1.058,5.795,2.874,5.795Z" fill="#3182f6"/></g></g></svg>