<?xml version="1.0" encoding="UTF-8"?><svg id="Layer_1" xmlns="http://www.w3.org/2000/svg" viewBox="0 0 40 40"><rect width="40" height="40" style="fill:none;"/><g><rect x="9.89733" y="16.94506" width="20.20533" height="19.27067" style="fill:#ffcca8;"/><path d="M20.42231,3.88212c-.26703-.13047-.57758-.13047-.84461,0-1.91383,.93512-9.68036,5.03133-9.68036,9.92338v3.13956H30.10267v-3.13956c0-4.89204-7.76653-8.98825-9.68036-9.92338Z" style="fill:#ef4452;"/><rect x="17.04992" y="31.7241" width="5.90016" height="4.49163" style="fill:#86584a;"/><path d="M20,27.85725c-1.6293,0-2.95008,1.32079-2.95008,2.95006v.91678h5.90016v-.91678c0-1.62927-1.32085-2.95006-2.95008-2.95006Z" style="fill:#86584a;"/><path d="M9.89733,19.41816v16.79757H4.44444c-1.07389,0-1.94444-.87056-1.94444-1.94444v-14.85313h7.39733Z" style="fill:#ffb582;"/><path d="M5.48867,12.462c.38424-.41541,1.03576-.41541,1.42,0,1.0742,1.16133,2.98867,3.43723,2.98867,4.90685v2.04931H2.5v-2.04931c0-1.46962,1.91446-3.74552,2.98867-4.90685Z" style="fill:#ef4452;"/><path d="M30.10267,19.41816v16.79757h5.45289c1.07389,0,1.94444-.87056,1.94444-1.94444v-14.85313h-7.39733Z" style="fill:#ffb582;"/><path d="M34.51133,12.462c-.38424-.41541-1.03576-.41541-1.42,0-1.0742,1.16133-2.98867,3.43723-2.98867,4.90685v2.04931h7.39733v-2.04931c0-1.46962-1.91446-3.74552-2.98867-4.90685Z" style="fill:#ef4452;"/></g></svg>