<?xml version="1.0" encoding="UTF-8"?><svg id="Layer_1" xmlns="http://www.w3.org/2000/svg" viewBox="0 0 40 40"><g><path d="M31.37,15.38c-.46997-1.41003-1.46002-2.56-2.77997-3.26001l-3.49005-1.84003-1.04999-.53998-.87-.45001c-1.32001,.85004-2.92999,.95001-4.29999,.34003l-2.81,.81-3.38,.91998c-.27002,.08002-.56-.07001-.65997-.34003l-1-2.56-.01001,.01001-4.12,2.08002,.00995,.01001,.82001,2.13c.79004,2.02997,2.72003,3.29999,4.81,3.29999,.45001,0,.90002-.06,1.36005-.17999l3.15997-.85999,.97003,4.53998,7.47998-1.91003,.02002-.00995-.59003-2.17004,1.51001,.80005c.26001,.13995,.45996,.37,.56,.65997l.91998,2.71997h.01001l4.78998-.12h.02002l-1.38-4.07996Zm-8.58002-3.37c0,.38-.40997,.60999-.73999,.40997l-1.04999-.65002-1.04999,.65002c-.32001,.20001-.73999-.02997-.73999-.40997v-1.06c0-.38,.41998-.61005,.73999-.41003l1.04999,.64001,1.04999-.64001c.33002-.20001,.73999,.03003,.73999,.41003v1.06Z" style="fill:#e6e6e6;"/><polygon points="25.09998 10.27997 24.04999 9.73999 24.06 9.72998 25.09998 10.27997" style="fill:#e6e6e6;"/></g><g><path d="M31.57001,36.81l-6.23999,2.45996c-.20001,.08002-.42004-.01996-.5-.21997l-.17999-.45001c-.27002-.66998-.17004-1.42999,.25-2.02002l.97998-1.33997-3.41998-9.82001-4.86005,2.76001c-.23999,.17999-.38,.46997-.38,.77002v9.31c0,.20996-.16998,.38995-.37994,.38995h-6.71002c-.21002,0-.39001-.17999-.39001-.38995v-.49005c0-.71997,.37-1.38995,.97998-1.77997l1.32001-.84003v-6.19995c0-1.90002,.90002-3.73004,2.41003-4.89001l4-2.44-.41998-2.13,7.47998-1.91003,.96997,3.19,4.88,14.45001,.42999,1.09003c.08002,.20001-.01996,.41998-.21997,.5Z" style="fill:#353d4a;"/><path d="M22.78998,10.95001v1.06c0,.38-.40997,.60999-.73999,.40997l-1.04999-.65002-1.04999,.65002c-.32001,.20001-.73999-.02997-.73999-.40997v-1.06c0-.38,.41998-.61005,.73999-.41003l1.04999,.64001,1.04999-.64001c.33002-.20001,.73999,.03003,.73999,.41003Z" style="fill:#353d4a;"/></g><g><path d="M33.15997,20.92999c0,1.54999-1.25,2.79999-2.78998,2.79999s-2.78998-1.25-2.78998-2.79999c0-.48999,.13995-.95001,.35999-1.35004l4.78998-.12c.27002,.43005,.42999,.93005,.42999,1.47003Z" style="fill:#ffb582;"/><path d="M25.22998,4.79999q.01001,.01001,.01001,.02002c-.27002-.04004-.54999-.10004-.82001-.19-1.23999-.37-2.47998-1.23004-3.70996-2.47003-.99005,1.47003-1.98004,2.32001-3.13,2.59003-.42999,.09998-.89001,.12-1.37,.06-.54004,.26996-.91003,.82001-.91003,1.46997,0,.89001,.70001,1.61005,1.59003,1.65002,.10999,.16998,.20996,.33997,.34998,.5,.46002,.53998,1.03003,.92999,1.64001,1.20001,1.37,.60999,2.97998,.51001,4.29999-.34003,.16998-.10999,.34003-.21002,.5-.34998,.35004-.29004,.62-.64001,.85999-1.01001,.90002-.02002,1.62-.75,1.62-1.65002,0-.64996-.37994-1.20996-.92999-1.47998Zm-5.34998,1.39001c-.22003,0-.40002-.27002-.40002-.61005,0-.33997,.17999-.60999,.40002-.60999,.22998,0,.40997,.27002,.40997,.60999,0,.34003-.17999,.61005-.40997,.61005Zm1.62,0c-.22998,0-.40997-.27002-.40997-.61005,0-.33997,.17999-.60999,.40997-.60999,.21997,0,.40002,.27002,.40002,.60999,0,.34003-.18005,.61005-.40002,.61005Z" style="fill:#ffb582;"/><path d="M11.03003,8.32996c0,.05005-.01001,.09003-.01001,.14001l-4.12,2.08002c-.72003-.47003-1.20001-1.28003-1.20001-2.22003,0-1.34998,1.01996-2.45996,2.33002-2.62994l-.38-1.04004c-.16003-.44,.06995-.91998,.50995-1.08002,.43005-.14996,.91003,.07001,1.07001,.51001l.77002,2.15002c.62,.48999,1.03003,1.23999,1.03003,2.08997Z" style="fill:#ffb582;"/></g><path d="M17.57581,4.74963c1.15912-.26624,2.14227-1.11664,3.13837-2.59131,1.22693,1.24292,2.46252,2.09747,3.7088,2.4754,.27142,.08234,.54321,.1499,.81573,.18512l-.00427-.01807c-.01801-.1225-.05731-.23669-.08478-.35565-.03156-.13641-.05371-.27655-.09711-.40784-.05255-.15894-.12683-.30621-.19574-.45667-.09113-.19904-.19373-.38904-.31116-.57111-.09723-.15082-.19165-.30347-.3053-.44122-.0954-.11566-.20618-.21661-.31213-.3222-.09601-.0957-.18854-.19366-.29254-.28058-.12262-.10242-.25513-.19208-.38788-.28137-.10291-.06921-.2049-.13733-.31329-.19818-.13287-.07452-.27136-.13904-.41168-.20026-.12408-.05408-.24927-.10272-.37842-.14581-.13202-.04401-.26654-.0816-.40326-.11353-.14386-.03363-.28918-.05786-.43744-.07739-.13275-.01746-.26636-.03143-.40204-.03711-.06329-.00262-.12366-.01727-.1875-.01727-.09082,0-.17712,.01917-.26685,.02454-.13525,.00806-.27014,.01727-.40234,.03705-.14905,.02234-.29297,.05609-.43738,.09259-.13403,.03394-.26868,.06628-.39801,.11188-.13623,.04803-.26483,.10901-.39514,.16931-.13019,.06024-.26306,.11578-.3866,.18768-.13806,.08038-.26367,.17749-.39233,.27148-.15125,.11041-.29749,.22473-.43414,.35266-.1568,.14673-.3103,.297-.4455,.46454-.08716,.10797-.15698,.22943-.23425,.34534-.08228,.12329-.16711,.24365-.23737,.37518-.06219,.11664-.10962,.2417-.1618,.3642-.06061,.14215-.12054,.28339-.16669,.4328-.03772,.12201-.06274,.24927-.09027,.37561-.02271,.10406-.0589,.20264-.0744,.30939l.01514,.00085c.48816,.0625,.94019,.03857,1.36957-.06006Z" style="fill:#ffdb87;"/><g><ellipse cx="19.88239" cy="5.58118" rx=".4054" ry=".61005"/><ellipse cx="21.49603" cy="5.58118" rx=".4054" ry=".61005"/></g></svg>