<?xml version="1.0" encoding="UTF-8"?><svg id="Layer_1" xmlns="http://www.w3.org/2000/svg" viewBox="0 0 40 40"><rect width="40" height="40" fill="none"/><g><g><ellipse cx="20" cy="18.065" rx="15.693" ry="15.565" fill="#93c9ff"/><path d="m4.307,18.065c0-8.596,7.026-15.565,15.693-15.565s15.693,6.969,15.693,15.565-31.387,8.596-31.387,0Z" fill="#3182f6"/><path d="m4.307,18.065c0-8.596,31.387-8.596,31.387,0s-31.387,8.596-31.387,0Z" fill="#64a7ff"/><ellipse cx="25.885" cy="12.18" rx="2.124" ry="2.106" fill="#fff"/></g><path d="m29.502,37.5H10.498c-.721,0-1.196-.752-.885-1.403l2.007-4.205c.163-.341.507-.558.885-.558h14.991c.378,0,.722.217.885.558l2.007,4.205c.311.651-.164,1.403-.885,1.403Z" fill="#424f57"/></g></svg>