<svg id="Layer_1" data-name="Layer 1" xmlns="http://www.w3.org/2000/svg" viewBox="0 0 40 40"><defs><style>.cls-1{fill:none;}.cls-2{fill:#ffc84d;}.cls-3{fill:#ffa01d;}</style></defs><rect class="cls-1" width="40" height="40"/><path class="cls-2" d="M33.182,18.008h0a2.785,2.785,0,1,0-5.568,0h0l-.006-1.752h0a3.142,3.142,0,1,0-6.283,0V3.709h0a3.142,3.142,0,1,0-6.283,0v0l0,12.51a3.14,3.14,0,1,0-6.279.046v2.773a5.256,5.256,0,0,0-3.939,5.078v.306c0,.013.007.024.007.037a14.179,14.179,0,0,0,28.357-.149v-6.31Z"/><path class="cls-3" d="M6.292,20.482l2.465,4.3V19.046A5.236,5.236,0,0,0,6.292,20.482Z"/></svg>