<svg id="Layer_1" data-name="Layer 1" xmlns="http://www.w3.org/2000/svg" viewBox="0 0 40 40"><defs><style>.cls-1{fill:none;}.cls-2{fill:#ffa300;}.cls-2,.cls-5{fill-rule:evenodd;}.cls-3{fill:#d9dde0;}.cls-4{fill:#fff;}.cls-5{fill:#ffc33a;}</style></defs><rect class="cls-1" width="40" height="40"/><path class="cls-2" d="M7,35.305a3.333,3.333,0,0,1-3.333-3.333V16.54l3.841-11.5A2.941,2.941,0,0,1,10.3,3.028H29.7a2.941,2.941,0,0,1,2.789,2.009l3.841,11.5V31.972A3.333,3.333,0,0,1,33,35.305Z"/><rect class="cls-3" x="10.19" y="6.79" width="19.619" height="16.235" rx="1.451"/><rect class="cls-4" x="7.7" y="11.312" width="24.601" height="20.119" rx="1.534"/><path class="cls-5" d="M36.333,16.54H3.667V32.365a2.94,2.94,0,0,0,2.94,2.94H33.393a2.94,2.94,0,0,0,2.94-2.94Z"/></svg>