<?xml version="1.0" encoding="UTF-8"?><svg id="Layer_1" xmlns="http://www.w3.org/2000/svg" viewBox="0 0 40 40"><rect x="0" width="40" height="40" fill="none"/><g><path d="m2.125,27.867l16.374-14.412,4.765,4.745-14.37,16.417c-1.822,2.082-5.024,2.191-6.984.239h0c-1.962-1.954-1.863-5.16.215-6.989Z" fill="#4e5968"/><path d="m31.299,11.203l.791,2.05c.252.652.791,1.152,1.46,1.354l2.494.753c.306.092.585.259.811.484l2.325,2.316c.425.424.427,1.112.003,1.537l-4.417,4.435c-.424.425-1.112.427-1.537.003l-2.325-2.316c-.227-.226-.394-.504-.488-.809l-.82-2.675c-.28-.914-1.113-1.596-2.069-1.572-2.108.054-4.767,1.98-4.767,1.98l-4.796-4.777s2.495-3.753,1.35-4.893c-2.774-2.763-11.386-2.042-11.386-2.042l-.178-1.142c14.026-6.251,21.903,2.995,23.238,4.756.13.172.233.356.311.558Z" fill="#abb7c7"/></g></svg>