<?xml version="1.0" encoding="UTF-8"?><svg id="Layer_1" xmlns="http://www.w3.org/2000/svg" viewBox="0 0 40 40"><g><g><g><g><path d="M31.74536,36.89087l-.50439-2.0498c-.19617-.79712-.45502-1.58521-.86371-2.29736-.99622-1.73535-2.56848-3.09033-4.46765-3.81177l-.49335-.1875-2.1485,1.37573c-.22418,.14355-.22034,.42993,.00763,.56909l3.6358,2.21973c.37402,.22827,.47461,.66345,.22986,.99451l-2.80646,3.79651h6.93335c.31909,0,.55365-.29932,.47742-.60913Z" style="fill:#be958d;"/><polygon points="19.19318 32.12024 18.64441 32.65271 19.30652 35.08362 19.69501 31.92578 19.29944 32.28711 19.19318 32.12024" style="fill:#be958d;"/><path d="M9.88672,32.70898l3.6358-2.21973c.22797-.13916,.23181-.42554,.00763-.56909l-2.15662-1.38086-.50677,.1925c-1.89917,.72156-3.47144,2.07654-4.46765,3.81201-.40875,.71204-.66754,1.50012-.86371,2.29736l-.50433,2.04968c-.07629,.30981,.15826,.60913,.47742,.60913h6.95483l-2.80646-3.79651c-.24469-.33105-.1441-.76624,.22986-.99451Z" style="fill:#be958d;"/><polygon points="17.49847 32.28711 17.11865 31.93945 17.46124 34.78271 18.03412 32.66614 17.55798 32.18445 17.49847 32.28711" style="fill:#be958d;"/><polygon points="18.35675 30.80664 17.55798 32.18445 18.03412 32.66614 18.34015 31.53564 18.64441 32.65271 19.19318 32.12024 18.35675 30.80664" style="fill:#962a1e;"/><polygon points="18.64441 32.65271 18.34015 31.53564 18.03412 32.66614 17.46124 34.78271 17.78864 37.5 18.38818 37.5 19.00928 37.5 19.30652 35.08362 18.64441 32.65271" style="fill:#962a1e;"/><polygon points="16.67365 28.24646 17.11865 31.93945 17.49847 32.28711 17.55798 32.18445 18.35675 30.80664 19.19318 32.12024 19.29944 32.28711 19.69501 31.92578 20.15002 28.22717 18.34149 29.27734 16.67365 28.24646" style="fill:#fff;"/><path d="M17.11865,31.93945l-.44501-3.69299-.33124-2.74902-.14526-1.20557-3.29565-.66858-2.55396,3.74756c-.13928,.20264-.07794,.46155,.14282,.60291l.88318,.56555,2.15662,1.38086c.22418,.14355,.22034,.42993-.00763,.56909l-3.6358,2.21973c-.37396,.22827-.47455,.66345-.22986,.99451l2.80646,3.79651h5.32532l-.32739-2.71729-.34259-2.84326Z" style="fill:#86584a;"/><path d="M26.91119,32.70898l-3.6358-2.21973c-.22797-.13916-.23181-.42554-.00763-.56909l2.1485-1.37573,.8913-.57068c.22076-.14136,.2821-.40027,.14288-.60291l-2.58453-3.74756-3.23175,.66858-.15442,1.25525-.32971,2.68005-.45502,3.69861-.38849,3.15784-.29724,2.41638h5.32532l2.80646-3.79651c.24475-.33105,.14417-.76624-.22986-.99451Z" style="fill:#86584a;"/></g><path d="M28.05957,14.84058c-.22479-.03735-.47009,.25244-.76056,.41602-.11371,.04871-.229,.08337-.3288,.08997-4.53284,.3009-11.40094-5.21484-11.40094-5.21484l-5.42151,6.06653c-.11359,.12708-.31458,.09351-.39679-.05579-.54718-.99353-1.10797-1.10583-1.32721-1.1073l-.00439-.00195c-.78326,.58936-1.28937,1.4895-1.28937,2.50684,0,1.77002,1.52002,3.20996,3.40997,3.21997,1.07001,2.40991,3.21002,4.22998,5.82001,4.87l.31,2.62,1.67004,1.03003,1.81-1.05005,.31995-2.62c2.58002-.64001,4.70001-2.46008,5.76001-4.84998,1.89001-.01001,3.42004-1.43994,3.42004-3.21997,0-1.13745-.63989-2.12769-1.59045-2.69946Z" style="fill:#ffb582;"/><path d="M9.75098,16.14246c.08221,.14929,.2832,.18286,.39679,.05579l5.42151-6.06653s6.8681,5.51575,11.40094,5.21484c.09979-.00659,.21509-.04126,.3288-.08997,.29047-.16357,.53577-.45337,.76056-.41602,.00903,.00146,.01855-.00464,.02753-.00208,.09045-6.15002-5.43964-11.12134-11.78357-9.93347-3.96179,.7417-7.13275,3.94849-7.82819,7.9187-.12537,.7157-.17365,1.42065-.15173,2.10791,.00165,.05322,.0434,.09827,.09576,.10156l.00439,.00195c.21924,.00146,.78003,.11377,1.32721,1.1073Z" style="fill:#ffdb87;"/><g><ellipse cx="15.97863" cy="16.88289" rx=".91271" ry="1.09525"/><ellipse cx="20.79774" cy="16.88289" rx=".91271" ry="1.09525"/></g><g><path d="M18.3739,21.83533c-.47296,.1803-.89325,.27991-1.27521,.32849,.25208,.46069,.72729,.78125,1.28949,.78125,.56342,0,1.03937-.32202,1.29095-.78442-.37573-.05005-.78802-.14893-1.25104-.32532-.01721-.00647-.03699-.00647-.0542,0Z" style="fill:#5c2f17;"/><path d="M22.66534,20.43115c-1.41827,.87109-2.53949-.04712-3.04352-.18347-.63147-.17078-1.02783,.16052-1.16589,.30652-.02991,.03149-.07996,.03149-.10986,0-.13806-.146-.53448-.47729-1.16589-.30652-.50403,.13635-1.62524,1.05457-3.04352,.18347-.06433-.03955-.1424,.02576-.11194,.09473,.24384,.55249,1.05804,1.89453,3.07397,1.63794,.38196-.04858,.80225-.14819,1.27521-.32849,.01721-.00647,.03699-.00647,.0542,0,.46301,.17639,.87531,.27527,1.25104,.32532,2.03363,.27051,2.85333-1.08008,3.09808-1.63477,.03052-.06897-.04755-.13428-.11188-.09473Z" style="fill:#ffdb87;"/></g></g><g><path d="M31.39001,13c-1.98999,1.17993-7.04999,2.01001-12.98004,2.01001-5.94995,0-11.02997-.84009-13.00995-2.02002-.56-.34009-.41003-1.19995,.22998-1.32007l2.95001-.57996c2.51001,.55994,5.98999,.91003,9.82996,.91003,3.79004,0,7.22003-.34009,9.73004-.89001l3.01996,.55994c.65002,.13013,.80005,.98999,.23004,1.33008Z" style="fill:#303030;"/><path d="M27.65997,8.27002c-2.45996,.48999-5.69,.80005-9.25,.80005-3.60999,0-6.87994-.32007-9.34998-.82007l.07001-.43994c.42999-2.52002,2.95001-5.31006,5.40997-5.31006h7.49005c2.45996,0,5.12,2.79004,5.54999,5.31006l.07996,.45996Z" style="fill:#303030;"/><path d="M18.40527,9.06714c-3.60681,0-6.87646-.31311-9.34454-.82056l-.48224,2.83972c2.51373,.56653,5.98822,.91699,9.82678,.91699,3.79266,0,7.22675-.3429,9.73309-.89758h0l-.17615-1.03711-.30609-1.80225c-2.45709,.49585-5.69049,.80078-9.25085,.80078Z" style="fill:#454545;"/></g></g><g><g><path d="M33.91954,31.32362c.76416-1.83179-.10394-3.9436-1.93524-4.70776-1.83228-.7644-3.94397,.10449-4.70819,1.93628-.10028,.24036-.16913,.4856-.21466,.73181,1.38043,.77136,2.52844,1.89758,3.31427,3.26648,.1767,.30786,.31464,.63477,.44232,.96558,1.32477-.08398,2.55664-.88623,3.1015-2.19238Z" style="fill:#fff;"/><path d="M27.06145,29.28395c-.3017,1.63086,.55927,3.31177,2.15106,3.97595,.52563,.21924,1.0722,.29004,1.60553,.2561-.12769-.33081-.26562-.65771-.44232-.96558-.78583-1.3689-1.93384-2.49512-3.31427-3.26648Z" style="fill:#e2d6d3;"/></g><path d="M32.28998,25.89001c-2.22998-.94006-4.81,.12-5.73999,2.34998-.87,2.07007-.01001,4.44995,1.91003,5.52002l-1.56,3.73999h1.07996l1.41003-3.35999c2.09998,.62,4.39001-.45007,5.26001-2.52002,.92999-2.22998-.13-4.79993-2.36005-5.72998Zm1.63,5.43005c-.76001,1.82983-2.87,2.69995-4.70996,1.92993-1.83002-.76001-2.70001-2.87-1.92999-4.69995,.75995-1.84009,2.87-2.71008,4.70996-1.94006,1.83002,.76001,2.70001,2.88,1.92999,4.71008Z" style="fill:#333;"/></g></g><rect id="_icn-link-color" width="40" height="40" style="fill:none;"/></svg>