<?xml version="1.0" encoding="UTF-8"?><svg id="a" xmlns="http://www.w3.org/2000/svg" viewBox="0 0 40 40"><g><path d="M20,5.5c-7.995,0-14.5,6.505-14.5,14.5s6.505,14.5,14.5,14.5,14.5-6.505,14.5-14.5-6.505-14.5-14.5-14.5Zm1.5,24.172c0,.829-.672,1.5-1.5,1.5s-1.5-.671-1.5-1.5v-7.095l-4.253,2.417c-.234,.133-.488,.196-.74,.196-.521,0-1.028-.273-1.305-.759-.41-.72-.157-1.636,.562-2.045l6.494-3.69c.024-.014,.05-.021,.074-.033,.048-.024,.097-.046,.148-.065,.045-.017,.09-.03,.135-.042,.048-.013,.096-.024,.145-.032,.052-.008,.103-.013,.155-.016,.028-.002,.055-.008,.084-.008,.019,0,.037,.005,.057,.006,.051,.002,.1,.008,.15,.015,.05,.007,.099,.014,.147,.026,.044,.011,.086,.025,.128,.04,.05,.017,.099,.034,.146,.055,.04,.019,.079,.041,.117,.064,.044,.026,.088,.051,.13,.08,.037,.027,.072,.058,.107,.088,.038,.034,.076,.067,.111,.104,.03,.032,.057,.067,.084,.102,.035,.044,.068,.089,.097,.137,.009,.015,.021,.027,.03,.042,.013,.023,.019,.047,.031,.07,.025,.05,.048,.1,.068,.153,.017,.045,.03,.089,.042,.135,.013,.047,.024,.094,.031,.143,.009,.053,.013,.106,.016,.16,.001,.027,.008,.053,.008,.08v9.672Z" fill="#e5e8eb"/><path d="M20,2.5C10.335,2.5,2.5,10.335,2.5,20s7.835,17.5,17.5,17.5,17.5-7.835,17.5-17.5S29.665,2.5,20,2.5Zm0,32c-7.995,0-14.5-6.505-14.5-14.5S12.005,5.5,20,5.5s14.5,6.505,14.5,14.5-6.505,14.5-14.5,14.5Z" fill="#a3adb7"/><path d="M19.333,18.663c-.024,.012-.05,.019-.074,.033l-6.494,3.69c-.72,.409-.973,1.325-.562,2.045,.276,.486,.783,.759,1.305,.759,.252,0,.506-.063,.74-.196l4.253-2.417v-2.578c0-.588,.341-1.091,.833-1.337Z" fill="#ff2a4b"/><path d="M21.476,19.76c-.008-.049-.019-.096-.031-.143-.012-.046-.026-.091-.042-.135-.02-.053-.043-.103-.068-.153-.019-.038-.039-.076-.061-.112-.03-.048-.063-.093-.097-.137-.027-.035-.054-.07-.084-.102-.035-.037-.073-.07-.111-.104-.035-.03-.069-.061-.107-.088-.041-.03-.085-.055-.13-.08-.039-.022-.077-.045-.117-.064-.047-.022-.096-.039-.146-.055-.042-.014-.084-.029-.128-.04-.048-.012-.097-.019-.147-.026-.05-.007-.099-.013-.15-.015-.019,0-.037-.006-.057-.006-.029,0-.056,.007-.084,.008-.052,.003-.104,.007-.155,.016-.05,.008-.097,.019-.145,.032-.046,.012-.091,.026-.135,.042-.051,.019-.1,.041-.148,.065-.492,.246-.833,.749-.833,1.337v9.672c0,.829,.672,1.5,1.5,1.5s1.5-.671,1.5-1.5v-9.672c0-.028-.007-.053-.008-.08-.003-.054-.008-.107-.016-.16Z" fill="#313d4c"/></g><g id="b"><rect x="0" width="40" height="40" fill="none"/></g></svg>