<?xml version="1.0" encoding="UTF-8"?><svg id="Layer_1" xmlns="http://www.w3.org/2000/svg" viewBox="0 0 40 40"><rect width="40" height="40" fill="none"/><g><rect x="30.151" y="11.399" width="8.485" height=".554" transform="translate(12.755 40.848) rotate(-72.184)" fill="#2b7900"/><path d="m22.18,3.752c-.224-.599-.932-.87-1.494-.565-3.79,2.061-5.553,6.742-3.956,11.01,1.743,4.661,6.832,7.064,11.366,5.368l-5.915-15.814Z" fill="#abb7c7"/><path d="m32.73,12.266l-.794-.394c-2.075-1.031-4.594-.326-5.833,1.633l-1.569,2.482L2.717,30.119c-.272.176-.292.566-.04.769l7.387,5.946c.236.19.588.113.723-.158l3.95-7.901c.171-.342.532-.539.911-.492,2.453.304,11.472.924,14-5.961l3.081-10.057Z" fill="#e5e8eb"/><path d="m32.73,12.266l2.933,1.454c.149.074.133.292-.025.343l-3.692.762.784-2.559Z" fill="#adadad"/><path d="m6.45,3.863c-.527-.352-1.234-.157-1.533.402-2.975,5.555-1.187,12.65,4.306,16.322,5.835,3.901,13.641,2.462,17.436-3.215L6.45,3.863Z" fill="#e5e8eb"/><circle cx="29.804" cy="13.233" r=".984"/><path d="m31.237,8.344c-.207.039-.332.247-.27.448.152.493.516,1.369,1.269,1.822s1.696.366,2.204.27c.207-.039.332-.247.27-.448-.152-.493-.516-1.369-1.269-1.822s-1.696-.366-2.204-.27Z" fill="#2b7900"/><path d="m35.328,9.168c-.157.14-.157.383,0,.523.385.344,1.148.906,2.027.906s1.642-.562,2.027-.906c.157-.14.157-.383,0-.523-.385-.344-1.148-.906-2.027-.906-.879,0-1.642.562-2.027.906Z" fill="#2b7900"/><path d="m35.708,3.911c-.147-.151-.389-.14-.522.023-.327.4-.855,1.187-.817,2.065.038.878.633,1.616.994,1.986.147.151.389.14.522-.023.327-.4.855-1.187.817-2.065s-.633-1.616-.994-1.986Z" fill="#2b7900"/></g></svg>