<svg id="Layer_1" data-name="Layer 1" xmlns="http://www.w3.org/2000/svg" viewBox="0 0 40 40"><defs><style>.cls-1{fill:#be958d;}.cls-2{fill:#962a1e;}.cls-3{fill:#ffcca8;}.cls-10,.cls-4{fill:#fff;}.cls-5{fill:#86584a;}.cls-6{fill:#333;}.cls-7{fill:#5c2f17;}.cls-8{fill:#303030;}.cls-9{fill:#454545;}.cls-10{opacity:0.55;}.cls-11{fill:none;}</style></defs><path class="cls-1" d="M25.91,28.732l-3.946-1.5a10.071,10.071,0,0,0-7.152,0l-3.945,1.5A8.72,8.72,0,0,0,6.4,32.544a8.834,8.834,0,0,0-.864,2.3l-.5,2.05a.491.491,0,0,0,.477.609h25.76a.491.491,0,0,0,.477-.609l-.5-2.05a8.386,8.386,0,0,0-5.331-6.109Z"/><polygon class="cls-2" points="18.326 32.962 15.822 30.428 20.937 30.428 18.326 32.962"/><polygon class="cls-2" points="16.726 37.5 18.34 31.536 19.965 37.5 16.726 37.5"/><path class="cls-3" d="M18.4,30.519h0a2.056,2.056,0,0,1-2.057-2.056v-3.9h4.113l.1,3.9A2.146,2.146,0,0,1,18.4,30.519Z"/><polygon class="cls-4" points="16.557 28.174 18.342 29.277 20.241 28.174 21.235 30.519 19.299 32.287 18.357 30.807 17.498 32.287 15.567 30.519 16.557 28.174"/><path class="cls-5" d="M12.9,23.623l-2.554,3.748a.419.419,0,0,0,.142.6l3.04,1.946a.324.324,0,0,1-.007.569l-3.636,2.22a.672.672,0,0,0-.23.995l2.806,3.8h5.326L16.2,24.292Z"/><path class="cls-5" d="M23.866,23.623l2.584,3.748a.419.419,0,0,1-.142.6l-3.04,1.946a.324.324,0,0,0,.007.569l3.636,2.22a.672.672,0,0,1,.23.995l-2.806,3.8H19.009l1.625-13.208Z"/><circle class="cls-3" cx="18.388" cy="17.298" r="8.577"/><ellipse class="cls-3" cx="10.561" cy="17.539" rx="3.433" ry="3.22"/><ellipse class="cls-3" cx="26.215" cy="17.539" rx="3.433" ry="3.22"/><path class="cls-6" d="M28.087,14.839A9.889,9.889,0,0,0,8.475,12.824a10.315,10.315,0,0,0-.151,2.108.1.1,0,0,0,.1.1c.219,0,.78.114,1.327,1.107a.244.244,0,0,0,.4.056l5.421-6.066s6.868,5.516,11.4,5.215a1.085,1.085,0,0,0,.329-.09C27.6,15.086,27.855,14.771,28.087,14.839Z"/><ellipse cx="15.979" cy="16.883" rx="0.913" ry="1.095"/><ellipse cx="20.798" cy="16.883" rx="0.913" ry="1.095"/><path class="cls-7" d="M19.524,21.46a.31.31,0,0,1,.3.395,1.486,1.486,0,0,1-2.864,0,.311.311,0,0,1,.3-.395Z"/><path class="cls-8" d="M31.157,11.674A.718.718,0,0,1,31.393,13c-1.989,1.178-7.054,2.016-12.988,2.016s-11.021-.842-13-2.024a.718.718,0,0,1,.23-1.322l2.944-.581,19.56.02Z"/><path class="cls-8" d="M22.031,2.5H14.544c-2.46,0-4.981,2.787-5.409,5.31L8.423,12H28.291L27.579,7.81C27.15,5.287,24.492,2.5,22.031,2.5Z"/><path class="cls-9" d="M18.405,9.067a48.251,48.251,0,0,1-9.344-.82l-.483,2.839A46.92,46.92,0,0,0,18.405,12a47.25,47.25,0,0,0,9.733-.9l-.482-2.84A48.521,48.521,0,0,1,18.405,9.067Z"/><circle class="cls-10" cx="30.599" cy="29.931" r="3.992"/><path class="cls-6" d="M28.912,33.977a4.384,4.384,0,1,1,5.733-2.358A4.39,4.39,0,0,1,28.912,33.977Zm3.074-7.368a3.6,3.6,0,1,0,1.935,4.708A3.6,3.6,0,0,0,31.986,26.609Z"/><polygon class="cls-6" points="27.984 37.5 29.53 33.795 28.606 33.41 26.899 37.5 27.984 37.5"/><path class="cls-6" d="M19.622,20.248a1.143,1.143,0,0,0-1.166.306.075.075,0,0,1-.11,0,1.143,1.143,0,0,0-1.166-.306c-.5.136-1.625,1.054-3.043.183a.077.077,0,0,0-.112.095c.29.657,1.38,2.441,4.349,1.309a.083.083,0,0,1,.054,0c2.969,1.132,4.059-.652,4.349-1.309a.077.077,0,0,0-.112-.095C21.247,21.3,20.126,20.384,19.622,20.248Z"/><rect class="cls-11" width="40" height="40"/></svg>