<svg id="Layer_1" data-name="Layer 1" xmlns="http://www.w3.org/2000/svg" viewBox="0 0 40 40"><defs><style>.cls-1{fill:none;}.cls-2{fill:#6b7683;}.cls-3{fill:#7bd58f;}.cls-4{fill:#4e5968;}</style></defs><rect class="cls-1" width="40" height="40"/><rect class="cls-2" x="1.5" y="8.09" width="33.604" height="23.82" rx="4"/><path class="cls-3" d="M4.949,9.45H23.96a0,0,0,0,1,0,0v19.6a1.5,1.5,0,0,1-1.5,1.5H6.449a1.5,1.5,0,0,1-1.5-1.5V9.45A0,0,0,0,1,4.949,9.45Z" transform="translate(34.455 5.545) rotate(90)"/><path class="cls-4" d="M37.1,15.721h1.4a0,0,0,0,1,0,0v8.557a0,0,0,0,1,0,0H37.1a2,2,0,0,1-2-2V17.721A2,2,0,0,1,37.1,15.721Z" transform="translate(73.604 40) rotate(-180)"/></svg>