<svg id="Layer_1" data-name="Layer 1" xmlns="http://www.w3.org/2000/svg" viewBox="0 0 40 40"><defs><style>.cls-1{fill:none;}.cls-2{fill:#e5e8eb;}.cls-3,.cls-4{fill:#313d4c;}.cls-4{stroke:#e5e8eb;stroke-miterlimit:10;}</style></defs><rect class="cls-1" width="40" height="40"/><rect class="cls-2" x="3.5" y="3.5" width="33" height="33" rx="8" transform="translate(0 40) rotate(-90)"/><path class="cls-3" d="M27.224,19.333a2.984,2.984,0,0,1-.377,2.507,3.993,3.993,0,0,1-3.422,1.867H16.014v4.116l7.817.01a7.653,7.653,0,0,0,7.644-7.644,7.572,7.572,0,0,0-.61-2.984.54.54,0,0,0-.8-.217l-2.622,1.768A.529.529,0,0,0,27.224,19.333Z"/><path class="cls-3" d="M12.776,20.667a2.984,2.984,0,0,1,.377-2.507,3.993,3.993,0,0,1,3.422-1.867h7.411V12.177l-7.817-.01a7.653,7.653,0,0,0-7.644,7.644,7.572,7.572,0,0,0,.61,2.984.54.54,0,0,0,.8.217l2.622-1.768A.529.529,0,0,0,12.776,20.667Z"/><path class="cls-3" d="M29.112,13.661,23.888,10.12a.693.693,0,0,0-1.081.573v7.082a.692.692,0,0,0,1.081.573l5.224-3.541A.692.692,0,0,0,29.112,13.661Z"/><circle class="cls-4" cx="13.994" cy="24.549" r="4.549"/><path class="cls-2" d="M12.47,24.089V23.055l1.372-.858h.832v4.914H13.608V23.387Z"/></svg>