<?xml version="1.0" encoding="UTF-8"?><svg id="Layer_1" xmlns="http://www.w3.org/2000/svg" viewBox="0 0 40 40"><rect width="40" height="40" style="fill:none;"/><g><path d="M20,3.13368V36.86632l15.89281-3.07628c.93317-.18063,1.60719-.99762,1.60719-1.94811V9.70484c0-.88279-.58321-1.65943-1.43099-1.90558L20,3.13368Z" style="fill:#333d4b;"/><polygon points="20 10.00253 37.5 13.484 37.5 15.13064 20 12.11964 20 10.00253" style="fill:#ffc100;"/><path d="M20,3.13368V36.86632l-15.89281-3.07628c-.93317-.18063-1.60719-.99762-1.60719-1.94811V9.70484c0-.88279,.58321-1.65943,1.43099-1.90558L20,3.13368Z" style="fill:#4e5968;"/><polygon points="20 10.00253 2.5 13.484 2.5 15.13064 20 12.11964 20 10.00253" style="fill:#ffd06c;"/></g></svg>