<?xml version="1.0" encoding="UTF-8"?><svg id="Layer_1" xmlns="http://www.w3.org/2000/svg" viewBox="0 0 40 40"><g><path d="m31.37,15.38c-.47-1.41-1.46-2.56-2.78-3.26l-3.49-1.84-1.05-.54-.87-.45c-1.32.85-2.93.95-4.3.34l-2.81.81-3.38.92c-.27.08-.56-.07-.66-.34l-1-2.56-.01.01-4.12,2.08.01.01.82,2.13c.79,2.03,2.72,3.3,4.81,3.3.45,0,.9-.06,1.36-.18l3.16-.86.97,4.54,7.48-1.91.02-.01-.59-2.17,1.51.8c.26.14.46.37.56.66l.92,2.72h.01l4.79-.12h.02l-1.38-4.08Zm-8.58-3.37c0,.38-.41.61-.74.41l-1.05-.65-1.05.65c-.32.2-.74-.03-.74-.41v-1.06c0-.38.42-.61.74-.41l1.05.64,1.05-.64c.33-.2.74.03.74.41v1.06Z" fill="#e6e6e6"/><polygon points="25.1 10.28 24.05 9.74 24.06 9.73 25.1 10.28" fill="#e6e6e6"/></g><g><path d="m31.57,36.81l-6.24,2.46c-.2.08-.42-.02-.5-.22l-.18-.45c-.27-.67-.17-1.43.25-2.02l.98-1.34-3.42-9.82-4.86,2.76c-.24.18-.38.47-.38.77v9.31c0,.21-.17.39-.38.39h-6.71c-.21,0-.39-.18-.39-.39v-.49c0-.72.37-1.39.98-1.78l1.32-.84v-6.2c0-1.9.9-3.73,2.41-4.89l4-2.44-.42-2.13,7.48-1.91.97,3.19,4.88,14.45.43,1.09c.08.2-.02.42-.22.5Z" fill="#353d4a"/><path d="m22.79,10.95v1.06c0,.38-.41.61-.74.41l-1.05-.65-1.05.65c-.32.2-.74-.03-.74-.41v-1.06c0-.38.42-.61.74-.41l1.05.64,1.05-.64c.33-.2.74.03.74.41Z" fill="#353d4a"/></g><g><path d="m33.16,20.93c0,1.55-1.25,2.8-2.79,2.8s-2.79-1.25-2.79-2.8c0-.49.14-.95.36-1.35l4.79-.12c.27.43.43.93.43,1.47Z" fill="#ffb582"/><path d="m25.23,4.8q.01.01.01.02c-.27-.04-.55-.1-.82-.19-1.24-.37-2.48-1.23-3.71-2.47-.99,1.47-1.98,2.32-3.13,2.59-.43.1-.89.12-1.37.06-.54.27-.91.82-.91,1.47,0,.89.7,1.61,1.59,1.65.11.17.21.34.35.5.46.54,1.03.93,1.64,1.2,1.37.61,2.98.51,4.3-.34.17-.11.34-.21.5-.35.35-.29.62-.64.86-1.01.9-.02,1.62-.75,1.62-1.65,0-.65-.38-1.21-.93-1.48Zm-5.35,1.39c-.22,0-.4-.27-.4-.61s.18-.61.4-.61c.23,0,.41.27.41.61s-.18.61-.41.61Zm1.62,0c-.23,0-.41-.27-.41-.61s.18-.61.41-.61c.22,0,.4.27.4.61s-.18.61-.4.61Z" fill="#ffb582"/><path d="m11.03,8.33c0,.05-.01.09-.01.14l-4.12,2.08c-.72-.47-1.2-1.28-1.2-2.22,0-1.35,1.02-2.46,2.33-2.63l-.38-1.04c-.16-.44.07-.92.51-1.08.43-.15.91.07,1.07.51l.77,2.15c.62.49,1.03,1.24,1.03,2.09Z" fill="#ffb582"/></g><path d="m17.576,4.75c1.159-.266,2.142-1.117,3.138-2.591,1.227,1.243,2.463,2.097,3.709,2.475.271.082.543.15.816.185,0-.006-.003-.012-.004-.018-.018-.122-.057-.237-.085-.356-.032-.136-.054-.277-.097-.408-.053-.159-.127-.306-.196-.457-.091-.199-.194-.389-.311-.571-.097-.151-.192-.303-.305-.441-.095-.116-.206-.217-.312-.322-.096-.096-.189-.194-.293-.281-.123-.102-.255-.192-.388-.281-.103-.069-.205-.137-.313-.198-.133-.075-.271-.139-.412-.2-.124-.054-.249-.103-.378-.146-.132-.044-.267-.082-.403-.114-.144-.034-.289-.058-.437-.077-.133-.017-.266-.031-.402-.037-.063-.003-.124-.017-.188-.017-.091,0-.177.019-.267.025-.135.008-.27.017-.402.037-.149.022-.293.056-.437.093-.134.034-.269.066-.398.112-.136.048-.265.109-.395.169-.13.06-.263.116-.387.188-.138.08-.264.177-.392.271-.151.11-.297.225-.434.353-.157.147-.31.297-.445.465-.087.108-.157.229-.234.345-.082.123-.167.244-.237.375-.062.117-.11.242-.162.364-.061.142-.121.283-.167.433-.038.122-.063.249-.09.376-.023.104-.059.203-.074.309.005,0,.01,0,.015,0,.488.062.94.039,1.37-.06Z" fill="#ffdb87"/><g><ellipse cx="19.882" cy="5.581" rx=".405" ry=".61"/><ellipse cx="21.496" cy="5.581" rx=".405" ry=".61"/></g></svg>