<?xml version="1.0" encoding="UTF-8"?><svg id="Layer_1" xmlns="http://www.w3.org/2000/svg" viewBox="0 0 40 40"><path d="m28.5,3.5H11.5C7.08,3.5,3.5,7.08,3.5,11.5v17c0,4.42,3.58,8,8,8h17c4.42,0,8-3.58,8-8V11.5c0-4.42-3.58-8-8-8ZM9.14,22.8c-.4-.92-.61-1.93-.61-2.99,0-4.21,3.42-7.64,7.64-7.64l6.64.01v-1.49c0-.55.62-.88,1.08-.57l5.22,3.54c.41.28.41.87,0,1.15l-5.22,3.54c-.46.31-1.08-.02-1.08-.57v-1.49h-6.23c-1.39,0-2.71.69-3.43,1.87-.58.95-.58,1.77-.37,2.51.06.21-.04.45-.23.57l-2.62,1.77c-.27.19-.66.09-.79-.21Zm14.69,5.03l-6.64-.01v1.49c0,.55-.62.88-1.08.57l-5.22-3.54c-.41-.28-.41-.87,0-1.15l5.22-3.54c.46-.31,1.08.02,1.08.57v1.49h6.23c1.39,0,2.71-.69,3.43-1.87.58-.95.58-1.77.37-2.51-.06-.21.04-.45.23-.57l2.62-1.77c.27-.19.66-.09.79.21.4.92.61,1.93.61,2.99,0,4.21-3.42,7.64-7.64,7.64Z" fill="#e5e8eb"/><g><path d="m31.47,20.19c0,4.21-3.42,7.64-7.64,7.64l-6.64-.01v1.49c0,.55-.62.88-1.08.57l-5.22-3.54c-.41-.28-.41-.87,0-1.15l5.22-3.54c.46-.31,1.08.02,1.08.57v1.49h6.23c1.39,0,2.71-.69,3.43-1.87.58-.95.58-1.77.37-2.51-.06-.21.04-.45.23-.57l2.62-1.77c.27-.19.66-.09.79.21.4.92.61,1.93.61,2.99Z" fill="#313d4c"/><path d="m0,0v40h40V0H0Zm23.83,27.83l-6.64-.01v1.49c0,.55-.62.88-1.08.57l-5.22-3.54c-.41-.28-.41-.87,0-1.15l5.22-3.54c.46-.31,1.08.02,1.08.57v1.49h6.23c1.39,0,2.71-.69,3.43-1.87.58-.95.58-1.77.37-2.51-.06-.21.04-.45.23-.57l2.62-1.77c.27-.19.66-.09.79.21.4.92.61,1.93.61,2.99,0,4.21-3.42,7.64-7.64,7.64Zm-7.66-15.66l6.64.01v-1.49c0-.55.62-.88,1.08-.57l5.22,3.54c.41.28.41.87,0,1.15l-5.22,3.54c-.46.31-1.08-.02-1.08-.57v-1.49h-6.23c-1.39,0-2.71.69-3.43,1.87-.58.95-.58,1.77-.37,2.51.06.21-.04.45-.23.57l-2.62,1.77c-.27.19-.66.09-.79-.21-.4-.92-.61-1.93-.61-2.99,0-4.21,3.42-7.64,7.64-7.64Z" fill="none"/><path d="m29.11,14.81l-5.22,3.54c-.46.31-1.08-.02-1.08-.57v-1.49h-6.23c-1.39,0-2.71.69-3.43,1.87-.58.95-.58,1.77-.37,2.51.06.21-.04.45-.23.57l-2.62,1.77c-.27.19-.66.09-.79-.21-.4-.92-.61-1.93-.61-2.99,0-4.21,3.42-7.64,7.64-7.64l6.64.01v-1.49c0-.55.62-.88,1.08-.57l5.22,3.54c.41.28.41.87,0,1.15Z" fill="#313d4c"/></g></svg>