<svg id="Layer_1" data-name="Layer 1" xmlns="http://www.w3.org/2000/svg" viewBox="0 0 40 40"><defs><style>.cls-1{fill:#e5e8eb;}.cls-2{fill:#3182f6;}.cls-3{fill:none;opacity:0;}</style></defs><rect class="cls-1" x="3.5" y="3.5" width="33" height="33" rx="8"/><path class="cls-2" d="M12.856,16.564h2.921l.688,2.017h2.128L15.338,9.753l-.022-.062h-2l-3.289,8.89h2.127Zm.614-1.752.858-2.474.848,2.474Z"/><path class="cls-2" d="M28.958,16a2.081,2.081,0,0,0-1.634-2.083,1.981,1.981,0,0,0,1.284-1.848c0-1.513-1.152-2.381-3.162-2.381H21.874v8.89h3.934C27.81,18.581,28.958,17.641,28.958,16Zm-3.582-2.789H23.929V11.385h1.447c.527,0,1.154.156,1.154.9C26.53,12.892,26.131,13.214,25.376,13.214Zm-1.447,1.693h1.809c.726,0,1.142.362,1.142.991s-.427.99-1.142.99H23.929Z"/><path class="cls-2" d="M14.486,22.832a1.874,1.874,0,0,1,2.02,1.538l.018.071h2.121l-.019-.11a3.9,3.9,0,0,0-4.14-3.263A4.322,4.322,0,0,0,9.994,25.7a4.311,4.311,0,0,0,4.492,4.608,3.894,3.894,0,0,0,4.14-3.262l.019-.11H16.524l-.018.07a1.875,1.875,0,0,1-2.02,1.54c-.888,0-2.378-.371-2.378-2.846C12.108,23.205,13.6,22.832,14.486,22.832Z"/><path class="cls-2" d="M25.266,21.243H21.735v8.89h3.531A4.167,4.167,0,0,0,29.617,25.7,4.18,4.18,0,0,0,25.266,21.243Zm-1.476,1.74h1.371c.875,0,2.343.353,2.343,2.717,0,2.343-1.468,2.694-2.343,2.694H23.79Z"/><rect class="cls-3" width="40" height="40"/></svg>