<svg id="Layer_1" data-name="Layer 1" xmlns="http://www.w3.org/2000/svg" viewBox="0 0 40 40"><defs><style>.cls-1{fill:none;}.cls-2{fill:#e5e8eb;}.cls-3{fill:#64a7ff;}</style></defs><rect class="cls-1" width="40" height="40"/><path class="cls-2" d="M15.448,15.867c2.076,0,2.076,2.164,4.152,2.164s2.079-2.164,4.157-2.164,2.079,2.164,4.159,2.164c1.5,0,1.923-1.112,2.815-1.741L25.944,7.714a2.785,2.785,0,0,0-2.433-1.428H16.489a2.785,2.785,0,0,0-2.433,1.428L9.015,16.745A2.978,2.978,0,0,0,11.3,18.031C13.372,18.031,13.372,15.867,15.448,15.867Z"/><path class="cls-3" d="M38.143,29.569,30.731,16.29c-.892.629-1.319,1.741-2.815,1.741-2.08,0-2.08-2.164-4.159-2.164s-2.078,2.164-4.157,2.164-2.076-2.164-4.152-2.164-2.076,2.164-4.152,2.164a2.978,2.978,0,0,1-2.281-1.286L1.857,29.569a2.787,2.787,0,0,0,2.434,4.145H35.709A2.787,2.787,0,0,0,38.143,29.569Z"/></svg>