<?xml version="1.0" encoding="UTF-8"?><svg id="Layer_1" xmlns="http://www.w3.org/2000/svg" viewBox="0 0 40 40"><g opacity="0"><rect width="40" height="40" fill="none"/></g><g><path d="m20,5.5c-7.995,0-14.5,6.505-14.5,14.5s6.505,14.5,14.5,14.5,14.5-6.505,14.5-14.5-6.505-14.5-14.5-14.5Zm.06,24.467h-.009c-.824,0-1.495-.666-1.5-1.491l-.051-8.467s0-.003,0-.005c0-.001,0-.003,0-.004v-9.672c0-.829.672-1.5,1.5-1.5s1.5.671,1.5,1.5v9.664l.051,8.467c.005.828-.662,1.504-1.491,1.509Z" fill="#e5e8eb"/><path d="m20,2.5C10.335,2.5,2.5,10.335,2.5,20s7.835,17.5,17.5,17.5,17.5-7.835,17.5-17.5S29.665,2.5,20,2.5Zm0,32c-7.995,0-14.5-6.505-14.5-14.5s6.505-14.5,14.5-14.5,14.5,6.505,14.5,14.5-6.505,14.5-14.5,14.5Z" fill="#a3adb7"/><path d="m21.5,20c0,.829-.672,1.5-1.5,1.5s-1.497-.669-1.5-1.496c0,.002,0,.003,0,.005l.051,8.467c.005.826.676,1.491,1.5,1.491h.009c.829-.005,1.496-.681,1.491-1.509l-.051-8.467v.009Z" fill="#ff2a4b"/><path d="m20,21.5c.828,0,1.5-.671,1.5-1.5v-9.672c0-.829-.672-1.5-1.5-1.5s-1.5.671-1.5,1.5v9.672s0,.003,0,.004c.002.827.673,1.496,1.5,1.496Z" fill="#313d4c"/></g></svg>