<?xml version="1.0" encoding="UTF-8"?><svg id="Layer_1" xmlns="http://www.w3.org/2000/svg" viewBox="0 0 40 40"><rect x="0" width="40" height="40" fill="none"/><g><path d="m36.465,27.727c.137,1.849-1.309,3.504-3.244,3.504H6.779c-1.935,0-3.382-1.655-3.244-3.504h-.026v7.62h.017c.059,1.702,1.443,3.153,3.254,3.153h26.441c1.811,0,3.195-1.452,3.254-3.153h.016v-7.62h-.026Z" fill="#333d4b"/><path d="m6.779,31.231h26.441c1.935,0,3.382-1.655,3.244-3.504-.014-.192-.028-.384-.078-.579l-3.712-8.041c-.756-1.637-2.394-2.686-4.198-2.686h-7.02v2.858c2.855.37,4.986,1.801,4.986,3.513,0,1.994-2.885,3.609-6.443,3.609s-6.443-1.616-6.443-3.609c0-1.712,2.13-3.143,4.986-3.513v-2.858h-7.02c-1.803,0-3.442,1.048-4.198,2.686l-3.712,8.041c-.05.194-.064.387-.078.579-.137,1.849,1.309,3.504,3.244,3.504Z" fill="#4e5968"/><path d="m18.543,21.066v-1.787c-2.855.37-4.986,1.801-4.986,3.513,0,1.994,2.884,3.609,6.443,3.609s6.443-1.616,6.443-3.609c0-1.712-2.13-3.143-4.986-3.513v1.787c0,1.648-2.914,1.648-2.914,0Z" fill="#333d4b"/><path d="m18.543,21.066c0,1.648,2.914,1.648,2.914,0v-8.116c-.466.12-.953.191-1.457.191s-.991-.071-1.457-.191v8.116Z" fill="#afb7c0"/><path d="m21.457,12.95c2.508-.648,4.363-2.919,4.363-5.629,0-3.214-2.606-5.82-5.82-5.82s-5.82,2.606-5.82,5.82c0,2.71,1.855,4.981,4.363,5.629.466.12.953.191,1.457.191s.991-.071,1.457-.191Z" fill="#ef4452"/></g></svg>