<?xml version="1.0" encoding="UTF-8"?><svg id="a" xmlns="http://www.w3.org/2000/svg" viewBox="0 0 40 40"><g opacity="0"><rect width="40" height="40" fill="none"/></g><g><path d="M20,5.5c-7.995,0-14.5,6.505-14.5,14.5s6.505,14.5,14.5,14.5,14.5-6.505,14.5-14.5-6.505-14.5-14.5-14.5Zm1.5,14.5c0,.03-.007,.059-.009,.089-.003,.054-.007,.107-.016,.161-.008,.049-.021,.096-.033,.143-.012,.046-.025,.091-.042,.136-.02,.052-.044,.102-.069,.151-.013,.026-.021,.053-.036,.078-.006,.01-.015,.018-.022,.028-.063,.102-.135,.198-.22,.282-.012,.012-.027,.021-.04,.033-.074,.068-.154,.127-.24,.179-.031,.018-.062,.034-.093,.051-.076,.039-.155,.07-.238,.096-.031,.01-.062,.021-.094,.029-.109,.026-.22,.042-.337,.043l-.012,.002-.021-.003c-.113-.002-.223-.018-.328-.043-.033-.008-.064-.02-.096-.03-.09-.028-.176-.064-.258-.108-.017-.009-.036-.012-.054-.022l-7.307-4.278c-.715-.418-.955-1.337-.537-2.052,.418-.715,1.336-.957,2.052-.537l5.049,2.956v-7.056c0-.829,.671-1.5,1.5-1.5s1.5,.671,1.5,1.5v9.672Z" fill="#e5e8eb"/><path d="M20,2.5C10.335,2.5,2.5,10.335,2.5,20s7.835,17.5,17.5,17.5,17.5-7.835,17.5-17.5S29.665,2.5,20,2.5Zm0,32c-7.995,0-14.5-6.505-14.5-14.5S12.005,5.5,20,5.5s14.5,6.505,14.5,14.5-6.505,14.5-14.5,14.5Z" fill="#a3adb7"/><path d="M18.5,20v-2.616l-5.049-2.956c-.716-.42-1.634-.178-2.052,.537-.418,.715-.178,1.634,.537,2.052l7.307,4.278c.017,.01,.036,.013,.054,.022-.471-.253-.796-.744-.796-1.317Z" fill="#ff2a4b"/><path d="M20,8.828c-.829,0-1.5,.671-1.5,1.5v9.672c0,.573,.324,1.064,.796,1.317,.082,.044,.167,.08,.258,.108,.032,.01,.063,.022,.096,.03,.106,.025,.215,.042,.328,.043l.022,.002h.011c.116-.002,.228-.019,.337-.044,.032-.008,.062-.019,.094-.029,.083-.026,.162-.057,.238-.096,.032-.016,.063-.032,.093-.051,.086-.052,.166-.112,.24-.179,.013-.012,.027-.021,.04-.033,.085-.084,.157-.18,.22-.282,.021-.034,.039-.07,.057-.106,.025-.049,.049-.099,.069-.151,.017-.044,.03-.09,.042-.136,.013-.047,.025-.094,.033-.143,.009-.053,.013-.107,.016-.161,.002-.03,.009-.058,.009-.089V10.328c0-.829-.671-1.5-1.5-1.5Z" fill="#313d4c"/></g></svg>