<?xml version="1.0" encoding="UTF-8"?><svg id="Layer_1" xmlns="http://www.w3.org/2000/svg" viewBox="0 0 40 40"><rect x="0" width="40" height="40" transform="translate(40 40) rotate(-180)" fill="none"/><path d="m28.473,14.227h-3v-4.142c0-3.014-2.452-5.466-5.466-5.466s-5.466,2.452-5.466,5.466h-3c0-4.668,3.798-8.466,8.466-8.466s8.466,3.798,8.466,8.466v4.142Z" fill="#6b7683"/><rect x="5.007" y="14.085" width="30" height="23" rx="4" ry="4" fill="#afb7c0"/><g><circle cx="20.007" cy="23.127" r="3" fill="#313d4c"/><path d="m20.007,30.877c-.829,0-1.5-.672-1.5-1.5v-5.417c0-.828.671-1.5,1.5-1.5s1.5.672,1.5,1.5v5.417c0,.828-.671,1.5-1.5,1.5Z" fill="#313d4c"/></g></svg>