<?xml version="1.0" encoding="UTF-8"?><svg id="Layer_1" xmlns="http://www.w3.org/2000/svg" viewBox="0 0 40 40"><rect width="40" height="40" style="fill:none;"/><g><path d="M33.22464,37l4.09779-7.09739c.16245-.28136,.17941-.62375,.04557-.91979l-.28276-.62543-4.99003,8.64261h1.12942Z" style="fill:#30b5b5;"/><path d="M30.9008,25.95127l-2.26125,3.91667,.62137,7.13206h2.8343l4.99003-8.64261-4.80667-2.77528c-.4824-.27853-1.09925-.11325-1.37777,.36916Z" style="fill:#88d7d7;"/><path d="M21.70251,9.59993h.00001c3.07566,0,5.57271,2.49705,5.57271,5.57271v12.45556h-11.14543V15.17264c0-3.07566,2.49705-5.57271,5.57271-5.57271Z" style="fill:#30b5b5;"/><path d="M12.02859,15.53537l1.45335,2.36525c1.88444,3.06684,5.22591,4.93551,8.82544,4.93551h2.95835c2.86038,0,5.17918,2.3188,5.17918,5.17918v8.98469H15.76354c-.81875,0-1.56069-.4822-1.89317-1.2304l-4.71919-10.61983c-.64876-1.45993-.58745-3.13755,.16614-4.54624l2.71127-5.06817Z" style="fill:#109494;"/><path d="M30.21649,13.28566l-3.36078-.39805c-.03003-.09408-.06227-.18739-.09945-.27868-.03357-.08396-.06803-.1659-.1071-.24682-.03528-.07233-.07536-.14288-.11494-.21344l2.70447-1.45361c.26105-.13985,.15047-.59328-.13574-.55661l-3.9387,.50654c-.14187-.10065-.28874-.19675-.44275-.28501l1.76359-2.82883c.16798-.26983-.12107-.60264-.35499-.40918l-3.14456,2.59996h-.00006c-.15243-.03035-.30751-.05412-.46469-.07258l-.62141-4.3583c-.04666-.32724-.45533-.32724-.50199,0l-.62622,4.39143c-.10299,.0172-.2032,.03996-.30397,.06171l-3.17149-2.62221c-.23386-.19346-.52291,.13934-.35487,.40918l1.79994,2.88724c-.12701,.07587-.25036,.15578-.36859,.2405l-4.0494-.52045c-.28614-.03667-.39678,.41676-.1358,.55661l2.77237,1.49053,.03098,.01644c-.09098,.16792-.17399,.33988-.2398,.51817-.01833,.04931-.03028,.10166-.04647,.15224l-3.49468,.41322c-.29152,.03439-.3096,.5159-.02175,.57912l3.37627,.74299c.00209,.01315,.00575,.02605,.0079,.03945,.01859,.11481,.03945,.22861,.06853,.33963,.09155,.35025,.23835,.68179,.42195,.99563,.01922,.03313,.03288,.06853,.05311,.10116-.00228-.04754-.00904-.09458-.00904-.14314,0-.32977,.05861-.64841,.15856-.95365,.52721-1.60762,2.34758-2.79873,4.5125-2.79873,1.42118,0,2.69372,.51387,3.55121,1.32084,.15761,.14819,.29885,.30726,.42656,.47467,.16147,.21066,.28665,.43902,.39394,.67471,.0495,.10824,.10368,.21546,.1408,.3285,.10008,.30524,.15863,.62388,.15863,.95365,0,.04855-.0067,.09559-.00904,.14314,.21274-.34191,.3739-.70961,.47499-1.09678,.00784-.02959,.01119-.06069,.01821-.09079,.0244-.1047,.04786-.2099,.0636-.31763l3.24192-.71366c.28792-.06322,.26983-.54472-.02175-.57912Zm-12.08131-1.59548l.00202,.00278,.00164-.00708h0l-.00164,.00708-.00202-.00278h0Zm-.22374,.92836l-.01524,.044,.01536-.04451-.00013,.00051Zm-.02289,.06626l.00196,.00101-.00196-.00101h0Zm8.50974,1.12258l.00006,.00025-.02567-.02251-.00025-.00025,.02586,.02251Zm-.01922-.01315l.00335,.0048c.00993,.01467,.01916,.03035,.02858,.04577-.00942-.01543-.01865-.03111-.02858-.04577l-.00335-.0048Z" style="fill:#109494;"/><path d="M8.57383,11.4784h1.32285v-1.60829c0-.6638-.40306-1.23271-.97726-1.47833h-3.9016c-.5742,.24561-.97717,.81453-.97717,1.47833,0,.85857,.67749,1.54564,1.52442,1.59147h3.01403l-.00528,.01683Z" style="fill:#88d7d7;"/><polygon points="12.0286 15.53544 9.89668 11.4784 8.57293 11.48126 7.53123 14.79846 9.83322 19.63917 12.0286 15.53544" style="fill:#88d7d7;"/><path d="M9.46043,1.77996c.08718,.58215,.18859,.91521-.22779,.91521-.5666,0-.56692-1.34057-1.52581-2.10455C6.75811-.16527,6.05065,.01833,6.03561,.02263l-.00076,.00076c.78996,.65954,.34943,1.74368-.16786,2.04259-.49604,.28678-1.06258-.07486-.76594-.92583-.65195,.89194-1.21507,1.97229-1.21507,3.04859,0,.83656,.32939,1.59118,.85704,2.15892h4.64767c.52753-.56774,.85704-1.32236,.85704-2.15892,0-.82998-.33533-1.66225-.78731-2.40878Z" style="fill:#109494;"/><path d="M10.37279,6.34766H3.56456c-.56445,0-1.02212,.45773-1.02212,1.02218,0,.5642,.45767,1.02193,1.02212,1.02193h6.80824c.56445,0,1.02199-.45773,1.02199-1.02193,0-.56445-.45754-1.02218-1.02199-1.02218Z" style="fill:#30b5b5;"/><path d="M5.47754,11.46161l1.34614,4.07859c.07606,.23067,.40297,.22806,.47569-.00309l.23187-.73868,1.069-3.33538,.00089-.00286-3.12359,.00143Z" style="fill:#30b5b5;"/><circle cx="21.67727" cy="16.42981" r="4.7266" style="fill:#88d7d7;"/><path d="M20.01925,20.48173h3.31603v2.18764c0,.91508-.74293,1.65801-1.65801,1.65801h0c-.91508,0-1.65801-.74293-1.65801-1.65801v-2.18764h0Z" style="fill:#88d7d7;"/></g><g><circle cx="19.88574" cy="16.59091" r=".86895" style="fill:#076565;"/><circle cx="23.65011" cy="16.59091" r=".86895" style="fill:#076565;"/></g></svg>