<?xml version="1.0" encoding="UTF-8"?><svg id="Layer_1" xmlns="http://www.w3.org/2000/svg" viewBox="0 0 40 40"><rect x="0" width="40" height="40" fill="none"/><g><g><path d="m26.947,17.771H10.08v-6.673c0-4.65,3.784-8.433,8.434-8.433s8.434,3.782,8.434,8.433v6.673Zm-13.951-2.916h11.034v-3.757c0-3.042-2.475-5.517-5.517-5.517s-5.517,2.475-5.517,5.517v3.757Z" fill="#6b7683"/><rect x="3.493" y="13.101" width="30.041" height="23.031" rx="4" ry="4" fill="#afb7c0"/></g><path d="m36.015,4.628c-3.983-3.983-10.488-3.936-14.53.105-2.91,2.91-3.737,7.094-2.492,10.698l-9.637,9.638c-1.717,1.717-1.717,4.501,0,6.218h0c1.717,1.717,4.501,1.717,6.218,0l1.144-1.144h0l-1.852-1.852c-.503-.502-.503-1.318,0-1.821.503-.502,1.318-.502,1.821,0l1.852,1.852h0l1.821-1.82h0s-1.852-1.852-1.852-1.852c-.503-.503-.503-1.318,0-1.821.503-.503,1.318-.503,1.821,0l1.852,1.852s0,0,0,0l3.032-3.032c3.604,1.246,7.788.418,10.698-2.492,4.041-4.041,4.089-10.546.105-14.53Zm-2.342,6.993c-1.303,1.303-3.4,1.318-4.685.034-1.284-1.284-1.269-3.382.034-4.685,1.303-1.303,3.4-1.318,4.685-.034s1.269,3.382-.034,4.685Z" fill="#ffc522"/></g></svg>