<?xml version="1.0" encoding="UTF-8"?><svg id="Layer_1" xmlns="http://www.w3.org/2000/svg" viewBox="0 0 40 40"><g opacity="0"><rect width="40" height="40" fill="none"/></g><g><path d="m28.5,3.5H11.5C7.082,3.5,3.5,7.082,3.5,11.5v17c0,4.418,3.582,8,8,8h17c4.418,0,8-3.582,8-8V11.5c0-4.418-3.582-8-8-8Zm2.388,7.142c.339,0,.614.275.614.614s-.275.614-.614.614-.614-.275-.614-.614.275-.614.614-.614Zm-2.717,0c.339,0,.614.275.614.614s-.275.614-.614.614-.614-.275-.614-.614.275-.614.614-.614Zm-2.717,0c.339,0,.614.275.614.614s-.275.614-.614.614-.614-.275-.614-.614.275-.614.614-.614Zm-2.717,0c.339,0,.614.275.614.614s-.275.614-.614.614-.614-.275-.614-.614.275-.614.614-.614Zm-2.717-.019c.339,0,.614.275.614.614s-.275.614-.614.614-.614-.275-.614-.614.275-.614.614-.614Zm-2.717.019c.339,0,.614.275.614.614s-.275.614-.614.614-.614-.275-.614-.614.275-.614.614-.614Zm-2.717,0c.339,0,.614.275.614.614s-.275.614-.614.614-.614-.275-.614-.614.275-.614.614-.614Zm-2.717,0c.339,0,.614.275.614.614s-.275.614-.614.614-.614-.275-.614-.614.275-.614.614-.614Zm-2.717,0c.339,0,.614.275.614.614s-.275.614-.614.614-.614-.275-.614-.614.275-.614.614-.614Zm11.508,14.095v1.705l3.89,2.006c.458.237.29.929-.226.929h-8.643c-.516,0-.684-.693-.226-.929l3.89-2.006v-1.705c-6.036-.336-10.845-5.235-10.845-11.225h1.228c0,5.314,4.258,9.664,9.617,9.998v-1.951c-4.434-.318-7.941-3.802-7.941-8.047h1.227c0,3.571,2.956,6.509,6.713,6.819v-1.165c-2.943-.322-5.24-2.772-5.24-5.74h1.228c0,2.29,1.75,4.171,4.012,4.486v-1.355c-1.481-.299-2.598-1.589-2.598-3.131h1.228c0,.861.576,1.587,1.37,1.853v-1.853h1.315v1.853c.795-.267,1.37-.993,1.37-1.853h1.228c0,1.541-1.117,2.831-2.598,3.131v1.355c2.262-.315,4.012-2.196,4.012-4.486h1.228c0,2.968-2.297,5.418-5.24,5.74v1.165c3.757-.311,6.713-3.248,6.713-6.819h1.227c0,4.245-3.507,7.729-7.94,8.047v1.951c5.359-.333,9.617-4.684,9.617-9.998h1.228c0,5.99-4.809,10.889-10.845,11.225Z" fill="#786de7"/><g><path d="m20.019,11.85c.339,0,.614-.275.614-.614s-.275-.614-.614-.614-.614.275-.614.614.275.614.614.614Z" fill="#fff"/><path d="m17.302,11.869c.339,0,.614-.275.614-.614s-.275-.614-.614-.614-.614.275-.614.614.275.614.614.614Z" fill="#fff"/><path d="m14.584,11.869c.339,0,.614-.275.614-.614s-.275-.614-.614-.614-.614.275-.614.614.275.614.614.614Z" fill="#fff"/><path d="m11.867,11.869c.339,0,.614-.275.614-.614s-.275-.614-.614-.614-.614.275-.614.614.275.614.614.614Z" fill="#fff"/><path d="m9.15,11.869c.339,0,.614-.275.614-.614s-.275-.614-.614-.614-.614.275-.614.614.275.614.614.614Z" fill="#fff"/><path d="m30.888,11.869c.339,0,.614-.275.614-.614s-.275-.614-.614-.614-.614.275-.614.614.275.614.614.614Z" fill="#fff"/><path d="m28.171,11.869c.339,0,.614-.275.614-.614s-.275-.614-.614-.614-.614.275-.614.614.275.614.614.614Z" fill="#fff"/><path d="m25.453,11.869c.339,0,.614-.275.614-.614s-.275-.614-.614-.614-.614.275-.614.614.275.614.614.614Z" fill="#fff"/><path d="m22.736,11.869c.339,0,.614-.275.614-.614s-.275-.614-.614-.614-.614.275-.614.614.275.614.614.614Z" fill="#fff"/><path d="m20.66,24.74v1.7l3.89,2.01c.46.23.29.93-.23.93h-8.64c-.52,0-.69-.7-.23-.93l3.89-2.01v-1.7c-6.03-.34-10.84-5.24-10.84-11.23h1.23c0,5.32,4.25,9.67,9.61,10v-1.95c-4.43-.32-7.94-3.8-7.94-8.05h1.23c0,3.57,2.96,6.51,6.71,6.82v-1.16c-2.94-.33-5.24-2.78-5.24-5.74h1.23c0,2.29,1.75,4.17,4.01,4.48v-1.35c-1.48-.3-2.6-1.59-2.6-3.13h1.23c0,.86.58,1.58,1.37,1.85v-1.85h1.32v1.85c.79-.27,1.37-.99,1.37-1.85h1.23c0,1.54-1.12,2.83-2.6,3.13v1.35c2.26-.31,4.01-2.19,4.01-4.48h1.23c0,2.96-2.3,5.41-5.24,5.74v1.16c3.75-.31,6.71-3.25,6.71-6.82h1.23c0,4.25-3.51,7.73-7.94,8.05v1.95c5.36-.33,9.61-4.68,9.61-10h1.23c0,5.99-4.81,10.89-10.84,11.23Z" fill="#fff"/></g></g></svg>