<?xml version="1.0" encoding="UTF-8"?><svg id="Layer_1" xmlns="http://www.w3.org/2000/svg" viewBox="0 0 40 40"><g style="opacity:0;"><rect y="0" width="40" height="40" style="fill:none;"/></g><g><path d="M20,14.94141c-.41406,0-.75-.33594-.75-.75V2.5127c0-.41406,.33594-.75,.75-.75s.75,.33594,.75,.75V14.19141c0,.41406-.33594,.75-.75,.75Z" style="fill:#afb7c0;"/><path d="M15.89258,16.64258c-.19238,0-.38379-.07324-.53027-.21973L7.10449,8.16504c-.29297-.29297-.29297-.76758,0-1.06055s.76758-.29297,1.06055,0l8.25781,8.25781c.29297,.29297,.29297,.76758,0,1.06055-.14648,.14648-.33789,.21973-.53027,.21973Z" style="fill:#afb7c0;"/><path d="M14.19141,20.75H2.5127c-.41406,0-.75-.33594-.75-.75s.33594-.75,.75-.75H14.19141c.41406,0,.75,.33594,.75,.75s-.33594,.75-.75,.75Z" style="fill:#afb7c0;"/><path d="M7.63477,33.11523c-.19238,0-.38379-.07324-.53027-.21973-.29297-.29297-.29297-.76758,0-1.06055l8.25781-8.25781c.29297-.29297,.76758-.29297,1.06055,0s.29297,.76758,0,1.06055l-8.25781,8.25781c-.14648,.14648-.33789,.21973-.53027,.21973Z" style="fill:#afb7c0;"/><path d="M20,38.2373c-.41406,0-.75-.33594-.75-.75v-11.67871c0-.41406,.33594-.75,.75-.75s.75,.33594,.75,.75v11.67871c0,.41406-.33594,.75-.75,.75Z" style="fill:#afb7c0;"/><path d="M32.36523,33.11523c-.19238,0-.38379-.07324-.53027-.21973l-8.25781-8.25781c-.29297-.29297-.29297-.76758,0-1.06055s.76758-.29297,1.06055,0l8.25781,8.25781c.29297,.29297,.29297,.76758,0,1.06055-.14648,.14648-.33789,.21973-.53027,.21973Z" style="fill:#afb7c0;"/><path d="M37.4873,20.75h-11.67871c-.41406,0-.75-.33594-.75-.75s.33594-.75,.75-.75h11.67871c.41406,0,.75,.33594,.75,.75s-.33594,.75-.75,.75Z" style="fill:#afb7c0;"/><path d="M24.10449,16.64551c-.19238,0-.38379-.07324-.53027-.21973-.29297-.29297-.29297-.76758,0-1.06055L31.83496,7.10449c.29297-.29297,.76758-.29297,1.06055,0s.29297,.76758,0,1.06055l-8.26074,8.26074c-.14648,.14648-.33789,.21973-.53027,.21973Z" style="fill:#afb7c0;"/><g><path d="M28.77832,9.09766c-4.01074,0-7.82129-2.37988-9.44141-6.31152-.1582-.38379,.02441-.82129,.40723-.97949s.82227,.02441,.97949,.40723c1.82812,4.43457,6.9209,6.55469,11.35547,4.72754,.38281-.15918,.82227,.02441,.97949,.40723,.1582,.38379-.02441,.82129-.40723,.97949-1.26758,.52246-2.58105,.76953-3.87305,.76953Z" style="fill:#afb7c0;"/><path d="M11.27734,9.08496c-1.32812,0-2.65527-.2627-3.91797-.78809-.38281-.15918-.56348-.59863-.4043-.98047,.15918-.38379,.60156-.5625,.98047-.4043,2.14648,.89355,4.50977,.89648,6.65625,.01172,2.14844-.88574,3.82324-2.55469,4.71582-4.69922,.15918-.38281,.60059-.56348,.98047-.4043,.38281,.15918,.56348,.59766,.4043,.98047-1.04688,2.51465-3.00977,4.47168-5.52832,5.50977-1.25391,.5166-2.57031,.77441-3.88672,.77441Z" style="fill:#afb7c0;"/><path d="M2.5,20.71973c-.29492,0-.57422-.1748-.69336-.46387-.1582-.38379,.02441-.82129,.40723-.97949,4.43457-1.82715,6.55469-6.92188,4.72754-11.35547-.1582-.38379,.02441-.82129,.40723-.97949,.38184-.15918,.82129,.02441,.97949,.40723,2.14258,5.19922-.34375,11.17188-5.54199,13.31445-.09375,.03906-.19043,.05664-.28613,.05664Z" style="fill:#afb7c0;"/><path d="M7.60449,33.10254c-.09668,0-.19434-.01855-.28809-.05762-.38281-.15918-.56348-.59863-.4043-.98047,.89258-2.14453,.89648-4.50879,.01172-6.65625-.88574-2.14844-2.55469-3.82324-4.69922-4.71582-.38281-.15918-.56348-.59766-.4043-.98047s.60059-.5625,.98047-.4043c2.51465,1.04688,4.47168,3.00977,5.50977,5.52832s1.0332,5.29004-.01367,7.80469c-.12012,.28809-.39844,.46191-.69238,.46191Z" style="fill:#afb7c0;"/><path d="M19.96973,38.25c-.29492,0-.57422-.1748-.69336-.46387-1.82715-4.43457-6.92188-6.55371-11.35547-4.72754-.38379,.16016-.82129-.02441-.97949-.40723-.1582-.38379,.02441-.82129,.40723-.97949,5.20215-2.14551,11.17188,.34375,13.31445,5.54199,.1582,.38379-.02441,.82129-.40723,.97949-.09375,.03906-.19043,.05664-.28613,.05664Z" style="fill:#afb7c0;"/><path d="M20,38.2373c-.09668,0-.19434-.01855-.28809-.05762-.38281-.15918-.56348-.59766-.4043-.98047,1.04688-2.51465,3.00977-4.47168,5.52832-5.50977,2.51855-1.03906,5.29004-1.0332,7.80469,.01367,.38281,.15918,.56348,.59863,.4043,.98047s-.60254,.56152-.98047,.4043c-2.14551-.89258-4.50879-.89551-6.65625-.01172-2.14844,.88574-3.82324,2.55469-4.71582,4.69922-.12012,.28809-.39844,.46191-.69238,.46191Z" style="fill:#afb7c0;"/><path d="M32.36523,33.11523c-.29492,0-.57422-.1748-.69336-.46387-2.14258-5.19922,.34375-11.17188,5.54199-13.31445,.38184-.1582,.82129,.02441,.97949,.40723,.1582,.38379-.02441,.82129-.40723,.97949-4.43457,1.82715-6.55469,6.92188-4.72754,11.35547,.1582,.38379-.02441,.82129-.40723,.97949-.09375,.03906-.19043,.05664-.28613,.05664Z" style="fill:#afb7c0;"/><path d="M37.4873,20.75c-.09668,0-.19434-.01855-.28809-.05762-2.51465-1.04688-4.47168-3.00977-5.50977-5.52832s-1.0332-5.29004,.01367-7.80469c.16016-.38281,.60059-.5625,.98047-.4043,.38281,.15918,.56348,.59863,.4043,.98047-.89258,2.14453-.89648,4.50879-.01172,6.65625,.88574,2.14844,2.55469,3.82324,4.69922,4.71582,.38281,.15918,.56348,.59766,.4043,.98047-.12012,.28809-.39844,.46191-.69238,.46191Z" style="fill:#afb7c0;"/></g><g><path d="M25.81836,13.01855c-.91504,0-1.8291-.18066-2.69824-.54297-1.73145-.7207-3.0791-2.07227-3.79297-3.80566-.1582-.38379,.02441-.82227,.40723-.97949,.38281-.15918,.82227,.02441,.97949,.40723,1.16016,2.81543,4.39844,4.15918,7.20801,3.00098,.38281-.15918,.82227,.02441,.97949,.40723,.1582,.38379-.02441,.82227-.40723,.97949-.86328,.35547-1.76953,.5332-2.67578,.5332Z" style="fill:#afb7c0;"/><path d="M14.21094,13.00684c-.91504,0-1.8291-.18066-2.69824-.54297-.38281-.15918-.56348-.59863-.4043-.98047,.15918-.38379,.60059-.56348,.98047-.4043,1.36035,.56641,2.86133,.56836,4.22559,.00781,1.36328-.5625,2.42676-1.62207,2.99316-2.9834,.15918-.38281,.60059-.5625,.98047-.4043,.38281,.15918,.56348,.59766,.4043,.98047-.7207,1.73145-2.07227,3.0791-3.80664,3.79395-.8623,.35547-1.76855,.5332-2.6748,.5332Z" style="fill:#afb7c0;"/><path d="M8.38379,20.72949c-.29492,0-.57422-.1748-.69336-.46387-.1582-.38379,.02441-.82227,.40723-.97949,2.81445-1.15918,4.16113-4.39355,3.00098-7.20801-.1582-.38379,.02441-.82227,.40723-.97949,.38184-.15918,.82129,.02441,.97949,.40723,.71484,1.73438,.71094,3.64258-.00977,5.37402s-2.07227,3.0791-3.80566,3.79297c-.09375,.03906-.19043,.05664-.28613,.05664Z" style="fill:#afb7c0;"/><path d="M11.77148,28.94922c-.09668,0-.19434-.01855-.28809-.05762-.38281-.15918-.56348-.59863-.4043-.98047,.56641-1.36133,.56934-2.8623,.00781-4.22559-.5625-1.36328-1.62207-2.42676-2.9834-2.99316-.38281-.15918-.56348-.59766-.4043-.98047s.60059-.5625,.98047-.4043c1.73145,.7207,3.0791,2.07227,3.79395,3.80664,.71484,1.7334,.71094,3.6416-.00977,5.37305-.12012,.28809-.39844,.46191-.69238,.46191Z" style="fill:#afb7c0;"/><path d="M19.97949,32.36621c-.29492,0-.57422-.1748-.69336-.46387-1.15918-2.81543-4.39551-4.15723-7.20801-3.00098-.38379,.16016-.82129-.02441-.97949-.40723-.1582-.38379,.02441-.82227,.40723-.97949,1.73438-.71484,3.64355-.71094,5.37402,.00977,1.73145,.7207,3.0791,2.07227,3.79297,3.80566,.1582,.38379-.02441,.82227-.40723,.97949-.09375,.03906-.19043,.05664-.28613,.05664Z" style="fill:#afb7c0;"/><path d="M20,32.3584c-.09668,0-.19434-.01855-.28809-.05762-.38281-.15918-.56348-.59766-.4043-.98047,.7207-1.73145,2.07227-3.0791,3.80664-3.79395,1.7334-.71484,3.64355-.71094,5.37305,.00977,.38281,.15918,.56348,.59863,.4043,.98047-.16016,.38184-.60254,.56152-.98047,.4043-1.36133-.56543-2.8623-.56934-4.22559-.00781-1.36328,.5625-2.42676,1.62207-2.99316,2.9834-.12012,.28809-.39844,.46191-.69238,.46191Z" style="fill:#afb7c0;"/><path d="M28.20801,28.95801c-.29492,0-.57422-.1748-.69336-.46387-.71484-1.73438-.71094-3.64258,.00977-5.37402s2.07227-3.0791,3.80566-3.79297c.38184-.15918,.82129,.02441,.97949,.40723,.1582,.38379-.02441,.82227-.40723,.97949-2.81445,1.15918-4.16113,4.39355-3.00098,7.20801,.1582,.38379-.02441,.82227-.40723,.97949-.09375,.03906-.19043,.05664-.28613,.05664Z" style="fill:#afb7c0;"/><path d="M31.6084,20.75c-.09668,0-.19434-.01855-.28809-.05762-1.73145-.7207-3.0791-2.07227-3.79395-3.80664-.71484-1.7334-.71094-3.6416,.00977-5.37305,.15918-.38281,.60156-.5625,.98047-.4043,.38281,.15918,.56348,.59863,.4043,.98047-.56641,1.36133-.56934,2.8623-.00781,4.22559,.5625,1.36328,1.62207,2.42676,2.9834,2.99316,.38281,.15918,.56348,.59766,.4043,.98047-.12012,.28809-.39844,.46191-.69238,.46191Z" style="fill:#afb7c0;"/></g><g><path d="M22.90918,16.88477c-.50586,0-1.01172-.10059-1.49316-.30078-.95801-.39844-1.7041-1.14648-2.09961-2.10645-.1582-.38281,.02441-.82129,.40723-.97949,.38379-.15918,.82129,.02441,.97949,.40723,.24316,.58984,.70117,1.04883,1.28906,1.29395,.58984,.24609,1.23828,.24707,1.82617,.00293,.38281-.15918,.82129,.02441,.97949,.40723s-.02441,.82129-.40723,.97949c-.47852,.19727-.98047,.2959-1.48145,.2959Z" style="fill:#afb7c0;"/><path d="M17.10547,16.87891c-.50586,0-1.01172-.10059-1.49316-.30078-.38281-.15918-.56348-.59863-.4043-.98047,.15918-.38281,.60254-.56152,.98047-.4043,.58984,.24609,1.23828,.24609,1.82617,.00391,.58887-.24316,1.04784-.70117,1.29297-1.28906,.15918-.38281,.60059-.56348,.98047-.4043,.38281,.15918,.56348,.59766,.4043,.98047-.39844,.95801-1.14648,1.7041-2.10645,2.09961-.47754,.19629-.97852,.29492-1.48047,.29492Z" style="fill:#afb7c0;"/><path d="M14.19141,20.74023c-.29492,0-.57422-.1748-.69336-.46387-.1582-.38281,.02441-.82129,.40723-.97949,.58984-.24316,1.04883-.70117,1.29395-1.28906,.24512-.58887,.24609-1.2373,.00293-1.82617-.1582-.38281,.02441-.82129,.40723-.97949,.38184-.15918,.82129,.02441,.97949,.40723,.39551,.95996,.39355,2.0166-.00488,2.97461s-1.1465,1.7041-2.10645,2.09961c-.09375,.03906-.19043,.05664-.28613,.05664Z" style="fill:#afb7c0;"/><path d="M15.88574,24.84961c-.09668,0-.19434-.01855-.28809-.05762-.38281-.15918-.56348-.59863-.4043-.98047,.24512-.58887,.24609-1.2373,.00391-1.82617-.24316-.58887-.70117-1.04785-1.28906-1.29297-.38281-.15918-.56348-.59766-.4043-.98047s.60059-.5625,.98047-.4043c.95801,.39844,1.7041,1.14648,2.09961,2.10645s.39355,2.01562-.00586,2.97363c-.12012,.28809-.39941,.46191-.69238,.46191Z" style="fill:#afb7c0;"/><path d="M19.99023,26.55859c-.29492,0-.57422-.1748-.69336-.46387-.24316-.58984-.70117-1.04883-1.28906-1.29395-.58789-.24414-1.23633-.24609-1.82617-.00293-.38379,.16016-.82129-.02441-.97949-.40723s.02441-.82129,.40723-.97949c.96191-.39648,2.0166-.39355,2.97461,.00488s1.7041,1.14648,2.09961,2.10645c.1582,.38281-.02441,.82129-.40723,.97949-.09375,.03906-.19043,.05664-.28613,.05664Z" style="fill:#afb7c0;"/><path d="M20,26.55371c-.09668,0-.19434-.01855-.28809-.05762-.38281-.15918-.56348-.59766-.4043-.98047,.39844-.95801,1.14648-1.7041,2.10645-2.09961,.95898-.39355,2.01465-.39355,2.97363,.00586,.38281,.15918,.56348,.59863,.4043,.98047-.16016,.38281-.60451,.5625-.98047,.4043-.58789-.24414-1.23633-.24512-1.82617-.00391-.58887,.24316-1.04787,.70117-1.29297,1.28906-.12012,.28809-.39844,.46191-.69238,.46191Z" style="fill:#afb7c0;"/><path d="M24.10449,24.85449c-.29492,0-.57422-.1748-.69336-.46387-.39551-.95996-.39355-2.0166,.00488-2.97461s1.14647-1.7041,2.10645-2.09961c.38184-.16016,.82129,.02441,.97949,.40723s-.02441,.82129-.40723,.97949c-.58984,.24316-1.04883,.70117-1.29395,1.28906-.24512,.58887-.24609,1.2373-.00293,1.82617,.1582,.38281-.02441,.82129-.40723,.97949-.09375,.03906-.19043,.05664-.28613,.05664Z" style="fill:#afb7c0;"/><path d="M25.80371,20.75c-.09668,0-.19434-.01855-.28809-.05762-.95801-.39844-1.7041-1.14648-2.09961-2.10645s-.39355-2.01562,.00586-2.97363c.15918-.38281,.60254-.5625,.98047-.4043,.38281,.15918,.56348,.59863,.4043,.98047-.24512,.58887-.24609,1.2373-.00391,1.82617,.24316,.58887,.70117,1.04785,1.28906,1.29297,.38281,.15918,.56348,.59766,.4043,.98047-.12012,.28809-.39844,.46191-.69238,.46191Z" style="fill:#afb7c0;"/></g></g></svg>