<?xml version="1.0" encoding="UTF-8"?><svg id="Layer_1" xmlns="http://www.w3.org/2000/svg" viewBox="0 0 40 40"><g><g><path d="m26.321,28.604h-12.641c.13.445.221.906.221,1.394,0,.506-.098.985-.237,1.445h12.673c-.14-.46-.237-.939-.237-1.445,0-.487.091-.948.221-1.394Z" fill="#a41926"/><path d="m36.099,29.998c0,.506-.098.985-.237,1.445h1.619c1.049,0,1.9-.851,1.9-1.9v-.938h-3.503c.13.445.221.906.221,1.394Z" fill="#a41926"/><path d="m4.122,28.604H.619v1.033c0,.997.808,1.805,1.805,1.805h1.714c-.14-.46-.237-.939-.237-1.445,0-.487.091-.948.221-1.394Z" fill="#a41926"/></g><g><path d="m22.843,8.975c-.516,0-.935.418-.935.935v7.085c0,.516.419.935.935.935h10.781s-3.596-8.955-3.596-8.955h-7.185Z" fill="#313d4c"/><g><path d="m35.878,28.604c-.607-2.078-2.504-3.606-4.779-3.606s-4.172,1.528-4.779,3.606c-.13.445-.221.906-.221,1.394,0,.506.098.985.237,1.445.623,2.052,2.507,3.555,4.763,3.555s4.14-1.503,4.763-3.555c.14-.46.237-.939.237-1.445,0-.487-.091-.948-.221-1.394Zm-6.779,1.394c0-1.104.895-2,2-2s2,.896,2,2-.895,2-2,2-2-.895-2-2Z" fill="#313d4c"/><path d="m13.679,28.604c-.606-2.078-2.504-3.606-4.779-3.606s-4.172,1.528-4.779,3.606c-.13.445-.221.906-.221,1.394,0,.506.098.985.237,1.445.623,2.052,2.507,3.555,4.763,3.555s4.14-1.503,4.763-3.555c.14-.46.237-.939.237-1.445,0-.487-.091-.948-.221-1.394Zm-6.779,1.394c0-1.104.895-2,2-2s2,.896,2,2-.895,2-2,2-2-.895-2-2Z" fill="#313d4c"/></g></g><g><circle cx="31.099" cy="29.998" r="2" fill="#6b7683"/><circle cx="8.901" cy="29.998" r="2" fill="#6b7683"/></g><path d="m2.361,23.083H.619v2.375h1.742c.656,0,1.188-.532,1.188-1.188s-.532-1.188-1.188-1.188Z" fill="#e32939"/><path d="m39.38,22.98v5.62h-3.5c-.61-2.07-2.51-3.6-4.78-3.6s-4.17,1.53-4.78,3.6h-12.64c-.61-2.07-2.5-3.6-4.78-3.6s-4.17,1.53-4.78,3.6H.62v-3.14h1.74c.66,0,1.19-.53,1.19-1.19s-.53-1.19-1.19-1.19H.62v-4.15c0-.55.45-1,1-1h17.68V5.94c0-.52.42-.94.94-.94h6.3c1.14,0,2.17.7,2.6,1.76l.89,2.21h-7.19c-.51,0-.93.42-.93.94v7.08c0,.52.42.94.93.94h10.83l2.79.96c1.75.6,2.92,2.24,2.92,4.09Z" fill="#ef4452"/></g><g><path d="m39.381,26.458h-.792c-.656,0-1.188-.532-1.188-1.188s.532-1.188,1.188-1.188h.792v2.375Z" fill="#fff"/><polygon points="39.689 39.803 0 40 0 0 39.689 -.197 39.689 39.803" fill="none"/></g></svg>