<?xml version="1.0" encoding="UTF-8"?><svg id="Layer_1" xmlns="http://www.w3.org/2000/svg" viewBox="0 0 40 40"><g><path d="m36.708,25.847h-5.723c-.627-1.141-3.746-7.017-4.373-12.207l-1.056-8.744c-.285-1.381-1.638-2.269-3.021-1.983-1.23.254-2.064,1.351-2.035,2.562h-.002s-.994,0-.994,0h-.004c.03-1.211-.805-2.309-2.035-2.563-1.383-.286-2.736.602-3.021,1.983l-1.056,8.744c-.627,5.19-3.745,11.066-4.373,12.207H3.292c-.764,0-.764,9.294,0,9.294h9.35c3.556,0,6.48-2.704,6.829-6.167h1.058c.349,3.463,3.273,6.167,6.829,6.167h9.35c.764,0,.764-9.294,0-9.294Z" fill="#956759"/><g><rect x="1.908" y="25.005" width="7.087" height="10.882" rx="1" ry="1" fill="#2f81f9"/><rect x="31.005" y="25.005" width="7.087" height="10.882" rx="1" ry="1" transform="translate(69.097 60.891) rotate(-180)" fill="#2f81f9"/></g><path d="m22.942,6.71c-1.294,0-2.347,1.032-2.433,2.342l.007-3.577h-1.012s-.005,3.655-.005,3.655c-.048-1.347-1.121-2.419-2.441-2.419-1.36,0-2.45,1.12-2.45,2.51v.935c.008-.012.015-.027.023-.04.131-1.256,1.16-2.238,2.423-2.238,1.331,0,2.409,1.087,2.443,2.44l-.027,18.658h1.074s-.039-8.148-.039-17.804c0-.009,0-.017-.002-.025l.002-.856c.049-1.339,1.118-2.411,2.44-2.411,1.264,0,2.292.982,2.423,2.238.008.012.015.027.023.04v-.935c0-1.39-1.09-2.51-2.45-2.51Z" fill="#5e403b"/></g><rect width="40" height="40" fill="none"/></svg>