<svg id="Layer_1" data-name="Layer 1" xmlns="http://www.w3.org/2000/svg" viewBox="0 0 40 40"><defs><style>.cls-1{fill:#ffc84d;}.cls-2{fill:#f80;}.cls-3{fill:#e5e8eb;}.cls-4{fill:none;}</style></defs><circle class="cls-1" cx="20" cy="20" r="17.5"/><path d="M12.287,17.892a.334.334,0,0,0-.476.362,3.19,3.19,0,0,0,6.279,0,.334.334,0,0,0-.476-.362,6.2,6.2,0,0,1-5.327,0Z"/><path d="M27.9,17.892a.334.334,0,0,1,.476.362,3.19,3.19,0,0,1-6.279,0,.334.334,0,0,1,.476-.362,6.2,6.2,0,0,0,5.327,0Z"/><path d="M26.047,11.7a5.834,5.834,0,0,1-2.122-1.607c-.257-.292-.621-.158-.618.258a3.256,3.256,0,0,0,2.056,2.817,3.254,3.254,0,0,0,3.478-.236c.321-.265.19-.631-.2-.64A5.822,5.822,0,0,1,26.047,11.7Z"/><path d="M13.953,11.7a5.834,5.834,0,0,0,2.122-1.607c.257-.292.621-.158.618.258a3.256,3.256,0,0,1-2.056,2.817,3.254,3.254,0,0,1-3.478-.236c-.321-.265-.19-.631.2-.64A5.822,5.822,0,0,0,13.953,11.7Z"/><circle class="cls-2" cx="20" cy="27.429" r="2.487"/><polyline class="cls-3" points="30.705 28.978 24.134 26.922 29.2 31.585"/><circle class="cls-3" cx="34.076" cy="32.662" r="4.095"/><circle class="cls-3" cx="32.753" cy="28.418" r="3.735"/><circle class="cls-3" cx="29.739" cy="33.639" r="3.735"/><rect class="cls-4" width="40" height="40"/></svg>