<?xml version="1.0" encoding="UTF-8"?><svg id="Layer_1" xmlns="http://www.w3.org/2000/svg" viewBox="0 0 40 40"><g><circle cx="20" cy="20" r="17.5" style="fill:#ffc84d;"/><path d="M12.19397,17.19757c-.24689,.12185-.53069-.09194-.47587-.36174,.3046-1.4992,1.59451-2.62508,3.13954-2.62508s2.83493,1.12588,3.13954,2.62508c.05482,.26981-.22899,.48359-.47587,.36174-.5388-.26593-1.45741-.60129-2.66367-.60129s-2.12486,.33536-2.66367,.60129Z"/><path d="M27.80603,17.19757c.24689,.12185,.53069-.09194,.47587-.36174-.3046-1.4992-1.59451-2.62508-3.13954-2.62508s-2.83493,1.12588-3.13954,2.62508c-.05482,.26981,.22899,.48359,.47587,.36174,.5388-.26593,1.45741-.60129,2.66367-.60129s2.12486,.33536,2.66367,.60129Z"/><path d="M20.69614,24.18824c.46422-.29853,1.28194-.71296,1.28194-1.54908,0-.45866-.43437-1.1031-1.53633-1.43564-.36009-.10866-.61114-.18013-.60795-.38918s.21674-.2415,.56026-.2415c.33399,0,2.87473,.44995,2.97172,2.04757,.07112,1.1714-.7248,1.65196-1.36547,2.13551,.64067,.48357,1.52477,1.35351,1.4559,2.32918-.1247,1.76663-2.15072,2.18616-2.93028,2.18616-.46088,0-.74107-.03984-.77184-.23755s.16789-.289,.68692-.49504c.8654-.34355,1.4751-.88547,1.4751-1.60396,0-.93036-.83601-1.48225-1.22156-1.727s-.63198-.33493-.62415-.51134c.00917-.20682,.24812-.26527,.62576-.50812Z" style="fill:#f80;"/></g><rect width="40" height="40" style="fill:none;"/></svg>