<?xml version="1.0" encoding="UTF-8"?><svg id="Layer_1" xmlns="http://www.w3.org/2000/svg" viewBox="0 0 40 40"><g><g><path id="SVGID" d="m26.562,4.839c-.604-.536-1.547-.363-1.924.351l-1.594,3.015c-.282.534-.837.868-1.441.868h-3.205c-.604,0-1.159-.334-1.441-.868l-1.594-3.015c-.377-.714-1.321-.887-1.924-.351C8.294,9.411,2,15.983,2,20.782c0,8.114,8.059,14.692,18,14.692s18-6.578,18-14.692c0-4.799-6.294-11.371-11.438-15.943Z" fill="#ffb72d"/><path d="m37.694,18.833l-3.383,1.725c-.783.399-.783,1.518,0,1.918l3.208,1.635c.304-1.071.481-2.181.481-3.328,0-.622-.11-1.276-.306-1.95Z"/><path d="m2.306,18.833l3.383,1.725c.783.399.783,1.518,0,1.918l-3.208,1.635c-.304-1.071-.481-2.181-.481-3.328,0-.622.11-1.276.306-1.95Z"/></g><g><path id="SVGID-2" d="m12.134,22.92c-.977,0-1.429.732-1.236,1.521.856,3.495,4.602,6.127,9.093,6.127s8.238-2.632,9.093-6.127c.193-.79-.061-1.444-1.038-1.444l-15.913-.078Z" fill="#ff5e00"/><path d="m28.048,22.997c-1.69,1.265-4.599,2.101-7.906,2.101-3.374,0-6.335-.87-8.007-2.179l15.913.078Z" fill="#fff"/></g><path d="m19.1,18.78h1.799c.881,0,1.352.824.771,1.349l-.9.813c-.408.369-1.133.369-1.541,0l-.9-.813c-.581-.526-.111-1.349.771-1.349Z" fill="#ff5e01"/><g><path d="m12.822,17.504c-.227.112-.488-.085-.438-.333.28-1.379,1.466-2.414,2.887-2.414s2.607,1.035,2.887,2.414c.05.248-.211.445-.438.333-.495-.245-1.34-.553-2.449-.553s-1.954.308-2.449.553Z"/><path d="m27.178,17.504c.227.112.488-.085.438-.333-.28-1.379-1.466-2.414-2.887-2.414s-2.607,1.035-2.887,2.414c-.05.248.211.445.438.333.495-.245,1.34-.553,2.449-.553,1.109,0,1.954.308,2.449.553Z"/></g></g><rect width="40" height="40" fill="none"/></svg>