<?xml version="1.0" encoding="UTF-8"?><svg id="Layer_1" xmlns="http://www.w3.org/2000/svg" viewBox="0 0 40 40"><g><path d="m34.897,32.605h0c.874-.386,1.264-1.392.87-2.248L23.763,4.279c-.394-.856-1.422-1.237-2.296-.851h0c-.874.386-1.264,1.392-.87,2.248l12.004,26.078c.394.856,1.422,1.237,2.296.851Z" fill="#5a81ff"/><rect x="17.806" y="14.778" width="3.399" height="32.693" rx="1.7" ry="1.7" transform="translate(50.63 11.619) rotate(90)" fill="#5a81ff"/><path d="m32.344,24.315h0c-.83-.469-1.892-.191-2.372.622l-2.77,4.697c-.479.813-.195,1.852.636,2.322h0c.83.469,1.892.191,2.372-.622l2.77-4.697c.479-.813.195-1.852-.636-2.322Z" fill="#5a81ff"/><ellipse cx="6.949" cy="32.453" rx="4.411" ry="4.318" fill="#333d4b"/><path d="m12.513,32.824c0-3.008-2.491-5.446-5.563-5.446-2.642,0-4.853,1.802-5.422,4.219-.147.623.309,1.227.949,1.227h10.036Z" fill="#5a81ff"/><ellipse cx="34.089" cy="32.453" rx="4.411" ry="4.318" fill="#333d4b"/><ellipse cx="34.089" cy="32.453" rx="1.903" ry="1.863" fill="#6b7683"/><path d="m17.561,3.229h4.548c1.036,0,1.875.822,1.875,1.835,0,1.014-.839,1.835-1.875,1.835h-4.548c-1.036,0-1.875-.822-1.875-1.835,0-1.014.839-1.835,1.875-1.835Z" fill="#333d4b"/></g><rect y="0" width="40" height="40" transform="translate(40 40) rotate(-180)" fill="none"/></svg>