<svg id="Layer_1" data-name="Layer 1" xmlns="http://www.w3.org/2000/svg" viewBox="0 0 40 40"><defs><style>.cls-1{fill:#4b596a;}.cls-2{fill:#d0d6de;}.cls-3{fill:none;opacity:0;}.cls-4{fill:#007ff2;}.cls-5{fill:#ef4452;}.cls-6{fill:#313d4c;}.cls-7{fill:#6b7683;}.cls-8{fill:#fff;}</style></defs><path class="cls-1" d="M38.881,22.968a3.783,3.783,0,0,0-.459-1.8H1.336a3.58,3.58,0,0,0-.217,1.21v7.345a1.8,1.8,0,0,0,1.805,1.8H36.981a1.9,1.9,0,0,0,1.9-1.9v-6.46h0Z"/><path class="cls-2" d="M35.964,19.272l-5.285-1.263H5.806l-2.47,1.033a3.6,3.6,0,0,0-2,2.121H38.422A3.8,3.8,0,0,0,35.964,19.272Z"/><rect class="cls-3" width="40" height="40"/><path class="cls-4" d="M14.361,4.922a1.5,1.5,0,0,0-1.5,1.505V8.478H18.1V4.922Z"/><path class="cls-5" d="M23.343,6.427a1.5,1.5,0,0,0-1.5-1.5H18.1V8.478h5.243Z"/><circle class="cls-6" cx="31.599" cy="30.803" r="4.275"/><circle class="cls-7" cx="31.599" cy="30.803" r="1.71"/><circle class="cls-6" cx="8.401" cy="30.803" r="4.275"/><circle class="cls-7" cx="8.401" cy="30.803" r="1.71"/><path class="cls-6" d="M30.679,18.009,27.357,9.737a3.8,3.8,0,0,0-3.526-2.383H12.69a3.8,3.8,0,0,0-3.521,2.37L5.806,18.009Z"/><path class="cls-8" d="M38.881,26.538h-.792a1.188,1.188,0,0,1,0-2.375h.792Z"/><path class="cls-5" d="M1.119,26.538H2.861a1.188,1.188,0,0,0,0-2.375H1.119Z"/></svg>