<?xml version="1.0" encoding="UTF-8"?><svg id="Layer_1" xmlns="http://www.w3.org/2000/svg" viewBox="0 0 40 40"><g><circle cx="20" cy="20" r="17.5" style="fill:#ffc84d;"/><path d="M20,28.89418c-1.63727,0-2.91495,.28299-3.78693,.56822-.4523,.14795-.82231-.38961-.52762-.76327,.78719-.99813,2.17397-2.18668,4.31455-2.18668s3.52735,1.18855,4.31455,2.18668c.29469,.37366-.07532,.91122-.52762,.76327-.87198-.28523-2.14966-.56822-3.78693-.56822Z" style="fill:#f80;"/><path d="M14.28878,21.35843s-2.81952,3.02482-2.81952,5.46477c0,1.557,1.26262,2.81617,2.81952,2.81654,1.5569-.00037,2.81952-1.25953,2.81952-2.81654,0-2.43996-2.81952-5.46477-2.81952-5.46477Z" style="fill:#fff;"/><path d="M13.21793,10.57068c-1.13982,.53151-1.67609,1.10009-2.12153,1.60727-.25688,.29248-.62145,.15774-.61836-.25826,.00668-.89863,.56203-2.12019,2.05553-2.81662,1.4935-.69643,2.78624-.33665,3.47893,.23586,.32066,.26503,.18954,.63092-.19964,.6397-.67485,.01522-1.45511,.06054-2.59494,.59205Z"/><path d="M26.78207,10.57068c1.13982,.53151,1.67609,1.10009,2.12153,1.60727,.25688,.29248,.62145,.15774,.61836-.25826-.00668-.89863-.56203-2.12019-2.05553-2.81662-1.4935-.69643-2.78624-.33665-3.47893,.23586-.32066,.26503-.18954,.63092,.19964,.6397,.67485,.01522,1.45511,.06054,2.59494,.59205Z"/><circle cx="15.42171" cy="17.00702" r="2.11366"/><circle cx="24.57829" cy="17.00702" r="2.11366"/></g><rect width="40" height="40" style="fill:none;"/></svg>