<?xml version="1.0" encoding="UTF-8"?><svg id="Layer_1" xmlns="http://www.w3.org/2000/svg" viewBox="0 0 40 40"><g><g><g><path d="M23.78235,24.24243h3.88666c.85046,0,1.57452-.61877,1.70715-1.45886l.55347-3.50586c-.48657,.22815-1.02789,.36926-1.60962,.37219-.89502,2.04004-2.51898,3.67065-4.53766,4.59253Z" style="fill:#333;"/><path d="M11.67999,19.6499c-.75427-.00366-1.45349-.22021-2.03296-.58887l.96393,3.87061c.19177,.77026,.88342,1.31079,1.67706,1.31079h3.92963c-2.01868-.92188-3.64264-2.55249-4.53766-4.59253Z" style="fill:#333;"/><path d="M11.0022,15.08813l6.00543-6.71997s7.29065,5.8551,12.10236,5.53564c.10596-.00708,.22833-.04382,.34906-.09546,.3111-.17529,.57343-.48865,.81378-.44226,.00745,.00146,.01538-.00378,.02277-.00159,.09192-6.25085-5.28571-11.35449-11.6543-10.67053-4.89813,.526-8.82056,4.50696-9.28247,9.4115-.047,.49902-.05902,.9917-.03821,1.47595,0,0,.03925-.00513,.09473-.00598,.24213-.00366,.94281,.1145,1.58685,1.5127Z" style="fill:#333;"/></g><path d="M31.95001,16.22998c0-1.20862-.67346-2.25684-1.67719-2.86389-.24036-.04639-.50269,.26697-.81378,.44226-.12073,.05164-.2431,.08838-.34906,.09546-4.81171,.31946-12.10236-5.53564-12.10236-5.53564l-6.00543,6.71997c-.64404-1.39819-1.34473-1.51636-1.58685-1.5127-.82733,.62537-1.36536,1.57605-1.36536,2.65454,0,1.18079,.63239,2.21704,1.59705,2.83105,.57947,.36865,1.27869,.58521,2.03296,.58887,.89502,2.04004,2.51898,3.67065,4.53766,4.59253,.4848,.22131,.9856,.41406,1.51233,.54761v.76001c0,.13989,.02002,.27991,.04004,.40991,.19,1.06006,1.10999,1.86011,2.22998,1.86011s2.03998-.80005,2.22998-1.86011c.02002-.13,.04004-.27002,.04004-.40991v-.76001c.52673-.13354,1.02753-.32629,1.51233-.54761,2.01868-.92188,3.64264-2.55249,4.53766-4.59253,.58173-.00293,1.12305-.14404,1.60962-.37219,1.19464-.5603,2.02039-1.70471,2.02039-3.04773Z" style="fill:#946759;"/><path d="M20.01733,21.41709c-.75638,0-1.34664,.13073-1.74948,.26251-.20895,.06835-.37989-.17999-.24375-.35261,.36366-.46111,1.00432-1.0102,1.99322-1.0102s1.62956,.54908,1.99322,1.0102c.13614,.17262-.0348,.42096-.24375,.35261-.40283-.13177-.9931-.26251-1.74948-.26251Z" style="fill:#5c2f17;"/><path d="M33.73999,37.37H6.26001c-.34003,0-.59003-.31995-.51001-.65002l.53998-2.18994c.21002-.8501,.48004-1.69006,.92004-2.45007,1.06-1.84998,2.73999-3.29993,4.76996-4.06995l4.21002-1.6001c.51001-.18994,1.03998-.33984,1.58002-.44995,.19,1.06006,1.10999,1.86011,2.22998,1.86011s2.03998-.80005,2.22998-1.86011c.54004,.11011,1.07001,.26001,1.58002,.44995l4.21002,1.6001c2.02997,.77002,3.70996,2.21997,4.76996,4.06995,.44,.76001,.71002,1.59998,.92004,2.45007l.53998,2.18994c.08002,.33008-.16998,.65002-.51001,.65002Z" style="fill:#aab6c6;"/></g><rect width="40" height="40" style="fill:none;"/></g><g><ellipse cx="17.44131" cy="15.28021" rx=".97576" ry="1.17092"/><ellipse cx="22.59335" cy="15.28021" rx=".97576" ry="1.17092"/></g></svg>