<svg id="Layer_1" data-name="Layer 1" xmlns="http://www.w3.org/2000/svg" viewBox="0 0 40 40"><defs><style>.cls-1{fill:#5a81ff;}.cls-2{fill:#333d4b;}.cls-3{fill:#6b7683;}.cls-4{fill:none;}</style></defs><path class="cls-1" d="M34.9,32.6h0a1.685,1.685,0,0,0,.869-2.248l-12-26.078a1.752,1.752,0,0,0-2.3-.851h0a1.685,1.685,0,0,0-.87,2.248l12,26.077A1.753,1.753,0,0,0,34.9,32.6Z"/><rect class="cls-1" x="17.806" y="14.778" width="3.399" height="32.693" rx="1.7" transform="translate(50.63 11.619) rotate(90)"/><path class="cls-1" d="M32.344,24.315h0a1.756,1.756,0,0,0-2.371.622l-2.771,4.7a1.681,1.681,0,0,0,.636,2.322h0a1.758,1.758,0,0,0,2.372-.623l2.77-4.7A1.68,1.68,0,0,0,32.344,24.315Z"/><ellipse class="cls-2" cx="6.949" cy="32.453" rx="4.411" ry="4.318"/><path class="cls-1" d="M12.513,32.824a5.506,5.506,0,0,0-5.564-5.446A5.541,5.541,0,0,0,1.528,31.6a.987.987,0,0,0,.949,1.227Z"/><ellipse class="cls-2" cx="34.089" cy="32.453" rx="4.411" ry="4.318"/><ellipse class="cls-3" cx="34.089" cy="32.453" rx="1.903" ry="1.863"/><path class="cls-2" d="M17.561,3.229h4.547a1.836,1.836,0,1,1,0,3.671H17.561a1.836,1.836,0,1,1,0-3.671Z"/><rect class="cls-4" width="40" height="40" transform="translate(40 40) rotate(-180)"/></svg>