<svg id="Layer_1" data-name="Layer 1" xmlns="http://www.w3.org/2000/svg" viewBox="0 0 40 40"><defs><style>.cls-1{fill:#9cc0ff;}.cls-2{fill:#ffc84d;}.cls-3{fill:#ff6d00;}.cls-4{fill:none;}</style></defs><circle class="cls-1" cx="20" cy="20" r="17.5"/><path class="cls-2" d="M37.5,20a17.5,17.5,0,0,1-35,0C2.5,10.335,37.5,10.335,37.5,20Z"/><circle cx="15.422" cy="17.007" r="2.114"/><circle cx="24.578" cy="17.007" r="2.114"/><path class="cls-3" d="M15.715,29.294a1.221,1.221,0,0,1-1.194-1.511,5.684,5.684,0,0,1,10.958,0,1.221,1.221,0,0,1-1.194,1.511Z"/><path d="M13.185,10.222a5.84,5.84,0,0,0-2.253,1.416c-.281.269-.633.1-.594-.311A3.258,3.258,0,0,1,12.632,8.7a3.257,3.257,0,0,1,3.445.539c.3.292.134.645-.255.62A5.83,5.83,0,0,0,13.185,10.222Z"/><path d="M26.815,10.222a5.84,5.84,0,0,1,2.253,1.416c.281.269.633.1.594-.311A3.258,3.258,0,0,0,27.368,8.7a3.257,3.257,0,0,0-3.445.539c-.3.292-.134.645.255.62A5.83,5.83,0,0,1,26.815,10.222Z"/><rect class="cls-4" width="40" height="40"/></svg>