<?xml version="1.0" encoding="UTF-8"?><svg id="Layer_1" xmlns="http://www.w3.org/2000/svg" viewBox="0 0 40 40"><rect y="0" width="40" height="40" transform="translate(40 40) rotate(-180)" fill="none"/><path d="m19.921,14.753c-.414,0-.75-.336-.75-.75v-7.76c0-.414.336-.75.75-.75s.75.336.75.75v7.76c0,.414-.336.75-.75.75Z" fill="#6b7683"/><path d="m24.265,10.802h-8.53c-.967,0-1.75.784-1.75,1.75h12.03c0-.966-.784-1.75-1.75-1.75Z" fill="#333d4b"/><path d="m3.863,9.906c-.356,0-.673-.255-.737-.619-.073-.407.199-.797.607-.869L35.846,2.709c.41-.068.797.199.87.607.073.407-.199.797-.607.869L3.996,9.895c-.044.008-.089.012-.132.012Z" fill="#6b7683"/><g><circle cx="19.921" cy="6.243" r="2.354" fill="#2d3d4d"/><circle cx="19.921" cy="6.243" r="1.177" fill="#cbcfd2"/></g><g><rect x="5.473" y="12.552" width="29.055" height="21.779" rx="2.172" ry="2.172" fill="#cecfcf"/><rect x="13.407" y="16.518" width="13.187" height="10.657" rx="1.858" ry="1.858" fill="#313d4c"/><path d="m9.358,16.518h-3.877v10.657h3.877c1.026,0,1.858-.832,1.858-1.858v-6.941c0-1.026-.832-1.858-1.858-1.858Z" fill="#313d4c"/><path d="m30.498,16.518h3.877v10.657h-3.877c-1.026,0-1.858-.832-1.858-1.858v-6.941c0-1.026.832-1.858,1.858-1.858Z" fill="#313d4c"/><path d="m5.473,30.326h29.055v2.117c0,1.042-.846,1.888-1.888,1.888H7.361c-1.042,0-1.888-.846-1.888-1.888v-2.117h0Z" fill="#ac7262"/></g></svg>