<svg id="Layer_1" data-name="Layer 1" xmlns="http://www.w3.org/2000/svg" viewBox="0 0 40 40"><defs><style>.cls-1{fill:#ff3d29;}.cls-2{fill:#8595aa;}.cls-3{fill:#d0d6de;}.cls-4{fill:#6ba0ff;}.cls-5{fill:none;}</style></defs><path class="cls-1" d="M10.1,34.494a3.179,3.179,0,1,0-4.5-4.5c-1.241,1.241-2.265,6.76-2.265,6.76S8.859,35.735,10.1,34.494Z"/><path class="cls-2" d="M15.087,33.813l-8.8-8.8a.576.576,0,0,1,.191-.941l4.045-1.641L17.693,29.6l-1.666,4.025A.577.577,0,0,1,15.087,33.813Z"/><path class="cls-2" d="M35.621,8.789,29.481,34.9a3.585,3.585,0,0,1-6.025,1.715L3.485,16.643A3.585,3.585,0,0,1,5.2,10.618l26.112-6.14A3.585,3.585,0,0,1,35.621,8.789Z"/><path class="cls-3" d="M24.914-1h0A6.683,6.683,0,0,1,31.6,5.68v25.7a0,0,0,0,1,0,0H18.23a0,0,0,0,1,0,0V5.68A6.683,6.683,0,0,1,24.914-1Z" transform="translate(18.035 -13.169) rotate(45)"/><circle class="cls-4" cx="30.131" cy="9.968" r="3.847"/><rect class="cls-5" width="40" height="40"/></svg>