<svg id="Layer_1" data-name="Layer 1" xmlns="http://www.w3.org/2000/svg" viewBox="0 0 40 40"><defs><style>.cls-1{fill:none;opacity:0;}.cls-2{fill:#ffb72d;}.cls-3{fill:#ff8f00;}.cls-4{fill:#313d4c;}.cls-5{fill:#6b7683;}.cls-6{fill:#fff;}</style></defs><rect class="cls-1" width="40" height="40"/><path class="cls-2" d="M33.866,6.682H6.134a4,4,0,0,0-4,4V29.09a2,2,0,0,0,2,2H35.866a2,2,0,0,0,2-2V10.682A4,4,0,0,0,33.866,6.682Z"/><path class="cls-3" d="M37.866,23.466H2.134V29.09a2,2,0,0,0,2,2H35.866a2,2,0,0,0,2-2Z"/><circle class="cls-4" cx="8.372" cy="30.803" r="4.275"/><circle class="cls-5" cx="8.372" cy="30.803" r="1.71"/><circle class="cls-4" cx="31.239" cy="30.803" r="4.275"/><circle class="cls-5" cx="31.239" cy="30.803" r="1.71"/><path class="cls-6" d="M37.866,27.7a1.188,1.188,0,0,1,0-2.375Z"/><path class="cls-4" d="M6.173,10.532H17.864a0,0,0,0,1,0,0v8.31a0,0,0,0,1,0,0H6.173A1.139,1.139,0,0,1,5.034,17.7V11.671A1.139,1.139,0,0,1,6.173,10.532Z"/><path class="cls-4" d="M19.276,10.532H30.967a1.139,1.139,0,0,1,1.139,1.139V17.7a1.139,1.139,0,0,1-1.139,1.139H19.276a0,0,0,0,1,0,0v-8.31A0,0,0,0,1,19.276,10.532Z"/><path class="cls-4" d="M35.314,10.532h2.552a0,0,0,0,1,0,0v11.31a0,0,0,0,1,0,0H35.314A1.139,1.139,0,0,1,34.175,20.7V11.671A1.139,1.139,0,0,1,35.314,10.532Z"/></svg>