<?xml version="1.0" encoding="UTF-8"?><svg id="Layer_1" xmlns="http://www.w3.org/2000/svg" viewBox="0 0 40 40"><path d="m34.662,31.048h-.385s-.007-.001-.011-.001h-.866c-.893,0-1.726-.454-2.209-1.206l-11.816-19.427c-.79-1.208-2.421-1.527-3.608-.705l-1.28.887,11.005,18.443c.495.77,1.338,1.236,2.25,1.266h1.885c1.475,0,2.671,1.196,2.671,2.671v2.634h5.036v-1.891c0-1.475-1.196-2.671-2.671-2.671Z" fill="#688cd7"/><g><path d="m35.31,30.31h-.52c-.91-.03-1.75-.5-2.25-1.27l-12.34-19.14c-.67-1.02-1.78-1.57-2.92-1.56l.49-3.86c.06-.41-.24-.78-.65-.83-.41-.06-.78.23-.83.64l-.57,4.46c-.13.06-.25.12-.37.2l-1.36.94c-1.1-1.29-3.03-1.56-4.44-.53l-1.51,1.11.96-5.96c.07-.41-.21-.79-.62-.86-.41-.07-.8.21-.86.62l-1.87,11.61c-.01.05-.02.1-.02.15l-1.07,6.61c-.01.05-.02.1-.02.15l-1.02,6.29c-.01.05-.02.1-.02.15l-1.02,6.26c-.06.41.22.79.62.86.05.01.09.01.13.01.36,0,.68-.26.73-.63l.93-5.75h8.13l-.71,5.54c-.05.41.24.78.65.83.03.01.07.01.1.01.37,0,.69-.28.74-.65l.79-6.27c-.01.02-.02.04-.03.06.02-.04.03-.08.04-.12.01-.05.02-.1.02-.15l.61-4.77,4.76,8c1.19,1.96,3.32,3.15,5.61,3.15h6.7v-2.63c0-1.48-1.2-2.67-2.67-2.67h-1.89c-.91-.03-1.75-.5-2.25-1.27L14.49,10.6l1.28-.89c1.18-.82,2.81-.5,3.61.7l11.81,19.43c.48.75,1.32,1.21,2.21,1.21h1.26c1.48,0,2.67,1.19,2.67,2.67v1.89h1.45v-1.84c0-1.91-1.56-3.46-3.47-3.46ZM7.8,11.96l1.97,3.32h-2.51l.54-3.32Zm-.78,4.82h3.64l3.13,5.26h-7.62l.85-5.26Zm-1.89,11.7l.8-4.94h7.91l-.63,4.94H5.13Z" fill="#9fbdf7"/><path d="m14.6,29.38c0,.02,0,.04-.01.06-.01.02-.02.04-.03.06.02-.04.03-.08.04-.12Z" fill="#9fbdf7"/><path d="m14.6,29.38c0,.02,0,.04-.01.06-.01.02-.02.04-.03.06.02-.04.03-.08.04-.12Z" fill="#9fbdf7"/></g></svg>