<svg id="Layer_1" data-name="Layer 1" xmlns="http://www.w3.org/2000/svg" viewBox="0 0 40 40"><defs><style>.cls-1{fill:#acb6c4;}.cls-2{fill:#ffb582;}.cls-3{fill:#ffdb87;}.cls-4{fill:#a3acba;}.cls-5{fill:#cad5e6;}.cls-6{fill:#dde4f0;}.cls-7{fill:#e4ebf7;}.cls-8{fill:#d1d8e3;}.cls-9{fill:#abb7c7;}.cls-10{fill:none;}</style></defs><path class="cls-1" d="M15.063,32.152H11.411L9.019,35.806A1.094,1.094,0,0,0,9.935,37.5h.679a1.754,1.754,0,0,0,1.468-.793Z"/><path class="cls-1" d="M27,32.152h3.652l2.392,3.654a1.1,1.1,0,0,1-.916,1.694h-.679a1.754,1.754,0,0,1-1.468-.793Z"/><circle class="cls-2" cx="9.185" cy="16.606" r="4.139"/><path class="cls-3" d="M8.809,20.443a4.049,4.049,0,0,1-.13-8.1,4.176,4.176,0,0,1,.538.018.175.175,0,0,1,.157.187Z"/><ellipse cx="12.057" cy="15.221" rx="0.329" ry="0.616" transform="translate(-4.641 5.31) rotate(-20.925)"/><path class="cls-3" d="M9.038,16.394l1.8-3.491a.17.17,0,0,0-.1-.242,5.181,5.181,0,0,0-2.234-.3Z"/><ellipse class="cls-2" cx="8.657" cy="17.079" rx="1.098" ry="1.307" transform="translate(-10.462 16.037) rotate(-60)"/><path class="cls-4" d="M33.571,3.326a4.66,4.66,0,0,0-4.655-.378A7.024,7.024,0,0,0,26.9,4.277l.873.873c.1-.1,2.58-2.514,5.1-.8C35.6,6.191,35.6,9.3,35.6,10.631v8.063H31.653a.833.833,0,0,0-.833.833v2.179h1.424V20.343a.341.341,0,0,1,.34-.341H35.6v1.752h1.234V10.631C36.831,9.237,36.831,5.537,33.571,3.326Z"/><path class="cls-5" d="M27.992,5.87l.666-.636a.373.373,0,0,0,.012-.529L27.385,3.358a.376.376,0,0,0-.53-.012l-.665.636-4.214.554,5.266,5.517Z"/><ellipse class="cls-4" cx="24.576" cy="7.327" rx="0.42" ry="3.837" transform="translate(1.74 18.996) rotate(-43.669)"/><circle class="cls-6" cx="20.221" cy="20.02" r="2.177"/><circle class="cls-7" cx="22.398" cy="17.079" r="2.177"/><circle class="cls-7" cx="27.552" cy="22.197" r="2.177"/><circle class="cls-8" cx="23.94" cy="20.761" r="2.919"/><circle class="cls-7" cx="16.88" cy="21.315" r="2.919"/><path class="cls-9" d="M38.32,23.089a1.546,1.546,0,0,0-1.393-1.538.978.978,0,0,0-.145-.012H29.259c-11.427-.4-20.2-2.119-25.649-2.836a1.086,1.086,0,0,0-.248,0c-.045,0-.09-.006-.136-.006a1.546,1.546,0,0,0-.013,3.091C5.5,27.258,6.607,29.508,8.594,32.29c2.164,3.029,7.847,4.749,17.86,4.121,6.394-.4,9.476-7.6,10.741-11.834A1.547,1.547,0,0,0,38.32,23.089Z"/><rect class="cls-10" width="40" height="40"/></svg>