<?xml version="1.0" encoding="UTF-8"?><svg id="Layer_1" xmlns="http://www.w3.org/2000/svg" viewBox="0 0 40 40"><rect y="0" width="40" height="40" transform="translate(40 40) rotate(-180)" style="fill:none;"/><g><path d="M23.10106,11.14024l1.56722,6.46287H3.11446v-6.22312c0-.56184,.45547-1.01731,1.01731-1.01731H22.11241c.4695,0,.87801,.32129,.98866,.77756Z" style="fill:#d3d3d3;"/><path d="M29.17286,16.53267l2.89063,7.10137H3.11446v-7.73514H28.23062c.41373,0,.78626,.25057,.94224,.63377Z" style="fill:#e1e5e8;"/><path d="M10.39617,18.62897c0,.38748-.31411,.70159-.70159,.70159s-.70159-.31411-.70159-.70159c0-.38748,.31411-.70159,.70159-.70159s.70159,.31411,.70159,.70159Z" style="fill:#4b596a;"/><path d="M7.25006,18.62897c0,.38748-.31411,.70159-.70159,.70159s-.70159-.31411-.70159-.70159,.31411-.70159,.70159-.70159,.70159,.31411,.70159,.70159Z" style="fill:#4b596a;"/><circle cx="12.84069" cy="18.62897" r=".70159" style="fill:#4b596a;"/><circle cx="15.9868" cy="18.62897" r=".70159" style="fill:#4b596a;"/><path d="M19.8345,18.62897c0,.38748-.31411,.70159-.70159,.70159s-.70159-.31411-.70159-.70159,.31411-.70159,.70159-.70159,.70159,.31411,.70159,.70159Z" style="fill:#4b596a;"/><path d="M11.79935,12.7461c0,.38748-.31411,.70159-.70159,.70159s-.70159-.31411-.70159-.70159c0-.38748,.31411-.70159,.70159-.70159s.70159,.31411,.70159,.70159Z" style="fill:#4b596a;"/><path d="M14.94546,12.7461c0,.38748-.31411,.70159-.70159,.70159s-.70159-.31411-.70159-.70159c0-.38748,.31411-.70159,.70159-.70159s.70159,.31411,.70159,.70159Z" style="fill:#4b596a;"/><path d="M8.65324,12.7461c0,.38748-.31411,.70159-.70159,.70159s-.70159-.31411-.70159-.70159,.31411-.70159,.70159-.70159,.70159,.31411,.70159,.70159Z" style="fill:#4b596a;"/><path d="M18.09157,12.7461c0,.38748-.31411,.70159-.70159,.70159s-.70159-.31411-.70159-.70159,.31411-.70159,.70159-.70159,.70159,.31411,.70159,.70159Z" style="fill:#4b596a;"/><path d="M21.23768,12.7461c0,.38748-.31411,.70159-.70159,.70159s-.70159-.31411-.70159-.70159,.31411-.70159,.70159-.70159,.70159,.31411,.70159,.70159Z" style="fill:#4b596a;"/><circle cx="22.27901" cy="18.62897" r=".70159" style="fill:#4b596a;"/><path d="M26.12671,18.62897c0,.38748-.31411,.70159-.70159,.70159s-.70159-.31411-.70159-.70159,.31411-.70159,.70159-.70159,.70159,.31411,.70159,.70159Z" style="fill:#4b596a;"/><rect x="6.05622" y="6.26314" width="2.86041" height="4.09953" style="fill:#e32939;"/><rect x="12.11207" y="6.26314" width="2.86041" height="4.09953" style="fill:#e32939;"/><rect x="5.53817" y="4.21043" width="3.89653" height="2.05271" rx=".48707" ry=".48707" style="fill:#313d4c;"/><rect x="11.59401" y="4.21043" width="3.89653" height="2.05271" rx=".48707" ry=".48707" style="fill:#313d4c;"/><g><path d="M5.11446,35.78957H28.31364c.71453,0,1.37479-.3812,1.73205-1l6.41569-11.1123H3.11446v10.1123c0,1.10457,.89543,2,2,2Z" style="fill:#e32939;"/><path d="M3.11446,21.67726v2H36.46138l.28868-.49997c.38493-.66667-.0962-1.50003-.86601-1.50003H3.11446Z" style="fill:#313d4c;"/></g></g></svg>