<svg id="Layer_1" data-name="Layer 1" xmlns="http://www.w3.org/2000/svg" viewBox="0 0 40 40"><defs><style>.cls-1{fill:#ff5543;}.cls-2{fill:#af1b1b;}.cls-3{fill:#fff;}.cls-4{fill:none;}</style></defs><circle class="cls-1" cx="20" cy="20" r="17.5"/><path class="cls-2" d="M20,21.342a16.869,16.869,0,0,0-6.259,1.081.312.312,0,0,1-.387-.444C14.1,20.59,16.882,19.207,20,19.207s5.9,1.383,6.646,2.772a.312.312,0,0,1-.387.444A16.869,16.869,0,0,0,20,21.342Z"/><path d="M12.194,13.259a.334.334,0,0,0-.476.362,3.19,3.19,0,0,0,6.279,0,.334.334,0,0,0-.476-.362,6.2,6.2,0,0,1-5.327,0Z"/><path d="M27.806,13.259a.334.334,0,0,1,.476.362,3.19,3.19,0,0,1-6.279,0,.334.334,0,0,1,.476-.362,6.2,6.2,0,0,0,5.327,0Z"/><path class="cls-3" d="M9.109,28.3a2.817,2.817,0,0,1-.568-4.443,2.762,2.762,0,0,1,2.522-.754,2.813,2.813,0,0,1,1.953,1.486l5.7-6.054-3.4,7.34a2.77,2.77,0,0,1,1.959.714,2.811,2.811,0,0,1-3.289,4.522c-.021-.012-.036-.028-.057-.04a2.808,2.808,0,0,1-4.75-2.743C9.152,28.318,9.13,28.313,9.109,28.3Z"/><path class="cls-3" d="M30.891,28.3a2.817,2.817,0,0,0,.568-4.443,2.762,2.762,0,0,0-2.522-.754,2.813,2.813,0,0,0-1.953,1.486l-5.7-6.054,3.4,7.34a2.77,2.77,0,0,0-1.959.714,2.811,2.811,0,0,0,3.289,4.522c.021-.012.036-.028.057-.04a2.808,2.808,0,0,0,4.75-2.743C30.848,28.318,30.87,28.313,30.891,28.3Z"/><rect class="cls-4" width="40" height="40"/></svg>