<?xml version="1.0" encoding="UTF-8"?><svg id="Layer_1" xmlns="http://www.w3.org/2000/svg" viewBox="0 0 40 40"><g><g><path id="SVGID" d="m26.562,4.839c-.604-.536-1.547-.363-1.924.351l-1.594,3.015c-.282.534-.837.868-1.441.868h-3.205c-.604,0-1.159-.334-1.441-.868l-1.594-3.015c-.377-.714-1.321-.887-1.924-.351C8.294,9.411,2,15.983,2,20.782c0,8.114,8.059,14.692,18,14.692s18-6.578,18-14.692c0-4.799-6.294-11.371-11.438-15.943Z" fill="#ffb72d"/><path d="m37.694,18.833l-3.383,1.725c-.783.399-.783,1.518,0,1.918l3.208,1.635c.304-1.071.481-2.181.481-3.328,0-.622-.11-1.276-.306-1.95Z"/><path d="m2.306,18.833l3.383,1.725c.783.399.783,1.518,0,1.918l-3.208,1.635c-.304-1.071-.481-2.181-.481-3.328,0-.622.11-1.276.306-1.95Z"/></g><path d="m19.1,18.78h1.799c.881,0,1.352.824.771,1.349l-.9.813c-.408.369-1.133.369-1.541,0l-.9-.813c-.581-.526-.111-1.349.771-1.349Z" fill="#ff5e01"/><path d="m20,26.642c-1.577,0-2.808.273-3.648.547-.436.143-.792-.375-.508-.735.758-.962,2.094-2.107,4.156-2.107s3.398,1.145,4.156,2.107c.284.36-.073.878-.508.735-.84-.275-2.071-.547-3.648-.547Z" fill="#ff5e00"/><path d="m25.207,19.481s-2.716,2.914-2.716,5.265c0,1.5,1.216,2.713,2.716,2.713,1.5,0,2.716-1.213,2.716-2.713,0-2.351-2.716-5.265-2.716-5.265Z" fill="#fff"/><g><circle cx="15.589" cy="16.798" r="2.036"/><circle cx="24.411" cy="16.798" r="2.036"/></g></g><rect width="40" height="40" fill="none"/></svg>