<?xml version="1.0" encoding="UTF-8"?><svg id="a" xmlns="http://www.w3.org/2000/svg" viewBox="0 0 40 40"><g><rect x="4.288" y="22.042" width="2.982" height="13.12" rx=".752" ry=".752" transform="translate(-3.373 56.31) rotate(-150.3)" fill="#b7b7b7"/><path d="M16.386,16.296L7.626,29.782c-.218,.335-.663,.434-1.002,.222l-2.352-1.469c-.331-.207-.442-.637-.252-.978L14.623,8.506c.003-.006,.011-.004,.013,.002l1.751,7.783v.005Z" fill="#d3d3d3"/><path d="M15.238,7.681c1.887-2.195,5.033-3.01,7.769-2.066,1.488,.514,2.647,1.433,3.466,2.563,.358,.494,.393,1.154,.09,1.684l-5.115,8.968c-.306,.536-.902,.837-1.517,.778-.971-.094-1.937-.383-2.839-.898-3.872-2.209-4.921-7.46-1.855-11.029Z" fill="#d3d3d3"/><path d="M25.342,6.974c.423,.366,.811,.762,1.132,1.204,.358,.494,.393,1.154,.091,1.684l-5.115,8.968c-.306,.537-.902,.837-1.517,.778-.538-.052-1.073-.171-1.598-.348l7.008-12.285Z" fill="#b7b7b7"/><g><line x1="28.351" y1="11.861" x2="38.5" y2="17.65" fill="none" stroke="#93c9ff" stroke-dasharray="0 0 .614 3.068" stroke-linecap="round" stroke-miterlimit="10" stroke-width="1.227"/><line x1="26.994" y1="14.24" x2="37.143" y2="20.029" fill="none" stroke="#93c9ff" stroke-dasharray="0 0 .614 3.068" stroke-linecap="round" stroke-miterlimit="10" stroke-width="1.227"/><line x1="25.637" y1="16.619" x2="35.786" y2="22.408" fill="none" stroke="#93c9ff" stroke-dasharray="0 0 .614 3.068" stroke-linecap="round" stroke-miterlimit="10" stroke-width="1.227"/><line x1="24.281" y1="18.998" x2="34.429" y2="24.786" fill="none" stroke="#93c9ff" stroke-dasharray="0 0 .614 3.068" stroke-linecap="round" stroke-miterlimit="10" stroke-width="1.227"/></g></g><rect width="40" height="40" fill="none"/></svg>