<svg id="Layer_1" data-name="Layer 1" xmlns="http://www.w3.org/2000/svg" viewBox="0 0 40 40"><defs><style>.cls-1{fill:#ffc84d;}.cls-2{fill:#f80;}.cls-3{fill:#fff;}.cls-4{fill:none;}</style></defs><circle class="cls-1" cx="20" cy="20" r="17.5"/><path class="cls-1" d="M37.5,20a17.5,17.5,0,0,1-35,0C2.5,10.335,37.5,10.335,37.5,20Z"/><path class="cls-2" d="M20,28.894a12.2,12.2,0,0,0-3.787.568.486.486,0,0,1-.528-.763,5.35,5.35,0,0,1,8.63,0,.486.486,0,0,1-.528.763A12.2,12.2,0,0,0,20,28.894Z"/><path class="cls-3" d="M9.289,19.358s-2.82,3.025-2.82,5.465a2.82,2.82,0,0,0,5.639,0C12.108,22.383,9.289,19.358,9.289,19.358Z"/><path d="M13.453,12.484a5.834,5.834,0,0,0,2.122-1.607c.257-.293.621-.158.618.258a3.257,3.257,0,0,1-2.056,2.817,3.256,3.256,0,0,1-3.478-.236c-.321-.265-.19-.631.2-.64A5.822,5.822,0,0,0,13.453,12.484Z"/><path d="M26.547,12.484a5.834,5.834,0,0,1-2.122-1.607c-.257-.293-.621-.158-.618.258a3.257,3.257,0,0,0,2.056,2.817,3.256,3.256,0,0,0,3.478-.236c.321-.265.19-.631-.2-.64A5.822,5.822,0,0,1,26.547,12.484Z"/><circle cx="15.422" cy="19.007" r="2.114"/><circle cx="24.578" cy="19.007" r="2.114"/><rect class="cls-4" width="40" height="40"/></svg>