<?xml version="1.0" encoding="UTF-8"?><svg id="Layer_1" xmlns="http://www.w3.org/2000/svg" viewBox="0 0 40 40"><g><circle cx="20" cy="20" r="17.40887" style="fill:#ffc84d;"/><circle cx="20" cy="29.74225" r="2.05311" style="fill:#f80;"/><path d="M26.81055,16.72021h-4.47168c-.38574,0-.7373-.22217-.90332-.5708s-.11621-.76172,.12793-1.06104l2.4248-2.9751h-1.76953c-.55273,0-1-.44775-1-1s.44727-1,1-1h3.875c.38574,0,.7373,.22217,.90332,.5708s.11621,.76172-.12793,1.06104l-2.4248,2.9751h2.36621c.55273,0,1,.44775,1,1s-.44727,1-1,1Z" style="fill:#6391ff;"/><path d="M35.20313,14.27148h-6.03906c-.38574,0-.7373-.22217-.90332-.5708s-.11621-.76172,.12793-1.06104l3.74023-4.58887h-3.12598c-.55273,0-1-.44775-1-1s.44727-1,1-1h5.23145c.38574,0,.7373,.22217,.90332,.5708s.11523,.76172-.12793,1.06104l-3.74023,4.58887h3.93359c.55273,0,1,.44775,1,1s-.44727,1-1,1Z" style="fill:#6391ff;"/><path d="M12.19397,21.52413c-.24689-.12185-.53069,.09194-.47587,.36174,.3046,1.4992,1.59451,2.62508,3.13954,2.62508s2.83493-1.12588,3.13954-2.62508c.05482-.26981-.22899-.48359-.47587-.36174-.5388,.26593-1.45741,.60129-2.66367,.60129s-2.12486-.33536-2.66367-.60129Z"/><path d="M27.80603,21.52413c.24689-.12185,.53069,.09194,.47587,.36174-.3046,1.4992-1.59451,2.62508-3.13954,2.62508-1.54503,0-2.83493-1.12588-3.13954-2.62508-.05482-.26981,.22899-.48359,.47587-.36174,.5388,.26593,1.45741,.60129,2.66367,.60129,1.20626,0,2.12486-.33536,2.66367-.60129Z"/></g><rect width="40" height="40" style="fill:none;"/></svg>