<?xml version="1.0" encoding="UTF-8"?><svg id="Layer_1" xmlns="http://www.w3.org/2000/svg" viewBox="0 0 40 40"><g><g><path id="SVGID" d="M26.56156,4.83946c-.6036-.53633-1.54692-.36313-1.92433,.3507l-1.59388,3.01464c-.28237,.53407-.83695,.86818-1.44108,.86818h-3.20478c-.60412,0-1.15871-.33411-1.44108-.86818l-1.5939-3.01468c-.3774-.71381-1.32071-.887-1.92428-.35065C8.29374,9.41106,2,15.98341,2,20.7822c0,8.11449,8.05875,14.69221,18,14.69221s18-6.57772,18-14.69221c0-4.79881-6.2938-11.37146-11.43844-15.94274Z" style="fill:#ffb72d;"/><path d="M37.69436,18.83266l-3.38329,1.72463c-.78332,.39924-.78332,1.51836,0,1.91761l3.20772,1.63502c.30434-1.07085,.48121-2.18132,.48121-3.32773,0-.62239-.11007-1.2757-.30564-1.94954Z"/><path d="M2.30564,18.83266l3.38329,1.72463c.78332,.39924,.78332,1.51836,0,1.91761l-3.20772,1.63502c-.30434-1.07085-.48121-2.18132-.48121-3.32773,0-.62239,.11007-1.2757,.30564-1.94954Z"/></g><path d="M19.10047,18.7802h1.79906c.88139,0,1.35192,.82374,.77073,1.34928l-.89953,.81338c-.40836,.36925-1.13309,.36925-1.54145,0l-.89953-.81338c-.5812-.52553-.11066-1.34928,.77073-1.34928Z" style="fill:#ff5e01;"/><path d="M20,26.64159c-1.57728,0-2.80815,.27262-3.64818,.5474-.43572,.14253-.79218-.37534-.50829-.7353,.75835-.96156,2.09432-2.10656,4.15647-2.10656s3.39812,1.145,4.15647,2.10656c.28389,.35997-.07256,.87783-.50829,.7353-.84003-.27478-2.0709-.5474-3.64818-.5474Z" style="fill:#ff5e00;"/><path d="M25.20655,19.48108s-2.71621,2.91399-2.71621,5.26455c0,1.49996,1.21636,2.71299,2.71621,2.71335,1.49986-.00035,2.71621-1.21339,2.71621-2.71335,0-2.35056-2.71621-5.26455-2.71621-5.26455Z" style="fill:#fff;"/><g><circle cx="15.58945" cy="16.79795" r="2.03622"/><circle cx="24.41055" cy="16.79795" r="2.03622"/></g></g><rect width="40" height="40" style="fill:none;"/></svg>