<?xml version="1.0" encoding="UTF-8"?><svg id="Layer_1" xmlns="http://www.w3.org/2000/svg" viewBox="0 0 40 40"><rect x="0" width="40" height="40" style="fill:none;"/><g><path d="M7.07404,20.65466h3.74747c1.10383,0,2,.89617,2,2v3.74747H7.07404v-5.74747h0Z" style="fill:#298160;"/><path d="M15.96723,20.65466h2.86176c1.10383,0,2,.89617,2,2v3.74747h-4.86176v-5.74747h0Z" style="fill:#298160;"/><rect x="15.58105" y="8.22266" width="1.41406" height="19.89062" style="fill:#23b169;"/><rect x="28.95518" y="23.08491" width="3.1324" height="9.54204" transform="translate(71.57293 32.57582) rotate(144.17302)" style="fill:#298160;"/><path d="M23.20756,20.65466l-1.1567,2.56086c-.76268,1.68856-2.44363,2.77378-4.29637,2.77378h-4.07666c-3.01548,0-5.4727-2.36128-5.64085-5.33464h-3.50308v9.12725c0,1.5623,1.26645,2.82857,2.82857,2.82857h15.95916c1.11164,0,2.12022-.65109,2.57778-1.66416l4.64845-10.29166h-7.34028Z" style="fill:#23b169;"/><path d="M31.09506,17.11457l-5.19567-11.50326c-.45756-1.01305-1.46609-1.66416-2.57768-1.66416H7.36246c-1.56218,0-2.82857,1.26639-2.82857,2.82857v13.87893h3.50308c-.00604-.10738-.01629-.21362-.01629-.3225V12.02489c0-.52073,.42213-.94286,.94286-.94286h12.42228c.36492,0,.69708,.21058,.85276,.54063l2.2459,4.76152c.20723,.45881,.20724,.98456,.00001,1.44337l-.3392,.75102-.93773,2.07608h7.34028l.5472-1.21144c.33435-.74021,.33435-1.58843,.00002-2.32864Z" style="fill:#ffb400;"/><g><path d="M37.53389,31.76769c0,2.36662-1.91852,4.28515-4.28515,4.28515-2.36662,0-4.28515-1.91853-4.28515-4.28515s1.91852-4.28514,4.28515-4.28514c2.36662,0,4.28515,1.91852,4.28515,4.28514Z" style="fill:#2e3d4d;"/><path d="M34.9628,31.76769c0,.94665-.76741,1.71406-1.71406,1.71406-.94665,0-1.71406-.76741-1.71406-1.71406s.76741-1.71406,1.71406-1.71406c.94665,0,1.71406,.76741,1.71406,1.71406Z" style="fill:#697683;"/></g><g><path d="M15.39261,31.76769c0,2.36662-1.91852,4.28515-4.28515,4.28515-2.36662,0-4.28515-1.91853-4.28515-4.28515s1.91852-4.28514,4.28515-4.28514c2.36662,0,4.28515,1.91852,4.28515,4.28514Z" style="fill:#2e3d4d;"/><path d="M12.82152,31.76769c0,.94665-.76741,1.71406-1.71406,1.71406-.94665,0-1.71406-.76741-1.71406-1.71406s.76741-1.71406,1.71406-1.71406c.94665,0,1.71406,.76741,1.71406,1.71406Z" style="fill:#697683;"/></g><path d="M27.0788,8.22247h-2.85403c-.33975,0-.56795,.3485-.43211,.65991l3.34082,7.65905c.1496,.34296,.48785,.56501,.86202,.56589l3.09958,.00725-4.01628-8.8921Z" style="fill:#313d4c;"/></g></svg>