<?xml version="1.0" encoding="UTF-8"?><svg id="Layer_1" xmlns="http://www.w3.org/2000/svg" viewBox="0 0 40 40"><g><circle cx="20" cy="20" r="17.5" fill="#ffc84d"/><path id="SVGID" d="m9.003,20.022c-.668-.16-1.303.405-1.217,1.087.768,6.065,5.941,10.755,12.214,10.755s11.446-4.691,12.214-10.755c.086-.682-.549-1.247-1.217-1.087-3.229.774-6.985,1.219-10.997,1.219s-7.768-.445-10.997-1.219Z" fill="#ff6d00"/><path d="m19.938,24.203c4.102,0,7.897-1.549,11.002-4.174-3.218.767-6.949,1.211-10.94,1.211-4.059,0-7.855-.456-11.109-1.246,3.113,2.647,6.926,4.209,11.047,4.209Z" fill="#fff"/><g><path d="m8.382,23.484c-.896,1.08-2.499,1.23-3.579.333-1.08-.896-1.23-2.499-.333-3.579s6.129-3.408,6.129-3.408c0,0-1.32,5.573-2.217,6.653Z" fill="#fff"/><path d="m31.766,22.943c.987.998,2.596,1.007,3.595.021.998-.987,1.007-2.596.021-3.595-.987-.998-6.403-2.861-6.403-2.861,0,0,1.801,5.437,2.788,6.435Z" fill="#fff"/></g><path d="m12.194,16.086c-.247.122-.531-.092-.476-.362.305-1.499,1.595-2.625,3.14-2.625s2.835,1.126,3.14,2.625c.055.27-.229.484-.476.362-.539-.266-1.457-.601-2.664-.601s-2.125.335-2.664.601Z"/><path d="m27.806,16.086c.247.122.531-.092.476-.362-.305-1.499-1.595-2.625-3.14-2.625s-2.835,1.126-3.14,2.625c-.055.27.229.484.476.362.539-.266,1.457-.601,2.664-.601s2.125.335,2.664.601Z"/></g><rect width="40" height="40" fill="none"/></svg>