<svg id="Layer_1" data-name="Layer 1" xmlns="http://www.w3.org/2000/svg" viewBox="0 0 40 40"><defs><style>.cls-1{fill:#ac7262;}.cls-2{fill:#474747;}.cls-3{fill:#5e403b;}.cls-4{fill:none;}</style></defs><path class="cls-1" d="M35.419,34.879c0,1.824-6.95,2.722-15.523,2.722S4.373,36.7,4.373,34.879V21.754H35.419Z"/><path class="cls-2" d="M16.127,4.817,2.9,18.936a2.871,2.871,0,0,0,1.533,4.786A83.492,83.492,0,0,0,35.388,23.7a2.871,2.871,0,0,0,1.573-4.742L24.338,4.9A5.571,5.571,0,0,0,16.127,4.817Z"/><path class="cls-3" d="M20.035,27.636a4.572,4.572,0,0,0-4.572,4.572v5.277c1.406.059,2.892.089,4.433.089,1.643,0,3.225-.034,4.711-.1V32.208A4.572,4.572,0,0,0,20.035,27.636Z"/><rect class="cls-4" width="40" height="40"/></svg>