<svg id="Layer_1" data-name="Layer 1" xmlns="http://www.w3.org/2000/svg" viewBox="0 0 40 40"><defs><style>.cls-1{fill:#e32939;}.cls-2{fill:#d0d6de;}.cls-3{fill:#ef4452;}.cls-4{fill:#313d4c;}.cls-5,.cls-6{fill:none;}.cls-5{stroke:#e32939;stroke-miterlimit:10;stroke-width:2.889px;}.cls-6{opacity:0;}.cls-7{fill:#6b7683;}</style></defs><path class="cls-1" d="M13.143,4.093h2.369A1.583,1.583,0,0,1,17.1,5.676V7.648a0,0,0,0,1,0,0H11.56a0,0,0,0,1,0,0V5.676A1.583,1.583,0,0,1,13.143,4.093Z"/><path class="cls-2" d="M36.832,20.26h0L31.725,8.5A3.2,3.2,0,0,0,28.8,6.578H4.266A1.925,1.925,0,0,0,2.34,8.5V22.654H37.658A5.859,5.859,0,0,0,36.832,20.26Z"/><path class="cls-2" d="M2.34,22.654v6.607A1.829,1.829,0,0,0,4.169,31.09H35.831a1.829,1.829,0,0,0,1.829-1.829V22.7c0-.014,0-.027,0-.041Z"/><rect class="cls-3" x="2.34" y="22.654" width="35.32" height="2.287"/><path class="cls-4" d="M32.558,10.419H28.125a.963.963,0,0,0-.963.963V19.3a.963.963,0,0,0,.963.963h8.707Z"/><line class="cls-5" x1="9.618" y1="15.339" x2="19.459" y2="15.339"/><line class="cls-5" x1="14.538" y1="10.419" x2="14.538" y2="20.26"/><rect class="cls-6" width="40" height="40"/><circle class="cls-4" cx="8.847" cy="30.803" r="4.275"/><circle class="cls-7" cx="8.847" cy="30.803" r="1.71"/><circle class="cls-4" cx="31.714" cy="30.803" r="4.275"/><circle class="cls-7" cx="31.714" cy="30.803" r="1.71"/></svg>