<svg id="Layer_1" data-name="Layer 1" xmlns="http://www.w3.org/2000/svg" viewBox="0 0 40 40"><defs><style>.cls-1{fill:#007ff2;}.cls-2{fill:#fff;}.cls-3{fill:none;}</style></defs><rect class="cls-1" x="3.5" y="3.5" width="33" height="33" rx="8"/><path class="cls-2" d="M25.847,30.494H13.694A4.424,4.424,0,0,1,9.27,26.071V19.517a4.424,4.424,0,0,1,4.424-4.424H25.847a4.423,4.423,0,0,1,4.423,4.424v6.554A4.423,4.423,0,0,1,25.847,30.494ZM13.694,15.816a3.7,3.7,0,0,0-3.7,3.7v6.554a3.7,3.7,0,0,0,3.7,3.7H25.847a3.7,3.7,0,0,0,3.7-3.7V19.517a3.7,3.7,0,0,0-3.7-3.7Z"/><path class="cls-2" d="M18.537,11.23a2.26,2.26,0,1,0-.021,1.126h.825l.564-.564.567.564h.6l.564-.564.565.564h.638l.564-.564.564.564h.868l.768-.767V11.23Zm-1.672,1.28a.751.751,0,1,1,.751-.751A.751.751,0,0,1,16.865,12.51Z"/><rect class="cls-2" x="16.54" y="19.534" width="6.489" height="8.503"/><path class="cls-2" d="M15.019,19.534a1.458,1.458,0,0,0-1.458,1.458v5.587a1.458,1.458,0,0,0,1.458,1.458h.55v-8.5Z"/><path class="cls-2" d="M24.525,19.534H24v8.5h.524a1.458,1.458,0,0,0,1.458-1.458V20.992A1.458,1.458,0,0,0,24.525,19.534Z"/><path class="cls-2" d="M22.575,19.952H21.81a2.038,2.038,0,1,0-4.076,0h-.766a2.8,2.8,0,1,1,5.607,0Z"/><rect class="cls-3" width="40" height="40"/></svg>