<svg id="Layer_1" data-name="Layer 1" xmlns="http://www.w3.org/2000/svg" viewBox="0 0 40 40"><defs><style>.cls-1,.cls-4{fill:none;}.cls-2{fill:#e7e7e7;}.cls-3{fill:#d3d3d3;}.cls-4{stroke:#b7b7b7;stroke-linecap:round;stroke-miterlimit:10;stroke-width:2.503px;}</style></defs><rect class="cls-1" width="40" height="40"/><path class="cls-2" d="M20.6,38h8.411a1.361,1.361,0,0,0,1.349-1.546l-1.213-8.9H20.6Z"/><path class="cls-3" d="M6,20.5s10.568,6.966,5.576,15.572a1.282,1.282,0,0,0,1.1,1.93h9.182V20.635Z"/><path class="cls-2" d="M14.939,20.635c0,4.983,4.874,9.022,10.887,9.022s8.884-4.039,8.884-9.022H14.939"/><path class="cls-3" d="M5.29,2.273h8.364a1.284,1.284,0,0,1,1.284,1.284V19.144a1.492,1.492,0,0,1-1.492,1.492h-6.3A1.862,1.862,0,0,1,5.29,18.773V2.273A0,0,0,0,1,5.29,2.273Z" transform="translate(20.229 22.909) rotate(-180)"/><line class="cls-4" x1="14.939" y1="20.635" x2="34.575" y2="20.635"/><line class="cls-4" x1="14.939" y1="20.635" x2="14.939" y2="2"/></svg>