<?xml version="1.0" encoding="UTF-8"?><svg id="a" xmlns="http://www.w3.org/2000/svg" xmlns:xlink="http://www.w3.org/1999/xlink" viewBox="0 0 40 40"><defs><style>.c,.d,.e,.f{fill:none;}.g{fill:#ffb400;}.d,.e{stroke:#48596c;stroke-linecap:round;}.d,.e,.f{stroke-width:2px;}.d,.f{stroke-miterlimit:10;}.e{stroke-linejoin:round;}.f{stroke:#ffa01d;}.h{clip-path:url(#b);}</style><clipPath id="b"><path d="M1.5,14.647v5.331c0,4.314,3.497,7.811,7.811,7.811H26.376c4.314,0,7.811-3.497,7.811-7.811v-5.331c0-1.078-.874-1.953-1.953-1.953H3.453c-1.078,0-1.953,.874-1.953,1.953Z" fill="none"/></clipPath></defs><rect x="0" y="0" width="40" height="40" transform="translate(40 40) rotate(-180)" fill="none"/><g><line x1="24.911" y1="31.397" x2="24.911" y2="25.695" fill="none" stroke="#48596c" stroke-linecap="round" stroke-linejoin="round" stroke-width="2"/><path d="M19.308,31.371l12.747,.039c2.077,.004,4.069-.819,5.538-2.288l.907-.907" fill="none" stroke="#48596c" stroke-linecap="round" stroke-miterlimit="10" stroke-width="2"/><line x1="13.705" y1="31.397" x2="13.705" y2="8.59" fill="none" stroke="#48596c" stroke-linecap="round" stroke-linejoin="round" stroke-width="2"/><line x1="19.308" y1="31.371" x2="1.5" y2="31.41" fill="none" stroke="#48596c" stroke-linecap="round" stroke-miterlimit="10" stroke-width="2"/><line x1="19.308" y1="8.59" x2="7.05" y2="8.629" fill="none" stroke="#48596c" stroke-linecap="round" stroke-miterlimit="10" stroke-width="2"/><path d="M1.5,14.647v5.331c0,4.314,3.497,7.811,7.811,7.811H26.376c4.314,0,7.811-3.497,7.811-7.811v-5.331c0-1.078-.874-1.953-1.953-1.953H3.453c-1.078,0-1.953,.874-1.953,1.953Z" fill="#ffb400"/><g clip-path="#b"><line x1="1.5" y1="17.726" x2="34.187" y2="17.726" fill="none" stroke="#ffa01d" stroke-miterlimit="10" stroke-width="2"/><line x1="1.5" y1="22.758" x2="34.187" y2="22.758" fill="none" stroke="#ffa01d" stroke-miterlimit="10" stroke-width="2"/></g></g></svg>