<?xml version="1.0" encoding="UTF-8"?><svg id="Layer_1" xmlns="http://www.w3.org/2000/svg" viewBox="0 0 40 40"><g><path d="M10.84003,12.82007c0,.02991,.00995,.04993,0,.07983l-1.66003,3.22009c-.06-.04004-.13-.04993-.19-.06995-.57001-.22998-1.19-.09009-1.45996,.37988-.31006,.52002-.05005,1.23999,.57996,1.6001,.28003,.15991,.58002,.20996,.85999,.17993l-.08997,1.27002c-1.12-.16992-2.17999-.33008-3.14001-.47998-.62-.71997-.98999-1.64001-.97998-2.66003,.02997-2.08997,1.67999-3.80994,3.73999-3.96997v-.01001c.03998-.01001,.08002,0,.12-.01001h.16998c.91003-.02991,1.56,.20007,1.94,.30994,.08002,.02002,.11005,.09009,.11005,.16016Z" style="fill:#333;"/><path d="M10.84003,12.82007c0,.02991,.00995,.04993,0,.07983l-1.66003,3.22009c-.06-.04004-.13-.04993-.19-.06995-.57001-.22998-1.19-.09009-1.45996,.37988-.31006,.52002-.05005,1.23999,.57996,1.6001,.28003,.15991,.58002,.20996,.85999,.17993l-.08997,1.27002c.88,.13,1.82001,.27002,2.79999,.41003,.98999-.76001,1.64001-1.94006,1.64001-3.28003,0-1.70007-1.02002-3.15002-2.47998-3.78992Zm1.44,2.97998c-.17004,.05994-.41003-.14014-.53003-.46008s-.08002-.63,.09003-.69006c.16998-.06995,.39996,.14014,.51996,.45007,.13,.31995,.09003,.63-.07996,.70007Z" style="fill:#ffcca8;"/><path d="M27.3847,3.35828c-.14276-.14954-.37982-.15515-.52942-.01233l-.66577,.6355-4.21313,.55493,.01343,.01416c.30005,.01074,1.52728,1.05957,2.88947,2.48633,1.36206,1.42688,2.3526,2.70142,2.34961,3.00171l.01349,.01416,.74982-4.18286,.66577-.6355c.14966-.14282,.15515-.37988,.01233-.52942l-.14435-.15125-.85901-.89978-.28223-.29565Z" style="fill:#cad5e6;"/><path d="M19.75592,20.88745c.42566,.04272,.85339,.08496,1.28979,.125-.00726-.08411-.02533-.16504-.02533-.25098,0-.62476,.20001-1.20068,.53424-1.67554-.54468-.22913-.97131-.67554-1.18402-1.22852-.05042-.00354-.09845-.01514-.14978-.01514-.76404,0-1.43353,.39526-1.82214,.99072,.72052,.44189,1.22827,1.18311,1.35724,2.05444Z" style="fill:#dde4f0;"/><path d="M21.55463,19.08594c-.33423,.47485-.53424,1.05078-.53424,1.67554,0,.08594,.01807,.16687,.02533,.25098,1.81763,.16699,3.73029,.30908,5.72961,.41467,.05029-.21472,.08331-.43567,.08331-.66565,0-.20557-.02228-.40552-.06262-.599-.24438-1.17114-1.19226-2.07605-2.38043-2.27209-.15576-.02576-.31299-.0481-.47607-.0481-.98743,0-1.85663,.49341-2.38489,1.24365Z" style="fill:#d1d8e3;"/><g><path d="M21.55463,19.08594c.52826-.75024,1.39746-1.24365,2.38489-1.24365,.16309,0,.32031,.02234,.47607,.0481,.1012-.25122,.15997-.52441,.15997-.81177,0-1.20264-.97485-2.17749-2.17737-2.17749s-2.17737,.97485-2.17737,2.17749c0,.27539,.05652,.53625,.14978,.77881,.21271,.55298,.63934,.99939,1.18402,1.22852Z" style="fill:#e4ebf7;"/><path d="M26.77533,21.42712c.81482,.04309,1.63971,.08179,2.48383,.11145h.35828c-.28046-.87842-1.09357-1.51892-2.06494-1.51892-.26715,0-.52002,.05481-.75647,.14282,.04034,.19348,.06262,.39343,.06262,.599,0,.22998-.03302,.45093-.08331,.66565Z" style="fill:#e4ebf7;"/><path d="M19.75592,20.88745c-.12897-.87134-.63672-1.61255-1.35724-2.05444-.4436-.27222-.96027-.43701-1.5188-.43701-1.23035,0-2.27802,.76343-2.70758,1.84045,1.73907,.23022,3.60565,.45276,5.58362,.651Z" style="fill:#e4ebf7;"/></g><g><path d="M32.24396,20.34253c0-.18774,.15234-.34009,.34015-.34009h3.01318v1.53613h1.18451c.01697,0,.03296,.00317,.04962,.00415V10.63062c0-1.39319,0-5.09399-3.2608-7.30505-1.40558-.953-3.01514-1.08362-4.65479-.37793-.49677,.21387-.91772,.47266-1.2489,.7063l.85901,.89978c.94098-.62695,2.6347-1.37097,4.35211-.20667,2.71924,1.84375,2.71924,4.95508,2.71924,6.28357v8.06323h-3.94427c-.46008,0-.83301,.3728-.83301,.83301v2.01172h1.42395v-1.19604Z" style="fill:#a3acba;"/><path d="M24.87927,7.03687c-1.36218-1.42676-2.58942-2.47559-2.88947-2.48633-.02228-.00085-.05194-.01001-.06354,.00098-.16772,.16016,.88239,1.53247,2.34552,3.06519,1.4632,1.53284,2.78528,2.64551,2.953,2.48535,.0116-.01099,.00385-.04114,.00409-.06348,.00299-.30029-.98755-1.57483-2.34961-3.00171Z" style="fill:#a3acba;"/></g><g><path d="M9.01892,35.80566c-.47656,.72815,.04572,1.69434,.91589,1.69434h.6792c.59167,0,1.14355-.29834,1.46759-.79346l.94965-1.45068c-1.08832-.37915-2.01196-.8324-2.76459-1.3562l-1.24774,1.90601Z" style="fill:#acb6c4;"/><path d="M29.98102,36.70654c.3241,.49512,.87592,.79346,1.46765,.79346h.67914c.87018,0,1.39252-.96619,.91589-1.69434l-1.16876-1.7854c-.76129,.68701-1.61029,1.26086-2.55426,1.67749l.66034,1.00879Z" style="fill:#acb6c4;"/></g><path d="M36.92731,21.55103c-.03125-.00488-.06372-.0061-.09589-.0083-.01666-.00098-.03265-.00415-.04962-.00415h-7.52264c-.84412-.02966-1.66901-.06836-2.48383-.11145-1.99933-.10559-3.91199-.24768-5.72961-.41467-.4364-.04004-.86414-.08228-1.28979-.125-1.97797-.19824-3.84454-.42078-5.58362-.651-.86475-.1145-1.69135-.23035-2.49506-.34558-.97937-.14062-1.91235-.27905-2.79877-.41296-1.12115-.16943-2.17371-.33069-3.14172-.474-.75598-.11206-1.46674-.21411-2.12665-.3009-.08527-.01123-.16815-.01135-.24817-.00293-.0448-.00391-.09009-.00623-.13593-.00623-.85376,0-1.5459,.69214-1.5459,1.5459,0,.84949,.68536,1.53882,1.53333,1.54553,2.28406,5.47278,3.39313,7.72253,5.38086,10.505,.42084,.58911,.97919,1.12695,1.67236,1.60938,.75262,.5238,1.67627,.97705,2.76459,1.3562,3.06232,1.06714,7.47241,1.52832,13.42279,1.15503,1.04462-.06543,1.99231-.32715,2.86664-.71313,.94397-.41663,1.79297-.99048,2.55426-1.67749,2.84955-2.57104,4.48499-6.64941,5.32043-9.44373,.64886-.18347,1.12451-.77966,1.12451-1.4873,0-.802-.61078-1.4613-1.39258-1.53821Z" style="fill:#abb7c7;"/><path d="M12.27728,15.79663c.16962-.06482,.2085-.37524,.08691-.69312-.12158-.31812-.35767-.52332-.52722-.4585-.16962,.06494-.20856,.37524-.08691,.69324,.12158,.31799,.3576,.52332,.52722,.45837Z"/></g><rect width="40" height="40" style="fill:none;"/></svg>