<?xml version="1.0" encoding="UTF-8"?><svg id="Layer_1" xmlns="http://www.w3.org/2000/svg" viewBox="0 0 40 40"><g><g><path id="SVGID" d="M26.51066,4.83946c-.6036-.53633-1.54692-.36313-1.92433,.3507l-1.59388,3.01464c-.28237,.53407-.83695,.86818-1.44108,.86818h-3.20478c-.60412,0-1.15871-.33411-1.44108-.86818l-1.5939-3.01468c-.3774-.71381-1.32071-.887-1.92428-.35065C8.24284,9.41106,1.9491,15.98341,1.9491,20.7822c0,8.11449,8.05875,14.69221,18,14.69221s18-6.57772,18-14.69221c0-4.79881-6.2938-11.37146-11.43844-15.94274Z" style="fill:#ffb72d;"/><path d="M37.64346,18.83266l-3.38329,1.72463c-.78332,.39924-.78332,1.51836,0,1.91761l3.20772,1.63502c.30434-1.07085,.48121-2.18132,.48121-3.32773,0-.62239-.11007-1.2757-.30564-1.94954Z"/><path d="M2.25474,18.83266l3.38329,1.72463c.78332,.39924,.78332,1.51836,0,1.91761l-3.20772,1.63502c-.30434-1.07085-.48121-2.18132-.48121-3.32773,0-.62239,.11007-1.2757,.30564-1.94954Z"/></g><path d="M19.04957,18.7802h1.79906c.88139,0,1.35192,.82374,.77073,1.34928l-.89953,.81338c-.40836,.36925-1.13309,.36925-1.54145,0l-.89953-.81338c-.5812-.52553-.11066-1.34928,.77073-1.34928Z" style="fill:#ff5e01;"/><g><circle cx="15.72928" cy="16.79795" r="1.88382"/><path d="M26.37416,17.45742c.22245,.08659,.45142-.11951,.38369-.34841-.37638-1.27188-1.57559-2.14686-2.91007-2.03011s-2.36353,1.18668-2.51333,2.5046c-.02696,.23718,.23432,.40039,.43836,.27649,.44528-.2704,1.21337-.62948,2.25524-.72063s1.86064,.12909,2.34612,.31807Z"/></g><path d="M20.56634,25.96151c.44722-.2876,1.23497-.68684,1.23497-1.49232,0-.44185-.41845-1.06268-1.48004-1.38304-.34689-.10468-.58875-.17353-.58568-.37492s.2088-.23266,.53973-.23266c.32176,0,2.7694,.43347,2.86284,1.97255,.06851,1.12848-.69825,1.59144-1.31544,2.05727,.61719,.46585,1.4689,1.30392,1.40256,2.24384-.12013,1.70191-2.07192,2.10606-2.82292,2.10606-.44399,0-.71392-.03838-.74356-.22885s.16174-.27841,.66175-.4769c.83369-.33096,1.42105-.85303,1.42105-1.54519,0-.89627-.80538-1.42794-1.17681-1.66372s-.60882-.32266-.60128-.49261c.00884-.19924,.23903-.25555,.60283-.4895Z" style="fill:#ff5e00;"/><path d="M30.00138,34.85544c-.38946,.09316-.7949-.05441-1.03335-.37611-.75705-1.02133-2.35663-3.38555-2.65076-5.48669-.38804-2.77205,1.90405-4.5619,3.81821-3.8652,1.0913,.3972,1.54054,1.2064,1.72511,1.82872,.09728,.32801,.4754,.46563,.76076,.27689,.54141-.35809,1.40569-.68921,2.49699-.29201,1.91416,.6967,2.51951,3.54113,.44041,5.41522-1.5759,1.42051-4.32094,2.20342-5.55737,2.49918Z" style="fill:#f5172b;"/></g><rect x="-.0509" width="40" height="40" style="fill:none;"/></svg>