<?xml version="1.0" encoding="UTF-8"?><svg id="Layer_1" xmlns="http://www.w3.org/2000/svg" viewBox="0 0 40 40"><g><g><path id="SVGID" d="m26.562,4.839c-.604-.536-1.547-.363-1.924.351l-1.594,3.015c-.282.534-.837.868-1.441.868h-3.205c-.604,0-1.159-.334-1.441-.868l-1.594-3.015c-.377-.714-1.321-.887-1.924-.351C8.294,9.411,2,15.983,2,20.782c0,8.114,8.059,14.692,18,14.692s18-6.578,18-14.692c0-4.799-6.294-11.371-11.438-15.943Z" fill="#ffb72d"/><path d="m37.694,18.833l-3.383,1.725c-.783.399-.783,1.518,0,1.918l3.208,1.635c.304-1.071.481-2.181.481-3.328,0-.622-.11-1.276-.306-1.95Z"/><path d="m2.306,18.833l3.383,1.725c.783.399.783,1.518,0,1.918l-3.208,1.635c-.304-1.071-.481-2.181-.481-3.328,0-.622.11-1.276.306-1.95Z"/></g><path d="m19.1,18.78h1.799c.881,0,1.352.824.771,1.349l-.9.813c-.408.369-1.133.369-1.541,0l-.9-.813c-.581-.526-.111-1.349.771-1.349Z" fill="#ff5e01"/><g><g><path id="SVGID-2" d="m11.96,22.456c-.999,0-1.461.748-1.263,1.555.875,3.573,4.704,6.263,9.295,6.263s8.421-2.69,9.295-6.263c.198-.807-.062-1.476-1.061-1.476l-16.267-.079Z" fill="#ff6d00"/><path d="m28.226,22.536c-1.727,1.294-4.702,2.148-8.081,2.148-3.449,0-6.475-.889-8.185-2.227l16.267.079Z" fill="#fff"/></g><g><path d="m14.883,20.159c.239.158.548.158.788,0,.76-.502,2.415-1.701,3.128-3.043.94-1.77-.164-3.536-1.623-3.536-.832,0-1.332.435-1.609.808-.146.197-.434.197-.58,0-.277-.374-.777-.808-1.609-.808-1.459,0-2.563,1.766-1.623,3.536.713,1.342,2.368,2.541,3.128,3.043Z" fill="#f5172b"/><path d="m25.117,20.159c-.239.158-.548.158-.788,0-.76-.502-2.415-1.701-3.128-3.043-.94-1.77.164-3.536,1.623-3.536.832,0,1.332.435,1.609.808.146.197.434.197.58,0,.277-.374.777-.808,1.609-.808,1.459,0,2.563,1.766,1.623,3.536-.713,1.342-2.368,2.541-3.128,3.043Z" fill="#f5172b"/></g></g></g><rect width="40" height="40" fill="none"/></svg>