<?xml version="1.0" encoding="UTF-8"?><svg id="Layer_1" xmlns="http://www.w3.org/2000/svg" viewBox="0 0 40 40"><g><circle cx="20" cy="20" r="17.5" style="fill:#ffc84d;"/><path d="M28.27912,20.09925c.26185,.09132,.56285-.0689,.50471-.27111-.32307-1.12357-1.69114-1.96736-3.32981-1.96736-1.63867,0-3.00675,.84379-3.32981,1.96736-.05814,.20221,.24286,.36243,.50471,.27111,.57146-.1993,1.54574-.45063,2.8251-.45063,1.27936,0,2.25364,.25134,2.8251,.45063Z"/><path d="M11.72088,20.09925c-.26185,.09132-.56285-.0689-.50471-.27111,.32307-1.12357,1.69114-1.96736,3.32981-1.96736s3.00675,.84379,3.32981,1.96736c.05814,.20221-.24286,.36243-.50471,.27111-.57146-.1993-1.54574-.45063-2.8251-.45063s-2.25364,.25134-2.8251,.45063Z"/><path d="M9.28878,9.35843s-2.81952,3.02482-2.81952,5.46477c0,1.557,1.26262,2.81617,2.81952,2.81654,1.5569-.00037,2.81952-1.25953,2.81952-2.81654,0-2.43996-2.81952-5.46477-2.81952-5.46477Z" style="fill:#fff;"/><path d="M20,27.89418c-1.63727,0-2.91495,.28299-3.78693,.56822-.4523,.14795-.82231-.38961-.52762-.76327,.78719-.99813,2.17397-2.18668,4.31455-2.18668s3.52735,1.18855,4.31455,2.18668c.29469,.37366-.07532,.91122-.52762,.76327-.87198-.28523-2.14966-.56822-3.78693-.56822Z" style="fill:#f80;"/></g><rect width="40" height="40" style="fill:none;"/></svg>