<?xml version="1.0" encoding="UTF-8"?><svg id="Layer_1" xmlns="http://www.w3.org/2000/svg" viewBox="0 0 40 40"><g><path id="SVGID" d="m26.529,4.329c-.601-.534-1.54-.362-1.915.348l-1.586,2.999c-.281.531-.833.864-1.434.864h-3.188c-.601,0-1.153-.332-1.434-.864l-1.586-2.999c-.376-.71-1.315-.882-1.915-.348C8.353,8.877,2.5,15.415,2.5,20.189c0,5.899,9.344,12.018,14.376,14.886,1.939,1.105,4.308,1.105,6.247,0,5.032-2.868,14.376-8.987,14.376-14.886,0-4.774-5.853-11.312-10.971-15.86Z" fill="#ffb72d"/><path d="m6.17,19.966l-3.382-1.724c-.184.673-.288,1.326-.288,1.948,0,1.047.299,2.1.811,3.141l2.859-1.457c.779-.397.779-1.511,0-1.908Z"/><path d="m37.212,18.241l-3.382,1.724c-.779.397-.779,1.511,0,1.908l2.859,1.457c.512-1.041.811-2.095.811-3.141,0-.622-.104-1.275-.288-1.948Z"/><path d="m19.506,21.894h.989c.484,0,.743.453.423.741l-.494.447c-.224.203-.623.203-.847,0l-.494-.447c-.319-.289-.061-.741.423-.741Z" fill="#ff5e00"/><g><ellipse cx="14.491" cy="17.728" rx="4.243" ry="3.615" transform="translate(-7.123 25.282) rotate(-70)" fill="#fff"/><ellipse cx="25.509" cy="17.728" rx="3.615" ry="4.243" transform="translate(-4.525 9.794) rotate(-20)" fill="#fff"/></g><rect x="17.356" y="24.51" width="5.289" height="8.603" rx="2.644" ry="2.644" fill="#ff6d00"/><path d="m7.177,35.69c-1.186-.441-1.491-1.604-1.311-2.682.457-2.743-.694-5.411-1.055-7.009-.274-1.214.963-2.419,2.966-1.4,1.827.929,3.829,5.103,4.273,9.082.087.78-.317,1.552-1.034,1.87-.956.424-2.472.645-3.838.138Z" fill="#ff9210"/><path d="m32.823,35.69c1.186-.441,1.491-1.604,1.311-2.682-.457-2.743.694-5.411,1.055-7.009.274-1.214-.963-2.419-2.966-1.4-1.827.929-3.829,5.103-4.273,9.082-.087.78.317,1.552,1.034,1.87.956.424,2.472.645,3.838.138Z" fill="#ff9210"/></g><rect width="40" height="40" fill="none"/></svg>