<?xml version="1.0" encoding="UTF-8"?><svg id="Layer_1" xmlns="http://www.w3.org/2000/svg" viewBox="0 0 40 40"><path d="m4.436,30.595v2.835h2.675c1.566,0,2.835,1.269,2.835,2.835h0s5.768,0,5.768,0h0c0-1.566,1.269-2.835,2.835-2.835h1.775c1.566,0,2.835,1.269,2.835,2.835h0s5.768,0,5.768,0h0c0-1.566,1.269-2.835,2.835-2.835h2.675v-2.835H4.436Z" fill="#6b7683"/><g><path d="m30.56,30.595H4.433v-11.691h28.038s2.42,4.191,2.42,4.191c1.925,3.333-.481,7.5-4.33,7.5Z" fill="#cbcfd2"/><path d="m25.159,6.234l7.315,12.67H4.436V5.734c0-1.105.895-2,2-2h14.393c1.786,0,3.437.953,4.33,2.5Z" fill="#cbcfd2"/><path d="m25.66,7.102l6.814,11.802h-9.543c-1.105,0-2-.895-2-2v-8.246c0-.859.697-1.556,1.556-1.556h3.173Z" fill="#313d4c"/><path d="m33.266,23.186h1.672c.425.771.622,1.582.627,2.375h-2.299c-.656,0-1.187-.531-1.187-1.188,0-.656.532-1.187,1.188-1.187Z" fill="#fff"/><path d="m4.433,7.102h12.053c1.104,0,2,.896,2,2v7.802c0,1.104-.896,2-2,2H4.433V7.102h0Z" fill="#313d4c"/></g></svg>