<?xml version="1.0" encoding="UTF-8"?><svg id="Layer_1" xmlns="http://www.w3.org/2000/svg" viewBox="0 0 40 40"><g><path d="M34.62275,3.26948c.57321-.33094,1.32526-.07925,1.55545,.54132,1.22926,3.31396-.07144,7.12847-3.23534,8.95515-3.1639,1.82668-7.11771,1.04587-9.37306-1.67568-.42233-.50963-.26428-1.28678,.30893-1.61772l10.74402-6.20306Z" style="fill:#b3202d;"/><path d="M5.37725,3.26948c-.57321-.33094-1.32526-.07925-1.55545,.54132-1.22926,3.31396,.07144,7.12847,3.23534,8.95515,3.1639,1.82668,7.11771,1.04587,9.37306-1.67568,.42233-.50963,.26428-1.28678-.30893-1.61772L5.37725,3.26948Z" style="fill:#b3202d;"/><circle cx="20" cy="20" r="17" style="fill:#e32939;"/><path d="M20,30.20113c2.65443,0,4.46822-.58131,5.28591-.91234,.2309-.09348,.44504,.15531,.32695,.37464-.63154,1.17303-2.97992,2.34128-5.61287,2.34128s-4.98133-1.16825-5.61287-2.34128c-.11809-.21933,.09606-.46812,.32695-.37464,.81769,.33104,2.63149,.91234,5.28591,.91234Z" style="fill:#731019;"/><circle cx="24.61026" cy="24.30936" r="2.10405"/><path d="M24.25004,21.78809c-1.36499,.78808-1.82331,1.92523-1.72889,2.68171,.0438,.35092,.2909,.38163,.49966,.08097,.33147-.47739,1.00904-.85446,2.0661-1.46475,.96378-.96378,2.07225-1.35389,2.46568-1.48088,.34834-.11244,.38724-.37998,.07389-.45764-.59256-.14686-2.01146-.14748-3.37645,.6406"/><circle cx="15.38974" cy="24.30936" r="2.10405"/><path d="M15.74996,21.78809c1.36499,.78808,1.82331,1.92523,1.72889,2.68171-.0438,.35092-.2909,.38163-.49966,.08097-.33147-.47739-1.00904-.85446-2.0661-1.46475-.96378-.96378-2.07225-1.35389-2.46568-1.48088-.34834-.11244-.38724-.37998-.07389-.45764,.59256-.14686,2.01146-.14748,3.37645,.6406"/></g><rect width="40" height="40" style="fill:none;"/></svg>