<?xml version="1.0" encoding="UTF-8"?><svg id="Layer_1" xmlns="http://www.w3.org/2000/svg" viewBox="0 0 40 40"><path d="M26.08258,21.59882l5.47241-1.77808c-.03265-2.11005-.6366-4.07928-1.65863-5.77222l-5.59583,1.81818c-.62341,.20258-1.263-.26215-1.263-.9176v-6.09497c-.96979-.26471-1.98499-.41833-3.03754-.41833-1.02637,0-2.01672,.14746-2.96478,.3996v6.03717c0,.65552-.63959,1.12018-1.263,.91766l-5.61774-1.82532c-1.03674,1.68494-1.65399,3.64984-1.70447,5.75726l5.39465,1.75281c.62341,.20258,.86768,.95447,.48242,1.48474l-3.21606,4.42645c1.2901,1.54993,2.98145,2.74719,4.90765,3.45691l3.11938-4.2934c.38531-.53033,1.1759-.53033,1.56116,0l3.15363,4.34052c1.93677-.68744,3.63806-1.86993,4.94568-3.40454l-3.19836-4.4021c-.38531-.53033-.14099-1.28223,.48242-1.48474Zm-6.08258,.74573c-1.29486,0-2.3446-1.04974-2.3446-2.34454,0-1.29492,1.04974-2.3446,2.3446-2.3446s2.3446,1.04968,2.3446,2.3446c0,1.2948-1.04974,2.34454-2.3446,2.34454Z" style="fill:#939da4;"/><path d="M20,3C10.62604,3,3,10.62634,3,20.00018s7.62604,16.99982,17,16.99982,17-7.62598,17-16.99982S29.37396,3,20,3Zm8.79852,24.48566c-1.30762,1.53461-3.00891,2.7171-4.94568,3.40454-1.20728,.42853-2.50043,.67395-3.85284,.67395-1.40063,0-2.73785-.26288-3.98132-.72107-1.92621-.70972-3.61755-1.90698-4.90765-3.45691-1.66876-2.00488-2.67511-4.57953-2.67511-7.38593,0-.09387,.01184-.18475,.0141-.27808,.05048-2.10742,.66772-4.07233,1.70447-5.75726,1.53455-2.49408,3.98291-4.35889,6.88074-5.12952,.94806-.25214,1.93842-.3996,2.96478-.3996,1.05255,0,2.06775,.15363,3.03754,.41833,2.89844,.79114,5.34064,2.67944,6.85883,5.1944,1.02203,1.69293,1.62598,3.66217,1.65863,5.77222,.00092,.06036,.00909,.1189,.00909,.1795,0,2.85468-1.04498,5.46613-2.76556,7.48541Z" style="fill:#3e4245;"/></svg>