<?xml version="1.0" encoding="UTF-8"?><svg id="Layer_1" xmlns="http://www.w3.org/2000/svg" viewBox="0 0 40 40"><g><g><circle cx="20" cy="20" r="17.5" fill="#ffc84d"/><path d="m26.254,29.425c-.409,0-.804-.169-1.086-.465l-2.045-2.146-2.035,2.143c-.564.594-1.612.593-2.175,0l-2.035-2.143-2.046,2.146c-.281.295-.677.465-1.085.465h-.001c-.409,0-.805-.171-1.086-.468l-2.759-2.905c-.38-.4-.364-1.033.037-1.414.4-.379,1.033-.364,1.414.037l2.398,2.524,2.045-2.145c.281-.295.677-.465,1.085-.465h0c.409,0,.805.17,1.086.467l2.035,2.143,2.034-2.142c.282-.297.678-.467,1.087-.467h0c.408,0,.804.17,1.086.465l2.045,2.145,2.398-2.524c.382-.4,1.015-.416,1.414-.037.401.38.417,1.013.037,1.414l-2.76,2.905c-.281.296-.677.467-1.086.467h-.001Z" fill="#ff6d00"/></g><g><path d="m15.523,19.688c-.097,0-.194-.004-.291-.013-.9-.079-1.711-.511-2.284-1.217-.592-.73-.82-1.465-.739-2.384.055-.624.344-1.198.815-1.614.433-.383,1.042-.58,1.628-.534.561.046,1.068.316,1.428.761.367.453.515,1.021.453,1.736-.036.413-.396.719-.812.682-.413-.036-.718-.4-.682-.812.036-.411-.054-.574-.124-.661-.104-.129-.231-.198-.387-.211-.207-.019-.405.069-.511.163-.182.161-.294.381-.315.622-.047.535.06.877.41,1.308.314.388.758.625,1.25.668.529.043,1.076-.138,1.499-.504.409-.355.66-.854.709-1.406.064-.874-.197-1.721-.739-2.39-.524-.646-1.263-1.041-2.082-1.113-.864-.08-1.719.209-2.4.801-.662.575-1.069,1.381-1.146,2.272-.071.819.22,1.78.743,2.447.255.326.198.798-.128,1.053-.326.255-.798.198-1.053-.128-.756-.965-1.161-2.308-1.056-3.503.112-1.28.7-2.443,1.657-3.274.992-.861,2.239-1.276,3.515-1.162,1.227.107,2.334.698,3.116,1.663.798.984,1.176,2.231,1.064,3.512h0c-.093.923-.523,1.759-1.215,2.361-.652.566-1.484.878-2.322.878Z"/><path d="m25.527,19.858c-.136,0-.272-.006-.409-.018-1.227-.107-2.334-.698-3.116-1.663-.798-.984-1.176-2.231-1.064-3.512h0c.093-.923.523-1.759,1.215-2.361.727-.632,1.67-.946,2.613-.866.9.079,1.711.511,2.284,1.217.592.73.82,1.465.739,2.385-.055.624-.344,1.197-.815,1.613-.434.384-1.041.582-1.629.535-.561-.047-1.068-.317-1.427-.761-.368-.454-.516-1.021-.453-1.737.036-.413.391-.722.812-.682.413.036.718.4.682.812-.036.411.054.575.124.662.104.128.23.197.387.21.201.016.405-.069.511-.163.182-.161.293-.381.314-.621.047-.535-.06-.877-.41-1.309-.314-.388-.758-.625-1.25-.668-.534-.045-1.077.137-1.499.504-.409.355-.66.854-.709,1.406-.064.874.197,1.721.739,2.39.524.646,1.263,1.041,2.082,1.113.866.077,1.718-.209,2.4-.801.662-.575,1.069-1.381,1.146-2.272.071-.819-.22-1.78-.743-2.447-.255-.326-.198-.798.128-1.053.326-.255.798-.198,1.053.128.756.965,1.161,2.308,1.056,3.503-.112,1.28-.7,2.443-1.657,3.274-.885.769-1.975,1.18-3.106,1.18Z"/></g></g><rect width="40" height="40" fill="none"/></svg>