<?xml version="1.0" encoding="UTF-8"?><svg id="a" xmlns="http://www.w3.org/2000/svg" viewBox="0 0 40 40"><rect y="0" width="40" height="40" fill="none"/><g><path d="M13.282,23.479H31.934c.13,0,.254,.022,.38,.038l3.129-14.238c.25-1.14-.617-2.218-1.784-2.218H8.902l3.442,15.664c.098,.444,.483,.754,.938,.754Z" fill="#cbcfd2"/><g><path d="M34.684,27.512c-.282-.06-.574-.094-.874-.094-1.5,0-2.806,.795-3.546,1.98-.401,.643-.643,1.396-.643,2.209,0,2.313,1.876,4.189,4.189,4.189s4.189-1.876,4.189-4.189c0-2.014-1.422-3.693-3.316-4.095Zm-.874,5.771c-.925,0-1.676-.75-1.676-1.676s.75-1.676,1.676-1.676,1.676,.75,1.676,1.676-.75,1.676-1.676,1.676Z" fill="#313d4c"/><path d="M11.078,27.418c-.069,0-.133,.017-.201,.02-2.218,.107-3.988,1.924-3.988,4.169,0,2.313,1.876,4.189,4.189,4.189s4.189-1.876,4.189-4.189c0-.814-.242-1.567-.643-2.209-.74-1.185-2.046-1.98-3.546-1.98Zm0,5.865c-.925,0-1.676-.75-1.676-1.676s.75-1.676,1.676-1.676,1.676,.75,1.676,1.676-.75,1.676-1.676,1.676Z" fill="#313d4c"/></g><g><path d="M33.811,27.418c.3,0,.591,.034,.874,.094,.131-.334,.209-.694,.209-1.074,0-1.502-1.129-2.733-2.58-2.922-.126-.016-.25-.038-.38-.038H13.282c-.454,0-.84-.31-.938-.754l-3.442-15.664-.337-1.533c-.302-1.368-1.49-2.324-2.891-2.324H2c-.553,0-1,.448-1,1s.447,1,1,1h3.675c.454,0,.84,.31,.938,.754l3.779,17.197c.302,1.368,1.49,2.324,2.891,2.324H31.934c.529,0,.96,.431,.96,.96s-.431,.959-.96,.959H11.078c-.071,0-.134,.026-.201,.041,.068-.003,.132-.02,.201-.02,1.5,0,2.806,.795,3.546,1.98h15.641c.74-1.185,2.046-1.98,3.546-1.98Z" fill="#6b7683"/><g><path d="M33.811,29.932c-.925,0-1.676,.75-1.676,1.676s.75,1.676,1.676,1.676,1.676-.75,1.676-1.676-.75-1.676-1.676-1.676Z" fill="#6b7683"/><path d="M11.078,29.932c-.925,0-1.676,.75-1.676,1.676s.75,1.676,1.676,1.676,1.676-.75,1.676-1.676-.75-1.676-1.676-1.676Z" fill="#6b7683"/></g></g></g></svg>