<?xml version="1.0" encoding="UTF-8"?><svg id="Layer_1" xmlns="http://www.w3.org/2000/svg" viewBox="0 0 40 40"><g><circle cx="20" cy="20" r="17.5" fill="#ffc84d"/><circle cx="20" cy="26.338" r="4" fill="#ff6d00"/><g><path d="m16.405,16.813l1.333-1.333c.391-.391.391-1.024,0-1.415-.391-.391-1.024-.391-1.415,0l-1.333,1.333-1.333-1.333c-.391-.391-1.024-.391-1.415,0-.391.391-.391,1.024,0,1.415l1.333,1.333-1.333,1.333c-.391.391-.391,1.024,0,1.415.391.391,1.024.391,1.415,0l1.333-1.333,1.333,1.333c.391.391,1.024.391,1.415,0,.391-.391.391-1.024,0-1.415l-1.333-1.333Z"/><path d="m26.424,16.813l1.333-1.333c.391-.391.391-1.024,0-1.415s-1.024-.391-1.415,0l-1.333,1.333-1.333-1.333c-.391-.391-1.024-.391-1.415,0s-.391,1.024,0,1.415l1.333,1.333-1.333,1.333c-.391.391-.391,1.024,0,1.415s1.024.391,1.415,0l1.333-1.333,1.333,1.333c.391.391,1.024.391,1.415,0s.391-1.024,0-1.415l-1.333-1.333Z"/></g></g><rect width="40" height="40" fill="none"/></svg>