<?xml version="1.0" encoding="UTF-8"?><svg id="Layer_1" xmlns="http://www.w3.org/2000/svg" viewBox="0 0 40 40"><g><path d="M36.44922,5.85449h.00098c.41357,0,.74951-.33496,.75-.74902s-.33496-.75-.74902-.75098l-32.61719-.0459h-.00098c-.41357,0-.74951,.33496-.75,.74902s.33496,.75,.74902,.75098l15.43243,.02173,1.47308,.0022,15.71167,.02197Z" style="fill:#6b7683;"/><path d="M31.69873,34.19775c-1.25635,0-2.37488-.55176-3.15704-1.41455H11.45831c-.78217,.86279-1.9007,1.41455-3.15704,1.41455s-2.37488-.55176-3.15704-1.41455H3.06348c-.46924,0-.8501,.37988-.8501,.84961s.38086,.84961,.8501,.84961H36.93652c.46924,0,.8501-.37988,.8501-.84961s-.38086-.84961-.8501-.84961h-2.08075c-.78217,.86279-1.9007,1.41455-3.15704,1.41455Z" style="fill:#6b7683;"/></g><path d="M22.75635,8.55859c.09375-.09375,.14648-.2207,.14648-.35352s-.05273-.25977-.14648-.35352l-2.0188-2.01904-1.47308-.0022-2.02081,2.02124c-.09375,.09375-.14648,.2207-.14648,.35352s.05273,.25977,.14648,.35352l2.2439,2.24341h1.0249l2.2439-2.24341Zm-2.75635-2.0498l1.6958,1.69629-1.6958,1.69531-1.6958-1.69531,1.6958-1.69629Z" style="fill:#65778e;"/><g><path d="M8.30127,34.19775c1.25635,0,2.37488-.55176,3.15704-1.41455,.62646-.69116,1.02203-1.58374,1.08899-2.573h-2.56494c-.13721,.80688-.83514,1.42261-1.68109,1.42261s-1.54382-.61572-1.68103-1.42261h-2.56494c.06696,.98926,.46252,1.88184,1.08893,2.573,.78217,.86279,1.9007,1.41455,3.15704,1.41455Z" style="fill:#313d4c;"/><path d="M31.69873,31.63281c-.84595,0-1.54388-.61572-1.68109-1.42261h-2.56494c.06696,.98926,.46252,1.88184,1.08899,2.573,.78217,.86279,1.9007,1.41455,3.15704,1.41455s2.37488-.55176,3.15704-1.41455c.6264-.69116,1.02197-1.58374,1.08893-2.573h-2.56494c-.13721,.80688-.83508,1.42261-1.68103,1.42261Z" style="fill:#313d4c;"/></g><g><path d="M8.30127,31.63281c.84595,0,1.54388-.61572,1.68109-1.42261h-3.36212c.13721,.80688,.83508,1.42261,1.68103,1.42261Z" style="fill:#6b7683;"/><path d="M31.69873,31.63281c.84595,0,1.54382-.61572,1.68103-1.42261h-3.36212c.13721,.80688,.83514,1.42261,1.68109,1.42261Z" style="fill:#6b7683;"/></g><path d="M35.08661,10.802H4.91339c-1.57397,0-2.84998,1.27637-2.84998,2.8501H37.93658c0-1.57373-1.276-2.8501-2.84998-2.8501Z" style="fill:#4b596a;"/><path d="M2.06,13.6499v14.66016c0,1.0498,.84998,1.8999,1.90002,1.8999H36.03998c1.05005,0,1.90002-.8501,1.90002-1.8999V13.6499H2.06Zm9.10999,10.54004h-3.70996c-.23004,0-.44-.08984-.61005-.22998-.22998-.17993-.38995-.44995-.38995-.77002v-5.93994c0-.56006,.44995-1,1-1h3.70996c.54999,0,1,.43994,1,1v5.93994c0,.32007-.14996,.59009-.38995,.77002-.17004,.14014-.37006,.22998-.61005,.22998Zm7.12,0h-3.69995c-.24005,0-.45001-.08984-.62006-.22998-.22998-.17993-.37994-.44995-.37994-.77002v-5.93994c0-.56006,.44-1,1-1h3.69995c.56,0,1,.43994,1,1v5.93994c0,.32007-.14996,.59009-.38,.77002-.17999,.14014-.37994,.22998-.62,.22998Zm7.12,0h-3.69995c-.24005,0-.44-.08984-.62-.22998-.23004-.17993-.38-.44995-.38-.77002v-5.93994c0-.56006,.44-1,1-1h3.69995c.56,0,1,.43994,1,1v5.93994c0,.32007-.14996,.59009-.37994,.77002-.17004,.14014-.38,.22998-.62006,.22998Zm7.13,0h-3.70996c-.23999,0-.44-.08984-.61005-.22998-.23999-.17993-.38995-.44995-.38995-.77002v-5.93994c0-.56006,.45001-1,1-1h3.70996c.55005,0,1,.43994,1,1v5.93994c0,.32007-.15997,.59009-.38995,.77002-.17004,.14014-.38,.22998-.61005,.22998Z" style="fill:#ffb72d;"/><g><path d="M11.17267,24.19067c.23456,0,.44086-.09326,.61139-.22852,.23102-.18311,.38861-.45386,.38861-.77148v-5.94409c0-.55225-.44775-1-1-1h-3.7088c-.55231,0-1,.44775-1,1v5.94409c0,.31763,.15759,.58838,.38861,.77148,.17053,.13525,.37683,.22852,.61139,.22852h3.7088Z" style="fill:#313d4c;"/><path d="M18.29382,24.19067c.23456,0,.44086-.09326,.61139-.22852,.23102-.18311,.38861-.45386,.38861-.77148v-5.94409c0-.55225-.44775-1-1-1h-3.7088c-.55231,0-1,.44775-1,1v5.94409c0,.31763,.15759,.58838,.38861,.77148,.17053,.13525,.37683,.22852,.61139,.22852h3.7088Z" style="fill:#313d4c;"/><path d="M25.41498,24.19067c.23456,0,.44086-.09326,.61139-.22852,.23102-.18311,.38861-.45386,.38861-.77148v-5.94409c0-.55225-.44769-1-1-1h-3.7088c-.55225,0-1,.44775-1,1v5.94409c0,.31763,.15759,.58838,.38861,.77148,.17053,.13525,.37683,.22852,.61139,.22852h3.7088Z" style="fill:#313d4c;"/><path d="M32.53613,24.19067c.23456,0,.44086-.09326,.61139-.22852,.23102-.18311,.38861-.45386,.38861-.77148v-5.94409c0-.55225-.44769-1-1-1h-3.7088c-.55225,0-1,.44775-1,1v5.94409c0,.31763,.15759,.58838,.38861,.77148,.17053,.13525,.37683,.22852,.61139,.22852h3.7088Z" style="fill:#313d4c;"/></g></svg>