<?xml version="1.0" encoding="UTF-8"?><svg id="Layer_1" xmlns="http://www.w3.org/2000/svg" viewBox="0 0 40 40"><rect x="6.458" y="20.672" width="27.085" height="10.851" fill="#ffb72d"/><rect x="6.458" y="23.466" width="27.085" height="8.056" fill="#ff8f00"/><path d="m26.856,31.522h6.686v1.972c0,.874-.709,1.583-1.583,1.583h-3.519c-.874,0-1.583-.709-1.583-1.583v-1.972h0Z" fill="#333d4b"/><path d="m6.458,31.522h6.686v1.972c0,.874-.709,1.583-1.583,1.583h-3.519c-.874,0-1.583-.709-1.583-1.583v-1.972h0Z" fill="#333d4b"/><path d="m6.458,20.672l.059-11.184h26.965l.061,11.184" fill="#313d4c"/><path d="m33.542,9.488v-.037c-.034-1.55-1.3-2.789-2.85-2.789H9.308c-1.551,0-2.817,1.24-2.849,2.79v.036" fill="#ffb72d"/><path d="m28.62,27.488H11.38c-.656,0-1.188-.531-1.188-1.188s.532-1.188,1.188-1.188h17.239c.656,0,1.188.531,1.188,1.188s-.532,1.188-1.188,1.188Z" fill="#fff"/></svg>