<?xml version="1.0" encoding="UTF-8"?><svg id="Layer_1" xmlns="http://www.w3.org/2000/svg" viewBox="0 0 40 40"><g><circle cx="20" cy="20" r="17.5" fill="#9cc0ff"/><path d="m2.5,20c0,9.665,7.835,17.5,17.5,17.5s17.5-7.835,17.5-17.5S2.5,10.335,2.5,20Z" fill="#ffc84d"/><path d="m13.453,10.484c1.14-.532,1.676-1.1,2.122-1.607.257-.292.621-.158.618.258-.007.899-.562,2.12-2.056,2.817-1.494.696-2.786.337-3.479-.236-.321-.265-.19-.631.2-.64.675-.015,1.455-.061,2.595-.592Z"/><path d="m26.547,10.484c-1.14-.532-1.676-1.1-2.122-1.607-.257-.292-.621-.158-.618.258.007.899.562,2.12,2.056,2.817,1.494.696,2.786.337,3.479-.236.321-.265.19-.631-.2-.64-.675-.015-1.455-.061-2.595-.592Z"/><path d="m9.567,19.449s-2.82,3.025-2.82,5.465c0,1.557,1.263,2.816,2.82,2.817,1.557,0,2.82-1.26,2.82-2.817,0-2.44-2.82-5.465-2.82-5.465Z" fill="#fff"/><path d="m20,27.766c-2.108,0-3.85.288-5.189.638-1.087.284-1.856-1.034-1.069-1.835,1.347-1.372,3.386-2.684,6.258-2.684s4.911,1.313,6.258,2.684c.787.801.018,2.119-1.069,1.835-1.339-.35-3.081-.638-5.189-.638Z" fill="#ff6d00"/><circle cx="15.422" cy="17.507" r="2.114"/><circle cx="24.578" cy="17.507" r="2.114"/></g><rect width="40" height="40" fill="none"/></svg>