<?xml version="1.0" encoding="UTF-8"?><svg id="Layer_1" xmlns="http://www.w3.org/2000/svg" viewBox="0 0 40 40"><path d="M33.00281,34.9913l3.53641-3.48313c1.48819-1.4696,1.50326-3.86737,.03366-5.35556L14.01591,3.31033c-1.4696-1.48819-3.86737-1.50326-5.35556-.03366l-3.53641,3.48313,27.87887,28.2315Z" style="fill:#ff8f00;"/><path d="M13.37772,37.43761L2.70157,26.62642c-.61224-.61998-.43327-1.65818,.35121-2.03739l4.05179-1.9586c.62163-.30049,1.36555-.17225,1.85068,.31903l8.17772,8.28116c.48514,.49128,.60402,1.23675,.29574,1.85455l-2.00937,4.02686c-.38904,.77965-1.4294,.94556-2.04164,.32558Z" style="fill:#ff8f00;"/><g><rect x="28.62263" y="9.76191" width="1.04437" height="2.23063" transform="translate(16.40578 -17.50325) rotate(45.36008)" style="fill:#703f00;"/><path d="M24.47136,4.96914h0c.2947-.29102,.77411-.27202,1.04486,.0414l4.27428,4.94789-.3971,.39214-4.89377-4.33613c-.30999-.27467-.32296-.75428-.02826-1.0453Z" style="fill:#703f00;"/><path d="M34.85311,15.48221h0c.2947-.29102,.28173-.77063-.02826-1.0453l-4.89377-4.33613-.3971,.39214,4.27428,4.94789c.27075,.31342,.75016,.33241,1.04486,.0414Z" style="fill:#703f00;"/></g><path d="M7.85414,32.49186h0c-.3685-.3685-.424-.94654-.13236-1.37843L19.01093,14.39587c.38241-.54972,.87638-1.01267,1.4497-1.35867l4.91149-2.96412c.63945-.38591,1.45965-.28601,1.98778,.24211l2.21057,2.21057c.52867,.52867,.62817,1.34994,.24103,1.98956l-3.02783,5.00251c-.31658,.52304-.73084,.98028-1.22021,1.34678l-16.30398,11.74084c-.43295,.31177-1.02808,.26367-1.40534-.11358Z" style="fill:#ffc74d;"/><rect width="40" height="40" style="fill:none;"/></svg>