<?xml version="1.0" encoding="UTF-8"?><svg id="Layer_1" xmlns="http://www.w3.org/2000/svg" viewBox="0 0 40 40"><g><circle cx="20" cy="20" r="17.5" fill="#ffc84d"/><path d="m28.279,20.099c.262.091.563-.069.505-.271-.323-1.124-1.691-1.967-3.33-1.967-1.639,0-3.007.844-3.33,1.967-.058.202.243.362.505.271.571-.199,1.546-.451,2.825-.451,1.279,0,2.254.251,2.825.451Z"/><path d="m11.721,20.099c-.262.091-.563-.069-.505-.271.323-1.124,1.691-1.967,3.33-1.967s3.007.844,3.33,1.967c.058.202-.243.362-.505.271-.571-.199-1.546-.451-2.825-.451s-2.254.251-2.825.451Z"/><path d="m9.289,9.358s-2.82,3.025-2.82,5.465c0,1.557,1.263,2.816,2.82,2.817,1.557,0,2.82-1.26,2.82-2.817,0-2.44-2.82-5.465-2.82-5.465Z" fill="#fff"/><path d="m20,27.894c-1.637,0-2.915.283-3.787.568-.452.148-.822-.39-.528-.763.787-.998,2.174-2.187,4.315-2.187s3.527,1.189,4.315,2.187c.295.374-.075.911-.528.763-.872-.285-2.15-.568-3.787-.568Z" fill="#ff6d00"/></g><rect width="40" height="40" fill="none"/></svg>