<?xml version="1.0" encoding="UTF-8"?><svg id="Layer_1" xmlns="http://www.w3.org/2000/svg" viewBox="0 0 40 40"><rect y="0" width="40" height="40" style="fill:none;"/><g><path d="M17.81354,33.47314c3.02173,1.2937,6.5899,1.20898,9.65564-.56104,3.05121-1.76147,4.90552-4.78882,5.30798-8.03491-3.98535,4.00342-9.48798,7.16724-14.96362,8.59595Z" style="fill:#3182f6;"/><path d="M28.22406,5.63892c-2.25012,0-4.61682,.39062-6.97449,1.09033,2.63116,.7312,4.98975,2.4502,6.46301,5.00195l-.00653,.00391c.85492,1.38794,.77216,3.32544-.45947,5.4729-2.41785,4.21533-8.33807,7.63623-13.22632,7.63623-2.48792,0-4.22131-.88916-5.01019-2.31494l-.0058,.00317c-1.4823-2.56738-1.78851-5.48999-1.08966-8.14722-1.82977,1.71924-3.38135,3.60938-4.51978,5.59424-4.53815,7.91211-.79187,14.33276,8.38287,14.33276,1.95154,0,3.99097-.30566,6.03583-.83911,5.47565-1.42871,10.97827-4.59253,14.96362-8.59595,1.52356-1.53052,2.8371-3.17505,3.8252-4.89771,4.54242-7.91943,.79645-14.34058-8.3783-14.34058ZM9.13538,29.78003c-.61554,.35547-1.40259,.14453-1.758-.47095-.35535-.61548-.14447-1.40259,.47107-1.75806,.61554-.35522,1.40265-.14453,1.758,.47095,.35541,.61572,.14447,1.40283-.47107,1.75806Zm7.30829,.31348c-.61548,.35547-1.40259,.14453-1.758-.47095-.35535-.61572-.14447-1.40283,.47107-1.75806,.61554-.35547,1.40265-.14453,1.758,.47095,.35541,.61572,.14447,1.40259-.47107,1.75806Zm7.69208-2.95483c-.61554,.35522-1.40259,.14429-1.758-.47119-.35535-.61548-.14447-1.40259,.47107-1.75806,.61554-.35522,1.40265-.14453,1.758,.47095,.35541,.61572,.14447,1.40283-.47107,1.7583Zm5.11823-7.41333c.61554-.35522,1.40259-.14429,1.758,.47119,.35535,.61548,.14447,1.40259-.47107,1.75806-.61554,.35522-1.40265,.14429-1.758-.47119-.35541-.61548-.14447-1.40259,.47107-1.75806Zm4.66968-4.25659c-.61554,.35522-1.40265,.14429-1.758-.47119-.35541-.61548-.14447-1.40259,.47107-1.75806,.61548-.35522,1.40259-.14429,1.758,.47119,.35535,.61548,.14447,1.40259-.47107,1.75806Z" style="fill:#333d4b;"/><path d="M22.78271,9.56738c-.91425,0-1.86456,.11987-2.82135,.34204,.26593,.60278,.05725,1.31958-.53088,1.65918-.62982,.36353-1.43268,.1521-1.79333-.47266-.07196-.12451-.10413-.25879-.13129-.39258-3.30103,1.34473-6.37262,3.75098-7.95197,6.50464-1.18726,2.06982-1.30493,3.94531-.54382,5.32129,.78888,1.42578,2.52228,2.31494,5.01019,2.31494,4.88824,0,10.80847-3.4209,13.22632-7.63623,1.23163-2.14746,1.31439-4.08496,.45947-5.4729-.82495-1.3396-2.52277-2.16772-4.92334-2.16772Z" style="fill:#93c9ff;"/><path d="M19.43048,11.5686c.58813-.3396,.79681-1.0564,.53088-1.65918-.01886-.04272-.01965-.08887-.04352-.13013-.36066-.62451-1.16351-.83618-1.79333-.47266-.50415,.29102-.72778,.85986-.61865,1.39673,.02716,.13379,.05933,.26807,.13129,.39258,.36066,.62476,1.16351,.83618,1.79333,.47266Z" style="fill:#fff;"/><g><path d="M9.00427,22.53247l.0058-.00317c-.76111-1.37598-.64343-3.25146,.54382-5.32129,1.57935-2.75366,4.65094-5.15991,7.95197-6.50464-.10913-.53687,.1145-1.10571,.61865-1.39673,.62982-.36353,1.43268-.15186,1.79333,.47266,.02386,.04126,.02466,.0874,.04352,.13013,.95679-.22217,1.9071-.34204,2.82135-.34204,2.40057,0,4.09839,.82812,4.92334,2.16772l.00653-.00391c-1.47327-2.55176-3.83185-4.27075-6.46301-5.00195-2.69568-.74902-5.67743-.46094-8.29175,1.04858-2.59869,1.50024-4.33582,3.91797-5.04321,6.60742-.69885,2.65723-.39264,5.57983,1.08966,8.14722Z" style="fill:#64a7ff;"/><path d="M24.60681,25.38037c-.35535-.61548-1.14246-.82617-1.758-.47095-.61554,.35547-.82642,1.14258-.47107,1.75806,.35541,.61548,1.14246,.82642,1.758,.47119,.61554-.35547,.82648-1.14258,.47107-1.7583Z" style="fill:#64a7ff;"/><path d="M15.15674,27.8645c-.61554,.35522-.82642,1.14233-.47107,1.75806,.35541,.61548,1.14252,.82642,1.758,.47095,.61554-.35547,.82648-1.14233,.47107-1.75806-.35535-.61548-1.14246-.82642-1.758-.47095Z" style="fill:#64a7ff;"/><path d="M7.84845,27.55103c-.61554,.35547-.82642,1.14258-.47107,1.75806,.35541,.61548,1.14246,.82642,1.758,.47095,.61554-.35522,.82648-1.14233,.47107-1.75806-.35535-.61548-1.14246-.82617-1.758-.47095Z" style="fill:#64a7ff;"/><path d="M30.54089,21.95459c.61554-.35547,.82642-1.14258,.47107-1.75806-.35541-.61548-1.14246-.82642-1.758-.47119-.61554,.35547-.82648,1.14258-.47107,1.75806,.35535,.61548,1.14246,.82642,1.758,.47119Z" style="fill:#64a7ff;"/><path d="M32.63672,13.2395c-.61554,.35547-.82648,1.14258-.47107,1.75806,.35535,.61548,1.14246,.82642,1.758,.47119,.61554-.35547,.82642-1.14258,.47107-1.75806-.35541-.61548-1.14252-.82642-1.758-.47119Z" style="fill:#64a7ff;"/></g></g></svg>