<svg id="Layer_1" data-name="Layer 1" xmlns="http://www.w3.org/2000/svg" viewBox="0 0 40 40"><defs><style>.cls-1,.cls-4{fill:none;}.cls-1{opacity:0;}.cls-2{fill:#3f3f3f;}.cls-3{fill:#fff;}.cls-4{stroke:#ef4452;stroke-miterlimit:10;stroke-width:3px;}.cls-5{fill:#ef4452;}</style></defs><rect class="cls-1" width="40" height="40"/><circle class="cls-2" cx="20" cy="20" r="15.2"/><rect class="cls-3" x="13.934" y="22.748" width="13.013" height="4.017"/><path class="cls-3" d="M11.7,22.748a1.1,1.1,0,0,0-1.1,1.1v1.817a1.1,1.1,0,0,0,1.1,1.1h3.891V22.748Z"/><path class="cls-3" d="M29.3,22.748H28.046v4.017H29.3a1.1,1.1,0,0,0,1.1-1.1V23.848A1.1,1.1,0,0,0,29.3,22.748Z"/><path class="cls-3" d="M14.44,10.792v1.78a5.909,5.909,0,0,0,5.91,5.909h3.435a4.266,4.266,0,0,1,4.267,4.267h1.386V19.541a5.231,5.231,0,0,0-5.23-5.23h0a2.593,2.593,0,0,1-2.593-2.593v-.926a1.1,1.1,0,0,0-1.1-1.1H15.54A1.1,1.1,0,0,0,14.44,10.792Z"/><line class="cls-4" x1="31.055" y1="8.321" x2="8.322" y2="31.054"/><path class="cls-5" d="M20,5.5A14.5,14.5,0,1,1,5.5,20,14.517,14.517,0,0,1,20,5.5m0-3A17.5,17.5,0,1,0,37.5,20,17.5,17.5,0,0,0,20,2.5Z"/></svg>