<svg id="Layer_1" data-name="Layer 1" xmlns="http://www.w3.org/2000/svg" viewBox="0 0 40 40"><defs><style>.cls-1{fill:none;}.cls-2{fill:#ffc84d;}.cls-3{fill:#cb8c00;}.cls-4{fill:#fff;}</style></defs><rect class="cls-1" width="40" height="40"/><circle class="cls-2" cx="20" cy="20" r="17.5"/><path d="M12.194,16.2a.334.334,0,0,1-.476-.362,3.19,3.19,0,0,1,6.279,0,.334.334,0,0,1-.476.362,6.193,6.193,0,0,0-5.327,0Z"/><path d="M27.806,16.2a.334.334,0,0,0,.476-.362,3.19,3.19,0,0,0-6.279,0,.334.334,0,0,0,.476.362,6.193,6.193,0,0,1,5.327,0Z"/><polygon class="cls-3" points="31.353 23.408 30.666 24.781 20 28 9.334 24.781 8.647 23.408 31.353 23.408"/><path class="cls-4" d="M20,24.617a52.448,52.448,0,0,0,11.353-1.209,12.222,12.222,0,0,0,.853-3.186,1,1,0,0,0-1.215-1.085A47.7,47.7,0,0,1,20,20.355,47.689,47.689,0,0,1,9.011,19.137a1,1,0,0,0-1.217,1.087,12.207,12.207,0,0,0,.853,3.184A52.448,52.448,0,0,0,20,24.617Z"/><path class="cls-4" d="M20,25.817A54.488,54.488,0,0,1,9.334,24.781a12.283,12.283,0,0,0,21.332,0A54.488,54.488,0,0,1,20,25.817Z"/></svg>