<?xml version="1.0" encoding="UTF-8"?><svg id="Layer_1" xmlns="http://www.w3.org/2000/svg" viewBox="0 0 40 40"><g opacity="0"><rect width="40" height="40" fill="none"/></g><g><rect x="3.5" y="3.5" width="33" height="33" rx="8" ry="8" fill="#4592fb"/><g><path d="m24.262,11.57c.929,0,1.682-.753,1.682-1.682s-.753-1.682-1.682-1.682-1.682.753-1.682,1.682.753,1.682,1.682,1.682Z" fill="#fff"/><path d="m26.967,12.701h0s-.006,0-.006,0h-5.266v.005c-.552-.035-1.108.204-1.447.691l-1.269,1.819h-2.902c-.587,0-1.063.476-1.063,1.063s.476,1.063,1.063,1.063h3.676c.21,0,.406-.103.527-.275l1.417-2.03v15.572c0,.655.531,1.186,1.186,1.186h0c.655,0,1.186-.531,1.186-1.186v-8.649h.527v8.622c0,.655.531,1.186,1.186,1.186s1.186-.531,1.186-1.186v-9.37c.017.515.435.929.954.929.53,0,.96-.43.96-.96v-6.559c0-1.059-.857-1.917-1.914-1.92Z" fill="#fff"/><polygon points="17.965 30.547 13.097 30.547 12.189 22.894 11.118 22.894 12.153 31.61 18.909 31.61 19.944 22.894 18.873 22.894 17.965 30.547" fill="#fff"/><rect x="14.519" y="19.779" width="2.027" height="2.787" rx=".796" ry=".796" transform="translate(-10.422 17.184) rotate(-45)" fill="#fff"/></g></g></svg>