<?xml version="1.0" encoding="UTF-8"?><svg id="Layer_1" xmlns="http://www.w3.org/2000/svg" viewBox="0 0 40 40"><g><g><path d="M28.29474,15.5459c.43512-.36169,.98682-.58789,1.5968-.58789,.5968,0,1.13763,.2168,1.56854,.56445l-1.27032-1.69312c-.69611-.92786-2.08783-.92773-2.78387,0l-1.09515,1.45984c.17963,.09229,.37531,.15442,.58051,.1676l1.4035,.08911Z" style="fill:#7bd58f;"/><path d="M39.86346,29.39087c0-1.73132-.56171-3.41602-1.60071-4.8009l-6.04425-8.05652c.11664,.28955,.18445,.60449,.18445,.93591,0,1.35413-1.07391,2.45007-2.41528,2.50159l-.00073,.01196-.07196-.00464-.02344,.00244c-.03534,0-.06812-.00891-.10309-.01038l-.38251-.02429-1.14362,1.88013,1.4256,3.12939c.78302-.29468,1.62714-.46362,2.5119-.46362,3.78717,0,6.88879,2.95752,7.1369,6.68347,.32404-.35535,.52673-.82373,.52673-1.34265v-.44189Z" style="fill:#7bd58f;"/><path d="M8.46008,24.49194c1.24353,0,2.41327,.3197,3.43341,.87964l2.45709-3.84326c.09027-.14087,.24615-.22656,.41376-.22656h.82404l-1.2749-1.29956c-3.20996-3.27209-2.01843-8.76147,2.25922-10.40833l2.26813-.87317-.48859-.65125c-.2793,.00256-.55792-.00122-.83044-.01404-.91846-.04346-1.88568-.47534-2.61975-.99805-.01624,.01978-.0365,.03369-.05206,.05444l-.31738,.4231-.77307,1.03052L1.73724,24.58997c-1.039,1.38489-1.60071,3.0697-1.60071,4.80103v.44177c0,.80444,.47772,1.49341,1.16248,1.81079,.00574-3.94434,3.21588-7.15161,7.16107-7.15161Z" style="fill:#7bd58f;"/><path d="M22.41547,21.30176h5.01617l.86737-1.4259-1.68176-.10669c-1.80432-.11487-3.47681-1.08313-4.47424-2.59033l-.57367-.86743-.17041-.25549c-.49225-.7384-1.51868-.88135-2.19391-.30566h0c-.65283,.55664-.69788,1.54968-.09808,2.16309l2.73907,2.80151,.31152,.29309c.0968,.09106,.16864,.19788,.25793,.29382Z" style="fill:#7bd58f;"/><path d="M8.0462,31.38916l3.31635-5.18713c-.86609-.46313-1.8537-.72766-2.90247-.72766-3.40723,0-6.1792,2.77246-6.1792,6.17969,0,.0603,.00732,.11877,.00903,.17871h5.72211c-.05646-.14209-.05438-.30505,.03418-.4436Z" style="fill:#7bd58f;"/><path d="M16.15002,29.05127l2.54187-2.7771,.00208,.00195,.22046-.3125c.34766-.41992,.30914-1.04138-.08777-1.41479l-.53577-.50415-.0061,.00586-.14606-.14893-1.25525-1.18091,.04736-.05029-.37848-.38599h-1.5191l-2.31665,3.62354c1.75818,1.30627,2.9046,3.39209,2.9046,5.74609,0,.0603-.00757,.11865-.00903,.17871h2.78741l-2.21631-2.02856c-.2171-.19873-.23199-.53577-.03326-.75293Z" style="fill:#7bd58f;"/><path d="M29.20074,26.25574c-1.8941,1.05701-3.17963,3.07947-3.17963,5.39832,0,.0603,.00732,.11877,.00903,.17871h5.71136l-2.54077-5.57703Z" style="fill:#7bd58f;"/><path d="M32.19983,25.47437c-.73956,0-1.44598,.13745-2.10388,.37683l2.55072,5.59924c.05737,.12598,.05591,.26294,.00909,.38232h5.2077c.17731,0,.34607-.03052,.50977-.07373,.00061-.03528,.00531-.06958,.00531-.10498,0-3.40723-2.77197-6.17969-6.17871-6.17969Z" style="fill:#7bd58f;"/><path d="M28.7912,25.35669l-1.39966-3.07227h-4.23877c1.23175,2.06226,1.13464,4.73706-.42328,6.69238l-.44,.62964,.48749,2.22632h2.27075c-.00146-.06006-.00903-.11841-.00903-.17871,0-2.71582,1.51935-5.08337,3.7525-6.29736Z" style="fill:#7bd58f;"/><path d="M14.62976,31.83276c.00171-.05994,.00903-.11841,.00903-.17871,0-2.00659-.9657-3.7876-2.45203-4.91724l-3.25806,5.09595h5.70105Z" style="fill:#7bd58f;"/></g><g><path d="M24.26001,7.63c-.29999,.13-.57001,.33997-.75,.63-.10999,.18994-.16998,.38989-.19,.58997l-1.22998-.30994h-.01001c-.01001-.18005-.01001-.36011,0-.54004,.01001-.03003,.01001-.06006,.01996-.09009,0-.05994,.01001-.11987,.02002-.17993-.71997,.10999-2.26001,.33008-3.77002,.34009-.27997,0-.56,0-.82996-.01001-.92004-.05005-1.88-.4801-2.62-1-.57001-.41016-1-.87012-1.14001-1.25-.07001-.20007,.14996-.37012,.33997-.27002,1.31,.71997,1.92004,.06995,3.75,.03003,1.60004-.04004,3.55005,1.23999,4.34003,1.80994,.01001-.02002,.02002-.05005,.02002-.06995,.00995-.03003,.00995-.06006,.01996-.1001l.03003-.06006c.02997-.10986,.07001-.21997,.12-.31995l1.88,.80005Z" style="fill:#523725;"/><path d="M25.90613,9.33936c-.00781,.01294-.02118,.02051-.02936,.0332h2.44202l-2.23291-.95715c.05444,.2948,.00348,.62048-.17975,.92395Z" style="fill:#523725;"/></g><g><path d="M29.35999,9.82007l-1.03998-.45007h-2.44c0-.01001,.02002-.02002,.02997-.03003,.18005-.29993,.23004-.63,.18005-.92004l-1.83002-.78992c-.29999,.13-.57001,.33997-.75,.63-.10999,.18994-.16998,.38989-.19,.58997l-1.22998-.30994v.02002l-.76001,.07996c.29999,.09998,.57996,.25989,.83997,.44995,.39001,.29004,.73004,.65002,.98004,1.09998l.75,1.38013c.28998,.17993,.58997,.33984,.92999,.43994,1.89996,.56006,3.87-.41003,4.63-2.18994-.03003,0-.07001,.00989-.10004,0Zm-1.72998,1.10986c-.28003,.18005-.59003,.20007-.69,.04004-.09998-.15991,.03998-.42993,.32001-.62,.27997-.18005,.58997-.20007,.69-.03992,.09998,.15991-.04004,.43994-.32001,.61987Z" style="fill:#c3846c;"/><path d="M29.98999,19.96997v.01001h-.08002c.03003,0,.05005-.01001,.08002-.01001Z" style="fill:#c3846c;"/><path d="M22.15753,21.00793l-.31152-.29309,.00916,.00928-3.56427,3.32056,.53577,.50415c.39691,.37341,.43542,.99487,.08777,1.41479l-.22046,.3125,3.58478,3.28113,.01074,.04919,.44-.62964c1.55792-1.95532,1.65503-4.63013,.42328-6.69238-.20807-.34827-.45245-.67627-.7373-.98267-.08929-.09595-.16113-.20276-.25793-.29382Z" style="fill:#c3846c;"/><polygon points="16.88348 22.7207 18.13873 23.90161 16.93085 22.67041 16.88348 22.7207" style="fill:#c3846c;"/><path d="M32.40002,17.46997c0,1.3501-1.07001,2.44995-2.41003,2.5-.02997,0-.04999,.01001-.08002,.01001h-.01996c-.03003,0-.07001-.01001-.10004-.01001l-.38-.02002-1.10999-.06995-1.67999-.10999c-1.81-.12012-3.47998-1.08008-4.47998-2.59009l-.52002-.78992,3.70001-2.22009-.07001-.11987,.5,.73999c.14001,.21997,.34003,.37988,.56,.5,.17999,.08997,.38,.1499,.58002,.16992l1.39996,.09009c.44-.37012,.99005-.59009,1.60004-.59009,.59998,0,1.14001,.20996,1.57001,.56006,.32996,.27002,.59998,.60999,.75995,1.01001,.12006,.29004,.18005,.60999,.18005,.93994Z" style="fill:#c3846c;"/></g><g><path d="M12.71997,25.90991l2.31006-3.62988h1.51996l-.95996-.97998h-.83002c-.16003,0-.32001,.08997-.41003,.22998l-2.45996,3.83997c-1.02002-.55994-2.19-.88-3.42999-.88-3.95001,0-7.16003,3.20996-7.16003,7.15002v.00989c0,3.95007,3.21002,7.17017,7.16003,7.17017,3.88995,0,7.06-3.12012,7.14996-6.99011,0-.05994,.01001-.12,.01001-.18005,0-2.34985-1.15002-4.43994-2.90002-5.73999Zm1.91003,5.92004c-.09998,3.32996-2.82001,6-6.16998,6s-6.07001-2.67004-6.17004-6c0-.05994-.00995-.12-.00995-.18005,0-3.3999,2.76996-6.17993,6.17999-6.17993,1.04999,0,2.03998,.27002,2.89996,.72998l-3.31,5.19006c-.08997,.14001-.08997,.29993-.03998,.43994,.03998,.09998,.09998,.18005,.19,.24011,.21997,.13989,.52997,.07983,.66998-.15015l.06-.08997,3.26001-5.08997c1.47998,1.13,2.45001,2.90991,2.45001,4.90991,0,.06006-.01001,.12012-.01001,.18005Z" style="fill:#4e5968;"/><path d="M39.34003,31.17993c-.25-3.72998-3.35004-6.68994-7.14001-6.68994-.88,0-1.73004,.16992-2.51001,.46997l-1.42999-3.13,1.14996-1.88-1.10999-.06995-.87,1.42004h-5.01001c.28003,.30994,.52002,.63989,.73004,.97998h4.23999l1.39996,3.07996c-2.22998,1.21008-3.75,3.57996-3.75,6.28992,0,.06006,.01001,.12012,.01001,.18005,.09003,3.87,3.26001,6.99011,7.15002,6.99011,3.95001,0,7.15997-3.22009,7.15997-7.17017,0-.15991-.01001-.31995-.01996-.46997Zm-.97003,.58008c-.04999,3.35999-2.79999,6.06995-6.16998,6.06995-3.35004,0-6.07001-2.67004-6.16998-6,0-.05994-.01001-.12-.01001-.18005,0-2.30994,1.28998-4.33984,3.17999-5.38989l2.53998,5.56995,.01001,.03003c.09003,.18005,.26001,.28992,.45001,.28992,.07001,0,.14001-.0199,.20001-.04993,.12-.04993,.20996-.15002,.25995-.27002,.04004-.12,.04004-.25-.00995-.38l-2.55005-5.59998c.65002-.23999,1.36005-.38,2.10004-.38,3.40997,0,6.17999,2.78003,6.17999,6.17993,0,.04004-.01001,.07007-.01001,.11011Z" style="fill:#4e5968;"/><path d="M22.27875,29.55725l-3.58478-3.28113-.00208-.00195-2.54187,2.7771c-.19873,.21716-.18384,.5542,.03326,.75293l2.21631,2.02856,2.83282,2.5929c.2171,.19873,.5542,.18384,.75293-.03333l.26294-.28735c.51923-.56714,.73022-1.35144,.5658-2.10266l-.03711-.16956-.48749-2.22632-.01074-.04919Z" style="fill:#4e5968;"/></g><g><path d="M23.146,10.1875c-.24493-.44873-.58618-.81042-.97711-1.09485-.25964-.18884-.53802-.34778-.83789-.45544-.73529-.26355-1.56189-.27393-2.33899,.02527l-.15118,.05823-2.26813,.87317c-4.27765,1.64685-5.46918,7.13623-2.25922,10.40833l1.2749,1.29956,.96399,.98267,.37848,.38599,1.20789,1.2312,.14606,.14893,.0061-.00586,3.56427-3.32056-.00916-.00928-2.73907-2.80151c-.59979-.6134-.55475-1.60645,.09808-2.16309h0c.67523-.57568,1.70166-.43274,2.19391,.30566l.17041,.25549,.05133,.07703,3.70068-2.21533-.0694-.12708-1.34875-2.47119-.7572-1.38733Z" style="fill:#eb4346;"/><path d="M24.25604,7.6311l1.82983,.7843,2.23291,.95715,1.04431,.44763c.03113,.01331,.06232,.00061,.09436,.0022,.10901,.00562,.21655-.03333,.26672-.13721,.75397-1.55969,.61304-3.40393-.3692-4.83093l-.17694-.25696c-.54071-.78552-1.49457-1.17737-2.43134-.99866l-4.26379,.81299c-1.19775,.22827-1.37616,1.86951-.25543,2.34985l.14972,.06421,1.87885,.80542Z" style="fill:#eb4346;"/></g><path d="M27.25952,10.35461c-.27911,.18164-.42181,.45728-.31873,.61572,.10309,.15833,.4129,.13953,.69202-.04211s.42181-.45728,.31879-.61572c-.10309-.15833-.41296-.13953-.69208,.04211Z"/></g><rect width="40" height="40" style="fill:none;"/></svg>