<svg id="Layer_1" data-name="Layer 1" xmlns="http://www.w3.org/2000/svg" viewBox="0 0 40 40"><defs><style>.cls-1{fill:#ffc84d;}.cls-2,.cls-3{fill:none;}.cls-2{stroke:#f80;stroke-linecap:round;stroke-miterlimit:10;stroke-width:2px;}</style></defs><circle class="cls-1" cx="20" cy="20" r="17.5"/><path class="cls-2" d="M11.624,28.364l1.76,1.9a.5.5,0,0,0,.728,0l2.4-2.521a.5.5,0,0,1,.725,0l2.4,2.524a.5.5,0,0,0,.726,0l2.4-2.524a.5.5,0,0,1,.725,0l2.4,2.521a.5.5,0,0,0,.728,0l1.76-1.9"/><path d="M18.05,21c0,1.055-2.609,2.435-5.05,3.221-.336.108-.633-.216-.416-.456l1.657-1.831a1.351,1.351,0,0,0,0-1.868l-1.658-1.831c-.217-.24.08-.564.417-.456C15.44,18.564,18.05,19.945,18.05,21Z"/><path d="M21.95,21c0,1.055,2.609,2.435,5.05,3.221.336.108.633-.216.416-.456l-1.657-1.831a1.351,1.351,0,0,1,0-1.868l1.658-1.831c.217-.24-.08-.564-.417-.456C24.56,18.564,21.95,19.945,21.95,21Z"/><rect class="cls-3" width="40" height="40"/></svg>