<?xml version="1.0" encoding="UTF-8"?><svg id="Layer_1" xmlns="http://www.w3.org/2000/svg" viewBox="0 0 40 40"><g><circle cx="20" cy="20" r="17.5" style="fill:#ffc84d;"/><path id="SVGID" d="M27.30691,29.37044c1.53606,.28126,2.75241-1.21756,2.22199-2.68631-1.4088-3.90105-5.14174-6.68958-9.52893-6.68958s-8.12007,2.78853-9.52887,6.68958c-.53042,1.46876,.68593,2.96757,2.22199,2.68631,2.23165-.40863,4.70374-.63634,7.30688-.63634s5.07527,.22772,7.30694,.63634Z" style="fill:#ff6d00;"/><path d="M13.68359,22.21759c1.96826-.30457,4.0874-.48352,6.31641-.48352s4.34814,.17896,6.31641,.48352c-1.73242-1.3866-3.92407-2.22308-6.31641-2.22308s-4.58398,.83655-6.31641,2.22308Z" style="fill:#fff;"/><path d="M18.03031,14.8068c0,1.06566-2.63573,2.45993-5.10062,3.25301-.33984,.10934-.63998-.21815-.4206-.46051l1.67378-1.84918c.50539-.55835,.50534-1.32826-.00012-1.88656l-1.6744-1.84947c-.21941-.24235,.0807-.56987,.42056-.46054,2.46511,.79302,5.1014,2.18748,5.1014,3.25325Z"/><path d="M21.96969,14.8068c0,1.06566,2.63573,2.45993,5.10062,3.25301,.33984,.10934,.63998-.21815,.4206-.46051l-1.67378-1.84918c-.50539-.55835-.50534-1.32826,.00012-1.88656l1.6744-1.84947c.21941-.24235-.0807-.56987-.42056-.46054-2.46511,.79302-5.1014,2.18748-5.1014,3.25325Z"/></g><rect width="40" height="40" style="fill:none;"/></svg>