<?xml version="1.0" encoding="UTF-8"?><svg id="Layer_1" xmlns="http://www.w3.org/2000/svg" viewBox="0 0 40 40"><rect x="0" y="0" width="40" height="40" fill="none"/><g><g><path d="m37.249,14.71l-18.374,10.608c-2.318,1.338-5.131,1.507-7.592.456L1.037,21.398c-.638-.272-.691-1.156-.09-1.503l3.134-1.809c.773-.446,1.692-.567,2.554-.336l4.386,1.175,21.496-12.411c2.252-1.198,5.048-.396,6.322,1.813,1.276,2.208.573,5.03-1.589,6.382" fill="#c8e1ff" fill-rule="evenodd"/><path d="m9.212,9.535l17.274.46-9.158,5.287-10.445-2.872c-.901-.248-1.057-1.46-.247-1.927l.914-.527c.505-.291,1.08-.437,1.662-.422Z" fill="#93c9ff" fill-rule="evenodd"/></g><path d="m38.522,35.79H2.733c-.581,0-1.053-.472-1.053-1.053s.472-1.053,1.053-1.053h35.789c.581,0,1.053.472,1.053,1.053s-.472,1.053-1.053,1.053Z" fill="#6b7683"/></g></svg>