<?xml version="1.0" encoding="UTF-8"?><svg id="Layer_1" xmlns="http://www.w3.org/2000/svg" viewBox="0 0 40 40"><path d="M36.93652,32.7832h-2.08075c-.78217,.86279-1.9007,1.41455-3.15704,1.41455s-2.37488-.55176-3.15704-1.41455H11.45831c-.78217,.86279-1.9007,1.41455-3.15704,1.41455s-2.37488-.55176-3.15704-1.41455H3.06348c-.46924,0-.8501,.37988-.8501,.84961s.38086,.84961,.8501,.84961H36.93652c.46924,0,.8501-.37988,.8501-.84961s-.38086-.84961-.8501-.84961Z" style="fill:#6b7683;"/><g><path d="M8.30127,34.19775c1.25635,0,2.37488-.55176,3.15704-1.41455,.62646-.69116,1.02203-1.58374,1.08899-2.573h-2.56494c-.13721,.80688-.83514,1.42261-1.68109,1.42261s-1.54382-.61572-1.68103-1.42261h-1.7854c-.2818,0-.54956-.05737-.79547-.15747,.03217,1.05249,.44482,2.0022,1.10486,2.73047,.78217,.86279,1.9007,1.41455,3.15704,1.41455Z" style="fill:#313d4c;"/><path d="M34.84729,30.21021h-1.46753c-.13721,.80688-.83508,1.42261-1.68103,1.42261s-1.54388-.61572-1.68109-1.42261h-2.56494c.06696,.98926,.46252,1.88184,1.08899,2.573,.78217,.86279,1.9007,1.41455,3.15704,1.41455s2.37488-.55176,3.15704-1.41455c.66003-.72827,1.07269-1.67798,1.10486-2.73047-.24591,.1001-.51367,.15747-.79547,.15747h-.31787Z" style="fill:#313d4c;"/></g><g><path d="M8.30127,31.63281c.84595,0,1.54388-.61572,1.68109-1.42261h-3.36212c.13721,.80688,.83508,1.42261,1.68103,1.42261Z" style="fill:#6b7683;"/><path d="M31.69873,31.63281c.84595,0,1.54382-.61572,1.68103-1.42261h-3.36212c.13721,.80688,.83514,1.42261,1.68109,1.42261Z" style="fill:#6b7683;"/></g><path d="M37.28125,25.72144V8.23608c0-1.34424-1.08972-2.43408-2.43396-2.43408H5.15271c-1.34424,0-2.43396,1.08984-2.43396,2.43408v2.0105h1.77216c1.15002,0,2.08228,.93213,2.08228,2.08228v6.77954c0,1.1499-.93225,2.08228-2.08228,2.08228h-1.77216v4.53076H37.28125Zm-3.89423-13.39258c0-1.15015,.93225-2.08228,2.08228-2.08228h1.77216v10.94409h-1.77216c-1.15002,0-2.08228-.93237-2.08228-2.08228v-6.77954Zm-12.68085-1.32471c0-.41846,.33917-.75757,.75757-.75757h4.86896c1.15002,0,2.08228,.93213,2.08228,2.08228v6.77954c0,1.1499-.93225,2.08228-2.08228,2.08228h-4.86896c-.4184,0-.75757-.33911-.75757-.75757V11.00415Zm-9.12115,1.32471c0-1.15015,.93225-2.08228,2.08228-2.08228h4.86896c.4184,0,.75757,.33911,.75757,.75757v9.42896c0,.41846-.33917,.75757-.75757,.75757h-4.86896c-1.15002,0-2.08228-.93237-2.08228-2.08228v-6.77954Z" style="fill:#7bd58f;"/><g><path d="M13.6673,21.19067h4.86896c.4184,0,.75757-.33911,.75757-.75757V11.00415c0-.41846-.33917-.75757-.75757-.75757h-4.86896c-1.15002,0-2.08228,.93213-2.08228,2.08228v6.77954c0,1.1499,.93225,2.08228,2.08228,2.08228Z" style="fill:#313d4c;"/><path d="M21.46375,21.19067h4.86896c1.15002,0,2.08228-.93237,2.08228-2.08228v-6.77954c0-1.15015-.93225-2.08228-2.08228-2.08228h-4.86896c-.4184,0-.75757,.33911-.75757,.75757v9.42896c0,.41846,.33917,.75757,.75757,.75757Z" style="fill:#313d4c;"/><path d="M6.57318,19.1084v-6.77954c0-1.15015-.93225-2.08228-2.08228-2.08228h-1.77216v10.94409h1.77216c1.15002,0,2.08228-.93237,2.08228-2.08228Z" style="fill:#313d4c;"/><path d="M35.4693,21.19067h1.77216V10.24658h-1.77216c-1.15002,0-2.08228,.93213-2.08228,2.08228v6.77954c0,1.1499,.93225,2.08228,2.08228,2.08228Z" style="fill:#313d4c;"/></g><path d="M5.15271,30.21021h30.01245c.2818,0,.54956-.05737,.79547-.15747,.77386-.3147,1.32062-1.07178,1.32062-1.9585v-2.3728H2.71875v2.3728c0,.88672,.54675,1.6438,1.32062,1.9585,.24591,.1001,.51367,.15747,.79547,.15747h.31787Z" style="fill:#4fc578;"/></svg>