<?xml version="1.0" encoding="UTF-8"?><svg id="Layer_1" xmlns="http://www.w3.org/2000/svg" viewBox="0 0 40 40"><g><path d="M12.63,14.32007c-.02002,.21997-.03998,.44995-.03998,.66992v.68994c-.01001,.01001-.03003,.02002-.05005,.03003-1.12,.59009-2.60999,.46997-3.59998-.37-.44-.37-.73999-.84998-.90002-1.37-.26996-.87-.14996-1.84998,.41003-2.63l-.01001-.01001c.02002-.02991,.03998-.04993,.06-.06995,.01001-.01001,.01001-.03003,.02002-.04004,.01996-.02002,.03998-.04004,.04999-.06006,.41998-.52991,.85999-.78992,1.09998-.95996,.04999-.03003,.10004-.02002,.14001,.01001,.02002,.01001,.03998,.02002,.04999,.04004l1.04999,2.46997c-.04999,.02002-.08997,.05005-.12994,.07007-.40002,.21997-.62006,.63989-.48004,1.02002,.16003,.41992,.69,.60986,1.19,.41992,.25-.08997,.44-.26001,.54999-.44995l.59003,.54004Z" style="fill:#523725;"/><path d="M13.14001,10.58997c-.96002-.79993-2.28003-.91003-3.33002-.38,.02002,.01001,.03998,.02002,.04999,.04004l1.04999,2.46997c-.04999,.02002-.08997,.05005-.12994,.07007-.40002,.21997-.62006,.63989-.48004,1.02002,.16003,.41992,.69,.60986,1.19,.41992,.25-.08997,.44-.26001,.54999-.44995l.59003,.54004c.13-1.09009,.56-2.09009,1.20001-2.91016-.17999-.29993-.40002-.58984-.69-.81995Zm-1.46002,.30005c-.23999-.08997-.39996-.25-.35999-.38,.04999-.13,.27002-.17004,.51001-.09009,.23999,.09009,.39996,.25,.35999,.38013-.04999,.12988-.28003,.16992-.51001,.08997Z" style="fill:#c3846c;"/><path d="M35.12408,25.38696v-8.30103c0-.55347-.44861-1.00195-1.00208-1.00195H5.87799c-.55347,0-1.00208,.44849-1.00208,1.00195v8.30103h30.24817Z" style="fill:#b7b7b7;"/><g><path d="M12.56354,15.9082c0-.06738-.01331-.13086-.01978-.19653-1.11914,.58728-2.61133,.47241-3.60052-.37085-.43854-.37402-.73834-.85376-.90192-1.37158-.87219,.21704-1.52118,.99951-1.52118,1.93896v.17578h6.0434v-.17578Z" style="fill:#d3d3d3;"/><path d="M12.59192,14.99402v1.08997h21.06573v-1.08997c0-3.22644-2.6156-5.84216-5.84216-5.84216h-9.38147c-1.87439,0-3.53827,.88623-4.60724,2.25867-.6413,.82336-1.06805,1.82019-1.19324,2.91101-.02539,.22095-.04163,.4447-.04163,.67249Z" style="fill:#d3d3d3;"/></g><path d="M38.5,17.08997v15.53003c0,.55994-.45001,1-1,1h-1.37c-.56,0-1.01001-.44006-1.01001-1v-2.91003H4.88v2.91003c0,.55994-.45001,1-1.01001,1h-1.37c-.54999,0-1-.44006-1-1V7.38c0-.55994,.45001-1,1-1h1.37c.56,0,1.01001,.44006,1.01001,1V25.39001h30.23999v-8.30005c0-.55994,.45001-1.01001,1.01001-1.01001h1.37c.54999,0,1,.45007,1,1.01001Z" style="fill:#956759;"/><path d="M11.67627,10.88525c.23871,.08081,.46716,.04321,.51031-.08398,.04315-.12744-.11536-.29614-.35406-.37708-.23865-.08093-.46716-.04333-.51031,.08398s.11536,.29602,.35406,.37708Z"/></g><rect width="40" height="40" style="fill:none;"/></svg>