<svg id="Layer_1" data-name="Layer 1" xmlns="http://www.w3.org/2000/svg" viewBox="0 0 40 40"><defs><style>.cls-1{fill:none;}.cls-2{fill:#3182f6;}.cls-3{fill:#93c9ff;}.cls-4{isolation:isolate;}.cls-5{fill:#333d4b;}.cls-6{fill:#64a7ff;}.cls-7{fill:#fff;}</style></defs><rect class="cls-1" width="40" height="40"/><path class="cls-2" d="M31.423,18.157a10.8,10.8,0,0,1-18.709,10.8Z"/><path class="cls-3" d="M31.423,18.157c1.491,2.584-1.488,7.095-6.654,10.078s-10.563,3.307-12.055.724Z"/><g class="cls-4"><path class="cls-5" d="M28.224,5.639C19.049,5.639,7.937,12.06,3.4,19.98S2.6,34.312,11.778,34.312,32.064,27.891,36.6,19.98s.8-14.341-8.378-14.341"/></g><path class="cls-6" d="M27.713,11.731A10.8,10.8,0,0,0,9,22.533Z"/><g class="cls-4"><path class="cls-3" d="M22.783,9.567A16.832,16.832,0,0,0,9.554,17.208c-2.418,4.215-.422,7.636,4.466,7.636a16.832,16.832,0,0,0,13.227-7.636c2.42-4.219.424-7.641-4.464-7.641"/></g><ellipse class="cls-7" cx="18.778" cy="10.438" rx="1.317" ry="1.306" transform="translate(-2.703 10.787) rotate(-30)"/><circle class="cls-6" cx="23.492" cy="26.024" r="1.287"/><circle class="cls-6" cx="15.8" cy="28.979" r="1.287"/><circle class="cls-6" cx="8.492" cy="28.666" r="1.287"/><circle class="cls-6" cx="29.897" cy="20.84" r="1.287"/><circle class="cls-6" cx="33.28" cy="14.354" r="1.287"/></svg>