<?xml version="1.0" encoding="UTF-8"?><svg id="Layer_1" xmlns="http://www.w3.org/2000/svg" viewBox="0 0 40 40"><g><circle cx="20" cy="20" r="17.5" fill="#ffc84d"/><g><path id="SVGID" d="m10.721,21.813c-1.153,0-1.686.651-1.458,1.361,1.009,3.142,5.429,5.507,10.728,5.507s9.718-2.366,10.728-5.507c.228-.71-.071-1.269-1.224-1.269l-18.773-.092Z" fill="#ff6d00"/><path d="m15.011,29.455c0,2.491,2.081,4.51,4.648,4.51,2.567,0,4.648-2.019,4.648-4.51l.055-6.266h-9.296s-.055,6.266-.055,6.266Z" fill="#f5172b"/><path d="m29.494,21.904c-1.993,1.493-5.426,2.479-9.327,2.479-3.98,0-7.473-1.026-9.447-2.57l18.773.092Z" fill="#fff"/></g><path d="m18.03,14.889c0,1.066-2.636,2.46-5.101,3.253-.34.109-.64-.218-.421-.461l1.674-1.849c.505-.558.505-1.328,0-1.887l-1.674-1.849c-.219-.242.081-.57.421-.461,2.465.793,5.101,2.187,5.101,3.253Z"/><path d="m21.97,14.889c0,1.066,2.636,2.46,5.101,3.253.34.109.64-.218.421-.461l-1.674-1.849c-.505-.558-.505-1.328,0-1.887l1.674-1.849c.219-.242-.081-.57-.421-.461-2.465.793-5.101,2.187-5.101,3.253Z"/></g><rect width="40" height="40" fill="none"/></svg>