<?xml version="1.0" encoding="UTF-8"?><svg id="Layer_1" xmlns="http://www.w3.org/2000/svg" viewBox="0 0 40 40"><g><circle cx="20" cy="20" r="17.5" fill="#ffc84d"/><path d="m20,25.836c-1.684,0-2.999-.291-3.896-.585-.465-.152-.846.401-.543.785.81,1.027,2.237,2.25,4.439,2.25s3.629-1.223,4.439-2.25c.303-.384-.077-.937-.543-.785-.897.293-2.212.585-3.896.585Z" fill="#ff6d00"/><path d="m12.194,16.246c-.247-.122-.531.092-.476.362.305,1.499,1.595,2.625,3.14,2.625s2.835-1.126,3.14-2.625c.055-.27-.229-.484-.476-.362-.539.266-1.457.601-2.664.601s-2.125-.335-2.664-.601Z"/><path d="m27.806,16.246c.247-.122.531.092.476.362-.305,1.499-1.595,2.625-3.14,2.625-1.545,0-2.835-1.126-3.14-2.625-.055-.27.229-.484.476-.362.539.266,1.457.601,2.664.601,1.206,0,2.125-.335,2.664-.601Z"/></g><rect width="40" height="40" fill="none"/></svg>