<svg id="Layer_1" data-name="Layer 1" xmlns="http://www.w3.org/2000/svg" viewBox="0 0 40 40"><defs><style>.cls-1{fill:#ffc84d;}.cls-2{fill:#f80;}.cls-3{fill:#f5172b;}.cls-4{fill:none;}</style></defs><circle class="cls-1" cx="19.945" cy="20" r="17.5"/><circle cx="15.092" cy="16.676" r="2.173"/><path d="M27.369,17.437a.334.334,0,0,0,.443-.4,3.19,3.19,0,0,0-6.256.547.334.334,0,0,0,.506.319,6.2,6.2,0,0,1,5.307-.464Z"/><path class="cls-2" d="M20.641,24.188c.464-.3,1.282-.713,1.282-1.549,0-.458-.435-1.1-1.537-1.435-.36-.109-.611-.181-.608-.39s.217-.241.561-.241,2.874.45,2.971,2.047c.071,1.172-.724,1.652-1.365,2.136A3.074,3.074,0,0,1,23.4,27.085c-.125,1.767-2.151,2.186-2.931,2.186-.46,0-.741-.04-.771-.237s.168-.289.687-.495c.865-.344,1.475-.886,1.475-1.6a2.2,2.2,0,0,0-1.222-1.727c-.385-.245-.632-.335-.624-.512C20.024,24.49,20.263,24.431,20.641,24.188Z"/><path class="cls-3" d="M30.435,34.42a1.033,1.033,0,0,1-1.073-.39,14.541,14.541,0,0,1-2.752-5.695c-.4-2.878,1.977-4.736,3.964-4.013a2.8,2.8,0,0,1,1.791,1.9.519.519,0,0,0,.789.287,2.8,2.8,0,0,1,2.592-.3c1.987.723,2.615,3.676.457,5.621A14.53,14.53,0,0,1,30.435,34.42Z"/><rect class="cls-4" width="40" height="40"/></svg>