<svg id="Layer_1" data-name="Layer 1" xmlns="http://www.w3.org/2000/svg" viewBox="0 0 40 40"><defs><style>.cls-1{fill:#ffb72d;}.cls-2{fill:#fff;}.cls-3{fill:none;}</style></defs><rect class="cls-1" x="3.5" y="3.5" width="33" height="33" rx="8"/><path class="cls-2" d="M17.037,16.164a2.808,2.808,0,1,0-2.808,2.808A2.808,2.808,0,0,0,17.037,16.164Z"/><path class="cls-2" d="M27.844,23.174H24.781A4.313,4.313,0,0,0,17.5,19.036h0l-4.735,4.751a1.67,1.67,0,1,0,2.361,2.362l1.9-1.9,1.078,1.188a3.292,3.292,0,0,0,2.647,1.206h7.091a1.735,1.735,0,0,0,0-3.47Z"/><rect class="cls-3" width="40" height="40"/></svg>