<?xml version="1.0" encoding="UTF-8"?><svg id="Layer_1" xmlns="http://www.w3.org/2000/svg" viewBox="0 0 40 40"><g><path d="M19.25,7.47778v2.62817h1.5v-2.62817c-.23682,.08008-.48615,.13354-.75,.13354s-.51318-.05347-.75-.13354Z" style="fill:#6b7683;"/><path d="M35.93555,1.70898l-13.87836,2.42725c.18298,.33472,.29639,.71289,.29639,1.12134,0,.12231-.01801,.2395-.03595,.35669l13.87671-2.42676c.40771-.07227,.68066-.45996,.60938-.86816s-.45703-.67188-.86816-.61035Z" style="fill:#6b7683;"/><path d="M17.68231,4.90137L3.80566,7.32812c-.40771,.07227-.68066,.45996-.60938,.86816,.06348,.36426,.38037,.62109,.73779,.62109,.04297,0,.08643-.00391,.13037-.01074l13.87854-2.42725c-.18311-.33472-.29657-.71313-.29657-1.12183,0-.12207,.01794-.23926,.03589-.3562Z" style="fill:#6b7683;"/></g><path d="M12.20215,10.10596c-1.18256,0-2.14124,.9585-2.14124,2.14111v3.71338h7.51123c.79333,0,1.43646,.64307,1.43646,1.43652v7.85083c0,.79321-.64313,1.43628-1.43646,1.43628h-7.51123v6.63867H29.93915v-6.63867h-7.51129c-.79327,0-1.4364-.64307-1.4364-1.43628v-7.85083c0-.79346,.64313-1.43652,1.4364-1.43652h7.51129v-3.71338c0-1.18262-.95868-2.14111-2.14124-2.14111H12.20215Z" style="fill:#ffb400;"/><path d="M10.06085,33.32275v.6355c0,.59131,.23969,1.12671,.6272,1.51416,.01697,.01685,.0379,.0293,.05542,.04565,.38275,.35791,.89325,.58154,1.45862,.58154h15.59576c.14783,0,.29218-.01514,.43158-.04346,.13934-.02881,.27386-.0708,.40192-.125,.51239-.21655,.92279-.62695,1.13953-1.1394,.05414-.12817,.09619-.26245,.12476-.40186,.0285-.1394,.04352-.28394,.04352-.43164v-.6355H10.06085Z" style="fill:#f79800;"/><g><path d="M19.00861,25.2478v-7.85083c0-.79346-.64313-1.43652-1.43646-1.43652h-7.51123v10.72363h7.51123c.79333,0,1.43646-.64307,1.43646-1.43628Z" style="fill:#2d3d4d;"/><path d="M20.99146,17.39697v7.85083c0,.79321,.64313,1.43628,1.4364,1.43628h7.51129V15.96045h-7.51129c-.79327,0-1.4364,.64307-1.4364,1.43652Z" style="fill:#2d3d4d;"/><path d="M22.05719,4.13623c-.39948-.73071-1.16577-1.23218-2.05719-1.23218-1.1778,0-2.14484,.86792-2.31769,1.99731-.01794,.11694-.03589,.23413-.03589,.3562,0,.40869,.11346,.78711,.29657,1.12183,.28125,.5144,.74384,.90796,1.30701,1.09839,.23682,.08008,.48615,.13354,.75,.13354s.51318-.05347,.75-.13354c.82019-.27734,1.43335-.98706,1.56763-1.86353,.01794-.11719,.03595-.23438,.03595-.35669,0-.40845-.1134-.78662-.29639-1.12134Zm-2.05719,2.29834c-.6499,0-1.17682-.5271-1.17682-1.177s.52692-1.17676,1.17682-1.17676,1.17682,.52686,1.17682,1.17676-.52692,1.177-1.17682,1.177Z" style="fill:#2d3d4d;"/></g><path d="M21.17682,5.25757c0-.6499-.52692-1.17676-1.17682-1.17676s-1.17682,.52686-1.17682,1.17676,.52692,1.177,1.17682,1.177,1.17682-.5271,1.17682-1.177Z" style="fill:#cbcfd2;"/></svg>