<?xml version="1.0" encoding="UTF-8"?><svg id="Layer_1" xmlns="http://www.w3.org/2000/svg" viewBox="0 0 40 40"><g><path d="M18.26758,7.70508c-.17188,0-.33887-.08887-.43164-.24805l-1.40234-2.40332c-.13965-.23828-.05859-.54492,.17969-.68359,.2373-.1416,.54395-.05957,.68359,.17969l1.40234,2.40332c.13965,.23828,.05859,.54492-.17969,.68359-.0791,.04688-.16602,.06836-.25195,.06836Z" style="fill:#65778e;"/><path d="M21.73242,7.70508c-.08594,0-.17285-.02148-.25195-.06836-.23828-.13867-.31934-.44531-.17969-.68359l1.40234-2.40332c.13867-.23926,.44629-.32129,.68359-.17969,.23828,.13867,.31934,.44531,.17969,.68359l-1.40234,2.40332c-.09277,.15918-.25977,.24805-.43164,.24805Z" style="fill:#65778e;"/></g><path d="M28.97461,4.84863h-.00195l-17.65527-.03516c-.41406-.00098-.74902-.33691-.74805-.75195,.00098-.41309,.33691-.74805,.75-.74805h.00195l17.65527,.03516c.41406,.00098,.74902,.33691,.74805,.75195-.00098,.41309-.33691,.74805-.75,.74805Z" style="fill:#6b7683;"/><g><path d="M9.59961,36.95703c-.1582,0-.31934-.04785-.45703-.14844-.34863-.25391-.42578-.74121-.17285-1.08887l4.22461-5.81152c.25195-.34863,.74023-.42773,1.08887-.17285,.34863,.25391,.42578,.74121,.17285,1.08887l-4.22461,5.81152c-.15234,.20996-.39062,.32129-.63184,.32129Z" style="fill:#6b7683;"/><path d="M30.40039,36.95703c-.24121,0-.47852-.11133-.63184-.32129l-4.22461-5.81152c-.25293-.34766-.17578-.83496,.17285-1.08887,.34766-.25488,.83496-.17383,1.08887,.17285l4.22461,5.81152c.25293,.34766,.17578,.83496-.17285,1.08887-.1377,.10059-.29883,.14844-.45703,.14844Z" style="fill:#6b7683;"/><path d="M29.74023,36.32617H10.25977c-.43066,0-.7793-.34863-.7793-.7793s.34863-.7793,.7793-.7793H29.74023c.43066,0,.7793,.34863,.7793,.7793s-.34863,.7793-.7793,.7793Z" style="fill:#6b7683;"/><path d="M27.90527,33.5752H12.09473c-.43066,0-.7793-.34863-.7793-.7793s.34863-.7793,.7793-.7793h15.81055c.43066,0,.7793,.34863,.7793,.7793s-.34863,.7793-.7793,.7793Z" style="fill:#6b7683;"/></g><path d="M31.1204,10.40266c-.33899-2.24249-2.26632-3.90037-4.53429-3.90037H13.41324c-2.26804,0-4.19541,1.65798-4.53432,3.90055l-1.51317,10.0127h25.26827l-1.51363-10.01289Z" style="fill:#313d4c;"/><path d="M32.63403,20.41555H7.36575l-.82383,5.45141c-.41924,2.77415,1.72867,5.27104,4.53432,5.27104H28.92376c2.80572,0,4.95365-2.49702,4.53429-5.27122l-.82403-5.45123Z" style="fill:#ffb72d;"/><path d="M28.82324,26.52051H11.17676c-.60156,0-1.08887-.4873-1.08887-1.08887s.4873-1.08887,1.08887-1.08887H28.82324c.60156,0,1.08887,.4873,1.08887,1.08887s-.4873,1.08887-1.08887,1.08887Z" style="fill:#fff;"/><g style="opacity:0;"><rect width="40" height="40" style="fill:none;"/></g></svg>