<?xml version="1.0" encoding="UTF-8"?><svg id="Layer_1" xmlns="http://www.w3.org/2000/svg" viewBox="0 0 40 40"><path d="M31.55518,35.11719c-.31787,0-.61279-.20312-.71436-.52148l-2.00391-6.27148c-.12598-.39453,.09131-.81641,.48584-.94336,.39697-.12305,.81689,.09277,.94287,.48633l2.00391,6.27148c.12598,.39453-.09131,.81641-.48584,.94336-.07617,.02344-.15332,.03516-.22852,.03516Z" style="fill:#bb1b2a;"/><path d="M17.26709,35.11719c-.07568,0-.15234-.01172-.22852-.03516-.39453-.12695-.61182-.54883-.48584-.94336l2.00391-6.27148c.12598-.39355,.54834-.60645,.94287-.48633,.39453,.12695,.61182,.54883,.48584,.94336l-2.00391,6.27148c-.10156,.31836-.39648,.52148-.71436,.52148Z" style="fill:#bb1b2a;"/><g><rect x="0" y="0" width="40" height="40" transform="translate(40 40) rotate(-180)" style="fill:none;"/><g><g><path d="M25.16113,10.09326c-.23621,.08203-.48578,.13574-.74994,.13574s-.51385-.05371-.75006-.13574v2.62891h1.5v-2.62891Z" style="fill:#6b7683;"/><path d="M26.55457,8.7417l10.19592,.01904h.00146c.41357,0,.74902-.33496,.75-.74902s-.33447-.75-.74854-.75098l-10.16113-.01904c.06921,.21899,.11688,.44751,.11688,.68921,0,.28662-.05884,.55786-.1546,.81079Z" style="fill:#6b7683;"/><path d="M22.2326,7.23364l-9.51434-.01782h-.00146c-.41357,0-.74902,.33496-.75,.74902s.33447,.75,.74854,.75098l9.54999,.01782c-.09393-.25073-.1521-.51929-.1521-.80273,0-.24487,.04846-.47607,.11938-.69727Z" style="fill:#6b7683;"/><path d="M38.70752,30.46582c-.39062-.39062-1.02393-.39062-1.41455,0l-.90674,.90625c-1.26807,1.26855-3.02295,1.99512-4.81641,1.99512h-.0127l-19.55518-.03906h-.00195c-.55127,0-.99902,.44629-1,.99805s.4458,1.00098,.99805,1.00195l19.55518,.03906h.01611c2.32031,0,4.59082-.94043,6.23096-2.58105l.90674-.90625c.39062-.39062,.39062-1.02344,.00049-1.41406Z" style="fill:#6b7683;"/></g><path d="M22.02911,30.74658h8.72852c3.21783,0,5.82727-2.59521,5.85559-5.80615h-7.70911c-.83813,0-1.51752-.67944-1.51752-1.51758v-3.14453c0-.83789,.67938-1.51733,1.51752-1.51733h7.71173v-.18066c0-3.23535-2.6228-5.85815-5.85822-5.85815H1v3.76611c0,1.29761,.64447,2.5105,1.71985,3.23682l13.84515,9.34912c1.61383,1.08984,3.51672,1.67236,5.46411,1.67236Z" style="fill:#e32939;"/><g><path d="M25.16113,10.09326c.64258-.22314,1.1532-.71729,1.39343-1.35156,.09576-.25293,.1546-.52417,.1546-.81079,0-.2417-.04767-.47021-.11688-.68921-.29413-.92993-1.15375-1.60864-2.18109-1.60864-1.02429,0-1.88196,.67456-2.17859,1.60059-.07092,.22119-.11938,.45239-.11938,.69727,0,.28345,.05817,.552,.1521,.80273,.23889,.63794,.75067,1.1355,1.39581,1.35962,.23621,.08203,.4859,.13574,.75006,.13574s.51373-.05371,.74994-.13574Z" style="fill:#2d3d4d;"/><path d="M27.3866,20.27832v3.14453c0,.83813,.67938,1.51758,1.51752,1.51758h7.71179v-6.17944h-7.71179c-.83813,0-1.51752,.67944-1.51752,1.51733Z" style="fill:#2d3d4d;"/></g><path d="M7.51709,12.72217h-.00006l-3.11676-4.03271c-.36981-.47827-.94037-.75854-1.54504-.75854-1.0246,0-1.85516,.83057-1.85516,1.85522v2.93604H7.51709Z" style="fill:#bb1b2a;"/></g></g></svg>