<?xml version="1.0" encoding="UTF-8"?><svg id="Layer_1" xmlns="http://www.w3.org/2000/svg" viewBox="0 0 40 40"><g><circle cx="20" cy="20" r="17.5" fill="#ffc84d"/><path d="m20,17.741c-.337,0-.625.163-.823.405-.126.136-.246.324-.341.585-.385,1.055-2.309,4.706-6.14,4.706-2.567,0-4.559-1.041-5.352-3.303-.445-1.269-.588-2.728-.632-3.635-.025-.509.326-.953.829-1.038,1.883-.317,6.625-.91,11.368.13.359.079.726.118,1.092.118.366,0,.733-.04,1.092-.118,4.743-1.04,9.484-.447,11.368-.13.503.085.854.529.829,1.038-.045.908-.188,2.367-.632,3.635-.793,2.262-2.785,3.303-5.352,3.303-3.832,0-5.755-3.651-6.14-4.706-.095-.261-.215-.449-.341-.585-.198-.241-.486-.405-.822-.405Z"/><path d="m20,27.106c-2.681,0-4.668-.48-5.856-.879-.541-.182-.96.489-.558.894,1.183,1.189,3.674,2.213,6.413,2.213s5.23-1.024,6.413-2.213c.403-.405-.016-1.076-.558-.894-1.188.399-3.174.879-5.856.879Z" fill="#ff6d00"/></g><rect width="40" height="40" fill="none"/></svg>