<?xml version="1.0" encoding="UTF-8"?><svg id="Layer_1" xmlns="http://www.w3.org/2000/svg" viewBox="0 0 40 40"><path d="m18,7.107c-.151,0-.302-.069-.4-.2C13.631,1.612,6.472,1.559,6.373,1.559h-.002c-.275,0-.499-.223-.5-.498,0-.276.222-.501.498-.502.28-.027,7.744.029,12.031,5.749.165.221.12.534-.101.7-.09.067-.195.1-.3.1Z" fill="#65778e"/><ellipse cx="17.932" cy="7.648" rx="2.511" ry="1.761" fill="#4592fb"/><g><path d="m33.866,7.682H6.134c-2.209,0-4,1.791-4,4v17.408c0,1.105.895,2,2,2h31.733c1.105,0,2-.895,2-2V11.682c0-2.209-1.791-4-4-4Z" fill="#93c9ff"/><path d="m37.866,23.466H2.134v5.624c0,1.105.895,2,2,2h31.733c1.105,0,2-.895,2-2v-5.624Z" fill="#64a7ff"/><g><circle cx="8.372" cy="30.803" r="4.275" fill="#313d4c"/><circle cx="8.372" cy="30.803" r="1.71" fill="#6b7683"/></g><g><circle cx="31.239" cy="30.803" r="4.275" fill="#313d4c"/><circle cx="31.239" cy="30.803" r="1.71" fill="#6b7683"/></g><path d="m37.866,27.704c-.656,0-1.188-.532-1.188-1.188s.532-1.188,1.188-1.188v2.375Z" fill="#fff"/></g><path d="m6.173,11.532h11.691v7.31H6.173c-.629,0-1.139-.51-1.139-1.139v-5.031c0-.629.51-1.139,1.139-1.139Z" fill="#313d4c"/><path d="m19.276,11.532h11.691c.629,0,1.139.51,1.139,1.139v5.031c0,.629-.51,1.139-1.139,1.139h-11.691v-7.31h0Z" fill="#313d4c"/><path d="m35.314,11.532h2.552v10.31h-2.552c-.629,0-1.139-.51-1.139-1.139v-8.031c0-.629.51-1.139,1.139-1.139Z" fill="#313d4c"/></svg>