<?xml version="1.0" encoding="UTF-8"?><svg id="Layer_1" xmlns="http://www.w3.org/2000/svg" viewBox="0 0 40 40"><g><g><circle cx="20" cy="20" r="17.5" style="fill:#ffc84d;"/><path d="M12.28698,17.89208c-.24689-.12185-.53069,.09194-.47587,.36174,.3046,1.4992,1.59451,2.62508,3.13954,2.62508s2.83493-1.12588,3.13954-2.62508c.05482-.26981-.22899-.48359-.47587-.36174-.5388,.26593-1.45741,.60129-2.66367,.60129s-2.12486-.33536-2.66367-.60129Z"/><path d="M27.89904,17.89208c.24689-.12185,.53069,.09194,.47587,.36174-.3046,1.4992-1.59451,2.62508-3.13954,2.62508-1.54503,0-2.83493-1.12588-3.13954-2.62508-.05482-.26981,.22899-.48359,.47587-.36174,.5388,.26593,1.45741,.60129,2.66367,.60129s2.12486-.33536,2.66367-.60129Z"/><path d="M26.04688,11.69741c-1.13982-.53151-1.67609-1.10009-2.12153-1.60727-.25688-.29248-.62145-.15774-.61836,.25826,.00668,.89863,.56203,2.12019,2.05553,2.81662,1.4935,.69643,2.78624,.33665,3.47893-.23586,.32066-.26503,.18954-.63092-.19964-.6397-.67485-.01522-1.45511-.06054-2.59494-.59205Z"/><path d="M13.95312,11.69741c1.13982-.53151,1.67609-1.10009,2.12153-1.60727,.25688-.29248,.62145-.15774,.61836,.25826-.00668,.89863-.56203,2.12019-2.05553,2.81662-1.4935,.69643-2.78624,.33665-3.47893-.23586-.32066-.26503-.18954-.63092,.19964-.6397,.67485-.01522,1.45511-.06054,2.59494-.59205Z"/><circle cx="20" cy="27.42884" r="2.48679" style="fill:#f80;"/></g><path d="M36.36731,29.2912c.37878-1.5683-.27838-3.26038-1.74658-4.10809-1.78644-1.03137-4.07068-.41931-5.10205,1.36713-.34698,.60101-.49304,1.25775-.48584,1.90485l-4.89917-1.53302,3.77716,3.47632c-.56396,.31732-1.05975,.77216-1.40674,1.37323-1.03137,1.78638-.41931,4.07062,1.36713,5.10199,1.4682,.84766,3.26208,.57074,4.43091-.54138,1.91351,.92493,4.24072,.24774,5.32037-1.62238,1.07965-1.87,.50262-4.224-1.25519-5.41864Z" style="fill:#e5e8eb;"/></g><rect width="40" height="40" style="fill:none;"/></svg>