<svg id="Layer_1" data-name="Layer 1" xmlns="http://www.w3.org/2000/svg" viewBox="0 0 40 40"><defs><style>.cls-1{fill:none;opacity:0;}.cls-2{fill:#2e3d51;}.cls-3{fill:#8a94a0;}.cls-4{fill:#d0d5da;}.cls-5{fill:#ef4452;}.cls-6{fill:#fff;}</style></defs><rect class="cls-1" width="40" height="40"/><circle class="cls-2" cx="20" cy="20" r="17.5"/><path class="cls-3" d="M12.356,35.724H27.644a17.453,17.453,0,0,0,2.029-1.145l-3.441-4.733a.714.714,0,1,0-1.155.84l.792,1.09H14.131l.792-1.09a.714.714,0,1,0-1.155-.84l-3.441,4.733A17.453,17.453,0,0,0,12.356,35.724ZM26.907,33.2,27.7,34.3H12.3l.794-1.092Z"/><path class="cls-4" d="M31.339,13.412a6,6,0,0,0-6-6H14.661a6,6,0,0,0-6,6v9.57H31.339Z"/><path class="cls-5" d="M8.661,22.982v5.8a2,2,0,0,0,2,2H29.339a2,2,0,0,0,2-2v-5.8Z"/><rect class="cls-2" x="11.253" y="11.525" width="17.495" height="10.032" rx="1.749"/><circle class="cls-6" cx="26.494" cy="26.881" r="1.68"/><circle class="cls-6" cx="13.506" cy="26.881" r="1.68"/><rect class="cls-4" x="19.5" y="9.362" width="1" height="13.498"/></svg>