<?xml version="1.0" encoding="UTF-8"?><svg id="Layer_1" xmlns="http://www.w3.org/2000/svg" viewBox="0 0 40 40"><g><path d="M34.89672,32.60483h0c.87429-.38559,1.2637-1.39193,.86977-2.24772L23.76282,4.27935c-.39392-.85579-1.42201-1.23696-2.29629-.85137h0c-.87429,.38559-1.2637,1.39193-.86977,2.24772l12.00368,26.07776c.39392,.85579,1.42201,1.23697,2.2963,.85138Z" style="fill:#5a81ff;"/><rect x="17.80607" y="14.77768" width="3.39914" height="32.69327" rx="1.69957" ry="1.69957" transform="translate(50.62996 11.61868) rotate(90)" style="fill:#5a81ff;"/><path d="M32.3444,24.31485h0c-.83046-.46933-1.89236-.19081-2.37183,.62208l-2.7704,4.69698c-.47946,.81289-.19493,1.85233,.63553,2.32165h0c.83046,.46933,1.89236,.19081,2.37182-.62208l2.7704-4.69698c.47947-.81289,.19493-1.85233-.63553-2.32166Z" style="fill:#5a81ff;"/><ellipse cx="6.94927" cy="32.45302" rx="4.41112" ry="4.31781" style="fill:#333d4b;"/><path d="M12.51269,32.82389c0-3.0076-2.49083-5.44574-5.56343-5.44574-2.64167,0-4.85332,1.80221-5.42171,4.21907-.14657,.62321,.30919,1.22667,.9494,1.22667H12.51269Z" style="fill:#5a81ff;"/><ellipse cx="34.08888" cy="32.45302" rx="4.41112" ry="4.31781" style="fill:#333d4b;"/><ellipse cx="34.08888" cy="32.45302" rx="1.90275" ry="1.8625" style="fill:#6b7683;"/><path d="M17.56057,3.22917h4.54755c1.03565,0,1.87507,.82181,1.87507,1.83541,0,1.0136-.83942,1.83541-1.87507,1.83541h-4.54755c-1.03565,0-1.87507-.82181-1.87507-1.83541,0-1.0136,.83942-1.83541,1.87507-1.83541Z" style="fill:#333d4b;"/></g><rect y="0" width="40" height="40" transform="translate(40 40) rotate(-180)" style="fill:none;"/></svg>