<?xml version="1.0" encoding="UTF-8"?><svg id="Layer_1" xmlns="http://www.w3.org/2000/svg" viewBox="0 0 40 40"><rect x="0" y="0" width="40" height="40" style="fill:none;"/><g><g><path d="M37.24881,14.71044l-18.37409,10.60828c-2.31793,1.33825-5.13065,1.50709-7.59202,.45572L1.03729,21.3981c-.63775-.27242-.69071-1.15603-.09007-1.50267l3.13392-1.80864c.77301-.44612,1.69155-.56696,2.55364-.33597l4.38566,1.17513L32.51608,6.51544c2.25198-1.19812,5.04761-.39624,6.32185,1.81313,1.27625,2.20821,.57288,5.03023-1.58912,6.38186" style="fill:#c8e1ff; fill-rule:evenodd;"/><path d="M9.21201,9.53462l17.2736,.4605-9.15766,5.28718-10.44511-2.87218c-.90116-.2478-1.0565-1.45961-.24699-1.9267l.91377-.52725c.50463-.29118,1.07998-.43707,1.66239-.42155Z" style="fill:#93c9ff; fill-rule:evenodd;"/></g><path d="M38.52246,35.79004H2.7334c-.58105,0-1.05273-.47168-1.05273-1.05273s.47168-1.05273,1.05273-1.05273H38.52246c.58105,0,1.05273,.47168,1.05273,1.05273s-.47168,1.05273-1.05273,1.05273Z" style="fill:#6b7683;"/></g></svg>