<?xml version="1.0" encoding="UTF-8"?><svg id="Layer_1" xmlns="http://www.w3.org/2000/svg" viewBox="0 0 40 40"><g><path d="M16.48737,19.42114l-7.08051,.01917c-.06738,.65442-.11035,1.33386-.09613,2.06897,.01062,.54907,.43768,.96826,.95233,1.02832l6.40918-1.66626s-.18488-.56348-.18488-1.4502Z" style="fill:#b7b7b7;"/><g><path d="M16.69489,19.42053c.22467-.73706,.51929-1.60754,.87268-2.47302-.01062-.00244-.02069,.00439-.03113,.00037l-6.67383-2.63647c-.01312-.00525-.01697-.01917-.02802-.02698-.8031,1.37122-1.42859,3.0625-1.67719,5.15649l.24945-.00061,7.08051-.01917,.20752-.00061Z" style="fill:#8091ff;"/><path d="M17.83466,16.22095c.01501,.00586,.0191,.02246,.0321,.03088,.10767-.23792,.21936-.47192,.33606-.7002l-2.34332-1.52087c-.8064-.52332-1.02777-1.58911-.49451-2.38037,.53333-.7915,1.61932-1.00867,2.42572-.48535l1.94519,1.26245c.1308-.81213-.01715-1.55835-.32941-2.13306-.04724-.08691-.09668-.17102-.15125-.24951-.19147-.27563-.42377-.49854-.68433-.64832-.20563-.11829-.42822-.18677-.65875-.20776-.06738-.0061-.1344-.01477-.203-.0116-.99475,.04517-4.23865,1.16895-6.46381,4.44067l6.58929,2.60303Z" style="fill:#8091ff;"/></g><path d="M17.53644,16.94788c.01044,.00403,.02051-.00281,.03113-.00037,.11151,.0271,.22968-.01953,.2738-.12708l.12317-.30017c.0423-.10303-.0069-.20935-.09778-.26843-.013-.00842-.01709-.02502-.0321-.03088l-6.58929-2.60303-.00354-.00146c-.13361-.05273-.28552,.01074-.33929,.14185l-.13605,.33167c-.03046,.07434,.00458,.14978,.06812,.19446,.01105,.00781,.01489,.02173,.02802,.02698l6.67383,2.63647Z" style="fill:#333;"/><path d="M18.81183,24.18433l.50549-1.89404,.00043-.00562c.05206-.20679-.05896-.42004-.26166-.4978l-2.38385-.91553-6.40918,1.66626-.01599,.00415,.59735,1.64258h7.96741Z" style="fill:#333;"/><g><path d="M15.5752,29.80908c.38849-.36438,1.00116-.36157,1.38611,.00647l.34601,.33069,4.18762-4.21851H1.60571c-.21423,0-.38788-.17358-.38788-.38782v.38953c0,4.18787,3.39496,7.58289,7.58289,7.58289h3.07159c.04376-.17432,.11877-.34216,.26123-.47571l3.44165-3.22754Z" style="fill:#ef4452;"/><path d="M38.39429,25.92773h-15.76855l-4.73822,4.77319,.27045,.25867c.38489,.36792,.40387,.96887,.04291,1.3595l-1.10242,1.19324h14.10083c4.18793,0,7.58289-3.39502,7.58289-7.58289v-.38953c0,.21423-.17365,.38782-.38788,.38782Z" style="fill:#ef4452;"/></g><g><path d="M38.39429,24.18433h-14.03784l-1.73071,1.74341h15.76855c.21423,0,.38788-.17358,.38788-.38782v-.96777c0-.21423-.17365-.38782-.38788-.38782Z" style="fill:#f29579;"/><path d="M1.60571,25.92773H21.49493l1.73071-1.74341H1.60571c-.21423,0-.38788,.17358-.38788,.38782v.96777c0,.21423,.17365,.38782,.38788,.38782Z" style="fill:#f29579;"/></g><path d="M29.63,18.88l-4.53998,4.55994-.73004,.73999-1.72998,1.75-4.73999,4.77002,.26996,.26001c.38,.37,.40002,.96997,.04004,1.36011l-1.10004,1.18994-2.09998,2.27002c-.38,.40991-1.03003,.42993-1.42999,.04004l-1.44-1.37012c-.27002-.26001-.34003-.60999-.26001-.93994,.04999-.17004,.12-.34009,.26001-.46997l3.45001-3.22998c.38-.37012,1-.36011,1.38,.01001l.34998,.32983,4.17999-4.21997,1.73999-1.75,.92004-.92993,4.69995-4.72998h.28003l.5,.35999Z" style="fill:#a13e20;"/><g><path d="M23.70135,5.38354c.02515-.00635,.04962,.00293,.07495,.00208-.29492-.34314-.68506-.67444-1.18628-.93616-1.31946-.68933-3.24164-.97583-4.51379,.62598-.1308,.16455-.22626,.33752-.30365,.51343l-.1449,.59595c-.00555,.02283-.02539,.03442-.03815,.05249-.0318,.22961-.03503,.4585-.01538,.68164,.01288-.0083,.01721-.0249,.03375-.02893l6.09344-1.50647Z" style="fill:#ffdb87;"/><path d="M18.28503,8.95776l1.47681-.58618c-.27759-.19775-.43085-.52161-.41779-.88135l-1.68671-.04712c.18665,.81799,.57477,1.45056,.61121,1.5083l.00653,.01038,.00995-.00403Z" style="fill:#ffdb87;"/><path d="M24.08099,7.62256l.02441,.17554,.00439,.03125c.14478,.01929,.24835-.05542,.3161-.19727l-.34491-.00952Z" style="fill:#ffdb87;"/><path d="M21.41119,7.71704c.4245,.01196,.79553-.04785,1.11987-.13782l-1.09534-.03064c-.01196,.06006-.03015,.11951-.05145,.17908l.02692-.01062Z" style="fill:#ffdb87;"/><path d="M17.43561,5.47803c.00232-.00952,.01227-.01318,.01593-.02197-.27185-.18188-.95587-.4989-1.81464,.15845-.98688,.75537-1.44165,1.68384-2.44818,1.81226-.14441,.01855-.19879,.19995-.07941,.28369,.51868,.36401,1.53015,.88367,2.41754,.21387,1.14825-.8667,1.45166-1.64697,1.76788-1.75903-.00342-.02271-.01569-.04321-.00995-.06689l.15082-.62036Z" style="fill:#ffdb87;"/></g><path d="M17.77258,5.58887l.00592-.02441c.02338-.09644-.03436-.19385-.12903-.21765-.08527-.02148-.16455,.02966-.19794,.10925-.00366,.00879-.01361,.01245-.01593,.02197l-.15082,.62036c-.00574,.02368,.00653,.04419,.00995,.06689,.01038,.0697,.04767,.13281,.11908,.15076,.07214,.01819,.13477-.02087,.17572-.07874,.01276-.01807,.03259-.02966,.03815-.05249l.1449-.59595Z" style="fill:#eda600;"/><path d="M19.34406,7.49023c.00623-.17114,.03815-.34497,.12128-.51367,.28546-.57874,.93738-.84827,1.45605-.60193,.42499,.20178,.61157,.68665,.51434,1.17395l1.09534,.03064,1.54993,.04333,.34491,.00952,1.2088,.03369c.14557,.00415,.22485-.17017,.12714-.27905l-1.69446-1.88989c-.07477-.0835-.18231-.11499-.29108-.11121-.02533,.00085-.0498-.00842-.07495-.00208l-6.09344,1.50647c-.01654,.00403-.02087,.02063-.03375,.02893-.06256,.04028-.09283,.11499-.07697,.19739l.04871,.23157c.01202,.05811,.0542,.09375,.10229,.09497l.00916,.00024,1.68671,.04712Z" style="fill:#8091ff;"/><g><polygon points="28.75012 24.18433 25.09155 23.44373 24.35645 24.18433 28.75012 24.18433" style="fill:#ffb582;"/><g><polygon points="19.32117 22.27576 19.31775 22.28467 19.31732 22.29028 18.81183 24.18433 23.22565 24.18433 24.14996 23.25317 19.32117 22.27576" style="fill:#ffb582;"/><path d="M17.79071,11.16504c-.8064-.52332-1.8924-.30615-2.42572,.48535-.53326,.79126-.31189,1.85706,.49451,2.38037l2.34332,1.52087,3.58032,2.32361c.64539,.41895,1.4021,.64233,2.17584,.64233h5.17267l.49445,.35815,.47327,.34302c.50464,.3656,.99548,.27209,1.35474-.23254,.12903-.18127,.33942-.44299,.48035-.72083,.5769-1.13745,.54388-2.41406-1.04688-2.38928l-1.48254,.15491-3.39746-.3938c-.90936-.15039-1.6825-.2312-2.39111-.69116l-3.88055-2.51855-1.94519-1.26245Z" style="fill:#ffb582;"/><path d="M24.08002,7.62l-1.54999-.04004c-.32001,.08997-.69,.15002-1.12006,.14001l-.02997,.01001c.02997-.06006,.03998-.12,.06-.17993,.09003-.48999-.09003-.97009-.52002-1.18005-.51996-.23999-1.16998,.02991-1.45001,.60999-.08997,.16992-.12,.34009-.12994,.51001-.01001,.35999,.13995,.67993,.41998,.88l-1.47003,.58997h-.00995l-.01001-.01001-.36005,.23999c.23004,.02002,.46002,.09009,.66003,.20996,.26001,.15015,.48999,.37012,.69,.64014,.04999,.07996,.09998,.16992,.14996,.25l.12006-.08008c.04999,.03003,.08997,.06006,.14996,.09009,1.53003,.72998,3.39001,.09985,4.13-1.41003,.17999-.35999,.27002-.72009,.29999-1.08997l-.02997-.18005Zm-.79004,1.02002c-.09998,.20996-.25,.33997-.32996,.30994-.08002-.04004-.07001-.23999,.03998-.44995,.09998-.20996,.25-.3501,.33002-.31006,.07996,.04004,.06,.23999-.04004,.45007Z" style="fill:#ffb582;"/></g></g><path d="M22.99524,8.49902c-.10254,.20789-.11914,.40796-.03705,.44702,.08203,.03894,.23163-.09802,.33417-.30591s.11914-.40796,.03711-.44702c-.08209-.03894-.23169,.09802-.33423,.30591Z"/></g><rect width="40" height="40" style="fill:none;"/></svg>