<?xml version="1.0" encoding="UTF-8"?><svg id="Layer_1" xmlns="http://www.w3.org/2000/svg" viewBox="0 0 40 40"><g><path d="m33.866,6.682H6.134c-2.209,0-4,1.791-4,4v18.408c0,1.105.895,2,2,2h31.733c1.105,0,2-.895,2-2V10.682c0-2.209-1.791-4-4-4Z" fill="#ffb72d"/><path d="m37.866,23.466H2.134v5.624c0,1.105.895,2,2,2h31.733c1.105,0,2-.895,2-2v-5.624Z" fill="#ff8f00"/><g><circle cx="8.372" cy="30.803" r="4.275" fill="#313d4c"/><circle cx="8.372" cy="30.803" r="1.71" fill="#6b7683"/></g><g><circle cx="31.239" cy="30.803" r="4.275" fill="#313d4c"/><circle cx="31.239" cy="30.803" r="1.71" fill="#6b7683"/></g><path d="m37.866,27.704c-.656,0-1.188-.532-1.188-1.188s.532-1.188,1.188-1.188v2.375Z" fill="#fff"/></g><path d="m6.173,10.532h11.691v8.31H6.173c-.629,0-1.139-.51-1.139-1.139v-6.031c0-.629.51-1.139,1.139-1.139Z" fill="#313d4c"/><path d="m19.276,10.532h11.691c.629,0,1.139.51,1.139,1.139v6.031c0,.629-.51,1.139-1.139,1.139h-11.691v-8.31h0Z" fill="#313d4c"/><path d="m35.314,10.532h2.552v11.31h-2.552c-.629,0-1.139-.51-1.139-1.139v-9.031c0-.629.51-1.139,1.139-1.139Z" fill="#313d4c"/></svg>