<?xml version="1.0" encoding="UTF-8"?><svg id="Layer_1" xmlns="http://www.w3.org/2000/svg" viewBox="0 0 40 40"><rect x="0" y="0" width="40" height="40" transform="translate(40 40) rotate(-180)" fill="none"/><g><path d="m24.911,32.396c-.553,0-1-.448-1-1v-5.702c0-.552.447-1,1-1s1,.448,1,1v5.702c0,.552-.447,1-1,1Z" fill="#48596c"/><path d="m32.07,32.41h-.017l-12.749-.039c-.553-.001-.999-.451-.997-1.003.002-.551.449-.997,1-.997h.003l12.748.039h.013c1.792,0,3.547-.727,4.814-1.995l.907-.907c.391-.39,1.023-.39,1.414,0s.391,1.024,0,1.415l-.907.907c-1.64,1.64-3.91,2.58-6.229,2.58Z" fill="#48596c"/><path d="m13.705,32.396c-.553,0-1-.448-1-1V8.59c0-.552.447-1,1-1s1,.448,1,1v22.806c0,.552-.447,1-1,1Z" fill="#48596c"/><path d="m1.5,32.41c-.552,0-.999-.446-1-.998,0-.552.445-1.001.998-1.002l17.808-.039h.002c.552,0,.999.446,1,.998,0,.552-.445,1.001-.998,1.002l-17.808.039h-.002Z" fill="#48596c"/><path d="m7.051,9.629c-.551,0-.998-.446-1-.997-.002-.552.444-1.001.997-1.003l12.257-.039h.003c.551,0,.998.446,1,.997.002.552-.444,1.001-.997,1.003l-12.257.039h-.003Z" fill="#48596c"/><path d="m1.5,14.647v5.331c0,4.314,3.497,7.811,7.811,7.811h17.065c4.314,0,7.811-3.497,7.811-7.811v-5.331c0-1.078-.874-1.953-1.953-1.953H3.453c-1.078,0-1.953.874-1.953,1.953Z" fill="#ffb400"/><g><path d="m32.234,12.694H3.453c-1.078,0-1.953.874-1.953,1.953v2.079h32.687v2H1.5v1.252c0,.613.078,1.207.211,1.78h32.264c.134-.573.211-1.166.211-1.78v-5.331c0-1.078-.874-1.953-1.953-1.953Z" fill="none"/><path d="m9.311,27.789h17.065c2.942,0,5.502-1.628,6.834-4.031H2.477c1.332,2.403,3.892,4.031,6.834,4.031Z" fill="none"/><rect x="1.5" y="16.726" width="32.686" height="2" fill="#ffa01d"/><path d="m2.477,23.758h30.733c.343-.62.6-1.292.766-2H1.712c.165.708.422,1.38.765,2Z" fill="#ffa01d"/></g></g></svg>