<svg id="Layer_1" data-name="Layer 1" xmlns="http://www.w3.org/2000/svg" viewBox="0 0 40 40"><defs><style>.cls-1{fill:#ffc84d;}.cls-2{fill:#ff6d00;}.cls-3{fill:#fff;}.cls-4{fill:#f5172b;}.cls-5{fill:none;}</style></defs><circle class="cls-1" cx="20" cy="20" r="17.489"/><path id="SVGID" class="cls-2" d="M10.727,21.245a1.384,1.384,0,0,0-1.458,1.794c1.009,4.12,5.426,7.223,10.721,7.223s9.713-3.1,10.721-7.223c.228-.931-.071-1.7-1.223-1.7Z"/><path class="cls-3" d="M29.488,21.337c-1.992,1.492-5.423,2.477-9.321,2.477-3.977,0-7.468-1.026-9.44-2.569Z"/><path class="cls-4" d="M14.1,18.6a.823.823,0,0,0,.908,0,11.569,11.569,0,0,0,3.607-3.51c1.085-2.042-.189-4.079-1.871-4.079a2.228,2.228,0,0,0-1.856.933.414.414,0,0,1-.669,0,2.227,2.227,0,0,0-1.855-.933c-1.683,0-2.956,2.037-1.872,4.079A11.56,11.56,0,0,0,14.1,18.6Z"/><path class="cls-4" d="M25.9,18.6a.823.823,0,0,1-.908,0,11.569,11.569,0,0,1-3.607-3.51c-1.085-2.042.189-4.079,1.871-4.079a2.228,2.228,0,0,1,1.856.933.414.414,0,0,0,.669,0,2.227,2.227,0,0,1,1.855-.933c1.683,0,2.956,2.037,1.872,4.079A11.56,11.56,0,0,1,25.9,18.6Z"/><rect class="cls-5" width="40" height="40"/></svg>