<?xml version="1.0" encoding="UTF-8"?><svg id="Layer_1" xmlns="http://www.w3.org/2000/svg" viewBox="0 0 40 40"><g><g><circle cx="20" cy="20" r="17.5" fill="#ffc84d"/><path d="m12.287,17.892c-.247-.122-.531.092-.476.362.305,1.499,1.595,2.625,3.14,2.625s2.835-1.126,3.14-2.625c.055-.27-.229-.484-.476-.362-.539.266-1.457.601-2.664.601s-2.125-.335-2.664-.601Z"/><path d="m27.899,17.892c.247-.122.531.092.476.362-.305,1.499-1.595,2.625-3.14,2.625-1.545,0-2.835-1.126-3.14-2.625-.055-.27.229-.484.476-.362.539.266,1.457.601,2.664.601s2.125-.335,2.664-.601Z"/><path d="m26.047,11.697c-1.14-.532-1.676-1.1-2.122-1.607-.257-.292-.621-.158-.618.258.007.899.562,2.12,2.056,2.817,1.494.696,2.786.337,3.479-.236.321-.265.19-.631-.2-.64-.675-.015-1.455-.061-2.595-.592Z"/><path d="m13.953,11.697c1.14-.532,1.676-1.1,2.122-1.607.257-.292.621-.158.618.258-.007.899-.562,2.12-2.056,2.817-1.494.696-2.786.337-3.479-.236-.321-.265-.19-.631.2-.64.675-.015,1.455-.061,2.595-.592Z"/><circle cx="20" cy="27.429" r="2.487" fill="#ff6d00"/></g><path d="m36.367,29.291c.379-1.568-.278-3.26-1.747-4.108-1.786-1.031-4.071-.419-5.102,1.367-.347.601-.493,1.258-.486,1.905l-4.899-1.533,3.777,3.476c-.564.317-1.06.772-1.407,1.373-1.031,1.786-.419,4.071,1.367,5.102,1.468.848,3.262.571,4.431-.541,1.914.925,4.241.248,5.32-1.622,1.08-1.87.503-4.224-1.255-5.419Z" fill="#e5e8eb"/></g><rect width="40" height="40" fill="none"/></svg>