<?xml version="1.0" encoding="UTF-8"?><svg id="Layer_1" xmlns="http://www.w3.org/2000/svg" viewBox="0 0 40 40"><path d="m32.502,30.62l2.927,4.016c.338.463.007,1.114-.567,1.114H5.283c-.468,0-.848-.38-.848-.848v-4.283h28.066Z" fill="#2d67d5"/><g><path d="m30.56,31.11H4.433v-11.691h28.038s2.42,4.191,2.42,4.191c1.925,3.333-.481,7.5-4.33,7.5Z" fill="#b3d3fc"/><path d="m25.159,6.75l7.315,12.67H4.436V6.25c0-1.105.895-2,2-2h14.393c1.786,0,3.437.953,4.33,2.5Z" fill="#b3d3fc"/><path d="m25.66,7.617l6.814,11.802h-9.543c-1.105,0-2-.895-2-2v-8.246c0-.859.697-1.556,1.556-1.556h3.173Z" fill="#313d4c"/><path d="m33.266,23.701h1.672c.425.771.622,1.582.627,2.375h-2.299c-.656,0-1.187-.531-1.187-1.188,0-.656.532-1.187,1.188-1.187Z" fill="#fff"/><path d="m4.433,7.617h12.053c1.104,0,2,.896,2,2v7.802c0,1.104-.896,2-2,2H4.433V7.617h0Z" fill="#313d4c"/></g></svg>