<?xml version="1.0" encoding="UTF-8"?><svg id="Layer_1" xmlns="http://www.w3.org/2000/svg" viewBox="0 0 40 40"><g><circle cx="20" cy="20" r="17.5" fill="#ffc84d"/><path d="m20,28.894c-1.637,0-2.915.283-3.787.568-.452.148-.822-.39-.528-.763.787-.998,2.174-2.187,4.315-2.187s3.527,1.189,4.315,2.187c.295.374-.075.911-.528.763-.872-.285-2.15-.568-3.787-.568Z" fill="#ff6d00"/><g><circle cx="15.977" cy="20.294" r="2.166"/><path d="m15,17.861c1.623,0,2.616.778,2.922,1.501.142.335-.063.49-.404.329-.541-.255-1.261-.534-2.518-.534-1.256,0-2.198.279-2.739.534-.341.161-.527-.082-.311-.387.452-.641,1.428-1.443,3.05-1.443"/><circle cx="25.977" cy="20.294" r="2.166"/><path d="m25,17.861c1.623,0,2.616.778,2.922,1.501.142.335-.063.49-.404.329-.541-.255-1.261-.534-2.518-.534-1.256,0-2.198.279-2.739.534-.341.161-.527-.082-.311-.387.452-.641,1.428-1.443,3.05-1.443"/></g></g><rect width="40" height="40" fill="none"/></svg>