<svg id="Layer_1" data-name="Layer 1" xmlns="http://www.w3.org/2000/svg" viewBox="0 0 40 40"><defs><style>.cls-1{fill:#6e4944;}.cls-2{fill:#333;}.cls-3{fill:#b7b7b7;}.cls-4{fill:#ff3d29;}.cls-5{fill:#ef4452;}.cls-6{fill:#f29579;}.cls-7{fill:#a13e20;}.cls-8{fill:none;}</style></defs><path class="cls-1" d="M17.426,9.8,17.85,11a.225.225,0,0,0,.337.11l1.6-1.065-1-1.438-1.241.827A.313.313,0,0,0,17.426,9.8Z"/><ellipse class="cls-1" cx="21.024" cy="7.563" rx="3.097" ry="3.039"/><path class="cls-2" d="M24.11,7.829l-.121-.867a.09.09,0,0,0-.147-.055,3.618,3.618,0,0,1-2.431.81L18.275,8.962s-1.471-2.285-.2-3.887a3.465,3.465,0,0,1,4.514-.626,3.455,3.455,0,0,1,1.919,2.464C24.552,7.517,24.416,7.87,24.11,7.829Z"/><ellipse class="cls-1" cx="20.405" cy="7.423" rx="1.169" ry="1.039" transform="translate(3.91 21.543) rotate(-60.556)"/><ellipse cx="23.144" cy="8.57" rx="0.42" ry="0.164" transform="translate(5.176 25.488) rotate(-63.596)"/><path class="cls-3" d="M10.68,22.511l5.992-1.64s-1.111-3.3,2.069-6.6c2.012-2.092.383-4.911-1.192-4.839-1.5.068-8.419,2.727-8.238,12.078A1.075,1.075,0,0,0,10.68,22.511Z"/><path class="cls-4" d="M16.7,19.421a19.581,19.581,0,0,1,2.268-5.153c1.753-2.49.4-5.166-1.254-5.091-1.443.066-7.618,2.4-8.552,10.264Z"/><path class="cls-2" d="M17.536,16.948l-6.673-2.637a.17.17,0,0,1-.1-.221l.137-.332a.261.261,0,0,1,.339-.141l6.593,2.6a.228.228,0,0,1,.13.3l-.124.3A.236.236,0,0,1,17.536,16.948Z"/><polygon class="cls-1" points="19.321 22.276 28.868 24.208 29.433 25.979 17.927 25.872 19.321 22.276"/><path class="cls-2" d="M10.247,22.542l1.25,3.437h6.836l.984-3.689a.422.422,0,0,0-.261-.5l-2.384-.916Z"/><path class="cls-5" d="M1.218,25.056H38.782a0,0,0,0,1,0,0v.873A7.583,7.583,0,0,1,31.2,33.512H8.8a7.583,7.583,0,0,1-7.583-7.583v-.873a0,0,0,0,1,0,0Z"/><rect class="cls-6" x="1.218" y="24.184" width="37.564" height="1.744" rx="0.388"/><path class="cls-7" d="M17.1,31.492l-.58-.554L30.208,17.151a.393.393,0,0,1,.552-.008h0a.41.41,0,0,1,.007.583Z"/><path class="cls-7" d="M18.158,30.96l-1.2-1.144a1.012,1.012,0,0,0-1.386-.007l-3.441,3.228a.966.966,0,0,0-.007,1.409l1.44,1.378A1.011,1.011,0,0,0,15,35.78l3.2-3.461A.966.966,0,0,0,18.158,30.96Z"/><path class="cls-1" d="M23.616,14.946l-5.825-3.781a1.772,1.772,0,0,0-2.426.485h0a1.7,1.7,0,0,0,.494,2.381l5.924,3.844a4,4,0,0,0,2.176.643h5.173l.967.7a.88.88,0,0,0,1.355-.233,5.584,5.584,0,0,0,.48-.721c.577-1.137.544-2.414-1.046-2.389l-1.483.155-3.4-.394A5.9,5.9,0,0,1,23.616,14.946Z"/><rect class="cls-8" width="40" height="40"/></svg>