<?xml version="1.0" encoding="UTF-8"?><svg id="Layer_1" xmlns="http://www.w3.org/2000/svg" viewBox="0 0 40 40"><g><circle cx="20" cy="20" r="17.5" fill="#ffc84d"/><path d="m28.866,22.846c2.351,0,4.256,1.906,4.256,4.256s-1.906,4.256-4.256,4.256c-6.123,0-9.098-6.617-9.098-6.617,0,0,6.747-1.895,9.098-1.895Z" fill="#fff"/><path d="m12.194,19.056c-.247-.122-.531.092-.476.362.305,1.499,1.595,2.625,3.14,2.625s2.835-1.126,3.14-2.625c.055-.27-.229-.484-.476-.362-.539.266-1.457.601-2.664.601s-2.125-.335-2.664-.601Z"/><path d="m27.806,19.056c.247-.122.531.092.476.362-.305,1.499-1.595,2.625-3.14,2.625-1.545,0-2.835-1.126-3.14-2.625-.055-.27.229-.484.476-.362.539.266,1.457.601,2.664.601s2.125-.335,2.664-.601Z"/><path d="m17.383,32.735c-.481,0-.857-.458-.729-.922.404-1.469,1.749-2.548,3.346-2.548,1.597,0,2.942,1.079,3.346,2.548.128.464-.248.922-.729.922h-5.234Z" fill="#ff6d00"/></g><rect width="40" height="40" fill="none"/></svg>