<svg id="Layer_1" data-name="Layer 1" xmlns="http://www.w3.org/2000/svg" viewBox="0 0 40 40"><defs><style>.cls-1,.cls-2,.cls-3,.cls-6,.cls-7{fill:none;}.cls-1{stroke:#65778e;stroke-linejoin:round;}.cls-1,.cls-2,.cls-3,.cls-6{stroke-linecap:round;}.cls-2,.cls-3{stroke:#6b7683;}.cls-2,.cls-3,.cls-6{stroke-miterlimit:10;}.cls-2{stroke-width:1.5px;}.cls-3{stroke-width:1.559px;}.cls-4{fill:#313d4c;}.cls-5{fill:#ffb72d;}.cls-6{stroke:#fff;stroke-width:2.178px;}.cls-7{opacity:0;}</style></defs><line class="cls-1" x1="16.865" y1="4.802" x2="18.268" y2="7.205"/><line class="cls-1" x1="23.135" y1="4.802" x2="21.732" y2="7.205"/><line class="cls-2" x1="28.974" y1="4.099" x2="11.319" y2="4.063"/><line class="cls-3" x1="13.825" y1="30.367" x2="9.601" y2="36.178"/><line class="cls-3" x1="30.399" y1="36.178" x2="26.175" y2="30.367"/><line class="cls-3" x1="10.26" y1="35.547" x2="29.74" y2="35.547"/><line class="cls-3" x1="12.094" y1="32.795" x2="27.906" y2="32.795"/><path class="cls-4" d="M31.12,10.4a4.586,4.586,0,0,0-4.534-3.9H13.413a4.586,4.586,0,0,0-4.534,3.9L7.366,20.416H32.634Z"/><path class="cls-5" d="M32.634,20.416H7.366l-.824,5.451a4.586,4.586,0,0,0,4.534,5.271H28.924a4.586,4.586,0,0,0,4.534-5.271Z"/><line class="cls-6" x1="11.177" y1="25.432" x2="28.823" y2="25.432"/><rect class="cls-7" width="40" height="40"/></svg>