<?xml version="1.0" encoding="UTF-8"?><svg id="Layer_1" xmlns="http://www.w3.org/2000/svg" viewBox="0 0 40 40"><circle cx="20" cy="20" r="17.5" style="fill:#ffc84d;"/><path d="M18.04567,21.59421c0,1.06566-2.63573,2.45993-5.10062,3.25301-.33984,.10934-.63998-.21815-.4206-.46051l1.67378-1.84918c.50539-.55835,.50534-1.32826-.00012-1.88656l-1.6744-1.84947c-.21941-.24235,.0807-.56987,.42056-.46054,2.46511,.79302,5.1014,2.18748,5.1014,3.25325Z"/><path d="M21.98505,21.59421c0,1.06566,2.63573,2.45993,5.10062,3.25301,.33984,.10934,.63998-.21815,.4206-.46051l-1.67378-1.84918c-.50539-.55835-.50534-1.32826,.00012-1.88656l1.6744-1.84947c.21941-.24235-.0807-.56987-.42056-.46054-2.46511,.79302-5.1014,2.18748-5.1014,3.25325Z"/><path d="M20,29.97962c-3.03611,0-5.11071,.66489-6.04598,1.04353-.2641,.10692-.50903-.17764-.37397-.42851,.72235-1.3417,3.40841-2.67793,6.41994-2.67793s5.6976,1.33624,6.41994,2.67794c.13507,.25087-.10987,.53543-.37396,.42851-.93527-.37864-3.00987-1.04353-6.04598-1.04353Z" style="fill:#f80;"/><path d="M26.06224,14.27147c-1.13982-.53151-1.67609-1.10009-2.12153-1.60727-.25688-.29248-.62145-.15774-.61836,.25826,.00668,.89863,.56203,2.12019,2.05553,2.81662,1.4935,.69643,2.78624,.33665,3.47893-.23586,.32066-.26503,.18954-.63092-.19964-.6397-.67485-.01522-1.45511-.06054-2.59494-.59205Z"/><path d="M13.96848,14.27147c1.13982-.53151,1.67609-1.10009,2.12153-1.60727,.25688-.29248,.62145-.15774,.61836,.25826-.00668,.89863-.56203,2.12019-2.05553,2.81662-1.4935,.69643-2.78624,.33665-3.47893-.23586-.32066-.26503-.18954-.63092,.19964-.6397,.67485-.01522,1.45511-.06054,2.59494-.59205Z"/><rect width="40" height="40" style="fill:none;"/></svg>