<?xml version="1.0" encoding="UTF-8"?><svg id="Layer_1" xmlns="http://www.w3.org/2000/svg" viewBox="0 0 40 40"><g><circle cx="20" cy="20" r="17.489" fill="#ffc84d"/><g><path id="SVGID" d="m10.727,21.245c-1.152,0-1.685.863-1.457,1.794,1.009,4.121,5.425,7.223,10.721,7.223s9.712-3.103,10.721-7.223c.228-.931-.071-1.702-1.223-1.702l-18.761-.092Z" fill="#ff6d00"/><path d="m29.488,21.337c-1.992,1.492-5.423,2.477-9.321,2.477-3.977,0-7.468-1.026-9.441-2.569l18.761.092Z" fill="#fff"/></g><g><path d="m14.099,18.595c.276.182.632.182.908,0,.876-.579,2.786-1.962,3.607-3.51,1.084-2.042-.189-4.079-1.872-4.079-.959,0-1.537.501-1.856.932-.168.227-.501.227-.669,0-.319-.431-.896-.932-1.856-.932-1.683,0-2.956,2.037-1.872,4.079.822,1.548,2.731,2.931,3.607,3.51Z" fill="#f5172b"/><path d="m25.901,18.595c-.276.182-.632.182-.908,0-.876-.579-2.786-1.962-3.607-3.51-1.084-2.042.189-4.079,1.872-4.079.959,0,1.537.501,1.856.932.168.227.501.227.669,0,.319-.431.896-.932,1.856-.932,1.683,0,2.956,2.037,1.872,4.079-.822,1.548-2.731,2.931-3.607,3.51Z" fill="#f5172b"/></g></g><rect width="40" height="40" fill="none"/></svg>