<?xml version="1.0" encoding="UTF-8"?><svg id="Layer_1" xmlns="http://www.w3.org/2000/svg" viewBox="0 0 40 40"><g><path d="M23.96997,2.95996c0-.00995-.00995-.00995-.01996-.01996l-2.63,2.27997c-.41003-.66998-1.20001-.89996-1.84003-.48999-.67999,.44-.91998,1.42999-.53998,2.21002,.15997,.32996,.40002,.57001,.69,.70001l-1.04999,1.84998-.01001,.02002-.03003-.03003-.32996,.59003c.40997-.10004,.82001-.11005,1.20996,.01996,.52002,.19,.95001,.44,1.29999,.73004l.44-.78003c.83002-.08997,1.65002-.41998,2.33002-1,1.81-1.54999,2.03003-4.27002,.47998-6.08002Zm-.16998,3.47003c-.20996,0-.38-.29999-.38-.66998s.17004-.68005,.38-.68005c.21002,0,.39001,.31006,.39001,.68005s-.16998,.66998-.39001,.66998Z" style="fill:#ffb582;"/><g><path d="M13.40002,21.17999c.09998,.34998,.13,.71997,.06995,1.10999-.22998,1.41003-1.56,2.37-2.96997,2.14001s-2.37-1.56-2.14001-2.97003c.08002-.48999,.29999-.91998,.60004-1.26996l-.01001-.01001,3.87-5.08002,2.95001,2.97003-2.37,3.10999Z" style="fill:#ffb582;"/><path d="M31.01001,17.35999c-.13,.82001-.69,1.46997-1.41003,1.77002l-2.41998,1.69995c-1.37,.97003-3.25,.75-4.35999-.50995l-.57001-.62v-5.53003l2.62,2.84998c.27002,.31,.73999,.37006,1.08002,.13l.45996-.32996c0-.06,0-.13,.01001-.20001,.20001-1.27002,1.40002-2.13,2.66003-1.92999,1.26996,.20996,2.13,1.39996,1.92999,2.66998Z" style="fill:#ffb582;"/></g></g><path d="M28.77075,32.22406h0l-6.53381-10.34949h-6.52271l.00067-.04535-5.76068,9.16235,4.29999,2.88678,.00134,.00323,4.19098-6.66571c.23987-.38153,.79578-.38202,1.03638-.00098l4.98468,7.89569-.18994-.30969,4.4931-2.57684Z" style="fill:#3e5af4;"/><path d="M22.23694,21.87457h.01495v-7.87146s-.01935-1.93842-1.53143-3.18689c-.349-.28815-.77747-.53961-1.30365-.72192-.38879-.1347-.79724-.12634-1.21143-.02905-2.57507,.60468-5.3941,5.01935-5.3941,5.01935l.01123,.01135,2.9469,2.96973h0l-.0545,3.76355-.00067,.04535h6.52271Z" style="fill:#93c9ff;"/><g><path d="M33.42401,33.9472l-.28046-.45734c-.41602-.67853-1.14948-1.09796-1.94525-1.11237l-2.42755-.15344h0l-4.4931,2.57684,.18994,.30969,1.92889,3.14575c.12274,.20013,.38446,.26294,.58466,.1402l6.30267-3.86469c.2002-.12274,.26294-.38452,.1402-.58466Z" style="fill:#4e5968;"/><path d="M9.95422,30.99158l-.00037-.00024-2.15961,3.43018c-.12512,.19867-.06543,.46118,.13324,.58624l6.25653,3.93903c.19867,.12512,.46112,.06543,.58624-.13324l.28583-.45404c.42407-.67352,.47522-1.51685,.13574-2.23669l-.93628-2.24121-.00134-.00323-4.29999-2.88678Z" style="fill:#4e5968;"/></g><path d="M23.95001,2.92999v.01001l-2.63,2.27997c-.41003-.66998-1.20001-.89996-1.84003-.48999-.67999,.44-.91998,1.42999-.53998,2.21002,.15997,.32996,.40002,.57001,.69,.70001l-1.04999,1.84998-.01001,.02002-.03003-.03003c-.16998-.08997-.32001-.19-.46997-.31-.03003-.02002-.04999-.03998-.08002-.07001-.17999-.14001-.33997-.29999-.48999-.46997-.03998-.05005-.09003-.09003-.13-.14001-.15002-.19-.29999-.39001-.41998-.60999-.03003-.05005-.04999-.10004-.08002-.16003-.03998-.08997-.08997-.16998-.13-.26996-.25,.66998-.90997,2.12994-2.34998,3.56-1.37,1.37-3.89001,1.78998-4.87,1.25995-.23004-.12-.19-.46997,.04999-.53998,1.64996-.5,1.59998-1.64001,3.02997-3.28998,1.30005-1.48999,3.26001-1.47003,3.98004-1.40002,.01996,.04999,.03998,.09003,.06,.14001-.02002-.07001-.04999-.13-.07001-.20001-.07001-.21997-.12-.46002-.15002-.70001,0-.03998,0-.09998-.01001-.13995-.00995-.13-.01996-.25-.01996-.38,0-.05005,.01001-.11005,.01001-.16003,.00995-.15997,.02997-.31,.04999-.46997,.01996-.12,.03998-.23999,.07001-.36005,.02997-.15997,.08997-.31995,.13995-.46997,.04004-.09998,.07001-.20001,.12006-.29999,.06995-.17004,.16998-.33002,.25995-.48999,.05005-.07001,.09003-.15002,.14001-.22003,.10999-.15997,.23999-.29999,.37-.44,.06-.07001,.12-.14001,.19-.20001,.13-.13,.27002-.23999,.41998-.34998,.08002-.06,.17004-.12,.25-.16998,.15002-.10004,.30005-.17999,.46002-.26001,.09998-.04004,.20001-.09003,.31-.13,.15002-.04999,.29999-.09998,.46002-.14001,.12-.02997,.23999-.06,.35999-.08002,.15997-.01996,.31-.03998,.46997-.04999,.08002,0,.15002-.01996,.22003-.01996,.06,0,.10999,.00995,.15997,.01996,.18005,0,.35004,.03003,.53003,.04999,.10999,.02002,.22998,.04004,.33997,.06,.18005,.05005,.36005,.11005,.53003,.18005,.09998,.03998,.20001,.06995,.28998,.10999,.19,.08997,.36005,.20001,.53003,.31,.07001,.04999,.15997,.08997,.22998,.14996,.16998,.13,.33002,.29004,.48004,.45001,.06,.04999,.12,.09003,.16998,.15002Z" style="fill:#ffdb87;"/><path d="M23.80432,6.43066c.21106-.00012,.38202-.3017,.38184-.67365-.00024-.37195-.17151-.6734-.38257-.67328-.21112,.00012-.38208,.30176-.3819,.67371,.00024,.37195,.17151,.67334,.38263,.67322Z"/></svg>