<?xml version="1.0" encoding="UTF-8"?><svg id="Layer_1" xmlns="http://www.w3.org/2000/svg" viewBox="0 0 40 40"><g><g><path d="M26.32068,28.60449H13.67932c.12988,.44531,.22137,.90649,.22137,1.39355,0,.50586-.09753,.98462-.2373,1.44482h12.67322c-.13977-.46021-.2373-.93896-.2373-1.44482,0-.48706,.09149-.94824,.22137-1.39355Z" style="fill:#a41926;"/><path d="M36.0993,29.99805c0,.50586-.09753,.98462-.2373,1.44482h1.61908c1.04932,0,1.89996-.85059,1.89996-1.8999v-.93848h-3.50311c.12988,.44531,.22137,.90649,.22137,1.39355Z" style="fill:#a41926;"/><path d="M4.12207,28.60449H.61853v1.03345c0,.99683,.80817,1.80493,1.80505,1.80493h1.71442c-.13977-.46021-.2373-.93896-.2373-1.44482,0-.48706,.09149-.94824,.22137-1.39355Z" style="fill:#a41926;"/></g><g><path d="M22.84277,8.97485c-.51624,0-.93475,.41846-.93475,.93481v7.08521c0,.51611,.41864,.93481,.93469,.93481h.00006l10.78058-.00024-3.59595-8.95459h-7.18463Z" style="fill:#313d4c;"/><g><path d="M35.87793,28.60449c-.60651-2.07837-2.50427-3.60645-4.77863-3.60645s-4.17212,1.52808-4.77863,3.60645c-.12988,.44531-.22137,.90649-.22137,1.39355,0,.50586,.09753,.98462,.2373,1.44482,.62292,2.052,2.5072,3.55518,4.7627,3.55518s4.13977-1.50317,4.7627-3.55518c.13977-.46021,.2373-.93896,.2373-1.44482,0-.48706-.09149-.94824-.22137-1.39355Zm-6.77863,1.39355c0-1.10449,.89545-2,2-2s2,.89551,2,2c0,1.10474-.89545,2-2,2s-2-.89526-2-2Z" style="fill:#313d4c;"/><path d="M13.67932,28.60449c-.60645-2.07837-2.50427-3.60645-4.77863-3.60645s-4.17212,1.52808-4.77863,3.60645c-.12988,.44531-.22137,.90649-.22137,1.39355,0,.50586,.09753,.98462,.2373,1.44482,.62292,2.052,2.5072,3.55518,4.7627,3.55518s4.13977-1.50317,4.7627-3.55518c.13977-.46021,.2373-.93896,.2373-1.44482,0-.48706-.09149-.94824-.22137-1.39355Zm-6.77863,1.39355c0-1.10449,.89545-2,2-2,1.10461,0,2,.89551,2,2,0,1.10474-.89539,2-2,2-1.10455,0-2-.89526-2-2Z" style="fill:#313d4c;"/></g></g><g><circle cx="31.0993" cy="29.99805" r="2" style="fill:#6b7683;"/><circle cx="8.9007" cy="29.99805" r="2" style="fill:#6b7683;"/></g><path d="M2.36084,23.0835H.61859v2.375h1.74225c.65594,0,1.1875-.53174,1.1875-1.1875,0-.65601-.53156-1.1875-1.1875-1.1875Z" style="fill:#e32939;"/><path d="M39.38,22.97998v5.62012h-3.5c-.60999-2.07007-2.51001-3.6001-4.78003-3.6001-2.27997,0-4.16998,1.53003-4.77997,3.6001H13.67999c-.60999-2.07007-2.5-3.6001-4.77997-3.6001-2.27002,0-4.17004,1.53003-4.78003,3.6001H.62v-3.14014h1.73999c.66003,0,1.19-.53003,1.19-1.18994,0-.66016-.52997-1.18994-1.19-1.18994H.62v-4.15015c0-.55005,.45001-1,1-1H19.29999V5.93994c0-.52002,.41998-.93994,.94-.93994h6.29999c1.14001,0,2.17004,.69995,2.60004,1.76001l.89001,2.20996h-7.19c-.51001,0-.93005,.42017-.93005,.93994v7.08008c0,.52002,.42004,.93994,.93005,.93994h10.82996l2.79004,.96021c1.75,.59985,2.91998,2.23975,2.91998,4.08984Z" style="fill:#ef4452;"/></g><g><path d="M39.38146,26.45837h-.79229c-.65591,0-1.1875-.53159-1.1875-1.1875s.53159-1.1875,1.1875-1.1875h.79229v2.375Z" style="fill:#fff;"/><polygon points="39.68864 39.80348 0 40 0 0 39.68864 -.19652 39.68864 39.80348" style="fill:none;"/></g></svg>