<svg id="Layer_1" data-name="Layer 1" xmlns="http://www.w3.org/2000/svg" viewBox="0 0 40 40"><defs><style>.cls-1{fill:#ffc84d;}.cls-2{fill:#ff6d00;}.cls-3{fill:#fff;}.cls-4{fill:none;}</style></defs><circle class="cls-1" cx="20" cy="20" r="17.5"/><path id="SVGID" class="cls-2" d="M9,20.022a1,1,0,0,0-1.217,1.087,12.313,12.313,0,0,0,24.428,0A1,1,0,0,0,31,20.022a47.752,47.752,0,0,1-11,1.219A47.752,47.752,0,0,1,9,20.022Z"/><path class="cls-3" d="M19.938,24.2a16.968,16.968,0,0,0,11-4.173A47.761,47.761,0,0,1,20,21.241,47.672,47.672,0,0,1,8.891,20,16.984,16.984,0,0,0,19.938,24.2Z"/><path class="cls-3" d="M8.382,23.484A2.542,2.542,0,1,1,4.47,20.238c.9-1.08,6.129-3.407,6.129-3.407S9.279,22.4,8.382,23.484Z"/><path class="cls-3" d="M31.766,22.943a2.542,2.542,0,0,0,3.616-3.574c-.987-1-6.4-2.861-6.4-2.861S30.78,21.945,31.766,22.943Z"/><path d="M12.194,16.086a.334.334,0,0,1-.476-.362,3.19,3.19,0,0,1,6.279,0,.334.334,0,0,1-.476.362,6.2,6.2,0,0,0-5.327,0Z"/><path d="M27.806,16.086a.334.334,0,0,0,.476-.362,3.19,3.19,0,0,0-6.279,0,.334.334,0,0,0,.476.362,6.2,6.2,0,0,1,5.327,0Z"/><rect class="cls-4" width="40" height="40"/></svg>