<svg id="Layer_1" data-name="Layer 1" xmlns="http://www.w3.org/2000/svg" viewBox="0 0 40 40"><defs><style>.cls-1{fill:#ff9000;}.cls-2{fill:none;}.cls-3{fill:#ffc84d;}.cls-4{fill:#3e5af4;}.cls-5{fill:#93c9ff;}.cls-6{fill:#4e5968;}</style></defs><path class="cls-1" d="M16.864,7.077A4.872,4.872,0,0,0,12.6,8.443c-1.433,1.647-1.382,2.784-3.031,3.289a.3.3,0,0,0-.05.54c.976.528,3.5.111,4.873-1.26A9.712,9.712,0,0,0,16.864,7.077Z"/><rect class="cls-2" width="40" height="40"/><rect class="cls-3" x="18.215" y="9.139" width="2.558" height="2.493" transform="translate(7.678 -8.276) rotate(29.611)"/><circle class="cls-3" cx="20.697" cy="5.759" r="4.309"/><path class="cls-1" d="M20.7,5.759,18.568,9.505a4.309,4.309,0,1,1,5.381-6.572Z"/><ellipse class="cls-3" cx="20.17" cy="6.151" rx="1.413" ry="1.625"/><ellipse cx="23.804" cy="5.757" rx="0.382" ry="0.673"/><rect class="cls-3" x="8.809" y="15.746" width="9.088" height="4.144" transform="translate(-8.913 17.65) rotate(-52.719)"/><circle class="cls-3" cx="10.911" cy="21.875" r="2.587"/><circle class="cls-3" cx="28.713" cy="16.988" r="2.325"/><path class="cls-3" d="M22.818,20.321l-3.7-4.059,2.787-2.469,2.958,3.227a.817.817,0,0,0,1.081.126l1.876-1.32,2.143,3.045-2.786,1.96A3.3,3.3,0,0,1,22.818,20.321Z"/><path class="cls-4" d="M29.487,33.359,21.146,20.146l-2.187,1.388-2.186-1.388L8.952,32.585l4.4,2.726,5.09-8.095a.612.612,0,0,1,1.036,0l5.46,8.649Z"/><path class="cls-5" d="M12.811,15.085l2.958,2.981-.055,3.809h6.538V14a4.334,4.334,0,0,0-2.835-3.909C16.611,9.122,12.811,15.085,12.811,15.085Z"/><path class="cls-6" d="M24.278,34.8,26.4,38.256a.426.426,0,0,0,.585.141l6.3-3.865a.425.425,0,0,0,.14-.585l-.28-.457A2.333,2.333,0,0,0,31.2,32.377l-2.427-.153Z"/><path class="cls-6" d="M9.954,30.991l-2.16,3.431a.425.425,0,0,0,.134.586l6.256,3.939a.425.425,0,0,0,.586-.133l.286-.454a2.334,2.334,0,0,0,.136-2.237l-.938-2.245Z"/></svg>