<svg id="Layer_1" data-name="Layer 1" xmlns="http://www.w3.org/2000/svg" viewBox="0 0 40 40"><defs><style>.cls-1{fill:#9cc0ff;}.cls-2{fill:#ffc84d;}.cls-3{fill:#fff;}.cls-4{fill:#ff6d00;}.cls-5{fill:none;}</style></defs><circle class="cls-1" cx="20" cy="20" r="17.5"/><path class="cls-2" d="M2.5,20a17.5,17.5,0,0,0,35,0C37.5,10.335,2.5,10.335,2.5,20Z"/><path d="M13.453,10.484a5.834,5.834,0,0,0,2.122-1.607c.257-.293.621-.158.618.258a3.257,3.257,0,0,1-2.056,2.817,3.256,3.256,0,0,1-3.478-.236c-.321-.265-.19-.631.2-.64A5.822,5.822,0,0,0,13.453,10.484Z"/><path d="M26.547,10.484a5.834,5.834,0,0,1-2.122-1.607c-.257-.293-.621-.158-.618.258a3.257,3.257,0,0,0,2.056,2.817,3.256,3.256,0,0,0,3.478-.236c.321-.265.19-.631-.2-.64A5.822,5.822,0,0,1,26.547,10.484Z"/><path class="cls-3" d="M9.567,19.449s-2.82,3.025-2.82,5.465a2.82,2.82,0,0,0,5.639,0C12.386,22.474,9.567,19.449,9.567,19.449Z"/><path class="cls-4" d="M20,27.766a20.513,20.513,0,0,0-5.189.638,1.1,1.1,0,0,1-1.069-1.835,8.638,8.638,0,0,1,12.516,0A1.1,1.1,0,0,1,25.189,28.4,20.513,20.513,0,0,0,20,27.766Z"/><circle cx="15.422" cy="17.507" r="2.114"/><circle cx="24.578" cy="17.507" r="2.114"/><rect class="cls-5" width="40" height="40"/></svg>