<svg id="Layer_1" data-name="Layer 1" xmlns="http://www.w3.org/2000/svg" viewBox="0 0 40 40"><defs><style>.cls-1{fill:#ffb72d;}.cls-2{fill:#ff5e00;}.cls-3{fill:#fff;}.cls-4{fill:#ff6d00;}.cls-5{fill:#ffa01d;}.cls-6{fill:none;}</style></defs><path id="SVGID" class="cls-1" d="M26.529,4.329a1.238,1.238,0,0,0-1.916.348l-1.585,3a1.622,1.622,0,0,1-1.434.863H18.406a1.622,1.622,0,0,1-1.434-.863l-1.586-3a1.236,1.236,0,0,0-1.915-.348C8.353,8.877,2.5,15.415,2.5,20.189c0,5.9,9.344,12.019,14.377,14.887a6.3,6.3,0,0,0,6.247,0C28.156,32.208,37.5,26.088,37.5,20.189,37.5,15.415,31.647,8.877,26.529,4.329Z"/><path d="M6.17,19.966,2.788,18.241A7.443,7.443,0,0,0,2.5,20.189a7.15,7.15,0,0,0,.811,3.142L6.17,21.873A1.07,1.07,0,0,0,6.17,19.966Z"/><path d="M37.212,18.241,33.83,19.966a1.07,1.07,0,0,0,0,1.907l2.859,1.458a7.15,7.15,0,0,0,.811-3.142A7.443,7.443,0,0,0,37.212,18.241Z"/><path class="cls-2" d="M19.506,21.894h.988c.485,0,.743.452.424.741l-.5.447a.664.664,0,0,1-.846,0l-.5-.447C18.763,22.346,19.021,21.894,19.506,21.894Z"/><ellipse class="cls-3" cx="14.491" cy="17.728" rx="4.243" ry="3.615" transform="translate(-7.123 25.282) rotate(-70)"/><ellipse class="cls-3" cx="25.509" cy="17.728" rx="3.615" ry="4.243" transform="translate(-4.525 9.794) rotate(-20)"/><rect class="cls-4" x="17.356" y="24.51" width="5.289" height="8.603" rx="2.644"/><path class="cls-5" d="M7.177,35.69a2.253,2.253,0,0,1-1.312-2.681C6.323,30.265,5.172,27.6,4.81,26c-.274-1.214.963-2.419,2.966-1.4,1.827.929,3.829,5.1,4.273,9.082a1.817,1.817,0,0,1-1.034,1.871A5.353,5.353,0,0,1,7.177,35.69Z"/><path class="cls-5" d="M32.823,35.69a2.253,2.253,0,0,0,1.312-2.681c-.458-2.744.693-5.412,1.055-7.009.274-1.214-.963-2.419-2.966-1.4-1.827.929-3.829,5.1-4.273,9.082a1.817,1.817,0,0,0,1.034,1.871A5.353,5.353,0,0,0,32.823,35.69Z"/><rect class="cls-6" width="40" height="40"/></svg>