<?xml version="1.0" encoding="UTF-8"?><svg id="Layer_1" xmlns="http://www.w3.org/2000/svg" viewBox="0 0 40 40"><g><rect x="3.93474" y="3.93474" width="32.13052" height="32.13052" rx="12.60149" ry="12.60149" transform="translate(20 -8.28427) rotate(45)" style="fill:#a54d3c;"/><g><circle cx="16.0784" cy="18.30407" r="6.536" style="fill:#fbbd58;"/><circle cx="23.9216" cy="18.30407" r="6.536" style="fill:#fbbd58;"/><circle cx="20.15686" cy="24.84007" r="6.536" style="fill:#fbbd58;"/></g><path d="M21.99363,25.26607c.31962-.04782,.61036,.23268,.54124,.54838-.26983,1.23241-1.30228,2.15001-2.53491,2.15001-1.23248,0-2.26498-.9176-2.53482-2.15001-.06912-.3157,.22162-.5962,.54124-.54838h3.98725Z" style="fill:#f93052;"/><path d="M11.08943,33.80907c.99489,.99489,2.11843,1.77829,3.3127,2.37092l.42345-10.23866-3.73615,7.86774Z" style="fill:#6a170f;"/><path d="M8.86642,37.49503h0c-2.65263,0-4.52282-2.60278-3.67661-5.11682l2.1666-6.43687H15.54272l-2.99969,8.91191c-.53133,1.57856-2.01103,2.64178-3.67661,2.64178Z" style="fill:#a54d3c;"/><path d="M7.01033,16.05892c.57645-.0354,1.07249,.40323,1.1079,.97971l.35106,2.30205,.91853-2.12189,1.6204-3.74329c.22944-.53004,.84511-.7737,1.37517-.54425,.52998,.22942,.77367,.84508,.54422,1.37511l-1.58919,3.7568,.2624,.11359,2.199-4.9943c.22943-.53002,.84508-.77371,1.37513-.54426,.53002,.22943,.7737,.84511,.54426,1.37513l-2.04908,4.81919,.26108,.11653,1.77568-4.01641c.22943-.53002,.84511-.7737,1.37513-.54426,.53005,.22945,.7737,.84511,.54426,1.37513l-2.03164,4.77889,.2624,.11359,1.42782-3.21282c.22944-.53004,.84511-.7737,1.37509-.54428,.53005,.22945,.77374,.84511,.5443,1.37515l-1.39662,3.22633-1.30233,3.00568c-1.08641,2.50971-4.07746,3.6307-6.68069,2.50381-.82277-.35616-1.50728-.89489-2.02585-1.54353l-.00377-.0032c-.26532-.27931-.48774-.67067-.67488-1.11657-.09665-.21699-.17807-.43946-.24311-.66702-.54394-1.71303-.67898-3.7863-.67898-3.7863l-.16741-2.7264c-.03542-.57648,.40325-1.07248,.9797-1.10789Z" style="fill:#ff9f4d;"/><g><path d="M28.91057,33.80907c-.99489,.99489-2.11843,1.77829-3.3127,2.37092l-.42345-10.23866,3.73615,7.86774Z" style="fill:#6a170f;"/><path d="M31.13358,37.49503h0c2.65263,0,4.52282-2.60278,3.67661-5.11682l-2.1666-6.43687h-8.18632l2.99969,8.91191c.53133,1.57856,2.01103,2.64178,3.67661,2.64178Z" style="fill:#a54d3c;"/><path d="M32.98967,16.05892c-.57645-.0354-1.07249,.40323-1.1079,.97971l-.35106,2.30205-.91853-2.12189-1.6204-3.74329c-.22944-.53004-.84511-.7737-1.37517-.54425-.52998,.22942-.77367,.84508-.54422,1.37511l1.58919,3.7568-.2624,.11359-2.199-4.9943c-.22943-.53002-.84508-.77371-1.37513-.54426-.53002,.22943-.7737,.84511-.54426,1.37513l2.04908,4.81919-.26108,.11653-1.77568-4.01641c-.22943-.53002-.84511-.7737-1.37513-.54426-.53005,.22945-.7737,.84511-.54426,1.37513l2.03164,4.77889-.2624,.11359-1.42782-3.21282c-.22944-.53004-.84511-.7737-1.37509-.54428-.53005,.22945-.77374,.84511-.5443,1.37515l1.39662,3.22633,1.30233,3.00568c1.08641,2.50971,4.07746,3.6307,6.68069,2.50381,.82277-.35616,1.50728-.89489,2.02585-1.54353l.00377-.0032c.26532-.27931,.48774-.67067,.67488-1.11657,.09665-.21699,.17807-.43946,.24311-.66702,.54394-1.71303,.67898-3.7863,.67898-3.7863l.16741-2.7264c.03542-.57648-.40325-1.07248-.9797-1.10789Z" style="fill:#ff9f4d;"/></g></g><rect width="40" height="40" style="fill:none;"/></svg>