<svg id="Layer_1" data-name="Layer 1" xmlns="http://www.w3.org/2000/svg" viewBox="0 0 40 40"><defs><style>.cls-1,.cls-5{fill:none;}.cls-1{opacity:0;}.cls-2{fill:#ffb72d;}.cls-3{fill:#333d4b;}.cls-4{fill:#313d4c;}.cls-5{stroke:#fff;stroke-linecap:round;stroke-miterlimit:10;stroke-width:2.375px;}</style></defs><rect class="cls-1" width="40" height="40"/><path class="cls-2" d="M35.017,21.017V31.522H4.983v-10.5a3.008,3.008,0,0,1,3.008-3.008H32.009A3.008,3.008,0,0,1,35.017,21.017Z"/><path class="cls-3" d="M28.331,31.522h6.686a0,0,0,0,1,0,0v1.972a1.583,1.583,0,0,1-1.583,1.583H29.915a1.583,1.583,0,0,1-1.583-1.583V31.522A0,0,0,0,1,28.331,31.522Z"/><path class="cls-2" d="M18.24,4.922H21.76a1.583,1.583,0,0,1,1.583,1.583V8.478a0,0,0,0,1,0,0H16.657a0,0,0,0,1,0,0V6.506A1.583,1.583,0,0,1,18.24,4.922Z"/><path class="cls-3" d="M4.983,31.522h6.686a0,0,0,0,1,0,0v1.972a1.583,1.583,0,0,1-1.583,1.583H6.566a1.583,1.583,0,0,1-1.583-1.583V31.522A0,0,0,0,1,4.983,31.522Z"/><path class="cls-4" d="M32.009,18.009l-2.536-8A3.8,3.8,0,0,0,25.85,7.353h-11.7a3.8,3.8,0,0,0-3.623,2.653l-2.535,8"/><line class="cls-5" x1="10.905" y1="25.301" x2="29.095" y2="25.301"/></svg>