<?xml version="1.0" encoding="UTF-8"?><svg id="Layer_1" xmlns="http://www.w3.org/2000/svg" viewBox="0 0 40 40"><g><circle cx="20" cy="20" r="17.5" style="fill:#ffc84d;"/><path d="M20.00033,17.74054c-.33658,0-.62501,.16334-.82292,.40472-.12599,.136-.24565,.3238-.34113,.58509-.38531,1.0547-2.3087,4.70552-6.14035,4.70552-2.56718,0-4.55928-1.04131-5.35221-3.30349-.44465-1.26855-.58756-2.72762-.63242-3.63519-.02517-.50922,.32626-.95322,.82903-1.03787,1.88335-.31709,6.62467-.90981,11.36781,.1298,.35915,.07872,.72551,.11821,1.09186,.1183,.36635-.00009,.73271-.03958,1.09186-.1183,4.74314-1.03961,9.48446-.44689,11.36781-.1298,.50277,.08465,.85419,.52864,.82903,1.03787-.04485,.90757-.18777,2.36664-.63242,3.63519-.79293,2.26218-2.78503,3.30349-5.35221,3.30349-3.83165,0-5.75504-3.65082-6.14035-4.70552-.09549-.2613-.21514-.4491-.34113-.58509-.1979-.24139-.48634-.40472-.82225-.40472Z"/><path d="M20,27.10638c-2.6812,0-4.66809-.48013-5.85568-.87876-.5413-.1817-.96037,.48927-.55756,.89393,1.18344,1.18888,3.67364,2.21278,6.41324,2.21278s5.2298-1.0239,6.41324-2.21278c.40282-.40467-.01626-1.07563-.55756-.89393-1.18758,.39863-3.17448,.87876-5.85568,.87876Z" style="fill:#f80;"/></g><rect width="40" height="40" style="fill:none;"/></svg>