<?xml version="1.0" encoding="UTF-8"?><svg id="Layer_1" xmlns="http://www.w3.org/2000/svg" viewBox="0 0 40 40"><g opacity="0"><rect y="0" width="40" height="40" fill="none"/></g><g><g><rect x="14.231" y="27.974" width="20.102" height="7.111" fill="#e2e5e8"/><path d="m3.447,27.974c-1.076,0-1.947.872-1.947,1.947v3.217c0,1.076.872,1.947,1.947,1.947h10.783v-7.111H3.447Z" fill="#ec6700"/><path d="m36.553,27.974h-2.22v7.111h2.22c1.076,0,1.947-.872,1.947-1.947v-3.217c0-1.076-.872-1.947-1.947-1.947Z" fill="#6b7683"/></g><path d="m10.245,5.559v4.4c0,5.778,4.684,10.462,10.462,10.462h6.083c4.171,0,7.553,3.381,7.553,7.553h0s2.454,0,2.454,0v-5.676c0-5.114-4.145-9.259-9.259-9.259h0c-2.535,0-4.59-2.055-4.59-4.59v-2.89c0-1.46-1.184-2.644-2.644-2.644h-7.414c-1.46,0-2.644,1.184-2.644,2.644Z" fill="#cbcfd2"/></g></svg>