<?xml version="1.0" encoding="UTF-8"?><svg id="Layer_1" xmlns="http://www.w3.org/2000/svg" viewBox="0 0 40 40"><g><g><path d="M25.92291,14.36426v.49316c0,.55664-.45117,1.00781-1.00769,1.00781H15.08478c-.55652,0-1.00769-.45117-1.00769-1.00781v-.49316h-2.10785v5.63574H28.01807v-5.63574h-2.09515Z" style="fill:#b8e0ff;"/><g><path d="M28.5,3.5H11.5C7.08173,3.5,3.5,7.08179,3.5,11.5v8.5h7.71924v-5.63574h-.90771c-.13818,0-.25-.1123-.25-.25s.11182-.25,.25-.25h.90771v-1.5918h-.90771c-.13818,0-.25-.1123-.25-.25s.11182-.25,.25-.25h3.76556v-.53906c0-.55664,.45117-1.00781,1.00769-1.00781h9.83044c.55652,0,1.00769,.45117,1.00769,1.00781v.53906h3.52924c.13818,0,.25,.1123,.25,.25s-.11182,.25-.25,.25h-.68408v1.5918h.68408c.13818,0,.25,.1123,.25,.25s-.11182,.25-.25,.25h-.68408v5.63574h7.73193V11.5c0-4.41821-3.58173-8-8-8Z" style="fill:#b8e0ff;"/><rect x="25.92291" y="12.27246" width="2.09515" height="1.5918" style="fill:#b8e0ff;"/><rect x="11.96924" y="12.27246" width="2.10785" height="1.5918" style="fill:#b8e0ff;"/></g></g><g><path d="M18.04736,20h-6.07812v3.12988c0,.20703-.16797,.375-.375,.375s-.375-.16797-.375-.375v-3.12988H3.5v8.5c0,2.13379,.8407,4.06763,2.20239,5.50195l12.34497-14.00195Z" style="fill:#298160;"/><path d="M28.76807,23.12988c0,.20703-.16797,.375-.375,.375s-.375-.16797-.375-.375v-3.12988h-6.06543l12.34497,14.00195c1.36169-1.43433,2.20239-3.36816,2.20239-5.50195v-8.5h-7.73193v3.12988Z" style="fill:#298160;"/></g><path d="M34.29755,34.00195h.00006l-12.34497-14.00195h-3.90527l-12.34497,14.00195h.00006c.54047,.56934,1.16382,1.05884,1.84985,1.45068l.00226,.00146,.02576,.01562,.00061,.00049c.211,.11914,.4292,.22705,.65149,.32715l.00299,.00146c.02271,.01025,.04431,.02222,.06708,.03223l.00061,.00024c.20697,.09082,.42047,.16919,.63617,.24243l.00409,.00146c.03992,.01367,.07825,.03052,.11847,.04346l.00061,.00024c.2016,.0647,.40887,.11621,.61713,.16504l.00592,.00146c.05573,.01294,.1095,.03076,.16565,.04272h.00061c.20312,.04272,.41119,.07129,.61981,.09839l.01007,.00171c.06171,.00781,.12152,.02148,.18365,.02783h.00061c.27411,.02881,.55231,.04395,.83411,.04395H28.5c.2818,0,.56-.01514,.83411-.04395h.00061c.06213-.00635,.12195-.02002,.18365-.02783l.01007-.00171c.20862-.0271,.41669-.05566,.61981-.09839h.00061c.05615-.01196,.10992-.02979,.16565-.04272l.00592-.00146c.20825-.04883,.41553-.10034,.61713-.16504l.00061-.00024c.04022-.01294,.07855-.02979,.11847-.04346l.00409-.00146c.2157-.07324,.4292-.15161,.63617-.24243l.00061-.00024c.02277-.01001,.04437-.02197,.06708-.03223l.00299-.00146c.22229-.1001,.44049-.20801,.65149-.32715l.00061-.00049,.02576-.01562,.00226-.00146c.68604-.39185,1.30939-.88135,1.84985-1.45068Zm-14.0578,1.67871c0,.13281-.10742,.24023-.23975,.24023s-.23975-.10742-.23975-.24023v-.42188c0-.13281,.10742-.24023,.23975-.24023s.23975,.10742,.23975,.24023v.42188Zm0-1.92188c0,.13281-.10742,.24023-.23975,.24023s-.23975-.10742-.23975-.24023v-.95996c0-.13281,.10742-.24023,.23975-.24023s.23975,.10742,.23975,.24023v.95996Zm0-2.45996c0,.13281-.10742,.24023-.23975,.24023s-.23975-.10742-.23975-.24023v-.95898c0-.13281,.10742-.24023,.23975-.24023s.23975,.10742,.23975,.24023v.95898Zm0-2.45898c0,.13281-.10742,.24023-.23975,.24023s-.23975-.10742-.23975-.24023v-.95898c0-.13281,.10742-.24023,.23975-.24023s.23975,.10742,.23975,.24023v.95898Zm0-2.45898c0,.13281-.10742,.24023-.23975,.24023s-.23975-.10742-.23975-.24023v-.95898c0-.13281,.10742-.24023,.23975-.24023s.23975,.10742,.23975,.24023v.95898Zm0-2.45898c0,.13281-.10742,.24023-.23975,.24023s-.23975-.10742-.23975-.24023v-.95898c0-.13281,.10742-.24023,.23975-.24023s.23975,.10742,.23975,.24023v.95898Zm0-2.45898c0,.13281-.10742,.24023-.23975,.24023s-.23975-.10742-.23975-.24023v-.95898c0-.13281,.10742-.24023,.23975-.24023s.23975,.10742,.23975,.24023v.95898Z" style="fill:#3d3d3d;"/><g><path d="M20,30.09961c-.13232,0-.23975,.10742-.23975,.24023v.95898c0,.13281,.10742,.24023,.23975,.24023s.23975-.10742,.23975-.24023v-.95898c0-.13281-.10742-.24023-.23975-.24023Z" style="fill:#fff;"/><path d="M20,25.18164c-.13232,0-.23975,.10742-.23975,.24023v.95898c0,.13281,.10742,.24023,.23975,.24023s.23975-.10742,.23975-.24023v-.95898c0-.13281-.10742-.24023-.23975-.24023Z" style="fill:#fff;"/><path d="M20,27.64062c-.13232,0-.23975,.10742-.23975,.24023v.95898c0,.13281,.10742,.24023,.23975,.24023s.23975-.10742,.23975-.24023v-.95898c0-.13281-.10742-.24023-.23975-.24023Z" style="fill:#fff;"/><path d="M20,32.55859c-.13232,0-.23975,.10742-.23975,.24023v.95996c0,.13281,.10742,.24023,.23975,.24023s.23975-.10742,.23975-.24023v-.95996c0-.13281-.10742-.24023-.23975-.24023Z" style="fill:#fff;"/><path d="M20,35.01855c-.13232,0-.23975,.10742-.23975,.24023v.42188c0,.13281,.10742,.24023,.23975,.24023s.23975-.10742,.23975-.24023v-.42188c0-.13281-.10742-.24023-.23975-.24023Z" style="fill:#fff;"/><path d="M20,22.72266c-.13232,0-.23975,.10742-.23975,.24023v.95898c0,.13281,.10742,.24023,.23975,.24023s.23975-.10742,.23975-.24023v-.95898c0-.13281-.10742-.24023-.23975-.24023Z" style="fill:#fff;"/><path d="M20,20.26367c-.13232,0-.23975,.10742-.23975,.24023v.95898c0,.13281,.10742,.24023,.23975,.24023s.23975-.10742,.23975-.24023v-.95898c0-.13281-.10742-.24023-.23975-.24023Z" style="fill:#fff;"/></g><path d="M29.45001,13.85986h-.67999v-1.58984h.67999c.14001,0,.25-.11011,.25-.25,0-.14014-.10999-.25-.25-.25h-3.53003v-.54004c0-.55005-.45001-1-1-1H15.08002c-.54999,0-1,.44995-1,1v.54004h-3.77002c-.14001,0-.25,.10986-.25,.25,0,.13989,.10999,.25,.25,.25h.90997v1.58984h-.90997c-.14001,0-.25,.12012-.25,.25,0,.14014,.10999,.25,.25,.25h.90997v8.77002c0,.20996,.17004,.37012,.37006,.37012,.20996,0,.37994-.16016,.37994-.37012V14.35986h2.11005v.5c0,.55005,.45001,1.01025,1,1.01025h9.83997c.54999,0,1-.46021,1-1.01025v-.5h2.10004v8.77002c0,.20996,.16998,.37012,.37,.37012,.20996,0,.38-.16016,.38-.37012V14.35986h.67999c.14001,0,.25-.10986,.25-.25,0-.12988-.10999-.25-.25-.25Zm-15.37,0h-2.11005v-1.58984h2.11005v1.58984Zm11.09998,.7002c0,.33008-.27002,.59985-.59998,.59985H15.41998c-.32996,0-.59998-.26978-.59998-.59985v-3.03003c0-.33008,.27002-.6001,.59998-.6001h9.16003c.32996,0,.59998,.27002,.59998,.6001v3.03003Zm2.84003-.7002h-2.10004v-1.58984h2.10004v1.58984Z" style="fill:#929292;"/><g><path d="M22.06122,12.74268c-.15314,0-.25299,.11426-.25299,.31763,0,.20508,.09985,.31787,.25299,.31787,.1554,0,.24945-.11279,.24945-.31787,0-.20337-.09406-.31763-.24945-.31763Z" style="fill:#00734b;"/><path d="M20.41187,12.38965h-.21808v.46729h.21808c.19751,0,.29913-.08105,.29913-.23438,0-.14771-.10162-.23291-.29913-.23291Z" style="fill:#00734b;"/><path d="M14.82373,14.55933c0,.3313,.26862,.6001,.60004,.6001h9.15253c.33136,0,.59998-.2688,.59998-.6001v-3.02783c0-.3313-.26862-.59985-.59998-.59985H15.42377c-.33142,0-.60004,.26855-.60004,.59985v3.02783Zm6.58618-2.25635c0,.07935-.06268,.14233-.1424,.14233-.07928,0-.1438-.06299-.1438-.14233,0-.07983,.06451-.14429,.1438-.14429,.07971,0,.1424,.06274,.1424,.14429Zm-.02594,.28076v.97339h-.23285v-.97339h.23285Zm-.43292,.04077c0,.19751-.12543,.34521-.30457,.39893l.36731,.53369h-.26599l-.33594-.51172h-.21808v.51172h-.23285v-1.36133h.51361c.3028,0,.4765,.17749,.4765,.42871Zm-2.05054,.11816c-.11823,0-.20691,.09229-.20691,.21948v.59497h-.23285v-.97339h.21631l.01654,.13306c.05334-.07959,.1568-.16089,.29559-.16089,.21228,0,.34888,.13501,.34888,.3252v.67603h-.23285v-.59497c0-.13086-.07349-.21948-.20471-.21948Zm-.58679-.17554v.21411c-.03174-.01074-.07031-.01465-.11646-.01465-.10522,0-.22345,.08496-.22345,.2124v.57812h-.23285v-.97339h.21588l.01697,.12769c.06091-.09448,.14203-.15552,.25842-.15552,.03894,0,.06091,.00171,.08148,.01123Zm-1.24786,.82935c.12396,0,.21808-.09229,.21808-.21973v-.59302h.23285v.97339h-.21631l-.01654-.12744c-.05371,.08154-.16077,.15527-.30457,.15527-.21631,0-.35864-.13477-.35864-.32715v-.67407h.23279v.59302c0,.1311,.07935,.21973,.21234,.21973Zm-.45343-.99756h-.42316v1.1582h-.23248v-1.1582h-.42322v-.20312h1.07886v.20312Zm5.45819,1.5332c-.22888,0-.42316-.11475-.45813-.30664h.23108c.02374,.09253,.11243,.13696,.22705,.13696,.13843,0,.24005-.06494,.24005-.22754v-.13477c-.06451,.09985-.16614,.15894-.29736,.15894-.23462,0-.43396-.18506-.43396-.49878,0-.31396,.19031-.50439,.42456-.50439,.13702,0,.24408,.06104,.31073,.16968l.01263-.14185h.21625v.92749c0,.28613-.19214,.4209-.4729,.4209Zm2.34216-1.34839v.19214h-.22345v.52075c0,.07031,.04071,.09814,.10522,.09814,.04071,0,.08112-.00586,.12183-.0188v.18115c-.05151,.02222-.10883,.02783-.17334,.02783-.17194,0-.28479-.08862-.28479-.25879v-.55029h-.1496v-.19214h.1496v-.23291h.23108v.23291h.22345Zm-1.1001-.02783c.21631,0,.35864,.13501,.35864,.3252v.67603h-.23285v-.59497c0-.13086-.07965-.21948-.21442-.21948-.12183,0-.21594,.09229-.21594,.21948v.59497h-.23285v-1.36133h.23285v.51562c.05334-.08154,.1626-.15552,.30457-.15552Z" style="fill:#00734b;"/></g><g><polygon points="15.53357 12.39893 15.95679 12.39893 15.95679 13.55713 16.18927 13.55713 16.18927 12.39893 16.61243 12.39893 16.61243 12.1958 15.53357 12.1958 15.53357 12.39893" style="fill:#fff;"/><path d="M16.62073,12.58374v.67407c0,.19238,.14233,.32715,.35864,.32715,.1438,0,.25085-.07373,.30457-.15527l.01654,.12744h.21631v-.97339h-.23285v.59302c0,.12744-.09412,.21973-.21808,.21973-.133,0-.21234-.08862-.21234-.21973v-.59302h-.23279Z" style="fill:#fff;"/><path d="M17.97382,12.71143l-.01697-.12769h-.21588v.97339h.23285v-.57812c0-.12744,.11823-.2124,.22345-.2124,.04614,0,.08472,.00391,.11646,.01465v-.21411c-.02057-.00952-.04254-.01123-.08148-.01123-.11639,0-.19751,.06104-.25842,.15552Z" style="fill:#fff;"/><path d="M19.33807,13.55713v-.67603c0-.19019-.1366-.3252-.34888-.3252-.13879,0-.24225,.0813-.29559,.16089l-.01654-.13306h-.21631v.97339h.23285v-.59497c0-.1272,.08868-.21948,.20691-.21948,.13123,0,.20471,.08862,.20471,.21948v.59497h.23285Z" style="fill:#fff;"/><path d="M19.96094,12.1958v1.36133h.23285v-.51172h.21808l.33594,.51172h.26599l-.36731-.53369c.17914-.05371,.30457-.20142,.30457-.39893,0-.25122-.17371-.42871-.4765-.42871h-.51361Zm.45093,.66113h-.21808v-.46729h.21808c.19751,0,.29913,.08521,.29913,.23291,0,.15332-.10162,.23438-.29913,.23438Z" style="fill:#fff;"/><rect x="21.15112" y="12.58374" width=".23285" height=".97339" style="fill:#fff;"/><path d="M21.26752,12.15869c-.07928,0-.1438,.06445-.1438,.14429,0,.07935,.06451,.14233,.1438,.14233,.07971,0,.1424-.06299,.1424-.14233,0-.08154-.06268-.14429-.1424-.14429Z" style="fill:#fff;"/><path d="M22.54352,13.51123v-.92749h-.21625l-.01263,.14185c-.06665-.10864-.17371-.16968-.31073-.16968-.23425,0-.42456,.19043-.42456,.50439,0,.31372,.19934,.49878,.43396,.49878,.13123,0,.23285-.05908,.29736-.15894v.13477c0,.1626-.10162,.22754-.24005,.22754-.11462,0-.20331-.04443-.22705-.13696h-.23108c.03497,.19189,.22925,.30664,.45813,.30664,.28076,0,.4729-.13477,.4729-.4209Zm-.4823-.13306c-.15314,0-.25299-.11279-.25299-.31787,0-.20337,.09985-.31763,.25299-.31763,.1554,0,.24945,.11426,.24945,.31763,0,.20508-.09406,.31787-.24945,.31787Z" style="fill:#fff;"/><path d="M23.00812,12.1958h-.23285v1.36133h.23285v-.59497c0-.1272,.09412-.21948,.21594-.21948,.13477,0,.21442,.08862,.21442,.21948v.59497h.23285v-.67603c0-.19019-.14233-.3252-.35864-.3252-.14197,0-.25122,.07397-.30457,.15552v-.51562Z" style="fill:#fff;"/><path d="M23.95825,12.35083v.23291h-.1496v.19214h.1496v.55029c0,.17017,.11285,.25879,.28479,.25879,.06451,0,.12183-.00562,.17334-.02783v-.18115c-.04071,.01294-.08112,.0188-.12183,.0188-.06451,0-.10522-.02783-.10522-.09814v-.52075h.22345v-.19214h-.22345v-.23291h-.23108Z" style="fill:#fff;"/></g></g><rect width="40" height="40" style="fill:none;"/></svg>