<?xml version="1.0" encoding="UTF-8"?><svg id="Layer_1" xmlns="http://www.w3.org/2000/svg" viewBox="0 0 40 40"><path d="m26.437,9.202c-.333-2.2-2.224-3.827-4.449-3.827h-12.926c-2.226,0-4.117,1.627-4.449,3.827l-1.485,9.825h24.795l-1.485-9.826Z" fill="#313d4c"/><path d="m27.922,19.028H3.126l-.808,5.349c-.411,2.722,1.696,5.172,4.449,5.172h17.514c2.753,0,4.861-2.45,4.449-5.173l-.809-5.349Zm-3.74,5.991H6.866c-.59,0-1.068-.479-1.068-1.068s.479-1.068,1.068-1.068h17.315c.59,0,1.068.479,1.068,1.068s-.479,1.068-1.068,1.068Z" fill="#64a7ff"/><g><path d="m26.33,34.05l-3.27-4.5h-1.85l.63.88h-12.63l.63-.88h-1.85l-3.28,4.5c-.24.34-.17.81.17,1.05.13.1.29.15.44.15.23,0,.46-.11.61-.31l.22-.31h18.75l.22.31c.15.2.38.31.61.31.15,0,.31-.05.44-.15.33-.24.41-.71.16-1.05Zm-19.09-.92l.87-1.2h14.82l.88,1.2H7.24Z" fill="#6b7683"/><path d="m32.983,34.625c0,.414.336.75.75.75s.75-.336.75-.75V13.58h-1.5v21.045Z" fill="#6b7683"/></g><g><path d="m24.182,22.882H6.866c-.59,0-1.068.479-1.068,1.068s.479,1.068,1.068,1.068h17.315c.59,0,1.068-.479,1.068-1.068s-.479-1.068-1.068-1.068Z" fill="#fff"/><g><polygon points="32.773 11.233 32.66 11.389 34.807 11.389 34.694 11.233 32.773 11.233" fill="#fff"/><polygon points="32.997 10.926 32.914 11.039 34.553 11.039 34.47 10.926 32.997 10.926" fill="#fff"/><g><path d="m34.855,10.062h-2.243c-.076,0-.139.062-.139.139s.062.139.139.139h2.243c.076,0,.139-.062.139-.139s-.062-.139-.139-.139Z" fill="#fff"/><path d="m33.734,6.502c-1.7,0-3.078,1.378-3.078,3.078s1.378,3.078,3.078,3.078,3.078-1.378,3.078-3.078-1.378-3.078-3.078-3.078Zm1.135,4.423h-.159l.424.584c.032.043.022.104-.021.136-.018.013-.038.019-.058.019-.03,0-.06-.014-.078-.04l-.029-.041h-2.429l-.029.041c-.019.026-.048.04-.078.04-.02,0-.04-.006-.058-.019-.043-.032-.053-.092-.021-.136l.424-.584h-.158c-.357,0-.63-.318-.576-.67l.105-.693.167-1.103v-.196h.035c.054-.271.289-.47.568-.47h1.675c.279,0,.513.199.568.47h.034v.196s.168,1.103.168,1.103l.105.693c.053.353-.22.67-.576.67Z" fill="#fff"/></g></g></g><g><path d="m37.152,5.58h-6.836c-.321,0-.582.26-.582.582v6.836c0,.321.26.582.582.582h6.836c.321,0,.582-.26.582-.582v-6.836c0-.321-.26-.582-.582-.582Zm-3.418,7.078c-1.7,0-3.078-1.378-3.078-3.078s1.378-3.078,3.078-3.078,3.078,1.378,3.078,3.078-1.378,3.078-3.078,3.078Z" fill="#2f81f9"/><g><path d="m35.173,8.459v-.196h-.035c.002.009.007.017.009.026l.026.17Z" fill="#2f81f9"/><path d="m32.328,8.263h-.034v.196s.025-.17.025-.17c.001-.009.007-.017.009-.026Z" fill="#2f81f9"/><path d="m35.173,8.459l-.026-.17c-.001-.009-.007-.017-.009-.026-.054-.271-.289-.47-.568-.47h-1.675c-.279,0-.513.199-.568.47-.002.009-.007.017-.009.026l-.026.17-.167,1.103-.105.693c-.053.353.22.67.576.67h.158l-.424.584c-.032.043-.022.104.021.136.018.013.038.019.058.019.03,0,.06-.014.078-.04l.029-.041h2.429l.029.041c.019.026.048.04.078.04.02,0,.04-.006.058-.019.043-.032.053-.092.021-.136l-.424-.584h.159c.357,0,.63-.318.576-.67l-.105-.693-.167-1.103Zm-.366,2.93h-2.147l.113-.155h1.921l.113.155Zm-1.893-.35l.083-.114h1.473l.083.114h-1.638Zm1.941-.7h-2.243c-.076,0-.139-.062-.139-.139s.062-.139.139-.139h2.243c.076,0,.139.062.139.139s-.062.139-.139.139Z" fill="#2f81f9"/></g></g></svg>