<?xml version="1.0" encoding="UTF-8"?><svg id="Layer_1" xmlns="http://www.w3.org/2000/svg" viewBox="0 0 40 40"><g><circle cx="20" cy="20" r="17.5" style="fill:#ffc84d;"/><circle cx="20" cy="26.33777" r="4" style="fill:#ff6d00;"/><g><path d="M16.40525,16.81338l1.33287-1.33287c.39059-.39059,.39059-1.02397,0-1.41455-.39068-.39059-1.02397-.39059-1.41465,0l-1.33278,1.33278-1.33287-1.33278c-.39068-.39059-1.02397-.39059-1.41465,0-.39059,.39059-.39059,1.02397,0,1.41455l1.33287,1.33287-1.33287,1.33287c-.39059,.39059-.39059,1.02397,0,1.41455,.39068,.39059,1.02397,.39059,1.41465,0l1.33287-1.33287,1.33278,1.33287c.39068,.39059,1.02397,.39059,1.41465,0,.39059-.39059,.39059-1.02397,0-1.41455l-1.33287-1.33287Z"/><path d="M26.42395,16.81338l1.33287-1.33287c.39059-.39059,.39059-1.02397,0-1.41455s-1.02397-.39059-1.41455,0l-1.33287,1.33287-1.33287-1.33287c-.39059-.39059-1.02397-.39059-1.41455,0s-.39059,1.02397,0,1.41455l1.33287,1.33287-1.33287,1.33287c-.39059,.39059-.39059,1.02397,0,1.41455s1.02397,.39059,1.41455,0l1.33287-1.33287,1.33287,1.33287c.39059,.39059,1.02397,.39059,1.41455,0s.39059-1.02397,0-1.41455l-1.33287-1.33287Z"/></g></g><rect width="40" height="40" style="fill:none;"/></svg>