<svg id="Layer_1" data-name="Layer 1" xmlns="http://www.w3.org/2000/svg" viewBox="0 0 40 40"><defs><style>.cls-1{fill:#ffc84d;}.cls-2{fill:#f80;}.cls-3{fill:none;}</style></defs><circle class="cls-1" cx="20" cy="20" r="17.5"/><path class="cls-2" d="M20,25.836a12.524,12.524,0,0,1-3.9-.585.5.5,0,0,0-.543.785,5.5,5.5,0,0,0,8.878,0,.5.5,0,0,0-.543-.785A12.524,12.524,0,0,1,20,25.836Z"/><path d="M12.194,16.246a.334.334,0,0,0-.476.362,3.19,3.19,0,0,0,6.279,0,.334.334,0,0,0-.476-.362,6.2,6.2,0,0,1-5.327,0Z"/><path d="M27.806,16.246a.334.334,0,0,1,.476.362,3.19,3.19,0,0,1-6.279,0,.334.334,0,0,1,.476-.362,6.2,6.2,0,0,0,5.327,0Z"/><rect class="cls-3" width="40" height="40"/></svg>