<svg id="Layer_1" data-name="Layer 1" xmlns="http://www.w3.org/2000/svg" viewBox="0 0 40 40"><defs><style>.cls-1,.cls-5{fill:none;}.cls-1{opacity:0;}.cls-2{fill:#3f3f3f;}.cls-3{fill:#fff;}.cls-4{fill:#ef4452;}.cls-5{stroke:#ef4452;stroke-miterlimit:10;stroke-width:3px;}</style></defs><rect class="cls-1" width="40" height="40"/><circle class="cls-2" cx="20" cy="20" r="17.5"/><path class="cls-3" d="M21.7,19.587H11.649a.319.319,0,0,0-.315.374L13,29.444a1.5,1.5,0,0,0,1.481,1.243h4.494a1.5,1.5,0,0,0,1.481-1.243l1.566-9.483A.319.319,0,0,0,21.7,19.587ZM19.458,29.28a.492.492,0,0,1-.486.4H14.478a.493.493,0,0,1-.487-.41l-1.238-7.055a5.417,5.417,0,0,0,3.913-.232,5.873,5.873,0,0,1,4.033-.216Z"/><path class="cls-4" d="M20,5.5A14.5,14.5,0,1,1,5.5,20,14.517,14.517,0,0,1,20,5.5m0-3A17.5,17.5,0,1,0,37.5,20,17.5,17.5,0,0,0,20,2.5Z"/><path class="cls-3" d="M28.681,16H18.725v1.944a.38.38,0,0,1-.38.38H15.278a.38.38,0,0,1-.38-.38V15.251a3.385,3.385,0,0,1,3.385-3.385h10.4a1,1,0,0,1,1,1V15A1,1,0,0,1,28.681,16Z"/><path class="cls-3" d="M16.348,10.345l2.569-.242v1.816a.769.769,0,0,0,.027.135h1.488a.769.769,0,0,0,.027-.135V10.1l2.569.242a.556.556,0,0,0,0-1.112l-2.582.258a.76.76,0,0,0-1.516,0l-2.582-.258a.556.556,0,0,0,0,1.112Z"/><line class="cls-5" x1="31.055" y1="8.321" x2="8.322" y2="31.054"/></svg>