<svg id="Layer_1" data-name="Layer 1" xmlns="http://www.w3.org/2000/svg" viewBox="0 0 40 40"><defs><style>.cls-1{fill:#007ff2;}.cls-2{fill:#fff;}.cls-3{fill:none;}</style></defs><rect class="cls-1" x="3.5" y="3.5" width="33" height="33" rx="8"/><path class="cls-2" d="M18.725,25.8h-2.19l-2.13-7.635L12.26,25.8h-2.2L6.891,14.605H9.365l1.9,7.379,2.04-7.379h2.16l2.04,7.379,1.9-7.379H21.9Z"/><path class="cls-2" d="M27.47,14.381c2.594,0,4.74,1.379,5.2,4.094h-2.49a2.529,2.529,0,0,0-2.715-2.07c-1.68,0-3.18.96-3.18,3.81,0,2.82,1.5,3.78,3.18,3.78a2.53,2.53,0,0,0,2.715-2.069h2.49c-.465,2.728-2.611,4.094-5.2,4.094a5.428,5.428,0,0,1-5.656-5.8A5.436,5.436,0,0,1,27.47,14.381Z"/><rect class="cls-3" width="40" height="40"/></svg>