<?xml version="1.0" encoding="UTF-8"?><svg id="Layer_1" xmlns="http://www.w3.org/2000/svg" viewBox="0 0 40 40"><path d="M15.46559,19.16434s1.93294-14.04101,9.25824-15.41568c0,0,2.44171-2.22627,6.4239-.85755,3.9822,1.36872,6.37058,5.23306,6.75554,8.31996,.28677,2.29958,.01686,6.96478-1.30852,12.13616-.15386,.60032-.60638,1.07854-1.1949,1.27268-1.28416,.42363-4.09579,.69629-10.07322-.68775-9.80345-2.26994-9.86104-4.76783-9.86104-4.76783Z" style="fill:#ffda86;"/><g><g><path d="M15.82701,9.01152c-.57036-.3753-1.337-.21717-1.71233,.3532l-1.34344,1.44527-.33817-1.63949-.79952-4.69976-.00008-.00101c-.09978-.58651-.64577-.98284-1.21953-.88522-.57376,.09761-.95798,.65219-.8582,1.23868v.00002l-.00012,.00003,.68798,4.04401-.52219,.10768-1.12085-4.61368c-.14045-.57812-.71275-.9354-1.2783-.79801-.56555,.13742-.91015,.71742-.76971,1.29554l1.10992,4.5688-.42831,.21075-1.5052-3.79109c-.21514-.54188-.82804-.80702-1.36897-.59226s-.80502,.82812-.58989,1.37l1.56703,3.94681-.52438,.25804-1.31431-2.73644-.00008-.00024c-.2584-.53797-.89314-.7698-1.41775-.51783-.52463,.25197-.74046,.89234-.48208,1.43031h-.00002l2.4721,5.14698,.00888-.00572c.84676,2.37618,3.33103,3.82889,5.87203,3.30476,1.38997-.28671,2.53209-1.10973,3.25501-2.20854l2.97367-4.51922c.37532-.57039,.21719-1.33703-.3532-1.71235Z" style="fill:#ffb481;"/><path d="M27.41119,24.78516l-.06415,.37183c-.19409,1.125-1.26349,1.87964-2.38855,1.68579-1.12512-.19409-1.87988-1.26367-1.68579-2.38867l.06396-.37085c-.49982-.04004-1.0036-.07446-1.52258-.08447l-.68921-.06445c-5.96765-.9043-6.89685-6.36523-7.07404-8.13611-.02698-.26978-.2547-.46851-.52576-.46204l-8.95251,.21362c-.29095,.00696-.52704,.24878-.50751,.53931,.29468,4.3855,3.11597,11.64941,10.11841,15.17114,.14227,.07153,.23486,.21484,.23627,.37427l.04669,5.42261c.00201,.23657,.19427,.427,.43073,.427h23.42224c0-5.94702-4.16016-10.85522-10.9082-12.69897Z" style="fill:#482ec4;"/></g><rect width="40" height="40" style="fill:none;"/></g><path d="M31.27116,12.32448c-3.47571-1.36855-5.26509-4.29492-5.81258-5.34107-.07445-.14226-.27878-.13484-.34258,.01251-.39559,.91361-1.57785,3.19716-3.9588,4.49953,0,0-.38962,.17641-.87577,.58831-.71413,.60507-1.14418,1.48671-1.19804,2.42116-.23536,4.0839,2.35761,7.82506,6.30839,8.73985,3.71342,.85982,7.44691-1.05073,9.1975-4.4151,1.07406-2.55136-.00798-5.20183-3.31812-6.50518Z" style="fill:#ffb481;"/><path d="M24.9585,26.84277c1.12506,.19385,2.19446-.56079,2.38855-1.68579l.06415-.37183,.3078-1.78467-4.07434-.70264-.30798,1.7854-.06396,.37085c-.19409,1.125,.56067,2.19458,1.68579,2.38867Z" style="fill:#ffb481;"/><g><ellipse cx="24.98423" cy="13.9849" rx="1.10146" ry=".91788" transform="translate(5.72392 35.17051) rotate(-76.96321)"/><ellipse cx="29.70573" cy="15.07814" rx="1.10146" ry=".91788" transform="translate(8.3153 40.61694) rotate(-76.96321)"/></g><path d="M27.37164,19.53439c.19837,.04593,.29516,.26913,.19825,.44821-.30793,.56901-.96789,.88656-1.62875,.73354s-1.11409-.72832-1.14059-1.37477c-.00834-.20345,.1767-.36139,.37508-.31546l2.19601,.50848Z" style="fill:#5c2f17;"/></svg>