<svg id="Layer_1" data-name="Layer 1" xmlns="http://www.w3.org/2000/svg" viewBox="0 0 40 40"><defs><style>.cls-1{fill:#ffb72d;}.cls-2{fill:#ff5e01;}.cls-3{fill:#ff5e00;}.cls-4{fill:#fff;}.cls-5{fill:none;}</style></defs><path id="SVGID" class="cls-1" d="M26.562,4.839a1.243,1.243,0,0,0-1.925.351L23.043,8.205a1.63,1.63,0,0,1-1.441.868H18.4a1.631,1.631,0,0,1-1.441-.868L15.363,5.19a1.243,1.243,0,0,0-1.925-.351C8.294,9.411,2,15.983,2,20.782,2,28.9,10.059,35.474,20,35.474S38,28.9,38,20.782C38,15.983,31.706,9.411,26.562,4.839Z"/><path d="M37.694,18.833l-3.383,1.724a1.077,1.077,0,0,0,0,1.918l3.208,1.635A12.148,12.148,0,0,0,38,20.782,7.02,7.02,0,0,0,37.694,18.833Z"/><path d="M2.306,18.833l3.383,1.724a1.077,1.077,0,0,1,0,1.918L2.481,24.11A12.148,12.148,0,0,1,2,20.782,7.02,7.02,0,0,1,2.306,18.833Z"/><path class="cls-2" d="M19.1,18.78h1.8c.881,0,1.351.824.77,1.349l-.9.814a1.212,1.212,0,0,1-1.542,0l-.9-.814C17.749,19.6,18.219,18.78,19.1,18.78Z"/><path class="cls-3" d="M20,26.642a11.738,11.738,0,0,0-3.648.547.468.468,0,0,1-.508-.735,5.152,5.152,0,0,1,8.312,0,.468.468,0,0,1-.508.735A11.738,11.738,0,0,0,20,26.642Z"/><path class="cls-4" d="M25.207,19.481S22.49,22.4,22.49,24.746a2.717,2.717,0,0,0,5.433,0C27.923,22.4,25.207,19.481,25.207,19.481Z"/><circle cx="15.589" cy="16.798" r="2.036"/><circle cx="24.411" cy="16.798" r="2.036"/><rect class="cls-5" width="40" height="40"/></svg>