<?xml version="1.0" encoding="UTF-8"?><svg id="Layer_1" xmlns="http://www.w3.org/2000/svg" viewBox="0 0 40 40"><path d="m26.083,21.599l5.472-1.778c-.033-2.11-.637-4.079-1.659-5.772l-5.596,1.818c-.623.203-1.263-.262-1.263-.918v-6.095c-.97-.265-1.985-.418-3.038-.418-1.026,0-2.017.147-2.965.4v6.037c0,.656-.64,1.12-1.263.918l-5.618-1.825c-1.037,1.685-1.654,3.65-1.704,5.757l5.395,1.753c.623.203.868.954.482,1.485l-3.216,4.426c1.29,1.55,2.981,2.747,4.908,3.457l3.119-4.293c.385-.53,1.176-.53,1.561,0l3.154,4.341c1.937-.687,3.638-1.87,4.946-3.405l-3.198-4.402c-.385-.53-.141-1.282.482-1.485Zm-6.083.746c-1.295,0-2.345-1.05-2.345-2.345s1.05-2.345,2.345-2.345,2.345,1.05,2.345,2.345-1.05,2.345-2.345,2.345Z" fill="#939da4"/><path d="m20,3C10.626,3,3,10.626,3,20s7.626,17,17,17,17-7.626,17-17S29.374,3,20,3Zm8.799,24.486c-1.308,1.535-3.009,2.717-4.946,3.405-1.207.429-2.5.674-3.853.674-1.401,0-2.738-.263-3.981-.721-1.926-.71-3.618-1.907-4.908-3.457-1.669-2.005-2.675-4.58-2.675-7.386,0-.094.012-.185.014-.278.05-2.107.668-4.072,1.704-5.757,1.535-2.494,3.983-4.359,6.881-5.13.948-.252,1.938-.4,2.965-.4,1.053,0,2.068.154,3.038.418,2.898.791,5.341,2.679,6.859,5.194,1.022,1.693,1.626,3.662,1.659,5.772,0,.06.009.119.009.18,0,2.855-1.045,5.466-2.766,7.485Z" fill="#3e4245"/></svg>