<svg id="Layer_1" data-name="Layer 1" xmlns="http://www.w3.org/2000/svg" viewBox="0 0 40 40"><defs><style>.cls-1,.cls-2,.cls-8{fill:none;}.cls-2{stroke:#6b7683;stroke-linecap:round;stroke-width:1.5px;}.cls-2,.cls-8{stroke-miterlimit:10;}.cls-3{fill:#333d4b;}.cls-4{fill:#93c9ff;}.cls-5{fill:#2d3d4d;}.cls-6{fill:#cbcfd2;}.cls-7{fill:#313d4c;}.cls-8{stroke:#007ff2;stroke-width:2px;}</style></defs><rect class="cls-1" width="40" height="40" transform="translate(40 40) rotate(-180)"/><line class="cls-2" x1="20" y1="13.782" x2="20" y2="6.022"/><path class="cls-3" d="M24.265,10.8h-8.53a1.75,1.75,0,0,0-1.75,1.75h12.03A1.75,1.75,0,0,0,24.265,10.8Z"/><path class="cls-4" d="M3.8,28.966v1.365a4,4,0,0,0,4,4H31.82a4,4,0,0,0,4-4V28.966Z"/><path class="cls-4" d="M35.82,14.725a2.394,2.394,0,0,0-2.394-2.394H6.2A2.393,2.393,0,0,0,3.8,14.725V28.966H35.82Z"/><line class="cls-2" x1="3.833" y1="6.058" x2="36.45" y2="6.104"/><circle class="cls-5" cx="20" cy="6.022" r="2.354"/><circle class="cls-6" cx="20" cy="6.022" r="1.177"/><rect class="cls-7" x="7.617" y="17.247" width="7.087" height="7.944" rx="1.114"/><rect class="cls-7" x="16.457" y="17.247" width="7.087" height="7.944" rx="1.114"/><rect class="cls-7" x="25.297" y="17.247" width="7.087" height="7.944" rx="1.114"/><line class="cls-8" x1="3.802" y1="28.966" x2="35.82" y2="28.966"/></svg>