<svg id="Layer_1" data-name="Layer 1" xmlns="http://www.w3.org/2000/svg" viewBox="0 0 40 40"><defs><style>.cls-1{fill:#4592fb;}.cls-2{fill:#fff;}.cls-3{fill:none;}</style></defs><rect class="cls-1" x="3.5" y="3.5" width="33" height="33" rx="8"/><path class="cls-2" d="M16.861,27.574l2.846-8.064a1.763,1.763,0,0,0-1.662-2.349h-5.69a1.763,1.763,0,0,0-1.662,2.349l2.845,8.064A1.762,1.762,0,0,0,16.861,27.574Z"/><path class="cls-2" d="M23.139,18.014l-2.846,8.065a1.762,1.762,0,0,0,1.662,2.348h5.69a1.762,1.762,0,0,0,1.662-2.348l-2.845-8.065A1.762,1.762,0,0,0,23.139,18.014Z"/><circle class="cls-2" cx="15.2" cy="13.401" r="2.15"/><circle class="cls-2" cx="24.8" cy="13.401" r="2.15"/><rect class="cls-3" width="40" height="40"/></svg>