<svg id="Layer_1" data-name="Layer 1" xmlns="http://www.w3.org/2000/svg" viewBox="0 0 40 40"><defs><style>.cls-1{fill:none;opacity:0;}.cls-2{fill:#cbcfd2;}.cls-3{fill:#313d4c;}.cls-4{fill:#6b7683;}.cls-5{fill:#fff;}.cls-6{fill:#ef4452;}</style></defs><rect class="cls-1" width="40" height="40"/><path class="cls-2" d="M30.679,18.009H5.806l-2.47,1.033a3.61,3.61,0,0,0-2.217,3.331v7.344a1.8,1.8,0,0,0,1.805,1.8H36.981a1.9,1.9,0,0,0,1.9-1.9V22.968a3.8,3.8,0,0,0-2.917-3.7Z"/><circle class="cls-3" cx="31.599" cy="30.803" r="4.275"/><circle class="cls-4" cx="31.599" cy="30.803" r="1.71"/><circle class="cls-3" cx="8.401" cy="30.803" r="4.275"/><circle class="cls-4" cx="8.401" cy="30.803" r="1.71"/><path class="cls-3" d="M30.679,18.009,27.357,9.737a3.8,3.8,0,0,0-3.526-2.384H12.69A3.8,3.8,0,0,0,9.169,9.724L5.806,18.009Z"/><path class="cls-5" d="M38.881,25.538h-.792a1.188,1.188,0,0,1,0-2.375h.792Z"/><path class="cls-6" d="M1.119,25.538H2.861a1.188,1.188,0,0,0,0-2.375H1.119Z"/></svg>