<svg id="Layer_1" data-name="Layer 1" xmlns="http://www.w3.org/2000/svg" viewBox="0 0 40 40"><defs><style>.cls-1{fill:#ffc84d;}.cls-2{fill:#f80;}.cls-3{fill:#ffa52e;}.cls-4{fill:none;}</style></defs><circle class="cls-1" cx="20" cy="20" r="17.5"/><path d="M12.194,17.2a.334.334,0,0,1-.476-.362,3.19,3.19,0,0,1,6.279,0,.334.334,0,0,1-.476.362,6.193,6.193,0,0,0-5.327,0Z"/><path d="M27.806,17.2a.334.334,0,0,0,.476-.362,3.19,3.19,0,0,0-6.279,0,.334.334,0,0,0,.476.362,6.193,6.193,0,0,1,5.327,0Z"/><path class="cls-2" d="M20.7,24.188c.464-.3,1.282-.713,1.282-1.549,0-.458-.434-1.1-1.536-1.435-.36-.109-.611-.181-.608-.39s.217-.241.56-.241,2.875.45,2.972,2.047c.071,1.172-.725,1.652-1.366,2.136a3.074,3.074,0,0,1,1.456,2.329c-.125,1.767-2.151,2.186-2.93,2.186-.461,0-.741-.04-.772-.237s.168-.289.687-.495c.865-.344,1.475-.886,1.475-1.6A2.2,2.2,0,0,0,20.7,25.208c-.386-.245-.632-.335-.625-.512C20.08,24.49,20.319,24.431,20.7,24.188Z"/><circle class="cls-3" cx="9.181" cy="21.892" r="3.485"/><circle class="cls-3" cx="30.819" cy="21.892" r="3.485"/><rect class="cls-4" width="40" height="40"/></svg>