<?xml version="1.0" encoding="UTF-8"?><svg id="Layer_1" xmlns="http://www.w3.org/2000/svg" viewBox="0 0 40 40"><g><path d="M15.82701,9.01152c-.57036-.3753-1.337-.21717-1.71233,.3532l-1.34344,1.44527-.33817-1.63949-.79952-4.69976-.00008-.00101c-.09978-.58651-.64577-.98284-1.21953-.88522-.57376,.09761-.95798,.65219-.8582,1.23868v.00002l-.00012,.00003,.68798,4.04401-.52219,.10768-1.12085-4.61368c-.14045-.57812-.71275-.9354-1.2783-.79801-.56555,.13742-.91015,.71742-.76971,1.29554l1.10992,4.5688-.42831,.21075-1.5052-3.79109c-.21514-.54188-.82804-.80702-1.36897-.59226s-.80502,.82812-.58989,1.37l1.56703,3.94681-.52438,.25804-1.31431-2.73644-.00008-.00024c-.2584-.53797-.89314-.7698-1.41775-.51783-.52463,.25197-.74046,.89234-.48208,1.43031h-.00002l2.4721,5.14698,.00888-.00572c.84676,2.37618,3.33103,3.82889,5.87203,3.30476,1.38997-.28671,2.53209-1.10973,3.25501-2.20854l2.97367-4.51922c.37532-.57039,.21719-1.33703-.3532-1.71235Z" style="fill:#ffc74d;"/><g><path d="M27.41119,24.78516l-.06415,.37183c-.19409,1.125-1.26349,1.87964-2.38855,1.68579-1.12512-.19409-1.87988-1.26367-1.68579-2.38867l.06396-.37085c-.49982-.04004-1.0036-.07446-1.52258-.08447l-.68921-.06445c-5.96765-.9043-6.89685-6.36523-7.07404-8.13611-.02698-.26978-.2547-.46851-.52576-.46204l-8.95251,.21362c-.29095,.00696-.52704,.24878-.50751,.53931,.29468,4.3855,3.11597,11.64941,10.11841,15.17114,.14227,.07153,.23486,.21484,.23627,.37427l.04669,5.42261c.00201,.23657,.19427,.427,.43073,.427h23.42224c0-5.94702-4.16016-10.85522-10.9082-12.69897Z" style="fill:#3e5af3;"/><g><circle cx="27.02849" cy="15.41894" r="8.60033" style="fill:#ffc74d;"/><g><ellipse cx="19.29744" cy="14.04268" rx="3.22914" ry="3.44291" transform="translate(1.58964 30.04336) rotate(-78.14405)" style="fill:#ffc74d;"/><ellipse cx="34.66033" cy="17.26781" rx="3.22914" ry="3.44291" transform="translate(10.63985 47.64103) rotate(-78.14405)" style="fill:#ffc74d;"/></g><path d="M24.9585,26.84277c1.12506,.19385,2.19446-.56079,2.38855-1.68579l.06415-.37183,.3078-1.78467-4.07434-.70264-.30798,1.7854-.06396,.37085c-.19409,1.125,.56067,2.19458,1.68579,2.38867Z" style="fill:#ffc74d;"/><path d="M37.05339,15.00363c1.29814-5.76098-2.68296-11.52295-8.70346-12.12667-4.63037-.46433-9.02926,2.45479-10.40816,6.89941-.1403,.45223-.24703,.90539-.32176,1.35706,0,0,.86378-.02329,1.26217,1.71922l6.85624-5.04703s5.60379,6.82805,10.1142,7.46654c.09933,.01406,.21957,.00381,.3412-.02052,.33161-.1048,.64571-.36213,.85957-.248Z" style="fill:#ff8f00;"/><g><ellipse cx="24.7493" cy="14.51535" rx="1.09828" ry=".91523" transform="translate(5.45882 35.75447) rotate(-78.14405)"/><ellipse cx="29.47864" cy="15.50818" rx="1.09828" ry=".91523" transform="translate(8.24485 41.17178) rotate(-78.14405)"/></g><path d="M27.33852,19.48361c.2013,.04226,.3037,.26567,.20955,.44854-.29915,.58108-.95906,.91553-1.62968,.77474-.67062-.14078-1.14033-.71237-1.18055-1.3647-.01266-.2053,.17094-.36867,.37224-.32641l2.22844,.46782Z" style="fill:#5c2f17;"/></g></g></g><rect width="40" height="40" style="fill:none;"/></svg>