<?xml version="1.0" encoding="UTF-8"?><svg id="Layer_1" xmlns="http://www.w3.org/2000/svg" viewBox="0 0 40 40"><g><g><path id="SVGID" d="M26.56156,4.83946c-.6036-.53633-1.54692-.36313-1.92433,.3507l-1.59388,3.01464c-.28237,.53407-.83695,.86818-1.44108,.86818h-3.20478c-.60412,0-1.15871-.33411-1.44108-.86818l-1.5939-3.01468c-.3774-.71381-1.32071-.887-1.92428-.35065C8.29374,9.41106,2,15.98341,2,20.7822c0,8.11449,8.05875,14.69221,18,14.69221s18-6.57772,18-14.69221c0-4.79881-6.2938-11.37146-11.43844-15.94274Z" style="fill:#ffb72d;"/><path d="M37.69436,18.83266l-3.38329,1.72463c-.78332,.39924-.78332,1.51836,0,1.91761l3.20772,1.63502c.30434-1.07085,.48121-2.18132,.48121-3.32773,0-.62239-.11007-1.2757-.30564-1.94954Z"/><path d="M2.30564,18.83266l3.38329,1.72463c.78332,.39924,.78332,1.51836,0,1.91761l-3.20772,1.63502c-.30434-1.07085-.48121-2.18132-.48121-3.32773,0-.62239,.11007-1.2757,.30564-1.94954Z"/></g><g><path id="SVGID-2" d="M12.13588,23.18078c-.97709,0-1.42921,.73173-1.2359,1.52132,.85568,3.49501,4.60179,6.12662,9.09348,6.12662s8.2378-2.63161,9.09348-6.12662c.19331-.78959-.06057-1.44358-1.03766-1.44358l-15.91339-.07774Z" style="fill:#ff5e00;"/><path d="M28.04927,23.25852c-1.68952,1.26546-4.59948,2.10096-7.90592,2.10096-3.37368,0-6.3346-.86983-8.00747-2.17869l15.91339,.07774Z" style="fill:#fff;"/></g><path d="M19.19305,19.21042h1.79906c.88139,0,1.35192,.82374,.77073,1.34928l-.89953,.81338c-.40836,.36925-1.13309,.36925-1.54145,0l-.89953-.81338c-.5812-.52553-.11066-1.34928,.77073-1.34928Z" style="fill:#ff5543;"/><g><circle cx="15.58945" cy="16.62702" r="2.03622"/><circle cx="24.41055" cy="16.62702" r="2.03622"/></g></g><rect width="40" height="40" style="fill:none;"/></svg>