<?xml version="1.0" encoding="UTF-8"?><svg id="a" xmlns="http://www.w3.org/2000/svg" viewBox="0 0 40 40"><rect width="40" height="40" fill="none"/><g><g><path d="M21.323,26.733h0l8.362,9.423c.67,.755,1.831,.808,2.567,.117l1.787-1.678c.733-.688,.756-1.845,.051-2.562l-8.592-8.746-2.006,5.892-2.17-2.446Z" fill="#4e5968"/><polygon points="18.24 15.898 18.239 15.897 14.677 19.243 14.677 19.244 17.393 22.304 21.097 18.806 18.24 15.898" fill="#4e5968"/></g><polygon points="21.323 26.733 23.493 29.179 25.499 23.287 25.499 23.287 25.029 22.809 21.323 26.733" fill="#2e383d"/><g><path d="M18.239,15.897h0l-3.461-3.683s-1.766-1.738-.891-3.003c2.203-3.184,7.385-.867,7.385-.867l.159-.726c-7.884-5.564-14.849,1.468-14.849,1.468L1.692,13.781c-.247,.236-.257,.627-.023,.876l2.647,2.818c.255,.289,.697,.317,.986,.062l1.097-1c1.673-1.55,3.17-2.626,4.661-1.144l3.617,3.85h0l3.563-3.347Z" fill="#abb7c7"/><path d="M29.609,19.856c2.355,.489,4.901-.177,6.729-2.005,1.88-1.88,2.534-4.52,1.964-6.93-.108-.458-.683-.619-1.016-.286l-3.239,3.239-3.526-.653-.653-3.526,3.239-3.239c.332-.332,.171-.908-.286-1.016-2.41-.57-5.05,.084-6.93,1.963-1.868,1.868-2.521,4.485-1.968,6.882,.226,.979-.157,2.002-.888,2.692l-1.937,1.829-3.704,3.498-9.198,8.686c-1.37,1.28-1.407,3.44-.082,4.766,1.326,1.325,3.486,1.289,4.766-.082l8.444-8.941h0l3.706-3.924,1.937-2.051c.678-.718,1.675-1.102,2.642-.901Z" fill="#abb7c7"/></g></g></svg>