<?xml version="1.0" encoding="UTF-8"?><svg id="Layer_1" xmlns="http://www.w3.org/2000/svg" viewBox="0 0 40 40"><rect width="40" height="40" fill="none"/><g><path d="m19.264,5.381c-.521,0-.943.42-.943.939,0,.519.422.939.943.939h3.672s0-1.878,0-1.878h-3.672Z" fill="#2f81f9"/><ellipse cx="30.377" cy="30.44" rx="5.973" ry="5.951" fill="#313d4c"/><ellipse cx="30.377" cy="30.44" rx="2.987" ry="2.975" fill="#6b7683"/><ellipse cx="10.728" cy="30.44" rx="5.973" ry="5.951" fill="#313d4c"/><path d="m19.105,18.423H6.999c-3.382,3.563-4.267,9.674-4.492,12.155-.053.588.406,1.094.996,1.094h22.051c.006,0,.012,0,.018,0,.93-.004,1.791-.48,2.397-1.182,1.319-1.526,4.604-6.844,4.604-6.844.44-1.924.456-1.509.456-1.509l-7.909-13.163c-.162-.232.004-.55.288-.55h1.355c.334,0,.585-.306.52-.634l-.748-3.754c-.05-.25-.278-.434-.533-.426-.951.027-1.729.14-2.366.308-1.825.482-2.918,2.478-2.47,4.305l3.928,15.249c.185.719-.358,1.419-1.1,1.419h-3.287c-.886,0-1.604-.718-1.604-1.604v-4.864" fill="#64a7ff"/><path d="m7.009,14.995h12.096v1.357c0,1.143-.928,2.07-2.07,2.07h-7.955c-1.143,0-2.07-.928-2.07-2.07v-1.357h0Z" transform="translate(26.113 33.418) rotate(-180)" fill="#2f81f9"/><path d="m26.98,21.285h10.516v7.531h-3.985c-3.881,0-7.031-3.15-7.031-7.031h0c0-.276.224-.5.5-.5Z" transform="translate(63.977 50.1) rotate(-180)" fill="#64a7ff"/></g></svg>