<?xml version="1.0" encoding="UTF-8"?><svg id="Layer_1" xmlns="http://www.w3.org/2000/svg" viewBox="0 0 40 40"><path d="m35.017,21.017v10.505H4.983v-10.505c0-1.661,1.347-3.008,3.008-3.008h24.018c1.661,0,3.008,1.347,3.008,3.008Z" fill="#cbcfd2"/><path d="m28.331,31.522h6.686v1.972c0,.874-.709,1.583-1.583,1.583h-3.519c-.874,0-1.583-.709-1.583-1.583v-1.972h0Z" fill="#333d4b"/><path d="m4.983,31.522h6.686v1.972c0,.874-.709,1.583-1.583,1.583h-3.519c-.874,0-1.583-.709-1.583-1.583v-1.972h0Z" fill="#333d4b"/><path d="m32.009,18.009l-2.536-8.003c-.5-1.579-1.966-2.652-3.622-2.652h-11.702c-1.657,0-3.122,1.073-3.623,2.652l-2.535,8.003" fill="#313d4c"/><path d="m29.095,26.488H10.905c-.656,0-1.188-.531-1.188-1.188s.532-1.188,1.188-1.188h18.189c.656,0,1.188.531,1.188,1.188s-.532,1.188-1.188,1.188Z" fill="#fff"/></svg>