<?xml version="1.0" encoding="UTF-8"?><svg id="Layer_1" xmlns="http://www.w3.org/2000/svg" viewBox="0 0 40 40"><g><circle cx="20" cy="20" r="17.5" fill="#ffc84d"/><path id="SVGID" d="m27.307,29.37c1.536.281,2.752-1.218,2.222-2.686-1.409-3.901-5.142-6.69-9.529-6.69s-8.12,2.789-9.529,6.69c-.53,1.469.686,2.968,2.222,2.686,2.232-.409,4.704-.636,7.307-.636s5.075.228,7.307.636Z" fill="#ff6d00"/><path d="m13.684,22.218c1.968-.305,4.087-.484,6.316-.484s4.348.179,6.316.484c-1.732-1.387-3.924-2.223-6.316-2.223s-4.584.837-6.316,2.223Z" fill="#fff"/><path d="m11.29,14.857c-.301-.049-.597.182-.495.39.565,1.155,2.208,1.808,3.983,1.495s3.096-1.488,3.231-2.767c.024-.23-.332-.346-.599-.197-.581.325-1.588.783-2.974,1.028-1.386.244-2.489.158-3.146.051Z"/><path d="m28.71,14.857c.301-.049.597.182.495.39-.565,1.155-2.208,1.808-3.983,1.495-1.775-.313-3.096-1.488-3.231-2.767-.024-.23.332-.346.599-.197.581.325,1.588.783,2.974,1.028,1.386.244,2.489.158,3.146.051Z"/></g><rect width="40" height="40" fill="none"/></svg>