<?xml version="1.0" encoding="UTF-8"?><svg id="Layer_1" xmlns="http://www.w3.org/2000/svg" viewBox="0 0 40 40"><g><path d="M32.89001,8.91992h-4.67999c-.04004,0-.07001,.02002-.11005,.03003-.31995-.3999-.54999-.86987-.63995-1.3999-.04004-.22998-.05005-.46021-.04004-.67993-1.10999-.14014-2.03998-.97998-2.23999-2.14014-.25-1.42993,.70001-2.78003,2.12-3.03003,1.41998-.23999,2.77002,.70996,3.01001,2.13989,.01001,.04004,0,.08008,.01001,.11011,1.52997-.07983,2.91998,.98999,3.19,2.55005,.15997,.89014-.10004,1.76001-.62,2.41992Z" style="fill:#d5d5d5;"/><path d="M22.18823,4.89478c1.21887,0,2.20697-.99243,2.20697-2.2168s-.9881-2.2168-2.20697-2.2168c-1.21893,0-2.20703,.99243-2.20703,2.2168s.9881,2.2168,2.20703,2.2168Z" style="fill:#d5d5d5;"/></g><polygon points="32.14948 14.63208 32.21887 14.48267 33.91626 10.82617 27.21112 10.82617 28.90851 14.48291 28.97784 14.63208 32.14948 14.63208" style="fill:#313d4c;"/><path d="M33.91626,9.92334c0-.55249-.44775-1-1-1h-4.70514c-.03894,0-.07196,.01758-.10974,.02197-.49805,.05713-.89026,.4646-.89026,.97803v.90283h6.70514v-.90283Z" style="fill:#313d4c;"/><g><path d="M37.06525,21.85986h-.5647v5.39795h.5647c.55231,0,1-.44775,1-1v-3.39795c0-.55225-.44769-1-1-1Z" style="fill:#4b596a;"/><polygon points="32.21887 14.48267 32.14948 14.63208 28.97784 14.63208 28.90851 14.48291 28.90851 17.86377 32.21887 17.86377 32.21887 14.48267" style="fill:#4b596a;"/><path d="M21.46967,32.12891c0,1.8833,1.52673,3.40991,3.41003,3.40991s3.41003-1.52661,3.41003-3.40991l-.00159-.01562h-6.81689l-.00159,.01562Z" style="fill:#4b596a;"/><path d="M29.68048,32.12891c0,1.8833,1.52673,3.40991,3.41003,3.40991s3.41003-1.52661,3.41003-3.40991l-.00159-.01562h-6.81689l-.00159,.01562Z" style="fill:#4b596a;"/></g><path d="M36.50055,18.86377c0-.55225-.44775-1-1-1H17.88702v9.7124c1.04291,.60327,1.8161,1.6189,2.06201,2.83789h16.51917c.00909-.0542,.03235-.10352,.03235-.16016v-11.39014Z" style="fill:#e32939;"/><path d="M10.39905,30.41406h1.17139c.39423-1.95361,2.11938-3.42529,4.18933-3.42529,.7785,0,1.49854,.22388,2.12726,.5874V9.65088H3.28412V28.16064c.76544-.72168,1.79047-1.17188,2.9256-1.17188,2.06995,0,3.7951,1.47168,4.18933,3.42529Zm-2.22406-16.11768c0-1.3313,1.07922-2.4104,2.41052-2.4104h.00006c1.3313,0,2.41052,1.0791,2.41052,2.4104v4.89453c0,.45728-.37067,.82788-.82794,.82788h-3.16522c-.45721,0-.82794-.37061-.82794-.82788v-4.89453Z" style="fill:#ef4452;"/><path d="M36.5,30.40991H19.95001c-.25-1.20996-1.02002-2.22998-2.06-2.82983-.63-.37012-1.35004-.59009-2.13-.59009-2.07001,0-3.79999,1.46997-4.19,3.41992h-1.16998c-.40002-1.94995-2.12-3.41992-4.19-3.41992-1.14001,0-2.16003,.44995-2.92999,1.16992-.82001,.78003-1.35004,1.88013-1.35004,3.1001,0,2.36011,1.91998,4.28003,4.28003,4.28003,2.07001,0,3.79999-1.46997,4.19-3.43018h1.16998c.39001,1.96021,2.12,3.43018,4.19,3.43018s3.79999-1.46997,4.19-3.43018h16.54999c.46997,0,.84998-.37988,.84998-.84985s-.38-.8501-.84998-.8501Zm-30.28998,2.91016c-1.13,0-2.05005-.92017-2.05005-2.06006,0-1.13013,.92004-2.05005,2.05005-2.05005s2.04999,.91992,2.04999,2.05005c0,1.13989-.91998,2.06006-2.04999,2.06006Zm9.54999,0c-1.13,0-2.04999-.92017-2.04999-2.06006,0-1.13013,.91998-2.05005,2.04999-2.05005s2.04999,.91992,2.04999,2.05005c0,1.13989-.91998,2.06006-2.04999,2.06006Z" style="fill:#313d4c;"/><g><circle cx="6.20972" cy="31.26392" r="2.052" style="fill:#6b7683;"/><circle cx="15.75977" cy="31.26392" r="2.052" style="fill:#6b7683;"/></g><path d="M9.00293,20.0188h3.16522c.45728,0,.82794-.37061,.82794-.82788v-4.89453c0-1.3313-1.07922-2.4104-2.41052-2.4104h-.00006c-1.3313,0-2.41052,1.0791-2.41052,2.4104v4.89453c0,.45728,.37073,.82788,.82794,.82788Z" style="fill:#fff;"/><path d="M18.38702,9.65088c.27612,0,.5-.22363,.5-.5v-1.63062c0-.27612-.22388-.5-.5-.5H2.78412c-.27618,0-.5,.22388-.5,.5v1.63062c0,.27637,.22382,.5,.5,.5h15.60291Z" style="fill:#a41926;"/></svg>