<svg id="Layer_1" data-name="Layer 1" xmlns="http://www.w3.org/2000/svg" xmlns:xlink="http://www.w3.org/1999/xlink" viewBox="0 0 40 40"><defs><style>.cls-1,.cls-2,.cls-3,.cls-6{fill:none;}.cls-2,.cls-3{stroke:#48596c;stroke-linecap:round;}.cls-2{stroke-linejoin:round;}.cls-2,.cls-3,.cls-6{stroke-width:2px;}.cls-3,.cls-6{stroke-miterlimit:10;}.cls-4{fill:#ffb400;}.cls-5{clip-path:url(#clip-path);}.cls-6{stroke:#ffa01d;}</style><clipPath id="clip-path"><path class="cls-1" d="M1.5,14.647v5.331a7.811,7.811,0,0,0,7.811,7.811H26.376a7.811,7.811,0,0,0,7.811-7.811V14.647a1.953,1.953,0,0,0-1.953-1.953H3.453A1.953,1.953,0,0,0,1.5,14.647Z"/></clipPath></defs><rect class="cls-1" width="40" height="40" transform="translate(40 40) rotate(-180)"/><line class="cls-2" x1="24.911" y1="31.397" x2="24.911" y2="25.695"/><path class="cls-3" d="M19.308,31.371l12.747.039a7.807,7.807,0,0,0,5.538-2.288l.907-.907"/><line class="cls-2" x1="13.705" y1="31.397" x2="13.705" y2="8.59"/><line class="cls-3" x1="19.308" y1="31.371" x2="1.5" y2="31.41"/><line class="cls-3" x1="19.308" y1="8.59" x2="7.05" y2="8.629"/><path class="cls-4" d="M1.5,14.647v5.331a7.811,7.811,0,0,0,7.811,7.811H26.376a7.811,7.811,0,0,0,7.811-7.811V14.647a1.953,1.953,0,0,0-1.953-1.953H3.453A1.953,1.953,0,0,0,1.5,14.647Z"/><g class="cls-5"><line class="cls-6" x1="1.5" y1="17.726" x2="34.187" y2="17.726"/><line class="cls-6" x1="1.5" y1="22.758" x2="34.187" y2="22.758"/></g></svg>