<svg id="Layer_1" data-name="Layer 1" xmlns="http://www.w3.org/2000/svg" viewBox="0 0 40 40"><defs><style>.cls-1,.cls-4,.cls-5{fill:none;}.cls-1{stroke:#6b7683;stroke-width:1.7px;}.cls-1,.cls-4{stroke-linecap:round;stroke-miterlimit:10;}.cls-2{fill:#313d4c;}.cls-3{fill:#64a7ff;}.cls-4{stroke:#fff;stroke-width:2.375px;}.cls-5{opacity:0;}</style></defs><line class="cls-1" x1="13.268" y1="29.842" x2="8.661" y2="36.178"/><line class="cls-1" x1="31.339" y1="36.178" x2="26.732" y2="29.842"/><line class="cls-1" x1="9.38" y1="35.49" x2="30.62" y2="35.49"/><line class="cls-1" x1="11.38" y1="32.49" x2="28.62" y2="32.49"/><path class="cls-2" d="M32.125,8.075a5,5,0,0,0-4.944-4.253H12.818A5,5,0,0,0,7.874,8.075L6.225,18.992h27.55Z"/><path class="cls-3" d="M33.775,18.992H6.225l-.9,5.944a5,5,0,0,0,4.944,5.747H29.73a5,5,0,0,0,4.944-5.748Z"/><line class="cls-4" x1="10.38" y1="24.461" x2="29.62" y2="24.461"/><rect class="cls-5" width="40" height="40"/></svg>