<?xml version="1.0" encoding="UTF-8"?><svg id="Layer_1" xmlns="http://www.w3.org/2000/svg" viewBox="0 0 40 40"><g><circle cx="19.945" cy="20" r="17.5" fill="#ffc84d"/><circle cx="15.092" cy="16.676" r="2.173"/><path d="m27.369,17.437c.257.1.521-.138.443-.402-.434-1.467-1.817-2.476-3.356-2.341s-2.726,1.369-2.899,2.889c-.031.274.27.462.506.319.514-.312,1.399-.726,2.601-.831s2.146.149,2.706.367Z"/><path d="m20.641,24.188c.464-.299,1.282-.713,1.282-1.549,0-.459-.434-1.103-1.536-1.436-.36-.109-.611-.18-.608-.389s.217-.242.56-.242c.334,0,2.875.45,2.972,2.048.071,1.171-.725,1.652-1.365,2.136.641.484,1.525,1.354,1.456,2.329-.125,1.767-2.151,2.186-2.93,2.186-.461,0-.741-.04-.772-.238s.168-.289.687-.495c.865-.344,1.475-.885,1.475-1.604,0-.93-.836-1.482-1.222-1.727s-.632-.335-.624-.511c.009-.207.248-.265.626-.508Z" fill="#ff6d00"/><path d="m30.435,34.42c-.404.097-.825-.056-1.073-.39-.786-1.06-2.446-3.514-2.752-5.695-.403-2.877,1.976-4.735,3.963-4.012,1.133.412,1.599,1.252,1.791,1.898.101.34.493.483.79.287.562-.372,1.459-.715,2.592-.303,1.987.723,2.615,3.676.457,5.621-1.636,1.475-4.485,2.287-5.769,2.594Z" fill="#f5172b"/></g><rect width="40" height="40" fill="none"/></svg>