<?xml version="1.0" encoding="UTF-8"?><svg id="Layer_1" xmlns="http://www.w3.org/2000/svg" viewBox="0 0 40 40"><g><g><path id="SVGID" d="m26.562,4.839c-.604-.536-1.547-.363-1.924.351l-1.594,3.015c-.282.534-.837.868-1.441.868h-3.205c-.604,0-1.159-.334-1.441-.868l-1.594-3.015c-.377-.714-1.321-.887-1.924-.351C8.294,9.411,2,15.983,2,20.782c0,8.114,8.059,14.692,18,14.692s18-6.578,18-14.692c0-4.799-6.294-11.371-11.438-15.943Z" fill="#ffb72d"/><path d="m37.694,18.833l-3.383,1.725c-.783.399-.783,1.518,0,1.918l3.208,1.635c.304-1.071.481-2.181.481-3.328,0-.622-.11-1.276-.306-1.95Z"/><path d="m2.306,18.833l3.383,1.725c.783.399.783,1.518,0,1.918l-3.208,1.635c-.304-1.071-.481-2.181-.481-3.328,0-.622.11-1.276.306-1.95Z"/></g><path d="m19.1,16.853h1.799c.881,0,1.352.824.771,1.349l-.9.813c-.408.369-1.133.369-1.541,0l-.9-.813c-.581-.526-.111-1.349.771-1.349Z" fill="#ff5e01"/><g><path d="m12.822,15.577c-.227.112-.488-.085-.438-.333.28-1.379,1.466-2.414,2.887-2.414s2.607,1.035,2.887,2.414c.05.248-.211.445-.438.333-.495-.245-1.34-.553-2.449-.553s-1.954.308-2.449.553Z"/><path d="m27.178,15.577c.227.112.488-.085.438-.333-.28-1.379-1.466-2.414-2.887-2.414s-2.607,1.035-2.887,2.414c-.05.248.211.445.438.333.495-.245,1.34-.553,2.449-.553,1.109,0,1.954.308,2.449.553Z"/></g><g><path id="SVGID-2" d="m11.419,20.207c-.522-.125-1.017.316-.95.848.599,4.732,4.636,8.393,9.531,8.393s8.932-3.66,9.531-8.393c.067-.532-.428-.973-.95-.848-2.519.604-5.45.951-8.581.951s-6.062-.347-8.581-.951Z" fill="#ff6d00"/><path d="m19.952,23.47c3.201,0,6.162-1.209,8.585-3.257-2.511.598-5.422.945-8.537.945-3.167,0-6.129-.355-8.669-.973,2.429,2.065,5.404,3.284,8.62,3.284Z" fill="#fff"/></g><path d="m10.638,22.16c-.773.854-2.092.919-2.946.145-.854-.773-.919-2.092-.145-2.946.773-.854,5.147-2.574,5.147-2.574,0,0-1.282,4.521-2.055,5.375Z" fill="#fff"/><path d="m29.362,22.16c.773.854,2.092.919,2.946.145s.919-2.092.145-2.946-5.147-2.574-5.147-2.574c0,0,1.282,4.521,2.055,5.375Z" fill="#fff"/></g><rect width="40" height="40" fill="none"/></svg>