<?xml version="1.0" encoding="UTF-8"?><svg id="Layer_1" xmlns="http://www.w3.org/2000/svg" viewBox="0 0 40 40"><g><rect x="4.288" y="22.042" width="2.982" height="13.12" rx=".752" ry=".752" transform="translate(-3.373 56.31) rotate(-150.3)" fill="#b7b7b7"/><path d="m16.386,16.296l-8.761,13.486c-.218.335-.663.434-1.002.222l-2.352-1.469c-.331-.207-.442-.637-.252-.978L14.623,8.506c.003-.006.011-.004.013.002l1.751,7.783s0,.004,0,.005Z" fill="#d3d3d3"/><path d="m15.238,7.681c1.887-2.195,5.033-3.01,7.769-2.066,1.488.514,2.647,1.433,3.466,2.563.358.494.393,1.154.09,1.684l-5.115,8.968c-.306.536-.902.837-1.517.778-.971-.094-1.937-.383-2.839-.898-3.872-2.209-4.921-7.46-1.855-11.029Z" fill="#d3d3d3"/><path d="m25.342,6.974c.423.366.811.762,1.132,1.204.358.494.393,1.154.091,1.684l-5.115,8.968c-.306.537-.902.837-1.517.778-.538-.052-1.073-.171-1.598-.348l7.008-12.285Z" fill="#b7b7b7"/><g><path d="m38.479,18.252c-.103,0-.208-.026-.303-.081l-.533-.304c-.294-.168-.397-.542-.229-.837.168-.294.542-.398.837-.229l.533.304c.294.168.397.542.229.837-.113.198-.32.311-.534.311Zm-3.199-1.824c-.103,0-.208-.026-.303-.081l-.533-.304c-.294-.168-.397-.543-.229-.837.168-.296.542-.397.837-.229l.533.304c.294.168.397.543.229.837-.113.199-.32.311-.534.311Zm-3.198-1.824c-.103,0-.208-.026-.303-.081l-.533-.304c-.294-.168-.397-.542-.229-.837s.542-.398.837-.229l.533.304c.294.168.397.542.229.837-.113.198-.32.311-.534.311Zm-3.198-1.824c-.103,0-.208-.026-.303-.081l-.533-.304c-.294-.168-.397-.542-.229-.837.167-.294.542-.397.837-.229l.533.304c.294.168.397.542.229.837-.113.198-.32.311-.534.311Z" fill="#93c9ff"/><path d="m37.122,20.631c-.103,0-.208-.026-.303-.081l-.533-.304c-.294-.168-.397-.542-.229-.837.167-.294.542-.397.837-.229l.533.304c.294.168.397.542.229.837-.113.198-.32.311-.534.311Zm-3.199-1.824c-.103,0-.208-.026-.303-.081l-.533-.304c-.294-.168-.397-.543-.229-.837.168-.295.542-.398.837-.229l.533.304c.294.168.397.543.229.837-.113.199-.32.311-.534.311Zm-3.198-1.824c-.103,0-.208-.026-.303-.081l-.533-.304c-.294-.168-.397-.542-.229-.837.168-.294.542-.397.837-.229l.533.304c.294.168.397.542.229.837-.113.198-.32.311-.534.311Zm-3.198-1.824c-.103,0-.208-.026-.303-.081l-.533-.304c-.294-.168-.397-.542-.229-.837.167-.295.542-.398.837-.229l.533.304c.294.168.397.542.229.837-.113.198-.32.311-.534.311Z" fill="#93c9ff"/><path d="m35.765,23.01c-.103,0-.208-.026-.303-.081l-.533-.304c-.294-.168-.397-.542-.229-.837.167-.295.542-.398.837-.229l.533.304c.294.168.397.542.229.837-.113.198-.32.311-.534.311Zm-3.199-1.824c-.103,0-.208-.026-.303-.081l-.533-.304c-.294-.168-.397-.543-.229-.837.168-.296.542-.399.837-.229l.533.304c.294.168.397.543.229.837-.113.199-.32.311-.534.311Zm-3.198-1.824c-.103,0-.208-.026-.303-.081l-.533-.304c-.294-.168-.397-.542-.229-.837.168-.294.542-.398.837-.229l.533.304c.294.168.397.542.229.837-.113.198-.32.311-.534.311Zm-3.198-1.824c-.103,0-.208-.026-.303-.081l-.533-.304c-.294-.168-.397-.542-.229-.837.167-.294.542-.398.837-.229l.533.304c.294.168.397.542.229.837-.113.198-.32.311-.534.311Z" fill="#93c9ff"/><path d="m34.408,25.389c-.103,0-.208-.026-.303-.081l-.533-.304c-.294-.168-.397-.542-.229-.837.167-.294.542-.398.837-.229l.533.304c.294.168.397.542.229.837-.113.198-.32.311-.534.311Zm-3.199-1.824c-.103,0-.208-.026-.303-.081l-.533-.304c-.294-.168-.397-.543-.229-.837.168-.296.542-.398.837-.229l.533.304c.294.168.397.543.229.837-.113.199-.32.311-.534.311Zm-3.198-1.824c-.103,0-.208-.026-.303-.081l-.533-.304c-.294-.168-.397-.542-.229-.837.168-.294.542-.398.837-.229l.533.304c.294.168.397.542.229.837-.113.198-.32.311-.534.311Zm-3.198-1.824c-.103,0-.208-.026-.303-.081l-.533-.304c-.294-.168-.397-.542-.229-.837.167-.294.542-.398.837-.229l.533.304c.294.168.397.542.229.837-.113.198-.32.311-.534.311Z" fill="#93c9ff"/></g></g><rect width="40" height="40" fill="none"/></svg>