<?xml version="1.0" encoding="UTF-8"?><svg id="Layer_1" xmlns="http://www.w3.org/2000/svg" viewBox="0 0 40 40"><g><path d="m17.34,4.922h2.519c.874,0,1.583.709,1.583,1.583v1.972h-5.686v-1.972c0-.874.709-1.583,1.583-1.583Z" fill="#ffb72d"/><path d="m30.679,18.009H5.806l-2.47,1.033c-1.343.562-2.217,1.875-2.217,3.331v7.345c0,.997.808,1.805,1.805,1.805h34.058c1.049,0,1.9-.851,1.9-1.9v-6.654c0-1.758-1.206-3.287-2.917-3.696l-5.285-1.263Z" fill="#ffb72d"/><g><circle cx="31.599" cy="30.803" r="4.275" fill="#313d4c"/><circle cx="31.599" cy="30.803" r="1.71" fill="#6b7683"/></g><g><circle cx="8.401" cy="30.803" r="4.275" fill="#313d4c"/><circle cx="8.401" cy="30.803" r="1.71" fill="#6b7683"/></g><path d="m30.679,18.009l-3.322-8.272c-.578-1.44-1.974-2.384-3.526-2.384h-11.141c-1.547,0-2.939.938-3.521,2.371l-3.363,8.285h24.873Z" fill="#313d4c"/><path d="m38.881,25.538h-.792c-.656,0-1.188-.532-1.188-1.188s.532-1.188,1.188-1.188h.792v2.375Z" fill="#fff"/><path d="m1.119,25.538h1.742c.656,0,1.188-.532,1.188-1.187s-.532-1.188-1.187-1.188h-1.742s0,2.375,0,2.375Z" fill="#ef4452"/></g><g><rect x="13" y="23.958" width="2" height="2" fill="#313d4c"/><rect x="15" y="21.958" width="2" height="2" fill="#313d4c"/><rect x="17" y="23.958" width="2" height="2" fill="#313d4c"/><rect x="19" y="21.958" width="2" height="2" fill="#313d4c"/><rect x="21" y="23.958" width="2" height="2" fill="#313d4c"/><rect x="23" y="21.958" width="2" height="2" fill="#313d4c"/><rect x="25" y="23.958" width="2" height="2" fill="#313d4c"/></g></svg>