<?xml version="1.0" encoding="UTF-8"?><svg id="Layer_1" xmlns="http://www.w3.org/2000/svg" viewBox="0 0 40 40"><g><circle cx="20" cy="20" r="17.5" style="fill:#ffc84d;"/><g><path id="SVGID" d="M10.72066,21.81273c-1.15269,0-1.68607,.65117-1.45801,1.36092,1.00946,3.14159,5.42882,5.50709,10.72774,5.50709s9.71829-2.3655,10.72774-5.50709c.22806-.70975-.07146-1.26921-1.22415-1.26921l-18.77333-.09171Z" style="fill:#ff6d00;"/><path d="M15.0113,29.45467c0,2.49065,2.08104,4.50972,4.64813,4.50972,2.56709,0,4.64813-2.01907,4.64813-4.50972l.05451-6.26577H15.06582l-.05451,6.26577Z" style="fill:#f5172b;"/><path d="M29.49398,21.90443c-1.99315,1.49288-5.42609,2.47854-9.32676,2.47854-3.98,0-7.47304-1.02616-9.44657-2.57025l18.77333,.09171Z" style="fill:#fff;"/></g><path d="M18.03031,14.88868c0,1.06566-2.63573,2.45993-5.10062,3.25301-.33984,.10934-.63998-.21815-.4206-.46051l1.67378-1.84918c.50539-.55835,.50534-1.32826-.00012-1.88656l-1.6744-1.84947c-.21941-.24235,.0807-.56987,.42056-.46054,2.46511,.79302,5.1014,2.18748,5.1014,3.25325Z"/><path d="M21.96969,14.88868c0,1.06566,2.63573,2.45993,5.10062,3.25301,.33984,.10934,.63998-.21815,.4206-.46051l-1.67378-1.84918c-.50539-.55835-.50534-1.32826,.00012-1.88656l1.6744-1.84947c.21941-.24235-.0807-.56987-.42056-.46054-2.46511,.79302-5.1014,2.18748-5.1014,3.25325Z"/></g><rect width="40" height="40" style="fill:none;"/></svg>