<?xml version="1.0" encoding="UTF-8"?><svg id="Layer_1" xmlns="http://www.w3.org/2000/svg" viewBox="0 0 40 40"><g><path d="M35.4193,34.87877c0,1.82418-6.94993,2.72254-15.5231,2.72254s-15.5231-.89836-15.5231-2.72254v-13.12489h31.0462v13.12489Z" style="fill:#ac7262;"/><path d="M16.12662,4.81656L2.89646,18.93622c-1.54074,1.64433-.68252,4.37318,1.53274,4.78585,10.31956,1.92239,20.63906,1.91485,30.95862-.0226,2.1881-.41081,3.06136-3.08667,1.57362-4.74292L24.33762,4.90292c-2.18265-2.42987-5.97773-2.46978-8.211-.08636Z" style="fill:#474747;"/><path d="M20.03515,27.63611c-2.52504,0-4.57192,2.04713-4.57192,4.57217v5.27705c1.40562,.05849,2.89148,.08848,4.43295,.08848,1.6432,0,3.22467-.03349,4.71115-.09973v-5.2658c0-2.52504-2.04713-4.57217-4.57217-4.57217Z" style="fill:#5e403b;"/></g><rect y="0" width="40" height="40" style="fill:none;"/></svg>