<?xml version="1.0" encoding="UTF-8"?><svg id="Layer_1" xmlns="http://www.w3.org/2000/svg" viewBox="0 0 40 40"><g><circle cx="20" cy="20" r="17.5" fill="#ffc84d"/><path id="SVGID" d="m10.721,21.873c-1.153,0-1.686.651-1.458,1.361,1.009,3.142,5.429,5.507,10.728,5.507s9.718-2.366,10.728-5.507c.228-.71-.071-1.269-1.224-1.269l-18.773-.092Z" fill="#ff6d00"/><path d="m15.011,28.515c0,2.491,2.081,4.51,4.648,4.51s4.648-2.019,4.648-4.51l.055-5.266h-9.296s-.055,5.266-.055,5.266Z" fill="#f5172b"/><path d="m29.494,21.965c-1.993,1.493-5.426,2.479-9.327,2.479-3.98,0-7.473-1.026-9.447-2.57l18.773.092Z" fill="#fff"/><circle cx="24.622" cy="16.277" r="2.166"/><circle cx="15.604" cy="16.277" r="2.166"/></g><rect width="40" height="40" fill="none"/></svg>