<?xml version="1.0" encoding="UTF-8"?><svg id="Layer_1" xmlns="http://www.w3.org/2000/svg" viewBox="0 0 40 40"><g><path d="m38.881,22.968c0-.648-.166-1.264-.459-1.805H1.336c-.137.383-.217.789-.217,1.21v7.345c0,.997.808,1.805,1.805,1.805h34.057c1.049,0,1.9-.851,1.9-1.9v-6.46h-.009.009v-.195Z" fill="#4b596a"/><path d="m35.964,19.272l-5.285-1.263H5.806l-2.47,1.033c-.954.399-1.664,1.181-2,2.121h37.086c-.501-.927-1.378-1.633-2.458-1.891Z" fill="#d0d6de"/></g><g><g><path d="m14.361,4.922c-.831,0-1.504.674-1.504,1.504v2.051h5.243v-3.556h-3.739Z" fill="#007ff2"/><path d="m23.343,6.427c0-.831-.673-1.504-1.504-1.504h-3.739v3.556h5.243v-2.051Z" fill="#ef4452"/></g><g><circle cx="31.599" cy="30.803" r="4.275" fill="#313d4c"/><circle cx="31.599" cy="30.803" r="1.71" fill="#6b7683"/></g><g><circle cx="8.401" cy="30.803" r="4.275" fill="#313d4c"/><circle cx="8.401" cy="30.803" r="1.71" fill="#6b7683"/></g><path d="m30.679,18.009l-3.322-8.272c-.578-1.44-1.974-2.384-3.526-2.384h-11.141c-1.547,0-2.939.938-3.521,2.371l-3.363,8.285h24.873Z" fill="#313d4c"/><path d="m38.881,26.538h-.792c-.656,0-1.188-.532-1.188-1.188s.532-1.188,1.188-1.188h.792v2.375Z" fill="#fff"/><path d="m1.119,26.538h1.742c.656,0,1.188-.532,1.188-1.187s-.532-1.188-1.187-1.188h-1.742s0,2.375,0,2.375Z" fill="#ef4452"/></g></svg>