<?xml version="1.0" encoding="UTF-8"?><svg id="Layer_1" xmlns="http://www.w3.org/2000/svg" viewBox="0 0 40 40"><circle cx="20" cy="20" r="17.5" fill="#ffc84d"/><path d="m20,31.425c-.409,0-.805-.17-1.087-.467l-2.035-2.143-2.042,2.141c-.282.296-.678.465-1.086.465h-.01c-.412-.003-.809-.178-1.089-.48l-1.761-1.896c-.375-.405-.352-1.038.053-1.413.406-.376,1.038-.352,1.414.053l1.398,1.507,2.037-2.137c.281-.295.677-.465,1.085-.465h.002c.409,0,.805.171,1.086.468l2.034,2.141,2.035-2.142c.28-.296.676-.466,1.085-.467h.002c.408,0,.804.17,1.085.465l2.037,2.137,1.398-1.507c.375-.406,1.008-.428,1.414-.053.404.375.428,1.008.053,1.413l-1.76,1.896c-.281.302-.678.477-1.09.48-.362.004-.811-.167-1.095-.464l-2.043-2.142-2.035,2.142c-.282.297-.678.467-1.087.467Z" fill="#ff6d00"/><g><path d="m18.05,21c0,1.055-2.609,2.435-5.05,3.22-.336.108-.634-.216-.416-.456l1.657-1.831c.5-.553.5-1.315,0-1.868l-1.658-1.831c-.217-.24.08-.564.416-.456,2.44.785,5.05,2.166,5.05,3.221Z"/><path d="m21.95,21c0,1.055,2.609,2.435,5.05,3.22.336.108.634-.216.416-.456l-1.657-1.831c-.5-.553-.5-1.315,0-1.868l1.658-1.831c.217-.24-.08-.564-.416-.456-2.44.785-5.05,2.166-5.05,3.221Z"/></g><rect width="40" height="40" fill="none"/></svg>