<?xml version="1.0" encoding="UTF-8"?><svg id="Layer_1" xmlns="http://www.w3.org/2000/svg" viewBox="0 0 40 40"><g><circle cx="20" cy="20" r="17.5" fill="#ffc84d"/><circle cx="15.147" cy="16.676" r="2.173"/><path d="m20,24.673c-2.214,0-3.895-.419-4.969-.802-.461-.164-.856.367-.568.764.925,1.277,2.692,2.979,5.537,2.979s4.612-1.701,5.537-2.979c.287-.396-.107-.928-.568-.764-1.074.383-2.755.802-4.969.802Z" fill="#ff6d00"/><path d="m27.425,17.437c.257.1.521-.138.443-.402-.434-1.467-1.817-2.476-3.356-2.341s-2.726,1.369-2.899,2.889c-.031.274.27.462.506.319.514-.312,1.399-.726,2.601-.831s2.146.149,2.706.367Z"/></g><rect width="40" height="40" fill="none"/></svg>