<svg id="Layer_1" data-name="Layer 1" xmlns="http://www.w3.org/2000/svg" viewBox="0 0 40 40"><defs><style>.cls-1{fill:none;opacity:0;}.cls-2{fill:#6b7683;}.cls-3{fill:#cbcfd2;}.cls-4{fill:#313d4c;}.cls-5{fill:#fff;}</style></defs><rect class="cls-1" width="40" height="40"/><path class="cls-2" d="M4.436,30.6v2.836H7.11a2.835,2.835,0,0,1,2.835,2.835h5.768a2.835,2.835,0,0,1,2.835-2.835h1.775a2.835,2.835,0,0,1,2.835,2.835h5.768a2.835,2.835,0,0,1,2.835-2.835h2.675V30.6Z"/><path class="cls-3" d="M30.56,30.6H4.433V18.9H32.47L34.89,23.1A5,5,0,0,1,30.56,30.6Z"/><path class="cls-3" d="M25.159,6.234,32.474,18.9H4.436V5.734a2,2,0,0,1,2-2H20.829A5,5,0,0,1,25.159,6.234Z"/><path class="cls-4" d="M25.66,7.1l6.814,11.8H22.93a2,2,0,0,1-2-2V8.658A1.556,1.556,0,0,1,22.486,7.1Z"/><path class="cls-5" d="M33.266,23.186h1.672a4.944,4.944,0,0,1,.626,2.375h-2.3a1.188,1.188,0,1,1,0-2.375Z"/><path class="cls-4" d="M4.433,7.1H16.485a2,2,0,0,1,2,2v7.8a2,2,0,0,1-2,2H4.433a0,0,0,0,1,0,0V7.1A0,0,0,0,1,4.433,7.1Z"/></svg>