<svg id="Layer_1" data-name="Layer 1" xmlns="http://www.w3.org/2000/svg" viewBox="0 0 40 40"><defs><style>.cls-1{fill:#ffc84d;}.cls-2{fill:#f80;}.cls-3{fill:#fff;}.cls-4{fill:none;}</style></defs><circle class="cls-1" cx="20" cy="20" r="17.5"/><path class="cls-1" d="M37.5,20a17.5,17.5,0,0,1-35,0C2.5,10.335,37.5,10.335,37.5,20Z"/><path class="cls-2" d="M20,28.894a12.2,12.2,0,0,0-3.787.568.486.486,0,0,1-.528-.763,5.35,5.35,0,0,1,8.63,0,.486.486,0,0,1-.528.763A12.2,12.2,0,0,0,20,28.894Z"/><path class="cls-3" d="M14.289,21.358s-2.82,3.025-2.82,5.465a2.82,2.82,0,0,0,5.639,0C17.108,24.383,14.289,21.358,14.289,21.358Z"/><path d="M13.218,10.571A5.834,5.834,0,0,0,11.1,12.178c-.256.292-.621.158-.618-.258A3.257,3.257,0,0,1,12.534,9.1a3.256,3.256,0,0,1,3.479.236c.32.265.189.631-.2.64A5.822,5.822,0,0,0,13.218,10.571Z"/><path d="M26.782,10.571A5.834,5.834,0,0,1,28.9,12.178c.256.292.621.158.618-.258A3.257,3.257,0,0,0,27.466,9.1a3.256,3.256,0,0,0-3.479.236c-.32.265-.189.631.2.64A5.822,5.822,0,0,1,26.782,10.571Z"/><circle cx="15.422" cy="17.007" r="2.114"/><circle cx="24.578" cy="17.007" r="2.114"/><rect class="cls-4" width="40" height="40"/></svg>