<?xml version="1.0" encoding="UTF-8"?><svg id="Layer_1" xmlns="http://www.w3.org/2000/svg" viewBox="0 0 40 40"><g><path d="M10.10062,34.49397c1.24136-1.24136,1.24136-3.25401,0-4.49537-1.24136-1.24136-3.25401-1.24136-4.49537,0-1.24136,1.24136-2.2652,6.76057-2.2652,6.76057,0,0,5.51921-1.02383,6.76057-2.2652Z" style="fill:#ff3d29;"/><path d="M15.08698,33.81256L6.29133,25.01692c-.29164-.29164-.19136-.78628,.19082-.94133l4.04442-1.64077,7.16608,7.16608-1.66589,4.0246c-.15707,.37947-.64939,.47746-.93979,.18705Z" style="fill:#8595aa;"/><path d="M35.62115,8.78867l-6.13975,26.11155c-.64302,2.73467-4.03864,3.70092-6.02508,1.71448L3.48451,16.64289c-1.98644-1.98644-1.0202-5.38206,1.71448-6.02508L31.31054,4.47806c2.5917-.6094,4.92001,1.71891,4.31061,4.31061Z" style="fill:#8595aa;"/><path d="M24.91352-1.00346h.00001c3.68857,0,6.68322,2.99465,6.68322,6.68322V31.37483h-13.36646V5.67977c0-3.68857,2.99465-6.68322,6.68322-6.68322Z" transform="translate(18.03491 -13.16874) rotate(45)" style="fill:#d0d6de;"/><circle cx="30.13138" cy="9.96783" r="3.84656" style="fill:#6ba0ff;"/></g><rect width="40" height="40" style="fill:none;"/></svg>