<svg id="Layer_1" data-name="Layer 1" xmlns="http://www.w3.org/2000/svg" viewBox="0 0 40 40"><defs><style>.cls-1{fill:#4592fb;}.cls-2{fill:#fff;}.cls-3,.cls-4{fill:none;}.cls-3{stroke:#fff;stroke-miterlimit:10;stroke-width:0.773px;}.cls-4{opacity:0;}</style></defs><rect class="cls-1" x="3.5" y="3.5" width="33" height="33" rx="8"/><circle class="cls-2" cx="19.893" cy="17.66" r="0.92"/><path class="cls-2" d="M18.544,23.633h1.139a0,0,0,0,1,0,0v4.433a.57.57,0,0,1-.57.57h0a.57.57,0,0,1-.57-.57V23.633A0,0,0,0,1,18.544,23.633Z"/><path class="cls-2" d="M20.1,23.633h1.139a0,0,0,0,1,0,0v4.433a.57.57,0,0,1-.57.57h0a.57.57,0,0,1-.57-.57V23.633A0,0,0,0,1,20.1,23.633Z"/><rect class="cls-2" x="18.544" y="18.997" width="2.698" height="4.735"/><path class="cls-2" d="M18.193,19h0a0,0,0,0,1,0,0v4.268a.522.522,0,0,1-.522.522h0a.522.522,0,0,1-.522-.522V20.041A1.044,1.044,0,0,1,18.193,19Z"/><polygon class="cls-2" points="18.017 20.53 18.859 20.53 18.859 18.997 18.193 18.997 18.017 20.53"/><path class="cls-2" d="M22.037,19h0a.522.522,0,0,1,.522.522v4.268a0,0,0,0,1,0,0h0a1.044,1.044,0,0,1-1.044-1.044V19.519A.522.522,0,0,1,22.037,19Z" transform="translate(44.074 42.784) rotate(-180)"/><polygon class="cls-2" points="21.691 20.53 20.849 20.53 20.849 18.997 21.515 18.997 21.691 20.53"/><circle class="cls-2" cx="13.698" cy="17.66" r="0.92"/><path class="cls-2" d="M12.349,23.633h1.139a0,0,0,0,1,0,0v4.433a.57.57,0,0,1-.57.57h0a.57.57,0,0,1-.57-.57V23.633A0,0,0,0,1,12.349,23.633Z"/><path class="cls-2" d="M13.908,23.633h1.139a0,0,0,0,1,0,0v4.433a.57.57,0,0,1-.57.57h0a.57.57,0,0,1-.57-.57V23.633A0,0,0,0,1,13.908,23.633Z"/><rect class="cls-2" x="12.349" y="18.997" width="2.698" height="4.735"/><path class="cls-2" d="M12,19h0a0,0,0,0,1,0,0v4.268a.522.522,0,0,1-.522.522h0a.522.522,0,0,1-.522-.522V20.041A1.044,1.044,0,0,1,12,19Z"/><polygon class="cls-2" points="11.822 20.53 12.664 20.53 12.664 18.997 11.998 18.997 11.822 20.53"/><path class="cls-2" d="M15.842,19h0a.522.522,0,0,1,.522.522v4.268a0,0,0,0,1,0,0h0a1.044,1.044,0,0,1-1.044-1.044V19.519A.522.522,0,0,1,15.842,19Z" transform="translate(31.684 42.784) rotate(-180)"/><polygon class="cls-2" points="15.496 20.53 14.654 20.53 14.654 18.997 15.32 18.997 15.496 20.53"/><circle class="cls-2" cx="26.088" cy="17.66" r="0.92"/><path class="cls-2" d="M24.739,23.633h1.139a0,0,0,0,1,0,0v4.433a.57.57,0,0,1-.57.57h0a.57.57,0,0,1-.57-.57V23.633A0,0,0,0,1,24.739,23.633Z"/><path class="cls-2" d="M26.3,23.633h1.139a0,0,0,0,1,0,0v4.433a.57.57,0,0,1-.57.57h0a.57.57,0,0,1-.57-.57V23.633a0,0,0,0,1,0,0Z"/><rect class="cls-2" x="24.739" y="18.997" width="2.698" height="4.735"/><path class="cls-2" d="M24.388,19h0a0,0,0,0,1,0,0v4.268a.522.522,0,0,1-.522.522h0a.522.522,0,0,1-.522-.522V20.041A1.044,1.044,0,0,1,24.388,19Z"/><polygon class="cls-2" points="24.212 20.53 25.054 20.53 25.054 18.997 24.388 18.997 24.212 20.53"/><path class="cls-2" d="M28.232,19h0a.522.522,0,0,1,.522.522v4.268a0,0,0,0,1,0,0h0a1.044,1.044,0,0,1-1.044-1.044V19.519A.522.522,0,0,1,28.232,19Z" transform="translate(56.465 42.784) rotate(-180)"/><polygon class="cls-2" points="27.886 20.53 27.044 20.53 27.044 18.997 27.71 18.997 27.886 20.53"/><rect class="cls-3" x="8.155" y="14.045" width="23.69" height="17.414" rx="3.987"/><path class="cls-2" d="M14.662,9.571l1.887-1.887a.288.288,0,0,1,.408,0l1.887,1.887a.149.149,0,0,1-.106.254h-.922a.166.166,0,0,0-.166.166v2.041a.141.141,0,0,1-.141.141H16a.141.141,0,0,1-.14-.141V9.991a.166.166,0,0,0-.166-.166h-.923A.149.149,0,0,1,14.662,9.571Z"/><path class="cls-2" d="M24.892,10.2l-1.887,1.886a.288.288,0,0,1-.408,0L20.71,10.2a.15.15,0,0,1,.106-.255h.922a.166.166,0,0,0,.166-.166V7.74a.141.141,0,0,1,.141-.14h1.512a.141.141,0,0,1,.141.14V9.781a.166.166,0,0,0,.166.166h.923A.149.149,0,0,1,24.892,10.2Z"/><rect class="cls-4" width="40" height="40"/></svg>