<?xml version="1.0" encoding="UTF-8"?><svg id="Layer_1" xmlns="http://www.w3.org/2000/svg" viewBox="0 0 40 40"><g style="opacity:0;"><rect width="40" height="40" style="fill:none;"/></g><g><path d="M33.90539,26.91835l3.32719,4.56585c.38382,.52671,.0076,1.26638-.64412,1.26638H2.96364c-.5322,0-.96364-.43144-.96364-.96364v-4.86859h31.90539Z" style="fill:#2d67d5;"/><path d="M35.04434,28.56518H3.97044c-1.08824,0-1.97044-.88219-1.97044-1.97044V8.24942c0-.55228,.44772-1,1-1H11.99963c10.13999,0,26.00037,8.22009,26.00037,18.36008v.00002c0,1.63236-1.32329,2.95566-2.95566,2.95566Z" style="fill:#b3d3fc;"/><path d="M35.53545,18.70786c-3.53756-4.90132-10.33818-8.7455-16.75112-10.46807,3.5375,4.90132,10.33824,8.74538,16.75112,10.46807Z" style="fill:#313d4c;"/><path d="M2,28.56518H35.04434c1.63236,0-13.91134-9.72162-33.04434-9.72162v9.72162Z" style="fill:#64a7ff;"/></g></svg>