<?xml version="1.0" encoding="UTF-8"?><svg id="Layer_1" xmlns="http://www.w3.org/2000/svg" viewBox="0 0 40 40"><g><rect x="3.49999" y="3.5" width="33" height="33" rx="8" ry="8" style="fill:#bedfe3;"/><path d="M3.5,19.99997v8.5c0,4.41827,3.58173,8,8,8H28.5c4.41827,0,8-3.58173,8-8v-8.5H3.5Z" style="fill:#68a689;"/><path d="M32.38349,34.00198l-10.69227-14.00201h-3.38245l-10.69227,14.00201c1.26255,1.53558,3.04285,2.49799,5.02145,2.49799h14.7241c1.97859,0,3.75889-.9624,5.02145-2.49799Z" style="fill:#1f1f1f;"/><path d="M9.63761,31.23229H30.36236c.43047,0,.65973-.50777,.37505-.83067l-1.67791-1.90312c-.36069-.4091-.87978-.64347-1.42518-.64347H12.36565c-.5454,0-1.06449,.23437-1.42518,.64347l-1.67791,1.90312c-.28468,.32289-.05542,.83067,.37505,.83067Z" style="fill:#6a3c38;"/><path d="M9.63761,30.79458H30.36236c.43047,0,.65973-.50777,.37505-.83067l-1.67791-1.90312c-.36069-.4091-.87978-.64347-1.42518-.64347H12.36565c-.5454,0-1.06449,.23437-1.42518,.64347l-1.67791,1.90312c-.28468,.32289-.05542,.83067,.37505,.83067Z" style="fill:#a66252;"/><path d="M13.41761,26.82732h13.1648c.43047,0,.65973-.50778,.37505-.83067l-.75633-.85784c-.36069-.40909-.87978-.64347-1.42517-.64347H15.22407c-.54539,0-1.06449,.23437-1.42517,.64347l-.75633,.85784c-.28468,.32289-.05542,.83067,.37505,.83067Z" style="fill:#6a3c38;"/><path d="M13.41759,26.50723h13.1648c.43047,0,.65973-.50778,.37505-.83067l-.75633-.85784c-.36069-.40909-.87978-.64347-1.42517-.64347H15.22405c-.54539,0-1.06449,.23437-1.42517,.64347l-.75633,.85784c-.28468,.32289-.05542,.83067,.37505,.83067Z" style="fill:#a66252;"/><path d="M14.96666,23.70793h10.06665l-.82068-.93082c-.36069-.40909-.87978-.64346-1.42517-.64346h-5.57495c-.54539,0-1.06449,.23437-1.42517,.64346l-.82068,.93082Z" style="fill:#6a3c38;"/><path d="M14.96666,23.49417h10.06665l-.82068-.93082c-.36069-.40909-.87978-.64346-1.42517-.64346h-5.57495c-.54539,0-1.06449,.23437-1.42517,.64346l-.82068,.93082Z" style="fill:#a66252;"/><polygon points="16.90892 21.40574 23.09105 21.40574 22.25481 20.45719 17.74517 20.45719 16.90892 21.40574" style="fill:#6a3c38;"/><polygon points="16.90892 21.29123 23.09105 21.29123 22.25481 20.34268 17.74517 20.34268 16.90892 21.29123" style="fill:#a66252;"/><path d="M5.70238,34.00198c1.4577,1.53558,3.51318,2.49799,5.79761,2.49799H28.49999c2.28442,0,4.3399-.9624,5.79761-2.49799l-1.17401-1.33157c-.36069-.40909-.87978-.64347-1.42517-.64347H8.30156c-.54539,0-1.06449,.23437-1.42517,.64347l-1.17401,1.33157Z" style="fill:#a66252;"/><path d="M28.5,3.5h-8.18079c-.02124,.17334-.05273,.34375-.05273,.52283,0,.06799,.01691,.13147,.02002,.19861h-5.01044c-1.7113,0-3.09863,1.38745-3.09863,3.09863,0,1.57166,1.17444,2.85608,2.69104,3.05762-.00427,.06006-.01801,.11731-.01801,.17847,0,1.40076,1.13556,2.53638,2.53632,2.53638,.17688,0,.34943-.01855,.51611-.0531,.67383,1.20129,1.94415,2.02258,3.41937,2.02258,2.14618,0,3.88397-1.71997,3.92749-3.85571,.61243,.51416,1.39178,.83594,2.25397,.83594,.23755,0,.46912-.02502,.69348-.06982,.93488,1.67334,2.72119,2.80615,4.77405,2.80615,1.34583,0,2.57617-.4884,3.52875-1.2948v-1.98376c0-4.41821-3.58173-8-8-8Z" style="fill:#ecf1f4;"/><path d="M30.09113,3.6593c-.51434-.10388-1.0462-.1593-1.59113-.1593H11.5C7.08173,3.5,3.5,7.08179,3.5,11.5v1.98376c.95258,.8064,2.18292,1.2948,3.52875,1.2948,2.05292,0,3.83923-1.13281,4.77405-2.80615,.22437,.0448,.45593,.06982,.69348,.06982,1.94611,0,3.52368-1.57764,3.52368-3.52368,0-.08496-.0191-.16455-.02502-.24805,.47003-.06238,.91333-.19556,1.32275-.39697,.50208,1.5957,1.97559,2.76074,3.73706,2.76074,1.47528,0,2.74561-.82129,3.41943-2.02246,.16669,.03442,.33923,.05298,.51611,.05298,1.40076,0,2.53632-1.1355,2.53632-2.53638,0-.06104-.01373-.11841-.01801-.17847,1.25916-.16736,2.27142-1.08569,2.58252-2.29065Z" style="fill:#e1e7ee;"/><rect x="3.50001" y="3.5" width="33" height="33" rx="8" ry="8" style="fill:none;"/><g><path d="M18.92657,20l-8.01135,16.47046c.19385,.01392,.38733,.02954,.58478,.02954H28.5c.1676,0,.33136-.01514,.4964-.02515l-8.01355-16.47485h-2.05627Z" style="fill:none;"/><path d="M3.5,20v8.5c0,3.2251,1.9126,5.99731,4.66187,7.26318l10.35754-15.76318H3.5Z" style="fill:none;"/><path d="M21.40393,20l10.37592,15.79126c2.78088-1.25317,4.72015-4.04321,4.72015-7.29126v-8.5h-15.09607Z" style="fill:none;"/><path d="M18.51941,20l-10.35754,15.76318c.63135,.29077,1.30591,.5,2.01294,.61816l8.75177-16.38135h-.40717Z" style="fill:#e5e5e5;"/><path d="M10.1748,36.38135c.24353,.04053,.48999,.0708,.74042,.08911l8.01135-16.47046-8.75177,16.38135Z" style="fill:#929292;"/><path d="M20.98676,20l8.7583,16.39355c.71405-.11206,1.39655-.3147,2.03479-.60229l-10.37592-15.79126h-.41718Z" style="fill:#e5e5e5;"/><path d="M20.98285,20l8.01355,16.47485c.25311-.01562,.50244-.04272,.74866-.0813l-8.7583-16.39355h-.00391Z" style="fill:#929292;"/></g><rect x="6.91783" y="16.96138" width="3.15913" height="6.51216" rx=".57901" ry=".57901" style="fill:#e1e7ee;"/><rect x="8.11327" y="22.58096" width=".76825" height="6.05691" style="fill:#e1e7ee;"/><g><circle cx="8.49739" cy="18.97962" r=".958" style="fill:#e50010;"/><circle cx="8.49739" cy="21.45529" r=".958" style="fill:#00734b;"/></g></g><rect width="40" height="40" style="fill:none;"/></svg>