<svg id="Layer_1" data-name="Layer 1" xmlns="http://www.w3.org/2000/svg" viewBox="0 0 40 40"><defs><style>.cls-1{fill:#956759;}.cls-2{fill:#b7b7b7;}.cls-3{fill:#d3d3d3;}.cls-4{fill:none;}</style></defs><rect class="cls-1" x="4.876" y="25.387" width="30.248" height="4.321"/><path class="cls-2" d="M5.878,16.084H34.122a1,1,0,0,1,1,1v8.3a0,0,0,0,1,0,0H4.876a0,0,0,0,1,0,0v-8.3A1,1,0,0,1,5.878,16.084Z"/><path class="cls-3" d="M14.6,13.047H31.653a2,2,0,0,1,2,2v1.033a0,0,0,0,1,0,0H12.592a0,0,0,0,1,0,0V15.051A2,2,0,0,1,14.6,13.047Z"/><path class="cls-3" d="M8.524,12.93h2.035a2,2,0,0,1,2,2v1.149a0,0,0,0,1,0,0H6.52a0,0,0,0,1,0,0V14.934A2,2,0,0,1,8.524,12.93Z"/><rect class="cls-1" x="1.5" y="6.376" width="3.376" height="27.249" rx="1.002"/><rect class="cls-1" x="35.124" y="16.084" width="3.376" height="17.54" rx="1.002"/><rect class="cls-4" width="40" height="40"/></svg>