<svg id="Layer_1" data-name="Layer 1" xmlns="http://www.w3.org/2000/svg" viewBox="0 0 40 40"><defs><style>.cls-1{fill:#6e4944;}.cls-2{fill:#aab6c6;}.cls-3{fill:#333;}.cls-4{fill:#5c2f17;}.cls-5{fill:none;}</style></defs><path class="cls-1" d="M15.827,9.012a1.235,1.235,0,0,0-1.712.353L12.771,10.81l-.338-1.639-.8-4.7h0a1.054,1.054,0,1,0-2.077.353h0l.688,4.044-.523.108L8.6,4.361a1.054,1.054,0,1,0-2.048.5L7.662,9.428l-.428.21-1.5-3.791a1.054,1.054,0,1,0-1.959.778l1.567,3.947-.524.258L3.5,8.093h0a1.054,1.054,0,1,0-1.9.913h0l2.472,5.147.008-.006a5.135,5.135,0,0,0,9.128,1.1l2.973-4.519A1.235,1.235,0,0,0,15.827,9.012Z"/><path class="cls-2" d="M14.183,31.26A19.182,19.182,0,0,1,4.065,16.089a.514.514,0,0,1,.508-.539l8.952-.214a.513.513,0,0,1,.526.462c.177,1.771,1.106,7.232,7.074,8.136l.689.065c9.983.193,16.505,6.031,16.505,13.485H14.9a.431.431,0,0,1-.431-.427l-.046-5.422A.426.426,0,0,0,14.183,31.26Z"/><path class="cls-3" d="M16.848,15.981,17,20.028a1.633,1.633,0,0,0,1.3,1.537l14.22,2.985a1.632,1.632,0,0,0,1.861-1.017l1.364-3.586Z"/><circle class="cls-1" cx="27.028" cy="15.419" r="8.6"/><ellipse class="cls-1" cx="19.297" cy="14.043" rx="3.229" ry="3.443" transform="translate(1.59 30.043) rotate(-78.144)"/><ellipse class="cls-1" cx="34.66" cy="17.268" rx="3.229" ry="3.443" transform="translate(10.64 47.641) rotate(-78.144)"/><path class="cls-3" d="M37.053,15A9.913,9.913,0,0,0,17.942,9.776a10.181,10.181,0,0,0-.322,1.357s.864-.023,1.262,1.72l6.856-5.047s5.6,6.828,10.115,7.466a1.067,1.067,0,0,0,.341-.02C36.525,15.147,36.84,14.889,37.053,15Z"/><ellipse cx="24.749" cy="14.515" rx="1.098" ry="0.915" transform="translate(5.459 35.754) rotate(-78.144)"/><ellipse cx="29.479" cy="15.508" rx="1.098" ry="0.915" transform="translate(8.245 41.172) rotate(-78.144)"/><path class="cls-4" d="M27.339,19.484a.31.31,0,0,1,.209.448,1.489,1.489,0,0,1-2.81-.59.311.311,0,0,1,.372-.326Z"/><path class="cls-1" d="M23.253,22.618h4.134a0,0,0,0,1,0,0v2.188a2.067,2.067,0,0,1-2.067,2.067h0a2.067,2.067,0,0,1-2.067-2.067V22.618A0,0,0,0,1,23.253,22.618Z" transform="translate(4.575 -3.944) rotate(9.786)"/><rect class="cls-5" width="40" height="40"/></svg>