<?xml version="1.0" encoding="UTF-8"?><svg id="Layer_1" xmlns="http://www.w3.org/2000/svg" viewBox="0 0 40 40"><g><path d="m38.881,21.85c0-1.849-1.174-3.493-2.922-4.094l-2.785-.956H3.019c-1.049,0-1.9.851-1.9,1.9v9.775h37.763v-6.625Z" fill="#4592fb"/><path d="m1.119,28.475v1.033c0,.997.808,1.805,1.805,1.805h34.057c1.049,0,1.9-.851,1.9-1.9v-.938H1.119Z" fill="#2d67d5"/></g><g><circle cx="31.599" cy="29.868" r="5" fill="#313d4c"/><circle cx="31.599" cy="29.868" r="2" fill="#6b7683"/></g><g><circle cx="8.401" cy="29.868" r="5" fill="#313d4c"/><circle cx="8.401" cy="29.868" r="2" fill="#6b7683"/></g><path d="m38.881,24.328h-.792c-.656,0-1.188-.532-1.188-1.188s.532-1.188,1.188-1.188h.792v2.375Z" fill="#fff"/><path d="m1.119,24.328h1.742c.656,0,1.188-.532,1.188-1.187,0-.656-.532-1.188-1.187-1.188h-1.742s0,2.375,0,2.375Z" fill="#ef4452"/><path d="m29.802,8.528c-.578-1.44-1.974-2.384-3.526-2.384H8.774c-1.925,0-3.576,1.371-3.931,3.262l-1.388,7.394h29.668s-3.322-8.272-3.322-8.272Z" fill="#313d4c"/><rect width="40" height="40" fill="none"/></svg>