<?xml version="1.0" encoding="UTF-8"?><svg id="Layer_1" xmlns="http://www.w3.org/2000/svg" viewBox="0 0 40 40"><path d="M35.84452,32.86531l-.21827-.64761c-2.14551-4.66935-12.36227-12.71974-12.36227-12.71974h-5.85934s-11.64508,6.64632-12.6976,13.57192l-.0201,.12855c-.29103,2.23563,1.46401,4.22092,3.81002,4.22092h23.54798c1.07784,0,2.0332-.41531,2.72844-1.07438h.01258l.00269-.01326c.90334-.86536,1.3597-2.14611,1.05585-3.46638Z" style="fill:#2c1f99;"/><rect width="40" height="40" style="fill:none;"/><g><path d="M10.34647,19.7895s-1.19308-13.11361,5.14895-15.89299c0,0,1.74343-2.52671,5.63456-2.12243,3.89113,.40427,6.86271,3.40135,7.85806,6.11463,.74148,2.02125,1.47487,6.30029,1.35905,11.25867-.01345,.57559-.3228,1.10326-.81479,1.40232-1.07352,.65255-3.56118,1.48857-9.2614,1.48857-9.34882,0-9.92443-2.24877-9.92443-2.24877Z" style="fill:#333;"/><path d="M23.21866,10.28635c-3.43267-.51027-5.66552-2.78392-6.3803-3.61606-.0972-.11316-.28058-.06362-.30745,.08312-.16658,.90981-.75808,3.22442-2.64014,4.90217,0,0-.31568,.24132-.66937,.71602-.51956,.69731-.72403,1.58541-.57694,2.44247,.64284,3.74566,3.77378,6.58838,7.54134,6.58838,3.54121,0,6.52-2.51167,7.39938-5.92364,.43744-2.53433-1.09737-4.70651-4.36653-5.19246Z" style="fill:#6e4944;"/><g><ellipse cx="17.87633" cy="13.10676" rx=".85275" ry="1.0233"/><ellipse cx="22.37887" cy="13.10676" rx=".85275" ry="1.0233"/></g><path d="M19.49363,18.72604c-.1345,0-.22995-.12918-.19435-.25889,.11344-.41337,.49188-.71709,.94127-.71709s.82783,.30372,.94127,.71709c.03559,.1297-.05986,.25889-.19435,.25889h-1.49383Z" style="fill:#5c2f17;"/></g><path d="M18.16397,19.57201l-.01142,3.4253c0,.11739,.06186,.22148,.16762,.27242,.51484,.24795,2.14334,.88324,3.87125,.00426,.10329-.05255,.17061-.16507,.17061-.28096l.01142-3.42101h-4.20949Z" style="fill:#6e4944;"/><path d="M27.60764,20.01627l6.81659-6.97909c.55587-.56912,1.43982-.65776,2.09762-.21033h0c.67515,.45922,.91015,1.34485,.55151,2.07839l-2.52875,5.86334c-.4287,.99401-1.33535,1.70025-2.40405,1.87265l-3.3447,.53954-1.18822-3.1645Z" style="fill:#6e4944;"/><path d="M12.85985,20.01627l-6.81659-6.97909c-.55587-.56912-1.43982-.65776-2.09762-.21033h0c-.67515,.45922-.91015,1.34485-.55151,2.07839l2.52875,5.86334c.4287,.99401,1.33535,1.70025,2.40405,1.87265l3.3447,.53954,1.18822-3.1645Z" style="fill:#6e4944;"/><path d="M5.29222,35.72951h0c1.1741,1.72472,3.58174,2.2088,5.37763,1.08123l21.51531-12.98692s-4.0842-5.92606-4.09986-5.91677L6.41805,30.56498c-1.79588,1.12758-2.29993,3.43981-1.12583,5.16453Z" style="fill:#482ec4;"/><path d="M35.30686,35.72951h0c-1.1741,1.72472-3.58174,2.2088-5.37763,1.08123L8.41392,23.82382s4.0842-5.92606,4.09986-5.91677l21.66725,12.65793c1.79588,1.12758,2.29993,3.43981,1.12583,5.16453Z" style="fill:#6453e3;"/></svg>