<?xml version="1.0" encoding="UTF-8"?><svg id="Layer_1" xmlns="http://www.w3.org/2000/svg" viewBox="0 0 40 40"><g><circle cx="20" cy="20" r="17.5" style="fill:#ffc84d;"/><path id="SVGID" d="M10.72066,21.87346c-1.15269,0-1.68607,.65117-1.45801,1.36092,1.00946,3.14159,5.42882,5.50709,10.72774,5.50709s9.71829-2.3655,10.72774-5.50709c.22806-.70975-.07146-1.26921-1.22415-1.26921l-18.77333-.09171Z" style="fill:#ff6d00;"/><path d="M15.0113,28.5154c0,2.49065,2.08104,4.50972,4.64813,4.50972s4.64813-2.01907,4.64813-4.50972l.05451-5.26577H15.06582l-.05451,5.26577Z" style="fill:#f5172b;"/><path d="M29.49398,21.96517c-1.99315,1.49288-5.42609,2.47854-9.32676,2.47854-3.98,0-7.47304-1.02616-9.44657-2.57025l18.77333,.09171Z" style="fill:#fff;"/><circle cx="24.62183" cy="16.27673" r="2.16594"/><circle cx="15.60356" cy="16.27673" r="2.16594"/></g><rect width="40" height="40" style="fill:none;"/></svg>