<svg id="Layer_1" data-name="Layer 1" xmlns="http://www.w3.org/2000/svg" viewBox="0 0 40 40"><defs><style>.cls-1{fill:#a54d3c;}.cls-2{fill:#fbbd58;}.cls-3{fill:#f93052;}.cls-4{fill:#6a170f;}.cls-5{fill:none;}</style></defs><rect class="cls-1" x="4.715" y="4.519" width="30.57" height="30.57" rx="11.989" transform="translate(19.862 -8.342) rotate(45)"/><circle class="cls-2" cx="16.223" cy="17.915" r="6.295"/><circle class="cls-2" cx="23.777" cy="17.915" r="6.295"/><circle class="cls-2" cx="20.151" cy="24.21" r="6.295"/><circle cx="23.777" cy="17.931" r="1.683"/><circle cx="16.223" cy="17.931" r="1.683"/><circle cx="19.052" cy="20.282" r="0.521"/><circle cx="20.948" cy="20.282" r="0.521"/><path class="cls-3" d="M21.92,25.2a.454.454,0,0,1,.521.528,2.474,2.474,0,0,1-4.882,0,.454.454,0,0,1,.521-.528Z"/><path class="cls-2" d="M7.365,22.8a1.8,1.8,0,0,0,1.016-1.468c.213-2.192.709-7.378.709-8.01,0-.8-1.013-2.2-3.006-1.188-1.817.924-3.808,5.076-4.25,9.035a1.805,1.805,0,0,0,1.028,1.86A5.291,5.291,0,0,0,7.365,22.8Z"/><polygon class="cls-4" points="8.381 21.328 11.474 33.033 8.782 30.34 8.381 21.328"/><path class="cls-1" d="M6.173,36.717h0A3.712,3.712,0,0,1,1.508,32.9l.326-11.57H8.381l.535,12.037A3.712,3.712,0,0,1,6.173,36.717Z"/><path class="cls-2" d="M32.635,22.8a1.8,1.8,0,0,1-1.016-1.468c-.213-2.192-.709-7.378-.709-8.01,0-.8,1.013-2.2,3.006-1.188,1.817.924,3.808,5.076,4.25,9.035a1.805,1.805,0,0,1-1.028,1.86A5.291,5.291,0,0,1,32.635,22.8Z"/><polygon class="cls-4" points="31.619 21.328 28.526 33.033 31.218 30.34 31.619 21.328"/><path class="cls-1" d="M33.827,36.717h0A3.712,3.712,0,0,0,38.492,32.9l-.326-11.57H31.619l-.535,12.037A3.712,3.712,0,0,0,33.827,36.717Z"/><rect class="cls-5" width="40" height="40"/></svg>