<?xml version="1.0" encoding="UTF-8"?><svg id="Layer_1" xmlns="http://www.w3.org/2000/svg" viewBox="0 0 40 40"><g><rect x="3.935" y="3.935" width="32.131" height="32.131" rx="12.601" ry="12.601" transform="translate(20 -8.284) rotate(45)" fill="#a54d3c"/><g><circle cx="16.078" cy="18.304" r="6.536" fill="#fbbd58"/><circle cx="23.922" cy="18.304" r="6.536" fill="#fbbd58"/><circle cx="20.157" cy="24.84" r="6.536" fill="#fbbd58"/></g><path d="m21.994,25.266c.32-.048.61.233.541.548-.27,1.232-1.302,2.15-2.535,2.15s-2.265-.918-2.535-2.15c-.069-.316.222-.596.541-.548h3.987Z" fill="#f93052"/><path d="m11.089,33.809c.995.995,2.118,1.778,3.313,2.371l.423-10.239-3.736,7.868Z" fill="#6a170f"/><path d="m8.866,37.495h0c-2.653,0-4.523-2.603-3.677-5.117l2.167-6.437h8.186l-3,8.912c-.531,1.579-2.011,2.642-3.677,2.642Z" fill="#a54d3c"/><path d="m7.01,16.059c.576-.035,1.072.403,1.108.98l.351,2.302.919-2.122,1.62-3.743c.229-.53.845-.774,1.375-.544s.774.845.544,1.375l-1.589,3.757.262.114,2.199-4.994c.229-.53.845-.774,1.375-.544s.774.845.544,1.375l-2.049,4.819.261.117,1.776-4.016c.229-.53.845-.774,1.375-.544.53.229.774.845.544,1.375l-2.032,4.779.262.114,1.428-3.213c.229-.53.845-.774,1.375-.544s.774.845.544,1.375l-1.397,3.226-1.302,3.006c-1.086,2.51-4.077,3.631-6.681,2.504-.823-.356-1.507-.895-2.026-1.544-.001-.001-.003-.002-.004-.003-.265-.279-.488-.671-.675-1.117-.097-.217-.178-.439-.243-.667-.544-1.713-.679-3.786-.679-3.786l-.167-2.726c-.035-.576.403-1.072.98-1.108Z" fill="#ff9f4d"/><g><path d="m28.911,33.809c-.995.995-2.118,1.778-3.313,2.371l-.423-10.239,3.736,7.868Z" fill="#6a170f"/><path d="m31.134,37.495h0c2.653,0,4.523-2.603,3.677-5.117l-2.167-6.437h-8.186s3,8.912,3,8.912c.531,1.579,2.011,2.642,3.677,2.642Z" fill="#a54d3c"/><path d="m32.99,16.059c-.576-.035-1.072.403-1.108.98l-.351,2.302-.919-2.122-1.62-3.743c-.229-.53-.845-.774-1.375-.544s-.774.845-.544,1.375l1.589,3.757-.262.114-2.199-4.994c-.229-.53-.845-.774-1.375-.544s-.774.845-.544,1.375l2.049,4.819-.261.117-1.776-4.016c-.229-.53-.845-.774-1.375-.544-.53.229-.774.845-.544,1.375l2.032,4.779-.262.114-1.428-3.213c-.229-.53-.845-.774-1.375-.544s-.774.845-.544,1.375l1.397,3.226,1.302,3.006c1.086,2.51,4.077,3.631,6.681,2.504.823-.356,1.507-.895,2.026-1.544.001-.001.003-.002.004-.003.265-.279.488-.671.675-1.117.097-.217.178-.439.243-.667.544-1.713.679-3.786.679-3.786l.167-2.726c.035-.576-.403-1.072-.98-1.108Z" fill="#ff9f4d"/></g></g><rect width="40" height="40" fill="none"/></svg>