<?xml version="1.0" encoding="UTF-8"?><svg id="Layer_1" xmlns="http://www.w3.org/2000/svg" viewBox="0 0 40 40"><g><path d="m18.268,7.705c-.172,0-.339-.089-.432-.248l-1.402-2.403c-.14-.238-.059-.545.18-.684.237-.142.544-.06.684.18l1.402,2.403c.14.238.059.545-.18.684-.079.047-.166.068-.252.068Z" fill="#65778e"/><path d="m21.732,7.705c-.086,0-.173-.021-.252-.068-.238-.139-.319-.445-.18-.684l1.402-2.403c.139-.239.446-.321.684-.18.238.139.319.445.18.684l-1.402,2.403c-.093.159-.26.248-.432.248Z" fill="#65778e"/></g><path d="m28.975,4.849h-.002l-17.655-.035c-.414,0-.749-.337-.748-.752,0-.413.337-.748.75-.748h.002l17.655.035c.414,0,.749.337.748.752,0,.413-.337.748-.75.748Z" fill="#6b7683"/><g><path d="m9.6,36.957c-.158,0-.319-.048-.457-.148-.349-.254-.426-.741-.173-1.089l4.225-5.812c.252-.349.74-.428,1.089-.173.349.254.426.741.173,1.089l-4.225,5.812c-.152.21-.391.321-.632.321Z" fill="#6b7683"/><path d="m30.4,36.957c-.241,0-.479-.111-.632-.321l-4.225-5.812c-.253-.348-.176-.835.173-1.089.348-.255.835-.174,1.089.173l4.225,5.812c.253.348.176.835-.173,1.089-.138.101-.299.148-.457.148Z" fill="#6b7683"/><path d="m29.74,36.326H10.26c-.431,0-.779-.349-.779-.779s.349-.779.779-.779h19.48c.431,0,.779.349.779.779s-.349.779-.779.779Z" fill="#6b7683"/><path d="m27.905,33.575h-15.811c-.431,0-.779-.349-.779-.779s.349-.779.779-.779h15.811c.431,0,.779.349.779.779s-.349.779-.779.779Z" fill="#6b7683"/></g><path d="m31.12,10.403c-.339-2.242-2.266-3.9-4.534-3.9h-13.173c-2.268,0-4.195,1.658-4.534,3.901l-1.513,10.013h25.268l-1.514-10.013Z" fill="#313d4c"/><path d="m32.634,20.416H7.366l-.824,5.451c-.419,2.774,1.729,5.271,4.534,5.271h17.848c2.806,0,4.954-2.497,4.534-5.271l-.824-5.451Z" fill="#ffb72d"/><path d="m28.823,26.521H11.177c-.602,0-1.089-.487-1.089-1.089s.487-1.089,1.089-1.089h17.646c.602,0,1.089.487,1.089,1.089s-.487,1.089-1.089,1.089Z" fill="#fff"/></svg>