<svg id="Layer_1" data-name="Layer 1" xmlns="http://www.w3.org/2000/svg" viewBox="0 0 40 40"><defs><style>.cls-1{fill:#d3d3d3;}.cls-2{fill:#c3846c;}.cls-3{fill:#523725;}.cls-4{fill:#956759;}.cls-5{fill:#b7b7b7;}.cls-6{fill:none;}</style></defs><path class="cls-1" d="M8.524,13.9h2.035a2,2,0,0,1,2,2v.176a0,0,0,0,1,0,0H6.52a0,0,0,0,1,0,0v-.176A2,2,0,0,1,8.524,13.9Z"/><circle class="cls-2" cx="11.187" cy="12.946" r="3.064"/><path class="cls-3" d="M13.4,15.034a3.244,3.244,0,0,1-4.46.307,3.011,3.011,0,0,1-.423-4.118,2.918,2.918,0,0,1,.265-.3.129.129,0,0,1,.181,0Z"/><ellipse cx="11.754" cy="10.655" rx="0.243" ry="0.456" transform="translate(-2.11 18.366) rotate(-71.272)"/><path class="cls-3" d="M11,12.93l-1.14-2.675a.126.126,0,0,0-.188-.055,3.832,3.832,0,0,0-1.228,1.13Z"/><ellipse class="cls-2" cx="11.207" cy="13.47" rx="0.967" ry="0.813" transform="translate(-3.984 4.737) rotate(-20.347)"/><rect class="cls-4" x="4.876" y="25.387" width="30.248" height="4.321"/><path class="cls-5" d="M5.878,16.084H34.122a1,1,0,0,1,1,1v8.3a0,0,0,0,1,0,0H4.876a0,0,0,0,1,0,0v-8.3A1,1,0,0,1,5.878,16.084Z"/><path class="cls-1" d="M18.434,9.152h9.381a5.842,5.842,0,0,1,5.842,5.842v1.09a0,0,0,0,1,0,0H12.592a0,0,0,0,1,0,0v-1.09A5.842,5.842,0,0,1,18.434,9.152Z"/><rect class="cls-4" x="1.5" y="6.376" width="3.376" height="27.249" rx="1.002"/><rect class="cls-4" x="35.124" y="16.084" width="3.376" height="17.54" rx="1.002"/><rect class="cls-6" width="40" height="40"/></svg>