<?xml version="1.0" encoding="UTF-8"?><svg id="Layer_1" xmlns="http://www.w3.org/2000/svg" viewBox="0 0 40 40"><g><g><g><path d="M24.56577,4.85772L14.26087,27.21324c-.16699,.36019-.0125,.79423,.34374,.96797,.25806,.12586,.55806,.08415,.77283-.08207,.0819-.06341,.15144-.145,.20175-.24292L26.86198,5.97766l-2.29621-1.11994Z" style="fill:#3d3d3d;"/><path d="M28.84959,2.09954c.10266-.20136,.12026-.42988,.04862-.64503-.07145-.21376-.22266-.38652-.42573-.48513l-.94975-.46366c-.20338-.09919-.43253-.11238-.64495-.03621-.21318,.07537-.38207,.22967-.47788,.4348l-1.83413,3.9534,2.29621,1.11994,1.98761-3.87811Z" style="fill:#ef4452;"/></g><g><path d="M29.18518,6.86005L15.86928,27.56385c-.21549,.33344-.12292,.78476,.20567,1.00639,.23803,.16055,.54092,.161,.77673,.02628,.08992-.05139,.17014-.12251,.23359-.21248L31.30318,8.28866l-2.118-1.42861Z" style="fill:#3d3d3d;"/><path d="M33.81118,4.72491c.12969-.18511,.17892-.40895,.13792-.63199-.04101-.22162-.1667-.41375-.35407-.53966l-.87598-.59133c-.18759-.12653-.41268-.17148-.63364-.12562-.22159,.04497-.41031,.17426-.53374,.36406l-2.36649,3.65967,2.118,1.42861,2.508-3.56375Z" style="fill:#ef4452;"/></g></g><path d="M30.69412,36.57945h-10.69412V16.99093h14.85736l-2.69193,18.26094c-.07768,.75422-.7131,1.32757-1.47131,1.32757Z" style="fill:#d0d5da;"/><path d="M20,16.99093l2.76129-5.41254c.36216-.70988,1.09178-1.15674,1.8887-1.15674h12.78802c.85889,0,1.36128,.96787,.86698,1.67027l-3.44762,4.89901h-14.85736Z" style="fill:#afb7c0;"/><polygon points="20 28.97369 20 31.12742 32.77344 31.12742 33.09093 28.97369 20 28.97369" style="fill:#bb1b2a;"/><path d="M9.30588,36.57945h10.69412V16.99093H5.14264l2.69193,18.26094c.07768,.75422,.7131,1.32757,1.47131,1.32757Z" style="fill:#e5e9ee;"/><path d="M20,16.99093l-2.76129-5.41254c-.36216-.70988-1.09178-1.15674-1.8887-1.15674H2.56199c-.85889,0-1.36128,.96787-.86698,1.67027l3.44762,4.89901h14.85736Z" style="fill:#d0d5da;"/><polygon points="20 28.97369 20 31.12742 7.22656 31.12742 6.90907 28.97369 20 28.97369" style="fill:#ef4452;"/></g><rect width="40" height="40" style="fill:none;"/></svg>