<?xml version="1.0" encoding="UTF-8"?><svg id="Layer_1" xmlns="http://www.w3.org/2000/svg" viewBox="0 0 40 40"><g><path d="m32.153,9.076c-1.156-3.617-4.518-6.072-8.315-6.072h-7.675c-3.797,0-7.159,2.455-8.315,6.072L1.99,29.651c-.13.408.105.843.518.957l5.178,1.509c.401.111.816-.124.928-.524l3.184-12.637-.775,17.88c-.037.632.465,1.164,1.097,1.164h15.76c.633,0,1.135-.533,1.097-1.164l-.775-17.88,3.184,12.637c.112.4.527.635.928.524l5.178-1.509c.413-.114.648-.549.518-.957l-5.857-20.575Z" fill="#b9cce0"/><path d="m21.748,17.098h4.691v3.428c0,.678-.55,1.228-1.228,1.228h-2.234c-.678,0-1.228-.55-1.228-1.228v-3.428h0Z" fill="#7b9fc2"/><circle cx="16.511" cy="21.947" r="1.01" fill="#7b9fc2"/><circle cx="16.511" cy="29.103" r="1.01" fill="#7b9fc2"/><g><path d="m24.68,2.365c-.276-.225-.62-.365-.995-.365h-7.37c-.375,0-.719.139-.995.365l4.68,9.899,4.68-9.899Z" fill="#b9cce0"/><path d="m20,12.264L15.32,2.365c-.235.192-.423.445-.517.75l-1.932,6.244c-.089.289.127.582.429.582h2.63l-2.351,2.344c-.211.21-.162.564.097.71l4.725,2.65h0l1.598-3.381Z" fill="#7b9fc2"/><path d="m27.129,9.359l-1.932-6.244c-.094-.305-.282-.558-.517-.75l-4.68,9.899-1.598,3.381-1.154,2.441,9.075-5.091c.26-.146.308-.499.097-.71l-2.351-2.344h2.63c.303,0,.519-.293.429-.582Z" fill="#7b9fc2"/></g></g><rect width="40" height="40" fill="none"/></svg>