<?xml version="1.0" encoding="UTF-8"?><svg id="Layer_1" xmlns="http://www.w3.org/2000/svg" viewBox="0 0 40 40"><g><circle cx="20" cy="20" r="17.5" fill="#ff9240"/><path d="m14.678,27.764c-.336-.118-.452-.338-.296-.522,0,0,.087-.077.175-.114.408-.173,2.003-.804,4.53-.991,0,0,1.027-.069,1.971-.001,2.31.167,3.765.715,4.277.94,0,0,.222.078.303.194.124.178.003.383-.317.494h-10.644Z" fill="#f5172b"/><path d="m29.018,19.243c-.921-.648-2.192-.427-2.84.494l-5.683,8.018h5.041l3.976-5.672c.648-.921.426-2.192-.494-2.84Z" fill="#fff"/><path d="m26.678,22.739c-.401-.282-.954-.186-1.236.215l-3.39,4.801h2.212l2.629-3.78c.282-.401.186-.954-.215-1.236Z" fill="#f5172b"/><g><circle cx="24.509" cy="16" r="2.166"/><circle cx="15.491" cy="16" r="2.166"/></g></g><rect width="40" height="40" fill="none"/></svg>