<svg id="Layer_1" data-name="Layer 1" xmlns="http://www.w3.org/2000/svg" viewBox="0 0 40 40"><defs><style>.cls-1{fill:#a46f58;}.cls-2{fill:#4f2a2a;}.cls-3{fill:#6b4839;}.cls-4{fill:#300505;}.cls-5{fill:#d69072;}.cls-6{fill:none;}</style></defs><polygon class="cls-1" points="32.606 11.405 28.792 20 22.598 19.168 25.571 10.807 32.606 11.405"/><polygon class="cls-1" points="17.021 11.405 12.331 21.976 7.013 19.168 9.986 10.807 17.021 11.405"/><path class="cls-2" d="M4.449,8.634h34.1a0,0,0,0,1,0,0v2.771a0,0,0,0,1,0,0H4.449a.9.9,0,0,1-.9-.9V9.538A.9.9,0,0,1,4.449,8.634Z" transform="translate(42.091 20.039) rotate(-180)"/><path class="cls-3" d="M36.085,18.934a7.68,7.68,0,0,1-.2,10.86l-.341.316L18.805,24.916l6.421-6.185A7.681,7.681,0,0,1,36.085,18.934Z"/><path class="cls-1" d="M29.307,4.683a3.44,3.44,0,0,1,3.439,3.443l0,.511-6.881,0,0-.512A3.441,3.441,0,0,1,29.307,4.683Z"/><path class="cls-1" d="M14.2,4.683a3.44,3.44,0,0,1,3.439,3.443l0,.511-6.881,0,0-.512A3.441,3.441,0,0,1,14.2,4.683Z"/><path class="cls-1" d="M32.606,23.867a2.052,2.052,0,0,1,4.1,0v5h-4.1Z"/><circle class="cls-4" cx="34.657" cy="23.338" r="0.943"/><path class="cls-1" d="M30.054,21.779a2.052,2.052,0,1,0-.438-4.08l-4.976.535.439,4.08Z"/><circle class="cls-4" cx="30.361" cy="19.682" r="0.943"/><ellipse class="cls-4" cx="32.126" cy="21.976" rx="0.376" ry="0.678" transform="translate(-5.827 30.613) rotate(-47.195)"/><path class="cls-5" d="M4.516,6.057A7.877,7.877,0,0,1,11.985,13.9v4.205h.007c0,.024-.007.046-.007.069a2.764,2.764,0,0,0,5.527,0c0-.023-.007-.045-.007-.069h.007v-7.8h.006c0-.021-.006-.04-.006-.061a4.22,4.22,0,0,1,8.439,0c0,.021,0,.04-.006.061h.006v4.658c0,2.362,2.756,5.907,2.756,5.907h0l8,8.016a19.212,19.212,0,0,1-14.528,6.431A18.906,18.906,0,0,1,5.822,26.353a16.105,16.105,0,0,1-2.277-8.244V6.907A.825.825,0,0,1,4.516,6.057Z"/><path class="cls-1" d="M25.863,8.634,27.378,7.12a.52.52,0,0,1,.737,0l.821.82a.521.521,0,0,0,.738,0l.82-.82a.521.521,0,0,1,.738,0l1.514,1.514-1.514,1.514a.521.521,0,0,1-.738,0l-.82-.82a.521.521,0,0,0-.738,0l-.821.82a.52.52,0,0,1-.737,0Z"/><path class="cls-1" d="M10.756,8.634,12.271,7.12a.52.52,0,0,1,.737,0l.821.82a.521.521,0,0,0,.738,0l.82-.82a.521.521,0,0,1,.738,0l1.514,1.514-1.514,1.514a.521.521,0,0,1-.738,0l-.82-.82a.521.521,0,0,0-.738,0l-.821.82a.52.52,0,0,1-.737,0Z"/><rect class="cls-6" width="40" height="40"/></svg>