<svg id="Layer_1" data-name="Layer 1" xmlns="http://www.w3.org/2000/svg" viewBox="0 0 40 40"><defs><style>.cls-1{fill:#e5e9ee;}.cls-2{fill:#ffda16;}.cls-3{fill:#ffc100;}.cls-4{fill:none;}</style></defs><path class="cls-1" d="M36.83,35.471l-2.92-.694a2.536,2.536,0,0,1-1.924-2.094l-.752-5.244A7.262,7.262,0,0,1,32.4,22.264c1.686-2.469,2.316-7.347,1.246-13.744a49.574,49.574,0,0,0-1.191-5.294.945.945,0,0,0-1.063-.672L21.554,4.2a.943.943,0,0,0-.787.981,49.852,49.852,0,0,0,.6,5.394c1.07,6.4,3.254,10.806,5.651,12.592A7.257,7.257,0,0,1,29.8,27.68l.987,5.2a2.539,2.539,0,0,1-1.138,2.607L27.11,37.1a.15.15,0,0,0,.105.274l9.605-1.606A.15.15,0,0,0,36.83,35.471Z"/><path class="cls-2" d="M27.612,22.363c-2.128-1.584-3.949-5.435-4.983-10.454,0,0,9.738-4.953,10.028-3.223.961,5.746.555,10.611-1.086,13.015A3.034,3.034,0,0,1,27.612,22.363Z"/><path class="cls-3" d="M22.629,11.909A48.184,48.184,0,0,0,27.105,9.2c2.273-1.561,5.248-2.243,5.552-.516C32.958,10.393,22.629,11.909,22.629,11.909Z"/><path class="cls-1" d="M13.419,37.4l-2.525-1.622a2.541,2.541,0,0,1-1.121-2.614l1.151-5.687a7.264,7.264,0,0,1,2.812-4.5c2.409-1.77,4.62-6.164,5.731-12.554a49.68,49.68,0,0,0,.631-5.39.945.945,0,0,0-.781-.986L9.494,2.34a.944.944,0,0,0-1.068.665A49.615,49.615,0,0,0,7.2,8.292c-1.111,6.39-.512,11.273,1.158,13.753A7.26,7.26,0,0,1,9.49,27.227l-.914,5.725a2.54,2.54,0,0,1-1.938,2.082L3.71,35.71A.149.149,0,0,0,3.718,36l9.6,1.668A.149.149,0,0,0,13.419,37.4Z"/><path class="cls-2" d="M9.189,21.486c-1.362-2.021-1.847-5.767-1.382-10.3a19.266,19.266,0,0,0,5.935.183,24.991,24.991,0,0,0,4.74-1.112c-1,5.741-2.993,10.2-5.338,11.919A3.034,3.034,0,0,1,9.189,21.486Z"/><path class="cls-3" d="M7.807,11.182a19.266,19.266,0,0,0,5.935.183,24.991,24.991,0,0,0,4.74-1.112C17.484,15.994,7.807,11.182,7.807,11.182Z"/><rect class="cls-4" width="40" height="40"/></svg>