<?xml version="1.0" encoding="UTF-8"?><svg id="Layer_1" xmlns="http://www.w3.org/2000/svg" viewBox="0 0 40 40"><g><circle cx="20" cy="20" r="12.255" fill="#d12030"/><g><ellipse cx="20" cy="4.354" rx="2.611" ry="1.854" fill="#d12030"/><rect x="19.093" y="4.354" width="1.814" height="4.851" fill="#d12030"/></g><g><ellipse cx="12.177" cy="6.45" rx="2.611" ry="1.854" transform="translate(-1.594 6.952) rotate(-30)" fill="#d12030"/><rect x="12.482" y="6.125" width="1.814" height="4.851" transform="translate(-2.481 7.84) rotate(-30)" fill="#d12030"/></g><g><ellipse cx="6.45" cy="12.177" rx="2.611" ry="1.854" transform="translate(-7.321 11.674) rotate(-60)" fill="#d12030"/><rect x="7.643" y="10.964" width="1.814" height="4.851" transform="translate(-7.321 14.099) rotate(-60)" fill="#d12030"/></g><g><ellipse cx="4.354" cy="20" rx="1.854" ry="2.611" fill="#d12030"/><rect x="5.872" y="17.575" width="1.814" height="4.851" transform="translate(-13.221 26.779) rotate(-90)" fill="#d12030"/></g><g><ellipse cx="6.45" cy="27.823" rx="1.854" ry="2.611" transform="translate(-13.048 6.952) rotate(-30)" fill="#d12030"/><rect x="7.643" y="24.185" width="1.814" height="4.851" transform="translate(-10.22 47.321) rotate(-120)" fill="#d12030"/></g><g><ellipse cx="12.177" cy="33.55" rx="1.854" ry="2.611" transform="translate(-22.967 27.321) rotate(-60)" fill="#d12030"/><rect x="12.482" y="29.024" width="1.814" height="4.851" transform="translate(9.26 65.381) rotate(-150)" fill="#d12030"/></g><g><ellipse cx="20" cy="35.646" rx="2.611" ry="1.854" fill="#d12030"/><rect x="19.093" y="30.796" width="1.814" height="4.851" transform="translate(40 66.442) rotate(-180)" fill="#d12030"/></g><g><ellipse cx="27.823" cy="33.55" rx="2.611" ry="1.854" transform="translate(-13.048 18.406) rotate(-30)" fill="#d12030"/><rect x="25.703" y="29.024" width="1.814" height="4.851" transform="translate(65.381 45.381) rotate(150)" fill="#d12030"/></g><g><ellipse cx="33.55" cy="27.823" rx="2.611" ry="1.854" transform="translate(-7.321 42.967) rotate(-60)" fill="#d12030"/><rect x="30.543" y="24.185" width="1.814" height="4.851" transform="translate(70.22 12.679) rotate(120)" fill="#d12030"/></g><g><ellipse cx="35.646" cy="20" rx="1.854" ry="2.611" fill="#d12030"/><rect x="32.314" y="17.575" width="1.814" height="4.851" transform="translate(53.221 -13.221) rotate(90)" fill="#d12030"/></g><g><ellipse cx="33.55" cy="12.177" rx="1.854" ry="2.611" transform="translate(-1.594 18.406) rotate(-30)" fill="#d12030"/><rect x="30.543" y="10.964" width="1.814" height="4.851" transform="translate(27.321 -20.542) rotate(60)" fill="#d12030"/></g><g><ellipse cx="27.823" cy="6.45" rx="1.854" ry="2.611" transform="translate(8.326 27.321) rotate(-60)" fill="#d12030"/><rect x="25.703" y="6.125" width="1.814" height="4.851" transform="translate(7.84 -12.16) rotate(30)" fill="#d12030"/></g></g><rect y="0" width="40" height="40" fill="none"/></svg>