<svg id="Layer_1" data-name="Layer 1" xmlns="http://www.w3.org/2000/svg" viewBox="0 0 40 40"><defs><style>.cls-1{fill:#2e3d51;}.cls-2{fill:#c3846c;}.cls-3{fill:#fa878f;}.cls-4{fill:#523725;}.cls-5{fill:#5c2f17;}.cls-6{fill:#ec3f00;}.cls-7{fill:none;}</style></defs><path class="cls-1" d="M17.051,34.887l-1.755,1.7a1.234,1.234,0,0,0-.412.882v.27c0,.365.449.662,1,.662h1.07a2.356,2.356,0,0,0,1.865-.764l.285-.381a.521.521,0,0,0,.111-.314V34.6H17.051Z"/><path class="cls-1" d="M23.121,34.887l1.755,1.7a1.233,1.233,0,0,1,.411.882v.27c0,.365-.448.662-1,.662H23.216a2.355,2.355,0,0,1-1.865-.764l-.285-.381a.516.516,0,0,1-.112-.314V34.6h2.167Z"/><path class="cls-2" d="M15.037,24.677l1.386-7.461c.066-.491-.726-.918-1.216-.983A.885.885,0,0,0,14.2,17l-1.137,8.5a1,1,0,0,0,.008.122c0,.017-.01.032-.01.05a.837.837,0,0,0,.021.1.784.784,0,0,0,.024.119,1.235,1.235,0,0,0,1.208,1.033,1.254,1.254,0,0,0,1.254-1.254A1.23,1.23,0,0,0,15.037,24.677Z"/><path class="cls-2" d="M24.963,24.677l-1.386-7.461c-.066-.491.726-.918,1.216-.983A.885.885,0,0,1,25.8,17l1.137,8.5a1,1,0,0,1-.008.122c0,.017.01.032.01.05a.837.837,0,0,1-.021.1.784.784,0,0,1-.024.119,1.235,1.235,0,0,1-1.208,1.033,1.254,1.254,0,0,1-1.254-1.254A1.23,1.23,0,0,1,24.963,24.677Z"/><polygon class="cls-2" points="20.004 11.861 17.704 11.861 16.778 20.804 16.786 35.144 19.217 35.141 19.939 25.032 20.004 11.861"/><polygon class="cls-2" points="20.058 11.861 22.517 11.861 23.284 20.804 23.386 35.143 20.954 35.141 20.124 25.032 20.058 11.861"/><path class="cls-3" d="M13.448,17.374l2.815.767-.309,3.592h8.169l-.384-3.625,2.2-1.064-.387-3.107A3.318,3.318,0,0,0,23.309,11.2l-3.336-1.115-3.5,1.184a3.321,3.321,0,0,0-2.171,2.4Z"/><path class="cls-4" d="M15.8,9.144s-.5-5.479,2.151-6.64A2.535,2.535,0,0,1,20.3,1.618a4.1,4.1,0,0,1,3.283,2.554,14.471,14.471,0,0,1,.568,4.7.706.706,0,0,1-.341.586c-.448.273-1.487.622-3.869.622C16.038,10.083,15.8,9.144,15.8,9.144Z"/><path class="cls-2" d="M21.175,5.174a4.528,4.528,0,0,1-2.666-1.511.073.073,0,0,0-.128.035,3.717,3.717,0,0,1-1.1,2.048,1.641,1.641,0,0,0-.28.3,1.334,1.334,0,0,0-.241,1.02A3.174,3.174,0,0,0,23,7.343C23.182,6.284,22.541,5.377,21.175,5.174Z"/><ellipse cx="18.943" cy="6.352" rx="0.356" ry="0.427"/><ellipse cx="20.824" cy="6.352" rx="0.356" ry="0.427"/><path class="cls-5" d="M20.327,8.23a.121.121,0,0,1,.116.154.58.58,0,0,1-1.118,0,.12.12,0,0,1,.115-.154Z"/><path class="cls-2" d="M19.124,9.6h1.671a0,0,0,0,1,0,0v1.016a.835.835,0,0,1-.835.835h0a.835.835,0,0,1-.835-.835V9.6a0,0,0,0,1,0,0Z"/><path class="cls-6" d="M23.707,26.927H16.442a.278.278,0,0,1-.277-.27l-.051-4.924h7.837l.033,4.919A.278.278,0,0,1,23.707,26.927Z"/><rect class="cls-7" width="40" height="40"/></svg>