<?xml version="1.0" encoding="UTF-8"?><svg id="Layer_1" xmlns="http://www.w3.org/2000/svg" viewBox="0 0 40 40"><rect width="40" height="40" style="fill:none;"/><g><g><path d="M20,34.7168c-9.66498,0-17.5-4.53833-17.5-10.13647,0,6.89258,7.83502,11.48022,17.5,11.48022s17.5-4.58765,17.5-11.48022c0,5.59814-7.83502,10.13647-17.5,10.13647Z" style="fill:#ffcc80;"/><path d="M30.39648,27.46851v1.2395c3.24414-1.4978,5.62164-3.73438,6.59796-6.50879,.31848-.90479,.50555-1.85962,.50555-2.87109,0,3.33984-2.80115,6.29346-7.10352,8.14038Z" style="fill:#ffcc80;"/><path d="M20,30.80835c2.61377,0,5.08466-.3457,7.31195-.97144-.12897-.23486-.2088-.50049-.2088-.7876v-.4624c-2.17236,.56006-4.57184,.87793-7.10315,.87793-9.66498,0-17.5-4.53833-17.5-10.13672,0,1.01147,.18707,1.96631,.50555,2.87109,1.85175,5.26221,8.74774,8.60913,16.99445,8.60913Z" style="fill:#ffcc80;"/><path d="M30.39648,22.21631v1.23975c3.24414-1.49805,5.62164-3.73438,6.59796-6.50879,.31848-.90503,.50555-1.85986,.50555-2.87109,0,3.33984-2.80115,6.29346-7.10352,8.14014Z" style="fill:#ffcc80;"/><path d="M20,25.5564c.43817,0,.8678-.02002,1.29785-.03882-.07794-.19141-.12274-.3999-.12274-.61938v-.71997c-.39014,.01514-.77838,.03442-1.17511,.03442-9.66498,0-17.5-4.53833-17.5-10.13647,0,1.01123,.18707,1.96606,.50555,2.87109,1.85175,5.26196,8.74774,8.60913,16.99445,8.60913Z" style="fill:#ffcc80;"/><path d="M27.10315,23.33472c-.84448,.21777-1.72595,.39282-2.6347,.53174v1.03174c0,.10522-.01215,.20752-.03101,.30737,.91968-.14429,1.81165-.32812,2.66571-.55957v-1.31128Z" style="fill:#ffcc80;"/></g><g><path d="M30.39648,28.70801v.34131c0,.90967-.737,1.64673-1.64667,1.64673-.62274,0-1.15802-.34937-1.43787-.85913-2.22729,.62573-4.69818,.97144-7.31195,.97144-8.2467,0-15.1427-3.34692-16.99445-8.60913-.31848,.76514-.50555,1.55957-.50555,2.3811,0,5.59814,7.83502,10.13647,17.5,10.13647s17.5-4.53833,17.5-10.13647c0-.82153-.18707-1.61597-.50555-2.3811-.97632,2.77441-3.35382,5.01099-6.59796,6.50879Z" style="fill:#ec6700;"/><path d="M30.39648,23.45605v4.01245c4.30237-1.84692,7.10352-4.80054,7.10352-8.14038,0-.82153-.18707-1.61597-.50555-2.38086-.97632,2.77441-3.35382,5.01074-6.59796,6.50879Z" style="fill:#ec6700;"/><path d="M20,29.46484c2.53131,0,4.93079-.31787,7.10315-.87793v-3.94092c-.85406,.23145-1.74603,.41528-2.66571,.55957-.14423,.76221-.81134,1.33936-1.61566,1.33936-.69012,0-1.27899-.42529-1.52393-1.02734-.43005,.0188-.85968,.03882-1.29785,.03882-8.2467,0-15.1427-3.34717-16.99445-8.60913-.31848,.76489-.50555,1.55933-.50555,2.38086,0,5.59839,7.83502,10.13672,17.5,10.13672Z" style="fill:#ec6700;"/><path d="M20,24.21265c.39673,0,.78497-.01929,1.17511-.03442v-2.67944c0-.72729-.59277-1.35986-.91949-1.35986l.00287-.0061c-.08685,.00122-.1712,.00781-.25848,.00781-7.06287,0-12.78845-3.31665-12.78845-7.40771s5.72559-7.40747,12.78845-7.40747,12.78845,3.31641,12.78845,7.40747c0,1.24609-.53693,2.41821-1.47516,3.44873l.00275,.00488-.04413,.04492c-.03503,.03784-.07379,.07422-.10999,.11157-.35596,.35718-.76544,.78882-.76544,1.42358v4.44971c4.30237-1.84668,7.10352-4.80029,7.10352-8.14014,0-5.59839-7.83502-10.13672-17.5-10.13672S2.5,8.47778,2.5,14.07617s7.83502,10.13647,17.5,10.13647Z" style="fill:#ec6700;"/><path d="M27.10315,22.15723c0-.72705-.59015-1.31714-1.31732-1.31714s-1.31738,.59009-1.31738,1.31714v1.70923c.90875-.13892,1.79022-.31396,2.6347-.53174v-1.17749Z" style="fill:#ec6700;"/></g><path d="M32.78998,12.72998c0-4.08984-5.72998-7.3999-12.78998-7.3999s-12.78998,3.31006-12.78998,7.3999c0,4.09009,5.72998,7.41016,12.78998,7.41016,.09003,0,.16998-.01025,.26001-.01025v.01025c.32001,0,.91998,.62988,.91998,1.35986v3.3999c0,.22021,.03998,.43018,.12,.62012,.23999,.6001,.83002,1.02002,1.52002,1.02002,.81,0,1.46997-.57007,1.62-1.33008,.02002-.1001,.02997-.20996,.02997-.31006v-2.73999c0-.72998,.59003-1.32007,1.32001-1.32007,.72003,0,1.31,.59009,1.31,1.32007v6.89014c0,.28979,.08002,.55005,.21002,.78979,.28003,.51025,.82001,.86011,1.44,.86011,.90997,0,1.65002-.73999,1.65002-1.6499v-11.28003c0-.64014,.40997-1.07007,.75995-1.43018,.04004-.02979,.08002-.06982,.11005-.10986,.01996-.01001,.02997-.03003,.04999-.04004l-.01001-.01001c.94-1.03003,1.47998-2.19995,1.47998-3.44995Zm-7.44-1.28003l-4.44995,2.59009c-.54004,.31006-1.21002,.31982-1.76001,0l-4.48999-2.59009c-.58002-.34009-.58002-1.17993,0-1.52002l4.44995-2.57983c.54004-.32007,1.21002-.32007,1.76001-.01025l4.48999,2.6001c.58002,.33008,.58002,1.16992,0,1.51001Z" style="fill:#bf270c;"/><path d="M20.8985,14.03931l4.45178-2.58716c.58167-.33789,.58044-1.17847-.00214-1.51489l-4.4917-2.59326c-.54315-.31348-1.21265-.3125-1.75494,.00269l-4.45178,2.58691c-.58167,.33813-.58044,1.17871,.00214,1.51489l4.4917,2.59326c.54315,.31372,1.21265,.31274,1.75494-.00244Z" style="fill:#ffe0b2;"/></g></svg>