<?xml version="1.0" encoding="UTF-8"?><svg id="Layer_1" xmlns="http://www.w3.org/2000/svg" viewBox="0 0 40 40"><g><path d="m36.043,11.905h0c-2.669-.008-4.84,2.15-4.847,4.819h0c-.008,2.669-2.178,4.827-4.847,4.819h0c-2.669-.008-4.84,2.15-4.847,4.819h0c-.008,2.669-2.178,4.827-4.847,4.819h0c-2.669-.008-4.84,2.15-4.847,4.819h0c-.005,1.784-2.164,2.67-3.422,1.406l-6.439-6.477.014-4.833c.008-2.669,2.178-4.827,4.847-4.819h0c2.669.008,4.84-2.15,4.847-4.819h0c.008-2.669,2.178-4.827,4.847-4.819h0c2.669.008,4.84-2.15,4.847-4.819h0c.008-2.669,2.178-4.827,4.847-4.819l4.833.014,6.439,6.477c1.257,1.265.358,3.419-1.426,3.413Z" fill="#fa878f"/><path d="m33.02,7.73c-3.289-.009-5.972,2.658-5.981,5.946-.005,1.979-1.735,3.698-3.714,3.692-3.288-.009-5.971,2.658-5.981,5.946-.006,2.042-1.672,3.698-3.714,3.692-3.288-.01-5.97,2.659-5.981,5.946-.002.72-.354,1.947-.827,2.882l1.639,1.649c.981-1.542,1.446-3.615,1.448-4.525.006-2.041,1.672-3.697,3.714-3.692,3.289.009,5.972-2.658,5.981-5.946.006-2.042,1.673-3.696,3.714-3.692,1.594.005,3.092-.611,4.222-1.735s1.754-2.619,1.759-4.211c.008-2.04,1.674-3.697,3.714-3.692,1.109.003,3.061-.526,4.379-1.576l-1.606-1.616c-.794.528-2.045.934-2.766.931Z" fill="#ef4452"/><path d="m9.846,25.467c3.289.009,5.972-2.658,5.981-5.946.005-1.979,1.735-3.698,3.714-3.692,3.288.008,5.972-2.657,5.981-5.946.005-1.979,1.735-3.699,3.714-3.692,1.092.003,3.201-.359,4.58-1.373l-1.622-1.631c-.768.427-2.02.746-2.952.744-1.594-.005-3.092.611-4.222,1.735-1.13,1.123-1.755,2.618-1.759,4.212-.006,2.042-1.673,3.696-3.714,3.692-1.594-.005-3.092.611-4.222,1.735-1.13,1.123-1.754,2.619-1.759,4.211-.008,2.04-1.674,3.697-3.714,3.692-1.592-.005-3.092.611-4.222,1.735-1.13,1.123-1.754,2.619-1.756,4.143-.077,1.212-.522,2.12-1.037,2.741l1.591,1.6c.889-1.006,1.591-2.447,1.704-4.267.005-1.979,1.735-3.699,3.714-3.692Z" fill="#ef4452"/></g><rect width="40" height="40" fill="none"/></svg>