<?xml version="1.0" encoding="UTF-8"?><svg id="Layer_1" xmlns="http://www.w3.org/2000/svg" viewBox="0 0 40 40"><g><g><path d="m26.949,37.506h-13.961c-1.453,0-2.66-1.121-2.767-2.57l-2.25-22.738h23.995l-2.25,22.738c-.107,1.449-1.314,2.57-2.767,2.57Z" fill="#ffbc7d"/><path d="m19.347,13.283c-.115,0-.231-.016-.347-.048-.677-.191-1.07-.895-.879-1.57l2.115-7.489c.354-1.251,1.357-2.22,2.62-2.528L29.464.039c.679-.174,1.371.251,1.537.935.166.683-.252,1.371-.935,1.537l-6.606,1.61c-.373.091-.67.378-.774.747l-2.115,7.489c-.159.56-.668.927-1.224.927Z" fill="#572713"/><path d="m15.878,26.098c-.115,0-.231-.016-.347-.048-.677-.191-1.07-.895-.879-1.57l3.469-12.815c.354-1.251,3.223-.056,3.223-.056-.373.091-.67.378-.774.747l-3.469,12.815c-.159.56-.668.927-1.224.927Z" fill="#c78062"/><rect x="5.959" y="8.215" width="28.081" height="3.964" rx="1.982" ry="1.982" fill="#d0d5da"/></g><circle cx="16.8" cy="33.378" r="2.034" fill="#9e664e"/><circle cx="19.985" cy="28.859" r="2.034" fill="#9e664e"/><circle cx="13.82" cy="28.859" r="2.034" fill="#9e664e"/><circle cx="23.151" cy="33.378" r="2.034" fill="#9e664e"/><circle cx="26.18" cy="28.859" r="2.034" fill="#9e664e"/></g><rect y="0" width="40" height="40" fill="none"/></svg>