<?xml version="1.0" encoding="UTF-8"?><svg id="Layer_1" xmlns="http://www.w3.org/2000/svg" viewBox="0 0 40 40"><g><polygon points="20.523 37.292 21.072 37.292 21.278 29.5 20.318 29.5 20.523 37.292" fill="#ec6700"/><polygon points="19.336 37.292 19.885 37.292 20.091 29.5 19.131 29.5 19.336 37.292" fill="#ec6700"/><g><path d="m20.366,17.384c-.202.4-.776.4-.978,0-.675-1.338-1.811-4.055-1.811-7.188,0-3.133,1.136-5.85,1.811-7.188.202-.4.776-.4.978,0,.675,1.338,1.811,4.055,1.811,7.188s-1.136,5.85-1.811,7.188Z" fill="#109494"/><path d="m21.392,17.694c-.326.306-.866.11-.919-.334-.177-1.488-.315-4.43.757-7.374,1.072-2.944,3.068-5.109,4.16-6.135.326-.306.866-.11.919.334.177,1.488.315,4.43-.757,7.374-1.072,2.944-3.068,5.109-4.16,6.135Z" fill="#109494"/><path d="m22.25,18.336c-.411.176-.852-.193-.749-.629.343-1.459,1.219-4.27,3.233-6.671,2.014-2.4,4.63-3.751,6.008-4.342.411-.176.852.193.749.629-.343,1.459-1.219,4.27-3.233,6.671-2.014,2.4-4.63,3.751-6.008,4.342Z" fill="#109494"/><path d="m22.836,19.233c-.447.025-.734-.473-.489-.847.821-1.254,2.606-3.596,5.32-5.163,2.714-1.567,5.634-1.941,7.131-2.026.447-.025.734.473.489.847-.821,1.254-2.606,3.596-5.32,5.163-2.714,1.567-5.634,1.941-7.131,2.026Z" fill="#109494"/><path d="m23.081,20.276c-.428-.129-.528-.695-.17-.963,1.201-.897,3.679-2.488,6.764-3.032,3.086-.544,5.958.103,7.393.535.428.129.528.695.17.963-1.201.897-3.679,2.488-6.764,3.032-3.086.544-5.958-.103-7.393-.535Z" fill="#109494"/><path d="m22.954,21.34c-.358-.268-.259-.834.17-.963,1.435-.433,4.308-1.079,7.393-.535,3.086.544,5.564,2.134,6.764,3.032.358.268.259.834-.17.963-1.435.433-4.308,1.079-7.393.535-3.086-.544-5.564-2.134-6.764-3.032Z" fill="#109494"/><path d="m22.47,22.297c-.245-.374.042-.872.489-.847,1.497.084,4.417.459,7.131,2.026s4.498,3.909,5.32,5.163c.245.374-.042.872-.489.847-1.497-.084-4.417-.459-7.131-2.026-2.714-1.567-4.498-3.909-5.32-5.163Z" fill="#109494"/><path d="m17.164,21.663c.447-.025.734.473.489.847-.821,1.254-2.606,3.596-5.32,5.163-2.714,1.567-5.634,1.941-7.131,2.026-.447.025-.734-.473-.489-.847.821-1.254,2.606-3.596,5.32-5.163,2.714-1.567,5.634-1.941,7.131-2.026Z" fill="#109494"/><path d="m16.919,20.619c.428.129.528.695.17.963-1.201.897-3.679,2.488-6.764,3.032-3.086.544-5.958-.103-7.393-.535-.428-.129-.528-.695-.17-.963,1.201-.897,3.679-2.488,6.764-3.032,3.086-.544,5.958.103,7.393.535Z" fill="#109494"/><path d="m17.046,19.555c.358.268.259.834-.17.963-1.435.433-4.308,1.079-7.393.535-3.086-.544-5.564-2.134-6.764-3.032-.358-.268-.259-.834.17-.963,1.435-.433,4.308-1.079,7.393-.535s5.564,2.134,6.764,3.032Z" fill="#109494"/><path d="m17.53,18.599c.245.374-.042.872-.489.847-1.497-.084-4.417-.459-7.131-2.026-2.714-1.567-4.498-3.909-5.32-5.163-.245-.374.042-.872.489-.847,1.497.084,4.417.459,7.131,2.026,2.714,1.567,4.498,3.909,5.32,5.163Z" fill="#109494"/><path d="m18.311,17.866c.102.436-.338.805-.749.629-1.378-.591-3.994-1.942-6.008-4.342s-2.89-5.211-3.233-6.671c-.102-.436.338-.805.749-.629,1.378.591,3.994,1.942,6.008,4.342s2.89,5.211,3.233,6.671Z" fill="#109494"/><path d="m19.296,17.444c-.053.444-.593.641-.919.334-1.092-1.027-3.089-3.191-4.16-6.135-1.072-2.944-.933-5.886-.757-7.374.053-.444.593-.641.919-.334,1.092,1.027,3.089,3.191,4.16,6.135,1.072,2.944.933,5.886.757,7.374Z" fill="#109494"/><rect x="14.194" y="15.796" width="12.007" height="10.334" transform="translate(40.395 41.925) rotate(-180)" fill="#109494"/></g><ellipse cx="20.21" cy="24.835" rx="5.858" ry="5.065" fill="#6453e4"/><path d="m18.838,21.189l-1.148.747c-3.544,2.306-2.03,7.876,2.197,7.963.059.001.118.002.178.002,5.992,0,4.441-6.46,2.121-11.647l-2.149-4.805c-.023-.051.015-.11.071-.11h2.988s-.992-2.604-3.045-2.604c-2.053,0-2.269,1.948-1.213,10.454Z" fill="#3e26b1"/><circle cx="20.295" cy="12.019" r=".549" fill="#f3f3f3"/><path d="m21.888,11.533c.831.781,1.207,1.806,1.207,1.806h-1.226l.019-1.806Z" fill="#fff"/></g><rect width="40" height="40" fill="none"/></svg>