<svg id="Layer_1" data-name="Layer 1" xmlns="http://www.w3.org/2000/svg" viewBox="0 0 40 40"><defs><style>.cls-1{fill:#ffc84d;}.cls-2{fill:#ff9000;}.cls-3{fill:#5c2f17;}.cls-4{fill:#d69600;}.cls-5{fill:#f3f3f3;}.cls-6{fill:none;}</style></defs><circle class="cls-1" cx="20.001" cy="25.05" r="12.45"/><ellipse class="cls-1" cx="8.639" cy="25.4" rx="4.984" ry="4.674"/><ellipse class="cls-1" cx="31.363" cy="25.4" rx="4.984" ry="4.674"/><path class="cls-2" d="M34.08,21.48A14.351,14.351,0,0,0,5.449,19.759,14.869,14.869,0,0,0,5.4,21.777s1.217-.29,2.3,2.06l8.212-9.189s9.97,8.007,16.549,7.57a1.535,1.535,0,0,0,.478-.131C33.374,21.84,33.743,21.382,34.08,21.48Z"/><ellipse cx="16.503" cy="24.448" rx="1.325" ry="1.59"/><ellipse cx="23.498" cy="24.448" rx="1.325" ry="1.59"/><path class="cls-3" d="M21.649,30.717a.45.45,0,0,1,.43.573,2.156,2.156,0,0,1-4.157,0,.451.451,0,0,1,.431-.573Z"/><path class="cls-4" d="M6.1,15.623C5.863,14.183,5.136,9.741,4.8,7.71a.42.42,0,0,1,.67-.4L8.6,9.665A.422.422,0,0,0,9.238,9.5l1.713-3.876a.42.42,0,0,1,.671-.139L15.514,9.1a.421.421,0,0,0,.66-.115l3.235-6.252a.42.42,0,0,1,.747,0L23.391,8.98a.421.421,0,0,0,.66.115l3.892-3.611a.42.42,0,0,1,.671.139L30.327,9.5a.422.422,0,0,0,.639.166L34.092,7.31a.421.421,0,0,1,.669.4l-1.3,7.948a.708.708,0,0,1-.473.565c-2.107.711-12.27,3.664-26.354-.022A.726.726,0,0,1,6.1,15.623Z"/><ellipse class="cls-5" cx="19.782" cy="13.474" rx="1.42" ry="1.575"/><rect class="cls-6" width="40" height="40" transform="translate(40 40) rotate(-180)"/></svg>