<?xml version="1.0" encoding="UTF-8"?><svg id="a" xmlns="http://www.w3.org/2000/svg" viewBox="0 0 40 40"><g><rect x="4.28" y="4.28" width="31.439" height="31.439" rx="3.309" ry="3.309" fill="#ec6700"/><polygon points="35.719 15.831 35.719 13.844 27.449 13.844 27.449 4.281 25.464 4.281 25.464 13.844 14.551 13.844 14.551 4.281 12.566 4.281 12.566 13.844 4.28 13.844 4.28 15.831 19.015 15.831 19.015 24.17 4.28 24.17 4.28 26.156 12.566 26.156 12.566 35.719 14.551 35.719 14.551 26.156 25.464 26.156 25.464 35.719 27.449 35.719 27.449 26.156 35.719 26.156 35.719 24.17 21 24.17 21 15.831 35.719 15.831" fill="#ffe3a0"/></g><rect width="40" height="40" fill="none"/></svg>