<svg id="Layer_1" data-name="Layer 1" xmlns="http://www.w3.org/2000/svg" viewBox="0 0 40 40"><defs><style>.cls-1{fill:#333;}.cls-2{fill:#956759;}.cls-3{fill:#5c2f17;}.cls-4{fill:#d0d5da;}.cls-5{fill:#e4e7ea;}.cls-6{fill:none;}</style></defs><path class="cls-1" d="M9.771,18.727l1.036,4.16a1.729,1.729,0,0,0,1.677,1.31H27.865a1.727,1.727,0,0,0,1.707-1.458l.634-4.012Z"/><circle class="cls-2" cx="20.196" cy="15.93" r="9.104"/><ellipse class="cls-2" cx="11.887" cy="16.186" rx="3.645" ry="3.418"/><ellipse class="cls-2" cx="28.505" cy="16.186" rx="3.645" ry="3.418"/><path class="cls-1" d="M30.492,13.319A10.495,10.495,0,0,0,9.555,12.06a10.767,10.767,0,0,0-.038,1.476s.89-.212,1.681,1.507L17.2,8.323s7.291,5.855,12.1,5.536a1.105,1.105,0,0,0,.349-.1C29.976,13.583,30.245,13.248,30.492,13.319Z"/><path class="cls-2" d="M28.024,28.058l-4.209-1.6a10.749,10.749,0,0,0-7.63,0l-4.209,1.6a9.314,9.314,0,0,0-4.767,4.067,9.406,9.406,0,0,0-.921,2.451L5.75,36.763a.525.525,0,0,0,.509.65H33.741a.525.525,0,0,0,.509-.65l-.538-2.187a8.94,8.94,0,0,0-5.688-6.518Z"/><path class="cls-2" d="M17.8,23.323H22.34a0,0,0,0,1,0,0V25.6a2.272,2.272,0,0,1-2.272,2.272h0A2.272,2.272,0,0,1,17.8,25.6V23.323A0,0,0,0,1,17.8,23.323Z"/><ellipse cx="17.495" cy="15.48" rx="0.975" ry="1.17"/><ellipse cx="22.641" cy="15.48" rx="0.975" ry="1.17"/><path class="cls-3" d="M21.281,20.091a.331.331,0,0,1,.316.422,1.586,1.586,0,0,1-3.058,0,.332.332,0,0,1,.317-.422Z"/><rect class="cls-4" x="16.025" y="32.869" width="7.947" height="4.544"/><path class="cls-5" d="M17.8,24.714l1.2,12.7H11.894l.714-9.326a1.836,1.836,0,0,1,1.083-1.537Z"/><path class="cls-5" d="M22.334,24.714l-.8,12.7h6.713l-.715-9.326a1.837,1.837,0,0,0-1.082-1.537Z"/><rect class="cls-6" width="40" height="40"/></svg>