<svg id="Layer_1" data-name="Layer 1" xmlns="http://www.w3.org/2000/svg" viewBox="0 0 40 40"><defs><style>.cls-1{fill:#6e4944;}.cls-2{fill:#5c2f17;}.cls-3{fill:none;}</style></defs><path class="cls-1" d="M34.518,17.771A14.518,14.518,0,1,0,5.864,21.035C6.128,29.762,12.347,36.748,20,36.748s13.872-6.986,14.136-15.713A14.512,14.512,0,0,0,34.518,17.771Z"/><ellipse class="cls-1" cx="8.205" cy="21.232" rx="5.669" ry="5.317"/><ellipse class="cls-1" cx="31.795" cy="21.232" rx="5.669" ry="5.317"/><ellipse cx="16.021" cy="20.149" rx="1.507" ry="1.808"/><ellipse cx="23.979" cy="20.149" rx="1.507" ry="1.808"/><path class="cls-2" d="M21.875,28.207a.512.512,0,0,1,.489.652,2.452,2.452,0,0,1-4.728,0,.512.512,0,0,1,.489-.652Z"/><rect class="cls-3" width="40" height="40"/></svg>