<?xml version="1.0" encoding="UTF-8"?><svg id="Layer_1" xmlns="http://www.w3.org/2000/svg" viewBox="0 0 40 40"><g><circle cx="20" cy="20" r="17" fill="#ffc84d"/><circle cx="9.49" cy="19.895" r="3.762" fill="#ffa52e"/><circle cx="30.51" cy="19.895" r="3.762" fill="#ffa52e"/><path d="m20,21.605c-1.964,0-3.496-.339-4.542-.681-.542-.177-.986.467-.633.915.944,1.197,2.607,2.622,5.174,2.622s4.23-1.425,5.174-2.622c.353-.448-.09-1.093-.633-.915-1.046.342-2.578.681-4.542.681Z" fill="#ff6d00"/><path d="m12.417,15.335c-.24.118-.516-.089-.462-.351.296-1.456,1.549-2.55,3.05-2.55s2.754,1.094,3.05,2.55c.053.262-.222.47-.462.351-.523-.258-1.416-.584-2.588-.584s-2.064.326-2.588.584Z"/><path d="m27.583,15.335c.24.118.516-.089.462-.351-.296-1.456-1.549-2.55-3.05-2.55-1.501,0-2.754,1.094-3.05,2.55-.053.262.222.47.462.351.523-.258,1.416-.584,2.588-.584,1.172,0,2.064.326,2.588.584Z"/><g><path d="m11.973,25.22c-.462.234-.647.797-.413,1.259l.77,1.938-1.67-1.225-2.947-2.16c-.417-.306-1.003-.216-1.309.202s-.216,1.003.202,1.309l2.929,2.185-.151.207-3.96-2.865c-.417-.306-1.003-.216-1.309.202s-.216,1.003.202,1.309l3.765,2.798-.149.208-3.19-2.301c-.417-.306-1.003-.216-1.309.202s-.216,1.003.202,1.309l3.733,2.775-.151.207-2.558-1.837c-.417-.306-1.003-.216-1.309.202s-.216,1.003.202,1.309l2.54,1.862,2.367,1.734c1.976,1.448,4.795.961,6.297-1.088.475-.648.76-1.374.867-2.11,0-.001.001-.003.001-.004.079-.336.074-.739.016-1.169-.023-.211-.061-.42-.114-.626-.355-1.57-1.189-3.234-1.189-3.234l-1.104-2.183c-.234-.462-.797-.647-1.259-.413Z" fill="#ff9210"/><path d="m28.027,25.22c.462.234.647.797.413,1.259l-.77,1.938,1.67-1.225,2.947-2.16c.417-.306,1.003-.216,1.309.202s.216,1.003-.202,1.309l-2.929,2.185.151.207,3.96-2.865c.417-.306,1.003-.216,1.309.202s.216,1.003-.202,1.309l-3.765,2.798.149.208,3.19-2.301c.417-.306,1.003-.216,1.309.202s.216,1.003-.202,1.309l-3.733,2.775.151.207,2.558-1.837c.417-.306,1.003-.216,1.309.202s.216,1.003-.202,1.309l-2.54,1.862-2.367,1.734c-1.976,1.448-4.795.961-6.297-1.088-.475-.648-.76-1.374-.867-2.11,0-.001-.001-.003-.001-.004-.079-.336-.074-.739-.016-1.169.023-.211.061-.42.114-.626.355-1.57,1.189-3.234,1.189-3.234l1.104-2.183c.234-.462.797-.647,1.259-.413Z" fill="#ff9210"/></g></g><rect y="0" width="40" height="40" fill="none"/></svg>