<?xml version="1.0" encoding="UTF-8"?><svg id="Layer_1" xmlns="http://www.w3.org/2000/svg" viewBox="0 0 40 40"><g><path d="M29.40798,11.24366c-.12226-2.74114-2.11619-4.93981-4.68849-5.46244-.87576-2.29549-3.12228-3.89081-5.71118-3.77534-2.6747,.1193-4.82497,2.02381-5.41437,4.50541-2.11809,.95896-3.55216,3.12657-3.44223,5.59125,.05291,1.18624,.46041,2.27046,1.1081,3.16553-.37159,.81569-.58336,1.71672-.54068,2.67357,.08363,1.87506,1.05488,3.48523,2.47406,4.49519-.08757,.67674-.12417,1.37574-.09216,2.09335,.23133,5.18639,3.65938,9.2463,7.65674,9.06801,3.99736-.1783,7.05035-4.52728,6.81902-9.71367-.02851-.63918-.10651-1.26084-.22721-1.85998,1.48182-1.12411,2.40859-2.92943,2.31944-4.92812-.0478-1.07158-.40108-2.0487-.94237-2.89017,.46423-.88632,.72911-1.89101,.68132-2.96259Z" style="fill:#036d50;"/><path d="M23.78693,11.90627c-.64321-2.66741-3.02013-4.44508-5.6449-4.46713-1.2978-2.08613-3.80751-3.22334-6.32678-2.61585-2.60276,.62762-4.34999,2.90754-4.45489,5.45602-1.89612,1.3456-2.89009,3.74709-2.31175,6.14547,.27835,1.15433,.8853,2.14084,1.69193,2.89583-.20907,.87162-.24497,1.7965-.02044,2.72762,.43999,1.82463,1.70071,3.21981,3.28657,3.94033,.04321,.68101,.1407,1.37415,.30909,2.07245,1.217,5.04689,5.35693,8.37785,9.24677,7.43987,3.88984-.93799,6.05661-5.78974,4.83962-10.83663-.14999-.62199-.3452-1.21733-.57804-1.78242,1.24002-1.38628,1.80517-3.3353,1.33618-5.28023-.25145-1.04276-.78474-1.93448-1.47669-2.65717,.28652-.95863,.35477-1.99541,.10332-3.03817Z" style="fill:#03905a;"/><path d="M34.99161,16.16432c.55987-2.68614-.82794-5.30985-3.1909-6.45277-.28047-2.44081-2.06233-4.54245-4.59929-5.07123-2.62103-.5463-5.17572,.76685-6.36089,3.02542-2.28952,.40498-4.2154,2.15029-4.7188,4.56552-.24229,1.16244-.11577,2.31378,.29028,3.34129-.56189,.69836-.99004,1.51896-1.18548,2.45662-.38298,1.83744,.1596,3.63787,1.28471,4.96762-.25231,.63402-.46075,1.30223-.60732,2.00543-1.05931,5.08232,1.25743,9.86428,5.17459,10.68073,3.91716,.81645,7.9514-2.64176,9.01071-7.72409,.13055-.62636,.20882-1.24798,.24014-1.85835,1.71391-.72245,3.05861-2.24228,3.46683-4.20086,.21887-1.05008,.11838-2.08423-.19784-3.03348,.66912-.74387,1.17439-1.65177,1.39326-2.70185Z" style="fill:#23b169;"/><path d="M30.08922,27.95887c.13053-.62639,.20885-1.24801,.24014-1.85835,1.71392-.7225,3.05862-2.24233,3.46685-4.20086,.21885-1.05008,.11838-2.08424-.19786-3.0335,.66912-.7439,1.1744-1.65176,1.39325-2.70184,.55993-2.68615-.82792-5.30984-3.1909-6.45279-.28043-2.44084-2.06232-4.54246-4.59926-5.07122-.02832-.00593-.05623-.00488-.08454-.01035l-6.00205,31.05808c3.90584,.78762,7.91837-2.66254,8.97438-7.72917Z" style="fill:#0a9f60;"/><path d="M23.7917,35.57201c-4.29824-1.02153-6.90458,0-6.90458,0v1.37604c0,.58097,.47097,1.05194,1.05194,1.05194h4.80069c.58097,0,1.05194-.47097,1.05194-1.05194v-1.37604" style="fill:#68c76f;"/></g><rect y="0" width="40" height="40" style="fill:none;"/></svg>