<svg id="Layer_1" data-name="Layer 1" xmlns="http://www.w3.org/2000/svg" viewBox="0 0 40 40"><defs><style>.cls-1{fill:#86584a;}.cls-2,.cls-4{fill:none;}.cls-2{stroke:#4e5968;stroke-miterlimit:10;stroke-width:3px;}.cls-3{fill:#5e403b;}</style></defs><path class="cls-1" d="M34.167,9.934H5.833A3.333,3.333,0,0,0,2.5,13.267V31.6a3.334,3.334,0,0,0,3.333,3.334H34.167A3.334,3.334,0,0,0,37.5,31.6V13.267A3.333,3.333,0,0,0,34.167,9.934Z"/><path class="cls-2" d="M13.333,9.933V6.757a1.691,1.691,0,0,1,1.691-1.691h9.952a1.691,1.691,0,0,1,1.691,1.691V9.933"/><rect class="cls-3" x="8.99" y="9.933" width="2.762" height="25"/><rect class="cls-3" x="28.248" y="9.933" width="2.762" height="25"/><rect class="cls-4" width="40" height="40"/></svg>