<?xml version="1.0" encoding="UTF-8"?><svg id="Layer_1" xmlns="http://www.w3.org/2000/svg" viewBox="0 0 40 40"><g><path d="m9.953,17.221l1.184-.242c-.277-1.779-1.238-4.531-4.556-4.261-4.865.397-6.354,8.864-2.432,12.101l3.38-5.938h.007c.506-.805,1.321-1.436,2.417-1.66Z" fill="#ced2d6"/><path d="m32.761,4.468l.049.012-.003-.009-2.444-.558-2.259-.515c-1.747-.399-3.364,1.047-3.164,2.827.05.447.219.858.469,1.21.332.468.811.827,1.385.995l2.453.719.693.203,3.51,1.028c.184-1.828.143-4.048-.69-5.913Zm-3.928,2.147c-.593,0-1.074-.481-1.074-1.074s.481-1.074,1.074-1.074,1.074.481,1.074,1.074-.481,1.074-1.074,1.074Z" fill="#ced2d6"/><path d="m26.341,15.079l-9.222,10.507c2.901,2.546,7.318,2.259,9.864-.643,2.547-2.901,2.259-7.318-.643-9.864Z" fill="#6e4944"/><g><path d="m23.82,31.48l5.39-2.95c4.78-2.6,6.46-8.63,3.73-13.33l-3.68-5.26c.25-.17.47-.37.68-.59l-.69-.2-2.46-.72c-.57-.17-1.05-.53-1.38-.99-.25-.36-.42-.77-.47-1.21-.2-1.78,1.42-3.23,3.16-2.83l2.26.51c-.78-1.11-2.07-1.85-3.53-1.85-2.38,0-4.32,1.93-4.32,4.32,0,.51.11,1,.27,1.45l-.01.01,1.55,4.73c.28.85-.24,1.76-1.11,1.94l-12.07,2.47-1.19.24c-1.09.22-1.91.86-2.41,1.66-1.03,1.63-.77,3.99,1.15,5.21l10.92,6.94c.21.14.44.25.67.35l.77,5.07-3.93,2.05h12.44c-.72-1.93-6.86-2.02-6.86-2.02l.86-4.92c.09-.03.18-.05.26-.08Zm-6.7-5.89l9.22-10.51c2.9,2.55,3.19,6.96.64,9.86-2.54,2.9-6.96,3.19-9.86.65Z" fill="#c3775a"/><path d="m36.061,5.283l-3.251-.803-.049-.012c.833,1.864.875,4.085.69,5.913-.205,2.034-.69,3.581-.69,3.581,0,0,3.464.595,4.406-2.027l.297-1.202.548-2.218c.353-1.431-.52-2.877-1.951-3.231Z" fill="#c3775a"/></g><circle cx="28.833" cy="5.541" r="1.074" fill="#3d3d3d"/></g><rect width="40" height="40" fill="none"/></svg>