<?xml version="1.0" encoding="UTF-8"?><svg id="Layer_1" xmlns="http://www.w3.org/2000/svg" viewBox="0 0 40 40"><g><path d="M35.04394,11.46065s1.91431,1.09001,1.43194,2.94454c-.55415,2.13051-4.04927,3.65895-4.04927,3.65895-2.46875-1.91691-2.71536-9.12702-.23499-9.63437,0,0,2.9977-.12137,2.85232,3.03088Z" style="fill:#9bbdc4;"/><circle cx="33.3567" cy="10.90319" r=".77922"/><g><path d="M29.61552,27.25316l-1.74863,6.9236c-.07434,.29435-.3274,.49922-.61664,.49922h-5.47755c-.4269,0-.73339-.4329-.61152-.86374l2.90519-10.2705,5.54915,3.71141Z" style="fill:#4e686e;"/><path d="M6.51908,27.25316l1.87471,7.42282h5.96811c.4269,0,.73339-.4329,.61152-.86374l-2.90519-10.2705-5.54915,3.71141Z" style="fill:#4e686e;"/><path d="M5.67436,22.33584c.5388-5.43738,5.25317-4.20781,8.57569-5.67349,3.32251-1.46569,7.67762-5.20091,14.32265-10.82718,0,0,2.06536-1.37124,3.63676,.37814,.8866,.98698,1.41582,2.06407,1.70867,2.81566-.29028-.22566-.6468-.36119-1.03568-.36119-.97423,0-1.76395,.83197-1.76395,1.85788,0,.88965,.59529,1.63222,1.38894,1.81318-.66632,.62867-1.0937,1.53201-1.0937,2.54855,0,.24945,.04657,.55493,.41777,1.30697l1.20258,2.05175-.00017,.00018c1.19456,1.9897,4.29203,7.88242,4.46591,15.74013,.00833,.37638-.28615,.68953-.64367,.68953h-4.47389c-.26359,0-.49811-.16937-.59436-.42777-.51708-1.38818-2.3351-5.75982-5.19089-7.18435-3.4122-1.70216-4.66935-.56739-6.10605,.23647-1.29757,.72568-4.27948,1.22044-6.56485,1.41361-.4431,.03745-.8416,.29494-1.06348,.70056l-2.69392,4.92493c-.1139,.20822-.32472,.33654-.55291,.33654H3.1407c-.45504,0-.76633-.48186-.59119-.92412,.81596-2.0604,2.70532-7.18259,3.12484-11.41597Z" style="fill:#6d9199;"/></g></g><rect width="40" height="40" style="fill:none;"/></svg>