<?xml version="1.0" encoding="UTF-8"?><svg id="Layer_1" xmlns="http://www.w3.org/2000/svg" viewBox="0 0 40 40"><g><path d="m8.953,4.403l-2.906-2.482c-.168-.144-.421-.124-.565.044L.955,7.265c-.144.168-.124.421.044.565l.385.329c.571.487,1.35.65,2.068.431l2.601-.792,2.9-3.395Z" fill="#ffcca8"/><path d="m31.105,4.403l2.906-2.482c.168-.144.421-.124.565.044l4.527,5.3c.144.168.124.421-.044.565l-.385.329c-.571.487-1.35.65-2.068.431l-2.601-.792-2.9-3.395Z" fill="#ffcca8"/><rect x="9.095" y="28.555" width="12.027" height="4.369" transform="translate(-16.872 43.001) rotate(-84.803)" fill="#ffcca8"/><rect x="7.552" y="1.73" width="4.915" height="13.237" transform="translate(-2.803 10.74) rotate(-50.403)" fill="#ffcca8"/><rect x="22.776" y="24.725" width="4.369" height="12.027" transform="translate(-2.682 2.388) rotate(-5.197)" fill="#ffcca8"/><rect x="23.442" y="5.89" width="13.237" height="4.915" transform="translate(1.576 21.074) rotate(-39.594)" fill="#ffcca8"/><path d="m29.491,12.005l-3.514-3.471-4.078,3.366c-.971.801-2.366.825-3.364.058l-4.448-3.418-3.508,3.465,2.758,2.513c.703.64,1.058,1.577.957,2.522l-.801,7.479s3.643,1.628,3.943,4.285h5.199c.3-2.657,3.943-4.285,3.943-4.285l-.801-7.479c-.101-.945.254-1.882.957-2.522l2.758-2.513Z" fill="#4c8bf7"/><circle cx="20.035" cy="26.986" r="4.543" fill="#333"/><ellipse cx="13.71" cy="36.852" rx="3.093" ry="2.141" transform="translate(-6.118 2.898) rotate(-9.876)" fill="#ffcca8"/><ellipse cx="26.36" cy="36.852" rx="2.141" ry="3.093" transform="translate(-14.467 56.5) rotate(-80.124)" fill="#ffcca8"/></g><rect width="40" height="40" fill="none"/></svg>