<svg id="Layer_1" data-name="Layer 1" xmlns="http://www.w3.org/2000/svg" viewBox="0 0 40 40"><defs><style>.cls-1{fill:#c4c4c4;}.cls-2{fill:#333;}.cls-3{fill:#ffcca8;}.cls-4{fill:#5c2f17;}.cls-5{fill:#4c6db5;}.cls-6{fill:#e6e6e6;}.cls-7{fill:#807057;}.cls-8{fill:none;}</style></defs><path class="cls-1" d="M26.114,29,22.3,27.55a9.727,9.727,0,0,0-6.911,0L11.575,29A8.087,8.087,0,0,0,6.4,35.2l-.353,1.7a.475.475,0,0,0,.465.571H31.292a.475.475,0,0,0,.461-.589l-.487-1.98a8.53,8.53,0,0,0-.835-2.221A8.433,8.433,0,0,0,26.114,29Z"/><path class="cls-2" d="M9.353,20.494l.943,3.787a1.574,1.574,0,0,0,1.527,1.194h14a1.574,1.574,0,0,0,1.554-1.328l.576-3.653Z"/><circle class="cls-3" cx="18.844" cy="17.948" r="8.289"/><ellipse class="cls-3" cx="11.28" cy="18.181" rx="3.318" ry="3.112"/><ellipse class="cls-3" cx="26.409" cy="18.181" rx="3.318" ry="3.112"/><path class="cls-2" d="M28.218,15.571A9.557,9.557,0,0,0,9.264,13.624a9.91,9.91,0,0,0-.146,2.037.1.1,0,0,0,.1.1c.212,0,.754.11,1.283,1.07a.236.236,0,0,0,.384.054l5.239-5.863s6.638,5.331,11.019,5.04a1.009,1.009,0,0,0,.317-.087C27.748,15.811,27.994,15.506,28.218,15.571Z"/><ellipse cx="16.516" cy="17.547" rx="0.882" ry="1.059"/><ellipse cx="21.173" cy="17.547" rx="0.882" ry="1.059"/><path class="cls-4" d="M19.942,21.72a.3.3,0,0,1,.286.382,1.435,1.435,0,0,1-2.767,0,.3.3,0,0,1,.286-.382Z"/><path class="cls-3" d="M16.867,24.965h3.975a0,0,0,0,1,0,0v3.773a1.988,1.988,0,0,1-1.988,1.988h0a1.988,1.988,0,0,1-1.988-1.988V24.965A0,0,0,0,1,16.867,24.965Z"/><path class="cls-5" d="M18.855,29.13a2.439,2.439,0,0,1-1.988-1.03v.638a1.988,1.988,0,1,0,3.975,0V28.1A2.438,2.438,0,0,1,18.855,29.13Z"/><circle class="cls-5" cx="15.835" cy="32.194" r="0.681"/><circle class="cls-5" cx="22.055" cy="32.194" r="0.681"/><circle class="cls-5" cx="15.835" cy="36.097" r="0.681"/><circle class="cls-5" cx="22.055" cy="36.097" r="0.681"/><path class="cls-6" d="M31.073,9.074a3.1,3.1,0,0,0-3.1-3.1c-.073,0-.141.017-.212.022a4.421,4.421,0,0,0-3.734-1.9,4.858,4.858,0,0,0-1.421.224,4.313,4.313,0,0,0-7.2.3,4.789,4.789,0,0,0-2.181-.528A4.422,4.422,0,0,0,9.505,5.988c-.036,0-.07-.011-.106-.011a3.088,3.088,0,0,0-.332,6.16v2.836a.068.068,0,0,0,.089.066,31.7,31.7,0,0,1,9.5-1.32,31.7,31.7,0,0,1,9.5,1.32.068.068,0,0,0,.089-.066V12.142A3.085,3.085,0,0,0,31.073,9.074Z"/><path class="cls-1" d="M9.067,14.973a.068.068,0,0,0,.089.066,31.7,31.7,0,0,1,9.505-1.32,31.7,31.7,0,0,1,9.5,1.32.068.068,0,0,0,.089-.066V12.161a31.529,31.529,0,0,0-9.593-1.349,31.536,31.536,0,0,0-9.594,1.349Z"/><path class="cls-7" d="M32.566,22.676c-1.353-.706-3.163-.12-4.245,1.956a5.257,5.257,0,0,0-.244,3.873,2.351,2.351,0,0,1-.227,1.821l-.269.46-3.9,6.686h2.429l2.775-6.007.283-.611a2.552,2.552,0,0,1,1.392-1.231A5.387,5.387,0,0,0,33.4,27.28C34.478,25.2,33.919,23.381,32.566,22.676Z"/><rect class="cls-8" width="40" height="40"/></svg>