<?xml version="1.0" encoding="UTF-8"?><svg id="Layer_1" xmlns="http://www.w3.org/2000/svg" viewBox="0 0 40 40"><g><path d="m29.656,16.014H10.678c-2.516,0-4.696,1.528-5.248,3.678l-1.928,7.503v8.492h33v-10.855l-1.653-5.339c-.636-2.054-2.763-3.48-5.193-3.48Z" fill="#ffc84d"/><path d="m36.501,11.319v13.513l-1.653-5.339c-.636-2.054-2.763-3.48-5.193-3.48H10.678c-2.516,0-4.696,1.528-5.248,3.678l-1.928,7.503V10.977s-.22-3.283,4.318-3.283c0,0,1.936-3.127,5.989-1.855,0,0,2.964-2.915,7.38-.689,0,0,3.448-1.484,5.626.636,0,0,3.388-1.06,4.779,2.279,0,0,4.605.223,4.908,3.191v.064Z" fill="#ff9000"/></g><rect width="40" height="40" fill="none"/></svg>