<?xml version="1.0" encoding="UTF-8"?><svg id="Layer_1" xmlns="http://www.w3.org/2000/svg" viewBox="0 0 40 40"><rect y="0" width="40" height="40" transform="translate(40 40) rotate(180)" fill="none"/><g><g><path d="m23.999,7.45L2.729,33.027c-.344.412-.294,1.032.11,1.384.293.255.699.305,1.037.163.129-.054.248-.136.348-.247L26.604,9.715l-2.606-2.265Z" fill="#3d3d3d"/><path d="m30.555,5.348c.204-.227.307-.519.289-.825-.019-.304-.155-.582-.386-.782l-1.078-.937c-.231-.201-.525-.298-.829-.273-.305.024-.579.166-.776.4l-3.777,4.519,2.606,2.265,3.951-4.367Z" fill="#ef4452"/></g><g><path d="m30.31,13.381L5.688,35.748c-.398.36-.435.981-.084,1.386.255.293.65.399,1.005.306.135-.036.265-.1.379-.196l25.587-21.258-2.265-2.606Z" fill="#3d3d3d"/><path d="m37.095,12.212c.234-.196.377-.471.401-.777.024-.304-.073-.598-.273-.828l-.937-1.078c-.201-.231-.479-.368-.783-.386-.305-.019-.597.084-.824.289l-4.369,3.949,2.265,2.606,4.52-3.775Z" fill="#ef4452"/></g></g></svg>