<?xml version="1.0" encoding="UTF-8"?><svg id="Layer_1" xmlns="http://www.w3.org/2000/svg" viewBox="0 0 40 40"><g><g><path d="M17.04313,34.9865l-1.75468,1.70039c-.26817,.25987-.4116,.56707-.4116,.88157v.26986c0,.36544,.44852,.66168,1.0018,.66168h1.06963c.7907,0,1.51307-.29601,1.86426-.76392l.28546-.38033c.07329-.09764,.11142-.20515,.11142-.31414v-2.34074h-2.16628v.28564Z" style="fill:#2e3d51;"/><path d="M23.11212,34.9865l1.75468,1.70039c.26817,.25987,.4116,.56707,.4116,.88157v.26986c0,.36544-.44852,.66168-1.0018,.66168h-1.06963c-.7907,0-1.51307-.29601-1.86426-.76392l-.28546-.38033c-.07329-.09764-.11142-.20515-.11142-.31414v-2.34074h2.16628v.28564Z" style="fill:#2e3d51;"/><path d="M15.02919,24.77841l1.38652-7.45989c.06533-.49114-.72651-.91754-1.21648-.98287-.49464-.07583-.94262,.27765-1.00679,.7688l-1.13628,8.49759c-.00554,.042,.00787,.0805,.00817,.12191-.00087,.0175-.01021,.03267-.01021,.05075,0,.03616,.01721,.0665,.02042,.1015,.007,.04083,.01108,.0805,.02392,.11899,.10762,.58272,.59468,1.03245,1.20861,1.03245,.69209,0,1.25294-.56114,1.25294-1.25294,0-.41706-.21728-.7688-.53081-.99629Z" style="fill:#ffb582;"/><path d="M24.97081,24.77841l-1.38652-7.45989c-.06533-.49114,.72651-.91754,1.21648-.98287,.49464-.07583,.94262,.27765,1.00679,.7688l1.13628,8.49759c.00554,.042-.00787,.0805-.00817,.12191,.00087,.0175,.01021,.03267,.01021,.05075,0,.03616-.01721,.0665-.02042,.1015-.007,.04083-.01108,.0805-.02392,.11899-.10762,.58272-.59468,1.03245-1.20861,1.03245-.69209,0-1.25294-.56114-1.25294-1.25294,0-.41706,.21728-.7688,.53081-.99629Z" style="fill:#ffb582;"/><polygon points="19.9963 11.964 17.69594 11.964 16.17305 20.90633 16.39268 35.24358 19.50763 35.24358 20.04989 25.13328 19.9963 11.964" style="fill:#30587f;"/><polygon points="20.04982 11.964 22.50858 11.964 23.87307 20.90633 23.65344 35.24358 20.53849 35.24358 19.99623 25.13328 20.04982 11.964" style="fill:#30587f;"/><path d="M13.44041,17.47613l2.81541,.76754-.30986,4.22085h8.16776l-.38319-4.2543,2.19917-1.06361-.38627-3.10623c-.15778-1.26879-1.03009-2.33424-2.24278-2.73935l-3.33545-1.11422-3.4978,1.18362c-1.09033,.36896-1.91176,1.27633-2.17076,2.39788l-.85625,3.70782Z" style="fill:#64a7ff;"/></g><path d="M19.11557,9.70472h1.67057v1.0158c0,.461-.37428,.83528-.83528,.83528h0c-.461,0-.83528-.37428-.83528-.83528v-1.0158h0Z" style="fill:#ffb582;"/><g><circle cx="19.95086" cy="6.63781" r="3.50575" style="fill:#ffb582;"/><g><ellipse cx="16.75142" cy="6.73624" rx="1.40343" ry="1.3163" style="fill:#ffb582;"/><ellipse cx="23.15029" cy="6.73624" rx="1.40343" ry="1.3163" style="fill:#ffb582;"/></g><path d="M23.91535,5.63256c.0354-2.40697-2.03535-4.3722-4.48769-4.10884-1.8861,.20255-3.39649,1.73549-3.57435,3.62407-.0181,.19216-.02272,.38188-.01471,.56832,0,0,.34264-.08163,.6475,.58015l2.31251-2.58763s2.80738,2.25463,4.66021,2.13161c.04081-.00271,.08791-.01687,.1344-.03676,.12351-.06958,.22727-.19854,.32214-.17092Z" style="fill:#ffdb87;"/><g><ellipse cx="18.96594" cy="6.46822" rx=".37308" ry=".44769"/><ellipse cx="20.93578" cy="6.46822" rx=".37308" ry=".44769"/></g><path d="M20.41495,8.23338c.08384,0,.14341,.08055,.12116,.16139-.07067,.25687-.30593,.44555-.58525,.44555s-.51458-.18869-.58525-.44555c-.02224-.08084,.03732-.16139,.12116-.16139h.92818Z" style="fill:#5c2f17;"/></g><path d="M19.99623,7.60171c-.54112,0-1.02247,.18598-1.33298,.4755-.16337,.15233-.0562,.42615,.16717,.42615l.92904-.12107c.15718-.02048,.31636-.02048,.47355,0l.92904,.12107c.22337,0,.33054-.27382,.16717-.42615-.31051-.28952-.79186-.4755-1.33298-.4755Z" style="fill:#ffdb87;"/></g><rect x="0" width="40" height="40" style="fill:none;"/></svg>