<?xml version="1.0" encoding="UTF-8"?><svg id="Layer_1" xmlns="http://www.w3.org/2000/svg" viewBox="0 0 40 40"><g><ellipse cx="20" cy="21.21102" rx="13.7315" ry="15.79104" transform="translate(-.70394 .68654) rotate(-1.9326)" style="fill:#ffc84d;"/><g><ellipse cx="8.56316" cy="21.95693" rx="5.49704" ry="5.15573" style="fill:#ffc84d;"/><ellipse cx="31.43684" cy="21.95693" rx="5.49704" ry="5.15573" style="fill:#ffc84d;"/></g><path d="M21.14556,32.23419c.45239,0,.80273,.22937,.69135,.46664-.22521,.47979-.82814,.81979-1.83691,.81979s-1.6117-.34-1.83691-.81979c-.11137-.23727,.23896-.46664,.69135-.46664h2.29111Z" style="fill:#5c2f17;"/><path d="M22.94494,12.36266c-.18346-.12622-.41803,.00049-.35112,.21288l.80864,2.56667c.13043,.41398-.23234,.81457-.65708,.72523-2.09259-.44015-7.07141-1.60104-8.85428-3.01519-.30757-.24396-.76269-.13142-.94005,.21881-.92947,1.83536-3.362,6.25268-6.0429,7.98852-.47548,.30787-1.09239,.28111-1.5233-.08655l-1.66227-1.46105s-.89631-11.02911,7.08353-13.00046c0,0,4.30163-4.71441,11.59571-3.21819,7.29408,1.49622,11.22165,7.23173,11.90742,10.53589,.68577,3.30415,.53923,4.1444,.53923,4.1444l-1.66554,2.85399c-.19616,.33614-.65733,.1064-.79039-.11947l-9.4476-8.34549Z" style="fill:#ff9000;"/><ellipse cx="15.3746" cy="23.36545" rx="1.46128" ry="1.75354"/><ellipse cx="24.6254" cy="23.36545" rx="1.46128" ry="1.75354"/><path d="M15.10986,33.43848c-.02197,0-.04443-.00195-.06689-.00684-.16699-.03711-.27295-.20215-.23584-.36914,.60254-2.74707,2.36719-3.09863,2.44189-3.1123,.16895-.02539,.32959,.08105,.36035,.24902,.03027,.16797-.07959,.32812-.24658,.35938-.06055,.0127-1.44189,.31738-1.95117,2.63672-.03174,.14453-.15967,.24316-.30176,.24316Z" style="fill:#ffb200;"/><path d="M14.57422,28.04492c-2.51416,0-4.55957-2.04492-4.55957-4.55859s2.04541-4.55957,4.55957-4.55957c2.51367,0,4.55908,2.0459,4.55908,4.55957s-2.04541,4.55859-4.55908,4.55859Zm0-8.3916c-2.11377,0-3.83301,1.71973-3.83301,3.83301s1.71924,3.83203,3.83301,3.83203c2.11327,0,3.83252-1.71875,3.83252-3.83203s-1.71925-3.83301-3.83252-3.83301Z" style="fill:#fff;"/><path d="M25.42578,28.04492c-2.51367,0-4.55908-2.04492-4.55908-4.55859s2.04541-4.55957,4.55908-4.55957c2.51416,0,4.55957,2.0459,4.55957,4.55957s-2.04541,4.55859-4.55957,4.55859Zm0-8.3916c-2.11329,0-3.83252,1.71973-3.83252,3.83301s1.71923,3.83203,3.83252,3.83203c2.11377,0,3.83301-1.71875,3.83301-3.83203s-1.71924-3.83301-3.83301-3.83301Z" style="fill:#fff;"/><path d="M18.99219,23.77344l-.4458-.57324c.50928-.39844,1.77344-.90918,2.91064,.00293l-.4541,.56641c-.96729-.77637-1.96875-.02832-2.01074,.00391Z" style="fill:#fff;"/></g><rect width="40" height="40" style="fill:none;"/></svg>