<?xml version="1.0" encoding="UTF-8"?><svg id="Layer_1" xmlns="http://www.w3.org/2000/svg" viewBox="0 0 40 40"><g><path d="M36.92139,30.89624c.45923-1.15601,.7193-2.41284,.7193-3.73242V10.53564c0-4.11084-3.16766-7.69556-7.27661-7.81885-4.25165-.12769-7.7384,3.28101-7.7384,7.50391,0,4.29895-1.44897,6.24878-1.44897,6.24878l.52246,.06226c2.46863,.29419,4.08167,2.73535,3.38416,5.12146l-3.01758,10.32324c-.51019,1.74524-2.22577,2.84985-4.02563,2.59216-1.89594-.27148-3.26062-1.96094-3.12744-3.87158l.4975-7.13745,5.76654-7.09009-9.78125,12.02612-2.95905,3.63818c-1.67926,2.0647-.21002,5.15356,2.45135,5.15356H27.51715c.37341,0,.74109-.02344,1.104-.06274,3.78876-.41138,6.94348-2.91357,8.30023-6.32837Zm-4.31042-23.79517c.57837,0,1.04724,.46887,1.04724,1.04724s-.46887,1.04724-1.04724,1.04724-1.04724-.46887-1.04724-1.04724,.46887-1.04724,1.04724-1.04724Zm-5.00409,0c.57837,0,1.04724,.46887,1.04724,1.04724s-.46887,1.04724-1.04724,1.04724-1.04724-.46887-1.04724-1.04724,.46887-1.04724,1.04724-1.04724Zm-.09039,7.75684s-3.43579-1.17822-3.43579-2.63159c0-1.45349,1.53833-2.63159,3.43579-2.63159h5.14819c1.8974,0,3.43573,1.1781,3.43573,2.63159,0,1.45337-3.43573,2.63159-3.43573,2.63159l-2.57416-3.39722-2.57404,3.39722Z" style="fill:#8a94a0;"/><g><path d="M8.4364,32.13379l2.95905-3.63818-.46075-1.66846c-.24805-.89832-1.3147-1.27539-2.0722-.73242l-5.87128,4.20825c-1.12482,.80615-1.1861,2.45715-.12408,3.34448l1.89703,1.58496c1.58893,1.32764,3.59369,2.05493,5.66425,2.05493h.45935c-2.66138,0-4.13062-3.08887-2.45135-5.15356Z" style="fill:#595959;"/><path d="M37.84222,34.89001l-.9079-4.00378-.01294,.01001c-1.35675,3.41479-4.51147,5.91699-8.30023,6.32837l-.08234,.06274h7.38885c1.2594,0,2.19312-1.16907,1.91455-2.39734Z" style="fill:#595959;"/><path d="M14.91266,30.69702c-.13318,1.91064,1.23151,3.6001,3.12744,3.87158,1.79987,.25769,3.51544-.84692,4.02563-2.59216l3.01758-10.32324c.69751-2.38611-.91553-4.82727-3.38416-5.12146l-.52246-.06226-5.76654,7.09009-.4975,7.13745Z" style="fill:#595959;"/><path d="M32.66467,14.85791s3.43573-1.17822,3.43573-2.63159c0-1.45349-1.53833-2.63159-3.43573-2.63159h-1.52692c0,.57837-.46887,1.04724-1.04724,1.04724s-1.04724-.46887-1.04724-1.04724h-1.52679c-1.89746,0-3.43579,1.1781-3.43579,2.63159,0,1.45337,3.43579,2.63159,3.43579,2.63159l2.57404-3.39722,2.57416,3.39722Z" style="fill:#595959;"/></g><g><circle cx="32.61096" cy="8.14832" r="1.04724"/><circle cx="27.60687" cy="8.14832" r="1.04724"/><path d="M30.09052,10.64197c.57837,0,1.04724-.46887,1.04724-1.04724h-2.09448c0,.57837,.46887,1.04724,1.04724,1.04724Z"/></g></g><rect width="40" height="40" style="fill:none;"/></svg>