<?xml version="1.0" encoding="UTF-8"?><svg id="Layer_1" xmlns="http://www.w3.org/2000/svg" viewBox="0 0 40 40"><path d="m9.01,5.658h7.137c1.273,0,2.306,1.032,2.306,2.306v10.594c0,1.685.754,3.281,2.056,4.351l6.242,4.954c2.42,1.989,3.025,5.555,1.189,8.093-2.009,2.777-5.899,3.242-8.497,1.106l-9.812-7.889c-1.847-1.518-2.917-3.783-2.918-6.173l-.007-15.036c0-1.273,1.032-2.305,2.306-2.305Z" fill="#466cfb"/><g><path d="m13.744,2.602h7.137c1.273,0,2.306,1.032,2.306,2.306v10.594c0,1.685.754,3.281,2.056,4.351l6.242,4.954c2.42,1.989,3.025,5.555,1.189,8.093-2.009,2.777-5.899,3.242-8.497,1.106l-9.812-7.889c-1.847-1.518-2.917-3.783-2.918-6.173l-.007-15.036c0-1.273,1.032-2.305,2.306-2.305Z" fill="#7d9dff"/><path d="m11.442,19.944v-2.477c.283-.04.57-.068.865-.068,3.427,0,6.206,2.778,6.206,6.206,0,1.726-.706,3.286-1.843,4.411l-2.31-1.899c-1.847-1.518-2.917-3.783-2.918-6.173Z" fill="#a8bfff"/><path d="m31.481,24.806c2.42,1.989,3.025,5.555,1.189,8.093-2.009,2.777-5.899,3.242-8.497,1.106l-1.011-.831,7.459-9.075.861.708Z" fill="#a8bfff"/></g><rect width="40" height="40" fill="none"/></svg>