<svg id="Layer_1" data-name="Layer 1" xmlns="http://www.w3.org/2000/svg" viewBox="0 0 40 40"><defs><style>.cls-1{fill:#a84d4d;}.cls-2{fill:#d1736e;}.cls-3{fill:#4d2819;}.cls-4{fill:none;}</style></defs><path class="cls-1" d="M8.065,31.235a1,1,0,0,1-.707-1.707L18.617,18.269a1,1,0,0,1,1.414,1.414L8.772,30.942A1,1,0,0,1,8.065,31.235Z"/><path class="cls-1" d="M1.7,21.38a1,1,0,0,1,1.4-1.424c5.177,5.036,10.083.246,10.289.04l5.9-5.9A1,1,0,1,1,20.7,15.514l-5.9,5.9c-2.23,2.23-7.837,5.1-13.1-.02Z"/><path class="cls-1" d="M18.612,38.445l-.009-.01c-6.47-6.648-.156-13.114-.091-13.178l5.9-5.9a1.006,1.006,0,0,1,1.423,1.423l-5.9,5.9c-.2.206-4.963,5.14.111,10.353a1.006,1.006,0,0,1-1.433,1.413Z"/><path class="cls-1" d="M9.754,32.924a1,1,0,0,1-.707-1.707l11.26-11.26a1,1,0,0,1,1.414,1.414l-11.26,11.26A1,1,0,0,1,9.754,32.924Z"/><path class="cls-1" d="M24.082,1.261H37.024A1.572,1.572,0,0,1,38.6,2.833V17.347a0,0,0,0,1,0,0H24.082a1.572,1.572,0,0,1-1.572-1.572V2.833A1.572,1.572,0,0,1,24.082,1.261Z" transform="translate(39.856 -21.249) rotate(90)"/><path class="cls-2" d="M24.8,25.45C31.61,18.643,34.8,10.8,31.93,7.926s-10.716.32-17.524,7.128Z"/><circle class="cls-3" cx="18.414" cy="19.066" r="1.562"/><circle class="cls-3" cx="20.907" cy="21.559" r="1.562"/><rect class="cls-4" width="40" height="40"/></svg>