<?xml version="1.0" encoding="UTF-8"?><svg id="Layer_1" xmlns="http://www.w3.org/2000/svg" viewBox="0 0 40 40"><g><path d="m10.901,10.884h0c-1.447,0-2.697,1.003-3.011,2.416-1.048,4.724-3.021,14.974-3.059,18.189,0,.038,0,.077,0,.114.007,4.092,5.787,5.021,7.199,1.181l2.202-5.991s-.159-8.275-.248-12.889c-.032-1.68-1.403-3.02-3.083-3.02Z" fill="#8595aa"/><path d="m25.214,37.054c2.951,0,9.956-2.411,9.956-7.462,0-5.388-4.066-8.298-10.869-8.298-5.401,0-13.721,5.01-15.853,7.847-1.486,1.978-1.408,4.827.387,6.529.872.827,2.052,1.348,3.394,1.352,6.179.016,11.011.032,12.985.032Z" fill="#65778e"/><path d="m23.17,11.51c.344-.861-.407-1.573-.407-1.573l-5.295,3.478c1.025-.188,3.017-.553,3.487-.626.64-.101,1.871-.418,2.215-1.279Z" fill="#65778e"/><path d="m15.676,13.415h1.792l5.295-3.478c2.207-.952,1.39-2.181,1.39-2.181,0,0-2.023-3.163-2.681-4.055-.107-.145-.214-.267-.318-.37-.421-.414-1.061-.502-1.586-.231,0,0-6.341,3.336-8.398,4.449-.013.007-.027.014-.04.022-1.555.847-1.678,3.04-.261,4.102l2.063,1.546c.606.454,1.39.54,2.111.308.217-.07.423-.112.633-.112Z" fill="#8595aa"/><circle cx="12.142" cy="32.383" r="2.261" fill="#d0d6de"/><circle cx="11.792" cy="12.198" r="1.444" fill="#d0d6de"/></g><rect width="40" height="40" fill="none"/></svg>