<svg id="Layer_1" data-name="Layer 1" xmlns="http://www.w3.org/2000/svg" viewBox="0 0 40 40"><defs><style>.cls-1{fill:none;}.cls-2{fill:#ffcca8;}.cls-3{fill:#333;}</style></defs><rect class="cls-1" width="40" height="40"/><circle class="cls-2" cx="20" cy="22.364" r="13.427"/><ellipse class="cls-2" cx="7.747" cy="22.741" rx="5.375" ry="5.041"/><ellipse class="cls-2" cx="32.253" cy="22.741" rx="5.375" ry="5.041"/><path class="cls-3" d="M35.183,18.514A15.477,15.477,0,0,0,4.307,16.658a15.906,15.906,0,0,0-.056,2.176s1.312-.312,2.479,2.222l8.857-9.91s10.752,8.635,17.848,8.164a1.677,1.677,0,0,0,.515-.141C34.423,18.9,34.82,18.408,35.183,18.514Z"/><ellipse cx="16.228" cy="21.715" rx="1.429" ry="1.715"/><ellipse cx="23.772" cy="21.715" rx="1.429" ry="1.715"/><path class="cls-3" d="M32.33,23.19a11.151,11.151,0,0,1-3.357,6.259,1.546,1.546,0,0,1-1.931.086,12.046,12.046,0,0,0-7.157-2.526,10.276,10.276,0,0,0-6.57,2.406,1.938,1.938,0,0,1-2.28.046A11.093,11.093,0,0,1,7.663,23.19,10.906,10.906,0,0,1,8.3,17.825l-1.722,0a8.7,8.7,0,0,0-.221,2.85,30.992,30.992,0,0,0,.6,5.867c.013.04.03.079.043.118.145.418.307.826.481,1.226,2.3,5.288,7.049,8.923,12.54,8.923,5.961,0,11.053-4.278,13.08-10.311l-.033.024c.019-.056.043-.109.06-.164a30.807,30.807,0,0,0,.527-5.692,9.417,9.417,0,0,0-.219-2.962l-1.043.125A18.279,18.279,0,0,1,32.33,23.19Z"/><path class="cls-2" d="M21.777,29.945a.485.485,0,0,1,.464.618,2.325,2.325,0,0,1-4.482,0,.485.485,0,0,1,.464-.618Z"/></svg>