<svg id="Layer_1" data-name="Layer 1" xmlns="http://www.w3.org/2000/svg" viewBox="0 0 40 40"><defs><style>.cls-1{fill:#d9d9d9;}.cls-2{fill:#333;}.cls-3{fill:#956759;}.cls-4{fill:#5c2f17;}.cls-5{fill:#242424;}.cls-6{fill:#fb0;}.cls-7{fill:#261e18;}.cls-8{fill:#f5f5f5;}.cls-9{fill:none;}</style></defs><path class="cls-1" d="M27.517,28.737l-3.943-1.5a10.071,10.071,0,0,0-7.148,0l-3.943,1.5a8.718,8.718,0,0,0-4.465,3.81,8.812,8.812,0,0,0-.863,2.3l-.5,2.048a.491.491,0,0,0,.477.609H32.872a.491.491,0,0,0,.477-.609l-.5-2.048a8.812,8.812,0,0,0-.863-2.3A8.718,8.718,0,0,0,27.517,28.737Z"/><path class="cls-2" d="M10.185,19.943l.975,3.917a1.628,1.628,0,0,0,1.579,1.234H27.22a1.626,1.626,0,0,0,1.607-1.374l.6-3.777Z"/><circle class="cls-3" cx="20" cy="17.31" r="8.571"/><ellipse class="cls-3" cx="12.178" cy="17.551" rx="3.431" ry="3.218"/><ellipse class="cls-3" cx="27.822" cy="17.551" rx="3.431" ry="3.218"/><path class="cls-2" d="M29.693,14.852a9.883,9.883,0,0,0-19.6-2.013,10.31,10.31,0,0,0-.151,2.107.1.1,0,0,0,.1.1c.219,0,.779.114,1.326,1.107a.245.245,0,0,0,.4.055l5.418-6.063s6.864,5.513,11.394,5.212a1.018,1.018,0,0,0,.328-.09C29.207,15.1,29.461,14.785,29.693,14.852Z"/><ellipse cx="17.592" cy="16.896" rx="0.912" ry="1.095"/><ellipse cx="22.408" cy="16.896" rx="0.912" ry="1.095"/><path class="cls-4" d="M21.135,21.211a.31.31,0,0,1,.3.4,1.485,1.485,0,0,1-2.862,0,.31.31,0,0,1,.3-.4Z"/><path class="cls-3" d="M17.955,24.567h4.111a0,0,0,0,1,0,0v3.9a2.055,2.055,0,0,1-2.055,2.055h0a2.055,2.055,0,0,1-2.055-2.055v-3.9A0,0,0,0,1,17.955,24.567Z"/><path class="cls-5" d="M20.011,15.375c5.4,0,9.951-2.654,11.381-6.284a2.6,2.6,0,0,0-.631-2.814C28.407,4,24.475,2.5,20.011,2.5S11.614,4,9.26,6.277a2.6,2.6,0,0,0-.631,2.814C10.059,12.721,14.612,15.375,20.011,15.375Z"/><path class="cls-6" d="M20.011,10.09a21.1,21.1,0,0,1,9.3,1.945V10.479a.708.708,0,0,0-.4-.647,21.562,21.562,0,0,0-8.894-1.75,21.525,21.525,0,0,0-8.917,1.761.708.708,0,0,0-.4.647v1.557A21.062,21.062,0,0,1,20.011,10.09Z"/><circle class="cls-6" cx="19.869" cy="5.874" r="0.995"/><path class="cls-6" d="M16.46,4.285h1.516a.272.272,0,0,1,.149.045l1.139.759-.384.785a2.4,2.4,0,0,1-2.654-1.185A.27.27,0,0,1,16.46,4.285Z"/><path class="cls-6" d="M23.277,4.285H21.761a.272.272,0,0,0-.149.045l-1.138.759.383.785a2.4,2.4,0,0,0,2.654-1.185A.27.27,0,0,0,23.277,4.285Z"/><polygon class="cls-7" points="19.936 32.964 17.433 30.432 22.545 30.432 19.936 32.964"/><polygon class="cls-7" points="18.336 37.5 19.95 31.539 21.574 37.5 18.336 37.5"/><path class="cls-8" d="M22.066,26.8l-2.059,2.484L17.955,26.8a9.587,9.587,0,0,0-1.947.6l1.6,4.541a.293.293,0,0,0,.435.149l1.968-1.277,1.96,1.27a.293.293,0,0,0,.438-.158l1.434-4.583A9.262,9.262,0,0,0,22.066,26.8Z"/><path class="cls-2" d="M16.426,27.239l-3.943,1.5a8.718,8.718,0,0,0-4.465,3.81,8.812,8.812,0,0,0-.863,2.3l-.5,2.048a.491.491,0,0,0,.477.609H18.341L16.835,27.105C16.7,27.15,16.561,27.188,16.426,27.239Z"/><path class="cls-2" d="M23.574,27.239l3.943,1.5a8.718,8.718,0,0,1,4.465,3.81,8.812,8.812,0,0,1,.863,2.3l.5,2.048a.491.491,0,0,1-.477.609H21.659l1.506-10.395C23.3,27.15,23.439,27.188,23.574,27.239Z"/><circle class="cls-6" cx="26.44" cy="34.193" r="0.601"/><path class="cls-6" d="M24.382,33.233H25.3a.16.16,0,0,1,.09.028l.688.458-.232.474a1.448,1.448,0,0,1-1.6-.716A.163.163,0,0,1,24.382,33.233Z"/><path class="cls-6" d="M28.5,33.233h-.915a.162.162,0,0,0-.09.028l-.688.458.232.474a1.448,1.448,0,0,0,1.6-.716A.163.163,0,0,0,28.5,33.233Z"/><rect class="cls-9" width="40" height="40"/></svg>