<?xml version="1.0" encoding="UTF-8"?><svg id="Layer_1" xmlns="http://www.w3.org/2000/svg" viewBox="0 0 40 40"><g><circle cx="28.57438" cy="20.85088" r="3.4687" style="fill:#333d4b;"/><path d="M8.10672,15.82841h0c1.89406,0,3.4318,1.53774,3.4318,3.4318v6.92258c0,3.78813-3.07548,6.8636-6.8636,6.8636h0v-13.78618c0-1.89406,1.53774-3.4318,3.4318-3.4318Z" transform="translate(-.47525 48.71199) rotate(-142.17712)" style="fill:#333d4b;"/><ellipse cx="13.72245" cy="14.65526" rx="1.83191" ry="10.60455" transform="translate(-3.62113 24.76874) rotate(-77.13027)" style="fill:#6b7683;"/><ellipse cx="17.16455" cy="10.96257" rx="1.83191" ry="10.60455" transform="translate(-2.54756 16.0843) rotate(-47.13027)" style="fill:#6b7683;"/><circle cx="29.06843" cy="20.86056" r=".89544" style="fill:#f1f3f5;"/><path d="M38.09837,31.84997c.09943,0,.19886-.03663,.27736-.11094,.16013-.15281,.16641-.40714,.01361-.56832l-7.93766-8.33747c-.15281-.16013-.40609-.16746-.56832-.01361-.16013,.15281-.16641,.40714-.01361,.56832l7.93766,8.33747c.0785,.08268,.18525,.12455,.29096,.12455Z" style="fill:#333d4b;"/><rect x="14.2066" y="16.0619" width="11.39913" height="6.29528" rx="3.14764" ry="3.14764" transform="translate(39.81234 38.41909) rotate(-180)" style="fill:#333d4b;"/><path d="M18.05225,36.46191c-.02051,0-.04102,0-.06152-.00195-.46826-.0332-.8208-.44043-.78711-.9082l.98975-13.85645c.0332-.46777,.44043-.84082,.9082-.78711,.46826,.0332,.8208,.44043,.78711,.9082l-.98975,13.85645c-.03174,.44727-.40479,.78906-.84668,.78906Z" style="fill:#333d4b;"/><path d="M31.28662,34.125c-.27783,.00098-.5498-.13574-.71289-.38574l-2.34131-3.58984-4.61914,1.70117-3.16211-9.83496c-.14404-.44629,.10205-.9248,.54883-1.06934,.4458-.14258,.92578,.10156,1.06934,.5498l2.62012,8.14746,4.22656-1.55664,3.08154,4.72461c.25635,.39258,.14551,.91895-.24756,1.17578-.14307,.09375-.3042,.1377-.46338,.1377Z" style="fill:#333d4b;"/></g><rect y="0" width="40" height="40" style="fill:none;"/></svg>