<?xml version="1.0" encoding="UTF-8"?><svg id="Layer_1" xmlns="http://www.w3.org/2000/svg" viewBox="0 0 40 40"><rect y="0" width="40" height="40" style="fill:none;"/><g><path d="M18.41807,38.5h3.96062c.91709,0,1.72961-.59123,2.01175-1.46384l4.24223-13.12067h-3.3286l-3.19207,4.34819c-.24317,.33124-.75473,.27049-.91357-.10848l-1.66578-3.9744-7.02356,.3784,3.89085,12.45687c.27574,.88281,1.09327,1.48393,2.01814,1.48393Z" style="fill:#69cc29;"/><path d="M37.42302,18.59719c-.63157-2.69491-2.80757-4.624-5.37188-5.07316,.84461-1.43377,1.16466-3.17919,.75515-4.92712-.84461-3.60325-4.45037-5.83998-8.05374-4.99537-.31315,.07327-.61175,.17464-.9032,.28756-1.57441-1.86636-4.11112-2.80682-6.65146-2.21113-2.51249,.58866-4.35627,2.52077-4.95886,4.85736-1.46501-.13951-2.92538,.18669-4.1539,1.05137-2.46331,1.73337-3.23439,5.06362-2.11929,8.11434-1.52486,.57511-2.7589,1.71079-3.29211,3.27454-1.01021,2.9629,.84975,6.27859,4.15428,7.40523,1.68106,.57311,3.40628,.4627,4.83152-.16962,.86418,.48679,1.85984,.76732,2.92225,.76732,1.32889,0,2.55214-.43962,3.54403-1.17382,1.10807,.35079,2.31526,.4346,3.52998,.15005,.23587-.0552,.46496-.12396,.68853-.20174,1.12564,.73872,2.59103,1.04334,4.08377,.69355,.44075-.10338,.84385-.271,1.22726-.46471,1.40391,.77786,3.08635,1.06391,4.77205,.66896,3.6035-.84461,5.83998-4.45037,4.99562-8.05362Z" style="fill:#036d50;"/></g></svg>