<?xml version="1.0" encoding="UTF-8"?><svg id="Layer_1" xmlns="http://www.w3.org/2000/svg" viewBox="0 0 40 40"><rect x="0" width="40" height="40" fill="none"/><g><path d="m24.3,20.6c-1.86-2.48-4.82-4.1-8.15-4.1-2.43,0-4.66.86-6.41,2.28-2.31,1.87-3.78,4.72-3.78,7.91,0,5.62,4.57,10.19,10.19,10.19s10.19-4.57,10.19-10.19c0-2.29-.77-4.39-2.04-6.09Zm-8.9,14.34c-4.22-.38-7.54-3.93-7.54-8.25,0-1.5.41-2.91,1.11-4.12l5.06,3.55c-.05.18-.08.37-.08.57,0,.95.6,1.75,1.45,2.06v6.19Zm-.51-10.05l-5.05-3.55c1.52-1.79,3.78-2.93,6.31-2.93s4.79,1.14,6.31,2.93l-5.06,3.55c-.35-.25-.78-.4-1.25-.4s-.9.15-1.26.4Zm2.01,10.05v-6.19c.84-.31,1.44-1.11,1.44-2.06,0-.2-.03-.39-.08-.57l5.06-3.55c.7,1.21,1.11,2.62,1.11,4.12,0,4.32-3.32,7.87-7.53,8.25Z" fill="#4e5968"/><path d="m36.66,33.44c0,.52-.42.93-.94.93h-5.4c-.98,0-1.78-.8-1.78-1.78v-11.24c0-.43-.35-.77-.77-.77l-3.47.02c-1.86-2.48-4.82-4.1-8.15-4.1-2.43,0-4.66.86-6.41,2.28l-2.8-12.78c-.13-.59.24-1.17.83-1.3l2.76-.6c.76-.17,1.5.32,1.66,1.07l2.11,10.06c.09.43.47.73.9.73h10.5v-2.22c.15.06.32.1.5.1.17,0,.34-.04.49-.1v2.22h.39c1.79,0,3.24,1.45,3.24,3.25v12.81c0,.27.22.48.49.48h4.91c.52,0,.94.42.94.94Z" fill="#8a94a0"/><path d="m26.691,13.741c.514-.199.88-.695.88-1.279,0-.76-.616-1.375-1.375-1.375s-1.375.616-1.375,1.375c0,.584.366,1.08.88,1.279.154.06.32.096.495.096s.341-.036.495-.096Z" fill="#e32939"/></g></svg>