<?xml version="1.0" encoding="UTF-8"?><svg id="Layer_1" xmlns="http://www.w3.org/2000/svg" viewBox="0 0 40 40"><g><circle cx="20" cy="20" r="17.5" fill="#ffc84d"/><circle cx="15.491" cy="16.877" r="2.166"/><ellipse cx="24.509" cy="16.522" rx="2.129" ry="2.521"/><path d="m15.09,12.618c1.16.101,1.807.426,2.355.727.316.173.591-.06.456-.421-.29-.78-1.16-1.667-2.68-1.8-1.52-.133-2.531.589-2.952,1.307-.195.332.035.609.376.493.592-.2,1.285-.408,2.445-.307Z"/><path d="m25.043,9.618c-1.16.101-1.807.426-2.355.727-.316.173-.591-.06-.456-.421.29-.78,1.16-1.667,2.68-1.8,1.52-.133,2.531.589,2.952,1.307.195.332-.035.609-.376.493-.592-.2-1.285-.408-2.445-.307Z"/><path d="m25.697,25.138h-11.395c-.553,0-1-.448-1-1s.447-1,1-1h11.395c.553,0,1,.448,1,1s-.447,1-1,1Z" fill="#ff6d00"/></g><rect width="40" height="40" transform="translate(40 40) rotate(-180)" fill="none"/></svg>