<svg id="Layer_1" data-name="Layer 1" xmlns="http://www.w3.org/2000/svg" viewBox="0 0 40 40"><defs><style>.cls-1{fill:none;}.cls-2{fill:#8a94a0;}.cls-3{fill:#afb7c0;}.cls-4{fill:#d0d5da;fill-rule:evenodd;}</style></defs><rect class="cls-1" width="40" height="40"/><path class="cls-2" d="M24.517,14.69a3.6,3.6,0,0,1,1.809-2.153l.73-.37L37.932,6.475a1.211,1.211,0,0,0,.48-1.664l-.452-.782a1.21,1.21,0,0,0-1.681-.416L25.912,10.185l-.685.448a3.6,3.6,0,0,1-2.77.49,8.069,8.069,0,0,0-5.912.676c-3.1,1.819-3.851,4.637-2.665,6.655,1.154,2.035,3.972,2.79,7.1,1.019A8.07,8.07,0,0,0,24.517,14.69Z"/><path class="cls-3" d="M15.293,31.549H24.7a0,0,0,0,1,0,0v3.343a1.676,1.676,0,0,1-1.676,1.676H16.969a1.676,1.676,0,0,1-1.676-1.676V31.549A0,0,0,0,1,15.293,31.549Z"/><path class="cls-4" d="M36.758,15.551a1.662,1.662,0,0,1,1.661,1.807,18.509,18.509,0,0,1-36.841,0,1.662,1.662,0,0,1,1.661-1.807Z"/></svg>