<svg id="Layer_1" data-name="Layer 1" xmlns="http://www.w3.org/2000/svg" viewBox="0 0 40 40"><defs><style>.cls-1{fill:none;opacity:0.1;}.cls-2{fill:#6e4944;}.cls-3{fill:#2e2423;}</style></defs><rect class="cls-1" width="40" height="40"/><path class="cls-2" d="M9.615,32.046a9.615,9.615,0,0,0,9.616-9.615H0A9.615,9.615,0,0,0,9.615,32.046Z"/><path class="cls-2" d="M19.231,12.109a1.9,1.9,0,1,0-3.805,0h0v5.065h-.489V9.15a1.9,1.9,0,1,0-3.8,0v8.024h-.488V7.9a1.9,1.9,0,1,0-3.8,0v9.275H6.35v-7.4h0a1.9,1.9,0,1,0-3.8,0V21.941h.414v.49H19.231v-.49h0V12.109Z"/><polygon class="cls-3" points="5.168 18.774 5.168 23.569 0.748 21.683 0.748 18.774 5.168 18.774"/><circle class="cls-3" cx="2.958" cy="18.774" r="2.21"/><path class="cls-3" d="M1.8,19.966a7.2,7.2,0,0,1,7.2,7.2H6.682L1.8,22.681Z"/><path class="cls-2" d="M4.42,22.094v-3.32a2.21,2.21,0,0,0-4.42,0v3.657l2.545,1.086v1.037l4.885,4.49H9.749A7.2,7.2,0,0,0,4.42,22.094Z"/><path class="cls-2" d="M37.041,22.431v-.49h.414V9.777a1.9,1.9,0,1,0-3.8,0h0v7.4h-.489V7.9a1.9,1.9,0,1,0-3.8,0v9.275h-.488V9.15a1.9,1.9,0,1,0-3.8,0v8.024h-.489V12.109h0a1.9,1.9,0,1,0-3.805,0h0v9.832h0v.49a9.616,9.616,0,0,0,19.231,0Z"/><polygon class="cls-3" points="34.832 18.774 34.832 23.569 39.252 21.683 39.252 18.774 34.832 18.774"/><circle class="cls-3" cx="37.042" cy="18.774" r="2.21"/><path class="cls-3" d="M38.2,19.966a7.2,7.2,0,0,0-7.2,7.2h2.319l4.885-4.49Z"/><path class="cls-2" d="M40,18.774a2.21,2.21,0,1,0-4.42,0v3.32a7.2,7.2,0,0,0-5.329,6.95H32.57l4.885-4.49V23.517L40,22.431Z"/></svg>