<?xml version="1.0" encoding="UTF-8"?><svg id="Layer_1" xmlns="http://www.w3.org/2000/svg" viewBox="0 0 40 40"><g><path d="m29.408,11.244c-.122-2.741-2.116-4.94-4.688-5.462-.876-2.295-3.122-3.891-5.711-3.775-2.675.119-4.825,2.024-5.414,4.505-2.118.959-3.552,3.127-3.442,5.591.053,1.186.46,2.27,1.108,3.166-.372.816-.583,1.717-.541,2.674.084,1.875,1.055,3.485,2.474,4.495-.088.677-.124,1.376-.092,2.093.231,5.186,3.659,9.246,7.657,9.068,3.997-.178,7.05-4.527,6.819-9.714-.029-.639-.107-1.261-.227-1.86,1.482-1.124,2.409-2.929,2.319-4.928-.048-1.072-.401-2.049-.942-2.89.464-.886.729-1.891.681-2.963Z" fill="#036d50"/><path d="m23.787,11.906c-.643-2.667-3.02-4.445-5.645-4.467-1.298-2.086-3.808-3.223-6.327-2.616-2.603.628-4.35,2.908-4.455,5.456-1.896,1.346-2.89,3.747-2.312,6.145.278,1.154.885,2.141,1.692,2.896-.209.872-.245,1.796-.02,2.728.44,1.825,1.701,3.22,3.287,3.94.043.681.141,1.374.309,2.072,1.217,5.047,5.357,8.378,9.247,7.44,3.89-.938,6.057-5.79,4.84-10.837-.15-.622-.345-1.217-.578-1.782,1.24-1.386,1.805-3.335,1.336-5.28-.251-1.043-.785-1.934-1.477-2.657.287-.959.355-1.995.103-3.038Z" fill="#03905a"/><path d="m34.992,16.164c.56-2.686-.828-5.31-3.191-6.453-.28-2.441-2.062-4.542-4.599-5.071-2.621-.546-5.176.767-6.361,3.025-2.29.405-4.215,2.15-4.719,4.566-.242,1.162-.116,2.314.29,3.341-.562.698-.99,1.519-1.185,2.457-.383,1.837.16,3.638,1.285,4.968-.252.634-.461,1.302-.607,2.005-1.059,5.082,1.257,9.864,5.175,10.681,3.917.816,7.951-2.642,9.011-7.724.131-.626.209-1.248.24-1.858,1.714-.722,3.059-2.242,3.467-4.201.219-1.05.118-2.084-.198-3.033.669-.744,1.174-1.652,1.393-2.702Z" fill="#23b169"/><path d="m30.089,27.959c.131-.626.209-1.248.24-1.858,1.714-.722,3.059-2.242,3.467-4.201.219-1.05.118-2.084-.198-3.033.669-.744,1.174-1.652,1.393-2.702.56-2.686-.828-5.31-3.191-6.453-.28-2.441-2.062-4.542-4.599-5.071-.028-.006-.056-.005-.085-.01l-6.002,31.058c3.906.788,7.918-2.663,8.974-7.729Z" fill="#0a9f60"/><path d="m23.792,35.572c-4.298-1.022-6.905,0-6.905,0v1.376c0,.581.471,1.052,1.052,1.052h4.801c.581,0,1.052-.471,1.052-1.052v-1.376" fill="#68c76f"/></g><rect y="0" width="40" height="40" fill="none"/></svg>