<?xml version="1.0" encoding="UTF-8"?><svg id="Layer_1" xmlns="http://www.w3.org/2000/svg" viewBox="0 0 40 40"><g><path d="m16.763,29.901c1.271.696,2.86.37,3.755-.77l7.68-9.782c.402-.608.56-1.297.595-1.664.235-2.451-2.241-4.073-4.403-2.896l-3.328,1.812c-4.918,2.988-4.806,6.429-5.556,10.642-.19,1.065.309,2.137,1.258,2.657h0Z" fill="#65778e"/><path d="m20.711,3.368c-2.41-2.766-6.823-2.412-8.752.74-1.665,2.721-.499,6.286,2.326,7.767l4.188,2.197c1.617.848,3.551.833,5.155-.04l.051-.028c2.193-1.194,2.717-4.111,1.076-5.993l-4.045-4.642Z" fill="#65778e"/><path d="m13.001,36.581c-.187,1.003.627,1.919,1.647,1.919h12.472s0-1.089,0-1.089c0-.514-.302-.98-.772-1.189l-4.842-1.832c-.766-.29-1.329-.951-1.493-1.753-.003-.014-.006-.028-.009-.042-.177-.865-.938-1.487-1.821-1.487h-1.812c-.781,0-1.472.496-1.744,1.228-.624,1.678-1.381,2.925-1.627,4.246Z" fill="#65778e"/><circle cx="25.89" cy="17.283" r="2.067" fill="#d0d6de"/><circle cx="22.466" cy="11.014" r="1.461" fill="#d0d6de"/></g><rect width="40" height="40" fill="none"/></svg>