<?xml version="1.0" encoding="UTF-8"?><svg id="Layer_1" xmlns="http://www.w3.org/2000/svg" viewBox="0 0 40 40"><g><path d="M29.54642,26.37119l-5.00794-1.90256c-2.92374-1.11075-6.15329-1.11075-9.07703,0l-5.0079,1.90254c-2.41054,.91579-4.4061,2.63555-5.67052,4.83829-.51875,.90372-.84724,1.90405-1.09623,2.9159l-.64016,2.60148c-.09678,.3933,.20094,.77316,.60597,.77316H36.34738c.40504,0,.70276-.37986,.60597-.77317l-.6402-2.60155c-.24899-1.01183-.57749-2.01214-1.09624-2.91585-1.26442-2.20272-3.25997-3.92246-5.67049-4.83823Z" style="fill:#5a81ff;"/><g><g><path d="M11.64001,19.57996c-.75232-.00372-1.45117-.22211-2.03149-.5921l.96783,3.88623c.1925,.77301,.88666,1.31549,1.68323,1.31549h3.92047c-2.02112-.93103-3.6449-2.57172-4.54004-4.60962Z" style="fill:#333;"/><path d="M23.81995,24.18958h3.87732c.85358,0,1.58032-.62097,1.71344-1.46417l.55548-3.51868c-.48639,.2287-1.02673,.37036-1.6062,.37323-.89514,2.0379-2.51892,3.67859-4.54004,4.60962Z" style="fill:#333;"/><path d="M10.79761,14.66089c.08765,.15906,.30176,.19482,.42279,.05939l5.77625-6.46344s7.3175,5.87677,12.14691,5.55609c.10638-.00708,.22913-.04395,.35034-.09583,.31195-.17572,.57501-.48969,.81616-.44379,.00769,.00146,.01587-.00391,.0235-.00171,.09637-6.55249-5.79553-11.84906-12.55463-10.5835-4.22101,.79034-7.59949,4.20691-8.34039,8.43683-.13354,.76257-.185,1.51373-.16168,2.24597,.00177,.0567,.04645,.1051,.1026,.10828l.00415,.00189c.23358,.00165,.83105,.12134,1.414,1.17981Z" style="fill:#333;"/></g><path d="M32,16.14996c0-1.2124-.67792-2.26752-1.68994-2.87665-.24115-.0459-.50421,.26807-.81616,.44379-.12122,.05188-.24396,.08875-.35034,.09583-4.82941,.32068-12.14691-5.55609-12.14691-5.55609l-5.77625,6.46344c-.12103,.13544-.33514,.09967-.42279-.05939-.58295-1.05847-1.18042-1.17816-1.414-1.17981l-.00415-.00189c-.83655,.62805-1.37946,1.58698-1.37946,2.67078,0,1.17633,.63843,2.2193,1.60852,2.83789,.58032,.37,1.27917,.58838,2.03149,.5921,.89514,2.0379,2.51892,3.67859,4.54004,4.60962,1.16248,.53552,2.45428,.84039,3.81995,.84039s2.65747-.30487,3.81995-.84039c2.02112-.93103,3.6449-2.57172,4.54004-4.60962,.57947-.00287,1.11981-.14453,1.6062-.37323,1.20062-.56451,2.03381-1.71875,2.03381-3.05676Z" style="fill:#6e4944;"/><g><ellipse cx="17.43278" cy="15.44977" rx=".97243" ry="1.16692"/><ellipse cx="22.56722" cy="15.44977" rx=".97243" ry="1.16692"/></g><path d="M21.20966,20.05071c.21854,0,.37379,.20995,.31581,.42066-.18422,.66953-.79741,1.16135-1.52547,1.16135s-1.34126-.49182-1.52547-1.16135c-.05798-.21071,.09727-.42066,.31581-.42066h2.41932Z" style="fill:#5c2f17;"/></g><path d="M17.80891,23.62808h4.38219v4.15931c0,1.2093-.9818,2.19109-2.19109,2.19109h0c-1.2093,0-2.19109-.9818-2.19109-2.19109v-4.15931h0Z" style="fill:#6e4944;"/><path d="M34.14872,37.5H5.85128l-1.22403-14.48413c-.05452-.64509,.45438-1.19881,1.10178-1.19881h28.54194c.64739,0,1.15629,.55372,1.10178,1.19881l-1.22403,14.48413Z" style="fill:#c4c4c4;"/></g><rect width="40" height="40" style="fill:none;"/></svg>