<?xml version="1.0" encoding="UTF-8"?><svg id="Layer_1" xmlns="http://www.w3.org/2000/svg" viewBox="0 0 40 40"><rect width="40" height="40" transform="translate(40 0) rotate(90)" fill="none"/><g><path d="m13.814,13.33h6.3c2.14,0,3.878,1.738,3.878,3.878v7.388h-10.178v-11.265h0Z" transform="translate(5.552 -4.246) rotate(15)" fill="#ec6700"/><path d="m4,19.109h10.764v12.636h0c-5.941,0-10.764-4.823-10.764-10.764v-1.872h0Z" fill="#ffb582"/><path d="m31.297,17.09l-.003-.004-4.378,2.507c-4.807,2.785-7.472-1.42-7.472-3.288v-.431c0-2.653,2.948-5.452,6.574-3.685,1.949.949,3.671,1.843,5.133,2.577,1.266.636,2.958.763,3.993-.371,1.034-1.133,1.237-3.216.013-4.013-5.761-3.75-9.883-6.073-14.615-6.717C12.193,2.529,4,8.662,4,19.109c0,.166.017.323.031.482h-.031v14.95c0,1.066.864,1.93,1.93,1.93h8.93c1.066,0,1.93-.864,1.93-1.93v-2.886c5.004-.426,9.324-2.44,13.465-5.899l4.36-3.599c1.316-1.042,1.537-2.955.494-4.273-.928-1.172-2.541-1.473-3.812-.794Z" fill="#ffb582"/></g></svg>