<?xml version="1.0" encoding="UTF-8"?><svg id="Layer_1" xmlns="http://www.w3.org/2000/svg" viewBox="0 0 40 40"><path d="M26.01001,10.51001c-.29004-5.02002-4.45001-9.01001-9.54999-9.01001-5.11005,0-9.27002,3.98999-9.56,9.01001h-.03003v5.31995c6.27002,0,11.34998,5.07996,11.34998,11.33997,0,6.04004-4.73999,10.97998-10.70996,11.32007,6.47998-.20996,12.14001-3.64001,15.44-8.73999,1.95001-3,3.08997-6.57007,3.08997-10.41003V10.51001h-.02997Zm-6.13,4.23999c-1.35999,0-2.57001-.6001-3.41003-1.53003l-.00995,.01001s-.01001-.01001-.02002-.01001c-.84003,.92993-2.04999,1.53003-3.40997,1.53003-2.42004,0-4.38-1.87-4.55005-4.23999-.01001-.11011-.03998-.21997-.03998-.34009,0-2.52991,2.06-4.57996,4.59003-4.57996,1.37,0,2.58997,.60999,3.42999,1.55994,.83997-.94995,2.04999-1.55994,3.41998-1.55994,2.52997,0,4.58997,2.05005,4.58997,4.57996,0,.12012-.02997,.22998-.03998,.34009-.16998,2.37-2.13,4.23999-4.54999,4.23999Z" style="fill:#d0d6de;"/><path d="M19.88,5.58997c-1.37,0-2.58002,.60999-3.41998,1.55994-.84003-.94995-2.06-1.55994-3.42999-1.55994-2.53003,0-4.59003,2.05005-4.59003,4.57996,0,.12012,.02997,.22998,.03998,.34009,.17004,2.37,2.13,4.23999,4.55005,4.23999,1.35999,0,2.56995-.6001,3.40997-1.53003-.08002-.07007-.5-.46997-.64001-.98999-.01996-.09998-.03998-.19995-.03998-.30005,0-.72998,.70001-1.30994,.70001-1.30994,0,0,.69,.57996,.69,1.30994,0,.66003-.59003,1.21008-.68005,1.29004,.84003,.92993,2.05005,1.53003,3.41003,1.53003,2.41998,0,4.38-1.87,4.54999-4.23999,.01001-.11011,.03998-.21997,.03998-.34009,0-2.52991-2.06-4.57996-4.58997-4.57996Zm-6.84998,6.10999c-.84003,0-1.53003-.67993-1.53003-1.53003,0-.83997,.69-1.52991,1.53003-1.52991,.84998,0,1.53998,.68994,1.53998,1.52991,0,.8501-.69,1.53003-1.53998,1.53003Zm7.09998,0c-.84003,0-1.53003-.67993-1.53003-1.53003,0-.83997,.69-1.52991,1.53003-1.52991,.84998,0,1.52997,.68994,1.52997,1.52991,0,.8501-.67999,1.53003-1.52997,1.53003Z" style="fill:#f0f3f6;"/><g><path d="M14.56555,10.17187c0-.84497-.6861-1.53003-1.53241-1.53003s-1.53241,.68506-1.53241,1.53003c0,.84521,.6861,1.53015,1.53241,1.53015s1.53241-.68494,1.53241-1.53015Z"/><path d="M21.66492,10.17187c0-.84497-.6861-1.53003-1.53241-1.53003s-1.53241,.68506-1.53241,1.53003c0,.84521,.6861,1.53015,1.53241,1.53015s1.53241-.68494,1.53241-1.53015Z"/></g><path d="M17.15466,11.92554c0-.72253-.69867-1.30835-.69867-1.30835,0,0-.69867,.58582-.69867,1.30835,0,.10571,.01801,.20703,.04352,.30554,.1358,.52368,.56104,.91992,.63702,.98682l.01813,.01611,.01819-.01611c.09039-.07971,.68048-.62439,.68048-1.29236Z"/><g><path d="M32.25848,14.1355c-.19568-.46838-.76947-.64941-1.22131-.41675l-4.99487,2.57227v3.05103c0,3.84131-1.14191,7.41064-3.08838,10.4093,1.367-.14197,2.73126-.52478,4.02643-1.19177,5.29272-2.72559,7.53119-9.03076,5.27814-14.42407Z" style="fill:#8595aa;"/><path d="M18.22015,27.16675c0-6.25916-5.08179-11.33325-11.35046-11.33325v22.6665c6.26868,0,11.35046-5.0741,11.35046-11.33325Z" style="fill:#8595aa;"/></g><rect width="40" height="40" style="fill:none;"/></svg>