<?xml version="1.0" encoding="UTF-8"?><svg id="Layer_1" xmlns="http://www.w3.org/2000/svg" viewBox="0 0 40 40"><g><circle cx="19.781" cy="20" r="17.5" fill="#ffc84d"/><path d="m12.113,18.424c-.235.143-.537-.045-.506-.319.173-1.52,1.36-2.754,2.899-2.889,1.539-.135,2.922.875,3.356,2.341.078.264-.186.502-.443.402-.56-.218-1.504-.472-2.706-.367-1.202.105-2.088.519-2.601.831Z"/><path d="m27.448,18.424c.235.143.537-.045.506-.319-.173-1.52-1.36-2.754-2.899-2.889-1.539-.135-2.922.875-3.356,2.341-.078.264.186.502.443.402.56-.218,1.504-.472,2.706-.367,1.202.105,2.088.519,2.601.831Z"/><path d="m32.184,35.682c-.234.155-.536.155-.771,0-.743-.491-2.363-1.664-3.06-2.977-.92-1.732.16-3.46,1.588-3.46.814,0,1.303.425,1.574.791.143.193.425.193.567,0,.271-.366.76-.791,1.574-.791,1.427,0,2.507,1.728,1.588,3.46-.697,1.313-2.317,2.486-3.06,2.977Z" fill="#f5172b"/><path d="m33.37,14.204c-.347.229-.795.229-1.141,0-1.101-.727-3.501-2.466-4.534-4.411-1.363-2.566.238-5.126,2.352-5.126,1.206,0,1.931.63,2.332,1.171.211.285.629.285.84,0,.401-.542,1.126-1.171,2.332-1.171,2.114,0,3.715,2.56,2.352,5.126-1.033,1.945-3.433,3.683-4.534,4.411Z" fill="#f5172b"/><path d="m6.227,31.033c-.26.172-.596.172-.856,0-.826-.546-2.626-1.849-3.4-3.308-1.022-1.925.178-3.844,1.764-3.844.904,0,1.448.472,1.749.878.159.214.472.214.63,0,.301-.406.845-.878,1.749-.878,1.586,0,2.786,1.92,1.764,3.844-.775,1.459-2.574,2.762-3.4,3.308Z" fill="#f5172b"/><path d="m19.781,24.496c-2.979,0-5.187-.533-6.506-.976-.601-.202-1.067.544-.62.993,1.315,1.321,4.082,2.459,7.126,2.459s5.811-1.138,7.126-2.459c.448-.45-.018-1.195-.62-.993-1.32.443-3.527.976-6.506.976Z" fill="#ff6d00"/></g><rect width="40" height="40" fill="none"/></svg>