<?xml version="1.0" encoding="UTF-8"?><svg id="a" xmlns="http://www.w3.org/2000/svg" viewBox="0 0 40 40"><g><path d="M6.986,22.686c0,7.176,5.838,13.013,13.014,13.013s13.014-5.838,13.014-13.013-5.838-13.014-13.014-13.014S6.986,15.51,6.986,22.686Zm4.857,7.197l5.415-9.939,9.939-5.415c.14-.105,.298-.119,.447-.082,.442,.071,.772,.575,.512,1.041l-5.415,9.939-9.939,5.415c-.14,.105-.298,.119-.447,.082-.442-.071-.772-.575-.512-1.041Z" fill="#eceff1"/><path d="M21.936,20.75c.497,.497,.805,1.182,.805,1.937s-.274,1.439-.823,1.919l.069,.069,.754,.754,5.415-9.939c.259-.466-.07-.97-.512-1.041,.142,.036,.275,.118,.375,.219l-6.083,6.083Z" fill="#ff3d00"/><path d="M12.355,30.925c-.142-.036-.275-.118-.375-.219l6.083-6.083c-.497-.497-.805-1.182-.805-1.936s.274-1.439,.823-1.919l-.823-.823-5.415,9.939c-.259,.467,.07,.97,.512,1.041Z" fill="#fff"/><path d="M21.94,20.75c.49,.5,.8,1.18,.8,1.94,0,.75-.27,1.44-.82,1.92l-.95-.96c.25-.24,.4-.59,.4-.96,0-.76-.62-1.37-1.37-1.37-.38,0-.72,.15-.97,.4l-.95-.95-.07-.07-.75-.76,9.94-5.41c.14-.11,.3-.12,.44-.08,.15,.03,.28,.12,.38,.22l-6.08,6.08Z" fill="#dd2c00"/><path d="M22.74,25.43l-9.94,5.41c-.14,.11-.3,.12-.44,.08-.15-.03-.28-.11-.38-.21l6.08-6.09c-.49-.49-.8-1.18-.8-1.93,0-.76,.27-1.44,.82-1.92l.95,.95c-.25,.25-.4,.59-.4,.97,0,.75,.62,1.37,1.37,1.37,.38,0,.72-.16,.97-.41l.95,.96,.07,.06,.75,.76Z" fill="#99a5ab"/><path d="M20,21.315c-.377,0-.72,.154-.968,.403s-.403,.591-.403,.968c0,.754,.617,1.371,1.371,1.371,.377,0,.72-.154,.968-.403s.403-.591,.403-.968c0-.754-.617-1.371-1.371-1.371Z" fill="#fff"/><path d="M23.16,7.19c.36-.57,.57-1.24,.57-1.96,0-2.06-1.67-3.73-3.73-3.73s-3.73,1.67-3.73,3.73c0,.72,.21,1.39,.57,1.96-7.21,1.47-12.65,7.86-12.65,15.5,0,8.72,7.09,15.81,15.81,15.81s15.81-7.09,15.81-15.81c0-7.64-5.44-14.03-12.65-15.5Zm-3.16-3.58c.89,0,1.62,.73,1.62,1.62s-.73,1.62-1.62,1.62-1.62-.73-1.62-1.62,.73-1.62,1.62-1.62Zm0,32.09c-7.18,0-13.01-5.84-13.01-13.01s5.83-13.02,13.01-13.02,13.01,5.84,13.01,13.02-5.83,13.01-13.01,13.01Z" fill="#4e5968"/></g><rect width="40" height="40" transform="translate(40 40) rotate(-180)" fill="none"/></svg>