<?xml version="1.0" encoding="UTF-8"?><svg id="Layer_1" xmlns="http://www.w3.org/2000/svg" viewBox="0 0 40 40"><g><rect x="10.31865" y="18.95904" width="19.32934" height="15.77696" style="fill:#ffe3a0;"/><g><path d="M34.26544,36.84937l-.5387-2.18896c-.20953-.85156-.48596-1.69312-.92242-2.45361-.54565-.95056-1.25519-1.79187-2.08856-2.49219l-2.56323,7.7854h5.60303c.34082,0,.59131-.31958,.50989-.65063Z" style="fill:#956759;"/><path d="M7.19568,32.20679c-.43652,.7605-.71295,1.60217-.92242,2.45361l-.5387,2.18896c-.08142,.33105,.16907,.65063,.50989,.65063h5.54993l-2.55237-7.75244c-.81567,.6936-1.50964,1.52417-2.04633,2.45923Z" style="fill:#956759;"/></g><path d="M31.15253,28.38806l-8.94464-2.80042v1.25049c0,1.21289-.9834,2.19629-2.19641,2.19629s-2.19635-.9834-2.19635-2.19629v-1.27441l-9.02075,2.82434,.44763,1.3595,2.55237,7.75244H28.15253l2.56323-7.7854,.43677-1.32654Z" style="fill:#37605f;"/><path d="M30.84003,18.52002c-.72003,.63989-1.58002,1.01001-2.47003,1.12-1.14001,2.54993-3.40002,4.47998-6.15997,5.16003v2.03992c0,1.21008-.99005,2.19006-2.20001,2.19006-1.21002,0-2.19-.97998-2.19-2.19006v-2.02991c-2.77002-.68005-5.03998-2.6001-6.17999-5.15015-1.03003-.02991-2.04999-.3999-2.87-1.13989-1.84003-1.67004-1.98999-4.51001-.32001-6.3501l.82001,.73999,.01001,.01001c.15997,3.6001,2.17999,6.25,2.17999,6.25,0-1.41992,.34998-2.57996,.83997-3.52002,.71002-1.37988,1.73999-2.27991,2.51001-2.79993l1.03003-.57996,2.56-1.44995s.5,.30994,1.32996,.75c.83002,.42993,1.98004,.98999,3.29004,1.48999,0,0,2.38995,1.01001,3.97998,2.86987,.79999,.92004,1.40002,2.06006,1.40002,3.39014,0,0,1.59998-2.43005,1.91998-6.39014l.02002-.03003,.81995-.72998c1.66003,1.84009,1.52002,4.68005-.31995,6.3501Z" style="fill:#956759;"/><g><ellipse cx="17.42658" cy="15.48097" rx=".97477" ry="1.16973"/><ellipse cx="22.57339" cy="15.48097" rx=".97477" ry="1.16973"/></g><path d="M21.22406,19.68172c.21907,0,.37469,.21046,.31657,.42168-.18466,.67114-.79933,1.16414-1.52915,1.16414s-1.34449-.493-1.52915-1.16414c-.05812-.21122,.0975-.42168,.31657-.42168h2.42515Z" style="fill:#5c2f17;"/><path d="M30.35999,12.27002c-.01001,.13989-.01996,.27002-.02997,.3999,0,.09009-.01001,.17004-.01001,.26001-.32001,3.96008-1.91998,6.39014-1.91998,6.39014,0-1.33008-.60004-2.47009-1.40002-3.39014-1.59003-1.85986-3.97998-2.86987-3.97998-2.86987-2.62-.98999-4.62-2.23999-4.62-2.23999l-2.56,1.44995s-.44,.17993-1.03003,.57996c-.77002,.52002-1.79999,1.42004-2.51001,2.79993-.48999,.94006-.83997,2.1001-.83997,3.52002,0,0-2.02002-2.6499-2.17999-6.25,0-.03992,0-.07996-.01001-.11987,0-.12012-.01001-.22998-.01001-.3501h.02002c.00995-.13989,0-.28003,.00995-.41992,.30005-3.17004,2.03003-5.95007,4.54004-7.68005,1.39996-.95996,3.03998-1.59998,4.79999-1.78992,6.06-.65015,11.21997,3.8999,11.69,9.70996h.03998Z" style="fill:#ffe3a0;"/><path d="M19.80227,9.4599H9.93637c-.52164,0-.94451,.42287-.94451,.94451v.99772c0,.35814,.29464,.64313,.6524,.62676,2.02704-.09272,8.29711-.20436,10.258,1.72708,1.96115-1.93144,8.03153-1.81979,10.05862-1.72708,.35776,.01636,.6524-.26862,.6524-.62676v-.99772c0-.52164-.42287-.94451-.94451-.94451h-9.86651Z" style="fill:#a2c2c3;"/><circle cx="19.92096" cy="11.23235" r=".87783" style="fill:#ccdfe3;"/><rect x="18.88922" y="32.51745" width="2.24453" height="2.24453" rx=".34093" ry=".34093" transform="translate(29.6481 -4.29742) rotate(45)" style="fill:#ccdfe3;"/></g><rect width="40" height="40" style="fill:none;"/></svg>