<?xml version="1.0" encoding="UTF-8"?><svg id="Layer_1" xmlns="http://www.w3.org/2000/svg" viewBox="0 0 40 40"><g><path d="m22.817,3.053h0c-2.35-.7-4.854-.7-7.204,0h0c-1.653.493-3.031,1.231-3.809,2.771l-2.638,5.226h20.098l-2.638-5.226c-.778-1.54-2.155-2.278-3.809-2.771Z" fill="#b37a25"/><ellipse cx="19.558" cy="16.109" rx="16" ry="7.034" fill="#8c601d"/><path d="m26.982,28.796l-3.904-1.483c-2.279-.866-4.797-.866-7.077,0l-3.904,1.483c-1.879.714-3.435,2.055-4.421,3.772-.404.705-.661,1.484-.855,2.273l-.499,2.028c-.075.307.157.603.472.603h25.383c.306,0,.536-.279.478-.579l-.397-2.052c-.194-.789-.45-1.569-.855-2.273-.986-1.717-2.542-3.058-4.421-3.772Z" fill="#e6e6e6"/><path d="m17.515,23.839h4.07v3.863c0,1.123-.912,2.035-2.035,2.035h0c-1.123,0-2.035-.912-2.035-2.035v-3.863h0Z" fill="#ffb582"/><path d="m11.915,21.273c-.7-.003-1.35-.204-1.889-.547l.899,3.609c.179.718.824,1.222,1.563,1.222h3.65c-1.879-.864-3.387-2.39-4.224-4.283Z" fill="#ffdb87"/><path d="m23.216,25.557h3.61c.793,0,1.468-.577,1.591-1.36l.516-3.268c-.452.212-.955.342-1.494.345-.837,1.894-2.345,3.419-4.224,4.283Z" fill="#ffdb87"/><path d="m29.266,15.417c-.227-.056-.476.247-.771.413-.113.048-.227.082-.325.089-.076.005-.158-.004-.235-.002-.794.018-1.65-.122-2.527-.382-2.696-.799-5.545-2.626-7.17-3.775-.874.053-1.714.156-2.513.301l-2.702,3.023-1.733,1.939c-.016-.034-.032-.057-.048-.089-.582-1.197-1.2-1.322-1.425-1.321-.776.584-1.282,1.47-1.282,2.475,0,1.097.592,2.064,1.492,2.638.539.343,1.189.544,1.889.547.837,1.894,2.345,3.419,4.224,4.283,1.078.496,2.274.78,3.538.78s2.46-.284,3.538-.78c1.879-.864,3.387-2.39,4.224-4.283.539-.003,1.042-.133,1.494-.345,1.114-.523,1.887-1.592,1.887-2.84,0-1.122-.621-2.103-1.555-2.671Zm-11.972,3.106c-.499,0-.903-.485-.903-1.084s.404-1.084.903-1.084.903.485.903,1.084-.404,1.084-.903,1.084Zm4.769,0c-.499,0-.903-.485-.903-1.084s.404-1.084.903-1.084.903.485.903,1.084-.404,1.084-.903,1.084Z" fill="#ffb582"/><path d="m12.843,12.834c-1.015.377-1.891.835-2.585,1.355-.323.242-.526.612-.539,1.015-.006.169-.007.336-.001.487,0,0,.043-.077.099-.077.23-.001.873.129,1.467,1.409h.006s1.733-1.937,1.733-1.937l2.702-3.023c-1.045.189-2.013.45-2.882.773Z" fill="#ffdb87"/><path d="m29.27,14.928c-.013-.366-.174-.719-.476-.927-.634-.435-1.398-.822-2.268-1.149-1.895-.712-4.275-1.14-6.867-1.14-.483,0-.955.02-1.421.048,1.625,1.149,4.474,2.976,7.17,3.775.877.26,1.732.4,2.527.382.077-.002.159.007.235.002.099-.007.213-.041.325-.089.295-.166.543-.469.771-.413.003,0,.006-.002.009,0,.002-.164,0-.326-.005-.488Z" fill="#ffdb87"/><path d="m17.293,16.356c-.499,0-.903.485-.903,1.084s.404,1.084.903,1.084.903-.485.903-1.084-.404-1.084-.903-1.084Z"/><path d="m22.062,16.356c-.499,0-.903.485-.903,1.084s.404,1.084.903,1.084.903-.485.903-1.084-.404-1.084-.903-1.084Z"/><path d="m20.801,21.713h-2.247c-.203,0-.347.195-.293.391.171.622.741,1.079,1.417,1.079s1.246-.457,1.417-1.079c.054-.196-.09-.391-.293-.391Z" fill="#5c2f17"/><path d="m27.039,28.654l-1.929-.702c-.083-.03-.17.031-.17.119v5.424c0,.29-.235.524-.524.524h-9.844c-.29,0-.524-.235-.524-.524v-5.424c0-.088-.088-.149-.17-.119l-1.929.702c-.102.037-.171.135-.171.244v8.575h15.432v-8.575c0-.109-.068-.206-.171-.243Z" fill="#8a8a8a"/><g><path d="m30.154,29.922l.438-.461c.422-.444.642-1.034.655-1.648.008-.363.088-.758.352-1.003.215-.199.445-.297.652-.34.341-.072.605-.336.639-.681.043-.444.208-.993.715-1.305.509-.313.829-.063,1.074.062.24.122.501.027.769.008.272-.02.602.029.833.301.269.317.153.703.009.969-.113.21-.168.445-.143.683.043.394-.012,1.022-.659,1.433-.294.187-.725.291-.881.602-.267.535-.843,1.266-1.935.98-.392-.103-.807-.073-1.157.126l-1.082.846-.279-.569Z" fill="#0c3822"/><path d="m29.903,30.257l.152-.703c.146-.675.018-1.374-.326-1.972-.206-.357-.361-.79-.249-1.184.091-.319.255-.549.428-.712.285-.269.385-.679.216-1.032-.217-.455-.378-1.083-.073-1.683s.666-.661.973-.684c.301-.023.588-.152.834-.328.249-.178.593-.325.973-.197.443.15.555.592.571.933.013.269.097.529.26.743.294.388.548,1.372-.262,2.214-.176.183-.252.442-.164.68.218.592.419,1.698-.912,2.092-.434.128-.81.402-1.03.798l-.79,1.423-.598-.388Z" fill="#19705c"/><path d="m24.94,37.472l2.454-7.356c.233-.698,1.035-1.021,1.687-.681l2.573,1.345c.652.341.844,1.184.404,1.774l-3.671,4.918h-3.447Z" fill="#ff6637"/></g></g><rect width="40" height="40" fill="none"/></svg>