<?xml version="1.0" encoding="UTF-8"?><svg id="Layer_1" xmlns="http://www.w3.org/2000/svg" viewBox="0 0 40 40"><g><g><path d="m16.535,18.421l1.635-1.591c3.23,1.79,7.32.73,9.27-2.44.462-.751.757-1.557.909-2.375l-.068-1.965c-.005-.16-.185-.249-.316-.157-.732.511-2.751,1.666-5.616,1.29l-.026.011c.551-1.189.254-2.555-.756-3.177-1.101-.679-2.62-.214-3.391,1.039-.772,1.252-.505,2.818.597,3.496.043.027.09.04.135.063l-3.675,1.529-.941.908c.099-.082.187-.18.289-.258l1.956,3.627Z" fill="#c3846c"/><ellipse cx="26.021" cy="13.517" rx=".957" ry=".371" transform="translate(.863 28.579) rotate(-58.358)" fill="#333"/><path d="m29.46,10.06c-.05,1.38-.44,2.15-1.11,1.99v-.04l-.07-1.96c0-.16-.18-.25-.31-.16-.74.51-2.76,1.67-5.62,1.29l-.03.01c.55-1.19.26-2.55-.75-3.17-1.1-.68-2.62-.22-3.39,1.03-.78,1.26-.51,2.82.59,3.5.05.03.09.04.14.06l-3.68,1.53s-.75-.99-1.22-2.51c-1.46,8.84-8.32,7.23-10.87,6.31-.28-.1-.26-.51.03-.59,1.22-.34,3.34-1.26,4.84-3.71,1.89-3.09,4.95-2.81,5.83-2.65-.42-1.83-.34-4.24,1.67-6.58,3.03-3.53,7.44-2.26,10.23-.4,2.79,1.87,3.76,4.66,3.72,6.05Z" fill="#523725"/></g><path d="m33.334,29.256c-1.79.142-3.464,1.244-4.3,2.68h2.651l.61,4.727c.005.04-.011.075-.01.114,2.317-.223,4.429-2.035,4.738-4.09.313-2.081-1.338-3.617-3.688-3.431Z" fill="#c3846c"/><g><path d="m22.611,28.769c0-2.975,2.383-5.389,5.343-5.449-.877-.367-1.86-.579-2.905-.579-2.05,0-3.88.796-5.083,2.043l2.791,5.175c-.086-.385-.146-.779-.146-1.19Z" fill="#ffd3d5"/><path d="m22.611,28.769c0,.411.06.805.146,1.19.386,1.726,1.577,3.149,3.171,3.829.657.28,1.379.436,2.138.436,1.441,0,2.748-.563,3.724-1.476,1.063-.995,1.731-2.407,1.731-3.978,0-3.012-2.442-5.454-5.455-5.454-.038,0-.074.005-.111.006-2.961.06-5.343,2.474-5.343,5.449Z" fill="#333"/></g><path d="m28.066,34.223c-.759,0-1.481-.156-2.138-.436-1.594-.68-2.785-2.103-3.171-3.829l-2.791-5.175-3.431-6.362-1.956-3.627c-.102.078-.19.176-.289.258-5.738,4.78-6.248,17.191-6.248,21.375,0,.774.63,1.398,1.404,1.398h21.827c.58,0,1.018-.481,1.01-1.046,0-.039.015-.074.01-.114l-.505-3.917c-.975.913-2.282,1.476-3.724,1.476Z" fill="#482ec5"/></g><rect y="0" width="40" height="40" fill="none"/></svg>