<svg id="Layer_1" data-name="Layer 1" xmlns="http://www.w3.org/2000/svg" viewBox="0 0 40 40"><defs><style>.cls-1{fill:#6e4944;}.cls-2{fill:#4e5968;}.cls-3{fill:#e6e6e6;}.cls-4{fill:#92c8ff;}.cls-5{fill:none;}</style></defs><rect class="cls-1" x="4.254" y="19.171" width="31.168" height="5.586" rx="2.793" transform="translate(5.578 -3.971) rotate(13.284)"/><rect class="cls-1" x="1.887" y="12.083" width="15.46" height="4.349" rx="2.175" transform="translate(-7.578 14.594) rotate(-57.121)"/><rect class="cls-1" x="26.088" y="19.273" width="11.73" height="4.349" rx="2.175" transform="translate(19.975 58.02) rotate(-105.737)"/><polygon class="cls-2" points="15.872 18.157 13.874 23.426 13.905 32.378 25.06 32.52 25.06 26.128 24.235 20.132 15.872 18.157"/><path class="cls-1" d="M29.314,18.59l-2.135-1.106a1.029,1.029,0,0,1-.154-1.73h0a.838.838,0,0,0,.294-.9h0a1.5,1.5,0,0,1,1.038-1.865l1.85-.512a2.752,2.752,0,0,1,3.049,1.162l.281.436a3.1,3.1,0,0,1,.451,2.186h0a2.721,2.721,0,0,1-2.6,2.272Z"/><circle class="cls-3" cx="8.791" cy="7.659" r="5.114"/><path class="cls-1" d="M18.351,17.175h3.6a0,0,0,0,1,0,0V19.43a1.8,1.8,0,0,1-1.8,1.8h-.008a1.8,1.8,0,0,1-1.8-1.8V17.175A0,0,0,0,1,18.351,17.175Z" transform="translate(1.57 -1.523) rotate(4.503)"/><path class="cls-4" d="M2.214,26.141s4.389-5.5,17.209,2.23,18.323-1.254,18.323-1.254v10.8H2.214Z"/><ellipse class="cls-1" cx="20.696" cy="12.62" rx="5.383" ry="5.408" transform="translate(6.49 32.261) rotate(-85.497)"/><ellipse cx="20.893" cy="13.091" rx="0.512" ry="0.771"/><ellipse cx="22.932" cy="13.091" rx="0.512" ry="0.771"/><path class="cls-2" d="M25.679,10.553a5.408,5.408,0,0,0-10.364,1.573,15.546,15.546,0,0,1,7.617-1.77A19.416,19.416,0,0,1,25.679,10.553Z"/><ellipse class="cls-1" cx="16.05" cy="13.499" rx="1.614" ry="1.622" transform="translate(1.332 28.44) rotate(-85.497)"/><rect class="cls-5" width="40" height="40"/></svg>