<?xml version="1.0" encoding="UTF-8"?><svg id="Layer_1" xmlns="http://www.w3.org/2000/svg" viewBox="0 0 40 40"><rect y="0" width="40" height="40" style="fill:none;"/><g><g><path d="M35.46997,20.52002c0,.62988-.10999,1.23999-.31995,1.83008l-.33002,.73975c-.01001,.02002-.02002,.03027-.03003,.05029-.07001,.12988-.14996,.25977-.22998,.38989-.04999,.07983-.09998,.16992-.15997,.26001-.13,.17993-.26001,.35986-.41003,.54004-.02002,.02979-.03998,.0498-.06,.06982-.16998,.2002-.33997,.40015-.52997,.59009-.16003,.15015-.34003,.30005-.51001,.44995,.09998-.38989,.16998-.78003,.16998-1.17993,0-2.43994-2-4.6001-5.09003-5.98999l.94-3.33008c.05005-.17993,0-.35986-.09998-.52002l.90997-.86987c1.62006,.77002,2.97003,1.70996,3.96002,2.78979,1.14001,1.25,1.78998,2.67017,1.78998,4.18018Z" style="fill:#3d3d3d;"/><path d="M25.33002,12.12012l-7.10004,1.46973c-2.57001,.44019-4.70996,2.15015-5.72998,4.48022-3.35999,1.36987-5.56,3.62988-5.56,6.18994,0,.3999,.07001,.79004,.16998,1.17993-.16998-.1499-.34998-.2998-.5-.44995-.40997-.40991-.75-.84985-1.04999-1.30005l.03998,.09009c-.28998-.42993-.51996-.86011-.69995-1.32007,0-.01001-.01001-.02002-.02002-.04004-.10999-.29004-.19-.58984-.25-.8999q0-.01001-.01001-.02002c-.06-.32007-.08997-.6499-.08997-.97998,0-1.51001,.64996-2.93018,1.78998-4.18018,2.59998-2.83984,7.73999-4.77979,13.67999-4.77979,1.88,0,3.66998,.20996,5.33002,.56006Z" style="fill:#3d3d3d;"/></g><path d="M33.06238,24.26099c0-2.43921-2.00134-4.60278-5.09552-5.98657l-.84106,2.95508c-.00623,.3999-.15076,.75928-.40485,1.07959,.23755-.05859,.48273-.0979,.73834-.0979,1.2995,0,2.4115,.80249,2.86749,1.93896,.22015,.54883-.17334,1.14966-.76453,1.14966h-4.20587c-.59119,0-.98474-.60083-.76459-1.14966,.10162-.25317,.24023-.48633,.40179-.70117-4.20551,1.66382-13.17175,.7749-13.12128-2.45776,.01624-1.03809,.24091-2.02393,.63074-2.92041-3.36237,1.36914-5.56543,3.62891-5.56543,6.19019,0,.40161,.06976,.79272,.17377,1.17725,.16394,.14575,.31311,.29761,.49225,.43677l.02606,.02246c.37396,.28857,.78302,.56055,1.21289,.8208,.13135,.0791,.27399,.15161,.41022,.22803,.3009,.16943,.61041,.3335,.9342,.48804,.18976,.09058,.38507,.177,.58215,.26221,2.57751,1.11719,5.763,1.78906,9.23083,1.78906,3.48895,0,6.69366-.67896,9.2793-1.80859,.15625-.06812,.31348-.13525,.46509-.20679,.45801-.21631,.90265-.44214,1.31488-.68677,.01318-.00781,.0246-.0166,.03778-.02441,.41388-.2478,.79773-.51172,1.16064-.7854,.08179-.06152,.15985-.12476,.23889-.1875,.14038-.11182,.2597-.23242,.39197-.34766,.104-.38477,.17383-.77588,.17383-1.17749Zm-20.13678,.81152h-2.83545c-.42603,0-.74835-.4292-.5863-.82349,.32404-.78784,1.09924-1.34253,2.00403-1.34253s1.67999,.55469,2.00403,1.34253c.16205,.39429-.16022,.82349-.5863,.82349Zm4.83185,2.80688c-.42609,0-.74841-.4292-.58636-.82324,.32404-.78784,1.09924-1.34253,2.00403-1.34253s1.67999,.55469,2.00403,1.34253c.16205,.39404-.16022,.82324-.5863,.82324h-2.83539Z" style="fill:#ffc450;"/><path d="M21.17914,27.05615c-.32404-.78784-1.09924-1.34253-2.00403-1.34253s-1.67999,.55469-2.00403,1.34253c-.16205,.39404,.16028,.82324,.58636,.82324h2.83539c.42609,0,.74835-.4292,.5863-.82324Z" style="fill:#ffe3a0;"/><path d="M11.50787,22.90649c-.90479,0-1.67999,.55469-2.00403,1.34253-.16205,.39429,.16028,.82349,.5863,.82349h2.83545c.42609,0,.74835-.4292,.5863-.82349-.32404-.78784-1.09924-1.34253-2.00403-1.34253Z" style="fill:#036d50;"/><path d="M33.75,11.58984c-.02002,.88013-.75,1.58008-1.63,1.56006l-1.01001-.02002-.92999-.02002-.46002,.44019-.90997,.86987c-.02002-.02979-.02997-.06982-.06-.09985l-2.07001-2.16016c-.02002-.01978-.04999-.03003-.08002-.05005l1.37-1.30981,.02002-.94019,.02002-.98975c.02002-.89014,.75-1.58008,1.63-1.57007,.89001,.02002,1.57996,.75,1.57001,1.63989l-.03003,.98999,1.01001,.03003c.88,.02002,1.58002,.75,1.56,1.62988Z" style="fill:#d5d5d5;"/><path d="M28.90997,14.93994l-.94,3.33008-.83997,2.95996c-.01001,.3999-.15002,.76001-.41003,1.08008-.69995,.16992-1.31,.58008-1.72998,1.13989-4.20001,1.65991-13.16998,.77002-13.12-2.45996,.02002-1.04004,.23999-2.02002,.63-2.91992,1.02002-2.33008,3.15997-4.04004,5.72998-4.48022l7.10004-1.46973,.72998-.15015c.20001-.04004,.39001,.02002,.53998,.13989,.03003,.02002,.06,.03027,.08002,.05005l2.07001,2.16016c.03003,.03003,.03998,.07007,.06,.09985,.09998,.16016,.15002,.34009,.09998,.52002Z" style="fill:#f77f00;"/><path d="M24.99359,23.44897c-.16156,.21484-.30017,.448-.40179,.70117-.22015,.54883,.1734,1.14966,.76459,1.14966h4.20587c.59119,0,.98468-.60083,.76453-1.14966-.45599-1.13647-1.56799-1.93896-2.86749-1.93896-.25562,0-.50079,.03931-.73834,.0979-.70099,.17261-1.30652,.58008-1.72736,1.13989Z" style="fill:#c50010;"/><g><path d="M34.81879,16.34302h-1.14008c1.14014,1.24878,1.79218,2.67017,1.79218,4.18115,0,.62573-.11237,1.23608-.323,1.82544-.09015,.25244-.20251,.49976-.32983,.74316-.02301,.04468-.04248,.08984-.06665,.13428l-.66827,1.47852h.73566c2.3092,0,4.18121-1.87207,4.18121-4.1814,0-2.30908-1.87201-4.18115-4.18121-4.18115Z" style="fill:#4e5968;"/><path d="M4.90271,22.46362c-.00562-.0144-.01373-.02856-.01923-.04321-.11011-.29541-.19562-.59619-.25397-.9021l-.00952-.02222h.0036l.00098,.00342c-.06-.32056-.09546-.64551-.09546-.97534,0-1.51099,.65204-2.93237,1.79218-4.18115h-1.14008c-2.3092,0-4.18121,1.87207-4.18121,4.18115,0,2.30933,1.87201,4.1814,4.18121,4.1814h.81201l-.39764-.92944c-.28516-.42334-.52057-.8606-.69287-1.3125Z" style="fill:#4e5968;"/><path d="M34.7923,23.13647c-.07013,.13159-.14954,.26074-.22992,.38965-.05469,.08765-.10638,.17578-.16571,.26221-.12628,.18384-.26093,.36548-.4071,.54346-.01971,.02393-.03961,.04785-.05969,.07153-.16705,.19897-.34393,.39453-.53412,.58496-.15497,.15576-.33606,.30078-.5072,.4502-.13226,.11523-.25159,.23584-.39197,.34766-.07904,.06274-.1571,.12598-.23889,.1875-.36292,.27368-.74677,.5376-1.16064,.7854-.01318,.00781-.0246,.0166-.03778,.02441-.41223,.24463-.85687,.47046-1.31488,.68677-.15161,.07153-.30884,.13867-.46509,.20679-2.58563,1.12964-5.79034,1.80859-9.2793,1.80859-3.46783,0-6.65332-.67188-9.23083-1.78906-.19708-.08521-.3924-.17163-.58215-.26221-.32379-.15454-.6333-.3186-.9342-.48804-.13623-.07642-.27887-.14893-.41022-.22803-.42987-.26025-.83893-.53223-1.21289-.8208l-.02606-.02246c-.17914-.13916-.32831-.29102-.49225-.43677-.16858-.1499-.3515-.2937-.50623-.44897-.40991-.41113-.7486-.84766-1.04504-1.29614l.03546,.08301,.39764,.92944,1.35815,3.17383h.01752c.99701,3.85645,5.69592,6.81665,12.6311,6.81665s11.63409-2.96021,12.6311-6.81665h.01733l1.43469-3.17383,.66827-1.47852,.04089-.09058Z" style="fill:#4e5968;"/></g><g><path d="M20.84003,5.77002c-.29004,1.67993-1.88,2.81006-3.55005,2.52002-.22998-.04004-.44995-.11011-.65997-.2002-.58002,.68018-1.47998,1.05029-2.41998,.88013-1.41003-.23999-2.36005-1.59985-2.12-3.02002,.23999-1.41992,1.58997-2.37988,3.00995-2.12988h.01001c.60004-1.15015,1.88-1.84009,3.23004-1.61011,1.66998,.29004,2.78998,1.87988,2.5,3.56006Z" style="fill:#d5d5d5;"/><path d="M23.74176,8.91235c1.21887,0,2.20697-.99243,2.20697-2.2168,0-1.22412-.9881-2.21655-2.20697-2.21655s-2.20697,.99243-2.20697,2.21655c0,1.22437,.9881,2.2168,2.20697,2.2168Z" style="fill:#d5d5d5;"/></g></g></svg>