<?xml version="1.0" encoding="UTF-8"?><svg id="Layer_1" xmlns="http://www.w3.org/2000/svg" viewBox="0 0 40 40"><g><g><path d="m16.893,28.83l-.014-.002s-.031-.073-.077-.198c-.022-.053-.046-.104-.067-.159-1.49,8.256-7.219,7.126-11.012,7.5-1.11.109-3.219.283-3.72.432-.683.203-.669.945.036,1.045,1.865.263,5.046.57,10.787.17,5.346-.373,7.13-3.646,7.725-5.985-1.292-.291-2.836-1.029-3.656-2.802Z" fill="#eb7f27"/><path d="m34.027,7.039c.027.009.049.026.075.035l1.358-3.297c.053-.129-.039-.27-.179-.268-.458.006-1.4.153-2.267,1.137-.192.218-.348.448-.488.68l.407,1.463c.405.062.777.145,1.094.249Z" fill="#de8135"/><path d="m31.981,19.003c-.813.064-1.761.586-1.241,2.174.14.426.59,1.649,1.331,2.89.731,1.226,1.746,2.47,3.027,2.988.62.25,1.186-.456.807-1.007-.074-.107-.165-.222-.277-.343-.787-.854-1.47-2.363-2.11-4.337-.15-.463-.299-.944-.445-1.457,0,0-.277-.973-1.09-.909Z" fill="#eb7f27"/><path d="m28.684,22.941l-2.568,2.637c.367,1.2.482,2.422.31,3.857,2.048-.923,3.618-2.051,4.798-3.283.191-.199.186-.515.001-.719l-.138-.153-2.111-2.333c-.078-.086-.212-.088-.292-.005Z" fill="#eb7f27"/></g><path d="m37.8,10.51l-1-.52c-.33-.2-.59-.51-.72-.88-.32-.94-1.05-1.7-1.98-2.04-.02-.01-.05-.02-.07-.03-.32-.1-.69-.19-1.1-.25l-.4-1.46-.84-3c-.04-.13-.19-.18-.3-.1-.36.29-1.01.98-1.09,2.29-.06.95.19,1.8.45,2.41-1.29.62-1.34,2.26-1.34,2.26l-.19,3.31c-.09,1.7-1.11,3.22-2.67,3.91-2.68,1.21-5.75,2.84-7.99,4.57-2.35,1.81-2.44,4.36-2.17,6.06v.04c.07.52.19.98.34,1.39.03.06.05.11.07.16.03.07.06.13.09.2.82,1.77,2.37,2.51,3.66,2.8.63.14,1.2.18,1.59.19.12,0,.22.09.22.21v4.2c0,.67.54,1.22,1.21,1.22h10.87c.2,0,.32-.23.21-.39l-.32-.46c-.31-.42-.78-.7-1.3-.76l-6.57-.72c-.74-.09-1.27-.82-1.04-1.54.53-1.6.86-2.95,1.01-4.14.17-1.44.05-2.66-.31-3.86l2.56-2.64c.08-.08.22-.08.3.01l2.11,2.33c.36-.4.69-.8.98-1.21-.74-1.25-1.19-2.47-1.33-2.89-.52-1.59.43-2.11,1.24-2.18.81-.06,1.09.91,1.09.91.15.51.3,1,.45,1.46,1.27-3.32.89-6.56.61-8-.07-.38-.17-.82.22-.77l.98.18c1.01.15,2.03-.21,2.73-.93l-.26-1.34Zm-3.08-.05c-.34,0-.62-.28-.62-.62,0-.35.28-.62.62-.62.35,0,.63.27.63.62,0,.34-.28.62-.63.62Z" fill="#ff943d"/><path d="m34.724,9.216c-.344,0-.623.279-.623.623s.279.623.623.623.623-.279.623-.623-.279-.623-.623-.623Z"/><path d="m38.419,10.892c-.181-.247-.616-.385-.616-.385h0l.257,1.338v.004s.666-.539.359-.957Z" fill="#474747"/></g><rect width="40" height="40" fill="none"/></svg>