<?xml version="1.0" encoding="UTF-8"?><svg id="Layer_1" xmlns="http://www.w3.org/2000/svg" viewBox="0 0 40 40"><g><path d="m13.483,32.164l21.414,1.04c.8.039,1.47-.599,1.47-1.401v-3.963c0-3.052-2.474-5.526-5.526-5.526H3.633s0,0,0,0c0,5.44,4.41,9.85,9.85,9.85Z" fill="#0a9f60"/><ellipse cx="32.027" cy="26.251" rx="1.124" ry="1.73" fill="#191f28"/><path d="m32.549,24.095c-.202,0-.392-.122-.469-.321-.014-.037-1.448-3.68-5.185-7.716-3.442-3.719-9.604-8.544-19.412-10.418-.273-.052-.452-.315-.4-.589.052-.273.316-.448.588-.399,19.34,3.695,25.289,18.609,25.347,18.76.1.259-.029.55-.289.65-.06.022-.121.033-.181.033Z" fill="#0a9f60"/><g><path d="m20.733,33.754c1.467,1.467,3.846,1.467,5.314,0,1.467-1.467,1.467-3.846,0-5.314-.872-.872-6.771-4.897-11.418-8.021-1.258-.846-2.763.658-1.917,1.917,3.125,4.647,7.15,10.547,8.021,11.418Z" fill="#036d50"/><path d="m5.425,32.896c1.709,0,3.238-1.062,3.835-2.663l3.516-9.432c.145-.429.618-.649,1.039-.484.407.159.608.619.448,1.026l-5.069,12.558-.025-.01v.01h-5v-1.004h1.255Z" fill="#036d50"/></g></g><rect width="40" height="40" fill="none"/></svg>