<?xml version="1.0" encoding="UTF-8"?><svg id="Layer_1" xmlns="http://www.w3.org/2000/svg" viewBox="0 0 40 40"><g><path d="M30.34349,24.46736c2.06691-2.71626,1.55452-6.58311-1.14445-8.63686-2.69897-2.05375-6.56247-1.51668-8.62938,1.19958-2.06691,2.71626-1.16309,5.96408,1.53588,8.01783,2.69897,2.05375,6.17104,2.13571,8.23795-.58055Z" style="fill:#946759;"/><circle cx="35.84421" cy="9.23651" r="1.94094" style="fill:#946759;"/><path d="M26.5163,9.69222h-1.9017c-.448,0-.85569,.25875-1.04642,.66412l-3.6708,7.80204,8.00214,8.13334,2.56217-1.16505c2.49027-1.13235,4.54817-3.13073,5.54158-5.69273,.22461-.57926,.39268-1.18406,.46615-1.79533l-9.95314-7.94639Z" style="fill:#946759;"/><path d="M30.67957,18.85327c.01862-.57886,.34698-1.07043,.81805-1.33398-.55011-.24121-.94171-.78125-.95508-1.42139-.01654-.7937,.55273-1.4585,1.31036-1.59424-.71375-.12866-1.27142-.73291-1.30713-1.48828-.0415-.87793,.63666-1.62329,1.51471-1.66479l3.94391-.28967,.48645-7.56091c.04907-.76282-.5564-1.40857-1.32086-1.40857h-8.46222c-.698,0-1.276,.54211-1.3208,1.23865l-.4093,6.36206h2.92944c.92914,0,1.53705,.9812,1.12347,1.81323-.66748,1.34302-2.05341,2.26587-3.65485,2.26587h-.66052l-.42407,6.59143c-.04907,.76282,.5564,1.40857,1.3208,1.40857h8.46222c.63959,0,1.1582-.46338,1.27832-1.07544l-3.13324-.20068c-.87854-.02832-1.56787-.76343-1.53967-1.64185Z" style="fill:#4e5968;"/><g><path d="M30.54578,13.01538c.03571,.75537,.59338,1.35962,1.30713,1.48828,.08118-.0144,.16266-.02832,.24768-.03015l3.98785-.1875c.18573-.00378,.36206,.02966,.53046,.08142,.72241-.22217,1.23431-.90564,1.19702-1.69543-.04419-.93542-.83838-1.65808-1.77386-1.61389l-.03766,.00281-3.94391,.28967c-.87805,.0415-1.55621,.78687-1.51471,1.66479Z" style="fill:#946759;"/><path d="M37.81921,15.94604c-.01569-.75061-.51978-1.36963-1.20032-1.57861-.1684-.05176-.34473-.08521-.53046-.08142l-3.98785,.1875c-.08502,.00183-.1665,.01575-.24768,.03015-.75763,.13574-1.3269,.80054-1.31036,1.59424,.01337,.64014,.40497,1.18018,.95508,1.42139,.24396-.13647,.52405-.21533,.82379-.20581l3.27069,.00085c.34698,.01111,.66559,.12659,.92847,.31409,.75848-.18188,1.31561-.87061,1.29865-1.68237Z" style="fill:#946759;"/><path d="M35.5921,17.31433l-3.27069-.00085c-.29974-.00952-.57983,.06934-.82379,.20581-.47107,.26355-.79944,.75513-.81805,1.33398-.0282,.87842,.66113,1.61353,1.53967,1.64185l3.13324,.20068,.13074,.0083c.9361,.03003,1.7193-.70435,1.74933-1.64038,.01892-.58911-.26562-1.11694-.71198-1.4353-.26288-.1875-.58148-.30298-.92847-.31409Z" style="fill:#946759;"/><path d="M29.03058,11.50537c.41357-.83203-.19434-1.81323-1.12347-1.81323h-3.35577l-.63123,4.0791h1.45563c1.60144,0,2.98737-.92285,3.65485-2.26587Z" style="fill:#946759;"/></g><path d="M13.21761,37.97223H2.43863v-12H11.71224c1.37915,0,2.68374-.62604,3.5466-1.70192l4.45193-5.55101,9.36133,7.50684-5.3916,6.72363c-2.55664,3.19141-6.37109,5.02246-10.46289,5.02246Z" style="fill:#4e5968;"/></g><rect y="0" width="40" height="40" style="fill:none;"/></svg>