<?xml version="1.0" encoding="UTF-8"?><svg id="a" xmlns="http://www.w3.org/2000/svg" viewBox="0 0 40 40"><g><path d="M20,2.5C10.335,2.5,2.5,10.335,2.5,20s7.835,17.5,17.5,17.5,17.5-7.835,17.5-17.5S29.665,2.5,20,2.5Zm0,32.373c-8.214,0-14.873-6.659-14.873-14.873S11.786,5.127,20,5.127s14.873,6.659,14.873,14.873-6.659,14.873-14.873,14.873Z" fill="#a8c3d7"/><path d="M20,5.127c-8.214,0-14.873,6.659-14.873,14.873s6.659,14.873,14.873,14.873,14.873-6.659,14.873-14.873-6.659-14.873-14.873-14.873Zm-5.532,4.698c1.342-.775,3.059-.315,3.834,1.027,.775,1.342,.315,3.059-1.027,3.834-1.342,.775-3.059,.315-3.834-1.027-.775-1.343-.315-3.059,1.027-3.834Zm3.426,19.705c-.564,.977-1.812,1.311-2.788,.747-.976-.564-1.311-1.812-.747-2.788,.564-.977,1.812-1.311,2.788-.747,.976,.564,1.311,1.812,.747,2.788Zm10.827-3.362c-1.072-.39-1.711-1.424-1.665-2.506l-1.807-.658c-.891,1.644-2.611,2.773-4.612,2.773-2.647,0-4.816-1.958-5.19-4.501h-2.456c-.303,.746-1.032,1.273-1.886,1.273-1.125,0-2.038-.913-2.038-2.038s.912-2.038,2.038-2.038c.854,0,1.583,.527,1.886,1.272h2.456c.374-2.543,2.543-4.501,5.189-4.501,.686,0,1.337,.141,1.938,.379l1.223-2.118c-.27-.346-.437-.776-.437-1.249,0-1.128,.914-2.042,2.042-2.042s2.042,.914,2.042,2.042-.914,2.042-2.042,2.042c-.095,0-.186-.015-.278-.028l-1.231,2.131c1.215,.965,2.01,2.437,2.01,4.11,0,.364-.037,.72-.107,1.063l1.784,.649c.66-.858,1.815-1.24,2.886-.85,1.324,.482,2.007,1.946,1.525,3.271-.482,1.324-1.946,2.007-3.27,1.525Z" fill="#d4e7ff"/><g><path d="M17.147,26.742c-.976-.564-2.225-.229-2.788,.747-.564,.976-.229,2.225,.747,2.788,.976,.564,2.225,.229,2.788-.747,.564-.976,.229-2.225-.747-2.788Z" fill="#fa878f"/><path d="M17.274,14.687c1.342-.775,1.802-2.492,1.027-3.834-.775-1.343-2.492-1.802-3.834-1.027-1.342,.775-1.802,2.491-1.027,3.834,.775,1.342,2.492,1.802,3.834,1.027Z" fill="#fa878f"/></g><path d="M31.99,24.64c-.48,1.33-1.95,2.01-3.27,1.53-1.07-.39-1.71-1.43-1.66-2.51l-1.81-.66c-.89,1.65-2.61,2.78-4.61,2.78-2.65,0-4.82-1.96-5.19-4.5h-2.46c-.3,.74-1.03,1.27-1.88,1.27-1.13,0-2.04-.91-2.04-2.04s.91-2.04,2.04-2.04c.85,0,1.58,.53,1.88,1.27h2.46c.37-2.54,2.54-4.5,5.19-4.5,.68,0,1.33,.14,1.93,.38l1.23-2.12c-.27-.34-.44-.77-.44-1.24,0-1.13,.91-2.05,2.04-2.05s2.04,.92,2.04,2.05c0,1.12-.91,2.04-2.04,2.04-.09,0-.18-.02-.28-.03l-1.23,2.13c1.22,.97,2.01,2.44,2.01,4.11,0,.36-.03,.72-.1,1.06l1.78,.65c.66-.86,1.81-1.24,2.89-.85,1.32,.48,2,1.95,1.52,3.27Z" fill="#f56570"/></g><rect width="40" height="40" fill="none"/></svg>