<svg id="Layer_1" data-name="Layer 1" xmlns="http://www.w3.org/2000/svg" viewBox="0 0 40 40"><defs><style>.cls-1{fill:#ffc84d;}.cls-2{fill:#f80;}.cls-3{fill:none;}</style></defs><circle class="cls-1" cx="20" cy="20" r="17.5"/><circle cx="15.491" cy="16.877" r="2.166"/><ellipse cx="24.509" cy="16.522" rx="2.129" ry="2.521"/><path d="M15.09,12.618a5.4,5.4,0,0,1,2.355.727c.316.173.59-.06.456-.421a3.014,3.014,0,0,0-2.68-1.8,3.017,3.017,0,0,0-2.953,1.307c-.2.333.035.609.377.494A5.4,5.4,0,0,1,15.09,12.618Z"/><path d="M25.043,9.618a5.4,5.4,0,0,0-2.355.727c-.316.173-.591-.06-.456-.421a3.014,3.014,0,0,1,2.68-1.8,3.015,3.015,0,0,1,2.952,1.307c.2.333-.034.609-.376.494A5.4,5.4,0,0,0,25.043,9.618Z"/><path class="cls-2" d="M25.7,25.138H14.3a1,1,0,0,1,0-2H25.7a1,1,0,0,1,0,2Z"/><rect class="cls-3" width="40" height="40" transform="translate(40 40) rotate(-180)"/></svg>