<svg id="Layer_1" data-name="Layer 1" xmlns="http://www.w3.org/2000/svg" viewBox="0 0 40 40"><defs><style>.cls-1{fill:#333;}.cls-2{fill:#d12030;}.cls-3{fill:#d5d5d5;}.cls-4{fill:#5c2f17;}.cls-5{fill:#f0f3f6;}.cls-6{fill:none;}</style></defs><path class="cls-1" d="M28.033,28.136l-4.214-1.6a10.75,10.75,0,0,0-7.638,0l-4.214,1.6A9.312,9.312,0,0,0,7.2,32.207a9.411,9.411,0,0,0-.923,2.453l-.538,2.189a.525.525,0,0,0,.509.651H33.756a.525.525,0,0,0,.509-.651l-.538-2.189a9.411,9.411,0,0,0-.923-2.453A9.312,9.312,0,0,0,28.033,28.136Z"/><path class="cls-2" d="M7.3,21.082A63.413,63.413,0,0,1,16.741,37.5h6.4a63.378,63.378,0,0,1,9.445-16.418.862.862,0,0,0-.674-1.4H7.97A.862.862,0,0,0,7.3,21.082Z"/><circle class="cls-3" cx="20" cy="15.924" r="9.16"/><ellipse cx="17.427" cy="15.481" rx="0.975" ry="1.17"/><ellipse cx="22.573" cy="15.481" rx="0.975" ry="1.17"/><path class="cls-3" d="M17.815,23.742h4.393a0,0,0,0,1,0,0v3.1a2.2,2.2,0,0,1-2.2,2.2h0a2.2,2.2,0,0,1-2.2-2.2v-3.1A0,0,0,0,1,17.815,23.742Z"/><rect class="cls-4" x="18.226" y="19.981" width="3.678" height="0.846"/><polygon class="cls-4" points="17.265 19.981 18.247 21.808 19.188 19.981 17.265 19.981"/><polygon class="cls-4" points="20.68 19.981 21.662 21.808 22.603 19.981 20.68 19.981"/><polygon class="cls-5" points="17.815 25.834 20.011 29.017 17.265 32.638 15.117 27.402 17.815 25.834"/><polygon class="cls-5" points="22.223 25.834 20.026 29.017 22.773 32.638 24.92 27.402 22.223 25.834"/><circle class="cls-1" cx="20" cy="34.323" r="0.935"/><path class="cls-1" d="M19.79,2.509,19.8,2.5l-.321.025c-.237.01-.472.011-.711.037-.066.007-.128.025-.193.033l-3.245.253a3.317,3.317,0,0,0-3.018,2.778l-.022.136-.969.283A2.862,2.862,0,0,0,9.27,8.8l.02,4.611.113-.246c0,.115-.014.234-.009.349,0,0,.895-.214,1.692,1.516l.245-.115c.449-3.5,2.586-6.151,5.159-6.151a4.546,4.546,0,0,1,3.59,2.042,4.544,4.544,0,0,1,3.589-2.042c2.4,0,4.423,2.312,5.047,5.465.2,0,.394-.006.583-.019.106-.007.235-.416.356-.468.323-.182.594-.519.842-.447A10.626,10.626,0,0,0,19.79,2.509Z"/><path class="cls-3" d="M24.488,18.2a4.5,4.5,0,1,0,6.667-6.033Z"/><path class="cls-3" d="M15.117,18.2A4.5,4.5,0,0,1,8.45,12.168Z"/><rect class="cls-6" width="40" height="40"/></svg>