<?xml version="1.0" encoding="UTF-8"?><svg id="Layer_1" xmlns="http://www.w3.org/2000/svg" viewBox="0 0 40 40"><g><path d="M28.03285,28.13554l-4.21394-1.60091c-2.46018-.93464-5.1777-.93464-7.63788,0l-4.2139,1.6009c-2.02836,.77059-3.70752,2.21768-4.77147,4.07118-.43651,.76044-.71291,1.60217-.92243,2.45359l-.53866,2.18902c-.08144,.33095,.16908,.65058,.5099,.65058h27.51106c.34082,0,.59134-.31964,.5099-.65058l-.5387-2.18908c-.20952-.8514-.48593-1.69312-.92243-2.45355-1.06395-1.85348-2.7431-3.30056-4.77144-4.07114Z" style="fill:#3e26b1;"/><g><path d="M23.81677,24.2417h3.89899c.85571,0,1.58417-.62256,1.71759-1.46765l.55707-3.52869c-.4881,.22961-1.03003,.37183-1.61041,.37463-.90247,2.04639-2.53534,3.69031-4.56323,4.6217Z" style="fill:#523725;"/><path d="M11.62,19.62c-.75317-.00378-1.45435-.22241-2.0368-.59375l.97046,3.89685c.19293,.77478,.88879,1.3186,1.68732,1.3186h3.94226c-2.02789-.9314-3.66077-2.57532-4.56323-4.6217Z" style="fill:#523725;"/><path d="M11.19452,14.75488l5.79486-6.48425s7.33514,5.89087,12.17621,5.56946c.10657-.00708,.22968-.04407,.35114-.09607,.31116-.17517,.57373-.48669,.81439-.4447,.00891,.00171,.01843-.00439,.02728-.00195,.09253-6.28882-5.31793-11.42358-11.72546-10.73547-4.92798,.52917-8.87433,4.53442-9.33905,9.46887-.0473,.5022-.06921,1.05884-.04834,1.54602,0,0,.02252-.01245,.06085-.02881,.24335-.10388,1.18396-.37781,1.88812,1.20691Z" style="fill:#523725;"/></g><path d="M32.03003,16.17993c0-1.21301-.68298-2.26855-1.69891-2.88062-.24066-.04199-.50323,.26953-.81439,.4447-.12146,.052-.24457,.08899-.35114,.09607-4.84106,.32141-12.17621-5.56946-12.17621-5.56946l-5.79486,6.48425c-.70416-1.58472-1.64478-1.31079-1.88812-1.20691-.81012,.63074-1.33643,1.57043-1.33643,2.63196,0,1.18188,.64124,2.22668,1.61322,2.84631,.58246,.37134,1.28363,.58997,2.0368,.59375,.90247,2.04639,2.53534,3.69031,4.56323,4.6217,1.16302,.53418,2.45367,.83826,3.81677,.83826s2.65375-.30408,3.81677-.83826c2.02789-.9314,3.66077-2.57532,4.56323-4.6217,.58038-.00281,1.12231-.14502,1.61041-.37463,1.20233-.56555,2.03961-1.72107,2.03961-3.06543Z" style="fill:#c3846c;"/><path d="M21.21256,20.09288c.21907,0,.37469,.21046,.31657,.42168-.18466,.67114-.79933,1.16414-1.52915,1.16414s-1.34449-.493-1.52915-1.16414c-.05812-.21122,.0975-.42168,.31657-.42168h2.42515Z" style="fill:#5c2f17;"/><polygon points="22.80786 30.04455 17.21512 30.04455 17.81512 26.05879 17.81512 23.67886 22.20786 23.67886 22.20786 26.06364 22.80786 30.04455" style="fill:#c3846c;"/><polygon points="22.78481 30.04454 20.00002 30.04454 17.21511 30.04454 11.92117 37.50011 20.00002 37.50011 28.07888 37.50011 22.78481 30.04454" style="fill:#786de7;"/><g><path d="M20.40302,13.87842c-.23572,.17554-.54736,.17554-.78302,0-3.7807-2.81519-9.14026-.16382-9.14026-.16382,0,0,2.87097,4.61841,5.79932,4.86694,1.79779,.15259,2.79486-.70435,3.29681-1.38879,.21436-.29236,.65686-.29236,.87122,0,.50195,.68445,1.49902,1.54138,3.29669,1.38879,2.92847-.24854,5.79944-4.86694,5.79944-4.86694,0,0-5.35968-2.65137-9.1402,.16382Zm-3.65906,3.39331c-1.24042,0-2.24597-.75232-2.24597-1.68042s1.00555-1.68042,2.24597-1.68042,2.24591,.75232,2.24591,1.68042-1.00555,1.68042-2.24591,1.68042Zm6.27502,0c-1.24042,0-2.24591-.75232-2.24591-1.68042s1.00549-1.68042,2.24591-1.68042,2.24591,.75232,2.24591,1.68042-1.00549,1.68042-2.24591,1.68042Z" style="fill:#ef3452;"/><ellipse cx="17.31467" cy="15.59133" rx=".97477" ry="1.16973"/><ellipse cx="22.68774" cy="15.59133" rx=".97477" ry="1.16973"/></g></g><rect y="0" width="40" height="40" style="fill:none;"/></svg>