<svg id="Layer_1" data-name="Layer 1" xmlns="http://www.w3.org/2000/svg" viewBox="0 0 40 40"><defs><style>.cls-1{fill:#3b3634;}.cls-2{fill:#945c16;}.cls-3{fill:#767676;}.cls-4{fill:#f0e9e4;}.cls-5{fill:none;}</style></defs><path class="cls-1" d="M15.867,8.146A17.874,17.874,0,0,0,3.648,16.97a8.891,8.891,0,0,1-.856,1.366A11.636,11.636,0,0,0,.415,25.744a12.375,12.375,0,0,0,3.2-5.859.078.078,0,0,1,.155,0l1.685,17.2a.387.387,0,0,0,.384.336H8.371a.387.387,0,0,0,.384-.337l.9-9.891a.129.129,0,0,1,.256,0l.875,9.89a.387.387,0,0,0,.384.338h3.216a.386.386,0,0,0,.386-.362l.213-6.225c.572-5.926,3.649-6.141,3.649-6.141L20.2,37.1a.387.387,0,0,0,.382.324h3.466a.386.386,0,0,0,.386-.364l.4-9.717,1.327,9.768a.387.387,0,0,0,.38.313H30.1a.386.386,0,0,0,.386-.415l-.723-12.995Z"/><path class="cls-2" d="M31.786,10.117A12.584,12.584,0,0,0,21.1,4.931c-7.311.156-14.528,8.09-14.528,8.09S16.913,11.935,18.2,22.354c1.013,12.107,13.4,7.418,13.4,7.418L29.5,23.7Z"/><path class="cls-1" d="M38.913,14.545a4.033,4.033,0,0,1-1.232-2.22,4.42,4.42,0,0,0-3.762-3.606c-4.435-.937-6.889,3.146-7.149,4.57S24.65,23.066,31.6,29.772h0a16.191,16.191,0,0,0,2.644-5.248l2-6.852s3.011.449,3.309-1.349A1.894,1.894,0,0,0,38.913,14.545Z"/><path class="cls-3" d="M36.781,17.719a38.546,38.546,0,0,0-.643,5.121,1.55,1.55,0,0,1-.773,1.337,2.659,2.659,0,0,1-1.708.231,4.311,4.311,0,0,1-3.565-2.452c-.389-.936-1.394-4.96,1.2-5.595s5.487,1.357,5.489,1.358Z"/><path class="cls-4" d="M30.869,12.85a.124.124,0,0,0-.172-.145c-.736.392-3.038,1.846-1.751,3.8,1.446,2.2,2.8,1.691,3.121,1.4s.613-1.538.214-1.661C32.281,16.244,30.1,16.333,30.869,12.85Z"/><circle cx="33.271" cy="19.208" r="0.865"/><rect class="cls-5" width="40" height="40"/></svg>