<?xml version="1.0" encoding="UTF-8"?><svg id="Layer_1" xmlns="http://www.w3.org/2000/svg" viewBox="0 0 40 40"><g><path d="M3.85167,37.48463h31.46264c.83813,0,1.41651-.85027,1.09409-1.6239-1.25042-3.00029-5.14441-9.109-16.1234-9.109-12.38203,0-16.0692,7.76977-16.89369,10.08772-.11208,.31511,.12591,.64518,.46036,.64518Z" style="fill:#abb7c7;"/><path d="M16.70156,24.38502v3.1194c0,.12713,.06699,.23986,.18153,.29502,.55755,.26852,2.32116,.95652,4.19242,.00461,.11186-.0569,.18476-.17877,.18476-.30427v-3.11476h-4.55872Z" style="fill:#ffb582;"/><g><path d="M23.26318,24.75415h3.97656c.87585,0,1.62152-.63721,1.75806-1.5022l.57056-3.61426c-.49902,.23438-1.05353,.37939-1.64838,.38232-.91949,2.09277-2.586,3.77734-4.6568,4.73413Z" style="fill:#ffdb87;"/><path d="M10.77002,20.02002c-.77515-.00366-1.49414-.22656-2.09039-.60522l.99353,3.98975c.19751,.79297,.90979,1.34961,1.72711,1.34961h4.01709c-2.06995-.95679-3.73419-2.64136-4.64734-4.73413Z" style="fill:#ffdb87;"/><path d="M10.07605,15.32715l6.18451-6.92041s7.508,6.02979,12.46313,5.70068c.10913-.00732,.23511-.04517,.35944-.09839,.31909-.17969,.58832-.49976,.83502-.45508,.00867,.00146,.01788-.00439,.02649-.00195,.09473-6.43726-5.44324-11.69287-12.00177-10.98853-5.04413,.5415-9.0835,4.64136-9.55914,9.69214-.0484,.51392-.06073,1.02124-.03931,1.51978,0,0,.03705-.00464,.08887-.0061,.24084-.00659,.97186,.10132,1.64276,1.55786Z" style="fill:#ffdb87;"/><path d="M31.65002,16.5c0-1.23779-.69464-2.31885-1.73187-2.94604-.2467-.04468-.51593,.27539-.83502,.45508-.12433,.05322-.25031,.09106-.35944,.09839-4.95514,.3291-12.46313-5.70068-12.46313-5.70068l-6.18451,6.92041c-.6709-1.45654-1.40192-1.56445-1.64276-1.55786-.85187,.64453-1.40326,1.62378-1.40326,2.73071,0,1.21338,.65356,2.28198,1.6496,2.91479,.59625,.37866,1.31525,.60156,2.09039,.60522,.91315,2.09277,2.57739,3.77734,4.64734,4.73413,1.19421,.552,2.52142,.86597,3.92267,.86597s2.72845-.31396,3.92316-.86597c2.0708-.95679,3.7373-2.64136,4.6568-4.73413,.59485-.00293,1.14935-.14795,1.64838-.38232,1.22906-.57715,2.08167-1.75781,2.08167-3.1377Z" style="fill:#ffb582;"/></g><polygon points="21.09664 11.47474 22.3014 16.40983 24.02658 16.69349 21.09664 11.47474" style="fill:#8a664c;"/><path d="M18.2373,13.62509s1.91994,4.35616,1.83741,4.27364,.96281-.71523,.96281-.71523l-1.67804-3.4111-1.12218-.14731Z" style="fill:#8a664c;"/><path d="M16.20883,17.1645s-.69574-1.07023,.25061-1.66959,1.17007,1.66959,1.17007,1.66959c0,0,6.85256,6.73611,5.92117,7.40017-.43403,.30945-1.10591,.5415-1.67656,.69741,0,0-4.78634-6.13382-5.66529-8.09759Z" style="fill:#8a664c;"/><path d="M32.11225,14.75055c-.60967-.27307-1.31839-.06028-1.70901,.4748l-1.10359,1.51171c-.15091,.20672-.47402,.1382-.53815-.11412l-.13951-.54886-1.41479-5.5c-.20301-.79737-1.05351-1.26205-1.82872-.9496-.62255,.25092-.94224,.95079-.77295,1.61569l.98495,3.86849c.01492,.0586-.06751,.0853-.09048,.02931l-1.9073-4.64853c-.26066-.63528-.93651-1.01264-1.58847-.85074-.81185,.2016-1.22021,1.07412-.9076,1.83606l1.85562,4.5226c.02272,.05538-.05333,.0941-.08465,.0431l-2.3287-3.79256c-.35924-.58507-1.08501-.84576-1.69994-.57692-.76578,.33478-1.02613,1.2661-.59522,1.96786l2.27288,3.70155c.0318,.05178-.03893,.10273-.07721,.05562l-1.86005-2.26722c-.43257-.53224-1.18452-.69231-1.75677-.34146-.71263,.43691-.84668,1.39745-.32782,2.03583l3.54226,4.33717h0l1.92236,2.44994c1.03088,1.29372,2.75483,1.78024,4.26767,1.20437l1.33512-.50821c1.24173-.47266,2.25755-1.39996,2.85006-2.60171l2.46028-4.99-.00155-.00059c.323-.7087,.03466-1.6082-.75872-1.96355Z" style="fill:#f7a66f;"/><path d="M22.80902,24.48507l7.72194-2.49213c.19564-.06314,.40542,.04427,.46856,.23991l5.56108,13.82608c.27463,.68279-.22731,1.42701-.96326,1.42822l-7.83409,.01285-5.19414-12.54637c-.06314-.19564,.04427-.40542,.23991-.46856Z" style="fill:#d0d6de;"/><path d="M18.17858,23.35508c-.21023,0-.35957-.20196-.3038-.40466,.17721-.64406,.76707-1.11716,1.46743-1.11716s1.29022,.47311,1.46743,1.11716c.05577,.2027-.09357,.40466-.3038,.40466h-2.32727Z" style="fill:#5c2f17;"/></g><rect x="0" y="0" width="40" height="40" style="fill:none;"/></svg>