<?xml version="1.0" encoding="UTF-8"?><svg id="Layer_1" xmlns="http://www.w3.org/2000/svg" viewBox="0 0 40 40"><g><ellipse cx="20" cy="6.198" rx="3.005" ry="1.698" fill="#104be0"/><path d="m20,6.027C6.374,6.027,3.054,17.197,2.249,22.29c-.233,1.476.256,2.971,1.332,4.009h0s16.419-1.385,16.419-1.385l16.419,1.385h0c1.076-1.037,1.566-2.532,1.332-4.009-.805-5.093-4.124-16.263-17.751-16.263Z" fill="#2f81f9"/><path d="m5.031,25.026l-.567.146c-.642.165-1.091.744-1.091,1.407l.508,3.645c.512,3.668,4.138,6.044,7.705,5.049l2.841-.793c3.645-1.017,7.499-1.017,11.145,0l2.841.793c3.567.995,7.194-1.381,7.705-5.049l.508-3.645c0-.663-.449-1.242-1.091-1.407l-.567-.146c-9.82-2.522-20.118-2.522-29.938,0Z" fill="#1033e0"/></g><rect width="40" height="40" fill="none"/></svg>