<?xml version="1.0" encoding="UTF-8"?><svg id="Layer_1" xmlns="http://www.w3.org/2000/svg" viewBox="0 0 40 40"><g><g><path d="M34.5114,26.97555c3.34368-4.66531,4.35975-10.34051,2.71797-15.18219-.86442-2.5489-2.52756-4.5159-4.68384-5.53816-1.82827-.86723-3.87446-.98856-5.61511-.34038-1.64572,.61785-3.1381,1.75132-4.31819,3.27684l-2.61223,3.38124-2.61223-3.38124c-1.18009-1.52552-2.67247-2.65899-4.31819-3.27684-1.74064-.64818-3.78684-.52686-5.61511,.34038-2.15629,1.02226-3.81942,2.98926-4.68384,5.53816-1.64179,4.84167-.62571,10.51688,2.71797,15.18219,.54237,.75665,1.14217,1.44239,1.76662,2.09401l-.61265,.79302c-.97058,1.25704-.73917,3.06227,.51787,4.03398,.52348,.40441,1.14189,.59987,1.75581,.59987,.86049,0,1.71144-.38419,2.27817-1.11774l.63568-.82279c2.40392,1.2628,5.07084,1.94053,7.84202,1.94053h.65576c2.77118,0,5.43811-.67774,7.84202-1.94053l.63568,.82279c.56673,.73355,1.41768,1.11774,2.27817,1.11774,.61392,0,1.23232-.19546,1.75581-.59987,1.25704-.9717,1.48845-2.77694,.51787-4.03398l-.61265-.79302c.62445-.65162,1.22425-1.33736,1.76662-2.09401Zm-24.34795-3.35098c-2.23267-3.11395-2.97802-6.94011-1.94566-9.98441,.46114-1.36039,1.18009-1.94116,1.70189-2.1883,.53416-.25276,.97564-.20782,1.13122-.15053,.64256,.24152,1.26097,.72794,1.78614,1.40757l3.52889,4.56786-5.54111,7.17236c-.22565-.26806-.45313-.53395-.66138-.82454Zm10.16443,5.12027h-.65576c-1.46942,0-2.89644-.30352-4.23401-.85916l4.56189-5.905,4.56189,5.905c-1.33757,.55564-2.76458,.85916-4.23401,.85916Zm3.30618-11.46808l3.52889-4.56786c.52517-.67963,1.14358-1.16605,1.78614-1.40757,.15559-.05729,.59706-.10223,1.13122,.15053,.5218,.24714,1.24075,.82792,1.70189,2.1883,1.03237,3.0443,.28702,6.87046-1.94566,9.98441-.20824,.2906-.43572,.55648-.66138,.82454l-5.54111-7.17236Z" style="fill:#cf712d;"/><path d="M16.36594,17.27683l-5.54118,7.17236c1.30092,1.54539,2.87495,2.71438,4.61328,3.43649l4.56196-5.90493-3.63406-4.70392Z" style="fill:#b06026;"/><path d="M6.64257,29.86258c-.97058,1.25704-.73917,3.06227,.51787,4.03398,.52348,.40441,1.14189,.59987,1.75581,.59987,.86049,0,1.71144-.38419,2.27817-1.11774l.63561-.82279c-1.67584-.88036-3.21077-2.06298-4.57481-3.48634l-.61265,.79302Z" style="fill:#b06026;"/><polygon points="14.94325 19.11831 16.36594 17.27683 20 21.98075 18.01172 24.55435 14.94325 19.11831" style="fill:#965220;"/></g><path d="M28.1699,32.5559l-3.60802-4.67022,2.12441,5.36117s.87508-.35911,1.48361-.69095Z" style="fill:#965220;"/></g><rect width="40" height="40" style="fill:none;"/></svg>