<?xml version="1.0" encoding="UTF-8"?><svg id="Layer_1" xmlns="http://www.w3.org/2000/svg" viewBox="0 0 40 40"><g><path d="m34.505,16.852c.086-.608.043-1.233-.11-1.844l-3.24,1.532c.789,1.665,1.243,3.519,1.243,5.483,0,7.091-5.748,12.84-12.839,12.84s-12.839-5.749-12.839-12.84,5.748-12.839,12.839-12.839v-3.718c-1.116.003-2.142.383-2.96,1.02-.633.493-1.417.703-2.211.59-1.034-.146-2.122.037-3.097.6-.971.561-1.673,1.407-2.064,2.371-.302.743-.876,1.317-1.62,1.617-.969.39-1.819,1.093-2.382,2.068-.561.971-.745,2.054-.602,3.085.111.795-.1,1.579-.594,2.21-.644.822-1.029,1.857-1.029,2.982s.382,2.152,1.021,2.973c.493.633.703,1.417.59,2.211-.146,1.034.038,2.122.6,3.097.561.971,1.407,1.673,2.371,2.064.743.302,1.317.876,1.617,1.62.39.969,1.094,1.819,2.068,2.382.971.561,2.055.745,3.085.602.795-.111,1.578.1,2.21.594.822.644,1.857,1.029,2.982,1.029s2.152-.382,2.973-1.021c.633-.493,1.417-.703,2.211-.59,1.034.146,2.122-.038,3.097-.6.971-.561,1.673-1.407,2.064-2.371.302-.743.876-1.317,1.62-1.617.969-.39,1.819-1.093,2.382-2.068.561-.971.745-2.055.602-3.085-.111-.795.1-1.579.594-2.21.644-.822,1.029-1.857,1.029-2.982s-.382-2.152-1.021-2.973c-.493-.633-.703-1.417-.59-2.211Z" fill="#965220"/><path d="m19.558,9.184c-7.257,0-13.108,6.021-12.83,13.34.251,6.609,5.721,12.079,12.33,12.329,7.319.278,13.339-5.573,13.339-12.83,0-1.964-.454-3.818-1.243-5.483l-10.503,4.966c-.508.24-1.094-.13-1.094-.693v-11.63Z" fill="#ffb95e"/><path d="m33.76,12.494l3.24-1.532c-.107-.428-.259-.851-.491-1.253-.561-.971-1.407-1.673-2.371-2.064-.743-.302-1.317-.876-1.617-1.62-.39-.969-1.093-1.819-2.068-2.382-.971-.561-2.055-.745-3.085-.602-.795.111-1.578-.1-2.21-.594-.822-.644-1.857-1.029-2.982-1.029-.004,0-.009.001-.013.001v3.718c5.127,0,9.538,3.012,11.597,7.356Z" fill="#965220"/><path d="m22.163,5.137v11.63c0,.562.585.933,1.094.693l10.503-4.966c-2.058-4.344-6.47-7.356-11.597-7.356Z" fill="#ffb95e"/><circle cx="13.553" cy="19.46" r="1.567" fill="#ba5300"/><circle cx="26.395" cy="11.9" r="1.567" fill="#ba5300"/><circle cx="25.843" cy="25.789" r="1.567" fill="#ba5300"/><circle cx="16.686" cy="28.554" r="1.567" fill="#ba5300"/></g><rect width="40" height="40" fill="none"/></svg>