<?xml version="1.0" encoding="UTF-8"?><svg id="Layer_1" xmlns="http://www.w3.org/2000/svg" viewBox="0 0 40 40"><g><path d="M34.54819,17.76595c0-8.03476-6.51346-14.54822-14.54822-14.54822S5.45175,9.73119,5.45175,17.76595c0,1.1267,.1405,2.21857,.38292,3.27166,.26532,8.74441,6.49669,15.74465,14.1653,15.74465s13.90024-7.00037,14.16536-15.74491c.24236-1.05303,.38286-2.14483,.38286-3.27141Z" style="fill:#c3846c;"/><g><ellipse cx="8.18081" cy="21.23416" rx="5.68081" ry="5.3281" style="fill:#c3846c;"/><ellipse cx="31.81919" cy="21.23416" rx="5.68081" ry="5.3281" style="fill:#c3846c;"/></g><ellipse cx="16.01324" cy="20.14927" rx="1.51014" ry="1.81217"/><ellipse cx="23.98676" cy="20.14927" rx="1.51014" ry="1.81217"/><path d="M21.87854,28.22426c.33939,0,.58047,.32604,.49044,.65327-.28608,1.03974-1.23834,1.80351-2.36898,1.80351s-2.0829-.76377-2.36898-1.80351c-.09003-.32723,.15106-.65327,.49044-.65327h3.75708Z" style="fill:#5c2f17;"/></g><rect width="40" height="40" style="fill:none;"/></svg>