<?xml version="1.0" encoding="UTF-8"?><svg id="Layer_1" xmlns="http://www.w3.org/2000/svg" viewBox="0 0 40 40"><rect width="40" height="40" transform="translate(40 40) rotate(-180)" style="fill:none;"/><g><path d="M28.26312,1.14984c-1.57208-.73181-3.45453-.02332-4.20526,1.5824h-.00006l-.00018,.00043-.00024,.00043-.00073,.00208-.98016,2.48108,3.09003,7.84558,3.58508-7.67798-.00006-.00006,.00006-.00012c.75037-1.60632,.08398-3.50189-1.48846-4.23383Z" style="fill:#c3846c;"/><path d="M22.44891,2.74438l-.0141,.00659c-.02002-.04901-.02942-.09967-.052-.14819-.74823-1.60736-2.62866-2.31531-4.20007-1.58124-1.57147,.73401-2.23883,2.63214-1.4906,4.2395,.02246,.04822,.05493,.08777,.07941,.13434l-.01373,.00641,8.15228,17.50543,5.6911-2.65735L22.44891,2.74438Z" style="fill:#c3846c;"/><path d="M26.18268,23.86841v-5.33948H6.13684v5.33948c0,7.65643,6.20673,13.86322,13.86316,13.86322s13.86316-6.20679,13.86316-13.86322h-7.68048Z" style="fill:#c3846c;"/><path d="M23.07648,5.21625l-5.01483,10.46777v-.4613l.00006-.00061c0-1.69159-1.33734-3.06293-2.987-3.06293s-2.987,1.37134-2.987,3.06293h-.00006v1.70343c-.16187-1.53497-1.41479-2.73444-2.95471-2.73444-1.64966,0-2.987,1.37134-2.987,3.06299h-.00006v3.14636h.00006v.00006c0,1.08771,.55676,2.03705,1.39014,2.58051,.46265,.3017,1.008,.48242,1.59686,.48242,1.59503,0,2.88629-1.28534,2.97089-2.89929,.08459,1.61395,1.37592,2.89929,2.97089,2.89929,1.60321,0,2.90088-1.29828,2.97333-2.92389v.92529h2.52936l1.09125,1.22998,.57428-1.22998h1.58752v-3.3999l2.33606-5.00311-3.09003-7.84558Z" style="fill:#c3846c;"/><path d="M29.54156,18.61249c-.2713-.04413-.54462-.0835-.82843-.0835l-6.19098-.00006c-1.75885,0-3.18469,1.4259-3.18469,3.18475s1.42584,3.18475,3.18469,3.18475h2.73242c-1.72223,.87323-3.22321,2.11475-4.41125,3.61481-1.78339,2.25165-2.85474,5.09149-2.85474,8.18835h4.98846l8.24969-8.97705v-2.82611h1.71594c.50836,0,.92047-.41211,.92047-.92053v-.29889c0-2.56049-1.87372-4.66815-4.32159-5.06653Z" style="fill:#c3846c;"/><path d="M18.04803,20.53955c-.07245,1.62561-1.37012,2.92389-2.97333,2.92389-1.59497,0-2.88629-1.28534-2.97089-2.89929-.08459,1.61395-1.37585,2.89929-2.97089,2.89929-.58887,0-1.13422-.18073-1.59686-.48242,.51434,1.01038,1.53369,1.70758,2.72205,1.70758,.86731,0,1.64795-.37,2.20801-.96124,.71704,.5921,1.61633,.96124,2.60858,.96124,1.94904,0,3.57239-1.3736,4.03619-3.22375h-1.06287v-.92529Z" style="fill:#86584a;"/><path d="M25.25458,24.89844h-2.73242c-1.75885,0-3.18469-1.42584-3.18469-3.18475s1.42584-3.18475,3.18469-3.18475l6.19098,.00006c.28381,0,.55713,.03937,.82843,.0835-.79364-.88196-1.93207-1.44702-3.21198-1.44702h-4.0531v.02478c-2.39526,.13019-4.30255,2.0957-4.30255,4.52344,0,1.9176,1.19025,3.55042,2.86938,4.2193v2.58026c1.18805-1.50006,2.68903-2.74158,4.41125-3.61481Z" style="fill:#86584a;"/></g></svg>