<svg id="Layer_1" data-name="Layer 1" xmlns="http://www.w3.org/2000/svg" viewBox="0 0 40 40"><defs><style>.cls-1{fill:#076565;}.cls-2{fill:none;}</style></defs><path class="cls-1" d="M20,20.825l0,0a12.9,12.9,0,0,1,4.805.027l3.41.667a2.882,2.882,0,0,0,2.758-.918,5.789,5.789,0,0,0,1.162-3.1,10.078,10.078,0,0,0-5.879-9.926.676.676,0,0,1-.381-.612V5.742a.429.429,0,0,1,.428-.429h1.148c.325-2.33,1.918-1.439,1.918-1.439s6.543,3.415,7.99,13.2a12.042,12.042,0,0,1-2.28,9.139,14.222,14.222,0,0,1-4.79,4.114,1.7,1.7,0,0,0-.817,2.071l1.087,3.064a.622.622,0,0,1-.586.831h-2.3a.625.625,0,0,1-.58-.409c-1.169-3.081-3.05-5.121-5.07-5.013-1.9.1-3.48,2.082-4.357,4.964a.625.625,0,0,1-.605.449l-1.7-.033a.615.615,0,0,1-.611-.616,4.093,4.093,0,0,0-1.326-3.551c-2.087-1.568-6.384.5-9.957,4.155H2.5S9.02,22.432,20,20.825Z"/><circle cx="28.682" cy="6.269" r="0.781"/><rect class="cls-2" width="40" height="40"/></svg>