<?xml version="1.0" encoding="UTF-8"?><svg id="Layer_1" xmlns="http://www.w3.org/2000/svg" viewBox="0 0 40 40"><g><path d="m3.592,28.366h0l-2.332,3.757c-.169.273-.086.632.188.801l5.618,3.487c.161.1.374.022.431-.159l.137-.432c.299-.942.023-1.972-.706-2.639l-.809-.74,1.058-1.704.066-.106-3.651-2.267Z" fill="#4a4c7c"/><path d="m9.88,19.954c-.669-.351-.788-1.26-.232-1.771l2.225-2.047-1.384-2.91c-.45-.945-.223-2.129.637-2.725.358-.249.755-.359,1.148-.37-.635-.04-7.516-.296-10.125,7.308l-.033.108c-.806,2.663.552,5.501,3.132,6.545l.797.322,4.043,1.635.019.008,2.569-4.634-2.797-1.469Z" fill="#4a4c7c"/><path d="m20.436,36.192c-.243-.958-1.02-1.688-1.991-1.87l-1.077-.202v-2.13h-4.298v4.422c0,.321.261.582.582.582h6.613c.19,0,.329-.179.282-.363l-.111-.439Z" fill="#4a4c7c"/></g><g><path d="m36.944,29.091l-.053-.113-3.89,1.828h0l.906,1.928-.889.641c-.802.578-1.194,1.569-1.007,2.539l.086.445c.036.186.238.289.41.208l5.985-2.813c.291-.137.416-.483.279-.774l-1.828-3.889Z" fill="#37605f"/><path d="m24.498,34.121l-1.077.202c-.971.182-1.748.912-1.991,1.87l-.111.439c-.047.184.092.363.282.363h6.613c.321,0,.582-.26.582-.582v-4.422h-4.298v2.13Z" fill="#37605f"/><path d="m35.054,24.55c3.146-1.766,4.409-5.653,2.901-8.931l-.84-1.826s-2.58-5.093-5.973-4.513l-.002.002c-.005.006-.008.013-.013.02.541-.092,1.116.023,1.593.373.936.685,1.139,2,.454,2.936l-2.651,3.62.959,1.941c.349.706.185,1.557-.401,2.083l-3.083,2.769,2.385,4.148.72-.404,3.757-2.109.193-.108Z" fill="#37605f"/></g><g><polygon points="3.592 28.366 7.243 30.632 7.178 30.738 7.178 30.738 10.089 26.049 6.045 24.413 3.592 28.366" fill="#ffc74d"/><polygon points="36.944 29.091 36.944 29.091 34.861 24.659 31.103 26.768 33.002 30.807 36.891 28.979 36.944 29.091" fill="#ffc74d"/><g><path d="m21.06,18.74l-3.5-1.29c-.32-.11-.58-.35-.72-.66l-2.49-5.22c.99.37,2.11.4,3.16-.03,2.21-.9,3.27-3.42,2.37-5.63-.01-.01-.01-.02-.02-.04l-3.22,1.35c-.18-.77-.86-1.23-1.59-1.04-.79.2-1.33,1.07-1.22,1.93.05.37.21.67.44.89l-1.34,1.21c-.16-.05-.33-.08-.5-.09-.05,0-.11.01-.16.01-.39.01-.79.12-1.14.37-.86.6-1.09,1.78-.64,2.73l1.38,2.91,1.68,3.51c.29.62.81,1.09,1.44,1.33l4.7,1.73c.24.09.49.13.73.13.97,0,1.88-.68,2.07-1.74.19-1.02-.46-2-1.43-2.36Zm-2.59-10.34c.12-.36.38-.59.58-.53.2.07.27.41.15.77-.11.35-.37.58-.57.52-.2-.07-.27-.41-.16-.76Z" fill="#ffc74d"/><path d="m17.368,26.382c0-1.544-.858-2.96-2.227-3.674l-2.464-1.286-2.569,4.634,2.102.867c.521.215.86.722.86,1.286v3.782h4.298v-5.608Z" fill="#ffc74d"/><path d="m26.325,24.106c-1.139.737-1.827,2.001-1.827,3.357v4.527h4.298v-2.556c0-.808.423-1.557,1.114-1.976l.474-.286-2.385-4.148-1.674,1.083Z" fill="#ffc74d"/><path d="m32.72,9.67c-.48-.35-1.05-.46-1.59-.37-.25.04-.48.13-.7.25l-1.22-1.33c.25-.2.44-.48.52-.84.2-.86-.26-1.77-1.03-2.05-.71-.26-1.43.14-1.69.89l-3.08-1.65c-.01.01-.02.02-.02.03-1.11,2.12-.29,4.74,1.82,5.85,1.02.53,2.15.61,3.18.32l.22.25-3.27,4.47-4.41-3.23c-.94-.68-2.25-.48-2.94.46-.68.93-.48,2.25.45,2.93l5.04,3.69c1.52,1.12,3.67.78,4.79-.74l1.73-2.37,2.65-3.62c.69-.94.49-2.25-.45-2.94Zm-7.87-1.71c-.21.05-.44-.21-.53-.57-.08-.37.02-.7.23-.75.21-.04.44.21.52.58.09.36-.01.69-.22.74Z" fill="#ffc74d"/></g></g><g><path d="m38.79,6.16c-.56.67-1.73,1.73-3.16,1.17-1.72-.67-3-1.38-3.63-1.48.01.06.01.12.02.17s.02.1.03.15c.02.24.02.48.01.72-.01.07-.02.14-.03.2-.02.2-.05.4-.1.59-.02.06-.03.11-.04.17-.08.24-.17.47-.28.7-.01.01-.01.03-.02.04,0,.01-.01.02-.01.03-.02.03-.04.06-.06.09-.11.2-.24.39-.38.57-.01.01-.01.02-.01.02-.25.04-.48.13-.7.25l-1.22-1.33c.25-.2.44-.48.52-.84.2-.86-.26-1.77-1.03-2.05-.71-.26-1.43.14-1.69.89l-3.08-1.65c.03-.07.09-.13.13-.19.11-.19.23-.38.37-.55.06-.07.13-.13.19-.19.15-.15.29-.3.45-.42.08-.07.17-.12.26-.18.16-.1.31-.21.48-.29.1-.05.21-.09.32-.14.17-.06.33-.12.51-.17.05-.01.09-.04.14-.05.08-.02.15-.01.23-.03.15-.02.31-.05.46-.06h.38c.16,0,.32.02.48.04.12.01.22.03.33.06.17.04.34.08.51.14.1.04.19.08.28.12.1.04.2.06.3.12.07.03.13.09.2.13.08.04.15.1.23.15.16.11.31.22.45.35.07.06.13.12.19.18.13.14.25.27.37.42.06.09.12.18.18.27.09.14.17.28.25.43.05.11.1.22.14.34.02.05.04.09.06.14.32-.4,1.35-1.44,2.83-.86,1.59.63,2.54,1.69,3.93,1.49.2-.03.34.19.21.34Z" fill="#ff8f00"/><path d="m19.86,5.87l-3.22,1.35c-.18-.77-.86-1.23-1.59-1.04-.79.2-1.33,1.07-1.22,1.93.05.37.21.67.44.89l-1.34,1.21c-.16-.05-.33-.08-.5-.09-.04-.05-.09-.1-.12-.15-.02-.03-.04-.06-.06-.09-.12-.2-.23-.4-.32-.61-.01-.03-.03-.06-.05-.1-.01-.02-.01-.05-.02-.07-.09-.23-.16-.47-.21-.72-.01-.05-.02-.11-.03-.17-.03-.19-.05-.39-.05-.59v-.21c.01-.24.03-.47.08-.71.01-.05.02-.1.03-.15.03-.12.06-.24.1-.36,0-.02.01-.03.02-.05-.64.32-1.7,1.15-3.1,2.01-1.31.8-2.65-.04-3.32-.6-.15-.12-.06-.36.15-.37,1.4-.05,2.15-1.25,3.6-2.16,1.42-.87,2.67.11,2.99.4.03-.05.06-.09.09-.14.09-.14.19-.27.29-.4.07-.08.13-.17.2-.24.13-.14.27-.27.41-.39.07-.05.13-.11.2-.16.16-.12.32-.21.49-.31.08-.04.16-.09.24-.13.03-.02.07-.03.1-.05.04-.02.07-.04.11-.06.05-.02.1-.03.15-.04.05-.01.1-.03.15-.05.1-.03.2-.06.3-.08.17-.05.34-.08.51-.1.11-.01.22-.02.34-.03.16-.01.32,0,.48.01.13.01.25.02.37.04.16.02.31.06.46.1.08.02.15.03.22.05.05.02.09.05.14.06.17.07.33.14.49.22.1.06.21.11.3.17.16.1.31.21.45.33.08.07.17.13.25.2.14.14.27.3.4.46.06.07.12.14.17.21.13.18.23.38.32.58.04.07.08.13.11.2Z" fill="#ff8f00"/></g><g><path d="m18.627,9.157c.201.066.458-.167.575-.521.117-.354.048-.695-.153-.761-.201-.066-.458.167-.575.521-.117.354-.048.695.153.761Z"/><path d="m24.549,6.643c-.207.047-.307.38-.224.745s.318.622.524.575.307-.38.224-.745c-.083-.364-.318-.622-.524-.574Z"/></g></svg>