<?xml version="1.0" encoding="UTF-8"?><svg id="Layer_1" xmlns="http://www.w3.org/2000/svg" viewBox="0 0 40 40"><g><path d="M33.10001,22.87775c-2.26126-2.63803-2.77082-7.28634-2.77082-7.28634H9.67068s-.50956,4.64831-2.77082,7.28634c-2.26156,2.63864-3.14091,7.53793,0,11.3069h26.20014c3.14121-3.76897,2.26156-8.66826,0-11.3069Z" style="fill:#ffe3a0;"/><path d="M28.02136,28.13559l-4.21394-1.60091c-2.46018-.93464-5.1777-.93464-7.63788,0l-4.2139,1.6009c-2.02836,.77059-3.70752,2.21768-4.77147,4.07118-.43651,.76044-.71291,1.60217-.92243,2.45359l-.53866,2.18902c-.08144,.33095,.16908,.65058,.5099,.65058h27.51106c.34082,0,.59134-.31964,.5099-.65058l-.5387-2.18908c-.20952-.8514-.48593-1.69312-.92243-2.45355-1.06395-1.85348-2.7431-3.30056-4.77144-4.07114Z" style="fill:#c3846c;"/><path d="M30.83002,18.52002c-.72003,.63989-1.58002,1.01001-2.47003,1.12-1.14001,2.54993-3.39996,4.47998-6.15997,5.16003v2.03992c0,1.21008-.98999,2.19006-2.20001,2.19006s-2.20001-.97998-2.20001-2.19006v-2.02991c-2.76001-.68005-5.02997-2.6001-6.16998-5.15015-1.03003-.02991-2.04999-.3999-2.87-1.13989-1.85004-1.67004-1.98999-4.51001-.32001-6.3501l.82001,.73999,.01001,.01001c.15997,3.6001,2.17999,6.25,2.17999,6.25,0-1.41992,.34998-2.57996,.83997-3.52002,.71002-1.37988,1.74005-2.27991,2.51001-2.79993l1.03003-.57996,2.56-1.44995s.5,.30994,1.32996,.75c.82001,.42993,1.98004,.98999,3.29004,1.48999,0,0,2.38,1.01001,3.97998,2.86987,.79999,.92004,1.40002,2.06006,1.40002,3.39014,0,0,1.59998-2.43005,1.91998-6.39014l.02002-.03003,.81-.72998c1.66998,1.84009,1.52997,4.68005-.31,6.3501Z" style="fill:#c3846c;"/><g><ellipse cx="17.41509" cy="15.48091" rx=".97477" ry="1.16973"/><ellipse cx="22.5619" cy="15.48091" rx=".97477" ry="1.16973"/></g><path d="M21.21257,19.68166c.21907,0,.37469,.21046,.31657,.42168-.18466,.67114-.79933,1.16414-1.52915,1.16414s-1.34449-.493-1.52915-1.16414c-.05812-.21122,.0975-.42168,.31657-.42168h2.42515Z" style="fill:#5c2f17;"/><path d="M30.34998,12.27002c-.00995,.13989-.01996,.27002-.02997,.3999,0,.09009-.01001,.17004-.01001,.26001-.32001,3.96008-1.91998,6.39014-1.91998,6.39014,0-1.33008-.60004-2.47009-1.40002-3.39014-1.59998-1.85986-3.97998-2.86987-3.97998-2.86987-2.62-.98999-4.62-2.23999-4.62-2.23999l-2.56,1.44995s-.44,.17993-1.03003,.57996c-.76996,.52002-1.79999,1.42004-2.51001,2.79993-.48999,.94006-.83997,2.1001-.83997,3.52002,0,0-2.02002-2.6499-2.17999-6.25-.01001-.03992-.01001-.07996-.01001-.11987,0-.12012-.01001-.22998-.01001-.3501h.02002c.01001-.13989,0-.28003,.01001-.41992,.29999-3.17004,2.02997-5.95007,4.53998-7.68005,1.39996-.95996,3.03998-1.59998,4.79999-1.78992,6.06-.65015,11.21002,3.8999,11.69,9.70996h.03998Z" style="fill:#ffe3a0;"/><path d="M19.79078,9.45984H9.92488c-.52164,0-.94451,.42287-.94451,.94451v.99772c0,.35814,.29464,.64313,.6524,.62676,2.02704-.09272,8.29711-.20436,10.258,1.72708,1.96115-1.93144,8.03153-1.81979,10.05862-1.72708,.35776,.01636,.6524-.26862,.6524-.62676v-.99772c0-.52164-.42287-.94451-.94451-.94451h-9.86651Z" style="fill:#a2c2c3;"/><circle cx="19.90947" cy="11.23229" r=".87783" style="fill:#ccdfe3;"/><path d="M24.00841,32.7568l-3.49441,2.87889c-.29853,.24595-.72946,.24595-1.02799,0l-3.49441-2.87889c-.37212-.30657-.91863-.27022-1.24687,.08293l-4.33164,4.66034H29.58692l-4.33164-4.66034c-.32824-.35315-.87476-.38949-1.24687-.08293Z" style="fill:#37605f;"/><path d="M19.99952,29.89361c-1.93262,0-3.50488-1.57227-3.50488-3.50586,0-.20703,.16797-.375,.375-.375s.375,.16797,.375,.375c0,1.51953,1.23535,2.75586,2.75488,2.75586s2.75586-1.23633,2.75586-2.75586c0-.20703,.16797-.375,.375-.375s.375,.16797,.375,.375c0,1.93359-1.57227,3.50586-3.50586,3.50586Z" style="fill:#79a4a2;"/></g><rect width="40" height="40" style="fill:none;"/></svg>