<?xml version="1.0" encoding="UTF-8"?><svg id="Layer_1" xmlns="http://www.w3.org/2000/svg" viewBox="0 0 40 40"><g><path d="m2.648,15.435l-1.142,7.502c-.065.428.398.742.766.513,1.34-.831,3.628-2.606,3.261-4.858-.514-3.157-2.886-3.157-2.886-3.157Z" fill="#854500"/><path d="m5.184,20.673l-2.047,10.079c-.067.329.185.636.52.636h3.699c.269,0,.495-.201.527-.468l1.101-9.187-3.8-1.06Z" fill="#854500"/><path d="m26.977,16.542s.547,10.058,2.795,14.099c.187.336-.043.746-.428.746h-3.083c-.131,0-.252-.072-.314-.188l-4.119-7.644,5.149-7.013Z" fill="#854500"/><path d="m34.255,12.761l4.083,3.35-.274.526c-.19.363-.586.566-.991.509-1.609-.228-5.791-.699-8.962.131-4.494,1.175-3.463,11.675-3.213,13.755.023.192-.128.357-.322.357h-5.404c-.181,0-.327-.148-.324-.329l.063-4.677c-.192-4.272-3.445-4.445-3.445-4.445l-.914-.019c-1.614-.033-1.969,1.536-1.5,3.081l2.338,5.823c.109.271-.091.566-.382.566h-4.158c-.299,0-.565-.165-.7-.431-.861-1.694-4.977-7.535-6.895-12.084-2.178-5.163,1.89-9.786,6.274-10.209,4.384-.424,17.245,1.924,17.245,1.924l2.239-.911c.765-.311,1.641-.158,2.255.395l2.988,2.69" fill="#a65600"/><path d="m36.815,14.864l1.523,1.247-.274.526c-.19.363-.586.566-.991.509-.853-.121-10.389-3.13-17.598.89-4.096,2.284-16.307,4.988-16.82-2.094.027-3.874,3.344-6.937,6.873-7.278,4.384-.424,17.245,1.924,17.245,1.924,0,0,6.041,2.521,10.043,4.276Z" fill="#a88f72"/><circle cx="33.205" cy="13.487" r=".943"/><path d="m38.006,15.047l-1.191-.183,1.299,1.679.313-.591c.194-.367-.015-.817-.421-.905Z" fill="#383838"/></g><rect width="40" height="40" fill="none"/></svg>