<?xml version="1.0" encoding="UTF-8"?><svg id="Layer_1" xmlns="http://www.w3.org/2000/svg" viewBox="0 0 40 40"><g><ellipse cx="20" cy="21.566" rx="13.408" ry="15.419" fill="#956759"/><g><ellipse cx="8.832" cy="22.294" rx="5.368" ry="5.034" fill="#956759"/><ellipse cx="31.168" cy="22.294" rx="5.368" ry="5.034" fill="#956759"/></g><g><ellipse cx="16.233" cy="21.269" rx="1.427" ry="1.712"/><ellipse cx="23.767" cy="21.269" rx="1.427" ry="1.712"/></g><path d="m34.653,13.589c-.67-3.226-4.505-8.827-11.627-10.288-7.122-1.461-11.323,3.142-11.323,3.142-7.792,1.925-6.847,12.795-6.847,12.795l2.085,1.779c-.135,2.876.556,6.155.556,6.155,1.95,5.744,6.809,9.812,12.494,9.812s10.572-4.093,12.511-9.863l-3.883,2.787s-.007.005-.011.007l3.894-2.794s.64-3.152.519-5.983l2.141-1.938s.16-2.386-.51-5.612Zm-12.694,18.024c-.4.698-1.153,1.168-2.015,1.168s-1.615-.47-2.015-1.168c-.294-.513.086-1.153.677-1.153h2.677c.591,0,.971.641.677,1.153Zm9.814-7.65c-.878,4.066-3.062,5.868-3.211,5.986-.603.443-1.212.505-1.847.082-1.151-.767-3.355-2.416-6.846-2.416-3.32,0-5.262,1.55-6.283,2.302-.65.478-1.524.512-2.181.044,0,0-2.316-1.789-3.225-5.998-.346-1.9,1.228-5.34,1.698-6.311.042-.085.084-.17.126-.256.001-.003.007-.014.007-.014h0c1.75-3.613,3.185-8.229,3.185-8.229,0,0,1.766,5.388,10.907,5.271,4.857-.062,6.84,2.039,7.638,4.024.576,2.217.033,5.514.033,5.514Z" fill="#333"/></g><rect width="40" height="40" fill="none"/></svg>