<svg id="Layer_1" data-name="Layer 1" xmlns="http://www.w3.org/2000/svg" viewBox="0 0 40 40"><defs><style>.cls-1{fill:none;}.cls-2{fill:#ffb582;}.cls-3{fill:#ec6700;}</style></defs><rect class="cls-1" width="40" height="40" transform="translate(40 40) rotate(-180)"/><polygon class="cls-2" points="23.608 16.538 18.903 9.174 20.966 4.994 23.608 16.538"/><path class="cls-2" d="M28.263,1.15a3.181,3.181,0,0,0-4.205,1.582h0v0l-.981,2.481,3.091,7.846,3.585-7.678h0A3.171,3.171,0,0,0,28.263,1.15Z"/><path class="cls-2" d="M22.449,2.744l-.014.007c-.02-.049-.03-.1-.052-.148a3.141,3.141,0,1,0-5.691,2.658c.023.048.055.088.08.134l-.014.007L24.91,22.907,30.6,20.25Z"/><path class="cls-2" d="M26.183,23.868V18.529H6.137v5.339a13.863,13.863,0,1,0,27.726,0Z"/><path class="cls-3" d="M13.129,20.4a3.08,3.08,0,0,0-2.871-2.032,3.161,3.161,0,0,0,0,6.321,3.03,3.03,0,0,0,2.208-.962,4.081,4.081,0,0,0,2.609.962A4.236,4.236,0,0,0,19.256,20.4Z"/><path class="cls-2" d="M23.83,18.065l2.337-5L23.076,5.216,18.062,15.684v-.461h0a2.988,2.988,0,1,0-5.974,0h0v1.7a2.977,2.977,0,0,0-5.942.328h0V20.4h0a2.98,2.98,0,1,0,5.958.163,2.973,2.973,0,0,0,5.944-.024v.925h2.529l1.092,1.23.574-1.23H23.83Z"/><path class="cls-3" d="M26.33,17.165H22.276v.025a4.533,4.533,0,0,0-1.433,8.743V32.41l7.917-7.917H26.1a4.4,4.4,0,0,0,.406-.625h2.744a1.416,1.416,0,0,0,1.417-1.417V21.5A4.336,4.336,0,0,0,26.33,17.165Z"/><path class="cls-2" d="M28.713,18.529H22.522a3.185,3.185,0,1,0,0,6.369h2.733a13.228,13.228,0,0,0-7.266,11.8h4.988l8.25-8.977V24.9h1.716a.92.92,0,0,0,.92-.92v-.3A5.15,5.15,0,0,0,28.713,18.529Z"/></svg>