<?xml version="1.0" encoding="UTF-8"?><svg id="Layer_1" xmlns="http://www.w3.org/2000/svg" viewBox="0 0 40 40"><g><g><path d="M35.91901,36.6344c-.20917-1.745-1.09503-4.4032-2.79974-7.06897,.06128,.77515-.0647,1.57581-.41272,2.3324-.14716,.31982-.32922,.61096-.53424,.8783-.04297,.05591-.09436,.10168-.13959,.15527-.17792,.21106-.36517,.41211-.57397,.58533-.0365,.03015-.07556,.0553-.11292,.08435-.23816,.18555-.48895,.35339-.75629,.4895l-.04175,.02026c-.29535,.14685-.60443,.26562-.92365,.34985l.00531,.00342c.11676-.01123,.22974-.03516,.34949-.03516,2.02374,0,4.25464,1.6405,4.25464,3.66418h.38452c.78485,0,1.39429-.67944,1.3009-1.45874Z" style="fill:#482ec5;"/><path d="M22.47424,30.51611c.44006-.13208,.90997-.05847,1.3136,.15649,.04956,.02637,.10205,.04614,.14929,.07703l.89508,.58411,.68689,.44824-.68909-.45203-.89001-.57996c-.04999-.03003-.09998-.05005-.15002-.08008-.13995-.88989-.03998-1.82996,.37-2.69995,.64984-1.42957,1.93945-2.35938,3.36902-2.63977l.0014-.00403,.00452-.01294c.02606-.00513,.05316-.00464,.07928-.00928,.07562-.01343,.15283-.01709,.22913-.02686,.19928-.02551,.39923-.04028,.60168-.03992,.09436,.00012,.1889,.00452,.28357,.01038,.19672,.01245,.39246,.03931,.58887,.07715,.08624,.0166,.17261,.02893,.25848,.05054l.02484,.00854c-1.52252-1.38464-3.33734-2.61572-5.49719-3.5105-.29749,.88708-1.20514,1.44263-2.14886,1.26001-1.02771-.19897-1.69965-1.19336-1.50073-2.22107l.02618-.13513c-2.24591-.39575-4.25989-.16357-6.05261,.45996l4.09229,1.67737c.66876,.27405,.97235,1.05176,.66626,1.70642l-1.91949,4.10547c-.23822,.50952-.76935,.77271-1.29486,.71021l-1.5321,1.66504-5.24341-3.91333,1.67938-2.31128c.07947-.10938,.16809-.20874,.26276-.30054l1.09082-2.33301c-4.40936,2.54272-7.13721,7.34399-8.29449,9.64685-1.03833,2.06616-.83801,4.51013,1.06433,5.82471,1.90234,1.31458,4.51013,.83801,5.82465-1.06433l2.35419-3.51953-1.40729,4.96204h2.09009s2.38623-5.70874,8.61359-7.57703Zm-5.22461-1.75342l1.92255-4.11206c.08081-.17273,.28638-.24731,.45917-.1665l.81647,.38171c.17279,.08081,.24738,.28638,.16656,.45911l-.0614,.13135c.56287,.39893,.90576,1.02185,.92804,1.69043,.00391,.11719,.06567,.22412,.172,.2738l.57404,.26843c.44629,.20862,.61365,.77173,.32349,1.19714-.22772,.33386-.68396,.42529-1.05005,.25415l-.53467-.25c-.10626-.04968-.22791-.02869-.32037,.04358-.52728,.41162-1.2251,.54785-1.89215,.37183l-.06146,.13135c-.08081,.17285-.28638,.24731-.45917,.1665l-.81647-.38171c-.17279-.08069-.24738-.28625-.16656-.45911Z" style="fill:#482ec5;"/></g><g><g><path d="M29.59003,18.27002c-1.03815,1.51074-2.59906,2.5791-4.37665,3.01648l3.12653,.6051c.68951,.13354,1.3736-.25439,1.61292-.91467l.99847-2.75452c-.42969,.10828-.88995,.13721-1.36127,.04761Z" style="fill:#333;"/><path d="M16.09003,15.65991c-.60614-.12354-1.13641-.40955-1.5473-.79858l.17419,3.29126c.03461,.6543,.5105,1.20117,1.15393,1.32568l3.1731,.61414c-1.48376-1.06982-2.54419-2.64636-2.95392-4.4325Z" style="fill:#333;"/><path d="M16.17963,11.55322c.0459,.14221,.21326,.20459,.33221,.11401l5.67596-4.31738s4.99164,5.89062,8.94257,6.3866c.08698,.01086,.19196,.00037,.29791-.02258,.27795-.09277,.53796-.30249,.72528-.2312,.00702,.00269,.01575-.00098,.02258,.00269,1.10223-5.27759-2.82867-10.47668-8.4859-10.51123-3.53284-.02148-6.79584,2.20996-8.05554,5.51074-.22711,.59497-.38611,1.1936-.48175,1.7887-.00757,.04724,.02185,.09558,.06848,.10535l.00055,.00037c.18835,.03784,.65228,.22791,.95764,1.17395Z" style="fill:#333;"/></g><path d="M32.15356,13.48267c-.18732-.07129-.44733,.13843-.72528,.2312-.10596,.02295-.21094,.03345-.29791,.02258-3.95093-.49597-8.94257-6.3866-8.94257-6.3866l-5.67596,4.31738c-.11896,.09058-.28632,.0282-.33221-.11401-.30536-.94604-.76929-1.13611-.95764-1.17395l-.00055-.00037c-.77179,.37769-1.35901,1.06714-1.53143,1.94116-.18774,.95117,.16528,1.89062,.85272,2.54126,.41089,.38904,.94116,.67505,1.5473,.79858,.40973,1.78613,1.47015,3.36267,2.95392,4.4325,.4353,.31384,.90247,.58972,1.40607,.8075v.01001c-.19,1.03003,.47998,2.02002,1.5,2.22009,.95001,.19006,1.85999-.37,2.14996-1.26001,.03003-.07996,.06-.15002,.08002-.23999l.03003-.16003c.34161-.03589,.67487-.10266,1.00336-.18347,1.77759-.43738,3.3385-1.50574,4.37665-3.01648,.47131,.0896,.93158,.06067,1.36127-.04761,1.05621-.26587,1.90546-1.06482,2.11871-2.15234,.19305-.97852-.19342-1.9364-.91644-2.5874Z" style="fill:#956759;"/><g><ellipse cx="21.98526" cy="15.03029" rx=".96002" ry=".80002" transform="translate(3.05104 33.75878) rotate(-79.04561)"/><ellipse cx="26.13239" cy="15.83298" rx=".96002" ry=".80002" transform="translate(5.62203 38.48051) rotate(-79.04561)"/></g><path d="M24.11015,18.87116c.14908,.02885,.22726,.19257,.15989,.32865-.21406,.43239-.69728,.68692-1.19393,.59079s-.84999-.51258-.88726-.99362c-.01173-.15139,.12189-.27411,.27097-.24526l1.65032,.31943Z" style="fill:#5c2f17;"/></g><g><g><path d="M20.64545,28.93384c.09247-.07227,.21411-.09326,.32037-.04358l.53467,.25c.36609,.17114,.82233,.07971,1.05005-.25415,.29016-.42542,.1228-.98853-.32349-1.19714l-.57404-.26843c-.10632-.04968-.16809-.15662-.172-.2738-.02228-.66858-.36517-1.2915-.92804-1.69043l-1.79968,3.84937c.66705,.17603,1.36487,.03979,1.89215-.37183Z" style="fill:#ffe3a0;"/><path d="M17.4162,29.2218l.81647,.38171c.17279,.08081,.37836,.00635,.45917-.1665l.06146-.13135,1.79968-3.84937,.0614-.13135c.08081-.17273,.00623-.3783-.16656-.45911l-.81647-.38171c-.17279-.08081-.37836-.00623-.45917,.1665l-1.92255,4.11206c-.08081,.17285-.00623,.37842,.16656,.45911Z" style="fill:#93c9ff;"/><path d="M13.51941,24.06201l1.95654,.70215c1.71106,.61414,2.24243,2.77417,1.01147,4.11194l-.51569,.56042c.52551,.0625,1.05664-.20068,1.29486-.71021l1.91949-4.10547c.30609-.65466,.0025-1.43237-.66626-1.70642l-4.09229-1.67737-.33466-.13708c-.62451-.25598-1.33997,.02332-1.62585,.63477l-.23785,.50867-1.09082,2.33301c.62268-.60291,1.54388-.8147,2.38104-.5144Z" style="fill:#c8e1ff;"/></g><path d="M15.47595,24.76416l-1.95654-.70215c-.83716-.30029-1.75836-.0885-2.38104,.5144-.09467,.0918-.18329,.19116-.26276,.30054l-1.67938,2.31128,5.24341,3.91333,1.5321-1.66504,.51569-.56042c1.23096-1.33777,.69958-3.4978-1.01147-4.11194Z" style="fill:#956759;"/><g><path d="M29.31744,25.32471c-.19641-.03784-.39215-.0647-.58887-.07715-.09467-.00586-.18921-.01025-.28357-.01038-.20245-.00037-.4024,.0144-.60168,.03992-.07629,.00977-.1535,.01343-.22913,.02686-.02612,.00464-.05322,.00415-.07928,.00928l-.00452,.01294-.0014,.00403,.00104-.00024-.2262,.64014-.83026,2.35974c.02179-.00305,.04297,.00171,.06476-.00049,.25684-.02588,.51221,.00146,.7417,.12061,.75201,.38574,.97656,1.4397,.5351,2.39319-.01685,.03699-.02765,.07458-.04651,.11121-.30194,.58569-.79443,.97607-1.30725,1.12158-.1261,.03638-.25287,.06934-.37909,.07349l3.54187,2.31128c.31921-.08423,.6283-.203,.92365-.34985l.04175-.02026c.26733-.13611,.51813-.30396,.75629-.4895,.03735-.02905,.07642-.0542,.11292-.08435,.2088-.17322,.39606-.37427,.57397-.58533,.04523-.05359,.09662-.09937,.13959-.15527,.20502-.26733,.38708-.55847,.53424-.8783,.34802-.75659,.474-1.55725,.41272-2.3324-.10608-1.34082-.78125-2.60437-1.89923-3.42468-.25201-.18494-.52637-.34729-.82141-.48303l-.00256-.00098c-.2605-.11963-.52704-.20435-.79529-.27295l-.02484-.00854c-.08588-.02161-.17224-.03394-.25848-.05054Z" style="fill:#333;"/><path d="M27.77002,30.94995c.01831-.03516,.02869-.07129,.0451-.10681,.44147-.95349,.21692-2.00745-.5351-2.39319-.22949-.11914-.48486-.14648-.7417-.12061-.02295,.00232-.04535-.00269-.06836,.00061l.83386-2.35986,.2262-.64014-.00104,.00024c-1.42957,.2804-2.71918,1.21021-3.36902,2.63977-.40997,.87-.50995,1.81006-.37,2.69995,.05005,.03003,.10004,.05005,.15002,.08008l.89001,.57996,.68909,.45203,.56085,.36597,.00232,.00146c.12622-.00415,.25299-.03711,.37909-.07349,.51251-.14795,1.00403-.54077,1.30865-1.12598Z" style="fill:#956759;"/><path d="M29.62946,34.46411l-.00531-.00342-3.54187-2.31128-.00232-.00146-.56085-.36597-.68689-.44824-.89508-.58411c-.04724-.03088-.09973-.05066-.14929-.07703-.40363-.21497-.87354-.28857-1.3136-.15649-6.22736,1.86829-8.61359,7.57703-8.61359,7.57703h12.4541c0-1.90393,1.45758-3.45056,3.3147-3.62903Z" style="fill:#7664c5;"/></g><path d="M29.97894,34.42896c-.11975,0-.23273,.02393-.34949,.03516-1.85712,.17847-3.3147,1.7251-3.3147,3.62903h7.91882c0-2.02368-2.2309-3.66418-4.25464-3.66418Z" style="fill:#956759;"/></g></g><rect x="0" y="0" width="40" height="40" style="fill:none;"/></svg>