<?xml version="1.0" encoding="UTF-8"?><svg id="Layer_1" xmlns="http://www.w3.org/2000/svg" viewBox="0 0 40 40"><g><polygon points="28.50169 20.61926 29.34099 27.70392 10.84013 27.70392 11.52279 20.78426 28.50169 20.61926" style="fill:#ff9000;"/><g><path d="M34.2076,35.36131l-13.97676-6.12934-12.10255,5.2195-2.50529-.3962-.5606,2.99742c-.02503,.23912,.16249,.44729,.40291,.44729h30.06879c0-.94075-.525-1.78721-1.3265-2.13867Z" style="fill:#d1d1d1;"/><g><path d="M29.98999,22.78003c0,1.21997-.95001,2.20996-2.14001,2.30005-1.29999,3.20996-4.31,5.45996-7.82996,5.45996-3.48999,0-6.48999-2.21997-7.80005-5.3999-1.12994-.15015-2-1.11011-2-2.28027,0-.91992,.53003-1.69995,1.30005-2.07983,0,0,.71997-.15991,1.35999,1.1499l1.04999-.90991,5.27002-4.55005s3.54999,3.82007,7.08002,4.46997c.41998,.07007,.84998,.12012,1.25995,.09009,.09003-.01001,.19-.03003,.28003-.07007,.26001-.13989,.46997-.37988,.66998-.33984,.87,.32983,1.5,1.16992,1.5,2.15991Z" style="fill:#ffc84d;"/><path d="M12.88397,21.92993l1.04828-.90649,5.26923-4.55566s3.547,3.82373,7.08038,4.46899c.42218,.0769,.84436,.11841,1.26007,.09253,.08582-.00537,.18481-.0332,.28253-.07251,.25543-.13501,.47046-.38062,.6673-.33691l.00995-.00073c.0744-4.75293-4.27869-8.63379-9.43402-8.11377-3.96497,.40015-7.14008,3.42725-7.51398,7.15674-.03796,.37866-.04755,.75244-.03088,1.12012l-.00006,.00195s.72034-.16113,1.36121,1.14575Z" style="fill:#ff9000;"/><g><ellipse cx="17.99297" cy="21.73355" rx=".83496" ry="1.00196"/><ellipse cx="22.40157" cy="21.73355" rx=".83496" ry="1.00196"/></g></g><path d="M28.38307,37.5l-1.05312-3.13795c-.15529-.52725,.14623-1.08056,.67348-1.23585,.19139-.05637,.38598-.05187,.56396,.00109l-.22824-.77489c-.1553-.52725,.14623-1.08056,.67348-1.23586h0c.29596-.08717,.60009-.03033,.83747,.1295-.14091-.53341,.17914-1.08585,.72423-1.22024,.52034-.12828,1.04685,.1935,1.19826,.70758l.11807,.40087c.03324-.39747,.30424-.75264,.70983-.8721h.00001c.52724-.1553,1.08055,.14623,1.23585,.67348l.79309,3.17326c.01018,.04071,.03552,.07582,.07046,.09906l.0011,.00073c.02622,.01745,.06176,.00393,.06914-.02669l.168-.69739c.13649-.56466,.70487-.91177,1.26953-.77528h0c.56467,.13648,.91177,.70487,.77529,1.26953l-.81174,3.52114h-7.78816Z" style="fill:#ffc84d;"/><path d="M22.0499,30.99512v-1.76313h-3.89598v1.76313l1.65095,1.19924c.17712,.12866,.41694,.12866,.59407,0l1.65096-1.19924Z" style="fill:#ffc84d;"/><path d="M21.88775,25.93499c0,.87545-.70969,1.58514-1.58514,1.58514s-1.58514-.70969-1.58514-1.58514h3.17028Z" style="fill:#ff7d7d;"/><path d="M22.19196,30.80659l-1.92739,.95012c-.09802,.05964-.22729,.05964-.32532,0l-1.92739-.95012c-.19087-.11614-.45029,.00514-.45029,.2105v2.70761c0,.20536,.25942,.32664,.45029,.2105l1.92739-.95012c.09802-.05964,.22729-.05964,.32532,0l1.92739,.95012c.19087,.11614,.45029-.00514,.45029-.2105v-2.70761c0-.20536-.25942-.32664-.45029-.2105Z" style="fill:#ef4452;"/><circle cx="5.75025" cy="20.18288" r="2.76289" style="fill:#ef4452;"/><circle cx="22.64225" cy="5.26289" r="2.76289" style="fill:#596ff3;"/><circle cx="33.91288" cy="25.51798" r="2.76289" style="fill:#23b169;"/><g><path d="M28.66895,15.52393c-.75256-4.01001-4.26666-7.04639-8.49524-7.04639h-.14362c-4.22345,0-7.73468,3.02881-8.49298,7.03174,.18207,.01294,8.32361,.58154,17.13184,.01465Z" style="fill:#333;"/><path d="M28.82184,17.03003c-.00201-.51489-.04932-1.01758-.1355-1.50708l-.0174,.00098c-8.80823,.56689-16.94977-.00171-17.13184-.01465l-.01703-.00122c-.08649,.48706-.13361,.98755-.13702,1.49976,7.52936,1.07764,13.9729,.51709,17.43878,.02222Z" style="fill:#bfbfbf;"/><path d="M30.46686,16.76807c-.42853,.07715-.99005,.16846-1.64502,.26196-3.46588,.49487-9.90942,1.05542-17.43878-.02222-.54596-.07812-1.09619-.1626-1.65271-.25879-.56451-.09741-1.07898,.34937-1.07898,.93628v.27661c0,.72852,.52545,1.34521,1.22986,1.44165,3.28369,.44995,12.54865,1.47632,20.50165,.04785,.67725-.12158,1.16956-.72778,1.16956-1.43262v-.31519c0-.59009-.51868-1.0376-1.08557-.93555Z" style="fill:#333;"/></g><path d="M13.3105,30.52494c.17745-.52021-.10041-1.08577-.62063-1.26322-.18883-.06441-.38345-.06815-.5635-.02275l.26079-.76455c.17745-.52021-.10041-1.08578-.62063-1.26323h0c-.29201-.09961-.59827-.05568-.8422,.09398,.16333-.52698-.13307-1.09246-.67199-1.24977-.51445-.15017-1.05409,.14906-1.22711,.65628l-.13492,.39552c-.0164-.39852-.27214-.76483-.67232-.90134h-.00001c-.5202-.17745-1.08577,.10041-1.26322,.62063l-.92655,3.13689c-.01189,.04025-.03869,.07425-.07459,.09599l-.00113,.00068c-.02694,.01633-.06187,.00132-.06795-.02959l-.13836-.70387c-.11249-.56992-.66569-.94076-1.23561-.82826h0c-.56993,.11249-.94075,.66569-.82828,1.23561l.71803,3.78741c.2454,1.28316,1.22322,2.43629,2.63975,2.91949,2.02708,.69146,4.18287-.25049,4.81509-2.1039,.00951-.02788,.01735-.05594,.02606-.0839l1.42925-3.7281Z" style="fill:#ffc84d;"/><polygon points="12.89851 32.3942 14.95865 31.50572 16.47659 37.49998 14.09487 37.5 12.89851 32.3942" style="fill:#ef4452;"/><polygon points="27.45516 32.3942 25.39501 31.50572 23.87708 37.49998 26.25879 37.5 27.45516 32.3942" style="fill:#ef4452;"/></g></g><rect width="40" height="40" style="fill:none;"/></svg>