<?xml version="1.0" encoding="UTF-8"?><svg id="Layer_1" xmlns="http://www.w3.org/2000/svg" viewBox="0 0 40 40"><g><ellipse cx="20" cy="19.968" rx="17.5" ry="17.448" fill="#ffc84d"/><path d="m18.483,24.231c1.453.127,2.532.497,3.214.809.293.134.582-.191.417-.467-.534-.888-1.595-2.103-3.462-2.265s-3.124.849-3.804,1.632c-.211.243.017.613.329.532.727-.189,1.854-.367,3.306-.24Z" fill="#ff6d00"/><path d="m13.927,10.834c1.194.104,1.859.437,2.423.746.325.178.608-.061.47-.431-.299-.8-1.194-1.71-2.758-1.847-1.564-.136-2.605.605-3.038,1.341-.201.341.036.625.387.506.609-.206,1.323-.419,2.516-.315Z"/><path d="m24.17,7.756c-1.194.104-1.859.437-2.423.746-.325.178-.608-.061-.47-.431.299-.8,1.194-1.71,2.758-1.847,1.564-.136,2.605.605,3.038,1.341.201.341-.036.625-.387.506-.609-.206-1.323-.419-2.516-.315Z"/><ellipse cx="14.34" cy="15.204" rx="2.229" ry="2.222"/><ellipse cx="23.621" cy="14.84" rx="2.191" ry="2.587"/><path d="m7.976,32.415c0-1.757.16-3.865.24-5.035.061-.89.123-2.529.236-3.273.116-.767.559-1.416,1.407-1.129.81.275,1.217,1.458,1.217,2.477s.076,1.699.685,2.009,1.363.268,2.577.268,5.436-.085,7.581-.085c.495,0,1.26.071,1.611.419.437.434.349,1.276-.302,1.564-1.045.462-3.505.356-4.157.64s-.601.749-.64,1.458c-.047.87.158,3.14-.047,4.088-.232,1.075-.868,1.667-1.823,1.667h-4.109c-2.455,0-4.475-2.423-4.475-5.068Z" fill="#ff9210"/></g><rect width="40" height="40" fill="none"/></svg>