<?xml version="1.0" encoding="UTF-8"?><svg id="Layer_1" xmlns="http://www.w3.org/2000/svg" viewBox="0 0 40 40"><g><rect x="10.796" y="5.383" width=".566" height="29.987" fill="#5e403b"/><rect x="16.743" y="5.383" width=".566" height="29.987" fill="#5e403b"/><rect x="22.691" y="5.383" width=".566" height="29.987" fill="#5e403b"/><rect x="28.638" y="5.383" width=".566" height="29.987" fill="#5e403b"/><ellipse cx="11.079" cy="9.319" rx="2.877" ry="1.202" fill="#f10e00"/><ellipse cx="11.079" cy="18.798" rx="2.877" ry="1.202" fill="#f10e00"/><ellipse cx="11.079" cy="25.55" rx="2.877" ry="1.202" fill="#f10e00"/><ellipse cx="17.026" cy="25.55" rx="2.877" ry="1.202" fill="#f10e00"/><ellipse cx="28.921" cy="25.55" rx="2.877" ry="1.202" fill="#f10e00"/><ellipse cx="17.026" cy="18.798" rx="2.877" ry="1.202" fill="#f10e00"/><ellipse cx="22.974" cy="18.798" rx="2.877" ry="1.202" fill="#f10e00"/><ellipse cx="17.026" cy="21.578" rx="2.877" ry="1.202" fill="#f10e00"/><ellipse cx="22.974" cy="21.578" rx="2.877" ry="1.202" fill="#f10e00"/><ellipse cx="28.921" cy="18.798" rx="2.877" ry="1.202" fill="#f10e00"/><ellipse cx="11.079" cy="28.598" rx="2.877" ry="1.202" fill="#f10e00"/><ellipse cx="11.079" cy="31.646" rx="2.877" ry="1.202" fill="#f10e00"/><ellipse cx="17.026" cy="28.598" rx="2.877" ry="1.202" fill="#f10e00"/><ellipse cx="22.974" cy="28.598" rx="2.877" ry="1.202" fill="#f10e00"/><ellipse cx="28.921" cy="28.598" rx="2.877" ry="1.202" fill="#f10e00"/><ellipse cx="28.921" cy="31.646" rx="2.877" ry="1.202" fill="#f10e00"/><ellipse cx="17.026" cy="12.926" rx="2.877" ry="1.202" fill="#f10e00"/><ellipse cx="22.974" cy="12.926" rx="2.877" ry="1.202" fill="#f10e00"/><ellipse cx="28.921" cy="12.926" rx="2.877" ry="1.202" fill="#f10e00"/><path d="m36,36H4V4h32v32Zm-29.736-2.264h27.472V6.264H6.264v27.472Z" fill="#5e403b"/><rect x="5.132" y="14.665" width="29.736" height="2.264" fill="#5e403b"/></g><rect width="40" height="40" fill="none"/></svg>