<?xml version="1.0" encoding="UTF-8"?><svg id="Layer_1" xmlns="http://www.w3.org/2000/svg" viewBox="0 0 40 40"><g><polygon points="24.96327 33.21174 20.6053 33.21174 16.24739 33.21174 15.88743 35.87374 18.67944 35.03397 20.6053 37.5 22.36712 35.03397 25.32323 35.87374 24.96327 33.21174" style="fill:#6e4944;"/><path d="M27.24926,8.30203c-.05411-.02815-4.54174-2.37834-5.29423-5.05937-.1261-.4496-.59447-.74265-1.09383-.74265h-1.7223c-.49941,0-.96778,.29305-1.09388,.74265-.75239,2.68065-5.23846,5.03046-5.29407,5.05937-5.11439,2.25804-8.61869,6.81884-8.61869,12.0899,0,7.51214,7.10422,13.60182,15.86776,13.60182s15.86771-6.08968,15.86771-13.60182c0-5.27068-3.50425-9.83187-8.61848-12.0899Z" style="fill:#d45f98;"/><path d="M16.3671,5.69146c-1.55884,1.50225-3.57888,2.56388-3.61612,2.58313-5.11438,2.25795-8.61871,6.81907-8.61871,12.09018,0,6.43424,5.21861,11.81214,12.22171,13.22637-8.84921-14.59328,.00989-27.89679,.01313-27.89967Z" style="fill:#b85284;"/><path d="M23.63291,5.69146c1.55884,1.50225,3.57888,2.56388,3.61612,2.58313,5.11438,2.25795,8.61871,6.81907,8.61871,12.09018,0,6.43424-5.21861,11.81214-12.22171,13.22637,8.84921-14.59328-.00989-27.89679-.01313-27.89967Z" style="fill:#b85284;"/></g><rect width="40" height="40" style="fill:none;"/></svg>