<?xml version="1.0" encoding="UTF-8"?><svg id="Layer_1" xmlns="http://www.w3.org/2000/svg" viewBox="0 0 40 40"><g><ellipse cx="20" cy="20" rx="17.5" ry="17.494" fill="#ffc84d"/><path id="SVGID" d="m10.73,21.873c-1.153,0-1.686.651-1.458,1.36,1.009,3.141,5.429,5.505,10.728,5.505s9.718-2.365,10.728-5.505c.228-.71-.071-1.269-1.224-1.269l-18.773-.092Z" fill="#ff6d00"/><circle cx="23.807" cy="13.517" r="2.166"/><circle cx="15.587" cy="16.671" r="2.091"/><path d="m13.003,28.513c0,2.49,2.081,4.508,4.648,4.508,2.567,0,4.648-2.018,4.648-4.508l.055-5.264h-9.296s-.055,5.264-.055,5.264Z" fill="#f5172b"/><path d="m29.504,21.965c-1.993,1.492-5.426,2.478-9.327,2.478-3.98,0-7.473-1.026-9.447-2.569l18.773.092Z" fill="#fff"/></g><rect width="40" height="40" fill="none"/></svg>