<svg id="Layer_1" data-name="Layer 1" xmlns="http://www.w3.org/2000/svg" viewBox="0 0 40 40"><defs><style>.cls-1{fill:#ffc84d;}.cls-2,.cls-4{fill:#fff;}.cls-3{fill:#e0e0e0;}.cls-4{opacity:0.42;}.cls-5{fill:#f80;}.cls-6{fill:none;}</style></defs><circle class="cls-1" cx="20" cy="20" r="17.5"/><circle cx="14.248" cy="15.144" r="1.876"/><circle class="cls-2" cx="25.06" cy="16.358" r="6.902"/><path class="cls-3" d="M30.836,16.358A5.773,5.773,0,1,1,27.99,11.38,5.776,5.776,0,0,1,30.836,16.358Z"/><circle cx="22.936" cy="16.44" r="2.608"/><path class="cls-4" d="M25.06,10.583a5.776,5.776,0,0,0-4.715,9.111Z"/><path class="cls-5" d="M17.143,25.653a9.474,9.474,0,0,1,3.123.788.319.319,0,0,0,.405-.455,4.247,4.247,0,0,0-7.061-.618.319.319,0,0,0,.32.519A9.478,9.478,0,0,1,17.143,25.653Z"/><path d="M13.744,10.759a5.393,5.393,0,0,1,2.355.726c.317.173.591-.059.457-.42a3.016,3.016,0,0,0-2.681-1.8,3.013,3.013,0,0,0-2.952,1.307c-.2.332.035.609.376.493A5.4,5.4,0,0,1,13.744,10.759Z"/><path d="M23.7,7.759a5.393,5.393,0,0,0-2.355.726c-.317.173-.591-.059-.457-.42a3.016,3.016,0,0,1,2.681-1.8,3.013,3.013,0,0,1,2.952,1.307c.2.332-.035.609-.376.493A5.4,5.4,0,0,0,23.7,7.759Z"/><rect class="cls-6" width="40" height="40"/></svg>