<?xml version="1.0" encoding="UTF-8"?><svg id="Layer_1" xmlns="http://www.w3.org/2000/svg" viewBox="0 0 40 40"><g><circle id="SVGID" cx="17.945" cy="20" r="16.5" fill="#ffc84d"/><path d="m30.711,30.45c1.085-1.324,1.956-2.824,2.59-4.444h-14.356l11.766,4.444Z" fill="#f78700"/><g><circle cx="23.455" cy="17" r="2.166"/><circle cx="14.436" cy="17" r="2.166"/></g><path d="m18.846,18.219h15.938c2.081,0,3.771,1.69,3.771,3.771v.223c0,2.081-1.69,3.771-3.771,3.771h-15.938v-7.765h0Z" fill="#ffc84d"/><path d="m16.329,31.735c-.481,0-.857-.458-.729-.922.404-1.469,1.749-2.548,3.346-2.548,1.597,0,2.942,1.079,3.346,2.548.128.464-.248.922-.729.922h-5.234Z" fill="#ff6d00"/></g><rect width="40" height="40" transform="translate(40 40) rotate(-180)" fill="none"/></svg>