<?xml version="1.0" encoding="UTF-8"?><svg id="Layer_1" xmlns="http://www.w3.org/2000/svg" viewBox="0 0 40 40"><g><g><polygon points="17 22.82996 16.82001 33.91998 13.87 33.91998 13.39001 25.77997 12.90002 33.91998 9.95001 33.91998 9.77002 22.82996 17 22.82996" style="fill:#6d7681;"/><polygon points="30.56 22.82996 30.37 33.91998 27.42999 33.91998 26.94 25.77997 26.45001 33.91998 23.51001 33.91998 23.32001 22.82996 30.56 22.82996" style="fill:#6d7681;"/></g><g><g><path d="M22.46106,35.28491c-.25366,.24579-.38934,.53638-.38934,.83386v.25531c0,.34564,.42426,.62592,.94763,.62592h1.01184c.74792,0,1.43127-.28003,1.76349-.72266l.27002-.35974c.06934-.09241,.10535-.19409,.10535-.29718v-1.70081h-2.30011l-1.40887,1.3653Z" style="fill:#313c50;"/><path d="M27.81262,35.62042c0,.10309,.03607,.20477,.10541,.29718l.27002,.35974c.33221,.44263,1.01556,.72266,1.76349,.72266h1.01184c.52338,0,.94763-.28027,.94763-.62592v-.25531c0-.29749-.13568-.58807-.38934-.83386l-1.40887-1.3653h-2.30017v1.70081Z" style="fill:#313c50;"/></g><g><path d="M8.90771,35.28491c-.25366,.24579-.38934,.53638-.38934,.83386v.25531c0,.34564,.42426,.62592,.94763,.62592h1.01178c.74799,0,1.43134-.28003,1.76349-.72266l.27002-.35974c.06934-.09241,.10541-.19409,.10541-.29718v-1.70081h-2.30017l-1.40881,1.3653Z" style="fill:#313c50;"/><path d="M14.25928,35.62042c0,.10309,.03607,.20477,.10541,.29718l.27002,.35974c.33221,.44263,1.01556,.72266,1.76349,.72266h1.01184c.52338,0,.94763-.28027,.94763-.62592v-.25531c0-.29749-.13568-.58807-.38934-.83386l-1.40887-1.3653h-2.30017v1.70081Z" style="fill:#313c50;"/></g></g><g><path d="M19.34967,17.81628l-.74133-2.9538c-.14923-1.2002-.97437-2.20801-2.12152-2.59125l-2.3338-.77966v.23053c0,.43634-.35376,.7901-.7901,.7901-.4364,0-.79016-.35376-.79016-.7901v-.24805l-2.5498,.86285c-1.03137,.349-1.80841,1.20734-2.05341,2.26825l-1.17542,3.40778,.44519,.12134,2.01056,.54816,.57288,.15619-.29309,3.99268h7.72626l-.36249-4.02435,.30396-.12256,1.95355-.78796,.19873-.08014Z" style="fill:#d0d4d9;"/><path d="M32.90308,17.81628l-.74133-2.9538c-.14929-1.2002-.97443-2.20801-2.12158-2.59125l-2.3338-.77966v.23053c0,.43634-.3537,.7901-.7901,.7901s-.79016-.35376-.79016-.7901v-.24805l-2.5498,.86285c-1.03137,.349-1.80841,1.20734-2.05341,2.26825l-1.17535,3.40778,.44513,.12134,2.01056,.54816,.57294,.15619-.29315,3.99268h7.72626l-.36243-4.02435,.30389-.12256,1.95355-.7879,.19879-.0802Z" style="fill:#d0d4d9;"/></g><g><g><path d="M5.46393,25.62219c-.00916,.039-.00018,.07654-.00378,.11554-.0025,.01636-.0127,.02979-.0144,.04675-.00342,.03406,.00989,.06421,.00964,.09747,.00275,.03912,.00281,.07684,.01129,.11426,.04633,.55865,.46234,1.02789,1.04016,1.08575,.65143,.06531,1.23224-.40997,1.29749-1.0611,.03937-.39258-.13196-.74414-.40564-.98779l1.8512-6.35065-2.01056-.54816-1.77539,7.48792Z" style="fill:#6e4944;"/><path d="M19.02002,25.99622c-.00848-.03741-.00854-.07513-.01129-.11426,.00031-.03326-.01306-.06342-.00964-.09747,.00171-.01697,.0119-.0304,.0144-.04675,.0036-.039-.00537-.07654,.00378-.11554l.98273-4.14478-.84906-3.58099-1.95355,.78796,1.85059,6.34869c-.27368,.24365-.44501,.59521-.4057,.98779,.06525,.65112,.64606,1.1264,1.29749,1.0611,.02179-.0022,.03894-.01404,.06024-.0174-.54407-.08508-.93542-.53076-.97998-1.06836Z" style="fill:#6e4944;"/><path d="M17.08002,6.91998c-.08002,0-.17004,.09003-.27002,.15002-.04999,.01996-.09003,.02997-.13,.03998-.33002,.02002-.69-.03998-1.06-.15002-1.58997-.45996-3.34998-1.87-3.34998-1.87l-1.51001,1.70001-.66998,.75c-.22003-.46997-.45001-.53998-.56-.54999-.31006,.21997-.52002,.56-.52002,.96002,0,.41998,.22998,.77997,.57001,1,.21997,.13995,.46997,.25,.75,.25,.32996,.73999,.91998,1.32996,1.65997,1.66998,.19,.08997,.38,.14996,.58002,.20001v.64996c0,.44,.35999,.79004,.78998,.79004,.44,0,.79004-.35004,.79004-.79004v-.64996c.20996-.05005,.39996-.11005,.58997-.20001,.72998-.34003,1.33002-.92999,1.65002-1.66998,.21997,0,.40997-.06,.58997-.15002,.42999-.20001,.73999-.60999,.73999-1.09998,0-.44-.25995-.81-.63995-1.03003Zm-4.65002,1.20001c-.19,0-.34998-.19-.34998-.41998,0-.23004,.15997-.42004,.34998-.42004,.20001,0,.35004,.19,.35004,.42004,0,.22998-.15002,.41998-.35004,.41998Zm.92999,1.82001c-.26001,0-.47998-.17004-.54999-.42004-.02002-.06995,.03003-.14996,.10999-.14996h.88c.08002,0,.14001,.08002,.12,.14996-.07001,.25-.28998,.42004-.56,.42004Zm.92999-1.82001c-.19,0-.34998-.19-.34998-.41998,0-.23004,.15997-.42004,.34998-.42004,.20001,0,.36005,.19,.36005,.42004,0,.22998-.16003,.41998-.36005,.41998Z" style="fill:#6e4944;"/></g><g><path d="M20,21.47742l-.98273,4.14478c-.00916,.039-.00018,.07654-.00378,.11554-.0025,.01636-.0127,.02979-.0144,.04675-.00342,.03406,.00995,.06421,.00964,.09747,.00275,.03912,.00281,.07684,.01129,.11426,.04456,.5376,.43591,.98328,.97998,1.06836,.0213,.00336,.03845,.0152,.06024,.0174,.65143,.06531,1.23224-.40997,1.29749-1.0611,.03931-.39258-.13202-.74414-.4057-.98779l1.8512-6.35065-2.01056-.54816-.79266,3.34314Z" style="fill:#6e4944;"/><path d="M34.53986,25.73773c-.0036-.039,.00537-.07654-.00378-.11554l-1.83179-7.72571-1.95355,.7879,1.85059,6.34869c-.27368,.24365-.44501,.59521-.40564,.98779,.06525,.65112,.64606,1.1264,1.29749,1.0611,.57782-.05786,.99384-.5271,1.04016-1.08575,.00848-.03741,.00854-.07513,.01129-.11426-.00024-.03326,.01306-.06342,.00964-.09747-.00171-.01697-.0119-.0304-.0144-.04675Z" style="fill:#6e4944;"/><path d="M30.64001,6.91998c-.08002,0-.17004,.09003-.28003,.15002-.03998,.01996-.08997,.02997-.13,.03998-.32001,.02002-.67999-.03998-1.04999-.15002-1.59998-.45996-3.34998-1.87-3.34998-1.87l-1.52002,1.70001-.66998,.75c-.21002-.46997-.45001-.53998-.54999-.54999-.31,.21997-.53003,.56-.53003,.96002,0,.41998,.23999,.77997,.58002,1,.20996,.13995,.45996,.25,.75,.25,.32001,.73999,.91998,1.32996,1.64996,1.66998,.19,.08997,.38,.14996,.59003,.20001v.64996c0,.44,.34998,.79004,.78998,.79004,.42999,0,.79004-.35004,.79004-.79004v-.64996c.19995-.05005,.38995-.11005,.57996-.20001,.74005-.34003,1.33002-.92999,1.66003-1.66998,.20996,0,.40997-.06,.58002-.15002,.43994-.20001,.73999-.60999,.73999-1.09998,0-.44-.26001-.81-.63-1.03003Zm-4.66003,1.20001c-.19,0-.34998-.19-.34998-.41998,0-.23004,.15997-.42004,.34998-.42004,.20001,0,.36005,.19,.36005,.42004,0,.22998-.16003,.41998-.36005,.41998Zm.94,1.82001c-.26996,0-.48999-.17004-.56-.42004-.01996-.06995,.04004-.14996,.12-.14996h.88c.07001,0,.13,.08002,.10999,.14996-.06995,.25-.28998,.42004-.54999,.42004Zm.92999-1.82001c-.19995,0-.34998-.19-.34998-.41998,0-.23004,.15002-.42004,.34998-.42004,.19,0,.35004,.19,.35004,.42004,0,.22998-.16003,.41998-.35004,.41998Z" style="fill:#6e4944;"/></g></g><g><g><path d="M10.33258,9.19757c-.2843-.00079-.53333-.10297-.74896-.2464l.35931,1.44287c.06982,.28052,.32178,.47742,.61084,.47742h1.43677c-.73743-.33685-1.32977-.93176-1.65796-1.67389Z" style="fill:#333;"/><path d="M14.73529,10.87146h1.42108c.30975,0,.57349-.22534,.62183-.53137l.20319-1.28717c-.17914,.08527-.37372,.14404-.5882,.14465-.32812,.74213-.92047,1.33704-1.6579,1.67389Z" style="fill:#333;"/><path d="M10.08545,7.53699l.66992-.74957,1.51758-1.69818s1.75372,1.40833,3.35138,1.87372c.36841,.1073,.72845,.16449,1.05688,.1427,.03864-.00256,.08319-.01599,.12714-.03479,.10498-.0592,.19366-.1507,.27594-.15228,.00928-.00018,.01971-.01202,.02881-.0094,.03351-2.27686-1.92535-4.13586-4.24512-3.88678-1.78412,.19165-3.21289,1.64172-3.38116,3.42822-.01709,.18176-.02148,.36121-.01392,.5376,0,0,.02283-.00464,.06055-.00134,.10687,.00946,.33881,.08734,.552,.55011Z" style="fill:#333;"/></g><g><path d="M28.28864,10.87146h1.42108c.30975,0,.57355-.22534,.62183-.53137l.20319-1.28717c-.17914,.08527-.37372,.14404-.5882,.14465-.32812,.74213-.92047,1.33704-1.6579,1.67389Z" style="fill:#333;"/><path d="M23.88599,9.19757c-.2843-.00079-.53339-.10297-.74902-.2464l.35931,1.44287c.06982,.28052,.32178,.47742,.6109,.47742h1.43671c-.73743-.33685-1.32977-.93176-1.6579-1.67389Z" style="fill:#333;"/><path d="M23.63879,7.53699l.66992-.74963,1.51758-1.69812s1.75366,1.40833,3.35138,1.87372c.36841,.1073,.72852,.16449,1.05695,.1427,.03857-.00256,.08313-.01599,.12708-.03479,.10504-.0592,.19366-.1507,.27594-.15228,.00928-.00018,.01971-.01202,.02881-.0094,.03351-2.27686-1.92529-4.13586-4.24512-3.88678-1.78412,.19165-3.21289,1.64172-3.3811,3.42822-.01715,.18176-.02155,.36121-.01392,.5376,0,0,.02283-.00464,.06049-.00134,.10687,.00946,.33881,.08728,.552,.55011Z" style="fill:#333;"/></g></g><g><g><path d="M12.43121,8.12317c.19489,0,.35291-.18964,.35291-.42352s-.15802-.42346-.35291-.42346-.35291,.18958-.35291,.42346,.15802,.42352,.35291,.42352Z"/><path d="M14.29456,8.12317c.19495,0,.35297-.18964,.35297-.42352s-.15802-.42346-.35297-.42346c-.19489,0-.35291,.18958-.35291,.42346s.15802,.42352,.35291,.42352Z"/></g><g><path d="M25.98456,8.12317c.19495,0,.35291-.18964,.35291-.42352s-.15796-.42346-.35291-.42346c-.19489,0-.35291,.18958-.35291,.42346s.15802,.42352,.35291,.42352Z"/><path d="M27.84796,8.12317c.19489,0,.35291-.18964,.35291-.42352s-.15802-.42346-.35291-.42346c-.19495,0-.35291,.18958-.35291,.42346s.15796,.42352,.35291,.42352Z"/></g></g><g><path d="M13.9165,9.52209c.02106-.07648-.03528-.15271-.11462-.15271h-.87799c-.07928,0-.13562,.07623-.11462,.15271,.06689,.24298,.28943,.42145,.55365,.42145s.48676-.17847,.55359-.42145Z" style="fill:#56321b;"/><path d="M27.46985,9.52209c.02106-.07648-.03528-.15271-.11456-.15271h-.87805c-.07928,0-.13562,.07623-.11456,.15271,.06683,.24298,.28937,.42145,.55359,.42145s.48676-.17847,.55359-.42145Z" style="fill:#56321b;"/></g></g><rect width="40" height="40" style="fill:none;"/></svg>