<?xml version="1.0" encoding="UTF-8"?><svg id="Layer_1" xmlns="http://www.w3.org/2000/svg" viewBox="0 0 40 40"><g><g><path d="M28.31683,19.74903c-.14827-4.39421-3.36607-7.85189-7.18718-7.72295-3.82108,.12894-6.7985,3.79566-6.65022,8.18988,.10975,3.25288,1.90238,5.79664,4.37591,6.84715,.14507,.06161,.27028,.15526,.3796,.26879,.34513,.35841,1.18346,.66894,2.16319,.66894,.96242,0,1.78658-.30198,2.14221-.65043,.10242-.10035,.22161-.17817,.35478-.23133,2.68382-1.07146,4.53952-3.87886,4.42171-7.37004Z" style="fill:#ffcca8;"/><ellipse cx="19.06628" cy="21.06864" rx=".7367" ry=".88404"/><ellipse cx="23.73" cy="21.06864" rx=".7367" ry=".88404"/><ellipse cx="21.50923" cy="12.22701" rx="3.16357" ry="1.90961" style="fill:#8a94a0;"/><path d="M16.02196,24.81765s-3.65828-1.27732-3.80461-4.10639,1.9023-4.21921,1.9023-4.21921c0,0-.26827-2.04863,2.31691-3.73144,1.1899-.77456,2.29196-.86193,3.13496-.73061,1.70826,.2661,2.5716,2.27366,1.46392,3.60106-.38145,.45711-1.00176,.88667-1.98773,1.1899-4.05391,1.24674-5.29892,3.82313-3.02575,7.99669Z" style="fill:#8a94a0;"/><path d="M26.92201,24.69903c-.07273,.03786,3.53148-1.15992,3.70425-4.00276,.17184-2.82763-1.90231-4.21921-1.90231-4.21921,0,0,.26827-2.04863-2.31691-3.73144-1.1899-.77456-2.29196-.86193-3.13496-.73061-1.70826,.2661-2.5716,2.27366-1.46392,3.60106,.38145,.45711,1.00176,.88667,1.98773,1.1899,4.05391,1.24674,5.39929,3.7195,3.12611,7.89306Z" style="fill:#8a94a0;"/><path d="M21.97566,25.53975c.22807,0,.40469,.11564,.34854,.23525-.11354,.24188-.4175,.41329-.92607,.41329s-.81253-.17141-.92607-.41329c-.05615-.11962,.12047-.23525,.34854-.23525h1.15505Z" style="fill:#5c2f17;"/><path d="M20.03935,24.54196s-.82173,.14956-1.1067,1.44897" style="fill:none; stroke:#ffaf75; stroke-linecap:round; stroke-linejoin:round; stroke-width:.31223px;"/><circle cx="18.6627" cy="21.12939" r="2.11538" style="fill:none; stroke:#fff; stroke-miterlimit:10; stroke-width:.36627px;"/><circle cx="24.13358" cy="21.12939" r="2.11538" style="fill:none; stroke:#fff; stroke-miterlimit:10; stroke-width:.36627px;"/><path d="M20.77808,21.12939s.62808-.49066,1.24011,0" style="fill:none; stroke:#fff; stroke-miterlimit:10; stroke-width:.36627px;"/></g><g><path d="M8.80247,18.67065h25.24133c.3887,0,.53037-.51199,.19696-.7118l-6.49811-3.89425-1.15839-4.39369c-.13868-.52601,.17529-1.06486,.7013-1.20358l1.94903-.51399c.49559-.13069,.58461-.79592,.14083-1.05233l-7.06275-4.08064c-.47254-.27302-1.07698-.10981-1.34788,.36394l-6.22147,10.88028-6.1461,3.89937c-.3239,.2055-.17833,.70667,.20526,.70667Z" style="fill:#5e403b;"/><polygon points="16.34468 11.26408 27.30687 12.41179 27.74264 14.06461 14.74331 14.06461 16.34468 11.26408" style="fill:#be958d;"/></g><g><path d="M19.76758,27.82349c-.42059,.07983-.83771,.18433-1.24646,.32544,.40875-.14111,.82593-.24561,1.24646-.32532v-.00012Z" style="fill:#5e403b;"/><path d="M24.32513,28.14893c-.40875-.14111-.82587-.24561-1.24646-.32544v.00012c.42053,.07971,.83771,.1842,1.24646,.32532Z" style="fill:#5e403b;"/><path d="M16.90424,28.74976l-2.13123,.80969c-.06665,.02527-.125,.06506-.19073,.09204,.0636-.03064,.12408-.06665,.19055-.09167l2.13141-.81006Z" style="fill:#5e403b;"/><path d="M33.23291,36.77319l-.44592-1.81226c-.17346-.70483-.40228-1.40161-.76367-2.03113-.8808-1.53442-2.27094-2.73242-3.95007-3.37036l-2.00708-.76257,2.00696,.76294c.09424,.03564,.17749,.09082,.26978,.12988l-1.61401,7.62207h-10.1499l-2.03638-7.64111c-1.57184,.65796-2.88116,1.79834-3.71973,3.25928-.36133,.62939-.59021,1.32629-.76361,2.03113l-.44598,1.81213c-.06738,.27405,.14001,.5387,.42218,.5387h22.77533c.28217,0,.48956-.26465,.42212-.5387Z" style="fill:#5e403b;"/><path d="M18.35535,37.31177l-.89453-8.77344-.55658,.21143-2.13141,.81006c-.06647,.02502-.12695,.06104-.19055,.09167-.01324,.00647-.02606,.01331-.03967,.01917l2.03638,7.64111h1.77637Z" style="fill:#ffc84d;"/><path d="M26.72888,37.31177l1.61401-7.62207c-.09229-.03906-.17554-.09424-.26978-.12988l-2.00696-.76294-.30164-.1145-.79907,8.62939h1.76343Z" style="fill:#ffc84d;"/><path d="M21.42322,37.31177h3.54224l.79907-8.62939-1.17993-.44824c-.08545-.03247-.17328-.05554-.25946-.08521-.40875-.14111-.82593-.24561-1.24646-.32532v1.05237c0,.91431-.74121,1.65552-1.65558,1.65552-.91431,0-1.65552-.74121-1.65552-1.65552v-1.05237c-.42053,.07971-.83771,.1842-1.24646,.32532-.08618,.02966-.17407,.05273-.25952,.08521l-.80078,.3042,.89453,8.77344h3.06787Z" style="fill:#ec6700;"/></g><path d="M19.76758,28.87598c0,.91431,.74121,1.65552,1.65552,1.65552,.91437,0,1.65558-.74121,1.65558-1.65552v-1.65552h-3.3111v1.65552Z" style="fill:#ffcca8;"/><g><path d="M15.00104,37.31189l-3.65015-7.46423-.55151-.01611c-.12799-.00378-.24969,.05566-.32532,.15894l-.32599,.44531,3.36249,6.87598,1.49048,.00012Z" style="fill:#949494;"/><path d="M10.79938,29.83154l.55151,.01611,1.47583,.04297c.32233,.00952,.51556-.35474,.32697-.61646l-1.18616-1.64514c-.07489-.10388-.09387-.23792-.05078-.35852l.6828-1.90979c.10858-.30359-.17816-.59998-.48523-.50146l-1.93121,.61975c-.12195,.03906-.25531,.01562-.35669-.0625l-1.60535-1.23962c-.25525-.19714-.62567-.01599-.62689,.30652l-.00739,2.02832c-.00043,.12793-.0639,.24756-.16968,.31982l-1.67493,1.1438c-.26636,.18176-.20856,.59009,.09778,.69092l1.9267,.63367c.12164,.04004,.21582,.13733,.25177,.26025l.57019,1.94641c.09064,.30957,.49683,.38062,.68732,.12048l.87213-1.19128,.32599-.44531c.07562-.10327,.19733-.16272,.32532-.15894Z" style="fill:#ffc450;"/></g></g><rect width="40" height="40" style="fill:none;"/></svg>