<?xml version="1.0" encoding="UTF-8"?><svg id="Layer_1" xmlns="http://www.w3.org/2000/svg" viewBox="0 0 40 40"><g><path d="m8.065,31.235c-.256,0-.512-.098-.707-.293-.391-.391-.391-1.023,0-1.414l11.259-11.259c.391-.391,1.023-.391,1.414,0s.391,1.023,0,1.414l-11.259,11.259c-.195.195-.451.293-.707.293Z" fill="#a84d4d"/><path d="m1.697,21.38c-.386-.386-.392-1.012-.01-1.405.385-.396,1.018-.405,1.414-.019,5.178,5.035,10.083.246,10.29.039l5.896-5.896c.391-.391,1.023-.391,1.414,0s.391,1.023,0,1.414l-5.896,5.896c-2.23,2.23-7.837,5.097-13.099-.02l-.01-.01Z" fill="#a84d4d"/><path d="m18.612,38.445l-.01-.01c-6.47-6.648-.155-13.114-.091-13.178l5.896-5.896c.393-.393,1.03-.393,1.422,0s.393,1.03,0,1.422l-5.896,5.896c-.203.206-4.963,5.14.11,10.352.387.398.379,1.035-.019,1.422-.395.384-1.024.379-1.413-.01Z" fill="#a84d4d"/><path d="m9.754,32.924c-.256,0-.512-.098-.707-.293-.391-.391-.391-1.023,0-1.414l11.26-11.26c.391-.391,1.023-.391,1.414,0s.391,1.023,0,1.414l-11.26,11.26c-.195.195-.451.293-.707.293Z" fill="#a84d4d"/><path d="m24.082,1.261h12.942c.868,0,1.572.704,1.572,1.572v14.514h-14.514c-.868,0-1.572-.704-1.572-1.572V2.833c0-.868.704-1.572,1.572-1.572Z" transform="translate(39.856 -21.249) rotate(90)" fill="#a84d4d"/><path d="m24.803,25.45c6.807-6.807,9.999-14.653,7.128-17.524-2.871-2.871-10.717.32-17.524,7.128l10.396,10.396Z" fill="#d1736e"/><circle cx="18.414" cy="19.066" r="1.562" fill="#4d2819"/><circle cx="20.907" cy="21.559" r="1.562" fill="#4d2819"/></g><rect width="40" height="40" fill="none"/></svg>