<svg id="Layer_1" data-name="Layer 1" xmlns="http://www.w3.org/2000/svg" viewBox="0 0 40 40"><defs><style>.cls-1{fill:#cf892d;}.cls-2{fill:#ffa938;}.cls-3{fill:#ffca38;}.cls-4{fill:#b83f28;}.cls-5{fill:#ff5638;}.cls-6{fill:#188f3d;}.cls-7{fill:none;}</style></defs><path class="cls-1" d="M3.112,26.855l15.575,8.414a3.225,3.225,0,0,0,3.072,0l15.335-8.285a1.338,1.338,0,0,0,.694-1.18V23.64H2.658v2.441A.878.878,0,0,0,3.112,26.855Z"/><path class="cls-2" d="M2.658,23.64,18.51,15.923a3.153,3.153,0,0,1,2.741-.028L37.788,23.64,21.76,32.3a3.226,3.226,0,0,1-3.075,0Z"/><path class="cls-3" d="M4.1,23l14.678,7.929a3.034,3.034,0,0,0,2.9,0l14.453-7.807a1.264,1.264,0,0,0,.654-1.113V19.969H3.669v2.3A.827.827,0,0,0,4.1,23Z"/><path class="cls-4" d="M17.931,20.169c0,2.329-3.266,4.217-7.3,4.217s-7.3-1.888-7.3-4.217V18.634H17.931Z"/><ellipse class="cls-5" cx="10.635" cy="18.634" rx="7.296" ry="4.217"/><path class="cls-4" d="M37.106,20.169c0,2.329-3.266,4.217-7.3,4.217s-7.295-1.888-7.295-4.217V18.634H37.106Z"/><ellipse class="cls-5" cx="29.81" cy="18.634" rx="7.296" ry="4.217"/><path class="cls-4" d="M26.925,25.409c0,2.139-3,3.874-6.7,3.874s-6.7-1.735-6.7-3.874V24H26.925Z"/><ellipse class="cls-5" cx="20.223" cy="23.998" rx="6.703" ry="3.874"/><path class="cls-6" d="M2.624,18.888l4.76,1.472a4.043,4.043,0,0,1,1.894,1.259l1.2,1.768A2.435,2.435,0,0,0,12.2,24.449l3.282.5a2.568,2.568,0,0,1,1.306.613l1.957,1.726a3.1,3.1,0,0,0,2.953,0l1.947-1.655a1.982,1.982,0,0,1,1.244-.475L28,25.1a1.434,1.434,0,0,0,1.133-.6l1.232-1.6a7.934,7.934,0,0,1,3.273-2.51L37.492,18.8a.868.868,0,0,0,.368-1.264l-.754-1.163-33.767.35-.892.517A.911.911,0,0,0,2.624,18.888Z"/><path class="cls-3" d="M3.408,16.983l15.279,8.254a3.22,3.22,0,0,0,3.072,0l15.278-8.254a.13.13,0,0,0,.069-.117V14.224a.13.13,0,0,0-.128-.132H3.468a.131.131,0,0,0-.129.132v2.642A.131.131,0,0,0,3.408,16.983Z"/><path class="cls-1" d="M3.112,15.6l15.575,8.414a3.225,3.225,0,0,0,3.072,0L37.094,15.73a1.338,1.338,0,0,0,.694-1.18V12.386H2.658v2.441A.878.878,0,0,0,3.112,15.6Z"/><path class="cls-2" d="M2.658,12.386,18.51,4.669a3.153,3.153,0,0,1,2.741-.028l16.537,7.745L21.76,21.045a3.226,3.226,0,0,1-3.075,0Z"/><rect class="cls-7" width="40" height="40"/></svg>