<svg id="Layer_1" data-name="Layer 1" xmlns="http://www.w3.org/2000/svg" viewBox="0 0 40 40"><defs><style>.cls-1{fill:#3e26b1;}.cls-2{fill:#ffb582;}.cls-3{fill:#5c2f17;}.cls-4{fill:#786de7;}.cls-5{fill:#ffdb87;}.cls-6{fill:#ef3452;}.cls-7{fill:none;}</style></defs><path class="cls-1" d="M28.116,28.039l-4.258-1.618a10.865,10.865,0,0,0-7.716,0l-4.258,1.618a9.411,9.411,0,0,0-4.821,4.113,9.522,9.522,0,0,0-.932,2.479l-.544,2.211A.531.531,0,0,0,6.1,37.5H33.9a.531.531,0,0,0,.515-.658l-.544-2.211a9.522,9.522,0,0,0-.932-2.479A9.411,9.411,0,0,0,28.116,28.039Z"/><circle class="cls-2" cx="20" cy="15.701" r="9.254"/><ellipse class="cls-2" cx="11.554" cy="15.961" rx="3.705" ry="3.475"/><ellipse class="cls-2" cx="28.446" cy="15.961" rx="3.705" ry="3.475"/><path class="cls-3" d="M21.225,19.913a.335.335,0,0,1,.32.426,1.6,1.6,0,0,1-3.09,0,.335.335,0,0,1,.32-.426Z"/><polygon class="cls-2" points="22.837 29.967 17.186 29.967 17.793 25.94 17.793 23.536 22.231 23.536 22.231 25.945 22.837 29.967"/><polygon class="cls-4" points="22.814 29.967 20 29.967 17.186 29.967 11.838 37.5 20 37.5 28.162 37.5 22.814 29.967"/><path class="cls-5" d="M8.39,11.172l1.98,2.474s4.089-1.461,5.208-2.861c1.143-1.43,4.339-4.019,8.007-2.86L25.574,12.3l3.136,1.344a1.394,1.394,0,0,0,1.146-.892l.53-1.994a3.774,3.774,0,0,0-2.612-3.935h0s-1.569-5.143-9.561-4.212S10.1,10.1,10.1,10.1l-1.53.49A.371.371,0,0,0,8.39,11.172Z"/><path class="cls-6" d="M19.616,13.634c-3.82-2.844-9.235-.165-9.235-.165s2.9,4.666,5.86,4.917a3.529,3.529,0,0,0,3.331-1.4.547.547,0,0,1,.88,0,3.526,3.526,0,0,0,3.33,1.4c2.959-.251,5.86-4.917,5.86-4.917s-5.415-2.679-9.235.165A.653.653,0,0,1,19.616,13.634Z"/><ellipse class="cls-2" cx="16.71" cy="15.365" rx="2.269" ry="1.698"/><ellipse class="cls-2" cx="23.05" cy="15.365" rx="2.269" ry="1.698"/><ellipse cx="17.287" cy="15.365" rx="0.985" ry="1.182"/><ellipse cx="22.716" cy="15.365" rx="0.985" ry="1.182"/><rect class="cls-7" width="40" height="40"/></svg>