<?xml version="1.0" encoding="UTF-8"?><svg id="Layer_1" xmlns="http://www.w3.org/2000/svg" viewBox="0 0 40 40"><g><path d="M4.78075,8.40662c.05038-.35152,.33531-.70559,.63233-.70559h7.29796s-1.59754,2.04664-1.57235,2.06801l.40552,5.25487s-7.10459-4.24144-6.76346-6.61729Z" style="fill:#3a2202;"/><path d="M35.21925,8.40662c-.05038-.35152-.33531-.70559-.63233-.70559h-7.29796s1.59754,2.04664,1.57235,2.06801l-.40552,5.25487s7.10459-4.24144,6.76346-6.61729Z" style="fill:#3a2202;"/><g><circle cx="20" cy="22.48712" r="16" style="fill:#ffc84d;"/><g><ellipse cx="15.68955" cy="18.1226" rx="1.9147" ry="2.49428"/><ellipse cx="24.31045" cy="18.1226" rx="1.9147" ry="2.49428"/></g><path d="M28.73591,23.77753c.66981,0,1.21142,.59994,1.08841,1.25836-.73422,3.92965-4.85314,6.93855-9.82434,6.93855s-9.09012-3.0089-9.82434-6.93855c-.12302-.65841,.4186-1.25836,1.08841-1.25836H28.73591Z" style="fill:#ff6d00;"/><path d="M20.00005,26.09302c3.25989,0,6.27541-.8592,8.73586-2.31549l-17.47193,.00006c2.46056,1.45629,5.47619,2.31543,8.73608,2.31543Z" style="fill:#fff;"/></g><path d="M34.58691,7.70099h-6.74536l-2.29797-4.8125c-.55261-1.17578-1.79797-1.37561-3.12854-1.37561h-2.41504V12.48621c3.77954,0,6.89697-.82928,9.24561-1.91003,3.16687-1.45734,5.34131-2.87518,5.34131-2.87518Z" style="fill:#734600;"/><path d="M5.41309,7.70099h6.74536l2.29797-4.8125c.55261-1.17578,1.79797-1.37561,3.12854-1.37561h2.41504V12.48621c-3.77954,0-6.89697-.82928-9.24561-1.91003-3.16687-1.45734-5.34131-2.87518-5.34131-2.87518Z" style="fill:#734600;"/><polygon points="26.91999 5.81666 13.08015 5.81666 12.15944 7.70103 27.84159 7.70103 26.91999 5.81666" style="fill:#995607;"/></g><rect y="0" width="40" height="40" style="fill:none;"/></svg>