<?xml version="1.0" encoding="UTF-8"?><svg id="Layer_1" xmlns="http://www.w3.org/2000/svg" viewBox="0 0 40 40"><g><line x1="17.302" y1="5.516" x2="20.005" y2="25.548" fill="none" stroke="#594f41" stroke-miterlimit="10" stroke-width=".874"/><path d="m21.397,7.279c.282,2.092-1.185,4.018-3.278,4.3-2.092.282-4.018-1.185-4.3-3.278" fill="none" stroke="#594f41" stroke-miterlimit="10" stroke-width=".874"/><polygon points="17.423 6.417 15.971 5.31 16.961 2.991 18.531 4.964 17.423 6.417" fill="#594f41"/><polygon points="13.975 9.452 12.522 8.345 13.513 6.026 15.083 7.999 13.975 9.452" fill="#594f41"/><polygon points="21.553 8.43 20.1 7.323 21.09 5.004 22.66 6.977 21.553 8.43" fill="#594f41"/><path d="m2.425,19.783s-1.682,8.65,6.428,10.332c0,0,4.81,10.493,15.979,5.587,6.428-2.823,7.329-11.354,7.329-11.354-2.233-.119-4.223-.957-5.947-2.583,0,0-3.863,1.218-6.067,6.188-2.251,5.077-7.93,3.244-8.53,1.682,0,0,4.205-2.343,3.184-7.93l-6.248,2.463-6.127-4.385Z" fill="#64a7ff"/><g><path d="m19.494,20.284l5.123-5.575c.704-.766,1.519-1.43,2.443-1.908.753-.389,1.666-.729,2.557-.729,2.08,0,4.266.698,5.668,3.365.983,1.871,1.833,3.564,2.252,4.408.182.366.229.781.135,1.179l-1.598,4.885-1.789-1.405.548-3.218c.143-.528.055-1.092-.243-1.551l-1.294-1.992s.283,2.193-1.134,6.605c-2.397-.038-4.392-.873-5.947-2.583,0,0,.938-2.568.469-4.43l-5.854,4.6-1.335-1.652Z" fill="#6e4944"/><path d="m20.92,19.359l-1.186-.313c-.2-.053-.411-.041-.604.033l-.783.3c-.301.115-.484.42-.446.739l.166,1.39c.079.665.749,1.089,1.384.877l1.396-.467.074-2.559Z" fill="#6e4944"/><path d="m34.336,24.304l-1.613.76c-.222.099-.355.329-.33.57h0c.027.262.231.47.492.501l.207.025c.208.025.342.232.281.432l-.245.794c-.079.256-.005.536.19.72l.046.043c.229.216.542.321.855.288l.333-.035c.474-.05.873-.379,1.014-.835l.717-2.327-1.946-.937Z" fill="#6e4944"/></g><g><circle cx="31.633" cy="8.725" r="3.31" fill="#6e4944"/><g><ellipse cx="28.632" cy="8.373" rx="1.243" ry="1.325" transform="translate(16.148 35.467) rotate(-81.563)" fill="#6e4944"/><ellipse cx="34.607" cy="9.26" rx="1.243" ry="1.325" transform="translate(20.37 42.134) rotate(-81.563)" fill="#6e4944"/></g><path d="m35.475,8.335c.366-2.243-1.295-4.365-3.622-4.458-1.789-.072-3.412,1.15-3.84,2.889-.044.177-.081.375-.099.55,0,0,.44-.174.634.524l2.415-2.01s2.309,2.494,4.056,2.636c.038.003.084-.004.131-.016.125-.048.24-.154.324-.115Z" fill="#ef4452"/><path d="m31.846,10.279c.078.012.123.095.091.167-.102.23-.347.374-.608.335s-.454-.247-.485-.497c-.01-.079.057-.146.135-.134l.867.129Z" fill="#5c2f17"/><g><ellipse cx="30.691" cy="8.463" rx=".423" ry=".352" transform="translate(17.816 37.581) rotate(-81.563)"/><ellipse cx="32.611" cy="8.748" rx=".423" ry=".352" transform="translate(19.173 39.723) rotate(-81.563)"/></g></g><rect x="30.309" y="11.348" width="1.536" height="1.839" transform="translate(2.136 -4.427) rotate(8.437)" fill="#6e4944"/><polygon points="23.519 15.903 25.001 18.657 26.683 17.336 25.101 14.216 23.519 15.903" fill="#c3846c"/></g><rect width="40" height="40" fill="none"/></svg>