<?xml version="1.0" encoding="UTF-8"?><svg id="Layer_1" xmlns="http://www.w3.org/2000/svg" viewBox="0 0 40 40"><g><g><path d="m17.043,34.987l-1.755,1.7c-.268.26-.412.567-.412.882v.27c0,.365.449.662,1.002.662h1.07c.791,0,1.513-.296,1.864-.764l.285-.38c.073-.098.111-.205.111-.314v-2.341h-2.166v.286Z" fill="#2e3d51"/><path d="m23.112,34.987l1.755,1.7c.268.26.412.567.412.882v.27c0,.365-.449.662-1.002.662h-1.07c-.791,0-1.513-.296-1.864-.764l-.285-.38c-.073-.098-.111-.205-.111-.314v-1.801s0-.54,0-.54h2.166v.286Z" fill="#2e3d51"/><path d="m15.029,24.778l1.387-7.46c.065-.491-.727-.918-1.216-.983-.495-.076-.943.278-1.007.769l-1.136,8.498c-.006.042.008.08.008.122,0,.017-.01.033-.01.051,0,.036.017.066.02.101.007.041.011.08.024.119.108.583.595,1.032,1.209,1.032.692,0,1.253-.561,1.253-1.253,0-.417-.217-.769-.531-.996Z" fill="#6e4944"/><path d="m24.971,24.778l-1.387-7.46c-.065-.491.727-.918,1.216-.983.495-.076.943.278,1.007.769l1.136,8.498c.006.042-.008.08-.008.122,0,.017.01.033.01.051,0,.036-.017.066-.02.101-.007.041-.011.08-.024.119-.108.583-.595,1.032-1.209,1.032-.692,0-1.253-.561-1.253-1.253,0-.417.217-.769.531-.996Z" fill="#6e4944"/><polygon points="19.996 11.964 17.696 11.964 16.173 20.906 16.393 35.244 19.508 35.244 20.05 25.133 19.996 11.964" fill="#30587f"/><polygon points="20.05 11.964 22.509 11.964 23.873 20.906 23.653 35.244 20.538 35.244 19.996 25.133 20.05 11.964" fill="#30587f"/><path d="m13.44,17.476l2.815.768-.31,4.221h8.168l-.383-4.254,2.199-1.064-.386-3.106c-.158-1.269-1.03-2.334-2.243-2.739l-3.335-1.114-3.498,1.184c-1.09.369-1.912,1.276-2.171,2.398l-.856,3.708Z" fill="#64a7ff"/></g><path d="m19.116,9.705h1.671v1.016c0,.461-.374.835-.835.835h0c-.461,0-.835-.374-.835-.835v-1.016h0Z" fill="#6e4944"/><g><circle cx="19.951" cy="6.638" r="3.506" fill="#6e4944"/><g><ellipse cx="16.751" cy="6.736" rx="1.403" ry="1.316" fill="#6e4944"/><ellipse cx="23.15" cy="6.736" rx="1.403" ry="1.316" fill="#6e4944"/></g><path d="m23.915,5.633c.035-2.407-2.035-4.372-4.488-4.109-1.886.203-3.396,1.735-3.574,3.624-.018.192-.023.382-.015.568,0,0,.343-.082.648.58l2.313-2.588s2.807,2.255,4.66,2.132c.041-.003.088-.017.134-.037.124-.07.227-.199.322-.171Z" fill="#333"/><g><ellipse cx="18.966" cy="6.468" rx=".373" ry=".448"/><ellipse cx="20.936" cy="6.468" rx=".373" ry=".448"/></g><path d="m20.415,8.233c.084,0,.143.081.121.161-.071.257-.306.446-.585.446s-.515-.189-.585-.446c-.022-.081.037-.161.121-.161h.928Z" fill="#5c2f17"/></g><path d="m19.996,7.602c-.541,0-1.022.186-1.333.476-.163.152-.056.426.167.426l.929-.121c.157-.02.316-.02.474,0l.929.121c.223,0,.331-.274.167-.426-.311-.29-.792-.476-1.333-.476Z" fill="#333"/></g><rect x="0" width="40" height="40" fill="none"/></svg>