<?xml version="1.0" encoding="UTF-8"?><svg id="Layer_1" xmlns="http://www.w3.org/2000/svg" viewBox="0 0 40 40"><g><g><path d="M34.16669,9.93365H5.83331c-1.84094,0-3.33331,1.49219-3.33331,3.33301V31.60015c0,1.84082,1.49237,3.3335,3.33331,3.3335h28.33337c1.84094,0,3.33331-1.49268,3.33331-3.3335V13.26666c0-1.84082-1.49237-3.33301-3.33331-3.33301Z" style="fill:#86584a;"/><path d="M28.1665,9.93359h-3v-3.17725c0-.10498-.08496-.18994-.18994-.18994H15.02344c-.10498,0-.18994,.08496-.18994,.18994v3.17725h-3v-3.17725c0-1.75879,1.43115-3.18994,3.18994-3.18994h9.95312c1.75879,0,3.18994,1.43115,3.18994,3.18994v3.17725Z" style="fill:#4e5968;"/></g><g><rect x="8.98984" y="9.93345" width="2.7624" height="25.0002" style="fill:#5e403b;"/><rect x="28.24775" y="9.93345" width="2.7624" height="25.0002" style="fill:#5e403b;"/></g></g><rect width="40" height="40" style="fill:none;"/></svg>