<?xml version="1.0" encoding="UTF-8"?><svg id="Layer_1" xmlns="http://www.w3.org/2000/svg" viewBox="0 0 40 40"><g><circle cx="20" cy="19.374" r="17.5" fill="#ffc84d"/><circle cx="15.422" cy="13.01" r="2.114"/><circle cx="24.578" cy="13.01" r="2.114"/><g><path d="m23.806,25.107l-4.209.044c-1.652.017-3.036,1.255-3.237,2.895l-.925,7.546c-.123,1.005.592,1.919,1.596,2.042l3.905.479c.584.072,1.166-.141,1.566-.572l4.371-4.708h0c.997-1.081,1.275-2.642.712-4.001l-.514-1.24c-.562-1.356-1.81-2.305-3.267-2.484Z" fill="#ff9210"/><path d="m18.356,18.297h3.287v8.705c0,.907-.736,1.644-1.644,1.644h0c-.907,0-1.644-.736-1.644-1.644v-8.705h0Z" transform="translate(40 46.942) rotate(-180)" fill="#ff9210"/></g></g><rect y="0" width="40" height="40" fill="none"/></svg>