<?xml version="1.0" encoding="UTF-8"?><svg id="Layer_1" xmlns="http://www.w3.org/2000/svg" viewBox="0 0 40 40"><g><g><g><g><path d="m6.64,24.039c-.48-.002-.926-.14-1.296-.375l.617,2.476c.123.492.565.838,1.073.838h2.505c-1.289-.593-2.324-1.639-2.898-2.939Z" fill="#f8d585"/><path d="m14.394,26.977h2.477c.544,0,1.007-.396,1.092-.933l.354-2.242c-.31.146-.655.235-1.025.237-.574,1.299-1.609,2.346-2.898,2.939Z" fill="#f8d585"/><path d="m6.211,21.123l1.189-1.33,2.652-2.968s3.051,2.448,5.845,3.277c.66.196,1.307.302,1.895.263.068-.005.146-.028.223-.061.203-.114.373-.322.529-.284.002,0,.004,0,.006,0,.059-3.998-3.381-7.262-7.454-6.824-3.133.336-5.641,2.882-5.937,6.019-.03.319-.038.634-.024.944,0,0,.027-.004.065-.004.159,0,.602.081,1.011.967Z" fill="#f8d585"/></g><path d="m18.54,20.02c-.15-.04-.32.17-.52.28-.08.04-.16.06-.23.07-.59.03-1.23-.07-1.89-.27-2.8-.83-5.85-3.28-5.85-3.28l-2.65,2.97-1.19,1.33c-.41-.88-.85-.97-1.01-.96-.53.4-.88,1-.88,1.69,0,.76.41,1.42,1.02,1.81.37.24.82.38,1.3.38.57,1.3,1.61,2.34,2.9,2.94.35.16.71.28,1.09.37v1.09c0,.07.04.13.11.17.32.15,1.32.54,2.39,0,.07-.03.11-.1.11-.18v-1.06c.4-.09.79-.22,1.15-.39,1.29-.6,2.33-1.64,2.9-2.94.37,0,.72-.09,1.03-.24.76-.36,1.29-1.09,1.29-1.95,0-.77-.42-1.44-1.07-1.83Zm-8.21,2.13c-.34,0-.62-.33-.62-.74s.28-.75.62-.75.62.34.62.75-.28.74-.62.74Zm1.64,3.2c-.47,0-.86-.32-.98-.74-.03-.14.07-.27.21-.27h1.54c.14,0,.23.13.2.27-.12.42-.51.74-.97.74Zm1.63-3.2c-.34,0-.62-.33-.62-.74s.28-.75.62-.75.62.34.62.75-.28.74-.62.74Z" fill="#f5af80"/><path d="m10.33,22.152c.342,0,.62-.333.62-.744s-.277-.744-.62-.744-.62.333-.62.744.277.744.62.744Z"/><ellipse cx="13.602" cy="21.408" rx=".62" ry=".744"/><path d="m12.737,24.34h-1.542c-.139,0-.238.134-.201.268.117.427.508.74.972.74s.855-.313.972-.74c.037-.134-.062-.268-.201-.268Z" fill="#5c2f17"/><path d="m18.8,30.691c-2.311-1.432-4.766-2.411-5.562-2.712v.456c0,.072-.042.141-.106.174-1.069.544-2.077.151-2.396-.003-.065-.031-.104-.096-.104-.169v-.458c-.796.301-3.251,1.28-5.562,2.712-2.805,1.738-2.647,6.772-2.647,6.772h19.023s.158-5.034-2.647-6.772Z" fill="#abb7c7"/></g><g><g><path d="m22.77,24.039c-.48-.002-.926-.14-1.296-.375l.617,2.476c.123.492.565.838,1.073.838h2.505c-1.289-.593-2.324-1.639-2.898-2.939Z" fill="#333"/><path d="m30.523,26.977h2.477c.544,0,1.007-.396,1.092-.933l.354-2.242c-.31.146-.655.235-1.025.237-.574,1.299-1.609,2.346-2.898,2.939Z" fill="#333"/><path d="m22.34,21.123l1.189-1.33,2.652-2.968s3.05,2.448,5.845,3.277c.66.196,1.307.302,1.895.263.068-.005.146-.028.223-.061.203-.114.373-.322.529-.284.002,0,.004,0,.006,0,.059-3.998-3.381-7.262-7.454-6.824-3.133.336-5.641,2.882-5.937,6.019-.03.319-.038.634-.024.944,0,0,.027-.004.065-.004.159,0,.602.081,1.011.967Z" fill="#333"/></g><path d="m34.67,20.02c-.15-.04-.32.17-.53.28-.07.04-.15.06-.22.07-.59.03-1.23-.07-1.89-.27-2.8-.83-5.85-3.28-5.85-3.28l-2.65,2.97-1.19,1.33c-.41-.88-.85-.97-1.01-.96-.53.4-.88,1-.88,1.69,0,.76.41,1.42,1.02,1.81.37.24.82.38,1.3.38.57,1.3,1.61,2.34,2.9,2.94.35.16.71.28,1.09.37v1.09c0,.07.04.13.11.17.31.15,1.32.54,2.39,0,.07-.03.11-.1.11-.18v-1.06c.4-.09.79-.22,1.15-.39,1.29-.6,2.33-1.64,2.9-2.94.37,0,.72-.09,1.03-.24.76-.36,1.29-1.09,1.29-1.95,0-.77-.43-1.44-1.07-1.83Zm-8.21,2.13c-.34,0-.62-.33-.62-.74s.28-.75.62-.75.62.34.62.75-.28.74-.62.74Zm1.64,3.2c-.47,0-.86-.32-.98-.74-.03-.14.07-.27.2-.27h1.55c.14,0,.23.13.2.27-.12.42-.51.74-.97.74Zm1.63-3.2c-.34,0-.62-.33-.62-.74s.28-.75.62-.75.62.34.62.75-.28.74-.62.74Z" fill="#956759"/><ellipse cx="26.459" cy="21.408" rx=".62" ry=".744"/><path d="m29.731,22.152c.342,0,.62-.333.62-.744s-.277-.744-.62-.744-.62.333-.62.744.277.744.62.744Z"/><path d="m28.866,24.34h-1.542c-.139,0-.238.134-.201.268.117.427.508.74.972.74s.855-.313.972-.74c.037-.134-.062-.268-.201-.268Z" fill="#5c2f17"/><path d="m34.929,30.691c-2.311-1.432-4.766-2.411-5.562-2.712v.456c0,.072-.042.141-.106.174-1.069.544-2.077.151-2.396-.003-.065-.031-.104-.096-.104-.169v-.458c-.796.301-3.251,1.28-5.562,2.712-2.805,1.738-2.647,6.772-2.647,6.772h19.023s.158-5.034-2.647-6.772Z" fill="#abb7c7"/></g></g><path d="m19.318,13.941c.415.274.95.274,1.365,0,1.317-.87,4.186-2.948,5.421-5.274,1.629-3.069-.284-6.129-2.813-6.129-1.442,0-2.309.753-2.789,1.401-.253.341-.752.341-1.005,0-.479-.648-1.347-1.401-2.789-1.401-2.528,0-4.442,3.061-2.813,6.129,1.235,2.326,4.105,4.404,5.421,5.274Z" fill="#ec4452"/></g><rect width="40" height="40" fill="none"/></svg>