<?xml version="1.0" encoding="UTF-8"?><svg id="Layer_1" xmlns="http://www.w3.org/2000/svg" viewBox="0 0 40 40"><g><polygon points="24.963 33.212 20.605 33.212 16.247 33.212 15.887 35.874 18.679 35.034 20.605 37.5 22.367 35.034 25.323 35.874 24.963 33.212" fill="#6e4944"/><path d="m27.249,8.302c-.054-.028-4.542-2.378-5.294-5.059-.126-.45-.594-.743-1.094-.743h-1.722c-.499,0-.968.293-1.094.743-.752,2.681-5.238,5.03-5.294,5.059-5.114,2.258-8.619,6.819-8.619,12.09,0,7.512,7.104,13.602,15.868,13.602s15.868-6.09,15.868-13.602c0-5.271-3.504-9.832-8.618-12.09Z" fill="#d45f98"/><path d="m16.367,5.691c-1.559,1.502-3.579,2.564-3.616,2.583-5.114,2.258-8.619,6.819-8.619,12.09,0,6.434,5.219,11.812,12.222,13.226-8.849-14.593.01-27.897.013-27.9Z" fill="#b85284"/><path d="m23.633,5.691c1.559,1.502,3.579,2.564,3.616,2.583,5.114,2.258,8.619,6.819,8.619,12.09,0,6.434-5.219,11.812-12.222,13.226,8.849-14.593-.01-27.897-.013-27.9Z" fill="#b85284"/></g><rect width="40" height="40" fill="none"/></svg>