<?xml version="1.0" encoding="UTF-8"?><svg id="Layer_1" xmlns="http://www.w3.org/2000/svg" viewBox="0 0 40 40"><g><g><ellipse cx="6.31613" cy="7.50821" rx="4.63885" ry="4.46445" transform="translate(-3.45915 6.66528) rotate(-45)" style="fill:#22c57e;"/><ellipse cx="10.95858" cy="6.65755" rx="3.89868" ry="3.75211" transform="translate(-1.4979 9.69884) rotate(-45)" style="fill:#22c57e;"/><ellipse cx="5.46548" cy="12.15065" rx="3.89868" ry="3.75211" transform="translate(-6.99101 7.42352) rotate(-45)" style="fill:#22c57e;"/></g><g><ellipse cx="33.68387" cy="7.50821" rx="4.46445" ry="4.63885" transform="translate(4.55667 26.01719) rotate(-45)" style="fill:#22c57e;"/><ellipse cx="29.04142" cy="6.65755" rx="3.75211" ry="3.89868" transform="translate(3.79844 22.48533) rotate(-45)" style="fill:#22c57e;"/><ellipse cx="34.53452" cy="12.15065" rx="3.75211" ry="3.89868" transform="translate(1.52312 27.97844) rotate(-45)" style="fill:#22c57e;"/></g><circle cx="20" cy="20.66855" r="16.5" style="fill:#ffded4;"/><ellipse cx="20" cy="21.25" rx="3.87085" ry="3.72533" style="fill:#d90058;"/><path d="M20.03906,29.52148c-2.3584,0-4.82422-.60059-6.94434-1.69043-.7373-.37891-1.02734-1.2832-.64844-2.01953,.37891-.73828,1.28711-1.02832,2.01953-.64844,1.7041,.87598,3.68359,1.3584,5.57324,1.3584,1.87012,0,3.66211-.46875,5.47656-1.43359,.7334-.3877,1.64062-.11035,2.02832,.62012,.38867,.73145,.11133,1.63965-.62012,2.02832-2.25879,1.20117-4.51074,1.78516-6.88477,1.78516Z" style="fill:#d90058;"/><g><circle cx="14.96388" cy="15.69878" r="2.09252"/><circle cx="25.03612" cy="15.69878" r="2.09252"/></g></g><rect width="40" height="40" transform="translate(40 40) rotate(-180)" style="fill:none;"/></svg>