<svg id="Layer_1" data-name="Layer 1" xmlns="http://www.w3.org/2000/svg" viewBox="0 0 40 40"><defs><style>.cls-1{fill:#86584a;}.cls-2{fill:#ac8074;}.cls-3{fill:#6e4944;}.cls-4{fill:#f7f7f7;}.cls-5{fill:#fff;}.cls-6{fill:#5e3a34;}.cls-7{fill:#693f33;}.cls-8{fill:none;}</style></defs><circle class="cls-1" cx="33.132" cy="10.946" r="1.912"/><circle class="cls-1" cx="17.229" cy="10.741" r="1.912"/><path class="cls-2" d="M2.464,34.617h14.56s16.764.487,18.763-8.872-1.3-20.039-10.676-20.36C16.02,5.073,13.168,17.312,13.168,17.312S1.41,19.652,2.464,34.617Z"/><path class="cls-3" d="M8.689,32.378c0-3.621,1.649-6.557,3.684-6.557s3.685,2.936,3.685,6.557a11.145,11.145,0,0,1-.226,2.243H8.914A11.219,11.219,0,0,1,8.689,32.378Z"/><path class="cls-3" d="M1.347,32.48c0-3.457,1.575-6.26,3.518-6.26s3.518,2.8,3.518,6.26a10.685,10.685,0,0,1-.216,2.141H2.457a1,1,0,0,1-1.029-.82A10.9,10.9,0,0,1,1.347,32.48Z"/><circle cx="28.711" cy="11.283" r="1.235"/><circle cx="20.771" cy="11.283" r="1.235"/><ellipse class="cls-4" cx="17.172" cy="20.927" rx="4.557" ry="1.352"/><path class="cls-3" d="M26.975,28.11a4.911,4.911,0,0,0,7.951-2.692l.02-.092a24.059,24.059,0,0,0,.5-3.994,2.332,2.332,0,0,0-3.6-2.059h0a6.25,6.25,0,0,1-6.146.413c-1.772-.864-4.1-1.288-5.954.868a1.142,1.142,0,0,0,.143,1.615Z"/><path class="cls-3" d="M8.994,18.567A2.979,2.979,0,0,1,12,15.671a2.981,2.981,0,0,1,3.416,2.4v.019a1.771,1.771,0,0,1-1.686,1.8l-2.8.215a1.772,1.772,0,0,1-1.941-1.518Z"/><path class="cls-5" d="M25.281,17.716H24.025a.369.369,0,0,1-.369-.369V15.042H25.65v2.305A.369.369,0,0,1,25.281,17.716Z"/><path class="cls-1" d="M20.056,11.612a7.3,7.3,0,0,1,1.623-.4h0a17.472,17.472,0,0,1,6.2.027,9.885,9.885,0,0,1,1.369.371c2.171.894,3.468,2.943,2.9,4.577s-2.794,2.235-4.965,1.34a5.271,5.271,0,0,1-2.529-2.111,5.271,5.271,0,0,1-2.529,2.111c-2.171.895-4.394.3-4.965-1.34S17.885,12.506,20.056,11.612Z"/><path class="cls-6" d="M27.117,11.116l-2.464,4.3-2.411-4.293A16.973,16.973,0,0,1,27.117,11.116Z"/><path class="cls-7" d="M28.082,14.518H28.1l4.389-.208a.393.393,0,0,0-.037-.785l-4.389.208a.393.393,0,0,0,.018.785Z"/><path class="cls-7" d="M32.337,17.294a.393.393,0,0,0,.123-.766l-4.573-1.51a.393.393,0,0,0-.247.746l4.574,1.51A.406.406,0,0,0,32.337,17.294Z"/><path class="cls-7" d="M21.478,14.518a.393.393,0,0,0,.019-.785l-4.389-.208a.393.393,0,0,0-.038.785l4.39.208Z"/><path class="cls-7" d="M17.224,17.294a.406.406,0,0,0,.123-.02l4.573-1.51a.393.393,0,1,0-.246-.746L17.1,16.528a.393.393,0,0,0,.123.766Z"/><rect class="cls-8" width="40" height="40"/></svg>