<?xml version="1.0" encoding="UTF-8"?><svg id="Layer_1" xmlns="http://www.w3.org/2000/svg" viewBox="0 0 40 40"><g><path d="m34.548,17.766c0-8.035-6.513-14.548-14.548-14.548s-14.548,6.513-14.548,14.548c0,1.127.14,2.219.383,3.272.265,8.744,6.497,15.745,14.165,15.745s13.9-7,14.165-15.745c.242-1.053.383-2.145.383-3.271Z" fill="#c3846c"/><g><ellipse cx="8.181" cy="21.234" rx="5.681" ry="5.328" fill="#c3846c"/><ellipse cx="31.819" cy="21.234" rx="5.681" ry="5.328" fill="#c3846c"/></g><ellipse cx="16.013" cy="20.149" rx="1.51" ry="1.812"/><ellipse cx="23.987" cy="20.149" rx="1.51" ry="1.812"/><path d="m21.879,28.224c.339,0,.58.326.49.653-.286,1.04-1.238,1.804-2.369,1.804s-2.083-.764-2.369-1.804c-.09-.327.151-.653.49-.653h3.757Z" fill="#5c2f17"/></g><rect width="40" height="40" fill="none"/></svg>