<?xml version="1.0" encoding="UTF-8"?><svg id="Layer_1" xmlns="http://www.w3.org/2000/svg" viewBox="0 0 40 40"><g><g><path d="m10.371,28.686l2.083-6.611c.658-2.087,1.998-3.86,3.782-5.002l5.409-3.463c.454-.291.82-.711,1.057-1.212l3.069-6.507c.81-1.717,2.829-2.355,4.401-1.39l1.808,1.108,1.013,1.479,3.467,1.916c2.616,1.49,2.411,1.871,1.089,4.315l-1.537,2.606c-.531.876-1.583,1.223-2.493.821l-1.632-.72c-.201-.089-.431-.069-.616.054l-3.117,2.311c-.037,7.828-6.39,8.326-7.866,10.5-.31.456-1.1,1.246-1.678,1.775-2.155,1.977-3.027,3.402-7.566,4.715-1.449.419-3.823.483-5.247-.019-2.157-.761-4.661-2.701-4.254-7.628,0,0,4.813,4.895,7.759,2.607.519-.403.864-1.009,1.068-1.655Z" fill="#109494"/><ellipse cx="32.418" cy="7.331" rx="2.211" ry="2.33" fill="#109494"/><ellipse cx="36.848" cy="10.874" rx=".36" ry=".615" fill="#353332"/><path d="m24.177,23.753l2.347,3.397c.558.808.466,1.926-.217,2.62l-3.949,4.015,2.797-.614c1.424-.312,2.823.636,3.143,2.131l.139.649h-7.705c-.417,0-.788-.278-.925-.694l-1.15-3.496c-.114-.347-.033-.732.211-.995l.936-1.011c.23-.249.237-.644.015-.901l-3.749-4.345c-1.059-1.227-1.115-3.2.061-4.302.803-.752,2.098-1.084,4.179.005,1.55.811,2.85,2.067,3.869,3.54Z" fill="#109494"/><path d="m29.365,24.29c-.097.026-.2-.005-.269-.082l-3.32-3.708c-.087-.097-.133-.227-.128-.361h0c.053-1.329,1.351-2.192,2.513-1.671h0s1.161,4.024,1.161,4.024c.042.147.186.233.327.198l1.774-.444c.184-.046.356.113.338.311l-.233,2.485-.643-.971c-.066-.099-.183-.145-.295-.115l-1.227.333Z" fill="#109494"/><path d="m22.25,19.21c.01.231-.227.381-.416.264l-4.749-2.93-.003-.018,4.555-2.917c.077-.05.136-.123.208-.18l.162-.105.243,5.886Z" fill="#076565"/><path d="m16.228,17.073l.841-.539h0s.016.011.016.011l.947,5.172c.042.227-.172.412-.375.326l-4.373-1.854c.728-1.263,1.73-2.337,2.944-3.115Z" fill="#076565"/><path d="m13.275,20.202l1.964,4.93c.08.202-.071.421-.278.403l-3.502-.305.986-3.156c.208-.661.492-1.285.829-1.873Z" fill="#076565"/></g><circle cx="32.418" cy="7.331" r=".942"/></g><rect width="40" height="40" fill="none"/></svg>