<?xml version="1.0" encoding="UTF-8"?><svg id="Layer_1" xmlns="http://www.w3.org/2000/svg" viewBox="0 0 40 40"><g><g><path d="m9.637,18.736l-.372,5.357s-5.207,2.348-1.695,7.338h12.833v-12.402l-10.766-.294Z" fill="#333"/><path d="m30.363,18.736l.372,5.357s5.207,2.348,1.695,7.338h-12.833v-12.402s10.766-.294,10.766-.294Z" fill="#333"/></g><path d="m28.033,28.136l-4.214-1.601c-2.46-.935-5.178-.935-7.638,0l-4.214,1.601c-2.028.771-3.708,2.218-4.771,4.071-.437.76-.713,1.602-.922,2.454l-.539,2.189c-.081.331.169.651.51.651h27.511c.341,0,.591-.32.51-.651l-.539-2.189c-.21-.851-.486-1.693-.922-2.454-1.064-1.853-2.743-3.301-4.771-4.071Z" fill="#3e26b1"/><path d="m30.331,13.299c-.241-.042-.503.27-.814.445-.121.052-.245.089-.351.096-4.841.321-12.176-5.569-12.176-5.569l-5.795,6.484c-.704-1.585-1.645-1.311-1.888-1.207-.81.631-1.336,1.57-1.336,2.632,0,1.89,1.64,3.43,3.65,3.44,1.42,3.22,4.64,5.46,8.38,5.46s6.96-2.24,8.38-5.46c2.01-.01,3.65-1.55,3.65-3.44,0-1.213-.683-2.269-1.699-2.881Z" fill="#6e4944"/><path d="m11.195,14.755l5.795-6.484s7.335,5.891,12.176,5.569c.107-.007.23-.044.351-.096.311-.175.574-.487.814-.445.009.002.018-.004.027-.002.093-6.289-5.318-11.424-11.725-10.735-4.928.529-8.874,4.534-9.339,9.469-.047.502-.069,1.059-.048,1.546,0,0,.023-.012.061-.029.243-.104,1.184-.378,1.888,1.207Z" fill="#333"/><path d="m21.213,20.093c.219,0,.375.21.317.422-.185.671-.799,1.164-1.529,1.164s-1.344-.493-1.529-1.164c-.058-.211.098-.422.317-.422h2.425Z" fill="#5c2f17"/><polygon points="22.808 30.045 17.215 30.045 17.815 26.059 17.815 23.679 22.208 23.679 22.208 26.064 22.808 30.045" fill="#6e4944"/><polygon points="22.785 30.045 20 30.045 17.215 30.045 11.921 37.5 20 37.5 28.079 37.5 22.785 30.045" fill="#786de7"/><g><path d="m20.391,13.878c-.236.176-.547.176-.783,0-3.781-2.815-9.14-.164-9.14-.164,0,0,2.871,4.618,5.799,4.867,1.798.153,2.795-.704,3.297-1.389.214-.292.657-.292.871,0,.502.684,1.499,1.541,3.297,1.389,2.928-.249,5.799-4.867,5.799-4.867,0,0-5.36-2.651-9.14.164Zm-3.659,3.393c-1.24,0-2.246-.752-2.246-1.68s1.006-1.68,2.246-1.68,2.246.752,2.246,1.68-1.006,1.68-2.246,1.68Zm6.275,0c-1.24,0-2.246-.752-2.246-1.68s1.006-1.68,2.246-1.68,2.246.752,2.246,1.68-1.006,1.68-2.246,1.68Z" fill="#ef3452"/><ellipse cx="17.303" cy="15.591" rx=".975" ry="1.17"/><ellipse cx="22.676" cy="15.591" rx=".975" ry="1.17"/></g></g><rect y="0" width="40" height="40" fill="none"/></svg>