<?xml version="1.0" encoding="UTF-8"?><svg id="Layer_1" xmlns="http://www.w3.org/2000/svg" viewBox="0 0 40 40"><g><g><path d="M27.67217,28.55612l-4.02473-1.52903c-2.34972-.89268-4.94522-.89268-7.29493,0l-4.0247,1.52901c-1.93728,.73599-3.54105,2.11811-4.55722,3.88838-.41691,.72629-.6809,1.53023-.88101,2.34342l-.51448,2.09073c-.07778,.31609,.16149,.62137,.487,.62137h26.27579c.32552,0,.56478-.30529,.487-.62137l-.51451-2.09079c-.20011-.81318-.46411-1.6171-.88102-2.34338-1.01617-1.77026-2.61994-3.15236-4.5572-3.88834Z" style="fill:#6e4944;"/><path d="M20,23.96747l-13.19226,5.80572c-.38858,.17101-.55568,.63184-.36702,1.01216l3.33054,6.71407H30.22875l3.33054-6.71407c.18866-.38032,.02155-.84116-.36702-1.01216l-13.19226-5.80572Z" style="fill:#1a8ead;"/><path d="M20.06513,23.16324c-5.18067,0-8.91482,2.927-10.3413,4.25374-.31113,.28938-.19907,.79522,.19777,.94709,4.75087,1.81821,8.20963,4.39495,9.54152,5.47693,.35256,.2864,.85148,.2864,1.20403,0,1.33187-1.08198,4.7906-3.6587,9.54145-5.47692,.39683-.15187,.50889-.65771,.19777-.94708-1.42648-1.32673-5.1606-4.25375-10.34123-4.25375Z" style="fill:#146c84;"/><path d="M9.79476,17.90663l.9954,3.99715c.18429,.74004,.84892,1.25946,1.61156,1.25946h15.25482c.44402,0,.84102-.27666,.99475-.69322l1.68414-4.56339H9.79476Z" style="fill:#146c84;"/><circle cx="19.81236" cy="15.21893" r="8.74854" style="fill:#6e4944;"/><ellipse cx="11.82822" cy="15.46455" rx="3.50224" ry="3.28479" style="fill:#6e4944;"/><path d="M20.97049,19.20066c.20923,0,.35787,.20101,.30236,.40274-.17637,.64101-.76344,1.11187-1.46049,1.11187s-1.28412-.47087-1.46049-1.11187c-.05551-.20174,.09313-.40274,.30236-.40274h2.31625Z" style="fill:#5c2f17;"/><path d="M20.65929,32.39191c-.23207,.51158-.95632,.51158-1.18839,0-.62026-1.36731-1.50356-3.44648-1.50356-4.19826v-3.98212h4.1955v3.98212c0,.75179-.8833,2.83095-1.50355,4.19826Z" style="fill:#ff7d7d;"/><path d="M20.06801,15.21892h-1.48306c-.08245,0-.13284-.09046-.08949-.16059l4.30554-6.95923h-4.04623l-5.19239,8.39263c-.09338,.151,.01518,.34589,.19271,.34589h1.483c.08245,0,.13284,.09046,.08949,.16053l-2.32656,3.76057c.73725,.89984,1.65142,1.64736,2.688,2.19548l4.57171-7.38945c.09338-.151-.01518-.34583-.19271-.34583Z" style="fill:#ff7d7d;"/><g><ellipse cx="17.35451" cy="14.79571" rx=".93101" ry="1.11721"/><ellipse cx="22.27022" cy="14.79571" rx=".93101" ry="1.11721"/></g><path d="M9.37866,13.11798s1.38574-.11774,1.87718,1.18314l3.92976-6.50728,5.66785,4.62823-.11563-1.61887s3.44011,2.3994,4.82771,4.97226l.17345-2.60176s3.06825,4.87748,.40688,8.08025l4.18957-3.34731s1.06961-4.32822-.57817-8.25977c-1.64778-3.93155-6.50738-7.89832-12.40276-7.02476-4.13289,.6124-4.25111,3.51332-4.25111,3.51332,0,0-3.93761,1.82176-3.72473,6.98256Z" style="fill:#146c84;"/><path d="M17.96735,22.61105h4.1955v3.98212c0,1.15778-.93997,2.09775-2.09775,2.09775h0c-1.15778,0-2.09775-.93997-2.09775-2.09775v-3.98212h0Z" style="fill:#6e4944;"/></g><rect width="40" height="40" style="fill:none;"/></g><g><g><g><path d="M33.11041,34.78784c-.15503-.62988-.35071-1.25317-.62378-1.84021l-2.25787,4.55176H9.77124l-2.25793-4.55176c-.27307,.5871-.46875,1.21027-.62372,1.84027l-.51447,2.0907c-.07782,.3161,.16144,.6214,.487,.6214h26.27576c.32556,0,.56482-.3053,.487-.6214l-.51447-2.09076Z" style="fill:#6e4944;"/><path d="M33.19226,29.77319l-3.09601-1.36249c-4.69104,1.81549-8.10809,4.35712-9.42914,5.4303-.35254,.28638-.85144,.28638-1.20398,0-1.32751-1.07849-4.76947-3.64093-9.49622-5.45813l-3.15918,1.39032c-.38855,.17102-.55566,.63184-.367,1.01215l1.07257,2.16229,2.25793,4.55176H30.22876l2.25787-4.55176,1.07263-2.16229c.18866-.38031,.02155-.84113-.367-1.01215Z" style="fill:#1a8ead;"/><path d="M20.66711,33.841c1.32104-1.07318,4.7381-3.61481,9.42914-5.4303,.03864-.01495,.07355-.0318,.11237-.04663,.39679-.15186,.50885-.65771,.19775-.94708-1.16583-1.08423-3.87415-3.2356-7.6524-3.98633-.19885,.07178-.38873,.16199-.59399,.2193v2.94c0,1.16003-.94,2.10004-2.08997,2.10004-1.16003,0-2.10004-.94-2.10004-2.10004v-2.82001c-.32123-.06842-.63434-.15735-.94025-.26196-3.59576,.80963-6.17633,2.8584-7.30591,3.909-.3111,.28937-.19904,.79517,.19775,.94708,.01569,.00598,.02972,.01282,.04535,.0188,4.72675,1.8172,8.1687,4.37964,9.49622,5.45813,.35254,.28638,.85144,.28638,1.20398,0Z" style="fill:#146c84;"/></g><path d="M20.65929,32.39191c-.23207,.51158-.95632,.51158-1.18839,0-.62026-1.36731-1.50356-3.44648-1.50356-4.19826v-3.98212h4.1955v3.98212c0,.75179-.8833,2.83095-1.50355,4.19826Z" style="fill:#ff7d7d;"/><path d="M17.96997,26.58997c0,1.16003,.94,2.10004,2.10004,2.10004,1.14996,0,2.08997-.94,2.08997-2.10004v-2.94c.20526-.05731,.39514-.14752,.59399-.2193,.24243-.08746,.49219-.15985,.7243-.26746,1.02271-.47406,1.93549-1.1427,2.69867-1.95361,2.59863-3.20325-.43793-8.03595-.43793-8.03595l-.17346,2.60181c-1.38763-2.57288-4.82776-4.97229-4.82776-4.97229l.11566,1.6189-5.65161-4.61499-.03809,.02295-3.9079,6.47107c-.47467-1.25635-1.77179-1.18982-1.86066-1.18378-.65308,.59503-1.06519,1.42017-1.06519,2.34265,0,1.13489,.60602,2.13135,1.53339,2.72235,.5517,.35156,1.21667,.56024,1.93658,.56769,.86499,1.95392,2.42621,3.52405,4.36633,4.41321,.28064,.1286,.56866,.24396,.8634,.34479,.30591,.10461,.61902,.19354,.94025,.26196v2.82001Z" style="fill:#6e4944;"/><path d="M20.97049,19.20066c.20923,0,.35787,.20101,.30236,.40274-.17637,.64101-.76344,1.11187-1.46049,1.11187s-1.28412-.47087-1.46049-1.11187c-.05551-.20174,.09313-.40274,.30236-.40274h2.31625Z" style="fill:#5c2f17;"/><g><path d="M20.77856,11.36804l.23035-.37231c-.16638-.12354-.26892-.19574-.26892-.19574l.03857,.56805Z" style="fill:#ff7d7d;"/><path d="M20.37006,12.02838l-2.6889-2.19397-4.11877,6.65729c-.09338,.151,.0152,.34589,.19269,.34589h1.48303c.08246,0,.13281,.09052,.08948,.16052l-2.30841,3.73132c.7359,.90112,1.65106,1.64636,2.68695,2.19708l4.55463-7.36176c.09338-.151-.0152-.34583-.19275-.34583h-1.48303c-.08246,0-.13287-.09052-.08948-.16064l1.87457-3.02991Zm-3.01556,3.88452c-.51416,0-.93097-.50018-.93097-1.11719s.41681-1.11725,.93097-1.11725c.51422,0,.93103,.50024,.93103,1.11725s-.41681,1.11719-.93103,1.11719Z" style="fill:#ff7d7d;"/></g><g><path d="M17.35449,13.67847c-.51416,0-.93097,.50024-.93097,1.11725s.41681,1.11719,.93097,1.11719c.51422,0,.93103-.50018,.93103-1.11719s-.41681-1.11725-.93103-1.11725Z"/><path d="M22.2702,13.67847c-.51416,0-.93097,.50024-.93097,1.11725s.41681,1.11719,.93097,1.11719c.51422,0,.93103-.50018,.93103-1.11719s-.41681-1.11725-.93103-1.11725Z"/></g><g><path d="M13.01917,20.72943c-.48907-.59888-.90186-1.26263-1.21918-1.97943-.71991-.00745-1.38489-.21613-1.93658-.56769l.92676,3.72144c.18427,.74005,.84894,1.25946,1.61157,1.25946h3.76459c-.15735-.07214-.30798-.15576-.46021-.23669-1.03589-.55072-1.95105-1.29596-2.68695-2.19708Z" style="fill:#146c84;"/><path d="M29.76001,9.64996c-1.65002-3.92999-6.51001-7.89996-12.41003-7.02997-4.13,.60999-4.25,3.52002-4.25,3.52002,0,0-3.92999,1.81995-3.71997,6.97998h.02002c.07996-.01001,1.38-.08002,1.85999,1.17999l3.89996-6.47003,.03003-.03998,.01001,.02002,2.48114,2.02441,2.6889,2.19397,.47992,.3916-.07141-1.05194-.03857-.56805s.10254,.0722,.26892,.19574c.82965,.61627,3.40326,2.63519,4.5611,4.78424l.16998-2.60999s3.04004,4.84003,.44,8.03998c-.77002,.81-1.67999,1.48004-2.70001,1.95001h4.17999c.44,0,.84003-.26996,.99005-.69l1.69-4.56s1.06995-4.33002-.58002-8.26001Z" style="fill:#146c84;"/></g></g><rect width="40" height="40" style="fill:none;"/></g></svg>