<?xml version="1.0" encoding="UTF-8"?><svg id="Layer_1" xmlns="http://www.w3.org/2000/svg" viewBox="0 0 40 40"><g><circle cx="20" cy="20" r="17.5" style="fill:#ff9240;"/><path d="M14.67808,27.76406c-.33649-.11756-.45243-.338-.29554-.52207,0,0,.08657-.07698,.17516-.11447,.40792-.17262,2.00328-.80403,4.53037-.99056,0,0,1.02735-.06935,1.97066-.00115,2.3103,.16704,3.76492,.71536,4.27721,.94,0,0,.22222,.07822,.30279,.19404,.12376,.17791,.00264,.38253-.31703,.49421H14.67808Z" style="fill:#f5172b;"/><path d="M29.01768,19.24307c-.9206-.64776-2.19182-.42661-2.83958,.49399l-5.68309,8.01795h5.04064l3.97603-5.67236c.64776-.9206,.42648-2.19191-.49399-2.83958Z" style="fill:#fff;"/><path d="M26.67785,22.73873c-.40083-.28203-.95432-.18575-1.23635,.21509l-3.38957,4.8012h2.21206l2.62896-3.77993c.28203-.40083,.18569-.95436-.21509-1.23635Z" style="fill:#f5172b;"/><g><circle cx="24.50914" cy="16" r="2.16594"/><circle cx="15.49086" cy="16" r="2.16594"/></g></g><rect width="40" height="40" style="fill:none;"/></svg>