<?xml version="1.0" encoding="UTF-8"?><svg id="Layer_1" xmlns="http://www.w3.org/2000/svg" viewBox="0 0 40 40"><g><path d="M25.97827,8.53503l-.00085-.00085-4.07825,3.3656c-.9707,.80115-2.36609,.82532-3.36401,.05847l-4.30634-3.30933-.14203-.10913-3.50812,3.46521,.03894,.03552,2.71948,2.47754c.70258,.64014,1.05798,1.5769,.95673,2.52197l-.80096,7.47876s.03754,.01733,.09052,.04285c.27368,.13159,1.17908,.59534,2.05145,1.33655,.21967-.89209,.70056-1.72815,1.45319-2.36963,1.90961-1.62744,4.77698-1.39893,6.40454,.51074,.47473,.55713,.77283,1.19861,.93604,1.86401,.87427-.74426,1.78345-1.20972,2.0578-1.34167,.05298-.02551,.09058-.04285,.09058-.04285l-.80103-7.47876c-.10126-.94507,.25415-1.88184,.95679-2.52197l2.72211-2.47998,.03625-.03308-3.51282-3.46997Z" style="fill:#00ad53;"/><g><path d="M16.75,36.84998l-.01001,.07996-.01001-.01001c0-.02002,.01001-.04993,.02002-.06995Z" style="fill:#ffc84d;"/><path d="M17.31,30.62l-.53998,6.01001c-.01001,.06995-.01001,.15002-.02002,.21997-.01001,.02002-.02002,.04993-.02002,.06995-.21997,.95007-1.26001,1.80005-2.64996,2.04004-1.69,.29004-3.21002-.40991-3.42004-1.57996-.16998-.96008,.64001-1.93005,1.87006-2.40002l.94995-10.42993,.10004,.01001c.27997,.12988,1.17999,.59985,2.04999,1.33984-.33002,1.37012-.03998,2.88013,.95001,4.03003,.21997,.26001,.46997,.48999,.72998,.69006Z" style="fill:#ffc84d;"/><path d="M14.09003,8.54004l-3.51001,3.46997L5.64001,7.91992l-2.19,.67004c-.72003,.22009-1.5,.05994-2.07001-.43005l-.38-.32996c-.16998-.14001-.19-.40002-.03998-.56995L5.47998,1.96997c.15002-.16992,.40002-.18994,.57001-.05005l.40002,.3501,.02997-.03003,7.61005,6.30005Z" style="fill:#ffc84d;"/><path d="M23.34003,36.91992l-.01001,.01001-.01001-.07996c.01001,.02002,.02002,.04993,.02002,.06995Z" style="fill:#ffc84d;"/><path d="M39.06,7.82996l-.39001,.32996c-.57001,.48999-1.34998,.65015-2.06,.43005l-2.17999-.66003-4.94,4.08008-3.51001-3.46997,7.61005-6.30005,.01996,.02002,.40002-.34009c.16998-.13989,.41998-.11987,.57001,.05005l4.51996,5.29004c.15002,.16992,.13,.42993-.03998,.56995Z" style="fill:#ffc84d;"/><path d="M29.40997,37.38c-.20996,1.17004-1.72998,1.87-3.41998,1.57996-1.39001-.23999-2.42999-1.08997-2.64996-2.04004,0-.02002-.01001-.04993-.02002-.06995-.01001-.06995-.01001-.14001-.02002-.21997l-.54999-6.03003c.08002-.04993,.15997-.09998,.22998-.16003,1.35004-1.1499,1.84003-2.91992,1.45001-4.54004,.87-.73999,1.78003-1.20996,2.06-1.33984l.10004-.01001,.94995,10.42993c1.23004,.46997,2.03003,1.43994,1.87,2.40002Z" style="fill:#ffc84d;"/></g><path d="M22.97998,30.43994c-.07001,.06006-.14996,.11011-.22998,.16003-.62,.47009-1.32001,.76001-2.04999,.87,.31,.77002,.69,1.88,.96997,3.15002,.38,1.72998-.62,3.70996-1.57001,4.07996-.21997,.08008-.47998-.13989-.40997-.34998,.46997-1.42004-.47998-2.03992-1.06-3.96997-.34003-1.14001,.10999-2.19006,.62-2.94006-.69-.11987-1.35999-.38989-1.94-.81995-.26001-.20007-.51001-.43005-.72998-.69006-.98999-1.1499-1.28003-2.65991-.95001-4.03003,.21997-.88989,.71002-1.72998,1.46002-2.36987,1.90997-1.63013,4.76996-1.40002,6.39996,.51001,.47998,.55994,.78003,1.19995,.94,1.85986,.39001,1.62012-.09998,3.39014-1.45001,4.54004Z" style="fill:#ff9000;"/></g><rect width="40" height="40" style="fill:none;"/></svg>