<?xml version="1.0" encoding="UTF-8"?><svg id="Layer_1" xmlns="http://www.w3.org/2000/svg" viewBox="0 0 40 40"><g><path d="M20.00003,17.61089c-.34489-.66873-.62962-1.04967-.62962-1.04967l.00016,.00331C15.81294,11.22106,6.3333,5.04537,3.56113,5.04537c-1.13774,0-2.06113,.92339-2.06113,2.06113,0,2.13535,1.18482,5.13551,2.16044,7.87955,1.06216,2.98725,1.92609,6.54839,4.71001,6.54839h6.87045c-4.73788,.93027-9.61862,1.3616-9.61862,7.21932,0,2.84816,1.22025,5.05211,4.31048,6.005,.90418,.24364,5.67297,1.17506,9.08353-4.98357,.35171-.63619,.66631-1.2583,.93006-1.88441l.00021,.00425c.02052-.0411,.03354-.08051,.05348-.12151-2.23455-4.59128-.90665-8.40462,0-10.16264Z" style="fill:#6b99e0;"/><path d="M36.33956,14.98605c.97561-2.74403,2.16044-5.7442,2.16044-7.87955,0-1.13774-.92339-2.06113-2.06113-2.06113-2.77216,0-12.2518,6.17569-15.80943,11.51915l.00016-.00331s-.28469,.38094-.62957,1.04967c.90665,1.75803,2.23455,5.57136,0,10.16264,.01994,.04099,.03291,.08041,.05343,.12151l.00021-.00425c.26374,.62611,.57835,1.24823,.93006,1.88441,3.41055,6.15863,8.17935,5.22721,9.08353,4.98357,3.09023-.95289,4.31048-3.15684,4.31048-6.005,0-5.85772-4.88075-6.28906-9.61862-7.21932h6.87045c2.78392,0,3.64784-3.56114,4.71001-6.54839Z" style="fill:#6b99e0;"/><path d="M20.00003,17.61089c-.90665,1.75803-2.23455,5.57136,0,10.16264,2.23455-4.59128,.90665-8.40462,0-10.16264Z" style="fill:#2e5791;"/></g><rect width="40" height="40" style="fill:none;"/></svg>