<?xml version="1.0" encoding="UTF-8"?><svg id="Layer_1" xmlns="http://www.w3.org/2000/svg" viewBox="0 0 40 40"><g><path d="m22.653,30.259l-.485,3.963c-.093.756.349,1.475,1.065,1.735l1.823.66c.428.155.317.79-.139.79h-5.473c-.64,0-1.063-.664-.794-1.244l2.943-6.334,1.06.43Z" fill="#ffad00"/><path d="m7.552,20.601l-1.179-1.768c-.146-.219-.016-.515.244-.555l15.328-2.387.002-8.267c0-2.519,1.843-4.769,4.35-5.007,2.876-.273,5.295,1.981,5.295,4.8l-.476,2.059.02-.007s-.014.029-.034.07l-.238,1.031-.249.07c-.403.995-.831,2.325-.441,2.735.648.681,5.077,3.688,4.429,7.707-.648,4.019-3.846,8.142-10.782,9.276-6.733,1.101-17.268-2.226-21.266-9.092-.163-.28.051-.633.375-.635l4.621-.028Z" fill="#d0d6de"/><path d="m36.47,6.224c-.814.315-2.529.746-5.231.317l-1.032,5.252s.539-.853,3.053-1.571c2.138-.611,4.537-2.099,4.211-3.525-.098-.427-.592-.631-1-.473Z" fill="#ffad00"/><path d="m25.944,14.85c1.601-.532,2.718-.97,4.096-1.822-.081-.581.253-1.529.539-2.397l.863-2.716c.123-.407.158-.838.091-1.257-.388-2.452-2.624-4.289-5.237-4.04-2.507.239-4.349,2.488-4.349,5.007v3.032s0,5.235,0,5.235c0,0,2.037-.39,3.997-1.041Z" fill="#076565"/><circle cx="28.449" cy="7.002" r="1.232"/><path d="m7.552,20.613s5.47,7.871,16.184,5.208c4.221-1.104,6.471-5.208,6.471-5.208H7.552Z" fill="#8595aa"/></g><rect width="40" height="40" fill="none"/></svg>