<svg id="Layer_1" data-name="Layer 1" xmlns="http://www.w3.org/2000/svg" viewBox="0 0 40 40"><defs><style>.cls-1{fill:#ffc74d;}.cls-2{fill:#333d4b;}.cls-3{fill:#858585;}.cls-4{fill:#ff8f00;}.cls-5{fill:none;}</style></defs><rect class="cls-1" x="4.72" y="24.286" width="4.298" height="5.752" transform="translate(15.357 0.462) rotate(31.829)"/><path class="cls-2" d="M3.592,28.366,1.26,32.123a.581.581,0,0,0,.187.8l5.619,3.487a.29.29,0,0,0,.431-.159l.137-.432a2.536,2.536,0,0,0-.706-2.638l-.808-.74,1.123-1.81Z"/><rect class="cls-1" x="31.627" y="24.527" width="4.298" height="5.752" transform="translate(76.001 37.835) rotate(154.826)"/><path class="cls-3" d="M36.891,28.979l1.881,4a.581.581,0,0,1-.279.774l-5.984,2.813a.291.291,0,0,1-.41-.208l-.086-.445a2.536,2.536,0,0,1,1.006-2.539l.889-.641L33,30.807Z"/><path class="cls-2" d="M12.337,10.134a10.156,10.156,0,0,0-10.188,7.3l-.033.108a5.38,5.38,0,0,0,3.132,6.545l4.86,1.965,2.569-4.633-2.8-1.469a1.092,1.092,0,0,1-.231-1.771l4.124-3.794Z"/><circle class="cls-1" cx="15.88" cy="7.542" r="4.319"/><path class="cls-4" d="M15.88,7.542l-3.2,2.9a4.319,4.319,0,1,1,7.187-4.566Z"/><ellipse class="cls-1" cx="15.255" cy="7.749" rx="1.629" ry="1.416" transform="translate(3.122 19.814) rotate(-71.767)"/><ellipse cx="18.838" cy="8.516" rx="0.675" ry="0.383" transform="translate(4.856 23.744) rotate(-71.767)"/><path class="cls-1" d="M20.423,22.84a2.086,2.086,0,0,1-.735-.134l-4.7-1.727a2.613,2.613,0,0,1-1.445-1.325l-3.058-6.428a2.184,2.184,0,0,1,.637-2.726,2.1,2.1,0,0,1,3.107.816l2.605,5.477a1.313,1.313,0,0,0,.722.662l3.5,1.28A2.175,2.175,0,0,1,22.494,21.1,2.1,2.1,0,0,1,20.423,22.84Z"/><path class="cls-1" d="M10.108,26.056l2.1.867a1.391,1.391,0,0,1,.861,1.286V31.99h4.3V26.382a4.143,4.143,0,0,0-2.227-3.673l-2.464-1.286Z"/><path class="cls-2" d="M13.071,31.99v4.422a.581.581,0,0,0,.582.582h6.612a.292.292,0,0,0,.283-.363l-.112-.439a2.533,2.533,0,0,0-1.991-1.869l-1.077-.2V31.99Z"/><path class="cls-1" d="M28,23.024l-1.674,1.082A4,4,0,0,0,24.5,27.463V31.99h4.3V29.434a2.307,2.307,0,0,1,1.114-1.975l.473-.287Z"/><path class="cls-3" d="M28.8,31.99v4.422a.582.582,0,0,1-.582.582H21.6a.291.291,0,0,1-.282-.363l.111-.439a2.536,2.536,0,0,1,1.991-1.869l1.077-.2V31.99Z"/><path class="cls-3" d="M28,23.024l2.384,4.148,4.671-2.622a6.923,6.923,0,0,0,2.9-8.931l-.84-1.826s-2.971-5.875-6.731-4.3l-.745,4.942,1.844,3.732a1.757,1.757,0,0,1-.4,2.084Z"/><rect class="cls-1" x="29.099" y="9.229" width="2.569" height="2.504" transform="translate(59.876 -2.292) rotate(137.551)"/><circle class="cls-1" cx="27.743" cy="6.61" r="4.329"/><path class="cls-4" d="M27.743,6.61,30.664,9.8a4.329,4.329,0,1,0-6.738-5.236Z"/><ellipse class="cls-1" cx="28.347" cy="6.876" rx="1.419" ry="1.633" transform="matrix(0.975, -0.222, 0.222, 0.975, -0.819, 6.454)"/><ellipse cx="24.699" cy="7.302" rx="0.384" ry="0.677" transform="translate(-1.004 5.656) rotate(-12.806)"/><path class="cls-1" d="M24,19.339l-5.034-3.686a2.1,2.1,0,0,1,2.482-3.389l4.41,3.229,3.928-5.365a2.1,2.1,0,0,1,3.39,2.482L28.789,18.6A3.431,3.431,0,0,1,24,19.339Z"/><rect class="cls-5" width="40" height="40"/></svg>