<svg id="Layer_1" data-name="Layer 1" xmlns="http://www.w3.org/2000/svg" viewBox="0 0 40 40"><defs><style>.cls-1,.cls-4{fill:none;}.cls-1{stroke:#575757;stroke-linecap:round;stroke-miterlimit:10;stroke-width:0.952px;}.cls-2{fill:#9c5522;}.cls-3{fill:#c76c2c;}</style></defs><line class="cls-1" x1="29.983" y1="6.857" x2="28.53" y2="1.5"/><path class="cls-1" d="M29.208,4.258s-2.676.949-3.987-2.285"/><circle class="cls-2" cx="4.892" cy="16.831" r="1.84"/><path class="cls-2" d="M15.809,24.16l-3.286,5.57,1.8,6.605s1.705.975,1.705,2.165H13.844L9.424,27.731l1.19-4.058Z"/><path class="cls-3" d="M29.105,6.226s-2.459-1.474-4.128-.868c-1.36.494-.168,2.452.9,2.64.726.128,3.392-.05,4.023-.636S29.105,6.226,29.105,6.226Z"/><path class="cls-3" d="M36.494,10.6l.419-1.282a.714.714,0,0,0-.487-.91L28.6,6.216S28.146,13.08,22.96,14a53.847,53.847,0,0,1-12.3.158,5.171,5.171,0,0,0-2.474.332c-1.375.576-3.409,1.872-2.358,5.289,1.751,5.694,1.244,3.566,1.419,8.2A61.5,61.5,0,0,1,6.373,38.5H9.061a2.409,2.409,0,0,0-1.2-2.034L11.95,25.714a.781.781,0,0,1,.987-.46,17.115,17.115,0,0,0,9.5.066.361.361,0,0,1,.455.261L25.79,38.336A.211.211,0,0,0,26,38.5H28.06a.176.176,0,0,0,.181-.18,2.657,2.657,0,0,0-1.468-2.311l-.891-11.3a.359.359,0,0,1,.074-.249c.632-.813,4.624-6.1,5.428-11.241a2.157,2.157,0,0,1,1.831-1.677l2.381-.229A1.051,1.051,0,0,0,36.494,10.6Z"/><path class="cls-2" d="M35.494,8.235c0-.03.007-.058.009-.087l.923.259a.714.714,0,0,1,.487.909l-.106.322A1.409,1.409,0,0,1,35.494,8.235Z"/><circle cx="31.772" cy="8.148" r="0.728"/><polygon class="cls-3" points="30.893 6.857 30.189 5.774 29.208 5.861 29.026 6.611 30.893 6.857"/><rect class="cls-4" width="40" height="40"/></svg>