<svg id="Layer_1" data-name="Layer 1" xmlns="http://www.w3.org/2000/svg" viewBox="0 0 40 40"><defs><style>.cls-1{fill:#2e3d51;}.cls-2{fill:#956759;}.cls-3{fill:#6b7683;}.cls-4{fill:#d0d5da;}.cls-5{fill:#333;}.cls-6{fill:#5c2f17;}.cls-7{fill:none;}</style></defs><path class="cls-1" d="M17.049,35l-1.756,1.7a1.237,1.237,0,0,0-.412.883v.27c0,.365.449.662,1,.662h1.07a2.356,2.356,0,0,0,1.866-.765l.286-.38a.526.526,0,0,0,.111-.315V34.712H17.049Z"/><path class="cls-1" d="M23.123,35l1.756,1.7a1.237,1.237,0,0,1,.412.883v.27c0,.365-.449.662-1,.662h-1.07a2.353,2.353,0,0,1-1.866-.765l-.286-.38a.526.526,0,0,1-.111-.315V34.712h2.168Z"/><path class="cls-2" d="M15.034,24.782l1.387-7.466c.066-.491-.727-.918-1.217-.983A.886.886,0,0,0,14.2,17.1l-1.137,8.5a.987.987,0,0,0,.008.122c0,.018-.01.033-.01.051a.878.878,0,0,0,.021.1A.961.961,0,0,0,13.1,26a1.238,1.238,0,0,0,1.21,1.033,1.254,1.254,0,0,0,1.254-1.254A1.233,1.233,0,0,0,15.034,24.782Z"/><path class="cls-2" d="M24.966,24.782l-1.387-7.466c-.066-.491.727-.918,1.217-.983A.886.886,0,0,1,25.8,17.1l1.137,8.5a.987.987,0,0,1-.008.122c0,.018.01.033.01.051a.878.878,0,0,1-.021.1A.961.961,0,0,1,26.9,26a1.238,1.238,0,0,1-1.21,1.033,1.254,1.254,0,0,1-1.254-1.254A1.233,1.233,0,0,1,24.966,24.782Z"/><polygon class="cls-3" points="20.004 11.958 17.702 11.958 16.178 20.907 16.398 35.255 19.515 35.255 20.058 25.137 20.004 11.958"/><polygon class="cls-3" points="20.058 11.958 22.519 11.958 23.884 20.907 23.664 35.255 20.547 35.255 20.004 25.137 20.058 11.958"/><path class="cls-4" d="M13.444,17.474l2.817.768-.31,4.224h8.174l-.383-4.257,2.2-1.065-.386-3.108A3.321,3.321,0,0,0,23.311,11.3l-3.338-1.116-3.5,1.185a3.321,3.321,0,0,0-2.172,2.4Z"/><path class="cls-2" d="M19.123,9.7h1.672a0,0,0,0,1,0,0v1.017a.836.836,0,0,1-.836.836h0a.836.836,0,0,1-.836-.836V9.7a0,0,0,0,1,0,0Z"/><path class="cls-5" d="M15.942,7.706l.4,1.6a.666.666,0,0,0,.646.505h5.927a.666.666,0,0,0,.658-.563l.244-1.545Z"/><circle class="cls-2" cx="19.959" cy="6.628" r="3.508"/><ellipse class="cls-2" cx="16.757" cy="6.726" rx="1.404" ry="1.317"/><ellipse class="cls-2" cx="23.161" cy="6.726" rx="1.404" ry="1.317"/><path class="cls-5" d="M23.926,5.622a4.044,4.044,0,0,0-8.068-.485,4.168,4.168,0,0,0-.014.568s.343-.081.648.581L18.806,3.7S21.615,5.953,23.47,5.83a.437.437,0,0,0,.134-.037C23.728,5.723,23.832,5.594,23.926,5.622Z"/><ellipse cx="18.973" cy="6.458" rx="0.373" ry="0.448"/><ellipse cx="20.945" cy="6.458" rx="0.373" ry="0.448"/><path class="cls-6" d="M20.423,8.225a.127.127,0,0,1,.122.161.608.608,0,0,1-1.172,0,.127.127,0,0,1,.122-.161Z"/><rect class="cls-7" width="40" height="40"/></svg>