<?xml version="1.0" encoding="UTF-8"?><svg id="Layer_1" xmlns="http://www.w3.org/2000/svg" viewBox="0 0 40 40"><g><path d="M8.23411,22.68434H31.75428c.91446,0,1.65689,.74243,1.65689,1.65689v13.0972H6.57722v-13.0972c0-.91446,.74243-1.65689,1.65689-1.65689Z" style="fill:#474747;"/><path d="M28.93534,27.58711l-4.68738-1.69469c-2.73658-.98939-5.75941-.98939-8.496,0l-4.68734,1.69467c-2.25624,.81573-4.12406,2.34759-5.30754,4.30966-.48555,.80498-.79301,1.69602-1.02606,2.59731l-.59918,2.31724c-.09059,.35033,.18807,.68869,.56718,.68869h30.60193c.37911,0,.65777-.33836,.56718-.68869l-.59922-2.31731c-.23306-.90128-.54052-1.7923-1.02607-2.59727-1.18348-1.96205-3.05129-3.49389-5.30751-4.30962Z" style="fill:#a3a3a3;"/><g><path d="M10.19398,19.45698l1.0026,4.02605c.18562,.74539,.85505,1.26856,1.62321,1.26856h14.88687c.82315,0,1.52397-.59886,1.65233-1.41194l.61294-3.88267H10.19398Z" style="fill:#333;"/><path d="M30.22528,14.22479c-.23224-.04321-.4856,.25867-.78613,.42792-.11682,.04999-.23523,.08563-.33777,.09241-4.65717,.30927-11.71356-5.35785-11.71356-5.35785l-5.57019,6.23285c-.1167,.13055-.32318,.09613-.40765-.05731-.56213-1.02069-1.13837-1.13605-1.36359-1.1377l-.00586-.00262c-.80719,.60583-1.33051,1.53119-1.33051,2.57751,0,1.81,1.57001,3.29999,3.50995,3.31,1.37006,3.08997,4.47003,5.25006,8.06006,5.25006,3.50244,0,6.51831-2.05249,7.94153-5.00891-.03424,.02374-.06799,.04834-.10962,.06189l-4.06158,1.34424c-.22992,.07489-.47699-.05078-.55188-.28064-.07489-.22992,.05078-.47699,.2807-.55182l4.06158-1.34424c.22992-.07489,.47699,.05078,.55188,.28064,.02704,.08307,.02026,.16595-.00049,.24457,1.91016-.03186,3.45782-1.50934,3.45782-3.30579,0-1.16962-.65216-2.18762-1.62469-2.77521Z" style="fill:#ffb582;"/><path d="M11.40997,15.56281c.08447,.15344,.29095,.18787,.40765,.05731l5.57019-6.23285s7.0564,5.66711,11.71356,5.35785c.10254-.00677,.22095-.04242,.33777-.09241,.30054-.16925,.55389-.47113,.78613-.42792,.00769,.0014,.01593-.00397,.02356-.00171,.09296-6.31873-5.58875-11.42627-12.10663-10.20587-4.07043,.76215-7.32837,4.05682-8.04285,8.13586-.12878,.73535-.17841,1.45966-.15594,2.16577,.00177,.05402,.04401,.09949,.09711,.10364l.00586,.00262c.22522,.00165,.80145,.117,1.36359,1.1377Z" style="fill:#ffdb87;"/><g><ellipse cx="17.80838" cy="16.32357" rx=".93774" ry="1.12529"/><ellipse cx="22.75964" cy="16.32357" rx=".93774" ry="1.12529"/></g><path d="M21.45051,20.76036c.21075,0,.36045,.20246,.30455,.40566-.17764,.64564-.76896,1.11991-1.47105,1.11991s-1.2934-.47427-1.47105-1.11991c-.05591-.20319,.0938-.40566,.30455-.40566h2.333Z" style="fill:#5c2f17;"/></g><path d="M11.58134,37.49896H4.69902c-.37909,0-.65774-.33833-.56715-.68864l.59916-2.31728c.23306-.90126,.54051-1.79233,1.02605-2.59732,.8205-1.36021,1.97537-2.50646,3.35506-3.35783,0,0,2.49875,2.9821,2.46922,8.96107Z" style="fill:#d9d9d9;"/><path d="M28.41866,37.49896h6.88233c.37909,0,.65774-.33833,.56715-.68864l-.59916-2.31728c-.23306-.90126-.54051-1.79233-1.02605-2.59732-.8205-1.36021-1.97537-2.50646-3.35506-3.35783,0,0-2.49875,2.9821-2.46922,8.96107Z" style="fill:#d9d9d9;"/><circle cx="24.79832" cy="34.11369" r="2.18519" style="fill:#707070;"/><path d="M8.02509,34.098l1.10296-1.47622c.27632-.36978,.18532-.88273-.20325-1.14569l-1.87869-1.27131c-.5455,.56702-.98131,1.18594-1.38434,1.85401-.20573,.34115-.35384,.73859-.51296,1.10097l1.67239,1.13167c.38857,.26296,.92757,.17636,1.20389-.19343Z" style="fill:#5a81ff;"/><path d="M28.39264,20.06122c-.07489-.22986-.32196-.35553-.55188-.28064l-4.06158,1.34424c-.22992,.07483-.35559,.3219-.2807,.55182,.07489,.22986,.32196,.35553,.55188,.28064l4.06158-1.34424c.04163-.01355,.07538-.03815,.10962-.06189,.08649-.05994,.14429-.14581,.17059-.24536,.02075-.07861,.02753-.1615,.00049-.24457Z" style="fill:#333;"/><path d="M31.5437,15.69818c0-2.13544,.47992-3.86658,1.07196-3.86658,.04651,0,.09088,.02863,.13586,.04938-1.56342-5.41608-6.54797-9.38098-12.46747-9.38098S9.37994,6.46497,7.81653,11.88098c.04492-.02075,.08929-.04938,.1358-.04938,.59204,0,1.07202,1.73114,1.07202,3.86658,0,2.12701-.47632,3.85046-1.06519,3.86414,.72748,2.18732,2.02039,4.11639,3.70557,5.61603v2.78918c0,.35889,.29102,.6499,.64996,.6499h15.36493c.35901,0,.64996-.29102,.64996-.6499v-2.30225c1.96753-1.55713,3.46204-3.67493,4.26923-6.10657-.58417-.03326-1.05511-1.74585-1.05511-3.86053Zm-11.2597,8.81818c-5.88977,0-10.66437-6.10931-10.66437-8.82568s4.7746-4.91852,10.66437-4.91852,10.66437,2.20209,10.66437,4.91852-4.7746,8.82568-10.66437,8.82568Z" style="fill:#d9d9d9;"/><g><path d="M9.02435,15.69818c0-2.13544-.47998-3.86658-1.07202-3.86658-.04651,0-.09088,.02863-.1358,.04938-.52722,.24304-.93616,1.84955-.93616,3.8172,0,2.1355,.47992,3.86664,1.07196,3.86664l.00684-.0025c.58887-.01367,1.06519-1.73712,1.06519-3.86414Z" style="fill:#a3a3a3;"/><path d="M32.75153,11.88098c-.04498-.02075-.08936-.04938-.13586-.04938-.59204,0-1.07196,1.73114-1.07196,3.86658,0,2.11469,.47095,3.82727,1.05511,3.86053,.00574,.00031,.01111,.0061,.01685,.0061,.59204,0,1.07196-1.73114,1.07196-3.86664,0-1.96759-.40894-3.57404-.9361-3.8172Z" style="fill:#a3a3a3;"/></g><path d="M20.284,10.77216c-5.88977,0-10.66437,2.20209-10.66437,4.91852s4.7746,8.82568,10.66437,8.82568,10.66437-6.10931,10.66437-8.82568-4.7746-4.91852-10.66437-4.91852Zm2.43793,12.74573c-1.54889,.47034-3.20032,.47034-4.74921,0-4.51208-1.37012-5.69275-4.80151-5.94513-7.17413-.16565-1.5567,.68781-3.03394,2.13477-3.63147,1.93457-.79895,4.08746-1.12152,5.27435-1.24646,.60773-.06396,1.21356-.06396,1.82123,0,1.18695,.12494,3.3399,.44751,5.27441,1.24646,1.44702,.59753,2.30042,2.07477,2.13477,3.63147-.25238,2.37262-1.43298,5.80402-5.94519,7.17413Z" style="fill:#b7b7b7;"/></g><rect width="40" height="40" style="fill:none;"/></svg>