<?xml version="1.0" encoding="UTF-8"?><svg id="Layer_1" xmlns="http://www.w3.org/2000/svg" viewBox="0 0 40 40"><g><path d="m38.459,14.637c-1.839-.998-3.087-2.933-3.087-5.159,0-1.625.665-3.097,1.74-4.161-3.286.799-9.477,3.391-14.118,11.802l-1.182-2.158c-.084-.153-.303-.162-.398-.015l-.641,2.173h-1.628s-.559-2.173-.559-2.173c-.095-.147-.314-.139-.399.015l-1.182,2.158C12.365,8.708,6.174,6.117,2.888,5.317c1.075,1.064,1.74,2.535,1.74,4.161,0,2.225-1.248,4.161-3.087,5.159-.078.042-.037.156.05.142,1.209-.19,2.536-.023,3.941.806,1.339.79,2.356,2.074,2.713,3.578.467,1.963-.063,3.808-1.183,5.154-.086.104.025.242.147.184,1.006-.477,2.169-.683,3.394-.512,1.188.165,2.266.786,3.084,1.657l.029.031c.867.923,1.347,2.131,1.347,3.386v5.447c0,.193.269.242.338.062l1.768-4.62c.446-1.166,1.572-1.938,2.83-1.941h0s.025,0,.025,0c1.257.003,2.383.774,2.829,1.94l1.766,4.614c.069.18.339.131.338-.062l-.016-5.573c-.003-1.169.442-2.296,1.246-3.151h0c1.004-1.069,2.371-1.793,3.844-1.845.981-.035,1.91.17,2.735.557.128.06.244-.084.154-.193-.991-1.202-1.514-2.798-1.282-4.518.262-1.939,1.572-3.614,3.345-4.472,1.214-.587,2.364-.695,3.424-.528.087.014.128-.1.05-.142Z" fill="#333d4b"/><ellipse cx="18.576" cy="19.129" rx=".937" ry=".93" fill="#e4e7ea"/><ellipse cx="21.437" cy="19.129" rx=".937" ry=".93" fill="#e4e7ea"/></g><rect width="40" height="40" fill="none"/></svg>