<svg id="Layer_1" data-name="Layer 1" xmlns="http://www.w3.org/2000/svg" viewBox="0 0 40 40"><defs><style>.cls-1{fill:#de9740;}.cls-2{fill:#86584a;}.cls-3{fill:#6e4944;}.cls-4{fill:#ffb72d;}.cls-5{fill:none;}</style></defs><path class="cls-1" d="M20,22.6,3.812,11.591l.061,2.5L2.5,15.228l1.069,11.82A2.525,2.525,0,0,0,6.329,28.9s-.431,4.366,5.65,4.543c0,0,2.76,4.057,8.021,1.323,5.261,2.734,8.021-1.323,8.021-1.323,6.081-.177,5.65-4.543,5.65-4.543a2.525,2.525,0,0,0,2.76-1.852L37.5,15.228l-1.315-.917,0-2.72Z"/><path class="cls-2" d="M37.5,15.228c0-.916-.877-1.711-2.18-2.156a1.924,1.924,0,0,0,.868-1.481c0-1.111-1.287-2.045-3.067-2.387a1.455,1.455,0,0,0,.086-.475c0-1.4-2.029-2.534-4.532-2.534-.249,0-.49.02-.729.041-.474-1.116-2.257-1.949-4.4-1.949A6.262,6.262,0,0,0,20,5.262a6.262,6.262,0,0,0-3.548-.975c-2.141,0-3.924.833-4.4,1.949-.239-.021-.48-.041-.729-.041-2.5,0-4.532,1.135-4.532,2.534a1.455,1.455,0,0,0,.086.475c-1.78.342-3.067,1.276-3.067,2.387a1.924,1.924,0,0,0,.868,1.481c-1.3.445-2.18,1.24-2.18,2.156,0,1.085,1.225,2,2.94,2.365a1.6,1.6,0,0,0-.316.915c0,1.4,2.028,2.534,4.531,2.534a7.32,7.32,0,0,0,2.333-.372,1.426,1.426,0,0,0-.067.372c0,1.4,2.029,2.534,4.531,2.534A6.262,6.262,0,0,0,20,22.6a6.262,6.262,0,0,0,3.548.975c2.5,0,4.531-1.135,4.531-2.534a1.426,1.426,0,0,0-.067-.372,7.32,7.32,0,0,0,2.333.372c2.5,0,4.531-1.135,4.531-2.534a1.6,1.6,0,0,0-.316-.915C36.275,17.232,37.5,16.313,37.5,15.228Z"/><path class="cls-3" d="M26.769,10.441a7.783,7.783,0,0,0-1.831.214,1.57,1.57,0,0,0,.037-.214c0-1.526-2.128-2.763-4.754-2.763s-4.754,1.237-4.754,2.763a1.625,1.625,0,0,0,.057.332,7.509,7.509,0,0,0-2.215-.332c-2.626,0-4.754,1.237-4.754,2.764s2.128,2.763,4.754,2.763a7.426,7.426,0,0,0,2.409-.393,1.635,1.635,0,0,0-.068.393c0,1.526,2.128,2.763,4.754,2.763s4.754-1.237,4.754-2.763a1.558,1.558,0,0,0-.031-.179,7.823,7.823,0,0,0,1.642.179c2.625,0,4.754-1.237,4.754-2.763S29.394,10.441,26.769,10.441ZM18,13.6a1.652,1.652,0,0,0,.068-.393,1.634,1.634,0,0,0-.057-.333,7.509,7.509,0,0,0,2.215.333,7.768,7.768,0,0,0,1.83-.214,1.709,1.709,0,0,0-.037.214c0,.061.025.118.031.179a7.806,7.806,0,0,0-1.641-.179A7.426,7.426,0,0,0,18,13.6Z"/><ellipse class="cls-4" cx="20.183" cy="12.438" rx="3.322" ry="1.89"/><rect class="cls-5" width="40" height="40"/></svg>