<?xml version="1.0" encoding="UTF-8"?><svg id="Layer_1" xmlns="http://www.w3.org/2000/svg" viewBox="0 0 40 40"><rect width="40" height="40" fill="none"/><path d="m20.59,14.841c-.015,1.525-.755,2.954-1.867,3.998l-.957.856-14.168,13.041c-.777.73-.8,1.956-.053,2.716l1.003,1.003c.76.748,1.986.724,2.716-.053l13.041-14.168.856-.957c1.044-1.112,2.473-1.852,3.998-1.867,2.569-.025,6.178-.879,8.685-3.425,3.952-4.013,3.952-8.59,1.336-11.166-2.575-2.615-7.152-2.615-11.166,1.336-2.545,2.506-3.399,6.116-3.425,8.685Z" fill="#8a94a0"/></svg>