<svg id="Layer_1" data-name="Layer 1" xmlns="http://www.w3.org/2000/svg" viewBox="0 0 40 40"><defs><style>.cls-1{fill:#ffe3a0;}.cls-2{fill:#79a4a2;}.cls-3{fill:#6e4944;}.cls-4{fill:#37605f;}.cls-5{fill:#a2c2c3;}.cls-6{fill:#5c2f17;}.cls-7{fill:#ccdfe3;}.cls-8{fill:none;}</style></defs><path class="cls-1" d="M27.529,24.2H12.667a1.417,1.417,0,0,1-1.295-.842L9.246,18.568H30.118L28.9,23.146A1.417,1.417,0,0,1,27.529,24.2Z"/><path class="cls-2" d="M28.033,28.136l-4.214-1.6a10.75,10.75,0,0,0-7.638,0l-4.214,1.6A9.312,9.312,0,0,0,7.2,32.207a9.411,9.411,0,0,0-.923,2.453l-.538,2.189a.525.525,0,0,0,.509.651H33.756a.525.525,0,0,0,.509-.651l-.538-2.189a9.411,9.411,0,0,0-.923-2.453A9.312,9.312,0,0,0,28.033,28.136Z"/><circle class="cls-3" cx="20" cy="15.924" r="9.16"/><path class="cls-1" d="M30.358,13.3A10.623,10.623,0,0,0,18.633,2.562a10.423,10.423,0,0,0-4.8,1.789,10.57,10.57,0,0,0-4.536,7.68,11.059,11.059,0,0,0-.039,1.485s.9-.213,1.692,1.516l6.042-6.761s7.33,6.263,12.171,5.941c.106-.007.235-.416.357-.468C29.839,13.562,30.111,13.225,30.358,13.3Z"/><ellipse cx="17.427" cy="15.481" rx="0.975" ry="1.17"/><ellipse cx="22.573" cy="15.481" rx="0.975" ry="1.17"/><path class="cls-3" d="M17.815,23.742h4.393a0,0,0,0,1,0,0v3.1a2.2,2.2,0,0,1-2.2,2.2h0a2.2,2.2,0,0,1-2.2-2.2v-3.1A0,0,0,0,1,17.815,23.742Z"/><path class="cls-3" d="M24.488,18.2a4.5,4.5,0,1,0,6.667-6.033Z"/><path class="cls-3" d="M15.117,18.2A4.5,4.5,0,0,1,8.45,12.168Z"/><path class="cls-4" d="M7.2,32.207a9.411,9.411,0,0,0-.923,2.453l-.538,2.189a.525.525,0,0,0,.509.651h8.224a19.559,19.559,0,0,0-3.159-9.081A9.309,9.309,0,0,0,7.2,32.207Z"/><path class="cls-4" d="M32.8,32.207a9.411,9.411,0,0,1,.923,2.453l.538,2.189a.525.525,0,0,1-.509.651H25.532a19.559,19.559,0,0,1,3.159-9.081A9.309,9.309,0,0,1,32.8,32.207Z"/><rect class="cls-5" x="8.783" y="10.195" width="22.039" height="1.254" rx="0.627"/><path class="cls-6" d="M21.224,19.682a.331.331,0,0,1,.317.421,1.587,1.587,0,0,1-3.059,0,.331.331,0,0,1,.317-.421Z"/><rect class="cls-7" x="18.889" y="32.517" width="2.245" height="2.245" rx="0.341" transform="translate(29.648 -4.297) rotate(45)"/><rect class="cls-8" width="40" height="40"/></svg>