<?xml version="1.0" encoding="UTF-8"?><svg id="Layer_1" xmlns="http://www.w3.org/2000/svg" viewBox="0 0 40 40"><rect width="40" height="40" fill="none"/><g><path d="m24.517,14.69c.261-.937.952-1.694,1.809-2.154l.73-.369,10.875-5.693c.599-.321.815-1.072.48-1.663l-.452-.783c-.344-.586-1.103-.774-1.681-.416l-10.368,6.572-.685.448c-.826.512-1.828.732-2.77.49-1.586-.408-3.949-.478-5.913.676-3.095,1.819-3.85,4.637-2.665,6.655,1.154,2.035,3.972,2.79,7.096,1.019,1.981-1.123,3.102-3.205,3.542-4.782Z" fill="#8a94a0"/><g><path d="m15.293,31.549h9.411v3.343c0,.925-.751,1.676-1.676,1.676h-6.058c-.925,0-1.676-.751-1.676-1.676v-3.343h0Z" fill="#afb7c0"/><path d="m36.758,15.551c.974,0,1.755.837,1.661,1.807-.908,9.374-8.809,16.701-18.421,16.701S2.486,26.732,1.578,17.358c-.094-.969.687-1.807,1.661-1.807h33.519Z" fill="#d0d5da" fill-rule="evenodd"/></g></g></svg>