<?xml version="1.0" encoding="UTF-8"?><svg id="Layer_1" xmlns="http://www.w3.org/2000/svg" viewBox="0 0 40 40"><g><path d="m37.649,22.521l-1.022-1.897c-.454-.843-.53-1.839-.208-2.741.473-1.327.149-2.808-.834-3.817,0,0,1.346-2.361-.207-3.004-1.156-.479-3.461-.416-3.461-.416,0,0-2.802-3.462-14.383-3.462S3.464,11.864,2.862,13.859c-1.705,5.649-.426,11.063,0,14.63.287,2.404.459,3.547.53,4.028.026.176.176.3.354.3h2.019c.307,0,.578-.2.669-.494l.823-2.674.255-.83c.347-1.127,1.388-1.896,2.566-1.896h3.864c.923,0,1.74.597,2.02,1.477l1.208,3.796c.117.369.461.62.848.62h2.004c.492,0,.89-.399.89-.89v-3.68c0-.512.415-.927.927-.927s.927.415.927.927v3.68c0,.492.398.89.89.89h1.785c.443,0,.821-.32.88-.759.292-2.166.316-7.121,2.211-7.256l.201.074c.796.294,1.477.801,2.118,1.358.412.358.946.567,1.514.567h2.728c2.196,0,3.597-2.345,2.556-4.279Zm-7.554-9.27l-4.185,2.911c-.165.115-.391.017-.425-.18-.877-5.143,3.191-3.793,4.562-3.205.197.084.224.352.048.474Zm2.773,5.57c-.402,0-.728-.326-.728-.728s.326-.728.728-.728.728.326.728.728-.326.728-.728.728Zm2.484,6.631c-.293,0-.53-.237-.53-.53s.237-.53.53-.53.53.237.53.53-.237.53-.53.53Z" fill="#6b7683"/><g><path d="m7.512,28.819l-.255.83,1.09,2.618c.139.333.464.55.824.55h2.354c.441,0,.771-.404.685-.836l-1.015-5.058h-1.116c-1.179,0-2.22.769-2.566,1.896Z" fill="#4e5968"/><path d="m30.047,12.777c-1.371-.588-5.439-1.937-4.562,3.205.034.198.26.295.425.18l4.185-2.911c.176-.122.149-.39-.048-.474Z" fill="#4e5968"/></g><path d="m32.868,17.366c-.402,0-.728.326-.728.728s.326.728.728.728.728-.326.728-.728-.326-.728-.728-.728Z"/><path d="m35.352,24.393c-.293,0-.53.237-.53.53s.237.53.53.53.53-.237.53-.53-.237-.53-.53-.53Z" fill="#383838"/></g><rect width="40" height="40" fill="none"/></svg>