<?xml version="1.0" encoding="UTF-8"?><svg id="Layer_1" xmlns="http://www.w3.org/2000/svg" viewBox="0 0 40 40"><g><path d="M24.99566,32.73626l5.90603-6.8459c1.53608-1.62577,4.33496-1.45181,5.77463,.25992,.56471,.67142,.92416,1.54625,.7987,2.6755-.41819,3.76416-4.54774,6.52875-5.78646,7.43603-1.23871,.90728-4.04421,2.43983-4.3812,.0794,0,0-2.05383,.22886-1.13561-1.63324,0,0-2.82053,.48656-1.17608-1.97171Z" style="fill:#be4b56;"/><path d="M8.82239,23.74635s-4.71462-.94849-5.86351,1.34484c-1.14291,2.28139,.16679,4.37238,2.6955,6.10438,0,0-2.61299,.86556-2.32288,2.17055,0,0-1.59331,.89992-.36882,1.96213,0,0-.55152,1.84941,1.52687,1.41641l18.00926-4.98488s9.00633-8.6185,7.97211-10.42838c-1.03422-1.80988-9.71063-10.05409-9.71063-10.05409l-9.1947,5.58476-2.7432,6.88427Z" style="fill:#be4b56;"/><polygon points="12.6971 21.63424 19.48902 32.62637 16.78614 33.34103 12.6971 21.63424" style="fill:#752e35;"/><path d="M27.11231,10.49815c1.48069,.46622,5.61621,2.34976,7.65155,9.18607,.24302,.81627,.39848,1.66849,.34222,2.51831-.09416,1.42241-.68085,3.01434-2.81631,4.74444-1.66647,1.35013-3.70276,4.21185-6.81501,5.59784,0,0-2.39129,1.15215-2.255-.76029,0,0-1.80719,.8753-2.0007-1.27264,0,0-1.91153-.19047-.80027-1.85735,1.11126-1.66689,1.0535-1.74606,3.14959-3.84523,1.46881-1.47096,2.64449-2.58239,3.25601-3.15171,.11479-.10687-.00009-.29772-.14629-.24093-1.16091,.45095-3.45706,2.14716-6.22723-.50506-.28024-.2683-.71405-.28685-1.02684-.05733-1.17831,.8646-4.03922,2.53561-6.44138,.53711-.14198-.11813-.3487,.06288-.28756,.23717,.5219,1.48788,1.88219,5.37948,2.94207,8.52992,.88965,1.96675,1.61899,3.98093,1.00805,4.74276-.46637,.58155-1.44839,.05941-1.44839,.05941,0,0-.27406,.88516-.99638,.88516s-1.27795-.38894-1.27795-.38894l-.14547,.10169c-.83012,.58028-1.98341,.365-2.53117-.48693-1.44981-2.25491-3.91868-6.76571-4.26872-11.78304-.47419-6.79677,4.69571-11.27568,8.21924-12.73974,.33539-.13936,.5882-.41269,.67173-.76615,.30495-1.29037,1.35121-4.56893,4.45853-6.94683,.79204-.60611,1.92139-.56495,2.68392,.0779,1.31071,1.10497,3.25325,3.2434,4.38018,6.83587,.11023,.3514,.37028,.63792,.72156,.74852Z" style="fill:#be4b56;"/><path d="M23.13638,10.65505c-.07863-.12564-.04011-.28256,.0817-.367,.56186-.3895,1.12604-1.0639,1.12604-1.73922,0-1.12693-.91358-1.93484-2.04051-1.93484-.52309,0-.99568,.20071-1.35554,.52542-.09666,.08722-.23167,.08722-.32833,0-.35987-.32471-.83252-.52542-1.35561-.52542-1.12699,0-2.04051,.80791-2.04051,1.93484,0,.67524,.56404,1.34955,1.12582,1.73907,.12188,.08451,.15799,.24552,.07782,.37029-.62934,.97937-1.07008,1.93379-1.30483,2.81412-.62514,2.34434,1.63928,4.09283,3.66148,4.09283s4.4987-1.63584,3.66141-4.09283c-.21351-.62653-.67452-1.80354-1.30893-2.81727Z" style="fill:#ffb5ad;"/><circle cx="19.57305" cy="8.69328" r=".87343"/><circle cx="22.05933" cy="8.69328" r=".87343"/><circle cx="20.81216" cy="15.68713" r=".82527" style="fill:#b83740;"/><circle cx="20.40877" cy="11.62884" r=".35152" style="fill:#4f4f4f;"/><circle cx="21.18023" cy="11.62884" r=".35152" style="fill:#4f4f4f;"/><g><path d="M20.1109,23.9187c.06683,1.07117,.16492,2.19873,.24115,2.99902,.02454,.25757-.03271,.50598-.15179,.71753-.28265,.50195-.98462,.59229-1.41779,.21252-.43207-.37878-.979-1.10059-1.23505-2.42468-.45764-2.36633,.70312-3.5271,1.67419-3.99585,.01819-.00879,.03845-.01147,.05695-.01953-.20685-1.0697-.78534-4.65442,.41614-6.17822,.5462-.69055,1.83411-.60364,1.94165,.45166,.07159,.703,.22766,2.78491,.5163,4.37744,.24084-.32581,.56964-.63867,1.05011-.85132,.88019-.38965,2.34473-.47888,3.65814,1.21436,.73505,.94763,.89594,1.73792,.89508,2.25024-.00085,.51367-.47443,.93262-.97656,.82861-.21161-.0437-.41144-.15063-.56934-.31812-.59949-.6355-1.50958-1.58496-2.31201-2.35913-.43854-.42297-.83905-.48926-1.18103-.39185,.547,1.43823,1.35248,2.39062,2.17291,3.01685,.14642-.12988,.28644-.24878,.41046-.34326,0,0,1.65576,.81494,1.73987,.79639,.08417-.0188,1.51471-.71069,1.51471-.71069l-4.72162-10.02295-6.1615,.61719-2.75818,8.70068,1.40247,6.11865,5.15167,.66382,.69153-3.00159s.12634-.14294,.32794-.3656c-1.10626-.54675-1.89081-1.35474-2.3764-1.98218Z" style="fill:none;"/><path d="M21.48145,21.50659c.05255,.0127,.08411,.02222,.08411,.02222,0,0,.06812-.76831,.5871-1.47021-.28864-1.59253-.4447-3.67444-.5163-4.37744-.10754-1.0553-1.39545-1.14221-1.94165-.45166-1.20148,1.5238-.62299,5.10852-.41614,6.17822,.8269-.36084,1.90546-.01196,2.20288,.09888Z" style="fill:#fff4b5;"/><path d="M22.0874,22.43848c-.62067,.08655-1.50146,.03394-1.95508-.0033-.05072,.21106-.07758,.46301-.06244,.77783,.01099,.22791,.02618,.46741,.04102,.70569,.4856,.62744,1.27014,1.43542,2.3764,1.98218,.32166-.35522,.8399-.91797,1.38049-1.46875-.60223-.46069-1.20905-1.09851-1.7804-1.99365Z" style="fill:#ffda54;"/><path d="M21.48145,21.50659c.05042,.0188,.08411,.03223,.08411,.03223,0,0-1.14758-.29199-1.43323,.89636,.45361,.03723,1.33441,.08984,1.95508,.0033-.1778-.27856-.35223-.58069-.52185-.90967,0,0-.03156-.00952-.08411-.02222Z" style="fill:#ffda54;"/><path d="M19.6496,22.14893l-.30664-.42554s-.02679-.12122-.06439-.31567c-.01849,.00806-.03876,.01074-.05695,.01953-.97107,.46875-2.13184,1.62952-1.67419,3.99585,.25604,1.3241,.80298,2.0459,1.23505,2.42468,.43317,.37976,1.13513,.28943,1.41779-.21252,.11908-.21155,.17633-.45996,.15179-.71753-.07623-.80029-.17432-1.92786-.24115-2.99902-.4046-.52295-.60583-.91919-.60583-.91919-.008-.35938,.04944-.63379,.14453-.85059Z" style="fill:#ffe754;"/><path d="M19.6496,22.14893c.39899-.91016,1.51776-.71777,1.83185-.64233-.29742-.11084-1.37598-.45972-2.20288-.09888,.0376,.19446,.06439,.31567,.06439,.31567l.30664,.42554Z" style="fill:#ffe754;"/><path d="M20.13232,22.43518c-.18073-.01477-.29614-.02734-.29614-.02734l-.18658-.25891c-.09509,.2168-.15253,.49121-.14453,.85059,0,0,.20123,.39624,.60583,.91919-.01483-.23828-.03003-.47778-.04102-.70569-.01514-.31482,.01172-.56677,.06244-.77783Z" style="fill:#ffe754;"/><path d="M21.56555,21.53882s-.03369-.01343-.08411-.03223c-.31409-.07544-1.43286-.26782-1.83185,.64233l.18658,.25891s.11542,.01257,.29614,.02734c.28564-1.18835,1.43323-.89636,1.43323-.89636Z" style="fill:#ffe754;"/><path d="M22.71704,20.4314c-.16211,.04614-.31067,.12842-.44342,.22986,.11975,.52747,.25836,.95569,.4187,1.18762,.24255,.3512-.09106,.51807-.60492,.5896,.57135,.89514,1.17816,1.53296,1.7804,1.99365,.34985-.35645,.70538-.70288,1.02216-.98389-.82043-.62622-1.62592-1.57861-2.17291-3.01685Z" style="fill:#ffcf54;"/><path d="M21.56555,21.52881c.16962,.32898,.34406,.6311,.52185,.90967,.51385-.07153,.84747-.2384,.60492-.5896-.16034-.23193-.29895-.66016-.4187-1.18762-.44104,.33704-.70807,.86755-.70807,.86755Z" style="fill:#ffcf54;"/><path d="M22.66132,20.29431c.01733,.04797,.03784,.08997,.05573,.13708,.34198-.09741,.74249-.03113,1.18103,.39185,.80243,.77417,1.71252,1.72363,2.31201,2.35913,.1579,.16748,.35773,.27441,.56934,.31812,.50214,.104,.97571-.31494,.97656-.82861,.00085-.51233-.16003-1.30261-.89508-2.25024-1.31342-1.69324-2.77795-1.604-3.65814-1.21436-.48047,.21265-.80927,.52551-1.05011,.85132,.02936,.16211,.06012,.3186,.09229,.46851,.2254-.16528,.41638-.23279,.41638-.23279Z" style="fill:#ffe754;"/><path d="M21.75159,21.08252l.00006-.00024,.00012-.00012c.14435-.25049,.32587-.43225,.49316-.55505-.03217-.1499-.06293-.3064-.09229-.46851-.51898,.7019-.5871,1.47021-.5871,1.47021,.04303-.17212,.11072-.31555,.18604-.44629Z" style="fill:#ffe754;"/><path d="M22.66132,20.29431s-.19098,.0675-.41638,.23279l.00232,.01147c.22363-.1665,.41406-.24426,.41406-.24426Z" style="fill:#ffe754;"/><path d="M21.56555,21.52881l.18604-.44629c-.07532,.13074-.14301,.27417-.18604,.44629Z" style="fill:#ffe754;"/><path d="M22.24725,20.53857l-.00232-.01147c-.1673,.1228-.34882,.30457-.49316,.55505,.14471-.25122,.32867-.41956,.49548-.54358Z" style="fill:#ffe754;"/><polygon points="21.75165 21.08228 21.75159 21.08252 21.75177 21.08215 21.75165 21.08228" style="fill:#ffe754;"/><path d="M22.24725,20.53857c.00879,.04077,.01733,.08289,.02637,.12268,.13275-.10144,.28131-.18372,.44342-.22986-.01788-.04712-.03839-.08911-.05573-.13708,0,0-.19043,.07776-.41406,.24426Z" style="fill:#ffe754;"/><path d="M21.75177,21.08215l-.00018,.00037-.18604,.44629s.26703-.53052,.70807-.86755c-.00903-.03979-.01758-.08191-.02637-.12268-.16681,.12402-.35077,.29236-.49548,.54358Z" style="fill:#ffe754;"/></g></g><rect width="40" height="40" style="fill:none;"/></svg>