<?xml version="1.0" encoding="UTF-8"?><svg id="Layer_1" xmlns="http://www.w3.org/2000/svg" viewBox="0 0 40 40"><rect width="40" height="40" fill="none"/><g><path d="m29.939,6h-15.516v.006c-5.849.067-10.572,4.822-10.572,10.685,0,5.905,4.788,10.692,10.695,10.692v-1.247l11.488,3.071h5.974c2.286,0,4.139-1.853,4.139-4.138v-12.862c0-3.428-2.78-6.207-6.209-6.207Z" fill="#ffc84d"/><path d="m29.999,27.68c-.128-.145-.266-.283-.417-.408l.008-.013-7.71-6.203-3.89-3.13-7.551,8.672,15.109,7.043c1.907.889,4.173.064,5.062-1.842.661-1.416.364-3.021-.611-4.12Z" fill="#ffc84d"/><path d="m29.582,27.272c.151.125.289.263.417.408l.308.162-4.534-7.163c1.031-2.025,1.414-4.928,1.414-4.928l-5.308,5.305,7.71,6.203-.008.013Z" fill="#f78700"/></g></svg>