<svg id="Layer_1" data-name="Layer 1" xmlns="http://www.w3.org/2000/svg" viewBox="0 0 40 40"><defs><style>.cls-1{fill:#f2f2f2;}.cls-2{fill:#ffb582;}.cls-3{fill:#5c2f17;}.cls-4{fill:none;}</style></defs><path class="cls-1" d="M7.278,25.775,8.7,32.867a1.4,1.4,0,0,0,1.375,1.127H30.007a1.4,1.4,0,0,0,1.351-1.024l1.934-6.9Z"/><ellipse class="cls-2" cx="20" cy="21.7" rx="13.292" ry="15.286"/><ellipse class="cls-2" cx="8.929" cy="22.422" rx="5.321" ry="4.991"/><ellipse class="cls-2" cx="31.071" cy="22.422" rx="5.321" ry="4.991"/><ellipse cx="16.266" cy="21.405" rx="1.415" ry="1.697"/><ellipse cx="23.734" cy="21.405" rx="1.415" ry="1.697"/><path class="cls-3" d="M21.761,29.8a.479.479,0,0,1,.458.61,2.3,2.3,0,0,1-4.438,0,.479.479,0,0,1,.458-.61Z"/><path class="cls-1" d="M4.96,19.1S4.023,8.322,11.748,6.414A12.278,12.278,0,0,1,22.973,3.3c7.061,1.449,10.863,7,11.526,10.2a22.789,22.789,0,0,1,.506,5.564l-1.994,1.568a1.385,1.385,0,0,1-1.793-.066,14.623,14.623,0,0,0-7.7-3.435A13.559,13.559,0,0,1,13.227,9.1s-2.514,8.09-4.935,11.177a1.236,1.236,0,0,1-1.77.155Z"/><rect class="cls-4" width="40" height="40"/></svg>