<?xml version="1.0" encoding="UTF-8"?><svg id="Layer_1" xmlns="http://www.w3.org/2000/svg" viewBox="0 0 40 40"><g><circle cx="20" cy="20" r="17.5" fill="#ffc84d"/><circle cx="8.181" cy="22.892" r="3.485" fill="#ff9210"/><circle cx="31.819" cy="22.892" r="3.485" fill="#ff9210"/><ellipse cx="24.224" cy="18.571" rx="2.094" ry="2.728"/><path d="m12.588,18.881c-.36-.15-.736.184-.613.554.39,1.168,1.465,2.007,2.731,2.007,1.265,0,2.341-.839,2.731-2.007.124-.37-.252-.704-.613-.554-.497.207-1.219.414-2.118.414s-1.621-.207-2.118-.414Z"/><path d="m13.147,14.957c1.14-.532,1.676-1.1,2.122-1.607.257-.292.621-.158.618.258-.007.899-.562,2.12-2.056,2.817-1.494.696-2.786.337-3.479-.236-.321-.265-.19-.631.2-.64.675-.015,1.455-.061,2.595-.592Z"/><path d="m25.103,9.996c-1.125-.301-1.844-.217-2.461-.123-.356.055-.535-.258-.285-.551.54-.633,1.661-1.169,3.134-.774,1.474.395,2.177,1.42,2.327,2.238.07.379-.241.56-.522.335-.488-.391-1.068-.823-2.193-1.124Z"/><path d="m20.022,27.288c-1.991.351-3.605.281-4.726.121-.582-.083-.916.65-.478,1.041,1.171,1.045,3.112,2.193,5.714,1.734,2.603-.459,4.034-2.201,4.777-3.584.278-.517-.287-1.092-.805-.815-.999.534-2.492,1.152-4.482,1.503Z" fill="#ff6d00"/></g><rect width="40" height="40" fill="none"/></svg>