<svg id="Layer_1" data-name="Layer 1" xmlns="http://www.w3.org/2000/svg" viewBox="0 0 40 40"><defs><style>.cls-1{fill:#ffc84d;}.cls-2{fill:#f80;}.cls-3{fill:#fff;}.cls-4{fill:none;}</style></defs><circle class="cls-1" cx="20" cy="20" r="17.5"/><path class="cls-2" d="M20,24.4a23.453,23.453,0,0,1-8.706-1.5.435.435,0,0,0-.539.618C11.8,25.446,15.663,27.37,20,27.37s8.2-1.924,9.245-3.856a.435.435,0,0,0-.539-.618A23.453,23.453,0,0,1,20,24.4Z"/><path d="M17.856,17.249a.333.333,0,0,0,.442-.4,3.19,3.19,0,0,0-6.255.548.334.334,0,0,0,.506.319,6.2,6.2,0,0,1,5.307-.465Z"/><path d="M23.144,17.249a.333.333,0,0,1-.442-.4,3.19,3.19,0,0,1,6.255.548.334.334,0,0,1-.506.319,6.2,6.2,0,0,0-5.307-.465Z"/><path class="cls-3" d="M23.457,26.96v4.392a2.768,2.768,0,0,0,3.986,2.473L27.5,33.8a2.737,2.737,0,0,0,1.527-2.473V23.865A9.841,9.841,0,0,1,23.457,26.96Z"/><rect class="cls-4" width="40" height="40"/></svg>