<?xml version="1.0" encoding="UTF-8"?><svg id="Layer_1" xmlns="http://www.w3.org/2000/svg" viewBox="0 0 40 40"><g><g><path d="m9.507,27.561l-.425-4.139,1.139,11.514c.107,1.449,1.314,2.57,2.767,2.57h13.961c1.453,0,2.66-1.121,2.767-2.57l1.139-11.514-.425,4.139H9.507Z" fill="#d0d5da"/><polygon points="7.971 12.198 8.683 19.386 31.255 19.386 31.966 12.198 20.616 12.198 18.093 12.198 7.971 12.198" fill="#d0d5da"/></g><path d="m32.058,8.215H7.942c-1.095,0-1.982.888-1.982,1.982s.887,1.982,1.982,1.982h24.117c1.095,0,1.982-.887,1.982-1.982s-.887-1.982-1.982-1.982Z" fill="#e5e9ee"/><g><path d="m22.686,4.868c.104-.369.402-.656.774-.747l6.606-1.61c.683-.166,1.101-.854.935-1.537-.166-.684-.858-1.109-1.537-.935l-6.607,1.61c-1.263.308-2.266,1.278-2.62,2.528l-1.141,4.039h2.644l.945-3.347Z" fill="#e32939"/><polygon points="8.668 19.386 9.082 23.422 9.507 27.561 30.43 27.561 30.855 23.422 31.27 19.386 31.255 19.386 8.683 19.386 8.668 19.386" fill="#e32939"/></g></g><rect y="0" width="40" height="40" fill="none"/></svg>