<svg id="Layer_1" data-name="Layer 1" xmlns="http://www.w3.org/2000/svg" viewBox="0 0 40 40"><defs><style>.cls-1{fill:none;}.cls-2{fill:#4e5968;}.cls-3{fill:#3d3d3d;}.cls-4{fill:#ffc450;}.cls-5{fill:#ffe3a0;}.cls-6{fill:#036d50;}.cls-7{fill:#d0d5da;}.cls-8{fill:#f77f00;}.cls-9{fill:#c50010;}.cls-10{fill:#d5d5d5;}</style></defs><rect class="cls-1" width="40" height="40"/><path class="cls-2" d="M32.87,24.705h1.949A4.181,4.181,0,0,0,39,20.524h0a4.181,4.181,0,0,0-4.181-4.181H32.87s1.875,1.025,1.875,4.181-1.875,4.181-1.875,4.181"/><path class="cls-2" d="M7.13,24.705H5.181A4.181,4.181,0,0,1,1,20.524H1a4.181,4.181,0,0,1,4.181-4.181H7.13s-1.875,1.025-1.875,4.181S7.13,24.705,7.13,24.705"/><ellipse class="cls-3" cx="20" cy="20.524" rx="15.471" ry="8.961"/><ellipse class="cls-4" cx="20" cy="24.261" rx="13.062" ry="7.566"/><path class="cls-5" d="M20.593,27.88a.614.614,0,0,0,.586-.824,2.167,2.167,0,0,0-4.008,0,.614.614,0,0,0,.586.824Z"/><path class="cls-6" d="M12.926,25.072a.613.613,0,0,0,.586-.823,2.167,2.167,0,0,0-4.008,0,.613.613,0,0,0,.586.823Z"/><path class="cls-7" d="M28.013,8.866l-.022,1h0l-.068,3.17v.029l3.192.069v-.007l1.006.022a1.6,1.6,0,1,0,.07-3.192l-1.006-.022.021-1a1.6,1.6,0,1,0-3.192-.069Z"/><rect class="cls-7" x="26.387" y="10.839" width="3.195" height="4.323" transform="translate(37.948 42.205) rotate(-133.756)"/><path class="cls-8" d="M27.126,21.229c-.066,4.213-15.319,3.974-15.254-.238a7.628,7.628,0,0,1,15.254.238Z"/><path class="cls-8" d="M27.126,21.229l-8.9-7.64,7.838-1.621a.661.661,0,0,1,.613.19l2.075,2.167a.664.664,0,0,1,.164.62Z"/><path class="cls-9" d="M29.562,25.3a.833.833,0,0,0,.765-1.15,3.09,3.09,0,0,0-5.735,0,.832.832,0,0,0,.764,1.15Z"/><path class="cls-2" d="M35.148,22.349A7.244,7.244,0,0,1,33.4,24.988a10.442,10.442,0,0,1-.9.8c-.079.063-.158.126-.239.188a13.293,13.293,0,0,1-1.161.785c-.013.008-.025.017-.038.024-.412.245-.857.471-1.315.687-.151.072-.308.139-.465.207A23.412,23.412,0,0,1,20,29.486,23.454,23.454,0,0,1,10.769,27.7c-.2-.086-.392-.172-.582-.263-.324-.154-.633-.318-.934-.488-.136-.076-.279-.149-.41-.228A12.915,12.915,0,0,1,7.63,25.9c-.01-.007-.017-.015-.026-.022a10.282,10.282,0,0,1-1-.886A6.766,6.766,0,0,1,4.624,21.5h0L7.351,27.88h.018c1,3.856,5.7,6.816,12.631,6.816s11.634-2.96,12.631-6.816h.017Z"/><ellipse class="cls-10" cx="17.815" cy="5.249" rx="3.072" ry="3.086"/><ellipse class="cls-10" cx="14.657" cy="6.396" rx="2.605" ry="2.617"/><ellipse class="cls-10" cx="23.742" cy="6.696" rx="2.207" ry="2.217"/></svg>