<svg id="Layer_1" data-name="Layer 1" xmlns="http://www.w3.org/2000/svg" viewBox="0 0 40 40"><defs><style>.cls-1{fill:#330e0d;}.cls-2{fill:#d12030;}.cls-3{fill:none;}</style></defs><circle class="cls-1" cx="17.516" cy="12.068" r="1.725"/><circle class="cls-1" cx="23.15" cy="12.068" r="1.725"/><path class="cls-2" d="M30.644,13.189A10.4,10.4,0,0,1,29.5,17.928a15.133,15.133,0,0,0-18.631,0A10.4,10.4,0,0,1,9.72,13.189H5a15.091,15.091,0,0,0,2.516,8.357,15.3,15.3,0,0,0,3.351,3.619,15.137,15.137,0,0,0,18.631,0,15.3,15.3,0,0,0,3.351-3.619,15.091,15.091,0,0,0,2.516-8.357Z"/><path class="cls-2" d="M10.477,5.487,6.991,10,3.609,5.454a5.392,5.392,0,0,0-1,7.558,5.4,5.4,0,0,0,6.965,1.544c.108-.059.212-.123.317-.189.081-.053.168-.088.246-.146l-.014-.019a5.552,5.552,0,0,0,1.227-1.14A5.392,5.392,0,0,0,10.477,5.487Z"/><path class="cls-2" d="M36.467,5.487,32.981,10,29.6,5.454a5.46,5.46,0,0,0,5.96,9.1c.108-.059.212-.123.317-.189.081-.053.168-.088.247-.146l-.015-.019a5.578,5.578,0,0,0,1.228-1.14A5.393,5.393,0,0,0,36.467,5.487Z"/><path class="cls-2" d="M12.1,25.206c-1.306-1.423-3.777-1.279-5.519.321s-2.1,4.05-.79,5.472Z"/><path class="cls-2" d="M15,26.231c-1.859-.523-3.885.9-4.526,3.175s.347,4.547,2.206,5.07Z"/><path class="cls-2" d="M28.517,25.206c1.306-1.423,3.777-1.279,5.519.321s2.1,4.05.79,5.472Z"/><path class="cls-2" d="M25.611,26.231c1.859-.523,3.885.9,4.525,3.175s-.346,4.547-2.2,5.07Z"/><rect class="cls-3" y="-0.035" width="40" height="40"/></svg>