<svg id="Layer_1" data-name="Layer 1" xmlns="http://www.w3.org/2000/svg" viewBox="0 0 40 40"><defs><style>.cls-1{fill:#ffc84d;}.cls-2{fill:#ff6d00;}.cls-3{fill:#f5172b;}.cls-4{fill:#fff;}.cls-5{fill:none;}</style></defs><ellipse class="cls-1" cx="20" cy="20" rx="17.5" ry="17.494"/><path id="SVGID" class="cls-2" d="M10.73,21.873c-1.152,0-1.686.651-1.458,1.36C10.282,26.374,14.7,28.739,20,28.739s9.718-2.365,10.728-5.506c.228-.709-.072-1.268-1.224-1.268Z"/><circle cx="23.807" cy="13.517" r="2.166"/><circle cx="15.587" cy="16.671" r="2.091"/><path class="cls-3" d="M13,28.513a4.651,4.651,0,0,0,9.3,0l.054-5.264h-9.3Z"/><path class="cls-4" d="M29.5,21.965c-1.994,1.492-5.426,2.477-9.327,2.477-3.98,0-7.473-1.026-9.447-2.569Z"/><rect class="cls-5" width="40" height="40"/></svg>