<svg id="Layer_1" data-name="Layer 1" xmlns="http://www.w3.org/2000/svg" viewBox="0 0 40 40"><defs><style>.cls-1{fill:#e1d8c9;}.cls-2{fill:#956759;}.cls-3{fill:#b69a76;}.cls-4{fill:#5e403b;}.cls-5,.cls-6{fill:none;}.cls-5{stroke:#956759;stroke-linecap:round;stroke-linejoin:round;stroke-width:0.718px;}</style></defs><polygon class="cls-1" points="35.342 15.907 33.807 19.756 32.973 19.487 33.269 15.907 35.342 15.907"/><path class="cls-2" d="M36.488,8.135,26.139,4.25A5.75,5.75,0,0,0,19.1,6.822h0a2.671,2.671,0,0,1-2.319,1.365l-.683,0A13.8,13.8,0,0,0,2.647,25c.768,3.345,2.229,7.688,4.574,10L27.2,33.838s1.046-5.792-2.5-7.909h7.12a.687.687,0,0,0,.692-.691c-.018-1.126-.353-3.276-2.582-3.731a15.183,15.183,0,0,1-7.287-3.331l10.849-1.47a3.073,3.073,0,0,0,2.451-1.929l1.641-4.2A1.877,1.877,0,0,0,36.488,8.135Z"/><path class="cls-3" d="M35.077,7.592l-1.79,1.261c-2.193,1.545-4.308.773-5.734.1L25.1,7.792a4.5,4.5,0,0,0-6.354,3.115c-.44,2.2.193,4.853,3.892,7.269l12.1-1.639a.934.934,0,0,0,.745-.586l2.189-5.621Z"/><path class="cls-4" d="M35.077,7.592l1.339,5.953,1.251-3.215A1.645,1.645,0,0,0,36.7,8.189Z"/><circle class="cls-4" cx="30.137" cy="8.178" r="0.846"/><path class="cls-4" d="M30.6,28,7.221,34.992h0a6.621,6.621,0,0,0,4.738,2.033l19.95.1a4.664,4.664,0,0,0,4.605-5.536h0A4.662,4.662,0,0,0,30.6,28Z"/><line class="cls-5" x1="33.317" y1="11.421" x2="30.419" y2="11.785"/><line class="cls-5" x1="34.049" y1="13.089" x2="32.199" y2="15.097"/><rect class="cls-6" width="40" height="40"/></svg>