<?xml version="1.0" encoding="UTF-8"?><svg id="Layer_1" xmlns="http://www.w3.org/2000/svg" viewBox="0 0 40 40"><path d="M22.68793,9.07288c-.11053-.40631-.09033-.86566,.1048-1.32056,.46259-1.07837,1.68549-1.70325,2.73138-1.39557,.97803,.28766,1.44434,1.28888,1.12384,2.29938l4.64557,.65991,.00244,.00037c.00909-.06403,.00983-.12811,.01678-.1922,.01428-.13239,.02948-.26477,.03467-.39697,.00256-.06561-.00061-.13074-.00024-.19623,.00067-.13928,.00061-.27844-.00861-.41681-.00397-.05896-.01221-.11707-.01794-.17572-.01392-.14276-.03021-.28534-.05463-.42633-.01001-.05774-.02325-.1145-.03497-.17181-.02814-.13776-.05957-.2746-.0976-.40979-.01727-.06158-.03711-.12219-.05646-.18317-.03998-.1261-.08374-.25104-.13226-.37427-.02625-.06659-.05402-.1322-.0827-.19781-.0498-.11383-.10382-.22589-.16101-.33655-.03522-.06824-.07074-.13605-.10876-.203-.05981-.10535-.12469-.20801-.19128-.30981-.0426-.06512-.08398-.13062-.12933-.19421-.07465-.10468-.15552-.20538-.23749-.30548-.03491-.0426-.06494-.08838-.10114-.13013-.00616-.00708-.01392-.01184-.02008-.01886-1.81635-2.07233-4.83087-2.5329-7.16351-1.25305-.02478,.01361-.04974,.02588-.0744,.03992-.30975,.17596-.60596,.3847-.88599,.62329-.01355,.01154-.02936,.01843-.04279,.03009-.00946,.00818-.01697,.01794-.02637,.02618-.17572,.15454-.34045,.31854-.49426,.49066-.03021,.03381-.0575,.0694-.08679,.10382-.12683,.1488-.24573,.30298-.35608,.46259-.02887,.04175-.05798,.08301-.08569,.12549-.25891,.39642-.46899,.82092-.62378,1.26508-.01361,.03906-.02405,.07892-.0368,.11823-.05817,.17902-.10687,.36096-.14746,.54504-.01447,.06549-.02783,.1308-.04004,.1969-.03278,.17792-.05646,.35767-.07257,.53857-.0047,.05261-.01251,.10461-.01575,.15741-.01447,.23505-.01611,.47156-.00165,.7088,.0014,.02228,.00519,.04443,.00677,.06665,.01556,.21344,.04437,.427,.08405,.64008,.0047,.02521,.00488,.05054,.00995,.07574l.00525-.00104,2.82294-.56482Z" style="fill:#ff9000;"/><g><path d="M16.29596,34.48804c-1.8125-.68616-3.09912-1.5791-4.03058-2.50189-.45544,.05249-.88147,.2948-1.11572,.72522l-2.04413,3.7558c-.4364,.80194,.14404,1.77875,1.05707,1.77875h6.88092l-1.17218-.01526,.42462-3.74261Z" style="fill:#b7b7b7;"/><path d="M17.42773,23.02875v-4.01941h4.54102v-2.77258c0-.98383-.21118-1.95135-.5965-2.85315-.06042-.14136-.11383-.2854-.18329-.4231l-1.36267-2.70026c-.04871-.07855-.13763-.10638-.22662-.10193-.02747,.0014-.05469-.00787-.08112,.00293C7.96185,14.89752,9.89545,27.21393,9.89545,27.21393h9.11926c-1.00293-1.13501-1.58698-2.60431-1.58698-4.18518Z" style="fill:#b7b7b7;"/></g><path d="M31.09125,34.13226l-.44983-.91931c-.08832,.03351-.18915,.03522-.28217-.00928l-9.4859-4.53424c-.72266-.37054-1.34265-.87158-1.85864-1.45551H9.89545s.05725,2.48108,2.36993,4.77222c.93146,.92279,2.21808,1.81573,4.03058,2.50189l-.42462,3.74261,1.17218,.01526,11.3501,.14758c2.20624,.02869,3.66736-2.27936,2.69763-4.26123Z" style="fill:#8a8a8a;"/><g><path d="M26.65002,8.65997c.31995-1.01001-.15002-2.01996-1.13-2.29999-1.04004-.31-2.26001,.31-2.73004,1.39001-.19,.45996-.20996,.91998-.09998,1.32001l-2.83002,.57001,.06,.23999-.32001,.27997c.09003-.01001,.18005,.02002,.23004,.10004l1.35999,2.69995c.07001,.14001,.12,.28003,.17999,.42004l.47998-.41003c.79004,.65002,1.75,1.10004,2.83002,1.27002,3.16998,.47998,6.13-1.70001,6.60999-4.87v-.04999l-4.63995-.66003Zm1.97998,3.39001c-.38,.33002-.84003,.41998-1.02002,.20001-.19-.21002-.02997-.65002,.35004-.98004,.37-.32996,.82996-.41998,1.01996-.19995,.17999,.20996,.03003,.64996-.34998,.97998Z" style="fill:#ffc84d;"/><path d="M17.42773,23.02875c0,1.58087,.58405,3.05017,1.58698,4.18518,.51599,.58392,1.13599,1.08496,1.85864,1.45551l9.4859,4.53424c.09302,.04449,.19385,.04279,.28217,.00928,.09723-.03687,.17908-.11285,.21484-.22064l.18262-.54956c.56183-1.6908-.17035-3.54095-1.737-4.3894l-6.22699-3.37213-.14252-.07538c-.58429-.3092-.94977-.91608-.94977-1.57709v-4.01941h-4.55487v4.01941Z" style="fill:#ffc84d;"/></g><path d="M28.63068,12.04913c.3783-.32837,.53387-.76862,.34753-.98334-.18634-.21466-.6441-.1225-1.0224,.20581-.3783,.32837-.53387,.76862-.34753,.98328,.18634,.21472,.6441,.12256,1.0224-.20575Z"/></svg>