<svg id="Layer_1" data-name="Layer 1" xmlns="http://www.w3.org/2000/svg" viewBox="0 0 40 40"><defs><style>.cls-1{fill:#2e3d51;}.cls-2{fill:#c3846c;}.cls-3{fill:#6b7683;}.cls-4{fill:#d0d5da;}.cls-5{fill:#523725;}.cls-6{fill:#5c2f17;}.cls-7{fill:none;}</style></defs><path class="cls-1" d="M17.051,34.989l-1.755,1.7a1.234,1.234,0,0,0-.412.882v.27c0,.365.449.662,1,.662h1.07a2.356,2.356,0,0,0,1.865-.764l.285-.381a.521.521,0,0,0,.111-.314V34.7H17.051Z"/><path class="cls-1" d="M23.121,34.989l1.755,1.7a1.233,1.233,0,0,1,.411.882v.27c0,.365-.448.662-1,.662H23.216a2.355,2.355,0,0,1-1.865-.764l-.285-.381a.516.516,0,0,1-.112-.314V34.7h2.167Z"/><path class="cls-2" d="M15.037,24.779l1.386-7.461c.066-.491-.726-.918-1.216-.983A.885.885,0,0,0,14.2,17.1l-1.137,8.5a.835.835,0,0,0,.009.122c0,.017-.011.032-.011.051,0,.036.018.066.021.1a.76.76,0,0,0,.024.119,1.235,1.235,0,0,0,1.208,1.033,1.254,1.254,0,0,0,1.254-1.253A1.232,1.232,0,0,0,15.037,24.779Z"/><path class="cls-2" d="M24.963,24.779l-1.386-7.461c-.066-.491.726-.918,1.216-.983A.885.885,0,0,1,25.8,17.1l1.137,8.5a.835.835,0,0,1-.009.122c0,.017.011.032.011.051,0,.036-.018.066-.021.1a.76.76,0,0,1-.024.119,1.235,1.235,0,0,1-1.208,1.033,1.254,1.254,0,0,1-1.254-1.253A1.232,1.232,0,0,1,24.963,24.779Z"/><polygon class="cls-3" points="20.004 11.963 17.704 11.963 16.181 20.906 16.4 35.246 19.516 35.246 20.058 25.134 20.004 11.963"/><polygon class="cls-3" points="20.058 11.963 22.517 11.963 23.882 20.906 23.662 35.246 20.547 35.246 20.004 25.134 20.058 11.963"/><path class="cls-4" d="M13.448,17.476l2.815.767-.309,4.222h8.168l-.383-4.255,2.2-1.064-.387-3.106a3.319,3.319,0,0,0-2.243-2.74l-3.336-1.115-3.5,1.184a3.322,3.322,0,0,0-2.171,2.4Z"/><path class="cls-2" d="M19.124,9.7h1.671a0,0,0,0,1,0,0v1.016a.835.835,0,0,1-.835.835h0a.835.835,0,0,1-.835-.835V9.7a0,0,0,0,1,0,0Z"/><path class="cls-5" d="M15.944,7.713l.4,1.6a.665.665,0,0,0,.646.505h5.924a.665.665,0,0,0,.657-.562l.244-1.545Z"/><circle class="cls-2" cx="19.959" cy="6.636" r="3.506"/><ellipse class="cls-2" cx="16.759" cy="6.734" rx="1.404" ry="1.316"/><ellipse class="cls-2" cx="23.159" cy="6.734" rx="1.404" ry="1.316"/><path class="cls-5" d="M23.924,5.631a4.042,4.042,0,0,0-8.063-.485,4.17,4.17,0,0,0-.015.568s.343-.082.648.58l2.313-2.588s2.807,2.255,4.66,2.132A.416.416,0,0,0,23.6,5.8C23.725,5.732,23.829,5.6,23.924,5.631Z"/><ellipse cx="18.974" cy="6.466" rx="0.373" ry="0.448"/><ellipse cx="20.944" cy="6.466" rx="0.373" ry="0.448"/><path class="cls-6" d="M20.423,8.232a.126.126,0,0,1,.121.161.607.607,0,0,1-1.17,0,.126.126,0,0,1,.121-.161Z"/><rect class="cls-7" width="40" height="40"/></svg>