<?xml version="1.0" encoding="UTF-8"?><svg id="Layer_1" xmlns="http://www.w3.org/2000/svg" viewBox="0 0 40 40"><g><path d="M16.76286,29.90112c1.27148,.69584,2.85968,.37021,3.75475-.76983l7.67967-9.78151c.4017-.60761,.56033-1.29678,.59545-1.66359,.23472-2.45084-2.24122-4.07333-4.40349-2.89591l-3.32812,1.81226c-4.91759,2.98842-4.80582,6.42913-5.55636,10.64179-.18979,1.06528,.30888,2.13732,1.25808,2.65679h0Z" style="fill:#65778e;"/><path d="M20.71074,3.36807c-2.40987-2.76587-6.82331-2.41181-8.7518,.73987-1.66466,2.72051-.49885,6.28561,2.32562,7.76704l4.18819,2.1967c1.61733,.84829,3.55138,.83322,5.15531-.04016l.05122-.02789c2.19272-1.194,2.71661-4.11102,1.0764-5.99341l-4.04493-4.64215Z" style="fill:#65778e;"/><path d="M13.00054,36.58118c-.18661,1.00302,.62699,1.9188,1.64723,1.9188l12.47191,.00002v-1.08944c0-.5141-.30231-.97985-.77169-1.18936l-4.84153-1.83225c-.7655-.2897-1.32884-.95093-1.49277-1.75283l-.00861-.04208c-.17694-.86514-.93808-1.48699-1.82114-1.48699h-1.81222c-.78089,0-1.47191,.4959-1.74417,1.22779-.62432,1.67831-1.38114,2.92475-1.62702,4.24633Z" style="fill:#65778e;"/><circle cx="25.88985" cy="17.28295" r="2.06683" style="fill:#d0d6de;"/><circle cx="22.46644" cy="11.01358" r="1.46147" style="fill:#d0d6de;"/></g><rect width="40" height="40" style="fill:none;"/></svg>