<svg id="Layer_1" data-name="Layer 1" xmlns="http://www.w3.org/2000/svg" viewBox="0 0 40 40"><defs><style>.cls-1{fill:#b7b7b7;}.cls-2{fill:#383838;}.cls-3{fill:none;}</style></defs><path class="cls-1" d="M1.33,19.087c.749-4.636,3.047-7.931,9.534-8.01,5.237-.063,5.359-.314,8.749-2.189,3.367-1.862,7.952-3.118,11.921,1.96l.175.024,2.25-1.726a.212.212,0,0,1,.341.162l.1,2.967a.127.127,0,0,0,.223.078l3.771-4.387a.211.211,0,0,1,.373.141c-.068,1.738-.316,6.756-.965,8.377a4.543,4.543,0,0,1-4.538,3.157c-1.845.074-3.051.037-4.364.014a.76.76,0,0,0-.77.7L26.975,33.974c-.026.511-.205.957-.7.957H20.514a.88.88,0,0,1-.88-.88V31.436c0-3.316-1.176-5.24-4.491-5.318-3.088-.073-4.223,1.056-4.223,4.768v3.323a.722.722,0,0,1-.722.722H5.535A1.168,1.168,0,0,1,4.446,34.2C3.427,31.7.7,23,1.33,19.087Z"/><circle cx="29.258" cy="12.758" r="1.091"/><circle class="cls-2" cx="34.722" cy="17.074" r="0.587"/><path class="cls-1" d="M27.488,5.854l.276,4.016L22.021,8.313l4.125-3.076A.841.841,0,0,1,27.488,5.854Z"/><rect class="cls-3" width="40" height="40"/></svg>