<?xml version="1.0" encoding="UTF-8"?><svg id="Layer_1" xmlns="http://www.w3.org/2000/svg" viewBox="0 0 40 40"><g><g><path d="M34.26544,36.84937l-.5387-2.18896c-.20953-.85156-.48596-1.69312-.92242-2.45361-1.06396-1.85352-2.7431-3.30054-4.77148-4.07117l-.25903-.09839c-3.10089,5.22498-4.6319,9.46277-4.6319,9.46277h10.61365c.34082,0,.59131-.31958,.50989-.65063Z" style="fill:#333;"/><path d="M11.9671,28.13562c-2.02832,.77063-3.70752,2.21765-4.77142,4.07117-.43652,.7605-.71295,1.60217-.92242,2.45361l-.5387,2.18896c-.08142,.33105,.16907,.65063,.50989,.65063h10.49622s-1.52356-4.21802-4.61011-9.42651l-.16345,.06213Z" style="fill:#333;"/><path d="M32.58679,21.08154c.45618-.56152,.04944-1.40161-.67401-1.40161H7.96967c-.72345,0-1.13019,.84009-.67401,1.40161,1.90491,2.34534,3.51123,4.7583,4.8349,6.99194,3.08655,5.2085,4.61011,9.42651,4.61011,9.42651h6.40125s1.53101-4.23779,4.6319-9.46277c1.31964-2.22363,2.91833-4.62292,4.81299-6.95569Zm-17.46936,6.3208l2.69769-1.5686,2.19635,3.18286-2.74634,3.62134-2.14771-5.2356Zm4.88257,7.85498c-.51624,0-.93475-.41846-.93475-.93481,0-.51611,.41852-.93457,.93475-.93457s.93469,.41846,.93469,.93457c0,.51636-.41846,.93481-.93469,.93481Zm2.77283-2.61938l-2.7464-3.62134,2.19641-3.18286,2.69763,1.5686-2.14764,5.2356Z" style="fill:#d12030;"/><path d="M20,33.38794c-.51624,0-.93475,.41846-.93475,.93457,0,.51636,.41852,.93481,.93475,.93481s.93469-.41846,.93469-.93481c0-.51611-.41846-.93457-.93469-.93457Z" style="fill:#333;"/></g><g><g><path d="M22.21002,24.80005v.11072h3.27484c3.10291,0,5.40881-2.8717,4.73859-5.90137l-.03894-.01062c-.5639,.34607-1.18036,.56287-1.81451,.64124-1.14001,2.54993-3.40002,4.48999-6.15997,5.16003Z" style="fill:#333;"/><path d="M11.64001,19.65991c-.77063-.02246-1.5354-.2356-2.21527-.65125l-.00269,.00073c-.67017,3.02966,1.63574,5.90137,4.73865,5.90137h3.6593v-.10071c-2.77002-.67004-5.03998-2.6001-6.17999-5.15015Z" style="fill:#333;"/><path d="M13.28998,16.55005c3.30005-3.43005,3.70001-8.28003,3.70001-8.28003,0,0,7.07001,6.03003,11.91003,5.93994l1.44-1.31006c-.13-6.09985-5.44-11.00989-11.71002-10.33984-1.76001,.18994-3.40002,.82996-4.79999,1.78992-2.51001,1.72998-4.23999,4.51001-4.54004,7.68005-.01996,.29004-.00995,.55994-.01996,.83997l-.02002,.02002,2.20001,5.19995c.70001-.45996,1.31-.97998,1.83997-1.53992Z" style="fill:#333;"/></g><path d="M31.15997,12.16992l-.81995,.72998-1.44,1.31006c-4.84003,.09009-11.91003-5.93994-11.91003-5.93994,0,0-.39996,4.84998-3.70001,8.28003-.52997,.55994-1.13995,1.07996-1.83997,1.53992l-2.20001-5.19995-.79999-.72009c-1.66998,1.84009-1.52002,4.68005,.32001,6.3501,.20648,.18628,.4259,.34875,.65472,.48865,.67987,.41565,1.44464,.62878,2.21527,.65125,1.14001,2.55005,3.40997,4.4801,6.17999,5.15015v2.02991c0,1.21008,.97998,2.19006,2.19,2.19006,1.20996,0,2.20001-.97998,2.20001-2.19006v-2.03992c2.75995-.67004,5.01996-2.61011,6.15997-5.16003,.63416-.07837,1.25061-.29517,1.81451-.64124,.22748-.13953,.44855-.2948,.65552-.47876,1.83997-1.67004,1.97998-4.51001,.31995-6.3501Z" style="fill:#d5d5d5;"/><g><ellipse cx="17.42658" cy="15.48097" rx=".97477" ry="1.16973"/><ellipse cx="22.57339" cy="15.48097" rx=".97477" ry="1.16973"/></g><g><rect x="18.22636" y="19.98141" width="3.67805" height=".84556" style="fill:#5c2f17;"/><polygon points="17.26511 19.98141 18.24652 21.80772 19.18761 19.98141 17.26511 19.98141" style="fill:#5c2f17;"/><polygon points="20.68035 19.98141 21.66176 21.80772 22.60285 19.98141 20.68035 19.98141" style="fill:#5c2f17;"/></g></g><g><polygon points="17.81512 25.83374 15.11743 27.40234 17.26514 32.63794 20.01147 29.0166 17.81512 25.83374" style="fill:#f0f3f6;"/><polygon points="22.22284 25.83374 20.02643 29.0166 22.77283 32.63794 24.92047 27.40234 22.22284 25.83374" style="fill:#f0f3f6;"/></g></g><rect width="40" height="40" style="fill:none;"/></svg>