<?xml version="1.0" encoding="UTF-8"?><svg id="Layer_1" xmlns="http://www.w3.org/2000/svg" viewBox="0 0 40 40"><g><path d="M34.51842,17.77052c0-8.01832-6.50013-14.51845-14.51845-14.51845S5.48152,9.7522,5.48152,17.77052c0,1.1244,.14021,2.21403,.38214,3.26497,.26478,8.72652,6.4834,15.71244,14.13631,15.71244s13.87179-6.98605,14.13638-15.7127c.24186-1.05088,.38207-2.14045,.38207-3.26471Z" style="fill:#6e4944;"/><g><ellipse cx="8.20499" cy="21.23164" rx="5.66919" ry="5.31719" style="fill:#6e4944;"/><ellipse cx="31.79501" cy="21.23164" rx="5.66919" ry="5.31719" style="fill:#6e4944;"/></g><ellipse cx="16.02139" cy="20.14897" rx="1.50705" ry="1.80846"/><ellipse cx="23.97861" cy="20.14897" rx="1.50705" ry="1.80846"/><path d="M21.8747,28.20743c.33869,0,.57929,.32538,.48944,.65193-.28549,1.03762-1.2358,1.79982-2.36413,1.79982s-2.07864-.76221-2.36413-1.79982c-.08985-.32656,.15075-.65193,.48944-.65193h3.74939Z" style="fill:#5c2f17;"/></g><rect width="40" height="40" style="fill:none;"/></svg>