<svg id="Layer_1" data-name="Layer 1" xmlns="http://www.w3.org/2000/svg" viewBox="0 0 40 40"><defs><style>.cls-1{fill:#de9740;}.cls-2{fill:#a36c29;}.cls-3{fill:none;}</style></defs><path class="cls-1" d="M6.3,33.991l-.55-.56A13.086,13.086,0,0,1,6.2,14.661l9.829-9.093a13.086,13.086,0,0,1,18.227.441h0a13.085,13.085,0,0,1,.094,18.232L25.069,33.9A13.085,13.085,0,0,1,6.3,33.991Z"/><ellipse class="cls-2" cx="13.804" cy="23.151" rx="1.261" ry="4.312" transform="translate(-12.327 16.542) rotate(-45)"/><ellipse class="cls-2" cx="24.792" cy="12.869" rx="1.009" ry="3.45" transform="translate(-1.838 21.3) rotate(-45)"/><ellipse class="cls-2" cx="20.964" cy="23.151" rx="1.135" ry="3.881" transform="translate(-10.23 21.605) rotate(-45)"/><rect class="cls-3" width="40" height="40"/></svg>