<?xml version="1.0" encoding="UTF-8"?><svg id="Layer_1" xmlns="http://www.w3.org/2000/svg" viewBox="0 0 40 40"><g><path d="m8.762,22.452c-.161-2.887-.421-14.706,5.914-17.482,0,0,1.988-2.881,6.424-2.42,4.436.461,7.824,3.878,8.959,6.971.845,2.304,1.682,7.183,1.549,12.836-.015.659-.371,1.261-.935,1.602-1.227.743-4.065,1.694-10.553,1.694-6.709,0-9.455-1.016-10.569-1.769-.477-.323-.757-.858-.79-1.433Z" fill="#523725"/><path d="m22.208,26.226v-.154s.001,0,.002,0v-1.613c3.04-.81,5.44-3.27,6.25-6.39.5-2.86-1.25-5.31-4.98-5.86-3.91-.58-6.46-3.14-7.27-4.08-.11-.13-.32-.07-.35.1-.19,1.02-.87,3.63-3.01,5.52,0,0-.36.28-.77.81-.59.79-.82,1.79-.65,2.76.6,3.47,3.12,6.26,6.39,7.14v1.778l2.18.969,2.208-.982Z" fill="#c3846c"/><g><ellipse cx="17.391" cy="15.471" rx=".972" ry="1.167"/><ellipse cx="22.524" cy="15.471" rx=".972" ry="1.167"/></g><path d="m21.168,20.596c.218,0,.373.209.315.42-.184.67-.797,1.162-1.525,1.162s-1.342-.492-1.525-1.162c-.058-.21.097-.42.315-.42h2.421Z" fill="#5c2f17"/></g><g><path d="m17.815,26.067c-.082.017-.164.041-.246.06l.246.109v-.169Z" fill="#e3e3e3"/><path d="m22.354,37.5l2.527-10.562-1.062-.403c-.096-.036-.194-.063-.29-.096l-.318,2.713c-.038.32-.361.493-.611.325l-2.599-1.47-2.599,1.47c-.25.167-.574-.005-.611-.325l-.318-2.712c-.096.033-.194.059-.29.096l-1.061.403,2.527,10.562H6.244c-.256,0-.46-.18-.513-.409.052.23.257.409.513.409h27.511c.17,0,.318-.08.413-.201-.095.121-.243.201-.413.201h-11.402Zm-2.342-3.391c-.345,0-.625-.28-.625-.625s.28-.625.625-.625.625.28.625.625-.28.625-.625.625Zm0-2.821c-.345,0-.625-.28-.625-.625s.28-.625.625-.625.625.28.625.625-.28.625-.625.625Z" fill="#e3e3e3"/><path d="m22.208,26.226l.223-.099c-.074-.017-.147-.039-.221-.054,0,0-.001,0-.002,0v.154Z" fill="#e3e3e3"/><path d="m17.401,29.477l2.599-1.47,2.599,1.47c.25.167.574-.005.611-.325l.318-2.713.01-.088c.038-.326-.243-.584-.526-.483l-.583.259-.223.099-2.208.982-2.18-.969-.005-.002-.246-.109-.583-.259c-.283-.101-.564.158-.526.483l.01.088.318,2.712c.038.32.361.493.611.325Z" fill="#333"/><path d="m6.244,37.5h11.402l-2.527-10.562h0l-3.152,1.198c-2.028.771-3.708,2.218-4.772,4.071-.436.76-.713,1.602-.922,2.454l-.539,2.189c-.02.083-.02.165-.003.241.052.229.257.409.513.409Z" fill="#333"/><path d="m34.265,36.849l-.539-2.189c-.12-.487-.266-.969-.448-1.437-.135-.349-.288-.691-.475-1.017-1.064-1.854-2.743-3.301-4.771-4.071l-3.152-1.198h0l-2.527,10.562h11.402c.17,0,.318-.08.413-.201.095-.121.137-.284.097-.449Z" fill="#333"/><path d="m20.011,30.039c-.345,0-.625.28-.625.625s.28.625.625.625.625-.28.625-.625-.28-.625-.625-.625Z" fill="#bdbdbd"/><path d="m20.011,32.86c-.345,0-.625.28-.625.625s.28.625.625.625.625-.28.625-.625-.28-.625-.625-.625Z" fill="#bdbdbd"/></g><rect x="0" y="0" width="40" height="40" fill="none"/></svg>