<?xml version="1.0" encoding="UTF-8"?><svg id="Layer_1" xmlns="http://www.w3.org/2000/svg" viewBox="0 0 40 40"><g><path d="m33.349,36.891l-.504-2.048c-.196-.797-.455-1.584-.863-2.296-.996-1.734-2.567-3.089-4.465-3.81l-3.943-1.498c-.491-.187-.995-.325-1.504-.432v1.663c0,1.13-.92,2.05-2.06,2.05-1.13,0-2.05-.92-2.05-2.05v-1.67c-.519.107-1.033.249-1.534.439l-3.943,1.498c-1.898.721-3.469,2.075-4.465,3.81-.408.712-.667,1.499-.863,2.296l-.504,2.048c-.076.31.158.609.477.609h25.744c.319,0,.553-.299.477-.609Z" fill="#d9d9d9"/><g><g><path d="m23.555,25.094h3.665c.801,0,1.482-.583,1.607-1.373l.521-3.3c-.456.214-.963.347-1.508.35-.84,1.913-2.379,3.449-4.285,4.324Z" fill="#ffdb87"/><path d="m12.16,20.77c-.708-.004-1.364-.208-1.907-.555l.908,3.645c.181.725.832,1.234,1.579,1.234h3.711c-1.905-.869-3.445-2.409-4.29-4.324Z" fill="#ffdb87"/><path d="m11.368,16.156c.082.149.283.183.397.056l5.418-6.063s6.864,5.513,11.394,5.212c.1-.007.215-.041.329-.09.295-.166.544-.466.771-.417.005.001.011-.003.016-.001.09-6.146-5.436-11.115-11.776-9.927-3.959.741-7.128,3.946-7.823,7.914-.125.715-.174,1.42-.152,2.107.002.052.043.097.094.101.002,0,.004.003.006.003.219.002.78.114,1.326,1.107Z" fill="#ffdb87"/></g><path d="m20.01,30.52c1.14,0,2.06-.92,2.06-2.05v-2.84c.517-.13,1.009-.318,1.485-.536,1.906-.875,3.445-2.411,4.285-4.324.545-.003,1.052-.136,1.508-.35,1.125-.529,1.902-1.61,1.902-2.87,0-1.135-.629-2.124-1.573-2.696-.228-.049-.476.251-.771.417-.114.049-.229.083-.329.09-4.53.301-11.394-5.212-11.394-5.212l-5.418,6.063c-.114.127-.314.094-.397-.056-.547-.993-1.107-1.105-1.326-1.107-.002,0-.004-.002-.006-.003-.781.589-1.286,1.488-1.286,2.504,0,1.107.595,2.085,1.503,2.665.544.347,1.199.552,1.907.555.846,1.914,2.385,3.454,4.29,4.324.483.22.984.409,1.51.536v2.84c0,1.13.92,2.05,2.05,2.05Z" fill="#ffb582"/><g><ellipse cx="17.592" cy="16.896" rx=".912" ry="1.095"/><ellipse cx="22.408" cy="16.896" rx=".912" ry="1.095"/></g><path d="m21.135,21.211c.205,0,.351.197.296.395-.173.628-.748,1.089-1.431,1.089s-1.258-.461-1.431-1.089c-.054-.198.091-.395.296-.395h2.269Z" fill="#5c2f17"/></g><g><path d="m30.761,6.277c-2.354-2.28-6.286-3.777-10.75-3.777s-8.396,1.497-10.75,3.777c-.755.731-1.016,1.838-.631,2.815.428,1.085,1.139,2.08,2.064,2.946v-1.547c0-.276.152-.531.402-.647,2.335-1.092,5.468-1.761,8.916-1.761s6.562.665,8.894,1.75c.25.116.403.372.403.648v1.556c-2.369-1.2-5.658-1.945-9.297-1.945s-6.941.749-9.311,1.954c2.169,2.027,5.53,3.332,9.311,3.332,5.399,0,9.951-2.654,11.382-6.284.385-.977.123-2.084-.631-2.815Zm-7.251-1.587c-.95,1.65-2.65,1.18-2.65,1.18,0,.55-.44,1-.99,1s-1-.45-1-1c-.17.04-1.75.38-2.64-1.18-.11-.18.02-.4.23-.4h1.52c.05,0,.1.01.14.04l1.14.76c.17-.13.38-.21.61-.21s.43.07.6.21l1.14-.76c.05-.03.1-.04.15-.04h1.52c.2,0,.33.22.23.4Z" fill="#242424"/><path d="m29.308,12.035v-1.556c0-.276-.153-.531-.403-.648-2.332-1.085-5.457-1.75-8.894-1.75s-6.582.669-8.916,1.761c-.25.117-.402.372-.402.647v1.557s.005-.002.007-.003c2.37-1.205,5.664-1.954,9.311-1.954s6.928.745,9.297,1.945Z" fill="#fb0"/><path d="m23.28,4.29h-1.52c-.05,0-.1.01-.15.04l-1.14.76c-.17-.14-.37-.21-.6-.21s-.44.08-.61.21l-1.14-.76c-.04-.03-.09-.04-.14-.04h-1.52c-.21,0-.34.22-.23.4.89,1.56,2.47,1.22,2.64,1.18,0,.55.45,1,1,1s.99-.45.99-1c0,0,1.7.47,2.65-1.18.1-.18-.03-.4-.23-.4Z" fill="#fb0"/></g><polygon points="19.936 32.964 17.433 30.432 22.545 30.432 19.936 32.964" fill="#261e18"/><polygon points="18.336 37.5 19.95 31.539 21.574 37.5 18.336 37.5" fill="#261e18"/><path d="m22.066,26.798l-2.059,2.485-2.051-2.485c-.907.145-1.948.601-1.948.601l1.596,4.541c.063.179.276.252.435.148l1.967-1.277,1.96,1.27c.162.105.38.027.438-.158l1.434-4.583s-.893-.386-1.773-.542Z" fill="#f5f5f5"/><path d="m16.426,27.239l-3.943,1.498c-1.898.721-3.469,2.075-4.465,3.81-.408.712-.667,1.499-.863,2.296l-.504,2.048c-.076.31.158.609.477.609h11.213l-1.506-10.395c-.136.045-.274.083-.409.134Z" fill="#333"/><path d="m33.349,36.891l-.504-2.048c-.196-.797-.455-1.584-.863-2.296-.996-1.734-2.567-3.089-4.465-3.81l-3.943-1.498c-.135-.051-.273-.089-.409-.134l-1.506,10.395h11.213c.319,0,.553-.299.477-.609Zm-6.309-2.701c0,.33-.27.6-.6.6s-.6-.27-.6-.6c0,0-1.03.28-1.6-.71-.06-.11.02-.25.14-.25h.92c.03,0,.06.01.09.03l.68.46c.1-.08.23-.13.37-.13s.27.05.37.13l.68-.46c.03-.02.06-.03.09-.03h.92c.12,0,.2.14.14.25-.57.99-1.6.71-1.6.71Z" fill="#333"/><path d="m28.5,33.23h-.92c-.03,0-.06.01-.09.03l-.68.46c-.1-.08-.23-.13-.37-.13s-.27.05-.37.13l-.68-.46c-.03-.02-.06-.03-.09-.03h-.92c-.12,0-.2.14-.14.25.57.99,1.6.71,1.6.71,0,.33.27.6.6.6s.6-.27.6-.6c0,0,1.03.28,1.6-.71.06-.11-.02-.25-.14-.25Z" fill="#fb0"/></g><rect width="40" height="40" fill="none"/></svg>