<?xml version="1.0" encoding="UTF-8"?><svg id="Layer_1" xmlns="http://www.w3.org/2000/svg" viewBox="0 0 40 40"><g><path d="M22.34003,26.72388c0,.14478-.01672,.28564-.04266,.4231,.51288,.1123,1.0213,.25244,1.51746,.44092l3.90747,1.48438-2.51904-4.41113h-.00415c-.86151,.56812-1.82666,.98779-2.85907,1.2373v.82544Z" style="fill:#333;"/><path d="M34.25,37.89014l-.53998-2.19019c-.21002-.84985-.48004-1.68994-.92004-2.44995-1.06-1.8501-2.73999-3.29004-4.76996-4.06006l-.30005-.11987-3.90997-1.48022c-.48999-.18994-1-.32983-1.51001-.43994,.02002-.13989,.04004-.27979,.04004-.42993v-.82007c1.02997-.25,2-.66992,2.85999-1.23999,.77997-.51001,1.47998-1.1499,2.07001-1.86987,1.26996-1.57007,2.02997-3.56006,2.02997-5.72998,0-.15332-.01184-.30371-.01978-.45508-4.15613-.46045-6.2597-2.53174-7.28351-4.11914,2.21191,1.25854,4.81439,2.42432,7.06848,2.57959-.0719-.31372-.15356-.62378-.25519-.92529-1.21002-3.59009-4.60999-6.19019-8.60999-6.19019-3.98999,0-7.37,2.57007-8.60004,6.13013-.31995,.93994-.50995,1.92993-.50995,2.97998,0,2.58984,1.08997,4.91992,2.81995,6.58008,1.08002,1.02979,2.41003,1.78979,3.89001,2.18994v.88989c0,.13989,.01001,.27002,.04004,.40015-.56,.10986-1.12006,.25977-1.65002,.46973l-4.21002,1.6001c-2.02997,.77002-3.70996,2.20996-4.76996,4.06006-.44,.76001-.71002,1.6001-.92004,2.44995l-.53998,2.19019c-.08002,.32983,.16998,.6499,.51001,.6499h4.69v-2.59009c0-1.32007,.92999-2.45996,2.21997-2.72998,4.67999-.95996,9.37-.95996,14.06,0,1.29004,.27002,2.21002,1.40991,2.21002,2.72998v2.59009h4.29999c.34003,0,.59003-.32007,.51001-.6499ZM12.56647,14.09888l4.41339-4.93823c.13867,.10205,.28229,.19971,.43115,.29297,.3725,.2832,.99591,.74219,1.77484,1.27344-2.25323,2.78809-6.61938,3.37183-6.61938,3.37183Z" style="fill:#ffcca8;"/><g><ellipse cx="17.49503" cy="16.60847" rx=".97469" ry="1.16963"/><ellipse cx="22.64139" cy="16.60847" rx=".97469" ry="1.16963"/></g><path d="M21.28068,21.22009c.21905,0,.37466,.21044,.31655,.42164-.18464,.67108-.79926,1.16404-1.52901,1.16404s-1.34437-.49296-1.52901-1.16404c-.05811-.2112,.0975-.42164,.31655-.42164h2.42493Z" style="fill:#5c2f17;"/><path d="M27.2262,33.2229c-4.68665-.96704-9.37335-.96704-14.06,0-1.28949,.26611-2.2171,1.40601-2.2171,2.72266v2.68311H29.44336v-2.68311c0-1.31665-.92767-2.45654-2.21716-2.72266Z" style="fill:#e4e7ea;"/><g><path d="M16.97986,9.16064l-4.41339,4.93823s4.36615-.58374,6.61938-3.37183c-.77893-.53125-1.40234-.99023-1.77484-1.27344-.14886-.09326-.29248-.19092-.43115-.29297Z" style="fill:#333;"/><path d="M29.28021,16.60498l.02026,.00342-.03052-.23853-.11029-.86157-.05609-.43848c-.01257-.00073-.02582-.00366-.03839-.00439-2.25409-.15527-4.85657-1.32104-7.06848-2.57959,1.0238,1.5874,3.12738,3.65869,7.28351,4.11914Z" style="fill:#333;"/></g><path d="M31.25,14.48999s-.15997,5.03003-3.97998,8.30005c1.26996-1.57007,2.02997-3.56006,2.02997-5.72998,0-.68018-.08002-1.3501-.22998-1.98999-2.25-.15015-4.85999-1.33008-7.07001-2.58008-1.06-.59985-2.02002-1.21997-2.81-1.76001-.78003-.53003-1.40997-.98999-1.78003-1.28003-.14996-.09009-.28998-.18994-.42999-.29004l-4.40997,4.94019-1.35999,1.52002c-.08002,.46973-.12,.94995-.12,1.43994,0,2.58984,1.08997,4.91992,2.81995,6.58008-4.34998-2.78027-5.01996-7.76025-5.12-8.91016h-.02997c-.02002-.52002-.01001-1.05005,.03998-1.58984,.35999-3.78027,2.64001-7.05029,5.85004-8.79004,.04999-.27002,.13-.53003,.25-.78003,1.00995-2.17017,4.13995-2.8501,6.98999-1.52002l4.57001,3.01001h-.02002c2.95001,2.08984,4.87,5.5498,4.81,9.42993Z" style="fill:#e4e7ea;"/></g><rect width="40" height="40" style="fill:none;"/></svg>