<?xml version="1.0" encoding="UTF-8"?><svg id="Layer_1" xmlns="http://www.w3.org/2000/svg" viewBox="0 0 40 40"><g><g><g><path d="m37.5,13.267v9.333H2.5v-9.333c0-1.841,1.492-3.333,3.333-3.333h28.333c1.841,0,3.333,1.492,3.333,3.333Z" fill="#e32939"/><path d="m37.5,22.6v9c0,1.841-1.492,3.333-3.333,3.333H5.833c-1.841,0-3.333-1.492-3.333-3.333v-9h35Z" fill="#f56570"/></g><path d="m28.167,9.934h-3v-3.177c0-.105-.085-.19-.19-.19h-9.953c-.105,0-.19.085-.19.19v3.177h-3v-3.177c0-1.759,1.431-3.19,3.19-3.19h9.953c1.759,0,3.19,1.431,3.19,3.19v3.177Z" fill="#4e5968"/></g><rect x="17.153" y="20.058" width="5.694" height="5.694" rx="1.56" ry="1.56" fill="#4e5968"/></g><rect width="40" height="40" fill="none"/></svg>