<?xml version="1.0" encoding="UTF-8"?><svg id="Layer_1" xmlns="http://www.w3.org/2000/svg" viewBox="0 0 40 40"><path d="m27.239,37.5h-14.171c-2.302,0-4.271-1.654-4.669-3.922L3.156,3.68c-.108-.616.366-1.18.991-1.18h31.705c.625,0,1.099.564.991,1.18l-4.936,29.898c-.398,2.268-2.367,3.922-4.669,3.922Z" fill="#c8e1ff"/><path d="m19.966,10.052c-4.779,1.967-8.524,1.897-12.336.732l3.901,22.245c.13.748.777,1.291,1.537,1.291h14.17c.76,0,1.407-.542,1.532-1.259l3.912-23.692c-4.104-1.207-8.142-1.148-12.716.683Z" fill="#fff"/></svg>