<svg id="Layer_1" data-name="Layer 1" xmlns="http://www.w3.org/2000/svg" viewBox="0 0 40 40"><defs><style>.cls-1{fill:#88d7d7;}.cls-2{fill:#956759;}.cls-3{fill:#333;}.cls-4{fill:#076565;}.cls-5{fill:#ef4452;}.cls-6{fill:#17202c;}.cls-7{fill:#f56570;}.cls-8{fill:#374be5;}.cls-9{fill:none;}</style></defs><ellipse class="cls-1" cx="11.02" cy="11.985" rx="5.735" ry="11.571" transform="translate(-5.221 10.848) rotate(-43.396)"/><ellipse class="cls-1" cx="12.372" cy="22.468" rx="9.067" ry="4.494" transform="translate(-11.43 12.911) rotate(-39.284)"/><ellipse class="cls-1" cx="28.98" cy="11.985" rx="11.571" ry="5.735" transform="translate(0.361 24.808) rotate(-46.604)"/><ellipse class="cls-1" cx="27.628" cy="22.468" rx="4.494" ry="9.067" transform="translate(-7.255 29.627) rotate(-50.716)"/><circle class="cls-2" cx="19.856" cy="13.146" r="2.793"/><rect class="cls-2" x="19.636" y="15.482" width="1.129" height="1.359"/><path class="cls-2" d="M18.064,16.984l-7.019,5.339,1.106,1.4,5.424-3.169v3.169l5.488-4.361L25.2,20.549a1.309,1.309,0,0,0,1.828-.608l1.331-2.957L26.786,16.5l-.915,1.54a.5.5,0,0,1-.742.145c-.884-.684-2.885-2.113-4.192-2.113A4.978,4.978,0,0,0,18.064,16.984Z"/><circle class="cls-2" cx="17.29" cy="13.689" r="0.966"/><circle class="cls-2" cx="22.465" cy="13.046" r="0.966"/><path class="cls-3" d="M17.065,13.591a5.207,5.207,0,0,0,2.658-1.732l-1.995-.683A3.979,3.979,0,0,0,17.065,13.591Z"/><path class="cls-3" d="M22.675,13.17a5.253,5.253,0,0,1-2.9-1.367l1.9-.956A4.022,4.022,0,0,1,22.675,13.17Z"/><path class="cls-4" d="M19.034,7.622l-1.827,4.3a.167.167,0,0,0,.174.231l4.683-.575a.168.168,0,0,0,.107-.275Z"/><circle class="cls-5" cx="18.994" cy="7.404" r="0.862"/><circle class="cls-2" cx="27.925" cy="15.939" r="1.455"/><path class="cls-2" d="M12.148,24.217c-.626.5-1.379.678-1.812.245a1.317,1.317,0,0,1,.245-1.813,1.317,1.317,0,0,1,1.812-.245A1.224,1.224,0,0,1,12.148,24.217Z"/><rect class="cls-5" x="27.712" y="11.776" width="0.447" height="3.513"/><polygon class="cls-5" points="29.123 12.6 27.999 12.194 27.027 12.889 27.067 11.695 26.105 10.986 27.253 10.654 27.63 9.52 28.301 10.509 29.496 10.518 28.762 11.461 29.123 12.6"/><ellipse class="cls-2" cx="12.717" cy="23.526" rx="0.552" ry="0.737" transform="translate(-12.911 15.883) rotate(-45)"/><ellipse class="cls-6" cx="19.415" cy="13.481" rx="0.281" ry="0.37" transform="translate(-0.783 1.204) rotate(-3.481)"/><ellipse class="cls-6" cx="20.477" cy="13.345" rx="0.281" ry="0.37" transform="translate(-0.773 1.268) rotate(-3.481)"/><path class="cls-7" d="M13.211,30.416,11.547,28.9l-1.188,1.288-.175-.162a2.107,2.107,0,0,0-2.835-.175.385.385,0,0,0-.048.6l2.847,2.609a.46.46,0,0,0,.649-.028Z"/><path class="cls-7" d="M20.148,33.26l2.252.019,0,1.751h.238a2.107,2.107,0,0,1,2.2,1.8.384.384,0,0,1-.374.474L20.6,37.282a.46.46,0,0,1-.458-.461Z"/><path class="cls-8" d="M23.251,16.69,21.84,16.1l-1.6,2.846-1.576-2.475-1.445.977.045,3.366a2.355,2.355,0,0,1-.61,1.613l-6.02,6.635,2.531,2.3,4.361-4.381a1.135,1.135,0,0,1,1.939.768l.185,6.353,3.417-.007Z"/><rect class="cls-9" width="40" height="40"/></svg>