<svg id="Layer_1" data-name="Layer 1" xmlns="http://www.w3.org/2000/svg" viewBox="0 0 40 40"><defs><style>.cls-1{fill:#5e403b;}.cls-2{fill:#82a48f;}.cls-3{fill:#274030;}.cls-4{fill:#698574;}.cls-5{fill:#dbe5e2;}.cls-6{fill:#17202c;}.cls-7{fill:#3c634b;}.cls-8{fill:none;}</style></defs><path class="cls-1" d="M8.13,36.683H31.87l-4.925-4.632A9.86,9.86,0,0,0,12.73,32.2Z"/><circle class="cls-2" cx="19.483" cy="17.962" r="8.834"/><ellipse class="cls-2" cx="11.421" cy="18.21" rx="3.537" ry="3.317"/><ellipse class="cls-2" cx="27.546" cy="18.21" rx="3.537" ry="3.317"/><path class="cls-2" d="M17.632,25.164H22a0,0,0,0,1,0,0v4.81a2.182,2.182,0,0,1-2.182,2.182h0a2.182,2.182,0,0,1-2.182-2.182v-4.81A0,0,0,0,1,17.632,25.164Z"/><path class="cls-3" d="M13.938,5.993s1.35-3.261,7.126-2.583c8.815,1.144,10.806,8.221,10.806,8.221l-1.949-.3,1.61,3.815c-9.958,1.7-15.679-4.238-15.679-4.238s-.049,1.4-2.246,3.559c-1.292,1.267-3.358,1.337-4.954,1.144C8.652,15.614,7.088,7.889,13.938,5.993Z"/><path class="cls-4" d="M4.51,35.012q.163.156.33.3a5.5,5.5,0,0,0,4.47,1.315,7.023,7.023,0,0,0,2.847-1.176,3.649,3.649,0,0,0,.388-.349,7.687,7.687,0,0,0,1.808-3.01l.653-1.812a2.661,2.661,0,0,0,.059-.581l-1.3-1.155a5.807,5.807,0,0,1-.692.17c-.308.274-.682.045-.778-.368l-.228-.922H11.9l-9.655,2.9.075.458A7.761,7.761,0,0,0,4.51,35.012Z"/><rect class="cls-2" x="6.848" y="25.326" width="2.631" height="4.715" rx="1.315" transform="translate(-5.154 2.078) rotate(-11.049)"/><rect class="cls-2" x="9.411" y="24.826" width="2.631" height="4.715" rx="1.315" transform="translate(-5.011 2.56) rotate(-11.049)"/><rect class="cls-2" x="11.978" y="28.313" width="2.631" height="3.981" rx="1.315" transform="translate(25.321 -0.524) rotate(45)"/><rect class="cls-2" x="4.309" y="25.822" width="2.631" height="4.715" rx="1.315" transform="translate(-5.296 1.6) rotate(-11.048)"/><rect class="cls-2" x="2.172" y="27.908" width="2.546" height="4.562" rx="1.273" transform="translate(-7.901 2.002) rotate(-15.416)"/><path class="cls-4" d="M35.49,35.012q-.164.156-.33.3a5.5,5.5,0,0,1-4.47,1.315,7.023,7.023,0,0,1-2.847-1.176,3.649,3.649,0,0,1-.388-.349,7.687,7.687,0,0,1-1.808-3.01l-.65-1.8a2.753,2.753,0,0,1-.062-.589l1.3-1.155a5.807,5.807,0,0,0,.692.17c.308.274.682.045.778-.368l.228-.922h.17l9.655,2.9-.075.458A7.761,7.761,0,0,1,35.49,35.012Z"/><rect class="cls-2" x="30.521" y="25.326" width="2.631" height="4.715" rx="1.315" transform="translate(57.777 60.955) rotate(-168.951)"/><rect class="cls-2" x="27.958" y="24.826" width="2.631" height="4.715" rx="1.315" transform="translate(52.795 59.472) rotate(-168.952)"/><rect class="cls-2" x="25.391" y="28.313" width="2.631" height="3.981" rx="1.315" transform="translate(67.019 32.847) rotate(135)"/><rect class="cls-2" x="33.061" y="25.822" width="2.631" height="4.715" rx="1.315" transform="translate(62.714 62.424) rotate(-168.951)"/><rect class="cls-2" x="35.282" y="27.908" width="2.546" height="4.562" rx="1.273" transform="translate(63.769 69.009) rotate(-164.584)"/><ellipse class="cls-5" cx="17.147" cy="17.262" rx="1.416" ry="1.851"/><ellipse class="cls-5" cx="21.996" cy="17.262" rx="1.416" ry="1.851"/><circle class="cls-6" cx="21.996" cy="16.778" r="1.184"/><circle class="cls-6" cx="17.147" cy="17.962" r="1.096"/><rect class="cls-7" x="17.411" y="22.627" width="4.931" height="1.595" rx="0.798"/><rect class="cls-8" width="40" height="40"/></svg>