<?xml version="1.0" encoding="UTF-8"?><svg id="Layer_1" xmlns="http://www.w3.org/2000/svg" viewBox="0 0 40 40"><g><g><g><path d="M22.25165,24.22681h3.90424c.85565,0,1.58411-.6225,1.71759-1.46771l.55621-3.52344c-.48792,.22937-1.0296,.37146-1.60968,.37433-.90228,2.04407-2.53833,3.68652-4.56836,4.61682Z" style="fill:#ffdb87;"/><path d="M10.06,19.60999c-.75256-.00372-1.45312-.22223-2.03528-.59296l.96899,3.89111c.19293,.77484,.88879,1.31866,1.68732,1.31866h3.94775c-2.02997-.93256-3.6698-2.57227-4.56879-4.61682Z" style="fill:#ffdb87;"/><path d="M9.21552,14.67517c.08783,.15948,.30249,.19525,.42377,.05951l5.79016-6.479s7.33514,5.89093,12.17621,5.56946c.10663-.00708,.22968-.04407,.35114-.09601,.30786-.17346,.56812-.47821,.80658-.44409,.01154,.00165,.02368-.0058,.0351-.0025,.09662-6.5683-5.80945-11.87762-12.58484-10.60901-4.23114,.79224-7.6178,4.21704-8.36047,8.45715-.13385,.76447-.18542,1.5174-.16205,2.25134,.00183,.05859,.0484,.11005,.10699,.11047l.00299,.00024c.23584,.00256,.83215,.12518,1.41443,1.18243Z" style="fill:#ffdb87;"/></g><path d="M17.09436,28.65417c.37378,.29913,.84076,.48584,1.35565,.48584,.51367,0,.98157-.18585,1.35706-.48383l.84296-2.77118v-1.08502c.55823-.13702,1.08923-.33838,1.60162-.57318,2.03003-.9303,3.66608-2.57275,4.56836-4.61682,.58008-.00287,1.12177-.14496,1.60968-.37433,1.20276-.56549,2.04028-1.72113,2.04028-3.06567,0-1.21606-.68652-2.27374-1.7066-2.88495-.23846-.03412-.49872,.27063-.80658,.44409-.12146,.05194-.24451,.08893-.35114,.09601-4.84106,.32147-12.17621-5.56946-12.17621-5.56946l-5.79016,6.479c-.12128,.13574-.33594,.09998-.42377-.05951-.58228-1.05725-1.17859-1.17987-1.41443-1.18243-.84259,.63-1.39111,1.59106-1.39111,2.67725,0,1.18237,.64197,2.22754,1.61475,2.84705,.58215,.37073,1.28271,.58923,2.03528,.59296,.89899,2.04456,2.53882,3.68427,4.56879,4.61682,.52167,.23962,1.06287,.44415,1.63123,.58319v1.10126l.83435,2.74292Z" style="fill:#ffb582;"/><g><ellipse cx="15.86665" cy="15.46593" rx=".97477" ry="1.16973"/><ellipse cx="21.01347" cy="15.46593" rx=".97477" ry="1.16973"/></g><path d="M19.65263,20.07796c.21907,0,.37469,.21046,.31657,.42168-.18466,.67114-.79933,1.16414-1.52915,1.16414s-1.34449-.493-1.52915-1.16414c-.05812-.21122,.0975-.42168,.31657-.42168h2.42515Z" style="fill:#5c2f17;"/></g><g><path d="M18.26697,32.50885c.02161,.0661,.0722,.09937,.12738,.11639l-.20245-.36328,.07507,.24689Z" style="fill:#5a81ff;"/><path d="M32.70551,36.83435l-.5387-2.18903c-.20953-.85144-.4859-1.69318-.92242-2.45355-1.06396-1.85352-2.7431-3.3006-4.77148-4.07117l-4.21393-1.60089c-.03735-.01422-.07599-.0235-.11346-.03729,.1073,.07819,.19165,.18414,.2157,.31738l1.07627,5.95331c.02694,.14886-.13102,.26221-.26341,.18903l-1.73407-.95837c-.23285-.12872-.52368-.08057-.70264,.11639l-1.92645,2.12018c-.19293,.21234-.52679,.21234-.71973,0l-1.92645-2.12018c-.17896-.19696-.46979-.24512-.70264-.11639l-1.73407,.95837c-.13239,.07318-.29034-.04016-.26343-.18903l1.07623-5.95331c.02533-.14008,.11536-.25189,.23157-.32977-.05005,.01819-.1015,.03076-.15131,.04968l-4.21387,1.60089c-2.02838,.77057-3.70758,2.21765-4.77148,4.07117-.43652,.76044-.71295,1.60217-.92242,2.45361l-.5387,2.18903c-.08142,.33093,.16907,.65057,.50989,.65057h27.51111c.34082,0,.59131-.31964,.50989-.65063Zm-18.00092-1.26898c0,.09406-.06323,.17639-.15411,.20068l-2.79175,.74487c-.12195,.03259-.25037,.03259-.37231,0l-2.79175-.74487c-.09088-.02429-.15411-.10663-.15411-.20068v-.81281c0-.11469,.09296-.2077,.2077-.2077h5.84869c.11469,0,.20764,.09302,.20764,.2077v.81281Z" style="fill:#5a81ff;"/><path d="M17.09436,28.65417l1.09753,3.60779,.20245,.36328c.09344,.02881,.20422-.00446,.24078-.11639l1.17194-3.85266c-.37549,.29797-.84338,.48383-1.35706,.48383-.51489,0-.98187-.18671-1.35565-.48584Z" style="fill:#fff;"/><path d="M14.54083,26.7998l-1.07623,5.95331c-.02692,.14886,.13104,.26221,.26343,.18903l1.73407-.95837c.23285-.12872,.52368-.08057,.70264,.11639l1.92645,2.12018c.19293,.21234,.52679,.21234,.71973,0l1.92645-2.12018c.17896-.19696,.46979-.24512,.70264-.11639l1.73407,.95837c.13239,.07318,.29034-.04016,.26341-.18903l-1.07627-5.95331c-.02405-.13324-.1084-.2392-.2157-.31738-.02844-.02069-.04944-.0498-.08215-.06464l-1.40277-.5675-.01056,.03473-.84296,2.77118-1.17194,3.85266c-.03656,.11194-.14734,.1452-.24078,.11639-.05518-.01703-.10577-.05029-.12738-.11639l-.07507-.24689-1.09753-3.60779-.83435-2.74292-.01855-.06097-1.40271,.5675c-.02643,.01196-.04266,.03638-.06635,.05225-.11621,.07788-.20624,.1897-.23157,.32977Z" style="fill:#374be5;"/><path d="M14.49695,34.54486h-5.84869c-.11475,0-.2077,.09302-.2077,.2077v.81281c0,.09406,.06323,.17639,.15411,.20068l2.79175,.74487c.12195,.03259,.25037,.03259,.37231,0l2.79175-.74487c.09088-.02429,.15411-.10663,.15411-.20068v-.81281c0-.11469-.09296-.2077-.20764-.2077Z" style="fill:#374be5;"/></g><g><path d="M31.2348,25.46704c-.0423-.11279-.16797-.16992-.28076-.12769l-1.81769,.68207c-.99701,.37366-1.80475,1.12799-2.24561,2.09711l-1.57239,3.45642,2.26422,1.02972,1.14496-2.51752c.44086-.9693,1.24866-1.72375,2.24579-2.09747l.85376-.32086c.11279-.04224,.16998-.16797,.12769-.2807l-.71997-1.92108Z" style="fill:#c4c4c4;"/><path d="M25.2027,31.52234c-.29315-.1333-.63892-.0033-.77155,.29022l-2.56342,5.67242h4.25775l1.83545-4.07068c.1319-.29242,.00232-.63647-.28973-.76929l-.08862-.04034-2.26422-1.02972-.11566-.05261Z" style="fill:#333;"/></g><g><path d="M35.63312,24.64716c-.68268-.21051-2.24017-.63593-2.89703-.3623-.85345,.35553-1.25708,1.33557-.90155,2.18909,.35547,.85345,1.33557,1.25708,2.18903,.90155,.65686-.27362,1.45172-1.67889,1.78302-2.31183,.08594-.16412,.00354-.36194-.17346-.4165Zm-2.29437,2.06018c-.4046,.16852-.86914-.02283-1.03766-.42737s.02283-.86908,.42737-1.03766c.40454-.16852,.86914,.02283,1.03766,.42737,.16852,.4046-.02283,.86914-.42737,1.03766Z" style="fill:#ff5543;"/><path d="M32.72845,25.24231c-.40454,.16858-.59589,.63312-.42737,1.03766s.63306,.59589,1.03766,.42737c.40454-.16852,.59589-.63306,.42737-1.03766-.16852-.40454-.63312-.59589-1.03766-.42737Z" style="fill:#fb0;"/></g></g><rect y="-.01502" width="40" height="40" style="fill:none;"/></svg>