<svg id="Layer_1" data-name="Layer 1" xmlns="http://www.w3.org/2000/svg" viewBox="0 0 40 40"><defs><style>.cls-1{fill:#c3846c;}.cls-2{fill:#5c2f17;}.cls-3{fill:#523725;}.cls-4{fill:none;}</style></defs><ellipse class="cls-1" cx="20" cy="21.863" rx="13.15" ry="15.123"/><ellipse class="cls-1" cx="9.047" cy="22.577" rx="5.264" ry="4.938"/><ellipse class="cls-1" cx="30.953" cy="22.577" rx="5.264" ry="4.938"/><ellipse cx="16.305" cy="21.572" rx="1.399" ry="1.679"/><ellipse cx="23.695" cy="21.572" rx="1.399" ry="1.679"/><path class="cls-2" d="M21.741,30.165a.476.476,0,0,1,.454.606,2.277,2.277,0,0,1-4.39,0,.476.476,0,0,1,.454-.606Z"/><path class="cls-3" d="M6.8,22.331a2.882,2.882,0,0,1-.441-1.808,4.288,4.288,0,0,1-1.1-4.868s-1.735-2.087.183-3.608c0,0-.548-2.912,2.192-3.478,0,0-.32-2.781,3.1-2.781a3.726,3.726,0,0,1,4.52-1.522A4.56,4.56,0,0,1,20.836,3.7s2.6-1.217,4.247.522A2.848,2.848,0,0,1,28.69,6.092s3.379.217,3.607,2.651A2.839,2.839,0,0,1,34.581,12.4a3.263,3.263,0,0,1-.137,4.52s.913,2.217-.32,2.956a2.585,2.585,0,0,1-.472,2.669.32.32,0,0,1-.53-.14l-1.975-6.934a4.034,4.034,0,0,0-3.919-2.854H12.9a4.023,4.023,0,0,0-3.962,3.016L7.379,22.236A.317.317,0,0,1,6.8,22.331Z"/><rect class="cls-4" width="40" height="40"/></svg>