<?xml version="1.0" encoding="UTF-8"?><svg id="Layer_1" xmlns="http://www.w3.org/2000/svg" viewBox="0 0 40 40"><g><path d="M28.03285,28.13565l-4.21394-1.60091c-2.46018-.93464-5.1777-.93464-7.63788,0l-4.2139,1.6009c-2.02836,.77059-3.70752,2.21768-4.77147,4.07118-.43651,.76044-.71291,1.60217-.92243,2.45359l-.53866,2.18902c-.08144,.33095,.16908,.65058,.5099,.65058h27.51106c.34082,0,.59134-.31964,.5099-.65058l-.5387-2.18908c-.20952-.8514-.48593-1.69312-.92243-2.45355-1.06395-1.85348-2.7431-3.30056-4.77144-4.07114Z" style="fill:#79a4a2;"/><g><g><path d="M23.87714,24.19775h3.6521c.64203,0,1.20374-.43164,1.36902-1.052l1.07422-4.03174c-.5061,.27441-1.04608,.45728-1.60248,.526-.89966,2.01233-2.50299,3.62708-4.49286,4.55774Z" style="fill:#ffe3a0;"/><path d="M11.64001,19.65991c-.76288-.02222-1.51935-.23328-2.19403-.64062l1.92578,4.33667c.22729,.51184,.7348,.8418,1.29486,.8418h3.45447c-1.98572-.92993-3.58521-2.53394-4.48108-4.53784Z" style="fill:#ffe3a0;"/><path d="M11.24579,14.69763l5.74359-6.42688s7.07178,6.03259,11.91077,5.93762l1.44269-1.3053c-.13556-6.10596-5.43805-11.01465-11.7099-10.34106-1.76508,.18945-3.40417,.82495-4.80255,1.78943-2.50574,1.72815-4.23822,4.51233-4.5365,7.67957-.02802,.29749-.01898,.5874-.02277,.88l1.97467,1.78662Z" style="fill:#ffe3a0;"/></g><path d="M31.15997,12.16992l-.81995,.72998-1.44,1.31006c-4.84003,.09009-11.91003-5.93994-11.91003-5.93994l-5.73999,6.42993-1.97998-1.79004-.82001-.73999c-1.66998,1.84009-1.52002,4.68005,.32001,6.3501,.21265,.19189,.4397,.35657,.67596,.49927,.67468,.40735,1.43115,.61841,2.19403,.64062,.89587,2.00391,2.49536,3.60791,4.48108,4.53784,.5412,.25342,1.10565,.46667,1.69891,.6123v2.02991c0,1.21008,.97998,2.19006,2.19,2.19006,1.20996,0,2.20001-.97998,2.20001-2.19006v-2.03992c.58197-.14331,1.13544-.35376,1.66711-.60229,1.98987-.93066,3.5932-2.54541,4.49286-4.55774,.5564-.06873,1.09637-.25159,1.60248-.526,.30347-.16455,.59766-.35413,.86755-.59399,1.83997-1.67004,1.97998-4.51001,.31995-6.3501Z" style="fill:#ffc84d;"/><g><ellipse cx="17.42658" cy="15.48097" rx=".97477" ry="1.16973"/><ellipse cx="22.57339" cy="15.48097" rx=".97477" ry="1.16973"/></g><path d="M21.22406,19.68172c.21907,0,.37469,.21046,.31657,.42168-.18466,.67114-.79933,1.16414-1.52915,1.16414s-1.34449-.493-1.52915-1.16414c-.05812-.21122,.0975-.42168,.31657-.42168h2.42515Z" style="fill:#5c2f17;"/></g><path d="M7.19555,32.20654c-.43652,.76074-.71289,1.60254-.92236,2.45361l-.53857,2.18896c-.08154,.33105,.16895,.65088,.50977,.65088H14.46753c-.3418-3.479-1.47754-6.61475-3.1582-9.08105-1.73242,.81543-3.16748,2.13916-4.11377,3.7876Z" style="fill:#37605f;"/><path d="M32.80444,32.20654c.43652,.76074,.71289,1.60254,.92236,2.45361l.53857,2.18896c.08154,.33105-.16895,.65088-.50977,.65088h-8.22314c.3418-3.479,1.47754-6.61475,3.1582-9.08105,1.73242,.81543,3.16748,2.13916,4.11377,3.7876Z" style="fill:#37605f;"/><rect x="8.78295" y="10.19504" width="22.03925" height="1.25388" rx=".62694" ry=".62694" style="fill:#a2c2c3;"/><rect x="18.88922" y="32.51745" width="2.24453" height="2.24453" rx=".34093" ry=".34093" transform="translate(29.6481 -4.29742) rotate(45)" style="fill:#ccdfe3;"/></g><rect width="40" height="40" style="fill:none;"/></svg>