<svg id="Layer_1" data-name="Layer 1" xmlns="http://www.w3.org/2000/svg" viewBox="0 0 40 40"><defs><style>.cls-1{fill:#ffc84d;}.cls-2{fill:#ff9000;}.cls-3{fill:none;}</style></defs><path class="cls-1" d="M14.636,13.822,3.587,25.369c-.029-.058-.058-.107-.087-.163V36.034h33V23.344C27.649,23.578,14.636,13.822,14.636,13.822Z"/><path class="cls-2" d="M4.444,21.476a16.724,16.724,0,0,1,15.7-10.227,16.709,16.709,0,0,1,15.766,10.4l.593-.112V14.11a3.276,3.276,0,0,0-.559-1.874,19.786,19.786,0,0,0-18.3-8.165A19.558,19.558,0,0,0,4.262,11.3,3.476,3.476,0,0,0,3.5,13.462v8.13A7.853,7.853,0,0,1,4.444,21.476Z"/><path class="cls-2" d="M35.838,21.476a16.726,16.726,0,0,0-15.7-10.227,16.724,16.724,0,0,0-15.7,10.227,7.853,7.853,0,0,0-.944.116v3.614c.029.056.058.105.087.163L14.636,13.822S27.649,23.578,36.5,23.344v-1.8Q36.175,21.495,35.838,21.476Z"/><rect class="cls-3" width="40" height="40"/></svg>