<svg id="Layer_1" data-name="Layer 1" xmlns="http://www.w3.org/2000/svg" viewBox="0 0 40 40"><defs><style>.cls-1{fill:#523725;}.cls-2{fill:#abb7c7;}.cls-3{fill:#c3846c;}.cls-4{fill:#5c2f17;}.cls-5{fill:none;}</style></defs><path class="cls-1" d="M21.229,17.566a6.469,6.469,0,0,1-3.449-1l1.641,6.589a2.941,2.941,0,0,0,2.854,2.231h6.666A15.531,15.531,0,0,1,21.229,17.566Z"/><path class="cls-1" d="M22.341,3H17.548a17.33,17.33,0,0,0-.258,1.73,18.436,18.436,0,0,0-.065,2.512,1.643,1.643,0,0,1,.172-.01c.411,0,1.54.225,2.6,2.411.029.059.059.1.088.163L23.25,6.267,26.169,3Z"/><path d="M29.4,9.337a1.837,1.837,0,0,0-1.649,1.979A1.837,1.837,0,0,0,29.4,13.3a1.837,1.837,0,0,0,1.649-1.979A1.837,1.837,0,0,0,29.4,9.337Z"/><path class="cls-2" d="M35.4,31.611c-.073,0-.143.021-.218.021a3.861,3.861,0,0,1-3.8-3.2,18.485,18.485,0,0,0-2.81.8L21.41,31.958A15.829,15.829,0,0,0,14.58,37H35.4Z"/><path class="cls-3" d="M35.4,26.811h0V22.743a2.677,2.677,0,0,1-2.582-1.967.558.558,0,0,1,.533-.71H35.4V3H26.17L23.25,6.267,20.087,9.806c-.029-.063-.059-.1-.088-.163-1.062-2.186-2.191-2.414-2.6-2.411a5.659,5.659,0,0,0-2.34,4.519,5.724,5.724,0,0,0,2.723,4.816,6.469,6.469,0,0,0,3.449,1A15.487,15.487,0,0,0,31.317,26.25v1.516a3.857,3.857,0,0,0,.067.667h0a3.86,3.86,0,0,0,3.8,3.2c.075,0,.145-.017.218-.022V28.06h0ZM29.4,13.3a1.837,1.837,0,0,1-1.649-1.978A1.837,1.837,0,0,1,29.4,9.337a1.837,1.837,0,0,1,1.649,1.98A1.837,1.837,0,0,1,29.4,13.3Z"/><path class="cls-4" d="M33.352,20.066a.558.558,0,0,0-.533.71A2.678,2.678,0,0,0,35.4,22.743V20.066Z"/><path class="cls-3" d="M10.606,28.979a4.98,4.98,0,0,1,1.743-2.332l3.013-2.206,5.282-3.867a1.263,1.263,0,0,1,1.674.163h0a1.262,1.262,0,0,1,.014,1.694l-3.427,3.85,1.11,1.244a2.275,2.275,0,0,1,.53,1.983l-.726,3.465a3.341,3.341,0,0,1-1.76,2.294L14.8,36.914l-6.729-.89Z"/><polygon class="cls-2" points="16.731 37 7.592 32.115 4.599 37 16.731 37"/><rect class="cls-5" width="40" height="40"/></svg>