<svg id="Layer_1" data-name="Layer 1" xmlns="http://www.w3.org/2000/svg" viewBox="0 0 40 40"><defs><style>.cls-1{fill:#ff9240;}.cls-2{fill:#f5172b;}.cls-3{fill:#fff;}.cls-4{fill:none;}</style></defs><circle class="cls-1" cx="20" cy="20" r="17.5"/><path class="cls-2" d="M14.678,27.764c-.336-.117-.452-.338-.3-.522a.736.736,0,0,1,.175-.114,14.558,14.558,0,0,1,4.53-.991,16.487,16.487,0,0,1,1.971,0,13.253,13.253,0,0,1,4.277.94.751.751,0,0,1,.3.194c.123.178,0,.382-.317.494Z"/><path class="cls-3" d="M29.018,19.243a2.038,2.038,0,0,0-2.84.494L20.5,27.755h5.041l3.976-5.672A2.04,2.04,0,0,0,29.018,19.243Z"/><path class="cls-2" d="M26.678,22.739a.888.888,0,0,0-1.237.215l-3.389,4.8h2.212l2.629-3.78A.887.887,0,0,0,26.678,22.739Z"/><circle cx="24.509" cy="16" r="2.166"/><circle cx="15.491" cy="16" r="2.166"/><rect class="cls-4" width="40" height="40"/></svg>