<svg id="Layer_1" data-name="Layer 1" xmlns="http://www.w3.org/2000/svg" viewBox="0 0 40 40"><defs><style>.cls-1{fill:#333;}.cls-2{fill:#8a94a0;}.cls-3{fill:#333d4b;}.cls-4{fill:#6e4944;}.cls-5{fill:#5c2f17;}.cls-6{fill:none;}</style></defs><path class="cls-1" d="M30.956,9.416a5.1,5.1,0,0,0,3.559,3.531.5.5,0,0,1,.294.823l-2.962,3.293-4.719-4.737Z"/><path class="cls-1" d="M13.368,4.84,10.429,7.174a4.62,4.62,0,0,1-3.3.982h0A.544.544,0,0,0,6.57,8.9l.808,2.019L5.216,12.561a.789.789,0,0,0,.048,1.289l3.252,2.111,3.705-.6Z"/><path class="cls-2" d="M28.782,28.039l-4.257-1.618a10.868,10.868,0,0,0-7.717,0l-4.257,1.618A9.407,9.407,0,0,0,7.73,32.152,9.522,9.522,0,0,0,6.8,34.631l-.544,2.212a.53.53,0,0,0,.515.657h27.8a.531.531,0,0,0,.516-.657l-.545-2.212a9.044,9.044,0,0,0-5.753-6.592Z"/><path class="cls-3" d="M32.508,24.821l-11.83.892-12.2-.895a1.026,1.026,0,0,0-1.042,1.368L11.458,37.5H29.534l4.019-11.311A1.028,1.028,0,0,0,32.508,24.821Z"/><path class="cls-2" d="M27.128,25.236a6.632,6.632,0,0,1-13.264,0l6.632.479Z"/><path class="cls-4" d="M22.9,25.769V23.536H18.459v2.233a2.219,2.219,0,0,0,2.215,2.219h0A2.218,2.218,0,0,0,22.9,25.769Z"/><circle class="cls-4" cx="20.667" cy="15.701" r="9.255"/><ellipse class="cls-4" cx="12.221" cy="15.961" rx="3.705" ry="3.475"/><ellipse class="cls-4" cx="29.112" cy="15.961" rx="3.705" ry="3.475"/><path class="cls-5" d="M21.892,20.168a.335.335,0,0,1,.32.426,1.6,1.6,0,0,1-3.09,0,.334.334,0,0,1,.319-.426Z"/><path class="cls-1" d="M9.056,11.172l2.423,2.308s3.646-1.295,4.765-2.694c1.144-1.431,4.34-4.02,8.007-2.861L26.24,12.3,28.7,13.459a1.3,1.3,0,0,0,1.114-.845l1.241-1.854A3.773,3.773,0,0,0,28.44,6.825h0s-1.568-5.143-9.561-4.212S10.764,10.1,10.764,10.1l-1.531.49A.372.372,0,0,0,9.056,11.172Z"/><path class="cls-3" d="M20.165,13.8,11.44,11.1a.762.762,0,0,0-.86,1.152c1.522,2.273,4.288,5.957,6.327,6.13A3.526,3.526,0,0,0,20.24,16.98a.545.545,0,0,1,.876,0,3.527,3.527,0,0,0,3.333,1.406c2.056-.174,4.615-3.995,5.985-6.312a.762.762,0,0,0-.9-1.112l-8.348,2.82A1.66,1.66,0,0,1,20.165,13.8Z"/><ellipse class="cls-4" cx="17.377" cy="15.365" rx="2.269" ry="1.698"/><ellipse class="cls-4" cx="23.717" cy="15.365" rx="2.269" ry="1.698"/><ellipse cx="17.953" cy="15.365" rx="0.985" ry="1.182"/><ellipse cx="23.382" cy="15.365" rx="0.985" ry="1.182"/><path class="cls-1" d="M21.933,18.7a1.177,1.177,0,0,0-1.2.315.077.077,0,0,1-.113,0,1.179,1.179,0,0,0-1.2-.315c-.518.14-1.671,1.084-3.129.189a.079.079,0,0,0-.115.1c.3.676,1.419,2.51,4.471,1.347a.077.077,0,0,1,.056,0c3.053,1.163,4.173-.671,4.471-1.347a.079.079,0,0,0-.115-.1C23.6,19.788,22.451,18.844,21.933,18.7Z"/><rect class="cls-6" width="40" height="40"/></svg>