<?xml version="1.0" encoding="UTF-8"?><svg id="Layer_1" xmlns="http://www.w3.org/2000/svg" viewBox="0 0 40 40"><g><path d="m30.08,20.43c0,1.32-1.04,2.42-2.38,2.63-.73,1.9-2.13,3.36-3.9,4.06-.13.05-.25.13-.35.23-.11.11-.27.21-.46.3v1.23c0,.91-.75,1.65-1.66,1.65s-1.66-.74-1.66-1.65v-1.2c-.23-.11-.41-.22-.53-.35-.11-.11-.23-.21-.38-.27-1.69-.72-3.06-2.13-3.8-4-1.35-.21-2.38-1.31-2.38-2.63,0-1.2.85-2.23,2.03-2.56.76-3.28,3.32-5.73,6.43-5.84,3.25-.11,6.06,2.37,6.91,5.82,1.22.29,2.13,1.34,2.13,2.58Z" fill="#956759"/><ellipse cx="18.973" cy="21.069" rx=".737" ry=".884"/><ellipse cx="23.636" cy="21.069" rx=".737" ry=".884"/><ellipse cx="21.416" cy="12.227" rx="3.164" ry="1.91" fill="#d0d5da"/><path d="m21.882,25.54c.228,0,.405.116.349.235-.114.242-.417.413-.926.413s-.813-.171-.926-.413c-.056-.12.12-.235.349-.235h1.155Z" fill="#5c2f17"/><path d="m19.946,24.542s-.822.15-1.107,1.449" fill="none" stroke="#6e4a3d" stroke-linecap="round" stroke-linejoin="round" stroke-width=".312"/><circle cx="18.569" cy="21.129" r="2.115" fill="none" stroke="#fff" stroke-miterlimit="10" stroke-width=".366"/><circle cx="24.04" cy="21.129" r="2.115" fill="none" stroke="#fff" stroke-miterlimit="10" stroke-width=".366"/><path d="m20.685,21.129s.628-.491,1.24,0" fill="none" stroke="#fff" stroke-miterlimit="10" stroke-width=".366"/><g><path d="m33.139,36.773l-.446-1.812c-.173-.705-.402-1.402-.764-2.031-.881-1.534-2.271-2.732-3.95-3.37l-1.875-.712,1.875.713c.094.036.177.091.27.13l-1.614,7.622h-10.15l-2.036-7.641c-1.572.658-2.881,1.798-3.72,3.259-.361.629-.59,1.326-.764,2.031l-.446,1.812c-.067.274.14.539.422.539h22.775c.282,0,.49-.265.422-.539Z" fill="#5e403b"/><path d="m18.262,37.312l-.895-8.773-.347.132-2.341.89c-.074.028-.14.069-.212.102-.006.003-.012.006-.018.009l2.036,7.641h1.776Z" fill="#ffc84d"/><path d="m26.635,37.312l1.614-7.622c-.092-.039-.176-.094-.27-.13l-1.875-.713-.434-.165-.799,8.629h1.763Z" fill="#ffc84d"/><path d="m21.33,37.312h3.542l.799-8.629-1.18-.448c-.127-.048-.258-.085-.386-.127-.369-.121-.741-.224-1.12-.296v1.064c0,.914-.741,1.656-1.656,1.656s-1.656-.741-1.656-1.656v-1.064c-.465.088-.924.216-1.373.379-.044.016-.089.027-.133.044l-.801.304.895,8.773h3.068Z" fill="#8a94a0"/></g><g><polygon points="15.118 19.548 16.026 18.671 14.397 18.671 15.118 19.548" fill="#d0d5da"/><polygon points="26.742 19.548 27.463 18.671 25.834 18.671 26.742 19.548" fill="#d0d5da"/></g><g><path d="m27.213,12.412l.436,1.653-1.158-4.394c-.139-.526.175-1.065.701-1.204l1.949-.514c.496-.131.585-.796.141-1.052l-7.063-4.081c-.473-.273-1.077-.11-1.348.364l-6.221,10.88,1.601-2.801,10.962,1.148Z" fill="#5e403b"/><path d="m34.147,17.959l-6.498-3.894h-12.999l-6.146,3.899c-.324.205-.178.707.205.707h25.241c.389,0,.53-.512.197-.712Z" fill="#5e403b"/><polygon points="27.213 12.412 16.251 11.264 14.65 14.065 27.649 14.065 27.213 12.412" fill="#be958d"/></g><g><path d="m15.095,37.312l-3.65-7.464-.552-.016c-.128-.004-.25.056-.325.159l-.326.445,3.362,6.876h1.49Z" fill="#949494"/><path d="m10.893,29.832l.552.016,1.476.043c.322.01.516-.355.327-.616l-1.186-1.645c-.075-.104-.094-.238-.051-.359l.683-1.91c.109-.304-.178-.6-.485-.501l-1.931.62c-.122.039-.255.016-.357-.062l-1.605-1.24c-.255-.197-.626-.016-.627.307l-.007,2.028c0,.128-.064.248-.17.32l-1.675,1.144c-.266.182-.208.59.098.691l1.927.634c.122.04.216.137.252.26l.57,1.946c.091.31.497.381.687.12l.872-1.191.326-.445c.076-.103.197-.163.325-.159Z" fill="#ffc450"/></g></g><rect width="40" height="40" fill="none"/></svg>