<?xml version="1.0" encoding="UTF-8"?><svg id="a" xmlns="http://www.w3.org/2000/svg" viewBox="0 0 40 40"><g><g><circle id="b" cx="20" cy="20" r="17.5" fill="#ffe63b"/><path d="M8.359,6.986c-.497,.444-.967,.914-1.41,1.411,2.074,2.489,8.474,11.786-.071,23.183,.445,.506,.92,.983,1.42,1.434,9.694-12.676,2.257-23.366,.061-26.027Z" fill="#ffad00"/><path d="M33.122,31.58c-8.546-11.396-2.146-20.694-.072-23.183-.443-.497-.913-.967-1.41-1.411-2.196,2.661-9.633,13.351,.061,26.027,.5-.451,.975-.928,1.42-1.434Z" fill="#ffad00"/></g><rect width="40" height="40" fill="none"/></g><line x1="11.201" y1="20" x2="13.156" y2="20" fill="none" stroke="#fa2d4c" stroke-linecap="round" stroke-miterlimit="10" stroke-width="2"/><line x1="10.584" y1="15.312" x2="12.473" y2="14.806" fill="none" stroke="#fa2d4c" stroke-linecap="round" stroke-miterlimit="10" stroke-width="2"/><line x1="8.774" y1="10.944" x2="10.468" y2="9.966" fill="none" stroke="#fa2d4c" stroke-linecap="round" stroke-miterlimit="10" stroke-width="2"/><line x1="10.584" y1="24.687" x2="12.473" y2="25.194" fill="none" stroke="#fa2d4c" stroke-linecap="round" stroke-miterlimit="10" stroke-width="2"/><line x1="8.775" y1="29.056" x2="10.468" y2="30.033" fill="none" stroke="#fa2d4c" stroke-linecap="round" stroke-miterlimit="10" stroke-width="2"/><line x1="28.799" y1="20" x2="26.844" y2="20" fill="none" stroke="#fa2d4c" stroke-linecap="round" stroke-miterlimit="10" stroke-width="2"/><line x1="29.416" y1="15.312" x2="27.527" y2="14.806" fill="none" stroke="#fa2d4c" stroke-linecap="round" stroke-miterlimit="10" stroke-width="2"/><line x1="31.226" y1="10.944" x2="29.532" y2="9.966" fill="none" stroke="#fa2d4c" stroke-linecap="round" stroke-miterlimit="10" stroke-width="2"/><line x1="29.416" y1="24.687" x2="27.527" y2="25.194" fill="none" stroke="#fa2d4c" stroke-linecap="round" stroke-miterlimit="10" stroke-width="2"/><line x1="31.225" y1="29.056" x2="29.532" y2="30.033" fill="none" stroke="#fa2d4c" stroke-linecap="round" stroke-miterlimit="10" stroke-width="2"/></svg>