<svg id="Layer_1" data-name="Layer 1" xmlns="http://www.w3.org/2000/svg" viewBox="0 0 40 40"><defs><style>.cls-1{fill:#454545;}.cls-2{fill:#ff9000;}.cls-3{fill:#ffb72d;}.cls-4{fill:none;}</style></defs><polygon class="cls-1" points="22.711 18.066 23.976 17.141 13.738 4.226 12.473 5.151 22.711 18.066"/><path class="cls-2" d="M22.216,25.029,20.538,36.317a.218.218,0,0,0,.215.25h3.625a.215.215,0,0,0,.218-.222,2.547,2.547,0,0,0-.794-1.793.459.459,0,0,1-.158-.46l1.817-6.966Z"/><path class="cls-2" d="M10.208,26.152l1.861,10.236a.218.218,0,0,0,.214.179H15.8a.218.218,0,0,0,.214-.259,3.521,3.521,0,0,0-1.2-2.249.457.457,0,0,1-.227-.367l-.263-9.163Z"/><path class="cls-2" d="M6.642,19.5,1.6,28.835a1.171,1.171,0,0,0,.466,1.583h0a1.172,1.172,0,0,0,1.491-.31l5.836-7.552Z"/><line class="cls-1" x1="21.119" y1="19.499" x2="21.119" y2="20.498"/><path class="cls-3" d="M37.935,8.673H35.787a.987.987,0,0,1-.9-.584,3.183,3.183,0,0,0-2.424-1.947c-2.117-.31-5.01-1.033-6.87,2.531s-2.221,5.734-6.095,5.785-6.87-.413-8.988.414a7.252,7.252,0,0,0-4.132,6.611c.047,2.8-.82,13.18-.962,14.855a.212.212,0,0,0,.217.229H8.725a.214.214,0,0,0,.216-.184A1.956,1.956,0,0,0,8.2,34.441a.443.443,0,0,1-.213-.46c.327-1.586,2.2-8.675,9.446-8.675,7.538,0,8.863,9.606,9.021,11.073a.212.212,0,0,0,.216.188h3.837a.213.213,0,0,0,.218-.2,2.6,2.6,0,0,0-1.181-2.548.458.458,0,0,1-.269-.335l-1.08-6.853a5.556,5.556,0,0,1,.275-2.784l3.09-8.4a1.958,1.958,0,0,1,1.63-1.271c1.774-.193,5.355-.875,5.355-3.281V9.281A.608.608,0,0,0,37.935,8.673Z"/><path class="cls-1" d="M24.345,11.183l7.079,4.632-.808,2.2-7.373-5.059C23.448,12.708,24.163,11.481,24.345,11.183Z"/><path class="cls-1" d="M21.119,20.5a22.9,22.9,0,0,0,.891,6.354,10.5,10.5,0,0,0-2.072-1.143,30.327,30.327,0,0,1-.163-11.258,15.659,15.659,0,0,0,1.8-.322,39.155,39.155,0,0,0-.456,5.37"/><path class="cls-1" d="M21.119,20.5c0-.339,0-1.294,0-1.622a43.281,43.281,0,0,0,9.177,0l-.591,1.612a33.467,33.467,0,0,1-4.067.221C24.363,20.709,22.845,20.649,21.119,20.5Z"/><path class="cls-2" d="M29.905,12.163c-1.1,1.154-3.34.308-5.005-2.107.212-.435.437-.895.692-1.384A4.689,4.689,0,0,1,30.708,5.9C30.785,8.291,30.71,11.321,29.905,12.163Z"/><circle cx="33.301" cy="9.079" r="0.815"/><path d="M36.827,8.673h1.108a.608.608,0,0,1,.608.608v1.055S36.827,10.258,36.827,8.673Z"/><rect class="cls-4" width="40" height="40"/></svg>