<?xml version="1.0" encoding="UTF-8"?><svg id="Layer_1" xmlns="http://www.w3.org/2000/svg" viewBox="0 0 40 40"><g><g><path d="m36.05,34.49c-.53,0-.98.3-1.22.74-.01-.01-.02-.02-.02-.03v.02c0,.2-1.55.28-2.82.25-.89-.03-1.64-.11-1.64-.25-.91-.07-2.01-.28-3.26-.59l-.24.9c1.38,1.12,2.81,1.95,4.29,2.46v-.03c.02.01.03.01.04.02l-.53.78c1.29.42,2.54.44,3.72,0l-.5-.73c.6-.24,1.05-.63,1.27-1.12.24.22.56.36.91.36.77,0,1.39-.63,1.39-1.39,0-.77-.62-1.39-1.39-1.39Zm0,2.13c-.41,0-.74-.33-.74-.74s.33-.75.74-.75.74.34.74.75-.33.74-.74.74Z" fill="#ffad00"/><path d="m34.81,35.2v.02c0,.2-1.55.28-2.82.25-.89-.03-1.64-.11-1.64-.25,0-.56.74-1.21,1.72-1.39-.06-.1-.11-.21-.11-.34,0-.34.28-.62.62-.62s.62.28.62.62c0,.13-.05.24-.12.34.98.18,1.71.82,1.73,1.37Z" fill="#f77f00"/></g><g><polygon points="15.44 7.49 15.45 7.49 15.44 7.48 15.44 7.49" fill="none"/><path d="m7.768,29.255s-.005-.009-.008-.013c.003.004.005.009.008.013Z" fill="#ffb72d"/><path d="m20.07,26.577s0,0,0,0c-1.256-.366-1.659-1.473-1.781-1.994.116.524.523,1.625,1.78,1.995Z" fill="#ffb72d"/><path d="m6.864,27.312c-.014-.041-.031-.081-.044-.122.013.042.03.081.044.122Z" fill="#ffb72d"/><path d="m7.268,28.325c-.014-.029-.029-.058-.042-.087.014.029.028.058.042.087Z" fill="#ffb72d"/><path d="m9.26,7.49v-.01c1.59-.42,2.72-1.2,3.43-2.3.5,1.05,1.38,1.85,2.75,2.3l.01.01h.31c.04,0,.08.01.12.01,0-.78-.24-1.49-.66-2.08-.42-.58-1.01-1.04-1.7-1.29.72-.12,1.8-.22,3.06-.45,1.44-.27,1.86-1.71,1.98-2.54.03-.19-.2-.29-.34-.17-1.03.86-2.33.47-3.94.77-1.46.26-1.82,1.49-1.9,2.17-.04,0-.06-.01-.1-.01-1.98,0-3.59,1.61-3.59,3.6.03,0,.07-.01.1-.01h.47Z" fill="#e32939"/><path d="m34.29,25.16c-.93-4.01-5.22-4.42-7.65-3.17s-4.3,5.01-6.26,4.68c-.116-.02-.206-.062-.31-.093-1.257-.37-1.665-1.471-1.78-1.995-.037-.167-.049-.282-.049-.282l1.73-1.14c3.13-2.06,3-6.24-.26-8.09l-1.03-.49-2.56-1.24c-1.09-.52-1.47-1.89-.8-2.91l1.12-1.69c.33-.5.01-1.15-.56-1.24-.04,0-.08-.01-.12-.01h-.32v-.01c-1.37-.45-2.25-1.25-2.75-2.3-.71,1.1-1.84,1.88-3.43,2.3v.01h-.47c-.03,0-.07.01-.1.01-.58.08-.91.73-.58,1.24l1.12,1.69c.67,1.02.29,2.39-.8,2.91l-2.56,1.24c-1.68.81-2.8,2.32-3.17,4.02-.4,1.81-.03,4.62,2.36,5.7l1.07.48.41,1.32c.071.374.168.736.28,1.09.013.042.03.081.044.122.105.318.226.626.362.926.013.03.029.058.042.087.148.317.312.622.492.917.003.004.005.009.008.013,2.104,3.438,6.282,5.302,10.432,4.235,0,0,4.15-.95,7.15-6.53,0,0,1.45-3.29,4.41-2.46,2.48.7,1.89,3.75-.14,5.06-1.38.89-3.99,2.23-3.2,4.99,0-.09.05-1.77,3.74-2.96,3.82-1.23,4.84-3.39,4.13-6.43Zm-17.064-7.301l-3.745,1.837c-.768.377-1.658.416-2.456.107l-4.242-1.639,10.442-.306Z" fill="#fa878f"/><path d="m13.482,19.696l3.745-1.837-10.442.306,4.242,1.639c.798.308,1.688.269,2.456-.107Z" fill="#f56570"/></g><g><ellipse cx="11.459" cy="7.871" rx=".365" ry=".493" fill="#17202c"/><ellipse cx="13.084" cy="7.871" rx=".365" ry=".493" fill="#17202c"/></g></g><rect x="0" width="40" height="40" fill="none"/></svg>