<svg id="Layer_1" data-name="Layer 1" xmlns="http://www.w3.org/2000/svg" viewBox="0 0 40 40"><defs><style>.cls-1{fill:#ffc84d;}.cls-2{fill:#f80;}.cls-3{fill:#fff;}.cls-4{fill:none;}</style></defs><circle class="cls-1" cx="20.026" cy="20" r="17.5"/><circle cx="15.448" cy="16.642" r="2.114"/><circle cx="24.605" cy="16.642" r="2.114"/><path class="cls-2" d="M20.026,26.836a12.529,12.529,0,0,1-3.9-.585.5.5,0,0,0-.542.785,5.5,5.5,0,0,0,8.877,0,.5.5,0,0,0-.542-.785A12.531,12.531,0,0,1,20.026,26.836Z"/><path class="cls-3" d="M14.084,21.089s-3.215,3.449-3.215,6.231a3.215,3.215,0,0,0,6.43,0C17.3,24.538,14.084,21.089,14.084,21.089Z"/><rect class="cls-4" width="40" height="40"/></svg>