<svg id="Layer_1" data-name="Layer 1" xmlns="http://www.w3.org/2000/svg" viewBox="0 0 40 40"><defs><style>.cls-1{fill:#ec6700;}.cls-2{fill:#fff;}.cls-3{fill:#573515;}.cls-4{fill:#f77f00;}.cls-5{fill:none;}</style></defs><path class="cls-1" d="M34.1,25.02a4.729,4.729,0,0,0-1.922-6.261l-2.568-1.483a8.062,8.062,0,0,0,.159-5.937,4.7,4.7,0,0,0-7.187-6.02,11.178,11.178,0,0,0-5.17,0,4.7,4.7,0,0,0-7.187,6.02,8.049,8.049,0,0,0,.159,5.937L7.824,18.755A4.733,4.733,0,0,0,5.929,25.08,5.65,5.65,0,0,0,8.07,26.85a.632.632,0,0,1,.092,1.058,4.487,4.487,0,0,0-1.807,4.023,4.608,4.608,0,0,0,6.435,3.835l4.163-1.825a7.785,7.785,0,0,1,6.25,0l3.981,1.746a4.727,4.727,0,0,0,6.031-1.879,4.6,4.6,0,0,0-1.258-5.93.631.631,0,0,1,.076-1.045A5.8,5.8,0,0,0,34.1,25.02Z"/><path class="cls-2" d="M24.179,15.74c0-2.748-1.871-4.049-4.179-4.049s-4.179,1.3-4.179,4.049S17.692,18.164,20,18.164,24.179,18.489,24.179,15.74Z"/><path class="cls-3" d="M22.027,14.6c0-1.119-.907-1.275-2.027-1.275s-2.027.156-2.027,1.275a2.027,2.027,0,1,0,4.054,0Z"/><circle class="cls-3" cx="17.148" cy="10.45" r="1.017"/><circle class="cls-3" cx="22.852" cy="10.45" r="1.017"/><rect class="cls-4" x="15.802" y="21.172" width="8.397" height="8.947" rx="3.277"/><rect class="cls-5" width="40" height="40"/></svg>