<svg id="Layer_1" data-name="Layer 1" xmlns="http://www.w3.org/2000/svg" viewBox="0 0 40 40"><defs><style>.cls-1{fill:#ffc84d;}.cls-2{fill:#ffa01d;}.cls-3{fill:none;}</style></defs><circle class="cls-1" cx="20" cy="19.552" r="17.5"/><circle cx="15.422" cy="16.194" r="2.114"/><circle cx="24.578" cy="16.194" r="2.114"/><path class="cls-2" d="M15.848,23.511a1.172,1.172,0,0,1,.652,1.523l-.748,2.5L17.7,25.825l3.434-3.011a1.171,1.171,0,1,1,1.544,1.76l-3.409,3.04.211.241,4.619-4a1.171,1.171,0,1,1,1.544,1.761L21.258,29.51l.208.243,3.722-3.213A1.171,1.171,0,1,1,26.732,28.3l-4.346,3.862.211.241,2.985-2.567A1.171,1.171,0,0,1,27.126,31.6l-2.96,2.595L21.407,36.61a5.649,5.649,0,0,1-7.96-.669,5.886,5.886,0,0,1-1.31-2.533l0-.005a4.162,4.162,0,0,1-.148-1.453,5.5,5.5,0,0,1,.074-.791A20.849,20.849,0,0,1,13.189,27l1.137-2.839A1.17,1.17,0,0,1,15.848,23.511Z"/><rect class="cls-3" width="40" height="40"/></svg>