<svg id="Layer_1" data-name="Layer 1" xmlns="http://www.w3.org/2000/svg" viewBox="0 0 40 40"><defs><style>.cls-1{fill:#956759;}.cls-2{fill:#6e4944;}.cls-3{fill:#a6988a;}.cls-4{fill:none;}</style></defs><path class="cls-1" d="M4.719,15.165a21.338,21.338,0,0,1,1.827,5.863,12.331,12.331,0,0,0-2.934-.837Z"/><path class="cls-2" d="M6.065,26.648A7.385,7.385,0,0,0,2.5,25.234l1.111-5.043a12.331,12.331,0,0,1,2.934.837A11.406,11.406,0,0,1,6.065,26.648Z"/><path class="cls-1" d="M3.158,30.727a1.032,1.032,0,0,1-1.631-1.069L2.5,25.234a7.385,7.385,0,0,1,3.564,1.414A9.487,9.487,0,0,1,3.158,30.727Z"/><path class="cls-2" d="M7.809,21.866v9.3a.44.44,0,0,0,.441.441h1.831a.5.5,0,0,0,.49-.412l1.455-8.363Z"/><path class="cls-2" d="M26.486,22.405s1.127,4.164,2.425,7.533a.518.518,0,0,1-.28.666l-1.032.447a.506.506,0,0,1-.642-.214l-3.611-6.35Z"/><path class="cls-1" d="M38.353,17.72l-3.711-3.045-3.149-3.72c-.809-.8-1.495-1.8-2.753.318l-.553.877a.872.872,0,0,1-.978.377c-.955-.274-3.138-.935-7.494-2.411-1.929-.653-5.76-3.065-10.663-.712S3.521,15.915,6.463,20.23c2.662,3.9,6.769,10.057,7.527,11.192a.411.411,0,0,0,.349.183H15.9a.364.364,0,0,0,.348-.469L15.1,27.343a2.177,2.177,0,0,1,.058-1.386c1.46-4.1,7.622-3.354,7.917.985,0,.037,0,.075.007.113v4.212a.338.338,0,0,0,.338.338h1.506a.334.334,0,0,0,.338-.324c.057-1.911.509-11.654,3.8-12.5A23.5,23.5,0,0,1,37.2,18.66a.876.876,0,0,0,.9-.462Z"/><path class="cls-3" d="M27.182,20.623s3.484-6.889,6.333-6.466,1.1,4.246,1.1,4.246S29.438,19.239,27.182,20.623Z"/><circle cx="33.384" cy="15.815" r="0.857"/><path class="cls-2" d="M38.051,16.752l-1.082-.166,1.18,1.526.284-.537A.569.569,0,0,0,38.051,16.752Z"/><rect class="cls-4" width="40" height="40"/></svg>