<?xml version="1.0" encoding="UTF-8"?><svg id="Layer_1" xmlns="http://www.w3.org/2000/svg" viewBox="0 0 40 40"><g><path d="M10.02576,37.14752c.14874,.4986,.85956,.4986,1.0083,0l.69885-2.34241c-1.05908-.54553-2.05707-1.18884-2.9801-1.92432l1.27295,4.26672Z" style="fill:#9cc0ff;"/><path d="M31.86713,32.35345l.53406,2.27686c.12628,.53845,.89789,.53845,1.02417,0l1.26312-5.38507c-.81555,1.14417-1.76385,2.18463-2.82135,3.10822Z" style="fill:#9cc0ff;"/><path d="M25.18719,38.57544c.14874,.4986,.85956,.4986,1.0083,0l.96716-3.24176c-.85748,.37012-1.75427,.6618-2.67499,.89703l.69952,2.34473Z" style="fill:#9cc0ff;"/><path d="M24.52045,31.91467c.14874,.4986,.85956,.4986,1.0083,0l1.2793-4.28796h-3.56689l1.2793,4.28796Z" style="fill:#9cc0ff;"/><path d="M34.68848,29.24524c2.07849-2.91589,3.31152-6.46832,3.31152-10.31311C38,9.05646,29.9411,1.0506,20,1.0506S2,9.05646,2,18.93213c0,5.64526,2.63983,10.67151,6.75281,13.94867,.92303,.73547,1.92102,1.37878,2.9801,1.92432,2.47723,1.276,5.284,2.00854,8.26709,2.00854,1.55243,0,3.0506-.21588,4.48767-.58295,.92072-.23523,1.8175-.52692,2.67499-.89703,1.72888-.74622,3.30817-1.76086,4.70447-2.98022,1.0575-.92358,2.0058-1.96405,2.82135-3.10822Zm-7.88043-1.61853l-1.2793,4.28796c-.14874,.4986-.85956,.4986-1.0083,0l-1.2793-4.28796h3.56689Z" style="fill:#73a6ff;"/><rect x="9.85636" y="20.79222" width="20.28729" height="6.83452" rx="3.33041" ry="3.33041" style="fill:#fff;"/><ellipse cx="15.62124" cy="14.87148" rx="1.83399" ry="2.45667"/><ellipse cx="24.37876" cy="14.87148" rx="1.83399" ry="2.45667"/><polygon points="30.14581 23.79107 26.11275 23.79107 26.11275 20.79205 25.27061 20.79205 25.27061 23.79107 20.66139 23.79107 20.66139 20.79205 19.81925 20.79205 19.81925 23.79107 15.20901 23.79107 15.20901 20.79205 14.36686 20.79205 14.36686 23.79107 9.85727 23.79107 9.85727 24.62665 14.36686 24.62665 14.36686 27.62669 15.20901 27.62669 15.20901 24.62665 19.81925 24.62665 19.81925 27.62669 20.66139 27.62669 20.66139 24.62665 25.27061 24.62665 25.27061 27.62669 26.11275 27.62669 26.11275 24.62665 30.14581 24.62665 30.14581 23.79107" style="fill:#768dff;"/></g><rect width="40" height="40" style="fill:none;"/></svg>