<svg id="Layer_1" data-name="Layer 1" xmlns="http://www.w3.org/2000/svg" viewBox="0 0 40 40"><defs><style>.cls-1{fill:none;}.cls-2{fill:#5f706a;}.cls-3{fill:#873f46;}.cls-4{fill:#a35058;}.cls-5{fill:#cf656f;}</style></defs><rect class="cls-1" width="40" height="40"/><path class="cls-2" d="M15.745,37.355l-1.719-1.023a7.963,7.963,0,0,0,.1-7.946L7.811,17.111A9.324,9.324,0,0,1,23.644,7.293L25.1,9.43l-1.652,1.128-1.46-2.137A7.324,7.324,0,0,0,9.556,16.133l6.318,11.275A9.971,9.971,0,0,1,15.745,37.355Z"/><path class="cls-3" d="M18.62,18.253c-.58-4.175,2.629-8.072,7.167-8.7s8.687,2.243,9.267,6.419c.432,3.108-3.339,9.354-5.3,12.346a1.791,1.791,0,0,1-2.676.372C24.383,26.343,19.052,21.361,18.62,18.253Z"/><path class="cls-4" d="M20.672,22a7.292,7.292,0,0,1,1.267-10.774,8.72,8.72,0,0,1,11.646.925c2.1,2.367,2.4,9.256,2.413,12.771a1.79,1.79,0,0,1-2.115,1.765C30.218,26.014,22.8,24.4,20.672,22Z"/><path class="cls-5" d="M34.133,19.693A7.291,7.291,0,0,0,29.977,9.672a8.721,8.721,0,0,0-10.953,4.064c-1.375,2.85.213,9.561,1.16,12.946A1.791,1.791,0,0,0,22.7,27.8C26.044,26.159,32.738,22.584,34.133,19.693Z"/><path class="cls-2" d="M10.594,27.281l2.335-.824a.541.541,0,0,1,.7.647L13,29.5A8.9,8.9,0,0,1,6.226,35.94l-1.148.242a.417.417,0,0,1-.5-.46l.148-1.165A8.9,8.9,0,0,1,10.594,27.281Z"/></svg>