<?xml version="1.0" encoding="UTF-8"?><svg id="Layer_1" xmlns="http://www.w3.org/2000/svg" viewBox="0 0 40 40"><g><g><path d="m36.467,32.087V5.933c0-.791-.641-1.433-1.433-1.433H4.966c-.791,0-1.433.641-1.433,1.433v26.154c0,1.885,1.528,3.413,3.413,3.413h26.108c1.885,0,3.413-1.528,3.413-3.413Z" fill="#e5e9ee"/><path d="m4.919,29.639c0,2.395,6.752,3.225,15.081,3.225s15.081-.83,15.081-3.225v-10.813c0-.552-.448-1-1-1H5.919c-.552,0-1,.448-1,1v10.813Z" fill="#f77f00"/><path d="m26.301,12.37l-10.067-1.208c-1.271-.152-2.425.754-2.577,2.025l-.69,5.748c2.592.215,5.372.13,8.255-.093,2.368-.183,4.605-.628,6.751-.949l.353-2.947c.152-1.27-.754-2.425-2.025-2.577Z" fill="#fff"/><path d="m21.183,18.66c-2.883.222-5.506-.805-8.078-.835l-.656,5.429c-.152,1.271.754,2.425,2.025,2.577l10.067,1.208c1.271.152,2.424-.755,2.577-2.025l.854-7.121c-2.145.322-4.421.584-6.789.767Z" fill="#ff9c00"/></g><ellipse cx="20.539" cy="17.825" rx="7.434" ry="1.306" fill="#ffe3a0"/></g><rect y="0" width="40" height="40" fill="none"/></svg>