<svg id="Layer_1" data-name="Layer 1" xmlns="http://www.w3.org/2000/svg" viewBox="0 0 40 40"><defs><style>.cls-1{fill:#3e26b1;}.cls-2{fill:#333;}.cls-3{fill:#956759;}.cls-4{fill:#5c2f17;}.cls-5{fill:#786de7;}.cls-6{fill:#ef3452;}.cls-7{fill:none;}</style></defs><path class="cls-1" d="M28.033,28.136l-4.214-1.6a10.75,10.75,0,0,0-7.638,0l-4.214,1.6A9.312,9.312,0,0,0,7.2,32.207a9.411,9.411,0,0,0-.923,2.453l-.538,2.189a.525.525,0,0,0,.509.651H33.756a.525.525,0,0,0,.509-.651l-.538-2.189a9.411,9.411,0,0,0-.923-2.453A9.312,9.312,0,0,0,28.033,28.136Z"/><path class="cls-2" d="M9.511,18.738l1.043,4.185a1.738,1.738,0,0,0,1.687,1.319H27.716a1.739,1.739,0,0,0,1.717-1.468l.638-4.036Z"/><circle class="cls-3" cx="20" cy="15.924" r="9.16"/><ellipse class="cls-3" cx="11.64" cy="16.181" rx="3.667" ry="3.439"/><ellipse class="cls-3" cx="28.359" cy="16.181" rx="3.667" ry="3.439"/><path class="cls-2" d="M30.358,13.3A10.558,10.558,0,0,0,9.294,12.031a11.826,11.826,0,0,0-.048,1.546s1.133-.656,1.949,1.178l5.794-6.484s7.336,5.891,12.177,5.569a1.13,1.13,0,0,0,.351-.1C29.839,13.562,30.111,13.225,30.358,13.3Z"/><path class="cls-4" d="M21.213,20.093a.331.331,0,0,1,.316.422,1.586,1.586,0,0,1-3.058,0,.331.331,0,0,1,.316-.422Z"/><polygon class="cls-3" points="22.808 30.045 17.215 30.045 17.815 26.059 17.815 23.679 22.208 23.679 22.208 26.064 22.808 30.045"/><polygon class="cls-5" points="22.785 30.045 20 30.045 17.215 30.045 11.921 37.5 20 37.5 28.079 37.5 22.785 30.045"/><path class="cls-6" d="M19.62,13.878c-3.781-2.815-9.14-.163-9.14-.163s2.871,4.618,5.8,4.867a3.493,3.493,0,0,0,3.3-1.389.541.541,0,0,1,.871,0,3.493,3.493,0,0,0,3.3,1.389c2.928-.249,5.8-4.867,5.8-4.867s-5.359-2.652-9.14.163A.647.647,0,0,1,19.62,13.878Z"/><ellipse class="cls-3" cx="16.744" cy="15.591" rx="2.246" ry="1.681"/><ellipse class="cls-3" cx="23.019" cy="15.591" rx="2.246" ry="1.681"/><ellipse cx="17.315" cy="15.591" rx="0.975" ry="1.17"/><ellipse cx="22.688" cy="15.591" rx="0.975" ry="1.17"/><rect class="cls-7" width="40" height="40"/></svg>