<?xml version="1.0" encoding="UTF-8"?><svg id="Layer_1" xmlns="http://www.w3.org/2000/svg" viewBox="0 0 40 40"><rect y="0" width="40" height="40" fill="none"/><g><circle cx="19.849" cy="19.725" r="17.5" fill="#7bd58f"/><g><circle cx="9.03" cy="20.556" r="3.872" fill="#23b169"/><circle cx="30.669" cy="20.556" r="3.872" fill="#23b169"/></g><circle cx="15.471" cy="15.714" r="1.858"/><circle cx="24.097" cy="15.714" r="1.858"/><path d="m19.849,24.175c1.83,0,3.187.328,3.997.6.37.124.656-.334.381-.61-.808-.812-2.508-1.511-4.378-1.511s-3.57.699-4.378,1.511c-.275.276.011.734.381.61.811-.272,2.167-.6,3.997-.6Z" fill="#039133"/><path d="m15.227,10.216c.95-.443,1.397-.917,1.768-1.339.214-.244.518-.131.515.215-.006.749-.468,1.767-1.713,2.347-1.245.58-2.322.281-2.899-.197-.267-.221-.158-.526.166-.533.562-.013,1.213-.05,2.162-.493Z"/><path d="m15.028,24.325c-.472-.936-.959-1.368-1.393-1.726-.25-.206-.147-.514.199-.522.749-.018,1.78.414,2.399,1.64.618,1.226.352,2.312-.107,2.904-.213.274-.521.174-.538-.15-.03-.562-.088-1.21-.56-2.146Z" fill="#039133"/><path d="m24.67,24.325c.472-.936.959-1.368,1.393-1.726.25-.206.147-.514-.199-.522-.749-.018-1.78.414-2.399,1.64-.618,1.226-.352,2.312.107,2.904.213.274.521.174.538-.15.03-.562.088-1.21.56-2.146Z" fill="#039133"/><path d="m24.472,10.216c-.95-.443-1.397-.917-1.768-1.339-.214-.244-.518-.131-.515.215.006.749.468,1.767,1.713,2.347,1.245.58,2.322.281,2.899-.197.267-.221.158-.526-.166-.533-.562-.013-1.213-.05-2.162-.493Z"/></g></svg>