<?xml version="1.0" encoding="UTF-8"?><svg id="Layer_1" xmlns="http://www.w3.org/2000/svg" viewBox="0 0 40 40"><g><path d="M36.0432,11.90503h0c-2.66928-.00781-4.83952,2.14969-4.84742,4.81898h0c-.00789,2.66929-2.17813,4.8268-4.84742,4.81899h0c-2.66928-.00781-4.83952,2.14969-4.84742,4.81898h0c-.00789,2.66929-2.17813,4.8268-4.84742,4.81899h0c-2.66928-.00781-4.83952,2.14969-4.84742,4.81898h0c-.00527,1.78358-2.16431,2.67043-3.42177,1.40554L1.94489,30.92807l.01429-4.83313c.00789-2.66928,2.17813-4.82679,4.84742-4.81898h0c2.66928,.00781,4.83952-2.14969,4.84742-4.81898h0c.00789-2.66929,2.17813-4.8268,4.84742-4.81899h0c2.66928,.00781,4.83952-2.14969,4.84742-4.81898h0c.00789-2.66929,2.17813-4.8268,4.84742-4.81899l4.83313,.01415,6.43942,6.47742c1.25746,1.26488,.35792,3.41866-1.42564,3.41344Z" style="fill:#fa878f;"/><path d="M33.02018,7.73029c-3.28865-.00889-5.97162,2.65834-5.98129,5.9462-.00504,1.97881-1.73484,3.69846-3.71365,3.69186-3.28826-.00928-5.97084,2.65756-5.9809,5.94581-.00601,2.04204-1.672,3.69826-3.71404,3.69225-3.28787-.00967-5.97045,2.65873-5.9809,5.94581-.00192,.72029-.35368,1.94715-.82689,2.88223l1.63949,1.64916c.98068-1.54154,1.44553-3.61477,1.44801-4.52474,.00639-2.04087,1.672-3.6967,3.71365-3.69186,3.28865,.00889,5.97162-2.65834,5.98129-5.9462,.00601-2.04204,1.67317-3.6963,3.71365-3.69186,1.59358,.00508,3.0922-.61148,4.22192-1.73457s1.7543-2.61883,1.75899-4.21125c.00756-2.04047,1.67356-3.69669,3.71404-3.69225,1.10908,.00341,3.06073-.52649,4.37889-1.57618l-1.60641-1.61589c-.79352,.52813-2.04461,.93363-2.76583,.93146Z" style="fill:#ef4452;"/><path d="M9.84578,25.46686c3.28865,.00889,5.97162-2.65834,5.98129-5.9462,.00504-1.97881,1.73484-3.69846,3.71365-3.69186,3.28787,.00811,5.97201-2.65716,5.9809-5.94581,.00504-1.97881,1.73523-3.69885,3.71404-3.69225,1.0924,.00287,3.20128-.35878,4.58047-1.37341l-1.62159-1.63116c-.76771,.42698-2.02049,.74621-2.95223,.74396-1.59358-.00508-3.0922,.61148-4.22192,1.73457-1.12971,1.12309-1.75508,2.61805-1.75938,4.21164-.00601,2.04204-1.67317,3.6963-3.71365,3.69186-1.59358-.00508-3.0922,.61148-4.22192,1.73457-1.12971,1.12309-1.7543,2.61883-1.75899,4.21125-.00756,2.04047-1.67356,3.69669-3.71404,3.69225-1.59241-.00468-3.09181,.61109-4.22192,1.73457-1.12971,1.12309-1.7543,2.61883-1.75645,4.14334-.07709,1.21219-.52173,2.11965-1.03724,2.74111l1.59084,1.60023c.88929-1.00626,1.59119-2.44734,1.70446-4.26678,.00543-1.9792,1.73523-3.69885,3.71365-3.69186Z" style="fill:#ef4452;"/></g><rect width="40" height="40" style="fill:none;"/></svg>