<?xml version="1.0" encoding="UTF-8"?><svg id="Layer_1" xmlns="http://www.w3.org/2000/svg" viewBox="0 0 40 40"><rect width="40" height="40" style="fill:none;"/><g><path d="M20.66461,27.2373c-5.99902,.20386-11.38031-1.85791-14.57721-5.12646-1.39954,3.81567,1.8797,6.20752,10.99548,8.12939,12.83527,3.0166,19.23413-4.09814,17.12134-8.60474-2.90143,3.2063-7.82959,5.40796-13.53961,5.60181Z" style="fill:#ffe199;"/><g><path d="M36.19116,24.00488c0,5.09082-7.12476,9.21777-15.91351,9.21777s-15.91357-4.12695-15.91357-9.21777c0-.91968,.23975-1.8064,.67279-2.64478-.73053,1.2915-1.14545,2.69336-1.14545,4.16528,0,6.29346,7.33636,11.39551,16.38623,11.39551s16.38617-5.10205,16.38617-11.39551c0-1.47192-.41492-2.87378-1.14545-4.16528,.43304,.83838,.67279,1.7251,.67279,2.64478Z" style="fill:#de9740;"/><path d="M6.0874,22.11084c3.1969,3.26855,8.57819,5.33032,14.57721,5.12646,5.71002-.19385,10.63818-2.39551,13.53961-5.60181,.3053-.3374,.58826-.68481,.84698-1.04346,1.31335-1.82056,2.01825-3.89502,1.89868-6.08179-.367-6.71094-8.25336-11.89355-17.61456-11.57568C9.97418,3.25269,2.68298,8.95093,3.05011,15.66162c.10797,1.97412,.88062,3.80957,2.13599,5.41797l.00531,.00732c.27588,.35303,.57385,.69434,.896,1.02393ZM15.82391,10.49292c1.07788,.28174,2.47986,.51343,4.17609,.51343s3.09821-.23169,4.17609-.51343c.87463-.22852,1.49347,.83179,.85999,1.47681-1.08392,1.10376-2.72504,2.16016-5.03607,2.16016s-3.95215-1.0564-5.03607-2.16016c-.63348-.64502-.01465-1.70532,.85999-1.47681Z" style="fill:#de9740;"/></g><g><path d="M20.27765,33.22266c8.78876,0,15.91351-4.12695,15.91351-9.21777,0-.91968-.23975-1.8064-.67279-2.64478-.0296-.05737-.05872-.1145-.09015-.17139-.05096-.09204-.11536-.18018-.17114-.27075-.06702-.10913-.13196-.21875-.20587-.32593-.25873,.35864-.54169,.70605-.84698,1.04346,2.11279,4.50659-4.28607,11.62134-17.12134,8.60474-9.11578-1.92188-12.39502-4.31372-10.99548-8.12939-.32214-.32959-.62012-.6709-.896-1.02393-.01984,.03442-.04517,.06738-.06439,.10181-.03143,.05688-.06055,.11401-.09015,.17139-.43304,.83838-.67279,1.7251-.67279,2.64478,0,5.09082,7.12476,9.21777,15.91357,9.21777Z" style="fill:#a56d3c;"/><path d="M20,14.12988c2.31104,0,3.95215-1.0564,5.03607-2.16016,.63348-.64502,.01465-1.70532-.85999-1.47681-1.07788,.28174-2.47986,.51343-4.17609,.51343s-3.09821-.23169-4.17609-.51343c-.87463-.22852-1.49347,.83179-.85999,1.47681,1.08392,1.10376,2.72504,2.16016,5.03607,2.16016Z" style="fill:#a56d3c;"/></g></g></svg>