<?xml version="1.0" encoding="UTF-8"?><svg id="Layer_1" xmlns="http://www.w3.org/2000/svg" viewBox="0 0 40 40"><g><g><g><path d="m11.62,19.59c-.753-.004-1.453-.222-2.035-.593l.97,3.894c.193.775.889,1.319,1.687,1.319h3.954c-2.033-.932-3.676-2.573-4.576-4.62Z" fill="#523725"/><path d="m23.805,24.21h3.91c.856,0,1.584-.622,1.717-1.468l.557-3.526c-.488.229-1.029.371-1.609.374-.903,2.046-2.542,3.69-4.575,4.62Z" fill="#523725"/><path d="m10.776,14.659c.088.159.302.195.424.06l5.79-6.478s7.334,5.89,12.175,5.569c.107-.007.23-.044.351-.096.311-.175.573-.486.814-.445.009.002.019-.005.028-.002.097-6.568-5.809-11.877-12.584-10.608-4.231.792-7.617,4.217-8.36,8.456-.134.764-.185,1.517-.162,2.251.002.058.048.108.105.11,0,0,0,0,.002,0,.234.002.833.122,1.417,1.183Z" fill="#523725"/></g><path d="m20.011,28.013h.006l2.19-2.101h.002s0-1.133,0-1.133c.556-.136,1.084-.337,1.595-.57,2.033-.93,3.672-2.573,4.575-4.62.58-.003,1.121-.145,1.609-.374,1.203-.565,2.041-1.721,2.041-3.066,0-1.214-.684-2.27-1.7-2.881-.24-.042-.503.269-.814.445-.121.052-.245.089-.351.096-4.841.321-12.175-5.569-12.175-5.569l-5.79,6.478c-.121.136-.336.1-.424-.06-.584-1.061-1.183-1.181-1.417-1.183,0,0,0,0-.002,0-.84.63-1.387,1.59-1.387,2.674,0,1.182.642,2.228,1.615,2.847.582.371,1.283.589,2.035.593.9,2.047,2.543,3.688,4.576,4.62.52.238,1.058.442,1.624.58v1.121l2.191,2.102Z" fill="#c3846c"/><g><ellipse cx="17.427" cy="15.45" rx=".975" ry="1.17"/><ellipse cx="22.573" cy="15.45" rx=".975" ry="1.17"/></g><path d="m21.212,20.061c.219,0,.375.21.317.422-.185.671-.799,1.164-1.529,1.164s-1.344-.493-1.529-1.164c-.058-.211.097-.422.317-.422h2.425Z" fill="#5c2f17"/></g><g><path d="m12.451,37.464l-.852-3.213,2.25-1.397-2.25-1.336.695-3.537,3.888-1.477-4.214,1.601c-2.028.771-3.707,2.218-4.771,4.071-.436.76-.713,1.602-.922,2.453l-.539,2.189c-.081.331.169.651.51.651h9.474v-.003h-3.269Z" fill="#707070"/><path d="m34.264,36.816l-.539-2.189c-.21-.851-.486-1.693-.922-2.453-1.064-1.853-2.743-3.3-4.771-4.071l-.302-.115.694,3.534-2.249,1.336,2.249,1.397-.851,3.21h6.181c.341,0,.591-.32.51-.651Z" fill="#707070"/><polygon points="23.069 31.067 20.011 28.02 20.018 28.013 20.011 28.013 16.954 31.061 18.04 37.464 15.72 37.464 15.72 37.467 15.72 37.47 21.983 37.47 23.069 31.067" fill="#d1d1d1"/><polygon points="16.954 31.061 20.011 28.013 17.82 25.911 17.815 25.907 16.181 26.503 16.954 31.061" fill="#f0f0f0"/><polygon points="20.018 28.013 20.011 28.02 23.069 31.067 23.842 26.509 22.21 25.914 22.208 25.913 20.018 28.013" fill="#f0f0f0"/><polygon points="11.599 31.517 13.848 32.853 11.599 34.251 12.451 37.464 15.72 37.464 18.04 37.464 16.954 31.061 16.181 26.503 12.293 27.98 11.599 31.517" fill="#a3a3a3"/><polygon points="26.175 32.859 28.424 31.523 27.73 27.989 27.73 27.986 23.842 26.509 23.069 31.067 21.983 37.47 24.274 37.47 27.572 37.47 27.573 37.467 28.424 34.257 26.175 32.859" fill="#a3a3a3"/></g></g><rect y="-.03" width="40" height="40" fill="none"/></svg>