<?xml version="1.0" encoding="UTF-8"?><svg id="Layer_1" xmlns="http://www.w3.org/2000/svg" viewBox="0 0 40 40"><g><path d="m36.921,30.896c.459-1.156.719-2.413.719-3.732V10.536c0-4.111-3.168-7.696-7.277-7.819-4.252-.128-7.738,3.281-7.738,7.504,0,4.299-1.449,6.249-1.449,6.249l.522.062c2.469.294,4.082,2.735,3.384,5.121l-3.018,10.323c-.51,1.745-2.226,2.85-4.026,2.592-1.896-.271-3.261-1.961-3.127-3.872l.497-7.137,5.767-7.09-9.781,12.026-2.959,3.638c-1.679,2.065-.21,5.154,2.451,5.154h16.629c.373,0,.741-.023,1.104-.063,3.789-.411,6.943-2.914,8.3-6.328Zm-4.31-23.795c.578,0,1.047.469,1.047,1.047s-.469,1.047-1.047,1.047-1.047-.469-1.047-1.047.469-1.047,1.047-1.047Zm-5.004,0c.578,0,1.047.469,1.047,1.047s-.469,1.047-1.047,1.047-1.047-.469-1.047-1.047.469-1.047,1.047-1.047Zm-.09,7.757s-3.436-1.178-3.436-2.632,1.538-2.632,3.436-2.632h5.148c1.897,0,3.436,1.178,3.436,2.632s-3.436,2.632-3.436,2.632l-2.574-3.397-2.574,3.397Z" fill="#8a94a0"/><g><path d="m8.436,32.134l2.959-3.638-.461-1.668c-.248-.898-1.315-1.275-2.072-.732l-5.871,4.208c-1.125.806-1.186,2.457-.124,3.344l1.897,1.585c1.589,1.328,3.594,2.055,5.664,2.055h.459c-2.661,0-4.131-3.089-2.451-5.154Z" fill="#595959"/><path d="m37.842,34.89l-.908-4.004-.013.01c-1.357,3.415-4.511,5.917-8.3,6.328l-.082.063h7.389c1.259,0,2.193-1.169,1.915-2.397Z" fill="#595959"/><path d="m14.913,30.697c-.133,1.911,1.232,3.6,3.127,3.872,1.8.258,3.515-.847,4.026-2.592l3.018-10.323c.698-2.386-.916-4.827-3.384-5.121l-.522-.062-5.767,7.09-.497,7.137Z" fill="#595959"/><path d="m32.665,14.858s3.436-1.178,3.436-2.632-1.538-2.632-3.436-2.632h-1.527c0,.578-.469,1.047-1.047,1.047s-1.047-.469-1.047-1.047h-1.527c-1.897,0-3.436,1.178-3.436,2.632s3.436,2.632,3.436,2.632l2.574-3.397,2.574,3.397Z" fill="#595959"/></g><g><circle cx="32.611" cy="8.148" r="1.047"/><circle cx="27.607" cy="8.148" r="1.047"/><path d="m30.091,10.642c.578,0,1.047-.469,1.047-1.047h-2.094c0,.578.469,1.047,1.047,1.047Z"/></g></g><rect width="40" height="40" fill="none"/></svg>