<?xml version="1.0" encoding="UTF-8"?><svg id="Layer_1" xmlns="http://www.w3.org/2000/svg" viewBox="0 0 40 40"><g><ellipse cx="20" cy="21.863" rx="13.15" ry="15.123" fill="#c3846c"/><g><ellipse cx="9.047" cy="22.577" rx="5.264" ry="4.938" fill="#c3846c"/><ellipse cx="30.953" cy="22.577" rx="5.264" ry="4.938" fill="#c3846c"/></g><g><ellipse cx="16.305" cy="21.572" rx="1.399" ry="1.679"/><ellipse cx="23.695" cy="21.572" rx="1.399" ry="1.679"/></g><path d="m21.741,30.165c.315,0,.538.302.454.605-.265.964-1.148,1.671-2.195,1.671s-1.93-.708-2.195-1.671c-.083-.303.14-.605.454-.605h3.482Z" fill="#5c2f17"/><path d="m6.802,22.331c-.254-.409-.515-1.032-.44-1.808,0,0-2.329-1.956-1.096-4.868,0,0-1.735-2.086.183-3.608,0,0-.548-2.912,2.192-3.477,0,0-.32-2.782,3.105-2.782,0,0,1.461-2.565,4.521-1.521,0,0,2.237-2.391,5.571-.565,0,0,2.603-1.217,4.247.522,0,0,2.557-.869,3.607,1.869,0,0,3.379.217,3.607,2.651,0,0,2.877.391,2.283,3.651,0,0,2.055,2.304-.137,4.521,0,0,.913,2.217-.32,2.956,0,0,.64,1.54-.472,2.67-.168.171-.464.09-.53-.141l-1.975-6.934c-.48-1.684-2.086-2.854-3.919-2.854h-14.325c-1.899,0-3.545,1.253-3.962,3.017l-1.562,6.607c-.065.274-.428.335-.577.096Z" fill="#523725"/></g><rect width="40" height="40" fill="none"/></svg>