<?xml version="1.0" encoding="UTF-8"?><svg id="Layer_1" xmlns="http://www.w3.org/2000/svg" viewBox="0 0 40 40"><g><g><path d="m34.208,35.361l-13.977-6.129-12.103,5.219-2.505-.396-.561,2.997c-.025.239.162.447.403.447h30.069c0-.941-.525-1.787-1.326-2.139Z" fill="#d1d1d1"/><g><ellipse cx="20.019" cy="21.574" rx="8.505" ry="8.964" fill="#ffcca8"/><circle cx="12.532" cy="22.858" r="2.316" fill="#ffcca8"/><circle cx="27.671" cy="22.779" r="2.316" fill="#ffcca8"/><g><ellipse cx="17.993" cy="21.734" rx=".835" ry="1.002"/><ellipse cx="22.402" cy="21.734" rx=".835" ry="1.002"/></g></g><path d="m28.383,37.5l-1.053-3.138c-.155-.527.146-1.081.673-1.236.191-.056.386-.052.564.001l-.228-.775c-.155-.527.146-1.081.673-1.236h0c.296-.087.6-.03.837.13-.141-.533.179-1.086.724-1.22.52-.128,1.047.193,1.198.708l.118.401c.033-.397.304-.753.71-.872h0c.527-.155,1.081.146,1.236.673l.793,3.173c.01.041.036.076.07.099,0,0,0,0,.001,0,.026.017.062.004.069-.027l.168-.697c.136-.565.705-.912,1.27-.775h0c.565.136.912.705.775,1.27l-.812,3.521h-7.788Z" fill="#ffcca8"/><path d="m22.05,30.995v-1.763h-3.896v1.763l1.651,1.199c.177.129.417.129.594,0l1.651-1.199Z" fill="#ffcca8"/><path d="m21.888,26.609c0,.875-.71,1.585-1.585,1.585s-1.585-.71-1.585-1.585h3.17Z" fill="#ff7d7d"/><path d="m22.192,30.807l-1.927.95c-.098.06-.227.06-.325,0l-1.927-.95c-.191-.116-.45.005-.45.211v2.708c0,.205.259.327.45.211l1.927-.95c.098-.06.227-.06.325,0l1.927.95c.191.116.45-.005.45-.211v-2.708c0-.205-.259-.327-.45-.211Z" fill="#23b169"/><circle cx="5.75" cy="20.183" r="2.763" fill="#ef4452"/><circle cx="22.642" cy="5.263" r="2.763" fill="#596ff3"/><circle cx="33.913" cy="25.518" r="2.763" fill="#23b169"/><g><path d="m27.542,21.029c.086-.005.185-.033.283-.073.26-.137.478-.392.677-.338.005-.296-.008-.589-.037-.877-1.49.194-3.001.316-4.495.379,1.148.585,2.385.982,3.572.908Z" fill="#333"/><path d="m11.554,19.662c-.038.379-.048.754-.031,1.122,0,0,.72-.161,1.361,1.146l2.287-1.977c-1.378-.102-2.604-.223-3.61-.339-.002.016-.005.032-.007.048Z" fill="#333"/><path d="m28.669,15.524c-.753-4.01-4.267-7.046-8.495-7.046h-.144c-4.223,0-7.735,3.029-8.493,7.032.182.013,8.324.582,17.132.015Z" fill="#333"/><path d="m28.822,17.03c-.002-.515-.049-1.018-.135-1.507-.006,0-.012,0-.017,0-8.808.567-16.95-.002-17.132-.015-.002,0-.017-.001-.017-.001-.086.487-.134.988-.137,1.5,7.529,1.078,13.973.517,17.439.022Z" fill="#bfbfbf"/><path d="m30.467,16.768c-.429.077-.99.168-1.645.262-3.466.495-9.909,1.055-17.439-.022-.546-.078-1.096-.163-1.653-.259-.565-.097-1.079.349-1.079.936v.277c0,.729.525,1.345,1.23,1.442.451.062,1.023.135,1.68.21,1.006.116,2.232.237,3.61.339,2.556.189,5.627.304,8.799.168,1.494-.064,3.005-.185,4.495-.379.645-.084,1.286-.177,1.918-.29.677-.122,1.17-.728,1.17-1.433v-.315c0-.59-.519-1.038-1.086-.936Z" fill="#333"/></g><path d="m13.31,30.525c.177-.52-.1-1.086-.621-1.263-.189-.064-.383-.068-.563-.023l.261-.765c.177-.52-.1-1.086-.621-1.263h0c-.292-.1-.598-.056-.842.094.163-.527-.133-1.092-.672-1.25-.514-.15-1.054.149-1.227.656l-.135.396c-.016-.399-.272-.765-.672-.901h0c-.52-.177-1.086.1-1.263.621l-.927,3.137c-.012.04-.039.074-.075.096,0,0,0,0-.001,0-.027.016-.062.001-.068-.03l-.138-.704c-.112-.57-.666-.941-1.236-.828h0c-.57.112-.941.666-.828,1.236l.718,3.787c.245,1.283,1.223,2.436,2.64,2.919,2.027.691,4.183-.25,4.815-2.104.01-.028.017-.056.026-.084l1.429-3.728Z" fill="#ffcca8"/><polygon points="12.899 32.394 14.959 31.506 16.477 37.5 14.095 37.5 12.899 32.394" fill="#23b169"/><polygon points="27.455 32.394 25.395 31.506 23.877 37.5 26.259 37.5 27.455 32.394" fill="#23b169"/></g><path d="m20.297,25.174c-1.164,0-2.199.4-2.866,1.022-.351.328-.121.916.359.916l1.998-.26c.338-.044.68-.044,1.018,0l1.998.26c.48,0,.711-.589.359-.916-.668-.623-1.703-1.022-2.866-1.022Z" fill="#333"/></g><rect width="40" height="40" fill="none"/></svg>