<?xml version="1.0" encoding="UTF-8"?><svg id="Layer_1" xmlns="http://www.w3.org/2000/svg" viewBox="0 0 40 40"><g><g><path d="M36.04999,33c-.52997,0-.97998,.30005-1.21997,.73999-.01001-.01001-.02002-.02002-.02002-.03003v.02002c0,.19995-1.54999,.28003-2.82001,.23999-.89001-.02002-1.64001-.09998-1.64001-.23999v-.01001c-.90997-.06006-2.00995-.27002-3.25995-.57996l-.24005,.89001c1.38,1.12988,2.81,1.95996,4.29004,2.46997v-.03003c.01996,.01001,.02997,.01001,.03998,.01001l-.52997,.79004c1.28998,.41992,2.53998,.43994,3.71997,0l-.5-.71997c.59998-.25,1.04999-.65015,1.27002-1.13013,.23999,.22009,.56,.3501,.90997,.3501,.77002,0,1.39001-.62012,1.39001-1.39001,0-.76001-.62-1.38-1.39001-1.38Zm0,2.13c-.40997,0-.73999-.33997-.73999-.75s.33002-.73999,.73999-.73999c.41003,0,.73999,.32996,.73999,.73999s-.32996,.75-.73999,.75Z" style="fill:#ffad00;"/><path d="M34.81,33.70996v.02002c0,.19995-1.54999,.28003-2.82001,.23999-.89001-.02002-1.64001-.09998-1.64001-.23999v-.01001c0-.55005,.74005-1.20996,1.72003-1.38-.06-.09998-.10999-.20996-.10999-.33997,0-.3501,.27997-.62,.62-.62,.33997,0,.62,.2699,.62,.62,0,.13-.04999,.23999-.12,.33997,.97998,.17004,1.70996,.81995,1.72998,1.37Z" style="fill:#f77f00;"/></g><g><path d="M6.81519,25.67822c-.10748-.33911-.19769-.6875-.26727-1.0459,.06934,.3584,.16064,.70605,.26727,1.0459Z" style="fill:#93c9ff;"/><path d="M7.75092,27.73206c-.16986-.27808-.32294-.56848-.46466-.86633,.14069,.29883,.29553,.5874,.46466,.86633Z" style="fill:#93c9ff;"/><path d="M34.28998,23.65991c-.92999-4-5.21997-4.40991-7.64996-3.15991-2.42999,1.23999-4.29999,5-6.26001,4.66992-.13074-.02124-.2337-.06738-.34906-.10254,.01447,.00439,.02454,.01245,.03925,.0166-2.60388,2.70435-9.15466,3.40405-11.67902,3.573-.21881-.27905-.42194-.57214-.61029-.87646,2.10828,3.42957,6.27716,5.2843,10.41913,4.21948,0,0,4.14996-.94995,7.14996-6.54004,0,0,1.45001-3.29004,4.41003-2.44995,2.47998,.68994,1.89001,3.75-.14001,5.06006-1.38,.88989-3.98999,2.22998-3.20001,4.97998,0-.09009,.04999-1.76001,3.73999-2.95007,3.82001-1.22998,4.84003-3.40002,4.13-6.44006Z" style="fill:#93c9ff;"/><path d="M18.23865,22.81116v.00024s.00928,.06506,.02557,.15356c-.01544-.08948-.02423-.15491-.02423-.15491l1.72998-1.14014c3.13-2.05994,3-6.23999-.25995-8.09985l-1.03003-.4801-2.56-1.23999c-1.08997-.52991-1.46997-1.90002-.79999-2.91003l1.12-1.68994c.3269-.50439,.00494-1.15796-.56-1.24316h-.00031l.00031,.00317c-.03998-.01001-.08002-.02002-.12-.02002h-.32001c-1.37-.45996-2.25-1.25-2.75-2.31006-.71002,1.1001-1.84003,1.88013-3.42999,2.31006h-.47003c-.03632,0-.06848,.01001-.10309,.01453-.57538,.07434-.90704,.73608-.5769,1.24548l1.12,1.68994c.67004,1.01001,.29004,2.38013-.79999,2.91003l-2.56,1.23999c-1.67999,.80994-2.79999,2.31995-3.16998,4.02002-.40002,1.80994-.03003,4.62,2.35999,5.70007l1.07001,.47998,.40228,1.2854c1.98151,.15137,7.00256,.27368,11.70636-1.76428Zm-1.01239-6.44458l-3.74451,1.83704c-.76782,.37671-1.65802,.41565-2.45581,.10742l-4.24207-1.63892,10.44238-.30554Z" style="fill:#93c9ff;"/><path d="M7.21857,26.72583c-.12427-.27295-.23138-.5564-.33014-.84448,.09796,.28882,.20679,.5708,.33014,.84448Z" style="fill:#93c9ff;"/><path d="M9.26001,5.98999c1.58997-.42993,2.71997-1.20996,3.42999-2.31006,.5,1.06006,1.38,1.8501,2.75,2.31006h.32001c.03998,0,.08002,.01001,.12,.02002l-.00031-.00317c-.00085-.98877-.40045-1.88757-1.04968-2.54688-.65002-.6499-1.54999-1.05005-2.54999-1.05005-1.98004,0-3.59003,1.61011-3.59003,3.59009,.02997,0,.06-.01001,.09998-.01001h.47003Z" style="fill:#17202c;"/><path d="M20.07019,25.08398c-.01471-.00415-.02478-.01221-.03925-.0166-1.34406-.41614-1.68823-1.67603-1.76672-2.10242-.0163-.0885-.02557-.15356-.02557-.15356v-.00024c-4.7038,2.03796-9.72485,1.91565-11.70636,1.76428l-.00049-.00012,.00873,.0282,.00739,.02881c.06958,.3584,.15979,.70679,.26727,1.0459,.02197,.06909,.04974,.13477,.07324,.20312,.09875,.28809,.20587,.57153,.33014,.84448,.02161,.04736,.04535,.09302,.06769,.13989,.14172,.29785,.2948,.58826,.46466,.86633l.02997,.04846c.18835,.30432,.39148,.59741,.61029,.87646,2.52435-.16895,9.07513-.86865,11.67902-3.573Z" style="fill:#ffb72d;"/><path d="M13.48175,18.20361l3.74451-1.83704-10.44238,.30554,4.24207,1.63892c.79779,.30823,1.68799,.26929,2.45581-.10742Z" style="fill:#64a7ff;"/></g><g><ellipse cx="11.45878" cy="6.37874" rx=".36506" ry=".49268" style="fill:#17202c;"/><ellipse cx="13.08439" cy="6.37874" rx=".36506" ry=".49268" style="fill:#17202c;"/></g></g><rect x="0" width="40" height="40" style="fill:none;"/></svg>