<?xml version="1.0" encoding="UTF-8"?><svg id="Layer_1" xmlns="http://www.w3.org/2000/svg" viewBox="0 0 40 40"><g><path d="M36.39001,22.41992c0-1.2915-.53259-2.46289-1.39569-3.35071l-1.98303,1.56018c-.53473,.42078-1.2901,.39148-1.79376-.06592-1.16577-1.05884-3.63806-2.81372-7.70166-3.43579-5.97455-.91479-9.39154-5.57996-10.289-8.02759,0,0-2.5141,8.09021-4.93506,11.17725-.42944,.54761-1.23999,.6062-1.76941,.15442l-1.55151-1.32385c-.84149,.8833-1.3609,2.03857-1.3609,3.31201,0,2.323,1.67694,4.25793,3.96112,4.81445,.01685,.00415,.03198,.01172,.04889,.01562,.91821,2.71191,2.49371,5.04028,4.49493,6.74426,2.20514,1.87769,4.92834,2.99573,7.88507,2.99573s5.67993-1.11804,7.88507-2.99573c2.00122-1.70398,3.57672-4.03235,4.49493-6.74426,.2204-.05151,.42944-.1272,.63782-.20349,1.97534-.72351,3.37219-2.50977,3.37219-4.62659Z" style="fill:#956759;"/><g><ellipse cx="16.26557" cy="21.40546" rx="1.41456" ry="1.69747"/><ellipse cx="23.73443" cy="21.40546" rx="1.41456" ry="1.69747"/></g><path d="M21.76117,29.79773c.31714,0,.5422,.30461,.45828,.61044-.26747,.97469-1.15983,1.69085-2.21945,1.69085s-1.95198-.71615-2.21945-1.69085c-.08393-.30583,.14113-.61044,.45828-.61044h3.52235Z" style="fill:#5c2f17;"/><g><path d="M27.88507,33.99426h2.12201c.62915,0,1.1814-.41882,1.35114-1.02454l1.65961-5.92322c-.20837,.07629-.41742,.15198-.63782,.20349-.91821,2.71191-2.49371,5.04028-4.49493,6.74426Z" style="fill:#e32939;"/><path d="M7.62,27.25c-.01691-.00391-.03204-.01147-.04889-.01562l1.13141,5.63306c.13165,.65527,.70728,1.12683,1.37573,1.12683h2.03668c-2.00122-1.70398-3.57672-4.03235-4.49493-6.74426Z" style="fill:#e32939;"/><path d="M8.29181,20.27734c2.42096-3.08704,4.93506-11.17725,4.93506-11.17725,.89746,2.44763,4.31445,7.11279,10.289,8.02759,4.0636,.62207,6.53589,2.37695,7.70166,3.43579,.50366,.4574,1.25903,.48669,1.79376,.06592l1.98303-1.56018,.0105-.0083s.15839-2.36523-.50543-5.56372c-.66388-3.19849-4.46582-8.75061-11.52667-10.19897s-11.22491,3.11536-11.22491,3.11536c-7.72467,1.9082-6.78821,12.68481-6.78821,12.68481l.01129,.00952,1.55151,1.32385c.52942,.45178,1.33997,.39319,1.76941-.15442Z" style="fill:#e32939;"/></g></g><rect width="40" height="40" style="fill:none;"/></svg>