<svg id="Layer_1" data-name="Layer 1" xmlns="http://www.w3.org/2000/svg" viewBox="0 0 40 40"><defs><style>.cls-1{fill:#333;}.cls-2{fill:#ffdb87;}.cls-3{fill:#ffb582;}.cls-4{fill:#5c2f17;}.cls-5{fill:#262626;}.cls-6,.cls-8{fill:none;}.cls-6{stroke:#fa0;stroke-linecap:round;stroke-linejoin:round;stroke-width:0.494px;}.cls-7{fill:#fa0;}</style></defs><path class="cls-1" d="M27.564,28.682,23.6,27.174a10.126,10.126,0,0,0-7.192,0l-3.968,1.508a8.434,8.434,0,0,0-5.362,6.144l-.507,2.061a.494.494,0,0,0,.48.613H32.953a.494.494,0,0,0,.48-.613l-.507-2.061a8.434,8.434,0,0,0-5.362-6.144Z"/><path class="cls-2" d="M10.123,19.832l.982,3.941a1.637,1.637,0,0,0,1.589,1.242H27.266a1.638,1.638,0,0,0,1.617-1.382l.6-3.8Z"/><circle class="cls-3" cx="20" cy="17.183" r="8.626"/><ellipse class="cls-3" cx="12.128" cy="17.425" rx="3.453" ry="3.239"/><ellipse class="cls-3" cx="27.872" cy="17.425" rx="3.453" ry="3.239"/><path class="cls-2" d="M29.754,14.709A9.943,9.943,0,0,0,9.918,13.517a10.254,10.254,0,0,0-.036,1.4s.843-.2,1.593,1.427l5.69-6.366s6.907,5.547,11.466,5.244a1.048,1.048,0,0,0,.331-.09C29.266,14.959,29.521,14.641,29.754,14.709Z"/><ellipse cx="17.577" cy="16.765" rx="0.918" ry="1.102"/><ellipse cx="22.423" cy="16.765" rx="0.918" ry="1.102"/><path class="cls-4" d="M21.142,21.108a.312.312,0,0,1,.3.4,1.494,1.494,0,0,1-2.88,0,.312.312,0,0,1,.3-.4Z"/><path class="cls-3" d="M17.943,24.485h4.137a0,0,0,0,1,0,0v3.926a2.068,2.068,0,0,1-2.068,2.068h0a2.068,2.068,0,0,1-2.068-2.068V24.485A0,0,0,0,1,17.943,24.485Z"/><path class="cls-5" d="M33.927,5.655,20.592,2.568a2.6,2.6,0,0,0-1.184,0L6.073,5.655a.209.209,0,0,0-.008.406l5.679,1.561-1.456,3.186a.788.788,0,0,0,.487,1.08L19.5,14.54a1.707,1.707,0,0,0,1,0l8.727-2.652a.788.788,0,0,0,.487-1.08L28.256,7.622l5.679-1.561A.209.209,0,0,0,33.927,5.655Z"/><polyline class="cls-6" points="17.214 4.189 7.946 6.38 7.946 12.629"/><circle class="cls-7" cx="7.946" cy="13.181" r="0.941"/><rect class="cls-8" width="40" height="40"/></svg>