<svg id="Layer_1" data-name="Layer 1" xmlns="http://www.w3.org/2000/svg" viewBox="0 0 40 40"><defs><style>.cls-1{fill:#2e3d51;}.cls-2{fill:#ffc84d;}.cls-3{fill:#fa878f;}.cls-4{fill:#ff9000;}.cls-5{fill:#5c2f17;}.cls-6{fill:#ec3f00;}.cls-7{fill:none;}</style></defs><path class="cls-1" d="M17.054,34.873l-1.754,1.7a1.231,1.231,0,0,0-.411.881v.269c0,.366.448.662,1,.662h1.069a2.352,2.352,0,0,0,1.863-.764l.285-.38a.521.521,0,0,0,.111-.314V34.587H17.054Z"/><path class="cls-1" d="M23.118,34.873l1.753,1.7a1.231,1.231,0,0,1,.411.881v.269c0,.366-.448.662-1,.662H23.213a2.352,2.352,0,0,1-1.863-.764l-.285-.38a.516.516,0,0,1-.112-.314V34.587h2.165Z"/><path class="cls-2" d="M15.041,24.673l1.386-7.455c.065-.49-.726-.916-1.216-.982a.885.885,0,0,0-1.006.769L13.07,25.5a.811.811,0,0,0,.008.121c0,.018-.01.033-.01.051,0,.036.017.067.02.1a.771.771,0,0,0,.024.118A1.235,1.235,0,0,0,14.32,26.92a1.253,1.253,0,0,0,1.252-1.252A1.225,1.225,0,0,0,15.041,24.673Z"/><path class="cls-2" d="M24.959,24.673l-1.386-7.455c-.065-.49.726-.916,1.216-.982a.885.885,0,0,1,1.006.769L26.93,25.5a.811.811,0,0,1-.008.121c0,.018.01.033.01.051,0,.036-.017.067-.02.1a.771.771,0,0,1-.024.118A1.235,1.235,0,0,1,25.68,26.92a1.253,1.253,0,0,1-1.252-1.252A1.225,1.225,0,0,1,24.959,24.673Z"/><polygon class="cls-2" points="20.004 11.868 17.706 11.868 16.781 20.804 16.789 35.13 19.218 35.127 19.939 25.027 20.004 11.868"/><polygon class="cls-2" points="20.058 11.868 22.515 11.868 23.281 20.804 23.383 35.129 20.953 35.127 20.124 25.027 20.058 11.868"/><path class="cls-3" d="M13.454,17.376l2.813.767-.31,3.589h8.162l-.383-3.622,2.2-1.063-.386-3.1a3.314,3.314,0,0,0-2.241-2.737l-3.333-1.114-3.495,1.183a3.319,3.319,0,0,0-2.169,2.4Z"/><path class="cls-4" d="M15.8,9.154s-.5-5.473,2.149-6.633A2.532,2.532,0,0,1,20.3,1.635a4.1,4.1,0,0,1,3.28,2.552,14.477,14.477,0,0,1,.567,4.7.707.707,0,0,1-.34.585c-.448.272-1.486.621-3.866.621C16.042,10.092,15.8,9.154,15.8,9.154Z"/><path class="cls-2" d="M21.174,5.187a4.513,4.513,0,0,1-2.663-1.509.073.073,0,0,0-.128.035,3.714,3.714,0,0,1-1.1,2.046,1.641,1.641,0,0,0-.28.3,1.332,1.332,0,0,0-.241,1.019A3.171,3.171,0,0,0,23,7.355C23.179,6.3,22.538,5.39,21.174,5.187Z"/><ellipse cx="18.944" cy="6.365" rx="0.356" ry="0.427"/><ellipse cx="20.823" cy="6.365" rx="0.356" ry="0.427"/><path class="cls-5" d="M20.327,8.241a.121.121,0,0,1,.115.154.579.579,0,0,1-1.117,0,.121.121,0,0,1,.116-.154Z"/><path class="cls-2" d="M19.124,9.611h1.669a0,0,0,0,1,0,0v1.015a.835.835,0,0,1-.835.835h0a.835.835,0,0,1-.835-.835V9.611A0,0,0,0,1,19.124,9.611Z"/><path class="cls-6" d="M23.7,26.92H16.445a.277.277,0,0,1-.277-.269l-.05-4.919h7.829l.033,4.914A.276.276,0,0,1,23.7,26.92Z"/><rect class="cls-7" width="40" height="40"/></svg>