<svg id="Layer_1" data-name="Layer 1" xmlns="http://www.w3.org/2000/svg" viewBox="0 0 40 40"><defs><style>.cls-1{fill:#d9d9d9;}.cls-2{fill:#6e4944;}.cls-3{fill:#ff9000;}.cls-4{fill:#5c2f17;}.cls-10,.cls-5,.cls-6{fill:none;}.cls-5{stroke:#4a3b36;stroke-linecap:round;stroke-linejoin:round;stroke-width:0.565px;}.cls-6{stroke:#fff;stroke-miterlimit:10;stroke-width:0.657px;}.cls-7{fill:#f21d51;}.cls-8{fill:#e7e7e7;}.cls-9{fill:#d5d5d5;}</style></defs><path class="cls-1" d="M6.362,27.5,7.729,32.99a2.28,2.28,0,0,0,2.213,1.73h20.3A2.281,2.281,0,0,0,32.493,32.8l.836-5.294Z"/><path class="cls-2" d="M32.21,23.17c-.266-7.882-6.037-14.083-12.891-13.852S7.125,16.126,7.391,24.008c.2,5.834,3.412,10.4,7.849,12.281a2.062,2.062,0,0,1,.681.482,5.811,5.811,0,0,0,3.88,1.2A5.907,5.907,0,0,0,23.643,36.8a1.944,1.944,0,0,1,.636-.415C29.093,34.468,32.422,29.432,32.21,23.17Z"/><ellipse cx="15.618" cy="25.537" rx="1.321" ry="1.586"/><ellipse cx="23.983" cy="25.537" rx="1.321" ry="1.586"/><ellipse class="cls-3" cx="20" cy="9.678" rx="5.674" ry="3.425"/><path class="cls-4" d="M20.837,33.557c.409,0,.725.207.625.422-.2.433-.749.741-1.661.741s-1.458-.308-1.661-.741c-.1-.215.216-.422.625-.422Z"/><path class="cls-5" d="M17.364,31.767s-1.474.268-1.985,2.6"/><circle class="cls-2" cx="8.221" cy="24.34" r="4.008"/><circle class="cls-2" cx="31.38" cy="24.179" r="4.008"/><circle class="cls-6" cx="14.894" cy="25.646" r="3.794"/><circle class="cls-6" cx="24.707" cy="25.646" r="3.794"/><path class="cls-6" d="M18.689,25.646a1.829,1.829,0,0,1,2.224,0"/><path class="cls-1" d="M33.751,20.945c.126-8.55-7.562-15.863-16.382-14.212A13.711,13.711,0,0,0,6.486,17.742a14.379,14.379,0,0,0-.211,2.931.147.147,0,0,0,.14.144c.3,0,1.084.158,1.845,1.539a.339.339,0,0,0,.551.077L16.349,14S25.9,22.07,32.2,21.651a1.454,1.454,0,0,0,.457-.125C33.076,21.29,33.429,20.851,33.751,20.945Z"/><polygon class="cls-7" points="19.685 3.288 32.369 3.288 27.455 12.923 19.685 3.288"/><path class="cls-7" d="M6.388,13.624A7.529,7.529,0,0,1,7.771,9.77a14.192,14.192,0,0,1,23.829,0,7.529,7.529,0,0,1,1.383,3.854V14.91H6.388Z"/><rect class="cls-8" x="3.809" y="12.479" width="32.383" height="5.96" rx="2.98"/><circle class="cls-9" cx="33.738" cy="4.483" r="2.454"/><rect class="cls-10" width="40" height="40" transform="translate(40 40) rotate(-180)"/></svg>