<?xml version="1.0" encoding="UTF-8"?><svg id="Layer_1" xmlns="http://www.w3.org/2000/svg" viewBox="0 0 40 40"><g><g><path d="m35.919,36.634c-.209-1.745-1.095-4.403-2.8-7.069.061.775-.065,1.576-.413,2.332-.147.32-.329.611-.534.878-.043.056-.094.102-.14.155-.178.211-.365.412-.574.585-.036.03-.076.055-.113.084-.238.186-.489.353-.756.49-.014.007-.028.013-.042.02-.295.147-.604.266-.924.35l.005.003c.117-.011.23-.035.349-.035,2.024,0,4.255,1.641,4.255,3.664h.385c.785,0,1.394-.679,1.301-1.459Z" fill="#482ec5"/><path d="m22.474,30.516c.44-.132.91-.058,1.314.156.05.026.102.046.149.077l.895.584.687.448-.689-.452-.89-.58c-.05-.03-.1-.05-.15-.08-.14-.89-.04-1.83.37-2.7.65-1.43,1.939-2.359,3.369-2.64v-.004s.006-.013.006-.013c.026-.005.053-.005.079-.009.076-.013.153-.017.229-.027.199-.026.399-.04.602-.04.094,0,.189.005.284.01.197.012.392.039.589.077.086.017.173.029.258.051.008.002.016.006.025.009-1.523-1.385-3.337-2.616-5.497-3.51-.297.887-1.205,1.443-2.149,1.26-1.028-.199-1.7-1.193-1.501-2.221l.026-.135c-2.246-.396-4.26-.164-6.053.46l4.092,1.677c.669.274.972,1.052.666,1.706l-1.919,4.105c-.238.51-.769.773-1.295.71l-1.532,1.665-5.243-3.913,1.679-2.311c.079-.109.168-.209.263-.301l1.091-2.333c-4.409,2.543-7.137,7.344-8.294,9.647-1.038,2.066-.838,4.51,1.064,5.825,1.902,1.315,4.51.838,5.825-1.064l2.354-3.52-1.407,4.962h2.09s2.386-5.709,8.614-7.577Zm-5.225-1.753l1.923-4.112c.081-.173.286-.247.459-.167l.816.382c.173.081.247.286.167.459l-.061.131c.563.399.906,1.022.928,1.69.004.117.066.224.172.274l.574.268c.446.209.614.772.323,1.197-.228.334-.684.425-1.05.254l-.535-.25c-.106-.05-.228-.029-.32.044-.527.412-1.225.548-1.892.372l-.061.131c-.081.173-.286.247-.459.167l-.816-.382c-.173-.081-.247-.286-.167-.459Z" fill="#482ec5"/></g><g><g><path d="m29.59,18.27c-1.038,1.511-2.599,2.579-4.377,3.016l3.127.605c.69.134,1.374-.254,1.613-.915l.998-2.755c-.43.108-.89.137-1.361.048Z" fill="#333"/><path d="m16.09,15.66c-.606-.124-1.136-.41-1.547-.799l.174,3.291c.035.654.51,1.201,1.154,1.326l3.173.614c-1.484-1.07-2.544-2.646-2.954-4.432Z" fill="#333"/><path d="m16.18,11.553c.046.142.213.205.332.114l5.676-4.317s4.992,5.891,8.943,6.387c.087.011.192,0,.298-.023.278-.093.538-.302.725-.231.007.003.016,0,.023.003,1.102-5.278-2.829-10.477-8.486-10.511-3.533-.021-6.796,2.21-8.056,5.511-.227.595-.386,1.194-.482,1.789-.008.047.022.096.068.105,0,0,0,0,0,0,.188.038.652.228.958,1.174Z" fill="#333"/></g><path d="m32.154,13.483c-.187-.071-.447.138-.725.231-.106.023-.211.033-.298.023-3.951-.496-8.943-6.387-8.943-6.387l-5.676,4.317c-.119.091-.286.028-.332-.114-.305-.946-.769-1.136-.958-1.174,0,0,0,0,0,0-.772.378-1.359,1.067-1.531,1.941-.188.951.165,1.891.853,2.541.411.389.941.675,1.547.799.41,1.786,1.47,3.363,2.954,4.432.435.314.902.59,1.406.807v.01c-.19,1.03.48,2.02,1.5,2.22.95.19,1.86-.37,2.15-1.26.03-.08.06-.15.08-.24l.03-.16c.342-.036.675-.103,1.003-.183,1.778-.437,3.339-1.506,4.377-3.016.471.09.932.061,1.361-.048,1.056-.266,1.905-1.065,2.119-2.152.193-.979-.193-1.936-.916-2.587Z" fill="#ffcca8"/><g><ellipse cx="21.985" cy="15.03" rx=".96" ry=".8" transform="translate(3.051 33.759) rotate(-79.046)"/><ellipse cx="26.132" cy="15.833" rx=".96" ry=".8" transform="translate(5.622 38.481) rotate(-79.046)"/></g><path d="m24.11,18.871c.149.029.227.193.16.329-.214.432-.697.687-1.194.591s-.85-.513-.887-.994c-.012-.151.122-.274.271-.245l1.65.319Z" fill="#5c2f17"/></g><g><g><path d="m20.645,28.934c.092-.072.214-.093.32-.044l.535.25c.366.171.822.08,1.05-.254.29-.425.123-.989-.323-1.197l-.574-.268c-.106-.05-.168-.157-.172-.274-.022-.669-.365-1.292-.928-1.69l-1.8,3.849c.667.176,1.365.04,1.892-.372Z" fill="#ffe3a0"/><path d="m17.416,29.222l.816.382c.173.081.378.006.459-.167l.061-.131,1.8-3.849.061-.131c.081-.173.006-.378-.167-.459l-.816-.382c-.173-.081-.378-.006-.459.167l-1.923,4.112c-.081.173-.006.378.167.459Z" fill="#93c9ff"/><path d="m13.519,24.062l1.957.702c1.711.614,2.242,2.774,1.011,4.112l-.516.56c.526.062,1.057-.201,1.295-.71l1.919-4.105c.306-.655.003-1.432-.666-1.706l-4.092-1.677-.335-.137c-.625-.256-1.34.023-1.626.635l-.238.509-1.091,2.333c.623-.603,1.544-.815,2.381-.514Z" fill="#c8e1ff"/></g><path d="m15.476,24.764l-1.957-.702c-.837-.3-1.758-.089-2.381.514-.095.092-.183.191-.263.301l-1.679,2.311,5.243,3.913,1.532-1.665.516-.56c1.231-1.338.7-3.498-1.011-4.112Z" fill="#ffcca8"/><g><path d="m29.317,25.325c-.196-.038-.392-.065-.589-.077-.095-.006-.189-.01-.284-.01-.202,0-.402.014-.602.04-.076.01-.154.013-.229.027-.026.005-.053.004-.079.009l-.005.013v.004s0,0,0,0l-.226.64-.83,2.36c.022-.003.043.002.065,0,.257-.026.512.001.742.121.752.386.977,1.44.535,2.393-.017.037-.028.075-.047.111-.302.586-.794.976-1.307,1.122-.126.036-.253.069-.379.073l3.542,2.311c.319-.084.628-.203.924-.35.014-.007.028-.013.042-.02.267-.136.518-.304.756-.49.037-.029.076-.054.113-.084.209-.173.396-.374.574-.585.045-.054.097-.099.14-.155.205-.267.387-.558.534-.878.348-.757.474-1.557.413-2.332-.106-1.341-.781-2.604-1.899-3.425-.252-.185-.526-.347-.821-.483,0,0-.002,0-.003,0-.26-.12-.527-.204-.795-.273-.008-.002-.016-.006-.025-.009-.086-.022-.172-.034-.258-.051Z" fill="#333"/><path d="m27.77,30.95c.018-.035.029-.071.045-.107.441-.953.217-2.007-.535-2.393-.229-.119-.485-.146-.742-.121-.023.002-.045-.003-.068,0l.834-2.36.226-.64s0,0-.001,0c-1.43.28-2.719,1.21-3.369,2.64-.41.87-.51,1.81-.37,2.7.05.03.1.05.15.08l.89.58.689.452.561.366h.002c.126-.003.253-.036.379-.072.513-.148,1.004-.541,1.309-1.126Z" fill="#ffcca8"/><path d="m29.629,34.464l-.005-.003-3.542-2.311h-.002s-.561-.367-.561-.367l-.687-.448-.895-.584c-.047-.031-.1-.051-.149-.077-.404-.215-.874-.289-1.314-.156-6.227,1.868-8.614,7.577-8.614,7.577h12.454c0-1.904,1.458-3.451,3.315-3.629Z" fill="#7664c5"/></g><path d="m29.979,34.429c-.12,0-.233.024-.349.035-1.857.178-3.315,1.725-3.315,3.629h7.919c0-2.024-2.231-3.664-4.255-3.664Z" fill="#ffcca8"/></g></g><rect x="0" y="0" width="40" height="40" fill="none"/></svg>