<svg id="Layer_1" data-name="Layer 1" xmlns="http://www.w3.org/2000/svg" viewBox="0 0 40 40"><defs><style>.cls-1{fill:#ffad00;}.cls-2{fill:#d0d6de;}.cls-3{fill:#076565;}.cls-4{fill:#8595aa;}.cls-5{fill:none;}</style></defs><path class="cls-1" d="M22.653,30.259l-.486,3.963a1.634,1.634,0,0,0,1.065,1.734l1.823.661a.407.407,0,0,1-.139.789H19.443a.875.875,0,0,1-.793-1.244l2.943-6.334Z"/><path class="cls-2" d="M7.552,20.6,6.373,18.833a.36.36,0,0,1,.244-.555l15.328-2.387,0-8.268A4.964,4.964,0,0,1,26.3,2.616a4.823,4.823,0,0,1,5.294,4.8l-.475,2.059.019-.007-.034.07-.238,1.031-.249.07c-.4,1-.831,2.325-.441,2.734.648.681,5.077,3.688,4.429,7.707s-3.846,8.142-10.781,9.276c-6.733,1.1-17.268-2.226-21.266-9.092a.428.428,0,0,1,.375-.635Z"/><path class="cls-1" d="M36.47,6.224a10.12,10.12,0,0,1-5.231.316l-1.032,5.253s.538-.853,3.052-1.572C35.4,9.61,37.8,8.122,37.47,6.7A.741.741,0,0,0,36.47,6.224Z"/><path class="cls-3" d="M25.944,14.85a17.562,17.562,0,0,0,4.1-1.823,6.792,6.792,0,0,1,.539-2.4l.863-2.716a2.835,2.835,0,0,0,.091-1.258A4.825,4.825,0,0,0,26.3,2.616a4.963,4.963,0,0,0-4.349,5.007v8.268A35.994,35.994,0,0,0,25.944,14.85Z"/><circle cx="28.449" cy="7.002" r="1.232"/><path class="cls-4" d="M7.552,20.613s5.47,7.87,16.184,5.208c4.221-1.1,6.471-5.208,6.471-5.208Z"/><rect class="cls-5" width="40" height="40"/></svg>