<?xml version="1.0" encoding="UTF-8"?><svg id="Layer_1" xmlns="http://www.w3.org/2000/svg" viewBox="0 0 40 40"><g><path d="m11.624,14.275h0c0,1.292.35,2.559,1.012,3.668l2.018,3.378c1.096,1.835,1.528,3.991,1.224,6.107l-.475,3.297c-.477,3.31,2.091,6.274,5.436,6.274h0c2.642,0,4.91-1.882,5.397-4.479l2.83-15.076c.329-1.752-.323-3.543-1.701-4.674h0c-2.978-2.445-6.8-3.616-10.636-3.261l-.832.077c-2.421.224-4.273,2.256-4.273,4.687Z" fill="#ffcca8"/><ellipse cx="13.492" cy="6.095" rx="2.911" ry="3.095" fill="#ffcca8"/><ellipse cx="18.999" cy="6.095" rx="1.777" ry="1.89" fill="#ffcca8"/><ellipse cx="22.776" cy="7.504" rx="1.501" ry="1.596" fill="#ffcca8"/><ellipse cx="25.938" cy="9.099" rx="1.232" ry="1.31" fill="#ffcca8"/><ellipse cx="28.373" cy="11.126" rx="1.046" ry="1.112" fill="#ffcca8"/></g><rect width="40" height="40" fill="none"/></svg>