<svg id="Layer_1" data-name="Layer 1" xmlns="http://www.w3.org/2000/svg" viewBox="0 0 40 40"><defs><style>.cls-1{fill:#9bbdc4;}.cls-2{fill:#4e686e;}.cls-3{fill:#6d9199;}.cls-4{fill:none;}</style></defs><path class="cls-1" d="M35.044,11.461s1.914,1.09,1.432,2.944c-.554,2.131-4.049,3.659-4.049,3.659-2.469-1.917-2.716-9.127-.235-9.634A2.7,2.7,0,0,1,35.044,11.461Z"/><circle cx="33.357" cy="10.903" r="0.779"/><path class="cls-2" d="M29.616,27.253l-1.749,6.924a.645.645,0,0,1-.617.5H21.773a.667.667,0,0,1-.612-.864l2.9-10.27Z"/><path class="cls-2" d="M6.519,27.253l1.875,7.423h5.968a.666.666,0,0,0,.611-.864l-2.905-10.27Z"/><path class="cls-3" d="M5.674,22.336c.539-5.438,5.254-4.208,8.576-5.674s7.678-5.2,14.323-10.827a2.835,2.835,0,0,1,3.636.378,9.321,9.321,0,0,1,1.709,2.816,1.677,1.677,0,0,0-1.036-.361,1.813,1.813,0,0,0-1.764,1.858,1.838,1.838,0,0,0,1.389,1.813,3.491,3.491,0,0,0-1.093,2.548,2.837,2.837,0,0,0,.418,1.307l1.2,2.052h0A33,33,0,0,1,37.5,33.986a.664.664,0,0,1-.644.69H32.382a.638.638,0,0,1-.594-.428c-.517-1.388-2.335-5.76-5.191-7.184-3.412-1.7-4.669-.568-6.106.236-1.3.726-4.28,1.221-6.565,1.414a1.339,1.339,0,0,0-1.063.7l-2.694,4.925a.632.632,0,0,1-.553.337H3.141a.665.665,0,0,1-.591-.924A48.29,48.29,0,0,0,5.674,22.336Z"/><rect class="cls-4" width="40" height="40"/></svg>