<?xml version="1.0" encoding="UTF-8"?><svg id="a" xmlns="http://www.w3.org/2000/svg" viewBox="0 0 40 40"><g><path d="M15.057,21.055v3.889h3.889c3.437,0,6.233-2.797,6.233-6.234v-3.889h-3.888c-3.437,0-6.234,2.797-6.234,6.234Z" fill="none"/><path d="M37.424,9.109c-.746-.717-1.931-.692-2.648,.052-1.186,1.234-2.783,1.914-4.495,1.914h-1.357v3.745h1.357c2.741,0,5.296-1.089,7.196-3.065,.717-.745,.693-1.931-.052-2.647Z" fill="#a8bfff"/><path d="M9.499,24.944c-2.598,0-5.057,.992-6.925,2.793-.744,.718-.766,1.904-.048,2.648,.368,.382,.857,.573,1.348,.573,.468,0,.937-.174,1.3-.524,1.166-1.125,2.702-1.745,4.325-1.745h1.814v-3.745h-1.814Z" fill="#8b8bf4"/><path d="M30.892,2.577c-.717-.749-1.903-.772-2.648-.052-1.976,1.899-3.065,4.455-3.065,7.194v8.991c0,3.437-2.796,6.234-6.233,6.234h-3.889v3.745h3.889c5.502,0,9.978-4.477,9.978-9.979V9.719c0-1.712,.68-3.308,1.915-4.495,.746-.716,.769-1.902,.052-2.647Z" fill="#8b8bf4"/><path d="M21.291,11.076c-5.502,0-9.979,4.477-9.979,9.979v9.447c0,1.621-.62,3.158-1.745,4.326-.717,.745-.696,1.93,.049,2.648,.363,.35,.831,.524,1.3,.524,.491,0,.981-.191,1.348-.573,1.801-1.87,2.794-4.329,2.794-6.925v-9.447c0-3.437,2.796-6.234,6.234-6.234h3.888v-3.745h-3.888Z" fill="#a8bfff"/><line x1="17.921" y1="17.652" x2="22.316" y2="22.113" fill="none" stroke="#a8bfff" stroke-linecap="round" stroke-miterlimit="10" stroke-width="1.873"/></g><rect width="40" height="40" fill="none"/></svg>