<svg id="Layer_1" data-name="Layer 1" xmlns="http://www.w3.org/2000/svg" viewBox="0 0 40 40"><defs><style>.cls-1{fill:#333;}.cls-2{fill:#6e4944;}.cls-3{fill:#482ec5;}.cls-4{fill:#564640;}.cls-5{fill:#6453e4;}.cls-6{fill:#5c2f17;}.cls-7{fill:none;}</style></defs><path class="cls-1" d="M7.649,23.7S6.248,8.305,13.693,5.043a7.12,7.12,0,0,1,6.614-2.492,11.527,11.527,0,0,1,9.224,7.178,40.676,40.676,0,0,1,1.6,13.216,1.984,1.984,0,0,1-.956,1.646c-1.26.766-4.18,1.747-10.872,1.747C8.324,26.338,7.649,23.7,7.649,23.7Z"/><path class="cls-2" d="M22.759,12.544A12.721,12.721,0,0,1,15.269,8.3a.207.207,0,0,0-.361.1,10.43,10.43,0,0,1-3.1,5.755,4.6,4.6,0,0,0-.786.84,3.744,3.744,0,0,0-.677,2.867A9.119,9.119,0,0,0,19.2,25.592a9.076,9.076,0,0,0,8.686-6.953C28.4,15.664,26.6,13.114,22.759,12.544Z"/><path class="cls-3" d="M3.852,37.485H35.314a1.178,1.178,0,0,0,1.094-1.624c-1.25-3-5.144-9.109-16.123-9.109-12.382,0-16.069,7.77-16.894,10.087A.486.486,0,0,0,3.852,37.485Z"/><path class="cls-2" d="M16.7,24.385V27.5a.32.32,0,0,0,.181.295,4.784,4.784,0,0,0,4.193,0,.348.348,0,0,0,.184-.3V24.385Z"/><polygon class="cls-1" points="21.097 11.475 22.301 16.41 24.027 16.693 21.097 11.475"/><path class="cls-1" d="M18.237,13.625s1.92,4.356,1.838,4.274.963-.716.963-.716l-1.679-3.411Z"/><path class="cls-1" d="M16.209,17.164s-.7-1.07.25-1.669,1.171,1.669,1.171,1.669,6.852,6.737,5.921,7.4a5.7,5.7,0,0,1-1.677.7S17.088,19.128,16.209,17.164Z"/><path class="cls-4" d="M32.112,14.751a1.408,1.408,0,0,0-1.709.474l-1.1,1.512a.3.3,0,0,1-.538-.114l-.14-.549-1.415-5.5a1.343,1.343,0,1,0-2.6.666l.984,3.869a.047.047,0,0,1-.09.029l-1.907-4.649A1.386,1.386,0,0,0,22,9.639a1.348,1.348,0,0,0-.907,1.836L22.952,16a.047.047,0,0,1-.084.043l-2.329-3.792a1.343,1.343,0,1,0-2.3,1.391l2.273,3.7a.048.048,0,0,1-.078.056l-1.86-2.267A1.344,1.344,0,1,0,16.5,16.823l3.542,4.337h0l1.922,2.45a3.759,3.759,0,0,0,4.268,1.205l1.335-.509a5.264,5.264,0,0,0,2.85-2.6l2.461-4.99h0A1.481,1.481,0,0,0,32.112,14.751Z"/><path class="cls-5" d="M22.809,24.485l7.722-2.492a.373.373,0,0,1,.469.24l5.561,13.826a1.04,1.04,0,0,1-.964,1.428l-7.834.013L22.569,24.954A.372.372,0,0,1,22.809,24.485Z"/><path class="cls-6" d="M18.179,23.355a.318.318,0,0,1-.3-.405,1.522,1.522,0,0,1,2.935,0,.319.319,0,0,1-.3.405Z"/><rect class="cls-7" width="40" height="40"/></svg>