<?xml version="1.0" encoding="UTF-8"?><svg id="Layer_1" xmlns="http://www.w3.org/2000/svg" viewBox="0 0 40 40"><g><g><path d="m36.05,33c-.53,0-.98.3-1.22.74-.01-.01-.02-.02-.02-.03v.02c0,.2-1.55.28-2.82.24-.89-.02-1.64-.1-1.64-.24v-.01c-.91-.06-2.01-.27-3.26-.58l-.24.89c1.38,1.13,2.81,1.96,4.29,2.47v-.03c.02.01.03.01.04.01l-.53.79c1.29.42,2.54.44,3.72,0l-.5-.72c.6-.25,1.05-.65,1.27-1.13.24.22.56.35.91.35.77,0,1.39-.62,1.39-1.39,0-.76-.62-1.38-1.39-1.38Zm0,2.13c-.41,0-.74-.34-.74-.75s.33-.74.74-.74.74.33.74.74-.33.75-.74.75Z" fill="#ffad00"/><path d="m34.81,33.71v.02c0,.2-1.55.28-2.82.24-.89-.02-1.64-.1-1.64-.24v-.01c0-.55.74-1.21,1.72-1.38-.06-.1-.11-.21-.11-.34,0-.35.28-.62.62-.62s.62.27.62.62c0,.13-.05.24-.12.34.98.17,1.71.82,1.73,1.37Z" fill="#f77f00"/></g><g><path d="m6.815,25.678c-.107-.339-.198-.688-.267-1.046.069.358.161.706.267,1.046Z" fill="#93c9ff"/><path d="m7.751,27.732c-.17-.278-.323-.568-.465-.866.141.299.296.587.465.866Z" fill="#93c9ff"/><path d="m34.29,23.66c-.93-4-5.22-4.41-7.65-3.16-2.43,1.24-4.3,5-6.26,4.67-.131-.021-.234-.067-.349-.103.014.004.025.012.039.017-2.604,2.704-9.155,3.404-11.679,3.573-.219-.279-.422-.572-.61-.876,2.108,3.43,6.277,5.284,10.419,4.219,0,0,4.15-.95,7.15-6.54,0,0,1.45-3.29,4.41-2.45,2.48.69,1.89,3.75-.14,5.06-1.38.89-3.99,2.23-3.2,4.98,0-.09.05-1.76,3.74-2.95,3.82-1.23,4.84-3.4,4.13-6.44Z" fill="#93c9ff"/><path d="m18.239,22.811h0s.009.065.026.154c-.015-.089-.024-.155-.024-.155l1.73-1.14c3.13-2.06,3-6.24-.26-8.1l-1.03-.48-2.56-1.24c-1.09-.53-1.47-1.9-.8-2.91l1.12-1.69c.327-.504.005-1.158-.56-1.243h0s0,.002,0,.003c-.04-.01-.08-.02-.12-.02h-.32c-1.37-.46-2.25-1.25-2.75-2.31-.71,1.1-1.84,1.88-3.43,2.31h-.47c-.036,0-.068.01-.103.015-.575.074-.907.736-.577,1.245l1.12,1.69c.67,1.01.29,2.38-.8,2.91l-2.56,1.24c-1.68.81-2.8,2.32-3.17,4.02-.4,1.81-.03,4.62,2.36,5.7l1.07.48.402,1.285c1.982.151,7.003.274,11.706-1.764Zm-1.012-6.445l-3.745,1.837c-.768.377-1.658.416-2.456.107l-4.242-1.639,10.442-.306Z" fill="#93c9ff"/><path d="m7.219,26.726c-.124-.273-.231-.556-.33-.844.098.289.207.571.33.844Z" fill="#93c9ff"/><path d="m9.26,5.99c1.59-.43,2.72-1.21,3.43-2.31.5,1.06,1.38,1.85,2.75,2.31h.32c.04,0,.08.01.12.02,0-.001,0-.002,0-.003,0-.989-.4-1.888-1.05-2.547-.65-.65-1.55-1.05-2.55-1.05-1.98,0-3.59,1.61-3.59,3.59.03,0,.06-.01.1-.01h.47Z" fill="#17202c"/><path d="m20.07,25.084c-.015-.004-.025-.012-.039-.017-1.344-.416-1.688-1.676-1.767-2.102-.016-.089-.026-.154-.026-.154h0c-4.704,2.038-9.725,1.915-11.706,1.764,0,0,0,0,0,0l.009.028c.002.01.005.019.007.029.07.358.16.707.267,1.046.022.069.05.135.073.203.099.288.206.572.33.844.022.047.045.093.068.14.142.298.295.588.465.866.01.016.02.032.03.048.188.304.391.597.61.876,2.524-.169,9.075-.869,11.679-3.573Z" fill="#ffb72d"/><path d="m13.482,18.204l3.745-1.837-10.442.306,4.242,1.639c.798.308,1.688.269,2.456-.107Z" fill="#64a7ff"/></g><g><ellipse cx="11.459" cy="6.379" rx=".365" ry=".493" fill="#17202c"/><ellipse cx="13.084" cy="6.379" rx=".365" ry=".493" fill="#17202c"/></g></g><rect x="0" width="40" height="40" fill="none"/></svg>