<?xml version="1.0" encoding="UTF-8"?><svg id="Layer_1" xmlns="http://www.w3.org/2000/svg" viewBox="0 0 40 40"><g><path d="m16.905,5.321s-2.525,4.5-5.052,6.448c-2.526,1.947,2.03,2.506,2.03,2.506l3.591-1.054.273-8.08-.843.18Z" fill="#c7b08b"/><path d="m23.048,5.321s2.525,4.5,5.052,6.448c2.526,1.947-2.03,2.506-2.03,2.506l-3.591-1.054-.273-8.08.843.18Z" fill="#c7b08b"/><g><g><path d="m19.259,26.817c0-5.01,3.703-18.169,3.703-18.169,0,0,14.071,6.755,14.071,15.828,0,5.01-3.979,9.986-8.887,9.986s-8.887-2.635-8.887-7.645Z" fill="#c7b08b"/><path d="m20.741,26.817c0-5.01-3.703-18.169-3.703-18.169,0,0-14.071,6.755-14.071,15.828,0,5.01,3.979,9.986,8.887,9.986s8.887-2.635,8.887-7.645Z" fill="#c7b08b"/></g><path d="m23.095,9.32v-3.999c0-1.277-1.045-2.321-2.321-2.321h-1.547c-1.277,0-2.321,1.045-2.321,2.321v3.999c0,3.037-.705,4.838-2.07,7.551-2.134,4.242-4.119,7.52-4.119,11.814,0,5.127,1.395,8.315,9.285,8.315s9.285-3.187,9.285-8.315c0-4.294-1.985-7.571-4.119-11.814-1.365-2.713-2.07-4.514-2.07-7.551Z" fill="#e0c9a6"/></g></g><rect y="0" width="40" height="40" fill="none"/></svg>