<?xml version="1.0" encoding="UTF-8"?><svg id="Layer_1" xmlns="http://www.w3.org/2000/svg" viewBox="0 0 40 40"><path d="M34.6673,12.07593c-.50867-1.10864-1.13605-2.12122-1.88177-3.00684-1.82837-2.17114-4.37286-3.57153-7.67462-3.68457-3.31726-.11353-5.80066,1.44653-7.62109,3.4707-.7713,.85767-1.42322,1.79639-1.96783,2.72998-.94659,1.62231-1.57098,3.21765-1.93646,4.31177,1.0177,.37756,1.75598,1.18213,1.8324,2.177l.0014,.01904c.06396,.94275-.74377,1.72437-1.68585,1.79663l-2.79791,.21497c-.76672,.05884-1.50916-.3645-1.80554-1.03003-2.1756,1.38904-4.6582,3.80115-5.91296,7.87585,.49176-.46521,1.05212-.73096,1.64789-.73096,1.94275,0,3.51764,2.80298,3.51764,6.26074,0,.75159-.07849,1.46899-.2149,2.13672h.74615c-.14294-.69958-.22516-1.45105-.22516-2.23853,0-3.62183,1.64966-6.55786,3.68463-6.55786s3.68469,2.93604,3.68469,6.55786c0,.78748-.08221,1.53894-.22516,2.23853h1.19116s16.76398,.48743,18.76263-8.87207c1.008-4.72046,.6673-9.77515-1.11932-13.66895Zm-13.89679-2.02795c.63867,0,1.14612,.49109,1.21027,1.11279,2.06873-.3595,4.07458-.18958,5.13074-.04553l.00562,.00061-.00012,.00024c.14777,.02014,.27399,.03931,.38165,.05676,.05829-.62781,.56964-1.12488,1.21271-1.12488,.68201,0,1.23492,.55286,1.23492,1.23499,0,.21875-.07214,.41345-.17194,.59167,.81061,.43408,1.47015,1.02466,1.90594,1.68713l.77295-.03674c.21643-.01074,.4007,.1571,.41101,.3739,.01025,.21655-.1571,.40063-.37384,.41089l-.41626,.01978c.23474,.625,.27942,1.26929,.073,1.85986-.02545,.07275-.07092,.1322-.10278,.20093l.41583,.13721c.20599,.06812,.31787,.29028,.24982,.49634-.0545,.16504-.20801,.26965-.37299,.26965-.04083,0-.08234-.00635-.12323-.0199l-.63922-.21106c-.93909,.93481-2.67535,1.17395-4.39294,.4668-.5827-.23987-1.09644-.56555-1.5318-.94202v.75977c0,.20386-.16528,.36914-.36914,.36914h-1.25562c-.20386,0-.36908-.16528-.36908-.36914v-.75989c-.43536,.37646-.9491,.70227-1.5318,.94214-1.67957,.69153-3.38074,.48108-4.33368-.40222l-.44354,.14648c-.04083,.01355-.0824,.0199-.12329,.0199-.16479,0-.31842-.10461-.37292-.26965-.06799-.20605,.04388-.42822,.24988-.49634l.19769-.06519c-.04633-.09131-.10504-.17407-.13965-.27295-.2077-.59424-.16235-1.24316,.07635-1.87183l-.16461-.00781c-.2168-.01025-.38409-.19434-.37384-.41089,.01025-.2168,.19318-.3844,.41101-.3739l.52679,.02502c.45911-.69287,1.1629-1.30554,2.02869-1.74133-.07678-.16089-.1275-.33569-.1275-.52576,0-.68213,.55292-1.23499,1.23492-1.23499Zm14.17499,15.27808l-.0199,.0918c-.7937,3.59558-5.12891,5.05774-7.95044,2.69177l-7.08514-5.94116c-.04614-.03857-.06989-.09155-.10846-.13562-.73993,.15393-1.63678,.24573-2.60907,.24573-2.51691,0-4.55731-.6051-4.55731-1.35168,0-.74646,2.04041-1.35168,4.55731-1.35168,1.23761,0,2.35663,.14746,3.17786,.38501,1.73572-1.46155,3.76605-1.04712,5.35071-.27393,1.97095,.96167,4.30853,.78479,6.14563-.41284,1.5908-1.03711,3.68213,.1615,3.60168,2.05884-.05731,1.35107-.22577,2.69604-.50287,3.99377Z" style="fill:#ac8074;"/><g><path d="M35.04407,10.94604c0-1.05591-.8559-1.91187-1.91174-1.91187-.11877,0-.23401,.01416-.3468,.03491,.74573,.88562,1.37311,1.89819,1.88177,3.00684,.23395-.31726,.37677-.70557,.37677-1.12988Z" style="fill:#86584a;"/><path d="M17.229,8.82886c-1.05585,0-1.91174,.85596-1.91174,1.91162,0,.30493,.07788,.58899,.20471,.84473,.54462-.93359,1.19653-1.87231,1.96783-2.72998-.08606-.01196-.17145-.02637-.2608-.02637Z" style="fill:#86584a;"/><g><path d="M12.37329,25.82056c-2.03497,0-3.68463,2.93604-3.68463,6.55786,0,.78748,.08221,1.53894,.22516,2.23853l.00067,.00427h6.91766l.00067-.00427c.14294-.69958,.22516-1.45105,.22516-2.23853,0-3.62183-1.64966-6.55786-3.68469-6.55786Z" style="fill:#6e4944;"/><path d="M4.86493,26.21948c-.59576,0-1.15613,.26575-1.64789,.73096-1.11182,1.05176-1.86975,3.13232-1.86975,5.52979,0,.45361,.0285,.8949,.08112,1.32031,.05756,.46509,.49603,.82068,1.02869,.82068h5.7099l.00067-.00427c.13641-.66772,.2149-1.38513,.2149-2.13672,0-3.45776-1.57489-6.26074-3.51764-6.26074Z" style="fill:#6e4944;"/><path d="M31.84668,19.27344c-1.8371,1.19763-4.17468,1.37451-6.14563,.41284-1.58466-.77319-3.61499-1.18762-5.35071,.27393-.2052,.17273-.40723,.36584-.60291,.59375-.37311,.43433-.33264,1.0603,.03412,1.47888,.03857,.04407,.06232,.09705,.10846,.13562l7.08514,5.94116c2.82153,2.36597,7.15674,.90381,7.95044-2.69177l.0199-.0918c.2771-1.29773,.44556-2.6427,.50287-3.99377,.08044-1.89734-2.01089-3.09595-3.60168-2.05884Z" style="fill:#6e4944;"/><path d="M10.93555,20.10461l2.79791-.21497c.94208-.07227,1.74982-.85388,1.68585-1.79663l-.0014-.01904c-.07642-.99487-.8147-1.79944-1.8324-2.177-.47937-.17773-1.0152-.26953-1.58325-.22583-1.77405,.13623-3.12109,1.43286-3.00867,2.89624l.00153,.01904c.01501,.17529,.06708,.33594,.13489,.48816,.29639,.66553,1.03882,1.08887,1.80554,1.03003Z" style="fill:#6e4944;"/></g></g><g><path d="M19.74744,20.55396c.19568-.22791,.39771-.42102,.60291-.59375-.82123-.23755-1.94025-.38501-3.17786-.38501-2.51691,0-4.55731,.60522-4.55731,1.35168,0,.74658,2.04041,1.35168,4.55731,1.35168,.97229,0,1.86914-.0918,2.60907-.24573-.36676-.41858-.40723-1.04456-.03412-1.47888Z" style="fill:#f7f7f7;"/><path d="M24.65289,15.41797c-.24988,.41992-.58923,.81665-.99689,1.16931v.75989c0,.20386,.16522,.36914,.36908,.36914h1.25562c.20386,0,.36914-.16528,.36914-.36914v-.75977c-.40771-.35266-.74707-.74951-.99695-1.16943Z" style="fill:#fff;"/></g><g><path d="M21.67853,11.21411c-.52472,.08789-1.07568,.17261-1.62231,.39771-.13831,.05688-.26215,.13098-.39313,.1969-.86578,.43579-1.56958,1.04846-2.02869,1.74133l3.8623,.18311c.21674,.01025,.38409,.19434,.37378,.41101-.00995,.21045-.18365,.37427-.39209,.37427l-.01892-.00037-4.22443-.20044c-.23871,.62866-.28406,1.27759-.07635,1.87183,.03461,.09888,.09332,.18164,.13965,.27295l4.37561-1.44482c.20624-.06799,.42822,.04382,.49622,.24976,.06805,.20605-.04382,.42822-.24982,.49634l-4.12982,1.36353c.95294,.8833,2.65411,1.09375,4.33368,.40222,.5827-.23987,1.09644-.56567,1.5318-.94214,.40765-.35266,.74701-.74939,.99689-1.16931l-2.41113-4.29272s1.95972-.37817,4.86975-.01001c-1.05615-.14404-3.06201-.31396-5.13074,.04553-.10083,.01746-.20148,.03284-.30249,.05286l.00024,.00049Z" style="fill:#86584a;"/><path d="M24.65289,15.41797c.24988,.41992,.58923,.81677,.99695,1.16943,.43536,.37646,.9491,.70215,1.5318,.94202,1.71759,.70715,3.45386,.46802,4.39294-.4668l-3.93414-1.29895c-.20599-.06812-.31793-.29028-.24988-.49634,.06805-.20593,.28992-.31787,.49622-.24976l4.15759,1.3728c.03186-.06873,.07733-.12817,.10278-.20093,.20642-.59058,.16174-1.23486-.073-1.85986l-3.97284,.18848-.01892,.00037c-.20837,0-.38208-.16394-.39209-.37427-.01031-.21667,.1571-.40076,.37384-.41101l3.61615-.17139c-.43579-.66248-1.09534-1.25305-1.90594-1.68713-.17139-.09167-.34009-.18689-.52472-.26282-.46234-.19043-1.36902-.37085-1.36902-.37085,0,0-.14081-.02905-.38196-.06812-.10767-.01746-.23389-.03662-.38165-.05676l-2.46411,4.30188Z" style="fill:#86584a;"/></g><path d="M22.24176,11.12524l2.41113,4.29272,2.46411-4.30188,.00012-.00024-.00562-.00061c-2.91003-.36816-4.86975,.01001-4.86975,.01001Z" style="fill:#5e3a34;"/><g><path d="M27.69031,14.14417c.01001,.21033,.18372,.37427,.39209,.37427l.01892-.00037,3.97284-.18848,.41626-.01978c.21674-.01025,.38409-.19434,.37384-.41089-.01031-.2168-.19458-.38464-.41101-.3739l-.77295,.03674-3.61615,.17139c-.21674,.01025-.38416,.19434-.37384,.41101Z" style="fill:#693f33;"/><path d="M27.39056,15.26733c-.06805,.20605,.04388,.42822,.24988,.49634l3.93414,1.29895,.63922,.21106c.04089,.01355,.0824,.0199,.12323,.0199,.16498,0,.31848-.10461,.37299-.26965,.06805-.20605-.04382-.42822-.24982-.49634l-.41583-.13721-4.15759-1.3728c-.2063-.06812-.42816,.04382-.49622,.24976Z" style="fill:#693f33;"/><path d="M21.47839,14.51843c.20844,0,.38214-.16382,.39209-.37427,.01031-.21667-.15704-.40076-.37378-.41101l-3.8623-.18311-.52679-.02502c-.21783-.0105-.40076,.1571-.41101,.3739-.01025,.21655,.15704,.40063,.37384,.41089l.16461,.00781,4.22443,.20044,.01892,.00037Z" style="fill:#693f33;"/><path d="M22.17017,15.26733c-.06799-.20593-.28998-.31775-.49622-.24976l-4.37561,1.44482-.19769,.06519c-.20599,.06812-.31787,.29028-.24988,.49634,.0545,.16504,.20813,.26965,.37292,.26965,.04089,0,.08246-.00635,.12329-.0199l.44354-.14648,4.12982-1.36353c.20599-.06812,.31787-.29028,.24982-.49634Z" style="fill:#693f33;"/></g><g><path d="M29.24963,11.61182c.18463,.07593,.35333,.17114,.52472,.26282,.09979-.17822,.17194-.37292,.17194-.59167,0-.68213-.55292-1.23499-1.23492-1.23499-.64307,0-1.15442,.49707-1.21271,1.12488,.24115,.03906,.38196,.06812,.38196,.06812,0,0,.90668,.18042,1.36902,.37085Z"/><path d="M20.05621,11.61182c.54663-.2251,1.0976-.30981,1.62231-.39771l-.00024-.00049c.10101-.02002,.20166-.0354,.30249-.05286-.06415-.6217-.57159-1.11279-1.21027-1.11279-.68201,0-1.23492,.55286-1.23492,1.23499,0,.19006,.05072,.36487,.1275,.52576,.13098-.06592,.25482-.14001,.39313-.1969Z"/></g><rect width="40" height="40" style="fill:none;"/></svg>