<?xml version="1.0" encoding="UTF-8"?><svg id="Layer_1" xmlns="http://www.w3.org/2000/svg" viewBox="0 0 40 40"><g><path d="m4.389,21.997c0,8.286,6.989,15.003,15.612,15.003s15.611-6.717,15.611-15.003c0-3.998-1.709-7.801-4.362-10.491H8.747c-2.653,2.689-4.359,6.493-4.359,10.491Z" fill="#964018"/><ellipse cx="19.936" cy="14.213" rx="12.042" ry="7.72" fill="#e7e7e7"/><g><path d="m19.936,8.961c-4.524,0-8.192,2.351-8.192,5.252,0,2.511,2.751,4.607,6.424,5.126l2.346-10.358c-.192-.009-.383-.019-.578-.019Z" fill="#23b169"/><path d="m28.128,14.212c0-2.21-2.132-4.098-5.148-4.873l-2.274,10.1c4.162-.249,7.421-2.493,7.421-5.227Z" fill="#23b169"/><path d="m31.845,2.02l-9.345,1.639c-.493.086-.886.46-.997.948l-3.336,14.731c.57.081,1.16.126,1.768.126.26,0,.517-.01.771-.025l2.821-12.533c.13-.573.591-1.012,1.169-1.113l7.576-1.329c.676-.118,1.126-.761,1.008-1.437-.118-.675-.763-1.128-1.437-1.007Z" fill="#767676"/></g></g><rect y="0" width="40" height="40" fill="none"/></svg>