<?xml version="1.0" encoding="UTF-8"?><svg id="Layer_1" xmlns="http://www.w3.org/2000/svg" viewBox="0 0 40 40"><path d="m26.01,10.51c-.29-5.02-4.45-9.01-9.55-9.01S7.19,5.49,6.9,10.51h-.03v5.32c6.27,0,11.35,5.08,11.35,11.34,0,6.04-4.74,10.98-10.71,11.32,6.48-.21,12.14-3.64,15.44-8.74,1.95-3,3.09-6.57,3.09-10.41v-8.83h-.03Zm-6.13,4.24c-1.36,0-2.57-.6-3.41-1.53l-.01.01s-.01-.01-.02-.01c-.84.93-2.05,1.53-3.41,1.53-2.42,0-4.38-1.87-4.55-4.24-.01-.11-.04-.22-.04-.34,0-2.53,2.06-4.58,4.59-4.58,1.37,0,2.59.61,3.43,1.56.84-.95,2.05-1.56,3.42-1.56,2.53,0,4.59,2.05,4.59,4.58,0,.12-.03.23-.04.34-.17,2.37-2.13,4.24-4.55,4.24Z" fill="#d0d6de"/><path d="m19.88,5.59c-1.37,0-2.58.61-3.42,1.56-.84-.95-2.06-1.56-3.43-1.56-2.53,0-4.59,2.05-4.59,4.58,0,.12.03.23.04.34.17,2.37,2.13,4.24,4.55,4.24,1.36,0,2.57-.6,3.41-1.53-.08-.07-.5-.47-.64-.99-.02-.1-.04-.2-.04-.3,0-.73.7-1.31.7-1.31,0,0,.69.58.69,1.31,0,.66-.59,1.21-.68,1.29.84.93,2.05,1.53,3.41,1.53,2.42,0,4.38-1.87,4.55-4.24.01-.11.04-.22.04-.34,0-2.53-2.06-4.58-4.59-4.58Zm-6.85,6.11c-.84,0-1.53-.68-1.53-1.53,0-.84.69-1.53,1.53-1.53.85,0,1.54.69,1.54,1.53,0,.85-.69,1.53-1.54,1.53Zm7.1,0c-.84,0-1.53-.68-1.53-1.53,0-.84.69-1.53,1.53-1.53.85,0,1.53.69,1.53,1.53,0,.85-.68,1.53-1.53,1.53Z" fill="#f0f3f6"/><g><path d="m14.566,10.172c0-.845-.686-1.53-1.532-1.53s-1.532.685-1.532,1.53.686,1.53,1.532,1.53,1.532-.685,1.532-1.53Z"/><path d="m21.665,10.172c0-.845-.686-1.53-1.532-1.53s-1.532.685-1.532,1.53.686,1.53,1.532,1.53,1.532-.685,1.532-1.53Z"/></g><path d="m17.155,11.926c0-.723-.699-1.308-.699-1.308,0,0-.699.586-.699,1.308,0,.106.018.207.044.306.136.524.561.92.637.987.007.006.018.016.018.016,0,0,.011-.01.018-.016.09-.08.68-.624.68-1.292Z"/><g><path d="m32.258,14.135c-.196-.468-.769-.649-1.221-.417l-4.995,2.572v3.051c0,3.841-1.142,7.411-3.088,10.409,1.367-.142,2.731-.525,4.026-1.192,5.293-2.726,7.531-9.031,5.278-14.424Z" fill="#8595aa"/><path d="m18.22,27.167c0-6.259-5.082-11.333-11.35-11.333v22.667c6.269,0,11.35-5.074,11.35-11.333Z" fill="#8595aa"/></g><rect width="40" height="40" fill="none"/></svg>