<?xml version="1.0" encoding="UTF-8"?><svg id="Layer_1" xmlns="http://www.w3.org/2000/svg" viewBox="0 0 40 40"><g><g><circle cx="20.196" cy="15.93" r="9.104" fill="#ffcca8"/><g><ellipse cx="11.887" cy="16.186" rx="3.645" ry="3.418" fill="#ffcca8"/><ellipse cx="28.505" cy="16.186" rx="3.645" ry="3.418" fill="#ffcca8"/></g><path d="m30.492,13.319c.092-6.251-5.286-11.354-11.654-10.67-4.898.526-8.821,4.507-9.282,9.412-.047.499-.059.992-.038,1.476,0,0,.89-.212,1.682,1.507l6.005-6.72s7.291,5.855,12.102,5.536c.106-.007.228-.044.349-.095.321-.181.59-.516.837-.444Z" fill="#333"/><path d="m28.024,28.058l-4.209-1.599c-2.458-.934-5.172-.934-7.63,0l-4.209,1.599c-2.026.77-3.704,2.215-4.766,4.067-.436.76-.712,1.6-.921,2.451l-.538,2.187c-.081.331.169.65.509.65h27.481c.34,0,.591-.319.509-.65l-.538-2.187c-.209-.85-.485-1.691-.921-2.451-1.063-1.851-2.74-3.297-4.766-4.067Z" fill="#ffcca8"/><path d="m17.796,23.323h4.544v2.272c0,1.254-1.018,2.272-2.272,2.272h0c-1.254,0-2.272-1.018-2.272-2.272v-2.272h0Z" fill="#ffcca8"/></g><g><ellipse cx="17.495" cy="15.48" rx=".975" ry="1.17"/><ellipse cx="22.641" cy="15.48" rx=".975" ry="1.17"/></g><path d="m21.281,20.091c.219,0,.375.21.317.422-.185.671-.799,1.164-1.529,1.164s-1.344-.493-1.529-1.164c-.058-.211.097-.422.317-.422h2.425Z" fill="#5c2f17"/><path d="m17.796,24.714l.204,12.698h-6.113l.714-9.325c.051-.672.467-1.262,1.083-1.537l4.112-1.836Z" fill="#e4e7ea"/><path d="m22.327,24.714l.146,12.698h5.763s-.714-9.325-.714-9.325c-.051-.672-.467-1.262-1.083-1.537l-4.112-1.836Z" fill="#e4e7ea"/></g><rect width="40" height="40" fill="none"/></svg>