<svg id="Layer_1" data-name="Layer 1" xmlns="http://www.w3.org/2000/svg" viewBox="0 0 40 40"><defs><style>.cls-1{fill:none;}.cls-2{fill:#86584a;}.cls-3{fill:#c3846c;}</style></defs><rect class="cls-1" width="40" height="40" transform="translate(40 0) rotate(90)"/><path class="cls-2" d="M13.814,13.33h6.3a3.878,3.878,0,0,1,3.878,3.878V24.6a0,0,0,0,1,0,0H13.814a0,0,0,0,1,0,0V13.33A0,0,0,0,1,13.814,13.33Z" transform="translate(5.552 -4.246) rotate(15)"/><path class="cls-3" d="M4,19.109H14.764a0,0,0,0,1,0,0V31.745a0,0,0,0,1,0,0h0A10.764,10.764,0,0,1,4,20.981V19.109A0,0,0,0,1,4,19.109Z"/><path class="cls-3" d="M31.3,17.09l0,0-4.378,2.507c-4.807,2.784-7.472-1.42-7.472-3.288v-.431a4.4,4.4,0,0,1,6.575-3.685c1.949.949,3.67,1.843,5.133,2.577a3.341,3.341,0,0,0,3.993-.371c1.034-1.133,1.237-3.217.013-4.014C29.4,6.631,25.275,4.308,20.543,3.664,12.193,2.529,4,8.662,4,19.109c0,.166.017.323.031.482H4V34.54a1.93,1.93,0,0,0,1.93,1.93h8.93a1.93,1.93,0,0,0,1.93-1.93V31.654a23.624,23.624,0,0,0,13.465-5.9l4.36-3.6A3.04,3.04,0,0,0,31.3,17.09Z"/></svg>