<?xml version="1.0" encoding="UTF-8"?><svg id="Layer_1" xmlns="http://www.w3.org/2000/svg" viewBox="0 0 40 40"><rect width="40" height="40" fill="none"/><g><path d="m35.663,18.94c-.469,0-.876-.203-1.178-.587-1.762-2.236.405-11.505.658-12.554.059-.24.272-.409.52-.409s.461.169.52.409c.253,1.049,2.42,10.317.658,12.554-.302.384-.709.587-1.178.587Zm0-10.485c-.708,3.66-1.218,8.122-.339,9.237.124.158.236.18.339.18s.215-.021.339-.18c.879-1.116.369-5.578-.339-9.237Z" fill="#4c5154"/><path d="m35.917,6.6c.241-.233.377-.545.38-.882.003-.335-.126-.65-.363-.887l-1.109-1.11c-.238-.238-.553-.367-.888-.363-.336.003-.647.138-.881.379l-4.485,4.663,2.682,2.682,4.664-4.483Z" fill="#3d3d3d"/><g><polygon points="31.253 11.083 28.571 8.401 24.051 13.123 26.529 15.601 31.253 11.083" fill="#3d3d3d"/><path d="m3.302,34.8c-.408.425-.401,1.109.015,1.525.301.301.743.387,1.125.258.145-.05.283-.13.401-.244l9.408-8.996-1.947-1.946-9.001,9.403Z" fill="#de3821"/><polygon points="24.051 13.123 12.303 25.397 14.249 27.343 26.529 15.601 24.051 13.123" fill="#c3d0d9"/></g></g></svg>