<svg id="Layer_1" data-name="Layer 1" xmlns="http://www.w3.org/2000/svg" viewBox="0 0 40 40"><defs><style>.cls-1{fill:#ffa938;}.cls-2{fill:#f77f00;}.cls-3{fill:#ffca38;}.cls-4{fill:none;}</style></defs><path class="cls-1" d="M3.624,20V33.863A1.666,1.666,0,0,0,5.29,35.529H9.313a.537.537,0,0,0,.523-.494,4.06,4.06,0,0,1,8.059,0,.537.537,0,0,0,.523.494H34.71a1.666,1.666,0,0,0,1.666-1.666V20Z"/><circle class="cls-2" cx="25.145" cy="25.298" r="3.882"/><path class="cls-3" d="M36.376,20C34.651,9.868,26.114,5.771,23,4.6a2,2,0,0,0-2.011.369L18.37,7.229a.376.376,0,0,0-.035.525,3.637,3.637,0,0,1-5.5,4.756.376.376,0,0,0-.522-.04L3.624,20Z"/><rect class="cls-4" width="40" height="40"/></svg>