<?xml version="1.0" encoding="UTF-8"?><svg id="Layer_1" xmlns="http://www.w3.org/2000/svg" viewBox="0 0 40 40"><rect y="0" width="40" height="40" style="fill:none;"/><g><ellipse cx="20" cy="27.74463" rx="11.17478" ry="7.13415" style="fill:#bababa;"/><ellipse cx="20" cy="20.61048" rx="17.65218" ry="11.31979" style="fill:#d9d9d9;"/><ellipse cx="20" cy="20.93902" rx="13.9587" ry="8.60592" style="fill:#c50;"/><path d="M27.27944,11.10243c0,3.64642-2.95601,5.53834-6.60243,5.53834s-6.60243-1.89192-6.60243-5.53834,2.95601-6.60243,6.60243-6.60243,6.60243,2.95601,6.60243,6.60243Z" style="fill:#4d2000;"/><path d="M20.91338,17.17281c0,3.64642-2.95601,5.63236-6.60243,5.63236s-6.60243-1.98594-6.60243-5.63236,2.95601-6.60243,6.60243-6.60243,6.60243,2.95601,6.60243,6.60243Z" style="fill:#662a00;"/><path d="M32.14263,19.12802c0,3.64642-2.95601,5.2517-6.60243,5.2517s-6.60243-1.60527-6.60243-5.2517,2.95601-6.60243,6.60243-6.60243,6.60243,2.95601,6.60243,6.60243Z" style="fill:#873900;"/></g></svg>