<svg id="Layer_1" data-name="Layer 1" xmlns="http://www.w3.org/2000/svg" viewBox="0 0 40 40"><defs><style>.cls-1,.cls-3{fill:none;}.cls-2{fill:#ef4452;}.cls-3{stroke:#594f41;stroke-miterlimit:10;stroke-width:0.874px;}.cls-4{fill:#594f41;}.cls-5{fill:#64a7ff;}.cls-6{fill:#956759;}.cls-7{fill:#5c2f17;}.cls-8{fill:#b7b7b7;}</style></defs><rect class="cls-1" width="40" height="40"/><path class="cls-2" d="M28.013,6.766s-.4,1.8-3.211,2.68-2.964,2.9-2.918,3.677c0,0,.105,3.534,2.666,3.605S31.72,13.9,31.72,13.9a4.307,4.307,0,0,0,3.223-3.653L32.611,6.706Z"/><line class="cls-3" x1="17.302" y1="5.516" x2="20.005" y2="25.548"/><path class="cls-3" d="M21.4,7.279A3.823,3.823,0,0,1,13.82,8.3"/><polygon class="cls-4" points="17.423 6.417 15.971 5.31 16.961 2.991 18.531 4.964 17.423 6.417"/><polygon class="cls-4" points="13.975 9.452 12.522 8.345 13.513 6.026 15.083 7.999 13.975 9.452"/><polygon class="cls-4" points="21.553 8.43 20.1 7.323 21.09 5.004 22.66 6.977 21.553 8.43"/><path class="cls-5" d="M2.425,19.783S.743,28.434,8.853,30.116c0,0,4.81,10.493,15.98,5.586,6.427-2.823,7.328-11.353,7.328-11.353a9.132,9.132,0,0,1-5.947-2.584,11.108,11.108,0,0,0-6.067,6.188c-2.251,5.077-7.93,3.244-8.53,1.682a7.4,7.4,0,0,0,3.183-7.93L8.553,24.168Z"/><path class="cls-6" d="M19.494,20.284l5.977-5.7a9.9,9.9,0,0,1,2.443-1.907,4.211,4.211,0,0,1,1.7-.6c2.04-.4,4.266.7,5.668,3.366.983,1.871,1.832,3.564,2.252,4.408a1.741,1.741,0,0,1,.135,1.179l-1.6,4.885L34.285,24.5l.548-3.218a1.924,1.924,0,0,0-.243-1.551l-1.3-1.992a66.171,66.171,0,0,0-1.134,6.606,7.846,7.846,0,0,1-5.947-2.584s.51-2.752.9-4.965l-6.282,5.136Z"/><path class="cls-6" d="M20.92,19.359l-1.186-.313a.986.986,0,0,0-.605.032l-.783.3a.7.7,0,0,0-.446.739l.165,1.39a1.057,1.057,0,0,0,1.384.877l1.4-.466Z"/><path class="cls-6" d="M34.336,24.3l-1.613.76a.564.564,0,0,0-.331.571h0a.562.562,0,0,0,.493.5l.206.025a.335.335,0,0,1,.281.432l-.245.8a.7.7,0,0,0,.19.719l.046.043a1.077,1.077,0,0,0,.855.288l.333-.035a1.2,1.2,0,0,0,1.014-.835l.717-2.327Z"/><circle class="cls-6" cx="31.633" cy="8.725" r="3.31"/><ellipse class="cls-6" cx="28.632" cy="8.373" rx="1.243" ry="1.325" transform="translate(16.148 35.467) rotate(-81.563)"/><ellipse class="cls-6" cx="34.607" cy="9.26" rx="1.243" ry="1.325" transform="translate(20.37 42.134) rotate(-81.563)"/><path class="cls-2" d="M35.475,8.335a3.815,3.815,0,0,0-7.462-1.569,4.266,4.266,0,0,0-.1.55s.44-.175.634.524l2.415-2.01s2.309,2.494,4.056,2.636a.415.415,0,0,0,.131-.016C35.275,8.4,35.39,8.3,35.475,8.335Z"/><path class="cls-7" d="M31.846,10.279a.119.119,0,0,1,.09.167.573.573,0,0,1-1.093-.162.121.121,0,0,1,.136-.134Z"/><ellipse cx="30.691" cy="8.463" rx="0.423" ry="0.352" transform="translate(17.816 37.581) rotate(-81.563)"/><ellipse cx="32.611" cy="8.748" rx="0.423" ry="0.352" transform="translate(19.173 39.723) rotate(-81.563)"/><rect class="cls-6" x="30.309" y="11.348" width="1.536" height="1.839" transform="matrix(0.989, 0.147, -0.147, 0.989, 2.136, -4.427)"/><ellipse class="cls-8" cx="28.486" cy="16.728" rx="1.799" ry="2.007" transform="translate(7.759 42.452) rotate(-81.563)"/><ellipse class="cls-8" cx="31.963" cy="17.436" rx="1.799" ry="2.007" transform="matrix(0.147, -0.989, 0.989, 0.147, 10.025, 46.495)"/></svg>