<svg id="Layer_1" data-name="Layer 1" xmlns="http://www.w3.org/2000/svg" viewBox="0 0 40 40"><defs><style>.cls-1{fill:#ffc84d;}.cls-2{fill:#ffa01d;}.cls-3{fill:none;}</style></defs><circle class="cls-1" cx="20" cy="19.374" r="17.5"/><circle cx="15.422" cy="13.01" r="2.114"/><circle cx="24.578" cy="13.01" r="2.114"/><path class="cls-2" d="M23.542,25.107l-4.209.044A3.3,3.3,0,0,0,16.1,28.046l-.925,7.545a1.834,1.834,0,0,0,1.6,2.043l3.906.478a1.831,1.831,0,0,0,1.566-.572l4.37-4.708h0a3.77,3.77,0,0,0,.713-4l-.514-1.24A4.071,4.071,0,0,0,23.542,25.107Z"/><path class="cls-2" d="M18.454,18.3h3.287a0,0,0,0,1,0,0V27A1.644,1.644,0,0,1,20.1,28.645h0A1.644,1.644,0,0,1,18.454,27V18.3A0,0,0,0,1,18.454,18.3Z" transform="translate(40.194 46.942) rotate(-180)"/><rect class="cls-3" width="40" height="40"/></svg>