<?xml version="1.0" encoding="UTF-8"?><svg id="Layer_1" xmlns="http://www.w3.org/2000/svg" viewBox="0 0 40 40"><g><path d="M36.40839,35.86084c-1.21185-2.90796-4.92712-8.71826-15.14813-9.07495v.71387c0,.12549-.07288,.24731-.18475,.3042-1.87128,.9519-3.63489,.26392-4.19238-.00464-.11456-.05518-.18158-.16772-.18158-.29492v-.49634c-9.51709,1.32495-12.5719,7.75562-13.31024,9.8313-.11206,.31519,.12592,.64526,.46039,.64526h31.46265c.83807,0,1.4165-.85034,1.09406-1.62378Z" style="fill:#482ec5;"/><g><path d="M7.64863,23.69872s-1.40049-15.39333,6.04407-18.65589c0,0,2.04651-2.96596,6.61409-2.49141s8.05575,3.99266,9.22414,7.17762c.87038,2.37263,1.73127,7.39556,1.59531,13.21592-.01578,.67565-.37892,1.29506-.95643,1.64611-1.26014,.76599-4.18027,1.74735-10.87144,1.74735-10.97405,0-11.64973-2.6397-11.64973-2.6397Z" style="fill:#333;"/><path d="M22.75857,12.5435c-4.02942-.59898-6.65044-3.26789-7.48948-4.24469-.1141-.13283-.32936-.07468-.3609,.09757-.19554,1.06797-.88987,3.78497-3.09911,5.75439,0,0-.37055,.28327-.78573,.84049-.60988,.81854-.8499,1.86102-.67724,2.86707,.7546,4.39682,4.42982,7.73373,8.85236,7.73373,4.15683,0,7.65346-2.94831,8.68572-6.95343,.51349-2.97491-1.28814-5.52471-5.12562-6.09513Z" style="fill:#956759;"/></g><path d="M16.88312,27.79932c.5575,.26855,2.32111,.95654,4.19238,.00464,.11188-.05688,.18475-.17871,.18475-.3042v-3.11475h-4.55872v3.11938c0,.1272,.06702,.23975,.18158,.29492Z" style="fill:#956759;"/><polygon points="21.09664 11.47474 22.3014 16.40983 24.02658 16.69349 21.09664 11.47474" style="fill:#333;"/><path d="M18.2373,13.62509s1.91994,4.35616,1.83741,4.27364,.96281-.71523,.96281-.71523l-1.67804-3.4111-1.12218-.14731Z" style="fill:#333;"/><path d="M16.20883,17.1645s-.69574-1.07023,.25061-1.66959,1.17007,1.66959,1.17007,1.66959c0,0,6.85256,6.73611,5.92117,7.40017-.43403,.30945-1.10591,.5415-1.67656,.69741,0,0-4.78634-6.13382-5.66529-8.09759Z" style="fill:#333;"/><path d="M32.11225,14.75055c-.60967-.27307-1.31839-.06028-1.70901,.4748l-1.10359,1.51171c-.15091,.20672-.47402,.1382-.53815-.11412l-.13951-.54886-1.41479-5.5c-.20301-.79737-1.05351-1.26205-1.82872-.9496-.62255,.25092-.94224,.95079-.77295,1.61569l.98495,3.86849c.01492,.0586-.06751,.0853-.09048,.02931l-1.9073-4.64853c-.26066-.63528-.93651-1.01264-1.58847-.85074-.81185,.2016-1.22021,1.07412-.9076,1.83606l1.85562,4.5226c.02272,.05538-.05333,.0941-.08465,.0431l-2.3287-3.79256c-.35924-.58507-1.08501-.84576-1.69994-.57692-.76578,.33478-1.02613,1.2661-.59522,1.96786l2.27288,3.70155c.0318,.05178-.03893,.10273-.07721,.05562l-1.86005-2.26722c-.43257-.53224-1.18452-.69231-1.75677-.34146-.71263,.43691-.84668,1.39745-.32782,2.03583l3.54226,4.33717h0l1.92236,2.44994c1.03088,1.29372,2.75483,1.78024,4.26767,1.20437l1.33512-.50821c1.24173-.47266,2.25755-1.39996,2.85006-2.60171l2.46028-4.99-.00155-.00059c.323-.7087,.03466-1.6082-.75872-1.96355Z" style="fill:#855636;"/><path d="M22.80902,24.48507l7.72194-2.49213c.19564-.06314,.40542,.04427,.46856,.23991l5.56108,13.82608c.27463,.68279-.22731,1.42701-.96326,1.42822l-7.83409,.01285-5.19414-12.54637c-.06314-.19564,.04427-.40542,.23991-.46856Z" style="fill:#6453e4;"/><path d="M18.17858,23.35508c-.21023,0-.35957-.20196-.3038-.40466,.17721-.64406,.76707-1.11716,1.46743-1.11716s1.29022,.47311,1.46743,1.11716c.05577,.2027-.09357,.40466-.3038,.40466h-2.32727Z" style="fill:#5c2f17;"/></g><rect x="0" y="0" width="40" height="40" style="fill:none;"/></svg>