<?xml version="1.0" encoding="UTF-8"?><svg id="Layer_1" xmlns="http://www.w3.org/2000/svg" viewBox="0 0 40 40"><path d="M13.21283,11.91615s.24902,2.21675-1.20632,3.90556c-.9023,1.04705-.69398,2.85255,.32303,3.67821h6.94946v-7.98105l-6.06616,.39728Z" style="fill:#fd8d00;"/><path d="M25.34515,11.91615s-.24902,2.21675,1.20632,3.90556c.9023,1.04705,.69398,2.85255-.32303,3.67821h-6.94946v-7.98105l6.06616,.39728Z" style="fill:#fd8d00;"/><g><path d="M27.2937,23.57935c.6178-2.40698-.44794-4.05396-2.06036-5.02612,0,0-.73718-2.4104-3.43158-2.79688l-1.30737-.07715c-.03235,.64087-.55188,1.15393-1.20081,1.15393-.6698,0-1.21271-.54297-1.21271-1.21277v-.0874c-.80414-.05176-4.76917-.03125-7.43451,5.09082-1.73499,3.33374-3.00238,6.40967-3.75775,8.39636-.49854,1.31091,.01746,2.78503,1.22284,3.50208l8.92743,3.66333,.39929,1.18323c.14337,.42468,.54169,.71069,.98993,.71069l10.76831,.00037c1.12256-.68359,2.09698-1.60522,2.82812-2.73853,3.34314-5.18188-.46576-10.55811-4.73083-11.76196Zm-13.63751,5.72827c-.71631-.34937-.99585-1.22607-.61389-1.92554l1.25189-2.29236,1.26624,5.14636-1.90424-.92847Z" style="fill:#472ec3;"/><path d="M30.77816,26.536c-1.05795-.36273-2.05217-.85423-2.98268-1.47453-.45992-.30659-.63627-.89718-.39129-1.39268l.0195-.03944c.45945-.92928,1.58522-1.31018,2.51452-.85076l1.35284,.6688c.92928,.45941,1.31018,1.58518,.85076,2.51445l-.01951,.03947c-.24496,.49548-.82128,.71394-1.34413,.53468Z" style="fill:#fdc64e;"/><path d="M18.10026,31.86704l-.68072,3.94299c-.02554,.14791,.05933,.29267,.20087,.34263l3.87211,1.36677c.9175,.26179,1.90516,.03915,2.6216-.59097l.38432-.33802c.35419-.31152,.57492-.74739,.61644-1.21726l.01983-.22443c.05959-.67453-.36279-1.29816-1.01129-1.4931l-1.76438-.53038c-.21112-.06346-.35211-.26228-.34216-.48251h0c.02747-.60829-.42647-1.13144-1.03256-1.19l-2.59957,.15941c-.14245,.00874-.26021,.11424-.28449,.25487Z" style="fill:#fdc64e;"/></g><rect width="40" height="40" transform="translate(40 40) rotate(-180)" style="fill:none;"/><g><path d="M25.64044,8.56885c-.14807-.02563-.30969,.16577-.50116,.27368-.07477,.03198-.15051,.05481-.21613,.05908-2.97949,.19788-7.4939-3.42773-7.4939-3.42773l-3.5636,3.98755c-.07471,.0835-.20679,.06152-.2608-.03662-.35864-.65112-.72565-.72607-.87067-.72754-.51831,.38477-.85419,.974-.85419,1.6427,0,1.16003,1,2.10999,2.23999,2.12,.72003,1.63,2.19,2.8501,3.97003,3.22998,.02997,.64001,.54999,1.14001,1.19995,1.14001,.65002,0,1.16003-.5,1.20001-1.14001,1.78003-.38989,3.23999-1.60999,3.95001-3.22998,1.23999-.01001,2.23999-.94995,2.23999-2.12,0-.75183-.41644-1.39954-1.03955-1.77112Z" style="fill:#fdc64e;"/><path d="M13.60486,9.4248c.05402,.09814,.1861,.12012,.2608,.03662l3.5636-3.98755s4.5144,3.62561,7.4939,3.42773c.06561-.00427,.14136-.0271,.21613-.05908,.19147-.10791,.35309-.29932,.50116-.27368,.00549,.00098,.01135-.00269,.01685-.00122,.05945-4.04248-3.5755-7.31006-7.74542-6.5293-2.60406,.48755-4.68842,2.59546-5.14551,5.20508-.0824,.47046-.11414,.93384-.09973,1.3855,.0011,.03613,.02979,.06775,.06586,.06812l.00171,.00024c.14502,.00146,.51202,.07642,.87067,.72754Z" style="fill:#fd8d00;"/><g><ellipse cx="17.69832" cy="9.91151" rx=".59993" ry=".71992"/><ellipse cx="20.86596" cy="9.91151" rx=".59993" ry=".71992"/></g><path d="M20.02842,12.75001c.13483,0,.23061,.12953,.19484,.25952-.11365,.41306-.49195,.71648-.94112,.71648s-.82747-.30342-.94112-.71648c-.03577-.13,.06001-.25952,.19484-.25952h1.49257Z" style="fill:#5c2f17;"/></g></svg>