<?xml version="1.0" encoding="UTF-8"?><svg id="Layer_1" xmlns="http://www.w3.org/2000/svg" viewBox="0 0 40 40"><g><circle cx="20" cy="20" r="17.5" style="fill:#ffc84d;"/><g><path d="M30.15863,22.89062c-.09436,.0213-.19946,.03625-.29486,.05701-2.07166,2.28516-5.52637,3.56628-9.44696,3.56628-5.17206,0-8.19312-1.28815-9.84991-3.58612-.06201-.01367-.1308-.02325-.19232-.03717-.41998-.09497-.83472,.19751-.79529,.5871,.49976,4.93872,5.09125,8.80792,10.68738,8.80792s10.18756-3.8692,10.68732-8.80792c.03943-.38959-.37531-.68201-.79535-.5871Z" style="fill:#ff6d00;"/><path d="M20.41681,26.51392c3.92059,0,7.37531-1.28113,9.44696-3.56628-2.81927,.61249-6.09088,.97095-9.59711,.97095-3.54749,0-6.85834-.36487-9.69977-.99078,1.6568,2.29797,4.67786,3.58612,9.84991,3.58612Z" style="fill:#fff;"/></g><g><path d="M17.16095,19.98053l-2.84368-.87278c-.196-.06016-.40905-.02001-.56972,.10734l-2.3311,1.84777c-.40461,.32071-1.00133,.03826-1.00978-.47797l-.04869-2.9742c-.00336-.20499-.10737-.39521-.27814-.50866l-2.47768-1.64601c-.43005-.2857-.34582-.9405,.14253-1.10806l2.81359-.96538c.19392-.06654,.34269-.22424,.39782-.42171l.79981-2.86506c.13882-.49729,.78761-.61952,1.09787-.20685l1.78758,2.37756c.12321,.16387,.31916,.25662,.524,.24803l2.97199-.12469c.51584-.02164,.83259,.55761,.53599,.98022l-1.7088,2.4348c-.11778,.16782-.14544,.38284-.07396,.575l1.03698,2.788c.17999,.48391-.27304,.96415-.76661,.81266Z" style="fill:#fff3b8;"/><path d="M22.83905,19.98053l2.84368-.87278c.196-.06016,.40905-.02001,.56972,.10734l2.3311,1.84777c.40461,.32071,1.00133,.03826,1.00978-.47797l.04869-2.9742c.00336-.20499,.10737-.39521,.27814-.50866l2.47768-1.64601c.43005-.2857,.34582-.9405-.14253-1.10806l-2.81359-.96538c-.19392-.06654-.34269-.22424-.39782-.42171l-.79981-2.86506c-.13882-.49729-.78761-.61952-1.09787-.20685l-1.78758,2.37756c-.12321,.16387-.31916,.25662-.524,.24803l-2.97199-.12469c-.51584-.02164-.83259,.55761-.53599,.98022l1.7088,2.4348c.11778,.16782,.14544,.38284,.07396,.575l-1.03698,2.788c-.17999,.48391,.27304,.96415,.76661,.81266Z" style="fill:#fff3b8;"/></g></g><rect y="0" width="40" height="40" style="fill:none;"/></svg>