<svg id="Layer_1" data-name="Layer 1" xmlns="http://www.w3.org/2000/svg" viewBox="0 0 40 40"><defs><style>.cls-1{fill:none;}.cls-2{fill:#8a94a0;}</style></defs><rect class="cls-1" width="40" height="40"/><path class="cls-2" d="M20.59,14.841a5.648,5.648,0,0,1-1.867,4l-.957.856L3.6,32.736a1.9,1.9,0,0,0-.052,2.716l1,1A1.9,1.9,0,0,0,7.264,36.4L20.305,22.234l.856-.957a5.648,5.648,0,0,1,4-1.867,12.661,12.661,0,0,0,8.685-3.424C37.8,11.972,37.8,7.4,35.18,4.82,32.6,2.205,28.028,2.205,24.014,6.156A12.661,12.661,0,0,0,20.59,14.841Z"/></svg>