<?xml version="1.0" encoding="UTF-8"?><svg id="Layer_1" xmlns="http://www.w3.org/2000/svg" viewBox="0 0 40 40"><g><path d="m14.636,13.822L3.587,25.369c-.029-.058-.058-.107-.087-.163v10.829h33v-12.69c-8.851.234-21.864-9.523-21.864-9.523Z" fill="#ffc84d"/><path d="m4.444,21.476c2.362-5.966,8.488-10.228,15.697-10.228,7.28,0,13.456,4.346,15.766,10.405l.593-.112v-7.431c0-.665-.179-1.327-.559-1.873-3.807-5.473-10.666-8.931-18.3-8.165-5.464.548-10.256,3.286-13.379,7.231-.487.616-.762,1.374-.762,2.159v8.131c.308-.055.622-.099.944-.116Z" fill="#ff9000"/><path d="m35.838,21.476c-2.362-5.966-8.489-10.228-15.697-10.228s-13.335,4.261-15.697,10.228c-.322.017-.635.061-.944.116v3.614c.029.056.058.105.087.163l11.049-11.547s13.014,9.757,21.864,9.523v-1.803c-.217-.031-.438-.053-.662-.065Z" fill="#ff9000"/></g><rect width="40" height="40" fill="none"/></svg>