<?xml version="1.0" encoding="UTF-8"?><svg id="Layer_1" xmlns="http://www.w3.org/2000/svg" viewBox="0 0 40 40"><g><path d="M38.45873,14.63689c-1.83919-.99763-3.08678-2.9332-3.08678-5.15861,0-1.62538,.66522-3.09657,1.74027-4.16086-3.28622,.79913-9.47731,3.39065-14.11787,11.80249l-1.18234-2.15824c-.08403-.15339-.30304-.16157-.39846-.01487l-.64084,2.17335-1.62778,.00121-.55859-2.17455c-.09544-.14672-.31449-.13854-.39853,.01488l-1.18227,2.15823C12.36498,8.70807,6.1739,6.11655,2.88767,5.31742c1.07505,1.06428,1.74027,2.53548,1.74027,4.16086,0,2.22541-1.24759,4.16097-3.08674,5.1587-.07755,.04207-.03704,.15561,.05027,.14187,1.20895-.19018,2.53591-.02269,3.94068,.8058,1.339,.78971,2.35581,2.07442,2.7135,3.57802,.467,1.96309-.06304,3.80783-1.18276,5.15418-.08628,.10375,.0247,.24199,.14705,.18399,1.00647-.47714,2.16893-.68273,3.39371-.51221,1.18849,.16547,2.26571,.78619,3.08393,1.65681l.02881,.03065c.86737,.92292,1.34731,2.13129,1.3473,3.38602l-.00008,5.44694c0,.19259,.26932,.24156,.33823,.0615l1.76816-4.62018c.4463-1.16617,1.57208-1.93824,2.82995-1.94081h0l.02495,.00005c1.25741,.0026,2.38276,.7744,2.8289,1.94015l1.76572,4.61378c.06901,.18032,.33878,.13088,.33823-.06199l-.01578-5.57285c-.00331-1.16912,.44217-2.29567,1.24599-3.15095h0c1.00439-1.0687,2.37141-1.79265,3.84368-1.84461,.98148-.03464,1.91029,.17005,2.73522,.55695,.12835,.0602,.24398-.08391,.1541-.1929-.99133-1.20216-1.5142-2.79754-1.28164-4.51834,.26209-1.9393,1.57181-3.61382,3.3453-4.47155,1.21387-.58707,2.36418-.69518,3.42382-.52843,.08742,.01376,.12795-.09986,.0503-.14199Z" style="fill:#333d4b;"/><ellipse cx="18.57634" cy="19.12858" rx=".93741" ry=".92954" style="fill:#e4e7ea;"/><ellipse cx="21.43725" cy="19.12858" rx=".93741" ry=".92954" style="fill:#e4e7ea;"/></g><rect width="40" height="40" style="fill:none;"/></svg>