<?xml version="1.0" encoding="UTF-8"?><svg id="Layer_1" xmlns="http://www.w3.org/2000/svg" viewBox="0 0 40 40"><g><path d="M25.22985,36.26668H5.88947c-.87207,0-1.57902-.70695-1.57902-1.57902V15.04229H25.22985v21.22439Z" style="fill:#ffd06c;"/><polygon points="25.22985 15.04229 4.31045 15.04229 9.85911 7.53255 30.77851 7.53255 25.22985 15.04229" style="fill:#ffe3a0;"/><path d="M25.22985,15.04229h10.4597v19.64537c0,.87149-.70754,1.57902-1.57902,1.57902h-8.88068V15.04229h0Z" style="fill:#ff9000;"/><polygon points="30.77851 7.53255 35.68955 15.04229 25.22985 15.04229 30.77851 7.53255" style="fill:#ec6700;"/><path d="M10.82235,3.73332H29.81528c.53162,0,.96324,.43161,.96324,.96324v2.836H9.85911v-2.836c0-.53162,.43161-.96324,.96324-.96324Z" style="fill:#ffd06c;"/><ellipse cx="14.28324" cy="26.77642" rx="4.07069" ry="3.83318" style="fill:#fc4500;"/><path d="M18.22321,20.23589c.15146,.04645,.23899,.2048,.18973,.35537-.15827,.48372-.58093,1.50895-1.42987,1.97122-.83692,.45573-1.8538,.23674-2.32699,.09164-.1553-.04762-.23785-.20984-.18703-.36412,.16047-.48721,.58313-1.503,1.42701-1.96252,.83702-.45578,1.85404-.23669,2.32716-.09159Z" style="fill:#076565;"/><polygon points="25.22985 15.04229 28.00418 11.28742 35.68955 15.04229 25.22985 15.04229" style="fill:#f77f00;"/></g><rect y="0" width="40" height="40" style="fill:none;"/></svg>