<?xml version="1.0" encoding="UTF-8"?><svg id="Layer_1" xmlns="http://www.w3.org/2000/svg" viewBox="0 0 40 40"><path d="m10.762,20.388S7.832,7.553,13.746,3.954c0,0,1.391-2.736,5.3-2.854,3.91-.118,7.254,2.455,8.602,5.011,1.004,1.904,2.301,6.046,2.848,10.975.063.572-.173,1.136-.62,1.498-.977.79-3.33,1.95-8.979,2.71-9.264,1.246-10.134-.905-10.134-.905Z" fill="#333"/><path d="m12.754,30.518h14.74v7.678c0,.164-.133.298-.298.298h-14.144c-.164,0-.298-.133-.298-.298v-7.678h0Z" fill="#482ec4"/><path d="m20.123,20.391h0c5.347,0,9.687,4.341,9.687,9.687v5.135H10.435v-5.135c0-5.347,4.341-9.687,9.687-9.687Z" fill="#482ec4"/><g><path d="m5.468,22.499h7.414v14.709h-1.654c-3.179,0-5.76-2.581-5.76-5.76v-8.949h0Z" transform="translate(-5.367 2.214) rotate(-10.666)" fill="#482ec4"/><path d="m4.17,23.312l-2.615-4.466c-.513-.876-.269-2,.562-2.584h0c.879-.617,2.091-.409,2.713.466l.924,1.3c.347.489.926.758,1.524.71l.902-.072c1.475-.118,2.805.888,3.091,2.341l.184.934-7.286,1.372Z" fill="#6e4944"/></g><g><path d="m33.006,22.484h1.654v14.709h-7.414v-8.949c0-3.179,2.581-5.76,5.76-5.76Z" transform="translate(55.464 65.16) rotate(-168.709)" fill="#482ec4"/><path d="m36.028,23.352l2.663-4.438c.523-.871.29-1.997-.534-2.59h0c-.872-.627-2.086-.432-2.718.436l-.938,1.289c-.353.485-.934.748-1.531.694l-.901-.082c-1.474-.134-2.814.858-3.117,2.307l-.194.931,7.271,1.452Z" fill="#6e4944"/></g><rect width="40" height="40" fill="none"/><path d="m22.25,9.256c-3.469-.048-5.985-2.003-6.804-2.733-.111-.099-.287-.026-.294.123-.044.924-.321,3.296-1.963,5.209,0,0-.281.281-.568.799-.422.76-.506,1.667-.246,2.497,1.136,3.626,4.618,6.025,8.351,5.523,3.509-.472,6.126-3.358,6.542-6.856.096-2.57-1.715-4.517-5.019-4.563Z" fill="#6e4944"/><g><ellipse cx="17.333" cy="12.763" rx=".853" ry="1.023" transform="translate(-1.547 2.425) rotate(-7.663)"/><ellipse cx="21.794" cy="12.162" rx=".853" ry="1.023" transform="translate(-1.427 3.015) rotate(-7.663)"/></g><g><path d="m19.247,17.805c-.182.028-.339-.127-.318-.31.067-.582.514-1.072,1.121-1.166s1.182.236,1.422.77c.076.168-.026.363-.209.392l-2.017.314Z" fill="#5c2f17"/><path d="m18.334,19.57h4.208v2.104c0,1.161-.943,2.104-2.104,2.104h0c-1.161,0-2.104-.943-2.104-2.104v-2.104h0Z" fill="#6e4944"/></g></svg>