<?xml version="1.0" encoding="UTF-8"?><svg id="Layer_1" xmlns="http://www.w3.org/2000/svg" viewBox="0 0 40 40"><path d="M10.7625,20.38824S7.83206,7.55325,13.74574,3.95373c0,0,1.39069-2.73609,5.30023-2.85425,3.90955-.11816,7.25359,2.45544,8.60158,5.01129,1.00418,1.90397,2.30134,6.04622,2.8476,10.97484,.06341,.57214-.17278,1.13624-.62041,1.49816-.97673,.78972-3.33026,1.94975-8.97851,2.70967-9.26358,1.24633-10.13374-.9052-10.13374-.9052Z" style="fill:#523725;"/><path d="M12.75416,30.51753h14.74024v7.67814c0,.16442-.13349,.29791-.29791,.29791H13.05208c-.16442,0-.29791-.13349-.29791-.29791v-7.67814h0Z" style="fill:#482ec4;"/><path d="M20.1228,20.39141h.00002c5.34664,0,9.68743,4.34079,9.68743,9.68743v5.13538H10.43537v-5.13538c0-5.34664,4.34079-9.68743,9.68743-9.68743Z" style="fill:#482ec4;"/><g><path d="M5.46757,22.499h7.41409v14.7093h-1.65364c-3.17928,0-5.76045-2.58117-5.76045-5.76045v-8.94885h0Z" transform="translate(-5.3671 2.21396) rotate(-10.66641)" style="fill:#482ec4;"/><path d="M4.17035,23.31222l-2.61484-4.46633c-.51308-.87638-.26852-1.99976,.56243-2.58355h0c.87853-.61721,2.09058-.40909,2.7129,.46583l.92436,1.29957c.34748,.48853,.92624,.75836,1.52383,.71044l.90207-.07233c1.47536-.1183,2.80496,.88843,3.09122,2.34058l.18403,.93352-7.28599,1.37228Z" style="fill:#c2836c;"/></g><g><path d="M33.00579,22.48396h1.65364v14.7093h-7.41409v-8.94885c0-3.17928,2.58117-5.76045,5.76045-5.76045Z" transform="translate(55.46365 65.15984) rotate(-168.7092)" style="fill:#482ec4;"/><path d="M36.02764,23.3521l2.66336-4.43757c.5226-.87074,.2903-1.99672-.53424-2.58953h0c-.87175-.62675-2.086-.43184-2.71781,.43624l-.93847,1.28942c-.35278,.48471-.93445,.74822-1.53148,.69379l-.90123-.08216c-1.47398-.13437-2.81447,.85781-3.11654,2.30675l-.19419,.93146,7.2706,1.45159Z" style="fill:#c2836c;"/></g><rect width="40" height="40" style="fill:none;"/><path d="M22.25041,9.25569c-3.4694-.04799-5.985-2.00325-6.8042-2.7325-.1114-.09917-.2865-.02563-.29356,.12335-.04377,.92372-.32131,3.29608-1.96254,5.20944,0,0-.28063,.2812-.56781,.79873-.42186,.76022-.50607,1.66747-.24606,2.49711,1.13633,3.62581,4.61769,6.02521,8.35091,5.52294,3.50893-.47209,6.12571-3.35798,6.54221-6.85607,.09559-2.56954-1.71481-4.5173-5.01894-4.56299Z" style="fill:#c2836c;"/><g><ellipse cx="17.3328" cy="12.76259" rx=".85259" ry="1.02311" transform="translate(-1.54698 2.42511) rotate(-7.66261)"/><ellipse cx="21.79428" cy="12.16234" rx=".85259" ry="1.02311" transform="translate(-1.42711 3.01464) rotate(-7.66261)"/></g><g><path d="M19.24738,17.80547c-.1822,.02836-.33887-.12652-.31789-.30972,.06669-.58209,.51407-1.0717,1.12105-1.16618s1.18202,.23596,1.4225,.77023c.07568,.16815-.0265,.36333-.2087,.39169l-2.01697,.31398Z" style="fill:#5c2f17;"/><path d="M18.33406,19.57039h4.20804v2.10402c0,1.16124-.94278,2.10402-2.10402,2.10402h0c-1.16124,0-2.10402-.94278-2.10402-2.10402v-2.10402h0Z" style="fill:#c2836c;"/></g></svg>