<svg id="Layer_1" data-name="Layer 1" xmlns="http://www.w3.org/2000/svg" viewBox="0 0 40 40"><defs><style>.cls-1{fill:none;}.cls-2{fill:#b07900;}.cls-3{fill:#cb8c00;}.cls-4{fill:#a16e00;}.cls-5{fill:#e0ad6e;}</style></defs><rect class="cls-1" width="40" height="40"/><path class="cls-2" d="M36.169,24.321c3.911-3.946,4.25-9.95.757-13.41s-9.493-3.066-13.4.881A11.041,11.041,0,0,0,21,15.712,6.539,6.539,0,0,1,17.22,19.53a11.04,11.04,0,0,0-3.9,2.557c-3.911,3.947-4.249,9.951-.757,13.411s9.493,3.065,13.4-.881A11.056,11.056,0,0,0,28.49,30.7a6.537,6.537,0,0,1,3.782-3.818A11.04,11.04,0,0,0,36.169,24.321Z"/><rect class="cls-3" x="30.238" y="18.713" width="5.36" height="2.501" rx="0.946" transform="translate(40.359 57.736) rotate(-132.382)"/><rect class="cls-3" x="23.19" y="18.923" width="5.36" height="2.501" rx="0.946" transform="translate(28.406 52.882) rotate(-132.382)"/><path class="cls-4" d="M21.22,33.368c2.648-3.8,2.562-6.608-.858-12-1.363-2.15-.242-3.406-1.193-3.543-2.878-.414-7.9,2.965-9.949,5.626a8.614,8.614,0,0,0,1.563,11.712C14.248,37.835,18.667,37.037,21.22,33.368Z"/><path class="cls-3" d="M21.053,12.558c.16-5.608-3.733-10.269-8.7-10.41s-9.114,4.29-9.274,9.9a11.154,11.154,0,0,0,.847,4.63A6.6,6.6,0,0,1,3.775,22.1a11.155,11.155,0,0,0-1.109,4.574c-.16,5.608,3.733,10.269,8.7,10.411s9.115-4.29,9.275-9.9a11.151,11.151,0,0,0-.847-4.63,6.6,6.6,0,0,1,.155-5.425A11.159,11.159,0,0,0,21.053,12.558Z"/><rect class="cls-5" x="7.616" y="10.071" width="5.36" height="2.501" rx="0.946" transform="translate(-0.578 0.554) rotate(-3)"/><rect class="cls-5" x="11.66" y="13.553" width="5.36" height="2.501" rx="0.946" transform="translate(-0.755 0.771) rotate(-3)"/><rect class="cls-5" x="8.493" y="26.815" width="5.36" height="2.501" rx="0.946" transform="translate(-1.454 0.623) rotate(-3)"/></svg>