<?xml version="1.0" encoding="UTF-8"?><svg id="Layer_1" xmlns="http://www.w3.org/2000/svg" viewBox="0 0 40 40"><g><path d="m1.33,19.087c.749-4.636,3.048-7.931,9.534-8.01,5.237-.064,5.359-.315,8.749-2.189,3.367-1.862,7.953-3.119,11.921,1.959l.175.025,2.25-1.726c.137-.105.335-.011.341.161l.097,2.967c.004.115.147.166.222.078l3.771-4.387c.131-.152.381-.059.373.142-.068,1.738-.316,6.756-.965,8.377-.789,1.973-2.072,3.058-4.538,3.157-1.845.074-3.051.037-4.364.014-.404-.007-.737.3-.771.702l-1.152,13.617c-.026.511-.205.957-.702.957h-5.759c-.486,0-.88-.394-.88-.88v-2.615c0-3.316-1.175-5.24-4.49-5.318-3.089-.073-4.224,1.056-4.224,4.768v3.323c0,.399-.323.722-.722.722h-4.664c-.479,0-.908-.283-1.088-.727-1.019-2.507-3.749-11.203-3.117-15.116Z" fill="#b7b7b7"/><circle cx="29.258" cy="12.758" r="1.091"/><circle cx="34.722" cy="17.074" r=".587" fill="#383838"/><path d="m27.488,5.854l.276,4.016-5.743-1.557,4.125-3.076c.534-.398,1.296-.048,1.342.617Z" fill="#b7b7b7"/></g><rect width="40" height="40" fill="none"/></svg>