<?xml version="1.0" encoding="UTF-8"?><svg id="a" xmlns="http://www.w3.org/2000/svg" viewBox="0 0 40 40"><rect width="40" height="40" fill="none"/><g><g><path d="M17.547,19.789h7.226c.369,0,.707-.209,.871-.541l7.601-15.345c.32-.646-.15-1.403-.871-1.403h-7.226c-.369,0-.707,.209-.871,.541l-7.601,15.345c-.32,.646,.15,1.403,.871,1.403Z" fill="#1e6ef4"/><path d="M22.453,19.789h-7.226c-.369,0-.707-.209-.871-.541L6.755,3.903c-.32-.646,.15-1.403,.871-1.403h7.226c.369,0,.707,.209,.871,.541l7.601,15.345c.32,.646-.15,1.403-.871,1.403Z" fill="#4592fb"/><circle cx="20" cy="24.378" r="13.122" fill="#8595aa"/><circle cx="20" cy="24.378" r="10.497" fill="#abb7c7"/></g><path d="M19.993,18.131c2.815,0,4.122,1.587,4.122,3.656,0,1.586-.887,2.66-2.116,3.842l-2.364,2.256h4.527v2.084h-7.981v-1.541l3.874-3.842c1.229-1.214,1.494-1.804,1.494-2.629,0-1.151-.654-1.728-1.572-1.728-.933,0-1.541,.716-1.541,1.728l-2.598-.016c.063-2.146,1.789-3.811,4.155-3.811Z" fill="#fff"/></g></svg>