<?xml version="1.0" encoding="UTF-8"?><svg id="Layer_1" xmlns="http://www.w3.org/2000/svg" viewBox="0 0 40 40"><g><path d="M29.65573,16.01425H10.67751c-2.51589,0-4.69601,1.52758-5.2485,3.67822l-1.92816,7.50318v8.49223H36.50086v-10.85508l-1.65262-5.33899c-.63587-2.05357-2.76343-3.47956-5.1925-3.47956Z" style="fill:#ffc84d;"/><path d="M36.50086,11.3194v13.51341l-1.65262-5.33899c-.63587-2.05357-2.76343-3.47956-5.1925-3.47956H10.67751c-2.51589,0-4.69601,1.52758-5.2485,3.67822l-1.92816,7.50318V10.97705s-.21964-3.2832,4.31755-3.2832c0,0,1.93581-3.12702,5.98911-1.85491,0,0,2.96424-2.91519,7.38049-.68929,0,0,3.44824-1.48393,5.62605,.63624,0,0,3.38772-1.0599,4.7791,2.27895,0,0,4.60528,.22318,4.9077,3.19104v.06352Z" style="fill:#ff9000;"/></g><rect width="40" height="40" style="fill:none;"/></svg>