<?xml version="1.0" encoding="UTF-8"?><svg id="Layer_1" xmlns="http://www.w3.org/2000/svg" viewBox="0 0 40 40"><g style="opacity:0;"><rect width="40" height="40" style="fill:none;"/></g><g><path d="M27.23876,37.5H13.06813c-2.30215,0-4.27149-1.65404-4.66913-3.92158L3.15592,3.68037c-.10803-.61602,.36597-1.18037,.99139-1.18037h31.70538c.62542,0,1.09942,.56436,.99139,1.18037l-4.93619,29.89804c-.39765,2.26755-2.36699,3.92158-4.66913,3.92158Z" style="fill:#c8e1ff;"/><path d="M19.966,10.05232c-4.77864,1.96706-8.52367,1.89668-12.33599,.73176l3.9012,22.24523c.13041,.74832,.7773,1.29067,1.53701,1.29067h14.1705c.75971,0,1.4066-.54235,1.53183-1.25859l3.91174-23.69168c-4.1038-1.20735-8.1422-1.14784-12.71629,.6826Z" style="fill:#fff;"/></g></svg>