<?xml version="1.0" encoding="UTF-8"?><svg id="Layer_1" xmlns="http://www.w3.org/2000/svg" viewBox="0 0 40 40"><g><g><path d="m15.653,33.608c-4.73-.797-3.255-4.441-3.255-4.441-2.256.161-2.734-1.616-2.782-2.941,2.575-2.816,5.44-5.052,8.052-5.052,7.058,0,11.302,7.922,11.302,16.327h-11.474c-2.175-.987-1.843-3.892-1.843-3.892Z" fill="#ffa49b"/><path d="m2.222,36.567c1.146-1.965,4.02-6.652,7.394-10.342.048,1.325.526,3.103,2.782,2.941,0,0-1.475,3.644,3.255,4.441,0,0-.332,2.905,1.843,3.892H2.762c-.481,0-.783-.517-.541-.933Z" fill="#e77f77"/></g><g><polygon points="33.853 10.667 33.852 11.376 33.852 10.667 33.853 10.667" fill="#ff7d7d"/><path d="m25.988,30.682c.927,1.949,3.436,2.649,5.269,1.297,1.363-1.006,1.725-2.901.998-4.431l-7.273-15.289s-4.299-8.188,4.966-9.605c.686-.105,1.323-.153,1.913-.154.728,0,1.386.129,1.992.334v7.834s-2.559.459-2.559.459c-.701.126-1.091.884-.785,1.527l6.035,12.687c1.817,3.82.699,8.532-2.859,10.82-4.305,2.768-9.924,1.063-12.051-3.407l4.354-2.071Z" fill="#ffa49b"/><path d="m33.852,10.667V2.834c4.929,1.663,5.708,9.364.126,11.333-.042.015-.084.029-.126.043v-2.834s0-.709,0-.709h0Z" fill="#e77f77"/></g><circle cx="29.246" cy="6.892" r="1.651"/></g><rect width="40" height="40" fill="none"/></svg>