<?xml version="1.0" encoding="UTF-8"?><svg id="Layer_1" xmlns="http://www.w3.org/2000/svg" viewBox="0 0 40 40"><rect width="40" height="40" fill="none"/><g><circle cx="20" cy="20" r="17.5" fill="#ffc84d"/><g><circle cx="13.822" cy="18.64" r="4.758"/><circle cx="12.388" cy="17.59" r="2.327" fill="#fff"/><circle cx="15.51" cy="20.211" r="1.035" fill="#fff"/><circle cx="26.178" cy="18.64" r="4.758"/><circle cx="24.744" cy="17.59" r="2.327" fill="#fff"/><circle cx="27.867" cy="20.211" r="1.035" fill="#fff"/></g><g><path d="m13.453,9.957c1.14-.532,1.676-1.1,2.122-1.607.257-.292.621-.158.618.258-.007.899-.562,2.12-2.056,2.817-1.494.696-2.786.337-3.479-.236-.321-.265-.19-.631.2-.64.675-.015,1.455-.061,2.595-.592Z"/><path d="m26.547,9.957c-1.14-.532-1.676-1.1-2.122-1.607-.257-.292-.621-.158-.618.258.007.899.562,2.12,2.056,2.817,1.494.696,2.786.337,3.479-.236.321-.265.19-.631-.2-.64-.675-.015-1.455-.061-2.595-.592Z"/></g><path d="m20,28.45c-1.729,0-3.042-.327-3.881-.626-.36-.128-.668.287-.444.597.723.998,2.102,2.326,4.325,2.326s3.602-1.329,4.325-2.326c.224-.31-.084-.725-.444-.597-.839.299-2.152.626-3.881.626Z" fill="#ff6d00"/><path d="m29.296,21.373c.751-.306,1.53.464,1.182,1.197-.764,1.606-2.402,2.717-4.299,2.717s-3.535-1.11-4.299-2.717c-.348-.732.431-1.503,1.182-1.197,2.078.847,4.157.847,6.235,0Z" fill="#9fbdf7"/><path d="m16.939,21.373c.751-.306,1.53.464,1.182,1.197-.764,1.606-2.402,2.717-4.299,2.717s-3.535-1.11-4.299-2.717c-.348-.732.431-1.503,1.182-1.197,2.078.847,4.157.847,6.235,0Z" fill="#9fbdf7"/></g></svg>