<?xml version="1.0" encoding="UTF-8"?><svg id="Layer_1" xmlns="http://www.w3.org/2000/svg" viewBox="0 0 40 40"><rect x="-.00002" width="40" height="40" style="fill:none;"/><g><g><path d="M21.79211,19.04419c-.12988-.14868-.25104-.2981-.37396-.44751-.00311,.09229-.01093,.18896-.01685,.28394,.13318,.04517,.26147,.10547,.39081,.16357Z" style="fill:#ff9c00;"/><path d="M34.21448,24.20142c.36517,1.88965-.18365,3.92065-1.64691,5.38403-.96637,.96631-2.18256,1.51074-3.43994,1.67969,1.86377,.01782,3.49817-.47876,4.70178-1.55713h.00006c.07446-.06689,.15802-.12134,.22919-.19238,1.4317-1.43188,1.95386-3.55127,1.69263-5.97217-.13312,.08545-.27008,.17041-.42987,.25024-.35297,.17651-.72589,.30664-1.10693,.40771Z" style="fill:#ff9c00;"/><path d="M9.68103,10.4126c.04254-.02148,.07745-.05176,.12091-.07202,.31744-.14795,.64319-.25146,.97144-.32495,.74481-1.5918,2.49188-4.73975,4.44672-4.1709,.21338,.06226,.4021,.16675,.5802,.28809,.49847-.48535,1.08942-.81445,1.71552-.99268-2.50073-.31128-4.69501,.19873-6.16437,1.66821-.07117,.07104-.12567,.15454-.19238,.22925h-.00006c-.81396,.90845-1.29565,2.06323-1.47797,3.375Z" style="fill:#ff9c00;"/></g><g><path d="M38.2644,15.43555c-1.25568-2.04053-5.33661-1.96191-5.33661-1.96191,0,0,1.13794-1.68726-1.21643-3.41382-1.01434-.7439-2.20197-.72925-3.22626-.47363,.79065,.13794,1.55005,.48706,2.16083,1.0979,1.59106,1.59082,1.59106,4.17041,0,5.76147-.05579,.05591-.12103,.09448-.1792,.14648,1.19861,1.63745,1.94232,3.25244,2.16229,4.5874,.83826,.86597,1.37201,1.91748,1.58545,3.02197,.38104-.10107,.75397-.2312,1.10693-.40771,.15979-.07983,.29675-.16479,.42987-.25024,2.48248-1.59351,.51294-4.06494,.51294-4.06494,0,0,3.25586-2.00244,2.00018-4.04297Z" style="fill:#036d50;"/><path d="M16.09137,12.62988c.47375,1.01587,.55334,2.11328,.30566,3.12354,.68665,.36255,1.27075,.9314,1.62421,1.68945,.22345,.47925,.32812,.98145,.33844,1.47827,.97974-.35938,2.0556-.37622,3.04163-.04053,.00592-.09497,.01373-.19165,.01685-.28394,.03406-1.02075-.09558-1.89087-.33112-2.62988-.56702,.10181-1.14801,.07617-1.70178-.13794-1.8349-.70874-2.65259-3.01709-1.82642-5.15552,.01398-.03613,.03223-.07202,.04718-.10815-.14563-1.49219-.57501-3.59351-1.80573-4.43237-.1781-.12134-.36682-.22583-.5802-.28809-1.95483-.56885-3.7019,2.5791-4.44672,4.1709,2.12164-.47461,4.36133,.56274,5.31799,2.61426Z" style="fill:#036d50;"/></g><path d="M19.38525,15.82886c.55377,.21411,1.13477,.23975,1.70178,.13794,1.31183-.23584,2.53967-1.23315,3.11652-2.72607,.82617-2.13843,.34705-5.323-1.48785-6.03174-1.80377-.69702-4.24249,1.2583-5.10968,3.3562-.01495,.03613-.0332,.07202-.04718,.10815-.82617,2.13843-.00848,4.44678,1.82642,5.15552Zm-.61536-4.6875c.43866-1.1355,1.71472-1.7002,2.8501-1.26147,1.13538,.43848,1.7002,1.7146,1.26147,2.8501-.43866,1.13525-1.71466,1.7002-2.85004,1.26147-1.13538-.43872-1.7002-1.71484-1.26154-2.8501Z" style="fill:#fffefa;"/><path d="M24.08636,21.10425c-.02759,.02759-.04541,.06055-.07233,.08862,.20856,.43677,.34387,.90039,.40875,1.37207,.32025,.03491,.63812,.09644,.9502,.18384,.05646-.06421,.09967-.13574,.16095-.19702,1.54254-1.54248,4.04352-1.54248,5.58606,0,1.54248,1.54248,1.54248,4.04346,0,5.58594-.45203,.45215-.99036,.75537-1.55878,.94238-.09235,.75684-.3313,1.49146-.71924,2.17236,.09491,.00342,.19189,.01172,.28564,.0127,1.25739-.16895,2.47357-.71338,3.43994-1.67969,1.46326-1.46338,2.01208-3.49438,1.64691-5.38403-.21344-1.10449-.74719-2.15601-1.58545-3.02197-.02295-.02368-.03809-.052-.06146-.0752-2.34204-2.34204-6.13922-2.34204-8.4812,0Z" style="fill:#d12030;"/><path d="M29.56122,29.08008c.56842-.18701,1.10675-.49023,1.55878-.94238,1.54248-1.54248,1.54248-4.04346,0-5.58594-1.54254-1.54248-4.04352-1.54248-5.58606,0-.06128,.06128-.10449,.13281-.16095,.19702,.93195,.26123,1.81165,.75684,2.54474,1.48999,1.32239,1.32227,1.8537,3.11865,1.64349,4.84131Z" style="fill:#f56570;"/><path d="M32.57001,21.1001c.02002,.02979,.03998,.05981,.06,.07983-.22003-1.34009-.96002-2.94995-2.16003-4.59009,.05005-.0498,.12006-.08984,.18005-.13989,1.58997-1.59985,1.58997-4.17993,0-5.77002-.61005-.60986-1.37-.95996-2.16003-1.09009-.14001-.02979-.27002-.05981-.39996-.06982,.65997-1.48999,.37994-3.29004-.84003-4.52002-1.59003-1.59009-4.16998-1.59009-5.76001,0-.20996,.21997-.39001,.44995-.54999,.68994-1.02002-.69995-2.28003-.87988-3.41998-.5498-.63,.17993-1.22003,.50977-1.72003,.98975,1.23004,.84009,1.66003,2.94019,1.81,4.44019,.85999-2.1001,3.29999-4.06006,5.10999-3.36011,1.83002,.70996,2.31006,3.89014,1.48004,6.03003-.57001,1.48999-1.79999,2.48999-3.10999,2.72998,.22998,.73999,.35999,1.61011,.32996,2.63013,.12,.1499,.23999,.2998,.37,.43994-.13-.05005-.25995-.11011-.38995-.16016-.98004-.33984-2.06-.31982-3.04004,.04004-.01001-.5-.12-1-.33997-1.47998-.35004-.76001-.94-1.31982-1.62-1.68994,.23999-1.01001,.16998-2.1001-.31-3.12012-.96002-2.0498-3.19-3.08984-5.32001-2.60986-.32001,.06982-.65002,.16992-.97003,.31982-.03998,.02002-.08002,.05029-.12,.07007-.56,4.07007,1.79999,9.67993,6.45001,14.33008,.16998,.16992,.34998,.33008,.52997,.5,3.95001,3.73999,8.49005,5.86987,12.18005,6.01001,.38995-.67993,.62994-1.41016,.71997-2.16992,.21002-1.72021-.32001-3.52002-1.64001-4.84009-.73999-.72998-1.62-1.22998-2.54999-1.48999-.31-.09009-.63-.1499-.95001-.18994-.06-.47021-.20001-.93018-.40997-1.37012,.02997-.03003,.04999-.06006,.08002-.08984,2.33997-2.34009,6.13995-2.34009,8.47998,0Zm-4.89001-5.11011l.23999-.46997c.17999-.3501,.60004-.47998,.95001-.31006l.47003,.25c.34998,.16992,.47998,.6001,.29999,.94995l-.23999,.46021c-.17004,.34985-.60004,.48975-.95001,.30981l-.47003-.23999c-.33997-.17993-.47998-.6001-.29999-.94995Zm-4.84998,3.86011c-.37,.12988-.77002-.07007-.90002-.44019l-.12-.35986-.04999-.14014c-.13-.36987,.07001-.76978,.42999-.88989l.5-.18018c.37-.11987,.77002,.07007,.90002,.44019l.16998,.5c.13,.36987-.06,.77002-.42999,.8999l-.37,.12012-.13,.05005Z" style="fill:#23b169;"/><g><path d="M20.03143,13.99146c1.13538,.43872,2.41138-.12622,2.85004-1.26147,.43872-1.1355-.1261-2.41162-1.26147-2.8501-1.13538-.43872-2.41144,.12598-2.8501,1.26147-.43866,1.13525,.12616,2.41138,1.26154,2.8501Z" style="fill:#ffd900;"/><rect x="27.69204" y="15.22856" width="1.9391" height="1.93902" rx=".70585" ry=".70585" transform="translate(1.17907 34.32471) rotate(-62.88057)" style="fill:#ffd900;"/><path d="M21.93079,19.41187c.1275,.36841,.52942,.56372,.89777,.43628l.12933-.04492,.3692-.12769c.36835-.12769,.5636-.52954,.4361-.89771l-.17255-.49854c-.1275-.36841-.52942-.56372-.89777-.43628l-.49854,.17261c-.36835,.12744-.5636,.5293-.4361,.89771l.0473,.13672,.12524,.36182Z" style="fill:#ffd900;"/></g><path d="M29.12762,31.26514c-.09375-.00098-.19073-.00928-.28564-.0127-3.69525-.1377-8.23578-2.26758-12.18109-6.01172-.17725-.16797-.3576-.32788-.53223-.50244-4.64929-4.64941-7.01337-10.25537-6.44763-14.32568,.18231-1.31177,.664-2.46655,1.47797-3.375h.00006c.01758-.04077,.0293-.06616,.0293-.06616l-2.90997,2.90991c-6.27039,6.27051-6.27045,16.43677,0,22.70728,6.27045,6.27026,16.43677,6.27026,22.70715,0l2.90997-2.90991s-.02545,.01172-.06604,.0293h-.00006c-1.20361,1.07837-2.83801,1.57495-4.70178,1.55713Z" style="fill:#ffc450;"/></g></svg>