<?xml version="1.0" encoding="UTF-8"?><svg id="Layer_1" xmlns="http://www.w3.org/2000/svg" viewBox="0 0 40 40"><g><g><path d="m21.229,17.566c-1.278-.006-2.464-.372-3.449-.999l1.641,6.589c.326,1.311,1.503,2.231,2.854,2.231h6.665c-3.43-1.578-6.184-4.363-7.712-7.821Z" fill="#333"/><path d="m22.341,3h-4.793c-.112.569-.203,1.144-.258,1.73-.08.85-.1,1.688-.065,2.512,0,0,.071-.009.172-.01.411-.002,1.54.225,2.602,2.411.029.06.059.1.088.164l3.163-3.54,2.919-3.267h-3.829Z" fill="#333"/><path d="m29.399,9.337c-.911,0-1.649.886-1.649,1.98s.738,1.979,1.649,1.979,1.649-.887,1.649-1.979-.738-1.98-1.649-1.98Z"/><path d="m35.401,31.611c-.074.004-.143.022-.218.022-1.907,0-3.482-1.383-3.799-3.199-.951.196-1.892.455-2.81.803l-7.164,2.722c-2.725,1.035-5.069,2.797-6.83,5.042h20.821v-5.389Z" fill="#abb7c7"/><path d="m35.401,26.811h0v-4.068c-1.232,0-2.271-.833-2.582-1.967-.098-.356.164-.71.533-.71h2.049V3h-9.231l-2.919,3.267-3.163,3.54c-.029-.063-.059-.104-.088-.164-1.062-2.186-2.191-2.414-2.602-2.411-1.416,1.066-2.34,2.684-2.34,4.52,0,2.003,1.08,3.769,2.723,4.816.984.626,2.171.993,3.449.999,1.527,3.458,4.282,6.243,7.711,7.821.761.35,1.555.638,2.377.863v1.517c0,.229.029.449.067.667h.002s0,0-.001,0c.317,1.816,1.892,3.199,3.799,3.199.075,0,.145-.018.218-.022v-3.551s-.001,0-.002,0h.002v-1.248Zm-6.002-13.516c-.911,0-1.649-.887-1.649-1.979s.738-1.98,1.649-1.98,1.649.886,1.649,1.98-.738,1.979-1.649,1.979Z" fill="#ffcca8"/><path d="m33.352,20.066c-.369,0-.631.354-.533.711.311,1.134,1.35,1.967,2.582,1.967v-2.678h-2.049Z" fill="#5c2f17"/><path d="m10.606,28.979c.336-.934.943-1.746,1.743-2.332l3.013-2.206,5.282-3.867c.518-.379,1.238-.309,1.673.163h0c.44.477.446,1.21.015,1.694l-3.427,3.849,1.11,1.244c.481.539.678,1.275.53,1.983l-.726,3.466c-.208.992-.856,1.836-1.76,2.294l-3.257,1.647-6.73-.89,2.534-7.046Z" fill="#ffcca8"/><polygon points="16.731 37 7.592 32.115 4.599 37 16.731 37" fill="#abb7c7"/></g><rect width="40" height="40" fill="none"/></g><g><path d="m11.292,21.943c-.096,0-.193-.019-.287-.058-2.647-1.097-3.909-4.144-2.813-6.792.159-.383.596-.561.98-.406.382.159.564.598.406.98-.78,1.884.118,4.052,2.001,4.833.383.158.564.597.406.979-.12.289-.399.463-.693.463Z" fill="#cecfcf"/><path d="m9.797,24.466c-.095,0-.192-.019-.287-.057-1.847-.766-3.286-2.204-4.051-4.051-.765-1.848-.765-3.882,0-5.729.159-.383.597-.562.98-.406.383.159.564.598.406.98-.612,1.477-.612,3.104,0,4.581.612,1.477,1.762,2.627,3.239,3.238.382.159.564.598.406.98-.12.289-.399.463-.693.463Z" fill="#cecfcf"/></g></svg>