<svg id="Layer_1" data-name="Layer 1" xmlns="http://www.w3.org/2000/svg" viewBox="0 0 40 40"><defs><style>.cls-1{fill:#c3846c;}.cls-2{fill:#523725;}.cls-3{fill:none;}</style></defs><ellipse class="cls-1" cx="20" cy="21.567" rx="13.42" ry="15.433"/><ellipse class="cls-1" cx="8.823" cy="22.296" rx="5.372" ry="5.039"/><ellipse class="cls-1" cx="31.177" cy="22.296" rx="5.372" ry="5.039"/><ellipse cx="16.23" cy="21.27" rx="1.428" ry="1.714"/><ellipse cx="23.77" cy="21.27" rx="1.428" ry="1.714"/><path class="cls-2" d="M34.666,13.583c-.67-3.229-4.509-8.834-11.637-10.3A12.394,12.394,0,0,0,11.7,6.432C3.9,8.358,4.843,19.238,4.843,19.238L6.93,21.019a28.714,28.714,0,0,0,.556,6.16C9.439,32.928,14.3,37,19.992,37c5.706,0,10.581-4.1,12.521-9.871l-3.886,2.789-.011.008,3.9-2.8a28.967,28.967,0,0,0,.52-5.988L35.176,19.2A23,23,0,0,0,34.666,13.583ZM31.783,23.966a10.669,10.669,0,0,1-3.213,5.991,1.479,1.479,0,0,1-1.848.083,11.535,11.535,0,0,0-6.853-2.418,9.836,9.836,0,0,0-6.288,2.3,1.854,1.854,0,0,1-2.183.044,10.615,10.615,0,0,1-3.228-6c-.347-1.9,1.229-5.345,1.7-6.316L10,17.394,10,17.38h0A70.054,70.054,0,0,0,13.19,9.144s1.767,5.393,10.916,5.276c4.861-.063,6.846,2.041,7.644,4.027A16.5,16.5,0,0,1,31.783,23.966Z"/><path class="cls-1" d="M21.284,30.469a.775.775,0,0,1,.677,1.154,2.325,2.325,0,0,1-4.034,0,.775.775,0,0,1,.678-1.154Z"/><rect class="cls-3" width="40" height="40"/></svg>