<?xml version="1.0" encoding="UTF-8"?><svg id="Layer_1" xmlns="http://www.w3.org/2000/svg" viewBox="0 0 40 40"><g><circle cx="20" cy="23.1155" r="13.3845" style="fill:#956759;"/><g><ellipse cx="7.78496" cy="23.49128" rx="5.35812" ry="5.02544" style="fill:#956759;"/><ellipse cx="32.21504" cy="23.49128" rx="5.35812" ry="5.02544" style="fill:#956759;"/></g><g><ellipse cx="16.2397" cy="22.46801" rx="1.42436" ry="1.70923"/><ellipse cx="23.7603" cy="22.46801" rx="1.42436" ry="1.70923"/></g><path d="M21.77183,29.20719c.32011,0,.5475,.30752,.46258,.61616-.26983,.98068-1.16799,1.70107-2.23442,1.70107s-1.96459-.72038-2.23442-1.70107c-.08492-.30864,.14248-.61616,.46258-.61616h3.54367Z" style="fill:#5c2f17;"/><path d="M35.42437,19.27759c.13515-9.18949-7.7707-16.69249-17.13342-15.68702-7.20088,.77331-12.96737,6.62586-13.64641,13.83624-.06909,.73364-.08675,1.45796-.05617,2.16978,0,0,5.00947,.29991,9.48662-5.31429,0,0,2.9668,3.19796,5.92502,3.19796s5.65872-3.19796,5.65872-3.19796c0,0,2.28638,4.98627,9.76565,4.99529Z" style="fill:#333;"/></g><rect width="40" height="40" style="fill:none;"/></svg>