<?xml version="1.0" encoding="UTF-8"?><svg id="Layer_1" xmlns="http://www.w3.org/2000/svg" viewBox="0 0 40 40"><g><path d="m36.962,4.229c-.797-.92-2.189-1.02-3.109-.223-.287.248-2.575,2.514-5.588,5.513-1.883,1.874-4.048,4.035-6.185,6.17l2.15,1.083c2.197-1.645,4.386-3.286,6.308-4.73,1.868-1.404,3.472-2.612,4.588-3.459l-.195-1.563c-.597-.087-1.064-.58-1.064-1.201,0-.682.553-1.236,1.236-1.236s1.236.553,1.236,1.236c0,.313-.127.592-.319.81l.145,1.162c.3-.231.507-.393.574-.451.92-.797,1.02-2.188.223-3.109Z" fill="#abb7c7"/><g><path d="m31.71,28.15c-.72,1.4-1.66,2.68-2.76,3.78l-7.72-3.88-10.12-5.1-8.41-4.24c.24-1.58.72-3.09,1.4-4.47l9.5,4.78,10.13,5.1,7.98,4.03Z" fill="#e32939"/><path d="m17.267,13.253l.095.061,4.717,2.376c2.138-2.135,4.303-4.296,6.185-6.17-2.736-2.442-6.334-3.939-10.29-3.939-3.578,0-6.864,1.226-9.485,3.265l8.77,4.417.006-.01Z" fill="#e32939"/><path d="m28.53,32.36c.146-.136.279-.284.419-.425l.011.005c-.14.14-.28.28-.43.42Z" fill="#e32939"/><path d="m32.03,27.5c-.1.22-.2.43-.31.65h-.01c.11-.21.22-.43.32-.65Z" fill="#e32939"/><path d="m33.37,22.64c-.16,1.58-.57,3.08-1.17,4.49l-7.86-3.97-10.13-5.1-9.58-4.82c.79-1.34,1.78-2.55,2.92-3.6l9.1,4.58,10.13,5.1,3.4,1.71,1.27.65,1.92.96Z" fill="#e32939"/><path d="m32.21,27.13c-.055.124-.12.248-.179.372.057-.125.115-.25.169-.377l.01.005Z" fill="#e32939"/><path d="m28.065,32.758c.154-.134.316-.258.465-.398-.15.13-.31.26-.46.4l-.005-.002Z" fill="#e32939"/><path d="m28.07,32.76c-2.71,2.34-6.23,3.77-10.09,3.77-8.55,0-15.48-6.93-15.48-15.47,0-.39.03-.77.06-1.15l7.94,4,10.12,5.1,7.45,3.75Z" fill="#e32939"/><path d="m33.41,20.3c.02.25.04.5.04.76,0,.53-.03,1.06-.08,1.58.04-.4.05-.82.06-1.23l-.85-.43-1.16-.59-7.19-3.62c2.2-1.64,4.39-3.28,6.31-4.73,1.42,1.97,2.37,4.29,2.74,6.8,1.68-1.84,2.58-4.38,2.25-7.05l-.4-3.21-.2-1.56-.06-.48c-.04-.31.18-.59.49-.63.32-.04.59.18.63.49l.03.23.14,1.16.49,3.86c.42,3.36-.9,6.54-3.24,8.65Z" fill="#e32939"/><polygon points="17.261 13.263 17.362 13.314 17.267 13.253 17.261 13.263" fill="#e32939"/></g><g><path d="m26.777,19.321l3.401,1.713,1.273.641,1.917.966c.042-.406.054-.819.064-1.234l-.852-.429-1.165-.587-7.186-3.619-2.15-1.083-4.717-2.376-.101-.051-8.77-4.417-.01-.005c-.044.034-.083.073-.126.107-.204.163-.402.333-.597.506-.07.062-.144.118-.213.181l.009.005,9.098,4.582,10.126,5.099Z" fill="#bb1b2a"/><path d="m23.727,24.122l7.989,4.023c.173-.334.342-.671.491-1.019l-7.87-3.964-10.126-5.1-9.576-4.823-.006-.003c-.021.035-.038.073-.058.108-.146.253-.283.511-.415.773-.02.039-.042.076-.062.115l.005.003,9.502,4.785,10.126,5.1Z" fill="#bb1b2a"/><path d="m20.623,29.006l7.448,3.751c.305-.263.607-.531.89-.818l-7.729-3.892-10.126-5.099-8.411-4.236h-.002c-.003.016-.003.033-.006.05-.056.374-.102.752-.13,1.135,0,.004,0,.007-.001.011h0s7.94,3.999,7.94,3.999l10.126,5.099Z" fill="#bb1b2a"/></g></g><rect width="40" height="40" fill="none"/></svg>