<svg id="Layer_1" data-name="Layer 1" xmlns="http://www.w3.org/2000/svg" viewBox="0 0 40 40"><defs><style>.cls-1{fill:#d12030;}.cls-2{fill:#941722;}.cls-3{fill:none;}</style></defs><path class="cls-1" d="M19.393,37.482l-6.927-1.126A1.409,1.409,0,0,1,11.3,34.729L13.79,20.042l8.823,1.433L21.021,36.241A1.411,1.411,0,0,1,19.393,37.482Z"/><polygon class="cls-2" points="21.525 31.567 21.827 28.771 13.571 21.331 12.377 28.379 21.525 31.567"/><path class="cls-1" d="M33.208,9.086,31.07,5.674A6.769,6.769,0,0,0,25.335,2.5H14.261A6.769,6.769,0,0,0,8.388,5.9L6.774,8.722a7.382,7.382,0,0,0,.377,7.948L18.66,29.345a4.527,4.527,0,0,0,6.822-.137l2.545-3.04a2.36,2.36,0,0,0-.02-3.052l-.116-.134,5.063-6.609A6.475,6.475,0,0,0,33.208,9.086Zm-14.84,2.263H22.6l-1.8,3.366Z"/><path class="cls-2" d="M26.806,4.226A4.958,4.958,0,0,0,24.247,3.5H15.385a4.964,4.964,0,0,0-2.574.738l5.557,7.109H22.6Z"/><polygon class="cls-2" points="29.727 20.585 27.891 22.982 20.806 14.715 29.727 20.585"/><rect class="cls-3" width="40" height="40"/></svg>