<?xml version="1.0" encoding="UTF-8"?><svg id="Layer_1" xmlns="http://www.w3.org/2000/svg" viewBox="0 0 40 40"><g><path d="M22.82184,3.02607h0c-2.35411-.70143-4.86163-.70143-7.21575-.00001l-.00005,.00002c-1.65612,.49345-3.03588,1.23284-3.81465,2.77548l-2.64239,5.23427H29.27886l-2.64239-5.23428c-.77876-1.54264-2.15852-2.28202-3.81463-2.77548Z" style="fill:#b37a25;"/><ellipse cx="19.55697" cy="16.10267" rx="16.02582" ry="7.04476" style="fill:#8c601d;"/><path d="M26.99337,28.80992l-3.91052-1.48564c-2.28304-.86734-4.80488-.86734-7.08792,0l-3.91048,1.48562c-1.8823,.7151-3.44056,2.058-4.4279,3.77804-.40508,.70568-.66158,1.48681-.85601,2.27692l-.49988,2.0314c-.07557,.30712,.1569,.60374,.47318,.60374h25.42303c.3063,0,.53665-.27924,.47841-.57995l-.39803-2.05525c-.19443-.7901-.45094-1.57121-.85601-2.27688-.98734-1.72002-2.54559-3.0629-4.42788-3.778Z" style="fill:#e6e6e6;"/><path d="M17.51136,23.84536h4.07644v3.86911c0,1.12492-.9133,2.03822-2.03822,2.03822h0c-1.12492,0-2.03822-.9133-2.03822-2.03822v-3.86911h0Z" style="fill:#ffc84d;"/><path d="M11.90254,21.27526c-.70108-.00333-1.35185-.20439-1.89185-.54827l.90018,3.61482c.17905,.71905,.82481,1.22372,1.56581,1.22372h3.65628c-1.88167-.86562-3.39252-2.39342-4.23042-4.29026Z" style="fill:#ff9000;"/><path d="M23.22114,25.56552h3.61612c.79406,0,1.4701-.57771,1.59389-1.36202l.5168-3.27355c-.45274,.21254-.95627,.34275-1.49639,.34531-.8379,1.89684-2.34875,3.42464-4.23042,4.29026Z" style="fill:#ff9000;"/><path d="M29.28041,15.40988c-.22765-.05633-.47635,.24728-.77187,.41377-.11272,.04824-.22693,.08256-.32586,.08917-.0762,.00506-.15787-.00422-.23538-.00244-.79566,.01844-1.65236-.12171-2.53089-.38213-2.70078-.8006-5.55342-2.62999-7.18139-3.78101-.87555,.05354-1.7172,.15633-2.51739,.30135l-2.70619,3.02824-1.73528,1.94169c-.01588-.0345-.03212-.05675-.04806-.08958-.58295-1.19933-1.20218-1.32395-1.42757-1.3227-.77675,.58491-1.28391,1.472-1.28391,2.47902,0,1.09898,.5927,2.06762,1.49407,2.64171,.54,.34388,1.19076,.54494,1.89185,.54827,.8379,1.89684,2.34875,3.42464,4.23042,4.29026,1.07988,.49676,2.27748,.78139,3.54409,.78139s2.46421-.28463,3.54409-.78139c1.88167-.86562,3.39252-2.39342,4.23042-4.29026,.54012-.00256,1.04366-.13277,1.49639-.34531,1.11599-.5237,1.88953-1.5946,1.88953-2.84467,0-1.12331-.62185-2.10658-1.55707-2.67538Zm-11.99149,3.11104c-.49955,0-.90458-.48599-.90458-1.08547,0-.59954,.40503-1.08553,.90458-1.08553,.49961,0,.90458,.48599,.90458,1.08553,0,.59949-.40497,1.08547-.90458,1.08547Zm4.77625,0c-.49961,0-.90464-.48599-.90464-1.08547,0-.59954,.40503-1.08553,.90464-1.08553,.49955,0,.90458,.48599,.90458,1.08553,0,.59949-.40503,1.08547-.90458,1.08547Z" style="fill:#ffc84d;"/><path d="M12.83145,12.82272c-1.01663,.37761-1.89385,.83606-2.58865,1.35682-.32351,.24247-.52669,.61285-.54028,1.01691-.0057,.16947-.00749,.33672-.00102,.48735,0,0,.04342-.07727,.09904-.07757,.2308-.00128,.87459,.12943,1.46949,1.41101l.00612,.00125,1.7353-1.94168,2.70619-3.02824c-1.04639,.18958-2.01653,.45113-2.88619,.77413Z" style="fill:#ff9000;"/><path d="M29.28461,14.92018c-.01286-.36659-.17438-.72059-.4769-.92805-.63512-.43556-1.39991-.82351-2.27127-1.15097-1.89779-.71322-4.2814-1.14216-6.8782-1.14216-.48331,0-.95609,.01969-1.42323,.04824,1.62797,1.15103,4.48061,2.98041,7.18139,3.78101,.87853,.26042,1.73522,.40057,2.53089,.38213,.07751-.00178,.15918,.0075,.23538,.00244,.09892-.0066,.21313-.04093,.32586-.08917,.29552-.1665,.54422-.47011,.77187-.41377l.00922-.00065c.0024-.16392,.00067-.32695-.00502-.48905Z" style="fill:#ff9000;"/><path d="M17.28893,16.34994c-.49955,0-.90458,.48599-.90458,1.08553,0,.59949,.40503,1.08547,.90458,1.08547,.49961,0,.90458-.48599,.90458-1.08547,0-.59954-.40497-1.08553-.90458-1.08553Z"/><path d="M22.06518,16.34994c-.49961,0-.90464,.48599-.90464,1.08553,0,.59949,.40503,1.08547,.90464,1.08547,.49955,0,.90458-.48599,.90458-1.08547,0-.59954-.40503-1.08553-.90458-1.08553Z"/><path d="M20.80232,21.71539h-2.25054c-.20332,0-.34769,.19529-.29379,.39129,.17137,.62286,.74177,1.08036,1.41906,1.08036,.67723,0,1.24769-.4575,1.419-1.08036,.05395-.196-.09048-.39129-.29373-.39129Z" style="fill:#5c2f17;"/><path d="M27.05038,28.66745l-1.93186-.70277c-.08289-.03016-.17055,.03123-.17055,.11944v5.43306c0,.29009-.23517,.52526-.52526,.52526H14.56287c-.29009,0-.52526-.23517-.52526-.52526v-5.43306c0-.08821-.08765-.1496-.17055-.11944l-1.93184,.70274c-.10255,.0373-.17081,.13477-.17081,.2439v8.58867h15.45676v-8.58867c0-.10911-.06825-.20657-.17079-.24387Z" style="fill:#8a8a8a;"/><g><path d="M30.16979,29.93776l.4388-.46203c.42277-.44515,.64286-1.0358,.65558-1.65044,.00753-.36388,.08795-.75954,.35306-1.00492,.21539-.19936,.44611-.29719,.653-.3408,.34136-.07197,.60636-.33611,.63993-.68194,.04315-.4446,.20802-.99419,.71654-1.30752,.50942-.31389,.83-.06269,1.07555,.06183,.24075,.12209,.50205,.02723,.77053,.00782,.27251-.0197,.60281,.02868,.83393,.30101,.26969,.31777,.15296,.70374,.0089,.97018-.11348,.20988-.16854,.44619-.14282,.68413,.04269,.39503-.01243,1.02384-.66052,1.43538-.29465,.18711-.72648,.29146-.88199,.60308-.26738,.53578-.84481,1.26846-1.9379,.98167-.39293-.10309-.80787-.07291-1.15919,.12586l-1.08389,.84703-.2795-.57033Z" style="fill:#0c3822;"/><path d="M29.91851,30.27315l.15208-.70427c.14602-.67621,.01815-1.37573-.32699-1.97529-.20603-.3579-.36133-.79079-.24917-1.18594,.09068-.31949,.25521-.54947,.42834-.71291,.28514-.26917,.38548-.67977,.21682-1.03376-.21712-.45571-.37874-1.08461-.07331-1.68607,.30583-.60223,.66679-.66224,.97446-.68552,.30166-.02283,.58916-.1523,.83517-.32835,.24971-.17869,.59435-.32532,.97408-.19708,.44352,.14979,.55569,.59254,.57225,.93498,.01301,.26898,.09737,.52941,.25996,.74408,.29435,.38863,.54883,1.37445-.26285,2.21786-.17604,.18292-.25242,.4429-.16457,.68109,.21869,.59294,.41917,1.7011-.91394,2.09561-.43442,.12856-.81151,.40293-1.03151,.79896l-.79161,1.425-.59923-.38838Z" style="fill:#19705c;"/><path d="M24.94795,37.49999l2.45809-7.36753c.23318-.69891,1.03652-1.0231,1.68949-.6818l2.57733,1.34716c.65297,.3413,.84536,1.18595,.40461,1.77638l-3.67707,4.92581h-3.45245Z" style="fill:#ff6637;"/></g></g><rect width="40" height="40" style="fill:none;"/></svg>