<svg id="Layer_1" data-name="Layer 1" xmlns="http://www.w3.org/2000/svg" viewBox="0 0 40 40"><defs><style>.cls-1{fill:none;}.cls-2{fill:#aba8a8;}.cls-3{fill:#ffc84d;}.cls-4{fill:#f80;}.cls-5{fill:#c2bfbe;}.cls-6{fill:#cacbcb;}.cls-7{fill:#e4e7ea;}.cls-8{fill:#a1a4a4;}</style></defs><rect class="cls-1" x="-1" width="40" height="40"/><polygon class="cls-1" points="36.245 11.472 36.273 11.465 36.245 11.472 36.245 11.472"/><polygon class="cls-2" points="36.246 11.474 36.273 11.465 36.245 11.472 36.246 11.474"/><circle class="cls-3" cx="20" cy="20" r="17.5"/><circle cx="15.492" cy="24.672" r="1.858"/><circle cx="24.118" cy="24.672" r="1.858"/><path class="cls-4" d="M20,31.469a13.126,13.126,0,0,1,4.164.625.385.385,0,0,0,.4-.636A6.82,6.82,0,0,0,20,29.885a6.82,6.82,0,0,0-4.561,1.573.385.385,0,0,0,.4.636A13.126,13.126,0,0,1,20,31.469Z"/><path d="M14.453,19.484a5.834,5.834,0,0,0,2.122-1.607c.257-.293.621-.158.618.258a3.257,3.257,0,0,1-2.056,2.817,3.256,3.256,0,0,1-3.478-.236c-.321-.265-.19-.631.2-.64A5.822,5.822,0,0,0,14.453,19.484Z"/><path d="M25.547,19.484a5.834,5.834,0,0,1-2.122-1.607c-.257-.293-.621-.158-.618.258a3.257,3.257,0,0,0,2.056,2.817,3.256,3.256,0,0,0,3.478-.236c.321-.265.19-.631-.2-.64A5.822,5.822,0,0,1,25.547,19.484Z"/><path class="cls-5" d="M21.435,16.624,18.227,16.1,35.4,11.689h0L18.227,16.1l19.231,3.125,0-.017a17.409,17.409,0,0,0-2.025-7.454Z"/><path class="cls-6" d="M20,2.5A17.49,17.49,0,0,0,4.1,12.728c11.574-.814,18.869-3.682,20.605-9.57A17.45,17.45,0,0,0,20,2.5Z"/><path class="cls-6" d="M35.435,11.756c-.012-.022-.021-.045-.033-.067L11.1,14.945l26.358,4.282,0-.017A17.409,17.409,0,0,0,35.435,11.756Z"/><path class="cls-7" d="M24.7,3.158a50.145,50.145,0,0,0-20.6,9.57,17.336,17.336,0,0,0-1.339,4.383A17.524,17.524,0,0,0,2.5,20c0,.048.007.094.007.142l32.9-8.453A17.523,17.523,0,0,0,24.7,3.158Z"/><path class="cls-8" d="M21.435,16.624l14-4.868c-.012-.022-.021-.045-.033-.067L18.227,16.1Z"/></svg>