<?xml version="1.0" encoding="UTF-8"?><svg id="Layer_1" xmlns="http://www.w3.org/2000/svg" viewBox="0 0 40 40"><g><path d="m25.978,8.535h0s-4.078,3.365-4.078,3.365c-.971.801-2.366.825-3.364.058l-4.306-3.309-.142-.109-3.508,3.465.039.036,2.719,2.478c.703.64,1.058,1.577.957,2.522l-.801,7.479s.038.017.091.043c.274.132,1.179.595,2.051,1.337.22-.892.701-1.728,1.453-2.37,1.91-1.627,4.777-1.399,6.405.511.475.557.773,1.199.936,1.864.874-.744,1.783-1.21,2.058-1.342.053-.026.091-.043.091-.043l-.801-7.479c-.101-.945.254-1.882.957-2.522l2.722-2.48.036-.033-3.513-3.47Z" fill="#00ad53"/><g><path d="m16.75,36.85l-.01.08-.01-.01c0-.02.01-.05.02-.07Z" fill="#956759"/><path d="m17.31,30.62l-.54,6.01c-.01.07-.01.15-.02.22-.01.02-.02.05-.02.07-.22.95-1.26,1.8-2.65,2.04-1.69.29-3.21-.41-3.42-1.58-.17-.96.64-1.93,1.87-2.4l.95-10.43.1.01c.28.13,1.18.6,2.05,1.34-.33,1.37-.04,2.88.95,4.03.22.26.47.49.73.69Z" fill="#956759"/><path d="m14.09,8.54l-3.51,3.47-4.94-4.09-2.19.67c-.72.22-1.5.06-2.07-.43l-.38-.33c-.17-.14-.19-.4-.04-.57L5.48,1.97c.15-.17.4-.19.57-.05l.4.35.03-.03,7.61,6.3Z" fill="#956759"/><path d="m23.34,36.92l-.01.01-.01-.08c.01.02.02.05.02.07Z" fill="#956759"/><path d="m39.06,7.83l-.39.33c-.57.49-1.35.65-2.06.43l-2.18-.66-4.94,4.08-3.51-3.47,7.61-6.3.02.02.4-.34c.17-.14.42-.12.57.05l4.52,5.29c.15.17.13.43-.04.57Z" fill="#956759"/><path d="m29.41,37.38c-.21,1.17-1.73,1.87-3.42,1.58-1.39-.24-2.43-1.09-2.65-2.04,0-.02-.01-.05-.02-.07-.01-.07-.01-.14-.02-.22l-.55-6.03c.08-.05.16-.1.23-.16,1.35-1.15,1.84-2.92,1.45-4.54.87-.74,1.78-1.21,2.06-1.34l.1-.01.95,10.43c1.23.47,2.03,1.44,1.87,2.4Z" fill="#956759"/></g><path d="m22.98,30.44c-.07.06-.15.11-.23.16-.62.47-1.32.76-2.05.87.31.77.69,1.88.97,3.15.38,1.73-.62,3.71-1.57,4.08-.22.08-.48-.14-.41-.35.47-1.42-.48-2.04-1.06-3.97-.34-1.14.11-2.19.62-2.94-.69-.12-1.36-.39-1.94-.82-.26-.2-.51-.43-.73-.69-.99-1.15-1.28-2.66-.95-4.03.22-.89.71-1.73,1.46-2.37,1.91-1.63,4.77-1.4,6.4.51.48.56.78,1.2.94,1.86.39,1.62-.1,3.39-1.45,4.54Z" fill="#333"/></g><rect width="40" height="40" fill="none"/></svg>