<svg id="Layer_1" data-name="Layer 1" xmlns="http://www.w3.org/2000/svg" viewBox="0 0 40 40"><defs><style>.cls-1{fill:#19665a;}.cls-2{fill:#ffda16;}.cls-3{fill:#036d50;}.cls-4{fill:none;}</style></defs><path class="cls-1" d="M28.334,10.892l1.167.918a.182.182,0,0,0,.252-.026l4.468-5.322a1.141,1.141,0,0,0-.168-1.629h0a1.14,1.14,0,0,0-1.622.218L28.3,10.64A.184.184,0,0,0,28.334,10.892Z"/><path class="cls-2" d="M11.515,10.089l0,.013A13.567,13.567,0,1,1,28.742,30.634l0,.015-.249.134c-.21.121-.424.234-.641.343l-8.941,4.795v0A9.105,9.105,0,0,1,4.683,28.392S4.146,17.961,11.515,10.089Z"/><path class="cls-3" d="M16.271,3.856A.925.925,0,0,0,15.936,5.3a13.879,13.879,0,0,0,7.033,4.668,13.874,13.874,0,0,0,8.37-1.093.925.925,0,0,0,.335-1.442,13.878,13.878,0,0,0-7.033-4.667A13.874,13.874,0,0,0,16.271,3.856Z"/><rect class="cls-4" width="40" height="40"/></svg>