<svg id="Layer_1" data-name="Layer 1" xmlns="http://www.w3.org/2000/svg" viewBox="0 0 40 40"><defs><style>.cls-1{fill:#ffc84d;}.cls-2{fill:#ff6d00;}.cls-3{fill:#ffa01d;}.cls-4{fill:none;}</style></defs><circle class="cls-1" cx="20" cy="19.49" r="17.5"/><ellipse class="cls-2" cx="20.162" cy="25.136" rx="10" ry="7.894"/><path class="cls-3" d="M13.917,19.706a1.471,1.471,0,0,1,.649,1.976l-1.21,3.043L15.978,22.8,20.6,19.412a1.47,1.47,0,1,1,1.738,2.371l-4.6,3.43.238.324,6.216-4.5a1.471,1.471,0,1,1,1.739,2.372L20.028,27.8l.234.327,5.008-3.612a1.47,1.47,0,1,1,1.739,2.371l-5.86,4.356.237.324L25.4,28.685a1.471,1.471,0,1,1,1.739,2.372l-3.987,2.922L19.438,36.7a7.1,7.1,0,0,1-9.885-1.707,7.388,7.388,0,0,1-1.362-3.313l0-.006a5.213,5.213,0,0,1-.026-1.834,7.068,7.068,0,0,1,.179-.982,26.227,26.227,0,0,1,1.866-5.077l1.733-3.427A1.471,1.471,0,0,1,13.917,19.706Z"/><path d="M17.5,13.165c.3.049.6-.182.495-.39-.565-1.156-2.208-1.808-3.983-1.5s-3.1,1.488-3.232,2.767c-.024.23.333.346.6.2A9.982,9.982,0,0,1,17.5,13.165Z"/><path d="M22.505,13.165c-.3.049-.6-.182-.495-.39.565-1.156,2.208-1.808,3.983-1.5s3.1,1.488,3.232,2.767c.024.23-.333.346-.6.2a9.982,9.982,0,0,0-6.121-1.079Z"/><rect class="cls-4" width="40" height="40"/></svg>