<?xml version="1.0" encoding="UTF-8"?><svg id="Layer_1" xmlns="http://www.w3.org/2000/svg" viewBox="0 0 40 40"><g><path d="m30.36,30.571l.01.01,6.927-16.57c1.394-2.886.701-6.691-1.959-9.35-2.645-2.645-6.423-3.345-9.304-1.979h-.001s-16.614,6.948-16.614,6.948l.01.01c-1.356.609-2.616,1.447-3.711,2.541C.307,17.592.868,26.926,6.971,33.029c6.103,6.103,15.437,6.664,20.847,1.253,1.094-1.094,1.932-2.354,2.541-3.711Z" fill="#68c76f"/><path d="m28.761,29.084l.008.008,6.111-14.331c1.505-2.877,1.09-6.197-1.178-8.464-2.255-2.255-5.378-2.586-8.424-1.196h-.001s-14.37,6.129-14.37,6.129l.008.008c-1.173.537-2.266,1.269-3.218,2.221-4.707,4.707-4.349,12.785.854,17.988,5.203,5.203,13.281,5.561,17.988.854.952-.952,1.685-2.045,2.221-3.218Z" fill="#ffe3a0"/><circle cx="17.402" cy="22.598" r="7.729" fill="#734b3f"/></g><rect width="40" height="40" fill="none"/></svg>