<svg id="Layer_1" data-name="Layer 1" xmlns="http://www.w3.org/2000/svg" viewBox="0 0 40 40"><defs><style>.cls-1{fill:#956759;}.cls-2{fill:none;}</style></defs><path class="cls-1" d="M11.624,14.275h0a7.159,7.159,0,0,0,1.012,3.669l2.018,3.377a9.316,9.316,0,0,1,1.224,6.108l-.475,3.3A5.492,5.492,0,0,0,20.839,37h0a5.491,5.491,0,0,0,5.4-4.479l2.83-15.075a4.881,4.881,0,0,0-1.7-4.674h0A14.636,14.636,0,0,0,16.729,9.511l-.832.077A4.707,4.707,0,0,0,11.624,14.275Z"/><ellipse class="cls-1" cx="13.492" cy="6.095" rx="2.911" ry="3.095"/><ellipse class="cls-1" cx="18.999" cy="6.095" rx="1.777" ry="1.89"/><ellipse class="cls-1" cx="22.776" cy="7.504" rx="1.501" ry="1.596"/><ellipse class="cls-1" cx="25.938" cy="9.099" rx="1.232" ry="1.31"/><ellipse class="cls-1" cx="28.373" cy="11.126" rx="1.046" ry="1.112"/><rect class="cls-2" width="40" height="40"/></svg>