<?xml version="1.0" encoding="UTF-8"?><svg id="Layer_1" xmlns="http://www.w3.org/2000/svg" viewBox="0 0 40 40"><g><path d="m28.116,28.039l-4.257-1.617c-2.486-.944-5.231-.944-7.717,0l-4.257,1.617c-2.049.779-3.746,2.241-4.821,4.113-.441.768-.72,1.619-.932,2.479l-.544,2.212c-.082.334.171.657.515.657h27.795c.344,0,.597-.323.515-.657l-.544-2.212c-.212-.86-.491-1.711-.932-2.479-1.075-1.873-2.771-3.335-4.821-4.113Z" fill="#3e26b1"/><circle cx="20" cy="15.701" r="9.254" fill="#956759"/><g><ellipse cx="11.554" cy="15.961" rx="3.705" ry="3.475" fill="#956759"/><ellipse cx="28.446" cy="15.961" rx="3.705" ry="3.475" fill="#956759"/></g><path d="m21.225,19.913c.221,0,.379.213.32.426-.187.678-.808,1.176-1.545,1.176s-1.358-.498-1.545-1.176c-.059-.213.099-.426.32-.426h2.45Z" fill="#5c2f17"/><polygon points="22.837 29.967 17.186 29.967 17.793 25.94 17.793 23.536 22.231 23.536 22.231 25.945 22.837 29.967" fill="#956759"/><polygon points="22.814 29.967 20 29.967 17.186 29.967 11.838 37.5 20 37.5 28.162 37.5 22.814 29.967" fill="#786de7"/><path d="m8.39,11.172l1.98,2.474s4.089-1.462,5.208-2.861c1.144-1.43,4.339-4.019,8.007-2.861l1.989,4.378,3.137,1.344c.527-.084.925-.357,1.146-.892l.53-1.994c.276-1.655-.999-3.436-2.612-3.935h0s-1.569-5.143-9.561-4.212c-7.992.931-8.116,7.483-8.116,7.483l-1.53.49c-.248.079-.34.383-.177.586Z" fill="#333"/><g><path d="m20.407,13.634c-.238.177-.553.177-.791,0-3.82-2.844-9.235-.166-9.235-.166,0,0,2.901,4.666,5.859,4.917,1.816.154,2.824-.712,3.331-1.403.217-.295.664-.295.88,0,.507.692,1.515,1.557,3.331,1.403,2.959-.251,5.859-4.917,5.859-4.917,0,0-5.415-2.679-9.235.166Zm-3.697,3.428c-1.253,0-2.269-.76-2.269-1.698s1.016-1.698,2.269-1.698,2.269.76,2.269,1.698-1.016,1.698-2.269,1.698Zm6.34,0c-1.253,0-2.269-.76-2.269-1.698s1.016-1.698,2.269-1.698,2.269.76,2.269,1.698-1.016,1.698-2.269,1.698Z" fill="#ef3452"/><ellipse cx="17.287" cy="15.365" rx=".985" ry="1.182"/><ellipse cx="22.716" cy="15.365" rx=".985" ry="1.182"/></g></g><rect y="0" width="40" height="40" fill="none"/></svg>