<svg id="Layer_1" data-name="Layer 1" xmlns="http://www.w3.org/2000/svg" viewBox="0 0 40 40"><defs><style>.cls-1{fill:#523725;}.cls-2{fill:#c3846c;}.cls-3{fill:#5c2f17;}.cls-4{fill:none;}.cls-5{fill:#e3e3e3;}.cls-6{fill:#333;}.cls-7{fill:#bdbdbd;}</style></defs><path class="cls-1" d="M8.762,22.452C8.6,19.565,8.342,7.746,14.676,4.97A6.917,6.917,0,0,1,21.1,2.55,11.2,11.2,0,0,1,30.06,9.521a39.516,39.516,0,0,1,1.549,12.837,1.928,1.928,0,0,1-.935,1.6c-1.227.744-4.064,1.694-10.553,1.694-6.709,0-9.455-1.016-10.569-1.769A1.838,1.838,0,0,1,8.762,22.452Z"/><path class="cls-2" d="M23.482,12.21a12.376,12.376,0,0,1-7.274-4.079.2.2,0,0,0-.351.094,9.983,9.983,0,0,1-3.01,5.529,4.412,4.412,0,0,0-.763.807,3.566,3.566,0,0,0-.658,2.755,8.827,8.827,0,0,0,8.6,7.43,8.794,8.794,0,0,0,8.436-6.68C28.959,15.208,27.209,12.758,23.482,12.21Z"/><ellipse cx="17.391" cy="15.471" rx="0.972" ry="1.167"/><ellipse cx="22.524" cy="15.471" rx="0.972" ry="1.167"/><path class="cls-3" d="M21.168,20.6a.33.33,0,0,1,.315.42,1.582,1.582,0,0,1-3.051,0,.33.33,0,0,1,.315-.42Z"/><rect class="cls-4" width="40" height="40"/><path class="cls-5" d="M28.033,28.136l-4.214-1.6a10.75,10.75,0,0,0-7.638,0l-4.214,1.6A9.312,9.312,0,0,0,7.2,32.207a9.411,9.411,0,0,0-.923,2.453l-.538,2.189a.525.525,0,0,0,.509.651H33.756a.525.525,0,0,0,.509-.651l-.538-2.189a9.411,9.411,0,0,0-.923-2.453A9.312,9.312,0,0,0,28.033,28.136Z"/><rect class="cls-2" x="17.815" y="22.994" width="4.393" height="4.366"/><path class="cls-6" d="M20,27.208l-3.013-1.34a.419.419,0,0,0-.526.483l.328,2.8a.4.4,0,0,0,.612.325l2.6-1.47,2.6,1.47a.4.4,0,0,0,.612-.325l.328-2.8a.419.419,0,0,0-.526-.483Z"/><path class="cls-6" d="M17.646,37.5H6.244a.525.525,0,0,1-.509-.651l.538-2.189A9.411,9.411,0,0,1,7.2,32.207a9.312,9.312,0,0,1,4.771-4.071l3.153-1.2Z"/><path class="cls-6" d="M22.354,37.5h11.4a.525.525,0,0,0,.509-.651l-.538-2.189a9.411,9.411,0,0,0-.923-2.453,9.312,9.312,0,0,0-4.771-4.071l-3.153-1.2Z"/><circle class="cls-7" cx="20.011" cy="30.663" r="0.625"/><circle class="cls-7" cx="20.011" cy="33.485" r="0.625"/></svg>