<svg id="Layer_1" data-name="Layer 1" xmlns="http://www.w3.org/2000/svg" viewBox="0 0 40 40"><defs><style>.cls-1{fill:#5e403b;}.cls-2{fill:#ffc84d;}.cls-3{fill:#8b8bf4;}.cls-4{fill:#ffb200;}.cls-5{fill:#ff9000;}.cls-6{fill:#5c2f17;}.cls-7{fill:#949494;}.cls-8{fill:#ffc450;}.cls-9{fill:#be958d;}.cls-10{fill:none;}</style></defs><path class="cls-1" d="M27.969,29.559,24.48,28.234a8.9,8.9,0,0,0-6.323,0l-3.489,1.325a7.409,7.409,0,0,0-4.713,5.4l-.446,1.812a.435.435,0,0,0,.422.539H32.706a.435.435,0,0,0,.422-.539l-.446-1.812a7.409,7.409,0,0,0-4.713-5.4Z"/><path class="cls-2" d="M17.356,28.538,14.668,29.56c-.08.03-.151.077-.23.111l2.036,7.641h1.777l-.895-8.774Z"/><path class="cls-2" d="M27.969,29.56l-2.309-.878h0l-.8,8.63h1.763l1.614-7.622C28.146,29.651,28.063,29.6,27.969,29.56Z"/><path class="cls-3" d="M25.66,28.682l-1.18-.448a8.91,8.91,0,0,0-6.323,0l-.8.3h0l.895,8.774h6.61l.8-8.63Z"/><path class="cls-2" d="M20.076,27.22h3.311a0,0,0,0,1,0,0v1.656a1.656,1.656,0,0,1-1.656,1.656h0a1.656,1.656,0,0,1-1.656-1.656V27.22A0,0,0,0,1,20.076,27.22Z"/><ellipse class="cls-2" cx="21.731" cy="20.041" rx="7.092" ry="8.156"/><ellipse class="cls-2" cx="15.824" cy="20.426" rx="2.839" ry="2.663"/><ellipse class="cls-2" cx="27.638" cy="20.426" rx="2.839" ry="2.663"/><ellipse class="cls-2" cx="21.731" cy="15.367" rx="6.142" ry="4.061"/><path class="cls-4" d="M14.853,20.233a.159.159,0,0,1-.295-.006l-.651-1.762a5.384,5.384,0,0,1-.13-3.094,2.3,2.3,0,0,1,1.637-1.453c.091-.023.191-.045.3-.066a.441.441,0,0,1,.527.429v2.347a.792.792,0,0,1-.2.522l-.416.473a2.511,2.511,0,0,0-.607,1.336Z"/><path class="cls-4" d="M28.424,20.233a.159.159,0,0,0,.3-.006l.651-1.762a3.316,3.316,0,0,0,.013-2.4,2.686,2.686,0,0,0-1.745-1.615c-.091-.023.034-.577-.074-.6a.441.441,0,0,0-.527.429v2.347a.792.792,0,0,0,.2.522l.416.473a2.519,2.519,0,0,1,.607,1.336Z"/><ellipse cx="19.739" cy="19.884" rx="0.755" ry="0.906"/><ellipse cx="23.724" cy="19.884" rx="0.755" ry="0.906"/><path class="cls-5" d="M26.947,16.628s1.322,5.056-.764,7.649a5.471,5.471,0,0,0-4.315-1.859V22.4c-.049,0-.088.009-.137.009s-.088-.009-.138-.009v.019a5.47,5.47,0,0,0-4.314,1.859c-2.087-2.593-.764-7.649-.764-7.649l-2.6-.16.322,5.927a6.5,6.5,0,0,0,6.486,6.143h2.024A6.5,6.5,0,0,0,29.229,22.4l.322-5.927Z"/><path class="cls-6" d="M22.67,24.519a.256.256,0,0,1,.245.326,1.228,1.228,0,0,1-2.368,0,.257.257,0,0,1,.245-.326Z"/><polygon class="cls-7" points="14.916 37.312 10.803 28.902 9.601 29.49 13.425 37.312 14.916 37.312"/><path class="cls-8" d="M12.742,29.891l-2.028-.06a.39.39,0,0,0-.325.16l-1.2,1.636a.389.389,0,0,1-.687-.12L7.933,29.56a.389.389,0,0,0-.251-.26l-1.927-.634a.389.389,0,0,1-.1-.691l1.675-1.143a.391.391,0,0,0,.17-.32l.007-2.029a.389.389,0,0,1,.627-.306l1.605,1.239a.388.388,0,0,0,.357.063l1.931-.62a.389.389,0,0,1,.485.5l-.682,1.91a.391.391,0,0,0,.05.358l1.187,1.645A.39.39,0,0,1,12.742,29.891Z"/><path class="cls-1" d="M8.888,18.671H34.129a.383.383,0,0,0,.2-.712l-6.5-3.894L26.669,9.671a.987.987,0,0,1,.7-1.2l1.949-.514A.574.574,0,0,0,29.46,6.9L22.4,2.82a.986.986,0,0,0-1.348.364L14.828,14.065l-6.146,3.9A.383.383,0,0,0,8.888,18.671Z"/><polygon class="cls-9" points="16.43 11.264 27.392 12.412 27.828 14.065 14.828 14.065 16.43 11.264"/><rect class="cls-10" width="40" height="40"/></svg>