<svg id="Layer_1" data-name="Layer 1" xmlns="http://www.w3.org/2000/svg" viewBox="0 0 40 40"><defs><style>.cls-1{fill:#75663a;}.cls-2{fill:#948049;}.cls-3{fill:#4d4326;}.cls-4{fill:#594e2c;}.cls-5{fill:#b03b2f;}.cls-6{fill:#333;}.cls-7{fill:#6e4944;}.cls-8{fill:#5c2f17;}.cls-9{fill:#ed422f;}.cls-10{fill:#ff5543;}.cls-11{fill:#fb0;}.cls-12{fill:#d6b049;}.cls-13{fill:#593e2c;}.cls-14{fill:#b7b7b7;}.cls-15{fill:none;}</style></defs><path class="cls-1" d="M24.9,28.91l-3.865-1.468a9.856,9.856,0,0,0-7.006,0L10.164,28.91A8.214,8.214,0,0,0,4.942,34.9L4.448,36.9a.481.481,0,0,0,.467.6H30.15a.482.482,0,0,0,.468-.6L30.124,34.9A8.213,8.213,0,0,0,24.9,28.91Z"/><path class="cls-1" d="M14.278,24.31h6.509a0,0,0,0,1,0,0v3.951a3.255,3.255,0,0,1-3.255,3.255h0a3.255,3.255,0,0,1-3.255-3.255V24.31A0,0,0,0,1,14.278,24.31Z"/><rect class="cls-2" x="16.826" y="28.986" width="1.414" height="8.514"/><path class="cls-3" d="M17.533,26.032a8.09,8.09,0,0,1-4.467-1.21v3.992a8.09,8.09,0,0,0,4.467,1.21A8.092,8.092,0,0,0,22,28.814V24.822A8.092,8.092,0,0,1,17.533,26.032Z"/><path class="cls-4" d="M22,28.814V24.822a8.092,8.092,0,0,1-4.467,1.21,9.4,9.4,0,0,1-2.167-.261,5.728,5.728,0,0,0,.069,4.006,9.423,9.423,0,0,0,2.1.247A8.092,8.092,0,0,0,22,28.814Z"/><ellipse class="cls-5" cx="17.533" cy="18.613" rx="13.1" ry="6.854"/><path class="cls-6" d="M7.912,20.29l.956,3.839a1.6,1.6,0,0,0,1.548,1.21H24.61a1.6,1.6,0,0,0,1.576-1.347l.584-3.7Z"/><circle class="cls-7" cx="17.533" cy="17.709" r="8.402"/><ellipse class="cls-7" cx="9.865" cy="17.945" rx="3.364" ry="3.155"/><ellipse class="cls-7" cx="25.201" cy="17.945" rx="3.364" ry="3.155"/><path class="cls-6" d="M27.034,15.3A9.687,9.687,0,0,0,7.822,13.326a10.114,10.114,0,0,0-.149,2.065.1.1,0,0,0,.1.1c.215,0,.764.112,1.3,1.085a.24.24,0,0,0,.389.055l5.311-5.943S21.5,16.092,25.94,15.8a1.006,1.006,0,0,0,.322-.088C26.558,15.543,26.807,15.233,27.034,15.3Z"/><ellipse cx="15.172" cy="17.302" rx="0.894" ry="1.073"/><ellipse cx="19.893" cy="17.302" rx="0.894" ry="1.073"/><path class="cls-8" d="M18.645,21.533a.3.3,0,0,1,.291.387,1.456,1.456,0,0,1-2.806,0,.3.3,0,0,1,.291-.387Z"/><path class="cls-9" d="M28.167,14.79a10.634,10.634,0,0,0-21.268,0c2.377-1.486,6.249-2.457,10.634-2.457S25.79,13.3,28.167,14.79Z"/><path class="cls-10" d="M17.533,12.989c6.839,0,12.447,2.744,13.04,6.241a3.574,3.574,0,0,0,.059-.612c0-3.785-5.864-6.854-13.1-6.854s-13.1,3.069-13.1,6.854a3.678,3.678,0,0,0,.059.612C5.086,15.733,10.693,12.989,17.533,12.989Z"/><path class="cls-10" d="M22.21,12.755l.58-6.86a2.5,2.5,0,0,0-1.322-2.477,8.893,8.893,0,0,0-7.87,0A2.5,2.5,0,0,0,12.276,5.9l.58,6.86a23.555,23.555,0,0,1,9.354,0Z"/><path class="cls-11" d="M19.236,6.8c.062.414.134.651-.162.651-.4,0-.4-.954-1.086-1.5A1.451,1.451,0,0,0,16.8,5.548h0A.922.922,0,0,1,16.679,7c-.353.2-.756-.054-.545-.659a3.877,3.877,0,0,0-.865,2.169,2.264,2.264,0,1,0,4.527,0A3.4,3.4,0,0,0,19.236,6.8Z"/><path class="cls-10" d="M17.533,8.157s.984.567.984,1.359a.984.984,0,0,1-1.968,0C16.549,8.724,17.533,8.157,17.533,8.157Z"/><path class="cls-12" d="M4.915,37.5H30.151a.481.481,0,0,0,.467-.6l-.345-1.4H4.792l-.345,1.4A.483.483,0,0,0,4.915,37.5Z"/><polygon class="cls-13" points="23.093 37.5 29.309 28.576 27.641 27.413 20.614 37.5 23.093 37.5"/><path class="cls-9" d="M35.567,27.523,28.1,23.036a.339.339,0,0,0-.452.1L24.87,27.12a.34.34,0,0,0,.066.457l6.8,5.449a7.85,7.85,0,0,0,3.834-5.5Z"/><path class="cls-14" d="M34.267,30.705a7.89,7.89,0,0,0,1.3-3.182l-1.756-1.055a7.779,7.779,0,0,1-3.676,5.277l1.6,1.281A7.866,7.866,0,0,0,34.267,30.705Z"/><rect class="cls-15" width="40" height="40"/></svg>