<?xml version="1.0" encoding="UTF-8"?><svg id="Layer_1" xmlns="http://www.w3.org/2000/svg" viewBox="0 0 40 40"><g><g><polygon points="17 22.83 16.82 33.92 13.87 33.92 13.39 25.78 12.9 33.92 9.95 33.92 9.77 22.83 17 22.83" fill="#6d7681"/><polygon points="30.56 22.83 30.37 33.92 27.43 33.92 26.94 25.78 26.45 33.92 23.51 33.92 23.32 22.83 30.56 22.83" fill="#6d7681"/></g><g><g><path d="m22.461,35.285c-.254.246-.389.536-.389.834v.255c0,.346.424.626.948.626h1.012c.748,0,1.431-.28,1.763-.723l.27-.36c.069-.092.105-.194.105-.297v-1.701h-2.3l-1.409,1.365Z" fill="#313c50"/><path d="m27.813,35.62c0,.103.036.205.105.297l.27.36c.332.443,1.016.723,1.763.723h1.012c.523,0,.948-.28.948-.626v-.255c0-.297-.136-.588-.389-.834l-1.409-1.365h-2.3v1.701Z" fill="#313c50"/></g><g><path d="m8.908,35.285c-.254.246-.389.536-.389.834v.255c0,.346.424.626.948.626h1.012c.748,0,1.431-.28,1.763-.723l.27-.36c.069-.092.105-.194.105-.297v-1.701h-2.3l-1.409,1.365Z" fill="#313c50"/><path d="m14.259,35.62c0,.103.036.205.105.297l.27.36c.332.443,1.016.723,1.763.723h1.012c.523,0,.948-.28.948-.626v-.255c0-.297-.136-.588-.389-.834l-1.409-1.365h-2.3v1.701Z" fill="#313c50"/></g></g><g><path d="m19.35,17.816l-.741-2.954c-.149-1.2-.974-2.208-2.122-2.591l-2.334-.78v.231c0,.436-.354.79-.79.79s-.79-.354-.79-.79v-.248l-2.55.863c-1.031.349-1.808,1.207-2.053,2.268l-1.175,3.408.445.121,2.011.548.573.156-.293,3.993h7.726l-.362-4.024.304-.123,1.954-.788.199-.08Z" fill="#d0d4d9"/><path d="m32.903,17.816l-.741-2.954c-.149-1.2-.974-2.208-2.122-2.591l-2.334-.78v.231c0,.436-.354.79-.79.79s-.79-.354-.79-.79v-.248l-2.55.863c-1.031.349-1.808,1.207-2.053,2.268l-1.175,3.408.445.121,2.011.548.573.156-.293,3.993h7.726l-.362-4.024.304-.123,1.954-.788.199-.08Z" fill="#d0d4d9"/></g><g><g><path d="m5.464,25.622c-.009.039,0,.077-.004.116-.003.016-.013.03-.014.047-.003.034.01.064.01.097.003.039.003.077.011.114.046.559.462,1.028,1.04,1.086.651.065,1.232-.41,1.297-1.061.039-.393-.132-.744-.406-.988l1.851-6.351-2.011-.548-1.775,7.488Z" fill="#6e4944"/><path d="m19.02,25.996c-.008-.037-.009-.075-.011-.114,0-.033-.013-.063-.01-.097.002-.017.012-.03.014-.047.004-.039-.005-.077.004-.116l.983-4.145-.849-3.581-1.954.788,1.851,6.349c-.274.244-.445.595-.406.988.065.651.646,1.126,1.297,1.061.022-.002.039-.014.06-.017-.544-.085-.935-.531-.98-1.068Z" fill="#6e4944"/><path d="m17.08,6.92c-.08,0-.17.09-.27.15-.05.02-.09.03-.13.04-.33.02-.69-.04-1.06-.15-1.59-.46-3.35-1.87-3.35-1.87l-1.51,1.7-.67.75c-.22-.47-.45-.54-.56-.55-.31.22-.52.56-.52.96,0,.42.23.78.57,1,.22.14.47.25.75.25.33.74.92,1.33,1.66,1.67.19.09.38.15.58.2v.65c0,.44.36.79.79.79.44,0,.79-.35.79-.79v-.65c.21-.05.4-.11.59-.2.73-.34,1.33-.93,1.65-1.67.22,0,.41-.06.59-.15.43-.2.74-.61.74-1.1,0-.44-.26-.81-.64-1.03Zm-4.65,1.2c-.19,0-.35-.19-.35-.42s.16-.42.35-.42c.2,0,.35.19.35.42s-.15.42-.35.42Zm.93,1.82c-.26,0-.48-.17-.55-.42-.02-.07.03-.15.11-.15h.88c.08,0,.14.08.12.15-.07.25-.29.42-.56.42Zm.93-1.82c-.19,0-.35-.19-.35-.42s.16-.42.35-.42c.2,0,.36.19.36.42s-.16.42-.36.42Z" fill="#6e4944"/></g><g><path d="m20,21.477l-.983,4.145c-.009.039,0,.077-.004.116-.003.016-.013.03-.014.047-.003.034.01.064.01.097.003.039.003.077.011.114.045.538.436.983.98,1.068.021.003.038.015.06.017.651.065,1.232-.41,1.297-1.061.039-.393-.132-.744-.406-.988l1.851-6.351-2.011-.548-.793,3.343Z" fill="#6e4944"/><path d="m34.54,25.738c-.004-.039.005-.077-.004-.116l-1.832-7.726-1.954.788,1.851,6.349c-.274.244-.445.595-.406.988.065.651.646,1.126,1.297,1.061.578-.058.994-.527,1.04-1.086.008-.037.009-.075.011-.114,0-.033.013-.063.01-.097-.002-.017-.012-.03-.014-.047Z" fill="#6e4944"/><path d="m30.64,6.92c-.08,0-.17.09-.28.15-.04.02-.09.03-.13.04-.32.02-.68-.04-1.05-.15-1.6-.46-3.35-1.87-3.35-1.87l-1.52,1.7-.67.75c-.21-.47-.45-.54-.55-.55-.31.22-.53.56-.53.96,0,.42.24.78.58,1,.21.14.46.25.75.25.32.74.92,1.33,1.65,1.67.19.09.38.15.59.2v.65c0,.44.35.79.79.79.43,0,.79-.35.79-.79v-.65c.2-.05.39-.11.58-.2.74-.34,1.33-.93,1.66-1.67.21,0,.41-.06.58-.15.44-.2.74-.61.74-1.1,0-.44-.26-.81-.63-1.03Zm-4.66,1.2c-.19,0-.35-.19-.35-.42s.16-.42.35-.42c.2,0,.36.19.36.42s-.16.42-.36.42Zm.94,1.82c-.27,0-.49-.17-.56-.42-.02-.07.04-.15.12-.15h.88c.07,0,.13.08.11.15-.07.25-.29.42-.55.42Zm.93-1.82c-.2,0-.35-.19-.35-.42s.15-.42.35-.42c.19,0,.35.19.35.42s-.16.42-.35.42Z" fill="#6e4944"/></g></g><g><g><path d="m10.333,9.198c-.284,0-.533-.103-.749-.246l.359,1.443c.07.281.322.477.611.477h1.437c-.737-.337-1.33-.932-1.658-1.674Z" fill="#333"/><path d="m14.735,10.871h1.421c.31,0,.573-.225.622-.531l.203-1.287c-.179.085-.374.144-.588.145-.328.742-.92,1.337-1.658,1.674Z" fill="#333"/><path d="m10.085,7.537l.67-.75,1.518-1.698s1.754,1.408,3.351,1.874c.368.107.728.164,1.057.143.039-.003.083-.016.127-.035.105-.059.194-.151.276-.152.009,0,.02-.012.029-.009.034-2.277-1.925-4.136-4.245-3.887-1.784.192-3.213,1.642-3.381,3.428-.017.182-.021.361-.014.538,0,0,.023-.005.061-.001.107.009.339.087.552.55Z" fill="#333"/></g><g><path d="m28.289,10.871h1.421c.31,0,.574-.225.622-.531l.203-1.287c-.179.085-.374.144-.588.145-.328.742-.92,1.337-1.658,1.674Z" fill="#333"/><path d="m23.886,9.198c-.284,0-.533-.103-.749-.246l.359,1.443c.07.281.322.477.611.477h1.437c-.737-.337-1.33-.932-1.658-1.674Z" fill="#333"/><path d="m23.639,7.537l.67-.75,1.518-1.698s1.754,1.408,3.351,1.874c.368.107.729.164,1.057.143.039-.003.083-.016.127-.035.105-.059.194-.151.276-.152.009,0,.02-.012.029-.009.034-2.277-1.925-4.136-4.245-3.887-1.784.192-3.213,1.642-3.381,3.428-.017.182-.022.361-.014.538,0,0,.023-.005.06-.001.107.009.339.087.552.55Z" fill="#333"/></g></g><g><g><path d="m12.431,8.123c.195,0,.353-.19.353-.424s-.158-.423-.353-.423-.353.19-.353.423.158.424.353.424Z"/><path d="m14.295,8.123c.195,0,.353-.19.353-.424s-.158-.423-.353-.423-.353.19-.353.423.158.424.353.424Z"/></g><g><path d="m25.985,8.123c.195,0,.353-.19.353-.424s-.158-.423-.353-.423-.353.19-.353.423.158.424.353.424Z"/><path d="m27.848,8.123c.195,0,.353-.19.353-.424s-.158-.423-.353-.423-.353.19-.353.423.158.424.353.424Z"/></g></g><g><path d="m13.917,9.522c.021-.076-.035-.153-.115-.153h-.878c-.079,0-.136.076-.115.153.067.243.289.421.554.421s.487-.178.554-.421Z" fill="#56321b"/><path d="m27.47,9.522c.021-.076-.035-.153-.115-.153h-.878c-.079,0-.136.076-.115.153.067.243.289.421.554.421s.487-.178.554-.421Z" fill="#56321b"/></g></g><rect width="40" height="40" fill="none"/></svg>