<svg id="Layer_1" data-name="Layer 1" xmlns="http://www.w3.org/2000/svg" viewBox="0 0 40 40"><defs><style>.cls-1{fill:#956759;}.cls-2{fill:#333;}.cls-3{fill:#5c2f17;}.cls-4{fill:#d69600;}.cls-5{fill:#f3f3f3;}.cls-6{fill:none;}</style></defs><circle class="cls-1" cx="20" cy="25.05" r="12.45"/><ellipse class="cls-1" cx="8.638" cy="25.4" rx="4.984" ry="4.674"/><ellipse class="cls-1" cx="31.362" cy="25.4" rx="4.984" ry="4.674"/><path class="cls-2" d="M34.079,21.48a14.351,14.351,0,0,0-28.63-1.721A14.711,14.711,0,0,0,5.4,21.777s1.217-.29,2.3,2.06l8.212-9.189s9.97,8.007,16.55,7.57a1.537,1.537,0,0,0,.477-.131C33.373,21.84,33.742,21.382,34.079,21.48Z"/><ellipse cx="16.502" cy="24.448" rx="1.325" ry="1.59"/><ellipse cx="23.498" cy="24.448" rx="1.325" ry="1.59"/><path class="cls-3" d="M21.648,30.717a.45.45,0,0,1,.43.573,2.156,2.156,0,0,1-4.156,0,.45.45,0,0,1,.43-.573Z"/><path class="cls-4" d="M6.1,15.623C5.862,14.183,5.135,9.741,4.8,7.71a.419.419,0,0,1,.669-.4L8.6,9.665A.421.421,0,0,0,9.237,9.5L10.95,5.623a.42.42,0,0,1,.671-.139L15.513,9.1a.421.421,0,0,0,.66-.115l3.235-6.252a.421.421,0,0,1,.748,0L23.39,8.98a.421.421,0,0,0,.66.115l3.892-3.611a.421.421,0,0,1,.672.139L30.326,9.5a.422.422,0,0,0,.639.166L34.092,7.31a.42.42,0,0,1,.668.4l-1.3,7.948a.71.71,0,0,1-.474.565c-2.107.711-12.269,3.664-26.353-.022A.727.727,0,0,1,6.1,15.623Z"/><ellipse class="cls-5" cx="19.781" cy="13.474" rx="1.42" ry="1.575"/><rect class="cls-6" width="40" height="40" transform="translate(40 40) rotate(-180)"/></svg>