<svg id="Layer_1" data-name="Layer 1" xmlns="http://www.w3.org/2000/svg" viewBox="0 0 40 40"><defs><style>.cls-1{fill:#e5e9ee;}.cls-2{fill:#f77f00;}.cls-3{fill:#fff;}.cls-4{fill:#ff9c00;}.cls-5{fill:#ffe3a0;}.cls-6{fill:none;}</style></defs><path class="cls-1" d="M36.467,32.087V5.933A1.432,1.432,0,0,0,35.034,4.5H4.966A1.432,1.432,0,0,0,3.533,5.933V32.087A3.413,3.413,0,0,0,6.946,35.5H33.054A3.413,3.413,0,0,0,36.467,32.087Z"/><path class="cls-2" d="M4.919,29.639c0,2.394,6.752,3.224,15.081,3.224s15.081-.83,15.081-3.224V18.825a1,1,0,0,0-1-1H5.919a1,1,0,0,0-1,1Z"/><path class="cls-3" d="M26.3,12.37,16.234,11.162a2.317,2.317,0,0,0-2.577,2.025l-.69,5.748a52.421,52.421,0,0,0,8.255-.092c2.368-.183,4.605-.628,6.75-.95l.354-2.946A2.317,2.317,0,0,0,26.3,12.37Z"/><path class="cls-4" d="M21.183,18.66c-2.883.222-5.506-.8-8.078-.835l-.656,5.429a2.318,2.318,0,0,0,2.025,2.577l10.067,1.208a2.317,2.317,0,0,0,2.577-2.025l.854-7.121C25.827,18.215,23.551,18.477,21.183,18.66Z"/><ellipse class="cls-5" cx="20.539" cy="17.825" rx="7.434" ry="1.306"/><rect class="cls-6" width="40" height="40"/></svg>