<?xml version="1.0" encoding="UTF-8"?><svg id="Layer_1" xmlns="http://www.w3.org/2000/svg" viewBox="0 0 40 40"><g><circle cx="20" cy="19.552" r="17.5" fill="#ffc84d"/><circle cx="15.422" cy="16.194" r="2.114"/><circle cx="24.578" cy="16.194" r="2.114"/><path d="m15.848,23.511c.6.24.892.922.651,1.522l-.748,2.498,1.947-1.707,3.434-3.011c.486-.426,1.226-.378,1.652.108s.378,1.226-.108,1.652l-3.409,3.04.211.241,4.619-4c.486-.426,1.226-.378,1.652.108s.378,1.226-.108,1.652l-4.383,3.894.208.243,3.722-3.213c.486-.426,1.226-.378,1.652.108s.378,1.226-.108,1.652l-4.346,3.862.211.241,2.985-2.567c.486-.426,1.226-.378,1.652.108s.378,1.226-.108,1.652l-2.96,2.595-2.759,2.417c-2.302,2.019-5.866,1.719-7.96-.669-.662-.755-1.096-1.628-1.31-2.533,0-.002-.002-.003-.002-.005-.135-.41-.172-.912-.148-1.453.006-.266.03-.53.074-.791.271-1.994,1.128-4.157,1.128-4.157l1.137-2.839c.24-.6.922-.892,1.522-.651Z" fill="#ff9210"/></g><rect y="0" width="40" height="40" fill="none"/></svg>