<svg id="Layer_1" data-name="Layer 1" xmlns="http://www.w3.org/2000/svg" viewBox="0 0 40 40"><defs><style>.cls-1{fill:#353332;}.cls-2{fill:#454241;}.cls-3{fill:#b5b5b5;}.cls-4{fill:#ffa938;}.cls-5{fill:none;}</style></defs><polygon class="cls-1" points="25.374 26.492 29.224 29.611 28.55 30.834 23.153 30.665 22.521 26.154 25.374 26.492"/><path class="cls-1" d="M17.082,27.967,5.364,34.034a.792.792,0,0,0,.058,1.438,22.546,22.546,0,0,0,11.154,1.214,1.368,1.368,0,0,0,1.221-1.3l.255-7.2Z"/><path class="cls-1" d="M19.324,16.594s2.1-4.013,3.919-7c.945-1.552,1.808-1.959,2.666-1.822a.958.958,0,0,0,.913-.454c.8-1.044,1.465-2.329,2.634-2.169,1.507.205.836,1.976.836,1.976S32.39,3.787,33.3,3.6s1.94.632-.285,4.972a34.822,34.822,0,0,0-3.006,9.916Z"/><path class="cls-2" d="M28.9,23.073A8.665,8.665,0,0,1,24.9,26.716a.963.963,0,0,0-.518,1.258l2.067,4.938-1.265,1.194-3.415-2.069a6.677,6.677,0,0,0-6.014-.461l-.366.152A.615.615,0,0,1,14.6,30.9l3.276-6.867,9.17-7.881Z"/><path class="cls-3" d="M35.924,21.951s.3-4.973-8.883-5.8l-.44,1.866a4.541,4.541,0,0,0,2.3,5.06h0Z"/><path class="cls-4" d="M35.639,20.631l-2.093,1.7s2.5.7,1.6,3.042c0,0,2.793-1.185,1.862-3.243A3.027,3.027,0,0,0,35.639,20.631Z"/><path class="cls-4" d="M26.444,32.912l1.057-.355a1.157,1.157,0,0,1,1.436.649l1.2,2.857-2.508-1.816-.911.518.691,2.167-1.452-.626a.767.767,0,0,1-.448-.554l-.33-1.646Z"/><path class="cls-4" d="M34.3,31.933l-.877-2.278a1.513,1.513,0,0,0-1.939-.877l-2.255.833-.676,1.223,1.978,2.23-.138-1.638a.763.763,0,0,1,.511-.785l.861-.3a.762.762,0,0,1,.728.128Z"/><circle cx="33.478" cy="20.288" r="0.811"/><path class="cls-2" d="M27.041,16.147l-3.489-.464a13.525,13.525,0,0,1-9.981-6.735l-1.137-2h0a1.245,1.245,0,0,0-2.3.358L9.787,8.954a.665.665,0,0,1-.874.506l-2.5-.81a1.377,1.377,0,0,0-1.726,1.76l.719,2.075A1.742,1.742,0,0,1,3.717,14.8h0a.887.887,0,0,0-.863,1.172l.074.219a11.537,11.537,0,0,0,9.783,7.9,17.4,17.4,0,0,0,2.156.05l3-.114Z"/><rect class="cls-5" width="40" height="40"/></svg>