<svg id="Layer_1" data-name="Layer 1" xmlns="http://www.w3.org/2000/svg" viewBox="0 0 40 40"><defs><style>.cls-1{fill:#ced2d6;}.cls-2{fill:#c3775a;}.cls-3{fill:#3d3d3d;}.cls-4{fill:#6e4944;}.cls-5{fill:none;}</style></defs><path class="cls-1" d="M4.149,24.819l3.38-5.938,3.719-.455s.2-6.1-4.666-5.708S.228,21.581,4.149,24.819Z"/><circle class="cls-2" cx="26.828" cy="6.377" r="4.315"/><path class="cls-2" d="M22.766,7.835l1.554,4.74a1.49,1.49,0,0,1-1.114,1.934L9.953,17.221A3.767,3.767,0,0,0,8.688,24.09l10.921,6.944a4.757,4.757,0,0,0,4.215.443l5.391-2.943a9.655,9.655,0,0,0,3.72-13.33L29.254,9.928l-.023-3.07Z"/><path class="cls-1" d="M32.808,4.471,28.105,3.4a2.6,2.6,0,0,0-3.164,2.828h0a2.6,2.6,0,0,0,1.854,2.2L34.889,10.8Z"/><circle class="cls-3" cx="28.833" cy="5.541" r="1.074"/><path class="cls-2" d="M32.761,4.468l3.3.815a2.669,2.669,0,0,1,1.951,3.231l-.548,2.218-.3,1.2c-.942,2.622-4.406,2.027-4.406,2.027S34.521,8.407,32.761,4.468Z"/><path class="cls-4" d="M17.12,25.586a6.99,6.99,0,0,0,9.221-10.507Z"/><path class="cls-2" d="M23.609,31.3,22.7,36.476s6.131.094,6.857,2.028H17.12l3.926-2.059-.869-5.771Z"/><rect class="cls-5" width="40" height="40"/></svg>