<?xml version="1.0" encoding="UTF-8"?><svg id="Layer_1" xmlns="http://www.w3.org/2000/svg" viewBox="0 0 40 40"><g><g><path d="M10.63519,24.38647c.36639,0,.72363-.02075,1.0755-.05078-.49652-.16992-.93225-.49927-1.23639-.94849l-.37317-.55151c-3.49609-.14673-6.30646-1.71387-6.70807-3.70972l-.05365-.0166v1.06006c0,.4375,.11542,.85938,.32928,1.25586,.92487,1.71582,3.69397,2.96118,6.96649,2.96118Z" style="fill:#b83f28;"/><path d="M30.41125,22.83374c-.01617,.02075-.03558,.03809-.05157,.05884l-1.13611,1.47681c.19409,.00903,.38867,.01709,.58673,.01709,3.27246,0,6.04156-1.24536,6.96643-2.96118,.21387-.39648,.32928-.81836,.32928-1.25586v-1.21191l-.0293,.01221c-.28088,2.05664-3.10992,3.69604-6.66547,3.86401Z" style="fill:#b83f28;"/><path d="M20.22272,27.87256c-3.30615,0-6.04663-1.38477-6.59607-3.20508l-.10669-.01611v.75732c0,2.13965,3.00098,3.87427,6.70276,3.87427s6.70276-1.73462,6.70276-3.87427v-.29102l-.28949,.0061c-.83447,1.59058-3.38892,2.74878-6.41327,2.74878Z" style="fill:#b83f28;"/></g><g><path d="M7.38373,20.35986l-3.99066-1.23389c.40161,1.99585,3.21198,3.56299,6.70807,3.70972l-.82349-1.2168c-.50299-.59546-1.15967-1.03198-1.89392-1.25903Z" style="fill:#ff5638;"/><path d="M37.07672,18.96973l-3.44403,1.41333c-1.26154,.51782-2.36865,1.36401-3.22144,2.45068,3.55554-.16797,6.38458-1.80737,6.66547-3.86401Z" style="fill:#ff5638;"/><path d="M20.22272,27.87256c3.02435,0,5.5788-1.1582,6.41327-2.74878l-1.74634,.03687c-.45477,.00977-.89301,.177-1.24365,.4751l-1.94684,1.65527c-.92444,.49927-2.02838,.49927-2.95282,0l-1.95728-1.72559c-.37073-.3269-.82349-.53955-1.30627-.61353l-1.85614-.28442c.54944,1.82031,3.28992,3.20508,6.59607,3.20508Z" style="fill:#ff5638;"/></g><path d="M7.38373,20.35986c.73425,.22705,1.39093,.66357,1.89392,1.25903l.82349,1.2168,.37317,.55151c.30414,.44922,.73987,.77856,1.23639,.94849,.15814,.05396,.32202,.09351,.49042,.11353l1.31885,.20215,.10669,.01611,1.85614,.28442c.48279,.07397,.93555,.28662,1.30627,.61353l1.95728,1.72559c.92444,.49927,2.02838,.49927,2.95282,0l1.94684-1.65527c.35065-.2981,.78888-.46533,1.24365-.4751l1.74634-.03687,.28949-.0061,1.07001-.02246c.44733-.00952,.8653-.23145,1.13202-.60107l.09607-.12476,1.13611-1.47681c.01599-.02075,.0354-.03809,.05157-.05884,.85278-1.08667,1.9599-1.93286,3.22144-2.45068l3.44403-1.41333,.0293-.01221,.38617-.1582c.48053-.20996,.65723-.81763,.36755-1.26465l-.75372-1.1626v.49438c0,.04907-.02643,.09399-.06866,.11694l-15.27856,8.25391c-.96179,.51953-2.11035,.51953-3.07214,0L3.40814,16.9834c-.0423-.02295-.06873-.06787-.06873-.11694v-.14429l-.89264,.51685c-.6734,.38989-.5625,1.42041,.17749,1.64917l.71515,.22119,.05365,.0166,3.99066,1.23389Z" style="fill:#188f3d;"/><g><path d="M36.77673,22.00806v-.58276c-.92487,1.71582-3.69397,2.96118-6.96643,2.96118-.19806,0-.39264-.00806-.58673-.01709l-.09607,.12476c-.26672,.36963-.68469,.59155-1.13202,.60107l-1.07001,.02246v.29102c0,2.13965-3.00092,3.87427-6.70276,3.87427s-6.70276-1.73462-6.70276-3.87427v-.75732l-1.31885-.20215c-.1684-.02002-.33228-.05957-.49042-.11353-.35187,.03003-.70911,.05078-1.0755,.05078-3.27252,0-6.04163-1.24536-6.96649-2.96118v.84424c0,.28516,.14703,.54395,.37952,.69336,.01709,.01123,.03076,.02637,.04883,.03613l14.6781,7.9292c.90637,.48975,1.98877,.48975,2.8952,0l14.45294-7.80762c.07996-.04346,.14893-.10059,.21619-.15918,.27075-.2356,.43726-.57935,.43726-.95337Z" style="fill:#ffca38;"/><path d="M3.40814,16.9834l15.2785,8.25391c.96179,.51953,2.11035,.51953,3.07214,0l15.27856-8.25391c.04224-.02295,.06866-.06787,.06866-.11694v-1.14478l-.01172,.00854-15.33557,8.28467c-.96173,.51953-2.11023,.51953-3.07202,0L3.33942,15.72388v1.14258c0,.04907,.02643,.09399,.06873,.11694Z" style="fill:#ffca38;"/></g><g><path d="M18.68549,32.29834L2.65784,23.63989v2.44141c0,.32471,.17505,.6228,.45453,.77368l15.57434,8.41357c.96179,.51978,2.11029,.51978,3.07202,0l15.33557-8.28442c.42633-.23022,.69336-.68506,.69336-1.18042v-2.16382l-16.02765,8.65845c-.96259,.52002-2.112,.52002-3.07452,0Z" style="fill:#cf892d;"/><path d="M18.68671,24.01489c.96179,.51953,2.11029,.51953,3.07202,0l15.33557-8.28467,.01172-.00854c.41876-.23267,.68164-.6814,.68164-1.17188v-2.16382l-16.02765,8.65845c-.96259,.52002-2.112,.52002-3.07452,0L2.65784,12.38599v2.44141c0,.32495,.17505,.6228,.45453,.77368l.22705,.1228,15.34729,8.29102Z" style="fill:#cf892d;"/></g><g><path d="M21.67035,30.92822c-.90643,.48975-1.98883,.48975-2.8952,0l-14.6781-7.9292c-.01807-.00977-.03174-.0249-.04883-.03613l-1.39038,.677,16.02765,8.65845c.96252,.52002,2.11194,.52002,3.07452,0l16.02765-8.65845-1.44818-.67847c-.06726,.05859-.13623,.11572-.21619,.15918l-14.45294,7.80762Z" style="fill:#ffa938;"/><path d="M18.68549,21.04443c.96252,.52002,2.11194,.52002,3.07452,0l16.02765-8.65845L21.2514,4.64087c-.87262-.40869-1.8764-.39844-2.74097,.02808L2.65784,12.38599l16.02765,8.65845Z" style="fill:#ffa938;"/></g></g><rect y="0" width="40" height="40" style="fill:none;"/></svg>