<svg id="Layer_1" data-name="Layer 1" xmlns="http://www.w3.org/2000/svg" viewBox="0 0 40 40"><defs><style>.cls-1{fill:#c7b08b;}.cls-2{fill:#e0c9a6;}.cls-3{fill:none;}</style></defs><path class="cls-1" d="M16.905,5.321s-2.525,4.5-5.052,6.448,2.03,2.506,2.03,2.506l3.591-1.054.274-8.08Z"/><path class="cls-1" d="M23.048,5.321s2.526,4.5,5.052,6.448-2.03,2.506-2.03,2.506l-3.591-1.054-.273-8.08Z"/><path class="cls-1" d="M19.259,26.817c0-5.01,3.7-18.168,3.7-18.168S37.034,15.4,37.034,24.476c0,5.011-3.98,9.986-8.887,9.986S19.259,31.828,19.259,26.817Z"/><path class="cls-1" d="M20.741,26.817c0-5.01-3.7-18.168-3.7-18.168S2.966,15.4,2.966,24.476c0,5.011,3.98,9.986,8.887,9.986S20.741,31.828,20.741,26.817Z"/><path class="cls-2" d="M23.1,9.32v-4A2.329,2.329,0,0,0,20.774,3H19.226a2.329,2.329,0,0,0-2.321,2.321v4a14.837,14.837,0,0,1-2.07,7.551c-2.135,4.243-4.12,7.52-4.12,11.814C10.715,33.813,12.11,37,20,37s9.285-3.187,9.285-8.315c0-4.294-1.985-7.571-4.12-11.814A14.837,14.837,0,0,1,23.1,9.32Z"/><rect class="cls-3" width="40" height="40"/></svg>