<svg id="Layer_1" data-name="Layer 1" xmlns="http://www.w3.org/2000/svg" viewBox="0 0 40 40"><defs><style>.cls-1{fill:#036d50;}.cls-2{fill:#03905a;}.cls-3{fill:#23b169;}.cls-4{fill:#0a9f60;}.cls-5{fill:#68c76f;}.cls-6{fill:none;}</style></defs><path class="cls-1" d="M29.408,11.244a5.848,5.848,0,0,0-4.689-5.463,5.822,5.822,0,0,0-11.125.73,5.838,5.838,0,0,0-2.334,8.757,5.744,5.744,0,0,0,1.933,7.169A12.148,12.148,0,0,0,13.1,24.53c.231,5.187,3.659,9.246,7.657,9.068s7.05-4.527,6.819-9.713a12.3,12.3,0,0,0-.227-1.86,5.794,5.794,0,0,0,1.377-7.819A5.8,5.8,0,0,0,29.408,11.244Z"/><path class="cls-2" d="M23.787,11.906a5.847,5.847,0,0,0-5.645-4.467A5.822,5.822,0,0,0,7.36,10.279a5.839,5.839,0,0,0-.619,9.042,5.743,5.743,0,0,0,3.266,6.668,12,12,0,0,0,.309,2.072c1.217,5.047,5.357,8.378,9.247,7.44s6.056-5.79,4.839-10.837a12.135,12.135,0,0,0-.578-1.782,5.794,5.794,0,0,0-.14-7.938A5.808,5.808,0,0,0,23.787,11.906Z"/><path class="cls-3" d="M34.992,16.164A5.847,5.847,0,0,0,31.8,9.712a5.822,5.822,0,0,0-10.96-2.046,5.838,5.838,0,0,0-4.429,7.907,5.746,5.746,0,0,0,.1,7.424,12.066,12.066,0,0,0-.607,2c-1.059,5.083,1.257,9.864,5.175,10.681s7.951-2.642,9.01-7.724a12.062,12.062,0,0,0,.24-1.858A5.792,5.792,0,0,0,33.6,18.866,5.8,5.8,0,0,0,34.992,16.164Z"/><path class="cls-4" d="M30.089,27.959a12.078,12.078,0,0,0,.24-1.858A5.792,5.792,0,0,0,33.6,18.866a5.795,5.795,0,0,0-1.8-9.154A5.841,5.841,0,0,0,27.2,4.64c-.028-.006-.056,0-.084-.01l-6,31.058C25.021,36.476,29.033,33.025,30.089,27.959Z"/><path class="cls-5" d="M23.792,35.572a12.457,12.457,0,0,0-6.905,0v1.376A1.052,1.052,0,0,0,17.939,38h4.8a1.052,1.052,0,0,0,1.052-1.052V35.572"/><rect class="cls-6" width="40" height="40"/></svg>