<svg id="Layer_1" data-name="Layer 1" xmlns="http://www.w3.org/2000/svg" viewBox="0 0 40 40"><defs><style>.cls-1{fill:#104be0;}.cls-2{fill:#2f81f9;}.cls-3{fill:#1033e0;}.cls-4{fill:none;}</style></defs><ellipse class="cls-1" cx="20" cy="6.198" rx="3.005" ry="1.698"/><path class="cls-2" d="M20,6.027C6.374,6.027,3.054,17.2,2.249,22.29A4.566,4.566,0,0,0,3.581,26.3h0L20,24.913,36.419,26.3h0a4.566,4.566,0,0,0,1.332-4.008C36.946,17.2,33.626,6.027,20,6.027Z"/><path class="cls-3" d="M5.031,25.026l-.567.146a1.452,1.452,0,0,0-1.091,1.406l.508,3.646a6.12,6.12,0,0,0,7.705,5.049l2.842-.793a20.734,20.734,0,0,1,11.144,0l2.842.792a6.119,6.119,0,0,0,7.7-5.048l.508-3.646a1.452,1.452,0,0,0-1.091-1.406l-.567-.146A60.177,60.177,0,0,0,5.031,25.026Z"/><rect class="cls-4" width="40" height="40"/></svg>