<?xml version="1.0" encoding="UTF-8"?><svg id="a" xmlns="http://www.w3.org/2000/svg" viewBox="0 0 40 40"><g><path d="M30.443,30.108H9.557l5.222-13.054s22.192-7.209,22.192,0-2.922,13.054-6.527,13.054Z" fill="#6b7680"/><path d="M36.97,17.054c0-7.209-2.922-13.054-6.527-13.054H9.557l6.527,13.054v18.946h20.886V17.054h0Z" fill="#e2e5e8"/><path d="M9.557,4c-3.605,0-6.527,5.844-6.527,13.054s2.922,13.054,6.527,13.054,6.527-5.844,6.527-13.054-2.922-13.054-6.527-13.054Zm0,16.535c-.961,0-1.741-1.559-1.741-3.481s.779-3.481,1.741-3.481,1.741,1.558,1.741,3.481-.779,3.481-1.741,3.481Z" fill="#adb5be"/></g><rect width="40" height="40" fill="none"/></svg>