<?xml version="1.0" encoding="UTF-8"?><svg id="Layer_1" xmlns="http://www.w3.org/2000/svg" viewBox="0 0 40 40"><g><g><path d="M19.50228,14.08208c-.28422-1.65795,.11095-3.3749,1.11569-4.7237,.68396-.91748,1.29436-1.38453,1.29436-1.38453,1.70989-1.52415,2.85383-3.31507,3.63544-4.97385h-8.44889c-3.08424,9.16152-2.04023,20.70317-2.04023,20.70317,0,0,.95259,3.67491,15.16462,4.26579v-1.68205c-5.48162-1.54409-9.70586-6.29106-10.72099-12.20483Z" style="fill:#523725;"/><ellipse cx="29.42068" cy="11.78754" rx="1.64901" ry="1.97873"/><path d="M35.40113,31.86077c-.41096,.14876-.8485,.2435-1.3114,.2435-1.90643,0-3.48169-1.38287-3.79915-3.19872-.95072,.1953-1.89189,.45375-2.80979,.8028l-7.16408,2.7217c-2.53263,.96236-4.74053,2.54884-6.45353,4.56996h21.53796v-5.13923Z" style="fill:#482ec5;"/><path d="M32.27286,20.06578h3.12808l.00019-17.06559-9.85314-.00007c-.78202,1.65878-1.92555,3.4497-3.63585,4.97385,0,0-.60999,.46705-1.29395,1.38453-1.00474,1.3488-1.40032,3.06575-1.1161,4.7237,1.01555,5.91377,5.23978,10.66074,10.7214,12.20483v1.95048c0,.22854,.02909,.45043,.06732,.66817,.31746,1.81585,1.89231,3.19872,3.79874,3.19872,.4629,0,.90086-.09474,1.3114-.2435v-9.37344c-.33325,.14959-.68977,.25596-1.07871,.25596-1.23328,0-2.27127-.83271-2.58291-1.9671-.09723-.35652,.16455-.71055,.53354-.71055Zm-2.85217-6.29937c-.91083,0-1.64881-.8859-1.64881-1.97873s.73797-1.97873,1.64881-1.97873,1.64881,.8859,1.64881,1.97873-.73797,1.97873-1.64881,1.97873Z" style="fill:#c3846c;"/><path d="M32.27285,20.06565c-.36899,0-.63098,.35403-.53333,.71055,.31123,1.13439,1.34963,1.9671,2.58249,1.9671,.38935,0,.74545-.10637,1.07912-.25596v-2.42169h-3.12829Z" style="fill:#5c2f17;"/><path d="M10.60606,28.9787c.33571-.93362,.9428-1.7456,1.74332-2.3317l3.01265-2.20571,5.2821-3.86729c.51807-.3793,1.23835-.30914,1.67348,.16301h0c.43966,.47707,.44596,1.20976,.01458,1.69433l-3.42688,3.84939,1.11003,1.24388c.48138,.53942,.67797,1.2754,.52969,1.98301l-.7262,3.46563c-.20791,.99221-.85551,1.83614-1.76012,2.29374l-3.25658,1.64732-6.72965-.88977,2.53358-7.04586Z" style="fill:#c3846c;"/><polygon points="16.73103 36.99979 7.59166 32.11524 4.59887 36.99979 16.73103 36.99979" style="fill:#482ec5;"/></g><rect width="40" height="40" style="fill:none;"/></g><g><path d="M11.29297,21.94336c-.0957,0-.19336-.01855-.28711-.05762-2.64746-1.09668-3.91016-4.14355-2.81348-6.79199,.15918-.38379,.59863-.56152,.98047-.40625,.38281,.15918,.56445,.59766,.40625,.98047-.78125,1.88379,.11719,4.05176,2.00098,4.83301,.38281,.1582,.56445,.59668,.40625,.97949-.12012,.28906-.39941,.46289-.69336,.46289Z" style="fill:#cecfcf;"/><path d="M9.79785,24.46582c-.0957,0-.19336-.01855-.28711-.05664-3.8125-1.5791-5.63086-5.96582-4.05176-9.78027,.15918-.38379,.60059-.56152,.98047-.40625,.38281,.15918,.56445,.59766,.40625,.98047-1.2627,3.0498,.19043,6.55762,3.23926,7.81934,.38281,.15918,.56445,.59766,.40625,.98047-.12012,.28906-.39941,.46289-.69336,.46289Z" style="fill:#cecfcf;"/></g></svg>