<?xml version="1.0" encoding="UTF-8"?><svg id="a" xmlns="http://www.w3.org/2000/svg" viewBox="0 0 40 40"><rect width="40" height="40" fill="none"/><g><path d="M35.78,15.13h-.62c-.95-7.53-7.38-13.38-15.16-13.38S5.79,7.6,4.84,15.13h-.62c-.99,0-1.79,.8-1.79,1.79v1.44c0,.99,.8,1.8,1.79,1.8h31.56c.99,0,1.79-.81,1.79-1.8v-1.44c0-.99-.8-1.79-1.79-1.79Zm-28.98,0c.93-6.46,6.49-11.45,13.2-11.45s12.27,4.99,13.2,11.45H6.8Z" fill="#8a581d"/><g><path d="M24.915,36.251H15.085v-5.365H7.811l.578,2.573c.367,1.633,1.817,2.792,3.49,2.792H28.12c1.673,0,3.123-1.16,3.49-2.792l.578-2.573h-7.273v5.365Z" fill="#f6af34"/><polygon points="15.085 20.156 5.399 20.156 6.605 25.521 15.085 25.521 15.085 20.156" fill="#f6af34"/><rect x="15.085" y="25.521" width="9.831" height="5.365" fill="#f6af34"/><polygon points="24.915 25.521 33.395 25.521 34.601 20.156 24.915 20.156 24.915 25.521" fill="#f6af34"/></g><g><polygon points="15.085 25.521 6.605 25.521 6.605 25.521 7.811 30.886 7.811 30.886 15.085 30.886 15.085 25.521" fill="#b87427"/><rect x="15.085" y="30.886" width="9.831" height="5.365" fill="#b87427"/><rect x="15.085" y="20.156" width="9.831" height="5.365" fill="#b87427"/><polygon points="24.915 30.886 32.189 30.886 32.189 30.886 33.395 25.521 33.395 25.521 24.915 25.521 24.915 30.886" fill="#b87427"/></g></g></svg>