<?xml version="1.0" encoding="UTF-8"?><svg id="Layer_1" xmlns="http://www.w3.org/2000/svg" viewBox="0 0 40 40"><rect x="0" width="40" height="40" style="fill:none;"/><g><path d="M13.85236,29.11053l4.80096,1.52032c.90472,.28656,1.87689,.27966,2.77753-.01965l4.51593-1.50067h1.22961l-.21265-12.21442c-.27228-.2489-.55664-.48297-.85114-.70264l-.026-.01965c-.27917-.20691-.56909-.39807-.86652-.57666-.02765-.0166-.05444-.0343-.08228-.05066-.28326-.16656-.57593-.31689-.87415-.45599-.03998-.01868-.07843-.03998-.11865-.05811-.32898-.14832-.66595-.28052-1.01105-.39331l-.00763-.00299-.00146-.00043c-.10663-.03247-.21515-.06305-.32446-.09338l-.00098-.00031c-.10449-.03015-.21045-.05591-.31616-.08289h-.00012c-.18469-.04602-.3786-.07922-.5697-.11658-.01385,.00464-.02728,.01086-.0412,.01532v.66309c0,1.05811-.85779,1.91589-1.91589,1.91589h-.00006c-1.05811,0-1.91589-.85779-1.91589-1.91589v-.67975c-.1933,.03766-.38928,.07135-.57605,.11786l-.00037,.00006c-.10571,.02698-.21167,.05273-.31616,.08289l-.00159,.00049c-.10895,.03009-.21729,.06079-.32361,.09314l-.00171,.00049-.00903,.00354c-.34448,.11267-.68091,.24463-1.00934,.39264-.04065,.01837-.07953,.03986-.11993,.05872-.29779,.13892-.5899,.28906-.87274,.45532-.02826,.0166-.05548,.03461-.08356,.05145-.29657,.1781-.58582,.36865-.86426,.57501l-.02954,.02234c-.29315,.21875-.57635,.45184-.84753,.69958l-.00171,.0014v.00018l-.21252,12.21423h1.0816Z" style="fill:#5776ff;"/><path d="M29.62347,29.11053h-3.6767l-4.51593,1.50067c-.90063,.29932-1.8728,.30621-2.77753,.01965l-4.80096-1.52032h-4.54321c-.08533,0-.16516,.01953-.24908,.02509-1.97614,.13062-3.5434,1.75812-3.5434,3.76733,0,3.00366,2.435,5.43866,5.43872,5.43866H29.04462c3.00372,0,5.43872-2.435,5.43872-5.43866,0-2.02734-1.59491-3.66858-3.59631-3.77264-.06635-.00348-.12897-.01978-.19617-.01978h-1.06738Z" style="fill:#4e5968;"/><g><path d="M12.97998,16.89996l-.20996,12.21002H6.54999v-.01001c-.02997,.01001-.06,.01001-.08997,.01001-1.96002,0-3.11005-1.53998-2.90002-3.09998,.12-.89001,.56-1.66003,1.26001-2.75,.14996-.23004,.53998-.19,.76001,.00995,.20996,.19,.19,.51001,.07001,.75-.14001,.27002-.31,.59003-.49005,.96002-.32996,.67999,.20001,1.22998,.69,1.22998h.09003c.34998,0,1.14001-.5,.60999-1.39996l-.46997-.82001c-.12-.23999-.07001-.53998,.14996-.72003,.25-.19,.61005-.14996,.80005,.10004l.67999,.81c.64996,.77997,1.02997,1.35999,1.10999,2.28998h.37l.09003-1.59998c.15997-3.20001,1.56995-6.02002,3.69995-7.97003Z" style="fill:#ffc84d;"/><path d="M13.96997,7.66998q-.00995,.01001-.01996,.01001v-.01001h.01996Z" style="fill:#ffc84d;"/><path d="M26.03003,7.65997v.03003c-.36005-.04999-.72003-.14001-1.08002-.25-1.66998-.51001-3.32001-1.65002-4.96002-3.31-1.33002,1.96997-2.64001,3.10999-4.19,3.45996-.58002,.14001-1.17999,.17004-1.83002,.08002q-.00995,.01001-.01996,.01001c-.71002,.37-1.20001,1.09998-1.20001,1.96002,0,.95996,.62,1.76996,1.46997,2.06995,.20001,.07001,.41003,.11005,.63,.13,.15002,.23004,.31,.45001,.49005,.67004,.62,.72998,1.37994,1.25995,2.19,1.62,.16998,.07001,.32996,.13995,.5,.19995h.00995v.69c0,1.06,.86005,1.92004,1.92004,1.92004,.51996,0,1-.22003,1.34998-.56,.34998-.35004,.56-.83002,.56-1.36005v-.65997c.02002-.01001,.03003-.01001,.03998-.02002,.01001,0,.03003-.01001,.04004-.01001,.16998-.06,.33997-.12,.51001-.19995,.52997-.23004,1.02997-.54004,1.48999-.92999,.46997-.41003,.87-.86005,1.19-1.36005,.19-.01001,.37-.03998,.54999-.09998,.90997-.27002,1.58002-1.09998,1.58002-2.09998,0-.87006-.51001-1.62006-1.23999-1.98004Zm-7.15002,1.85999c-.29999,0-.53998-.37-.53998-.81995,0-.45001,.23999-.81,.53998-.81s.53998,.35999,.53998,.81c0,.44995-.23999,.81995-.53998,.81995Zm2.15002,0c-.29004,0-.54004-.37-.54004-.81995,0-.45001,.25-.81,.54004-.81,.29999,0,.54999,.35999,.54999,.81,0,.44995-.25,.81995-.54999,.81995Z" style="fill:#ffc84d;"/><path d="M33.52002,29.10999c-.03003,0-.06,0-.09003-.01001v.01001h-6.25l-.21997-12.21002c2.13995,1.94,3.54999,4.77002,3.70996,7.97003l.08002,1.59998h.40997c.08002-.92999,.46002-1.51001,1.11005-2.28998l.67999-.81c.19-.25,.54999-.29004,.79999-.10004,.14001,.12006,.21997,.28003,.21997,.45001,0,.09003-.01996,.19-.06995,.27002l-.47003,.82001c-.52002,.89996,.26001,1.39996,.60999,1.39996h.09003c.48999,0,1.02002-.54999,.69-1.22998-.17999-.37-.35004-.69-.48999-.96002-.12-.23999-.14001-.56,.07001-.75,.21997-.19995,.60999-.23999,.75995-.00995,.70001,1.08997,1.14001,1.85999,1.26001,2.75,.21002,1.56-.94,3.09998-2.89996,3.09998Z" style="fill:#ffc84d;"/></g><g><path d="M18.87909,9.51941c.29913,0,.54163-.36487,.54163-.815,0-.45007-.24249-.815-.54163-.815-.29907,0-.54156,.36493-.54156,.815,0,.45013,.24249,.815,.54156,.815Z"/><path d="M21.03491,9.51941c.29907,0,.54156-.36487,.54156-.815,0-.45007-.24249-.815-.54156-.815-.29913,0-.54163,.36493-.54163,.815,0,.45013,.24249,.815,.54163,.815Z"/></g><g><g><path d="M15.34424,12.50989c-.18353-.21533-.34296-.44244-.49152-.67413-.22076-.01099-.43164-.0542-.63074-.12537l-.1123,1.83051c-.01971,.32074,.23511,.59167,.55646,.59167h2.86798c-.81781-.35913-1.57166-.89728-2.18988-1.62268Z" style="fill:#ff9000;"/><path d="M23.9519,13.19635c-.46149,.39331-.96558,.70282-1.49316,.93622h2.87506c.33228,0,.59076-.28882,.55414-.61902l-.19641-1.77039c-.17792,.05365-.36273,.08887-.5564,.09576-.31763,.49628-.71149,.95538-1.18323,1.35742Z" style="fill:#ff9000;"/></g><path d="M15.79773,7.59351c1.54858-.35571,2.86194-1.49176,4.19257-3.46185,1.6391,1.66046,3.28992,2.80212,4.95477,3.30707,.36267,.10999,.72571,.20026,1.08978,.24731l-.00574-.02417c-.00159-.01099-.00592-.02087-.00757-.0318-.05341-.34985-.13257-.69067-.24231-1.01733l-.01245-.03363c-.70941-2.07062-2.49603-3.61969-4.64655-4.02783l-.02704-.00616c-.3382-.06262-.6864-.0921-1.03961-.09583-.02148-.00024-.04175-.00586-.06329-.00586-.0105,0-.02039,.00281-.03088,.00287-.34552,.00177-.68451,.03534-1.01599,.09351-.03259,.00574-.06543,.00958-.09784,.01581-.33496,.06445-.66095,.15668-.97546,.27423-.02203,.00824-.04401,.01593-.06592,.02441-.32306,.125-.63452,.27515-.92957,.45129l-.02057,.01276c-.90277,.54376-1.65662,1.31641-2.17993,2.24103-.013,.02301-.02612,.04559-.03882,.06873-.15753,.28699-.29065,.58929-.40112,.90277-.01562,.04431-.02954,.08899-.04413,.13379-.09955,.30493-.17645,.62018-.22717,.94513-.00336,.02161-.01196,.0412-.01514,.06287l.00702,.00043,.01324,.00073c.6521,.0835,1.2561,.05151,1.82971-.08026Z" style="fill:#ff9000;"/></g></g></svg>