<?xml version="1.0" encoding="UTF-8"?><svg id="Layer_1" xmlns="http://www.w3.org/2000/svg" viewBox="0 0 40 40"><rect width="40" height="40" style="fill:none;"/><g><path d="M35.66309,18.94043c-.46875,0-.87598-.20312-1.17773-.58691-1.76172-2.23633,.40527-11.50488,.6582-12.55371,.05859-.24023,.27246-.40918,.51953-.40918s.46094,.16895,.51953,.40918c.25293,1.04883,2.41992,10.31738,.6582,12.55371-.30176,.38379-.70898,.58691-1.17773,.58691Zm0-10.48535c-.70801,3.66016-1.21777,8.12207-.33887,9.2373,.12402,.1582,.23633,.17969,.33887,.17969s.21484-.02148,.33887-.17969c.87891-1.11621,.36914-5.57812-.33887-9.2373Z" style="fill:#4c5154;"/><path d="M35.9172,6.59996c.24142-.23302,.37657-.54527,.38-.8819,.00302-.33458-.12573-.65015-.3631-.88671l-1.10903-1.10985c-.23753-.23753-.5528-.36679-.88778-.36254-.33565,.00277-.64729,.13771-.88092,.37934l-4.48522,4.66273,2.68179,2.68179,4.66426-4.48286Z" style="fill:#3d3d3d;"/><g><polygon points="31.25294 11.08302 28.57112 8.40094 24.05087 13.12314 26.52853 15.60079 31.25294 11.08302" style="fill:#3d3d3d;"/><path d="M3.30189,34.79987c-.40847,.42502-.4013,1.10871,.0146,1.52487,.30143,.30143,.74275,.38748,1.12462,.25814,.1455-.04954,.28265-.13038,.40051-.24354l9.40763-8.99642-1.9465-1.94624L3.30189,34.79987Z" style="fill:#de3821;"/><polygon points="24.05087 13.12314 12.30275 25.39668 14.24925 27.34292 26.52853 15.60079 24.05087 13.12314" style="fill:#c3d0d9;"/></g></g></svg>