<?xml version="1.0" encoding="UTF-8"?><svg id="Layer_1" xmlns="http://www.w3.org/2000/svg" viewBox="0 0 40 40"><g><path d="M12.3459,4.37486s-.11499-2.26486,1.93864-2.63842c1.60745-.2924,2.90207,.09448,3.93133-.76686,.14771-.12361,.36947-.01558,.34163,.17433-.1209,.82474-.5378,2.2647-1.97507,2.53127-2.03694,.3778-3.61175,.39979-3.911,.7676l-.32553-.06792Z" style="fill:#2e3d51;"/><circle cx="12.34799" cy="7.32054" r="3.10432" style="fill:#8b8bf4;"/><path d="M10.86789,7.48734h-2.07334c-.6456,0-1.03406,.71581-.68221,1.25711l1.11626,1.6891c.66949,1.01305,.29182,2.38398-.802,2.91127l-2.56015,1.23416c-1.67963,.80969-2.80096,2.32333-3.16975,4.02265-.3922,1.8072-.02922,4.61866,2.36585,5.70222l1.07049,.47677,.40746,1.31535c1.0243,5.36763,6.36807,8.75543,11.65972,7.39194,0,0,4.15346-.94984,7.149-6.53037,0,0,1.45247-3.29127,4.41453-2.45665,2.47169,.69644,1.88135,3.75081-.14634,5.05982-1.37899,.89023-3.98994,2.22791-3.20208,4.98543,0,0-.04665-1.73792,3.74235-2.95449,3.82616-1.22849,4.84569-3.39469,4.13628-6.43421-.9353-4.0074-5.22467-4.41592-7.65391-3.16847-2.42924,1.24745-4.29534,5.00682-6.265,4.67854-1.96966-.32828-2.13652-2.36359-2.13652-2.36359l1.73393-1.1423c3.13091-2.06263,2.9973-6.2367-.25912-8.09487l-1.02864-.48778-2.56015-1.23416c-1.09382-.52729-1.47149-1.89822-.802-2.91127l1.11626-1.6891c.35184-.5413-.03662-1.25711-.68221-1.25711h-4.8887Z" style="fill:#8b8bf4;"/><ellipse cx="32.59531" cy="36.31211" rx="2.68205" ry="1.96836" style="fill:#ffad00;"/><path d="M31.13563,37.98909c-1.48043-.50974-2.90755-1.33695-4.28455-2.46358l.24055-.8959c2.26016,.56358,4.06813,.8044,5.0298,.44132l-.9858,2.91816Z" style="fill:#ffad00;"/><path d="M36.05114,34.48977c-.76515,0-1.38752,.62237-1.38752,1.38752,0,.7654,.62237,1.38778,1.38752,1.38778,.7654,0,1.38778-.62237,1.38778-1.38778,0-.76515-.62237-1.38752-1.38778-1.38752Zm0,2.13106c-.41022,0-.74353-.33331-.74353-.74353,0-.40997,.33331-.74353,.74353-.74353s.74353,.33356,.74353,.74353c0,.41022-.33331,.74353-.74353,.74353Z" style="fill:#ffad00;"/><path d="M34.80915,35.21991c0-.64625-.99856-1.43612-2.23041-1.43612s-2.23035,.78987-2.23035,1.43612c-.00027,.34097,4.4605,.34097,4.46077,0Z" style="fill:#f77f00;"/><circle cx="32.57877" cy="33.48923" r=".62086" style="fill:#f77f00;"/><path d="M20.0702,26.57663c-1.66369-.48402-1.83157-2.27263-1.83157-2.27263v-.00027h0c-4.70412,2.03818-9.72569,1.91565-11.70685,1.76421l.00875,.02811c.29359,1.53798,.95053,2.90569,1.85067,4.05354,2.52432-.16894,9.07512-.86858,11.679-3.57297Z" style="fill:#ffb72d;"/><ellipse cx="11.45878" cy="7.4987" rx=".36506" ry=".49268" style="fill:#17202c;"/><ellipse cx="13.08439" cy="7.4987" rx=".36506" ry=".49268" style="fill:#17202c;"/><path d="M13.09853,8.56048c-.3882-.10501-.63189,.09871-.71678,.18843-.01839,.01943-.04914,.01943-.06753,0-.08489-.08972-.32858-.29344-.71678-.18843-.30986,.08381-.99919,.64829-1.87111,.1128-.03955-.02429-.08753,.01583-.06879,.05829,.17828,.40396,.84834,1.50059,2.6738,.80498,.01057-.00403,.02271-.00403,.03329,0,1.82546,.6956,2.49552-.40102,2.6738-.80498,.01874-.04246-.02924-.08258-.06879-.05829-.87193,.53549-1.56126-.02899-1.87111-.1128Z" style="fill:#17202c;"/><path d="M34.37417,38.76458c-1.18896,.43522-2.43414,.41427-3.7276,0l.62751-.92584h2.46015l.63993,.92584Z" style="fill:#ffad00;"/><path d="M6.7839,18.1648l4.24204,1.63888c.79777,.30821,1.68801,.26927,2.45583-.10742l3.74451-1.83708-10.44237,.30563Z" style="fill:#786de7;"/></g><rect x="0" width="40" height="40" style="fill:none;"/></svg>