<svg id="Layer_1" data-name="Layer 1" xmlns="http://www.w3.org/2000/svg" viewBox="0 0 40 40"><defs><style>.cls-1{fill:#d12030;}.cls-2{fill:#ef4452;}.cls-3{fill:#804f21;}.cls-4{fill:#ffc33a;}.cls-5{fill:none;}</style></defs><path class="cls-1" d="M19.008,2.9,1.954,19.906c-.9.9.006,4.656,3.057,7.714S12.105,31.878,13,30.982L30.058,13.971Z"/><ellipse class="cls-2" cx="24.533" cy="8.433" rx="2.299" ry="7.822" transform="translate(1.209 19.79) rotate(-44.932)"/><path class="cls-3" d="M27.944,29.3l-1.478-.336.169-.739c1.09-4.787,7.88-10.57,8.169-10.814A6.346,6.346,0,0,0,25.8,8.471l-.537.535L24.189,7.934l.537-.536a7.86,7.86,0,1,1,11.1,11.129c-.113.1-6.738,5.742-7.716,10.035Z"/><polygon class="cls-2" points="26.403 23.27 27.916 26.647 31.374 25.33 30.056 28.787 33.433 30.301 30.056 31.814 31.374 35.272 27.916 33.954 26.403 37.331 24.889 33.954 21.431 35.272 22.749 31.814 19.372 30.301 22.749 28.787 21.431 25.33 24.889 26.647 26.403 23.27"/><polygon class="cls-4" points="25.583 32.28 23.71 32.993 24.424 31.12 22.595 30.301 24.424 29.481 23.711 27.609 25.583 28.322 26.403 26.494 27.222 28.322 29.095 27.609 28.381 29.481 30.21 30.301 28.381 31.12 29.095 32.993 27.222 32.28 26.403 34.108 25.583 32.28"/><rect class="cls-5" width="40" height="40"/></svg>