<svg id="Layer_1" data-name="Layer 1" xmlns="http://www.w3.org/2000/svg" viewBox="0 0 40 40"><defs><style>.cls-1{fill:#ef4452;}.cls-2{fill:#d12030;}.cls-3{fill:none;}</style></defs><path class="cls-1" d="M19.56,9.57l-3.7-3.627c-.938-.919-3.236-2.868-6.107.063-6.045,6.17-2.292,14.683-2.292,14.683l.617.605Z"/><path class="cls-2" d="M31.145,7.618C24.463,1.071,20.956,2.207,16.474,6.547,9.221,13.952,7.458,20.689,7.458,20.689L19.8,32.779a40.043,40.043,0,0,0,13.953-9.306C38.116,19.017,37.828,14.164,31.145,7.618Z"/><path class="cls-1" d="M19.8,32.779,7.458,20.689l-3.627,3.7a1.727,1.727,0,0,0,.025,2.443l9.873,9.671a1.727,1.727,0,0,0,2.443-.025Z"/><rect class="cls-3" width="40" height="40"/></svg>