<?xml version="1.0" encoding="UTF-8"?><svg id="Layer_1" xmlns="http://www.w3.org/2000/svg" viewBox="0 0 40 40"><g><g><path d="M28.76004,28.98359c-.00119-.40643-.3316-.73488-.73803-.73369l-1.43175,.00431,.8267-1.16889c.23466-.33176,.15597-.791-.17585-1.02569s-.79102-.15592-1.02569,.17585l-1.59692,2.25785-.0001,.00008-1.65073,2.33391c-.23469,.33182-.15597,.791,.17585,1.02569s.79102,.15592,1.02569-.17585l.89762-1.2691,.74337,1.46155c.18421,.36225,.62721,.50655,.98948,.32228,.36225-.18421,.50649-.62723,.32228-.98948l-.75067-1.47589,1.6551-.00488c.4064-.00127,.73485-.33168,.73364-.73806Z" style="fill:#037f56;"/><path d="M28.37456,20.05847l-1.51375-.67102,1.2807-1.04845c.31447-.25738,.3607-.72101,.10325-1.03549s-.72107-.3607-1.03555-.10326l-1.10786,.90697-.09646-1.42845c-.02736-.40546-.37827-.71199-.78373-.68462-.40547,.02742-.71199,.37827-.68463,.78379l.18632,2.75934h0l.19265,2.85215c.02735,.40552,.37827,.71199,.78373,.68462s.71199-.37827,.68462-.78373l-.10472-1.55093,1.49902,.66455c.37152,.16467,.80621-.00302,.97094-.37453,.16467-.37152-.00301-.80627-.37453-.97094Z" style="fill:#037f56;"/><path d="M17.93755,2.83923l-.57891,1.55131-1.12346-1.21544c-.2758-.29845-.74137-.31675-1.03982-.04089-.29845,.27586-.31676,.74143-.0409,1.03988l.97185,1.0514-1.42008,.18206c-.40309,.05166-.68799,.42034-.63633,.82343,.05172,.40309,.42034,.68799,.82349,.63633l2.74318-.35166h0l2.83544-.36355c.40315-.05165,.68799-.42034,.63633-.82343s-.42034-.68799-.82343-.63633l-1.54184,.19765,.57334-1.53621c.14207-.38074-.05142-.80457-.43215-.9467-.38074-.14207-.80463,.05141-.9467,.43215Z" style="fill:#037f56;"/><path d="M6.30786,18.38374l1.46781,.76631-1.34504,.96453c-.33026,.23678-.406,.69651-.16917,1.02678s.69657,.40601,1.02684,.16918l1.16351-.83437,.00505,1.4317c.00141,.40638,.33203,.73469,.73842,.73327,.40639-.00147,.73469-.33203,.73328-.73848l-.00973-2.76561h0l-.01012-2.85863c-.0014-.40644-.33203-.73469-.73842-.73327s-.73469,.33203-.73327,.73842l.00546,1.55445-1.45352-.75891c-.36025-.18806-.80475-.04847-.99287,.31177-.18806,.36025-.04848,.80481,.31177,.99287Z" style="fill:#037f56;"/><path d="M9.17079,18.59246l1.78905-.61755c1.01418-.35007,2.13504-.18801,3.00853,.43499l3.60555,2.57163-1.18782,6.20187-3.35801-5.5564c-.62519-1.03448-1.76359-1.64701-2.97134-1.59877l-1.04329,.04167,.15734-1.47744Z" style="fill:#037f56;"/><path d="M20.15716,25.36138l2.9072-.71305c.64856-.15907,1.31205,.19966,1.53409,.82945l1.11941,3.17506-1.07655,1.10322-.69248-1.03257c-.40678-.60656-1.24205-.77023-1.82944-.33622-1.35339,.99999-3.65898,2.28376-4.556,.26001-1.30475-2.94363,2.59377-3.2859,2.59377-3.2859Z" style="fill:#037f56;"/><path d="M16.76621,6.04287l-.82465,3.28135c-.17329,.68956,.26912,1.38289,.9675,1.51624l4.95852,.94675,.86519-2.26977-3.01843-.32144c-.71544-.07619-1.26505-.66844-1.28766-1.38757l-.06073-1.93143-1.59975,.16587Z" style="fill:#037f56;"/><polygon points="21.88711 17.45845 25.4613 20.95931 25.87755 19.11392 23.33191 15.78173 21.88711 17.45845" style="fill:#037f56;"/></g><path d="M2.66396,35.6478c-.3049-.16194-.15158-.63096,.18956-.57794,2.80481,.43589,8.14918,.75167,10.65088-2.525,1.457-2.09002,2.14696-3.7628,1.67365-6.93151-.47331-3.16871-3.13507-10.9697,9.49196-17.68463,0,0,.45511-4.27364,6.32892-3.20933,3.60271,.6528,5.34603,2.02177,6.15554,2.98279,.51399,.61019,.44344,1.52688-.13775,2.07345-1.02364,.96265-3.29847,2.35905-8.19301,3.0714-1.59078,.17984-2.41899-.20085-2.80693-.72719-.16898-.22926-.50541-.22651-.62102,.03377-1.24132,2.79464-5.50381,12.59869-6.31732,17.24287-.90667,5.17607-6.44274,11.54744-16.41448,6.25132Z" style="fill:#4fc578;"/><ellipse cx="32.37507" cy="5.87699" rx="1.81715" ry="1.61514" style="fill:#4fc578;"/><g><circle cx="32.07263" cy="8.71703" r="1.82054" style="fill:#ffdd64;"/><ellipse cx="32.07317" cy="8.71194" rx="1.05703" ry=".79618" transform="translate(20.01385 39.68223) rotate(-83.92131)"/></g><ellipse cx="36.38391" cy="8.71194" rx=".33937" ry=".57671" transform="translate(9.29971 34.52149) rotate(-57.0852)" style="fill:#3e9e64;"/></g><rect width="40" height="40" style="fill:none;"/></svg>