<?xml version="1.0" encoding="UTF-8"?><svg id="Layer_1" xmlns="http://www.w3.org/2000/svg" viewBox="0 0 40 40"><g><g><path d="M22.34081,3.00013h-4.79309c-.11157,.56885-.20276,1.14404-.25781,1.72998-.08002,.84961-.10034,1.68799-.06506,2.51172,0,0,.07068-.00928,.17206-.01025,.41095-.00244,1.53955,.2251,2.60223,2.41113,.02911,.05957,.05878,.1001,.08765,.16357l3.16321-3.53955,2.91931-3.2666h-3.82849Z" style="fill:#523725;"/><path d="M29.39874,9.33671c-.91063,0-1.64901,.8859-1.64901,1.97957,0,1.092,.73839,1.97873,1.64901,1.97873s1.64901-.88673,1.64901-1.97873c0-1.09366-.73839-1.97957-1.64901-1.97957Z"/><path d="M35.40122,31.61056c-.07355,.00416-.14336,.02161-.21794,.02161-1.90664,0-3.4819-1.38287-3.79936-3.19872-.95072,.19613-1.89189,.45459-2.80979,.8028l-7.16408,2.7217c-2.72502,1.03549-5.06942,2.79732-6.83,5.04199h20.82118v-5.38937Z" style="fill:#5268ea;"/><path d="M35.40103,28.05961v-5.31624c-1.23287,0-2.27127-.83271-2.58249-1.9671-.09765-.35652,.16413-.71055,.53312-.71055h2.04937V3.00007h-9.23174l-2.91907,3.26687-3.1634,3.53945c-.02867-.06316-.05859-.10388-.08768-.16372-1.06292-2.18567-2.19148-2.41338-2.60202-2.41088-1.41611,1.06624-2.34107,2.68347-2.34107,4.51926,0,3.20371,2.76159,5.79908,6.17264,5.81487,1.86613,4.22507,5.56348,7.44789,10.08772,8.68366v1.51667c0,.22854,.02909,.4496,.06732,.66733h0c.31746,1.81585,1.89314,3.19872,3.79957,3.19872,.07479,0,.1446-.01745,.21774-.02161v-3.55109h0Zm-6.00227-14.76447c-.91042,0-1.64922-.88673-1.64922-1.97873,0-1.09366,.73881-1.97957,1.64922-1.97957s1.64922,.8859,1.64922,1.97957c0,1.092-.73881,1.97873-1.64922,1.97873Z" style="fill:#c3846c;"/><path d="M33.35185,20.06559c-.36899,0-.63098,.35403-.53333,.71055,.31123,1.13439,1.34963,1.9671,2.5827,1.9671v-2.67765h-2.04937Z" style="fill:#5c2f17;"/><path d="M10.60597,28.97864c.33571-.93362,.9428-1.7456,1.74332-2.3317l3.01265-2.20571,5.2821-3.86729c.51807-.3793,1.23835-.30914,1.67348,.16301h0c.43966,.47707,.44596,1.20976,.01458,1.69433l-3.42688,3.84939,1.11003,1.24388c.48138,.53942,.67797,1.2754,.52969,1.98301l-.7262,3.46563c-.20791,.99221-.85551,1.83614-1.76012,2.29374l-3.25658,1.64732-6.72965-.88977,2.53358-7.04586Z" style="fill:#c3846c;"/><polygon points="16.73094 36.99972 7.59157 32.11517 4.59878 36.99972 16.73094 36.99972" style="fill:#5268ea;"/></g><rect width="40" height="40" style="fill:none;"/></g><g><path d="M11.29297,21.94336c-.0957,0-.19336-.01855-.28711-.05762-2.64746-1.09668-3.91016-4.14355-2.81348-6.79199,.15918-.38379,.59863-.56152,.98047-.40625,.38281,.15918,.56445,.59766,.40625,.98047-.78125,1.88379,.11719,4.05176,2.00098,4.83301,.38281,.1582,.56445,.59668,.40625,.97949-.12012,.28906-.39941,.46289-.69336,.46289Z" style="fill:#cecfcf;"/><path d="M9.79785,24.46582c-.0957,0-.19336-.01855-.28711-.05664-3.8125-1.5791-5.63086-5.96582-4.05176-9.78027,.15918-.38379,.59863-.56152,.98047-.40625,.38281,.15918,.56445,.59766,.40625,.98047-1.2627,3.0498,.19043,6.55762,3.23926,7.81934,.38281,.15918,.56445,.59766,.40625,.98047-.12012,.28906-.39941,.46289-.69336,.46289Z" style="fill:#cecfcf;"/></g></svg>