<?xml version="1.0" encoding="UTF-8"?><svg id="Layer_1" xmlns="http://www.w3.org/2000/svg" viewBox="0 0 40 40"><g><g><ellipse cx="11.02049" cy="11.98479" rx="5.73482" ry="11.57144" transform="translate(-5.22123 10.84776) rotate(-43.39567)" style="fill:#88d7d7;"/><ellipse cx="12.37217" cy="22.4676" rx="9.06688" ry="4.49355" transform="translate(-11.42974 12.91079) rotate(-39.28369)" style="fill:#88d7d7;"/></g><g><ellipse cx="28.97951" cy="11.98479" rx="11.57144" ry="5.73482" transform="translate(.36117 24.80813) rotate(-46.60433)" style="fill:#88d7d7;"/><ellipse cx="27.62783" cy="22.4676" rx="4.49355" ry="9.06688" transform="translate(-7.25541 29.62651) rotate(-50.71631)" style="fill:#88d7d7;"/></g><circle cx="19.85643" cy="13.14577" r="2.79318" style="fill:#c3846c;"/><rect x="19.63631" y="15.48152" width="1.12856" height="1.35941" style="fill:#c3846c;"/><path d="M18.0644,16.98395l-7.01956,5.33912,1.10611,1.40391,5.4242-3.16944v3.16944l5.48802-4.36063,2.13742,1.18297c.67016,.37091,1.51421,.09005,1.82854-.60844l1.33062-2.95693-1.57408-.48924-.91447,1.54017c-.15553,.26194-.50184,.33204-.74269,.14551-.88303-.6839-2.88497-2.11332-4.19179-2.11332-1.71774,0-2.87232,.91689-2.87232,.91689Z" style="fill:#c3846c;"/><circle cx="17.28959" cy="13.68899" r=".96582" style="fill:#c3846c;"/><circle cx="22.46523" cy="13.04612" r=".96582" style="fill:#c3846c;"/><path d="M17.06451,13.59133s1.82664-.4847,2.65839-1.73274l-1.99485-.68272s-.83885,1.23343-.66354,2.41547Z" style="fill:#523725;"/><path d="M22.67452,13.17008s-1.8924-.23344-2.8953-1.3666l1.90011-.95656s1.00797,1.11758,.99519,2.32316Z" style="fill:#523725;"/><path d="M19.03412,7.62176l-1.82679,4.29543c-.05037,.11844,.04643,.24696,.17417,.23125l4.68243-.57577c.13216-.01625,.19316-.17301,.10673-.27431l-3.13654-3.6766Z" style="fill:#076565;"/><circle cx="18.9944" cy="7.40383" r=".86203" style="fill:#ef4452;"/><circle cx="27.92527" cy="15.93896" r="1.45509" style="fill:#c3846c;"/><path d="M12.14837,24.21711c-.6264,.50343-1.37986,.67795-1.81278,.24503s-.32322-1.24453,.24503-1.81278,1.37986-.67795,1.81278-.24503,.43123,1.26929-.24503,1.81278Z" style="fill:#c3846c;"/><rect x="27.71159" y="11.77617" width=".44657" height="3.51299" style="fill:#ef4452;"/><polygon points="29.12308 12.60004 27.99924 12.19383 27.02749 12.88933 27.06654 11.69497 26.10479 10.98571 27.25276 10.65377 27.63011 9.51991 28.30055 10.50912 29.49552 10.51762 28.7619 11.46093 29.12308 12.60004" style="fill:#ef4452;"/><ellipse cx="12.71695" cy="23.52643" rx=".55163" ry=".73727" transform="translate(-12.91099 15.88298) rotate(-45)" style="fill:#c3846c;"/><ellipse cx="19.4145" cy="13.48148" rx=".28111" ry=".36998" transform="translate(-.78282 1.20381) rotate(-3.48138)" style="fill:#17202c;"/><ellipse cx="20.47701" cy="13.34452" rx=".28111" ry=".36998" transform="translate(-.77255 1.26808) rotate(-3.48138)" style="fill:#17202c;"/><path d="M13.21108,30.41591l-1.66442-1.51652-1.18726,1.28732-.17531-.16197c-1.14446-1.07466-2.27174-.56636-2.83522-.17504-.20504,.1424-.23156,.43325-.04754,.60194l2.84627,2.60908c.18692,.17134,.47723,.15917,.64915-.02722l2.41433-2.61759Z" style="fill:#f56570;"/><path d="M20.14816,33.26022l2.25162,.01875-.00398,1.75122,.23868,.00033c1.5699-.01051,2.05136,1.12849,2.19875,1.79851,.05363,.24381-.12459,.47519-.37423,.47386l-3.86111-.02052c-.25357-.00135-.45825-.20758-.45769-.46115l.00796-3.561Z" style="fill:#f56570;"/><path d="M23.25052,16.69018l-1.41013-.59045-1.6012,2.84648-1.5766-2.47538-1.44508,.97718,.04579,3.36559c.0081,.59551-.20991,1.17194-.61007,1.61304l-6.01987,6.63582,2.53033,2.29557,4.36127-4.38104c.70296-.70615,1.9096-.22844,1.93869,.76753l.18555,6.35376,3.41669-.00736,.18463-17.40075Z" style="fill:#374be5;"/></g><rect width="40" height="40" style="fill:none;"/></svg>