<svg id="Layer_1" data-name="Layer 1" xmlns="http://www.w3.org/2000/svg" viewBox="0 0 40 40"><defs><style>.cls-1{fill:#6b99e0;}.cls-2{fill:#2e5791;}.cls-3{fill:none;}</style></defs><path class="cls-1" d="M20,17.611a8.161,8.161,0,0,0-.63-1.05v0C15.813,11.221,6.333,5.045,3.561,5.045A2.062,2.062,0,0,0,1.5,7.107c0,2.135,1.185,5.135,2.16,7.879,1.063,2.987,1.927,6.548,4.71,6.548h6.871c-4.738.931-9.619,1.362-9.619,7.22a5.713,5.713,0,0,0,4.311,6c.9.243,5.673,1.175,9.083-4.984a19.529,19.529,0,0,0,.93-1.884v0c.02-.041.033-.08.053-.121A11.118,11.118,0,0,1,20,17.611Z"/><path class="cls-1" d="M36.34,14.986c.975-2.744,2.16-5.744,2.16-7.879a2.062,2.062,0,0,0-2.061-2.062c-2.772,0-12.252,6.176-15.81,11.52v0a8.161,8.161,0,0,0-.63,1.05,11.118,11.118,0,0,1,0,10.163c.02.041.033.08.053.121v0a19.529,19.529,0,0,0,.93,1.884c3.41,6.159,8.179,5.227,9.083,4.984a5.713,5.713,0,0,0,4.311-6c0-5.858-4.881-6.289-9.619-7.22H31.63C34.413,21.534,35.277,17.973,36.34,14.986Z"/><path class="cls-2" d="M20,17.611a11.118,11.118,0,0,0,0,10.163A11.118,11.118,0,0,0,20,17.611Z"/><rect class="cls-3" width="40" height="40"/></svg>