<?xml version="1.0" encoding="UTF-8"?><svg id="Layer_1" xmlns="http://www.w3.org/2000/svg" viewBox="0 0 40 40"><rect width="40" height="40" fill="none"/><path d="m31.104,8.09H5.5c-2.209,0-4,1.791-4,4v15.82c0,2.209,1.791,4,4,4h25.604c2.209,0,4-1.791,4-4v-15.82c0-2.209-1.791-4-4-4Zm1.595,19.916c0,.828-.672,1.5-1.5,1.5H5.405c-.828,0-1.5-.672-1.5-1.5V11.995c0-.828.672-1.5,1.5-1.5h25.794c.828,0,1.5.672,1.5,1.5v16.011Z" fill="#6d7680"/><path d="m-2.701,17.101h19.011v4.298c0,.828-.672,1.5-1.5,1.5H-1.201c-.828,0-1.5-.672-1.5-1.5v-4.298h0Z" transform="translate(26.804 13.196) rotate(90)" fill="#da5257"/><path d="m37.104,15.721h1.396v8.557h-1.396c-1.104,0-2-.896-2-2v-4.557c0-1.104.896-2,2-2Z" transform="translate(73.604 40) rotate(-180)" fill="#505967"/></svg>