<?xml version="1.0" encoding="UTF-8"?><svg id="Layer_1" xmlns="http://www.w3.org/2000/svg" viewBox="0 0 40 40"><g><path d="m15.291,26.935l6.712-.309-.137-3.003,3.407-.537-.076-3.42,3.166-.33.135-3.486,3.098-.076.264-3.727,3.208-.11.354-3.452,3.509-.89-5.808-5.955c-.269-.276-.705-.3-1.003-.054l-18.613,15.382-1.139,6.173,2.924,3.794Z" fill="#d5d5d5"/><path d="m12.049,37.544l5.38-6.048c1.719-1.932,1.661-4.862-.133-6.725l-2.051-2.13.937-1.417c1.115-1.685.88-3.924-.56-5.342l-.269-.265c-.18-.178-.466-.19-.661-.029L1.511,26.481c-.528.437-.576,1.229-.104,1.726l8.901,9.366c.477.502,1.281.488,1.741-.029Zm-2.811-4.655l-2.638-5.872c-.411-.914-.002-1.989.912-2.4.914-.411,1.989-.002,2.4.912l2.638,5.872c.411.914.002,1.989-.912,2.399-.914.411-1.989.003-2.399-.912Z" fill="#5e403b"/></g><rect x="0" width="40" height="40" transform="translate(40 0) rotate(90)" fill="none"/></svg>