<?xml version="1.0" encoding="UTF-8"?><svg id="a" xmlns="http://www.w3.org/2000/svg" viewBox="0 0 40 40"><g><path d="M10.322,24.148c1.643-1.446,2.709-3.394,3.448-5.536-.881,.266-1.824,.773-2.365,1.314-.914,.914-1.598,2.118-1.73,3.482,0,0-.012,.466,.121,1.165,.193-.136,.373-.277,.525-.424h0Z" fill="none"/><path d="M23.943,10.528c.147-.152,.288-.332,.425-.525-.699-.133-1.165-.121-1.165-.121h0c-1.364,.131-2.567,.815-3.482,1.729-.541,.541-1.048,1.485-1.314,2.365,2.142-.74,4.09-1.806,5.537-3.449Z" fill="none"/><path d="M29.94,16.526c-1.643,1.446-2.709,3.394-3.448,5.536,.881-.266,1.824-.773,2.365-1.314,.914-.914,1.598-2.118,1.73-3.482,0,0,.012-.466-.121-1.165-.193,.136-.373,.277-.525,.424h0Z" fill="none"/><path d="M14.339,27.31c.61-.61,1.291-1.171,2.041-1.683,1.985-1.354,4.182-2.169,6.318-2.724,.555-2.136,1.37-4.333,2.724-6.318,.914-1.341,1.988-2.457,3.216-3.35h0s.157-.105,.43-.268c-.172-.234-.347-.468-.561-.7-.05-.052-.098-.104-.15-.156s-.104-.1-.156-.15c-.232-.214-.467-.389-.7-.561-.163,.273-.267,.43-.267,.43-.393,.541-.83,1.052-1.31,1.533-.61,.61-1.291,1.171-2.041,1.683-1.985,1.354-4.182,2.169-6.318,2.724-.555,2.136-1.37,4.333-2.724,6.318-.914,1.341-1.988,2.457-3.216,3.35h0s-.157,.105-.43,.268c.172,.234,.347,.468,.561,.7,.05,.052,.098,.104,.15,.156s.104,.1,.156,.15c.232,.214,.467,.389,.7,.561,.163-.273,.267-.43,.267-.43,.393-.541,.83-1.052,1.31-1.533Z" fill="none"/><path d="M16.319,30.146c-.147,.152-.288,.332-.425,.525,.699,.133,1.165,.121,1.165,.121h0c1.364-.131,2.567-.815,3.482-1.729,.541-.541,1.048-1.484,1.314-2.365-2.142,.74-4.09,1.806-5.537,3.449Z" fill="none"/><path d="M12.062,28.712c-.052-.05-.104-.098-.156-.15s-.1-.104-.15-.156c-.214-.232-.388-.466-.561-.7-.611,.366-1.809,1.034-3.154,1.528,.3,.42,.521,.667,.521,.667,.283,.349,.599,.701,.951,1.053s.704,.668,1.054,.951h0s.249,.222,.667,.521c.495-1.345,1.162-2.543,1.528-3.154-.234-.172-.468-.347-.7-.561Z" fill="#3036d1"/><path d="M34.94,14.201h0c.841-.151,1.756-.23,2.754-.228,.934,.003,1.694-.753,1.696-1.687,.003-.935-.753-1.694-1.687-1.696-1.481-.004-2.866,.144-4.152,.442h-.001c-.449,.107-.896,.248-1.329,.408,.487,.679,1.183,1.817,1.513,3.131,.703-.238,1.204-.369,1.205-.37Z" fill="#3036d1"/><path d="M29.437,6.918c.298-1.286,.446-2.671,.442-4.153-.002-.935-.762-1.69-1.697-1.687-.934,.002-1.69,.762-1.687,1.696,.002,.998-.077,1.913-.228,2.754,0,0-.132,.502-.37,1.206,1.314,.331,2.452,1.027,3.131,1.513,.159-.433,.301-.881,.408-1.329Z" fill="#3036d1"/><path d="M14.841,24.089c1.354-1.985,2.168-4.181,2.724-6.318-1.11,.289-2.205,.511-3.243,.694-.176,.031-.364,.091-.551,.147-.74,2.142-1.805,4.09-3.448,5.536h0c-.152,.148-.332,.289-.525,.425-.945,.668-2.297,1.201-3.27,1.53-.702,.238-1.204,.369-1.205,.369h0c-.841,.151-1.756,.23-2.754,.228-.934-.003-1.694,.753-1.696,1.687-.003,.935,.753,1.694,1.687,1.696,1.481,.004,2.866-.144,4.152-.442h.001c.449-.107,.896-.248,1.329-.408,1.345-.495,2.543-1.162,3.154-1.528,.273-.163,.43-.267,.43-.267h0c1.227-.895,2.301-2.011,3.216-3.351Z" fill="#e32939"/><path d="M13.767,37.9c-.002-.998,.077-1.913,.228-2.754,0,0,.132-.502,.37-1.206,.329-.972,.862-2.324,1.53-3.269,.137-.193,.277-.373,.425-.525,1.446-1.643,3.395-2.709,5.537-3.449,.056-.186,.116-.374,.147-.55,.183-1.038,.406-2.134,.694-3.244-2.136,.555-4.333,1.37-6.318,2.724-.75,.512-1.43,1.073-2.041,1.683-.481,.481-.917,.992-1.31,1.533,0,0-.103,.157-.267,.43-.366,.611-1.033,1.809-1.528,3.154-.159,.433-.301,.881-.408,1.329-.298,1.286-.446,2.671-.442,4.153,.002,.935,.762,1.69,1.697,1.687,.934-.002,1.69-.762,1.687-1.696Z" fill="#e32939"/><path d="M27.234,11.831s.103-.157,.267-.43c-1.172-.865-2.315-1.242-3.133-1.398-.137,.193-.277,.373-.425,.525-1.446,1.643-3.395,2.709-5.537,3.449-1.181,.408-2.42,.717-3.669,.966-.334,.067-.669,.131-1.004,.19-1.402,.247-3.405,1.085-4.72,2.4-1.706,1.706-2.679,3.884-2.74,6.134-.011,.416,.009,.882,.08,1.386,.026,.359,.089,.71,.175,1.051,.972-.329,2.324-.862,3.27-1.53-.133-.7-.121-1.165-.121-1.165,.132-1.364,.815-2.568,1.73-3.482,.541-.541,1.484-1.048,2.365-1.314,.186-.056,.375-.116,.551-.147,1.038-.183,2.133-.406,3.243-.694,2.136-.555,4.333-1.37,6.318-2.724,.75-.512,1.43-1.073,2.041-1.683,.481-.481,.917-.992,1.31-1.533Z" fill="#3036d1"/><path d="M25.336,26.735c.059-.335,.123-.669,.19-1.004,.249-1.249,.558-2.488,.966-3.669,.74-2.142,1.805-4.09,3.448-5.536h0c.152-.148,.332-.289,.525-.425-.156-.818-.532-1.961-1.398-3.133-.273,.163-.43,.267-.43,.267h0c-1.227,.895-2.301,2.011-3.216,3.351-1.354,1.985-2.168,4.181-2.724,6.318-.289,1.11-.511,2.206-.694,3.244-.031,.175-.091,.364-.147,.55-.266,.881-.773,1.824-1.314,2.365-.914,.914-2.118,1.598-3.482,1.73h0s-.466,.012-1.165-.121c-.668,.945-1.201,2.297-1.53,3.269,.34,.086,.691,.149,1.05,.175h0c.504,.071,.97,.091,1.385,.08,2.25-.061,4.428-1.034,6.134-2.74,1.315-1.315,2.153-3.319,2.401-4.72Z" fill="#3036d1"/><path d="M33.989,17.007c.011-.416-.009-.882-.08-1.386-.026-.359-.089-.71-.175-1.05-.331-1.314-1.027-2.452-1.513-3.131-.3-.42-.521-.667-.521-.667-.283-.349-.599-.701-.951-1.053s-.704-.668-1.054-.951h0s-.249-.222-.667-.521c-.679-.486-1.817-1.183-3.131-1.513-.34-.086-.691-.149-1.05-.175h0c-.504-.071-.97-.091-1.385-.08-2.25,.061-4.428,1.034-6.134,2.74-1.315,1.315-2.153,3.319-2.401,4.72-.059,.335-.123,.669-.19,1.004,1.249-.249,2.488-.558,3.669-.966,.266-.881,.773-1.824,1.314-2.365,.914-.914,2.118-1.598,3.482-1.73h0s.466-.012,1.165,.121c.818,.156,1.961,.532,3.133,1.398,.234,.172,.468,.347,.7,.561,.052,.05,.104,.098,.156,.15s.1,.104,.15,.156c.214,.232,.388,.466,.561,.7,.865,1.172,1.242,2.315,1.398,3.133,.133,.7,.121,1.165,.121,1.165-.132,1.364-.815,2.568-1.73,3.482-.541,.541-1.484,1.048-2.365,1.314-.408,1.181-.717,2.421-.966,3.669,.334-.067,.669-.131,1.004-.19,1.402-.247,3.405-1.085,4.72-2.4,1.706-1.706,2.679-3.884,2.74-6.134Z" fill="#e32939"/></g><rect width="40" height="40" fill="none"/></svg>