<?xml version="1.0" encoding="UTF-8"?><svg id="Layer_1" xmlns="http://www.w3.org/2000/svg" viewBox="0 0 40 40"><g><path d="m26.818,4.177h-2.202c-5.513,0-9.983,7.084-9.983,15.823s4.469,15.823,9.983,15.823h2.202c5.513,0,9.983-7.084,9.983-15.823s-4.469-15.823-9.983-15.823Z" fill="#374be5"/><path d="m24.984,6.389h-1.391c-3.483,0-6.306,6.094-6.306,13.611s2.823,13.611,6.306,13.611h1.391c3.483,0,6.306-6.094,6.306-13.611s-2.824-13.611-6.306-13.611Z" fill="#202c87"/><path d="m37.167,35.135c-3.011,0-5.364-.957-6.994-2.844-3.029-3.507-2.276-8.91-2.243-9.139l.33-3.293c.078-.773.764-1.338,1.54-1.259.773.078,1.337.768,1.259,1.54l-.338,3.357c-.014.104-.601,4.44,1.588,6.963,1.087,1.252,2.677,1.861,4.858,1.861.776,0,1.406.629,1.406,1.406s-.63,1.406-1.406,1.406Z" fill="#202c87"/><path d="m18.105,4.177h-5.289c-5.513,0-9.983,7.084-9.983,15.823s4.469,15.823,9.983,15.823h5.289c5.513,0,9.983-7.084,9.983-15.823s-4.469-15.823-9.983-15.823Z" fill="#374be5"/><ellipse cx="12.816" cy="20" rx="9.983" ry="15.823" fill="#5a81ff"/><ellipse cx="12.621" cy="20" rx="6.834" ry="11.513" fill="#a8bfff"/></g><rect x="0" y="0" width="40" height="40" transform="translate(40 40) rotate(-180)" fill="none"/></svg>