<?xml version="1.0" encoding="UTF-8"?><svg id="Layer_1" xmlns="http://www.w3.org/2000/svg" viewBox="0 0 40 40"><g><path d="M11.98272,13.96987c2.64615,.81253,4.39756,3.31855,5.24112,4.82343,.36996,.66,.11602,1.48701-.56059,1.82565-1.54275,.77214-4.39874,1.8634-7.04489,1.05087-2.64615-.81253-4.39756-3.31855-5.24112-4.82343-.36996-.66-.11602-1.48701,.56059-1.82565,1.54275-.77214,4.39874-1.8634,7.04489-1.05087Z" style="fill:#0a9f60;"/><path d="M27.51703,9.13532c2.66287-1.49178,5.99512-.9805,7.83765-.50744,.80808,.20747,1.27431,1.03971,1.02922,1.83719-.55885,1.81835-1.86312,4.92707-4.52599,6.41885-2.66287,1.49178-5.99512,.9805-7.83765,.50744-.80808-.20747-1.27431-1.03971-1.02922-1.83719,.55885-1.81835,1.86312-4.92707,4.52599-6.41885Z" style="fill:#0a9f60;"/><path d="M21.30509,5.75046c1.91668,4.16414-.6706,9.44589-.6706,9.44589,0,0-5.69482-1.46965-7.6115-5.63379-1.31121-2.84871-.51457-6.22045,.11959-8.06642,.27733-.80729,1.16365-1.21524,1.95725-.90089,1.81468,.71882,4.89405,2.3065,6.20526,5.15521Z" style="fill:#0a9f60;"/><rect x="19.78027" y="14.02344" width="1.0625" height="10.90527" style="fill:#0a9f60;"/><rect x="18.06693" y="18.43445" width="1.06242" height="3.44067" transform="translate(-5.97413 32.33303) rotate(-73.66369)" style="fill:#0a9f60;"/><rect x="20.02375" y="16.81258" width="3.80699" height="1.06331" transform="translate(-5.85582 14.22531) rotate(-31.93845)" style="fill:#0a9f60;"/><path d="M27.33371,38.6644H13.28963c-.54678,0-1.01615-.38913-1.11749-.92643l-2.13806-11.33644H30.58927l-2.13806,11.33644c-.10134,.53731-.57071,.92643-1.11749,.92643Z" style="fill:#6e483d;"/><rect x="8.07634" y="23.44066" width="24.47067" height="4.09296" rx="1.21187" ry="1.21187" style="fill:#86584a;"/></g><rect y="0" width="40" height="40" style="fill:none;"/></svg>