<?xml version="1.0" encoding="UTF-8"?><svg id="Layer_1" xmlns="http://www.w3.org/2000/svg" viewBox="0 0 40 40"><path d="M23.67615,24.32605c-.64069,1.6394-2.3064,2.97131-3.16187,3.56378-.31183,.21594-.71674,.21594-1.02856,0-.85547-.59247-2.52118-1.92438-3.16187-3.56378-1.37012,.63525-3.00854,1.1391-4.77289,1.1391-2.45233,0-4.66565-.9707-6.24457-1.91937-1.14197,1.19574-1.79767,2.55011-1.79767,3.98956,0,4.80255,7.1806,8.6958,16.03821,8.6958,1.12097,0,2.21429-.06335,3.27039-.18201l-1.14258-7.05859,8.21753,5.18414c3.47864-1.59509,5.69287-3.97571,5.69287-6.63934,0-1.30389-.54425-2.53619-1.49268-3.6463-1.51794,.82568-3.48804,1.57611-5.64343,1.57611-1.76434,0-3.40277-.50385-4.77289-1.1391Z" style="fill:#58b37b;"/><g><path d="M16.87885,14.68195c.78699-1.14331,1.94452-2.04346,2.60687-2.50214,.31183-.21594,.71674-.21594,1.02856,0,.66235,.45868,1.81989,1.35883,2.60687,2.50214,.23773-.28479,.49176-.56158,.76343-.82837,.03857-.35901,.0658-.72205,.0658-1.09247,0-4.13702-2.59589-7.6391-3.57904-8.81714-.19501-.23358-.54767-.23358-.74268,0-.98315,1.17804-3.57904,4.68011-3.57904,8.81714,0,.37042,.02722,.73346,.0658,1.09247,.27167,.26678,.5257,.54358,.76343,.82837Z" style="fill:#e88a8e;"/><path d="M36.73346,21.40454c-.87958-.73413-3.14056-2.42139-5.98175-3.08484-.33801,.33923-.70203,.6629-1.09735,.96124-3.15839,2.38324-7.27673,2.52069-8.97113,2.4624-.05487,.03925-.11926,.0882-.16895,.12262-.12775,.08844-.27197,.13129-.41815,.14728,.02197,.03033,.03802,.06366,.06848,.08905,.60443,.50446,1.86316,1.45947,3.51154,2.22375,1.37012,.63525,3.00854,1.1391,4.77289,1.1391,2.1554,0,4.12549-.75043,5.64343-1.57611,1.21954-.66339,2.14789-1.37518,2.64099-1.78674,.21948-.18317,.21948-.51459,0-.69775Z" style="fill:#e88a8e;"/><path d="M16.32385,24.32605c1.64838-.76428,2.9071-1.7193,3.51154-2.22375,.03046-.02539,.04651-.05872,.06848-.08905-.14618-.01599-.29041-.05884-.41815-.14728-.04968-.03442-.11407-.08337-.16895-.12262-1.6944,.05829-5.81274-.07916-8.97113-2.4624-.39532-.29834-.75934-.62201-1.09735-.96124-2.84119,.66345-5.10217,2.35071-5.98175,3.08484-.21948,.18317-.21948,.51459,0,.69775,.40851,.34094,1.11615,.88849,2.03986,1.44348,1.57892,.94867,3.79224,1.91937,6.24457,1.91937,1.76434,0,3.40277-.50385,4.77289-1.1391Z" style="fill:#e88a8e;"/></g><g><path d="M19.90387,22.01324c-.02197,.03033-.03802,.06366-.06848,.08905-.60443,.50446-1.86316,1.45947-3.51154,2.22375,.64069,1.6394,2.3064,2.97131,3.16187,3.56378,.31183,.21594,.71674,.21594,1.02856,0,.85547-.59247,2.52118-1.92438,3.16187-3.56378-1.64838-.76428-2.9071-1.7193-3.51154-2.22375-.03046-.02539-.04651-.05872-.06848-.08905-.06451,.00702-.12775,.00702-.19226,0Z" style="fill:#d36165;"/><path d="M19.31677,21.74335c-1.12744-.80646-3.26715-2.60999-3.26715-4.72046,0-.84302,.34503-1.63757,.82922-2.34094-.23773-.28479-.49176-.56158-.76343-.82837-.31439-.30878-.64807-.60565-1.01086-.87939-3.30237-2.49188-7.66144-2.52917-9.19397-2.45392-.30389,.01495-.51636,.29645-.44733,.59283,.30646,1.31543,1.29938,4.7121,3.78503,7.2066,.33801,.33923,.70203,.6629,1.09735,.96124,3.15839,2.38324,7.27673,2.52069,8.97113,2.4624Z" style="fill:#d36165;"/><path d="M23.12115,14.68195c.48419,.70337,.82922,1.49792,.82922,2.34094,0,2.11047-2.13971,3.914-3.26715,4.72046,1.6944,.05829,5.81274-.07916,8.97113-2.4624,.39532-.29834,.75934-.62201,1.09735-.96124,2.48566-2.49451,3.47858-5.89117,3.78503-7.2066,.06903-.29639-.14343-.57788-.44733-.59283-1.53253-.07526-5.8916-.03796-9.19397,2.45392-.36279,.27374-.69647,.57062-1.01086,.87939-.27167,.26678-.5257,.54358-.76343,.82837Z" style="fill:#d36165;"/></g><path d="M23.95038,17.02289c0-.84302-.34503-1.63757-.82922-2.34094-.78699-1.14331-1.94452-2.04346-2.60687-2.50214-.31183-.21594-.71674-.21594-1.02856,0-.66235,.45868-1.81989,1.35883-2.60687,2.50214-.48419,.70337-.82922,1.49792-.82922,2.34094,0,2.11047,2.13971,3.914,3.26715,4.72046,.05487,.03925,.11926,.0882,.16895,.12262,.12775,.08844,.27197,.13129,.41815,.14728,.06451,.00702,.12775,.00702,.19226,0,.14618-.01599,.29041-.05884,.41815-.14728,.04968-.03442,.11407-.08337,.16895-.12262,1.12744-.80646,3.26715-2.60999,3.26715-4.72046Z" style="fill:#f1a3a6;"/></svg>