<svg id="Layer_1" data-name="Layer 1" xmlns="http://www.w3.org/2000/svg" viewBox="0 0 40 40"><defs><style>.cls-1{fill:#ef4452;}.cls-2{fill:#ffd3d5;}.cls-3{fill:#d4313e;}.cls-4{fill:#1f1f1f;}.cls-5{fill:#a41926;}.cls-6{fill:none;}</style></defs><path class="cls-1" d="M29.1,36.564l2.786-7.2a14.2,14.2,0,0,0-.669-11.723l-1.564-2.979.012-4.165a9.143,9.143,0,0,0-9.143-9.169h0a9.143,9.143,0,0,0-9.143,9.143v4.191L9.816,17.641a14.2,14.2,0,0,0-.669,11.723l2.786,7.2Z"/><circle class="cls-2" cx="20.517" cy="10.477" r="6.883"/><path class="cls-3" d="M9.147,29.364l2.786,7.2H29.1l2.786-7.2a14.164,14.164,0,0,0,.851-6.684H8.3A14.165,14.165,0,0,0,9.147,29.364Z"/><path class="cls-4" d="M20.517,3.594a6.878,6.878,0,0,0-6.8,5.868c.046,0,.09.006.136.006a8.125,8.125,0,0,0,6.664-3.474,8.125,8.125,0,0,0,6.664,3.474c.046,0,.09-.006.136-.006A6.878,6.878,0,0,0,20.517,3.594Z"/><circle class="cls-4" cx="18.572" cy="10.656" r="0.869"/><circle class="cls-4" cx="22.462" cy="10.656" r="0.869"/><path class="cls-1" d="M21.593,12.745a1.076,1.076,0,1,1-2.152,0Z"/><rect class="cls-5" x="11.258" y="35.799" width="18.518" height="2.63" rx="1.315"/><path class="cls-1" d="M32.744,22.68c0,1.681-5.474,3.044-12.227,3.044S8.29,24.361,8.29,22.68Z"/><rect class="cls-6" width="40" height="40"/></svg>