<?xml version="1.0" encoding="UTF-8"?><svg id="Layer_1" xmlns="http://www.w3.org/2000/svg" viewBox="0 0 40 40"><g><path d="m2.69,33.125c-.433.433-.433,1.134,0,1.567l1.92,1.92c.433.433,1.134.433,1.567,0l18.144-18.144-3.487-3.487L2.69,33.125Z" fill="#3d3d3d"/><path d="m29.178,12.153l-2.029-2.029c-.403-.403-1.055-.403-1.458,0l-4.857,4.857,3.487,3.487,4.857-4.857c.403-.403.403-1.055,0-1.458Z" fill="#d5d5d5"/><g><path d="m39.33,8.3c0,.2-.13.37-.33.41l-2.92.66c-.72.16-1.3.9-1.43,1.84l-.53,3.64c-.03.21-.21.37-.42.37s-.39-.16-.42-.37l-.52-3.64c-.14-.94-.71-1.68-1.44-1.84l-2.92-.66c-.2-.04-.33-.21-.33-.41s.13-.37.33-.41l2.92-.66c.73-.16,1.3-.9,1.44-1.84l.52-3.65c.03-.2.21-.36.42-.36s.39.16.42.36l.53,3.65c.13.94.71,1.68,1.43,1.84l2.93.66c.19.04.32.21.32.41Z" fill="#ffcd00"/><path d="m33.08,22.67c0,.2-.13.37-.33.41l-2.04.46c-.46.1-.82.58-.91,1.18l-.37,2.55c-.03.21-.2.36-.41.36s-.39-.15-.42-.36l-.37-2.55c-.09-.6-.45-1.08-.9-1.18l-2.05-.46c-.2-.04-.33-.21-.33-.41s.13-.37.33-.41l2.05-.46c.45-.1.81-.58.9-1.18l.37-2.55c.03-.21.21-.36.42-.36s.38.15.41.36l.37,2.55c.09.6.45,1.08.91,1.18l2.04.46c.2.04.33.21.33.41Z" fill="#ffcd00"/><path d="m21.4,7.05c0,.2-.14.37-.33.42l-1.64.36c-.33.08-.59.43-.66.88l-.29,2.04c-.03.21-.21.36-.42.36s-.39-.15-.42-.36l-.29-2.04c-.07-.45-.33-.8-.66-.88l-1.64-.36c-.19-.05-.33-.22-.33-.42,0-.19.14-.36.33-.41l1.64-.36c.33-.08.59-.43.66-.88l.29-2.04c.03-.21.21-.36.42-.36s.39.15.42.36l.29,2.04c.07.45.33.8.66.88l1.64.36c.19.05.33.22.33.41Z" fill="#ffcd00"/></g></g><rect width="40" height="40" fill="none"/></svg>