<svg id="Layer_1" data-name="Layer 1" xmlns="http://www.w3.org/2000/svg" viewBox="0 0 40 40"><defs><style>.cls-1{fill:none;}.cls-2{fill:#3036d1;}.cls-3{fill:#e32939;}</style></defs><path class="cls-1" d="M10.322,24.148a12.711,12.711,0,0,0,3.449-5.536,6.081,6.081,0,0,0-2.365,1.314,5.767,5.767,0,0,0-1.73,3.482A6.073,6.073,0,0,0,9.8,24.574a4.351,4.351,0,0,0,.525-.425Z"/><path class="cls-1" d="M23.943,10.528A4.436,4.436,0,0,0,24.368,10,5.967,5.967,0,0,0,23.2,9.883h0a5.767,5.767,0,0,0-3.482,1.73,6.088,6.088,0,0,0-1.314,2.365A12.714,12.714,0,0,0,23.943,10.528Z"/><path class="cls-1" d="M29.94,16.526a12.7,12.7,0,0,0-3.448,5.536,6.084,6.084,0,0,0,2.364-1.314,5.758,5.758,0,0,0,1.73-3.482,6.06,6.06,0,0,0-.121-1.165,4.426,4.426,0,0,0-.525.424Z"/><path class="cls-1" d="M14.339,27.31a14.185,14.185,0,0,1,2.04-1.683A20.022,20.022,0,0,1,22.7,22.9a20.009,20.009,0,0,1,2.723-6.317,13.524,13.524,0,0,1,3.216-3.35v0s.157-.1.43-.266a7.887,7.887,0,0,0-.561-.7c-.05-.052-.1-.1-.15-.156s-.1-.1-.155-.149a8.2,8.2,0,0,0-.7-.562c-.164.273-.267.43-.267.43a12.922,12.922,0,0,1-1.311,1.533,14.185,14.185,0,0,1-2.04,1.683,20.027,20.027,0,0,1-6.318,2.724,20.05,20.05,0,0,1-2.724,6.318,13.523,13.523,0,0,1-3.216,3.35h0s-.157.1-.43.267a8.216,8.216,0,0,0,.561.7c.05.052.1.1.15.156s.1.1.156.15a8.072,8.072,0,0,0,.7.561c.163-.273.266-.43.266-.43A12.922,12.922,0,0,1,14.339,27.31Z"/><path class="cls-1" d="M16.319,30.146a4.426,4.426,0,0,0-.424.525,6,6,0,0,0,1.165.12h0a5.756,5.756,0,0,0,3.482-1.73A6.081,6.081,0,0,0,21.856,26.7,12.72,12.72,0,0,0,16.319,30.146Z"/><path class="cls-2" d="M12.062,28.712c-.052-.05-.1-.1-.156-.15s-.1-.1-.15-.156a8.216,8.216,0,0,1-.561-.7,19.687,19.687,0,0,1-3.154,1.528c.3.419.521.667.521.667a13.641,13.641,0,0,0,.951,1.053,13.837,13.837,0,0,0,1.054.951h0s.249.222.667.521a19.559,19.559,0,0,1,1.528-3.154A8.072,8.072,0,0,1,12.062,28.712Z"/><path class="cls-2" d="M34.94,14.2h0a15.387,15.387,0,0,1,2.754-.228A1.692,1.692,0,0,0,37.7,10.59a18.1,18.1,0,0,0-4.152.442h0a11.647,11.647,0,0,0-1.329.408,9.638,9.638,0,0,1,1.513,3.131C34.437,14.333,34.939,14.2,34.94,14.2Z"/><path class="cls-2" d="M29.437,6.918a18.155,18.155,0,0,0,.442-4.153,1.692,1.692,0,0,0-3.384.009,15.2,15.2,0,0,1-.228,2.754s-.132.5-.37,1.206a9.675,9.675,0,0,1,3.132,1.513A12,12,0,0,0,29.437,6.918Z"/><path class="cls-3" d="M14.841,24.089a20.05,20.05,0,0,0,2.724-6.318c-1.111.289-2.206.511-3.244.694a5.071,5.071,0,0,0-.55.147,12.711,12.711,0,0,1-3.449,5.536h0a4.351,4.351,0,0,1-.525.425A13.725,13.725,0,0,1,6.528,26.1c-.7.237-1.2.369-1.2.369h0a15.306,15.306,0,0,1-2.755.228,1.692,1.692,0,0,0-.009,3.384,18.145,18.145,0,0,0,4.152-.443h0a12.063,12.063,0,0,0,1.329-.408A19.687,19.687,0,0,0,11.2,27.707c.273-.164.43-.267.43-.267h0A13.523,13.523,0,0,0,14.841,24.089Z"/><path class="cls-3" d="M13.767,37.9A15.287,15.287,0,0,1,14,35.146s.132-.5.37-1.206a13.686,13.686,0,0,1,1.53-3.269,4.426,4.426,0,0,1,.424-.525A12.72,12.72,0,0,1,21.856,26.7,5.055,5.055,0,0,0,22,26.148c.184-1.039.406-2.134.7-3.245a20.022,20.022,0,0,0-6.319,2.724,14.185,14.185,0,0,0-2.04,1.683,12.922,12.922,0,0,0-1.311,1.533s-.1.157-.266.43a19.559,19.559,0,0,0-1.528,3.154,11.647,11.647,0,0,0-.408,1.329,18.154,18.154,0,0,0-.443,4.153,1.692,1.692,0,0,0,3.384-.009Z"/><path class="cls-2" d="M27.234,11.831s.1-.157.267-.43A7.762,7.762,0,0,0,24.368,10a4.436,4.436,0,0,1-.425.524,12.714,12.714,0,0,1-5.537,3.449,28.079,28.079,0,0,1-3.669.966c-.335.067-.669.131-1,.19a9.587,9.587,0,0,0-4.72,2.4,9.048,9.048,0,0,0-2.74,6.134,8.47,8.47,0,0,0,.08,1.386A6.1,6.1,0,0,0,6.528,26.1,13.725,13.725,0,0,0,9.8,24.574a6.073,6.073,0,0,1-.121-1.166,5.767,5.767,0,0,1,1.73-3.482,6.081,6.081,0,0,1,2.365-1.314,5.071,5.071,0,0,1,.55-.147c1.038-.183,2.133-.405,3.244-.694a20.027,20.027,0,0,0,6.318-2.724,14.185,14.185,0,0,0,2.04-1.683A12.922,12.922,0,0,0,27.234,11.831Z"/><path class="cls-2" d="M25.336,26.735c.059-.335.123-.669.19-1a28.079,28.079,0,0,1,.966-3.669,12.7,12.7,0,0,1,3.448-5.536h0a4.426,4.426,0,0,1,.525-.424,7.755,7.755,0,0,0-1.4-3.133c-.273.163-.43.266-.43.266v0a13.524,13.524,0,0,0-3.216,3.35A20.009,20.009,0,0,0,22.7,22.9c-.289,1.111-.511,2.206-.7,3.245a5.055,5.055,0,0,1-.147.549,6.081,6.081,0,0,1-1.314,2.365,5.756,5.756,0,0,1-3.482,1.73h0a6,6,0,0,1-1.165-.12,13.686,13.686,0,0,0-1.53,3.269,6.073,6.073,0,0,0,1.05.175v0a8.342,8.342,0,0,0,1.385.08,9.048,9.048,0,0,0,6.134-2.74A9.6,9.6,0,0,0,25.336,26.735Z"/><path class="cls-3" d="M33.989,17.007a8.36,8.36,0,0,0-.08-1.386,6.073,6.073,0,0,0-.175-1.05,9.638,9.638,0,0,0-1.513-3.131c-.3-.42-.521-.667-.521-.667a13.837,13.837,0,0,0-.951-1.054A13.466,13.466,0,0,0,29.7,8.768h0s-.249-.222-.666-.521A9.675,9.675,0,0,0,25.9,6.734a6.176,6.176,0,0,0-1.049-.175l0,0v0a8.36,8.36,0,0,0-1.386-.08,9.049,9.049,0,0,0-6.134,2.74,9.591,9.591,0,0,0-2.4,4.72c-.059.335-.124.669-.19,1a28.079,28.079,0,0,0,3.669-.966,6.088,6.088,0,0,1,1.314-2.365A5.767,5.767,0,0,1,23.2,9.882h0A5.967,5.967,0,0,1,24.368,10,7.762,7.762,0,0,1,27.5,11.4a8.2,8.2,0,0,1,.7.562c.052.05.1.1.155.149s.1.1.15.156a7.887,7.887,0,0,1,.561.7,7.755,7.755,0,0,1,1.4,3.133,6.06,6.06,0,0,1,.121,1.165,5.758,5.758,0,0,1-1.73,3.482,6.084,6.084,0,0,1-2.364,1.314,28.079,28.079,0,0,0-.966,3.669c.334-.066.668-.13,1-.189a9.593,9.593,0,0,0,4.72-2.4A9.048,9.048,0,0,0,33.989,17.007Z"/><rect class="cls-1" width="40" height="40"/></svg>