<?xml version="1.0" encoding="UTF-8"?><svg id="Layer_1" xmlns="http://www.w3.org/2000/svg" viewBox="0 0 40 40"><rect width="40" height="40" style="fill:none;"/><g><g><circle cx="20" cy="20" r="17.50001" style="fill:#ffc84d;"/><g><ellipse cx="15.28544" cy="15.24112" rx="2.09421" ry="2.72812"/><ellipse cx="24.71456" cy="15.24112" rx="2.09421" ry="2.72812"/></g></g><path d="M13.13604,20.32087c.72463,.36655,1.01493,1.25119,.64837,1.97586l-1.20938,3.04276,2.62195-1.92223,4.62546-3.39107c.65495-.48016,1.57512-.33845,2.0553,.31652,.48011,.65488,.33844,1.57505-.31651,2.05521l-4.59719,3.42963,.23771,.32424,6.21627-4.49805c.65492-.48014,1.57508-.3385,2.05526,.31647,.48014,.65492,.33845,1.57512-.31647,2.05526l-5.90996,4.39206,.23402,.32687,5.00791-3.61216c.65492-.48014,1.57512-.33845,2.05526,.31647,.48018,.65497,.33845,1.57512-.31647,2.05526l-5.86016,4.35555,.23771,.32424,4.01494-2.88419c.65495-.48016,1.57512-.33845,2.05523,.31642,.48018,.65497,.33851,1.57515-.31644,2.05531l-3.98667,2.92275-3.71552,2.72199c-3.10118,2.27357-7.52694,1.50895-9.88522-1.70778-.74535-1.01667-1.19323-2.15665-1.36168-3.31212l-.00229-.00656c-.12352-.5274-.11539-1.1603-.0257-1.83431,.03687-.33196,.09612-.65976,.17886-.98209,.5569-2.46504,1.8659-5.07674,1.8659-5.07674l1.73369-3.42722c.36656-.72467,1.25121-1.0149,1.97584-.64836Z" style="fill:#ffa01d;"/></g></svg>