<?xml version="1.0" encoding="UTF-8"?><svg id="Layer_1" xmlns="http://www.w3.org/2000/svg" viewBox="0 0 40 40"><path d="M22.16602,23.49402l10.77484,1.69696,.00623-.00055,.54626-.19879-.00012-.00024,.00012-.00006c1.40088-.50983,2.13214-2.03424,1.63336-3.40472-.49884-1.37048-2.03888-2.06812-3.43976-1.55823l-.00244,.00116-2.18524,.79535-7.33331,2.66913h.00006Z" style="fill:#ffc84d;"/><path d="M22.16602,23.49402h-.00006l7.33331-2.66913c.68567-.81812,.83868-1.98895,.28442-2.94897-.71277-1.23462-2.31372-1.64478-3.57574-.9162l-.00214,.00159-9.30719,5.37347c.1441,.41864,.3186,.81775,.55713,1.15924,.25403,.36365,.56604,.76904,.95685,1.15271,.88593,.86975,2.22284,1.61456,4.5354,1.41345,2.41766-.21027,7.42065-.64545,9.99286-.8692l-10.77484-1.69696Z" style="fill:#ffa01d;"/><path d="M34.55389,25.05035l-.00317,.00061-1.60364,.13947-.00623,.00055c-2.5722,.22375-7.5752,.65894-9.99286,.8692-2.31256,.20111-3.64948-.5437-4.5354-1.41345-.39081-.38367-.70282-.78906-.95685-1.15271-.23853-.34149-.41302-.7406-.55713-1.15924-.68085-1.97778-.30762-4.62482,1.32233-6.2547l4.0993-3.83002c1.42395-.99707,1.76996-2.95953,.77301-4.38354-.99707-1.42389-2.95972-1.76996-4.38354-.77289L6.0545,15.88721c-2.5484,1.69031-4.19293,4.63422-4.04535,7.95416,.21747,4.88953,4.47491,8.63446,9.36926,8.63446h8.70209c.59674,0,1.19324-.02606,1.78772-.07806l13.22705-1.15717v-.00031h.00012c1.74719-.15289,3.04242-1.66248,2.89282-3.37177-.14954-1.70929-1.68719-2.97101-3.43433-2.81818Z" style="fill:#ffc84d;"/></svg>