<svg id="Layer_1" data-name="Layer 1" xmlns="http://www.w3.org/2000/svg" viewBox="0 0 40 40"><defs><style>.cls-1{fill:#fa878f;}.cls-2{fill:#82464a;}.cls-3{fill:#fa5d67;}.cls-4{fill:none;}</style></defs><path class="cls-1" d="M11.816,38.009h-.8a4.743,4.743,0,0,1-4.64-3.763L4.55,26.924a16.254,16.254,0,0,1-.386-5.708L5.721,7.03a5.738,5.738,0,0,1,5.7-5.039h0a5.739,5.739,0,0,1,5.7,5.039l1.556,14.186a16.254,16.254,0,0,1-.386,5.708l-1.826,7.322A4.742,4.742,0,0,1,11.816,38.009Z"/><path class="cls-2" d="M16.416,23.758a5,5,0,1,1-10,0L8.045,7.252a3.372,3.372,0,0,1,6.743,0Z"/><path class="cls-3" d="M28.312,18.23,26,14.864l8.6-6.046a.846.846,0,0,1,1.333.7l-.015,2.891a.85.85,0,0,1-.357.686Z"/><path class="cls-1" d="M21.228,3.908A1.186,1.186,0,0,1,22.9,4.18L34.2,20.164a6.532,6.532,0,0,1,.735,6.215l-3.917,9.757a2.822,2.822,0,0,1-1.144,1.355h0a2.821,2.821,0,0,1-2.962-.006h0a5.419,5.419,0,0,1-2.568-4.761l.212-7.585a13.924,13.924,0,0,0-1.763-7.174L19.119,11.4a5.461,5.461,0,0,1,1.537-7.068Z"/><path class="cls-3" d="M7.428,13.508,7.08,17.027a17.007,17.007,0,0,0,8.688.166l-.347-3.523A16.948,16.948,0,0,1,7.428,13.508Z"/><rect class="cls-4" width="40" height="40"/></svg>