<svg id="Layer_1" data-name="Layer 1" xmlns="http://www.w3.org/2000/svg" viewBox="0 0 40 40"><defs><style>.cls-1{fill:#3180f3;}.cls-2{fill:#8bbdff;}.cls-3{fill:none;}</style></defs><path class="cls-1" d="M32.033,20.047,27.127,15a5.755,5.755,0,0,0,4.549-3.97,5.545,5.545,0,0,0-3.314-7.1A5.545,5.545,0,0,0,21.5,7.71a5.808,5.808,0,0,0,.892,5.39l-4.962,1.076-.179,2.093L33.778,24.26Z"/><path class="cls-2" d="M32.033,20.047l-.2,2.126L19.738,15.767a1.89,1.89,0,0,1-.992-1.467l-.046-.427a1.849,1.849,0,0,1,.377-1.343,5.9,5.9,0,0,0,1.23-4.13,5.546,5.546,0,0,0-5.783-5.285A5.546,5.546,0,0,0,9.639,9.24a5.878,5.878,0,0,0,2.143,4.133,1.929,1.929,0,0,1,.735,1.341h0a1.886,1.886,0,0,1-1,1.825l-5.135,2.69L9.5,35.283a2.482,2.482,0,0,0,2.414,2.008l15.518.148,3.7-6.957h1a4.373,4.373,0,0,0,4.249-2.8C37.624,24.637,35.578,21.91,32.033,20.047Z"/><path class="cls-1" d="M8.767,18.853l8.27-1.423a3.917,3.917,0,0,1,1.21,7.74L8.709,26.9a4.941,4.941,0,0,1-2.94-9.394L12.5,15.147h0a1.385,1.385,0,0,1-.54,1.305Z"/><path class="cls-1" d="M22.446,27.435A3.917,3.917,0,0,0,19.9,34.842l5.049,2.1a6.5,6.5,0,0,0,2.487.5h0a3.7,3.7,0,0,0,3.7-3.7l.26-3.261Z"/><rect class="cls-3" width="40" height="40"/></svg>