<?xml version="1.0" encoding="UTF-8"?><svg id="Layer_1" xmlns="http://www.w3.org/2000/svg" viewBox="0 0 40 40"><g><path d="m18.231,24.084l-1.804-15.734c-.391-3.364-2.376-5.124-5.308-5.124s-4.951,1.993-5.308,5.124l-1.804,15.734c-.13,1.135-.099,2.282.093,3.408l1.286,7.558c.245,1.442,1.495,2.497,2.958,2.497h5.549c1.463,0,2.713-1.055,2.958-2.497l1.286-7.558c.192-1.126.223-2.273.093-3.408Z" fill="#fa878f"/><path d="m11.063,4.718h0c2.317,0,4.197,1.881,4.197,4.197v15.688c0,2.286-1.856,4.141-4.141,4.141h0c-2.286,0-4.141-1.856-4.141-4.141v-15.8c0-2.255,1.831-4.085,4.085-4.085Z" fill="#82464a"/><path d="m5.997,14.708c0,1.465,10.437,1.465,10.437,0v3.004c0,1.465-10.437,1.465-10.437,0v-3.004Z" fill="#fa878f"/><path d="m22.091,26.158l2.333,9.573c.26,1.066,1.215,1.816,2.312,1.816h2.367c1.438,0,2.604-1.166,2.604-2.604v-12.956c0-1.436.449-2.835,1.283-4.003l3.806-5.326c1.98-2.771.742-6.667-2.474-7.787l-2.251-.784c-.936-.326-1.962.146-2.323,1.069l-6.68,17.056-.573,1.463-.286.73c-.219.559-.26,1.171-.118,1.754Z" fill="#fa878f"/><polygon points="29.56 14.889 20.51 10.254 20.658 6.615 31.067 11.946 29.56 14.889" fill="#fa878f"/></g><rect x="0" y="0" width="40" height="40" transform="translate(40 40) rotate(-180)" fill="none"/></svg>