<?xml version="1.0" encoding="UTF-8"?>
<svg id="Layer_1" data-name="Layer 1" xmlns="http://www.w3.org/2000/svg" viewBox="0 0 40 40">
  <rect y="0" width="40" height="40" fill="none"/>
  <g>
    <path d="m3.319,28.711L37.043,6.858c-3.964,11.213-14.229,19.898-26.706,27.694,0,0-4.512.911-7.444-2.093-1.073-1.099-.863-2.912.426-3.748Z" fill="#007f56"/>
    <path d="m36.619,1.996c.51.847,1.432,2.824,1.11,7.055l-2.614-1.93-1.692-1.25c-.857-.633-.819-1.926.073-2.508l2.33-1.52c.261-.191.627-.124.794.153Z" fill="#0fb173"/>
    <circle cx="11.721" cy="30.446" r="4.125" fill="#07d88a"/>
    <circle cx="18.283" cy="26.214" r="4.125" fill="#07d88a"/>
    <circle cx="24.845" cy="21.981" r="4.125" fill="#07d88a"/>
    <circle cx="31.407" cy="17.749" r="4.125" fill="#07d88a"/>
    <path d="m37.385,6.332c-8.309,12.937-22.875,23.301-29.496,27.592-1.556,1.009-1.151,3.374.647,3.829,2.844.719,6.968.964,11.722-1.197,17.288-7.858,17.621-26.368,17.506-30.105l-.378-.119Z" fill="#0fb173"/>
  </g>
</svg>