<?xml version="1.0" encoding="UTF-8"?>
<svg id="Layer_1" data-name="Layer 1" xmlns="http://www.w3.org/2000/svg" viewBox="0 0 40 40">
  <rect x="0" y="0" width="40" height="40" transform="translate(40 40) rotate(-180)" fill="none"/>
  <g>
    <path d="m8.786,3.912c1.383-.286,2.736.602,3.021,1.983l1.056,8.744-6.116,1.943V6.475h.004c-.03-1.211.805-2.309,2.035-2.563Z" fill="#c4836c"/>
    <g>
      <rect x="6.749" y="10.216" width="4.899" height="3.476" fill="#ff9c21"/>
      <ellipse cx="9.197" cy="10.216" rx="2.45" ry="2.504" fill="#86584a"/>
    </g>
    <path d="m6.749,12.114v-.716c0-.006-.002-.011-.002-.016,0-1.383,1.097-2.504,2.449-2.504,1.264,0,2.292.982,2.423,2.238.603.9,1.069,2.09,1.243,3.525.384,3.178,1.702,6.614,2.811,9.062.87,1.921,2.79,3.145,4.899,3.145h13.188c.764,0,1.384.62,1.384,1.384v6.526c0,.764-.62,1.384-1.384,1.384H14.803s-1.194,0-1.194,0c-3.556,0-6.48-2.704-6.829-6.167-.022-.215-.035-.445-.035-.697V12.17c0-.021.004-.036.004-.056Z" fill="#c4836c"/>
    <g>
      <path d="m11.493,23.19l.458,1.104c.78,1.881,2.35,3.324,4.29,3.942l.935.298-10.908,1.353-1.052-4.599,6.277-2.099Z" fill="#86584a"/>
      <ellipse cx="8.455" cy="24.548" rx="3.325" ry="3.398" transform="translate(-5.261 2.503) rotate(-12.883)" fill="#86584a"/>
    </g>
    <path d="m15.668,28.176c-.155.035-.31.061-.465.078-1.802.198-3.464-1.02-4.058-2.732l-.754-2.175c-.476-1.374-1.91-2.169-3.328-1.845h0c-1.534.351-2.493,1.879-2.142,3.413l1.65,7.215c.042.185.09.351.143.505.719,2.131,2.738,3.532,4.946,3.505h2.851s5.034-8.833,5.034-8.833l-3.878.868Z" fill="#c4836c"/>
  </g>
</svg>