<?xml version="1.0" encoding="UTF-8"?><svg id="Layer_1" xmlns="http://www.w3.org/2000/svg" viewBox="0 0 40 40"><g><path d="m31.178,18.515h2.219c.6,0,1.086-.486,1.086-1.086v-3.462c0-.6-.486-1.086-1.086-1.086h-4.483l-.433-.482c-1.5-1.67-3.64-2.624-5.885-2.624h0l1.947-1.947c.559-.559.577-1.46.041-2.041l-1.168-1.265c-.564-.611-1.522-.635-2.115-.052l-1.917,1.883v-2.935c0-.327-.265-.592-.592-.592h-3.785c-.327,0-.592.265-.592.592v2.303s-2.138,3.787-2.138,5.212h0s-.862.474-.862.474c-2.787,1.533-4.738,4.236-5.315,7.364h0c-.46,2.491.129,5.062,1.626,7.105h0c1.417,1.933,3.001,3.738,4.735,5.394l3.233,3.087c2.774,2.649,6.802,3.514,10.419,2.238h0c2.963-1.046,4.954-3.836,4.979-6.978l.087-11.101Z" fill="#ec4452"/><path d="m9.802,3.443v3.651c0,.44.263.825.662,1.011.707.33,1.737,1.105,1.813,2.828l1.436-.751c.446-.233.724-.696.721-1.199l-.02-3.262s-1.038-2.533-3.995-2.861c-.334-.037-.617.248-.617.583Z" fill="#0380ed"/><path d="m24.44,3.505l1.166,1.263c.536.581.518,1.48-.039,2.04l-4.208,4.219c-.226.227-.36.531-.374.851v1.613c0,.266-.215.482-.481.482h-3.448c-.266,0-.482-.216-.482-.482v-2.728c0-1.039.416-2.034,1.154-2.765l4.593-4.541c.593-.586,1.553-.564,2.119.048Z" fill="#b3202d"/></g><rect width="40" height="40" fill="none"/></svg>