<?xml version="1.0" encoding="UTF-8"?><svg id="Layer_1" xmlns="http://www.w3.org/2000/svg" viewBox="0 0 40 40"><g><g><path d="M20.99634,8.24072c-.96021-2.07935-1.08936-3.90601-.14453-4.95557L2.50677,23.66406c-.76184,.84619-.34906,3.29248,1.18048,6.00269-.30219-.53589-.56079-1.06128-.77533-1.56592L20.99634,8.24072Z" style="fill:#6e4944;"/><path d="M29.54053,17.12988c-1.26642-.72925-2.56726-1.66382-3.82104-2.79248-.02924-.02637-.05579-.05347-.08484-.07983L7.77252,34.65601c-.06451-.05664-.13074-.10767-.19482-.16553-.10742-.09668-.20569-.19727-.30994-.29541,.10431,.09814,.20251,.19897,.30994,.29565,1.73669,1.56323,3.62592,2.69727,5.36487,3.42969-.34985-.14746-.70538-.31006-1.065-.49023L29.54053,17.12988Z" style="fill:#6e4944;"/><path d="M36.54828,30.03711l-.00067-.00513c-.01227,.0022-.02319,.00903-.03564,.01074l.03632-.00562Z" style="fill:#6e4944;"/><path d="M36.51001,30.04004l-11.73999,1.81982-5.89001,6.54004c-.46002,.5-1.53003,.65015-2.91998,.43018l17-20.22998c1.87,.50977,3.41998,.35986,4.25995-.58008l-6.59998,7.33008,5.44,1.08984c-.57001,.09009-.94,.93994-.82001,1.93018,.10999,.98975,.67999,1.73975,1.27002,1.66992Z" style="fill:#6e4944;"/></g><g><path d="M7.77252,34.65601L25.63464,14.25757c-2.14502-1.94946-3.7489-4.09082-4.63831-6.01685L2.91193,28.10083c.21454,.50464,.47314,1.03003,.77533,1.56592l.00861,.0144c.1485,.26245,.30701,.52759,.47638,.79395,.0174,.02734,.03766,.05469,.0553,.08228,.15729,.24438,.32062,.4895,.49542,.73486,.03546,.04956,.07581,.09937,.112,.14893,.16211,.22314,.3269,.44604,.50348,.66821,.06415,.08057,.13568,.16016,.20172,.24048,.15692,.19116,.31262,.38232,.48022,.57129,.09253,.10425,.19421,.20605,.28998,.30957,.15051,.1626,.29742,.32617,.45593,.48608,.16058,.16211,.3327,.31934,.50146,.47827,.10425,.09814,.20251,.19873,.30994,.29541,.06409,.05786,.13031,.10889,.19482,.16553Z" style="fill:#573b36;"/><path d="M29.54053,17.12988L11.87756,37.43018c.35962,.18018,.71515,.34277,1.065,.49023,.04437,.01855,.0871,.03418,.13123,.05225,.2851,.11743,.56537,.22339,.84045,.31885,.08606,.03003,.17029,.05762,.25519,.08545,.23712,.07764,.46875,.146,.69562,.20703,.08228,.02197,.16541,.04614,.24615,.06616,.29315,.07251,.57898,.13428,.84949,.17798l.00073,.00024h.00006l16.99768-20.22583c-1.06122-.28564-2.2226-.78394-3.41864-1.47266Z" style="fill:#573b36;"/></g><g><path d="M36.07874,26.43481c-.00739,.00073-.01379,.00513-.02112,.00635-.5719,.08838-.93951,.94019-.82239,1.92407,.11847,.99512,.68707,1.74561,1.27075,1.67822l.00244,.00024,.00354-.00098c.01245-.00171,.02338-.00854,.03564-.01074,.56122-.10376,.92017-.94556,.80432-1.9187-.11865-.99658-.68866-1.74805-1.27319-1.67847Z" style="fill:#ac7262;"/><path d="M20.99634,8.24072c.8894,1.92603,2.49329,4.06738,4.63831,6.01685,.02905,.02637,.0556,.05347,.08484,.07983,1.25378,1.12866,2.55463,2.06323,3.82104,2.79248,1.19604,.68872,2.35742,1.18701,3.41864,1.47266,1.86597,.50269,3.41785,.35547,4.26166-.58203,1.83185-2.03491-.34747-6.98315-4.86768-11.05225-4.5202-4.06885-9.66949-5.71802-11.50134-3.68311-.94482,1.04956-.81567,2.87622,.14453,4.95557Z" style="fill:#ac7262;"/></g></g><rect width="40" height="40" style="fill:none;"/></svg>