<svg id="Layer_1" data-name="Layer 1" xmlns="http://www.w3.org/2000/svg" viewBox="0 0 40 40"><defs><style>.cls-1{fill:#949494;}.cls-2{fill:#3d3d3d;}.cls-3{fill:#d5d5d5;}.cls-4{fill:none;}</style></defs><path class="cls-1" d="M8.451,3.752h.528a1.317,1.317,0,0,1,0,2.633H8.451A2.124,2.124,0,0,0,6.33,8.507v4.6a7.506,7.506,0,0,0,6.532,7.582,7.254,7.254,0,0,0,7.965-7.215V8.507A2.124,2.124,0,0,0,18.7,6.385H17.544a1.317,1.317,0,0,1,0-2.633H18.7A4.76,4.76,0,0,1,23.46,8.507V13.47a9.9,9.9,0,0,1-3.236,7.314,9.769,9.769,0,0,1-7.612,2.521A10.158,10.158,0,0,1,3.7,13.1v-4.6A4.76,4.76,0,0,1,8.451,3.752Z"/><circle class="cls-1" cx="31.274" cy="25.305" r="5.029"/><path class="cls-2" d="M3.7,13.1H6.33a7.506,7.506,0,0,0,6.532,7.582,7.254,7.254,0,0,0,7.965-7.215H23.46a9.9,9.9,0,0,1-3.236,7.314,9.769,9.769,0,0,1-7.612,2.521A10.158,10.158,0,0,1,3.7,13.1Z"/><path class="cls-2" d="M22.427,36.885A10.029,10.029,0,0,1,12.409,26.868v-5h2.339v5a7.679,7.679,0,0,0,15.357,0h2.339A10.028,10.028,0,0,1,22.427,36.885Z"/><circle class="cls-3" cx="31.274" cy="25.305" r="2.554"/><circle class="cls-2" cx="9.147" cy="5.045" r="1.93"/><circle class="cls-2" cx="17.346" cy="5.045" r="1.93"/><rect class="cls-4" width="40" height="40"/></svg>