<?xml version="1.0" encoding="UTF-8"?><svg id="Layer_1" xmlns="http://www.w3.org/2000/svg" viewBox="0 0 40 40"><g><path d="M17.90472,18.19922c.31067-.88086,.72839-1.71045,1.24982-2.46582-.14264-.00098-.28845-.01953-.43665-.07471-.51062-.19092-1.086-.02881-1.42218,.40039-.67041,.85571-2.03821,.50757-2.2179-.56445-.09009-.5376-.51807-.95508-1.05774-1.03174-1.07635-.15259-1.4588-1.51123-.62012-2.20288,.42053-.34692,.56793-.92603,.36438-1.43188-.40594-1.0083,.57941-2.0188,1.59778-1.63843,.51068,.19067,1.08606,.02881,1.42218-.40015,.67041-.85596,2.03821-.50781,2.2179,.56445,.09009,.5376,.51807,.95483,1.0578,1.03125,1.07635,.15283,1.45874,1.51123,.62006,2.20312-.42053,.34668-.56793,.92603-.36438,1.43164,.03284,.08179,.04272,.16235,.05804,.24316,1.82556-1.82544,4.32343-2.97021,7.08783-3.05786-.60486-5.22266-5.03668-9.27905-10.42151-9.27905C11.24219,1.92627,6.54211,6.62646,6.54211,12.42432c0,2.16943,.65869,4.18506,1.78619,5.8584,1.4574-.76611,3.11389-1.20483,4.87463-1.20483,1.6925,0,3.28601,.40991,4.70178,1.12134Z" style="fill:#3e5494;"/><path d="M27.79706,11.18848c-.11328,0-.22308,.01318-.33551,.01685-2.7644,.08765-5.26227,1.23242-7.08783,3.05786-.45032,.45044-.85632,.94434-1.21918,1.47021-.52142,.75537-.93915,1.58496-1.24982,2.46582,3.43414,1.72583,5.79614,5.27124,5.79614,9.37646,0,1.22437-.22034,2.39453-.60559,3.48706,1.41577,.71143,3.00928,1.12134,4.70178,1.12134,5.79785,0,10.49792-4.69995,10.49792-10.4978s-4.70007-10.4978-10.49792-10.4978Zm3.64008,10.66211c-.42053,.34668-.56793,.92603-.36438,1.43164,.40594,1.00854-.57941,2.01904-1.59778,1.63867-.51068-.19092-1.08606-.02881-1.42218,.40015-.67041,.85571-2.03821,.50781-2.2179-.56445h0c-.09015-.5376-.51807-.95483-1.0578-1.03149-1.07635-.15259-1.45874-1.51123-.62012-2.20288h.00006c.42047-.34692,.56793-.92603,.36438-1.43188-.40601-1.00854,.57941-2.01904,1.59778-1.63843,.51062,.19067,1.086,.02881,1.42218-.40039,.67041-.85571,2.03815-.50757,2.2179,.56445,.09009,.5376,.51807,.95483,1.05774,1.03149,1.07635,.15259,1.4588,1.51123,.62012,2.20312Z" style="fill:#4760ab;"/><g><path d="M20.68005,12.58838c.83868-.69189,.4563-2.05029-.62006-2.20312-.53973-.07642-.96771-.49365-1.0578-1.03125-.17969-1.07227-1.54749-1.42041-2.2179-.56445-.33612,.42896-.9115,.59082-1.42218,.40015-1.01837-.38037-2.00372,.63013-1.59778,1.63843,.20355,.50586,.05615,1.08496-.36438,1.43188-.83868,.69165-.45624,2.05029,.62012,2.20288,.53967,.07666,.96765,.49414,1.05774,1.03174,.17969,1.07202,1.54749,1.42017,2.2179,.56445,.33618-.4292,.91156-.59131,1.42218-.40039,.14819,.05518,.29401,.07373,.43665,.07471,.36285-.52588,.76886-1.01978,1.21918-1.47021-.01532-.08081-.02521-.16138-.05804-.24316-.20355-.50562-.05615-1.08496,.36438-1.43164Zm-3.64001,1.8811c-1.12964,0-2.04535-.91577-2.04535-2.04517,0-1.12988,.91571-2.04541,2.04535-2.04541,1.12958,0,2.04535,.91553,2.04535,2.04541,0,1.12939-.91577,2.04517-2.04535,2.04517Z" style="fill:#2d3f74;"/><path d="M30.81702,19.64746c-.53967-.07666-.96765-.4939-1.05774-1.03149-.17975-1.07202-1.54749-1.42017-2.2179-.56445-.33618,.4292-.91156,.59106-1.42218,.40039-1.01837-.38062-2.00378,.62988-1.59778,1.63843,.20355,.50586,.05609,1.08496-.36438,1.43188h-.00006c-.83862,.69165-.45624,2.05029,.62012,2.20288,.53973,.07666,.96765,.4939,1.0578,1.03149h0c.17969,1.07227,1.54749,1.42017,2.2179,.56445,.33612-.42896,.9115-.59106,1.42218-.40015,1.01837,.38037,2.00372-.63013,1.59778-1.63867-.20355-.50562-.05615-1.08496,.36438-1.43164,.83868-.69189,.45624-2.05054-.62012-2.20312Zm-3.01996,4.08423c-1.12958,0-2.04535-.91577-2.04535-2.04541s.91577-2.04541,2.04535-2.04541c1.12964,0,2.04535,.91577,2.04535,2.04541s-.91571,2.04541-2.04535,2.04541Z" style="fill:#2d3f74;"/><path d="M16.2229,25.53687c-.53973-.07642-.96765-.4939-1.0578-1.03149-.17969-1.07202-1.54749-1.42017-2.2179-.56445-.33612,.4292-.9115,.59131-1.42218,.40039-1.01837-.38037-2.00372,.63013-1.59778,1.63867,.20355,.50562,.05615,1.08496-.36438,1.43164-.83868,.69165-.45624,2.05029,.62012,2.20312,.53967,.07642,.96765,.49365,1.05774,1.03125,.17975,1.07227,1.54749,1.42041,2.2179,.56445,.33618-.42896,.91156-.59082,1.42218-.40015,1.01837,.38037,2.00378-.63013,1.59778-1.63843-.20355-.50586-.05609-1.08496,.36438-1.43188h.00006c.83862-.69165,.45624-2.05029-.62012-2.20312Zm-3.01996,4.08423c-1.12964,0-2.04535-.91577-2.04535-2.04541,0-1.12939,.91571-2.04517,2.04535-2.04517,1.12958,0,2.04535,.91577,2.04535,2.04517,0,1.12964-.91577,2.04541-2.04535,2.04541Z" style="fill:#2d3f74;"/></g><g><path d="M17.04004,10.37891c-1.12964,0-2.04535,.91553-2.04535,2.04541,0,1.12939,.91571,2.04517,2.04535,2.04517,1.12958,0,2.04535-.91577,2.04535-2.04517,0-1.12988-.91577-2.04541-2.04535-2.04541Z" style="fill:#4862b0;"/><circle cx="27.79706" cy="21.68628" r="2.04538" style="fill:#4862b0;"/><path d="M17.90472,18.19922c-1.41577-.71143-3.00928-1.12134-4.70178-1.12134-1.76074,0-3.41724,.43872-4.87463,1.20483-3.34143,1.75635-5.62329,5.25586-5.62329,9.29297,0,5.79785,4.70007,10.49805,10.49792,10.49805,4.57355,0,8.45325-2.92993,9.89233-7.01099,.38525-1.09253,.60559-2.2627,.60559-3.48706,0-4.10522-2.362-7.65063-5.79614-9.37646Zm-1.06171,9.54077h-.00006c-.42047,.34692-.56793,.92603-.36438,1.43188,.40601,1.0083-.57941,2.0188-1.59778,1.63843-.51062-.19067-1.086-.02881-1.42218,.40015-.67041,.85596-2.03815,.50781-2.2179-.56445-.09009-.5376-.51807-.95483-1.05774-1.03125-1.07635-.15283-1.4588-1.51147-.62012-2.20312,.42053-.34668,.56793-.92603,.36438-1.43164-.40594-1.00854,.57941-2.01904,1.59778-1.63867,.51068,.19092,1.08606,.02881,1.42218-.40039,.67041-.85571,2.03821-.50757,2.2179,.56445,.09015,.5376,.51807,.95508,1.0578,1.03149,1.07635,.15283,1.45874,1.51147,.62012,2.20312Z" style="fill:#516ec4;"/><path d="M13.20294,25.53052c-1.12964,0-2.04535,.91577-2.04535,2.04517,0,1.12964,.91571,2.04541,2.04535,2.04541,1.12958,0,2.04535-.91577,2.04535-2.04541,0-1.12939-.91577-2.04517-2.04535-2.04517Z" style="fill:#4862b0;"/></g></g><rect y="0" width="40" height="40" transform="translate(40 40) rotate(-180)" style="fill:none;"/></svg>