<?xml version="1.0" encoding="UTF-8"?>
<svg id="Layer_1" data-name="Layer 1" xmlns="http://www.w3.org/2000/svg" viewBox="0 0 40 40">
  <rect y="0" width="40" height="40" transform="translate(0 40) rotate(-90)" fill="none"/>
  <path d="m19.683,3.361c-1.207,1.207-1.207,3.164,0,4.372l2.63,3.696h-4.692s0,0,0,0H7.799s-.002,0-.003,0c-1.488,0-2.694,1.18-2.694,2.635s1.206,2.636,2.694,2.636h0s9.824,0,9.824,0v1.01H5.194c-1.488,0-2.694,1.18-2.694,2.636s1.206,2.636,2.694,2.636h12.427v1.01H6.927c-1.458,0-2.64,1.18-2.64,2.635s1.182,2.636,2.64,2.636h10.694v1.01h-6.595s0,0,0,0c-1.493,0-2.703,1.18-2.703,2.635s1.21,2.636,2.703,2.636h0s13.621,0,13.621,0v-.02c7.132-.212,12.853-6.046,12.853-13.229,0-3.659-1.483-6.971-3.881-9.368L24.054,3.361c-1.207-1.207-3.164-1.207-4.372,0Z" fill="#ffc84d"/>
  <path d="m23.53,13.234v2.702c0,2.209,1.791,4,4,4h1.114c-2.223-1.757-4-4.053-5.114-6.702Z" fill="#ffa01d"/>
</svg>