<?xml version="1.0" encoding="UTF-8"?><svg id="Layer_1" xmlns="http://www.w3.org/2000/svg" viewBox="0 0 40 40"><rect width="40" height="40" style="fill:none;"/><g><path d="M20.36867,3.05977l6.41851,2.51159c.11753,.04599,.24262,.06959,.36883,.06959h5.64005c.4112,0,.78153,.24877,.93702,.62944l1.84499,4.51704c.06141,.15035,.15811,.28372,.28191,.38884l3.27261,2.77863c.32987,.28008,.4452,.73889,.28697,1.14167l-2.07326,5.27738c-.10244,.26076-.09222,.55232,.02823,.80526l.99436,2.08815c.19559,.41075,.09311,.90153-.25052,1.19967l-4.21783,3.65959c-.22157,.19225-.34884,.47116-.34884,.76451v2.54188c0,.49479-.35771,.91705-.84577,.99839l-7.11818,1.18636c-.14017,.02336-.27384,.07597-.39233,.15441l-4.63651,3.06946c-.33872,.22424-.7787,.22425-1.11743,.00002l-4.63689-3.06949c-.11848-.07843-.25215-.13104-.3923-.1544l-7.11819-1.18637c-.48805-.08134-.84577-.50361-.84577-.99839v-2.54188c0-.29335-.12727-.57226-.34884-.76451l-4.21783-3.65959c-.34363-.29815-.44611-.78893-.25052-1.19967l.99436-2.08815c.12045-.25295,.13067-.5445,.02823-.80526L.58048,15.09657c-.15823-.40277-.0429-.86158,.28697-1.14167l3.27261-2.77863c.12381-.10512,.2205-.23849,.28191-.38884l1.84499-4.51704c.15548-.38067,.52582-.62944,.93702-.62944h5.64004c.12621,0,.25131-.02361,.36885-.0696l6.41813-2.51158c.23714-.0928,.50054-.0928,.73768,0Z" style="fill:#784e18;"/><path d="M39.47205,14.61841c-.00769-.07056-.01917-.13861-.04132-.20593-.00555-.01831-.0047-.03748-.01117-.0556h-.01233c-.05981-.15063-.14526-.29211-.27466-.40198l-3.27258-2.77863c-.12378-.1051-.22052-.23853-.28192-.38885l-1.84497-4.51703c-.15552-.38068-.52582-.62946-.93701-.62946h-5.64008c-.12622,0-.25128-.02362-.36884-.06958l-6.41852-2.5116c-.23712-.09277-.50055-.09277-.73767,0l-6.41815,2.5116c-.11749,.04596-.24261,.06958-.36884,.06958H7.20398c-.41119,0-.78156,.24878-.93701,.62946l-1.84503,4.51703c-.0614,.15033-.15808,.28375-.28186,.38885L.86743,13.9549c-.12933,.10986-.21478,.25134-.2746,.40198h-.01239c-.00647,.01819-.00568,.03748-.01123,.05585-.02209,.06702-.03345,.13489-.04114,.20514-.00525,.04279-.01123,.08429-.0119,.12708,.00061,.0332,.00446,.06537,.00836,.09857,.01929,.29193,.13104,.57275,.3429,.77081l3.27258,3.06055c.12384,.11572,.22052,.26263,.28192,.42828l1.84503,4.97522c.15546,.41925,.52582,.6933,.93701,.6933h5.64001c.12622,0,.25134,.026,.36884,.07666l6.41852,2.76636c.23712,.10217,.50055,.10217,.73767-.00006l6.41815-2.7663c.11755-.05066,.24261-.07666,.36884-.07666h5.64008c.41119,0,.78149-.27405,.93701-.6933l1.84497-4.97522c.0614-.16565,.15808-.31256,.28192-.42828l3.27258-3.06055c.21173-.198,.32343-.47858,.34283-.77039,.00391-.03351,.00787-.06592,.00842-.09937-.00067-.04248-.00665-.08368-.01178-.12616Z" style="fill:#784e18;"/><ellipse cx="20.00021" cy="14.97648" rx="14.0621" ry="6.77433" style="fill:#422b0d;"/></g></svg>