<?xml version="1.0" encoding="UTF-8"?><svg id="Layer_1" xmlns="http://www.w3.org/2000/svg" viewBox="0 0 40 40"><g><path d="m36.497,34.105l-2.447-28.34c-.034-.392-.362-.692-.755-.692H6.705c-.393,0-.721.301-.755.692l-2.447,28.34c-.038.443.311.823.755.823h13.361c.561,0,1.031-.424,1.088-.982l.829-8.111c.057-.559.872-.559.929,0l.829,8.111c.057.558.527.982,1.088.982h13.361c.444,0,.793-.38.755-.823Z" fill="#ffad00"/><path d="m6.705,5.072h26.59c.393,0,.721.301.755.692l.412,4.766H5.539l.412-4.766c.034-.392.362-.692.755-.692Z" fill="#ec6700"/><path d="m15.416,16.89c-.157,0-.317-.035-.467-.109-.523-.258-.738-.892-.48-1.416l3.65-7.395c.258-.524.892-.737,1.416-.48.523.258.738.892.48,1.416l-3.65,7.395c-.184.373-.559.589-.948.589Z" fill="#ec6700"/><path d="m24.584,16.89c-.389,0-.764-.216-.948-.589l-3.65-7.395c-.258-.524-.043-1.157.48-1.416.523-.258,1.157-.044,1.416.48l3.65,7.395c.258.524.043,1.157-.48,1.416-.151.074-.31.109-.467.109Z" fill="#ec6700"/></g><rect width="40" height="40" fill="none"/></svg>