<?xml version="1.0" encoding="UTF-8"?><svg id="a" xmlns="http://www.w3.org/2000/svg" viewBox="0 0 40 40"><g><path d="M21.96,6.257h11.834c.852,0,1.544,.692,1.544,1.544v5.54h-14.922V7.801c0-.852,.692-1.544,1.544-1.544Z" transform="translate(1.499 23.115) rotate(-46.153)" fill="#c4d9ee"/><rect x="24.904" y="8.001" width="2.594" height="7.084" transform="translate(-.274 22.443) rotate(-46.153)" fill="#9bbed7"/><rect x="28.271" y="4.497" width="2.594" height="7.084" transform="translate(3.288 23.794) rotate(-46.153)" fill="#9bbed7"/><path d="M37.202,6.706l-1.017-.966-11.591,12.051c-.423,.44-.997,.704-1.607,.74l-4.574,.265c-.615,.036-1.193,.304-1.617,.75L3.159,33.901c-.876,.922-.838,2.379,.083,3.254h0c.916,.871,2.363,.84,3.241-.069l13.703-14.183c.259-.268,.607-.431,.979-.457l4.745-.34c.736-.053,1.427-.379,1.935-.915l9.472-9.985c1.211-1.274,1.159-3.288-.115-4.499Z" fill="#3e5af4"/></g><rect width="40" height="40" fill="none"/></svg>