<svg id="Layer_1" data-name="Layer 1" xmlns="http://www.w3.org/2000/svg" viewBox="0 0 40 40"><defs><style>.cls-1{fill:#3d3d3d;}.cls-2{fill:#d5d5d5;}.cls-3{fill:#ffcd00;stroke:#ffcd00;stroke-linejoin:round;stroke-width:0.844px;}.cls-4{fill:none;}</style></defs><path class="cls-1" d="M13,11.32h1.453a1.739,1.739,0,0,1,1.739,1.739V38.718a1.108,1.108,0,0,1-1.108,1.108H12.371a1.108,1.108,0,0,1-1.108-1.108V13.059A1.739,1.739,0,0,1,13,11.32Z" transform="translate(22.104 -2.217) rotate(45)"/><path class="cls-2" d="M23.936,9.981h2.87a1.031,1.031,0,0,1,1.031,1.031v6.869a0,0,0,0,1,0,0H22.9a0,0,0,0,1,0,0V11.012a1.031,1.031,0,0,1,1.031-1.031Z" transform="translate(17.282 -13.859) rotate(45)"/><path class="cls-3" d="M34.228,5.452,33.7,1.8l-.527,3.648a2.5,2.5,0,0,1-1.757,2.19L28.488,8.3l2.929.656a2.5,2.5,0,0,1,1.757,2.19l.527,3.649.527-3.649a2.5,2.5,0,0,1,1.757-2.19L38.913,8.3l-2.928-.657A2.5,2.5,0,0,1,34.228,5.452Z"/><path class="cls-3" d="M29.385,20.681l-.369-2.552-.369,2.552a1.748,1.748,0,0,1-1.229,1.531l-2.048.459,2.048.459a1.75,1.75,0,0,1,1.229,1.532l.369,2.551.369-2.551a1.749,1.749,0,0,1,1.228-1.532l2.048-.459-2.048-.459A1.748,1.748,0,0,1,29.385,20.681Z"/><path class="cls-3" d="M18.355,5.463l-.3-2.042-.295,2.042a1.4,1.4,0,0,1-.983,1.224l-1.639.368,1.639.367a1.4,1.4,0,0,1,.983,1.225l.295,2.042.3-2.042a1.4,1.4,0,0,1,.983-1.225l1.638-.367-1.638-.368A1.4,1.4,0,0,1,18.355,5.463Z"/><rect class="cls-4" width="40" height="40"/></svg>