<?xml version="1.0" encoding="UTF-8"?><svg id="Layer_1" xmlns="http://www.w3.org/2000/svg" viewBox="0 0 40 40"><path d="M31.91486,13.09149l-5.6748,5.67426-5.21674-5.21674,5.67456-5.6745-1.65991-1.65997c-.05231-.05231-.09113-.11224-.13733-.16809L15.68494,15.26135c-1.20026,1.20074-1.92975,2.79492-2.05389,4.48889l-.1264,1.7312c-.06299,.86096,.14465,1.70093,.54547,2.4447l-7.02661,7.02625,.00391,.00391,1.80536,1.80542,.00372,.00372,7.02539-7.02496c.64923,.34985,1.36993,.55573,2.1178,.55573,.10895,0,.21838-.00415,.32776-.01196l1.7312-.1264c1.69348-.12366,3.28772-.85315,4.48889-2.05389l9.21533-9.21533c-.05597-.04626-.11603-.08514-.1684-.13751l-1.65961-1.65961Zm-9.20038,9.19946c-.76581,.7663-1.78265,1.23151-2.86249,1.31012l-1.73114,.1264c-.56818,.04321-1.10004-.15723-1.50092-.55853-.40173-.40131-.59991-.93457-.55853-1.50085l.1264-1.73077c.0791-1.08069,.54431-2.09753,1.31012-2.86292l1.71234-1.71234,5.21661,5.21661-1.7124,1.71228Z" style="fill:#acb6c4;"/><g><path d="M5.80219,30.72925c-.49451-.09161-1.00238,.0661-1.35797,.42169l-1.61487,1.61487c-.43915,.43915-.43915,1.15118,0,1.59039l2.60352,2.60345c.43921,.43921,1.15125,.43921,1.59039,0l1.61487-1.61487c.35559-.35559,.51331-.86346,.42169-1.35791l-.22705-1.22516-1.80536-1.80542-1.22522-.22705Z" style="fill:#505967;"/><path d="M36.82648,11.49908L28.28998,2.96252c-.89801-.89801-2.354-.89801-3.25201,0v.00006c-.8457,.8457-.88452,2.18048-.13733,3.08386,.0462,.05585,.08502,.11578,.13733,.16809l1.65991,1.65997,5.21698,5.21698,1.65961,1.65961c.05237,.05237,.11243,.09125,.1684,.13751,.90344,.74701,2.23798,.70813,3.08362-.13751,.89801-.89801,.89801-2.354,0-3.25201Z" style="fill:#505967;"/></g></svg>