<?xml version="1.0" encoding="UTF-8"?><svg id="Layer_1" xmlns="http://www.w3.org/2000/svg" viewBox="0 0 40 40"><g><path d="m31.55,34.035H9.017S3.883,12.744,4.655,7.677h0s31.257,0,31.257,0h0c.772,5.067-4.362,26.358-4.362,26.358Z" fill="#a85b25"/><path d="m7.389,4.063h25.789c1.672,0,3.03,1.358,3.03,3.03v.346c0,.358-.291.649-.649.649H5.009c-.358,0-.649-.291-.649-.649v-.346c0-1.672,1.358-3.03,3.03-3.03Z" fill="#d5d5d5"/><path d="m9.017,34.035s.531,3.375,3.03,3.375h16.474c2.368,0,3.03-3.375,3.03-3.375H9.017Z" fill="#d5d5d5"/><path d="m30.56,7.677h-1.078l-4.426,13.01-4.145-13.01h-1.078l-4.426,13.011-4.145-13.011h-1.078l-4.181,12.289c.141.759.287,1.517.435,2.269.005.024.009.047.014.07.068.345.137.688.205,1.029h27.24c.053-.264.106-.529.159-.795.02-.101.04-.203.06-.304.138-.702.274-1.408.407-2.116l-3.963-12.442ZM6.476,22.235l4.228-12.425,3.959,12.425H6.476Zm9.649,0l4.226-12.425,3.96,12.425h-8.187Zm9.648,0l4.228-12.425,3.959,12.425h-8.187Z" fill="#d5d5d5"/></g><rect width="40" height="40" fill="none"/></svg>