<?xml version="1.0" encoding="UTF-8"?>
<svg id="Layer_1" data-name="Layer 1" xmlns="http://www.w3.org/2000/svg" viewBox="0 0 40 40">
  <rect width="40" height="40" fill="none"/>
  <g>
    <path d="m32.35,32.958h.004c-2.57-.332-5.061-2.244-5.061-5.032v-1.874c0-1.094-.628-2.09-1.614-2.562l-12.79-6.123,11.223,7.111c.693.439,1.112,1.202,1.112,2.022v1.427c0,2.788-1.983,4.717-4.968,5.049l.007.002c-3.702.433-6.201,1.245-6.201,2.177,0,1.386,5.515,2.51,12.319,2.51s12.319-1.124,12.319-2.51c0-.945-2.564-1.767-6.349-2.195Z" fill="#d36165"/>
    <path d="m3.48,12.841L6.976,3.969c.469-1.191,1.741-1.857,2.987-1.564l20.359,4.776c.718.168,1.12.935.849,1.621l-6.702,17.009c-.27.686-1.087.973-1.727.606L4.597,16.022c-1.11-.636-1.586-1.991-1.117-3.181Z" fill="#d1dbe6"/>
    <path d="m12.889,17.367l11.223,7.111c.258.164.463.383.638.622l.681-1.729-12.541-6.004Z" fill="#dbafb2"/>
  </g>
</svg>