<?xml version="1.0" encoding="UTF-8"?><svg id="Layer_1" xmlns="http://www.w3.org/2000/svg" viewBox="0 0 40 40"><rect x="3.5" y="3.5" width="33" height="33" rx="8" ry="8" fill="#7571df"/><g><path d="m20,9.926c-3.761,0-6.809,3.049-6.809,6.809s3.049,6.809,6.809,6.809,6.809-3.049,6.809-6.809-3.049-6.809-6.809-6.809Zm0,12.174c-2.963,0-5.365-2.402-5.365-5.365s2.402-5.365,5.365-5.365,5.365,2.402,5.365,5.365-2.402,5.365-5.365,5.365Z" fill="#fff"/><path d="m22.04,16.734c0-2.462.627-4.78,1.73-6.813v-.026l-3.77-2.919-3.77,2.919v.026c1.103,2.032,1.73,4.35,1.73,6.813,0,2.421-.607,4.701-1.675,6.709-.001.003,0,.006.002.008l3.714,1.928,3.714-1.928s.003-.005.002-.008c-1.068-2.007-1.675-4.288-1.675-6.709Z" fill="#fff"/><circle cx="20" cy="31.487" r="1.537" fill="#fff"/><rect x="19.248" y="24.03" width="1.504" height="6.893" fill="#fff"/><path d="m24.417,29.522l-3.371-1.946-.638,1.105,2.295,1.325c.116.067.19.195.175.328-.048.407.144.823.521,1.041.515.297,1.176.112,1.46-.415.274-.51.06-1.148-.441-1.438Z" fill="#fff"/><path d="m15.583,29.522l3.371-1.946.638,1.105-2.295,1.325c-.116.067-.19.195-.175.328.048.407-.144.823-.521,1.041-.515.297-1.176.112-1.46-.415-.274-.51-.06-1.148.441-1.438Z" fill="#fff"/><path d="m20,28.484s2,.15,4.368-1.108c.073-.039.163-.028.222.031l2.262,2.262c.128.128.345.088.419-.078h0c.75-1.692,1.652-3.309,2.704-4.831.927-1.343,2.026-3.393,2.026-5.571,0-3.113-1.628-5.9-4.196-7.779-.163-.12-.382.062-.283.239.866,1.549,1.368,3.382,1.368,5.349,0,5.544-8.889,10.038-8.889,10.038" fill="#fff"/><path d="m20,28.484s-1.897.142-4.183-1.012c-.184-.093-.407-.064-.553.081l-2.115,2.115c-.128.128-.345.088-.419-.078h0c-.75-1.692-1.652-3.309-2.704-4.831-.927-1.343-2.026-3.393-2.026-5.571,0-3.113,1.628-5.9,4.196-7.779.163-.12.382.062.283.239-.866,1.549-1.368,3.382-1.368,5.349,0,5.544,8.889,10.038,8.889,10.038" fill="#fff"/></g></svg>