<?xml version="1.0" encoding="UTF-8"?><svg id="Layer_1" xmlns="http://www.w3.org/2000/svg" viewBox="0 0 40 40"><g><path d="m2.749,20.542l4.272,13.437,17.004-17.327L15.08,4.161,3.649,16.51c-1.004,1.084-1.347,2.624-.9,4.032Z" fill="#595959"/><polygon points="15.08 4.161 30.042 4.161 27.088 16.974 24.026 16.652 15.08 4.161" fill="#767676"/><path d="m30.042,4.161l6.532,12.127c.433.81.581,1.742.422,2.647l-2.655,15.044-7.253-17.004,2.954-12.814Z" fill="#949494"/><path d="m7.021,33.979l14.838,3.031c1.104.226,2.247.168,3.323-.169l9.159-2.862-7.253-17.004-3.062-.322L7.021,33.979Z" fill="#4a4a4a"/></g><rect width="40" height="40" fill="none"/></svg>