<?xml version="1.0" encoding="UTF-8"?>
<svg id="Layer_1" data-name="Layer 1" xmlns="http://www.w3.org/2000/svg" viewBox="0 0 40 40">
  <rect y="0" width="40" height="40" fill="none"/>
  <g>
    <path d="m31.214,3.912c-1.383-.286-2.736.602-3.021,1.983l-1.056,8.744,6.116,1.943V6.475h-.004c.03-1.211-.805-2.309-2.035-2.563Z" fill="#6f4944"/>
    <g>
      <rect x="28.352" y="10.216" width="4.899" height="3.476" fill="#ff9c21"/>
      <ellipse cx="30.803" cy="10.216" rx="2.45" ry="2.504" fill="#2e2423"/>
    </g>
    <path d="m33.251,12.114v-.716c0-.006.002-.011.002-.016,0-1.383-1.097-2.504-2.449-2.504-1.264,0-2.292.982-2.423,2.238-.603.9-1.069,2.09-1.243,3.525-.384,3.178-1.702,6.614-2.811,9.062-.87,1.921-2.79,3.145-4.899,3.145H6.24c-.764,0-1.384.62-1.384,1.384v6.526c0,.764.62,1.384,1.384,1.384h20.151c3.556,0,6.48-2.704,6.829-6.167.022-.215.035-.445.035-.697V12.17c0-.021-.004-.036-.004-.056Z" fill="#6f4944"/>
    <g>
      <path d="m28.507,23.19l-.458,1.104c-.78,1.881-2.35,3.324-4.29,3.942l-.935.298,10.908,1.353,1.052-4.599-6.277-2.099Z" fill="#2e2423"/>
      <ellipse cx="31.545" cy="24.548" rx="3.398" ry="3.325" transform="translate(.581 49.825) rotate(-77.117)" fill="#2e2423"/>
    </g>
    <path d="m24.332,28.176c.155.035.31.061.465.078,1.802.198,3.464-1.02,4.058-2.732l.754-2.175c.476-1.374,1.91-2.169,3.328-1.845h0c1.534.351,2.493,1.879,2.142,3.413l-1.65,7.215c-.042.185-.09.351-.143.505-.719,2.131-2.738,3.532-4.946,3.505h-2.851l-5.034-8.833,3.878.868Z" fill="#6f4944"/>
  </g>
</svg>