<?xml version="1.0" encoding="UTF-8"?><svg id="Layer_1" xmlns="http://www.w3.org/2000/svg" viewBox="0 0 40 40"><g><path d="M27.71533,12.83105l-.03174-8.41895c-.00195-.53223,.42822-.96582,.96045-.96777h.00342c.53076,0,.96143,.42969,.96387,.95996l.02393,6.48926,6.41943-.03613h.00537c.52979,0,.96045,.42773,.96387,.95898,.00293,.53125-.42627,.96582-.9585,.96875l-8.3501,.0459Z" style="fill:#4b7f6f;"/><path d="M30.76562,34.47754c-.24658,0-.49316-.09473-.68164-.28223L6.43555,10.54687c-.37598-.37695-.37598-.98633,0-1.36328,.37694-.375,.98633-.375,1.36328,0l23.64844,23.64844c.37598,.37695,.37598,.98633,0,1.36328-.18848,.1875-.43506,.28223-.68164,.28223Z" style="fill:#254241;"/><path d="M21.68408,39.14844c-.46289,0-.87109-.33398-.94971-.80566L15.24707,5.35254c-.0874-.52539,.26758-1.02148,.79248-1.1084,.52881-.10059,1.02148,.2666,1.10889,.79199l5.4873,32.99023c.0874,.52539-.26758,1.02148-.79248,1.1084-.05371,.00977-.10693,.01367-.15918,.01367Z" style="fill:#254241;"/><path d="M35.43749,25.39648c-.05224,0-.10546-.00391-.15917-.01367L2.28809,19.89551c-.5249-.08691-.87988-.58301-.79248-1.1084,.0874-.52441,.57715-.8877,1.10889-.79199l32.99023,5.4873c.5249,.08691,.87988,.58301,.79248,1.1084-.07861,.47168-.48682,.80566-.94972,.80566Z" style="fill:#254241;"/><path d="M30.71363,21.66577c3.29945-3.29945,3.29945-8.64892,0-11.94838s-8.64892-3.29945-11.94838,0-.42234,5.77181,2.87712,9.07126c3.29945,3.29945,5.77181,6.17657,9.07126,2.87712Z" style="fill:#4b7f6f;"/><path d="M9.82289,13.67707c-5.75934,5.75934-6.63811,14.21852-1.96278,18.89384,4.67547,4.67547,13.13451,3.79655,18.89384-1.96278,1.88729-1.88729,3.24332-4.06396,4.05432-6.30257,.61573-1.6996,.28282-3.47385-.85987-4.61654l-9.20639-9.20639c-1.14269-1.14269-2.91694-1.4756-4.61654-.85987-2.23861,.811-4.41529,2.16703-6.30257,4.05432Z" style="fill:#1f6354;"/><path d="M7.86011,32.57092c4.67547,4.67547,13.13451,3.79655,18.89384-1.96278,1.88729-1.88729,3.24332-4.06396,4.05432-6.30257,.61573-1.6996,.28282-3.47385-.85987-4.61654l-4.63301-4.63301L7.86011,32.57092Z" style="fill:#195245;"/></g><rect width="40" height="40" style="fill:none;"/></svg>