<svg id="Layer_1" data-name="Layer 1" xmlns="http://www.w3.org/2000/svg" viewBox="0 0 40 40"><defs><style>.cls-1{fill:#ffd642;}.cls-2{fill:#473322;}.cls-3{fill:#e32939;}.cls-4{fill:#5e403b;}.cls-5{fill:#956759;}.cls-6{fill:none;}</style></defs><path class="cls-1" d="M17.436,11.34a4.561,4.561,0,0,1-9.122,0c0-2.519,4.561-8.84,4.561-8.84S17.436,8.821,17.436,11.34Z"/><rect class="cls-2" x="12.221" y="12.904" width="1.308" height="6.722"/><path class="cls-3" d="M14.561,12.892a1.686,1.686,0,0,1-3.371,0c0-.931,1.685-3.267,1.685-3.267S14.561,11.961,14.561,12.892Z"/><path class="cls-4" d="M37.2,22.717s-6.807-6.531-17.515-1.6C19.688,21.114,29.812,27.575,37.2,22.717Z"/><path class="cls-5" d="M3.661,26.77l-.773-1.884A1.211,1.211,0,0,1,3.367,23.4l7.97-4.972a3.168,3.168,0,0,1,2.961-.21l3.737,1.654A36.41,36.41,0,0,0,37.2,22.717L35.855,26.3a17.3,17.3,0,0,1-16.19,11.2h0A17.3,17.3,0,0,1,3.661,26.77Z"/><path class="cls-4" d="M25.015,26.714a8.853,8.853,0,0,1-11.812,0A8.856,8.856,0,0,1,7.3,28.972a8.6,8.6,0,0,1-2.825-.5A17.294,17.294,0,0,0,35.148,27.9a8.865,8.865,0,0,1-10.133-1.188Z"/><rect class="cls-6" width="40" height="40"/></svg>