<?xml version="1.0" encoding="UTF-8"?><svg id="Layer_1" xmlns="http://www.w3.org/2000/svg" viewBox="0 0 40 40"><rect y="0" width="40" height="40" transform="translate(40 0) rotate(90)" style="fill:none;"/><g><path d="M23.20941,29.04907l-.00037-.00024-7.5174-7.51733,.53864-.53857,7.82452,7.82446,.00006-.00012v.00012c.88098,.88086,2.29163,.89868,3.1507,.03955,.85913-.85913,.84143-2.26978-.03955-3.15076l-7.82452-7.82458,.53864-.53857,6.99078,6.99072,.00018-.00012v.00012c.87817,.87817,2.2865,.89355,3.14557,.03442,.85913-.85901,.84363-2.26733-.03455-3.14551l-.00134-.0011-6.40741-6.40741-5.00488-1.58246s-3.961-.83276-3.961-3.64258l.01953-.00482c-.00519-.06506-.01953-.1275-.01953-.19391,0-.76532,.35767-1.44031,.9068-1.89032-3.56909-1.22418-7.67889-.42383-10.52673,2.42401-3.9834,3.9834-3.9834,10.44189,0,14.42529l2.47968,2.47974,1.46344,1.46338,4.09845,4.09839h.00006c.88092,.88098,2.29156,.89868,3.1507,.03955,.32843-.32843,.52649-.73761,.59943-1.16681,.1178-.69354-.09479-1.4397-.63898-1.98383l-.00037-.00037-4.09814-4.09814,.53864-.5387,7.5177,7.51782,.00006-.00012c.099,.099,.2066,.18341,.3175,.26062,.87555,.60956,2.07068,.54163,2.83325-.22095,.21069-.21069,.36719-.45514,.4726-.71625,.32446-.80353,.15271-1.76959-.51215-2.43463Z" style="fill:#956759;"/><g><path d="M20.09814,32.1604l-7.5177-7.51782-.53864,.5387,4.09814,4.09814,.00037,.00037c.54419,.54413,.75677,1.29028,.63898,1.98383,.09613,.37109,.27722,.72266,.56714,1.01251,.82977,.82965,2.146,.86749,3.06927,.14478-.1109-.07721-.21851-.16162-.3175-.26062l-.00006,.00012Z" style="fill:#5e403b;"/><path d="M32.70001,24.34998c0,1.41998-.54004,2.85004-1.63,3.94l-3.67999,3.66998c-.92004,.92004-2.40002,.94-3.29004,.04004-.15997-.15002-.27997-.33002-.38-.52002,.11005-.26001,.16003-.53998,.16003-.82001,0-.58002-.22998-1.16998-.66998-1.60999l-7.52002-7.52002,.53998-.53998,7.82001,7.83002c.89001,.88,2.29999,.89996,3.16003,.03998,.84998-.85999,.83997-2.27002-.04004-3.15002l-7.82996-7.82996,.53998-.54004,6.98999,6.98999c.88,.88,2.28998,.90002,3.15002,.04004,.41998-.41998,.63-.97998,.63-1.54004,0-.57996-.22003-1.15997-.67004-1.60999l-6.40997-6.40997-5-1.58002s-3.96002-.83002-3.96002-3.64001l.02002-.01001c.09998,1.27002,1.14001,2.26001,2.42999,2.26001l6.48999,1.10004,.06,.01001,3.75,3.75,3.71002,3.70996c1.08997,1.09003,1.63,2.51001,1.63,3.94Z" style="fill:#5e403b;"/></g><path d="M38,17.14001c0,2.60999-1,5.21997-2.98999,7.20996l-3.94,3.94c2.17999-2.17999,2.17999-5.71002,0-7.88l-2.13-2.13-5.33002-5.32996-.06-.01001-6.48999-1.10004c-1.28998,0-2.33002-.98999-2.42999-2.26001-.01001-.06-.02002-.12-.02002-.18994,0-.76001,.35999-1.44,.90002-1.89001,.42999-.35004,.95996-.56,1.54999-.56h10.73999c2.60999,0,5.22003,.98999,7.21002,2.97998,1.98999,2,2.98999,4.60999,2.98999,7.22003Z" style="fill:#ffb582;"/></g></svg>