<?xml version="1.0" encoding="UTF-8"?><svg id="Layer_1" xmlns="http://www.w3.org/2000/svg" viewBox="0 0 40 40"><g><g><path d="m20.996,8.241c-.96-2.079-1.089-3.906-.145-4.956L2.507,23.664c-.762.846-.349,3.292,1.18,6.003-.302-.536-.561-1.061-.775-1.566L20.996,8.241Z" fill="#6e4944"/><path d="m29.541,17.13c-1.266-.729-2.567-1.664-3.821-2.792-.029-.026-.056-.053-.085-.08L7.773,34.656c-.065-.057-.131-.108-.195-.166-.107-.097-.206-.197-.31-.295.104.098.203.199.31.296,1.737,1.563,3.626,2.697,5.365,3.43-.35-.147-.705-.31-1.065-.49l17.663-20.3Z" fill="#6e4944"/><path d="m36.548,30.037v-.005c-.013.002-.024.009-.036.011l.036-.006Z" fill="#6e4944"/><path d="m36.51,30.04l-11.74,1.82-5.89,6.54c-.46.5-1.53.65-2.92.43l17-20.23c1.87.51,3.42.36,4.26-.58l-6.6,7.33,5.44,1.09c-.57.09-.94.94-.82,1.93.11.99.68,1.74,1.27,1.67Z" fill="#6e4944"/></g><g><path d="m7.773,34.656L25.635,14.258c-2.145-1.949-3.749-4.091-4.638-6.017L2.912,28.101c.215.505.473,1.03.775,1.566.003.005.006.01.009.014.148.262.307.528.476.794.017.027.038.055.055.082.157.244.321.49.495.735.035.05.076.099.112.149.162.223.327.446.503.668.064.081.136.16.202.24.157.191.313.382.48.571.093.104.194.206.29.31.151.163.297.326.456.486.161.162.333.319.501.478.104.098.203.199.31.295.064.058.13.109.195.166Z" fill="#573b36"/><path d="m29.541,17.13l-17.663,20.3c.36.18.715.343,1.065.49.044.019.087.034.131.052.285.117.565.223.84.319.086.03.17.058.255.085.237.078.469.146.696.207.082.022.165.046.246.066.293.073.579.134.849.178,0,0,0,0,0,0h0l16.998-20.226c-1.061-.286-2.223-.784-3.419-1.473Z" fill="#573b36"/></g><g><path d="m36.079,26.435c-.007,0-.014.005-.021.006-.572.088-.94.94-.822,1.924.118.995.687,1.746,1.271,1.678,0,0,.002,0,.002,0,.001,0,.002,0,.004,0,.012-.002.023-.009.036-.011.561-.104.92-.946.804-1.919-.119-.997-.689-1.748-1.273-1.678Z" fill="#ac7262"/><path d="m20.996,8.241c.889,1.926,2.493,4.067,4.638,6.017.029.026.056.053.085.08,1.254,1.129,2.555,2.063,3.821,2.792,1.196.689,2.357,1.187,3.419,1.473,1.866.503,3.418.355,4.262-.582,1.832-2.035-.347-6.983-4.868-11.052-4.52-4.069-9.669-5.718-11.501-3.683-.945,1.05-.816,2.876.145,4.956Z" fill="#ac7262"/></g></g><rect width="40" height="40" fill="none"/></svg>