<?xml version="1.0" encoding="UTF-8"?><svg id="Layer_1" xmlns="http://www.w3.org/2000/svg" viewBox="0 0 40 40"><rect width="40" height="40" style="fill:none;"/><g><path d="M26.251,16.47435c-2.02101,3.32511-8.1243,4.09614-13.19993,1.01116-5.07564-3.08498-7.20159-8.85776-5.18057-12.18287h0c.85935-1.41387,2.33616-2.22228,3.87368-2.28941,1.36364-.05954,2.64953,.64649,3.46467,1.74129l1.24918,1.67775c1.16927,1.57042,2.9035,2.62449,4.83593,2.93929l2.04381,.33294c1.49239,.24312,2.79728,1.23028,3.31641,2.65043,.48085,1.31544,.38083,2.8295-.40318,4.11941h0Z" style="fill:#a5665a;"/><path d="M17.39852,10.33279c1.34316,.81637,2.92179,.67233,3.52594-.32166,.12477-.20528,.18636-.43351,.21256-.66927-1.81726-.33557-3.44572-1.32535-4.58033-2.78393-.19722,.13182-.37145,.29158-.49622,.49686-.60415,.99399-.00511,2.46163,1.33805,3.27801Z" style="fill:#d4a59c;"/><path d="M17.49564,35.84931c-3.06674,2.39499-9.04805,.95675-12.70389-3.72449-3.65584-4.68124-3.60183-10.8328-.53509-13.22779h0c1.304-1.01837,2.97131-1.25198,4.43313-.77079,1.2965,.42678,2.24942,1.5421,2.62448,2.85449l.57478,2.0112c.53801,1.88254,1.78713,3.48201,3.48319,4.46016l1.79381,1.03453c1.30984,.75541,2.18107,2.1404,2.16415,3.65237-.01567,1.40048-.6449,2.78122-1.83458,3.71031h0Z" style="fill:#a5665a;"/><path d="M11.38868,26.97292c.96744,1.23879,2.49493,1.66259,3.41168,.94665,.18933-.14786,.32769-.33954,.43561-.55078-1.58099-.95682-2.75392-2.45874-3.29909-4.22442-.2311,.05351-.45059,.1413-.63992,.28916-.91676,.71595-.87572,2.3006,.09172,3.53939Z" style="fill:#d4a59c;"/><path d="M36.38022,15.16834c2.73733,2.76548,2.00875,8.87398-2.21263,13.05239-4.22138,4.17842-10.33701,4.84447-13.07435,2.07899h0c-1.16394-1.17591-1.59101-2.80444-1.28414-4.31252,.27216-1.33753,1.26834-2.41439,2.52784-2.94042l1.93015-.80613c1.80667-.75456,3.24902-2.18223,4.02202-3.98108l.81756-1.90253c.59698-1.38922,1.87053-2.4165,3.37409-2.5766,1.3927-.14829,2.83757,.31508,3.89946,1.38789h0Z" style="fill:#a5665a;"/><path d="M28.27927,22.27184c1.1171-1.10573,1.35928-2.67231,.541-3.499-.16899-.17073-.37554-.28571-.59796-.36818-.76528,1.68207-2.11967,3.02267-3.80943,3.77066,.08018,.22325,.19305,.43096,.36204,.60169,.81828,.8267,2.38726,.60055,3.50436-.50518Z" style="fill:#d4a59c;"/></g></svg>