<?xml version="1.0" encoding="UTF-8"?>
<svg id="Layer_1" data-name="Layer 1" xmlns="http://www.w3.org/2000/svg" viewBox="0 0 40 40">
  <path d="m34.07,21.48c-.34-.08-.7.36-1.13.61-.17.07-.34.12-.48.13-1.26.08-2.64-.15-4.05-.56-2.65-.79-5.41-2.25-7.66-3.64-2.23.01-4.72-.13-7.41-.49l-3.1,3.46-2.54,2.85c-.87-1.88-1.81-2.07-2.16-2.07-1.14.85-1.89,2.15-1.89,3.63,0,1.63.9,3.07,2.26,3.9.77.48,1.7.77,2.7.77,1.23,2.78,3.45,5.02,6.2,6.29,1.59.72,3.34,1.14,5.19,1.14s3.61-.42,5.19-1.14c2.75-1.27,4.97-3.51,6.2-6.29.76,0,1.48-.18,2.13-.47,1.67-.76,2.83-2.35,2.83-4.2,0-1.65-.91-3.09-2.28-3.92Zm-17.57,4.56c-.73,0-1.32-.71-1.32-1.59s.59-1.59,1.32-1.59,1.33.71,1.33,1.59-.6,1.59-1.33,1.59Zm5.58,5.25c-.25.91-1.09,1.58-2.08,1.58s-1.83-.67-2.08-1.58c-.08-.29.13-.57.43-.57h3.3c.3,0,.51.28.43.57Zm1.42-5.25c-.73,0-1.33-.71-1.33-1.59s.6-1.59,1.33-1.59,1.32.71,1.32,1.59-.59,1.59-1.32,1.59Z" fill="#ffc84d"/>
  <g>
    <path d="m8.614,30.072c-1.001-.005-1.93-.288-2.709-.769l1.312,5.271c.261,1.049,1.203,1.784,2.283,1.784h5.314c-2.758-1.267-4.973-3.506-6.201-6.286Z" fill="#ff9000"/>
    <path d="m25.187,36.358h5.255c1.158,0,2.144-.842,2.324-1.986l.754-4.776c-.648.294-1.365.472-2.132.476-1.228,2.78-3.443,5.019-6.201,6.286Z" fill="#ff9000"/>
    <path d="m20.754,18.016c2.248,1.39,5.002,2.855,7.651,3.64,1.413.419,2.795.646,4.053.562.145-.01.312-.06.477-.131.433-.244.797-.689,1.131-.606.004.001.009-.002.013,0,.028-1.883-.326-3.682-.959-5.345-.046.029-.08.073-.134.092-1.307.441-5.716,1.741-12.233,1.789Z" fill="#ff9000"/>
    <path d="m16.174,8.98l1.005-1.944c-1.024.183-2.01.476-2.949.868l1.283,1.19c.204.189.532.132.66-.115Z" fill="#ff9000"/>
    <path d="m24.051,9.095l1.227-1.138c-.913-.389-1.872-.685-2.87-.878l.983,1.9c.128.247.456.304.66.115Z" fill="#ff9000"/>
    <path d="m7.697,23.837l2.542-2.844,3.1-3.468c-2.116-.287-4.35-.704-6.704-1.32-.117-.031-.219-.094-.305-.173-.452,1.179-.756,2.428-.879,3.726-.064.682-.081,1.356-.052,2.018,0,0,.052-.011.141-.011.349.003,1.295.198,2.158,2.071Z" fill="#ff9000"/>
  </g>
  <g>
    <ellipse cx="16.503" cy="24.448" rx="1.325" ry="1.59"/>
    <path d="m23.498,26.038c.732,0,1.325-.712,1.325-1.59s-.593-1.59-1.325-1.59-1.325.712-1.325,1.59.593,1.59,1.325,1.59Z"/>
  </g>
  <path d="m18.353,30.716c-.298,0-.509.286-.43.573.251.912,1.086,1.582,2.078,1.582s1.827-.67,2.078-1.582c.079-.287-.133-.573-.43-.573h-3.296Z" fill="#56311c"/>
  <path d="m13.338,17.525c2.692.364,5.182.507,7.416.49,6.517-.047,10.926-1.348,12.233-1.789.054-.018.088-.062.134-.092.172-.108.305-.266.339-.473l1.301-7.948c.061-.375-.365-.633-.669-.404l-3.127,2.355c-.217.163-.529.082-.638-.166l-1.713-3.876c-.117-.264-.459-.335-.671-.138l-2.666,2.473-1.227,1.138c-.204.189-.532.132-.66-.115l-.983-1.9-2.251-4.352c-.157-.303-.591-.303-.748,0l-2.229,4.309-1.005,1.944c-.128.247-.456.304-.66.115l-1.283-1.19-2.609-2.42c-.212-.197-.554-.126-.671.138l-1.713,3.876c-.11.248-.422.329-.638.166l-3.127-2.355c-.303-.228-.731.026-.669.4.332,2.03,1.059,6.473,1.295,7.913.027.163.112.303.23.41.086.079.188.142.305.173,2.355.616,4.588,1.033,6.704,1.32Zm6.444-2.476c-.784,0-1.42-.705-1.42-1.575s.636-1.575,1.42-1.575,1.42.705,1.42,1.575-.636,1.575-1.42,1.575Z" fill="#ca9533"/>
  <path d="m19.782,11.899c-.784,0-1.42.705-1.42,1.575s.636,1.575,1.42,1.575,1.42-.705,1.42-1.575-.636-1.575-1.42-1.575Z" fill="#f0f0f0"/>
</svg>