<?xml version="1.0" encoding="UTF-8"?>
<svg id="Layer_1" data-name="Layer 1" xmlns="http://www.w3.org/2000/svg" viewBox="0 0 40 40">
  <rect y="0" width="40" height="40" fill="none"/>
  <polygon points="22.724 34.402 17.182 34.402 18.755 26.555 21.316 26.555 22.724 34.402" fill="#b4630b"/>
  <path d="m30.021,13.088c0-.759-.323-1.448-.848-1.955-.259-.25-.342-.629-.208-.963.123-.306.191-.636.191-.982,0-1.099-.679-2.043-1.666-2.507-.227-.107-.395-.311-.459-.554-.321-1.236-1.505-2.156-2.932-2.156-.151,0-.3.011-.445.031-.381.053-.761-.131-.922-.481-.463-1.004-1.528-1.709-2.777-1.709-.008,0-.015.002-.022.002-.008,0-.015-.002-.022-.002-1.249,0-2.314.704-2.777,1.709-.161.349-.541.534-.922.481-.145-.02-.293-.031-.445-.031-1.427,0-2.611.92-2.932,2.156-.063.243-.231.447-.459.554-.986.464-1.666,1.408-1.666,2.507,0,.346.068.676.191.982.135.334.051.713-.208.963-.525.507-.848,1.195-.848,1.955,0,.535.163,1.034.442,1.459.191.29.191.665,0,.955-.279.425-.442.924-.442,1.459,0,.719.294,1.37.771,1.866.221.23.316.556.218.859-.08.246-.124.506-.124.777,0,1.064.636,1.981,1.571,2.46.292.15.454.464.453.793,0,.002,0,.004,0,.006,0,1.559,1.358,2.823,3.033,2.823.243,0,.477-.029.702-.081.342-.08.702.054.902.343.538.778,1.471,1.295,2.539,1.295.008,0,.015-.002.022-.002.008,0,.015.002.022.002,1.068,0,2.001-.517,2.539-1.295.2-.289.56-.423.902-.343.225.052.459.081.702.081,1.675,0,3.033-1.264,3.033-2.823,0-.002,0-.004,0-.006,0-.329.16-.643.453-.793.935-.479,1.571-1.396,1.571-2.46,0-.271-.045-.53-.124-.777-.098-.304-.003-.629.218-.859.478-.496.771-1.147.771-1.866,0-.535-.163-1.034-.442-1.459-.191-.29-.191-.665,0-.955.279-.425.442-.924.442-1.459Z" fill="#7c69ed"/>
  <path d="m30.445,31.172c3.498-3.387,5.229-7.375,5.207-11.065-.002-.356-.42-.543-.675-.295l-18.288,17.707c4.914-.495,9.969-2.679,13.756-6.346Z" fill="#0fb173"/>
  <path d="m9.595,31.172c-3.498-3.387-5.229-7.375-5.207-11.065.002-.356.42-.543.675-.295l18.288,17.707c-4.914-.495-9.969-2.679-13.756-6.346Z" fill="#0fb173"/>
  <path d="m37.752,27.265l-14.585,5.233c-1.922.689-4.014.743-5.969.153l-14.968-4.517c-.344-.104-.631.262-.46.579,1.843,3.419,5.21,6.304,9.7,7.981l-.036.013c.275.103.563.181.844.273.192.064.372.142.568.201.079.024.159.037.239.06.378.109.763.199,1.149.29.311.073.62.154.932.215.337.065.68.11,1.022.161.356.053.712.115,1.068.152.329.034.661.046.993.067.364.023.727.055,1.089.061.37.007.741-.011,1.112-.021.321-.009.643-.007.961-.028.407-.027.813-.081,1.219-.128.283-.033.569-.056.849-.099.388-.06.774-.145,1.161-.224.301-.062.604-.115.901-.188.333-.082.662-.185.993-.282.351-.103.702-.202,1.045-.321.083-.029.169-.047.252-.077.206-.074.393-.167.594-.246.259-.101.526-.187.779-.297l-.035-.01c4.359-1.894,7.501-4.943,9.076-8.451.146-.325-.157-.668-.492-.548Z" fill="#0fb173"/>
  <g>
    <path d="m22.724,6.855c0-.601-.315-1.124-.787-1.423-.256-.162-.476-.382-.638-.638-.299-.472-.822-.787-1.423-.787s-1.124.315-1.423.787c-.162.256-.382.476-.638.638-.472.299-.787.822-.787,1.423s.315,1.124.787,1.423c.256.162.476.382.638.638.299.472.822.787,1.423.787s1.124-.315,1.423-.787c.162-.256.382-.476.638-.638.473-.299.787-.822.787-1.423Z" fill="#b0afff"/>
    <circle cx="19.876" cy="6.855" r="1.439" fill="#9090ff"/>
  </g>
  <g>
    <path d="m22.724,14.839c0-.601-.315-1.124-.787-1.423-.256-.162-.476-.382-.638-.638-.299-.472-.822-.787-1.423-.787s-1.124.315-1.423.787c-.162.256-.382.476-.638.638-.472.299-.787.822-.787,1.423s.315,1.124.787,1.423c.256.162.476.382.638.638.299.472.822.787,1.423.787s1.124-.315,1.423-.787c.162-.256.382-.476.638-.638.473-.299.787-.822.787-1.423Z" fill="#b0afff"/>
    <circle cx="19.876" cy="14.839" r="1.439" fill="#9090ff"/>
  </g>
  <g>
    <path d="m17.834,10.98c0-.601-.315-1.124-.787-1.423-.256-.162-.476-.382-.638-.638-.299-.472-.822-.787-1.423-.787s-1.124.315-1.423.787c-.162.256-.382.476-.638.638-.472.299-.787.822-.787,1.423s.315,1.124.787,1.423c.256.162.476.382.638.638.299.472.822.787,1.423.787s1.124-.315,1.423-.787c.162-.256.382-.476.638-.638.473-.299.787-.822.787-1.423Z" fill="#b0afff"/>
    <circle cx="14.986" cy="10.98" r="1.439" fill="#9090ff"/>
  </g>
  <g>
    <path d="m27.862,10.98c0-.601-.315-1.124-.787-1.423-.256-.162-.476-.382-.638-.638-.299-.472-.822-.787-1.423-.787s-1.124.315-1.423.787c-.162.256-.382.476-.638.638-.472.299-.787.822-.787,1.423s.315,1.124.787,1.423c.256.162.476.382.638.638.299.472.822.787,1.423.787s1.124-.315,1.423-.787c.162-.256.382-.476.638-.638.473-.299.787-.822.787-1.423Z" fill="#b0afff"/>
    <circle cx="25.014" cy="10.98" r="1.439" fill="#9090ff"/>
  </g>
  <g>
    <path d="m17.834,18.586c0-.601-.315-1.124-.787-1.423-.256-.162-.476-.382-.638-.638-.299-.472-.822-.787-1.423-.787s-1.124.315-1.423.787c-.162.256-.382.476-.638.638-.472.299-.787.822-.787,1.423s.315,1.124.787,1.423c.256.162.476.382.638.638.299.472.822.787,1.423.787s1.124-.315,1.423-.787c.162-.256.382-.476.638-.638.473-.299.787-.822.787-1.423Z" fill="#b0afff"/>
    <circle cx="14.986" cy="18.586" r="1.439" fill="#9090ff"/>
  </g>
  <g>
    <path d="m27.862,18.586c0-.601-.315-1.124-.787-1.423-.256-.162-.476-.382-.638-.638-.299-.472-.822-.787-1.423-.787s-1.124.315-1.423.787c-.162.256-.382.476-.638.638-.472.299-.787.822-.787,1.423s.315,1.124.787,1.423c.256.162.476.382.638.638.299.472.822.787,1.423.787s1.124-.315,1.423-.787c.162-.256.382-.476.638-.638.473-.299.787-.822.787-1.423Z" fill="#b0afff"/>
    <circle cx="25.014" cy="18.586" r="1.439" fill="#9090ff"/>
  </g>
  <g>
    <path d="m22.724,22.686c0-.601-.315-1.124-.787-1.423-.256-.162-.476-.382-.638-.638-.299-.472-.822-.787-1.423-.787s-1.124.315-1.423.787c-.162.256-.382.476-.638.638-.472.299-.787.822-.787,1.423s.315,1.124.787,1.423c.256.162.476.382.638.638.299.472.822.787,1.423.787s1.124-.315,1.423-.787c.162-.256.382-.476.638-.638.473-.299.787-.822.787-1.423Z" fill="#b0afff"/>
    <circle cx="19.876" cy="22.686" r="1.439" fill="#9090ff"/>
  </g>
</svg>