<?xml version="1.0" encoding="UTF-8"?><svg id="Layer_1" xmlns="http://www.w3.org/2000/svg" viewBox="0 0 40 40"><g><path d="M19.91475,10.89388c-.81504,0-2.9558-.55697-3.03553-1.38347-.02918-.3033,1.21889-3.07319,3.2221-5.18063,1.50762-1.58631,3.76878-2.32005,6.73451-2.18664,.88331,.03961,1.5665,.78794,1.52638,1.67177-.04013,.88174-.78898,1.55296-1.67229,1.52586-1.97455-.08859-3.40556,.30538-4.2477,1.17358-1.03652,1.06935,.17805,2.91548,.17909,2.93111,.06723,.87549-1.69035,1.36713-2.56532,1.44217-.04742,.00417-.09432,.00625-.14123,.00625Z" style="fill:#097d41;"/><path d="M19.79477,19.44992c1.22119,9.38579-1.58863,16.5158-6.12233,17.10569-4.5337,.58988-9.07447-5.58374-10.29566-14.96953-1.22119-9.38579,2.10567-12.54197,6.63937-13.13185,4.5337-.58988,8.55743,1.60991,9.77862,10.99569Z" style="fill:#0a914c;"/><path d="M20.20523,19.44992c-1.22119,9.38579,1.58863,16.5158,6.12233,17.10569,4.5337,.58988,9.07447-5.58374,10.29566-14.96953,1.22119-9.38579-2.10567-12.54197-6.63937-13.13185-4.5337-.58988-8.55743,1.60991-9.77862,10.99569Z" style="fill:#0a914c;"/><path d="M28.39854,20.73906c0,9.82788-3.84841,16.79301-8.59565,16.79301s-8.59565-6.96513-8.59565-16.79301,3.84841-12.632,8.59565-12.632,8.59565,2.80412,8.59565,12.632Z" style="fill:#0ba054;"/></g><rect y="0" width="40" height="40" style="fill:none;"/></svg>