<?xml version="1.0" encoding="UTF-8"?><svg id="a" xmlns="http://www.w3.org/2000/svg" viewBox="0 0 40 40"><g><path d="M30.49,22.85c0-5.637-4.57-10.207-10.207-10.207s-10.207,4.57-10.207,10.207v9.662H30.49v-9.662Zm-3.078,7.129c0,.288-.234,.522-.522,.522H14.197c-.288,0-.522-.234-.522-.522v-2.571c0-.288,.234-.522,.522-.522h12.693c.288,0,.522,.234,.522,.522v2.571Z" fill="#8595aa"/><g><rect x="13.675" y="26.886" width="13.737" height="3.615" rx=".522" ry=".522" fill="#65778e"/><path d="M35.67,32.51h-1.41v-9.79c0-7.08-5.28-12.92-12.12-13.83v-1.28c0-.16,.13-.29,.29-.29h2.06c.42,0,.75-.34,.75-.76v-1.67c0-.42-.33-.76-.75-.76h-2.06c-.16,0-.29-.13-.29-.29v-1.72c0-.42-.34-.76-.76-.76h-1.68c-.41,0-.75,.34-.75,.76v1.72c0,.16-.13,.29-.29,.29h-2.06c-.42,0-.76,.34-.76,.76v1.67c0,.42,.34,.76,.76,.76h2.06c.16,0,.29,.13,.29,.29v1.21c-7.09,.67-12.64,6.64-12.64,13.9v9.79h-1.43c-.47,0-.85,.38-.85,.85v4.62c0,.47,.38,.85,.85,.85h30.79c.47,0,.86-.38,.86-.85v-4.62c0-.47-.39-.85-.86-.85ZM10.08,22.85c0-5.64,4.57-10.21,10.2-10.21s10.21,4.57,10.21,10.21v9.66H10.08v-9.66Z" fill="#65778e"/></g></g><rect width="40" height="40" fill="none"/></svg>