<?xml version="1.0" encoding="UTF-8"?><svg id="Layer_1" xmlns="http://www.w3.org/2000/svg" viewBox="0 0 40 40"><g><path d="m19.915,10.894c-.815,0-2.956-.557-3.036-1.383-.029-.303,1.219-3.073,3.222-5.181,1.508-1.586,3.769-2.32,6.735-2.187.883.04,1.567.788,1.526,1.672-.04.882-.789,1.553-1.672,1.526-1.975-.089-3.406.305-4.248,1.174-1.037,1.069.178,2.915.179,2.931.067.875-1.69,1.367-2.565,1.442-.047.004-.094.006-.141.006Z" fill="#097d41"/><path d="m19.795,19.45c1.221,9.386-1.589,16.516-6.122,17.106-4.534.59-9.074-5.584-10.296-14.97-1.221-9.386,2.106-12.542,6.639-13.132,4.534-.59,8.557,1.61,9.779,10.996Z" fill="#0a914c"/><path d="m20.205,19.45c-1.221,9.386,1.589,16.516,6.122,17.106,4.534.59,9.074-5.584,10.296-14.97,1.221-9.386-2.106-12.542-6.639-13.132-4.534-.59-8.557,1.61-9.779,10.996Z" fill="#0a914c"/><path d="m28.399,20.739c0,9.828-3.848,16.793-8.596,16.793s-8.596-6.965-8.596-16.793,3.848-12.632,8.596-12.632,8.596,2.804,8.596,12.632Z" fill="#0ba054"/></g><rect y="0" width="40" height="40" fill="none"/></svg>