<?xml version="1.0" encoding="UTF-8"?><svg id="Layer_1" xmlns="http://www.w3.org/2000/svg" viewBox="0 0 40 40"><rect width="40" height="40" fill="none"/><g><g><path d="m37.147,19.967L19.986,2.806,2.634,20.158l.017.017c-2.478,2.834-.838,8.72,3.791,13.348,4.629,4.629,10.515,6.269,13.348,3.791l.005.005,17.352-17.352Z" fill="#ffd06c"/><ellipse cx="28.555" cy="11.412" rx="7.006" ry="12.138" transform="translate(.378 23.727) rotate(-45.393)" fill="#ff9c00"/><g><path d="m33.458,14.252c-.392-.389-.839-.669-1.302-.862.435-1.132.094-2.593-.974-3.654-1.091-1.083-2.591-1.402-3.728-.917-.193-.518-.495-1.021-.932-1.455-1.367-1.357-3.389-1.538-4.516-.403-.976-.969-2.283-1.327-3.362-1.045-.243,3.038,1.56,7.087,4.97,10.46,3.488,3.451,7.674,5.223,10.741,4.854.004-.744-.257-1.534-.774-2.219.108-.078.219-.152.315-.248,1.127-1.135.932-3.155-.435-4.513Zm-10.394-5.209c-.396.045-.748-.239-.786-.635s.252-.753.648-.798c.396-.045.748.239.786.635s-.252.753-.648.798Zm1.352,4.796c-.417.048-.787-.251-.827-.667-.04-.416.265-.792.682-.839.417-.048.787.251.827.667.04.416-.265.792-.682.839Zm3.729-2.408c-.076.116-.187.267-.327.413.109.163.198.326.251.449.054.126.004.27-.118.336-.308.168-.92.435-1.455.255s-.85-.757-.987-1.075c-.018-.041-.021-.084-.017-.126-.005-.019-.012-.037-.013-.058-.013-.348.024-1.01.427-1.417.404-.406,1.065-.448,1.414-.438.138.004.244.11.249.248.006.18-.003.445-.067.714.243.102.45.243.587.348.108.083.132.233.056.349Zm2.309,1.164c.417-.047.787.251.827.667.04.416-.265.792-.682.839-.417.047-.787-.251-.827-.667-.04-.416.265-.792.682-.839Zm1.7,4.717c-.323.508-.996.7-1.358.77-.047.009-.091.002-.133-.011-.021,0-.041.004-.062,0-.36-.065-1.028-.251-1.339-.755s-.181-1.191-.08-1.545c.04-.14.176-.226.318-.2.186.034.454.103.713.229.168-.226.366-.406.509-.523.114-.092.273-.083.372.021.099.104.224.251.338.427.195-.075.385-.13.525-.156.143-.027.277.057.313.196.092.353.206,1.039-.118,1.546Z" fill="#ffe6c4"/><path d="m27.502,10.734c.064-.269.073-.533.067-.714-.005-.137-.112-.244-.249-.248-.348-.01-1.01.031-1.414.438-.404.406-.44,1.068-.427,1.417,0,.021.008.039.013.058-.004.042,0,.084.017.126.137.318.452.896.987,1.075s1.147-.087,1.455-.255c.122-.067.172-.211.118-.336-.053-.123-.142-.286-.251-.449.14-.147.251-.298.327-.413.076-.116.052-.266-.056-.349-.137-.105-.344-.246-.587-.348Z" fill="#5bc219"/><path d="m31.958,15.57c-.14.027-.33.081-.525.156-.114-.176-.239-.324-.338-.427-.099-.104-.258-.113-.372-.021-.144.116-.342.297-.509.523-.259-.126-.527-.195-.713-.229-.142-.026-.278.06-.318.2-.101.354-.231,1.041.08,1.545s.979.69,1.339.755c.021.004.042,0,.062,0,.042.013.086.02.133.011.361-.069,1.034-.262,1.358-.77.323-.508.21-1.193.118-1.546-.036-.14-.171-.224-.313-.196Z" fill="#5bc219"/><path d="m30.599,14.102c.417-.048.722-.423.682-.839-.04-.416-.41-.715-.827-.667-.417.047-.722.423-.682.839.04.416.41.715.827.667Z" fill="#ffd06c"/><path d="m22.925,7.611c-.396.045-.687.402-.648.798s.39.68.786.635c.396-.045.687-.402.648-.798s-.39-.68-.786-.635Z" fill="#ffd06c"/><path d="m24.27,12.333c-.417.047-.722.423-.682.839.04.416.41.715.827.667.417-.047.722-.423.682-.839-.04-.416-.41-.715-.827-.667Z" fill="#ffd06c"/></g></g><path d="m30.058,27.023c-2.834,2.478-8.72.838-13.349-3.791-4.629-4.629-6.269-10.515-3.791-13.349l-.017-.017-.778.778-1.372,1.372-.778.778.017.017c-2.478,2.834-.838,8.72,3.791,13.349,4.629,4.629,10.515,6.269,13.349,3.791l.005.005.778-.778,1.372-1.372.778-.778-.005-.005Z" fill="#ff9c00"/></g></svg>