<?xml version="1.0" encoding="UTF-8"?><svg id="Layer_1" xmlns="http://www.w3.org/2000/svg" viewBox="0 0 40 40"><rect width="40" height="40" fill="none"/><g><path d="m7.78,21.187c1.183-2.743,1.434-4.772,1.392-7.174-.042-2.402-.683-5.228-.7-6.22-.033-1.884,1.334-3.125,3.046-3.154s3.125,1.334,3.154,3.046l.767,7.747-7.659,5.756" fill="#f78700"/><path d="m31.67,22.162c-1.394-.805-3.163-.35-4.079.99l.921-1.596h0c.867-1.501.383-3.403-1.081-4.249-1.464-.845-3.353-.313-4.22,1.188,0,0,0,0,0,0h0s.528-.915.528-.915h0c.867-1.501.383-3.403-1.081-4.249-1.277-.737-2.876-.426-3.839.661l4.245-7.352h0s0,0,0,0c.864-1.496.378-3.395-1.086-4.24s-3.351-.317-4.215,1.179c0,0,0,.002-.001.003l-9.307,16.118c-3.368,5.834-1.369,13.295,4.465,16.663,5.707,3.295,12.959,1.444,16.426-4.098l.019.011.216-.373s.002-.003.003-.004h0s3.17-5.49,3.17-5.49c.867-1.501.383-3.403-1.081-4.249Z" fill="#ffc84d"/></g></svg>