<svg id="Layer_1" data-name="Layer 1" xmlns="http://www.w3.org/2000/svg" viewBox="0 0 40 40"><defs><style>.cls-1{fill:#097d41;}.cls-2{fill:#0a914c;}.cls-3{fill:#0ba054;}.cls-4{fill:none;}</style></defs><path class="cls-1" d="M19.915,10.894c-.815,0-2.956-.557-3.036-1.384A14.586,14.586,0,0,1,20.1,4.33c1.508-1.587,3.769-2.32,6.735-2.187a1.6,1.6,0,0,1-.146,3.2c-1.975-.089-3.406.3-4.248,1.173-1.036,1.07.178,2.916.179,2.931.068.876-1.69,1.368-2.565,1.443Q19.986,10.894,19.915,10.894Z"/><path class="cls-2" d="M19.8,19.45c1.221,9.386-1.589,16.516-6.123,17.106S4.6,30.972,3.377,21.586,5.482,9.044,10.016,8.454,18.574,10.064,19.8,19.45Z"/><path class="cls-2" d="M20.2,19.45c-1.221,9.386,1.589,16.516,6.123,17.106s9.074-5.584,10.295-14.97-2.1-12.542-6.639-13.132S21.426,10.064,20.2,19.45Z"/><path class="cls-3" d="M28.4,20.739c0,9.828-3.849,16.793-8.6,16.793s-8.6-6.965-8.6-16.793S15.056,8.107,19.8,8.107,28.4,10.911,28.4,20.739Z"/><rect class="cls-4" width="40" height="40"/></svg>