<svg id="Layer_1" data-name="Layer 1" xmlns="http://www.w3.org/2000/svg" viewBox="0 0 40 40"><defs><style>.cls-1,.cls-5{fill:none;}.cls-2{fill:#ffa938;}.cls-3{fill:#f77f00;}.cls-4{fill:#ffca38;}.cls-5{stroke:#6b7683;stroke-linecap:round;stroke-miterlimit:10;stroke-width:1.5px;}.cls-6{fill:#956759;}</style></defs><rect class="cls-1" width="40" height="40"/><path class="cls-2" d="M8.348,29.276v4.561a.547.547,0,0,0,.548.547h1.323a.176.176,0,0,0,.172-.162,1.336,1.336,0,0,1,2.651,0,.176.176,0,0,0,.172.162h5.358a.548.548,0,0,0,.548-.547V29.276Z"/><circle class="cls-3" cx="15.426" cy="31.02" r="1.277"/><path class="cls-4" d="M19.12,29.276a6.749,6.749,0,0,0-4.4-5.064.656.656,0,0,0-.661.121l-.86.744a.125.125,0,0,0-.012.173,1.2,1.2,0,0,1-1.808,1.564.123.123,0,0,0-.171-.013L8.348,29.276Z"/><line class="cls-5" x1="11.601" y1="16.148" x2="1.5" y2="33.643"/><rect class="cls-6" x="8.764" y="10.991" width="29.962" height="14.997" transform="translate(20.028 -11.375) rotate(45)"/></svg>