<?xml version="1.0" encoding="UTF-8"?><svg id="Layer_1" xmlns="http://www.w3.org/2000/svg" viewBox="0 0 40 40"><g><path d="M22.16608,17.00598l7.33319,2.66907,2.18524,.79535,.00244,.00116c1.40088,.50989,2.94092-.18774,3.43976-1.55823,.49878-1.37048-.23248-2.89484-1.63336-3.40472l-.00012-.00006,.00012-.00024-.54626-.19879-.00598-.00055-10.77502,1.69702Z" style="fill:#c3846c;"/><path d="M22.16608,17.00598l10.77502-1.69702c-2.57208-.22375-7.57538-.65887-9.9931-.8692-2.31256-.20111-3.64954,.54376-4.5354,1.41351-.39081,.38367-.70282,.78906-.95685,1.15271-.23859,.34149-.41302,.74054-.55713,1.15918l9.30719,5.37354,.00214,.00153c1.26202,.72864,2.86298,.31848,3.57574-.91614,.55426-.96002,.40125-2.13086-.28442-2.94904l-7.33319-2.66907Z" style="fill:#805a4d;"/><path d="M34.55389,15.44958c1.74713,.15289,3.28479-1.10883,3.43433-2.81812,.1496-1.70929-1.14563-3.21893-2.89282-3.37177h-.00012v-.00031l-13.22705-1.15723c-.59448-.052-1.19098-.07806-1.78772-.07806H11.37842c-4.89435,0-9.15179,3.74493-9.36926,8.63446-.14758,3.31995,1.49695,6.26392,4.04535,7.95422l12.65521,8.79352c1.42383,.99707,3.38647,.65106,4.38354-.77289,.99695-1.42395,.65094-3.38647-.77301-4.38348l-4.0993-3.83002c-1.62994-1.62988-2.00311-4.27704-1.32233-6.25476,.1441-.41864,.31854-.81769,.55713-1.15918,.25403-.36365,.56604-.76904,.95685-1.15271,.88586-.86975,2.22284-1.61462,4.5354-1.41351,2.41772,.21033,7.42102,.64545,9.9931,.8692l.00598,.00055,1.60364,.13947,.00317,.00061Z" style="fill:#c3846c;"/></g><rect width="40" height="40" style="fill:none;"/></svg>