<svg id="Layer_1" data-name="Layer 1" xmlns="http://www.w3.org/2000/svg" viewBox="0 0 40 40"><defs><style>.cls-1{fill:#65778e;}.cls-2{fill:#8595aa;}.cls-3{fill:none;}</style></defs><rect class="cls-1" x="4.03" y="32.512" width="32.495" height="6.32" rx="0.85"/><path class="cls-1" d="M20.283,8.749h0A13.973,13.973,0,0,1,34.256,22.722V33.463a0,0,0,0,1,0,0H6.311a0,0,0,0,1,0,0V22.722A13.973,13.973,0,0,1,20.283,8.749Z"/><path class="cls-2" d="M20.283,12.643h0A10.207,10.207,0,0,1,30.49,22.85v9.662a0,0,0,0,1,0,0H10.077a0,0,0,0,1,0,0V22.85A10.207,10.207,0,0,1,20.283,12.643Z"/><rect class="cls-1" x="13.675" y="26.886" width="13.737" height="3.615" rx="0.522"/><path class="cls-1" d="M24.487,4.129H22.429a.291.291,0,0,1-.291-.291V2.121a.756.756,0,0,0-.756-.757H19.7a.757.757,0,0,0-.757.757V3.838a.29.29,0,0,1-.29.291H16.6a.757.757,0,0,0-.757.757V6.563a.756.756,0,0,0,.757.756h2.058a.291.291,0,0,1,.29.291v3.156h3.191V7.61a.292.292,0,0,1,.291-.291h2.058a.756.756,0,0,0,.757-.756V4.886A.757.757,0,0,0,24.487,4.129Z"/><rect class="cls-3" width="40" height="40"/></svg>