<?xml version="1.0" encoding="UTF-8"?><svg id="Layer_1" xmlns="http://www.w3.org/2000/svg" viewBox="0 0 40 40"><g><path d="m24.433,15.903c-1.68-1.68-2.41-3.949-2.192-6.143-1.798.676-3.693,1.758-5.532,3.197-.838.655-1.665,1.376-2.464,2.175-.05.05-.095.103-.145.153-2.096,2.128-3.701,4.437-4.729,6.654-.325.7-.595,1.392-.802,2.064-.883,2.867-.671,5.401.847,6.918,1.519,1.519,4.057,1.729,6.928.843.673-.208,1.365-.478,2.065-.804,2.265-1.053,4.629-2.704,6.795-4.869.007-.007.013-.014.019-.021.868-.87,1.643-1.772,2.341-2.687,1.345-1.763,2.365-3.57,3.012-5.289-2.193.218-4.463-.511-6.143-2.191Z" fill="#6e4944"/><g><path d="m27.779,9.106c.195.045.38.105.563.169.095.033.193.061.285.099.063.027.125.055.187.084.271-1.036.388-2.186.126-3.323-.389-1.688-1.505-3.024-3.319-3.97C18.355-1.623,4.305,14.104,2.727,15.91c-.35.4-.309,1.009.091,1.359.183.159.409.238.634.238.269,0,.536-.111.726-.33C8.19,12.59,19.706,1.259,24.73,3.875c1.306.681,2.068,1.56,2.33,2.688.185.797.1,1.635-.103,2.411.178.017.348.047.518.077.102.018.206.033.305.056Z" fill="#423432"/><path d="m38.17,14.716c-.945-1.813-2.281-2.931-3.97-3.319-1.137-.259-2.286-.142-3.321.129.029.061.056.122.083.184.038.092.066.19.099.285.064.183.124.368.169.562.023.1.038.203.056.306.03.17.06.34.077.518.776-.204,1.614-.289,2.411-.104,1.127.262,2.006,1.023,2.688,2.33,2.62,5.027-8.715,16.54-13.303,20.552-.4.351-.441.959-.091,1.359.19.219.458.33.726.33.225,0,.451-.078.634-.238,1.805-1.578,17.531-15.627,13.744-22.894Z" fill="#423432"/><path d="m2.061,23.007c-.527.076-.891.565-.814,1.093.07.479.482.824.953.824.046,0,.093-.004.14-.011l6.23-.91c.207-.673.477-1.364.802-2.064l-7.311,1.068Z" fill="#423432"/><path d="m15.432,38.006c-.077.527.288,1.017.814,1.093.047.007.094.011.14.011.471,0,.882-.345.953-.824l1.07-7.325c-.701.326-1.392.596-2.065.804l-.912,6.242Z" fill="#423432"/><path d="m16.709,12.957l-8.032,1.174c-.527.076-.891.565-.814,1.093.07.479.482.824.953.824.046,0,.093-.004.14-.011l5.145-.752c.05-.05.095-.103.145-.153.799-.799,1.626-1.52,2.464-2.175Z" fill="#423432"/><path d="m24.429,31.511c-.077.527.288,1.017.814,1.093.047.007.094.011.14.011.471,0,.882-.345.953-.824l1.228-8.406c-.697.914-1.473,1.817-2.341,2.687l-.795,5.44Z" fill="#423432"/><path d="m31.286,12.863c-.018-.103-.034-.206-.056-.306-.045-.195-.105-.38-.169-.562-.033-.095-.061-.193-.099-.285-.077-.185-.173-.356-.272-.526-.044-.075-.078-.156-.126-.228-.154-.233-.328-.451-.527-.651,0,0-.002-.002-.002-.003-.001-.001-.003-.002-.004-.003-.199-.199-.417-.372-.65-.526-.073-.048-.154-.083-.229-.127-.169-.098-.34-.194-.524-.271-.092-.039-.19-.066-.285-.099-.183-.064-.368-.125-.563-.169-.099-.023-.203-.038-.305-.056-.206-.036-.415-.066-.631-.083-.099-.008-.2-.011-.302-.015-.234-.008-.473-.007-.717.006-.093.005-.185.01-.279.019-.268.023-.542.058-.821.104-.078.013-.155.024-.234.04-.311.059-.629.134-.951.221-.052.014-.102.025-.154.04-.373.107-.752.23-1.136.375-.003.001-.006.002-.01.003h0c-.218,2.193.512,4.463,2.192,6.143,1.68,1.68,3.95,2.41,6.143,2.191h0s0-.001,0-.002c.145-.386.27-.768.377-1.143.015-.051.026-.101.04-.152.088-.323.163-.64.222-.952.015-.078.026-.155.039-.233.047-.279.082-.552.104-.82.008-.095.014-.188.019-.281.013-.244.014-.482.006-.715-.004-.102-.007-.204-.015-.304-.017-.216-.047-.425-.083-.63Z" fill="#423432"/></g></g><rect width="40" height="40" fill="none"/></svg>