<?xml version="1.0" encoding="UTF-8"?>
<svg id="Layer_1" data-name="Layer 1" xmlns="http://www.w3.org/2000/svg" viewBox="0 0 40 40">
  <rect width="40" height="40" fill="none"/>
  <g>
    <path d="m21.47,37.937c-.514,0-.951-.394-.996-.915-.047-.55.361-1.034.912-1.082,1.832-.156,3.605-.623,5.271-1.387.501-.229,1.095-.01,1.326.493.23.502.01,1.095-.493,1.326-1.876.86-3.873,1.385-5.935,1.562-.029.002-.058.003-.086.003Zm-3.866-.16c-.049,0-.099-.003-.149-.011-2.105-.314-4.07-.923-5.838-1.811-.494-.248-.693-.849-.445-1.342.248-.494.847-.694,1.342-.445,1.578.792,3.34,1.337,5.235,1.62.546.082.923.59.842,1.137-.074.496-.501.853-.988.853Zm12.784-3.319c-.299,0-.595-.133-.792-.388-.338-.437-.257-1.065.179-1.403,1.454-1.124,2.695-2.477,3.689-4.021.298-.464.917-.599,1.382-.299.464.299.598.917.299,1.382-1.117,1.735-2.512,3.256-4.147,4.52-.182.141-.397.209-.611.209Zm-21.551-.534c-.23,0-.46-.079-.649-.24-1.565-1.337-2.867-2.947-3.869-4.786-.265-.485-.085-1.092.399-1.356.484-.266,1.092-.086,1.356.399.885,1.624,2.033,3.044,3.412,4.222.42.359.47.99.111,1.41-.198.231-.479.351-.761.351Zm27.18-7.211c-.111,0-.225-.019-.336-.059-.52-.186-.792-.757-.606-1.278.614-1.722.925-3.531.925-5.376,0-.552.448-1.036,1-1.036s1,.412,1,.964v.071c0,2.075-.351,4.11-1.042,6.048-.146.409-.531.665-.942.665Zm-32.271-.884c-.438,0-.84-.29-.963-.732-.459-1.651-.692-3.366-.692-5.098,0-.329.008-.658.025-.986.028-.552.5-.986,1.05-.947.551.028.976.499.947,1.05-.015.294-.022.588-.022.883,0,1.551.208,3.086.619,4.562.148.532-.163,1.083-.695,1.231-.09.025-.18.037-.269.037Zm32.801-8.746c-.453,0-.864-.31-.972-.77-.421-1.785-1.143-3.472-2.144-5.014-.301-.463-.169-1.083.294-1.383.463-.301,1.083-.168,1.383.294,1.126,1.735,1.938,3.634,2.413,5.643.127.538-.206,1.076-.743,1.203-.078.019-.155.027-.231.027Zm-32.818-.846c-.087,0-.176-.012-.265-.036-.533-.146-.846-.696-.7-1.229.555-2.023,1.431-3.894,2.605-5.558.319-.452.943-.56,1.394-.241.452.318.56.942.241,1.394-1.041,1.475-1.818,3.135-2.311,4.934-.122.444-.524.736-.964.736Zm28.076-7.471c-.25,0-.5-.093-.694-.28-1.325-1.278-2.842-2.31-4.512-3.067-.503-.228-.726-.821-.498-1.324.227-.503.82-.728,1.324-.498,1.877.852,3.585,2.012,5.074,3.449.397.384.409,1.017.025,1.414-.196.204-.458.306-.72.306Zm-23.019-.645c-.281,0-.56-.118-.758-.347-.361-.418-.314-1.05.104-1.41,1.542-1.33,3.325-2.375,5.301-3.108.516-.193,1.093.072,1.285.59.192.518-.072,1.093-.59,1.285-1.751.65-3.329,1.574-4.69,2.748-.189.163-.421.243-.652.243Zm14.537-3.797c-.064,0-.13-.006-.195-.019-1.022-.203-2.074-.305-3.127-.305-.763.031-1.555.106-2.316.222-.543.087-1.056-.291-1.14-.838-.083-.546.292-1.056.838-1.14.834-.127,1.702-.209,2.578-.244h.013c1.218,0,2.397.115,3.542.342.542.107.894.634.787,1.175-.094.476-.512.806-.98.806Z" fill="#ffc84d"/>
    <g>
      <ellipse cx="15.42" cy="16.377" rx="2.034" ry="2.65" fill="#f80"/>
      <ellipse cx="24.58" cy="16.377" rx="2.034" ry="2.65" fill="#f80"/>
    </g>
    <path d="m25.534,26.503h-11.069c-.537,0-.971-.435-.971-.971s.434-.971.971-.971h11.069c.537,0,.971.435.971.971s-.434.971-.971.971Z" fill="#f80"/>
  </g>
</svg>