<?xml version="1.0" encoding="UTF-8"?>
<svg id="Layer_1" data-name="Layer 1" xmlns="http://www.w3.org/2000/svg" viewBox="0 0 40 40">
  <g>
    <path d="m30.396,19.789c0-2.239-.147-4.393-.4-6.446-.217.221-.381.531-.435.901l-.365,2.527c-.026.185-.185.321-.371.321s-.344-.137-.371-.321l-.365-2.527c-.089-.616-.461-1.099-.928-1.204l-2.028-.455c-.171-.038-.293-.19-.293-.366s.122-.328.293-.366l2.028-.455c.466-.105.839-.588.928-1.204l.024-.167c-2.536-.403-5.259-.635-8.113-.635v10.396h10.396Z" fill="#5c678d"/>
    <path d="m9.604,19.789c0,3.389.311,6.61.868,9.528,2.918.557,6.139.868,9.528.868v-10.396h-10.396Z" fill="#5c678d"/>
    <path d="m10.472,29.317c-1.962-.375-3.785-.861-5.428-1.441,0,0,0-.001,0-.002,1.573,2.904,3.967,5.299,6.872,6.872,0,0-.001,0-.002,0-.58-1.643-1.066-3.467-1.441-5.428Z" fill="#5c678d"/>
    <path d="m29.528,29.317c-2.918.557-6.139.868-9.528.868v6.604s-.002,0-.003,0c.001,0,.002,0,.003,0,2.977,0,5.773-.77,8.206-2.114-.041.022-.079.048-.119.07.58-1.643,1.066-3.467,1.441-5.428Z" fill="#5c678d"/>
    <path d="m10.472,10.261c-1.962.375-3.785.861-5.428,1.441-1.303,2.405-2.044,5.159-2.044,8.087h6.604c0-3.389.311-6.61.868-9.528Z" fill="#5c678d"/>
    <path d="m20,9.393V2.789c-2.928,0-5.682.741-8.087,2.044-.58,1.643-1.066,3.467-1.441,5.428,2.918-.557,6.139-.868,9.528-.868Z" fill="#5c678d"/>
    <path d="m29.528,29.317c1.962-.375,3.785-.861,5.428-1.441-.022.041-.048.079-.07.119,1.344-2.434,2.114-5.229,2.114-8.206h-6.604c0,3.389-.311,6.61-.868,9.528Z" fill="#5c678d"/>
    <path d="m29.196,7.668l.365,2.526c.004.028.016.051.021.078,1.941.373,3.746.855,5.374,1.43,0,0,0,.001,0,.002-1.573-2.904-3.967-5.298-6.87-6.871.283.801.543,1.647.779,2.529.166.02.306.137.331.306Z" fill="#5c678d"/>
  </g>
  <g>
    <path d="m11.913,4.833s0,0,0,0c0,0,0,0,0,0-.038.021-.074.045-.112.066-.393.217-.776.452-1.149.698-.133.088-.263.181-.394.273-.284.199-.562.407-.833.623-.123.098-.248.195-.368.296-.355.299-.7.608-1.029.935-.031.031-.062.062-.093.093-.326.329-.636.674-.935,1.029-.101.12-.198.245-.296.368-.216.271-.423.548-.623.833-.092.131-.185.261-.273.394-.246.373-.48.754-.696,1.146-.022.039-.047.076-.068.115,0,0,0,0,0,0h0c1.643-.58,3.467-1.066,5.428-1.441.375-1.962.861-3.785,1.441-5.428Z" fill="#a1b2cf"/>
    <path d="m29.745,33.706c.283-.198.559-.405.828-.619.125-.099.25-.197.372-.299.352-.297.695-.604,1.021-.928.035-.034.069-.069.103-.103.324-.327.632-.67.929-1.022.102-.121.2-.247.299-.371.215-.27.422-.546.62-.829.092-.132.186-.262.275-.397.245-.371.478-.751.694-1.142.022-.04.048-.078.07-.119-1.643.58-3.467,1.066-5.428,1.441-.375,1.962-.861,3.785-1.441,5.428.041-.022.079-.048.119-.07.391-.216.77-.448,1.141-.693.135-.089.266-.183.398-.275Z" fill="#a1b2cf"/>
    <path d="m29.582,10.273c.109.576.462,1.026.907,1.126l2.028.455c.171.038.293.19.293.366s-.122.328-.293.366l-2.028.455c-.186.042-.349.157-.493.303.253,2.053.4,4.208.4,6.446h6.604c0-.524-.032-1.041-.078-1.553-.01-.109-.019-.219-.031-.328-.055-.494-.127-.983-.223-1.463-.017-.087-.039-.171-.058-.258-.093-.432-.203-.859-.329-1.278-.025-.084-.047-.169-.073-.252-.144-.456-.31-.901-.49-1.34-.044-.108-.091-.215-.138-.321-.192-.44-.395-.873-.623-1.292,0,0,0-.001,0-.002-1.628-.575-3.433-1.057-5.374-1.43Z" fill="#a1b2cf"/>
    <path d="m10.472,29.317c-.557-2.918-.868-6.139-.868-9.528H3c0,.524.032,1.041.078,1.553.01.109.019.219.031.328.055.494.127.983.223,1.463.017.086.039.171.057.257.094.433.203.86.329,1.28.025.083.046.167.072.25.144.456.31.902.49,1.34.045.108.091.215.138.322.192.44.395.873.622,1.292,0,0,0,.001,0,.002,1.643.58,3.467,1.066,5.428,1.441Z" fill="#a1b2cf"/>
    <path d="m20,30.185c-3.389,0-6.61-.311-9.528-.868.375,1.962.861,3.785,1.441,5.428,0,0,.001,0,.002,0,.419.227.852.43,1.292.622.107.047.214.094.323.139.438.18.883.346,1.339.49.083.026.169.048.252.073.419.125.844.235,1.276.328.087.019.173.041.26.058.48.096.968.169,1.461.223.11.012.22.021.33.031.511.046,1.026.078,1.549.078.001,0,.002,0,.003,0v-6.604Z" fill="#a1b2cf"/>
    <path d="m28.113,10.027l.341-2.359c.027-.185.185-.321.371-.321.015,0,.026.013.04.015-.236-.882-.496-1.728-.779-2.529h0c-.42-.228-.854-.431-1.295-.624-.106-.046-.212-.093-.32-.137-.439-.181-.885-.346-1.341-.491-.082-.026-.167-.048-.25-.072-.42-.126-.847-.236-1.28-.329-.086-.019-.171-.04-.257-.057-.481-.096-.969-.169-1.463-.223-.109-.012-.218-.021-.328-.031-.512-.047-1.029-.078-1.553-.078v6.604c2.854,0,5.577.232,8.113.635Z" fill="#a1b2cf"/>
  </g>
  <g>
    <path d="m20,9.393c-3.389,0-6.61.311-9.528.868-.557,2.918-.868,6.139-.868,9.528h10.396v-10.396Z" fill="#dce5f7"/>
    <path d="m20,19.789v10.396c3.389,0,6.61-.311,9.528-.868.557-2.918.868-6.139.868-9.528h-10.396Z" fill="#dce5f7"/>
  </g>
  <path d="m32.81,12.22c0,.18-.12.33-.29.37l-2.03.45c-.19.04-.35.16-.49.3-.22.22-.39.53-.44.9l-.36,2.53c-.03.19-.19.32-.37.32-.19,0-.35-.13-.38-.32l-.36-2.53c-.09-.61-.46-1.09-.93-1.2l-2.03-.45c-.17-.04-.29-.19-.29-.37s.12-.33.29-.37l2.03-.45c.47-.11.84-.59.93-1.21l.02-.16.34-2.36c.03-.19.19-.32.38-.32.01,0,.02.01.04.01.16.02.3.14.33.31l.36,2.52c.01.03.02.06.02.08.11.58.46,1.03.91,1.13l2.03.45c.17.04.29.19.29.37Z" fill="#fff"/>
</svg>