<svg id="Layer_1" data-name="Layer 1" xmlns="http://www.w3.org/2000/svg" viewBox="0 0 40 40"><defs><style>.cls-1{fill:#bea285;}.cls-2{fill:#b3202d;}.cls-3{fill:#e32939;}.cls-4{fill:none;}</style></defs><path class="cls-1" d="M28.978-1.576h0a2.943,2.943,0,0,1,2.943,2.943V23.786a0,0,0,0,1,0,0H26.035a0,0,0,0,1,0,0V1.367a2.943,2.943,0,0,1,2.943-2.943Z" transform="translate(16.34 -17.238) rotate(45)"/><rect class="cls-2" x="-2.031" y="27.618" width="25.004" height="3.99" rx="1.995" transform="translate(24.006 1.27) rotate(45)"/><path class="cls-3" d="M3.981,20.7a10.888,10.888,0,0,1,15.4,15.4Z"/><path class="cls-3" d="M16.1,16.787h4.761a1.762,1.762,0,0,1,1.762,1.762v7.874a0,0,0,0,1,0,0H14.336a0,0,0,0,1,0,0V18.549A1.762,1.762,0,0,1,16.1,16.787Z" transform="translate(20.689 -6.738) rotate(45)"/><rect class="cls-4" width="40" height="40"/></svg>