<svg id="Layer_1" data-name="Layer 1" xmlns="http://www.w3.org/2000/svg" viewBox="0 0 40 40"><defs><style>.cls-1{fill:#dd2c00;}.cls-2{fill:#dda698;}.cls-3{fill:none;}</style></defs><path class="cls-1" d="M27.036,25.324c8.04-8.188,11.1-23.712,11.1-23.712S33.878,3.627,28.6,6.841a2,2,0,0,0-.679.686l-2.934,4.944-.347-2.5a.347.347,0,0,0-.537-.242,70.244,70.244,0,0,0-7.562,5.873c-5.693,5.165-6.161,9.047-6.942,13.275a2.8,2.8,0,0,0,.023,1.194l-7.51,7.806a.335.335,0,0,0,.445.5l8.688-6.659a2.892,2.892,0,0,0,1.01.089c3.228-.273,6.247-.405,9.973-2.659a.557.557,0,0,0,.172-.78l-1.613-2.409,4.2.147A2.728,2.728,0,0,0,27.036,25.324Z"/><path class="cls-2" d="M10.186,29.719,33.051,8.86S18,18.415,10.186,29.719Z"/><rect class="cls-3" width="40" height="40"/></svg>