<?xml version="1.0" encoding="UTF-8"?><svg id="Layer_1" xmlns="http://www.w3.org/2000/svg" viewBox="0 0 40 40"><g><path d="m38.059,10.23l-6.63-3.143c-.353-.168-.579-.524-.579-.915v-3.121c0-.418-.368-.734-.784-.694-2.987.285-4.655,2.174-5.509,3.631-.511.872-.773,1.863-.773,2.874v6.129c0,1.225-.993,2.218-2.218,2.218h-12.527c-.121,0-.235.025-.354.036-1.329-1.365-3.003-1.983-4.462-1.452-2.28.83-3.167,4.144-1.98,7.402.625,1.718,1.704,3.071,2.916,3.85v9.52c0,.6.486,1.086,1.086,1.086h4.138c.6,0,1.085-.486,1.085-1.086v-4.304c0-2.033,1.648-3.682,3.682-3.682h6.819c2.033,0,3.682,1.648,3.682,3.682v4.304c0,.6.486,1.086,1.086,1.086h4.087c.6,0,1.085-.486,1.085-1.086v-17.904c0-1.072.703-2.016,1.729-2.325l4.282-1.288c.417-.125.703-.51.703-.945v-2.982c0-.381-.22-.729-.564-.892Z" fill="#fdaeb3"/><path d="m38.059,10.23l-6.63-3.143c-.353-.168-.579-.524-.579-.915v-3.121c0-.418-.368-.734-.784-.694-2.987.285-4.655,2.174-5.509,3.631-.511.872-.773,1.863-.773,2.874v6.129c0,1.225-.993,2.218-2.218,2.218h-12.527c-.121,0-.235.025-.354.036-1.329-1.365-3.003-1.983-4.462-1.452-2.28.83-3.167,4.144-1.98,7.402.169.464.376.895.604,1.302.136.241.288.46.441.679l.679-.679,1.053-1.053,1.053,1.053,1.971,1.971,1.971-1.971,1.053-1.053,1.053,1.053,1.971,1.971,1.971-1.971,1.053-1.053,1.053,1.053,1.971,1.971,1.971-1.971,1.053-1.053,1.053,1.053,1.971,1.971,1.971-1.971,1.053-1.053,1.053,1.053,1.638,1.638v-7.475c0-1.072.703-2.016,1.729-2.325l4.282-1.288c.417-.125.703-.51.703-.945v-2.982c0-.381-.22-.729-.564-.892Z" fill="#a8bfff"/><circle cx="30.766" cy="10.455" r="1.342" fill="#3d3d3d"/></g><rect width="40" height="40" fill="none"/></svg>