<?xml version="1.0" encoding="UTF-8"?><svg id="Layer_1" xmlns="http://www.w3.org/2000/svg" viewBox="0 0 40 40"><rect width="40" height="40" style="fill:none;"/><g><path d="M24.48248,35.08341l7.56377,.02693c3.12821,.01114,4.01151-4.28147,1.13306-5.50635l-.49917-.21241c-1.72522-.91405-1.25514-3.50468,.68124-3.75432l3.36819-.43423c1.29288-.16668,1.89665-1.69137,1.06839-2.69801l-.43812-.53248c-.48986-.59536-.74603-1.34588-.72638-2.11661,.00361-.14168,.00543-.2838,.00543-.42635,0-9.69013-8.38893-17.42092-18.30055-16.326-7.61249,.84094-13.73251,7.04879-14.47768,14.67124-.09125,.93344-.10432,1.85288-.04497,2.75252,.05438,.82423-.22328,1.63389-.75419,2.26669l-.36662,.43698c-1.68433,2.00759-.82214,5.0808,1.66067,5.91929l4.45133,1.5033c.75683,.2556,1.16662,1.07303,.91859,1.83237l-.08819,.26998c-.91671,2.80653,2.10203,5.27027,4.66791,3.80969l.73618-.41906c.96418-.54884,2.04036-.87345,3.14807-.93544,1.25905-.07046,3.27449-.13849,6.29304-.12774Z" style="fill:#ffc84d;"/><path d="M25.54862,26.65473c.05932-.02172,.05907-.09948-.00385-.10507-1.65424-.06861-3.20583-.15943-4.19244-.3725-3.56846-.78901-6.40573-2.67564-7.39595-6.01282l-.31062-1.04686c-.06145-.20708,.24984-.39337,.34465-.19929,1.02097,2.08986,6.78642,6.26065,14.06814,7.39996,0,0,.68761,.68284-2.61965,1.48805-.88678,.2159-2.00488,.40492-2.71679,.51606-.1944,.03035-.22265,.29744-.0399,.37037,1.46974,.73027,4.36581,1.26701,6.83943,1.65859-2.17444,.00138-3.39703,.22459-6.07324-.41078-1.15795-.33499-1.72487-.55259-2.4173-1.06011-.85103-.62377-.40851-1.30845,.16802-1.42566,1.19922-.24381,3.21323-.38383,4.3495-.79993Z" style="fill:#f80;"/><g><ellipse cx="17.50778" cy="13.97134" rx="2.6687" ry="2.04859" transform="translate(-3.04801 22.86966) rotate(-61.99726)"/><ellipse cx="25.65165" cy="19.05187" rx="2.6687" ry="2.04859" transform="translate(.63403 38.92899) rotate(-75.06984)"/></g></g></svg>