<?xml version="1.0" encoding="UTF-8"?><svg id="Layer_1" xmlns="http://www.w3.org/2000/svg" viewBox="0 0 40 40"><rect y="0" width="40" height="40" transform="translate(40 0) rotate(90)" fill="none"/><g><path d="m23.209,29.049s0,0,0,0l-7.517-7.517.539-.539,7.825,7.824h0s0,0,0,0c.881.881,2.292.899,3.151.04.859-.859.841-2.27-.04-3.151l-7.825-7.825.539-.539,6.991,6.991h0s0,0,0,0c.878.878,2.286.894,3.146.034.859-.859.844-2.267-.035-3.146,0,0,0,0-.001-.001l-6.407-6.407-5.005-1.582s-3.961-.833-3.961-3.643l.02-.005c-.005-.065-.02-.128-.02-.194,0-.765.358-1.44.907-1.89-3.569-1.224-7.679-.424-10.527,2.424-3.983,3.983-3.983,10.442,0,14.425l2.48,2.48,1.463,1.463,4.098,4.098h0c.881.881,2.292.899,3.151.04.328-.328.526-.738.599-1.167.118-.694-.095-1.44-.639-1.984,0,0,0,0,0,0l-4.098-4.098.539-.539,7.518,7.518h0c.099.099.207.183.318.26.876.61,2.071.542,2.833-.221.211-.211.367-.455.473-.716.324-.804.153-1.77-.512-2.435Z" fill="#956759"/><g><path d="m20.098,32.16l-7.518-7.518-.539.539,4.098,4.098s0,0,0,0c.544.544.757,1.29.639,1.984.096.371.277.723.567,1.013.83.83,2.146.867,3.069.145-.111-.077-.219-.162-.318-.261h0Z" fill="#5e403b"/><path d="m32.7,24.35c0,1.42-.54,2.85-1.63,3.94l-3.68,3.67c-.92.92-2.4.94-3.29.04-.16-.15-.28-.33-.38-.52.11-.26.16-.54.16-.82,0-.58-.23-1.17-.67-1.61l-7.52-7.52.54-.54,7.82,7.83c.89.88,2.3.9,3.16.04.85-.86.84-2.27-.04-3.15l-7.83-7.83.54-.54,6.99,6.99c.88.88,2.29.9,3.15.04.42-.42.63-.98.63-1.54,0-.58-.22-1.16-.67-1.61l-6.41-6.41-5-1.58s-3.96-.83-3.96-3.64l.02-.01c.1,1.27,1.14,2.26,2.43,2.26l6.49,1.1.06.01,3.75,3.75,3.71,3.71c1.09,1.09,1.63,2.51,1.63,3.94Z" fill="#5e403b"/></g><path d="m38,17.14c0,2.61-1,5.22-2.99,7.21l-3.94,3.94c2.18-2.18,2.18-5.71,0-7.88l-2.13-2.13-5.33-5.33-.06-.01-6.49-1.1c-1.29,0-2.33-.99-2.43-2.26-.01-.06-.02-.12-.02-.19,0-.76.36-1.44.9-1.89.43-.35.96-.56,1.55-.56h10.74c2.61,0,5.22.99,7.21,2.98,1.99,2,2.99,4.61,2.99,7.22Z" fill="#c3846c"/></g></svg>