<?xml version="1.0" encoding="UTF-8"?><svg id="a" xmlns="http://www.w3.org/2000/svg" viewBox="0 0 40 40"><rect width="40" height="40" fill="none"/><g><g><path d="M8.348,29.276v4.561c0,.303,.245,.548,.548,.548h1.323c.091,0,.161-.072,.172-.162,.08-.661,.643-1.173,1.325-1.173s1.245,.512,1.325,1.173c.011,.091,.081,.162,.172,.162h5.358c.303,0,.548-.245,.548-.548v-4.561H8.348Z" fill="#ffa938"/><circle cx="15.426" cy="31.02" r="1.277" fill="#f77f00"/><path d="M19.12,29.276c-.567-3.331-3.375-4.678-4.4-5.064-.226-.085-.479-.037-.662,.121l-.86,.744c-.051,.044-.054,.12-.012,.173,.209,.263,.311,.616,.235,.991-.09,.451-.452,.821-.9,.92s-.869-.055-1.143-.347c-.046-.049-.12-.057-.171-.013l-2.859,2.475h10.771Z" fill="#ffca38"/></g><line x1="11.601" y1="16.148" x2="1.5" y2="33.643" fill="none" stroke="#6b7683" stroke-linecap="round" stroke-miterlimit="10" stroke-width="1.5"/><rect x="8.764" y="10.991" width="29.962" height="14.997" transform="translate(20.028 -11.375) rotate(45)" fill="#956759"/></g></svg>