<svg id="Layer_1" data-name="Layer 1" xmlns="http://www.w3.org/2000/svg" viewBox="0 0 40 40"><defs><style>.cls-1{fill:none;}.cls-2{fill:#9bbed7;}.cls-3{fill:#456987;}</style></defs><rect class="cls-1" width="40" height="40"/><path class="cls-2" d="M.548,14.323A12.623,12.623,0,0,0,5.687,23.37a5.9,5.9,0,0,1,.644.529,13.655,13.655,0,0,0,26.949-.335,11.067,11.067,0,0,1,1.175-3.689l4.958-9.07a1.268,1.268,0,0,0,.08-.55A3.054,3.054,0,0,0,38.4,8.305a2.876,2.876,0,0,0-1.785-1.034,1.384,1.384,0,0,0-.972.5L31.716,11.8c-.673.57-1.313.712-1.789.084l-.858-1.133H10.6v-.039c0,.013-.008.025-.011.038-.25-.351-3.193-4.355-6.31-3.7C1.017,7.745.289,11.024.548,14.323Zm2.587-.784c.3-3.5,1.271-6.076,5.129-1.543a1.784,1.784,0,0,1,.356,1.589c-.391,1.5-1.18,4.922-1.578,6.347a.483.483,0,0,1-.8.259C5.155,19.161,2.9,16.318,3.135,13.539Z"/><path class="cls-3" d="M11.342,9.38a10.445,10.445,0,0,1,5.94-2.433,2.291,2.291,0,0,1,4.571.01,12.048,12.048,0,0,1,5.538,2.007,5.483,5.483,0,0,1,.972.908l.338.394.368.486a39.179,39.179,0,0,1-18.469,0v-.039A2.56,2.56,0,0,1,11.342,9.38Z"/><ellipse class="cls-3" cx="37.661" cy="9.177" rx="0.642" ry="1.725" transform="translate(4.214 28.77) rotate(-44.057)"/></svg>