<?xml version="1.0" encoding="UTF-8"?>
<svg id="Layer_1" data-name="Layer 1" xmlns="http://www.w3.org/2000/svg" viewBox="0 0 40 40">
  <path d="m36.798,22.55l-.393-.393c-.872-.872-2.285-.872-3.157,0l-8.518,8.518c-.363.363-.947.451-1.363.151-.53-.382-.575-1.126-.132-1.569l9.467-9.467c.369-.369.369-.967,0-1.336s-.967-.369-1.336,0l-9.428,9.428c-.363.363-.947.451-1.363.151-.53-.382-.575-1.126-.132-1.569l9.467-9.467c.369-.369.369-.967,0-1.336s-.967-.369-1.336,0l-9.428,9.428c-.363.363-.947.451-1.363.151-.53-.382-.575-1.126-.132-1.569l9.467-9.467c.369-.369.369-.967,0-1.336s-.967-.369-1.336,0l-9.428,9.428c-.363.363-.947.451-1.363.151-.53-.382-.575-1.126-.132-1.569l9.467-9.467c.369-.369.369-.967,0-1.336s-.967-.369-1.336,0l-9.467,9.467c-.402.402-1.054.402-1.456,0s-.402-1.054,0-1.456l9.467-9.467c.369-.369.369-.967,0-1.336s-.967-.369-1.336,0l-9.428,9.428c-.363.363-.947.451-1.363.151-.53-.382-.575-1.126-.132-1.569l8.557-8.557c.872-.872.872-2.285,0-3.157l-.393-.393c-.196-.196-.515-.196-.711,0L6.759,13.155c-1.98,1.98-1.98,5.191,0,7.171l3.268,3.268c1.147,1.147.738,3.094-.773,3.682l-3.137,1.222c-.803.315-1.495.656-2.077,1.367-1.356,1.655-1.316,4.144.14,5.711,1.675,1.803,4.496,1.842,6.221.117.527-.527.815-1.132,1.087-1.824l1.328-3.121c.623-1.465,2.531-1.835,3.656-.709l3.189,3.189c1.98,1.98,5.191,1.98,7.171,0l9.966-9.966c.196-.196.196-.515,0-.711Zm-30.507,11.146c-.552-.552-.552-1.446,0-1.998s1.446-.552,1.998,0,.552,1.446,0,1.998-1.446.552-1.998,0Z" fill="#2d3d51"/>
</svg>