<?xml version="1.0" encoding="UTF-8"?><svg id="Layer_1" xmlns="http://www.w3.org/2000/svg" viewBox="0 0 40 40"><rect x="0" width="40" height="40" fill="none"/><g><path d="m12.4,6.409h3.072c.913,0,1.654.741,1.654,1.654v30.998h-6.38V8.064c0-.913.741-1.654,1.654-1.654Z" transform="translate(9.617 49.05) rotate(-139.172)" fill="#5e3a34"/><path d="m38.174,15.429L21.385,3.692c-.26-.182-.617-.132-.818.114l-5.987,7.354c-.175.215-.182.521-.017.743l11.763,15.924c.196.265.539.379.85.269,1.733-.608,7.342-3.163,11.256-11.722.152-.333.042-.736-.258-.945Z" fill="#a3a19a"/><path d="m33.515,12.172L21.187,3.554c-.149-.104-.353-.076-.468.065l-6.266,7.697c-.1.123-.104.298-.01.425l9.054,12.257s8.454-4.411,10.017-11.827Z" fill="#ff3503"/></g></svg>