<?xml version="1.0" encoding="UTF-8"?>
<svg id="Layer_1" data-name="Layer 1" xmlns="http://www.w3.org/2000/svg" viewBox="0 0 40 40">
  <rect width="40" height="40" fill="none"/>
  <g>
    <g>
      <circle cx="20" cy="20" r="17.5" fill="#ffc84d"/>
      <g>
        <ellipse cx="15.285" cy="15.241" rx="2.094" ry="2.728"/>
        <ellipse cx="24.715" cy="15.241" rx="2.094" ry="2.728"/>
      </g>
    </g>
    <path d="m13.136,20.321c.725.367,1.015,1.251.648,1.976l-1.209,3.043,2.622-1.922,4.625-3.391c.655-.48,1.575-.338,2.055.317s.338,1.575-.317,2.055l-4.597,3.43.238.324,6.216-4.498c.655-.48,1.575-.338,2.055.316s.338,1.575-.316,2.055l-5.91,4.392.234.327,5.008-3.612c.655-.48,1.575-.338,2.055.316.48.655.338,1.575-.316,2.055l-5.86,4.356.238.324,4.015-2.884c.655-.48,1.575-.338,2.055.316s.339,1.575-.316,2.055l-3.987,2.923-3.716,2.722c-3.101,2.274-7.527,1.509-9.885-1.708-.745-1.017-1.193-2.157-1.362-3.312,0-.002-.002-.004-.002-.007-.124-.527-.115-1.16-.026-1.834.037-.332.096-.66.179-.982.557-2.465,1.866-5.077,1.866-5.077l1.734-3.427c.367-.725,1.251-1.015,1.976-.648Z" fill="#ffa01d"/>
  </g>
</svg>