<?xml version="1.0" encoding="UTF-8"?><svg id="Layer_1" xmlns="http://www.w3.org/2000/svg" viewBox="0 0 40 40"><rect width="40" height="40" style="fill:none;"/><g><path d="M10.72154,9.95724l-2.79579,3.29913c-.70773,.83514-1.09616,1.89432-1.09616,2.989v15.0122c0,3.0277,2.45443,5.48213,5.48213,5.48213h15.37655c3.0277,0,5.48213-2.45443,5.48213-5.48213v-15.0122c0-1.09469-.38843-2.15386-1.09616-2.989l-2.79579-3.29913H10.72154Z" style="fill:#d3dde8;"/><path d="M10.85819,3.26029H29.14181c.94323,0,1.70902,.76579,1.70902,1.70902v4.85096c0,.4426-.35934,.80194-.80194,.80194H9.95111c-.4426,0-.80194-.35934-.80194-.80194V4.96931c0-.94323,.76579-1.70902,1.70902-1.70902Z" style="fill:#959fa6;"/></g></svg>