<?xml version="1.0" encoding="UTF-8"?><svg id="Layer_1" xmlns="http://www.w3.org/2000/svg" viewBox="0 0 40 40"><rect width="40" height="40" transform="translate(40 40) rotate(-180)" fill="none"/><g><path d="m4.392,6.545h31.216c1.045,0,1.892.847,1.892,1.892v23.125c0,1.045-.847,1.892-1.892,1.892H4.392c-1.045,0-1.892-.847-1.892-1.892V8.437c0-1.045.847-1.892,1.892-1.892Z" fill="#cbe0fb"/><g><circle cx="13.378" cy="16.468" r="3.036" fill="#5792f2"/><path d="m13.378,20.824c4.154,0,5.752,2.876,5.752,4.154,0,1.278-3.355,1.598-5.752,1.598s-5.752-.32-5.752-1.598c0-1.438,1.598-4.154,5.752-4.154Z" fill="#5792f2"/></g><path d="m31.669,16.58h-9.148c-.536,0-.972-.435-.972-.972s.436-.972.972-.972h9.148c.536,0,.972.435.972.972s-.436.972-.972.972Z" fill="#93c3f9"/><path d="m31.669,20.972h-6.203c-.536,0-.972-.435-.972-.972s.436-.972.972-.972h6.203c.536,0,.972.435.972.972s-.436.972-.972.972Z" fill="#93c3f9"/><path d="m31.669,25.364h-6.203c-.536,0-.972-.435-.972-.972s.436-.972.972-.972h6.203c.536,0,.972.435.972.972s-.436.972-.972.972Z" fill="#93c3f9"/></g></svg>