<?xml version="1.0" encoding="UTF-8"?><svg id="Layer_1" xmlns="http://www.w3.org/2000/svg" viewBox="0 0 40 40"><g><g><path d="M32.66309,23.77783c1.03662-1.06006,1.63599-2.25513,1.63599-3.51172,0-3.99438-5.97723-7.38477-13.2453-7.65332,.37244,2.47559,1.3833,4.61499,2.74591,6.08008,4.24042,.71631,7.58978,2.63794,8.8634,5.08496Z" style="fill:#eee9e3;"/><path d="M5.96313,20.26611c0,1.25659,.59935,2.45166,1.63605,3.51172,1.32373-2.54346,4.89197-4.51587,9.37-5.1604,1.33575-1.46094,2.30219-3.61646,2.66327-6.01685-7.45837,.14941-13.66931,3.59375-13.66931,7.66553Z" style="fill:#eee9e3;"/></g><path d="M20.13116,29.85889c-9.12897,0-16.53009-4.27881-16.55847-9.56274l-.00269-.00732v3.67432c0,9.14648,7.41467,14.80347,16.5611,14.80347h.00006c9.14642,0,16.5611-5.65698,16.5611-14.80347v-3.67432l-.00262,.00708c-.02826,5.28418-7.4295,9.56299-16.55847,9.56299Z" style="fill:#d12030;"/><path d="M21.87463,10.93994s-.789,.3374-.86365,1.44482c.01038,.07812,.03113,.15063,.04279,.22803,7.26807,.26855,13.2453,3.65894,13.2453,7.65332,0,1.25659-.59937,2.45166-1.63599,3.51172-2.39764,2.45142-7.17023,4.16797-12.53192,4.16797s-10.13434-1.71655-12.53198-4.16797c-1.03669-1.06006-1.63605-2.25513-1.63605-3.51172,0-4.07178,6.21094-7.51611,13.66931-7.66553,.0188-.12476,.04065-.24854,.05609-.37451-.00781-.55127-.09253-1.10571-.17792-1.53442-8.85657,.19067-15.94055,4.39795-15.94055,9.57446,0,.01025,.00256,.02002,.00262,.03003,.02838,5.28394,7.4295,9.56274,16.55847,9.56274s16.53021-4.27881,16.55847-9.56299c.00006-.01001,.00262-.01978,.00262-.02979,0-4.85107-6.22278-8.85059-14.29346-9.49219l-.52423,.16602h.00006Z" style="fill:#f56570;"/><path d="M36.65997,6.07007l-7.31,1.65991c-.35999,.08008-.72998-.12988-.83997-.47998l-.12-.37012-5.23999,1.66016-.21002-.6499,5.25-1.66016-.16998-.52002c-.11005-.35986,.07001-.73999,.40997-.87988l6.92999-2.86011c.39001-.15991,.83002,.05005,.96002,.44995l.87,2.73999c.12,.40015-.12,.82007-.53003,.91016Z" style="fill:#6e4a22;"/><path d="M32.65997,23.78003c-2.38995,2.44995-7.16998,4.16992-12.52997,4.16992s-10.13-1.71997-12.53003-4.16992c1.32001-2.55005,4.89001-4.52002,9.37-5.15991,1.33002-1.46021,2.30005-3.62012,2.66003-6.02002,.02002-.12012,.03998-.25,.06-.37012-.01001-.56006-.09003-1.10986-.17999-1.54004-.09003-.45996-.17999-.77002-.17999-.77002l-.37-1.1499c-.17999-.58008,.13995-1.20996,.72998-1.39014l1.73999-.55981c.59003-.17993,1.22003,.13989,1.40002,.72998l.10999,.34009,.21002,.6499,.23999,.75c.17999,.58984-.14001,1.20996-.73004,1.3999l-.25995,.08008-.53003,.16992s-.77997,.34009-.85999,1.43994c.01001,.08008,.02997,.16016,.03998,.22998,.38,2.47998,1.39001,4.62012,2.75,6.08008,4.23999,.71997,7.59003,2.64014,8.85999,5.09009Z" style="fill:#ffcd50;"/></g><rect x="0" y="1" width="40" height="40" transform="translate(40 42) rotate(-180)" style="fill:none;"/></svg>