<?xml version="1.0" encoding="UTF-8"?><svg id="Layer_1" xmlns="http://www.w3.org/2000/svg" viewBox="0 0 40 40"><rect width="40" height="40" fill="none"/><g><path d="m10.722,9.957l-2.796,3.299c-.708.835-1.096,1.894-1.096,2.989v15.012c0,3.028,2.454,5.482,5.482,5.482h15.377c3.028,0,5.482-2.454,5.482-5.482v-15.012c0-1.095-.388-2.154-1.096-2.989l-2.796-3.299H10.722Z" fill="#d3dde8"/><path d="m10.858,3.26h18.284c.943,0,1.709.766,1.709,1.709v4.851c0,.443-.359.802-.802.802H9.951c-.443,0-.802-.359-.802-.802v-4.851c0-.943.766-1.709,1.709-1.709Z" fill="#959fa6"/></g></svg>