<?xml version="1.0" encoding="UTF-8"?><svg id="Layer_1" xmlns="http://www.w3.org/2000/svg" viewBox="0 0 40 40"><rect width="40" height="40" fill="none"/><g><path d="m16.08,24.597c3.381.321,6.876-.217,11.257-1.106,1.685-1.918,3.419-4.351,4.957-7.083-1.45-.165-2.882-.553-4.419-1.256,1.657.157,3.344.104,5.146-.091,2.214-4.255,3.887-9.08,4.147-13.684-7.691.433-16.007,4.799-21.223,9.073-.316,2.277-.444,4.357-.251,6.386-.8-1.75-1.193-3.363-1.31-5.022-.233.217-.468.435-.681.649-4.968,4.976-4.811,9.111-5.293,17.673,8.018-.452,12.155-.344,16.735-4.408-3.279.443-5.955.29-9.063-1.131Z" fill="#95bbfb"/><path d="m2.832,38.623c5.804-11.754,15.095-23.209,26.498-31.579L2.832,38.623Z" fill="#c4d7f9"/></g></svg>