<?xml version="1.0" encoding="UTF-8"?><svg id="Layer_1" xmlns="http://www.w3.org/2000/svg" viewBox="0 0 40 40"><g><path d="m11.983,13.97c2.646.813,4.398,3.319,5.241,4.823.37.66.116,1.487-.561,1.826-1.543.772-4.399,1.863-7.045,1.051-2.646-.813-4.398-3.319-5.241-4.823-.37-.66-.116-1.487.561-1.826,1.543-.772,4.399-1.863,7.045-1.051Z" fill="#0a9f60"/><path d="m27.517,9.135c2.663-1.492,5.995-.98,7.838-.507.808.207,1.274,1.04,1.029,1.837-.559,1.818-1.863,4.927-4.526,6.419-2.663,1.492-5.995.98-7.838.507-.808-.207-1.274-1.04-1.029-1.837.559-1.818,1.863-4.927,4.526-6.419Z" fill="#0a9f60"/><path d="m21.305,5.75c1.917,4.164-.671,9.446-.671,9.446,0,0-5.695-1.47-7.611-5.634-1.311-2.849-.515-6.22.12-8.066.277-.807,1.164-1.215,1.957-.901,1.815.719,4.894,2.307,6.205,5.155Z" fill="#0a9f60"/><rect x="19.78" y="14.023" width="1.062" height="10.905" fill="#0a9f60"/><rect x="18.067" y="18.434" width="1.062" height="3.441" transform="translate(-5.974 32.333) rotate(-73.664)" fill="#0a9f60"/><rect x="20.024" y="16.813" width="3.807" height="1.063" transform="translate(-5.856 14.225) rotate(-31.938)" fill="#0a9f60"/><path d="m27.334,38.664h-14.044c-.547,0-1.016-.389-1.117-.926l-2.138-11.336h20.555l-2.138,11.336c-.101.537-.571.926-1.117.926Z" fill="#6e483d"/><rect x="8.076" y="23.441" width="24.471" height="4.093" rx="1.212" ry="1.212" fill="#86584a"/></g><rect y="0" width="40" height="40" fill="none"/></svg>