<?xml version="1.0" encoding="UTF-8"?><svg id="Layer_1" xmlns="http://www.w3.org/2000/svg" viewBox="0 0 40 40"><g><path d="m34.394,4.288c-.514-.514-1.577-.28-3.428,1.571-.049.049-.097.104-.146.154.256.157.513.314.739.478.484.351.921.747,1.335,1.163,1.785-1.807,2.008-2.858,1.5-3.366Z" fill="none"/><path d="m30.788,7.551c-.26-.189-.55-.376-.864-.557-1.451,1.688-2.648,3.578-2.231,3.995.437.437,2.501-.894,4.248-2.438-.358-.356-.735-.697-1.152-.999Z" fill="none"/><path d="m32.91,9.67c1.127,1.528,1.798,3.361,1.889,5.313.179,3.882-1.876,7.91-5.788,11.343-8.438,7.407-9.808,11.142-9.863,11.296-.119.34.06.711.399.832.073.026.147.037.219.037.268,0,.521-.166.618-.432.013-.036,1.391-3.637,9.492-10.748,4.217-3.701,6.43-8.102,6.232-12.389-.104-2.255-.893-4.368-2.214-6.12l-.985.867Z" fill="#2f81f9"/><path d="m31.558,6.491c-.226-.164-.483-.321-.739-.478-.423-.259-.873-.51-1.371-.736-2.44-1.111-5.713-1.727-9.216-.846-3.338.84-8.085,3.427-11.739,10.991-.158.325-.021.718.305.875.329.159.719.021.875-.305,2.719-5.625,6.48-9.183,10.879-10.289,2.991-.751,5.824-.26,7.972.624.502.207.981.428,1.399.668.315.181.604.368.864.557.417.303.794.643,1.152.999.309-.273.611-.551.889-.829.024-.024.041-.045.064-.068-.414-.415-.851-.811-1.335-1.163Z" fill="#2f81f9"/><path d="m35.958,2.724c-1.182-1.182-3.464-.9-6.037,2.016l-.472.536c.498.227.947.477,1.371.736.049-.05.097-.105.146-.154,1.851-1.85,2.913-2.085,3.428-1.571.508.508.285,1.559-1.5,3.366-.023.024-.04.044-.064.068-.278.278-.58.556-.889.829-1.747,1.544-3.811,2.876-4.248,2.438-.417-.417.78-2.307,2.231-3.995-.419-.24-.897-.461-1.399-.668L2.649,35.72c-.249.282.031.563.313.313l29.948-26.363.985-.867.048-.042c2.669-2.348,3.198-4.855,2.016-6.037Z" fill="#6b7683"/></g><rect width="40" height="40" fill="none"/></svg>