<svg id="Layer_1" data-name="Layer 1" xmlns="http://www.w3.org/2000/svg" viewBox="0 0 40 40"><defs><style>.cls-1{fill:#5a81ff;}.cls-2{fill:none;}</style></defs><path class="cls-1" d="M30.819,27.826l-2.238-4.378a6.991,6.991,0,0,1-.6-4.693l2.237-10.1a2.492,2.492,0,0,0-.149-1.538L27.812,1.951a.752.752,0,0,0-.689-.451h-1.1a.637.637,0,0,0-.631.623C25.21,7.045,22.865,10.937,20,10.937s-5.21-3.892-5.394-8.814a.637.637,0,0,0-.631-.623h-1.1a.752.752,0,0,0-.689.451L9.933,7.116a2.492,2.492,0,0,0-.149,1.538l2.237,10.1a6.991,6.991,0,0,1-.6,4.693L9.181,27.826a1.908,1.908,0,0,0,.381,2.25l8.112,7.743a2.461,2.461,0,0,0,1.7.681h1.254a2.461,2.461,0,0,0,1.7-.681l8.112-7.743A1.908,1.908,0,0,0,30.819,27.826Z"/><rect class="cls-2" width="40" height="40"/></svg>