<svg id="Layer_1" data-name="Layer 1" xmlns="http://www.w3.org/2000/svg" viewBox="0 0 40 40"><defs><style>.cls-1,.cls-3{fill:none;}.cls-1{stroke:#ef4452;stroke-linecap:round;stroke-miterlimit:10;stroke-width:5px;}.cls-2{fill:#ef4452;}</style></defs><path class="cls-1" d="M20.038,12.028a6.437,6.437,0,0,1,6.408-6.449c3.538,0,7.4,2.821,6.407,7.154-1.046,4.584-6.407,4.54-6.407,9.583h0"/><path class="cls-2" d="M26.478,27.472a3.592,3.592,0,1,0,3.569,3.592,3.58,3.58,0,0,0-3.569-3.592Z"/><path class="cls-2" d="M10.558,27.472a3.592,3.592,0,1,0,3.569,3.592,3.58,3.58,0,0,0-3.569-3.592Z"/><line class="cls-1" x1="10.558" y1="5.936" x2="10.558" y2="21.058"/><rect class="cls-3" width="40" height="40"/></svg>