<?xml version="1.0" encoding="UTF-8"?><svg id="Layer_1" xmlns="http://www.w3.org/2000/svg" viewBox="0 0 40 40"><g><g><path d="m26.446,24.815c-1.381,0-2.5-1.119-2.5-2.5,0-3.907,2.356-5.798,4.076-7.178,1.343-1.078,2.117-1.747,2.394-2.96.225-.984.055-1.812-.52-2.533-.746-.936-2.132-1.564-3.45-1.564-1.717,0-3.216,1.11-3.729,2.764-.119.381-.179.78-.179,1.185,0,1.381-1.119,2.5-2.5,2.5s-2.5-1.119-2.5-2.5c0-.909.136-1.806.403-2.668,1.167-3.756,4.584-6.28,8.504-6.28,2.844,0,5.663,1.321,7.359,3.446,1.519,1.904,2.046,4.306,1.486,6.763-.678,2.971-2.597,4.511-4.14,5.748-1.568,1.259-2.205,1.828-2.205,3.278,0,1.381-1.119,2.5-2.5,2.5Z" fill="#ef4452"/><path d="m26.478,27.472c-1.971,0-3.569,1.608-3.569,3.592s1.598,3.592,3.569,3.592,3.569-1.608,3.569-3.592-1.598-3.592-3.569-3.592h0Z" fill="#ef4452"/></g><g><path d="m10.558,27.472c-1.971,0-3.569,1.608-3.569,3.592s1.598,3.592,3.569,3.592,3.569-1.608,3.569-3.592-1.598-3.592-3.569-3.592h0Z" fill="#ef4452"/><path d="m10.559,23.558c-1.381,0-2.5-1.119-2.5-2.5V5.936c0-1.381,1.119-2.5,2.5-2.5s2.5,1.119,2.5,2.5v15.122c0,1.381-1.119,2.5-2.5,2.5Z" fill="#ef4452"/></g></g><rect width="40" height="40" fill="none"/></svg>