<?xml version="1.0" encoding="UTF-8"?><svg id="a" xmlns="http://www.w3.org/2000/svg" viewBox="0 0 40 40"><g><g><path d="M20.038,12.028c0-.671,.102-1.318,.291-1.927,.814-2.621,3.245-4.522,6.117-4.522,3.539,0,7.396,2.82,6.407,7.154-1.046,4.584-6.407,4.54-6.407,9.583h0" fill="none" stroke="#ef4452" stroke-linecap="round" stroke-miterlimit="10" stroke-width="5"/><path d="M26.478,27.472c-1.971,0-3.569,1.608-3.569,3.592s1.598,3.592,3.569,3.592,3.569-1.608,3.569-3.592-1.598-3.592-3.569-3.592h0Z" fill="#ef4452"/></g><g><path d="M10.558,27.472c-1.971,0-3.569,1.608-3.569,3.592s1.598,3.592,3.569,3.592,3.569-1.608,3.569-3.592-1.598-3.592-3.569-3.592h0Z" fill="#ef4452"/><line x1="10.558" y1="5.936" x2="10.558" y2="21.058" fill="none" stroke="#ef4452" stroke-linecap="round" stroke-miterlimit="10" stroke-width="5"/></g></g><rect width="40" height="40" fill="none"/></svg>