<?xml version="1.0" encoding="UTF-8"?><svg id="Layer_1" xmlns="http://www.w3.org/2000/svg" viewBox="0 0 40 40"><g><rect x="8.1" y="8.1" width="23.8" height="23.8" rx="3.915" ry="3.915" fill="none"/><path d="m27.985,4.5h-15.97c-4.151,0-7.515,3.365-7.515,7.515v15.97c0,4.151,3.365,7.515,7.515,7.515h15.97c4.151,0,7.515-3.365,7.515-7.515v-15.97c0-4.151-3.365-7.515-7.515-7.515Zm3.915,23.485c0,2.159-1.756,3.915-3.915,3.915h-15.97c-2.159,0-3.915-1.756-3.915-3.915v-15.97c0-2.159,1.756-3.915,3.915-3.915h15.97c2.159,0,3.915,1.756,3.915,3.915v15.97Z" fill="#afb7c0"/></g><rect width="40" height="40" fill="none"/></svg>