<?xml version="1.0" encoding="UTF-8"?><svg id="Layer_1" xmlns="http://www.w3.org/2000/svg" viewBox="0 0 40 40"><rect x="0" y="0" width="40" height="40" transform="translate(40 40) rotate(-180)" fill="none"/><rect x="3.5" y="3.5" width="33" height="33" rx="8" ry="8" fill="#e5e8eb"/><path d="m28.545,15.569v11.709c0,.7-.567,1.267-1.267,1.267h-11.709c-.582,0-.874-.704-.462-1.116l2.863-2.863c.284-.284.284-.745,0-1.029l-6.333-6.333c-.241-.241-.241-.632,0-.874l4.693-4.693c.241-.241.632-.241.874,0l6.333,6.333c.284.284.745.284,1.029,0l2.863-2.863c.412-.412,1.116-.12,1.116.462Z" fill="#313d4c"/></svg>