<svg id="Layer_1" data-name="Layer 1" xmlns="http://www.w3.org/2000/svg" viewBox="0 0 40 40"><defs><style>.cls-1{fill:none;}.cls-2{fill:#e5e8eb;}.cls-3{fill:#313d4c;}</style></defs><rect class="cls-1" width="40" height="40" transform="translate(40 40) rotate(-180)"/><rect class="cls-1" width="40" height="40" transform="translate(40 40) rotate(-180)"/><rect class="cls-2" x="3.5" y="3.5" width="33" height="33" rx="8"/><path class="cls-3" d="M28.545,24.431V12.722a1.267,1.267,0,0,0-1.267-1.267H15.569a.654.654,0,0,0-.462,1.116l2.863,2.863a.728.728,0,0,1,0,1.029L11.636,22.8a.617.617,0,0,0,0,.873l4.694,4.694a.617.617,0,0,0,.873,0l6.334-6.334a.728.728,0,0,1,1.029,0l2.863,2.863A.654.654,0,0,0,28.545,24.431Z"/></svg>