<svg id="Layer_1" data-name="Layer 1" xmlns="http://www.w3.org/2000/svg" viewBox="0 0 40 40"><defs><style>.cls-1{fill:#e5e8eb;}.cls-2{fill:#313d4c;}.cls-3{fill:none;}</style></defs><rect class="cls-1" x="3.5" y="3.5" width="33" height="33" rx="8" transform="translate(40 40) rotate(-180)"/><path class="cls-2" d="M22.287,11.374H11.623a.536.536,0,0,0-.536.536v3.418a.536.536,0,0,0,.536.537H22.7a2.5,2.5,0,0,1,2.067,1.086,3.229,3.229,0,0,1-2.475,5.243H15.929v4.49h6.358a7.655,7.655,0,0,0,0-15.31Z"/><path class="cls-2" d="M11.47,23.734l6.29-4.564a.734.734,0,0,1,1.164.594v9.127a.734.734,0,0,1-1.164.594l-6.29-4.564A.734.734,0,0,1,11.47,23.734Z"/><rect class="cls-3" width="40" height="40" transform="translate(40 40) rotate(-180)"/></svg>