<?xml version="1.0" encoding="UTF-8"?><svg id="a" xmlns="http://www.w3.org/2000/svg" viewBox="0 0 40 40"><rect x="3.5" y="3.5" width="33" height="33" rx="8" ry="8" transform="translate(40 40) rotate(-180)" fill="#e5e8eb"/><path d="M29.91,19.03c0,4.22-3.42,7.65-7.62,7.65h-3.37v2.21c0,.6-.68,.95-1.16,.59l-6.29-4.56c-.4-.29-.4-.89,0-1.19l6.29-4.56c.48-.35,1.16-.01,1.16,.59v2.43h3.37c2.4,0,4.18-2.71,2.47-5.24-.46-.68-1.24-1.09-2.06-1.09H11.62c-.29,0-.53-.24-.53-.53v-3.42c0-.3,.24-.54,.53-.54h10.67c4.2,0,7.62,3.44,7.62,7.66Z" fill="#313d4c"/><rect x="0" y="0" width="40" height="40" transform="translate(40 40) rotate(-180)" fill="none"/></svg>