<?xml version="1.0" encoding="UTF-8"?><svg id="Layer_1" xmlns="http://www.w3.org/2000/svg" viewBox="0 0 40 40"><rect x="3.5" y="3.5" width="33" height="33" rx="8" ry="8" fill="#e5e8eb"/><path d="m15.24,16.95c-1.71,2.53.07,5.24,2.47,5.24h3.37v-2.43c0-.6.68-.94,1.16-.59l6.29,4.56c.4.3.4.9,0,1.19l-6.29,4.56c-.48.36-1.16.01-1.16-.59v-2.21h-3.37c-4.2,0-7.62-3.43-7.62-7.65s3.42-7.66,7.62-7.66h10.67c.29,0,.53.24.53.54v3.42c0,.29-.24.53-.53.53h-11.08c-.82,0-1.6.41-2.06,1.09Z" fill="#313d4c"/><rect y="0" width="40" height="40" transform="translate(40 40) rotate(-180)" fill="none"/></svg>