<svg id="Layer_1" data-name="Layer 1" xmlns="http://www.w3.org/2000/svg" viewBox="0 0 40 40"><defs><style>.cls-1,.cls-5,.cls-6{fill:none;}.cls-2{fill:#007ff3;}.cls-3{fill:#b6d6ff;}.cls-4{fill:#313d4c;}.cls-5{stroke:#3182f6;}.cls-5,.cls-6{stroke-linecap:round;stroke-miterlimit:10;stroke-width:2.5px;}.cls-6{stroke:#313d4c;}</style></defs><rect class="cls-1" width="40" height="40"/><path class="cls-2" d="M28.252,7.675,27.2,3.581A4.105,4.105,0,0,0,23.22.5H16.78a4.105,4.105,0,0,0-3.975,3.078L11.748,7.675"/><path class="cls-2" d="M28.252,32.33,27.2,36.424A4.1,4.1,0,0,1,23.22,39.5H16.78a4.1,4.1,0,0,1-3.975-3.079L11.748,32.33"/><rect class="cls-3" x="8.346" y="8.345" width="23.309" height="23.309" rx="4.518"/><path class="cls-4" d="M27.137,9.6A3.271,3.271,0,0,1,30.4,12.863V27.136A3.271,3.271,0,0,1,27.137,30.4H12.863A3.271,3.271,0,0,1,9.6,27.136V12.863A3.271,3.271,0,0,1,12.863,9.6H27.137m0-2.5H12.863A5.767,5.767,0,0,0,7.1,12.863V27.136A5.767,5.767,0,0,0,12.863,32.9H27.137A5.767,5.767,0,0,0,32.9,27.136V12.863A5.767,5.767,0,0,0,27.137,7.1Z"/><line class="cls-5" x1="20" y1="20" x2="16.467" y2="16.509"/><line class="cls-6" x1="25.165" y1="14.834" x2="20" y2="20"/></svg>