<svg id="Layer_1" data-name="Layer 1" xmlns="http://www.w3.org/2000/svg" viewBox="0 0 40 40"><defs><style>.cls-1{fill:#e5e8eb;}.cls-2{fill:#313d4c;}.cls-3{fill:none;}</style></defs><rect class="cls-1" x="3.5" y="3.5" width="33" height="33" rx="8"/><path class="cls-2" d="M21.133,19.168,12.858,13.2a1.026,1.026,0,0,0-1.627.832V25.972a1.026,1.026,0,0,0,1.627.832l8.275-5.972A1.025,1.025,0,0,0,21.133,19.168Z"/><path class="cls-2" d="M30.343,19.168,22.068,13.2a1.026,1.026,0,0,0-1.627.832V25.972a1.026,1.026,0,0,0,1.627.832l8.275-5.972A1.025,1.025,0,0,0,30.343,19.168Z"/><rect class="cls-3" width="40" height="40"/></svg>