<?xml version="1.0" encoding="UTF-8"?><svg id="Layer_1" xmlns="http://www.w3.org/2000/svg" viewBox="0 0 40 40"><rect x="3.5" y="3.5" width="33" height="33" rx="8" ry="8" transform="translate(0 40) rotate(-90)" fill="#e5e8eb"/><g><path d="m19.168,18.867l-5.972,8.275c-.49.679-.005,1.627.832,1.627h11.943c.837,0,1.322-.948.832-1.627l-5.972-8.275c-.41-.568-1.255-.568-1.665,0Z" fill="#313d4c"/><path d="m19.168,9.657l-5.972,8.275c-.49.679-.005,1.627.832,1.627h11.943c.837,0,1.322-.948.832-1.627l-5.972-8.275c-.41-.568-1.255-.568-1.665,0Z" fill="#313d4c"/></g><rect width="40" height="40" fill="none"/></svg>