<svg id="Layer_1" data-name="Layer 1" xmlns="http://www.w3.org/2000/svg" viewBox="0 0 40 40"><defs><style>.cls-1{fill:#e5e8eb;}.cls-2{fill:#313d4c;}.cls-3{fill:none;}</style></defs><rect class="cls-1" x="3.5" y="3.5" width="33" height="33" rx="8" transform="translate(0 40) rotate(-90)"/><path class="cls-2" d="M19.168,18.867,13.2,27.142a1.026,1.026,0,0,0,.832,1.627H25.972a1.026,1.026,0,0,0,.832-1.627l-5.972-8.275A1.025,1.025,0,0,0,19.168,18.867Z"/><path class="cls-2" d="M19.168,9.657,13.2,17.932a1.026,1.026,0,0,0,.832,1.627H25.972a1.026,1.026,0,0,0,.832-1.627L20.832,9.657A1.025,1.025,0,0,0,19.168,9.657Z"/><rect class="cls-3" width="40" height="40"/></svg>