<?xml version="1.0" encoding="UTF-8"?><svg id="Layer_1" xmlns="http://www.w3.org/2000/svg" viewBox="0 0 40 40"><g><g><path d="m28.8,19.065c-.18.202-.433.341-.733.356l-16.83.851c-.278.014-.526-.079-.719-.236-2.331,2.267-3.92,5.328-4.304,8.738-.367,3.258.338,6.323,1.792,8.891.624,1.102,1.794,1.763,3.039,1.763h18.331c1.246,0,2.415-.661,3.039-1.764,1.198-2.116,1.887-4.57,1.887-7.191,0-4.648-2.16-8.772-5.501-11.408Zm-7.991,14.877c-.687,0-1.244-.57-1.244-1.272s.557-1.272,1.244-1.272,1.244.57,1.244,1.272-.557,1.272-1.244,1.272Zm0-6.207c-.687,0-1.244-.57-1.244-1.272s.557-1.272,1.244-1.272,1.244.57,1.244,1.272-.557,1.272-1.244,1.272Z" fill="#e5e8eb"/><path d="m24.701,13.598c.378-.058.754-.046,1.112.026.543-1.127.856-2.391.856-3.732,0-4.678-3.708-8.47-8.281-8.47s-8.281,3.792-8.281,8.47c0,2.227.847,4.248,2.222,5.76.283-.138.583-.245.903-.294l11.471-1.76Zm-4.969-8.806c.486,0,.88.403.88.9s-.394.899-.88.899-.88-.403-.88-.899.394-.9.88-.9Zm-.271,2.711l-.003-.005,4.737-1.17c.297-.073.5.293.281.506l-3.47,3.378-.002-.003c-.373.404-.942.617-1.555.466-.56-.138-1.02-.605-1.157-1.177-.225-.942.349-1.789,1.168-1.996Zm-2.705-1.708c.486,0,.88.403.88.899s-.394.9-.88.9-.88-.403-.88-.9.394-.899.88-.899Z" fill="#e5e8eb"/></g><g><path d="m16.755,7.595c.486,0,.88-.403.88-.9s-.394-.899-.88-.899-.88.403-.88.899.394.9.88.9Z"/><path d="m19.731,6.592c.486,0,.88-.403.88-.899s-.394-.9-.88-.9-.88.403-.88.9.394.899.88.899Z"/><path d="m20.809,25.191c-.687,0-1.244.57-1.244,1.272s.557,1.272,1.244,1.272,1.244-.57,1.244-1.272-.557-1.272-1.244-1.272Z"/><path d="m20.809,31.397c-.687,0-1.244.57-1.244,1.272s.557,1.272,1.244,1.272,1.244-.57,1.244-1.272-.557-1.272-1.244-1.272Z"/></g><g><path d="m19.449,10.676c.614.151,1.182-.062,1.555-.466l.002.003,3.47-3.378c.219-.213.016-.58-.281-.506l-4.737,1.17.003.005c-.819.207-1.393,1.053-1.168,1.996.136.572.597,1.039,1.157,1.177Z" fill="#fc2d4c"/><path d="m28.067,19.421c.3-.015.553-.155.733-.356.246-.276.351-.673.214-1.06l-.829-2.327c-.384-1.078-1.301-1.838-2.372-2.054-.358-.072-.733-.084-1.112-.026l-11.471,1.76c-.32.049-.62.156-.903.294-.725.352-1.307.962-1.597,1.739l-.542,1.448c-.17.455-.007.924.329,1.197.193.156.441.25.719.236l16.83-.851Z" fill="#fc2d4c"/></g></g><path d="m34.82,10.18c-.11.19-.31.3-.52.3-.1,0-.2-.03-.3-.08l-1.1-.64v1.27c0,.34-.27.6-.6.6s-.6-.26-.6-.6v-1.27l-1.1.64c-.09.05-.2.08-.3.08-.21,0-.41-.11-.52-.3-.16-.29-.07-.65.22-.82l1.1-.63-1.1-.64c-.29-.17-.38-.53-.22-.82.17-.29.53-.39.82-.22l1.1.64v-1.27c0-.34.27-.6.6-.6s.6.26.6.6v1.27l1.1-.64c.29-.16.66-.07.82.22.17.29.07.65-.22.82l-1.1.64,1.1.63c.29.17.39.53.22.82Z" fill="#a8bfff"/><path d="m38.82,19.18c-.11.19-.31.3-.52.3-.1,0-.2-.03-.3-.08l-1.1-.64v1.27c0,.34-.27.6-.6.6s-.6-.26-.6-.6v-1.27l-1.1.64c-.09.05-.2.08-.3.08-.21,0-.41-.11-.52-.3-.16-.29-.07-.65.22-.82l1.1-.63-1.1-.64c-.29-.17-.38-.53-.22-.82.17-.29.53-.39.82-.22l1.1.64v-1.27c0-.34.27-.6.6-.6s.6.26.6.6v1.27l1.1-.64c.29-.16.65-.07.82.22s.07.65-.22.82l-1.1.64,1.1.63c.29.17.39.53.22.82Z" fill="#a8bfff"/><path d="m7.82,18.18c-.11.19-.31.3-.52.3-.1,0-.2-.03-.3-.08l-1.1-.64v1.27c0,.34-.27.6-.6.6s-.6-.26-.6-.6v-1.27l-1.1.64c-.09.05-.2.08-.3.08-.21,0-.41-.11-.52-.3-.16-.29-.07-.65.22-.82l1.1-.63-1.1-.64c-.29-.17-.38-.53-.22-.82.17-.29.53-.39.82-.22l1.1.64v-1.27c0-.34.27-.6.6-.6s.6.26.6.6v1.27l1.1-.64c.29-.16.66-.07.82.22.17.29.07.65-.22.82l-1.1.64,1.1.63c.29.17.39.53.22.82Z" fill="#a8bfff"/></svg>