<?xml version="1.0" encoding="UTF-8"?><svg id="a" xmlns="http://www.w3.org/2000/svg" viewBox="0 0 40 40"><rect y="0" width="40" height="40" transform="translate(40 40) rotate(-180)" fill="none"/><g><g><path d="M21.25,4.117v-.247c0-.69-.56-1.25-1.25-1.25s-1.25,.56-1.25,1.25v.247c.415-.028,.828-.059,1.25-.059s.835,.032,1.25,.059Z" fill="#4b596a"/><path d="M21.25,32.5c0,.03-.02,.06-.02,.09,0,.04,.02,.06,.02,.1,0,2.49-2.03,4.51-4.51,4.51s-4.52-2.02-4.52-4.51c0-.69,.56-1.25,1.25-1.25s1.25,.56,1.25,1.25c0,1.11,.9,2.01,2.02,2.01,1.11,0,2.01-.9,2.01-2.01,0-.04,.02-.06,.02-.1,0-.03-.02-.06-.02-.09v-9.86h2.5v9.86Z" fill="#4b596a"/></g><g><path d="M20,4.057c-.422,0-.835,.032-1.25,.059C9.69,4.721,2.402,11.8,1.508,20.778c-.099,.996,.691,1.863,1.691,1.863H7.5c0-10.264,5.596-18.584,12.5-18.584Z" fill="#2f81f9"/><path d="M21.25,4.117c-.415-.028-.828-.059-1.25-.059,6.904,0,12.5,8.32,12.5,18.584h4.3c1,0,1.79-.867,1.691-1.863-.894-8.978-8.182-16.057-17.242-16.661Z" fill="#2f81f9"/></g><g><path d="M20,4.057c-6.904,0-12.5,8.32-12.5,18.584h7c0-10.264,2.462-18.584,5.5-18.584Z" fill="#64a7ff"/><path d="M20,4.057c3.038,0,5.5,8.32,5.5,18.584h7c0-10.264-5.596-18.584-12.5-18.584Z" fill="#64a7ff"/></g><path d="M20,4.057c-3.038,0-5.5,8.32-5.5,18.584h11c0-10.264-2.462-18.584-5.5-18.584Z" fill="#2f81f9"/></g></svg>