<svg id="Layer_1" data-name="Layer 1" xmlns="http://www.w3.org/2000/svg" viewBox="0 0 40 40"><defs><style>.cls-1{fill:#ffcd00;}.cls-2{fill:#fa0;}.cls-3{fill:none;}</style></defs><path class="cls-1" d="M35.013,23.447l2.661-2.661a1.11,1.11,0,0,0,0-1.572l-2.661-2.661a1.114,1.114,0,0,1-.288-1.074l.974-3.635a1.112,1.112,0,0,0-.786-1.362l-3.635-.974a1.114,1.114,0,0,1-.786-.786l-.974-3.635A1.112,1.112,0,0,0,28.156,4.3l-3.635.974a1.111,1.111,0,0,1-1.074-.287L20.786,2.326a1.11,1.11,0,0,0-1.572,0L16.553,4.987a1.111,1.111,0,0,1-1.074.287L11.844,4.3a1.112,1.112,0,0,0-1.362.787L9.508,8.722a1.114,1.114,0,0,1-.786.786l-3.635.974A1.112,1.112,0,0,0,4.3,11.844l.974,3.635a1.111,1.111,0,0,1-.287,1.074L2.326,19.214a1.11,1.11,0,0,0,0,1.572l2.661,2.661a1.111,1.111,0,0,1,.287,1.074L4.3,28.156a1.112,1.112,0,0,0,.787,1.362l3.635.974a1.114,1.114,0,0,1,.786.786l.974,3.635a1.112,1.112,0,0,0,1.362.786l3.635-.974a1.114,1.114,0,0,1,1.074.288l2.661,2.661a1.11,1.11,0,0,0,1.572,0l2.661-2.661a1.114,1.114,0,0,1,1.074-.288l3.635.974a1.112,1.112,0,0,0,1.362-.786l.974-3.635a1.114,1.114,0,0,1,.786-.786l3.635-.974a1.112,1.112,0,0,0,.786-1.362l-.974-3.635A1.114,1.114,0,0,1,35.013,23.447Z"/><circle class="cls-2" cx="20" cy="20.082" r="10.492"/><rect class="cls-3" width="40" height="40" transform="translate(40 40) rotate(-180)"/><rect class="cls-3" width="40" height="40" transform="translate(40 40) rotate(-180)"/></svg>