<?xml version="1.0" encoding="UTF-8"?><svg id="Layer_1" xmlns="http://www.w3.org/2000/svg" viewBox="0 0 40 40"><g><g><path d="M28.79968,19.0647c-.17999,.2019-.43311,.34131-.73309,.35645l-16.83038,.85059c-.27789,.01392-.52643-.07935-.71906-.2356-2.33118,2.26685-3.92023,5.32764-4.30402,8.73755-.36664,3.25806,.33777,6.32324,1.79156,8.89087,.62402,1.10205,1.79352,1.7627,3.03876,1.7627H29.37463c1.24567,0,2.41522-.66113,3.03937-1.76367,1.19781-2.11597,1.88666-4.56982,1.88666-7.19116,0-4.64844-2.1604-8.77246-5.50098-11.40771Zm-7.99115,14.8772c-.68707,0-1.24408-.56958-1.24408-1.27222,0-.70288,.55701-1.27246,1.24408-1.27246,.68701,0,1.24402,.56958,1.24402,1.27246,0,.70264-.55701,1.27222-1.24402,1.27222Zm0-6.20654c-.68707,0-1.24408-.56958-1.24408-1.27222s.55701-1.27222,1.24408-1.27222c.68701,0,1.24402,.56958,1.24402,1.27222s-.55701,1.27222-1.24402,1.27222Z" style="fill:#e5e8eb;"/><path d="M24.70074,13.59814c.37836-.05811,.75354-.04639,1.11169,.02588,.54266-1.1272,.85571-2.39087,.85571-3.73193,0-4.67773-3.7077-8.46973-8.28137-8.46973s-8.28137,3.79199-8.28137,8.46973c0,2.22729,.84723,4.24756,2.22174,5.75977,.28314-.1377,.5827-.24463,.90302-.29395l11.47058-1.75977Zm-4.96948-8.80566c.48578,0,.87952,.40283,.87952,.89966s-.39374,.89941-.87952,.89941c-.48572,0-.87952-.40259-.87952-.89941s.3938-.89966,.87952-.89966Zm-.27081,2.71094l-.00262-.00464,4.73743-1.16992c.297-.07349,.50037,.29272,.28119,.5061l-3.47003,3.37842-.00189-.00342c-.37347,.40405-.94177,.61743-1.55536,.46606-.55963-.13818-1.02032-.60474-1.15668-1.17676-.22467-.94238,.34857-1.78857,1.16797-1.99585Zm-2.70502-1.70752c.48572,0,.87952,.40283,.87952,.89941,0,.49683-.3938,.89966-.87952,.89966s-.87952-.40283-.87952-.89966c0-.49658,.3938-.89941,.87952-.89941Z" style="fill:#e5e8eb;"/></g><g><path d="M16.75543,7.59497c.48572,0,.87952-.40283,.87952-.89966,0-.49658-.3938-.89941-.87952-.89941s-.87952,.40283-.87952,.89941c0,.49683,.3938,.89966,.87952,.89966Z"/><path d="M19.73126,6.59155c.48578,0,.87952-.40259,.87952-.89941s-.39374-.89966-.87952-.89966c-.48572,0-.87952,.40283-.87952,.89966s.3938,.89941,.87952,.89941Z"/><path d="M20.80853,25.19092c-.68707,0-1.24408,.56958-1.24408,1.27222s.55701,1.27222,1.24408,1.27222c.68701,0,1.24402-.56958,1.24402-1.27222s-.55701-1.27222-1.24402-1.27222Z"/><path d="M20.80853,31.39722c-.68707,0-1.24408,.56958-1.24408,1.27246,0,.70264,.55701,1.27222,1.24408,1.27222,.68701,0,1.24402-.56958,1.24402-1.27222,0-.70288-.55701-1.27246-1.24402-1.27246Z"/></g><g><path d="M19.44916,10.67603c.61359,.15137,1.18188-.06201,1.55536-.46606l.00189,.00342,3.47003-3.37842c.21918-.21338,.01581-.57959-.28119-.5061l-4.73743,1.16992,.00262,.00464c-.8194,.20728-1.39264,1.05347-1.16797,1.99585,.13635,.57202,.59705,1.03857,1.15668,1.17676Z" style="fill:#fc2d4c;"/><path d="M28.06659,19.42114c.29999-.01514,.5531-.15454,.73309-.35645,.24634-.27637,.35144-.6731,.2135-1.06006l-.82898-2.3269c-.38403-1.07812-1.30109-1.83789-2.37177-2.05371-.35815-.07227-.73334-.08398-1.11169-.02588l-11.47058,1.75977c-.32031,.04932-.61987,.15625-.90302,.29395-.72461,.35205-1.30695,.96216-1.59741,1.73901l-.54163,1.44849c-.17004,.45483-.00714,.92383,.32904,1.19678,.19263,.15625,.44116,.24951,.71906,.2356l16.83038-.85059Z" style="fill:#fc2d4c;"/></g></g><g style="opacity:.1;"><rect y="0" width="40" height="40" transform="translate(40 40) rotate(-180)" style="fill:none;"/></g><path d="M34.82001,10.17993c-.10999,.19019-.31,.30005-.52002,.30005-.09998,0-.20001-.03003-.29999-.08008l-1.09998-.63989v1.27002c0,.34009-.27002,.59985-.60004,.59985s-.59998-.25977-.59998-.59985v-1.27002l-1.10004,.63989c-.08997,.05005-.19995,.08008-.29999,.08008-.20996,0-.40997-.10986-.51996-.30005-.16003-.28979-.07001-.6499,.21997-.82007l1.09998-.62988-1.09998-.64014c-.28998-.16992-.38-.52979-.21997-.81982,.16998-.29004,.52997-.39014,.81995-.21997l1.10004,.63989v-1.27002c0-.33984,.26996-.59985,.59998-.59985s.60004,.26001,.60004,.59985v1.27002l1.09998-.63989c.28998-.15991,.65997-.07007,.82001,.21997,.16998,.29004,.07001,.6499-.22003,.81982l-1.09998,.64014,1.09998,.62988c.29004,.17017,.39001,.53027,.22003,.82007Z" style="fill:#a8bfff;"/><path d="M38.82001,19.17993c-.10999,.19019-.31,.30005-.52002,.30005-.09998,0-.20001-.03003-.29999-.08008l-1.09998-.63989v1.27002c0,.34009-.27002,.59985-.60004,.59985s-.59998-.25977-.59998-.59985v-1.27002l-1.10004,.63989c-.08997,.05005-.19995,.08008-.29999,.08008-.20996,0-.40997-.10986-.51996-.30005-.16003-.28979-.07001-.6499,.21997-.82007l1.09998-.62988-1.09998-.64014c-.28998-.16992-.38-.52979-.21997-.81982,.16998-.29004,.52997-.39014,.81995-.21997l1.10004,.63989v-1.27002c0-.33984,.26996-.59985,.59998-.59985s.60004,.26001,.60004,.59985v1.27002l1.09998-.63989c.28998-.15991,.65002-.07007,.82001,.21997s.07001,.6499-.22003,.81982l-1.09998,.64014,1.09998,.62988c.29004,.17017,.39001,.53027,.22003,.82007Z" style="fill:#a8bfff;"/><path d="M7.82001,18.17993c-.10999,.19019-.31,.30005-.52002,.30005-.09998,0-.20001-.03003-.29999-.08008l-1.09998-.63989v1.27002c0,.34009-.27002,.59985-.60004,.59985s-.59998-.25977-.59998-.59985v-1.27002l-1.10004,.63989c-.08997,.05005-.19995,.08008-.29999,.08008-.20996,0-.40997-.10986-.51996-.30005-.16003-.28979-.07001-.6499,.21997-.82007l1.09998-.62988-1.09998-.64014c-.28998-.16992-.38-.52979-.21997-.81982,.16998-.29004,.52997-.39014,.81995-.21997l1.10004,.63989v-1.27002c0-.33984,.26996-.59985,.59998-.59985s.60004,.26001,.60004,.59985v1.27002l1.09998-.63989c.28998-.15991,.65997-.07007,.82001,.21997,.16998,.29004,.07001,.6499-.22003,.81982l-1.09998,.64014,1.09998,.62988c.29004,.17017,.39001,.53027,.22003,.82007Z" style="fill:#a8bfff;"/></svg>