<svg id="Layer_1" data-name="Layer 1" xmlns="http://www.w3.org/2000/svg" viewBox="0 0 40 40"><defs><style>.cls-1,.cls-2{fill:none;}.cls-2{stroke:#0a9f60;stroke-linecap:round;stroke-miterlimit:10;stroke-width:2px;}.cls-3{fill:#23b169;}.cls-4{fill:#68c76f;}</style></defs><rect class="cls-1" width="40" height="40" transform="translate(40 40) rotate(-180)"/><path class="cls-2" d="M20,12.508V28.692c0,4.444,2.423,8.046,5.413,8.046"/><path class="cls-3" d="M20,19.58s6.561-3.868,8.95-8.368-.416-8.988-4.124-8.988A5.159,5.159,0,0,0,20,5.622a5.159,5.159,0,0,0-4.826-3.4c-3.708,0-6.514,4.488-4.124,8.988S20,19.58,20,19.58Z"/><path class="cls-4" d="M20,19.58s2.67,7.133,6.687,10.268,8.924,1.15,9.568-2.5A5.159,5.159,0,0,0,33.747,22a5.159,5.159,0,0,0,4.184-4.162c.644-3.652-3.289-7.195-8.136-5.623S20,19.58,20,19.58Z"/><path class="cls-4" d="M20,19.58s-2.67,7.133-6.687,10.268S4.389,31,3.745,27.347A5.159,5.159,0,0,1,6.253,22a5.159,5.159,0,0,1-4.184-4.162c-.644-3.652,3.289-7.195,8.136-5.623S20,19.58,20,19.58Z"/></svg>