<?xml version="1.0" encoding="UTF-8"?><svg id="Layer_1" xmlns="http://www.w3.org/2000/svg" viewBox="0 0 40 40"><rect x="0" y="0" width="40" height="40" transform="translate(40 40) rotate(-180)" style="fill:none;"/><g><path d="M10.60712,26.55151c-.03802,.19946-.06116,.40161-.06116,.60718,0,3.02661,4.23608,5.48047,9.46161,5.48047s9.46167-2.45386,9.46167-5.48047c0-.20557-.02313-.40771-.06116-.60742-2.51788,2.19238-5.79974,3.52979-9.40051,3.52979s-6.88251-1.3374-9.40045-3.52954Z" style="fill:#afb7c0;"/><path d="M20.00757,8.19531c-5.83002,0-10.69476,2.38818-11.8443,5.56714,2.12677,2.40186,6.68903,4.11133,11.8443,4.11133s9.71753-1.70947,11.84436-4.11133c-.06464-.17847-.14624-.35327-.23383-.52661-1.47095-2.91187-6.10803-5.04053-11.61053-5.04053Z" style="fill:#6e4944;"/><g><path d="M33.13,10.79004c0,.3501-.07001,.68994-.16998,1.03003-.19,.67993-.57001,1.32983-1.11005,1.93994-.06-.17993-.13995-.3501-.22998-.52002-1.46997-2.91992-6.10999-5.04004-11.60999-5.04004-5.83002,0-10.70001,2.38013-11.85004,5.56006-.79999-.90991-1.26996-1.92017-1.26996-2.96997,0-3.84009,6.01001-7.09009,13.12-7.09009s13.12,3.25,13.12,7.09009Z" style="fill:#d0d5da;"/><path d="M34.34003,11.87012v-.88013l-.02002,.06006c-.03003,.47998-.10999,.94995-.27002,1.40991-.08997,.27002-.20996,.54004-.34998,.80005-1.82001,3.38013-7.26001,5.82983-13.69,5.82983-6.44,0-11.88-2.44971-13.69-5.82983-.14001-.26001-.26001-.53003-.35999-.80005-.16003-.45996-.24005-.92993-.27002-1.40991l-.02002-.06006v4.76001c0,1.62988,.29004,3.18994,.79004,4.65991,.82996,2.40015,2.26996,4.51001,4.14996,6.14014,2.52002,2.18994,5.79999,3.53003,9.40002,3.53003s6.88-1.34009,9.39996-3.53003c1.21002-1.06006,2.25-2.32007,3.05005-3.72998h1.15997c.78998,0,1.53998-.17017,2.22003-.46997,1.92999-.8501,3.28998-2.78003,3.28998-5.03003,0-2.79004-2.09003-5.09009-4.78998-5.44995Zm-.72003,8.55981h-.08002q.01001-.01001,.01001-.02002c.51001-1.46997,.79004-3.03003,.79004-4.65991v-1.43994c1.37,.31982,2.38995,1.5498,2.38995,3.01001,0,1.71997-1.38995,3.10986-3.10999,3.10986Z" style="fill:#d0d5da;"/></g><g><path d="M33.55255,20.40796l-.00848,.02319h.04492c-.01178-.00806-.02466-.01538-.03644-.02319Z" style="fill:#e5e8eb;"/><path d="M33.62433,22.82275h-1.15961c-.80365,1.41113-1.83972,2.66919-3.05664,3.72852,.03802,.19971,.06116,.40186,.06116,.60742,0,3.02661-4.23615,5.48047-9.46167,5.48047s-9.46161-2.45386-9.46161-5.48047c0-.20557,.02313-.40771,.06116-.60718-1.87543-1.63306-3.31775-3.74243-4.14453-6.14355-2.69678,1.81372-4.33746,4.16919-4.33746,6.75073,0,5.72046,8.00623,10.35791,17.88245,10.35791s17.88251-4.63745,17.88251-10.35791c0-1.73608-.74628-3.36914-2.04926-4.80615-.67889,.30029-1.42767,.47021-2.21649,.47021Z" style="fill:#e5e8eb;"/><path d="M34.27002,9.93994c-.10004-.56006-.29004-1.1001-.57001-1.61987-.28003-.52002-.65002-1.02002-1.09003-1.48999-.21997-.24023-.45996-.45996-.70996-.68994-.52002-.44019-1.11005-.8501-1.76001-1.22021-2.59003-1.51001-6.17004-2.43994-10.13-2.43994s-7.54999,.92993-10.14001,2.43994c-.65002,.37012-1.22998,.78003-1.75,1.22021-.26001,.22998-.5,.44971-.71997,.68994-.44,.46997-.80005,.96997-1.08002,1.48999-.28003,.51978-.47998,1.05981-.57001,1.61987-.04999,.28003-.08002,.56006-.08002,.8501,0,.08984,.02002,.16992,.02002,.26001,.02997,.47998,.10999,.94995,.27002,1.40991,.09998,.27002,.21997,.54004,.35999,.80005,1.81,3.38013,7.25,5.82983,13.69,5.82983,6.42999,0,11.87-2.44971,13.69-5.82983,.14001-.26001,.26001-.53003,.34998-.80005,.16003-.45996,.23999-.92993,.27002-1.40991,.01001-.09009,.02002-.17017,.02002-.26001,0-.29004-.02002-.57007-.07001-.8501Zm-1.31,1.88013c-.19,.67993-.57001,1.32983-1.11005,1.93994-2.12,2.3999-6.69,4.11011-11.83997,4.11011-5.16003,0-9.72003-1.71021-11.85004-4.11011-.79999-.90991-1.26996-1.92017-1.26996-2.96997,0-3.84009,6.01001-7.09009,13.12-7.09009s13.12,3.25,13.12,7.09009c0,.3501-.07001,.68994-.16998,1.03003Z" style="fill:#e5e8eb;"/></g></g></svg>