<svg id="Layer_1" data-name="Layer 1" xmlns="http://www.w3.org/2000/svg" viewBox="0 0 40 40"><defs><style>.cls-1{fill:none;}.cls-2{fill:#e5e8eb;}.cls-3{fill:#d0d5da;}.cls-4{fill:#afb7c0;}.cls-5{fill:#6e4944;}</style></defs><rect class="cls-1" width="40" height="40" transform="translate(40 40) rotate(-180)"/><ellipse class="cls-2" cx="20.008" cy="27.159" rx="17.882" ry="10.358"/><ellipse class="cls-3" cx="20.008" cy="10.787" rx="14.336" ry="8.304"/><path class="cls-3" d="M33.624,22.823H31.618V20.431h2.006a3.109,3.109,0,0,0,0-6.218H31.618V11.821h2.006a5.5,5.5,0,0,1,0,11Z"/><ellipse class="cls-4" cx="20.008" cy="27.159" rx="9.462" ry="5.481"/><ellipse class="cls-5" cx="20.008" cy="15.206" rx="12.104" ry="7.011"/><path class="cls-3" d="M20.008,30.081h0A14.335,14.335,0,0,1,5.672,15.745V10.993s2.517,7.166,14.336,7.166,14.335-7.166,14.335-7.166v4.752A14.335,14.335,0,0,1,20.008,30.081Z"/><path class="cls-2" d="M20.008,3.7c7.111,0,13.118,3.246,13.118,7.087s-6.007,7.087-13.118,7.087S6.889,14.628,6.889,10.787,12.9,3.7,20.008,3.7m0-1.217c-7.918,0-14.336,3.718-14.336,8.3s6.418,8.3,14.336,8.3,14.335-3.718,14.335-8.3-6.418-8.3-14.335-8.3Z"/></svg>