<?xml version="1.0" encoding="UTF-8"?><svg id="Layer_1" xmlns="http://www.w3.org/2000/svg" viewBox="0 0 40 40"><rect width="40" height="40" transform="translate(40 40) rotate(-180)" style="fill:none;"/><g><path d="M30.08618,23.94037v-6.70599H5.94043v6.70599c0,7.76495,6.29468,14.05963,14.05957,14.05963s14.05957-6.29468,14.05957-14.05963h-3.97339Z" style="fill:#ffc84d;"/><path d="M27.06,0c-1.67999,0-3.02997,1.39001-3.02997,3.09998V13.48999c-.29004-1.41003-1.51001-2.47003-2.97003-2.47003-1.66998,0-3.02997,1.39001-3.02997,3.11005v.99872c.00018,.01465,.00421,.02814,.00421,.04285l-.00006,.00061v5.25049l.00006,.00061-.00195,.01978c.00549,.75525,.28131,1.43707,.72186,1.97247,.5564,.67621,1.37811,1.11444,2.30585,1.11444,1.47003,0,2.69-1.06,2.97003-2.47998v2.46002h6.06V3.09998c0-1.70996-1.36005-3.09998-3.03003-3.09998Z" style="fill:#ffc84d;"/><path d="M11.99194,20.58942c.08594,1.63678,1.39539,2.94025,3.013,2.94025,1.66644,0,3.01666-1.38031,3.02734-3.08661l.00195-.01978-.00006-.00061v-5.25049l.00006-.00061c0-.01471-.00403-.0282-.00421-.04285-.02295-1.69525-1.36639-3.06354-3.02509-3.06354-1.6731,0-3.02936,1.39081-3.02936,3.10638h-.00006v1.72784c-.16406-1.55688-1.43475-2.77344-2.99658-2.77344-1.67303,0-3.0293,1.39075-3.0293,3.10632v.00006h-.00006v3.19092h.00006c0,1.10321,.56458,2.06604,1.40985,2.61719,.46918,.30597,1.02222,.4892,1.61945,.4892,1.61755,0,2.92706-1.30353,3.013-2.94025Z" style="fill:#ffc84d;"/><path d="M15.00494,23.52966c-1.61761,0-2.92706-1.30347-3.013-2.94025-.08594,1.63672-1.39545,2.94025-3.013,2.94025-.59723,0-1.15027-.18323-1.61945-.4892,.52161,1.0246,1.55536,1.73175,2.76056,1.73175,.87958,0,1.67133-.37524,2.23932-.97485,.72717,.60046,1.63922,.97485,2.64557,.97485,1.638,0,3.04272-.96252,3.74921-2.35669-.44055-.5354-.71637-1.21722-.72186-1.97247-.01068,1.7063-1.3609,3.08661-3.02734,3.08661Z" style="fill:#ffa01d;"/><path d="M25.32904,24.98499h-2.77112c-1.78381,0-3.22986-1.44604-3.22986-3.22986s1.44604-3.22986,3.22986-3.22986h6.27869c.28778,0,.565,.03992,.84015,.08472-.80493-.89447-1.95941-1.46753-3.25745-1.46753h-4.1106v.02509c-2.4292,.13208-4.36346,2.12543-4.36346,4.58759,0,1.94476,1.20709,3.60059,2.90997,4.27899v2.617c1.2049-1.5213,2.72717-2.78052,4.47382-3.66614Z" style="fill:#ffa01d;"/><path d="M29.67676,18.60999c-.27515-.0448-.55237-.08472-.84015-.08472h-6.27869c-1.78381,0-3.22986,1.44604-3.22986,3.22986s1.44604,3.22986,3.22986,3.22986h2.77112c-1.74664,.88562-3.26892,2.14484-4.47382,3.66614-1.80865,2.28357-2.89514,5.16357-2.89514,8.30426h5.05914l8.36658-9.10425v-2.86615h1.74023c.51556,0,.93353-.41797,.93353-.93353v-.30316c0-2.5968-1.90021-4.73425-4.38281-5.13831Z" style="fill:#ffc84d;"/></g></svg>