<?xml version="1.0" encoding="UTF-8"?><svg id="Layer_1" xmlns="http://www.w3.org/2000/svg" viewBox="0 0 40 40"><rect x="0" y="0" width="40" height="40" transform="translate(40 40) rotate(-180)" fill="none"/><g><path d="m10.607,26.552c-.038.199-.061.402-.061.607,0,3.027,4.236,5.48,9.462,5.48s9.462-2.454,9.462-5.48c0-.206-.023-.408-.061-.607-2.518,2.192-5.8,3.53-9.401,3.53s-6.883-1.337-9.4-3.53Z" fill="#afb7c0"/><path d="m20.008,8.195c-5.83,0-10.695,2.388-11.844,5.567,2.127,2.402,6.689,4.111,11.844,4.111s9.718-1.709,11.844-4.111c-.065-.178-.146-.353-.234-.527-1.471-2.912-6.108-5.041-11.611-5.041Z" fill="#6e4944"/><g><path d="m33.13,10.79c0,.35-.07.69-.17,1.03-.19.68-.57,1.33-1.11,1.94-.06-.18-.14-.35-.23-.52-1.47-2.92-6.11-5.04-11.61-5.04-5.83,0-10.7,2.38-11.85,5.56-.8-.91-1.27-1.92-1.27-2.97,0-3.84,6.01-7.09,13.12-7.09s13.12,3.25,13.12,7.09Z" fill="#d0d5da"/><path d="m34.34,11.87v-.88l-.02.06c-.03.48-.11.95-.27,1.41-.09.27-.21.54-.35.8-1.82,3.38-7.26,5.83-13.69,5.83s-11.88-2.45-13.69-5.83c-.14-.26-.26-.53-.36-.8-.16-.46-.24-.93-.27-1.41l-.02-.06v4.76c0,1.63.29,3.19.79,4.66.83,2.4,2.27,4.51,4.15,6.14,2.52,2.19,5.8,3.53,9.4,3.53s6.88-1.34,9.4-3.53c1.21-1.06,2.25-2.32,3.05-3.73h1.16c.79,0,1.54-.17,2.22-.47,1.93-.85,3.29-2.78,3.29-5.03,0-2.79-2.09-5.09-4.79-5.45Zm-.72,8.56h-.08q.01-.01.01-.02c.51-1.47.79-3.03.79-4.66v-1.44c1.37.32,2.39,1.55,2.39,3.01,0,1.72-1.39,3.11-3.11,3.11Z" fill="#d0d5da"/></g><g><path d="m33.553,20.408c-.003.008-.006.015-.008.023h.045c-.012-.008-.025-.015-.036-.023Z" fill="#e5e8eb"/><path d="m33.624,22.823h-1.16c-.804,1.411-1.84,2.669-3.057,3.729.038.2.061.402.061.607,0,3.027-4.236,5.48-9.462,5.48s-9.462-2.454-9.462-5.48c0-.206.023-.408.061-.607-1.875-1.633-3.318-3.742-4.145-6.144-2.697,1.814-4.337,4.169-4.337,6.751,0,5.72,8.006,10.358,17.882,10.358s17.883-4.637,17.883-10.358c0-1.736-.746-3.369-2.049-4.806-.679.3-1.428.47-2.216.47Z" fill="#e5e8eb"/><path d="m34.27,9.94c-.1-.56-.29-1.1-.57-1.62-.28-.52-.65-1.02-1.09-1.49-.22-.24-.46-.46-.71-.69-.52-.44-1.11-.85-1.76-1.22-2.59-1.51-6.17-2.44-10.13-2.44s-7.55.93-10.14,2.44c-.65.37-1.23.78-1.75,1.22-.26.23-.5.45-.72.69-.44.47-.8.97-1.08,1.49-.28.52-.48,1.06-.57,1.62-.05.28-.08.56-.08.85,0,.09.02.17.02.26.03.48.11.95.27,1.41.1.27.22.54.36.8,1.81,3.38,7.25,5.83,13.69,5.83s11.87-2.45,13.69-5.83c.14-.26.26-.53.35-.8.16-.46.24-.93.27-1.41.01-.09.02-.17.02-.26,0-.29-.02-.57-.07-.85Zm-1.31,1.88c-.19.68-.57,1.33-1.11,1.94-2.12,2.4-6.69,4.11-11.84,4.11s-9.72-1.71-11.85-4.11c-.8-.91-1.27-1.92-1.27-2.97,0-3.84,6.01-7.09,13.12-7.09s13.12,3.25,13.12,7.09c0,.35-.07.69-.17,1.03Z" fill="#e5e8eb"/></g></g></svg>