<?xml version="1.0" encoding="UTF-8"?><svg id="Layer_1" xmlns="http://www.w3.org/2000/svg" viewBox="0 0 40 40"><g><rect x="3.5" y="3.5" width="33" height="33" rx="8" ry="8" fill="#786de7"/><g><path d="m15.406,19.814c0-5.321,4.314-9.635,9.635-9.635.236,0,.468.019.7.035-1.434-.716-3.046-1.129-4.758-1.129-5.886,0-10.658,4.764-10.658,10.641s4.772,10.641,10.658,10.641c1.551,0,3.02-.338,4.349-.933-.097.003-.193.015-.291.015-5.321,0-9.635-4.314-9.635-9.635Z" fill="#fff"/><polygon points="23.988 21.096 24.776 19.01 23.505 17.177 25.733 17.283 27.083 15.507 27.671 17.658 29.777 18.394 27.913 19.618 27.864 21.848 26.124 20.453 23.988 21.096" fill="#fff"/></g></g><rect x="0" y="0" width="40" height="40" transform="translate(40 40) rotate(-180)" fill="none"/></svg>