<svg id="Layer_1" data-name="Layer 1" xmlns="http://www.w3.org/2000/svg" viewBox="0 0 40 40"><defs><style>.cls-1{fill:#786de7;}.cls-2{fill:#fff;}.cls-3{fill:none;}</style></defs><rect class="cls-1" x="3.5" y="3.5" width="33" height="33" rx="8"/><path class="cls-2" d="M15.406,19.814a9.634,9.634,0,0,1,9.634-9.635c.236,0,.468.019.7.035a10.639,10.639,0,1,0-.409,19.22c-.1,0-.193.014-.291.014A9.634,9.634,0,0,1,15.406,19.814Z"/><polygon class="cls-2" points="23.988 21.096 24.776 19.01 23.505 17.177 25.733 17.283 27.083 15.507 27.671 17.658 29.777 18.394 27.913 19.618 27.864 21.848 26.124 20.453 23.988 21.096"/><rect class="cls-3" width="40" height="40" transform="translate(40 40) rotate(-180)"/></svg>