<?xml version="1.0" encoding="UTF-8"?><svg id="Layer_1" xmlns="http://www.w3.org/2000/svg" viewBox="0 0 40 40"><path d="M34.39125,4.77725c-.12741-.76736-.58217-1.48922-1.3778-1.93919-.80946-.4578-1.84608-.45022-2.64838,.02001-1.2495,.73234-1.65425,2.15571-1.21446,3.33585,.27704,.7434,.01868,1.58353-.5423,2.14451L8.383,28.56375c-.56098,.56098-1.40112,.81936-2.14451,.54229-1.18025-.43989-2.60385-.03496-3.33609,1.21492-.47003,.80231-.47754,1.8388-.01974,2.64816,.44994,.79545,1.17167,1.25015,1.93891,1.37759,.45075,.07487,.80107,.42488,.87589,.87564,.12753,.76831,.5832,1.49098,1.38067,1.94096,.8075,.45564,1.84051,.4485,2.6411-.01917,1.23814-.72327,1.64572-2.11855,1.231-3.28946-.26141-.73806,.0015-1.56323,.55515-2.11689L31.78233,11.46085c.55369-.55369,1.37892-.81663,2.11703-.55521,1.17096,.41471,2.56627,.00707,3.28939-1.23112,.4676-.80066,.47462-1.83372,.01888-2.64119-.45002-.79735-1.17267-1.25292-1.94093-1.3804-.45066-.07478-.80064-.42502-.87546-.87568Z" style="fill:#a1a4a4;"/><path d="M5.69777,4.77725c.12741-.76736,.58217-1.48922,1.3778-1.93919,.80946-.4578,1.84608-.45022,2.64838,.02001,1.2495,.73234,1.65425,2.15571,1.21446,3.33585-.27704,.7434-.01868,1.58353,.5423,2.14451L31.70602,28.56375c.56098,.56098,1.40112,.81936,2.14451,.54229,1.18025-.43989,2.60385-.03496,3.33609,1.21492,.47003,.80231,.47754,1.8388,.01974,2.64816-.44994,.79545-1.17167,1.25015-1.93891,1.37759-.45075,.07487-.80107,.42488-.87589,.87564-.12753,.76831-.5832,1.49098-1.38067,1.94096-.8075,.45564-1.84051,.4485-2.6411-.01917-1.23814-.72327-1.64572-2.11855-1.231-3.28946,.26141-.73806-.0015-1.56323-.55515-2.11689L8.30669,11.46085c-.55369-.55369-1.37892-.81663-2.11703-.55521-1.17096,.41471-2.56627,.00707-3.28939-1.23112-.4676-.80066-.47462-1.83372-.01888-2.64119,.45002-.79735,1.17267-1.25292,1.94093-1.3804,.45066-.07478,.80064-.42502,.87546-.87568Z" style="fill:#a1a4a4;"/><path d="M20.04451,30.14582c-7.1797,0-13-.58929-13-10.08511,0-7.1797,5.8203-13,13-13,7.1797,0,13,5.8203,13,13,0,9.49582-5.8203,10.08511-13,10.08511" style="fill:#cacbcb;"/><path d="M26.49557,24.18698v6.06886c0,1.48199-1.20139,2.68337-2.68337,2.68337h-7.53537c-1.48199,0-2.68337-1.20139-2.68337-2.68337v-6.06886h12.90212Z" style="fill:#cacbcb;"/><rect x="21.29631" y="16.56239" width="5.25769" height="6.15764" rx="2.62882" ry="2.62882"/><rect x="13.53503" y="16.56239" width="5.25769" height="6.15764" rx="2.62882" ry="2.62882"/><path d="M17.81594,32.93929v-2.6399c0-.4106-.33225-.74286-.74286-.74286s-.74286,.33225-.74286,.74286v2.6399h1.48571Z" style="fill:#a1a4a4;"/><path d="M20.78737,32.93929v-2.6399c0-.4106-.33225-.74286-.74286-.74286s-.74286,.33225-.74286,.74286v2.6399h1.48571Z" style="fill:#a1a4a4;"/><path d="M23.7588,32.93929v-2.6399c0-.4106-.33225-.74286-.74286-.74286s-.74286,.33225-.74286,.74286v2.6399h1.48571Z" style="fill:#a1a4a4;"/><path d="M18.7221,24.07768l.64496-.91705c.34021-.48374,1.05951-.47679,1.39031,.01343l.61884,.91705c.37836,.56069-.02337,1.31643-.69978,1.31643h-1.2638c-.68384,0-1.08392-.77051-.69053-1.32986Z"/><rect x="0" y="0" width="40" height="40" transform="translate(40 40) rotate(-180)" style="fill:none;"/></svg>