<?xml version="1.0" encoding="UTF-8"?><svg id="Layer_1" xmlns="http://www.w3.org/2000/svg" viewBox="0 0 40 40"><g><rect x="3.5" y="3.5" width="33" height="33" rx="8" ry="8" fill="#786de7"/><g><path d="m20.125,8.304v-.015l-.233.003c-.012,0-.023-.002-.035-.002l-.631.016.003.02c-6.141.348-11.061,5.482-11.061,11.687s4.796,11.285,10.959,11.682c.068.006.134.018.202.022l.528.018c6.464,0,11.723-5.258,11.723-11.722,0-6.373-5.115-11.565-11.455-11.709Zm-1.879,6.055c0-.814.663-1.477,1.477-1.477s1.476.663,1.476,1.477-.662,1.477-1.476,1.477-1.477-.663-1.477-1.477Zm1.847,16.567l-.689-.014h0c-2.766-.166-4.933-2.468-4.933-5.242,0-2.896,2.356-5.252,5.252-5.252,3.341,0,6.058-2.718,6.058-6.059,0-1.816-.804-3.447-2.075-4.559,4.125,1.56,7.066,5.548,7.066,10.213,0,5.94-4.77,10.788-10.68,10.913Z" fill="#fff"/><path d="m22.606,23.79c-1.038,0-1.88.842-1.88,1.88s.842,1.88,1.88,1.88,1.88-.842,1.88-1.88-.842-1.88-1.88-1.88Z" fill="#fff"/></g></g><rect x="0" y="0" width="40" height="40" transform="translate(40 40) rotate(-180)" fill="none"/></svg>