<svg id="Layer_1" data-name="Layer 1" xmlns="http://www.w3.org/2000/svg" viewBox="0 0 40 40"><defs><style>.cls-1{fill:#786de7;}.cls-2{fill:#fff;}.cls-3{fill:none;}</style></defs><rect class="cls-1" x="3.5" y="3.5" width="33" height="33" rx="8"/><path class="cls-2" d="M20,7.954A12.046,12.046,0,1,0,32.046,20,12.06,12.06,0,0,0,20,7.954ZM29.586,20a9.528,9.528,0,0,1-1.678,5.408L21.23,19.3V10.5A9.594,9.594,0,0,1,29.586,20ZM18.77,29.5a9.532,9.532,0,0,1-5.028-2.253l5.028-4.534Zm2.46-6.862,5.035,4.6A9.547,9.547,0,0,1,21.23,29.5ZM18.77,10.5v8.9L12.1,25.416A9.57,9.57,0,0,1,18.77,10.5Z"/><rect class="cls-3" width="40" height="40" transform="translate(40 40) rotate(-180)"/></svg>