<?xml version="1.0" encoding="UTF-8"?><svg id="a" xmlns="http://www.w3.org/2000/svg" viewBox="0 0 40 40"><rect x="2.355" y="2.5" width="35" height="35" rx="17.5" ry="17.5" fill="#ffcd00"/><path d="M17.523,20.629c.187,.987,.995,1.795,1.983,1.982,1.778,.337,3.307-1.193,2.97-2.97-.187-.987-.995-1.795-1.982-1.983-1.778-.337-3.308,1.193-2.971,2.971Z" fill="#313d4c"/><path d="M25.729,10.212l-3.337,5.779c1.435,.831,2.412,2.366,2.412,4.143h6.665c.592,0,1.052-.513,1-1.103-.331-3.78-2.347-7.073-5.289-9.138-.483-.339-1.156-.193-1.451,.318Z" fill="#313d4c"/><path d="M20,24.939c-.876,0-1.685-.252-2.392-.661l-3.338,5.782c-.294,.51-.087,1.164,.446,1.414,1.605,.753,3.394,1.179,5.284,1.179s3.668-.423,5.27-1.172c.534-.249,.742-.904,.447-1.414l-3.338-5.781c-.704,.405-1.509,.654-2.379,.654Z" fill="#313d4c"/><path d="M17.608,15.991l-3.337-5.779c-.295-.511-.968-.657-1.451-.318-2.942,2.065-4.958,5.357-5.289,9.138-.052,.59,.408,1.103,1,1.103h6.665c0-1.778,.977-3.312,2.412-4.143Z" fill="#313d4c"/><rect y="0" width="40" height="40" fill="none"/></svg>