<?xml version="1.0" encoding="UTF-8"?><svg id="Layer_1" xmlns="http://www.w3.org/2000/svg" viewBox="0 0 40 40"><g><g><path d="m19.018,12.629c-1.318.175-2.526.694-3.535,1.466l2.525,2.525c.312-.185.65-.328,1.01-.421v-3.57Z" fill="#786de7"/><path d="m14.093,15.481c-.775,1.008-1.297,2.217-1.474,3.537h3.58c.093-.36.236-.697.421-1.01l-2.527-2.527Z" fill="#786de7"/><path d="m12.616,20.982c.173,1.323.693,2.535,1.467,3.547l2.537-2.537c-.185-.312-.328-.65-.421-1.01h-3.584Z" fill="#786de7"/><path d="m15.47,25.919c1.011.778,2.224,1.3,3.548,1.476v-3.594c-.36-.093-.697-.236-1.009-.421l-2.539,2.539Z" fill="#786de7"/><path d="m20.982,27.395c1.324-.175,2.537-.698,3.548-1.476l-2.539-2.539c-.312.185-.65.327-1.01.421v3.594Z" fill="#786de7"/><path d="m24.517,14.094c-1.009-.772-2.217-1.291-3.535-1.466v3.57c.36.093.697.236,1.01.421l2.525-2.525Z" fill="#786de7"/><path d="m28.5,3.5H11.5C7.082,3.5,3.5,7.082,3.5,11.5v17c0,4.418,3.582,8,8,8h17c4.418,0,8-3.582,8-8V11.5c0-4.418-3.582-8-8-8Zm3.251,17.482h-2.377c-.192,1.865-.932,3.568-2.052,4.95l1.682,1.682c.382.382.382,1.007,0,1.389-.382.382-1.007.382-1.389,0l-1.68-1.681c-1.382,1.124-3.086,1.866-4.952,2.06v2.368c0,.54-.442.982-.982.982s-.982-.442-.982-.982v-2.368c-1.866-.194-3.57-.936-4.952-2.06l-1.681,1.681c-.382.382-1.007.382-1.389,0-.382-.382-.382-1.007,0-1.389l1.682-1.682c-1.12-1.383-1.86-3.086-2.052-4.95h-2.378c-.54,0-.982-.442-.982-.982s.442-.982.982-.982h2.381c.196-1.861.937-3.561,2.058-4.94l-1.692-1.692c-.382-.382-.382-1.007,0-1.389.382-.382,1.007-.382,1.389,0l1.694,1.694c1.38-1.118,3.079-1.857,4.939-2.05v-2.391c0-.54.442-.982.982-.982s.982.442.982.982v2.391c1.86.193,3.559.932,4.939,2.05l1.694-1.694c.382-.382,1.007-.382,1.389,0,.382.382.382,1.007,0,1.389l-1.692,1.692c1.122,1.379,1.863,3.079,2.059,4.94h2.381c.54,0,.982.442.982.982s-.442.982-.982.982Z" fill="#786de7"/><path d="m23.38,21.992l2.537,2.537c.774-1.012,1.294-2.224,1.467-3.547h-3.584c-.093.36-.236.697-.421,1.01Z" fill="#786de7"/><path d="m27.381,19.018c-.177-1.319-.699-2.528-1.474-3.537l-2.527,2.527c.185.312.328.65.421,1.01h3.58Z" fill="#786de7"/><path d="m21.972,20c0-1.088-.884-1.973-1.972-1.973s-1.972.885-1.972,1.973.884,1.972,1.972,1.972,1.972-.885,1.972-1.972Z" fill="#786de7"/></g><path d="m31.75,19.02h-2.38c-.2-1.86-.94-3.56-2.06-4.94l1.69-1.69c.39-.39.39-1.01,0-1.39-.38-.39-1-.39-1.39,0l-1.69,1.69c-1.38-1.12-3.08-1.86-4.94-2.05v-2.39c0-.54-.44-.98-.98-.98s-.98.44-.98.98v2.39c-1.86.19-3.56.93-4.94,2.05l-1.69-1.69c-.39-.39-1.01-.39-1.39,0-.39.38-.39,1,0,1.39l1.69,1.69c-1.12,1.38-1.86,3.08-2.06,4.94h-2.38c-.54,0-.98.44-.98.98s.44.98.98.98h2.38c.19,1.87.93,3.57,2.05,4.95l-1.68,1.68c-.39.39-.39,1.01,0,1.39.38.39,1,.39,1.39,0l1.68-1.68c1.38,1.13,3.08,1.87,4.95,2.06v2.37c0,.54.44.98.98.98s.98-.44.98-.98v-2.37c1.87-.19,3.57-.93,4.95-2.06l1.68,1.68c.39.39,1.01.39,1.39,0,.39-.38.39-1,0-1.39l-1.68-1.68c1.12-1.38,1.86-3.08,2.05-4.95h2.38c.54,0,.98-.44.98-.98s-.44-.98-.98-.98Zm-10.77-6.39c1.32.17,2.53.69,3.54,1.46l-2.53,2.53c-.31-.19-.65-.33-1.01-.42v-3.57Zm.99,7.37c0,1.09-.88,1.97-1.97,1.97s-1.97-.88-1.97-1.97.88-1.97,1.97-1.97,1.97.88,1.97,1.97Zm-2.95-7.37v3.57c-.36.09-.7.23-1.01.42l-2.53-2.53c1.01-.77,2.22-1.29,3.54-1.46Zm-4.93,2.85l2.53,2.53c-.18.31-.33.65-.42,1.01h-3.58c.18-1.32.7-2.53,1.47-3.54Zm-1.47,5.5h3.58c.09.36.24.7.42,1.01l-2.54,2.54c-.77-1.01-1.29-2.23-1.46-3.55Zm6.4,6.41c-1.33-.17-2.54-.69-3.55-1.47l2.54-2.54c.31.18.65.33,1.01.42v3.59Zm1.96,0v-3.59c.36-.09.7-.24,1.01-.42l2.54,2.54c-1.01.78-2.22,1.3-3.55,1.47Zm4.94-2.86l-2.54-2.54c.19-.31.33-.65.42-1.01h3.58c-.17,1.32-.69,2.54-1.46,3.55Zm-2.12-5.51c-.09-.36-.23-.7-.42-1.01l2.53-2.53c.77,1.01,1.29,2.22,1.47,3.54h-3.58Z" fill="#fff"/></g><rect x="0" y="0" width="40" height="40" transform="translate(40 40) rotate(-180)" fill="none"/></svg>