<svg id="Layer_1" data-name="Layer 1" xmlns="http://www.w3.org/2000/svg" viewBox="0 0 40 40"><defs><style>.cls-1{fill:#786de7;}.cls-2{fill:#fff;}.cls-3{fill:none;}</style></defs><rect class="cls-1" x="3.5" y="3.5" width="33" height="33" rx="8"/><path class="cls-2" d="M31.751,19.018H29.37a9.373,9.373,0,0,0-2.059-4.94L29,12.385A.981.981,0,0,0,27.615,11l-1.694,1.694a9.383,9.383,0,0,0-4.939-2.051V8.249a.982.982,0,0,0-1.964,0V10.64a9.376,9.376,0,0,0-4.938,2.051L12.385,11A.981.981,0,1,0,11,12.385l1.692,1.693a9.379,9.379,0,0,0-2.058,4.94H8.249a.982.982,0,0,0,0,1.964h2.378a9.384,9.384,0,0,0,2.052,4.95L11,27.615A.981.981,0,0,0,12.385,29l1.681-1.68a9.374,9.374,0,0,0,4.952,2.06V31.75a.982.982,0,0,0,1.964,0V29.383a9.374,9.374,0,0,0,4.952-2.06L27.615,29A.981.981,0,0,0,29,27.615l-1.682-1.683a9.361,9.361,0,0,0,2.052-4.95h2.378a.982.982,0,0,0,0-1.964Zm-4.37,0h-5.01l3.536-3.537A7.417,7.417,0,0,1,27.381,19.018Zm-6.4-6.389a7.412,7.412,0,0,1,3.535,1.465l-3.535,3.535Zm-1.964,0v5L15.483,14.1A7.413,7.413,0,0,1,19.018,12.629Zm-4.925,2.853,3.537,3.536H12.619A7.409,7.409,0,0,1,14.093,15.482Zm-1.477,5.5H17.63l-3.547,3.546A7.4,7.4,0,0,1,12.616,20.982Zm6.4,6.413a7.417,7.417,0,0,1-3.548-1.476l3.548-3.549ZM20,21.977A1.977,1.977,0,1,1,21.977,20,1.977,1.977,0,0,1,20,21.977Zm.982,5.418V22.371l3.548,3.548A7.417,7.417,0,0,1,20.982,27.4Zm4.935-2.866-3.546-3.547h5.014A7.411,7.411,0,0,1,25.917,24.529Z"/><path class="cls-2" d="M20,23.94A3.94,3.94,0,1,1,23.94,20,3.944,3.944,0,0,1,20,23.94Zm0-5.912A1.972,1.972,0,1,0,21.972,20,1.974,1.974,0,0,0,20,18.028Z"/><rect class="cls-3" width="40" height="40" transform="translate(40 40) rotate(-180)"/></svg>