<?xml version="1.0" encoding="UTF-8"?><svg id="Layer_1" xmlns="http://www.w3.org/2000/svg" viewBox="0 0 40 40"><g><circle cx="20" cy="20" r="17.5" fill="#ffc84d"/><g><circle cx="15.422" cy="17.007" r="2.114"/><circle cx="24.578" cy="17.007" r="2.114"/></g><path d="m20,24.466c3.383,0,6.234,2.251,7.154,5.335.053.178.315.139.319-.046,0-.042.001-.085.001-.127,0-4.128-3.346-7.474-7.474-7.474s-7.474,3.346-7.474,7.474c0,.043,0,.085.001.127.004.186.266.224.319.046.919-3.085,3.77-5.335,7.154-5.335Z" fill="#ff6d00"/></g><rect x="0" y="0" width="40" height="40" transform="translate(40 40) rotate(-180)" fill="none"/></svg>