<svg id="Layer_1" data-name="Layer 1" xmlns="http://www.w3.org/2000/svg" viewBox="0 0 40 40"><defs><style>.cls-1{fill:#786de7;}.cls-2{fill:#fff;}.cls-3{fill:none;}</style></defs><rect class="cls-1" x="3.5" y="3.5" width="33" height="33" rx="8"/><path class="cls-2" d="M25.4,27.324a3.465,3.465,0,0,0,1.065.412,6.392,6.392,0,0,0,1.228.149.416.416,0,0,1,.406.412v2.454a.417.417,0,0,1-.425.415,9.572,9.572,0,0,1-2.352-.323,5.615,5.615,0,0,1-1.807-.82,4.627,4.627,0,0,1-.815-.7l-.111-.133a29.033,29.033,0,0,1-4.54,1.972.42.42,0,0,1-.533-.263l-.768-2.329a.416.416,0,0,1,.263-.518q1.2-.416,2.193-.854a22.6,22.6,0,0,0,2.113-1.054,8.363,8.363,0,0,1-.1-1.132c-.008-.375-.011-.723-.011-1.043V13.313a1.155,1.155,0,0,0-.363-.864A1.174,1.174,0,0,0,20,12.1a1.2,1.2,0,0,0-.864.351,1.155,1.155,0,0,0-.363.864v9.125a.413.413,0,0,1-.412.413H15.906a.413.413,0,0,1-.413-.413V13.313a1.154,1.154,0,0,0-.362-.864,1.2,1.2,0,0,0-2.058.864v9.125a.413.413,0,0,1-.413.413H10.206a.412.412,0,0,1-.412-.413V13.313a4.522,4.522,0,0,1,4.495-4.5,4.393,4.393,0,0,1,1.539.268,4.45,4.45,0,0,1,1.316.758,4.455,4.455,0,0,1,1.317-.758,4.513,4.513,0,0,1,6.012,3.781,4.467,4.467,0,0,1,1.238-.167,4.235,4.235,0,0,1,4.5,4.5,13.052,13.052,0,0,1-1.193,5.656A12.768,12.768,0,0,1,25.4,27.324Zm-.9-10.173v6.57a8.664,8.664,0,0,0,1.819-2.867,10.147,10.147,0,0,0,.613-3.659,1.152,1.152,0,0,0-.363-.87,1.2,1.2,0,0,0-.853-.346,1.213,1.213,0,0,0-.859.335A1.1,1.1,0,0,0,24.5,17.151Z"/><rect class="cls-3" width="40" height="40"/></svg>