<svg id="Layer_1" data-name="Layer 1" xmlns="http://www.w3.org/2000/svg" viewBox="0 0 40 40"><defs><style>.cls-1{fill:#786de7;}.cls-2{fill:#fff;}.cls-3{fill:none;}</style></defs><rect class="cls-1" x="3.5" y="3.5" width="33" height="33" rx="8"/><path class="cls-2" d="M29.141,12.835a.407.407,0,0,1-.312.4q-.512.12-1.138.242-.825.162-1.829.318V26.2q1,.156,1.829.313.627.118,1.137.237a.406.406,0,0,1,.313.4v2.535a.407.407,0,0,1-.508.4,36.327,36.327,0,0,0-3.719-.688,35.638,35.638,0,0,0-9.822,0,36.313,36.313,0,0,0-3.725.688.407.407,0,0,1-.508-.4V27.152a.408.408,0,0,1,.314-.4q.518-.119,1.141-.237.821-.156,1.824-.313V13.8q-1-.156-1.824-.318-.624-.123-1.142-.243a.407.407,0,0,1-.313-.4V10.312a.407.407,0,0,1,.5-.4,38.187,38.187,0,0,0,4.075.725,37.494,37.494,0,0,0,4.568.289,37.373,37.373,0,0,0,4.562-.289,38.209,38.209,0,0,0,4.069-.725.408.408,0,0,1,.5.4Zm-6.57,1.3q-.6.045-1.249.067t-1.316.022q-.681,0-1.317-.022t-1.26-.067V25.866q.624-.057,1.26-.073t1.317-.017q.669,0,1.316.017t1.249.073Z"/><rect class="cls-3" width="40" height="40" transform="translate(40 40) rotate(-180)"/></svg>