<?xml version="1.0" encoding="UTF-8"?><svg id="Layer_1" xmlns="http://www.w3.org/2000/svg" viewBox="0 0 40 40"><g><rect x="3.5" y="3.5" width="33" height="33" rx="8" ry="8" fill="#786de7"/><path d="m27.531,31.058v-2.092h-1.227c-1.257,0-2.342-.455-3.257-1.366-.915-.911-1.372-2.002-1.372-3.274v-9.359c0-.379-.132-.701-.396-.965-.264-.264-.586-.396-.965-.396s-.701.132-.965.396-.396.586-.396.965v9.582c0,.228-.185.412-.413.412h-2.455c-.228,0-.413-.185-.413-.412v-9.582c0-.372-.132-.692-.396-.959-.264-.268-.582-.401-.954-.401-.379,0-.701.134-.965.401-.264.268-.396.587-.396.959v9.582c0,.228-.185.412-.413.412h-2.454c-.228,0-.412-.185-.413-.412v-9.568c0-1.115.387-2.209,1.126-3.044.951-1.073,2.123-1.61,3.514-1.61.565,0,1.104.097,1.617.29.513.193.974.465,1.383.814.402-.35.855-.621,1.361-.814.506-.193,1.049-.29,1.628-.29,1.279,0,2.374.457,3.285,1.372.911.915,1.366,2.004,1.366,3.268v9.359c0,.372.132.692.396.959.264.268.578.401.943.401h1.227v-2.105c0-.368.444-.552.704-.292l3.734,3.734c.161.161.161.422,0,.583l-3.734,3.743c-.26.26-.705.076-.705-.291Z" fill="#fff"/></g><rect width="40" height="40" fill="none"/></svg>