<?xml version="1.0" encoding="UTF-8"?><svg id="a" xmlns="http://www.w3.org/2000/svg" viewBox="0 0 40 40"><g><rect x="3.5" y="3.5" width="33" height="33" rx="8" ry="8" fill="#786de7"/><path d="M29.141,12.835c0,.191-.126,.358-.312,.401-.341,.08-.72,.16-1.138,.242-.55,.108-1.16,.214-1.829,.318v12.404c.669,.104,1.279,.208,1.829,.312,.418,.079,.797,.158,1.137,.237,.186,.043,.313,.21,.313,.401v2.535c0,.269-.247,.463-.508,.399-1.067-.264-2.306-.493-3.719-.688-1.643-.227-3.28-.34-4.908-.34s-3.266,.113-4.914,.34c-1.416,.195-2.658,.424-3.725,.688-.261,.065-.508-.13-.508-.399v-2.534c0-.192,.128-.359,.314-.402,.345-.079,.725-.158,1.141-.238,.547-.104,1.155-.208,1.824-.312V13.796c-.669-.104-1.277-.21-1.824-.318-.416-.082-.797-.163-1.142-.243-.186-.043-.314-.21-.314-.401v-2.522c0-.266,.246-.459,.504-.397,1.322,.312,2.68,.553,4.075,.725,1.573,.193,3.095,.29,4.568,.29s2.993-.097,4.562-.29c1.391-.172,2.748-.413,4.069-.725,.259-.061,.505,.132,.505,.397v2.523Zm-6.57,1.296c-.401,.03-.818,.052-1.249,.067-.431,.015-.87,.022-1.316,.022-.454,0-.892-.007-1.316-.022-.424-.015-.844-.037-1.26-.067v11.735c.416-.037,.837-.061,1.26-.073,.424-.011,.863-.017,1.316-.017,.446,0,.885,.006,1.316,.017,.431,.011,.848,.035,1.249,.073V14.131Z" fill="#fff"/></g><rect y="0" width="40" height="40" transform="translate(40 40) rotate(-180)" fill="none"/></svg>