<svg id="Layer_1" data-name="Layer 1" xmlns="http://www.w3.org/2000/svg" viewBox="0 0 40 40"><defs><style>.cls-1{fill:#786de7;}.cls-2{fill:#fff;}.cls-3{fill:none;}</style></defs><rect class="cls-1" x="3.5" y="3.5" width="33" height="33" rx="8"/><path class="cls-2" d="M29.3,22.894V25.36a.412.412,0,0,1-.412.413H21.991a.413.413,0,0,1-.413-.413V22.639a.411.411,0,0,1,.264-.378,4.805,4.805,0,0,0,2.107-1.675,4.832,4.832,0,0,0-.5-6.286,4.849,4.849,0,0,0-6.883,0,4.69,4.69,0,0,0-1.433,3.439,4.9,4.9,0,0,0,.989,2.941,4.73,4.73,0,0,0,2.038,1.582.41.41,0,0,1,.264.377V25.36a.413.413,0,0,1-.413.413H11.115a.412.412,0,0,1-.412-.413V22.894a.412.412,0,0,1,.412-.412h2.242a8.177,8.177,0,0,1-1.481-5.412,7.758,7.758,0,0,1,.721-2.739A8.169,8.169,0,0,1,15.9,10.7a7.944,7.944,0,0,1,4.105-1.11A7.853,7.853,0,0,1,25.761,12a8.057,8.057,0,0,1,2.008,8.26,8.518,8.518,0,0,1-1.126,2.225h2.242A.412.412,0,0,1,29.3,22.894Zm0,4.652V30a.412.412,0,0,1-.412.413H11.115A.412.412,0,0,1,10.7,30V27.546a.412.412,0,0,1,.412-.413h17.77A.412.412,0,0,1,29.3,27.546Z"/><rect class="cls-3" width="40" height="40"/></svg>