<svg id="Layer_1" data-name="Layer 1" xmlns="http://www.w3.org/2000/svg" viewBox="0 0 40 40"><defs><style>.cls-1{fill:#786de7;}.cls-2{fill:#fff;}.cls-3{fill:none;}</style></defs><rect class="cls-1" x="3.5" y="3.5" width="33" height="33" rx="8"/><path class="cls-2" d="M28.782,11.491V22.847a.412.412,0,0,1-.413.412H26.116a.412.412,0,0,1-.413-.412V16.321l-6.938,6.938,2.6,2.6a.412.412,0,0,1,0,.582l-1.582,1.59a.412.412,0,0,1-.584,0l-2.6-2.607-3.579,3.59a.413.413,0,0,1-.584,0l-1.591-1.591a.413.413,0,0,1,0-.584l3.579-3.579-2.6-2.607a.413.413,0,0,1,0-.584L13.42,18.5a.412.412,0,0,1,.582,0l2.6,2.6,6.938-6.938H17.014a.413.413,0,0,1-.413-.412V11.491a.413.413,0,0,1,.413-.413H28.369A.413.413,0,0,1,28.782,11.491Z"/><rect class="cls-3" width="40" height="40"/></svg>