<?xml version="1.0" encoding="UTF-8"?><svg id="a" xmlns="http://www.w3.org/2000/svg" viewBox="0 0 40 40"><g><rect x="3.5" y="3.5" width="33" height="33" rx="8" ry="8" fill="#786de7"/><path d="M28.782,11.491v11.356c0,.228-.185,.412-.413,.412h-2.254c-.228,0-.413-.185-.413-.412v-6.526l-6.938,6.938,2.598,2.598c.161,.161,.161,.421,0,.583l-1.582,1.59c-.161,.162-.423,.162-.585,0l-2.597-2.607-3.579,3.589c-.161,.161-.423,.162-.584,0l-1.591-1.591c-.161-.161-.161-.422,0-.583l3.579-3.579-2.597-2.607c-.161-.162-.16-.424,.002-.584l1.589-1.573c.161-.16,.421-.159,.582,.001l2.599,2.599,6.938-6.938h-6.526c-.228,0-.413-.185-.413-.413v-2.254c0-.228,.185-.413,.413-.413h11.356c.228,0,.413,.185,.413,.413Z" fill="#fff"/></g><rect width="40" height="40" fill="none"/></svg>