<?xml version="1.0" encoding="UTF-8"?><svg id="a" xmlns="http://www.w3.org/2000/svg" viewBox="0 0 40 40"><g><path d="M21.656,2.999c-1.006-.665-2.306-.665-3.313,0-3.195,2.111-10.159,7.156-13.157,12.801-3.955,7.447,.69,14.876,6.826,14.876,3.498,0,5.604-1.828,6.768-3.399,.613-.828,1.826-.828,2.439,0,1.164,1.572,3.269,3.399,6.768,3.399,6.136,0,10.781-7.428,6.826-14.876-2.997-5.645-9.962-10.689-13.157-12.801Z" fill="#313d4c"/><path d="M20.003,22.73c-1.435,5.222-3.874,9.355-6.618,13.029-.496,.664-.118,1.742,.609,1.742h12.013c.732,0,1.105-1.089,.604-1.753-2.909-3.849-5.407-7.869-6.608-13.017Z" fill="#313d4c"/></g><rect width="40" height="40" fill="none"/></svg>