<?xml version="1.0" encoding="UTF-8"?><svg id="a" xmlns="http://www.w3.org/2000/svg" viewBox="0 0 40 40"><rect x="0" y="0" width="40" height="40" transform="translate(40 40) rotate(-180)" fill="none"/><g><path d="M37.071,20.336c1.484,3.302-1.259,6.567-2.547,6.593h-3.208l-4.818-8.551,7.105-4.111,3.412,5.9,.055,.169h0ZM20.095,6.053l-1.789-2.083h-1.93c-1.554-.025-3.449,.525-4.567,2.125l-.086,.14-3.411,5.902,7.107,4.113,5.155-8.427-.48-1.771Zm-8.004,29.121c-3.61-.366-5.188-4.056-4.573-5.204l1.454-2.993h10.645l-.532,8.226h-6.825l-.168-.029h0Z" fill="#0a9d60"/><path d="M34.247,26.881c.979-.029,1.644-.613,2.475-1.816l-5.415,9.117c-.389,.866-.923,1.007-1.481,.953h-4.785l-.029,2.907-4.029-6.994,4.056-7.076v2.907h9.208v.002ZM18.778,5.06c-.754-1.207-1.838-1.088-2.178-1.088h9.956c.951-.089,1.342,.276,1.595,.808l2.377,4.141,2.515-1.454-4.028,7.022-8.139,.03,2.489-1.455-4.586-8.004h0ZM7.725,29.538c-.474,.841-.337,1.644,.243,2.804L2.857,23.329c-.531-.786-.391-1.288-.086-1.764l2.406-4.139-2.515-1.483H10.747l4.113,7.049-2.518-1.452-4.617,7.998h0Z" fill="#4fc578"/></g></svg>