<?xml version="1.0" encoding="UTF-8"?><svg id="a" xmlns="http://www.w3.org/2000/svg" viewBox="0 0 40 40"><rect x="0" width="40" height="40" fill="none"/><g><rect x="3.5" y="3.5" width="33" height="33" rx="8" ry="8" fill="#007ff2"/><g><path d="M25.231,13.649c1.707,.324,3.175-1.145,2.852-2.852-.18-.948-.955-1.723-1.903-1.903-1.706-.323-3.175,1.145-2.851,2.851,.18,.948,.955,1.724,1.903,1.903Z" fill="#fff"/><path d="M27.367,19.021h-5.199l2.402-2.402c.658-.658,.658-1.724,0-2.381l-1.332-1.332c-.028-.03-.044-.067-.077-.094l-3.651-2.974c-.232-.189-.56-.207-.812-.045l-3.457,2.224c-.422,.271-.544,.833-.272,1.254,.271,.422,.833,.543,1.254,.272l2.772-1.783,1.516,1.235-3.177,3.177c-.526,.526-.624,1.311-.308,1.942-3.237,.392-5.754,3.152-5.754,6.493,0,3.609,2.936,6.546,6.545,6.546s6.546-2.937,6.546-6.546c0-1.027-.244-1.996-.668-2.862h2.118l-.548,4.12c-.099,.745,.425,1.43,1.17,1.529,.745,.099,1.43-.425,1.529-1.17l.753-5.66c.109-.816-.526-1.541-1.349-1.541Zm-4.82,5.584c0,2.609-2.122,4.731-4.731,4.731s-4.73-2.122-4.73-4.731,2.122-4.73,4.73-4.73c.32,0,.632,.034,.935,.094,.488,.098,.938,.289,1.36,.525,.53,.297,.992,.688,1.371,1.158,.025,.031,.051,.06,.075,.091,.611,.797,.99,1.782,.99,2.862Z" fill="#fff"/></g></g></svg>