<?xml version="1.0" encoding="UTF-8"?><svg id="a" xmlns="http://www.w3.org/2000/svg" viewBox="0 0 40 40"><path d="M29.689,10.847c-1.497,0-2.956,.38-4.329,1.125-.683,.366-1.301,.804-1.906,1.362l-5.066,5.055-4.995,4.984c-.259,.239-.565,.453-.923,.644-.704,.381-1.43,.576-2.16,.576-2.528,0-4.584-2.056-4.584-4.584h0c0-2.528,2.056-4.584,4.584-4.584,.72,0,1.444,.192,2.146,.567,.447,.243,.796,.489,1.055,.743l.026,.026c.89,.89,2.333,.89,3.223,0,.891-.89,.891-2.334,0-3.225l-.039-.039c-.582-.574-1.272-1.07-2.108-1.521-1.374-.737-2.823-1.111-4.303-1.111C5.27,10.865,1.168,14.967,1.167,20.009h0c0,5.043,4.103,9.144,9.144,9.144,1.497,0,2.956-.38,4.329-1.125,.683-.366,1.301-.804,1.906-1.362l5.066-5.054,4.995-4.984c.259-.239,.565-.453,.923-.644,.704-.381,1.43-.576,2.16-.576,2.528,0,4.584,2.056,4.584,4.584h0c0,2.528-2.056,4.584-4.584,4.584-.72,0-1.444-.192-2.146-.567-.447-.243-.796-.489-1.055-.743l-.026-.026c-.89-.89-2.333-.89-3.223,0-.891,.89-.891,2.334,0,3.225l.039,.039c.582,.574,1.272,1.07,2.108,1.521,1.374,.737,2.823,1.111,4.303,1.111,5.042,0,9.144-4.102,9.144-9.144h0c0-5.043-4.103-9.144-9.144-9.144Z" fill="#313d4c" fill-rule="evenodd"/><rect y="0" width="40" height="40" fill="none"/></svg>