<?xml version="1.0" encoding="UTF-8"?><svg id="Layer_1" xmlns="http://www.w3.org/2000/svg" viewBox="0 0 40 40"><g><g><polygon points="14.07 24.53 12.34 24.53 8.74 18.28 5.14 24.53 3.41 24.53 7.99 16.58 7.99 9.91 9.49 9.91 9.49 16.57 14.07 24.53" fill="#d0d6de"/><polygon points="36.74 24.53 35 24.53 31.41 18.28 27.81 24.53 26.07 24.53 30.66 16.58 30.66 9.91 32.16 9.91 32.16 16.58 36.74 24.53" fill="#d0d6de"/></g><g><path d="m2.035,24.531c-.336,0-.585.309-.527.64.303,1.736,1.817,3.055,3.639,3.055h7.039c1.822,0,3.336-1.319,3.639-3.055.058-.331-.191-.64-.527-.64H2.035Z" fill="#4e5968"/><path d="m37.965,24.531h-13.264c-.336,0-.585.309-.527.64.303,1.735,1.817,3.054,3.639,3.054h7.039c1.822,0,3.336-1.319,3.639-3.054.058-.331-.191-.64-.527-.64Z" fill="#4e5968"/></g><g><path d="m36.323,9.913c.69,0,1.25-.56,1.25-1.25s-.56-1.25-1.25-1.25h-14.315c.227.364.364.79.364,1.25s-.137.886-.364,1.25h14.315Z" fill="#a3b5c9"/><path d="m17.992,7.413H3.677c-.69,0-1.25.56-1.25,1.25s.56,1.25,1.25,1.25h14.315c-.227-.364-.364-.79-.364-1.25s.137-.886.364-1.25Z" fill="#a3b5c9"/><path d="m21.25,6.655v-3.082c0-.69-.56-1.25-1.25-1.25s-1.25.56-1.25,1.25v3.082c.364-.227.79-.364,1.25-.364s.886.137,1.25.364Z" fill="#a3b5c9"/><path d="m26.17,32.67v1.72c0,.57-.47,1.04-1.04,1.04h-10.26c-.57,0-1.04-.47-1.04-1.04v-1.72c0-.57.47-1.04,1.04-1.04h3.88V10.67c.36.23.79.36,1.25.36s.89-.13,1.25-.36v20.96h3.88c.57,0,1.04.47,1.04,1.04Z" fill="#a3b5c9"/></g><path d="m22.008,7.413c-.192-.308-.45-.566-.758-.758-.364-.227-.79-.364-1.25-.364s-.886.137-1.25.364c-.308.192-.566.45-.758.758-.227.364-.364.79-.364,1.25s.137.886.364,1.25c.192.308.45.566.758.758.364.227.79.364,1.25.364s.886-.137,1.25-.364c.308-.192.566-.45.758-.758.227-.364.364-.79.364-1.25s-.137-.886-.364-1.25Z" fill="#4e5968"/></g><rect x="0" width="40" height="40" fill="none"/></svg>