<?xml version="1.0" encoding="UTF-8"?><svg id="Layer_1" xmlns="http://www.w3.org/2000/svg" viewBox="0 0 40 40"><g><path d="m32.994,20c0-.006,0-.011,0-.017-.002-1.092.361-2.153,1.12-2.939l1.794-1.856c.489-.505.583-1.273.232-1.882l-2.273-3.937c-.351-.609-1.064-.911-1.746-.741l-2.353.588c-1.112.278-2.289.11-3.28-.467l-.029-.017c-.974-.567-1.691-1.489-2.001-2.573l-.671-2.343c-.193-.676-.811-1.142-1.514-1.142h-4.546c-.703,0-1.321.466-1.514,1.142l-.716,2.501c-.284.991-.937,1.837-1.834,2.345-.092.052-.184.106-.274.16-.897.537-1.97.691-2.984.437l-2.527-.631c-.682-.17-1.394.132-1.746.741l-2.273,3.937c-.351.609-.257,1.377.232,1.882l1.794,1.856c.759.786,1.123,1.846,1.121,2.939,0,.006,0,.012,0,.017,0,.006,0,.011,0,.017.002,1.093-.362,2.153-1.121,2.939l-1.794,1.856c-.489.505-.583,1.273-.232,1.882l2.273,3.937c.351.609,1.064.911,1.746.741l2.526-.631c1.014-.253,2.087-.1,2.984.437.091.055.183.108.275.16.897.508,1.55,1.354,1.834,2.345l.716,2.501c.193.676.811,1.142,1.514,1.142h4.546c.703,0,1.321-.466,1.514-1.142l.716-2.501c.284-.991.937-1.837,1.834-2.345.092-.052.184-.106.275-.16.897-.537,1.97-.691,2.984-.437l2.526.631c.682.17,1.394-.132,1.746-.741l2.273-3.937c.351-.609.257-1.377-.232-1.882l-1.794-1.856c-.759-.785-1.122-1.846-1.12-2.939,0-.006,0-.011,0-.017Z" fill="#a3adb7"/><path d="m20,27.274c-4.011,0-7.274-3.264-7.274-7.274s3.264-7.275,7.274-7.275,7.275,3.264,7.275,7.275-3.264,7.274-7.275,7.274Zm0-11.55c-2.356,0-4.274,1.918-4.274,4.275s1.918,4.274,4.274,4.274,4.275-1.918,4.275-4.274-1.918-4.275-4.275-4.275Z" fill="#303d4c"/></g><rect x="0" y="0" width="40" height="40" transform="translate(40 40) rotate(-180)" fill="none"/></svg>