<?xml version="1.0" encoding="UTF-8"?><svg id="Layer_1" xmlns="http://www.w3.org/2000/svg" viewBox="0 0 40 40"><g><rect x="3.5" y="3.5" width="33" height="33" rx="8" ry="8" fill="#786de7"/><path d="m19.975,18.231c-1.002,0-1.815.837-1.815,1.87s.813,1.87,1.815,1.87,1.815-.837,1.815-1.87-.813-1.87-1.815-1.87Z" fill="#fff"/><path d="m19.975,33.034c-3.415,0-5.259-6.715-5.259-13.033s1.844-13.034,5.259-13.034,5.259,6.715,5.259,13.034-1.844,13.033-5.259,13.033Zm0-24.267c-1.41,0-3.458,4.376-3.458,11.234s2.048,11.233,3.458,11.233,3.458-4.376,3.458-11.233-2.048-11.234-3.458-11.234Z" fill="#fff"/><path d="m27.77,28.05c-.593,0-1.276-.062-2.065-.205-2.496-.451-5.465-1.619-8.359-3.291-5.471-3.159-10.364-8.113-8.657-11.07.556-.963,1.97-1.979,5.558-1.328,2.496.451,5.465,1.62,8.359,3.291h0c5.471,3.159,10.364,8.113,8.657,11.07-.434.751-1.39,1.533-3.492,1.533Zm-15.566-14.292c-1.005,0-1.721.217-1.957.626-.705,1.222,2.061,5.184,7.999,8.612,2.719,1.57,5.481,2.663,7.778,3.078,1.879.337,3.323.16,3.68-.457.705-1.222-2.061-5.184-7.999-8.612-2.719-1.57-5.481-2.663-7.778-3.078-.632-.114-1.215-.17-1.723-.17Z" fill="#fff"/><path d="m12.18,28.05c-2.103,0-3.059-.782-3.492-1.533-1.707-2.958,3.187-7.911,8.657-11.07h0c2.895-1.671,5.863-2.84,8.359-3.291,3.588-.647,5.002.365,5.558,1.328,1.707,2.958-3.187,7.911-8.657,11.07-2.895,1.671-5.863,2.84-8.359,3.291-.789.143-1.473.205-2.065.205Zm6.065-11.045h0c-5.938,3.429-8.704,7.391-7.999,8.612.355.616,1.799.794,3.68.457,2.297-.415,5.06-1.508,7.778-3.078,5.938-3.429,8.704-7.391,7.999-8.612-.356-.617-1.801-.796-3.68-.456-2.297.415-5.06,1.508-7.778,3.078Z" fill="#fff"/></g><rect x="0" y="0" width="40" height="40" transform="translate(40 40) rotate(-180)" fill="none"/></svg>