<?xml version="1.0" encoding="UTF-8"?><svg id="Layer_1" xmlns="http://www.w3.org/2000/svg" viewBox="0 0 40 40"><g><g><path d="m18.082,15.425l-3.531-3.759s-1.802-1.773-.909-3.065c2.249-3.249,7.537-.885,7.537-.885l.162-.741c-8.045-5.678-15.154,1.498-15.154,1.498L1.196,13.266c-.252.241-.263.64-.024.894l2.702,2.876c.261.295.711.324,1.007.063l1.119-1.021c1.708-1.581,3.235-2.679,4.756-1.167l3.69,3.929h0s3.636-3.415,3.636-3.415Z" fill="#abb7c7"/><path d="m38.818,15.28l-.667-.976c-1.372-2.006-2.929-3.879-4.65-5.595-1.67-1.665-3.489-3.175-5.432-4.511l-1.062-.73c-.249-.244-.648-.242-.895.004l-2.79,2.79c-.287.27-.301.721-.032,1.008l1.055,1.087c1.634,1.657,2.779,3.149,1.316,4.718l-3.359,3.359,1.055-1.009,3.527,3.527h-.001s2.328-2.327,2.328-2.327c1.568-1.464,3.06-.318,4.718,1.316l1.087,1.055c.287.27.739.255,1.008-.032l2.79-2.79c.247-.247.248-.646.004-.895Z" fill="#abb7c7"/></g><g><polygon points="18.082 15.425 18.082 15.425 14.446 18.84 14.447 18.84 16.897 21.601 20.637 18.026 18.082 15.425" fill="#4e5968"/><path d="m23.444,28.979l6.319,7.121c.684.771,1.869.824,2.62.119l1.823-1.713c.748-.702.772-1.883.053-2.615l-9.751-9.926.983,1-2.047,6.012Z" fill="#4e5968"/><path d="m23.357,15.424l-1.055,1.009-1.665,1.592-3.74,3.576-10.224,9.775c-.742.709-.755,1.889-.029,2.615l1.769,1.769c.729.728,1.915.712,2.622-.037l9.486-10.038,3.746-3.964,2.616-2.769h.001s-3.527-3.528-3.527-3.528Z" fill="#4e5968"/></g><polygon points="22.173 27.547 23.444 28.979 23.444 28.979 25.491 22.967 24.508 21.966 24.267 21.721 24.267 21.721 20.521 25.685 22.173 27.547" fill="#2e383d"/></g><rect x="0" width="40" height="40" fill="none"/></svg>