<?xml version="1.0" encoding="UTF-8"?><svg id="Layer_1" xmlns="http://www.w3.org/2000/svg" viewBox="0 0 40 40"><g><path d="M32.99396,19.9998v-.01704c-.0019-1.09241,.36119-2.15313,1.12041-2.9386l1.7943-1.85634c.48851-.5054,.58299-1.27334,.23155-1.88208l-2.27278-3.93676c-.35145-.60875-1.06374-.91093-1.74571-.74058l-2.35335,.58786c-1.11233,.27786-2.28919,.11041-3.27988-.46668l-.02903-.01691c-.97413-.56744-1.69125-1.48943-2.00149-2.57325l-.67067-2.34303c-.19344-.67579-.81128-1.1416-1.51421-1.1416h-4.54583c-.70292,0-1.32075,.46579-1.51419,1.14158l-.71599,2.50134c-.28356,.99062-.93709,1.83687-1.83371,2.34462-.0922,.05221-.1837,.10553-.27448,.15993-.89684,.53739-1.96961,.69073-2.98395,.4373l-2.52665-.63129c-.68199-.1704-1.39434,.13178-1.7458,.74057l-2.27273,3.93676c-.35145,.60876-.25695,1.37672,.2316,1.88212l1.79414,1.85603c.75932,.78551,1.12283,1.84628,1.12094,2.9388v.03431c.00187,1.09253-.36162,2.1533-1.12095,2.93882l-1.79414,1.85602c-.48855,.5054-.58305,1.27335-.2316,1.88212l2.27272,3.93674c.35147,.6088,1.06383,.91097,1.74582,.74056l2.52616-.63122c1.01431-.25345,2.08706-.10016,2.98389,.43721,.09097,.05451,.18266,.10794,.27505,.16025,.89673,.50775,1.55032,1.35409,1.83387,2.34481l.71582,2.50103c.19342,.67581,.81126,1.14162,1.5142,1.14162h4.54573c.70296,0,1.32082-.46585,1.51422-1.14168l.7157-2.50098c.28354-.9908,.93718-1.83717,1.83395-2.34498,.09223-.05223,.18376-.10556,.27458-.15998,.8968-.53732,1.96951-.69061,2.98379-.43719l2.52641,.63123c.68199,.1704,1.39433-.13178,1.74579-.74056l2.27275-3.93672c.35144-.60874,.25696-1.37666-.23154-1.88206l-1.79436-1.85645c-.75919-.78546-1.12227-1.84617-1.12039-2.93856v-.01707Z" style="fill:#a3adb7;"/><path d="M20,27.27441c-4.01074,0-7.27441-3.26367-7.27441-7.27441,0-4.01172,3.26367-7.27539,7.27441-7.27539,4.01172,0,7.27539,3.26367,7.27539,7.27539,0,4.01074-3.26367,7.27441-7.27539,7.27441Zm0-11.5498c-2.35645,0-4.27441,1.91797-4.27441,4.27539,0,2.35645,1.91797,4.27441,4.27441,4.27441,2.35742,0,4.27539-1.91797,4.27539-4.27441,0-2.35742-1.91797-4.27539-4.27539-4.27539Z" style="fill:#303d4c;"/></g><rect x="0" y="0" width="40" height="40" transform="translate(40 40) rotate(-180)" style="fill:none;"/></svg>