<?xml version="1.0" encoding="UTF-8"?><svg id="a" xmlns="http://www.w3.org/2000/svg" viewBox="0 0 40 40"><rect x="0" y="0" width="40" height="40" transform="translate(40 40) rotate(-180)" fill="none"/><g><g><path d="M21.15,25.163c-.068,.78-.055,1.556,.022,2.326h6.3c.642,0,1.163-.52,1.163-1.163s-.521-1.163-1.163-1.163h-6.321Z" fill="orange"/><path d="M18.85,25.163h-6.321c-.642,0-1.163,.52-1.163,1.163s.521,1.163,1.163,1.163h6.3c.076-.77,.089-1.546,.022-2.326Z" fill="orange"/></g><g><path d="M17,22.043c-4.308-7.542-8.518-6.921-10.915-5.59-1.497,.831-2.646,2.234-3.122,3.879-1.39,4.797,4.763,6.09,4.763,6.09-3.131-5.892,2.06-5.686,2.06-5.686,2.867,.423,4.431,2.078,5.284,3.722,.122,.235,.212,.47,.281,.705h2.813c-.209-1.091-.61-2.149-1.164-3.12Z" fill="#fb0"/><path d="M9.531,29.191c-.076-.057-.117-.09-.117-.09-.681,3.077,1.57,3.811,3.632,3.873,2.131,.064,4.074-1.265,4.786-3.275,.264-.744,.405-1.468,.466-2.145,.002-.021,.001-.043,.003-.064h-3.055c-.828,2.083-3.523,3.332-5.715,1.702Z" fill="#fb0"/><path d="M37.037,20.333c-.477-1.645-1.625-3.048-3.122-3.879-2.396-1.331-6.607-1.952-10.915,5.59-.555,.971-.955,2.029-1.164,3.12h2.813c.069-.234,.159-.47,.281-.705,.853-1.644,2.417-3.298,5.284-3.722,0,0,5.191-.206,2.06,5.686,0,0,6.153-1.294,4.763-6.09Z" fill="#fb0"/><path d="M21.702,27.553c.06,.677,.202,1.401,.466,2.145,.712,2.01,2.655,3.339,4.786,3.275,2.062-.062,4.313-.796,3.632-3.873,0,0-.041,.034-.117,.09-2.192,1.63-4.887,.381-5.715-1.702h-3.055c.002,.021,.001,.043,.003,.064Z" fill="#fb0"/><path d="M21.15,25.16c-.07,.78-.06,1.56,.02,2.33,.18,1.81,.71,3.58,1.43,5.28,.13,.31,.22,.67,.22,1.07,0,1.09-.65,2.5-2.82,4.16-2.96-2.27-3.09-4.06-2.6-5.23,.72-1.7,1.25-3.47,1.43-5.28,.08-.77,.09-1.55,.02-2.33-.01-.07-.01-.14-.01-.22-.06-.56-.14-1.1-.21-1.58-.21-1.4-.77-2.74-1.66-3.84-3.06-3.8-2.54-5.87-2.54-5.87-.12-4.74,4.34-10.23,5.57-11.65,1.23,1.41,5.69,6.9,5.57,11.65,0,0,.52,2.07-2.54,5.87-.89,1.1-1.45,2.44-1.66,3.84-.08,.48-.15,1.02-.21,1.58,0,.08,0,.15-.01,.22Z" fill="#fb0"/></g></g></svg>