<svg id="Layer_1" data-name="Layer 1" xmlns="http://www.w3.org/2000/svg" viewBox="0 0 40 40"><defs><style>.cls-1,.cls-2{fill:none;}.cls-2{stroke:#8595aa;stroke-linecap:round;stroke-linejoin:round;stroke-width:3.014px;}.cls-3,.cls-4{fill:#abb7c7;}.cls-4{fill-rule:evenodd;}</style></defs><rect class="cls-1" width="40" height="40"/><rect class="cls-1" width="40" height="40"/><line class="cls-2" x1="13.581" y1="17.598" x2="26.419" y2="17.598"/><path class="cls-3" d="M20,11.135H17.729V28.772c-.069,2.166-2.162,2.371-3.994,2.371-1.6,0-5.084-.865-6.663-3.791-.22-.407-2.825.724-2.617,1.178C5.888,31.661,10.019,38,20,38s14.113-6.339,15.545-9.47c.208-.454-2.4-1.585-2.616-1.178-1.58,2.926-5.067,3.791-6.664,3.791-1.832,0-3.925-.205-3.994-2.371V11.135H20"/><path class="cls-4" d="M20.026,2a5.868,5.868,0,1,0,5.868,5.868A5.868,5.868,0,0,0,20.026,2Zm0,8.754a2.886,2.886,0,1,1,2.886-2.886A2.886,2.886,0,0,1,20.026,10.754Z"/><circle class="cls-3" cx="27.962" cy="17.598" r="2.538"/><circle class="cls-3" cx="12.157" cy="17.598" r="2.538"/><path class="cls-3" d="M37.248,22.328l1.633,5.4a1.37,1.37,0,0,1-1.766,1.69L30.83,27.2a1.37,1.37,0,0,1-.319-2.423L35.162,21.6A1.371,1.371,0,0,1,37.248,22.328Z"/><path class="cls-3" d="M2.752,22.328l-1.633,5.4a1.37,1.37,0,0,0,1.766,1.69L9.17,27.2a1.37,1.37,0,0,0,.319-2.423L4.838,21.6A1.371,1.371,0,0,0,2.752,22.328Z"/></svg>