<?xml version="1.0" encoding="UTF-8"?><svg id="Layer_1" xmlns="http://www.w3.org/2000/svg" viewBox="0 0 40 40"><rect width="40" height="40" fill="none"/><path d="m35.47,5.16v-.02c-.15-.37-.45-.66-.82-.82h-.02c-.17-.07-.36-.11-.55-.11h-5.07c-.83,0-1.5.67-1.5,1.5s.67,1.5,1.5,1.5h1.45l-5.51,5.51c-.01.01-.01.02-.02.03-1.4-.97-3.1-1.55-4.93-1.55s-3.53.58-4.93,1.55c-.01-.01-.01-.02-.02-.03l-1.25-1.25,1.36-1.35c.59-.59.59-1.54,0-2.13-.59-.58-1.54-.58-2.12,0l-1.36,1.36-2.14-2.14h1.45c.83,0,1.5-.67,1.5-1.5s-.67-1.5-1.5-1.5h-5.07c-.19,0-.38.04-.55.11h-.02c-.37.16-.67.45-.82.82v.02c-.07.17-.11.36-.11.55v5.07c0,.83.67,1.5,1.5,1.5s1.5-.67,1.5-1.5v-1.45l2.14,2.14-1.36,1.36c-.58.59-.58,1.54,0,2.12.3.29.68.44,1.06.44.39,0,.77-.15,1.06-.44l1.36-1.36,1.25,1.25c.01.01.02.01.03.02-.98,1.4-1.56,3.1-1.56,4.93,0,4.24,3.07,7.75,7.1,8.46v1.54h-2.15c-.83,0-1.5.67-1.5,1.5s.67,1.5,1.5,1.5h2.15v1.5c0,.83.67,1.5,1.5,1.5s1.5-.67,1.5-1.5v-1.5h2.15c.83,0,1.5-.67,1.5-1.5s-.67-1.5-1.5-1.5h-2.15v-1.54c4.03-.71,7.1-4.22,7.1-8.46,0-1.83-.58-3.53-1.56-4.93.01-.01.02-.01.03-.02l5.51-5.51v1.45c0,.83.67,1.5,1.5,1.5s1.5-.67,1.5-1.5v-5.07c0-.19-.04-.38-.11-.55Zm-15.47,20.23c-3.09,0-5.6-2.51-5.6-5.6s2.51-5.59,5.6-5.59,5.6,2.51,5.6,5.59-2.51,5.6-5.6,5.6Z" fill="#afb7c0"/></svg>