<svg id="Layer_1" data-name="Layer 1" xmlns="http://www.w3.org/2000/svg" viewBox="0 0 40 40"><defs><style>.cls-1,.cls-3{fill:none;}.cls-2{fill:#afb7c0;}.cls-3{stroke:#afb7c0;stroke-linecap:round;stroke-linejoin:round;stroke-width:3px;}</style></defs><rect class="cls-1" width="40" height="40"/><path class="cls-2" d="M20,14.2a5.6,5.6,0,1,1-5.6,5.6A5.6,5.6,0,0,1,20,14.2m0-3a8.595,8.595,0,1,0,8.595,8.6A8.595,8.595,0,0,0,20,11.2Z"/><line class="cls-3" x1="26.01" y1="13.78" x2="34.081" y2="5.709"/><polyline class="cls-3" points="29.01 5.709 34.081 5.709 34.081 10.78"/><line class="cls-3" x1="20" y1="28.291" x2="20" y2="34.291"/><line class="cls-3" x1="13.99" y1="13.78" x2="5.919" y2="5.709"/><polyline class="cls-3" points="10.99 5.709 5.919 5.709 5.919 10.78"/><line class="cls-3" x1="9.264" y1="13.891" x2="14.1" y2="9.055"/><line class="cls-3" x1="16.348" y1="31.291" x2="23.652" y2="31.291"/></svg>