<?xml version="1.0" encoding="UTF-8"?><svg id="Layer_1" xmlns="http://www.w3.org/2000/svg" viewBox="0 0 40 40"><g><g><g id="SVGID"><circle cx="20" cy="20" r="17.5" fill="#e5e8eb"/></g><path d="m8.359,6.986c-.497.444-.967.914-1.41,1.411,2.074,2.489,8.474,11.786-.071,23.183.445.506.92.983,1.42,1.434,9.694-12.676,2.257-23.366.061-26.027Z" fill="#a3b5c9"/><path d="m33.122,31.58c-8.546-11.396-2.146-20.694-.072-23.183-.443-.497-.913-.967-1.41-1.411-2.196,2.661-9.633,13.351.061,26.027.5-.451.975-.928,1.42-1.434Z" fill="#a3b5c9"/></g><rect width="40" height="40" fill="none"/></g><path d="m13.156,21h-1.956c-.552,0-1-.448-1-1s.448-1,1-1h1.956c.552,0,1,.448,1,1s-.448,1-1,1Z" fill="#fa2d4c"/><path d="m10.583,16.313c-.441,0-.846-.295-.965-.742-.143-.533.173-1.082.707-1.225l1.889-.506c.533-.146,1.082.174,1.225.707s-.173,1.082-.707,1.225l-1.889.506c-.086.023-.174.035-.259.035Z" fill="#fa2d4c"/><path d="m8.775,11.944c-.346,0-.682-.179-.867-.5-.276-.478-.113-1.09.366-1.366l1.693-.978c.478-.278,1.09-.113,1.366.366.276.478.113,1.09-.366,1.366l-1.693.978c-.157.091-.33.134-.499.134Z" fill="#fa2d4c"/><path d="m12.473,26.194c-.085,0-.172-.011-.259-.035l-1.889-.506c-.533-.143-.85-.691-.707-1.225.143-.533.688-.854,1.225-.707l1.889.506c.533.143.85.691.707,1.225-.12.447-.523.742-.965.742Z" fill="#fa2d4c"/><path d="m10.467,31.033c-.169,0-.341-.043-.499-.134l-1.694-.978c-.478-.276-.642-.888-.366-1.366.275-.479.886-.644,1.366-.366l1.694.978c.478.276.642.888.366,1.366-.185.321-.521.5-.867.5Z" fill="#fa2d4c"/><path d="m28.799,21h-1.956c-.552,0-1-.448-1-1s.448-1,1-1h1.956c.552,0,1,.448,1,1s-.448,1-1,1Z" fill="#fa2d4c"/><path d="m29.417,16.313c-.085,0-.173-.011-.259-.035l-1.889-.506c-.534-.143-.85-.691-.707-1.225.143-.533.691-.851,1.225-.707l1.889.506c.534.143.85.691.707,1.225-.12.447-.524.742-.965.742Z" fill="#fa2d4c"/><path d="m31.225,11.944c-.169,0-.342-.043-.499-.134l-1.693-.978c-.479-.276-.642-.888-.366-1.366.275-.479.887-.644,1.366-.366l1.693.978c.479.276.642.888.366,1.366-.185.321-.521.5-.867.5Z" fill="#fa2d4c"/><path d="m27.527,26.194c-.442,0-.846-.295-.965-.742-.143-.534.174-1.082.707-1.225l1.889-.506c.537-.146,1.082.174,1.225.707.143.534-.174,1.082-.707,1.225l-1.889.506c-.087.023-.174.035-.259.035Z" fill="#fa2d4c"/><path d="m29.533,31.033c-.346,0-.682-.179-.867-.5-.276-.479-.112-1.09.366-1.366l1.694-.978c.478-.277,1.09-.113,1.366.366.276.479.112,1.09-.366,1.366l-1.694.978c-.158.091-.33.134-.499.134Z" fill="#fa2d4c"/></svg>