<?xml version="1.0" encoding="UTF-8"?><svg id="a" xmlns="http://www.w3.org/2000/svg" viewBox="0 0 40 40"><rect width="40" height="40" fill="none"/><g><path d="M36.434,17.667c0-9.076-7.358-12.259-16.434-12.259S3.567,8.591,3.567,17.667c0,4.164,4.963,10.746,8.707,16.653h15.454c3.744-5.907,8.707-12.489,8.707-16.653Z" fill="#e3d6c3"/><path d="M14.413,3.5h11.174c1.355,0,2.455,1.1,2.455,2.455v.507H11.958v-.507c0-1.355,1.1-2.455,2.455-2.455Z" fill="#997642"/><path d="M12.273,34.32h15.453v1.23c0,.524-.426,.95-.95,.95H13.224c-.524,0-.95-.426-.95-.95v-1.23h0Z" fill="#997642"/><path d="M36.188,15.066H3.812c-.15,.812-.246,1.668-.246,2.601,0,.138,.019,.285,.03,.427H36.404c.011-.143,.03-.29,.03-.427,0-.933-.096-1.789-.245-2.601Z" fill="#d7bf95"/></g></svg>