<?xml version="1.0" encoding="UTF-8"?><svg id="Layer_1" xmlns="http://www.w3.org/2000/svg" viewBox="0 0 40 40"><g opacity=".1"><rect x="0" y="0" width="40" height="40" transform="translate(40 40) rotate(-180)" fill="none"/></g><g><path d="m31.507,7.83C23.31-.368,15.092,1.063,11.533,2.269c-.517.175-.473.933.062,1.042,4.277.87,8.236,3.279,9.548,4.592,1.505,1.505,3.067,3.38,1.475,5.085l-4.168,4.168.025.025,1.84,1.84,1.84,1.84.025.025,4.168-4.168c1.705-1.591,3.58-.029,5.085,1.475,1.312,1.312,3.721,5.272,4.592,9.548.109.535.867.579,1.042.062,1.206-3.559,2.636-11.776-5.561-19.974Z" fill="#abb7c7"/><path d="m24.589,18.478l-1.865-1.865-1.865-1.865L2.623,31.98c-.814.769-.832,2.059-.04,2.851l.962.962.962.962c.792.792,2.082.774,2.851-.04l17.232-18.236Z" fill="#4e5968"/></g></svg>