<?xml version="1.0" encoding="UTF-8"?><svg id="Layer_1" xmlns="http://www.w3.org/2000/svg" viewBox="0 0 40 40"><rect width="40" height="40" fill="none"/><g><g><path d="m27.053,20.568l2.06-2.06c.336-.336.336-.881,0-1.217l-2.06-2.06c-.217-.217-.302-.534-.223-.831l.754-2.814c.123-.459-.149-.931-.609-1.054l-2.814-.754c-.297-.08-.529-.312-.609-.609l-.754-2.814c-.123-.459-.595-.732-1.054-.609l-2.814.754c-.297.08-.614-.005-.831-.223l-2.06-2.06c-.336-.336-.881-.336-1.217,0l-2.06,2.06c-.217.217-.534.302-.831.223l-2.814-.754c-.459-.123-.931.149-1.054.609l-.754,2.814c-.08.297-.312.529-.609.609l-2.814.754c-.459.123-.732.595-.609,1.054l.754,2.814c.08.297-.005.614-.223.831l-2.06,2.06c-.336.336-.336.881,0,1.217l2.06,2.06c.217.217.302.534.223.831l-.754,2.814c-.123.459.149.931.609,1.054l2.814.754c.297.08.529.312.609.609l.754,2.814c.123.459.595.732,1.054.609l2.814-.754c.297-.08.614.005.831.223l2.06,2.06c.336.336.881.336,1.217,0l2.06-2.06c.217-.217.534-.302.831-.223l2.814.754c.459.123.931-.149,1.054-.609l.754-2.814c.08-.297.312-.529.609-.609l2.814-.754c.459-.123.732-.595.609-1.054l-.754-2.814c-.08-.297.005-.614.223-.831Z" fill="#ffcd00"/><circle cx="15.433" cy="17.963" r="8.121" fill="#fa0"/></g><g><polygon points="32.127 36.033 13.13 36.033 13.13 26.191 31.874 27.456 32.127 36.033" fill="#e5e8eb"/><circle cx="25.189" cy="22.261" r="7.849" fill="#e5e8eb"/><circle cx="31.844" cy="29.377" r="6.656" fill="#e5e8eb"/><circle cx="13.13" cy="29.853" r="6.18" fill="#e5e8eb"/><circle cx="17.34" cy="23.399" r="5.058" fill="#e5e8eb"/></g></g></svg>