<?xml version="1.0" encoding="UTF-8"?><svg id="Layer_1" xmlns="http://www.w3.org/2000/svg" viewBox="0 0 40 40"><rect width="40" height="40" style="fill:none;"/><g><g><path d="M27.05327,20.56837l2.05982-2.05982c.33609-.33609,.33609-.88101,0-1.2171l-2.0598-2.05973c-.21742-.21741-.30233-.53431-.22275-.83131l.75394-2.81359c.12302-.45911-.14943-.93102-.60853-1.05404l-2.81362-.75394c-.29698-.07958-.52895-.31155-.60853-.60854l-.75395-2.81371c-.12302-.45911-.59493-.73156-1.05403-.60854l-2.8137,.75395c-.29699,.07958-.61388-.00533-.83129-.22274l-2.05973-2.05973c-.33609-.33609-.88101-.33609-1.2171,0l-2.05964,2.05971c-.21741,.21742-.53431,.30233-.8313,.22275l-2.81369-.75395c-.45911-.12302-.93101,.14943-1.05403,.60854l-.75395,2.81371c-.07958,.29699-.31155,.52896-.60854,.60854l-2.81371,.75395c-.45911,.12302-.73156,.59493-.60854,1.05403l.75395,2.81369c.07958,.297-.00533,.61389-.22275,.8313l-2.05971,2.05964c-.3361,.33609-.3361,.88101,0,1.2171l2.05973,2.05973c.21741,.21741,.30232,.5343,.22274,.83129l-.75395,2.8137c-.12302,.45911,.14943,.93101,.60854,1.05403l2.81371,.75395c.29698,.07958,.52896,.31155,.60854,.60853l.75394,2.81362c.12302,.45911,.59493,.73155,1.05404,.60853l2.81359-.75394c.297-.07958,.61389,.00533,.83131,.22275l2.05973,2.0598c.33609,.3361,.88101,.3361,1.2171,0l2.05982-2.05982c.21741-.21741,.53431-.30232,.8313-.22274l2.8136,.75394c.45911,.12302,.93102-.14943,1.05404-.60853l.75395-2.81362c.07958-.29698,.31155-.52895,.60853-.60853l2.81362-.75395c.45911-.12302,.73155-.59493,.60853-1.05404l-.75394-2.8136c-.07958-.29699,.00533-.61388,.22274-.8313Z" style="fill:#ffcd00;"/><circle cx="15.43258" cy="17.96349" r="8.12121" style="fill:#fa0;"/></g><g><polygon points="32.12683 36.03254 13.13009 36.03254 13.13009 26.19137 31.87445 27.4556 32.12683 36.03254" style="fill:#e5e8eb;"/><circle cx="25.18872" cy="22.26119" r="7.84893" style="fill:#e5e8eb;"/><circle cx="31.84436" cy="29.3769" r="6.65564" style="fill:#e5e8eb;"/><circle cx="13.13009" cy="29.85274" r="6.17979" style="fill:#e5e8eb;"/><circle cx="17.33979" cy="23.39877" r="5.05843" style="fill:#e5e8eb;"/></g></g></svg>