<svg id="Layer_1" data-name="Layer 1" xmlns="http://www.w3.org/2000/svg" viewBox="0 0 40 40"><defs><style>.cls-1{fill:#786de7;}.cls-2{fill:#fff;}.cls-3{fill:none;opacity:0.1;}</style></defs><rect class="cls-1" x="3.5" y="3.5" width="33" height="33" rx="8"/><path class="cls-2" d="M30.759,17.854l-2.345-1.716a7.219,7.219,0,0,1-1.778,2.331V9.735H24.161V19.2c-2.606-.349-4.688-4.042-8.322-4.233V9.735H13.364v5.692a9.194,9.194,0,0,0-4.123,4.091l2.345,1.652a7.209,7.209,0,0,1,1.778-2.322V23.63a6.636,6.636,0,0,0,13.272,0V21.886A9.214,9.214,0,0,0,30.759,17.854ZM20,27.79a4.165,4.165,0,0,1-4.161-4.16V18.114c2.6.348,4.687,4.043,8.322,4.233V23.63A4.165,4.165,0,0,1,20,27.79Z"/><rect class="cls-3" width="40" height="40" transform="translate(40 40) rotate(-180)"/></svg>