<?xml version="1.0" encoding="UTF-8"?><svg id="Layer_1" xmlns="http://www.w3.org/2000/svg" viewBox="0 0 40 40"><g><path d="m20,35.722c-5.718,0-10.553-3.824-12.101-9.047h-2.579c1.614,6.615,7.574,11.547,14.68,11.547s13.066-4.931,14.68-11.547h-2.579c-1.547,5.223-6.382,9.047-12.101,9.047Z" fill="#4b596a"/><path d="m37.11,21.43l-.62-.44v-.11c0-7.38-4.73-13.87-11.41-16.11-.27-1.54-1.61-2.71-3.23-2.71h-3.7c-1.6,0-2.93,1.14-3.22,2.65C8.25,6.81,3.4,12.95,3.4,20.33v.66l-.58.44c-.83.62-1.32,1.59-1.32,2.63v.21c0,1.33,1.08,2.41,2.41,2.41h32.18c1.33,0,2.41-1.08,2.41-2.41v-.16c0-1.06-.52-2.06-1.39-2.68Zm-10.35-4.94c0,.28-.23.51-.51.51h-3.61c-.28,0-.51.23-.51.51v3.61c0,.29-.23.52-.52.52h-3.22c-.29,0-.52-.23-.52-.52v-3.61c0-.28-.23-.51-.51-.51h-3.61c-.28,0-.51-.23-.51-.51v-3.23c0-.28.23-.51.51-.51h3.61c.28,0,.51-.23.51-.52v-3.61c0-.28.23-.51.52-.51h3.22c.29,0,.52.23.52.51v3.61c0,.29.23.52.51.52h3.61c.28,0,.51.23.51.51v3.23Z" fill="#ef4452"/><path d="m22.126,12.235v-3.611c0-.284-.23-.514-.514-.514h-3.224c-.284,0-.514.23-.514.514v3.611c0,.284-.23.514-.514.514h-3.611c-.284,0-.514.23-.514.514v3.224c0,.284.23.514.514.514h3.611c.284,0,.514.23.514.514v3.611c0,.284.23.514.514.514h3.224c.284,0,.514-.23.514-.514v-3.611c0-.284.23-.514.514-.514h3.611c.284,0,.514-.23.514-.514v-3.224c0-.284-.23-.514-.514-.514h-3.611c-.284,0-.514-.23-.514-.514Z" fill="#fff"/></g><g opacity=".1"><rect width="40" height="40" transform="translate(40 40) rotate(-180)" fill="none"/></g></svg>