<?xml version="1.0" encoding="UTF-8"?><svg id="Layer_1" xmlns="http://www.w3.org/2000/svg" viewBox="0 0 40 40"><rect x="0" width="40" height="40" fill="none"/><g><path d="m23.62,3.47v2.07h-2.58v2.42l-.28-.27c-.42-.42-1.1-.42-1.52,0l-.28.27v-2.42h-2.58v-2.07h2.58V.64h2.08v2.83h2.58Z" fill="#d12030"/><g><path d="m25.674,37.357h8.169c1.191,0,2.157-.966,2.157-2.157v-18.258h-10.326v20.416Z" fill="#cecfcf"/><path d="m4,16.941v18.258c0,1.191.966,2.157,2.157,2.157h8.169v-20.416H4Z" fill="#cecfcf"/></g><path d="m36,15.86v1.08h-10.33l-5.67-5.7-5.67,5.7H4v-1.08c0-1.19.97-2.16,2.16-2.16h7.09l5.71-5.74.28-.27c.42-.42,1.1-.42,1.52,0l.28.27,5.71,5.74h7.09c1.19,0,2.16.97,2.16,2.16Z" fill="#ef4452"/><path d="m25.674,16.941l-5.674-5.702-5.674,5.702h0v20.416h2.977v-4.697c0-1.489,1.207-2.697,2.697-2.697s2.697,1.207,2.697,2.697v4.697h2.977v-20.416h0Zm-5.674,6.396c-1.489,0-2.697-1.207-2.697-2.697s1.207-2.697,2.697-2.697,2.697,1.207,2.697,2.697-1.207,2.697-2.697,2.697Z" fill="#e0e0e0"/><circle cx="20" cy="20.641" r="2.697" fill="#fff"/><path d="m20,29.963c-1.489,0-2.697,1.207-2.697,2.697v4.697h5.393v-4.697c0-1.489-1.207-2.697-2.697-2.697Z" fill="#6b7683"/></g></svg>