<?xml version="1.0" encoding="UTF-8"?><svg id="Layer_1" xmlns="http://www.w3.org/2000/svg" viewBox="0 0 40 40"><rect width="40" height="40" style="fill:none;"/><g><rect x="4" y="16.09798" width="32" height="2.73633" rx="1.29462" ry="1.29462" style="fill:#d12030;"/><rect x="18.48737" y="10.88175" width="3.02526" height="5.93023" style="fill:#d12030;"/><path d="M20.0918,10.27344c-5.85645,0-11.41211-.64746-16.06543-1.87109-.99316-.26172-1.58594-1.27832-1.3252-2.27051s1.27832-1.58496,2.27051-1.3252c4.34961,1.14453,9.57812,1.75,15.12012,1.75,5.45898,0,10.62695-.58887,14.94434-1.7041,1-.25391,2.00781,.3418,2.26465,1.33496,.25586,.99414-.3418,2.00781-1.33496,2.26465-4.61719,1.19141-10.10645,1.82129-15.87402,1.82129Z" style="fill:#2d3d4d;"/><path d="M20.0918,12.7207c-5.8291,0-11.35645-.64355-15.98438-1.86035-.7373-.19434-1.17676-.94922-.9834-1.68652,.19434-.73633,.94629-1.17871,1.68652-.9834,4.40137,1.1582,9.68555,1.77051,15.28125,1.77051,5.5127,0,10.73535-.59668,15.10449-1.72461,.73438-.18848,1.49023,.25293,1.68164,.99219,.19043,.73828-.25391,1.49023-.99219,1.68164-4.59082,1.18457-10.05176,1.81055-15.79395,1.81055Z" style="fill:#d12030;"/><path d="M8.66597,10.88175l-2.10945,23.72058c-.03789,.42609,.2978,.79296,.72557,.79296h2.63638c.39304,0,.71521-.31182,.72804-.70465l.77779-23.80889h-2.75833Z" style="fill:#d12030;"/><path d="M31.33407,10.88175l2.10945,23.72058c.03789,.42609-.2978,.79296-.72557,.79296h-2.63638c-.39304,0-.71521-.31182-.72804-.70465l-.77779-23.80889h2.75833Z" style="fill:#d12030;"/><path d="M6.88011,30.96379l-.32367,3.63852c-.0377,.4261,.29788,.79299,.72559,.79299h2.63648c.39303,0,.71509-.31184,.7279-.70469l.12182-3.72682h-3.88812Z" style="fill:#2d3d4d;"/><path d="M29.3534,34.6906c.01298,.39285,.33505,.70469,.72808,.70469h2.63648c.42771,0,.76347-.36688,.72559-.79299l-.32349-3.63852h-3.88829l.12164,3.72682Z" style="fill:#2d3d4d;"/></g><rect width="40" height="40" style="fill:none;"/></svg>