<?xml version="1.0" encoding="UTF-8"?><svg id="Layer_1" xmlns="http://www.w3.org/2000/svg" viewBox="0 0 40 40"><rect width="40" height="40" style="fill:none;"/><g><polygon points="5.16672 31.24463 34.58269 31.24463 19.68325 17.06964 5.16672 31.24463" style="fill:#965343;"/><rect x="1.42045" y="32.86251" width="37" height="3.34131" rx="1.67065" ry="1.67065" style="fill:#ff8100;"/><path d="M3.98227,29.75307c-.42302,.62015,.00658,1.46791,.75701,1.48739,.10553,.00274,.21137,.00417,.31754,.00417,6.54905,0,12.19002-4.1784,14.85551-10.21838,2.66548,6.03998,8.30645,10.21838,14.85551,10.21838,.11162,0,.22288-.00158,.3338-.00461,.75028-.02051,1.17969-.86742,.75673-1.48747L19.92044,6.38745,3.98227,29.75307Z" style="fill:#ff9e00;"/><polygon points="21.19765 8.28042 20.12538 9.14139 17.10811 4.65715 18.18039 3.79618 21.19765 8.28042" style="fill:#ff9e00;"/><polygon points="18.63583 8.28042 19.7081 9.14139 22.72537 4.65715 21.65309 3.79618 18.63583 8.28042" style="fill:#ff9e00;"/></g></svg>