<?xml version="1.0" encoding="UTF-8"?><svg id="Layer_1" xmlns="http://www.w3.org/2000/svg" viewBox="0 0 40 40"><path d="m14.404,8.088L1.74,32.144c-.728,1.383.275,3.045,1.838,3.045h25.328c1.563,0,2.566-1.662,1.838-3.045l-12.664-24.057c-.779-1.48-2.897-1.48-3.676,0Z" fill="#23b169"/><path d="m30.636,17.661l7.624,14.483c.728,1.383-.275,3.045-1.838,3.045h-18.69s9.227-17.528,9.227-17.528c.779-1.48,2.897-1.48,3.676,0Z" fill="#0a9f60"/><path d="m12.807,18.247c1.714,0,1.714,1.787,3.428,1.787s1.716-1.787,3.431-1.787,1.717,1.787,3.434,1.787c.472,0,.808-.14,1.092-.336l-6.241-11.855c-.724-1.376-2.694-1.376-3.419,0l-6.242,11.857c.283.195.619.334,1.088.334,1.714,0,1.714-1.787,3.428-1.787Z" fill="#68c76f"/><rect width="40" height="40" fill="none"/></svg>