<svg id="Layer_1" data-name="Layer 1" xmlns="http://www.w3.org/2000/svg" viewBox="0 0 40 40"><defs><style>.cls-1,.cls-5{fill:none;}.cls-1{stroke:orange;stroke-miterlimit:10;stroke-width:1.757px;}.cls-2{fill:#3d3d3d;}.cls-3{fill:#e5e5e5;}.cls-4{fill:orange;}</style></defs><path class="cls-1" d="M28.78,32.085s7.009.912,7.009-5.838V15.778c0-5.34-7.009-6.866-7.009-6.866"/><rect class="cls-2" x="6" y="3.51" width="23.078" height="32.98" rx="2.225"/><rect class="cls-3" x="10.482" y="7.195" width="14.114" height="10.395" rx="1.054"/><path class="cls-1" d="M31.843,9.98S30.231,19.161,36,19.161"/><path class="cls-4" d="M15.073,15.208a3.215,3.215,0,0,0,4.932,0,3.365,3.365,0,0,0-.269-4.514c-.821-.824-2.193-2.269-2.193-2.269l0,0s-1.376,1.44-2.2,2.264A3.365,3.365,0,0,0,15.073,15.208Z"/><path class="cls-4" d="M6,32.127v2.138A2.225,2.225,0,0,0,8.225,36.49H26.853a2.225,2.225,0,0,0,2.225-2.225V32.127Z"/><rect class="cls-5" width="40" height="40"/></svg>