<?xml version="1.0" encoding="UTF-8"?><svg id="Layer_1" xmlns="http://www.w3.org/2000/svg" viewBox="0 0 40 40"><path d="M14.40372,8.08753L1.73953,32.14413c-.72822,1.38331,.27488,3.04499,1.83817,3.04499H28.90608c1.56329,0,2.56639-1.66168,1.83817-3.04499L18.08005,8.08753c-.77887-1.47953-2.89746-1.47953-3.67633,0Z" style="fill:#23b169;"/><path d="M30.63599,17.66085l7.62447,14.48327c.72822,1.38331-.27488,3.04499-1.83817,3.04499H17.7322l9.22746-17.52826c.77887-1.47953,2.89746-1.47953,3.67633,0Z" style="fill:#0a9f60;"/><path d="M12.80672,18.24687c1.71421,0,1.71421,1.78668,3.42836,1.78668,1.71568,0,1.71568-1.78668,3.43131-1.78668,1.71687,0,1.71687,1.78668,3.43369,1.78668,.47153,0,.80843-.14013,1.0921-.33566l-6.24097-11.85517c-.72427-1.37583-2.69433-1.37583-3.41859,0l-6.24193,11.85705c.28276,.19462,.6187,.33378,1.08819,.33378,1.71392,0,1.71392-1.78668,3.42785-1.78668Z" style="fill:#68c76f;"/><rect width="40" height="40" style="fill:none;"/></svg>