<?xml version="1.0" encoding="UTF-8"?><svg id="Layer_1" xmlns="http://www.w3.org/2000/svg" viewBox="0 0 40 40"><g><path d="m29.078,9.903v-4.168c0-1.229-.996-2.225-2.225-2.225H8.225c-1.229,0-2.225.996-2.225,2.225v28.53h0v-2.138h23.078v2.138h0V9.903Zm-4.482,6.633c0,.582-.472,1.054-1.054,1.054h-12.006c-.582,0-1.054-.472-1.054-1.054v-8.287c0-.582.472-1.054,1.054-1.054h12.006c.582,0,1.054.472,1.054,1.054v8.287Z" fill="#3d3d3d"/><path d="m23.542,7.195h-12.006c-.582,0-1.054.472-1.054,1.054v8.287c0,.582.472,1.054,1.054,1.054h12.006c.582,0,1.054-.472,1.054-1.054v-8.287c0-.582-.472-1.054-1.054-1.054Zm-3.537,8.013c-.646.768-1.556,1.152-2.466,1.152-.91,0-1.82-.384-2.466-1.152-1.109-1.32-.948-3.293.269-4.514.821-.824,2.197-2.264,2.197-2.264l.004-.004s1.372,1.445,2.193,2.269c1.217,1.221,1.378,3.195.269,4.514Z" fill="#e5e5e5"/><g><path d="m29.08,8.08v1.82c.42.13,1.07.35,1.79.7-.18,1.66-.39,5.6,1.48,7.83.68.8,1.53,1.3,2.56,1.51v6.31c0,1.67-.48,2.93-1.42,3.76-1.48,1.32-3.76,1.27-4.41,1.22v.9H6v2.13c0,1.23,1,2.23,2.22,2.23h18.63c1.23,0,2.23-1,2.23-2.23v-1.27c.14.01.31.01.52.01,1.22,0,3.41-.22,5.05-1.66,1.34-1.18,2.02-2.89,2.02-5.09v-10.47c0-5.68-6.65-7.48-7.59-7.7Zm5.83,10.03c-.47-.16-.88-.42-1.21-.81-1.14-1.36-1.26-3.93-1.15-5.71,1.27.93,2.36,2.29,2.36,4.19v2.33Z" fill="orange"/><path d="m17.543,8.425l-.004.004s-1.376,1.44-2.197,2.264c-1.217,1.221-1.378,3.195-.269,4.514.646.768,1.556,1.152,2.466,1.152.91,0,1.82-.384,2.466-1.152,1.109-1.32.948-3.293-.269-4.514-.821-.824-2.193-2.269-2.193-2.269Z" fill="orange"/></g></g><rect y="0" width="40" height="40" fill="none"/></svg>