<?xml version="1.0" encoding="UTF-8"?><svg id="Layer_1" xmlns="http://www.w3.org/2000/svg" viewBox="0 0 40 40"><path d="M23.98661,11.14022l1.56722,6.46287H4v-6.22312c0-.56184,.45547-1.01731,1.01731-1.01731H22.99795c.4695,0,.87801,.32129,.98866,.77756Z" style="fill:#d3d3d3;"/><path d="M30.0584,16.53265l2.89063,7.10137H4v-7.73514H29.11616c.41373,0,.78626,.25057,.94224,.63377Z" style="fill:#e1e5e8;"/><path d="M11.28171,18.62895c0,.38748-.31411,.70159-.70159,.70159s-.70159-.31411-.70159-.70159c0-.38748,.31411-.70159,.70159-.70159s.70159,.31411,.70159,.70159Z" style="fill:#4b596a;"/><path d="M8.1356,18.62895c0,.38748-.31411,.70159-.70159,.70159s-.70159-.31411-.70159-.70159c0-.38748,.31411-.70159,.70159-.70159s.70159,.31411,.70159,.70159Z" style="fill:#4b596a;"/><circle cx="13.72623" cy="18.62895" r=".70159" style="fill:#4b596a;"/><circle cx="16.87234" cy="18.62895" r=".70159" style="fill:#4b596a;"/><path d="M20.72004,18.62895c0,.38748-.31411,.70159-.70159,.70159s-.70159-.31411-.70159-.70159c0-.38748,.31411-.70159,.70159-.70159s.70159,.31411,.70159,.70159Z" style="fill:#4b596a;"/><path d="M12.6849,12.74608c0,.38748-.31411,.70159-.70159,.70159s-.70159-.31411-.70159-.70159c0-.38748,.31411-.70159,.70159-.70159s.70159,.31411,.70159,.70159Z" style="fill:#4b596a;"/><circle cx="15.12941" cy="12.74608" r=".70159" style="fill:#4b596a;"/><path d="M9.53879,12.74608c0,.38748-.31411,.70159-.70159,.70159s-.70159-.31411-.70159-.70159,.31411-.70159,.70159-.70159,.70159,.31411,.70159,.70159Z" style="fill:#4b596a;"/><circle cx="18.27552" cy="12.74608" r=".70159" style="fill:#4b596a;"/><path d="M22.12322,12.74608c0,.38748-.31411,.70159-.70159,.70159s-.70159-.31411-.70159-.70159c0-.38748,.31411-.70159,.70159-.70159s.70159,.31411,.70159,.70159Z" style="fill:#4b596a;"/><circle cx="23.16456" cy="18.62895" r=".70159" style="fill:#4b596a;"/><path d="M27.01226,18.62895c0,.38748-.31411,.70159-.70159,.70159s-.70159-.31411-.70159-.70159c0-.38748,.31411-.70159,.70159-.70159s.70159,.31411,.70159,.70159Z" style="fill:#4b596a;"/><rect x="6.94177" y="6.26312" width="2.86041" height="4.09953" style="fill:#007ff2;"/><rect x="12.99762" y="6.26312" width="2.86041" height="4.09953" style="fill:#007ff2;"/><rect x="6.42371" y="4.21041" width="3.89653" height="2.05271" rx=".48707" ry=".48707" style="fill:#313d4c;"/><rect x="12.47956" y="4.21041" width="3.89653" height="2.05271" rx=".48707" ry=".48707" style="fill:#313d4c;"/><rect y="0" width="40" height="40" transform="translate(40 40) rotate(-180)" style="fill:none;"/><g><path d="M6,35.78955H29.19918c.71453,0,1.37479-.3812,1.73205-1l6.41569-11.1123H4v10.1123c0,1.10457,.89543,2,2,2Z" style="fill:#007ff2;"/><path d="M4,21.67725v2H37.34692l.28868-.49997c.38493-.66667-.0962-1.50003-.86601-1.50003H4Z" style="fill:#313d4c;"/></g></svg>