<?xml version="1.0" encoding="UTF-8"?><svg id="Layer_1" xmlns="http://www.w3.org/2000/svg" viewBox="0 0 40 40"><g><path d="M23.38177,23.25256l.00012,.00012s.50092-.70679,1.12305-1.79822c.70502-1.23682,1.56543-2.97021,2.04462-4.7738,.29712-1.11829,.44727-2.26013,.31866-3.32007-.03992-.32886-.12445-.64697-.23987-.95044-.32214-.84668-.92267-1.55811-1.72925-1.9458-.18219-.08765-.37177-.16309-.57385-.21509-.25696-.06616-.52216-.09607-.78625-.08716,.98419,.11255,1.7782,.92578,1.83795,1.9519,.06708,1.15222-.81281,2.1405-1.96509,2.20728l-3.72009,.21631c-1.42517,2.30615-2.94965,4.78406-2.95154,4.78711l-.00024,.00037,6.64178,3.92749Z" style="fill:#e32939;"/><g><path d="M31.87,4.68994c-.01001-.02002-.02002-.03003-.02002-.04004l-3.04999,1.75c-.26996-.73999-1.01001-1.11987-1.71997-.82983-.76001,.29993-1.19,1.22998-.97003,2.07983,.10004,.36011,.29999,.64014,.54999,.83008l-1.39996,1.62-.01001,.01001c-.01001,0-.02002-.01001-.03003-.02002l-.31995,.37c.81,.39001,1.40997,1.1001,1.72998,1.94995l1.08002-1.26001c.84998,.07007,1.71997-.09985,2.50995-.53992,2.09003-1.18005,2.83002-3.82996,1.65002-5.92004Zm-.33002,2.80005c-.07001,.37-.29999,.64001-.50995,.59998-.21002-.03992-.32001-.38-.25-.73999,.06995-.37,.29999-.64001,.50995-.59998,.21002,.04004,.32001,.37,.25,.73999Z" style="fill:#956759;"/><path d="M28.97211,30.38379c-.01324-1.91028-.94232-3.72363-2.48468-4.85034l-1.35272-.9884-2.60602,3.91919,1.185,.86584c.3454,.25244,.55353,.65845,.55634,1.08655l.02484,3.52844h4.70227l-.02502-3.56128Z" style="fill:#956759;"/><path d="M12.10388,26.37256l-.71307,.89551c-.30994,.38916-.85486,.50391-1.29517,.27332l-2.06042-1.07861c-.0108-.00562-.02234-.00793-.03314-.01331l-2.13293,4.18677,2.04541,1.0708c.84259,.44128,1.75385,.65381,2.65662,.65381,1.7049,0,3.37915-.75854,4.49829-2.16406l1.11206-1.39673-4.1134-2.37317,.03577-.05432Z" style="fill:#956759;"/><path d="M25.38,12.10999c.06,1.16003-.82001,2.14001-1.97003,2.21008l-3.71997,.21997-.57001,.03003c-.98999,.05994-1.90002,.57983-2.44,1.40991l-.63,.95996c.12,.31006,.19,.63013,.19,.97998,0,1.44006-1.15997,2.61011-2.60999,2.61011-1.44,0-2.60999-1.17004-2.60999-2.61011,0-.48999,.14996-.93994,.38-1.32996,.04999-.18005,.13-.37,.23999-.53992l1.54999-2.36011c1.26001-1.92993,3.39001-3.15991,5.69-3.29004l4.28998-.25c.13-.00989,.25,0,.37,.01001,.98004,.11011,1.78003,.93005,1.84003,1.95007Z" style="fill:#956759;"/><path d="M35.65002,23.80005l-2.94,.57996c-.74005,.15002-1.22003,.87-1.07001,1.60999,.12,.62-.34003,1.22998-1,1.25-.52002,.02002-.97003-.39001-1.07001-.90002l-.10999-.58997c-.07001-.3501-.21002-.67004-.39001-.96997l-2.04999-1.20007c-.96002-.56995-1.80005-1.28992-2.52002-2.13,.71002-1.22998,1.57001-2.96997,2.04999-4.77002l.12,.32007c.45001,1.25,1.33002,2.30005,2.47003,2.96997l1.84998,1.09009c.54999,.23999,2.35004,.93994,4.26001,.68994,.5-.07007,1.02002,.19995,1.17999,.67993,.22003,.62012-.16998,1.25-.77997,1.37012Z" style="fill:#956759;"/></g><g><path d="M25.13654,24.54236l-1.75476-1.28979-6.64178-3.92749,.00024-.00037-4.63635,7.04785-.03577,.05432,4.1134,2.37317,.00067,.00024,1.7724-2.16553c.40558-.49561,1.12549-.59277,1.64807-.22266l2.91693,2.0658,.00909-.01367,2.60602-3.91919,.00183-.00269Z" style="fill:#4e5968;"/><g><path d="M31.45404,35.49683l-2.43048-1.55176h-4.73608v4.05347c0,.23474,.19031,.42505,.42511,.42505h7.39319c.2348,0,.42517-.19031,.42517-.42505v-.5365c0-.79602-.40607-1.53687-1.0769-1.96521Z" style="fill:#4e5968;"/><path d="M8.00916,26.43555l-3.61169-1.83984c-.20917-.10669-.46515-.02344-.57178,.18579L.46967,31.36914c-.10657,.20923-.02338,.46509,.18585,.57178l.47803,.24341c.70917,.36133,1.55365,.33594,2.23981-.06738l2.48596-1.4613,.00983-.01941,2.13293-4.18677,.00708-.01392Z" style="fill:#4e5968;"/></g></g><path d="M31.84998,4.6499l-3.04999,1.75c-.26996-.73999-1.01001-1.11987-1.71997-.82983-.76001,.29993-1.19,1.22998-.97003,2.07983,.10004,.36011,.29999,.64014,.54999,.83008l-1.39996,1.62-.01001,.01001c-.01001,0-.02002-.01001-.03003-.02002-.13995-.13-.26996-.26001-.39996-.40002-.02002-.03003-.03998-.05994-.06-.07996-.15002-.18005-.28003-.37-.40002-.56995-.02997-.05005-.06-.11011-.08997-.16003-.12-.22009-.23004-.45007-.31-.69006-.01001-.04993-.03003-.10999-.04004-.16992-.06-.19006-.09998-.38-.13-.58008l-.02997-.20996c0-.03003-.01001-.07007-.01001-.10999-.65997,.44006-2.42999,1.52002-4.46997,2.06995-1.83002,.48999-4.12006-.90991-4.72003-1.80994-.14001-.20007,.06-.45007,.29999-.39001,1.69,.42993,2.98999-.73999,5.03003-1.31006,1.76001-.48999,3.25,.48999,3.85999,.97998v-.1499c.01001-.05005,.02002-.1001,.02002-.15002,.01001-.12,.01996-.25,.04999-.37,.01001-.06006,.02997-.10999,.04999-.16003,.03003-.16003,.08002-.30994,.13-.44995,.04999-.12,.09003-.23999,.14001-.34998,.07001-.16003,.14996-.30005,.23999-.44006,.04999-.08997,.09998-.19006,.16998-.2699,.10999-.16016,.23004-.30005,.35004-.43005,.06-.06995,.12-.13,.17999-.20007,.13995-.12988,.28998-.25,.45001-.35999,.07996-.05994,.14996-.10999,.22998-.16003,.14996-.09985,.32001-.18994,.48999-.27002,.09003-.03992,.17999-.07983,.28003-.11987,.15997-.06006,.32996-.12012,.5-.16003,.10999-.03003,.21997-.04993,.32996-.06995,.16003-.03003,.32001-.05005,.48999-.05005,.12-.01001,.24005-.01001,.37-.01001,.16003,0,.31006,.02002,.47003,.04004,.08002,.01001,.15002,.01001,.22998,.02002,.04999,.01001,.10004,.03992,.15002,.04993,.16998,.04004,.33997,.09998,.51001,.16003,.10999,.04004,.21997,.06995,.32996,.12,.17004,.07996,.33002,.18005,.49005,.27991,.08997,.06006,.17999,.11011,.25995,.17004,.17004,.12,.32001,.26001,.46002,.41003,.07001,.06006,.14001,.12,.20001,.18994,.14996,.16003,.27002,.3501,.39996,.53003,.04004,.07007,.09003,.12,.13,.18994Z" style="fill:#333;"/><g><path d="M37.71606,31.25952c.97772-.91284,1.3941-1.97119,1.42932-2.06433,.01068-.02844,.03558-.04395,.05798-.0614-.33405-1.27002-1.25171-2.29663-2.45923-2.76904-.60632,2.61963,.18646,4.10315,.97192,4.89478Z" style="fill:#ff9000;"/><path d="M35.40637,31.47461c.14441,.30347,.23474,.61694,.27838,.93848,.28339-.07947,.54889-.17896,.79291-.29712l-2.69952-5.74829-.00031-.00562c.09998-.03882,.20551-.06494,.30908-.09595l2.67639,5.69897c.26611-.15186,.50671-.32251,.72339-.50269-.8457-.8667-1.69263-2.45972-1.05261-5.19385-.37531-.11328-.76532-.1925-1.17761-.1925-1.67285,0-3.10632,1.00574-3.74249,2.44299,.80829,.28223,3.05829,1.20227,3.8924,2.95557Z" style="fill:#ff9000;"/><path d="M35.09265,34.25208c.00153-.01587-.00623-.03113,.00031-.04651,.20416-.48242,.29852-.94922,.29395-1.39893-.34607,.07056-.71936,.11145-1.12225,.11145-.70264,0-1.49799-.13074-2.38165-.42737-.08136-.11804-.14294-.24878-.21173-.37537,.02832-.00598,.05688-.0144,.08569-.00378,1.43951,.52478,2.62579,.58179,3.59717,.38147-.0368-.30115-.10474-.59668-.23907-.87903-.77142-1.62305-2.94165-2.51648-3.70966-2.78906,.03589-.10254,.06488-.20728,.10852-.30591-.22418,.50647-.35376,1.06384-.35376,1.65332,0,2.26221,1.83398,4.09619,4.09631,4.09619,.0235,0,.04523-.00647,.06866-.00684-.02264,.00317-.04517,.00684-.06866,.00684-.05609,0-.10822-.01416-.16382-.01648Z" style="fill:#ff9000;"/><path d="M35.71033,32.72571c.01697,.49158-.08441,1.00208-.2951,1.52698,.66235-.02588,1.27802-.21228,1.82336-.51636l-.63129-1.34448c-.2724,.13208-.57129,.24561-.89697,.33386Z" style="fill:#ff9000;"/><path d="M39.35272,30.17236c0-.18408-.03064-.35986-.0542-.5376-.20502,.4126-.63361,1.15063-1.36078,1.83313,.46844,.40295,.88513,.56873,.9314,.58582l.00391,.00366c-.0498,.09534-.09662,.19226-.15356,.28296-.09619-.03943-.52039-.22656-1.00989-.66187-.23401,.19702-.50769,.38904-.81628,.56335l.62939,1.34021c-.02344,.01562-.0498,.02661-.07446,.04041,1.14191-.72693,1.90448-1.99622,1.90448-3.45007Z" style="fill:#ff9000;"/></g><path d="M36.89331,32.24182c.30859-.17432,.58228-.36633,.81628-.56335,.4895,.4353,.9137,.62244,1.00989,.66187,.05695-.0907,.10376-.18762,.15356-.28296l-.00391-.00366c-.04626-.01709-.46295-.18286-.9314-.58582,.72717-.6825,1.15576-1.42053,1.36078-1.83313h0v-.00024c-.02264-.17065-.05212-.33728-.09515-.50073h0c-.0224,.01746-.0473,.03296-.05798,.0614-.03522,.09314-.4516,1.15149-1.42932,2.06433-.78546-.79163-1.57825-2.27515-.97192-4.89478h0c-.1001-.03906-.20624-.06482-.31006-.09619h0c-.64001,2.73413,.20691,4.32715,1.05261,5.19385-.21667,.18018-.45728,.35083-.72339,.50269l-2.67639-5.69897c-.10358,.03101-.20911,.05713-.30908,.09595l.00031,.00562,2.69952,5.74829c-.24402,.11816-.50952,.21765-.79291,.29712-.04364-.32153-.13397-.63501-.27838-.93848-.83411-1.7533-3.08411-2.67334-3.8924-2.95557h-.00006c-.04364,.09863-.07263,.20337-.10852,.30591,.76801,.27258,2.93823,1.16602,3.70966,2.78906,.13434,.28235,.20227,.57788,.23907,.87903-.97137,.20032-2.15765,.14331-3.59717-.38147-.02881-.01062-.05737-.0022-.08569,.00378,.06879,.12659,.13037,.25732,.21173,.37537,.88367,.29663,1.67902,.42737,2.38165,.42737,.40289,0,.77618-.04089,1.12225-.11145,.00458,.44971-.08978,.9165-.29395,1.39893-.00653,.01538,.00122,.03064-.00031,.04651,.0556,.00232,.10773,.01648,.16382,.01648,.0235,0,.04602-.00366,.06866-.00684,.02972-.00415,.05951-.00793,.09009-.00903h0c.21069-.5249,.31207-1.0354,.2951-1.52698,.32568-.08826,.62457-.20178,.89697-.33386l.63129,1.34448h0c.06946-.03882,.14026-.0752,.20966-.11389,.02466-.01379,.05103-.02478,.07446-.04041l-.62939-1.34021Z" style="fill:#ec6700;"/><path d="M31.03003,8.08594c.20898,.04077,.43665-.22461,.50854-.5929,.07184-.36829-.03931-.69983-.24823-.7406-.20898-.04077-.43665,.22461-.50854,.5929s.03925,.69983,.24823,.7406Z"/></g><rect width="40" height="40" style="fill:none;"/></svg>