<?xml version="1.0" encoding="UTF-8"?><svg id="Layer_1" xmlns="http://www.w3.org/2000/svg" viewBox="0 0 40 40"><rect width="40" height="40" style="fill:none; opacity:.1;"/><g><g><path d="M37.23213,22.87165c0-3.39928-1.9342-6.49811-4.99045-7.98621-4.83277-2.3531-11.83569-5.75515-14.68903-7.10326-1.66678-.7875-3.64256-.42027-4.92168,.90719l-7.53821,7.82314c-.77154,.8007-1.20261,1.86933-1.20261,2.98126v6.43272c0,3.55938,2.88545,6.44483,6.44483,6.44483l18.02691-.03065c4.90134-.00833,8.87025-3.98399,8.87025-8.88534v-.58368Z" style="fill:#c3846c;"/><polygon points="19.52309 21.32036 19.52309 17.71886 13.09809 24.14384 19.52309 21.32036" style="fill:#86584a;"/></g><g><path d="M31.56183,4.40039l-1.65546-1.65576c-.37793-.37793-.99078-.37793-1.36877,0L1.85815,29.42444c-.1217,.1217-.20923,.27332-.25378,.43958l-.81927,3.05713c-.09766,.3645,.2359,.69812,.6004,.60034l3.05713-.81909c.1662-.04456,.31781-.13208,.43951-.25378l1.42236-1.42236c-.24945-.32422-.4472-.69373-.56494-1.1062-.45789-1.60449,.34802-3.29932,1.88159-3.95691l6.14258-2.39612L31.56177,5.76904c.37799-.37793,.37799-.99072,.00006-1.36865Z" style="fill:#4b596a;"/><path d="M5.73956,29.92004c.11774,.41248,.31549,.78198,.56494,1.1062,.6601,.85803,1.71442,1.36829,2.84705,1.29163l13.9903-.08301-1.58606-11.70752-7.79205,3.03967-6.14258,2.39612c-1.53357,.65759-2.33948,2.35242-1.88159,3.95691Z" style="fill:#c3846c;"/></g></g></svg>