<svg id="Layer_1" data-name="Layer 1" xmlns="http://www.w3.org/2000/svg" viewBox="0 0 40 40"><defs><style>.cls-1{fill:none;}.cls-2{fill:#93c9ff;}.cls-2,.cls-3{fill-rule:evenodd;}.cls-3{fill:#c8e1ff;}</style></defs><rect class="cls-1" width="40" height="40"/><path class="cls-2" d="M7.969,5.807,24.7,8.652l-7.426,7.426L4.136,9.18a.836.836,0,0,1-.2-1.331L5.045,6.738A3.341,3.341,0,0,1,7.969,5.807Z"/><path class="cls-2" d="M31.346,15.3l2.846,16.732a3.34,3.34,0,0,1-.932,2.925l-1.111,1.111a.836.836,0,0,1-1.331-.2l-6.9-13.139Z"/><path class="cls-3" d="M36.238,10.409,18.807,27.84v4.509a3.34,3.34,0,0,1-.979,2.363l-2.542,2.542a.836.836,0,0,1-1.419-.472l-1.243-8.7a.836.836,0,0,0-.709-.709l-8.7-1.243a.835.835,0,0,1-.472-1.418l2.541-2.541A3.346,3.346,0,0,1,7.651,21.2H12.16L29.591,3.764a4.7,4.7,0,0,1,6.647,6.645"/></svg>