<svg id="Layer_1" data-name="Layer 1" xmlns="http://www.w3.org/2000/svg" viewBox="0 0 40 40"><defs><style>.cls-1{fill:none;}.cls-2{fill:#ffb582;}.cls-3{fill:#ec6700;}</style></defs><rect class="cls-1" width="40" height="40"/><path class="cls-2" d="M36.639,19.683a3.09,3.09,0,0,0-4.372,0l-3.7,2.63V17.621h0V7.8a2.636,2.636,0,1,0-5.271,0h0v9.824h-1.01V5.194a2.636,2.636,0,1,0-5.271,0V17.621h-1.01V6.927a2.636,2.636,0,1,0-5.271,0V17.621H9.727V11.026h0a2.636,2.636,0,1,0-5.271,0h0V24.647h.02a13.238,13.238,0,0,0,22.6,8.972l9.566-9.565A3.091,3.091,0,0,0,36.639,19.683Z"/><path class="cls-3" d="M27.766,23.53h-2.7a4,4,0,0,0-4,4v1.113A16.906,16.906,0,0,1,27.766,23.53Z"/></svg>