<?xml version="1.0" encoding="UTF-8"?><svg id="a" xmlns="http://www.w3.org/2000/svg" viewBox="0 0 40 40"><line x1="14.044" y1="12.813" x2="20.684" y2="21.5" fill="none" stroke="#d12030" stroke-miterlimit="10" stroke-width="4.804"/><line x1="25.956" y1="12.813" x2="19.783" y2="20.889" fill="none" stroke="#d12030" stroke-miterlimit="10" stroke-width="4.804"/><g><ellipse cx="11.065" cy="8.857" rx="5.065" ry="5.031" fill="none" stroke="#d12030" stroke-miterlimit="10" stroke-width="2.878"/><ellipse cx="28.935" cy="8.857" rx="5.065" ry="5.031" fill="none" stroke="#d12030" stroke-miterlimit="10" stroke-width="2.878"/></g><path d="M31.665,31.229l-10.206-13.393c-.991-1.301-2.003-1.327-3.016,0l-1.816,2.383,13.912,17.954,.177-.133c2.156-1.62,2.581-4.67,.949-6.811Z" fill="#afb7c0"/><path d="M23.275,20.22l-1.816-2.383c-.991-1.301-2.003-1.327-3.016,0l-10.206,13.393c-1.632,2.141-1.207,5.19,.949,6.811l.177,.133,13.912-17.954Z" fill="#d0d5da"/><rect width="40" height="40" transform="translate(40 40) rotate(180)" fill="none"/></svg>