<?xml version="1.0" encoding="UTF-8"?><svg id="Layer_1" xmlns="http://www.w3.org/2000/svg" viewBox="0 0 40 40"><g><path d="M21.88605,3.1474l-.00006-.00085-.00024-.00079v-.00012h0c-.30737-1.73352-1.93127-2.89703-3.62762-2.59912-1.69672,.29803-2.8233,1.94525-2.51636,3.6792v.00006h0l3.47913,19.67596,6.14398-1.08008L21.88605,3.1474Z" style="fill:#6e4944;"/><path d="M31.93158,4.47559c.08569-1.58447-.98151-3.01654-2.54938-3.29413-1.56818-.27765-3.05914,.70215-3.51807,2.22107l-.03748-.00665-.06689,.38037-.00049,.00183-.00012,.00189-3.17322,18.05011,6.14288,1.08643,3.24072-18.4342-.03796-.00671Z" style="fill:#6e4944;"/></g><rect width="40" height="40" transform="translate(40 40) rotate(-180)" style="fill:none;"/><g><g><path d="M26.18268,23.86841v-5.33948H6.13684v5.33948c0,7.65643,6.20673,13.86322,13.86316,13.86322s13.86316-6.20679,13.86316-13.86322h-7.68048Z" style="fill:#6e4944;"/><rect x="18.04804" y="17.16558" width="5.78243" height="4.29926" style="fill:#6e4944;"/><path d="M12.10382,20.56415c.08459,1.61395,1.37592,2.89929,2.97089,2.89929,1.64966,0,2.987-1.37134,2.987-3.06299l-.00006-.00061v-5.17712l.00006-.00061c0-1.69159-1.33734-3.06293-2.987-3.06293s-2.987,1.37134-2.987,3.06293h-.00006v1.70343c-.16187-1.53497-1.41479-2.73444-2.95471-2.73444-1.64966,0-2.987,1.37134-2.987,3.06299h-.00006v3.14636h.00006v.00006c0,1.08771,.55676,2.03705,1.39014,2.58051,.46265,.3017,1.008,.48242,1.59686,.48242,1.59503,0,2.88629-1.28534,2.97089-2.89929Z" style="fill:#6e4944;"/><path d="M29.54156,18.61249c-.2713-.04413-.54462-.0835-.82843-.0835l-6.19098-.00006c-1.75885,0-3.18469,1.4259-3.18469,3.18475s1.42584,3.18475,3.18469,3.18475h2.73242c-1.72223,.87323-3.22321,2.11475-4.41125,3.61481-1.78339,2.25165-2.85474,5.09149-2.85474,8.18835h4.98846l8.24969-8.97705v-2.82611h1.71594c.50836,0,.92047-.41211,.92047-.92053v-.29889c0-2.56049-1.87372-4.66815-4.32159-5.06653Z" style="fill:#6e4944;"/></g><g><path d="M18.06171,20.40045c0,1.69165-1.33734,3.06299-2.987,3.06299-1.59497,0-2.88629-1.28534-2.97089-2.89929-.08459,1.61395-1.37585,2.89929-2.97089,2.89929-.58887,0-1.13422-.18073-1.59686-.48242,.51434,1.01038,1.53369,1.70758,2.72205,1.70758,.86731,0,1.64795-.37,2.20801-.96124,.71704,.5921,1.61633,.96124,2.60858,.96124,2.30951,0,4.18176-1.91986,4.18176-4.28815h-1.19476Z" style="fill:#2e2423;"/><path d="M25.25458,24.89844h-2.73242c-1.75885,0-3.18469-1.42584-3.18469-3.18475s1.42584-3.18475,3.18469-3.18475l6.19098,.00006c.28381,0,.55713,.03937,.82843,.0835-.79364-.88196-1.93207-1.44702-3.21198-1.44702h-4.0531v.02478c-2.39526,.13019-4.30255,2.0957-4.30255,4.52344,0,1.9176,1.19025,3.55042,2.86938,4.2193v2.58026c1.18805-1.50006,2.68903-2.74158,4.41125-3.61481Z" style="fill:#2e2423;"/></g></g></svg>