<?xml version="1.0" encoding="UTF-8"?><svg id="Layer_1" xmlns="http://www.w3.org/2000/svg" viewBox="0 0 40 40"><rect width="40" height="40" fill="none" opacity=".1"/><g><g><path d="m37.232,22.872c0-3.399-1.934-6.498-4.99-7.986-4.833-2.353-11.836-5.755-14.689-7.103-1.667-.787-3.643-.42-4.922.907l-7.538,7.823c-.772.801-1.203,1.869-1.203,2.981v6.433c0,3.559,2.885,6.445,6.445,6.445l18.027-.031c4.901-.008,8.87-3.984,8.87-8.885v-.584Z" fill="#956759"/><polygon points="19.523 21.32 19.523 17.719 13.098 24.144 19.523 21.32" fill="#5e403b"/></g><g><path d="m31.562,4.4l-1.655-1.656c-.378-.378-.991-.378-1.369,0L1.858,29.424c-.122.122-.209.273-.254.44l-.819,3.057c-.098.365.236.698.6.6l3.057-.819c.166-.045.318-.132.44-.254l1.422-1.422c-.249-.324-.447-.694-.565-1.106-.458-1.604.348-3.299,1.882-3.957l6.143-2.396L31.562,5.769c.378-.378.378-.991,0-1.369Z" fill="#4b596a"/><path d="m5.74,29.92c.118.412.315.782.565,1.106.66.858,1.714,1.368,2.847,1.292l13.99-.083-1.586-11.708-7.792,3.04-6.143,2.396c-1.534.658-2.339,2.352-1.882,3.957Z" fill="#956759"/></g></g></svg>