<svg id="Layer_1" data-name="Layer 1" xmlns="http://www.w3.org/2000/svg" viewBox="0 0 40 40"><defs><style>.cls-1,.cls-2,.cls-5{fill:none;}.cls-1,.cls-2{stroke:#d12030;stroke-miterlimit:10;}.cls-1{stroke-width:4.804px;}.cls-2{stroke-width:2.878px;}.cls-3{fill:#afb7c0;}.cls-4{fill:#d0d5da;}</style></defs><line class="cls-1" x1="14.044" y1="12.813" x2="20.684" y2="21.5"/><line class="cls-1" x1="25.956" y1="12.813" x2="19.783" y2="20.889"/><ellipse class="cls-2" cx="11.065" cy="8.857" rx="5.065" ry="5.031"/><ellipse class="cls-2" cx="28.935" cy="8.857" rx="5.065" ry="5.031"/><path class="cls-3" d="M31.665,31.229,21.459,17.836c-.991-1.3-2-1.327-3.016,0L16.627,20.22,30.538,38.173l.177-.133A4.841,4.841,0,0,0,31.665,31.229Z"/><path class="cls-4" d="M23.275,20.22l-1.816-2.384c-.991-1.3-2-1.327-3.016,0L8.237,31.229a4.84,4.84,0,0,0,.949,6.811l.177.133Z"/><rect class="cls-5" width="40" height="40" transform="translate(40 40) rotate(180)"/></svg>