<?xml version="1.0" encoding="UTF-8"?><svg id="Layer_1" xmlns="http://www.w3.org/2000/svg" viewBox="0 0 40 40"><g><g><path d="m2,12.703v16.541c0,1.151.416,2.194,1.084,3.028l11.447-9.125L2,12.703Z" fill="#d0d5da"/><path d="m36.916,32.271c.668-.833,1.084-1.877,1.084-3.028V12.703l-12.532,10.443,11.447,9.125Z" fill="#d0d5da"/></g><path d="m16.688,22.823L2,12.703l12.532,10.443,2.156,1.797c1.994,1.546,4.63,1.546,6.625,0l2.156-1.797,12.532-10.443-14.688,10.12c-1.994,1.374-4.63,1.374-6.625,0Z" fill="#afb7c0"/><g><path d="m23.312,24.943c-1.994,1.546-4.63,1.546-6.625,0l-2.156-1.797-11.447,9.125c.892,1.111,2.245,1.837,3.78,1.837h26.27c1.536,0,2.889-.726,3.78-1.837l-11.447-9.125-2.156,1.797Z" fill="#e5e9ee"/><path d="m33,5.892H7c-2.761,0-5,2.239-5,5v1.811l14.688,10.12c1.994,1.374,4.63,1.374,6.625,0l14.688-10.12v-1.811c0-2.761-2.239-5-5-5Z" fill="#e5e9ee"/></g></g><g opacity=".1"><rect x="0" width="40" height="40" fill="none"/></g></svg>