<?xml version="1.0" encoding="UTF-8"?><svg id="Layer_1" xmlns="http://www.w3.org/2000/svg" viewBox="0 0 40 40"><rect width="40" height="40" fill="none"/><g><path d="m7.969,5.807l16.732,2.845-7.426,7.426-13.139-6.898c-.499-.262-.601-.933-.202-1.331l1.112-1.111c.766-.766,1.856-1.113,2.924-.931Z" fill="#93c9ff" fill-rule="evenodd"/><path d="m31.346,15.299l2.847,16.732c.182,1.069-.166,2.159-.932,2.925l-1.111,1.11c-.399.398-1.069.296-1.331-.203l-6.897-13.139,7.424-7.426Z" fill="#93c9ff" fill-rule="evenodd"/><path d="m36.238,10.409l-17.431,17.431v4.509c0,.887-.352,1.737-.979,2.364l-2.542,2.542c-.487.487-1.321.209-1.418-.473l-1.243-8.697c-.053-.368-.341-.657-.709-.709l-8.697-1.243c-.682-.097-.96-.931-.473-1.418l2.542-2.541c.627-.627,1.477-.979,2.363-.979h4.509S29.591,3.764,29.591,3.764c1.852-1.728,4.74-1.678,6.531.114,1.792,1.79,1.843,4.678.116,6.531" fill="#c8e1ff" fill-rule="evenodd"/></g></svg>