<?xml version="1.0" encoding="UTF-8"?><svg id="Layer_1" xmlns="http://www.w3.org/2000/svg" viewBox="0 0 40 40"><rect width="40" height="40" transform="translate(40 40) rotate(-180)" fill="none"/><g><path d="m31.12,20.163v-7.393H4.5v7.393c0,8.56,6.94,15.5,15.5,15.5s15.5-6.94,15.5-15.5h-4.38Z" fill="#956759"/><g><path d="m18.922,15.55c0,2.046-1.617,3.704-3.613,3.704-1.929,0-3.491-1.555-3.593-3.506-.102,1.952-1.664,3.506-3.593,3.506-.712,0-1.372-.219-1.931-.583.622,1.222,1.855,2.065,3.292,2.065,1.049,0,1.993-.448,2.671-1.163.867.716,1.955,1.163,3.155,1.163,1.954,0,3.631-1.149,4.473-2.813-.529-.644-.86-1.465-.86-2.373h0Z" fill="#5e403b"/><path d="m29.682,5.726c-1.741,0-3.193,1.259-3.535,2.935v-.619s0,0,0,0c0-2.046-1.617-3.705-3.613-3.705s-3.613,1.659-3.613,3.705h0v7.509h0c0,.908.331,1.729.86,2.373.663.807,1.643,1.331,2.753,1.331,1.74,0,3.192-1.263,3.535-2.943v8.976h7.225v-15.864s0-.003,0-.004c0-2.039-1.617-3.693-3.612-3.693Z" fill="#956759"/><path d="m11.716,15.748c.102,1.952,1.664,3.506,3.593,3.506,1.995,0,3.613-1.659,3.613-3.704,0,0,0,0,0,0v-6.262s0,0,0,0c0-2.046-1.617-3.704-3.613-3.704s-3.613,1.659-3.613,3.704h0s0,0,0,0v2.061c-.195-1.857-1.711-3.308-3.574-3.308-1.995,0-3.613,1.659-3.613,3.705h0v3.805h0c0,1.316.673,2.464,1.681,3.121.56.365,1.219.583,1.931.583,1.929,0,3.491-1.555,3.593-3.506Z" fill="#956759"/></g><path d="m25.875,21.315h-3.055c-1.967,0-3.561-1.594-3.561-3.561s1.594-3.561,3.561-3.561h6.922c.243,0,.481.02.716.049-.87-.905-2.087-1.474-3.442-1.474h-4.471v.028c-2.623.146-4.71,2.298-4.71,4.957,0,2.088,1.286,3.871,3.108,4.613v2.99c1.328-1.677,3.007-3.065,4.932-4.042Z" fill="#5e403b"/><path d="m30.458,14.243c-.235-.029-.473-.049-.716-.049h-6.922c-1.967,0-3.561,1.594-3.561,3.561s1.594,3.561,3.561,3.561h3.055c-1.926.976-3.604,2.365-4.932,4.042-1.994,2.518-3.192,5.693-3.192,9.155h5.577l9.224-10.037v-3.16h1.919c.568,0,1.029-.461,1.029-1.029v-.334c0-2.937-2.201-5.355-5.042-5.709Z" fill="#956759"/></g></svg>