<svg id="Layer_1" data-name="Layer 1" xmlns="http://www.w3.org/2000/svg" viewBox="0 0 40 40"><defs><style>.cls-1{fill:#ffcd00;stroke:#ffcd00;stroke-linejoin:round;stroke-width:1.5px;}.cls-2{fill:none;opacity:0.1;}</style></defs><path class="cls-1" d="M29.3,11.506l-.938-6.488-.937,6.488A4.443,4.443,0,0,1,24.3,15.4L19.1,16.566,24.3,17.734a4.444,4.444,0,0,1,3.124,3.893l.937,6.487.938-6.487a4.444,4.444,0,0,1,3.124-3.893l5.206-1.168L32.426,15.4A4.443,4.443,0,0,1,29.3,11.506Z"/><path class="cls-1" d="M15.563,25.056l-.656-4.537-.655,4.537a3.111,3.111,0,0,1-2.185,2.723L8.425,28.6l3.642.817a3.111,3.111,0,0,1,2.185,2.723l.655,4.537.656-4.537a3.109,3.109,0,0,1,2.184-2.723l3.642-.817-3.642-.816A3.109,3.109,0,0,1,15.563,25.056Z"/><path class="cls-1" d="M9.374,8.916,8.849,5.287,8.325,8.916a2.487,2.487,0,0,1-1.748,2.178l-2.913.654,2.913.653a2.487,2.487,0,0,1,1.748,2.178l.524,3.629.525-3.629A2.486,2.486,0,0,1,11.122,12.4l2.912-.653-2.912-.654A2.486,2.486,0,0,1,9.374,8.916Z"/><rect class="cls-2" width="40" height="40"/></svg>