<svg id="Layer_1" data-name="Layer 1" xmlns="http://www.w3.org/2000/svg" viewBox="0 0 40 40"><defs><style>.cls-1{fill:#786de7;}.cls-2{fill:#fff;}.cls-3{fill:none;}</style></defs><rect class="cls-1" x="3.5" y="3.5" width="33" height="33" rx="8"/><path class="cls-2" d="M27.882,20l3.453-5.746a.491.491,0,0,0-.421-.745H23.979L20.422,7.591a.492.492,0,0,0-.843,0l-3.558,5.918H9.086a.491.491,0,0,0-.421.745L12.119,20,8.665,25.745a.491.491,0,0,0,.421.745h6.935l3.558,5.918a.492.492,0,0,0,.843,0L23.98,26.49h6.934a.491.491,0,0,0,.421-.745Zm.422-4.523L26.733,18.09l-1.571-2.613ZM25.585,20l-2.718,4.523H17.134L14.415,20l2.719-4.523h5.732ZM20,10.709l1.683,2.8H18.317Zm-8.3,4.768h3.142L13.267,18.09Zm0,9.046,1.571-2.614,1.571,2.614ZM20,29.291l-1.684-2.8h3.368Zm6.733-7.381L28.3,24.523H25.162Z"/><rect class="cls-3" width="40" height="40"/></svg>