<?xml version="1.0" encoding="UTF-8"?><svg id="Layer_1" xmlns="http://www.w3.org/2000/svg" viewBox="0 0 40 40"><g><g><path d="M35.01367,27.11719l-2.97546-1.75977-1.97821,.64258,.23407,1.81104,3.19226,1.88818c.23926,.1416,.50293,.20898,.7627,.20898,.5127,0,1.01172-.2627,1.29199-.73633,.42188-.71289,.18555-1.63281-.52734-2.05469Z" style="fill:#c9dcff;"/><path d="M9.71613,12.19043l-3.20441-1.89062c-.71094-.41797-1.63086-.18457-2.05371,.53027-.4209,.71289-.18359,1.63281,.53027,2.05371l2.98383,1.7605,1.97791-.64429-.23389-1.80957Z" style="fill:#c9dcff;"/><path d="M32.03821,14.64258l2.97546-1.75977c.71289-.42188,.94922-1.3418,.52734-2.05469s-1.3418-.94824-2.05469-.52734l-3.19226,1.88818-.23407,1.81104,1.97821,.64258Z" style="fill:#c9dcff;"/><path d="M7.97211,25.35571l-2.98383,1.7605c-.71387,.4209-.95117,1.34082-.53027,2.05371,.28027,.47461,.78027,.73828,1.29297,.73828,.25977,0,.52148-.06738,.76074-.20801l3.20441-1.89062,.23389-1.80957-1.97791-.64429Z" style="fill:#c9dcff;"/><path d="M18.50684,33.26831v3.18188c0,.82812,.67188,1.5,1.5,1.5s1.5-.67188,1.5-1.5v-3.1875l-1.49683-1.36279-1.50317,1.36841Z" style="fill:#c9dcff;"/><path d="M21.50684,6.7373V3.54883c0-.82812-.67188-1.5-1.5-1.5s-1.5,.67188-1.5,1.5v3.18286l1.50317,1.36841,1.49683-1.36279Z" style="fill:#c9dcff;"/></g><path d="M32.03821,25.35742l1.96179-.63745c.78998-.26001,1.21997-1.11011,.96002-1.88989-.26001-.79004-1.10004-1.22998-1.89001-.97021l-4.47998,1.46021-5.63-3.32007,5.63-3.32007,4.47998,1.46021c.14996,.0498,.31,.06982,.46002,.06982,.63995,0,1.21997-.3999,1.42999-1.04004,.25995-.77979-.17004-1.62988-.96002-1.88989l-1.96179-.63745-1.97821-.64258,.23407-1.81104,.33594-2.59912c.10999-.81982-.47003-1.56982-1.28998-1.67993-.82001-.10986-1.57001,.46997-1.68005,1.30005l-.63995,4.91016-5.51001,3.25v-6.58008l3.52997-3.20996c.61005-.55005,.66003-1.5,.10004-2.12012-.56-.60986-1.51001-.6499-2.12-.1001l-1.51318,1.37744-1.49683,1.36279-1.50317-1.36841-1.50684-1.37183c-.62-.5498-1.56-.50977-2.12,.1001-.56,.62012-.52002,1.57007,.09998,2.12012l3.53003,3.20996v6.58984l-5.51001-3.25-.64001-4.91992c-.10999-.83008-.87-1.40991-1.67999-1.30005-.83002,.11011-1.40997,.86011-1.29999,1.67993l.33612,2.60059,.23389,1.80957-1.97791,.64429-1.95209,.63574c-.79004,.26001-1.22003,1.11011-.96002,1.88989,.20001,.64014,.78998,1.04004,1.41998,1.04004,.15002,0,.31-.02002,.47003-.06982l4.47998-1.46021,5.63,3.32007-5.63,3.32007-4.47998-1.46021c-.79004-.25977-1.64001,.18018-1.89001,.97021-.26001,.77979,.16998,1.62988,.96002,1.88989l1.95209,.63574,1.97791,.64429-.23389,1.80957-.33612,2.60034c-.10999,.82007,.46997,1.57007,1.29999,1.67993,.06,.01025,.13,.01025,.19,.01025,.73999,0,1.39001-.55005,1.48999-1.31006l.64001-4.91992,5.51001-3.25v6.58984l-3.53003,3.20996c-.62,.55005-.65997,1.5-.09998,2.12012,.28998,.31982,.70001,.48999,1.10999,.48999,.35999,0,.72003-.13013,1.01001-.38989l1.50684-1.37183,1.50317-1.36841,1.49683,1.36279,1.51318,1.37744c.28998,.25977,.64996,.38989,1.01001,.38989,.40997,0,.81-.17017,1.10999-.48999,.56-.62012,.51001-1.57007-.10004-2.12012l-3.52997-3.20996v-6.58008l5.51001,3.25,.63995,4.91016c.10004,.76001,.74005,1.31006,1.48004,1.31006,.07001,0,.13,0,.20001-.01025,.81995-.10986,1.39996-.85986,1.28998-1.67993l-.33594-2.59888-.23407-1.81104,1.97821-.64258Z" style="fill:#94b8ff;"/></g><g style="opacity:.1;"><rect y="0" width="40" height="40" style="fill:none;"/></g></svg>