<svg id="Layer_1" data-name="Layer 1" xmlns="http://www.w3.org/2000/svg" viewBox="0 0 40 40"><defs><style>.cls-1{fill:none;}.cls-2{fill:#ffcd00;}.cls-3{fill:#fff;}</style></defs><rect class="cls-1" width="40" height="40"/><circle class="cls-2" cx="20" cy="20" r="17.5"/><path class="cls-3" d="M20.457,30.417l2.449-7.346a.307.307,0,0,1,.194-.194l7.347-2.449a.477.477,0,0,0,0-.905L23.1,17.074a.312.312,0,0,1-.194-.194L20.457,9.533a.477.477,0,0,0-.905,0L17.1,16.88a.307.307,0,0,1-.194.194L9.563,19.523a.477.477,0,0,0,0,.905l7.346,2.449a.3.3,0,0,1,.194.194l2.449,7.346A.477.477,0,0,0,20.457,30.417Z"/></svg>