<?xml version="1.0" encoding="UTF-8"?><svg id="Layer_1" xmlns="http://www.w3.org/2000/svg" viewBox="0 0 40 40"><g><rect x="3.5" y="3.5" width="33" height="33" rx="8" ry="8" fill="#ef4452"/><g><path d="m26.5,28.5c-.512,0-1.023-.195-1.414-.586l-13-13c-.781-.781-.781-2.047,0-2.828.781-.781,2.047-.781,2.828,0l13,13c.781.781.781,2.047,0,2.828-.391.391-.902.586-1.414.586Z" fill="#fff"/><path d="m13.5,28.5c-.512,0-1.023-.195-1.414-.586-.781-.781-.781-2.047,0-2.828l13-13c.781-.781,2.047-.781,2.828,0,.781.781.781,2.047,0,2.828l-13,13c-.391.391-.902.586-1.414.586Z" fill="#fff"/></g></g><rect width="40" height="40" fill="none"/></svg>