<?xml version="1.0" encoding="UTF-8"?><svg id="Layer_1" xmlns="http://www.w3.org/2000/svg" viewBox="0 0 40 40"><g><path d="M19.92041,24.58398c-1.31152,0-2.375-1.06348-2.375-2.375,0-3.86621,2.35352-5.74219,4.07178-7.11182,1.3833-1.10303,2.18018-1.78809,2.46973-3.05078,.23535-1.02344,.05713-1.88867-.54395-2.64355-.78125-.98047-2.23682-1.63965-3.62256-1.63965-1.80664,0-3.38184,1.15674-3.92041,2.87891-.12354,.39502-.18604,.80762-.18604,1.22754,0,1.31152-1.06348,2.375-2.375,2.375s-2.375-1.06348-2.375-2.375c0-.90137,.13574-1.7915,.40283-2.64551,1.16113-3.71436,4.55859-6.21094,8.45361-6.21094,2.84082,0,5.65283,1.31445,7.33789,3.43066,1.49609,1.87842,2.01416,4.24561,1.4585,6.66553-.67578,2.94141-2.5957,4.47217-4.13867,5.70215-1.58301,1.26172-2.28271,1.8833-2.28271,3.39746,0,1.31152-1.06348,2.375-2.375,2.375Z" style="fill:#fc2d4c;"/><path d="M19.95322,27.3916c-1.99374,0-3.61002,1.61627-3.61002,3.60999s1.61627,3.60999,3.61002,3.60999,3.60999-1.61621,3.60999-3.60999-1.61624-3.60999-3.60999-3.60999h0Z" style="fill:#fc2d4c;"/></g><rect width="40" height="40" style="fill:none;"/></svg>