<?xml version="1.0" encoding="UTF-8"?><svg id="Layer_1" xmlns="http://www.w3.org/2000/svg" viewBox="0 0 40 40"><g><path d="m19.92,24.584c-1.312,0-2.375-1.063-2.375-2.375,0-3.866,2.354-5.742,4.072-7.112,1.383-1.103,2.18-1.788,2.47-3.051.235-1.023.057-1.889-.544-2.644-.781-.98-2.237-1.64-3.623-1.64-1.807,0-3.382,1.157-3.92,2.879-.124.395-.186.808-.186,1.228,0,1.312-1.063,2.375-2.375,2.375s-2.375-1.063-2.375-2.375c0-.901.136-1.792.403-2.646,1.161-3.714,4.559-6.211,8.454-6.211,2.841,0,5.653,1.314,7.338,3.431,1.496,1.878,2.014,4.246,1.458,6.666-.676,2.941-2.596,4.472-4.139,5.702-1.583,1.262-2.283,1.883-2.283,3.397,0,1.312-1.063,2.375-2.375,2.375Z" fill="#fc2d4c"/><path d="m19.953,27.392c-1.994,0-3.61,1.616-3.61,3.61s1.616,3.61,3.61,3.61,3.61-1.616,3.61-3.61-1.616-3.61-3.61-3.61h0Z" fill="#fc2d4c"/></g><rect width="40" height="40" fill="none"/></svg>