<?xml version="1.0" encoding="UTF-8"?><svg id="a" xmlns="http://www.w3.org/2000/svg" viewBox="0 0 40 40"><g><path d="M17.842,33.969c1.311,.879,3.005,.879,4.315,0,3.579-2.401,10.658-7.655,13.767-13.51,4.251-8.006-.741-15.991-7.338-15.991-3.758,0-6.021,1.962-7.272,3.651-.661,.892-1.966,.892-2.627,0-1.252-1.689-3.514-3.651-7.272-3.651C4.817,4.468-.175,12.454,4.076,20.46c3.109,5.855,10.187,11.109,13.767,13.51Z" fill="#ec4452"/><path d="M33.955,6.474L4.798,21.687c1.657,2.626,4.024,5.089,6.404,7.185l26.252-13.697c.233-3.578-1.188-6.755-3.498-8.701Z" fill="#e5e9ee"/></g><rect x="0" y="-1" width="40" height="40" fill="none"/></svg>