<?xml version="1.0" encoding="UTF-8"?><svg id="Layer_1" xmlns="http://www.w3.org/2000/svg" viewBox="0 0 40 40"><rect x="3.5" y="3.5" width="33" height="33" rx="8" ry="8" transform="translate(40 0) rotate(90)" fill="#e5e8eb"/><path d="m20.884,29.175l8.279-8.279c.495-.495.495-1.297,0-1.792l-8.279-8.279c-.412-.412-1.116-.12-1.116.462v4.049c0,.402-.326.728-.728.728h-7.957c-.341,0-.618.277-.618.618v6.637c0,.341.277.618.618.618h7.957c.402,0,.728.326.728.728v4.049c0,.582.704.874,1.116.462Z" fill="#313d4c"/><rect y="0" width="40" height="40" transform="translate(40 40) rotate(-180)" fill="none"/></svg>