<svg id="Layer_1" data-name="Layer 1" xmlns="http://www.w3.org/2000/svg" viewBox="0 0 40 40"><defs><style>.cls-1{fill:#e5e8eb;}.cls-2{fill:#313d4c;}.cls-3{fill:none;}</style></defs><rect class="cls-1" x="3.5" y="3.5" width="33" height="33" rx="8" transform="translate(40 0) rotate(90)"/><path class="cls-2" d="M20.884,29.175,29.163,20.9a1.267,1.267,0,0,0,0-1.792l-8.279-8.279a.654.654,0,0,0-1.116.462v4.049a.727.727,0,0,1-.728.727H11.083a.618.618,0,0,0-.617.618v6.638a.618.618,0,0,0,.617.618H19.04a.727.727,0,0,1,.728.727v4.049A.654.654,0,0,0,20.884,29.175Z"/><rect class="cls-3" width="40" height="40" transform="translate(40 40) rotate(-180)"/></svg>