<?xml version="1.0" encoding="UTF-8"?><svg id="Layer_1" xmlns="http://www.w3.org/2000/svg" viewBox="0 0 40 40"><path d="m27.721,28.941c-2.525,0-4.916-1.312-6.238-3.423-1.355-2.164-1.395-4.813-.109-7.461.576-1.188,1.417-2.244,2.441-3.133-1.135-.232-2.404-.364-3.814-.364s-2.68.132-3.814.364c1.024.89,1.865,1.945,2.441,3.133,1.285,2.648,1.246,5.297-.109,7.461-1.322,2.111-3.713,3.423-6.238,3.423s-4.915-1.312-6.237-3.423c-1.355-2.163-1.395-4.813-.109-7.461.445-.919,1.106-1.855,1.991-2.732-.821-.023-1.656.062-2.483.277-.944.243-1.892-.318-2.134-1.254-.243-.936.318-1.891,1.253-2.134,2.486-.646,5.139-.464,7.506.358,2.123-.924,4.759-1.513,7.935-1.513s5.812.588,7.935,1.513c2.368-.823,5.019-1.002,7.506-.358.935.243,1.496,1.198,1.253,2.134-.242.935-1.194,1.496-2.134,1.254-.828-.216-1.662-.299-2.483-.277.885.876,1.546,1.813,1.991,2.732,1.285,2.648,1.246,5.298-.109,7.461-1.322,2.112-3.712,3.423-6.237,3.423Zm.123-12.51c-1.524.791-2.728,1.928-3.322,3.153-.75,1.546-.775,2.955-.073,4.076.678,1.082,1.962,1.781,3.272,1.781s2.594-.699,3.271-1.781c.702-1.12.677-2.53-.073-4.076-.535-1.103-1.546-2.24-3.075-3.153Zm-15.688,0c-1.528.913-2.539,2.05-3.074,3.153-.75,1.546-.775,2.956-.073,4.076.678,1.082,1.962,1.781,3.271,1.781s2.595-.699,3.272-1.781c.702-1.121.677-2.53-.073-4.076-.595-1.225-1.798-2.362-3.323-3.153Z" fill="#313d4c"/><rect width="40" height="40" fill="none"/></svg>