<?xml version="1.0" encoding="UTF-8"?><svg id="Layer_1" xmlns="http://www.w3.org/2000/svg" viewBox="0 0 40 40"><path d="M20,31.12939c-3.29688,0-6.41797-1.71338-8.14551-4.47119-1.77051-2.82764-1.8252-6.28271-.15332-9.72949,.5332-1.1001,1.25488-2.12646,2.12695-3.05273-2.09082,.05469-4.74023,.69434-7.06641,3.00391-.98145,.97314-2.5625,.96826-3.53613-.0127-.97266-.97949-.9668-2.5625,.0127-3.53516,3.58301-3.55762,8.58496-5.0957,13.72754-4.21973,1.04785,.17822,2.06348,.44775,3.03418,.79736,.9707-.34961,1.98633-.61914,3.03418-.79736,5.13672-.87549,10.14355,.66211,13.72754,4.21973,.97949,.97266,.98535,2.55566,.0127,3.53516-.97363,.97998-2.55469,.98584-3.53613,.0127-2.32617-2.30908-4.97559-2.94922-7.06641-3.00391,.87207,.92627,1.59375,1.95264,2.12695,3.05273,1.67188,3.44678,1.61719,6.90186-.15332,9.72949-1.72754,2.75781-4.84863,4.47119-8.14551,4.47119Zm0-15.73486c-1.71582,.9458-3.09277,2.25781-3.80078,3.7168-.90527,1.86719-.94238,3.55908-.10742,4.89258,.7959,1.27148,2.36719,2.12549,3.9082,2.12549s3.1123-.854,3.9082-2.12549c.83496-1.3335,.79785-3.02539-.10742-4.89258-.70801-1.45898-2.08496-2.771-3.80078-3.7168Z" style="fill:#313d4c;"/><rect width="40" height="40" style="fill:none;"/></svg>