<?xml version="1.0" encoding="UTF-8"?><svg id="Layer_1" xmlns="http://www.w3.org/2000/svg" viewBox="0 0 40 40"><path d="M27.7207,28.94092c-2.52539,0-4.91602-1.31201-6.23828-3.42334-1.35547-2.16357-1.39453-4.81299-.10938-7.46094,.57617-1.18799,1.41699-2.24365,2.44141-3.1333-1.13477-.23242-2.4043-.36426-3.81445-.36426s-2.67969,.13184-3.81445,.36426c1.02441,.88965,1.86523,1.94531,2.44141,3.1333,1.28516,2.64795,1.24609,5.29736-.10938,7.46094-1.32227,2.11133-3.71289,3.42334-6.23828,3.42334s-4.91504-1.31152-6.2373-3.42334c-1.35547-2.16309-1.39453-4.81299-.10938-7.46094,.44531-.91943,1.10645-1.85547,1.99121-2.73193-.82129-.02344-1.65625,.06152-2.4834,.27686-.94434,.24268-1.8916-.31836-2.13379-1.25391-.24316-.93555,.31836-1.89062,1.25293-2.13379,2.48633-.64551,5.13867-.46436,7.50586,.35791,2.12305-.92432,4.75879-1.5127,7.93457-1.5127s5.81152,.58838,7.93457,1.5127c2.36816-.82275,5.01855-1.00244,7.50586-.35791,.93457,.24316,1.49609,1.19824,1.25293,2.13379-.24219,.93506-1.19434,1.49561-2.13379,1.25391-.82812-.21582-1.66211-.29932-2.4834-.27686,.88477,.87646,1.5459,1.81299,1.99121,2.73193,1.28516,2.64795,1.24609,5.29785-.10938,7.46094-1.32227,2.11182-3.71191,3.42334-6.2373,3.42334Zm.12305-12.50977c-1.52441,.79102-2.72754,1.92773-3.32227,3.15283-.75,1.5459-.77539,2.95508-.07324,4.07568,.67773,1.08203,1.96191,1.78125,3.27246,1.78125,1.30957,0,2.59375-.69922,3.27148-1.78125,.70215-1.12012,.67676-2.52979-.07324-4.07568-.53516-1.10303-1.5459-2.23975-3.0752-3.15283Zm-15.68848,0c-1.52832,.91309-2.53906,2.0498-3.07422,3.15283-.75,1.5459-.77539,2.95557-.07324,4.07568,.67773,1.08203,1.96191,1.78125,3.27148,1.78125,1.31055,0,2.59473-.69922,3.27246-1.78125,.70215-1.12061,.67676-2.52979-.07324-4.07568-.59473-1.2251-1.79785-2.36182-3.32324-3.15283Z" style="fill:#313d4c;"/><rect width="40" height="40" style="fill:none;"/></svg>