<svg id="Layer_1" data-name="Layer 1" xmlns="http://www.w3.org/2000/svg" viewBox="0 0 40 40"><defs><style>.cls-1{fill:#e5e8eb;}.cls-2{fill:#313d4c;}.cls-3{fill:none;}</style></defs><rect class="cls-1" x="3.5" y="3.5" width="33" height="33" rx="8"/><path class="cls-2" d="M21.489,29.119,15.748,21.5a.6.6,0,0,1,.479-.961H27.709a.6.6,0,0,1,.479.961l-5.741,7.62A.6.6,0,0,1,21.489,29.119Z"/><path class="cls-2" d="M16.287,10.642h-4a.6.6,0,0,0-.6.6v3.227a.6.6,0,0,0,.6.6h4a3.468,3.468,0,0,1,3.467,3.468v5.305a.492.492,0,0,0,.492.492H23.69a.493.493,0,0,0,.492-.492v-5.3A7.9,7.9,0,0,0,16.287,10.642Z"/><rect class="cls-3" width="40" height="40"/></svg>