<svg id="Layer_1" data-name="Layer 1" xmlns="http://www.w3.org/2000/svg" viewBox="0 0 40 40"><defs><style>.cls-1{fill:#e5e8eb;}.cls-2{fill:#313d4c;}.cls-3{fill:none;}</style></defs><rect class="cls-1" x="3.5" y="3.5" width="33" height="33" rx="8"/><path class="cls-2" d="M29.175,19.116,20.9,10.837a1.267,1.267,0,0,0-1.792,0l-8.279,8.279a.654.654,0,0,0,.462,1.116h4.049a.727.727,0,0,1,.727.728v7.957a.618.618,0,0,0,.618.617h6.638a.618.618,0,0,0,.618-.617V20.96a.727.727,0,0,1,.727-.728h4.049A.654.654,0,0,0,29.175,19.116Z"/><rect class="cls-3" width="40" height="40"/></svg>