<?xml version="1.0" encoding="UTF-8"?><svg id="Layer_1" xmlns="http://www.w3.org/2000/svg" viewBox="0 0 40 40"><g style="opacity:.1;"><rect width="40" height="40" style="fill:none;"/></g><path d="M33.61426,31.76416c-.64941,0-1.29785-.25146-1.78809-.75244-4.69434-4.80176-7.70703-10.83936-9.37793-14.94092l-2.89648,4.02002c-.46973,.65234-1.22461,1.03857-2.02832,1.03857s-1.55859-.38623-2.02832-1.03857l-2.94434-4.08545c-1.03906,2.39551-2.5293,5.2002-4.39746,7.06836-.97656,.97559-2.55859,.97607-3.53516-.00049s-.97656-2.55908,0-3.53564c2.32227-2.32178,4.2666-7.65479,4.82031-9.51367,.27148-.91357,1.04004-1.59326,1.97949-1.75244,.93848-.15918,1.8877,.229,2.44531,1.00293l3.66016,5.0791,3.66016-5.0791c.56152-.78076,1.52637-1.16992,2.46875-.99951,.94727,.16992,1.71289,.86768,1.96875,1.79443,.02832,.10205,2.97949,10.49023,9.78125,17.44727,.96484,.9873,.94727,2.56982-.04004,3.53516-.48633,.47559-1.11719,.7124-1.74805,.7124Z" style="fill:#ffcd00;"/></svg>