<?xml version="1.0" encoding="UTF-8"?><svg id="Layer_1" xmlns="http://www.w3.org/2000/svg" viewBox="0 0 40 40"><g opacity=".1"><rect width="40" height="40" fill="none"/></g><path d="m33.614,31.764c-.649,0-1.298-.251-1.788-.752-4.694-4.802-7.707-10.839-9.378-14.941l-2.896,4.02c-.47.652-1.225,1.039-2.028,1.039s-1.559-.386-2.028-1.039l-2.944-4.085c-1.039,2.396-2.529,5.2-4.397,7.068-.977.976-2.559.976-3.535,0s-.977-2.559,0-3.536c2.322-2.322,4.267-7.655,4.82-9.514.271-.914,1.04-1.593,1.979-1.752.938-.159,1.888.229,2.445,1.003l3.66,5.079,3.66-5.079c.562-.781,1.526-1.17,2.469-1,.947.17,1.713.868,1.969,1.794.028.102,2.979,10.49,9.781,17.447.965.987.947,2.57-.04,3.535-.486.476-1.117.712-1.748.712Z" fill="#ffcd00"/></svg>