<?xml version="1.0" encoding="UTF-8"?>
<svg id="Layer_1" data-name="Layer 1" xmlns="http://www.w3.org/2000/svg" viewBox="0 0 40 40">
  <g>
    <polygon points="24.416 24.204 15.261 16.164 15.581 15.798 24.736 23.838 24.416 24.204" fill="#68778b"/>
    <path d="m37.236,16.018L21.722,2.393c-.371-.326-.937-.29-1.263.082l-8.89,10.123,3.852,3.382c2.22-2.528,6.07-2.778,8.598-.558s2.778,6.07.558,8.598l3.852,3.382,8.89-10.123c.326-.371.29-.937-.082-1.263Z" fill="#e6e6e6"/>
    <path d="m14.018,21.161c-.345-1.786.109-3.707,1.402-5.18l-3.852-3.382L2.679,22.722c-.152.173-.222.389-.219.603l11.559-2.164Z" fill="#5e7e66"/>
    <path d="m18.968,37.823l.653-11.742c-1.301-.08-2.587-.575-3.643-1.502l-5.461,6.218,7.757,6.812c.198.174.451.242.694.213Z" fill="#3d547e"/>
    <path d="m14.018,21.161l-11.559,2.164c.003.244.103.486.301.66l7.757,6.812,5.461-6.218c-1.056-.927-1.712-2.138-1.96-3.418Z" fill="#f6c864"/>
    <path d="m19.621,26.081l-.653,11.742c.213-.025.417-.122.57-.295l8.89-10.123-3.852-3.382c-1.292,1.458-3.149,2.17-4.956,2.059Z" fill="#b05258"/>
    <rect x="13.906" y="19.758" width="12.185" height=".486" transform="translate(-8.228 21.806) rotate(-48.663)" fill="#68778b"/>
    <polygon points="14.063 21.398 13.972 20.921 25.934 18.604 26.025 19.082 14.063 21.398" fill="#68778b"/>
    <rect x="13.906" y="19.757" width="12.185" height=".488" transform="translate(-1.356 38.548) rotate(-85.98)" fill="#68778b"/>
    <circle cx="27.065" cy="11.953" r="2.191" fill="#57739a"/>
  </g>
  <rect width="40" height="40" fill="none"/>
</svg>