<?xml version="1.0" encoding="UTF-8"?><svg id="Layer_1" xmlns="http://www.w3.org/2000/svg" viewBox="0 0 40 40"><g><g><path d="M33.49568,6.96733H6.49788c-.84506,0-1.53012,.68506-1.53012,1.53012V29.18604h30.05804V8.49745c0-.84506-.68506-1.53012-1.53012-1.53012Z" style="fill:#353d4a; fill-rule:evenodd;"/><path d="M35.02583,29.18604H4.96773l-3.22118,3.99142c-.58939,.73032-.06956,1.81781,.86891,1.81781H37.3781c.93848,0,1.4583-1.0875,.86891-1.81781l-3.22118-3.99142Z" style="fill:#bfc5ce;"/><path d="M24.77743,30.4921H15.21613c-.28127,0-.54745,.12723-.7241,.34612l-1.14022,1.41287c-.20118,.24928-.02374,.62048,.29659,.62048h12.69675c.32033,0,.49777-.3712,.29659-.62048l-1.14022-1.41287c-.17665-.21888-.44282-.34612-.7241-.34612Z" style="fill:#e4e7eb;"/></g><g><circle cx="27.00252" cy="11.65788" r="1.82167" style="fill:#93bbf8;"/><path d="M30.40297,16.48252c0-.77644-.95224-2.44581-3.40045-2.44581s-3.40045,1.66937-3.40045,2.44581h6.80091Z" style="fill:#93bbf8;"/></g><g><circle cx="27.00252" cy="21.21697" r="1.82167" style="fill:#d2e3fb;"/><path d="M30.40297,26.04161c0-.77644-.95224-2.44581-3.40045-2.44581s-3.40045,1.66937-3.40045,2.44581h6.80091Z" style="fill:#d2e3fb;"/></g><g><circle cx="14.71758" cy="15.75153" r="2.74658" style="fill:#4480e9;"/><path d="M19.84453,23.02577c0-1.17066-1.43571-3.68761-5.12695-3.68761s-5.12695,2.51694-5.12695,3.68761h10.2539Z" style="fill:#4480e9;"/></g></g><rect width="40" height="40" style="fill:none;"/></svg>