<?xml version="1.0" encoding="UTF-8"?>
<svg id="Layer_1" data-name="Layer 1" xmlns="http://www.w3.org/2000/svg" viewBox="0 0 40 40">
  <path d="m10.938,12.931c1.03-2.962,5.546-5.194,10.964-5.194s9.934,2.231,10.964,5.194c.765-.856,1.208-1.804,1.208-2.799,0-3.576-5.574-6.598-12.172-6.598s-12.172,3.021-12.172,6.598c0,.995.444,1.943,1.208,2.799Z" fill="#2c2423"/>
  <path d="m35.15,11.28v-.96s-.01.03-.02.06c0-.08.02-.16.02-.25,0-2.12-1.48-4.04-3.88-5.43-2.4-1.38-5.71-2.24-9.37-2.24-7.31,0-13.25,3.43-13.25,7.67,0,.09.02.17.03.25-.02-.03-.03-.06-.03-.06v.96c-1.7,1.74-2.75,4.12-2.75,6.75v.25c0,1.33.18,2.61.49,3.84,1.19-.38,2.57-.6,4.03-.6h.13c4.54.04,8.2,2.18,8.2,4.82,0,.05-.02.1-.02.15.01-.01.02-.03.02-.03v2.76c0,1.63-.48,3.14-1.29,4.43,1.41.4,2.9.63,4.44.63,8.84,0,16-7.16,16-16v-.25c0-2.63-1.05-5.01-2.75-6.75Zm-2.28,1.65c-1.99,2.22-6.21,3.8-10.97,3.8s-8.98-1.58-10.96-3.8c-.77-.85-1.21-1.8-1.21-2.8,0-3.57,5.57-6.6,12.17-6.6s12.17,3.03,12.17,6.6c0,1-.44,1.95-1.2,2.8Z" fill="#694a45"/>
  <g>
    <path d="m21.902,7.737c-5.418,0-9.934,2.231-10.964,5.194,1.984,2.221,6.201,3.799,10.964,3.799s8.979-1.578,10.964-3.799c-1.03-2.962-5.546-5.194-10.964-5.194Z" fill="#fff"/>
    <path d="m10.422,24.834c-3.404,0-6.242,1.402-6.888,3.263,1.247,1.395,3.896,2.387,6.888,2.387s5.642-.991,6.888-2.387c-.647-1.861-3.485-3.263-6.888-3.263Z" fill="#fff"/>
  </g>
  <g>
    <path d="m10.422,24.834c3.404,0,6.242,1.402,6.888,3.263.48-.538.759-1.133.759-1.758,0-2.247-3.502-4.145-7.648-4.145s-7.648,1.898-7.648,4.145c0,.625.279,1.221.759,1.758.647-1.861,3.484-3.263,6.888-3.263Z" fill="#d0d4d8"/>
    <path d="m18.745,27.568v-1.109s-.007.018-.013.035c-.052.939-.557,1.812-1.408,2.541-1.496,1.283-4.029,2.126-6.902,2.126s-5.406-.843-6.902-2.126c-.851-.729-1.357-1.602-1.408-2.541-.007-.017-.013-.035-.013-.035v2.759c0,4.597,3.727,8.324,8.324,8.324,2.968,0,5.566-1.558,7.039-3.896.809-1.283,1.284-2.799,1.284-4.428v-1.65Z" fill="#d0d4d8"/>
  </g>
  <path d="m3.52,29.035c1.496,1.283,4.029,2.126,6.902,2.126s5.406-.843,6.902-2.126c.851-.729,1.357-1.602,1.408-2.541.003-.052.013-.102.013-.154,0-2.637-3.657-4.777-8.193-4.818-.044,0-.086-.004-.13-.004-1.465,0-2.841.221-4.036.606-2.556.823-4.287,2.401-4.287,4.215,0,.052.011.103.013.154.052.939.557,1.812,1.408,2.541Zm6.902-6.841c4.145,0,7.648,1.898,7.648,4.145,0,.625-.279,1.221-.759,1.758-1.247,1.395-3.896,2.387-6.888,2.387s-5.642-.991-6.888-2.387c-.48-.538-.759-1.133-.759-1.758,0-2.247,3.502-4.145,7.648-4.145Z" fill="#e4e7ea"/>
</svg>