<?xml version="1.0" encoding="UTF-8"?><svg id="Layer_1" xmlns="http://www.w3.org/2000/svg" viewBox="0 0 40 40"><path d="M10.93817,12.93097c1.02954-2.96246,5.54602-5.19385,10.96368-5.19385s9.93414,2.23138,10.96368,5.19385c.76459-.85583,1.20831-1.80402,1.20831-2.79877,0-3.57629-5.5741-6.59772-12.172-6.59772s-12.172,3.02142-12.172,6.59772c0,.99475,.44373,1.94293,1.20831,2.79877Z" style="fill:#2c2423;"/><path d="M35.15002,11.27997v-.95996l-.02002,.06c0-.08002,.02002-.16003,.02002-.25,0-2.12-1.48004-4.04004-3.88-5.42999-2.40002-1.38-5.71002-2.24005-9.37-2.24005-7.31,0-13.25,3.43005-13.25,7.67004,0,.08997,.01996,.16998,.02997,.25-.02002-.03003-.02997-.06-.02997-.06v.95996c-1.70001,1.73999-2.75,4.12-2.75,6.75v.25c0,1.33002,.17999,2.61005,.48999,3.84003,1.19-.38,2.57001-.60004,4.02997-.60004h.13c4.54004,.04004,8.20001,2.18005,8.20001,4.82001,0,.05005-.02002,.10004-.02002,.15002,.01001-.01001,.02002-.03003,.02002-.03003v2.76001c0,1.63-.47998,3.14001-1.28998,4.42999,1.40997,.40002,2.89996,.63,4.44,.63,8.83997,0,16-7.15997,16-16v-.25c0-2.63-1.05005-5.01001-2.75-6.75Zm-2.28003,1.65002c-1.98999,2.21997-6.21002,3.79999-10.96997,3.79999s-8.98004-1.58002-10.96002-3.79999c-.77002-.85004-1.21002-1.79999-1.21002-2.79999,0-3.57001,5.57001-6.60004,12.17004-6.60004s12.16998,3.03003,12.16998,6.60004c0,1-.44,1.94995-1.20001,2.79999Z" style="fill:#694a45;"/><g><path d="M21.90186,7.73712c-5.41766,0-9.93414,2.23138-10.96368,5.19385,1.98419,2.22095,6.20099,3.79895,10.96368,3.79895s8.97949-1.578,10.96368-3.79895c-1.02954-2.96246-5.54602-5.19385-10.96368-5.19385Z" style="fill:#fff;"/><path d="M10.42175,24.83429c-3.40393,0-6.24158,1.40198-6.88843,3.26331,1.2467,1.39545,3.89606,2.38684,6.88843,2.38684s5.64178-.99139,6.88849-2.38684c-.64685-1.86133-3.48456-3.26331-6.88849-3.26331Z" style="fill:#fff;"/></g><g><path d="M10.42175,24.83429c3.40393,0,6.24164,1.40198,6.88849,3.26331,.48041-.53772,.75916-1.13348,.75916-1.75848,0-2.24701-3.5022-4.14532-7.64764-4.14532s-7.64758,1.89832-7.64758,4.14532c0,.625,.27881,1.22076,.75916,1.75848,.64685-1.86133,3.4845-3.26331,6.88843-3.26331Z" style="fill:#d0d4d8;"/><path d="M18.74542,27.56769v-1.10901l-.01349,.03485c-.05151,.93909-.5575,1.81189-1.40808,2.5412-1.49585,1.28253-4.02893,2.12573-6.9021,2.12573s-5.40625-.8432-6.90204-2.12573c-.85065-.72931-1.35657-1.60211-1.40808-2.5412l-.01349-.03485v2.75916c0,4.59698,3.72662,8.32361,8.32361,8.32361,2.96777,0,5.56567-1.55798,7.03937-3.89575,.80908-1.28345,1.2843-2.79858,1.2843-4.42786v-1.65015Z" style="fill:#d0d4d8;"/></g><path d="M3.51971,29.03473c1.49579,1.28253,4.02893,2.12573,6.90204,2.12573s5.40625-.8432,6.9021-2.12573c.85059-.72931,1.35657-1.60211,1.40808-2.5412,.00281-.05176,.01349-.10229,.01349-.15442,0-2.63727-3.65698-4.77661-8.19318-4.8175-.04388-.00037-.08643-.00385-.13049-.00385-1.46539,0-2.84052,.22107-4.0365,.6062-2.55585,.82294-4.28711,2.40118-4.28711,4.21515,0,.05212,.01068,.10266,.01349,.15442,.05151,.93909,.55743,1.81189,1.40808,2.5412Zm6.90204-6.84094c4.14545,0,7.64764,1.89832,7.64764,4.14532,0,.625-.27875,1.22076-.75916,1.75848-1.2467,1.39545-3.89612,2.38684-6.88849,2.38684s-5.64172-.99139-6.88843-2.38684c-.48035-.53772-.75916-1.13348-.75916-1.75848,0-2.24701,3.5022-4.14532,7.64758-4.14532Z" style="fill:#e4e7ea;"/></svg>