<?xml version="1.0" encoding="UTF-8"?><svg id="Layer_1" xmlns="http://www.w3.org/2000/svg" viewBox="0 0 40 40"><path d="M14.27087,30.29889h1.0321c.2879,0,.56793-.10339,.79736-.29449l.55322-.46069-.19086-.0965c-.27319-.13812-.37946-.50415-.22943-.79047l1.10962-2.1181-3.17584-1.40472c-1.35962-.60138-2.8703-.64789-4.25848-.1311l-3.21661,1.19745-.03766,.02234,1.26074,2.40662c.15002,.28632,.04376,.65234-.22943,.79047l-.21149,.10687,.57379,.47784c.22949,.1911,.50952,.29449,.79742,.29449h1.0321c.57471,0,1.07788,.32739,1.3692,.82013,.42767-.72101,.64935-1.79236,.75342-2.85724,.01025-.10486,.11041-.10486,.12067,0,.10522,1.07739,.33075,2.16168,.76843,2.88257,.28894-.50623,.79767-.84546,1.38171-.84546Z" style="fill:#313d4f;"/><path d="M7.23737,21.14148l-1.25482,2.78973c-.15259,.33923-.14105,.73975,.03076,1.06775l.63739,1.21667,.04126-.01538,3.21661-1.19745c1.38818-.51678,2.89886-.47028,4.25848,.1311l3.17584,1.40472,.79211-1.51215c.17181-.32794,.18335-.72852,.03076-1.06775l-1.25482-2.78973c-.12415-.27594-.15674-.59076-.09229-.89026l1.84772-8.47375,.05066,.04077c-.97473-.78339-3.13953-2.10803-6.59528-2.03485-4.15332,.08801-6.06958,1.42963-6.6297,1.91498l1.83759,8.52533c.06445,.2995,.03186,.61432-.09229,.89026Zm4.83679-9.12811c2.77295,0,5.02087,2.38977,5.02087,5.33765s-2.24792,5.33759-5.02087,5.33759-5.02087-2.38971-5.02087-5.33759,2.24792-5.33765,5.02087-5.33765Z" style="fill:#4381f0;"/><g><path d="M16.81866,20.27875c-.06445,.2995-.03186,.61432,.09229,.89026l1.25482,2.78973c.15259,.33923,.14105,.73981-.03076,1.06775l-.79211,1.51215-1.10962,2.1181c-.15002,.28632-.04376,.65234,.22943,.79047l.19086,.0965,2.47107,1.24915c-.08765-.29395-.14618-.62958-.14618-1.04895v-.15234c0-2.31873,.79169-4.57654,1.74432-6.44305l.31-.60736c-.84674-.33398-1.38043-1.65906-1.10156-2.95514,.31757-1.47614,.82611-2.84619,1.49091-4.03992-.44965-1.04187-1.06964-2.03119-1.79333-2.83069-.13348-.14746-.26172-.27795-.38098-.39404-.2146-.2088-.39349-.36273-.49347-.44519l-.03729-.0304-.05066-.04077-1.84772,8.47375Z" style="fill:#9dc8f9;"/><path d="M7.47412,29.52655l.21149-.10687c.27319-.13812,.37946-.50415,.22943-.79047l-1.26074-2.40662-.0036-.00696-.63739-1.21667c-.17181-.328-.18335-.72852-.03076-1.06775l1.25482-2.78973c.12415-.27594,.15674-.59076,.09229-.89026l-1.83759-8.52533-.00012-.00067c-.00525,.00403-.0296,.02747-.04114,.03784-.0274,.02454-.06439,.05945-.12201,.11548-.18958,.18439-.51514,.51404-.86774,.9035-.92377,1.02057-1.63068,2.2536-2.07202,3.60876l-1.5155,4.65302c-.61865,1.89941-.4635,3.99945,.4259,5.76447l2.11542,4.19788c.12964,.25726,.41791,.36121,.66107,.23828l.65497-.33112,2.74323-1.38678Z" style="fill:#9dc8f9;"/></g><g><path d="M37.90057,23.32623l-.36145-.8692c-.12903,.07245-.26398,.12805-.40863,.14856-1.52631-.15802-4.25146-.35083-6.25677,.00604-.09558,.01697-.18127-.05249-.22186-.16077l-.00061,.00024h-2.90564l-.0025-.00055c-.04449,.07666-.11237,.12567-.19031,.1145-2.01849-.28998-4.61774-.09149-6.03876,.05988l-.15869-.0011c-.1123-.00903-.21881-.04181-.32257-.0827l-.31,.60736c-.95264,1.86652-1.74432,4.12433-1.74432,6.44305v.15234c0,.41937,.05853,.755,.14618,1.04895,.04236,.14215,.09302,.2724,.15338,.38879,.43335,.83606,1.29834,1.05219,2.30713,1.05219h15.30817c1.43964,0,2.60669-.41095,2.60669-2.48993v-.50903c0-2.09705-.80933-4.14917-1.59943-5.90863Z" style="fill:#dc5257;"/><path d="M30.62646,20.26923v-1.30139l3.04242-1.17804c.12445-.04822,.18152-.26428,.10901-.42169-.14886-.32324-.33118-.83752-.47778-1.7254-.68567,1.68799-2.26721,2.87122-4.11151,2.87122-1.82013,0-3.37939-1.15552-4.07922-2.80817-.14478,.85028-.32166,1.35382-.46704,1.66956-.07251,.15741-.01544,.37347,.10895,.42169l3.04248,1.17804v1.29297c.53143,.02496,1.00806,.14685,1.42523,.32855,.41248-.17963,.88324-.30035,1.40747-.32733Z" style="fill:#dc5257;"/></g><g><path d="M29.21997,20.59998c-.59998,.26001-1.06995,.62-1.42999,.97003v-1.30005c.54004,.02002,1.01001,.14001,1.42999,.33002Z" style="fill:#b98950;"/><path d="M30.65002,22.45001h-2.86005l.98004-.36005c.38-.13995,.77997-.13,1.15997,.03003l.67999,.28998c.01001,.01001,.02002,0,.03003,.01001s.01001,.02002,.01001,.03003Z" style="fill:#b98950;"/><path d="M27.7431,22.45056l.0025,.00055h.0412c-.01398,0-.02228-.01355-.03546-.01593l-.00824,.01538Z" style="fill:#b98950;"/></g><g><path d="M16.65356,29.5437l-.55322,.46069c-.22943,.1911-.50946,.29449-.79736,.29449h-1.0321c-.58405,0-1.09277,.33923-1.38171,.84546-.15753,.276-.25232,.59979-.25232,.94958h5.56903c.36981,0,.71118-.21777,.89453-.5705l.17761-.3418c-.06036-.11639-.11102-.24664-.15338-.38879l-2.47107-1.24915Z" style="fill:#f4d0a1;"/><path d="M9.87744,30.29889h-1.0321c-.2879,0-.56793-.10339-.79742-.29449l-.57379-.47784-2.74323,1.38678,.34784,.66937c.16431,.3161,.47021,.51123,.80151,.51123h5.63123c0-.36011-.09869-.69391-.26483-.97491-.29132-.49274-.79449-.82013-1.3692-.82013Z" style="fill:#f4d0a1;"/><path d="M29.92639,22.11884l.67963,.2948c.01202,.00525,.0246,.00031,.0368,.00385-.00867-.03241-.01636-.0658-.01636-.10278v-2.04547c-.52423,.02698-.995,.14771-1.40747,.32733-.59613,.2597-1.07245,.6264-1.42523,.96851v.70239c0,.06439-.01794,.11945-.04242,.16772,.01318,.00238,.02148,.01593,.03546,.01593l.98718-.36584c.37854-.14026,.7785-.12866,1.1524,.03357Z" style="fill:#f4d0a1;"/></g><g><path d="M33.66522,13.77032c0,.66547-.13165,1.29755-.36511,1.87238,.14661,.88788,.32892,1.40216,.47778,1.7254,.07251,.15741,.01544,.37347-.10901,.42169l-3.04242,1.17804v3.34686c0,.03699,.00769,.07037,.01636,.10278,.00305,.01129,.00507,.02277,.00903,.03339,.04059,.10828,.12628,.17773,.22186,.16077,2.00531-.35687,4.73047-.16406,6.25677-.00604,.14465-.02051,.2796-.07611,.40863-.14856,.75616-.42456,1.21149-1.66229,.94989-2.87817-.65173-3.02936-2.09546-5.62494-4.0813-7.12646l-1.18958-.71454c.27844,.6181,.44708,1.30194,.44708,2.03247Z" style="fill:#f1b0b3;"/><path d="M21.03278,22.54114c.10376,.04089,.21027,.07367,.32257,.0827l.15869,.0011c1.42102-.15137,4.02026-.34985,6.03876-.05988,.07794,.01117,.14581-.03784,.19031-.1145l.00824-.01538c.02448-.04828,.04242-.10333,.04242-.16772v-3.29242l-3.04248-1.17804c-.12439-.04822-.18146-.26428-.10895-.42169,.14539-.31573,.32227-.81927,.46704-1.66956-.25073-.59216-.3974-1.24432-.3974-1.93542,0-.71118,.15796-1.37921,.42261-1.98468l-1.12207,.67395c-1.01819,.76984-1.89093,1.83044-2.59039,3.08649-.66479,1.19373-1.17334,2.56378-1.49091,4.03992-.27887,1.29608,.25482,2.62115,1.10156,2.95514Z" style="fill:#f1b0b3;"/></g><g><ellipse cx="12.07416" cy="17.351" rx="5.02087" ry="5.33763" style="fill:#292929;"/><path d="M33.66998,13.76996c0,.67004-.13995,1.30005-.37,1.87006-.69,1.68994-2.26996,2.87-4.10999,2.87-1.82001,0-3.38-1.15002-4.08002-2.80005-.25-.59998-.39996-1.25-.39996-1.94,0-.70996,.15997-1.37994,.41998-1.97998,.48999-1.12,1.37-2,2.46997-2.44,.01001-.20001,.05005-.39001,.12-.57001,.05005-.10999,.11005-.20996,.17004-.31,.28998-.41998,.76001-.70001,1.29999-.70001,.52997,0,1,.28003,1.28998,.70001,.07001,.10004,.13,.20001,.17999,.31,.07001,.17999,.11005,.37,.12006,.57001,1.07996,.44,1.94995,1.29004,2.43994,2.39001,.28003,.62,.45001,1.29999,.45001,2.02997Z" style="fill:#292929;"/></g><g><path d="M26.6521,8.47095c.01495,.05029,.02979,.10101,.02979,.15649s-.01483,.1062-.02979,.15649h1.06927c.04626-.11169,.10522-.21533,.17212-.31299h-1.24139Z" style="fill:#f2c170;"/><path d="M32.17841,8.78394v-.31299h-1.6947c.06689,.09766,.12585,.20129,.17212,.31299h1.52258Z" style="fill:#f2c170;"/><path d="M26.6521,8.47095c-.06378-.21436-.24615-.37268-.4696-.37268-.27582,0-.49939,.23694-.49939,.52917s.22357,.52917,.49939,.52917c.22345,0,.40582-.15833,.4696-.37268,.01495-.05029,.02979-.10101,.02979-.15649s-.01483-.1062-.02979-.15649Z" style="fill:#f2c170;"/></g></svg>