<?xml version="1.0" encoding="UTF-8"?>
<svg id="Layer_1" data-name="Layer 1" xmlns="http://www.w3.org/2000/svg" viewBox="0 0 40 40">
  <path d="m37.81,17.01c-1.26-4.39-4.97-7.93-9.77-9.42l-.06-.13c-.95-1.93-2.81-3.25-4.95-3.49l-6.54-.76c-2-.23-3.56,1.7-2.91,3.6l.78,2.3c-1.88,1.11-3.46,2.58-4.63,4.29l-1.58-1.56c-1.44-1.42-3.72-1.53-5.29-.26-1.41,1.14-1.87,3.08-1.13,4.73l1.41,3.14c.47,1.04.47,2.23,0,3.27l-1.41,3.14c-.74,1.65-.28,3.59,1.13,4.73,1.57,1.27,3.85,1.16,5.29-.26l1.86-1.83c.12-.12.22-.25.32-.38.85,1.05,1.87,1.98,3.02,2.79l.15,3.08c.09,1.94,2.05,3.23,3.88,2.54l7.22-2.74c6.02-.59,11-4.22,12.88-9.11.52-1.36-.97-2.59-.97-4.11,0-1.15,1.61-2.49,1.3-3.56Zm-29.44,9.02l-2.7,2.03c-.07.05-.15.08-.23.08-.11,0-.22-.05-.29-.15-.13-.17-.1-.4.07-.53l2.7-2.03c.16-.13.4-.09.52.07.13.17.09.4-.07.53Zm-3.38-4.72c0-.21.17-.38.37-.38h2.48c.21,0,.37.17.37.38s-.16.37-.37.37h-2.48c-.2,0-.37-.16-.37-.37Zm3.51-5.19c-.05.16-.2.26-.36.26-.04,0-.08,0-.11-.01l-3.45-1.12c-.19-.06-.3-.27-.24-.47.07-.2.28-.31.47-.24l3.45,1.11c.19.07.3.28.24.47Zm13.41,1.5c-.43.89-.68,1.92-.68,3.02s.25,2.12.68,3.01c-1.18-.49-2.01-1.65-2.01-3.01s.83-2.53,2.01-3.02Zm-3.89-6.47c-.43.89-.68,1.92-.68,3.02,0,1.09.25,2.12.68,3.01-1.18-.49-2.01-1.65-2.01-3.01s.83-2.53,2.01-3.02Zm0,12.36c-.43.89-.68,1.92-.68,3.01,0,1.1.25,2.13.68,3.02-1.18-.49-2.01-1.66-2.01-3.02s.83-2.52,2.01-3.01Zm-4.88-2.87c0-1.36.83-2.53,2.01-3.02-.43.89-.68,1.92-.68,3.02s.25,2.12.68,3.01c-1.18-.49-2.01-1.65-2.01-3.01Zm11.64,8.9c-1.18-.49-2.01-1.66-2.01-3.02s.83-2.52,2.01-3.01c-.43.89-.68,1.92-.68,3.01,0,1.1.25,2.13.68,3.02Zm0-12.36c-1.18-.49-2.01-1.65-2.01-3.01s.83-2.53,2.01-3.02c-.43.89-.68,1.92-.68,3.02,0,1.09.25,2.12.68,3.01Zm6.01-.17c-1.11,0-2.01-.9-2.01-2,0-1.11.9-2,2.01-2,1.1,0,2,.89,2,2,0,1.1-.9,2-2,2Z" fill="#e9a04c"/>
  <g>
    <circle cx="30.786" cy="15.009" r="2.003" fill="#aa6726"/>
    <path d="m16.012,14.167c0,1.359.831,2.523,2.011,3.016-.431-.891-.68-1.918-.68-3.016s.249-2.125.68-3.016c-1.181.492-2.011,1.657-2.011,3.016Z" fill="#aa6726"/>
    <path d="m18.024,29.54c-.431-.891-.68-1.918-.68-3.016s.249-2.125.68-3.016c-1.181.492-2.011,1.657-2.011,3.016s.831,2.523,2.011,3.016Z" fill="#aa6726"/>
    <path d="m15.153,23.654c-.431-.891-.68-1.918-.68-3.016s.249-2.125.68-3.016c-1.181.492-2.011,1.657-2.011,3.016s.831,2.523,2.011,3.016Z" fill="#aa6726"/>
    <path d="m22.77,14.167c0,1.359.831,2.523,2.011,3.016-.431-.891-.68-1.918-.68-3.016s.249-2.125.68-3.016c-1.181.492-2.011,1.657-2.011,3.016Z" fill="#aa6726"/>
    <path d="m24.781,23.508c-1.181.492-2.011,1.657-2.011,3.016s.831,2.523,2.011,3.016c-.431-.891-.68-1.918-.68-3.016s.249-2.125.68-3.016Z" fill="#aa6726"/>
    <path d="m19.899,20.638c0,1.359.831,2.523,2.011,3.016-.431-.891-.68-1.918-.68-3.016s.249-2.125.68-3.016c-1.181.492-2.011,1.657-2.011,3.016Z" fill="#aa6726"/>
    <path d="m8.257,15.652l-3.443-1.116c-.197-.062-.409.044-.473.241-.063.197.044.409.241.473l3.443,1.116c.039.012.078.018.116.018.158,0,.305-.101.357-.259.063-.197-.044-.409-.241-.473Z" fill="#aa6726"/>
    <path d="m7.916,25.428l-2.697,2.037c-.165.125-.198.36-.073.525.074.098.186.149.3.149.079,0,.158-.024.226-.076l2.697-2.037c.165-.125.198-.36.073-.525-.125-.166-.36-.198-.525-.073Z" fill="#aa6726"/>
    <path d="m5.363,21.683h2.477c.207,0,.375-.168.375-.375s-.168-.375-.375-.375h-2.477c-.207,0-.375.168-.375.375s.168.375.375.375Z" fill="#aa6726"/>
  </g>
</svg>