<?xml version="1.0" encoding="UTF-8"?><svg id="Layer_1" xmlns="http://www.w3.org/2000/svg" viewBox="0 0 40 40"><path d="M5.81378,23.39294c-.00684-.01233-.01263-.02496-.02002-.03717-.01154-.01904-.01758-.03943-.02881-.05859-.15991-.2702-.29266-.547-.40735-.82794l-.00854-.01733-.00769-.02478c-.1076-.26953-.1922-.54358-.25433-.82202-.01117-.0481-.02374-.09576-.03345-.1441-.05701-.2962-.09564-.5954-.0968-.90027l-.00134-.01227,.00018-.00238-.00018-.00238c0-.00977,.0025-.01917,.00256-.02887,.00195-.21771,.02325-.43256,.05707-.64551,.06287-.46307,.19171-.91443,.3775-1.35413,.05481-.12976,.10944-.25946,.17432-.38684,.06232-.12231,.13177-.24243,.20325-.36243,.07294-.12268,.15112-.24371,.23334-.36389,.07727-.11273,.15344-.22534,.23865-.33569,.10791-.13995,.22723-.27612,.34772-.41199,2.49457-2.81421,7.59583-4.7478,13.49969-4.7478,2.23126,0,4.34277,.28265,6.24969,.7774l.03198-.01019c1.54498,.39801,2.94843,.93915,4.16498,1.5946-.0152,.00354-.03015,.00854-.04535,.01221,2.909,1.57404,4.73285,3.79474,4.73285,6.26312,0,.09064-.01471,.17908-.01971,.26898l.00031-.00006-.00085,.00714c-.01208,.21002-.03516,.41821-.07373,.62408l-.00751,.03418c-.03754,.19305-.08179,.38477-.14142,.57373-.02484,.08093-.05884,.15997-.08759,.24011-.04419,.12036-.08344,.2417-.13623,.36023-.09174,.20941-.19537,.41614-.3136,.61914,2.66852-1.7738,4.28271-4.04761,4.32709-6.53033-.00201-.15619-.01764-.30878-.02338-.46399-.34595-5.56305-8.58228-10.01709-18.71851-10.01709C9.88568,6.25983,1.64508,10.71954,1.30914,16.28772c-.00549,.15057-.02081,.29858-.02277,.45007,.04413,2.54297,1.74353,4.86279,4.5274,6.65515Z" style="fill:#3d3d3d;"/><path d="M38.77045,16.74091c-.04437,2.48273-1.65857,4.75653-4.32709,6.53033l-.00391,.00757c-.06738,.0448-.14594,.08398-.21466,.12811l-.00995,.0011-.03345,.01996c.01819-.00275,.03894-.00354,.05701-.00641-3.43866,2.20807-8.51587,3.61267-14.19623,3.61267-1.1225,0-2.21246-.06958-3.28003-.17456l.02228-.01611-.03003-.00281-.00586,.00427c-.05389-.00531-.10547-.0141-.15924-.01965-.44421-.04584-.8819-.09924-1.31439-.16217-.12793-.01855-.25336-.03992-.38025-.05988-.43536-.06891-.8678-.13995-1.28955-.22552-.03351-.00677-.06537-.01538-.09875-.02222-.74176-.15314-1.45667-.33417-2.15057-.53607-.26929-.07776-.5401-.15381-.80151-.23846-.22089-.07202-.43353-.14984-.6485-.22668-.3219-.11432-.63757-.2326-.9455-.3573-.16583-.0675-.32977-.13556-.49139-.20599-.37408-.16223-.7348-.33264-1.08521-.51001-.08984-.04565-.18329-.08875-.27148-.13531-.45123-.23749-.8877-.48346-1.29425-.74506l-.00415-.00775c-2.78387-1.79236-4.48328-4.11218-4.5274-6.65515-.00104,.08203-.01227,.16144-.01227,.24377,0,10.35767,8.39655,18.75427,18.75421,18.75427s18.75427-8.39661,18.75427-18.75427c0-.0813-.01117-.15967-.01215-.24066Z" style="fill:#c2c2c2;"/><g><path d="M11.33783,13.51031c.99988,.34119,2.17487,.84119,3.12537,1.5097,1.59082-.59167,3.52881-.94269,5.62634-.94269,1.05511,0,2.06879,.09058,3.02057,.25336,.90472-.76331,2.09485-1.33038,3.22913-1.64673-1.90692-.49475-4.01843-.7774-6.24969-.7774" style="fill:#eff1f3;"/><path d="M29.84564,19.20215c0,.44122-.11737,.86707-.31702,1.27563,1.39868,.27789,4.0874,.71442,5.67535,.3349,.005-.0899,.01971-.17834,.01971-.26898,0-2.46838-1.82385-4.68909-4.73285-6.26312-1.19727,.28784-2.36658,.82007-3.36432,1.37775,1.68066,.92065,2.71912,2.16754,2.71912,3.54382Z" style="fill:#eff1f3;"/></g><path d="M20.08954,24.32703c-4.31476,0-7.96881-1.47296-9.25598-3.5127-1.80597,.14661-3.92584,.56586-5.4845,1.63757l.00854,.01733c.1142,.28101,.24866,.5575,.40735,.82794,.01123,.01917,.01727,.03955,.02881,.05859,.00739,.01221,.01318,.02484,.02002,.03717l.00415,.00775c.40656,.2616,.84302,.50757,1.29425,.74506,.08826,.04645,.18164,.08984,.27148,.13531,.3504,.17737,.71112,.34778,1.08521,.51001,.16174,.07013,.32544,.13879,.49139,.20599,.30792,.12469,.6236,.24298,.9455,.3573,.21515,.07642,.42743,.15509,.6485,.22668,.26141,.08466,.53223,.16071,.80151,.23846,.69476,.20056,1.40808,.38385,2.15057,.53607,.03339,.00684,.06525,.01544,.09875,.02222,.42181,.0849,.85431,.15704,1.28955,.22552,.12689,.01996,.25232,.04132,.38025,.05988,.43219,.06256,.87073,.11633,1.31439,.16217,.05377,.00555,.10535,.01434,.15924,.01965l.00586-.00427,3.48511-2.5177c-.05048,.00043-.0993,.00397-.14996,.00397Z" style="fill:#cf3d40;"/><path d="M10.83356,20.81433c-.32019-.50739-.50006-1.04834-.50006-1.61218,0-.2663,.05054-.52582,.12506-.78119-2.05487-.14374-3.96112,.15369-5.20898,.43689-.05414,.1557-.08752,.31543-.12683,.47406-.04401,.17773-.07904,.35706-.10767,.53741-.03381,.21295-.05511,.4278-.05707,.64551-.00012,.0105-.00238,.02069-.00238,.03125l-.00018,.00238,.00134,.01227c.00085,.30493,.03729,.60461,.0968,.90027,.0097,.04834,.02228,.09601,.03345,.1441,.06439,.27783,.14691,.55249,.25433,.82202l.00769,.02478c1.55865-1.07172,3.67853-1.49097,5.4845-1.63757Z" style="fill:#f09336;"/><path d="M11.33783,13.51031c-1.42389,.5777-2.66595,1.28986-3.66528,2.10809,1.39215,.0614,3.09924,.22589,4.45935,.62561,.64001-.47424,1.42816-.88812,2.3313-1.224-.9505-.66852-2.12549-1.16852-3.12537-1.5097Z" style="fill:#429091;"/><path d="M10.45856,18.42096c.23419-.80225,.8172-1.54272,1.67334-2.17694-1.36011-.39972-3.0672-.56421-4.45935-.62561-.31622,.25879-.61456,.52521-.88037,.80359-.07239,.07581-.13391,.15521-.20233,.23236-.12048,.13586-.23981,.27203-.34772,.41199-.08508,.11023-.16156,.22308-.23865,.33569-.08221,.12018-.1604,.24121-.23334,.36389-.07129,.11993-.14105,.24017-.20325,.36243-.06488,.12738-.11951,.25708-.17432,.38684-.04822,.11407-.10272,.22681-.14301,.34265,1.24786-.2832,3.15411-.58063,5.20898-.43689Z" style="fill:#f7cc46;"/><path d="M34.89319,22.29187c.02875-.08014,.06274-.15918,.08759-.24011,.05798-.18921,.10516-.38049,.14142-.57373l.00751-.03418c.03723-.20593,.06189-.41406,.07373-.62408l.00085-.00714-.00031,.00006c-1.58795,.37952-4.27667-.05701-5.67535-.3349-.2735,.55975-.71429,1.08386-1.30621,1.55255,2.40082,1.46368,4.47772,1.61749,5.99243,1.37769l.00995-.0011c.06873-.04413,.14728-.08331,.21466-.12811l.00391-.00757c.11823-.203,.22186-.40973,.3136-.61914,.052-.11865,.09296-.23962,.13623-.36023Z" style="fill:#5e7e66;"/><path d="M27.12653,15.65833c.99774-.55768,2.16705-1.0899,3.36432-1.37775,.0152-.00366,.03015-.00867,.04535-.01221-1.21655-.65546-2.62-1.19659-4.16498-1.5946l-.03198,.01019c-1.13428,.31635-2.3244,.88342-3.22913,1.64673,1.5451,.26422,2.9176,.72571,4.01642,1.32764Z" style="fill:#f09336;"/><path d="M27.12653,15.65833c-1.09882-.60193-2.47131-1.06342-4.01642-1.32764-.95178-.16278-1.96545-.25336-3.02057-.25336-2.09753,0-4.03552,.35101-5.62634,.94269-.90314,.33588-1.69128,.74976-2.3313,1.224-.85614,.63422-1.43915,1.37469-1.67334,2.17694-.07452,.25537-.12506,.51489-.12506,.78119,0,.56384,.17987,1.1048,.50006,1.61218,1.28717,2.03973,4.94122,3.5127,9.25598,3.5127,.05066,0,.09949-.00354,.14996-.00397l.03516-.00098c3.31635-.03278,6.22723-.93176,7.94281-2.28741l.00494-.00433c.59192-.46869,1.03271-.9928,1.30621-1.55255,.19965-.40857,.31702-.83441,.31702-1.27563,0-1.37628-1.03845-2.62317-2.71912-3.54382Zm-7.03699,.1377c2.40558,0,4.35559,1.17004,4.35559,2.61334s-1.95001,2.6134-4.35559,2.6134-4.35553-1.17004-4.35553-2.6134,1.95001-2.61334,4.35553-2.61334Z" style="fill:#fff;"/><g><path d="M1.27722,16.63727c0,.03394,.00861,.06665,.00916,.10052,.00195-.15149,.01727-.2995,.02277-.45007-.00708,.117-.03192,.23157-.03192,.34955Z" style="fill:#f7cc66;"/><path d="M38.77991,16.63727c0-.12164-.02533-.23975-.03284-.36035,.00574,.15521,.02136,.3078,.02338,.46399,.00061-.03491,.00946-.06866,.00946-.10364Z" style="fill:#f7cc66;"/><path d="M28.21747,22.03467c-1.71558,1.35565-4.62646,2.25464-7.94281,2.28741l-3.49023,2.52148-.02228,.01611c1.06757,.10498,2.15753,.17456,3.28003,.17456,5.68036,0,10.75757-1.4046,14.19623-3.61267-.01807,.00287-.03882,.00366-.05701,.00641-1.51477,.23047-3.5788,.06671-5.96393-1.39331Z" style="fill:#f7cc66;"/><path d="M20.08954,21.02277c2.40558,0,4.35559-1.17004,4.35559-2.6134s-1.95001-2.61334-4.35559-2.61334-4.35553,1.17004-4.35553,2.61334,1.95001,2.6134,4.35553,2.6134Z" style="fill:#f7cc66;"/></g></svg>