<?xml version="1.0" encoding="UTF-8"?>
<svg id="Layer_1" data-name="Layer 1" xmlns="http://www.w3.org/2000/svg" viewBox="0 0 40 40">
  <g>
    <rect x="17.554" y="2.19" width="1.387" height="39.502" rx=".694" ry=".694" transform="translate(20.859 -6.476) rotate(45)" fill="#e3b159"/>
    <rect x="4.753" y="19.194" width="25.526" height="6.58" rx="1.938" ry="1.938" transform="translate(21.029 -5.8) rotate(45)" fill="#eaddcd"/>
    <rect x="9.721" y="14.226" width="25.526" height="6.58" rx="1.938" ry="1.938" transform="translate(18.971 -10.768) rotate(45)" fill="#eaddcd"/>
    <rect x="14.689" y="9.259" width="25.526" height="6.58" rx="1.938" ry="1.938" transform="translate(16.913 -15.736) rotate(45)" fill="#eaddcd"/>
    <rect x="-.215" y="24.162" width="25.526" height="6.58" rx="1.938" ry="1.938" transform="translate(23.087 -.833) rotate(45)" fill="#eaddcd"/>
    <path d="m9.447,12.503l-1.912,1.912c-.757.757-.757,1.984,0,2.741l6.299,6.299c2.646,1.421,5.98,1.083,8.301-1.005l-9.947-9.947c-.757-.757-1.984-.757-2.741,0Z" fill="#c35231"/>
    <path d="m14.415,7.535l-1.912,1.912c-.757.757-.757,1.984,0,2.74l9.964,9.964c1.934-1.907,4.582-2.648,7.076-2.229l-12.387-12.387c-.757-.757-1.984-.757-2.74,0Z" fill="#c35231"/>
    <path d="m37.965,19.616c.118-.611-.059-1.267-.532-1.74L22.123,2.568c-.757-.757-1.984-.757-2.741,0l-1.912,1.912c-.757.757-.757,1.984,0,2.741l12.895,12.895c.125.035.252.055.376.096,0,0,4.129.929,7.223-.594Z" fill="#c35231"/>
    <path d="m4.48,17.471l-1.912,1.912c-.757.757-.757,1.984,0,2.74l1.054,1.054c.316-.51.724-.98,1.224-1.384,1.841-1.49,4.48-1.521,6.428-.269l-4.053-4.053c-.757-.757-1.984-.757-2.74,0Z" fill="#c35231"/>
  </g>
  <rect width="40" height="40" fill="none"/>
</svg>