<?xml version="1.0" encoding="UTF-8"?>
<svg id="Layer_1" data-name="Layer 1" xmlns="http://www.w3.org/2000/svg" viewBox="0 0 40 40">
  <g>
    <path d="m22.887,18.763c0-2.215-1.342-4.881-3.349-6.108-.448-.274-.722-.757-.722-1.283V2.916c0-.415-.336-.751-.751-.751h-4.319c-.415,0-.751.336-.751.751v8.456c0,.525-.274,1.009-.722,1.283-2.007,1.227-3.349,3.893-3.349,6.108h-.008v16.87c0,.992.804,1.797,1.797,1.797h10.386c.992,0,1.797-.804,1.797-1.797v-16.87h-.008Z" fill="#377d59"/>
    <rect x="8.916" y="19.855" width="11.395" height="13.33" fill="#bae2bd"/>
    <path d="m14.099,1.761h3.62c.608,0,1.101.494,1.101,1.101v3.14h-5.822v-3.14c0-.608.494-1.101,1.101-1.101Z" fill="#21503d"/>
    <path d="m32.944,37.43h-5.742c-.749,0-1.379-.561-1.465-1.305l-.904-7.796c-.073-.453.276-.864.735-.864h9.01c.459,0,.808.411.735.864l-.904,7.796c-.086.744-.716,1.305-1.465,1.305Z" fill="#dbe3e0"/>
  </g>
  <rect x="1" width="40" height="40" fill="none"/>
</svg>