<?xml version="1.0" encoding="utf-8"?>
<!-- Generator: Adobe Illustrator 27.2.0, SVG Export Plug-In . SVG Version: 6.00 Build 0)  -->
<svg version="1.1" id="Layer_1" xmlns="http://www.w3.org/2000/svg" xmlns:xlink="http://www.w3.org/1999/xlink" x="0px" y="0px"
	 viewBox="0 0 40 40" style="enable-background:new 0 0 40 40;" xml:space="preserve">
<style type="text/css">
	.st0{fill:none;}
	.st1{fill:#D0D5DC;}
	.st2{fill:#D0D4D8;}
	.st3{fill:#959FA6;}
	.st4{fill-rule:evenodd;clip-rule:evenodd;fill:#E5E8EC;}
	.st5{fill-rule:evenodd;clip-rule:evenodd;fill:#F09336;}
	.st6{fill-rule:evenodd;clip-rule:evenodd;fill:#DC5257;}
</style>
<g>
	<rect class="st0" width="40" height="40"/>
	<g>
		<g>
			<path class="st1" d="M7.6,35.7h24.7c1.1,0,2.1-0.9,2.1-2.1V16.9H5.6v16.6C5.6,34.7,6.5,35.7,7.6,35.7L7.6,35.7z"/>
			<path class="st2" d="M25.5,16.9H14.5v18.7h10.9C25.5,35.7,25.5,16.9,25.5,16.9z"/>
			<path class="st3" d="M18.3,29.7h3.3c0.7,0,1.3,0.6,1.3,1.3v4.7h-6V31C17,30.3,17.6,29.7,18.3,29.7z"/>
		</g>
		<path class="st4" d="M35.8,4.3H4.5c-1.1,0-2,0.9-2,2v11c0,1.1,0.9,2,2,2h31c1.1,0,2-0.9,2-2V6.1C37.5,5.1,36.7,4.3,35.8,4.3
			L35.8,4.3z"/>
		<path class="st5" d="M35.8,4.3H21.2l-8.6,15h22.9c1.1,0,2-0.9,2-2V6.1C37.5,5.1,36.7,4.3,35.8,4.3L35.8,4.3z"/>
		<path class="st6" d="M35.8,4.3h-8.3l-8.6,15h16.7c1.1,0,2-0.9,2-2V6.1C37.5,5.1,36.7,4.3,35.8,4.3L35.8,4.3z"/>
	</g>
</g>
</svg>
