<?xml version="1.0" encoding="UTF-8"?>
<svg id="Layer_1" data-name="Layer 1" xmlns="http://www.w3.org/2000/svg" viewBox="0 0 40 40">
  <rect x="-154" y="-6" width="350" height="52" fill="none" stroke="#f24253" stroke-miterlimit="10" stroke-width="2"/>
  <rect width="40" height="40" fill="none"/>
  <g>
    <g>
      <g>
        <path d="m19.535,19.746s-1.727,1.593-4.016,2.225c-2.389.659-5.472.264-7.832.915-1.563.431-2.708,1.172-3.243,1.568-.161.119-.396.055-.442-.117L1.013,13.17c-.045-.166.025-.345.183-.457.561-.399,2.003-1.326,3.826-1.783,2.367-.593,5.12-.096,7.439-.718,2.241-.601,3.936-2.19,3.936-2.19l3.138,11.725Z" fill="#d4d4d4"/>
        <line x1="16.813" y1="6.543" x2="25.049" y2="37.321" fill="none" stroke="#353d4a" stroke-linecap="round" stroke-miterlimit="10" stroke-width="2.054"/>
        <circle cx="16.813" cy="6.543" r="1.861" fill="#353d4a"/>
      </g>
      <g>
        <path d="m20.465,19.746s1.727,1.593,4.016,2.225c2.389.659,5.472.264,7.832.915,1.563.431,2.708,1.172,3.243,1.568.161.119.396.055.442-.117l2.988-11.166c.045-.166-.025-.345-.183-.457-.561-.399-2.003-1.326-3.826-1.783-2.367-.593-5.12-.096-7.439-.718-2.241-.601-3.936-2.19-3.936-2.19l-3.138,11.725Z" fill="#e4e7ea"/>
        <line x1="23.187" y1="6.543" x2="14.951" y2="37.321" fill="none" stroke="#353d4a" stroke-linecap="round" stroke-miterlimit="10" stroke-width="2.054"/>
        <circle cx="23.187" cy="6.543" r="1.861" fill="#353d4a"/>
      </g>
    </g>
    <rect width="40" height="40" fill="none"/>
  </g>
</svg>