<?xml version="1.0" encoding="UTF-8"?>
<svg id="Layer_1" data-name="Layer 1" xmlns="http://www.w3.org/2000/svg" viewBox="0 0 40 40">
  <rect width="40" height="40" fill="none"/>
  <g>
    <g>
      <path d="m14.5,35.455l-10.266-2.944c-.433-.124-.734-.545-.734-1.026V8.85c0-.698.616-1.206,1.244-1.026l9.756,2.798v24.834Z" fill="#d0d5dc"/>
      <polygon points="14.5 35.455 25.5 32.301 25.5 7.467 14.5 10.622 14.5 35.455" fill="#e1e4e7"/>
      <path d="m35.256,35.098l-9.756-2.798V7.467l10.266,2.944c.433.124.734.545.734,1.026v22.635c0,.698-.616,1.206-1.244,1.026Z" fill="#d0d5dc"/>
    </g>
    <g>
      <path d="m26.22,19.472c.935-.988,2.627-2.764,4.127-4.271,2.858-2.873,3.053-7.776.16-10.613-1.39-1.363-3.198-2.044-5.007-2.043-1.808,0-3.616.68-5.006,2.043-2.895,2.838-2.699,7.741.16,10.614,1.5,1.507,3.195,3.283,4.13,4.271.39.412,1.045.411,1.435,0Z" fill="#4582ed"/>
      <circle cx="25.501" cy="9.695" r="2.123" fill="#fbfbfb"/>
    </g>
  </g>
</svg>