<?xml version="1.0" encoding="UTF-8"?><svg id="Layer_1" xmlns="http://www.w3.org/2000/svg" viewBox="0 0 40 40"><g><g><polygon points="31.1745 28.94271 8.93488 28.94271 8.93488 17.42159 30.87903 18.90163 31.1745 28.94271" style="fill:#e4e6e9;"/><circle cx="21.4635" cy="14.409" r="10.77731" style="fill:#e4e6e9;"/><circle cx="30.84381" cy="21.15091" r="7.7918" style="fill:#e4e6e9;"/><circle cx="10.10455" cy="20.53831" r="8.4044" style="fill:#e4e6e9;"/></g><path d="M12.89318,26.32268h14.07493c.25967,0,.39426-.30978,.21707-.49959l-6.8223-7.30807c-.28759-.30807-.77703-.30464-1.06028,.00742l-6.6293,7.30371c-.17319,.19081-.0378,.49654,.21988,.49654Z" style="fill:#4480e9;"/><path d="M26.31694,32.365h-.00005c-2.01351,0-3.64581-1.43341-3.64581-3.20158v-2.84074h-5.99117v4.21344c0,3.22105,2.97349,5.83219,6.64142,5.83219s6.64142-2.61113,6.64142-5.83219v-1.3727c0,1.76817-1.6323,3.20158-3.64581,3.20158Z" style="fill:#4480e9;"/></g><rect width="40" height="40" style="fill:none;"/></svg>