<?xml version="1.0" encoding="UTF-8"?><svg id="Layer_1" xmlns="http://www.w3.org/2000/svg" viewBox="0 0 40 40"><g><path d="M35.8335,27.11377l-3.40887,3.40887c.68018,.11902,1.21399,.65289,1.33301,1.33301l3.40887-3.40887c.36816-.36816,.36816-.96484,0-1.33301s-.96484-.36816-1.33301,0Z" style="fill:#acb6c4;"/><path d="M30.52264,32.42462l-3.40887,3.40887c-.36816,.36816-.36816,.96484,0,1.33301,.18408,.18408,.42529,.27637,.6665,.27637s.48242-.09229,.6665-.27637l3.40894-3.40894c-.68018-.11896-1.21405-.65277-1.33307-1.33295Z" style="fill:#acb6c4;"/><path d="M31.85565,6.24237l-3.40887-3.40887c-.36816-.36816-.96484-.36816-1.33301,0s-.36816,.96484,0,1.33301l3.40887,3.40887c.11902-.68024,.65277-1.21399,1.33301-1.33301Z" style="fill:#acb6c4;"/><path d="M32.42462,9.47736l3.40887,3.40887c.18408,.18408,.42529,.27637,.6665,.27637s.48242-.09229,.6665-.27637c.36816-.36816,.36816-.96484,0-1.33301l-3.40887-3.40887c-.11902,.68018-.65283,1.21399-1.33301,1.33301Z" style="fill:#acb6c4;"/><path d="M9.47736,7.57538l3.40887-3.40887c.36816-.36816,.36816-.96484,0-1.33301s-.96484-.36816-1.33301,0l-3.40887,3.40887c.68024,.11902,1.21399,.65277,1.33301,1.33301Z" style="fill:#acb6c4;"/><path d="M6.24237,8.14435l-3.40887,3.40887c-.36816,.36816-.36816,.96484,0,1.33301,.18408,.18408,.42529,.27637,.6665,.27637s.48242-.09229,.6665-.27637l3.40887-3.40887c-.68018-.11902-1.21399-.65283-1.33301-1.33301Z" style="fill:#acb6c4;"/><path d="M7.57538,30.52264l-3.40887-3.40887c-.36816-.36816-.96484-.36816-1.33301,0s-.36816,.96484,0,1.33301l3.40887,3.40887c.11902-.68011,.65283-1.21399,1.33301-1.33301Z" style="fill:#acb6c4;"/><path d="M8.14429,33.75757l3.40894,3.40894c.18408,.18408,.42529,.27637,.6665,.27637s.48242-.09229,.6665-.27637c.36816-.36816,.36816-.96484,0-1.33301l-3.40887-3.40887c-.11902,.68018-.65289,1.21399-1.33307,1.33295Z" style="fill:#acb6c4;"/></g><g><path d="M31.85565,30.52264l-2.2879-2.2879-1.33301,1.33301,2.2879,2.2879c.11902-.68018,.65277-1.21399,1.33301-1.33301Z" style="fill:#4b596a;"/><path d="M32.42462,30.52264c-.09283-.01624-.18701-.02869-.28448-.02869s-.19171,.01245-.28448,.02869c-.68024,.11902-1.21399,.65283-1.33301,1.33301-.01624,.09277-.02869,.18701-.02869,.28442,0,.09747,.01245,.19171,.02869,.28455,.11902,.68018,.65289,1.21399,1.33307,1.33295,.09277,.01624,.18701,.02869,.28442,.02869,.90912,0,1.64618-.737,1.64618-1.64618,0-.09741-.01245-.19165-.02869-.28442-.11902-.68011-.65283-1.21399-1.33301-1.33301Z" style="fill:#4b596a;"/><path d="M31.85565,9.47736c-.68024-.11902-1.21399-.65277-1.33301-1.33301l-2.2879,2.2879,1.33307,1.33295,2.28784-2.28784Z" style="fill:#4b596a;"/><path d="M31.85565,9.47736c.09277,.01624,.18701,.02869,.28448,.02869s.19165-.01245,.28448-.02869c.68018-.11902,1.21399-.65283,1.33301-1.33301,.01624-.09277,.02869-.18701,.02869-.28448,0-.90918-.73706-1.64618-1.64618-1.64618-.09747,0-.19171,.01245-.28448,.02869-.68024,.11902-1.21399,.65277-1.33301,1.33301-.01624,.09277-.02869,.18701-.02869,.28448s.01245,.19171,.02869,.28448c.11902,.68024,.65277,1.21399,1.33301,1.33301Z" style="fill:#4b596a;"/><path d="M9.47736,8.14435c-.11902,.68024-.65277,1.21399-1.33301,1.33301l2.28784,2.28784,1.33307-1.33295-2.2879-2.2879Z" style="fill:#4b596a;"/><path d="M9.47736,8.14435c.01624-.09277,.02869-.18701,.02869-.28448s-.01245-.19171-.02869-.28448c-.11902-.68024-.65277-1.21399-1.33301-1.33301-.09277-.01624-.18701-.02869-.28448-.02869-.90912,0-1.64618,.737-1.64618,1.64618,0,.09747,.01245,.19171,.02869,.28448,.11902,.68018,.65283,1.21399,1.33301,1.33301,.09283,.01624,.18701,.02869,.28448,.02869s.19171-.01245,.28448-.02869c.68024-.11902,1.21399-.65277,1.33301-1.33301Z" style="fill:#4b596a;"/><path d="M8.14435,30.52264c.68024,.11902,1.21399,.65283,1.33301,1.33301l2.2879-2.2879-1.33301-1.33301-2.2879,2.2879Z" style="fill:#4b596a;"/><path d="M8.14435,30.52264c-.09277-.01624-.18701-.02869-.28448-.02869s-.19165,.01245-.28448,.02869c-.68018,.11902-1.21399,.65289-1.33301,1.33301-.01624,.09277-.02869,.18701-.02869,.28442,0,.90918,.73706,1.64618,1.64618,1.64618,.09741,0,.19165-.01245,.28442-.02869,.68018-.11896,1.21405-.65277,1.33307-1.33295,.01624-.09283,.02869-.18707,.02869-.28455,0-.09741-.01245-.19165-.02869-.28442-.11902-.68018-.65277-1.21399-1.33301-1.33301Z" style="fill:#4b596a;"/></g><path d="M30.59406,27.20837c.44183-.44183,.44183-1.1582,0-1.60004l-2.85254-2.85248c-.7309-.7309-1.14154-1.72223-1.14154-2.75592,0-1.03363,.41064-2.02496,1.14154-2.75592l2.85254-2.85248c.44183-.44189,.44183-1.15833-.00006-1.60016l-1.02618-1.02618-1.33307-1.33295-1.02625-1.02625c-.44183-.44189-1.15826-.44189-1.6001,0l-2.85248,2.85248c-.7309,.7309-1.72223,1.14154-2.75592,1.14154h-.00006c-1.03369,0-2.02496-.41064-2.75592-1.14154l-2.85248-2.85248c-.44183-.44183-1.1582-.44183-1.60004,0l-1.02625,1.02625-1.33307,1.33295-1.02618,1.02618c-.44189,.44183-.44189,1.15826,0,1.60016l2.85248,2.85248c.7309,.73096,1.14154,1.72229,1.14154,2.75592,0,1.03369-.41064,2.02502-1.14154,2.75592l-2.85248,2.85248c-.44183,.44183-.44189,1.1582-.00006,1.60004l1.02631,1.02637,1.33301,1.33301,1.02625,1.02631c.44183,.44183,1.1582,.44183,1.60004,0l2.85248-2.85254c.73096-.7309,1.72223-1.14148,2.75592-1.14148h.00006c1.03369,0,2.02502,.41058,2.75592,1.14148l2.85248,2.85254c.44189,.44183,1.15826,.44183,1.6001,0l1.02625-1.02631,1.33301-1.33301,1.02631-1.02637Z" style="fill:#d0d5dc;"/></svg>